<svg width="200" height="200" viewBox="0 0 200 200" fill="none" xmlns="http://www.w3.org/2000/svg">
<path d="M99.566 46.6565C99.7603 46.2666 99.1773 46.2666 98.983 46.4616C97.2342 48.8015 94.3196 52.5065 94.3196 55.6264C94.3196 57.5764 96.8456 65.5711 94.1253 66.5461C93.9309 66.5461 93.7366 67.1311 94.1253 67.1311C96.2627 66.9361 96.8457 63.6212 96.8457 62.0612C96.8457 59.5263 96.0684 56.9914 96.457 54.6514C96.6513 51.7265 98.4001 49.1915 99.566 46.6565Z" fill="#39A22C"/>
<path d="M139.011 70.4455C133.376 64.4007 126.381 59.7208 118.414 57.5759C110.059 55.2359 101.703 57.3809 94.1253 61.4758C93.3481 61.4758 92.7652 61.2807 91.9879 61.2807C88.1017 60.6957 84.0211 60.5008 79.9406 61.0858C71.7795 61.2808 64.7843 62.6457 57.7891 67.1306C51.3768 71.4205 45.9361 77.2704 41.2726 83.5103C39.1352 86.4352 37.7751 89.5551 36.6092 92.87C36.2206 94.04 35.6376 95.21 35.249 96.575C30.1969 113.345 33.8888 133.624 43.993 147.859C54.4858 162.678 72.7511 171.843 90.4334 174.378C106.756 176.718 124.438 172.428 137.068 161.899C150.476 150.589 154.945 132.259 155.528 115.489C156.111 98.3299 150.67 82.7303 139.011 70.4455Z" fill="url(#paint0_linear_7002_36854)"/>
<path d="M149.698 138.694C146.784 148.053 141.537 156.048 133.959 162.093C126.381 167.943 116.86 171.063 107.338 172.428C87.5187 174.963 66.3388 166.968 52.1541 153.318C40.1068 141.619 33.8888 123.289 35.6376 106.129C35.8319 105.934 36.0262 105.739 36.0262 105.544C36.6091 100.865 37.5807 96.3796 39.3295 92.0897C40.884 88.5798 42.6328 85.4598 45.1588 82.3399C53.7086 71.6151 66.9217 64.7904 80.5235 63.4254C80.7178 63.4254 80.9121 63.4254 80.9121 63.4254C84.9927 63.4254 89.2675 63.4253 93.348 63.8153H93.5424C95.2912 64.0103 97.04 64.2054 98.5945 64.5953C100.149 64.9853 101.509 65.3754 103.064 65.9603C103.258 65.9603 103.452 65.9603 103.647 65.9603C109.865 68.1053 114.917 72.5902 119.774 77.0751C123.661 80.585 127.158 84.6798 129.879 89.1647C131.044 91.1147 132.016 93.2597 132.988 95.4046C133.959 98.1346 134.736 100.865 135.319 103.594C136.097 108.469 136.097 113.539 135.902 118.219C135.708 121.339 135.319 124.654 134.736 127.774C133.182 134.794 130.073 141.034 125.992 147.078C126.381 146.688 126.575 146.493 126.964 146.103C128.713 144.154 130.656 142.399 132.016 140.059C136.679 131.674 137.651 121.924 138.623 112.564C138.623 109.639 138.234 106.714 137.845 103.984C137.457 100.475 136.485 96.7696 135.319 93.4547C133.959 89.9447 132.016 86.8249 129.879 83.9C124.632 76.1001 117.637 69.4703 109.087 65.3754C107.338 64.4004 105.59 63.6203 103.647 63.2304C103.258 63.2304 103.064 63.0354 102.675 63.0354C101.898 62.8404 100.926 62.4504 100.149 62.2554H99.9546C99.3717 62.0604 98.5944 62.0604 98.0115 61.8654C106.95 57.9654 115.888 57.9655 125.021 62.4504C133.376 66.5453 140.566 74.1502 145.424 81.95C155.528 98.7196 155.333 120.364 149.698 138.694Z" fill="url(#paint1_radial_7002_36854)"/>
<path opacity="0.4" d="M144.841 82.145C139.789 74.3452 132.793 66.7404 124.438 62.6455C115.305 58.1606 106.367 57.9656 97.4287 62.0605C98.0116 62.2555 98.7888 62.2555 99.3718 62.4505H99.5661C100.343 62.6455 101.315 62.8404 102.092 63.2304C102.481 63.2304 102.675 63.4255 103.064 63.4255C105.007 64.0105 106.756 64.7904 108.504 65.5704C116.86 69.6653 124.049 76.1002 129.296 84.095C130.462 85.6549 131.433 87.2149 132.405 88.9699C133.959 86.2399 138.623 89.3598 140.954 91.5048C142.509 93.0647 144.841 94.8197 145.618 96.9646C147.561 102.23 148.338 107.689 148.338 113.149C148.338 128.359 144.646 144.544 132.988 155.268C122.106 165.213 106.95 169.308 92.5709 167.943C70.808 165.993 51.7655 153.318 39.9125 135.574C42.8271 142.204 46.7134 148.249 51.9598 153.318C66.1445 166.968 87.5188 175.158 107.144 172.428C116.665 171.258 126.187 168.138 133.765 162.093C141.537 156.048 146.589 148.054 149.504 138.694C155.333 120.364 155.528 98.7196 144.841 82.145Z" fill="url(#paint2_radial_7002_36854)"/>
<path opacity="0.4" d="M105.201 73.1749C115.111 77.8548 123.272 85.6546 128.13 95.4044C132.405 103.984 135.125 113.929 134.931 123.679C135.125 121.924 135.319 120.169 135.319 118.219C135.514 113.539 135.514 108.469 134.736 103.594C134.154 100.864 133.571 98.1343 132.405 95.4044C131.433 93.2594 130.462 91.1144 129.296 89.1645C126.575 84.6796 123.078 80.7798 119.192 77.0748C114.334 72.5899 109.282 68.3 103.064 65.9601C102.869 65.9601 102.675 66.1551 102.481 65.9601C101.121 65.3751 99.5661 64.9851 98.0116 64.5951C96.2628 64.2051 94.7083 64.01 92.9595 63.815H92.7652C88.6847 63.4251 84.4098 63.2302 80.3293 63.4251C80.135 63.4251 79.9406 63.4251 79.9406 63.4251C66.5332 64.7901 53.5143 71.4199 44.9646 81.7547C60.8981 66.545 85.77 63.8151 105.201 73.1749Z" fill="url(#paint3_radial_7002_36854)"/>
<g opacity="0.4" style="mix-blend-mode:soft-light">
<path d="M119.192 90.5304C112.779 77.6607 99.1775 71.8108 85.77 69.6658C62.6469 65.9609 41.2727 87.0205 40.1068 109.445C39.5239 118.805 42.0499 129.53 48.6565 136.549C55.6517 143.959 64.9787 148.639 74.8886 150.589C90.4335 153.709 104.813 148.054 113.945 134.794C122.689 122.12 126.187 104.57 119.192 90.5304Z" fill="url(#paint4_radial_7002_36854)"/>
</g>
<path d="M166.798 47.2411V47.0461C160.191 41.1963 153.196 35.3464 146.006 30.0815C143.48 28.3265 140.76 26.3766 137.651 25.5966C133.376 24.4266 129.296 25.2066 125.215 25.9866C118.026 27.3516 112.002 29.8865 106.367 34.7614C103.647 37.1014 101.509 39.8313 99.566 42.7562C98.7888 44.1212 98.0115 45.4862 97.4286 47.0461C96.6514 48.8011 96.2628 51.726 94.9026 53.286C94.7083 53.286 94.7082 53.286 94.5139 53.286C94.3196 53.286 94.1253 53.676 94.3196 53.676C94.3196 53.676 94.3196 53.676 94.1253 53.871C93.931 54.066 94.1253 54.2609 94.3196 54.0659C94.1253 54.2609 94.3196 54.4559 94.5139 54.4559C97.2343 53.6759 101.509 56.6009 103.647 57.9658C106.756 60.1108 109.476 63.0358 112.391 65.3758C117.637 69.8607 124.438 73.1756 131.433 71.8106C137.262 70.6406 141.149 65.5707 144.452 61.0858C149.893 53.871 156.888 48.216 166.409 48.216C166.992 48.411 167.186 47.4361 166.798 47.2411Z" fill="url(#paint5_linear_7002_36854)"/>
<path d="M147.95 55.0405C142.12 60.8904 138.817 69.6652 129.49 70.6402C120.357 71.6152 113.751 64.0104 107.338 58.5506C105.59 56.9906 101.509 53.8706 98.2058 53.2857C99.9546 52.7007 101.509 51.7257 102.869 50.9457C107.144 48.4107 110.836 45.0958 114.722 42.1709C118.997 38.856 124.438 36.711 129.684 35.931C135.902 35.151 140.76 37.296 146.201 40.026C146.395 40.221 146.589 39.831 146.395 39.636C142.12 36.906 138.817 34.9561 133.571 34.7611C129.101 34.5661 124.826 35.541 120.552 37.296C115.888 39.2459 112.196 42.3659 108.31 45.4858C104.812 48.2158 100.149 52.3107 95.4855 52.8956C96.457 51.9207 96.6513 50.3607 97.2343 48.9957C98.7888 45.0958 100.926 41.7808 103.647 38.4659C109.476 32.0311 116.471 28.7162 124.827 26.9612C129.296 26.1813 133.57 25.4012 137.845 26.7662C141.343 27.9362 144.452 30.4711 147.367 32.616C153.39 37.2959 159.22 42.3659 165.438 46.6558C159.025 47.4357 152.419 50.3606 147.95 55.0405Z" fill="url(#paint6_radial_7002_36854)"/>
<path d="M115.888 40.0263C116.082 40.0263 116.083 39.8312 116.277 39.8312C117.637 38.8562 119.191 38.0762 120.746 37.4912C122.495 36.7112 124.438 36.1263 126.381 35.7363C122.3 36.3213 118.803 37.2963 115.888 40.0263Z" fill="url(#paint7_radial_7002_36854)"/>
<path d="M147.561 33.0064C144.841 30.8614 141.926 28.7165 138.623 27.3516C140.177 28.1315 140.954 29.1065 140.371 30.4714C139.011 33.5914 133.959 34.3714 131.044 34.7614C130.85 34.7614 130.656 34.7614 130.656 34.7614C131.627 34.7614 132.599 34.7614 133.765 34.7614C139.011 34.9564 142.314 36.7113 146.589 39.6363C146.784 39.8313 146.589 40.2213 146.395 40.0263C140.954 37.2963 136.291 34.9563 129.879 35.9313C128.907 36.1263 127.741 36.3213 126.77 36.5163C131.239 35.9313 135.514 36.5163 139.206 39.4412C145.423 44.1211 145.229 51.5309 139.206 56.4058C126.964 66.1556 113.556 54.0659 100.343 54.0659C103.258 55.2358 106.173 57.3808 107.533 58.7458C113.751 64.2057 120.552 71.8105 129.684 70.8356C138.817 69.8606 142.315 61.0858 148.144 55.2359C152.613 50.556 159.22 47.436 165.826 47.241C159.414 42.7561 153.585 37.8813 147.561 33.0064Z" fill="url(#paint8_radial_7002_36854)"/>
<path d="M134.931 39.636C130.656 37.491 125.215 39.441 121.329 41.1959C118.803 42.3659 116.471 43.7309 114.139 45.4859C111.808 47.2408 108.699 51.3357 105.784 52.1156C105.59 52.1156 105.395 52.7006 105.784 52.5056C107.533 52.3107 108.699 51.3357 110.059 50.3607C112.391 48.8008 114.722 47.0458 117.054 45.4859C122.106 42.1709 128.324 40.221 134.542 41.1959C134.736 41.1959 135.708 40.026 134.931 39.636Z" fill="url(#paint9_radial_7002_36854)"/>
<path d="M136.097 28.7163C129.49 26.9613 121.912 28.9113 115.888 32.0312C109.476 35.3461 104.424 42.1711 100.149 47.8259C99.9546 48.0209 100.343 48.2159 100.538 48.0209C104.812 42.951 109.67 37.2961 115.694 33.9812C118.608 32.4212 122.106 31.2513 125.215 30.2763C128.907 29.1063 132.21 29.4963 136.097 29.4963C136.291 29.4963 136.485 28.7163 136.097 28.7163Z" fill="url(#paint10_radial_7002_36854)"/>
<defs>
<linearGradient id="paint0_linear_7002_36854" x1="59.5387" y1="68.0749" x2="128.848" y2="168.27" gradientUnits="userSpaceOnUse">
<stop stop-color="#F3B922"/>
<stop offset="1" stop-color="#D65707"/>
</linearGradient>
<radialGradient id="paint1_radial_7002_36854" cx="0" cy="0" r="1" gradientUnits="userSpaceOnUse" gradientTransform="translate(65.1943 102.354) scale(92.7368 93.0634)">
<stop stop-color="#F7EDC1"/>
<stop offset="0.0764896" stop-color="#F7E8AC"/>
<stop offset="0.2328" stop-color="#F7D978"/>
<stop offset="0.3908" stop-color="#F8C941"/>
<stop offset="0.6451" stop-color="#F9AA18"/>
<stop offset="0.8407" stop-color="#F88B0F"/>
<stop offset="1" stop-color="#F86F07"/>
</radialGradient>
<radialGradient id="paint2_radial_7002_36854" cx="0" cy="0" r="1" gradientUnits="userSpaceOnUse" gradientTransform="translate(65.1924 102.354) scale(92.738 93.0645)">
<stop stop-color="#F7EDC1"/>
<stop offset="0.0764896" stop-color="#F7E8AC"/>
<stop offset="0.2328" stop-color="#F7D978"/>
<stop offset="0.3908" stop-color="#F8C941"/>
<stop offset="0.6451" stop-color="#F9AA18"/>
<stop offset="0.8407" stop-color="#F88B0F"/>
<stop offset="1" stop-color="#F86F07"/>
</radialGradient>
<radialGradient id="paint3_radial_7002_36854" cx="0" cy="0" r="1" gradientUnits="userSpaceOnUse" gradientTransform="translate(65.1924 102.353) scale(92.7372 93.0637)">
<stop stop-color="#F7EDC1"/>
<stop offset="0.0764896" stop-color="#F7E8AC"/>
<stop offset="0.2328" stop-color="#F7D978"/>
<stop offset="0.3908" stop-color="#F8C941"/>
<stop offset="0.6451" stop-color="#F9AA18"/>
<stop offset="0.8407" stop-color="#F88B0F"/>
<stop offset="1" stop-color="#F86F07"/>
</radialGradient>
<radialGradient id="paint4_radial_7002_36854" cx="0" cy="0" r="1" gradientUnits="userSpaceOnUse" gradientTransform="translate(58.1245 25.5641) scale(109.704 110.09)">
<stop stop-color="#F7EDC1"/>
<stop offset="0.0764896" stop-color="#F7E8AC"/>
<stop offset="0.2328" stop-color="#F7D978"/>
<stop offset="0.3908" stop-color="#F8C941"/>
<stop offset="0.6451" stop-color="#F9AA18"/>
<stop offset="0.8407" stop-color="#F88B0F"/>
<stop offset="1" stop-color="#F86F07"/>
</radialGradient>
<linearGradient id="paint5_linear_7002_36854" x1="117.832" y1="28.1011" x2="130.605" y2="72.0971" gradientUnits="userSpaceOnUse">
<stop stop-color="#9FCC21"/>
<stop offset="1" stop-color="#2C8D29"/>
</linearGradient>
<radialGradient id="paint6_radial_7002_36854" cx="0" cy="0" r="1" gradientUnits="userSpaceOnUse" gradientTransform="translate(117.689 48.2853) scale(42.7773 42.9279)">
<stop offset="0.0588054" stop-color="#F8EECC"/>
<stop offset="0.1096" stop-color="#F0EBB8"/>
<stop offset="0.2136" stop-color="#DBE488"/>
<stop offset="0.3602" stop-color="#BBD741"/>
<stop offset="0.4323" stop-color="#A9D020"/>
<stop offset="0.8585" stop-color="#5DB227"/>
<stop offset="1" stop-color="#42A72A"/>
</radialGradient>
<radialGradient id="paint7_radial_7002_36854" cx="0" cy="0" r="1" gradientUnits="userSpaceOnUse" gradientTransform="translate(117.687 48.2849) scale(42.771 42.9219)">
<stop offset="0.0588054" stop-color="#F8EECC"/>
<stop offset="0.1096" stop-color="#F0EBB8"/>
<stop offset="0.2136" stop-color="#DBE488"/>
<stop offset="0.3602" stop-color="#BBD741"/>
<stop offset="0.4323" stop-color="#A9D020"/>
<stop offset="0.8585" stop-color="#5DB227"/>
<stop offset="1" stop-color="#42A72A"/>
</radialGradient>
<radialGradient id="paint8_radial_7002_36854" cx="0" cy="0" r="1" gradientUnits="userSpaceOnUse" gradientTransform="translate(117.687 48.2859) scale(42.7782 42.9288)">
<stop offset="0.0588054" stop-color="#F8EECC"/>
<stop offset="0.1096" stop-color="#F0EBB8"/>
<stop offset="0.2136" stop-color="#DBE488"/>
<stop offset="0.3602" stop-color="#BBD741"/>
<stop offset="0.4323" stop-color="#A9D020"/>
<stop offset="0.8585" stop-color="#5DB227"/>
<stop offset="1" stop-color="#42A72A"/>
</radialGradient>
<radialGradient id="paint9_radial_7002_36854" cx="0" cy="0" r="1" gradientUnits="userSpaceOnUse" gradientTransform="translate(113.822 34.5374) scale(33.2444 33.3613)">
<stop offset="0.0588054" stop-color="#F8EECC"/>
<stop offset="0.1096" stop-color="#F0EBB8"/>
<stop offset="0.2136" stop-color="#DBE488"/>
<stop offset="0.3602" stop-color="#BBD741"/>
<stop offset="0.4323" stop-color="#A9D020"/>
<stop offset="0.8585" stop-color="#5DB227"/>
<stop offset="1" stop-color="#42A72A"/>
</radialGradient>
<radialGradient id="paint10_radial_7002_36854" cx="0" cy="0" r="1" gradientUnits="userSpaceOnUse" gradientTransform="translate(112.681 29.0316) scale(36.6052 36.7341)">
<stop offset="0.0588054" stop-color="#F8EECC"/>
<stop offset="0.1096" stop-color="#F0EBB8"/>
<stop offset="0.2136" stop-color="#DBE488"/>
<stop offset="0.3602" stop-color="#BBD741"/>
<stop offset="0.4323" stop-color="#A9D020"/>
<stop offset="0.8585" stop-color="#5DB227"/>
<stop offset="1" stop-color="#42A72A"/>
</radialGradient>
</defs>
</svg>
