<svg width="200" height="200" viewBox="0 0 200 200" fill="none" xmlns="http://www.w3.org/2000/svg">
<path d="M98.439 60.3047C97.547 62.8464 96.9524 65.0891 96.655 66.4347C96.9524 64.9396 97.547 62.8464 98.439 60.3047ZM113.603 32.0469C113.454 32.1964 113.305 33.9905 115.981 35.6352C115.981 35.6352 115.832 35.7847 115.535 35.7847C115.238 35.7847 114.94 35.6352 114.643 35.1866C114.346 34.8876 114.048 34.7381 113.751 34.7381C111.521 34.7381 108.102 41.3166 106.318 44.4564C104.237 47.8952 96.9524 63.4444 98.885 64.0425C100.818 58.062 103.047 53.2776 105.129 49.3903C105.129 49.2408 105.129 49.0913 105.129 49.0913V48.9417H105.277C110.183 40.1205 114.643 36.5322 116.278 35.4857C115.684 35.3361 115.089 34.8876 114.494 34.14C113.9 33.542 113.603 32.7944 113.603 32.0469Z" fill="url(#paint0_radial_7002_15713)"/>
<path d="M116.873 35.1866C116.724 35.0371 105.129 41.1671 97.2496 68.8269H97.3982V68.6774H97.1009C96.9523 68.6774 96.8036 68.6774 96.6549 68.5278C96.5063 68.3783 96.3576 68.2288 96.2089 67.9298C96.2089 67.9298 96.2089 67.6308 96.5063 66.8832C97.5469 62.3978 102.75 43.7088 113.9 31.5983L113.751 31.4488L113.602 31.5983L116.873 35.1866L113.602 31.2993L113.454 31.4488C100.817 45.503 95.9116 68.0793 95.9116 68.0793C96.0603 68.5278 96.2089 68.6774 96.3576 68.8269C96.5063 68.9764 96.8036 68.9764 96.9523 68.9764C97.1009 68.9764 97.2496 68.9764 97.2496 68.9764H97.3982V68.8269C101.263 55.0717 106.169 46.6991 110.035 41.7652C111.967 39.373 113.602 37.7283 114.94 36.6818C115.535 36.2332 115.981 35.7847 116.427 35.6352C116.576 35.6352 116.724 35.4857 116.873 35.4857V35.1866Z" fill="#972D03"/>
<path d="M115.089 31.5986L114.643 31.7481C114.197 32.0472 114.495 32.9442 115.089 33.6918C115.535 34.2899 116.13 34.5889 116.427 34.5889L116.724 34.4394C116.873 34.2899 116.873 34.2899 116.873 34.1403C116.724 33.6918 116.576 33.0938 116.13 32.4957C115.832 32.0472 115.535 31.7481 115.089 31.5986Z" fill="url(#paint1_radial_7002_15713)"/>
<path d="M113.9 31.299C113.602 31.4485 113.454 31.7476 113.454 32.0466C113.454 32.6446 113.751 33.3922 114.346 34.1398C114.94 35.0368 115.832 35.4854 116.427 35.4854C116.724 35.4854 116.873 35.4854 117.022 35.1863C117.319 35.0368 117.319 34.5883 117.319 34.2893C117.319 33.6912 117.022 32.9437 116.427 32.1961C115.832 31.4485 115.089 31 114.494 31C114.197 31 114.048 31 113.9 31.299C114.048 31.299 114.197 31.299 114.346 31.299C114.792 31.299 115.535 31.7476 116.13 32.4951C116.576 33.0932 116.873 33.8407 116.873 34.4388C116.873 34.7378 116.724 35.0368 116.576 35.0368C116.427 35.1863 116.278 35.1863 116.13 35.1863C115.684 35.1863 114.94 34.7378 114.346 33.9902C113.9 33.3922 113.602 32.6446 113.602 32.0466C113.751 31.7476 113.9 31.598 113.9 31.299Z" fill="#972D03"/>
<path d="M114.495 31.2993C114.346 31.2993 114.197 31.2993 114.049 31.4488C113.9 31.5983 113.751 31.7479 113.751 32.0469C113.751 32.6449 114.049 33.3925 114.495 33.9905C115.089 34.7381 115.832 35.1866 116.278 35.1866C116.427 35.1866 116.576 35.1866 116.724 35.0371C116.873 34.8876 117.022 34.7381 117.022 34.4391V34.14C117.022 34.2896 116.873 34.4391 116.873 34.4391L116.576 34.5886C116.13 34.5886 115.684 34.2896 115.238 33.6915C114.643 32.944 114.495 32.0469 114.792 31.7479L115.238 31.5983H115.387C114.941 31.4488 114.792 31.2993 114.495 31.2993Z" fill="url(#paint2_radial_7002_15713)"/>
<path d="M114.494 31.1499C114.346 31.1499 114.048 31.1499 114.048 31.2994C113.454 31.748 113.751 33.0936 114.643 34.1401C115.238 34.8877 115.981 35.3362 116.576 35.3362C116.724 35.3362 117.022 35.3362 117.022 35.1867C117.468 34.8877 117.319 34.1401 117.022 33.3926C117.17 33.6916 117.17 33.8411 117.17 34.1401V34.4392C117.17 34.7382 117.022 35.0372 116.873 35.0372C116.724 35.1867 116.576 35.1867 116.427 35.1867C115.981 35.1867 115.238 34.7382 114.643 33.9906C114.197 33.3926 113.9 32.645 113.9 32.047C113.9 31.748 114.048 31.4489 114.197 31.4489C114.197 31.2994 114.346 31.2994 114.494 31.1499C114.792 31.2994 115.089 31.4489 115.386 31.5984C115.535 31.5984 115.832 31.748 116.13 32.047C115.535 31.4489 114.94 31.1499 114.494 31.1499Z" fill="#721802"/>
<path d="M107.359 39.8213C106.764 40.7184 106.169 41.4659 105.872 42.064C104.385 44.4562 103.047 47.4464 101.858 50.5862C103.345 46.9979 105.129 43.4096 107.359 39.8213Z" fill="#CA9D82"/>
<path d="M113.454 32.0469L113.305 32.1964C105.575 40.8681 100.818 52.53 98.439 60.1552C97.6957 62.6969 97.101 64.9395 96.655 66.2852C96.9524 66.4347 97.3983 66.7337 97.6957 66.8832L97.8443 66.5842C98.1416 65.6871 98.439 64.79 98.7363 63.893C96.8037 63.4444 104.088 47.8952 106.169 44.3069C108.102 41.1671 111.373 34.5886 113.602 34.5886C113.9 34.5886 114.197 34.7381 114.494 35.0371C114.94 35.4857 115.238 35.6352 115.386 35.6352C115.684 35.6352 115.832 35.4857 115.832 35.4857C113.305 33.9905 113.454 32.0469 113.454 32.0469Z" fill="url(#paint3_radial_7002_15713)"/>
<path d="M98.7365 64.0423C98.4391 64.9394 98.1418 65.8364 97.8445 66.7335C98.2905 65.3879 98.8851 64.0423 98.8851 64.0423H98.7365ZM113.305 32.3457C111.224 34.5884 108.994 37.5786 107.359 39.8213C105.129 43.4096 103.196 47.1474 101.71 50.5862C100.372 53.8755 99.1824 57.3142 98.2905 60.3045C100.818 52.6794 105.575 40.8679 113.305 32.3457Z" fill="#721802"/>
<path d="M115.684 62.6968L115.535 62.9958C115.387 63.1453 115.238 63.4444 115.089 63.8929C114.792 64.6405 114.346 65.6871 113.751 67.0327C112.859 69.7239 111.819 73.3122 111.819 77.05C111.819 77.648 111.819 78.2461 111.967 78.8441C113.454 80.9373 115.238 82.8809 116.873 84.3761C116.576 83.3295 116.576 82.1334 116.576 81.0868C116.576 75.7044 118.954 71.219 119.252 70.7705C118.211 67.7802 117.022 65.089 115.684 62.6968ZM110.778 55.6697L110.629 55.9688C110.481 56.1183 110.332 56.4173 110.183 56.8658C109.737 57.6134 109.291 58.8095 108.845 60.1551C108.251 61.7997 107.656 63.8929 107.21 66.1356C107.507 68.0792 107.805 70.0229 108.251 71.6675C108.845 73.7607 110.183 76.1529 111.67 78.3956C111.67 77.947 111.67 77.4985 111.67 77.05C111.67 69.4249 115.387 62.6968 115.387 62.5473L115.535 62.6968C114.049 59.8561 112.265 57.4639 110.778 55.6697ZM108.697 53.2775C107.061 54.9222 106.764 60.1551 107.061 65.089C108.102 59.7066 110.481 55.5202 110.481 55.3707C109.886 54.6232 109.291 53.8756 108.697 53.2775ZM123.414 78.6946C123.266 78.6946 123.266 78.2461 123.414 76.6014C123.712 72.2656 122.374 63.2949 115.535 58.0619C115.535 58.0619 111.819 54.3241 114.346 54.3241C114.495 54.3241 114.643 54.3241 114.941 54.3241C117.022 54.6232 126.388 61.0522 123.86 77.1995C123.86 77.1995 123.563 78.6946 123.414 78.6946ZM112.413 52.231C111.224 52.231 110.035 52.3805 109.143 52.9785L108.994 53.128C113.9 58.2114 121.928 68.9763 121.928 84.5256C121.928 84.9741 121.928 85.4227 121.928 85.8712H121.63C121.63 85.4227 121.63 84.9741 121.63 84.5256C121.63 79.5917 120.738 75.1063 119.549 71.0695C119.549 71.219 119.4 71.3685 119.252 71.6675C118.954 72.2656 118.657 73.0131 118.36 73.9102C117.765 75.7044 117.022 78.3956 117.022 81.0868C117.022 82.2829 117.17 83.479 117.468 84.6751C118.806 85.7217 119.995 86.4692 121.036 86.6188C121.036 86.6188 120.441 86.4692 119.4 86.1702C119.995 86.4692 120.59 86.6188 121.184 86.7683L121.333 86.6188C121.482 86.4692 121.63 86.1702 121.779 85.8712C122.225 85.2731 122.671 84.2266 123.266 83.0305C124.306 80.4888 125.347 76.9005 125.347 72.5646C125.347 68.9763 124.752 64.9395 122.82 60.6036C121.333 56.8658 118.806 54.4736 115.981 52.829C115.238 52.53 113.751 52.231 112.413 52.231Z" fill="url(#paint4_radial_7002_15713)"/>
<path d="M105.129 49.0909C104.98 49.0909 104.088 53.2773 104.088 58.9587C104.088 63.7431 104.832 69.5741 107.21 74.807C109.738 80.0399 114.049 84.6748 121.185 87.067H121.333V86.9175C121.333 86.9175 125.644 81.3855 125.644 72.4148C125.644 68.8265 125.05 64.7897 123.117 60.3043C120.887 54.9219 116.427 51.9316 112.413 50.4365C108.4 49.0909 105.129 48.9414 105.129 49.0909C105.129 49.2404 105.278 49.2404 105.724 49.2404C107.062 49.3899 110.332 49.8385 113.751 51.4831C117.171 53.1277 120.887 55.819 122.82 60.4538C124.604 64.9392 125.347 68.976 125.347 72.4148C125.347 76.9002 124.306 80.4885 123.266 82.8807C122.671 84.0768 122.225 85.1233 121.779 85.7214C121.63 86.0204 121.482 86.3194 121.333 86.469L121.185 86.6185L121.333 86.768V86.6185C114.197 84.2263 109.886 79.7409 107.508 74.508C105.129 69.2751 104.386 63.5936 104.386 58.8092C104.386 55.9685 104.683 53.5763 104.832 51.7821C104.98 50.8851 105.129 50.1375 105.129 49.689C105.129 49.3899 105.278 49.2404 105.129 49.0909Z" fill="#456C1A"/>
<path d="M105.129 49.9884L105.277 50.1379C107.061 51.633 121.481 63.7435 121.481 84.3762C121.481 84.8247 121.481 85.2732 121.481 85.7218H121.779C121.779 85.2732 121.779 84.8247 121.779 84.3762C121.779 62.0989 105.277 49.8389 105.277 49.8389L105.129 49.9884Z" fill="#456C1A"/>
<path d="M110.481 55.3701C110.481 55.3701 106.467 62.5467 106.467 70.1718C106.467 71.6669 106.615 73.3116 107.061 74.8067L107.359 74.6572C106.913 73.1621 106.764 71.6669 106.764 70.0223C106.764 66.2845 107.805 62.6962 108.697 60.005C109.143 58.6594 109.737 57.4633 110.035 56.7157C110.183 56.2672 110.332 55.9682 110.481 55.8187C110.629 55.6691 110.629 55.5196 110.629 55.5196L110.481 55.3701Z" fill="#456C1A"/>
<path d="M115.386 62.5474C115.386 62.5474 111.67 69.4249 111.67 77.05C111.67 78.6947 111.819 80.4888 112.265 82.1335L112.562 81.9839C112.116 80.3393 111.967 78.5452 111.967 76.9005C111.967 73.1627 112.859 69.5744 113.9 66.8832C114.346 65.5376 114.792 64.491 115.238 63.7435C115.386 63.2949 115.535 63.1454 115.684 62.8464C115.832 62.6969 115.832 62.5474 115.832 62.5474H115.386Z" fill="#456C1A"/>
<path d="M119.252 70.6206C119.252 70.6206 116.576 75.405 116.576 80.9369C116.576 82.4321 116.725 83.9272 117.171 85.4223L117.468 85.2728C117.022 83.7777 116.873 82.2826 116.873 80.9369C116.873 78.0962 117.468 75.5545 118.211 73.7604C118.509 72.8633 118.806 72.1157 119.103 71.5177C119.252 71.2187 119.401 71.0691 119.401 70.9196L119.549 70.7701L119.252 70.6206Z" fill="#456C1A"/>
<path d="M107.805 52.2308C108.251 52.0813 110.035 51.3337 111.819 51.3337C112.711 51.3337 113.603 51.4832 114.346 51.9317L114.495 51.6327C113.603 51.1842 112.711 51.0347 111.819 51.0347C109.738 51.0347 107.656 51.9317 107.656 51.9317L107.805 52.2308Z" fill="#456C1A"/>
<path d="M104.385 64.7896C104.98 70.6205 106.913 74.9564 108.994 78.0961C108.25 77.0495 107.656 76.003 107.21 74.8069C105.575 71.6671 104.831 68.0788 104.385 64.7896Z" fill="#C7D9AE"/>
<path d="M107.21 66.1357C106.913 67.4813 106.913 68.8269 106.913 70.1725C106.913 71.6676 107.061 73.3123 107.507 74.8074C108.697 77.1996 110.183 79.5918 112.265 81.5354C111.967 80.4889 111.819 79.4423 111.819 78.3957C110.332 76.153 108.994 73.7608 108.399 71.6676C107.805 70.023 107.359 68.0794 107.21 66.1357ZM111.67 51.334C109.886 51.334 108.251 51.932 107.805 52.0816C108.102 52.3806 108.399 52.6796 108.845 53.1281L108.994 52.9786C109.886 52.3806 111.224 52.2311 112.265 52.2311C113.751 52.2311 115.089 52.5301 115.832 52.6796C115.238 52.3806 114.643 52.0816 114.197 51.7825C113.454 51.4835 112.562 51.334 111.67 51.334ZM105.129 49.2408C105.129 49.3903 105.129 49.5398 104.98 49.8389C104.831 50.2874 104.831 51.035 104.683 51.932C104.385 53.7262 104.237 56.1184 104.237 58.9591C104.237 63.295 104.831 68.5279 106.764 73.3123C106.615 72.2657 106.467 71.2191 106.467 70.1725C106.467 68.3784 106.615 66.7337 107.061 65.0891C106.615 60.1552 107.061 54.9223 108.697 53.2776C107.061 51.633 105.723 50.5864 105.277 50.1379L105.129 49.9884L105.277 49.6894C105.277 49.6894 106.169 50.4369 107.656 51.7825C107.805 51.633 109.737 50.8855 111.67 50.8855C111.967 50.8855 112.265 50.8855 112.562 50.8855C109.44 49.6894 106.764 49.2408 105.575 49.0913C105.426 49.3903 105.277 49.2408 105.129 49.2408Z" fill="url(#paint5_radial_7002_15713)"/>
<path d="M105.129 49.0913C104.088 55.2213 103.94 60.4542 104.385 64.7901C104.831 68.0794 105.575 71.6676 107.21 74.8074C107.805 75.854 108.399 77.0501 108.994 78.0967C110.035 79.5918 111.075 80.7879 112.265 81.8345L112.116 81.3859C110.035 79.4423 108.548 77.0501 107.359 74.6579L107.061 74.8074C106.913 74.3589 106.764 73.9103 106.764 73.3123C104.831 68.5279 104.237 63.295 104.237 58.9591C104.237 56.1184 104.534 53.7262 104.683 51.932C104.831 51.035 104.98 50.2874 104.98 49.8389C104.98 49.5398 105.129 49.3903 105.129 49.2408C105.277 49.2408 105.426 49.2408 105.575 49.2408C106.764 49.3903 109.589 49.6894 112.562 51.035C113.157 51.1845 113.751 51.334 114.197 51.633L114.049 51.7825C114.643 52.0816 115.238 52.3806 115.684 52.6796C116.13 52.8291 116.427 52.8291 116.427 52.8291C111.967 49.5398 105.129 49.0913 105.129 49.0913Z" fill="#345415"/>
<path d="M111.968 78.8442C112.116 79.8908 112.265 80.9374 112.562 81.984C113.9 83.1801 115.387 84.3762 117.171 85.2733C117.022 84.9742 117.022 84.6752 117.022 84.3762C115.238 82.8811 113.454 80.9374 111.968 78.8442Z" fill="url(#paint6_radial_7002_15713)"/>
<path d="M112.562 81.8345V81.984H112.413C114.049 83.4791 115.684 84.5257 117.171 85.1237V84.9742C115.387 84.2267 113.9 83.0306 112.562 81.8345Z" fill="#345415"/>
<path d="M117.319 84.6748C117.319 84.9738 117.468 85.1233 117.468 85.4224C118.063 85.7214 118.657 86.0204 119.401 86.3194C120.441 86.6185 121.036 86.768 121.036 86.768C119.847 86.4689 118.657 85.7214 117.319 84.6748Z" fill="url(#paint7_radial_7002_15713)"/>
<path d="M117.468 85.2729C118.062 85.7215 118.806 86.0205 119.4 86.17C118.657 85.871 118.062 85.572 117.468 85.2729Z" fill="#345415"/>
<path d="M105.277 49.8389L105.129 50.1379L105.277 50.2874C105.723 50.5864 107.061 51.633 108.697 53.4272L108.845 53.2776C108.548 52.9786 108.102 52.5301 107.805 52.2311H107.656V51.932C106.169 50.5864 105.277 49.8389 105.277 49.8389Z" fill="#345415"/>
<path d="M107.061 65.0889C106.764 66.7335 106.467 68.3781 106.467 70.1723C106.467 71.2189 106.615 72.2655 106.764 73.312C106.913 73.7606 106.913 74.2091 107.061 74.8072L107.359 74.6576C106.913 73.1625 106.764 71.6674 106.764 70.0228C106.764 68.6772 106.913 67.3316 107.061 65.9859C107.21 65.8364 107.061 65.3879 107.061 65.0889Z" fill="#345415"/>
<path d="M111.67 78.396C111.67 79.4426 111.819 80.4892 112.116 81.5357L112.265 81.9843L112.413 82.1338H112.562V81.9843C112.265 80.9377 112.116 79.8911 111.967 78.8445C111.967 78.695 111.819 78.5455 111.67 78.396Z" fill="#345415"/>
<path d="M116.873 84.377C116.873 84.676 117.022 84.975 117.022 85.274V85.4235L117.319 85.573H117.468C117.468 85.274 117.319 85.1245 117.319 84.8255L116.873 84.377Z" fill="#345415"/>
<path d="M111.67 51.0347C109.589 51.0347 107.805 51.7822 107.656 51.9317L107.805 52.2308H107.954C108.4 52.0813 110.035 51.4832 111.819 51.4832C112.711 51.4832 113.603 51.6327 114.346 52.0813L114.495 51.9317C113.9 51.6327 113.305 51.4832 112.859 51.3337C112.413 51.0347 111.967 51.0347 111.67 51.0347Z" fill="#345415"/>
<path d="M114.197 54.1743C111.67 54.1743 115.387 57.9121 115.387 57.9121C122.225 63.145 123.563 72.1158 123.266 76.4516C123.117 78.0963 123.266 78.5448 123.266 78.5448C123.414 78.5448 123.712 77.0497 123.712 77.0497C126.239 60.9024 116.873 54.4733 114.792 54.1743C114.643 54.3238 114.495 54.1743 114.197 54.1743Z" fill="url(#paint8_radial_7002_15713)"/>
<path d="M118.062 67.4816C118.508 67.4816 122.522 68.0797 125.347 72.8641L125.644 72.7146C122.671 67.3321 118.211 67.1826 118.211 67.1826L118.062 67.4816Z" fill="#456C1A"/>
<path d="M113.9 59.4073C114.346 59.2578 115.684 58.6598 117.468 58.6598C119.401 58.6598 121.631 59.4073 123.563 62.0985L123.861 61.949C121.928 59.1083 119.549 58.5103 117.617 58.5103C115.535 58.5103 114.049 59.2578 114.049 59.2578L113.9 59.4073Z" fill="#456C1A"/>
<path d="M88.7759 64.7896C78.2209 64.7896 66.4766 73.7603 55.0296 86.9174C48.7858 94.0939 41.3527 99.9249 35.5549 106.354C32.2843 109.942 29.6084 113.68 27.6758 118.016C27.5271 122.352 28.5678 128.631 31.8383 138.948C36.0009 151.955 46.4072 157.487 57.1109 157.487C66.9226 157.487 77.1803 152.852 83.1267 144.928C82.3834 144.33 81.6401 143.881 80.8968 143.433C77.6262 141.639 75.099 139.396 73.3151 137.004C68.2605 144.48 60.3815 147.918 53.2457 147.918C51.3131 147.918 49.5291 147.619 47.7452 147.171C36.0009 143.881 30.649 125.94 36.8928 113.231C43.1367 100.523 58.5975 97.3832 67.5172 82.731C74.207 71.6671 81.9375 67.9293 86.992 67.9293C88.6272 67.9293 89.9652 68.3778 90.8572 68.9759C97.6956 74.3583 93.9791 80.3388 92.3438 85.4222C91.0058 89.7581 83.2754 96.7852 80.0048 112.783C83.2754 111.736 87.2893 111.288 91.7491 111.288C93.0871 111.288 94.4251 111.288 95.763 111.437C99.0336 101.42 101.561 93.1969 102.899 84.0766C104.088 75.5544 99.7769 69.7235 95.317 66.1352C93.0871 65.2381 91.0058 64.7896 88.7759 64.7896Z" fill="url(#paint9_radial_7002_15713)"/>
<path d="M97.9931 67.3323C95.1685 65.3887 92.0466 64.6411 88.776 64.6411C78.0724 64.6411 66.3281 73.6118 54.8811 86.9184C48.6373 94.095 41.2042 99.7765 35.4063 106.355C29.3112 112.784 25 119.961 25 129.978C25 134.164 25.7433 138.799 27.3786 144.032C30.3518 153.302 35.8523 159.581 42.5421 163.469C49.0833 167.356 56.8137 169.001 63.9495 169.001C73.3152 169.001 81.9376 166.309 86.5461 162.572C92.3439 157.787 96.0605 147.62 98.885 137.155C101.561 126.689 103.196 115.774 104.683 109.345C106.021 103.813 107.21 96.4872 107.21 89.4601C107.21 84.8253 106.615 80.3399 105.278 76.4526C103.94 72.5653 101.561 69.276 97.9931 67.3323C101.412 69.575 103.642 72.7148 104.98 76.6021C106.318 80.4894 106.913 84.8253 106.913 89.4601C106.913 96.4872 105.723 103.664 104.386 109.196C102.899 115.625 101.264 126.539 98.5877 137.005C95.9118 147.471 92.0466 157.638 86.3974 162.273C81.9376 166.01 73.3152 168.702 63.9495 168.702C56.8137 168.702 49.2319 167.057 42.6908 163.319C36.1497 159.432 30.6492 153.302 27.6759 144.032C26.0406 138.799 25.2973 134.164 25.2973 130.127C25.2973 120.11 29.6085 112.934 35.555 106.505C41.5015 100.075 48.9346 94.2445 55.0297 87.0679C66.4767 73.9109 78.221 64.9401 88.776 64.9401C91.8979 64.7906 95.0198 65.6877 97.9931 67.3323Z" fill="#423E0B"/>
<path d="M95.1685 66.1353C99.6283 69.7235 103.94 75.5545 102.75 84.0767C101.412 93.197 98.885 101.42 95.6144 111.437C97.1011 111.587 98.7363 111.587 100.223 111.736C101.412 111.886 102.602 111.886 103.791 112.035C103.94 110.989 104.237 110.092 104.386 109.195C105.723 103.663 106.913 96.4862 106.913 89.4591C106.913 84.9738 106.318 80.4884 104.98 76.6011C103.642 72.7138 101.264 69.574 97.8444 67.4809C96.9524 66.8828 96.0604 66.4343 95.1685 66.1353Z" fill="url(#paint10_radial_7002_15713)"/>
<path d="M97.9932 67.332C101.412 69.5747 103.642 72.7145 104.98 76.6018C106.318 80.4891 106.913 84.825 106.913 89.4598C106.913 96.4869 105.724 103.663 104.386 109.195C104.237 110.093 103.94 110.99 103.791 112.036H103.94C104.088 110.99 104.386 110.093 104.534 109.195C107.508 96.3374 110.332 74.8076 97.9932 67.332ZM94.8713 65.8369L95.1687 66.1359C96.0606 66.435 96.9526 67.033 97.8446 67.4815V67.332C96.9526 66.734 95.912 66.1359 94.8713 65.8369Z" fill="#322F0A"/>
<path d="M27.676 118.016C26.1893 121.604 25.2974 125.492 25.2974 129.977C25.2974 134.163 26.0407 138.649 27.676 143.882C30.6492 153.151 36.1497 159.281 42.6908 163.169C49.232 167.056 56.8137 168.551 63.9495 168.551C73.3152 168.551 81.7889 165.86 86.3975 162.122C88.9247 160.029 91.006 157.039 92.7899 153.301C89.0734 150.012 85.9515 146.872 83.2756 144.779C77.1804 152.703 67.0714 157.338 57.2597 157.338C46.4074 157.338 36.1497 151.806 31.9872 138.798C28.5679 128.631 27.5273 122.352 27.676 118.016Z" fill="url(#paint11_radial_7002_15713)"/>
<path d="M27.6758 117.717C24.7025 124.595 23.9592 132.968 27.5271 144.031C33.4736 162.571 49.5291 168.85 63.9493 168.85C73.315 168.85 81.9374 166.159 86.3973 162.421C88.9245 160.328 91.0058 157.188 92.9384 153.6L92.7898 153.451C91.0058 157.188 88.7759 160.328 86.3973 162.272C81.9374 166.01 73.315 168.701 63.9493 168.701C56.8135 168.701 49.2318 167.056 42.6906 163.318C36.1495 159.431 30.649 153.301 27.6758 144.031C26.0405 138.798 25.2972 134.164 25.2972 130.127C25.2972 125.641 26.1892 121.754 27.6758 118.166V117.717Z" fill="#322F0A"/>
<path d="M86.9923 67.9297C82.0865 67.9297 74.2074 71.817 67.5176 82.7314C58.5979 97.3836 43.137 100.673 36.8932 113.232C30.6494 125.94 36.0013 143.882 47.8942 147.171C49.6782 147.62 51.4621 147.919 53.3947 147.919C60.5305 147.919 68.4096 144.33 73.4641 137.004C71.3828 134.164 70.1935 131.024 69.8962 127.884C66.7743 135.36 58.4492 141.938 51.6108 141.938C47.8942 141.938 44.6237 139.845 43.137 134.911C38.5285 119.511 49.8268 107.55 56.9626 103.663C60.3818 101.719 63.2064 100.972 65.2877 100.972C72.4235 100.972 72.8694 110.242 71.6801 119.212C72.4235 117.867 73.4641 116.671 74.6534 115.624C76.14 114.428 77.924 113.381 80.0052 112.783C83.1271 96.7855 91.0062 89.7585 92.3442 85.4226C93.8308 80.3392 97.696 74.3587 90.8576 68.9763C89.8169 68.3782 88.479 67.9297 86.9923 67.9297Z" fill="url(#paint12_radial_7002_15713)"/>
<path d="M65.2876 100.972C63.2063 100.972 60.3817 101.719 56.9625 103.663C49.8267 107.55 38.5284 119.661 43.1369 134.911C44.6235 139.845 47.8941 141.938 51.6107 141.938C58.3004 141.938 66.7742 135.359 69.8961 127.884C69.8961 127.435 69.8961 126.987 69.8961 126.389C69.8961 123.847 70.4907 121.305 71.8287 119.212C72.8693 110.241 72.4233 100.972 65.2876 100.972Z" fill="url(#paint13_radial_7002_15713)"/>
<path d="M174.406 127.735C173.96 127.884 173.514 128.034 173.068 128.333C172.622 130.127 171.432 131.772 169.797 133.416C164.891 138.948 152.552 147.62 123.117 150.162C123.117 150.162 111.224 152.105 120.293 158.385C124.158 161.076 130.848 162.87 138.578 162.87C147.646 162.87 158.35 160.329 167.419 153.152C168.162 152.105 168.905 151.059 169.5 150.012C173.662 143.135 174.554 135.659 174.554 131.024C174.554 129.828 174.554 128.781 174.406 128.034V127.735Z" fill="url(#paint14_radial_7002_15713)"/>
<path d="M74.8018 115.774C71.5313 118.465 69.896 122.352 69.896 126.538C69.896 132.668 73.4639 139.396 81.0457 143.583C85.5055 145.975 90.4114 152.105 97.8445 157.487C105.278 163.019 115.238 167.804 129.955 167.804C134.713 167.804 139.767 167.355 145.565 166.159C158.499 163.617 165.783 157.188 169.946 150.161C174.108 143.134 175 135.659 175 131.024C175 129.828 175 128.781 174.851 128.034C174.703 126.239 173.365 124.445 171.284 122.651C164.891 117.119 151.363 111.886 138.727 111.288C136.199 111.139 133.821 111.139 131.591 111.139C121.63 111.139 113.751 112.036 106.616 112.036C104.534 112.036 102.453 111.886 100.52 111.737C97.5471 111.438 94.7226 111.288 91.898 111.288C84.6135 111.288 78.5184 112.484 74.8018 115.774C78.5184 112.783 84.7622 111.587 91.7493 111.587C94.4252 111.587 97.3985 111.737 100.223 112.036C102.304 112.185 104.237 112.335 106.318 112.335C113.454 112.335 121.333 111.438 131.293 111.438C133.523 111.438 135.902 111.438 138.429 111.587C146.754 112.036 155.525 114.428 162.364 117.717C165.783 119.362 168.608 121.156 170.689 122.95C172.77 124.744 174.108 126.538 174.257 128.183C174.405 128.931 174.405 129.977 174.405 131.173C174.405 135.808 173.513 143.284 169.351 150.161C165.188 157.039 158.053 163.468 145.119 166.01C139.47 167.206 134.267 167.654 129.658 167.654C115.089 167.654 105.129 162.87 97.6958 157.338C90.2627 151.955 85.3568 145.825 80.897 143.433C73.4639 139.396 69.896 132.668 69.896 126.688C70.1933 122.352 71.6799 118.614 74.8018 115.774Z" fill="#423E0B"/>
<path d="M76.1396 115.026C75.6936 115.325 75.2476 115.624 74.9503 115.923C71.8284 118.614 70.1931 122.501 70.1931 126.538C70.1931 132.668 73.761 139.247 81.1941 143.284C85.654 145.676 90.5598 151.806 97.9929 157.188C105.426 162.571 115.386 167.505 129.955 167.505C134.564 167.505 139.767 167.056 145.416 165.86C156.268 163.767 163.107 158.833 167.567 153.151C158.498 160.179 147.943 162.87 138.726 162.87C130.996 162.87 124.306 160.926 120.441 158.384C111.372 152.105 123.265 150.161 123.265 150.161C152.701 147.62 164.891 138.948 169.945 133.416C169.797 133.565 169.648 133.715 169.499 133.864C166.972 136.107 163.404 137.901 159.093 139.546C150.471 142.686 139.024 144.48 127.428 144.48C121.333 144.48 115.089 144.031 109.291 142.835C101.263 141.34 97.8443 140.293 95.0197 139.097C92.1951 138.051 90.2625 136.855 84.9107 134.911C80.8968 133.416 77.7749 131.771 75.6936 129.828C73.6123 127.884 72.5717 125.641 72.5717 123.1C72.5717 121.604 72.869 119.96 73.6123 118.315C74.3557 116.97 75.099 115.923 76.1396 115.026Z" fill="url(#paint15_radial_7002_15713)"/>
<path d="M76.5857 114.578C75.991 115.026 75.3964 115.325 74.8017 115.923C66.9226 122.651 68.5579 136.705 81.1942 143.583C90.1139 148.367 100.669 167.804 129.955 167.804C134.713 167.804 139.767 167.355 145.565 166.159C156.715 163.917 163.702 158.833 168.013 153.002L167.567 153.301C163.256 158.983 156.417 163.917 145.416 166.01C139.767 167.206 134.564 167.654 129.955 167.654C115.386 167.654 105.426 162.87 97.993 157.338C90.5599 151.956 85.654 145.826 81.1942 143.433C73.7611 139.397 70.1932 132.669 70.1932 126.688C70.1932 122.651 71.8285 118.764 74.9504 116.073C75.3964 115.774 75.6937 115.475 76.1397 115.176C76.2883 114.877 76.437 114.727 76.5857 114.578Z" fill="#322F0A"/>
<path d="M91.7493 111.587C85.9514 111.587 80.8969 112.334 77.1804 114.278C75.8424 115.474 74.8018 116.82 74.2071 118.315C73.4638 119.96 73.1665 121.604 73.1665 122.95C73.1665 125.342 74.2071 127.585 76.1397 129.528C78.0724 131.472 81.1943 133.117 85.2081 134.612C90.4113 136.555 92.4926 137.752 95.3171 138.798C97.9931 139.845 101.412 140.891 109.44 142.536C115.238 143.583 121.333 144.181 127.428 144.181C136.051 144.181 144.673 143.134 151.957 141.34C159.242 139.546 165.486 136.854 169.202 133.565C171.729 131.472 173.067 129.08 173.067 126.538C173.067 125.94 173.067 125.492 172.919 124.893C170.391 121.903 165.337 118.763 159.242 116.371C155.079 114.727 150.322 113.381 145.565 112.484C146.16 113.232 146.754 113.979 147.2 114.876C148.389 116.82 149.133 118.913 149.727 120.408C153.295 121.754 155.377 123.548 154.336 125.94C151.363 133.565 140.362 134.911 130.847 134.911C129.212 134.911 127.577 134.911 126.09 134.761C115.981 134.313 108.399 128.183 106.467 123.996C105.129 120.857 108.845 119.063 110.927 118.315C111.521 116.969 112.562 115.474 113.751 113.83C114.197 113.232 114.792 112.633 115.238 112.035C112.116 112.185 109.291 112.334 106.467 112.334C104.386 112.334 102.304 112.185 100.372 112.035C97.2498 111.736 94.4252 111.587 91.7493 111.587Z" fill="url(#paint16_radial_7002_15713)"/>
<path d="M74.0584 118.316C73.1664 119.96 72.8691 121.605 72.8691 123.1C72.8691 125.642 73.9098 127.884 75.991 129.828C78.0723 131.772 81.0455 133.566 85.2081 134.911C90.4112 136.855 92.4925 138.051 95.3171 139.098C98.1417 140.144 101.561 141.191 109.589 142.836C115.386 144.032 121.482 144.48 127.725 144.48C139.321 144.48 150.768 142.686 159.39 139.546C163.702 137.902 167.27 136.108 169.797 133.865C172.324 131.622 173.811 129.23 173.811 126.539C173.811 125.941 173.811 125.343 173.662 124.745C173.662 123.5 166.08 118.615 159.836 116.073C153.593 113.531 146.308 111.737 139.172 111.438C136.645 111.289 134.267 111.289 132.037 111.289C122.076 111.289 114.197 112.186 107.061 112.186C104.98 112.186 102.899 112.036 100.966 111.887C97.993 111.588 95.1684 111.438 92.3439 111.438C86.546 111.438 81.4915 112.186 77.6263 114.279C75.6937 115.325 74.5044 116.671 74.0584 118.316C74.8017 116.821 75.991 115.475 77.1803 114.279H77.0317V114.428C80.7482 112.485 85.8027 111.737 91.6005 111.737C94.2765 111.737 97.2497 111.887 100.074 112.186C102.156 112.335 104.088 112.485 106.169 112.485C113.305 112.485 121.184 111.588 131.145 111.588C133.375 111.588 135.753 111.588 138.28 111.737C145.268 112.036 152.552 113.83 158.796 116.372C165.04 118.914 170.094 122.053 172.473 125.044L172.621 124.894H172.473C172.621 125.492 172.621 126.09 172.621 126.688C172.621 129.23 171.283 131.622 168.756 133.715C165.04 136.855 158.944 139.546 151.511 141.49C144.078 143.284 135.605 144.331 126.982 144.331C120.887 144.331 114.643 143.882 108.994 142.686C100.966 141.191 97.547 140.144 94.8711 138.948C92.1952 137.902 90.1139 136.706 84.7621 134.762C80.7482 133.267 77.775 131.622 75.6937 129.679C73.7611 127.735 72.7205 125.642 72.7205 123.1C73.0178 121.605 73.4638 119.96 74.0584 118.316Z" fill="#739955"/>
<path d="M110.778 118.315C108.845 119.063 104.98 120.857 106.318 123.997C108.251 128.183 115.833 134.313 125.942 134.762C127.428 134.762 129.063 134.911 130.699 134.911C140.213 134.911 151.214 133.566 154.187 125.941C155.079 123.548 153.147 121.754 149.579 120.409C150.322 122.651 150.471 124.146 150.471 124.146C150.471 124.146 150.471 126.24 147.795 128.333C145.268 130.426 140.213 132.37 130.253 132.519H130.104C120.144 132.519 114.941 129.977 112.265 127.585C109.44 125.043 109.291 122.502 109.291 122.502C109.291 122.203 109.737 120.558 110.778 118.315Z" fill="url(#paint17_radial_7002_15713)"/>
<path d="M109.44 122.202C109.44 122.202 110.481 132.22 130.401 132.07C150.322 132.07 150.471 123.996 150.471 123.996C150.471 123.996 147.646 105.307 130.699 105.457C113.751 105.606 109.44 122.202 109.44 122.202Z" fill="#C5601D"/>
<path d="M109.44 122.203C109.291 122.203 109.589 124.745 112.413 127.286C115.238 129.828 120.441 132.22 130.253 132.22H130.401C140.362 132.22 145.416 130.127 147.943 128.034C150.471 125.941 150.619 123.848 150.619 123.848C150.619 123.848 149.876 119.213 147.051 114.578C144.227 109.943 139.321 105.308 130.847 105.308H130.699C122.225 105.308 116.873 109.644 113.603 113.83C110.332 118.017 109.291 122.203 109.44 122.203L109.589 122.053C109.886 121.156 111.224 117.12 114.494 113.232C117.765 109.345 122.82 105.757 130.699 105.607H130.847C139.172 105.607 143.93 110.242 146.754 114.727C148.092 116.97 148.984 119.362 149.579 121.007C149.876 121.904 150.025 122.652 150.173 123.1C150.173 123.399 150.322 123.549 150.322 123.698V123.848C150.322 123.997 150.173 126.09 147.646 127.884C145.119 129.828 140.064 131.772 130.55 131.772H130.401C120.59 131.772 115.386 129.23 112.711 126.838C111.373 125.642 110.629 124.446 110.183 123.549C110.035 123.1 109.886 122.652 109.737 122.502V122.203V122.053L109.44 122.203Z" fill="#482009"/>
<path d="M138.875 107.401C144.078 112.634 146.457 122.353 139.47 126.24C135.159 128.632 130.699 129.679 126.536 129.679C120.144 129.679 114.643 126.987 111.967 122.054C111.224 120.708 112.116 117.419 113.454 114.578C111.075 118.017 109.886 121.156 109.737 122.054V122.203V122.353V122.652C109.737 122.951 109.886 123.25 110.183 123.698C110.629 124.595 111.373 125.791 112.711 126.987C115.386 129.38 120.59 131.921 130.401 131.921H130.55C140.213 131.921 145.119 129.978 147.646 128.034C150.173 126.09 150.322 124.147 150.322 123.997V123.848C150.322 123.698 150.322 123.549 150.173 123.25C150.025 122.801 149.876 122.054 149.579 121.156C149.133 119.362 148.241 117.12 146.754 114.877C144.97 112.036 142.592 109.046 138.875 107.401Z" fill="#9F2B03"/>
<path d="M138.578 107.102L138.875 107.401C142.592 109.195 144.97 112.035 146.754 114.876C148.092 117.119 148.984 119.511 149.579 121.156C149.876 122.053 150.025 122.8 150.173 123.249C150.173 123.548 150.322 123.697 150.322 123.847V123.996C150.322 124.146 150.173 126.239 147.646 128.033C145.119 129.977 140.064 131.921 130.55 131.921H130.401C120.59 131.921 115.386 129.379 112.711 126.987C111.373 125.791 110.629 124.594 110.183 123.697C110.035 123.249 109.886 122.8 109.737 122.651V122.352V122.202V122.053C110.035 121.305 111.075 118.016 113.454 114.577C113.602 114.428 113.602 114.129 113.751 113.979C110.629 118.165 109.589 122.202 109.589 122.202C109.589 122.202 110.629 132.07 130.401 132.07H130.55C150.471 132.07 150.619 123.996 150.619 123.996C150.619 123.996 148.538 111.587 138.578 107.102Z" fill="#361209"/>
<path d="M128.915 106.804C127.428 106.804 125.644 106.953 123.563 107.402C119.698 108.299 113.9 113.831 114.197 117.27C114.346 119.811 117.616 121.306 120.441 121.306C121.63 121.306 122.671 121.007 123.563 120.559C126.685 118.765 127.428 113.083 132.037 110.691C135.753 108.897 133.969 106.804 128.915 106.804Z" fill="#E2933A"/>
<defs>
<radialGradient id="paint0_radial_7002_15713" cx="0" cy="0" r="1" gradientTransform="matrix(-13.3021 31.576 -47.9169 -20.4177 92.0138 71.7221)" gradientUnits="userSpaceOnUse">
<stop stop-color="#DF7003"/>
<stop offset="1" stop-color="#933F04"/>
</radialGradient>
<radialGradient id="paint1_radial_7002_15713" cx="0" cy="0" r="1" gradientTransform="matrix(-1.64982 -1.74896 0.935263 -1.03311 115.461 33.2704)" gradientUnits="userSpaceOnUse">
<stop stop-color="#DF7003"/>
<stop offset="1" stop-color="#933F04"/>
</radialGradient>
<radialGradient id="paint2_radial_7002_15713" cx="0" cy="0" r="1" gradientTransform="matrix(-1.64985 -1.74874 0.935297 -1.03306 115.459 33.2514)" gradientUnits="userSpaceOnUse">
<stop stop-color="#AB3803"/>
<stop offset="1" stop-color="#6F2203"/>
</radialGradient>
<radialGradient id="paint3_radial_7002_15713" cx="0" cy="0" r="1" gradientTransform="matrix(-13.421 31.8585 -48.3454 -20.6004 91.551 71.9852)" gradientUnits="userSpaceOnUse">
<stop stop-color="#AB3803"/>
<stop offset="1" stop-color="#6F2203"/>
</radialGradient>
<radialGradient id="paint4_radial_7002_15713" cx="0" cy="0" r="1" gradientTransform="matrix(22.0552 11.6399 -6.08183 16.0976 118.226 62.4767)" gradientUnits="userSpaceOnUse">
<stop stop-color="#8AC91C"/>
<stop offset="1" stop-color="#2E8927"/>
</radialGradient>
<radialGradient id="paint5_radial_7002_15713" cx="0" cy="0" r="1" gradientTransform="matrix(22.1119 11.6698 -6.09748 16.139 118.196 62.5395)" gradientUnits="userSpaceOnUse">
<stop stop-color="#669D1C"/>
<stop offset="1" stop-color="#226920"/>
</radialGradient>
<radialGradient id="paint6_radial_7002_15713" cx="0" cy="0" r="1" gradientTransform="matrix(22.0925 11.6595 -6.09213 16.1248 119.463 62.5889)" gradientUnits="userSpaceOnUse">
<stop stop-color="#669D1C"/>
<stop offset="1" stop-color="#226920"/>
</radialGradient>
<radialGradient id="paint7_radial_7002_15713" cx="0" cy="0" r="1" gradientTransform="matrix(22.2112 11.7222 -6.12485 16.2114 118.401 62.438)" gradientUnits="userSpaceOnUse">
<stop stop-color="#669D1C"/>
<stop offset="1" stop-color="#226920"/>
</radialGradient>
<radialGradient id="paint8_radial_7002_15713" cx="0" cy="0" r="1" gradientTransform="matrix(22.0738 11.6497 -6.08691 16.1112 118.348 62.5184)" gradientUnits="userSpaceOnUse">
<stop stop-color="#B3DE4B"/>
<stop offset="1" stop-color="#6FBF53"/>
</radialGradient>
<radialGradient id="paint9_radial_7002_15713" cx="0" cy="0" r="1" gradientTransform="matrix(47.5104 -45.4046 -31.3728 -33.2043 55.9746 114.886)" gradientUnits="userSpaceOnUse">
<stop stop-color="#9FA84E"/>
<stop offset="0.2331" stop-color="#9FA84E"/>
<stop offset="0.9877" stop-color="#4C5411"/>
<stop offset="1" stop-color="#4C5411"/>
</radialGradient>
<radialGradient id="paint10_radial_7002_15713" cx="0" cy="0" r="1" gradientTransform="matrix(47.3967 -45.2959 -31.2977 -33.125 55.6404 113.668)" gradientUnits="userSpaceOnUse">
<stop stop-color="#777E32"/>
<stop offset="0.2331" stop-color="#777E32"/>
<stop offset="0.9877" stop-color="#3A3F0D"/>
<stop offset="1" stop-color="#3A3F0D"/>
</radialGradient>
<radialGradient id="paint11_radial_7002_15713" cx="0" cy="0" r="1" gradientTransform="matrix(47.3993 -45.2983 -31.2995 -33.1266 55.4898 114.753)" gradientUnits="userSpaceOnUse">
<stop stop-color="#777E32"/>
<stop offset="0.2331" stop-color="#777E32"/>
<stop offset="0.9877" stop-color="#3A3F0D"/>
<stop offset="1" stop-color="#3A3F0D"/>
</radialGradient>
<radialGradient id="paint12_radial_7002_15713" cx="0" cy="0" r="1" gradientTransform="matrix(47.4544 -45.3511 -31.3359 -33.1652 55.6129 114.224)" gradientUnits="userSpaceOnUse">
<stop stop-color="#A6AF53"/>
<stop offset="0.2331" stop-color="#A6AF53"/>
<stop offset="0.9877" stop-color="#576018"/>
<stop offset="1" stop-color="#576018"/>
</radialGradient>
<radialGradient id="paint13_radial_7002_15713" cx="0" cy="0" r="1" gradientTransform="matrix(47.4413 -45.3386 -31.3273 -33.1561 54.6827 114.029)" gradientUnits="userSpaceOnUse">
<stop stop-color="#ABB658"/>
<stop offset="0.2331" stop-color="#ABB658"/>
<stop offset="0.9877" stop-color="#626C1C"/>
<stop offset="1" stop-color="#626C1C"/>
</radialGradient>
<radialGradient id="paint14_radial_7002_15713" cx="0" cy="0" r="1" gradientTransform="matrix(42.1716 -7.08244 -7.04217 -42.4127 160.037 134.03)" gradientUnits="userSpaceOnUse">
<stop stop-color="#9FA84E"/>
<stop offset="0.2331" stop-color="#9FA84E"/>
<stop offset="0.9877" stop-color="#4C5411"/>
<stop offset="1" stop-color="#4C5411"/>
</radialGradient>
<radialGradient id="paint15_radial_7002_15713" cx="0" cy="0" r="1" gradientTransform="matrix(42.1912 -7.08572 -7.04543 -42.4325 160.476 133.807)" gradientUnits="userSpaceOnUse">
<stop stop-color="#777E32"/>
<stop offset="0.2331" stop-color="#777E32"/>
<stop offset="0.9877" stop-color="#3A3F0D"/>
<stop offset="1" stop-color="#3A3F0D"/>
</radialGradient>
<radialGradient id="paint16_radial_7002_15713" cx="0" cy="0" r="1" gradientTransform="matrix(49.6615 2.70978 0.981601 -18.1961 122.715 125.016)" gradientUnits="userSpaceOnUse">
<stop stop-color="#FCF986"/>
<stop offset="0.7421" stop-color="#FCF986"/>
<stop offset="0.999" stop-color="#95B918"/>
<stop offset="1" stop-color="#95B918"/>
</radialGradient>
<radialGradient id="paint17_radial_7002_15713" cx="0" cy="0" r="1" gradientTransform="matrix(49.4761 2.69968 0.977975 -18.1281 123.399 125.715)" gradientUnits="userSpaceOnUse">
<stop stop-color="#C6C251"/>
<stop offset="0.7421" stop-color="#C6C251"/>
<stop offset="0.999" stop-color="#728A15"/>
<stop offset="1" stop-color="#728A15"/>
</radialGradient>
</defs>
</svg>
