<svg width="200" height="200" viewBox="0 0 200 200" fill="none" xmlns="http://www.w3.org/2000/svg">
<path d="M82.2817 65.6489C81.7582 65.6489 81.2846 65.3979 80.8608 64.8958C80.1379 64.0422 78.019 61.2306 75.3517 57.6406C70.6652 51.3645 62.788 40.8709 61.4418 39.9421C59.9212 38.9881 59.3977 35.9003 59.8714 33.6911C60.2702 31.8083 61.392 30.6033 62.8877 30.4526H62.9874C63.112 30.4526 63.2117 30.4777 63.3364 30.528C65.879 31.6325 82.1571 50.6365 85.3977 54.4524C85.4476 54.5026 85.4725 54.5779 85.5224 54.6281C86.694 56.9879 86.4447 57.7159 86.1705 58.0423C86.0957 58.2431 85.9711 58.7452 85.8714 59.1971C84.9739 62.7117 84.0765 65.6489 82.2817 65.6489Z" fill="url(#paint0_linear_7002_10470)"/>
<path d="M66.0524 34.0158C64.5816 32.5346 63.4848 31.5304 63.0111 31.3296C60.2441 31.6308 60.1195 36.4509 61.2911 38.4843C63.2853 37.6308 65.1799 36.0743 66.0524 34.0158Z" fill="#974212"/>
<path d="M61.0928 39.418C61.3171 39.9201 61.5913 40.2966 61.9154 40.4975C64.0592 41.9284 79.3651 63.1165 81.5089 65.6269C82.506 66.7817 83.3286 65.5014 83.9768 63.719C82.0074 58.6479 78.5674 54.5308 75.5261 49.8112C72.3104 44.9911 66.9758 39.8447 61.0928 39.418Z" fill="url(#paint1_linear_7002_10470)"/>
<path d="M132.113 166.166C128.274 166.166 124.141 165.257 119.23 163.198C103.177 156.37 83.0402 130.593 82.1178 129.513C71.6512 119.498 68.0033 85.6341 71.3631 72.0997C72.8262 61.7854 79.8902 48.6021 91.854 48.6021C97.3132 48.6021 103.146 51.1627 107.858 53.1961C118.75 58.0712 129.992 62.1099 140.239 68.3341C154.074 76.744 163.373 86.1581 167.835 96.3003C175.513 113.773 177.133 131.371 172.147 143.371C167.824 153.805 158.629 156.819 149.189 161.044C142.657 164.007 137.921 166.166 132.113 166.166Z" fill="url(#paint2_linear_7002_10470)"/>
<g filter="url(#filter0_f_7002_10470)">
<path d="M117.523 143.673C120.579 131.675 117.852 118.054 115.023 106.032C111.411 90.7114 84.5394 66.8434 74.5887 60.8066C72.8714 63.8757 69.8719 72.2245 69.8719 74.8662C69.8719 77.5079 68.4743 114.082 81.8311 129.595C95.1879 145.108 104.287 156.499 119.872 163.455C116.235 157.038 115.654 150.927 117.523 143.673Z" fill="url(#paint3_linear_7002_10470)"/>
</g>
<g filter="url(#filter1_f_7002_10470)">
<path d="M131.165 103.153C132.337 107.873 139.192 110.082 143.23 108.952C152.105 106.517 148.316 92.5841 145.573 85.9315C142.856 79.7809 137.023 71.8479 131.564 69.5634C125.107 66.576 118.801 64.9944 116.881 64.4421C113.242 63.3878 103.046 58.3418 100.204 61.5049C98.6588 63.212 100.753 68.4086 104.392 69.7141C118.452 74.7349 126.778 85.4796 131.165 103.153Z" fill="url(#paint4_linear_7002_10470)"/>
</g>
<path d="M112.32 68.0824C112.045 69.1619 112.943 70.5426 114.438 71.2957C114.438 71.2957 114.463 71.2957 114.463 71.3208C118.128 73.2037 120.047 72.2246 119.673 70.1158C119.474 68.961 118.103 67.982 116.258 67.1284C114.488 66.3 112.694 66.7016 112.369 67.9568C112.345 68.0071 112.345 68.0322 112.32 68.0824ZM121.418 73.2037C121.294 73.9317 122.241 75.0112 123.637 75.7643C123.737 75.8145 123.836 75.8647 123.911 75.94C128.423 79.6304 129.021 77.6471 128.423 76.0907C128.074 75.212 126.728 73.8564 124.908 72.9777C123.188 72.1493 121.568 72.1995 121.443 73.1032C121.443 73.1534 121.443 73.1786 121.418 73.2037Z" fill="#7FEF77"/>
<path d="M57.5905 112.903C57.2765 113.107 56.8809 113.184 56.5219 113.088C55.5967 112.85 54.9654 111.735 54.1175 110.192C53.8055 109.616 53.4799 109.02 53.1261 108.472C45.4645 98.3995 45.1937 87.5416 46.3302 80.1968C47.6464 71.6589 51.2466 65.0489 53.2819 63.2808C54.2823 62.393 55.5129 61.3559 56.8136 60.2435C60.2752 57.2815 64.576 53.596 65.5596 52.3603C66.7891 50.8157 66.9058 47.8695 66.9481 44.1643C66.9585 43.8585 67.1071 43.5828 67.3373 43.4335C67.3792 43.4064 67.421 43.3792 67.4765 43.3732L69.919 42.3278C70.2393 42.1799 70.6192 42.2625 70.8725 42.5169C71.1258 42.7713 71.2117 43.1342 71.0694 43.4657C69.5222 47.3692 68.5076 51.3161 68.8385 52.0584C74.2956 59.9124 72.6164 69.9115 70.8488 76.7387C70.0299 79.9309 66.6938 88.8813 63.7574 96.7952C61.457 102.981 59.2779 108.849 58.7727 110.642C58.4747 111.882 58.1137 112.564 57.5905 112.903Z" fill="url(#paint5_linear_7002_10470)"/>
<path d="M70.2692 43.1469L67.8266 44.1924C67.7822 48.0783 67.6572 51.1495 66.2383 52.9066C65.1773 54.2524 60.7509 58.0193 57.0308 61.1787C57.3082 61.7463 57.4957 62.3125 57.5586 62.8698C57.8239 66.3157 55.9594 69.498 54.1755 72.2992C50.2968 78.4319 48.2373 85.3587 48.0982 92.6848C48.0409 94.0675 48.0736 95.4517 48.1617 96.8298C49.2822 100.588 51.0881 104.351 53.8308 107.955C55.5863 110.674 56.823 114.567 57.9714 110.413C59.1199 106.26 68.5843 82.1535 70.0475 76.5104C71.5108 70.8672 73.7069 60.4732 68.1399 52.5409C67.16 51.0233 70.2692 43.1469 70.2692 43.1469Z" fill="url(#paint6_linear_7002_10470)"/>
<path d="M56.9859 111.559C56.9251 111.598 56.8643 111.637 56.7907 111.657C56.3416 111.807 55.875 111.574 55.7325 111.131C51.6014 98.5893 52.4531 92.9637 54.6387 82.4145C55.7755 76.8296 58.3507 71.1576 60.8482 65.6769C62.8688 61.2383 64.9393 56.6545 66.1873 52.2658C66.3042 51.8236 66.7831 51.5413 67.2186 51.6817C67.6616 51.7891 67.9364 52.2592 67.7865 52.6946C66.5087 57.2154 64.3902 61.8584 62.375 66.35C59.9329 71.7384 57.3928 77.3312 56.2804 82.7312C54.3199 92.2043 53.1534 97.9213 57.3413 110.595C57.4526 110.946 57.3101 111.348 56.9859 111.559Z" fill="#0C882B"/>
<path d="M75.088 47.3868C72.74 46.7133 73.093 43.6676 73.2169 42.5258C73.3194 41.6949 73.5966 41.1178 74.0694 40.8007C74.5095 40.5194 75.0471 40.4472 75.6913 40.632C76.19 40.775 76.7834 41.0585 77.6052 41.5659C77.9792 41.6732 79.4009 42.1263 81.1048 42.6151C82.767 43.0919 84.1919 43.4554 85.3319 43.7145C86.8311 44.054 88.3912 43.5506 89.3764 42.3843C95.4837 35.1707 106.685 29.1694 116.306 31.6124L116.348 31.6243C134.917 37.2907 138.228 50.9641 139.834 57.5379C139.902 57.8516 139.785 58.1805 139.512 58.3511C139.319 58.4767 139.108 58.5068 138.9 58.4472C138.817 58.4233 138.719 58.3726 138.648 58.3069C137.877 57.7008 137.114 57.301 136.262 57.0566C135.39 56.8063 134.407 56.7054 133.266 56.7631C121.483 58.9753 107.297 55.5169 101.749 53.9254C99.2346 53.2042 96.8542 52.4081 95.4119 51.7907C94.2902 51.3104 93.3139 50.8718 92.4355 50.484C90.385 49.5562 88.7677 48.8432 86.9392 48.3187C86.3366 48.1458 85.7488 47.9999 85.1075 47.8838C82.3613 47.3451 79.7774 47.4189 77.7132 47.4833C77.1251 47.4958 76.5578 47.5141 76.0381 47.5235C75.6877 47.4909 75.3581 47.4643 75.088 47.3868Z" fill="url(#paint7_linear_7002_10470)"/>
<path d="M100.826 38.1069C98.842 38.2848 99.2667 36.6407 100.084 34.8827C96.13 36.9182 92.5668 39.7902 89.9566 42.8676C88.775 44.2493 86.9385 44.8545 85.1633 44.4584C81.8472 43.711 77.297 42.2472 77.297 42.2472C75.3926 41.0443 74.2082 40.7046 73.985 42.5876C73.7618 44.4706 73.7666 46.736 76.0178 46.7252C78.269 46.7145 81.581 46.3741 85.2386 47.1063C88.8962 47.8386 91.0976 49.104 95.6825 51.0758C100.267 53.0476 118.884 58.7051 133.166 56.0097C136.103 55.8788 137.786 56.6784 139.108 57.7144C138.374 54.6965 137.357 50.7822 135.16 46.824C125.461 40.0117 113.174 36.9851 100.826 38.1069Z" fill="url(#paint8_linear_7002_10470)"/>
<path d="M89.8007 44.7758C89.4923 44.6873 89.2818 44.402 89.2911 44.0775C89.3166 43.6963 89.6312 43.3981 90.019 43.4276C93.5944 43.6149 96.7851 43.3238 100.146 43.0203C103.21 42.7338 106.376 42.4561 110.185 42.4854C114.43 42.5173 119.204 43.6209 123.955 45.679C129.114 47.9154 134.188 51.2521 138.609 55.3419C138.888 55.606 138.91 56.0416 138.644 56.3131C138.379 56.5846 137.936 56.6007 137.657 56.3367C129.28 48.5764 118.991 43.9278 110.184 43.8755C106.439 43.844 103.311 44.1327 100.272 44.4058C96.8475 44.7116 93.6128 45.0106 89.9357 44.8145L89.8007 44.7758Z" fill="#0C882B"/>
<g clip-path="url(#clip0_7002_10470)">
<path d="M128.799 102.446C130.21 95.488 127.462 88.4973 122.379 84.8584C123.256 87.7202 123.301 91.9178 122.299 95.2708C114.527 121.271 91.3444 152.405 64.1906 161.322C49.576 166.116 32.4312 167.038 26.2569 150.888C26.2325 156.502 26.0349 166.874 35.4452 173.271C40.6902 176.977 54.1956 183.455 76.1842 174.138C77.9365 173.395 79.6142 172.487 81.177 171.424C89.9609 165.455 120.763 142.039 128.799 102.446Z" fill="url(#paint9_linear_7002_10470)"/>
<path d="M122.607 85.1496C118.56 79.9109 107.596 81.1084 102.291 82.7032C84.1518 88.1246 59.6556 98.9245 45.9459 111.727C38.6123 118.313 26.7518 131.989 25.982 146.412C25.2187 163.005 45.9691 170.275 67.7409 162.548C94.9189 150.582 114.872 120.555 122.528 94.6186C123.525 91.2449 124.868 88.076 122.607 85.1496Z" fill="#A1D34E"/>
<path d="M114.814 88.4914C110.617 84.764 101.262 86.5533 96.1226 89.0385C88.904 92.5255 56.1861 108.759 49.1423 116.161C42.9169 121.317 34.429 131.416 34.0707 145.694C34.0707 149.117 35.0833 153.686 39.231 156.775C44.7869 160.122 51.0172 162.553 64.1232 157.952C87.8275 149.638 107.294 121.111 114.729 98.7099C115.844 96.3428 118.598 91.4848 114.814 88.4914Z" fill="#F6F29E"/>
<path d="M51.5473 144.963C48.1178 141.397 45.6613 135.213 47.9742 129.719C50.1436 124.562 60.609 116.866 71.5021 117.413C76.6202 117.67 79.5239 119.356 80.5129 121.316C82.762 125.734 79.9722 132.16 75.5218 139.887C69.4125 150.473 58.486 152.176 51.5473 144.963Z" fill="url(#paint10_linear_7002_10470)"/>
<path d="M55.3755 137.397C53.2221 135.18 51.6748 131.341 53.1264 127.919C54.3865 124.931 60.6401 121.396 67.2439 121.316C69.7163 121.284 72.4076 122.632 73.1413 125.009C73.8785 128.703 72.7303 130.297 70.4333 134.248C66.621 140.819 59.7461 141.879 55.3755 137.397Z" fill="url(#paint11_linear_7002_10470)"/>
<path fill-rule="evenodd" clip-rule="evenodd" d="M65.5732 123.518C66.5664 123.156 67.6341 123.397 68.0366 124.094C68.0496 124.127 68.0641 124.145 68.093 124.179L68.093 124.179C68.565 124.996 67.3355 125.853 66.1879 126.331C65.9011 126.45 65.6602 126.565 65.4508 126.665C64.774 126.988 64.4265 127.154 63.9208 126.788C62.7338 125.908 63.0886 124.44 65.5559 123.533C65.5573 123.517 65.5732 123.518 65.5732 123.518ZM61.2536 126.34C61.7835 126.145 62.3847 126.409 62.6728 126.95C62.6782 126.957 62.6812 126.965 62.6844 126.975C62.6898 126.99 62.6957 127.007 62.7148 127.019C63.0421 127.661 62.4174 128.201 61.801 128.469C61.1672 128.75 60.7558 128.875 60.3595 128.468C59.6247 127.725 59.9138 126.816 61.2377 126.338L61.2536 126.34Z" fill="#FDD1C3"/>
</g>
<defs>
<filter id="filter0_f_7002_10470" x="64.7019" y="55.6784" width="60.2983" height="112.905" filterUnits="userSpaceOnUse" color-interpolation-filters="sRGB">
<feFlood flood-opacity="0" result="BackgroundImageFix"/>
<feBlend mode="normal" in="SourceGraphic" in2="BackgroundImageFix" result="shape"/>
<feGaussianBlur stdDeviation="2.5641" result="effect1_foregroundBlur_7002_10470"/>
</filter>
<filter id="filter1_f_7002_10470" x="91.9976" y="52.7843" width="64.4692" height="64.1512" filterUnits="userSpaceOnUse" color-interpolation-filters="sRGB">
<feFlood flood-opacity="0" result="BackgroundImageFix"/>
<feBlend mode="normal" in="SourceGraphic" in2="BackgroundImageFix" result="shape"/>
<feGaussianBlur stdDeviation="3.84616" result="effect1_foregroundBlur_7002_10470"/>
</filter>
<linearGradient id="paint0_linear_7002_10470" x1="81.534" y1="50.1043" x2="75.8079" y2="56.9676" gradientUnits="userSpaceOnUse">
<stop stop-color="#A44A18"/>
<stop offset="0.245" stop-color="#8A420A"/>
<stop offset="0.79" stop-color="#5C3007"/>
<stop offset="1" stop-color="#784B07"/>
</linearGradient>
<linearGradient id="paint1_linear_7002_10470" x1="79.8062" y1="54.2978" x2="75.5967" y2="60.0096" gradientUnits="userSpaceOnUse">
<stop stop-color="#974A0E"/>
<stop offset="1" stop-color="#281301"/>
</linearGradient>
<linearGradient id="paint2_linear_7002_10470" x1="113.938" y1="54.2815" x2="127.205" y2="165.614" gradientUnits="userSpaceOnUse">
<stop stop-color="#0E9A04"/>
<stop offset="1" stop-color="#1E4B1B"/>
</linearGradient>
<linearGradient id="paint3_linear_7002_10470" x1="94.231" y1="56.9525" x2="115.551" y2="163.55" gradientUnits="userSpaceOnUse">
<stop stop-color="#1AAA10"/>
<stop offset="1" stop-color="#094005"/>
</linearGradient>
<linearGradient id="paint4_linear_7002_10470" x1="111.96" y1="60.2514" x2="118.839" y2="109.989" gradientUnits="userSpaceOnUse">
<stop stop-color="#159D0C"/>
<stop offset="1" stop-color="#178A0C"/>
</linearGradient>
<linearGradient id="paint5_linear_7002_10470" x1="69.5" y1="46.5002" x2="32.027" y2="66.483" gradientUnits="userSpaceOnUse">
<stop stop-color="#08922A"/>
<stop offset="1" stop-color="#15C440"/>
</linearGradient>
<linearGradient id="paint6_linear_7002_10470" x1="70.5" y1="58.5002" x2="39.9994" y2="68.7546" gradientUnits="userSpaceOnUse">
<stop stop-color="#0D9A30"/>
<stop offset="1" stop-color="#15C340"/>
</linearGradient>
<linearGradient id="paint7_linear_7002_10470" x1="122.526" y1="34.4561" x2="75.7739" y2="44.5877" gradientUnits="userSpaceOnUse">
<stop stop-color="#15C440"/>
<stop offset="1" stop-color="#08922A"/>
</linearGradient>
<linearGradient id="paint8_linear_7002_10470" x1="120.508" y1="40.6547" x2="80.3845" y2="55.5047" gradientUnits="userSpaceOnUse">
<stop stop-color="#15C340"/>
<stop offset="1" stop-color="#0D9A30"/>
</linearGradient>
<linearGradient id="paint9_linear_7002_10470" x1="69.2308" y1="90.3549" x2="77.7448" y2="178.932" gradientUnits="userSpaceOnUse">
<stop stop-color="#12B307"/>
<stop offset="1" stop-color="#1E4B1B"/>
</linearGradient>
<linearGradient id="paint10_linear_7002_10470" x1="63.7864" y1="115.807" x2="61.8158" y2="149.34" gradientUnits="userSpaceOnUse">
<stop stop-color="#DF5A2F"/>
<stop offset="0.24" stop-color="#C43A0E"/>
<stop offset="0.800912" stop-color="#541703"/>
<stop offset="1" stop-color="#7C2509"/>
</linearGradient>
<linearGradient id="paint11_linear_7002_10470" x1="63.0611" y1="119.276" x2="61.8495" y2="140.118" gradientUnits="userSpaceOnUse">
<stop stop-color="#EA5D2F"/>
<stop offset="1" stop-color="#872708"/>
</linearGradient>
<clipPath id="clip0_7002_10470">
<rect width="105.128" height="97.6382" fill="white" transform="translate(25 81.3618)"/>
</clipPath>
</defs>
</svg>
