<svg width="200" height="200" viewBox="0 0 200 200" fill="none" xmlns="http://www.w3.org/2000/svg">
<path d="M18.0278 76.927C18.0278 76.927 21.4063 73.5395 28.8132 73.5395C36.22 73.5395 45.6193 68.5452 57.0545 66.504C68.4896 64.4195 78.452 63.6812 90.7534 58.9909C103.055 54.3005 116.439 49.1325 121.247 47.2216C126.012 45.3542 128.741 45.0502 135.238 50.5222C141.648 55.9508 151.784 61.5966 161.53 66.9383C171.276 72.2801 182.321 78.7076 182.624 82.2253C182.971 85.743 176.43 93.4299 176.43 93.4299L105.307 124.829L60.1298 132.386L40.9413 126.175L21.1031 90.2596L18.0278 76.927Z" fill="#FFE8F1"/>
<path d="M44.5799 153.84C44.5799 153.84 55.1054 154.969 63.5951 151.06C72.0848 147.152 73.9906 149.67 91.4899 142.548C108.989 135.382 126.142 128.521 143.511 127.261C160.88 126.002 178.553 113.451 180.415 109.716C182.278 105.938 183.664 83.4849 182.668 82.2689C181.671 81.0094 168.157 86.2643 158.281 90.7809C148.406 95.2975 117.739 105.33 107.386 108.066C96.9908 110.845 81.874 114.71 73.7308 117.359C65.5876 120.009 52.2033 124.178 46.8322 123.787C41.4612 123.396 40.9414 132.69 40.9414 132.69L44.5799 153.84Z" fill="#E7AFB6"/>
<path d="M161.53 66.9377C151.784 61.5959 141.648 55.9502 135.194 50.4782C133.159 48.7844 131.513 47.6553 130.083 46.917C130.386 48.8279 131.079 51.173 132.509 53.8656C136.147 60.7274 140.306 62.4211 141.908 66.5468C143.511 70.6726 145.46 69.9343 152.52 69.9343C157.891 69.9343 163.566 70.9331 167.117 69.9777C165.212 68.9788 163.349 67.9366 161.53 66.9377Z" fill="#D63434"/>
<path d="M182.667 82.225C182.451 79.9232 177.686 76.4055 171.665 72.714C170.279 72.5838 168.893 72.4969 167.594 72.4535C162.612 72.3666 158.108 72.0626 152.693 72.4535C147.236 72.8443 143.294 71.6283 146.673 73.4958C146.673 73.4958 151.004 76.0146 150.311 80.3575C149.661 84.7004 154.166 85.8296 160.62 85.4387C167.074 85.0478 170.886 84.049 171.275 86.0033C171.579 87.5667 170.323 99.5096 176.473 93.4296C176.473 93.473 183.014 85.7427 182.667 82.225ZM176.083 81.5735C174.481 83.0935 172.791 87.2627 171.968 84.4398C171.145 81.617 173.571 76.3621 173.571 76.3621C173.571 76.3621 175.087 77.4912 176.95 78.7072C178.812 79.9232 177.686 80.0969 176.083 81.5735Z" fill="#D63434"/>
<path d="M43.0637 79.1857C43.0637 79.1857 38.0825 77.1011 36.0034 76.58C33.9243 76.0588 28.8564 74.756 26.604 76.58C24.3517 78.404 27.9468 78.8817 34.8339 80.1846C41.7209 81.4874 41.8076 83.0074 44.1466 83.4852C46.5289 83.9629 49.4743 83.0074 43.0637 79.1857Z" fill="#D63434"/>
<path d="M21.1896 98.3375C21.1896 98.3375 18.2009 89.8689 17.3346 85.83C16.5116 81.7911 17.2479 73.4962 19.9768 77.7522C22.7056 82.0083 22.7922 83.0071 25.9542 88.5226C29.1162 94.038 30.9788 98.6415 34.0108 104.808C37.0428 110.975 42.4139 117.272 44.3197 120.573C46.2256 123.874 48.8245 123.005 47.4384 133.689C46.0523 144.329 46.832 154.882 44.5796 153.883C42.3272 152.884 37.0861 144.85 31.5852 131.3C26.0409 117.75 21.1896 98.3375 21.1896 98.3375Z" fill="#D39B9B"/>
<path d="M181.758 103.418C181.974 101.637 182.191 99.6828 182.364 97.6851C179.939 98.5971 176.084 100.117 172.575 101.55C166.944 103.895 160.36 107.109 155.206 109.541C150.051 111.973 146.846 115.447 136.537 117.358C126.228 119.226 108.382 124.611 97.9869 126.869C87.5913 129.128 77.6289 133.557 67.4932 134.382C57.3575 135.251 55.7549 136.163 48.3481 138.248C40.9412 140.332 40.9412 137.422 39.4252 134.382C37.9092 131.386 35.0937 126.478 33.7943 120.268C32.4948 114.058 30.3291 116.229 28.4665 109.541C26.604 102.853 23.8752 99.7696 21.6228 92.9079C20.28 88.6519 18.3309 84.0484 17.0747 81.1387C16.9881 82.6587 17.0747 84.2655 17.3346 85.525C18.3309 87.349 19.3704 89.2599 20.0634 90.5627C21.7527 93.6462 24.1784 102.593 25.5644 105.719C26.9505 108.846 26.7339 111.322 29.2029 114.622C31.6285 117.966 29.8526 115.447 32.4515 121.745C35.0504 128.042 36.2199 136.337 40.1615 141.592C44.1032 146.847 51.8132 142.981 59.48 142.808C67.19 142.634 73.6439 136.597 87.1582 133.948C100.672 131.299 111.718 125.653 119.341 123.134C126.921 120.615 134.934 119.834 142.038 118.618C149.185 117.402 161.92 110.323 169.543 107.239C173.875 105.502 178.553 104.199 181.758 103.418Z" fill="#E07F7C"/>
<path d="M45.7057 116.751C45.7057 116.751 60.3462 118.054 64.1146 122.093C67.883 126.132 65.1541 130.171 77.8887 127.348C90.6666 124.525 108.296 121.311 113.277 116.36C118.258 111.366 123.976 105.807 125.752 106.024C127.528 106.242 125.015 107.892 122.546 110.541C120.121 113.19 117.392 116.664 121.507 115.796C125.622 114.927 136.624 113.103 146.543 112.799C156.505 112.495 160.23 108.543 163.912 102.637C167.55 96.7306 167.767 92.9523 163.912 90.3032C160.057 87.654 155.942 93.6038 149.921 91.2586C143.901 88.9134 143.467 84.31 136.147 79.8802C128.827 75.4505 126.748 71.8025 118.215 71.7156C109.682 71.6288 98.4199 74.7991 87.5479 73.8871C76.6759 72.9316 63.075 73.6265 56.0147 77.2745C48.9977 80.9225 48.218 92.3443 70.5685 90.2597C92.8756 88.1752 98.5066 80.0974 110.158 78.5774C121.81 77.0574 129.39 79.9671 133.332 82.7031C137.273 85.4391 140.349 86.4814 144.204 89.9557C148.059 93.43 147.756 94.6461 143.641 95.0369C139.526 95.4278 144.594 96.9912 133.592 95.5146C122.633 93.9946 121.204 94.2986 113.623 95.3409C106.043 96.3832 98.7231 93.8209 89.1506 93.4735C79.578 93.0826 73.7738 94.6895 66.5402 94.7763C59.3066 94.8632 50.1239 94.038 49.4741 98.9889C48.8244 103.983 55.9281 111.41 72.9075 106.328C89.8869 101.247 90.9265 98.5112 103.488 99.5535C116.049 100.596 127.961 99.8141 122.72 101.638C117.478 103.419 108.902 105.851 99.7194 106.242C90.5366 106.632 87.5479 104.808 80.401 108.413C73.254 111.974 71.3915 111.8 63.4215 111.41C55.4516 110.975 36.0898 115.188 45.7057 116.751Z" fill="#D63434"/>
<path d="M170.323 105.503C170.323 105.503 166.381 106.458 163.566 107.805C160.75 109.151 155.163 111.583 153.993 111.974C152.824 112.408 157.978 110.628 161.53 109.325C165.125 108.109 168.72 106.154 170.323 105.503Z" fill="#E7AFB6"/>
<path d="M99.4596 128.693C99.4596 128.693 93.2223 129.128 90.71 130.474C88.1977 131.82 87.8512 132.168 82.3069 133.514C76.7626 134.86 73.0375 134.643 70.4386 135.685C67.8398 136.728 64.851 138.942 59.5666 139.464C54.2822 139.985 51.2502 141.071 48.2181 141.114C45.1861 141.157 42.8904 141.765 41.8942 140.549C40.8979 139.333 37.6926 134.382 38.1691 135.902C38.6889 137.422 40.638 142.026 43.107 142.156C45.5759 142.287 48.9112 142.417 54.8453 141.418C60.8227 140.376 64.4612 140.072 67.19 138.682C69.9189 137.336 68.8793 136.858 73.9038 135.729C78.9284 134.6 84.3427 133.601 87.9378 132.428C91.4897 131.256 91.403 130.474 94.2618 129.909C97.1206 129.345 99.9794 129.388 100.369 129.128C100.759 128.78 100.326 128.606 99.4596 128.693Z" fill="#E7AFB6"/>
<path opacity="0.2" d="M180.415 109.715C180.805 108.933 181.151 107.37 181.498 105.329C175.521 109.02 166.988 113.58 158.758 115.274C143.987 118.271 129.607 115.708 109.422 127.347C89.2373 138.986 91.7929 143.329 76.5894 142.287C61.3859 141.244 54.3255 146.847 45.3594 142.46C36.4365 137.987 37.3894 137.336 31.7585 125.132C26.1709 112.929 24.6549 103.027 22.7923 97.7722C20.9298 92.5173 21.4496 91.6053 19.2838 86.3938C18.3309 84.1789 17.8111 81.7903 17.1181 80.0098C16.9015 81.9206 16.9881 84.2224 17.3346 85.8292C18.2009 89.8681 21.1897 98.3367 21.1897 98.3367C21.1897 98.3367 26.0409 117.706 31.5419 131.256C37.0429 144.806 42.284 152.84 44.5364 153.839C44.7096 153.926 44.8396 153.926 44.9695 153.882C47.0053 154.056 56.0581 154.49 63.5516 151.103C72.0413 147.194 73.9472 149.713 91.4464 142.591C108.946 135.425 126.098 128.563 143.468 127.304C160.88 126.001 178.509 113.45 180.415 109.715Z" fill="#DC5050"/>
<path d="M131.296 121.486C127.354 117.838 108.512 135.817 108.512 135.817C117.955 132.343 127.354 129.433 136.754 128C135.368 125.524 133.072 123.136 131.296 121.486Z" fill="#D63434"/>
<path d="M130.04 71.0628C138.616 75.5794 141.865 86.4801 141.865 86.4801L146.24 90.0412C146.24 90.0412 142.255 82.0069 138.616 75.5794C135.021 69.152 122.33 63.9839 120.381 58.6422C119.211 55.4285 119.168 51.3027 118.345 48.2627C114.923 49.609 109.855 51.5633 104.267 53.6913C108.945 56.2536 114.966 59.2068 113.667 60.6399C111.544 62.9851 95.5179 63.9405 88.8907 61.5954C87.8945 61.2479 86.9849 60.8571 86.1186 60.4662C77.1091 63.3759 69.1824 64.3314 60.6494 65.7645C61.4291 66.1988 62.4686 66.5897 63.8114 66.9805C75.6797 70.1508 89.2372 70.1508 106.823 67.8057C124.496 65.5039 121.463 66.5462 130.04 71.0628Z" fill="#D63434"/>
<path d="M52.6365 106.806C52.6365 106.806 47.482 104.461 43.0639 102.333C38.6458 100.205 35.2239 96.5571 35.1373 98.9023C35.0507 101.247 38.6458 101.595 39.8153 104.157C40.9848 106.719 42.7174 111.931 42.7174 108.804C42.7174 105.677 42.934 103.636 46.2259 106.719C49.5178 109.803 53.0696 109.673 55.4953 109.759C57.9642 109.803 58.7439 109.673 52.6365 106.806Z" fill="#FDABA9"/>
<path d="M96.9474 86.5249C96.9474 86.5249 110.721 81.2265 110.808 82.5294C110.895 83.8323 112.801 84.0928 119.774 84.4403C126.748 84.7877 125.059 83.1808 127.398 85.4391C129.737 87.6974 136.84 88.1317 135.151 89.2175C133.462 90.3032 137.967 90.7375 130.083 90.39C122.2 90.086 124.409 88.87 119.125 90.086C113.84 91.302 116.786 91.8666 109.595 91.3889C102.405 90.9112 103.921 89.8689 95.9944 90.086C88.0678 90.3466 89.4972 89.6083 93.0923 88.566C96.6875 87.4803 96.9474 86.5249 96.9474 86.5249Z" fill="#FDABA9"/>
<path opacity="0.3" d="M115.746 73.5823C115.746 73.5823 100.153 76.0143 86.032 76.5789C71.9547 77.1 56.7512 79.228 55.9282 82.3115C55.1485 85.3949 59.7832 89.9115 76.7627 84.7435C93.7421 79.6189 109.595 74.4943 117.609 75.1023C125.622 75.7537 130.69 79.0978 130.083 77.4909C129.434 75.9275 123.586 73.3651 115.746 73.5823Z" fill="#DD4A4A"/>
<path opacity="0.3" d="M69.3125 97.2516C69.3125 97.2516 53.8058 94.7328 53.416 98.1202C53.0261 101.508 59.6533 103.853 70.9585 101.812C82.2637 99.8139 81.5273 96.8174 95.3881 97.0779C109.249 97.3385 119.731 96.9476 126.791 98.1202C133.852 99.2494 132.336 101.464 124.149 103.94C115.963 106.415 89.1507 109.412 80.6177 112.061C72.0413 114.71 70.9152 123.526 85.5123 119.835C100.066 116.143 116.006 107.805 123.283 105.503C130.56 103.201 141.129 101.377 137.707 104.895C134.285 108.413 136.667 109.846 146.37 106.806C156.072 103.766 162.699 98.2939 152.39 98.1202C142.081 97.9899 138.53 97.3819 127.311 96.3396C116.093 95.2973 93.7854 95.2973 83.9096 96.6871C73.9472 98.0768 69.3125 97.2516 69.3125 97.2516Z" fill="#DD4A4A"/>
<path opacity="0.3" d="M138.53 54.864C138.53 54.864 141.735 59.9452 142.471 62.6812C143.208 65.4172 143.424 66.5464 147.582 67.2412C151.741 67.9361 163.046 70.1944 159.494 67.719C155.899 65.2435 138.53 54.864 138.53 54.864Z" fill="#DD4A4A"/>
<path opacity="0.3" d="M167.031 76.1019C167.031 76.1019 154.643 73.9739 153.733 76.5796C152.824 79.1853 151.957 82.3122 159.277 82.3122C166.598 82.2688 169.11 82.4859 169.716 81.1831C170.366 79.8368 171.406 76.7099 167.031 76.1019Z" fill="#DD4A4A"/>
<path d="M70.8719 71.4116C70.8719 71.4116 59.7833 69.2401 55.8417 69.935C51.9433 70.6299 52.6797 72.3236 55.3652 72.3236C58.0507 72.3236 62.4689 71.3247 65.934 71.6287C69.4426 71.9327 70.8719 71.4116 70.8719 71.4116Z" fill="#DD4A4A"/>
<path d="M45.8792 70.2826C45.8792 70.2826 43.7134 71.7591 41.9375 71.8026C40.1616 71.846 38.9055 72.6711 37.2162 73.1054C35.5269 73.5397 32.5815 74.7992 35.2237 74.3214C37.8659 73.8872 38.7322 72.8014 40.8113 72.6711C42.8471 72.5843 43.2803 72.2369 44.8829 71.8026C46.4423 71.3683 46.0524 71.7591 47.0054 70.8471C47.9583 69.9786 49.0845 69.2837 50.5572 68.8928C51.9866 68.5888 48.9978 68.2848 45.8792 70.2826Z" fill="#DD4A4A"/>
<path d="M141.042 54.864C141.042 54.864 142.341 55.472 142.471 57.6C142.558 59.728 143.251 59.9886 143.771 62.2469C144.247 64.5052 144.767 67.6321 144.983 68.0664C145.2 68.5007 144.507 64.8092 144.247 63.0721C143.987 61.3783 144.16 61.9429 143.814 60.1623C143.511 58.3818 143.424 56.384 143.424 56.384L141.042 54.864Z" fill="#FFE8F1"/>
<path d="M142.775 72.5846C142.775 72.5846 145.807 73.7137 147.106 75.2772C148.405 76.8406 149.445 79.9675 147.886 79.1423C146.326 78.3172 146.023 76.4497 144.421 75.1469C142.775 73.844 139.396 71.4988 142.775 72.5846Z" fill="#D63434"/>
<path d="M154.643 73.7574C154.643 73.7574 164.952 73.9745 168.287 73.7574C171.622 73.5402 174.221 74.3219 174.221 74.3219L172.229 73.0625C172.229 73.0625 168.72 73.1928 165.472 73.3665C162.223 73.5836 154.643 73.7574 154.643 73.7574Z" fill="#FFE8F1"/>
<path d="M126.921 47.3953C126.921 47.3953 127.614 52.3462 129.303 53.9965C130.993 55.6902 131.426 56.9062 132.509 59.3382C133.592 61.7703 135.194 62.248 136.624 64.8971C138.053 67.5463 138.876 68.7623 139.526 68.8057C140.219 68.8492 138.53 67.5029 137.143 64.7668C135.757 62.0308 134.155 59.7291 133.115 58.3394C132.076 56.9497 132.595 57.9485 131.296 55.0822C129.996 52.2159 128.914 51.4776 128.394 50.4788C127.787 49.5233 126.618 45.6582 126.921 47.3953Z" fill="#D63434"/>
<path d="M182.408 85.6559C182.408 85.6559 181.022 90.6502 179.116 93.2993C177.253 95.9485 174.914 98.5977 172.575 100.248C170.236 101.898 164.692 106.632 166.684 103.158C168.677 99.6834 175.607 94.9496 176.993 93.9942C178.336 93.0388 178.813 92.7348 179.462 90.6067C180.112 88.5222 182.971 83.8318 182.408 85.6559Z" fill="#D63434"/>
<path d="M176.56 106.459C176.56 106.459 170.886 107.588 168.417 109.065C165.991 110.541 162.699 111.888 158.671 113.712C154.686 115.579 158.888 115.449 163.003 113.364C167.118 111.28 170.496 109.499 174.914 108.196C179.376 106.893 181.671 106.155 179.895 106.285C178.12 106.416 176.56 106.459 176.56 106.459Z" fill="#E07F7C"/>
<path d="M106.52 129.692C106.52 129.692 102.448 131.56 96.6008 133.297C90.71 134.991 88.2843 136.033 86.3352 136.293C84.4293 136.554 78.2786 136.988 73.9904 139.594C69.7456 142.2 63.8547 143.459 67.1467 143.068C70.4386 142.678 73.6006 140.55 78.6684 138.552C83.7363 136.554 80.531 139.29 88.0244 137.075C95.5179 134.817 93.742 135.295 98.3334 133.557C102.925 131.777 102.188 132.645 106.52 130.865C110.808 129.084 112.281 127.391 106.52 129.692Z" fill="#E07F7C"/>
<path d="M67.2334 130.432C67.2334 130.432 59.1769 131.996 55.0186 132.43C50.8604 132.864 46.7888 132.647 44.4065 131.214C42.0242 129.781 38.0392 123.527 36.1767 120.357C34.3141 117.186 31.3687 110.194 32.9714 114.581C34.574 118.967 37.9959 125.264 40.3349 129.26C42.6739 133.212 41.7643 132.951 47.092 133.472C52.4198 133.993 51.1636 133.646 58.5705 132.734C65.9773 131.822 71.3917 130.476 71.9548 129.824C72.5612 129.129 67.2334 130.432 67.2334 130.432Z" fill="#E07F7C"/>
<path opacity="0.3" d="M123.586 64.7664C119.731 62.4212 117.609 59.6852 116.916 56.5149C116.482 54.604 116.006 51.5206 115.573 49.3926C114.1 49.9572 112.411 50.6086 110.635 51.3034C111.718 53.4315 113.19 56.0806 114.706 57.9046C117.609 61.2921 121.68 64.0715 120.467 64.0715C119.255 64.0715 111.891 64.723 108.599 64.9835C105.35 65.2441 92.3127 66.547 87.5047 64.8967C85.4256 64.2018 82.9134 63.203 80.531 62.1607C77.2391 62.9858 74.0771 63.6372 70.8718 64.2018C74.5536 65.5047 81.7872 67.5893 89.2806 67.4156C100.023 67.155 115.053 64.6361 118.778 65.0704C122.503 65.5047 126.705 67.1984 129.953 69.1961C133.289 71.1939 127.398 67.1115 123.586 64.7664Z" fill="#DD4A4A"/>
<path d="M23.6156 76.5793C23.6156 76.5793 19.0242 76.2318 18.6344 78.0993C18.2445 79.9667 18.3745 82.9199 21.4498 86.1336C24.5252 89.3473 25.1316 92.7348 26.4744 96.4697C27.8171 100.205 27.9904 102.637 29.9829 106.675C32.0187 110.758 34.4876 110.15 36.4368 112.582C38.386 114.97 41.5046 111.192 40.5084 109.064C39.5121 106.936 34.3577 103.809 32.4085 98.5977C30.4593 93.3428 32.1486 93.2994 29.2032 88.9999C26.2578 84.7005 25.4781 84.353 24.8717 82.7027C24.3086 80.9656 25.6947 76.5793 23.6156 76.5793Z" fill="#DD4A4A"/>
<path opacity="0.3" d="M44.5799 153.84C44.5799 153.84 55.1054 154.969 63.5951 151.06C72.0848 147.152 73.9906 149.67 91.4899 142.548C108.989 135.382 126.142 128.521 143.511 127.261C160.88 126.002 178.553 113.451 180.415 109.716C182.278 105.938 183.664 83.4849 182.668 82.2689C181.671 81.0094 168.157 86.2643 158.281 90.7809C148.406 95.2975 117.739 105.33 107.386 108.066C96.9908 110.845 81.874 114.71 73.7308 117.359C65.5876 120.009 52.2033 124.178 46.8322 123.787C41.4612 123.396 40.9414 132.69 40.9414 132.69L44.5799 153.84Z" fill="#E7AFB6"/>
<path opacity="0.3" d="M21.1896 98.3375C21.1896 98.3375 18.2009 89.8689 17.3346 85.83C16.5116 81.7911 17.2479 73.4962 19.9768 77.7522C22.7056 82.0083 22.7922 83.0071 25.9542 88.5226C29.1162 94.038 30.9788 98.6415 34.0108 104.808C37.0428 110.975 42.4139 117.272 44.3197 120.573C46.2256 123.874 48.8245 123.005 47.4384 133.689C46.0523 144.329 46.832 154.882 44.5796 153.883C42.3272 152.884 37.0861 144.85 31.5852 131.3C26.0409 117.75 21.1896 98.3375 21.1896 98.3375Z" fill="#D39B9B"/>
<path d="M52.5929 92.6048C52.5929 92.6048 46.9187 93.9946 42.5005 91.4757C38.0824 88.9568 31.5852 87.8711 31.1087 87.8711C30.6323 87.8711 38.0824 88.0882 41.2011 89.174C44.3198 90.2597 44.7962 91.6494 50.4705 91.8665C56.1447 92.1271 61.9056 92.1705 59.6099 92.518C57.3142 92.8654 52.5929 92.6048 52.5929 92.6048Z" fill="#FDABA9"/>
</svg>
