<svg width="200" height="200" viewBox="0 0 200 200" fill="none" xmlns="http://www.w3.org/2000/svg">
<path d="M128.214 113.2C129.133 108.4 127.908 107.05 128.827 100.15C129.592 93.2504 130.663 93.1004 129.133 88.4504C127.602 83.8004 127.602 74.3504 128.367 68.9504C129.133 63.5505 128.674 60.8505 127.908 56.9505C127.143 53.0505 127.296 50.6505 127.908 45.7005C128.367 41.3505 128.367 40.1505 128.674 37.6005C126.531 37.1505 124.235 37.4505 124.235 37.4505C124.235 37.4505 120.408 41.9505 122.398 54.7005C124.388 67.4505 122.398 95.0504 122.245 108.85C122.092 114.7 123.928 123.7 125.918 132.25C126.531 125.35 127.602 116.05 128.214 113.2Z" fill="#D85D17"/>
<path d="M131.735 140.8C132.653 137.35 130.816 136.45 131.735 131.5C132.653 126.4 131.735 125.2 132.806 120.1C133.878 115 134.49 115 133.266 113.35C131.888 111.55 131.429 108.4 132.653 105.7C133.725 103 132.959 97.7503 134.49 95.3503C136.021 93.1003 134.49 87.2503 133.878 86.2003C133.266 85.0003 131.582 77.0503 132.653 73.9003C133.878 70.7503 135.255 69.1003 134.031 66.2503C132.806 63.4003 131.276 61.4504 132.5 53.5004C133.419 46.4504 134.49 41.6504 133.878 39.1004C132.653 39.1004 131.582 39.1004 130.51 38.5004C130.051 38.2004 129.439 38.0504 128.98 37.9004C128.52 40.4504 128.674 41.6504 128.214 46.0004C127.602 50.9504 127.449 53.5004 128.214 57.2504C128.98 61.1504 129.439 63.8503 128.674 69.2503C127.908 74.6503 127.908 84.1003 129.439 88.7503C130.97 93.4003 129.898 93.7003 129.133 100.45C128.367 107.35 129.592 108.7 128.52 113.5C127.908 116.35 126.837 125.65 126.071 132.55C128.827 144.1 132.041 154.75 132.041 154.75C132.041 154.75 132.041 154.75 132.194 154.75C131.429 150.85 130.97 143.35 131.735 140.8Z" fill="#F6D3BE"/>
<path d="M145.97 51.6996C145.358 52.8996 145.205 54.3996 145.511 56.3496C145.817 58.1496 145.97 59.6496 144.745 62.7996C143.521 65.9496 142.909 66.6996 143.674 68.3496C144.439 69.9996 143.98 71.9496 143.827 74.9496C143.674 77.9496 144.899 80.0495 143.98 83.0495C143.062 86.0495 143.674 87.2495 144.592 89.3495C145.511 91.4495 145.358 93.2495 143.98 96.6995C142.603 100.3 142.909 103.75 143.215 107.35C143.368 110.799 141.837 115.899 141.837 118.749C141.837 121.449 143.215 124.299 142.45 126.249C141.531 128.199 143.827 132.999 141.225 138.849C139.082 143.649 139.082 152.199 139.235 155.349C140 155.349 140.919 155.349 141.684 155.349C141.684 155.349 140 153.099 142.45 142.299C144.899 133.749 145.358 130.449 144.286 119.049C143.674 107.5 145.358 100.15 146.276 97.2995C147.195 94.4495 147.195 90.8495 146.888 87.3995C146.582 83.9495 145.817 75.3996 146.276 71.7996C146.735 68.1996 149.644 57.6996 149.491 54.9996C149.491 52.2996 151.787 44.6496 150.715 42.8496C148.725 42.6996 147.042 42.3996 145.358 42.0996C145.205 43.7496 144.899 45.8496 145.358 47.0496C146.276 49.2996 146.582 50.4996 145.97 51.6996Z" fill="#E74B28"/>
<path d="M138.011 49.7512C137.704 54.2511 136.939 57.1011 137.704 60.1011C138.47 63.2511 138.164 68.6511 137.551 71.3511C136.939 74.0511 137.092 74.9511 138.317 78.2511C139.541 81.5511 140.919 83.6511 140.46 86.5011C140 89.3511 139.694 100.301 138.317 104.801C136.939 109.151 136.939 111.551 137.857 113.351C138.776 115.151 136.786 119.651 136.174 124.751C135.562 130.001 134.796 139.001 135.408 143.501C135.868 146.951 135.255 152.501 134.949 154.901C136.174 155.051 137.551 155.201 139.235 155.201C139.082 152.051 139.082 143.351 141.225 138.701C143.827 132.851 141.531 128.051 142.449 126.101C143.368 124.151 141.99 121.301 141.837 118.601C141.837 115.901 143.368 110.801 143.215 107.201C143.062 103.751 142.603 100.151 143.98 96.5511C145.358 92.9511 145.511 91.3011 144.592 89.2011C143.674 87.1011 143.215 85.9011 143.98 82.9011C144.899 79.9011 143.674 77.8011 143.827 74.8011C143.98 71.8011 144.439 69.8511 143.674 68.2011C142.909 66.5511 143.521 65.6511 144.745 62.6511C145.97 59.5011 145.817 58.1511 145.511 56.2011C145.205 54.4011 145.358 52.7512 145.97 51.5512C146.582 50.3512 146.123 49.1512 145.511 47.0512C145.052 45.8512 145.358 43.7512 145.511 42.1012C142.756 41.5012 140.46 40.6012 138.623 39.7012C138.623 42.4012 138.164 46.3012 138.011 49.7512Z" fill="#F6D3BE"/>
<path d="M136.174 124.899C136.786 119.649 138.776 115.299 137.858 113.499C136.939 111.699 136.939 109.299 138.317 104.949C139.694 100.6 140.154 89.4995 140.46 86.6495C140.919 83.7995 139.541 81.6995 138.317 78.3995C137.092 75.0996 136.939 74.0495 137.551 71.4996C138.164 68.7996 138.47 63.3996 137.705 60.2496C136.939 57.0996 137.705 54.3996 138.011 49.8996C138.317 46.4496 138.776 42.5496 138.623 39.9996C138.47 39.9996 138.47 39.8496 138.317 39.8496C136.327 39.0996 134.796 39.0996 133.725 39.0996C134.337 41.7996 133.419 46.5996 132.347 53.4996C131.276 61.4496 132.653 63.3996 133.878 66.2496C135.102 69.0996 133.725 70.5996 132.5 73.8996C131.276 77.0495 133.113 84.9995 133.725 86.1995C134.337 87.3995 135.868 93.0995 134.337 95.3495C132.806 97.5995 133.725 103 132.5 105.699C131.429 108.399 131.735 111.549 133.113 113.349C134.49 115.149 133.725 115.149 132.653 120.099C131.582 125.199 132.5 126.399 131.582 131.499C130.663 136.599 132.5 137.349 131.582 140.799C130.97 143.349 131.429 150.849 131.735 154.599C132.041 154.599 133.112 154.899 134.796 155.049C135.102 152.649 135.715 147.099 135.255 143.649C134.796 139.149 135.562 130.149 136.174 124.899Z" fill="#FBAE85"/>
<path d="M135.408 155.201C134.184 150.251 135.409 144.251 132.194 139.901C129.592 136.301 128.827 133.601 129.286 125.501C129.439 122.651 130.97 119.951 130.357 117.101C129.745 114.701 128.52 111.851 127.908 109.301C126.684 104.051 126.071 99.1014 126.531 93.8514C126.684 90.8514 126.837 87.8514 126.531 84.7014C126.378 82.3014 125.918 79.9014 126.072 77.5014C126.225 72.2514 129.439 67.7514 129.898 62.5015C130.204 59.3515 128.98 56.8015 128.061 53.8015C127.296 51.4015 126.837 49.1515 126.531 46.7515C126.225 43.6015 126.837 40.6015 128.061 37.7515C126.071 37.4515 124.082 37.7515 124.082 37.7515C124.082 37.7515 120.255 42.2515 122.245 55.0015C124.235 67.7514 122.245 95.3514 122.092 109.151C121.939 115.001 123.775 124.001 125.765 132.551C128.521 144.101 131.735 154.751 131.735 154.751C131.735 154.751 131.735 154.751 131.888 154.751C132.194 154.751 133.266 155.051 134.949 155.201C135.102 155.051 135.255 155.201 135.408 155.201Z" fill="#D85D17"/>
<path d="M74.9474 142.752C74.7943 146.052 74.4881 149.202 74.3351 151.002C75.7127 150.852 76.7842 150.702 77.7026 150.852C80.1516 151.302 83.366 150.852 83.366 150.852C80.3047 144.252 77.3965 130.002 75.2535 114.852C75.2535 118.902 75.4066 122.502 75.7127 124.602C76.1719 131.202 74.9474 137.802 74.9474 142.752Z" fill="#DC411F"/>
<path d="M67.4471 86.5002C67.294 88.9002 65.9164 90.8502 66.2225 94.0002C66.5287 97.0002 67.9063 104.35 67.141 106.9C66.5287 109.45 65.6103 110.95 67.4471 113.8C69.2838 116.65 67.294 118.45 66.2225 120.25C65.3041 121.9 65.9165 126.4 66.3757 129.1C66.8349 131.8 67.4471 133.45 66.3757 135.85C65.4573 138.1 67.141 140.5 69.59 143.95C71.2737 146.5 70.0492 149.8 69.2839 151.45C70.9676 151.45 72.6514 151.15 74.029 151C74.182 149.35 74.4881 146.2 74.6412 142.75C74.7942 137.8 76.0188 131.35 75.2535 124.6C75.1004 122.5 74.7943 118.9 74.7943 114.85C72.6514 100.15 71.2737 84.5502 70.8145 74.3502C70.8145 73.3002 70.6615 72.2502 70.6615 71.2002C69.8962 73.1502 69.1308 74.8002 68.8247 75.7002C67.9063 78.7002 67.6001 84.1002 67.4471 86.5002Z" fill="#F3C3A5"/>
<path d="M54.5895 141.251C55.9671 133.901 55.2018 117.251 55.5079 112.001C55.814 108.101 56.4263 104.651 56.2732 102.401C56.1202 100.151 56.5794 95.9509 57.0386 93.4009C57.4978 91.0009 56.4263 85.7509 56.1202 83.0509C55.8141 80.3509 55.9671 73.1509 56.7324 71.0509C57.6508 68.9509 56.5794 66.4009 56.5794 63.8509C56.5794 61.3009 57.1917 56.3509 57.6509 53.8009C58.1101 51.251 57.4978 48.251 57.957 45.551C58.2631 43.301 58.7223 38.801 58.11 35.801C55.5079 35.951 53.8242 34.751 53.8242 34.751C53.8242 34.751 53.6711 36.251 53.2119 38.501C52.7527 40.751 54.4365 41.801 53.5181 45.251C52.4466 48.701 52.9058 51.551 53.5181 54.8509C53.9773 58.1509 54.1303 64.1509 53.5181 67.0009C52.9058 69.8509 54.4365 73.0009 53.5181 75.7009C52.5997 78.4009 52.1405 81.7009 52.5997 84.1009C53.212 86.3509 53.518 87.2509 52.1404 92.3509C50.9159 97.6009 51.5282 100.301 49.9976 103.001C48.3138 105.851 48.926 106.301 50.6098 110.651C51.9874 114.551 49.6914 123.101 49.6914 133.601C49.6914 144.101 49.5384 150.251 49.5384 150.251C49.5384 150.251 52.5997 150.401 55.3549 150.251C54.5895 148.451 53.8242 145.601 54.5895 141.251Z" fill="#E15725"/>
<path d="M58.4162 35.8012C59.0285 38.8012 58.5693 43.3012 58.2631 45.5512C57.8039 48.2512 58.4163 51.4011 57.9571 53.8011C57.4979 56.2011 56.8856 61.3011 56.8856 63.8511C56.8856 66.4011 57.957 68.9511 57.0386 71.0511C56.1202 73.1511 55.9672 80.3511 56.4264 83.0511C56.7325 85.7511 57.804 90.8511 57.3448 93.4011C56.8856 95.8011 56.4264 100.151 56.5794 102.401C56.7325 104.651 56.1202 107.951 55.8141 112.001C55.508 117.251 56.2733 133.901 54.8957 141.251C54.1304 145.601 54.8957 148.451 55.6611 150.101C55.9672 150.101 56.4263 150.101 56.7325 149.951C58.1101 149.801 59.4877 149.801 60.8653 149.951C61.4775 148.451 62.549 145.901 63.0082 144.401C63.6205 142.151 64.0797 143.351 62.3959 139.901C60.8653 136.601 61.1714 134.351 62.0898 131.951C63.0082 129.551 62.7021 122.651 61.1714 118.901C59.6408 115.151 59.0285 114.101 60.7122 112.151C62.2429 110.201 62.8551 105.251 62.7021 100.001C62.549 94.6011 60.5591 83.8011 62.0898 81.5511C63.6204 79.3011 63.1613 72.4011 62.5491 67.9011C61.9368 63.4011 62.0898 59.9511 63.0082 56.2011C63.9266 52.4511 62.8551 50.0511 63.9266 47.5012C64.9981 44.9512 62.8551 43.7512 62.3959 42.4012C61.9367 41.2012 63.3143 38.5012 63.9266 37.1512C64.2327 36.5512 63.9266 35.9512 63.6204 35.2012C62.549 35.2012 61.1714 35.2012 59.9469 35.5012C59.1816 35.8012 58.8754 35.8012 58.4162 35.8012Z" fill="#F3C3A5"/>
<path d="M63.7735 37.3012C63.1613 38.6512 61.9367 41.3512 62.2429 42.5512C62.7021 43.7512 64.845 45.1012 63.7735 47.6512C62.7021 50.2011 63.7735 52.6011 62.8551 56.3511C61.9367 60.1011 61.7836 63.5511 62.3959 68.0511C63.0082 72.5511 63.4674 79.4511 61.9367 81.7011C60.4061 83.9511 62.396 94.9011 62.549 100.151C62.7021 105.551 62.0898 110.351 60.5591 112.301C58.8754 114.251 59.4877 115.301 61.0184 119.051C62.549 122.801 62.8551 129.701 61.9367 132.101C61.0183 134.501 60.7122 136.601 62.2429 140.051C63.7735 143.351 63.4673 142.301 62.8551 144.551C62.3959 146.051 61.3245 148.601 60.7122 150.101C62.0898 150.251 63.6205 150.551 65.6103 151.151C66.6818 151.301 68.0594 151.301 69.59 151.301C70.5084 149.651 71.733 146.351 69.8962 143.801C67.4471 140.351 65.7633 137.951 66.6817 135.701C67.6001 133.451 67.1409 131.801 66.6817 128.951C66.2225 126.251 65.4572 121.751 66.5287 120.101C67.4471 118.451 69.59 116.651 67.7532 113.651C65.9164 110.801 66.6817 109.301 67.4471 106.751C68.0593 104.201 66.8348 96.8511 66.5287 93.8511C66.2226 90.8511 67.6002 88.7511 67.7532 86.3511C67.9063 83.9511 68.2125 78.7011 69.437 75.5511C69.7431 74.6511 70.5084 73.0011 71.2737 71.0511C70.0492 51.5511 66.9879 36.1012 66.8349 35.8012C66.8349 35.6512 65.4572 35.2012 63.6204 35.2012C63.7735 35.9512 63.9266 36.7012 63.7735 37.3012Z" fill="#EEA580"/>
<path d="M114.285 169.751C114.898 166.901 113.214 165.851 112.449 164.351C111.683 162.851 112.908 162.401 112.755 159.251C112.602 156.101 104.03 117.551 105.101 107.501C105.101 99.2509 103.571 86.0509 105.254 80.0509C106.785 74.0509 106.02 71.2009 106.938 69.5509C107.704 67.9009 105.408 67.1509 107.091 64.1509C108.928 61.1509 110 56.6509 108.622 52.7509C107.244 48.851 107.244 45.851 108.316 43.001C109.081 40.751 108.622 37.151 108.01 34.601C107.55 34.601 107.091 34.451 106.785 34.451C105.101 34.151 103.265 34.001 101.734 34.001C101.887 35.051 101.734 36.101 101.428 37.751C100.816 40.751 101.734 40.901 103.112 43.601C104.489 46.151 104.642 46.901 103.877 50.6509C103.112 54.4009 103.418 61.3009 103.724 64.7509C104.183 68.0509 104.336 70.1509 102.652 73.1509C100.969 76.1509 101.887 83.8009 101.734 88.7509C100.816 106.601 106.326 156.401 108.01 161.351C109.693 166.301 110 165.701 109.234 169.001C108.775 171.101 109.387 172.751 109.846 173.801C110.918 173.501 112.449 173.201 114.132 173.201C113.979 172.301 113.979 171.101 114.285 169.751Z" fill="#F3C3A5"/>
<path d="M109.081 169.001C109.846 165.701 109.54 166.301 107.857 161.351C106.173 156.401 100.663 106.601 101.581 88.7509C101.734 83.8009 100.816 76.1509 102.499 73.1509C104.183 70.1509 104.03 68.0509 103.571 64.7509C103.112 61.4509 102.805 54.5509 103.724 50.6509C104.489 46.901 104.336 46.301 102.958 43.601C101.581 41.051 100.663 40.751 101.275 37.751C101.581 36.101 101.734 35.051 101.581 34.001C99.2849 34.001 97.6012 34.301 97.6012 34.301C97.6012 34.301 99.438 35.651 98.6726 38.351C97.9073 41.051 101.581 43.901 99.591 48.851C97.6011 53.9509 96.9889 54.2509 98.0603 58.0009C99.2849 61.9009 101.887 68.3509 97.295 78.4009C96.8358 89.3509 98.6727 131.201 103.877 159.251C104.795 164.051 105.408 163.001 106.02 166.751C106.785 170.501 103.571 172.901 106.938 175.001C106.938 175.001 107.857 174.101 109.846 173.501C109.234 172.751 108.622 171.101 109.081 169.001Z" fill="#E15725"/>
<path d="M121.02 150.851C120.714 148.301 117.653 145.301 118.418 142.451C119.184 139.601 118.265 139.451 116.888 137.951C115.51 136.451 115.51 134.351 115.816 130.901C116.122 127.451 113.367 121.001 113.826 119.651C114.285 118.301 111.836 117.101 112.142 112.001C112.449 106.901 113.367 103.151 111.989 97.9015C110.459 92.6515 108.469 86.6515 109.387 79.4515C110.459 72.4015 113.52 70.1515 113.979 66.8515C114.438 63.7015 113.979 59.3515 112.755 57.2515C111.377 55.1515 111.071 50.6515 111.683 48.4015C112.142 46.4515 112.142 39.4016 111.071 34.7516C109.846 34.7516 108.775 34.7516 107.704 34.6016C108.316 37.1516 108.928 40.6016 108.01 43.0015C106.938 45.8515 107.091 48.8515 108.316 52.7515C109.693 56.6515 108.622 61.1515 106.785 64.1515C105.101 67.1515 107.397 68.0515 106.632 69.5515C105.867 71.2015 106.632 74.0515 104.948 80.0515C103.418 86.0515 104.795 99.2515 104.795 107.501C103.571 117.701 112.296 156.101 112.449 159.251C112.602 162.401 111.377 162.851 112.142 164.351C112.908 165.851 114.592 166.901 113.979 169.751C113.673 171.101 113.673 172.301 113.673 173.201C113.826 173.201 113.979 173.201 114.132 173.201C116.887 173.351 119.796 173.651 122.704 173.651C122.398 171.851 122.092 168.101 122.398 164.201C123.163 158.951 121.479 153.401 121.02 150.851Z" fill="#EEA580"/>
<path d="M132.5 150.251C130.97 145.751 132.041 145.001 129.898 141.101C127.755 137.201 126.531 134.351 126.684 131.501C126.837 128.651 127.602 124.901 127.449 121.901C127.296 118.901 126.378 115.601 125.306 113.051C124.388 110.501 124.082 108.551 124.388 104.651C124.694 100.751 125.153 96.8511 124.082 89.3511C123.163 81.8511 123.316 78.1011 124.541 73.3011C125.612 68.3511 127.755 60.7011 126.225 56.8011C124.541 53.0511 123.163 48.1012 123.622 43.4512C124.082 39.8512 124.694 37.6012 125.459 35.8012C123.163 35.5012 121.02 35.3512 119.337 35.2012C120.102 39.2512 119.337 44.5012 118.418 46.6012C117.5 48.8512 119.949 51.1011 119.643 53.8011C119.49 56.5011 119.336 58.4511 121.02 59.9511C122.857 61.4511 123.469 64.1511 122.092 65.9511C120.561 67.7511 119.337 71.0511 119.03 75.2511C118.724 79.4511 118.571 89.6511 117.959 95.5011C117.5 101.201 119.796 103.001 120.561 107.501C121.326 112.001 121.173 116.801 120.867 121.451C120.561 126.101 119.796 127.901 121.479 130.451C123.163 133.001 122.398 134.351 123.929 137.201C125.459 140.051 125.459 142.151 126.684 144.701C127.908 147.251 127.602 151.001 128.214 154.301C128.674 157.601 130.204 161.951 130.051 166.901C129.898 170.201 129.286 172.901 128.827 174.251C128.98 174.251 129.133 174.251 129.286 174.251C132.806 174.101 134.031 174.251 134.49 174.251C134.184 172.601 133.572 169.151 133.419 166.301C133.419 161.951 134.031 154.751 132.5 150.251Z" fill="#DC411F"/>
<path d="M130.204 166.451C130.357 161.501 128.827 157.301 128.368 153.851C127.908 150.551 128.061 146.801 126.837 144.251C125.612 141.701 125.612 139.601 124.082 136.751C122.551 133.901 123.469 132.551 121.633 130.001C119.949 127.451 120.714 125.651 121.02 121.001C121.326 116.351 121.633 111.551 120.714 107.051C119.949 102.551 117.653 100.751 118.112 95.0509C118.571 89.3509 118.877 79.0009 119.184 74.8009C119.49 70.6009 120.714 67.3009 122.245 65.5009C123.776 63.7009 123.01 60.8509 121.173 59.5009C119.337 58.0009 119.49 56.0509 119.796 53.3509C119.949 50.651 117.653 48.551 118.571 46.151C119.337 44.051 120.255 38.801 119.49 34.751C115.663 34.451 113.061 34.601 111.071 34.601C112.142 39.401 112.296 46.301 111.683 48.251C111.071 50.651 111.377 55.0009 112.755 57.1009C114.132 59.2009 114.439 63.5509 113.979 66.7009C113.52 69.8509 110.459 72.1009 109.387 79.3009C108.316 86.5009 110.459 92.3509 111.989 97.7509C113.52 103.001 112.449 106.751 112.142 111.851C111.836 116.951 114.285 118.151 113.826 119.501C113.367 120.851 116.122 127.301 115.816 130.751C115.51 134.201 115.51 136.301 116.888 137.801C118.265 139.301 119.184 139.451 118.418 142.301C117.653 145.151 120.714 148.001 121.02 150.701C121.326 153.251 123.163 158.801 122.704 164.201C122.398 168.101 122.704 171.851 123.01 173.651C125.153 173.801 127.143 173.801 128.98 173.651C129.439 172.451 130.051 169.901 130.204 166.451Z" fill="#F3C3A5"/>
<path d="M123.775 43.3016C123.163 47.9515 124.694 52.9015 126.378 56.6515C128.061 60.4015 125.918 68.2015 124.694 73.1515C123.622 78.1015 123.316 81.7015 124.235 89.2015C125.306 96.7015 124.847 100.601 124.541 104.501C124.235 108.401 124.388 110.351 125.459 112.901C126.378 115.451 127.449 118.751 127.602 121.751C127.755 124.751 126.99 128.501 126.837 131.351C126.684 134.201 127.908 137.051 130.051 140.951C132.194 144.851 131.123 145.601 132.653 150.101C134.184 154.601 133.419 161.801 133.725 165.551C133.878 168.401 134.49 171.851 134.796 173.501C134.949 173.501 134.949 173.501 134.949 173.501C134.949 173.501 134.184 167.651 134.337 160.901C134.643 154.001 132.959 145.901 131.582 142.751C130.357 139.601 128.674 137.651 128.214 135.551C127.755 133.451 127.755 130.901 128.367 126.851C128.98 122.801 128.674 118.901 127.449 115.001C126.071 110.801 125.612 106.601 125.306 103.601C125.153 100.601 125.765 93.2515 125.765 88.9015C125.765 84.5515 124.847 78.2515 125.153 75.5515C125.612 72.8515 127.602 67.7515 127.755 64.4515C127.908 61.1515 128.061 57.7015 126.531 53.5015C125 49.3015 125.153 38.6516 127.143 35.5016C126.684 35.5016 126.071 35.3516 125.612 35.3516C124.847 37.3016 124.082 39.7016 123.775 43.3016Z" fill="#BF3113"/>
<path d="M62.3959 35.3512C63.1613 36.4012 63.6205 37.6012 63.7736 38.8012C64.0797 41.6512 63.7735 44.2012 64.6919 47.0512C65.6103 49.6011 66.3756 52.3011 66.6818 54.8511C67.294 60.4011 66.8349 65.8011 66.8349 71.2011C66.8349 76.9011 66.9879 82.6011 67.7532 88.1511C68.3655 93.8511 69.5901 99.5511 70.3554 105.401C71.1207 110.951 71.733 116.501 72.6514 122.051C73.5698 127.751 75.1004 133.301 76.478 138.851C77.5495 142.751 79.3863 146.801 79.8455 150.851C81.6823 150.851 83.366 150.701 83.366 150.701C80.3047 144.101 77.3965 129.851 75.2535 114.701C73.1106 100.001 71.733 84.4011 71.2738 74.2011C71.2738 73.1511 71.1207 72.1011 71.1207 71.0511C69.8962 51.5511 66.8348 36.1012 66.6818 35.8012C66.6818 35.6512 65.3042 35.2012 63.4674 35.2012C63.0082 35.3512 62.7021 35.3512 62.3959 35.3512Z" fill="#D85D17"/>
<path d="M108.163 162.55C110.612 162.55 112.602 162.1 114.898 161.65C115.357 161.5 116.888 161.5 116.581 160.9C116.428 160.3 116.275 159.55 116.122 158.95C115.969 157.9 115.663 156.85 115.51 155.65C115.204 153.4 114.898 151.3 114.745 149.05C113.673 139.45 110.765 130 108.01 120.55C106.632 115.9 105.254 111.25 104.489 106.6C103.877 102.1 102.805 97.4504 102.346 92.9504C101.887 88.3004 100.816 83.8004 99.591 79.1504C99.2849 77.9504 98.8258 76.6004 98.5196 75.4004C98.2135 76.6004 97.7543 77.6504 97.142 79.0004C96.6828 89.9504 98.5196 131.8 103.724 159.85C104.03 161.35 104.183 162.25 104.489 162.85C105.714 162.55 106.938 162.55 108.163 162.55Z" fill="#D85D17"/>
<path d="M93.7744 140.051C93.9275 137.201 95.3052 128.501 93.1622 124.301C91.1724 120.251 90.5601 117.251 89.7948 113.801C89.0294 110.351 89.0294 108.551 87.8049 106.301C86.5804 104.051 86.8865 100.001 86.7334 93.4009C86.5804 86.9509 86.1212 79.1509 85.2028 77.2009C84.2844 75.1009 84.1313 66.2509 83.2129 62.5009C82.2945 58.7509 81.07 53.6509 81.3761 51.1009C81.6823 48.4009 83.0599 47.2009 80.6108 42.401C78.1617 37.601 78.3148 34.751 77.5495 30.851C77.2433 28.751 76.631 26.951 76.1718 25.751C75.7126 25.751 75.4065 25.901 74.9473 26.051C75.5596 28.751 75.1004 32.351 75.8657 33.851C76.7841 35.501 77.3964 39.701 78.0086 43.7509C78.6209 47.9509 78.6209 51.7009 79.5393 54.5509C80.4577 57.4009 79.3862 62.2009 79.2332 66.7009C79.2332 71.3509 81.223 73.4509 81.8353 76.0009C82.4476 78.7009 82.6007 84.8509 83.6721 88.6009C84.7436 92.3509 83.3659 96.5509 83.519 99.4009C83.519 102.251 85.3558 111.251 86.8865 114.551C88.4171 117.851 90.254 122.201 90.5601 127.301C90.8662 132.251 90.5601 139.601 90.7131 142.151C90.7131 144.701 92.0908 144.851 93.1622 147.101C94.2337 149.351 95.3052 154.451 96.2236 158.801C96.6828 160.901 96.5297 162.251 96.3766 163.301C97.295 163.151 98.2134 162.851 99.1318 162.701C98.5195 159.401 96.9889 151.301 95.9174 148.151C94.8459 144.101 93.6214 142.901 93.7744 140.051Z" fill="#FBAE85"/>
<path d="M103.724 144.851C103.571 142.901 102.958 141.251 101.887 138.551C100.662 135.851 98.5195 131.201 98.6726 128.051C98.8256 124.901 98.9787 122.951 96.5296 120.851C97.6011 125.501 97.6011 125.501 97.6011 128.201C97.7542 130.751 98.8256 134.501 100.203 138.401C101.581 142.301 102.652 149.951 103.112 152.951C103.418 154.901 103.724 159.251 103.877 161.801C105.101 161.651 106.173 161.651 106.938 161.801C106.938 161.801 106.938 161.801 107.091 161.801C107.244 160.301 107.091 158.051 106.173 155.651C104.489 151.751 104.03 146.801 103.724 144.851Z" fill="#D85D17"/>
<path d="M96.5297 158.651C95.6113 154.301 94.5398 149.201 93.4683 146.951C92.3969 144.701 91.1724 144.551 91.0193 142.001C90.8663 139.451 91.3255 132.101 90.8663 127.151C90.5602 122.201 88.8764 117.701 87.1927 114.401C85.662 111.101 83.8252 102.101 83.8252 99.2513C83.8252 96.4013 85.0498 92.3513 83.9783 88.4513C82.9069 84.7013 82.7538 78.4013 82.1415 75.8513C81.5292 73.1513 79.3863 71.0513 79.5394 66.5513C79.5394 61.9013 80.7639 57.1013 79.8455 54.4013C78.9271 51.5513 78.9271 47.8013 78.3149 43.6013C77.7026 39.4013 77.0903 35.3514 76.1719 33.7014C75.4066 32.2014 75.8658 28.6014 75.2535 25.9014C74.7943 26.0514 74.1821 26.2014 73.7229 26.5014C71.8861 27.5514 70.2024 26.8014 67.9064 26.6514C68.2125 27.4014 68.3656 28.1514 68.3656 28.9014C68.3656 30.8514 68.2125 33.1014 68.6717 35.0514C69.1309 37.0014 69.437 39.1013 68.9778 41.2013C68.5186 43.3013 70.3554 45.7013 72.0391 47.3513C73.7228 49.0013 73.1106 50.8013 72.9575 52.3013C72.8045 53.8013 72.1921 55.9013 72.8044 56.9513C73.4167 58.1513 74.4882 59.6513 73.7229 60.5513C72.9575 61.6013 73.1106 62.5013 73.8759 65.0513C74.4882 67.6013 73.7228 70.3013 73.1106 72.1013C72.4983 73.9013 75.1005 77.0513 76.7842 78.7013C78.4679 80.2013 77.7026 81.4013 78.774 84.4013C79.8455 87.4013 77.3964 89.0513 76.9372 92.6513C76.478 96.2513 77.8556 99.1013 77.2434 100.301C76.6311 101.501 76.478 103.151 77.2434 104.051C78.0087 104.951 78.774 106.451 79.8455 109.901C80.7639 113.501 79.9985 116.051 80.7639 117.101C81.5292 118.151 83.6721 119.651 83.0599 120.851C82.4476 122.051 82.4476 124.001 83.0599 128.201C83.6721 132.401 83.6721 132.101 81.5292 132.851C79.3863 133.601 81.2231 136.301 82.9068 137.201C84.7436 138.101 85.2028 139.451 85.509 142.751C85.8151 146.051 87.1926 147.101 88.8764 148.451C90.5601 149.951 91.4785 151.301 90.254 156.251C89.6417 159.251 90.1009 162.101 90.7132 163.901C92.2438 163.901 93.6214 163.751 94.999 163.451C95.6113 163.301 96.2236 163.151 96.8358 163.151C96.8358 162.101 96.9889 160.751 96.5297 158.651Z" fill="#F6D3BE"/>
<path d="M90.1009 156.101C91.1724 151.151 90.407 149.801 88.7233 148.301C87.0396 146.801 85.6619 145.901 85.3558 142.601C85.0497 139.301 84.5905 137.951 82.7537 137.051C80.9169 136.151 79.0801 133.451 81.3761 132.701C83.5191 132.101 83.5191 132.251 82.9068 128.051C82.2945 123.851 82.2945 121.751 82.9068 120.701C83.5191 119.501 81.3761 118.001 80.6108 116.951C79.8455 115.901 80.6107 113.351 79.6923 109.751C78.7739 106.301 77.8556 104.801 77.0903 103.901C76.325 103.001 76.478 101.351 77.0903 100.151C77.7026 98.9508 76.3249 96.1008 76.7841 92.5008C77.2433 88.9008 79.6924 87.4008 78.621 84.2508C77.5495 81.2508 78.3147 80.0508 76.631 78.5508C74.9473 77.0508 72.4983 73.9008 72.9575 71.9508C73.5698 70.1508 74.3351 67.4508 73.7228 64.9008C73.1106 62.3508 72.9574 61.4508 73.5697 60.4008C74.335 59.3508 73.1105 58.0008 72.6513 56.8008C72.0391 55.6008 72.6513 53.6508 72.8044 52.1509C72.9574 50.6509 73.5697 48.8509 71.886 47.2009C70.2023 45.5509 68.3655 43.1509 68.8247 41.0509C69.2839 38.9509 68.9777 37.0009 68.5185 34.9009C68.0593 32.9509 68.2124 30.7009 68.2124 28.7509C68.2124 28.0009 68.0593 27.2509 67.7532 26.5009C66.2225 26.3509 64.5389 26.5009 62.549 28.0009C62.549 28.0009 63.3143 33.1009 64.3857 36.1009C65.4572 39.1009 65.3041 38.8009 65.1511 40.4509C64.998 42.1009 66.8348 50.6509 67.6002 53.5008C68.3655 56.5008 68.3655 58.9008 68.0594 63.8508C67.7532 68.6508 67.7533 77.5008 68.6717 86.8008C69.437 95.9508 71.886 108.251 73.2636 114.851C74.6412 121.451 74.182 132.251 77.0903 139.451C79.8455 146.651 82.4476 154.451 81.07 163.301C81.07 163.301 85.815 163.901 90.407 163.751C89.9478 161.951 89.3356 159.101 90.1009 156.101Z" fill="#D85D17"/>
<path d="M106.326 137.351C103.724 132.401 103.571 123.551 102.499 118.601C101.428 113.801 100.203 109.901 98.3664 107.051C96.5296 104.201 96.8357 100.001 96.5296 95.6507C96.2235 91.4507 93.6213 81.8507 92.7029 78.1007C91.0192 71.2007 90.5601 68.2007 90.1009 64.0007C89.6417 59.8007 88.8763 58.1507 88.2641 56.6507C87.6518 55.1507 87.3456 53.5007 88.4171 52.4507C89.4886 51.5507 90.7132 49.0007 88.5702 47.0507C86.4273 45.1008 85.6619 43.0008 86.5803 40.9008C87.4987 38.8008 88.4171 37.7508 86.7334 34.7508C85.3558 32.2008 85.3558 28.1508 83.6721 25.6008C81.6822 25.6008 78.7739 25.1508 76.1718 25.4508C76.631 26.6508 77.2433 28.4508 77.5494 30.5508C78.1617 34.4508 78.1617 37.3008 80.6108 42.1008C83.0598 46.9007 81.6822 48.2507 81.3761 50.8007C81.07 53.3507 82.2945 58.6007 83.2129 62.2007C84.1313 65.9507 84.1313 74.8007 85.2028 76.9007C86.1212 79.0007 86.5803 86.6507 86.7334 93.1007C86.8865 99.5507 86.5804 103.751 87.8049 106.001C89.0294 108.251 89.0294 110.051 89.7947 113.501C90.5601 116.951 91.0193 119.951 93.1622 124.001C95.1521 128.051 93.7744 136.901 93.7744 139.751C93.6214 142.601 94.8459 143.801 96.2235 147.701C97.295 150.851 98.8256 158.951 99.4379 162.251C101.122 161.951 102.652 161.651 104.03 161.501C103.877 158.951 103.571 154.751 103.265 152.651C102.805 149.651 101.734 142.001 100.356 138.101C98.9787 134.201 97.9073 130.451 97.7542 127.901C97.6011 125.351 97.6011 125.351 96.6827 120.551C98.9787 122.501 98.9787 124.601 98.8256 127.751C98.6725 130.901 100.816 135.551 102.04 138.251C103.265 140.951 103.724 142.601 103.877 144.551C104.03 146.501 104.642 151.451 106.326 155.351C107.397 157.601 107.397 160.001 107.244 161.501C108.775 161.801 110.152 162.101 111.836 161.951C111.836 159.701 111.683 155.201 109.846 150.101C107.55 144.401 109.387 142.901 106.326 137.351ZM90.7131 95.8007C90.56 92.0507 90.407 89.8007 89.3356 83.0507C90.8662 87.5507 91.9376 91.1507 92.5499 94.9007C93.3152 98.6507 92.703 101.351 93.0091 104.951C93.3152 108.701 94.0806 112.901 94.0806 112.901C90.1009 105.401 90.7131 99.5507 90.7131 95.8007Z" fill="#F6D3BE"/>
<path d="M104.489 114.7C101.734 108.55 102.04 104.95 101.122 99.8505C100.203 94.7505 100.203 90.8505 98.3664 86.3505C96.5296 81.8505 95.3051 78.7005 94.8459 72.5505C94.3867 66.4005 93.0091 57.1005 91.9376 52.7505C90.8662 48.4005 90.1008 45.4006 90.407 40.9006C90.7131 36.4006 90.8662 34.9006 89.6416 31.6006C88.8763 29.3506 88.111 26.9506 87.6518 25.6006C86.7334 25.7506 85.5089 25.7506 84.1313 25.9006H83.9783C85.662 28.4506 85.662 32.6506 87.0396 35.0506C88.5703 38.0506 87.8049 39.1006 86.8865 41.2006C85.9681 43.3006 86.7334 45.4006 88.8763 47.3506C91.0192 49.3005 89.7947 51.8505 88.7233 52.7505C87.6518 53.6505 87.958 55.3005 88.5703 56.9505C89.1825 58.4505 89.9478 60.1005 90.407 64.3005C90.8662 68.5005 91.3254 71.5005 93.0091 78.4005C93.9275 82.0005 96.5296 91.6005 96.8358 95.9505C97.1419 100.3 96.8358 104.35 98.6726 107.35C100.509 110.2 101.734 114.1 102.805 118.9C103.877 123.7 104.03 132.7 106.632 137.65C109.693 143.2 107.857 144.7 110.153 150.55C111.989 155.65 112.142 160.15 112.142 162.4C112.908 162.4 113.673 162.1 114.438 161.8C114.438 157.3 113.826 145.3 109.846 133.6C106.479 122.05 107.244 120.7 104.489 114.7Z" fill="#E74B28"/>
<path d="M89.4886 31.451C90.7131 34.901 90.5601 36.401 90.2539 40.751C89.9478 45.2509 90.7131 48.2509 91.7846 52.6009C92.8561 56.9509 94.2337 66.2509 94.6929 72.4009C95.1521 78.5509 96.2235 81.8509 98.2134 86.2009C100.05 90.7009 100.05 94.6009 100.969 99.7009C101.887 104.801 101.581 108.401 104.336 114.551C107.091 120.701 106.326 121.901 109.387 133.301C113.52 145.001 113.979 157.001 113.979 161.501C114.438 161.351 114.898 161.051 115.51 160.751C114.898 157.451 112.449 146.351 111.683 140.051C110.918 133.751 109.234 124.751 105.714 115.001C103.111 106.901 101.887 99.1009 101.428 95.2009C101.122 91.3009 99.1318 83.6509 97.1419 77.8009C95.1521 71.9509 94.999 61.6009 92.8561 51.2509C91.1724 42.5509 91.6315 40.901 91.7846 38.051C91.9377 35.201 92.0907 33.551 90.7131 30.251C89.4886 26.951 88.7233 25.001 88.7233 25.001C88.7233 25.001 88.264 25.001 87.3456 25.151C88.111 26.801 88.7233 29.201 89.4886 31.451Z" fill="#CB3213"/>
<path d="M92.3969 94.9008C91.6316 91.1508 90.7132 87.5508 89.1825 83.0508C90.254 89.8008 90.5601 92.2008 90.5601 95.8008C90.7132 99.5508 89.9478 105.401 93.7745 112.901C93.7745 112.901 93.0091 108.701 92.703 104.951C92.703 101.351 93.1623 98.8008 92.3969 94.9008Z" fill="#D85D17"/>
<path d="M70.9676 88.8998C70.8146 91.1498 71.1206 93.3998 71.2737 95.6498C71.2737 97.8998 71.4268 100.15 71.886 102.25C72.8044 107.05 74.3351 111.85 75.2535 116.65C75.7127 119.05 76.1718 121.3 76.478 123.7C76.7841 125.95 76.6311 128.2 76.7841 130.45C76.9372 132.55 78.1617 134.65 78.774 136.75C79.5393 139 79.9985 141.25 81.223 143.35C81.223 143.5 81.5291 143.65 81.5291 143.35C80.9169 141.25 80.3046 139.15 79.6923 137.05C79.0801 134.8 77.7025 132.4 78.0086 130.15C78.4678 125.8 78.0086 121.6 77.2433 117.25C76.478 112.6 74.9473 108.1 74.029 103.45C73.1106 98.7998 73.8759 93.9998 72.4983 89.3498C72.3452 89.0498 71.1207 87.9998 70.9676 88.8998Z" fill="#D85D17"/>
<path d="M69.7431 69.5512C69.1308 71.5012 69.1308 73.9012 69.59 76.0012C69.8962 77.3512 70.0493 78.8512 70.2023 80.2012C70.3554 81.2512 70.8145 82.3012 70.8145 83.3512C70.8145 83.5012 71.1207 83.8012 71.2737 83.6512C71.5799 83.0512 71.2737 82.1512 71.2737 81.4012C71.2737 80.2012 71.1207 79.1512 71.1207 77.9512C71.1207 76.7512 70.9676 75.5512 71.1207 74.3512C71.2738 73.0012 71.5799 71.8012 71.2737 70.3012C71.1207 70.0012 69.8961 68.9512 69.7431 69.5512Z" fill="#D85D17"/>
<path d="M129.898 85.1522C129.898 88.6022 129.592 91.9022 129.133 95.2022C128.674 98.8022 128.98 102.252 129.745 105.702C130.204 107.652 130.97 109.602 131.582 111.702C132.194 113.802 132.347 115.902 132.347 118.002C132.347 119.952 132.041 121.902 131.888 123.702C131.735 125.502 133.112 127.902 132.347 129.552C132.194 129.702 132.653 130.002 132.806 129.852C133.725 128.502 133.112 126.852 133.112 125.352C133.112 123.552 133.572 121.752 133.878 119.952C134.337 115.902 133.266 112.152 132.194 108.252C131.123 104.502 130.51 100.452 131.123 96.5522C131.582 92.9522 132.5 89.2022 131.582 85.6022C131.123 85.4522 129.898 84.5522 129.898 85.1522Z" fill="#F6D3BE"/>
<path d="M132.194 62.3515C131.888 63.7015 131.734 64.9015 131.428 66.2515C131.122 68.0515 130.51 69.8515 129.745 71.5014C129.132 73.0014 128.826 74.2014 128.979 75.7014C129.132 77.2014 129.438 78.8514 129.438 80.5014C129.438 80.6514 129.898 81.1014 129.898 80.8014C130.051 79.6014 130.357 78.4014 130.357 77.0514C130.357 75.2514 130.969 73.9014 131.734 72.2514C133.112 69.4015 133.571 66.4015 133.571 63.2515C133.724 62.8015 132.347 61.7515 132.194 62.3515Z" fill="#F6D3BE"/>
</svg>
