<svg width="200" height="200" viewBox="0 0 200 200" fill="none" xmlns="http://www.w3.org/2000/svg">
<path d="M20.65 127.936H20.3906C23.3731 131.169 28.8194 134.919 38.0261 135.695C28.8194 134.919 23.5028 131.169 20.65 127.936ZM54.3648 107.372C48.2702 109.571 41.5272 111.51 35.6919 113.192C28.8193 115.132 23.1137 116.684 21.039 117.718C21.6873 118.106 22.2061 118.624 22.5951 119.529C25.1885 117.46 29.4677 115.778 33.4876 114.744C38.2854 113.58 44.8987 111.51 54.3648 107.372ZM99.4907 55.6396L98.7127 57.9676C98.7127 58.097 98.7127 58.6143 98.7127 59.5196C98.7127 61.4595 98.7127 64.6928 98.4533 66.6328C98.3237 67.2794 98.3236 67.7967 98.194 68.0554C98.0643 68.4434 97.6753 68.5727 97.416 68.7021C97.0269 68.8314 96.5082 69.0901 95.8599 69.478C94.5632 70.3834 92.3587 72.194 88.9873 76.8499C83.2817 84.6097 76.0201 95.6028 65.2573 102.457C68.8881 100.776 71.7408 99.6121 73.9452 99.0947C76.9277 96.5081 79.7805 93.5335 82.3739 90.0416C83.4113 88.7483 84.4487 87.3257 85.4861 85.903C84.7081 86.4204 84.0597 86.8083 83.6707 86.8083C82.8926 86.8083 83.4114 85.3857 85.7455 81.6351C91.1917 73.0993 94.9522 71.03 95.6005 70.7713C95.8599 70.642 95.9896 70.642 96.1192 70.642C98.0643 70.642 97.027 75.4272 91.1917 80.8591C89.3763 82.5404 87.8202 83.9631 86.5235 84.9977C84.0597 89.395 80.6882 94.0509 76.02 98.5774C76.4091 98.5774 76.6684 98.5774 76.9278 98.5774C80.5586 98.5774 80.5586 101.552 77.0574 106.596C71.2222 115.002 56.9582 121.081 46.1954 123.409C38.5448 125.09 33.0985 125.608 29.338 125.608C26.6149 125.608 24.7995 125.349 23.3731 124.961C23.3731 125.22 23.2434 125.478 23.2434 125.608C23.1138 126.125 22.9841 126.513 22.8544 126.642C22.5951 127.03 22.3357 127.289 21.9467 127.547C22.2061 127.418 22.3357 127.289 22.5951 127.16L22.8544 127.289C22.8544 127.289 26.3556 128.323 32.3205 128.323C38.9338 128.323 48.3998 127.16 59.6813 122.116C79.0025 113.45 88.2092 106.467 93.7852 95.0855C97.805 83.0577 98.583 75.5566 101.436 71.2887C102.343 69.9954 102.992 69.2194 103.511 68.4434C104.029 67.7968 104.289 67.1501 104.289 66.1154C104.289 65.5981 104.159 64.8222 104.029 63.9168C103.381 61.4596 101.565 57.3209 99.4907 55.6396Z" fill="url(#paint0_linear_7002_17974)"/>
<path d="M92.6184 98.3184C97.8053 84.3507 98.4537 75.8148 101.566 71.2883C102.474 69.995 103.122 69.219 103.641 68.443C104.159 67.667 104.419 67.0203 104.419 65.9857C104.419 65.339 104.289 64.6924 104.159 63.7871C103.77 61.4592 101.695 57.1913 99.6207 55.51L99.491 55.3806L98.5833 57.9672C98.5833 57.9672 98.5833 58.6139 98.5833 59.5192C98.5833 60.8125 98.5833 62.6231 98.4536 64.3044C98.4536 65.0804 98.324 65.9857 98.324 66.5031C98.1943 67.1497 98.1943 67.667 98.0646 67.7964C97.935 68.055 97.6756 68.1843 97.2866 68.3137C96.7679 68.5723 95.8602 68.831 94.5635 69.995C93.2668 71.1589 91.3216 73.0989 88.8579 76.5908C81.9852 85.9026 72.9082 99.9997 58.2553 105.82C51.253 108.665 42.8243 111.122 35.822 113.062C28.69 115.131 22.9844 116.683 21.0393 117.718L20.9097 117.847L21.0393 117.977C21.8173 118.494 22.5954 119.27 23.1141 120.951C23.3735 121.986 23.5031 122.891 23.5031 123.797C23.5031 124.572 23.3734 125.219 23.3734 125.736C23.2437 126.254 23.1141 126.512 23.1141 126.642C22.5954 127.288 21.6877 127.935 20.5207 128.064H20.2613L20.391 128.194C23.7624 131.815 30.2461 136.212 41.9166 136.212C45.1584 136.212 48.7892 135.824 52.809 135.048C52.809 135.048 53.0684 134.79 53.5871 134.402C55.1432 133.238 58.6443 130.651 63.4421 127.806C69.5367 124.055 87.5612 112.286 92.6184 98.3184C87.4315 112.157 69.4071 123.926 63.0531 127.676C56.6992 131.427 52.42 134.79 52.42 134.79C48.4002 135.566 44.7693 135.954 41.5275 135.954C29.857 135.954 23.5031 131.556 20.2613 127.935L20.1316 128.064V128.194C21.2986 128.064 22.3361 127.547 22.8548 126.771C22.9844 126.642 23.1141 126.254 23.2438 125.736C23.3734 125.219 23.3734 124.572 23.3734 123.797C23.3734 122.891 23.2437 121.986 22.9844 120.951C22.4657 119.27 21.6877 118.494 20.9097 117.977V118.106V118.235C22.8548 117.201 28.69 115.649 35.6923 113.579C42.8242 111.51 51.1233 109.053 58.1256 106.337C72.7786 100.517 81.9852 86.4199 88.8579 77.1081C92.2294 72.4522 94.4338 70.6416 95.7306 69.7363C96.3789 69.3483 96.8976 69.0897 97.2866 68.9603C97.6756 68.831 97.935 68.7017 98.0646 68.3137C98.1943 68.055 98.324 67.5377 98.324 66.891C98.5834 64.9511 98.5833 61.7178 98.5833 59.7778C98.5833 58.8725 98.5833 58.2259 98.5833 58.2259L99.3614 55.7686H99.2317V55.8979C101.306 57.5792 103.251 61.8471 103.77 64.1751C103.9 65.0804 104.03 65.8564 104.03 66.3737C104.03 67.4084 103.77 68.055 103.252 68.7017C102.733 69.3483 102.084 70.2536 101.177 71.5469C98.3239 75.8149 97.6756 84.2213 92.6184 98.3184Z" fill="#ECB503"/>
<path d="M63.1819 103.362C61.1073 104.397 59.1624 105.302 57.3472 106.078C57.6065 105.949 57.8659 105.82 58.1252 105.82C59.9404 105.044 61.626 104.268 63.1819 103.362Z" fill="#FBFDA2"/>
<path d="M77.0577 98.4475C76.7984 98.4475 76.4093 98.4475 76.15 98.4475C67.851 106.337 55.6618 113.45 37.6373 116.295C41.3978 115.649 59.2926 111.769 74.0753 98.8355C71.8708 99.3528 68.8884 100.517 65.3872 102.198C63.1828 103.621 60.8486 104.785 58.3849 105.819C57.0882 106.337 55.9212 106.854 54.6244 107.242C45.1584 111.381 38.545 113.321 33.7472 114.614C29.857 115.648 25.4482 117.459 22.8547 119.399C22.9844 119.787 23.1141 120.046 23.2437 120.563C23.5031 121.598 23.6327 122.632 23.6327 123.408C23.6327 123.926 23.6328 124.314 23.5031 124.702C24.7998 125.09 26.7449 125.348 29.468 125.348C33.3582 125.348 38.8044 124.831 46.3254 123.15C57.0882 120.822 71.3521 114.743 77.1873 106.337C80.5588 101.422 80.6885 98.4475 77.0577 98.4475Z" fill="url(#paint1_linear_7002_17974)"/>
<path d="M22.5952 119.658C22.7249 120.046 22.8545 120.434 22.9842 120.822C23.5029 122.374 23.5029 123.926 23.3732 124.96H23.5029C23.5029 124.572 23.6326 124.184 23.6326 123.667C23.6326 122.762 23.5029 121.856 23.2436 120.822C22.8546 120.304 22.7249 119.916 22.5952 119.658ZM65.2574 102.327C64.9981 102.457 64.7387 102.586 64.3497 102.715C63.9607 102.845 63.5716 103.103 63.1826 103.233C61.4969 104.138 59.8112 105.043 58.1254 105.69C57.8661 105.819 57.6067 105.949 57.3474 105.949C56.31 106.466 55.2726 106.854 54.3649 107.242C55.6616 106.725 56.9584 106.337 58.1254 105.819C60.7189 105.043 63.053 103.75 65.2574 102.327Z" fill="#F1DA23"/>
<path d="M22.854 126.513C23.1133 126.125 23.7616 123.667 22.9836 120.822C22.465 119.141 21.6871 118.365 20.9091 117.847C20.7794 117.977 20.6498 117.977 20.5201 118.106C17.6676 120.046 16.2413 120.951 17.4083 123.667C17.6676 124.443 18.5752 126.125 20.2608 127.935C21.2981 127.806 22.3354 127.289 22.854 126.513Z" fill="#F6C51D"/>
<path d="M18.7047 120.046C19.4826 119.399 20.7792 118.494 21.5572 119.787C22.3352 121.08 22.9834 125.736 22.0758 126.512C21.0385 127.288 19.6123 127.547 18.4453 124.831C17.2784 122.115 17.2784 121.339 18.7047 120.046Z" fill="#4F4515"/>
<path d="M59.6813 121.986C38.1557 131.685 22.7247 127.159 22.7247 127.159L22.4654 127.029C22.2061 127.288 21.817 127.417 21.2983 127.547C21.039 127.676 20.65 127.676 20.3906 127.805C24.5401 132.461 34.0062 138.281 52.679 134.66C52.679 134.66 55.1428 132.72 59.0329 130.133C60.3297 129.228 61.7561 128.323 63.4418 127.417C69.7958 123.667 87.8202 111.898 93.0071 97.93C93.9148 95.3434 94.8225 92.8861 95.4709 90.6875C90.1543 104.655 81.2069 112.286 59.6813 121.986Z" fill="#FED523"/>
<path d="M21.428 127.677C21.1687 127.806 21.039 127.806 20.7797 127.806H20.5204C23.7622 131.427 30.2458 135.825 41.9163 135.825C45.0284 135.825 48.3999 135.566 52.1604 134.79L52.4197 134.661C52.5494 134.531 54.7538 132.721 58.3846 130.393C51.901 132.203 46.3251 132.85 41.6569 132.85C28.3007 132.85 21.9467 127.677 21.9467 127.677H21.428Z" fill="#FF9F00"/>
<path d="M100.269 53.4407L99.6204 55.51C101.695 57.1913 103.64 61.4592 104.159 63.7871C104.289 64.6924 104.418 65.4684 104.418 65.9857C104.418 67.0204 104.159 67.7964 103.64 68.443C103.122 69.219 102.473 69.995 101.565 71.2883C98.583 75.8149 97.9346 84.3507 92.7477 98.3184C87.5608 112.286 69.5364 124.055 63.1825 127.806C58.3846 130.522 54.7538 133.238 53.3274 134.402C52.8087 134.79 52.5493 135.048 52.5493 135.048H52.4197L52.1603 135.178C52.0307 135.307 51.7713 135.566 51.512 135.824C52.29 135.824 53.1977 136.212 54.2351 137.247C55.0132 136.083 56.4396 134.402 58.7737 132.462C65.2573 127.03 72.6485 121.727 75.8903 119.658C77.9651 118.235 84.8377 110.475 90.8026 105.302C92.4884 102.586 93.9148 99.741 95.2115 96.6371C96.3786 94.1798 97.4159 91.4639 98.194 88.8773C98.3236 87.9719 98.4533 86.9373 98.7127 85.5147C100.658 75.5562 103.381 72.3229 104.029 71.8056C104.289 71.5469 104.548 71.4176 104.807 71.4176C106.363 71.4176 106.882 76.0735 103.511 82.7987C101.306 87.4546 99.2314 91.0759 98.4533 91.0759C98.194 91.0759 98.0643 90.8172 98.0643 90.2999C97.0269 94.3092 95.4709 98.7064 93.1368 103.233C95.3412 101.552 97.1566 100.388 98.4533 100.388H98.583C103.381 100.388 100.398 113.191 91.8401 121.339C84.3191 128.582 65.9056 141.386 56.6989 141.386H56.5692C56.8286 142.161 56.9582 142.937 56.9582 143.584C56.9582 144.231 56.8286 144.748 56.5692 145.136L56.3099 145.395L56.4395 145.265C56.6988 145.007 56.9582 144.619 56.9582 144.231C56.9582 144.231 72.7783 143.067 88.5983 128.582C88.7279 128.452 88.8576 128.323 88.9873 128.194L88.7279 127.935L88.5983 127.806H88.8575C89.1169 127.806 89.3763 127.676 89.7653 127.676C100.009 118.106 105.585 109.958 108.179 102.457C108.697 98.3184 108.957 94.1798 108.957 90.2999C108.957 90.1706 108.957 89.9119 108.957 89.7826C108.957 85.256 108.697 80.9881 108.438 77.4962C108.438 76.3322 108.308 75.1682 108.308 74.1336C108.308 73.7456 108.308 73.3576 108.308 72.9696C108.308 68.5724 109.086 66.3737 109.086 64.8218C109.086 64.0458 108.957 63.3991 108.438 62.7525C106.752 60.6832 102.214 55.6393 100.269 53.4407Z" fill="url(#paint2_linear_7002_17974)"/>
<path d="M108.049 73.8752C108.179 73.4872 108.179 73.0992 108.179 72.7112C108.179 68.4433 108.957 66.2447 108.957 64.5634C108.957 63.7875 108.827 63.1408 108.308 62.3648C107.012 60.5542 102.214 55.2516 100.269 53.1823L100.139 53.053L99.361 55.5103C101.436 57.1916 103.381 61.4595 103.899 63.7874C104.029 64.6928 104.159 65.4687 104.159 65.986C104.159 67.0207 103.899 67.6674 103.381 68.314C102.862 68.9607 102.214 69.866 101.306 71.1593C98.1939 75.8152 97.5456 84.2217 92.4884 98.1894C87.4311 112.157 69.4066 123.926 62.923 127.547C56.5691 131.298 52.29 134.661 52.29 134.661C52.29 134.661 51.6416 135.049 50.9932 135.695L50.8635 135.825H51.1229H51.2525C52.1602 135.825 53.3273 136.342 54.4943 138.023C55.5317 139.575 56.5691 141.774 56.5691 143.326C56.5691 143.843 56.4395 144.36 56.1801 144.748C55.9208 145.136 55.4021 145.395 54.7537 145.395H54.3647L54.6241 145.524C57.6065 146.947 61.756 147.982 66.5539 147.982C72.3892 147.982 79.1321 146.43 86.1344 142.162C91.3213 136.342 105.196 116.942 107.401 104.915C108.308 99.7413 108.568 94.5681 108.568 89.7829C108.827 83.7044 108.308 78.0138 108.049 73.8752C108.049 78.0138 108.568 83.7043 108.568 90.0415C108.568 94.8268 108.308 100 107.401 105.044C105.196 116.942 91.3213 136.342 86.1344 142.162H86.264V142.032C79.2617 146.3 72.5188 147.852 66.8132 147.852C62.0153 147.852 57.9955 146.818 55.0131 145.395V145.524V145.654C55.6614 145.524 56.1801 145.266 56.5691 144.878C56.8285 144.49 56.9581 143.972 56.9581 143.326C56.9581 141.644 55.9208 139.575 54.8834 137.894C53.7164 136.083 52.5493 135.566 51.5119 135.566H51.2525V135.695L51.3822 135.825C51.7713 135.437 52.0306 135.178 52.29 135.049L52.5492 134.919H52.679C52.679 134.919 52.9383 134.661 53.457 134.273C55.013 133.109 58.5142 130.522 63.3121 127.677C69.666 123.926 87.8201 112.157 92.8774 98.1894C97.9346 84.2217 98.7126 75.6858 101.695 71.1593C102.603 69.866 103.251 69.09 103.77 68.314C104.288 67.538 104.548 66.8914 104.548 65.8567C104.548 65.2101 104.418 64.5634 104.288 63.6581C103.899 61.3302 101.825 57.0623 99.75 55.381V55.5103H99.8796L100.658 53.3117H100.528L100.398 53.441C102.343 55.6396 107.012 60.8128 108.438 62.6235C108.957 63.2701 109.086 63.9168 109.086 64.6927C109.086 66.374 108.308 68.5727 108.308 72.8406C107.919 73.0992 108.049 73.4872 108.049 73.8752Z" fill="#ECB503"/>
<path d="M53.9756 137.377C52.8087 139.317 53.1976 140.351 53.1976 140.351C53.9756 140.869 55.0129 141.127 56.1798 141.257C55.7909 140.222 55.1426 139.058 54.6239 138.153C54.3646 137.894 54.1053 137.635 53.9756 137.377Z" fill="#FBFDA2"/>
<path d="M98.4533 100.258C97.1565 100.258 95.2115 101.422 93.1367 103.104C87.4312 113.838 77.187 125.219 58.6439 133.626C62.2747 131.944 79.7805 123.021 90.6729 105.173C84.8377 110.475 77.9651 118.106 75.7606 119.529C72.5188 121.727 65.1275 127.03 58.6439 132.332C56.3098 134.272 54.8834 135.824 54.1053 137.118C54.3647 137.376 54.4944 137.635 54.7537 137.894C55.4021 138.799 56.0504 139.963 56.4394 141.127H56.5692C65.7759 141.127 84.1893 128.323 91.7103 121.081C100.269 113.062 103.251 100.258 98.4533 100.258Z" fill="url(#paint3_linear_7002_17974)"/>
<path d="M54.1057 137.247L53.9761 137.376C54.1057 137.635 54.365 137.893 54.4947 138.152C55.143 139.057 55.6616 140.092 56.0506 141.256H56.3099C55.921 140.092 55.2727 139.057 54.6244 138.023C54.4947 137.764 54.2354 137.505 54.1057 137.247Z" fill="#F1DA23"/>
<path d="M88.4686 128.452C72.6486 142.937 56.8286 144.101 56.8286 144.101C56.699 145.007 56.0506 145.524 55.0132 145.653C61.6265 148.628 73.5563 150.05 86.3939 142.291C91.5808 136.471 105.456 117.071 107.66 105.173C107.919 103.75 108.049 102.457 108.308 101.034C105.715 109.053 99.8798 117.847 88.4686 128.452Z" fill="#FED521"/>
<path d="M56.3098 145.137L56.1802 145.266L56.3098 145.137Z" fill="url(#paint4_linear_7002_17974)"/>
<path d="M56.1802 145.265C55.9208 145.524 55.5318 145.654 55.0132 145.654C55.5318 145.654 55.7912 145.524 56.1802 145.265Z" fill="#F28802"/>
<path d="M86.0048 138.928C76.5387 144.489 67.3319 145.524 61.756 145.524C58.3846 145.524 56.3098 145.136 56.1801 145.136L56.0504 145.265C55.7911 145.524 55.4021 145.653 54.8834 145.653C57.8659 147.076 61.8857 148.111 66.6836 148.111C72.2595 148.111 78.8728 146.688 85.7454 142.679C86.0047 142.42 86.1344 142.291 86.1344 142.291C86.5234 141.903 86.7827 141.515 87.1718 140.997C86.7827 140.221 86.3938 139.575 86.0048 138.928Z" fill="#FF9F00"/>
<path d="M54.624 138.152C53.3274 136.342 52.1604 135.825 51.1231 135.954C50.0859 136.989 48.7893 139.058 49.8265 141.644C50.3452 142.938 52.1605 144.49 54.8833 145.783C58.1248 145.266 56.5689 140.868 54.624 138.152Z" fill="#FFC222"/>
<path d="M50.4751 138.411C51.1234 137.118 52.6793 137.247 53.8462 138.54C55.0131 139.963 56.5691 143.325 55.2725 144.36C53.9759 145.524 48.6598 142.161 50.4751 138.411Z" fill="#57480C"/>
<path d="M94.5634 147.853C92.4887 149.275 90.6733 150.18 89.3766 150.827C90.2843 151.862 90.8029 153.026 90.8029 154.19C90.8029 154.707 90.6733 155.224 90.5436 155.612H90.6733C90.6733 155.483 90.8029 155.354 90.8029 155.224C90.8029 155.095 90.9326 154.966 90.9326 154.836C91.0623 154.319 91.0623 153.931 90.9326 153.414C90.9326 153.414 93.5261 152.12 97.1569 149.275C96.2492 148.887 95.3415 148.37 94.5634 147.853ZM87.4315 141.127C87.0425 141.645 86.6535 142.033 86.3941 142.421C86.3941 142.421 86.2645 142.55 86.0051 142.938C85.7458 143.197 85.4864 143.714 85.0974 144.231C84.449 145.266 83.5413 146.559 83.0226 147.853C83.2819 147.853 83.5413 147.723 83.8007 147.723C84.449 147.723 85.227 147.853 86.1347 148.37C86.5238 146.947 87.4315 145.007 88.5986 142.679L88.4688 142.55C87.6908 143.326 86.7831 143.973 85.8754 144.749C86.3941 144.231 87.3018 143.455 88.3392 142.421C87.9502 141.903 87.6908 141.515 87.4315 141.127ZM105.715 52.0186L100.269 53.0532V53.1825C102.214 55.3811 106.882 60.5544 108.309 62.365C108.827 63.0117 109.087 63.7877 108.957 64.5636C108.957 66.2449 108.179 68.4435 108.179 72.7115C108.179 73.0994 108.179 73.4874 108.179 73.8754C108.309 78.014 108.827 83.7046 108.827 90.0418C108.827 94.827 108.568 100 107.66 105.173C106.753 110.217 103.77 116.684 100.139 122.762C100.269 122.504 100.399 122.245 100.528 122.116C103.511 117.46 106.882 108.665 110.124 103.104C110.383 101.811 110.513 100.518 110.643 99.2242C111.162 96.2496 111.421 93.275 111.421 90.1711C111.161 89.2658 110.902 87.9725 110.643 86.2912C108.957 76.3327 110.513 72.3235 110.902 71.6768C111.161 71.2888 111.421 71.0302 111.81 71.0302C113.236 71.0302 115.052 75.1687 114.403 82.1526C113.885 87.4551 113.236 91.7231 112.458 91.7231C112.329 91.7231 112.069 91.4644 111.94 91.0764C112.069 94.1804 112.069 97.5429 111.68 101.164C112.977 99.2242 114.274 98.0603 115.441 98.0603C115.57 98.0603 115.83 98.0603 115.959 98.1896C120.498 99.6122 120.368 112.545 111.421 129.358C112.718 129.358 114.014 129.358 115.441 129.488C119.59 122.504 123.091 113.839 124.518 103.363C128.927 72.7115 119.461 64.6929 116.608 62.8823C116.219 62.753 115.83 62.6237 115.57 62.4943C115.57 62.4943 115.57 62.365 115.441 62.1063C115.311 61.8477 115.311 61.589 115.052 61.201C114.663 60.4251 114.274 59.3904 113.496 58.2264C111.68 55.7691 109.346 53.3119 105.715 52.0186Z" fill="url(#paint5_linear_7002_17974)"/>
<path d="M115.311 62.1061C115.44 62.1061 113.106 54.3462 105.845 51.7596L100.269 52.7943L100.139 53.0529C102.084 55.2515 106.752 60.4248 108.179 62.2354C108.697 62.8821 108.827 63.5287 108.827 64.3047C108.827 65.986 108.049 68.1846 108.049 72.4525C108.049 72.8405 108.049 73.2285 108.049 73.6165C108.179 77.7551 108.697 83.4457 108.697 89.7829C108.697 94.5681 108.438 99.7413 107.53 104.785C105.326 116.684 91.4509 136.083 86.264 141.903C86.264 141.903 83.9299 144.619 82.7629 147.464L82.6332 147.594H82.8925C83.1519 147.464 83.5409 147.464 83.8003 147.464C84.4486 147.464 85.2266 147.594 86.1343 148.111C88.9871 149.663 90.6729 151.862 90.5432 153.802C90.5432 154.319 90.4135 154.836 90.1542 155.224L90.0245 155.353H90.1542C90.9322 155.483 91.5806 155.483 92.3586 155.483C93.6553 155.483 95.0818 155.353 96.3785 155.224C99.8796 154.707 106.882 151.732 114.014 145.266C121.146 138.799 128.278 129.099 131.909 114.873C133.854 107.242 134.761 100.259 134.761 94.0507C135.021 77.2378 128.018 65.4687 115.311 62.1061C127.889 65.598 134.891 77.2377 134.891 94.4387C134.891 100.647 133.983 107.63 132.038 115.261C128.408 129.487 121.275 139.187 114.144 145.524C107.012 151.862 100.009 154.836 96.6378 155.353C95.341 155.612 93.9147 155.612 92.618 155.612C91.8399 155.612 91.0619 155.612 90.4135 155.483V155.612H90.5432C90.8026 155.095 90.9322 154.577 90.9322 154.06C90.9322 151.991 89.2465 149.792 86.3937 148.111C85.486 147.594 84.5783 147.335 83.9299 147.335C83.5409 147.335 83.2816 147.335 82.8925 147.464V147.594H83.0222C83.6705 146.171 84.4486 144.748 85.2266 143.714C85.6156 143.196 85.875 142.808 86.1343 142.42C86.3937 142.162 86.5233 141.903 86.5233 141.903H86.3937L86.5233 142.032C91.7102 136.213 105.585 116.813 107.79 104.785C108.697 99.6119 108.957 94.4387 108.957 89.6535C108.957 83.3163 108.438 77.6258 108.308 73.4872C108.308 73.0992 108.308 72.7112 108.308 72.3232C108.308 68.0553 109.086 65.8567 109.086 64.1754C109.086 63.3994 108.957 62.7527 108.438 61.9768C107.141 60.1661 102.343 54.8636 100.398 52.7943L100.269 52.9236H100.398L100.528 52.6649L105.974 51.6303C109.605 52.9236 111.939 55.3809 113.366 57.7088C114.144 58.8728 114.662 59.9075 114.922 60.6835C115.051 61.0715 115.181 61.3301 115.311 61.5888C115.181 62.1061 115.181 62.2354 115.311 62.1061Z" fill="#ECB503"/>
<path d="M110.124 102.974C106.882 108.665 103.51 117.459 100.528 121.986C100.398 122.244 100.269 122.374 100.139 122.632C99.1015 124.443 98.0641 126.124 96.8971 127.806C97.8048 127.935 98.7125 128.064 99.7499 128.193C104.288 121.468 108.308 112.932 110.124 102.974ZM115.311 97.8008C114.144 97.8008 112.847 98.9647 111.55 100.905C110.513 109.182 107.66 118.752 100.917 128.452C103.899 128.711 107.401 128.969 111.291 129.099C120.238 112.286 120.368 99.3528 115.829 97.9301C115.57 97.8008 115.44 97.8008 115.311 97.8008Z" fill="url(#paint6_linear_7002_17974)"/>
<path d="M100.139 122.762C99.231 124.185 98.064 125.995 96.8971 127.935C97.9344 126.254 99.1013 124.443 100.139 122.762Z" fill="#F1DA23"/>
<path d="M86.0052 148.499C85.8755 149.145 85.7458 149.662 85.8755 150.05C86.3941 151.732 86.7831 152.12 86.9127 152.12C87.0424 152.12 87.0425 151.99 87.0425 151.99C87.0425 151.99 87.8204 151.732 89.117 151.085C88.4687 150.051 87.4314 149.275 86.0052 148.499Z" fill="#FBFDA2"/>
<path d="M88.4683 142.55C87.3013 144.878 86.3937 146.818 86.0048 148.241L86.1344 148.37C87.431 149.146 88.5979 149.922 89.3759 150.957C90.6725 150.31 92.4878 149.275 94.5623 147.982C93.0064 147.077 91.8394 146.042 90.8021 145.266C90.1538 144.749 89.6353 144.231 89.2463 143.714C88.987 143.197 88.7276 142.938 88.4683 142.55Z" fill="url(#paint7_linear_7002_17974)"/>
<path d="M86.0048 148.24V148.499H86.1344C87.431 149.275 88.4683 150.051 89.2463 150.956L89.3759 150.827C88.5979 149.921 87.5607 149.016 86.1344 148.24H86.0048Z" fill="#F1DA23"/>
<path d="M115.57 62.2349C115.57 62.2349 129.445 67.1494 124.388 103.103C119.201 138.928 90.9326 153.542 90.9326 153.542C91.0623 154.318 91.0622 155.094 90.6732 155.87C92.6183 156 94.8227 156 96.8975 155.612C103.77 154.577 125.036 143.713 132.428 115.26C139.689 86.937 132.817 66.8908 115.57 62.2349Z" fill="#FED524"/>
<path d="M132.168 115.907C130.871 120.563 129.315 124.831 127.37 128.581C129.315 124.831 131.001 120.563 132.168 115.907Z" fill="#FED521"/>
<path d="M90.9327 154.965C90.9327 155.095 90.9326 155.224 90.803 155.354C90.803 155.224 90.9327 155.095 90.9327 154.965Z" fill="url(#paint8_linear_7002_17974)"/>
<path d="M101.695 151.603C95.4708 154.577 90.9323 154.965 90.9323 154.965C90.9323 155.095 90.9323 155.224 90.8026 155.353C90.8026 155.483 90.673 155.741 90.5433 155.871C91.3214 156 91.9697 156 92.7477 156C94.0444 156 95.4709 155.871 96.7676 155.741C97.2863 155.612 97.9346 155.483 98.7127 155.224C100.269 154.707 102.214 153.931 104.418 152.767C103.64 152.249 102.603 151.991 101.695 151.603ZM118.942 63.3992C128.148 67.7964 140.078 92.4986 126.333 124.185C125.684 125.866 124.906 127.418 124.128 128.84C125.295 128.711 126.333 128.711 127.5 128.582C129.445 124.831 131.001 120.563 132.298 115.907C132.298 115.778 132.427 115.519 132.427 115.39C139.17 88.8773 133.724 69.7364 118.942 63.3992Z" fill="#FF9F00"/>
<path d="M88.3388 142.42C87.3014 143.454 86.3937 144.23 85.875 144.748C86.653 143.972 87.5608 143.196 88.3388 142.42ZM111.55 90.0408C111.55 93.1447 111.291 96.1193 110.772 99.0939C110.642 100.387 110.383 101.681 110.253 102.974C110.642 102.198 111.161 101.422 111.55 100.905C111.939 97.2833 112.069 93.9207 111.809 90.8168C111.68 90.5581 111.68 90.2994 111.55 90.0408Z" fill="url(#paint9_linear_7002_17974)"/>
<path d="M111.551 100.905C111.161 101.552 110.643 102.199 110.254 102.975C108.438 112.933 104.289 121.469 99.88 128.323C100.269 128.323 100.528 128.453 100.917 128.453C107.531 118.624 110.513 109.182 111.551 100.905Z" fill="url(#paint10_linear_7002_17974)"/>
<path d="M86.6535 84.998C86.2645 85.386 85.8754 85.6447 85.4864 85.9034C84.449 87.326 83.4116 88.6193 82.3743 90.0419C79.7808 93.4045 76.928 96.3791 73.9456 99.0951C74.7236 98.8364 75.5016 98.7071 76.15 98.7071C80.6885 94.0512 84.1897 89.3953 86.6535 84.998Z" fill="url(#paint11_linear_7002_17974)"/>
<path d="M76.02 98.5776C75.3716 98.707 74.7233 98.8363 73.8156 98.9656C59.0329 112.028 41.2679 115.779 37.3777 116.425C55.5318 113.451 67.8506 106.337 76.02 98.5776Z" fill="url(#paint12_linear_7002_17974)"/>
<path d="M98.0639 88.7478C97.1563 91.4637 96.2486 94.0504 95.0817 96.5076C93.7851 99.6116 92.3588 102.457 90.6732 105.173C91.5808 104.397 92.3588 103.75 93.1368 103.104C95.4707 98.5769 97.0266 94.1797 98.0639 90.1704C97.9342 89.9118 98.0639 89.3945 98.0639 88.7478Z" fill="url(#paint13_linear_7002_17974)"/>
<path d="M93.1367 103.104C92.3586 103.751 91.5806 104.398 90.6729 105.174C79.7804 123.021 62.2746 131.816 58.6438 133.626C77.1869 125.22 87.4311 113.839 93.1367 103.104Z" fill="url(#paint14_linear_7002_17974)"/>
<path d="M86.1342 148.499C84.7079 147.723 83.6707 147.723 82.7631 147.982C82.2444 149.275 81.8554 150.439 82.1148 151.474C82.5037 153.801 86.0045 155.483 90.413 155.871C91.4503 153.543 89.7647 150.439 86.1342 148.499Z" fill="#FFC222"/>
<path d="M83.4113 150.569C83.8003 149.663 84.3189 148.111 86.5231 149.534C88.857 150.957 90.0239 153.155 89.5053 154.19C89.1163 155.095 87.4307 154.837 85.6155 153.931C83.9299 153.155 82.8927 151.733 83.4113 150.569Z" fill="#57480C"/>
<path d="M105.715 50.9832C105.715 50.0779 103.77 47.4913 102.343 45.9393C102.343 45.9393 101.306 44.258 100.269 44.1287C100.139 44.1287 99.8797 44.1287 99.6204 44.1287C99.6204 46.4566 99.361 49.6899 98.1939 51.5005C97.0269 53.1818 95.4708 54.7338 93.6554 55.5098C93.9147 55.6391 94.1741 55.6391 94.3038 55.6391C95.2115 55.7684 99.361 58.4844 100.787 58.4844C102.214 58.6137 103.51 56.2857 104.418 55.1218C105.456 54.0871 105.715 51.8885 105.715 50.9832Z" fill="#643212"/>
<path d="M105.715 50.9839C105.715 50.4666 105.326 49.5612 104.548 48.6559C103.9 47.7506 103.122 46.7159 102.344 45.94C102.344 45.94 102.085 45.552 101.696 45.0347C101.307 44.5173 100.788 44.1293 100.269 44H100.139C100.01 44 99.7505 44 99.6208 44.1293C99.6208 46.4573 99.3615 49.6906 98.1944 51.3719C97.0274 53.0532 95.4713 54.4758 93.6559 55.3811L93.5262 55.5105H93.6559C93.9152 55.6398 94.1746 55.6398 94.3042 55.6398C94.6933 55.7691 95.99 56.4157 97.4164 57.0624C98.7131 57.7091 100.14 58.485 100.918 58.485H101.047C101.696 58.485 102.474 57.9677 102.992 57.1917C103.641 56.5451 104.159 55.6398 104.548 55.1224C105.456 53.9585 105.715 52.0185 105.715 50.9839V51.1132C105.715 52.1478 105.456 54.0878 104.548 55.2518C104.159 55.7691 103.511 56.6744 102.992 57.3211C102.344 57.9677 101.696 58.485 101.047 58.485H100.918C100.269 58.485 98.8428 57.7091 97.546 57.0624C96.2493 56.4157 94.9526 55.6398 94.434 55.6398C94.3043 55.6398 94.0449 55.5105 93.7856 55.5105C95.601 54.6051 97.2867 53.0532 98.3241 51.5012C99.4912 49.8199 99.7505 46.5866 99.7505 44.2587C100.01 44.2587 100.14 44.1293 100.269 44.1293H100.399C100.918 44.2587 101.436 44.6467 101.696 45.164C101.825 45.4227 102.085 45.552 102.085 45.8107C102.214 45.94 102.214 46.0693 102.214 46.0693C102.863 46.8453 103.77 47.8799 104.419 48.7852C105.197 49.6906 105.586 50.4666 105.715 50.9839Z" fill="#B58309"/>
<path d="M98.3233 51.5005C99.4902 49.8192 99.7495 46.5859 99.7495 44.1287C98.3233 44.5167 95.8597 46.0686 93.3961 50.0779C91.0622 53.9578 92.6182 55.1218 93.7852 55.3804C95.4708 54.6045 97.1563 53.0525 98.3233 51.5005Z" fill="#643212"/>
<path d="M98.3235 51.5005C99.4904 49.8192 99.7497 46.586 99.7497 44.258V44.1287H99.6201C98.1938 44.5167 95.6006 46.0686 93.2667 50.2072C92.3591 51.6299 92.0997 52.7938 92.0997 53.5698C92.0997 54.8631 93.0074 55.3804 93.7854 55.6391C95.6006 54.7338 97.1566 53.1818 98.3235 51.5005C97.1566 53.0525 95.471 54.6045 93.7854 55.5098C93.1371 55.2511 92.2294 54.8631 92.2294 53.5698C92.2294 52.7938 92.4887 51.7592 93.3963 50.2072C95.7302 46.198 98.3235 44.5167 99.7497 44.258C99.6201 46.586 99.3608 49.8192 98.3235 51.5005Z" fill="#B58309"/>
<path d="M96.249 70.6416C96.1193 70.6416 95.86 70.6416 95.7304 70.7709C94.9523 71.0296 91.1918 72.9696 85.8752 81.6347C83.5411 85.3853 83.0225 86.8079 83.8005 86.8079C84.1895 86.8079 84.7082 86.42 85.6159 85.9026C86.7829 84.2213 87.95 82.4107 88.9874 80.6001C88.339 82.0227 87.561 83.5747 86.6533 85.1266C87.95 84.092 89.6357 82.6693 91.3215 80.9881C97.1567 75.4268 98.1941 70.6416 96.249 70.6416Z" fill="url(#paint15_linear_7002_17974)"/>
<path d="M88.8573 80.4714C87.8201 82.2821 86.6532 84.0927 85.4862 85.774C85.8752 85.5153 86.2642 85.2567 86.6532 84.8687C87.4311 83.446 88.209 81.8941 88.8573 80.4714Z" fill="url(#paint16_linear_7002_17974)"/>
<path d="M104.677 71.2878C104.418 71.2878 104.159 71.4172 103.899 71.6759C103.251 72.1932 100.528 75.4264 98.5833 85.3849C98.324 86.8075 98.1944 87.9715 98.0647 88.7475C98.324 87.7128 98.713 86.8075 98.9723 85.7729C98.713 87.1955 98.4537 88.6182 98.0647 90.1701C98.0647 90.6874 98.1943 90.9461 98.4537 90.9461C99.2316 90.9461 101.306 87.3249 103.51 82.669C106.752 75.9438 106.233 71.2878 104.677 71.2878Z" fill="url(#paint17_linear_7002_17974)"/>
<path d="M98.9723 85.7734C98.713 86.8081 98.4537 87.7134 98.0647 88.748C98.0647 89.3947 97.935 89.912 98.0647 90.1707C98.4537 88.6187 98.713 87.1961 98.9723 85.7734Z" fill="url(#paint18_linear_7002_17974)"/>
<path d="M111.809 70.7715C111.42 70.7715 111.161 71.0301 110.902 71.4181C110.513 72.0648 109.086 76.074 110.642 86.0325C110.902 87.8431 111.161 89.0071 111.42 89.9124C111.42 89.1364 111.42 88.3605 111.42 87.5845C111.55 88.6191 111.68 89.6537 111.68 90.6884C111.939 91.2057 112.069 91.335 112.198 91.335C112.976 91.335 113.624 87.1965 114.143 81.7646C115.051 74.9101 113.236 70.7715 111.809 70.7715Z" fill="url(#paint19_linear_7002_17974)"/>
<path d="M111.55 87.5847C111.55 88.3607 111.55 89.1367 111.55 89.9127C111.68 90.1713 111.68 90.43 111.81 90.6886C111.81 89.654 111.68 88.6194 111.55 87.5847Z" fill="url(#paint20_linear_7002_17974)"/>
<path d="M91.4511 127.547C90.673 127.547 89.7653 127.547 88.8576 127.676C89.506 128.323 89.895 129.228 90.0247 130.651C93.7852 129.487 103.381 129.228 111.291 129.228C104.548 128.97 98.4534 128.452 95.2116 127.806C95.2116 127.806 94.6929 127.676 94.0445 127.676C93.3961 127.676 92.4884 127.547 91.4511 127.547ZM154.472 120.951C153.305 120.951 153.953 119.787 157.843 116.683C165.753 110.346 170.032 109.699 170.81 109.699C173.534 109.699 171.329 114.226 163.289 117.718C159.27 119.658 155.769 120.951 154.472 120.951ZM178.85 92.8865H178.721C177.942 95.7317 175.868 102.457 175.09 104.526C174.571 105.949 173.534 106.337 171.978 106.984C170.421 107.63 168.217 108.406 165.235 110.475C159.14 114.485 149.544 121.986 138.263 126.383C133.465 128.323 126.463 129.099 119.331 129.228C119.59 129.228 119.849 129.228 120.109 129.228C120.238 129.228 120.368 129.228 120.498 129.228C123.48 129.228 127.37 128.711 131.39 128.323C135.41 127.806 139.43 127.418 142.542 127.418C145.913 127.418 148.377 127.935 148.766 129.487C149.933 134.143 138.522 140.997 118.942 142.032C117.904 142.032 116.997 142.161 115.959 142.161C102.733 142.161 93.3962 137.376 89.6357 135.048C89.506 135.566 89.2467 135.954 88.9873 136.471C88.339 137.635 87.3016 138.411 86.1345 138.54L86.2642 138.67C87.0422 138.54 87.6906 138.281 88.2092 137.764C88.2092 137.764 101.306 145.653 120.498 145.653C128.926 145.653 138.652 144.101 148.766 139.704C177.164 127.418 179.11 115.131 179.11 111.769C178.98 111.381 178.98 110.993 178.85 110.605C178.85 110.605 178.85 110.475 178.98 110.346C179.109 110.217 179.239 109.958 179.499 109.699C179.888 109.182 180.406 108.406 180.925 107.501C181.962 105.561 183 102.974 183 99.9997C183 99.0943 182.87 98.189 182.74 97.1544L178.85 92.8865Z" fill="url(#paint21_linear_7002_17974)"/>
<path d="M178.85 110.346C178.98 110.346 183 105.819 183 99.7406C183 98.8353 182.87 97.8007 182.741 96.766L178.98 92.6274L178.591 92.7568C177.813 95.6021 175.738 102.327 174.96 104.397C174.442 105.69 173.534 106.207 171.978 106.724C170.422 107.371 168.217 108.147 165.105 110.216C159.011 114.226 149.415 121.727 138.133 126.124C132.557 128.323 124.129 128.969 115.959 128.969C107.401 128.969 99.2317 128.193 95.3415 127.547C95.3415 127.547 93.6558 127.288 91.4513 127.288C90.5436 127.288 89.636 127.288 88.5986 127.417H88.3393L88.4689 127.547C89.1173 128.193 89.6359 129.099 89.7656 130.651C89.7656 130.909 89.7656 131.039 89.7656 131.297C89.7656 133.237 89.3766 134.789 88.5986 135.953C87.9503 137.117 86.9129 137.893 85.7458 137.893H85.6161L85.7458 138.023C86.6535 139.833 87.8206 141.644 89.247 143.325C92.6185 147.334 105.197 155.353 123.091 155.353C128.927 155.353 135.41 154.448 142.283 152.378C154.342 148.628 163.808 143.454 170.162 137.376C176.516 131.297 179.888 124.443 179.888 117.2C180.017 115.131 179.628 112.674 178.85 110.346C179.499 112.674 179.758 115.002 179.758 117.33C179.758 124.572 176.387 131.427 170.033 137.376C163.679 143.454 154.342 148.498 142.283 152.249C135.41 154.318 128.927 155.223 123.091 155.223C105.197 155.223 92.7481 147.205 89.3766 143.196C87.9502 141.514 86.7832 139.704 85.8754 138.023H85.7458V138.152C87.0425 138.023 88.0799 137.247 88.7283 136.083C89.5063 134.919 89.8953 133.237 89.8953 131.297C89.8953 131.039 89.8953 130.909 89.8953 130.651C89.7657 129.099 89.247 128.064 88.5986 127.417L88.4689 127.547V127.676C89.3766 127.547 90.2844 127.547 91.1921 127.547C92.2294 127.547 93.1371 127.547 93.9151 127.676C94.5635 127.676 95.0822 127.805 95.0822 127.805C98.9724 128.452 107.142 129.228 115.7 129.228C123.869 129.228 132.428 128.581 138.004 126.383C149.285 121.986 158.881 114.484 164.976 110.475C168.088 108.406 170.162 107.63 171.718 106.983C173.275 106.336 174.182 105.819 174.831 104.526C175.738 102.457 177.683 95.7314 178.461 92.8861H178.332V93.0155H178.591L182.352 97.0247L182.481 96.8954H182.352C182.611 97.93 182.611 98.8353 182.611 99.7406C182.611 102.715 181.574 105.431 180.536 107.242C180.017 108.147 179.499 108.923 179.11 109.44C178.98 109.699 178.721 109.958 178.591 110.087C178.85 110.216 178.721 110.346 178.85 110.346Z" fill="#ECB503"/>
<path d="M89.7655 130.78C89.1172 131.039 88.5986 131.168 88.3392 131.427C86.6537 133.367 87.1723 133.496 87.302 133.496H87.4316C87.4316 133.496 88.0799 134.014 89.2469 134.79C89.5062 133.884 89.7655 132.72 89.7655 131.556C89.7655 131.298 89.7655 131.168 89.7655 130.91V130.78Z" fill="#F9EF36"/>
<path d="M142.542 127.418C139.3 127.418 135.281 127.936 131.39 128.324C127.371 128.841 123.48 129.229 120.498 129.229C120.368 129.229 120.239 129.229 120.109 129.229C119.85 129.229 119.59 129.229 119.331 129.229C118.164 129.229 117.126 129.229 115.959 129.229C114.403 129.229 112.977 129.229 111.421 129.1C103.381 129.1 93.9151 129.488 90.1546 130.522V130.651C90.1546 130.91 90.1546 131.039 90.1546 131.298C90.1546 132.591 90.025 133.755 89.636 134.661C93.5262 137.118 102.733 141.774 115.959 141.774C116.867 141.774 117.905 141.774 118.942 141.645C138.522 140.61 149.934 133.755 148.766 129.1C148.248 127.936 145.914 127.418 142.542 127.418Z" fill="url(#paint22_linear_7002_17974)"/>
<path d="M90.0247 130.651H89.7653V130.78C89.7653 131.039 89.7653 131.168 89.7653 131.427C89.7653 132.591 89.6357 133.755 89.2467 134.66L89.3763 134.79C89.7654 133.755 89.8951 132.591 89.8951 131.427C89.8951 131.168 89.8951 131.039 89.8951 130.78L90.0247 130.651ZM113.884 129.229C113.106 129.229 112.199 129.229 111.291 129.229C112.717 129.229 114.273 129.358 115.83 129.358C116.997 129.358 118.034 129.358 119.201 129.358C117.645 129.228 115.83 129.229 113.884 129.229Z" fill="#F4E52C"/>
<path d="M179.758 114.485V114.614C181.833 130.263 168.217 144.748 142.412 152.767C168.476 144.748 181.962 130.134 179.758 114.485Z" fill="#FDE766"/>
<path d="M171.978 128.323C171.978 128.323 156.936 150.568 125.296 150.568C117.645 150.568 109.087 149.275 99.491 146.042C99.3613 146.042 99.2316 145.912 99.2316 145.912L99.491 146.042C101.047 146.559 110.643 149.534 123.351 149.534C138.004 149.534 156.936 145.395 171.978 128.323ZM179.11 111.51C179.11 114.873 177.165 127.16 148.766 139.446C138.522 143.843 128.927 145.395 120.498 145.395C101.306 145.395 88.2095 137.506 88.2095 137.506C87.6908 138.023 86.9128 138.411 86.2644 138.411C86.5237 138.411 86.7831 138.282 87.0425 138.282C87.0425 138.282 97.6756 152.896 122.184 152.896C125.166 152.896 128.408 152.638 131.779 152.25C163.808 147.723 178.85 127.289 179.888 116.296C179.758 114.744 179.499 113.192 179.11 111.51Z" fill="url(#paint23_linear_7002_17974)"/>
<path d="M178.98 110.605C178.98 110.605 179.11 110.864 179.11 111.51C179.499 113.192 179.758 114.744 179.758 116.296C179.888 115.52 179.888 114.744 179.758 114.097C179.758 114.226 179.758 114.356 179.758 114.485V114.356C179.628 113.192 179.369 111.898 178.98 110.605Z" fill="#F9C918"/>
<path d="M90.803 145.137C91.7106 146.042 93.0072 146.947 94.5632 147.853C93.0072 146.947 91.8403 146.042 90.803 145.137Z" fill="url(#paint24_linear_7002_17974)"/>
<path d="M97.1567 149.404C98.583 150.18 100.009 150.827 101.695 151.603C100.009 150.827 98.4533 150.18 97.1567 149.404Z" fill="#FFB20D"/>
<path d="M101.695 151.603C102.603 151.991 103.64 152.379 104.548 152.638C103.64 152.25 102.603 151.991 101.695 151.603Z" fill="#FF8500"/>
<path d="M89.5062 143.713C89.8952 144.101 90.2842 144.618 90.9325 145.136C90.2842 144.618 89.7655 144.23 89.5062 143.713Z" fill="#F09803"/>
<path d="M179.887 114.614C180.017 115.519 180.017 116.554 180.017 117.459C180.017 124.702 176.646 131.685 170.292 137.635C163.938 143.713 154.472 148.886 142.412 152.637C135.54 154.706 129.056 155.612 123.221 155.612C116.089 155.612 109.864 154.318 104.807 152.637H104.677C109.864 154.448 116.218 155.741 123.35 155.741C129.186 155.741 135.54 154.836 142.412 152.766H142.542C168.347 144.748 181.832 130.263 179.887 114.614Z" fill="#FFC628"/>
<path d="M94.5634 147.852C95.3413 148.369 96.1193 148.886 97.0269 149.404C96.249 148.886 95.3413 148.369 94.5634 147.852Z" fill="url(#paint25_linear_7002_17974)"/>
<path d="M90.803 145.137C91.7106 146.042 93.0072 146.947 94.5632 147.853C93.1369 146.947 91.8403 146.042 90.803 145.137Z" fill="url(#paint26_linear_7002_17974)"/>
<path d="M97.1567 149.404C98.4533 150.18 100.009 150.956 101.695 151.603H101.824C100.139 150.827 98.583 150.051 97.1567 149.404Z" fill="#FFB20D"/>
<path d="M101.825 151.473C102.603 151.861 103.64 152.249 104.678 152.637H104.807C103.64 152.249 102.733 151.861 101.825 151.473Z" fill="#FFA209"/>
<path d="M179.758 116.425C178.721 127.289 163.678 147.723 131.649 152.379C128.278 152.896 125.036 153.026 122.054 153.026C97.5457 153.026 86.9125 138.411 86.9125 138.411C86.6532 138.541 86.3939 138.541 86.1345 138.541C87.0422 140.222 88.0796 141.903 89.506 143.455C92.8774 147.335 105.326 155.483 123.221 155.483C129.056 155.483 135.54 154.578 142.412 152.508C154.472 148.758 163.808 143.585 170.162 137.635C176.516 131.557 179.888 124.702 179.888 117.589C179.758 117.072 179.758 116.684 179.758 116.425Z" fill="url(#paint27_linear_7002_17974)"/>
<path d="M179.758 114.226C179.887 114.873 179.887 115.649 179.758 116.425C179.758 116.813 179.758 117.071 179.758 117.459C179.758 124.702 176.386 131.556 170.032 137.506C163.678 143.584 154.342 148.628 142.282 152.379C135.41 154.448 128.926 155.353 123.091 155.353C105.196 155.353 92.7476 147.335 89.3762 143.325C88.0794 141.773 86.9124 140.092 86.0047 138.411H85.875C86.7827 140.222 87.9498 142.032 89.3762 143.584C89.7652 143.972 90.1542 144.489 90.8025 145.007C91.8399 145.912 93.007 146.817 94.5631 147.723C95.3411 148.24 96.2488 148.757 97.1565 149.145C98.5829 149.921 100.139 150.568 101.825 151.344C102.732 151.732 103.77 152.12 104.677 152.379C109.864 154.189 116.089 155.353 123.091 155.353C128.926 155.353 135.41 154.448 142.282 152.379C154.342 148.628 163.808 143.455 170.162 137.376C176.516 131.298 179.887 124.443 179.887 117.201C179.887 116.295 179.887 115.261 179.758 114.355C179.758 114.485 179.758 114.355 179.758 114.226Z" fill="#FBA905"/>
<path d="M99.2316 146.042C99.2316 146.042 99.3613 146.042 99.4909 146.171L99.2316 146.042ZM171.978 128.323C157.065 145.395 138.133 149.534 123.221 149.534C110.513 149.534 100.917 146.559 99.3613 146.042C108.957 149.275 117.515 150.568 125.166 150.568C156.806 150.568 171.978 128.323 171.978 128.323Z" fill="url(#paint28_linear_7002_17974)"/>
<path d="M89.8944 130.91C89.7648 129.358 89.2461 128.323 88.5978 127.677C87.3012 127.935 86.0046 128.194 85.2266 128.97C83.4114 130.522 83.93 134.402 85.8749 138.282C88.3385 138.023 90.1538 135.049 89.8944 130.91Z" fill="#FFC222"/>
<path d="M86.6531 129.616C87.5607 129.487 89.2463 129.099 89.1166 131.686C88.9869 134.402 87.82 136.471 86.7827 136.6C85.7454 136.729 85.0971 135.048 84.9674 133.238C84.8378 131.427 85.3565 129.875 86.6531 129.616Z" fill="#57480C"/>
<path d="M170.81 109.829C170.032 109.829 165.883 110.476 157.843 116.813C153.953 119.917 153.305 121.081 154.472 121.081C155.768 121.081 159.14 119.788 163.289 117.977C171.329 114.356 173.533 109.829 170.81 109.829Z" fill="url(#paint29_linear_7002_17974)"/>
<defs>
<linearGradient id="paint0_linear_7002_17974" x1="22.4816" y1="93.0424" x2="102.791" y2="97.6396" gradientUnits="userSpaceOnUse">
<stop stop-color="#F5DC12"/>
<stop offset="0.4176" stop-color="#F5DE12"/>
<stop offset="0.5694" stop-color="#F5E412"/>
<stop offset="0.6774" stop-color="#F4F013"/>
<stop offset="0.7362" stop-color="#F4FA13"/>
<stop offset="0.8522" stop-color="#F2F913"/>
<stop offset="0.8941" stop-color="#EBF614"/>
<stop offset="0.924" stop-color="#E0F016"/>
<stop offset="0.9482" stop-color="#CFE819"/>
<stop offset="0.969" stop-color="#B9DE1D"/>
<stop offset="0.987" stop-color="#9ED222"/>
<stop offset="1" stop-color="#86C627"/>
</linearGradient>
<linearGradient id="paint1_linear_7002_17974" x1="21.0903" y1="110.176" x2="101.482" y2="114.778" gradientUnits="userSpaceOnUse">
<stop stop-color="#F5EE28"/>
<stop offset="0.4978" stop-color="#F5EF27"/>
<stop offset="0.6788" stop-color="#F4F626"/>
<stop offset="0.7362" stop-color="#F4FA26"/>
<stop offset="0.8685" stop-color="#F2F926"/>
<stop offset="0.9166" stop-color="#EBF628"/>
<stop offset="0.9509" stop-color="#E0F12C"/>
<stop offset="0.9785" stop-color="#CFE930"/>
<stop offset="1" stop-color="#BBE035"/>
</linearGradient>
<linearGradient id="paint2_linear_7002_17974" x1="78.0182" y1="149.281" x2="83.515" y2="52.7473" gradientUnits="userSpaceOnUse">
<stop stop-color="#F5DC12"/>
<stop offset="0.2852" stop-color="#F4F013"/>
<stop offset="0.4969" stop-color="#F4FA13"/>
<stop offset="0.5814" stop-color="#EFF814"/>
<stop offset="0.682" stop-color="#E1F116"/>
<stop offset="0.7908" stop-color="#C9E51A"/>
<stop offset="0.9047" stop-color="#A7D620"/>
<stop offset="1" stop-color="#86C627"/>
</linearGradient>
<linearGradient id="paint3_linear_7002_17974" x1="75.7551" y1="149.526" x2="81.257" y2="52.901" gradientUnits="userSpaceOnUse">
<stop stop-color="#F5EE28"/>
<stop offset="0.1095" stop-color="#F5F127"/>
<stop offset="0.4969" stop-color="#F4FA26"/>
<stop offset="0.6211" stop-color="#EFF827"/>
<stop offset="0.7682" stop-color="#E1F12B"/>
<stop offset="0.9262" stop-color="#C9E732"/>
<stop offset="1" stop-color="#BBE035"/>
</linearGradient>
<linearGradient id="paint4_linear_7002_17974" x1="56.101" y1="146.971" x2="60.1453" y2="76.1518" gradientUnits="userSpaceOnUse">
<stop stop-color="#FAA601"/>
<stop offset="0.2849" stop-color="#FBB801"/>
<stop offset="0.4969" stop-color="#FBC001"/>
<stop offset="0.5777" stop-color="#F6BE02"/>
<stop offset="0.6739" stop-color="#E7B904"/>
<stop offset="0.7779" stop-color="#CEB108"/>
<stop offset="0.8875" stop-color="#ABA60E"/>
<stop offset="1" stop-color="#809815"/>
</linearGradient>
<linearGradient id="paint5_linear_7002_17974" x1="102.045" y1="156.613" x2="107.994" y2="52.1406" gradientUnits="userSpaceOnUse">
<stop stop-color="#F5DC12"/>
<stop offset="0.5706" stop-color="#F4FA13"/>
<stop offset="0.6973" stop-color="#F1F913"/>
<stop offset="0.7739" stop-color="#E9F515"/>
<stop offset="0.8371" stop-color="#DBEE17"/>
<stop offset="0.8931" stop-color="#C6E51B"/>
<stop offset="0.9442" stop-color="#ACD81F"/>
<stop offset="0.9913" stop-color="#8CC925"/>
<stop offset="1" stop-color="#86C627"/>
</linearGradient>
<linearGradient id="paint6_linear_7002_17974" x1="105.521" y1="156.893" x2="111.457" y2="52.64" gradientUnits="userSpaceOnUse">
<stop stop-color="#F5EE28"/>
<stop offset="0.5706" stop-color="#F4FA26"/>
<stop offset="0.7275" stop-color="#F1F927"/>
<stop offset="0.8225" stop-color="#E9F529"/>
<stop offset="0.9011" stop-color="#DBEF2D"/>
<stop offset="0.9702" stop-color="#C7E632"/>
<stop offset="1" stop-color="#BBE035"/>
</linearGradient>
<linearGradient id="paint7_linear_7002_17974" x1="89.9051" y1="155.256" x2="95.8725" y2="50.4647" gradientUnits="userSpaceOnUse">
<stop stop-color="#F5EE28"/>
<stop offset="0.5706" stop-color="#F4FA26"/>
<stop offset="0.7275" stop-color="#F1F927"/>
<stop offset="0.8225" stop-color="#E9F529"/>
<stop offset="0.9011" stop-color="#DBEF2D"/>
<stop offset="0.9702" stop-color="#C7E632"/>
<stop offset="1" stop-color="#BBE035"/>
</linearGradient>
<linearGradient id="paint8_linear_7002_17974" x1="90.8359" y1="155.624" x2="95.925" y2="66.4473" gradientUnits="userSpaceOnUse">
<stop stop-color="#FAA601"/>
<stop offset="0.5706" stop-color="#FBC001"/>
<stop offset="0.6938" stop-color="#F8BF02"/>
<stop offset="0.7685" stop-color="#F0BC03"/>
<stop offset="0.8303" stop-color="#E1B805"/>
<stop offset="0.885" stop-color="#CCB108"/>
<stop offset="0.935" stop-color="#B1A80D"/>
<stop offset="0.981" stop-color="#909D12"/>
<stop offset="1" stop-color="#809815"/>
</linearGradient>
<linearGradient id="paint9_linear_7002_17974" x1="96.8133" y1="155.825" x2="102.755" y2="51.4722" gradientUnits="userSpaceOnUse">
<stop stop-color="#F8EF55"/>
<stop offset="0.5706" stop-color="#F6FB54"/>
<stop offset="0.7204" stop-color="#F4FA55"/>
<stop offset="0.8116" stop-color="#EBF658"/>
<stop offset="0.8871" stop-color="#DDF05F"/>
<stop offset="0.9537" stop-color="#C9E867"/>
<stop offset="1" stop-color="#B6E06E"/>
</linearGradient>
<linearGradient id="paint10_linear_7002_17974" x1="103.239" y1="157.056" x2="109.185" y2="52.6233" gradientUnits="userSpaceOnUse">
<stop stop-color="#F8F86B"/>
<stop offset="0.5706" stop-color="#F8FC6C"/>
<stop offset="0.7572" stop-color="#F6FB6D"/>
<stop offset="0.8689" stop-color="#EDF771"/>
<stop offset="0.9607" stop-color="#DFF176"/>
<stop offset="1" stop-color="#D6EE7A"/>
</linearGradient>
<linearGradient id="paint11_linear_7002_17974" x1="22.2219" y1="88.6601" x2="102.637" y2="93.2633" gradientUnits="userSpaceOnUse">
<stop stop-color="#F8EF55"/>
<stop offset="0.4971" stop-color="#F8F155"/>
<stop offset="0.6788" stop-color="#F7F754"/>
<stop offset="0.7362" stop-color="#F6FB54"/>
<stop offset="0.8651" stop-color="#F4FA54"/>
<stop offset="0.9119" stop-color="#EDF757"/>
<stop offset="0.9453" stop-color="#E2F25D"/>
<stop offset="0.9723" stop-color="#D1EB63"/>
<stop offset="0.9952" stop-color="#BBE26C"/>
<stop offset="1" stop-color="#B6E06E"/>
</linearGradient>
<linearGradient id="paint12_linear_7002_17974" x1="21.4172" y1="105.459" x2="101.624" y2="110.05" gradientUnits="userSpaceOnUse">
<stop stop-color="#F8F86B"/>
<stop offset="0.6316" stop-color="#F8FA6B"/>
<stop offset="0.7362" stop-color="#F8FC6C"/>
<stop offset="0.8826" stop-color="#F6FB6D"/>
<stop offset="0.9362" stop-color="#EFF870"/>
<stop offset="0.9744" stop-color="#E4F375"/>
<stop offset="1" stop-color="#D6EE7A"/>
</linearGradient>
<linearGradient id="paint13_linear_7002_17974" x1="91.3463" y1="149.826" x2="96.8648" y2="52.9174" gradientUnits="userSpaceOnUse">
<stop stop-color="#F8EF55"/>
<stop offset="0.1005" stop-color="#F7F255"/>
<stop offset="0.4969" stop-color="#F6FB54"/>
<stop offset="0.6122" stop-color="#F1F956"/>
<stop offset="0.7485" stop-color="#E3F35C"/>
<stop offset="0.8948" stop-color="#CBE966"/>
<stop offset="1" stop-color="#B6E06E"/>
</linearGradient>
<linearGradient id="paint14_linear_7002_17974" x1="74.0585" y1="149.151" x2="79.5744" y2="52.28" gradientUnits="userSpaceOnUse">
<stop stop-color="#F8F86B"/>
<stop offset="0.4969" stop-color="#F8FC6C"/>
<stop offset="0.664" stop-color="#F3FA6E"/>
<stop offset="0.8614" stop-color="#E5F474"/>
<stop offset="1" stop-color="#D6EE7A"/>
</linearGradient>
<linearGradient id="paint15_linear_7002_17974" x1="24.2176" y1="74.9786" x2="104.296" y2="79.5624" gradientUnits="userSpaceOnUse">
<stop stop-color="#F6F22F"/>
<stop offset="0.5375" stop-color="#F6F42F"/>
<stop offset="0.7309" stop-color="#F5FA30"/>
<stop offset="0.7362" stop-color="#F5FA30"/>
<stop offset="0.8776" stop-color="#F3FA30"/>
<stop offset="0.929" stop-color="#ECF732"/>
<stop offset="0.9656" stop-color="#E1F135"/>
<stop offset="0.9951" stop-color="#D0EA39"/>
<stop offset="1" stop-color="#CCE83A"/>
</linearGradient>
<linearGradient id="paint16_linear_7002_17974" x1="21.0094" y1="79.4115" x2="103.852" y2="84.153" gradientUnits="userSpaceOnUse">
<stop stop-color="#F6F648"/>
<stop offset="0.6039" stop-color="#F6F848"/>
<stop offset="0.7362" stop-color="#F6FB49"/>
<stop offset="0.8943" stop-color="#F4FA4A"/>
<stop offset="0.9512" stop-color="#EDF74C"/>
<stop offset="0.9918" stop-color="#E2F251"/>
<stop offset="1" stop-color="#DEF152"/>
</linearGradient>
<linearGradient id="paint17_linear_7002_17974" x1="98.0128" y1="150.836" x2="103.515" y2="54.2199" gradientUnits="userSpaceOnUse">
<stop stop-color="#F6F22F"/>
<stop offset="0.4969" stop-color="#F5FA30"/>
<stop offset="0.6468" stop-color="#F0F831"/>
<stop offset="0.8254" stop-color="#E2F235"/>
<stop offset="1" stop-color="#CCE83A"/>
</linearGradient>
<linearGradient id="paint18_linear_7002_17974" x1="94.9741" y1="148.838" x2="100.374" y2="54.0069" gradientUnits="userSpaceOnUse">
<stop stop-color="#F6F648"/>
<stop offset="0.4969" stop-color="#F6FB49"/>
<stop offset="0.7009" stop-color="#F1F94B"/>
<stop offset="0.9419" stop-color="#E3F351"/>
<stop offset="1" stop-color="#DEF152"/>
</linearGradient>
<linearGradient id="paint19_linear_7002_17974" x1="107.743" y1="156.411" x2="113.686" y2="52.0523" gradientUnits="userSpaceOnUse">
<stop stop-color="#F6F22F"/>
<stop offset="0.5706" stop-color="#F5FA30"/>
<stop offset="0.7456" stop-color="#F2F931"/>
<stop offset="0.8511" stop-color="#EAF633"/>
<stop offset="0.938" stop-color="#DCEF36"/>
<stop offset="1" stop-color="#CCE83A"/>
</linearGradient>
<linearGradient id="paint20_linear_7002_17974" x1="107.854" y1="156.311" x2="113.739" y2="52.9563" gradientUnits="userSpaceOnUse">
<stop stop-color="#F6F648"/>
<stop offset="0.5706" stop-color="#F6FB49"/>
<stop offset="0.7782" stop-color="#F3FA4A"/>
<stop offset="0.9039" stop-color="#EBF64D"/>
<stop offset="1" stop-color="#DEF152"/>
</linearGradient>
<linearGradient id="paint21_linear_7002_17974" x1="91.7808" y1="148.401" x2="183.961" y2="98.5405" gradientUnits="userSpaceOnUse">
<stop stop-color="#F5DC12"/>
<stop offset="0.5706" stop-color="#F4FA13"/>
<stop offset="0.6973" stop-color="#F1F913"/>
<stop offset="0.7739" stop-color="#E9F515"/>
<stop offset="0.8371" stop-color="#DBEE17"/>
<stop offset="0.8931" stop-color="#C6E51B"/>
<stop offset="0.9442" stop-color="#ACD81F"/>
<stop offset="0.9913" stop-color="#8CC925"/>
<stop offset="1" stop-color="#86C627"/>
</linearGradient>
<linearGradient id="paint22_linear_7002_17974" x1="90.4752" y1="147.557" x2="182.668" y2="97.6893" gradientUnits="userSpaceOnUse">
<stop stop-color="#F6F22F"/>
<stop offset="0.5706" stop-color="#F5FA30"/>
<stop offset="0.7456" stop-color="#F2F931"/>
<stop offset="0.8511" stop-color="#EAF633"/>
<stop offset="0.938" stop-color="#DCEF36"/>
<stop offset="1" stop-color="#CCE83A"/>
</linearGradient>
<linearGradient id="paint23_linear_7002_17974" x1="94.1961" y1="155.971" x2="186.474" y2="106.057" gradientUnits="userSpaceOnUse">
<stop stop-color="#FBD81B"/>
<stop offset="0.5706" stop-color="#FAE21A"/>
<stop offset="0.7429" stop-color="#F7E11A"/>
<stop offset="0.8469" stop-color="#EFDD1B"/>
<stop offset="0.9324" stop-color="#E1D71E"/>
<stop offset="1" stop-color="#CFD021"/>
</linearGradient>
<linearGradient id="paint24_linear_7002_17974" x1="92.1521" y1="156.231" x2="98.1993" y2="50.0377" gradientUnits="userSpaceOnUse">
<stop stop-color="#FACB11"/>
<stop offset="0.4857" stop-color="#FAD610"/>
<stop offset="0.5706" stop-color="#FAD810"/>
<stop offset="0.7229" stop-color="#F7D710"/>
<stop offset="0.8141" stop-color="#EFD410"/>
<stop offset="0.8893" stop-color="#E1CF0F"/>
<stop offset="0.9553" stop-color="#CDC70E"/>
<stop offset="1" stop-color="#BAC00D"/>
</linearGradient>
<linearGradient id="paint25_linear_7002_17974" x1="95.4968" y1="155.206" x2="101.225" y2="54.6157" gradientUnits="userSpaceOnUse">
<stop stop-color="#FDB60A"/>
<stop offset="0.5706" stop-color="#FEBE0C"/>
<stop offset="0.7474" stop-color="#FCBD0C"/>
<stop offset="0.8482" stop-color="#F3BA0B"/>
<stop offset="0.9297" stop-color="#E6B609"/>
<stop offset="1" stop-color="#D2B007"/>
</linearGradient>
<linearGradient id="paint26_linear_7002_17974" x1="92.2065" y1="155.628" x2="97.8913" y2="55.7995" gradientUnits="userSpaceOnUse">
<stop stop-color="#FDBA0E"/>
<stop offset="0.0525315" stop-color="#FDBB0E"/>
<stop offset="0.5706" stop-color="#FEBE0F"/>
<stop offset="0.7846" stop-color="#FBBD0E"/>
<stop offset="0.909" stop-color="#F3BC0D"/>
<stop offset="1" stop-color="#E7B90A"/>
</linearGradient>
<linearGradient id="paint27_linear_7002_17974" x1="95.6671" y1="156.451" x2="187.911" y2="106.556" gradientUnits="userSpaceOnUse">
<stop stop-color="#FDB60A"/>
<stop offset="0.5706" stop-color="#FEBE0C"/>
<stop offset="0.7474" stop-color="#FCBD0C"/>
<stop offset="0.8482" stop-color="#F3BA0B"/>
<stop offset="0.9297" stop-color="#E6B609"/>
<stop offset="1" stop-color="#D2B007"/>
</linearGradient>
<linearGradient id="paint28_linear_7002_17974" x1="97.5199" y1="160.4" x2="189.755" y2="110.509" gradientUnits="userSpaceOnUse">
<stop stop-color="#FBEC63"/>
<stop offset="0.5706" stop-color="#FAF261"/>
<stop offset="0.7779" stop-color="#F7F162"/>
<stop offset="0.9038" stop-color="#EFED66"/>
<stop offset="1" stop-color="#E2E76D"/>
</linearGradient>
<linearGradient id="paint29_linear_7002_17974" x1="93.5164" y1="152.916" x2="185.908" y2="102.94" gradientUnits="userSpaceOnUse">
<stop stop-color="#F6F22F"/>
<stop offset="0.5706" stop-color="#F5FA30"/>
<stop offset="0.7456" stop-color="#F2F931"/>
<stop offset="0.8511" stop-color="#EAF633"/>
<stop offset="0.938" stop-color="#DCEF36"/>
<stop offset="1" stop-color="#CCE83A"/>
</linearGradient>
</defs>
</svg>
