<svg width="200" height="200" viewBox="0 0 200 200" fill="none" xmlns="http://www.w3.org/2000/svg">
<path d="M25.8707 61.4902V61.4706C25.1465 61.04 25.8707 61.4902 25.8707 61.4902Z" fill="#FDC54E"/>
<path d="M122.994 103.268C111.191 103.268 94.4559 101.551 81.6353 93.336C57.5012 77.9005 38.6128 67.7924 38.417 67.6753C38.3192 67.6168 38.2213 67.5387 38.1626 67.4411C38.143 67.4216 36.4009 64.7092 34.7959 61.8212C31.7816 56.3768 31.8599 54.8547 32.2318 54.1327C32.4667 53.7034 32.8777 53.4888 33.3866 53.4888C34.0521 53.4888 34.9134 53.8595 36.1269 54.6596C44.6414 60.2601 50.6113 63.2457 52.1576 63.8116C52.5295 63.9482 53.5473 64.0848 54.8392 64.2799C59.4585 64.9434 69.0495 66.3484 82.2225 71.3829C97.3528 77.1785 97.5289 77.198 107.648 77.6859C108.94 77.7444 110.389 77.8225 112.072 77.9201C112.522 77.9396 112.992 77.9591 113.462 77.9591C122.681 77.9591 135.619 73.2758 146.012 69.5291C152.276 67.2655 157.678 65.3141 161.123 64.7677C166.271 63.9677 170.303 63.5384 173.141 63.5384C175.157 63.5384 176.547 63.7335 177.389 64.1628C177.604 64.2604 177.741 64.475 177.761 64.7287C177.917 66.7582 178.544 68.1632 179.072 68.4754C179.15 68.5144 179.229 68.5925 179.268 68.6705C179.816 69.4511 181.577 72.1245 180.638 73.9783C180.599 74.0368 180.56 74.1539 180.481 74.2905C178.563 78.3103 176.391 81.9984 174.061 85.2377C169.54 91.5212 164.744 95.7166 159.812 97.668C152.844 100.459 137.929 103.268 122.994 103.268Z" fill="#FECE54"/>
<path d="M64.4304 69.1193C66.5835 69.8999 68.7366 70.095 70.8897 70.6804C80.2849 72.827 88.3101 76.3394 97.7053 78.486C98.8797 78.6811 100.054 79.2665 101.229 79.4617C107.884 81.0228 114.343 81.0228 120.998 80.0471C126.674 79.0714 131.763 76.7297 136.852 73.9978L138.966 72.7684C129.591 76.0272 119.471 79.0323 112.033 78.603C97.3334 77.7835 99.1538 78.603 81.9878 72.0269C64.8219 65.4507 53.7629 65.119 51.9425 64.4555C50.1222 63.7921 44.0153 60.6699 35.7553 55.245C33.152 53.5278 32.4865 54.0742 32.7997 55.6158C40.3355 59.8308 47.8908 63.3042 55.8181 66.9728C58.5584 68.1436 61.6901 68.1436 64.4304 69.1193Z" fill="#FFED8D"/>
<path d="M97.5095 88.4617C92.8119 87.486 88.5057 86.3152 83.8081 85.1444C75.3915 82.9978 67.3664 80.8513 58.9498 78.3145C57.1881 77.7877 55.4461 77.1827 53.7236 76.5193C61.2203 80.8708 71.0462 86.764 81.9877 93.7695C106.415 109.4 147.539 102.824 159.597 98.043C171.654 93.2621 179.405 75.9924 180.07 74.6654C180.403 74.002 180.286 73.1434 179.973 72.3043C179.483 72.636 176.508 66.0794 175.999 66.4111C174.766 67.2307 175.725 71.4066 174.825 74.4703C174.551 75.4265 173.924 76.2266 173.063 76.7339C165.234 81.4367 157.307 85.0078 148.596 87.6812C131.959 92.7547 114.93 91.5839 97.5095 88.4617Z" fill="#E2A426"/>
<path d="M174.139 85.0663C178.151 79.5634 180.72 74.3884 181.073 73.6859C181.738 72.3785 180.583 70.2319 179.761 69.0806C178.939 68.5928 178.274 66.9341 178.117 64.8071C177.549 63.9095 177.275 63.9095 176.825 64.8461C174.281 69.3343 178.195 75.3836 176.825 79.6766C176.531 80.5547 175.157 82.8222 174.139 85.0663Z" fill="#C5B210"/>
<path d="M179.894 74.7394C179.796 74.7394 179.699 74.7199 179.62 74.6809C178.779 74.3101 178.348 73.6272 178.191 73.393L176.586 71.4611C176.547 71.4221 176.528 71.3831 176.508 71.344C176.234 70.8367 174.903 68.1828 175.49 66.7973C175.588 66.5827 175.608 66.4071 175.627 66.1534C175.686 65.646 175.745 65.0021 176.508 64.2215C176.645 64.0849 176.821 64.0264 176.997 64.0264C177.095 64.0264 177.193 64.0459 177.291 64.0849L177.409 64.1435C177.624 64.241 177.78 64.4557 177.8 64.7094C177.957 66.7388 178.583 68.1438 179.111 68.456C179.19 68.495 179.268 68.5731 179.307 68.6511C179.855 69.4317 181.617 72.1051 180.677 73.9589L180.501 74.3492C180.384 74.6029 180.149 74.7394 179.894 74.7394Z" fill="#7D5C0C"/>
<path d="M176.997 64.7283L177.115 64.7868C177.272 66.9333 177.937 68.5725 178.759 69.0603C179.581 70.2116 180.736 72.3582 180.071 73.6656L179.875 74.0559C179.092 73.7046 178.74 73.0021 178.74 73.0021L177.095 71.0312C177.095 71.0312 175.608 68.2408 176.097 67.0894C176.469 66.2503 176.058 65.6649 176.997 64.7283ZM176.997 63.3623C176.645 63.3623 176.293 63.4989 176.019 63.7721C175.079 64.7088 175.001 65.5674 174.942 66.1138C174.923 66.3284 174.903 66.4455 174.864 66.5431C174.512 67.3821 174.59 68.4554 175.138 69.958C175.471 70.8751 175.882 71.6362 175.901 71.6752C175.941 71.7532 175.999 71.8313 176.058 71.9094L177.624 73.7827C177.839 74.1339 178.368 74.8754 179.327 75.3048C179.503 75.3828 179.699 75.4218 179.894 75.4218C180.403 75.4218 180.893 75.1291 181.127 74.6413L181.304 74.251C182.361 72.124 180.658 69.353 179.875 68.2408C179.757 68.0846 179.62 67.9676 179.464 67.87C179.248 67.7334 178.642 66.7187 178.466 64.6502C178.426 64.1624 178.133 63.7331 177.683 63.5184L177.565 63.4599C177.389 63.4013 177.193 63.3623 176.997 63.3623Z" fill="#6F520C"/>
<path d="M63.119 66.4069C56.8751 65.0995 52.9604 64.8263 51.9426 64.4555C50.1222 63.7921 44.0153 60.6699 35.7553 55.245C27.4953 49.8202 38.7305 67.0899 38.7305 67.0899C38.7305 67.0899 44.4655 70.1536 53.7042 75.5199C57.5993 73.2953 61.0051 70.2316 63.119 66.4069Z" fill="#DBDB44"/>
<path d="M51.6871 63.6163C49.825 62.8721 43.5782 59.37 35.129 53.2852C32.4661 51.359 31.7854 51.9719 32.1057 53.701C39.8141 58.4288 47.5426 62.3249 55.6514 66.4398C57.5935 67.3591 59.7358 67.6218 61.7781 68.0814C62.2586 67.3591 62.6991 66.593 63.0995 65.8051C56.7326 64.3167 52.7282 64.0321 51.6871 63.6163Z" fill="#EBEB5A"/>
<path d="M122.153 130.373C108.96 130.373 93.9279 127.934 80.9116 123.661C66.7012 118.997 56.6796 112.713 52.6866 105.942C44.6027 92.2434 44.4266 90.3896 43.996 85.9014C43.8785 84.594 43.7219 83.1109 43.35 81.0229C41.7254 71.9295 33.6416 66.9925 28.8069 64.0459C27.2998 63.1288 26.2428 62.4848 25.6752 62.1531C25.6165 62.1336 25.5382 62.1141 25.4795 62.075C25.088 61.8214 24.7357 61.6067 24.8727 61.0993C24.9314 60.8847 25.088 60.7286 25.3033 60.6505L27.1628 50.1911L27.2215 50.0155C27.2606 49.9179 28.3568 47.6934 30.3141 47.6934C31.3515 47.6934 32.3693 48.3178 33.3284 49.5472C36.2057 53.2158 45.6401 63.2849 49.3591 65.8607C50.6705 66.7779 52.2755 66.9925 54.2916 67.2852C57.6583 67.7536 62.258 68.417 68.5215 72.7881C78.3866 79.6765 104.165 89.7846 117.768 92.1068C120.039 92.4971 122.446 92.6727 125.089 92.6727C133.055 92.6727 141.531 90.936 149.732 89.2578C153.607 88.4577 157.248 87.7162 160.791 87.1503C163.825 86.6624 166.624 86.4283 169.071 86.4283C175.04 86.4283 177.761 87.8723 179.073 88.5553C179.307 88.6724 179.503 88.7894 179.64 88.8285C181.598 89.5505 181.715 91.2482 181.558 92.8288C181.539 92.9849 181.519 93.18 181.519 93.3362C181.754 93.5508 181.891 93.8435 182.009 94.1752C182.478 95.4241 182.204 96.4584 182.048 96.8486C182.028 97.6487 181.441 100.225 176.665 106.957C171.517 115.933 159.068 123.056 138.575 128.715H138.555C133.956 129.807 128.436 130.373 122.153 130.373Z" fill="#FFC83D"/>
<path d="M25.8707 61.4902V61.4706C25.1465 61.04 25.8707 61.4902 25.8707 61.4902Z" fill="#FDC54E"/>
<path d="M174.905 106.996C180.509 98.7705 180.177 96.7193 180.177 96.7193C180.177 96.7193 180.274 96.4959 180.353 96.11C175.197 102.914 168.949 106.773 157.428 112.256C125.814 127.306 95.3331 116.927 77.1732 108.397C64.7738 102.568 53.3506 94.993 45.9305 79.7607C39.3109 66.1736 35.6399 64.3863 25.3493 58.0903L25.0173 60.0197C25.4469 60.2838 26.3842 60.8728 28.2978 62.1116C33.3943 65.3612 41.4784 70.6823 43.1186 80.2685C44.7589 89.8546 41.9665 87.6409 52.3352 105.96C62.7039 124.3 112.419 135.49 137.296 129.316C155.749 124.036 169.457 116.948 174.905 106.996Z" fill="#DA9E22"/>
<path d="M126.846 122.782C106.881 120.636 90.2439 119.66 69.3003 108.537C57.3996 102.215 49.5507 93.1019 43.2676 82.5254C44.3637 89.9406 42.5042 89.1015 52.2518 105.61C62.6453 123.231 112.479 133.983 137.416 128.051C138.747 127.68 140.039 127.31 141.311 126.919C141.292 126.549 141.155 126.217 140.939 125.905C138.003 122.002 131.544 123.173 126.846 122.782Z" fill="#BF8614"/>
<path d="M180.893 92.7701C181.049 90.9553 180.736 89.9796 179.405 89.4722C178.094 88.9844 174.453 85.6866 160.908 87.8331C147.363 89.9796 131.196 95.0727 117.651 92.7701C104.106 90.4674 78.0144 80.2617 68.1102 73.3538C58.206 66.4459 52.7646 69.0803 48.9478 66.446C45.1505 63.8116 35.7357 53.762 32.7605 49.9763L32.5256 49.6836L30.9402 50.2105C38.1824 61.9188 44.2502 67.968 47.5776 68.7486C50.9051 69.5291 69.1281 83.0912 90.2478 91.5797C117.455 102.507 139.769 97.8242 154.253 93.5311C163.492 90.7992 175.764 93.2189 181.362 94.3897C180.893 93.1213 180.736 94.5653 180.893 92.7701Z" fill="#FFC549"/>
<path d="M171.032 113.689C173.615 111.504 175.671 109.142 177.119 106.586C182.737 98.683 182.404 96.7121 182.404 96.7121C182.404 96.7121 182.893 95.7169 182.404 94.4095C181.915 93.1021 181.738 94.5656 181.915 92.7703C182.071 90.9556 181.758 89.9799 180.427 89.4725C179.957 89.2969 179.174 88.7505 177.745 88.2236C176.238 88.8286 175.651 89.414 175.847 90.3897C176.043 91.3654 175.455 93.1216 175.847 95.4633C176.238 97.8049 178 99.1709 176.63 103.464C175.925 105.61 174.359 109.513 171.032 113.689Z" fill="#C5B210"/>
<path d="M145.465 92.3404C129.434 95.3065 118.336 99.6581 91.0506 89.9988C77.1339 85.0813 66.5055 77.0416 58.3629 72.0461C55.8184 70.485 52.9215 69.5288 51.5122 68.7287C50.651 68.1433 48.7719 67.5579 48.0086 67.4213C47.9694 67.4213 47.9498 67.4018 47.9107 67.4018C46.0316 66.9529 42.0778 64.3186 37.2236 57.801C34.9335 55.5374 34.2484 53.6445 32.7217 51.5566C31.5864 50.1906 31.2145 50.5614 30.2358 51.6151C36.8908 62.2306 43.8786 69.3141 47.2843 70.0556C48.9285 70.4069 52.8628 71.6948 56.6013 73.9974C64.8222 79.0515 75.8421 87.2473 89.7588 92.8283C101.053 97.3555 112.64 99.6581 124.286 99.6581C125.226 99.6581 126.165 99.6386 127.085 99.6191C138.555 99.2483 148.323 96.7115 154.664 94.8382C162.533 92.4965 171.752 92.4185 171.302 91.3842C164.118 90.0963 156.035 90.389 145.465 92.3404Z" fill="#FFE871"/>
<path d="M180.129 100.908C179.973 100.908 179.797 100.849 179.679 100.732C178.818 99.9711 177.918 98.8588 177.467 98.0002C177.174 97.3953 176.861 96.8879 176.587 96.4391C176.273 95.9122 175.98 95.4634 175.804 94.9756C175.51 94.2731 175.823 93.512 176.097 92.8681C176.254 92.4973 176.43 92.068 176.41 91.8338C176.391 91.5997 176.332 91.346 176.273 91.0923C176.136 90.5069 175.882 89.4336 176.9 89.1409C177.37 89.0043 177.898 88.9458 178.466 88.9458C178.994 88.9458 179.542 89.0043 180.129 89.1019C180.227 89.1214 180.306 89.1605 180.384 89.219C181.637 90.0776 181.676 91.5216 181.558 92.829C181.539 92.9852 181.519 93.1803 181.519 93.3364C181.754 93.5511 181.891 93.8438 182.008 94.1755C182.478 95.4244 182.204 96.4391 182.048 96.8489C182.028 97.3172 181.832 98.3905 180.717 100.557C180.619 100.752 180.443 100.869 180.227 100.908H180.129Z" fill="#7D5C0C"/>
<path d="M178.485 89.6282C178.916 89.6282 179.425 89.6672 180.032 89.7843C180.854 90.3502 181.049 91.2673 180.912 92.7699C180.756 94.5847 180.912 93.1016 181.402 94.4091C181.891 95.7165 181.402 96.7117 181.402 96.7117C181.402 96.7117 181.539 97.5313 180.149 100.224C179.327 99.5022 178.485 98.4484 178.113 97.7069C177.448 96.3995 176.802 95.5604 176.469 94.7408C176.136 93.9212 177.213 92.6918 177.135 91.7747C177.056 90.8575 176.548 89.9599 177.135 89.8038C177.35 89.7257 177.8 89.6282 178.485 89.6282ZM178.485 88.2622C177.859 88.2622 177.252 88.3403 176.743 88.4964C175.98 88.711 175.491 89.355 175.471 90.1746C175.451 90.5453 175.549 90.9161 175.628 91.2673C175.686 91.482 175.725 91.7161 175.745 91.8918C175.725 92.0284 175.588 92.3796 175.491 92.6138C175.177 93.3553 174.786 94.2725 175.177 95.2481C175.393 95.775 175.706 96.2824 176.019 96.8093C176.293 97.2581 176.587 97.7264 176.88 98.3118C177.35 99.2485 178.309 100.439 179.249 101.258C179.503 101.473 179.816 101.59 180.149 101.59C180.227 101.59 180.325 101.59 180.403 101.571C180.815 101.493 181.167 101.239 181.363 100.849C182.4 98.8582 182.733 97.6679 182.772 96.9654C182.968 96.419 183.202 95.2872 182.694 93.9212C182.615 93.7456 182.498 93.3943 182.263 93.1016C182.263 93.0236 182.283 92.9455 182.283 92.887C182.42 91.482 182.361 89.7062 180.815 88.6525C180.658 88.5354 180.482 88.4769 180.286 88.4378C179.64 88.3207 179.033 88.2622 178.485 88.2622Z" fill="#6F520C"/>
<path d="M25.8709 62.1724C25.7339 62.1724 25.6164 62.1334 25.499 62.0749C25.1075 61.8212 24.7552 61.6065 24.8922 61.0992C24.9705 60.8065 25.2445 60.6113 25.5577 60.6113C25.7534 60.6113 25.8317 60.6504 26.2232 60.8845C26.4581 61.0211 26.5951 61.3138 26.556 61.587V61.6065C26.5168 61.8407 26.3602 62.0163 26.1645 62.1139C26.047 62.1529 25.9492 62.1724 25.8709 62.1724Z" fill="#FDC857"/>
<path d="M25.5575 61.2751C25.5575 61.2751 25.6554 61.3142 25.8707 61.4508V61.4703C25.8707 61.4898 25.538 61.2751 25.5575 61.2751ZM25.5575 59.9092C24.9508 59.9092 24.4027 60.319 24.2461 60.8849C24.207 61.041 24.0112 61.8606 24.8333 62.4265C24.8725 62.446 24.9116 62.485 24.9703 62.5045C25.0486 62.5631 25.1465 62.6216 25.1465 62.6216C25.3618 62.7582 25.6163 62.8363 25.8903 62.8363C26.086 62.8363 26.2622 62.7972 26.4384 62.7192C26.8494 62.5435 27.1626 62.1533 27.2409 61.7045V61.6849C27.3387 61.119 27.0843 60.5726 26.5949 60.2799C26.1447 60.0458 25.9294 59.9092 25.5575 59.9092Z" fill="#684A03"/>
<path d="M53.0776 68.1411C50.8046 67.8224 48.9656 67.6032 47.4159 66.5474C43.4072 63.858 33.4682 53.5984 30.3274 49.7337C27.1866 45.8689 25.0997 50.0723 25.0997 50.0723L23.0127 61.4674C23.4673 61.7264 24.4591 62.3041 26.4841 63.5193C31.8359 66.6868 41.1963 72.3261 43.0559 81.5697C44.1718 80.8525 44.3164 79.5561 45.3496 78.6596C48.635 75.9304 51.5898 72.2848 53.0776 68.1411Z" fill="#D6D626"/>
<path d="M25.8707 61.4902V61.4706C25.1465 61.04 25.8707 61.4902 25.8707 61.4902Z" fill="#FDC54E"/>
<path d="M26.2036 59.6162L25.8708 61.47C26.3015 61.7237 27.241 62.2896 29.1592 63.4799C34.2287 66.5826 42.2147 71.6172 43.9763 80.6716C44.7201 80.1838 45.4248 79.6569 46.1294 79.091C39.905 67.2461 36.1274 65.4508 26.2036 59.6162Z" fill="#BFBF29"/>
<path d="M50.3349 66.0016C46.2642 63.345 36.1712 53.2109 32.9817 49.3933L32.7299 49.0981L31.0303 49.6295C38.7941 61.4363 45.2989 67.5365 48.8661 68.3236C49.7684 68.5204 51.6778 69.5436 54.3847 71.0785C55.0562 69.9569 55.6437 68.7958 56.0843 67.5758C53.7762 67.261 51.9087 67.0445 50.3349 66.0016Z" fill="#DBDB43"/>
<path d="M51.5122 68.7287C50.651 68.1433 48.7719 67.5579 48.0086 67.4213C47.9694 67.4213 47.9498 67.4018 47.9107 67.4018C46.0316 66.9529 42.0778 64.3186 37.2236 57.801C34.9335 55.5374 34.2484 53.6445 32.7217 51.5566C31.5864 50.1906 31.2145 50.5614 30.2358 51.6151C36.8908 62.2306 43.8786 69.3141 47.2843 70.0556C48.3217 70.2898 50.2791 70.8752 52.5105 71.8704C52.9215 71.1679 53.313 70.4654 53.6457 69.7239C52.7845 69.3532 52.0603 69.0214 51.5122 68.7287Z" fill="#F1F153"/>
<path d="M96.4723 158.278C88.5646 158.278 80.6569 156.951 72.9841 154.336C65.4679 151.78 58.1474 147.975 51.2184 143.018C37.0864 132.91 27.6324 123.407 22.328 113.943C17.4737 105.278 16.2602 96.8875 18.5894 88.3014C22.9739 73.3538 21.408 66.4069 20.0183 63.5579C19.3136 62.8749 19.2353 61.5675 19.0983 59.6551C19.0592 58.9527 19.0005 58.1331 18.9026 57.294C18.8439 56.7281 19.0005 56.2012 19.3724 55.7914C20.0966 54.9913 21.6037 54.6011 23.9526 54.6011C25.9686 54.6011 27.8477 54.8938 27.9455 54.8938C28.0826 54.9133 28.2196 54.9914 28.3174 55.0889C28.4349 55.206 31.1556 57.977 31.1556 62.4847C31.1556 71.7927 32.5453 78.5055 34.8746 80.3983C38.2999 83.1888 42.1559 86.8184 50.8074 96.2631C65.4875 112.323 87.5664 120.987 100.876 120.987C102.149 120.987 103.303 120.909 104.36 120.753C112.66 119.484 119.628 118.723 127.007 117.904C130.139 117.553 133.388 117.201 136.735 116.792C137.009 116.753 137.283 116.733 137.577 116.733C142.431 116.733 145.739 122.392 146.091 125.28V125.319C146.189 126.783 145.641 131.446 143.233 136.481C141.022 141.106 136.559 147.428 127.868 151.331C117.573 155.936 107.022 158.278 96.4723 158.278Z" fill="#FFCE51"/>
<path d="M34.9728 81.3548C34.7966 81.1987 34.6205 81.0621 34.4443 80.9255C30.8036 77.9594 30.4905 66.778 30.4905 62.485C30.4905 58.192 27.848 55.5771 27.848 55.5771C27.848 55.5771 19.2553 54.2697 19.588 57.2163C19.9208 60.1824 19.7446 62.485 20.5863 63.1485C21.4475 64.8657 22.9351 69.0416 21.6824 77.7643C23.718 79.2864 26.0473 80.8085 28.2395 81.4329C30.4709 81.9988 32.7218 81.628 34.9728 81.3548Z" fill="#DBDB39"/>
<path d="M145.268 126.536C145.189 125.829 144.893 124.944 144.459 124.001C138.48 130.703 130.941 137.895 106.075 141.04C64.7511 146.267 39.7671 114.312 31.6759 102.521C24.532 92.1053 26.7422 74.6147 23.5847 59.0894L18.5721 59.4234C18.73 61.6638 18.7497 63.3343 19.4404 63.8649C20.6048 66.1839 22.9335 72.9836 18.1182 89.3933C13.7963 105.312 21.4534 122.861 50.7395 143.771C73.3356 159.906 100.411 164.112 127.31 152.065C143.551 144.774 145.426 128.855 145.268 126.536Z" fill="#FFBE33"/>
<path d="M23.6938 58.3867L18.7222 58.7184C18.8788 60.943 18.8983 62.6017 19.5834 63.1286C20.4838 64.9238 22.0888 69.451 20.4642 79.1104C22.2062 80.2422 24.2615 80.691 26.1992 81.452C25.4946 74.0173 25.2401 65.9581 23.6938 58.3867Z" fill="#C9C931"/>
<path d="M106.513 138.393C68.991 143.135 44.6808 117.065 33.6022 100.907C29.2177 94.5067 28.4935 85.1206 27.7497 75.2076C27.3191 69.5876 26.8885 63.7725 25.7532 58.172L25.5575 57.2549L24.892 57.2939C24.5984 58.094 24.2461 58.855 23.698 59.5185H23.8154C24.7941 64.6896 25.2052 70.1145 25.5966 75.3637C26.3796 85.5889 27.1038 95.2483 31.821 102.117C38.9066 112.459 47.4994 121.358 56.6206 127.836C71.9466 138.706 88.819 143.564 106.69 141.301C123.856 139.135 128.808 136.422 135.854 131.544C137.616 130.178 138.79 129.027 139.377 127.895C139.651 127.388 139.005 126.88 138.555 127.231C132.742 132.11 124.149 136.169 106.513 138.393Z" fill="#FFE871"/>
<path d="M27.7695 75.2076C27.3389 69.5876 26.9083 63.7725 25.773 58.172L25.5773 57.2549L24.9118 57.2939C24.6182 58.094 24.2658 58.855 23.7178 59.5185H23.8352C24.8139 64.6896 25.2249 70.1145 25.6164 75.3637C25.7534 77.2565 25.91 79.1299 26.0666 80.9642C26.7908 81.1203 27.5346 81.2764 28.2784 81.4325C28.0827 79.3835 27.9261 77.3151 27.7695 75.2076Z" fill="#EBEB5A"/>
<path d="M146.408 125.358C146.095 122.665 142.865 117.221 138.344 117.416C137.835 118.45 137.326 119.465 137.482 120.05C137.678 120.831 139.694 124.499 143.159 127.465C144.529 128.636 144.333 132.344 140.81 140.891C145.762 134.061 146.506 126.86 146.408 125.358Z" fill="#C5B210"/>
<path d="M126.087 117.665C119.158 118.426 112.347 119.207 104.458 120.397C92.5773 122.212 67.1905 114.153 50.2986 95.7123C42.1365 86.775 38.0847 82.8723 34.4441 79.9062C30.8034 76.9401 30.4902 65.7586 30.4902 61.4656C30.4902 57.7385 28.4742 55.2602 27.9653 54.6748L26.8691 54.8309C28.8265 71.2225 29.5507 80.433 34.5028 86.2481C41.1578 94.0537 57.5408 116.026 93.2233 123.52C100.642 125.1 112.386 123.734 126.087 117.665Z" fill="#EEB135"/>
<path d="M30.9662 62.9149C30.9662 59.1703 28.7699 56.6804 28.2156 56.0923L27.0215 56.2491C28.5567 68.1494 29.3883 76.2659 31.7764 82.0691C32.9065 81.9122 33.9727 81.5593 35.0388 81.226C31.3073 77.9716 30.9662 67.1104 30.9662 62.9149Z" fill="#C6C632"/>
<path d="M145.367 126.646C145.328 126.646 145.289 126.646 145.249 126.627C143.39 126.295 141.393 124.578 140.415 123.738C140.297 123.641 140.199 123.563 140.121 123.485C140.082 123.446 136.696 120.382 137.655 119.055C137.772 118.88 137.811 118.743 137.909 118.314C137.968 118.06 138.046 117.767 138.164 117.357C138.242 117.065 138.516 116.87 138.829 116.87C138.888 116.87 138.927 116.87 138.986 116.889C143.155 117.884 145.778 122.802 146.071 125.28V125.319C146.091 125.514 146.071 125.768 146.032 126.041C146.013 126.236 145.915 126.392 145.758 126.509C145.66 126.607 145.523 126.646 145.367 126.646Z" fill="#7D5C0C"/>
<path d="M138.849 117.553C142.568 118.431 145.132 122.978 145.406 125.359C145.425 125.495 145.406 125.71 145.386 125.963C143.488 125.632 141.217 123.485 140.591 122.978C139.886 122.392 137.831 120.051 138.242 119.465C138.555 119.017 138.516 118.704 138.849 117.553ZM138.849 116.187C138.242 116.187 137.713 116.577 137.537 117.182C137.42 117.612 137.342 117.943 137.283 118.177C137.185 118.568 137.165 118.626 137.126 118.685C136.265 119.875 137.42 121.397 137.909 122.061C138.477 122.822 139.24 123.641 139.729 124.051C139.808 124.11 139.886 124.188 140.004 124.285C141.021 125.163 143.116 126.978 145.171 127.329C145.249 127.349 145.328 127.349 145.406 127.349C145.699 127.349 145.993 127.251 146.228 127.076C146.521 126.842 146.717 126.51 146.776 126.139C146.815 125.807 146.815 125.515 146.815 125.28V125.222C146.639 123.7 145.778 121.748 144.564 120.109C143.507 118.685 141.726 116.85 139.201 116.246C139.064 116.207 138.947 116.187 138.849 116.187Z" fill="#6F520C"/>
<path d="M21.1929 65.1187C20.7427 65.1187 20.4687 64.8065 20.0576 64.2991C19.9598 64.182 19.8619 64.065 19.7249 63.9089C18.3743 62.3478 18.2373 55.7131 18.2373 52.9226C18.2373 52.864 18.2373 52.8055 18.2569 52.7274C19.6074 48.0441 21.9171 45.0585 22.015 44.9219C22.0541 44.8634 22.1129 44.8244 22.1716 44.7853C23.5026 43.8487 26.7126 41.7021 27.7892 41.7021H27.9262C28.8657 41.8192 32.0562 44.317 33.8961 45.8L33.9157 45.8196C36.3624 48.0246 37.5368 49.5467 37.4389 50.3663C37.3214 51.342 36.4798 53.0397 36.3819 53.2153C36.2645 53.4495 36.0296 53.5861 35.7751 53.5861C35.6969 53.5861 35.6186 53.5665 35.5403 53.547L33.8374 52.9226C33.7199 54.8935 32.8587 57.762 31.5668 58.7377C30.5686 59.4792 28.8853 60.7476 27.2215 60.7476C26.7518 60.7476 26.3212 60.65 25.9101 60.4744C24.9706 60.0451 24.1681 59.9085 23.6983 59.889L23.4047 60.6305C23.5026 60.7476 23.5613 60.8647 23.62 61.0208C23.7962 61.5477 23.6396 62.1916 23.1307 62.8941C22.7392 63.4405 22.4848 63.8698 22.289 64.2016C21.9758 64.6894 21.7214 65.1187 21.1929 65.1187Z" fill="#D6782B"/>
<path d="M27.7888 42.3855H27.8475C28.7283 42.5026 33.4651 46.3273 33.4651 46.3273C33.4651 46.3273 36.8709 49.3909 36.773 50.2691C36.6555 51.1472 35.7747 52.9034 35.7747 52.9034L33.1323 51.9082C33.3476 53.4498 32.4668 57.1769 31.1554 58.1722C30.0984 58.9722 28.6108 60.0455 27.2211 60.0455C26.8688 60.0455 26.5361 59.9869 26.2033 59.8308C24.9115 59.2259 23.8349 59.1674 23.4043 59.1674H23.2281L22.5626 60.8065C22.5626 60.8065 23.5413 61.0992 22.5626 62.4457C21.6231 63.7531 21.447 64.3971 21.1925 64.3971C21.0163 64.3971 20.801 64.0653 20.253 63.4409C18.9415 61.8993 18.9415 53.4498 18.9415 52.9034C20.253 48.2982 22.5822 45.3321 22.5822 45.3321C22.5822 45.3321 26.8101 42.3855 27.7888 42.3855ZM27.7888 41.0195C27.2994 41.0195 26.5752 41.1561 24.0698 42.7172C22.8758 43.4587 21.7993 44.2003 21.7601 44.2393C21.6427 44.3173 21.5448 44.4149 21.4665 44.5125C21.3687 44.6491 18.9807 47.7323 17.591 52.5522C17.5518 52.6693 17.5323 52.8059 17.5323 52.9229C17.5323 53.5279 17.5518 55.6744 17.7084 57.9185C18.0216 62.4652 18.6675 63.7336 19.196 64.358C19.3134 64.4946 19.4309 64.6312 19.5092 64.7288C19.9594 65.2752 20.39 65.7825 21.1729 65.7825C22.0929 65.7825 22.5235 65.08 22.8562 64.5141C23.0324 64.2019 23.2869 63.7921 23.6588 63.2653C24.3047 62.3676 24.5004 61.5285 24.2264 60.7675C24.2068 60.7089 24.1872 60.6699 24.1677 60.6114C24.5591 60.6894 25.0485 60.826 25.5965 61.0602C26.0859 61.2944 26.6339 61.4114 27.182 61.4114C28.9436 61.4114 30.5682 60.2992 31.9383 59.2649C33.0149 58.4649 33.6608 56.8452 33.9936 55.6354C34.1501 55.1085 34.2872 54.5036 34.385 53.8596L35.2658 54.1913C35.4224 54.2499 35.579 54.2694 35.7552 54.2694C36.2641 54.2694 36.7338 53.9962 36.9883 53.5084C37.1449 53.1766 37.9865 51.4984 38.1236 50.4252C38.2214 49.5666 37.6929 48.6299 36.1466 47.0103C35.2854 46.1126 34.4242 45.3321 34.385 45.293C34.3655 45.2735 34.3459 45.254 34.3263 45.254C29.2959 41.1561 28.3564 41.0585 28.0236 41C27.9454 41.039 27.8671 41.0195 27.7888 41.0195Z" fill="#B4601B"/>
<path d="M19.9984 49.918C19.6069 50.8156 19.2351 51.8108 18.9219 52.9231C18.9219 53.4695 18.9219 61.919 20.2333 63.4605C20.9967 64.3387 21.1141 64.6314 21.3881 64.2801C19.0197 61.314 19.9593 54.7184 19.9984 49.918Z" fill="#AF5B0E"/>
<path d="M24.4417 44.103C23.4043 44.7665 22.5627 45.3519 22.5627 45.3519C22.5627 45.3519 22.4061 45.5471 22.1516 45.9373C22.5431 47.0106 23.0324 48.0448 23.1499 49.2156C23.2869 52.4354 22.2103 56.5724 22.9346 59.9287L23.2282 59.1872C23.2282 59.1872 24.5396 59.0701 26.2033 59.8507C27.8671 60.6312 29.844 59.1872 31.1554 58.2115C31.9384 57.6261 32.5647 56.104 32.8975 54.621C31.6056 53.9575 30.0593 53.4892 28.6304 53.1379C25.3812 52.2598 25.1072 47.7131 24.4417 44.103Z" fill="#F0842A"/>
<path d="M31.1554 58.1918C32.4669 57.1966 33.3672 53.4694 33.1324 51.9278L35.7748 52.923C35.7748 52.923 36.6556 51.1668 36.773 50.2887C36.7926 50.1326 36.6947 49.8984 36.5382 49.6447C35.5791 49.3715 34.7961 49.274 33.7196 49.6057C31.7622 50.1911 30.5878 50.2496 30.9793 52.7474C31.1946 54.0939 30.6074 56.7477 30.0593 58.9723C30.4508 58.7186 30.8227 58.4454 31.1554 58.1918Z" fill="#8C5D04"/>
<path d="M29.5895 111.074C29.0023 111.269 29.981 112.05 30.5682 111.464C31.1554 110.879 29.5895 111.074 29.5895 111.074Z" fill="#53380A"/>
<path d="M37.4194 126.685C36.8322 126.88 37.2236 127.661 37.8109 127.075C38.3981 126.49 37.4194 126.685 37.4194 126.685Z" fill="#53380A"/>
<path d="M41.9211 121.612C41.3339 121.807 41.7254 122.197 42.3126 121.612C42.8998 121.026 41.9211 121.612 41.9211 121.612Z" fill="#53380A"/>
<path d="M62.0818 137.223C61.4946 137.418 61.6904 138.198 62.2776 137.613C62.8648 137.027 62.0818 137.223 62.0818 137.223Z" fill="#53380A"/>
<path d="M63.0606 138.588C62.4734 138.783 63.0606 138.978 63.6478 138.393C64.235 137.808 63.0606 138.588 63.0606 138.588Z" fill="#53380A"/>
<path d="M128.436 144.637C128.827 145.418 128.827 144.833 128.632 144.442C128.26 143.701 128.436 144.637 128.436 144.637Z" fill="#53380A"/>
<path d="M145.387 115.641C145.269 116.245 146.091 116.363 145.856 115.562C145.641 114.762 145.387 115.641 145.387 115.641Z" fill="#53380A"/>
<path d="M166.409 113.22C165.821 113.415 166.017 114.001 166.604 113.415C167.191 112.83 166.409 113.22 166.409 113.22Z" fill="#53380A"/>
<path d="M40.355 103.268C39.7678 103.464 40.355 103.854 40.9422 103.268C41.5295 102.683 40.355 103.268 40.355 103.268Z" fill="#53380A"/>
<path d="M60.7117 89.0232C60.1245 89.4135 59.733 90.194 60.9075 89.2183C64.0001 86.662 60.7117 89.0232 60.7117 89.0232Z" fill="#53380A"/>
<path d="M82.0464 99.561C81.4592 99.7561 81.655 100.537 82.2422 99.9513C82.8294 99.3659 82.0464 99.561 82.0464 99.561Z" fill="#53380A"/>
<path d="M72.2596 80.8275C71.6724 81.0232 72.4554 81.2189 72.4554 80.8275C72.4554 80.7883 72.2596 80.8275 72.2596 80.8275Z" fill="#53380A"/>
<path d="M75.1959 80.2427C74.6087 80.4378 74.8044 81.0232 75.3916 80.4378C75.9788 79.8524 75.1959 80.2427 75.1959 80.2427Z" fill="#53380A"/>
<path d="M136.265 88.2427C135.678 88.4378 136.265 89.6086 136.852 89.0232C137.44 88.4378 136.265 88.2427 136.265 88.2427Z" fill="#53380A"/>
<path d="M139.593 89.0236C139.358 89.5895 139.984 89.8822 139.906 89.0431C139.828 88.204 139.593 89.0236 139.593 89.0236Z" fill="#53380A"/>
<path d="M147.814 85.3159C147.755 85.9403 148.401 85.9794 148.088 85.2183C147.794 84.4378 147.814 85.3159 147.814 85.3159Z" fill="#53380A"/>
<path d="M158.774 66.9731C158.187 67.1683 158.774 68.3391 159.362 67.7537C159.949 67.1683 158.774 66.9731 158.774 66.9731Z" fill="#53380A"/>
<path d="M81.8506 84.145C81.2634 84.3402 80.872 85.511 81.4592 84.9256C82.0464 84.3402 81.8506 84.145 81.8506 84.145Z" fill="#53380A"/>
</svg>
