<svg width="200" height="200" viewBox="0 0 200 200" fill="none" xmlns="http://www.w3.org/2000/svg">
<path d="M174.823 109.767C174.86 109.509 174.897 109.288 174.933 109.029C175.191 106.447 174.676 103.938 173.793 101.43C173.462 100.544 173.094 99.6591 172.689 98.7737C171.034 95.0845 166.804 88.7392 165.774 88.1859C165.332 87.9276 157.165 88.7761 156.65 88.5917H156.614C142.377 82.8366 124.204 80.5494 110.152 74.8681C109.269 74.4992 108.386 74.1303 107.54 73.7614C106.657 73.3556 105.774 72.9129 104.891 72.4702C94.2966 66.9734 88.3371 63.0629 80.8694 60.0378C78.3311 59.0049 75.6456 58.0826 72.5555 57.2341C60.1216 53.8401 49.4534 56.3118 43.0525 68.449C42.9789 68.5597 42.9053 68.7073 42.8685 68.8179L27.1605 84.3492C22.5989 93.24 27.7491 100.95 29.8827 107.037C30.0299 107.443 30.1403 107.849 30.2506 108.218C32.0164 114.416 40.9556 119.47 48.0555 122.901C48.4969 123.122 48.9384 123.306 49.3798 123.528C50.7409 124.118 52.2124 124.708 53.7574 125.225C54.1253 125.372 54.53 125.483 54.8978 125.631C55.045 125.667 55.1553 125.741 55.3025 125.778C56.1118 126.036 56.9211 126.295 57.7304 126.59C58.2822 126.774 58.834 126.922 59.3858 127.106C59.6801 127.18 59.9376 127.291 60.2319 127.364C60.8573 127.549 61.5195 127.77 62.1816 127.955C62.2184 127.955 62.2552 127.992 62.292 127.992C62.3656 128.028 62.4391 128.028 62.5495 128.065C62.6599 128.102 62.7334 128.139 62.8438 128.176C62.9542 128.213 63.0645 128.25 63.1749 128.287C63.322 128.324 63.4324 128.36 63.5795 128.397C63.7635 128.471 63.9842 128.508 64.2049 128.582C64.2785 128.619 64.3889 128.656 64.4992 128.656C64.7567 128.729 64.9774 128.803 65.2349 128.877C65.3085 128.914 65.3821 128.914 65.4557 128.951C65.5292 128.951 65.566 128.988 65.6396 129.025C66.0443 129.135 66.4121 129.283 66.8168 129.393C66.8168 129.393 66.8168 129.393 66.8536 129.393C67.5893 129.615 68.325 129.873 69.0608 130.094C69.0976 130.094 69.0976 130.094 69.1344 130.131C69.2815 130.168 69.4654 130.242 69.6126 130.279C69.8333 130.353 70.054 130.426 70.2748 130.5C70.6426 130.611 70.9737 130.722 71.3416 130.832H71.3784C73.6224 131.607 75.9031 132.419 78.1104 133.304C78.515 133.488 78.9197 133.636 79.3611 133.82C79.7658 134.005 80.2072 134.189 80.6119 134.337C88.7418 137.915 95.6577 142.379 102.095 146.068C102.868 146.511 103.64 146.917 104.376 147.323C104.744 147.544 105.112 147.728 105.517 147.913C105.884 148.097 106.252 148.319 106.62 148.503C108.423 149.425 110.225 150.237 111.991 150.901C112.212 150.975 112.396 151.049 112.616 151.122C112.984 151.27 113.352 151.381 113.72 151.491C114.088 151.602 114.456 151.75 114.824 151.86C115.192 151.971 115.523 152.082 115.891 152.192C115.927 152.192 115.964 152.229 116.001 152.229C116.185 152.266 116.369 152.34 116.553 152.377C116.7 152.414 116.847 152.45 116.994 152.487C117.325 152.561 117.619 152.672 117.951 152.746C118.098 152.783 118.245 152.819 118.355 152.856C118.539 152.893 118.723 152.93 118.87 152.967C119.054 153.004 119.275 153.041 119.459 153.078C119.606 153.115 119.716 153.151 119.863 153.151C120.047 153.188 120.231 153.225 120.415 153.262C120.599 153.299 120.746 153.336 120.93 153.373C121.041 153.41 121.151 153.41 121.298 153.447C121.556 153.483 121.776 153.52 122.034 153.557C122.107 153.557 122.218 153.594 122.291 153.594C122.475 153.631 122.659 153.631 122.843 153.668C122.99 153.705 123.174 153.705 123.321 153.742C123.505 153.779 123.689 153.779 123.873 153.815C124.02 153.815 124.168 153.852 124.351 153.852C124.425 153.852 124.499 153.852 124.609 153.889C124.867 153.926 125.087 153.926 125.345 153.926C125.382 153.926 125.455 153.926 125.492 153.926C125.749 153.926 126.007 153.963 126.264 153.963C126.706 154 127.147 154 127.589 154C127.626 154 127.662 154 127.699 154C127.809 154 127.92 154 128.067 154C128.324 154 128.582 154 128.839 153.963C128.876 153.963 128.913 153.963 128.913 153.963C129.502 153.926 130.053 153.889 130.605 153.852C130.9 153.815 131.157 153.779 131.415 153.779C131.672 153.742 131.966 153.705 132.224 153.668C132.481 153.631 132.702 153.594 132.923 153.557C132.96 153.557 132.996 153.557 133.033 153.52C133.217 153.483 133.401 153.447 133.622 153.41C133.99 153.336 134.358 153.262 134.725 153.188C134.873 153.151 135.056 153.115 135.204 153.078C135.277 153.078 135.351 153.041 135.424 153.004C135.461 153.004 135.461 153.004 135.498 152.967C135.682 152.93 135.866 152.856 136.05 152.819C136.087 152.819 136.123 152.783 136.16 152.783C136.381 152.709 136.602 152.635 136.822 152.561C136.859 152.561 136.859 152.561 136.896 152.561C137.153 152.487 137.374 152.414 137.595 152.303C137.779 152.229 137.999 152.155 138.183 152.082C138.367 152.008 138.514 151.971 138.662 151.897C138.698 151.897 138.698 151.897 138.735 151.86C138.772 151.86 138.809 151.823 138.846 151.823C138.993 151.75 139.103 151.713 139.25 151.639C139.434 151.565 139.581 151.491 139.728 151.418C139.912 151.344 140.096 151.233 140.317 151.159L140.427 151.086C140.575 151.012 140.722 150.938 140.906 150.827C141.163 150.68 141.457 150.532 141.715 150.385C144.29 148.909 146.608 147.027 148.704 144.814C149.146 144.334 149.587 143.855 149.992 143.338C151.537 141.494 152.898 139.465 154.149 137.251C154.259 137.03 154.406 136.809 154.517 136.587C154.811 136.071 155.105 135.554 155.473 135.075C155.988 134.3 156.614 133.562 157.313 132.787C157.938 132.086 158.6 131.422 159.299 130.722C159.63 130.389 159.998 130.057 160.329 129.725C161.617 128.471 163.015 127.217 164.376 125.889C165.001 125.299 165.626 124.671 166.252 124.044C168.974 121.314 171.549 118.363 173.168 115.006C173.977 113.346 174.566 111.612 174.823 109.767Z" fill="#E29276"/>
<path d="M44.2298 113.64C43.7884 113.419 43.3102 113.235 42.9055 113.014C43.3102 113.272 43.7516 113.456 44.2298 113.64Z" fill="#FFDDCF"/>
<path d="M56.9948 118.104C57.2891 118.178 57.5466 118.289 57.8409 118.363C57.5834 118.252 57.2891 118.178 56.9948 118.104ZM169.489 100.729C169.526 100.47 169.6 100.175 169.636 99.917C169.673 99.6588 169.71 99.4374 169.747 99.1792C170.078 95.6745 169.048 92.2805 166.657 89.1079C166.289 88.6283 165.884 88.1487 165.443 87.6691C162.757 84.7178 158.821 81.9878 153.708 79.7006C153.45 79.5899 153.193 79.4792 152.935 79.3686C152.457 79.1472 151.979 78.9627 151.5 78.7783H151.464C150.213 78.2618 148.925 77.7822 147.601 77.3395C134.027 72.6174 117.804 70.2564 105.039 65.0916C104.855 65.0178 104.671 64.9441 104.523 64.8703C103.825 64.5751 103.126 64.28 102.427 63.948C101.544 63.5422 100.661 63.0995 99.778 62.6568C89.1834 57.16 83.2239 53.2495 75.7561 50.2244C73.2179 49.1915 70.5324 48.2692 67.4423 47.4207C54.9716 43.9898 44.3034 46.4246 37.9024 58.5619C37.8289 58.6725 37.7553 58.8201 37.7185 58.9308L29.3311 75.2367C24.4384 84.7178 24.2545 90.9155 26.0203 97.1502C26.8664 100.138 29.1839 103.163 32.1269 105.856C33.8191 107.406 35.732 108.845 37.7185 110.136C39.0428 110.984 40.3672 111.759 41.6915 112.423C42.0961 112.644 42.5008 112.829 42.8687 113.013C43.3101 113.235 43.7516 113.419 44.193 113.641C45.5541 114.231 47.0256 114.821 48.5706 115.338C49.0857 115.522 49.6007 115.706 50.1157 115.891C50.925 116.149 51.7343 116.407 52.5436 116.703C53.0954 116.887 53.6472 117.035 54.199 117.219C54.4933 117.293 54.7508 117.403 55.0451 117.477C55.6705 117.662 56.3327 117.883 56.9948 118.068C57.2891 118.141 57.5834 118.252 57.8409 118.326C57.8777 118.326 57.9145 118.363 57.9881 118.363C58.0984 118.4 58.2456 118.436 58.3559 118.473C58.5767 118.547 58.7974 118.621 58.9813 118.658C59.0917 118.695 59.1653 118.732 59.2756 118.732C59.5331 118.805 59.7539 118.879 60.0114 118.953C60.0849 118.99 60.1585 118.99 60.2321 119.027C60.3057 119.027 60.3424 119.064 60.416 119.1C60.8207 119.211 61.1885 119.322 61.5932 119.469C61.5932 119.469 61.5932 119.469 61.63 119.469C61.9611 119.58 62.2921 119.691 62.66 119.801C63.0647 119.912 63.4325 120.06 63.8372 120.17C63.874 120.17 63.874 120.17 63.9108 120.207C64.2786 120.318 64.6465 120.429 65.0144 120.576C65.3822 120.687 65.7501 120.834 66.118 120.945H66.1548C67.3687 121.351 68.5827 121.757 69.7599 122.199C70.7899 122.568 71.8567 122.974 72.8868 123.417C73.2914 123.601 73.6961 123.749 74.1375 123.933C74.5422 124.118 74.9836 124.302 75.3883 124.45C78.8095 125.962 82.0099 127.622 85.0632 129.319C89.2569 131.644 93.1563 134.041 96.8718 136.181C97.6443 136.624 98.4169 137.03 99.1526 137.435C99.5205 137.657 99.8884 137.841 100.293 138.026C100.661 138.21 101.029 138.432 101.397 138.616C103.42 139.649 105.406 140.534 107.393 141.235C107.761 141.383 108.129 141.493 108.496 141.604C108.864 141.715 109.232 141.862 109.6 141.973C109.968 142.084 110.299 142.194 110.667 142.305C110.704 142.305 110.74 142.342 110.777 142.342C111.108 142.453 111.439 142.526 111.771 142.637C112.102 142.711 112.396 142.822 112.727 142.895C112.874 142.932 113.021 142.969 113.132 143.006C113.316 143.043 113.5 143.08 113.647 143.117C113.831 143.154 114.051 143.19 114.235 143.227C114.382 143.264 114.493 143.301 114.64 143.301C114.824 143.338 115.008 143.375 115.192 143.412C115.376 143.449 115.523 143.486 115.707 143.522C115.817 143.559 115.927 143.559 116.075 143.596C116.332 143.633 116.553 143.67 116.81 143.707C116.884 143.707 116.994 143.744 117.068 143.744C117.252 143.781 117.436 143.781 117.62 143.818C117.767 143.855 117.951 143.855 118.098 143.891C118.282 143.928 118.466 143.928 118.65 143.965C118.797 143.965 118.944 144.002 119.128 144.002C119.201 144.002 119.275 144.039 119.385 144.039C119.643 144.076 119.864 144.076 120.121 144.076C120.158 144.076 120.232 144.076 120.268 144.076C120.526 144.076 120.783 144.113 121.041 144.113C121.629 144.15 122.218 144.15 122.807 144.15C123.064 144.15 123.322 144.15 123.579 144.113C123.616 144.113 123.653 144.113 123.653 144.113C124.241 144.076 124.793 144.039 125.345 144.002C125.639 143.965 125.897 143.928 126.154 143.928C126.412 143.891 126.706 143.855 126.964 143.818C127.221 143.781 127.442 143.744 127.662 143.707C127.699 143.707 127.736 143.707 127.773 143.67L128.361 143.559C128.729 143.486 129.097 143.412 129.465 143.338C129.612 143.301 129.796 143.264 129.943 143.227C130.017 143.227 130.09 143.19 130.164 143.154C130.385 143.08 130.569 143.043 130.789 142.969C130.826 142.969 130.863 142.932 130.9 142.932C131.12 142.858 131.341 142.785 131.562 142.711C131.599 142.711 131.599 142.711 131.635 142.711C131.893 142.637 132.114 142.563 132.334 142.453C132.518 142.379 132.739 142.305 132.923 142.231C133.107 142.158 133.254 142.121 133.401 142.047C133.475 142.047 133.512 142.01 133.548 141.973C133.696 141.899 133.806 141.862 133.953 141.789C134.137 141.715 134.284 141.641 134.431 141.567C134.615 141.493 134.799 141.383 135.02 141.309C135.057 141.272 135.093 141.272 135.13 141.235C135.277 141.161 135.461 141.088 135.608 140.977C135.866 140.829 136.16 140.682 136.418 140.534C138.993 139.059 141.31 137.177 143.407 134.964C143.849 134.484 144.29 134.005 144.695 133.488C146.24 131.644 147.601 129.614 148.852 127.401C148.962 127.18 149.109 126.958 149.22 126.737C149.514 126.22 149.808 125.704 150.176 125.224C150.691 124.45 151.316 123.712 152.015 122.937C152.714 122.126 153.524 121.351 154.333 120.539C155.804 119.064 157.46 117.588 159.078 116.038C160.072 115.079 161.065 114.12 162.021 113.124C165.553 109.472 168.533 105.488 169.489 100.729Z" fill="#FFDFCA"/>
<path d="M173.168 114.969C169.195 117.183 163.566 114.416 162.132 113.051L160.587 109.103L169.489 100.692C169.489 100.692 170.666 101.541 172.984 101.467C173.315 101.467 173.572 101.43 173.793 101.43C174.676 103.902 175.191 106.447 174.934 109.03C174.897 109.288 174.86 109.509 174.823 109.767C174.566 111.612 173.977 113.346 173.168 114.969Z" fill="#C62C2C"/>
<path d="M165.48 100.138C164.964 102.241 164.008 104.307 162.5 106.484C161.507 107.922 160.329 109.287 159.152 110.542C157.497 108.107 156.393 105.525 154.48 103.164C154.443 103.127 154.407 103.053 154.37 103.016C156.172 103.164 157.901 102.795 159.594 102.167C161.396 101.503 163.309 100.323 165.48 100.138Z" fill="#E25A5A"/>
<path d="M165.81 98.183C165.81 98.2199 165.81 98.2937 165.81 98.3306C161.065 98.4413 157.46 102.721 152.53 100.839C152.273 100.729 152.052 100.729 151.868 100.729C149.882 99.3266 147.417 98.2937 144.732 97.851C140.244 97.0763 135.903 97.1869 131.783 95.1948C128.803 93.7561 126.081 91.4688 124.609 88.9971C127.773 87.5952 130.642 87.6321 135.13 87.005C141.163 86.1933 138.735 77.0812 149.33 80.8441C149.735 80.9917 150.102 81.1392 150.47 81.2868C150.912 81.4713 151.353 81.6557 151.795 81.8402C157.166 84.1274 161.065 86.8943 163.419 89.9931C165.295 92.5755 166.105 95.3055 165.81 98.183Z" fill="#DD3333"/>
<path d="M152.273 103.717C150.912 102.241 149.109 100.913 146.902 100.175C144.695 99.4742 142.34 99.3635 140.06 99.1053C135.756 98.6626 131.746 97.6296 128.325 95.3424C126.081 93.8298 124.02 92.0222 122.696 90.03C122.071 90.3989 121.409 90.8416 120.71 91.395C116.737 94.3832 112.359 99.4004 105.149 98.8839C99.3365 102.204 98.6743 108.808 101.838 114.12C103.089 114.969 104.229 115.706 105.701 116.444C108.57 117.846 111.623 119.027 114.75 119.986C117.215 120.724 119.422 121.277 121.997 121.166C123.873 121.092 125.639 120.797 127.405 120.465C130.863 119.764 134.284 118.768 137.963 118.695C141.752 118.621 145.136 119.58 148.189 121.498C151.574 123.786 152.751 125.003 153.376 124.376C155.768 122.015 166.436 122.531 157.717 112.128C155.694 109.324 154.627 106.262 152.273 103.717Z" fill="#ED4040"/>
<path d="M146.865 122.789C146.902 122.826 146.976 122.863 147.012 122.863C146.902 123.01 146.828 123.121 146.755 123.232C146.35 123.822 145.982 124.375 145.688 124.966C145.578 125.187 145.431 125.408 145.32 125.63C144.106 127.769 142.782 129.725 141.347 131.422C140.979 131.864 140.575 132.344 140.133 132.823C138.699 134.373 137.154 135.701 135.535 136.808C128.251 140.866 119.422 140.202 115.412 138.763C114.897 138.578 114.456 138.431 114.088 138.32C105.259 135.037 96.1729 128.101 84.7322 122.715C88.3005 118.878 93.9289 115.152 100.918 116.444C102.059 116.665 103.162 117.108 103.493 117.292C104.707 117.919 105.958 118.51 107.246 119.063C109.858 120.207 112.617 121.129 115.376 121.94C119.091 123.01 122.549 123.01 126.228 122.457C133.107 121.387 140.096 118.436 146.865 122.789Z" fill="#DD3333"/>
<path d="M115.045 71.4367C121.188 72.9123 122.292 80.3275 118.503 85.3816C114.714 90.4357 108.055 98.146 92.3839 91.7269C86.6819 89.4027 82.1939 88.5911 78.3681 88.7387C76.7494 87.964 75.278 87.0417 73.9169 85.9718C71.8936 84.3486 70.6428 82.3196 69.3553 80.3644C67.1848 77.081 64.4994 73.8715 60.4161 71.658C54.8245 68.6329 43.7516 68.1533 41.1765 62.7672L42.8319 59.3732C43.6044 57.8607 44.3034 56.385 45.2231 54.9831C50.0789 49.597 56.627 47.8631 65.088 49.7077C72.0775 52.4008 75.6458 57.8607 80.9064 62.0663C83.555 64.1691 86.498 66.1612 90.2134 66.9728C93.8554 67.7844 97.0926 66.4563 100.477 66.0505C101.581 66.567 102.758 67.0835 104.009 67.6C107.65 69.0756 111.513 70.293 115.449 71.4367C115.155 71.4367 115.045 71.4367 115.045 71.4367Z" fill="#ED4040"/>
<path d="M99.4102 114.157C99.447 114.305 99.5205 114.342 99.4838 114.378C99.447 114.415 99.3734 114.452 99.1159 114.415C92.0528 113.899 86.3876 117.699 82.6354 121.683C82.5986 121.683 82.5618 121.646 82.525 121.646C82.3778 121.572 82.2675 121.535 82.1203 121.462C70.79 116.518 58.2456 114.12 50.0054 110.173C44.3034 107.111 43.678 106.226 50.4468 103.016C57.2524 99.8433 61.9979 97.5192 69.9807 92.9077C72.8868 91.2107 75.8666 90.5467 79.067 90.6205C79.1038 90.6574 79.6924 90.6943 80.1339 90.6574C85.3576 91.0632 91.1331 93.3873 98.0859 96.7444C99.5205 97.4454 100.882 97.925 102.132 98.257C97.0558 102.167 96.3569 108.734 99.4102 114.157Z" fill="#ED4040"/>
<path d="M97.7181 64.7227C95.3638 65.1654 93.0462 65.7187 90.5079 65.276C86.5349 64.612 83.0034 61.5131 80.4651 59.2259C77.7429 56.7541 75.3885 54.1349 72.5559 51.9214C73.2916 52.1796 73.9906 52.4379 74.6895 52.733C79.1775 54.5407 83.1873 56.7541 88.2639 59.5579C90.9861 61.1073 94.0762 62.8412 97.7181 64.7227Z" fill="#DD3333"/>
<path d="M68.6561 82.4671C70.3851 85.0864 72.7395 87.2629 75.6824 88.9968C70.2748 89.9191 65.9707 92.7966 60.7469 95.8217C52.0285 100.876 40.3302 103.827 35.9158 99.5109C34.6282 97.8507 33.635 96.1169 33.1568 94.383C31.4278 88.2959 31.6117 82.2826 36.0262 73.2811C37.9023 73.3918 39.7416 73.4287 41.4706 72.9122C44.0825 72.1375 45.1861 70.0716 47.3565 68.928C50.7409 70.1454 54.3828 70.7357 57.7304 72.0268C63.2485 74.1665 66.081 78.5566 68.6561 82.4671Z" fill="#DD3333"/>
<path d="M54.9348 125.63C54.5301 125.483 54.1622 125.372 53.7944 125.224C52.2493 124.671 50.7778 124.118 49.4167 123.527C48.9753 123.343 48.4971 123.121 48.0924 122.9C40.9557 119.469 32.0533 114.415 30.2875 108.217C30.1772 107.812 30.0668 107.443 29.9197 107.037C35.6584 109.877 39.6314 114.415 42.6112 119.174C44.2298 118.067 46.6577 117.92 49.4167 119.654C51.8079 121.203 53.7576 123.417 54.9348 125.63Z" fill="#C62C2C"/>
<path d="M111.954 150.901C110.189 150.237 108.386 149.425 106.584 148.503C106.216 148.318 105.848 148.134 105.48 147.913C105.112 147.728 104.744 147.507 104.34 147.322C103.604 146.917 102.831 146.474 102.059 146.068C95.6211 142.416 88.7052 137.915 80.5752 134.337C80.1706 134.152 79.7659 133.968 79.3245 133.82C78.9198 133.636 78.5152 133.488 78.0737 133.304C75.8297 132.418 73.5857 131.607 71.3417 130.832H71.3049C70.9371 130.721 70.606 130.611 70.2381 130.5C70.0174 130.426 69.7967 130.352 69.576 130.279C69.4288 130.242 69.2449 130.168 69.0977 130.131C69.0609 130.131 69.0609 130.131 69.0242 130.094C68.2884 129.836 67.5527 129.615 66.8169 129.393C66.8169 129.393 66.8169 129.393 66.7802 129.393C66.4123 129.283 66.0076 129.135 65.603 129.024C65.5294 128.987 65.4926 128.987 65.419 128.951C65.3455 128.914 65.2719 128.914 65.1983 128.877C64.9408 128.803 64.7201 128.729 64.4626 128.655C64.3522 128.619 64.2786 128.582 64.1683 128.582C63.9476 128.508 63.7636 128.471 63.5429 128.397C63.3958 128.36 63.2854 128.323 63.1383 128.287C63.0279 128.25 62.9175 128.213 62.8072 128.176C62.6968 128.139 62.6232 128.102 62.5129 128.065C62.4393 128.028 62.3289 128.028 62.2554 127.991C62.3657 127.844 62.5129 127.733 62.6232 127.586C63.2854 126.184 64.7201 125.335 66.7066 125.261C67.8102 124.929 69.2817 124.929 70.8635 125.298C73.0707 125.852 75.0572 126.811 76.8966 127.991C80.4281 130.242 83.2239 133.636 87.1969 135.111C89.3305 135.886 91.6113 136.476 93.7082 137.472C95.989 138.542 97.8651 139.797 99.7044 141.383C102.831 144.076 105.701 146.954 109.821 148.687C111.108 149.204 111.844 150.089 111.954 150.901Z" fill="#C62C2C"/>
<path d="M135.498 152.966C135.461 152.966 135.461 152.966 135.424 153.003C135.351 153.04 135.277 153.04 135.204 153.077C135.057 153.114 134.873 153.151 134.726 153.187C134.358 153.261 133.99 153.372 133.622 153.409C133.438 153.446 133.254 153.483 133.033 153.52C132.997 153.52 132.96 153.52 132.923 153.556C132.702 153.593 132.445 153.63 132.224 153.667C131.967 153.704 131.672 153.741 131.415 153.778C131.157 153.815 130.863 153.852 130.605 153.852C130.054 153.925 129.502 153.962 128.913 153.962C128.876 153.962 128.84 153.962 128.84 153.962C128.582 153.962 128.325 153.962 128.067 153.999C127.957 153.999 127.846 153.999 127.699 153.999C127.662 153.999 127.626 153.999 127.589 153.999C127.147 153.999 126.706 153.999 126.265 153.962C126.007 153.962 125.75 153.925 125.492 153.925C125.455 153.925 125.418 153.925 125.345 153.925C125.087 153.925 124.867 153.888 124.609 153.888C124.536 153.888 124.462 153.888 124.352 153.852C124.204 153.852 124.057 153.815 123.873 153.815C123.689 153.815 123.506 153.778 123.322 153.741C123.174 153.741 122.991 153.704 122.843 153.667C122.659 153.63 122.476 153.63 122.292 153.593C122.218 153.593 122.108 153.556 122.034 153.556C121.777 153.52 121.556 153.483 121.298 153.446C121.188 153.446 121.078 153.409 120.93 153.372C120.747 153.335 120.599 153.298 120.415 153.261C120.232 153.224 120.048 153.187 119.864 153.151C119.716 153.114 119.606 153.114 119.459 153.077C119.275 153.04 119.054 153.003 118.87 152.966C118.686 152.929 118.503 152.892 118.355 152.855C118.208 152.819 118.061 152.782 117.951 152.745C117.62 152.671 117.325 152.597 116.994 152.487C116.847 152.45 116.7 152.413 116.553 152.376C115.376 150.199 114.934 147.912 116.957 146.51C118.834 145.219 122.181 145.071 124.94 146.399C126.706 146.547 128.545 147.027 130.164 147.875C132.334 149.019 134.873 151.048 135.498 152.966Z" fill="#C62C2C"/>
<path d="M162.573 119.469C161.69 118.067 160.844 116.628 159.998 115.226C159.741 115.485 159.483 115.743 159.189 116.001C156.65 118.399 154.112 120.649 152.126 122.9C151.868 123.158 151.647 123.453 151.427 123.711C151.942 124.08 152.494 124.449 153.045 124.781C154.848 125.962 156.503 127.216 158.306 128.397C158.968 128.839 159.667 129.245 160.366 129.688C161.654 128.433 163.051 127.179 164.413 125.851C165.038 125.261 165.663 124.634 166.289 124.006C164.928 122.531 163.824 120.981 162.573 119.469Z" fill="#AA2929"/>
<path d="M157.865 129.098C154.627 125.852 144.805 121.535 143.554 121.203C144.658 121.572 145.762 122.089 146.865 122.79C146.902 122.827 146.976 122.863 147.012 122.863C146.902 123.011 146.828 123.122 146.755 123.232C146.35 123.823 145.982 124.376 145.688 124.966C145.578 125.188 145.431 125.409 145.32 125.63C144.106 127.77 142.782 129.725 141.347 131.422C140.979 131.865 140.575 132.345 140.133 132.824C138.699 134.374 137.154 135.702 135.535 136.808C135.204 136.993 134.873 137.177 134.505 137.325C134.1 139.797 134.689 142.637 135.498 145.146C136.16 147.249 137.227 149.647 138.735 151.823C138.772 151.823 138.809 151.786 138.846 151.786C138.993 151.712 139.103 151.676 139.25 151.602C139.434 151.528 139.581 151.454 139.729 151.38C139.913 151.307 140.096 151.196 140.317 151.122L140.428 151.048C140.575 150.975 140.722 150.901 140.906 150.79C141.163 150.643 141.458 150.495 141.715 150.347C144.29 148.872 146.608 146.99 148.705 144.777C149.146 144.297 149.588 143.818 149.992 143.301C151.537 141.457 152.898 139.428 154.149 137.214C154.259 136.993 154.407 136.771 154.517 136.55C154.811 136.034 155.106 135.517 155.473 135.038C155.988 134.263 156.614 133.525 157.313 132.75C157.938 132.049 158.6 131.385 159.299 130.684C158.858 130.131 158.38 129.615 157.865 129.098Z" fill="#C62C2C"/>
<path d="M115.927 125.888C115.927 125.888 116.038 130.463 116.59 130.869C117.141 131.238 117.215 137.952 117.215 137.952C118.797 138.911 102.353 132.16 107.945 135.48C119.974 142.637 128.141 143.117 134.542 141.53C134.726 141.457 134.91 141.346 135.13 141.272C135.167 141.235 135.204 141.235 135.241 141.198C135.388 141.125 135.572 141.051 135.719 140.94C135.976 140.793 136.271 140.645 136.528 140.497C139.103 139.022 141.421 137.14 143.518 134.927C143.959 134.447 144.401 133.968 144.805 133.451C146.35 131.607 147.711 129.578 148.962 127.364C149.072 127.143 149.22 126.921 149.33 126.7C149.624 126.184 150.434 125.04 150.765 124.523C150.801 124.45 145.173 121.572 144.29 121.498C142.635 120.797 115.927 125.888 115.927 125.888Z" fill="#DD3333"/>
<path d="M162.132 113.087C160.771 112.386 159.593 111.169 159.152 110.542C158.306 109.324 159.189 107.812 159.593 107.037C159.593 107.037 162.242 102.905 162.352 102.684C162.426 102.463 163.787 100.507 165.479 100.138C166.62 99.917 168.349 100.175 169.489 100.729C168.533 105.488 165.553 109.472 162.132 113.087Z" fill="#E25A5A"/>
<path d="M72.8867 79.6262C72.9235 81.8028 73.0707 85.7133 77.7058 88.4801C81.4581 90.7305 82.856 88.0375 92.7516 91.8741C94.0024 92.3537 96.0257 93.1653 97.9386 93.5343L92.5309 87.6685L74.6157 76.4905L72.8867 79.6262Z" fill="#ED4040"/>
<g opacity="0.4" style="mix-blend-mode:soft-light">
<path d="M147.564 77.2659L62.6231 119.838C62.2921 119.728 61.961 119.617 61.5931 119.506C61.5931 119.506 61.5931 119.506 61.5563 119.506C61.1517 119.396 60.7838 119.248 60.3791 119.137C60.3056 119.101 60.2688 119.101 60.1952 119.064C60.1216 119.027 60.048 119.027 59.9745 118.99C59.717 118.916 59.4962 118.842 59.2387 118.769C59.1284 118.732 59.0548 118.695 58.9444 118.695C58.7237 118.621 58.503 118.584 58.3191 118.51C58.2087 118.473 58.0616 118.437 57.9512 118.4C57.9144 118.4 57.8776 118.363 57.8041 118.363C57.5098 118.289 57.2155 118.178 56.9212 118.105C56.259 117.92 55.6336 117.699 54.9715 117.514C54.6772 117.44 54.4197 117.33 54.1254 117.256C53.5736 117.072 53.0218 116.887 52.4699 116.74C51.6606 116.481 50.8513 116.223 50.042 115.928C49.527 115.743 49.012 115.559 48.497 115.375C46.9519 114.821 45.4804 114.268 44.1193 113.678C43.6779 113.456 43.1997 113.272 42.795 113.05C42.3903 112.866 41.9857 112.645 41.6178 112.46L37.6448 110.173C35.6583 108.882 33.7454 107.443 32.0532 105.894L104.487 64.7966C104.671 64.8704 104.854 64.9442 105.002 65.018C117.767 70.1828 134.026 72.5438 147.564 77.2659Z" fill="white"/>
</g>
<g opacity="0.4" style="mix-blend-mode:soft-light">
<path d="M165.442 87.6323L85.0631 129.356C82.0098 127.659 78.8093 125.999 75.3882 124.487C74.9835 124.302 74.5789 124.118 74.1374 123.97C73.7328 123.786 73.3281 123.638 72.8867 123.454C71.8566 123.048 70.7898 122.642 69.7598 122.236L153.707 79.7007C158.821 81.9879 162.757 84.681 165.442 87.6323Z" fill="white"/>
</g>
</svg>
