<svg width="200" height="200" viewBox="0 0 200 200" fill="none" xmlns="http://www.w3.org/2000/svg">
<path d="M141.04 96.3287C141.68 95.5307 142 94.573 142 93.4557V91.0614C142 83.8787 138.96 77.0153 133.52 72.2268L131.76 70.6307C129.36 68.5557 128.08 65.523 127.92 62.4903L126.64 30.248L125.68 22.5864H111.28L110.32 30.248L109.2 62.6499C109.04 65.8422 107.76 68.7153 105.36 70.7903L103.6 72.3864C98.16 77.1749 95.12 84.0383 95.12 91.221V93.6153C95.12 94.573 95.44 95.6903 96.08 96.4883C96.72 97.2864 97.04 98.2441 97.04 99.2018L98.16 153.631C98.16 155.386 97.68 157.142 96.88 158.738C96.72 158.898 96.72 159.058 96.56 159.217C95.6 160.813 94.96 162.569 94.96 164.485V170.231C95.44 171.029 96.08 171.667 96.88 171.986C100.72 173.423 108.4 175.817 118.32 175.817C128.88 175.817 136.24 173.583 140.08 171.827C140.72 171.508 141.36 171.029 141.68 170.231V164.325C141.68 162.41 141.2 160.654 140.08 159.058C138.96 157.461 138.48 155.546 138.48 153.471L139.6 99.0422C140.08 98.0845 140.4 97.1268 141.04 96.3287Z" fill="#4F7F2F"/>
<path d="M118.64 19.3946C114.16 19.3946 110.96 18.9158 110.96 18.2773L110.32 22.2677C110.32 22.9061 114 23.385 118.64 23.385C123.28 23.385 126.8 22.9061 126.8 22.2677L126 18.1177C126.16 18.7561 123.12 19.3946 118.64 19.3946Z" fill="#808080"/>
<path d="M118.64 17C114.16 17 110.96 17.4788 110.96 18.1173C110.96 18.7558 114 19.2346 118.64 19.2346C123.28 19.2346 126.16 18.7558 126.16 18.1173C126.16 17.4788 123.12 17 118.64 17Z" fill="#B3B3B3"/>
<path d="M118.64 30.0882C115.44 30.0882 112.56 29.9286 110.8 29.4497C109.84 29.2901 109.04 29.9286 109.04 30.8863V32.4824C109.04 33.1209 109.36 33.7594 110 33.919C111.6 34.3978 114.64 34.717 118.64 34.717C122.8 34.717 125.84 34.3978 127.28 33.7594C127.76 33.5997 128.24 32.9613 128.24 32.4824V30.8863C128.24 29.9286 127.44 29.2901 126.48 29.4497C124.72 29.769 121.84 30.0882 118.64 30.0882Z" fill="#58823D"/>
<path d="M128.24 65.0445C128.08 64.2464 127.92 63.4483 127.92 62.6503L126.96 34.0791C125.36 34.5579 122.64 34.8772 118.64 34.8772C114.8 34.8772 111.92 34.5579 110.32 34.0791L109.36 62.6503C109.36 63.4483 109.2 64.406 109.04 65.2041C111.28 65.5233 114.64 65.8426 118.64 65.8426C122.48 65.683 126 65.3637 128.24 65.0445Z" fill="#DD2626"/>
<path d="M128.08 63.7672L127.92 62.4902C125.68 62.9691 122 63.1287 118.16 63.1287C114.48 63.1287 111.6 62.9691 109.2 62.4902L108.88 64.8845C111.28 65.3633 114.48 65.5229 118.16 65.5229C122.16 65.5229 125.84 65.2037 128.24 64.8845L128.08 63.7672Z" fill="#BA0909"/>
<g opacity="0.3">
<path d="M113.36 158.578C113.2 158.259 112.88 158.1 112.72 157.94C109.2 155.865 106.8 152.353 105.36 148.523C103.92 144.692 103.28 140.702 102.8 136.711C102 128.89 101.84 120.909 102.32 113.088C102.48 111.173 102.64 109.257 103.28 107.502C103.92 105.746 105.2 104.15 106.96 103.352C107.44 103.192 109.84 101.755 109.52 101.277C109.36 100.957 107.76 100.798 107.44 100.638C105.52 100.478 99.1199 99.2016 98.3199 98.8823C98.6399 99.5208 98.7999 134.796 99.7599 151.555C99.7599 152.513 99.9199 153.471 100.24 154.269C100.88 155.865 102.64 156.982 104.24 157.78C106.48 158.738 108.72 159.377 111.12 159.855C111.6 159.855 112.24 160.015 112.72 159.696C113.36 159.696 113.68 159.057 113.36 158.578Z" fill="#D9E021"/>
</g>
<path d="M118.32 37.2714C122.32 37.2714 125.2 36.9522 127.12 36.4733L126.96 34.0791C125.36 34.5579 121.84 34.8772 118.32 34.8772C114.96 34.8772 112.08 34.5579 110.32 34.0791L110.16 36.6329C112.08 37.1118 114.64 37.2714 118.32 37.2714Z" fill="#BA0909"/>
<path d="M141.52 95.5312C136.4 96.9678 128.72 98.4043 118.48 98.4043C108.72 98.4043 100.72 96.8082 95.7599 95.5312C95.9199 95.8505 96.0799 96.1697 96.2399 96.4889C96.5599 96.8082 96.7199 97.1274 96.8799 97.6062C102 98.8832 109.52 100.32 118.64 100.32C128.24 100.32 135.6 99.0428 140.56 97.7659C140.72 97.287 140.88 96.9678 141.2 96.6486C141.2 96.0101 141.36 95.8505 141.52 95.5312Z" fill="#466D2D"/>
<path d="M138.48 99.5215C138.16 99.0427 137.36 99.0427 137.2 99.6811L138.16 99.5215C135.44 100 132.88 100.32 130.16 100.798C129.84 100.798 129.52 100.958 129.36 101.118C128.88 101.756 130 102.395 130.8 102.714C131.92 103.193 132.72 104.31 133.04 105.587C133.36 106.864 133.2 107.981 133.2 109.258C132.56 121.229 132.56 133.041 133.2 145.012C133.36 146.927 133.36 148.843 132.72 150.598C131.44 154.429 127.6 156.504 123.92 157.941C123.28 158.26 122.48 158.739 122.8 159.537C122.96 159.856 123.44 160.016 123.76 160.016C126.96 160.654 130.16 159.537 133.36 158.579C134.48 158.26 135.6 157.941 136.4 157.143C138 155.706 137.84 153.312 137.84 151.077C137.36 141.82 137.84 132.562 138.48 123.304C138.64 120.431 138.8 117.718 138.96 114.845C139.28 110.216 139.44 105.587 139.44 100.958C138.96 100.479 138.8 99.8407 138.48 99.5215Z" fill="#466D2D"/>
<path opacity="0.7" d="M136.08 159.377C132.24 160.175 125.84 161.771 118.64 161.771C111.44 161.771 105.04 160.335 101.2 159.377C100.56 159.217 99.92 159.377 99.44 159.536C99.44 159.696 99.28 159.696 99.28 159.856C98.32 161.133 97.84 162.569 97.84 164.006V168.475C98.16 169.113 98.8 169.592 99.6 169.911C102.96 171.029 109.84 172.944 118.8 172.944C128.24 172.944 134.8 171.188 138.16 169.911C138.8 169.752 139.28 169.273 139.6 168.635V164.006C139.6 162.569 139.12 161.133 138.16 159.856C138 159.696 138 159.696 138 159.536C137.2 159.217 136.72 159.217 136.08 159.377Z" fill="#466D2D"/>
<path d="M139.6 157.461C135.92 159.217 128.72 161.292 118.48 161.292C108.88 161.292 101.36 158.898 97.68 157.461C97.68 157.461 97.68 157.461 97.52 157.461C97.36 157.94 97.2 158.259 96.88 158.579C96.72 158.738 96.72 158.898 96.56 159.058C96.4 159.217 96.4 159.377 96.4 159.536C96.72 160.015 97.2 160.335 97.68 160.494C101.36 161.931 108.88 164.325 118.48 164.325C128.72 164.325 135.92 162.09 139.6 160.335C140.08 160.175 140.4 159.856 140.56 159.536C140.4 159.377 140.4 159.217 140.24 159.058C140.08 158.579 139.92 157.94 139.6 157.461Z" fill="#6EA848"/>
<path d="M132.88 113.089C131.76 112.769 130.48 112.61 129.2 112.29L128.4 112.131L128.24 111.333C127.44 106.544 123.44 103.192 118.64 103.192C113.84 103.192 109.84 106.544 109.04 111.333L108.72 112.131L107.92 112.29C106.64 112.45 105.36 112.769 104.24 112.929C102.64 113.248 101.52 114.685 101.52 116.281V149.96C101.52 151.556 102.64 152.992 104.24 153.312C113.84 155.546 124.4 155.546 133.04 153.471C134.64 153.152 135.76 151.715 135.76 150.119V116.44C135.44 114.844 134.48 113.408 132.88 113.089Z" fill="#1C6B24"/>
<path d="M133.36 110.694C132.4 110.534 131.44 110.215 130.32 110.055C129.04 104.469 124.08 100.638 118.32 100.638C112.56 100.638 107.76 104.469 106.32 109.896C105.2 110.055 104.24 110.215 103.28 110.534C100.56 111.173 98.64 113.567 98.64 116.28V149.959C98.64 152.673 100.56 155.067 103.12 155.705C107.92 156.823 113.04 157.461 118 157.461C123.28 157.461 128.4 156.982 132.88 155.865C135.6 155.227 137.52 152.832 137.52 150.119V116.44C138 113.727 136.08 111.332 133.36 110.694ZM135.44 150.119C135.44 151.715 134.32 153.152 132.72 153.471C124.08 155.546 113.52 155.705 103.92 153.311C102.32 152.992 101.2 151.555 101.2 149.959V116.28C101.2 114.684 102.32 113.248 103.92 112.929C105.04 112.609 106.32 112.45 107.6 112.29L108.4 112.13L108.56 111.332C109.36 106.544 113.52 103.192 118.16 103.192C122.96 103.192 127.12 106.704 127.76 111.332L127.92 112.13L128.72 112.29C130 112.45 131.28 112.769 132.4 113.088C134 113.407 135.12 114.844 135.12 116.44V150.119H135.44Z" fill="#EF3030"/>
<path d="M118.64 120.271C122.793 120.271 126.16 116.912 126.16 112.769C126.16 108.626 122.793 105.267 118.64 105.267C114.487 105.267 111.12 108.626 111.12 112.769C111.12 116.912 114.487 120.271 118.64 120.271Z" fill="#F2F2F2"/>
<path d="M133.2 125.219H103.6V135.753H133.2V125.219Z" fill="#F2F2F2"/>
<path opacity="0.2" d="M103.6 137.35V151.077C103.76 151.077 103.92 151.236 104.08 151.236C104.72 151.396 105.52 151.555 106.32 151.555V137.35H103.6Z" fill="#D9E021"/>
<path opacity="0.2" d="M107.44 137.35V151.715C108.24 151.875 109.2 151.875 110 152.034V137.35H107.44Z" fill="#D9E021"/>
<path opacity="0.2" d="M111.44 137.35V152.194C112.24 152.353 113.2 152.353 114 152.353V137.35H111.44Z" fill="#D9E021"/>
<path opacity="0.2" d="M115.28 137.35V152.513C116.24 152.513 117.04 152.513 117.84 152.513V137.35H115.28Z" fill="#D9E021"/>
<path opacity="0.2" d="M119.12 137.35V152.673C120.08 152.673 120.88 152.673 121.68 152.673V137.509H119.12V137.35Z" fill="#D9E021"/>
<path opacity="0.2" d="M122.96 137.35V152.513C123.92 152.513 124.72 152.353 125.52 152.353V137.35H122.96Z" fill="#D9E021"/>
<path opacity="0.2" d="M130.64 137.35V151.715C131.44 151.555 132.08 151.555 132.88 151.396C133.04 151.396 133.2 151.236 133.36 151.236V137.509H130.64V137.35Z" fill="#D9E021"/>
<path opacity="0.2" d="M126.8 137.35V152.194C127.76 152.034 128.56 152.034 129.36 151.875V137.35H126.8Z" fill="#D9E021"/>
<path d="M110.32 128.092H111.92C112.88 128.092 113.68 128.412 113.68 129.369C113.68 129.848 113.36 130.327 112.88 130.487C113.52 130.646 114 130.965 114 131.604C114 132.562 113.2 133.04 112.08 133.04H110.32V128.092ZM111.92 130.008C112.4 130.008 112.72 129.848 112.72 129.369C112.72 129.05 112.4 128.89 111.92 128.89H111.44V130.008H111.92ZM111.92 132.083C112.56 132.083 112.88 131.923 112.88 131.444C112.88 130.965 112.56 130.806 111.92 130.806H111.28V132.083H111.92Z" fill="#BA0909"/>
<path d="M114.8 128.092H117.84V129.05H115.92V130.008H117.52V130.965H115.92V132.083H118V133.04H114.8V128.092Z" fill="#BA0909"/>
<path d="M118.8 128.092H121.84V129.05H119.92V130.008H121.52V130.965H119.92V132.083H122V133.04H118.8V128.092Z" fill="#BA0909"/>
<path d="M125.52 132.881L124.56 131.125H123.92V132.881H122.8V128.092H124.56C125.52 128.092 126.48 128.412 126.48 129.529C126.48 130.167 126.16 130.646 125.68 130.965L126.8 132.881H125.52ZM123.92 130.327H124.4C125.04 130.327 125.36 130.008 125.36 129.529C125.36 129.05 125.04 128.89 124.4 128.89H123.92V130.327Z" fill="#BA0909"/>
<path opacity="0.4" d="M119.12 120.91L119.6 121.867L120.56 122.027L119.76 122.665L119.92 123.623L119.12 123.144L118.16 123.623L118.32 122.665L117.68 122.027L118.64 121.867L119.12 120.91Z" fill="#D9E021"/>
<path opacity="0.4" d="M114.8 120.91L115.12 121.867L116.08 122.027L115.44 122.665L115.6 123.623L114.8 123.144L113.84 123.623L114 122.665L113.36 122.027L114.32 121.867L114.8 120.91Z" fill="#D9E021"/>
<path opacity="0.4" d="M123.92 120.91L124.4 121.867L125.36 122.027L124.72 122.665L124.88 123.623L123.92 123.144L123.12 123.623L123.28 122.665L122.48 122.027L123.44 121.867L123.92 120.91Z" fill="#D9E021"/>
<path d="M113.52 115.163V110.375H114.8L115.6 112.131C115.76 112.61 116.08 113.248 116.24 113.727C116.24 113.088 116.08 112.45 116.08 111.652V110.375H117.04V115.163H115.92L115.12 113.408C114.96 112.929 114.64 112.29 114.48 111.812C114.48 112.45 114.48 113.088 114.48 113.887V115.323H113.52V115.163ZM120.08 111.812C120.08 112.769 119.44 113.088 118.8 113.088C118 113.088 117.52 112.61 117.52 111.812C117.52 111.013 118 110.535 118.8 110.535C119.6 110.535 120.08 111.013 120.08 111.812ZM117.68 114.046V113.567H119.92V114.046H117.68ZM118.32 111.812C118.32 112.29 118.48 112.61 118.8 112.61C119.12 112.61 119.28 112.29 119.28 111.812C119.28 111.492 119.12 111.013 118.8 111.013C118.48 111.013 118.32 111.492 118.32 111.812Z" fill="#EF3030"/>
<path d="M120.88 114.365H121.84V111.652H120.88V111.014C121.36 110.854 121.68 110.854 122 110.535H122.8V114.365H123.76V115.323H120.72V114.365H120.88Z" fill="#EF3030"/>
<path d="M107.28 70.7906C109.2 71.429 113.2 71.9079 118.32 71.9079C123.76 71.9079 127.6 71.429 129.52 70.7906C130 70.631 130.32 70.1521 130.48 69.6733C129.36 68.3964 128.56 66.8002 128.08 65.0444C125.84 65.5233 122.32 65.6829 118.16 65.6829C114.32 65.6829 110.8 65.3637 108.56 65.0444C108.08 66.8002 107.28 68.3964 106 69.8329C106.48 70.3117 106.8 70.631 107.28 70.7906Z" fill="#58823D"/>
<path d="M118.64 23.3844C122.96 23.3844 126.48 22.9055 126.8 22.2671C126.8 22.1075 126.8 21.9478 126.8 21.9478C126.64 21.1498 126.48 20.3517 126.32 19.7132C126.32 19.5536 126.16 19.394 126 19.2344C125.68 20.0325 126 20.8305 126.16 21.6286C126.16 21.7882 126.16 21.9478 126 21.9478C125.68 21.469 125.36 20.9901 125.2 20.5113C124.88 20.1921 124.72 19.8728 124.56 19.8728C124.4 19.8728 124.24 20.0325 124.08 20.1921C124.08 20.3517 124.08 20.6709 124.08 20.8305C124.08 21.1498 124.08 21.469 124.08 21.9478C124.08 22.1075 124.08 22.4267 123.92 22.4267C123.76 22.5863 123.28 22.5863 123.12 22.2671C122.96 22.1075 122.8 21.7882 122.8 21.469C122.64 21.1498 122.48 20.9901 122.16 20.9901C122 20.9901 121.68 21.3094 121.68 21.469C121.52 21.7882 121.52 21.9478 121.52 22.2671C121.36 22.5863 121.2 22.9055 120.72 22.9055C120.4 23.0651 119.92 22.9055 119.76 22.5863C119.6 22.2671 119.44 21.7882 119.12 21.7882C118.8 21.7882 118.64 21.9478 118.48 22.2671C118.32 22.5863 118.16 22.7459 118 22.9055C117.68 23.0651 117.36 23.0651 117.04 22.7459C116.72 22.5863 116.56 22.2671 116.24 21.9478C116.08 21.9478 115.92 21.7882 115.76 21.7882C115.44 21.7882 115.28 21.9478 115.12 22.1075C114.96 22.2671 114.96 22.5863 114.8 22.7459C114.48 22.9055 114.16 22.9055 113.84 22.7459C113.52 22.5863 113.36 22.2671 113.2 22.1075C113.04 21.9478 113.04 21.6286 112.88 21.6286C112.56 21.469 112.4 21.7882 112.24 21.9478C112.08 22.1075 111.92 22.4267 111.6 22.5863C111.44 22.5863 111.12 22.5863 110.96 22.2671C110.8 22.1075 110.8 21.7882 110.64 21.6286H110.48V22.1075C110.32 22.9055 114 23.3844 118.64 23.3844Z" fill="#666666"/>
<g opacity="0.1">
<path d="M125.68 72.7056C125.04 71.4287 124.24 70.3114 123.28 69.5133C121.36 67.9171 118.64 67.5979 116.08 67.7575C113.52 67.7575 110.48 68.2364 108.88 70.1517C108.88 70.1517 105.04 73.3441 102.8 76.0575C100.56 78.771 98.7999 81.9633 98.3199 85.4748C97.9999 87.3902 98.3199 89.6248 99.4399 91.221C100.56 92.8171 102.64 93.6152 104.56 94.0941C107.12 94.7325 109.84 95.0518 112.56 95.0518C113.68 95.0518 114.8 94.8921 115.76 94.7325C118.32 94.0941 120.4 92.1787 122.16 90.1037C126.16 85.1556 128.4 78.2921 125.68 72.7056Z" fill="#D9E021"/>
</g>
<g opacity="0.5">
<path d="M131.44 72.8652L133.04 74.3018C135.92 76.5364 137.36 80.2075 138 83.7191C138.48 86.9114 138.32 90.7422 135.92 92.8172C134.8 93.9345 133.2 94.4133 131.76 94.8922C128.72 95.8498 125.68 96.4883 122.48 96.8075C123.12 97.6056 124.24 97.6056 125.36 97.446C129.2 96.9672 133.04 96.1691 136.88 95.0518C137.68 94.7325 138.64 94.5729 139.12 93.9345C139.92 93.1364 140.08 91.8595 140.24 90.7422C140.56 83.8787 137.2 76.8556 131.44 72.8652Z" fill="#466D2D"/>
</g>
<g opacity="0.2">
<path d="M105.84 167.038C103.44 165.442 101.68 162.888 99.1199 161.452C98.7999 161.292 98.3199 161.132 97.9999 161.132C97.3599 161.292 97.0399 161.93 96.8799 162.569C96.8799 162.569 96.0799 166.719 97.6799 168.155C99.2799 169.592 102.48 169.752 104.56 170.071C106 170.23 107.44 170.39 109.04 170.39C109.68 170.39 110.48 170.39 110.8 169.752C109.2 168.634 107.28 167.996 105.84 167.038Z" fill="#DADADA"/>
</g>
<g opacity="0.7">
<path d="M116.24 162.569C112.24 162.25 106.16 161.771 101.52 159.856C100.56 159.536 99.5998 159.058 98.6398 159.058L98.4798 159.696C100.08 161.133 101.52 161.292 103.6 161.931C107.92 163.048 113.52 164.006 118 163.527C123.92 163.367 116.88 162.729 116.24 162.569Z" fill="#DADADA"/>
</g>
<path d="M138.48 161.452C138.48 161.452 136.88 162.091 136.4 162.25C134.8 162.889 133.2 163.208 131.6 163.846C131.28 164.006 130.8 164.166 130.64 164.485C130.48 164.644 130.48 164.964 130.48 165.283C130.48 166.879 129.2 167.996 127.92 168.794C126 169.912 123.76 170.55 121.52 171.029C119.92 171.348 118.48 171.827 116.88 172.146C123.12 172.625 129.52 171.827 135.6 170.071C136.72 169.752 137.84 169.273 138.48 168.475C138.96 167.837 138.8 167.198 138.8 166.4C138.8 164.485 138.64 163.208 138.48 161.452Z" fill="#466D2D"/>
<g opacity="0.5">
<path d="M138.16 158.579C136.08 159.218 133.84 160.016 131.76 160.814C132.24 161.452 133.2 161.293 133.84 161.133C134.8 160.973 135.92 160.654 136.88 160.494C137.36 160.335 138 160.175 138.32 159.856C138.8 159.537 138.8 158.739 138.16 158.579Z" fill="#466D2D"/>
</g>
<path d="M124.4 24.1826C124.88 24.1826 125.52 24.3422 126 24.3422L125.84 22.5864C124.4 23.2249 121.68 23.3845 118.64 23.3845C115.44 23.3845 112.72 23.0653 111.44 22.746V23.2249C113.36 24.1826 115.44 24.3422 117.52 24.3422C119.76 24.5018 122.16 24.1826 124.4 24.1826Z" fill="#466D2D"/>
<path opacity="0.3" d="M112.08 28.8115C113.36 29.1308 115.12 29.2904 117.04 29.2904C116.4 28.3327 115.76 26.8962 116.08 25.7788C116.24 25.4596 116.4 24.9808 116.24 24.6615C116.08 24.3423 115.76 24.1827 115.6 24.1827C113.36 24.5019 112.08 23.3846 111.92 24.9808C111.76 25.9385 111.6 26.8962 111.44 27.8538C111.44 28.0135 111.44 28.1731 111.44 28.4923C111.6 28.6519 111.92 28.8115 112.08 28.8115Z" fill="#DADADA"/>
<path opacity="0.5" d="M125.36 28.6515C125.84 28.3323 125.84 27.6938 125.84 27.215C125.84 26.4169 125.84 25.6188 125.52 24.8207C125.36 24.5015 125.36 24.1823 125.04 24.0227C124.72 23.863 124.4 24.0227 124.24 24.1823C124.24 24.1823 123.76 25.938 123.44 27.0554C122.96 28.6515 120.56 28.9707 119.76 29.29C121.84 29.29 123.12 29.1304 123.92 29.1304C124.56 28.9707 125.04 28.9707 125.36 28.6515Z" fill="#466D2D"/>
<path opacity="0.3" d="M114.96 39.0268C114.64 37.5903 112.88 37.2711 111.6 38.0691C111.6 38.0691 111.28 50.998 110.8 57.3826C110.8 58.1807 110.64 59.4576 110.96 60.2557C111.28 61.0538 111.92 61.373 112.88 61.2134C113.84 61.0538 114.16 59.9364 114.48 58.9788C115.92 53.073 115.76 42.2191 114.96 39.0268Z" fill="#DADADA"/>
<path opacity="0.7" d="M119.6 30.727C119.44 30.5674 119.28 30.5674 119.12 30.5674C117.68 30.4077 116.4 30.5673 114.96 30.4077C113.84 30.4077 112.4 30.0885 111.28 29.9289C109.2 29.6097 109.68 30.4077 109.68 30.4077C109.52 30.727 110 31.0462 110.32 31.0462C113.2 31.6847 116.08 31.6847 118.96 31.2058C119.28 31.3654 119.76 31.0462 119.6 30.727Z" fill="#DADADA"/>
<path opacity="0.5" d="M126.96 59.7769C126.96 51.9557 126.16 36.1538 126.16 36.1538C124.88 36.1538 123.44 37.1115 122.96 38.2288C122.64 39.0269 122.64 40.1442 122.64 40.9423C122.8 46.5288 122 52.1153 120.56 57.5423C120.24 58.9788 119.92 60.7346 121.2 61.373C121.68 61.5327 122.16 61.5327 122.48 61.5327C123.12 61.5327 123.76 61.373 124.56 61.373C127.44 61.373 126.96 60.2557 126.96 59.7769Z" fill="#BA0909"/>
<g opacity="0.1">
<path d="M115.28 69.9924C113.2 69.0347 110.64 69.3539 108.56 70.4712C108.56 70.4712 103.12 74.9404 101.36 78.6116C99.7599 82.2827 100.08 87.0712 103.28 89.4654C103.76 89.7847 104.24 90.1039 104.88 90.1039C105.68 90.1039 106.48 89.4654 106.8 88.827C107.28 88.1885 107.44 87.3904 107.76 86.5924C108.56 84.8366 109.68 83.2404 111.28 81.9635C112.56 81.0058 114 80.2077 115.28 79.4097C116.56 78.452 117.84 77.3347 118.16 75.7385C118.8 73.5039 117.36 70.9501 115.28 69.9924Z" fill="#D9E021"/>
</g>
<g opacity="0.7">
<path d="M109.84 71.4286C109.52 71.2689 109.04 71.1093 108.72 70.9497C108.24 70.9497 107.92 71.1093 107.44 71.2689C106.32 71.9074 104.08 74.4612 103.12 75.7382C103.12 75.7382 102.16 77.4939 101.68 79.0901C101.52 79.8882 101.52 80.8459 101.68 81.4843C101.84 82.2824 102.48 83.0805 103.28 83.2401C103.92 83.2401 104.72 82.442 105.2 81.9632C105.52 81.4843 105.84 81.0055 106.16 80.367C106.8 79.2497 107.6 78.292 108.56 77.6536C109.2 77.1747 109.84 76.6959 110.48 76.0574C111.12 75.4189 111.6 74.7805 111.6 73.9824C111.44 73.0247 110.8 72.067 109.84 71.4286Z" fill="#DADADA"/>
</g>
<path opacity="0.5" d="M131.28 87.2309C130.96 86.752 130.48 86.4328 130 86.2732C129.84 86.1136 129.52 86.1136 129.36 86.1136C128.24 85.7943 127.44 84.8367 126.48 84.3578C125.84 84.0386 125.2 84.0386 124.56 84.0386C124.08 84.0386 123.44 84.0386 122.96 84.1982C122.8 84.1982 122.64 84.3578 122.32 84.5174C121.84 84.677 121.36 84.9963 121.2 85.4751C121.04 85.954 121.2 86.4328 121.04 86.9116C121.04 87.2309 120.88 87.3905 120.88 87.7097C120.88 88.1886 121.2 88.5078 121.2 88.9866C121.2 89.3059 121.2 89.4655 121.36 89.7847C121.52 90.104 121.68 90.2636 122 90.4232C122.16 90.5828 122.48 90.7424 122.64 90.7424C122.96 90.902 123.28 90.7424 123.44 90.7424C124.08 90.7424 124.72 90.5828 125.36 90.5828C125.68 90.5828 126 90.5828 126.32 90.4232C126.64 90.4232 126.8 90.2636 126.96 90.104C127.6 89.7847 128.4 89.7847 129.04 89.6251C129.68 89.4655 130.48 89.3059 130.96 88.827C131.12 88.6674 131.12 88.6674 131.28 88.5078C131.76 88.029 131.44 87.5501 131.28 87.2309Z" fill="#466D2D"/>
<path d="M130.96 86.5922C130.8 86.5922 130.64 86.5922 130.64 86.4326C130.48 86.4326 129.84 86.4326 129.52 86.4326C126.8 87.3903 130.16 88.348 130.96 88.1884C131.44 88.0288 131.76 87.8692 131.76 87.5499C131.92 87.0711 131.44 86.7518 130.96 86.5922Z" fill="#8FD860"/>
<path d="M120.72 86.5922C120.4 86.1134 119.6 86.1134 119.12 86.1134C118.16 85.9538 117.04 85.9538 116.24 85.7942C115.44 85.6345 114.8 84.9961 114.8 84.0384C114.8 83.2403 115.92 82.6019 116.56 82.2826C117.52 81.8038 118.64 81.3249 119.6 81.0057C119.92 80.8461 119.76 80.5269 119.44 80.5269C118 81.0057 116.72 81.4846 115.44 82.2826C114.64 82.7615 114 83.2403 114.16 84.3576C114.32 85.1557 114.8 85.7942 115.44 85.9538C115.92 86.1134 116.56 86.1134 117.04 86.273C117.84 86.273 119.6 86.4326 120.24 86.9115C120.56 87.0711 120.88 86.7519 120.72 86.5922Z" fill="#58823D"/>
<path d="M130 88.029C129.52 87.7098 129.04 87.231 128.56 87.231C128.08 87.231 127.6 87.3906 127.44 87.8694C127.44 87.8694 127.28 88.3483 127.28 88.8271C127.28 88.9867 127.28 89.1463 127.44 89.306C127.6 89.4656 127.6 89.4656 127.76 89.4656C128.56 89.6252 129.52 89.306 130.16 88.8271C130.32 88.8271 130.32 88.6675 130.32 88.5079C130.32 88.3483 130.16 88.1886 130 88.029Z" fill="#7EC152"/>
<path d="M130.8 86.273C130.64 85.9538 130.16 85.6346 129.84 85.4749C129.52 85.3153 129.2 84.9961 128.88 84.9961C128.56 84.9961 127.76 85.1557 127.6 85.3153C127.44 85.7942 127.6 86.1134 127.92 86.4326C128.08 86.5922 128.56 86.5923 128.72 86.7519C129.36 86.9115 129.84 86.9115 130.48 86.9115H130.64C130.96 86.7519 130.96 86.4326 130.8 86.273Z" fill="#7EC152"/>
<path d="M127.6 88.8269C127.28 88.6672 126.96 88.348 126.48 88.348C126.16 88.1884 125.68 88.1884 125.36 88.5076C125.04 88.6672 123.44 89.9442 124.88 90.1038C125.52 90.1038 126.16 90.2634 126.8 90.2634C127.12 90.2634 127.28 90.2634 127.6 90.2634C127.92 90.1038 128.08 89.9442 128.08 89.6249C128.08 89.1461 127.76 88.9865 127.6 88.8269Z" fill="#7EC152"/>
<path d="M128.88 86.752C128.88 86.5924 128.72 86.5924 128.56 86.4328C128.24 86.1136 127.76 85.954 127.44 85.954C126.96 85.7944 126.48 85.7943 126 86.1136C125.68 86.4328 125.52 86.9117 125.68 87.2309C125.68 87.5501 125.84 87.7097 126 88.029C126.32 88.1886 126.8 88.1886 127.28 88.029C127.76 87.8693 128.24 87.5501 128.56 87.2309C128.72 87.2309 129.04 87.0713 128.88 86.752Z" fill="#8FD860"/>
<path d="M129.2 84.6774C129.04 84.5178 128.72 84.1985 128.4 84.0389C128.08 83.8793 127.76 83.5601 127.44 83.5601C127.28 83.5601 126.96 83.7197 126.8 83.7197C126.8 83.7197 126.48 84.0389 126.32 84.5177C126.32 84.837 126.32 85.3158 126.64 85.6351C126.96 85.7947 127.28 85.7947 127.6 85.7947C128.08 85.7947 128.56 85.6351 129.04 85.4754C129.2 85.4754 129.52 85.3158 129.52 84.9966C129.52 84.9966 129.36 84.837 129.2 84.6774Z" fill="#7EC152"/>
<path d="M126.32 88.8269C126.16 88.6673 126 88.5077 125.84 88.3481C125.36 88.0288 124.88 87.55 124.4 87.3904C124.08 87.2307 123.6 87.0711 123.28 87.3904C123.12 87.3904 123.12 87.55 123.12 87.7096C123.12 88.0288 122.96 88.5077 123.12 88.8269C123.28 89.1461 123.44 89.7846 123.76 89.7846C123.76 89.7846 125.04 89.625 125.52 89.625C125.84 89.625 126 89.625 126.16 89.4654C126.32 89.3058 126.32 89.1461 126.32 88.8269Z" fill="#7EC152"/>
<path d="M126.64 83.4006C125.84 83.0813 124.4 83.0813 123.28 83.4006C122.8 83.5602 122.64 84.1986 122.96 84.6775L123.28 84.9967C123.44 85.3159 123.92 85.4756 124.24 85.3159C125.52 84.9967 126.16 84.6775 126.64 84.3583C126.8 84.1986 127.12 84.039 127.12 83.7198C127.12 83.5602 126.96 83.4006 126.64 83.4006Z" fill="#7EC152"/>
<path d="M127.12 85.7943C126.96 85.6346 127.12 85.6346 127.12 85.7943C126.48 85.475 126 85.1558 125.52 84.9962C125.04 84.8366 124.4 84.8366 123.92 84.9962C123.44 85.1558 123.12 85.6346 122.96 86.2731C122.96 86.752 123.12 87.0712 123.44 87.3904C123.92 87.7096 124.4 87.55 124.88 87.3904C125.36 87.2308 125.68 86.9116 126.16 86.5923C126.32 86.4327 126.64 86.2731 126.8 86.1135C126.96 86.1135 127.12 85.9539 127.12 85.7943Z" fill="#8FD860"/>
<path d="M123.76 82.9213C123.6 82.7617 123.44 82.7617 123.12 82.7617C122.48 82.7617 121.84 82.9213 121.36 83.4002C120.88 83.879 120.4 85.3156 120.72 85.7944L122.64 84.6771C123.12 84.5175 123.44 84.0386 123.76 83.7194C123.92 83.5598 123.92 83.2406 123.76 82.9213Z" fill="#7EC152"/>
<path d="M123.92 89.4657C123.76 89.1464 123.6 88.9868 123.44 88.6676C123.12 88.1888 122.48 87.7099 121.84 87.7099L120.88 87.5503C120.88 88.0291 121.04 89.3061 121.52 89.7849C121.84 90.1041 122.16 90.1041 122.64 90.2638C122.96 90.2638 123.28 90.4234 123.6 90.4234C123.92 90.4234 124.24 90.4234 124.4 90.2638C124.24 89.9445 124.08 89.6253 123.92 89.4657Z" fill="#7EC152"/>
<path d="M123.44 85.7942C123.12 85.3153 122.48 84.9961 121.84 84.9961C121.36 84.9961 121.04 85.3153 120.88 85.6346C120.88 85.6346 120.56 86.273 120.56 86.5922C120.56 87.0711 120.56 87.3903 120.88 87.7096C121.2 88.0288 121.68 88.0288 122.16 88.0288C122.64 87.8692 122.96 87.7096 123.28 87.3903C123.44 87.2307 123.76 87.0711 123.76 86.9115C124.08 86.5922 123.76 86.1134 123.44 85.7942Z" fill="#8FD860"/>
<path d="M120.56 86.5921C120.56 86.5921 120.72 86.7518 120.72 86.9114C120.88 86.2729 120.88 85.7941 120.88 85.1556C120.88 84.996 120.88 84.996 120.72 84.8364C120.56 84.6768 120.4 84.6768 120.08 84.6768C119.6 84.6768 119.12 84.8364 118.8 85.3152C118.48 85.6344 118.48 86.2729 118.64 86.7518C118.8 86.9114 118.8 87.071 118.96 87.071C119.12 87.071 119.28 87.071 119.44 86.9114C119.28 86.9114 119.12 86.7518 119.12 86.5921C119.12 86.4325 119.12 86.2729 119.28 86.2729C119.44 86.2729 119.6 86.2729 119.6 86.2729C120.08 86.1133 120.24 86.2729 120.56 86.5921Z" fill="#7EC152"/>
<path d="M120.72 86.9115C120.72 87.0711 120.72 87.0711 120.72 87.2307L120.56 86.5923C120.4 87.2307 119.92 87.55 119.44 87.8692C119.28 88.0288 118.96 88.0288 118.8 88.0288C118.64 88.0288 118.48 88.0288 118.48 87.8692C118.8 88.0288 119.12 88.1884 119.44 88.3481C119.6 88.3481 119.92 88.5077 120.08 88.3481C120.56 88.1884 121.04 87.7096 120.88 87.0711C120.72 87.0711 120.72 86.9115 120.72 86.9115Z" fill="#7EC152"/>
<path opacity="0.5" d="M116.08 80.8461C115.92 80.6865 115.92 80.6865 115.76 80.6865C115.6 80.6865 115.44 80.8461 115.6 81.0057C115.44 81.0057 115.28 80.8461 115.28 80.5268C115.12 80.3672 115.12 80.2076 114.96 80.048C114.8 79.8884 114.48 80.048 114.48 80.2076C114.48 80.2076 114.48 80.3672 114.32 80.3672H114.16C114 80.2076 113.84 80.048 113.68 79.7288C113.52 79.5692 113.2 79.4095 113.04 79.5692C113.04 79.5692 113.04 79.5692 112.88 79.7288C112.72 79.7288 112.72 79.7288 112.72 79.5692C112.4 79.2499 112.08 78.9307 111.76 78.7711C111.6 78.6115 111.28 78.6115 111.28 78.7711V78.9307C111.44 79.4095 111.6 79.8884 112.08 80.3672C111.76 80.3672 111.6 80.8461 111.76 81.1653C111.92 81.4845 112.24 81.6442 112.4 81.8038C112.24 81.8038 112.08 81.9634 111.92 82.123C111.76 82.2826 112.08 82.4422 112.24 82.6018C112.4 82.7615 112.56 82.7615 112.72 82.9211C113.04 83.0807 113.36 83.5595 113.52 83.8788C113.68 84.198 113.52 84.6768 113.2 84.6768C113.04 84.6768 112.72 84.5172 112.56 84.3576C112.24 84.0384 111.92 83.5595 111.76 83.2403C111.6 82.9211 111.44 82.6018 111.12 82.2826C110.8 81.8038 110.16 81.6442 109.68 81.4845C109.52 81.4845 109.36 81.4845 109.2 81.4845C109.04 81.4845 108.88 81.6442 108.88 81.8038C108.56 81.6442 108.08 81.4845 107.76 81.6442C107.6 81.6442 107.6 81.6442 107.6 81.8038V81.9634C107.76 82.123 107.92 82.2826 108.08 82.4422C107.6 82.123 107.12 81.9634 106.48 81.9634H106.32C106.16 81.9634 106.16 82.2826 106.16 82.4422C106.16 82.4422 106.16 82.6018 106.32 82.6018C106.16 82.4422 106 82.4422 105.84 82.4422C105.2 82.2826 104.56 82.2826 103.92 82.2826C104.56 82.9211 105.52 83.3999 106.48 83.7192C106.32 83.7192 106 83.7192 105.84 83.8788C105.68 84.0384 105.52 84.198 105.52 84.3576C105.52 84.5172 105.68 84.5172 105.68 84.5172C106 84.6768 106.32 84.8365 106.64 84.8365H106.48C106.32 84.9961 106.16 85.1557 106.16 85.4749C106.16 85.6345 106.48 85.7942 106.64 85.7942C107.12 85.9538 107.76 85.9538 108.24 85.7942C108.08 85.7942 107.92 85.9538 107.76 85.9538C107.6 86.1134 107.6 86.273 107.6 86.4326C107.6 86.5922 107.76 86.5922 107.92 86.5922C108.4 86.7518 109.04 86.7518 109.68 86.5922C110.32 86.4326 110.8 86.273 111.44 86.1134C111.6 86.1134 111.76 85.9538 112.08 86.1134C112.24 86.1134 112.4 86.273 112.56 86.4326C112.56 86.5922 112.4 86.9115 112.24 86.9115C112.08 87.0711 111.92 87.0711 111.6 87.0711C111.12 87.0711 110.8 87.2307 110.32 87.2307C110.16 87.2307 110 87.2307 109.84 87.3903C109.68 87.5499 109.52 87.7095 109.52 87.8692C109.52 88.0288 109.84 88.1884 110 88.0288C109.52 88.1884 109.2 88.5076 108.72 88.6672C108.72 88.6672 108.56 88.6672 108.56 88.8268C108.4 88.9865 108.56 89.1461 108.72 89.1461C108.88 89.3057 109.04 89.3057 109.2 89.3057C108.56 89.6249 107.92 89.7845 107.12 90.1038C106.96 90.1038 106.8 90.2634 106.96 90.423C107.76 90.423 108.4 90.423 109.2 90.2634C109.2 90.423 109.04 90.5826 109.04 90.7422C109.04 90.9018 109.36 90.9018 109.52 90.9018C109.84 90.7422 110.32 90.7422 110.64 90.5826C110.8 90.7422 110.48 90.9018 110.48 91.0615C110.48 91.2211 110.8 91.2211 110.96 91.2211C111.28 91.0615 111.6 90.9018 111.92 90.7422C111.92 90.9018 111.92 91.0615 111.92 91.2211C111.92 91.3807 111.92 91.5403 112.08 91.5403H112.24C112.72 91.3807 112.88 91.0615 113.04 90.5826C113.04 90.7422 113.2 90.7422 113.2 90.7422C113.36 90.7422 113.52 90.7422 113.84 90.7422C114.96 90.2634 115.76 89.4653 116.24 88.5076C116.4 88.1884 116.4 87.8692 116.24 87.7095C116.08 87.5499 115.92 87.5499 115.6 87.5499C115.28 87.5499 115.12 87.2307 115.12 87.0711C115.12 86.9115 115.28 86.5922 115.44 86.4326C115.44 86.273 115.76 86.1134 115.92 86.1134C116.24 86.1134 116.4 86.273 116.72 86.4326C117.36 86.5922 118 86.273 118.32 85.6345C118.8 84.8365 118.64 83.7192 118.32 82.9211C117.36 82.123 116.72 81.4845 116.08 80.8461Z" fill="#466D2D"/>
<path d="M116.72 83.879C116.88 83.5598 116.72 83.0809 116.4 82.7617C116.24 82.6021 116.08 82.4425 115.92 82.6021C115.76 82.6021 115.76 82.7617 115.76 82.7617C115.6 82.2829 115.28 81.804 114.96 81.4848C114.96 81.4848 114.8 81.3252 114.64 81.3252C114.48 81.3252 114.32 81.4848 114.32 81.6444C114.32 81.804 114.32 81.9636 114.48 82.1233C114 81.6444 113.52 81.1656 112.88 80.8463C112.72 80.8463 112.56 80.6867 112.4 80.8463V81.0059C112.4 81.3252 112.56 81.6444 112.88 81.804C113.04 81.9636 113.2 82.1233 113.52 82.2829C113.52 82.2829 113.36 82.2829 113.36 82.1233C113.2 82.1233 113.04 82.1233 113.04 82.2829C113.04 82.4425 113.04 82.4425 113.2 82.6021C113.52 83.0809 114 83.4002 114.48 83.7194C114.64 83.879 114.8 84.0386 114.96 84.1983C115.28 84.6771 115.12 85.3156 114.8 85.7944C114.8 85.954 114.64 85.954 114.48 86.1136C114.32 86.2733 114 86.1136 113.84 86.1136C113.04 85.7944 112.08 85.4752 111.6 84.6771C111.44 84.3579 111.28 83.879 111.12 83.5598C110.96 83.0809 110.48 82.7617 110.16 82.6021C110 82.6021 110 82.6021 109.84 82.6021C109.84 82.6021 109.84 82.7617 109.84 82.9213C110.16 83.5598 110.8 84.0386 110.96 84.6771C110.8 84.6771 110.64 84.3579 110.48 84.1983C110.16 83.5598 109.68 83.0809 109.04 82.7617C108.88 82.6021 108.72 82.6021 108.56 82.7617V82.9213C108.88 83.2406 109.2 83.5598 109.52 83.879C108.56 83.5598 107.44 83.2406 106.32 83.0809C106.64 83.5598 107.12 83.879 107.6 84.0386C108.08 84.1983 108.72 84.1983 109.2 84.0386C109.36 84.0386 109.52 84.0386 109.52 84.0386C109.68 84.0386 109.68 84.1983 109.68 84.3579C109.68 84.5175 109.52 84.5175 109.52 84.5175C108.88 84.6771 108.08 84.6771 107.28 84.9963C107.28 84.9963 107.12 84.9963 107.12 85.1559C106.96 85.3156 107.28 85.4752 107.44 85.4752C107.92 85.4752 108.4 85.4752 108.88 85.4752C109.36 85.3156 109.84 85.1559 110.16 85.3156C110.32 85.3156 110.48 85.4752 110.32 85.6348C110.32 85.6348 110.16 85.6348 110.16 85.7944C109.68 85.954 109.2 86.1136 108.72 86.2733C108.56 86.2733 108.4 86.4329 108.4 86.4329C108.4 86.5925 108.4 86.5925 108.56 86.7521C108.72 86.7521 108.72 86.7521 108.88 86.7521C109.36 86.5925 109.84 86.2733 110.32 86.1136C111.44 85.7944 112.4 86.2733 113.52 86.7521C113.52 86.7521 113.68 86.7521 113.68 86.9117V87.0713C113.36 87.5502 112.72 87.8694 112.08 88.1886C111.44 88.5079 110.8 88.6675 110.16 88.9867C110 88.9867 109.84 89.1463 109.84 89.3059C109.84 89.4656 110.16 89.6252 110.32 89.6252C110 89.6252 109.52 89.7848 109.2 89.9444C109.04 89.9444 109.04 90.104 109.04 90.2636C109.04 90.4233 109.36 90.4233 109.52 90.4233C110 90.4233 110.32 90.4233 110.8 90.2636C110.64 90.4233 110.96 90.5829 111.12 90.5829C111.44 90.5829 111.76 90.5829 111.92 90.4233C112.08 90.2636 112.24 90.2636 112.4 90.2636C112.56 90.2636 112.56 90.2636 112.56 90.4233C113.04 90.7425 113.68 90.5829 114 90.2636C114.32 89.9444 114.8 89.4656 114.96 89.1463C115.12 88.9867 115.12 88.8271 115.12 88.6675C114.96 88.3483 114.64 88.3483 114.32 88.1886C113.84 88.029 113.68 87.3906 114 86.9117V87.2309C114.16 86.5925 114.8 85.954 115.44 85.954C115.6 85.954 115.92 85.954 116.08 85.954C116.4 85.954 116.56 85.6348 116.72 85.3156C116.88 84.9963 117.04 84.6771 116.88 84.3579C116.88 84.1983 116.72 84.0386 116.56 83.879C117.04 83.5598 116.88 83.7194 116.72 83.879Z" fill="#7EC152"/>
<path opacity="0.5" d="M121.68 82.6018C121.68 82.6018 121.84 82.6018 121.84 82.4422C121.84 82.4422 121.84 82.2826 121.68 82.2826C121.68 82.2826 121.84 82.123 122 82.123C122.16 82.123 122.16 82.123 122.32 82.123C122.48 82.123 122.48 81.9634 122.32 81.8038C122.32 81.8038 122.32 81.8038 122.32 81.6442C122.48 81.4845 122.64 81.4845 122.64 81.4845C122.8 81.4845 122.96 81.3249 122.96 81.1653C122.96 81.1653 122.96 81.1653 123.12 81.1653C123.28 81.1653 123.6 81.0057 123.76 80.8461C123.92 80.8461 123.92 80.6865 123.92 80.6865C123.92 80.6865 123.92 80.6865 123.76 80.6865C123.44 80.6865 123.12 80.6865 122.96 80.6865C122.96 80.5269 122.8 80.3672 122.64 80.3672C122.48 80.3672 122.32 80.5268 122.16 80.5268C122.16 80.5268 122.16 80.3672 122.16 80.2076C122 80.2076 122 80.2076 121.84 80.2076C121.68 80.2076 121.68 80.3672 121.52 80.3672C121.36 80.5268 121.04 80.5268 120.88 80.5268C120.72 80.5268 120.56 80.3672 120.56 80.2076C120.56 80.048 120.72 80.048 120.88 80.048C121.2 80.048 121.36 79.8884 121.68 79.8884C121.84 79.8884 122.16 79.8884 122.32 79.8884C122.64 79.7288 122.8 79.5692 122.96 79.4095L123.12 79.2499V79.0903C123.28 78.9307 123.44 78.7711 123.44 78.6115V78.4518C123.28 78.4518 123.12 78.4518 123.12 78.6115C123.28 78.4518 123.6 78.2922 123.76 77.973C123.76 77.973 123.76 77.973 123.76 77.8134C123.76 77.6538 123.6 77.6538 123.6 77.6538C123.6 77.6538 123.6 77.6538 123.44 77.6538L123.6 77.4942C123.76 77.1749 123.92 77.0153 124.08 76.6961C123.6 76.8557 123.12 77.1749 122.8 77.4942C122.8 77.3345 122.8 77.3345 122.8 77.1749C122.8 77.0153 122.64 77.0153 122.64 77.0153H122.48C122.32 77.1749 122.16 77.1749 122.16 77.3345V77.1749C122.16 77.0153 122.16 76.8557 122 76.8557C121.84 76.8557 121.84 76.8557 121.68 77.0153C121.52 77.1749 121.36 77.4942 121.36 77.8134C121.36 77.6538 121.36 77.6538 121.36 77.4942C121.36 77.3345 121.2 77.3345 121.2 77.3345C121.2 77.3345 121.04 77.3345 121.04 77.4942C120.88 77.6538 120.72 77.973 120.56 78.2922C120.56 78.6115 120.4 78.9307 120.4 79.2499C120.4 79.4095 120.4 79.4095 120.24 79.5692C120.24 79.7288 120.08 79.7288 119.92 79.7288C119.76 79.7288 119.76 79.5692 119.76 79.4095C119.76 79.2499 119.76 79.2499 119.76 79.0903C119.76 78.9307 119.92 78.6115 119.92 78.4518C119.92 78.2922 119.92 78.2922 119.92 78.1326C119.92 77.973 119.92 77.973 119.76 77.973C119.6 77.973 119.6 77.973 119.6 78.1326C119.6 77.8134 119.6 77.6538 119.6 77.3345C119.6 77.3345 119.6 77.3345 119.6 77.1749H119.44L119.28 77.3345C119.28 77.0153 119.28 76.5365 119.28 76.2172C119.28 76.2172 119.28 76.0576 119.12 76.0576C118.96 76.3768 118.8 76.6961 118.8 77.1749C118.64 77.1749 118.64 77.0153 118.64 77.0153C118.48 77.0153 118.48 77.1749 118.48 77.1749C118.48 77.3345 118.48 77.4942 118.32 77.8134C118.16 77.8134 118.16 77.6538 118.16 77.6538C118 77.6538 118 77.8134 118 77.8134C118 77.973 118 78.1326 118 78.4518C118 78.4518 117.84 78.4519 117.84 78.2922H117.68C117.68 78.2922 117.68 78.2922 117.68 78.4518C117.68 78.6115 117.68 78.9307 118 79.0903H117.84C117.84 79.0903 117.68 79.2499 117.68 79.4095C117.68 80.048 117.84 80.6865 118.32 81.0057C118.48 81.1653 118.64 81.1653 118.8 81.1653C118.96 81.1653 118.96 81.0057 118.96 80.8461C119.12 80.6865 119.28 80.6865 119.28 80.6865C119.44 80.6865 119.44 80.8461 119.44 81.0057C119.6 81.0057 119.6 81.1653 119.44 81.3249C119.44 81.4845 119.28 81.4845 119.12 81.6442C118.96 81.9634 118.96 82.2826 119.12 82.6018C119.44 83.0807 119.92 83.2403 120.4 83.2403C120.88 83.2403 121.2 82.7615 121.68 82.6018Z" fill="#466D2D"/>
<path d="M120.08 82.2826C120.24 82.4422 120.56 82.4422 120.72 82.4422C120.88 82.4422 120.88 82.4422 120.88 82.2826V82.1229C121.2 82.1229 121.36 82.1229 121.68 81.9633C121.68 81.9633 121.84 81.9633 121.84 81.8037V81.6441H121.68C122 81.4845 122.32 81.3249 122.64 81.1652L122.8 81.0056C122.64 81.0056 122.48 81.0056 122.32 81.0056C122.16 81.0056 122.16 81.1652 122 81.1652C122 81.1652 122 81.1652 122.16 81.1652V81.0056H122C121.68 81.0056 121.36 81.1652 121.2 81.3249C121.04 81.3249 121.04 81.4845 120.88 81.4845C120.56 81.4845 120.4 81.3249 120.24 81.0056L120.08 80.846C120.08 80.6864 120.08 80.6864 120.24 80.5268C120.56 80.2075 120.88 79.8883 121.36 79.7287C121.52 79.7287 121.84 79.7287 122 79.7287C122.32 79.7287 122.48 79.5691 122.64 79.4095C122.64 79.4095 122.8 79.2499 122.64 79.2499H122.48C122.16 79.2499 121.68 79.4095 121.36 79.4095C121.36 79.2499 121.52 79.2499 121.68 79.2499C122 79.2499 122.32 79.0902 122.64 78.9306L122.8 78.771C122.8 78.771 122.8 78.771 122.64 78.771C122.32 78.771 122.16 78.9306 122 79.0902C122.32 78.6114 122.8 78.2922 123.12 77.8133C122.8 77.8133 122.64 77.9729 122.32 78.2922C122.16 78.4518 122 78.771 121.84 79.0902C121.84 79.0902 121.84 79.2499 121.68 79.2499H121.52V79.0902C121.52 78.771 121.84 78.2922 121.84 77.9729C121.84 77.9729 121.84 77.9729 121.84 77.8133H121.68C121.52 77.9729 121.52 78.2922 121.36 78.4518C121.36 78.771 121.36 78.9306 121.2 79.0902C121.2 79.0902 121.04 79.2499 121.04 79.0902C121.04 79.0902 121.04 79.0902 121.04 78.9306C121.04 78.6114 121.04 78.4518 121.2 78.1325V77.9729H121.04V78.1325C121.04 78.4518 121.04 78.6114 121.04 78.9306C120.88 79.5691 120.4 79.8883 119.92 80.2075C119.92 80.2075 119.92 80.2075 119.76 80.2075C119.6 79.8883 119.6 79.5691 119.6 79.2499C119.6 78.9306 119.6 78.6114 119.6 78.1325V77.9729C119.44 77.9729 119.44 77.9729 119.44 78.1325C119.44 77.9729 119.6 77.8133 119.44 77.4941C119.44 77.4941 119.44 77.3345 119.28 77.3345C119.12 77.3345 119.12 77.3345 119.12 77.4941C118.96 77.6537 118.96 77.9729 118.96 78.1325C118.96 77.9729 118.8 78.1325 118.64 78.1325C118.48 78.2922 118.48 78.4518 118.48 78.6114C118.48 78.771 118.48 78.771 118.48 78.9306C118.48 78.9306 118.48 78.9306 118.32 78.9306C118.16 79.0902 118 79.4095 118 79.7287C118 80.0479 118.16 80.2075 118.32 80.5268C118.32 80.6864 118.48 80.6864 118.48 80.6864C118.64 80.6864 118.8 80.5268 118.96 80.3672C119.12 80.2076 119.44 80.2075 119.6 80.5268H119.44C119.76 80.6864 119.92 81.1652 119.76 81.4845C119.76 81.6441 119.6 81.6441 119.6 81.8037C119.6 81.9633 119.6 82.1229 119.76 82.2826C119.92 82.4422 119.92 82.6018 120.24 82.6018C120.4 82.6018 120.4 82.6018 120.56 82.6018C120.08 82.4422 120.08 82.2826 120.08 82.2826Z" fill="#7EC152"/>
<path d="M104.08 103.671C104.72 102.873 105.04 101.916 105.04 100.798V98.4041C105.04 91.2215 102 84.358 96.56 79.5695L94.8 77.9734C92.4 75.8984 91.12 72.8657 90.96 69.833L89.68 37.4311L88.72 29.7695H74.32L73.36 37.4311L72.24 69.833C72.08 73.0253 70.8 75.8984 68.4 77.9734L66.64 79.5695C61.2 84.358 58.16 91.2215 58.16 98.4041V100.798C58.16 101.756 58.48 102.873 59.12 103.671C59.76 104.47 60.08 105.427 60.08 106.385L61.2 160.814C61.2 162.57 60.72 164.325 59.92 165.921C59.76 166.081 59.76 166.241 59.6 166.4C58.64 167.996 58 169.752 58 171.668V177.414C58.48 178.212 59.12 178.85 59.92 179.17C63.76 180.606 71.44 183 81.36 183C91.92 183 99.28 180.766 103.12 179.01C103.76 178.691 104.4 178.212 104.72 177.414V171.508C104.72 169.593 104.24 167.837 103.12 166.241C102 164.645 101.52 162.729 101.52 160.654L103.12 106.385C103.12 105.427 103.44 104.47 104.08 103.671Z" fill="#649941"/>
<path d="M81.6799 26.5775C77.1999 26.5775 73.9999 26.0987 73.9999 25.4602L73.3599 29.6102C73.3599 30.2487 77.0399 30.7275 81.5199 30.7275C85.9999 30.7275 89.6799 30.2487 89.6799 29.6102L88.8799 25.4602C89.0399 26.0987 86.1599 26.5775 81.6799 26.5775Z" fill="#808080"/>
<path d="M81.68 24.3425C77.2 24.3425 74 24.8214 74 25.4598C74 26.0983 77.04 26.5771 81.68 26.5771C86.32 26.5771 89.2 26.0983 89.2 25.4598C89.04 24.8214 86.16 24.3425 81.68 24.3425Z" fill="#B3B3B3"/>
<path d="M81.6801 37.2715C78.4801 37.2715 75.6001 37.1119 73.8401 36.6331C72.8801 36.4735 72.0801 37.1119 72.0801 38.0696V39.6658C72.0801 40.3042 72.4001 40.9427 73.0401 41.1023C74.6401 41.5812 77.6801 41.9004 81.6801 41.9004C85.8401 41.9004 88.8801 41.5812 90.3201 40.9427C90.8001 40.7831 91.2801 40.1446 91.2801 39.6658V38.0696C91.2801 37.1119 90.4801 36.4735 89.5201 36.6331C87.7601 37.1119 84.8801 37.2715 81.6801 37.2715Z" fill="#58823D"/>
<path d="M91.2801 72.387C91.1201 71.5889 90.9601 70.7909 90.9601 69.9928L90.0001 41.4216C88.4001 41.9005 85.6801 42.2197 81.6801 42.2197C77.8401 42.2197 74.9601 41.9005 73.3601 41.4216L72.4001 69.9928C72.4001 70.7909 72.2401 71.7486 72.0801 72.5466C74.3201 72.8659 77.6801 73.1851 81.6801 73.1851C85.5201 73.0255 89.0401 72.7062 91.2801 72.387Z" fill="#EF3030"/>
<path d="M91.1199 71.1102L90.9599 69.8333C88.7199 70.3121 85.0399 70.4717 81.1999 70.4717C77.5199 70.4717 74.6399 70.3121 72.2399 69.8333L71.9199 72.3871C74.3199 72.8659 77.5199 73.0256 81.1999 73.0256C85.1999 73.0256 88.8799 72.7063 91.2799 72.3871L91.1199 71.1102Z" fill="#BA0909"/>
<g opacity="0.3">
<path d="M76.3999 165.922C76.2399 165.602 75.9199 165.443 75.7599 165.283C72.2399 163.208 69.8399 159.697 68.3999 155.866C66.9599 152.035 66.3199 148.045 65.8399 144.054C65.0399 136.233 64.8799 128.252 65.3599 120.431C65.5199 118.516 65.6799 116.6 66.3199 114.845C66.9599 113.089 68.2399 111.493 69.9999 110.695C70.4799 110.535 72.8799 109.098 72.5599 108.62C72.3999 108.3 70.7999 108.141 70.4799 107.981C68.7199 107.981 62.3199 106.704 61.5199 106.385C61.8399 107.023 61.9999 142.298 62.9599 159.058C62.9599 160.016 63.1199 160.973 63.4399 161.772C64.0799 163.368 65.8399 164.485 67.4399 165.283C69.6799 166.241 71.9199 166.879 74.3199 167.358C74.7999 167.358 75.4399 167.518 75.9199 167.198C76.3999 167.039 76.7199 166.4 76.3999 165.922Z" fill="#D9E021"/>
</g>
<path d="M81.2001 44.4543C85.2001 44.4543 88.0801 44.135 90.0001 43.6562L89.8401 41.262C88.2401 41.7408 84.7201 42.06 81.2001 42.06C77.8401 42.06 74.9601 41.7408 73.2001 41.262L73.0401 43.8158C75.1201 44.2947 77.6801 44.4543 81.2001 44.4543Z" fill="#BA0909"/>
<path d="M104.56 102.714C99.44 104.151 91.76 105.587 81.52 105.587C71.76 105.587 63.76 103.991 58.8 102.714C58.96 103.033 59.12 103.353 59.28 103.672C59.6 103.991 59.76 104.31 59.92 104.789C65.04 106.066 72.56 107.503 81.68 107.503C91.28 107.503 98.64 106.226 103.6 104.949C103.76 104.47 103.92 104.151 104.24 103.831C104.24 103.353 104.4 103.033 104.56 102.714Z" fill="#466D2D"/>
<path d="M101.52 106.704C101.2 106.226 100.4 106.226 100.24 106.864L101.2 106.704C98.48 107.183 95.92 107.502 93.2 107.981C92.88 107.981 92.56 108.141 92.4 108.301C91.92 108.939 93.04 109.577 93.84 109.897C94.96 110.376 95.76 111.493 96.08 112.77C96.4 114.047 96.24 115.164 96.24 116.441C95.6 128.412 95.6 140.224 96.24 152.195C96.4 154.11 96.4 156.026 95.76 157.781C94.48 161.612 90.64 163.687 86.96 165.124C86.32 165.443 85.52 165.922 85.84 166.72C86 167.039 86.48 167.199 86.8 167.199C90 167.837 93.2 166.72 96.4 165.762C97.52 165.443 98.64 165.124 99.44 164.326C101.04 162.889 100.88 160.495 100.88 158.26C100.4 149.002 100.88 139.745 101.52 130.487C101.68 127.614 101.84 124.901 102 122.027C102.32 117.399 102.48 112.77 102.48 108.141C101.84 107.822 101.84 107.183 101.52 106.704Z" fill="#466D2D"/>
<path d="M59.9193 165.922C59.7597 166.081 59.7597 166.241 59.6 166.4C59.7597 166.241 59.9193 166.081 59.9193 165.922Z" fill="#581F0F"/>
<path opacity="0.5" d="M99.1201 166.56C95.2801 167.358 88.8801 168.954 81.6801 168.954C74.4801 168.954 68.0801 167.518 64.2401 166.56C63.6001 166.4 62.9601 166.56 62.4801 166.72C62.4801 166.879 62.3201 166.879 62.3201 167.039C61.3601 168.316 60.8801 169.752 60.8801 171.189V175.658C61.2001 176.297 61.8401 176.775 62.6401 177.095C66.0001 178.212 72.8801 180.127 81.8401 180.127C91.2801 180.127 97.8401 178.372 101.2 177.095C101.84 176.935 102.32 176.456 102.64 175.818V171.189C102.64 169.752 102.16 168.316 101.2 167.039C101.04 166.879 101.04 166.879 101.04 166.72C100.24 166.56 99.7601 166.56 99.1201 166.56Z" fill="#466D2D"/>
<path d="M102.64 164.804C98.9601 166.56 91.7601 168.635 81.5201 168.635C71.9201 168.635 64.4001 166.24 60.7201 164.804C60.5601 164.804 60.5601 164.644 60.4001 164.644C60.2401 165.123 60.0801 165.442 59.7601 165.762C59.6001 165.921 59.6001 166.081 59.4401 166.24C59.2801 166.4 59.2801 166.56 59.2801 166.719C59.6001 167.198 60.0801 167.517 60.5601 167.677C64.2401 169.114 71.7601 171.508 81.3601 171.508C91.6001 171.508 98.8001 169.273 102.48 167.517C102.96 167.358 103.28 167.039 103.44 166.719C103.28 166.56 103.28 166.4 103.12 166.24C103.12 165.762 102.96 165.283 102.64 164.804Z" fill="#6EA848"/>
<path d="M95.92 120.431C94.8 120.112 93.52 119.952 92.24 119.633L91.44 119.473L91.12 118.675C90.32 113.887 86.32 110.375 81.52 110.375C76.72 110.375 72.72 113.727 71.92 118.516L71.76 119.314L70.96 119.473C69.68 119.633 68.4 119.952 67.28 120.112C65.68 120.431 64.56 121.868 64.56 123.464V157.143C64.56 158.739 65.68 160.175 67.28 160.494C76.88 162.889 87.44 162.729 96.08 160.654C97.68 160.335 98.8 158.898 98.8 157.302V123.783C98.48 122.187 97.36 120.75 95.92 120.431Z" fill="#267F31"/>
<path d="M96.4 118.037C95.44 117.877 94.48 117.558 93.36 117.399C92.08 111.812 87.28 107.981 81.52 107.981C75.76 107.981 70.96 111.812 69.52 117.239C68.4 117.399 67.44 117.558 66.48 117.877C63.76 118.516 61.84 120.91 61.84 123.624V157.302C61.84 160.016 63.76 162.41 66.32 163.049C71.12 164.166 76.24 164.804 81.2 164.804C86.48 164.804 91.6 164.325 96.08 163.208C98.8 162.57 100.72 160.175 100.72 157.462V123.783C101.04 121.07 99.12 118.675 96.4 118.037ZM98.48 157.462C98.48 159.058 97.36 160.495 95.76 160.814C87.12 162.889 76.56 163.049 66.96 160.654C65.36 160.335 64.24 158.899 64.24 157.302V123.624C64.24 122.027 65.36 120.591 66.96 120.272C68.08 119.952 69.36 119.793 70.64 119.633L71.44 119.474L71.6 118.675C72.4 113.887 76.56 110.535 81.2 110.535C86 110.535 90.16 114.047 90.8 118.835L90.96 119.633L91.76 119.793C93.04 119.952 94.32 120.272 95.44 120.591C97.04 120.91 98.16 122.347 98.16 123.943V157.462H98.48Z" fill="#EF3030"/>
<path d="M81.6799 127.613C85.8331 127.613 89.1999 124.255 89.1999 120.112C89.1999 115.968 85.8331 112.61 81.6799 112.61C77.5268 112.61 74.1599 115.968 74.1599 120.112C74.1599 124.255 77.5268 127.613 81.6799 127.613Z" fill="#F2F2F2"/>
<path d="M96.24 132.562H66.64V143.096H96.24V132.562Z" fill="#F2F2F2"/>
<path opacity="0.2" d="M66.64 144.693V158.42C66.8 158.42 66.96 158.579 67.12 158.579C67.76 158.739 68.56 158.898 69.36 158.898V144.693H66.64Z" fill="#D9E021"/>
<path opacity="0.2" d="M70.4801 144.693V159.058C71.2801 159.218 72.2401 159.218 73.0401 159.377V144.693H70.4801Z" fill="#D9E021"/>
<path opacity="0.2" d="M74.3199 144.693V159.537C75.1199 159.696 76.0799 159.696 76.8799 159.696V144.693H74.3199Z" fill="#D9E021"/>
<path opacity="0.2" d="M78.32 144.693V159.856C79.28 159.856 80.08 159.856 80.88 159.856V144.693H78.32Z" fill="#D9E021"/>
<path opacity="0.2" d="M82.16 144.693V159.856C83.12 159.856 83.92 159.856 84.72 159.856V144.693H82.16Z" fill="#D9E021"/>
<path opacity="0.2" d="M86 144.693V159.856C86.96 159.856 87.76 159.696 88.56 159.696V144.693H86Z" fill="#D9E021"/>
<path opacity="0.2" d="M93.6801 144.693V159.058C94.4801 158.898 95.1201 158.898 95.9201 158.739C96.0801 158.739 96.2401 158.579 96.4001 158.579V144.693H93.6801Z" fill="#D9E021"/>
<path opacity="0.2" d="M89.8401 144.693V159.537C90.8001 159.377 91.6001 159.377 92.4001 159.218V144.693H89.8401Z" fill="#D9E021"/>
<path d="M73.2 135.435H74.8C75.76 135.435 76.56 135.755 76.56 136.712C76.56 137.191 76.24 137.67 75.76 137.83C76.4 137.989 76.88 138.308 76.88 138.947C76.88 139.905 76.08 140.383 74.96 140.383H73.2V135.435ZM74.96 137.351C75.44 137.351 75.76 137.191 75.76 136.712C75.76 136.393 75.44 136.233 74.96 136.233H74.48V137.351H74.96ZM74.96 139.426C75.6 139.426 75.92 139.266 75.92 138.787C75.92 138.308 75.6 138.149 74.96 138.149H74.32V139.426H74.96Z" fill="#BA0909"/>
<path d="M77.8401 135.435H80.8801V136.393H78.9601V137.351H80.5601V138.308H78.9601V139.426H81.0401V140.383H77.8401V135.435Z" fill="#BA0909"/>
<path d="M81.8401 135.435H84.8801V136.393H82.9601V137.351H84.5601V138.308H82.9601V139.426H85.0401V140.383H81.8401V135.435Z" fill="#BA0909"/>
<path d="M88.56 140.224L87.6 138.468H86.96V140.224H85.84V135.435H87.6C88.56 135.435 89.52 135.755 89.52 136.872C89.52 137.51 89.2 137.989 88.72 138.308L89.84 140.224H88.56ZM86.96 137.67H87.44C88.08 137.67 88.4 137.351 88.4 136.872C88.4 136.393 88.08 136.233 87.44 136.233H86.96V137.67Z" fill="#BA0909"/>
<path opacity="0.4" d="M82.1599 128.253L82.4799 129.21L83.5999 129.37L82.7999 130.008L82.9599 130.966L82.1599 130.487L81.1999 130.966L81.3599 130.008L80.7199 129.37L81.6799 129.21L82.1599 128.253Z" fill="#D9E021"/>
<path opacity="0.4" d="M77.8401 128.253L78.1601 129.21L79.1201 129.37L78.4801 130.008L78.6401 130.966L77.8401 130.487L76.8801 130.966L77.0401 130.008L76.4001 129.37L77.3601 129.21L77.8401 128.253Z" fill="#D9E021"/>
<path opacity="0.4" d="M86.9599 128.253L87.4399 129.21L88.3999 129.37L87.7599 130.008L87.9199 130.966L86.9599 130.487L86.1599 130.966L86.3199 130.008L85.5199 129.37L86.4799 129.21L86.9599 128.253Z" fill="#D9E021"/>
<path d="M76.56 122.506V117.718H77.84L78.64 119.473C78.8 119.952 79.12 120.591 79.28 121.069C79.28 120.431 79.12 119.793 79.12 118.994V117.718H80.08V122.506H78.96L78.16 120.75C78 120.271 77.68 119.633 77.52 119.154C77.52 119.793 77.52 120.431 77.52 121.229V122.666H76.56V122.506ZM83.12 119.154C83.12 120.112 82.48 120.431 81.84 120.431C81.04 120.431 80.56 119.952 80.56 119.154C80.56 118.356 81.04 117.877 81.84 117.877C82.64 117.877 83.12 118.356 83.12 119.154ZM80.72 121.229V120.75H82.96V121.229H80.72ZM81.36 119.154C81.36 119.633 81.52 119.952 81.84 119.952C82.16 119.952 82.32 119.633 82.32 119.154C82.32 118.835 82.16 118.356 81.84 118.356C81.52 118.356 81.36 118.835 81.36 119.154Z" fill="#EF3030"/>
<path d="M83.7601 121.708H84.7201V118.995H83.7601V118.357C84.2401 118.197 84.5601 118.197 84.8801 117.878H85.6801V121.708H86.6401V122.666H83.6001V121.708H83.7601Z" fill="#EF3030"/>
<path d="M70.3201 77.9735C72.2401 78.6119 76.2401 79.0908 81.3601 79.0908C86.8001 79.0908 90.6401 78.6119 92.5601 77.9735C93.0401 77.8138 93.3601 77.335 93.5201 76.8561C92.4001 75.5792 91.6001 73.9831 91.1201 72.2273C88.8801 72.7061 85.3601 72.8658 81.2001 72.8658C77.3601 72.8658 73.8401 72.5465 71.6001 72.2273C71.1201 73.9831 70.3201 75.5792 69.0401 77.0158C69.5201 77.6542 69.8401 77.8138 70.3201 77.9735Z" fill="#58823D"/>
<path d="M81.6801 30.7274C86.0001 30.7274 89.5201 30.2485 89.8401 29.6101C89.8401 29.4505 89.8401 29.2909 89.8401 29.2909C89.6801 28.4928 89.5201 27.6947 89.3601 27.0562C89.3601 26.8966 89.2001 26.737 89.0401 26.5774C88.7201 27.3755 89.0401 28.1735 89.2001 28.9716C89.2001 29.1312 89.2001 29.2909 89.0401 29.2909C88.7201 28.812 88.4001 28.3332 88.2401 27.8543C88.0801 27.5351 88.0801 27.2159 87.7601 27.2159C87.6001 27.2159 87.4401 27.3755 87.2801 27.5351C87.2801 27.6947 87.2801 28.0139 87.2801 28.1735C87.2801 28.4928 87.2801 28.812 87.2801 29.2909C87.2801 29.4505 87.2801 29.7697 87.1201 29.7697C86.8001 29.9293 86.3201 29.7697 86.1601 29.6101C86.0001 29.4505 85.8401 29.1312 85.8401 28.812C85.6801 28.4928 85.5201 28.3332 85.2001 28.3332C85.0401 28.3332 84.7201 28.6524 84.7201 28.812C84.7201 28.9716 84.5601 29.2909 84.5601 29.4505C84.4001 29.7697 84.2401 30.0889 83.7601 30.0889C83.4401 30.2485 82.9601 30.0889 82.8001 29.7697C82.6401 29.4505 82.4801 28.9716 82.1601 28.9716C81.8401 28.9716 81.6801 29.1312 81.5201 29.4505C81.3601 29.7697 81.2001 29.9293 81.0401 30.0889C80.7201 30.2485 80.4001 30.2485 80.0801 29.9293C79.7601 29.7697 79.6001 29.4505 79.2801 29.1312C79.1201 28.9716 78.9601 28.812 78.8001 28.812C78.4801 28.812 78.3201 28.9716 78.1601 29.1312C78.0001 29.2909 78.0001 29.6101 77.8401 29.7697C77.5201 29.9293 77.2001 29.9293 76.8801 29.7697C76.5601 29.6101 76.4001 29.2909 76.2401 29.1312C76.0801 28.9716 76.0801 28.6524 75.9201 28.6524C75.6001 28.4928 75.4401 28.812 75.2801 28.9716C75.1201 29.4505 74.9601 29.7697 74.6401 29.7697C74.4801 29.7697 74.1601 29.7697 74.0001 29.4505C73.8401 29.2909 73.8401 28.9716 73.6801 28.812H73.5201V29.2909C73.3601 30.2485 77.0401 30.7274 81.6801 30.7274Z" fill="#666666"/>
<g opacity="0.1">
<path d="M88.72 79.8885C88.08 78.6115 87.28 77.4942 86.32 76.6962C84.4 75.1 81.68 74.7808 79.12 74.9404C76.56 74.9404 73.52 75.4192 71.92 77.3346C71.92 77.3346 68.08 80.5269 65.84 83.2404C63.6 85.9538 61.84 89.1462 61.36 92.6577C61.04 94.5731 61.36 96.8077 62.48 98.4038C63.6 100 65.68 100.798 67.6 101.277C70.16 101.915 72.88 102.235 75.6 102.235C76.72 102.235 77.84 102.075 78.8 101.915C81.36 101.277 83.44 99.3615 85.2 97.2865C89.04 92.4981 91.28 85.6346 88.72 79.8885Z" fill="#D9E021"/>
</g>
<g opacity="0.5">
<path d="M94.4799 80.0481L96.0799 81.4846C98.9599 83.7193 100.4 87.3904 101.04 90.9019C101.52 94.0942 101.36 97.925 98.9599 100C97.8399 101.117 96.2399 101.596 94.7999 102.075C91.7599 103.033 88.7199 103.671 85.5199 103.99C86.1599 104.788 87.2799 104.788 88.3999 104.629C92.2399 104.15 96.0799 103.352 99.9199 102.235C100.72 101.915 101.68 101.756 102.16 101.117C102.96 100.319 103.12 99.0423 103.28 97.925C103.6 91.2212 100.24 84.0385 94.4799 80.0481Z" fill="#466D2D"/>
</g>
<g opacity="0.2">
<path d="M68.8799 174.381C66.4799 172.784 64.7199 170.231 62.1599 168.794C61.8399 168.634 61.3599 168.475 61.0399 168.475C60.3999 168.634 60.0799 169.273 59.9199 169.911C59.9199 169.911 59.1199 174.061 60.7199 175.498C62.3199 176.934 65.5199 177.094 67.5999 177.413C69.0399 177.573 70.4799 177.733 72.0799 177.733C72.7199 177.733 73.5199 177.733 73.8399 177.094C72.2399 175.977 70.3199 175.338 68.8799 174.381Z" fill="#DADADA"/>
</g>
<g opacity="0.7">
<path d="M79.1199 169.912C75.1199 169.593 69.0399 169.114 64.3999 167.199C63.4399 166.879 62.4799 166.401 61.5199 166.401V167.039C63.1199 168.476 64.5599 168.635 66.6399 169.274C70.9599 170.391 76.5599 171.349 81.0399 170.87C86.9599 170.551 79.9199 169.912 79.1199 169.912Z" fill="#DADADA"/>
</g>
<g opacity="0.7">
<path d="M101.52 168.635C101.52 168.635 99.9199 169.273 99.4399 169.433C97.8399 170.072 96.2399 170.391 94.6399 171.029C94.3199 171.189 93.8399 171.348 93.6799 171.668C93.5199 171.827 93.5199 172.147 93.5199 172.466C93.5199 174.062 92.2399 175.179 90.9599 175.977C89.0399 177.095 86.7999 177.733 84.5599 178.212C82.9599 178.531 81.5199 179.01 79.9199 179.329C86.1599 179.808 92.5599 179.01 98.6399 177.254C99.7599 176.935 100.88 176.456 101.52 175.658C102 175.02 101.84 174.381 101.84 173.583C101.84 171.827 101.68 170.55 101.52 168.635Z" fill="#466D2D"/>
</g>
<g opacity="0.5">
<path d="M101.2 165.922C99.12 166.56 96.88 167.358 94.8 168.156C95.28 168.795 96.24 168.635 96.88 168.475C97.84 168.316 98.96 167.997 99.92 167.837C100.4 167.677 101.04 167.518 101.36 167.199C101.84 166.879 101.68 166.081 101.2 165.922Z" fill="#466D2D"/>
</g>
<path d="M87.44 31.5256C87.92 31.5256 88.56 31.6852 89.04 31.6852L88.88 29.9294C87.44 30.2487 84.72 30.5679 81.68 30.5679C78.48 30.5679 75.76 30.2487 74.48 29.9294V30.4083C76.4 31.366 78.48 31.5256 80.56 31.5256C82.8 31.6852 85.2 31.366 87.44 31.5256Z" fill="#466D2D"/>
<path opacity="0.3" d="M75.12 36.1541C76.4 36.4733 78.16 36.6329 80.08 36.6329C79.44 35.6752 78.8 34.2387 79.12 33.1214C79.28 32.8021 79.44 32.3233 79.28 32.0041C79.12 31.6848 78.8 31.5252 78.64 31.5252C76.4 31.8445 75.12 30.7271 74.96 32.3233C74.8 33.281 74.64 34.2387 74.48 35.1964C74.48 35.356 74.48 35.5156 74.48 35.8348C74.64 35.8348 74.96 36.1541 75.12 36.1541Z" fill="#DADADA"/>
<path opacity="0.5" d="M88.4 35.9945C88.88 35.6753 88.88 35.0368 88.88 34.558C88.88 33.7599 88.88 32.9618 88.56 32.1638C88.4 31.8445 88.4 31.5253 88.08 31.3657C87.76 31.2061 87.44 31.3657 87.28 31.5253C87.28 31.5253 86.8 33.2811 86.48 34.3984C86 35.9945 83.6 36.3138 82.8 36.633C84.88 36.633 86.16 36.4734 86.96 36.4734C87.44 36.3138 87.92 36.3138 88.4 35.9945Z" fill="#466D2D"/>
<path opacity="0.3" d="M78.0001 46.3699C77.6801 44.9333 75.9201 44.6141 74.6401 45.4122C74.6401 45.4122 74.3201 58.341 73.8401 64.7256C73.8401 65.5237 73.6801 66.8006 74.0001 67.5987C74.3201 68.3968 74.9601 68.716 75.9201 68.5564C76.8801 68.3968 77.2001 67.2795 77.5201 66.3218C78.9601 60.416 78.8001 49.5622 78.0001 46.3699Z" fill="#DADADA"/>
<path opacity="0.7" d="M82.64 38.0695C82.48 37.9099 82.32 37.9099 82.16 37.9099C80.72 37.7503 79.44 37.9099 78 37.7503C76.88 37.7503 75.44 37.431 74.32 37.2714C72.24 36.9522 72.72 37.7503 72.72 37.7503C72.56 38.0695 73.04 38.3887 73.36 38.3887C76.24 39.0272 79.12 39.0272 82 38.5483C82.32 38.708 82.8 38.3887 82.64 38.0695Z" fill="#DADADA"/>
<path opacity="0.5" d="M90.0001 67.1194C90.0001 59.2983 89.2001 43.4963 89.2001 43.4963C87.9201 43.4963 86.4801 44.454 86.0001 45.5713C85.6801 46.3694 85.6801 47.4867 85.6801 48.2848C85.8401 53.8713 85.0401 59.4579 83.6001 64.8848C83.2801 66.3213 82.9601 68.0771 84.2401 68.7156C84.7201 68.8752 85.2001 68.8752 85.5201 68.8752C86.1601 68.8752 86.8001 68.7156 87.6001 68.7156C90.4801 68.556 90.0001 67.5983 90.0001 67.1194Z" fill="#BA0909"/>
<g opacity="0.1">
<path d="M78.32 77.3349C76.24 76.3772 73.68 76.6964 71.6 77.8137C71.6 77.8137 66.16 82.283 64.4 85.9541C62.8 89.6253 63.12 94.4137 66.32 96.808C66.8 97.1272 67.28 97.4464 67.92 97.4464C68.72 97.4464 69.52 96.808 69.84 96.1695C70.32 95.531 70.48 94.733 70.8 93.9349C71.6 92.1791 72.72 90.583 74.32 89.306C75.6 88.3484 77.04 87.5503 78.32 86.7522C79.6 85.7945 80.88 84.6772 81.2 83.081C81.84 80.6868 80.4 78.2926 78.32 77.3349Z" fill="#D9E021"/>
</g>
<g opacity="0.7">
<path d="M72.88 78.7711C72.56 78.6115 72.08 78.4519 71.76 78.2922C71.28 78.2922 70.96 78.4518 70.48 78.6115C69.36 79.2499 67.12 81.8038 66.16 83.0807C66.16 83.0807 65.2 84.8365 64.72 86.4326C64.56 87.2307 64.56 88.0288 64.72 88.8268C64.88 89.6249 65.52 90.423 66.32 90.5826C66.96 90.5826 67.76 89.7845 68.24 89.3057C68.56 88.8268 68.88 88.348 69.2 87.7095C69.84 86.5922 70.64 85.6345 71.6 84.9961C72.24 84.5172 72.88 84.0384 73.52 83.3999C74.16 82.7615 74.64 82.123 74.64 81.3249C74.48 80.3672 73.68 79.4095 72.88 78.7711Z" fill="#DADADA"/>
</g>
<path opacity="0.5" d="M94.32 94.5734C94 94.0946 93.52 93.7753 93.04 93.6157C92.88 93.4561 92.56 93.4561 92.4 93.4561C91.28 93.1369 90.48 92.1792 89.52 91.7003C88.88 91.5407 88.24 91.3811 87.6 91.3811C87.12 91.3811 86.48 91.3811 86 91.5407C85.84 91.5407 85.68 91.7003 85.36 91.86C84.88 92.0196 84.4 92.3388 84.24 92.8176C84.08 93.2965 84.24 93.7753 84.08 94.2542C84.08 94.5734 83.92 94.733 83.92 95.0523C83.92 95.5311 84.24 95.8503 84.24 96.3292C84.24 96.6484 84.24 96.808 84.4 97.1273C84.56 97.4465 84.72 97.6061 85.04 97.7657C85.2 97.9253 85.52 98.085 85.68 98.085C86 98.2446 86.32 98.085 86.48 98.085C87.12 98.085 87.76 97.9253 88.4 97.9253C88.72 97.9253 89.04 97.9253 89.36 97.7657C89.68 97.7657 89.84 97.6061 90 97.4465C90.64 97.1273 91.44 97.1273 92.08 96.9676C92.72 96.808 93.52 96.6484 94 96.1696C94.16 96.0099 94.16 96.01 94.32 95.8503C94.8 95.2119 94.48 94.8926 94.32 94.5734Z" fill="#466D2D"/>
<path d="M93.9999 93.9353C93.8399 93.9353 93.6799 93.9353 93.6799 93.7756C93.5199 93.7756 92.8799 93.7756 92.5599 93.7756C89.8399 94.7333 93.1999 95.691 93.9999 95.5314C94.4799 95.3718 94.7999 95.2122 94.7999 94.8929C94.9599 94.4141 94.4799 94.0949 93.9999 93.9353Z" fill="#8FD860"/>
<path d="M83.76 93.9348C83.44 93.4559 82.64 93.4559 82.16 93.4559C81.2 93.2963 80.08 93.2963 79.28 93.1367C78.48 92.9771 77.84 92.3386 77.84 91.3809C77.84 90.5828 78.96 89.9444 79.6 89.6252C80.56 89.1463 81.68 88.6675 82.64 88.3482C82.96 88.1886 82.8 87.8694 82.48 87.8694C81.04 88.3482 79.76 88.8271 78.48 89.6252C77.68 90.104 77.04 90.5828 77.2 91.7002C77.36 92.4982 77.84 93.1367 78.48 93.2963C78.96 93.4559 79.6 93.4559 80.08 93.6155C80.88 93.6155 82.64 93.7752 83.28 94.254C83.6 94.4136 83.92 94.0944 83.76 93.9348Z" fill="#58823D"/>
<path d="M93.0399 95.3716C92.5599 95.0523 92.0799 94.5735 91.5999 94.5735C91.1199 94.5735 90.6399 94.7331 90.4799 95.212C90.4799 95.212 90.3199 95.6908 90.3199 96.1696C90.3199 96.3293 90.3199 96.4889 90.4799 96.6485C90.6399 96.8081 90.6399 96.8081 90.7999 96.8081C91.5999 96.9677 92.5599 96.6485 93.1999 96.1696C93.3599 96.1696 93.3599 96.01 93.3599 95.8504C93.3599 95.5312 93.1999 95.5312 93.0399 95.3716Z" fill="#7EC152"/>
<path d="M93.84 93.616C93.68 93.2968 93.2 92.9776 92.88 92.818C92.56 92.6583 92.24 92.3391 91.92 92.3391C91.6 92.3391 90.8 92.4987 90.64 92.6583C90.48 93.1372 90.64 93.4564 90.96 93.7756C91.12 93.9353 91.6 93.9353 91.76 94.0949C92.4 94.2545 92.88 94.2545 93.52 94.2545H93.68C94 94.0949 94 93.7756 93.84 93.616Z" fill="#7EC152"/>
<path d="M90.48 96.1694C90.16 96.0098 89.84 95.6905 89.36 95.6905C89.04 95.5309 88.56 95.5309 88.24 95.8502C87.92 96.0098 86.32 97.2867 87.76 97.4463C88.4 97.4463 89.04 97.6059 89.68 97.6059C90 97.6059 90.16 97.6059 90.48 97.6059C90.8 97.4463 90.96 97.2867 90.96 96.9675C90.96 96.4886 90.8 96.329 90.48 96.1694Z" fill="#7EC152"/>
<path d="M91.92 94.0946C91.92 93.935 91.76 93.935 91.6 93.7753C91.28 93.4561 90.8 93.2965 90.48 93.2965C90 93.1369 89.52 93.1369 89.04 93.4561C88.72 93.7753 88.56 94.2542 88.72 94.5734C88.72 94.8926 88.88 95.0523 89.04 95.3715C89.36 95.5311 89.84 95.5311 90.32 95.3715C90.8 95.2119 91.28 94.8926 91.6 94.5734C91.76 94.5734 91.92 94.4138 91.92 94.0946Z" fill="#8FD860"/>
<path d="M92.24 92.0199C91.92 91.8603 91.76 91.541 91.44 91.3814C91.12 91.2218 90.8 90.9026 90.48 90.9026C90.32 90.9026 90 91.0622 89.84 91.0622C89.84 91.0622 89.52 91.3814 89.36 91.8603C89.36 92.1795 89.36 92.6584 89.68 92.9776C90 93.1372 90.32 93.1372 90.64 93.1372C91.12 93.1372 91.6 92.9776 92.08 92.818C92.24 92.818 92.56 92.6584 92.56 92.3391C92.56 92.3391 92.4 92.1795 92.24 92.0199Z" fill="#7EC152"/>
<path d="M89.3601 96.1694C89.2001 96.0098 89.04 95.8502 88.88 95.6906C88.4 95.3714 87.9201 94.8925 87.4401 94.7329C87.1201 94.5733 86.6401 94.4137 86.3201 94.7329C86.1601 94.8925 86.1601 95.0521 86.1601 95.2117C86.1601 95.531 86.0001 96.0098 86.1601 96.329C86.3201 96.6483 86.4801 97.2867 86.8001 97.2867C86.8001 97.2867 88.0801 97.1271 88.5601 97.1271C88.8801 97.1271 89.0401 97.1271 89.2001 96.9675C89.3601 96.6483 89.3601 96.329 89.3601 96.1694Z" fill="#7EC152"/>
<path d="M89.6799 90.7431C88.8799 90.4239 87.4399 90.4239 86.3199 90.7431C85.8399 90.9027 85.6799 91.5412 85.9999 92.02L86.3199 92.3392C86.4799 92.6585 86.9599 92.8181 87.2799 92.6585C88.5599 92.3392 89.1999 92.02 89.6799 91.7008C89.8399 91.5412 90.1599 91.3815 90.1599 91.0623C90.1599 90.9027 89.8399 90.7431 89.6799 90.7431Z" fill="#7EC152"/>
<path d="M90.1601 92.9771C90.0001 92.9771 90.0001 92.9771 90.1601 92.9771C89.5201 92.6579 89.0401 92.3387 88.5601 92.179C88.0801 92.0194 87.4401 92.0194 86.9601 92.179C86.4801 92.3387 86.1601 92.8175 86.0001 93.456C86.0001 93.9348 86.1601 94.254 86.4801 94.5733C86.9601 94.8925 87.4401 94.7329 87.9201 94.5733C88.4001 94.4137 88.7201 94.0944 89.2001 93.7752C89.3601 93.6156 89.6801 93.456 89.8401 93.2963C90.0001 93.2963 90.1601 93.1367 90.1601 92.9771Z" fill="#8FD860"/>
<path d="M86.8 90.2644C86.64 90.1047 86.48 90.1047 86.16 90.1047C85.52 90.1047 84.88 90.2644 84.4 90.7432C83.92 91.222 83.44 92.6586 83.76 93.1374L85.68 92.0201C86.16 91.8605 86.48 91.3817 86.8 91.0624C86.96 90.7432 86.96 90.424 86.8 90.2644Z" fill="#7EC152"/>
<path d="M86.96 96.8082C86.8 96.489 86.64 96.3294 86.48 96.0101C86.16 95.5313 85.52 95.0524 84.88 95.0524L83.92 94.8928C83.92 95.3717 84.08 96.6486 84.56 97.1274C84.88 97.4467 85.2 97.4467 85.68 97.6063C86 97.6063 86.32 97.7659 86.64 97.7659C86.96 97.7659 87.28 97.7659 87.44 97.6063C87.28 97.1274 87.12 96.9678 86.96 96.8082Z" fill="#7EC152"/>
<path d="M86.4801 92.9775C86.1601 92.4987 85.5201 92.1794 84.8801 92.1794C84.4001 92.1794 84.0801 92.4987 83.9201 92.8179C83.9201 92.8179 83.6001 93.4564 83.6001 93.7756C83.6001 94.2544 83.6001 94.5737 83.9201 94.8929C84.2401 95.2121 84.7201 95.2121 85.2001 95.2121C85.6801 95.0525 86.0001 94.8929 86.3201 94.5737C86.4801 94.4141 86.8001 94.2544 86.8001 94.0948C87.1201 93.7756 86.8001 93.2968 86.4801 92.9775Z" fill="#8FD860"/>
<path d="M81.3597 95.2116L81.2001 95.052C81.2001 95.052 81.2001 95.052 81.3597 95.2116Z" fill="#8EBE20"/>
<path d="M83.4399 93.9347C83.4399 94.0943 83.5999 94.0943 83.5999 94.2539C83.7599 93.6154 83.7599 93.1366 83.7599 92.4981C83.7599 92.3385 83.7599 92.3385 83.5999 92.1789C83.4399 92.0193 83.2799 92.0193 82.9599 92.0193C82.4799 92.0193 81.9999 92.1789 81.6799 92.6578C81.3599 92.977 81.3599 93.6154 81.5199 94.0943C81.6799 94.2539 81.6799 94.4135 81.8399 94.4135C81.9999 94.4135 82.1599 94.4135 82.3199 94.2539C82.1599 94.2539 81.9999 94.0943 81.9999 93.9347C81.9999 93.7751 81.9999 93.6154 82.1599 93.6154C82.3199 93.6154 82.4799 93.6154 82.4799 93.6154C83.1199 93.4558 83.2799 93.6154 83.4399 93.9347Z" fill="#7EC152"/>
<path d="M83.6 94.0949C83.6 94.2545 83.6 94.2545 83.6 94.4141L83.44 93.7756C83.28 94.4141 82.8 94.7333 82.32 95.0526C82.16 95.2122 81.84 95.2122 81.68 95.2122C81.52 95.2122 81.36 95.2122 81.36 95.0526C81.68 95.2122 82 95.3718 82.32 95.5314C82.48 95.5314 82.8 95.691 82.96 95.5314C83.44 95.3718 83.92 94.8929 83.76 94.2545C83.76 94.4141 83.76 94.2545 83.6 94.0949Z" fill="#7EC152"/>
<path d="M81.1997 95.052L81.0401 94.8923C81.0401 94.8923 81.0401 94.8923 81.1997 95.052Z" fill="#8EBE20"/>
<path opacity="0.5" d="M79.12 88.0292C78.96 87.8696 78.96 87.8696 78.8 87.8696C78.64 87.8696 78.48 88.0292 78.64 88.1888C78.48 88.1888 78.32 88.0292 78.32 87.71C78.16 87.5503 78.16 87.3907 78 87.2311C77.84 87.0715 77.52 87.2311 77.52 87.3907C77.52 87.3907 77.52 87.5503 77.36 87.5503H77.2C77.04 87.3907 76.88 87.2311 76.72 86.9119C76.56 86.7523 76.24 86.5926 76.08 86.7523C76.08 86.7523 76.08 86.7523 75.92 86.9119C75.76 86.9119 75.76 86.9119 75.76 86.7523C75.44 86.433 75.12 86.1138 74.8 85.9542C74.64 85.7946 74.32 85.7946 74.32 85.9542V86.1138C74.48 86.5926 74.64 87.0715 75.12 87.5503C74.8 87.5503 74.64 88.0292 74.8 88.3484C74.96 88.6676 75.28 88.8273 75.44 88.9869C75.28 88.9869 75.12 89.1465 74.96 89.3061C74.96 89.4657 75.12 89.6253 75.28 89.7849C75.44 89.9446 75.6 89.9446 75.76 90.1042C76.08 90.2638 76.4 90.7426 76.56 91.0619C76.72 91.3811 76.56 91.86 76.24 91.86C76.08 91.86 75.76 91.7003 75.6 91.5407C75.28 91.2215 74.96 90.7426 74.8 90.4234C74.64 90.1042 74.48 89.785 74.16 89.4657C73.84 88.9869 73.2 88.8273 72.72 88.6676C72.56 88.6676 72.4 88.6676 72.24 88.6676C72.08 88.6676 71.92 88.8273 71.92 88.9869C71.6 88.8273 71.12 88.6676 70.8 88.8273C70.64 88.8273 70.64 88.8273 70.64 88.9869V89.1465C70.8 89.3061 70.96 89.4657 71.12 89.6253C70.64 89.3061 70.16 89.1465 69.52 89.1465H69.36C69.2 89.1465 69.2 89.4657 69.2 89.6253C69.2 89.6253 69.2 89.7849 69.36 89.7849C69.2 89.6253 69.04 89.6253 68.88 89.6253C68.24 89.4657 67.6 89.4657 66.96 89.4657C67.6 90.1042 68.56 90.583 69.52 90.9023C69.36 90.9023 69.04 90.9023 68.88 91.0619C68.72 91.2215 68.56 91.3811 68.72 91.5407C68.72 91.7003 68.88 91.7003 68.88 91.7003C69.2 91.86 69.52 92.0196 69.84 92.0196H69.68C69.52 92.1792 69.36 92.3388 69.36 92.658C69.36 92.8176 69.68 92.9773 69.84 92.9773C70.32 93.1369 70.96 93.1369 71.44 92.9773C71.28 92.9773 71.12 93.1369 70.96 93.1369C70.8 93.2965 70.8 93.4561 70.8 93.6157C70.8 93.7753 70.96 93.7753 71.12 93.7753C71.6 93.9349 72.24 93.9349 72.88 93.7753C73.52 93.6157 74 93.4561 74.64 93.2965C74.8 93.2965 74.96 93.1369 75.28 93.2965C75.44 93.2965 75.6 93.4561 75.76 93.6157C75.76 93.7753 75.6 94.0946 75.44 94.0946C75.28 94.2542 75.12 94.2542 74.8 94.2542C74.32 94.2542 74 94.4138 73.52 94.4138C73.36 94.4138 73.2 94.4138 73.04 94.5734C72.88 94.733 72.72 94.8926 72.72 95.0523C72.72 95.2119 73.04 95.3715 73.2 95.2119C72.72 95.3715 72.4 95.6907 71.92 95.8503C71.92 95.8503 71.76 95.8503 71.76 96.01C71.6 96.1696 71.76 96.3292 71.92 96.3292C71.76 96.808 71.92 96.808 72.08 96.808C71.44 97.1273 70.8 97.2869 70 97.6061C69.84 97.6061 69.68 97.7657 69.84 97.9253C70.64 97.9253 71.28 97.9253 72.08 97.7657C72.08 97.9253 71.92 98.085 71.92 98.2446C71.92 98.4042 72.24 98.4042 72.4 98.4042C72.72 98.2446 73.2 98.2446 73.52 98.085C73.68 98.2446 73.36 98.4042 73.36 98.5638C73.36 98.7234 73.68 98.7234 73.84 98.7234C74.16 98.5638 74.48 98.4042 74.8 98.2446C74.8 98.4042 74.8 98.5638 74.8 98.7234C74.8 98.883 74.8 99.0426 74.96 99.0426H75.12C75.6 98.883 75.76 98.5638 75.92 98.085C75.92 98.2446 76.08 98.2446 76.08 98.2446C76.24 98.2446 76.4 98.2446 76.72 98.2446C77.84 97.7657 78.64 96.9676 79.12 96.01C79.28 95.6907 79.28 95.3715 79.12 95.2119C78.96 95.0523 78.8 95.0523 78.48 95.0523C78.16 95.0523 78 94.733 78 94.5734C78 94.4138 78.16 94.0946 78.32 93.935C78.32 93.7753 78.64 93.6157 78.8 93.6157C79.12 93.6157 79.28 93.7753 79.6 93.935C80.24 94.0946 80.88 93.7753 81.2 93.1369C81.68 92.3388 81.52 91.2215 81.2 90.4234C80.4 89.4657 79.76 88.8273 79.12 88.0292Z" fill="#466D2D"/>
<path d="M79.76 91.2216C79.92 90.9023 79.76 90.4235 79.44 90.1042C79.28 89.9446 79.12 89.785 78.96 89.9446C78.8 89.9446 78.8 90.1042 78.8 90.1042C78.64 89.6254 78.32 89.1466 78 88.8273C78 88.8273 77.84 88.6677 77.68 88.6677C77.52 88.6677 77.36 88.8273 77.36 88.9869C77.36 89.1466 77.36 89.3062 77.52 89.4658C77.04 88.9869 76.56 88.5081 75.92 88.1889C75.76 88.1889 75.6 88.0292 75.44 88.1889V88.3485C75.44 88.6677 75.6 88.9869 75.92 89.1466C76.08 89.3062 76.24 89.4658 76.56 89.6254H76.4C76.24 89.6254 76.08 89.6254 76.08 89.785C76.08 89.9446 76.08 89.9446 76.24 90.1042C76.56 90.5831 77.04 90.9023 77.52 91.2216C77.68 91.3812 77.84 91.5408 78 91.7004C78.32 92.1792 78.16 92.8177 77.84 93.2966C77.84 93.4562 77.68 93.4562 77.52 93.6158C77.36 93.7754 77.04 93.6158 76.88 93.6158C76.08 93.2966 75.12 92.9773 74.64 92.1792C74.48 91.86 74.32 91.3812 74.16 91.0619C74 90.5831 73.52 90.2639 73.2 90.1042C73.04 90.1042 73.04 90.1042 72.88 90.1042C72.88 90.1042 72.88 90.2639 72.88 90.4235C73.2 91.0619 73.84 91.5408 74 92.1792C73.84 92.1792 73.68 91.86 73.52 91.7004C73.2 91.0619 72.72 90.5831 72.08 90.2639C71.92 90.1042 71.76 90.1042 71.6 90.2639V90.4235C71.92 90.7427 72.24 91.0619 72.56 91.3812C71.6 91.0619 70.48 90.7427 69.36 90.5831C69.68 91.0619 70.16 91.3812 70.64 91.5408C71.12 91.7004 71.76 91.7004 72.24 91.5408C72.4 91.5408 72.56 91.5408 72.56 91.5408C72.72 91.5408 72.72 91.7004 72.72 91.86C72.72 92.0196 72.56 92.0196 72.56 92.0196C71.92 92.1792 71.12 92.1792 70.32 92.4985C70.32 92.4985 70.16 92.4985 70.16 92.6581C70 92.8177 70.32 92.9773 70.48 92.9773C70.96 92.9773 71.44 92.9773 71.92 92.9773C72.4 92.8177 72.88 92.6581 73.2 92.8177C73.36 92.8177 73.52 92.9773 73.36 93.1369C73.36 93.1369 73.2 93.1369 73.2 93.2966C72.72 93.4562 72.24 93.6158 71.76 93.7754C71.6 93.7754 71.44 93.935 71.44 93.935C71.44 94.0946 71.44 94.0946 71.6 94.2542C71.76 94.2542 71.76 94.2542 71.92 94.2542C72.4 94.0946 72.88 93.7754 73.36 93.6158C74.48 93.2966 75.44 93.7754 76.56 94.2542C76.56 94.2542 76.72 94.2542 76.72 94.4139V94.5735C76.4 95.0523 75.76 95.3716 75.12 95.6908C74.48 96.01 73.84 96.1696 73.2 96.4889C73.04 96.4889 72.88 96.6485 72.88 96.8081C72.88 96.9677 73.2 97.1273 73.36 97.1273C73.04 97.1273 72.56 97.2869 72.24 97.4466C72.08 97.4466 72.08 97.6062 72.08 97.7658C72.08 97.9254 72.4 97.9254 72.56 97.9254C73.04 97.9254 73.36 97.9254 73.84 97.7658C73.68 97.9254 74 98.085 74.16 98.085C74.48 98.085 74.8 98.085 74.96 97.9254C75.12 97.7658 75.28 97.7658 75.44 97.7658C75.44 97.7658 75.6 97.7658 75.6 97.9254C76.08 98.2446 76.72 98.085 77.04 97.7658C77.52 97.4466 77.84 96.9677 78 96.6485C78.16 96.4889 78.16 96.3292 78.16 96.1696C78 95.8504 77.68 95.8504 77.36 95.6908C76.88 95.5312 76.72 94.8927 77.04 94.4139V94.7331C77.2 94.0946 77.84 93.4562 78.48 93.4562C78.64 93.4562 78.96 93.4562 79.12 93.4562C79.44 93.4562 79.6 93.1369 79.76 92.8177C79.92 92.4985 80.08 92.1792 79.92 91.86C79.92 91.7004 79.76 91.5408 79.6 91.3812C80.08 90.9023 79.76 91.0619 79.76 91.2216Z" fill="#7EC152"/>
<path opacity="0.5" d="M84.72 89.9449C84.72 89.9449 84.88 89.9449 84.88 89.7853C84.88 89.7853 84.88 89.6256 84.72 89.6256C84.72 89.6256 84.88 89.466 85.04 89.466C85.2 89.466 85.2 89.466 85.36 89.466C85.52 89.466 85.52 89.3064 85.36 89.1468C85.36 89.1468 85.36 89.1468 85.36 88.9872C85.52 88.8276 85.68 88.8276 85.68 88.8276C85.84 88.8276 86 88.6679 86 88.5083C86 88.5083 86 88.5083 86.16 88.5083C86.32 88.5083 86.64 88.3487 86.8 88.1891C86.96 88.1891 86.96 88.0295 86.96 88.0295C86.96 88.0295 86.96 88.0295 86.8 88.0295C86.48 88.0295 86.16 88.0295 86 88.0295C86 87.8699 85.84 87.7103 85.68 87.7103C85.52 87.7103 85.36 87.8699 85.2 87.8699C85.2 87.8699 85.2 87.7103 85.2 87.5506C85.04 87.5506 85.04 87.5506 84.88 87.5506C84.72 87.5506 84.72 87.7103 84.56 87.7103C84.4 87.8699 84.08 87.8699 83.92 87.8699C83.76 87.8699 83.6 87.7103 83.6 87.5506C83.6 87.391 83.76 87.391 83.92 87.391C84.24 87.391 84.4 87.2314 84.72 87.2314C84.88 87.2314 85.2 87.2314 85.36 87.2314C85.68 87.0718 85.84 86.9122 86 86.7526L86.16 86.5929V86.4333C86.32 86.2737 86.48 86.1141 86.48 85.9545V85.7949C86.32 85.7949 86.16 85.7949 86.16 85.9545C86.32 85.7949 86.64 85.6353 86.8 85.316C86.8 85.316 86.8 85.316 86.8 85.1564C86.8 84.9968 86.64 84.9968 86.64 84.9968C86.64 84.9968 86.64 84.9968 86.48 84.9968L86.64 84.8372C86.8 84.5179 86.96 84.3583 87.12 84.0391C86.64 84.1987 86.16 84.5179 85.84 84.8372C85.84 84.6776 85.84 84.6776 85.84 84.5179C85.84 84.3583 85.68 84.3583 85.68 84.3583H85.52C85.36 84.5179 85.2 84.5179 85.2 84.6776V84.5179C85.2 84.3583 85.2 84.1987 85.04 84.1987C84.88 84.1987 84.88 84.1987 84.72 84.3583C84.56 84.5179 84.4 84.8372 84.4 85.1564C84.4 84.9968 84.4 84.9968 84.4 84.8372C84.4 84.6776 84.24 84.6776 84.24 84.6776C84.24 84.6776 84.08 84.6776 84.08 84.8372C83.92 84.9968 83.76 85.316 83.6 85.6353C83.6 85.9545 83.6 86.2737 83.44 86.5929C83.44 86.7526 83.44 86.7526 83.28 86.9122C83.28 87.0718 83.12 87.0718 82.96 87.0718C82.8 87.0718 82.8 86.9122 82.8 86.7526C82.8 86.5929 82.8 86.5929 82.8 86.4333C82.8 86.2737 82.96 85.9545 82.96 85.7949C82.96 85.6353 82.96 85.6353 82.96 85.4756C82.96 85.316 82.96 85.316 82.8 85.316C82.64 85.316 82.64 85.316 82.64 85.4756C82.64 85.1564 82.64 84.9968 82.64 84.6776C82.64 84.6776 82.64 84.6776 82.64 84.5179H82.48L82.32 84.6776C82.32 84.3583 82.32 83.8795 82.32 83.5603C82.32 83.5603 82.32 83.4006 82.16 83.4006C82 83.7199 81.84 84.0391 81.84 84.5179C81.68 84.5179 81.68 84.3583 81.68 84.3583C81.52 84.3583 81.52 84.5179 81.52 84.5179C81.52 84.6776 81.52 84.8372 81.36 85.1564C81.2 85.1564 81.2 84.9968 81.2 84.9968C81.04 84.9968 81.04 85.1564 81.04 85.1564C81.04 85.316 81.04 85.4756 81.04 85.7949C81.04 85.7949 80.88 85.7949 80.88 85.6353H80.72C80.72 85.6353 80.72 85.6353 80.72 85.7949C80.72 85.9545 80.72 86.2737 81.04 86.4333H80.88C80.88 86.4333 80.72 86.5929 80.72 86.7526C80.72 87.391 80.88 88.0295 81.36 88.3487C81.52 88.5083 81.68 88.5083 81.84 88.5083C82 88.5083 82 88.3487 82 88.1891C82.16 88.0295 82.32 88.0295 82.32 88.0295C82.48 88.0295 82.48 88.1891 82.48 88.3487C82.64 88.3487 82.64 88.5083 82.48 88.6679C82.48 88.8276 82.32 88.8276 82.16 88.9872C82 89.3064 82 89.6256 82.16 89.9449C82.48 90.4237 82.96 90.5833 83.44 90.5833C83.92 90.5833 84.24 90.1045 84.72 89.9449Z" fill="#466D2D"/>
<path d="M82.96 89.6254C83.12 89.785 83.44 89.785 83.6 89.785C83.76 89.785 83.76 89.785 83.76 89.6254V89.4658C84.08 89.4658 84.24 89.4658 84.56 89.3062C84.56 89.3062 84.72 89.3062 84.72 89.1466V88.9869H84.56C84.88 88.8273 85.2 88.6677 85.52 88.5081L85.68 88.3485C85.52 88.3485 85.36 88.3485 85.2 88.3485C85.04 88.3485 85.04 88.5081 84.88 88.5081C84.88 88.5081 84.88 88.5081 85.04 88.5081V88.3485H84.88C84.56 88.3485 84.24 88.5081 84.08 88.6677C83.92 88.6677 83.92 88.8273 83.76 88.8273C83.44 88.8273 83.28 88.6677 83.12 88.3485L82.96 88.1889C82.96 88.0293 82.96 88.0293 83.12 87.8696C83.44 87.5504 83.76 87.2312 84.24 87.0716C84.4 87.0716 84.72 87.0716 84.88 87.0716C85.2 87.0716 85.36 86.912 85.52 86.7523C85.52 86.7523 85.68 86.5927 85.52 86.5927H85.36C85.04 86.5927 84.56 86.7523 84.24 86.7523C84.24 86.5927 84.4 86.5927 84.56 86.5927C84.88 86.5927 85.2 86.4331 85.52 86.2735L85.68 86.1139C85.68 86.1139 85.68 86.1139 85.52 86.1139C85.2 86.1139 85.04 86.2735 84.88 86.4331C85.2 85.9543 85.68 85.635 86 85.1562C85.68 85.1562 85.52 85.3158 85.2 85.635C84.72 85.4754 84.72 85.635 84.56 85.9543C84.56 85.9543 84.56 86.1139 84.4 86.1139H84.24V85.9543C84.24 85.635 84.56 85.1562 84.56 84.837C84.56 84.837 84.56 84.837 84.56 84.6773H84.4C84.24 84.837 84.24 85.1562 84.08 85.3158C84.08 85.635 84.08 85.7946 83.92 85.9543C83.92 85.9543 83.76 86.1139 83.76 85.9543C83.76 85.9543 83.76 85.9543 83.76 85.7946C83.76 85.4754 83.76 85.3158 83.92 84.9966V84.837H83.76V84.9966C83.76 85.3158 83.76 85.4754 83.76 85.7946C83.6 86.4331 83.12 86.7523 82.64 87.0716C82.64 87.0716 82.64 87.0716 82.48 87.0716C82.32 86.7523 82.32 86.4331 82.32 86.1139C82.32 85.7946 82.32 85.4754 82.32 84.9966V84.837C82.16 84.837 82.16 84.8369 82.16 84.9966C82.16 84.8369 82.32 84.6773 82.16 84.3581C82.16 84.3581 82.16 84.1985 82 84.1985C81.84 84.1985 81.84 84.1985 81.84 84.3581C81.68 84.5177 81.68 84.8369 81.68 84.9966C81.68 84.8369 81.52 84.9966 81.36 84.9966C81.2 85.1562 81.2 85.3158 81.2 85.4754C81.2 85.635 81.2 85.635 81.2 85.7946C81.2 85.7946 81.2 85.7946 81.04 85.7946C80.88 85.9543 80.72 86.2735 80.72 86.5927C80.72 86.9119 80.88 87.0716 81.04 87.3908C81.04 87.5504 81.2 87.5504 81.2 87.5504C81.36 87.5504 81.52 87.3908 81.68 87.2312C81.84 87.0716 82.16 87.0716 82.32 87.3908H82.16C82.48 87.5504 82.64 88.0293 82.48 88.3485C82.48 88.5081 82.32 88.5081 82.32 88.6677C82.32 88.8273 82.32 88.987 82.48 89.1466C82.64 89.3062 82.64 89.4658 82.96 89.4658C83.12 89.4658 83.12 89.4658 83.28 89.4658C83.12 89.785 83.12 89.6254 82.96 89.6254Z" fill="#7EC152"/>
</svg>
