<svg width="200" height="200" viewBox="0 0 200 200" fill="none" xmlns="http://www.w3.org/2000/svg">
<mask id="mask0_2006_74141" style="mask-type:luminance" maskUnits="userSpaceOnUse" x="77" y="24" width="46" height="159">
<path d="M112.54 57.7333C111.525 51.6911 109.323 33.4348 109.323 33.4348C109.94 33.0669 110.424 32.5083 110.704 31.841C110.985 31.1737 111.045 30.4331 110.878 29.7282V29.6662C110.747 29.1137 110.481 28.6034 110.104 28.1824C109.727 27.7614 109.251 27.4432 108.72 27.2572L108.403 24.1035H91.5806L91.2628 27.2572C90.7322 27.4432 90.2564 27.7614 89.8793 28.1824C89.5022 28.6034 89.2359 29.1137 89.105 29.6662V29.7282C88.9373 30.4325 88.9974 31.1727 89.2764 31.8399C89.5554 32.5071 90.0387 33.0661 90.655 33.4348C90.655 33.4348 88.2351 52.007 87.1869 58.1564C85.8153 66.1957 82.3527 82.201 80.457 90.1444C79.2414 95.2219 77 97.9073 77 110.776V170.882C78.472 178.34 84.9622 183 100 183C115.333 183 121.522 178.34 123 170.882V110.781C123 100.17 120.77 95.2275 119.543 90.15C117.569 82.0938 113.917 65.9023 112.54 57.7333Z" fill="white"/>
</mask>
<g mask="url(#mask0_2006_74141)">
<path d="M124.332 -6.01123H74.0223V182.566H92.8517C95.2157 182.86 97.5958 183.001 99.9775 182.989C102.4 183.002 104.821 182.861 107.226 182.566H124.344L124.332 -6.01123Z" fill="#562B1B"/>
<path d="M118.902 142.708V116.051C118.902 114.399 118.571 112.765 117.929 111.246C117.287 109.728 116.347 108.357 115.166 107.216L108.046 100.333C105.8 98.1607 102.812 96.9482 99.7047 96.9482C96.5973 96.9482 93.6095 98.1607 91.3633 100.333L84.2431 107.216C83.0624 108.357 82.1225 109.728 81.4804 111.246C80.8383 112.765 80.5073 114.399 80.5073 116.051V142.713C80.5073 144.365 80.8383 145.999 81.4804 147.518C82.1225 149.036 83.0624 150.407 84.2431 151.548L91.3633 158.431C93.6095 160.603 96.5973 161.816 99.7047 161.816C102.812 161.816 105.8 160.603 108.046 158.431L115.166 151.548C116.348 150.407 117.288 149.035 117.93 147.515C118.572 145.996 118.903 144.36 118.902 142.708Z" fill="url(#paint0_linear_2006_74141)" style="mix-blend-mode:multiply"/>
<path d="M118.902 140.896V114.234C118.902 112.582 118.571 110.948 117.929 109.429C117.287 107.911 116.347 106.54 115.166 105.399L108.046 98.5164C105.8 96.3438 102.812 95.1313 99.7047 95.1313C96.5973 95.1313 93.6095 96.3438 91.3633 98.5164L84.2431 105.399C83.0624 106.54 82.1225 107.911 81.4804 109.429C80.8383 110.948 80.5073 112.582 80.5073 114.234V140.896C80.5073 142.548 80.8383 144.182 81.4804 145.701C82.1225 147.22 83.0624 148.591 84.2431 149.731L91.3633 156.614C93.6095 158.786 96.5973 159.999 99.7047 159.999C102.812 159.999 105.8 158.786 108.046 156.614L115.166 149.731C116.347 148.591 117.287 147.22 117.929 145.701C118.571 144.182 118.902 142.548 118.902 140.896Z" fill="#E5A140"/>
<path d="M99.71 157.675C97.1936 157.678 94.7737 156.696 92.9577 154.933L85.8375 148.05C84.8843 147.125 84.1253 146.014 83.6061 144.785C83.0868 143.556 82.8179 142.233 82.8154 140.897V114.234C82.8176 112.898 83.0864 111.575 83.6056 110.346C84.1249 109.117 84.884 108.006 85.8375 107.081L92.9577 100.198C94.7766 98.4382 97.1962 97.4561 99.7128 97.4561C102.229 97.4561 104.649 98.4382 106.468 100.198L113.588 107.081C114.546 108.004 115.309 109.114 115.832 110.343C116.355 111.572 116.627 112.896 116.632 114.234V140.897C116.63 142.233 116.361 143.556 115.842 144.785C115.322 146.014 114.564 147.125 113.61 148.05L106.49 154.933C104.667 156.702 102.236 157.686 99.71 157.675Z" stroke="white" stroke-miterlimit="10"/>
<path d="M91.026 112.36C91.0052 112.151 90.9162 111.989 90.759 111.873C90.6017 111.757 90.3882 111.699 90.1186 111.699C89.9355 111.699 89.7808 111.725 89.6546 111.777C89.5285 111.827 89.4317 111.897 89.3643 111.987C89.2986 112.077 89.2658 112.179 89.2658 112.293C89.2623 112.388 89.2822 112.471 89.3254 112.542C89.3703 112.613 89.4317 112.674 89.5094 112.726C89.5872 112.776 89.6771 112.82 89.7791 112.858C89.881 112.894 89.9899 112.925 90.1057 112.951L90.5827 113.065C90.8143 113.117 91.0268 113.186 91.2204 113.273C91.4139 113.359 91.5816 113.466 91.7233 113.592C91.865 113.718 91.9748 113.867 92.0525 114.038C92.132 114.209 92.1726 114.405 92.1744 114.626C92.1726 114.951 92.0897 115.233 91.9255 115.471C91.763 115.708 91.528 115.892 91.2204 116.023C90.9145 116.153 90.5455 116.218 90.1135 116.218C89.6849 116.218 89.3116 116.152 88.9936 116.021C88.6773 115.889 88.4302 115.695 88.2522 115.437C88.0759 115.178 87.9834 114.858 87.9748 114.476H89.061C89.0731 114.654 89.1241 114.802 89.2139 114.922C89.3055 115.039 89.4274 115.128 89.5794 115.189C89.7333 115.247 89.9069 115.277 90.1005 115.277C90.2906 115.277 90.4556 115.249 90.5956 115.194C90.7373 115.138 90.8471 115.062 90.9249 114.963C91.0026 114.865 91.0415 114.751 91.0415 114.623C91.0415 114.504 91.0061 114.404 90.9352 114.323C90.8661 114.242 90.7641 114.172 90.6293 114.115C90.4963 114.058 90.3329 114.006 90.1394 113.96L89.5613 113.815C89.1137 113.706 88.7603 113.536 88.501 113.304C88.2418 113.072 88.113 112.76 88.1148 112.368C88.113 112.047 88.1986 111.766 88.3714 111.526C88.546 111.285 88.7853 111.098 89.0895 110.963C89.3937 110.828 89.7393 110.761 90.1264 110.761C90.5205 110.761 90.8644 110.828 91.1582 110.963C91.4537 111.098 91.6835 111.285 91.8477 111.526C92.0119 111.766 92.0966 112.044 92.1018 112.36H91.026ZM96.2087 110.833H97.3312V114.281C97.3312 114.668 97.2387 115.007 97.0538 115.297C96.8706 115.588 96.6139 115.814 96.2839 115.977C95.9538 116.137 95.5692 116.218 95.1303 116.218C94.6896 116.218 94.3042 116.137 93.9741 115.977C93.644 115.814 93.3874 115.588 93.2042 115.297C93.021 115.007 92.9294 114.668 92.9294 114.281V110.833H94.0519V114.185C94.0519 114.388 94.0959 114.567 94.1841 114.725C94.2739 114.882 94.4001 115.005 94.5625 115.095C94.725 115.185 94.9142 115.23 95.1303 115.23C95.348 115.23 95.5373 115.185 95.698 115.095C95.8604 115.005 95.9857 114.882 96.0739 114.725C96.1637 114.567 96.2087 114.388 96.2087 114.185V110.833ZM98.2547 116.143V110.833H100.349C100.752 110.833 101.095 110.91 101.378 111.064C101.662 111.216 101.878 111.428 102.027 111.699C102.177 111.969 102.252 112.28 102.252 112.633C102.252 112.985 102.176 113.296 102.024 113.566C101.872 113.835 101.651 114.045 101.363 114.196C101.076 114.346 100.729 114.421 100.321 114.421H98.9857V113.522H100.139C100.355 113.522 100.533 113.485 100.673 113.41C100.815 113.334 100.92 113.23 100.99 113.097C101.06 112.962 101.096 112.807 101.096 112.633C101.096 112.456 101.06 112.302 100.99 112.171C100.92 112.038 100.815 111.935 100.673 111.863C100.532 111.788 100.352 111.751 100.134 111.751H99.3772V116.143H98.2547ZM102.981 116.143V110.833H106.559V111.759H104.104V113.024H106.374V113.949H104.104V115.217H106.569V116.143H102.981ZM107.451 116.143V110.833H109.546C109.947 110.833 110.289 110.905 110.572 111.049C110.857 111.19 111.074 111.392 111.223 111.653C111.373 111.912 111.448 112.217 111.448 112.568C111.448 112.92 111.372 113.224 111.22 113.478C111.068 113.73 110.848 113.924 110.559 114.058C110.272 114.193 109.925 114.261 109.517 114.261H108.115V113.358H109.336C109.55 113.358 109.728 113.329 109.87 113.27C110.011 113.212 110.117 113.123 110.186 113.006C110.257 112.888 110.292 112.742 110.292 112.568C110.292 112.391 110.257 112.243 110.186 112.122C110.117 112.001 110.01 111.909 109.867 111.847C109.725 111.783 109.546 111.751 109.33 111.751H108.573V116.143H107.451ZM110.318 113.727L111.638 116.143H110.398L109.107 113.727H110.318Z" fill="#562B1B"/>
<path d="M85.345 129.27V120.433H88.883C89.5331 120.433 90.0753 120.53 90.5096 120.722C90.944 120.915 91.2705 121.182 91.4891 121.525C91.7077 121.864 91.817 122.255 91.817 122.698C91.817 123.044 91.7479 123.347 91.6099 123.609C91.4718 123.868 91.282 124.08 91.0403 124.247C90.8016 124.411 90.5283 124.528 90.2206 124.597V124.683C90.5571 124.697 90.8721 124.792 91.1655 124.968C91.4617 125.143 91.7019 125.389 91.886 125.706C92.0701 126.019 92.1621 126.393 92.1621 126.827C92.1621 127.296 92.0457 127.715 91.8127 128.083C91.5825 128.448 91.2417 128.737 90.7901 128.95C90.3385 129.163 89.7819 129.27 89.1203 129.27H85.345ZM87.2133 127.742H88.7363C89.257 127.742 89.6366 127.643 89.8754 127.444C90.1141 127.243 90.2335 126.976 90.2335 126.642C90.2335 126.397 90.1745 126.182 90.0566 125.995C89.9387 125.808 89.7704 125.661 89.5518 125.555C89.3361 125.448 89.0786 125.395 88.7795 125.395H87.2133V127.742ZM87.2133 124.131H88.5983C88.8543 124.131 89.0815 124.086 89.28 123.997C89.4813 123.905 89.6395 123.776 89.7546 123.609C89.8725 123.442 89.9315 123.242 89.9315 123.009C89.9315 122.69 89.8179 122.432 89.5906 122.237C89.3663 122.041 89.047 121.943 88.6328 121.943H87.2133V124.131ZM93.3778 129.27V120.433H99.332V121.973H95.246V124.079H99.0256V125.619H95.246V127.729H99.3492V129.27H93.3778ZM100.817 129.27V120.433H106.771V121.973H102.686V124.079H106.465V125.619H102.686V127.729H106.789V129.27H100.817ZM108.257 129.27V120.433H111.743C112.41 120.433 112.98 120.553 113.452 120.791C113.926 121.027 114.287 121.362 114.535 121.797C114.785 122.228 114.91 122.736 114.91 123.32C114.91 123.906 114.783 124.411 114.53 124.834C114.277 125.254 113.91 125.576 113.43 125.801C112.953 126.025 112.374 126.137 111.696 126.137H109.361V124.636H111.394C111.75 124.636 112.046 124.587 112.282 124.489C112.518 124.391 112.694 124.244 112.809 124.049C112.927 123.853 112.986 123.61 112.986 123.32C112.986 123.026 112.927 122.779 112.809 122.578C112.694 122.376 112.517 122.224 112.278 122.12C112.042 122.014 111.744 121.961 111.385 121.961H110.125V129.27H108.257ZM113.029 125.248L115.225 129.27H113.163L111.014 125.248H113.029Z" fill="#562B1B"/>
<path d="M116.432 132.547H82.8097V141.877H116.432V132.547Z" fill="white"/>
<path d="M87.0918 134.805H87.7982L89.4591 138.862H89.5164L91.1773 134.805H91.8836V139.692H91.33V135.979H91.2823L89.755 139.692H89.2205L87.6932 135.979H87.6455V139.692H87.0918V134.805ZM93.0703 139.692V134.805H96.0198V135.33H93.6621V136.981H95.8671V137.506H93.6621V139.167H96.058V139.692H93.0703ZM98.5947 139.692H97.0865V134.805H98.6615C99.1356 134.805 99.5413 134.903 99.8786 135.099C100.216 135.293 100.474 135.572 100.654 135.936C100.834 136.299 100.924 136.733 100.924 137.239C100.924 137.748 100.833 138.187 100.652 138.554C100.47 138.92 100.206 139.202 99.8595 139.399C99.5126 139.595 99.0911 139.692 98.5947 139.692ZM97.6783 139.167H98.5565C98.9606 139.167 99.2955 139.089 99.5612 138.934C99.8268 138.778 100.025 138.556 100.155 138.268C100.286 137.98 100.351 137.637 100.351 137.239C100.351 136.845 100.287 136.505 100.158 136.22C100.029 135.934 99.8364 135.714 99.5803 135.562C99.3241 135.407 99.0051 135.33 98.6233 135.33H97.6783V139.167ZM102.508 134.805V139.692H101.917V134.805H102.508ZM106.902 134.805H107.494V138.041C107.494 138.375 107.415 138.673 107.258 138.936C107.102 139.197 106.882 139.403 106.597 139.554C106.312 139.704 105.978 139.778 105.594 139.778C105.211 139.778 104.877 139.704 104.592 139.554C104.307 139.403 104.086 139.197 103.929 138.936C103.773 138.673 103.695 138.375 103.695 138.041V134.805H104.287V137.993C104.287 138.232 104.339 138.444 104.444 138.63C104.549 138.815 104.699 138.961 104.893 139.067C105.089 139.172 105.322 139.225 105.594 139.225C105.867 139.225 106.1 139.172 106.296 139.067C106.492 138.961 106.641 138.815 106.745 138.63C106.85 138.444 106.902 138.232 106.902 137.993V134.805ZM108.676 134.805H109.382L111.043 138.862H111.1L112.761 134.805H113.468V139.692H112.914V135.979H112.866L111.339 139.692H110.805L109.277 135.979H109.23V139.692H108.676V134.805Z" fill="#562B1B"/>
<path d="M100.256 142.673L101.249 145.878C101.268 145.939 101.306 145.992 101.357 146.03C101.408 146.067 101.47 146.087 101.533 146.087L104.879 146.047C104.948 146.037 105.019 146.052 105.079 146.09C105.138 146.128 105.182 146.187 105.203 146.255C105.224 146.323 105.22 146.396 105.192 146.461C105.165 146.527 105.115 146.58 105.052 146.611L102.347 148.552C102.295 148.589 102.256 148.642 102.236 148.703C102.216 148.764 102.216 148.829 102.236 148.891L103.295 152.072C103.317 152.133 103.318 152.199 103.299 152.261C103.281 152.322 103.243 152.376 103.191 152.414C103.14 152.452 103.078 152.472 103.014 152.472C102.95 152.471 102.889 152.45 102.838 152.411L100.173 150.408C100.121 150.369 100.059 150.347 99.9944 150.347C99.9299 150.347 99.8673 150.369 99.8159 150.408L97.1173 152.422C97.0666 152.461 97.0048 152.483 96.9411 152.483C96.8774 152.484 96.8153 152.464 96.7639 152.425C96.7125 152.387 96.6746 152.334 96.6559 152.272C96.6372 152.21 96.6387 152.144 96.6601 152.084L97.7194 148.902C97.7393 148.841 97.7392 148.775 97.7191 148.714C97.699 148.653 97.66 148.6 97.6079 148.563L94.9204 146.623C94.8573 146.591 94.8074 146.538 94.7795 146.473C94.7517 146.407 94.7479 146.334 94.7687 146.266C94.7896 146.198 94.8337 146.14 94.8932 146.102C94.9527 146.064 95.0236 146.048 95.0933 146.058L98.4387 146.098C98.502 146.098 98.5637 146.079 98.6149 146.041C98.6661 146.003 98.704 145.95 98.7231 145.889L99.7156 142.685C99.7376 142.631 99.7745 142.585 99.8219 142.553C99.8693 142.52 99.925 142.502 99.9824 142.501C100.04 142.499 100.096 142.515 100.145 142.546C100.193 142.576 100.232 142.621 100.256 142.673Z" fill="#562B1B"/>
<g opacity="0.2" style="mix-blend-mode:overlay">
<path d="M125.816 89.6762L117.53 80.1418L113.237 23.2122H88.9433L82.5758 80.1418L72.7123 89.6762V169.579C72.7123 169.579 76.9889 182.853 76.8104 183.367C76.6878 183.716 88.4415 184.224 96.0747 184.495V184.726L99.264 184.613L102.453 184.726V184.495C110.087 184.202 121.84 183.694 121.718 183.367C121.539 182.848 125.816 169.579 125.816 169.579V89.6762ZM93.9057 28.3573C94.3462 27.4208 96.0468 27.1162 97.6582 27.0485V27.15C97.6582 27.15 98.3273 27.0767 99.2473 27.0428C100.167 27.009 100.836 27.15 100.836 27.15V27.0485C102.448 27.1162 104.182 27.4152 104.589 28.3573C112.088 45.1807 114.664 78.2011 112.138 81.9528C109.211 86.2799 102.281 85.3378 99.2306 85.6593C96.1806 85.3547 86.6572 85.6593 86.6405 81.146C86.568 57.5189 93.0136 30.2529 93.9057 28.3573ZM118.69 173.911C117.263 177.533 115.595 177.189 107.884 175.463C105.885 175.008 103.859 174.69 101.818 174.509C100.121 174.35 98.4129 174.35 96.7159 174.509C94.675 174.69 92.6483 175.008 90.6495 175.463C82.9326 177.189 81.2655 177.533 79.8437 173.911C78.4218 170.289 79.7823 105.873 81.0034 99.8311C83.6965 86.4604 96.7772 86.3476 99.2752 86.263C101.768 86.3476 115.445 85.6988 117.547 99.8311C118.45 105.901 120.117 170.267 118.69 173.889V173.911Z" fill="#C387D3"/>
</g>
<g opacity="0.2" style="mix-blend-mode:overlay">
<path d="M99.2641 182.887L97.8033 182.938V182.831L96.1305 182.769C84.2876 182.318 79.8884 182.019 78.2547 181.861C77.8253 180.089 76.7827 176.597 74.4297 169.297V90.4211L84.2151 80.9657L85.1519 72.5709C85.0013 75.4425 84.9177 78.3028 84.9344 81.1067C84.9511 83.9106 87.1647 85.479 89.9526 86.2745C84.2932 88.5932 80.5797 93.0895 79.275 99.4589C78.0874 105.366 76.5262 170.267 78.2045 174.532C79.0018 176.563 80.1894 178.442 83.4345 178.442C85.1965 178.442 87.5048 177.928 90.9953 177.144C92.9188 176.707 94.8691 176.399 96.8331 176.225C97.5738 176.145 98.3184 176.107 99.0634 176.112H99.4147C100.143 176.106 100.871 176.142 101.595 176.219C103.578 176.394 105.546 176.703 107.488 177.144C110.979 177.923 113.287 178.442 115.049 178.442C118.294 178.442 119.476 176.563 120.274 174.532C121.194 172.191 121.01 153.229 120.692 137.737C120.363 121.602 119.722 102.9 119.214 99.5436C118.478 94.6184 116.042 88.9825 109.256 86.2124C111.001 85.5968 112.51 84.4424 113.572 82.9121C116.75 78.2182 113.627 44.3572 106.172 27.6241C105.308 25.6947 102.76 25.3675 100.92 25.2828L99.4091 25.2208V25.2885H99.0801V25.2208L97.5802 25.2828C94.7254 25.4069 93.0137 26.1629 92.3446 27.5903C91.7424 28.8765 89.6794 37.181 87.884 48.2048L90.4823 24.9443H111.614L115.83 80.8416L124.065 90.3195V169.302C121.718 176.603 120.669 180.095 120.24 181.866C118.606 182.024 114.207 182.323 102.364 182.774L100.692 182.837V182.944L99.2641 182.887Z" fill="#C387D3"/>
</g>
<path d="M108.235 32.6056C102.796 33.8229 97.159 33.8229 91.7196 32.6056C91.063 32.4735 90.4598 32.1473 89.9863 31.6683C89.5129 31.1893 89.1905 30.579 89.06 29.9146C88.8967 30.7949 89.0849 31.7049 89.5834 32.4451C90.0819 33.1853 90.8501 33.6954 91.7196 33.8637C97.1591 35.0808 102.796 35.0808 108.235 33.8637C109.105 33.6954 109.873 33.1853 110.371 32.4451C110.87 31.7049 111.058 30.7949 110.895 29.9146C110.764 30.579 110.442 31.1893 109.968 31.6683C109.495 32.1473 108.892 32.4735 108.235 32.6056Z" fill="#C387D3"/>
<g opacity="0.2" style="mix-blend-mode:overlay">
<path d="M102.442 91.0978L105.927 92.559C107.972 93.4168 109.72 94.8689 110.949 96.7317C112.179 98.5944 112.835 100.784 112.835 103.024L114.402 178.317L117.524 175.733L117.619 101.061C117.621 98.5554 117.173 96.0705 116.298 93.7268L115.874 92.5985C114.963 90.1558 113.273 88.0903 111.072 86.7292C108.87 85.368 106.283 84.789 103.719 85.0838L103.206 85.1402L102.442 91.0978Z" fill="url(#paint1_linear_2006_74141)" style="mix-blend-mode:soft-light"/>
</g>
<g opacity="0.2" style="mix-blend-mode:overlay">
<path d="M95.7287 91.0978L92.2438 92.559C90.1987 93.4168 88.4509 94.8689 87.2212 96.7317C85.9916 98.5944 85.3353 100.784 85.3354 103.024L83.7742 178.317L80.6518 175.733L80.557 101.061C80.5554 98.5554 81.0032 96.0705 81.8785 93.7268L82.3022 92.5985C83.2128 90.1558 84.9027 88.0903 87.1044 86.7292C89.3061 85.368 91.8937 84.789 94.4574 85.0838L94.9703 85.1402L95.7287 91.0978Z" fill="url(#paint2_linear_2006_74141)" style="mix-blend-mode:soft-light"/>
</g>
<g opacity="0.2" style="mix-blend-mode:overlay">
<path d="M101.372 34.7607L103.206 85.1292C105.745 84.2216 107.901 82.4614 109.314 80.1416C110.727 77.8218 111.313 75.0824 110.973 72.3791L106.234 34.7607H101.372Z" fill="url(#paint3_linear_2006_74141)" style="mix-blend-mode:soft-light"/>
</g>
<g opacity="0.2" style="mix-blend-mode:overlay">
<path d="M115.93 167.017C114.915 172.326 112.523 174.019 112.523 174.019C109.122 172.45 102.314 172.117 98.8734 172.157C95.6841 172.196 89.1827 172.659 86.2443 174.019C86.2443 174.019 83.8523 172.326 82.8375 167.017C81.8228 161.708 81.8228 144.592 81.8228 144.592V172.01C81.8228 172.01 83.9973 178.616 99.3752 179.175C114.753 178.611 116.928 172.01 116.928 172.01V144.592C116.928 144.592 116.944 161.708 115.93 167.017Z" fill="#C387D3"/>
</g>
<path d="M91.9932 27.2068C96.732 27.8738 101.535 27.9401 106.289 27.4043C107.969 27.2958 109.615 26.8711 111.14 26.1518L111.018 22.0052C103.757 21.2769 96.4433 21.2523 89.1775 21.9319C88.9935 21.9319 89.144 25.3169 89.289 25.7118C89.7128 26.795 90.9171 27.0545 91.9932 27.2068Z" fill="url(#paint4_linear_2006_74141)" style="mix-blend-mode:multiply"/>
<g opacity="0.2" style="mix-blend-mode:overlay">
<path d="M110.153 163.311C115.729 160.518 121.21 155.367 125.816 145.985C127.684 155.841 126.189 170.244 127.098 180.241C127.254 181.934 119.805 184.399 118.534 184.862C114.723 186.247 110.745 187.107 106.708 187.417C97.7398 188.132 88.7719 186.038 81.0201 181.42C78.2991 179.818 74.173 176.907 73.2753 173.556C71.926 168.467 83.5236 176.693 110.153 163.311Z" fill="url(#paint5_linear_2006_74141)" style="mix-blend-mode:multiply"/>
</g>
</g>
<path d="M111.118 25.1079C102.23 26.1065 97.7363 26.1065 88.8151 25.1079C89.3726 22.8005 89.6459 21.644 90.1755 19.3309C90.2843 18.6676 90.6264 18.0664 91.1387 17.6382C91.6511 17.21 92.2991 16.9837 92.9634 17.0009C97.6286 17.4206 102.321 17.4206 106.986 17.0009C107.651 16.9837 108.299 17.21 108.811 17.6382C109.324 18.0664 109.666 18.6676 109.774 19.3309C110.287 21.6496 110.561 22.8005 111.118 25.1079Z" fill="#E5A140"/>
<path d="M93.4764 22.3153C93.298 23.5846 93.2032 24.2221 93.0192 25.4915C91.8315 25.4069 91.2405 25.3561 90.0529 25.2376C90.3205 23.9795 90.4487 23.3477 90.7052 22.0896C90.7657 21.686 90.9683 21.3182 91.2757 21.0538C91.5831 20.7894 91.9746 20.6464 92.378 20.651C92.5612 20.6808 92.7365 20.7486 92.8927 20.85C93.0489 20.9515 93.1828 21.0845 93.2859 21.2407C93.389 21.397 93.4591 21.573 93.4919 21.7579C93.5247 21.9428 93.5194 22.1325 93.4764 22.3153Z" fill="url(#paint6_linear_2006_74141)" style="mix-blend-mode:multiply"/>
<path d="M97.4237 22.5071C97.3513 23.7877 97.3178 24.4252 97.2453 25.7059C96.0577 25.672 95.4611 25.6494 94.2734 25.5817C94.424 24.3067 94.5021 23.6692 94.647 22.3999C94.6714 22.0036 94.8398 21.6306 95.1198 21.3525C95.3998 21.0744 95.7716 20.9109 96.1636 20.8936C96.3519 20.9138 96.5342 20.9718 96.7 21.0643C96.8658 21.1568 97.0116 21.2819 97.129 21.4322C97.2464 21.5825 97.3329 21.755 97.3835 21.9395C97.4342 22.1241 97.4478 22.3171 97.4237 22.5071Z" fill="url(#paint7_linear_2006_74141)" style="mix-blend-mode:multiply"/>
<path d="M101.366 22.5071C101.405 23.7877 101.422 24.4252 101.461 25.7059C100.273 25.7059 99.6823 25.7059 98.4946 25.7059C98.5337 24.4252 98.556 23.7877 98.595 22.5071C98.595 22.133 98.7419 21.7743 99.0033 21.5098C99.2647 21.2453 99.6192 21.0967 99.9889 21.0967C100.359 21.0967 100.713 21.2453 100.975 21.5098C101.236 21.7743 101.383 22.133 101.383 22.5071H101.366Z" fill="url(#paint8_linear_2006_74141)" style="mix-blend-mode:multiply"/>
<path d="M105.314 22.383C105.464 23.6581 105.537 24.2956 105.687 25.5649C104.5 25.6326 103.903 25.6552 102.715 25.689C102.643 24.4084 102.604 23.7709 102.537 22.4902C102.512 22.2998 102.525 22.1063 102.575 21.921C102.626 21.7358 102.712 21.5626 102.829 21.4117C102.947 21.2608 103.093 21.1352 103.259 21.0424C103.425 20.9495 103.608 20.8913 103.797 20.8711C104.19 20.8886 104.562 21.0528 104.843 21.3321C105.123 21.6114 105.291 21.9858 105.314 22.383Z" fill="url(#paint9_linear_2006_74141)" style="mix-blend-mode:multiply"/>
<path d="M109.262 22.0895C109.518 23.3476 109.652 23.9794 109.914 25.2375C108.726 25.356 108.135 25.4068 106.948 25.4914C106.764 24.222 106.669 23.5845 106.49 22.3152C106.448 22.1312 106.443 21.9402 106.477 21.7543C106.51 21.5684 106.582 21.3917 106.687 21.2352C106.792 21.0788 106.927 20.9461 107.086 20.8455C107.244 20.7449 107.421 20.6786 107.606 20.6509C108.006 20.6503 108.394 20.7952 108.697 21.0592C109.001 21.3232 109.202 21.6888 109.262 22.0895Z" fill="url(#paint10_linear_2006_74141)" style="mix-blend-mode:multiply"/>
<defs>
<linearGradient id="paint0_linear_2006_74141" x1="80.5129" y1="129.382" x2="118.902" y2="129.382" gradientUnits="userSpaceOnUse">
<stop stop-color="white" stop-opacity="0"/>
<stop offset="1" stop-color="#34475A"/>
</linearGradient>
<linearGradient id="paint1_linear_2006_74141" x1="102.442" y1="131.655" x2="117.614" y2="131.655" gradientUnits="userSpaceOnUse">
<stop offset="0.17" stop-color="white" stop-opacity="0"/>
<stop offset="0.78" stop-color="white"/>
<stop offset="1" stop-color="white" stop-opacity="0"/>
</linearGradient>
<linearGradient id="paint2_linear_2006_74141" x1="95.7231" y1="131.655" x2="80.557" y2="131.655" gradientUnits="userSpaceOnUse">
<stop offset="0.17" stop-color="white" stop-opacity="0"/>
<stop offset="0.78" stop-color="white"/>
<stop offset="1" stop-color="white" stop-opacity="0"/>
</linearGradient>
<linearGradient id="paint3_linear_2006_74141" x1="101.372" y1="59.945" x2="111.068" y2="59.945" gradientUnits="userSpaceOnUse">
<stop offset="0.17" stop-color="white" stop-opacity="0"/>
<stop offset="0.78" stop-color="white"/>
<stop offset="1" stop-color="white" stop-opacity="0"/>
</linearGradient>
<linearGradient id="paint4_linear_2006_74141" x1="99.922" y1="19.2295" x2="100.264" y2="27.844" gradientUnits="userSpaceOnUse">
<stop stop-color="white" stop-opacity="0"/>
<stop offset="1" stop-color="#595A35"/>
</linearGradient>
<linearGradient id="paint5_linear_2006_74141" x1="72.9241" y1="169.547" x2="127.816" y2="164.067" gradientUnits="userSpaceOnUse">
<stop stop-color="white" stop-opacity="0"/>
<stop offset="1" stop-color="#595A35"/>
</linearGradient>
<linearGradient id="paint6_linear_2006_74141" x1="91.7702" y1="27.7481" x2="91.7702" y2="21.4352" gradientUnits="userSpaceOnUse">
<stop stop-color="white" stop-opacity="0"/>
<stop offset="0.99" stop-color="#8886A4"/>
</linearGradient>
<linearGradient id="paint7_linear_2006_74141" x1="95.8458" y1="27.9399" x2="95.8458" y2="21.6608" gradientUnits="userSpaceOnUse">
<stop stop-color="white" stop-opacity="0"/>
<stop offset="0.99" stop-color="#8886A4"/>
</linearGradient>
<linearGradient id="paint8_linear_2006_74141" x1="99.9834" y1="27.9625" x2="99.9834" y2="21.7342" gradientUnits="userSpaceOnUse">
<stop stop-color="white" stop-opacity="0"/>
<stop offset="0.99" stop-color="#8886A4"/>
</linearGradient>
<linearGradient id="paint9_linear_2006_74141" x1="104.115" y1="27.94" x2="104.115" y2="21.6609" gradientUnits="userSpaceOnUse">
<stop stop-color="white" stop-opacity="0"/>
<stop offset="0.99" stop-color="#8886A4"/>
</linearGradient>
<linearGradient id="paint10_linear_2006_74141" x1="108.191" y1="27.748" x2="108.191" y2="21.4351" gradientUnits="userSpaceOnUse">
<stop stop-color="white" stop-opacity="0"/>
<stop offset="0.99" stop-color="#8886A4"/>
</linearGradient>
</defs>
</svg>
