<svg width="200" height="200" viewBox="0 0 200 200" fill="none" xmlns="http://www.w3.org/2000/svg">
<path d="M100 175C97.0101 175 70.6616 174.812 70.6616 167.848C70.6616 160.884 97.0101 160.696 100 160.696C102.99 160.696 129.338 160.884 129.338 167.848C129.525 174.812 102.99 175 100 175Z" fill="#B5B4B4"/>
<path d="M136.626 161.637V47.9609C136.626 44.7614 135.318 41.7501 133.263 39.4917L126.349 32.3398H74.0253L67.1112 39.4917C64.8687 41.7501 63.7476 44.7614 63.7476 47.9609V161.637C63.7476 161.825 63.7476 161.825 63.7476 162.014C63.7476 170.671 96.6364 171.048 100.374 171.048C104.111 171.048 137 170.859 137 162.014C136.626 161.825 136.626 161.637 136.626 161.637Z" fill="#D3D0D0"/>
<path d="M99.9999 39.3036C97.01 39.3036 70.6616 39.1154 70.6616 32.1518C70.6616 25.1882 97.01 25 99.9999 25C102.99 25 129.338 25.1882 129.338 32.1518C129.338 39.1154 102.99 39.3036 99.9999 39.3036Z" fill="#F5F4F4"/>
<g opacity="0.5">
<path d="M89.5353 35.9149C88.0404 35.9149 74.0252 35.7267 74.0252 32.1508C74.0252 28.5749 87.8535 28.3867 89.5353 28.3867C91.0303 28.3867 105.045 28.5749 105.045 32.1508C105.045 35.9149 91.0303 35.9149 89.5353 35.9149Z" fill="white"/>
</g>
<path d="M102.99 31.7741C102.616 31.7741 100.187 31.5859 100.187 30.4567C100.187 29.7038 101.682 29.5156 102.99 29.5156C103.737 29.5156 105.793 29.5156 105.793 30.4567C105.793 31.5859 103.177 31.7741 102.99 31.7741Z" fill="#666666"/>
<path d="M99.9999 39.3036C97.01 39.3036 70.6616 39.1154 70.6616 32.1518C70.6616 25.1882 97.01 25 99.9999 25C102.99 25 129.338 25.1882 129.338 32.1518C129.338 39.1154 102.99 39.3036 99.9999 39.3036ZM99.9999 28.1995C83.9292 28.1995 74.3989 30.8344 73.6515 32.34C74.3989 33.4693 83.9292 36.2923 99.9999 36.2923C115.51 36.2923 125.04 33.8457 126.162 32.34C125.04 30.6462 115.697 28.1995 99.9999 28.1995Z" fill="#D2D1D1"/>
<path d="M102.99 31.5866C102.616 31.5866 100.187 31.3984 100.187 30.2692C100.187 29.5163 101.682 29.3281 102.99 29.3281C103.737 29.3281 105.793 29.5163 105.793 30.2692C105.793 31.2102 103.177 31.5866 102.99 31.5866Z" fill="#B3B3B3"/>
<path d="M135.505 42.8797C134.944 41.5622 134.197 40.433 133.076 39.3037L128.217 34.4104C126.722 35.916 123.732 36.8571 120.182 37.6099C112.146 39.3037 101.682 39.3037 99.8131 39.3037C97.9444 39.3037 87.4798 39.3037 79.4444 37.6099C75.8939 36.8571 72.904 35.916 71.4091 34.4104L66.5505 39.3037C65.6162 40.2448 64.8687 41.5622 64.1212 42.8797C63.3737 44.3853 63 46.0792 63 47.9612V48.3376C67.1111 56.2423 96.0758 56.4305 99.6263 56.4305C103.177 56.4305 131.955 56.2423 136.252 48.3376V47.9612C136.626 46.2674 136.252 44.5735 135.505 42.8797Z" fill="#ECE9E9"/>
<path d="M136.626 155.614V55.1123C132.515 63.0169 103.55 63.2052 99.9999 63.2052C96.4494 63.2052 67.6716 63.0169 63.3737 55.1123V155.802C63.3737 155.991 63.3737 155.991 63.3737 156.179C63.3737 164.836 96.2625 165.213 99.9999 165.213C103.737 165.213 136.626 165.024 136.626 156.179C136.626 155.802 136.626 155.802 136.626 155.614Z" fill="#36843E"/>
<path opacity="0.15" d="M63.3737 63.2061V149.781C63.5605 150.345 64.1212 150.91 65.4292 151.851V64.7117C64.8686 64.1471 64.1211 63.7707 63.3737 63.2061Z" fill="#2DFD8F"/>
<path opacity="0.15" d="M67.111 152.603C68.0453 153.168 69.3534 153.544 70.6615 154.109V66.9698C69.3534 66.5934 68.2322 66.0288 67.111 65.6523V152.603Z" fill="#2DFD8F"/>
<path opacity="0.15" d="M72.3434 154.674C73.4646 155.051 74.5859 155.427 75.894 155.615V68.0995C74.7727 67.9113 73.4646 67.5349 72.3434 67.3467V154.674Z" fill="#2DFD8F"/>
<path opacity="0.15" d="M77.3888 156.178C78.51 156.367 79.6313 156.743 80.9393 156.931V68.851C79.8181 68.6628 78.51 68.6628 77.3888 68.4746V156.178Z" fill="#2DFD8F"/>
<path opacity="0.15" d="M82.6212 157.309C83.7424 157.497 84.8637 157.685 86.1717 157.873V69.4167C85.0505 69.4167 83.7424 69.2285 82.6212 69.2285V157.309Z" fill="#2DFD8F"/>
<path opacity="0.15" d="M87.6666 157.873C88.7878 158.062 89.909 158.062 91.2171 158.25V69.4167C90.0959 69.4167 88.9747 69.4167 87.6666 69.2285V157.873Z" fill="#2DFD8F"/>
<path opacity="0.15" d="M98.1311 69.6045V158.626C98.8786 158.626 99.4392 158.626 100.187 158.626C100.747 158.626 101.121 158.626 101.682 158.626V69.6045C101.121 69.6045 100.56 69.6045 100.187 69.6045C99.4392 69.6045 98.6917 69.6045 98.1311 69.6045Z" fill="#2DFD8F"/>
<path opacity="0.15" d="M92.8989 158.438C94.0201 158.438 95.1414 158.626 96.4494 158.626V69.6045C95.3282 69.6045 94.207 69.6045 92.8989 69.6045V158.438Z" fill="#2DFD8F"/>
<path opacity="0.15" d="M103.177 158.627C104.298 158.627 105.606 158.627 106.727 158.438V69.417C105.419 69.417 104.298 69.417 103.177 69.417V158.627Z" fill="#2DFD8F"/>
<path opacity="0.15" d="M108.409 158.25C109.53 158.25 110.838 158.062 111.959 157.873V69.2285C110.838 69.2285 109.53 69.4167 108.409 69.4167V158.25Z" fill="#2DFD8F"/>
<path opacity="0.15" d="M113.455 157.873C114.763 157.684 115.884 157.496 117.005 157.308V68.6631C115.884 68.8513 114.576 68.8513 113.455 69.0395V157.873Z" fill="#2DFD8F"/>
<path opacity="0.15" d="M118.687 157.12C119.995 156.932 121.116 156.744 122.237 156.367V68.0986C121.116 68.2868 119.995 68.475 118.687 68.475V157.12Z" fill="#2DFD8F"/>
<path opacity="0.15" d="M123.732 155.99C125.04 155.614 126.162 155.426 127.283 155.049V67.1572C126.162 67.3454 125.04 67.7218 123.732 67.9101V155.99Z" fill="#2DFD8F"/>
<path opacity="0.15" d="M136.439 63.2061C135.879 63.7707 135.131 64.3353 134.01 64.8999V152.039C135.318 151.286 136.066 150.534 136.439 150.157V63.2061Z" fill="#2DFD8F"/>
<path opacity="0.15" d="M128.965 154.297C130.273 153.733 131.394 153.356 132.515 152.792V65.6523C131.394 66.0288 130.273 66.4052 128.965 66.7816V154.297Z" fill="#2DFD8F"/>
<path d="M99.9999 164.837C80.1918 164.837 66.7373 162.202 63.3737 157.121V149.404C63.3737 151.475 75.8939 158.438 99.9999 158.438C124.106 158.438 136.626 151.475 136.626 149.404V156.556C134.197 162.39 119.808 164.837 99.9999 164.837Z" fill="#BA0909"/>
<path d="M99.9999 69.6041C89.3484 69.6041 70.6615 69.9806 63.3737 63.2052V55.1123C66.5504 60.9467 82.2474 63.2052 99.9999 63.2052C117.752 63.2052 133.636 60.5703 136.439 55.1123V63.2052C131.768 68.4749 110.651 69.6041 99.9999 69.6041Z" fill="#BA0909"/>
<path d="M119.995 91.2484C118.5 90.8719 116.818 90.4955 115.136 90.3073L114.015 90.1191L113.828 88.9899C112.707 82.5909 107.288 77.8857 100.934 77.8857C94.5807 77.8857 89.1615 82.4027 88.0403 88.8017L87.8534 89.9309L86.7322 90.1191C85.0504 90.4955 83.3686 90.6837 81.8736 91.0601C79.8181 91.6248 78.3231 93.5068 78.3231 95.5771V140.935C78.3231 143.005 79.8181 144.887 81.8736 145.452C94.5807 148.651 108.783 148.275 120.182 145.64C122.237 145.075 123.732 143.193 123.732 141.123V95.7653C123.545 93.5068 122.05 91.813 119.995 91.2484Z" fill="#609632"/>
<path d="M120.742 88.0489C119.434 87.6725 118.126 87.4842 116.818 87.1078C115.136 79.7678 108.596 74.498 100.934 74.498C93.2728 74.498 86.9192 79.7678 85.0505 87.1078C83.7425 87.296 82.2475 87.6724 81.1263 87.8607C77.5758 88.8017 74.9597 92.0012 74.9597 95.5771V140.935C74.9597 144.699 77.3889 147.898 81.1263 148.651C87.6667 150.157 94.394 151.098 101.121 151.098C108.222 151.098 114.949 150.345 121.116 148.839C124.667 147.898 127.283 144.887 127.283 141.123V95.7653C126.909 92.0012 124.48 88.8017 120.742 88.0489ZM123.545 141.123C123.545 143.381 122.051 145.075 119.995 145.64C108.409 148.275 94.394 148.651 81.6869 145.452C79.6314 144.887 78.1364 143.005 78.1364 140.935V95.5771C78.1364 93.3186 79.6314 91.6248 81.6869 91.0602C83.1819 90.6837 84.8637 90.3073 86.5455 90.1191L87.6667 89.9309L87.8536 88.8017C88.9748 82.4027 94.394 77.8857 100.747 77.8857C107.101 77.8857 112.52 82.5909 113.641 88.9899L113.828 90.1191L114.95 90.3073C116.631 90.6837 118.313 90.872 119.808 91.2484C121.864 91.813 123.359 93.695 123.359 95.7653V141.123H123.545Z" fill="#FF4A4A"/>
<g opacity="0.7">
<path d="M104.111 136.605C101.308 134.347 100.56 130.771 104.111 128.889C105.793 127.948 108.409 127.571 109.156 129.83C109.717 131.523 108.035 132.276 107.848 130.582C107.661 128.7 109.904 127.759 111.212 128.324C111.959 128.512 114.762 131.147 113.081 131.9C111.773 132.464 112.146 130.018 113.081 129.641C114.576 128.889 115.697 130.959 116.257 131.9L116.631 131.712C115.697 130.582 114.949 128.889 113.268 129.265C112.146 129.641 110.838 131.9 112.707 131.9C114.949 131.9 113.454 129.077 112.333 128.324C111.399 127.759 110.464 127.759 109.53 127.948C108.222 128.324 106.353 131.523 108.596 131.712C110.651 131.9 109.53 128.7 108.409 128.136C107.475 127.571 106.167 127.948 105.232 128.136C100.747 129.641 99.9998 133.594 103.55 136.605C103.924 136.793 104.111 136.605 104.111 136.605Z" fill="#1B441F"/>
</g>
<g opacity="0.7">
<path d="M99.8131 136.041C96.4494 135.853 95.702 136.982 93.0858 139.24C91.9646 140.369 90.0959 141.311 88.4141 140.558C87.4798 140.181 86.1717 138.676 86.5454 137.546C87.106 136.041 89.1616 136.794 88.4141 138.299C87.2929 140.369 84.8636 138.864 83.9292 137.546L83.5555 137.735C84.4899 139.052 85.9848 140.181 87.6666 139.24C89.5353 138.299 88.7878 135.664 87.106 136.605C85.7979 137.358 86.3585 139.24 87.2929 139.993C88.2272 140.746 89.3484 140.746 90.4696 140.558C90.8434 140.558 91.2171 140.369 91.5909 140.181C94.7676 138.864 95.3282 135.853 99.4393 136.041C99.6262 136.041 99.8131 136.041 99.8131 136.041Z" fill="#1B441F"/>
</g>
<g opacity="0.7">
<path d="M92.7122 126.067C91.2173 126.067 89.5354 127.385 90.8435 128.89C91.4041 129.643 95.1415 130.02 94.7677 127.949C94.5809 127.385 94.2072 127.385 93.6465 127.385C92.5253 127.385 91.9647 128.514 92.1516 129.455C92.3385 132.278 95.5152 131.714 97.3839 132.278C100 133.031 101.308 135.478 103.551 136.795L103.924 136.607C101.869 135.478 100.748 133.407 98.5051 132.466C96.6364 131.714 93.6465 132.278 92.7122 130.208C92.5253 129.643 92.3385 128.514 92.8991 127.949C93.6465 127.008 94.7677 127.573 94.2071 128.702C92.5253 131.902 88.7879 126.067 92.3384 126.067C92.5253 126.256 92.5253 126.067 92.7122 126.067Z" fill="#1B441F"/>
</g>
<g opacity="0.7">
<path d="M103.924 137.548C102.99 137.736 102.242 138.489 102.056 139.43C101.869 140.747 102.803 142.065 104.111 142.065C104.672 142.065 106.167 141.5 105.419 140.559C104.672 139.806 103.737 140.935 104.298 141.688C105.045 142.817 106.354 142.441 107.475 142.253C107.475 142.253 107.288 142.253 107.101 142.441C106.914 142.441 106.914 142.441 106.727 142.629C106.914 142.629 106.914 142.629 107.101 142.441C106.167 142.629 103.737 141.876 104.859 140.559C104.672 140.559 104.672 140.559 104.485 140.747C105.419 140.559 105.419 141.688 104.859 142.065C105.045 142.065 105.045 142.065 105.232 141.876C102.429 142.629 101.869 138.112 104.485 137.359C104.111 137.548 103.924 137.548 103.924 137.548Z" fill="#1B441F"/>
</g>
<path d="M101.121 99.7167C105.972 99.7167 109.904 95.7564 109.904 90.8711C109.904 85.9857 105.972 82.0254 101.121 82.0254C96.2705 82.0254 92.3383 85.9857 92.3383 90.8711C92.3383 95.7564 96.2705 99.7167 101.121 99.7167Z" fill="white"/>
<path d="M101.121 79.5791C94.9546 79.5791 89.9092 84.6607 89.9092 90.8714C89.9092 97.0822 94.9546 102.164 101.121 102.164C107.288 102.164 112.333 97.0822 112.333 90.8714C112.147 84.6607 107.101 79.5791 101.121 79.5791ZM92.1516 90.8714C92.1516 85.9781 96.0758 82.0258 100.934 82.0258C105.793 82.0258 109.717 85.9781 109.717 90.8714C109.717 95.7648 105.793 99.7171 100.934 99.7171C96.2627 99.7171 92.1516 95.7648 92.1516 90.8714Z" fill="#1B441F"/>
<path d="M120.742 107.622H81.1261V121.738H120.742V107.622Z" fill="#F2F2F2"/>
<path d="M89.9092 111.387H92.1516C93.4597 111.387 94.5809 111.763 94.5809 113.081C94.5809 113.645 94.2072 114.21 93.4597 114.586C94.394 114.774 94.9546 115.339 94.9546 116.092C94.9546 117.409 93.8334 117.974 92.5253 117.974H90.096V111.387H89.9092ZM91.9647 114.022C92.7122 114.022 93.0859 113.645 93.0859 113.269C93.0859 112.704 92.7122 112.516 92.1516 112.516H91.4041V114.022H91.9647ZM92.1516 116.845C92.8991 116.845 93.2728 116.468 93.2728 115.904C93.2728 115.339 92.8991 115.151 92.1516 115.151H91.4041V116.845H92.1516Z" fill="#BA0909"/>
<path d="M95.8889 111.387H100V112.704H97.3838V114.022H99.6262V115.339H97.3838V116.845H100V118.162H95.8889V111.387Z" fill="#BA0909"/>
<path d="M101.308 111.387H105.419V112.704H102.803V114.022H105.046V115.339H102.803V116.845H105.419V118.162H101.308V111.387Z" fill="#BA0909"/>
<path d="M110.278 117.974L108.97 115.715H108.222V117.974H106.727V111.387H109.157C110.465 111.387 111.586 111.951 111.586 113.457C111.586 114.398 111.025 114.963 110.465 115.339L111.96 117.974H110.278ZM108.222 114.398H108.97C109.717 114.398 110.091 114.022 110.091 113.457C110.091 112.892 109.717 112.516 108.97 112.516H108.222V114.398Z" fill="#BA0909"/>
<path opacity="0.4" d="M101.121 101.788L101.682 103.106L102.99 103.294L102.056 104.235L102.243 105.552L101.121 104.799L99.8133 105.552L100 104.235L99.0658 103.294L100.374 103.106L101.121 101.788Z" fill="#D9E021"/>
<path opacity="0.4" d="M108.596 101.788L109.157 103.106L110.465 103.294L109.53 104.235L109.717 105.552L108.596 104.799L107.475 105.552L107.662 104.235L106.727 103.294L108.035 103.106L108.596 101.788Z" fill="#D9E021"/>
<path opacity="0.4" d="M93.4597 101.788L94.0203 103.106L95.3284 103.294L94.394 104.235L94.5809 105.552L93.4597 104.799L92.1516 105.552L92.5254 104.235L91.591 103.294L92.8991 103.106L93.4597 101.788Z" fill="#D9E021"/>
<path opacity="0.7" d="M115.323 137.735C114.95 137.359 114.576 136.794 114.015 136.606C113.829 136.418 113.642 136.418 113.268 136.418C112.147 136.041 111.212 134.912 110.091 134.536C109.531 134.347 108.783 134.159 108.036 134.159C107.475 134.159 106.914 134.159 106.354 134.347C106.167 134.347 105.98 134.536 105.793 134.724C105.233 134.912 104.859 135.288 104.672 135.665C104.485 136.229 104.672 136.606 104.485 137.17C104.485 137.359 104.298 137.735 104.298 137.923C104.298 138.488 104.672 138.864 104.672 139.241C104.672 139.429 104.672 139.805 104.859 139.994C105.046 140.37 105.233 140.558 105.419 140.746C105.606 140.935 105.793 141.123 106.167 141.123C106.541 141.311 106.728 141.123 107.101 141.123C107.849 141.123 108.409 140.935 109.157 140.935C109.531 140.935 109.904 140.935 110.278 140.746C110.465 140.746 110.839 140.558 111.026 140.37C111.773 139.994 112.52 139.994 113.268 139.805C114.015 139.617 114.763 139.429 115.323 138.864C115.51 138.676 115.51 138.676 115.51 138.488C115.884 138.488 115.51 137.923 115.323 137.735Z" fill="#1B441F"/>
<path d="M114.95 136.983C114.763 136.983 114.763 136.983 114.576 136.983C114.389 136.983 113.641 136.983 113.455 136.983C110.652 137.924 114.015 139.054 114.95 138.865C115.51 138.677 115.697 138.489 115.884 138.113C116.071 137.548 115.51 137.172 114.95 136.983Z" fill="#1B441F"/>
<path d="M104.111 136.983C103.738 136.606 102.803 136.418 102.243 136.418C101.308 136.23 100.187 136.23 99.2527 136.041C98.5053 135.853 97.7578 135.1 97.7578 134.159C97.7578 133.218 98.879 132.654 99.6265 132.277C100.748 131.713 101.682 131.336 102.803 130.96C103.177 130.772 102.99 130.395 102.616 130.584C101.121 130.96 99.8133 131.713 98.5053 132.466C97.7578 133.03 97.0103 133.595 97.1972 134.536C97.1972 135.289 97.9447 136.041 98.6921 136.23C99.2527 136.418 99.8133 136.418 100.374 136.418C101.121 136.418 103.177 136.606 103.738 137.171C103.924 137.547 104.298 137.171 104.111 136.983Z" fill="#1B441F"/>
<path d="M114.015 138.488C113.455 138.111 113.081 137.735 112.334 137.547C111.773 137.547 111.212 137.735 111.026 138.3C111.026 138.3 110.839 138.864 110.839 139.241C110.839 139.429 110.839 139.617 111.026 139.617C111.212 139.805 111.212 139.805 111.399 139.805C112.334 139.994 113.268 139.617 113.829 139.053C114.015 139.053 114.015 138.864 114.015 138.676C114.202 138.676 114.202 138.676 114.015 138.488Z" fill="#1B441F"/>
<path d="M114.763 136.23C114.576 135.853 114.202 135.665 114.015 135.477C113.828 135.289 113.455 135.101 113.081 135.101C112.894 135.101 112.146 135.289 111.96 135.289C111.773 135.665 111.96 136.042 112.333 136.23C112.52 136.418 112.894 136.418 113.081 136.418C113.641 136.418 114.015 136.418 114.576 136.606H114.763C114.763 136.794 114.763 136.418 114.763 136.23Z" fill="#1B441F"/>
<path d="M111.399 139.428C111.025 139.24 110.652 139.052 110.278 138.864C109.904 138.676 109.344 138.676 108.97 139.052C108.596 139.24 106.914 140.558 108.596 140.746C109.344 140.746 109.904 140.934 110.652 140.934C111.025 140.934 111.212 140.934 111.586 140.934C111.773 140.746 112.147 140.558 111.96 140.181C111.773 139.617 111.586 139.428 111.399 139.428Z" fill="#1B441F"/>
<path d="M111.96 137.171C111.96 136.983 111.773 136.983 111.773 136.795C111.399 136.606 111.026 136.418 110.652 136.23C110.278 136.042 109.717 136.042 109.344 136.418C108.97 136.606 108.97 137.171 108.97 137.548C108.97 137.736 109.157 138.112 109.157 138.3C109.531 138.489 109.904 138.489 110.465 138.3C111.026 138.112 111.399 137.924 111.773 137.548C111.96 137.548 112.147 137.359 111.96 137.171Z" fill="#1B441F"/>
<path d="M112.52 134.724C112.333 134.536 112.147 134.348 111.773 134.16C111.586 133.971 111.212 133.783 110.839 133.783C110.652 133.783 110.465 133.783 110.278 133.971C110.278 133.971 109.904 134.348 109.904 134.724C109.904 135.101 109.904 135.477 110.278 135.665C110.465 135.853 110.839 135.853 111.025 135.853C111.399 135.853 111.96 135.853 112.333 135.665C112.52 135.665 112.707 135.477 112.707 135.289C112.894 135.101 112.707 134.912 112.52 134.724Z" fill="#1B441F"/>
<path d="M109.53 139.053C109.53 138.865 109.343 138.677 109.157 138.488C108.783 138.112 108.409 137.736 107.849 137.547C107.475 137.359 107.101 137.171 106.914 137.547C106.727 137.736 106.727 137.924 106.727 138.112C106.727 138.488 106.54 138.865 106.727 139.053C106.727 139.429 107.101 139.806 107.288 139.994C107.288 139.994 108.409 139.994 108.783 139.806C108.97 139.806 109.343 139.806 109.343 139.618C109.53 139.429 109.53 139.241 109.53 139.053Z" fill="#1B441F"/>
<path d="M110.465 133.594C109.531 133.217 108.036 133.217 106.914 133.594C106.354 133.782 106.167 134.535 106.541 134.911L106.728 135.288C106.914 135.664 107.288 135.852 107.662 135.664C108.97 135.288 109.717 134.911 110.278 134.535C110.465 134.347 110.839 134.158 110.652 133.782C110.839 133.782 110.652 133.594 110.465 133.594Z" fill="#1B441F"/>
<path d="M110.278 136.229C110.278 136.041 110.278 136.041 110.278 136.229C109.717 135.853 109.344 135.665 108.97 135.665C108.596 135.476 108.035 135.476 107.662 135.665C107.288 135.853 106.914 136.229 106.914 136.606C106.914 136.982 107.101 137.17 107.288 137.547C107.662 137.735 108.035 137.735 108.409 137.547C108.783 137.358 109.157 137.17 109.344 136.982C109.53 136.794 109.717 136.794 109.904 136.606C110.278 136.417 110.465 136.229 110.278 136.229Z" fill="#1B441F"/>
<path d="M107.288 133.03C107.101 132.842 106.914 132.842 106.727 132.842C105.98 132.842 105.419 133.03 104.859 133.406C104.298 133.783 103.924 135.477 104.298 136.041L106.167 134.724C106.727 134.536 107.101 134.159 107.288 133.595C107.475 133.595 107.475 133.218 107.288 133.03Z" fill="#1B441F"/>
<path d="M107.475 139.993C107.288 139.616 107.101 139.428 106.914 139.052C106.54 138.487 105.98 138.111 105.232 137.923L104.111 137.734C104.111 138.299 104.298 139.616 104.672 139.993C105.045 140.369 105.419 140.369 105.793 140.369C106.167 140.369 106.354 140.369 106.727 140.557C107.101 140.557 107.475 140.557 107.475 140.369C107.849 140.557 107.662 140.181 107.475 139.993Z" fill="#1B441F"/>
<path d="M107.101 136.042C106.727 135.477 106.167 135.101 105.419 135.101C105.045 135.101 104.485 135.477 104.298 135.853C104.298 135.853 103.924 136.606 103.924 136.983C103.924 137.359 103.924 137.924 104.298 138.112C104.672 138.488 105.232 138.488 105.606 138.488C105.98 138.3 106.54 138.112 106.914 137.924C107.101 137.735 107.288 137.547 107.475 137.359C107.662 136.983 107.475 136.418 107.101 136.042Z" fill="#1B441F"/>
<path d="M103.924 136.982L104.111 137.17C104.298 136.606 104.298 135.853 104.298 135.288C104.298 135.1 104.298 135.1 104.298 134.912C104.111 134.724 103.924 134.724 103.737 134.724C103.177 134.724 102.616 134.912 102.243 135.476C101.869 135.853 101.869 136.606 102.056 136.982C102.056 137.17 102.243 137.359 102.429 137.359C102.616 137.359 102.803 137.359 102.803 137.17C102.616 137.17 102.429 136.982 102.429 136.794C102.429 136.606 102.429 136.417 102.616 136.417C102.803 136.417 102.803 136.417 102.99 136.417C103.364 136.417 103.737 136.606 103.924 136.982Z" fill="#1B441F"/>
<path d="M104.111 137.171C104.111 137.359 104.111 137.359 104.111 137.547V136.982C103.924 137.547 103.551 138.112 102.99 138.3C102.803 138.488 102.616 138.488 102.243 138.488C102.056 138.488 102.056 138.488 101.869 138.3C102.243 138.488 102.43 138.676 102.803 138.676C102.99 138.676 103.177 138.676 103.551 138.676C104.111 138.488 104.485 137.923 104.485 137.359C104.111 137.547 104.111 137.359 104.111 137.171Z" fill="#1B441F"/>
<path d="M101.308 138.112L101.121 137.924C101.308 137.924 101.308 138.112 101.308 138.112Z" fill="#1B441F"/>
<path opacity="0.7" d="M99.0657 130.772C98.8788 130.584 98.8788 130.584 98.692 130.584C98.5051 130.584 98.3182 130.772 98.5051 130.96C98.3182 130.96 98.1313 130.772 98.1313 130.584C97.9445 130.396 97.9445 130.207 97.7576 130.019C97.5707 129.831 97.3839 130.019 97.197 130.207C97.197 130.207 97.197 130.396 97.0101 130.396C97.0101 130.396 97.0101 130.396 96.8233 130.396C96.6364 130.207 96.4495 130.019 96.2627 129.831C96.0758 129.643 95.7021 129.455 95.5152 129.643C95.5152 129.643 95.5152 129.643 95.3283 129.831C95.1414 129.831 95.1414 129.831 95.1414 129.643C94.9546 129.266 94.5808 129.078 94.2071 128.702C94.0202 128.513 93.8334 128.513 93.6465 128.702V128.89C93.8334 129.455 94.0202 130.019 94.394 130.396C94.0202 130.396 93.8334 130.96 94.0202 131.337C94.2071 131.713 94.394 131.901 94.7677 132.089C94.5808 132.089 94.394 132.278 94.394 132.466C94.394 132.654 94.5808 132.842 94.5808 133.03C94.7677 133.219 94.9546 133.219 95.1414 133.407C95.5152 133.595 95.7021 133.971 95.8889 134.348C96.0758 134.724 95.8889 135.101 95.702 135.289C95.5152 135.289 95.1414 135.101 95.1414 134.912C94.7677 134.536 94.5808 134.16 94.2071 133.595C94.0202 133.219 93.8334 132.842 93.6465 132.654C93.2728 132.278 92.7122 132.089 92.1516 131.901C91.9647 131.901 91.7778 131.901 91.5909 131.901C91.4041 131.901 91.2172 132.089 91.2172 132.278C90.8435 132.089 90.4697 132.089 89.9091 132.089C89.9091 132.089 89.7223 132.089 89.7223 132.278V132.466C89.9091 132.654 90.096 132.842 90.2829 133.03C89.7223 132.654 89.1616 132.466 88.601 132.466H88.4142C88.2273 132.466 88.2273 132.842 88.2273 132.842C88.2273 132.842 88.2273 133.03 88.4142 133.03C88.2273 133.03 88.0404 132.842 87.8536 132.842C87.293 132.654 86.5455 132.654 85.9849 132.654C86.7324 133.407 87.6667 133.971 88.601 134.16C88.4142 134.16 88.2273 134.16 88.0404 134.348C87.8536 134.536 87.6667 134.724 87.8536 134.912C87.8536 135.101 88.0404 135.101 88.0404 135.101C88.2273 135.289 88.6011 135.477 88.9748 135.477H88.7879C88.601 135.665 88.4142 135.854 88.4142 136.042C88.4142 136.23 88.7879 136.418 88.9748 136.418C89.5354 136.606 90.096 136.606 90.6566 136.418C90.4697 136.418 90.2829 136.606 90.096 136.606C89.9091 136.795 89.9091 136.983 89.9091 137.171C89.9091 137.359 90.096 137.359 90.096 137.359C90.6566 137.547 91.4041 137.547 91.9647 137.359C92.5253 137.171 93.0859 136.983 93.8334 136.795C94.0202 136.795 94.2071 136.795 94.394 136.795C94.5808 136.795 94.7677 136.983 94.7677 137.171C94.7677 137.359 94.5808 137.547 94.394 137.736C94.2071 137.924 94.0202 137.924 93.8334 137.924C93.4596 137.924 92.899 138.112 92.5253 138.112C92.3384 138.112 92.1515 138.112 91.9647 138.3C91.7778 138.488 91.591 138.677 91.7778 138.865C91.7778 139.053 92.1516 139.241 92.1516 139.053C91.7778 139.241 91.2172 139.429 90.8435 139.618C90.8435 139.618 90.6566 139.618 90.6566 139.806C90.6566 139.994 90.6566 140.182 90.8435 140.182C91.0303 140.182 91.2172 140.37 91.2172 140.37C90.4697 140.747 89.7222 140.935 89.1616 141.311C88.9748 141.311 88.7879 141.5 88.9748 141.688C89.7223 141.688 90.4697 141.688 91.2172 141.5C91.2172 141.688 91.0303 141.876 91.0303 142.064C91.0303 142.253 91.4041 142.253 91.5909 142.253C91.9647 142.064 92.3384 142.064 92.7122 141.876C92.899 142.064 92.5253 142.253 92.5253 142.441C92.5253 142.629 92.899 142.629 93.0859 142.629C93.4596 142.441 93.8334 142.253 94.0202 142.064C94.0202 142.253 94.0202 142.441 94.0202 142.441C94.0202 142.629 94.0202 142.817 94.2071 142.817H94.394C94.7677 142.629 95.1414 142.253 95.3283 141.876C95.3283 142.064 95.5152 142.064 95.5152 142.064C95.7021 142.064 95.8889 142.064 96.0758 142.064C97.197 141.688 98.1313 140.747 98.5051 139.618C98.6919 139.241 98.6919 138.865 98.5051 138.677C98.3182 138.488 98.1313 138.488 97.9445 138.488C97.7576 138.488 97.5707 138.112 97.3839 137.924C97.3839 137.736 97.5707 137.359 97.7576 137.359C97.7576 137.171 97.9445 136.983 98.3182 136.983C98.5051 136.983 98.8788 137.171 99.0657 137.359C99.6263 137.547 100.374 137.171 100.747 136.606C101.308 135.665 101.121 134.536 100.747 133.783C100.561 132.089 99.8132 131.525 99.0657 130.772Z" fill="#1B441F"/>
<path d="M100 133.97C100.187 133.594 100 133.029 99.6263 132.653C99.4395 132.465 99.2526 132.465 99.0657 132.465C98.8789 132.465 98.8789 132.653 98.8789 132.653C98.692 132.088 98.5051 131.712 98.1314 131.335C98.1314 131.335 97.9445 131.147 97.7577 131.147C97.5708 131.147 97.3839 131.335 97.3839 131.524C97.3839 131.712 97.3839 131.9 97.5708 131.9C97.0102 131.335 96.4496 130.959 95.889 130.583C95.7021 130.583 95.5152 130.394 95.5152 130.583V130.771C95.5152 131.147 95.7021 131.335 96.0758 131.524C96.2627 131.712 96.4496 131.9 96.6364 132.088H96.4496C96.2627 132.088 96.0758 132.088 96.0758 132.277C96.0758 132.465 96.0758 132.465 96.2627 132.465C96.6364 132.841 97.0102 133.406 97.5708 133.594C97.7576 133.782 97.9445 133.97 98.1314 134.159C98.5051 134.723 98.3182 135.288 97.9445 135.852C97.9445 136.041 97.7577 136.041 97.7577 136.229C97.5708 136.417 97.3839 136.229 97.0102 136.229C96.0758 135.852 95.1415 135.476 94.5809 134.723C94.394 134.347 94.2072 133.97 94.0203 133.594C93.8334 133.218 93.4597 132.841 92.8991 132.653C92.7122 132.653 92.7122 132.653 92.5253 132.653C92.5253 132.653 92.5253 132.841 92.5253 133.029C92.8991 133.782 93.4597 134.159 93.6466 134.911C93.4597 134.911 93.2728 134.723 93.0859 134.347C92.7122 133.782 92.1516 133.218 91.591 132.841C91.4041 132.841 91.2173 132.653 91.2173 132.841V133.029C91.4041 133.406 91.9647 133.782 92.3385 134.159C91.2172 133.782 90.0961 133.594 88.9748 133.406C89.3486 133.97 89.9092 134.159 90.4698 134.347C91.0304 134.535 91.591 134.535 92.1516 134.347C92.3385 134.347 92.3385 134.347 92.5253 134.347C92.7122 134.347 92.7122 134.535 92.7122 134.723C92.7122 134.911 92.5253 134.911 92.5253 134.911C91.7779 135.1 91.0304 135.1 90.2829 135.288C90.2829 135.288 90.096 135.288 90.096 135.476C89.9092 135.664 90.2829 135.852 90.4698 135.852C91.0304 135.852 91.4041 135.852 91.9647 135.852C92.5253 135.664 92.8991 135.476 93.4597 135.664C93.6465 135.664 93.8334 135.852 93.6466 135.852C93.6466 135.852 93.6465 135.852 93.4597 136.041C92.8991 136.229 92.5253 136.417 91.9647 136.605C91.7779 136.605 91.7779 136.605 91.591 136.793C91.591 136.982 91.591 136.982 91.7779 136.982C91.9647 136.982 91.9647 136.982 92.1516 136.982C92.7122 136.793 93.086 136.605 93.6466 136.417C94.7678 136.041 95.889 136.605 97.0102 137.17C97.0102 137.17 97.197 137.17 97.197 137.358V137.546C96.8233 138.111 96.2627 138.487 95.5152 138.676C94.7678 138.864 94.2072 139.24 93.4597 139.428C93.2728 139.428 93.0859 139.617 93.0859 139.805C93.0859 139.993 93.2728 139.993 93.6466 139.993C93.2728 139.993 92.8991 140.181 92.5253 140.369C92.3385 140.369 92.3385 140.558 92.3385 140.746C92.3385 140.934 92.5253 140.934 92.7122 140.934C93.086 140.934 93.6466 140.934 94.0203 140.746C93.8334 140.934 94.2072 141.122 94.394 141.122C94.7678 141.122 94.9546 141.122 95.3284 140.934C95.5152 140.934 95.7021 140.746 95.889 140.746C95.889 140.746 96.0758 140.746 96.0758 140.934C96.6364 141.31 97.197 141.122 97.5708 140.934C98.1314 140.558 98.3183 140.181 98.692 139.617C98.8789 139.428 98.8789 139.24 98.8789 139.052C98.692 138.676 98.3182 138.676 97.9445 138.487C97.3839 138.299 97.3839 137.546 97.5708 137.17V137.358C97.7576 136.605 98.3183 136.041 99.0657 136.041C99.2526 136.041 99.6263 136.041 99.8132 136.041C100.187 136.041 100.374 135.664 100.561 135.476C100.748 135.1 100.934 134.723 100.748 134.535C100.748 134.347 100.561 134.159 100.374 134.159C100.187 133.782 100 133.782 100 133.97Z" fill="#1B441F"/>
<path opacity="0.7" d="M105.046 132.654C105.046 132.654 105.233 132.654 105.233 132.465C105.233 132.465 105.233 132.277 105.046 132.277C105.046 132.277 105.233 132.277 105.419 132.089C105.606 132.089 105.606 132.089 105.793 132.089C105.793 132.089 105.98 131.901 105.793 131.901C105.793 131.901 105.793 131.901 105.793 131.712C105.98 131.524 105.98 131.712 106.167 131.524C106.354 131.524 106.541 131.336 106.354 131.148C106.354 131.148 106.354 131.148 106.541 131.148C106.727 131.148 106.914 130.96 107.101 130.96L107.288 130.771C107.288 130.771 107.288 130.771 107.101 130.771C106.727 130.771 106.541 130.771 106.167 130.771C106.167 130.583 105.98 130.395 105.793 130.395C105.606 130.395 105.419 130.395 105.233 130.583C105.233 130.583 105.233 130.395 105.233 130.207C105.046 130.207 105.046 130.207 104.859 130.207C104.672 130.207 104.672 130.395 104.485 130.395C104.298 130.583 104.111 130.583 103.738 130.583C103.551 130.583 103.364 130.395 103.364 130.207C103.364 130.019 103.551 130.019 103.738 130.019C103.924 130.019 104.298 129.83 104.485 129.83C104.672 129.83 104.859 129.83 105.046 129.83C105.419 129.83 105.606 129.454 105.793 129.266L105.98 129.078V128.889C106.167 128.701 106.354 128.513 106.354 128.325V128.137C106.167 128.137 106.167 128.137 105.98 128.325C106.167 128.137 106.541 127.948 106.541 127.572C106.541 127.572 106.541 127.572 106.541 127.384C106.541 127.196 106.541 127.196 106.354 127.196C106.354 127.196 106.354 127.196 106.167 127.196L106.354 127.007C106.541 126.631 106.727 126.443 106.914 126.066C106.354 126.255 105.98 126.631 105.606 127.007C105.606 126.819 105.606 126.819 105.606 126.631C105.606 126.443 105.419 126.443 105.419 126.443H105.233C105.046 126.443 104.859 126.631 104.859 126.819C104.859 126.819 104.859 126.819 104.859 126.631C104.859 126.443 104.859 126.255 104.672 126.255C104.485 126.255 104.485 126.255 104.298 126.443C104.111 126.631 103.924 127.007 103.924 127.196V127.007L103.738 126.819H103.551C103.364 127.007 103.177 127.384 103.177 127.76C103.177 128.137 103.177 128.513 102.99 128.701C102.99 128.889 102.99 128.889 102.803 129.078L102.616 129.266C102.429 129.266 102.43 129.078 102.43 129.078C102.43 128.889 102.43 128.889 102.43 128.701C102.43 128.513 102.616 128.325 102.616 127.948C102.616 127.76 102.616 127.76 102.616 127.572C102.616 127.384 102.616 127.384 102.43 127.384C102.243 127.384 102.243 127.384 102.243 127.572C102.243 127.384 102.243 127.007 102.243 126.819C102.243 126.819 102.243 126.819 102.243 126.631H102.056L101.869 126.819C101.869 126.443 101.869 126.066 101.869 125.502C101.869 125.502 101.869 125.313 101.682 125.313C101.495 125.69 101.308 126.066 101.308 126.443C101.121 126.443 101.121 126.255 101.121 126.255C100.935 126.255 100.935 126.443 100.935 126.443C100.935 126.631 100.935 126.819 100.748 127.007C100.561 127.007 100.561 126.819 100.561 126.819C100.374 126.819 100.374 126.819 100.374 127.007C100.374 127.196 100.374 127.384 100.374 127.572C100.374 127.572 100.187 127.572 100.187 127.384H100C100 127.384 100 127.384 100 127.572C100 127.76 100 128.137 100.187 128.137H100C100 128.137 99.8133 128.325 99.8133 128.513C99.8133 129.078 100 129.83 100.374 130.207C100.561 130.395 100.748 130.395 100.748 130.395C100.935 130.395 100.935 130.207 100.935 130.207C101.121 130.019 101.121 130.019 101.308 130.019C101.495 130.019 101.495 130.207 101.495 130.395C101.495 130.395 101.682 130.583 101.495 130.771C101.495 130.96 101.308 130.96 101.121 131.148C100.935 131.336 100.935 131.901 101.121 132.089C101.495 132.465 102.056 132.654 102.43 132.654C104.111 133.03 104.672 132.842 105.046 132.654Z" fill="#1B441F"/>
<path d="M103.364 132.277C103.551 132.465 103.737 132.465 104.111 132.465C104.298 132.465 104.298 132.465 104.298 132.277V132.088C104.485 132.088 104.859 132.088 105.045 131.9C105.045 131.9 105.232 131.9 105.232 131.712V131.524H105.045C105.419 131.336 105.793 131.336 105.98 130.959L106.167 130.771C105.98 130.771 105.793 130.771 105.606 130.771C105.419 130.771 105.419 130.959 105.232 130.959V130.771H105.045C104.672 130.771 104.485 130.959 104.111 131.147C103.924 131.147 103.924 131.336 103.737 131.336C103.364 131.336 103.177 131.147 102.99 130.959V130.771C102.99 130.583 102.99 130.583 103.177 130.395C103.551 130.018 103.924 129.642 104.485 129.642C104.672 129.642 104.859 129.642 105.232 129.642C105.419 129.642 105.793 129.454 105.98 129.265C105.98 129.265 105.98 129.265 105.98 129.077H105.793C105.419 129.077 105.045 129.265 104.672 129.265C104.672 129.077 104.859 129.077 105.045 129.077C105.419 129.077 105.793 128.889 106.167 128.701C106.167 128.701 106.354 128.512 106.167 128.512C106.167 128.512 106.167 128.512 105.98 128.512C105.793 128.512 105.419 128.701 105.232 128.701C105.606 128.324 105.98 127.76 106.354 127.195C105.98 127.195 105.793 127.383 105.606 127.76C105.419 127.948 105.232 128.324 105.232 128.512C105.232 128.512 105.232 128.701 105.045 128.701H104.859V128.512C104.859 128.136 105.045 127.76 105.232 127.383C105.232 127.383 105.232 127.383 105.232 127.195H105.045C104.859 127.383 104.859 127.76 104.672 127.948C104.672 128.136 104.672 128.512 104.485 128.701C104.485 128.701 104.298 128.889 104.298 128.701C104.298 128.701 104.298 128.701 104.298 128.512C104.298 128.136 104.298 127.948 104.485 127.571V127.383H104.298V127.571C104.298 127.948 104.298 128.136 104.298 128.512C104.111 129.077 103.737 129.642 103.177 130.018C102.99 129.642 102.99 129.265 102.99 128.889C102.99 128.512 102.99 128.136 102.99 127.76V127.571C102.803 127.571 102.803 127.571 102.803 127.76C102.803 127.571 102.803 127.383 102.803 127.195C102.803 127.195 102.803 127.007 102.616 127.007C102.616 127.007 102.429 127.007 102.429 127.195C102.242 127.383 102.242 127.571 102.242 127.948H102.056C102.056 128.136 101.869 128.324 101.869 128.324C101.869 128.512 101.869 128.512 101.869 128.512C101.869 128.512 101.869 128.512 101.682 128.512C101.495 128.701 101.308 129.077 101.308 129.265C101.308 129.642 101.495 129.83 101.682 130.018L101.869 130.206C102.056 130.206 102.242 130.018 102.242 129.83C102.429 129.642 102.803 129.83 102.99 130.018H102.803C103.177 130.206 103.177 130.771 103.177 131.147C103.177 131.336 102.99 131.336 102.99 131.524C102.99 131.712 102.99 131.9 103.177 132.088C103.364 132.277 103.364 132.465 103.551 132.465C103.737 132.465 103.737 132.465 103.924 132.465C104.111 132.465 103.364 132.465 103.364 132.277Z" fill="#1B441F"/>
<path d="M95.5152 93.8835V88.2373H97.0101L97.9445 90.3076C98.1313 90.8722 98.5051 91.625 98.692 92.1896C98.692 91.4368 98.5051 90.684 98.5051 89.7429V88.2373H99.6263V93.8835H98.3182L97.3839 91.625C97.197 91.0604 96.8233 90.3076 96.6364 89.7429C96.6364 90.4958 96.6364 91.2486 96.6364 92.1896V93.8835H95.5152ZM103.177 89.7429C103.177 90.8722 102.429 91.2486 101.682 91.2486C100.747 91.2486 100.187 90.684 100.187 89.7429C100.187 88.8019 100.747 88.2373 101.682 88.2373C102.616 88.2373 103.177 88.8019 103.177 89.7429ZM100.374 92.3778V91.625H102.99V92.3778H100.374ZM101.121 89.7429C101.121 90.3076 101.308 90.684 101.682 90.684C102.056 90.684 102.242 90.3076 102.242 89.7429C102.242 89.3665 102.056 88.8019 101.682 88.8019C101.308 88.8019 101.121 89.3665 101.121 89.7429Z" fill="#EF3030"/>
<path d="M104.111 92.7542H105.232V89.5547H104.111V88.8019C104.672 88.6137 105.046 88.6137 105.419 88.2373H106.354V92.7542H107.475V93.8835H103.924V92.7542H104.111Z" fill="#EF3030"/>
<g style="mix-blend-mode:soft-light" opacity="0.1">
<path d="M88.4142 47.7719C86.3587 46.8309 82.8082 44.3842 81.1264 42.6903C79.6314 40.9965 77.9496 39.3026 75.7072 38.5498C74.2122 37.9852 73.091 37.4206 71.5961 38.1734C71.5961 38.1734 70.288 39.1144 69.5405 40.0555C68.6062 41.1847 67.8587 42.3139 67.485 43.6314C67.1112 44.5724 66.9244 45.8898 67.2981 46.8309C67.6718 47.5837 68.4193 48.1483 69.1668 48.7129C71.5961 50.2186 74.586 50.595 77.5759 50.9714C82.0607 51.536 86.5456 52.1006 90.8435 52.2888C92.7122 52.477 96.4496 52.8534 99.6264 52.2888C95.7021 50.9714 91.7779 49.4657 88.4142 47.7719Z" fill="white"/>
</g>
<g style="mix-blend-mode:soft-light" opacity="0.4">
<path d="M128.778 38.9272L126.535 37.2334C120.929 40.4329 114.202 40.9975 107.662 41.3739C107.475 43.4442 110.838 44.197 111.399 46.0791C111.96 47.9611 110.091 49.4668 108.97 50.9724C108.596 51.3488 108.409 51.9134 108.596 52.2899C108.783 52.6663 109.156 53.0427 109.717 53.0427C111.773 53.7955 114.202 53.4191 116.258 53.0427C121.116 52.1017 125.788 50.9724 130.459 49.655C131.394 49.2786 132.328 49.0904 132.889 48.1493C133.449 47.3965 133.449 46.6437 133.263 45.7027C133.263 43.0678 131.394 40.2447 128.778 38.9272Z" fill="#AFA5A5"/>
</g>
<g style="mix-blend-mode:soft-light" opacity="0.1">
<path d="M134.945 55.4883L134.758 54.1709C130.086 57.1822 118.687 59.0642 111.586 59.2525C108.035 59.2525 112.894 62.452 113.455 62.8284C128.217 73.5561 130.086 137.358 118.874 151.661C114.763 156.743 108.222 159.943 102.803 163.33C101.495 164.083 100.187 165.589 100.934 166.718C101.308 167.283 102.243 167.471 102.803 167.471C110.278 168.224 117.939 167.659 125.227 165.589C127.096 165.024 129.152 164.271 130.647 162.954C132.702 160.884 133.076 157.684 133.45 154.861C136.253 121.925 131.955 88.4243 134.945 55.4883Z" fill="#EBEBEB"/>
</g>
<g style="mix-blend-mode:soft-light" opacity="0.1">
<path d="M76.0807 159.567C72.7171 154.109 72.7171 147.521 72.7171 141.122C72.904 126.631 72.904 112.139 73.0909 97.4587C73.0909 87.672 73.6515 76.9442 80.005 69.6042C81.6868 67.7222 87.6666 65.6519 88.2272 63.2052C88.7878 60.7585 85.4242 59.8175 80.9393 58.5001C77.202 56.9944 73.4646 55.677 69.7272 54.1713C69.1666 53.9831 68.606 53.7949 67.8585 53.7949C65.9898 53.9831 65.6161 56.4298 65.803 58.3119C67.8585 91.8125 65.803 125.878 65.803 159.378C65.803 160.696 65.9899 162.39 67.4848 162.954C71.409 164.836 86.1716 167.283 96.0757 167.848C82.6211 165.589 78.3232 163.142 76.0807 159.567Z" fill="white"/>
</g>
<g opacity="0.1" style="mix-blend-mode:soft-light">
<path d="M75.7071 40.433C75.7071 39.3038 74.7728 38.3628 73.8384 37.9863C72.9041 37.4217 71.7829 38.1746 71.7829 38.1746C70.6616 38.9274 69.1667 40.2448 68.6061 41.5623C68.0455 43.2561 68.0455 44.7618 69.3536 46.0792C70.8485 47.5848 73.8384 47.9613 75.7071 48.3377C78.5101 48.9023 83.1818 49.8433 88.2273 49.8433C78.8839 45.5146 75.894 43.4443 75.7071 40.433Z" fill="white"/>
</g>
<path d="M102.99 34.7859C102.616 34.7859 99.2526 34.7859 99.2526 32.9038C99.2526 31.21 102.616 31.21 102.99 31.21C103.364 31.21 106.727 31.21 106.727 32.9038C106.727 34.7859 103.364 34.7859 102.99 34.7859ZM102.99 31.7746C100.934 31.7746 100.748 32.5274 100.748 32.9038C100.748 33.2802 101.121 33.6566 102.99 33.6566C104.859 33.6566 105.232 33.092 105.232 32.9038C105.232 32.7156 104.859 31.7746 102.99 31.7746Z" fill="#666666"/>
<path d="M102.99 34.5984C102.616 34.5984 99.2526 34.5984 99.2526 32.7163C99.2526 31.0225 102.616 31.0225 102.99 31.0225C103.364 31.0225 106.727 31.0225 106.727 32.7163C106.54 34.5984 103.364 34.5984 102.99 34.5984ZM102.99 31.5871C100.934 31.5871 100.747 32.3399 100.747 32.7163C100.747 33.0927 101.121 33.4691 102.99 33.6573C104.859 33.6573 105.232 33.0927 105.232 32.9045C105.045 32.3399 104.859 31.5871 102.99 31.5871Z" fill="#CCCCCC"/>
</svg>
