<svg width="200" height="200" viewBox="0 0 200 200" fill="none" xmlns="http://www.w3.org/2000/svg">
<path d="M61.6008 161.049C61.6008 161.049 63.8363 165 65.683 167.829C67.4325 170.659 82.7891 174.61 93.9663 174.61H107.476C118.653 174.61 134.01 170.659 135.759 167.829C137.606 165 139.842 161.049 139.842 161.049H61.6008Z" fill="url(#paint0_linear_2003_30265)"/>
<path d="M60.9203 161.244C62.4268 163.927 63.8361 167.732 66.5575 169.39C69.9593 171.488 74.2843 172.366 78.1235 173.195C85.8018 174.854 93.3829 175 101.158 175C108.934 175 116.515 174.61 124.193 172.854C127.741 172.073 131.629 171.098 134.787 169.195C137.557 167.537 139.015 163.732 140.57 160.951C140.667 160.756 140.23 160.756 140.133 160.756C115.786 160.756 91.3904 160.756 67.0435 160.756C65.3426 160.756 63.6417 160.756 61.8922 160.756C61.4549 160.756 60.3371 161.439 61.309 161.439C85.656 161.439 110.052 161.439 134.399 161.439C135.905 161.439 137.363 161.439 138.869 161.439C139.112 161.439 139.307 161.439 139.55 161.439C138.918 161.439 139.161 161.147 138.869 161.732C138.626 162.171 138.383 162.61 138.14 163C137.412 164.268 136.634 165.537 135.905 166.756C133.475 170.708 127.644 171.537 123.416 172.512C118.216 173.683 112.822 174.366 107.476 174.366C100.284 174.366 92.9941 174.659 85.8018 173.732C80.4076 173 74.8675 171.878 69.8135 169.829C65.8771 168.22 64.3707 164.464 62.3782 160.951C62.0866 160.464 60.7259 160.951 60.9203 161.244Z" fill="#555956"/>
<path d="M61.6008 161.049C61.6008 161.049 63.8363 165 65.683 167.829C66.5577 169.244 70.737 170.902 76.0827 172.268C76.0827 171.146 76.3743 170.171 77.5406 170.707C79.9218 171.878 106.067 174.903 121.715 171.585C126.478 170.512 127.255 170.61 127.304 171.732C131.677 170.512 134.933 169.098 135.662 167.878C137.509 165.049 139.744 161.098 139.744 161.098H61.6008V161.049Z" fill="url(#paint1_linear_2003_30265)"/>
<path d="M133.572 33.3906C133.572 33.3906 137.849 41.3419 139.89 44.7565C141.931 48.1711 142.271 50.0247 142.271 54.9516C142.271 59.8784 142.271 134.317 142.271 143.634C142.271 153.147 142.271 153 142.271 156.805C142.271 160.61 140.036 163.732 132.114 167.342C123.95 171.049 111.607 172.122 102.47 171.878H98.3398C92.0708 171.878 76.7628 169.976 68.5985 167.049C60.4343 164.074 57.8586 160.61 57.8586 156.805C57.8586 153 57.8586 153.147 57.8586 143.634C57.8586 134.317 57.8586 59.8784 57.8586 54.9516C57.8586 50.0247 58.1988 48.1711 60.2399 44.7565C62.281 41.3419 66.5575 33.3906 66.5575 33.3906H133.572Z" fill="url(#paint2_linear_2003_30265)"/>
<g style="mix-blend-mode:soft-light">
<path d="M60.0942 52.4638C60.0942 46.1712 66.2174 38.2687 70.6397 33.4395H66.509C66.509 33.4395 62.2811 41.3907 60.1914 44.8053C58.1504 48.22 57.8102 50.0736 57.8102 55.0005C57.8102 59.9273 57.8102 134.366 57.8102 143.683C57.8102 153.196 57.8102 153.049 57.8102 156.854C57.8102 158.805 58.4905 160.659 60.24 162.415C60.726 145.683 60.0942 61.3419 60.0942 52.4638Z" fill="url(#paint3_linear_2003_30265)"/>
</g>
<g style="mix-blend-mode:soft-light" opacity="0.6">
<path d="M96.9305 33.3906H84.7813L82.3029 44.3662C85.6074 45.0004 89.9811 45.6345 95.0838 45.9272L96.9305 33.3906Z" fill="url(#paint4_linear_2003_30265)"/>
<path d="M80.3591 54.4639V169.927C85.0244 170.757 89.9327 171.342 93.7232 171.635V55.8297C89.2037 55.781 84.6842 55.4395 80.3591 54.4639Z" fill="url(#paint5_linear_2003_30265)"/>
<path opacity="0.5" d="M117.633 33.3906H107.33L108.885 45.8296C112.627 45.537 116.515 45.0004 120.451 44.0736L117.633 33.3906Z" fill="url(#paint6_linear_2003_30265)"/>
<path opacity="0.5" d="M110.052 55.342V171.781C114.328 171.586 118.799 171.049 122.93 170.171V53.781L122.833 53.4883C118.702 54.7078 114.425 55.4395 110.052 55.342Z" fill="url(#paint7_linear_2003_30265)"/>
</g>
<g style="mix-blend-mode:overlay">
<path d="M139.89 44.7565C137.849 41.3419 133.572 33.3906 133.572 33.3906H124.728L133.718 51.098L134.01 166.464C140.424 163.683 142.222 160.22 142.222 156.805C142.222 153 142.222 153.147 142.222 143.634C142.222 134.317 142.222 59.8784 142.222 54.9516C142.271 50.0247 141.931 48.1711 139.89 44.7565Z" fill="url(#paint8_linear_2003_30265)"/>
</g>
<g opacity="0.5">
<path d="M124.631 85.098C118.848 100.074 113.405 100.269 99.652 96.1224C84.4412 91.3419 74.8676 98.2687 67.5781 109.147C63.1558 115.732 59.7541 125.732 57.8102 132.513C57.8102 137.878 57.8102 141.878 57.8102 143.635C57.8102 144.903 57.8102 146.025 57.8102 147C59.8512 141.976 63.5932 134.854 68.55 134.464C76.2283 133.83 80.0675 150.317 96.0558 148.659C112.044 147.049 116.272 134.22 123.95 122.805C131.045 112.269 138.189 113.439 142.223 120.22C142.223 102.757 142.223 80.0248 142.223 66.415C135.857 67.537 129.393 72.7077 124.631 85.098Z" fill="url(#paint9_linear_2003_30265)"/>
</g>
<path d="M139.89 44.7565C137.849 41.3419 133.572 33.3906 133.572 33.3906H66.5087C66.5087 33.3906 62.2808 41.3419 60.1911 44.7565C59.8509 45.3419 59.5593 45.8784 59.2678 46.415L65.4881 39.2931C65.4881 39.2931 98.8741 50.6101 132.211 39.9272C138.626 48.6101 128.129 55.4882 92.4593 55.1955C110.732 57.7808 128.421 54.0248 135.71 50.8541C139.161 49.6833 139.501 56.6102 139.501 69.6345C139.501 82.6589 139.501 127.781 139.501 145.098C139.501 162.464 118.021 171.147 94.549 169.683C77.4429 168.659 65.2451 164.659 58.6846 160.122C59.9481 162.61 62.9611 164.903 68.6469 166.952C76.8112 169.878 92.1192 171.781 98.3881 171.781H102.519C111.606 172.074 123.999 170.952 132.163 167.244C140.084 163.635 142.32 160.513 142.32 156.708C142.32 152.903 142.32 153.049 142.32 143.537C142.32 134.22 142.32 59.7809 142.32 54.854C142.271 50.0248 141.931 48.1711 139.89 44.7565Z" fill="url(#paint10_linear_2003_30265)"/>
<path d="M65.4397 50.3167C65.4397 50.3167 106.601 61.6825 137.071 49.585C137.12 49.585 111.558 64.4142 65.4397 50.3167Z" fill="#F1B6A0"/>
<path d="M80.6505 39.7317C80.6505 39.7317 87.2111 41.3903 101.499 41.1464C115.786 40.9025 101.499 44.2683 88.426 42.8537C75.3049 41.3903 74.09 39 80.6505 39.7317Z" fill="url(#paint11_linear_2003_30265)"/>
<path d="M123.902 85.1953C122.395 89.0489 120.646 93.0977 117.535 95.9758C114.377 98.8051 110.1 98.2685 106.261 97.4392C101.45 96.4148 96.8817 94.5612 91.9248 94.2685C87.9885 94.0734 84.1008 94.9026 80.5046 96.5124C71.9516 100.317 66.3144 109.049 62.621 117.195C60.3856 122.171 58.6361 127.342 57.1296 132.61C56.838 133.634 57.1296 135.195 57.1296 136.268C57.1296 137.683 57.1296 139.147 57.1296 140.61C57.1296 142.805 57.1296 145 57.1296 147.195C57.1296 147.488 58.4417 147.146 58.5875 146.903C60.2398 142.951 63.8359 134.122 69.2788 134.854C72.2918 135.244 74.673 138.268 76.6169 140.268C79.2411 142.951 81.9139 145.488 85.2185 147.244C89.0577 149.195 93.2856 149.39 97.4649 148.805C106.844 147.488 113.064 141.244 117.924 133.634C120.986 128.854 123.561 123.585 127.352 119.342C129.636 116.805 132.746 114.659 136.245 115.732C138.578 116.415 140.327 118.512 141.542 120.464C141.736 120.756 143 120.464 143 120.073C143 102.122 143 84.2197 143 66.2685C143 66.1221 142.465 66.1709 142.417 66.1709C132.698 67.927 127.255 76.7075 123.902 85.1953C123.804 85.4392 125.165 85.3416 125.311 84.9514C128.324 77.3416 133.281 68.3173 142.077 66.7075C141.882 66.7075 141.688 66.6587 141.494 66.6587C141.494 84.6099 141.494 102.512 141.494 120.464C141.979 120.366 142.465 120.22 142.951 120.073C140.91 116.756 137.849 114.366 133.815 114.854C129.15 115.439 125.748 119.39 123.221 123C117.098 131.829 112.87 143.195 101.984 147.195C96.25 149.293 89.9324 148.903 84.7326 145.732C81.3794 143.683 78.8523 140.659 76.0823 137.927C74.2356 136.073 71.9516 134.073 69.133 134.171C64.905 134.366 62.0865 137.781 60.0454 141.146C58.8305 143.049 57.9557 145.098 57.081 147.146C57.567 147.049 58.0529 146.903 58.5389 146.854C58.5389 144.854 58.5389 142.854 58.5389 140.854C58.5389 138.073 57.9071 134.512 58.6847 131.829C60.2398 126.561 62.0379 121.342 64.3219 116.317C68.4527 107.195 75.5478 97.3416 86.0446 95.2929C95.2294 93.488 103.394 99.6343 112.481 98.7075C119.674 97.927 122.978 91.049 125.311 85.049C125.457 84.7075 124.047 84.8538 123.902 85.1953Z" fill="url(#paint12_linear_2003_30265)"/>
<path d="M133.038 33.5367C134.836 36.9513 136.683 40.3171 138.627 43.683C139.744 45.6342 140.862 47.4879 141.348 49.683C141.785 51.5855 141.688 53.5855 141.688 55.4879C141.688 60.0245 141.688 64.561 141.688 69.0976C141.688 86.0244 141.688 102.951 141.688 119.878C141.688 132.317 141.98 144.854 141.688 157.293C141.542 163.098 134.544 166.122 129.976 167.927C123.464 170.463 116.175 171.244 109.225 171.537C99.7491 171.927 90.3214 171.293 80.9908 169.683C75.1106 168.659 69.1332 167.341 63.8848 164.463C61.7951 163.293 59.8998 161.683 58.8793 159.439C58.1989 157.976 58.3447 156.268 58.3447 154.659C58.3447 148.951 58.3447 143.244 58.3447 137.537C58.3447 121.683 58.3447 105.781 58.3447 89.9269C58.3447 77.683 58.1503 65.4391 58.3447 53.1952C58.4419 47.8293 61.2119 43.9269 63.6904 39.3903C64.6623 37.6343 65.6343 35.8294 66.5576 34.0733C67.1407 32.9513 65.78 33.683 66.6062 33.683C71.0285 33.683 75.4994 33.683 79.9217 33.683C97.7081 33.683 115.494 33.683 133.281 33.683C133.67 33.683 134.447 33.0977 133.718 33.0977C111.364 33.0977 89.0578 33.0977 66.7033 33.0977H66.6548C66.4604 33.0977 66.0716 33.1952 65.9744 33.3903C64.1277 36.805 62.3296 40.1708 60.3858 43.5367C59.3652 45.3416 58.2961 47.0488 57.7129 49.0976C57.1784 51.0976 57.227 53.244 57.227 55.3415C57.227 59.6342 57.227 63.9757 57.227 68.3171C57.227 85.1952 57.227 102.073 57.227 118.903C57.227 131.342 57.227 143.781 57.227 156.22C57.227 166.22 71.2228 168.561 78.8525 170.024C87.7943 171.732 96.6875 172.268 105.727 172.22C116.904 172.171 129.976 170.707 139.064 163.585C141.98 161.244 142.709 158.512 142.709 154.951C142.709 151.098 142.709 147.195 142.709 143.342C142.709 130.22 142.709 117.098 142.709 103.976C142.709 90.3659 142.709 76.7562 142.709 63.1952C142.709 59.8781 142.757 56.5123 142.66 53.1952C142.611 48.7562 140.862 45.683 138.724 41.9269C137.12 39.0489 135.565 36.1708 134.01 33.244C133.913 32.9025 132.892 33.244 133.038 33.5367Z" fill="#656610"/>
<path d="M134.884 34.1716C134.884 38.7082 119.188 42.4155 99.8462 42.4155C80.5047 42.4155 64.808 38.757 64.808 34.1716C64.808 29.635 80.5047 25.9277 99.8462 25.9277C119.188 25.9277 134.884 29.635 134.884 34.1716Z" fill="url(#paint13_linear_2003_30265)"/>
<path d="M99.8463 42.6592C80.0188 42.6592 64.5651 38.9031 64.5651 34.1714C64.5651 29.3909 80.0674 25.6836 99.8463 25.6836C119.674 25.6836 135.176 29.3909 135.176 34.1714C135.127 38.9519 119.625 42.6592 99.8463 42.6592ZM99.8463 26.2202C80.9908 26.2202 65.051 29.8787 65.051 34.1714C65.051 38.5128 80.9908 42.1714 99.8463 42.1714C118.702 42.1714 134.642 38.5128 134.642 34.1714C134.642 29.8299 118.702 26.2202 99.8463 26.2202Z" fill="#555956"/>
<path d="M134.885 34.1706C134.885 29.6341 119.188 25.9268 99.8463 25.9268C80.5048 25.9268 64.8081 29.5853 64.8081 34.1706C64.8081 35.5365 66.2174 36.8048 68.7444 37.9268L69.4734 37.0975C69.4734 37.0975 93.2372 45.0487 126.672 38.4633L127.158 39.3414C131.969 37.9267 134.885 36.1219 134.885 34.1706Z" fill="url(#paint14_linear_2003_30265)"/>
<path d="M134.884 32.5124C134.884 36.7563 119.188 40.171 99.8462 40.171C80.5047 40.171 64.808 36.7563 64.808 32.5124C64.808 28.2685 80.5047 25.2441 99.8462 25.2441C119.188 25.2441 134.884 28.2685 134.884 32.5124Z" fill="url(#paint15_linear_2003_30265)"/>
<path d="M99.8463 40.4146C80.0674 40.4146 64.5651 36.9512 64.5651 32.5122C64.5651 29.7317 70.2509 28.0244 75.0134 27.0488C81.5253 25.7317 90.3699 25 99.8463 25C109.371 25 118.167 25.7317 124.679 27.0488C129.442 28.0244 135.128 29.7317 135.128 32.5122C135.128 36.9512 119.625 40.4146 99.8463 40.4146ZM99.8463 25.5366C80.3104 25.5366 65.051 28.6098 65.051 32.561C65.051 36.561 80.9908 39.9756 99.8463 39.9756C118.702 39.9756 134.642 36.561 134.642 32.561C134.642 28.6098 119.334 25.5366 99.8463 25.5366Z" fill="#555956"/>
<path d="M99.7006 28.1702C116.029 28.1702 129.588 30.3166 131.92 33.0971C132.163 32.8044 132.26 32.5117 132.26 32.2677C132.26 29.097 117.73 26.4629 99.7491 26.4629C81.7684 26.4629 67.1893 29.0482 67.1893 32.2677C67.1893 32.5604 67.3352 32.8532 67.5295 33.0971C69.8136 30.3166 83.3721 28.1702 99.7006 28.1702Z" fill="url(#paint16_linear_2003_30265)"/>
<path d="M99.7004 38.0733C116.029 38.0733 129.587 35.927 131.92 33.0977C129.636 30.3173 116.078 28.1709 99.7004 28.1709C83.3233 28.1709 69.8135 30.3173 67.5294 33.0977C69.8135 35.927 83.3719 38.0733 99.7004 38.0733Z" fill="url(#paint17_linear_2003_30265)"/>
<path opacity="0.6" d="M99.7005 37.0002C112.627 37.0002 123.319 35.2929 125.117 33.0978C123.319 30.9026 112.627 29.1953 99.7005 29.1953C86.7737 29.1953 76.1311 30.9026 74.2844 33.0978C76.1311 35.2929 86.8223 37.0002 99.7005 37.0002Z" fill="url(#paint18_linear_2003_30265)"/>
<path d="M114.863 80.7072C114.183 81.8779 112.87 82.4145 111.996 81.9267C111.121 81.4389 110.927 80.0242 111.607 78.8535C112.287 77.6828 113.599 77.1462 114.474 77.634C115.349 78.1706 115.543 79.5364 114.863 80.7072Z" fill="url(#paint19_linear_2003_30265)"/>
<path d="M114.863 77.9756C114.96 78.2195 115.009 78.4634 114.863 78.7073C114.329 79.5853 115.009 79.9756 114.28 81.0975C113.6 82.2195 112.288 81.8292 111.85 81.4878C111.413 81.1951 111.413 79.9268 111.85 79.2926C112.142 78.9024 112.045 78.4634 112.288 78.0244C112.045 78.2195 111.85 78.5121 111.656 78.8048C110.975 79.9756 111.17 81.3414 112.045 81.878C112.919 82.4146 114.231 81.878 114.912 80.6585C115.446 79.7317 115.398 78.6097 114.863 77.9756Z" fill="url(#paint20_linear_2003_30265)"/>
<path d="M120.111 74.7555C119.82 75.2921 119.188 75.5848 118.799 75.2921C118.362 75.0482 118.265 74.4141 118.605 73.8775C118.945 73.2921 119.528 73.0482 119.966 73.2921C120.354 73.536 120.403 74.1702 120.111 74.7555Z" fill="url(#paint21_linear_2003_30265)"/>
<path d="M120.111 73.4385C120.16 73.536 120.16 73.6824 120.111 73.78C119.868 74.1702 120.16 74.3653 119.82 74.9019C119.48 75.4385 118.848 75.2434 118.653 75.097C118.459 74.9507 118.459 74.3653 118.653 74.0726C118.799 73.8775 118.751 73.6824 118.848 73.4872C118.751 73.5848 118.653 73.6824 118.556 73.8287C118.216 74.3653 118.313 74.9995 118.751 75.2434C119.139 75.4873 119.771 75.2433 120.063 74.7068C120.354 74.3165 120.354 73.7799 120.111 73.4385Z" fill="url(#paint22_linear_2003_30265)"/>
<path d="M114.668 89.8776C114.182 90.7069 113.259 91.0971 112.627 90.7069C111.996 90.3166 111.898 89.3898 112.336 88.5605C112.822 87.7313 113.745 87.341 114.377 87.7313C115.009 88.0727 115.154 89.0484 114.668 89.8776Z" fill="url(#paint23_linear_2003_30265)"/>
<path d="M114.669 87.9756C114.766 88.1219 114.766 88.317 114.669 88.5122C114.28 89.1463 114.766 89.439 114.231 90.2195C113.745 91 112.822 90.7073 112.53 90.5121C112.239 90.317 112.239 89.3902 112.53 88.9512C112.725 88.6585 112.676 88.3658 112.822 88.0731C112.676 88.2195 112.482 88.4146 112.385 88.6097C111.899 89.439 112.044 90.4146 112.676 90.756C113.308 91.0975 114.183 90.7561 114.717 89.9268C115.057 89.1951 115.057 88.4146 114.669 87.9756Z" fill="url(#paint24_linear_2003_30265)"/>
<path d="M62.0868 67.4879C61.7467 68.0733 61.0663 68.3659 60.5804 68.0733C60.143 67.7806 60.0458 67.0977 60.386 66.4635C60.7261 65.8294 61.4065 65.5855 61.8925 65.8294C62.3785 66.1708 62.427 66.8538 62.0868 67.4879Z" fill="url(#paint25_linear_2003_30265)"/>
<path d="M62.087 66.0742C62.1356 66.2205 62.1842 66.3181 62.087 66.4644C61.7955 66.9035 62.1357 67.0986 61.7955 67.6839C61.4067 68.2693 60.7264 68.0741 60.532 67.879C60.289 67.7327 60.289 67.0498 60.532 66.7083C60.6778 66.5132 60.6778 66.2693 60.775 66.0254C60.6292 66.123 60.532 66.2693 60.4348 66.4156C60.0946 67.0497 60.1918 67.7327 60.6291 68.0254C61.1151 68.3181 61.7469 68.0254 62.1357 67.44C62.3787 67.001 62.3786 66.4156 62.087 66.0742Z" fill="url(#paint26_linear_2003_30265)"/>
<path d="M63.7391 71.4388C63.4961 71.8778 63.0102 72.0729 62.67 71.8778C62.3298 71.6827 62.2812 71.1949 62.5242 70.7071C62.7672 70.268 63.2532 70.0729 63.5933 70.268C63.9335 70.4631 63.9821 70.9997 63.7391 71.4388Z" fill="url(#paint27_linear_2003_30265)"/>
<path d="M63.739 70.4141C63.7876 70.5116 63.7876 70.6092 63.739 70.7067C63.5446 71.0482 63.7876 71.1946 63.496 71.5848C63.253 72.0238 62.767 71.8775 62.5726 71.7311C62.4268 71.6336 62.4268 71.1458 62.5726 70.9019C62.6698 70.7555 62.6699 70.6092 62.7184 70.4141C62.6213 70.5116 62.5727 70.6092 62.4755 70.7067C62.2325 71.1458 62.2811 71.6824 62.6213 71.8775C62.9615 72.0726 63.4474 71.8775 63.6904 71.4384C63.9334 71.0482 63.9334 70.658 63.739 70.4141Z" fill="url(#paint28_linear_2003_30265)"/>
<path d="M68.113 96.0243C67.7242 96.6585 67.0925 97 66.6551 96.7073C66.2177 96.4634 66.1692 95.7316 66.5579 95.0975C66.9467 94.4633 67.5785 94.1219 68.0644 94.4145C68.4532 94.6097 68.5018 95.3902 68.113 96.0243Z" fill="url(#paint29_linear_2003_30265)"/>
<path d="M68.1616 94.5615C68.2102 94.7079 68.2102 94.8054 68.1616 94.9517C67.87 95.4395 68.1616 95.6347 67.8214 96.2688C67.4327 96.903 66.8009 96.6591 66.5579 96.5127C66.3636 96.3664 66.3635 95.6835 66.6065 95.342C66.7523 95.0981 66.7523 94.903 66.8495 94.6591C66.7037 94.7566 66.6065 94.903 66.5094 95.0981C66.1206 95.7322 66.1692 96.464 66.6065 96.7079C67.0439 96.9518 67.7242 96.6591 68.0644 96.0249C68.4532 95.4884 68.4532 94.8542 68.1616 94.5615Z" fill="url(#paint30_linear_2003_30265)"/>
<path d="M135.905 62.0244C135.565 62.6586 134.885 63 134.447 62.7074C134.01 62.4635 133.961 61.7318 134.302 61.0976C134.69 60.4635 135.371 60.1708 135.808 60.4147C136.245 60.6586 136.294 61.3903 135.905 62.0244Z" fill="url(#paint31_linear_2003_30265)"/>
<path d="M136.003 60.5605C136.051 60.7069 136.051 60.8045 136.003 60.9508C135.711 61.4386 136.051 61.6337 135.662 62.2191C135.274 62.8532 134.593 62.6581 134.399 62.5118C134.204 62.3654 134.204 61.6825 134.447 61.3411C134.593 61.0972 134.593 60.902 134.69 60.6581C134.545 60.7557 134.447 60.9021 134.35 61.0972C134.01 61.7313 134.059 62.463 134.496 62.7069C134.933 62.9508 135.614 62.6581 135.954 62.024C136.245 61.4874 136.245 60.902 136.003 60.5605Z" fill="url(#paint32_linear_2003_30265)"/>
<path d="M68.5017 146.073C68.1129 146.707 67.4811 146.999 67.0438 146.756C66.6064 146.512 66.5092 145.78 66.898 145.146C67.2867 144.512 67.9185 144.17 68.3559 144.414C68.8418 144.707 68.8905 145.438 68.5017 146.073Z" fill="url(#paint33_linear_2003_30265)"/>
<path d="M68.5503 144.609C68.5989 144.756 68.5989 144.902 68.5503 145C68.2587 145.487 68.5988 145.683 68.1615 146.268C67.7727 146.902 67.141 146.707 66.898 146.561C66.7036 146.414 66.7522 145.731 66.9466 145.39C67.0923 145.195 67.0437 144.951 67.1895 144.707C67.0437 144.804 66.9466 145 66.8494 145.146C66.4606 145.78 66.5092 146.512 66.9952 146.756C67.4326 147 68.0643 146.707 68.4531 146.073C68.8419 145.536 68.8418 144.951 68.5503 144.609Z" fill="url(#paint34_linear_2003_30265)"/>
<path d="M124.194 136.659C123.708 137.927 122.638 138.659 121.764 138.366C120.889 138.024 120.597 136.756 121.083 135.488C121.569 134.22 122.638 133.439 123.513 133.781C124.339 134.122 124.68 135.39 124.194 136.659Z" fill="url(#paint35_linear_2003_30265)"/>
<path d="M123.902 134.024C124.048 134.22 124.048 134.463 123.951 134.756C123.611 135.732 124.242 135.927 123.708 137.195C123.173 138.415 121.958 138.268 121.57 138.024C121.132 137.78 120.986 136.561 121.327 135.878C121.57 135.439 121.424 135.049 121.57 134.61C121.375 134.854 121.229 135.146 121.084 135.488C120.598 136.756 120.938 138.024 121.764 138.366C122.639 138.659 123.708 137.927 124.194 136.659C124.583 135.585 124.437 134.561 123.902 134.024Z" fill="url(#paint36_linear_2003_30265)"/>
<path d="M128.713 130.805C128.422 131.488 127.838 131.927 127.352 131.732C126.866 131.536 126.721 130.854 126.964 130.122C127.207 129.439 127.838 129 128.324 129.195C128.81 129.39 128.956 130.122 128.713 130.805Z" fill="url(#paint37_linear_2003_30265)"/>
<path d="M128.567 129.39C128.616 129.536 128.664 129.634 128.616 129.78C128.421 130.316 128.762 130.463 128.47 131.097C128.178 131.78 127.498 131.682 127.304 131.585C127.061 131.438 127.012 130.804 127.207 130.414C127.304 130.17 127.255 129.975 127.304 129.731C127.207 129.877 127.109 130.024 127.012 130.17C126.769 130.853 126.915 131.585 127.401 131.78C127.887 131.975 128.47 131.536 128.762 130.853C128.907 130.219 128.859 129.634 128.567 129.39Z" fill="url(#paint38_linear_2003_30265)"/>
<path d="M107.038 137.634C105.046 139.975 102.179 140.853 100.624 139.536C99.0687 138.219 99.4574 135.292 101.499 132.902C103.491 130.561 106.358 129.731 107.913 131C109.42 132.317 109.031 135.292 107.038 137.634Z" fill="white"/>
<path d="M70.9795 123.927C70.6394 125.195 69.6674 126.024 68.8413 125.78C68.0151 125.536 67.6264 124.366 67.9666 123.097C68.3067 121.829 69.2786 121 70.1048 121.244C70.9309 121.439 71.3197 122.61 70.9795 123.927Z" fill="white"/>
<path d="M73.5064 112.463C73.312 113.146 72.8261 113.537 72.3887 113.439C71.9513 113.341 71.7569 112.707 71.9513 112.024C72.1457 111.39 72.6317 110.951 73.0691 111.049C73.5064 111.195 73.7008 111.829 73.5064 112.463Z" fill="white"/>
<path d="M63.9332 130.268C63.7388 130.951 63.2528 131.39 62.8154 131.244C62.378 131.146 62.1837 130.512 62.3781 129.829C62.5725 129.146 63.0584 128.707 63.4958 128.853C63.9332 129 64.079 129.634 63.9332 130.268Z" fill="white"/>
<path d="M113.502 128.268C113.307 128.951 112.821 129.39 112.384 129.244C111.947 129.097 111.752 128.512 111.947 127.829C112.141 127.146 112.627 126.707 113.064 126.853C113.502 127 113.696 127.634 113.502 128.268Z" fill="white"/>
<path d="M132.017 86.6092C131.823 87.2921 131.337 87.7311 130.899 87.5848C130.462 87.4872 130.268 86.8531 130.462 86.1701C130.656 85.4872 131.142 85.097 131.58 85.1945C132.017 85.3409 132.212 85.9262 132.017 86.6092Z" fill="white"/>
<path d="M134.981 81.1463C134.787 81.8292 134.301 82.2682 133.864 82.1219C133.426 82.0243 133.232 81.3902 133.426 80.7072C133.621 80.0243 134.107 79.6341 134.544 79.7316C134.981 79.878 135.176 80.5121 134.981 81.1463Z" fill="white"/>
<path d="M136.731 86.7075C136.585 87.1465 136.245 87.4879 135.953 87.3903C135.662 87.2928 135.516 86.8537 135.613 86.4147C135.759 85.9269 136.099 85.6342 136.439 85.683C136.731 85.7806 136.877 86.2684 136.731 86.7075Z" fill="white"/>
<path d="M76.4224 116.219C76.2766 116.658 75.9364 116.999 75.6449 116.902C75.3047 116.804 75.1589 116.365 75.3047 115.877C75.4505 115.438 75.7907 115.097 76.0822 115.194C76.4224 115.292 76.5682 115.731 76.4224 116.219Z" fill="white"/>
<path d="M66.8004 128.903C66.7032 129.293 66.4116 129.586 66.12 129.488C65.877 129.391 65.7312 129 65.8284 128.61C65.9256 128.22 66.2172 127.927 66.5088 128.025C66.8004 128.122 66.8975 128.513 66.8004 128.903Z" fill="white"/>
<path d="M100.624 99.2427C100.478 99.6329 100.186 99.9256 99.9432 99.828C99.7002 99.7305 99.5545 99.389 99.6517 98.9988C99.7489 98.6085 100.04 98.3159 100.332 98.4134C100.624 98.4134 100.769 98.8037 100.624 99.2427Z" fill="white"/>
<path d="M131.92 33.0984C131.92 33.0984 131.871 33.0496 131.774 32.9521C131.677 32.8545 131.531 32.757 131.385 32.6106C130.997 32.3667 130.365 32.0252 129.539 31.6838C127.838 31.0009 125.359 30.4155 122.298 29.9277C119.236 29.4399 115.64 29.0496 111.801 28.8057C107.962 28.5618 103.831 28.4155 99.7003 28.4155C95.5696 28.4155 91.4875 28.513 87.5997 28.8057C83.7606 29.0496 80.1644 29.4399 77.1028 29.9277C74.0412 30.4155 71.5628 31.0009 69.8619 31.6838C69.0358 32.0252 68.404 32.3667 68.0153 32.6106C67.8209 32.757 67.6751 32.9033 67.6265 32.9521C67.5293 33.0496 67.4807 33.0984 67.4807 33.0984C67.4807 33.0984 67.5293 33.0496 67.5779 32.9521C67.6751 32.8545 67.8209 32.7082 68.0153 32.5618C68.404 32.2692 68.9872 31.9277 69.8133 31.5374C71.4656 30.8545 73.9927 30.1716 77.0542 29.5862C80.1158 29.0496 83.6634 28.5618 87.5511 28.3179C91.3903 28.0252 95.521 27.8789 99.6517 27.8789C103.782 27.8789 107.913 28.0252 111.752 28.3179C115.591 28.6106 119.188 29.0496 122.249 29.5862C125.311 30.1228 127.789 30.8057 129.49 31.5374C130.316 31.8789 130.948 32.2692 131.337 32.5618C131.531 32.7082 131.677 32.8545 131.726 32.9521C131.871 33.0496 131.92 33.0984 131.92 33.0984Z" fill="white"/>
<path opacity="0.6" d="M73.1667 32.3164C73.1667 32.3164 71.7573 32.7066 73.2152 33.8286C74.7217 34.9018 78.7067 37.2432 92.9455 37.4384C107.427 37.9262 109.614 34.5603 104.9 34.4627C100.284 34.2676 84.3439 37.8774 73.1667 32.3164Z" fill="#A5A5A5"/>
<path d="M86.5797 34.6107C78.221 34.318 74.6249 32.5131 73.0698 30.9521C72.5839 31.9765 73.5072 33.44 76.3258 34.6107C80.8453 36.5131 87.3087 36.7082 95.9103 36.8058C102.86 36.8546 105.678 34.8546 106.164 32.6595C104.123 34.5619 98.2429 35.0009 86.5797 34.6107Z" fill="url(#paint39_linear_2003_30265)"/>
<path d="M86.5793 34.513C82.3028 34.3667 76.5198 34.074 73.2638 30.9032C73.2152 30.8057 72.8751 30.8057 72.8265 30.9032C71.8546 33.4886 76.6656 34.952 78.3665 35.4398C81.8654 36.4642 85.6074 36.6593 89.2522 36.7569C93.4315 36.9032 97.9024 37.2935 101.985 36.2203C103.88 35.7325 105.921 34.6593 106.455 32.6106C106.504 32.4642 106.067 32.513 106.018 32.5618C104.366 34.0252 101.742 34.2203 99.6519 34.4154C95.3268 34.8057 90.953 34.6594 86.5793 34.513C86.2878 34.513 86.2878 34.7081 86.5793 34.7081C91.1474 34.8544 95.7642 35.0008 100.284 34.5618C102.276 34.3667 104.803 34.1227 106.407 32.6593C106.261 32.6106 106.115 32.6106 105.921 32.6106C105.386 34.6593 103.297 35.6349 101.401 36.1227C97.6594 37.0983 93.4801 36.7081 89.641 36.5618C86.3364 36.4642 82.9832 36.2691 79.7272 35.5374C78.3179 35.1959 76.9572 34.7569 75.6937 34.1715C74.6245 33.6349 72.7293 32.4154 73.2638 30.952C73.118 30.952 72.9723 30.952 72.8265 31.0008C76.1797 34.3179 82.1571 34.5617 86.5308 34.7081C86.8709 34.7081 86.8709 34.513 86.5793 34.513Z" fill="#7A7978"/>
<path d="M106.164 30.9505C105.483 28.17 101.158 28.0725 90.9042 28.5115C80.6989 28.9505 75.3047 29.731 75.3047 29.731C74.1383 29.8773 73.3608 30.3164 73.0692 30.9505C74.6243 32.5115 78.2204 34.3651 86.5791 34.609C98.2423 34.9993 104.123 34.5603 106.212 32.609C106.309 32.0725 106.309 31.4871 106.164 30.9505ZM84.3436 32.6578C81.6708 32.6578 79.3868 32.2676 78.4149 31.731C79.3868 31.1944 81.6708 30.853 84.3436 30.853C87.0165 30.853 89.3005 31.1944 90.2724 31.731C89.3005 32.2676 87.0165 32.6578 84.3436 32.6578ZM99.3115 32.853C97.2704 32.853 95.4723 32.4139 94.6461 31.8286C95.4237 31.1944 97.2704 30.7554 99.4086 30.7554C101.45 30.7554 103.248 31.1944 104.074 31.7797C103.296 32.4139 101.45 32.853 99.3115 32.853Z" fill="url(#paint40_linear_2003_30265)"/>
<path d="M106.407 30.9993C105.921 29.2432 104.074 28.7554 102.47 28.5115C98.4855 27.8774 94.3062 28.2676 90.3212 28.4627C86.1905 28.6579 82.0597 28.9018 77.8804 29.3408C76.3739 29.4871 73.6526 29.4383 72.8264 30.9018C72.8264 30.9505 72.8264 30.9505 72.8264 30.9993C74.3329 32.5115 76.4711 33.2432 78.5122 33.7798C82.8373 34.9018 87.5026 34.853 91.9735 34.9017C95.4239 34.9505 98.9229 34.9505 102.276 34.3652C103.248 34.17 104.22 33.9262 105.143 33.5359C105.483 33.3896 105.824 33.1944 106.115 32.9505C106.747 32.5115 106.553 31.6334 106.407 30.9993C106.407 30.853 105.872 30.8042 105.921 30.9505C106.212 32.3164 105.872 32.7554 104.754 33.292C104.025 33.6335 103.199 33.8286 102.422 34.0237C100.089 34.5115 97.6593 34.5603 95.2781 34.6091C91.6333 34.6578 87.94 34.6578 84.2952 34.3652C81.428 34.17 78.5122 33.731 75.888 32.6091C75.159 32.2676 74.4301 31.8774 73.7984 31.3896C72.6806 30.5115 74.7703 29.9261 75.4992 29.8286C76.5684 29.6822 77.6861 29.5847 78.7552 29.4383C84.9756 28.8042 91.2931 28.4627 97.5135 28.4139C99.8462 28.4139 105.095 27.9261 105.872 30.9505C105.969 31.0969 106.455 31.1456 106.407 30.9993Z" fill="#7A7978"/>
<path d="M84.2949 32.5123C82.4482 32.5123 80.4557 32.4636 78.7549 31.7319C78.9492 31.8294 80.4071 31.2441 80.7473 31.1953C81.8164 31.0002 82.9342 30.9514 84.0033 30.9514C85.2668 30.9026 86.5303 31.0002 87.7452 31.1465C88.134 31.1953 89.8835 31.7319 89.8835 31.7319C88.2312 32.5123 86.0444 32.5123 84.2463 32.5123C83.9061 32.5123 84.2949 32.7075 84.4893 32.7075C86.4332 32.7075 88.7172 32.6587 90.5152 31.7806C90.6124 31.7318 90.5153 31.6343 90.4667 31.6343C88.62 30.7563 86.3359 30.7075 84.3435 30.7075C82.3996 30.6587 80.067 30.7563 78.2689 31.6343C78.1717 31.6831 78.2689 31.7806 78.3175 31.7806C80.1155 32.6587 82.4482 32.7075 84.4406 32.7075C84.7322 32.7562 84.5379 32.5123 84.2949 32.5123Z" fill="#7A7978"/>
<path d="M99.2628 32.7557C98.5339 32.7557 97.805 32.707 97.1246 32.6094C96.833 32.5606 94.5489 32.1216 95.2779 31.6826C96.347 31.0484 97.8536 30.9509 99.0685 30.9021C99.8946 30.8533 100.769 30.9509 101.595 31.0484C101.887 31.0972 104.171 31.585 103.442 31.9753C102.227 32.707 100.575 32.7557 99.1656 32.7557C98.8255 32.7557 99.2142 32.9509 99.36 32.9509C101.012 32.9021 102.859 32.8046 104.268 31.8289C104.317 31.7802 104.268 31.7313 104.22 31.7313C102.81 30.8045 100.964 30.707 99.3115 30.6582C97.7078 30.6582 95.7153 30.8045 94.3546 31.7801C94.306 31.8289 94.4031 31.8777 94.4031 31.8777C95.8124 32.8045 97.6592 32.9509 99.3115 32.9509C99.7002 32.9509 99.4572 32.7557 99.2628 32.7557Z" fill="#7A7978"/>
<path d="M90.2724 31.7314C90.6126 31.585 90.807 31.3899 90.807 31.1948C90.807 30.3655 87.9398 29.6826 84.3436 29.6826C80.7961 29.6826 77.8802 30.3655 77.8802 31.1948C77.8802 31.3899 78.0747 31.585 78.4149 31.7314C79.3868 31.1948 81.6708 30.8534 84.3436 30.8534C87.0165 30.8534 89.3005 31.1948 90.2724 31.7314Z" fill="url(#paint41_linear_2003_30265)"/>
<path d="M103.588 33.4869C97.7561 34.5113 95.958 34.5601 93.0422 33.2918C91.4385 32.5601 88.9601 34.1699 85.6555 34.0236C78.8033 33.7309 75.4016 32.0235 76.7137 31.7308C77.9772 31.4382 78.2202 30.5113 76.2763 30.1699C75.3044 30.0235 74.3324 30.2186 73.5063 30.5113C73.3605 30.6577 73.2147 30.8528 73.1176 30.9991C74.6726 32.5601 78.2688 34.4138 86.6274 34.6577C98.2906 35.0479 104.171 34.6089 106.261 32.6577C106.261 32.5601 106.309 32.4138 106.309 32.3162C105.775 32.804 104.9 33.243 103.588 33.4869Z" fill="url(#paint42_linear_2003_30265)"/>
<path d="M104.074 31.7808C104.366 31.5856 104.511 31.3417 104.511 31.0491C104.511 30.0734 102.179 29.293 99.3116 29.293C96.4444 29.293 94.1117 30.0734 94.1117 31.0491C94.1117 31.3417 94.3061 31.5857 94.6462 31.8296C95.4238 31.1954 97.2705 30.7564 99.4088 30.7564C101.45 30.7564 103.248 31.1466 104.074 31.7808Z" fill="url(#paint43_linear_2003_30265)"/>
<path d="M76.86 30.9999C76.86 31.3417 76.2282 31.5858 75.4506 31.5858C74.6731 31.5858 74.0414 31.3417 74.0414 30.9999C74.0414 30.6581 74.6731 30.4141 75.4506 30.4141C76.2282 30.4141 76.86 30.707 76.86 30.9999Z" fill="url(#paint44_linear_2003_30265)"/>
<path d="M76.7629 30.9998C76.6171 31.7803 74.333 31.7803 74.1872 30.9998C74.09 30.3169 76.6171 30.1705 76.7629 30.9998C76.7629 31.0486 77.0059 31.0486 77.0059 30.9998C76.8601 30.073 74.09 30.073 73.9443 30.9998C73.7985 31.8291 76.8601 31.9754 77.0059 30.9998C77.0059 30.951 76.7629 30.951 76.7629 30.9998Z" fill="#555956"/>
<path d="M76.0338 30.8046C76.0338 30.9999 75.6937 31.1464 75.3049 31.1464C74.9161 31.1464 74.5759 30.9999 74.5759 30.8046C74.5759 30.6582 74.9161 30.5117 75.3049 30.5117C75.6937 30.5117 76.0338 30.6582 76.0338 30.8046Z" fill="url(#paint45_linear_2003_30265)"/>
<path d="M72.7293 38.5606C72.7293 38.5606 87.5027 42.5606 111.364 41.1947C115.64 40.8533 104.852 43.2435 87.9887 41.7313C74.576 40.463 71.4172 38.3654 72.7293 38.5606Z" fill="white"/>
<path d="M106.212 32.6097C104.123 34.5609 98.2423 35 86.5791 34.6097C78.2205 34.317 74.6243 32.5121 73.0692 30.9512C72.7291 31.7317 73.1664 32.7561 74.7215 33.7805C74.7701 33.439 74.9159 33.0975 75.4018 33.3414C76.2766 33.8292 81.525 36.2683 99.0198 35.4878C101.693 35.2439 100.818 36.2195 96.8816 36.7561C103.151 36.6585 105.726 34.7073 106.212 32.6097Z" fill="url(#paint46_linear_2003_30265)"/>
<path d="M73.3609 28.5127C73.3609 28.5127 68.4526 29.4883 66.8975 31.342C65.3424 33.1956 68.9386 35.5371 78.6579 37.1956C73.9441 37.6347 64.9051 34.7566 65.5368 31.8298C66.2658 29.5859 73.3609 28.5127 73.3609 28.5127Z" fill="white"/>
<path d="M77.9778 30.903C77.9778 30.903 77.9778 30.8542 78.075 30.8054C78.1236 30.7566 78.2694 30.659 78.4152 30.5615C78.561 30.4639 78.8039 30.3664 78.9983 30.2688C79.2413 30.1713 79.5328 30.0737 79.8244 30.0249C80.116 29.9274 80.4562 29.8786 80.7964 29.8298C81.1365 29.781 81.5253 29.7323 81.9627 29.6835C82.3515 29.6347 82.7888 29.6347 83.1776 29.5859C83.5664 29.5859 84.0037 29.5371 84.4411 29.5371C85.2673 29.5859 86.142 29.6347 86.9196 29.7322C87.6971 29.8298 88.426 29.9273 89.0578 30.0737C89.6896 30.22 90.1755 30.4152 90.4671 30.6591C90.6129 30.7566 90.7101 30.903 90.7101 31.0005C90.6615 30.903 90.5643 30.8054 90.4185 30.7079C90.127 30.5127 89.5924 30.3664 88.9606 30.2688C88.3289 30.1713 87.5999 30.0737 86.8224 30.0249C86.0448 29.9274 85.2187 29.8786 84.3439 29.8786C83.9066 29.8786 83.4692 29.8786 83.0804 29.8786C82.6431 29.8786 82.2543 29.9274 81.8655 29.9274C81.4767 29.9762 81.088 29.9761 80.7478 30.0249C80.4076 30.0737 80.0674 30.1225 79.7758 30.1713C79.4843 30.2201 79.1927 30.3176 78.9497 30.3664C78.7067 30.4152 78.5123 30.5128 78.3179 30.6103C78.1236 30.6591 78.0264 30.7566 77.9292 30.8054C77.9778 30.8542 77.9778 30.903 77.9778 30.903Z" fill="white"/>
<path d="M94.4034 30.5124C94.4034 30.5124 94.4035 30.4637 94.5007 30.4149C94.5493 30.3661 94.6464 30.2685 94.7922 30.2198C94.8894 30.171 95.0838 30.0246 95.2782 29.9758C95.4726 29.8783 95.667 29.7807 95.9586 29.7319C96.2016 29.6344 96.4445 29.5368 96.7847 29.488C97.0763 29.4393 97.3679 29.3417 97.708 29.3417C98.0482 29.3417 98.3398 29.2441 98.68 29.2441C99.0202 29.2441 99.3603 29.2441 99.7005 29.2441C100.041 29.2441 100.381 29.2929 100.721 29.3417C101.061 29.3905 101.401 29.4393 101.693 29.5368C102.325 29.6344 102.908 29.8295 103.394 30.0246C103.88 30.2197 104.22 30.4637 104.414 30.7076C104.609 30.9515 104.56 31.1466 104.56 31.1466C104.56 31.1466 104.56 31.0978 104.56 31.049C104.512 30.9514 104.512 30.8539 104.414 30.7563C104.317 30.6588 104.171 30.5612 104.026 30.4149C103.831 30.3173 103.637 30.2198 103.394 30.1222C102.908 29.9271 102.325 29.8295 101.693 29.7319C101.401 29.6832 101.061 29.6344 100.721 29.5856C100.381 29.5368 100.041 29.488 99.7005 29.5368C99.3603 29.5368 99.0202 29.5368 98.68 29.5368C98.3398 29.5368 98.0482 29.5856 97.708 29.6344C97.3679 29.6344 97.0763 29.7319 96.7847 29.7319C96.4931 29.7807 96.2501 29.8783 96.0072 29.9271C95.7642 29.9759 95.5212 30.0734 95.3268 30.1222C95.1324 30.2198 94.9866 30.2686 94.8408 30.3661C94.695 30.4149 94.6464 30.5124 94.5493 30.5124C94.4035 30.4636 94.4034 30.5124 94.4034 30.5124Z" fill="white"/>
<defs>
<linearGradient id="paint0_linear_2003_30265" x1="61.6218" y1="167.836" x2="139.84" y2="167.836" gradientUnits="userSpaceOnUse">
<stop stop-color="#616061"/>
<stop offset="0.0122193" stop-color="#676667"/>
<stop offset="0.0287821" stop-color="#787778"/>
<stop offset="0.0477536" stop-color="#949494"/>
<stop offset="0.0547274" stop-color="#A0A0A0"/>
<stop offset="0.0728053" stop-color="#A6A6A6"/>
<stop offset="0.0973136" stop-color="#B7B7B7"/>
<stop offset="0.1255" stop-color="#D4D4D4"/>
<stop offset="0.1562" stop-color="#FBFBFB"/>
<stop offset="0.1589" stop-color="white"/>
<stop offset="0.4451" stop-color="#6E6D6E"/>
<stop offset="0.6785" stop-color="#CDCFCE"/>
<stop offset="0.7664" stop-color="white"/>
<stop offset="0.9287" stop-color="#878B87"/>
<stop offset="1" stop-color="#616061"/>
</linearGradient>
<linearGradient id="paint1_linear_2003_30265" x1="61.6218" y1="167.068" x2="139.84" y2="167.068" gradientUnits="userSpaceOnUse">
<stop stop-color="#616061"/>
<stop offset="0.0122193" stop-color="#676667"/>
<stop offset="0.0287821" stop-color="#787778"/>
<stop offset="0.0477536" stop-color="#949494"/>
<stop offset="0.0547274" stop-color="#A0A0A0"/>
<stop offset="0.0728053" stop-color="#A6A6A6"/>
<stop offset="0.0973136" stop-color="#B7B7B7"/>
<stop offset="0.1255" stop-color="#D4D4D4"/>
<stop offset="0.1562" stop-color="#FBFBFB"/>
<stop offset="0.1589" stop-color="white"/>
<stop offset="0.4451" stop-color="#6E6D6E"/>
<stop offset="0.6785" stop-color="#CDCFCE"/>
<stop offset="0.7664" stop-color="white"/>
<stop offset="0.9287" stop-color="#878B87"/>
<stop offset="1" stop-color="#616061"/>
</linearGradient>
<linearGradient id="paint2_linear_2003_30265" x1="56.0381" y1="102.659" x2="159.584" y2="102.659" gradientUnits="userSpaceOnUse">
<stop offset="0.0811743" stop-color="#C79F20"/>
<stop offset="0.1792" stop-color="#E5A234"/>
<stop offset="0.3153" stop-color="#FBE4DB"/>
<stop offset="0.5686" stop-color="#E5A234"/>
<stop offset="0.7223" stop-color="#FBE4DB"/>
<stop offset="0.8577" stop-color="#D6AD2C"/>
</linearGradient>
<linearGradient id="paint3_linear_2003_30265" x1="2.33812" y1="19.6449" x2="81.9713" y2="117.703" gradientUnits="userSpaceOnUse">
<stop offset="0.3153" stop-color="#FBE4DB"/>
<stop offset="0.8577" stop-color="#957613"/>
</linearGradient>
<linearGradient id="paint4_linear_2003_30265" x1="89.6212" y1="57.5113" x2="89.6212" y2="80.4853" gradientUnits="userSpaceOnUse">
<stop offset="0.3153" stop-color="#FBE4DB"/>
<stop offset="0.8577" stop-color="#957613"/>
</linearGradient>
<linearGradient id="paint5_linear_2003_30265" x1="87.029" y1="56.1997" x2="87.029" y2="101.886" gradientUnits="userSpaceOnUse">
<stop offset="0.3153" stop-color="#FBE4DB"/>
<stop offset="0.8577" stop-color="#957613"/>
</linearGradient>
<linearGradient id="paint6_linear_2003_30265" x1="113.903" y1="57.5079" x2="113.903" y2="80.4786" gradientUnits="userSpaceOnUse">
<stop offset="0.3153" stop-color="#FBE4DB"/>
<stop offset="0.8577" stop-color="#957613"/>
</linearGradient>
<linearGradient id="paint7_linear_2003_30265" x1="116.524" y1="56.2004" x2="116.524" y2="101.886" gradientUnits="userSpaceOnUse">
<stop offset="0.3153" stop-color="#FBE4DB"/>
<stop offset="0.8577" stop-color="#957613"/>
</linearGradient>
<linearGradient id="paint8_linear_2003_30265" x1="56.0217" y1="99.9429" x2="159.587" y2="99.9429" gradientUnits="userSpaceOnUse">
<stop stop-color="#957613"/>
<stop offset="0.126" stop-color="#E5A234"/>
<stop offset="0.3153" stop-color="#EA946C"/>
<stop offset="0.5686" stop-color="#E5A234"/>
<stop offset="0.8577" stop-color="#957613"/>
</linearGradient>
<linearGradient id="paint9_linear_2003_30265" x1="82.3993" y1="130.089" x2="179.512" y2="57.5282" gradientUnits="userSpaceOnUse">
<stop offset="0.1867" stop-color="#EA946C"/>
<stop offset="0.8577" stop-color="#957613"/>
</linearGradient>
<linearGradient id="paint10_linear_2003_30265" x1="56.0446" y1="102.659" x2="159.583" y2="102.659" gradientUnits="userSpaceOnUse">
<stop stop-color="#957613"/>
<stop offset="0.126" stop-color="#E5A234"/>
<stop offset="0.3153" stop-color="#FBE4DB"/>
<stop offset="0.5686" stop-color="#E5A234"/>
<stop offset="0.8577" stop-color="#957613"/>
</linearGradient>
<linearGradient id="paint11_linear_2003_30265" x1="75.8244" y1="41.3923" x2="113.786" y2="41.3923" gradientUnits="userSpaceOnUse">
<stop offset="0.3153" stop-color="#FBE4DB"/>
<stop offset="0.8577" stop-color="#957613"/>
</linearGradient>
<linearGradient id="paint12_linear_2003_30265" x1="57.8149" y1="148.567" x2="151.741" y2="78.388" gradientUnits="userSpaceOnUse">
<stop offset="0.1867" stop-color="#EA946C"/>
<stop offset="0.8577" stop-color="#957613"/>
</linearGradient>
<linearGradient id="paint13_linear_2003_30265" x1="59.4233" y1="22.8794" x2="126.768" y2="41.5662" gradientUnits="userSpaceOnUse">
<stop stop-color="#616061"/>
<stop offset="0.0122193" stop-color="#676667"/>
<stop offset="0.0287821" stop-color="#787778"/>
<stop offset="0.0477536" stop-color="#949494"/>
<stop offset="0.0547274" stop-color="#A0A0A0"/>
<stop offset="0.0728053" stop-color="#A6A6A6"/>
<stop offset="0.0973136" stop-color="#B7B7B7"/>
<stop offset="0.1255" stop-color="#D4D4D4"/>
<stop offset="0.1562" stop-color="#FBFBFB"/>
<stop offset="0.1589" stop-color="white"/>
<stop offset="0.4451" stop-color="#818081"/>
<stop offset="0.6785" stop-color="#CDCFCE"/>
<stop offset="0.7664" stop-color="white"/>
<stop offset="0.945" stop-color="#878B87"/>
<stop offset="1" stop-color="#616061"/>
</linearGradient>
<linearGradient id="paint14_linear_2003_30265" x1="84.713" y1="60.998" x2="101.4" y2="31.5958" gradientUnits="userSpaceOnUse">
<stop stop-color="#616061"/>
<stop offset="0.0122193" stop-color="#676667"/>
<stop offset="0.0287821" stop-color="#787778"/>
<stop offset="0.0477536" stop-color="#949494"/>
<stop offset="0.0547274" stop-color="#A0A0A0"/>
<stop offset="0.0728053" stop-color="#A6A6A6"/>
<stop offset="0.0973136" stop-color="#B7B7B7"/>
<stop offset="0.1255" stop-color="#D4D4D4"/>
<stop offset="0.1562" stop-color="#FBFBFB"/>
<stop offset="0.1589" stop-color="white"/>
<stop offset="0.4451" stop-color="#818081"/>
<stop offset="0.6785" stop-color="#CDCFCE"/>
<stop offset="0.7664" stop-color="white"/>
<stop offset="0.945" stop-color="#878B87"/>
<stop offset="1" stop-color="#616061"/>
</linearGradient>
<linearGradient id="paint15_linear_2003_30265" x1="70.6865" y1="18.4686" x2="134.608" y2="49.134" gradientUnits="userSpaceOnUse">
<stop stop-color="#616061"/>
<stop offset="0.0122193" stop-color="#676667"/>
<stop offset="0.0287821" stop-color="#787778"/>
<stop offset="0.0477536" stop-color="#949494"/>
<stop offset="0.0547274" stop-color="#A0A0A0"/>
<stop offset="0.0728053" stop-color="#A6A6A6"/>
<stop offset="0.0973136" stop-color="#B7B7B7"/>
<stop offset="0.1255" stop-color="#D4D4D4"/>
<stop offset="0.1562" stop-color="#FBFBFB"/>
<stop offset="0.1589" stop-color="white"/>
<stop offset="0.4451" stop-color="#818081"/>
<stop offset="0.6785" stop-color="#CDCFCE"/>
<stop offset="0.7664" stop-color="white"/>
<stop offset="0.945" stop-color="#878B87"/>
<stop offset="1" stop-color="#616061"/>
</linearGradient>
<linearGradient id="paint16_linear_2003_30265" x1="58.312" y1="29.0003" x2="141.847" y2="31.4697" gradientUnits="userSpaceOnUse">
<stop stop-color="#959495"/>
<stop offset="0.0157538" stop-color="#9B9A9B"/>
<stop offset="0.0370578" stop-color="#ACABAC"/>
<stop offset="0.0547274" stop-color="#BFBFBF"/>
<stop offset="0.0779869" stop-color="#C5C5C5"/>
<stop offset="0.1095" stop-color="#D6D6D6"/>
<stop offset="0.1456" stop-color="#F3F3F3"/>
<stop offset="0.1589" stop-color="white"/>
<stop offset="0.4451" stop-color="#9E9D9E"/>
<stop offset="0.6785" stop-color="#DEDFDE"/>
<stop offset="0.7664" stop-color="white"/>
<stop offset="0.9287" stop-color="#AEB2AF"/>
<stop offset="1" stop-color="#959495"/>
</linearGradient>
<linearGradient id="paint17_linear_2003_30265" x1="68.9305" y1="13.3193" x2="119.61" y2="45.6587" gradientUnits="userSpaceOnUse">
<stop offset="0.2172" stop-color="white"/>
<stop offset="0.5982" stop-color="#C9C9C9"/>
<stop offset="0.712" stop-color="#A5A5A5"/>
<stop offset="0.9382" stop-color="#BFBFBF"/>
</linearGradient>
<linearGradient id="paint18_linear_2003_30265" x1="75.405" y1="17.4838" x2="115.418" y2="43.0169" gradientUnits="userSpaceOnUse">
<stop offset="0.2172" stop-color="white"/>
<stop offset="0.5982" stop-color="#C9C9C9"/>
<stop offset="0.712" stop-color="#A5A5A5"/>
<stop offset="0.9382" stop-color="#BFBFBF"/>
</linearGradient>
<linearGradient id="paint19_linear_2003_30265" x1="112.654" y1="81.9985" x2="114.277" y2="75.9899" gradientUnits="userSpaceOnUse">
<stop offset="0.3153" stop-color="#FBE4DB"/>
<stop offset="0.8577" stop-color="#957613"/>
</linearGradient>
<linearGradient id="paint20_linear_2003_30265" x1="112.95" y1="82.1044" x2="113.632" y2="76.8054" gradientUnits="userSpaceOnUse">
<stop offset="0.1867" stop-color="#EA946C"/>
<stop offset="0.8577" stop-color="#957613"/>
</linearGradient>
<linearGradient id="paint21_linear_2003_30265" x1="119.057" y1="75.3418" x2="119.819" y2="72.5188" gradientUnits="userSpaceOnUse">
<stop offset="0.3153" stop-color="#FBE4DB"/>
<stop offset="0.8577" stop-color="#957613"/>
</linearGradient>
<linearGradient id="paint22_linear_2003_30265" x1="119.198" y1="75.3947" x2="119.519" y2="72.8998" gradientUnits="userSpaceOnUse">
<stop offset="0.1867" stop-color="#EA946C"/>
<stop offset="0.8577" stop-color="#957613"/>
</linearGradient>
<linearGradient id="paint23_linear_2003_30265" x1="113.107" y1="90.7851" x2="114.253" y2="86.5408" gradientUnits="userSpaceOnUse">
<stop offset="0.3153" stop-color="#FBE4DB"/>
<stop offset="0.8577" stop-color="#957613"/>
</linearGradient>
<linearGradient id="paint24_linear_2003_30265" x1="113.317" y1="90.8602" x2="113.797" y2="87.125" gradientUnits="userSpaceOnUse">
<stop offset="0.1867" stop-color="#EA946C"/>
<stop offset="0.8577" stop-color="#957613"/>
</linearGradient>
<linearGradient id="paint25_linear_2003_30265" x1="60.9362" y1="68.1448" x2="61.7832" y2="65.0102" gradientUnits="userSpaceOnUse">
<stop offset="0.3153" stop-color="#FBE4DB"/>
<stop offset="0.8577" stop-color="#957613"/>
</linearGradient>
<linearGradient id="paint26_linear_2003_30265" x1="61.0889" y1="68.201" x2="61.4439" y2="65.4416" gradientUnits="userSpaceOnUse">
<stop offset="0.1867" stop-color="#EA946C"/>
<stop offset="0.8577" stop-color="#957613"/>
</linearGradient>
<linearGradient id="paint27_linear_2003_30265" x1="62.8788" y1="71.903" x2="63.4895" y2="69.6429" gradientUnits="userSpaceOnUse">
<stop offset="0.3153" stop-color="#FBE4DB"/>
<stop offset="0.8577" stop-color="#957613"/>
</linearGradient>
<linearGradient id="paint28_linear_2003_30265" x1="62.988" y1="71.9423" x2="63.2447" y2="69.947" gradientUnits="userSpaceOnUse">
<stop offset="0.1867" stop-color="#EA946C"/>
<stop offset="0.8577" stop-color="#957613"/>
</linearGradient>
<linearGradient id="paint29_linear_2003_30265" x1="66.9678" y1="96.7397" x2="67.7631" y2="93.4468" gradientUnits="userSpaceOnUse">
<stop offset="0.3153" stop-color="#FBE4DB"/>
<stop offset="0.8577" stop-color="#957613"/>
</linearGradient>
<linearGradient id="paint30_linear_2003_30265" x1="67.117" y1="96.7905" x2="67.375" y2="93.9291" gradientUnits="userSpaceOnUse">
<stop offset="0.1867" stop-color="#EA946C"/>
<stop offset="0.8577" stop-color="#957613"/>
</linearGradient>
<linearGradient id="paint31_linear_2003_30265" x1="134.77" y1="62.7458" x2="135.564" y2="59.4596" gradientUnits="userSpaceOnUse">
<stop offset="0.3153" stop-color="#FBE4DB"/>
<stop offset="0.8577" stop-color="#957613"/>
</linearGradient>
<linearGradient id="paint32_linear_2003_30265" x1="134.921" y1="62.7968" x2="135.178" y2="59.9361" gradientUnits="userSpaceOnUse">
<stop offset="0.1867" stop-color="#EA946C"/>
<stop offset="0.8577" stop-color="#957613"/>
</linearGradient>
<linearGradient id="paint33_linear_2003_30265" x1="67.3523" y1="146.796" x2="68.1465" y2="143.507" gradientUnits="userSpaceOnUse">
<stop offset="0.3153" stop-color="#FBE4DB"/>
<stop offset="0.8577" stop-color="#957613"/>
</linearGradient>
<linearGradient id="paint34_linear_2003_30265" x1="67.5005" y1="146.845" x2="67.7596" y2="143.973" gradientUnits="userSpaceOnUse">
<stop offset="0.1867" stop-color="#EA946C"/>
<stop offset="0.8577" stop-color="#957613"/>
</linearGradient>
<linearGradient id="paint35_linear_2003_30265" x1="122.342" y1="138.305" x2="122.801" y2="132.186" gradientUnits="userSpaceOnUse">
<stop offset="0.3153" stop-color="#FBE4DB"/>
<stop offset="0.8577" stop-color="#957613"/>
</linearGradient>
<linearGradient id="paint36_linear_2003_30265" x1="122.624" y1="138.349" x2="122.247" y2="133.148" gradientUnits="userSpaceOnUse">
<stop offset="0.1867" stop-color="#EA946C"/>
<stop offset="0.8577" stop-color="#957613"/>
</linearGradient>
<linearGradient id="paint37_linear_2003_30265" x1="127.692" y1="131.731" x2="127.945" y2="128.348" gradientUnits="userSpaceOnUse">
<stop offset="0.3153" stop-color="#FBE4DB"/>
<stop offset="0.8577" stop-color="#957613"/>
</linearGradient>
<linearGradient id="paint38_linear_2003_30265" x1="127.845" y1="131.756" x2="127.637" y2="128.882" gradientUnits="userSpaceOnUse">
<stop offset="0.1867" stop-color="#EA946C"/>
<stop offset="0.8577" stop-color="#957613"/>
</linearGradient>
<linearGradient id="paint39_linear_2003_30265" x1="73.0041" y1="33.7042" x2="124.078" y2="34.4452" gradientUnits="userSpaceOnUse">
<stop stop-color="#C9C9C9"/>
<stop offset="0.1673" stop-color="white"/>
<stop offset="0.3264" stop-color="#787878"/>
<stop offset="0.6662" stop-color="white"/>
<stop offset="1" stop-color="#787878"/>
</linearGradient>
<linearGradient id="paint40_linear_2003_30265" x1="82.6813" y1="24.8956" x2="97.7608" y2="37.2766" gradientUnits="userSpaceOnUse">
<stop stop-color="#C9C9C9"/>
<stop offset="0.1673" stop-color="white"/>
<stop offset="0.3264" stop-color="#787878"/>
<stop offset="0.6662" stop-color="white"/>
<stop offset="1" stop-color="#787878"/>
</linearGradient>
<linearGradient id="paint41_linear_2003_30265" x1="77.9188" y1="30.6941" x2="90.8084" y2="30.6941" gradientUnits="userSpaceOnUse">
<stop stop-color="#616061"/>
<stop offset="0.0122193" stop-color="#676667"/>
<stop offset="0.0287821" stop-color="#787778"/>
<stop offset="0.0477536" stop-color="#949494"/>
<stop offset="0.0547274" stop-color="#A0A0A0"/>
<stop offset="0.0728053" stop-color="#A6A6A6"/>
<stop offset="0.0973136" stop-color="#B7B7B7"/>
<stop offset="0.1255" stop-color="#D4D4D4"/>
<stop offset="0.1562" stop-color="#FBFBFB"/>
<stop offset="0.1589" stop-color="white"/>
<stop offset="0.4451" stop-color="#818081"/>
<stop offset="0.6785" stop-color="#CDCFCE"/>
<stop offset="0.7664" stop-color="white"/>
<stop offset="0.945" stop-color="#878B87"/>
<stop offset="1" stop-color="#616061"/>
</linearGradient>
<linearGradient id="paint42_linear_2003_30265" x1="90.4182" y1="21.2215" x2="89.3458" y2="36.1841" gradientUnits="userSpaceOnUse">
<stop stop-color="#C9C9C9"/>
<stop offset="0.1673" stop-color="white"/>
<stop offset="0.3264" stop-color="#787878"/>
<stop offset="0.6662" stop-color="white"/>
<stop offset="1" stop-color="#787878"/>
</linearGradient>
<linearGradient id="paint43_linear_2003_30265" x1="94.1243" y1="30.5595" x2="104.491" y2="30.5595" gradientUnits="userSpaceOnUse">
<stop stop-color="#616061"/>
<stop offset="0.0122193" stop-color="#676667"/>
<stop offset="0.0287821" stop-color="#787778"/>
<stop offset="0.0477536" stop-color="#949494"/>
<stop offset="0.0547274" stop-color="#A0A0A0"/>
<stop offset="0.0728053" stop-color="#A6A6A6"/>
<stop offset="0.0973136" stop-color="#B7B7B7"/>
<stop offset="0.1255" stop-color="#D4D4D4"/>
<stop offset="0.1562" stop-color="#FBFBFB"/>
<stop offset="0.1589" stop-color="white"/>
<stop offset="0.4451" stop-color="#818081"/>
<stop offset="0.6785" stop-color="#CDCFCE"/>
<stop offset="0.7664" stop-color="white"/>
<stop offset="0.945" stop-color="#878B87"/>
<stop offset="1" stop-color="#616061"/>
</linearGradient>
<linearGradient id="paint44_linear_2003_30265" x1="69.8011" y1="28.8121" x2="85.7404" y2="34.9419" gradientUnits="userSpaceOnUse">
<stop stop-color="#616061"/>
<stop offset="0.0122193" stop-color="#676667"/>
<stop offset="0.0287821" stop-color="#787778"/>
<stop offset="0.0477536" stop-color="#949494"/>
<stop offset="0.0547274" stop-color="#A0A0A0"/>
<stop offset="0.0728053" stop-color="#A6A6A6"/>
<stop offset="0.0973136" stop-color="#B7B7B7"/>
<stop offset="0.1255" stop-color="#D4D4D4"/>
<stop offset="0.1562" stop-color="#FBFBFB"/>
<stop offset="0.1589" stop-color="white"/>
<stop offset="0.4451" stop-color="#818081"/>
<stop offset="0.6785" stop-color="#CDCFCE"/>
<stop offset="0.7664" stop-color="white"/>
<stop offset="0.945" stop-color="#878B87"/>
<stop offset="1" stop-color="#616061"/>
</linearGradient>
<linearGradient id="paint45_linear_2003_30265" x1="72.2868" y1="29.657" x2="80.6914" y2="32.8892" gradientUnits="userSpaceOnUse">
<stop stop-color="#616061"/>
<stop offset="0.0122193" stop-color="#676667"/>
<stop offset="0.0287821" stop-color="#787778"/>
<stop offset="0.0477536" stop-color="#949494"/>
<stop offset="0.0547274" stop-color="#A0A0A0"/>
<stop offset="0.0728053" stop-color="#A6A6A6"/>
<stop offset="0.0973136" stop-color="#B7B7B7"/>
<stop offset="0.1255" stop-color="#D4D4D4"/>
<stop offset="0.1562" stop-color="#FBFBFB"/>
<stop offset="0.1589" stop-color="white"/>
<stop offset="0.4451" stop-color="#818081"/>
<stop offset="0.6785" stop-color="#CDCFCE"/>
<stop offset="0.7664" stop-color="white"/>
<stop offset="0.945" stop-color="#878B87"/>
<stop offset="1" stop-color="#616061"/>
</linearGradient>
<linearGradient id="paint46_linear_2003_30265" x1="73.0068" y1="33.6824" x2="124.076" y2="34.4234" gradientUnits="userSpaceOnUse">
<stop stop-color="#C9C9C9"/>
<stop offset="0.1673" stop-color="white"/>
<stop offset="0.3264" stop-color="#787878"/>
<stop offset="0.6662" stop-color="white"/>
<stop offset="1" stop-color="#787878"/>
</linearGradient>
</defs>
</svg>
