<svg width="200" height="200" viewBox="0 0 200 200" fill="none" xmlns="http://www.w3.org/2000/svg">
<path d="M100.593 63.422C93.2959 62.6629 85.9993 61.9037 78.8547 61.2964C75.5104 60.9928 72.0141 60.6891 68.6698 60.5373C54.8367 60.2337 47.6921 66.3067 43.5877 71.6206C42.2196 73.4425 40.2434 79.9711 39.6354 82.2485C39.0273 84.3741 39.0273 91.8136 39.0273 94.091C39.1794 97.2793 38.8753 100.468 39.4834 103.504C41.6115 114.739 51.6444 130.833 101.505 127.645C105.001 127.493 113.058 125.823 114.882 122.027C117.77 116.106 115.49 114.284 117.618 111.096C118.378 109.881 119.442 108.97 120.354 108.059C122.634 105.63 124.307 102.593 124.763 99.4049C125.219 96.2165 124.307 92.7245 122.178 90.2953C121.114 89.2325 119.898 88.3216 119.29 86.9551C118.074 84.3741 119.442 81.3375 119.138 78.6047C118.834 76.0236 117.314 73.7462 115.794 71.6206C114.274 69.6469 112.754 67.5213 110.625 66.1549C107.433 64.1811 103.937 63.7257 100.593 63.422Z" fill="#CC1213"/>
<mask id="mask0_9002_25149" style="mask-type:luminance" maskUnits="userSpaceOnUse" x="39" y="60" width="86" height="69">
<path d="M100.593 63.422C93.2959 62.6629 85.9993 61.9037 78.8547 61.2964C75.5104 60.9928 72.0141 60.6891 68.6698 60.5373C54.8367 60.2337 47.6921 66.3067 43.5877 71.6206C42.2196 73.4425 40.2434 79.9711 39.6354 82.2485C39.0273 84.3741 39.0273 91.8136 39.0273 94.091C39.1794 97.2793 38.8753 100.468 39.4834 103.504C41.6115 114.739 51.6444 130.833 101.505 127.645C105.001 127.493 113.058 125.823 114.882 122.027C117.77 116.106 115.49 114.284 117.618 111.096C118.378 109.881 119.442 108.97 120.354 108.059C122.634 105.63 124.307 102.593 124.763 99.4049C125.219 96.2165 124.307 92.7245 122.178 90.2953C121.114 89.2325 119.898 88.3216 119.29 86.9551C118.074 84.3741 119.442 81.3375 119.138 78.6047C118.834 76.0236 117.314 73.7462 115.794 71.6206C114.274 69.6469 112.754 67.5213 110.625 66.1549C107.433 64.1811 103.937 63.7257 100.593 63.422Z" fill="white"/>
</mask>
<g mask="url(#mask0_9002_25149)">
<g opacity="0.2">
<path d="M120.658 61.7525C115.794 49.6064 54.5326 52.1874 46.3239 57.805C40.6995 61.7525 27.3224 72.2285 26.8663 78.9089C26.4103 85.2856 28.0824 106.845 27.7784 113.07C27.6264 115.803 56.5088 127.645 55.5967 130.226C54.2286 134.022 103.025 156.644 110.321 156.189C116.858 155.733 119.29 146.927 115.49 142.372C110.473 136.451 103.633 132.807 100.137 125.975C98.3123 122.635 97.7043 119.902 98.0083 116.714C98.4643 111.552 101.201 106.39 102.417 101.379C103.481 96.6726 103.177 91.6623 101.809 86.9557C100.593 82.8564 97.7043 78.6052 98.0083 74.3541C98.3123 71.0139 101.809 68.7365 104.545 67.5219C108.649 65.7 112.602 66.3073 117.01 66.4591C119.898 66.6109 121.722 64.3335 120.658 61.7525Z" fill="#AC1618"/>
</g>
</g>
<mask id="mask1_9002_25149" style="mask-type:luminance" maskUnits="userSpaceOnUse" x="39" y="60" width="86" height="69">
<path d="M100.593 63.422C93.2959 62.6629 85.9993 61.9037 78.8547 61.2964C75.5104 60.9928 72.0141 60.6891 68.6698 60.5373C54.8367 60.2337 47.6921 66.3067 43.5877 71.6206C42.2196 73.4425 40.2434 79.9711 39.6354 82.2485C39.0273 84.3741 39.0273 91.8136 39.0273 94.091C39.1794 97.2793 38.8753 100.468 39.4834 103.504C41.6115 114.739 51.6444 130.833 101.505 127.645C105.001 127.493 113.058 125.823 114.882 122.027C117.77 116.106 115.49 114.284 117.618 111.096C118.378 109.881 119.442 108.97 120.354 108.059C122.634 105.63 124.307 102.593 124.763 99.4049C125.219 96.2165 124.307 92.7245 122.178 90.2953C121.114 89.2325 119.898 88.3216 119.29 86.9551C118.074 84.3741 119.442 81.3375 119.138 78.6047C118.834 76.0236 117.314 73.7462 115.794 71.6206C114.274 69.6469 112.754 67.5213 110.625 66.1549C107.433 64.1811 103.937 63.7257 100.593 63.422Z" fill="white"/>
</mask>
<g mask="url(#mask1_9002_25149)">
<g opacity="0.2">
<path d="M90.2556 55.9828C83.2631 44.8995 23.522 58.7157 16.5295 65.8516C11.665 70.71 0.568112 83.4634 1.32818 90.1438C2.08824 96.5205 7.71269 117.473 8.62477 123.546C9.08081 126.279 39.4834 132.503 39.1793 135.236C38.5713 139.336 90.7117 152.544 97.8563 150.723C104.241 149.052 105.001 139.943 100.44 136.147C94.512 131.289 87.0634 128.86 82.1989 122.938C79.7667 119.902 78.7027 117.473 78.3986 114.132C77.9426 108.97 79.6147 103.353 79.7667 98.1906C79.9187 93.3321 78.7027 88.4737 76.5745 84.2225C74.7503 80.4269 70.95 76.7831 70.494 72.5319C70.19 69.1917 73.2302 66.307 75.6624 64.6369C79.4627 62.2077 83.4151 62.0559 87.6714 61.2968C90.2556 60.8413 91.6238 58.2602 90.2556 55.9828Z" fill="#AC1618"/>
</g>
</g>
<mask id="mask2_9002_25149" style="mask-type:luminance" maskUnits="userSpaceOnUse" x="39" y="60" width="86" height="69">
<path d="M100.593 63.422C93.2959 62.6629 85.9993 61.9037 78.8547 61.2964C75.5104 60.9928 72.0141 60.6891 68.6698 60.5373C54.8367 60.2337 47.6921 66.3067 43.5877 71.6206C42.2196 73.4425 40.2434 79.9711 39.6354 82.2485C39.0273 84.3741 39.0273 91.8136 39.0273 94.091C39.1794 97.2793 38.8753 100.468 39.4834 103.504C41.6115 114.739 51.6444 130.833 101.505 127.645C105.001 127.493 113.058 125.823 114.882 122.027C117.77 116.106 115.49 114.284 117.618 111.096C118.378 109.881 119.442 108.97 120.354 108.059C122.634 105.63 124.307 102.593 124.763 99.4049C125.219 96.2165 124.307 92.7245 122.178 90.2953C121.114 89.2325 119.898 88.3216 119.29 86.9551C118.074 84.3741 119.442 81.3375 119.138 78.6047C118.834 76.0236 117.314 73.7462 115.794 71.6206C114.274 69.6469 112.754 67.5213 110.625 66.1549C107.433 64.1811 103.937 63.7257 100.593 63.422Z" fill="white"/>
</mask>
<g mask="url(#mask2_9002_25149)">
<g opacity="0.2">
<path d="M76.8786 52.1873C69.1259 39.7375 2.39234 55.3756 -5.51232 63.2706C-10.8328 68.7363 -23.4498 83.008 -22.5378 90.4475C-21.6257 97.5834 -15.3932 120.965 -14.4811 127.645C-14.0251 130.682 20.0258 137.666 19.5698 140.702C18.9617 145.257 77.0306 159.984 85.0873 157.859C92.2319 156.037 93.144 145.864 87.9755 141.613C81.287 136.147 73.0782 133.566 67.6058 126.886C64.8696 123.546 63.6535 120.813 63.3494 117.169C62.8934 111.4 64.7176 105.175 64.8696 99.4053C65.1736 94.0914 63.6535 88.4738 61.2213 83.7672C59.0931 79.516 54.9888 75.4167 54.3807 70.7101C53.9247 66.9144 57.4209 63.7261 60.1572 61.9041C64.4135 59.1713 68.8219 59.0194 73.5343 58.1085C77.0306 57.5012 78.5507 54.7683 76.8786 52.1873Z" fill="#AC1618"/>
</g>
</g>
<path d="M39.1793 93.6347C39.6353 94.3939 39.4833 95.153 39.4833 96.064C39.4833 98.1895 40.3954 100.619 42.3716 101.682C44.1957 102.593 46.6279 102.137 48.3001 101.074C53.4685 98.0377 55.2927 91.3573 55.7487 85.4361C55.9007 82.3996 55.7487 79.0594 53.6205 77.0856C51.6444 75.2637 48.6041 75.2637 46.1719 76.4783C43.8917 77.693 42.2196 80.1222 41.4595 82.5514C41.1555 83.3105 41.0034 84.0697 40.3954 84.677C39.7873 85.2843 38.7233 85.4361 37.8112 85.4361C35.379 85.5879 32.7947 85.4361 30.3625 85.1325C27.3223 84.8288 23.674 83.6142 22.9139 80.5777C22.7619 79.8185 22.7619 79.0594 22.6099 78.3003C22.3059 77.5411 21.6978 76.782 20.9378 76.9338C20.3297 77.0856 19.8737 77.5411 19.5697 78.1484C18.6576 79.5149 17.7455 80.8813 17.2895 82.5514C16.8334 84.0697 16.8334 85.8916 17.8975 87.258C18.5056 88.169 19.4176 88.7763 20.4817 89.2318C24.5861 91.8128 29.4505 94.3939 34.1629 93.1793C35.835 92.8756 38.2672 92.1165 39.1793 93.6347Z" fill="#3A7815"/>
<g opacity="0.6" style="mix-blend-mode:soft-light">
<path d="M58.6368 74.049C63.5012 74.9599 68.5177 74.8081 73.5341 75.2636C78.5505 75.7191 83.5669 76.63 88.5834 77.541C93.5998 78.452 98.6162 79.3629 103.481 80.7293C107.737 81.9439 116.706 81.3366 115.49 74.6563C114.426 68.735 108.801 67.3686 103.785 66.154C98.1602 64.9394 92.5357 64.3321 86.7592 64.1802C77.4864 63.7248 64.8694 63.2693 57.1167 69.4942C55.4446 71.0124 56.5086 73.5935 58.6368 74.049Z" fill="#F63D1F"/>
</g>
<g opacity="0.6" style="mix-blend-mode:soft-light">
<path d="M60.3091 88.0161C63.1973 91.0527 67.1497 91.9636 71.102 92.8746C75.6624 94.0892 80.2228 95.0001 84.7832 95.9111C89.0395 96.8221 93.1438 98.1885 97.2482 99.7068C101.657 101.377 105.305 103.958 109.561 105.78C119.138 110.183 126.283 96.0629 118.226 89.9899C110.321 84.0686 98.9203 82.0949 89.3435 81.0321C84.1751 80.4248 79.0067 80.273 73.8382 80.5766C69.2778 80.8803 64.5654 80.8803 60.7651 83.4613C59.397 84.5241 59.093 86.8015 60.3091 88.0161Z" fill="#F63D1F"/>
</g>
<g opacity="0.6" style="mix-blend-mode:soft-light">
<path d="M108.345 118.686C105.153 116.864 101.961 116.409 98.4642 115.65C94.3599 114.739 90.2555 113.828 85.9991 113.372C81.7428 112.917 77.6384 112.309 73.8381 110.336C64.1093 105.325 57.2687 103.048 53.9244 107.451C50.1241 112.613 53.7724 118.838 59.3969 119.901C66.0855 121.115 73.8381 124.456 81.4388 125.215C86.1512 125.67 91.0156 125.67 95.728 125.518C100.136 125.367 103.785 124.456 107.889 123.089C109.713 122.482 110.017 119.597 108.345 118.686Z" fill="#B91C23"/>
</g>
<mask id="mask3_9002_25149" style="mask-type:luminance" maskUnits="userSpaceOnUse" x="39" y="60" width="86" height="69">
<path d="M100.593 63.422C93.2959 62.6629 85.9993 61.9037 78.8547 61.2964C75.5104 60.9928 72.0141 60.6891 68.6698 60.5373C54.8367 60.2337 47.6921 66.3067 43.5877 71.6206C42.2196 73.4425 40.2434 79.9711 39.6354 82.2485C39.0273 84.3741 39.0273 91.8136 39.0273 94.091C39.1794 97.2793 38.8753 100.468 39.4834 103.504C41.6115 114.739 51.6444 130.833 101.505 127.645C105.001 127.493 113.058 125.823 114.882 122.027C117.77 116.106 115.49 114.284 117.618 111.096C118.378 109.881 119.442 108.97 120.354 108.059C122.634 105.63 124.307 102.593 124.763 99.4049C125.219 96.2165 124.307 92.7245 122.178 90.2953C121.114 89.2325 119.898 88.3216 119.29 86.9551C118.074 84.3741 119.442 81.3375 119.138 78.6047C118.834 76.0236 117.314 73.7462 115.794 71.6206C114.274 69.6469 112.754 67.5213 110.625 66.1549C107.433 64.1811 103.937 63.7257 100.593 63.422Z" fill="white"/>
</mask>
<g mask="url(#mask3_9002_25149)">
<g opacity="0.42">
<path d="M60.4612 76.0241C62.5893 77.0869 64.8695 76.9351 67.3017 77.2387C70.646 77.6942 74.1423 78.1497 77.4866 78.4533C84.1751 79.2125 90.8637 80.1234 97.5523 81.4899C103.937 82.7045 110.169 84.6782 116.402 86.3483C121.874 87.8666 125.979 92.2695 131.147 94.5469C133.731 95.7616 135.859 92.4214 134.795 90.144C132.211 84.5264 128.259 80.5789 122.33 78.3015C115.794 75.7205 108.497 76.3278 101.809 75.4168C94.816 74.5058 87.9755 73.2912 80.8309 72.9876C73.8383 72.6839 67.3017 73.1394 60.4612 74.354C59.7011 74.5058 59.8531 75.7205 60.4612 76.0241Z" fill="#B91C23"/>
</g>
</g>
<mask id="mask4_9002_25149" style="mask-type:luminance" maskUnits="userSpaceOnUse" x="39" y="60" width="86" height="69">
<path d="M100.593 63.422C93.2959 62.6629 85.9993 61.9037 78.8547 61.2964C75.5104 60.9928 72.0141 60.6891 68.6698 60.5373C54.8367 60.2337 47.6921 66.3067 43.5877 71.6206C42.2196 73.4425 40.2434 79.9711 39.6354 82.2485C39.0273 84.3741 39.0273 91.8136 39.0273 94.091C39.1794 97.2793 38.8753 100.468 39.4834 103.504C41.6115 114.739 51.6444 130.833 101.505 127.645C105.001 127.493 113.058 125.823 114.882 122.027C117.77 116.106 115.49 114.284 117.618 111.096C118.378 109.881 119.442 108.97 120.354 108.059C122.634 105.63 124.307 102.593 124.763 99.4049C125.219 96.2165 124.307 92.7245 122.178 90.2953C121.114 89.2325 119.898 88.3216 119.29 86.9551C118.074 84.3741 119.442 81.3375 119.138 78.6047C118.834 76.0236 117.314 73.7462 115.794 71.6206C114.274 69.6469 112.754 67.5213 110.625 66.1549C107.433 64.1811 103.937 63.7257 100.593 63.422Z" fill="white"/>
</mask>
<g mask="url(#mask4_9002_25149)">
<g opacity="0.42">
<path d="M60.3091 99.4046C72.4701 105.63 85.0872 110.336 98.1603 113.98C110.169 117.472 122.634 120.357 133.427 112.006C136.315 109.729 134.339 104.87 130.843 104.719C126.131 104.567 121.874 105.781 117.162 106.54C111.537 107.451 105.001 105.326 99.5284 104.263C86.7593 101.834 73.8382 100.771 61.2212 97.1272C60.1571 96.8236 59.093 98.7973 60.3091 99.4046Z" fill="#B91C23"/>
</g>
</g>
<g opacity="0.4" style="mix-blend-mode:soft-light">
<path d="M57.1168 116.712C54.9887 113.372 52.5565 110.032 52.1004 105.933C51.6444 101.378 44.1958 102.896 45.1078 107.451C45.8679 112.31 49.8202 117.016 54.2286 119.294C55.7487 120.356 58.3329 118.686 57.1168 116.712Z" fill="#E2220E"/>
</g>
<g opacity="0.4" style="mix-blend-mode:soft-light">
<path d="M92.3838 71.3169C95.272 71.9242 98.1603 72.6833 100.897 73.5943C102.113 74.0497 103.481 74.5052 104.697 75.1125C106.065 75.7198 107.129 76.7826 108.649 76.6308C109.713 76.6308 110.777 76.0235 111.081 74.9607C112.297 71.1651 107.737 68.4322 104.697 67.673C100.592 66.6102 96.6401 66.9139 92.5358 67.9767C91.0157 68.2803 90.5596 70.8614 92.3838 71.3169Z" fill="white"/>
</g>
<g opacity="0.4" style="mix-blend-mode:soft-light">
<path d="M87.0633 88.1682C89.9515 88.9273 92.8398 89.6864 95.88 90.4456C98.9203 91.2047 102.265 92.5711 105.457 92.5711C107.129 92.5711 108.649 90.2938 107.129 88.9273C102.417 84.5243 93.9039 84.2207 87.8234 84.3725C85.5432 84.3725 84.7831 87.5609 87.0633 88.1682Z" fill="white"/>
</g>
<path d="M111.537 93.6355V93.7874C111.537 93.4837 111.689 93.3319 111.689 93.0283C111.537 93.4837 111.537 93.9392 111.385 94.2429C111.233 95.4575 111.993 96.8239 113.057 97.4312C114.122 98.0385 115.186 98.1904 116.25 97.583C117.314 97.1276 117.922 96.0648 118.074 94.8502C118.226 92.5728 116.25 90.9027 114.122 91.0545C113.513 91.0545 112.905 91.2063 112.297 91.6618C111.841 92.421 111.537 92.8764 111.537 93.6355Z" fill="white"/>
<g opacity="0.8" style="mix-blend-mode:soft-light">
<path d="M107.889 71.6193C108.041 72.2266 108.193 72.8339 108.345 73.4413C108.649 74.3522 108.953 75.2632 110.017 75.415C110.473 75.5668 110.929 75.1113 111.081 74.6558C111.385 73.8967 110.777 73.1376 110.473 72.5303C110.169 71.923 109.713 71.3157 109.257 70.8602C108.801 70.2529 107.585 70.8602 107.889 71.6193Z" fill="white"/>
</g>
<mask id="mask5_9002_25149" style="mask-type:luminance" maskUnits="userSpaceOnUse" x="17" y="75" width="39" height="28">
<path d="M39.1793 93.6347C39.6353 94.3939 39.4833 95.153 39.4833 96.064C39.4833 98.1895 40.3954 100.619 42.3716 101.682C44.1957 102.593 46.6279 102.137 48.3001 101.074C53.4685 98.0377 55.2927 91.3573 55.7487 85.4361C55.9007 82.3996 55.7487 79.0594 53.6205 77.0856C51.6444 75.2637 48.6041 75.2637 46.1719 76.4783C43.8917 77.693 42.2196 80.1222 41.4595 82.5514C41.1555 83.3105 41.0034 84.0697 40.3954 84.677C39.7873 85.2843 38.7233 85.4361 37.8112 85.4361C35.379 85.5879 32.7947 85.4361 30.3625 85.1325C27.3223 84.8288 23.674 83.6142 22.9139 80.5777C22.7619 79.8185 22.7619 79.0594 22.6099 78.3003C22.3059 77.5411 21.6978 76.782 20.9378 76.9338C20.3297 77.0856 19.8737 77.5411 19.5697 78.1484C18.6576 79.5149 17.7455 80.8813 17.2895 82.5514C16.8334 84.0697 16.8334 85.8916 17.8975 87.258C18.5056 88.169 19.4176 88.7763 20.4817 89.2318C24.5861 91.8128 29.4505 94.3939 34.1629 93.1793C35.835 92.8756 38.2672 92.1165 39.1793 93.6347Z" fill="white"/>
</mask>
<g mask="url(#mask5_9002_25149)">
<g opacity="0.36">
<path d="M41.1554 88.0176C36.139 89.0803 32.1867 89.2322 27.1703 87.4103C25.4982 86.8029 23.978 86.3475 22.4579 85.2847C20.1777 83.6146 22.4579 79.8189 23.0659 77.997C23.978 75.2641 20.1777 73.594 18.6576 75.8714C14.2492 82.5518 16.5294 89.0803 23.826 91.8132C28.6904 93.6351 40.3954 96.5198 42.3716 89.2322C42.5236 88.6249 41.9155 87.8657 41.1554 88.0176Z" fill="#2F3B0D"/>
</g>
</g>
<mask id="mask6_9002_25149" style="mask-type:luminance" maskUnits="userSpaceOnUse" x="17" y="75" width="39" height="28">
<path d="M39.1793 93.6347C39.6353 94.3939 39.4833 95.153 39.4833 96.064C39.4833 98.1895 40.3954 100.619 42.3716 101.682C44.1957 102.593 46.6279 102.137 48.3001 101.074C53.4685 98.0377 55.2927 91.3573 55.7487 85.4361C55.9007 82.3996 55.7487 79.0594 53.6205 77.0856C51.6444 75.2637 48.6041 75.2637 46.1719 76.4783C43.8917 77.693 42.2196 80.1222 41.4595 82.5514C41.1555 83.3105 41.0034 84.0697 40.3954 84.677C39.7873 85.2843 38.7233 85.4361 37.8112 85.4361C35.379 85.5879 32.7947 85.4361 30.3625 85.1325C27.3223 84.8288 23.674 83.6142 22.9139 80.5777C22.7619 79.8185 22.7619 79.0594 22.6099 78.3003C22.3059 77.5411 21.6978 76.782 20.9378 76.9338C20.3297 77.0856 19.8737 77.5411 19.5697 78.1484C18.6576 79.5149 17.7455 80.8813 17.2895 82.5514C16.8334 84.0697 16.8334 85.8916 17.8975 87.258C18.5056 88.169 19.4176 88.7763 20.4817 89.2318C24.5861 91.8128 29.4505 94.3939 34.1629 93.1793C35.835 92.8756 38.2672 92.1165 39.1793 93.6347Z" fill="white"/>
</mask>
<g mask="url(#mask6_9002_25149)">
<g opacity="0.2">
<path d="M43.7397 94.0889C43.2836 97.1254 43.4356 100.769 44.8037 103.502C45.1077 104.261 46.1719 103.806 46.0198 103.047C45.5638 100.01 44.6517 97.2772 44.9557 94.0889C45.1077 93.3297 43.8917 93.3297 43.7397 94.0889Z" fill="#2F3B0D"/>
</g>
</g>
<mask id="mask7_9002_25149" style="mask-type:luminance" maskUnits="userSpaceOnUse" x="17" y="75" width="39" height="28">
<path d="M39.1793 93.6347C39.6353 94.3939 39.4833 95.153 39.4833 96.064C39.4833 98.1895 40.3954 100.619 42.3716 101.682C44.1957 102.593 46.6279 102.137 48.3001 101.074C53.4685 98.0377 55.2927 91.3573 55.7487 85.4361C55.9007 82.3996 55.7487 79.0594 53.6205 77.0856C51.6444 75.2637 48.6041 75.2637 46.1719 76.4783C43.8917 77.693 42.2196 80.1222 41.4595 82.5514C41.1555 83.3105 41.0034 84.0697 40.3954 84.677C39.7873 85.2843 38.7233 85.4361 37.8112 85.4361C35.379 85.5879 32.7947 85.4361 30.3625 85.1325C27.3223 84.8288 23.674 83.6142 22.9139 80.5777C22.7619 79.8185 22.7619 79.0594 22.6099 78.3003C22.3059 77.5411 21.6978 76.782 20.9378 76.9338C20.3297 77.0856 19.8737 77.5411 19.5697 78.1484C18.6576 79.5149 17.7455 80.8813 17.2895 82.5514C16.8334 84.0697 16.8334 85.8916 17.8975 87.258C18.5056 88.169 19.4176 88.7763 20.4817 89.2318C24.5861 91.8128 29.4505 94.3939 34.1629 93.1793C35.835 92.8756 38.2672 92.1165 39.1793 93.6347Z" fill="white"/>
</mask>
<g mask="url(#mask7_9002_25149)">
<g opacity="0.2">
<path d="M46.3239 93.6346C46.3239 96.6711 47.54 99.8595 49.6682 102.137C50.2762 102.744 51.1883 102.137 50.7323 101.378C49.5162 98.7967 47.844 96.5193 47.0839 93.6346C46.9319 93.1791 46.3239 93.1791 46.3239 93.6346Z" fill="#2F3B0D"/>
</g>
</g>
<mask id="mask8_9002_25149" style="mask-type:luminance" maskUnits="userSpaceOnUse" x="17" y="75" width="39" height="28">
<path d="M39.1793 93.6347C39.6353 94.3939 39.4833 95.153 39.4833 96.064C39.4833 98.1895 40.3954 100.619 42.3716 101.682C44.1957 102.593 46.6279 102.137 48.3001 101.074C53.4685 98.0377 55.2927 91.3573 55.7487 85.4361C55.9007 82.3996 55.7487 79.0594 53.6205 77.0856C51.6444 75.2637 48.6041 75.2637 46.1719 76.4783C43.8917 77.693 42.2196 80.1222 41.4595 82.5514C41.1555 83.3105 41.0034 84.0697 40.3954 84.677C39.7873 85.2843 38.7233 85.4361 37.8112 85.4361C35.379 85.5879 32.7947 85.4361 30.3625 85.1325C27.3223 84.8288 23.674 83.6142 22.9139 80.5777C22.7619 79.8185 22.7619 79.0594 22.6099 78.3003C22.3059 77.5411 21.6978 76.782 20.9378 76.9338C20.3297 77.0856 19.8737 77.5411 19.5697 78.1484C18.6576 79.5149 17.7455 80.8813 17.2895 82.5514C16.8334 84.0697 16.8334 85.8916 17.8975 87.258C18.5056 88.169 19.4176 88.7763 20.4817 89.2318C24.5861 91.8128 29.4505 94.3939 34.1629 93.1793C35.835 92.8756 38.2672 92.1165 39.1793 93.6347Z" fill="white"/>
</mask>
<g mask="url(#mask8_9002_25149)">
<g opacity="0.2">
<path d="M49.9722 93.1793C51.6443 95.6085 54.0765 97.2786 56.6607 98.645C57.2688 98.9487 58.0288 98.1895 57.4208 97.7341C55.2926 95.7603 52.5564 94.8493 50.7322 92.572C50.4282 92.2683 49.6681 92.7238 49.9722 93.1793Z" fill="#2F3B0D"/>
</g>
</g>
<mask id="mask9_9002_25149" style="mask-type:luminance" maskUnits="userSpaceOnUse" x="17" y="75" width="39" height="28">
<path d="M39.1793 93.6347C39.6353 94.3939 39.4833 95.153 39.4833 96.064C39.4833 98.1895 40.3954 100.619 42.3716 101.682C44.1957 102.593 46.6279 102.137 48.3001 101.074C53.4685 98.0377 55.2927 91.3573 55.7487 85.4361C55.9007 82.3996 55.7487 79.0594 53.6205 77.0856C51.6444 75.2637 48.6041 75.2637 46.1719 76.4783C43.8917 77.693 42.2196 80.1222 41.4595 82.5514C41.1555 83.3105 41.0034 84.0697 40.3954 84.677C39.7873 85.2843 38.7233 85.4361 37.8112 85.4361C35.379 85.5879 32.7947 85.4361 30.3625 85.1325C27.3223 84.8288 23.674 83.6142 22.9139 80.5777C22.7619 79.8185 22.7619 79.0594 22.6099 78.3003C22.3059 77.5411 21.6978 76.782 20.9378 76.9338C20.3297 77.0856 19.8737 77.5411 19.5697 78.1484C18.6576 79.5149 17.7455 80.8813 17.2895 82.5514C16.8334 84.0697 16.8334 85.8916 17.8975 87.258C18.5056 88.169 19.4176 88.7763 20.4817 89.2318C24.5861 91.8128 29.4505 94.3939 34.1629 93.1793C35.835 92.8756 38.2672 92.1165 39.1793 93.6347Z" fill="white"/>
</mask>
<g mask="url(#mask9_9002_25149)">
<g opacity="0.2">
<path d="M50.7324 90.7496C53.9247 92.4197 57.2689 91.6605 60.4612 90.4459C61.2213 90.1423 60.9172 88.9277 60.1572 89.0795C57.1169 89.2313 54.2287 89.9905 51.1884 89.6868C50.5804 89.3831 50.2764 90.4459 50.7324 90.7496Z" fill="#2F3B0D"/>
</g>
</g>
<mask id="mask10_9002_25149" style="mask-type:luminance" maskUnits="userSpaceOnUse" x="17" y="75" width="39" height="28">
<path d="M39.1793 93.6347C39.6353 94.3939 39.4833 95.153 39.4833 96.064C39.4833 98.1895 40.3954 100.619 42.3716 101.682C44.1957 102.593 46.6279 102.137 48.3001 101.074C53.4685 98.0377 55.2927 91.3573 55.7487 85.4361C55.9007 82.3996 55.7487 79.0594 53.6205 77.0856C51.6444 75.2637 48.6041 75.2637 46.1719 76.4783C43.8917 77.693 42.2196 80.1222 41.4595 82.5514C41.1555 83.3105 41.0034 84.0697 40.3954 84.677C39.7873 85.2843 38.7233 85.4361 37.8112 85.4361C35.379 85.5879 32.7947 85.4361 30.3625 85.1325C27.3223 84.8288 23.674 83.6142 22.9139 80.5777C22.7619 79.8185 22.7619 79.0594 22.6099 78.3003C22.3059 77.5411 21.6978 76.782 20.9378 76.9338C20.3297 77.0856 19.8737 77.5411 19.5697 78.1484C18.6576 79.5149 17.7455 80.8813 17.2895 82.5514C16.8334 84.0697 16.8334 85.8916 17.8975 87.258C18.5056 88.169 19.4176 88.7763 20.4817 89.2318C24.5861 91.8128 29.4505 94.3939 34.1629 93.1793C35.835 92.8756 38.2672 92.1165 39.1793 93.6347Z" fill="white"/>
</mask>
<g mask="url(#mask10_9002_25149)">
<g opacity="0.2">
<path d="M49.2121 87.5611C52.7084 85.891 56.3567 83.9173 58.4849 80.5771C58.7889 79.9698 58.0289 79.2107 57.5728 79.818C54.9886 82.5509 52.1003 84.8283 48.7561 86.802C48.3 87.1057 48.6041 87.8648 49.2121 87.5611Z" fill="#2F3B0D"/>
</g>
</g>
<mask id="mask11_9002_25149" style="mask-type:luminance" maskUnits="userSpaceOnUse" x="17" y="75" width="39" height="28">
<path d="M39.1793 93.6347C39.6353 94.3939 39.4833 95.153 39.4833 96.064C39.4833 98.1895 40.3954 100.619 42.3716 101.682C44.1957 102.593 46.6279 102.137 48.3001 101.074C53.4685 98.0377 55.2927 91.3573 55.7487 85.4361C55.9007 82.3996 55.7487 79.0594 53.6205 77.0856C51.6444 75.2637 48.6041 75.2637 46.1719 76.4783C43.8917 77.693 42.2196 80.1222 41.4595 82.5514C41.1555 83.3105 41.0034 84.0697 40.3954 84.677C39.7873 85.2843 38.7233 85.4361 37.8112 85.4361C35.379 85.5879 32.7947 85.4361 30.3625 85.1325C27.3223 84.8288 23.674 83.6142 22.9139 80.5777C22.7619 79.8185 22.7619 79.0594 22.6099 78.3003C22.3059 77.5411 21.6978 76.782 20.9378 76.9338C20.3297 77.0856 19.8737 77.5411 19.5697 78.1484C18.6576 79.5149 17.7455 80.8813 17.2895 82.5514C16.8334 84.0697 16.8334 85.8916 17.8975 87.258C18.5056 88.169 19.4176 88.7763 20.4817 89.2318C24.5861 91.8128 29.4505 94.3939 34.1629 93.1793C35.835 92.8756 38.2672 92.1165 39.1793 93.6347Z" fill="white"/>
</mask>
<g mask="url(#mask11_9002_25149)">
<g opacity="0.2">
<path d="M48.3002 85.4359C51.1884 81.6402 54.3807 77.3891 53.0126 72.3788C52.8606 71.6197 51.6444 71.6197 51.6444 72.5306C51.6444 77.3891 49.9723 80.7293 47.3881 84.8286C46.932 85.4359 47.8441 86.0432 48.3002 85.4359Z" fill="#2F3B0D"/>
</g>
</g>
<mask id="mask12_9002_25149" style="mask-type:luminance" maskUnits="userSpaceOnUse" x="17" y="75" width="39" height="28">
<path d="M39.1793 93.6347C39.6353 94.3939 39.4833 95.153 39.4833 96.064C39.4833 98.1895 40.3954 100.619 42.3716 101.682C44.1957 102.593 46.6279 102.137 48.3001 101.074C53.4685 98.0377 55.2927 91.3573 55.7487 85.4361C55.9007 82.3996 55.7487 79.0594 53.6205 77.0856C51.6444 75.2637 48.6041 75.2637 46.1719 76.4783C43.8917 77.693 42.2196 80.1222 41.4595 82.5514C41.1555 83.3105 41.0034 84.0697 40.3954 84.677C39.7873 85.2843 38.7233 85.4361 37.8112 85.4361C35.379 85.5879 32.7947 85.4361 30.3625 85.1325C27.3223 84.8288 23.674 83.6142 22.9139 80.5777C22.7619 79.8185 22.7619 79.0594 22.6099 78.3003C22.3059 77.5411 21.6978 76.782 20.9378 76.9338C20.3297 77.0856 19.8737 77.5411 19.5697 78.1484C18.6576 79.5149 17.7455 80.8813 17.2895 82.5514C16.8334 84.0697 16.8334 85.8916 17.8975 87.258C18.5056 88.169 19.4176 88.7763 20.4817 89.2318C24.5861 91.8128 29.4505 94.3939 34.1629 93.1793C35.835 92.8756 38.2672 92.1165 39.1793 93.6347Z" fill="white"/>
</mask>
<g mask="url(#mask12_9002_25149)">
<g opacity="0.2">
<path d="M47.6921 83.4619C48.6042 79.3626 49.0602 75.2633 48.3001 71.164C48.1481 70.5567 47.236 70.7085 47.236 71.3158C47.236 75.4151 47.236 79.3626 46.628 83.3101C46.476 83.7656 47.5401 83.9174 47.6921 83.4619Z" fill="#2F3B0D"/>
</g>
</g>
<mask id="mask13_9002_25149" style="mask-type:luminance" maskUnits="userSpaceOnUse" x="17" y="75" width="39" height="28">
<path d="M39.1793 93.6347C39.6353 94.3939 39.4833 95.153 39.4833 96.064C39.4833 98.1895 40.3954 100.619 42.3716 101.682C44.1957 102.593 46.6279 102.137 48.3001 101.074C53.4685 98.0377 55.2927 91.3573 55.7487 85.4361C55.9007 82.3996 55.7487 79.0594 53.6205 77.0856C51.6444 75.2637 48.6041 75.2637 46.1719 76.4783C43.8917 77.693 42.2196 80.1222 41.4595 82.5514C41.1555 83.3105 41.0034 84.0697 40.3954 84.677C39.7873 85.2843 38.7233 85.4361 37.8112 85.4361C35.379 85.5879 32.7947 85.4361 30.3625 85.1325C27.3223 84.8288 23.674 83.6142 22.9139 80.5777C22.7619 79.8185 22.7619 79.0594 22.6099 78.3003C22.3059 77.5411 21.6978 76.782 20.9378 76.9338C20.3297 77.0856 19.8737 77.5411 19.5697 78.1484C18.6576 79.5149 17.7455 80.8813 17.2895 82.5514C16.8334 84.0697 16.8334 85.8916 17.8975 87.258C18.5056 88.169 19.4176 88.7763 20.4817 89.2318C24.5861 91.8128 29.4505 94.3939 34.1629 93.1793C35.835 92.8756 38.2672 92.1165 39.1793 93.6347Z" fill="white"/>
</mask>
<g mask="url(#mask13_9002_25149)">
<g opacity="0.2">
<path d="M45.5637 84.8279C46.7798 81.1841 44.3476 77.9957 43.1315 74.6555C42.8275 73.7445 41.6113 74.0482 41.7633 74.9592C42.2194 78.2994 44.4996 81.3359 44.4996 84.6761C44.3476 85.2834 45.2596 85.4352 45.5637 84.8279Z" fill="#27760B"/>
</g>
</g>
<path d="M23.37 83.3103C27.4744 88.0169 35.6831 87.8651 41.3075 87.106C42.9797 86.9541 42.3716 84.3731 40.6995 84.6767C37.8112 85.1322 35.6831 85.284 32.7948 84.9804C29.6025 84.5249 26.4103 84.9804 23.674 83.0066C23.522 82.703 23.218 83.0067 23.37 83.3103Z" fill="#258F1C"/>
<path d="M20.6339 80.882C20.3298 83.6149 19.8738 86.196 22.762 87.5624C25.9543 89.2325 30.6667 90.5989 34.315 90.7508C34.619 90.7508 34.619 90.4471 34.315 90.4471C31.4268 89.9916 28.5386 88.9288 25.6503 88.1697C24.7382 87.8661 23.8261 87.7142 22.9141 87.4106C20.0258 86.4996 20.9379 82.8558 21.0899 80.882C21.0899 80.5784 20.6339 80.5784 20.6339 80.882Z" fill="#258F1C"/>
<path d="M35.2271 90.7502C35.9871 90.9022 36.7472 91.2062 37.5072 91.2062C37.6593 91.2062 37.6593 90.9022 37.5072 90.9022C36.7472 90.7502 35.9871 90.7502 35.2271 90.7502Z" fill="#258F1C"/>
<path d="M24.7381 89.9919C27.0183 91.2065 29.6025 91.5102 32.0347 91.9657C32.3387 91.9657 32.3387 91.662 32.0347 91.5102C29.7545 90.751 27.1703 90.751 24.8901 89.5364C24.7381 89.3846 24.4341 89.8401 24.7381 89.9919Z" fill="#258F1C"/>
<path d="M49.8203 85.4359C51.4924 84.2213 53.9246 83.4621 54.9887 81.6402C55.1407 81.1847 54.8367 80.8811 54.3806 81.1847C53.6206 81.792 52.8605 82.3993 52.1004 83.0066C51.1884 83.6139 50.2763 84.2213 49.5162 84.9804C48.9082 85.1322 49.3642 85.5877 49.8203 85.4359Z" fill="#258F1C"/>
<path d="M49.3642 80.5771C50.1243 79.5143 50.8844 78.6034 51.0364 77.2369C51.0364 76.9333 50.5803 76.9332 50.4283 77.0851C49.9723 78.1479 49.3642 79.2107 48.9082 80.2734C48.9082 80.5771 49.2122 80.7289 49.3642 80.5771Z" fill="#258F1C"/>
<path d="M46.3239 81.6405C46.3239 80.5777 46.4759 79.3631 46.0199 78.3003C45.8679 77.9966 45.4119 78.1484 45.4119 78.4521C45.4119 79.5149 45.7159 80.7295 45.8679 81.7923C46.0199 81.7923 46.3239 81.7923 46.3239 81.6405Z" fill="#258F1C"/>
<path d="M44.0436 83.614C43.8916 83.0067 43.8916 82.2476 43.5876 81.7921C43.4356 81.6403 43.2836 81.6403 43.2836 81.9439C43.2836 82.5512 43.5876 83.3104 43.7396 83.9177C43.7396 83.9177 44.0436 83.7659 44.0436 83.614Z" fill="#258F1C"/>
<path d="M49.6682 88.4736C50.5803 88.6256 51.3404 88.6256 52.2524 88.6256C52.4045 88.6256 52.5565 88.3216 52.2524 88.3216C51.3404 88.1696 50.4283 88.1696 49.6682 88.0176C49.5162 88.0176 49.3642 88.4736 49.6682 88.4736Z" fill="#258F1C"/>
<path d="M47.844 92.8753C48.148 94.8491 49.0601 96.8229 50.1242 98.4929C50.4282 98.9484 51.0363 98.4929 50.7323 98.0375C49.9722 96.2155 48.9081 94.6973 48.6041 92.7235C48.6041 92.1162 47.692 92.268 47.844 92.8753Z" fill="#258F1C"/>
<path d="M45.4119 97.582C45.4119 98.3411 45.5639 99.1003 45.868 99.7076C46.02 99.8594 46.324 99.8594 46.324 99.5557C46.324 98.7966 46.172 98.0375 46.172 97.4302C45.868 97.1265 45.2599 97.2783 45.4119 97.582Z" fill="#258F1C"/>
<path d="M42.0675 93.6343C41.6114 95.4562 41.0034 97.2781 41.6114 99.1C41.7634 99.5555 42.5235 99.4037 42.3715 98.9482C42.2195 97.1263 42.3715 95.4562 42.6755 93.7861C42.8275 93.4824 42.2195 93.3306 42.0675 93.6343Z" fill="#258F1C"/>
<g opacity="0.6" style="mix-blend-mode:soft-light">
<path d="M81.1349 120.357C71.5581 119.901 59.245 116.713 55.1407 107.148C52.5565 100.771 42.0676 106.389 45.7159 112.006C53.3165 123.241 68.9739 127.796 81.5909 122.786C82.807 122.331 82.199 120.509 81.1349 120.357Z" fill="#F63D1F"/>
</g>
<path d="M108.953 142.675C110.017 144.497 110.929 146.47 112.602 147.989C113.666 149.051 115.034 149.659 116.402 150.266C121.418 152.392 127.195 153.758 132.515 152.543C135.099 151.936 137.532 150.722 139.964 149.355C158.053 139.183 172.647 123.089 181.007 104.111C182.223 101.53 183.135 98.7969 182.983 95.9122C182.679 90.2946 177.359 85.7398 171.734 85.2843C167.326 84.9806 162.462 86.6507 158.509 84.677C156.837 83.9179 155.621 82.5514 154.101 81.6405C152.581 80.7295 150.453 80.274 149.085 81.3368C148.172 81.6405 147.564 80.274 147.412 79.2112C146.348 71.6199 140.572 64.7877 133.275 62.6621C130.387 61.7512 127.195 61.5994 124.307 62.6621C118.682 64.7877 115.946 70.8608 112.754 75.8711C109.105 81.7923 104.393 86.9544 99.9845 92.572C97.0962 96.3676 94.36 100.315 91.9278 104.414C88.2795 110.488 85.0872 117.623 86.7593 124.607C88.1274 130.073 92.6878 134.628 98.1603 135.994C99.8324 136.45 101.657 136.602 103.329 137.209C105.913 138.272 107.585 140.397 108.953 142.675Z" fill="#F63D1F"/>
<path d="M177.663 93.4835C175.839 88.6251 168.694 89.0806 162.158 89.2324C159.421 89.3842 156.533 87.866 154.709 85.5886C152.277 82.7039 151.973 79.971 147.868 78.7564C146.5 78.3009 145.284 76.0235 143.916 76.479C137.684 71.4687 135.707 61.2963 123.546 68.4322C118.682 71.3169 117.01 76.6308 113.969 81.3374C111.689 84.6776 109.257 88.1696 106.825 91.358C105.913 92.4207 101.809 97.8865 100.896 98.9493C100.592 99.4048 100.136 100.012 99.8323 100.468C93.5998 108.363 88.7354 119.142 96.9441 128.404C99.9843 131.744 104.849 132.807 108.649 135.084C112.905 137.665 115.338 143.586 119.746 145.712C129.779 150.419 138.596 145.712 146.804 139.791C152.885 135.388 161.245 128.252 165.806 122.331C170.822 115.802 180.855 101.682 177.663 93.4835Z" fill="#CA1A0B"/>
<path d="M102.721 127.644C104.697 124.456 105.913 120.964 107.889 117.775C109.257 115.65 111.081 113.828 112.753 112.006C116.098 108.362 119.442 104.566 122.786 101.074C126.739 96.975 130.691 92.572 135.251 89.2318C135.859 88.7764 136.771 88.3209 137.532 87.8654C137.684 87.7136 139.052 87.5617 138.14 87.5617C142.548 87.4099 136.771 87.5618 140.268 87.7136C141.18 87.7136 144.22 86.9544 142.852 87.2581C144.22 86.9544 145.284 85.8917 145.74 84.6771C147.108 80.8814 144.828 77.8449 141.484 76.3266C138.596 74.9602 135.403 76.0229 132.667 77.2376C126.587 80.1223 121.418 86.6508 117.618 92.1165C113.97 97.2786 110.929 102.593 107.889 108.058C106.369 110.639 104.545 113.069 103.329 115.801C101.961 118.838 98.7683 125.063 101.505 127.948C101.809 128.099 102.417 128.099 102.721 127.644Z" fill="#FAAD7F"/>
<path d="M115.034 135.843C126.131 148.597 143.156 133.414 150.453 123.849C155.469 117.169 160.638 110.792 162.158 102.441C163.678 93.7873 156.077 84.8295 148.477 82.0967C144.22 80.5784 139.356 82.5521 136.924 86.196C134.339 90.2953 135.099 94.6983 137.836 98.4939C138.596 99.5567 139.508 100.468 140.572 101.227C140.572 101.227 143.46 103.504 141.94 102.138C142.396 102.593 143.004 103.049 143.308 103.504C142.852 102.897 142.852 102.138 143.156 104.263C144.068 108.363 140.724 113.069 138.748 116.409C136.468 120.205 133.883 123.697 130.691 126.734C128.259 129.011 120.962 135.084 117.466 132.959C115.794 131.744 113.666 134.173 115.034 135.843Z" fill="#FAAD7F"/>
<path d="M118.986 73.1375C121.418 71.012 124.002 68.8864 127.043 67.9755C131.299 66.7608 136.011 70.7083 137.684 74.2003C140.116 79.2106 142.396 82.5508 148.172 83.1581C149.389 83.3099 149.997 81.488 148.932 80.8807C144.98 78.7551 142.852 76.4777 140.876 72.5302C139.508 69.6455 136.923 67.3681 133.883 66.1535C127.043 63.2688 122.482 67.6718 118.53 72.8339C118.53 73.1375 118.834 73.2894 118.986 73.1375Z" fill="#F09453"/>
<path d="M175.079 109.88C176.295 103.655 182.679 96.823 177.511 90.7499C174.775 87.4097 169.606 88.4725 165.958 88.4725C161.702 88.6243 156.685 86.8024 153.037 84.6769C152.277 84.2214 151.061 84.6768 151.061 85.7396C151.365 90.7499 162.158 91.8127 165.806 91.9645C168.542 92.1164 170.974 91.3572 173.711 91.9645C177.359 92.7237 176.903 96.9748 176.447 99.5559C175.991 103.048 173.863 106.236 174.471 109.88C174.775 110.032 175.079 110.032 175.079 109.88Z" fill="#F09453"/>
<path d="M121.57 136.298C129.627 133.565 135.859 131.592 141.332 124.759C145.436 119.597 151.821 109.121 149.693 102.289C149.084 100.619 146.5 99.5562 145.436 101.53C144.068 104.111 143.764 107.148 142.852 110.032C141.636 113.828 139.964 117.32 137.988 120.812C134.035 127.796 127.955 131.592 121.418 135.539C120.962 135.691 121.114 136.45 121.57 136.298Z" fill="#F58F51"/>
<path d="M104.545 122.33C109.257 116.864 113.21 110.943 117.922 105.477C120.506 102.593 123.242 99.8598 126.283 97.5824C129.323 95.305 133.123 94.2422 136.163 91.813C137.532 90.7502 136.619 88.0173 134.795 88.1692C127.499 88.4728 120.506 95.4568 116.098 100.619C110.777 106.996 106.825 114.132 104.089 122.026C104.089 122.33 104.393 122.482 104.545 122.33Z" fill="#F58F51"/>
<path d="M107.737 117.167C113.362 104.717 126.283 98.3406 137.684 92.723C139.052 92.1157 138.292 90.142 136.771 90.4456C124.306 93.0267 110.929 104.869 107.281 117.167C107.433 117.167 107.737 117.319 107.737 117.167Z" fill="#F58F51"/>
<path d="M138.14 124.76C141.18 121.116 144.524 118.231 146.348 113.676C148.02 109.425 148.477 103.959 148.781 99.4046C148.933 98.4936 147.412 97.8864 146.956 98.7973C144.98 102.593 144.828 106.996 143.764 111.095C142.396 115.802 138.9 119.749 137.076 124.152C136.772 124.911 137.684 125.215 138.14 124.76Z" fill="#F58F51"/>
<g opacity="0.4" style="mix-blend-mode:soft-light">
<path d="M135.756 142.498C152.782 135.514 167.071 119.875 172.391 102.415C173.759 98.0124 167.071 95.8868 165.551 100.138C164.031 104.389 162.662 108.64 160.534 112.74C158.558 116.232 155.974 119.42 153.39 122.608C147.917 129.441 142.597 136.273 134.996 140.979C134.084 141.587 134.844 142.953 135.756 142.498Z" fill="#F63D1F"/>
</g>
<g opacity="0.4" style="mix-blend-mode:soft-light">
<path d="M114.931 88.295C109.458 93.0016 103.986 97.7082 99.5772 103.478C96.2329 107.881 90.6085 115.624 94.1048 121.241C95.6249 123.822 98.8171 123.367 100.033 120.786C101.249 118.205 101.097 115.32 102.161 112.739C103.226 109.854 104.898 107.273 106.418 104.54C109.306 99.2265 113.258 94.6717 116.907 90.1169C117.819 88.7504 115.995 87.384 114.931 88.295Z" fill="#F63D1F"/>
</g>
<path d="M113.666 90.7495C113.818 90.9013 113.97 90.9013 114.274 91.0531C114.578 91.2049 114.882 90.7494 114.73 90.5976C114.578 90.4458 114.578 90.294 114.426 89.9903C113.818 89.383 112.905 90.294 113.666 90.7495Z" fill="#F63D1F"/>
<path d="M117.922 84.526C117.922 84.6779 118.074 84.6779 118.074 84.8297C118.226 85.1334 118.682 84.8297 118.682 84.526C118.682 84.3742 118.682 84.3742 118.53 84.2224C118.378 83.6151 117.618 84.0706 117.922 84.526Z" fill="#F63D1F"/>
<path d="M121.114 80.2737C120.962 80.7292 121.114 81.1847 121.57 81.4883C121.874 81.6401 122.33 81.4883 122.482 81.0328C122.482 80.881 122.482 80.7292 122.482 80.5774C122.634 79.8182 121.266 79.5146 121.114 80.2737Z" fill="#F63D1F"/>
<path d="M120.506 76.6295C120.354 76.9331 120.354 77.2368 120.506 77.5404C120.658 77.8441 120.962 77.8441 121.114 77.6923C121.418 77.5404 121.57 77.3886 121.57 77.085C121.874 76.174 120.81 75.8703 120.506 76.6295Z" fill="#F63D1F"/>
<path d="M124.307 74.9605C124.307 75.7197 125.219 76.1751 125.675 75.5678C125.675 75.5678 125.675 75.5678 125.675 75.416C125.979 74.9605 125.827 74.505 125.219 74.3532C124.763 74.0495 124.307 74.505 124.307 74.9605Z" fill="#F63D1F"/>
<path d="M128.107 73.4416C128.107 73.5934 127.955 73.8971 128.107 74.0489C128.107 74.2007 128.411 74.3526 128.563 74.2007C128.715 74.0489 128.867 73.8971 128.867 73.7452C129.019 73.1379 128.259 72.9861 128.107 73.4416Z" fill="#F63D1F"/>
<path d="M122.786 77.9973C122.786 78.301 122.786 78.4528 123.09 78.6046C123.242 78.7564 123.546 78.7564 123.698 78.6046C123.85 78.4528 123.85 78.3009 123.85 78.1491C123.698 77.8455 123.85 77.9973 123.698 78.3009C124.155 77.39 122.786 77.0863 122.786 77.9973Z" fill="#F63D1F"/>
<path d="M118.226 81.1855C118.226 81.4891 118.378 81.7928 118.53 81.9446C118.682 81.9446 118.682 82.0964 118.834 82.0964C118.986 82.0964 119.29 81.9446 119.442 81.7928C119.442 81.7928 119.442 81.7928 119.442 81.6409C120.202 80.5782 118.378 79.9708 118.226 81.1855Z" fill="#F63D1F"/>
<path d="M115.186 83.4624C115.034 83.9179 115.034 84.3734 115.49 84.677C115.794 84.9807 116.25 84.8288 116.402 84.3734C116.402 84.2215 116.402 84.0697 116.554 83.9179C116.706 83.1587 115.49 82.7033 115.186 83.4624Z" fill="#F63D1F"/>
<path d="M168.998 96.2145C169.15 96.2145 169.15 96.0625 168.998 96.0625C168.846 96.0625 168.846 96.2145 168.998 96.2145Z" fill="#F63D1F"/>
<path d="M168.998 96.215C169.15 96.215 169.15 96.215 168.998 96.215C168.846 96.0631 168.846 96.0631 168.846 95.9113C168.846 96.0631 168.998 96.215 168.998 96.215C168.998 95.9113 168.846 96.0631 168.998 96.215C168.846 96.3668 168.846 96.6704 168.998 96.9741C169.15 97.1259 169.454 97.2777 169.758 97.1259C170.67 96.6704 170.214 95.1522 169.15 95.4558C168.998 95.4558 168.846 95.6077 168.846 95.7595C168.694 95.7595 168.694 96.215 168.998 96.215Z" fill="#F63D1F"/>
<path d="M169.15 100.164C169.15 100.315 169.15 100.315 169.15 100.467C169.15 100.771 169.15 101.075 169.454 101.226C169.606 101.226 169.606 101.378 169.758 101.378C170.062 101.378 170.214 101.226 170.366 100.923C170.366 100.771 170.518 100.771 170.518 100.619C170.67 99.7082 169.302 99.4045 169.15 100.164Z" fill="#F63D1F"/>
<path d="M166.262 96.8235C166.262 96.9753 166.262 97.1272 166.414 97.279C166.414 97.4308 166.566 97.4308 166.718 97.4308C166.87 97.4308 167.022 97.279 167.174 97.1272C167.478 96.368 166.262 96.0644 166.262 96.8235Z" fill="#F63D1F"/>
<path d="M167.326 102.896C167.174 103.2 167.022 103.655 167.326 103.959C167.478 104.262 167.782 104.262 168.086 104.262C168.542 104.111 168.542 103.807 168.694 103.351C168.846 102.44 167.63 101.985 167.326 102.896Z" fill="#F63D1F"/>
<path d="M171.126 99.7076C172.039 100.011 172.647 98.493 171.582 98.1893C170.67 97.8857 170.062 99.404 171.126 99.7076Z" fill="#F63D1F"/>
<path d="M166.414 102.592L166.262 102.744C165.958 103.047 166.11 103.503 166.566 103.503C167.022 103.503 167.326 103.351 167.478 102.895C167.63 102.288 166.718 101.984 166.414 102.592Z" fill="#F63D1F"/>
<path d="M164.742 111.854C164.59 112.158 164.59 112.461 164.59 112.765C164.742 113.221 165.046 113.221 165.502 113.069C165.806 112.917 165.806 112.613 165.958 112.31C166.11 111.399 164.894 111.095 164.742 111.854Z" fill="#F63D1F"/>
<path d="M157.749 119.142C157.597 119.597 157.597 120.205 158.205 120.508C158.509 120.66 158.813 120.66 158.965 120.356C159.117 120.053 159.27 119.749 159.27 119.446C159.27 118.686 157.901 118.383 157.749 119.142Z" fill="#F63D1F"/>
<path d="M153.037 125.823C152.885 126.278 152.733 126.886 152.885 127.341C153.037 127.645 153.341 127.645 153.645 127.645C154.101 127.341 154.253 126.886 154.405 126.278C154.709 125.367 153.341 125.064 153.037 125.823Z" fill="#F63D1F"/>
<path d="M146.652 134.172V134.324C146.652 134.476 146.956 134.628 147.108 134.476L147.26 134.324C147.412 134.02 146.652 133.716 146.652 134.172Z" fill="#F63D1F"/>
<path d="M136.771 140.245C136.771 140.549 136.771 140.701 136.924 141.004C137.076 141.156 137.228 141.308 137.532 141.156C137.836 141.004 137.988 140.853 137.988 140.549C138.292 139.942 136.923 139.486 136.771 140.245Z" fill="#F63D1F"/>
<path d="M129.627 143.89C129.627 144.042 129.627 144.193 129.627 144.345C129.627 144.497 129.931 144.649 130.083 144.497C130.235 144.345 130.235 144.345 130.235 144.194C130.387 143.586 129.627 143.434 129.627 143.89Z" fill="#F63D1F"/>
<path d="M131.299 142.22C131.299 142.372 131.299 142.372 131.147 142.523C131.147 142.675 131.147 142.979 131.299 142.979C131.451 143.131 131.603 143.131 131.755 143.131C131.907 143.131 132.059 142.979 132.211 142.827C132.211 142.675 132.211 142.675 132.363 142.523C132.515 141.916 131.451 141.612 131.299 142.22Z" fill="#F63D1F"/>
<path d="M133.883 144.649C133.883 144.801 133.883 144.801 133.883 144.953C133.883 145.105 134.035 145.105 134.187 145.105C134.339 145.105 134.339 144.953 134.491 144.953C134.643 144.345 133.883 144.041 133.883 144.649Z" fill="#F63D1F"/>
<path d="M127.803 142.673C127.651 142.522 127.803 142.522 127.803 142.673C126.891 142.522 126.587 143.433 127.347 143.736C127.347 143.736 127.347 143.736 127.499 143.736C128.107 144.04 128.563 142.825 127.803 142.673Z" fill="#F63D1F"/>
<path d="M123.09 143.129C122.634 142.977 122.33 143.129 122.33 143.585C122.33 143.888 122.786 144.04 122.938 143.737H122.786C123.394 144.192 123.698 143.281 123.09 143.129Z" fill="#F63D1F"/>
<path d="M119.746 142.068C120.202 142.22 120.506 141.46 120.05 141.308C119.594 141.156 119.29 141.916 119.746 142.068Z" fill="#F63D1F"/>
<path d="M95.8801 115.346C96.0321 115.801 96.1841 116.105 96.4882 116.56C96.7922 116.864 97.4003 116.712 97.4003 116.257C97.4003 115.801 97.4003 115.346 97.0963 114.89C96.7922 114.131 95.7281 114.586 95.8801 115.346Z" fill="#F63D1F"/>
<path d="M99.8325 108.666C99.8325 108.817 99.8325 108.817 99.8325 108.666C99.8325 108.969 99.9846 109.273 100.137 109.273C100.289 109.273 100.289 109.425 100.441 109.425C100.593 109.425 100.897 109.273 100.897 109.121C100.897 109.121 100.897 109.121 100.897 108.969C101.505 108.21 99.9845 107.755 99.8325 108.666Z" fill="#F63D1F"/>
<path d="M95.8801 110.64C95.5761 111.095 95.5761 111.399 95.8801 111.702C96.0321 112.006 96.4882 112.158 96.7922 112.158C97.4003 112.006 97.4002 111.399 97.4002 110.791C97.0962 110.184 96.1841 110.032 95.8801 110.64Z" fill="#F63D1F"/>
<path d="M100.136 112.764C99.9845 113.068 99.9845 113.371 100.136 113.675C100.288 113.979 100.593 113.979 100.897 113.979C101.201 113.827 101.353 113.523 101.353 113.22C101.657 112.461 100.44 112.005 100.136 112.764Z" fill="#F63D1F"/>
<path d="M98.1602 111.398C98.1602 111.702 98.1602 111.854 98.3122 112.005C98.4642 112.157 98.6162 112.157 98.7682 112.157C98.9202 112.157 99.0723 112.005 99.2243 111.854C99.8323 110.943 98.1602 110.335 98.1602 111.398Z" fill="#F63D1F"/>
<path d="M103.937 107.299C103.633 107.754 103.633 108.665 104.241 108.817C104.545 108.817 104.697 108.817 104.849 108.514C105.001 108.362 104.849 108.058 105.001 107.906C105.153 107.147 104.241 106.692 103.937 107.299Z" fill="#F63D1F"/>
<path d="M105.457 102.593C105.457 102.745 105.457 102.897 105.609 103.049C105.761 103.201 105.913 103.352 106.065 103.201C106.217 103.201 106.217 103.049 106.369 102.897C106.977 102.138 105.609 101.682 105.457 102.593Z" fill="#F63D1F"/>
<path d="M101.657 104.414C101.657 104.718 101.657 104.87 101.809 105.021C101.961 105.173 102.113 105.173 102.265 105.173C102.569 105.021 102.569 105.021 102.721 104.718C102.873 104.11 101.657 103.807 101.657 104.414Z" fill="#F63D1F"/>
<path d="M108.649 98.3425C108.497 98.6462 108.497 98.9498 108.649 99.2535C109.105 100.013 110.169 98.9498 109.409 98.3425C109.409 98.4943 109.561 98.4943 109.561 98.6462C109.713 98.1907 108.953 97.887 108.649 98.3425Z" fill="#F63D1F"/>
<path d="M111.841 97.5827C111.841 97.7345 111.841 97.7345 111.841 97.5827C112.753 97.7345 113.209 96.6718 112.297 96.3681C112.297 96.3681 112.297 96.3681 112.145 96.3681C111.385 96.0644 110.929 97.4309 111.841 97.5827Z" fill="#F63D1F"/>
<path d="M97.8562 126.278C98.4643 126.43 98.9203 125.519 98.1602 125.215C97.5522 125.063 97.2482 125.974 97.8562 126.278Z" fill="#F63D1F"/>
<path d="M97.7042 122.633C97.7042 122.785 97.7042 122.937 97.7042 123.089C97.8562 123.24 98.0082 123.392 98.1602 123.24C98.3123 123.089 98.4643 123.089 98.4643 122.785C98.7683 122.329 97.8562 122.026 97.7042 122.633Z" fill="#F63D1F"/>
<path d="M95.88 124.152C96.032 124.152 96.1841 124.152 96.3361 124C96.4881 123.848 96.4881 123.696 96.4881 123.544C96.4881 123.392 96.3361 123.241 96.1841 123.089C95.424 122.633 94.968 124.303 95.88 124.152Z" fill="#F63D1F"/>
<path d="M100.136 129.314C100.897 129.618 101.2 128.403 100.44 128.252C99.8324 127.948 99.3764 129.163 100.136 129.314Z" fill="#F63D1F"/>
<path d="M103.025 130.072C103.025 130.224 103.025 130.376 103.025 130.376C103.025 130.528 103.329 130.528 103.481 130.528C103.633 130.528 103.633 130.376 103.785 130.224C104.089 129.617 103.177 129.313 103.025 130.072Z" fill="#F63D1F"/>
<path d="M116.858 139.79C116.858 139.942 117.01 139.942 117.01 140.094C117.01 140.246 117.162 140.094 117.162 140.094C117.162 139.942 117.162 139.79 116.858 139.79Z" fill="#F63D1F"/>
<path d="M116.554 139.183C116.554 139.487 116.402 139.638 116.554 139.79C116.554 140.094 117.01 140.094 117.162 139.942C117.314 139.79 117.466 139.638 117.466 139.335C117.466 138.879 116.554 138.576 116.554 139.183Z" fill="#F63D1F"/>
<path d="M117.618 141.915C117.466 142.219 117.314 142.522 117.466 142.826C117.618 143.129 117.922 143.281 118.226 143.281C118.53 143.281 118.682 142.978 118.53 142.674C118.53 142.522 118.53 142.522 118.53 142.674C118.986 141.915 117.922 141.308 117.618 141.915Z" fill="#F63D1F"/>
<path d="M131.147 71.4679C131.299 71.7716 131.451 71.9234 131.603 72.227C131.907 72.3789 132.211 72.227 132.211 71.9234C132.211 71.6197 132.059 71.3161 131.907 71.1643C131.755 70.4051 130.843 70.8606 131.147 71.4679Z" fill="#F09453"/>
<path d="M127.955 75.719C127.955 75.8708 127.955 75.8708 127.803 76.0227C127.651 76.7818 128.715 77.0855 128.867 76.3263C128.867 76.1745 128.867 76.1745 129.019 76.0227C129.323 75.2635 128.107 74.9599 127.955 75.719Z" fill="#F09453"/>
<path d="M124.155 74.0487C124.003 74.5041 123.851 74.8078 124.155 75.2633C124.307 75.4151 124.611 75.5669 124.915 75.4151C125.067 75.2633 125.219 75.1115 125.219 74.9596V74.8078V74.656C125.067 74.5041 125.067 74.5041 125.219 74.8078C125.675 74.0487 124.611 73.4414 124.155 74.0487Z" fill="#F09453"/>
<path d="M123.698 77.8436C123.698 78.1473 123.85 78.4509 124.154 78.7546C124.762 79.21 125.523 78.4509 125.218 77.8436C125.218 77.9954 125.218 78.1472 125.37 78.1472C125.37 78.1472 125.37 78.1473 125.37 77.9954C125.37 78.1473 125.218 78.2991 125.218 78.2991C125.218 78.2991 125.218 78.2991 125.218 78.1472C125.371 77.6918 125.37 77.2363 124.762 77.0845C124.306 76.9326 123.85 77.3881 123.698 77.8436Z" fill="#F09453"/>
<path d="M113.666 89.5349C114.426 89.8385 114.882 88.4721 114.122 88.3202C113.362 88.0166 112.906 89.383 113.666 89.5349Z" fill="#F09453"/>
<path d="M111.385 90.9026C111.385 91.2062 111.233 91.3581 111.385 91.5099C111.385 91.8135 111.841 91.9654 112.145 91.6617C112.298 91.5099 112.449 91.3581 112.449 91.0544C112.602 90.5989 111.385 90.2953 111.385 90.9026Z" fill="#F09453"/>
<path d="M163.222 94.6989V94.8509C163.222 95.1549 163.678 95.307 163.83 95.0029L163.982 94.8509C164.286 94.3949 163.222 94.0909 163.222 94.6989Z" fill="#F09453"/>
<path d="M167.022 94.3945C166.718 94.3945 166.414 94.5464 166.262 94.6982C166.11 94.85 166.11 95.1537 166.262 95.3055C166.414 95.4573 166.566 95.6091 166.87 95.6091C167.63 95.9128 167.934 94.5464 167.022 94.3945Z" fill="#F09453"/>
<path d="M167.174 106.691C166.87 107.147 166.718 107.451 166.718 107.906C166.718 108.21 167.174 108.21 167.326 108.21C167.63 108.058 167.934 107.754 168.086 107.299C168.542 106.691 167.478 105.932 167.174 106.691Z" fill="#F09453"/>
<path d="M165.046 109.272C165.046 109.424 165.046 109.576 165.046 109.576C165.198 110.031 165.502 110.031 165.958 109.879C166.11 109.879 166.11 109.727 166.11 109.576C166.566 108.817 165.198 108.361 165.046 109.272Z" fill="#F09453"/>
<path d="M167.326 111.247C167.326 112.006 168.086 112.158 168.39 111.55C168.846 110.639 167.326 110.184 167.326 111.247Z" fill="#F09453"/>
<path d="M165.046 114.587V114.739C165.046 115.043 165.35 115.195 165.502 114.891C165.502 114.891 165.502 114.739 165.654 114.739C165.958 114.283 165.046 114.131 165.046 114.587Z" fill="#F09453"/>
<g opacity="0.4" style="mix-blend-mode:soft-light">
<path d="M161.142 116.535C160.838 116.839 160.686 117.143 160.686 117.75C160.686 118.205 161.142 118.509 161.598 118.205C161.598 118.205 161.75 118.205 161.75 118.054C161.902 118.054 162.054 117.902 162.206 117.75C162.966 117.143 161.75 115.776 161.142 116.535Z" fill="#F09453"/>
</g>
<path d="M149.389 131.743C149.237 132.047 149.237 132.351 149.389 132.503C149.541 132.806 149.845 132.806 149.997 132.654C150.301 132.503 150.453 132.351 150.453 132.047C150.909 131.288 149.541 130.984 149.389 131.743Z" fill="#F09453"/>
<path d="M146.652 135.234C146.804 135.842 147.412 135.993 147.868 135.538C148.172 135.234 148.172 134.475 147.564 134.323C146.956 134.172 146.5 134.627 146.652 135.234Z" fill="#F09453"/>
<path d="M142.244 138.878C142.7 139.03 142.852 138.27 142.396 138.27C142.092 138.118 141.94 138.726 142.244 138.878Z" fill="#F09453"/>
<path d="M139.66 139.941C139.356 140.244 139.204 140.548 139.204 141.003C139.204 141.155 139.508 141.307 139.66 141.307C139.964 141.155 140.116 141.003 140.268 140.852C140.876 140.396 140.116 139.485 139.66 139.941Z" fill="#F09453"/>
<path d="M127.347 145.407C127.195 146.167 128.107 146.318 128.411 145.863C128.411 145.863 128.411 145.863 128.411 145.711C129.019 144.952 127.499 144.345 127.347 145.407Z" fill="#F09453"/>
<path d="M124.763 145.104C125.067 145.407 125.827 145.256 125.675 144.648C125.523 143.737 124.154 144.496 124.763 145.104Z" fill="#F09453"/>
<path d="M98.3122 127.795C99.2243 128.099 99.5283 126.732 98.7683 126.428C98.0082 126.125 97.5522 127.491 98.3122 127.795Z" fill="#F09453"/>
<path d="M102.265 130.984C103.177 131.288 103.481 130.073 102.721 129.921C102.721 129.921 102.721 129.921 102.569 129.921C101.809 129.618 101.505 130.68 102.265 130.984Z" fill="#F09453"/>
<path d="M97.0962 123.089L96.9441 122.937C96.9441 122.937 96.9441 123.089 97.0962 123.089C97.0962 123.241 97.4002 123.393 97.5522 123.241C97.7042 123.089 97.8562 122.937 97.8562 122.634C97.8562 122.33 97.5522 122.178 97.4002 122.027C96.7921 121.875 96.3361 122.937 97.0962 123.089Z" fill="#F09453"/>
<path d="M94.2078 120.204C94.3598 120.508 94.6639 120.812 95.1199 120.812C95.5759 120.812 95.728 120.356 95.576 120.052C95.424 119.901 95.424 119.901 95.424 119.749C94.9679 118.99 93.9038 119.597 94.2078 120.204Z" fill="#F09453"/>
<path d="M145.588 78.9071C146.652 77.3889 144.22 80.7291 144.828 79.8181C144.372 80.5772 144.068 81.3364 143.764 82.0955C143.004 83.9174 144.372 81.1846 143.308 82.8546C142.852 83.6138 142.396 84.3729 141.788 84.9802C140.572 86.8021 143.004 83.7656 141.484 85.2839C141.028 85.7393 138.596 87.2576 141.18 85.7393C141.636 85.4357 145.436 85.2839 143.156 85.2839C148.172 85.5875 151.061 92.2679 147.564 95.9117C149.693 93.7861 151.365 91.9642 152.581 88.9277C154.101 85.132 152.277 79.5144 148.628 77.6925C140.724 73.745 132.059 78.9072 129.019 86.6503C126.283 93.6343 129.931 102.137 137.228 104.718C143.764 106.995 149.845 104.414 153.949 99.1001C156.685 95.6081 156.685 90.446 155.925 86.3467C155.621 84.5247 154.861 82.8546 154.101 81.1845C153.797 80.4254 153.189 79.8181 152.733 79.059C152.429 78.7553 149.541 77.237 150.605 77.6925C148.932 76.9334 146.804 76.9334 145.588 78.9071Z" fill="#EECCA7"/>
<path d="M146.804 86.9544C146.044 88.4726 145.132 89.3836 143.308 90.5982C143.004 90.9019 142.7 91.2055 142.396 91.5092C142.7 91.2055 142.548 91.2055 142.244 91.661C141.636 92.4201 141.028 93.0274 140.572 93.7866C139.964 94.6975 139.508 95.7603 139.204 96.8231C138.444 99.7078 140.876 102.593 143.916 101.985C147.869 101.226 150.909 98.0377 151.973 94.2421C152.885 91.3574 152.581 86.1953 148.629 85.8916C147.869 86.0434 147.108 86.4989 146.804 86.9544Z" fill="white"/>
<path d="M143.46 81.9441C142.548 82.8551 141.484 83.4624 140.42 84.2215C139.052 85.2843 138.14 86.499 137.531 88.169C136.923 89.991 139.052 91.9647 140.876 90.9019C142.396 89.991 143.612 89.2318 144.524 87.7136C145.284 86.4989 146.044 84.9807 146.348 83.6142C146.5 82.2478 144.828 80.4259 143.46 81.9441Z" fill="white"/>
<path d="M145.436 82.5513C144.22 81.944 143.004 81.1848 142.244 80.1221C141.484 79.0593 141.028 77.541 141.636 76.3264C142.852 74.049 146.044 74.5045 148.476 73.5935C151.213 72.5307 152.581 69.3424 153.493 66.6095C154.861 62.8138 156.381 58.259 154.101 54.767C153.341 53.7042 152.429 52.4896 152.885 51.275C156.381 50.8195 160.029 50.9714 163.526 51.4268C163.526 58.4109 161.854 65.2431 158.813 71.468C157.901 73.2899 156.989 75.1118 156.533 77.0855C156.077 79.0593 156.533 81.3367 157.901 82.7031C158.205 83.0068 158.661 83.3104 158.965 83.7659C159.877 85.1323 158.509 87.1061 156.989 87.4097C155.317 87.7134 153.797 87.1061 152.277 86.347C150.149 85.1323 147.716 83.9177 145.436 82.5513Z" fill="#56A03C"/>
<path d="M131.147 107.148C128.259 109.729 125.675 112.613 122.33 114.891C118.682 117.32 113.666 117.927 110.625 121.267C108.953 123.241 108.193 126.126 110.169 128.251C115.794 134.021 123.09 129.314 128.107 125.519C130.691 123.545 132.971 121.116 134.795 118.231C136.772 115.043 136.62 112.158 135.859 108.666C135.403 106.692 132.819 105.781 131.147 107.148Z" fill="#B91C23"/>
<path d="M148.02 108.361C147.716 109.12 146.804 109.576 146.044 109.424C145.284 109.12 144.828 108.21 144.98 107.45C145.284 106.691 147.108 105.78 147.108 105.78C147.108 105.78 148.172 107.45 148.02 108.361Z" fill="#FFE7CF"/>
<path d="M127.651 99.252C127.347 100.011 126.435 100.467 125.675 100.315C124.914 100.011 124.458 99.1001 124.61 98.341C124.914 97.5819 126.739 96.6709 126.739 96.6709C126.739 96.6709 127.955 98.4928 127.651 99.252Z" fill="#FFE7CF"/>
<path d="M147.108 113.675C146.348 113.827 145.436 113.372 145.132 112.613C144.98 111.853 145.436 110.943 146.196 110.639C146.956 110.487 148.78 111.55 148.78 111.55C148.78 111.55 147.868 113.372 147.108 113.675Z" fill="#FFE4A9"/>
<path d="M124.914 85.4367C124.154 85.2849 123.546 84.3739 123.85 83.4629C124.002 82.7038 124.914 82.0965 125.827 82.4002C126.587 82.552 127.651 84.5257 127.651 84.5257C127.651 84.5257 125.827 85.5885 124.914 85.4367Z" fill="#FFE4A9"/>
<path d="M138.14 120.66C137.38 121.115 136.467 120.811 136.011 120.052C135.555 119.293 135.859 118.382 136.619 117.927C137.38 117.471 139.356 118.23 139.356 118.23C139.356 118.23 138.9 120.204 138.14 120.66Z" fill="#FFE4A9"/>
<path d="M160.182 97.1262C159.421 96.9743 158.813 96.0634 159.117 95.1524C159.269 94.3933 160.181 93.786 161.094 94.0896C161.854 94.2414 162.918 96.2152 162.918 96.2152C162.918 96.2152 161.094 97.278 160.182 97.1262Z" fill="#FFE4A9"/>
<path d="M118.378 95.4573C117.618 95.3055 117.162 94.5463 117.314 93.7872C117.466 93.0281 118.226 92.5726 118.986 92.7244C119.746 92.8762 120.658 94.6982 120.658 94.6982C120.658 94.6982 119.138 95.7609 118.378 95.4573Z" fill="#FFE4A9"/>
<path d="M123.242 97.5808C123.394 98.3399 123.09 99.099 122.33 99.2509C121.57 99.4027 120.81 99.099 120.658 98.3399C120.506 97.5808 121.418 96.0625 121.418 96.0625C121.418 96.0625 122.938 96.9735 123.242 97.5808Z" fill="#FFE7CF"/>
<path d="M153.341 109.576C153.645 110.335 153.189 111.246 152.277 111.55C151.517 111.853 150.605 111.398 150.301 110.487C149.997 109.728 151.061 107.754 151.061 107.754C151.061 107.754 153.189 108.817 153.341 109.576Z" fill="#FFE7CF"/>
<path d="M158.357 98.7965C158.661 99.5557 158.205 100.467 157.293 100.77C156.533 101.074 155.621 100.618 155.317 99.7075C155.013 98.9483 156.077 96.9746 156.077 96.9746C156.077 96.9746 158.053 98.0374 158.357 98.7965Z" fill="#FFE7CF"/>
<path d="M125.067 95.0005C124.459 95.6078 123.546 95.7596 122.938 95.1523C122.33 94.545 122.178 93.634 122.786 93.0267C123.394 92.4194 125.523 92.2676 125.523 92.2676C125.523 92.2676 125.523 94.3932 125.067 95.0005Z" fill="#FFE7CF"/>
<mask id="mask14_9002_25149" style="mask-type:luminance" maskUnits="userSpaceOnUse" x="141" y="51" width="23" height="37">
<path d="M145.436 82.5513C144.22 81.944 143.004 81.1848 142.244 80.1221C141.484 79.0593 141.028 77.541 141.636 76.3264C142.852 74.049 146.044 74.5045 148.476 73.5935C151.213 72.5307 152.581 69.3424 153.493 66.6095C154.861 62.8138 156.381 58.259 154.101 54.767C153.341 53.7042 152.429 52.4896 152.885 51.275C156.381 50.8195 160.029 50.9714 163.526 51.4268C163.526 58.4109 161.854 65.2431 158.813 71.468C157.901 73.2899 156.989 75.1118 156.533 77.0855C156.077 79.0593 156.533 81.3367 157.901 82.7031C158.205 83.0068 158.661 83.3104 158.965 83.7659C159.877 85.1323 158.509 87.1061 156.989 87.4097C155.317 87.7134 153.797 87.1061 152.277 86.347C150.149 85.1323 147.716 83.9177 145.436 82.5513Z" fill="white"/>
</mask>
<g mask="url(#mask14_9002_25149)">
<g opacity="0.37">
<path d="M159.269 50.6681C161.398 58.1076 158.205 67.8245 153.797 73.7457C149.085 80.1224 151.821 89.9912 160.03 90.9021C162.614 91.2058 164.894 89.232 165.806 86.9546C167.174 83.3108 165.958 80.8816 163.83 77.845C162.766 76.3268 166.566 66.7617 167.022 64.4843C167.934 59.3222 167.174 51.7309 162.158 48.6944C160.79 47.6316 158.661 48.8462 159.269 50.6681Z" fill="#84DB40"/>
</g>
</g>
</svg>
