<svg width="200" height="200" viewBox="0 0 200 200" fill="none" xmlns="http://www.w3.org/2000/svg">
<path d="M92.3522 39.8944C90.1195 40.2678 88.0729 40.8278 86.0262 41.2012C86.0262 40.4545 85.8402 39.8944 86.0262 39.1476C86.2123 36.7207 85.096 33.9204 83.7935 31.8669C83.2354 30.9334 82.4911 30.3734 81.7469 30C80.6305 32.4269 78.956 34.4805 76.3512 35.2273C76.5373 35.6006 76.7233 35.7873 76.9094 36.1607C78.2118 37.8409 79.5142 39.8944 81.1887 41.2012C81.5608 41.5746 81.7469 41.7613 81.933 42.1346C80.0724 42.8814 78.2118 43.6281 76.5373 44.1882C74.8627 44.5616 73.5603 46.0551 73.9325 47.9219C74.4906 51.469 77.8397 52.5891 81.0027 51.6557C86.0262 50.1622 91.608 49.2287 97.0037 48.6687C99.2363 48.482 100.539 46.4285 100.911 44.5616C101.097 44.1882 101.097 43.6281 101.283 43.2548C101.283 43.0681 101.283 43.0681 101.469 42.8814C101.469 42.6947 101.655 42.3213 101.655 42.1346C102.771 36.9074 93.8407 34.8539 92.3522 39.8944Z" fill="#9AAB00"/>
<path d="M115.982 46.0552C114.121 38.7745 104.632 31.307 99.6084 40.828C99.2363 41.3881 98.8642 42.6949 98.4921 44.3751C94.0267 40.828 86.9565 40.2679 82.4911 44.0017C80.2584 45.8685 78.956 48.1088 78.2117 50.7224C73.7464 46.802 66.4901 46.6153 63.8853 53.8961C62.0247 59.4967 62.3968 65.2839 63.6992 70.8845C66.304 81.5257 72.816 91.6068 76.1651 102.248C77.6536 107.102 82.305 109.155 86.5844 106.168C87.7007 105.422 88.4449 104.488 89.1892 103.741C90.8637 105.048 92.7243 106.168 95.143 106.542C99.6084 107.475 104.26 104.115 106.493 100.568C114.121 103.555 119.144 93.6604 119.144 86.5663C118.772 73.3115 118.958 58.5632 115.982 46.0552Z" fill="#FFD334"/>
<g opacity="0.4" style="mix-blend-mode:soft-light">
<path d="M109.656 37.4668C114.493 49.9748 115.982 62.2961 115.051 75.9243C114.679 80.4047 114.307 84.8852 113.563 89.3657C113.191 91.9793 112.447 94.5929 111.33 97.0198C112.633 97.5799 112.446 97.7666 111.144 97.2065C110.4 97.2065 109.656 97.2065 109.097 97.3932C108.911 97.3932 108.911 97.5799 108.725 97.5799C108.167 94.5929 107.237 91.6059 106.493 88.8056C104.632 81.3382 103.33 73.8707 102.213 66.4032C102.213 66.0299 101.655 66.0299 101.469 66.4032C99.9806 73.1239 100.167 79.4713 100.167 86.192C100.167 90.2991 102.585 106.541 94.3989 103.927C93.8407 103.741 93.2825 103.741 92.7244 103.741C92.5383 92.5394 89.7474 81.8982 86.2123 71.4438C86.0263 70.697 84.7238 70.8837 84.9099 71.6305C85.096 78.1645 85.4681 84.5119 86.3984 91.0459C86.5844 91.9793 87.1426 103.927 85.6541 103.927C83.6075 103.927 81.3748 102.994 79.3282 102.807C78.3979 102.62 77.6537 102.807 76.9094 102.994C78.77 106.914 82.8633 108.594 86.7705 105.794C87.8868 105.047 88.6311 104.114 89.3753 103.367C91.0498 104.674 92.9104 105.794 95.3292 106.168C99.7946 107.101 104.446 103.741 106.679 100.194C114.307 103.181 119.331 93.2861 119.331 86.192C119.145 73.3106 119.331 58.7491 116.168 46.0544C115.051 42.5073 112.633 39.147 109.656 37.4668Z" fill="#FF0F00"/>
</g>
<g opacity="0.4" style="mix-blend-mode:soft-light">
<path d="M68.3507 69.9509C69.892 69.9509 71.1416 66.2732 71.1416 61.7367C71.1416 57.2001 69.892 53.5225 68.3507 53.5225C66.8093 53.5225 65.5598 57.2001 65.5598 61.7367C65.5598 66.2732 66.8093 69.9509 68.3507 69.9509Z" fill="white"/>
</g>
<g opacity="0.4" style="mix-blend-mode:soft-light">
<path d="M85.8401 55.2012C87.3814 55.2012 88.6309 52.9445 88.6309 50.1607C88.6309 47.3769 87.3814 45.1201 85.8401 45.1201C84.2987 45.1201 83.0492 47.3769 83.0492 50.1607C83.0492 52.9445 84.2987 55.2012 85.8401 55.2012Z" fill="white"/>
</g>
<g opacity="0.4" style="mix-blend-mode:soft-light">
<path d="M103.888 48.6696C105.224 48.6696 106.306 46.7473 106.306 44.3759C106.306 42.0045 105.224 40.082 103.888 40.082C102.552 40.082 101.469 42.0045 101.469 44.3759C101.469 46.7473 102.552 48.6696 103.888 48.6696Z" fill="white"/>
</g>
<path d="M150.774 61.3628C150.96 60.8028 151.891 59.6826 152.077 58.7492C152.263 58.3758 152.263 58.0025 152.263 57.6291C150.402 56.509 148.356 55.5755 146.123 55.2021C144.448 56.8823 144.076 60.6161 143.704 62.6696C143.518 63.7897 143.332 64.7232 143.146 65.8433C141.472 65.4699 139.611 65.6566 137.936 66.2167C137.564 65.0965 137.378 63.9764 136.448 63.043C135.89 62.483 135.145 62.8563 134.959 63.603C134.587 65.4699 135.146 67.3368 134.773 69.2036C134.587 71.0705 136.448 71.8173 137.936 71.4439C141.099 70.3238 144.076 71.8173 146.681 73.4975C149.1 75.1777 151.333 78.1646 154.496 77.7912C156.356 77.6046 157.286 75.3643 156.542 73.6841C155.612 71.8173 154.123 71.6306 152.449 70.6972C150.774 69.5771 149.286 68.6436 147.425 67.7102C147.797 66.9634 148.17 66.2167 148.542 65.4699C149.472 63.7897 150.216 62.6696 150.774 61.3628Z" fill="#4A7006"/>
<path d="M165.845 81.8997C162.868 75.5524 158.589 74.4322 153.937 75.5524C151.705 70.3251 146.123 66.4048 139.425 68.8317C138.495 69.2051 137.75 69.5784 137.006 69.9518C136.634 67.5248 135.89 65.2846 133.657 63.6044C129.006 59.8707 123.424 62.4843 119.889 66.0314C116.354 69.5784 115.423 76.4858 114.307 80.9663C111.33 91.2341 108.539 101.502 105.748 111.77C104.26 117.37 108.539 120.917 113.377 121.477C115.423 124.278 118.772 126.331 122.121 126.331C124.354 129.878 128.633 132.118 134.029 131.372C146.681 129.318 153.937 119.05 159.705 108.409C163.426 101.688 169.566 89.7406 165.845 81.8997Z" fill="#E63800"/>
<g opacity="0.4" style="mix-blend-mode:soft-light">
<path d="M151.891 111.581C149.658 117.741 143.89 120.915 138.122 123.902C133.843 126.142 129.75 125.209 125.657 126.142C127.145 124.462 128.634 122.595 129.936 120.728C135.332 113.074 144.076 103.553 145.379 94.4056C145.379 94.0322 144.821 93.6589 144.634 94.0323C139.053 99.0728 134.587 105.42 129.564 111.021C127.331 113.448 121.749 121.475 117.098 123.529C116.54 122.409 116.168 121.288 115.982 119.795C121.377 112.328 121.191 103.367 123.61 94.5923C123.796 93.8455 123.052 93.6589 122.494 94.0323C118.586 98.5127 116.726 103.553 114.679 109.154C113.005 113.634 110.958 116.995 106.307 117.928C107.795 120.168 110.4 121.475 113.005 121.662C115.051 124.462 118.4 126.516 121.749 126.516C123.982 130.063 128.261 132.303 133.657 131.556C146.309 129.503 153.565 119.235 159.333 108.594C162.868 102.06 168.45 90.6719 165.845 82.8311C164.357 90.4852 160.449 88.805 151.891 111.581Z" fill="#B43F0D"/>
</g>
<g opacity="0.4" style="mix-blend-mode:soft-light">
<path d="M126.003 72.4324C128.539 69.7303 129.685 66.6802 128.563 65.6199C127.441 64.5595 124.475 65.8905 121.939 68.5927C119.403 71.2948 118.257 74.3449 119.379 75.4052C120.501 76.4656 123.466 75.1346 126.003 72.4324Z" fill="white"/>
</g>
<g opacity="0.4" style="mix-blend-mode:soft-light">
<path d="M157.727 82.168C159.812 81.0508 160.992 79.1867 160.362 78.0044C159.733 76.8221 157.533 76.7692 155.448 77.8864C153.363 79.0035 152.184 80.8677 152.813 82.05C153.442 83.2323 155.642 83.2851 157.727 82.168Z" fill="white"/>
</g>
<g opacity="0.4" style="mix-blend-mode:soft-light">
<path d="M140.027 76.75C142.112 75.6328 143.292 73.7687 142.663 72.5864C142.034 71.404 139.833 71.3513 137.749 72.4684C135.664 73.5856 134.484 75.4497 135.113 76.632C135.743 77.8143 137.943 77.8672 140.027 76.75Z" fill="white"/>
</g>
<path d="M77.3516 129.154C78.0958 127.847 77.9098 126.167 76.9795 125.047C77.7237 124.114 77.9098 122.807 77.9098 121.687C77.9098 120.753 76.4213 120.38 76.0492 121.127C75.305 122.434 73.8165 123.367 72.5141 123.927C72.328 123.927 71.9559 124.114 71.7698 124.3C69.5371 125.234 70.6535 128.221 72.7001 128.221C72.7001 128.968 72.8862 129.714 73.6304 130.274C74.9328 131.208 76.6074 130.461 77.3516 129.154Z" fill="#4A7006"/>
<path d="M77.3515 133.074C80.3285 127.1 70.4674 121.313 67.1184 127.287C63.7693 133.074 60.7924 138.862 57.2573 144.649C57.0712 145.022 57.2573 145.769 57.8155 145.769C65.8159 143.716 73.4443 141.102 77.3515 133.074Z" fill="#9AAB00"/>
<g opacity="0.4" style="mix-blend-mode:soft-light">
<path d="M77.3515 133.076C77.9097 132.142 77.9097 131.209 77.9097 130.275C74.1886 135.129 68.6068 137.556 63.5832 140.73C62.6529 141.29 61.7227 142.037 60.6063 142.223C60.9784 140.917 61.1645 139.423 60.9784 138.116C59.8621 140.17 58.5597 142.41 57.2573 144.464C57.0712 144.837 57.2573 145.584 57.8155 145.584C65.8159 143.717 73.4443 141.103 77.3515 133.076Z" fill="#4A7006"/>
</g>
<g opacity="0.4" style="mix-blend-mode:soft-light">
<path d="M64.2383 128.004C65.1372 127.317 65.6135 126.427 65.302 126.017C64.9906 125.607 64.0093 125.832 63.1104 126.52C62.2114 127.207 61.7352 128.097 62.0466 128.507C62.3581 128.917 63.3393 128.692 64.2383 128.004Z" fill="white"/>
</g>
<path d="M91.6079 121.851C90.1195 120.917 88.631 120.73 87.1425 121.291C86.5844 120.357 85.8401 119.797 84.7238 119.237C83.9795 118.864 83.0492 119.61 83.0492 120.357C83.0492 121.664 83.4214 122.597 83.7935 123.717C82.8632 124.464 82.4911 125.584 81.9329 126.704C81.0026 128.945 83.6074 131.558 85.8401 130.998C86.9565 132.118 88.817 132.678 90.4916 131.745C91.4219 131.372 91.98 130.625 92.1661 130.065C93.6545 128.945 94.3988 126.704 93.2824 125.211C93.2824 124.091 92.9103 122.597 91.6079 121.851Z" fill="#9AAB00"/>
<path d="M83.2353 133.613C84.3516 138.467 89.3752 143.507 93.2824 146.494C95.3291 147.988 97.7478 149.295 100.353 149.855C102.585 150.415 103.888 151.722 105.934 152.468C106.679 152.655 107.609 152.095 107.423 151.348C107.423 150.041 106.306 148.548 106.12 147.428C105.934 145.187 105.562 142.387 104.818 140.334C103.888 137.907 102.399 135.853 101.097 133.8C100.539 133.053 100.167 132.306 99.7945 131.373C99.7945 131.186 99.6084 131.186 99.6084 130.999C99.6084 130.813 99.6084 130.626 99.4224 130.253C97.1897 119.798 80.8165 122.972 83.2353 133.613Z" fill="#4A7006"/>
<g opacity="0.4" style="mix-blend-mode:soft-light">
<path d="M87.0832 130.148C87.7829 128.541 87.8158 127.005 87.1567 126.716C86.4976 126.427 85.3961 127.495 84.6965 129.101C83.9968 130.707 83.964 132.243 84.6231 132.532C85.2822 132.821 86.3836 131.754 87.0832 130.148Z" fill="white"/>
</g>
<path d="M54.5828 88.6677C52.7222 88.2943 51.0477 88.2943 49.5592 88.8544H49.3732C49.0011 88.8544 48.0708 87.1742 47.6987 86.8008C46.9544 86.0541 46.2102 85.6807 45.2799 85.3074C44.7217 85.1207 44.1636 85.494 44.1636 86.0541C44.1636 86.9875 44.3496 87.5476 44.7217 88.2944C44.9078 88.6677 45.8381 89.9745 45.8381 90.5346C45.0939 91.6547 45.0938 92.7748 45.2799 94.455C45.466 98.002 49.3732 98.5621 51.7919 96.8819C52.3501 97.0686 52.9083 97.2553 53.4665 97.2553C59.0482 98.002 60.1646 89.7878 54.5828 88.6677Z" fill="#4A7006"/>
<path d="M47.5126 101.362C49.5592 106.216 55.6992 110.51 60.3506 112.937C62.7694 114.244 65.5602 114.99 68.3511 115.177C70.7699 115.364 72.4444 116.484 74.6771 116.671C75.4213 116.857 76.3516 116.111 76.1656 115.177C75.7934 113.684 74.491 112.564 74.1189 111.443C73.5607 109.017 72.6305 106.216 71.5141 104.163C70.2117 101.736 68.1651 100.056 66.3045 98.002C65.5602 97.2552 65.0021 96.5085 64.4439 95.7618C64.2578 95.5751 64.2578 95.5751 64.2578 95.3884C64.2578 95.2017 64.2578 95.015 64.0718 94.6416C59.6064 84.3739 43.0472 90.9079 47.5126 101.362Z" fill="#820F00"/>
<g opacity="0.4" style="mix-blend-mode:soft-light">
<path d="M40.5148 96.7432C41.2144 95.1371 41.2472 93.6008 40.5881 93.3118C39.929 93.0227 38.8276 94.0904 38.128 95.6965C37.4284 97.3025 37.3955 98.8388 38.0546 99.1279C38.7137 99.4169 39.8151 98.3493 40.5148 96.7432Z" fill="white"/>
</g>
<path d="M59.3243 130.143C59.5103 129.583 60.0685 129.21 60.2546 128.463C60.4406 128.276 60.4406 127.903 60.4406 127.716C60.4406 127.716 60.4406 127.716 60.4406 127.903C61.557 127.716 62.3012 127.156 63.0454 126.409C63.2315 126.223 63.2315 125.663 62.8594 125.663C61.9291 125.476 61.1849 125.663 60.2546 125.663C60.0685 125.476 59.8825 125.289 59.8825 125.289C58.5801 123.609 55.9752 124.916 56.5334 126.969C56.1613 127.343 55.7892 127.716 55.6031 128.276C54.4868 130.703 58.2079 132.57 59.3243 130.143Z" fill="#9AAB00"/>
<path d="M55.417 134.436C61.929 132.756 59.8824 121.555 53.1843 122.675C46.6723 123.795 40.1603 125.289 33.6482 126.409C33.0901 126.409 32.7179 127.156 33.2761 127.529C39.9742 132.383 46.6723 136.49 55.417 134.436Z" fill="#C12700"/>
<g opacity="0.4" style="mix-blend-mode:soft-light">
<path d="M55.417 134.436C56.7194 134.063 57.6497 133.316 58.3939 132.383C53.5564 132.383 49.2771 131.636 44.8117 129.582C42.3929 128.462 39.9742 127.155 37.7415 125.849C36.4391 126.035 35.1367 126.409 33.8343 126.595C33.2761 126.595 32.904 127.342 33.4621 127.715C39.9742 132.383 46.6723 136.49 55.417 134.436Z" fill="#820F00"/>
</g>
<g opacity="0.4" style="mix-blend-mode:soft-light">
<path d="M42.805 127.024C44.5022 126.609 45.7401 125.704 45.5699 125.003C45.3996 124.301 43.8857 124.069 42.1884 124.484C40.4912 124.899 39.2533 125.804 39.4235 126.505C39.5938 127.206 41.1077 127.438 42.805 127.024Z" fill="white"/>
</g>
<path d="M156.592 139.219C156.778 138.659 156.778 138.286 156.592 137.726C159.011 136.419 161.244 134.739 162.174 132.499C162.36 132.312 161.988 131.938 161.802 131.938C159.941 132.312 157.894 132.872 156.034 133.619C155.476 133.805 155.104 133.992 154.545 134.179C154.359 133.992 153.987 133.805 153.801 133.619C153.243 133.432 152.871 133.245 152.313 133.245C150.824 132.872 149.15 134.365 149.15 135.859C147.103 136.979 148.033 139.779 150.08 140.153C150.638 141.273 151.569 142.02 152.871 142.206C154.731 142.58 156.22 141.086 156.592 139.219Z" fill="#9AAB00"/>
<path d="M150.824 145.194C151.941 144.82 152.871 144.26 153.429 143.327C155.476 141.273 155.476 138.846 154.545 136.979C153.801 134.926 152.127 133.246 149.15 133.246C148.033 133.059 147.103 133.246 145.987 133.806C139.289 135.859 136.87 138.099 129.242 135.299C121.613 132.499 114.915 129.885 106.542 130.072C91.0997 130.445 76.0289 134.739 66.54 147.807C66.3539 148.181 66.726 148.741 67.0981 148.554C73.9823 144.447 82.3549 144.26 89.9833 142.58C100.961 140.153 111.38 140.34 121.799 144.633C132.218 149.114 140.777 150.981 150.824 145.194Z" fill="#C12700"/>
<path d="M150.824 145.194C151.941 144.821 152.871 144.261 153.429 143.327C154.173 142.581 154.545 141.834 154.918 141.274C145.429 146.128 135.568 147.248 126.079 142.021C119.008 138.1 110.45 134.553 102.077 134.926C91.8438 135.3 81.7967 139.22 72.4938 143.514C71.3775 144.074 70.2611 144.447 69.1448 145.008C68.2145 145.941 67.4703 147.061 66.54 148.181C66.3539 148.555 66.726 149.115 67.0981 148.928C73.9823 144.821 82.3549 144.634 89.9833 142.954C100.961 140.527 111.38 140.714 121.799 145.008C132.218 149.115 140.777 150.982 150.824 145.194Z" fill="#820F00"/>
<g opacity="0.4" style="mix-blend-mode:soft-light">
<path d="M149.27 146.652C150.721 145.875 151.543 144.582 151.108 143.763C150.672 142.945 149.143 142.911 147.693 143.688C146.243 144.465 145.42 145.758 145.856 146.577C146.291 147.395 147.82 147.429 149.27 146.652Z" fill="white"/>
</g>
<g opacity="0.4" style="mix-blend-mode:soft-light">
<path d="M93.3554 143.066C97.5244 141.946 100.796 140.635 100.664 140.137C100.531 139.639 97.0435 140.143 92.8744 141.262C88.7053 142.382 85.4334 143.693 85.5662 144.191C85.699 144.689 89.1863 144.185 93.3554 143.066Z" fill="white"/>
</g>
<path d="M114.866 161.426C116.912 162.546 119.331 161.239 119.145 158.626C119.145 158.439 119.145 158.439 118.959 158.252C119.331 157.879 119.703 157.692 120.075 157.506C120.633 157.132 121.005 156.945 121.378 156.385C121.564 156.199 121.378 156.012 121.191 155.825C120.075 155.265 118.587 155.825 117.47 156.012C117.284 156.012 117.098 156.012 116.912 156.012C116.54 155.825 116.168 155.825 115.982 155.825C115.424 155.452 115.052 155.265 114.307 155.079C113.377 154.892 112.633 155.639 112.447 156.572C110.028 157.319 110.958 161.799 113.749 161.239H113.935C114.121 161.426 114.307 161.426 114.493 161.613C114.679 161.426 114.679 161.426 114.866 161.426Z" fill="#9AAB00"/>
<path d="M115.796 161.612C117.284 160.119 117.284 157.132 114.866 156.385C109.656 154.891 106.865 155.825 101.469 156.572C94.3992 157.692 87.1429 156.572 80.0727 154.891C69.6534 152.465 60.3505 148.171 50.3034 144.997C49.9313 144.997 49.9313 145.184 50.1173 145.37C58.4899 153.025 69.4674 160.305 80.2587 163.852C90.3059 167.026 107.795 169.64 115.796 161.612Z" fill="#E63800"/>
<g opacity="0.4" style="mix-blend-mode:soft-light">
<path d="M115.796 161.611C115.982 161.424 116.168 161.238 116.168 161.051C112.633 162.171 109.098 163.291 105.376 164.038C96.8178 165.718 86.7707 161.611 78.7702 158.811C70.5836 156.01 62.5831 152.09 54.9547 147.983C53.0942 147.049 51.4196 146.116 49.7451 145.183C49.7451 145.183 49.7451 145.183 49.7451 145.369C58.1177 153.023 69.0952 160.304 79.8865 163.851C90.3058 167.025 107.795 169.639 115.796 161.611Z" fill="#C12700"/>
</g>
<g opacity="0.4" style="mix-blend-mode:soft-light">
<path d="M56.973 160.369C57.0739 160.077 56.4473 159.594 55.5735 159.29C54.6996 158.987 53.9094 158.977 53.8085 159.27C53.7076 159.562 54.3342 160.045 55.2081 160.349C56.082 160.652 56.8721 160.662 56.973 160.369Z" fill="white"/>
</g>
<g opacity="0.4" style="mix-blend-mode:soft-light">
<path d="M96.4595 169.064C99.8111 168.548 102.44 167.55 102.33 166.837C102.221 166.124 99.4155 165.964 96.0638 166.481C92.7122 166.998 90.0837 167.995 90.193 168.709C90.3022 169.422 93.1078 169.581 96.4595 169.064Z" fill="white"/>
</g>
</svg>
