<svg width="200" height="200" viewBox="0 0 200 200" fill="none" xmlns="http://www.w3.org/2000/svg">
<path d="M68.2495 72.9818C68.2495 72.9818 82.0671 57.5895 95.4783 64.0704C103.2 68.121 108.077 68.1211 114.579 65.6907C120.675 63.2604 134.086 64.4756 136.931 77.0323C145.466 78.6526 154 85.1335 154 99.3105C154 113.487 144.246 123.614 142.621 138.601C141.808 146.702 140.995 154.398 135.306 160.474C129.21 166.955 127.178 170.601 117.83 168.98C112.547 167.765 110.109 168.17 108.483 169.79C106.858 171.411 104.013 175.866 94.2591 174.246C84.5055 172.626 78.0031 165.335 78.0031 165.335C78.0031 165.335 75.5647 168.17 71.9071 168.17C68.2495 168.17 56.0575 161.689 55.6511 145.082C55.2447 134.955 53.2127 128.475 48.7423 117.943C44.2719 107.412 45.4911 93.6396 50.7743 83.5132C56.4639 74.1969 62.9663 72.5767 68.2495 72.9818Z" fill="url(#paint0_radial_8002_23292)"/>
<path d="M68.2496 72.9819C79.2224 76.2224 78.816 82.7033 73.9392 89.9943C69.0623 97.2853 69.0623 108.222 69.8752 115.513C71.9072 97.6904 73.9391 83.5134 91.8208 81.0831C99.136 80.2729 112.141 80.2729 118.643 87.969C121.894 92.8297 123.926 99.7157 123.52 115.108C124.739 99.7157 123.52 95.26 121.082 89.5892C119.05 84.3235 121.894 75.4122 136.525 77.0325C130.835 74.1971 119.456 78.2476 115.392 73.3869C112.547 69.7414 114.579 65.6909 120.269 64.8808C117.83 64.8808 115.392 65.2858 113.36 65.6909C107.264 68.1212 102.387 68.1212 94.2592 64.0706C93.4464 63.6655 92.2272 63.2605 91.4144 62.8555C91.008 71.7667 83.6928 70.9566 68.2496 72.9819Z" fill="url(#paint1_radial_8002_23292)"/>
<g opacity="0.4" style="mix-blend-mode:soft-light">
<path d="M121.488 77.8433C125.552 75.413 118.643 78.2483 112.954 72.1725C111.328 70.1472 110.515 68.527 111.328 66.5017C106.451 67.7169 101.981 67.3118 95.072 63.6663C95.072 63.6663 94.6656 63.6663 94.6656 63.2612C93.8528 65.6916 90.6016 72.1725 82.88 72.1725C75.9712 72.1725 79.6288 73.7928 80.848 75.0079C82.0672 76.2231 82.0672 79.8686 79.6288 82.704C77.1904 85.5394 74.3456 90.4001 83.2864 82.704C83.6928 82.2989 84.0992 82.299 84.912 81.8939C86.944 81.0838 89.3824 80.2737 91.8208 79.8686C98.3232 79.0585 108.483 79.0585 115.392 83.9192C115.392 83.5141 117.018 80.2737 121.488 77.8433Z" fill="url(#paint2_radial_8002_23292)"/>
</g>
<g opacity="0.6" style="mix-blend-mode:soft-light">
<path d="M153.594 96.8799C153.594 107.816 148.717 115.918 144.653 123.209C139.37 132.12 135.712 136.17 131.242 148.322C127.178 160.474 119.862 155.208 122.707 139.411C125.552 123.614 123.114 115.513 123.114 115.513C117.424 151.968 107.67 159.664 94.2591 159.259C80.8479 158.854 72.7199 130.095 69.8751 113.892C69.8751 128.474 69.875 153.183 66.6238 153.588C60.1214 154.398 58.4958 141.031 52.3998 128.474C51.9934 128.069 51.9934 127.664 51.587 126.854C53.619 132.93 54.8382 138.196 55.2446 145.487C55.651 161.689 67.843 168.17 71.5006 168.575C75.1582 168.575 77.5966 165.74 77.5966 165.74C77.5966 165.74 84.0991 173.031 93.8527 174.651C103.606 176.271 106.857 171.816 108.077 170.195C109.702 168.575 111.734 168.17 117.424 169.385C126.365 171.41 128.803 167.36 134.899 160.879C140.589 154.803 141.402 147.512 142.214 139.006C143.84 123.614 153.594 113.892 153.594 99.7153C153.594 98.5001 153.594 97.69 153.594 96.8799Z" fill="url(#paint3_radial_8002_23292)"/>
</g>
<g opacity="0.1" style="mix-blend-mode:soft-light">
<path d="M98.3231 82.7032C98.3231 82.7032 78.4095 80.2728 73.5327 99.7156C69.4687 121.994 81.2543 151.968 91.8207 152.778C105.232 154.398 134.086 85.1335 98.3231 82.7032Z" fill="url(#paint4_radial_8002_23292)"/>
</g>
<g opacity="0.1" style="mix-blend-mode:soft-light">
<path d="M62.1535 75.0071C62.1535 75.0071 48.3358 81.0829 48.3358 102.956C48.3358 124.829 63.3726 147.512 64.5918 139.006C65.811 130.905 58.4958 111.462 69.8751 92.8296C76.3775 82.2981 70.2815 71.3616 62.1535 75.0071Z" fill="url(#paint5_radial_8002_23292)"/>
</g>
<g opacity="0.1" style="mix-blend-mode:soft-light">
<path d="M129.616 85.1338C129.616 85.1338 135.306 98.0956 134.899 112.678C134.493 127.26 154.813 111.463 151.562 95.2602C147.904 75.8175 122.301 73.7922 129.616 85.1338Z" fill="url(#paint6_radial_8002_23292)"/>
</g>
<path d="M119.862 77.4369C119.456 76.6268 118.237 76.6268 115.392 75.4116C112.547 73.7914 112.141 72.1712 111.734 72.1712C111.328 72.1712 109.702 73.3863 106.451 73.3863C103.2 73.7914 96.291 72.5763 94.6654 70.956C93.0398 69.7409 93.0398 69.3358 91.8206 68.9307C90.6014 68.5257 91.4142 70.956 88.5694 72.1712C85.7246 73.7914 80.8478 73.3863 80.8478 73.3863C79.6286 72.9813 83.2862 76.2218 82.4734 77.842C81.6606 79.4622 82.067 81.4875 80.8478 82.2976C80.035 83.1077 80.8478 82.2976 82.8798 83.1078C88.163 81.0825 93.0398 80.2723 97.5102 80.2723H97.9166C99.1358 80.2723 100.355 80.2723 101.168 80.2723C101.574 80.2723 102.387 80.2723 102.793 80.6774C104.013 80.6774 105.232 81.0824 106.451 81.4875C108.889 81.8925 111.328 82.7027 113.36 83.9179C114.173 81.8926 119.862 77.842 119.862 77.4369Z" fill="url(#paint7_radial_8002_23292)"/>
<path d="M106.045 75.4117C106.045 75.4117 108.077 74.6016 110.109 73.3864C112.141 72.1713 110.921 73.7915 110.921 75.0067C110.921 76.2219 112.141 77.8421 113.766 77.8421C115.798 77.8421 114.579 79.4623 110.921 79.0573C108.077 78.2471 105.232 75.4117 106.045 75.4117Z" fill="url(#paint8_radial_8002_23292)"/>
<path d="M84.0991 74.1971C84.0991 74.1971 86.1311 75.0072 89.3823 73.7921C93.0399 72.9819 89.3823 75.8173 87.3503 75.8173C85.3183 75.8173 82.0671 74.1971 84.0991 74.1971Z" fill="url(#paint9_radial_8002_23292)"/>
<path d="M86.5375 79.8677C86.5375 79.8677 84.5055 80.6778 83.2863 81.4879C82.0671 82.298 82.8798 81.893 85.7246 81.4879C88.5694 81.0828 87.3503 79.4626 86.5375 79.8677Z" fill="url(#paint10_radial_8002_23292)"/>
<g opacity="0.5">
<path d="M108.483 72.9826C108.077 72.9826 107.264 73.3876 106.451 73.3876C103.606 73.7926 97.5103 72.5775 95.4783 71.3623C97.1039 74.1977 101.168 77.4382 108.483 72.9826Z" fill="url(#paint11_radial_8002_23292)"/>
<path d="M91.4144 68.9316C90.6016 68.9316 91.008 70.9569 88.1632 72.5771C86.1312 73.7923 83.2864 73.7923 81.6608 73.7923C82.4736 73.7923 83.2864 73.7923 84.5056 74.1973C91.4144 74.6024 91.8208 70.9569 91.4144 68.9316Z" fill="url(#paint12_radial_8002_23292)"/>
<path d="M119.05 76.6274C118.237 76.2224 117.018 76.2224 115.392 75.4122C113.766 74.6021 112.954 73.387 112.547 72.9819C111.734 75.0072 112.547 78.6527 119.05 76.6274Z" fill="url(#paint13_radial_8002_23292)"/>
<path d="M117.83 79.4634C114.579 79.8684 110.921 80.6786 114.173 83.514C114.986 82.2988 116.611 80.6786 117.83 79.4634Z" fill="url(#paint14_radial_8002_23292)"/>
<path d="M85.3183 77.0324C84.9119 75.8172 82.8799 75.0071 80.8479 74.6021C81.6607 75.4122 82.8799 77.4374 82.4735 78.2475C82.0671 79.4627 82.0671 81.083 81.6607 81.8931C85.3183 79.4628 86.1311 78.6526 85.3183 77.0324Z" fill="url(#paint15_radial_8002_23292)"/>
</g>
<path opacity="0.5" d="M111.328 79.8665C108.483 78.6513 103.606 75.8159 103.606 75.8159L91.4143 76.2209C91.4143 76.2209 88.1631 77.8412 86.5375 78.2462C84.9119 78.6513 87.3502 80.2715 89.7886 81.4867C91.8206 81.0816 93.8526 81.0817 95.8846 81.0817C96.6974 81.0817 97.5103 81.0817 98.3231 81.0817C99.5423 81.0817 100.761 81.0817 101.574 81.0817C101.981 81.0817 102.793 81.0816 103.2 81.4867C104.419 81.4867 105.232 81.8918 106.451 81.8918C108.077 82.2968 109.296 82.7019 110.515 83.107C112.953 81.0817 114.173 80.6766 111.328 79.8665Z" fill="url(#paint16_radial_8002_23292)"/>
<path d="M107.67 77.8422C104.013 75.4119 104.013 72.1715 104.013 68.931C104.013 65.6905 104.013 59.2096 99.5423 45.8427C94.2591 28.8303 87.3503 25.9949 84.5055 25.1848C81.6606 23.9696 76.3774 28.8303 76.3774 37.3365C76.3774 45.8427 79.6286 45.0326 80.8478 44.2225C82.067 43.4124 85.3183 43.8174 88.5695 46.2478C96.6975 53.9438 97.5103 66.0955 96.6975 70.1461C95.8847 74.1967 88.163 77.4372 87.3502 77.8422C86.5374 78.2473 90.6015 81.4877 90.6015 81.4877C93.8527 80.6776 97.1039 80.6776 99.5423 80.6776C100.355 80.6776 101.168 80.6776 101.981 80.6776C102.387 80.6776 103.2 80.6777 103.606 81.0827C104.825 81.0827 106.045 81.4878 107.264 81.8928C108.889 81.4878 111.328 81.0827 111.328 80.6776C110.921 79.8675 110.515 79.8675 107.67 77.8422Z" fill="url(#paint17_radial_8002_23292)"/>
<g opacity="0.4">
<path d="M107.67 77.8422C106.857 77.4372 106.451 77.0321 106.045 76.222C106.045 76.627 106.451 76.6271 106.451 77.0321C108.889 79.0574 109.296 80.2726 105.232 78.6523C101.168 77.0321 104.419 80.6776 101.981 79.8675C99.5422 78.6524 98.323 77.8422 95.0718 78.6523C91.8206 79.4625 88.9759 79.0574 94.6655 76.222C100.761 72.5765 100.355 62.4501 95.0718 49.4882C89.7886 36.5264 84.5054 39.3618 85.3182 32.4758C85.7246 28.8303 85.3182 26.4 84.5054 25.1848H84.099C81.2542 23.9696 75.971 28.8303 75.971 37.3365C75.971 45.8427 79.2222 45.0326 80.4414 44.2225C81.6606 43.4124 84.9118 43.8174 88.163 46.2478C96.291 53.9438 97.1038 66.0955 96.291 70.1461C95.4782 74.1967 87.7566 77.4372 86.9438 77.8422C86.131 78.2473 90.195 81.4877 90.195 81.4877C93.4462 80.6776 96.6974 80.6776 99.1358 80.6776C99.9486 80.6776 100.761 80.6776 101.574 80.6776C101.981 80.6776 102.793 80.6777 103.2 81.0827C104.419 81.0827 105.638 81.4878 106.857 81.8928C108.483 81.4878 110.921 81.0827 110.921 80.6776C110.921 79.8675 110.515 79.8675 107.67 77.8422Z" fill="url(#paint18_linear_8002_23292)"/>
</g>
<path opacity="0.3" d="M96.6975 57.9937C96.2911 52.3229 89.7886 43.8167 87.7566 42.6016C85.7246 41.3864 82.8798 42.1965 83.6926 38.956C85.3182 31.665 84.099 27.2094 83.2862 25.1841C80.4414 25.1841 75.971 29.6397 75.971 37.3358C75.971 45.842 79.2222 45.0319 80.4414 44.2218C81.6606 43.4117 84.9118 43.8167 88.163 46.2471C96.291 53.9431 97.1038 66.0948 96.291 70.1454C95.4782 74.196 87.7566 77.4365 86.9438 77.8415C86.9438 77.8415 86.9438 77.8415 86.9438 78.2466C89.7886 77.8415 91.4142 77.0314 95.0718 74.6011C99.5422 71.3606 97.5103 63.6645 96.6975 57.9937Z" fill="url(#paint19_linear_8002_23292)"/>
<path d="M83.2862 25.1841C82.8798 25.1841 82.8798 25.1841 82.4734 25.1841C79.6286 25.9942 75.971 30.4498 75.971 37.3358C75.971 44.6268 78.4094 45.0319 80.035 44.6268C84.9118 41.3864 85.3182 25.9942 83.2862 25.1841Z" fill="url(#paint20_radial_8002_23292)"/>
<path opacity="0.4" d="M86.9439 26.8056C86.9439 26.8056 86.9439 29.2359 88.1631 30.046C89.3823 30.8561 97.5103 37.7421 101.981 58.4C103.606 70.5518 103.2 61.6405 102.794 58.8051C102.387 55.9697 98.3231 42.6028 95.8847 36.932C93.0399 31.2612 86.9439 25.5904 86.9439 26.8056Z" fill="url(#paint21_radial_8002_23292)"/>
<g opacity="0.3">
<path d="M83.2862 25.1841C82.8798 25.1841 82.8798 25.1841 82.4734 25.1841C79.6286 25.9942 75.971 30.4498 75.971 37.3358C75.971 42.1965 77.1902 44.2218 78.4094 44.6268C77.5966 43.4117 77.1902 41.3864 77.5966 38.1459C78.4094 31.2599 80.035 30.0447 80.4414 33.6903C80.4414 37.3358 82.8798 32.8802 81.2542 30.4498C79.2222 27.6144 81.6606 27.2093 82.8798 26.8043C83.6926 26.8043 85.3182 31.665 84.099 37.3358C84.099 37.7409 84.099 38.1459 83.6926 38.551C84.9118 32.8802 84.9118 25.5891 83.2862 25.1841Z" fill="url(#paint22_radial_8002_23292)"/>
</g>
<path opacity="0.2" d="M101.574 69.3369C101.574 69.3369 100.762 74.6026 98.7296 76.2229C97.5104 77.438 101.574 77.033 101.574 69.3369Z" fill="url(#paint23_radial_8002_23292)"/>
<g opacity="0.1" style="mix-blend-mode:soft-light">
<path d="M121.894 66.0952C123.114 66.0952 124.333 66.0952 124.739 66.0952C127.584 66.9053 130.022 68.1205 131.648 70.5509C133.274 72.9812 128.397 72.5761 127.584 72.1711C125.552 71.766 120.675 70.9559 119.456 68.5256C118.643 67.3104 120.269 66.5003 121.894 66.0952Z" fill="url(#paint24_radial_8002_23292)"/>
</g>
<g opacity="0.1" style="mix-blend-mode:soft-light">
<path d="M75.9712 67.3118C78.0032 66.0966 80.0352 65.2865 80.848 64.8815C84.0992 63.2612 87.7568 62.8562 90.6016 63.6663C93.4464 64.4764 91.8208 68.1219 86.944 70.5522C84.5056 71.7674 75.1584 74.1978 71.9072 72.5775C70.2816 70.9573 74.3456 68.5269 75.9712 67.3118Z" fill="url(#paint25_radial_8002_23292)"/>
</g>
<g style="mix-blend-mode:soft-light" opacity="0.6">
<path d="M120.269 166.144C115.798 166.549 117.017 154.397 118.643 143.056C113.766 163.309 106.045 171.005 93.8526 171.005C81.2542 171.005 73.5326 153.182 71.5006 130.094C71.0942 142.246 76.7838 165.334 70.6878 164.524C59.715 163.309 55.651 145.081 55.651 145.081C56.0574 161.283 68.2494 167.764 71.907 168.169C75.5646 168.169 78.003 165.334 78.003 165.334C78.003 165.334 84.5054 172.625 94.2591 174.245C104.013 175.865 107.264 171.41 108.483 169.789C110.109 168.169 112.141 167.764 117.83 168.979C126.771 171.005 129.21 166.954 135.306 160.473C140.995 154.397 141.808 147.106 142.621 138.6C143.027 134.955 143.84 131.714 145.059 128.474C140.995 135.765 139.37 139.41 137.338 149.537C134.493 160.473 124.739 166.144 120.269 166.144Z" fill="url(#paint26_radial_8002_23292)"/>
</g>
<g opacity="0.1" style="mix-blend-mode:soft-light">
<path d="M62.5599 89.1836C59.7151 93.6392 55.6511 96.0695 53.2127 94.4493C50.7742 92.829 51.1807 87.9684 54.0255 83.9178C56.8703 79.4622 60.9343 77.0318 63.3727 78.6521C65.8111 79.8672 65.4047 84.7279 62.5599 89.1836Z" fill="url(#paint27_radial_8002_23292)"/>
</g>
<g opacity="0.1" style="mix-blend-mode:soft-light">
<path d="M112.547 113.081C105.232 135.765 88.1631 135.765 79.6287 132.524C71.0943 129.689 69.0624 114.702 74.3456 98.9043C79.6288 83.1071 91.0079 72.5756 99.136 75.411C107.67 78.6514 121.082 87.1576 112.547 113.081Z" fill="url(#paint28_radial_8002_23292)"/>
</g>
<g opacity="0.1" style="mix-blend-mode:soft-light">
<path d="M79.2223 92.0192C85.7247 83.513 92.6335 86.3484 95.4783 88.7788C98.3231 91.2091 97.1039 97.6901 92.6335 103.361C88.1631 109.032 82.0671 111.867 78.8159 109.437C75.9711 107.006 71.9071 101.336 79.2223 92.0192Z" fill="url(#paint29_radial_8002_23292)"/>
</g>
<defs>
<radialGradient id="paint0_radial_8002_23292" cx="0" cy="0" r="1" gradientUnits="userSpaceOnUse" gradientTransform="translate(97.7599 90.6317) rotate(-0.504294) scale(71.7429 71.5058)">
<stop offset="0.0913391" stop-color="#FE7D4E"/>
<stop offset="0.322157" stop-color="#F33D18"/>
<stop offset="0.7046" stop-color="#DE290F"/>
<stop offset="0.905572" stop-color="#C11B0A"/>
</radialGradient>
<radialGradient id="paint1_radial_8002_23292" cx="0" cy="0" r="1" gradientUnits="userSpaceOnUse" gradientTransform="translate(96.4095 110.129) scale(40.2381 40.1051)">
<stop offset="0.5326" stop-color="#D33819"/>
<stop offset="0.7639" stop-color="#D90F0F"/>
<stop offset="0.8452" stop-color="#BD2711"/>
<stop offset="0.9409" stop-color="#AE2719"/>
</radialGradient>
<radialGradient id="paint2_radial_8002_23292" cx="0" cy="0" r="1" gradientUnits="userSpaceOnUse" gradientTransform="translate(97.9457 48.6026) scale(41.2931 41.1567)">
<stop offset="0.8371" stop-color="#650E08"/>
<stop offset="0.9" stop-color="#E32600"/>
<stop offset="1" stop-color="white"/>
</radialGradient>
<radialGradient id="paint3_radial_8002_23292" cx="0" cy="0" r="1" gradientUnits="userSpaceOnUse" gradientTransform="translate(96.841 55.7419) scale(107.782 107.426)">
<stop offset="0.5326" stop-color="#B03118"/>
<stop offset="0.7639" stop-color="#E32600"/>
<stop offset="0.8452" stop-color="#BF1A02"/>
<stop offset="0.9409" stop-color="#971305"/>
</radialGradient>
<radialGradient id="paint4_radial_8002_23292" cx="0" cy="0" r="1" gradientUnits="userSpaceOnUse" gradientTransform="translate(133.461 140.155) scale(90.7273 90.4275)">
<stop offset="0.4067"/>
<stop offset="0.4346" stop-color="#050100"/>
<stop offset="0.4668" stop-color="#130300"/>
<stop offset="0.5011" stop-color="#2A0600"/>
<stop offset="0.5369" stop-color="#4A0A01"/>
<stop offset="0.5738" stop-color="#741001"/>
<stop offset="0.6112" stop-color="#A61702"/>
<stop offset="0.6279" stop-color="#BF1A02"/>
<stop offset="0.6667" stop-color="#C01D06"/>
<stop offset="0.704" stop-color="#C32811"/>
<stop offset="0.7406" stop-color="#C83925"/>
<stop offset="0.7768" stop-color="#CF5240"/>
<stop offset="0.8128" stop-color="#D87263"/>
<stop offset="0.8486" stop-color="#E2998E"/>
<stop offset="0.8842" stop-color="#EFC7C1"/>
<stop offset="0.9189" stop-color="#FEFBFA"/>
<stop offset="0.9215" stop-color="white"/>
<stop offset="1"/>
</radialGradient>
<radialGradient id="paint5_radial_8002_23292" cx="0" cy="0" r="1" gradientUnits="userSpaceOnUse" gradientTransform="translate(40.2801 76.3701) scale(45.4133 45.2631)">
<stop offset="0.2451" stop-color="white"/>
<stop offset="0.608" stop-color="#E32600"/>
<stop offset="0.693" stop-color="#BF1A02"/>
<stop offset="0.9782"/>
</radialGradient>
<radialGradient id="paint6_radial_8002_23292" cx="0" cy="0" r="1" gradientUnits="userSpaceOnUse" gradientTransform="translate(164.669 79.0555) scale(44.4981 44.3509)">
<stop offset="0.2451" stop-color="white"/>
<stop offset="0.608" stop-color="#E32600"/>
<stop offset="0.693" stop-color="#BF1A02"/>
<stop offset="0.9782"/>
</radialGradient>
<radialGradient id="paint7_radial_8002_23292" cx="0" cy="0" r="1" gradientUnits="userSpaceOnUse" gradientTransform="translate(100.057 64.4873) scale(25.7065 25.6215)">
<stop offset="0.0136414" stop-color="#719F07"/>
<stop offset="0.5217" stop-color="#38770E"/>
<stop offset="0.6494" stop-color="#38720D"/>
<stop offset="0.7927" stop-color="#36650B"/>
<stop offset="0.943" stop-color="#344F07"/>
<stop offset="1" stop-color="#334405"/>
</radialGradient>
<radialGradient id="paint8_radial_8002_23292" cx="0" cy="0" r="1" gradientUnits="userSpaceOnUse" gradientTransform="translate(116.198 72.3835) scale(11.0265 10.9901)">
<stop offset="0.0841454" stop-color="#719F07"/>
<stop offset="0.3847" stop-color="#38770E"/>
<stop offset="0.5379" stop-color="#365F0A"/>
<stop offset="0.6838" stop-color="#334405"/>
<stop offset="0.9781"/>
</radialGradient>
<radialGradient id="paint9_radial_8002_23292" cx="0" cy="0" r="1" gradientUnits="userSpaceOnUse" gradientTransform="translate(79.7774 65.6917) scale(16.2134 16.1598)">
<stop offset="0.0841454" stop-color="#719F07"/>
<stop offset="0.3847" stop-color="#38770E"/>
<stop offset="0.5379" stop-color="#365F0A"/>
<stop offset="0.6838" stop-color="#334405"/>
<stop offset="0.9781"/>
</radialGradient>
<radialGradient id="paint10_radial_8002_23292" cx="0" cy="0" r="1" gradientUnits="userSpaceOnUse" gradientTransform="translate(83.1294 78.2292) scale(4.63987 4.62449)">
<stop offset="0.0841454" stop-color="#719F07"/>
<stop offset="0.3847" stop-color="#38770E"/>
<stop offset="0.5379" stop-color="#365F0A"/>
<stop offset="0.6838" stop-color="#334405"/>
<stop offset="0.9781"/>
</radialGradient>
<radialGradient id="paint11_radial_8002_23292" cx="0" cy="0" r="1" gradientUnits="userSpaceOnUse" gradientTransform="translate(100.056 64.4815) scale(25.7203 25.6354)">
<stop offset="0.0827077" stop-color="white"/>
<stop offset="0.397" stop-color="#38770E"/>
<stop offset="0.6708" stop-color="#334405"/>
<stop offset="0.889" stop-color="#719F07"/>
<stop offset="1" stop-color="white"/>
</radialGradient>
<radialGradient id="paint12_radial_8002_23292" cx="0" cy="0" r="1" gradientUnits="userSpaceOnUse" gradientTransform="translate(100.058 64.4866) scale(25.7102 25.6249)">
<stop offset="0.0827077" stop-color="white"/>
<stop offset="0.397" stop-color="#38770E"/>
<stop offset="0.6708" stop-color="#334405"/>
<stop offset="0.889" stop-color="#719F07"/>
<stop offset="1" stop-color="white"/>
</radialGradient>
<radialGradient id="paint13_radial_8002_23292" cx="0" cy="0" r="1" gradientUnits="userSpaceOnUse" gradientTransform="translate(100.061 64.4823) scale(25.7094 25.6242)">
<stop offset="0.0827077" stop-color="white"/>
<stop offset="0.397" stop-color="#38770E"/>
<stop offset="0.6708" stop-color="#334405"/>
<stop offset="0.889" stop-color="#719F07"/>
<stop offset="1" stop-color="white"/>
</radialGradient>
<radialGradient id="paint14_radial_8002_23292" cx="0" cy="0" r="1" gradientUnits="userSpaceOnUse" gradientTransform="translate(100.053 64.4933) scale(25.7082 25.6231)">
<stop offset="0.0827077" stop-color="white"/>
<stop offset="0.397" stop-color="#38770E"/>
<stop offset="0.6708" stop-color="#334405"/>
<stop offset="0.889" stop-color="#719F07"/>
<stop offset="1" stop-color="white"/>
</radialGradient>
<radialGradient id="paint15_radial_8002_23292" cx="0" cy="0" r="1" gradientUnits="userSpaceOnUse" gradientTransform="translate(100.054 64.4902) scale(25.7009 25.6159)">
<stop offset="0.0827077" stop-color="white"/>
<stop offset="0.397" stop-color="#38770E"/>
<stop offset="0.6708" stop-color="#334405"/>
<stop offset="0.889" stop-color="#719F07"/>
<stop offset="1" stop-color="white"/>
</radialGradient>
<radialGradient id="paint16_radial_8002_23292" cx="0" cy="0" r="1" gradientUnits="userSpaceOnUse" gradientTransform="translate(92.8037 95.477) scale(23.0803 23.0041)">
<stop offset="0.0827077" stop-color="white"/>
<stop offset="0.397" stop-color="#38770E"/>
<stop offset="0.6708" stop-color="#334405"/>
<stop offset="0.889" stop-color="#719F07"/>
<stop offset="1" stop-color="white"/>
</radialGradient>
<radialGradient id="paint17_radial_8002_23292" cx="0" cy="0" r="1" gradientUnits="userSpaceOnUse" gradientTransform="translate(100.392 25.8531) scale(58.4298 58.2367)">
<stop offset="0.0136414" stop-color="#719F07"/>
<stop offset="0.5217" stop-color="#38770E"/>
<stop offset="0.6494" stop-color="#38720D"/>
<stop offset="0.7927" stop-color="#36650B"/>
<stop offset="0.943" stop-color="#344F07"/>
<stop offset="1" stop-color="#334405"/>
</radialGradient>
<linearGradient id="paint18_linear_8002_23292" x1="112.609" y1="35.1836" x2="99.1594" y2="49.9526" gradientUnits="userSpaceOnUse">
<stop offset="0.0133057" stop-color="white"/>
<stop offset="0.2961" stop-color="#719F07"/>
<stop offset="0.6393" stop-color="#38770E"/>
<stop offset="0.7356" stop-color="#38720D"/>
<stop offset="0.8436" stop-color="#36650B"/>
<stop offset="0.957" stop-color="#344F07"/>
<stop offset="1" stop-color="#334405"/>
</linearGradient>
<linearGradient id="paint19_linear_8002_23292" x1="124.058" y1="48.8009" x2="113.492" y2="49.5491" gradientUnits="userSpaceOnUse">
<stop offset="0.0133057" stop-color="white"/>
<stop offset="0.2961" stop-color="#719F07"/>
<stop offset="0.6393" stop-color="#38770E"/>
<stop offset="0.7356" stop-color="#38720D"/>
<stop offset="0.8436" stop-color="#36650B"/>
<stop offset="0.957" stop-color="#344F07"/>
<stop offset="1" stop-color="#334405"/>
</linearGradient>
<radialGradient id="paint20_radial_8002_23292" cx="0" cy="0" r="1" gradientUnits="userSpaceOnUse" gradientTransform="translate(69.7787 41.9405) scale(43.0822 42.9398)">
<stop offset="0.319" stop-color="#719F07"/>
<stop offset="0.5792" stop-color="#38770E"/>
<stop offset="0.6915" stop-color="#38720D"/>
<stop offset="0.8176" stop-color="#36650B"/>
<stop offset="0.9499" stop-color="#344F07"/>
<stop offset="1" stop-color="#334405"/>
</radialGradient>
<radialGradient id="paint21_radial_8002_23292" cx="0" cy="0" r="1" gradientUnits="userSpaceOnUse" gradientTransform="translate(92.9538 19.2346) scale(52.327 52.154)">
<stop offset="0.319" stop-color="#719F07"/>
<stop offset="0.5792" stop-color="#38770E"/>
<stop offset="0.6915" stop-color="#38720D"/>
<stop offset="0.8176" stop-color="#36650B"/>
<stop offset="0.9499" stop-color="#344F07"/>
<stop offset="1" stop-color="#334405"/>
</radialGradient>
<radialGradient id="paint22_radial_8002_23292" cx="0" cy="0" r="1" gradientUnits="userSpaceOnUse" gradientTransform="translate(69.7787 41.9401) scale(43.0825 42.9402)">
<stop offset="0.0841454" stop-color="#719F07"/>
<stop offset="0.3847" stop-color="#38770E"/>
<stop offset="0.5379" stop-color="#365F0A"/>
<stop offset="0.6838" stop-color="#334405"/>
<stop offset="0.9781"/>
</radialGradient>
<radialGradient id="paint23_radial_8002_23292" cx="0" cy="0" r="1" gradientUnits="userSpaceOnUse" gradientTransform="translate(99.9354 73.0233) scale(2.84804 2.83864)">
<stop offset="0.0424448" stop-color="white"/>
<stop offset="0.1855" stop-color="#38770E"/>
<stop offset="0.3876" stop-color="#334405"/>
<stop offset="0.6348" stop-color="#719F07"/>
<stop offset="1" stop-color="white"/>
</radialGradient>
<radialGradient id="paint24_radial_8002_23292" cx="0" cy="0" r="1" gradientUnits="userSpaceOnUse" gradientTransform="translate(129.248 61.3406) scale(26.121 26.0347)">
<stop/>
<stop offset="0.00446318" stop-color="#1C1C1C"/>
<stop offset="0.0141216" stop-color="#646464"/>
<stop offset="0.028127" stop-color="#D5D5D5"/>
<stop offset="0.0331413" stop-color="white"/>
<stop offset="0.0528728" stop-color="#EFF8E3"/>
<stop offset="0.0955616" stop-color="#C7E69C"/>
<stop offset="0.1576" stop-color="#88CA2A"/>
<stop offset="0.1614" stop-color="#84C823"/>
<stop offset="0.1665" stop-color="#80C222"/>
<stop offset="0.2139" stop-color="#5E8F19"/>
<stop offset="0.2621" stop-color="#416311"/>
<stop offset="0.3104" stop-color="#2A3F0B"/>
<stop offset="0.3589" stop-color="#172406"/>
<stop offset="0.4074" stop-color="#0A1003"/>
<stop offset="0.4563" stop-color="#030401"/>
<stop offset="0.5059"/>
</radialGradient>
<radialGradient id="paint25_radial_8002_23292" cx="0" cy="0" r="1" gradientUnits="userSpaceOnUse" gradientTransform="translate(77.6972 59.9163) scale(29.868 29.7692)">
<stop/>
<stop offset="0.00446318" stop-color="#1C1C1C"/>
<stop offset="0.0141216" stop-color="#646464"/>
<stop offset="0.028127" stop-color="#D5D5D5"/>
<stop offset="0.0331413" stop-color="white"/>
<stop offset="0.0528728" stop-color="#EFF8E3"/>
<stop offset="0.0955616" stop-color="#C7E69C"/>
<stop offset="0.1576" stop-color="#88CA2A"/>
<stop offset="0.1614" stop-color="#84C823"/>
<stop offset="0.1665" stop-color="#80C222"/>
<stop offset="0.2139" stop-color="#5E8F19"/>
<stop offset="0.2621" stop-color="#416311"/>
<stop offset="0.3104" stop-color="#2A3F0B"/>
<stop offset="0.3589" stop-color="#172406"/>
<stop offset="0.4074" stop-color="#0A1003"/>
<stop offset="0.4563" stop-color="#030401"/>
<stop offset="0.5059"/>
</radialGradient>
<radialGradient id="paint26_radial_8002_23292" cx="0" cy="0" r="1" gradientUnits="userSpaceOnUse" gradientTransform="translate(106.274 84.3252) scale(99.4523 99.1236)">
<stop offset="0.5326" stop-color="#5F1F13"/>
<stop offset="0.7639" stop-color="#C22506"/>
<stop offset="0.8452" stop-color="#BF1A02"/>
<stop offset="0.9409" stop-color="#971305"/>
</radialGradient>
<radialGradient id="paint27_radial_8002_23292" cx="0" cy="0" r="1" gradientUnits="userSpaceOnUse" gradientTransform="translate(54.9114 81.3109) scale(12.4822 12.4409)">
<stop offset="0.0785061" stop-color="white"/>
<stop offset="0.8133"/>
</radialGradient>
<radialGradient id="paint28_radial_8002_23292" cx="0" cy="0" r="1" gradientUnits="userSpaceOnUse" gradientTransform="translate(73.6181 102.036) scale(32.8079 32.6995)">
<stop offset="0.0584728" stop-color="white"/>
<stop offset="0.229" stop-color="#FDDFDB"/>
<stop offset="0.3995" stop-color="#F7BBB3"/>
<stop offset="0.4575" stop-color="#F3B3AA"/>
<stop offset="0.567" stop-color="#DC9D94"/>
<stop offset="0.7162" stop-color="#77544F"/>
<stop offset="0.8976" stop-color="#271B19"/>
<stop offset="0.9793"/>
</radialGradient>
<radialGradient id="paint29_radial_8002_23292" cx="0" cy="0" r="1" gradientTransform="matrix(-13.499 -4.76406 4.77986 -13.4544 90.0743 101.037)" gradientUnits="userSpaceOnUse">
<stop offset="0.0584728" stop-color="white"/>
<stop offset="0.229" stop-color="#F2CEC9"/>
<stop offset="0.3995" stop-color="#E5A197"/>
<stop offset="0.4575" stop-color="#D7978E"/>
<stop offset="0.567" stop-color="#B37E76"/>
<stop offset="0.7162" stop-color="#77544F"/>
<stop offset="0.8976" stop-color="#271B19"/>
<stop offset="0.9793"/>
</radialGradient>
</defs>
</svg>
