<svg width="200" height="200" viewBox="0 0 200 200" fill="none" xmlns="http://www.w3.org/2000/svg">
<path fill-rule="evenodd" clip-rule="evenodd" d="M82.2848 129.924C83.6177 130.046 85.0225 130.127 86.5019 130.17C86.7629 130.19 87.0238 130.19 87.2847 130.19H87.285C91.7225 130.19 95.899 129.049 99.714 126.806C103.388 124.664 106.782 121.5 109.774 117.396C110.312 116.66 110.837 115.893 111.35 115.098C112.707 114.065 114.011 112.854 115.255 111.468C119.894 106.322 123.789 98.7732 126.48 89.6226C129.772 78.4296 131.058 65.7549 130.013 54.8423C128.869 42.8684 125.054 34.759 119.271 31.9958C104.111 24.7274 95.3769 31.3951 88.3492 36.7613L88.2446 36.8411C85.8935 38.6341 83.6586 40.3386 81.4821 41.2265C81.1061 41.382 80.7614 41.5553 80.4487 41.7463C79.7931 41.6938 79.1268 41.6676 78.4502 41.6676C78.0156 41.6676 77.5861 41.6784 77.1617 41.6999C76.919 41.5661 76.6591 41.442 76.3821 41.3274C74.1674 40.4204 72.1086 38.8337 69.9371 37.1602L69.8363 37.0825L69.8283 37.0764C63.6051 32.2718 55.8338 26.2721 38.7738 31.2758C33.1316 32.9177 28.9752 38.4641 26.7263 47.2944C24.7586 55.1034 24.4574 64.9148 25.9031 74.9264C27.6098 86.68 31.5453 97.4725 36.9868 105.302C39.2891 108.621 41.8393 111.383 44.5971 113.565C45.4062 114.917 46.2503 116.197 47.1267 117.396C50.1386 121.5 53.5119 124.664 57.1864 126.806C61.0416 129.049 65.2381 130.19 69.6555 130.19H69.6558C69.9167 130.19 70.1777 130.19 70.3985 130.17C71.8859 130.127 73.2978 130.045 74.6371 129.922C75.8809 130.206 77.154 130.35 78.4502 130.35C79.7495 130.35 81.03 130.207 82.2848 129.924ZM61.1527 119.577C63.0276 122.421 65.1448 124.739 67.447 126.485C61.7554 125.901 56.6266 123.022 52.1467 117.892C55.0106 118.976 58.0233 119.544 61.1527 119.577ZM98.2592 115.958C102.576 107.887 104.955 97.3027 104.955 86.019C104.955 73.3243 102.907 62.6519 99.0112 55.1032C96.9413 51.1075 94.3506 47.9535 91.29 45.7091C91.6781 45.4718 92.0314 45.2657 92.345 45.0917C95.0757 43.59 101.682 42.0482 107.786 44.3509C112.705 46.213 116.239 50.0975 118.307 55.9243C120.355 61.691 120.536 72.5035 118.789 83.4762C116.965 94.889 113.421 105.079 108.696 112.603C105.461 114.933 101.969 116.055 98.2592 115.958ZM96.1926 119.403C97.0184 119.5 97.8442 119.557 98.6699 119.557C100.457 119.557 102.211 119.321 103.919 118.851C99.692 123.32 94.9134 125.871 89.6518 126.45C92.0346 124.672 94.237 122.308 96.1926 119.403ZM88.0552 47.8785C91.144 49.7918 93.7338 52.7531 95.7986 56.7451C99.4128 63.7732 101.34 73.885 101.34 85.999C101.34 96.3069 99.2926 105.608 95.8665 112.712C96.4471 108.214 96.1664 103.078 95.8643 97.5529L95.8588 97.4524C95.6985 94.5441 95.5383 91.5592 95.4801 88.4571C96.3155 86.0606 96.868 83.5145 96.9632 80.8124C97.3841 69.1002 90.8829 59.8818 86.1265 53.1373L86.1003 53.1003C85.5429 52.3128 84.967 51.4976 84.4249 50.6998C85.7083 49.6321 86.9347 48.6887 88.0552 47.8785ZM87.8252 43.6531C88.8978 42.9381 89.8268 42.3732 90.5579 41.9681C93.9915 40.0659 101.742 38.2438 109.031 41.007C114.894 43.2296 119.271 47.9751 121.661 54.7429C123.929 61.1103 124.17 72.3433 122.303 84.0569C121.332 90.1477 119.877 95.9261 118.018 101.181C119.963 97.5416 121.654 93.3211 123.026 88.6415C126.198 77.869 127.443 65.6949 126.419 55.2227C125.415 44.7306 122.223 37.4621 117.705 35.2796C111.802 32.4563 106.581 31.7555 101.722 33.1571C97.4049 34.3986 93.9111 37.0617 90.5378 39.6447C89.0008 40.821 87.5132 41.955 86.0038 42.9087C86.6239 43.1278 87.2311 43.3759 87.8252 43.6531ZM81.8086 45.5437C82.6781 45.6898 83.5207 45.8945 84.3362 46.1578C83.744 46.612 83.1331 47.0955 82.5085 47.6071C82.0618 46.755 81.7913 46.0352 81.8086 45.5437ZM71.416 42.7449C70.1484 41.9096 68.9269 40.9656 67.6684 39.9929L67.6075 39.9458C63.17 36.5018 58.612 32.9778 50.6406 32.9778C47.5886 32.9778 44.0346 33.4984 39.7778 34.7398C35.5009 36.0013 32.1076 40.7668 30.2201 48.1954C28.3528 55.5639 28.0917 64.8747 29.4571 74.4258C31.0133 85.1544 34.4811 95.0031 39.2802 102.288C37.2298 96.746 35.6361 90.5851 34.5973 84.0569C32.73 72.3633 32.9709 61.1303 35.2399 54.7429C37.6494 47.9751 42.0065 43.2296 47.8697 41.007C55.1584 38.2438 62.9089 40.0659 66.3425 41.9681C67.0801 42.3767 68.019 42.948 69.1035 43.672C69.8503 43.316 70.6212 43.0068 71.416 42.7449ZM72.5769 46.1675C73.6643 45.8099 74.8065 45.5586 76.0014 45.415C76.1605 45.9696 75.7621 46.9689 75.0797 48.1774C74.2194 47.4553 73.3809 46.7846 72.5769 46.1675ZM68.894 47.9168C70.1866 48.8493 71.6204 49.9607 73.1205 51.2373C72.6683 51.894 72.1998 52.5569 71.7438 53.2012L71.7407 53.2055C66.9822 59.953 60.4594 69.2022 60.8609 80.9333C60.9126 82.4095 61.1203 83.8566 61.4517 85.2722C61.446 85.5412 61.4432 85.8102 61.4432 86.0792C61.4432 90.0238 61.2424 93.8082 61.0416 97.4524L61.0361 97.5529C60.7644 102.523 60.5099 107.178 60.8841 111.338C57.93 104.272 56.323 95.4478 56.323 86.019C56.323 73.7448 58.11 63.6331 61.5034 56.7251C63.3306 53.0408 65.6196 50.1975 68.3303 48.2953C68.5159 48.165 68.7038 48.0388 68.894 47.9168ZM65.6712 45.7639C57.2225 52.1643 52.7087 65.921 52.7087 86.019C52.7087 97.3405 54.925 107.858 58.9903 115.845C55.5929 115.486 52.3598 114.374 49.3756 112.53C48.7037 112.117 48.0416 111.666 47.3904 111.178C43.1021 103.817 39.8812 94.194 38.1714 83.4962C36.4246 72.5035 36.6053 61.691 38.6533 55.9443C40.7215 50.1176 44.2755 46.2331 49.1748 44.3709C51.4237 43.5099 53.7328 43.1895 55.9013 43.1895C59.616 43.1895 62.8889 44.1506 64.6157 45.1518C64.9294 45.3238 65.2829 45.5281 65.6712 45.7639ZM92.2693 97.0204C92.2401 96.484 92.2108 95.9452 92.1821 95.4037C90.785 97.7753 89.2557 99.9633 87.8472 101.977C85.1366 105.841 82.5865 109.506 83.4499 111.428C84.2383 113.172 87.8507 114.334 91.811 115.097C93.0063 110.471 92.6828 104.552 92.3048 97.6727L92.2693 97.0204ZM83.1487 55.1627C84.7556 57.4333 86.5719 60.0056 88.2237 62.8566C86.7271 60.523 85.0067 58.233 83.0684 56.0044C82.389 55.2212 81.6996 54.4647 81.0062 53.7361C81.2376 53.5167 81.4686 53.3007 81.6989 53.0883C82.1235 53.7049 82.5744 54.3461 83.0446 55.0146L83.1487 55.1627ZM80.3577 58.3871C79.7302 57.6624 79.0941 56.962 78.4545 56.287C77.8323 56.9436 77.2135 57.6239 76.6029 58.3271C69.2332 66.8144 65.3666 75.7849 65.0931 84.9879C66.6469 90.9009 70.7069 96.4412 74.1054 101.079L74.1054 101.079L74.1332 101.117L74.1407 101.127L74.1408 101.127C76.6098 104.494 78.7641 107.433 79.6749 110.047C79.8986 107.055 82.1792 103.784 84.8956 99.8945C87.3488 96.3863 90.2001 92.3005 91.8946 87.7282C91.8871 87.1897 91.8831 86.6468 91.8831 86.0993C91.8831 76.5282 88.0079 67.1974 80.3577 58.3871ZM79.7208 50.0077C79.2994 50.3891 78.8754 50.7817 78.4502 51.1851C78.2452 50.9907 78.0406 50.7987 77.8363 50.6093C78.2789 49.8726 78.6549 49.1725 78.9476 48.5029C79.1644 48.9879 79.4243 49.4887 79.7208 50.0077ZM75.8982 53.7318L75.8236 53.6612C75.6895 53.8537 75.5529 54.0485 75.4142 54.2456C75.5753 54.0729 75.7367 53.9016 75.8982 53.7318ZM68.1496 120.84C70.3332 123.244 73.7501 124.873 78.5018 125.769C83.2311 124.87 86.634 123.257 88.811 120.9C89.4813 120.171 90.0419 119.372 90.5088 118.504C84.5233 117.286 81.3364 115.52 80.1569 112.87C80.1475 112.848 80.1381 112.827 80.1289 112.806C80.0913 113.498 79.9207 114.166 79.5947 114.813C78.2222 117.534 74.3766 118.982 67.0408 119.427C67.3719 119.924 67.7403 120.395 68.1496 120.84ZM65.3943 115.9C73.8433 115.557 75.924 114.107 76.3821 113.211C77.2582 111.503 74.2445 107.374 71.3158 103.361L71.2418 103.259C69.1378 100.393 66.7966 97.2027 64.8697 93.7394C64.8057 95.0467 64.732 96.3356 64.6558 97.6126C64.254 104.94 63.9137 111.162 65.3943 115.9Z" fill="url(#paint0_linear_8002_15895)"/>
<path d="M96.3608 117.615C128.748 121.62 137.844 42.9087 118.508 33.638C99.1719 24.3672 91.2607 39.1844 82.1649 42.9087C73.069 46.633 95.899 59.9284 95.1761 80.7526C94.4332 101.557 63.9732 113.631 96.3608 117.615Z" fill="#649725"/>
<path d="M61.4632 117.796C24.5778 117.816 17.0482 39.5452 39.2758 33.0176C61.5034 26.49 66.5834 39.2849 75.6792 43.0092C84.7751 46.7335 61.925 60.0489 62.6479 80.8731C63.3707 101.697 98.3486 117.756 61.4632 117.796Z" fill="#649725"/>
<path d="M84.7751 26.2099L85.3574 26.3701C86.9236 26.8106 87.8472 28.4525 87.3854 30.0343C87.3452 30.1745 87.285 30.3146 87.2248 30.4548C86.6826 31.6562 86.1204 33.238 85.5582 35.2003C84.5342 38.7644 83.8113 42.4687 83.3696 46.3532C83.1487 48.3555 81.3215 49.7972 79.3136 49.577C79.1128 49.5569 78.912 49.5169 78.7112 49.4568C76.2214 48.756 74.6351 46.3332 74.9765 43.7702C75.619 38.8445 76.2816 35.2403 76.9242 32.9577C77.3458 31.496 77.888 30.1144 78.5907 28.8129C79.7754 26.6103 82.3455 25.5091 84.7751 26.2099Z" fill="url(#paint1_linear_8002_15895)"/>
<path d="M86.5622 128.368C117.163 129.289 126.058 72.3834 119.994 55.3237C113.93 38.2639 97.164 40.3863 91.4615 43.53C85.759 46.6736 63.2704 62.5721 63.2704 86.0593C63.2704 109.547 55.9817 127.447 86.5622 128.368Z" fill="#74B622"/>
<path d="M70.3985 128.368C39.7979 129.289 30.9028 72.3834 36.9667 55.3237C43.0306 38.2639 59.7967 40.3863 65.4992 43.53C71.2017 46.6736 93.6903 62.5721 93.6903 86.0593C93.6903 109.547 100.979 127.447 70.3985 128.368Z" fill="#74B622"/>
<path d="M78.4502 128.568C92.6261 128.568 103.148 109.526 103.148 86.019C103.148 62.5118 96.0395 43.4697 78.4502 43.4697C60.8609 43.4697 54.5159 62.5118 54.5159 86.019C54.5159 109.526 64.2743 128.568 78.4502 128.568Z" fill="#94CA32"/>
<path d="M102.51 161.224C101.611 160.619 100.846 159.888 100.194 159.062C97.9027 158.439 95.3305 157.264 92.3833 155.427C78.813 146.951 83.1714 122.711 92.3634 106.722C98.4641 93.9433 109.696 83.7465 120.121 84.8414C137.164 86.6437 134.371 96.4308 138.113 102.571C138.286 102.843 138.421 103.137 138.515 103.445C139.301 103.797 140.055 104.215 140.769 104.695C141.602 105.255 142.361 105.887 143.009 106.54C143.355 106.459 143.745 106.455 144.195 106.541C151.295 107.718 153.114 88.6292 168.571 103.446C175.28 109.891 169.042 130.572 160.106 141.492C149.192 156.661 126.177 177.795 112.342 167.813C109.985 166.107 108.162 164.47 106.767 162.88C105.214 162.632 103.791 162.086 102.51 161.224Z" fill="url(#paint2_linear_8002_15895)"/>
<path d="M120.534 174C116.686 173.996 113.234 172.905 110.221 170.734C108.086 169.201 106.345 167.692 104.894 166.185C103.323 165.802 101.833 165.143 100.494 164.24C99.6452 163.669 98.8468 162.987 98.138 162.244C95.7586 161.465 93.2483 160.235 90.4676 158.51C86.7102 156.152 83.9218 152.755 82.197 148.358C80.5654 144.217 79.9072 139.282 80.2381 133.708C80.7951 124.47 84.0427 114.047 89.1647 105.078C92.6006 97.9214 97.4742 91.6111 102.905 87.3419C108.71 82.7694 114.798 80.6808 120.497 81.2781C126.892 81.9569 131.516 83.7866 134.634 86.8746C135.941 88.1645 136.992 89.6919 137.839 91.518C138.467 92.882 138.883 94.128 139.425 95.9415L139.599 96.5422C139.66 96.7757 139.72 96.9371 139.769 97.1151C140.311 98.9286 140.69 99.9079 141.197 100.733C141.203 100.76 141.236 100.783 141.242 100.811C141.758 101.085 142.269 101.405 142.785 101.752C143.352 102.133 143.897 102.548 144.415 102.994C144.532 103 144.654 103.034 144.771 103.04C145.116 103.103 146.09 102.236 147.681 100.457C148.337 99.7381 148.477 99.5667 148.802 99.2297C150.129 97.8041 151.165 96.8822 152.305 96.1275C154.009 95.0038 155.756 94.3913 157.639 94.257C161.722 93.9846 166.138 96.1578 171.069 100.899C175.158 104.809 176.092 112.2 173.707 121.706C171.709 129.709 167.699 137.929 162.956 143.723C156.352 152.879 147.511 161.617 139.311 167.115C134.141 170.569 129.245 172.758 124.758 173.628C123.314 173.865 121.893 173.996 120.534 174H120.534ZM118.59 84.7776C109.245 84.7716 98.6723 93.5279 92.397 106.673L92.3351 106.8C87.5338 115.188 84.3601 125.322 83.8513 133.917C83.4172 141.039 84.5629 150.553 92.3888 155.455C95.0749 157.141 97.469 158.292 99.6819 158.96L100.188 159.107L100.525 159.503C101.101 160.178 101.767 160.772 102.504 161.268C103.603 162.007 104.847 162.53 106.188 162.804L106.761 162.924L107.148 163.354C108.488 164.81 110.217 166.336 112.32 167.847C115.571 170.202 119.52 170.951 124.081 170.081C128.083 169.32 132.538 167.317 137.295 164.116C145.176 158.838 153.687 150.41 160.05 141.575L160.106 141.492C164.462 136.162 168.314 128.247 170.181 120.832C172.241 112.629 171.662 106.467 168.549 103.479C164.371 99.4858 160.884 97.6233 157.859 97.8347C156.617 97.9168 155.467 98.3273 154.305 99.115C153.422 99.7045 152.56 100.477 151.434 101.676C151.148 101.991 151.002 102.135 150.375 102.848C148.128 105.346 146.477 106.964 144.19 106.585C143.995 106.551 143.817 106.528 143.644 106.533L142.976 106.518L142.483 106.065C141.956 105.59 141.391 105.138 140.791 104.735C140.263 104.378 139.712 104.056 139.143 103.77L138.598 103.501L138.334 102.961C138.284 102.855 138.218 102.738 138.152 102.621C137.473 101.512 136.978 100.31 136.344 98.1685C136.295 97.9905 136.234 97.8291 136.158 97.5844L135.983 96.9837C135.425 95.0869 135.074 94.102 134.595 93.0554C133.94 91.6245 133.117 90.4427 132.114 89.4544C129.605 86.9695 125.698 85.4768 120.143 84.8803C119.62 84.7942 119.097 84.7802 118.59 84.7776Z" fill="url(#paint3_linear_8002_15895)"/>
<path d="M133.106 90.9042C133.849 90.0231 134.371 89.3223 134.692 88.7817C135.535 87.32 136.559 84.0562 137.764 78.9503C138.125 77.4285 139.129 76.1471 140.495 75.4062L144.651 73.2237C145.615 72.7231 146.82 73.0835 147.322 74.0446C147.643 74.6653 147.623 75.4062 147.261 75.9869C141.92 84.7771 138.929 89.7228 138.306 90.804C138.065 91.2245 137.784 91.9454 137.463 92.9866H137.804C145.053 93.4271 155.614 85.2176 164.469 98.8333C168.264 104.66 165.453 120.819 157.201 133.013C147.241 149.812 124.552 168.294 109.914 159.524C107.424 158.022 105.457 156.54 103.951 155.059C102.385 154.978 100.899 154.578 99.5534 153.837C98.6096 153.316 97.7864 152.656 97.0636 151.875C94.7143 151.494 92.0438 150.553 88.9315 148.971C74.6552 141.723 77.386 116.314 85.5381 98.8534C90.7989 85.0374 101.421 73.3038 112.023 73.3038C129.331 73.3038 127.182 83.6758 131.379 89.5826C131.58 89.883 131.74 90.1633 131.841 90.4436C132.282 90.5638 132.704 90.7239 133.106 90.9042Z" fill="url(#paint4_radial_8002_15895)"/>
<path d="M121.058 105.461C118.95 97.8125 114.633 94.4285 108.107 95.3096C98.3286 96.6111 88.4697 126.065 92.2044 135.036C94.6942 141.023 97.8065 144.847 101.581 146.509L99.8345 153.377L87.0642 146.509L78.4904 126.966L92.2044 89.4227L113.83 74.085L127.243 81.5937L135.555 91.5052L121.058 105.461Z" fill="#4E7D13"/>
<path d="M135.455 110.588C141.358 105.362 146.298 105.362 150.293 110.588C156.277 118.417 135.455 145.388 122.805 148.852C114.372 151.155 109.171 151.776 107.143 150.654L112.565 160.346L130.355 163.589L145.013 150.654L167.22 119.598L162.803 93.5081L148.004 89.3633L135.455 93.5081V110.588Z" fill="#4E7D13"/>
<path d="M118.367 165.392C114.613 165.392 111.139 164.45 108.047 162.608C105.798 161.267 103.931 159.925 102.364 158.504C100.738 158.263 99.212 157.743 97.8064 156.982C96.9029 156.481 96.0596 155.881 95.2966 155.18C92.8469 154.639 90.2165 153.638 87.3051 152.176C83.3294 150.154 80.2774 146.93 78.2092 142.605C76.2816 138.54 75.2777 133.535 75.2174 127.768C75.1371 118.237 77.6871 107.184 82.205 97.4328C85.1566 89.7238 89.6142 82.7558 94.7544 77.79C100.296 72.5039 106.26 69.7006 112.043 69.7006C118.347 69.7006 123.046 70.9821 126.399 73.6452C129.25 75.9078 130.656 78.5909 132.001 82.1551C132.082 82.3553 132.142 82.5355 132.242 82.7758C132.322 82.976 132.403 83.1763 132.443 83.3765H132.463C132.543 83.5967 132.624 83.817 132.704 83.9972C133.106 82.6557 133.628 80.7735 134.25 78.1304C134.852 75.6075 136.519 73.445 138.808 72.2436L142.964 70.0611C145.695 68.6194 149.068 69.6606 150.514 72.3837C151.438 74.1057 151.378 76.2082 150.354 77.8901C147.583 82.4354 145.434 85.9795 143.928 88.4624C146.117 87.9618 147.643 87.6615 149.37 87.4812C151.739 87.241 153.847 87.3611 155.855 87.8216C160.453 88.9229 164.268 91.8864 167.521 96.8922C169.931 100.596 170.413 106.744 168.927 114.232C167.501 121.381 164.349 128.929 160.273 134.956C154.731 144.267 146.137 153.217 137.282 158.904C131.941 162.348 126.781 164.43 121.942 165.131C120.717 165.291 119.532 165.392 118.367 165.392ZM112.043 73.2848C102.204 73.2848 91.3209 83.7569 85.5783 98.7743L85.5381 98.8945C81.2813 108.045 78.7714 118.838 78.8517 127.728C78.9722 141.083 84.4137 146.65 88.9515 148.952C91.7827 150.394 94.2524 151.295 96.5214 151.756L97.0635 151.856L97.445 152.236C98.0675 152.857 98.7903 153.398 99.5533 153.818C100.718 154.459 101.983 154.859 103.348 155L103.951 155.06L104.392 155.48C105.838 156.842 107.685 158.203 109.894 159.525C113.207 161.507 117.062 162.188 121.379 161.567C125.696 160.946 130.375 159.024 135.294 155.86C143.587 150.534 151.96 141.784 157.16 133.054L157.221 132.974C161.036 127.327 164.007 120.219 165.353 113.511C166.658 107.044 166.316 101.698 164.469 98.8344C161.738 94.6496 158.646 92.1867 154.992 91.3057C153.406 90.9252 151.679 90.8451 149.731 91.0454C148.326 91.1855 147.101 91.4058 144.651 91.9865C142.864 92.407 141.539 92.6873 140.535 92.8475L136.74 93.4482L138.708 90.1443C139.812 88.3022 142.683 83.5367 147.281 76.0079C147.643 75.4073 147.663 74.6664 147.342 74.0657C146.84 73.1046 145.635 72.7442 144.671 73.2447L140.515 75.4273C139.129 76.1481 138.125 77.4496 137.784 78.9714C136.579 84.0373 135.555 87.3411 134.712 88.8028C134.591 89.003 134.451 89.2233 134.29 89.4635L132.804 91.566L131.339 89.4435C130.616 88.4023 130.114 87.301 129.471 85.6191L129.11 84.638L128.889 84.0373C128.809 83.817 128.728 83.6168 128.668 83.4366C127.323 79.8524 126.138 78.0303 124.19 76.4685C121.46 74.326 117.504 73.2848 112.043 73.2848Z" fill="url(#paint5_linear_8002_15895)"/>
<path d="M118.388 161.767C115.255 161.767 112.424 161.006 109.914 159.504C107.444 158.023 105.497 156.561 103.951 155.039C102.364 154.959 100.879 154.559 99.5534 153.818C98.6297 153.297 97.7864 152.636 97.0636 151.855C94.6541 151.455 91.9835 150.514 88.9315 148.952C84.3936 146.649 78.9522 141.083 78.8317 127.727C78.7514 118.817 81.2613 108.005 85.5381 98.8339C91.2607 83.7965 102.144 73.2843 112.023 73.2843C117.484 73.2843 121.44 74.3255 124.13 76.448C126.339 78.19 127.483 80.4126 128.608 83.4161C128.668 83.5963 128.748 83.7965 128.829 84.0168L129.05 84.6175C130.034 87.3206 130.535 88.3818 131.379 89.5632C131.58 89.8635 131.74 90.1439 131.841 90.4242C132.262 90.5643 132.684 90.7245 133.086 90.9047C133.487 90.4242 133.828 89.9837 134.11 89.6233L137.884 91.6656C137.744 92.026 137.603 92.4465 137.443 92.9872H137.784C138.708 93.0472 139.752 92.9671 141.057 92.7469C141.961 92.5867 142.302 92.5266 144.631 91.986C149.048 90.9648 151.88 90.5844 154.972 91.3252C158.626 92.2062 161.718 94.6691 164.449 98.8539C166.317 101.717 166.638 107.063 165.333 113.551C163.967 120.359 161.076 127.267 157.18 133.034C152 141.784 143.607 150.534 135.294 155.88C130.535 158.944 125.998 160.826 121.781 161.507C120.636 161.687 119.492 161.767 118.388 161.767ZM112.043 77.6093C108.308 77.6093 104.011 79.8119 99.975 83.8365C95.7584 88.0214 92.0839 93.8882 89.6142 100.376L89.4937 100.676C85.4779 109.286 83.1086 119.398 83.1889 127.707C83.2893 138.9 87.4457 143.366 90.9193 145.128C93.5296 146.449 95.8387 147.29 97.7864 147.61L99.2723 147.851L100.276 148.972C100.678 149.413 101.12 149.773 101.642 150.053C102.385 150.474 103.208 150.694 104.152 150.734L105.818 150.814L107.003 151.996C108.268 153.257 109.995 154.538 112.123 155.82C117.203 158.864 124.592 157.602 132.945 152.236C140.736 147.23 148.587 139.021 153.446 130.831L153.586 130.611C157.12 125.385 159.851 118.857 161.096 112.71C162.261 106.863 161.799 102.718 160.815 101.197C158.686 97.9329 156.518 96.1308 153.968 95.5301C151.92 95.0495 149.972 95.1897 145.615 96.2109C143.286 96.7515 142.844 96.8516 141.8 97.0318C140.153 97.3122 138.808 97.4123 137.543 97.3322L131.519 97.4924L132.202 95.2698L131.339 94.8894C131.058 94.7692 130.776 94.6491 130.495 94.569L128.447 93.8882L127.805 92.026C126.64 90.3641 125.957 88.8023 124.994 86.1392C124.974 86.0791 124.933 85.9991 124.913 85.939L124.773 85.5585C124.692 85.3383 124.632 85.1581 124.552 84.9779C123.508 82.1746 122.725 80.8931 121.44 79.892C119.552 78.3502 116.48 77.6093 112.043 77.6093ZM139.23 89.2428L135.354 87.3406C136.057 85.5585 136.84 82.8154 137.744 78.9709C138.105 77.4491 139.109 76.1677 140.475 75.4268L150.956 69.8804L146.88 76.5681C143.065 82.8955 140.555 87.0403 139.23 89.2428Z" fill="#B1E158"/>
<path d="M117.544 112.67L98.2683 146.129L109.573 151.235L130.435 111.028L117.544 112.67Z" fill="#456F10"/>
<path d="M125.696 126.866C125.054 126.866 124.532 126.405 124.532 125.224C124.532 124.043 125.054 122.261 125.696 122.261C126.339 122.261 126.861 124.023 126.861 125.224C126.861 126.425 126.339 126.866 125.696 126.866ZM132.323 124.023C131.78 124.383 131.098 124.283 130.435 123.282C129.772 122.281 129.25 120.519 129.793 120.158C130.335 119.798 131.74 120.999 132.403 122C133.045 123.001 132.865 123.682 132.323 124.023ZM137.081 121.72C136.499 121.98 135.816 121.78 135.334 120.699C134.853 119.618 134.612 117.775 135.194 117.515C135.776 117.255 136.981 118.656 137.483 119.738C137.965 120.819 137.684 121.44 137.081 121.72ZM142.222 116.534C141.86 117.055 141.177 117.235 140.194 116.554C139.21 115.873 138.065 114.432 138.427 113.891C138.788 113.37 140.555 113.951 141.539 114.632C142.523 115.313 142.583 116.013 142.222 116.534ZM144.611 110.968C144.43 111.588 143.848 111.969 142.703 111.648C141.559 111.328 139.993 110.327 140.173 109.706C140.354 109.085 142.201 109.065 143.346 109.406C144.491 109.726 144.792 110.347 144.611 110.968ZM145.755 106.062C145.635 106.703 145.113 107.143 143.928 106.923C142.744 106.723 141.097 105.902 141.198 105.261C141.318 104.62 143.145 104.42 144.33 104.62C145.515 104.84 145.876 105.421 145.755 106.062ZM144.752 100.155C145.033 100.736 144.832 101.396 143.748 101.917C142.663 102.418 140.836 102.698 140.555 102.117C140.274 101.537 141.679 100.315 142.744 99.8146C143.848 99.274 144.47 99.5543 144.752 100.155ZM109.954 119.197C110.276 119.758 110.938 119.978 111.962 119.397C113.006 118.797 114.271 117.455 113.95 116.894C113.629 116.334 111.822 116.774 110.798 117.355C109.754 117.956 109.633 118.636 109.954 119.197ZM109.111 112.049C109.071 112.69 109.493 113.23 110.697 113.31C111.882 113.37 113.689 112.95 113.729 112.289C113.769 111.648 112.023 111.028 110.818 110.968C109.613 110.907 109.131 111.408 109.111 112.049ZM108.73 106.783C108.79 107.423 109.312 107.904 110.497 107.764C111.681 107.644 113.388 106.943 113.328 106.282C113.267 105.641 111.44 105.301 110.256 105.421C109.051 105.561 108.669 106.142 108.73 106.783ZM110.657 99.7545C110.376 100.335 110.577 100.996 111.661 101.517C112.745 102.017 114.573 102.297 114.854 101.717C115.135 101.136 113.729 99.9147 112.665 99.4141C111.561 98.8935 110.938 99.1738 110.657 99.7545ZM114.291 94.9089C113.85 95.3694 113.81 96.0702 114.653 96.8912C115.516 97.7121 117.163 98.5732 117.605 98.1126C118.046 97.6521 117.143 96.0502 116.279 95.2093C115.416 94.3683 114.753 94.4484 114.291 94.9089ZM117.986 91.4649C117.484 91.8854 117.384 92.5662 118.147 93.4672C118.91 94.3683 120.456 95.4095 120.958 94.989C121.46 94.5685 120.717 92.8866 119.954 91.9655C119.171 91.0644 118.488 91.0444 117.986 91.4649ZM123.628 89.3825C122.986 89.4426 122.504 89.9431 122.604 91.1245C122.705 92.3059 123.387 94.0279 124.03 93.9678C124.672 93.9077 125.034 92.1057 124.933 90.9043C124.833 89.7029 124.271 89.3224 123.628 89.3825Z" fill="#C1F760"/>
<path d="M115.416 122.08C112.645 117.435 111.782 104.72 115.054 99.0534C118.809 92.5458 128.708 91.5247 135.013 95.1489C141.318 98.7731 143.366 106.983 139.611 113.49C136.258 119.297 123.729 124.483 118.388 124.002L106.842 149.011C106.099 150.633 104.252 151.434 102.545 150.873L102.264 150.773C100.818 150.293 100.035 148.751 100.497 147.309C100.557 147.109 100.638 146.929 100.738 146.769L115.416 122.08Z" fill="#BCE375"/>
<path d="M68.752 87.8016C70.7599 88.162 71.9647 79.7122 73.1895 72.8642C74.4143 66.0163 75.1572 63.3332 73.1493 62.9728C71.1414 62.6124 67.1256 64.7148 65.9008 71.5828C64.6759 78.4507 66.7441 87.4411 68.752 87.8016Z" fill="white"/>
<path d="M66.7441 94.4485C66.7441 94.8999 66.9345 95.3328 67.2734 95.652C67.6123 95.9712 68.0719 96.1505 68.5512 96.1505C69.0305 96.1505 69.4901 95.9712 69.829 95.652C70.1679 95.3328 70.3583 94.8999 70.3583 94.4485C70.3583 93.9972 70.1679 93.5643 69.829 93.2451C69.4901 92.9259 69.0305 92.7466 68.5512 92.7466C68.0719 92.7466 67.6123 92.9259 67.2734 93.2451C66.9345 93.5643 66.7441 93.9972 66.7441 94.4485Z" fill="white"/>
<defs>
<linearGradient id="paint0_linear_8002_15895" x1="36.1274" y1="33.1534" x2="92.4448" y2="122.999" gradientUnits="userSpaceOnUse">
<stop stop-color="#6EA727"/>
<stop offset="1" stop-color="#639F18"/>
</linearGradient>
<linearGradient id="paint1_linear_8002_15895" x1="81.2175" y1="26" x2="81.2175" y2="49.5992" gradientUnits="userSpaceOnUse">
<stop stop-color="#649725"/>
<stop offset="1" stop-color="#3A600B"/>
</linearGradient>
<linearGradient id="paint2_linear_8002_15895" x1="127.577" y1="84.7607" x2="127.577" y2="170.395" gradientUnits="userSpaceOnUse">
<stop stop-color="#63A019"/>
<stop offset="1" stop-color="#568F10"/>
</linearGradient>
<linearGradient id="paint3_linear_8002_15895" x1="90.1711" y1="85.158" x2="141.987" y2="166.565" gradientUnits="userSpaceOnUse">
<stop stop-color="#69A222"/>
<stop offset="1" stop-color="#578F12"/>
</linearGradient>
<radialGradient id="paint4_radial_8002_15895" cx="0" cy="0" r="1" gradientUnits="userSpaceOnUse" gradientTransform="translate(122.478 117.389) rotate(90) scale(44.3906 43.6553)">
<stop stop-color="#4F830E"/>
<stop offset="1" stop-color="#2D4A07"/>
</radialGradient>
<linearGradient id="paint5_linear_8002_15895" x1="85.201" y1="73.5273" x2="139.585" y2="155.904" gradientUnits="userSpaceOnUse">
<stop stop-color="#6EA727"/>
<stop offset="1" stop-color="#639F18"/>
</linearGradient>
</defs>
</svg>
