<svg width="200" height="200" viewBox="0 0 200 200" fill="none" xmlns="http://www.w3.org/2000/svg">
<path d="M102.494 144.035L96.7376 137.792C95.7218 127.498 101.817 105.224 117.054 91.2182C135.508 74.5124 151.761 74.8499 161.072 85.1433C170.553 95.4368 169.368 111.636 151.084 128.342C136.016 142.179 112.313 145.554 102.494 144.035Z" fill="#4A7006"/>
<path opacity="0.1" d="M102.494 144.035L96.7376 137.792C95.7218 127.498 101.817 105.224 117.054 91.2182C135.508 74.5124 151.761 74.8499 161.072 85.1433C170.553 95.4368 169.368 111.636 151.084 128.342C136.016 142.179 112.313 145.554 102.494 144.035Z" fill="#B4CC00"/>
<path opacity="0.4" d="M100.124 139.479C99.1078 129.185 105.203 106.911 120.44 92.9051C134.323 80.2492 146.851 77.3806 156.332 81.093C146.682 75.1869 132.63 77.0431 117.054 91.2177C101.817 105.055 95.7218 127.498 96.7376 137.791L102.494 144.035C103.171 144.204 103.848 144.204 104.525 144.204L100.124 139.479Z" fill="#B4CC00"/>
<path d="M137.37 104.885C136.862 106.066 135.846 107.416 134.661 107.753C133.645 108.091 132.63 106.91 132.968 105.897C133.476 104.716 134.661 104.041 135.508 103.197C136.693 102.354 137.878 103.704 137.37 104.885Z" fill="#B4CC00"/>
<path d="M141.941 82.6095C141.772 82.947 141.603 83.1157 141.433 83.4532C140.925 84.1282 140.418 84.8032 139.74 85.1407C139.063 85.4781 138.047 85.4782 137.539 84.972C137.201 84.8032 137.031 84.4657 136.862 84.1282C136.016 84.1282 135.169 83.7907 134.661 82.7782C134.492 82.4407 134.492 82.1032 134.492 81.7658C134.492 81.9345 134.492 81.9345 134.492 82.1033C133.815 83.622 131.952 85.8157 130.259 85.4782C128.905 85.3094 128.058 83.9594 128.736 82.6095C130.429 81.597 131.952 80.7533 133.645 80.2471C134.153 80.4158 134.661 80.9221 134.661 81.597C134.661 80.7533 135.169 79.9096 136.016 79.5721C137.37 78.8971 138.894 78.5596 140.248 79.4033C140.418 79.4033 140.587 79.5721 140.587 79.7408C140.925 79.7408 141.433 79.7409 141.772 79.9096C142.111 80.2471 142.28 80.4158 142.449 80.7533C142.449 80.9221 142.618 81.4283 142.618 81.4283C142.28 81.9345 142.111 82.272 141.941 82.6095Z" fill="#B4CC00"/>
<path d="M127.212 103.536C127.551 104.717 126.704 105.729 126.027 106.573C125.519 107.248 125.011 107.754 124.334 108.092C123.149 108.936 121.625 108.261 120.948 107.079C119.932 105.561 121.456 103.873 122.641 103.029C123.149 102.692 123.487 102.354 123.995 102.186C125.519 101.679 126.873 102.017 127.212 103.536Z" fill="#B4CC00"/>
<path d="M135.338 130.366C134.831 129.522 135.169 128.679 135.846 128.004C136.354 127.497 137.201 127.16 137.878 126.654C138.894 126.147 140.587 126.147 140.756 127.666C141.095 129.354 139.063 131.041 137.539 131.378C136.693 131.716 135.846 131.041 135.338 130.366Z" fill="#B4CC00"/>
<path d="M151.591 95.4355C148.544 96.1105 145.835 96.9543 143.465 98.8104C143.973 99.1479 144.65 99.1479 145.158 98.9792C145.835 100.498 148.036 101.173 148.883 99.3167C149.391 98.473 149.729 97.4605 150.237 96.6168C150.576 96.6168 151.084 96.6168 151.591 96.448C152.099 96.2793 152.438 95.9418 152.777 95.7731C152.607 95.7731 152.099 95.6043 151.591 95.4355Z" fill="#B4CC00"/>
<path d="M163.612 88.3484C163.443 88.3484 163.273 88.5171 163.104 88.5171C163.273 88.3484 163.273 88.1796 163.273 88.1796C163.273 88.1796 163.273 88.1796 163.273 88.0109C162.765 87.1672 162.088 86.3234 161.411 85.4797C161.242 85.4797 160.903 85.6485 160.734 85.8172C160.734 85.4797 160.565 85.311 160.395 84.9735C160.395 84.8047 160.564 84.636 160.564 84.4672C158.871 82.7798 157.009 81.4298 154.978 80.2486H154.808C154.47 80.4173 154.3 80.4174 154.131 80.5861C154.3 80.4174 154.3 80.2486 154.47 79.9111C152.777 79.0674 150.914 78.5612 149.052 78.0549C148.713 78.7299 148.544 79.4049 147.867 79.9111C146.851 80.9236 145.835 81.7673 144.819 82.7798C143.634 83.7922 142.618 84.8047 141.772 86.1547C141.941 85.9859 141.941 85.986 142.111 85.8172C142.957 85.311 143.973 84.2985 144.989 84.2985C145.835 84.2985 146.174 85.4797 145.497 85.8172C145.497 85.8172 145.497 85.9859 145.327 85.9859C144.481 86.8296 143.634 87.5046 142.618 88.0109C142.449 88.1796 142.28 88.1796 142.111 88.1796C141.603 88.5171 141.264 88.8546 140.756 89.1921V89.3608C139.571 90.2045 138.555 91.0483 137.37 92.0608C134.831 94.2544 138.386 98.1356 140.925 95.9419C141.603 95.2669 142.28 94.7607 143.126 94.0857C142.957 94.4232 142.618 94.7607 142.449 95.0982C142.28 95.2669 142.111 95.6044 142.111 95.9419C142.788 95.2669 143.465 94.5919 144.142 93.917C144.481 93.5795 144.989 93.7482 145.327 94.0857C147.359 93.242 149.391 92.9045 151.761 93.4107C151.93 93.4107 151.93 93.4107 152.099 93.4107C152.099 93.0733 152.099 92.9045 152.099 92.567C152.099 92.567 152.099 92.567 151.93 92.567C151.253 92.7358 150.745 91.892 151.084 91.3858C151.422 90.7108 151.591 90.0358 151.93 89.3608C151.93 89.1921 151.93 89.1921 152.099 89.0234C151.93 88.6859 151.93 88.3484 152.099 88.1796C152.438 87.8421 152.607 87.5046 152.946 86.9984C153.454 86.1547 154.978 86.9984 154.3 88.0109C154.3 88.1796 154.131 88.3484 154.131 88.3484C154.131 88.5171 154.131 88.8546 153.962 89.0234C153.792 89.1921 153.623 89.5296 153.623 89.6983C153.623 90.0358 153.454 90.3733 153.623 90.7108C153.792 90.8796 153.962 91.217 153.962 91.5545C153.962 91.7233 153.962 91.892 153.962 92.2295C153.962 92.3983 154.131 92.7357 154.3 92.9045C154.808 93.0732 154.978 93.5795 154.808 93.917C154.978 94.0857 155.147 94.4232 155.316 94.5919C156.163 94.0857 157.009 93.4107 157.856 92.9045C158.194 93.7482 159.379 94.2544 160.226 93.7482C161.919 92.7357 163.612 91.5545 165.305 90.5421C164.628 89.8671 164.12 89.1921 163.612 88.3484Z" fill="#B4CC00"/>
<path d="M117.054 91.2163C118.747 89.6976 120.44 88.3477 121.964 87.1665C122.133 86.9977 122.133 86.9977 122.302 86.829C122.979 86.3227 123.487 85.9853 124.165 85.479C124.842 84.9728 125.688 84.6353 126.535 84.2978C127.212 83.9603 128.228 84.804 127.72 85.479C127.212 86.154 126.535 86.829 126.027 87.3352C126.365 87.8415 126.365 88.3477 126.027 89.0227C124.842 91.0476 123.487 92.2288 121.286 92.9038C120.778 93.0725 120.271 92.9038 119.763 92.5663C119.085 93.5788 118.408 94.5913 117.562 95.7725C117.392 98.1349 116.546 100.16 115.53 102.354C116.885 101.847 118.07 103.366 117.392 104.547C117.223 104.885 117.054 105.222 116.715 105.56C116.207 106.066 115.53 106.572 114.853 106.235C114.006 106.066 113.329 105.053 113.837 104.21C114.006 103.872 114.176 103.703 114.345 103.366C113.668 103.535 112.991 103.366 112.313 102.86C111.975 103.366 111.805 103.703 111.636 104.21C111.636 104.547 111.636 104.885 111.467 105.222C110.959 106.403 110.451 107.247 109.605 108.26C109.097 108.935 108.589 109.272 108.081 109.272C107.065 110.622 105.88 111.803 104.356 112.478C103.51 112.816 102.832 112.478 102.494 111.803C104.864 106.572 107.912 101.341 111.805 96.6162C112.144 96.2787 112.652 95.9412 112.991 95.6037C112.991 95.435 112.991 95.435 112.991 95.2662C114.176 94.085 115.53 92.735 117.054 91.2163Z" fill="#B4CC00"/>
<path d="M130.767 115.854C130.259 116.191 129.751 116.528 129.244 116.697C128.736 118.047 128.397 119.566 127.551 120.747C126.535 122.097 125.011 122.772 123.995 124.122C123.995 124.122 123.826 124.122 123.826 124.291C122.979 125.134 122.133 125.809 121.286 126.653C121.117 126.991 120.778 126.991 120.44 126.991C119.593 128.172 118.747 129.184 117.731 130.366C116.546 131.547 115.192 132.559 113.837 133.572C113.668 133.74 113.498 133.74 113.329 133.74C112.821 134.584 111.467 133.572 111.975 132.728C113.668 129.691 114.684 124.628 118.07 123.447C120.44 122.603 121.794 121.253 122.81 119.566C122.979 118.722 122.81 117.878 122.302 116.866C121.964 116.191 121.117 115.854 120.44 116.191C118.07 117.203 116.546 119.735 114.514 121.253C113.329 122.097 112.313 123.11 111.128 123.953C113.16 121.253 115.022 118.216 114.006 115.01C113.837 114.335 113.16 114.166 112.652 114.672C110.62 116.36 108.589 118.385 106.726 120.41C107.065 119.735 107.234 118.891 106.896 118.047C106.557 117.203 105.88 116.697 105.033 117.035C104.695 117.035 104.356 117.035 104.187 117.203C103.848 117.372 103.51 117.541 103.171 117.878C102.325 118.722 102.155 119.903 103.002 120.916C103.848 121.76 105.033 121.76 106.049 121.085C104.695 122.603 103.51 124.122 102.494 125.641C100.801 127.834 98.5999 130.197 96.9069 132.728C96.7376 134.415 96.7376 136.103 96.9069 137.453L102.663 143.696C108.081 144.54 117.562 143.865 127.551 140.828C128.905 140.322 130.09 139.478 131.275 138.297C131.952 137.453 130.767 136.609 130.09 136.947C129.751 137.115 129.413 137.115 129.244 137.284C129.413 136.947 129.582 136.778 129.751 136.44C130.767 134.753 129.244 133.234 127.551 133.403C127.043 133.403 126.535 133.572 126.027 133.572C126.196 133.403 126.196 133.066 126.196 132.897C125.35 133.909 123.995 134.415 122.979 135.259C122.81 135.428 122.81 135.597 122.641 135.765C122.641 136.103 122.641 136.272 122.471 136.609C122.133 136.947 121.964 137.284 121.794 137.622C121.794 137.79 121.794 137.959 121.625 138.128C121.286 138.465 121.117 138.803 120.778 139.14C120.101 139.984 118.747 138.972 119.424 138.128C119.593 137.959 119.763 137.622 119.932 137.453C119.932 137.284 120.101 137.115 120.101 137.115L120.271 136.947C120.271 136.947 120.271 136.778 120.44 136.778C120.271 136.609 120.271 136.272 120.44 135.934C120.609 135.597 120.778 135.428 121.117 135.09C120.948 134.922 120.778 134.753 120.948 134.415C121.286 133.234 121.794 132.391 122.81 131.884C123.318 131.716 123.657 131.378 124.165 131.209H123.995C125.688 129.859 127.381 128.509 128.905 127.159C129.751 126.484 129.921 125.472 129.582 124.628C131.106 123.11 132.63 121.422 134.153 119.735C134.323 119.566 134.492 119.228 134.492 119.06C135 117.372 132.799 114.672 130.767 115.854Z" fill="#B4CC00"/>
<path d="M131.275 91.3869C131.614 92.3994 131.106 93.4119 130.429 93.9181C128.736 95.4368 126.365 92.9056 128.058 91.3869C128.228 91.2182 128.397 90.8807 128.736 90.8807C128.905 90.8807 128.905 90.712 129.074 90.712C129.244 90.5432 129.244 90.5432 129.074 90.712C129.752 89.8682 130.937 90.5432 131.275 91.3869Z" fill="#B4CC00"/>
<path d="M142.449 108.429C141.941 107.585 142.28 106.741 142.788 106.235C143.465 105.56 144.481 105.054 145.327 104.548C146.682 103.704 148.375 105.56 147.359 106.91C146.512 107.923 145.835 109.104 144.481 109.441C143.634 109.61 142.788 109.104 142.449 108.429Z" fill="#B4CC00"/>
<path d="M166.49 103.704C165.982 104.717 165.136 105.561 163.781 105.223C162.765 105.054 162.596 103.873 162.935 103.198C163.273 102.523 164.12 102.186 164.797 102.017C165.982 101.342 166.998 102.523 166.49 103.704Z" fill="#B4CC00"/>
<path d="M154.639 100.498C154.977 100.161 155.485 99.9918 155.824 99.6543C156.84 99.1481 157.856 100.329 157.178 101.173C156.84 101.511 156.671 102.017 156.163 102.354C155.147 103.535 153.454 101.511 154.639 100.498Z" fill="#B4CC00"/>
<path d="M151.422 117.541C152.438 116.697 153.792 116.191 154.977 115.516C155.993 114.841 157.348 116.36 156.671 117.372C155.655 118.554 154.639 120.241 152.946 120.579C151.422 120.747 150.237 118.722 151.422 117.541Z" fill="#B4CC00"/>
<path d="M150.914 127.666C150.406 127.666 150.068 127.16 150.237 126.654C150.914 123.616 154.808 121.76 157.009 119.735C158.871 118.048 160.395 116.023 161.919 113.829C160.903 113.323 160.226 111.804 161.411 110.961C161.919 110.623 162.257 110.286 162.765 109.948C162.765 109.779 162.935 109.779 162.935 109.611C163.273 109.273 163.612 109.104 163.951 108.936C164.458 108.598 164.797 108.429 165.305 108.092C165.474 108.092 165.474 107.923 165.644 107.923C163.612 114.167 159.21 120.748 152.099 127.498C151.591 127.666 151.253 127.666 150.914 127.666Z" fill="#B4CC00"/>
<path d="M153.454 110.961C152.946 109.949 153.623 108.599 154.639 108.43C155.147 108.261 155.485 108.092 155.993 107.924C156.671 107.755 157.517 108.092 157.686 108.936C158.025 110.286 156.84 111.298 155.655 111.805C154.808 112.142 153.962 111.973 153.454 110.961Z" fill="#B4CC00"/>
<path d="M160.734 96.2791C160.734 95.4354 161.242 94.9291 161.919 94.4229C163.443 93.0729 165.474 95.2667 163.951 96.6166C163.273 97.1229 162.935 97.6291 162.088 97.6291C161.242 97.6291 160.734 97.1228 160.734 96.2791Z" fill="#B4CC00"/>
<path d="M145.835 117.878C145.835 116.866 145.666 115.685 145.666 114.335C145.666 113.153 143.634 114.841 142.618 115.347C141.603 115.853 140.925 116.191 140.248 117.203C139.402 118.385 140.418 120.072 141.772 120.241C143.126 120.241 144.311 119.566 145.327 118.891C145.497 118.216 145.666 118.047 145.835 117.878Z" fill="#B4CC00"/>
<path d="M122.979 104.716C123.487 103.703 125.519 103.028 125.858 104.378C126.196 105.222 125.519 106.234 124.672 106.572C123.487 107.078 122.471 105.897 122.979 104.716Z" fill="#B4CC00"/>
<path d="M151.253 82.7797C150.237 83.1172 149.221 81.7673 149.898 80.9235C150.406 80.2486 151.084 79.7423 151.761 79.2361C152.777 79.5736 153.792 80.0798 154.808 80.5861C153.962 81.4298 152.607 82.4423 151.253 82.7797Z" fill="#B4CC00"/>
<path d="M139.91 92.7373C140.418 92.3998 140.925 92.231 141.433 92.0623C142.28 91.7248 142.788 93.0747 142.111 93.581C141.772 93.9185 141.433 94.256 141.095 94.4247C139.91 95.4372 138.555 93.581 139.91 92.7373Z" fill="#B4CC00"/>
<path d="M108.589 135.428C108.25 136.441 107.065 137.284 106.049 137.622C105.033 137.959 104.356 136.609 104.864 135.934C105.372 134.922 106.726 134.247 107.912 134.247C108.419 134.416 108.758 134.922 108.589 135.428Z" fill="#B4CC00"/>
<path d="M134.492 104.885C134.661 104.717 135 104.548 135.338 104.548C136.185 104.21 136.524 105.223 136.185 105.898C136.016 106.235 135.846 106.404 135.508 106.573C134.492 106.741 133.476 105.56 134.492 104.885Z" fill="#B4CC00"/>
<path d="M117.9 119.06C118.578 118.554 119.932 118.048 120.44 119.06C121.117 120.241 120.271 121.254 119.255 121.591C117.731 121.929 116.715 119.904 117.9 119.06Z" fill="#B4CC00"/>
<path d="M110.62 127.497C110.959 126.991 111.636 126.485 112.144 126.316C112.991 125.979 114.006 126.485 114.006 127.497C113.837 128.51 113.16 129.353 112.313 129.691C110.62 130.197 109.435 128.51 110.62 127.497Z" fill="#B4CC00"/>
<path d="M146.682 98.3039V98.1352C146.682 97.9664 146.851 97.629 147.02 97.4602C147.19 97.2915 147.359 97.2914 147.698 97.1227C148.205 96.954 148.713 97.4602 148.375 97.9664C148.205 98.1352 148.205 98.3039 148.036 98.6414C147.867 98.8101 147.528 98.9789 147.359 98.9789H147.19C146.851 98.8102 146.682 98.6414 146.682 98.3039Z" fill="#B4CC00"/>
<path d="M96.7376 137.115C97.2455 137.115 97.7534 137.452 97.9227 137.621C98.7692 137.115 99.6157 136.777 100.462 136.609C101.647 136.44 102.663 137.452 102.325 138.634C102.155 139.14 101.986 139.646 101.647 139.983L101.817 139.815C103.002 139.14 104.356 140.321 104.018 141.671C104.018 141.84 103.848 142.008 103.848 142.177C104.018 142.177 104.356 142.177 104.525 142.008C105.033 141.84 105.541 142.346 105.541 142.683C105.88 142.346 106.218 142.346 106.557 142.683C107.234 142.515 107.912 142.177 108.589 142.008C109.943 141.671 110.959 141.502 112.313 141.671C112.821 141.671 112.991 142.177 112.821 142.683C115.192 142.177 117.562 141.671 120.101 141.502C120.609 141.502 120.948 142.346 120.44 142.683C120.271 142.852 120.101 142.852 119.932 143.021C112.652 144.371 106.218 144.708 102.155 144.033L96.399 137.79C96.7376 137.621 96.7376 137.284 96.7376 137.115Z" fill="#B4CC00"/>
<path d="M131.106 82.442C131.952 82.2733 132.63 82.9483 132.291 83.792C132.122 84.2982 131.952 84.6357 131.445 84.8045C130.429 85.3107 129.244 84.1295 129.921 83.117C130.259 82.7795 130.429 82.6108 131.106 82.442Z" fill="#B4CC00"/>
<path d="M162.427 91.5553C161.411 92.2303 160.734 90.8803 161.242 90.0366C160.564 90.5428 159.718 91.049 159.041 91.3865C158.871 91.3865 158.702 91.5553 158.533 91.5553C158.364 91.5553 158.364 91.5553 158.194 91.724C158.025 91.724 157.856 91.724 157.686 91.5553C156.671 91.2178 156.163 89.5303 157.517 88.6866C158.364 88.1804 159.21 87.5054 160.226 86.9991C159.718 86.6617 159.549 86.1554 159.549 85.4805C159.041 85.4805 158.533 85.3117 158.025 84.8055C157.517 84.2992 157.517 83.793 157.517 83.118C156.332 83.4555 155.316 81.9368 155.993 80.9243C157.856 82.1055 159.549 83.4555 161.072 85.1429C161.919 85.9867 162.596 86.9992 163.273 88.0116C162.765 88.5179 162.257 89.0241 161.75 89.3616C162.257 89.0241 162.765 88.5179 163.443 88.3491C163.781 88.8554 164.12 89.3616 164.289 89.8678C163.781 90.5428 163.104 91.0491 162.427 91.5553Z" fill="#B4CC00"/>
<path d="M109.774 118.891C109.943 118.554 110.112 118.385 110.282 118.216C111.128 117.035 113.329 117.879 112.652 119.398C112.483 119.735 112.313 120.241 112.144 120.579C111.128 121.76 108.758 120.41 109.774 118.891Z" fill="#B4CC00"/>
<path d="M98.9385 132.728C99.2771 132.56 99.6157 132.222 99.9543 132.053C100.97 131.378 102.325 132.897 101.478 133.741C101.139 134.247 100.801 134.585 100.293 134.753C99.1078 135.428 97.7534 133.741 98.9385 132.728Z" fill="#B4CC00"/>
<path d="M115.361 98.8107C115.022 99.1481 114.514 99.4856 114.176 99.8231C112.821 101.173 110.79 99.3169 111.636 97.7982C112.144 96.7857 113.329 96.2795 114.345 96.4482C115.699 96.617 116.207 98.1357 115.361 98.8107Z" fill="#B4CC00"/>
<path d="M130.598 92.9045C130.429 93.0732 130.259 93.242 129.921 93.242C129.413 93.242 128.905 92.9045 129.074 92.3983C129.074 92.0608 129.244 91.892 129.413 91.7233C130.259 90.7108 131.614 92.2295 130.598 92.9045Z" fill="#B4CC00"/>
<path d="M106.219 119.735C106.049 119.903 105.88 120.241 105.711 120.241C104.187 121.253 102.663 119.06 104.356 118.216C104.525 118.047 104.695 118.047 104.695 118.047C105.711 117.71 106.726 118.553 106.219 119.735Z" fill="#B4CC00"/>
<path d="M116.207 104.042C116.715 104.548 116.377 105.561 115.699 105.73H115.53C114.853 105.898 114.345 105.223 114.514 104.548V104.38C114.853 103.705 115.699 103.536 116.207 104.042Z" fill="#B4CC00"/>
<path d="M138.386 81.0931C138.725 81.0931 138.894 80.9243 139.232 80.9243C140.079 80.9243 140.079 81.9368 139.571 82.2743C139.402 82.4431 139.232 82.443 139.063 82.6118C138.047 83.2867 137.201 81.4306 138.386 81.0931Z" fill="#B4CC00"/>
<path d="M124.842 138.803C124.165 138.634 123.826 137.79 123.995 137.115C124.334 135.934 125.688 135.428 126.873 135.765C127.72 136.103 127.889 136.946 127.551 137.621C127.043 138.634 125.858 139.14 124.842 138.803Z" fill="#B4CC00"/>
<path d="M163.612 110.116C164.12 109.779 164.628 109.441 165.136 109.273C164.797 110.116 164.458 110.96 163.951 111.804C163.273 111.973 162.596 110.791 163.612 110.116Z" fill="#B4CC00"/>
<path d="M153.792 125.304C153.454 125.472 153.115 125.472 152.777 125.135C152.099 124.46 152.777 123.447 153.623 123.785C153.792 123.785 153.962 123.785 154.131 123.954C154.639 123.616 155.316 123.279 155.824 122.941C156.84 122.098 157.856 121.085 158.702 120.073C158.871 119.904 159.041 119.904 159.21 119.904C157.686 121.76 156.163 123.616 154.3 125.641C154.131 125.472 153.962 125.472 153.792 125.304Z" fill="#B4CC00"/>
<path d="M155.485 117.712C155.316 118.218 154.978 118.555 154.47 118.893C153.623 119.399 152.607 118.049 153.454 117.374C153.792 117.037 154.131 116.868 154.639 116.868C155.147 116.699 155.655 117.205 155.485 117.712Z" fill="#B4CC00"/>
<path d="M165.305 104.548C164.458 104.716 163.781 104.041 163.951 103.198C164.12 102.354 165.305 102.185 165.813 102.86C166.49 103.366 166.151 104.548 165.305 104.548Z" fill="#B4CC00"/>
<path d="M105.88 125.64C106.726 125.471 107.234 126.484 106.726 127.159C106.388 127.665 106.049 128.002 105.372 128.171C104.695 128.34 104.018 127.665 104.356 126.99C104.356 126.146 105.033 125.809 105.88 125.64Z" fill="#B4CC00"/>
<path d="M155.147 109.273C155.316 109.104 155.316 109.273 155.147 109.273C155.993 108.598 157.009 109.61 156.332 110.285L156.163 110.454C155.485 110.96 154.47 109.779 155.147 109.273Z" fill="#B4CC00"/>
<path d="M123.149 86.323C123.318 86.323 123.657 86.1543 123.826 86.1543C124.672 85.9855 124.842 86.8293 124.503 87.3355C123.487 88.6855 122.133 89.8667 121.117 91.0479C120.271 92.0603 119.255 93.4103 117.731 93.2416C117.392 93.2416 116.885 92.9041 116.885 92.5666C116.885 92.2291 116.885 91.8916 116.885 91.5541L117.054 91.3854C119.085 89.3604 121.117 87.8417 123.149 86.323Z" fill="#B4CC00"/>
<path d="M107.065 103.704C107.234 103.029 108.25 103.198 108.25 103.873C108.081 105.223 107.573 106.235 106.896 107.248C106.218 108.26 105.203 109.947 104.018 109.947C103.848 109.947 103.679 109.947 103.51 109.779C104.187 108.429 104.864 107.248 105.541 105.898C106.049 105.391 106.726 104.548 107.065 103.704Z" fill="#B4CC00"/>
<path d="M144.819 117.203C144.481 117.541 143.973 117.878 143.465 118.047C142.449 118.722 141.433 116.866 142.618 116.359C143.126 116.191 143.634 116.022 144.142 115.853C144.989 115.684 145.497 116.866 144.819 117.203Z" fill="#B4CC00"/>
<path d="M115.361 135.935C115.869 135.766 116.377 135.429 116.885 135.429C117.392 135.429 118.07 135.935 117.562 136.441C117.223 136.948 116.715 137.285 116.038 137.623C115.191 138.129 114.176 136.441 115.361 135.935Z" fill="#B4CC00"/>
<path d="M162.258 94.9292C163.104 94.0855 164.289 95.2667 163.443 95.9417C163.443 95.9417 163.273 95.9416 163.273 96.1104C162.427 96.7854 161.58 95.7729 162.258 94.9292Z" fill="#B4CC00"/>
<path d="M124.503 125.979C125.35 125.81 126.027 126.485 125.858 127.497C125.688 128.51 123.657 130.029 122.641 129.016C121.794 127.835 123.487 125.979 124.503 125.979Z" fill="#B4CC00"/>
<path d="M155.655 100.161C155.655 99.9918 155.655 99.9918 155.655 100.161C156.501 99.4856 157.517 100.498 156.671 101.173C155.993 102.017 154.808 100.667 155.655 100.161Z" fill="#B4CC00"/>
<path d="M143.973 107.416C143.804 107.248 143.804 107.248 143.804 107.079C143.804 106.741 143.973 106.235 144.311 106.066C144.481 105.898 144.819 105.898 144.989 105.729C145.835 105.223 146.851 106.235 146.005 106.91C145.666 107.248 145.327 107.416 144.989 107.585C144.65 107.923 144.142 107.754 143.973 107.416Z" fill="#B4CC00"/>
<path d="M147.359 89.1918C147.867 88.8543 148.375 88.5168 149.052 88.6855C149.729 88.6855 150.237 89.1918 150.068 89.8667C150.068 90.5417 149.729 90.8792 149.391 91.3854C148.036 92.7354 145.835 90.2042 147.359 89.1918Z" fill="#B4CC00"/>
<path d="M137.709 128.173C138.217 128.173 138.555 128.173 139.063 128.173C139.74 128.173 140.079 129.186 139.571 129.692C139.063 130.029 138.724 130.367 138.047 130.536C136.693 130.873 136.185 128.342 137.709 128.173Z" fill="#B4CC00"/>
<path d="M129.751 119.397C129.921 118.385 130.598 117.878 131.445 117.541C132.291 117.203 133.138 118.047 132.63 118.891C132.291 119.397 131.783 120.072 131.106 120.409C130.598 120.409 129.582 120.072 129.751 119.397Z" fill="#B4CC00"/>
<path opacity="0.7" d="M163.781 88.6851C167.675 98.641 164.12 111.634 149.391 124.965C134.153 138.802 110.62 142.009 100.801 140.49L96.7376 136.102C96.7376 136.609 96.7376 137.284 96.7376 137.79L102.494 144.033C112.313 145.552 136.016 142.346 151.084 128.509C167.506 113.491 170.215 98.9785 163.781 88.6851Z" fill="#3D5C05"/>
<path d="M83.3627 116.023H91.8278C100.124 109.779 112.483 90.2046 112.483 69.6177C112.483 44.8122 101.139 33 87.2566 33C73.3739 33 62.0306 44.6434 62.0306 69.6177C62.1999 90.2046 75.7441 109.779 83.3627 116.023Z" fill="#4A7006"/>
<path opacity="0.4" d="M65.586 71.3052C65.586 46.4996 76.9292 34.6875 90.812 34.6875C93.6901 34.6875 96.399 35.1937 98.9385 36.2061C95.3832 34.0125 91.4892 33 87.4259 33C73.5432 33 62.1999 44.6434 62.1999 69.6177C62.1999 90.2046 75.7441 109.779 83.532 116.023H85.0557C77.0985 108.429 65.586 90.2046 65.586 71.3052Z" fill="#B4CC00"/>
<path d="M88.9497 63.8799C88.4418 65.0611 88.1032 66.5798 88.6111 67.9298C89.119 68.7735 90.6427 68.7735 90.9813 67.9298C91.4892 66.7486 91.3199 65.3986 91.1506 64.2174C91.3199 62.6987 89.4576 62.6987 88.9497 63.8799Z" fill="#B4CC00"/>
<path d="M102.325 45.4865C102.155 45.824 102.155 45.9927 101.986 46.3302C101.817 47.1739 101.647 48.0176 101.817 48.8614C101.986 49.7051 102.663 50.2114 103.34 50.3801C103.679 50.5489 104.018 50.3801 104.356 50.3801C104.864 51.0551 105.88 51.3926 106.726 51.0551C107.065 50.8863 107.404 50.7176 107.573 50.5488C107.573 50.5488 107.404 50.7176 107.404 50.8863C106.726 52.405 106.388 55.2737 107.742 56.4549C108.758 57.2986 110.451 57.1299 110.79 55.6112C110.451 53.755 109.943 52.0676 109.266 50.3801C108.758 50.2114 108.081 50.2113 107.573 50.5488C108.25 50.0426 108.419 49.0301 108.25 48.1864C107.742 46.6677 107.065 45.4865 105.541 44.8115C105.372 44.8115 105.203 44.8115 105.033 44.6427C104.864 44.3053 104.525 43.9678 104.018 43.9678C103.679 43.9678 103.34 43.9678 103.002 43.9678C102.832 44.1365 102.494 44.3053 102.325 44.3053C102.663 44.8115 102.494 45.149 102.325 45.4865Z" fill="#B4CC00"/>
<path d="M96.7376 70.4611C95.5525 70.9673 95.5525 72.3173 95.2139 73.4985C95.0446 74.1735 95.0446 75.0172 95.2139 75.6922C95.5525 77.2109 96.9069 77.7171 98.2613 77.5484C100.124 77.2109 100.293 74.8484 100.124 73.4985C100.124 72.9922 99.9543 72.3173 99.785 71.811C99.2771 70.4611 98.092 69.7861 96.7376 70.4611Z" fill="#B4CC00"/>
<path d="M71.3422 82.6124C72.1887 82.4436 72.6966 81.5999 72.8659 80.7562C72.8659 79.9125 72.5274 79.0687 72.3581 78.3937C72.0195 77.3813 70.8343 76.2001 69.6492 76.8751C68.1255 77.8875 68.4641 80.4187 68.972 81.7687C69.4799 82.4436 70.4957 82.7811 71.3422 82.6124Z" fill="#B4CC00"/>
<path d="M81.6697 39.9187C81.839 40.9312 83.0241 41.2687 83.8706 41.0999C84.0399 43.2936 84.5478 45.4873 85.225 47.681C85.3943 48.1872 85.7329 48.5247 85.9022 48.8622C85.5636 49.8746 85.225 50.7184 84.8864 51.7308C84.2092 53.587 86.2408 54.7683 87.7645 54.262C88.6111 56.1182 91.9971 56.2869 92.3357 53.9245C92.3357 53.587 92.505 53.0808 92.505 52.7433C92.6743 53.7558 92.6743 54.5995 92.6743 55.612C92.6743 58.9869 97.9227 58.9869 97.9227 55.612C97.9227 54.262 97.7534 52.7433 97.5841 51.3933C98.092 51.2246 98.5999 50.8871 98.9385 50.3809C99.785 48.356 99.9543 46.331 99.9543 43.9686C99.9543 42.6186 99.785 41.0999 99.9543 39.7499C99.9543 38.9062 100.293 38.2313 100.632 37.725C99.1078 36.5438 97.4148 35.7001 95.7217 34.8563C95.7217 35.0251 95.5525 35.3626 95.5525 35.5313C95.3832 35.1938 95.3832 35.0251 95.2139 34.6876C95.2139 34.6876 95.2139 34.6876 95.2139 34.5188C93.0129 33.6751 90.812 33.3376 88.4418 33.3376C88.2725 33.5064 88.2725 33.5064 88.2725 33.6751C87.9339 33.6751 87.7646 33.8439 87.426 34.0126C87.426 33.6751 87.2567 33.5064 87.0874 33.3376C86.0715 33.3376 85.0557 33.5064 84.0399 33.6751C84.0399 33.6751 84.0399 33.6751 84.0399 33.8439C84.0399 34.0126 83.8706 34.1814 83.8706 34.3501C83.8706 34.1814 83.7013 34.0126 83.7013 33.8439C82.8548 34.0126 81.839 34.1813 80.9925 34.5188C81.1618 36.0375 81.3311 38.0625 81.6697 39.9187Z" fill="#B4CC00"/>
<path d="M112.652 69.6171C112.652 67.4234 112.483 65.2297 112.313 63.2048C112.313 63.036 112.313 62.8673 112.313 62.6986C112.313 61.8548 112.144 61.1799 112.144 60.5049C111.975 59.6612 111.636 58.8174 111.298 57.9737C110.959 57.2987 109.774 56.9612 109.605 57.9737C109.435 58.8174 109.435 59.6612 109.266 60.5049C108.758 60.6736 108.25 61.0111 108.081 61.6861C107.404 63.8798 107.404 65.736 108.419 67.9297C108.589 68.4359 109.097 68.6046 109.605 68.7734C109.266 69.9546 109.097 71.1358 108.758 72.4858C107.065 74.1732 106.218 76.1981 105.372 78.3918C104.864 77.2106 102.832 77.2106 102.494 78.5606C102.325 78.8981 102.325 79.2356 102.155 79.7418C101.986 80.4168 102.155 81.2605 103.002 81.598C103.679 81.9355 104.864 81.7667 105.203 80.923C105.372 80.5855 105.372 80.4168 105.372 80.0793C105.711 80.5855 106.388 81.0918 107.065 81.2605C106.896 81.7668 106.726 82.273 106.557 82.7792C106.218 82.948 106.049 83.1167 105.88 83.4542C105.372 84.6354 105.033 85.6479 104.864 86.8291C104.695 87.5041 104.864 88.1791 105.033 88.6853C104.864 90.3727 104.695 92.0602 105.203 93.5789C105.372 94.4226 106.218 94.7601 106.896 94.5914C109.266 89.3603 110.959 83.6229 111.805 77.5481C111.805 77.0419 111.805 76.5356 111.805 76.0294C111.975 76.0294 111.975 75.8607 112.144 75.8607C112.483 73.667 112.652 71.6421 112.652 69.6171Z" fill="#B4CC00"/>
<path d="M97.9227 98.1353C98.092 99.3165 98.7692 100.16 100.124 100.16C101.478 100.16 102.155 99.1478 102.325 97.9666C102.325 97.6291 102.325 97.1229 102.155 96.7854C102.155 96.4479 101.986 96.2791 101.647 95.9416C101.309 95.0979 100.462 94.7604 99.6157 95.2666C98.9385 95.6041 98.2613 96.2791 98.092 96.9541C98.4306 94.0854 98.5999 91.2167 98.4306 88.6856C98.4306 88.0106 97.7534 87.6731 97.2455 88.0106C94.198 89.5293 93.1822 92.7354 92.505 96.1103C92.3357 94.5916 92.3357 93.2417 92.1664 91.723C91.9971 89.1918 92.6743 86.3232 91.9971 83.9607C91.8278 83.117 91.1506 82.7795 90.3041 82.9482C88.6111 83.2857 87.5952 84.4669 86.918 86.1544C86.5794 82.7795 86.2408 79.4046 85.3943 76.0297C84.8864 73.6673 81.3311 73.836 80.6539 75.8609C80.4846 76.0297 80.3153 76.3672 80.3153 76.536C79.9767 78.7296 79.8073 80.9233 79.638 83.117C78.7915 83.4545 78.2836 84.2982 78.2836 85.3107C78.4529 87.5044 78.4529 89.5293 78.6222 91.723C77.6064 90.5418 75.9134 90.373 75.0669 91.8917C74.7283 91.5542 74.559 91.048 74.2204 90.7105C73.2046 89.3606 71.0036 89.3606 70.4957 91.2167C70.3264 91.5542 70.3264 91.8917 70.3264 92.2292C70.1571 91.8917 69.9878 91.723 69.9878 91.3855C69.6492 90.5418 68.2948 90.373 68.1255 91.3855C67.9562 93.073 68.1255 94.4229 68.6334 95.7729C73.2046 105.223 79.1301 112.647 83.3627 116.022H91.8278C92.8436 115.179 94.0287 114.166 95.3831 112.816C96.0604 109.779 96.399 106.573 96.9069 103.873C97.2455 102.016 97.5841 100.16 97.9227 98.1353Z" fill="#B4CC00"/>
<path d="M103.002 59.3247C102.155 59.6622 101.647 60.8434 101.647 61.6871C101.647 64.0496 105.033 63.8808 105.203 61.6871C105.203 61.3496 105.203 61.0122 105.203 60.8434C105.203 60.6747 105.033 60.6747 105.033 60.506C105.033 60.3372 105.033 60.3372 105.033 60.506C105.203 59.3247 103.848 58.9872 103.002 59.3247Z" fill="#B4CC00"/>
<path d="M82.8548 62.5301C83.7013 62.3614 84.2092 61.5176 84.2092 60.6739C84.3785 59.6615 83.8706 58.649 83.7013 57.8053C83.3627 56.2866 80.8231 56.2866 80.4845 57.8053C80.1459 59.1552 79.9766 60.5052 80.6539 61.6864C81.1618 62.3614 82.0083 62.6989 82.8548 62.5301Z" fill="#B4CC00"/>
<path d="M70.1571 41.7734C69.8185 42.9546 69.8185 43.967 70.8343 44.8108C71.6809 45.317 72.6967 44.8108 72.866 43.967C73.2046 43.292 72.866 42.4483 72.5274 41.7734C72.1888 40.5921 70.4957 40.5921 70.1571 41.7734Z" fill="#B4CC00"/>
<path d="M80.4846 48.3562C80.4846 47.8499 80.4846 47.3437 80.3153 46.8375C80.146 45.825 78.4529 45.825 78.1143 46.8375C77.945 47.3437 77.945 47.8499 77.945 48.3562C77.945 49.8749 80.4846 49.8749 80.4846 48.3562Z" fill="#B4CC00"/>
<path d="M69.9878 62.0251C69.9878 60.6752 69.3106 59.3252 69.1413 57.9753C68.972 56.7941 66.9404 56.7941 66.7711 57.9753C66.4325 59.494 66.0939 61.3502 66.9404 62.8689C67.6176 64.2188 69.9878 63.8813 69.9878 62.0251Z" fill="#B4CC00"/>
<path d="M62.8771 69.2804C63.2157 69.6179 63.7236 69.6179 64.0622 69.1117C65.9246 66.5805 64.5702 62.5306 64.7395 59.3245C64.7395 56.7933 65.2474 54.2621 65.7553 51.7309C66.7711 52.0684 68.2948 51.5622 68.2948 50.2123C68.2948 49.706 68.2948 49.031 68.1255 48.5248C68.1255 48.3561 68.1255 48.356 68.1255 48.1873C68.1255 47.6811 67.9562 47.3436 67.7869 47.0061C67.6176 46.4999 67.6176 45.9936 67.6176 45.4874C67.6176 45.3186 67.6176 45.3186 67.4483 45.1499C64.2315 50.8872 62.3692 58.4807 62.1999 68.2679C62.3692 68.7742 62.7078 69.1117 62.8771 69.2804Z" fill="#B4CC00"/>
<path d="M73.5432 56.2872C74.7283 55.9497 75.2362 54.5997 74.559 53.756C74.3897 53.4185 74.2204 52.9122 74.0511 52.406C73.7125 51.731 72.866 51.3935 72.1888 51.731C71.0036 52.406 71.0036 53.9247 71.3422 55.1059C71.6808 55.9497 72.5274 56.4559 73.5432 56.2872Z" fill="#B4CC00"/>
<path d="M79.4688 40.9314C80.146 40.2564 79.9767 39.5814 79.9767 38.7377C79.9767 36.7128 76.9292 36.7128 76.9292 38.7377C76.9292 39.5814 76.9292 40.2564 77.4371 40.9314C78.1143 41.4377 78.9608 41.4377 79.4688 40.9314Z" fill="#B4CC00"/>
<path d="M74.7283 70.7977C75.7441 71.8102 77.7757 71.4727 77.945 69.954C78.1143 68.9415 77.945 67.929 77.6064 66.9166C77.2678 65.9041 77.0985 64.7229 76.252 64.0479C75.5748 63.5417 74.8976 63.5417 74.2204 64.0479C73.3739 64.8916 73.2046 66.0729 73.3739 67.0853C73.5432 68.4353 73.7125 69.7852 74.7283 70.7977Z" fill="#B4CC00"/>
<path d="M98.7692 74.3426C99.1078 73.3301 98.4306 71.3052 97.0762 71.9802C96.2297 72.3177 95.891 73.4989 96.2297 74.3426C96.7376 75.5238 98.092 75.5238 98.7692 74.3426Z" fill="#B4CC00"/>
<path d="M95.891 38.7384C96.399 39.7509 98.092 39.5822 98.2613 38.4009C98.4306 37.5572 98.4306 36.7135 98.2613 35.8698C97.2455 35.3635 96.2297 34.8573 95.2139 34.5198C95.0445 35.8697 95.2138 37.3884 95.891 38.7384Z" fill="#B4CC00"/>
<path d="M96.2297 53.7541C96.2297 53.2479 95.8911 52.7416 95.7218 52.2354C95.3831 51.3916 94.0287 51.8979 94.198 52.7416C94.198 53.2479 94.198 53.7541 94.198 54.0916C94.198 55.6103 96.399 55.4415 96.2297 53.7541Z" fill="#B4CC00"/>
<path d="M85.7329 105.729C85.225 106.742 85.3943 108.092 85.7329 109.104C86.2408 110.117 87.5952 109.61 87.7645 108.767C88.1031 107.754 87.7645 106.235 86.918 105.392C86.5794 105.054 85.9022 105.223 85.7329 105.729Z" fill="#B4CC00"/>
<path d="M90.9813 66.0738C90.9813 65.7363 90.812 65.5675 90.812 65.23C90.4734 64.5551 89.4576 64.8926 89.2883 65.3988C89.119 65.7363 89.119 65.905 89.2883 66.2425C89.4576 67.255 90.9813 67.0862 90.9813 66.0738Z" fill="#B4CC00"/>
<path d="M91.4892 87.8409C91.3199 86.9972 90.812 85.6472 89.7962 85.9847C88.4417 86.3222 88.2725 87.5034 88.7804 88.5159C89.4576 89.8658 91.6585 89.3596 91.4892 87.8409Z" fill="#B4CC00"/>
<path d="M90.3041 98.8099C90.3041 98.3037 90.3041 97.46 90.1348 96.9537C89.9655 96.11 88.6111 95.6038 88.1031 96.4475C87.4259 97.1225 87.2567 98.3037 87.5953 99.3162C88.1032 100.666 90.1348 100.329 90.3041 98.8099Z" fill="#B4CC00"/>
<path d="M87.426 52.5739C87.5953 52.5739 87.5953 52.5739 87.426 52.5739C87.7646 52.2364 87.9339 51.8989 87.7646 51.7302C87.7646 51.5614 87.5953 51.3927 87.5953 51.0552C87.426 50.549 86.7487 50.549 86.5794 51.0552C86.5794 51.224 86.4101 51.3927 86.4101 51.7302C86.4101 51.8989 86.4101 52.2364 86.5794 52.4052L86.7488 52.5739C86.9181 52.9114 87.2567 52.9114 87.426 52.5739Z" fill="#B4CC00"/>
<path d="M92.505 115.516C92.3357 115.516 92.3357 115.516 92.505 115.516C92.1664 115.179 91.6585 115.01 91.3199 115.01C91.1506 114.167 90.812 113.154 90.3041 112.479C89.6269 111.467 88.2725 111.467 87.5953 112.479C87.2567 112.985 87.0873 113.323 86.918 113.829C86.918 113.66 86.918 113.66 86.918 113.492C86.5794 112.142 84.8864 112.142 84.2092 113.154C84.2092 113.323 84.0399 113.492 84.0399 113.66C83.8706 113.492 83.8706 113.323 83.7013 113.154C83.3627 112.648 82.8548 112.648 82.5162 112.985C82.5162 112.479 82.1776 112.31 81.839 112.142C81.5004 111.467 81.1618 110.792 80.8232 110.117C80.146 108.935 79.638 107.923 78.4529 107.079C78.1143 106.742 77.6064 107.079 77.2678 107.248C76.0827 105.054 74.8976 103.029 73.2046 101.004C72.866 100.667 72.0194 100.836 72.0194 101.511C72.0194 101.679 72.0195 101.848 72.1888 102.017C76.0827 108.26 80.146 113.154 83.3627 115.854H91.8278C91.9971 115.854 92.1664 115.685 92.505 115.516Z" fill="#B4CC00"/>
<path d="M109.774 53.4179C109.266 52.7429 108.419 52.7429 107.912 53.4179C107.573 53.9241 107.573 54.2616 107.742 54.7678C107.912 55.949 109.774 55.949 109.943 54.7678C110.112 54.2616 110.112 53.9241 109.774 53.4179Z" fill="#B4CC00"/>
<path d="M81.839 36.5438C82.0083 37.725 83.532 37.3875 83.7013 36.375C83.7013 37.2188 83.8706 38.0625 84.2092 38.9062C84.2092 39.075 84.3785 39.2437 84.3785 39.4125C84.3785 39.5812 84.3785 39.5812 84.5478 39.7499C84.7171 39.9187 84.8864 39.9187 85.0557 39.9187C86.0715 40.4249 87.5952 39.7499 87.2566 38.2312C87.0873 37.2188 86.918 36.2063 86.7487 35.1939C87.2567 35.3626 87.9339 35.1938 88.2725 34.6876C88.6111 35.0251 89.119 35.3626 89.7962 35.3626C90.4734 35.3626 90.9813 35.0251 91.3199 34.6876C91.9971 35.8688 93.6901 35.5313 93.8594 34.3501C91.8278 33.6751 89.6269 33.3376 87.2566 33.3376C86.0715 33.3376 84.8864 33.5064 83.7013 33.6751C83.7013 34.3501 83.7013 35.0251 83.7013 35.7001C83.7013 35.0251 83.532 34.3501 83.3627 33.6751C82.8548 33.8439 82.1776 33.8439 81.6697 34.0126C81.6697 34.6876 81.839 35.5313 81.839 36.5438Z" fill="#B4CC00"/>
<path d="M97.0762 93.5794C97.0762 93.2419 97.2455 92.9044 97.2455 92.7357C97.5841 91.3857 95.5525 90.2045 94.8752 91.7232C94.7059 92.0607 94.5367 92.5669 94.3674 92.9044C94.0288 94.5919 96.5683 95.4356 97.0762 93.5794Z" fill="#B4CC00"/>
<path d="M94.198 110.96C94.198 110.623 94.0287 110.117 94.0287 109.779C93.8594 108.598 91.8278 108.598 91.6585 109.779C91.4892 110.285 91.4892 110.792 91.6585 111.298C91.9971 112.648 94.3673 112.479 94.198 110.96Z" fill="#B4CC00"/>
<path d="M108.25 76.0292C108.25 76.5354 108.25 77.0416 108.25 77.5479C108.081 79.404 110.959 79.7416 111.467 78.0541C111.805 76.8729 111.467 75.8604 110.62 75.0167C109.774 74.3417 108.081 74.8479 108.25 76.0292Z" fill="#B4CC00"/>
<path d="M102.325 60.6744C102.325 61.0119 102.325 61.1807 102.494 61.3494C102.832 61.8556 103.34 61.8556 103.679 61.3494C103.848 61.1807 103.848 60.8431 103.848 60.6744C104.187 59.6619 102.155 59.6619 102.325 60.6744Z" fill="#B4CC00"/>
<path d="M98.9385 96.7847C98.7692 97.1222 98.7692 97.291 98.7692 97.6285C98.9385 99.4847 101.647 99.1472 101.139 97.291C101.139 97.1222 101.139 96.9535 100.97 96.7847C100.801 95.7723 99.4464 95.7723 98.9385 96.7847Z" fill="#B4CC00"/>
<path d="M103.848 78.8984C103.171 78.8984 102.663 79.7422 103.002 80.4171C103.002 80.4171 103.002 80.5859 103.171 80.5859C103.51 81.0921 104.356 81.0921 104.695 80.5859C104.695 80.5859 104.695 80.4171 104.864 80.4171C105.033 79.7422 104.525 78.8984 103.848 78.8984Z" fill="#B4CC00"/>
<path d="M105.711 47.0059C105.541 46.6684 105.541 46.4996 105.203 46.3309C104.695 45.8247 103.848 46.3309 104.018 47.0059C104.018 47.1747 104.018 47.3434 104.187 47.6809C104.525 48.8621 106.219 48.1871 105.711 47.0059Z" fill="#B4CC00"/>
<path d="M72.1887 95.9415C72.8659 96.2789 73.5432 96.1102 73.8818 95.4352C74.559 94.4227 74.0511 93.0728 73.0353 92.3978C72.358 91.8916 71.5115 92.3978 71.1729 93.0728C70.8343 94.254 71.3422 95.4352 72.1887 95.9415Z" fill="#B4CC00"/>
<path d="M67.279 48.1877C67.1097 47.5127 67.1097 47.0065 66.7711 46.5002C66.4325 47.344 65.9246 48.1877 65.586 49.0314C66.2632 49.7064 67.4483 49.3689 67.279 48.1877Z" fill="#B4CC00"/>
<path d="M62.5385 65.5675C62.7078 65.905 62.8771 66.2425 63.385 66.2425C64.2316 66.2425 64.5702 65.0613 63.893 64.555C63.7237 64.3863 63.5543 64.2175 63.385 64.2175C63.385 63.5425 63.0464 62.8676 63.0464 62.1926C62.8771 60.8427 63.0464 59.4926 63.2157 58.1427C63.2157 57.9739 63.2157 57.8052 63.0464 57.6365C62.5385 59.9989 62.3692 62.5301 62.1999 65.0612C62.3692 65.3987 62.5385 65.5675 62.5385 65.5675Z" fill="#B4CC00"/>
<path d="M67.279 59.3238C66.9404 59.83 66.9404 60.1675 66.9404 60.8425C67.1097 61.8549 68.8027 61.6862 68.8027 60.6737C68.8027 60.1675 68.6334 59.83 68.4641 59.3238C68.1255 58.8175 67.4483 58.8175 67.279 59.3238Z" fill="#B4CC00"/>
<path d="M70.1571 43.1252C70.665 43.8002 71.5115 43.8002 72.0195 43.1252C72.5274 42.4502 71.8502 41.4377 71.0037 41.4377C70.1571 41.4377 69.6492 42.4502 70.1571 43.1252Z" fill="#B4CC00"/>
<path d="M94.7059 101.004C94.198 100.16 93.1822 100.667 93.0129 101.51C93.0129 102.185 92.8436 102.692 93.1822 103.198C93.5208 103.704 94.3673 103.873 94.8752 103.198C95.3831 102.354 95.2139 101.679 94.7059 101.004Z" fill="#B4CC00"/>
<path d="M73.5432 53.755V53.5863C73.5432 52.5738 72.1887 52.5738 72.0194 53.5863V53.755C72.0194 54.7675 73.7125 54.7675 73.5432 53.755Z" fill="#B4CC00"/>
<path d="M112.144 61.8566C111.975 61.6879 111.975 61.3504 111.805 61.1817C111.467 60.5067 110.451 60.8441 110.451 61.5191C110.282 63.2066 110.112 64.894 109.943 66.5815C109.774 67.9314 109.435 69.4502 110.62 70.4626C110.959 70.8001 111.467 70.8001 111.805 70.6314C112.144 70.4626 112.313 70.1251 112.483 69.9564C112.483 69.7876 112.483 69.7877 112.483 69.6189C112.652 66.919 112.483 64.3878 112.144 61.8566Z" fill="#B4CC00"/>
<path d="M110.282 85.48C110.62 84.9738 109.774 84.2988 109.266 84.805C108.419 85.8175 107.911 86.83 107.573 88.0112C107.234 89.1924 106.726 91.0486 107.404 92.061C107.573 92.2298 107.742 92.2298 107.912 92.3986C108.419 91.0486 108.927 89.6986 109.435 88.1799C109.605 87.1675 109.774 86.3237 110.282 85.48Z" fill="#B4CC00"/>
<path d="M74.559 66.7491C74.559 67.2553 74.7283 67.7616 74.7283 68.2678C75.0669 69.449 76.9292 68.9428 76.5906 67.7616C76.4213 67.2553 76.252 66.7491 75.9134 66.4116C75.7441 65.7367 74.559 66.0741 74.559 66.7491Z" fill="#B4CC00"/>
<path d="M80.6538 101.174C80.4845 100.667 80.3153 100.161 79.9767 99.6549C79.638 99.3174 78.7915 99.1487 78.7915 99.8237C78.6222 100.499 78.7915 101.005 78.9608 101.68C79.1301 102.692 80.9925 102.186 80.6538 101.174Z" fill="#B4CC00"/>
<path d="M79.4688 38.9069V38.7381C79.6381 37.7256 77.7757 37.7256 77.7757 38.7381V38.9069C77.945 39.9193 79.2995 39.9193 79.4688 38.9069Z" fill="#B4CC00"/>
<path d="M81.839 87.505C81.3311 86.83 80.3153 86.83 79.8074 87.505C79.1301 88.3487 79.2995 90.8799 80.8232 90.8799C82.3469 90.8799 82.5162 88.3487 81.839 87.505Z" fill="#B4CC00"/>
<path d="M80.146 47.3426C80.146 47.1739 80.146 47.1739 80.146 47.3426C80.146 46.3301 78.6222 46.3301 78.6222 47.3426C78.6222 48.3551 80.146 48.3551 80.146 47.3426Z" fill="#B4CC00"/>
<path d="M82.5162 60.8436C82.6855 60.8436 82.8548 60.8436 83.0241 60.6748C83.3627 60.5061 83.532 59.9999 83.3627 59.6624C83.1934 59.4937 83.1934 59.1561 83.1934 58.9874C83.0241 57.9749 81.5004 57.9749 81.5004 58.9874C81.5004 59.3249 81.5004 59.8311 81.6697 60.1686C81.6697 60.5061 82.1776 60.8436 82.5162 60.8436Z" fill="#B4CC00"/>
<path d="M93.8594 45.9929C93.8594 45.3179 93.6901 44.8117 93.1822 44.3055C92.6743 43.7992 91.9971 43.7992 91.4892 44.3055C90.9813 44.8117 90.812 45.3179 90.812 45.9929C90.6427 47.8491 94.0287 47.8491 93.8594 45.9929Z" fill="#B4CC00"/>
<path d="M71.5116 79.4046C71.173 79.0671 70.8343 78.7296 70.665 78.3921C70.1571 77.8859 69.1413 78.2234 69.1413 79.0672C69.1413 79.7421 69.3106 80.0796 69.4799 80.5859C70.1571 81.9358 72.3581 80.5858 71.5116 79.4046Z" fill="#B4CC00"/>
<path d="M83.3627 79.2367C84.0399 78.5617 84.0399 77.5493 83.7013 76.7055C83.3627 75.8618 82.1776 75.8618 81.839 76.7055C81.6697 77.3805 81.5004 78.2243 81.6697 78.7305C82.0083 79.4055 82.8548 79.9117 83.3627 79.2367Z" fill="#B4CC00"/>
<path opacity="0.7" d="M101.139 37.894C106.049 43.9689 109.266 53.2499 109.266 66.412C109.266 86.9989 98.4306 109.442 88.6111 112.817C86.5794 113.492 80.146 112.817 80.146 112.817C79.9766 112.648 79.6381 112.479 79.4688 112.311C80.9925 113.998 82.3469 115.348 83.532 116.192H91.9971C100.293 109.948 112.652 90.3738 112.652 69.7869C112.652 53.9249 108.081 43.4626 101.139 37.894Z" fill="#3D5C05"/>
<path d="M79.4688 136.442C77.945 135.43 75.2362 136.949 74.0511 137.961C72.866 138.973 70.3264 140.83 70.3264 142.517C70.3264 142.855 70.665 143.192 71.0036 143.023C71.6809 142.855 71.8502 142.348 72.3581 141.842C73.0353 141.167 73.7125 140.492 74.559 140.155C75.4055 139.648 76.252 139.311 77.0985 138.973C77.945 138.636 78.7915 138.805 79.4688 138.298C80.146 137.961 80.146 136.949 79.4688 136.442Z" fill="#804B20"/>
<path d="M41.2065 150.952C40.3599 150.277 39.5134 149.77 38.6669 148.927C37.8204 148.083 37.3125 147.07 36.8046 146.058C36.466 145.383 36.1274 141.671 34.9423 142.177C34.9423 142.177 34.773 142.177 34.773 142.346C34.4344 142.514 34.4344 142.852 34.4344 143.021C34.4344 146.564 36.1274 152.808 40.5293 152.977C41.3758 152.977 41.8837 151.627 41.2065 150.952Z" fill="#804B20"/>
<path d="M63.3851 98.9795C62.5385 96.7858 61.0148 94.7609 59.3218 93.2422C58.4753 92.3985 55.5971 90.2048 54.5813 91.5548C54.5813 91.5548 54.412 91.7235 54.5813 91.8922C54.9199 92.3984 55.4278 92.3985 55.9358 92.5672C56.9516 92.9047 57.6288 93.5797 58.4753 94.2547C59.8297 95.6046 61.1841 97.4608 61.692 99.317C61.8613 100.667 63.893 100.161 63.3851 98.9795Z" fill="#804B20"/>
<path d="M62.1999 98.1355C57.4595 90.8795 50.5181 88.6858 43.4074 94.4231C37.4818 99.148 31.7255 108.766 33.5878 116.529C33.5878 116.697 32.7413 118.385 33.0799 118.891C33.4186 119.566 34.773 119.06 34.9423 119.229C35.4502 119.566 35.7888 120.916 36.8046 120.579C37.1432 120.41 38.159 119.06 38.4976 119.06C47.6399 116.191 70.665 111.129 62.1999 98.1355Z" fill="#CC4215"/>
<path d="M35.9581 146.396C39.1748 154.158 45.439 157.364 53.2269 153.314C59.1525 150.108 65.7553 143.021 66.4325 135.765C66.4325 135.09 67.9562 133.571 67.9562 132.896C67.9562 132.39 66.0939 131.715 66.0939 131.546C65.9246 131.04 66.2632 129.859 65.7553 129.69C65.4167 129.521 64.2315 130.196 63.5543 130.365C55.7664 131.546 29.8632 131.715 35.9581 146.396Z" fill="#CC4215"/>
<path d="M94.5366 147.071C91.9971 142.178 87.5953 138.128 82.1776 136.947C79.4688 136.44 77.2678 137.453 75.7441 139.14C74.0511 139.647 72.866 139.984 71.8502 141.672C70.4957 144.034 70.3264 146.396 70.8343 149.096C72.0195 154.665 76.252 158.715 80.9925 161.583C82.8548 162.596 86.2408 164.79 89.4576 165.633C90.9813 165.971 93.1822 167.152 94.3674 166.983C95.3832 166.815 95.5525 165.127 96.2297 164.283C96.9069 163.271 97.5841 164.283 97.9227 163.102C98.2613 161.752 97.9227 158.377 97.9227 157.027C97.2455 153.315 95.8911 149.94 94.5366 147.071Z" fill="#CC4215"/>
<path d="M43.4074 94.2546C38.6669 97.967 34.0958 104.885 33.4186 111.635C37.6511 113.66 44.7618 112.479 51.1953 108.26C56.2743 105.054 59.8297 100.667 61.0148 96.617C56.4436 90.5422 50.0102 89.1922 43.4074 94.2546Z" fill="#FF7547"/>
<path d="M59.999 130.872C49.8409 131.885 30.7097 133.741 36.1274 146.566C36.8046 148.253 37.6511 149.603 38.4976 150.784C42.053 150.447 45.9469 148.928 49.6716 146.566C56.4437 142.01 60.5069 135.597 59.999 130.872Z" fill="#FF7547"/>
<path d="M82.0083 136.947C79.2994 136.44 77.0985 137.453 75.5748 139.14C73.8818 139.647 72.6966 139.984 71.6808 141.672C70.3264 144.034 70.1571 146.396 70.665 149.096C71.8502 154.665 76.0827 158.715 80.8232 161.583C81.3311 161.921 82.0083 162.258 82.8548 162.765C85.225 163.271 87.4259 162.765 89.119 161.583C93.5208 158.04 92.1664 148.928 86.0715 141.165C84.7171 139.478 83.3627 138.128 82.0083 136.947Z" fill="#FF7547"/>
<path d="M47.9507 96.5478C50.2233 95.6871 51.8501 94.4244 51.5844 93.7274C51.3187 93.0305 49.2611 93.1632 46.9885 94.0239C44.7159 94.8846 43.089 96.1472 43.3547 96.8442C43.6204 97.5412 45.6781 97.4085 47.9507 96.5478Z" fill="#FFE084"/>
<path d="M41.3879 140.167C43.1006 138.448 44.1124 136.681 43.6479 136.221C43.1834 135.762 41.4185 136.783 39.7058 138.503C37.9931 140.223 36.9812 141.989 37.4457 142.449C37.9102 142.908 39.6752 141.887 41.3879 140.167Z" fill="#FFE084"/>
<path d="M74.3849 151.776C75.2211 151.682 75.6777 149.654 75.4047 147.246C75.1317 144.838 74.2325 142.963 73.3963 143.057C72.56 143.151 72.1035 145.179 72.3765 147.587C72.6495 149.995 73.5487 151.87 74.3849 151.776Z" fill="#FFE084"/>
<path d="M48.4865 95.2676C48.1478 95.2676 47.8092 95.0988 47.4706 94.9301C47.132 94.5926 46.9627 94.2551 46.9627 93.9176C46.9627 93.5801 47.132 93.0739 47.4706 92.9051C47.8092 92.5677 48.3171 92.3989 48.6558 92.3989C48.9944 92.3989 49.5023 92.5677 49.6716 92.9051L49.8409 93.0739C50.1795 93.5801 50.1795 94.2551 49.8409 94.7613L49.6716 94.9301C49.1637 95.0988 48.8251 95.2676 48.4865 95.2676Z" fill="#AD2300"/>
<path d="M53.2269 97.7978C53.0576 97.7978 52.719 97.7978 52.5497 97.6291C52.0418 97.4603 51.7032 97.1228 51.7032 96.4478C51.7032 95.7729 52.0418 95.4353 52.5497 95.2666C52.719 95.2666 52.8883 95.0979 53.2269 95.0979C53.5655 95.0979 53.7348 95.0979 54.0734 95.2666C54.412 95.4353 54.5813 95.7728 54.5813 96.2791C54.5813 96.6166 54.412 97.1228 54.0734 97.2916C53.7348 97.7978 53.5655 97.7978 53.2269 97.7978Z" fill="#AD2300"/>
<path d="M59.1525 102.185C58.9832 102.185 58.8139 102.185 58.6446 102.016C57.6288 101.679 56.4436 100.498 56.4436 99.3165C56.4436 98.4728 57.1209 97.9666 57.7981 97.9666H57.9674H58.1367C58.9832 98.1353 59.8297 98.8103 60.3376 99.4852C60.6762 99.9915 60.6762 100.498 60.5069 101.173C60.3376 101.848 59.8297 102.185 59.1525 102.185Z" fill="#AD2300"/>
<path d="M59.999 107.754C59.3218 107.754 58.8139 107.416 58.4753 106.91C58.1367 106.404 58.306 105.897 58.4753 105.391L58.6446 105.222C59.1525 104.547 59.6604 104.379 59.999 104.379C61.0148 104.379 61.692 105.222 61.692 106.066C61.692 106.91 61.1841 107.585 60.3376 107.754H59.999Z" fill="#AD2300"/>
<path d="M43.5767 100.33C43.0688 100.33 42.7302 100.161 42.3916 99.9926C41.7144 99.4863 41.3758 98.6426 41.7144 97.7989C42.053 97.1239 42.7302 96.6177 43.5767 96.6177C43.9153 96.6177 44.0846 96.6177 44.4232 96.7864C45.2697 97.1239 45.7776 97.7989 45.6083 98.6426C45.439 99.4863 44.7618 100.161 43.9153 100.33C43.746 100.33 43.5767 100.33 43.5767 100.33Z" fill="#AD2300"/>
<path d="M49.8409 104.547C49.1637 104.547 48.6557 104.041 48.4864 103.366C48.3171 102.691 48.6557 102.185 49.1637 101.848C49.5023 101.679 49.6716 101.51 50.1795 101.51H50.5181C51.1953 101.51 51.7032 102.185 51.8725 102.691C52.0418 103.197 51.7032 103.872 51.026 104.041C50.6874 104.21 50.5181 104.21 50.3488 104.379H50.1795L49.8409 104.547Z" fill="#AD2300"/>
<path d="M53.9041 110.285H53.7348C53.0576 109.947 52.719 109.61 52.5497 109.104C52.3804 108.766 52.3804 108.26 52.5497 107.922C52.719 107.585 53.0576 107.416 53.5655 107.416C54.2427 107.416 54.7506 107.754 54.9199 108.091C55.2585 108.429 55.2585 108.935 55.0892 109.441C55.0892 109.947 54.5813 110.285 53.9041 110.285Z" fill="#AD2300"/>
<path d="M45.9469 110.961C45.439 110.961 44.9311 110.793 44.7618 110.286C44.4232 109.949 44.4232 109.443 44.5925 108.936V108.768C44.7618 108.093 45.439 107.586 46.1162 107.586C46.6241 107.586 46.9627 107.755 47.3013 108.093C47.6399 108.43 47.8092 108.768 47.8092 109.274C47.8092 109.949 47.3013 110.624 46.6241 110.793L46.2855 110.961H45.9469Z" fill="#AD2300"/>
<path d="M39.5134 106.403C38.8362 106.403 38.3283 105.897 38.159 105.391C37.9897 104.885 38.159 104.21 38.4976 103.872C39.0055 103.535 39.3441 103.197 40.0213 103.197C40.8679 103.197 41.5451 103.872 41.7144 104.547C41.8837 105.391 41.3758 106.066 40.5293 106.235C40.1906 106.235 40.0213 106.403 39.6827 106.403H39.5134Z" fill="#AD2300"/>
<path d="M39.852 115.349C39.1748 115.349 38.6669 114.843 38.4976 114.168C38.3283 113.493 38.6669 112.818 39.1748 112.48L39.3441 112.312C39.6827 112.143 39.852 112.143 40.1906 112.143C40.6985 112.143 41.2065 112.48 41.5451 112.987C41.7144 113.324 42.053 114.337 40.6985 115.012C40.3599 115.18 40.1906 115.349 39.852 115.349Z" fill="#AD2300"/>
<path d="M39.5134 139.14C39.0055 139.14 38.4976 138.803 38.159 138.297C37.9897 137.79 37.9897 137.115 38.3283 136.778C38.8362 136.272 39.3441 135.934 40.0213 135.934C40.8678 135.934 41.5451 136.44 41.5451 137.284C41.5451 138.128 41.0371 138.803 40.1906 138.972C40.0213 138.972 40.0213 138.972 40.0213 138.972C39.852 139.14 39.6827 139.14 39.5134 139.14Z" fill="#AD2300"/>
<path d="M41.3758 147.577C41.2065 147.577 40.8679 147.577 40.6986 147.409C40.0213 147.24 39.5134 146.565 39.5134 145.721C39.5134 144.877 40.0213 144.371 40.6986 144.034C41.0372 143.865 41.2065 143.865 41.3758 143.865C41.8837 143.865 42.2223 144.034 42.5609 144.202C43.0688 144.54 43.4074 145.046 43.4074 145.721C43.4074 146.396 43.0688 146.902 42.5609 147.24C42.2223 147.409 41.8837 147.577 41.3758 147.577Z" fill="#AD2300"/>
<path d="M45.6083 153.991C45.2697 153.991 44.9311 153.823 44.5925 153.654C44.2539 153.485 43.9153 153.148 43.9153 152.641C43.746 152.304 43.9153 151.798 44.0846 151.46C44.4232 150.954 44.7618 150.785 45.439 150.616C45.6083 150.616 45.7776 150.616 45.9469 150.616C46.7934 150.616 47.4706 151.291 47.6399 152.304C47.6399 153.148 47.132 153.823 46.2855 153.991C45.9469 153.991 45.7776 153.991 45.6083 153.991Z" fill="#AD2300"/>
<path d="M48.825 148.76C48.1478 148.76 47.4706 148.085 47.4706 147.242C47.4706 146.567 47.9785 145.892 48.825 145.892C49.1637 145.892 49.5023 145.892 49.8409 146.06C50.1795 146.229 50.3488 146.398 50.3488 146.735C50.5181 147.073 50.3488 147.41 50.3488 147.748C50.1795 148.085 50.0102 148.254 49.6716 148.423C49.5023 148.592 49.1637 148.76 48.825 148.76Z" fill="#AD2300"/>
<path d="M51.3646 152.472C51.1953 151.797 51.3646 151.122 52.0418 150.616L52.2111 150.447C52.5497 150.278 52.719 150.11 53.0576 150.11C53.7348 150.11 54.2427 150.447 54.5813 151.122C54.9199 151.628 51.7032 153.147 51.3646 152.472Z" fill="#AD2300"/>
<path d="M45.1004 140.152C44.4232 140.152 43.9153 139.646 43.746 138.971C43.5767 138.296 43.9153 137.621 44.5925 137.452C44.7618 137.452 44.9311 137.284 44.9311 137.284H45.1004H45.2697C45.7776 137.284 46.1162 137.621 46.2855 137.959C46.6241 138.802 46.4548 139.477 45.7776 139.984L45.6083 140.152C45.6083 139.984 45.2697 140.152 45.1004 140.152Z" fill="#AD2300"/>
<path d="M49.8409 135.261C49.5023 135.261 48.9944 135.092 48.6557 134.923C48.1478 134.586 47.9785 134.248 47.9785 133.742C47.9785 133.236 51.5339 132.561 51.7032 133.573C51.8725 134.417 51.1953 135.261 50.5181 135.429C50.1795 135.092 50.0102 135.261 49.8409 135.261Z" fill="#AD2300"/>
<path d="M51.026 142.515C50.5181 142.515 50.0102 142.346 49.6716 141.84C49.333 141.502 49.333 140.996 49.5023 140.49C49.8409 139.815 50.3488 139.478 50.8567 139.478C51.3646 139.478 51.7032 139.646 52.0418 139.984C52.3804 140.321 52.3804 140.827 52.3804 141.165C52.3804 142.177 51.8725 142.515 51.026 142.515Z" fill="#AD2300"/>
<path d="M55.4278 147.241C54.5813 147.241 53.9041 146.566 53.9041 145.722C53.9041 144.878 54.5813 144.203 55.4278 144.203C55.7664 144.203 55.9357 144.372 56.2743 144.541C56.7822 144.878 56.9516 145.216 56.9516 145.722C56.9516 146.228 56.7822 146.566 56.2743 146.903C55.9357 147.072 55.7664 147.241 55.4278 147.241Z" fill="#AD2300"/>
<path d="M62.0306 143.697C61.5227 143.697 60.8455 143.359 60.6762 142.684C60.5069 142.178 60.6762 141.672 61.0148 141.334C61.3534 140.997 61.692 140.997 62.0306 140.997C62.5385 140.997 63.0464 141.334 63.2157 141.672C63.385 142.178 63.3851 142.684 63.0465 143.022C62.8771 143.528 62.3692 143.697 62.0306 143.697Z" fill="#AD2300"/>
<path d="M56.4437 139.648C55.7664 139.648 55.2585 139.31 54.9199 138.635C54.7506 138.129 54.9199 137.454 55.2585 137.116C55.4278 136.948 55.7664 136.779 56.1051 136.61H56.2744C56.7823 136.61 57.2902 136.948 57.4595 137.285C57.6288 137.623 57.6288 137.791 57.6288 138.298C57.7981 139.141 57.1209 139.648 56.4437 139.648Z" fill="#AD2300"/>
<path d="M73.5432 149.94H73.3739C72.866 149.771 72.3581 149.433 72.1887 148.927C72.0194 148.421 72.0195 147.915 72.3581 147.577C72.5274 147.24 72.866 147.071 73.2046 147.071H73.5432L73.8818 147.409C74.3897 147.746 74.559 148.252 74.7283 148.758C74.7283 149.096 74.7283 149.433 74.3897 149.602C74.3897 149.771 74.0511 149.94 73.5432 149.94Z" fill="#AD2300"/>
<path d="M78.9608 144.54C78.7915 144.54 78.4529 144.54 78.2836 144.371C78.1143 144.371 77.7757 144.203 77.6064 144.034C77.0985 143.697 76.7599 142.853 76.9292 142.178C77.0985 141.503 77.7757 140.997 78.4529 140.997C78.6222 140.997 78.7915 140.997 79.1302 141.165C79.4688 141.334 79.6381 141.334 79.9767 141.672C80.6539 142.178 80.8232 142.853 80.6539 143.528C80.3153 144.034 79.638 144.54 78.9608 144.54Z" fill="#AD2300"/>
<path d="M83.0241 141.336C82.5162 141.336 82.0083 140.998 81.839 140.829C81.5004 140.492 81.3311 140.154 81.3311 139.817C81.3311 139.479 81.5004 138.973 81.839 138.804C82.0083 138.636 82.3469 138.298 83.0241 138.298H83.1934C84.0399 138.298 84.5478 138.973 84.5478 139.817C84.5478 140.661 84.0399 141.167 83.1934 141.336H83.0241Z" fill="#AD2300"/>
<path d="M88.4418 145.214H88.2725C87.9338 145.046 87.7646 145.046 87.5953 144.877C87.2567 144.54 87.0873 144.033 87.2566 143.696C87.4259 143.19 87.9339 142.852 88.4418 142.852H88.6111H88.7804C89.4576 143.021 89.7962 143.527 89.7962 144.033V144.202C89.7962 144.539 89.6269 144.708 89.4576 145.046C89.119 145.046 88.7804 145.214 88.4418 145.214Z" fill="#AD2300"/>
<path d="M84.2092 147.073H83.8706H83.7013C83.1934 146.904 82.8548 146.398 82.6855 145.723C82.6855 145.385 82.6855 145.216 82.6855 144.879C82.8548 144.373 83.1934 144.035 83.7013 144.035H83.8706H84.0399C84.3785 144.035 84.5478 144.204 84.7171 144.373C85.225 144.71 85.5636 145.216 85.3943 145.891V146.06C85.5636 146.566 85.0557 147.073 84.2092 147.073Z" fill="#AD2300"/>
<path d="M78.4529 151.965C78.1143 151.965 77.945 151.796 77.6064 151.627C77.2678 151.29 77.0985 151.121 76.9292 150.784C76.7599 150.446 76.5906 149.94 76.9292 149.602C77.0985 149.265 77.6064 148.927 77.945 148.927C78.4529 148.927 78.9609 149.265 79.1302 149.771C79.2995 150.109 79.4688 150.446 79.4688 150.784C79.4688 151.121 79.4688 151.459 79.2995 151.627C79.1301 151.796 78.7915 151.965 78.4529 151.965Z" fill="#AD2300"/>
<path d="M75.4055 156.689C75.0669 156.689 74.8976 156.689 74.7283 156.521L74.559 156.352C74.0511 156.014 73.7125 155.34 74.0511 154.833C74.2204 154.158 74.8976 153.821 75.4055 153.821C75.7441 153.821 76.252 153.99 76.4213 154.327C76.5906 154.665 76.7599 154.833 76.9292 155.171C77.0985 155.677 76.7599 156.352 76.4213 156.521C75.9134 156.521 75.7441 156.689 75.4055 156.689Z" fill="#AD2300"/>
<path d="M81.1618 159.727C80.8232 159.727 80.4846 159.558 80.3153 159.221L80.146 159.052C79.8073 158.715 79.8074 158.209 79.9767 157.871C80.146 157.534 80.6539 157.196 81.1618 157.196C81.6697 157.196 82.1776 157.534 82.3469 158.04V158.209C82.5162 158.715 82.3469 159.221 81.839 159.39H81.6697C81.3311 159.727 81.3311 159.727 81.1618 159.727Z" fill="#AD2300"/>
<path d="M84.8864 153.484C84.0399 153.484 83.3627 152.977 83.1934 152.134C83.0241 151.796 83.1934 151.29 83.3627 150.953C83.532 150.615 84.0399 150.446 84.5478 150.446H84.7171C85.7329 150.615 86.4101 151.459 86.2408 152.302C86.2408 152.809 85.9022 153.146 85.3943 153.315C85.0557 153.484 85.0557 153.484 84.8864 153.484Z" fill="#AD2300"/>
<path d="M90.9813 151.628C90.4734 151.628 89.9655 151.29 89.6269 150.953L89.4576 150.784C89.119 150.278 89.119 149.771 89.4576 149.265C89.7962 148.759 90.3041 148.421 90.812 148.421C91.1506 148.421 91.3199 148.421 91.6585 148.59C92.3357 148.928 92.505 149.434 92.505 150.109C92.505 150.615 92.1664 151.121 91.8278 151.29C91.4892 151.628 91.1506 151.628 90.9813 151.628Z" fill="#AD2300"/>
<path d="M86.4101 159.221C86.2408 159.221 86.0715 159.221 85.9022 159.052C85.5636 158.884 84.8864 158.715 84.5478 157.871C84.3785 157.365 84.3785 157.027 84.7171 156.69C85.0557 156.184 85.5636 156.015 86.2408 156.015C86.4101 156.015 86.918 156.015 87.2566 156.352C87.7645 156.69 88.1032 157.534 87.9339 158.209C87.7646 158.884 87.0873 159.221 86.4101 159.221Z" fill="#AD2300"/>
<path d="M48.9944 93.5796C48.8251 93.4109 48.8251 93.5796 48.9944 93.5796C48.6558 93.2421 48.3171 93.2422 47.9785 93.4109C47.9785 93.4109 47.9785 93.4109 47.8092 93.5796C47.6399 93.7484 47.6399 94.0859 47.8092 94.2546C47.8092 94.2546 47.8092 94.2546 47.9785 94.4233C48.1478 94.5921 48.6558 94.7608 48.8251 94.4233C48.8251 94.4233 48.8251 94.2546 48.9944 94.2546C48.9944 93.9171 48.9944 93.7484 48.9944 93.5796Z" fill="#AD2300"/>
<path d="M53.7348 96.4476C53.3962 96.2789 53.2269 96.2789 52.8883 96.4476C52.5497 96.4476 52.5497 96.9538 52.8883 96.9538C53.2269 97.1226 53.3962 97.1226 53.7348 96.9538C53.9041 96.7851 53.9041 96.6163 53.7348 96.4476Z" fill="#AD2300"/>
<path d="M59.8297 100.16C59.4911 99.6543 58.6446 99.148 57.9674 98.8105C57.6288 98.6418 57.2902 98.9793 57.2902 99.3168C57.2902 100.16 58.1367 101.004 58.8139 101.173C59.6604 101.51 60.3376 100.667 59.8297 100.16Z" fill="#AD2300"/>
<path d="M59.3218 105.56C59.3218 105.56 59.3218 105.729 59.1525 105.729C58.8139 106.404 59.3218 106.91 59.999 106.91H60.1683C61.8613 106.573 60.3376 104.042 59.3218 105.56Z" fill="#AD2300"/>
<path d="M44.0846 97.6307C43.4074 97.4619 42.7302 97.4619 42.3916 98.3056C42.2223 98.6431 42.2223 99.1493 42.7302 99.4868C43.0688 99.6556 43.4074 99.6556 43.9153 99.6556C44.9311 99.3181 45.2697 97.9681 44.0846 97.6307Z" fill="#AD2300"/>
<path d="M50.3488 102.523C50.0102 102.523 49.8409 102.523 49.5023 102.692C48.8251 103.029 49.333 103.873 50.0102 103.704C50.1795 103.704 50.3488 103.535 50.6874 103.535C51.1953 103.198 50.8567 102.523 50.3488 102.523Z" fill="#AD2300"/>
<path d="M53.5655 108.259C53.2269 108.259 53.2269 108.597 53.2269 108.765C53.3962 109.103 53.5655 109.44 54.0734 109.44C54.2427 109.44 54.2427 109.44 54.412 109.272C54.412 108.597 54.0734 108.259 53.5655 108.259Z" fill="#AD2300"/>
<path d="M46.6241 108.767C46.1162 108.261 45.6083 108.598 45.2697 109.104V109.273C45.1004 109.779 45.6083 110.117 46.1162 110.117H46.2855C46.6241 109.948 46.7934 109.779 46.7934 109.442C46.9627 109.104 46.7934 108.936 46.6241 108.767Z" fill="#AD2300"/>
<path d="M47.3013 114.84C47.132 114.84 47.132 114.84 47.3013 114.84C46.9627 115.009 46.9627 115.346 47.132 115.515C47.132 115.515 47.132 115.515 47.3013 115.515C47.8092 115.515 47.8092 114.671 47.3013 114.84Z" fill="#AD2300"/>
<path d="M40.1906 103.873C39.6827 103.873 39.5134 104.041 39.1748 104.21C38.6669 104.716 39.1748 105.391 39.6827 105.391C40.0214 105.391 40.1907 105.391 40.5293 105.223C41.2065 105.223 41.0372 104.041 40.1906 103.873Z" fill="#AD2300"/>
<path d="M40.6985 113.323C40.5292 112.985 40.1906 112.985 39.852 113.154C39.852 113.154 39.6827 113.154 39.6827 113.323C39.0055 113.66 39.6827 114.842 40.3599 114.335C40.5292 114.167 40.8679 113.829 40.6985 113.323Z" fill="#AD2300"/>
<path d="M40.1906 136.779C39.6827 136.779 39.3441 136.947 39.0055 137.285C38.6669 137.791 39.1748 138.466 39.6827 138.129C39.852 138.129 40.0213 137.96 40.1906 137.96C41.0372 137.96 41.0372 136.779 40.1906 136.779Z" fill="#AD2300"/>
<path d="M42.053 145.047C41.5451 144.879 41.3758 144.71 40.8679 144.879C40.0213 145.216 40.0213 146.397 40.8679 146.566C41.3758 146.735 41.7144 146.735 42.053 146.397C42.7302 146.229 42.7302 145.385 42.053 145.047Z" fill="#AD2300"/>
<path d="M45.6083 151.459C45.2697 151.628 44.9311 151.797 44.7618 152.134C44.5925 152.472 44.7618 152.809 44.9311 152.978C45.2697 153.147 45.6083 153.147 45.9469 153.147C47.132 152.978 46.6241 151.122 45.6083 151.459Z" fill="#AD2300"/>
<path d="M49.5023 146.904C49.333 146.735 49.1637 146.735 48.9944 146.735C47.9786 146.735 48.6558 148.254 49.333 147.748C49.5023 147.579 49.6716 147.579 49.8409 147.241C49.6716 147.241 49.6716 146.904 49.5023 146.904Z" fill="#AD2300"/>
<path d="M52.719 151.121C51.5339 151.965 52.8883 153.483 53.7348 152.302C53.7348 152.302 53.7348 152.133 53.9041 152.133C54.2427 151.627 53.3962 150.615 52.719 151.121Z" fill="#AD2300"/>
<path d="M45.7776 138.298C45.6083 137.96 45.439 137.96 45.2697 137.96C45.1004 137.96 45.1004 137.96 44.9311 138.129C44.0846 138.467 44.5925 139.479 45.439 139.142C45.439 139.142 45.6083 139.142 45.6083 138.973C45.7776 138.973 45.9469 138.635 45.7776 138.298Z" fill="#AD2300"/>
<path d="M50.0102 132.728C49.6716 132.728 49.333 132.728 49.1637 133.065C48.8251 133.403 48.6558 133.909 49.1637 134.247C49.5023 134.584 49.8409 134.584 50.3488 134.415C51.1953 134.078 51.026 132.559 50.0102 132.728Z" fill="#AD2300"/>
<path d="M50.3488 140.827C50.0102 141.671 51.3646 142.008 51.5339 141.164C51.7032 140.489 50.6874 140.152 50.3488 140.827Z" fill="#AD2300"/>
<path d="M55.7665 145.216C55.4278 144.878 54.7506 145.216 54.7506 145.722C54.7506 146.06 55.2585 146.566 55.5971 146.228C56.105 145.891 56.1051 145.553 55.7665 145.216Z" fill="#AD2300"/>
<path d="M61.692 142.009C61.1841 142.515 61.8613 143.359 62.3692 142.853C62.8771 142.178 62.1999 141.503 61.692 142.009Z" fill="#AD2300"/>
<path d="M56.9515 137.622C56.7822 137.453 56.6129 137.284 56.4436 137.453C56.2743 137.453 56.105 137.622 55.9357 137.79C55.0892 138.634 56.9515 139.478 57.1208 138.297C57.1208 137.959 56.9515 137.79 56.9515 137.622Z" fill="#AD2300"/>
<path d="M73.5432 147.915C73.3739 147.746 73.2046 147.915 73.2046 147.915C72.866 148.421 73.2046 148.927 73.7125 149.096C73.8818 149.096 74.0511 148.927 74.0511 148.758C73.8818 148.421 73.7125 148.083 73.5432 147.915Z" fill="#AD2300"/>
<path d="M79.2995 142.179C79.1302 142.01 78.7916 142.01 78.6223 141.841C77.7757 141.504 77.2678 142.854 77.945 143.36C78.1143 143.529 78.2836 143.529 78.4529 143.698C79.4688 144.035 80.146 142.854 79.2995 142.179Z" fill="#AD2300"/>
<path d="M83.0241 139.141C82.6855 139.141 82.5162 139.141 82.3469 139.31C82.1776 139.478 82.1776 139.985 82.3469 140.153C82.5162 140.322 82.6855 140.491 83.0241 140.322C83.8706 140.491 83.8706 139.31 83.0241 139.141Z" fill="#AD2300"/>
<path d="M88.7804 143.866C88.7804 143.697 88.6111 143.528 88.4418 143.528H88.2725C87.9339 143.528 87.5953 143.866 87.9339 144.034C88.1032 144.203 88.2725 144.203 88.4418 144.372C88.6111 144.372 88.7804 144.203 88.7804 144.203C88.7804 144.034 88.7804 143.866 88.7804 143.866Z" fill="#AD2300"/>
<path d="M84.5478 145.046C84.3785 144.878 84.2092 144.878 84.0399 144.878C83.8706 144.878 83.7013 144.878 83.7013 145.046C83.7013 145.215 83.7013 145.384 83.7013 145.553C83.7013 145.89 83.8706 146.059 84.2092 146.059H84.3785C84.5478 146.059 84.8864 146.059 84.8864 145.721V145.553C84.8864 145.384 84.8864 145.215 84.5478 145.046Z" fill="#AD2300"/>
<path d="M78.4529 149.939C78.2836 149.433 77.4371 149.771 77.7757 150.277C77.945 150.614 78.1143 150.783 78.2836 151.121C78.453 151.289 78.7915 151.121 78.6222 150.952C78.6222 150.446 78.6222 150.108 78.4529 149.939Z" fill="#AD2300"/>
<path d="M75.7441 154.664C75.2362 153.99 74.2204 155.002 75.0669 155.677L75.2362 155.846C75.4055 156.014 75.5748 156.014 75.7441 155.846C75.7441 155.846 75.7441 155.846 75.9134 155.846C76.0827 155.846 76.0827 155.508 76.0827 155.339C75.9134 155.002 75.9134 154.833 75.7441 154.664Z" fill="#AD2300"/>
<path d="M81.3311 158.376C81.1618 157.87 80.4846 158.208 80.6539 158.714L80.8232 158.883C80.8232 159.051 80.9925 159.051 81.1618 159.051H81.3311L81.5004 158.883C81.5004 158.545 81.3311 158.376 81.3311 158.376Z" fill="#AD2300"/>
<path d="M84.3785 151.459C84.0399 151.459 83.7013 151.628 83.8706 151.965C84.0399 152.472 84.5478 152.809 85.0557 152.64C85.225 152.64 85.225 152.472 85.225 152.472C85.3943 151.797 84.8864 151.459 84.3785 151.459Z" fill="#AD2300"/>
<path d="M91.1506 149.434C90.6427 149.097 89.9655 149.772 90.3041 150.278C90.3041 150.278 90.3041 150.447 90.4734 150.447C90.6427 150.784 91.1506 150.953 91.4892 150.616C91.4892 150.616 91.4892 150.616 91.6585 150.616C91.8278 150.616 91.8278 150.278 91.8278 150.278C91.6585 149.772 91.4892 149.603 91.1506 149.434Z" fill="#AD2300"/>
<path d="M86.7488 157.027C86.2409 156.69 85.0557 156.859 85.3943 157.702C85.5636 158.04 85.9022 158.209 86.2409 158.377C87.0874 158.715 87.426 157.534 86.7488 157.027Z" fill="#AD2300"/>
</svg>
