<svg width="200" height="200" viewBox="0 0 200 200" fill="none" xmlns="http://www.w3.org/2000/svg">
<path d="M169.855 167.211C166.711 170.356 162.45 172.031 158.042 172.208C157.866 172.237 157.719 172.237 157.543 172.237L126.217 172.707L112.405 172.913V173.295L100.004 173.119L87.6033 173.295V172.913L78.0528 172.766L68.2378 172.619L42.4661 172.237C37.8818 172.149 33.3858 170.473 30.1533 167.211C26.7445 163.83 24.2172 158.598 27.5966 151.249C31.6519 142.431 33.0919 140.226 33.709 136.582C33.7971 136.052 33.8853 135.465 33.9441 134.847C34.1498 132.76 34.2085 129.997 34.3555 125.617C34.3555 125.412 34.3849 125.177 34.3849 124.971C34.4437 123.207 34.5024 121.208 34.5318 119.033C34.5612 118.328 34.5612 117.593 34.5612 116.858C34.6494 108.539 34.5906 98.1336 34.5024 88.404C34.5024 87.6692 34.4731 86.9343 34.4731 86.1994C34.4437 83.9361 34.4143 81.7315 34.4143 79.6151C34.3261 71.6492 34.2967 64.8884 34.3261 61.3023C34.3555 59.7444 35.2077 58.3629 36.5888 57.6868C36.9415 57.5398 37.2353 57.3341 37.4704 57.0989C38.352 56.3346 38.8516 55.1883 38.8516 53.9831V44.0771H161.01V53.9831C161.01 55.5704 161.892 56.9813 163.302 57.6574C163.449 57.7456 163.567 57.8044 163.714 57.8926C164.86 58.6274 165.565 59.8914 165.594 61.2729C165.653 64.8003 165.653 71.6786 165.594 79.7621C165.594 81.8785 165.565 84.083 165.565 86.3464C165.565 87.0813 165.536 87.7867 165.536 88.551C165.506 90.0207 165.506 91.5492 165.506 93.0484C165.477 101.632 165.447 110.274 165.477 117.005V119.18C165.506 121.414 165.506 123.354 165.536 124.941C165.536 125.206 165.565 125.5 165.565 125.764C165.682 131.261 165.712 134.171 166.094 136.493C166.153 136.67 166.182 136.876 166.211 137.052C166.917 140.432 168.445 142.813 172.324 151.22C175.791 158.598 173.264 163.83 169.855 167.211Z" fill="url(#paint0_linear_2006_76454)"/>
<path d="M89.8954 170.679L42.5248 169.944C38.3226 169.885 34.5024 168.298 31.7695 165.476C27.9493 161.566 27.2734 157.04 29.683 151.69C30.7409 149.338 31.6226 147.428 32.3572 145.87C34.5024 141.255 35.4721 139.139 35.9717 136.052C36.0598 135.435 36.148 134.788 36.2068 134.083C36.3831 132.113 36.4713 129.673 36.5888 125.97L36.6476 123.824C37.0002 113.154 36.8239 94.2825 36.7063 79.0856C36.6182 70.0909 36.5594 62.3601 36.6182 58.3919C36.6182 57.6864 37.0296 57.0397 37.6467 56.7164C38.1463 56.4812 38.6164 56.1285 39.0572 55.7464C40.409 54.5412 41.2024 52.7481 41.2024 50.8375V43.0186H158.835V50.8375C158.835 53.336 160.187 55.5994 162.362 56.7164C162.421 56.7458 162.479 56.7752 162.538 56.8046C163.096 57.1573 163.39 57.7452 163.42 58.3919C163.479 63.0068 163.42 73.5006 163.361 84.6117L163.332 90.9609C163.273 104.453 163.243 117.093 163.361 123.765L163.39 125.47C163.478 130.673 163.537 133.524 163.949 135.935L164.066 136.552C164.625 139.344 165.565 141.372 167.504 145.458C168.268 147.104 169.238 149.133 170.384 151.69C172.794 157.04 172.118 161.566 168.298 165.476C165.653 168.18 162.009 169.768 157.983 169.944C157.778 169.944 157.689 169.973 157.572 169.973L126.217 170.473L110.172 170.708V171.031L100.063 170.885L89.8954 171.031V170.679Z" fill="#B0BEEA"/>
<path opacity="0.8" d="M169.855 167.211C166.623 170.473 162.127 172.149 157.543 172.237L112.405 172.913V173.295L100.004 173.119L87.6034 173.295V172.913L42.4662 172.237C37.8819 172.178 33.3859 170.473 30.1534 167.211C26.774 163.83 24.2173 158.598 27.5967 151.249C32.2691 141.108 33.474 139.727 33.9442 134.818C59.4808 141.373 120.663 153.748 166.153 136.493C166.77 140.197 168.269 142.372 172.383 151.249C175.791 158.598 173.264 163.83 169.855 167.211Z" fill="#FFFFEE"/>
<path d="M167.475 146.105C163.714 138.286 163.626 137.933 163.39 126.646L163.361 125C163.214 117.387 163.273 101.308 163.361 87.1102C163.42 76.1755 163.479 65.858 163.39 61.3312C163.39 60.6552 162.979 60.0085 162.362 59.7145C160.804 58.9209 159.688 57.5687 159.159 55.9814H40.8499C40.321 57.5687 39.2043 58.9209 37.6468 59.7145C37.0297 60.0379 36.6477 60.6552 36.6183 61.3312C36.5596 65.1819 36.6183 72.7363 36.7064 81.4665C36.8534 96.2225 37.0003 114.623 36.6477 125L36.5595 127.528C36.2069 138.139 36.1481 138.492 32.2985 146.546C31.5638 148.074 30.7116 149.897 29.6537 152.16C27.2441 157.363 27.92 161.772 31.7402 165.593C34.4731 168.327 38.2933 169.885 42.4956 169.944L89.8661 170.649V170.943L100.034 170.796L110.143 170.943V170.649L157.513 169.944C161.715 169.885 165.536 168.327 168.269 165.593C172.089 161.772 172.765 157.392 170.355 152.16C169.209 149.691 168.269 147.722 167.475 146.105Z" fill="url(#paint1_linear_2006_76454)"/>
<path opacity="0.35" d="M161.098 44.1064H38.9397V51.4551H161.098V44.1064Z" fill="url(#paint2_linear_2006_76454)"/>
<g opacity="0.15">
<path d="M169.855 167.416C166.623 170.826 162.127 172.707 157.543 172.942C142.497 173.707 127.451 174.294 112.405 174.618C112.405 174.735 112.405 174.853 112.405 175C108.262 174.971 104.148 174.941 100.004 174.882C95.8609 174.941 91.7469 175 87.6034 175C87.6034 174.882 87.6034 174.765 87.6034 174.618C72.5577 174.265 57.5119 173.707 42.4662 172.942C37.8819 172.707 33.3859 170.826 30.1534 167.416C26.774 163.859 24.2173 158.539 27.5967 151.337C31.652 142.695 33.092 140.55 33.7091 136.934C77.8765 138.962 122.103 139.139 166.241 137.434C166.917 140.785 168.474 143.107 172.353 151.337C175.791 158.51 173.264 163.859 169.855 167.416Z" fill="url(#paint3_linear_2006_76454)"/>
</g>
<g style="mix-blend-mode:overlay" opacity="0.2">
<path d="M163.802 57.9218C121.721 56.2169 79.6102 55.9523 37.5292 57.0987C38.4108 56.3344 38.9397 55.2175 38.9397 54.0123V44.1357H161.098V53.9829C161.098 55.5408 161.98 56.9811 163.39 57.6866C163.537 57.7748 163.655 57.8336 163.802 57.9218Z" fill="url(#paint4_linear_2006_76454)"/>
</g>
<g opacity="0.1" style="mix-blend-mode:overlay">
<path d="M41.1732 60.9203C41.5552 61.2143 42.0547 61.3906 42.5543 61.42C58.3347 62.4782 71.9111 60.597 89.4547 60.8909C102.59 61.0967 115.726 62.0373 128.862 62.2137C129.655 62.2137 130.507 62.2137 131.213 61.8609C131.918 61.5082 132.388 60.6852 132.035 60.0091C131.712 59.4212 130.889 59.2448 130.155 59.1273C118.518 57.3636 106.646 57.393 94.8618 57.4224C78.9051 57.4518 62.8308 56.8933 46.8741 57.5106C45.5811 57.5693 37.9995 58.3336 41.1732 60.9203Z" fill="url(#paint5_linear_2006_76454)"/>
</g>
<g opacity="0.1" style="mix-blend-mode:overlay">
<path d="M32.9157 150.661C32.71 152.895 33.8855 155.364 36.0307 156.011C38.6167 156.775 41.0851 154.747 43.3478 153.336C47.6382 150.632 52.869 149.72 57.9822 149.691C63.066 149.662 68.1204 150.397 73.2043 150.661C74.9674 150.749 76.8187 150.779 78.4644 150.132C80.11 149.456 81.5499 147.927 81.5205 146.134C81.4911 143.313 78.288 141.755 75.5845 140.99C66.2103 138.433 56.4247 137.61 46.7567 138.521C40.2329 139.109 33.5622 143.224 32.9157 150.661Z" fill="url(#paint6_linear_2006_76454)"/>
</g>
<path opacity="0.1" d="M169.855 167.21C166.711 170.356 162.45 172.031 158.042 172.207C157.866 172.207 157.719 172.237 157.543 172.237L126.217 172.707L112.405 172.913V173.295L100.004 173.119L87.6034 173.295V172.913L78.0529 172.766L68.2085 172.619C73.3511 171.267 78.3761 169.386 83.166 167.093C95.567 161.155 106.587 152.631 117.019 143.665C127.098 134.994 136.767 125.794 145.935 116.152C152.753 108.98 158.718 100.367 165.536 93.1069C165.477 105.688 165.447 118.445 165.565 125C165.683 131.026 165.712 134.112 166.123 136.523C166.153 136.728 166.182 136.905 166.212 137.11C166.887 140.491 168.445 142.872 172.324 151.279C175.791 158.598 173.264 163.83 169.855 167.21Z" fill="white"/>
<path d="M165.594 93.0779C165.565 101.661 165.536 110.303 165.565 117.034V119.21C165.594 121.444 165.594 123.384 165.624 124.971C165.624 125.235 165.653 125.529 165.653 125.794C121.927 127.528 78.1411 127.469 34.4144 125.618C34.4144 125.412 34.4438 125.177 34.4438 124.971C34.5025 123.207 34.5613 121.208 34.5907 119.033C34.6201 118.328 34.6201 117.593 34.6201 116.858C34.7083 108.539 34.6495 98.1337 34.5614 88.4042C34.5614 87.6693 34.5319 86.9344 34.5319 86.1996C34.5026 83.9362 34.4732 81.7316 34.4732 79.6152C78.1705 81.5259 121.956 81.5847 165.683 79.7916C165.683 81.908 165.653 84.1126 165.653 86.376C165.653 87.1108 165.624 87.8163 165.624 88.5806C165.594 90.0797 165.594 91.5788 165.594 93.0779Z" fill="url(#paint7_linear_2006_76454)"/>
<path d="M165.624 86.4054C165.624 87.1402 165.594 87.8457 165.594 88.6099C121.926 90.3736 78.1703 90.3148 34.5024 88.4336C34.5024 87.6987 34.473 86.9639 34.473 86.229C78.1997 88.1103 121.926 88.169 165.624 86.4054Z" fill="url(#paint8_linear_2006_76454)"/>
<path d="M165.565 117.034V119.209C121.927 120.944 78.1999 120.914 34.5614 119.033C34.5908 118.328 34.5907 117.593 34.5907 116.858C78.1999 118.71 121.927 118.769 165.565 117.034Z" fill="url(#paint9_linear_2006_76454)"/>
<g opacity="0.1" style="mix-blend-mode:overlay">
<path d="M82.8135 57.2163C79.052 57.9805 80.1687 62.1251 80.1687 62.1251V138.639C75.2612 145.047 71.1177 156.364 72.6458 162.008C73.7625 166.152 76.995 169.033 78.0823 172.795L42.4956 172.266C37.2355 167.299 35.2372 165.241 34.5907 160.891C32.9744 149.691 41.0263 139.05 42.1136 137.14C43.3772 134.935 41.996 82.4367 41.5258 65.917C41.4671 63.4479 42.2605 61.0375 43.8767 59.1563C44.2588 58.7154 44.582 58.2157 44.7877 57.5984C45.2872 56.0699 46.0807 47.3397 45.346 42.6954C44.9934 40.432 42.907 40.2556 42.907 40.2556L75.6726 30.4673C75.6726 30.4673 82.2551 36.1698 83.0191 43.2833C83.7832 50.2498 84.6648 56.8341 82.8135 57.2163Z" fill="url(#paint10_linear_2006_76454)"/>
</g>
<g opacity="0.1" style="mix-blend-mode:overlay">
<path d="M158.307 171.825C158.071 171.943 157.778 172.119 157.543 172.237L126.217 172.707C129.449 160.244 132.594 142.019 124.307 138.61V62.1251C124.307 62.1251 125.335 57.9805 121.956 57.2163C120.31 56.8635 119.693 48.7507 121.632 42.3427C123.69 35.5525 128.362 30.4673 128.362 30.4673L157.66 40.2556C157.66 40.2556 157.425 41.8723 157.072 44.1357C156.426 48.78 155.515 56.0993 155.956 57.6278C156.073 58.0099 156.22 58.3627 156.426 58.6566C157.954 61.1845 158.924 64.0064 158.835 66.9752C158.395 84.5237 157.219 134.965 158.336 137.14C159.688 139.727 170.355 152.513 158.307 171.825Z" fill="url(#paint11_linear_2006_76454)"/>
</g>
<path d="M168.356 31.2312L167.093 39.8732L166.975 40.6375C166.681 42.6363 164.977 44.106 162.949 44.106H37.0589C35.0313 44.106 33.3268 42.6363 33.033 40.6375L32.9155 39.8732L31.6812 31.2312C31.5931 30.5846 31.6519 29.9673 31.8282 29.4088C32.3571 27.7921 33.8558 26.5869 35.7071 26.5869H164.331C166.153 26.5869 167.681 27.7921 168.21 29.4088C168.386 29.9967 168.445 30.614 168.356 31.2312Z" fill="url(#paint12_linear_2006_76454)"/>
<path d="M167.093 39.873L166.975 40.6373C166.681 42.6361 164.977 44.1059 162.949 44.1059H37.0588C35.0311 44.1059 33.3267 42.6361 33.0328 40.6373L32.9153 39.873H167.093Z" fill="url(#paint13_linear_2006_76454)"/>
<path opacity="0.8" d="M168.21 29.4088H31.8575C32.3865 27.7921 33.8852 26.5869 35.7366 26.5869H164.36C166.153 26.5869 167.681 27.7921 168.21 29.4088Z" fill="#FFFFEE"/>
<g opacity="0.2" style="mix-blend-mode:overlay">
<path d="M160.775 26.5869L156.308 44.106H127.216L126.217 26.5869H160.775Z" fill="url(#paint14_linear_2006_76454)"/>
</g>
<g opacity="0.2" style="mix-blend-mode:overlay">
<path d="M96.0075 26.5869L95.0965 44.106H41.643L39.1451 26.5869H96.0075Z" fill="#FFFFEE"/>
</g>
<g opacity="0.2" style="mix-blend-mode:overlay">
<path d="M81.9904 26.5869L81.4909 44.106H52.1929L50.8116 26.5869H81.9904Z" fill="#FFFFEE"/>
</g>
<g opacity="0.2" style="mix-blend-mode:overlay">
<path d="M115.638 25H91.3356V75.9406H115.638V25Z" fill="url(#paint15_linear_2006_76454)"/>
</g>
<path d="M112.17 27.1752V75.9112H87.868V27.1752C87.868 25.97 88.8378 25 90.0426 25H109.996C111.201 25 112.17 25.97 112.17 27.1752Z" fill="url(#paint16_linear_2006_76454)"/>
<path d="M91.7177 25H90.5713V75.9406H91.7177V25Z" fill="url(#paint17_linear_2006_76454)"/>
<path d="M109.467 25H108.321V75.9406H109.467V25Z" fill="url(#paint18_linear_2006_76454)"/>
<defs>
<linearGradient id="paint0_linear_2006_76454" x1="59.156" y1="184.595" x2="145.493" y2="35.0964" gradientUnits="userSpaceOnUse">
<stop stop-color="#CED1D9"/>
<stop offset="0.9946" stop-color="#C8CEE3"/>
</linearGradient>
<linearGradient id="paint1_linear_2006_76454" x1="28.2782" y1="113.49" x2="171.76" y2="113.49" gradientUnits="userSpaceOnUse">
<stop stop-color="#B7B02E"/>
<stop offset="0.0680557" stop-color="#CBC544"/>
<stop offset="0.1468" stop-color="#DBD555"/>
<stop offset="0.2325" stop-color="#E5DF5F"/>
<stop offset="0.3369" stop-color="#E8E262"/>
<stop offset="0.5708" stop-color="#D1CA49"/>
<stop offset="0.8241" stop-color="#BEB735"/>
<stop offset="0.9947" stop-color="#B7B02E"/>
</linearGradient>
<linearGradient id="paint2_linear_2006_76454" x1="83.1565" y1="77.0044" x2="116.895" y2="18.5834" gradientUnits="userSpaceOnUse">
<stop stop-color="#CCCCCC"/>
<stop offset="1" stop-color="#999999"/>
</linearGradient>
<linearGradient id="paint3_linear_2006_76454" x1="100.019" y1="174.982" x2="100.019" y2="136.929" gradientUnits="userSpaceOnUse">
<stop stop-color="#808080"/>
<stop offset="0.0114855" stop-color="#838383"/>
<stop offset="0.1524" stop-color="#A9A9A9"/>
<stop offset="0.2995" stop-color="#C8C8C8"/>
<stop offset="0.4522" stop-color="#E0E0E0"/>
<stop offset="0.6132" stop-color="#F2F2F2"/>
<stop offset="0.7875" stop-color="#FCFCFC"/>
<stop offset="1" stop-color="white"/>
</linearGradient>
<linearGradient id="paint4_linear_2006_76454" x1="100.663" y1="57.9321" x2="100.663" y2="44.1149" gradientUnits="userSpaceOnUse">
<stop stop-color="white"/>
<stop offset="1" stop-color="#999999"/>
</linearGradient>
<linearGradient id="paint5_linear_2006_76454" x1="40.3987" y1="59.7087" x2="132.14" y2="59.7087" gradientUnits="userSpaceOnUse">
<stop offset="0.00540541" stop-color="#E6E6E6"/>
<stop offset="1" stop-color="white"/>
</linearGradient>
<linearGradient id="paint6_linear_2006_76454" x1="32.9002" y1="147.171" x2="81.538" y2="147.171" gradientUnits="userSpaceOnUse">
<stop offset="0.00540541" stop-color="#E6E6E6"/>
<stop offset="1" stop-color="white"/>
</linearGradient>
<linearGradient id="paint7_linear_2006_76454" x1="100.029" y1="127.035" x2="100.029" y2="79.6339" gradientUnits="userSpaceOnUse">
<stop stop-color="#202D4C"/>
<stop offset="0.0473356" stop-color="#263355"/>
<stop offset="0.1598" stop-color="#2F3D65"/>
<stop offset="0.2861" stop-color="#35436F"/>
<stop offset="0.4541" stop-color="#374572"/>
<stop offset="1" stop-color="#202D4C"/>
</linearGradient>
<linearGradient id="paint8_linear_2006_76454" x1="100.075" y1="89.8709" x2="100.075" y2="86.2081" gradientUnits="userSpaceOnUse">
<stop stop-color="#C18627"/>
<stop offset="0.0246751" stop-color="#CA8D2A"/>
<stop offset="0.0963901" stop-color="#DE9E32"/>
<stop offset="0.1781" stop-color="#ECAA38"/>
<stop offset="0.2774" stop-color="#F4B13B"/>
<stop offset="0.4439" stop-color="#F7B33C"/>
<stop offset="0.5815" stop-color="#F1AE3A"/>
<stop offset="0.7572" stop-color="#E2A134"/>
<stop offset="0.9529" stop-color="#C88B2A"/>
<stop offset="0.9946" stop-color="#C18627"/>
</linearGradient>
<linearGradient id="paint9_linear_2006_76454" x1="100.052" y1="120.472" x2="100.052" y2="116.856" gradientUnits="userSpaceOnUse">
<stop stop-color="#C18627"/>
<stop offset="0.0246751" stop-color="#CA8D2A"/>
<stop offset="0.0963901" stop-color="#DE9E32"/>
<stop offset="0.1781" stop-color="#ECAA38"/>
<stop offset="0.2774" stop-color="#F4B13B"/>
<stop offset="0.4439" stop-color="#F7B33C"/>
<stop offset="0.5815" stop-color="#F1AE3A"/>
<stop offset="0.7572" stop-color="#E2A134"/>
<stop offset="0.9529" stop-color="#C88B2A"/>
<stop offset="0.9946" stop-color="#C18627"/>
</linearGradient>
<linearGradient id="paint10_linear_2006_76454" x1="34.3855" y1="101.611" x2="83.9078" y2="101.611" gradientUnits="userSpaceOnUse">
<stop stop-color="white"/>
<stop offset="1" stop-color="#B3B3B3"/>
</linearGradient>
<linearGradient id="paint11_linear_2006_76454" x1="120.442" y1="101.583" x2="163.981" y2="101.583" gradientUnits="userSpaceOnUse">
<stop stop-color="white"/>
<stop offset="0.19" stop-color="#DEDEDE"/>
<stop offset="0.4015" stop-color="#C0C0C0"/>
<stop offset="0.61" stop-color="#AAAAAA"/>
<stop offset="0.812" stop-color="#9D9D9D"/>
<stop offset="1" stop-color="#999999"/>
</linearGradient>
<linearGradient id="paint12_linear_2006_76454" x1="31.6556" y1="35.3516" x2="168.393" y2="35.3516" gradientUnits="userSpaceOnUse">
<stop stop-color="#C18627"/>
<stop offset="0.0246751" stop-color="#CA8D2A"/>
<stop offset="0.0963901" stop-color="#DE9E32"/>
<stop offset="0.1781" stop-color="#ECAA38"/>
<stop offset="0.2774" stop-color="#F4B13B"/>
<stop offset="0.4439" stop-color="#F7B33C"/>
<stop offset="0.5815" stop-color="#F1AE3A"/>
<stop offset="0.7572" stop-color="#E2A134"/>
<stop offset="0.9529" stop-color="#C88B2A"/>
<stop offset="0.9946" stop-color="#C18627"/>
</linearGradient>
<linearGradient id="paint13_linear_2006_76454" x1="82.4227" y1="70.9323" x2="117.05" y2="10.9724" gradientUnits="userSpaceOnUse">
<stop stop-color="#CCCCCC"/>
<stop offset="1" stop-color="#999999"/>
</linearGradient>
<linearGradient id="paint14_linear_2006_76454" x1="126.221" y1="35.3516" x2="160.788" y2="35.3516" gradientUnits="userSpaceOnUse">
<stop stop-color="#CCCCCC"/>
<stop offset="1" stop-color="#999999"/>
</linearGradient>
<linearGradient id="paint15_linear_2006_76454" x1="91.3275" y1="50.4516" x2="115.626" y2="50.4516" gradientUnits="userSpaceOnUse">
<stop stop-color="#CCCCCC"/>
<stop offset="1" stop-color="#999999"/>
</linearGradient>
<linearGradient id="paint16_linear_2006_76454" x1="87.8754" y1="50.4516" x2="112.174" y2="50.4516" gradientUnits="userSpaceOnUse">
<stop stop-color="#202D4C"/>
<stop offset="0.0473356" stop-color="#263355"/>
<stop offset="0.1598" stop-color="#2F3D65"/>
<stop offset="0.2861" stop-color="#35436F"/>
<stop offset="0.4541" stop-color="#374572"/>
<stop offset="1" stop-color="#202D4C"/>
</linearGradient>
<linearGradient id="paint17_linear_2006_76454" x1="90.5749" y1="50.4516" x2="91.7324" y2="50.4516" gradientUnits="userSpaceOnUse">
<stop stop-color="#C18627"/>
<stop offset="0.0246751" stop-color="#CA8D2A"/>
<stop offset="0.0963901" stop-color="#DE9E32"/>
<stop offset="0.1781" stop-color="#ECAA38"/>
<stop offset="0.2774" stop-color="#F4B13B"/>
<stop offset="0.4439" stop-color="#F7B33C"/>
<stop offset="0.5815" stop-color="#F1AE3A"/>
<stop offset="0.7572" stop-color="#E2A134"/>
<stop offset="0.9529" stop-color="#C88B2A"/>
<stop offset="0.9946" stop-color="#C18627"/>
</linearGradient>
<linearGradient id="paint18_linear_2006_76454" x1="108.317" y1="50.4516" x2="109.474" y2="50.4516" gradientUnits="userSpaceOnUse">
<stop stop-color="#C18627"/>
<stop offset="0.0246751" stop-color="#CA8D2A"/>
<stop offset="0.0963901" stop-color="#DE9E32"/>
<stop offset="0.1781" stop-color="#ECAA38"/>
<stop offset="0.2774" stop-color="#F4B13B"/>
<stop offset="0.4439" stop-color="#F7B33C"/>
<stop offset="0.5815" stop-color="#F1AE3A"/>
<stop offset="0.7572" stop-color="#E2A134"/>
<stop offset="0.9529" stop-color="#C88B2A"/>
<stop offset="0.9946" stop-color="#C18627"/>
</linearGradient>
</defs>
</svg>
