<svg width="200" height="200" viewBox="0 0 200 200" fill="none" xmlns="http://www.w3.org/2000/svg">
<path d="M99.8298 68.7177C99.4732 60.6546 101.256 52.9274 103.039 45.2003C105.179 35.7933 105.892 26.7223 106.249 17.3153C106.249 15.8035 108.567 15.4675 109.102 16.9793C111.42 24.7065 109.459 32.7696 107.854 40.4968C105.714 49.9038 102.683 59.3107 101.613 68.8857C101.435 69.7256 99.8298 69.8936 99.8298 68.7177Z" fill="#66BA3F"/>
<path d="M104.466 68.2148C104.466 55.7842 111.42 44.5294 112.847 32.2668C112.847 31.5948 114.095 31.5948 113.916 32.2668C113.738 37.6422 112.133 42.8496 110.707 48.225C108.924 54.9443 105.358 61.3276 104.466 68.2148C104.644 68.3828 104.466 68.3828 104.466 68.2148Z" fill="#66BA3F"/>
<path d="M102.683 66.0307C102.505 57.6316 102.326 49.2325 106.427 41.6733C107.141 40.4975 108.745 41.3374 108.567 42.5132C107.141 50.4084 105.179 58.3035 103.574 66.1987C103.396 66.7026 102.683 66.5346 102.683 66.0307Z" fill="#549137"/>
<path d="M97.1549 67.2054C95.0152 61.158 95.0152 55.1107 94.8369 48.8954C94.6586 41.6722 93.2321 34.7849 91.0924 27.8977C90.7358 26.5538 92.5189 25.8819 93.4104 26.8898C97.1549 32.2652 98.0465 38.8165 98.5815 45.0318C99.2947 52.423 99.473 59.8142 98.0465 67.2054C98.0465 67.7093 97.3333 67.5413 97.1549 67.2054Z" fill="#549137"/>
<path d="M98.938 66.3664C98.5814 58.9752 97.5115 51.752 97.1549 44.3608C96.9766 40.6652 96.62 36.8016 96.4417 33.106C96.4417 29.5784 97.6898 26.3867 97.5115 22.8591C97.5115 22.3552 98.4031 22.0192 98.5814 22.5232C101.613 28.5705 100.899 35.9617 101.613 42.345C102.504 50.5761 102.148 58.3033 99.6512 66.3664C99.6512 67.0383 98.938 66.8703 98.938 66.3664Z" fill="#88C13F"/>
<path d="M94.6588 65.694C92.519 58.4708 89.6661 51.2476 85.7433 44.6963C85.2083 43.8564 86.6348 43.0165 87.1697 43.8564C92.1624 50.2397 94.3022 57.7989 95.7286 65.5261C95.907 66.03 94.8371 66.366 94.6588 65.694Z" fill="#88C13F"/>
<path d="M99.1166 68.0459C98.225 60.3187 100.008 52.2556 100.721 44.5284C101.613 35.4574 102.148 26.5544 101.256 17.4834C101.256 16.6435 102.683 16.3075 102.861 17.3154C106.784 34.2815 100.721 51.0797 100.186 68.0459C100.365 68.7178 99.2949 68.7178 99.1166 68.0459Z" fill="#40742E"/>
<path d="M95.7287 64.352C93.7673 56.6248 93.589 48.7297 90.3794 41.3385C90.2011 40.8345 91.0926 40.4986 91.271 41.0025C95.1938 48.2257 94.8372 56.2889 96.6203 64.184C96.7986 64.6879 95.907 64.8559 95.7287 64.352Z" fill="#40742E"/>
<path d="M104.466 68.8862C106.071 61.327 108.746 53.9358 112.49 47.0486C112.847 46.3767 113.917 46.8806 113.56 47.5525C110.529 54.6077 107.676 61.663 105.179 69.0542C105.179 69.3901 104.466 69.2222 104.466 68.8862Z" fill="#40742E"/>
<path d="M99.8297 181.938C98.9382 181.77 95.3719 181.267 90.0226 155.397C89.1311 150.694 88.5961 145.99 88.0612 141.287C87.7046 137.591 87.348 133.896 86.9914 130.032C85.7432 113.402 84.495 96.9397 85.2083 80.3096C85.3866 76.614 85.7432 72.7504 87.348 69.2228C89.1311 65.6952 92.519 62.6715 96.4418 62.3355C98.2249 62.1675 103.039 61.9996 104.466 62.8395C111.42 66.1991 112.133 66.3671 113.916 74.9341C114.986 80.3096 114.095 90.0525 113.203 96.7718C110.707 115.586 107.497 135.911 106.784 154.725C106.427 162.285 106.962 170.18 104.644 177.403C103.931 179.755 102.148 182.442 99.8297 181.938Z" fill="#F06522"/>
<mask id="mask0_9002_21525" style="mask-type:luminance" maskUnits="userSpaceOnUse" x="85" y="62" width="30" height="120">
<path d="M99.8297 181.938C98.9382 181.77 95.3719 181.267 90.0226 155.397C89.1311 150.694 88.5961 145.99 88.0612 141.287C87.7046 137.591 87.348 133.896 86.9914 130.032C85.7432 113.402 84.495 96.9397 85.2083 80.3096C85.3866 76.614 85.7432 72.7504 87.348 69.2228C89.1311 65.6952 92.519 62.6715 96.4418 62.3355C98.2249 62.1675 103.039 61.9996 104.466 62.8395C111.42 66.1991 112.133 66.3671 113.916 74.9341C114.986 80.3096 114.095 90.0525 113.203 96.7718C110.707 115.586 107.497 135.911 106.784 154.725C106.427 162.285 106.962 170.18 104.644 177.403C103.931 179.755 102.148 182.442 99.8297 181.938Z" fill="white"/>
</mask>
<g mask="url(#mask0_9002_21525)">
<g opacity="0.23">
<path d="M96.62 190.001C87.5262 184.29 86.0997 171.859 83.7816 162.62C80.572 150.19 79.5022 136.919 78.9673 124.153C78.4323 111.05 79.6805 97.7794 80.9286 84.6769C82.3551 70.7344 82.5334 56.2879 90.7357 44.1933C93.5887 39.9937 113.738 55.952 111.063 60.1515C108.21 64.687 102.148 64.3511 100.899 76.2778C99.6513 88.7084 100.543 105.507 100.543 118.105C100.543 130.368 100.365 139.103 100.186 151.366C100.008 157.581 100.364 164.468 99.8296 170.515C99.4729 174.883 99.6512 180.09 102.504 182.106C104.466 183.618 98.5814 191.177 96.62 190.001Z" fill="#D34A26"/>
</g>
</g>
<mask id="mask1_9002_21525" style="mask-type:luminance" maskUnits="userSpaceOnUse" x="85" y="62" width="30" height="120">
<path d="M99.8297 181.938C98.9382 181.77 95.3719 181.267 90.0226 155.397C89.1311 150.694 88.5961 145.99 88.0612 141.287C87.7046 137.591 87.348 133.896 86.9914 130.032C85.7432 113.402 84.495 96.9397 85.2083 80.3096C85.3866 76.614 85.7432 72.7504 87.348 69.2228C89.1311 65.6952 92.519 62.6715 96.4418 62.3355C98.2249 62.1675 103.039 61.9996 104.466 62.8395C111.42 66.1991 112.133 66.3671 113.916 74.9341C114.986 80.3096 114.095 90.0525 113.203 96.7718C110.707 115.586 107.497 135.911 106.784 154.725C106.427 162.285 106.962 170.18 104.644 177.403C103.931 179.755 102.148 182.442 99.8297 181.938Z" fill="white"/>
</mask>
<g mask="url(#mask1_9002_21525)">
<g opacity="0.23">
<path d="M90.379 189.163C81.2852 183.451 79.8587 171.021 77.5406 161.782C74.3311 149.351 73.2612 136.081 72.7263 123.314C72.1914 110.211 73.4395 96.9408 74.6877 83.8383C76.1142 69.8958 76.2925 55.4493 84.4947 43.3547C87.3477 39.1551 109.28 56.9612 104.822 59.3129C99.1162 62.3366 95.9066 63.5125 94.6585 75.4392C93.4103 87.8698 94.3018 104.668 94.3018 117.267C94.3018 129.529 94.1235 138.264 93.9452 150.527C93.7669 156.742 96.6199 169.173 96.9765 177.236C97.1548 181.604 95.9066 184.963 98.7596 186.979C100.721 188.323 92.3404 190.507 90.379 189.163Z" fill="#D34A26"/>
</g>
</g>
<mask id="mask2_9002_21525" style="mask-type:luminance" maskUnits="userSpaceOnUse" x="85" y="62" width="30" height="120">
<path d="M99.8297 181.938C98.9382 181.77 95.3719 181.267 90.0226 155.397C89.1311 150.694 88.5961 145.99 88.0612 141.287C87.7046 137.591 87.348 133.896 86.9914 130.032C85.7432 113.402 84.495 96.9397 85.2083 80.3096C85.3866 76.614 85.7432 72.7504 87.348 69.2228C89.1311 65.6952 92.519 62.6715 96.4418 62.3355C98.2249 62.1675 103.039 61.9996 104.466 62.8395C111.42 66.1991 112.133 66.3671 113.916 74.9341C114.986 80.3096 114.095 90.0525 113.203 96.7718C110.707 115.586 107.497 135.911 106.784 154.725C106.427 162.285 106.962 170.18 104.644 177.403C103.931 179.755 102.148 182.442 99.8297 181.938Z" fill="white"/>
</mask>
<g mask="url(#mask2_9002_21525)">
<g opacity="0.59">
<path d="M85.2087 185.803C76.1148 180.092 74.6883 167.661 72.3703 158.422C69.1607 145.991 68.0908 132.721 67.5559 119.954C67.021 106.852 68.2691 93.581 69.5173 80.4784C70.9438 66.5359 71.1221 52.0895 79.3244 39.9948C82.1774 35.7953 104.11 53.6013 99.6518 55.9531C93.9458 58.9768 90.7363 60.1526 89.4881 72.0793C88.2399 84.51 89.1315 101.308 89.1315 113.907C89.1315 126.169 88.9532 134.904 88.7749 147.167C88.5966 153.382 91.4495 165.813 91.8061 173.876C91.9844 178.244 90.7362 181.603 93.5892 183.619C95.5506 184.963 87.1701 186.979 85.2087 185.803Z" fill="#D34A26"/>
</g>
</g>
<g opacity="0.4" style="mix-blend-mode:soft-light">
<path d="M101.435 174.21C100.9 170.347 101.078 166.483 101.256 162.62C101.435 158.42 101.256 154.052 102.505 149.853C102.861 148.341 105.358 148.677 105.358 150.189C105.536 154.892 105.536 159.596 105.714 164.299C105.714 167.995 105.892 171.523 103.396 174.546C102.683 175.386 101.613 175.218 101.435 174.21Z" fill="#F1832E"/>
</g>
<g opacity="0.4" style="mix-blend-mode:soft-light">
<path d="M102.326 144.984C99.6515 140.616 101.256 133.729 101.791 129.025C102.683 121.466 104.288 114.075 105.357 106.684C106.427 99.6285 106.962 92.0693 106.784 85.0141C106.784 80.3106 103.753 76.6151 103.039 72.2475C102.326 67.712 108.924 66.0322 111.777 68.5519C115.164 71.5756 114.808 77.287 114.986 81.3185C115.164 87.8698 113.56 94.4211 112.846 100.972C111.955 108.532 110.35 115.923 108.924 123.482C107.675 130.369 108.389 137.928 106.071 144.648C105.714 145.991 103.396 146.495 102.326 144.984Z" fill="#F1832E"/>
</g>
<g opacity="0.4" style="mix-blend-mode:soft-light">
<path d="M106.784 120.794C105.714 116.931 106.963 113.235 107.854 109.371C108.924 104.164 108.924 98.7886 109.994 93.4132C110.172 92.5733 111.599 92.5733 111.777 93.4132C113.382 102.148 109.637 112.059 107.676 120.626C107.676 121.13 106.962 121.13 106.784 120.794Z" fill="#FDBE7B"/>
</g>
<g opacity="0.4" style="mix-blend-mode:soft-light">
<path d="M109.993 88.7089C109.28 86.3572 109.28 84.0055 109.102 81.6537C108.923 79.134 107.675 76.6143 107.675 74.0945C107.675 73.2546 108.745 72.7507 109.458 73.4226C112.668 76.9502 112.668 84.3414 111.598 88.7089C111.242 89.3809 110.172 89.3809 109.993 88.7089Z" fill="#FDBE7B"/>
</g>
<path d="M97.3336 160.604C95.9071 160.604 94.4807 160.771 92.8759 160.771C92.5192 160.771 92.5192 160.268 92.8759 160.1C94.3023 159.932 95.7288 160.1 97.3336 160.1C97.8686 160.1 97.8686 160.604 97.3336 160.604Z" fill="#C55B2B"/>
<path d="M102.861 167.995C102.326 167.995 101.791 167.995 101.256 167.995C101.078 167.995 101.078 167.659 101.256 167.659C101.791 167.659 102.326 167.659 102.861 167.659C103.039 167.659 103.039 167.995 102.861 167.995Z" fill="#C55B2B"/>
<path d="M99.8298 167.997L99.6515 168.165C99.6515 168.165 99.4732 168.165 99.6515 167.997C99.4732 167.829 99.6515 167.829 99.8298 167.997C99.8298 167.829 99.8298 167.829 99.8298 167.997Z" fill="#C55B2B"/>
<path d="M99.8295 170.348C98.938 170.516 97.6898 170.684 96.7983 170.684C96.62 170.684 96.62 170.348 96.7983 170.18C97.8681 170.012 98.7597 170.18 99.8295 170.18C100.008 170.18 100.008 170.348 99.8295 170.348Z" fill="#C55B2B"/>
<path d="M101.612 174.378C101.256 174.378 101.078 174.378 100.721 174.378C100.543 174.378 100.543 174.042 100.721 174.042C101.078 174.042 101.256 174.042 101.612 174.042C101.791 174.042 101.791 174.378 101.612 174.378Z" fill="#C55B2B"/>
<path d="M102.682 177.07C101.969 177.238 101.434 177.573 100.721 177.405C100.543 177.405 100.543 177.07 100.721 177.07C101.434 176.902 101.969 176.902 102.682 176.902C102.861 176.734 102.861 177.07 102.682 177.07Z" fill="#C55B2B"/>
<path d="M101.078 154.389C99.6514 154.557 98.225 154.892 96.7985 154.557C96.4419 154.557 96.4419 154.053 96.7985 153.885C98.225 153.549 99.6514 153.885 101.078 153.885C101.256 154.053 101.256 154.389 101.078 154.389Z" fill="#C55B2B"/>
<path d="M105.357 148.007C105.001 147.839 104.466 147.839 103.931 147.839C103.396 147.839 103.039 147.839 102.683 147.671C102.504 147.503 102.326 147.167 102.683 146.999C103.574 146.664 104.644 146.999 105.536 147.335C105.892 147.671 105.714 148.175 105.357 148.007Z" fill="#C55B2B"/>
<path d="M93.054 147.501C92.1624 147.501 91.2709 147.501 90.3793 147.501C90.201 147.501 90.201 147.333 90.3793 147.333C91.2709 147.333 92.1624 147.333 93.054 147.501Z" fill="#C55B2B"/>
<path d="M101.078 143.135C100.186 143.303 99.2948 143.303 98.4032 143.135C98.0466 143.135 98.0466 142.463 98.4032 142.463C98.7598 142.463 99.1165 142.295 99.4731 142.463C100.008 142.463 100.543 142.631 100.9 142.799C101.256 142.799 101.256 143.135 101.078 143.135Z" fill="#C55B2B"/>
<path d="M102.683 135.743C101.613 135.575 100.722 135.743 99.6518 135.575C99.1169 135.407 99.2952 134.904 99.6518 134.736C100.722 134.4 101.792 134.568 102.861 134.904C103.575 134.904 103.396 135.743 102.683 135.743Z" fill="#C55B2B"/>
<path d="M92.5189 134.735C91.4491 134.735 90.5576 135.07 89.4877 135.238C89.1311 135.238 88.9528 134.735 89.3094 134.735C90.3792 134.231 91.4491 134.231 92.5189 134.231C92.8756 134.231 92.8756 134.735 92.5189 134.735Z" fill="#C55B2B"/>
<path d="M98.9383 127.008C98.2251 126.84 97.6901 126.84 96.9769 126.84C96.2636 126.84 95.7288 127.176 95.0155 127.008C94.6589 127.008 94.6589 126.672 95.0155 126.504C95.5504 126.168 96.442 126.336 96.9769 126.336C97.6901 126.336 98.4034 126.504 99.1166 126.672C99.1166 126.84 99.1166 127.008 98.9383 127.008Z" fill="#C55B2B"/>
<path d="M105.892 125.16C105.535 124.992 105.179 124.824 104.822 124.824C104.644 124.824 104.644 124.489 104.822 124.489C105.179 124.657 105.535 124.657 105.892 124.824C106.249 124.992 106.07 125.328 105.892 125.16Z" fill="#C55B2B"/>
<path d="M99.6515 119.616C98.5816 119.784 97.6901 119.784 96.6202 119.784C96.2636 119.784 96.2636 119.281 96.6202 119.281C97.6901 119.113 98.5816 119.281 99.6515 119.281C100.008 119.281 100.008 119.616 99.6515 119.616Z" fill="#C55B2B"/>
<path d="M105.714 112.73C105.001 112.898 104.466 113.066 103.753 112.898C103.575 112.898 103.575 112.562 103.753 112.395C104.466 112.227 105.001 112.395 105.714 112.395C105.893 112.562 105.893 112.73 105.714 112.73Z" fill="#C55B2B"/>
<path d="M99.6514 112.395C98.2249 112.563 96.7984 112.73 95.3719 112.73C94.837 112.73 94.837 112.059 95.1936 111.891C96.6201 111.387 98.0466 111.723 99.6514 111.891C99.8297 112.059 99.8297 112.395 99.6514 112.395Z" fill="#C55B2B"/>
<path d="M86.9916 117.265C87.7048 116.593 88.5964 116.258 89.6662 116.09C90.2012 116.09 90.2011 116.761 89.8445 116.929C89.1313 117.433 88.0614 117.433 87.1699 117.601C86.9915 117.769 86.8133 117.433 86.9916 117.265Z" fill="#C55B2B"/>
<path d="M103.218 104.33C102.683 104.33 102.148 104.33 101.613 104.33C101.078 104.33 100.543 104.33 100.008 104.162C99.6516 103.994 99.4733 103.491 99.8299 103.323C100.9 102.819 102.148 103.491 103.218 103.491C103.574 103.826 103.574 104.33 103.218 104.33Z" fill="#C55B2B"/>
<path d="M89.6664 105.674C90.5579 105.17 91.4495 104.835 92.5193 104.835C93.0542 104.835 93.0543 105.506 92.6976 105.674C91.8061 105.842 90.9145 106.01 90.023 106.178C89.6664 106.178 89.4881 105.842 89.6664 105.674Z" fill="#C55B2B"/>
<path d="M107.854 95.7647C106.784 95.9326 105.536 95.9326 104.466 95.9326C104.109 95.9326 103.752 95.2611 104.287 95.0932C105.536 94.5895 106.605 94.7574 107.854 94.9253C108.21 95.0932 108.21 95.7647 107.854 95.7647Z" fill="#C55B2B"/>
<path d="M92.1623 96.9397C92.8755 96.6039 93.7671 96.2681 94.6586 96.2681C95.1936 96.2681 95.3719 96.9397 95.0153 97.1076C94.1237 97.6112 93.2322 97.4434 92.1623 97.2755C91.984 97.2755 91.984 96.9397 92.1623 96.9397Z" fill="#C55B2B"/>
<path d="M103.218 88.3742C101.256 88.3742 99.4732 88.71 97.6901 88.8779C97.3335 88.8779 97.1551 88.2064 97.5118 88.2064C99.2949 87.7027 101.256 87.3669 103.218 87.5348C103.753 87.7027 103.753 88.3742 103.218 88.3742Z" fill="#C55B2B"/>
<path d="M105.892 79.4678C105.179 79.4678 104.466 79.2999 103.753 79.2999C103.396 79.2999 103.574 78.7962 103.753 78.7962C104.466 78.7962 105.179 78.7962 105.892 78.9641C106.249 78.9641 106.249 79.4678 105.892 79.4678Z" fill="#C55B2B"/>
<path d="M94.8368 80.3105C93.9452 80.3105 92.8754 80.6463 91.9838 80.4784C91.6272 80.4784 91.2706 79.9747 91.8055 79.6389C92.697 79.1352 93.9452 79.3031 94.8368 79.471C95.3717 79.471 95.3717 80.1426 94.8368 80.3105Z" fill="#C55B2B"/>
<path d="M87.3476 87.0287C87.8826 86.8608 88.4175 86.525 89.1308 86.6929C89.4874 86.6929 89.4874 87.1966 89.3091 87.3645C88.7741 87.7003 88.2392 87.7003 87.7043 87.8682C86.991 87.8682 86.8127 87.1966 87.3476 87.0287Z" fill="#C55B2B"/>
<path d="M100.9 71.0716C99.2949 70.9037 98.0468 71.7432 96.442 71.7432C95.907 71.7432 95.7287 71.0716 96.2637 70.9037C97.6901 70.2321 99.4733 69.8963 101.078 70.4C101.256 70.5679 101.256 71.0716 100.9 71.0716Z" fill="#C55B2B"/>
<path d="M94.659 163.292C93.9457 163.46 93.0542 163.796 92.341 163.46C91.9843 163.292 91.9843 162.956 92.341 162.788C93.0542 162.452 93.9457 162.788 94.659 162.956C94.8373 163.124 94.8373 163.292 94.659 163.292Z" fill="#C55B2B"/>
<path d="M100.543 150.694C99.8294 150.862 98.7596 151.198 98.0463 150.862C97.868 150.694 97.868 150.526 98.0463 150.359C98.7596 150.023 99.8294 150.526 100.543 150.694C100.721 150.526 100.721 150.694 100.543 150.694Z" fill="#C55B2B"/>
<path d="M101.256 165.141C100.186 165.141 99.1163 165.309 98.2248 165.309C98.0465 165.309 98.0465 165.141 98.2248 165.141C99.1163 165.141 100.186 165.141 101.256 165.141Z" fill="#FFB97E"/>
<path d="M100.365 161.277C100.9 161.109 101.256 161.109 101.791 160.941C101.97 160.941 101.97 161.109 101.791 161.109C101.435 161.277 100.9 161.445 100.365 161.277Z" fill="#FFB97E"/>
<path d="M96.4416 148.342C95.0151 148.51 93.5886 148.846 91.9838 149.014C91.8055 149.014 91.8055 148.678 91.9838 148.678C93.5886 148.342 95.0151 148.174 96.4416 148.342C96.6199 148.174 96.6199 148.342 96.4416 148.342Z" fill="#F99E32"/>
<path d="M101.969 138.431C100.9 138.599 99.8297 138.767 98.5816 138.935C98.225 138.935 98.2249 138.599 98.4033 138.599C99.6514 138.263 100.721 138.263 101.969 138.431Z" fill="#F99E32"/>
<path d="M104.466 130.368C104.109 130.368 103.753 130.368 103.396 130.368C103.218 130.368 103.218 130.2 103.396 130.032C103.753 130.032 104.109 130.032 104.466 130.032C104.644 130.032 104.644 130.368 104.466 130.368Z" fill="#F99E32"/>
<path d="M94.3018 130.537C93.4103 130.537 92.3405 130.705 91.4489 130.873C91.2706 130.873 91.2706 130.537 91.4489 130.537C92.1622 130.201 93.232 130.201 94.3018 130.537C94.3018 130.369 94.3018 130.369 94.3018 130.537Z" fill="#F99E32"/>
<path d="M101.969 120.793C100.899 120.793 100.008 121.129 98.9377 121.297C98.7594 121.297 98.5811 120.961 98.7594 120.961C99.651 120.457 100.899 120.625 101.969 120.625C102.147 120.457 102.147 120.793 101.969 120.793Z" fill="#F99E32"/>
<path d="M104.822 115.081C104.644 115.081 104.644 115.081 104.466 115.081C104.287 115.081 104.287 114.913 104.466 114.913C104.644 114.913 104.644 114.913 104.822 114.913C105.001 114.745 105.001 115.081 104.822 115.081Z" fill="#F99E32"/>
<path d="M96.6201 110.547C93.5888 110.715 90.9141 111.723 88.2395 112.562C88.0612 112.562 87.8829 112.227 88.0612 112.227C90.7358 111.051 93.7671 110.547 96.6201 110.547C96.7984 110.379 96.7984 110.547 96.6201 110.547Z" fill="#F99E32"/>
<path d="M98.2248 159.093C100.008 158.925 101.613 158.757 103.396 159.429C103.574 159.429 103.574 159.764 103.396 159.597C101.613 159.261 99.8296 159.261 98.2248 159.093C98.0465 159.093 98.0465 159.261 98.2248 159.093Z" fill="#F99E32"/>
<path d="M105.714 94.4212C103.931 94.5891 102.326 94.9249 100.721 95.0928C100.365 95.0928 100.365 94.757 100.721 94.5891C102.326 94.2533 103.931 94.2533 105.714 94.4212Z" fill="#F99E32"/>
<path d="M101.434 85.1798C100.9 85.1798 100.365 85.3477 99.8297 85.3477C99.6514 85.3477 99.4731 85.0119 99.8297 85.0119C100.365 84.844 101.078 84.844 101.613 84.844C101.613 84.844 101.613 85.1798 101.434 85.1798Z" fill="#F99E32"/>
<path d="M91.6276 87.8683C91.271 88.0362 90.9144 88.0362 90.5578 88.2041C90.3795 88.2041 90.3795 88.0362 90.5578 88.0362C90.9144 87.8683 91.271 87.8683 91.6276 87.8683C91.8059 87.7004 91.8059 87.8683 91.6276 87.8683Z" fill="#F99E32"/>
<path d="M95.9069 172.026C96.9768 171.858 97.8683 171.858 98.9382 171.691C99.1165 171.691 99.2948 172.026 98.9382 172.026C97.8683 172.194 96.9768 172.194 95.9069 172.194C95.7286 172.362 95.7286 172.026 95.9069 172.026Z" fill="#F99E32"/>
<path d="M101.434 133.393C99.4731 133.057 97.5117 133.393 95.5503 133.729C95.372 133.729 95.1936 133.393 95.372 133.393C97.3334 132.889 99.4731 132.721 101.434 133.225C101.791 133.225 101.613 133.393 101.434 133.393Z" fill="#F1832E"/>
<path d="M103.04 158.926C100.543 158.422 97.8687 158.086 95.3723 158.59C95.0157 158.59 95.0157 158.254 95.194 158.254C97.6904 157.415 100.543 157.918 103.04 158.59C103.396 158.422 103.396 158.926 103.04 158.926Z" fill="#F1832E"/>
<path d="M98.582 114.58C96.0856 114.58 93.7676 115.251 91.2712 115.755C91.0929 115.755 90.9146 115.419 91.0929 115.419C93.4109 114.748 96.0856 114.412 98.582 114.58Z" fill="#F1832E"/>
<path d="M103.752 98.7875C100.721 98.2836 97.8681 98.7875 94.8368 98.9555C92.3405 99.1235 89.8441 100.299 87.3478 99.9634C86.9912 99.9634 86.9912 99.4594 87.3478 99.2915C92.5188 97.7796 98.5814 97.4437 103.931 98.6195C103.931 98.6195 103.931 98.9555 103.752 98.7875Z" fill="#F1832E"/>
<path d="M101.434 96.4358C100.008 96.6037 98.5814 96.9395 97.1549 96.7716C96.7983 96.7716 96.7983 96.2679 97.1549 96.2679C98.5814 95.9322 100.008 96.1001 101.434 96.4358C101.613 96.268 101.613 96.4358 101.434 96.4358Z" fill="#F1832E"/>
<path d="M88.2396 82.3266C88.5963 82.1587 88.9529 81.9908 89.4878 82.1587C89.8444 82.1587 89.8445 82.6623 89.6661 82.8302C89.3095 83.166 88.7746 83.166 88.2396 82.9981C87.883 82.8302 87.883 82.3266 88.2396 82.3266Z" fill="#F1832E"/>
<path d="M100.9 81.1484C100.543 81.1484 100.008 81.1484 99.6517 81.1484C99.2951 81.1484 99.2951 80.8127 99.6517 80.8127C100.008 80.8127 100.543 80.8127 100.9 80.8127C101.257 80.6448 101.257 81.1484 100.9 81.1484Z" fill="#F1832E"/>
<path d="M101.792 75.1017C101.078 74.9338 100.365 75.1017 99.6518 74.9338C99.4735 74.9338 99.4735 74.598 99.6518 74.598C100.365 74.4301 101.257 74.598 101.97 74.7659C101.97 74.9338 101.97 75.2696 101.792 75.1017Z" fill="#F1832E"/>
<path d="M96.2636 77.2861C95.5504 77.2861 95.0154 77.2861 94.3022 77.2861C94.1239 77.2861 94.1239 77.1182 94.3022 77.1182C95.0154 77.1182 95.5504 77.1182 96.2636 77.1182C96.4419 77.1182 96.4419 77.2861 96.2636 77.2861Z" fill="#F1832E"/>
<path d="M93.0536 91.7324C92.697 91.7324 92.3404 91.7324 91.9838 91.7324C91.6272 91.7324 91.6272 91.3966 91.9838 91.2287C92.3404 91.2287 92.697 91.2287 93.0536 91.2287C93.4103 91.0608 93.4103 91.7324 93.0536 91.7324Z" fill="#F1832E"/>
<path d="M89.4874 123.648C90.2007 123.144 90.7356 122.808 91.6271 122.976C91.9837 122.976 91.9837 123.48 91.6271 123.48C90.9139 123.648 90.379 123.648 89.6658 123.984C89.4874 124.151 89.3091 123.816 89.4874 123.648Z" fill="#F1832E"/>
<g opacity="0.6" style="mix-blend-mode:soft-light">
<path d="M105.714 39.6576C106.963 33.2743 107.854 26.5551 107.141 20.1718C106.963 19.3319 108.211 19.3318 108.567 20.0038C109.815 22.5235 109.102 25.5472 108.746 28.4028C108.211 32.2664 108.032 36.13 106.606 39.8256C106.428 40.3296 105.714 40.1616 105.714 39.6576Z" fill="#A2CE45"/>
</g>
<g opacity="0.6" style="mix-blend-mode:soft-light">
<path d="M99.1165 46.5451C99.6514 40.4978 98.5816 34.9544 98.0466 29.075C98.0466 28.4031 98.9382 28.4031 99.1165 28.9071C101.435 34.1145 101.256 41.3377 100.008 46.7131C99.8297 47.0491 99.1165 47.0491 99.1165 46.5451Z" fill="#A2CE45"/>
</g>
<path d="M104.644 56.2881C104.823 54.1043 105.179 51.9205 105.892 49.7368C105.892 49.5688 106.249 49.5688 106.249 49.7368C105.536 51.9205 105.001 54.1043 104.644 56.2881Z" fill="#A2CE45"/>
<g opacity="0.6" style="mix-blend-mode:soft-light">
<path d="M96.085 38.1465C95.3717 35.4588 94.4802 32.6031 93.0537 30.0834C92.8754 29.7474 93.232 29.5794 93.4103 29.9154C95.1934 32.4351 95.55 35.2908 96.085 38.1465C96.2633 38.3145 96.085 38.3145 96.085 38.1465Z" fill="#A2CE45"/>
</g>
<g opacity="0.6" style="mix-blend-mode:soft-light">
<path d="M97.6898 61.832C97.1549 59.8162 96.7982 57.8005 96.9766 55.7847C96.9766 55.4487 97.6898 55.4487 97.6898 55.7847C97.8682 57.8005 97.8681 59.8162 98.0464 61.832C97.8681 62 97.6898 62 97.6898 61.832Z" fill="#A2CE45"/>
</g>
</svg>
