<svg width="200" height="200" viewBox="0 0 200 200" fill="none" xmlns="http://www.w3.org/2000/svg">
<path d="M93.1569 39.7735C93.0569 43.8671 92.548 59.3792 87.4953 72.3226C82.4516 85.275 77.0171 92.6181 74.6725 103.81C73.4456 109.673 74.2726 119.757 74.2726 124.795C74.2726 129.842 74.2726 167.864 74.2726 171.812C74.2726 175.761 73.8636 180.399 78.9073 181.488C83.951 182.577 108.37 184.193 120.393 181.624C124.21 180.807 125.991 179.31 125.846 175.225C125.709 171.141 125.982 115.255 125.982 109.946C125.982 104.636 124.891 98.636 123.392 95.7768C121.892 92.9176 114.658 77.7867 111.387 69.2002C108.115 60.6136 106.234 44.0305 106.752 38.8113C106.816 38.1487 107.179 37.4861 107.725 36.996C108.27 36.5149 109.242 35.4167 108.388 34.3274C107.534 33.2382 107.725 29.6076 107.906 27.7287C108.088 25.8498 107.843 24.5155 108.27 23.3083C108.697 22.1011 110.024 20.0407 107.906 18.5249C105.78 17 100.136 17 98.8004 17C97.4645 17 91.9482 17.5446 91.094 19.3599C90.2398 21.1753 91.6938 22.5096 91.821 23.4808C91.9392 24.452 92.4299 31.0508 92.2391 32.267C92.0573 33.4742 91.2121 34.1459 91.0849 35.2351C90.9668 36.3243 92.0028 36.9143 92.5389 37.2955C92.9752 37.5951 93.1751 39.3287 93.1569 39.7735Z" fill="url(#paint0_linear_2003_16270)"/>
<g opacity="0.4" style="mix-blend-mode:soft-light">
<path d="M99.7273 130.386C99.7273 111.234 99.7273 92.0826 99.7273 72.9308C99.7273 60.1598 99.7273 47.3798 99.7273 34.6089C96.9011 34.6089 94.0748 34.6089 91.2576 34.6089C91.1849 34.8086 91.1213 35.0083 91.1031 35.2352C90.9849 36.3244 92.0209 36.9144 92.5571 37.2956C92.9752 37.5951 93.1751 39.3379 93.1569 39.7735C93.0569 43.8671 92.548 59.3792 87.4953 72.3226C82.4516 85.2751 77.0171 92.6182 74.6725 103.81C73.4456 109.673 74.2726 119.758 74.2726 124.795V135.651C78.2167 135.651 82.1789 135.651 86.1321 135.651C90.6669 135.651 95.2017 135.651 99.7364 135.651C99.7273 133.899 99.7273 132.138 99.7273 130.386Z" fill="url(#paint1_radial_2003_16270)"/>
</g>
<g opacity="0.4" style="mix-blend-mode:soft-light">
<path d="M123.392 95.7678C121.892 92.9086 114.659 77.7777 111.387 69.1912C108.115 60.6046 106.234 44.0214 106.752 38.8023C106.816 38.1397 107.179 37.4771 107.725 36.987C108.224 36.5422 109.07 35.5982 108.57 34.6089H106.77C104.453 34.6089 102.136 34.6089 99.8182 34.6089C99.8182 37.9037 99.8182 41.1986 99.8182 44.4934C99.8182 63.6453 99.8182 82.8062 99.8182 101.958C99.8182 113.195 99.8182 124.423 99.8273 135.651C103.571 135.651 107.325 135.651 111.069 135.651C116.013 135.651 120.956 135.651 125.9 135.651C125.945 123.234 126 112.16 126 109.937C125.982 104.627 124.891 98.6269 123.392 95.7678Z" fill="url(#paint2_radial_2003_16270)"/>
</g>
<path d="M125.827 154.276C123.537 154.276 121.256 154.276 118.966 154.276C110.56 154.276 102.154 154.276 93.7567 154.276C87.259 154.276 80.7613 154.276 74.2726 154.276V171.813C74.2726 175.761 73.8637 180.399 78.9074 181.488C83.9511 182.578 108.37 184.193 120.393 181.624C124.21 180.808 125.991 179.31 125.846 175.225C125.791 173.691 125.8 164.932 125.827 154.276Z" fill="url(#paint3_radial_2003_16270)"/>
<path d="M111.423 69.3C111.405 69.2637 111.396 69.2274 111.378 69.1911C108.106 60.6045 106.225 44.0214 106.743 38.8023C106.807 38.1397 107.17 37.4771 107.716 36.9869C108.261 36.5059 109.233 35.4076 108.379 34.3184C107.525 33.2292 107.716 29.5985 107.897 27.7196C108.079 25.8407 107.834 24.5064 108.261 23.2992C108.688 22.092 110.015 20.0316 107.897 18.5158C105.78 17 100.136 17 98.8004 17C97.4645 17 91.9483 17.5446 91.094 19.3599C90.2398 21.1753 91.6938 22.5096 91.8211 23.4808C91.9392 24.452 92.4299 31.0508 92.2391 32.267C92.0573 33.4742 91.2122 34.1459 91.0849 35.2351C90.9668 36.3243 92.0028 36.9143 92.539 37.2955C92.957 37.5951 93.1569 39.3378 93.1388 39.7735C93.0388 43.5403 92.6026 57.0192 88.5858 69.2456C92.0573 71.1063 96.2559 73.7022 100.027 76.9971C100.045 76.9971 104.916 73.0124 111.423 69.3Z" fill="url(#paint4_linear_2003_16270)"/>
<g opacity="0.2" style="mix-blend-mode:soft-light">
<path d="M105.062 37.6766C105.471 37.3499 105.889 37.0412 106.325 36.7417C106.734 36.4513 107.197 36.1245 107.352 35.6253C106.679 35.7705 105.852 36.1245 105.198 35.7705C105.116 35.7251 105.026 35.6707 104.953 35.6071C104.88 35.5436 104.889 35.5164 104.816 35.5708C104.735 35.6344 104.653 35.6888 104.571 35.7433C104.38 35.8703 104.171 35.9793 103.962 36.061C103.617 36.2062 103.135 36.3786 102.772 36.2062C102.399 36.0337 102.39 35.6162 102.454 35.2622C101.736 35.5345 100.527 35.2441 99.791 35.4165C99.4275 35.4982 99.4275 36.2153 99.064 36.2334C97.9462 36.2788 96.9829 34.5633 96.4194 35.7342C96.0559 36.4966 95.0654 35.9702 94.8291 35.825C94.4656 35.598 93.7476 35.7887 93.4114 35.5254C93.3114 35.598 93.2205 35.6888 93.2024 35.8159C93.1751 35.9883 93.2478 36.1608 93.3296 36.306C93.5204 36.6237 93.784 36.8869 94.0384 37.1502C96.892 40.0456 97.1283 44.5477 97.1374 48.3508C97.1464 52.6078 94.4474 72.7218 94.6291 72.8398C96.4467 74.0652 98.2915 75.4357 100.045 76.9697C100.045 76.9697 102.417 75.0364 106.052 72.6038C105.725 72.159 99.7728 41.8337 105.062 37.6766Z" fill="url(#paint5_radial_2003_16270)"/>
</g>
<g opacity="0.2" style="mix-blend-mode:soft-light">
<path d="M88.6039 69.2455C90.1306 70.0624 91.8028 71.0245 93.5113 72.1228C93.9838 70.0079 94.3746 67.8749 94.7108 65.7418C95.656 59.6877 96.1831 53.579 96.901 47.4977C97.1554 45.3374 97.2281 43.0138 97.9552 40.9533C98.6913 38.8475 98.6549 37.5586 96.4102 36.5239C95.247 35.9884 95.5196 35.7978 95.4469 34.8447C95.3561 33.6284 95.2198 33.1564 94.7563 31.922C94.4927 31.214 94.4473 30.3971 94.4473 29.6528C94.4564 27.4653 95.0107 25.3414 95.4833 23.2174C95.5378 22.9724 95.0562 22.5276 94.9017 22.3642C94.4473 21.8741 93.9202 21.4112 93.584 20.8303C93.2841 20.3129 93.1841 19.7774 93.3477 19.1965C93.484 18.6972 93.8929 18.2706 94.2746 17.9348C94.4655 17.7714 94.6563 17.6262 94.8562 17.481C93.1659 17.844 91.521 18.4431 91.0939 19.3598C90.2397 21.1752 91.6937 22.5095 91.8209 23.4807C91.9391 24.4519 92.4298 31.0506 92.239 32.2669C92.0572 33.4741 91.2121 34.1458 91.0848 35.235C90.9667 36.3242 92.0027 36.9142 92.5389 37.2954C92.9569 37.595 93.1568 39.3377 93.1387 39.7734C93.066 43.5402 92.6297 57.0191 88.6039 69.2455Z" fill="url(#paint6_radial_2003_16270)"/>
</g>
<g opacity="0.2" style="mix-blend-mode:soft-light">
<path d="M104.108 17.8893C104.462 18.452 104.671 19.0965 104.717 19.75C104.753 20.1675 104.753 20.576 104.644 20.9754C104.144 22.7998 105.253 24.9237 105.062 26.9206C104.862 29.0355 104.789 33.0928 103.39 34.899C103.226 35.1169 103.008 35.3075 102.817 35.5163C100.981 37.5131 103.117 41.1347 103.226 43.531C103.408 47.3432 102.872 51.1373 102.835 54.9495C102.799 60.1142 103.381 65.2788 104.171 70.3799C104.335 71.4237 104.535 72.4494 104.789 73.466C106.625 72.1953 108.897 70.7248 111.405 69.2907C111.387 69.2544 111.378 69.2181 111.36 69.1818C108.088 60.5952 106.207 44.0121 106.725 38.7929C106.789 38.1303 107.152 37.4677 107.697 36.9776C108.243 36.4965 109.215 35.3983 108.361 34.3091C107.506 33.2198 107.697 29.5892 107.879 27.7103C108.061 25.8314 107.815 24.4971 108.243 23.2899C108.67 22.0827 109.996 20.0223 107.879 18.5065C106.943 17.8348 105.28 17.4536 103.617 17.2539C103.799 17.4536 103.962 17.6624 104.108 17.8893Z" fill="url(#paint7_radial_2003_16270)"/>
</g>
<g opacity="0.2" style="mix-blend-mode:soft-light">
<path d="M92.2027 18.7155C92.23 18.7064 92.2663 18.7246 92.2663 18.7518C92.2663 18.9787 92.2754 19.3418 92.5662 19.3781C92.7298 19.3963 92.8934 19.369 93.0661 19.3872C93.2569 19.4053 93.4114 19.4779 93.5932 19.5506C93.8385 19.6504 94.093 19.7321 94.3474 19.8229C94.6019 19.9045 94.8654 20.0407 95.129 20.0952C95.5107 20.1678 95.8833 20.2041 96.274 20.2041C97.0011 20.2041 97.719 20.0952 98.446 20.0589C99.1185 20.0225 99.7728 20.0589 100.445 20.195C101.136 20.3312 101.818 20.5036 102.508 20.6035C103.199 20.7124 103.917 20.7578 104.607 20.6125C104.98 20.5308 105.362 20.4128 105.68 20.1859C105.871 20.0498 106.043 19.8864 106.234 19.7502C107.225 19.0241 108.324 19.6504 109.06 20.5853C109.06 19.8682 108.779 19.1512 107.897 18.5158C105.78 17 100.136 17 98.8004 17C97.4645 17 91.9483 17.5446 91.094 19.3599C90.9941 19.5687 90.9304 19.7593 90.885 19.959C91.1304 19.4053 91.5302 18.9515 92.2027 18.7155Z" fill="url(#paint8_radial_2003_16270)"/>
</g>
<g opacity="0.2" style="mix-blend-mode:soft-light">
<path d="M95.2925 19.2236C95.0744 19.2327 94.62 19.1237 94.4928 18.9513C94.4019 18.8242 94.3383 18.7244 94.202 18.6336C94.0657 18.5519 93.893 18.5701 93.7476 18.5973C93.6567 18.6154 93.5658 18.679 93.4931 18.7244C93.4568 18.7516 93.4114 18.7879 93.3659 18.8151C93.1478 19.0511 92.9661 18.9513 92.8206 18.5156C92.8297 18.5065 92.8116 18.5065 92.8116 18.5156C92.7116 18.7697 92.5662 18.9422 92.8025 19.1237C93.0297 19.2871 93.4023 19.0874 93.6113 19.0057C94.0475 18.8424 94.1293 19.1873 94.4928 19.2508C94.7927 19.3053 95.0017 19.278 95.3016 19.2327C95.3016 19.2417 95.3016 19.2236 95.2925 19.2236Z" fill="url(#paint9_radial_2003_16270)"/>
</g>
<g opacity="0.2" style="mix-blend-mode:soft-light">
<path d="M100.409 19.3238C99.6182 19.3056 98.8458 19.1241 98.0551 19.0969C97.6644 19.0787 97.2645 19.0605 96.8737 19.0605C96.483 19.0605 96.0831 19.115 95.7014 19.0969C95.6923 19.0969 95.6832 19.115 95.7014 19.115C96.0377 19.1695 96.3557 19.2784 96.7101 19.3147C97.1009 19.351 97.5008 19.3692 97.8916 19.3873C98.2823 19.4055 98.6731 19.4145 99.0639 19.4236C99.5092 19.4236 99.9545 19.3328 100.409 19.3238Z" fill="url(#paint10_radial_2003_16270)"/>
</g>
<g opacity="0.2" style="mix-blend-mode:soft-light">
<path d="M107.297 18.7062C107.088 18.7697 106.907 18.688 106.716 18.7334C106.698 18.7334 106.679 18.7516 106.67 18.7697C106.598 18.8787 106.38 18.6971 106.307 18.6608C105.889 18.452 105.671 19.0057 105.353 19.1328C104.735 19.3869 103.935 19.2326 103.281 19.278C102.454 19.3416 101.599 19.2508 100.772 19.3416C100.763 19.3416 100.763 19.3597 100.772 19.3597C101.599 19.4505 102.454 19.4959 103.281 19.5322C103.935 19.5594 104.644 19.6048 105.298 19.4777C105.544 19.4323 105.707 19.3234 105.88 19.151C106.125 18.8877 106.207 19.033 106.489 19.0511C106.634 19.0693 106.707 19.0511 106.789 18.9331C106.861 18.8242 106.716 18.7425 106.97 18.7516C107.088 18.7607 107.179 18.7516 107.297 18.7062C107.307 18.7153 107.307 18.7062 107.297 18.7062Z" fill="url(#paint11_radial_2003_16270)"/>
</g>
<g opacity="0.2" style="mix-blend-mode:soft-light">
<path d="M92.8472 20.567C92.8018 20.4762 92.7383 20.4127 92.6566 20.3491C92.4932 20.2221 92.2844 20.1131 92.4387 19.8953C92.4478 19.8771 92.4206 19.859 92.4115 19.8771C92.2844 20.0405 92.1574 20.2039 92.3207 20.3945C92.3934 20.4853 92.475 20.567 92.5749 20.6396C92.6294 20.6759 92.6838 20.7031 92.7292 20.7485C92.7655 20.7757 92.8109 20.7667 92.8472 20.7939C92.8563 20.7939 92.8653 20.7939 92.8653 20.7848C92.8744 20.685 92.8926 20.6668 92.8472 20.567Z" fill="url(#paint12_radial_2003_16270)"/>
</g>
<g opacity="0.2" style="mix-blend-mode:soft-light">
<path d="M93.8203 29.0723C93.7658 28.1101 93.7295 27.1571 93.6658 26.204C93.6022 25.3145 93.5477 24.4159 93.4568 23.5264C93.3569 22.6097 93.1569 21.7201 93.057 20.8125C93.057 20.7671 93.0024 20.7762 92.9933 20.8125C92.8934 21.6475 92.9752 22.5189 93.0479 23.363C93.1297 24.2435 93.1842 25.1421 93.2387 26.0225C93.3023 26.9302 93.3659 27.8288 93.4386 28.7364C93.5023 29.6169 93.7749 30.4973 93.784 31.3687C93.784 31.3778 93.7931 31.3778 93.7931 31.3687C93.9021 30.5881 93.8567 29.8529 93.8203 29.0723Z" fill="url(#paint13_radial_2003_16270)"/>
</g>
<g opacity="0.2" style="mix-blend-mode:soft-light">
<path d="M93.7022 31.7045C93.7022 31.6682 93.6568 31.6682 93.6568 31.7045C93.6568 32.2945 93.6931 32.9208 93.2387 33.3564C92.9207 33.665 92.8661 33.8829 92.8571 34.3186C92.8571 34.3186 92.8661 34.3276 92.8752 34.3186C93.1842 34.019 93.5568 33.7649 93.7931 33.3927C94.1203 32.8844 93.7386 32.2309 93.7022 31.7045Z" fill="url(#paint14_radial_2003_16270)"/>
</g>
<g opacity="0.2" style="mix-blend-mode:soft-light">
<path d="M93.1024 35.4077C92.8661 35.1808 92.7389 34.8903 92.8207 34.5817C92.8389 34.5182 92.748 34.4819 92.7116 34.5363C92.548 34.8449 92.4117 35.0719 92.5844 35.4077C92.8207 35.8615 93.375 35.8706 93.6658 36.2428C93.6749 36.2428 93.6749 36.2428 93.6749 36.2337C93.4932 35.9523 93.3569 35.6528 93.1024 35.4077Z" fill="url(#paint15_radial_2003_16270)"/>
</g>
<g opacity="0.2" style="mix-blend-mode:soft-light">
<path d="M95.8378 34.1097C95.8106 33.7466 95.747 33.3745 95.7833 33.0205C95.7833 32.9842 95.7288 32.9751 95.7197 33.0114C95.6379 33.3291 95.5743 33.6377 95.4925 33.9554C95.3925 34.3275 95.4925 34.5998 95.1017 34.8358C94.7019 35.0809 94.1657 35.3532 94.1566 35.8887C94.1566 36.0158 94.2657 36.1156 94.3929 36.1156C94.8109 36.1156 95.3471 37.0415 95.4471 37.3864C95.4562 37.4045 95.4743 37.3954 95.4743 37.3864C95.4653 36.8508 95.2381 36.0793 94.7291 35.7798C95.02 35.4076 95.5198 35.2533 95.7924 34.8449C95.9105 34.627 95.856 34.3457 95.8378 34.1097Z" fill="url(#paint16_radial_2003_16270)"/>
</g>
<g opacity="0.2" style="mix-blend-mode:soft-light">
<path d="M98.246 36.9778C98.0552 36.2789 97.3736 36.0429 96.901 35.5982C96.8829 35.58 96.8465 35.6072 96.8647 35.6345C97.3009 36.17 97.8098 36.7781 97.9007 37.477C97.9734 38.0943 98.0734 38.5209 98.3551 39.0655C98.3551 39.0745 98.3642 39.0655 98.3642 39.0655C98.1824 38.3847 98.4278 37.6586 98.246 36.9778Z" fill="url(#paint17_radial_2003_16270)"/>
</g>
<g opacity="0.2" style="mix-blend-mode:soft-light">
<path d="M102.863 35.6707C102.29 36.0791 101.708 36.4149 101.563 37.1502C101.49 37.4951 101.527 37.8854 101.581 38.2303C101.608 38.4391 101.627 38.6387 101.636 38.8384C101.654 39.0835 101.772 39.3013 101.79 39.5464C101.79 39.5555 101.799 39.5555 101.808 39.5464C101.908 38.9474 101.917 38.3664 101.936 37.7492C101.945 36.8869 102.345 36.3242 102.881 35.6888C102.89 35.6797 102.872 35.6525 102.863 35.6707Z" fill="url(#paint18_radial_2003_16270)"/>
</g>
<g opacity="0.2" style="mix-blend-mode:soft-light">
<path d="M106.988 36.1791C106.343 36.5331 105.616 36.6329 105.044 37.114C104.817 37.3046 104.707 37.5769 104.68 37.8673C104.626 38.3393 104.644 38.8295 104.635 39.3015C104.635 39.3559 104.717 39.365 104.726 39.3196C104.844 38.5935 104.935 37.6858 105.589 37.2501C106.062 36.9324 106.68 36.6692 107.016 36.2063C107.034 36.1972 107.007 36.17 106.988 36.1791Z" fill="url(#paint19_radial_2003_16270)"/>
</g>
<g opacity="0.2" style="mix-blend-mode:soft-light">
<path d="M92.0391 23.2085C91.7211 22.2918 90.985 21.6292 90.8759 20.6398C90.8759 20.6126 90.8396 20.6126 90.8396 20.6398C90.8123 21.4023 91.2212 22.1465 91.4848 22.8364C91.6393 23.2448 91.7665 23.6805 91.9392 24.089C92.1027 24.4702 92.4663 25.1328 92.4481 25.5412C92.4481 25.5503 92.4572 25.5503 92.4572 25.5412C92.5117 24.7606 92.2936 23.9437 92.0391 23.2085Z" fill="url(#paint20_radial_2003_16270)"/>
</g>
<g opacity="0.2" style="mix-blend-mode:soft-light">
<path d="M105.08 35.2806C105.089 34.8358 105.234 34.4092 105.234 33.9554C105.243 32.9025 105.116 31.8314 105.007 30.7967C105.007 30.7422 104.934 30.7422 104.934 30.7967C104.825 31.895 104.834 33.0205 104.816 34.1279C104.807 34.5272 104.571 35.0355 104.662 35.4349C104.753 35.8434 105.107 36.1066 105.243 36.4969C105.243 36.506 105.252 36.506 105.252 36.4969C105.152 36.152 105.08 35.6346 105.08 35.2806Z" fill="url(#paint21_radial_2003_16270)"/>
</g>
<g opacity="0.2" style="mix-blend-mode:soft-light">
<path d="M106.479 33.5014C106.125 33.2291 106.125 32.5302 106.098 32.1127C106.098 32.0764 106.043 32.0764 106.043 32.1127C106.007 32.5211 105.871 32.9205 106.071 33.3199C106.289 33.7828 106.698 34.0006 107.07 34.3183C107.079 34.3183 107.079 34.3183 107.079 34.3092C106.879 34.0188 106.761 33.7102 106.479 33.5014Z" fill="url(#paint22_radial_2003_16270)"/>
</g>
<g opacity="0.2" style="mix-blend-mode:soft-light">
<path d="M107.334 34.8628C107.261 34.763 107.225 34.6268 107.197 34.5088C107.179 34.4453 107.079 34.4725 107.088 34.536C107.125 34.6994 107.188 34.8447 107.143 35.008C107.088 35.1896 106.979 35.2803 106.843 35.3893C106.607 35.5708 106.389 35.7796 106.171 35.9792C106.152 35.9974 106.171 36.0337 106.198 36.0246C106.38 35.952 106.561 35.8976 106.734 35.8159C106.916 35.7342 107.134 35.6616 107.243 35.4891C107.325 35.353 107.397 35.2077 107.406 35.0443C107.406 34.9717 107.361 34.9082 107.334 34.8628Z" fill="url(#paint23_radial_2003_16270)"/>
</g>
<g opacity="0.2" style="mix-blend-mode:soft-light">
<path d="M107.279 19.8502C107.27 19.7322 107.161 20.9757 107.161 21.1028C107.207 22.4189 106.789 23.7259 106.689 25.033C106.634 25.7046 106.552 26.3672 106.452 27.0389C106.352 27.6834 106.343 28.3097 106.343 28.9632C106.343 28.9904 106.389 28.9995 106.398 28.9723C106.534 28.3551 106.589 27.7288 106.789 27.1388C106.998 26.5216 107.034 25.859 107.088 25.2145C107.152 24.4884 107.17 23.7622 107.27 23.0361C107.361 22.3916 107.316 20.4765 107.279 19.8502Z" fill="url(#paint24_radial_2003_16270)"/>
</g>
<g opacity="0.2" style="mix-blend-mode:soft-light">
<path d="M104.326 22.1557C104.008 23.3992 103.726 24.6246 103.544 25.9044C103.362 27.1842 103.19 28.464 103.026 29.7438C102.863 31.0055 102.744 32.2853 102.726 33.5561C102.726 34.1823 102.672 34.6543 102.254 35.1445C101.899 35.562 101.627 36.0249 101.399 36.5332C101.381 36.5604 101.427 36.5968 101.445 36.5695C101.781 36.152 102.063 35.7254 102.472 35.3623C102.835 35.0537 103.044 34.7451 103.108 34.264C103.181 33.6741 103.153 33.075 103.19 32.4759C103.235 31.7952 103.29 31.1053 103.372 30.4246C103.517 29.1085 103.717 27.7923 103.88 26.4762C104.062 25.0421 104.18 23.5989 104.389 22.1739C104.408 22.1285 104.344 22.1012 104.326 22.1557Z" fill="url(#paint25_radial_2003_16270)"/>
</g>
<g opacity="0.2" style="mix-blend-mode:soft-light">
<path d="M101.344 24.0253C101.344 23.989 101.281 23.989 101.281 24.0253C101.272 24.9965 101.136 25.9405 101.09 26.9026C101.045 27.8466 101.027 28.7906 101.009 29.7436C100.991 30.6785 100.981 31.6134 100.99 32.5483C101.009 33.5195 100.945 34.5089 101.045 35.471C101.054 35.5164 101.118 35.5164 101.118 35.471C101.562 31.6769 101.372 27.8284 101.344 24.0253Z" fill="url(#paint26_radial_2003_16270)"/>
</g>
<g opacity="0.2" style="mix-blend-mode:soft-light">
<path d="M99.5547 31.323C99.4729 30.1521 99.4183 28.9812 99.3729 27.8012C99.3275 26.6938 99.2639 25.5865 99.1912 24.4791C99.1457 23.8982 99.0639 23.3173 99.0185 22.7364C98.973 22.1555 99.0367 21.5836 98.9549 21.0027C98.9458 20.9392 98.864 20.9392 98.8549 21.0027C98.8095 21.4656 98.8822 21.9195 98.8913 22.3915C98.9003 22.8544 98.8731 23.3173 98.8822 23.7802C98.8913 24.7696 98.9276 25.7589 98.9458 26.7483C98.9912 28.6907 99.1094 30.6331 99.2184 32.5665C99.2729 33.6103 99.4274 34.8447 99.2275 35.8795C99.0821 36.651 98.7277 35.7433 98.6459 35.4256C98.5187 34.8629 98.446 34.291 98.3278 33.7192C98.3096 33.6557 98.2642 34.2093 98.2551 34.282C98.1552 34.8629 98.1006 34.9627 98.2188 35.5345C98.2915 35.8976 98.5732 36.6601 99.0639 36.5693C99.3729 36.5148 99.4729 35.9612 99.5183 35.7161C99.6092 35.235 99.6637 34.754 99.6819 34.2638C99.7455 33.2926 99.6183 32.3032 99.5547 31.323Z" fill="url(#paint27_radial_2003_16270)"/>
</g>
<g opacity="0.2" style="mix-blend-mode:soft-light">
<path d="M96.7374 27.0295C96.6375 25.2051 96.5557 23.4079 95.4742 21.8558C95.4651 21.8467 95.4561 21.8558 95.4561 21.8649C96.3285 23.5259 96.2194 25.55 96.3739 27.3835C96.4557 28.391 96.5738 29.3895 96.6647 30.3879C96.7647 31.3864 96.9283 32.3939 96.9737 33.4014C96.9737 33.4105 96.9919 33.4105 96.9919 33.4014C97.0918 31.2774 96.8556 29.1626 96.7374 27.0295Z" fill="url(#paint28_radial_2003_16270)"/>
</g>
<g opacity="0.2" style="mix-blend-mode:soft-light">
<path d="M91.9392 21.756C91.2394 21.7107 90.9577 21.0208 90.8395 20.3128C90.7396 21.6562 91.721 22.6909 91.821 23.4806C91.9392 24.4518 92.4299 31.0506 92.239 32.2669C92.1482 32.8841 91.8846 33.3561 91.6302 33.819C91.6756 33.7827 91.712 33.7464 91.7483 33.7101C92.0664 33.4105 92.3481 33.0838 92.6843 32.8024C92.7025 32.7842 92.7389 32.7933 92.757 32.8206C92.9842 33.4741 92.439 34.0731 92.439 34.7267C92.439 34.9899 92.4662 35.2985 92.6207 35.5163C92.7934 35.7614 93.0479 35.8159 93.3296 35.7614C93.1478 35.3983 92.8752 34.9445 93.1933 34.5814C93.5386 34.1911 94.0748 34.1185 94.5292 34.3364C94.7563 34.4453 95.0108 34.6087 95.2834 34.5724C95.5197 34.5361 95.4379 34.2547 95.4107 34.0822C95.3743 33.9098 95.338 33.7373 95.2744 33.5739C95.0472 32.9567 94.6836 32.3849 94.5019 31.7495C94.3201 31.1232 94.3111 30.4334 94.2838 29.7889C94.2565 29.09 94.2565 28.4002 94.2474 27.7013C94.2383 26.9479 94.1838 26.2127 94.1111 25.4593C94.0475 24.7514 93.993 24.0343 94.0475 23.3263C94.0748 22.9814 94.1111 22.6456 94.1656 22.3006C94.2202 21.983 94.2383 21.629 94.0112 21.3748C93.784 21.1207 93.4841 20.9664 93.2387 20.7394C93.0206 20.5398 92.8843 20.2947 92.7207 20.0496C92.6116 19.8862 92.4935 19.7138 92.3481 19.5776C92.2663 19.505 92.1663 19.7229 92.1482 19.7864C92.0755 20.0133 92.0664 20.2584 92.0755 20.4944C92.0846 20.8938 92.1573 21.3476 91.9937 21.7288C91.9846 21.747 91.9573 21.756 91.9392 21.756Z" fill="url(#paint29_radial_2003_16270)"/>
</g>
<g opacity="0.2" style="mix-blend-mode:soft-light">
<path d="M99.491 30.8331C99.3911 29.3536 99.3002 27.8832 99.182 26.4037C99.1275 25.7229 99.0548 25.0513 99.0548 24.3614C99.0548 23.6444 99.0912 22.9273 99.0912 22.2012C99.0912 21.7019 99.1639 20.9123 98.5913 20.6672C98.0279 20.4312 97.5372 20.7307 97.101 21.0666C96.7465 21.3389 96.3921 21.5204 95.9377 21.3661C95.447 21.2027 95.0017 20.8669 94.6291 20.5038C94.62 20.4857 94.6109 20.4675 94.62 20.4584C94.5655 20.4403 94.5109 20.4403 94.4564 20.4584C94.6654 20.9667 94.9381 21.4478 95.1289 21.9652C95.3288 22.5098 95.4197 23.0907 95.5106 23.6625C95.7105 24.9605 95.8014 26.2766 96.0195 27.5746C96.2104 28.7273 96.4557 29.871 96.5012 31.051C96.5375 32.0222 96.7647 33.3383 96.7647 34.954C97.5826 35.7255 97.8098 31.4231 97.6735 30.0071C97.6008 29.2265 97.4645 28.2281 97.4645 27.4384C97.4645 27.03 97.3645 25.8591 97.4826 25.4688C97.6644 24.8788 98.0279 28.0103 98.0552 28.2644C98.1824 29.3627 98.455 30.5064 98.4641 31.6137C98.4641 32.5849 98.5005 33.5561 98.5732 34.5364C98.6004 34.8087 98.6004 36.8328 99.173 36.3971C99.4729 36.1702 99.6546 35.317 99.7 34.954C99.7546 34.491 99.7455 34.0281 99.7091 33.5652C99.6546 32.6394 99.5456 31.7408 99.491 30.8331Z" fill="url(#paint30_radial_2003_16270)"/>
</g>
<g opacity="0.2" style="mix-blend-mode:soft-light">
<path d="M96.5648 22.9088C96.3649 22.346 96.0104 21.6017 95.3289 21.5654C95.3379 21.629 95.3652 21.7016 95.4016 21.7651C95.4379 21.8105 95.3561 21.865 95.3289 21.8196C95.3743 22.2008 95.5106 22.5639 95.6288 22.9269C95.7832 23.4262 95.9196 23.9435 96.0559 24.4518C96.3194 25.4956 96.5103 26.5485 96.5921 27.6196C96.6648 28.6906 96.7011 29.7708 96.8011 30.8418C96.8465 31.3047 96.8829 31.7677 96.8919 32.2306C96.901 32.5936 96.901 33.0021 97.1191 33.3016C97.4372 32.8387 97.4645 32.2033 97.4736 31.6587C97.4827 30.4878 97.3827 29.2988 97.3009 28.137C97.2373 27.1839 97.1646 26.2218 97.0464 25.2687C96.9647 24.4791 96.8374 23.6622 96.5648 22.9088Z" fill="url(#paint31_radial_2003_16270)"/>
</g>
<g opacity="0.2" style="mix-blend-mode:soft-light">
<path d="M97.5554 30.7422C97.5826 31.2323 97.6008 31.7406 97.5463 32.2307C97.5008 32.6392 97.419 33.0658 97.1737 33.4107C97.1555 33.4379 97.1191 33.4289 97.101 33.4107C96.8556 33.1203 96.8283 32.73 96.8192 32.3669C96.8102 31.9221 96.7829 31.4774 96.7465 31.0326C96.6375 29.898 96.6011 28.7725 96.5103 27.6379C96.4285 26.4852 96.2195 25.3506 95.9196 24.2342C95.7832 23.7077 95.6378 23.1903 95.4652 22.673C95.3289 22.2645 95.2016 21.847 95.238 21.4113C95.2471 21.3568 95.3379 21.375 95.3289 21.4295C95.3289 21.4385 95.3198 21.4567 95.3198 21.4658C95.8559 21.4839 96.2195 21.9287 96.4376 22.3734C96.7829 23.0723 96.9374 23.862 97.0555 24.6245C97.1737 25.3778 97.2282 26.1312 97.2918 26.8936C97.419 28.1735 97.4917 29.4533 97.5554 30.7422Z" fill="url(#paint32_radial_2003_16270)"/>
</g>
<g opacity="0.2" style="mix-blend-mode:soft-light">
<path d="M98.9186 20.9395C98.7913 21.4114 98.8549 21.9924 98.3369 22.2465C98.1461 22.3373 97.8371 22.419 97.7099 22.6005C97.5372 22.8365 97.6372 23.254 97.6554 23.5263C97.7826 24.9695 98.2188 26.3492 98.4187 27.7742C98.6187 29.1811 98.7186 30.6062 98.8277 32.0221C98.8822 32.721 98.9549 33.4199 99.1094 34.1007C99.173 34.3639 99.2275 34.6544 99.3548 34.8994C99.4002 34.9902 99.4729 35.09 99.5547 34.963C99.6547 34.8087 99.7001 34.609 99.7365 34.4184C99.7455 34.1279 99.7365 33.8465 99.7092 33.5561C99.6456 32.6484 99.5365 31.7407 99.482 30.8331C99.382 29.3536 99.2912 27.8831 99.173 26.4036C99.1185 25.7229 99.0458 25.0512 99.0458 24.3614C99.0458 23.6443 99.0821 22.9273 99.0821 22.2011C99.1003 21.829 99.1458 21.2934 98.9186 20.9395Z" fill="url(#paint33_radial_2003_16270)"/>
</g>
<g opacity="0.2" style="mix-blend-mode:soft-light">
<path d="M104.98 21.0391C104.817 21.0573 104.662 21.0845 104.498 21.1299C104.217 21.2116 103.944 21.3114 103.671 21.4022C103.117 21.5837 102.581 21.7017 101.999 21.5384C101.49 21.4022 101.009 21.1208 100.6 20.7759C100.482 20.7305 100.273 20.6398 100.264 20.8485C100.264 20.9756 100.291 21.1118 100.327 21.2388C100.382 21.4385 100.454 21.6291 100.527 21.8197C100.609 22.0648 100.609 22.3734 100.627 22.6276C100.672 23.3083 100.663 23.9981 100.663 24.688C100.672 26.1493 100.691 27.6107 100.718 29.072C100.727 29.6711 100.782 30.2702 100.782 30.8783C100.782 31.3412 100.745 31.8132 100.727 32.2761C100.709 32.7844 100.682 33.3018 100.727 33.8192C100.763 34.2004 100.818 34.6179 101.036 34.9447C101.336 34.4545 101.436 33.8645 101.499 33.3018C101.554 32.7935 101.581 32.2852 101.609 31.7678C101.627 31.2777 101.618 30.7785 101.672 30.2792C101.718 29.8708 101.799 29.4351 102.09 29.1265C102.117 29.0993 102.145 29.0993 102.172 29.1356C102.699 30.0977 102.535 31.3321 102.472 32.385C102.436 32.9024 102.354 33.3835 102.227 33.8827C102.108 34.3547 101.927 34.8993 102.027 35.3985C103.817 34.4364 103.517 32.0401 103.49 30.3246C103.472 28.9813 103.599 27.6379 103.817 26.3127C103.926 25.641 104.053 24.9694 104.217 24.3068C104.344 23.8075 104.562 23.3355 104.735 22.8545C104.926 22.3553 105.135 21.8197 105.144 21.2842C105.144 21.2025 105.144 21.1118 105.125 21.0301C105.144 21.0119 104.989 21.0391 104.98 21.0391Z" fill="url(#paint34_radial_2003_16270)"/>
</g>
<g opacity="0.2" style="mix-blend-mode:soft-light">
<path d="M102.554 32.3122C102.517 32.8115 102.454 33.4196 102.708 33.8825C102.863 33.701 102.908 33.4196 102.926 33.2018C102.954 32.9295 102.954 32.6481 102.954 32.3667C102.963 31.6678 103.09 30.987 103.181 30.2972C103.417 28.5999 103.581 26.8934 103.808 25.1961C103.89 24.5698 103.971 23.9254 104.162 23.3263C104.253 23.0449 104.353 22.7635 104.398 22.464C104.417 22.3642 104.471 21.7197 104.289 21.8196C103.926 22.0102 103.853 22.5638 103.735 22.9178C103.626 23.2628 103.481 23.5895 103.126 23.7438C102.772 23.889 102.272 23.9163 101.963 23.6349C101.736 23.4261 101.709 23.0721 101.663 22.7817C101.627 22.582 101.599 22.3732 101.536 22.1735C101.509 22.1009 101.363 21.7106 101.245 21.9103C101.19 22.0011 101.172 22.1009 101.154 22.2008C101.154 22.5003 101.154 22.7998 101.154 23.0994C101.127 25.8768 101.163 28.6543 100.936 31.4227C100.909 31.7858 100.872 32.1489 100.863 32.5119C100.854 32.875 100.818 33.2925 100.945 33.6374C100.963 33.6919 100.991 33.7736 101.045 33.8099C101.1 33.8462 101.19 33.4922 101.2 33.4468C101.245 33.1564 101.236 32.8659 101.227 32.5755C101.218 31.8856 101.254 31.1958 101.354 30.5241C101.454 29.8524 101.563 29.1898 101.599 28.5091C101.627 28.0916 101.609 27.6377 101.754 27.2384C101.818 27.0659 101.908 26.9116 102.063 26.8117C102.127 26.7664 102.245 26.8844 102.281 26.9297C102.508 27.1748 102.572 27.547 102.617 27.8646C102.735 28.7451 102.699 29.6618 102.654 30.5514C102.635 31.1323 102.599 31.7222 102.554 32.3122Z" fill="url(#paint35_radial_2003_16270)"/>
</g>
<g opacity="0.2" style="mix-blend-mode:soft-light">
<path d="M106.988 32.2128C107.261 32.4397 107.67 33.302 108.133 33.8376C107.579 32.4034 107.743 29.3718 107.906 27.7108C107.943 27.3205 107.961 26.9574 107.97 26.6125C107.861 26.9937 107.77 27.3749 107.734 27.7743C107.697 28.1283 107.688 28.5277 107.461 28.8272C107.434 28.8544 107.397 28.8454 107.379 28.8181C107.007 28.0738 107.125 27.0845 107.225 26.2948C107.352 25.2328 107.525 24.1799 107.615 23.1089C107.688 22.2829 107.834 21.4206 107.761 20.5856C107.734 20.3133 107.588 19.6143 107.207 20.041C107.079 20.1771 106.988 20.3314 106.898 20.5039C106.734 21.0485 106.716 21.6566 106.661 22.2103C106.589 22.9546 106.434 23.6807 106.38 24.425C106.27 25.9408 106.298 27.5383 105.698 28.9634C105.68 28.9997 105.625 28.9997 105.616 28.9634C105.262 28.1011 105.325 27.1299 105.307 26.2131C104.862 27.9922 104.971 29.8529 104.898 31.6682C104.862 32.6485 104.935 33.6651 104.771 34.6363C104.716 34.9268 104.626 35.2535 104.68 35.544C104.744 35.8526 104.962 36.0523 105.216 36.2247C105.234 35.8435 105.253 35.4623 105.28 35.0811C105.307 34.7362 105.38 34.4003 105.398 34.0645C105.444 33.4291 105.389 32.7393 105.662 32.1584C105.68 32.1311 105.725 32.113 105.743 32.1402C105.98 32.4851 106.007 32.9117 106.152 33.293C106.307 33.7014 106.716 33.9374 106.87 34.3549C106.97 34.6363 106.988 34.8995 106.843 35.1718C106.698 35.4532 106.461 35.6801 106.298 35.9615C106.698 35.8617 107.179 35.7164 107.397 35.3443C107.57 35.0629 107.543 34.7271 107.47 34.4185C107.306 33.6923 106.961 33.0207 106.934 32.2673C106.907 32.2219 106.952 32.1856 106.988 32.2128Z" fill="url(#paint36_radial_2003_16270)"/>
</g>
<g opacity="0.2" style="mix-blend-mode:soft-light">
<path d="M107.897 27.7195C108.079 25.8406 107.834 24.5064 108.261 23.2991C108.579 22.3915 109.415 21.0027 108.906 19.7229C108.879 19.8137 108.842 19.8954 108.797 19.9771C108.579 20.4037 108.179 20.7032 107.752 20.9029C107.234 21.148 106.67 21.275 106.107 21.3749C105.207 21.5383 104.308 21.629 103.399 21.6744C101.999 21.747 100.609 21.7016 99.2185 21.6381C97.9462 21.5837 96.6648 21.6472 95.3835 21.5927C94.7382 21.5655 94.0839 21.511 93.4478 21.393C92.9116 21.2932 92.3209 21.1752 91.8392 20.9029C91.2667 20.5852 91.0668 20.0769 91.0304 19.5142C90.3216 21.2569 91.7029 22.5458 91.8211 23.4898C91.9392 24.461 92.43 31.0597 92.2391 32.276C92.1119 33.1383 91.6484 33.7192 91.3394 34.3818C92.4209 33.7555 94.0657 34.046 95.229 34.2729C96.1105 34.4454 96.9647 34.5997 97.8553 34.6995C99.3094 34.8629 100.782 35.0263 102.254 34.9809C102.972 34.9627 103.681 34.9083 104.389 34.7721C105.08 34.645 105.753 34.4272 106.452 34.3455C107.061 34.2729 107.616 34.3637 108.197 34.5543C108.333 34.5997 108.461 34.6541 108.597 34.6995C108.552 34.5724 108.479 34.4544 108.379 34.3274C107.534 33.2291 107.716 29.5984 107.897 27.7195Z" fill="url(#paint37_radial_2003_16270)"/>
</g>
<g opacity="0.2" style="mix-blend-mode:soft-light">
<path d="M108.17 34.6359C107.461 34.3999 106.798 34.3454 106.062 34.4906C105.307 34.6359 104.58 34.8446 103.817 34.9445C103.099 35.0352 102.381 35.0715 101.654 35.0625C100.209 35.0443 98.7732 34.8809 97.3373 34.7085C96.5285 34.6086 95.7288 34.4271 94.92 34.2819C93.8113 34.0822 92.2663 33.8462 91.2849 34.4997C91.194 34.7266 91.1213 34.9626 91.094 35.2168C90.9759 36.306 92.0119 36.896 92.5481 37.2772C92.9661 37.5767 93.166 39.3194 93.1478 39.7551C93.1388 40.1545 93.1206 40.6537 93.1024 41.2528C93.5114 41.2619 93.9294 41.28 94.3383 41.3072C97.31 41.4615 100.254 41.8428 103.226 42.0243C104.371 42.0969 105.516 42.1423 106.67 42.1605C106.634 40.7808 106.652 39.6281 106.734 38.7748C106.798 38.1122 107.161 37.4496 107.706 36.9595C108.17 36.551 108.942 35.6978 108.633 34.7811C108.488 34.7448 108.333 34.6903 108.17 34.6359Z" fill="url(#paint38_radial_2003_16270)"/>
</g>
<g opacity="0.2" style="mix-blend-mode:soft-light">
<path d="M96.2831 32.6031C96.2286 32.0494 96.1831 31.4957 96.1377 30.9421C96.0377 29.7076 95.8832 28.4823 95.7015 27.266C95.5288 26.1133 95.3834 24.9787 94.8745 23.9258C94.7745 23.7261 94.4837 23.835 94.4746 24.0347C94.4201 25.1602 94.6836 26.2585 94.6746 27.384C94.6655 28.2009 94.6109 29.036 94.6291 29.8529C94.6291 29.8982 94.6291 29.9436 94.6291 29.989C94.5928 30.9693 94.7018 31.9587 94.7927 32.9389C94.8381 33.3928 94.9381 33.8829 94.8745 34.3368C94.8109 34.7543 94.4746 35.0357 94.3928 35.435C94.3565 35.5984 94.5201 35.7255 94.6655 35.6438C95.3925 35.2626 96.0831 34.8995 96.3103 34.0554C96.4012 33.5834 96.3285 33.066 96.2831 32.6031Z" fill="url(#paint39_radial_2003_16270)"/>
</g>
<g opacity="0.2" style="mix-blend-mode:soft-light">
<path d="M94.4746 35.5435C94.7745 35.5163 95.0926 35.244 95.3016 35.0715C95.556 34.8628 95.8923 34.5723 95.9832 34.2455C96.1286 33.7463 95.9105 33.2108 95.8832 32.7116C95.8559 32.1397 95.9559 31.5588 95.9196 30.987C95.865 29.807 95.7105 28.618 95.5015 27.4652C95.3925 26.8753 95.2652 26.3216 95.0108 25.786C94.9108 25.5682 94.8018 25.3594 94.7109 25.1416C94.7382 25.4502 94.8018 25.7588 94.8654 26.0493C94.9563 26.494 95.0471 26.9206 95.0653 27.3745C95.1108 28.3911 95.1653 29.3986 95.138 30.4242C95.1198 30.9689 95.1562 31.5044 95.1925 32.049C95.2289 32.521 95.3107 33.0202 95.2743 33.4922C95.2198 34.2546 94.7654 34.8628 94.4746 35.5435Z" fill="url(#paint40_radial_2003_16270)"/>
</g>
<path d="M111.696 69.999C111.605 69.763 111.514 69.527 111.423 69.3001C104.916 73.0215 100.045 76.9971 100.045 76.9971C96.274 73.7023 92.0755 71.1154 88.604 69.2456C88.5222 69.5088 88.4313 69.763 88.3405 70.0171C91.8574 71.9142 96.1741 74.5918 100.036 77.9592C100.045 77.9683 105.044 73.8021 111.696 69.999Z" fill="url(#paint41_linear_2003_16270)"/>
<path d="M111.696 69.999C111.605 69.763 111.514 69.527 111.423 69.3001C104.916 73.0215 100.045 76.9971 100.045 76.9971C96.274 73.7023 92.0755 71.1154 88.604 69.2456C88.5222 69.5088 88.4313 69.763 88.3405 70.0171C91.8574 71.9142 96.1741 74.5918 100.036 77.9592C100.045 77.9683 105.044 73.8021 111.696 69.999Z" fill="url(#paint42_radial_2003_16270)"/>
<path d="M100.045 94.3519C100.045 94.3519 107.506 86.2373 116.294 80.7822C116.167 80.4917 116.04 80.2103 115.913 79.929C107.288 85.3568 100.045 93.0902 100.045 93.0902C94.4382 86.7002 87.8951 82.3071 84.1873 80.1014C84.051 80.4009 83.9055 80.6914 83.7783 80.9909C87.3952 83.1512 94.2292 87.7168 100.045 94.3519Z" fill="url(#paint43_linear_2003_16270)"/>
<path d="M100.045 94.3519C100.045 94.3519 107.506 86.2373 116.294 80.7822C116.167 80.4917 116.04 80.2103 115.913 79.929C107.288 85.3568 100.045 93.0902 100.045 93.0902C94.4382 86.7002 87.8951 82.3071 84.1873 80.1014C84.051 80.4009 83.9055 80.6914 83.7783 80.9909C87.3952 83.1512 94.2292 87.7168 100.045 94.3519Z" fill="url(#paint44_radial_2003_16270)"/>
<path d="M100.045 93.0811C100.045 93.0811 107.288 85.3477 115.913 79.9199C114.34 76.4163 112.832 72.8945 111.696 69.999C105.053 73.8022 100.045 77.9593 100.045 77.9593C96.1832 74.5918 91.8665 71.9142 88.3496 70.0172C88.0769 70.7978 87.8043 71.5602 87.5044 72.3227C86.4048 75.1455 85.287 77.6961 84.1874 80.0923C87.8952 82.298 94.4383 86.6911 100.045 93.0811Z" fill="url(#paint45_linear_2003_16270)"/>
<path d="M106.361 84.785C106.607 85.3477 106.843 85.9196 107.079 86.4823C109.624 84.3221 112.668 81.9621 115.913 79.9199C114.34 76.4163 112.832 72.8945 111.696 69.999C107.716 72.2773 104.335 74.6826 102.254 76.2438C103.771 79.0122 105.107 81.8895 106.361 84.785Z" fill="url(#paint46_linear_2003_16270)"/>
<path d="M98.0552 76.3256C94.7473 73.7206 91.2667 71.6057 88.3404 70.0264C88.0678 70.807 87.7951 71.5694 87.4952 72.3318C86.3956 75.1547 85.2778 77.7053 84.1782 80.1015C86.5501 81.5084 90.0853 83.8139 93.784 86.9635C95.3198 83.4599 96.8102 79.9381 98.0552 76.3256Z" fill="url(#paint47_linear_2003_16270)"/>
<path d="M107.352 80.537C107.352 83.4779 104.062 85.865 100.018 85.865C95.9651 85.865 92.6753 83.4779 92.6753 80.537C92.6753 77.5962 95.9651 75.209 100.018 75.209C104.062 75.209 107.352 77.5962 107.352 80.537Z" fill="url(#paint48_linear_2003_16270)"/>
<path d="M125.927 124.922H74.2726V168.481C83.9238 169.843 104.071 171.712 125.809 167.991C125.809 157.58 125.873 138.464 125.927 124.922Z" fill="url(#paint49_linear_2003_16270)"/>
<g opacity="0.4" style="mix-blend-mode:soft-light">
<path d="M105.38 50.3751C105.38 55.2856 107.17 71.7326 116.294 87.8075C119.384 93.2535 121.574 103.619 121.574 112.342C121.574 121.065 121.574 173.401 121.574 176.669C121.574 179.936 118.484 181.216 116.485 181.388C114.477 181.57 100.336 181.933 100.336 181.933C100.336 181.933 104.335 181.025 104.335 178.302C104.335 175.579 104.289 119.059 104.289 113.068C104.289 107.068 104.653 90.8119 103.744 85.0028C102.835 79.1846 104.298 62.547 104.117 54.9226C103.926 47.289 105.38 45.6552 105.38 50.3751Z" fill="url(#paint50_radial_2003_16270)"/>
</g>
<g opacity="0.4" style="mix-blend-mode:soft-light">
<path d="M94.8563 50.3751C94.8563 55.2856 93.0661 71.7326 83.942 87.8075C80.843 93.2535 78.662 103.619 78.662 112.342C78.662 121.065 78.662 173.401 78.662 176.669C78.662 179.936 81.7518 181.216 83.7511 181.388C85.7595 181.57 93.9385 181.933 93.9385 181.933C93.9385 181.933 89.9399 181.025 89.9399 178.302C89.9399 175.579 89.9399 119.059 89.9399 113.068C89.9399 107.068 91.0304 91.2657 91.9392 85.4475C92.8479 79.6294 95.9469 62.547 96.1195 54.9226C96.3195 47.289 94.8563 45.6552 94.8563 50.3751Z" fill="url(#paint51_radial_2003_16270)"/>
</g>
<g opacity="0.4" style="mix-blend-mode:soft-light">
<path d="M100.5 58.1902C100.5 58.1902 104.199 79.8836 105.78 89.4958C107.416 99.4439 106.443 110.154 106.316 123.243C106.134 141.778 105.135 164.224 106.316 165.404C107.497 166.584 115.958 168.49 115.958 162.5C115.958 156.5 115.231 110.163 115.231 103.256C115.231 96.3487 110.015 81.8714 107.825 75.3271C105.644 68.7828 102.672 60.5502 102.854 58.1902C103.044 55.8303 100.5 52.9167 100.5 58.1902Z" fill="url(#paint52_radial_2003_16270)"/>
</g>
<path d="M111.696 69.999C111.605 69.763 111.514 69.527 111.423 69.3001C104.916 73.0215 100.045 76.9971 100.045 76.9971C96.274 73.7023 92.0755 71.1154 88.604 69.2456C88.5222 69.5088 88.4313 69.763 88.3405 70.0171C91.8574 71.9142 96.1741 74.5918 100.036 77.9592C100.045 77.9683 105.044 73.8021 111.696 69.999Z" fill="url(#paint53_linear_2003_16270)"/>
<g opacity="0.2" style="mix-blend-mode:soft-light">
<path d="M111.696 69.999C111.605 69.763 111.514 69.527 111.423 69.3001C104.916 73.0215 100.045 76.9971 100.045 76.9971C96.274 73.7023 92.0755 71.1154 88.604 69.2456C88.5222 69.5088 88.4313 69.763 88.3405 70.0171C91.8574 71.9142 96.1741 74.5918 100.036 77.9592C100.045 77.9683 105.044 73.8021 111.696 69.999Z" fill="url(#paint54_radial_2003_16270)"/>
</g>
<path d="M100.045 94.3519C100.045 94.3519 107.506 86.2373 116.294 80.7822C116.167 80.4917 116.04 80.2103 115.913 79.929C107.288 85.3568 100.045 93.0902 100.045 93.0902C94.4382 86.7002 87.8951 82.3071 84.1873 80.1014C84.051 80.4009 83.9055 80.6914 83.7783 80.9909C87.3952 83.1512 94.2292 87.7168 100.045 94.3519Z" fill="url(#paint55_linear_2003_16270)"/>
<g opacity="0.2" style="mix-blend-mode:soft-light">
<path d="M100.045 94.3519C100.045 94.3519 107.506 86.2373 116.294 80.7822C116.167 80.4917 116.04 80.2103 115.913 79.929C107.288 85.3568 100.045 93.0902 100.045 93.0902C94.4382 86.7002 87.8951 82.3071 84.1873 80.1014C84.051 80.4009 83.9055 80.6914 83.7783 80.9909C87.3952 83.1512 94.2292 87.7168 100.045 94.3519Z" fill="url(#paint56_radial_2003_16270)"/>
</g>
<path d="M100.045 93.0811C100.045 93.0811 107.288 85.3477 115.913 79.9199C114.34 76.4163 112.832 72.8945 111.696 69.999C105.053 73.8022 100.045 77.9593 100.045 77.9593C96.1832 74.5918 91.8665 71.9142 88.3496 70.0172C88.0769 70.7978 87.8043 71.5602 87.5044 72.3227C86.4048 75.1455 85.287 77.6961 84.1874 80.0923C87.8952 82.298 94.4383 86.6911 100.045 93.0811Z" fill="url(#paint57_linear_2003_16270)"/>
<g opacity="0.2" style="mix-blend-mode:soft-light">
<path d="M106.361 84.785C106.607 85.3477 106.843 85.9196 107.079 86.4823C109.624 84.3221 112.668 81.9621 115.913 79.9199C114.34 76.4163 112.832 72.8945 111.696 69.999C107.716 72.2773 104.335 74.6826 102.254 76.2438C103.771 79.0122 105.107 81.8895 106.361 84.785Z" fill="url(#paint58_linear_2003_16270)"/>
</g>
<g opacity="0.2" style="mix-blend-mode:soft-light">
<path d="M98.0552 76.3256C94.7473 73.7206 91.2667 71.6057 88.3404 70.0264C88.0678 70.807 87.7951 71.5694 87.4952 72.3318C86.3956 75.1547 85.2778 77.7053 84.1782 80.1015C86.5501 81.5084 90.0853 83.8139 93.784 86.9635C95.3198 83.4599 96.8102 79.9381 98.0552 76.3256Z" fill="url(#paint59_linear_2003_16270)"/>
</g>
<path d="M107.352 80.537C107.352 83.4779 104.062 85.865 100.018 85.865C95.9651 85.865 92.6753 83.4779 92.6753 80.537C92.6753 77.5962 95.9651 75.209 100.018 75.209C104.062 75.209 107.352 77.5962 107.352 80.537Z" fill="url(#paint60_linear_2003_16270)"/>
<defs>
<linearGradient id="paint0_linear_2003_16270" x1="73.9366" y1="100.002" x2="126.018" y2="100.002" gradientUnits="userSpaceOnUse">
<stop offset="0.0752688" stop-color="#080908"/>
<stop offset="0.2312" stop-color="#090F09"/>
<stop offset="0.4409" stop-color="#0D170E"/>
<stop offset="0.6828" stop-color="#0C140C"/>
<stop offset="0.7849" stop-color="#080E09"/>
<stop offset="0.9409" stop-color="#040504"/>
</linearGradient>
<radialGradient id="paint1_radial_2003_16270" cx="0" cy="0" r="1" gradientUnits="userSpaceOnUse" gradientTransform="translate(-17.6151 41.9034) scale(114.954 114.815)">
<stop offset="0.8966" stop-color="#1C261E"/>
<stop offset="0.9303" stop-color="#375E00"/>
<stop offset="1" stop-color="white"/>
</radialGradient>
<radialGradient id="paint2_radial_2003_16270" cx="0" cy="0" r="1" gradientUnits="userSpaceOnUse" gradientTransform="translate(197.742 48.719) scale(93.7862 93.6724)">
<stop offset="0.8966" stop-color="#1C261E"/>
<stop offset="0.9303" stop-color="#375E00"/>
<stop offset="1" stop-color="white"/>
</radialGradient>
<radialGradient id="paint3_radial_2003_16270" cx="0" cy="0" r="1" gradientUnits="userSpaceOnUse" gradientTransform="translate(100.193 74.0948) scale(109.163 109.03)">
<stop offset="0.8966" stop-color="#080908"/>
<stop offset="0.9303" stop-color="#090F09"/>
<stop offset="0.9762" stop-color="#2A2D2B"/>
<stop offset="1" stop-color="#090C09"/>
</radialGradient>
<linearGradient id="paint4_linear_2003_16270" x1="88.6059" y1="46.9975" x2="111.424" y2="46.9975" gradientUnits="userSpaceOnUse">
<stop offset="0.0787324" stop-color="#AA8443"/>
<stop offset="0.2258" stop-color="#C2A559"/>
<stop offset="0.3937" stop-color="#FAF3D6"/>
<stop offset="0.5771" stop-color="#FAF3D6"/>
<stop offset="0.6162" stop-color="#EFE3BD"/>
<stop offset="0.699" stop-color="#D2BB7C"/>
<stop offset="0.7406" stop-color="#C2A559"/>
<stop offset="0.8801" stop-color="#AA8443"/>
</linearGradient>
<radialGradient id="paint5_radial_2003_16270" cx="0" cy="0" r="1" gradientUnits="userSpaceOnUse" gradientTransform="translate(23.1779 54.5544) scale(79.3981 79.3017)">
<stop offset="0.9334" stop-color="white"/>
<stop offset="0.954" stop-color="#E4D4A5"/>
<stop offset="0.9691" stop-color="#C2A559"/>
<stop offset="0.9891" stop-color="#AA8443"/>
</radialGradient>
<radialGradient id="paint6_radial_2003_16270" cx="0" cy="0" r="1" gradientUnits="userSpaceOnUse" gradientTransform="translate(1.3433 46.2657) scale(95.5445 95.4286)">
<stop offset="0.9532" stop-color="#AA8443"/>
<stop offset="0.9691" stop-color="#C2A559"/>
<stop offset="0.9789" stop-color="#E4D4A5"/>
<stop offset="0.9857" stop-color="white"/>
</radialGradient>
<radialGradient id="paint7_radial_2003_16270" cx="0" cy="0" r="1" gradientUnits="userSpaceOnUse" gradientTransform="translate(222.589 44.196) scale(120.459 120.313)">
<stop offset="0.9532" stop-color="#AA8443"/>
<stop offset="0.9691" stop-color="#C2A559"/>
<stop offset="0.9789" stop-color="#E4D4A5"/>
<stop offset="0.9857" stop-color="white"/>
</radialGradient>
<radialGradient id="paint8_radial_2003_16270" cx="0" cy="0" r="1" gradientUnits="userSpaceOnUse" gradientTransform="translate(99.8626 57.4063) scale(39.8347 39.7864)">
<stop offset="0.9064" stop-color="white"/>
<stop offset="0.9612" stop-color="#E4D4A5"/>
<stop offset="0.984" stop-color="#C2A559"/>
<stop offset="1" stop-color="#AA8443"/>
</radialGradient>
<radialGradient id="paint9_radial_2003_16270" cx="0" cy="0" r="1" gradientUnits="userSpaceOnUse" gradientTransform="translate(93.9839 18.9028) scale(0.966553 0.965381)">
<stop offset="0.0787324" stop-color="#AA8443"/>
<stop offset="0.672" stop-color="#C2A559"/>
<stop offset="1" stop-color="#E4D4A5"/>
</radialGradient>
<radialGradient id="paint10_radial_2003_16270" cx="0" cy="0" r="1" gradientUnits="userSpaceOnUse" gradientTransform="translate(98.0509 19.2344) scale(1.67348 1.67145)">
<stop offset="0.0787324" stop-color="#AA8443"/>
<stop offset="0.672" stop-color="#C2A559"/>
<stop offset="1" stop-color="#E4D4A5"/>
</radialGradient>
<radialGradient id="paint11_radial_2003_16270" cx="0" cy="0" r="1" gradientUnits="userSpaceOnUse" gradientTransform="translate(104.034 19.0875) scale(2.33427 2.33144)">
<stop offset="0.0787324" stop-color="#AA8443"/>
<stop offset="0.672" stop-color="#C2A559"/>
<stop offset="1" stop-color="#E4D4A5"/>
</radialGradient>
<radialGradient id="paint12_radial_2003_16270" cx="0" cy="0" r="1" gradientUnits="userSpaceOnUse" gradientTransform="translate(92.5624 20.3316) scale(0.392831)">
<stop offset="0.0787324" stop-color="#AA8443"/>
<stop offset="0.672" stop-color="#C2A559"/>
<stop offset="1" stop-color="#E4D4A5"/>
</radialGradient>
<radialGradient id="paint13_radial_2003_16270" cx="0" cy="0" r="1" gradientUnits="userSpaceOnUse" gradientTransform="translate(93.4003 26.0704) scale(3.76595 3.76138)">
<stop offset="0.0787324" stop-color="#AA8443"/>
<stop offset="0.672" stop-color="#C2A559"/>
<stop offset="1" stop-color="#E4D4A5"/>
</radialGradient>
<radialGradient id="paint14_radial_2003_16270" cx="0" cy="0" r="1" gradientUnits="userSpaceOnUse" gradientTransform="translate(93.3862 33.0014) scale(1.00896 1.00773)">
<stop offset="0.0787324" stop-color="#AA8443"/>
<stop offset="0.672" stop-color="#C2A559"/>
<stop offset="1" stop-color="#E4D4A5"/>
</radialGradient>
<radialGradient id="paint15_radial_2003_16270" cx="0" cy="0" r="1" gradientUnits="userSpaceOnUse" gradientTransform="translate(93.0966 35.3806) scale(0.743023 0.742121)">
<stop offset="0.0787324" stop-color="#AA8443"/>
<stop offset="0.672" stop-color="#C2A559"/>
<stop offset="1" stop-color="#E4D4A5"/>
</radialGradient>
<radialGradient id="paint16_radial_2003_16270" cx="0" cy="0" r="1" gradientUnits="userSpaceOnUse" gradientTransform="translate(95.0066 35.1917) scale(1.67256 1.67053)">
<stop offset="0.0787324" stop-color="#AA8443"/>
<stop offset="0.672" stop-color="#C2A559"/>
<stop offset="1" stop-color="#E4D4A5"/>
</radialGradient>
<radialGradient id="paint17_radial_2003_16270" cx="0" cy="0" r="1" gradientUnits="userSpaceOnUse" gradientTransform="translate(97.6143 37.3281) scale(1.34241 1.34079)">
<stop offset="0.0787324" stop-color="#AA8443"/>
<stop offset="0.672" stop-color="#C2A559"/>
<stop offset="1" stop-color="#E4D4A5"/>
</radialGradient>
<radialGradient id="paint18_radial_2003_16270" cx="0" cy="0" r="1" gradientUnits="userSpaceOnUse" gradientTransform="translate(102.201 37.605) scale(1.4561 1.45433)">
<stop offset="0.0787324" stop-color="#AA8443"/>
<stop offset="0.672" stop-color="#C2A559"/>
<stop offset="1" stop-color="#E4D4A5"/>
</radialGradient>
<radialGradient id="paint19_radial_2003_16270" cx="0" cy="0" r="1" gradientUnits="userSpaceOnUse" gradientTransform="translate(105.832 37.7697) scale(1.40743 1.40572)">
<stop offset="0.0787324" stop-color="#AA8443"/>
<stop offset="0.672" stop-color="#C2A559"/>
<stop offset="1" stop-color="#E4D4A5"/>
</radialGradient>
<radialGradient id="paint20_radial_2003_16270" cx="0" cy="0" r="1" gradientUnits="userSpaceOnUse" gradientTransform="translate(91.6493 23.0863) scale(1.838 1.83577)">
<stop offset="0.0787324" stop-color="#AA8443"/>
<stop offset="0.672" stop-color="#C2A559"/>
<stop offset="1" stop-color="#E4D4A5"/>
</radialGradient>
<radialGradient id="paint21_radial_2003_16270" cx="0" cy="0" r="1" gradientUnits="userSpaceOnUse" gradientTransform="translate(104.952 33.629) scale(2.04217)">
<stop offset="0.0787324" stop-color="#AA8443"/>
<stop offset="0.672" stop-color="#C2A559"/>
<stop offset="1" stop-color="#E4D4A5"/>
</radialGradient>
<radialGradient id="paint22_radial_2003_16270" cx="0" cy="0" r="1" gradientUnits="userSpaceOnUse" gradientTransform="translate(106.521 33.2029) scale(0.884728 0.883654)">
<stop offset="0.0787324" stop-color="#AA8443"/>
<stop offset="0.672" stop-color="#C2A559"/>
<stop offset="1" stop-color="#E4D4A5"/>
</radialGradient>
<radialGradient id="paint23_radial_2003_16270" cx="0" cy="0" r="1" gradientUnits="userSpaceOnUse" gradientTransform="translate(106.782 35.2448) scale(0.704327 0.703473)">
<stop offset="0.0787324" stop-color="#AA8443"/>
<stop offset="0.672" stop-color="#C2A559"/>
<stop offset="1" stop-color="#E4D4A5"/>
</radialGradient>
<radialGradient id="paint24_radial_2003_16270" cx="0" cy="0" r="1" gradientUnits="userSpaceOnUse" gradientTransform="translate(106.833 24.4095) scale(3.25536 3.25141)">
<stop offset="0.0787324" stop-color="#AA8443"/>
<stop offset="0.672" stop-color="#C2A559"/>
<stop offset="1" stop-color="#E4D4A5"/>
</radialGradient>
<radialGradient id="paint25_radial_2003_16270" cx="0" cy="0" r="1" gradientUnits="userSpaceOnUse" gradientTransform="translate(102.903 29.35) scale(5.22363 5.2173)">
<stop offset="0.0787324" stop-color="#AA8443"/>
<stop offset="0.672" stop-color="#C2A559"/>
<stop offset="1" stop-color="#E4D4A5"/>
</radialGradient>
<radialGradient id="paint26_radial_2003_16270" cx="0" cy="0" r="1" gradientUnits="userSpaceOnUse" gradientTransform="translate(101.199 29.7528) scale(4.07398 4.07399)">
<stop offset="0.0787324" stop-color="#AA8443"/>
<stop offset="0.672" stop-color="#C2A559"/>
<stop offset="1" stop-color="#E4D4A5"/>
</radialGradient>
<radialGradient id="paint27_radial_2003_16270" cx="0" cy="0" r="1" gradientUnits="userSpaceOnUse" gradientTransform="translate(98.9406 28.7729) scale(5.56103 5.55429)">
<stop offset="0.0787324" stop-color="#AA8443"/>
<stop offset="0.672" stop-color="#C2A559"/>
<stop offset="1" stop-color="#E4D4A5"/>
</radialGradient>
<radialGradient id="paint28_radial_2003_16270" cx="0" cy="0" r="1" gradientUnits="userSpaceOnUse" gradientTransform="translate(96.245 27.6376) scale(4.12681 4.12181)">
<stop offset="0.0787324" stop-color="#AA8443"/>
<stop offset="0.672" stop-color="#C2A559"/>
<stop offset="1" stop-color="#E4D4A5"/>
</radialGradient>
<radialGradient id="paint29_radial_2003_16270" cx="0" cy="0" r="1" gradientUnits="userSpaceOnUse" gradientTransform="translate(54.8428 28.4779) scale(40.7031 40.6537)">
<stop offset="0.9405" stop-color="#AA8443"/>
<stop offset="0.9719" stop-color="#E4D4A5"/>
<stop offset="0.999" stop-color="white"/>
</radialGradient>
<radialGradient id="paint30_radial_2003_16270" cx="0" cy="0" r="1" gradientUnits="userSpaceOnUse" gradientTransform="translate(92.86 28.8411) scale(9.14468 9.13359)">
<stop stop-color="#AA8443"/>
<stop offset="0.3925" stop-color="#F1E9D1"/>
<stop offset="0.4892" stop-color="#C2A559"/>
<stop offset="0.7849" stop-color="#E4D4A5"/>
<stop offset="0.9731" stop-color="white"/>
</radialGradient>
<radialGradient id="paint31_radial_2003_16270" cx="0" cy="0" r="1" gradientUnits="userSpaceOnUse" gradientTransform="translate(92.8623 28.8407) scale(9.14109 9.13)">
<stop stop-color="#AA8443"/>
<stop offset="0.3925" stop-color="#F1E9D1"/>
<stop offset="0.4892" stop-color="#C2A559"/>
<stop offset="0.7849" stop-color="#E4D4A5"/>
<stop offset="0.9731" stop-color="white"/>
</radialGradient>
<radialGradient id="paint32_radial_2003_16270" cx="0" cy="0" r="1" gradientUnits="userSpaceOnUse" gradientTransform="translate(94.5141 27.698) scale(5.80485 5.7978)">
<stop stop-color="#AA8443"/>
<stop offset="0.3925" stop-color="#F1E9D1"/>
<stop offset="0.4892" stop-color="#C2A559"/>
<stop offset="0.7849" stop-color="#E4D4A5"/>
<stop offset="0.9731" stop-color="white"/>
</radialGradient>
<radialGradient id="paint33_radial_2003_16270" cx="0" cy="0" r="1" gradientUnits="userSpaceOnUse" gradientTransform="translate(92.858 28.8413) scale(9.14486 9.13376)">
<stop stop-color="#AA8443"/>
<stop offset="0.3925" stop-color="#F1E9D1"/>
<stop offset="0.4892" stop-color="#C2A559"/>
<stop offset="0.7849" stop-color="#E4D4A5"/>
<stop offset="0.9731" stop-color="white"/>
</radialGradient>
<radialGradient id="paint34_radial_2003_16270" cx="0" cy="0" r="1" gradientUnits="userSpaceOnUse" gradientTransform="translate(109.418 27.054) scale(10.3038 10.2913)">
<stop stop-color="#AA8443"/>
<stop offset="0.3925" stop-color="#F1E9D1"/>
<stop offset="0.6527" stop-color="#C2A559"/>
<stop offset="0.7849" stop-color="#E4D4A5"/>
<stop offset="0.9731" stop-color="white"/>
</radialGradient>
<radialGradient id="paint35_radial_2003_16270" cx="0" cy="0" r="1" gradientUnits="userSpaceOnUse" gradientTransform="translate(109.412 27.0549) scale(10.3017 10.2892)">
<stop stop-color="#AA8443"/>
<stop offset="0.3925" stop-color="#F1E9D1"/>
<stop offset="0.6527" stop-color="#C2A559"/>
<stop offset="0.7849" stop-color="#E4D4A5"/>
<stop offset="0.9731" stop-color="white"/>
</radialGradient>
<radialGradient id="paint36_radial_2003_16270" cx="0" cy="0" r="1" gradientUnits="userSpaceOnUse" gradientTransform="translate(135.447 31.522) scale(30.7596 30.7223)">
<stop offset="0.9242" stop-color="#AA8443"/>
<stop offset="0.9719" stop-color="#E4D4A5"/>
<stop offset="0.999" stop-color="white"/>
</radialGradient>
<radialGradient id="paint37_radial_2003_16270" cx="0" cy="0" r="1" gradientUnits="userSpaceOnUse" gradientTransform="translate(99.9516 -25.2107) scale(59.4852 59.413)">
<stop offset="0.7982" stop-color="white"/>
<stop offset="0.8247" stop-color="#AA8443"/>
<stop offset="0.9429" stop-color="#C2A559"/>
<stop offset="0.9806" stop-color="#E4D4A5"/>
<stop offset="0.9969" stop-color="white"/>
</radialGradient>
<radialGradient id="paint38_radial_2003_16270" cx="0" cy="0" r="1" gradientUnits="userSpaceOnUse" gradientTransform="translate(99.5559 7.81486) scale(33.7105 33.6696)">
<stop offset="0.8323" stop-color="white"/>
<stop offset="0.8539" stop-color="#AA8443"/>
<stop offset="0.9146" stop-color="#C2A559"/>
<stop offset="0.9416" stop-color="#E4D4A5"/>
<stop offset="0.9969" stop-color="white"/>
</radialGradient>
<radialGradient id="paint39_radial_2003_16270" cx="0" cy="0" r="1" gradientUnits="userSpaceOnUse" gradientTransform="translate(91.2705 30.2951) scale(6.17096 6.16347)">
<stop offset="0.5777" stop-color="#AA8443"/>
<stop offset="1" stop-color="#E4D4A5"/>
</radialGradient>
<radialGradient id="paint40_radial_2003_16270" cx="0" cy="0" r="1" gradientUnits="userSpaceOnUse" gradientTransform="translate(90.328 30.3853) scale(6.17258 6.16509)">
<stop offset="0.7783" stop-color="#AA8443"/>
<stop offset="1" stop-color="#E4D4A5"/>
</radialGradient>
<linearGradient id="paint41_linear_2003_16270" x1="83.8843" y1="73.6062" x2="114.691" y2="73.6062" gradientUnits="userSpaceOnUse">
<stop offset="0.0537634" stop-color="#09130A"/>
<stop offset="0.0927892" stop-color="#111209"/>
<stop offset="0.1546" stop-color="#280E07"/>
<stop offset="0.2311" stop-color="#4D0803"/>
<stop offset="0.2957" stop-color="#720200"/>
<stop offset="0.4785" stop-color="#A70200"/>
<stop offset="0.7151" stop-color="#A70200"/>
<stop offset="0.8925" stop-color="#1C1008"/>
</linearGradient>
<radialGradient id="paint42_radial_2003_16270" cx="0" cy="0" r="1" gradientUnits="userSpaceOnUse" gradientTransform="translate(100.197 75.6933) scale(13.7958 13.779)">
<stop stop-color="#09130A"/>
<stop offset="0.0277517" stop-color="#111209"/>
<stop offset="0.0717338" stop-color="#280E07"/>
<stop offset="0.1261" stop-color="#4D0803"/>
<stop offset="0.172" stop-color="#720200"/>
<stop offset="0.3333" stop-color="white"/>
<stop offset="0.7151" stop-color="white"/>
<stop offset="0.8548" stop-color="#B32624"/>
<stop offset="1" stop-color="#1C1008"/>
</radialGradient>
<linearGradient id="paint43_linear_2003_16270" x1="80.6686" y1="87.1373" x2="117.967" y2="87.1373" gradientUnits="userSpaceOnUse">
<stop offset="0.0537634" stop-color="#09130A"/>
<stop offset="0.0927892" stop-color="#111209"/>
<stop offset="0.1546" stop-color="#280E07"/>
<stop offset="0.2311" stop-color="#4D0803"/>
<stop offset="0.2957" stop-color="#720200"/>
<stop offset="0.4785" stop-color="#A70200"/>
<stop offset="0.7151" stop-color="#A70200"/>
<stop offset="0.8925" stop-color="#1C1008"/>
</linearGradient>
<radialGradient id="paint44_radial_2003_16270" cx="0" cy="0" r="1" gradientUnits="userSpaceOnUse" gradientTransform="translate(103.32 61.7295) scale(33.473 33.4324)">
<stop stop-color="#09130A"/>
<stop offset="0.0277517" stop-color="#111209"/>
<stop offset="0.0717338" stop-color="#280E07"/>
<stop offset="0.1261" stop-color="#4D0803"/>
<stop offset="0.172" stop-color="#720200"/>
<stop offset="0.3333" stop-color="white"/>
<stop offset="0.8135" stop-color="white"/>
<stop offset="0.8493" stop-color="#B32624"/>
<stop offset="1" stop-color="#1C1008"/>
</radialGradient>
<linearGradient id="paint45_linear_2003_16270" x1="84.1838" y1="81.5401" x2="115.911" y2="81.5401" gradientUnits="userSpaceOnUse">
<stop stop-color="#09130A"/>
<stop offset="0.0478279" stop-color="#111A12"/>
<stop offset="0.1236" stop-color="#262E29"/>
<stop offset="0.2173" stop-color="#484E4E"/>
<stop offset="0.282" stop-color="#64686C"/>
<stop offset="0.378" stop-color="#4F5556"/>
<stop offset="0.4839" stop-color="#343B39"/>
<stop offset="0.5297" stop-color="#3A4140"/>
<stop offset="0.5948" stop-color="#4C5152"/>
<stop offset="0.671" stop-color="#696C71"/>
<stop offset="0.672" stop-color="#696C71"/>
<stop offset="0.7977" stop-color="#4A5050"/>
<stop offset="0.9251" stop-color="#313935"/>
<stop offset="1" stop-color="#28302B"/>
</linearGradient>
<linearGradient id="paint46_linear_2003_16270" x1="114.853" y1="76.4366" x2="96.3616" y2="82.5624" gradientUnits="userSpaceOnUse">
<stop stop-color="#09130A"/>
<stop offset="0.0238562" stop-color="#111A12"/>
<stop offset="0.0616432" stop-color="#262E29"/>
<stop offset="0.1084" stop-color="#484E4E"/>
<stop offset="0.1407" stop-color="#64686C"/>
<stop offset="0.214" stop-color="#919497"/>
<stop offset="0.3743" stop-color="white"/>
</linearGradient>
<linearGradient id="paint47_linear_2003_16270" x1="85.6626" y1="74.6695" x2="100.114" y2="84.3612" gradientUnits="userSpaceOnUse">
<stop stop-color="#09130A"/>
<stop offset="0.0280791" stop-color="#111A12"/>
<stop offset="0.0725549" stop-color="#262E29"/>
<stop offset="0.1276" stop-color="#484E4E"/>
<stop offset="0.1656" stop-color="#64686C"/>
<stop offset="0.2311" stop-color="#919497"/>
<stop offset="0.3743" stop-color="white"/>
</linearGradient>
<linearGradient id="paint48_linear_2003_16270" x1="88.3089" y1="80.5401" x2="112.534" y2="80.5401" gradientUnits="userSpaceOnUse">
<stop stop-color="#C7C5BE"/>
<stop offset="0.0818773" stop-color="#989C8E"/>
<stop offset="0.1414" stop-color="#9FA295"/>
<stop offset="0.2295" stop-color="#B3B1A8"/>
<stop offset="0.243" stop-color="#B7B4AB"/>
<stop offset="0.4959" stop-color="white"/>
<stop offset="0.5201" stop-color="#FBFBFA"/>
<stop offset="0.653" stop-color="#E7E6E2"/>
<stop offset="0.8946" stop-color="#989C8E"/>
<stop offset="0.9185" stop-color="#9DA093"/>
<stop offset="0.9473" stop-color="#ABADA2"/>
<stop offset="0.9784" stop-color="#C3C1BA"/>
<stop offset="0.9829" stop-color="#C7C5BE"/>
</linearGradient>
<linearGradient id="paint49_linear_2003_16270" x1="73.1769" y1="147.552" x2="126.517" y2="147.552" gradientUnits="userSpaceOnUse">
<stop stop-color="#C7C5BE"/>
<stop offset="0.0818773" stop-color="#989C8E"/>
<stop offset="0.1414" stop-color="#9FA295"/>
<stop offset="0.2295" stop-color="#B3B1A8"/>
<stop offset="0.243" stop-color="#B7B4AB"/>
<stop offset="0.258" stop-color="#BDBAB2"/>
<stop offset="0.3834" stop-color="#EDECE9"/>
<stop offset="0.444" stop-color="white"/>
<stop offset="0.5221" stop-color="#FAF9F9"/>
<stop offset="0.6302" stop-color="#EBEAE7"/>
<stop offset="0.653" stop-color="#E7E6E2"/>
<stop offset="0.8946" stop-color="#989C8E"/>
<stop offset="0.9185" stop-color="#9DA093"/>
<stop offset="0.9473" stop-color="#ABADA2"/>
<stop offset="0.9784" stop-color="#C3C1BA"/>
<stop offset="0.9829" stop-color="#C7C5BE"/>
</linearGradient>
<radialGradient id="paint50_radial_2003_16270" cx="0" cy="0" r="1" gradientUnits="userSpaceOnUse" gradientTransform="translate(-108.811 139.781) rotate(180) scale(231.059 230.779)">
<stop offset="0.9291" stop-color="white"/>
<stop offset="0.9931" stop-color="white"/>
</radialGradient>
<radialGradient id="paint51_radial_2003_16270" cx="0" cy="0" r="1" gradientUnits="userSpaceOnUse" gradientTransform="translate(268.23 139.781) scale(191.884 191.651)">
<stop offset="0.9291" stop-color="white"/>
<stop offset="0.9931" stop-color="white"/>
</radialGradient>
<radialGradient id="paint52_radial_2003_16270" cx="0" cy="0" r="1" gradientUnits="userSpaceOnUse" gradientTransform="translate(111.735 106.526) scale(47.5162 47.4586)">
<stop offset="0.042552" stop-color="white"/>
<stop offset="0.9291" stop-color="white"/>
</radialGradient>
<linearGradient id="paint53_linear_2003_16270" x1="83.8843" y1="73.6062" x2="114.691" y2="73.6062" gradientUnits="userSpaceOnUse">
<stop offset="0.0537634" stop-color="#09130A"/>
<stop offset="0.0927892" stop-color="#111209"/>
<stop offset="0.1546" stop-color="#280E07"/>
<stop offset="0.2311" stop-color="#4D0803"/>
<stop offset="0.2957" stop-color="#720200"/>
<stop offset="0.4785" stop-color="#A70200"/>
<stop offset="0.7151" stop-color="#A70200"/>
<stop offset="0.8925" stop-color="#1C1008"/>
</linearGradient>
<radialGradient id="paint54_radial_2003_16270" cx="0" cy="0" r="1" gradientUnits="userSpaceOnUse" gradientTransform="translate(100.197 75.6933) scale(13.7958 13.779)">
<stop stop-color="#09130A"/>
<stop offset="0.0277517" stop-color="#111209"/>
<stop offset="0.0717338" stop-color="#280E07"/>
<stop offset="0.1261" stop-color="#4D0803"/>
<stop offset="0.172" stop-color="#720200"/>
<stop offset="0.3333" stop-color="white"/>
<stop offset="0.7151" stop-color="white"/>
<stop offset="0.8548" stop-color="#B32624"/>
<stop offset="1" stop-color="#1C1008"/>
</radialGradient>
<linearGradient id="paint55_linear_2003_16270" x1="80.6686" y1="87.1373" x2="117.967" y2="87.1373" gradientUnits="userSpaceOnUse">
<stop offset="0.0537634" stop-color="#09130A"/>
<stop offset="0.0927892" stop-color="#111209"/>
<stop offset="0.1546" stop-color="#280E07"/>
<stop offset="0.2311" stop-color="#4D0803"/>
<stop offset="0.2957" stop-color="#720200"/>
<stop offset="0.4785" stop-color="#A70200"/>
<stop offset="0.7151" stop-color="#A70200"/>
<stop offset="0.8925" stop-color="#1C1008"/>
</linearGradient>
<radialGradient id="paint56_radial_2003_16270" cx="0" cy="0" r="1" gradientUnits="userSpaceOnUse" gradientTransform="translate(103.32 61.7295) scale(33.473 33.4324)">
<stop stop-color="#09130A"/>
<stop offset="0.0277517" stop-color="#111209"/>
<stop offset="0.0717338" stop-color="#280E07"/>
<stop offset="0.1261" stop-color="#4D0803"/>
<stop offset="0.172" stop-color="#720200"/>
<stop offset="0.3333" stop-color="white"/>
<stop offset="0.8135" stop-color="white"/>
<stop offset="0.8493" stop-color="#B32624"/>
<stop offset="1" stop-color="#1C1008"/>
</radialGradient>
<linearGradient id="paint57_linear_2003_16270" x1="84.1838" y1="81.5401" x2="115.911" y2="81.5401" gradientUnits="userSpaceOnUse">
<stop stop-color="#09130A"/>
<stop offset="0.0478279" stop-color="#111A12"/>
<stop offset="0.1236" stop-color="#262E29"/>
<stop offset="0.2173" stop-color="#484E4E"/>
<stop offset="0.282" stop-color="#64686C"/>
<stop offset="0.378" stop-color="#4F5556"/>
<stop offset="0.4839" stop-color="#343B39"/>
<stop offset="0.5297" stop-color="#3A4140"/>
<stop offset="0.5948" stop-color="#4C5152"/>
<stop offset="0.671" stop-color="#696C71"/>
<stop offset="0.672" stop-color="#696C71"/>
<stop offset="0.7977" stop-color="#4A5050"/>
<stop offset="0.9251" stop-color="#313935"/>
<stop offset="1" stop-color="#28302B"/>
</linearGradient>
<linearGradient id="paint58_linear_2003_16270" x1="114.853" y1="76.4366" x2="96.3616" y2="82.5624" gradientUnits="userSpaceOnUse">
<stop stop-color="#09130A"/>
<stop offset="0.0238562" stop-color="#111A12"/>
<stop offset="0.0616432" stop-color="#262E29"/>
<stop offset="0.1084" stop-color="#484E4E"/>
<stop offset="0.1407" stop-color="#64686C"/>
<stop offset="0.214" stop-color="#919497"/>
<stop offset="0.3743" stop-color="white"/>
</linearGradient>
<linearGradient id="paint59_linear_2003_16270" x1="85.6626" y1="74.6695" x2="100.114" y2="84.3612" gradientUnits="userSpaceOnUse">
<stop stop-color="#09130A"/>
<stop offset="0.0280791" stop-color="#111A12"/>
<stop offset="0.0725549" stop-color="#262E29"/>
<stop offset="0.1276" stop-color="#484E4E"/>
<stop offset="0.1656" stop-color="#64686C"/>
<stop offset="0.2311" stop-color="#919497"/>
<stop offset="0.3743" stop-color="white"/>
</linearGradient>
<linearGradient id="paint60_linear_2003_16270" x1="88.3089" y1="80.5401" x2="112.534" y2="80.5401" gradientUnits="userSpaceOnUse">
<stop stop-color="#C7C5BE"/>
<stop offset="0.0818773" stop-color="#989C8E"/>
<stop offset="0.1414" stop-color="#9FA295"/>
<stop offset="0.2295" stop-color="#B3B1A8"/>
<stop offset="0.243" stop-color="#B7B4AB"/>
<stop offset="0.4959" stop-color="white"/>
<stop offset="0.5201" stop-color="#FBFBFA"/>
<stop offset="0.653" stop-color="#E7E6E2"/>
<stop offset="0.8946" stop-color="#989C8E"/>
<stop offset="0.9185" stop-color="#9DA093"/>
<stop offset="0.9473" stop-color="#ABADA2"/>
<stop offset="0.9784" stop-color="#C3C1BA"/>
<stop offset="0.9829" stop-color="#C7C5BE"/>
</linearGradient>
</defs>
</svg>
