<svg width="200" height="200" viewBox="0 0 200 200" fill="none" xmlns="http://www.w3.org/2000/svg">
<path d="M63.8294 151.632C66.0163 153.814 65.2873 154.905 66.7453 155.632C68.5678 156.36 65.6518 159.996 69.2968 160.724C72.9417 161.087 75.4931 159.633 77.3156 158.542C79.1381 157.451 82.4185 158.178 85.699 158.178C88.9794 158.178 90.8019 157.451 93.3533 155.996C95.9048 154.541 101.008 154.177 104.288 153.45C106.84 152.723 112.307 153.45 115.223 151.995C111.213 146.54 94.4468 125.083 87.1569 123.629C81.6895 122.537 68.2033 122.901 59.4554 128.72C59.4554 131.993 59.8199 139.267 60.9134 143.267C61.6424 147.631 62.0069 149.45 63.8294 151.632Z" fill="#DD901E"/>
<path d="M67.1099 155.268C65.2874 154.541 66.0164 153.45 64.1939 151.268C62.007 149.086 62.0069 147.268 60.9135 142.176C60.1845 138.176 59.82 130.902 59.4555 127.629C56.904 129.447 54.7171 131.266 53.2591 134.175C53.2591 134.175 52.8946 140.358 55.0816 147.631C57.633 154.541 57.9975 158.178 59.82 161.451C60.549 163.269 62.3714 164.724 64.5584 165.815C65.6519 163.997 67.1099 161.815 67.8388 159.996C66.7454 158.542 68.5678 155.996 67.1099 155.268Z" fill="#C16409"/>
<path d="M115.223 151.268C112.307 152.722 106.84 151.995 104.288 152.722C101.008 153.45 95.9048 153.813 93.3533 155.268C90.8019 156.723 88.9794 157.45 85.699 157.45C82.4185 157.45 79.1381 156.723 77.3156 157.814C75.4932 158.905 72.9417 160.723 69.2968 159.996C68.5678 159.996 68.2033 159.632 67.8388 159.632C66.7453 161.451 65.2873 163.633 64.5583 165.451C66.7453 166.542 69.2968 167.269 71.1192 166.906C74.3997 166.178 77.3156 163.633 82.054 163.633C86.7924 163.633 88.6149 163.269 94.4468 162.178C99.9142 161.087 105.017 159.268 109.391 158.541C114.129 158.177 118.868 156.723 115.223 151.268Z" fill="#A74F00"/>
<path d="M69.6609 145.813C69.2965 145.813 68.5678 146.541 68.5678 146.905C68.5678 147.268 68.9321 146.905 68.9321 146.905C69.2965 146.905 69.2965 146.905 69.6609 146.905C70.0252 146.905 70.0252 147.268 70.3896 147.268C70.754 147.268 70.754 146.905 70.754 146.905C71.4827 145.813 70.3896 145.813 69.6609 145.813Z" fill="#B3502A"/>
<path opacity="0.5" d="M58.7264 139.993C61.2779 141.084 64.5583 141.448 67.1098 141.448C70.3902 141.448 74.0352 140.72 76.2221 138.174C78.0446 135.992 77.6801 133.447 78.4091 130.537C78.7736 127.628 81.6895 127.991 83.8765 128.719C84.97 129.083 86.4279 129.81 87.1569 130.901C87.8859 131.992 88.2504 134.538 88.2504 135.992C88.2504 140.72 88.6149 150.903 92.2598 153.085C94.4468 154.54 97.3628 153.813 99.9142 153.813C102.83 153.813 105.746 153.813 108.662 154.54C111.214 154.904 113.765 155.631 116.316 156.358C117.045 155.267 117.045 153.813 115.587 151.267C111.578 145.812 94.8113 124.355 87.5214 122.9C82.054 121.809 68.5678 122.173 59.8199 127.991C57.2685 129.81 55.0815 131.628 53.6235 134.538C53.6235 134.538 53.6235 135.992 53.6235 138.538C55.0815 138.538 56.904 139.265 58.7264 139.993Z" fill="#DD901E"/>
<path d="M37.9504 76.3488C34.3055 77.0762 33.5765 76.7125 33.941 78.8946C34.3055 81.0767 34.3055 82.895 33.5765 89.0776C32.8475 95.2601 32.8475 105.443 32.483 108.352C32.1185 111.262 31.754 112.353 32.483 114.171C33.212 115.99 32.1185 117.081 31.3895 118.535C30.6606 119.99 31.0251 120.718 31.754 122.536C32.483 124.354 32.1185 125.445 33.941 125.445C35.7635 125.445 40.5019 126.9 46.3338 127.264C51.8012 127.264 57.9976 127.627 60.1845 129.446C62.3715 131.264 63.8295 131.992 66.3809 131.628C68.5679 131.628 72.2128 131.992 72.9418 132.355C73.6708 132.719 74.3998 126.9 75.1288 121.809C75.8577 117.808 79.1382 111.626 78.4092 99.2605C77.6802 98.1695 76.9512 97.0785 76.5867 95.9874C75.1288 91.987 73.3063 89.0776 70.3904 85.8045C68.9324 83.9861 67.4744 82.1677 66.3809 80.3493C65.2874 78.8946 64.9229 77.4399 63.465 76.3488H63.1005C62.736 76.3488 62.736 75.9852 62.3715 75.9852C60.1845 75.6215 57.6331 75.2578 53.9881 75.2578C44.1468 75.2578 41.2309 75.6215 37.9504 76.3488Z" fill="#F2A93C"/>
<path d="M72.5772 133.448C71.8482 133.084 68.2033 132.357 66.0163 132.72C63.8294 132.72 62.0069 132.357 59.82 130.538C57.633 128.72 51.8011 128.72 45.9692 128.356C40.5018 128.356 35.3989 126.538 33.5764 126.538C32.4829 126.538 32.1185 126.174 32.1185 125.811C31.3895 126.538 31.025 127.629 30.6605 128.72C30.6605 129.811 30.296 130.902 29.9315 131.993C31.025 132.72 31.754 133.084 32.8474 133.811C36.8569 135.63 41.9598 134.903 46.3337 135.63C54.3525 136.721 63.8294 142.54 71.8482 138.903C73.3062 138.176 74.0352 137.448 74.7642 136.357C74.0352 134.902 73.3062 134.175 72.5772 133.448Z" fill="#BB600E"/>
<path d="M80.9605 109.445C80.596 107.626 80.2315 105.444 79.867 103.626C79.5025 102.535 79.138 101.08 78.4091 99.9893C78.7735 112.354 75.8576 118.173 75.1286 122.537C74.3996 126.538 74.0351 131.266 73.3062 132.72C74.0351 133.448 74.7641 134.539 75.4931 135.63C76.2221 134.539 76.5866 133.448 76.9511 132.357C77.6801 130.538 78.0446 128.356 78.4091 126.538C78.7735 123.628 79.867 121.083 80.596 118.173C81.325 115.627 81.325 112.354 80.9605 109.445Z" fill="#D37921"/>
<path d="M31.754 125.446C31.3895 125.083 31.3895 124.355 31.025 123.264C30.296 121.446 29.9315 120.718 30.6605 119.264C31.3895 117.809 32.483 116.718 31.754 114.9C31.025 113.081 31.3895 111.99 31.754 109.081C32.1185 106.171 32.1185 95.9883 32.8475 89.8058C33.5765 83.6233 33.5765 81.8049 33.212 79.6228C32.8475 77.4408 33.212 78.1681 37.2214 77.0771C40.8663 76.3497 43.7823 75.9861 53.2591 76.7134C56.9041 77.0771 59.82 77.4408 61.6425 77.4408C60.1845 76.7134 58.362 76.7134 56.9041 76.3497C53.9881 75.6224 51.0722 75.2587 48.1562 75.2587C46.6982 75.2587 44.8758 75.6224 43.4178 75.6224C41.5953 75.6224 39.7729 74.895 38.3149 74.5314C36.4924 73.804 34.3055 73.4403 32.483 74.5314C29.2025 76.3497 29.2025 81.8049 29.2025 84.7143C29.2025 87.9874 28.4736 91.2605 28.4736 94.5336C28.4736 95.9883 28.8381 97.8067 28.8381 99.2614C28.8381 100.716 28.4736 102.171 28.1091 103.626C26.6511 106.899 26.2866 110.535 25.9221 114.172C25.1931 118.173 24.4641 122.537 25.5576 126.537C26.2866 129.083 27.7446 130.901 29.9315 132.356C30.296 131.265 30.296 129.81 30.6605 129.083C30.6605 126.901 31.3895 125.81 31.754 125.446Z" fill="#D37921"/>
<path opacity="0.5" d="M47.4273 94.5341C45.2403 97.4435 43.4179 101.444 45.2403 104.717C46.6983 107.263 49.2498 109.445 51.4367 110.536C56.1751 113.082 60.5491 114.9 64.923 117.809C67.8389 119.628 74.7643 122.901 78.0447 125.083C78.0447 124.719 78.0447 124.719 78.0447 124.356C78.7737 120.355 78.7737 112.718 78.4092 100.353C77.6802 99.2619 76.9513 98.1708 76.5868 97.0798C75.1288 93.0794 73.3063 90.17 70.3904 86.8969C68.9324 85.0785 67.4744 83.2601 66.3809 81.4417C65.2875 79.987 64.923 78.5323 63.465 77.4412H63.1005C62.736 77.4412 62.736 77.0776 62.3715 77.0776C61.6425 77.0776 61.6425 77.0775 60.5491 76.7139C55.8106 82.8964 53.6237 86.1695 47.4273 94.5341Z" fill="#F2A93C"/>
<path d="M94.4468 146.54C99.9142 147.995 106.84 146.904 111.214 146.904C115.223 146.904 119.597 147.268 122.148 147.631C124.7 147.995 128.345 149.086 130.167 148.359C131.99 147.631 134.541 148.359 136.364 147.268C137.822 146.177 138.551 145.813 140.737 145.449C142.924 145.086 143.289 143.995 143.289 140.721C142.924 137.448 142.195 131.63 142.924 129.084C143.653 126.902 143.653 127.265 142.924 125.083C141.831 122.901 141.831 120.356 141.831 117.446C141.831 116.355 141.831 114.173 141.831 112.355C133.812 109.809 116.681 104.717 110.12 107.263C101.372 110.9 88.9794 125.447 88.9794 125.447C88.9794 125.447 88.9794 131.266 88.9794 134.539C88.9794 136.357 88.9794 139.267 89.3439 141.813C90.4374 143.995 91.8954 145.813 94.4468 146.54Z" fill="#F2A93C"/>
<path d="M140.009 145.449C137.822 145.813 137.457 145.813 135.635 147.268C134.177 148.359 131.261 147.631 129.438 148.359C127.616 149.086 123.971 147.995 121.419 147.631C118.868 147.268 114.858 146.904 110.485 146.904C106.475 146.904 99.5498 147.995 93.7179 146.54C91.1664 145.813 89.7084 143.995 88.9794 141.812C89.3439 143.267 89.344 144.358 90.0729 145.813C91.5309 149.813 91.5309 152.723 96.2693 152.723C101.008 152.723 106.475 151.995 111.214 152.723C116.316 153.45 126.887 154.541 129.803 153.45C132.719 151.995 136.728 151.995 140.373 151.995C141.831 151.995 143.289 151.268 144.382 150.177C142.924 148.359 141.466 146.54 140.737 145.449C140.737 145.449 140.373 145.449 140.009 145.449Z" fill="#D37921"/>
<path d="M146.934 143.267C146.569 138.903 144.747 134.902 145.476 131.629C146.205 128.356 145.476 123.628 145.476 120.355C145.476 116.718 145.112 114.172 145.112 114.172C145.112 114.172 143.654 113.445 140.738 112.718C140.738 114.536 140.738 116.718 140.738 117.809C140.738 120.719 141.102 123.264 141.831 125.446C142.925 127.629 142.925 127.265 141.831 129.447C141.102 131.629 141.831 137.812 142.196 141.085C142.56 143.63 142.196 145.085 140.738 145.449C141.467 146.54 142.56 148.358 144.383 150.177C146.205 148.358 147.298 145.812 146.934 143.267Z" fill="#BB600E"/>
<path d="M107.204 134.538C106.839 134.538 106.111 135.266 106.111 135.629C106.111 135.993 106.475 135.629 106.475 135.629C106.839 135.629 106.839 135.629 107.204 135.629C107.568 135.629 107.568 135.993 107.933 135.993C108.297 135.993 108.297 135.629 108.297 135.629C108.661 134.175 107.568 134.538 107.204 134.538Z" fill="#B3502A"/>
<path d="M109.026 140.722C108.662 140.722 108.297 140.722 107.933 140.358L107.569 140.722C107.933 141.086 108.297 141.449 108.662 141.086C109.026 141.086 109.39 140.358 109.026 140.722Z" fill="#B3502A"/>
<path d="M125.793 139.267L125.429 139.63C125.793 139.994 125.793 139.994 125.793 140.358C125.793 140.721 125.793 141.085 126.158 141.085C126.158 141.449 126.522 140.721 126.522 140.721C126.522 140.358 126.522 139.63 125.793 139.267Z" fill="#B3502A"/>
<path d="M127.98 130.902L127.616 131.266C127.98 131.266 128.345 131.63 128.709 131.63C129.073 131.993 129.073 132.357 129.438 132.357C129.438 132.721 129.802 131.993 129.802 131.993C130.166 131.266 128.709 130.902 127.98 130.902Z" fill="#B3502A"/>
<path d="M135.634 134.539C135.634 134.176 135.27 134.176 135.27 134.176C134.905 134.176 134.541 134.176 134.541 134.176C134.541 134.176 134.177 134.539 134.541 134.539C134.905 134.539 134.905 134.539 135.27 134.539L135.634 134.903C135.27 135.267 135.634 134.903 135.634 134.539Z" fill="#B3502A"/>
<path d="M125.429 125.81C124.7 125.81 124.335 125.447 123.971 125.447C123.606 125.083 123.242 125.083 122.513 125.083C121.784 125.083 120.69 125.81 120.69 126.538C120.69 126.901 121.055 126.538 121.055 126.174C121.419 125.083 122.877 125.81 123.242 126.174C123.971 126.538 124.335 126.901 125.064 126.538C125.429 126.174 125.793 125.81 125.429 125.81Z" fill="#B3502A"/>
<path opacity="0.5" d="M98.0918 127.264C100.643 125.082 102.101 122.536 104.288 120.354C107.204 116.354 111.214 112.353 116.681 113.081C123.242 113.808 129.074 117.808 135.635 119.263C139.28 119.991 142.56 119.991 145.84 119.263C145.84 116.354 145.476 114.172 145.476 114.172C145.476 114.172 143.654 113.444 140.738 112.717C132.719 110.171 115.588 105.08 109.027 107.625C100.279 111.262 87.886 125.809 87.886 125.809C87.886 125.809 88.2505 127.991 88.615 130.173C92.26 130.173 95.5404 129.446 98.0918 127.264Z" fill="#DD901E"/>
<path opacity="0.7" d="M110.849 142.904C108.662 142.176 106.475 141.813 104.653 141.449C102.466 141.085 100.279 141.813 98.0918 141.085C94.0824 139.994 94.4469 135.267 93.7179 131.993C93.7179 131.63 92.9889 132.357 92.9889 132.357C93.3534 135.63 92.2599 139.994 95.9049 142.176C98.0918 143.631 100.279 142.904 102.466 142.904C105.017 142.904 107.204 143.995 109.756 143.995C110.485 144.722 111.578 143.267 110.849 142.904Z" fill="#F2A93C"/>
<path opacity="0.7" d="M135.27 141.448C134.177 142.176 132.719 142.176 131.625 142.903C129.803 143.994 127.98 143.994 126.158 143.63C124.335 143.63 122.513 143.63 120.326 143.267C118.503 142.903 117.046 143.63 115.223 142.903C114.859 142.903 114.494 143.63 114.859 143.63C116.681 144.358 118.503 143.994 120.326 144.721C122.148 145.449 124.7 145.085 126.522 145.449C129.438 145.812 132.719 144.358 135.27 142.176C135.999 142.176 136.364 141.085 135.27 141.448Z" fill="#F2A93C"/>
<path d="M66.0164 54.8925C67.1098 52.7104 68.5678 52.3467 67.4743 50.5283C66.3808 48.71 65.6519 47.6189 64.5584 44.3458C63.4649 41.4364 63.8294 41.4364 66.3809 39.618C67.8388 38.527 68.5678 37.7996 69.6613 37.0723C68.5678 37.0723 67.1098 37.4359 65.2874 37.7996C62.0069 38.527 59.091 41.0727 59.82 45.4368C60.549 49.801 59.82 49.4373 58.7265 53.0741C57.633 56.3472 58.7265 58.5292 60.9134 65.4391C62.7359 72.7127 63.8294 75.2584 63.8294 75.2584L72.5772 75.9858C72.2128 74.8947 69.6613 69.4396 68.2033 63.2571C66.3809 57.0745 64.9229 57.0745 66.0164 54.8925Z" fill="#C16409"/>
<path d="M127.251 55.2566C126.887 51.9835 125.429 46.892 124.335 44.3463C123.606 41.8005 123.971 40.7095 123.606 38.5274C123.606 36.3453 116.316 33.4359 112.307 33.0722C108.298 32.7086 107.569 33.7996 105.746 34.527C103.924 34.8906 91.8954 34.5269 88.615 34.8906C85.3345 34.8906 83.1476 34.8906 80.5961 36.3453C78.0446 37.8001 74.7642 38.5274 72.5772 37.4364C71.4838 37.0727 70.7548 36.709 69.6613 36.709C68.5678 37.4364 67.8388 38.1637 66.3809 39.2548C63.8294 41.0731 63.4649 41.0731 64.5584 43.9826C65.6519 46.892 66.3808 48.3467 67.4743 50.1651C68.5678 51.9835 67.4743 52.3472 66.0164 54.5292C64.9229 56.7113 66.0164 56.3476 67.8388 62.8938C69.2968 68.7127 71.8483 74.1678 72.2128 75.6225L116.316 79.9867C116.316 80.3503 127.616 58.5297 127.251 55.2566Z" fill="#DD901E"/>
<path opacity="0.5" d="M125.793 49.8008C124.7 50.1645 123.606 50.8918 122.877 51.2555C120.326 52.7102 118.503 54.1649 118.139 56.7106C117.774 58.1654 117.774 59.9838 117.774 61.4385C117.774 65.0752 117.774 71.2578 112.307 70.1667C107.569 69.4394 103.924 65.0752 98.8207 63.9842C95.9048 63.6205 94.8113 61.4385 89.7084 59.6201C87.5214 58.8927 82.783 55.2559 80.5961 54.8923C75.1287 53.8012 70.7548 61.4385 66.7453 66.1663C65.2874 67.621 64.1939 69.4394 63.1004 71.2578C63.8294 73.8035 64.1939 74.8945 64.1939 74.8945L72.9417 75.6219L117.045 79.986C117.045 79.986 128.345 58.1654 127.616 54.8923C126.887 53.8012 126.522 51.6192 125.793 49.8008Z" fill="#DD901E"/>
<path d="M115.588 104.717C118.868 106.172 125.064 106.535 129.803 106.899C134.906 107.263 138.186 107.627 141.102 109.081C144.018 110.536 145.476 111.263 148.027 110.536C150.943 109.809 151.672 111.263 153.495 111.627C154.953 111.991 157.14 110.536 157.869 109.809C158.598 109.081 159.691 106.172 160.056 103.262C160.42 100.717 159.691 97.8072 161.149 95.2615C162.243 92.7157 163.701 90.5337 163.336 88.3516C162.972 86.1695 162.607 86.1695 163.701 84.3511C164.794 82.5327 165.159 79.6233 166.981 75.2592C168.439 71.2587 170.262 68.3493 170.262 66.5309C170.262 65.8036 169.897 65.0762 169.168 63.9852C168.439 63.6215 167.71 63.6215 166.981 63.2578C164.065 62.1668 161.149 61.0758 157.869 59.9847C154.953 59.2574 151.308 59.621 148.392 58.53C145.476 57.439 143.289 55.2569 140.373 54.5296C134.177 52.7112 130.532 52.3475 124.7 53.0749C119.597 53.4385 119.597 61.4394 119.232 65.0762C118.503 73.0771 117.41 81.078 114.859 89.0789C113.765 93.0794 111.943 97.0799 110.485 101.08C110.485 101.444 110.12 101.444 110.12 101.808C111.214 103.626 113.401 103.99 115.588 104.717Z" fill="#F2A93C"/>
<path d="M153.859 111.991C152.401 111.628 151.308 110.173 148.392 110.9C145.476 111.627 144.382 111.264 141.467 109.445C138.551 107.991 134.906 107.627 130.167 107.263C125.064 106.9 119.232 106.536 115.952 105.081C113.765 103.99 111.578 103.627 110.849 102.172C110.12 104.354 109.756 106.9 110.849 109.082C111.943 111.264 116.681 111.264 118.503 111.627C121.784 112.355 125.064 113.81 128.345 114.537C128.709 114.537 129.438 114.901 129.803 114.901C131.625 115.264 133.083 115.992 134.541 116.355C135.635 116.719 137.093 116.719 138.186 116.719C140.738 116.719 143.289 116.719 146.205 116.719C147.663 116.719 148.756 116.719 150.214 117.446C153.495 118.174 156.046 119.628 159.327 118.174C159.691 117.81 160.056 117.81 160.785 117.446C160.42 114.901 159.327 111.991 158.598 110.173C157.504 110.9 155.682 112.355 153.859 111.991Z" fill="#D37921"/>
<path d="M175 71.6214C175 71.2577 175 70.5304 174.636 70.1667C174.271 69.0756 173.907 67.9846 173.178 67.2573C172.084 66.1662 170.626 65.4389 169.168 65.0752C169.533 65.8026 170.262 66.8936 170.262 67.6209C170.262 69.0756 168.804 72.3487 166.981 76.3492C165.523 80.3497 165.159 83.6227 163.701 85.4411C162.607 87.2595 163.336 86.8958 163.336 89.4416C163.701 91.6237 162.243 94.1694 161.149 96.3515C160.056 98.8972 160.785 101.807 160.056 104.352C159.691 106.898 158.598 110.171 157.869 110.899C158.598 112.717 159.327 115.626 160.056 118.172C161.514 117.081 162.607 115.626 163.336 114.172C164.794 111.626 165.159 108.717 165.888 105.807C166.617 102.17 167.71 98.5335 168.075 94.5331C168.439 90.5326 168.439 86.8959 170.262 83.2591C171.355 80.7133 173.542 78.1676 174.271 75.2582C174.636 74.5308 174.636 74.1671 174.636 73.4398C175 72.3487 175 71.9851 175 71.6214Z" fill="#BB600E"/>
<path d="M138.551 60.71C137.093 60.71 136.364 61.0736 135.27 61.801C134.541 62.1647 134.177 62.892 133.448 62.5283C133.083 62.1647 131.99 62.5283 131.625 62.5283C129.803 62.5283 127.251 64.7104 127.251 66.8925H127.616C127.98 65.0741 129.803 63.6194 131.99 63.2557C133.083 63.2557 133.083 63.6194 134.177 63.9831H134.541C135.635 62.892 137.093 62.1647 138.551 61.801C138.551 61.4373 138.915 60.71 138.551 60.71Z" fill="#B3502A"/>
<path d="M164.793 72.7128C164.429 72.3491 163.7 70.8944 162.972 71.2581C162.972 71.2581 162.607 71.2581 162.972 71.6218C163.336 71.9854 163.7 72.7128 164.065 73.0765C164.429 74.1675 164.793 75.2585 164.429 76.3496C164.429 76.7132 164.793 76.3496 164.793 76.3496C165.522 75.2585 165.158 73.4401 164.793 72.7128Z" fill="#B3502A"/>
<path d="M150.943 77.8045C150.943 77.8045 150.579 77.8045 150.579 77.4408C150.214 77.4408 150.214 77.0771 149.85 77.0771C149.485 77.0771 148.756 77.4408 148.392 77.4408L148.027 77.8045C148.392 77.8045 148.756 77.8045 149.485 77.8045C149.85 77.8045 150.214 78.1682 150.214 78.1682C150.579 78.1682 150.579 78.1682 150.943 78.1682C150.943 78.5319 151.308 78.1682 150.943 77.8045Z" fill="#B3502A"/>
<path d="M136.364 102.169C136.364 101.806 135.999 102.169 135.999 102.533C135.999 102.897 135.999 102.897 135.999 103.26C135.999 103.624 135.999 103.624 135.635 103.988C135.635 104.351 135.27 104.351 135.27 104.715C134.906 105.079 134.541 105.079 134.177 105.079L133.812 105.442C134.541 105.442 135.27 105.442 135.635 104.715C135.999 104.351 136.364 103.988 136.364 103.624C136.728 102.897 136.728 102.169 136.364 102.169Z" fill="#B3502A"/>
<path d="M81.6888 43.9834C81.6888 43.9834 81.3244 43.9834 80.96 43.9834C80.5957 43.9834 80.2313 43.9834 80.2313 44.3471C79.8669 44.7108 79.5026 44.7108 79.5026 45.0744V45.4381C79.867 45.4381 79.867 45.4381 79.867 45.0744C80.2313 45.0744 80.5957 45.0744 80.96 45.0744C81.3244 44.7108 81.6888 43.9834 81.6888 43.9834Z" fill="#B3502A"/>
<path d="M75.8576 47.9844C76.222 48.3481 76.5864 48.3481 76.9507 48.7117L77.3151 48.348C77.3151 47.9844 76.5864 47.9844 75.8576 47.9844Z" fill="#B3502A"/>
<path d="M118.138 46.5297C117.774 46.5297 117.774 46.166 117.409 46.166H117.045H116.681C116.316 46.166 115.223 46.8934 115.587 47.6207C115.587 47.9844 115.952 47.257 115.952 47.257C115.952 46.8934 116.681 46.8934 116.681 46.8934C117.045 46.8934 117.045 47.257 117.045 47.257C117.409 47.257 117.409 47.257 117.774 47.257C118.138 47.257 118.502 46.5297 118.138 46.5297Z" fill="#B3502A"/>
<path d="M48.5208 99.6241C49.6143 103.988 50.7078 102.897 51.8013 102.533C52.8947 102.533 53.9882 103.988 56.1752 105.079C58.3621 106.17 60.1846 109.08 61.6426 109.443C63.1006 110.171 64.194 108.352 66.381 110.171C68.568 111.625 72.5774 114.171 75.8578 115.626C79.1383 117.081 83.1477 117.808 85.3347 118.899C87.5216 120.354 89.7086 121.081 91.1665 120.354C92.6245 119.626 95.5405 118.899 95.905 117.081C96.634 115.262 98.4564 112.716 100.279 111.625C102.101 110.534 104.653 107.989 106.111 105.443C107.569 102.897 110.485 99.2604 113.401 95.2599C116.681 90.8958 119.962 87.259 120.326 85.077C120.691 82.8949 121.055 80.7128 119.962 78.8944C119.233 77.8034 119.233 77.076 118.139 76.3487C116.681 75.985 115.223 75.6213 113.765 75.2577C113.036 74.894 112.307 74.5303 111.578 73.8029C110.485 73.0756 110.12 72.3482 109.391 71.2572C108.298 70.1662 107.204 69.4388 106.111 68.3478C102.101 65.802 96.634 63.9836 92.26 62.1653C89.7086 61.4379 87.5216 60.7105 85.3347 58.8922C83.8767 57.8011 83.1477 55.9827 81.3252 55.2554C80.2317 54.8917 79.1383 55.2554 78.0448 55.2554C76.2223 55.6191 75.4933 55.6191 74.7643 57.0738C73.6709 58.8922 72.5774 60.3469 71.4839 62.1653C70.0259 64.3473 68.2035 66.1657 66.7455 67.9841C63.4651 71.6209 61.2781 75.985 58.3621 79.9855C55.4462 84.3496 52.1658 88.3501 48.8853 92.7142C48.8853 92.7142 48.8853 93.0779 48.5208 93.0779C48.5208 95.9873 48.1563 97.8057 48.5208 99.6241Z" fill="#F2A93C"/>
<path d="M89.344 126.173C89.7085 125.082 89.7085 124.354 89.344 122.536C89.344 121.809 89.344 121.445 89.344 121.081C88.2505 121.081 86.7926 120.354 84.9701 119.627C82.7832 118.172 78.7737 117.808 75.4933 116.353C72.2128 114.899 68.2034 112.353 66.0165 110.898C63.8295 109.444 62.736 110.898 61.278 110.171C60.1846 109.08 58.3621 106.534 56.1751 105.443C53.9882 104.352 52.8947 102.534 51.8012 102.897C50.7077 102.897 49.2498 103.988 48.5208 99.988C48.1563 97.8059 48.1563 96.3512 48.5208 94.8965C46.6983 97.4422 45.2403 100.352 46.6983 103.625C48.1563 107.625 53.6237 110.171 56.9041 112.353C61.278 114.899 65.652 117.445 70.0259 119.627C74.7643 122.172 79.5027 125.082 84.2411 127.627C86.0636 128.719 87.886 129.082 89.7085 128.719C89.344 127.991 88.9795 126.9 89.344 126.173Z" fill="#D37921"/>
<path d="M123.971 84.7144C123.606 82.5323 122.877 80.3502 121.419 78.8955C120.691 78.1682 119.597 77.4408 118.139 77.0771C119.233 77.8045 119.233 78.5319 119.962 79.6229C121.055 81.0776 120.69 83.2597 120.326 85.8054C119.962 87.9875 116.681 91.9879 113.401 95.9884C110.12 100.353 107.569 103.626 106.111 106.171C104.653 108.717 102.101 111.263 100.279 112.354C98.4564 113.445 96.2694 115.991 95.905 117.809C95.176 119.627 92.6245 120.355 91.1665 121.082C90.802 121.446 90.073 121.446 89.7085 121.446C89.7085 121.81 89.7085 122.537 89.7085 122.901C89.7085 124.719 90.073 125.446 89.7085 126.537C89.3441 127.265 89.7086 128.356 90.0731 128.719C92.26 128.719 94.447 127.628 96.6339 126.537C96.9984 126.537 96.9984 125.81 96.9984 125.81C98.0919 123.992 98.4564 121.809 100.643 120.355C102.83 118.9 104.653 117.445 106.475 115.627C108.298 113.809 110.12 111.263 111.214 108.717C113.036 105.444 114.859 102.898 117.046 99.9888C119.233 97.0794 121.419 94.17 123.606 91.2606C123.971 89.0785 124.335 86.8964 123.971 84.7144Z" fill="#BB600E"/>
<path d="M111.577 87.2587C111.213 86.895 110.849 86.5313 110.849 86.5313C110.12 86.1676 109.391 86.895 109.391 87.6223C109.391 87.986 109.756 87.6223 109.756 87.2587C109.756 86.895 110.484 87.6223 110.484 87.6223L110.849 87.986L111.213 88.3497C111.213 88.3497 111.577 88.3497 111.577 87.986V87.6223C111.942 87.6223 111.942 87.2587 111.577 87.2587Z" fill="#B3502A"/>
<path d="M75.8579 74.1678C75.4934 74.1678 75.1289 74.5315 74.7644 74.5315C73.6709 74.8951 74.0354 74.1678 73.3064 73.8041C72.5774 73.4404 72.2129 73.4404 71.4839 73.4404C71.1194 73.4404 70.7549 73.4404 70.026 73.8041C69.6615 74.1678 69.297 74.5315 68.9325 74.8951C68.9325 74.8951 68.568 75.2588 68.9325 75.2588C69.297 75.2588 69.297 75.2588 69.6615 74.8951C70.3905 74.1678 70.7549 74.5315 71.8484 74.8951C72.5774 74.8951 73.3064 74.8951 74.0354 75.2588C74.3999 75.6225 75.4934 74.8951 75.8579 74.8951C75.8579 74.8951 76.2223 74.1678 75.8579 74.1678Z" fill="#B3502A"/>
<path d="M54.3522 90.8955C53.9878 90.8955 53.6235 91.6229 53.2591 91.9865C52.8948 92.3502 52.8947 93.0776 52.8947 93.4413H53.2591C53.6235 93.4413 53.6235 93.0776 53.6235 93.0776C53.6235 93.0776 53.6235 92.7139 53.9878 92.3502C53.9878 91.9865 53.9878 91.9865 53.9878 91.9865C53.9878 91.6229 53.9878 91.6229 54.3522 91.2592V90.8955Z" fill="#B3502A"/>
<path d="M54.7164 98.1698C54.7164 97.8062 54.352 97.8062 53.9877 97.8062C53.6233 97.8062 53.2589 97.4425 53.2589 97.8062C52.8946 97.8062 52.5302 98.5335 52.5302 98.8972C52.5302 99.2609 52.8946 98.8972 52.8946 98.8972C52.8946 98.8972 52.8946 98.5335 53.2589 98.5335H53.6233H53.9877C53.9877 98.5335 54.352 98.5335 54.352 98.8972C54.7164 98.8972 55.0808 98.5335 54.7164 98.1698Z" fill="#B3502A"/>
<path d="M74.7643 112.717C73.3063 109.444 70.3904 106.898 67.1099 105.444C64.923 104.353 63.1005 103.625 61.6425 102.171C60.1846 100.716 58.7266 98.8975 57.2686 97.4428C53.9882 93.4423 58.7266 87.9872 60.5491 84.3504C62.736 79.9863 64.5585 75.9858 67.4744 72.349C67.8389 71.9854 67.4744 71.9854 67.1099 71.9854C63.8295 75.2585 61.6426 79.2589 59.4556 83.2594C57.6331 87.2598 54.3527 90.8966 53.9882 95.2607C53.9882 97.4428 55.0817 99.2612 56.1751 100.716C57.6331 102.898 59.4556 105.08 62.007 106.535C63.8295 107.626 66.0165 108.353 67.8389 109.444C69.6614 110.899 71.4839 112.717 73.6708 113.808C74.3998 114.172 75.1288 113.081 74.7643 112.717Z" fill="#F2A93C"/>
<path d="M87.5216 116.719C86.7926 115.264 84.9702 114.901 83.5122 114.173C81.6897 113.446 80.2318 113.082 78.4093 111.991C78.0448 111.627 76.9513 112.719 77.3158 113.082C78.0448 114.173 79.1383 115.264 80.5963 115.628C82.4187 116.355 83.8767 117.81 85.6992 118.174C86.7926 118.901 87.8861 117.446 87.5216 116.719Z" fill="#F2A93C"/>
<path opacity="0.7" d="M39.4083 124.355C37.2214 122.537 32.4829 122.173 34.6699 118.173C36.1279 115.264 35.0344 112.354 35.0344 109.081C35.0344 105.444 35.0344 102.171 35.0344 98.5344C35.3989 94.1702 36.1279 90.1698 36.4924 85.8057H36.1279C35.0344 94.1702 33.2119 102.535 33.5764 111.263C33.5764 113.809 34.3054 115.627 33.2119 118.173C32.8474 119.264 32.1185 120.355 32.4829 121.446C33.2119 123.992 35.7634 125.81 37.9503 126.174C38.6793 126.174 40.1373 124.719 39.4083 124.355Z" fill="#F2A93C"/>
<path opacity="0.7" d="M60.549 127.266C58.7265 125.811 55.4461 125.448 53.2591 124.72C49.9787 123.993 46.6982 124.72 43.4178 124.356C43.0533 124.356 42.6888 124.72 43.0533 124.72C45.6047 125.448 48.5207 125.811 51.0721 126.175C53.9881 126.539 56.5396 127.993 59.4555 128.357C60.1845 128.721 61.278 127.63 60.549 127.266Z" fill="#F2A93C"/>
</svg>
