<svg width="200" height="200" viewBox="0 0 200 200" fill="none" xmlns="http://www.w3.org/2000/svg">
<path d="M70.6697 29.9184C70.6697 29.9184 74.1287 26.4048 75.4554 28.8878C76.7348 31.3239 77.256 31.6518 83.9844 34.3691C90.7129 37.1331 92.1817 35.4466 95.3564 37.0863C98.5785 38.6791 106.018 41.7711 112.793 44.0199C119.569 46.2686 131.226 51.2814 138.238 53.577C145.251 55.8257 155.533 59.433 158.045 59.9952C160.603 60.5105 158.187 63.3683 158.187 63.3683C158.187 63.3683 68.3479 34.7907 70.6697 29.9184Z" fill="url(#paint0_radial_9002_31185)"/>
<path d="M167 65.7565C167 65.7565 166.242 62.5708 164.963 62.2429C163.683 61.915 150.037 59.0572 143.403 56.34C137.954 54.0913 118.669 47.5325 105.449 42.7071C105.117 42.5665 104.786 42.4728 104.454 42.3323C104.454 42.3323 104.407 42.3323 104.407 42.2854C104.122 42.1917 103.838 42.098 103.554 41.9575C103.506 41.9575 103.459 41.9106 103.412 41.9106C103.127 41.8169 102.796 41.6764 102.511 41.5827C102.511 41.5827 102.464 41.5827 102.417 41.5358C102.18 41.4422 101.895 41.3485 101.658 41.2548C101.564 41.2079 101.516 41.2079 101.422 41.1611C101.185 41.0674 100.995 40.9737 100.758 40.9268C100.711 40.9268 100.663 40.88 100.616 40.88C100.332 40.7863 100.095 40.6926 99.8579 40.5989C99.8105 40.552 99.7631 40.552 99.6684 40.5052C99.4788 40.4115 99.2893 40.3646 99.0998 40.2709C99.005 40.2241 98.9576 40.2241 98.8628 40.1772C98.6259 40.0835 98.389 39.9898 98.1521 39.8961C94.8826 39.006 94.3614 38.9592 93.9824 40.4115C89.4809 37.3663 79.8621 34.7428 76.4979 32.9157C73.6075 31.3697 74.4604 29.7769 73.4654 29.3552C72.7546 30.2453 71.9965 31.276 71.4753 32.4004C70.1959 35.2113 68.1584 39.6619 65.4576 44.8152C62.8041 50.0154 58.4449 59.5257 55.9336 66.4593C53.4222 73.3929 47.4519 87.2132 48.3522 90.0241C49.2525 92.835 47.4046 93.6314 46.8833 94.5684C46.4095 95.5054 44.2773 98.5974 42.9979 103.516C41.6712 108.436 38.4017 119.164 37.2171 121.038C36.6485 123.755 36.3169 125.629 36.3169 125.629C36.3169 125.629 42.2872 127.55 49.442 129.939C56.6443 132.328 59.4399 132.422 62.662 131.672L64.9838 130.548C64.9838 130.548 67.2582 136.029 77.1139 139.684C86.9696 143.338 104.17 149.615 108.861 151.77C113.552 153.926 121.086 156.408 124.213 157.673C127.293 158.938 128.24 159.032 131.415 159.547C132.315 159.688 133.974 160.063 135.917 160.531C136.343 160.531 136.722 160.531 137.054 160.531C140.228 160.672 139.897 154.581 140.276 151.302C140.323 150.834 140.371 150.318 140.418 149.756C140.418 149.709 140.418 149.662 140.418 149.615C140.465 149.1 140.513 148.491 140.608 147.882C140.608 147.788 140.608 147.742 140.655 147.648C140.655 147.46 140.702 147.273 140.75 147.086C140.75 146.992 140.75 146.898 140.797 146.805C140.844 146.617 140.844 146.43 140.892 146.242C141.366 142.822 142.219 138.372 143.924 133.125C146.673 124.551 161.693 82.6689 163.257 76.5786C164.536 71.3784 163.257 67.7242 163.257 67.7242L167 65.7565Z" fill="url(#paint1_linear_9002_31185)"/>
<path d="M108.055 136.545C87.2065 121.085 84.174 126.566 73.8918 112.511C63.6096 98.4568 58.7765 95.2243 65.3628 71.6126C69.4378 57.1364 74.65 42.7071 78.1089 33.6653C77.493 33.4311 77.0191 33.15 76.5927 32.9626C73.7023 31.4166 74.5552 29.8237 73.5601 29.4021C72.8494 30.2922 72.0913 31.3229 71.57 32.4473C70.2907 35.2582 68.2532 39.7088 65.5524 44.8621C62.8041 50.0155 58.4449 59.5257 55.9336 66.4593C53.4222 73.3929 47.4519 87.2132 48.3522 90.0241C49.2525 92.835 47.4046 93.6315 46.8833 94.5684C46.4095 95.5054 44.2773 98.5974 42.9979 103.516C41.6712 108.436 38.4017 119.164 37.2171 121.038C36.6485 123.755 36.3169 125.629 36.3169 125.629C36.3169 125.629 42.2872 127.55 49.442 129.939C56.6443 132.328 59.4399 132.422 62.662 131.672L64.9838 130.548C64.9838 130.548 67.2582 136.029 77.1139 139.684C86.9696 143.338 104.17 149.615 108.861 151.771C113.552 153.926 121.086 156.409 124.213 157.673C127.293 158.938 128.24 159.032 131.415 159.547C132.315 159.688 133.974 160.063 135.917 160.531C136.343 160.531 136.722 160.531 137.054 160.531C138.854 160.625 139.518 158.657 139.849 156.409C127.103 158.845 126.772 150.459 108.055 136.545Z" fill="url(#paint2_linear_9002_31185)"/>
<g opacity="0.3">
<path d="M163.257 67.5834L167 65.7563C167 65.7563 166.242 62.5706 164.963 62.2427C163.683 61.9147 150.037 59.057 143.403 56.3397C137.954 54.091 118.811 47.6259 105.639 42.7537C110.614 46.361 117.105 50.5774 124.118 53.9505C139.755 61.5399 147.762 65.3347 149.753 75.1729C151.743 85.011 155.249 93.3032 150.558 102.767C149.089 105.765 149.326 109.934 150.416 114.291C155.723 99.1125 162.309 80.3262 163.304 76.3909C164.583 71.2376 163.257 67.5834 163.257 67.5834Z" fill="url(#paint3_linear_9002_31185)"/>
</g>
<path d="M124.45 156.361C107.771 151.536 78.4879 137.106 66.879 127.596C59.7241 128.955 44.3245 125.628 45.13 117.758C45.9356 109.887 52.5218 97.3788 52.0006 89.0398C51.4794 80.6539 55.9334 66.5056 55.9334 66.5056C53.4221 73.4392 47.4518 87.2595 48.3521 90.0704C49.2524 92.8813 47.4044 93.6778 46.8832 94.6147C46.4094 95.5517 44.2771 98.6437 42.9978 103.563C41.6711 108.482 38.4016 119.21 37.217 121.084C36.6484 123.801 36.3167 125.675 36.3167 125.675C36.3167 125.675 42.287 127.596 49.4419 129.985C56.6442 132.375 59.4398 132.468 62.6619 131.719L64.9836 130.594C64.9836 130.594 67.258 136.076 77.1138 139.73C86.9695 143.384 104.17 149.662 108.861 151.817C113.552 153.972 121.085 156.455 124.213 157.72C127.293 158.985 128.24 159.078 131.415 159.594C132.315 159.734 133.974 160.109 135.916 160.577C136.153 160.577 136.39 160.577 136.627 160.577C132.837 159.031 128.667 157.579 124.45 156.361Z" fill="url(#paint4_linear_9002_31185)"/>
<path d="M46.8832 94.5691C47.3571 93.6321 49.2524 92.8826 48.3521 90.0248C47.4518 87.2139 53.4695 73.3936 55.9334 66.46C58.4447 59.5264 62.804 50.0161 65.5049 44.8628C68.2057 39.6626 70.2432 35.212 71.5225 32.4479C72.0438 31.3236 72.8019 30.246 73.5126 29.4028C73.3705 29.3559 73.1336 29.3091 72.8493 29.3091C70.8118 29.2622 70.6223 29.2622 69.2955 31.3236C69.2955 31.3236 59.1555 54.9352 53.3274 69.8331C47.4992 84.6841 46.5515 89.9311 46.5515 89.9311C46.5515 89.9311 46.4094 93.0231 44.3245 95.225C42.2397 97.38 41.2446 104.829 39.4914 111.294C38.5911 114.573 37.7382 118.274 37.1696 121.085C38.3542 119.211 41.6237 108.483 42.9504 103.564C44.2771 98.5981 46.362 95.5061 46.8832 94.5691Z" fill="url(#paint5_linear_9002_31185)"/>
<path d="M124.26 157.627C121.18 156.362 113.646 153.926 108.908 151.724C104.217 149.569 87.017 143.291 77.1612 139.637C67.3055 135.983 65.0311 130.502 65.0311 130.502L62.7093 131.626C64.1308 135.842 68.1584 138.419 81.9469 143.526C95.7355 148.632 115.779 156.409 123.786 159.969C128.762 161.281 132.931 160.532 136.011 160.438C134.069 159.969 132.41 159.595 131.51 159.454C128.288 158.986 127.34 158.892 124.26 157.627Z" fill="url(#paint6_linear_9002_31185)"/>
<path d="M117.532 105.297C117.721 106.843 117.295 108.155 116.489 108.249C115.731 108.342 114.926 107.171 114.689 105.672C114.499 104.126 114.926 102.814 115.731 102.72C116.537 102.58 117.342 103.751 117.532 105.297Z" fill="url(#paint7_radial_9002_31185)"/>
<path d="M134.874 107.593C134.779 108.67 134.258 109.513 133.689 109.42C133.168 109.373 132.789 108.436 132.884 107.405C132.979 106.328 133.5 105.531 134.069 105.578C134.637 105.578 135.016 106.515 134.874 107.593Z" fill="url(#paint8_radial_9002_31185)"/>
<path d="M134.069 124.457C133.974 125.301 133.547 125.957 133.121 125.91C132.694 125.863 132.41 125.16 132.505 124.27C132.6 123.427 133.026 122.771 133.453 122.818C133.879 122.865 134.163 123.567 134.069 124.457Z" fill="url(#paint9_radial_9002_31185)"/>
<path d="M140.56 99.1604C140.465 100.004 140.039 100.66 139.612 100.613C139.186 100.566 138.902 99.8631 138.996 98.973C139.091 98.1297 139.518 97.4738 139.944 97.5207C140.371 97.5675 140.655 98.3171 140.56 99.1604Z" fill="url(#paint10_radial_9002_31185)"/>
<path d="M121.465 95.6929C121.512 96.5362 121.228 97.2858 120.801 97.2858C120.375 97.3326 119.948 96.6299 119.901 95.7866C119.854 94.9433 120.138 94.1938 120.564 94.1938C120.991 94.1469 121.417 94.8028 121.465 95.6929Z" fill="url(#paint11_radial_9002_31185)"/>
<path d="M111.988 94.4281C112.035 95.2714 111.751 96.021 111.325 96.021C110.898 96.0678 110.472 95.3651 110.424 94.5218C110.377 93.6785 110.661 92.929 111.088 92.929C111.514 92.929 111.941 93.5848 111.988 94.4281Z" fill="url(#paint12_radial_9002_31185)"/>
<path d="M127.482 78.9682C127.53 79.8114 127.245 80.561 126.819 80.561C126.392 80.6079 125.966 79.9051 125.919 79.0619C125.871 78.2186 126.156 77.469 126.582 77.469C127.056 77.4222 127.435 78.1249 127.482 78.9682Z" fill="url(#paint13_radial_9002_31185)"/>
<path d="M132.173 80.233C132.221 81.0762 131.936 81.8258 131.51 81.8258C131.083 81.8727 130.657 81.1699 130.61 80.3267C130.562 79.4834 130.846 78.7338 131.273 78.7338C131.699 78.687 132.126 79.3428 132.173 80.233Z" fill="url(#paint14_radial_9002_31185)"/>
<path opacity="0.3" d="M67.8741 61.1656C67.8741 61.1656 69.7695 65.4757 70.4328 66.5532C71.0962 67.6307 73.6075 71.0038 71.0962 72.5029C68.5849 74.0489 65.7419 74.2832 64.4625 76.204C63.2306 78.1248 60.2454 76.813 62.7567 72.4561C65.3154 68.0992 64.889 57.5583 67.8741 61.1656Z" fill="url(#paint15_linear_9002_31185)"/>
<path d="M166.953 66.2722C166.953 66.2722 166.194 63.0865 164.915 62.7586C164.678 62.7117 164.062 62.5712 163.162 62.3838C163.92 63.8829 163.351 64.9136 162.451 65.6632C161.172 66.6939 161.74 68.7083 161.03 73.7211C160.319 78.7339 158.708 82.6224 157.144 87.9631C155.628 93.257 152.88 100.378 150.416 105.203C147.952 110.029 145.725 116.025 144.872 120.617C144.019 125.208 141.271 132.516 139.991 135.14C138.712 137.763 136.201 137.482 138.428 142.401C139.233 144.228 140.086 145.868 140.797 147.227C141.271 143.76 142.076 139.122 143.877 133.594C146.625 125.02 161.646 83.1377 163.209 77.0474C164.489 71.8472 163.209 68.193 163.209 68.193L166.953 66.2722Z" fill="url(#paint16_linear_9002_31185)"/>
<path d="M144.635 119.351C144.635 119.351 140.371 130.454 135.585 133.828C130.799 137.201 130.467 137.903 133.121 140.012C135.774 142.073 139.802 147.882 138.475 143.385C137.148 138.887 136.912 138.606 138.617 137.247C140.323 135.842 144.303 124.973 144.635 119.351Z" fill="#F9D89C"/>
<path d="M57.2129 47.7208C57.2129 47.7208 60.2928 43.8792 61.8565 46.1748C63.4201 48.4703 63.9413 48.7046 70.9067 50.7659C77.872 52.8272 79.1514 51.0002 82.5156 52.3119C85.8798 53.5768 93.6033 55.8724 100.569 57.4184C107.534 58.9644 119.664 62.7591 126.914 64.3051C134.163 65.8511 144.73 68.381 147.289 68.6621C149.847 68.8963 147.81 71.9883 147.81 71.9883C147.81 71.9883 55.4123 52.8272 57.2129 47.7208Z" fill="url(#paint17_radial_9002_31185)"/>
<path d="M156.765 73.5817C156.765 73.5817 155.675 70.4897 154.349 70.3023C153.069 70.1149 139.139 68.6626 132.315 66.6481C126.629 64.9615 106.776 60.4172 93.1768 56.9504C92.8451 56.8567 92.466 56.7631 92.1344 56.6694C92.1344 56.6694 92.087 56.6694 92.0396 56.6694C91.7553 56.5757 91.471 56.5288 91.1867 56.4351C91.1393 56.4351 91.0919 56.3883 90.9972 56.3883C90.6655 56.2946 90.3812 56.2477 90.0969 56.154C90.0495 56.154 90.0495 56.154 90.0021 56.154C89.7178 56.0603 89.4809 56.0135 89.244 55.9666C89.1492 55.9666 89.1018 55.9198 89.0071 55.9198C88.7702 55.8729 88.5806 55.7792 88.3437 55.7324C88.2963 55.7324 88.2489 55.6855 88.1542 55.6855C87.8699 55.5918 87.633 55.545 87.3487 55.4513C87.3013 55.4513 87.2065 55.4044 87.1591 55.4044C86.9696 55.3576 86.7801 55.3107 86.5431 55.2171C86.4484 55.2171 86.401 55.1702 86.3062 55.1702C86.0693 55.1234 85.8324 55.0297 85.5955 54.9828C82.2786 54.4206 81.71 54.4206 81.5205 55.9198C76.6874 53.3431 66.8791 51.7034 63.3727 50.2511C60.3402 48.9862 61.0035 47.2996 59.9611 47.0186C59.3451 47.9555 58.6818 49.0799 58.3027 50.2511C57.3076 53.1557 55.744 57.7937 53.6117 63.2282C51.4321 68.6626 48.1153 78.5476 46.3621 85.7155C44.6089 92.8833 40.1075 107.219 41.2447 109.936C42.4293 112.653 40.6761 113.637 40.2496 114.574C39.8706 115.558 38.07 118.837 37.3119 123.897C36.5064 128.91 34.3741 139.919 33.3791 141.887C33.0948 144.604 33 146.525 33 146.525C33 146.525 39.1124 147.79 46.5042 149.476C53.896 151.116 56.6917 150.929 59.819 149.851L61.9986 148.493C61.9986 148.493 64.8416 153.74 75.029 156.316C85.2164 158.94 102.985 163.39 107.913 165.077C112.841 166.763 120.564 168.45 123.786 169.387C127.008 170.324 127.956 170.324 131.131 170.511C132.031 170.558 133.737 170.746 135.727 171.027C136.153 170.98 136.533 170.933 136.864 170.886C139.992 170.699 139.091 164.655 139.091 161.376C139.091 160.907 139.091 160.392 139.091 159.783C139.091 159.736 139.091 159.689 139.091 159.642C139.091 159.127 139.091 158.518 139.091 157.909C139.091 157.815 139.091 157.769 139.091 157.675C139.091 157.487 139.091 157.3 139.091 157.113C139.091 157.019 139.091 156.925 139.091 156.832C139.091 156.644 139.091 156.457 139.091 156.223C139.186 152.803 139.565 148.258 140.702 142.871C142.55 134.063 153.117 90.8688 154.017 84.6379C154.775 79.3441 153.069 75.8304 153.069 75.8304L156.765 73.5817Z" fill="url(#paint18_linear_9002_31185)"/>
<path d="M105.544 149.992C83.1787 136.733 80.7621 142.496 69.0585 129.566C57.3548 116.635 52.19 113.918 56.3124 89.7443C58.8237 74.9402 62.5196 60.0424 65.0309 50.6727C64.4149 50.4853 63.8937 50.2979 63.4198 50.1105C60.3873 48.8456 61.0507 47.159 60.0083 46.8779C59.3923 47.8149 58.7289 48.9393 58.3498 50.1105C57.3548 53.0151 55.7911 57.6531 53.6589 63.0875C51.4793 68.522 48.1624 78.407 46.4092 85.5748C44.6561 92.7427 40.1546 107.078 41.2918 109.796C42.4764 112.513 40.7232 113.497 40.2968 114.434C39.9177 115.417 38.1172 118.697 37.359 123.756C36.5535 128.769 34.4213 139.779 33.4262 141.746C33.1419 144.463 33.0471 146.384 33.0471 146.384C33.0471 146.384 39.1596 147.649 46.5514 149.336C53.9432 150.975 56.7388 150.788 59.8661 149.71L62.0457 148.352C62.0457 148.352 64.8887 153.599 75.0761 156.176C85.2635 158.799 103.032 163.25 107.96 164.936C112.888 166.623 120.612 168.309 123.834 169.246C127.056 170.183 128.003 170.183 131.178 170.371C132.078 170.418 133.784 170.605 135.774 170.886C136.201 170.839 136.58 170.792 136.911 170.745C138.712 170.652 139.186 168.637 139.233 166.342C126.819 170.23 125.587 161.891 105.544 149.992Z" fill="url(#paint19_linear_9002_31185)"/>
<g opacity="0.3">
<path d="M153.259 75.7824L156.765 73.5805C156.765 73.5805 155.675 70.4885 154.349 70.3011C153.069 70.1137 139.139 68.6614 132.315 66.6469C126.677 65.0072 106.965 60.4629 93.319 56.9961C98.6733 60.0881 105.496 63.6017 112.841 66.2721C129.188 72.2219 137.528 75.1733 140.513 84.7304C143.498 94.2875 147.857 102.205 144.209 112.137C143.071 115.276 143.735 119.398 145.251 123.615C148.947 108.014 153.543 88.6189 154.112 84.6367C154.917 79.2492 153.259 75.7824 153.259 75.7824Z" fill="url(#paint20_linear_9002_31185)"/>
</g>
<path d="M123.881 168.028C106.823 164.936 76.1188 153.551 63.6096 145.306C56.6443 147.367 40.9604 145.634 40.9604 137.717C40.9604 129.799 46.1726 116.682 44.7984 108.436C43.4243 100.144 46.3621 85.6211 46.3621 85.6211C44.6089 92.7889 40.1075 107.125 41.2447 109.842C42.4293 112.559 40.6761 113.543 40.2496 114.48C39.8706 115.464 38.07 118.743 37.3119 123.803C36.5064 128.815 34.3741 139.825 33.3791 141.793C33.0948 144.51 33 146.431 33 146.431C33 146.431 39.1124 147.695 46.5042 149.382C53.896 151.022 56.6917 150.834 59.819 149.757L61.9986 148.398C61.9986 148.398 64.8416 153.645 75.029 156.222C85.2164 158.845 102.985 163.296 107.913 164.983C112.841 166.669 120.564 168.356 123.786 169.293C127.008 170.23 127.956 170.23 131.131 170.417C132.031 170.464 133.737 170.651 135.727 170.932C135.964 170.885 136.201 170.885 136.438 170.839C132.552 169.808 128.24 168.824 123.881 168.028Z" fill="url(#paint21_linear_9002_31185)"/>
<path d="M40.297 114.48C40.6761 113.497 42.4766 112.56 41.2921 109.842C40.1075 107.125 44.6089 92.7895 46.4095 85.6217C48.1626 78.4538 51.5269 68.5688 53.6591 63.1344C55.7914 57.6999 57.4024 53.0619 58.3501 50.1573C58.7291 48.9861 59.3925 47.8618 60.0085 46.9248C59.8189 46.8779 59.6294 46.8779 59.3451 46.8779C57.3076 47.0653 57.1181 47.0653 56.0283 49.2672C56.0283 49.2672 48.4469 73.8158 44.1824 89.1822C39.9179 104.548 39.5389 109.889 39.5389 109.889C39.5389 109.889 39.7284 112.981 37.8805 115.371C36.0325 117.76 35.843 125.256 34.7532 131.861C34.1846 135.234 33.7581 138.982 33.4738 141.84C34.4689 139.872 36.6011 128.863 37.4066 123.85C38.1648 118.744 39.9179 115.464 40.297 114.48Z" fill="url(#paint22_linear_9002_31185)"/>
<path d="M123.834 169.293C120.612 168.356 112.888 166.669 107.96 164.983C103.033 163.296 85.3111 158.799 75.0764 156.222C64.9363 153.599 62.0933 148.398 62.0933 148.398L59.9137 149.757C61.7616 153.786 66.0261 155.988 80.2885 159.642C94.5509 163.296 115.305 168.965 123.644 171.729C128.714 172.525 132.789 171.354 135.822 170.933C133.832 170.652 132.126 170.464 131.226 170.417C128.004 170.23 127.056 170.23 123.834 169.293Z" fill="url(#paint23_linear_9002_31185)"/>
<path d="M129.188 118.414C129.188 119.491 128.762 120.382 128.193 120.382C127.672 120.382 127.198 119.538 127.198 118.461C127.198 117.383 127.625 116.493 128.193 116.493C128.762 116.493 129.188 117.336 129.188 118.414Z" fill="url(#paint24_radial_9002_31185)"/>
<path d="M130.183 135.28C130.183 136.123 129.851 136.826 129.425 136.826C128.999 136.826 128.62 136.123 128.62 135.28C128.62 134.437 128.951 133.734 129.378 133.734C129.804 133.734 130.183 134.437 130.183 135.28Z" fill="url(#paint25_radial_9002_31185)"/>
<path d="M123.502 94.4276C123.502 95.2709 123.171 95.9736 122.744 95.9736C122.318 95.9736 121.939 95.2709 121.939 94.4276C121.939 93.5843 122.27 92.8816 122.697 92.8816C123.17 92.8816 123.502 93.5843 123.502 94.4276Z" fill="url(#paint26_radial_9002_31185)"/>
<path d="M95.167 93.585C95.3091 94.4283 95.0722 95.1779 94.6458 95.2716C94.2193 95.3653 93.7455 94.7094 93.6033 93.8661C93.4612 93.0229 93.6981 92.2733 94.1246 92.1796C94.551 92.0859 95.0248 92.7418 95.167 93.585Z" fill="url(#paint27_radial_9002_31185)"/>
<path d="M124.734 81.7791C124.876 82.6224 124.639 83.3719 124.213 83.4656C123.787 83.5593 123.313 82.9034 123.171 82.0602C123.028 81.2169 123.265 80.4673 123.692 80.3736C124.118 80.3268 124.592 80.9358 124.734 81.7791Z" fill="url(#paint28_radial_9002_31185)"/>
<path d="M138.523 95.74C138.665 96.5833 138.428 97.3329 138.001 97.4266C137.575 97.5203 137.101 96.8644 136.959 96.0211C136.817 95.1778 137.054 94.4283 137.48 94.3346C137.907 94.2877 138.381 94.8967 138.523 95.74Z" fill="url(#paint29_radial_9002_31185)"/>
<path d="M100.142 123.708C100.237 124.177 100.095 124.552 99.8579 124.599C99.621 124.645 99.3841 124.317 99.2893 123.849C99.1946 123.38 99.3367 123.006 99.5736 122.959C99.8105 122.912 100.095 123.287 100.142 123.708Z" fill="url(#paint30_radial_9002_31185)"/>
<path d="M92.5134 130.83C92.6082 131.439 92.466 132.001 92.1344 132.048C91.8027 132.095 91.471 131.626 91.3762 131.017C91.2815 130.408 91.4236 129.846 91.7553 129.799C92.087 129.752 92.4187 130.221 92.5134 130.83Z" fill="url(#paint31_radial_9002_31185)"/>
<path d="M69.7695 110.029C69.8643 110.497 69.7222 110.872 69.4852 110.919C69.2483 110.966 69.0114 110.638 68.9166 110.169C68.8219 109.701 68.964 109.326 69.2009 109.279C69.4379 109.232 69.6748 109.56 69.7695 110.029Z" fill="url(#paint32_radial_9002_31185)"/>
<path d="M93.319 105.86C93.4137 106.328 93.2716 106.703 93.0347 106.75C92.7978 106.797 92.5609 106.469 92.4661 106.001C92.3713 105.532 92.5135 105.157 92.7504 105.11C92.9873 105.064 93.2242 105.438 93.319 105.86Z" fill="url(#paint33_radial_9002_31185)"/>
<path d="M55.4124 128.534C55.5071 129.003 55.365 129.378 55.1281 129.424C54.8912 129.471 54.6542 129.143 54.5595 128.675C54.4647 128.206 54.6069 127.832 54.8438 127.785C55.0807 127.738 55.3176 128.066 55.4124 128.534Z" fill="url(#paint34_radial_9002_31185)"/>
<path d="M99.005 156.268C99.0998 156.736 98.9576 157.111 98.7207 157.158C98.4838 157.205 98.2469 156.877 98.1521 156.408C98.0574 155.94 98.1995 155.565 98.4364 155.518C98.6733 155.472 98.9576 155.799 99.005 156.268Z" fill="url(#paint35_radial_9002_31185)"/>
<path d="M63.1831 137.998C63.2779 138.607 63.1357 139.169 62.804 139.216C62.4724 139.263 62.1407 138.794 62.0459 138.185C61.9511 137.576 62.0933 137.014 62.425 136.967C62.7567 136.92 63.0883 137.389 63.1831 137.998Z" fill="url(#paint36_radial_9002_31185)"/>
<path d="M47.5467 132.844C47.6889 133.64 47.4519 134.343 47.0729 134.39C46.6938 134.437 46.22 133.874 46.0778 133.078C45.9357 132.282 46.1726 131.579 46.5517 131.532C46.9307 131.438 47.4046 132.047 47.5467 132.844Z" fill="url(#paint37_radial_9002_31185)"/>
<path d="M96.4937 152.942C96.6359 153.739 96.399 154.442 96.0199 154.488C95.6408 154.535 95.167 153.973 95.0249 153.177C94.8827 152.38 95.1196 151.678 95.4987 151.631C95.9251 151.584 96.399 152.146 96.4937 152.942Z" fill="url(#paint38_radial_9002_31185)"/>
<path d="M120.375 147.976C120.517 148.819 120.28 149.569 119.854 149.662C119.427 149.756 118.953 149.1 118.811 148.257C118.669 147.414 118.906 146.664 119.332 146.57C119.759 146.477 120.185 147.133 120.375 147.976Z" fill="url(#paint39_radial_9002_31185)"/>
<path d="M156.765 74.0964C156.765 74.0964 155.675 71.0044 154.349 70.817C154.112 70.7702 153.496 70.7233 152.595 70.5828C153.496 71.9882 153.069 73.1126 152.264 73.909C151.079 75.0802 151.885 77.001 151.695 82.0607C151.506 87.1203 150.321 91.1493 149.326 96.5837C148.331 102.018 146.388 109.373 144.446 114.433C142.503 119.493 140.939 125.677 140.513 130.315C140.134 134.953 138.144 142.542 137.196 145.259C136.201 147.977 133.69 147.977 136.39 152.615C137.385 154.348 138.38 155.894 139.233 157.159C139.328 153.645 139.66 149.007 140.892 143.292C142.74 134.484 153.306 91.2898 154.207 85.059C154.965 79.7651 153.259 76.2514 153.259 76.2514L156.765 74.0964Z" fill="url(#paint40_linear_9002_31185)"/>
<path d="M140.134 129.143C140.134 129.143 137.054 140.621 132.647 144.463C128.241 148.304 128.004 149.054 130.847 150.834C133.69 152.614 138.333 158.002 136.533 153.645C134.732 149.288 134.448 149.054 136.011 147.508C137.575 145.962 140.418 134.765 140.134 129.143Z" fill="#F9D89C"/>
<g opacity="0.6">
<path d="M106.681 106.563C106.681 107.406 106.35 108.109 105.923 108.109C105.497 108.109 105.118 107.406 105.118 106.563C105.118 105.719 105.449 105.017 105.876 105.017C106.35 105.017 106.681 105.719 106.681 106.563Z" fill="url(#paint41_radial_9002_31185)"/>
<path d="M107.818 87.7775C107.818 88.6207 107.487 89.3235 107.06 89.3235C106.634 89.3235 106.255 88.6207 106.255 87.7775C106.255 86.9342 106.586 86.2315 107.013 86.2315C107.487 86.1846 107.818 86.8873 107.818 87.7775Z" fill="url(#paint42_radial_9002_31185)"/>
<path d="M83.795 117.526C83.9372 118.369 83.7003 119.119 83.2738 119.212C82.8474 119.306 82.3735 118.65 82.2314 117.807C82.0892 116.964 82.3262 116.214 82.7526 116.12C83.1791 116.027 83.6529 116.682 83.795 117.526Z" fill="url(#paint43_radial_9002_31185)"/>
<path d="M116.916 110.311C117.058 111.155 116.821 111.904 116.395 111.998C115.968 112.092 115.494 111.436 115.352 110.592C115.21 109.749 115.447 109 115.874 108.906C116.3 108.859 116.774 109.468 116.916 110.311Z" fill="url(#paint44_radial_9002_31185)"/>
<path d="M133.121 106.751C133.216 107.219 133.074 107.594 132.837 107.641C132.6 107.688 132.363 107.36 132.268 106.891C132.173 106.423 132.315 106.048 132.552 106.001C132.789 105.954 133.026 106.329 133.121 106.751Z" fill="url(#paint45_radial_9002_31185)"/>
<path d="M123.502 124.225C123.597 124.694 123.455 125.069 123.218 125.116C122.981 125.162 122.744 124.834 122.649 124.366C122.554 123.898 122.697 123.523 122.934 123.476C123.17 123.429 123.407 123.804 123.502 124.225Z" fill="url(#paint46_radial_9002_31185)"/>
<path d="M109.24 114.388C109.335 114.856 109.192 115.231 108.955 115.278C108.719 115.325 108.482 114.997 108.387 114.528C108.292 114.06 108.434 113.685 108.671 113.638C108.908 113.591 109.145 113.919 109.24 114.388Z" fill="url(#paint47_radial_9002_31185)"/>
<path d="M116.489 85.2472C116.584 85.7157 116.442 86.0905 116.205 86.1373C115.968 86.1842 115.731 85.8562 115.637 85.3877C115.542 84.9193 115.684 84.5445 115.921 84.4976C116.158 84.4508 116.395 84.7787 116.489 85.2472Z" fill="url(#paint48_radial_9002_31185)"/>
</g>
<defs>
<radialGradient id="paint0_radial_9002_31185" cx="0" cy="0" r="1" gradientTransform="matrix(74.1541 7.61035 -7.69722 73.3172 92.7479 37.8255)" gradientUnits="userSpaceOnUse">
<stop stop-color="#AC6E2A"/>
<stop offset="0.2441" stop-color="#B2742D"/>
<stop offset="0.5586" stop-color="#C18434"/>
<stop offset="0.9103" stop-color="#DB9E3F"/>
<stop offset="1" stop-color="#E3A643"/>
</radialGradient>
<linearGradient id="paint1_linear_9002_31185" x1="155.249" y1="67.7555" x2="84.5936" y2="107.324" gradientUnits="userSpaceOnUse">
<stop offset="0.1041" stop-color="#E3AF5F"/>
<stop offset="0.536" stop-color="#E6C263"/>
<stop offset="1" stop-color="#E2A84B"/>
</linearGradient>
<linearGradient id="paint2_linear_9002_31185" x1="134.655" y1="56.3644" x2="102.1" y2="100.952" gradientUnits="userSpaceOnUse">
<stop stop-color="#E6C263"/>
<stop offset="0.4564" stop-color="#E5B95B"/>
<stop offset="1" stop-color="#E2A84B"/>
</linearGradient>
<linearGradient id="paint3_linear_9002_31185" x1="153.481" y1="64.5996" x2="82.8244" y2="104.169" gradientUnits="userSpaceOnUse">
<stop offset="0.1041" stop-color="#E3AF5F"/>
<stop offset="0.536" stop-color="#E6C263"/>
<stop offset="1" stop-color="#E2A84B"/>
</linearGradient>
<linearGradient id="paint4_linear_9002_31185" x1="114.39" y1="87.7337" x2="68.1665" y2="155.049" gradientUnits="userSpaceOnUse">
<stop stop-color="#E6C263"/>
<stop offset="0.4564" stop-color="#E5B95B"/>
<stop offset="1" stop-color="#E2A84B"/>
</linearGradient>
<linearGradient id="paint5_linear_9002_31185" x1="65.1292" y1="37.7153" x2="46.3543" y2="109.23" gradientUnits="userSpaceOnUse">
<stop offset="0.1041" stop-color="#FFFCD6"/>
<stop offset="0.2879" stop-color="#FECE8A"/>
<stop offset="1" stop-color="#F3B776"/>
</linearGradient>
<linearGradient id="paint6_linear_9002_31185" x1="61.5973" y1="142.046" x2="137.075" y2="149.974" gradientUnits="userSpaceOnUse">
<stop stop-color="#C3A06F"/>
<stop offset="1" stop-color="#B0916F"/>
</linearGradient>
<radialGradient id="paint7_radial_9002_31185" cx="0" cy="0" r="1" gradientTransform="matrix(4.97266 0.510339 -0.516164 4.91654 116.466 107.511)" gradientUnits="userSpaceOnUse">
<stop offset="0.024713" stop-color="#AE771D"/>
<stop offset="1" stop-color="#DAA73F"/>
</radialGradient>
<radialGradient id="paint8_radial_9002_31185" cx="0" cy="0" r="1" gradientTransform="matrix(3.28437 1.12705 -1.13992 3.2473 133.801 108.919)" gradientUnits="userSpaceOnUse">
<stop offset="0.024713" stop-color="#AE771D"/>
<stop offset="1" stop-color="#DAA73F"/>
</radialGradient>
<radialGradient id="paint9_radial_9002_31185" cx="0" cy="0" r="1" gradientTransform="matrix(2.6239 0.900406 -0.910683 2.59428 133.221 125.511)" gradientUnits="userSpaceOnUse">
<stop offset="0.024713" stop-color="#AE771D"/>
<stop offset="1" stop-color="#DAA73F"/>
</radialGradient>
<radialGradient id="paint10_radial_9002_31185" cx="0" cy="0" r="1" gradientTransform="matrix(2.62346 0.900259 -0.910531 2.59386 139.705 100.242)" gradientUnits="userSpaceOnUse">
<stop offset="0.024713" stop-color="#AE771D"/>
<stop offset="1" stop-color="#DAA73F"/>
</radialGradient>
<radialGradient id="paint11_radial_9002_31185" cx="0" cy="0" r="1" gradientTransform="matrix(2.73788 0.467308 -0.472644 2.70698 120.786 96.8665)" gradientUnits="userSpaceOnUse">
<stop offset="0.024713" stop-color="#AE771D"/>
<stop offset="1" stop-color="#DAA73F"/>
</radialGradient>
<radialGradient id="paint12_radial_9002_31185" cx="0" cy="0" r="1" gradientTransform="matrix(2.73504 0.466822 -0.472152 2.70416 111.314 95.6375)" gradientUnits="userSpaceOnUse">
<stop offset="0.024713" stop-color="#AE771D"/>
<stop offset="1" stop-color="#DAA73F"/>
</radialGradient>
<radialGradient id="paint13_radial_9002_31185" cx="0" cy="0" r="1" gradientTransform="matrix(2.73739 0.467224 -0.472558 2.70649 126.822 80.1669)" gradientUnits="userSpaceOnUse">
<stop offset="0.024713" stop-color="#AE771D"/>
<stop offset="1" stop-color="#DAA73F"/>
</radialGradient>
<radialGradient id="paint14_radial_9002_31185" cx="0" cy="0" r="1" gradientTransform="matrix(2.73504 0.466823 -0.472152 2.70417 131.49 81.4166)" gradientUnits="userSpaceOnUse">
<stop offset="0.024713" stop-color="#AE771D"/>
<stop offset="1" stop-color="#DAA73F"/>
</radialGradient>
<linearGradient id="paint15_linear_9002_31185" x1="62.5085" y1="68.5141" x2="72.3022" y2="69.5428" gradientUnits="userSpaceOnUse">
<stop offset="0.1041" stop-color="#E3AF5F"/>
<stop offset="0.536" stop-color="#E6C263"/>
<stop offset="1" stop-color="#E2A84B"/>
</linearGradient>
<linearGradient id="paint16_linear_9002_31185" x1="162.929" y1="58.7214" x2="144.181" y2="137.414" gradientUnits="userSpaceOnUse">
<stop offset="0.1041" stop-color="#F8D188"/>
<stop offset="0.3679" stop-color="#C3874D"/>
<stop offset="1" stop-color="#D09454"/>
</linearGradient>
<radialGradient id="paint17_radial_9002_31185" cx="0" cy="0" r="1" gradientUnits="userSpaceOnUse" gradientTransform="translate(80.0004 53.3425) scale(74.5519 73.7105)">
<stop stop-color="#AC6E2A"/>
<stop offset="0.2441" stop-color="#B2742D"/>
<stop offset="0.5586" stop-color="#C18434"/>
<stop offset="0.9103" stop-color="#DB9E3F"/>
<stop offset="1" stop-color="#E3A643"/>
</radialGradient>
<linearGradient id="paint18_linear_9002_31185" x1="145.292" y1="76.7326" x2="79.1985" y2="123.371" gradientUnits="userSpaceOnUse">
<stop offset="0.1041" stop-color="#E3AF5F"/>
<stop offset="0.536" stop-color="#E6C263"/>
<stop offset="1" stop-color="#E2A84B"/>
</linearGradient>
<linearGradient id="paint19_linear_9002_31185" x1="114.805" y1="77.3726" x2="75.4257" y2="157.406" gradientUnits="userSpaceOnUse">
<stop stop-color="#E6C263"/>
<stop offset="0.4564" stop-color="#E5B95B"/>
<stop offset="1" stop-color="#E2A84B"/>
</linearGradient>
<linearGradient id="paint20_linear_9002_31185" x1="143.205" y1="73.7736" x2="77.1109" y2="120.412" gradientUnits="userSpaceOnUse">
<stop offset="0.1041" stop-color="#E3AF5F"/>
<stop offset="0.536" stop-color="#E6C263"/>
<stop offset="1" stop-color="#E2A84B"/>
</linearGradient>
<linearGradient id="paint21_linear_9002_31185" x1="106.741" y1="100.774" x2="67.7221" y2="172.406" gradientUnits="userSpaceOnUse">
<stop stop-color="#E6C263"/>
<stop offset="0.4564" stop-color="#E5B95B"/>
<stop offset="1" stop-color="#E2A84B"/>
</linearGradient>
<linearGradient id="paint22_linear_9002_31185" x1="52.5169" y1="56.0533" x2="41.1567" y2="129.079" gradientUnits="userSpaceOnUse">
<stop offset="0.1041" stop-color="#FFFCD6"/>
<stop offset="0.2879" stop-color="#FECE8A"/>
<stop offset="1" stop-color="#F3B776"/>
</linearGradient>
<linearGradient id="paint23_linear_9002_31185" x1="59.9031" y1="160.188" x2="135.802" y2="160.188" gradientUnits="userSpaceOnUse">
<stop stop-color="#C3A06F"/>
<stop offset="1" stop-color="#B0916F"/>
</linearGradient>
<radialGradient id="paint24_radial_9002_31185" cx="0" cy="0" r="1" gradientTransform="matrix(3.38484 0.785734 -0.794702 3.34664 128.259 119.864)" gradientUnits="userSpaceOnUse">
<stop offset="0.024713" stop-color="#AE771D"/>
<stop offset="1" stop-color="#DAA73F"/>
</radialGradient>
<radialGradient id="paint25_radial_9002_31185" cx="0" cy="0" r="1" gradientTransform="matrix(2.70272 0.627391 -0.634553 2.67222 129.415 136.429)" gradientUnits="userSpaceOnUse">
<stop offset="0.024713" stop-color="#AE771D"/>
<stop offset="1" stop-color="#DAA73F"/>
</radialGradient>
<radialGradient id="paint26_radial_9002_31185" cx="0" cy="0" r="1" gradientTransform="matrix(2.70459 0.627828 -0.634991 2.67408 122.765 95.5777)" gradientUnits="userSpaceOnUse">
<stop offset="0.024713" stop-color="#AE771D"/>
<stop offset="1" stop-color="#DAA73F"/>
</radialGradient>
<radialGradient id="paint27_radial_9002_31185" cx="0" cy="0" r="1" gradientTransform="matrix(2.77045 0.185143 -0.187256 2.73918 94.6215 94.8268)" gradientUnits="userSpaceOnUse">
<stop offset="0.024713" stop-color="#AE771D"/>
<stop offset="1" stop-color="#DAA73F"/>
</radialGradient>
<radialGradient id="paint28_radial_9002_31185" cx="0" cy="0" r="1" gradientTransform="matrix(2.77237 0.185271 -0.187386 2.74108 124.199 83.0481)" gradientUnits="userSpaceOnUse">
<stop offset="0.024713" stop-color="#AE771D"/>
<stop offset="1" stop-color="#DAA73F"/>
</radialGradient>
<radialGradient id="paint29_radial_9002_31185" cx="0" cy="0" r="1" gradientTransform="matrix(2.76946 0.185076 -0.187189 2.7382 137.964 96.9982)" gradientUnits="userSpaceOnUse">
<stop offset="0.024713" stop-color="#AE771D"/>
<stop offset="1" stop-color="#DAA73F"/>
</radialGradient>
<radialGradient id="paint30_radial_9002_31185" cx="0" cy="0" r="1" gradientTransform="matrix(1.49893 0.10017 -0.101314 1.48201 99.8629 124.405)" gradientUnits="userSpaceOnUse">
<stop offset="0.024713" stop-color="#AE771D"/>
<stop offset="1" stop-color="#DAA73F"/>
</radialGradient>
<radialGradient id="paint31_radial_9002_31185" cx="0" cy="0" r="1" gradientTransform="matrix(2.00727 0.134141 -0.135672 1.98462 92.1326 131.736)" gradientUnits="userSpaceOnUse">
<stop offset="0.024713" stop-color="#AE771D"/>
<stop offset="1" stop-color="#DAA73F"/>
</radialGradient>
<radialGradient id="paint32_radial_9002_31185" cx="0" cy="0" r="1" gradientTransform="matrix(1.49719 0.100054 -0.101196 1.48029 69.4567 110.718)" gradientUnits="userSpaceOnUse">
<stop offset="0.024713" stop-color="#AE771D"/>
<stop offset="1" stop-color="#DAA73F"/>
</radialGradient>
<radialGradient id="paint33_radial_9002_31185" cx="0" cy="0" r="1" gradientTransform="matrix(1.50053 0.100277 -0.101422 1.4836 93.0025 106.561)" gradientUnits="userSpaceOnUse">
<stop offset="0.024713" stop-color="#AE771D"/>
<stop offset="1" stop-color="#DAA73F"/>
</radialGradient>
<radialGradient id="paint34_radial_9002_31185" cx="0" cy="0" r="1" gradientTransform="matrix(1.49827 0.100126 -0.101269 1.48137 55.1182 129.215)" gradientUnits="userSpaceOnUse">
<stop offset="0.024713" stop-color="#AE771D"/>
<stop offset="1" stop-color="#DAA73F"/>
</radialGradient>
<radialGradient id="paint35_radial_9002_31185" cx="0" cy="0" r="1" gradientTransform="matrix(1.50042 0.10027 -0.101414 1.48349 98.7147 156.951)" gradientUnits="userSpaceOnUse">
<stop offset="0.024713" stop-color="#AE771D"/>
<stop offset="1" stop-color="#DAA73F"/>
</radialGradient>
<radialGradient id="paint36_radial_9002_31185" cx="0" cy="0" r="1" gradientTransform="matrix(2.00715 0.134133 -0.135664 1.98449 62.7814 138.907)" gradientUnits="userSpaceOnUse">
<stop offset="0.024713" stop-color="#AE771D"/>
<stop offset="1" stop-color="#DAA73F"/>
</radialGradient>
<radialGradient id="paint37_radial_9002_31185" cx="0" cy="0" r="1" gradientTransform="matrix(2.59198 0.173216 -0.175193 2.56272 47.0064 134.005)" gradientUnits="userSpaceOnUse">
<stop offset="0.024713" stop-color="#AE771D"/>
<stop offset="1" stop-color="#DAA73F"/>
</radialGradient>
<radialGradient id="paint38_radial_9002_31185" cx="0" cy="0" r="1" gradientTransform="matrix(2.58996 0.173081 -0.175056 2.56074 95.9999 154.137)" gradientUnits="userSpaceOnUse">
<stop offset="0.024713" stop-color="#AE771D"/>
<stop offset="1" stop-color="#DAA73F"/>
</radialGradient>
<radialGradient id="paint39_radial_9002_31185" cx="0" cy="0" r="1" gradientTransform="matrix(2.77263 0.185288 -0.187403 2.74134 119.802 149.226)" gradientUnits="userSpaceOnUse">
<stop offset="0.024713" stop-color="#AE771D"/>
<stop offset="1" stop-color="#DAA73F"/>
</radialGradient>
<linearGradient id="paint40_linear_9002_31185" x1="151.987" y1="66.9631" x2="141.385" y2="147.125" gradientUnits="userSpaceOnUse">
<stop offset="0.1041" stop-color="#F8D188"/>
<stop offset="0.3679" stop-color="#C3874D"/>
<stop offset="1" stop-color="#D09454"/>
</linearGradient>
<radialGradient id="paint41_radial_9002_31185" cx="0" cy="0" r="1" gradientTransform="matrix(2.70243 0.627327 -0.634485 2.67195 105.939 107.737)" gradientUnits="userSpaceOnUse">
<stop offset="0.024713" stop-color="#AE771D"/>
<stop offset="1" stop-color="#DAA73F"/>
</radialGradient>
<radialGradient id="paint42_radial_9002_31185" cx="0" cy="0" r="1" gradientTransform="matrix(2.70124 0.627044 -0.634204 2.67075 107.075 88.9104)" gradientUnits="userSpaceOnUse">
<stop offset="0.024713" stop-color="#AE771D"/>
<stop offset="1" stop-color="#DAA73F"/>
</radialGradient>
<radialGradient id="paint43_radial_9002_31185" cx="0" cy="0" r="1" gradientTransform="matrix(2.76996 0.18511 -0.187223 2.73869 83.246 118.777)" gradientUnits="userSpaceOnUse">
<stop offset="0.024713" stop-color="#AE771D"/>
<stop offset="1" stop-color="#DAA73F"/>
</radialGradient>
<radialGradient id="paint44_radial_9002_31185" cx="0" cy="0" r="1" gradientTransform="matrix(2.76852 0.185014 -0.187126 2.73728 116.367 111.578)" gradientUnits="userSpaceOnUse">
<stop offset="0.024713" stop-color="#AE771D"/>
<stop offset="1" stop-color="#DAA73F"/>
</radialGradient>
<radialGradient id="paint45_radial_9002_31185" cx="0" cy="0" r="1" gradientTransform="matrix(1.49855 0.100144 -0.101288 1.48163 132.817 107.449)" gradientUnits="userSpaceOnUse">
<stop offset="0.024713" stop-color="#AE771D"/>
<stop offset="1" stop-color="#DAA73F"/>
</radialGradient>
<radialGradient id="paint46_radial_9002_31185" cx="0" cy="0" r="1" gradientTransform="matrix(1.49731 0.100062 -0.101204 1.48042 123.193 124.928)" gradientUnits="userSpaceOnUse">
<stop offset="0.024713" stop-color="#AE771D"/>
<stop offset="1" stop-color="#DAA73F"/>
</radialGradient>
<radialGradient id="paint47_radial_9002_31185" cx="0" cy="0" r="1" gradientTransform="matrix(1.50047 0.100273 -0.101418 1.48354 108.933 115.062)" gradientUnits="userSpaceOnUse">
<stop offset="0.024713" stop-color="#AE771D"/>
<stop offset="1" stop-color="#DAA73F"/>
</radialGradient>
<radialGradient id="paint48_radial_9002_31185" cx="0" cy="0" r="1" gradientTransform="matrix(1.49927 0.100192 -0.101336 1.48234 116.196 85.9136)" gradientUnits="userSpaceOnUse">
<stop offset="0.024713" stop-color="#AE771D"/>
<stop offset="1" stop-color="#DAA73F"/>
</radialGradient>
</defs>
</svg>
