<svg width="200" height="200" viewBox="0 0 200 200" fill="none" xmlns="http://www.w3.org/2000/svg">
<path d="M183 110.571C183 110.793 183 110.793 183 111.014L182.776 111.235C181.882 111.678 180.763 111.678 179.868 111.457C178.079 110.793 176.513 109.685 174.947 108.578C168.907 103.928 167.789 103.485 163.091 102.6C160.407 101.935 157.499 101.714 154.815 102.157C152.13 102.6 149.446 103.707 147.433 105.921C146.762 106.807 145.419 107.914 144.748 107.028C144.525 106.807 144.301 106.364 144.301 105.921C143.63 100.828 138.932 95.7354 138.709 90.6426C139.38 92.8569 145.419 94.4069 147.656 95.2926C149.893 96.1783 152.13 96.1783 154.591 96.3997C158.841 96.6211 163.315 96.6212 167.341 97.7283C171.592 98.8354 175.618 100.607 178.302 103.928C179.197 105.035 182.553 109.021 183 110.571Z" fill="#1A6D0C"/>
<mask id="mask0_9002_25841" style="mask-type:luminance" maskUnits="userSpaceOnUse" x="138" y="90" width="46" height="22">
<path d="M183 110.573C183 110.794 183 110.794 183 111.016L182.776 111.237C181.882 111.68 180.763 111.68 179.868 111.459C178.079 110.795 176.513 109.687 174.947 108.58C168.907 103.93 167.789 103.487 163.091 102.602C160.407 101.937 157.499 101.716 154.815 102.159C152.13 102.602 149.446 103.709 147.433 105.923C146.762 106.809 145.42 107.916 144.749 107.03C144.525 106.809 144.301 106.366 144.301 105.923C143.63 100.83 138.932 95.7374 138.709 90.6445C139.38 92.8588 145.42 94.4088 147.656 95.2945C149.893 96.1802 152.13 96.1802 154.591 96.4017C158.841 96.6231 163.315 96.6231 167.342 97.7302C171.592 98.8374 175.618 100.609 178.303 103.93C179.197 105.037 182.553 109.023 183 110.573Z" fill="white"/>
</mask>
<g mask="url(#mask0_9002_25841)">
<g opacity="0.57">
<path d="M184.79 112.344C191.053 106.366 175.171 94.63 170.697 92.6372C165.776 90.4229 159.96 89.7585 154.591 89.5371C152.578 89.3157 150.565 89.3157 148.551 88.6514C146.314 87.9871 144.972 86.4371 142.959 85.5514C139.156 84.0014 135.353 88.2085 136.248 91.7514C138.261 100.83 151.236 98.8371 158.17 99.0585C163.986 99.28 168.236 99.7228 172.934 103.044C174.947 104.373 176.737 106.144 178.526 107.694C180.092 109.023 181.211 111.016 182.776 112.344C183.671 112.787 184.342 112.787 184.79 112.344Z" fill="#26950A"/>
</g>
</g>
<path d="M145.419 108.8C145.643 106.586 145.867 104.593 145.643 102.379C145.419 96.4 142.735 89.9786 137.366 86.8786C133.787 84.6643 129.313 84.4429 125.287 84.2214C109.405 83.7786 93.2987 87.3215 77.4164 85.9929C73.1663 85.55 68.9161 84.8857 64.6659 84.4429C59.7447 84 55.0471 84 50.1258 84C40.0596 84 29.9934 84 19.9271 84C18.585 84 16.7954 84.6643 17.0191 85.9929C17.2428 86.4358 17.6902 86.8786 18.1376 87.1C34.0198 97.95 51.9153 106.143 70.7056 110.793C81.8903 113.671 111.642 115.664 119.695 115.886C127.3 116.107 135.129 116.328 142.064 113.229C142.959 112.786 143.854 112.343 144.525 111.457C145.196 110.793 145.196 109.686 145.419 108.8Z" fill="url(#paint0_linear_9002_25841)"/>
<mask id="mask1_9002_25841" style="mask-type:luminance" maskUnits="userSpaceOnUse" x="17" y="84" width="129" height="32">
<path d="M145.419 108.8C145.643 106.586 145.867 104.593 145.643 102.379C145.419 96.4 142.735 89.9786 137.366 86.8786C133.787 84.6643 129.313 84.4429 125.287 84.2214C109.405 83.7786 93.2987 87.3215 77.4164 85.9929C73.1663 85.55 68.9161 84.8857 64.6659 84.4429C59.7447 84 55.0471 84 50.1258 84C40.0596 84 29.9934 84 19.9271 84C18.585 84 16.7954 84.6643 17.0191 85.9929C17.2428 86.4358 17.6902 86.8786 18.1376 87.1C34.0198 97.95 51.9153 106.143 70.7056 110.793C81.8903 113.671 111.642 115.664 119.695 115.886C127.3 116.107 135.129 116.328 142.064 113.229C142.959 112.786 143.854 112.343 144.525 111.457C145.196 110.793 145.196 109.686 145.419 108.8Z" fill="white"/>
</mask>
<g mask="url(#mask1_9002_25841)">
<g opacity="0.19">
<path d="M16.1243 77.5779C14.3347 81.785 18.8086 85.5493 21.7166 87.985C23.2825 89.0921 25.7431 89.9778 27.5327 90.6421C30.8881 91.9707 34.0198 93.2993 37.3752 94.6278C51.2442 99.7207 66.2317 101.714 80.9955 102.156C95.0882 102.378 108.734 98.6135 122.603 97.9492C125.734 97.7278 128.866 97.7278 131.998 97.9492C134.235 98.1707 136.472 98.8349 137.366 99.4992C138.932 100.828 140.498 101.492 141.617 103.706C142.959 106.142 144.301 109.906 143.854 114.999C143.406 119.206 153.92 115.221 156.38 111.013C163.315 98.8349 151.012 84.2207 139.156 81.3422C132.221 79.5707 125.063 80.235 118.129 80.8993C110.299 81.5636 102.694 82.8921 94.8646 83.9993C80.9955 85.9921 66.2317 84.4421 52.8101 81.1207C45.4282 79.3493 38.4937 76.4707 30.8881 75.3636C28.8749 75.1422 25.9668 75.1422 23.9536 75.3636C23.0588 75.585 21.9404 75.8065 21.0456 76.0279C21.493 76.0279 19.4797 76.0279 20.3745 76.2493C18.5849 74.9207 16.7954 75.8064 16.1243 77.5779Z" fill="#D9412C"/>
</g>
</g>
<mask id="mask2_9002_25841" style="mask-type:luminance" maskUnits="userSpaceOnUse" x="17" y="84" width="129" height="32">
<path d="M145.419 108.8C145.643 106.586 145.867 104.593 145.643 102.379C145.419 96.4 142.735 89.9786 137.366 86.8786C133.787 84.6643 129.313 84.4429 125.287 84.2214C109.405 83.7786 93.2987 87.3215 77.4164 85.9929C73.1663 85.55 68.9161 84.8857 64.6659 84.4429C59.7447 84 55.0471 84 50.1258 84C40.0596 84 29.9934 84 19.9271 84C18.585 84 16.7954 84.6643 17.0191 85.9929C17.2428 86.4358 17.6902 86.8786 18.1376 87.1C34.0198 97.95 51.9153 106.143 70.7056 110.793C81.8903 113.671 111.642 115.664 119.695 115.886C127.3 116.107 135.129 116.328 142.064 113.229C142.959 112.786 143.854 112.343 144.525 111.457C145.196 110.793 145.196 109.686 145.419 108.8Z" fill="white"/>
</mask>
<g mask="url(#mask2_9002_25841)">
<g opacity="0.37">
<path d="M10.3083 69.6066C8.51871 74.2566 13.2163 78.4638 16.5717 81.1209C18.1376 82.4495 21.0456 83.3352 23.0588 83.9994C26.6379 85.5494 30.4407 86.8781 34.0198 88.2066C49.4547 93.9637 66.0081 95.9566 82.114 96.3994C97.7726 96.8423 112.76 92.4137 128.195 91.7494C131.55 91.528 135.129 91.528 138.485 91.528C140.946 91.7495 143.406 92.4137 144.301 93.2994C146.09 94.8494 147.656 95.2923 148.998 97.9494C150.341 100.607 151.907 104.814 151.459 110.349C151.012 114.999 162.644 110.571 165.328 105.921C173.157 92.4138 159.288 76.2495 146.314 73.1495C138.709 71.1566 130.656 71.821 123.05 72.4852C114.55 73.1495 106.049 74.6995 97.5489 76.0281C82.3377 78.0209 66.0081 76.6923 51.0206 72.9281C42.9676 70.9352 35.1383 67.6138 26.8616 66.5067C24.6247 66.0638 21.493 66.2852 19.256 66.5067C18.1375 66.7281 17.0191 66.9496 15.9006 67.171C16.348 67.171 14.1111 67.1709 15.0058 67.3924C12.7689 66.7281 10.9793 67.6138 10.3083 69.6066Z" fill="#D9412C"/>
</g>
</g>
<mask id="mask3_9002_25841" style="mask-type:luminance" maskUnits="userSpaceOnUse" x="17" y="84" width="129" height="32">
<path d="M145.419 108.8C145.643 106.586 145.867 104.593 145.643 102.379C145.419 96.4 142.735 89.9786 137.366 86.8786C133.787 84.6643 129.313 84.4429 125.287 84.2214C109.405 83.7786 93.2987 87.3215 77.4164 85.9929C73.1663 85.55 68.9161 84.8857 64.6659 84.4429C59.7447 84 55.0471 84 50.1258 84C40.0596 84 29.9934 84 19.9271 84C18.585 84 16.7954 84.6643 17.0191 85.9929C17.2428 86.4358 17.6902 86.8786 18.1376 87.1C34.0198 97.95 51.9153 106.143 70.7056 110.793C81.8903 113.671 111.642 115.664 119.695 115.886C127.3 116.107 135.129 116.328 142.064 113.229C142.959 112.786 143.854 112.343 144.525 111.457C145.196 110.793 145.196 109.686 145.419 108.8Z" fill="white"/>
</mask>
<g mask="url(#mask3_9002_25841)">
<g opacity="0.37">
<path d="M8.74241 63.8508C6.95286 68.5008 11.6504 72.7079 15.0058 75.365C16.5717 76.6936 19.4797 77.5794 21.4929 78.2437C25.072 79.7936 28.8748 81.1222 32.4539 82.4508C47.8888 88.2079 64.4421 90.2007 80.5481 90.6436C96.2067 91.0864 111.194 86.6579 126.629 85.9936C129.984 85.7722 133.564 85.7722 136.919 85.7722C139.38 85.9936 141.84 86.6579 142.735 87.5436C144.525 89.0936 146.09 89.5364 147.433 92.1936C148.775 94.8507 150.341 99.0579 149.893 104.594C149.446 109.244 161.078 104.815 163.762 100.165C171.592 86.6579 157.723 70.4936 144.748 67.3936C137.143 65.4008 129.09 66.0651 121.484 66.7294C112.984 67.3937 104.483 68.9437 95.983 70.2722C80.7718 72.2651 64.4421 70.9365 49.4547 67.1723C41.4017 65.1794 33.5724 61.8579 25.2957 60.7508C23.0588 60.3079 19.9271 60.5294 17.6902 60.7508C16.5717 60.9722 15.4532 61.1937 14.3348 61.4151C14.7821 61.4151 12.5451 61.4151 13.4399 61.6366C11.4267 60.9723 9.63718 61.858 8.74241 63.8508Z" fill="#D9412C"/>
</g>
</g>
<g opacity="0.6" style="mix-blend-mode:soft-light">
<path d="M72.0479 100.829C74.5085 102.822 77.1928 103.929 80.3246 103.265C82.7852 102.822 83.0088 99.0576 80.5482 98.3934C77.8639 97.7291 75.4032 98.3934 72.7189 98.6148C71.8241 99.0576 71.3768 100.165 72.0479 100.829Z" fill="#E87C79"/>
</g>
<g opacity="0.6" style="mix-blend-mode:soft-light">
<path d="M76.0742 96.4001C77.8638 97.0644 79.6534 97.9501 81.4429 97.7287C82.3377 97.7287 82.7851 97.2858 83.2325 96.6215C83.4562 96.4001 83.4562 95.9573 83.2325 95.7358C83.0088 94.8501 82.3377 94.6287 81.6666 94.4073C79.877 94.1858 77.8638 94.8501 76.2979 95.293C75.4032 95.0715 75.4032 95.9572 76.0742 96.4001Z" fill="#E87C79"/>
</g>
<g opacity="0.6" style="mix-blend-mode:soft-light">
<path d="M70.0346 106.364C80.5482 111.014 91.7329 112.343 103.141 112.564C108.957 112.564 114.55 112.343 120.366 112.121C125.063 111.9 131.774 112.343 135.801 109.686C139.156 107.471 138.038 103.043 134.235 102.378C131.998 101.936 129.985 102.6 127.748 103.043C125.063 103.486 122.379 103.486 119.695 103.928C114.326 104.593 108.957 105.036 103.589 105.478C92.6277 106.143 81.2193 106.586 70.2583 105.478C69.5873 105.036 69.5872 106.143 70.0346 106.364Z" fill="#E87C79"/>
</g>
<g opacity="0.6" style="mix-blend-mode:soft-light">
<path d="M28.2038 89.0933C28.6512 93.7433 35.362 95.0718 39.1648 96.6218C42.9676 98.1718 46.5467 99.9432 50.1258 101.493C53.4812 103.043 57.284 104.815 61.0868 105.479C65.1133 106.143 66.2318 100.608 61.9816 99.9432C59.0736 99.5004 55.7182 97.9504 53.0338 96.8432C49.6784 95.7361 46.5467 94.1861 43.1913 93.0789C40.507 92.1932 38.0463 91.0861 35.1383 90.4219C33.1251 89.979 30.4408 89.5361 28.6512 88.6504C28.2038 88.6504 28.2038 88.8718 28.2038 89.0933Z" fill="#E87C79"/>
</g>
<g opacity="0.4" style="mix-blend-mode:soft-light">
<path d="M117.905 109.021C119.918 110.35 123.274 110.129 125.511 109.907C127.3 109.464 129.985 109.464 131.327 108.136C133.116 106.364 131.103 103.707 128.866 104.593C127.076 105.257 125.511 105.7 123.721 106.364C121.932 107.029 118.576 106.586 117.681 108.8C117.681 108.8 117.681 108.8 117.905 109.021Z" fill="white"/>
</g>
<g opacity="0.4" style="mix-blend-mode:soft-light">
<path d="M75.8506 103.485C76.0743 103.706 76.0742 103.928 76.2979 104.149C76.5216 104.371 76.7453 104.592 76.7453 104.814C76.7453 104.592 76.5216 104.149 76.5216 103.928C76.5216 104.814 77.1927 105.478 78.3111 105.256C78.5348 105.256 78.5349 105.256 78.7586 105.035C79.206 104.814 79.4296 104.371 79.4296 103.928C79.4296 103.485 79.4297 103.485 79.206 103.264C78.9823 102.599 77.8638 102.378 77.1927 102.599C77.1927 102.599 77.1927 102.599 76.969 102.599C77.1927 102.599 77.4164 102.599 77.6401 102.378C77.4164 102.378 77.1927 102.378 76.7453 102.378C76.5216 102.378 76.298 102.599 75.8506 102.599C75.6269 102.821 75.6269 103.264 75.8506 103.485Z" fill="white"/>
</g>
<path d="M153.025 99.7219C151.012 99.9434 148.775 99.9433 146.985 100.608C146.762 100.608 146.762 101.05 146.985 100.829C148.999 100.829 151.012 100.386 153.025 99.7219Z" fill="#3CA32B"/>
<path d="M150.564 101.492C148.999 101.935 147.656 102.821 146.314 103.485C146.091 103.485 146.314 103.706 146.314 103.706C147.88 103.264 149.222 101.935 150.564 101.492C150.788 101.492 150.788 101.492 150.564 101.492Z" fill="#3CA32B"/>
<path d="M165.552 101.05C162.42 100.165 159.288 99.7217 155.933 99.9431C155.709 99.9431 155.709 100.165 155.933 100.165C159.288 100.607 162.42 100.829 165.552 101.05Z" fill="#3CA32B"/>
<path d="M176.513 107.47C175.618 105.477 172.934 104.813 171.144 103.927C170.92 103.706 170.697 104.149 170.921 104.37C172.486 105.477 174.947 105.699 176.513 107.47Z" fill="#3CA32B"/>
<path d="M169.355 102.378C168.907 102.157 168.46 101.935 168.012 101.714C168.012 101.714 167.789 101.714 168.012 101.935C168.46 102.157 168.907 102.157 169.355 102.378Z" fill="#3CA32B"/>
<path d="M154.591 100.608C153.92 100.608 153.249 100.829 152.578 100.829C152.354 100.829 152.354 101.272 152.578 101.272C153.249 101.272 153.92 101.272 154.591 100.829C155.038 100.829 154.815 100.386 154.591 100.608Z" fill="#3CA32B"/>
<defs>
<linearGradient id="paint0_linear_9002_25841" x1="118.851" y1="83.6155" x2="117.586" y2="116.001" gradientUnits="userSpaceOnUse">
<stop stop-color="#F12510"/>
<stop offset="0.325" stop-color="#FC3C28"/>
<stop offset="0.7" stop-color="#BF1E0D"/>
<stop offset="1" stop-color="#D62F1D"/>
</linearGradient>
</defs>
</svg>
