<svg width="200" height="200" viewBox="0 0 200 200" fill="none" xmlns="http://www.w3.org/2000/svg">
<path d="M98.1867 178.142L72.7203 173.752C68.1673 173.752 64.4631 174.445 64.4631 169.9V103.04C64.4631 101.269 65.0033 99.497 66.0065 97.9564L71.7943 89.1753V53.9736C65.312 46.81 71.7943 38.7221 71.7943 38.7221V31.4814H98.1867H101.582H127.897V38.7221C127.897 38.7221 134.38 46.81 127.897 53.9736V89.2523L133.685 98.0334C134.688 99.497 135.229 101.269 135.229 103.117V169.977C135.229 174.522 131.524 173.829 126.971 173.829L101.505 178.219H98.1867V178.142Z" fill="#F7E1D5"/>
<path d="M98.1866 178.681H98.1094L72.6431 174.291C72.1801 174.291 71.6399 174.291 71.1769 174.291C68.6302 174.368 66.3923 174.368 65.0804 173.135C64.3859 172.442 64 171.364 64 169.9V103.04C64 101.114 64.5402 99.2657 65.6206 97.7251L71.3312 89.098V54.2044C65.3891 47.426 70.4823 39.7232 71.3312 38.5678V31.019H128.515V38.5678C129.364 39.7232 134.457 47.426 128.515 54.2044V89.098L134.225 97.7251C135.306 99.3427 135.846 101.191 135.846 103.04V169.9C135.846 171.364 135.46 172.442 134.766 173.135C133.454 174.368 131.216 174.368 128.669 174.291C128.129 174.291 127.589 174.291 127.048 174.291L101.736 178.681H98.1866ZM98.1866 177.603H101.582L126.894 173.212C127.511 173.212 128.052 173.212 128.592 173.212C130.907 173.289 132.913 173.289 133.917 172.365C134.457 171.826 134.688 171.056 134.688 169.9V103.04C134.688 101.345 134.225 99.7278 133.222 98.2643L127.357 89.4061V53.8193L127.511 53.6652C133.608 46.9638 127.743 39.4151 127.511 39.107L127.357 38.9529V32.0974H72.3344V38.9529L72.1801 39.107C71.9486 39.4151 66.0836 46.9638 72.1801 53.6652L72.3344 53.8193V89.4061L66.4695 98.2643C65.5434 99.6508 65.0032 101.345 65.0032 103.04V169.9C65.0032 171.056 65.2347 171.826 65.7749 172.365C66.7781 173.289 68.7846 173.289 71.0997 173.212C71.6399 173.212 72.1801 173.212 72.7203 173.212L98.1866 177.603Z" fill="url(#paint0_linear_2006_74519)"/>
<g opacity="0.2" style="mix-blend-mode:overlay">
<path d="M71.0225 98.0337C71.0225 98.0337 72.8746 69.8415 80.8232 55.3603C80.9775 55.0522 75.2669 45.4237 99.8844 45.4237C127.666 44.8845 120.257 55.3603 120.257 55.3603C127.897 70.0726 129.441 98.5729 129.441 98.5729L100.039 120.064L71.0225 98.0337Z" fill="url(#paint1_linear_2006_74519)"/>
</g>
<g opacity="0.2" style="mix-blend-mode:overlay">
<path d="M73.4146 39.4149C73.4146 39.4149 75.0352 36.4879 100.193 36.4879C125.35 36.4879 126.199 39.4149 126.199 39.4149V31.6351L72.7201 31.5581L73.4146 39.4149Z" fill="url(#paint2_linear_2006_74519)"/>
</g>
<path d="M99.8843 33.7152C114.503 33.7152 126.354 32.4737 126.354 30.9422C126.354 29.4107 114.503 28.1692 99.8843 28.1692C85.2656 28.1692 73.4148 29.4107 73.4148 30.9422C73.4148 32.4737 85.2656 33.7152 99.8843 33.7152Z" fill="#F9E8D4"/>
<path d="M99.8844 28.1692C114.547 28.1692 126.354 29.4017 126.354 30.9422C126.354 32.4828 114.47 33.7152 99.8844 33.7152C85.222 33.7152 73.4149 32.4828 73.4149 30.9422C73.4149 29.4017 85.222 28.1692 99.8844 28.1692ZM99.8844 26.0125C92.7075 26.0125 85.9937 26.3206 80.9004 26.8598C73.492 27.63 71.2541 28.6314 71.2541 30.9422C71.2541 33.3301 73.492 34.2544 80.9004 35.0247C85.9937 35.5639 92.7075 35.872 99.8844 35.872C107.061 35.872 113.775 35.5639 118.868 35.0247C126.277 34.2544 128.515 33.2531 128.515 30.9422C128.515 28.5544 126.277 27.63 118.868 26.8598C113.775 26.3206 106.984 26.0125 99.8844 26.0125Z" fill="url(#paint3_linear_2006_74519)"/>
<path opacity="0.36" d="M88.849 64.4493C81.2863 63.679 77.1191 71.0737 78.1995 75.1562C79.2799 79.2387 81.9808 73.6156 86.3796 72.7683C91.0098 71.767 93.8651 64.9115 88.849 64.4493Z" fill="url(#paint4_linear_2006_74519)"/>
<path opacity="0.36" d="M90.778 74.0775C89.389 71.7666 84.6044 77.6207 86.225 79.1613C87.7684 80.5478 93.6333 78.9302 90.778 74.0775Z" fill="url(#paint5_linear_2006_74519)"/>
<path d="M64.6171 169.9C64.6171 174.445 68.6299 176.987 72.8743 178.142L73.1058 178.219C90.6236 184.227 109.685 184.227 127.202 178.142C131.215 176.987 135.46 174.445 135.46 169.9V103.04C135.46 101.269 134.92 99.4969 133.916 97.9563L130.444 92.7184C129.749 91.64 128.823 90.7157 127.897 89.7914C127.82 89.7144 127.666 89.5603 127.588 89.4833C125.813 87.1724 128.129 81.6264 122.958 81.7805C117.788 81.9345 115.627 90.3306 115.627 90.3306C114.624 87.2495 110.379 86.5562 106.058 89.3292C101.813 92.0252 96.5657 92.3333 84.4499 88.713C77.2731 86.6332 72.5656 89.2522 69.4016 93.0265L68.0897 95.0293C66.7778 97.032 65.6975 99.1117 64.7714 101.346V101.423C64.6942 101.962 64.6171 102.501 64.6171 103.117V169.9Z" fill="url(#paint6_linear_2006_74519)"/>
<path d="M65.0802 169.9C65.0802 171.749 65.8519 173.443 67.2409 174.676C68.5528 175.908 70.3278 176.756 72.1027 177.372C75.8069 178.527 79.4339 179.683 83.2153 180.453C90.778 181.994 98.4951 182.533 106.135 181.917C109.993 181.608 113.775 181.069 117.556 180.299C121.338 179.529 124.965 178.296 128.592 177.141C130.367 176.448 131.987 175.523 133.222 174.214C133.839 173.52 134.302 172.75 134.611 171.903C134.92 171.056 134.92 170.208 134.92 169.207V157.653L134.997 111.359V105.582V102.732C134.997 101.808 134.765 100.883 134.534 100.036C134.302 99.1116 133.839 98.3414 133.299 97.4941C132.836 96.6468 132.373 95.7994 131.833 95.0292C131.37 94.1819 130.83 93.4116 130.289 92.5643C129.749 91.794 129.055 91.1008 128.36 90.4075C128.051 90.0994 127.666 89.7913 127.434 89.3291C127.203 88.944 127.048 88.4048 126.971 87.9426C126.817 87.0183 126.74 86.0169 126.585 85.0926C126.431 84.1683 126.122 83.1669 125.35 82.6277C124.579 82.0885 123.576 82.0115 122.649 82.1655C121.723 82.2426 120.875 82.7047 120.18 83.3209C119.485 83.9372 118.868 84.6304 118.328 85.4777C117.325 87.0953 116.63 88.8669 116.244 90.7156L115.858 92.6413L115.241 90.7156C114.932 89.8683 114.392 89.098 113.543 88.7129C112.694 88.3277 111.691 88.1737 110.688 88.2507C109.685 88.3278 108.759 88.6359 107.833 89.021C106.907 89.4061 106.058 90.0224 105.055 90.4845C103.125 91.4089 100.965 91.794 98.8809 91.794C96.7973 91.794 94.7137 91.4859 92.6301 91.1007C90.5465 90.7156 88.54 90.1764 86.5336 89.5602C84.5272 89.021 82.5207 88.3278 80.4371 88.2507C78.3535 88.0967 76.2699 88.4818 74.3406 89.4061C72.4114 90.2534 70.868 91.717 69.4789 93.2575L68.167 95.2603C67.704 95.9535 67.3181 96.6468 67.0094 97.34C66.3149 98.8035 65.7747 100.267 65.2345 101.731V101.654C65.2345 102.347 65.0802 102.963 65.0802 103.733V105.89V110.204V118.754V135.854V169.9ZM64.1541 169.9V135.623V118.523V109.973V105.659V103.502C64.1541 103.117 64.1541 102.809 64.2313 102.424C64.3085 102.039 64.3085 101.654 64.3856 101.345V101.268C65.0802 99.8049 65.8519 98.4184 66.7779 97.0319C67.6268 95.7224 68.5528 94.3359 69.4017 93.0264C70.7136 91.4089 72.3342 90.0224 74.2635 89.098C76.1156 88.1737 78.2763 87.7886 80.36 87.9426C82.4436 88.0196 84.45 88.6359 86.4564 89.1751C88.4629 89.7142 90.4693 90.1764 92.5529 90.5616C94.5594 90.9467 96.643 91.1778 98.7266 91.1007C100.81 91.1007 102.817 90.6386 104.669 89.7143C105.595 89.2521 106.366 88.6359 107.37 88.1737C108.373 87.7115 109.376 87.3264 110.457 87.2494C111.537 87.0953 112.694 87.1723 113.775 87.6345C114.855 88.0967 115.704 89.021 116.167 90.0994H115.164C115.858 88.1737 116.63 86.4021 117.788 84.7845C118.328 84.0142 119.022 83.2439 119.871 82.6277C120.643 82.0115 121.646 81.5493 122.649 81.5493C123.653 81.4723 124.656 81.5493 125.505 82.1655C126.354 82.7817 126.585 83.7831 126.74 84.7845C126.894 85.7088 126.894 86.7102 127.048 87.6345C127.125 88.0967 127.28 88.5588 127.511 89.021C127.743 89.4832 128.129 89.7913 128.437 90.0994C129.132 90.7926 129.749 91.4859 130.289 92.3332C130.83 93.1035 131.37 93.9508 131.91 94.7211C132.45 95.4913 133.068 96.2616 133.608 97.0319C134.225 97.8022 134.765 98.5724 135.228 99.4968C135.614 100.421 135.846 101.422 135.923 102.424C136 103.425 135.923 104.35 135.923 105.351V111.128L136 157.422V168.976C136 169.9 136 171.056 135.614 171.98C135.305 172.981 134.765 173.906 134.071 174.676C132.682 176.216 130.907 177.218 129.055 177.911C125.35 179.144 121.646 180.376 117.865 181.146C114.084 181.994 110.225 182.533 106.289 182.764C98.4951 183.38 90.7008 182.764 83.0609 181.223C79.2796 180.453 75.4982 179.298 71.8712 178.065C70.0191 177.449 68.167 176.525 66.7007 175.138C65.0802 173.983 64.1541 171.98 64.1541 169.9Z" fill="url(#paint7_linear_2006_74519)"/>
<path d="M130.598 93.7966C130.598 93.7966 138.007 104.581 116.09 102.116C94.2509 99.7278 92.3988 102.039 94.9454 105.505C97.4921 109.048 89.4663 111.59 84.0644 104.581C78.6624 97.571 75.0354 94.0277 72.8746 97.8791C70.7138 101.73 67.164 105.813 65.0804 101.422C65.0804 101.422 64.5402 102.501 64.6173 105.274C64.6945 108.047 64.6173 166.28 100.039 167.204C136.232 168.205 136.926 109.972 135.074 100.729C134.534 97.8791 131.833 95.5683 130.598 93.7966Z" fill="url(#paint8_linear_2006_74519)"/>
<g opacity="0.2" style="mix-blend-mode:overlay">
<path d="M70.1735 46.4246C70.1735 46.4246 71.4083 48.4273 100.193 48.4273C128.978 48.4273 129.441 46.4246 129.441 46.4246C129.441 46.4246 129.749 52.2787 126.122 53.8963C126.122 53.8963 123.653 55.6679 99.8071 55.6679C75.9613 55.6679 73.4147 53.8963 73.4147 53.8963C73.4147 53.8963 71.0224 53.28 70.1735 46.4246Z" fill="url(#paint9_linear_2006_74519)"/>
</g>
<g opacity="0.2" style="mix-blend-mode:overlay">
<path d="M70.1735 46.887C70.1735 46.887 71.3311 42.9586 100.116 42.9586C128.823 42.9586 129.518 46.887 129.518 46.887C129.518 46.887 129.826 41.0329 126.199 39.4153C126.199 39.4153 123.73 41.418 99.8842 41.418C76.0385 41.418 73.4919 39.4153 73.4919 39.4153C73.4919 39.4153 71.0224 39.9545 70.1735 46.887Z" fill="url(#paint10_linear_2006_74519)"/>
</g>
<g opacity="0.1" style="mix-blend-mode:overlay">
<path d="M66.0064 101.807L73.2605 90.9465C73.2605 90.9465 72.4116 95.4912 90.6239 95.5682C108.836 95.6452 121.492 94.1817 121.492 94.1817C121.492 94.1817 95.4084 103.348 117.325 106.968C117.325 106.968 77.6592 110.281 66.0064 101.807Z" fill="url(#paint11_linear_2006_74519)"/>
</g>
<g opacity="0.2" style="mix-blend-mode:overlay">
<path d="M73.955 39.646C73.955 39.646 77.119 40.8014 77.1961 42.1109C77.2733 43.4204 72.3344 47.4258 77.8907 54.7434V90.4073C77.8907 90.4073 83.2926 82.3194 88.3859 87.4803V55.4367C88.3859 55.4367 84.5273 49.5826 86.3794 46.3474C88.2315 43.1122 103.511 41.3406 103.511 41.3406C103.511 41.3406 79.6656 42.1109 73.955 39.646Z" fill="url(#paint12_linear_2006_74519)"/>
</g>
<path d="M99.8843 19.1568C114.205 19.1568 125.814 18.674 125.814 18.0784C125.814 17.4828 114.205 17 99.8843 17C85.5639 17 73.955 17.4828 73.955 18.0784C73.955 18.674 85.5639 19.1568 99.8843 19.1568Z" fill="#443838"/>
<path d="M99.8842 34.7931C117.444 34.7931 131.679 33.3791 131.679 31.6349C131.679 29.8908 117.444 28.4768 99.8842 28.4768C82.3247 28.4768 68.0899 29.8908 68.0899 31.6349C68.0899 33.3791 82.3247 34.7931 99.8842 34.7931Z" fill="#443838"/>
<path d="M73.9549 18.0781L71.4082 18.5403C69.479 18.9254 68.0899 20.6971 68.0899 22.6228V31.635H131.679V22.6228C131.679 20.62 130.289 18.9254 128.283 18.5403L125.736 18.0781H73.9549Z" fill="#443838"/>
<g opacity="0.1" style="mix-blend-mode:overlay">
<path d="M66.0064 145.174V166.28C66.0064 171.749 70.4823 176.139 75.8843 176.139H96.3345C96.3345 176.139 71.0997 171.749 66.0064 145.174Z" fill="url(#paint13_linear_2006_74519)"/>
</g>
<g opacity="0.1" style="mix-blend-mode:overlay">
<path d="M133.762 145.174V166.28C133.762 171.749 129.287 176.139 123.885 176.139H103.434C103.434 176.139 128.669 171.749 133.762 145.174Z" fill="url(#paint14_linear_2006_74519)"/>
</g>
<path d="M73.1833 22.3918C80.8232 23.2391 101.968 25.0107 125.814 22.3918C127.434 22.2377 128.823 23.4702 128.823 25.1648V30.1716C128.823 31.5581 127.82 32.7135 126.431 32.8676C119.717 33.7919 99.4985 35.7946 72.566 32.7135C71.1769 32.5594 70.0965 31.404 70.0965 29.9405V25.0877C70.1737 23.4702 71.5627 22.1607 73.1833 22.3918Z" fill="url(#paint15_linear_2006_74519)"/>
<g opacity="0.2" style="mix-blend-mode:overlay">
<path d="M99.8843 21.0823C114.205 21.0823 125.814 20.3581 125.814 19.4648C125.814 18.5714 114.205 17.8472 99.8843 17.8472C85.5639 17.8472 73.955 18.5714 73.955 19.4648C73.955 20.3581 85.5639 21.0823 99.8843 21.0823Z" fill="url(#paint16_linear_2006_74519)"/>
</g>
<path d="M88.6945 64.1412C81.5948 62.7547 77.5048 70.1493 78.508 73.7696C79.5112 77.39 82.0578 71.4588 86.3794 71.6129C90.6238 71.7669 93.4019 65.0655 88.6945 64.1412Z" fill="url(#paint17_linear_2006_74519)"/>
<path d="M90.6238 73.9234C89.3891 71.7666 84.836 77.0815 86.2251 78.468C87.6142 79.8545 93.2476 78.468 90.6238 73.9234Z" fill="url(#paint18_linear_2006_74519)"/>
<g opacity="0.2" style="mix-blend-mode:overlay">
<path d="M85.1449 66.8367C85.1449 66.8367 85.2992 64.4489 88.7719 65.1421C92.1674 65.7583 88.7719 69.1476 88.7719 69.1476C88.7719 69.1476 88.5404 66.4516 86.8427 66.6827C85.1449 66.8367 85.1449 66.8367 85.1449 66.8367Z" fill="url(#paint19_linear_2006_74519)"/>
</g>
<g opacity="0.2" style="mix-blend-mode:overlay">
<path d="M87.1513 76.2346C87.1513 76.2346 86.3795 76.2346 88.386 74.3089C90.3924 72.3832 90.0066 75.6184 90.0066 75.6184C90.0066 75.6184 88.7718 74.8481 88.0001 76.0035C87.2284 77.0819 87.1513 76.2346 87.1513 76.2346Z" fill="url(#paint20_linear_2006_74519)"/>
</g>
<g opacity="0.1" style="mix-blend-mode:overlay">
<path d="M72.6429 93.0264C72.6429 93.0264 79.434 87.6345 85.9163 90.4845C92.4758 93.3345 98.881 97.263 107.37 90.4845C115.936 83.7061 115.318 92.7183 115.318 92.7183C115.318 92.7183 118.019 79.6236 125.659 83.2439C125.659 83.2439 121.338 90.0994 126.277 91.948C131.215 93.7967 135.46 98.6495 127.666 101.808C119.871 104.889 118.559 95.9535 113.929 96.5697C109.376 97.1859 116.862 88.944 106.598 93.7967C96.3343 98.6495 94.4822 95.1062 86.7652 92.5643C79.0481 90.0223 72.6429 93.0264 72.6429 93.0264Z" fill="url(#paint21_linear_2006_74519)"/>
</g>
<g opacity="0.1" style="mix-blend-mode:overlay">
<path d="M73.955 96.6467C73.955 96.6467 76.6559 94.644 83.4469 103.733C90.238 112.823 90.1608 93.9508 73.955 96.6467Z" fill="url(#paint22_linear_2006_74519)"/>
</g>
<g opacity="0.1" style="mix-blend-mode:overlay">
<path d="M94.5596 104.812C94.5596 104.812 91.087 100.96 100.193 101.114C109.299 101.346 112.54 101.731 112.54 101.731C112.54 101.731 109.145 96.9549 104.669 98.2644C100.193 99.5739 100.81 100.883 97.415 100.498C94.0966 100.113 89.312 102.039 94.5596 104.812Z" fill="url(#paint23_linear_2006_74519)"/>
</g>
<path d="M116.476 119.062C117.669 119.062 118.637 117.476 118.637 115.519C118.637 113.562 117.669 111.975 116.476 111.975C115.283 111.975 114.315 113.562 114.315 115.519C114.315 117.476 115.283 119.062 116.476 119.062Z" fill="url(#paint24_linear_2006_74519)"/>
<path d="M121.569 120.063C122.123 120.063 122.573 119.615 122.573 119.062C122.573 118.509 122.123 118.061 121.569 118.061C121.015 118.061 120.566 118.509 120.566 119.062C120.566 119.615 121.015 120.063 121.569 120.063Z" fill="url(#paint25_linear_2006_74519)"/>
<path d="M81.9036 132.233C83.4805 132.233 84.7589 131.268 84.7589 130.077C84.7589 128.886 83.4805 127.92 81.9036 127.92C80.3266 127.92 79.0483 128.886 79.0483 130.077C79.0483 131.268 80.3266 132.233 81.9036 132.233Z" fill="url(#paint26_linear_2006_74519)"/>
<path d="M86.9969 135.469C87.551 135.469 88.0001 135.02 88.0001 134.467C88.0001 133.914 87.551 133.466 86.9969 133.466C86.4429 133.466 85.9937 133.914 85.9937 134.467C85.9937 135.02 86.4429 135.469 86.9969 135.469Z" fill="url(#paint27_linear_2006_74519)"/>
<path d="M77.6593 144.096C78.0429 144.096 78.3539 143.785 78.3539 143.402C78.3539 143.02 78.0429 142.709 77.6593 142.709C77.2757 142.709 76.9648 143.02 76.9648 143.402C76.9648 143.785 77.2757 144.096 77.6593 144.096Z" fill="url(#paint28_linear_2006_74519)"/>
<path d="M111.537 151.644C112.091 151.644 112.54 151.368 112.54 151.028C112.54 150.688 112.091 150.412 111.537 150.412C110.983 150.412 110.534 150.688 110.534 151.028C110.534 151.368 110.983 151.644 111.537 151.644Z" fill="url(#paint29_linear_2006_74519)"/>
<g opacity="0.2" style="mix-blend-mode:overlay">
<path d="M72.7974 31.8661C71.1768 31.2499 70.0964 29.7094 70.0964 28.0148C70.0964 26.7053 70.0964 25.2418 70.0964 25.0107C70.1736 24.6255 70.2508 22.6998 72.7202 22.3917L80.5145 23.085C80.5145 23.085 75.2669 20.9282 78.2765 20.389C78.2765 20.389 70.2508 20.235 73.8778 18.8485C73.8778 18.8485 68.3987 18.6174 68.3987 22.3917C68.3987 26.1661 68.3987 31.327 68.3987 31.327C68.3987 31.327 69.8649 33.1756 81.4405 33.8689C81.5177 33.8689 76.1929 33.0986 72.7974 31.8661Z" fill="url(#paint30_linear_2006_74519)"/>
</g>
<g opacity="0.2" style="mix-blend-mode:overlay">
<path d="M126.662 31.8661C128.283 31.2499 129.363 29.7094 129.363 28.0148C129.363 26.7053 129.363 25.2418 129.363 25.0107C129.286 24.6255 128.823 22.3147 126.354 22.0066C126.354 22.0066 129.132 20.312 125.505 18.8485C125.505 18.8485 130.984 18.6174 130.984 22.3917C130.984 26.1661 130.984 31.327 130.984 31.327C130.984 31.327 123.267 33.0986 126.662 31.8661Z" fill="url(#paint31_linear_2006_74519)"/>
</g>
<path d="M97.3376 133.312C98.418 132.773 99.4212 132.234 100.424 131.695C100.81 131.309 101.119 131.001 101.428 130.539C102.122 129.615 102.817 127.843 101.813 126.919C101.505 126.611 101.042 126.534 100.579 126.534C99.8842 126.765 99.2668 126.919 98.5723 127.073C98.4951 127.073 98.3408 127.15 98.1865 127.15C97.5691 129.23 96.7974 131.309 95.8713 133.312C96.3344 133.389 96.7974 133.389 97.3376 133.312Z" fill="#EFBD54"/>
<path d="M88.6947 132.465C89.312 131.617 89.9294 130 89.2349 129.075L84.1416 132.773C83.8329 133.62 83.4471 134.467 83.0612 135.315C85.222 135.546 87.3828 134.236 88.6947 132.465Z" fill="#EFBD54"/>
<path d="M102.508 123.761C102.894 123.607 103.203 123.452 103.589 123.298C103.743 123.221 104.283 123.067 104.36 122.913C104.437 122.605 104.052 122.451 103.82 122.297C102.662 121.835 101.042 122.143 99.8844 122.374C99.6528 122.451 99.3442 122.528 99.1126 122.528C98.9583 123.375 98.804 124.223 98.5724 124.993C99.0355 124.839 99.5757 124.685 100.039 124.608C100.965 124.377 101.736 124.146 102.508 123.761Z" fill="#EFBD54"/>
<path d="M113.929 120.602C113.929 120.448 114.007 120.294 114.161 120.14C114.238 120.063 114.315 119.986 114.47 119.909C114.007 119.062 113.081 119.293 112.463 119.755C111.537 120.448 110.765 121.373 110.148 122.374C109.453 123.529 108.913 124.762 108.605 126.071C110.611 124.454 112.386 122.605 113.929 120.602Z" fill="#EFBD54"/>
<path d="M106.521 123.838C106.444 123.915 106.29 124.069 106.212 124.146C105.518 124.685 104.746 124.993 103.897 125.378C105.055 126.226 105.209 127.612 104.901 128.921C105.055 128.767 105.209 128.69 105.441 128.536C105.441 128.228 105.518 127.997 105.518 127.689C105.672 126.38 106.058 125.07 106.521 123.838Z" fill="#EFBD54"/>
<path d="M93.2478 134.93C92.7848 134.776 92.4761 134.314 92.7076 133.851C94.1738 130.847 95.2542 127.612 95.9488 124.377C95.7172 124.531 95.4857 124.608 95.1771 124.685L93.8652 125.609C93.7108 125.763 93.5565 125.918 93.4021 126.072C93.0934 126.303 92.7848 126.534 92.3989 126.688L91.3185 127.458C92.7848 128.845 92.3217 131.078 91.3957 132.619C89.1577 136.085 84.5275 138.396 80.5146 136.932C80.0516 136.778 79.7429 136.316 79.9744 135.854C79.9744 135.777 80.0516 135.7 80.0516 135.623L77.1963 137.703C78.5854 138.242 80.0516 138.781 81.595 139.243C85.2992 138.165 89.4664 136.778 93.5565 135.007C93.4793 135.007 93.4021 135.007 93.2478 134.93Z" fill="#EFBD54"/>
<path d="M103.897 120.217C104.9 120.294 106.212 120.602 106.829 121.45C107.061 121.758 107.215 122.143 107.138 122.528C107.678 121.527 108.373 120.525 109.222 119.678C110.379 118.523 111.846 117.444 113.543 117.29C114.392 117.213 115.164 117.444 115.858 117.829C116.09 117.367 116.399 116.982 116.63 116.52C114.238 115.827 111.537 115.287 108.759 114.902L101.273 120.294C102.199 120.14 103.048 120.14 103.897 120.217Z" fill="#EFBD54"/>
<path d="M86.9195 119.986C86.9195 120.063 86.9195 120.063 86.9195 120.14L94.0192 114.363C93.5561 114.363 93.0931 114.44 92.6301 114.517L86.2249 119.216C86.6108 119.293 86.9195 119.524 86.9195 119.986Z" fill="#EFBD54"/>
<path d="M81.5949 124.454L83.8329 122.682C83.91 122.066 83.9872 121.45 84.0644 120.757L68.8618 131.695C69.2476 132.311 69.7878 132.927 70.4052 133.466L81.2862 124.685C81.3634 124.608 81.5177 124.531 81.5949 124.454Z" fill="#EFBD54"/>
<path d="M67.5499 127.92C67.5499 128.382 67.627 128.921 67.7814 129.384L84.5274 115.827C74.4952 118.215 67.5499 122.759 67.5499 127.92Z" fill="#EFBD54"/>
<path d="M66.7781 127.92C66.7781 121.989 74.6495 116.982 85.9936 114.671L87.3827 113.593C74.8039 115.75 66.0064 121.296 66.0064 127.92C66.0064 128.767 66.1607 129.615 66.4694 130.462L67.164 129.923C66.8553 129.307 66.7781 128.613 66.7781 127.92Z" fill="#D33333"/>
<path d="M96.1801 112.669C95.7942 112.669 95.4856 112.669 95.1769 112.746L93.9421 113.67C94.328 113.67 94.7138 113.593 95.1769 113.593L96.1801 112.669Z" fill="#D33333"/>
<path d="M68.1671 132.234L67.4725 132.696C67.9356 133.312 68.4758 134.005 69.0931 134.544L69.7105 134.005C69.1703 133.466 68.6301 132.85 68.1671 132.234Z" fill="#D33333"/>
<path d="M76.4244 138.242L75.6527 138.781C76.5788 139.243 77.582 139.628 78.6624 140.014C79.1254 139.86 79.5884 139.783 80.1286 139.628C78.8167 139.243 77.582 138.781 76.4244 138.242Z" fill="#D33333"/>
<path d="M117.093 115.673C117.248 115.441 117.325 115.133 117.479 114.902C115.396 114.286 113.158 113.824 110.765 113.439L109.839 114.132C112.386 114.517 114.855 114.979 117.093 115.673Z" fill="#D33333"/>
<path d="M68.8619 131.694L68.1674 132.157C68.6304 132.773 69.1706 133.389 69.7108 134.005L70.3281 133.466C69.7879 132.927 69.2477 132.311 68.8619 131.694Z" fill="#D33333"/>
<path d="M77.1961 137.703L76.4244 138.242C77.5819 138.781 78.8167 139.243 80.1286 139.628C80.5916 139.474 81.1318 139.32 81.5948 139.243C80.0514 138.781 78.5852 138.242 77.1961 137.703Z" fill="#D33333"/>
<path d="M67.5499 127.92C67.5499 122.759 74.4953 118.215 84.5275 115.827L85.9937 114.671C74.6496 116.982 66.7782 122.066 66.7782 127.92C66.7782 128.613 66.9325 129.307 67.0869 129.923L67.7814 129.384C67.6271 128.922 67.5499 128.459 67.5499 127.92Z" fill="#D33333"/>
<path d="M108.836 114.826C111.614 115.211 114.315 115.75 116.708 116.443C116.862 116.212 116.939 115.904 117.093 115.673C114.855 115.057 112.386 114.517 109.762 114.132L108.836 114.826Z" fill="#D33333"/>
<path d="M94.0193 114.363L95.0997 113.439C94.7139 113.439 94.328 113.516 93.865 113.516L92.5531 114.44C93.0933 114.44 93.5563 114.44 94.0193 114.363Z" fill="#D33333"/>
<path d="M110.534 131.54C111.305 131.001 112.077 130.308 112.849 129.615C112.772 129.307 112.617 128.998 112.54 128.613C112.309 127.92 113.158 127.458 113.698 127.304C114.006 127.227 114.469 127.227 114.855 127.304C115.087 126.919 115.318 126.611 115.55 126.225C116.322 124.762 116.553 122.143 114.624 121.45C114.161 121.296 114.006 120.911 114.006 120.525C112.463 122.528 110.611 124.3 108.682 125.994C108.527 126.842 108.373 127.689 108.373 128.536C108.373 129.538 108.373 130.77 108.836 131.694C109.222 132.619 109.994 132.003 110.534 131.54Z" fill="#EFBD54"/>
<path opacity="0.1" d="M110.534 131.54C111.305 131.001 112.077 130.308 112.849 129.615C112.772 129.307 112.617 128.998 112.54 128.613C112.309 127.92 113.158 127.458 113.698 127.304C114.006 127.227 114.469 127.227 114.855 127.304C115.087 126.919 115.318 126.611 115.55 126.225C116.322 124.762 116.553 122.143 114.624 121.45C114.161 121.296 114.006 120.911 114.006 120.525C112.463 122.528 110.611 124.3 108.682 125.994C108.527 126.842 108.373 127.689 108.373 128.536C108.373 129.538 108.373 130.77 108.836 131.694C109.222 132.619 109.994 132.003 110.534 131.54Z" fill="url(#paint32_linear_2006_74519)"/>
<path d="M100.424 131.694C99.4213 132.234 98.3409 132.773 97.3376 133.312C98.418 133.081 99.4984 132.465 100.424 131.694Z" fill="#EFBD54"/>
<path opacity="0.1" d="M100.424 131.694C99.4213 132.234 98.3409 132.773 97.3376 133.312C98.418 133.081 99.4984 132.465 100.424 131.694Z" fill="url(#paint33_linear_2006_74519)"/>
<path d="M117.248 119.216C117.402 119.524 117.248 119.832 117.016 120.063C118.019 120.757 118.714 121.835 118.868 123.144C119.1 124.916 118.328 126.534 117.325 127.997C116.862 128.613 116.399 129.23 115.859 129.769C116.399 131.309 116.862 132.927 117.402 134.467C117.634 135.161 116.785 135.623 116.245 135.777C115.704 135.931 114.778 135.854 114.624 135.238C114.238 134.159 113.929 133.081 113.544 132.003C112.463 132.927 111.151 133.928 109.762 134.236C108.064 134.622 106.444 134.005 105.827 132.311C105.441 131.155 105.364 129.846 105.441 128.613C105.286 128.767 105.132 128.844 104.9 128.999C104.746 129.615 104.515 130.231 104.129 130.77C101.968 134.159 97.4921 136.47 93.4792 135.161C89.3892 136.932 85.222 138.319 81.5178 139.397C86.6882 140.938 92.8618 141.862 99.4214 141.862C116.708 141.862 131.37 135.546 131.37 128.074C131.37 123.298 125.428 119.062 116.63 116.52C116.399 116.982 116.167 117.444 115.859 117.829C116.553 118.061 117.016 118.6 117.248 119.216Z" fill="#EFBD54"/>
<path opacity="0.1" d="M117.248 119.216C117.402 119.524 117.248 119.832 117.016 120.063C118.019 120.757 118.714 121.835 118.868 123.144C119.1 124.916 118.328 126.534 117.325 127.997C116.862 128.613 116.399 129.23 115.859 129.769C116.399 131.309 116.862 132.927 117.402 134.467C117.634 135.161 116.785 135.623 116.245 135.777C115.704 135.931 114.778 135.854 114.624 135.238C114.238 134.159 113.929 133.081 113.544 132.003C112.463 132.927 111.151 133.928 109.762 134.236C108.064 134.622 106.444 134.005 105.827 132.311C105.441 131.155 105.364 129.846 105.441 128.613C105.286 128.767 105.132 128.844 104.9 128.999C104.746 129.615 104.515 130.231 104.129 130.77C101.968 134.159 97.4921 136.47 93.4792 135.161C89.3892 136.932 85.222 138.319 81.5178 139.397C86.6882 140.938 92.8618 141.862 99.4214 141.862C116.708 141.862 131.37 135.546 131.37 128.074C131.37 123.298 125.428 119.062 116.63 116.52C116.399 116.982 116.167 117.444 115.859 117.829C116.553 118.061 117.016 118.6 117.248 119.216Z" fill="url(#paint34_linear_2006_74519)"/>
<path d="M117.479 114.902C117.325 115.133 117.248 115.442 117.093 115.673C126.199 118.292 132.219 122.759 132.219 127.997C132.219 136.085 117.556 142.555 99.4984 142.555C92.2443 142.555 85.5305 141.477 80.1285 139.705C79.6655 139.859 79.1253 139.936 78.6623 140.09C84.3729 142.17 91.5498 143.326 99.4984 143.326C118.328 143.326 133.068 136.547 133.068 127.92C133.068 122.374 126.894 117.598 117.479 114.902Z" fill="#D33333"/>
<path opacity="0.1" d="M117.479 114.902C117.325 115.133 117.248 115.442 117.093 115.673C126.199 118.292 132.219 122.759 132.219 127.997C132.219 136.085 117.556 142.555 99.4984 142.555C92.2443 142.555 85.5305 141.477 80.1285 139.705C79.6655 139.859 79.1253 139.936 78.6623 140.09C84.3729 142.17 91.5498 143.326 99.4984 143.326C118.328 143.326 133.068 136.547 133.068 127.92C133.068 122.374 126.894 117.598 117.479 114.902Z" fill="url(#paint35_linear_2006_74519)"/>
<path d="M131.447 127.92C131.447 135.392 116.785 141.708 99.4985 141.708C92.939 141.708 86.7653 140.784 81.5949 139.243C81.0547 139.397 80.5917 139.551 80.1287 139.628C85.5306 141.4 92.2445 142.478 99.4985 142.478C117.556 142.478 132.219 135.931 132.219 127.92C132.219 122.759 126.2 118.214 117.093 115.595C116.939 115.827 116.862 116.135 116.708 116.366C125.505 118.908 131.447 123.144 131.447 127.92Z" fill="#D33333"/>
<path opacity="0.1" d="M131.447 127.92C131.447 135.392 116.785 141.708 99.4985 141.708C92.939 141.708 86.7653 140.784 81.5949 139.243C81.0547 139.397 80.5917 139.551 80.1287 139.628C85.5306 141.4 92.2445 142.478 99.4985 142.478C117.556 142.478 132.219 135.931 132.219 127.92C132.219 122.759 126.2 118.214 117.093 115.595C116.939 115.827 116.862 116.135 116.708 116.366C125.505 118.908 131.447 123.144 131.447 127.92Z" fill="url(#paint36_linear_2006_74519)"/>
<path d="M89.7749 125.686C90.1608 125.532 90.4695 125.378 90.8553 125.224C91.0097 125.147 91.5499 124.993 91.627 124.839C91.7042 124.531 91.3184 124.377 91.0868 124.223C89.9293 123.761 88.3087 124.069 87.1511 124.3C86.9196 124.377 86.6109 124.454 86.3794 124.454C86.2251 125.301 86.0707 126.149 85.8392 126.919C86.3023 126.765 86.8425 126.611 87.3055 126.534C88.2315 126.303 89.0032 126.072 89.7749 125.686Z" fill="#EFBD54"/>
<g opacity="0.5" style="mix-blend-mode:overlay">
<path d="M89.7749 125.686C90.1608 125.532 90.4695 125.378 90.8553 125.224C91.0097 125.147 91.5499 124.993 91.627 124.839C91.7042 124.531 91.3184 124.377 91.0868 124.223C89.9293 123.761 88.3087 124.069 87.1511 124.3C86.9196 124.377 86.6109 124.454 86.3794 124.454C86.2251 125.301 86.0707 126.149 85.8392 126.919C86.3023 126.765 86.8425 126.611 87.3055 126.534C88.2315 126.303 89.0032 126.072 89.7749 125.686Z" fill="#FFF7E9"/>
</g>
<path d="M89.0032 128.844C88.6945 128.536 88.2315 128.459 87.7684 128.459C87.0739 128.69 86.4565 128.844 85.762 128.998C85.6848 128.998 85.5305 129.075 85.3761 129.075C84.9903 130.308 84.6044 131.54 84.1414 132.696L89.2347 128.998C89.1575 128.998 89.0803 128.921 89.0032 128.844Z" fill="#EFBD54"/>
<g opacity="0.5" style="mix-blend-mode:overlay">
<path d="M89.0032 128.844C88.6945 128.536 88.2315 128.459 87.7684 128.459C87.0739 128.69 86.4565 128.844 85.762 128.998C85.6848 128.998 85.5305 129.075 85.3761 129.075C84.9903 130.308 84.6044 131.54 84.1414 132.696L89.2347 128.998C89.1575 128.998 89.0803 128.921 89.0032 128.844Z" fill="#FFF7E9"/>
</g>
<path d="M83.2925 126.302C82.9838 126.456 82.6752 126.611 82.2893 126.611C81.7491 126.688 80.9774 126.456 80.8231 125.84C80.7459 125.378 80.9002 124.993 81.2861 124.685L70.405 133.543C72.0256 135.084 74.4179 136.547 77.196 137.703L80.0514 135.623C81.5176 132.619 82.598 129.538 83.2925 126.302Z" fill="#EFBD54"/>
<g opacity="0.5" style="mix-blend-mode:overlay">
<path d="M83.2925 126.302C82.9838 126.456 82.6752 126.611 82.2893 126.611C81.7491 126.688 80.9774 126.456 80.8231 125.84C80.7459 125.378 80.9002 124.993 81.2861 124.685L70.405 133.543C72.0256 135.084 74.4179 136.547 77.196 137.703L80.0514 135.623C81.5176 132.619 82.598 129.538 83.2925 126.302Z" fill="#FFF7E9"/>
</g>
<path d="M83.7557 123.376C83.7557 123.144 83.8329 122.913 83.8329 122.605L81.595 124.377C82.1352 123.992 82.9069 123.684 83.2927 123.453C83.4471 123.453 83.6014 123.376 83.7557 123.376Z" fill="#EFBD54"/>
<path opacity="0.5" d="M83.7557 123.376C83.7557 123.144 83.8329 122.913 83.8329 122.605L81.595 124.377C82.1352 123.992 82.9069 123.684 83.2927 123.453C83.4471 123.453 83.6014 123.376 83.7557 123.376Z" fill="#FFF7E9"/>
<path d="M94.0193 114.363L86.9196 120.14C86.8424 120.911 86.7652 121.681 86.688 122.451C88.1543 122.143 89.6977 121.989 91.1639 122.143C92.0128 122.22 93.0932 122.451 93.7878 123.067C94.3279 122.374 95.4855 121.912 96.0257 121.681C96.18 121.604 96.3344 121.527 96.4887 121.527C96.6431 120.525 96.7202 119.447 96.7974 118.446C96.8746 117.213 99.7299 116.828 99.6527 118.215C99.5756 118.985 99.4984 119.832 99.4212 120.602C100.039 120.448 100.733 120.371 101.35 120.294L108.836 114.902C105.904 114.517 102.74 114.286 99.4984 114.286C97.6463 114.132 95.7942 114.209 94.0193 114.363Z" fill="#EFBD54"/>
<g opacity="0.5" style="mix-blend-mode:overlay">
<path d="M94.0193 114.363L86.9196 120.14C86.8424 120.911 86.7652 121.681 86.688 122.451C88.1543 122.143 89.6977 121.989 91.1639 122.143C92.0128 122.22 93.0932 122.451 93.7878 123.067C94.3279 122.374 95.4855 121.912 96.0257 121.681C96.18 121.604 96.3344 121.527 96.4887 121.527C96.6431 120.525 96.7202 119.447 96.7974 118.446C96.8746 117.213 99.7299 116.828 99.6527 118.215C99.5756 118.985 99.4984 119.832 99.4212 120.602C100.039 120.448 100.733 120.371 101.35 120.294L108.836 114.902C105.904 114.517 102.74 114.286 99.4984 114.286C97.6463 114.132 95.7942 114.209 94.0193 114.363Z" fill="#FFF7E9"/>
</g>
<path d="M91.1642 127.227C91.2414 127.304 91.3186 127.381 91.3958 127.381L92.4761 126.61C92.0131 126.841 91.6273 127.073 91.1642 127.227Z" fill="#EFBD54"/>
<path opacity="0.5" d="M91.1642 127.227C91.2414 127.304 91.3186 127.381 91.3958 127.381L92.4761 126.61C92.0131 126.841 91.6273 127.073 91.1642 127.227Z" fill="#FFF7E9"/>
<path d="M94.4052 124.608C94.328 124.993 94.1737 125.301 93.865 125.61L95.1769 124.685C95.0997 124.685 95.0225 124.685 94.9454 124.762C94.8682 124.685 94.6367 124.685 94.4052 124.608Z" fill="#EFBD54"/>
<path opacity="0.5" d="M94.4052 124.608C94.328 124.993 94.1737 125.301 93.865 125.61L95.1769 124.685C95.0997 124.685 95.0225 124.685 94.9454 124.762C94.8682 124.685 94.6367 124.685 94.4052 124.608Z" fill="#FFF7E9"/>
<path d="M96.1801 112.669L95.0997 113.516C96.566 113.439 98.0322 113.362 99.4985 113.362C103.125 113.362 106.521 113.593 109.762 114.132L110.688 113.439C107.216 112.9 103.434 112.592 99.4213 112.592C98.4181 112.592 97.2605 112.592 96.1801 112.669Z" fill="#D33333"/>
<g opacity="0.5" style="mix-blend-mode:overlay">
<path d="M96.1801 112.669L95.0997 113.516C96.566 113.439 98.0322 113.362 99.4985 113.362C103.125 113.362 106.521 113.593 109.762 114.132L110.688 113.439C107.216 112.9 103.434 112.592 99.4213 112.592C98.4181 112.592 97.2605 112.592 96.1801 112.669Z" fill="#FFF7E9"/>
</g>
<path d="M69.7879 134.005L69.1705 134.544C70.7911 136.162 73.0291 137.625 75.6529 138.858L76.4246 138.319C73.6464 137.086 71.4085 135.623 69.7879 134.005Z" fill="#D33333"/>
<g opacity="0.5" style="mix-blend-mode:overlay">
<path d="M69.7879 134.005L69.1705 134.544C70.7911 136.162 73.0291 137.625 75.6529 138.858L76.4246 138.319C73.6464 137.086 71.4085 135.623 69.7879 134.005Z" fill="#FFF7E9"/>
</g>
<path d="M99.4985 114.132C102.74 114.132 105.904 114.363 108.836 114.748L109.762 114.055C106.521 113.593 103.048 113.285 99.4985 113.285C98.0322 113.285 96.566 113.362 95.0997 113.439L94.0193 114.363C95.7943 114.209 97.6464 114.132 99.4985 114.132Z" fill="#D33333"/>
<g opacity="0.5" style="mix-blend-mode:overlay">
<path d="M99.4985 114.132C102.74 114.132 105.904 114.363 108.836 114.748L109.762 114.055C106.521 113.593 103.048 113.285 99.4985 113.285C98.0322 113.285 96.566 113.362 95.0997 113.439L94.0193 114.363C95.7943 114.209 97.6464 114.132 99.4985 114.132Z" fill="#FFF7E9"/>
</g>
<path d="M70.4051 133.543L69.7877 134.082C71.4083 135.7 73.7234 137.086 76.4244 138.319L77.1961 137.779C74.418 136.47 72.1028 135.084 70.4051 133.543Z" fill="#D33333"/>
<g opacity="0.5" style="mix-blend-mode:overlay">
<path d="M70.4051 133.543L69.7877 134.082C71.4083 135.7 73.7234 137.086 76.4244 138.319L77.1961 137.779C74.418 136.47 72.1028 135.084 70.4051 133.543Z" fill="#FFF7E9"/>
</g>
<path opacity="0.5" d="M84.0645 120.217C84.0645 120.371 84.0645 120.525 83.9873 120.679L86.1481 119.139C85.3764 118.985 84.1416 119.447 84.0645 120.217Z" fill="#FFF7E9"/>
<path d="M84.0644 120.217C84.1416 119.447 85.2991 118.985 86.148 119.139L92.5532 114.44C89.6978 114.748 86.9969 115.21 84.4502 115.75L67.7814 129.384C68.0129 130.154 68.3216 130.924 68.8618 131.694L84.0644 120.679C84.0644 120.525 84.0644 120.371 84.0644 120.217Z" fill="#EFBD54"/>
<g opacity="0.5" style="mix-blend-mode:overlay">
<path d="M84.0644 120.217C84.1416 119.447 85.2991 118.985 86.148 119.139L92.5532 114.44C89.6978 114.748 86.9969 115.21 84.4502 115.75L67.7814 129.384C68.0129 130.154 68.3216 130.924 68.8618 131.694L84.0644 120.679C84.0644 120.525 84.0644 120.371 84.0644 120.217Z" fill="#FFF7E9"/>
</g>
<path d="M93.9421 113.593L95.1769 112.669C92.4759 112.823 89.8521 113.131 87.3055 113.593L85.9164 114.671C88.463 114.132 91.0868 113.824 93.9421 113.593Z" fill="#D33333"/>
<g opacity="0.5" style="mix-blend-mode:overlay">
<path d="M93.9421 113.593L95.1769 112.669C92.4759 112.823 89.8521 113.131 87.3055 113.593L85.9164 114.671C88.463 114.132 91.0868 113.824 93.9421 113.593Z" fill="#FFF7E9"/>
</g>
<path d="M67.0868 129.923L66.3923 130.462C66.6238 131.232 67.0096 131.926 67.4727 132.619L68.1672 132.157C67.7042 131.463 67.3183 130.693 67.0868 129.923Z" fill="#D33333"/>
<g opacity="0.5" style="mix-blend-mode:overlay">
<path d="M67.0868 129.923L66.3923 130.462C66.6238 131.232 67.0096 131.926 67.4727 132.619L68.1672 132.157C67.7042 131.463 67.3183 130.693 67.0868 129.923Z" fill="#FFF7E9"/>
</g>
<path d="M92.6302 114.517L93.9421 113.593C91.164 113.824 88.463 114.209 85.9935 114.671L84.5273 115.827C87.0739 115.211 89.7749 114.825 92.6302 114.517Z" fill="#D33333"/>
<g opacity="0.5" style="mix-blend-mode:overlay">
<path d="M92.6302 114.517L93.9421 113.593C91.164 113.824 88.463 114.209 85.9935 114.671L84.5273 115.827C87.0739 115.211 89.7749 114.825 92.6302 114.517Z" fill="#FFF7E9"/>
</g>
<path d="M67.7811 129.384L67.0866 129.923C67.3181 130.693 67.704 131.463 68.167 132.157L68.8615 131.694C68.3213 131.001 68.0127 130.154 67.7811 129.384Z" fill="#D33333"/>
<g opacity="0.5" style="mix-blend-mode:overlay">
<path d="M67.7811 129.384L67.0866 129.923C67.3181 130.693 67.704 131.463 68.167 132.157L68.8615 131.694C68.3213 131.001 68.0127 130.154 67.7811 129.384Z" fill="#FFF7E9"/>
</g>
<defs>
<linearGradient id="paint0_linear_2006_74519" x1="99.8629" y1="30.9929" x2="99.8629" y2="178.665" gradientUnits="userSpaceOnUse">
<stop stop-color="#4C311B"/>
<stop offset="0.0456383" stop-color="#715844"/>
<stop offset="0.0953911" stop-color="#927A68"/>
<stop offset="0.1513" stop-color="#B09988"/>
<stop offset="0.2132" stop-color="#C9B3A4"/>
<stop offset="0.2831" stop-color="#DDC8BA"/>
<stop offset="0.3647" stop-color="#ECD8CB"/>
<stop offset="0.4656" stop-color="#F7E3D6"/>
<stop offset="0.6071" stop-color="#FDE9DD"/>
<stop offset="1" stop-color="#FFEBDF"/>
</linearGradient>
<linearGradient id="paint1_linear_2006_74519" x1="100.142" y1="8.7627" x2="100.142" y2="120.515" gradientUnits="userSpaceOnUse">
<stop offset="0.3618" stop-color="#F9B887"/>
<stop offset="0.421" stop-color="#F9C195"/>
<stop offset="0.564" stop-color="#F9D2B0"/>
<stop offset="0.7083" stop-color="#F9DEC4"/>
<stop offset="0.8532" stop-color="#F9E6D0"/>
<stop offset="1" stop-color="#F9E8D4"/>
</linearGradient>
<linearGradient id="paint2_linear_2006_74519" x1="99.4052" y1="39.3996" x2="99.4052" y2="31.5304" gradientUnits="userSpaceOnUse">
<stop stop-color="#F99568"/>
<stop offset="0.1552" stop-color="#FAA47C"/>
<stop offset="0.7316" stop-color="#FED7C3"/>
<stop offset="1" stop-color="#FFEBDF"/>
</linearGradient>
<linearGradient id="paint3_linear_2006_74519" x1="99.8631" y1="26.0383" x2="99.8631" y2="35.9041" gradientUnits="userSpaceOnUse">
<stop stop-color="#4C311B"/>
<stop offset="0.8587" stop-color="#4C311B"/>
<stop offset="1" stop-color="#4C311B"/>
</linearGradient>
<linearGradient id="paint4_linear_2006_74519" x1="84.7606" y1="64.3609" x2="84.7606" y2="76.5601" gradientUnits="userSpaceOnUse">
<stop stop-color="#631D1E"/>
<stop offset="0.2005" stop-color="#652021"/>
<stop offset="0.3468" stop-color="#6C2929"/>
<stop offset="0.476" stop-color="#783937"/>
<stop offset="0.5953" stop-color="#8A504B"/>
<stop offset="0.7078" stop-color="#A06D64"/>
<stop offset="0.8151" stop-color="#BB9083"/>
<stop offset="0.9165" stop-color="#DABAA8"/>
<stop offset="1" stop-color="#F9E2CB"/>
</linearGradient>
<linearGradient id="paint5_linear_2006_74519" x1="88.709" y1="73.5017" x2="88.709" y2="79.6179" gradientUnits="userSpaceOnUse">
<stop stop-color="#631D1E"/>
<stop offset="0.2005" stop-color="#652021"/>
<stop offset="0.3468" stop-color="#6C2929"/>
<stop offset="0.476" stop-color="#783937"/>
<stop offset="0.5953" stop-color="#8A504B"/>
<stop offset="0.7078" stop-color="#A06D64"/>
<stop offset="0.8151" stop-color="#BB9083"/>
<stop offset="0.9165" stop-color="#DABAA8"/>
<stop offset="1" stop-color="#F9E2CB"/>
</linearGradient>
<linearGradient id="paint6_linear_2006_74519" x1="100.033" y1="61.2349" x2="100.033" y2="188.501" gradientUnits="userSpaceOnUse">
<stop stop-color="#2E1D1E"/>
<stop offset="1" stop-color="#6D1D1E"/>
</linearGradient>
<linearGradient id="paint7_linear_2006_74519" x1="100.048" y1="183.19" x2="100.048" y2="81.2232" gradientUnits="userSpaceOnUse">
<stop stop-color="#251D1E"/>
<stop offset="0.3276" stop-color="#3A1D1E"/>
<stop offset="0.7248" stop-color="#4D1D1E"/>
<stop offset="1" stop-color="#541D1E"/>
</linearGradient>
<linearGradient id="paint8_linear_2006_74519" x1="100.156" y1="78.8097" x2="100.156" y2="171.413" gradientUnits="userSpaceOnUse">
<stop stop-color="#1D1D1E"/>
<stop offset="0.2152" stop-color="#221D1E"/>
<stop offset="0.4585" stop-color="#2F1D1E"/>
<stop offset="0.7153" stop-color="#461D1E"/>
<stop offset="0.9801" stop-color="#651D1E"/>
<stop offset="1" stop-color="#681D1E"/>
</linearGradient>
<linearGradient id="paint9_linear_2006_74519" x1="99.7986" y1="55.6402" x2="99.7986" y2="46.395" gradientUnits="userSpaceOnUse">
<stop stop-color="#F99568"/>
<stop offset="0.1552" stop-color="#FAA47C"/>
<stop offset="0.7316" stop-color="#FED7C3"/>
<stop offset="1" stop-color="#FFEBDF"/>
</linearGradient>
<linearGradient id="paint10_linear_2006_74519" x1="99.7987" y1="46.8679" x2="99.7987" y2="39.4" gradientUnits="userSpaceOnUse">
<stop offset="0.302" stop-color="#F9E8D4"/>
<stop offset="0.5356" stop-color="#FAEEDE"/>
<stop offset="0.9366" stop-color="#FEFCFA"/>
<stop offset="1" stop-color="white"/>
</linearGradient>
<linearGradient id="paint11_linear_2006_74519" x1="115.301" y1="110.448" x2="74.5961" y2="86.9036" gradientUnits="userSpaceOnUse">
<stop offset="0.302" stop-color="#F9E8D4"/>
<stop offset="0.5356" stop-color="#FAEEDE"/>
<stop offset="0.9366" stop-color="#FEFCFA"/>
<stop offset="1" stop-color="white"/>
</linearGradient>
<linearGradient id="paint12_linear_2006_74519" x1="88.7091" y1="90.4755" x2="88.7091" y2="39.6488" gradientUnits="userSpaceOnUse">
<stop offset="0.302" stop-color="#F9E8D4"/>
<stop offset="0.5356" stop-color="#FAEEDE"/>
<stop offset="0.9366" stop-color="#FEFCFA"/>
<stop offset="1" stop-color="white"/>
</linearGradient>
<linearGradient id="paint13_linear_2006_74519" x1="96.3722" y1="176.095" x2="60.2165" y2="155.182" gradientUnits="userSpaceOnUse">
<stop offset="0.302" stop-color="#F9E8D4"/>
<stop offset="0.3759" stop-color="#F6DECB"/>
<stop offset="0.5032" stop-color="#EEC2B3"/>
<stop offset="0.6686" stop-color="#E1958C"/>
<stop offset="0.8635" stop-color="#CF5756"/>
<stop offset="1" stop-color="#C1272D"/>
</linearGradient>
<linearGradient id="paint14_linear_2006_74519" x1="103.403" y1="176.095" x2="139.559" y2="155.182" gradientUnits="userSpaceOnUse">
<stop offset="0.302" stop-color="#F9E8D4"/>
<stop offset="0.3759" stop-color="#F6DECB"/>
<stop offset="0.5032" stop-color="#EEC2B3"/>
<stop offset="0.6686" stop-color="#E1958C"/>
<stop offset="0.8635" stop-color="#CF5756"/>
<stop offset="1" stop-color="#C1272D"/>
</linearGradient>
<linearGradient id="paint15_linear_2006_74519" x1="99.5076" y1="22.3486" x2="99.5076" y2="34.3724" gradientUnits="userSpaceOnUse">
<stop stop-color="#20181D"/>
<stop offset="0.0991465" stop-color="#251D21"/>
<stop offset="0.7475" stop-color="#443838"/>
</linearGradient>
<linearGradient id="paint16_linear_2006_74519" x1="99.863" y1="17.8473" x2="99.863" y2="21.1094" gradientUnits="userSpaceOnUse">
<stop stop-color="#7F7070"/>
<stop offset="0.7475" stop-color="#443838"/>
</linearGradient>
<linearGradient id="paint17_linear_2006_74519" x1="84.7604" y1="64.0007" x2="84.7604" y2="75.0074" gradientUnits="userSpaceOnUse">
<stop stop-color="#631D1E"/>
<stop offset="0.2028" stop-color="#652020"/>
<stop offset="0.3509" stop-color="#6D2928"/>
<stop offset="0.4817" stop-color="#793936"/>
<stop offset="0.6024" stop-color="#8B5049"/>
<stop offset="0.7162" stop-color="#A26D62"/>
<stop offset="0.8249" stop-color="#BE9080"/>
<stop offset="0.9275" stop-color="#DEBAA3"/>
<stop offset="1" stop-color="#F9DCC0"/>
</linearGradient>
<linearGradient id="paint18_linear_2006_74519" x1="88.6547" y1="73.4154" x2="88.6547" y2="79.0198" gradientUnits="userSpaceOnUse">
<stop stop-color="#631D1E"/>
<stop offset="0.2028" stop-color="#652020"/>
<stop offset="0.3509" stop-color="#6D2928"/>
<stop offset="0.4817" stop-color="#793936"/>
<stop offset="0.6024" stop-color="#8B5049"/>
<stop offset="0.7162" stop-color="#A26D62"/>
<stop offset="0.8249" stop-color="#BE9080"/>
<stop offset="0.9275" stop-color="#DEBAA3"/>
<stop offset="1" stop-color="#F9DCC0"/>
</linearGradient>
<linearGradient id="paint19_linear_2006_74519" x1="87.7369" y1="69.1438" x2="87.7369" y2="65.0237" gradientUnits="userSpaceOnUse">
<stop offset="0.2364" stop-color="#F9E8D4"/>
<stop offset="0.4919" stop-color="#FAEEDE"/>
<stop offset="0.9306" stop-color="#FEFCFA"/>
<stop offset="1" stop-color="white"/>
</linearGradient>
<linearGradient id="paint20_linear_2006_74519" x1="89.6146" y1="76.0928" x2="87.9098" y2="74.697" gradientUnits="userSpaceOnUse">
<stop offset="0.2364" stop-color="#F9E8D4"/>
<stop offset="0.4919" stop-color="#FAEEDE"/>
<stop offset="0.9306" stop-color="#FEFCFA"/>
<stop offset="1" stop-color="white"/>
</linearGradient>
<linearGradient id="paint21_linear_2006_74519" x1="102.35" y1="102.446" x2="102.35" y2="82.6207" gradientUnits="userSpaceOnUse">
<stop offset="0.3466" stop-color="#F9E8D4"/>
<stop offset="0.682" stop-color="#FCF5EC"/>
<stop offset="1" stop-color="white"/>
</linearGradient>
<linearGradient id="paint22_linear_2006_74519" x1="80.837" y1="106.232" x2="80.837" y2="96.3852" gradientUnits="userSpaceOnUse">
<stop offset="0.3466" stop-color="#F9E8D4"/>
<stop offset="0.682" stop-color="#FCF5EC"/>
<stop offset="1" stop-color="white"/>
</linearGradient>
<linearGradient id="paint23_linear_2006_74519" x1="102.363" y1="104.829" x2="102.363" y2="98.065" gradientUnits="userSpaceOnUse">
<stop offset="0.1783" stop-color="#F9E8D4"/>
<stop offset="0.5111" stop-color="#FCF5EC"/>
<stop offset="0.8267" stop-color="white"/>
</linearGradient>
<linearGradient id="paint24_linear_2006_74519" x1="116.475" y1="119.065" x2="116.475" y2="111.905" gradientUnits="userSpaceOnUse">
<stop stop-color="#4D1D1E"/>
<stop offset="1" stop-color="#4D1D1E"/>
</linearGradient>
<linearGradient id="paint25_linear_2006_74519" x1="121.603" y1="120.045" x2="121.603" y2="118.029" gradientUnits="userSpaceOnUse">
<stop stop-color="#4D1D1E"/>
<stop offset="1" stop-color="#4D1D1E"/>
</linearGradient>
<linearGradient id="paint26_linear_2006_74519" x1="81.9202" y1="132.24" x2="81.9202" y2="127.901" gradientUnits="userSpaceOnUse">
<stop stop-color="#4D1D1E"/>
<stop offset="1" stop-color="#4D1D1E"/>
</linearGradient>
<linearGradient id="paint27_linear_2006_74519" x1="86.9841" y1="135.444" x2="86.9841" y2="133.441" gradientUnits="userSpaceOnUse">
<stop stop-color="#4D1D1E"/>
<stop offset="1" stop-color="#4D1D1E"/>
</linearGradient>
<linearGradient id="paint28_linear_2006_74519" x1="77.6548" y1="144.133" x2="77.6548" y2="142.713" gradientUnits="userSpaceOnUse">
<stop stop-color="#4D1D1E"/>
<stop offset="1" stop-color="#4D1D1E"/>
</linearGradient>
<linearGradient id="paint29_linear_2006_74519" x1="111.522" y1="151.621" x2="111.522" y2="150.398" gradientUnits="userSpaceOnUse">
<stop stop-color="#4D1D1E"/>
<stop offset="1" stop-color="#4D1D1E"/>
</linearGradient>
<linearGradient id="paint30_linear_2006_74519" x1="75.0168" y1="33.8807" x2="75.0168" y2="18.8203" gradientUnits="userSpaceOnUse">
<stop offset="0.5748" stop-color="#F9E8D4"/>
<stop offset="0.7171" stop-color="#FAEEDE"/>
<stop offset="0.9613" stop-color="#FEFCFA"/>
<stop offset="1" stop-color="white"/>
</linearGradient>
<linearGradient id="paint31_linear_2006_74519" x1="128.256" y1="32.2871" x2="128.256" y2="18.8203" gradientUnits="userSpaceOnUse">
<stop offset="0.5748" stop-color="#F9E8D4"/>
<stop offset="0.7171" stop-color="#FAEEDE"/>
<stop offset="0.9613" stop-color="#FEFCFA"/>
<stop offset="1" stop-color="white"/>
</linearGradient>
<linearGradient id="paint32_linear_2006_74519" x1="63.9624" y1="126.41" x2="149.359" y2="126.41" gradientUnits="userSpaceOnUse">
<stop stop-color="#2E1D1E"/>
<stop offset="1" stop-color="#6D1D1E"/>
</linearGradient>
<linearGradient id="paint33_linear_2006_74519" x1="63.9627" y1="132.475" x2="149.359" y2="132.475" gradientUnits="userSpaceOnUse">
<stop stop-color="#2E1D1E"/>
<stop offset="1" stop-color="#6D1D1E"/>
</linearGradient>
<linearGradient id="paint34_linear_2006_74519" x1="63.9626" y1="129.065" x2="149.36" y2="129.065" gradientUnits="userSpaceOnUse">
<stop stop-color="#2E1D1E"/>
<stop offset="1" stop-color="#6D1D1E"/>
</linearGradient>
<linearGradient id="paint35_linear_2006_74519" x1="63.9624" y1="129.104" x2="149.36" y2="129.104" gradientUnits="userSpaceOnUse">
<stop stop-color="#2E1D1E"/>
<stop offset="1" stop-color="#6D1D1E"/>
</linearGradient>
<linearGradient id="paint36_linear_2006_74519" x1="63.9626" y1="129.084" x2="149.359" y2="129.084" gradientUnits="userSpaceOnUse">
<stop stop-color="#2E1D1E"/>
<stop offset="1" stop-color="#6D1D1E"/>
</linearGradient>
</defs>
</svg>
