<svg width="200" height="200" viewBox="0 0 200 200" fill="none" xmlns="http://www.w3.org/2000/svg">
<g clip-path="url(#clip0_8002_14435)">
<path d="M97.5992 82.7725C97.3465 81.4146 95.7459 82.0936 93.1344 83.112C90.5229 84.1304 95.4932 79.5476 93.7241 76.5772C91.955 73.6917 88.2484 80.3114 88.4169 77.8502C88.5854 75.3891 90.0175 71.5701 87.9115 71.3155C85.8054 70.976 86.6478 67.4964 85.1315 68.1754C83.6994 68.9392 84.963 70.7214 83.6994 69.5332C82.4358 68.43 82.3515 66.7326 80.9194 67.4116C79.4873 68.0905 80.6667 70.976 79.5716 69.024C78.4764 67.0721 80.3298 64.7807 78.308 63.6774C76.3704 62.4893 76.7916 65.3748 75.865 67.0721C74.9383 68.7694 75.1068 65.0353 72.4111 66.2234C69.7996 67.4116 73.5062 70.976 71.6529 69.6181C69.7996 68.2602 70.2208 63.8472 68.7887 61.8952C67.3566 59.9433 67.6093 62.3195 66.5985 64.2715C65.6718 66.2234 65.756 62.0649 62.4706 60.1979C59.101 58.3308 60.7016 61.5557 61.1228 64.8656C61.6282 68.1754 60.1961 64.4412 57.2477 63.8472C54.2993 63.2531 55.8156 65.3748 57.0792 67.4116C58.3428 69.4484 55.9841 66.9872 54.1308 67.0721C52.2775 67.2418 54.3835 71.5701 55.9841 73.6917C57.5847 75.8134 55.8998 74.7101 54.3835 74.795C52.8672 74.8799 54.9732 75.4739 55.7314 78.1048C56.5738 80.7357 54.3835 76.8318 51.0981 76.4075C47.8127 75.9831 51.5193 78.1897 51.1823 80.6508C50.8454 83.112 47.6442 77.0864 46.0436 77.341C44.3588 77.5956 45.6224 78.02 46.4648 80.3114C47.3072 82.6028 45.0327 80.1416 43.3479 80.2265C41.6631 80.3114 42.5897 82.6876 44.3588 84.5547C46.0436 86.4218 43.1794 85.4883 42.0843 86.1672C40.9892 86.8461 45.9594 88.0343 47.3915 89.3073C48.8236 90.5803 44.1903 90.5803 44.3588 91.8533C44.5273 93.1263 47.0545 92.7868 48.4024 93.2112C49.666 93.6355 46.886 94.569 46.8018 95.6723C46.7176 96.7756 50.003 95.842 52.5302 95.6723C55.0574 95.5026 54.215 96.9453 51.5193 98.0486C48.9078 99.1519 47.56 101.189 48.4024 102.122C49.329 103.056 54.4677 103.141 56.5738 103.31C58.5955 103.565 55.1417 106.111 55.7314 106.875C56.321 107.639 60.2804 107.044 65.1664 106.45C70.0523 105.771 76.9601 109.93 78.9819 111.797C81.0037 113.664 86.3109 125.546 86.3109 125.546C88.5854 131.147 91.5338 133.947 91.5338 133.947L92.7974 134.202C92.7974 134.202 92.5447 132.335 90.7757 127.073C88.9223 121.811 88.4169 116.719 86.7321 110.1C85.1315 103.48 89.3436 105.008 91.3653 101.358C93.3029 97.7091 90.7757 98.2183 90.7757 98.2183C91.3653 94.569 98.2731 91.0046 98.1889 89.9013C98.1046 88.8829 95.9986 89.9862 95.6616 88.1191C95.3247 86.2521 99.1998 85.7429 99.7894 83.706C100.211 81.9238 97.8519 84.2152 97.5992 82.7725Z" fill="#5E9507"/>
<path d="M71.737 69.6181C69.8837 68.2602 70.3049 63.8472 68.8728 61.8952C67.4407 59.9433 67.6935 62.3195 66.6826 64.2715C65.7559 66.2234 65.8402 62.0649 62.5548 60.1979C59.1851 58.3308 60.7857 61.5557 61.2069 64.8656C61.7123 68.1754 60.2803 64.4412 57.3318 63.8472C55.3943 63.4228 55.3943 64.1866 55.8997 65.3748C55.7312 64.6958 56.0682 64.2715 57.5845 64.611C60.533 65.205 61.8808 68.9392 61.3754 65.6294C60.9542 62.3195 59.3536 59.1795 62.7232 61.0465C66.0086 62.9136 65.9244 66.9872 66.8511 65.1202C67.7777 63.1682 67.525 60.8768 68.9571 62.7439C70.3892 64.6958 70.0522 69.024 71.8213 70.3819C72.5795 70.976 72.3267 70.6365 71.9898 69.9576C71.9898 69.703 71.9055 69.703 71.737 69.6181Z" fill="#528106"/>
<path d="M54.2149 67.0719C53.0356 67.1568 53.4568 68.8541 54.2992 70.7212C53.7095 69.1936 53.541 67.8357 54.5519 67.7509C56.4052 67.5811 58.6797 69.9574 57.5846 68.1752C57.2476 68.2601 55.5628 66.9871 54.2149 67.0719Z" fill="#528106"/>
<path d="M51.3507 80.6502C51.0137 83.1114 47.8126 77.0858 46.212 77.3404C44.5272 77.595 45.7908 78.0193 46.6332 80.3107C47.4756 82.6021 45.2011 80.141 43.5163 80.2259C41.9999 80.3107 42.5896 82.2627 44.0217 83.96C42.9266 82.4324 42.5896 80.8199 43.9375 80.8199C45.6223 80.7351 47.8968 83.1962 47.0544 80.9048C46.212 78.6134 45.0326 78.1891 46.6332 77.9345C48.2338 77.6799 51.4349 83.7054 51.7719 81.2443C51.9404 80.3107 51.4349 79.4621 51.0137 78.6983C51.1822 79.2923 51.4349 79.9713 51.3507 80.6502Z" fill="#528106"/>
<path d="M54.4677 74.7949C53.7096 74.7949 53.878 74.9647 54.2992 75.4739C54.3835 75.389 54.552 75.389 54.7205 75.389C56.0683 75.389 57.5004 76.2377 56.658 74.8798C56.658 75.3041 55.5629 74.7949 54.4677 74.7949Z" fill="#528106"/>
<path d="M55.7313 77.6803C55.8155 77.85 55.8155 78.0198 55.8997 78.1046C56.7422 80.7355 54.5519 76.8316 51.2665 76.4073C49.4974 76.1527 49.7501 76.7467 50.3398 77.6803C50.0871 77.1711 50.2556 76.8316 51.6034 77.0013C54.8888 77.4257 56.9949 81.3296 56.1525 78.6987C55.984 78.2743 55.8155 77.9349 55.7313 77.6803Z" fill="#528106"/>
<path d="M88.5011 77.8502C88.5011 78.0199 88.4168 78.1896 88.4168 78.4442C88.2483 80.9054 91.9549 74.2858 93.724 77.1712C94.061 77.7653 94.1452 78.4443 94.061 79.2081C94.3137 78.3594 94.3137 77.4258 93.8082 76.5772C92.0392 73.6917 88.3326 80.3113 88.5011 77.8502Z" fill="#528106"/>
<path d="M87.9113 71.3153C85.8053 70.9758 86.6477 67.4963 85.1314 68.1752C83.6993 68.939 84.9629 70.7212 83.6993 69.5331C82.4357 68.4298 82.3514 66.7325 80.9193 67.4114C79.4872 68.0904 80.6666 70.9758 79.5715 69.0239C79.403 68.6844 79.3187 68.345 79.2345 68.0055C79.2345 68.5996 79.3187 69.1936 79.5715 69.7028C80.5824 71.6548 79.4872 68.7693 80.9193 68.0904C82.3514 67.4114 82.4357 69.1088 83.6993 70.212C84.9629 71.3153 83.6993 69.5331 85.1314 68.8542C86.5635 68.1752 85.8053 71.6548 87.8271 71.9094C88.838 72.0791 89.0065 73.0127 88.9222 74.2008C89.1749 72.7581 89.0907 71.485 87.9113 71.3153Z" fill="#528106"/>
<path d="M78.3078 63.677C76.3703 62.4889 76.7915 65.3744 75.8649 67.0717C74.9382 68.7691 75.1067 65.0349 72.411 66.2231C71.3158 66.6474 71.3158 67.5809 71.5686 68.3447C71.5686 67.7507 71.8213 67.2415 72.5795 66.902C75.1909 65.7138 75.1067 69.5329 75.9491 67.7507C76.8757 66.0533 76.3703 63.2527 78.3921 64.356C78.9818 64.6954 79.2345 65.2046 79.3187 65.7139C79.3187 64.8652 79.2345 64.1862 78.3078 63.677Z" fill="#528106"/>
<path d="M86.732 110.269C86.395 108.996 86.3108 107.978 86.395 107.214C86.2265 107.978 86.3108 109.081 86.732 110.524C88.3326 117.058 88.9222 122.15 90.6913 127.327C92.3761 132.08 92.6289 134.032 92.7131 134.371H92.7973C92.7973 134.371 92.5446 132.504 90.7756 127.242C88.9222 121.981 88.3326 116.889 86.732 110.269Z" fill="#528106"/>
<path d="M90.6913 98.473C90.6913 98.5578 90.6071 98.7276 90.6071 98.8124C90.6071 98.8124 92.2076 98.473 91.8707 100.17C92.5446 98.1335 90.7755 98.3881 90.6913 98.473Z" fill="#528106"/>
<path d="M47.6441 89.8164C47.8126 90.7499 44.1902 90.8348 44.3587 92.0229C44.4429 92.2775 44.5272 92.5321 44.7799 92.7019C44.7799 92.617 44.6956 92.617 44.6956 92.5321C44.5272 91.2591 49.0762 91.2591 47.7283 89.9861C47.7283 89.8164 47.7283 89.8164 47.6441 89.8164Z" fill="#528106"/>
<path d="M97.5992 82.7726C97.3464 81.4147 95.7459 82.0937 93.1344 83.1121C92.7132 83.2818 92.4605 83.2818 92.3762 83.197C92.1235 83.791 92.2077 83.9608 93.0501 83.7062C95.5774 82.6877 97.2622 82.0088 97.4307 83.3667C97.5992 84.6397 99.8737 82.6029 99.5367 84.3002C99.6209 84.2154 99.6209 84.0456 99.6209 83.9608C100.211 81.9239 97.8519 84.2154 97.5992 82.7726Z" fill="#528106"/>
<path d="M57.2476 103.904C57.3318 104.753 55.2258 106.45 55.7313 107.044C55.8155 107.129 55.8155 107.129 55.984 107.214C55.7313 106.365 58.2585 104.413 57.2476 103.904Z" fill="#528106"/>
<path d="M95.5773 88.3732C95.5773 88.2884 95.5773 88.2035 95.5773 88.1187C95.493 88.3733 95.4088 88.543 95.493 88.8825C95.83 90.6647 97.7675 89.6463 97.936 90.5798C98.0203 90.4101 98.1045 90.3252 98.1045 90.2403C98.0203 89.0522 95.9142 90.1555 95.5773 88.3732Z" fill="#528106"/>
<path d="M48.7392 93.8052C48.4865 94.3144 46.8859 94.9933 46.8016 95.842C46.8016 96.0966 46.8859 96.1815 47.1386 96.2663C47.1386 96.2663 47.1386 96.2663 47.1386 96.1815C47.3071 95.0782 50.087 94.2295 48.7392 93.8052Z" fill="#528106"/>
<path d="M54.0464 96.2661C53.9622 96.7753 53.1197 97.5391 51.6034 98.1332C48.9919 99.2365 47.6441 101.273 48.4865 102.207C48.5707 102.292 48.5707 102.292 48.655 102.377C48.0653 101.358 49.4131 99.5759 51.8561 98.5575C53.8779 97.7089 54.8046 96.6056 54.0464 96.2661Z" fill="#528106"/>
<path d="M42.1685 86.2518C41.9157 86.4215 42 86.6761 42.4212 86.9307C42.4212 86.8459 42.5054 86.8459 42.5897 86.761C43.6006 86.0821 46.4648 86.9307 44.8642 85.2334C45.3696 86.2518 43.0951 85.6577 42.1685 86.2518Z" fill="#528106"/>
<path d="M74.0959 86.3368C73.2535 84.7243 72.4953 83.2815 71.8214 81.7539C70.4735 78.7836 68.4517 75.3889 66.5142 72.3337C64.7451 69.4482 63.2288 66.9871 62.9761 65.8838L62.6391 65.9687C62.8918 67.1568 64.4082 69.7028 66.1772 72.5883C68.0305 75.5586 70.1366 79.0382 71.4002 82.0085C72.0741 83.5361 72.8323 85.0637 73.6747 86.6762C75.9492 91.0893 78.5607 96.0965 79.74 103.65C81.3406 113.834 91.0284 133.608 91.1126 133.777L91.3653 133.608C91.2811 133.438 81.5933 113.664 79.9928 103.565C78.9819 95.8419 76.4546 90.7498 74.0959 86.3368Z" fill="#B1D58B"/>
<path d="M68.873 97.539C61.9652 98.3877 58.0059 97.7088 57.9216 97.6239L57.8374 97.9634C57.8374 97.9634 61.7967 98.6423 68.873 97.8785C75.4438 97.1147 79.9086 103.904 79.9928 103.989L80.2455 103.819C80.2455 103.734 75.6123 96.7752 68.873 97.539Z" fill="#B1D58B"/>
<path d="M86.5636 89.8163C82.2673 92.4472 78.9819 98.7273 78.8976 98.8122L79.1504 98.9819C79.1504 98.8971 82.4358 92.7018 86.6478 90.1558C90.8599 87.5249 92.292 86.0821 92.3762 85.9973L92.292 85.7427C92.292 85.7427 90.7756 87.1854 86.5636 89.8163Z" fill="#B1D58B"/>
<path d="M72.8323 84.2993C72.6638 84.2993 71.6529 84.0447 67.1881 81.8382C60.1961 78.4435 57.8374 77.2554 57.7531 77.2554L57.5847 77.51C57.5847 77.51 60.0276 78.783 67.0197 82.0928C71.8214 84.4691 72.7481 84.6388 73.0008 84.5539C73.085 84.5539 73.085 84.4691 73.085 84.4691C73.1693 84.3842 73.085 84.2145 73.0008 84.1296L72.8323 84.2993Z" fill="#B1D58B"/>
<path d="M79.4874 74.2006L79.1504 74.1157C79.0662 74.3703 79.2347 75.1341 79.4874 76.6617C79.8244 78.7834 80.414 81.9235 80.414 84.3846C80.4983 88.2037 76.1177 90.6648 76.0335 90.6648L76.202 90.9194C76.3705 90.8345 80.751 88.3734 80.751 84.3846C80.751 81.8386 80.1613 78.6985 79.8244 76.5769C79.6559 75.4736 79.4874 74.4552 79.4874 74.2006Z" fill="#B1D58B"/>
<path d="M69.3783 66.9863L69.0414 67.0712C69.0414 67.0712 69.4626 69.1929 69.6311 72.5876C69.8838 75.9822 70.305 79.2921 70.305 79.2921L70.642 79.2072C70.642 79.2072 70.1365 75.8974 69.968 72.5027C69.7996 69.1929 69.3783 66.9863 69.3783 66.9863Z" fill="#B1D58B"/>
<path d="M67.0197 89.3916C62.5549 84.5542 55.6471 90.5797 55.3944 90.8343L55.6471 91.0889C55.8999 90.8343 62.6391 85.0634 66.8512 89.6462C71.0633 94.229 77.3813 93.9744 77.4656 93.9744V93.635C77.3813 93.5501 71.2317 93.8047 67.0197 89.3916Z" fill="#B1D58B"/>
<path d="M57.8374 83.9599C54.4678 81.5837 53.7096 79.9712 53.7096 79.9712L53.3726 80.1409C53.3726 80.2258 54.215 81.8383 57.5847 84.2994C60.9543 86.6757 61.7967 87.8638 61.7967 87.8638L62.0495 87.6941C62.1337 87.6092 61.2913 86.4211 57.8374 83.9599Z" fill="#B1D58B"/>
<path d="M88.3327 96.6903L87.9957 96.6055C87.9957 96.6903 85.8897 101.697 83.5309 105.601C81.0879 109.59 84.7103 119.095 84.8788 119.52L85.2157 119.435C85.2157 119.35 81.5091 109.76 83.7837 105.856C86.2266 101.782 88.3327 96.7752 88.3327 96.6903Z" fill="#B1D58B"/>
<path d="M85.3842 79.3773L85.3 79.2925C85.2157 79.3773 85.2157 79.3773 85.3842 79.9714C85.6369 81.2444 86.3951 84.6391 85.3 87.1851C83.9521 90.4101 83.7836 92.362 83.7836 92.4469H83.9521C83.9521 92.4469 84.1206 90.4949 85.4685 87.27C86.5636 84.6391 85.8054 81.2444 85.5527 79.9714C85.4685 79.6319 85.3842 79.3773 85.3842 79.3773Z" fill="#B1D58B"/>
<path d="M89.512 88.0341V88.2038C89.512 88.2038 91.1968 87.8644 92.8817 87.1854C93.6398 86.8459 94.4822 86.4216 95.1562 85.9124L95.0719 85.7427C93.0501 87.3552 89.512 88.0341 89.512 88.0341Z" fill="#B1D58B"/>
<path d="M85.4685 94.0594C81.9304 96.3508 80.9195 96.0113 80.8352 96.0113L80.751 96.1811C80.751 96.1811 81.2564 96.3508 82.6885 95.7567C83.3625 95.5021 84.2891 94.9929 85.5527 94.2291L89.1751 91.8528L89.0908 91.6831L85.4685 94.0594Z" fill="#B1D58B"/>
<path d="M64.1555 101.358C61.7967 102.546 60.8701 103.649 60.7858 103.649L60.8701 103.734C60.8701 103.734 61.881 102.631 64.1555 101.443C66.5142 100.17 68.1148 97.6235 68.199 97.6235H68.0306C68.0306 97.6235 66.43 100.17 64.1555 101.358Z" fill="#B1D58B"/>
<path d="M66.093 99.9155C66.0087 100 64.6609 102.462 65.0821 103.65L65.2505 103.565C64.9136 102.546 66.2614 100 66.2614 100L66.093 99.9155Z" fill="#B1D58B"/>
<path d="M63.3131 90.9192C60.9544 92.0225 57.4163 92.8712 57.4163 92.8712V93.0409C57.4163 93.0409 60.4489 92.2771 62.8077 91.3435C62.9762 91.2587 63.1447 91.1738 63.3974 91.0889C65.7561 89.9857 66.9355 89.5613 66.9355 89.5613L66.8513 89.3916C66.9355 89.3916 65.6719 89.9008 63.3131 90.9192Z" fill="#B1D58B"/>
<path d="M61.2071 71.7396C64.324 73.0974 67.0197 73.5218 67.0197 73.5218V73.352C67.0197 73.352 64.324 72.9277 61.2071 71.5698V71.7396Z" fill="#B1D58B"/>
<path d="M62.9761 77.3402C64.1555 79.6316 64.0713 80.5652 64.0713 80.5652H64.2398C64.2398 80.5652 64.2398 79.5468 63.0604 77.2554L62.9761 77.3402Z" fill="#B1D58B"/>
<path d="M65.5875 83.5361C62.4705 83.6209 59.1851 82.6874 59.1009 82.6025L59.0167 82.7723C59.0167 82.7723 62.3863 83.7058 65.5032 83.7058C68.6201 83.6209 69.7153 83.3663 69.7995 83.3663V83.1966C69.7995 83.1966 68.7044 83.4512 65.5875 83.5361Z" fill="#B1D58B"/>
<path d="M76.6231 79.5467C75.191 77.2553 74.0959 75.8975 74.0959 75.8975L74.0117 75.9823C74.0117 75.9823 75.191 77.3402 76.5389 79.5467C77.971 81.8382 80.5825 83.2809 80.5825 83.2809L80.6667 83.1112C80.5825 83.196 78.0552 81.7533 76.6231 79.5467Z" fill="#B1D58B"/>
<path d="M71.4844 90.4101C73.1693 92.7015 73.3377 93.2107 73.3377 93.2107H73.422H73.5062C73.5062 93.1258 73.422 92.6166 71.6529 90.3252L71.4844 90.4101Z" fill="#B1D58B"/>
<path d="M71.1475 95.4173C67.6094 93.2956 66.093 92.6167 66.093 92.6167L66.0088 92.7864C66.0088 92.7864 67.6094 93.4654 71.0633 95.587C74.5171 97.7087 75.6123 99.5758 75.6123 99.5758L75.7808 99.4909C75.6965 99.4061 74.6856 97.539 71.1475 95.4173Z" fill="#B1D58B"/>
<path d="M65.8403 94.9079C62.2179 94.3987 61.3755 94.229 61.3755 94.229V94.3987C61.3755 94.3987 62.2179 94.5685 65.8403 95.0777C68.6202 95.4171 69.6311 95.1625 70.0523 95.0777C70.2208 94.9928 70.2208 94.9928 70.2208 94.9928L70.1366 94.9079C70.0523 94.8231 69.3784 95.3323 65.8403 94.9079Z" fill="#B1D58B"/>
<path d="M57.4163 99.8301V99.9998C58.5114 99.9149 59.3538 99.7452 59.9435 99.4057C61.2071 98.8965 61.7968 98.1327 61.7968 98.1327L61.6283 98.0479C61.7126 98.0479 60.5332 99.6603 57.4163 99.8301Z" fill="#B1D58B"/>
<path d="M60.0277 99.4057C60.0277 99.4057 60.2804 100.085 59.1853 101.018L59.2695 101.103C60.4489 100.085 60.1962 99.4057 60.1962 99.3208L60.0277 99.4057Z" fill="#B1D58B"/>
<path d="M81.1721 78.3595C80.5824 78.5292 80.077 78.1049 80.077 78.1049L79.9085 78.1898C79.9085 78.1898 80.4982 78.699 81.1721 78.5292C81.1721 78.5292 81.2564 78.5292 81.2564 78.4444C81.9303 78.1898 82.4357 77.2562 82.8569 75.8135H82.6885C82.3515 77.2562 81.8461 78.1049 81.1721 78.3595Z" fill="#B1D58B"/>
<path d="M88.6696 81.6689C88.3326 82.0932 87.9114 82.6024 87.069 83.536C85.4684 85.3182 85.5527 85.4879 85.6369 85.5728C85.7212 85.6577 85.8054 85.6577 85.8896 85.5728L85.8054 85.4879C85.8054 85.4031 85.9739 84.9787 87.2375 83.7057C88.0799 82.7722 88.5011 82.1781 88.8381 81.8386C89.2593 81.2446 89.512 80.99 90.1859 80.4808L90.1017 80.311C89.3435 80.8202 89.0908 81.0748 88.6696 81.6689Z" fill="#B1D58B"/>
<path d="M67.2724 66.8169L67.1039 66.9018C67.1039 66.9018 67.7778 69.0234 68.7045 70.9754C69.6311 72.9273 69.7996 73.5214 69.7996 73.5214H69.9681C69.9681 73.5214 69.7996 72.8425 68.8729 70.8905C67.9463 68.9386 67.2724 66.8169 67.2724 66.8169Z" fill="#B1D58B"/>
<path d="M73.9274 78.189L73.7589 78.2738C73.7589 78.2738 75.9492 81.8383 76.1177 83.9599C76.2861 86.1665 75.528 88.5428 75.2753 88.6276L75.3595 88.7973C75.6965 88.6276 76.4546 86.0816 76.2861 83.9599C76.1177 81.7534 74.0116 78.3587 73.9274 78.189Z" fill="#B1D58B"/>
<path d="M157.832 82.178C156.484 81.3293 152.609 82.4326 154.883 80.2261C157.158 78.0195 158.421 75.2189 156.231 75.1341C154.041 75.0492 151.008 77.9347 152.103 75.2189C153.198 72.5032 154.799 71.994 152.609 71.7394C150.418 71.3999 146.29 78.5287 145.785 75.6433C145.364 72.7578 150.25 70.1269 145.869 70.6361C141.489 71.1453 138.709 75.7281 139.804 72.6729C140.899 69.5328 143.595 68.8539 141.573 68.769C139.635 68.6842 137.445 70.042 139.551 67.496C141.657 64.95 144.437 59.858 141.994 59.6882C139.551 59.5185 136.434 62.404 138.035 60.0277C139.72 57.6514 141.657 55.1054 137.782 55.7844C133.907 56.5482 132.138 60.8764 132.728 56.9725C133.317 53.0686 135.339 49.3345 130.959 51.4561C126.578 53.6627 126.747 58.5001 125.483 56.2936C124.219 54.0021 124.556 51.2015 122.619 53.4929C120.681 55.7844 121.187 60.9612 118.828 62.5737C116.469 64.1862 121.355 59.9428 117.901 58.585C114.447 57.2271 114.616 61.6402 113.436 59.6034C112.257 57.5666 112.847 54.2567 110.235 55.6146C107.624 56.9725 109.983 59.6034 108.635 61.8948C107.203 64.1862 108.803 60.7915 106.866 60.0277C104.928 59.2639 104.844 61.2159 103.159 62.5737C101.474 63.9316 103.159 61.8099 101.221 60.9612C99.284 60.1126 100.295 64.2711 97.5991 64.6105C94.9034 64.95 96.7567 69.448 96.9252 72.3334C97.0937 75.2189 92.2919 67.4111 89.9332 70.8907C87.5744 74.3702 94.1452 79.7169 90.6914 78.5287C87.3217 77.3406 85.1314 76.5768 84.8787 78.1044C84.626 79.7169 81.4248 77.0011 82.183 79.4623C82.8569 81.8385 87.9956 82.4326 87.5744 84.6392C87.1532 86.8457 84.3733 85.4878 84.289 86.7608C84.2048 88.0338 93.2186 92.1923 93.9768 96.5206C93.9768 96.5206 90.6071 95.8416 93.1344 100.17C95.7458 104.498 101.306 102.631 99.1997 110.439C97.0937 118.162 96.3355 124.187 93.8925 130.383C91.5338 136.578 91.1968 138.699 91.1968 138.699C91.8707 138.615 92.2077 138.53 92.8816 138.445C92.8816 138.445 96.7567 135.22 99.7894 128.6C99.7894 128.6 106.697 114.597 109.393 112.391C112.089 110.184 121.692 105.432 126.241 105.771C130.79 106.111 134.834 106.535 136.097 105.686C137.361 104.838 133.907 102.122 136.771 101.867C139.635 101.613 147.301 101.782 148.818 100.764C150.334 99.7455 148.649 97.3692 145.195 96.0962C141.826 94.8232 140.731 93.041 144.016 93.2956C147.301 93.5502 151.598 94.6535 151.513 93.2956C151.345 92.0226 147.723 90.9193 149.407 90.4101C151.092 89.9009 154.462 90.3253 154.715 88.7976C154.967 87.27 148.902 87.3549 150.755 85.8273C152.777 84.3846 159.179 83.0267 157.832 82.178Z" fill="#5E9507"/>
<path d="M137.866 55.7844C133.991 56.5482 132.222 60.8764 132.812 56.9725C133.402 53.0686 135.423 49.3345 131.043 51.4561C126.662 53.6627 126.831 58.5001 125.567 56.2936C124.304 54.0021 124.641 51.2015 122.703 53.4929C120.765 55.7844 121.271 60.9612 118.912 62.5737C118.744 62.6586 118.659 62.7435 118.491 62.8283C118.07 63.5921 117.733 64.0165 118.744 63.3375C121.102 61.7251 120.597 56.633 122.535 54.3416C124.388 52.1351 124.135 54.8508 125.314 57.1422C126.578 59.4336 126.41 54.5114 130.706 52.3897C135.086 50.268 133.065 53.9173 132.475 57.8212C131.885 61.7251 133.654 57.3968 137.445 56.633C139.383 56.2936 139.804 56.7179 139.635 57.5666C140.394 56.2087 140.394 55.36 137.866 55.7844Z" fill="#528106"/>
<path d="M141.994 59.6035C140.141 59.5186 138.035 61.0463 137.614 60.8765C136.182 62.9982 139.214 60.1976 141.573 60.3673C142.921 60.4522 142.668 61.9798 141.91 63.8469C143.005 61.7252 143.51 59.7732 141.994 59.6035Z" fill="#528106"/>
<path d="M156.231 75.134C154.041 75.0491 151.008 77.9346 152.103 75.2189C153.198 72.5031 154.799 71.9939 152.609 71.7393C150.418 71.3999 146.291 78.5287 145.785 75.6432C145.617 74.7945 145.954 74.0307 146.375 73.3518C145.785 74.2005 145.195 75.2189 145.364 76.3221C145.785 79.2076 149.913 72.1637 152.103 72.4183C154.209 72.7577 152.693 73.1821 151.598 75.8978C150.503 78.6136 153.451 75.7281 155.641 75.8129C157.41 75.8978 156.905 77.68 155.557 79.5471C157.41 77.4254 158.169 75.2189 156.231 75.134Z" fill="#528106"/>
<path d="M141.657 68.6841C140.309 68.6841 138.793 69.2782 138.793 68.7689C137.698 70.3814 139.551 69.2782 141.32 69.363C141.657 69.363 141.826 69.363 141.91 69.4479C142.415 68.9387 142.584 68.7689 141.657 68.6841Z" fill="#528106"/>
<path d="M145.869 70.5512C141.489 71.0605 138.793 75.6433 139.804 72.5881C139.888 72.4183 139.972 72.2486 140.057 72.0789C139.888 72.4183 139.635 72.8427 139.467 73.267C138.372 76.3222 141.152 71.7394 145.448 71.2302C147.217 71.0605 147.47 71.3151 147.133 71.994C147.891 70.9756 148.228 70.2966 145.869 70.5512Z" fill="#528106"/>
<path d="M97.0937 72.3335C97.2622 75.2189 92.4604 67.4112 90.1017 70.8907C89.512 71.8243 89.512 72.9275 89.7647 73.9459C89.6805 73.0973 89.7647 72.3335 90.1859 71.5697C92.4604 68.175 97.2622 75.8979 97.0937 73.0124C97.0937 72.7578 97.0937 72.5032 97.0937 72.3335Z" fill="#528106"/>
<path d="M106.95 60.0277C105.012 59.2639 104.928 61.2159 103.243 62.5737C101.559 63.9316 103.243 61.8099 101.306 60.9613C99.3682 60.1126 100.379 64.2711 97.6834 64.6105C96.1671 64.7803 96.0828 66.3079 96.3356 68.0052C96.2513 66.6473 96.504 65.5441 97.7677 65.3743C100.463 65.0349 99.4525 60.8764 101.39 61.7251C103.328 62.5737 101.643 64.6105 103.328 63.3375C105.012 61.9797 105.097 60.1126 106.95 60.7915C108.803 61.5553 107.287 64.95 108.719 62.6586C109.14 61.9797 109.224 61.3007 109.224 60.6218C109.14 61.0461 109.056 61.4705 108.803 61.8948C107.287 64.2711 108.887 60.7915 106.95 60.0277Z" fill="#528106"/>
<path d="M117.986 58.5849C114.532 57.227 114.7 61.6401 113.521 59.6033C112.341 57.5665 112.931 54.2567 110.32 55.6146C109.14 56.2086 108.972 57.0573 109.056 57.9908C109.14 57.3968 109.477 56.8027 110.32 56.4632C112.847 55.1054 112.341 58.4152 113.437 60.452C114.616 62.4888 114.447 58.0757 117.901 59.4336C118.912 59.8579 119.165 60.452 119.165 61.0461C119.418 60.1125 119.418 59.0941 117.986 58.5849Z" fill="#528106"/>
<path d="M99.3683 110.354C97.2622 118.077 96.5041 124.102 94.0611 130.298C91.7023 136.493 91.3654 138.615 91.3654 138.615C91.4496 138.615 91.4496 138.615 91.5338 138.615C91.6181 138.275 92.0393 135.984 94.1453 130.383C96.5041 124.272 97.2622 118.331 99.3683 110.693C99.8737 108.996 99.9579 107.723 99.7895 106.79C99.8737 107.723 99.7895 108.826 99.3683 110.354Z" fill="#528106"/>
<path d="M92.5447 98.4724C92.1235 96.5205 94.2296 96.8599 94.2296 96.8599C94.2296 96.6902 94.1453 96.6053 94.1453 96.4356C93.9768 96.4356 91.7023 96.0113 92.5447 98.4724Z" fill="#528106"/>
<path d="M150.587 86.3364L150.503 86.4213C148.649 87.9489 154.715 87.864 154.462 89.3916C154.462 89.4765 154.462 89.5614 154.378 89.6462C154.715 89.4765 154.883 89.2219 154.967 88.8824C155.136 87.5246 150.334 87.3548 150.587 86.3364Z" fill="#528106"/>
<path d="M90.8598 78.5286C87.4902 77.3404 85.2999 76.5766 85.0472 78.1042C84.7945 79.7167 81.5933 77.001 82.3515 79.4621C82.3515 79.6318 82.4357 79.7167 82.5199 79.8864C82.0987 77.8496 84.9629 80.3108 85.2999 78.7832C85.5526 77.1707 87.7429 78.0194 91.1125 79.2075C92.2077 79.547 92.2919 79.2924 91.9549 78.6134C91.7022 78.6983 91.4495 78.6983 90.8598 78.5286Z" fill="#528106"/>
<path d="M135.929 105.856C136.097 105.771 136.182 105.771 136.35 105.686C137.361 105.007 135.508 103.225 136.013 102.376C134.328 102.886 136.603 105.007 135.929 105.856Z" fill="#528106"/>
<path d="M87.6587 84.6389C87.2375 86.8454 84.4575 85.4875 84.3733 86.7606C84.3733 86.8454 84.4575 87.0152 84.626 87.1849C84.8787 86.1665 87.406 87.2698 87.8272 85.2329C87.9114 84.8935 87.8272 84.6389 87.6587 84.3843C87.7429 84.3843 87.7429 84.4691 87.6587 84.6389Z" fill="#528106"/>
<path d="M149.155 91.0044C147.47 91.5136 151.092 92.6169 151.176 93.8899V93.9747C151.513 93.8899 151.682 93.7201 151.682 93.4655C151.598 92.3623 149.576 91.5136 149.155 91.0044Z" fill="#528106"/>
<path d="M145.448 96.0962C143.51 95.3324 142.331 94.4837 142.247 93.8896C141.236 94.314 142.331 95.5021 144.943 96.5205C148.059 97.7087 149.744 99.8303 148.649 100.934C148.733 100.849 148.902 100.849 148.986 100.764C150.502 99.8303 148.818 97.4541 145.448 96.0962Z" fill="#528106"/>
<path d="M154.293 80.9053C152.272 82.9421 155.978 81.9237 157.326 82.6875C157.41 82.7723 157.495 82.8572 157.495 82.8572C158 82.6026 158.253 82.2631 157.832 82.0934C156.652 81.4145 153.535 82.1783 154.293 80.9053Z" fill="#528106"/>
<path d="M125.736 65.7988C123.293 69.3632 120.513 73.3519 118.828 76.8315C117.985 78.6137 116.975 80.3959 115.879 82.263C112.847 87.4399 109.561 93.5503 107.876 102.376C105.518 114.597 98.9469 126.648 92.9658 137.681C93.1343 137.766 93.2185 137.766 93.387 137.851C99.3681 126.818 106.023 114.682 108.382 102.461C110.067 93.8049 113.352 87.6945 116.301 82.5176C117.396 80.6505 118.407 78.8683 119.249 77.0861C120.934 73.6065 123.714 69.6178 126.157 66.0534C128.516 62.6587 130.537 59.6883 130.79 58.3305C130.622 58.3305 130.537 58.2456 130.369 58.2456C130.116 59.5186 128.094 62.4041 125.736 65.7988Z" fill="#B1D58B"/>
<path d="M122.787 95.4168C113.858 94.4832 107.876 102.63 107.792 102.715C107.961 102.8 108.045 102.8 108.129 102.885C108.213 102.8 114.026 94.8227 122.703 95.7562C132.054 96.7747 137.024 95.926 137.024 95.8411C137.024 95.6714 137.024 95.5865 136.94 95.5016C137.024 95.5865 131.885 96.3503 122.787 95.4168Z" fill="#B1D58B"/>
<path d="M99.5367 86.3364C93.9768 83.2812 92.1235 81.499 92.1235 81.499C92.0392 81.5839 91.955 81.6688 91.7865 81.7536C91.8707 81.8385 93.724 83.5358 99.284 86.6759C104.76 89.7311 109.14 97.0297 109.14 97.0297C109.309 96.9448 109.393 96.9448 109.561 96.86C109.477 96.86 105.097 89.4765 99.5367 86.3364Z" fill="#B1D58B"/>
<path d="M124.978 77.0008C119.081 79.5468 117.817 79.8863 117.564 79.8863C117.48 79.8014 117.48 79.8014 117.396 79.7166C117.227 79.8863 117.143 80.056 117.227 80.1409L117.312 80.2258C117.649 80.3106 118.828 80.1409 125.146 77.3403C134.244 73.3515 137.445 71.9088 137.529 71.9088C137.445 71.7391 137.445 71.7391 137.361 71.5693C137.277 71.5693 134.076 73.0121 124.978 77.0008Z" fill="#B1D58B"/>
<path d="M107.54 79.9715C107.624 77.0861 108.298 73.3519 108.803 70.8908C109.14 69.1934 109.309 68.2599 109.224 67.9204C109.056 67.9204 108.972 67.9204 108.803 68.0053C108.887 68.2599 108.635 69.448 108.382 70.8059C107.877 73.267 107.203 77.0012 107.118 79.9715C107.034 84.7241 112.847 87.5247 113.1 87.6944C113.184 87.5247 113.184 87.5247 113.268 87.355C113.184 87.2701 107.455 84.4695 107.54 79.9715Z" fill="#B1D58B"/>
<path d="M121.271 66.1378C121.018 70.1265 120.344 73.9456 120.344 74.0304C120.513 74.0304 120.597 74.0304 120.765 74.1153C120.765 74.1153 121.355 70.2114 121.692 66.2227C121.945 62.2339 122.534 59.7728 122.534 59.6879C122.366 59.6879 122.282 59.603 122.113 59.603C122.113 59.603 121.608 62.0642 121.271 66.1378Z" fill="#B1D58B"/>
<path d="M125.146 85.8277C119.754 91.0894 111.667 90.75 111.583 90.75C111.583 90.9197 111.583 91.0046 111.583 91.1743C111.667 91.1743 119.923 91.5138 125.483 86.0823C131.043 80.7357 139.804 87.4402 140.225 87.7796C140.309 87.6948 140.394 87.6099 140.478 87.525C140.057 87.1856 130.959 80.1416 125.146 85.8277Z" fill="#B1D58B"/>
<path d="M137.192 79.4626C132.728 82.3481 131.633 83.706 131.548 83.7908C131.717 83.8757 131.801 83.9606 131.885 84.0454C131.885 84.0454 132.98 82.6027 137.361 79.8021C141.826 76.9166 142.837 75.0495 142.921 74.9647C142.752 74.8798 142.668 74.8798 142.5 74.7949C142.668 74.7949 141.657 76.662 137.192 79.4626Z" fill="#B1D58B"/>
<path d="M97.5992 94.314C97.4307 94.3988 97.3465 94.3988 97.178 94.4837C97.178 94.5686 99.9579 100.424 103.075 105.092C106.108 109.675 101.306 120.962 101.222 121.047C101.39 121.132 101.474 121.132 101.643 121.217C101.811 120.708 106.613 109.675 103.412 104.922C100.295 100.255 97.5992 94.314 97.5992 94.314Z" fill="#B1D58B"/>
<path d="M101.137 74.7096C101.306 74.1155 101.306 74.0307 101.221 73.9458C101.221 73.9458 101.221 74.0307 101.137 74.0307H101.053C101.053 74.1155 100.969 74.3701 100.884 74.6247C100.548 76.1523 99.5366 80.1411 100.969 83.1963C102.738 86.9305 102.991 89.2219 102.991 89.2219C103.075 89.2219 103.159 89.2219 103.243 89.2219C103.243 89.2219 103.075 86.9305 101.221 83.1114C99.7894 80.1411 100.8 76.1523 101.137 74.7096Z" fill="#B1D58B"/>
<path d="M88.2484 81.7538C89.0908 82.3479 90.186 82.8571 91.1969 83.1966C93.4714 84.0452 95.6616 84.4696 95.6616 84.4696C95.6616 84.3847 95.6616 84.3847 95.6616 84.2998C95.5774 84.2998 91.0284 83.4512 88.3327 81.6689C88.3327 81.6689 88.3327 81.669 88.2484 81.7538Z" fill="#B1D58B"/>
<path d="M100.969 91.2587C99.0312 90.1554 98.1046 89.6462 96.167 88.543C96.0828 88.6278 96.0828 88.6278 96.0828 88.7127C98.0203 89.816 98.947 90.3252 100.885 91.4284C102.485 92.362 103.664 92.8712 104.591 93.2107C106.444 93.8896 107.034 93.7199 107.118 93.7199C107.118 93.635 107.034 93.635 107.034 93.5501C107.034 93.5501 105.602 93.9745 100.969 91.2587Z" fill="#B1D58B"/>
<path d="M123.882 95.4175C123.798 95.4175 123.798 95.5023 123.714 95.5023C123.714 95.5023 125.904 98.5576 128.516 99.9154C131.043 101.188 131.633 102.292 131.717 102.377C131.801 102.292 131.801 102.292 131.885 102.292C131.885 102.207 131.296 101.188 128.684 99.8306C125.988 98.4727 123.882 95.5023 123.882 95.4175Z" fill="#B1D58B"/>
<path d="M126.157 98.3031C126.157 98.3031 127.505 101.189 126.915 102.377C126.999 102.377 126.999 102.377 127.084 102.462C127.757 101.189 126.41 98.388 126.325 98.2183C126.241 98.2183 126.241 98.2183 126.157 98.3031Z" fill="#B1D58B"/>
<path d="M125.314 85.8271C125.314 85.912 125.23 85.912 125.23 85.9969C125.23 85.9969 126.831 86.591 129.948 87.7791C130.2 87.864 130.453 87.9488 130.706 88.0337C133.739 89.137 137.698 90.0705 137.782 90.0705C137.782 89.9856 137.782 89.9856 137.866 89.9008C137.782 89.9008 133.149 88.8824 130.116 87.6094C126.999 86.4212 125.399 85.8271 125.314 85.8271Z" fill="#B1D58B"/>
<path d="M125.062 66.9869C125.062 67.0718 125.062 67.0718 125.062 67.1566C125.062 67.1566 128.684 66.6474 132.728 65.035C132.728 64.9501 132.643 64.9501 132.643 64.8652C128.684 66.4777 125.146 66.9869 125.062 66.9869Z" fill="#B1D58B"/>
<path d="M128.853 75.4732C128.937 75.4732 129.021 75.4732 129.105 75.4732C129.105 75.4732 129.105 74.3699 130.622 71.6542C130.537 71.6542 130.537 71.5693 130.453 71.5693C128.768 74.2851 128.853 75.3884 128.853 75.4732Z" fill="#B1D58B"/>
<path d="M127.084 78.9529C123.04 78.8681 121.524 78.6135 121.524 78.6135C121.524 78.6983 121.524 78.6983 121.439 78.7832C121.524 78.7832 122.956 79.1227 127.084 79.1227C131.211 79.2075 135.592 78.1043 135.592 78.1043C135.592 78.0194 135.592 78.0194 135.508 77.9345C135.508 77.8497 131.211 79.0378 127.084 78.9529Z" fill="#B1D58B"/>
<path d="M112.594 74.2004C110.825 76.8313 107.455 78.5286 107.371 78.5286C107.371 78.6135 107.455 78.6135 107.455 78.6983C107.455 78.6983 110.909 77.001 112.762 74.2853C114.616 71.6544 116.048 70.0419 116.048 70.0419C115.964 69.957 115.964 69.957 115.879 69.957C115.879 69.957 114.363 71.5695 112.594 74.2004Z" fill="#B1D58B"/>
<path d="M119.165 86.9302C116.806 89.6459 116.722 90.3249 116.722 90.3249C116.806 90.3249 116.806 90.3249 116.89 90.3249C116.975 90.3249 116.975 90.3249 116.975 90.3249C116.975 90.3249 117.143 89.6459 119.333 87.015C119.249 87.015 119.249 86.9302 119.165 86.9302Z" fill="#B1D58B"/>
<path d="M119.755 92.8713C115.121 95.3325 113.773 97.539 113.773 97.7088C113.858 97.7088 113.858 97.7936 113.942 97.7936C113.942 97.7936 115.374 95.5022 119.923 93.0411C124.472 90.5799 126.578 89.7313 126.578 89.7313C126.578 89.6464 126.494 89.6464 126.494 89.5615C126.41 89.5615 124.304 90.4102 119.755 92.8713Z" fill="#B1D58B"/>
<path d="M126.831 92.277C122.113 92.7862 121.271 92.1922 121.271 92.1922C121.187 92.277 121.187 92.2771 121.102 92.3619C121.102 92.3619 121.187 92.4468 121.355 92.4468C121.861 92.6165 123.208 92.8711 126.831 92.5317C131.632 91.9376 132.728 91.7678 132.728 91.7678C132.728 91.683 132.728 91.683 132.643 91.5981C132.643 91.5132 131.632 91.7678 126.831 92.277Z" fill="#B1D58B"/>
<path d="M132.054 96.0112C131.969 96.0961 131.969 96.0961 131.885 96.0961C131.885 96.181 132.559 96.9448 134.076 97.5388C134.834 97.8783 135.845 98.048 137.277 98.1329C137.277 98.048 137.277 98.048 137.361 97.9632C133.317 97.7934 132.138 96.0112 132.054 96.0112Z" fill="#B1D58B"/>
<path d="M133.991 97.539C133.907 97.539 133.907 97.539 133.823 97.4541C133.823 97.4541 133.317 98.3028 134.497 99.406C134.581 99.3212 134.581 99.3212 134.665 99.2363C133.57 98.3028 133.991 97.539 133.991 97.539Z" fill="#B1D58B"/>
<path d="M106.697 72.8424C105.855 72.5878 105.097 71.5694 104.591 69.8721C104.507 69.8721 104.507 69.8721 104.423 69.9569C104.928 71.6543 105.602 72.6727 106.529 73.0122C106.613 73.0122 106.613 73.0122 106.697 73.097C107.624 73.3516 108.382 72.7575 108.382 72.7575C108.298 72.6727 108.298 72.6727 108.214 72.5878C108.129 72.503 107.455 73.097 106.697 72.8424Z" fill="#B1D58B"/>
<path d="M96.841 76.7463C96.2514 76.0673 95.9986 75.7279 94.9877 75.1338C94.9035 75.2187 94.9035 75.2187 94.9035 75.3035C95.8302 75.8976 96.1671 76.2371 96.7568 76.916C97.178 77.4252 97.7677 78.1041 98.8628 79.1225C100.463 80.735 100.716 81.1593 100.716 81.2442C100.716 81.3291 100.632 81.3291 100.632 81.414C100.716 81.414 100.885 81.4988 100.885 81.414C100.969 81.3291 101.137 81.0745 99.0313 79.0377C97.8519 77.9344 97.2623 77.2555 96.841 76.7463Z" fill="#B1D58B"/>
<path d="M122.787 64.1011C121.608 66.3925 121.355 67.1563 121.355 67.1563C121.439 67.1563 121.439 67.1563 121.524 67.2412C121.524 67.2412 121.692 66.4774 122.956 64.186C124.135 61.8946 125.062 59.4334 125.062 59.3485C124.977 59.3485 124.977 59.3485 124.893 59.2637C124.809 59.3485 123.967 61.8097 122.787 64.1011Z" fill="#B1D58B"/>
<path d="M116.301 72.8427C116.217 72.8427 116.217 72.7578 116.132 72.7578C116.048 72.9275 113.268 76.9163 113.015 79.5472C112.763 82.0932 113.774 85.0635 114.195 85.2333C114.195 85.1484 114.279 85.1484 114.279 85.0635C113.942 84.9787 112.931 82.1781 113.184 79.5472C113.521 77.0012 116.301 72.8427 116.301 72.8427Z" fill="#B1D58B"/>
<path opacity="0.6" d="M128.431 70.8059C125.736 68.175 114.279 69.5329 106.276 70.3815C98.3574 71.2302 59.8592 75.3887 59.8592 75.3887C59.8592 75.3887 53.3726 82.7721 57.7532 85.2333C62.1337 87.6944 77.4656 89.3069 81.5934 95.5022C85.7212 101.697 87.8272 104.668 87.8272 104.668C87.8272 104.668 97.3465 98.9817 97.7677 100.255C98.1889 101.613 99.0313 105.517 99.0313 105.517C99.0313 105.517 98.8628 97.2844 106.276 97.4541C113.689 97.6239 116.385 90.3253 114.7 88.9674C113.015 87.6096 119.67 84.3846 123.63 83.7905C127.589 83.1965 123.63 82.6024 124.304 79.7169C124.978 77.0012 131.211 73.4368 128.431 70.8059Z" fill="#50751C"/>
<path d="M128.937 70.127C129.442 68.0902 126.747 68.0902 122.619 68.0053C118.491 67.9205 127.926 64.4409 127.168 59.4338C126.41 54.4266 117.564 61.3857 119.081 58.0759C120.681 54.7661 124.809 50.353 122.113 48.7405C119.418 47.128 122.535 42.7149 120.092 42.8847C117.649 43.0544 118.407 46.1945 117.312 43.9031C116.217 41.6117 117.059 39.2354 114.7 39.3203C112.341 39.4051 112.257 44.0728 111.92 40.763C111.583 37.4532 115.374 35.4164 113.268 32.6158C111.246 29.9 110.235 34.0585 107.961 35.9256C105.686 37.7927 108.045 32.7006 103.749 32.7006C99.4525 32.7855 102.569 39.9143 100.8 36.944C99.0313 34.0585 102.148 28.2027 101.222 24.6383C100.463 21.2436 99.4525 24.6383 97.0096 26.7599C94.5666 28.8816 97.178 23.1955 93.6399 18.6976C90.1018 14.1996 90.4388 19.4614 89.1751 24.3837C87.9115 29.2211 88.1642 23.2804 84.4576 20.7344C80.751 18.1884 81.5934 22.0074 82.1831 25.5718C82.7728 29.1362 80.9195 24.2988 78.2238 23.4501C75.5281 22.5166 75.9493 29.8151 76.9602 33.6342C77.9711 37.5381 76.2862 34.992 74.1802 34.2282C72.0742 33.4644 74.6014 35.5012 74.1802 39.5749C73.759 43.6485 73.1693 37.0288 68.7888 34.5677C64.4925 32.1066 68.3676 37.2834 66.43 40.5084C64.5767 43.7333 63.6501 33.5493 61.2071 32.9552C58.7641 32.3612 60.1962 33.5493 60.0277 37.2834C59.8592 41.0176 58.1744 36.1802 55.7314 35.4164C53.3727 34.5677 53.2884 38.3867 54.6363 42.036C55.8999 45.6004 52.446 42.6301 50.5927 42.9695C48.7394 43.309 54.8048 47.807 56.0684 50.353C57.2478 52.899 50.9297 50.1832 50.4242 52.1352C49.9188 54.0023 53.6254 55.0207 55.226 56.3785C56.7423 57.7364 52.3618 57.3969 51.6036 58.8397C50.8454 60.2824 55.8999 60.9614 59.438 62.0646C62.9762 63.2528 61.0386 64.7804 56.7423 64.7804C52.446 64.7804 49.4133 66.8172 50.1715 68.5994C50.8454 70.3816 57.9217 73.4368 60.7016 74.9644C63.3974 76.492 57.0793 77.9348 57.4162 79.3775C57.7532 80.8203 63.5658 82.3479 70.6421 84.2149C77.7183 86.1669 84.7946 95.8417 86.5637 99.5759C88.3327 103.31 88.7539 122.745 88.7539 122.745C88.7539 131.825 91.1969 137.342 91.1969 137.342L92.7975 138.36C92.7975 138.36 93.5557 135.644 94.0611 127.412C94.5666 119.18 96.6726 111.797 98.1889 101.698C99.7053 91.6833 104.76 96.2661 109.477 92.3622C114.279 88.4583 110.404 87.6945 110.404 87.6945C113.268 83.0268 124.809 82.0084 125.315 80.5657C125.82 79.0381 122.282 79.3775 122.872 76.6618C123.461 73.946 129.105 75.4736 131.043 73.0125C133.065 70.3816 128.516 72.1638 128.937 70.127Z" fill="#68A508"/>
<path d="M128.937 70.127C129.442 68.0902 126.747 68.0902 122.619 68.0053C118.491 67.9205 127.926 64.4409 127.168 59.4338C126.41 54.4266 117.564 61.3857 119.081 58.0759C120.681 54.7661 124.809 50.353 122.113 48.7405C119.418 47.128 122.535 42.7149 120.092 42.8847C117.649 43.0544 118.407 46.1945 117.312 43.9031C116.217 41.6117 117.059 39.2354 114.7 39.3203C112.341 39.4051 112.257 44.0728 111.92 40.763C111.583 37.4532 115.374 35.4164 113.268 32.6158C111.246 29.9 110.235 34.0585 107.961 35.9256C105.686 37.7927 108.045 32.7006 103.749 32.7006C99.4525 32.7855 102.569 39.9143 100.8 36.944C99.0313 34.0585 102.148 28.2027 101.222 24.6383C100.463 21.2436 99.4525 24.6383 97.0096 26.7599C94.5666 28.8816 97.178 23.1955 93.6399 18.6976C90.1018 14.1996 90.4388 19.4614 89.1751 24.3837C87.9115 29.2211 88.1642 23.2804 84.4576 20.7344C80.751 18.1884 81.5934 22.0074 82.1831 25.5718C82.7728 29.1362 80.9195 24.2988 78.2238 23.4501C75.5281 22.5166 75.9493 29.8151 76.9602 33.6342C77.9711 37.5381 76.2862 34.992 74.1802 34.2282C72.0742 33.4644 74.6014 35.5012 74.1802 39.5749C73.759 43.6485 73.1693 37.0288 68.7888 34.5677C64.4925 32.1066 68.3676 37.2834 66.43 40.5084C64.5767 43.7333 63.6501 33.5493 61.2071 32.9552C58.7641 32.3612 60.1962 33.5493 60.0277 37.2834C59.8592 41.0176 58.1744 36.1802 55.7314 35.4164C53.3727 34.5677 53.2884 38.3867 54.6363 42.036C55.8999 45.6004 52.446 42.6301 50.5927 42.9695C48.7394 43.309 54.8048 47.807 56.0684 50.353C57.2478 52.899 50.9297 50.1832 50.4242 52.1352C49.9188 54.0023 53.6254 55.0207 55.226 56.3785C56.7423 57.7364 52.3618 57.3969 51.6036 58.8397C50.8454 60.2824 55.8999 60.9614 59.438 62.0646C62.9762 63.2528 61.0386 64.7804 56.7423 64.7804C52.446 64.7804 49.4133 66.8172 50.1715 68.5994C50.8454 70.3816 57.9217 73.4368 60.7016 74.9644C63.3974 76.492 57.0793 77.9348 57.4162 79.3775C57.7532 80.8203 63.5658 82.3479 70.6421 84.2149C77.7183 86.1669 84.7946 95.8417 86.5637 99.5759C88.3327 103.31 88.7539 122.745 88.7539 122.745C88.7539 131.825 91.1969 137.342 91.1969 137.342L92.7975 138.36C92.7975 138.36 93.5557 135.644 94.0611 127.412C94.5666 119.18 96.6726 111.797 98.1889 101.698C99.7053 91.6833 104.76 96.2661 109.477 92.3622C114.279 88.4583 110.404 87.6945 110.404 87.6945C113.268 83.0268 124.809 82.0084 125.315 80.5657C125.82 79.0381 122.282 79.3775 122.872 76.6618C123.461 73.946 129.105 75.4736 131.043 73.0125C133.065 70.3816 128.516 72.1638 128.937 70.127Z" fill="#86C229"/>
<path d="M129.864 71.5698C130.369 69.533 127.673 69.533 123.546 69.4481C119.418 69.3632 128.853 65.8837 128.095 60.8765C127.336 55.8694 118.491 62.8285 120.007 59.5187C121.608 56.2088 125.736 51.7958 123.04 50.1833C120.344 48.5708 123.461 44.1577 121.018 44.3275C118.575 44.4972 119.333 47.6373 118.238 45.3459C117.143 43.0544 117.986 40.6782 115.627 40.763C113.268 40.8479 113.184 45.5156 112.847 42.2058C112.51 38.896 116.301 36.8592 114.195 34.0585C112.173 31.3428 111.162 35.5013 108.888 37.3684C106.613 39.2354 108.972 34.1434 104.675 34.1434C100.379 34.2283 103.496 41.3571 101.727 38.3868C99.958 35.5013 103.075 29.6454 102.148 26.081C101.222 22.6015 100.211 25.9962 97.852 28.1178C95.409 30.2395 98.0204 24.5534 94.4823 20.0555C90.9442 15.5575 91.2812 20.8193 90.0175 25.7416C88.7539 30.579 89.0066 24.6383 85.3 22.0923C81.5934 19.5463 82.4358 23.4502 83.0255 26.9297C83.6152 30.4941 81.7619 25.6567 79.0662 24.808C76.3705 23.8745 76.7917 31.1731 77.8026 34.9921C78.8135 38.896 77.1287 36.3499 75.0226 35.5861C72.9166 34.8223 75.4438 36.8592 75.0226 40.9328C74.6014 45.0064 74.0117 38.3868 69.6312 35.9256C65.3349 33.4645 69.21 38.6414 67.2724 41.8663C65.4191 45.0913 64.4925 34.9072 62.0495 34.3131C59.6065 33.7191 61.0386 34.9072 60.8701 38.6414C60.7016 42.3755 59.0168 37.5381 56.5738 36.7743C54.2151 35.9256 54.1308 39.7446 55.4787 43.3939C56.7423 46.9583 53.2884 43.988 51.4351 44.3275C49.5818 44.6669 55.6472 49.1649 56.9108 51.7109C58.0902 54.2569 51.7721 51.5412 51.2666 53.4931C50.7612 55.3602 54.4678 56.3786 56.0684 57.7365C57.5847 59.0943 53.2042 58.7549 52.446 60.1976C51.6878 61.6403 56.7423 62.3193 60.2804 63.4225C63.8186 64.6107 61.881 66.1383 57.5847 66.1383C53.2884 66.1383 50.2557 68.1751 51.0139 69.9573C51.6878 71.7395 58.7641 74.7947 61.544 76.3223C64.2398 77.8499 57.9217 79.2927 58.2586 80.7354C58.5956 82.1782 64.4082 83.7058 71.4845 85.5729C78.645 87.4399 85.8055 97.1996 87.5745 100.934C89.3436 104.668 89.7648 124.102 89.7648 124.102C89.7648 133.183 92.2078 138.7 92.2078 138.7L93.8084 139.718C93.8084 139.718 94.5666 137.002 95.072 128.77C95.5775 120.538 97.6835 113.155 99.1998 103.055C100.716 93.0412 105.771 97.624 110.488 93.7201C115.29 89.8162 111.415 89.0524 111.415 89.0524C114.279 84.3847 125.82 83.3663 126.325 81.9236C126.831 80.396 123.293 80.7354 123.882 78.0197C124.472 75.3039 130.116 76.8315 132.054 74.3704C133.991 71.8244 129.358 73.6066 129.864 71.5698Z" fill="#68A508"/>
<path d="M101.39 24.7231C100.464 21.2436 99.4526 24.6383 97.0096 26.7599C94.5666 28.8816 97.1781 23.1955 93.64 18.6976C90.1019 14.1996 90.4388 19.4614 89.1752 24.3837C87.9116 29.2211 88.1643 23.2804 84.4577 20.7344C82.0989 19.037 81.5935 20.1403 81.6777 22.0074C81.8462 20.9041 82.6044 20.6495 84.3735 21.9225C88.0801 24.4685 87.8273 30.3244 89.0067 25.4869C90.2703 20.6495 89.9334 15.4726 93.4715 19.8857C97.0096 24.2988 94.3981 29.9 96.8411 27.8632C99.2841 25.7415 100.211 22.4317 101.137 25.9113C102.064 29.3908 99.0314 35.1618 100.716 38.0473C101.474 39.3203 101.306 38.6413 101.222 37.5381C101.137 37.4532 101.053 37.2834 100.969 37.1137C99.1999 34.0585 102.233 28.2027 101.39 24.7231Z" fill="#5C9107"/>
<path d="M78.2239 23.3648C76.539 22.7707 76.1178 25.4016 76.2021 28.3719C76.2021 25.9108 76.7918 23.9588 78.2239 24.468C80.8353 25.3167 82.6044 29.8995 82.1832 26.7594C81.6778 26.8443 80.1614 24.0437 78.2239 23.3648Z" fill="#5C9107"/>
<path d="M66.4301 40.4234C64.5768 43.6484 63.6501 33.4643 61.2071 32.8703C58.7641 32.2762 60.1962 33.4643 60.0277 37.1985C59.8593 40.9326 58.1744 36.0952 55.7314 35.3314C53.6254 34.5676 53.3727 37.5379 54.2151 40.7629C53.6254 37.9623 54.0466 35.6709 55.8999 36.3498C58.2587 37.1985 59.9435 41.8662 60.112 38.2169C60.2805 34.5676 58.8484 33.3795 61.2914 33.9735C63.6501 34.5676 64.5768 44.6668 66.4301 41.4418C67.104 40.2537 67.0198 38.811 66.8513 37.5379C67.104 38.4715 67.0198 39.4899 66.4301 40.4234Z" fill="#5C9107"/>
<path d="M74.1802 34.143C73.1693 33.7187 73.2535 34.0582 73.5062 34.9917C73.6747 34.9917 73.8432 34.9917 74.1802 35.1614C76.0335 35.8404 77.5498 37.962 77.1286 35.5858C76.8759 36.095 75.6123 34.7371 74.1802 34.143Z" fill="#5C9107"/>
<path d="M74.1802 39.575C73.759 43.6487 73.1694 37.029 68.7888 34.5679C66.4301 33.21 66.5143 34.1436 66.767 35.756C66.767 34.8225 67.104 34.5679 68.8731 35.5863C73.1694 38.0474 73.8433 44.6671 74.1802 40.5935C74.2645 39.9994 74.2645 39.4053 74.1802 38.8961C74.1802 39.0658 74.1802 39.3204 74.1802 39.575Z" fill="#5C9107"/>
<path d="M119.165 58.0758C119.165 58.0758 119.165 57.9909 119.249 57.9909C119.081 58.2455 118.912 58.585 118.828 58.8396C117.228 62.1494 125.989 55.1903 126.831 60.1975C126.999 61.3008 126.663 62.2343 126.157 63.1678C126.999 62.0646 127.505 60.7916 127.336 59.4337C126.41 54.4265 117.564 61.3856 119.165 58.0758Z" fill="#5C9107"/>
<path d="M122.198 48.7404C119.502 47.1279 122.619 42.7148 120.176 42.8845C117.733 43.0543 118.491 46.1944 117.396 43.9029C116.301 41.6115 117.143 39.2353 114.785 39.3201C112.426 39.405 112.342 44.0727 112.005 40.7629C111.92 40.1688 112.005 39.6596 112.173 39.1504C111.836 39.9142 111.583 40.7629 111.668 41.6964C112.005 45.0062 112.089 40.3385 114.363 40.2537C116.722 40.1688 115.88 42.5451 116.975 44.8365C118.07 47.1279 117.312 43.9878 119.755 43.8181C122.198 43.6483 119.081 48.0614 121.777 49.6739C123.04 50.4377 122.787 51.7956 122.029 53.4081C123.04 51.3713 123.714 49.6739 122.198 48.7404Z" fill="#5C9107"/>
<path d="M108.045 35.9252C105.771 37.7923 108.129 32.7002 103.833 32.7002C102.064 32.7002 101.559 33.8884 101.474 35.0765C101.811 34.3127 102.401 33.7187 103.58 33.7187C107.877 33.6338 105.518 38.7258 107.708 36.8587C109.898 34.9917 110.909 30.918 112.931 33.6338C113.521 34.4825 113.605 35.2463 113.437 36.0101C113.942 34.9068 114.195 33.8035 113.268 32.6154C111.33 29.8996 110.32 34.0581 108.045 35.9252Z" fill="#5C9107"/>
<path d="M93.9769 127.327C93.5557 134.795 92.8818 137.681 92.7975 138.105L92.966 138.19C92.966 138.19 93.7242 135.474 94.2296 127.242C94.7351 119.01 96.8411 111.627 98.3575 101.527C98.6944 99.5754 99.1156 98.1327 99.6211 97.1143C99.0314 98.1327 98.5259 99.6603 98.189 101.782C96.5884 111.881 94.4824 119.18 93.9769 127.327Z" fill="#5C9107"/>
<path d="M110.488 87.6094C110.404 87.7791 110.235 87.9488 110.151 88.1186C110.151 88.1186 112.594 88.5429 111.162 90.7495C113.268 88.2034 110.657 87.6942 110.488 87.6094Z" fill="#5C9107"/>
<path d="M56.2369 50.8618C55.9842 52.2197 50.9297 50.2677 50.5085 51.9651C50.4243 52.3894 50.5085 52.7289 50.7612 53.0684C50.7612 52.9835 50.7612 52.8986 50.7612 52.7289C51.1824 50.8618 57.5005 53.5776 56.3212 50.9467C56.3212 50.9467 56.3212 50.9467 56.2369 50.8618Z" fill="#5C9107"/>
<path d="M128.937 70.1272C129.442 68.0903 126.747 68.0903 122.619 68.0055C121.861 68.0055 121.608 67.8357 121.608 67.666C120.934 68.2601 120.934 68.6844 122.198 68.6844C126.241 68.7693 128.937 68.7693 128.432 70.8061C128.01 72.758 132.222 71.1456 130.79 73.2672C130.959 73.1824 131.043 73.0126 131.127 72.8429C133.065 70.3818 128.516 72.164 128.937 70.1272Z" fill="#5C9107"/>
<path d="M57.5004 79.2076C57.5004 79.2924 57.5847 79.4622 57.6689 79.547C57.8374 78.274 62.5549 77.001 61.3755 75.728C61.0385 76.9162 57.1635 78.1043 57.5004 79.2076Z" fill="#5C9107"/>
<path d="M123.04 76.5768C123.04 76.407 123.124 76.3222 123.209 76.2373C122.956 76.4919 122.703 76.7465 122.619 77.1708C122.029 79.8017 125.315 79.5471 125.062 80.905C125.315 80.7353 125.483 80.6504 125.483 80.4807C125.904 79.0379 122.366 79.2925 123.04 76.5768Z" fill="#5C9107"/>
<path d="M55.4787 56.8877C54.8048 57.3969 52.2776 57.4818 51.6879 58.585C51.5194 58.9245 51.6036 59.1791 51.9406 59.4337V59.3488C52.6988 57.9061 56.9951 58.2456 55.4787 56.8877C55.4787 56.9726 55.4787 56.9726 55.4787 56.8877Z" fill="#5C9107"/>
<path d="M56.8265 64.6105C52.5302 64.6105 49.4976 66.6473 50.2557 68.4295C50.2557 68.5144 50.34 68.5993 50.4242 68.769C50.1715 67.0716 53.0357 65.3743 56.995 65.2894C60.2804 65.2894 62.1337 64.3559 61.2913 63.4224C60.9544 64.1013 59.2695 64.6105 56.8265 64.6105Z" fill="#5C9107"/>
<path d="M50.6771 42.7994C50.1716 42.8842 50.2559 43.3086 50.6771 43.9026C50.7613 43.8178 50.8455 43.7329 50.9298 43.7329C52.7831 43.3934 56.0685 46.1941 54.9734 42.8842C55.1418 44.6664 52.2776 42.4599 50.6771 42.7994Z" fill="#5C9107"/>
<g opacity="0.3">
<path d="M93.8926 53.7474C93.8084 48.91 92.8817 42.9693 92.0393 37.7075C91.2811 32.7004 90.523 28.457 90.9442 26.7597L90.4387 26.6748C90.1018 28.457 90.7757 32.7852 91.5339 37.7924C92.3763 42.9693 93.3029 48.91 93.3872 53.7474C93.4714 56.2934 93.6399 58.7546 93.8926 61.3854C94.4823 68.8537 95.2405 77.2556 92.5448 88.2883C88.9224 103.225 91.0284 136.068 91.0284 136.408H91.5339C91.5339 136.068 89.4278 103.31 93.0502 88.458C95.7459 77.2556 95.072 68.8537 94.3981 61.3854C94.1453 58.7546 93.8926 56.2085 93.8926 53.7474Z" fill="#006838"/>
<path d="M80.7511 73.776C70.8106 70.8905 65.7562 67.6655 65.6719 67.6655L65.4192 68.0899C65.5034 68.0899 70.3894 71.3148 80.6668 74.2852C90.1861 77.0009 92.4606 88.9672 92.4606 89.052L92.966 88.9672C92.7975 88.7974 90.523 76.5766 80.7511 73.776Z" fill="#006838"/>
<path d="M109.477 73.4368C102.064 74.625 93.977 81.3295 93.8928 81.4143L94.2297 81.7538C94.314 81.6689 102.317 75.0493 109.646 73.946C116.975 72.7579 119.755 71.5697 119.923 71.5697L119.755 71.1454C119.671 71.0605 116.806 72.2487 109.477 73.4368Z" fill="#006838"/>
<path d="M93.8085 57.8209C93.5557 57.7361 92.3764 56.8025 87.4061 51.2013C79.7402 42.5449 77.1287 39.4048 77.1287 39.4048L76.7917 39.7443C76.7917 39.7443 79.4875 42.8843 87.1534 51.5408C92.4606 57.5663 93.5557 58.3301 93.9769 58.3301C94.0612 58.3301 94.0612 58.3301 94.1454 58.2453C94.3139 58.1604 94.3139 57.9058 94.2297 57.6512L93.8085 57.8209Z" fill="#006838"/>
<path d="M107.287 51.2015C106.613 54.2567 105.602 58.9244 104.17 62.404C102.064 67.7506 94.6509 68.5144 94.6509 68.5144L94.7352 69.0236C95.0721 69.0236 102.485 68.1749 104.676 62.6586C106.023 59.179 107.119 54.5113 107.793 51.3713C108.214 49.6739 108.466 48.1463 108.719 47.8917L108.298 47.5522C108.045 47.8917 107.793 49.0799 107.287 51.2015Z" fill="#006838"/>
<path d="M96.0829 39.9144C94.3981 44.7518 93.2187 49.5044 93.2187 49.5893L93.7241 49.6741C93.7241 49.5893 94.9878 44.8367 96.5883 39.9993C98.2732 35.1619 98.8628 32.0218 98.9471 31.9369L98.4416 31.8521C98.3574 31.9369 97.6835 35.1619 96.0829 39.9144Z" fill="#006838"/>
<path d="M82.9414 61.4705C79.5717 52.22 66.5986 56.4634 66.0931 56.6331L66.2616 57.1423C66.7671 56.9726 79.319 52.8989 82.5202 61.6402C85.7213 70.3816 94.5666 73.6914 94.6509 73.6914L94.8194 73.267C94.6509 73.1822 86.0583 70.0421 82.9414 61.4705Z" fill="#006838"/>
<path d="M69.9683 40.8477H69.4628C69.4628 40.9325 69.6313 43.6483 72.9167 48.9949C76.2021 54.2567 76.6233 56.3783 76.6233 56.3783L77.1288 56.2935C77.1288 56.2086 76.6233 54.0869 73.3379 48.7403C70.0525 43.4785 69.9683 40.8477 69.9683 40.8477Z" fill="#006838"/>
<path d="M96.42 93.3802C90.7758 97.5387 90.4388 112.645 90.4388 113.239H90.9443C90.9443 113.069 91.3655 97.7084 96.7569 93.7197C102.317 89.6461 108.045 83.8751 108.045 83.8751L107.708 83.5356C107.624 83.6205 101.896 89.3066 96.42 93.3802Z" fill="#006838"/>
<path d="M113.689 58.0752C113.521 58.0752 113.521 58.1601 113.437 59.0087C113.1 60.9607 112.173 65.9678 109.225 68.9382C105.518 72.5875 104.17 75.2183 104.17 75.2183L104.423 75.3032C104.423 75.3032 105.771 72.6723 109.477 69.1079C112.51 66.1376 113.352 61.0455 113.774 59.0936C113.858 58.7541 113.858 58.4147 113.942 58.3298L113.858 58.2449L113.689 58.0752Z" fill="#006838"/>
<path d="M114.532 72.5879L114.448 72.8425C114.448 72.8425 116.975 73.3517 119.755 73.3517C121.018 73.3517 122.366 73.2668 123.546 72.9274L123.461 72.6728C119.839 73.6912 114.616 72.6728 114.532 72.5879Z" fill="#006838"/>
<path d="M105.518 78.529C99.3684 79.6322 98.1048 78.529 98.1048 78.529L97.9363 78.6987C97.9363 78.6987 98.526 79.2079 100.8 79.2079C101.896 79.2079 103.496 79.123 105.602 78.6987L111.92 77.5954V77.3408L105.518 78.529Z" fill="#006838"/>
<path d="M72.0743 76.237C68.1149 76.5765 66.1774 77.4252 66.0931 77.51L66.1774 77.7646C66.1774 77.7646 68.1149 76.8311 72.0743 76.4916C76.0336 76.1522 79.7402 73.6062 79.7402 73.5213L79.5717 73.3516C79.5717 73.3516 75.9494 75.8976 72.0743 76.237Z" fill="#006838"/>
<path d="M72.0742 79.9711H72.3269C72.4112 78.2738 75.6966 75.6429 75.7808 75.6429L75.6123 75.4731C75.4439 75.558 72.1585 78.1889 72.0742 79.9711Z" fill="#006838"/>
<path d="M76.8761 61.4704C73.0852 61.6402 67.6938 60.7915 67.6938 60.7915V61.0461C67.778 61.0461 72.327 61.8099 76.0337 61.8099C76.3706 61.8099 76.6233 61.8099 76.9603 61.8099C80.7512 61.6402 82.7729 61.725 82.7729 61.725V61.4704C82.6887 61.3856 80.7512 61.3856 76.8761 61.4704Z" fill="#006838"/>
<path d="M85.1317 33.6343L84.9632 33.804C88.5013 37.4533 91.9552 39.6598 91.9552 39.6598L92.1237 39.4901C92.0394 39.4901 88.5856 37.2836 85.1317 33.6343Z" fill="#006838"/>
<path d="M84.1208 42.5448C84.3735 46.3638 83.8681 47.6369 83.7838 47.6369L84.0365 47.7217C84.0365 47.6369 84.6262 46.3638 84.3735 42.46L84.1208 42.5448Z" fill="#006838"/>
<path d="M75.8651 47.6367L75.6967 47.8065C75.6967 47.8065 79.8245 51.1163 84.1208 52.8136C88.4171 54.511 90.1019 54.8504 90.1861 54.8504L90.2704 54.5958C90.2704 54.5958 88.5013 54.2564 84.205 52.559C79.9087 50.8617 75.8651 47.6367 75.8651 47.6367Z" fill="#006838"/>
<path d="M100.295 47.043L100.042 47.1278C100.042 47.1278 100.885 49.6738 101.474 53.5777C102.064 57.4816 104.844 61.046 104.928 61.046L105.097 60.8763C105.097 60.8763 102.317 57.3968 101.727 53.4929C101.053 49.589 100.295 47.043 100.295 47.043Z" fill="#006838"/>
<path d="M88.417 65.4588C89.5121 69.6173 89.3436 70.3811 89.3436 70.3811H89.4279H89.5121C89.5121 70.2962 89.7649 69.5324 88.5855 65.2891L88.417 65.4588Z" fill="#006838"/>
<path d="M79.7403 65.3745L79.5718 65.5442C79.5718 65.5442 81.3408 67.4113 84.9632 72.3336C88.5013 77.2559 88.9225 80.4809 88.9225 80.4809H89.1753C89.1753 80.3111 88.8383 77.171 85.2159 72.1639C81.5093 67.2416 79.8245 65.3745 79.7403 65.3745Z" fill="#006838"/>
<path d="M78.0553 68.3448C73.2536 65.5442 72.2427 64.8652 72.2427 64.8652L72.0742 65.035C72.0742 65.035 73.0851 65.7988 77.8869 68.5994C81.5092 70.7211 83.1098 70.9757 83.6995 70.9757C83.9522 70.9757 84.0365 70.9757 84.0365 70.9757L83.9522 70.7211C83.868 70.7211 82.6886 71.0605 78.0553 68.3448Z" fill="#006838"/>
<path d="M63.7344 70.2964L63.6501 70.551C65.1665 71.0602 66.4301 71.2299 67.441 71.2299C69.4628 71.2299 70.6422 70.551 70.7264 70.551L70.6422 70.3813C70.5579 70.3813 68.0307 71.824 63.7344 70.2964Z" fill="#006838"/>
<path d="M65.4192 73.0123L65.5034 73.2669C67.6937 72.588 67.7779 71.3998 67.7779 71.3149H67.5252C67.5252 71.3149 67.5252 72.3333 65.4192 73.0123Z" fill="#006838"/>
<path d="M108.551 54.4263C107.624 54.3414 107.119 53.4079 107.119 53.4079L106.866 53.4928C106.866 53.5776 107.371 54.5112 108.466 54.6809C108.551 54.6809 108.635 54.6809 108.635 54.6809C109.73 54.6809 110.994 53.7474 112.342 51.9651L112.173 51.7954C110.825 53.6625 109.646 54.5112 108.551 54.4263Z" fill="#006838"/>
<path d="M116.975 63.422C116.301 63.7615 115.374 64.3556 113.689 65.1194C110.488 66.647 110.572 66.9864 110.572 67.0713C110.572 67.241 110.741 67.241 110.825 67.241V66.9864C110.909 66.9016 111.331 66.4772 113.774 65.2891C115.458 64.5253 116.385 64.0161 117.059 63.5918C117.986 63.0826 118.407 62.828 119.755 62.4885L119.67 62.2339C118.407 62.6582 117.986 62.828 116.975 63.422Z" fill="#006838"/>
<path d="M95.8302 30.5785C95.8302 30.5785 95.4933 33.8883 95.6617 37.1133C95.8302 40.3382 95.6617 41.2718 95.6617 41.2718H95.9145C95.9145 41.2718 96.0829 40.2534 95.9145 37.0284C95.746 33.8035 96.0829 30.5785 96.0829 30.4937L95.8302 30.5785Z" fill="#006838"/>
<path d="M98.4418 50.1831C98.4418 50.268 99.3684 56.2935 98.4418 59.3488C97.4309 62.4888 95.0721 65.2894 94.6509 65.2894V65.544C95.2406 65.544 97.6836 62.4888 98.6945 59.4336C99.6212 56.2935 98.7788 50.4377 98.6945 50.1831H98.4418Z" fill="#006838"/>
</g>
<path d="M94.1453 53.7474C94.0611 48.91 93.1344 42.9693 92.292 37.7075C91.5338 32.7004 90.7757 28.457 91.1969 26.7597L90.6914 26.6748C90.3544 28.457 91.0284 32.7852 91.7865 37.7924C92.629 42.9693 93.5556 48.91 93.6398 53.7474C93.7241 56.2934 93.8926 58.7546 94.1453 61.3854C94.735 68.7689 95.4932 77.1707 92.7974 88.2883C89.1751 103.225 91.2811 136.068 91.2811 136.408H91.7865C91.7865 136.068 89.6805 103.31 93.3029 88.458C95.9144 77.2556 95.2404 68.8537 94.6507 61.3854C94.398 58.7546 94.1453 56.2085 94.1453 53.7474Z" fill="#BEE595"/>
<path d="M81.0037 73.776C71.0633 70.8905 66.0088 67.6655 65.9245 67.6655L65.5876 68.005C65.6718 68.005 70.5578 71.2299 80.8352 74.2003C90.3545 76.916 92.629 88.8823 92.629 88.9672L93.1344 88.8823C93.0502 88.7974 90.7757 76.5766 81.0037 73.776Z" fill="#BEE595"/>
<path d="M109.73 73.4368C102.317 74.625 94.2296 81.3295 94.1454 81.4143L94.4823 81.7538C94.5666 81.6689 102.569 75.0493 109.898 73.946C117.227 72.7579 120.007 71.5697 120.176 71.5697L120.007 71.1454C119.923 71.0605 117.059 72.2487 109.73 73.4368Z" fill="#BEE595"/>
<path d="M94.0611 57.8209C93.8084 57.7361 92.629 56.8025 87.6588 51.2013C79.9928 42.5449 77.3814 39.4048 77.2971 39.4048L76.9601 39.7443C76.9601 39.7443 79.6559 42.8843 87.3218 51.5408C92.629 57.5663 93.7241 58.3301 94.1453 58.3301C94.2296 58.3301 94.2296 58.3301 94.3138 58.2453C94.4823 58.1604 94.4823 57.9058 94.3981 57.6512L94.0611 57.8209Z" fill="#BEE595"/>
<path d="M107.54 51.2015C106.866 54.2567 105.855 58.9244 104.423 62.404C102.317 67.7506 94.9036 68.5144 94.9036 68.5144L94.9878 69.0236C95.3248 69.0236 102.738 68.1749 104.928 62.6586C106.276 59.179 107.371 54.5113 108.045 51.3713C108.466 49.6739 108.719 48.1463 108.972 47.8917L108.551 47.5522C108.298 47.8917 108.045 49.0799 107.54 51.2015Z" fill="#BEE595"/>
<path d="M96.3356 39.9144C94.6508 44.7518 93.4714 49.5044 93.4714 49.5893L93.9768 49.6741C93.9768 49.5893 95.2404 44.8367 96.841 39.9993C98.5258 35.1619 99.1155 32.0218 99.1998 31.9369L98.6943 31.8521C98.6101 31.9369 97.9362 35.1619 96.3356 39.9144Z" fill="#BEE595"/>
<path d="M83.194 61.4705C79.8243 52.22 66.8512 56.4634 66.3458 56.6331L66.5142 57.1423C67.0197 56.9726 79.5716 52.8989 82.7728 61.6402C85.9739 70.3816 94.8193 73.6914 94.9035 73.6914L95.072 73.267C94.9035 73.1822 86.3109 70.0421 83.194 61.4705Z" fill="#BEE595"/>
<path d="M70.2209 40.8477H69.7155C69.7155 40.9325 69.8839 43.6483 73.1693 48.9949C76.4547 54.2567 76.8759 56.3783 76.8759 56.3783L77.3814 56.2935C77.3814 56.2086 76.8759 54.0869 73.5905 48.7403C70.3051 43.4785 70.2209 40.8477 70.2209 40.8477Z" fill="#BEE595"/>
<path d="M96.6726 93.3802C91.0284 97.5387 90.6915 112.645 90.6915 113.239H91.1969C91.1969 113.069 91.6181 97.7084 97.0096 93.7197C102.569 89.6461 108.298 83.8751 108.298 83.8751L107.961 83.5356C107.877 83.6205 102.148 89.3066 96.6726 93.3802Z" fill="#BEE595"/>
<path d="M113.942 58.0752C113.774 58.0752 113.774 58.1601 113.689 59.0087C113.352 60.9607 112.426 65.9678 109.477 68.9382C105.771 72.5875 104.423 75.2183 104.423 75.2183L104.675 75.3032C104.675 75.3032 106.023 72.6723 109.73 69.1079C112.763 66.1376 113.605 61.0455 113.942 59.0936C114.026 58.7541 114.026 58.4147 114.11 58.3298L114.026 58.2449L113.942 58.0752Z" fill="#BEE595"/>
<path d="M114.784 72.5879L114.7 72.8425C114.7 72.8425 117.227 73.3517 120.007 73.3517C121.271 73.3517 122.619 73.2668 123.798 72.9274L123.714 72.7576C120.092 73.6912 114.869 72.6728 114.784 72.5879Z" fill="#BEE595"/>
<path d="M105.771 78.529C99.621 79.6322 98.3574 78.529 98.3574 78.529L98.1889 78.6987C98.1889 78.6987 98.7786 79.2079 101.053 79.2079C102.148 79.2079 103.749 79.123 105.855 78.6987L112.173 77.5954V77.3408L105.771 78.529Z" fill="#BEE595"/>
<path d="M72.3269 76.237C68.3676 76.5765 66.43 77.4252 66.3458 77.51L66.43 77.7646C66.43 77.7646 68.3676 76.8311 72.3269 76.4916C76.2862 76.1522 79.9928 73.6062 79.9928 73.5213L79.9086 73.3516C79.8243 73.3516 76.202 75.8976 72.3269 76.237Z" fill="#BEE595"/>
<path d="M72.3268 79.9711H72.5796C72.6638 78.2738 75.9492 75.6429 76.0335 75.6429L75.865 75.4731C75.6965 75.558 72.4111 78.1889 72.3268 79.9711Z" fill="#BEE595"/>
<path d="M77.1287 61.4704C73.3378 61.6402 67.9464 60.7915 67.9464 60.7915V61.0461C68.0307 61.0461 72.5797 61.8099 76.2863 61.8099C76.6232 61.8099 76.876 61.8099 77.2129 61.8099C81.0038 61.6402 83.0256 61.725 83.0256 61.725V61.4704C82.9413 61.3856 81.0038 61.3856 77.1287 61.4704Z" fill="#BEE595"/>
<path d="M85.3843 33.6343L85.2158 33.804C88.7539 37.4533 92.2078 39.6598 92.2078 39.6598L92.3763 39.4901C92.2921 39.4901 88.8382 37.2836 85.3843 33.6343Z" fill="#BEE595"/>
<path d="M84.3734 42.5448C84.6261 46.3638 84.1207 47.6369 84.0364 47.6369L84.2892 47.7217C84.2892 47.6369 84.8788 46.3638 84.6261 42.46L84.3734 42.5448Z" fill="#BEE595"/>
<path d="M76.1178 47.6367L75.9493 47.8065C75.9493 47.8065 80.0771 51.1163 84.3734 52.8136C88.6697 54.511 90.3545 54.8504 90.4388 54.8504L90.523 54.5958C90.523 54.5958 88.7539 54.2564 84.4576 52.559C80.1613 50.8617 76.1178 47.6367 76.1178 47.6367Z" fill="#BEE595"/>
<path d="M100.548 47.043L100.295 47.1278C100.295 47.1278 101.137 49.6738 101.727 53.5777C102.317 57.4816 105.097 61.046 105.181 61.046L105.349 60.8763C105.349 60.8763 102.569 57.3968 101.98 53.4929C101.306 49.589 100.548 47.043 100.548 47.043Z" fill="#BEE595"/>
<path d="M88.6696 65.4588C89.7648 69.6173 89.5963 70.3811 89.5963 70.3811H89.6805H89.7648C89.7648 70.2962 90.0175 69.5324 88.8381 65.2891L88.6696 65.4588Z" fill="#BEE595"/>
<path d="M79.9929 65.3745L79.8244 65.5442C79.8244 65.5442 81.5935 67.4113 85.2158 72.3336C88.754 77.2559 89.1752 80.4809 89.1752 80.4809H89.4279C89.4279 80.3111 89.0909 77.171 85.4686 72.1639C81.7619 67.2416 80.0771 65.3745 79.9929 65.3745Z" fill="#BEE595"/>
<path d="M78.308 68.3448C73.5062 65.5442 72.4953 64.8652 72.4953 64.8652L72.3268 65.035C72.3268 65.035 73.3377 65.7988 78.1395 68.5994C81.7618 70.7211 83.3624 70.9757 83.9521 70.9757C84.2048 70.9757 84.2891 70.9757 84.2891 70.9757L84.2048 70.7211C84.1206 70.7211 82.9412 71.0605 78.308 68.3448Z" fill="#BEE595"/>
<path d="M63.987 70.2964L63.9028 70.551C65.4191 71.0602 66.6827 71.2299 67.6936 71.2299C69.7154 71.2299 70.8948 70.551 70.979 70.551L70.8948 70.2964C70.8105 70.3813 68.2833 71.824 63.987 70.2964Z" fill="#BEE595"/>
<path d="M65.7561 73.0123L65.8403 73.2669C68.0306 72.588 68.1149 71.3998 68.1149 71.3149H67.8621C67.7779 71.3149 67.7779 72.3333 65.7561 73.0123Z" fill="#BEE595"/>
<path d="M108.803 54.4263C107.877 54.3414 107.371 53.4079 107.371 53.4079L107.118 53.4928C107.118 53.5776 107.624 54.5112 108.719 54.6809C108.803 54.6809 108.888 54.6809 108.888 54.6809C109.983 54.6809 111.246 53.7474 112.594 51.9651L112.426 51.7954C111.078 53.6625 109.898 54.5112 108.803 54.4263Z" fill="#BEE595"/>
<path d="M117.227 63.422C116.554 63.7615 115.627 64.3556 113.942 65.1194C110.741 66.647 110.825 66.9864 110.825 67.0713C110.825 67.241 110.994 67.241 111.078 67.241V66.9864C111.162 66.9016 111.583 66.4772 114.026 65.2891C115.711 64.5253 116.638 64.0161 117.312 63.5918C118.238 63.0826 118.66 62.828 120.007 62.4885L119.923 62.2339C118.66 62.6582 118.238 62.828 117.227 63.422Z" fill="#BEE595"/>
<path d="M96.1671 30.5785C96.1671 30.5785 95.8301 33.8883 95.9986 37.1133C96.1671 40.3382 95.9986 41.2718 95.9986 41.2718H96.2513C96.2513 41.2718 96.4198 40.2534 96.2513 37.0284C96.0828 33.8035 96.4198 30.5785 96.4198 30.4937L96.1671 30.5785Z" fill="#BEE595"/>
<path d="M98.6944 50.1831C98.6944 50.268 99.6211 56.2935 98.6944 59.3488C97.6835 62.4888 95.3248 65.2894 94.9036 65.2894V65.544C95.4933 65.544 97.9362 62.4888 98.9471 59.4336C99.8738 56.2935 99.0314 50.4377 98.9471 50.1831H98.6944Z" fill="#BEE595"/>
<path d="M95.7459 130.722C95.6617 130.382 94.5665 132.334 94.2296 131.825C93.9769 131.401 92.5448 124.357 92.5448 124.357L89.5121 130.722C89.5121 130.722 90.523 143.537 87.9115 155.588C85.3 167.639 80.8352 180.794 80.8352 180.794C80.8352 180.794 80.751 183.509 84.4576 182.915C84.4576 182.915 90.3545 159.322 92.3763 151.345C94.3981 143.282 97.8519 130.807 97.8519 130.807C97.8519 130.807 95.8302 131.061 95.7459 130.722Z" fill="#68A508"/>
<path d="M82.7728 179.35V180.114C82.7728 180.114 91.955 160.171 91.955 131.146L91.2811 131.91C91.2811 131.91 90.9442 160.255 82.7728 179.35Z" fill="#5E9507"/>
</g>
<defs>
<clipPath id="clip0_8002_14435">
<rect width="116" height="166" fill="white" transform="translate(42 17)"/>
</clipPath>
</defs>
</svg>
