<svg width="200" height="200" viewBox="0 0 200 200" fill="none" xmlns="http://www.w3.org/2000/svg">
<path d="M166.866 119.472C158.021 120.939 108.769 121.219 78.5583 120.555C48.3131 119.891 18.7269 113.391 17.2008 98.1209C17.2008 98.1209 15.085 88.1269 24.5887 81.5924C26.9819 79.95 30.1036 78.5173 34.1617 77.5389C54.4523 72.5769 121.776 81.0333 139.465 84.982C149.697 87.2533 162.53 89.7693 171.618 93.2287C178.242 95.7447 182.856 98.7499 182.994 102.524C183.237 111.435 175.71 118.004 166.866 119.472Z" fill="url(#paint0_linear_8002_26800)"/>
<g opacity="0.1" style="mix-blend-mode:soft-light">
<path d="M171.583 93.2287C168.913 95.6399 165.375 97.2822 161.594 97.9112C153.443 99.2391 108.075 99.5186 80.2236 98.9246C54.6609 98.3655 29.6184 93.2986 24.5891 81.5924C26.9824 79.95 30.104 78.5173 34.1621 77.5389C54.4527 72.5769 121.776 81.0333 139.465 84.982C149.663 87.2533 162.531 89.8042 171.583 93.2287Z" fill="#56E322"/>
</g>
<path d="M28.959 87.0429C28.7856 87.0429 28.6121 86.973 28.4734 86.8332C28.2306 86.5537 28.2306 86.1344 28.5081 85.8548C28.6815 85.6801 32.7396 81.8362 36.555 81.8362C38.0117 81.8362 40.7865 80.8928 43.4919 79.9842C47.4113 78.6563 51.1226 77.3984 53.1343 77.9225C53.4811 78.0274 53.7239 78.3768 53.6199 78.7612C53.5158 79.1106 53.1343 79.3552 52.7874 79.2504C51.1573 78.7961 47.3072 80.124 43.9081 81.2771C40.9946 82.2905 38.2198 83.1991 36.5203 83.1991C33.2599 83.1991 29.4446 86.7983 29.4099 86.8332C29.3058 87.008 29.1324 87.0429 28.959 87.0429Z" fill="#97D878"/>
<path d="M53.724 82.5695C53.4119 82.5695 53.1344 82.3249 53.065 82.0104C52.9957 81.626 53.2385 81.2766 53.62 81.2067C53.8628 81.1717 59.8633 80.0885 62.2565 80.5427C62.638 80.6126 62.8808 80.9621 62.8115 81.3465C62.7421 81.7308 62.3953 81.9754 62.0137 81.9056C60.2448 81.5561 55.5277 82.255 53.8975 82.5695C53.8281 82.5695 53.7587 82.5695 53.724 82.5695Z" fill="#97D878"/>
<path d="M73.9798 80.6839H69.9564C69.5749 80.6839 69.2627 80.3694 69.2627 79.985C69.2627 79.6006 69.5749 79.2861 69.9564 79.2861H73.9798C74.3614 79.2861 74.6735 79.6006 74.6735 79.985C74.6388 80.4043 74.3267 80.6839 73.9798 80.6839Z" fill="#97D878"/>
<path d="M61.1465 90.571C61.0772 90.571 60.9731 90.571 60.9037 90.5361C59.6204 90.0469 55.8398 90.3963 54.4871 90.571C54.1055 90.606 53.7934 90.3613 53.724 89.977C53.6893 89.5926 53.9321 89.2781 54.3136 89.2082C54.8339 89.1383 59.551 88.5443 61.3893 89.2431C61.7362 89.3829 61.9096 89.7673 61.7709 90.1167C61.6668 90.3963 61.424 90.571 61.1465 90.571Z" fill="#97D878"/>
<path d="M26.7741 84.7369C26.5313 84.7369 26.2885 84.5972 26.1498 84.3526C25.9763 84.0031 26.1498 83.6187 26.4619 83.444L29.9304 81.8017C30.2773 81.6269 30.6588 81.8017 30.8322 82.1161C31.0056 82.4656 30.8322 82.85 30.5201 83.0247L27.0516 84.6671C26.9475 84.7369 26.8435 84.7369 26.7741 84.7369Z" fill="#97D878"/>
<path d="M33.5027 91.5501H27.641C27.2594 91.5501 26.9473 91.2356 26.9473 90.8512C26.9473 90.4668 27.2594 90.1523 27.641 90.1523H33.5027C33.8842 90.1523 34.1964 90.4668 34.1964 90.8512C34.1964 91.2356 33.8842 91.5501 33.5027 91.5501Z" fill="#97D878"/>
<path d="M32.4275 95.9202C32.3581 95.9202 32.2888 95.9202 32.2194 95.8853L28.3 94.5574C27.9532 94.4526 27.7451 94.0682 27.8838 93.6838C27.9878 93.3344 28.4041 93.1247 28.7509 93.2645L32.6703 94.5924C33.0171 94.6972 33.2253 95.0816 33.0865 95.466C32.9825 95.7455 32.705 95.9202 32.4275 95.9202Z" fill="#97D878"/>
<path d="M32.4272 101.3C32.3232 101.3 32.1844 101.265 32.0804 101.195L27.2939 98.3299C26.9817 98.1552 26.8776 97.7358 27.0511 97.3864C27.2245 97.0719 27.6407 96.9671 27.9876 97.1418L32.7741 100.007C33.0862 100.182 33.1903 100.601 33.0169 100.951C32.8781 101.195 32.6353 101.3 32.4272 101.3Z" fill="#97D878"/>
<path d="M30.4505 106.017C30.3464 106.017 30.2077 105.982 30.1036 105.948L26.3923 103.851C26.0802 103.676 25.9414 103.257 26.1149 102.907C26.2883 102.593 26.7045 102.453 27.0513 102.628L30.7626 104.725C31.0748 104.899 31.2135 105.319 31.0401 105.668C30.936 105.878 30.6933 106.017 30.4505 106.017Z" fill="#97D878"/>
<path d="M28.5084 109.093C28.3697 109.093 28.2309 109.058 28.1269 108.953L23.8953 105.878C23.5832 105.668 23.5138 105.249 23.7566 104.934C23.9647 104.62 24.3809 104.55 24.6931 104.795L28.9246 107.87C29.2368 108.079 29.3062 108.499 29.0634 108.813C28.9246 108.988 28.7165 109.093 28.5084 109.093Z" fill="#97D878"/>
<path d="M149.593 93.646C149.524 93.646 149.489 93.646 149.42 93.611C149.316 93.5761 148.761 93.5062 148.241 93.4363C146.541 93.1917 143.732 92.7724 141.997 92.3181C139.708 91.6891 134.713 91.5493 134.644 91.5493C134.263 91.5493 133.985 91.2348 133.985 90.8505C133.985 90.4661 134.297 90.1865 134.679 90.1865C134.887 90.1865 139.916 90.3263 142.344 91.0252C144.009 91.4794 146.784 91.8988 148.449 92.1434C149.35 92.2832 149.628 92.3181 149.767 92.353C150.114 92.4579 150.356 92.8423 150.252 93.1917C150.183 93.4363 149.905 93.646 149.593 93.646Z" fill="#97D878"/>
<path d="M161.628 95.2905C161.594 95.2905 161.559 95.2905 161.524 95.2905L155.662 94.4169C155.281 94.347 155.038 93.9976 155.108 93.6481C155.177 93.2638 155.489 93.0192 155.871 93.089L161.732 93.9626C162.114 94.0325 162.357 94.382 162.287 94.7314C162.253 95.0459 161.975 95.2905 161.628 95.2905Z" fill="#97D878"/>
<path d="M143.141 103.712C143.072 103.712 142.968 103.712 142.899 103.677C140.401 102.733 127.741 101.336 127.603 101.301C127.221 101.266 126.978 100.916 127.013 100.532C127.048 100.148 127.395 99.9029 127.776 99.9379C128.296 100.008 140.714 101.371 143.384 102.384C143.731 102.524 143.905 102.908 143.766 103.258C143.662 103.537 143.419 103.712 143.141 103.712Z" fill="#97D878"/>
<path d="M153.79 104.271C153.755 104.271 153.721 104.271 153.651 104.271L150.703 103.712C150.321 103.642 150.079 103.292 150.148 102.908C150.217 102.524 150.564 102.279 150.946 102.349L153.894 102.908C154.276 102.978 154.518 103.327 154.449 103.712C154.414 104.026 154.137 104.271 153.79 104.271Z" fill="#97D878"/>
<path d="M168.288 98.1211C168.218 98.1211 168.149 98.1211 168.08 98.0862L165.235 97.2126C164.888 97.1078 164.68 96.7234 164.784 96.3739C164.889 96.0245 165.27 95.8148 165.617 95.9197L168.461 96.7933C168.808 96.8981 169.016 97.2825 168.912 97.6319C168.843 97.9464 168.565 98.1211 168.288 98.1211Z" fill="#97D878"/>
<path d="M146.194 111.503C143.662 111.503 141.477 111.258 141.338 111.258C140.956 111.223 140.713 110.874 140.748 110.49C140.783 110.105 141.13 109.861 141.477 109.896C141.511 109.896 146.436 110.42 150.009 109.896C150.391 109.826 150.737 110.105 150.772 110.455C150.841 110.839 150.564 111.188 150.217 111.223C148.934 111.468 147.512 111.503 146.194 111.503Z" fill="#97D878"/>
<path d="M148.691 115.663C148.379 115.663 148.067 115.419 148.032 115.069C147.963 114.685 148.24 114.335 148.587 114.3L154.241 113.427C154.622 113.357 154.969 113.636 155.004 113.986C155.073 114.37 154.796 114.72 154.449 114.755L148.795 115.628C148.761 115.663 148.726 115.663 148.691 115.663Z" fill="#97D878"/>
<path d="M165.444 113.042C165.097 113.042 164.82 112.797 164.785 112.448C164.75 112.063 164.993 111.749 165.375 111.679C165.409 111.679 169.884 111.12 171.999 109.512C172.312 109.268 172.728 109.338 172.936 109.652C173.179 109.967 173.109 110.386 172.797 110.596C170.404 112.448 165.687 113.007 165.513 113.042C165.479 113.042 165.479 113.042 165.444 113.042Z" fill="#97D878"/>
<path d="M129.58 86.3095C116.816 101.929 88.2358 139.634 84.4898 144.037C80.7092 148.405 56.4992 169.162 37.0757 155.289C33.3297 152.633 25.0053 139.914 31.2486 125.272C33.2603 120.52 36.8329 115.593 42.5905 110.735C66.0722 90.8173 124.377 49.0243 124.377 49.0243C124.377 49.0243 140.575 36.1999 147.547 41.127C147.547 41.127 147.582 41.127 147.582 41.1619C154.518 46.124 142.344 70.6546 129.58 86.3095Z" fill="url(#paint1_linear_8002_26800)"/>
<g opacity="0.2" style="mix-blend-mode:soft-light">
<path d="M129.58 86.3095C116.816 101.929 88.2356 139.634 84.4896 144.037C80.709 148.405 56.4989 169.162 37.0754 155.289C33.3295 152.633 25.0051 139.913 31.2484 125.272C35.9308 153.786 92.8486 107.975 121.88 79.3556C144.564 57.0264 147.512 45.5299 147.547 41.1619C147.547 41.1619 147.581 41.1619 147.581 41.1968C154.518 46.1239 142.344 70.6546 129.58 86.3095Z" fill="#308014"/>
</g>
<path d="M35.0288 138.796C34.9594 138.796 34.9247 138.796 34.8554 138.761C34.5085 138.656 34.2657 138.307 34.3698 137.922C34.5085 137.363 38.081 123.735 52.5793 113.951C60.973 108.29 69.0546 100.183 74.951 94.2772C79.3907 89.8044 82.6164 86.5895 84.5587 85.7159C84.9056 85.5761 85.2871 85.7159 85.4605 86.0654C85.5993 86.4148 85.4605 86.7992 85.1137 86.9739C83.4141 87.7427 80.119 91.0623 75.9222 95.2556C69.9911 101.196 61.8748 109.338 53.3424 115.069C39.295 124.539 35.7225 138.097 35.6878 138.237C35.6184 138.586 35.3409 138.796 35.0288 138.796Z" fill="#8FCC6A"/>
<path d="M92.6054 80.6832C92.3973 80.6832 92.2239 80.6133 92.0851 80.4386C91.8423 80.159 91.877 79.7047 92.1892 79.4951C92.2585 79.4252 100.167 72.8907 102.872 70.3398C104.086 69.1866 106.41 67.3346 108.873 65.3777C111.786 63.0714 115.081 60.4506 115.844 59.4372C117.509 57.2358 135.094 43.4329 139.118 42.3846C139.465 42.2798 139.846 42.5244 139.95 42.8738C140.054 43.2232 139.811 43.6076 139.465 43.7125C135.788 44.6909 118.307 58.4588 116.919 60.2759C116.052 61.4291 112.965 63.8402 109.705 66.426C107.381 68.2781 104.988 70.165 103.809 71.2833C101.068 73.904 93.3685 80.2638 93.0563 80.5085C92.9176 80.6482 92.7441 80.6832 92.6054 80.6832Z" fill="#8FCC6A"/>
<path d="M139.292 56.8875C139.118 56.8875 138.945 56.8176 138.841 56.7128C138.563 56.4681 138.563 56.0139 138.806 55.7343C141.477 52.9039 141.442 46.6489 141.442 46.579C141.442 46.1946 141.754 45.8801 142.101 45.8801C142.483 45.8801 142.76 46.1946 142.795 46.5441C142.795 46.8236 142.83 53.428 139.777 56.6778C139.673 56.8176 139.465 56.8875 139.292 56.8875Z" fill="#8FCC6A"/>
<path d="M138.008 67.406C137.869 67.406 137.696 67.3361 137.557 67.2313C137.279 66.9866 137.245 66.5673 137.488 66.2528C140.47 62.6885 143.661 58.5652 143.87 57.7614C143.904 56.4685 145.604 51.9957 145.951 51.1221C146.089 50.7726 146.471 50.5979 146.818 50.7377C147.165 50.8775 147.338 51.2619 147.199 51.6113C146.367 53.7429 145.222 57.0626 145.222 57.7964C145.222 59.0194 141.025 64.1911 138.528 67.1614C138.389 67.3361 138.181 67.406 138.008 67.406Z" fill="#8FCC6A"/>
<path d="M107.381 74.5701C107.242 74.5701 107.103 74.5351 106.999 74.4652C106.687 74.2556 106.618 73.8363 106.826 73.5218C107.069 73.1723 112.896 64.7508 115.601 63.2482C118.168 61.8155 120.735 60.0683 120.769 60.0683C121.081 59.8587 121.498 59.9286 121.706 60.2431C121.914 60.5575 121.845 60.9769 121.532 61.1865C121.498 61.2215 118.862 62.9687 116.26 64.4363C114.214 65.5545 109.566 71.9493 107.936 74.3255C107.832 74.4652 107.624 74.5701 107.381 74.5701Z" fill="#8FCC6A"/>
<path d="M126.389 77.924C126.25 77.924 126.111 77.8891 126.007 77.8192C125.695 77.6096 125.626 77.1902 125.834 76.8757L132.667 66.8468C132.875 66.5323 133.291 66.4624 133.603 66.6721C133.915 66.8818 133.985 67.3011 133.777 67.6156L126.978 77.6096C126.805 77.8192 126.597 77.924 126.389 77.924Z" fill="#8FCC6A"/>
<path d="M131.904 55.2783C131.731 55.2783 131.592 55.2084 131.453 55.1036C131.176 54.859 131.141 54.4396 131.384 54.1251L134.887 50.0367C135.13 49.7571 135.546 49.7222 135.858 49.9668C136.136 50.2114 136.17 50.6307 135.928 50.9452L132.424 55.0337C132.286 55.2084 132.112 55.2783 131.904 55.2783Z" fill="#8FCC6A"/>
<path d="M118.55 90.5716C118.342 90.5716 118.134 90.4668 117.995 90.292C117.787 89.9775 117.856 89.5582 118.168 89.3486L120.77 87.5315C121.082 87.3218 121.498 87.3917 121.706 87.7062C121.914 88.0207 121.845 88.44 121.533 88.6497L118.931 90.4668C118.827 90.5367 118.689 90.5716 118.55 90.5716Z" fill="#8FCC6A"/>
<path d="M96.6638 85.8183C96.4904 85.8183 96.317 85.7484 96.1782 85.6087C95.9354 85.3291 95.9354 84.9098 96.2129 84.6302L100.41 80.6117C100.687 80.3671 101.103 80.3671 101.381 80.6466C101.624 80.9262 101.624 81.3455 101.346 81.6251L97.1494 85.6436C97.0107 85.7484 96.8372 85.8183 96.6638 85.8183Z" fill="#8FCC6A"/>
<path d="M86.3618 93.6451C86.1537 93.6451 85.9803 93.5752 85.8416 93.4005C85.5988 93.121 85.6681 92.6667 85.9456 92.457L89.7262 89.382C90.0037 89.1374 90.4546 89.2072 90.6627 89.4868C90.9055 89.7664 90.8362 90.2206 90.5587 90.4303L86.778 93.5054C86.674 93.5752 86.5006 93.6451 86.3618 93.6451Z" fill="#8FCC6A"/>
<path d="M71.9681 104.969C71.76 104.969 71.5519 104.864 71.4132 104.689C71.205 104.375 71.2397 103.956 71.5519 103.746L78.4195 98.6441C78.7317 98.4345 79.1479 98.4694 79.356 98.7839C79.5641 99.0984 79.5294 99.5177 79.2172 99.7274L72.3496 104.829C72.2456 104.934 72.1069 104.969 71.9681 104.969Z" fill="#8FCC6A"/>
<path d="M44.0121 139.6C43.9427 139.6 43.8386 139.6 43.7693 139.565C43.4224 139.425 43.249 139.041 43.3877 138.691C43.4918 138.377 46.2319 131.353 50.0472 126.95C53.7585 122.617 62.1175 111.959 62.2216 111.854C62.4644 111.575 62.8806 111.505 63.1581 111.749C63.4356 111.994 63.5049 112.413 63.2621 112.693C63.1928 112.798 54.799 123.491 51.0531 127.824C47.4112 132.052 44.6711 139.111 44.6364 139.18C44.5323 139.425 44.2895 139.6 44.0121 139.6Z" fill="#8FCC6A"/>
<path d="M50.2555 152.146C50.0127 152.146 49.8046 152.041 49.6658 151.796C49.4924 151.482 49.5965 151.063 49.9086 150.853C50.0127 150.783 61.0424 144.283 64.8578 140.44C65.1353 140.16 65.5515 140.16 65.8289 140.44C66.1064 140.719 66.1064 141.139 65.8289 141.418C61.9096 145.367 51.0532 151.761 50.6023 152.041C50.4983 152.111 50.3595 152.146 50.2555 152.146Z" fill="#8FCC6A"/>
<path d="M71.9682 132.994C71.7601 132.994 71.5866 132.924 71.4479 132.75C71.2051 132.47 71.2398 132.016 71.552 131.806L76.9628 127.263C77.2403 127.019 77.6912 127.054 77.8993 127.368C78.1421 127.648 78.1074 128.102 77.7952 128.312L72.3844 132.854C72.2457 132.959 72.1069 132.994 71.9682 132.994Z" fill="#8FCC6A"/>
<path d="M83.3104 119.719C83.1716 119.719 83.0329 119.684 82.9289 119.614C82.6167 119.404 82.5473 118.985 82.7554 118.67L87.6807 111.367C87.8888 111.053 88.305 110.983 88.6172 111.192C88.9293 111.402 88.9987 111.821 88.7906 112.136L83.8653 119.439C83.7613 119.614 83.5532 119.719 83.3104 119.719Z" fill="#8FCC6A"/>
<path d="M96.6634 120.591C96.5247 120.591 96.3859 120.556 96.2472 120.451C95.935 120.207 95.9004 119.787 96.1085 119.508C112.445 98.2268 112.827 97.9822 112.965 97.8774C113.277 97.6677 113.694 97.7725 113.902 98.122C114.075 98.4015 114.006 98.7859 113.763 98.9956C113.035 99.7643 103.462 112.134 97.1837 120.346C97.0796 120.486 96.8715 120.591 96.6634 120.591Z" fill="#8FCC6A"/>
<path d="M65.3433 150.536C65.1005 150.536 64.8577 150.396 64.7189 150.151C64.5455 149.802 64.6843 149.417 65.0311 149.243C79.0438 142.254 91.6344 123.804 91.7384 123.594C91.9465 123.279 92.3627 123.209 92.6749 123.419C92.9871 123.629 93.0564 124.048 92.8483 124.363C92.7096 124.537 79.9803 143.302 65.6208 150.466C65.5514 150.501 65.4473 150.536 65.3433 150.536Z" fill="#8FCC6A"/>
<defs>
<linearGradient id="paint0_linear_8002_26800" x1="55.575" y1="88.1119" x2="55.216" y2="119.906" gradientUnits="userSpaceOnUse">
<stop stop-color="#38AD0E"/>
<stop offset="0.220656" stop-color="#50B72B"/>
<stop offset="0.620434" stop-color="#327B17"/>
<stop offset="1" stop-color="#39B60C"/>
</linearGradient>
<linearGradient id="paint1_linear_8002_26800" x1="78.2395" y1="83.0489" x2="108.627" y2="115.8" gradientUnits="userSpaceOnUse">
<stop stop-color="#38AD0E"/>
<stop offset="0.220656" stop-color="#50B72B"/>
<stop offset="0.620434" stop-color="#327B17"/>
<stop offset="1" stop-color="#39B60C"/>
</linearGradient>
</defs>
</svg>
