<svg width="200" height="200" viewBox="0 0 200 200" fill="none" xmlns="http://www.w3.org/2000/svg">
<path d="M26.0931 94.7235C29.0096 98.0536 32.3427 100.967 35.6758 103.673C38.1756 105.754 40.4672 107.836 42.967 109.917C43.8003 110.749 44.6336 111.79 45.4668 112.622C46.7168 114.287 48.5917 115.536 50.0499 117.201C51.0915 119.074 52.1331 120.947 53.1747 122.612C54.008 124.277 55.0496 125.942 56.0912 127.607C55.0496 126.775 53.7997 125.942 52.758 125.318C51.2998 124.277 49.8416 123.237 48.5916 121.988C46.5084 119.699 45.2585 116.993 43.1753 114.704C41.9254 113.455 40.8838 111.998 39.8422 110.749C38.8006 109.501 37.3424 108.252 36.5091 107.003C37.3424 108.46 38.5923 109.709 39.6339 110.957C40.6755 112.414 41.7171 113.871 42.7587 115.12C44.0086 116.577 45.0502 118.45 46.5084 119.907C46.3001 119.699 46.0918 119.699 46.0918 119.491C41.9254 115.744 38.1757 111.582 34.4259 107.419C34.2176 107.211 34.2176 107.627 34.2176 107.627C37.9673 112.206 41.9254 116.577 46.3001 120.531C46.9251 121.156 47.7584 121.78 48.5916 122.404C47.55 121.78 46.3001 121.364 45.2585 120.739C42.1337 119.074 39.2173 116.993 36.5091 114.496C36.3008 114.496 36.3008 114.704 36.5091 114.704C40.8838 119.074 46.5085 122.404 52.1331 125.11C52.5498 125.318 52.9664 125.734 53.383 125.942C54.4246 126.567 55.6745 127.191 56.9245 128.024C58.1744 130.105 59.6326 132.394 60.8826 134.476C59.841 133.851 58.7993 133.019 57.9661 132.394C56.0912 131.146 54.008 129.272 51.9248 128.648C51.7165 128.648 51.9248 128.856 51.9248 128.856C54.2163 129.689 56.2995 131.978 58.1744 133.435C58.1744 133.435 58.3827 133.435 58.3827 133.643C55.0496 131.978 51.2998 130.729 48.175 128.232C47.9667 128.024 47.9667 128.44 47.9667 128.44C50.0499 130.313 52.9664 132.186 55.6746 133.435C56.9245 134.059 58.3827 134.268 59.6326 135.1C60.4659 135.724 61.2992 136.141 62.3408 136.557C63.3824 138.014 64.424 139.679 65.4656 141.136C69.632 146.963 74.2151 152.583 79.2148 157.786C81.298 160.075 83.7978 161.948 86.0893 164.03C86.2976 164.238 86.7143 164.654 87.1309 165.07C86.9226 165.486 86.9226 165.903 86.7143 166.527C85.256 171.522 84.0061 176.309 83.7978 181.512C83.7978 182.761 85.4643 183.802 85.6727 182.137C86.5059 177.558 87.7559 172.979 89.0058 168.608C89.4224 167.36 89.6308 166.319 90.0474 165.07C92.7556 164.03 95.4637 163.197 97.9636 161.948C100.047 160.908 101.922 159.867 103.797 158.826C104.213 158.826 104.63 158.826 105.046 158.618C105.255 158.618 105.463 158.618 105.671 158.618C106.505 158.618 107.546 158.826 108.38 158.826C109.005 158.826 109.838 158.826 110.463 159.035C111.921 159.451 113.379 159.659 114.838 159.867C117.962 160.491 121.504 161.116 124.629 161.116V160.908C121.295 160.7 117.962 159.867 114.629 159.243C117.337 159.243 119.837 159.035 122.545 158.826V158.618C119.212 158.826 115.879 159.035 112.546 158.826C112.546 158.826 112.546 158.826 112.338 158.826C112.129 158.826 111.713 158.618 111.504 158.618C114.421 158.41 117.337 157.37 119.837 156.745C120.046 156.745 119.837 156.537 119.837 156.537C117.754 156.953 115.671 157.37 113.588 157.786C113.171 157.786 112.963 157.786 112.546 157.786C113.379 157.578 114.004 157.161 114.629 156.745C115.671 156.121 116.921 155.496 117.962 154.664V154.456C115.671 156.121 112.546 156.329 110.046 157.786C109.629 157.786 109.213 157.786 108.796 157.786C107.963 157.578 107.13 157.578 106.088 157.37C106.296 157.161 106.505 156.953 106.921 156.953C109.629 155.08 112.338 153.207 114.838 151.334C115.671 151.334 116.504 151.126 117.337 150.918C118.379 151.334 119.421 151.75 120.462 151.958V152.166C122.337 153.623 124.42 154.664 126.712 155.496C129.003 156.329 131.295 157.161 133.586 157.37C133.795 157.37 133.795 157.161 133.586 157.161C129.837 156.329 126.295 154.456 122.754 152.999C123.795 153.415 125.045 153.623 126.087 153.831C126.295 153.831 126.503 153.831 126.712 153.831C126.712 153.831 126.712 154.04 126.92 154.04C127.545 154.248 127.962 154.248 128.378 154.04C130.67 154.456 132.961 154.664 135.253 154.456V154.248C133.586 154.456 131.92 154.248 130.253 153.831C130.878 153.831 131.503 153.831 132.336 153.623C134.42 152.999 136.711 152.374 138.794 151.542C136.711 152.166 134.42 152.791 132.336 153.207C131.503 153.415 130.67 153.207 129.837 153.415C129.42 153.415 129.003 153.623 128.587 153.623C127.545 153.415 126.503 152.999 125.254 152.791C123.17 152.374 121.295 151.334 119.421 150.709C120.462 150.709 121.504 150.709 122.754 150.709C125.462 150.709 128.378 151.126 131.087 151.126C128.587 150.918 126.087 150.709 123.379 150.501C126.712 149.877 130.045 148.628 133.378 147.379V147.171C131.295 147.796 129.212 148.42 127.128 148.836C125.254 149.253 123.17 149.877 121.295 150.085C120.046 150.085 118.796 150.085 117.754 150.085C117.754 150.085 117.754 150.085 117.546 150.085C117.337 149.877 116.921 149.877 116.712 149.877C116.712 149.877 116.712 149.877 116.504 149.877C118.796 148.004 121.087 146.131 123.379 144.258C125.67 144.258 127.753 144.049 130.045 143.841C130.253 143.841 130.67 143.841 130.878 143.841C133.795 144.466 136.919 144.674 139.836 145.09C142.544 145.506 145.461 146.131 148.169 145.714C145.044 145.923 141.919 144.882 138.586 144.674C136.295 144.466 134.003 144.258 131.92 143.841C133.378 143.633 134.836 143.425 136.295 143.217C136.503 143.217 136.711 143.217 136.711 143.217C139.003 143.009 141.503 142.593 143.794 142.176C146.502 141.76 149.002 141.344 151.71 140.928V140.719C148.794 141.344 146.086 141.344 143.169 141.968C141.919 142.176 140.669 142.384 139.419 142.593C142.961 141.552 146.294 140.095 149.835 138.846V138.638C145.252 140.095 141.086 141.968 136.295 142.593C135.878 142.593 135.461 142.593 135.045 142.801C136.086 142.593 136.919 142.176 137.961 141.76C140.878 140.511 143.794 138.846 146.502 136.973V136.765C142.127 139.471 137.336 141.76 132.545 143.009C129.628 143.217 126.712 143.633 124.004 143.841C125.879 142.384 127.545 140.719 129.212 139.263C132.128 139.054 135.045 138.222 137.753 137.181C138.378 136.973 139.211 136.765 139.836 136.557C144.419 136.557 149.002 135.308 153.585 134.476V134.268C149.21 134.892 145.044 135.516 140.669 136.141C142.752 135.516 144.627 134.684 146.711 133.643C143.169 135.1 139.628 136.141 136.086 137.181C137.544 136.349 139.003 135.1 140.253 134.268C142.544 132.603 144.627 130.938 146.919 129.481V129.272C145.669 129.897 144.419 130.521 143.377 131.146C142.336 131.978 141.294 132.811 140.044 133.643C138.794 134.476 137.336 135.516 136.086 136.349C135.461 136.765 134.836 137.181 134.211 137.598C132.753 138.014 131.295 138.43 129.837 138.638C133.795 135.1 137.961 131.77 142.127 128.648C143.169 128.856 144.419 128.856 145.252 128.648C146.919 128.648 148.585 128.44 150.252 128.232C153.585 128.024 157.127 127.816 160.46 127.191V126.983C157.127 127.607 153.585 127.191 150.252 127.607C148.794 127.816 147.335 128.024 145.877 128.024C145.461 128.024 145.044 128.024 144.627 128.024C150.877 127.191 157.335 125.318 162.96 122.404C159.626 123.861 156.293 124.694 152.96 125.734C152.127 125.942 151.294 126.151 150.669 126.359C151.919 125.734 153.168 125.11 154.21 124.277C155.877 123.029 157.751 121.988 159.418 120.947C157.335 121.988 155.46 123.237 153.585 124.486C152.335 125.318 150.669 125.734 149.419 126.775C147.544 127.191 145.461 127.607 143.586 128.024C147.752 125.11 152.127 122.404 157.127 120.531V120.323C153.377 121.572 149.835 123.237 146.502 125.318C147.96 124.069 149.419 122.612 151.085 121.364C153.168 119.699 155.043 118.242 156.918 116.577C154.835 118.034 152.544 119.491 150.46 121.156C151.71 119.282 152.752 117.201 154.418 115.536V115.328C152.543 117.201 151.085 119.699 149.835 121.78C147.96 123.237 146.294 124.694 145.044 126.359C143.377 127.399 141.919 128.44 140.461 129.481C140.253 129.481 140.253 129.689 140.044 129.689C142.752 126.359 145.461 123.029 148.377 119.907V119.699C146.294 121.364 144.627 123.445 142.752 125.318C142.544 125.526 142.127 125.942 141.919 126.151C142.127 125.11 142.544 124.277 142.961 123.237C143.794 121.364 144.419 119.491 145.252 117.617C143.377 120.531 141.919 124.069 140.878 127.399C139.836 128.44 139.003 129.689 138.378 130.938C135.253 133.435 132.128 136.141 128.795 138.846C130.045 137.181 130.878 135.1 131.711 133.019C133.586 130.521 135.67 128.232 137.544 125.734C135.878 127.607 134.003 129.481 132.545 131.354C132.545 131.146 132.753 131.146 132.753 130.938H132.961V130.729C134.42 127.816 136.086 124.902 137.544 121.988C136.086 124.486 134.42 126.983 133.17 129.481C133.378 128.856 133.378 128.44 133.378 127.816C133.586 126.775 133.795 125.526 134.003 124.486C133.586 125.734 133.378 127.191 132.961 128.44C132.753 129.064 132.753 129.689 132.753 130.313C132.753 130.313 132.753 130.521 132.545 130.521C131.711 132.186 130.878 133.851 130.253 135.516C130.045 135.933 129.837 136.141 129.628 136.557C129.837 135.308 130.045 133.851 130.253 132.394C130.878 129.897 131.503 127.399 132.128 124.902C132.128 124.902 132.128 124.694 131.92 124.902C131.086 127.399 130.253 129.689 129.837 132.186C129.42 134.059 129.42 136.141 128.795 138.014C128.378 138.638 128.17 139.263 127.753 139.887C126.712 140.719 125.67 141.76 124.42 142.593C121.92 144.674 119.421 146.755 116.921 148.628C117.129 148.212 117.546 147.588 117.754 147.171C118.379 146.339 118.796 145.298 119.212 144.466C119.837 144.049 120.046 143.633 120.67 143.009C121.295 142.384 122.129 141.76 122.754 140.928C123.795 139.679 125.045 138.222 126.295 137.181C125.045 138.014 124.004 139.054 122.754 140.095C121.92 140.928 120.879 141.76 120.046 142.593C120.046 142.384 120.254 142.176 120.254 142.176C121.92 139.054 124.004 136.141 125.045 132.811C124.212 134.684 122.962 136.349 121.92 138.014C120.879 139.679 120.046 141.552 119.004 143.217C118.379 144.049 117.962 145.09 117.337 146.131C118.171 144.258 118.796 142.384 119.421 140.719C120.046 138.846 120.67 137.181 121.087 135.308C121.712 133.227 122.129 130.729 123.17 128.856C122.129 130.729 121.295 133.019 120.67 135.1C120.046 137.389 119.212 139.887 118.379 142.176C117.546 144.258 116.712 146.755 115.671 148.836C115.462 149.253 114.629 150.085 114.629 150.918C112.754 152.374 110.879 153.623 109.005 154.872C110.254 153.207 111.088 150.709 111.713 149.044C111.713 148.836 111.921 148.628 111.921 148.42C113.796 146.131 115.462 143.633 116.921 140.928C115.879 142.384 115.046 144.258 113.796 145.506C113.379 145.923 112.963 146.339 112.546 146.755C113.171 144.674 113.796 142.593 114.213 140.511C114.213 140.303 114.004 140.095 113.796 140.303C112.963 143.009 112.129 145.714 111.088 148.212C110.463 149.877 109.838 151.75 108.796 153.415C109.213 150.501 109.213 147.379 109.838 144.466C109.213 146.339 109.005 148.212 108.796 150.085C108.588 151.334 108.171 152.791 108.38 154.04C107.963 154.456 107.546 155.08 106.921 155.496C106.296 156.121 105.671 156.537 105.046 157.37C102.963 158.618 100.88 159.659 98.5885 160.908C96.297 162.156 94.0055 162.989 91.714 163.821C92.1306 163.613 92.3389 163.405 92.5472 162.989C93.5888 161.948 94.6304 160.7 95.672 159.451C97.7552 156.953 99.6301 154.248 101.713 151.542C104.005 148.42 106.088 145.298 108.171 141.968C108.796 141.552 109.421 141.136 110.046 140.928C111.088 140.303 112.338 139.887 113.588 139.054C114.629 138.43 115.879 137.806 116.921 137.181C117.962 136.557 118.796 135.724 119.837 135.1V134.892C117.546 136.141 115.462 137.806 112.963 138.846C112.754 138.846 112.754 139.054 112.546 139.054C114.838 136.973 116.712 134.684 118.796 132.394C117.337 133.851 115.879 135.1 114.421 136.557C113.379 137.598 111.921 138.638 111.088 139.887C110.463 140.303 109.838 140.511 109.213 140.928C110.463 139.054 111.713 136.973 113.171 135.308C113.796 134.476 114.629 133.643 115.254 132.603C115.254 132.603 115.462 132.603 115.462 132.394C115.462 132.394 115.462 132.394 115.462 132.186C116.296 131.146 116.921 130.313 117.754 129.272C119.004 128.856 120.046 128.44 121.295 128.024C124.004 127.607 126.712 127.607 129.42 126.775V126.567C127.753 126.775 126.087 126.775 124.42 126.775C128.17 125.318 131.92 123.861 135.045 121.572C132.336 123.029 129.42 124.069 126.503 125.11C128.587 123.653 130.462 121.988 132.336 120.115C130.67 121.364 129.212 122.612 127.545 123.861C128.378 122.821 129.212 121.78 129.837 120.739C130.253 120.323 130.462 119.907 130.878 119.491C132.753 119.074 134.628 117.826 136.295 116.993C138.586 116.161 140.461 114.912 142.544 113.663V113.455C140.253 114.704 137.961 115.744 135.461 116.577C134.211 116.993 132.961 117.617 131.711 118.242C132.753 116.993 134.003 115.744 135.253 114.704V114.496C133.17 116.161 131.087 118.034 129.628 120.115C128.795 121.156 127.962 122.404 126.92 123.445C126.503 124.069 125.878 124.486 125.462 125.11C125.045 125.318 124.629 125.526 124.212 125.942C122.545 126.567 120.67 126.983 119.004 127.816C121.295 124.694 123.587 121.78 125.878 118.658C126.087 118.45 126.295 118.034 126.503 117.826C127.962 117.201 129.628 116.577 131.087 116.161C129.837 116.369 128.587 116.785 127.545 116.993H127.337C127.962 116.577 128.587 116.161 129.003 115.744C130.253 114.912 131.711 113.871 132.961 113.039C135.253 111.166 137.753 109.709 140.253 108.252C141.086 108.876 141.919 109.501 142.752 110.125C145.044 111.79 147.336 113.455 150.044 114.287C145.669 112.414 141.711 109.084 137.961 106.17C139.003 106.795 140.044 107.211 141.086 107.836C141.711 108.044 142.336 108.46 142.961 108.668V108.876C143.169 109.084 143.586 109.084 143.794 109.292C146.711 110.749 150.044 111.998 153.168 111.998V111.79C150.46 111.582 147.96 110.541 145.669 109.501C145.877 109.501 146.294 109.501 146.502 109.501C147.752 109.709 149.21 109.709 150.46 109.501V109.292C148.377 109.292 146.502 109.084 144.419 108.668C143.169 108.044 141.919 107.211 140.461 106.587C140.461 106.587 140.461 106.587 140.253 106.587C141.294 106.795 142.336 107.003 143.377 107.003C144.627 107.211 145.669 107.211 146.919 107.003V106.795C144.419 107.211 141.711 105.962 139.211 105.754C139.211 105.754 139.211 105.754 139.003 105.754C138.794 105.546 138.586 105.546 138.169 105.338V105.13H137.961C136.711 104.505 135.253 103.673 133.795 103.049C133.378 102.84 132.961 102.632 132.336 102.424C134.42 102.008 136.503 101.592 138.794 101.384C139.211 101.384 139.628 101.175 140.044 101.175C140.669 101.384 141.294 101.384 141.711 101.592C142.752 102.008 143.794 102.424 144.836 102.84C145.461 103.257 145.877 103.881 146.502 104.297C147.96 105.546 149.21 106.587 150.669 107.627C153.793 109.709 156.918 111.79 160.46 112.831C160.46 112.831 160.46 112.831 160.46 112.622C158.376 111.998 156.71 110.749 154.835 109.709C152.96 108.46 150.877 107.419 149.21 105.962C148.377 105.338 147.752 104.505 146.919 103.881L146.711 103.673C147.127 103.881 147.544 104.089 147.96 104.297C150.044 105.546 151.919 106.587 154.002 107.627C155.252 108.252 156.71 108.876 158.168 109.084C158.168 109.084 158.168 109.084 158.168 108.876C156.085 108.46 154.002 107.211 152.335 106.379C150.46 105.338 148.794 104.089 146.919 103.257C146.502 103.049 146.294 102.84 145.877 102.84C145.877 102.84 145.877 102.84 145.669 102.632C146.294 102.84 146.711 102.84 147.335 103.049C150.877 103.881 154.418 104.297 157.96 104.505C154.418 104.089 150.877 103.673 147.335 102.632C146.919 102.632 146.502 102.424 146.086 102.216C146.711 102.216 147.335 102.216 147.96 102.216C149.21 102.216 150.252 102.216 151.502 102.216V102.008C149.002 102.008 146.294 101.384 143.794 101.175C143.169 100.967 142.544 100.551 141.919 100.343C144.836 99.7186 147.544 99.0942 150.46 98.2617C151.502 99.0942 152.752 99.3023 153.793 99.9267C154.418 100.135 155.043 100.551 155.668 100.759V100.967C156.502 101.592 157.127 102.008 157.752 102.84C158.168 103.257 158.376 103.673 158.793 104.297C158.793 104.297 159.001 104.297 158.793 104.089C157.96 103.049 157.335 102.008 156.293 101.175C156.71 101.384 157.127 101.592 157.543 101.592C160.043 102.424 162.751 103.257 165.459 103.673C165.459 103.673 165.459 103.673 165.459 103.465C162.335 102.632 159.418 101.592 156.502 100.135C154.835 99.3023 152.96 98.4698 151.294 97.8454C151.294 97.8454 151.294 97.8454 151.502 97.8454C152.752 98.2617 154.418 98.6779 155.668 98.8861C157.335 99.0942 158.793 99.5105 160.251 99.7186C160.668 99.7186 161.085 99.9267 161.501 99.9267C164.834 100.551 168.167 101.175 171.501 100.967C168.376 100.967 165.251 100.343 162.126 99.7186C164.418 99.5105 166.709 98.8861 168.792 98.6779C166.084 98.8861 163.376 99.5105 160.668 99.5105C158.793 99.0942 157.127 98.678 155.252 98.4698C154.627 98.4698 154.21 98.2617 153.585 98.0536C154.21 98.0536 155.043 98.0536 155.668 98.0536C157.96 98.0536 160.251 98.0536 162.335 97.4292V97.2211C159.835 97.6373 157.127 97.6373 154.418 97.4292C153.793 97.4292 153.168 97.4292 152.543 97.2211C152.752 97.2211 153.168 97.0129 153.377 97.0129C155.46 96.3886 157.335 95.5561 159.418 94.9317C160.876 94.7235 162.335 94.5154 163.793 94.7235C165.668 94.7235 167.543 94.7236 169.209 94.5154C166.501 94.7236 163.793 94.3073 161.085 94.5154C163.376 93.6829 165.668 93.0585 167.959 92.4342C168.167 92.4342 167.959 92.226 167.959 92.226C164.626 92.8504 161.293 93.891 157.96 94.9317C157.751 94.9317 157.751 94.9317 157.543 94.9317C157.335 94.9317 156.918 95.1398 156.71 95.1398C157.543 94.7235 158.168 94.3073 159.001 93.8911C161.085 92.8504 162.96 91.8098 165.043 90.561V90.3529C162.96 91.3935 161.085 92.4342 159.001 93.4748C157.751 94.0992 156.502 94.5154 155.252 95.1398C156.918 94.0992 158.376 92.8504 159.626 91.6017C159.626 91.6017 159.626 91.3935 159.418 91.3935C157.127 93.4748 154.627 94.9317 151.919 96.3886C149.21 97.2211 146.294 97.8454 143.377 98.4698C143.586 98.2617 143.794 98.2617 143.794 98.0536C145.461 97.0129 147.127 95.9723 148.585 94.9317C149.21 94.5154 149.835 94.0992 150.46 93.6829C154.418 92.0179 158.376 90.1448 162.335 88.2716C158.585 89.9367 154.835 91.6017 151.085 93.2667C153.585 91.6017 155.877 89.9367 158.168 88.2716C154.835 90.561 151.294 92.8504 147.96 94.9317C147.544 95.1398 147.127 95.3479 146.711 95.7642C149.627 93.0585 152.127 89.9366 155.252 87.4391V87.231C153.168 88.896 151.294 90.9773 149.419 92.6423C148.377 93.4748 147.335 94.5154 146.294 95.5561C145.669 96.1804 145.044 96.5967 144.419 97.0129C143.794 97.4292 143.377 97.6373 142.752 97.8454C142.127 98.0536 141.503 98.4698 140.878 98.8861C139.836 99.0942 139.003 99.3023 137.961 99.5105C137.753 99.5105 137.753 99.5105 137.544 99.5105C137.544 99.5105 137.544 99.5105 137.544 99.7186C137.336 99.7186 137.128 99.7186 136.919 99.9267C136.919 99.7186 137.128 99.7186 137.128 99.5105C137.336 99.3023 137.753 99.0942 137.961 98.6779C138.586 98.0536 139.211 97.4292 140.044 96.8048C142.544 95.3479 144.627 93.4748 147.127 92.0179C145.461 92.8504 144.002 93.6829 142.544 94.5154C142.336 94.7236 141.919 94.9317 141.503 94.9317C143.169 93.0585 144.627 91.1854 146.294 89.5204C144.419 90.9773 142.752 92.8504 141.086 94.7235C140.461 95.5561 139.628 96.1804 138.794 96.8048C139.628 95.5561 140.669 94.5154 141.294 93.2667C141.294 93.2667 141.294 93.0585 141.086 93.0585C140.253 94.7235 138.586 95.7642 137.544 97.4292C137.336 97.8455 136.919 98.2617 136.711 98.4698C136.295 98.8861 136.086 99.0942 135.67 99.5105C135.67 99.5105 135.67 99.5105 135.67 99.7186C135.67 99.9267 135.461 99.9267 135.461 100.135C133.378 100.551 131.503 100.759 129.42 101.175C129.003 101.175 128.587 101.175 128.378 101.384C128.378 101.384 128.378 101.384 128.17 101.384C128.378 101.175 128.587 100.967 128.795 100.551C130.045 99.9267 131.086 99.0942 132.128 98.4698C133.795 97.4292 135.253 96.1804 136.711 94.9317V94.7235C134.628 96.1804 132.336 97.6373 130.253 98.8861C131.087 98.0536 131.92 97.2211 132.753 96.3886C134.628 94.3073 136.711 92.226 138.586 89.9367V89.7285C137.336 90.9773 136.086 92.0179 134.836 93.4748C133.586 94.7236 132.545 96.1804 131.087 97.2211L130.878 97.4292C131.503 96.1804 131.92 95.1398 132.545 93.8911C133.17 92.6423 134.003 91.3935 134.42 90.1448C133.378 92.8504 131.503 95.3479 130.253 98.0536C129.42 98.8861 128.378 99.7186 127.962 100.551C127.753 100.759 127.753 100.967 127.545 101.175C125.878 101.384 124.212 101.384 122.545 101.592C121.295 101.8 119.837 102.008 118.587 102.216L118.796 102.008C118.796 102.008 118.796 102.008 119.004 102.008C119.212 101.8 119.629 101.592 119.837 101.175C120.254 100.967 120.462 100.551 120.67 100.343C122.337 98.6779 124.212 97.4292 126.087 95.9723C124.42 97.2211 122.545 98.6779 120.879 99.9267L120.67 100.135C120.879 99.7186 121.295 99.3023 121.504 98.8861C122.545 97.6373 123.587 96.5967 124.837 95.3479V95.1398C122.545 97.0129 120.462 99.0942 118.796 101.384V101.592L118.587 101.8L118.379 102.008C117.337 102.216 116.296 102.424 115.046 102.424C114.004 102.632 112.754 102.84 111.713 103.257C111.296 103.465 110.879 103.465 110.463 103.673C113.588 100.135 116.712 96.5967 120.254 93.6829C120.879 93.2667 121.504 92.6423 121.92 92.226C122.337 92.226 122.962 92.0179 123.379 92.0179C124.629 92.0179 125.878 91.8098 126.92 91.3935C127.337 91.1854 127.962 91.1854 128.378 90.9773C128.378 90.9773 128.587 90.9773 128.587 90.7692C130.462 90.1448 132.545 89.3123 134.211 88.2716C132.753 89.1041 130.878 89.7285 129.212 90.3529C129.42 90.1448 129.628 89.7285 129.837 89.5204C130.878 88.6879 131.711 87.6473 132.753 86.8148V86.6066C131.295 87.8554 129.628 89.1041 128.378 90.561C127.962 90.7692 127.337 90.7691 126.92 90.9773C125.67 91.1854 124.629 91.3935 123.379 91.3935H123.17C126.087 88.896 129.003 86.6066 132.128 84.5254C132.336 84.5254 132.545 84.5254 132.753 84.5254C133.586 84.5254 134.42 84.5254 135.253 84.5254C135.878 84.5254 136.711 84.7335 137.336 84.7335C137.336 84.7335 137.336 84.9416 137.544 84.9416C137.961 84.9416 138.378 84.9416 138.794 84.9416C139.628 84.9416 140.461 85.1497 141.294 85.1497C141.711 85.1497 142.127 85.1497 142.336 85.1497C144.627 85.566 146.919 85.9823 149.419 85.7741C152.335 85.566 154.835 85.3579 157.543 84.3172V84.1091C156.293 84.5254 154.835 84.9416 153.377 85.1497C151.919 85.3579 150.669 85.1497 149.21 85.3579C147.752 85.3579 146.086 85.3579 144.627 85.1497C144.627 85.1497 144.627 85.1497 144.419 85.1497C146.294 85.1497 148.377 84.7335 150.252 84.3172V84.1091C147.127 84.9416 144.002 84.9416 140.669 84.5254C141.294 84.3172 142.127 84.1091 142.752 83.6929C144.419 82.8604 146.502 82.4441 148.169 81.6116V81.4035C146.711 82.236 144.627 82.236 143.169 83.0685C141.711 83.6929 140.253 84.1091 138.794 84.3172H138.586C136.919 84.1091 135.253 83.901 133.378 83.901C133.17 83.901 133.17 83.901 132.961 83.901C135.461 82.236 137.961 80.7791 140.669 79.3222C144.419 79.5303 148.169 79.9466 151.919 79.3222C155.877 78.6978 159.626 77.4491 163.376 76.2003V75.9922C159.626 77.241 155.668 78.2816 151.71 78.6978C151.502 78.6978 151.502 78.6978 151.294 78.6978C152.127 78.2816 152.96 78.0735 153.585 77.6572C156.293 76.6166 158.793 75.1597 161.293 73.9109C157.335 75.7841 152.96 77.6572 148.585 78.906C146.086 78.906 143.586 78.906 141.086 78.906C142.336 78.2816 143.586 77.6572 144.836 77.241C147.336 76.2003 149.627 75.3678 152.127 74.3272C154.002 73.7028 155.877 73.2866 157.543 72.6622V72.4541C155.46 73.0784 153.168 73.4947 151.085 74.1191C149.627 74.5353 148.169 74.9516 146.711 75.5759C147.96 74.5353 149.21 73.7028 150.669 72.4541C152.752 70.5809 155.043 68.9159 157.127 67.2509C154.835 68.9159 152.752 70.5809 150.46 72.2459C149.627 73.0784 148.794 73.9109 147.752 74.5353C147.127 75.1597 146.294 75.3678 145.461 75.9922C145.252 75.9922 144.836 76.2003 144.627 76.2003C143.794 76.4085 143.169 76.8247 142.336 77.0328C142.336 77.0328 142.336 76.8247 142.544 76.8247C143.794 75.3678 145.044 73.7028 146.294 72.2459C148.169 71.4134 149.835 69.7484 151.502 68.4997C153.377 67.2509 155.043 65.5859 156.918 64.3371C154.835 65.5859 152.96 67.2509 150.877 68.4997C150.044 69.124 149.002 69.7484 147.96 70.3728C148.794 69.3322 149.627 68.4997 150.46 67.459C151.71 66.0021 152.752 64.129 154.418 63.0884C152.96 63.7128 151.919 65.1696 150.877 66.2103C149.419 67.6671 148.169 69.3322 146.711 70.789C145.461 72.2459 144.211 73.9109 142.961 75.3678C141.919 76.6166 140.878 77.241 139.836 78.2816C137.128 79.7385 134.42 81.1954 131.711 82.8604C132.961 81.4035 134.003 79.9466 135.045 78.4897C136.086 77.4491 137.544 76.4084 138.794 75.5759C140.044 74.7434 141.086 73.7028 142.127 72.6622C140.669 73.9109 139.211 74.9516 137.753 76.2003C137.128 76.6166 136.503 77.0328 135.878 77.6572C136.295 77.0328 136.711 76.4084 137.336 75.7841C138.586 74.3272 139.628 72.8703 140.878 71.6215C141.919 70.5809 142.961 69.124 144.211 68.2915V68.0834C141.503 69.7484 139.003 72.6622 137.128 75.3678C136.503 75.9922 136.086 76.8247 135.461 77.4491C137.128 74.7434 138.378 72.0378 140.044 69.3322C140.044 69.3322 140.044 69.124 139.836 69.124C138.169 72.0378 136.295 74.7434 134.42 77.6572C132.753 80.3628 130.67 82.6522 128.795 85.1497C126.712 86.6066 124.42 88.2716 122.545 90.1448C123.795 88.2716 124.837 86.1904 125.878 84.1091C126.087 83.4847 126.503 82.8604 126.712 82.0279C127.962 81.1954 129.003 79.7385 130.253 78.6978C129.003 79.5303 128.17 80.9872 126.92 81.8197C127.337 80.7791 127.753 79.7385 128.17 78.906C129.003 77.4491 129.837 75.9922 130.67 74.7434C129.837 76.2003 128.795 77.4491 128.17 78.906C127.337 80.571 126.712 82.236 125.878 83.901C125.045 85.7741 124.004 87.4391 122.962 89.1041C122.337 90.1448 121.504 90.9773 120.879 92.0179C117.337 95.1398 114.004 98.6779 110.879 102.216C112.338 98.6779 114.004 95.3479 115.462 92.0179C117.546 87.4391 120.046 83.0685 122.545 78.6978C123.795 78.0735 125.045 77.0328 126.087 75.9922C129.42 74.7434 132.545 72.2459 135.461 70.3728V70.1647C132.961 71.6215 130.462 72.8703 127.962 74.3272C129.003 73.2866 130.253 72.0378 131.295 70.9972C129.837 72.2459 128.378 73.4947 126.92 74.7434C128.378 72.8703 129.628 70.9972 131.295 69.3322C129.42 70.9972 127.337 73.0784 126.087 75.3678C126.087 75.3678 126.087 75.3678 125.878 75.5759C125.254 75.9922 124.212 76.6166 123.379 77.0328C125.045 74.1191 126.92 71.4134 128.587 68.7078H128.795C129.003 68.4997 129.212 68.2915 129.212 68.0834C130.045 67.8753 131.087 67.6672 131.711 67.459C133.17 66.8346 134.42 66.2103 135.878 66.0021C137.544 65.5859 139.003 65.1696 140.669 64.5453C141.294 64.3371 141.919 64.129 142.336 63.9209C142.544 63.9209 142.752 63.7128 142.961 63.7128C144.836 63.9209 146.711 63.9209 148.585 63.7128H148.794C149.002 63.7128 149.419 63.7128 149.627 63.5046C152.335 63.0884 155.043 62.6721 157.335 61.4234C155.252 62.464 152.752 62.8802 150.46 63.2965C153.793 62.2559 157.127 60.5909 160.46 59.3421V59.134C156.502 60.3827 152.543 62.0477 148.585 63.5046C147.127 63.5046 145.461 63.5046 144.002 63.5046C144.211 63.2965 144.627 63.2965 144.836 63.0884C147.544 61.8396 150.252 60.5909 152.752 59.3421C156.502 59.134 159.835 57.2608 163.376 56.6365C161.918 56.8446 160.668 57.0527 159.21 57.469C160.876 56.6365 162.335 55.804 164.001 54.7633C162.96 55.3877 161.918 56.0121 160.876 56.4283C160.043 56.8446 159.001 57.0527 158.168 57.6771C156.71 58.0933 155.46 58.3015 154.002 58.7177C155.46 57.8852 156.71 57.2608 158.168 56.4283C158.168 56.4283 158.168 56.4283 158.376 56.4283C161.71 55.1796 164.834 53.9308 167.751 51.8496C166.293 52.8902 164.418 53.7227 162.751 54.5552C161.71 54.9715 160.876 55.1796 159.835 55.5958C161.293 54.7633 162.543 53.7227 163.793 52.6821V52.4739C161.501 54.139 159.21 55.3877 156.71 56.6365C157.335 56.0121 157.96 55.5958 158.585 54.9715C160.043 53.7227 161.293 52.6821 162.543 51.2252C159.835 53.7227 156.71 55.5958 153.793 57.8852C152.127 58.7177 150.252 59.5502 148.585 60.1746C149.002 59.7584 149.419 59.3421 149.835 59.134C151.294 57.8852 152.752 56.6365 154.002 55.1796V54.9715C151.71 57.2608 149.002 58.9259 146.502 61.0071C146.086 61.2152 145.669 61.4234 145.461 61.4234C146.919 60.1746 148.169 58.7177 149.627 57.469C147.96 58.7177 146.502 60.1746 144.836 61.4234C144.627 61.6315 144.211 61.8396 144.002 62.0477C142.336 62.6721 140.878 63.2965 139.211 63.9209C137.961 64.3371 136.503 64.5453 135.253 64.9615C133.795 65.3778 132.336 66.2103 130.878 66.4184C130.67 66.4184 130.462 66.6265 130.045 66.6265C130.045 66.4184 130.253 66.2103 130.253 66.2103C130.462 65.794 130.878 65.3778 131.087 64.9615C131.087 64.9615 131.295 64.9615 131.295 64.7534C133.378 63.2965 135.461 62.0477 137.336 60.799C138.378 60.1746 139.628 59.3421 140.669 58.5096C144.836 57.6771 148.585 55.5958 152.543 54.3471V54.139C150.044 54.7633 147.752 55.5958 145.461 56.4283C144.627 56.6365 143.586 57.0527 142.752 57.2608C143.169 57.0527 143.377 56.8446 143.794 56.6365C145.877 55.5958 147.752 54.5552 149.835 53.5146C150.252 53.3064 150.877 53.3064 151.294 53.0983C152.543 52.6821 153.585 52.6821 154.835 52.2658C156.71 51.6414 158.585 51.2252 160.251 50.1846V49.9764C157.335 51.4333 154.21 51.8496 151.085 52.4739C152.335 51.6414 153.585 50.8089 154.835 49.7683C156.918 49.5602 159.001 48.5195 160.876 47.687C163.584 47.4789 166.501 46.4383 169.001 45.1895C167.334 45.8139 165.876 46.2302 164.001 46.6464C163.376 46.6464 162.959 46.8545 162.335 46.8545C162.335 46.8545 162.543 46.8545 162.543 46.6464C165.251 45.1895 167.751 43.7326 170.251 42.0676V41.8595C167.751 43.3164 165.043 44.7733 162.335 46.022C161.71 46.4383 160.876 46.6464 160.251 47.0627H160.043C158.793 47.4789 157.543 47.8952 156.293 48.5195C158.376 46.8545 160.46 45.3977 162.335 43.5245C162.335 43.5245 162.335 43.5245 162.543 43.5245C164.626 43.1083 166.501 42.2758 168.584 41.6514V41.4433C167.334 41.8595 166.293 42.2758 165.043 42.4839H164.834C167.126 41.2351 169.209 39.5701 171.292 38.1132C169.834 38.9457 168.376 39.7782 166.918 40.8189C166.084 41.4433 165.043 41.8595 164.209 42.4839C165.459 41.4433 166.501 40.1945 167.751 39.1539C170.042 38.3214 171.917 36.4482 174 35.4076C172.751 36.032 171.709 36.8645 170.459 37.2807C170.042 37.4889 169.626 37.697 169.001 37.9051C170.459 36.4482 171.917 35.1995 173.376 33.7426C171.292 35.4076 169.209 37.0726 167.334 38.9457C167.334 38.9457 167.126 38.9457 167.126 39.1539C166.293 39.7782 165.459 40.6108 164.834 41.2351C165.251 40.8189 165.668 40.1945 165.876 39.7782C166.709 38.7376 167.543 37.697 168.376 36.6564C168.376 36.6564 168.376 36.2401 168.168 36.4482C166.709 38.3214 164.418 40.1945 163.376 42.2758C161.71 43.7326 160.043 45.1895 158.168 46.4383C160.46 43.7326 162.335 40.4026 164.626 37.697C162.96 39.5701 161.501 41.6514 159.835 43.7326C158.585 45.3977 157.127 46.8545 155.877 48.5195C153.793 49.9764 151.71 51.4333 149.627 52.6821C150.46 51.8496 151.294 51.0171 151.919 50.1846C153.585 48.9358 154.835 47.687 156.293 46.4383C155.043 47.4789 153.793 48.3114 152.752 49.3521C154.627 47.0627 156.293 44.5652 158.168 42.692C154.21 46.2302 151.085 50.6008 147.335 54.3471H147.127C147.752 53.5146 148.169 52.6821 148.794 51.6414C149.835 49.9764 151.085 48.1033 152.127 46.2302C151.085 47.8952 149.835 49.7683 148.794 51.4333C148.169 52.4739 147.335 53.7227 146.502 54.5552C144.836 55.3877 143.169 56.0121 141.711 57.0527C139.003 58.3015 136.503 59.7584 134.003 61.4234C135.878 58.5096 137.961 55.5958 139.836 52.6821C140.461 52.2658 140.878 51.8496 141.503 51.4333C142.961 51.2252 144.211 50.8089 145.669 50.3927C146.919 49.9764 148.377 49.7683 149.419 48.9358V48.7277C148.585 49.1439 147.752 49.3521 146.711 49.5602C146.086 49.7683 145.461 49.9764 144.836 50.1846C144.002 50.3927 143.169 50.6008 142.544 50.8089C142.544 50.8089 142.752 50.8089 142.752 50.6008C144.627 49.5602 146.294 48.1033 148.169 46.8545V46.6464C146.086 47.8952 144.002 48.9358 141.919 50.1846C141.711 50.1846 141.711 50.3927 141.503 50.3927C142.544 49.1439 143.377 47.8952 144.419 46.8545C146.711 46.2302 149.21 44.7733 151.294 43.7326C151.502 43.5245 151.919 43.5245 152.127 43.3164C152.335 43.3164 152.335 43.1083 152.543 43.1083C153.168 42.692 153.793 42.4839 154.418 42.0676C156.502 41.4433 158.585 40.8189 160.668 39.7782V39.5701C159.21 40.1945 157.543 40.6108 155.877 41.027C157.127 40.1945 158.376 39.362 159.626 38.5295V38.3214C157.96 39.1539 156.502 40.1945 154.835 41.2351H154.627C155.252 40.8189 155.877 40.1945 156.502 39.7782C158.376 38.1132 159.626 36.032 161.501 34.367C159.835 35.4076 158.585 37.2807 157.127 38.5295C156.293 39.362 155.252 39.9864 154.418 40.8189C154.002 41.2351 153.585 41.6514 153.168 42.2758C152.544 42.692 151.919 42.9001 151.294 43.1083C149.627 43.7326 148.169 44.5652 146.502 45.1895C146.294 45.3977 145.877 45.3977 145.669 45.6058C146.711 44.357 147.96 43.3164 149.21 42.2758C150.669 41.4433 152.127 40.4026 153.377 39.362C154.627 38.3214 155.668 36.8645 157.127 35.8239C155.668 36.8645 154.418 38.3214 152.752 39.5701C152.127 39.9864 151.502 40.4026 150.877 41.027C150.252 41.4433 149.835 41.6514 149.419 42.0676C149.627 41.8595 149.835 41.4433 150.044 41.2351C151.085 39.7782 152.335 38.5295 153.377 37.0726C152.127 38.3214 150.877 39.5701 149.835 40.8189C148.794 42.0676 147.752 43.1083 146.711 44.357C145.877 45.1895 145.044 45.8139 144.211 46.6464C145.044 45.1895 145.877 43.9408 146.711 42.4839C146.711 42.4839 146.711 42.2758 146.502 42.2758C145.252 44.357 143.586 46.2302 142.336 48.3114C141.711 48.9358 141.294 49.5602 140.878 50.1846C140.253 50.8089 139.836 51.4333 139.211 52.2658C139.628 50.8089 140.044 49.5602 140.669 48.1033C141.711 45.6058 142.961 43.1083 144.419 40.8189C142.961 42.9001 141.711 44.9814 140.669 47.4789C139.836 49.5602 139.003 51.8496 137.961 53.9308C136.503 55.804 135.045 57.6771 133.586 59.5502C133.795 58.9259 134.003 58.3015 134.211 57.6771C134.836 55.1796 135.253 52.6821 136.086 50.1846C136.919 48.1033 137.753 46.022 138.794 43.9408C139.211 42.9001 139.628 42.0676 140.044 41.027C140.878 40.6108 141.711 40.4026 142.544 39.9864C142.961 39.7783 143.377 39.5701 143.794 39.362C144.627 39.1539 145.461 38.7376 146.294 38.5295C147.96 38.1132 149.835 37.697 151.085 36.4482C149.627 37.697 147.335 37.9051 145.461 38.3214C146.086 37.9051 146.502 37.4889 147.127 37.0726V36.8645C146.294 37.4889 145.669 37.9051 144.836 38.3214C144.627 38.3214 144.627 38.3214 144.419 38.5295C142.961 38.9457 141.503 39.362 140.044 40.1945C140.253 39.9864 140.253 39.5701 140.461 39.362C140.878 39.1539 141.294 38.7376 141.711 38.3214C142.127 38.1132 142.336 37.697 142.752 37.4889C145.461 36.8645 147.96 35.6157 150.252 33.9507C152.543 32.9101 154.627 31.6613 156.71 30.2044C155.252 31.2451 153.585 31.8695 152.127 32.702C153.168 31.6613 154.418 30.8288 155.252 29.7882V29.5801C153.377 31.4532 151.085 33.1182 148.794 34.367C148.377 34.5751 147.96 34.7832 147.544 34.9913C148.794 33.9507 149.835 32.4938 151.294 31.4532C150.46 32.0776 149.835 32.9101 149.002 33.5345C148.169 34.1588 147.335 34.9913 146.502 35.6157C145.669 36.032 144.836 36.4482 144.002 36.6564C144.419 36.2401 144.836 35.8239 145.252 35.4076C147.335 33.1182 149.419 31.037 151.502 28.7476C150.669 29.5801 149.627 30.6207 148.794 31.4532C150.46 29.3719 151.71 27.2907 153.585 25.4175V25.2094C150.877 27.4988 149.002 30.6207 146.919 33.3263C146.502 33.7426 145.877 34.1588 145.461 34.7832C145.044 35.1995 144.627 35.6157 144.211 36.032C145.669 34.1588 146.919 31.8695 148.377 29.9963V29.7882C146.502 32.2857 144.419 34.7832 142.752 37.4889C142.752 37.4889 142.544 37.697 142.336 37.697H142.127C142.127 37.697 142.127 37.697 142.127 37.9051C141.711 38.3214 141.503 38.5295 141.086 38.7376C142.336 35.8239 143.586 32.9101 145.044 30.2044C145.044 30.2044 145.044 29.9963 145.252 29.9963C145.877 28.9557 146.502 27.7069 147.335 26.6663C149.835 25.6257 152.127 23.7525 154.21 22.2957C152.127 23.7525 150.044 25.0013 147.752 26.2501C148.377 25.4175 149.002 24.585 149.627 23.7525C150.877 22.0875 151.919 20.2144 153.377 18.7575C153.377 18.7575 153.377 18.5494 153.168 18.5494C151.502 20.0063 150.252 22.0875 148.794 23.7525C148.585 23.9607 148.377 24.3769 148.169 24.585C148.377 23.9607 148.585 23.5444 148.794 22.92C149.627 21.0469 150.669 19.1738 151.71 17.3006C151.71 17.3006 151.71 17.0925 151.502 17.0925C149.627 20.0063 147.96 23.1282 146.502 26.2501L146.294 26.4582C146.711 25.6257 147.127 24.7932 147.335 23.7525C147.96 21.6713 148.377 19.3819 149.002 17.0925C149.002 17.0925 149.002 16.8844 148.794 17.0925C148.169 19.59 147.544 22.0875 146.502 24.3769C146.086 25.4175 145.669 26.4582 145.252 27.7069C145.044 28.1232 144.627 28.5394 144.419 28.9557C143.794 29.9963 143.377 30.8288 142.752 31.8695C142.752 31.2451 142.752 30.6207 142.961 30.2044C143.169 29.3719 143.169 28.3313 143.377 27.4988C144.627 25.8338 145.669 23.9607 146.711 22.0875C146.711 22.0875 146.711 21.8794 146.502 21.8794C145.461 23.3363 144.419 24.7932 143.586 26.2501C144.211 23.3363 144.627 20.4225 145.669 17.7169C144.836 19.59 144.419 21.6713 144.002 23.7525C144.002 21.4631 143.377 19.3819 143.169 17.3006C143.169 18.5494 143.377 19.7981 143.586 20.8388C143.794 22.0875 143.586 23.3363 143.794 24.585C143.794 24.585 143.794 24.585 143.794 24.7932C143.794 25.2094 143.586 25.4175 143.586 25.8338C143.377 27.2907 143.169 28.7476 142.961 30.2044C142.752 31.037 142.961 32.0776 142.752 32.9101C141.919 34.5751 141.086 36.4482 140.253 38.1132C140.253 37.9051 140.253 37.697 140.253 37.4889V37.2807C140.253 36.032 140.461 34.7832 140.461 33.5345C141.294 30.8288 141.919 28.1232 142.752 25.4175C142.127 27.0826 141.919 28.7476 141.294 30.4126C141.086 30.8288 140.878 31.4532 140.669 32.0776C141.086 28.7476 141.919 25.6257 142.127 22.2957C141.919 24.1688 141.503 26.0419 141.086 27.9151C141.086 27.0826 140.878 26.2501 140.878 25.4175C140.669 23.9607 140.253 22.5038 140.253 21.0469C140.253 21.0469 140.044 20.8388 140.044 21.0469C140.044 23.9607 140.669 26.6663 140.461 29.5801C140.253 30.4126 140.044 31.4532 140.044 32.2857C139.836 33.1182 139.836 33.9507 139.628 34.9913C139.628 34.5751 139.419 33.9507 139.419 33.5345C139.211 31.6613 138.586 29.7882 138.169 27.9151C138.586 30.2044 139.211 32.2857 139.211 34.5751C139.211 35.4076 139.419 36.2401 139.628 37.0726C139.628 37.0726 139.628 37.2807 139.628 37.4889C139.211 36.6564 138.794 35.8239 138.586 34.9913C138.794 35.6157 138.794 36.4482 139.211 37.0726C139.419 37.4889 139.419 38.1132 139.836 38.3214C139.836 38.7376 139.836 39.362 139.836 39.7782C139.419 40.8189 139.003 41.6514 138.586 42.692C138.169 43.5245 137.961 44.357 137.544 45.1895C137.336 44.5652 137.128 43.9408 137.128 43.5245C137.128 43.1083 136.919 42.9001 136.919 42.4839C136.919 42.4839 136.919 42.4839 136.919 42.2758C136.919 42.0676 136.919 41.8595 136.711 41.6514C137.753 39.5701 137.544 36.8645 138.169 34.5751C137.753 35.6157 137.544 36.6564 137.336 37.697C136.919 38.9457 136.711 39.9864 136.503 41.2351C136.295 39.9864 136.295 38.7376 136.295 37.4889C136.295 38.1132 136.295 38.9457 136.295 39.5701C136.086 38.7376 136.086 37.697 135.878 36.8645C136.503 34.5751 136.919 32.0776 136.919 29.7882C136.919 32.0776 136.086 34.367 135.878 36.4482C135.67 35.1995 135.67 33.9507 135.461 32.702C135.461 34.5751 135.461 36.2401 135.878 38.1132C136.086 39.362 136.086 40.8189 136.503 41.8595C136.503 42.0676 136.503 42.2758 136.503 42.4839C136.711 43.5245 136.919 44.7733 137.128 45.8139C135.67 49.1439 134.628 52.4739 133.795 56.2202C133.17 58.5096 132.545 60.799 131.711 62.8802L131.503 63.0884C130.878 63.9209 130.253 64.7534 129.628 65.794C129.628 64.7534 129.42 63.7128 129.212 62.464C128.587 59.7584 128.378 57.0527 128.17 54.139C128.17 53.9308 128.17 53.5146 128.17 53.3064C129.42 52.0577 130.67 50.6008 131.711 49.1439C133.378 48.5195 134.628 47.0627 135.878 46.022C135.045 46.6464 134.211 47.0627 133.378 47.687C133.17 47.8952 132.961 47.8952 132.753 48.1033C133.586 46.8545 134.42 45.8139 135.253 44.5652V44.357C134.211 45.8139 132.961 47.2708 131.711 48.7277L131.503 48.9358C131.503 48.9358 131.503 48.9358 131.503 49.1439C130.462 50.3927 129.42 51.4333 128.587 52.6821V52.4739C128.587 52.2658 128.587 51.8496 128.587 51.6414C128.587 51.4333 128.587 51.2252 128.587 50.8089C129.628 49.3521 130.67 47.687 131.295 46.022C132.336 43.7326 133.795 41.6514 134.628 39.362C133.795 41.027 132.753 42.692 131.711 44.357C131.92 43.7326 131.92 43.3164 132.128 42.692C132.545 41.6514 132.753 40.6108 132.961 39.362C132.961 39.362 132.961 39.1539 132.753 39.362C132.128 41.4433 131.087 43.3164 130.67 45.3977C129.837 46.8545 129.003 48.3114 128.378 49.7683V49.5602C128.378 48.9358 128.378 48.1033 128.17 47.4789C128.17 46.6464 128.17 45.8139 128.17 44.7733C128.795 43.1083 129.42 41.4433 130.045 39.7782V39.5701C131.295 37.2807 132.545 34.9913 134.003 32.702C134.003 32.702 134.003 32.4938 133.795 32.4938C132.753 33.9507 131.711 35.4076 130.67 37.0726C131.087 35.4076 131.711 33.7426 132.336 32.0776C131.503 33.9507 130.878 35.8239 130.253 37.697C130.253 37.2807 130.253 37.0726 130.253 36.6564C130.253 35.8239 130.253 34.7832 130.462 33.9507C130.462 33.9507 130.253 33.7426 130.253 33.9507C130.045 35.8239 129.628 37.4889 129.628 39.362V39.5701C129.42 39.9864 129.42 40.4026 129.212 40.8189V41.027C129.003 42.0676 128.587 42.9001 128.17 43.9408C128.17 43.9408 128.17 43.9408 128.17 44.1489C128.17 42.9001 128.17 41.8595 128.17 40.6108C128.17 39.9864 128.17 39.5701 128.17 38.9457C128.795 36.032 129.837 33.1182 130.67 29.9963C130.67 29.9963 130.67 29.7882 130.462 29.9963C129.837 32.4938 128.587 34.7832 127.962 37.2807C127.962 37.0726 127.962 36.6564 127.962 36.4482C127.753 34.367 127.962 32.2857 128.17 30.2044C128.17 30.2044 128.17 29.9963 127.962 30.2044C127.545 34.1588 127.545 38.1132 127.337 42.0676C127.337 41.8595 127.128 41.6514 127.128 41.4433C126.295 38.1132 125.045 34.7832 124.42 31.2451C124.42 31.037 124.212 31.2451 124.212 31.2451C124.42 33.5345 125.045 35.8239 125.462 38.1132C125.254 37.697 125.045 37.2807 124.837 36.8645C123.795 35.1995 122.337 33.5345 121.504 31.6613C122.129 33.1182 123.17 34.5751 124.004 36.032C124.629 37.2807 125.462 38.7376 126.087 39.9864C126.295 41.027 126.503 42.0676 126.92 43.1083C126.92 43.7326 127.128 44.5652 127.128 45.1895C126.92 45.6058 126.92 45.8139 126.92 46.2302V46.4383C126.712 45.6058 126.087 44.7733 125.878 44.1489C125.67 43.9408 125.67 43.5245 125.462 43.3164V43.1083C125.462 42.9001 125.254 42.9001 125.254 42.692C124.837 41.4433 124.212 40.4026 123.795 39.1539C124.004 39.9864 124.42 41.027 124.837 41.8595C124.004 40.6108 122.754 39.5701 122.129 38.1132C122.754 39.7782 124.004 41.2351 125.254 42.692C125.462 43.1083 125.67 43.7326 125.67 44.1489C125.878 44.9814 126.295 46.022 126.712 46.8545C126.503 46.6464 126.503 46.4383 126.295 46.2302C125.045 44.7733 123.795 42.9001 122.754 41.2351C123.587 42.692 124.42 44.5652 125.462 45.8139C126.087 46.6464 126.503 47.4789 126.712 48.3114C126.712 48.7277 126.92 49.1439 127.128 49.5602C126.92 49.1439 126.503 48.9358 126.295 48.5195C125.67 47.687 124.837 47.0627 124.212 46.2302C124.004 46.022 124.004 46.2302 124.004 46.4383C124.629 47.4789 125.462 48.3114 126.087 49.3521C126.503 49.7683 126.712 50.6008 127.128 51.0171C127.128 52.0577 127.128 52.8902 127.128 53.9308C127.128 54.7633 127.128 55.804 127.128 56.6365C126.92 56.4283 126.712 56.2202 126.712 56.0121C125.67 54.5552 124.629 53.0983 123.795 51.6414C123.379 50.1846 123.17 48.7277 122.754 47.2708C122.337 45.3977 121.92 43.5245 121.712 41.6514C121.712 41.6514 121.504 41.4433 121.504 41.6514C121.504 42.692 121.712 43.7326 121.712 44.7733C121.504 44.5652 121.504 44.357 121.295 44.1489C120.67 42.9001 119.837 41.8595 119.212 40.8189C120.254 42.692 121.295 44.5652 122.129 46.6464C122.129 47.0627 122.337 47.4789 122.337 47.8952C122.545 48.7277 122.545 49.5602 122.962 50.6008C122.754 50.1846 122.545 49.9764 122.337 49.5602C122.129 48.7277 121.712 47.8952 120.879 47.2708C119.629 45.3977 118.379 43.3164 117.337 41.4433C118.171 43.3164 119.212 44.9814 120.254 46.6464C118.587 45.3977 117.337 43.9408 115.671 42.692C116.921 43.9408 117.962 45.1895 119.212 46.4383C120.046 47.0627 120.67 47.687 121.295 48.5195C121.712 49.1439 122.129 49.9764 122.545 50.6008C123.379 52.2658 124.212 54.139 125.462 55.5958C126.087 56.4283 126.712 57.0527 127.128 57.6771C127.128 58.9258 127.337 59.9665 127.545 61.2152C127.753 62.2559 127.962 63.2965 127.962 64.5453C127.128 63.5046 126.087 62.6721 125.045 61.8396C123.587 60.5909 122.129 59.134 120.879 57.6771C120.879 56.6365 120.462 55.3877 120.046 54.3471C119.629 52.8902 119.004 51.6414 118.587 50.1846C119.004 52.4739 120.046 54.7633 120.254 57.0527C119.212 56.0121 118.379 54.9715 117.546 53.7227C116.296 52.2658 115.254 50.6008 114.004 49.1439C114.004 48.3114 114.004 47.2708 113.796 46.4383C114.213 44.9814 114.004 43.3164 114.213 42.0676C115.462 39.7783 116.712 37.4889 117.546 34.9913C116.504 37.0726 115.046 38.9457 114.213 41.2351C114.421 38.9457 114.421 36.6564 114.213 34.5751C114.213 34.5751 114.004 34.367 114.004 34.5751C114.004 36.2401 114.004 37.9051 114.004 39.7782C114.004 39.5701 113.796 39.5701 113.796 39.362C113.379 38.7376 113.171 37.9051 112.963 37.0726C112.338 35.4076 111.921 33.7426 111.504 32.0776C111.921 33.5345 112.338 35.1995 112.754 36.6564C113.171 37.9051 113.796 39.1539 114.213 40.4026C114.004 41.8595 114.004 43.1083 113.796 44.5652C113.379 42.9001 112.963 41.2351 112.546 39.362C112.546 39.1539 112.338 39.362 112.338 39.362C112.546 41.2351 112.963 42.9001 113.379 44.7733C113.379 45.1895 113.379 45.6058 113.588 46.2302C113.588 46.6464 113.379 47.2708 113.379 47.687C112.963 46.8545 112.338 46.2302 111.921 45.3977C111.088 43.7326 110.254 42.0676 109.838 40.4026C110.046 39.362 110.046 38.3214 110.254 37.0726C110.463 35.6157 110.463 34.1588 110.879 32.9101C110.463 34.367 110.463 36.032 110.046 37.697C109.838 38.3214 109.63 39.1539 109.63 39.7782C109.213 38.1132 108.796 36.6564 108.588 34.7832C108.588 34.7832 108.38 34.5751 108.38 34.7832C108.38 35.6157 108.38 36.4482 108.588 37.2807C107.338 34.7832 106.505 32.0776 105.671 29.3719C106.088 31.037 106.505 32.702 106.921 34.1588C106.505 33.7426 106.088 33.3263 105.671 32.9101C104.838 32.0776 103.797 31.2451 102.963 30.2044C103.588 31.037 104.213 31.6613 104.838 32.4938C105.671 33.3263 106.505 34.1588 107.13 34.9913C107.338 36.032 107.755 37.0726 108.38 37.9051C108.588 39.5701 108.796 41.027 109.421 42.692C107.338 39.5701 105.463 36.2401 103.588 33.1182C103.588 32.9101 103.38 33.1182 103.38 33.3263C104.213 34.7832 104.838 36.032 105.463 37.4889L105.255 37.2807C103.797 35.8239 101.922 34.367 100.88 32.4938C100.88 32.2857 100.672 32.4938 100.88 32.702C101.713 34.1588 103.172 35.4076 104.421 36.6564C105.255 37.4889 105.88 38.3214 106.505 39.362C106.921 40.1945 107.338 41.027 107.963 42.0676C109.005 43.7326 110.046 46.2302 111.713 47.687C109.838 46.8545 108.171 45.6058 106.505 44.1489C105.463 41.4433 102.547 39.362 101.088 36.8645C101.088 36.8645 100.88 36.8645 101.088 37.0726C101.922 38.5295 103.172 39.9864 104.213 41.4433C104.63 42.0676 105.046 42.9001 105.671 43.5245C105.255 43.1083 104.63 42.692 104.213 42.2758C101.922 40.6108 99.6301 39.1539 97.3386 37.697C100.047 39.7782 102.755 41.8595 105.463 43.9408C106.713 44.9814 107.963 45.8139 109.421 46.8545C110.463 47.687 111.504 48.3114 112.754 48.5195C112.963 49.1439 113.379 49.5602 113.796 49.9764C112.546 49.3521 111.088 49.1439 109.838 48.5195C108.171 47.687 106.505 47.2708 104.838 46.6464C104.838 46.6464 104.63 46.8545 104.838 46.8545C106.713 47.687 108.38 48.7277 110.254 49.5602C111.713 50.1846 112.963 50.8089 114.629 51.2252C115.046 51.8496 115.254 52.2658 115.671 52.8902C116.504 53.9308 117.337 55.1796 118.171 56.2202C117.754 56.2202 117.546 56.4283 117.129 56.4283C116.087 56.6365 115.046 56.8446 114.213 57.0527C114.004 57.0527 114.213 57.2608 114.213 57.2608C115.254 57.0527 116.504 57.0527 117.546 57.0527C117.962 57.0527 118.379 57.0527 118.796 57.0527C119.837 58.5096 121.087 59.7584 122.337 61.0071C123.379 62.0477 124.629 63.0884 125.67 64.3371C126.295 64.9615 126.712 65.3778 127.337 65.794C127.753 66.2103 128.378 66.4184 128.587 66.8346C128.587 67.0428 128.587 67.0428 128.587 67.2509C126.92 68.7078 125.878 70.789 124.837 72.6622C124.42 73.2866 124.004 74.1191 123.795 74.9516C120.67 79.9466 117.754 84.9416 115.254 90.1448C112.963 94.7236 111.088 99.3023 109.005 103.881C108.796 102.424 108.796 100.967 108.796 99.7186C108.588 97.6373 108.38 95.7642 108.171 93.6829C108.171 93.2667 107.963 92.8504 107.963 92.4342C110.254 89.7285 111.296 85.7741 112.546 82.6522C111.713 84.5254 110.879 86.3985 109.838 88.2716C109.63 88.6879 109.421 89.1041 109.005 89.5204C109.629 87.0229 109.838 84.5254 110.671 82.236C110.671 82.236 110.671 82.0279 110.463 82.0279C109.421 84.7335 109.005 87.6473 108.171 90.3529V90.561C107.963 90.7692 107.755 91.1854 107.755 91.3935C107.338 87.8554 107.13 84.5254 107.13 80.9872C107.546 80.571 107.963 79.9466 108.38 79.3222C110.879 77.6572 113.379 75.9922 115.671 73.9109C118.171 71.6215 120.254 68.9159 122.545 66.4184C120.046 68.7078 117.754 70.9972 115.254 73.2866C114.004 74.3272 112.754 75.5759 111.296 76.4084C114.421 73.4947 117.129 69.5403 119.004 65.794C119.004 65.794 119.004 65.5859 118.796 65.5859C116.504 69.7484 113.379 74.3272 109.838 77.241C109.63 77.241 109.63 77.4491 109.421 77.4491C110.046 76.4084 110.671 75.5759 111.296 74.5353C112.754 72.4541 113.588 70.1647 114.629 67.8753C114.629 67.8753 114.629 67.6672 114.421 67.6672C113.171 70.1647 111.921 72.4541 110.463 74.7434C110.671 74.1191 110.879 73.2866 111.088 72.6622C111.504 71.4134 111.921 69.9565 112.338 68.7078C112.338 68.4997 112.129 68.4997 112.129 68.4997C111.088 70.9972 110.254 73.7028 109.421 76.2003C109.421 76.2003 109.421 76.2003 109.421 76.4084C108.588 77.4491 107.755 78.6978 107.13 79.7385V79.5303C107.338 75.7841 107.755 72.2459 108.171 68.4997C109.005 67.0428 109.838 65.794 110.671 64.3371C111.504 62.6721 112.129 60.799 113.171 59.3421C113.171 59.3421 113.171 59.134 112.963 59.134C111.713 60.3827 111.088 62.2559 110.254 63.9209C109.63 64.9615 108.796 66.2103 108.171 67.2509C108.38 66.4184 108.38 65.5859 108.588 64.7534C109.213 60.5909 110.463 56.4283 111.296 52.2658C110.463 55.5958 109.63 58.7177 108.796 62.0477C108.796 59.3421 108.171 56.6365 107.755 53.9308C107.755 55.3877 107.963 56.8446 108.171 58.3015C108.38 59.7584 108.38 61.2152 108.588 62.6721C108.38 63.7128 108.171 64.7534 107.963 66.0021C107.755 67.0428 107.546 67.8753 107.546 68.9159C107.338 67.6672 107.13 66.2103 106.713 64.9615C106.296 62.464 106.088 59.7584 105.671 57.2608C105.88 59.7584 106.088 62.464 106.505 64.9615C106.713 66.6265 107.13 68.2915 107.338 69.9565C106.921 73.2866 106.296 76.6166 106.296 80.1547C106.296 80.9872 106.296 81.8197 106.296 82.8604C105.88 82.236 105.671 81.4035 105.463 80.7791C104.838 79.7385 104.422 78.4897 104.213 77.241C104.422 73.9109 104.421 70.3728 105.463 67.2509C104.421 69.9565 104.213 72.8703 104.005 75.7841C103.588 73.2866 103.172 70.789 102.755 68.0834C102.755 67.8753 102.547 67.8753 102.547 68.0834C102.755 70.9972 103.172 74.1191 103.797 77.0328C103.797 77.241 103.797 77.241 103.797 77.4491C103.797 77.6572 103.797 77.6572 104.005 77.6572C104.63 79.9466 105.463 82.0279 106.505 84.1091C106.505 87.4391 106.921 90.7692 107.338 94.0992C107.546 96.3886 107.755 98.6779 107.963 100.967C107.963 101.8 108.171 102.632 108.171 103.465C107.546 102.632 107.13 101.592 106.505 100.759C105.255 98.6779 104.213 96.1804 103.38 93.8911C103.172 93.0585 102.755 92.226 102.547 91.3935C102.338 89.7285 102.13 88.0635 101.922 86.3985C101.922 86.1904 101.922 86.1904 101.922 85.9823C102.338 85.3579 102.755 84.5254 102.963 83.6929C103.38 83.0685 103.588 82.0279 104.005 81.4035C103.38 81.8197 103.172 82.6522 102.755 83.2766C102.338 83.901 102.13 84.5254 101.713 85.1497C101.505 82.236 101.088 79.1141 101.713 76.4084C100.88 79.3222 101.088 82.6522 101.505 85.566C101.505 86.3985 101.713 87.231 101.713 88.0635C100.88 85.3579 100.255 82.6522 99.6301 79.9466C99.6301 79.7385 99.6301 79.7385 99.6301 79.5303C99.4218 78.2816 99.0052 77.0328 98.7969 75.7841C99.0052 74.9516 99.6301 74.1191 99.8385 73.2866C100.255 71.8297 100.463 70.3728 100.88 69.124C101.297 67.6671 101.713 66.2103 101.922 64.5453C102.13 63.0884 102.13 61.6315 102.338 60.1746C102.338 60.1746 102.338 59.9665 102.13 60.1746C101.922 61.8396 101.713 63.5046 101.297 64.9615C100.88 66.6265 100.255 68.2915 99.8385 69.9565C99.4218 71.4134 99.0052 72.8703 98.5885 74.3272C98.1719 71.4134 97.7552 68.7078 97.5469 65.794C97.9636 64.9615 97.9636 64.129 98.3802 63.2965C98.7969 62.464 99.0052 61.4234 99.4218 60.5909C100.047 58.5096 100.672 56.2202 101.297 54.139C100.047 57.6771 98.5885 61.2152 97.5469 64.7534C97.5469 62.8803 97.5469 61.2152 97.5469 59.3421C97.5469 59.3421 97.7552 59.3421 97.7552 59.134C97.7552 58.9259 97.7552 58.7177 97.7552 58.5096C97.7552 58.0933 97.7552 57.8852 97.7552 57.469C97.7552 56.2202 97.9636 54.9715 97.9636 53.5146C97.9636 52.4739 97.9636 51.4333 98.1719 50.3927C98.1719 50.3927 98.1719 50.1846 97.9636 50.3927C97.7553 51.4333 97.7552 52.4739 97.7552 53.5146C97.5469 54.7633 97.5469 55.804 97.3386 57.0527C97.1303 56.6365 97.1303 56.0121 96.922 55.5958C96.5053 54.3471 96.297 52.8902 95.8804 51.6414C96.297 53.9308 96.7137 56.2202 97.3386 58.5096C97.1303 60.3827 97.1303 62.2559 97.1303 64.129C96.922 62.8802 96.5053 61.6315 96.0887 60.3827C95.672 58.9259 95.2554 57.6771 94.8388 56.2202C94.6305 54.9715 94.0055 53.9308 94.0055 52.8902C94.0055 55.1796 95.0471 57.6771 95.4637 59.9665C96.0887 62.6721 96.7137 65.3778 97.3386 68.2915C97.5469 71.2053 97.9636 74.1191 98.3802 76.8247C98.1719 76.4085 97.9636 75.9922 97.7552 75.7841C96.922 74.1191 95.8804 72.6622 94.8388 71.2053C93.7972 69.7484 92.9639 68.2915 91.9223 66.8346C92.5472 65.3778 92.5472 63.7128 92.5472 62.0477C92.7556 61.2152 92.9639 60.3827 93.1722 59.5502C93.3805 58.5096 93.5889 57.469 93.7972 56.4283C93.7972 56.4283 93.5888 56.2202 93.5888 56.4283C93.3805 57.8852 92.9639 59.3421 92.5472 60.5909C92.5472 60.3827 92.5472 60.3827 92.5472 60.1746C92.3389 57.6771 92.1306 55.1796 91.9223 52.6821C91.9223 55.1796 92.3389 57.6771 92.3389 60.1746C92.3389 60.799 92.3389 61.4234 92.1306 62.2559C92.1306 62.6721 91.9223 62.8802 91.9223 63.2965C91.9223 63.5046 91.9223 63.5046 92.1306 63.5046C91.9223 64.5453 91.9223 65.3778 91.714 66.4184C91.5057 66.0021 91.2973 65.5859 91.089 65.3778C91.089 63.5046 91.089 61.6315 90.6724 59.7584C90.2557 57.6771 89.6308 55.5958 88.7975 53.5146C88.7975 53.3064 88.5892 53.5146 88.5892 53.5146C89.2141 55.804 90.0474 58.0933 90.2557 60.3827C90.464 61.8396 90.2557 63.0884 90.2557 64.5453C89.6307 63.7128 89.2141 62.8802 88.5892 62.0477C87.3392 60.1746 86.2976 58.3015 85.256 56.4283C85.881 55.3877 85.6727 53.9308 85.881 52.6821C86.0893 50.8089 85.6727 49.1439 85.881 47.2708C85.881 47.0627 85.6727 47.0627 85.6727 47.2708C85.4643 48.5195 85.4644 49.7683 85.256 51.2252C84.8394 49.1439 84.2144 47.0627 84.2144 44.9814C84.2144 44.9814 84.0061 44.7733 84.0061 44.9814C83.5895 47.687 84.6311 50.1846 85.0477 52.8902C84.8394 53.9308 84.8394 54.7633 84.6311 55.804C84.0061 54.7633 83.3812 53.5146 82.7562 52.4739C82.1312 49.3521 82.7562 46.2302 82.3396 43.3164C82.3396 43.3164 82.1312 43.1083 82.1312 43.3164C82.3395 46.022 81.7146 48.7277 82.1312 51.4333C81.5063 49.9764 80.673 48.5195 80.048 47.2708C79.2147 45.8139 78.1731 44.1489 77.7565 42.4839C78.1731 43.9408 78.7981 45.6058 79.6314 47.0627C80.4647 48.7277 81.0896 50.3927 81.9229 51.8496C83.1728 54.7633 84.6311 57.469 86.2976 60.1746C85.256 59.5502 84.0061 58.7177 82.9645 58.0933C81.7146 55.3877 79.2147 53.0983 77.7565 50.6008C79.0064 52.8902 80.4647 55.1796 81.9229 57.2608C80.2563 56.0121 78.7981 54.3471 77.1315 52.8902C79.0064 54.7633 80.673 56.8446 82.7562 58.5096C84.2144 59.7584 85.6727 61.0071 87.3392 61.8396C87.3392 62.0477 87.5476 62.0477 87.5476 62.2559C89.6308 65.794 91.5056 69.124 93.7972 72.4541C94.4221 73.2866 94.8388 74.1191 95.4637 74.7434C94.8388 74.3272 94.2138 73.9109 93.5888 73.4947C93.1722 73.0784 92.7556 72.6622 92.5472 72.4541C91.089 71.2053 89.6308 69.7484 88.3808 68.4997C85.6727 65.794 83.5895 62.8802 81.0896 59.9665C80.8813 59.7584 80.8813 60.1746 80.8813 60.1746C83.1728 63.5046 85.6727 66.6265 88.5892 69.5403C89.2141 70.1647 90.0474 70.789 90.6724 71.4134C89.6308 70.5809 88.3808 69.7484 87.3392 68.9159C85.881 67.8753 84.0061 67.2509 82.7562 66.0021C82.5479 65.794 82.5479 66.2103 82.5479 66.2103C84.0061 67.459 85.6727 68.4997 87.1309 69.5403C88.5891 70.5809 89.8391 71.8297 91.2973 72.8703C92.3389 73.7028 93.5888 74.3272 94.6304 75.1597C95.4637 75.7841 96.297 76.4085 97.1303 77.0328C97.1303 77.0328 97.1303 77.0328 97.1303 77.241C97.7552 78.0735 98.1719 78.906 98.7969 79.7385C99.0052 79.9466 99.2135 80.1547 99.2135 80.1547C99.4218 80.7791 99.4218 81.4035 99.6301 82.0279C100.047 83.6929 100.463 85.3579 100.88 87.0229C100.88 87.0229 100.88 87.0229 100.672 86.8148C99.6301 85.566 98.7969 84.3172 97.9636 83.0685C97.1303 81.8197 96.0887 80.7791 95.2554 79.7385C94.6304 78.906 93.5888 78.2816 92.9639 77.6572C92.9639 77.6572 92.7556 77.6572 92.9639 77.8653C93.7972 78.906 94.8388 79.5303 95.4637 80.571C96.297 81.6116 96.922 82.6522 97.7552 83.4847C98.1719 83.901 98.5885 84.5254 98.7969 85.1497C97.7552 84.3172 96.922 83.2766 95.8804 82.4441C94.8388 81.6116 93.5889 81.1954 92.7556 80.3628C92.7556 80.3628 92.5473 80.3628 92.7556 80.571C93.3805 81.4035 94.4221 81.8197 95.2554 82.4441C96.297 83.4847 97.1303 84.5254 98.1719 85.3579C99.0052 86.1904 99.8385 86.8148 100.463 87.6473C100.88 88.0635 101.088 88.4798 101.505 88.896C102.13 91.6017 102.963 94.3073 104.005 97.0129C104.838 99.3023 106.088 101.384 107.338 103.673C107.546 104.089 107.963 104.505 108.171 105.13C108.171 105.13 108.171 105.13 107.963 105.13C106.921 104.714 106.088 104.297 105.046 103.881C102.963 103.049 101.088 101.8 99.2135 100.343C97.1303 98.4698 95.2554 96.8048 93.1722 94.9317C92.9639 94.3073 92.7556 93.4748 92.5472 92.8504C92.7556 92.0179 93.1722 91.3935 93.3805 90.561C93.7971 89.3123 94.0055 88.2716 94.2138 87.0229C94.0055 88.4798 93.5888 89.9366 92.9639 91.3935C92.7556 91.8098 92.7556 92.0179 92.5472 92.4342C91.9223 90.561 91.2973 88.6879 90.6724 86.8148C90.0474 84.9416 89.4224 83.2766 88.7975 81.6116C88.3808 80.571 87.9642 79.5303 87.7559 78.4897C87.3392 77.4491 86.7143 76.6166 86.7143 75.5759C86.7143 76.8247 87.3392 78.2816 87.7559 79.5303C87.3392 79.1141 86.9226 78.6978 86.7143 78.0735C86.0893 77.0328 85.256 75.7841 84.6311 74.7434C85.6727 76.8247 86.9226 79.1141 88.3808 80.9872C89.0058 82.8604 89.8391 84.9416 90.2557 86.8148C90.2557 86.8148 90.2557 86.8148 90.2557 87.0229C88.7975 84.7335 87.3392 82.6522 86.0893 80.3628H85.881C86.7143 81.8197 87.5476 83.2766 88.3808 84.7335C89.0058 85.9823 89.6308 87.231 90.464 88.2716C90.8807 89.5204 91.089 90.9773 91.714 92.0179C91.9223 92.4342 92.1306 93.0585 92.1306 93.4748C92.1306 93.6829 92.1306 93.6829 92.1306 93.8911C91.2973 93.0585 90.4641 92.226 89.6308 91.3935C87.3392 89.1041 85.256 86.3985 83.1728 83.6929C82.9645 82.6522 82.5479 81.6116 82.3396 80.7791C81.9229 79.5303 81.5063 78.0735 81.0896 76.8247C81.2979 75.7841 81.5063 74.7434 81.5063 73.7028C81.5063 73.7028 81.5063 73.4947 81.7146 73.4947C81.9229 73.0784 82.1312 72.6622 82.3396 72.2459C82.1312 72.6622 81.7146 73.0784 81.5063 73.2866C81.5063 72.0378 81.5063 70.9972 81.298 69.9565C81.298 69.9565 81.0896 69.7484 81.0896 69.9565C81.0896 71.6215 80.8813 73.0784 80.673 74.5353V74.7434V74.9516C80.673 75.1597 80.673 75.3678 80.4647 75.5759C79.4231 72.2459 77.9648 68.9159 76.9232 65.3778C76.9232 65.1696 76.7149 65.3778 76.7149 65.3778C77.5482 68.7078 79.0064 71.8297 79.8397 75.1597C80.4647 77.4491 81.0896 79.7385 81.7146 82.0279C81.298 81.6116 81.0896 80.9872 80.673 80.571C79.4231 78.6978 78.3815 76.8247 77.1315 74.9516C76.0899 73.4947 75.0483 71.8297 74.6317 70.1647C74.6317 69.9565 74.2151 70.1647 74.4234 70.3728C74.84 72.0378 75.6733 73.7028 76.7149 75.1597C76.9232 75.7841 77.3399 76.2003 77.5482 76.8247C76.5066 75.3678 75.0483 74.3272 73.7984 72.8703C72.3402 71.2053 70.8819 69.5403 69.4237 67.8753C68.1738 66.4184 66.9239 64.9615 66.0906 63.2965H65.8822C66.7155 64.9615 67.7571 66.2103 68.7987 67.6672C69.8403 69.124 70.8819 70.789 72.1318 72.0378C74.215 74.3272 76.7149 76.6166 78.7981 79.1141C79.2147 79.9466 79.6314 80.7791 80.2564 81.6116C81.298 83.2766 82.3395 85.1497 83.5895 86.8148C82.3395 85.7741 80.8813 84.7335 79.6314 83.6929C77.9648 82.4441 76.2983 80.9872 74.84 79.5303C73.5901 78.2816 72.1318 77.0328 71.0902 75.3678C71.9235 76.8247 73.1735 78.2816 74.4234 79.5303C72.9651 78.6978 71.5069 78.0735 70.257 77.0328C70.257 77.0328 70.257 77.0328 70.0486 76.8247V76.6166C69.632 75.5759 69.007 74.9516 68.5904 73.9109C68.1738 72.8703 67.7571 72.0378 67.3405 70.9972C66.2989 68.9159 65.049 66.8346 64.2157 64.5453C64.8406 66.8346 65.8822 69.124 67.1322 71.2053C67.7571 72.2459 68.1738 73.4947 68.5904 74.5353C68.7987 75.3678 69.4237 75.7841 69.8403 76.4084C67.7571 74.9516 65.2573 73.2866 63.799 71.2053C65.2573 73.4947 67.7571 75.3678 69.8403 76.8247C70.8819 77.6572 72.1319 78.2816 73.3818 78.906C74.4234 79.5303 75.465 80.3628 76.7149 80.9872C77.7565 82.0279 78.7981 83.0685 79.8397 83.901C81.5063 85.3579 83.1728 86.6066 84.8394 87.8554C85.0477 88.0635 85.256 88.0635 85.4644 88.2716C86.506 89.7285 87.5475 91.1854 88.7975 92.4342C89.2141 92.8504 89.6308 93.2667 90.0474 93.6829C89.8391 93.4748 89.6307 93.4748 89.2141 93.2667C87.5475 92.6423 85.881 92.226 84.2144 91.3935C80.4647 89.5204 77.1315 87.4391 73.5901 85.1497C70.257 83.0685 67.1322 80.9872 64.0074 78.6978C63.5907 77.8653 63.1741 77.0328 62.7574 75.9922C62.3408 74.7434 61.9242 73.4947 61.2992 72.2459C59.6326 69.3322 57.9661 66.4184 56.7162 63.2965C57.7578 66.2103 59.4243 69.124 60.8826 71.8297C61.5075 73.2866 62.1325 74.5353 62.5491 75.9922C62.7575 76.8247 63.1741 77.241 63.3824 77.8653C63.1741 77.6572 63.1741 77.6572 62.9658 77.4491C61.2992 75.9922 59.6326 74.7434 58.1744 73.2866C56.7161 72.0378 55.0496 70.789 53.7997 69.3322C53.7997 69.3322 53.5913 69.3322 53.7997 69.5403C55.0496 71.2053 56.7161 72.2459 57.9661 73.7028L58.1744 73.9109C54.6329 71.6215 50.6749 69.9565 47.7584 66.8346C47.7584 66.8346 47.5501 66.8346 47.7584 67.0428C49.2166 68.7078 51.0915 70.1647 52.9664 71.4134C55.2579 72.8703 57.3411 74.5353 59.841 75.5759C60.6742 76.4084 61.7158 77.241 62.5491 78.0735C63.1741 78.4897 63.5907 79.1141 64.2157 79.5303C67.1322 81.8197 70.0486 83.901 73.1734 85.7741C73.3818 85.7741 73.3818 85.9823 73.5901 85.9823H73.3818C71.5069 84.9416 69.632 84.3172 67.5488 83.4847C65.4656 82.4441 63.3824 81.6116 61.5075 80.571C59.6326 79.5303 57.3411 78.6978 55.8829 77.241C57.1328 78.6978 59.216 79.7385 60.8826 80.7791C62.9658 82.0279 65.049 83.2766 67.3405 84.3172C69.4237 85.3579 71.5069 86.1904 73.5901 87.231C74.84 87.8554 76.0899 88.0635 77.5482 88.4798C80.048 89.9367 82.3395 91.3935 85.0477 92.226C86.7143 92.8504 88.5891 93.2667 90.2557 94.3073C90.8807 94.7236 91.2973 95.1398 91.9223 95.3479C92.5472 95.9723 93.3805 96.8048 94.2138 97.4292C93.5889 97.2211 92.9639 97.0129 92.1306 96.8048C90.8807 96.3886 89.6308 96.1804 88.3808 95.7642C88.1725 95.7642 88.1725 95.9723 88.3808 95.9723C90.2557 96.8048 92.1306 97.4292 94.0055 98.0536C93.3805 98.0536 92.9639 98.0536 92.3389 98.2617C91.9223 98.2617 91.5056 98.4698 91.089 98.4698C90.2557 97.8454 89.2141 97.6373 88.1725 97.2211C87.3392 96.8048 86.5059 96.3886 85.6727 96.1804C87.3392 96.8048 88.7975 97.8454 90.2557 98.4698C88.7975 98.8861 87.1309 99.3023 85.6727 99.5105V99.7186C89.2141 99.5105 92.5472 98.4698 96.0887 99.0942C97.1303 100.135 98.1719 100.967 99.4218 102.008C100.255 102.632 101.088 103.465 102.13 103.881C103.172 104.505 104.213 104.714 105.046 105.338C105.255 105.338 105.255 105.546 105.463 105.546C104.005 105.338 102.755 104.922 101.297 104.714C100.047 104.505 98.7969 104.297 97.7552 104.297C97.1303 104.089 96.5053 103.881 96.0887 103.465C94.8388 102.84 93.5889 102.424 92.1306 102.216C92.1306 102.216 92.1306 102.216 92.1306 102.424C93.7972 102.84 95.4637 103.465 97.1303 104.297C96.5053 104.297 95.8804 104.089 95.2554 104.089C93.5888 103.881 92.1306 103.465 90.464 103.673C90.2557 103.673 90.464 103.881 90.464 103.881C92.5472 103.881 94.4221 104.714 96.5053 105.13C97.3386 105.338 97.9636 105.338 98.7969 105.546C97.1303 106.17 95.4637 107.419 94.0055 107.419C93.7972 107.419 93.7972 107.836 94.0055 107.836C95.2554 107.836 96.297 107.211 97.5469 106.795C98.7968 106.379 99.8385 105.962 101.088 105.962C101.505 105.962 101.922 106.17 102.338 106.17C105.131 106.868 106.302 106.651 107 107C101.443 123.61 93.4351 141.519 89.0001 159.243C87.3214 156.448 86.2584 153.646 85.0477 150.501C83.3811 146.755 82.1312 142.801 80.673 138.846C81.298 137.806 81.7146 136.765 82.1312 135.933C82.7562 134.684 83.3811 133.435 84.0061 132.186C85.0477 131.354 85.881 130.105 86.7143 129.272C87.7559 128.232 88.5892 127.191 89.6308 126.151C91.089 124.277 92.9639 122.612 93.7972 120.323C92.7556 122.612 90.6724 124.486 89.0058 126.151C87.9642 127.191 87.1309 128.232 86.0893 129.272C85.6727 129.481 85.4644 129.897 85.256 130.313C86.9226 127.191 88.1725 123.861 89.4224 120.531C88.5892 122.404 87.7559 124.277 86.9226 125.942C87.1309 125.526 87.1309 125.11 87.3392 124.486C87.5476 123.237 87.7559 121.988 87.9642 120.739C87.9642 120.739 87.9642 120.531 87.7559 120.739C87.3392 122.196 87.3392 123.653 86.9226 124.902C86.506 125.942 86.0893 126.983 85.881 128.024C85.256 129.064 84.6311 130.313 84.0061 131.354C83.5895 132.186 82.9645 133.227 82.5479 134.059C83.5895 130.938 84.0061 127.816 84.6311 124.694C84.6311 124.694 84.6311 124.486 84.4228 124.694C83.3812 128.648 82.1312 132.394 81.298 136.349C81.298 136.349 81.2979 136.557 81.0896 136.557C80.8813 136.973 80.4647 137.598 80.2564 138.014C80.048 137.181 79.6314 136.349 79.4231 135.516C78.7981 133.643 78.1731 131.978 77.7565 130.105C78.1731 128.856 78.3815 127.399 78.5898 125.942C79.2147 125.526 79.6314 124.902 80.048 124.069C80.673 123.237 81.2979 122.404 81.9229 121.572C83.3811 119.074 84.4227 116.369 85.256 113.871C84.6311 115.536 83.7978 117.201 82.9645 118.866C83.3811 117.409 83.3811 115.744 83.5895 114.496C83.5895 114.496 83.5895 114.287 83.3812 114.496C82.7562 116.369 82.5479 118.45 81.9229 120.323C81.7146 120.739 81.5063 120.947 81.298 121.364C80.4647 122.404 79.6314 123.237 78.7981 124.486C79.0064 123.445 79.4231 122.404 79.6314 121.364C79.8397 120.947 79.8397 120.323 80.048 119.699C80.4647 117.826 80.8813 116.161 81.0896 114.287C81.5063 113.455 81.9229 112.622 82.1312 111.79C82.5479 110.957 82.7562 110.125 83.1728 109.292C82.5479 110.749 81.9229 112.206 81.298 113.663C81.5063 111.79 81.7146 110.125 81.7146 108.252C81.7146 111.374 81.0896 114.704 80.2564 117.826C80.2564 116.993 80.2564 116.369 80.2564 115.744C80.2564 113.247 80.2563 110.749 80.4647 108.252C80.048 110.541 79.8397 112.831 79.8397 115.12C79.8397 116.369 79.6314 117.617 79.6314 118.866C79.6314 119.699 79.6314 120.531 79.6314 121.156C78.7981 124.069 77.7565 126.775 77.3399 129.897C76.9232 128.648 76.7149 127.399 76.2983 125.942V125.734C76.2983 125.734 76.2983 125.526 76.09 125.526C75.6733 124.277 75.465 122.821 75.2566 121.572C75.465 120.739 75.8816 119.907 76.09 119.074C76.5066 117.617 76.7149 116.369 76.9232 114.912C77.3399 112.206 77.3399 109.501 78.1732 106.795C78.1732 106.795 78.1731 106.587 77.9648 106.795C77.1315 109.501 76.9232 112.414 76.2983 115.328C76.2983 115.536 76.09 115.952 76.09 116.161C76.09 115.12 76.09 114.079 76.09 113.039C76.09 111.374 75.8816 109.709 75.6733 108.044C75.6733 109.917 75.6733 111.79 75.6733 113.663C75.6733 114.912 75.465 116.369 75.6733 117.617C75.465 118.45 75.2567 119.282 75.0483 120.115C75.0483 120.531 74.84 120.739 74.84 121.156C74.84 120.947 74.84 120.947 74.84 120.739C74.4234 118.034 74.0067 115.328 73.5901 112.622C73.1734 110.125 72.7568 107.627 72.5485 105.13C72.5485 104.922 72.3402 104.922 72.3402 105.13C72.3402 107.627 72.7568 110.333 72.9651 112.831C72.9651 113.247 72.9651 113.455 72.9651 113.871C72.5485 112.622 72.3402 111.374 71.7152 110.333C70.8819 108.252 69.8403 106.17 69.007 104.089C69.632 106.379 70.6736 108.252 71.5069 110.541C72.1318 111.998 72.3402 113.871 73.1734 115.536C73.3818 117.409 73.5901 119.282 73.7984 121.156C73.7984 121.78 74.0067 122.404 74.0067 123.237C73.5901 122.404 72.9651 121.572 72.5485 120.739C72.3402 120.323 71.9235 119.699 71.7152 119.282C71.7152 116.161 70.6736 113.247 70.0486 110.125H69.8403C70.257 111.79 70.4653 113.247 70.8819 114.912C70.8819 115.12 70.8819 115.536 70.8819 115.744C70.257 114.704 69.8403 113.455 69.4237 112.414C69.8403 113.663 70.4653 115.12 71.0902 116.369C71.0902 117.201 71.2986 118.034 71.2986 118.658C71.0903 118.45 71.0903 118.242 70.8819 117.826V117.617C70.6736 117.409 70.4653 117.201 70.4653 116.785C70.0486 116.161 69.8403 115.536 69.4237 114.912C68.7987 113.455 67.9654 111.79 67.3405 110.125C67.5488 108.46 67.5488 106.795 67.3405 105.13C67.3405 106.587 67.1322 108.044 67.1322 109.501C66.0906 107.211 65.2573 104.714 64.2157 102.424C65.049 104.505 65.6739 106.587 66.5072 108.46C66.2989 108.044 65.8823 107.627 65.6739 107.211C65.049 106.379 64.2157 105.546 63.3824 104.714C64.2157 105.754 65.049 106.795 65.6739 107.836C66.0906 108.46 66.5072 109.292 66.9238 109.917C67.5488 111.582 68.1738 113.247 68.7987 114.912C68.1738 114.287 67.5488 113.663 66.9238 112.831C65.4656 111.166 64.2157 109.292 62.7574 107.419C65.049 110.541 66.9238 114.079 69.632 116.577C70.6736 118.45 71.7152 120.115 72.5485 121.988C72.9651 122.821 73.3818 123.445 74.0067 124.277C74.84 128.44 75.8816 132.603 77.1315 136.765C78.7981 142.176 80.673 147.796 82.9645 152.999C84.8394 157.161 85.7085 158.618 88.0001 162.573C87.9252 162.498 86.2245 161.224 86.0001 161C83.5002 158.502 82.1312 157.786 79.6314 155.288C75.6733 151.126 71.9235 146.755 68.5904 142.176C68.5904 141.344 68.5904 140.511 68.5904 139.471C69.8403 136.973 70.4653 133.851 70.8819 131.146C71.0903 128.44 71.9235 125.318 71.7152 122.612C71.7152 124.277 71.0903 125.942 70.8819 127.399C70.6736 128.648 70.4653 130.105 70.257 131.354C69.8403 133.643 69.4237 135.724 68.7987 138.014C68.7987 136.973 68.5904 135.933 68.5904 134.892C68.5904 134.476 68.5904 134.268 68.5904 133.851C68.3821 131.562 68.1738 129.272 67.7571 127.191C67.5488 126.151 67.3405 125.11 67.1322 124.277C67.7571 122.404 67.7571 120.531 68.1738 118.658C68.1738 118.658 68.1738 118.45 67.9654 118.658C67.7571 119.282 67.5488 120.115 67.3405 120.739C67.3405 120.531 67.3405 120.531 67.3405 120.323C67.3405 119.699 67.1322 119.074 67.1322 118.658C67.1322 118.45 66.9238 118.45 66.9238 118.658C67.1322 119.699 67.1322 120.739 67.1322 121.572C66.9239 121.988 66.9239 122.612 66.7155 123.029C66.2989 121.364 65.8822 119.699 65.4656 118.034C64.8406 115.952 64.424 113.871 63.3824 111.998C64.6323 114.496 64.8406 117.409 65.4656 119.907C66.0906 122.612 66.5072 125.11 66.9238 127.816C66.9238 128.44 67.1322 129.064 67.1322 129.481C66.2989 127.399 65.4656 125.318 64.424 123.445C64.2157 123.029 64.0074 122.404 63.799 121.988C63.799 120.115 63.3824 118.242 62.9658 116.369C62.9658 116.161 62.7574 116.369 62.7574 116.369C62.9658 117.826 63.1741 119.491 63.3824 120.947C62.1325 118.242 60.8825 115.536 60.0493 112.831C61.5075 117.201 63.1741 121.572 65.049 125.734C63.799 124.277 62.1325 122.821 61.0909 121.156C61.0909 120.947 60.8825 121.156 61.0909 121.364C61.7158 122.404 62.5491 123.445 63.1741 124.277C63.799 125.11 64.424 126.151 65.2573 126.567C66.0905 128.44 66.9238 130.313 67.5488 132.186C67.7571 133.643 67.7571 135.1 67.9654 136.557C67.9654 136.765 67.9654 136.973 67.9654 137.181C67.1322 134.892 65.4656 132.811 64.424 130.729C63.3824 128.856 62.7575 126.359 61.5075 124.694C62.3408 125.942 62.5491 127.399 63.1741 128.648C63.5907 129.689 64.2157 130.938 64.6323 131.978C65.6739 134.059 66.7155 136.349 67.9654 138.222C67.9654 139.054 67.9654 139.887 67.9654 140.719C67.5488 140.303 67.3405 139.679 66.9238 139.263C64.2157 135.516 61.5075 131.562 59.0077 127.607H59.216C59.4243 125.734 59.216 123.653 59.0077 121.988C58.7993 119.907 58.7994 117.617 58.3827 115.536C58.3827 115.12 58.1744 114.912 58.1744 114.496C58.3827 113.247 58.591 111.79 58.7994 110.541C60.0493 109.501 60.6742 107.835 61.2992 106.587C60.8826 107.419 60.4659 108.252 59.841 109.084C59.6326 109.501 59.216 109.917 58.7994 110.333V110.125C59.216 109.084 59.216 108.044 59.4243 107.003C59.841 105.546 60.0493 104.089 60.4659 102.84C60.4659 102.84 60.4659 102.632 60.2576 102.84C59.6326 104.714 59.0077 106.587 58.7994 108.668C58.7994 108.46 58.7994 108.252 58.7994 108.044C58.591 105.754 58.1744 103.673 57.7578 101.384C57.7578 101.175 57.5494 101.175 57.5494 101.384C57.7577 103.673 58.1744 106.17 58.1744 108.46C58.1744 110.333 57.9661 112.206 57.9661 114.079C56.9245 110.125 55.4662 106.379 54.6329 102.216C55.2579 106.587 56.7162 110.957 57.7578 115.536C57.7578 115.744 57.7578 115.952 57.7578 116.161C56.9245 114.496 55.8829 112.831 55.0496 111.374C54.8413 110.957 54.4246 110.541 54.2163 110.125C54.2163 107.627 52.9664 105.338 52.3414 103.049C52.3414 102.84 52.1331 103.049 52.1331 103.049C52.3414 104.297 52.7581 105.546 52.9664 106.795C53.1747 107.419 53.1747 108.252 53.383 108.876C52.3414 107.003 51.0915 105.13 50.2582 103.257C50.2582 103.049 50.0499 103.257 50.0499 103.257C52.1331 108.668 55.6745 113.455 57.9661 118.658C57.9661 119.699 58.1744 120.947 58.1744 121.988C58.3827 124.069 58.591 125.942 59.0077 128.024C57.9661 126.359 56.9245 124.902 55.8829 123.237C55.2579 122.196 54.6329 121.364 54.008 120.323C54.008 120.323 54.008 120.323 54.008 120.115C54.008 119.074 54.008 118.034 53.7997 116.993C53.5913 115.744 53.383 114.496 53.1747 113.247C53.1747 113.039 52.9664 113.247 52.9664 113.247C53.1747 114.496 53.383 115.952 53.383 117.201C53.383 117.826 53.383 118.45 53.383 119.074C52.7581 118.034 52.1331 117.201 51.7164 116.161C51.7164 115.744 51.5081 115.12 51.2998 114.704C50.6749 113.455 50.4665 112.414 50.2582 111.166C49.6332 109.084 49.0083 107.003 48.3833 105.13H48.175C48.5917 107.419 49.2166 109.709 49.6332 111.79V111.998C49.4249 111.582 49.2166 111.166 48.8 110.749C48.175 109.292 47.55 107.835 47.1334 106.17C47.1334 105.962 46.9251 106.17 46.9251 106.17C47.1334 107.211 47.5501 108.46 47.9667 109.501C46.9251 108.044 45.6752 106.795 44.8419 105.13C45.4669 106.795 46.5085 108.252 47.3417 109.709C47.7584 110.333 48.175 110.749 48.5916 111.374C49.4249 113.247 50.2582 115.12 51.0915 116.785C50.0499 115.536 48.8 114.496 47.9667 113.247C47.3417 112.414 46.7168 111.582 45.8835 110.749C45.2585 109.501 44.6336 108.252 44.0086 106.795C44.0086 106.379 44.0086 106.17 44.0086 105.754C44.2169 104.922 44.6336 103.881 44.8419 103.049C46.5085 100.967 47.7584 98.4698 48.5916 95.9723C48.5916 95.7642 48.3833 95.7642 48.3833 95.7642C47.5501 97.8454 46.3001 99.7186 45.0502 101.8C45.4668 99.3023 45.6752 96.8048 46.0918 94.5154C45.6752 96.5967 45.2585 98.8861 44.8419 100.967C44.6336 101.8 44.4253 102.84 44.2169 103.673C44.2169 103.673 44.2169 103.673 44.2169 103.881C44.2169 103.049 44.2169 102.216 44.2169 101.175C44.2169 98.8861 43.592 96.8048 43.3836 94.5154C43.3836 94.3073 43.1753 94.3073 43.1753 94.5154C43.3837 97.0129 43.8003 99.7186 43.592 102.216C43.592 103.257 43.592 104.505 43.592 105.546C43.1753 104.714 42.967 104.089 42.7587 103.257C42.5504 102.632 42.3421 102.008 42.1337 101.384C42.1337 100.967 41.9254 100.551 41.7171 100.135C40.8838 97.8454 40.2589 95.5561 39.6339 93.0585C39.6339 92.8504 39.4256 93.0585 39.4256 93.0585C39.8422 94.9317 40.2589 96.5967 40.6755 98.4698C40.6755 98.4698 40.6755 98.2617 40.4672 98.2617C39.4256 96.3886 37.9673 94.9317 36.9257 93.0585C37.759 94.7235 38.8006 96.3886 39.6339 98.0536C40.0505 98.8861 40.6755 99.7186 41.0921 100.551C41.5088 101.8 41.7171 102.84 42.342 103.881C42.7587 104.922 43.1753 105.962 43.592 107.003C43.592 107.211 43.592 107.419 43.8003 107.627C43.8003 107.627 43.8003 107.627 44.0086 107.627C44.2169 107.836 44.2169 108.044 44.4252 108.252C44.0086 107.835 43.592 107.211 43.1753 106.795C41.7171 104.505 40.0505 102.424 38.384 100.343C36.9257 98.2617 35.2592 96.1804 34.2176 93.8911C34.2176 93.6829 34.0092 93.891 34.0092 94.0992C34.8425 96.3886 36.3008 98.4698 37.5507 100.551C37.759 100.759 37.9673 101.175 38.1756 101.384C36.3007 99.9267 34.4259 98.6779 32.551 97.2211C32.551 97.2211 32.3427 97.2211 32.551 97.4292C34.4259 99.0942 36.5091 100.967 38.8006 102.424C40.0505 104.297 41.3004 106.17 42.5504 108.044L42.7587 108.252C41.3005 107.211 40.0505 105.962 38.5923 104.922C32.7593 100.759 29.2179 97.8454 26.0931 94.7235C26.0931 94.5154 25.8848 94.7235 26.0931 94.7235ZM132.336 63.2965C132.753 63.0884 132.961 62.8802 133.17 62.8802C132.753 63.0884 132.545 63.2965 132.336 63.2965ZM104.63 158.202C104.838 158.202 104.838 158.202 104.63 158.202C105.255 158.202 105.463 158.202 105.88 158.202C105.671 158.202 105.255 158.202 105.046 158.202C104.838 158.202 104.838 158.202 104.63 158.202ZM135.461 106.379C133.795 107.419 132.336 108.46 131.087 109.501C132.128 108.044 133.17 106.587 134.211 105.13C134.42 105.13 134.628 105.338 134.836 105.546C135.045 105.962 135.253 106.17 135.461 106.379ZM126.503 115.536C129.212 112.206 132.128 109.084 135.67 106.795C136.503 107.419 137.336 108.044 138.169 108.668C135.461 110.333 132.753 111.79 130.253 113.455C129.003 114.079 127.753 114.704 126.503 115.536ZM92.5472 155.496C94.1224 150.25 106.296 113.247 109.715 106.795C111.654 105.913 112.963 105.338 114.838 104.922C117.337 104.505 120.046 104.089 122.545 103.881C124.837 103.673 127.337 103.673 129.628 103.257C130.878 103.673 132.128 104.089 133.17 104.505C133.586 104.714 133.795 104.922 134.211 104.922C132.753 106.587 130.878 108.252 130.045 110.333C130.045 110.333 130.045 110.333 130.045 110.541C128.795 111.582 127.753 112.831 126.503 114.079C126.92 113.039 127.545 111.998 127.962 110.957C128.795 108.876 129.628 106.795 130.878 104.714C130.878 104.714 130.878 104.505 130.67 104.505C129.42 106.587 128.378 108.876 127.545 111.166C127.128 112.414 126.295 113.663 125.878 114.912C125.254 115.744 124.42 116.577 123.795 117.409L123.587 117.617C123.379 117.826 123.379 117.826 123.17 118.034C123.17 118.034 123.17 118.034 123.17 118.242C122.337 119.282 121.504 120.323 120.879 121.156C121.712 119.699 122.337 118.242 122.962 116.577C123.795 114.912 124.42 113.455 125.045 111.79C125.67 110.749 126.087 109.709 126.503 108.46C125.878 110.125 124.837 111.582 124.004 113.247C123.379 114.704 122.754 115.952 121.92 117.409C122.129 116.369 122.129 115.12 122.129 114.079C122.129 112.622 122.129 111.166 122.129 109.709C122.129 112.414 121.92 115.12 121.504 117.617C121.504 117.826 121.504 117.826 121.712 117.826C120.879 119.491 120.046 120.947 119.212 122.612C119.004 123.029 118.796 123.237 118.796 123.653C117.337 125.526 115.879 127.399 114.629 129.064C114.629 128.648 114.629 128.44 114.838 128.024C115.046 126.359 115.671 124.902 116.087 123.237C117.129 120.115 118.171 116.993 119.837 114.287C119.837 114.287 119.837 113.871 119.629 114.079C117.962 116.785 116.712 119.699 115.462 122.821C115.046 123.861 114.838 124.694 114.629 125.734C114.629 124.902 114.629 124.277 114.629 123.445C114.629 119.907 114.838 116.369 115.254 112.831C115.254 112.831 115.254 112.622 115.046 112.831C114.629 114.704 114.421 116.577 114.213 118.45C113.796 116.993 113.379 115.536 113.171 114.079C112.963 112.831 112.963 111.582 112.546 110.333C112.754 111.166 112.754 112.206 112.754 113.247C112.754 114.079 112.963 114.704 113.171 115.328C113.379 116.577 113.588 118.034 114.213 119.282C114.213 120.323 114.004 121.572 114.004 122.821C114.004 124.694 114.004 126.775 113.588 128.856C113.379 129.481 113.171 130.105 113.171 130.729C112.546 131.562 111.921 132.394 111.296 133.019C108.796 136.141 106.505 139.679 104.421 143.217C104.421 143.009 104.421 142.801 104.421 142.801C105.046 140.719 105.255 138.43 106.088 136.349C106.713 134.476 107.546 132.394 108.171 130.521C108.38 130.105 108.38 129.897 108.588 129.481C108.796 129.064 109.005 128.856 109.213 128.648C109.838 128.024 110.046 127.191 110.671 126.567C111.504 125.318 112.338 123.861 113.379 122.821C112.129 124.069 110.879 125.734 109.838 127.191C109.63 127.607 109.421 127.816 109.005 128.232C109.005 128.024 109.213 128.024 109.213 127.816C109.63 126.775 109.838 125.734 110.463 124.694C110.463 124.694 110.463 124.486 110.254 124.486C109.63 125.11 109.421 125.942 109.005 126.775C108.588 127.607 108.171 128.648 107.755 129.481C107.546 130.105 107.13 130.729 106.921 131.354C107.13 130.105 106.921 128.648 106.713 127.399C106.505 125.526 106.296 123.653 106.713 121.78C106.713 121.78 106.505 121.572 106.505 121.78C105.88 125.318 106.505 129.064 106.088 132.811C106.088 132.811 106.088 133.019 106.296 133.019C105.88 133.851 105.671 134.684 105.255 135.308C105.046 135.724 105.046 135.933 104.838 136.349C105.046 133.851 104.63 131.354 104.63 129.064C104.63 128.856 104.421 128.856 104.421 129.064C104.421 131.146 104.213 133.227 104.213 135.308C104.213 136.765 103.588 138.222 103.797 139.679C103.588 140.303 103.588 140.928 103.38 141.552C103.172 142.384 102.963 143.217 102.963 144.049C102.963 144.258 102.963 144.674 102.963 144.882C101.713 146.547 100.463 148.42 99.2135 150.085C97.1303 152.583 95.2554 155.288 93.1722 157.994C92.1306 159.243 92.0417 159.867 91.0001 160.908C91.625 159.035 91.9223 157.786 92.5472 155.496Z" fill="#49A652"/>
</svg>
