<svg width="200" height="200" viewBox="0 0 200 200" fill="none" xmlns="http://www.w3.org/2000/svg">
<path d="M99.8236 183C110.927 183 119.927 181.652 119.927 179.988C119.927 178.325 110.927 176.977 99.8236 176.977C88.7207 176.977 79.72 178.325 79.72 179.988C79.72 181.652 88.7207 183 99.8236 183Z" fill="#443838"/>
<path d="M83.3882 160.867L81.9774 161.497C80.5666 162.057 79.6496 163.458 79.6496 164.929V180.058H119.857V164.929C119.857 163.458 118.94 162.057 117.529 161.497L116.118 160.867H83.3882Z" fill="#443838"/>
<g opacity="0.4" style="mix-blend-mode:overlay">
<path d="M85.9274 163.318C91.4294 164.299 101.799 165.49 112.873 163.389C115.06 162.968 117.106 164.649 117.106 166.891V174.595C117.106 177.537 114.919 180.059 112.027 180.549C106.525 181.389 97.1431 182.23 86.8444 180.549C83.9523 180.059 81.7656 177.537 81.7656 174.595V166.751C81.6951 164.579 83.7407 162.968 85.9274 163.318Z" fill="url(#paint0_linear_2006_74321)"/>
</g>
<g opacity="0.4" style="mix-blend-mode:overlay">
<path d="M81.6952 176.767L81.3425 167.801C81.272 165.35 83.247 163.319 85.7159 163.319C87.9732 163.319 90.5126 163.319 91.9233 163.319C94.8154 163.248 106.384 163.669 108.923 161.708C108.923 161.708 91.5707 162.618 93.4752 160.097C93.4752 160.097 85.2221 159.676 84.1641 161.497C84.1641 161.497 81.5541 161.708 80.6371 163.319C79.6496 164.93 81.6952 176.767 81.6952 176.767Z" fill="url(#paint1_linear_2006_74321)"/>
</g>
<path d="M99.8235 168.221C110.225 168.221 118.657 165.744 118.657 162.688C118.657 159.632 110.225 157.154 99.8235 157.154C89.4218 157.154 80.9895 159.632 80.9895 162.688C80.9895 165.744 89.4218 168.221 99.8235 168.221Z" fill="url(#paint2_linear_2006_74321)"/>
<path d="M119.01 175.226C118.587 175.366 118.234 175.506 117.811 175.646C116.965 175.856 116.118 175.996 115.272 176.136C113.579 176.416 111.886 176.556 110.122 176.626C108.712 176.696 107.23 176.766 105.82 176.837C105.326 176.486 104.691 175.926 104.338 175.366C103.986 174.875 103.421 174.595 102.786 174.595H97.0728C96.3674 174.595 95.7325 175.015 95.3798 175.646C95.1682 175.996 94.8861 176.556 94.3217 176.907C92.6993 176.837 91.077 176.766 89.4546 176.696C87.7616 176.556 85.9981 176.416 84.3052 176.206C83.4587 176.066 82.6123 175.926 81.7658 175.716C81.3426 175.576 80.9193 175.506 80.5666 175.296C80.2139 175.155 79.7202 174.945 79.6496 174.455C79.6496 174.945 80.1434 175.155 80.4961 175.436C80.8488 175.646 81.272 175.786 81.6953 175.926C82.5417 176.206 83.3882 176.416 84.2347 176.626C85.9276 176.977 87.6911 177.257 89.384 177.467C92.8404 177.887 96.2968 177.957 99.7533 178.027C103.21 177.957 106.666 177.887 110.122 177.467C111.815 177.257 113.579 177.047 115.272 176.626C116.118 176.416 116.965 176.206 117.811 175.926C118.234 175.786 118.658 175.646 119.01 175.436C119.363 175.226 119.857 174.945 119.857 174.455C119.857 174.875 119.363 175.085 119.01 175.226Z" fill="#211B1B"/>
<path d="M88.0437 165.349C95.944 167.101 104.127 167.101 112.027 165.349C121.268 163.038 129.732 159.396 133.471 150.22L135.023 146.368C137.985 139.154 137.562 130.819 133.965 123.954L131.919 120.032C129.168 114.779 128.251 108.615 129.38 102.732L139.537 48.2388C141.583 37.3122 136.716 26.2456 127.546 21.0624L125.57 19.9418C122.185 17.9806 118.446 17 114.566 17H107.301C113.085 17.4203 121.126 24.0743 106.454 28.7671C91.8528 33.4599 97.4254 91.4549 106.454 108.685C115.483 125.916 114.355 132.57 108.923 147.419C103.492 162.268 67.8695 152.462 67.5168 152.392C71.6786 159.956 79.5084 162.968 88.0437 165.349Z" fill="url(#paint3_linear_2006_74321)"/>
<path d="M139.537 48.3089C141.583 37.3823 136.716 26.3156 127.545 21.1325L125.57 20.0118C122.184 17.9806 118.446 17 114.566 17H107.301H102.998H97.1431H85.4337C81.6245 17 77.8154 17.9806 74.4296 19.9418L72.4545 21.0625C63.2844 26.3156 58.4172 37.3823 60.4628 48.2388L70.6205 102.802C71.7491 108.685 70.8321 114.849 68.081 120.102L66.0354 124.025C62.4379 130.889 62.0852 139.224 64.9773 146.438L66.5292 150.29C66.8113 151.061 67.164 151.691 67.5167 152.392C71.608 159.956 79.4378 163.038 87.9731 165.42C95.8734 167.171 104.056 167.171 111.956 165.42C121.197 163.108 129.662 159.466 133.4 150.29L134.952 146.438C137.915 139.224 137.491 130.889 133.894 124.025L131.848 120.102C129.097 114.849 128.18 108.685 129.309 102.802L139.537 48.3089Z" fill="#F2B975"/>
<path d="M67.2347 32.8293C67.3052 32.6892 67.3758 32.6192 67.4463 32.4791C70.409 27.7162 76.1226 25.4749 81.6247 26.8057C88.5375 28.4867 102.504 30.658 119.434 27.0158C125.288 25.7551 131.355 28.4167 133.965 33.7399C135.305 36.4715 136.292 39.9736 136.504 44.5964C137.28 60.7061 125.712 96.4277 125.288 107.284C124.089 136.212 78.7326 149.029 74.4297 105.673C72.4546 85.7112 67.2347 61.5466 64.7658 50.55C63.2845 44.5264 64.0604 38.1525 67.2347 32.8293Z" fill="url(#paint4_linear_2006_74321)"/>
<g opacity="0.2" style="mix-blend-mode:overlay">
<path d="M99.894 127.106C114.932 127.106 127.122 105.908 127.122 79.7577C127.122 53.6078 114.932 32.4092 99.894 32.4092C84.8564 32.4092 72.666 53.6078 72.666 79.7577C72.666 105.908 84.8564 127.106 99.894 127.106Z" fill="url(#paint5_linear_2006_74321)"/>
</g>
<g opacity="0.1" style="mix-blend-mode:overlay">
<path d="M117.035 105.113C117.035 105.113 131.355 116.04 133.189 131.239C135.023 146.438 130.226 162.057 108.923 161.707C87.691 161.287 75.9815 152.181 72.2429 133.06C68.5044 113.938 91.7822 90.054 117.035 105.113Z" fill="url(#paint6_linear_2006_74321)"/>
</g>
<g opacity="0.49">
<path d="M97.8486 103.922C117.952 93.2755 134.106 65.8189 136.716 46.6274C137.844 38.3624 136.151 31.4282 133.823 26.3151C132.483 24.7742 131.002 23.3733 129.309 22.1826C129.662 28.6965 117.035 28.0662 117.035 28.0662C132.131 28.2763 118.375 86.0611 97.9897 96.4974C83.6702 103.782 74.7118 111.346 69.1392 117.72C68.7865 118.491 68.5044 119.331 68.0811 120.102L66.0355 124.024C62.438 130.888 62.0853 139.223 64.9774 146.438L66.5293 150.29C66.8114 151.06 67.1641 151.691 67.5168 152.391C69.3508 155.753 71.8902 158.205 74.9234 160.096C60.1102 136.422 78.1682 114.288 97.8486 103.922Z" fill="url(#paint7_linear_2006_74321)"/>
<g opacity="0.2" style="mix-blend-mode:overlay">
<path d="M97.8486 103.922C117.952 93.2758 134.106 65.8192 136.716 46.6277C137.844 38.3627 136.151 31.4285 133.823 26.3154C132.483 24.7745 131.496 23.1635 125.218 19.7314C128.392 25.8952 112.591 27.366 112.591 27.366C127.687 27.5762 118.446 86.1315 98.0602 96.4977C83.7408 103.782 74.7823 111.347 69.2097 117.721C68.857 118.491 68.5749 119.332 68.1516 120.102L66.106 124.024C62.5085 130.888 62.1558 139.224 65.0479 146.438L66.5998 150.29C66.8819 151.061 67.2346 151.691 67.5873 152.391C69.4213 155.753 71.9608 158.205 74.9939 160.096C60.1102 136.422 78.1682 114.288 97.8486 103.922Z" fill="url(#paint8_linear_2006_74321)"/>
</g>
<path d="M97.2139 107.424C72.3136 120.662 77.0397 152.882 79.0854 162.267C81.9069 163.528 84.9401 164.509 88.0438 165.349C88.1849 165.419 88.3965 165.419 88.5376 165.419C84.3758 151.831 76.4049 118.631 95.8737 112.257C120.492 104.132 133.33 81.8589 133.33 81.8589L134.529 75.2749C130.226 81.7888 119.01 95.8673 97.2139 107.424Z" fill="url(#paint9_linear_2006_74321)"/>
<g opacity="0.2" style="mix-blend-mode:overlay">
<path d="M97.2139 107.424C72.3136 120.662 77.0397 152.882 79.0854 162.267C81.9069 163.528 84.9401 164.509 88.0438 165.349C88.1849 165.419 88.3965 165.419 88.5376 165.419C84.3758 151.831 76.4049 118.631 95.8737 112.257C120.492 104.132 133.33 81.8589 133.33 81.8589L134.529 75.2749C130.226 81.7888 119.01 95.8673 97.2139 107.424Z" fill="url(#paint10_linear_2006_74321)"/>
</g>
</g>
<path opacity="0.56" d="M120.774 23.2338C120.703 26.0354 111.18 28.1367 99.4709 27.8565C87.8319 27.6464 78.3797 25.265 78.3797 22.4633C78.4502 19.6616 87.973 17.5603 99.6825 17.8405C111.392 17.9806 120.844 20.4321 120.774 23.2338Z" fill="url(#paint11_linear_2006_74321)"/>
<path opacity="0.49" d="M103.377 22.8976C103.387 22.3949 101.689 21.956 99.586 21.9175C97.4827 21.879 95.7701 22.2553 95.7607 22.7581C95.7514 23.2609 97.4489 23.6997 99.5522 23.7382C101.655 23.7768 103.368 23.4004 103.377 22.8976Z" fill="#CC5809"/>
<path d="M120.703 60.9163L90.7239 51.2504C88.9604 50.6901 87.0559 50.9703 85.5746 51.9509L85.2219 52.231L71.8194 61.1964C68.7863 63.2276 68.2925 67.4302 70.7614 70.0918L91.1471 92.1551L91.782 92.8555C93.5455 94.7467 96.2965 95.307 98.6243 94.2564L119.574 84.8707C121.479 84.0302 122.749 82.2791 123.031 80.2479L124.724 67.2901C125.147 64.4884 123.383 61.7568 120.703 60.9163Z" fill="#EF7100"/>
<path d="M96.226 95.7975C94.3214 95.7975 92.4169 95.027 91.0767 93.5561L69.9855 70.7924C68.5747 69.3215 67.9399 67.2903 68.222 65.2591C68.4336 63.2278 69.5622 61.4768 71.2552 60.2861L84.9398 51.1105C86.7738 49.9198 88.9605 49.5696 91.0061 50.27L120.985 59.9359C124.23 60.9865 126.205 64.1384 125.782 67.4304L124.089 80.3882C123.736 82.7696 122.255 84.8009 119.998 85.8515L99.0476 95.2371C98.1306 95.5874 97.2135 95.7975 96.226 95.7975ZM88.8899 52.0211C87.9024 52.0211 86.9854 52.3013 86.1389 52.8616L72.4543 62.0371C71.2552 62.8076 70.4793 64.0684 70.3382 65.4692C70.1971 66.87 70.6203 68.2709 71.6079 69.3215L92.6285 92.0852C94.0393 93.6262 96.2965 94.1165 98.2716 93.2059L119.222 83.8203C120.774 83.1198 121.832 81.719 122.043 80.038L123.736 67.0802C124.018 64.7688 122.608 62.5274 120.421 61.827L90.3713 52.2312C89.8775 52.0911 89.3837 52.0211 88.8899 52.0211Z" fill="white"/>
<path d="M104.338 88.8633C104.338 88.8633 100.811 87.5325 103.068 84.5206C105.326 81.5789 110.898 82.9797 110.193 85.7814L115.836 82.8396L97.0019 67.1502C97.0019 67.1502 99.6119 63.2978 97.0019 61.6168C94.392 59.8658 92.5579 62.4573 92.5579 62.4573C92.5579 62.4573 92.8401 59.7257 90.6534 59.2354C88.5372 58.7451 88.7488 60.0759 88.7488 60.0759C88.7488 60.0759 84.587 56.4337 84.5165 54.4725C84.5165 53.562 84.7987 52.7915 85.0808 52.1611L71.8195 61.1966C68.7863 63.2278 68.2925 67.4303 70.7614 70.0919L91.1472 92.1553C91.2177 92.1553 94.2509 93.9063 104.338 88.8633Z" fill="#FFB000"/>
<path d="M98.6242 94.1863L119.574 84.8007C121.479 83.9602 122.749 82.2091 123.031 80.1779L124.724 67.2201C125.076 64.4184 123.383 61.6867 120.632 60.8462L90.7239 51.2504C88.9604 50.6901 87.0558 50.9703 85.5745 51.9509L85.2218 52.231C84.9397 52.8614 84.587 53.7019 84.6575 54.5424C84.728 56.4336 88.8898 60.1458 88.8898 60.1458C88.8898 60.1458 88.6077 58.815 90.7944 59.3053C92.9106 59.7956 92.6989 62.5272 92.6989 62.5272C92.6989 62.5272 94.533 59.9357 97.1429 61.6867C99.7529 63.4378 97.1429 67.2201 97.1429 67.2201L115.765 82.8395L110.122 85.7812C110.898 82.9796 105.255 81.5087 102.998 84.5205C100.74 87.4623 104.267 88.8631 104.267 88.8631C94.1803 93.9062 91.1471 92.1551 91.1471 92.1551L91.7819 92.8555C93.5454 94.6766 96.2964 95.237 98.6242 94.1863Z" fill="#F47F00"/>
<path d="M89.5955 80.6682C90.442 78.9171 97.8486 77.7964 98.3423 82.2791C98.8361 86.7618 93.6162 89.3534 91.2179 87.3222C88.8196 85.2909 88.3258 83.1196 89.5955 80.6682Z" fill="#F47F00"/>
<path d="M91.0767 74.2244C92.417 73.3139 96.1555 74.3645 94.8153 76.1856C93.475 78.0768 90.5829 79.1274 90.0892 78.0768C89.5954 76.9561 89.0311 75.6253 91.0767 74.2244Z" fill="#F47F00"/>
<path d="M79.4377 61.2668C78.5912 61.8972 77.8153 66.8702 81.836 65.9597C85.8567 65.0491 83.9522 58.0449 79.4377 61.2668Z" fill="#F47F00"/>
<path d="M74.9936 66.0299C74.8526 67.4307 78.2384 67.6409 78.0974 66.0299C77.9563 64.489 75.2053 64.0687 74.9936 66.0299Z" fill="#F47F00"/>
<path d="M78.8029 68.0607C77.251 67.0801 81.2717 65.4691 81.4128 67.1502C81.5539 68.9012 79.5788 68.551 78.8029 68.0607Z" fill="#F47F00"/>
<path d="M101.799 74.5046C102.927 74.3645 102.786 76.1155 101.799 76.2556C100.811 76.3957 100.811 76.3957 100.811 76.3957C100.811 76.3957 99.4002 74.8548 101.799 74.5046Z" fill="#F47F00"/>
<path d="M84.0226 77.5161C85.1512 76.8857 86.7031 78.7769 84.5869 79.1971C82.4707 79.5473 82.1886 78.4967 84.0226 77.5161Z" fill="#F47F00"/>
<path d="M108.006 64.4885C109.205 62.1071 117.106 67.0801 112.803 68.5509C108.429 70.0218 106.384 67.5703 108.006 64.4885Z" fill="#EF7100"/>
<path d="M115.765 62.7379C117.67 63.5083 118.093 67.0805 114.707 65.1893C111.392 63.3682 111.745 61.1269 115.765 62.7379Z" fill="#EF7100"/>
<path d="M116.4 66.3097C118.234 65.6093 120.844 66.3097 119.433 67.5004C118.093 68.6912 113.579 67.3604 116.4 66.3097Z" fill="#EF7100"/>
<path d="M114.848 76.1853C115.836 80.8782 120.421 81.8587 120.562 78.2866C120.703 74.7144 113.861 71.4925 114.848 76.1853Z" fill="#EF7100"/>
<path d="M92.4876 54.8224C96.2967 54.5422 98.9066 57.2038 95.6618 57.2739C92.4171 57.414 88.749 55.0325 92.4876 54.8224Z" fill="#EF7100"/>
<path d="M76.5454 59.6562C76.5454 59.6562 66.8816 63.0883 71.6077 68.1314C76.2633 73.1744 67.4459 65.1195 76.5454 59.6562Z" fill="#FFCB64"/>
<path d="M99.0477 68.8311C99.0477 68.8311 110.404 72.5433 115.836 82.8395L99.0477 68.8311Z" fill="#EF7100"/>
<path d="M97.0019 67.1497C97.0019 67.1497 101.516 63.1573 97.4957 60.7759C93.4749 58.3944 93.2633 60.7759 93.2633 60.7759C93.2633 60.7759 92.9812 58.5345 91.2177 57.9742C89.4542 57.4138 88.4667 58.7446 88.4667 58.7446L84.6576 54.8223C84.6576 54.8223 84.3754 56.083 88.8194 60.0054C88.8194 60.0054 89.3131 58.6045 90.9355 59.305C92.4874 60.0054 92.5579 62.3168 92.5579 62.3168C92.5579 62.3168 94.8152 60.0754 96.5081 61.3362C99.2591 63.6476 97.0019 67.1497 97.0019 67.1497Z" fill="#EF7100"/>
<path d="M90.9357 80.4583C91.641 78.9874 97.8485 78.0768 98.2717 81.7891C98.695 85.5013 94.3215 87.7427 92.2759 86.0616C90.3713 84.3806 89.9481 82.4895 90.9357 80.4583Z" fill="#EF7100"/>
<path d="M91.7114 74.1543C92.84 73.3839 96.0143 74.2244 94.8151 75.8353C93.6865 77.3763 91.2882 78.2868 90.8649 77.3763C90.4417 76.4657 90.0185 75.345 91.7114 74.1543Z" fill="#EF7100"/>
<path d="M106.172 86.3412C104.832 86.7615 102.151 84.9404 103.703 83.8197C105.255 82.699 107.865 82.559 107.935 83.5395C108.006 84.5902 108.077 85.7809 106.172 86.3412Z" fill="#EF7100"/>
<path d="M80.4252 61.0564C79.7198 61.5467 79.1555 65.399 82.2592 64.7686C85.4335 64.0682 83.9522 58.5349 80.4252 61.0564Z" fill="#EF7100"/>
<path d="M95.5909 51.1807C95.1676 51.1807 94.6033 50.9706 94.2506 50.6204C94.039 50.4103 93.8979 50.1301 93.8979 49.8499C93.8979 48.5892 94.1801 47.3284 94.6033 46.1377C94.4623 46.1377 94.3212 46.0676 94.1801 46.0676C93.8979 46.7681 93.6863 47.3284 93.5452 47.8187C93.4042 48.239 93.2631 48.5892 93.1926 49.0094C93.1926 49.0795 93.122 49.1495 93.122 49.2196C93.0515 49.3596 92.9809 49.4997 92.9809 49.6398C93.0515 49.7098 93.0515 49.7799 93.122 49.92C93.1926 50.2001 93.122 50.3402 93.0515 50.4803C92.9104 50.6204 92.7693 50.6904 92.4872 50.6904C92.205 50.6904 91.9229 50.6204 91.7818 50.5504C90.5826 50.0601 90.4415 49.4297 90.5121 49.0795C90.5826 48.7993 90.6531 48.5191 90.7237 48.239C90.1594 48.6592 89.5245 49.0795 88.8897 49.4297C88.0432 49.92 87.3378 50.1301 86.6324 50.1301C86.4913 50.1301 86.2797 50.1301 86.1387 50.0601C83.9519 49.7098 83.1055 47.4685 83.3876 45.5774C83.6698 43.9664 84.5163 42.3554 85.927 40.8845C87.1262 39.6238 88.4664 38.9233 89.8067 38.9233C90.0888 38.9233 90.3005 38.9233 90.5826 38.9934C91.7112 39.2035 92.1345 39.9039 92.3461 40.3942C92.6988 41.4449 92.2755 42.8457 91.6407 43.6862C91.8523 43.7563 92.1345 43.8263 92.3461 43.8963C92.9104 42.4955 93.6158 41.0246 94.3212 39.6938C94.3917 39.5537 94.5328 39.4136 94.8855 39.4136C95.4498 39.4136 96.3668 39.9039 96.649 40.3242C96.79 40.6044 96.7195 40.8145 96.7195 40.8845C96.0847 42.0752 95.5203 43.266 94.956 44.5968C95.0266 44.5968 95.0266 44.5968 95.0971 44.5968C95.2382 44.5968 95.3793 44.5968 95.4498 44.5968C95.9436 43.6162 96.5784 42.7757 97.2838 42.0052C97.4249 41.8651 97.566 41.725 97.9187 41.725C98.2714 41.725 98.7651 41.9352 98.9768 42.0752C99.2589 42.2854 99.4705 42.6356 99.5411 42.9157C99.5411 43.1259 99.4705 43.336 99.3295 43.5461C97.6365 45.3672 96.649 47.8187 96.5784 50.4103C96.4373 50.9006 96.1552 51.1807 95.5909 51.1807ZM89.8067 41.1647C89.5245 41.2347 89.2424 41.3748 88.9602 41.5149C87.9021 42.2153 86.9146 43.406 86.2092 44.7368C85.8565 45.5073 85.7154 46.2077 85.7154 46.9082C85.7154 47.4685 85.8565 47.9588 85.9976 47.9588H86.0681C86.4208 47.9588 86.9851 47.6086 87.2673 47.3985L87.4789 47.2584C88.1843 46.8381 88.8897 46.3478 89.6656 45.7174C89.8772 45.5774 90.0888 45.5073 90.3005 45.5073C90.6531 45.5073 91.0764 45.6474 91.3585 45.9276C91.3585 45.9276 91.3585 45.9276 91.3585 45.8575C91.4291 45.5774 91.5702 45.3672 91.6407 45.0871H91.5702C91.288 44.947 90.6531 44.5968 90.5826 44.1765C90.5121 44.1765 90.5121 44.1765 90.4415 44.1765C89.8772 44.1765 89.2424 43.7563 88.9602 43.266C88.8191 42.9157 88.8191 42.5655 89.1013 42.2854C89.3129 42.0052 89.5245 41.655 89.5951 41.3748C89.8067 41.3748 89.8067 41.2347 89.8067 41.1647Z" fill="#EF7100"/>
<path d="M89.7363 39.3434C89.948 39.3434 90.1596 39.3434 90.4417 39.4135C92.699 39.8337 92.2757 42.4253 91.1471 43.7561C91.006 43.8962 90.865 43.9662 90.6534 43.9662C90.0185 43.9662 89.1015 43.1958 89.5953 42.6354C89.8774 42.3553 90.089 41.935 90.1596 41.5848C90.2301 41.3747 90.2301 41.2346 90.2301 41.0244C90.2301 40.9544 90.2301 40.8844 90.2301 40.8143C90.089 40.8143 89.948 40.8143 89.8069 40.8844C89.4542 40.9544 89.172 41.0945 88.8899 41.3046C87.6202 42.0751 86.6326 43.4059 86.0683 44.7367C85.7156 45.4371 85.504 46.2076 85.504 47.0481C85.504 47.3983 85.5745 48.3789 86.0683 48.4489C86.1389 48.4489 86.1389 48.4489 86.2094 48.4489C86.7032 48.4489 87.4086 47.9586 87.8318 47.7485C88.6077 47.2582 89.3836 46.7679 90.089 46.1375C90.2301 46.0675 90.3712 45.9974 90.5123 45.9974C91.006 45.9974 91.5704 46.3477 91.7114 46.6979C91.782 46.4877 91.8525 46.2776 91.9231 46.0675C92.0641 45.7173 92.2052 45.3671 92.3463 45.0169C92.2052 44.9468 92.1347 44.9468 91.9936 44.8768C91.8525 44.8067 91.1471 44.4565 91.2177 44.1763C91.2177 44.1063 91.2882 44.1063 91.4293 44.1063C91.4998 44.1063 91.5704 44.1063 91.5704 44.1063C91.782 44.1063 91.9936 44.2464 92.2052 44.3164C92.2757 44.3865 92.3463 44.3865 92.4168 44.4565H92.4874C93.1222 42.9156 93.8276 41.3747 94.6035 39.9038C94.6741 39.8337 94.7446 39.7637 94.8857 39.7637C95.45 39.7637 96.5081 40.3941 96.367 40.7443C95.6616 42.0751 95.0268 43.4759 94.3919 44.8768C94.4625 44.8768 94.533 44.8768 94.6741 44.8768C94.8152 44.8768 94.9562 44.8768 95.0973 44.8768C95.3089 44.8768 95.5205 44.8768 95.6616 44.8768C96.1554 43.8962 96.7902 42.9856 97.5662 42.1451C97.6367 42.005 97.7778 42.005 97.9894 42.005C98.2716 42.005 98.6243 42.1451 98.8359 42.2852C99.118 42.4953 99.4002 42.9156 99.118 43.2658C97.3546 45.1569 96.367 47.7485 96.2965 50.3401C96.2965 50.6202 96.0849 50.7603 95.8027 50.7603C95.2384 50.7603 94.4625 50.3401 94.533 49.7797C94.533 48.3789 94.8857 47.0481 95.3795 45.7873C95.0268 45.7173 94.6035 45.6472 94.2508 45.5772C93.9687 46.2776 93.7571 46.978 93.4749 47.6785C93.3338 48.0987 93.1928 48.4489 93.1222 48.8692C93.0517 49.0093 92.9106 49.4295 92.8401 49.7097C92.9106 49.7797 92.9811 49.8498 92.9811 49.9899C93.0517 50.27 92.9106 50.3401 92.699 50.3401C92.4874 50.3401 92.2052 50.27 92.1347 50.2C91.7114 50.0599 91.006 49.7097 91.0766 49.0793C91.1471 48.519 91.3587 48.0287 91.5704 47.4683C91.5704 47.3983 91.6409 47.2582 91.6409 47.1882C90.7944 47.8886 89.8774 48.519 88.8899 49.0793C88.255 49.4295 87.5496 49.7797 86.7737 49.7797C86.6326 49.7797 86.4915 49.7797 86.3505 49.7097C84.3754 49.3595 83.5994 47.3983 83.8816 45.5772C84.1638 43.8962 85.1513 42.3553 86.2799 41.0945C87.0559 40.1839 88.3256 39.3434 89.7363 39.3434ZM89.7363 38.643C88.3256 38.643 86.8442 39.3434 85.6451 40.6742C84.2343 42.2152 83.3173 43.8962 83.0351 45.5072C82.6824 47.6084 83.67 49.9899 86.0683 50.4101C86.2799 50.4101 86.421 50.4802 86.6326 50.4802C87.6202 50.4802 88.5372 50.0599 89.1015 49.7097C89.4542 49.4996 89.8069 49.2894 90.2301 49.0093C90.1596 49.3595 90.2301 50.27 91.7114 50.8304C91.782 50.8304 92.1347 50.9704 92.5579 50.9704C93.0517 50.9704 93.2633 50.7603 93.4044 50.6202C93.4749 50.4802 93.6865 50.2 93.5455 49.7797C93.5455 49.7097 93.4749 49.6396 93.4749 49.5696C93.4749 49.4996 93.5455 49.3595 93.5455 49.2894C93.616 49.1493 93.616 49.0793 93.616 49.0093C93.6865 48.8692 93.6865 48.7291 93.7571 48.589C93.6865 48.9392 93.6865 49.3595 93.6865 49.7097C93.6865 50.0599 93.8276 50.4101 94.1098 50.6903C94.533 51.1105 95.1678 51.3907 95.6616 51.3907C96.367 51.3907 96.8608 50.9004 96.8608 50.27C96.9313 47.8185 97.8483 45.4371 99.5413 43.6861C99.7529 43.4059 99.894 43.1257 99.8234 42.7755C99.7529 42.2152 99.3297 41.7949 99.118 41.6548C98.8359 41.4447 98.3421 41.2346 97.8483 41.2346C97.3546 41.2346 97.0724 41.4447 96.9313 41.5848C96.5786 41.935 96.2965 42.3553 95.9438 42.7755C96.2259 42.1451 96.5081 41.5147 96.8608 40.9544C97.0019 40.6742 97.0019 40.324 96.7902 40.0439C96.4376 39.4835 95.3795 38.9232 94.7446 38.9232C94.1803 38.9232 93.9687 39.2734 93.8276 39.4135C93.4044 40.254 92.9106 41.1645 92.5579 42.005C92.699 41.3747 92.699 40.7443 92.4874 40.1139C92.2052 39.2734 91.4998 38.643 90.4417 38.5029C90.2301 38.643 90.0185 38.643 89.7363 38.643ZM86.2799 47.6785C86.2094 47.5384 86.2094 47.2582 86.1389 46.978C86.1389 46.3477 86.2799 45.6472 86.6326 44.9468C87.2675 43.616 88.1845 42.4953 89.2426 41.865H89.3131C89.2426 42.005 89.172 42.0751 89.1015 42.2152C88.7488 42.6354 88.6783 43.1257 88.8899 43.546C89.172 44.1063 89.8774 44.5966 90.5123 44.6666C90.6534 44.9468 90.9355 45.1569 91.3587 45.4371C91.3587 45.5072 91.3587 45.5072 91.2882 45.5772C91.006 45.4371 90.7239 45.3671 90.3712 45.3671C90.0185 45.3671 89.7363 45.4371 89.4542 45.6472C88.7488 46.2776 88.0434 46.7679 87.338 47.1882C87.2675 47.2582 87.1969 47.2582 87.1264 47.3282C86.9853 47.3282 86.4915 47.6084 86.2799 47.6785Z" fill="white"/>
<path d="M100.458 52.0909C98.8357 52.0909 97.2133 51.0402 96.7196 49.7094C96.2258 48.3786 96.649 47.0478 98.0598 45.717C98.7652 45.0867 99.3295 44.7364 99.9644 44.5263C100.247 44.4563 100.529 44.3862 100.811 44.3862C101.375 44.3862 101.939 44.5263 102.504 44.8065C103.421 45.2968 104.056 45.9972 104.126 46.7677C104.197 47.398 103.844 48.0284 103.209 48.5187C102.786 48.7989 102.222 49.009 101.657 49.009C100.811 49.009 99.9644 48.7288 99.259 48.3786C99.0474 48.7989 98.9063 49.2892 99.1179 49.7795C99.1884 49.9196 99.259 50.0597 99.3295 50.1997C99.3295 50.1997 99.4001 50.1997 99.4001 50.2698C99.4706 50.2698 99.5411 50.2698 99.5411 50.2698C99.6822 50.2698 99.8233 50.1997 100.035 50.1997C100.105 50.1997 100.247 50.1297 100.317 50.1297C100.811 50.1297 101.375 50.4799 101.587 50.69C101.728 50.8301 102.01 51.1103 101.939 51.5305C101.939 51.6706 101.798 51.8808 101.516 52.0208C101.164 52.0208 100.811 52.0909 100.458 52.0909ZM100.247 47.0478C100.388 47.0478 100.388 47.1179 100.458 47.1179H100.529C100.811 47.1179 101.093 46.9778 101.305 46.7677C101.446 46.6276 101.587 46.4175 101.587 46.2073C101.305 46.3474 100.881 46.5575 100.247 47.0478Z" fill="#EF7100"/>
<path d="M100.811 44.7366C101.305 44.7366 101.869 44.8766 102.363 45.0868C102.998 45.437 103.703 45.9973 103.774 46.7678C103.844 47.3281 103.491 47.8885 102.998 48.1686C102.574 48.4488 102.081 48.5889 101.587 48.5889C100.74 48.5889 99.7528 48.2387 99.0475 47.8885C98.6948 48.4488 98.4831 49.1492 98.6948 49.8496C98.7653 50.0598 98.9064 50.1999 99.0475 50.41C99.0475 50.41 99.118 50.48 99.1885 50.48H99.2591H99.3296C99.4001 50.48 99.4707 50.48 99.4707 50.48C99.4707 50.48 99.4707 50.48 99.5412 50.48C99.7528 50.48 99.8939 50.41 100.106 50.3399C100.176 50.3399 100.247 50.3399 100.317 50.3399C100.67 50.3399 101.164 50.6201 101.375 50.8302C101.587 51.0404 101.798 51.3906 101.446 51.5307C101.164 51.6007 100.811 51.6707 100.529 51.6707C99.118 51.6707 97.6367 50.7602 97.0724 49.4994C96.508 48.0986 97.284 46.8378 98.3421 45.9273C98.8358 45.437 99.4001 45.0167 100.106 44.8066C100.317 44.8066 100.529 44.7366 100.811 44.7366ZM99.6823 47.2581L99.8939 47.3281C99.9645 47.3281 100.035 47.3982 100.106 47.3982C100.317 47.4682 100.317 47.4682 100.458 47.4682H100.529C100.952 47.4682 101.305 47.3281 101.587 47.048C101.869 46.8378 102.01 46.4176 101.94 46.0674C101.94 45.9973 101.869 45.9273 101.869 45.9273H101.798C101.023 45.9273 100.176 46.6977 99.6118 47.2581C99.6823 47.2581 99.6823 47.2581 99.6823 47.2581ZM100.811 44.0361C100.458 44.0361 100.176 44.1062 99.8234 44.1762C98.9064 44.4564 98.2715 45.0167 97.7778 45.437C95.8732 47.188 95.9437 48.729 96.367 49.7796C96.9313 51.2505 98.6948 52.3712 100.458 52.3712C100.881 52.3712 101.234 52.3011 101.657 52.161C102.01 52.0209 102.292 51.7408 102.363 51.4606C102.433 51.0404 102.292 50.6201 101.869 50.3399C101.587 50.1298 100.952 49.7096 100.317 49.7096C100.176 49.7096 100.035 49.7096 99.8939 49.7796C99.7528 49.8496 99.6118 49.8496 99.5412 49.8496C99.4707 49.7796 99.4707 49.7096 99.4001 49.6395C99.3296 49.3593 99.3296 49.1492 99.4001 48.799C100.106 49.0792 100.881 49.2893 101.657 49.2893C102.363 49.2893 102.927 49.0792 103.421 48.729C104.126 48.2387 104.549 47.4682 104.479 46.6977C104.338 45.437 103.139 44.7366 102.645 44.4564C102.081 44.2463 101.446 44.0361 100.811 44.0361Z" fill="white"/>
<path d="M119.363 57.6246C118.587 57.6246 117.811 57.4845 117.106 57.1343C116.4 56.8541 115.836 56.4339 115.342 55.9436C115.201 56.2238 114.989 56.4339 114.778 56.574C114.355 56.7841 113.931 56.9242 113.508 56.9242C113.014 56.9242 112.521 56.7841 111.956 56.574C111.11 56.2238 110.404 55.6634 109.699 55.0331C109.276 54.6128 108.782 54.1925 108.359 53.7022C107.865 53.8423 107.371 53.9124 106.877 53.9124C106.454 53.9124 106.031 53.8423 105.678 53.7723C104.479 53.4921 103.421 52.7917 102.857 51.9512C102.363 51.2508 102.222 50.4803 102.433 49.7098C102.433 49.6398 102.504 49.5698 102.504 49.4997C102.292 49.2896 102.151 49.0795 102.151 48.9394C102.151 48.7993 102.222 48.6592 102.433 48.5191C102.504 48.4491 102.645 48.4491 102.786 48.4491C102.927 48.4491 102.998 48.4491 103.139 48.5191C103.28 48.309 103.492 48.0989 103.703 47.8887C104.338 47.3284 104.973 46.9782 105.678 46.8381C105.89 46.7681 106.101 46.7681 106.313 46.7681C107.018 46.7681 107.794 46.9782 108.429 47.4685C108.782 47.7487 109.205 48.0989 109.487 48.5191C109.699 48.309 109.911 48.0989 110.122 47.8887C110.687 47.5385 111.251 47.3284 111.956 47.3284C113.226 47.3284 114.707 48.0288 115.624 49.1495C115.906 49.4997 116.259 49.92 116.33 50.4803C116.894 50.2001 117.458 50.0601 118.093 50.0601C119.292 50.0601 120.491 50.6204 121.197 51.4609C121.479 51.7411 121.902 52.3714 121.761 52.8617C121.691 53.352 121.267 53.7723 120.915 54.0525C120.209 54.5428 119.433 54.8229 118.587 54.8229C117.952 54.8229 117.317 54.6828 116.612 54.4027C116.612 54.5428 116.612 54.6828 116.682 54.7529C116.753 55.1031 117.035 55.5233 117.317 55.7335L117.458 55.8035C117.458 55.8035 117.529 55.8035 117.529 55.8736H117.599H117.67C117.811 55.8736 117.881 55.8736 117.952 55.9436C118.023 55.9436 118.164 55.9436 118.234 55.9436C119.292 55.9436 120.28 55.3833 120.915 54.963C121.056 54.893 121.197 54.8229 121.338 54.8229C121.902 54.8229 122.96 55.3833 123.101 55.9436C123.172 56.1537 123.101 56.4339 122.89 56.5039C121.832 57.2744 120.562 57.6246 119.363 57.6246ZM112.662 54.893C112.662 54.893 112.732 54.893 112.803 54.893H112.873C112.944 54.893 113.085 54.7529 113.085 54.4027C113.085 54.2626 113.085 54.1925 113.014 54.0525C113.014 53.9824 113.014 53.9824 112.944 53.9824C112.944 53.9124 112.873 53.9124 112.873 53.9124C112.662 53.7022 112.45 53.5622 112.097 53.4221L111.956 53.352C111.462 53.1419 110.969 52.8617 110.545 52.5816C110.404 52.5115 110.263 52.3714 110.122 52.2314C110.193 52.3714 110.263 52.5816 110.263 52.7217C110.263 52.7917 110.263 52.8617 110.263 52.8617C110.828 53.4221 111.392 53.9824 111.956 54.4027C112.027 54.4727 112.097 54.5428 112.168 54.5428L112.309 54.6128L112.379 54.6828L112.521 54.7529L112.662 54.893ZM117.176 53.0018C117.247 53.0018 117.317 53.0018 117.388 53.0018C117.529 53.0018 117.67 53.0018 117.811 52.9318C118.375 52.7917 118.869 52.3714 119.081 51.8811C119.081 51.8811 119.081 51.8111 119.01 51.7411C118.657 51.7411 118.234 51.8812 117.811 52.1613C117.529 52.3714 117.247 52.5816 117.035 52.9318C117.035 52.9318 117.106 52.9318 117.106 53.0018C117.176 53.0018 117.176 53.0018 117.176 53.0018ZM113.649 52.1613C113.861 52.3014 114.072 52.4415 114.284 52.5816C114.355 52.3714 114.425 52.1613 114.566 51.9512C114.284 52.0913 114.002 52.1613 113.649 52.1613ZM105.184 52.1613C105.326 52.1613 105.396 52.1613 105.537 52.1613C105.89 52.1613 106.243 52.0913 106.595 51.9512C106.666 51.9512 106.807 51.8811 106.877 51.8811C107.018 51.8811 107.089 51.8812 107.23 51.9512C107.23 51.8111 107.301 51.7411 107.442 51.601C107.653 51.3208 107.935 51.1807 108.359 51.1807C108.782 51.1807 109.205 51.3208 109.558 51.601C109.276 51.3208 109.064 50.9706 108.994 50.5503C108.782 50.6904 108.429 50.8305 108.147 50.9006C107.865 50.9706 107.583 50.9706 107.23 50.9706C106.736 50.9706 106.172 50.9006 105.467 50.7605C105.255 50.6904 105.043 50.6204 104.832 50.5503C104.691 50.9706 104.691 51.4609 105.043 51.8811C105.114 51.9512 105.114 52.0212 105.184 52.0212C105.114 52.1613 105.184 52.1613 105.184 52.1613ZM111.604 50.2001C111.745 50.2001 111.886 50.2001 112.027 50.2001C112.309 50.2001 112.591 50.2001 112.873 50.1301C113.085 50.0601 113.296 50.0601 113.438 49.99C113.438 49.99 113.579 49.92 113.649 49.92C113.579 49.8499 113.508 49.7799 113.367 49.6398C113.367 49.6398 113.296 49.5698 113.226 49.5698C113.155 49.4997 113.085 49.4997 113.085 49.4297C113.085 49.4297 113.014 49.3596 112.944 49.3596H112.873H112.662C112.662 49.3596 112.591 49.3596 112.521 49.3596C112.379 49.3596 112.379 49.3596 112.238 49.4297C112.027 49.4997 111.815 49.6398 111.674 49.8499C111.533 49.99 111.462 50.1301 111.462 50.2702H111.533C111.533 50.2001 111.533 50.2001 111.604 50.2001ZM105.678 49.3596C105.749 49.3596 105.819 49.3596 105.96 49.3596C106.243 49.3596 106.525 49.2896 106.736 49.2195C107.018 49.1495 107.23 48.8693 107.16 48.5191C107.16 48.5191 107.16 48.5191 107.089 48.5191C106.877 48.5892 106.666 48.6592 106.454 48.7993C106.172 48.9394 105.96 49.1495 105.678 49.3596Z" fill="#EF7100"/>
<path d="M106.172 47.1184C106.877 47.1184 107.512 47.3285 108.076 47.7488C108.641 48.099 109.205 48.6593 109.275 49.3597V49.4298C109.417 48.9395 109.769 48.4492 110.192 48.169C110.686 47.8188 111.251 47.6787 111.815 47.6787C113.085 47.6787 114.425 48.4492 115.201 49.3597C115.483 49.71 115.836 50.1302 115.836 50.6205C115.836 51.1808 115.342 51.461 114.919 51.6011C114.213 51.8112 113.508 51.9513 112.802 51.9513C112.661 51.9513 112.52 51.9513 112.379 51.9513C112.591 52.0914 112.802 52.1614 113.014 52.3015C113.578 52.5817 114.143 53.0019 114.566 53.4222C114.566 53.3522 114.566 53.2821 114.566 53.2121C114.777 51.6011 116.4 50.4104 117.952 50.4104C117.952 50.4104 117.952 50.4104 118.022 50.4104C119.01 50.4104 120.138 50.9007 120.773 51.6711C120.985 51.9513 121.338 52.4416 121.267 52.7918C121.197 53.142 120.844 53.5623 120.562 53.7724C119.997 54.2627 119.292 54.4728 118.587 54.4728C117.811 54.4728 117.035 54.1927 116.329 53.8424C116.259 54.1927 116.259 54.5429 116.329 54.823C116.47 55.2433 116.753 55.7336 117.035 55.9437C117.035 55.9437 117.105 56.0138 117.176 56.0138L117.246 56.0838H117.317H117.387H117.458H117.529C117.67 56.0838 117.74 56.1538 117.881 56.1538C117.952 56.1538 118.093 56.1538 118.163 56.1538C119.221 56.1538 120.209 55.6635 121.055 55.1032C121.126 55.0332 121.197 55.0332 121.267 55.0332C121.831 55.0332 123.031 55.8036 122.607 56.0838C121.549 56.7842 120.421 57.2045 119.221 57.2045C118.516 57.2045 117.811 57.0644 117.105 56.7842C116.329 56.434 115.553 55.8737 115.06 55.1732C114.989 55.5935 114.777 55.9437 114.425 56.2239C114.072 56.434 113.719 56.5041 113.367 56.5041C112.873 56.5041 112.379 56.364 111.956 56.1538C111.109 55.8036 110.475 55.2433 109.84 54.683C109.275 54.1927 108.782 53.7024 108.358 53.2121C108.358 53.2121 108.358 53.2821 108.288 53.2821C107.794 53.4222 107.3 53.5623 106.736 53.5623C106.383 53.5623 105.96 53.4922 105.607 53.4222C104.62 53.142 103.562 52.5817 102.997 51.7412C102.574 51.1808 102.433 50.4804 102.645 49.78C102.715 49.6399 102.715 49.4998 102.786 49.3597C102.574 49.2197 102.222 48.9395 102.433 48.7994C102.504 48.7994 102.504 48.7994 102.574 48.7994C102.715 48.7994 102.856 48.8694 102.927 48.8694C102.997 48.8694 102.997 48.9395 103.068 48.9395C103.28 48.6593 103.491 48.3792 103.773 48.169C104.267 47.7488 104.902 47.3285 105.607 47.1884C105.819 47.1184 106.031 47.1184 106.172 47.1184ZM105.96 49.71C106.313 49.71 106.595 49.6399 106.877 49.5699C107.3 49.3597 107.653 49.0095 107.512 48.5192C107.512 48.3792 107.441 48.3091 107.371 48.169C107.371 48.169 107.371 48.169 107.3 48.169C107.159 48.169 107.089 48.169 107.018 48.2391C106.736 48.3091 106.524 48.3792 106.313 48.5192C105.819 48.7994 105.466 49.0796 105.114 49.4998C105.043 49.5699 105.043 49.5699 104.973 49.6399H105.043C105.325 49.6399 105.678 49.71 105.96 49.71ZM112.661 49.0095C112.591 49.0095 112.45 49.0095 112.45 49.0095C112.309 49.0095 112.238 49.0095 112.097 49.0796C111.815 49.1496 111.533 49.3597 111.392 49.5699C111.109 49.9201 110.968 50.2703 111.039 50.6905C111.18 50.6205 111.321 50.5505 111.462 50.5505H111.533C111.674 50.5505 111.885 50.5505 112.026 50.5505C112.309 50.5505 112.591 50.5505 112.943 50.4804C113.155 50.4104 113.367 50.4104 113.578 50.3403C113.719 50.2703 114.002 50.2703 114.072 50.1302C114.143 49.85 113.719 49.4998 113.508 49.3597L113.367 49.2197L113.226 49.1496C113.155 49.0796 113.085 49.0796 113.014 49.0095C113.014 49.0095 112.943 49.0095 112.873 48.9395C112.873 49.0095 112.732 49.0095 112.661 49.0095ZM107.159 50.6905C106.595 50.6905 106.031 50.6205 105.537 50.4804C105.184 50.4104 104.902 50.3403 104.62 50.2003C104.338 50.8306 104.267 51.6011 104.69 52.2315C104.761 52.3015 104.831 52.3716 104.902 52.4416C104.902 52.4416 104.973 52.4416 104.973 52.5116C105.043 52.5116 105.043 52.5116 105.184 52.5817C105.325 52.5817 105.396 52.5817 105.537 52.5817C105.96 52.5817 106.313 52.5116 106.736 52.3716C106.807 52.3716 106.877 52.3716 106.948 52.3716C107.3 52.3716 107.653 52.5817 107.865 52.7218C107.794 52.6517 107.794 52.5817 107.724 52.5817C107.583 52.3716 107.583 52.1614 107.724 51.9513C107.865 51.7412 108.076 51.6711 108.358 51.6711C108.852 51.6711 109.417 51.9513 109.628 52.2315C109.84 52.4416 109.981 52.7918 109.769 53.0019C110.334 53.6323 110.968 54.2627 111.674 54.823C111.744 54.8931 111.815 54.9631 111.885 55.0332C111.885 55.0332 112.026 55.1032 112.026 55.1732L112.097 55.2433C112.168 55.2433 112.168 55.3133 112.238 55.3133C112.238 55.3133 112.309 55.3133 112.309 55.3834C112.379 55.3834 112.45 55.4534 112.52 55.4534C112.591 55.4534 112.661 55.4534 112.661 55.4534C112.732 55.4534 112.873 55.4534 112.943 55.3834C113.226 55.2433 113.367 54.8931 113.296 54.6129C113.296 54.4728 113.226 54.2627 113.155 54.1226C113.155 54.0526 113.155 54.0526 113.085 53.9825L113.014 53.8424C112.732 53.4922 112.379 53.4222 112.026 53.2121C111.533 53.0019 111.109 52.7918 110.686 52.4416C109.91 51.9513 109.205 51.1108 109.134 50.1302C109.134 50.0602 109.134 49.9201 109.205 49.85C109.064 50.4104 108.57 50.6905 108.006 50.7606C107.724 50.6905 107.441 50.6905 107.159 50.6905ZM116.894 53.2121C117.035 53.2821 117.035 53.2821 117.105 53.2821H117.176C117.246 53.2821 117.387 53.2821 117.458 53.2821C117.599 53.2821 117.811 53.2821 117.952 53.2121C118.587 53.072 119.221 52.5817 119.433 51.9513C119.574 51.7412 119.433 51.461 119.292 51.3209H119.221C119.151 51.3209 119.151 51.3209 119.08 51.3209C118.587 51.3209 118.093 51.5311 117.67 51.8112C117.246 52.0914 116.894 52.5116 116.612 52.9319C116.682 53.072 116.753 53.142 116.894 53.2121ZM106.172 46.418C105.96 46.418 105.678 46.418 105.466 46.488C104.761 46.6281 104.056 47.0483 103.35 47.6087C103.139 47.7488 102.997 47.9589 102.856 48.099C102.786 48.099 102.715 48.099 102.645 48.099C102.433 48.099 102.292 48.169 102.151 48.2391C101.869 48.3792 101.728 48.6593 101.728 48.9395C101.728 49.1496 101.798 49.4298 102.01 49.6399C101.798 50.4804 101.939 51.461 102.433 52.1614C103.068 53.072 104.197 53.7724 105.466 54.1226C105.89 54.2627 106.313 54.2627 106.736 54.2627C107.23 54.2627 107.653 54.1927 108.147 54.0526C108.57 54.4728 108.993 54.8931 109.346 55.2433C110.051 55.8737 110.827 56.5041 111.674 56.8543C112.309 57.1344 112.873 57.2745 113.367 57.2745C113.86 57.2745 114.354 57.1344 114.777 56.8543C114.919 56.7142 115.13 56.6441 115.201 56.5041C115.624 56.9243 116.188 57.2745 116.753 57.4846C117.529 57.8349 118.304 57.9749 119.151 57.9749C120.491 57.9749 121.761 57.5547 122.96 56.7142C123.313 56.5041 123.383 56.0838 123.313 55.7336C123.101 55.0332 121.972 54.4028 121.197 54.4028C120.985 54.4028 120.773 54.4728 120.562 54.6129C119.927 55.0332 119.01 55.5235 118.022 55.5235C117.952 55.5235 117.881 55.5235 117.811 55.5235C117.74 55.5235 117.67 55.5235 117.599 55.5235H117.529H117.458H117.387L117.317 55.4534H117.246C117.105 55.3834 116.964 55.1732 116.894 54.9631C117.387 55.1032 117.881 55.1732 118.304 55.1732C119.221 55.1732 120.068 54.8931 120.703 54.2627C121.055 53.9825 121.549 53.4922 121.62 52.9319C121.761 52.3015 121.338 51.6711 120.985 51.2509C120.209 50.3403 118.939 49.78 117.67 49.71H117.599C117.105 49.71 116.541 49.78 116.118 49.9901C115.977 49.4998 115.624 49.1496 115.483 48.9395C114.495 47.7488 112.943 46.9783 111.533 46.9783C110.757 46.9783 110.122 47.1884 109.487 47.6087C109.346 47.6787 109.205 47.8188 109.064 47.9589C108.852 47.6787 108.5 47.3986 108.147 47.1884C107.794 46.6281 107.018 46.418 106.172 46.418ZM112.026 49.9201C112.097 49.85 112.238 49.78 112.309 49.78C112.379 49.78 112.379 49.78 112.379 49.71H112.45H112.52C112.591 49.71 112.591 49.71 112.661 49.71C112.661 49.71 112.661 49.71 112.732 49.71C112.802 49.71 112.802 49.71 112.873 49.78C112.873 49.78 112.873 49.78 112.943 49.78C112.873 49.78 112.873 49.78 112.802 49.78C112.591 49.85 112.309 49.9201 112.026 49.9201ZM105.255 51.8112C105.043 51.5311 104.973 51.3209 105.043 51.0408C105.184 51.0408 105.255 51.1108 105.396 51.1108C106.101 51.2509 106.666 51.3209 107.23 51.3209H107.3C107.3 51.3209 107.3 51.3209 107.23 51.391C107.159 51.461 107.159 51.5311 107.089 51.5311C107.018 51.5311 107.018 51.5311 106.948 51.5311C106.807 51.5311 106.666 51.5311 106.524 51.6011C106.172 51.7412 105.819 51.7412 105.537 51.7412C105.466 51.8813 105.396 51.8813 105.255 51.8112ZM117.881 52.5817C117.952 52.5817 117.952 52.5116 118.022 52.5116C118.163 52.4416 118.304 52.3716 118.375 52.3015C118.234 52.4416 118.093 52.5116 117.881 52.5817ZM112.45 54.4728L112.309 54.4028C112.238 54.3327 112.168 54.3327 112.097 54.2627C111.744 53.9825 111.392 53.7024 111.039 53.3522C111.251 53.4922 111.462 53.5623 111.674 53.7024H111.744L111.885 53.7724C112.168 53.9125 112.379 53.9825 112.52 54.1927C112.52 54.1927 112.52 54.1927 112.52 54.2627V54.3327C112.591 54.4728 112.591 54.5429 112.591 54.5429C112.591 54.6129 112.591 54.6129 112.591 54.683H112.52L112.45 54.4728Z" fill="white"/>
<path d="M98.9771 43.336C99.2592 42.9858 98.9771 42.5656 98.6949 42.3555C98.4128 42.1453 97.7074 41.8652 97.4252 42.2154C96.6493 43.0559 96.0144 43.9664 95.5207 44.947C95.168 44.947 94.8858 44.947 94.5331 44.947C94.4626 44.947 94.392 44.947 94.2509 44.947C94.8153 43.5462 95.4501 42.1453 96.226 40.8145C96.4377 40.3943 94.7447 39.5538 94.4626 39.974C93.6866 41.4449 92.9812 42.9858 92.3464 44.5268H92.2759C92.2053 44.4567 92.1348 44.4567 92.0642 44.3867C91.8526 44.3166 91.641 44.1766 91.4294 44.1766C91.3588 44.1766 91.1472 44.1065 91.0767 44.2466C90.9356 44.5268 91.7115 44.877 91.8526 44.947C91.9937 45.0171 92.0642 45.0871 92.2053 45.0871C92.0642 45.4373 91.9232 45.7875 91.7821 46.1377C91.7115 46.3479 91.641 46.558 91.5705 46.7681C91.3588 46.2778 90.3713 45.7875 89.8775 46.2078C89.1721 46.7681 88.4667 47.3285 87.6203 47.8188C87.197 48.0989 86.4211 48.6593 85.8568 48.5192C85.363 48.3791 85.2925 47.4685 85.2925 47.1183C85.2925 46.3479 85.5041 45.5074 85.8568 44.8069C86.4917 43.4761 87.4792 42.2154 88.6784 41.3749C88.9605 41.1647 89.3132 41.0247 89.5954 40.9546C89.7365 40.9546 89.8775 40.8846 90.0186 40.8846C90.0186 40.9546 90.0186 41.0247 90.0186 41.0947C90.0186 41.3048 90.0186 41.4449 89.9481 41.655C89.8775 42.0753 89.6659 42.4255 89.3838 42.7057C88.7489 43.4061 90.3713 44.4567 90.9356 43.8263C92.0642 42.4955 92.4875 39.974 90.2302 39.4837C88.6078 39.1335 87.056 40.1141 85.9273 41.2348C84.7282 42.4955 83.8112 44.0365 83.529 45.7175C83.2469 47.4685 84.0228 49.4998 85.9979 49.85C86.9149 49.9901 87.7614 49.6399 88.5373 49.2196C89.5248 48.6593 90.3713 48.0289 91.2883 47.3285C91.2883 47.3985 91.2178 47.5386 91.2178 47.6086C91.0767 48.0989 90.8651 48.6593 90.724 49.2196C90.6535 49.7799 91.2883 50.1301 91.7821 50.3403C91.9937 50.4103 92.7696 50.6204 92.6991 50.1301C92.6991 50.0601 92.6286 49.92 92.558 49.85C92.6286 49.5698 92.7696 49.1496 92.8402 49.0095C92.9812 48.5892 93.0518 48.239 93.1929 47.8188C93.4045 47.1183 93.6866 46.4179 93.9688 45.7175C94.3215 45.7875 94.6742 45.8576 95.0974 45.9276C94.6036 47.1183 94.3215 48.5192 94.3215 49.85C94.3215 50.6204 96.085 51.2508 96.1555 50.4103C96.1555 47.8188 97.2136 45.2272 98.9771 43.336Z" fill="#EF7100"/>
<path d="M101.375 50.9002C101.093 50.6901 100.529 50.3399 100.105 50.48C99.8938 50.55 99.7528 50.6201 99.5411 50.6201C99.4706 50.6201 99.4001 50.6201 99.4001 50.6201C99.3295 50.6201 99.3295 50.6201 99.259 50.6201H99.1885L99.0474 50.55C98.9063 50.4099 98.7652 50.1998 98.6947 49.9897C98.4125 49.2893 98.6241 48.5888 99.0474 48.0285C100.247 48.5888 101.798 49.1492 102.998 48.3787C103.421 48.0285 103.773 47.5382 103.773 46.9779C103.703 46.2074 102.998 45.6471 102.363 45.2969C101.657 44.9467 100.811 44.8066 100.105 45.0167C99.4001 45.2268 98.9063 45.6471 98.342 46.1374C97.2839 47.0479 96.508 48.3087 97.0723 49.7095C97.7071 51.2505 99.8233 52.3011 101.446 51.7408C101.798 51.4606 101.587 51.1104 101.375 50.9002ZM101.869 45.9272C101.869 45.9973 101.939 46.0673 101.939 46.1374C102.01 46.4876 101.869 46.8378 101.587 47.118C101.305 47.3981 100.881 47.5382 100.458 47.5382C100.388 47.5382 100.317 47.5382 100.176 47.4682C100.035 47.4682 99.9644 47.3981 99.8938 47.3981C99.8233 47.3981 99.6822 47.3281 99.6822 47.3281H99.6117C100.176 46.6277 101.093 45.8572 101.869 45.9272Z" fill="#EF7100"/>
<path d="M121.126 55.2435C120.209 55.8739 119.081 56.3642 117.952 56.2941C117.811 56.2941 117.74 56.2941 117.599 56.2241H117.529H117.458H117.388C117.388 56.2241 117.317 56.1541 117.247 56.1541L117.105 56.084C116.823 55.8038 116.471 55.3836 116.4 54.9633C116.33 54.6131 116.33 54.2629 116.4 53.9827C117.74 54.7532 119.433 54.9633 120.632 53.9127C120.915 53.7026 121.267 53.2823 121.338 52.9321C121.408 52.5819 121.056 52.0916 120.844 51.8114C120.209 51.041 119.081 50.5507 118.093 50.5507C116.471 50.5507 114.848 51.7414 114.637 53.3524C114.637 53.4224 114.637 53.4925 114.637 53.5625C114.213 53.0722 113.649 52.722 113.085 52.4418C112.873 52.3017 112.661 52.2317 112.45 52.0916C113.296 52.1616 114.213 52.0216 114.989 51.7414C115.413 51.6013 115.906 51.3211 115.906 50.7608C115.906 50.2705 115.554 49.8503 115.271 49.5C114.143 48.1692 111.886 47.1887 110.263 48.3093C109.84 48.5895 109.487 49.0798 109.346 49.5701V49.5C109.346 48.7996 108.711 48.2393 108.147 47.8891C107.442 47.3988 106.525 47.1887 105.678 47.3287C104.973 47.4688 104.408 47.819 103.844 48.3093C103.562 48.5195 103.35 48.7996 103.139 49.0798C103.068 49.0798 103.068 49.0098 102.998 49.0098C102.857 49.0098 102.645 48.9397 102.504 49.0098C102.292 49.1498 102.645 49.43 102.857 49.5701C102.786 49.7102 102.715 49.8503 102.715 49.9903C102.504 50.6908 102.645 51.3912 103.068 51.9515C103.703 52.792 104.691 53.3524 105.678 53.6325C106.595 53.8427 107.442 53.7726 108.359 53.4925C108.429 53.4925 108.429 53.4925 108.429 53.4224C108.923 53.9127 109.417 54.473 109.91 54.8933C110.545 55.4536 111.251 56.014 112.027 56.3642C112.803 56.7144 113.72 56.9245 114.495 56.4342C114.848 56.2241 115.06 55.8038 115.13 55.3836C115.624 56.084 116.4 56.6444 117.176 56.9946C119.01 57.8351 121.056 57.4849 122.678 56.3642C123.101 55.8739 121.549 54.8933 121.126 55.2435ZM112.097 49.0798C112.309 49.0097 112.309 49.0098 112.45 49.0098C112.45 49.0098 112.732 49.0098 112.591 49.0098L112.873 49.0798C112.944 49.0798 112.944 49.0798 113.014 49.1498C113.085 49.1498 113.155 49.2199 113.226 49.2899L113.367 49.36C113.367 49.36 113.578 49.5701 113.508 49.43C113.72 49.5701 114.143 49.9203 114.072 50.2005C114.002 50.3406 113.72 50.4106 113.578 50.4106C113.367 50.4806 113.155 50.5507 112.944 50.5507C112.45 50.6207 112.027 50.6207 111.533 50.5507C111.321 50.5507 111.18 50.5507 111.039 50.6908C110.969 50.3406 111.11 49.9203 111.392 49.5701C111.533 49.36 111.815 49.1498 112.097 49.0798ZM104.973 49.5701C105.043 49.5 105.043 49.43 105.114 49.43C105.467 49.0097 105.89 48.7296 106.313 48.4494C106.525 48.3093 106.807 48.2393 107.018 48.1692C107.089 48.1692 107.23 48.0992 107.301 48.0992C107.301 48.0992 107.301 48.0992 107.371 48.0992C107.442 48.2393 107.512 48.3093 107.512 48.4494C107.583 48.9397 107.301 49.36 106.877 49.5C106.313 49.7102 105.678 49.6401 105.043 49.5701C105.043 49.6401 104.973 49.5701 104.973 49.5701ZM113.014 55.1735C112.944 55.2435 112.873 55.2435 112.732 55.2435H112.591C112.52 55.2435 112.45 55.1735 112.45 55.1735C112.379 55.1735 112.379 55.1034 112.379 55.1034C112.309 55.1034 112.309 55.0334 112.238 55.0334C112.238 55.0334 112.168 55.0334 112.168 54.9633C112.097 54.9633 112.027 54.8933 112.027 54.8233C111.956 54.7532 111.886 54.6832 111.815 54.6131C111.11 54.0528 110.475 53.4925 109.91 52.792C110.122 52.5819 109.981 52.2317 109.769 52.0216C109.346 51.6013 108.359 51.1811 107.865 51.7414C107.724 51.9515 107.653 52.1617 107.865 52.3718C107.935 52.4418 107.935 52.5119 108.006 52.5119C107.724 52.3017 107.23 52.0916 106.877 52.2317C106.384 52.3718 105.819 52.5119 105.325 52.4418C105.184 52.4418 105.184 52.4418 105.114 52.3718L105.043 52.3017C104.973 52.2317 104.902 52.1616 104.832 52.0916C104.338 51.4612 104.408 50.7608 104.761 50.0604C105.043 50.2005 105.396 50.2705 105.678 50.3406C106.454 50.5507 107.371 50.6207 108.147 50.4806C108.711 50.3406 109.205 50.0604 109.346 49.5701C109.346 49.6401 109.276 49.7802 109.276 49.8503C109.276 50.8308 110.052 51.6013 110.827 52.1617C111.251 52.4418 111.744 52.6519 112.168 52.9321C112.591 53.1422 112.873 53.2823 113.155 53.5625L113.226 53.7026C113.296 53.7726 113.296 53.7726 113.296 53.8427C113.367 53.9827 113.367 54.1228 113.437 54.333C113.367 54.7532 113.296 55.0334 113.014 55.1735ZM116.612 53.0022C116.823 52.5819 117.247 52.1617 117.67 51.8815C118.093 51.6013 118.657 51.3912 119.222 51.3912H119.292C119.433 51.5313 119.574 51.8114 119.433 52.0216C119.151 52.5819 118.516 53.0722 117.952 53.2823C117.67 53.3524 117.388 53.3524 117.176 53.3524C117.247 53.3524 117.176 53.3524 117.105 53.3524H117.035C116.964 53.3524 116.964 53.3524 116.964 53.2823C117.035 53.3524 116.894 53.2123 116.894 53.2823C116.753 53.1422 116.682 53.0722 116.612 53.0022Z" fill="#EF7100"/>
<g opacity="0.29" style="mix-blend-mode:overlay">
<path d="M88.0435 165.349C95.9439 167.101 104.126 167.101 112.027 165.349C121.267 163.038 129.732 159.396 133.471 150.22L135.023 146.368C137.985 139.154 137.562 130.819 133.964 123.954L131.919 120.032C129.168 114.779 128.251 108.615 129.379 102.732L139.537 48.2388C141.583 37.3122 136.715 26.2456 127.545 21.0624L125.57 19.9418C122.184 17.9806 118.446 17 114.566 17H107.301C113.085 17.4203 139.043 22.043 106.454 28.7671C91.4294 31.849 99.4003 37.1021 99.4003 102.872C99.4003 122.273 107.583 119.962 106.454 137.333C103.774 179.218 67.8693 152.462 67.5872 152.322C71.6785 159.956 79.5083 162.968 88.0435 165.349Z" fill="#CC5809"/>
</g>
<g opacity="0.2" style="mix-blend-mode:overlay">
<path d="M79.9316 26.4559C83.8112 27.0863 91.4294 29.2576 102.786 28.8374C102.786 28.8374 94.251 30.4483 90.7946 37.9428C84.5871 51.531 87.056 60.2163 92.6991 115.269C98.2012 169.762 79.0851 162.688 79.0851 162.688C79.0851 162.688 87.056 142.096 85.9274 132.15C84.0228 114.429 74.359 53.8424 78.0976 41.3049C79.6494 35.9116 78.8029 31.1487 77.7449 28.1369C77.3922 27.0863 78.8029 26.3158 79.9316 26.4559Z" fill="url(#paint12_linear_2006_74321)"/>
</g>
<g opacity="0.4" style="mix-blend-mode:overlay">
<path d="M80.7075 24.7744C80.7075 24.7744 74.5706 22.1128 75.9814 20.0815C77.3922 18.0503 89.8776 18.3305 89.8776 18.3305C89.8776 18.3305 72.1723 20.5018 80.7075 24.7744Z" fill="url(#paint13_linear_2006_74321)"/>
</g>
<g opacity="0.2" style="mix-blend-mode:overlay">
<path d="M107.654 125.915C107.654 125.915 103.492 116.95 114.637 105.953C125.712 94.9568 133.33 81.8589 133.33 81.8589L129.238 103.852C129.238 103.922 113.579 112.537 107.654 125.915Z" fill="#CC5809"/>
</g>
<g opacity="0.2" style="mix-blend-mode:overlay">
<path d="M114.284 120.523C114.284 120.523 121.761 110.226 128.956 107.425C128.956 107.425 127.475 115.69 123.877 117.721C120.35 119.752 114.284 120.523 114.284 120.523Z" fill="#CC5809"/>
</g>
<g opacity="0.2" style="mix-blend-mode:overlay">
<path d="M131.214 127.036C131.214 127.036 138.902 154.213 113.085 161.077C87.2678 167.941 131.214 127.036 131.214 127.036Z" fill="url(#paint14_linear_2006_74321)"/>
</g>
<g opacity="0.2" style="mix-blend-mode:overlay">
<path d="M104.587 127.247C106.562 126.336 108.819 127.527 109.102 129.698C109.878 135.652 110.16 147.419 102.612 156.595C92.8071 168.642 86.7407 135.792 104.587 127.247Z" fill="url(#paint15_linear_2006_74321)"/>
</g>
<defs>
<linearGradient id="paint0_linear_2006_74321" x1="99.3915" y1="181.551" x2="99.3915" y2="163.272" gradientUnits="userSpaceOnUse">
<stop stop-color="#20181D"/>
<stop offset="0.0991465" stop-color="#251D21"/>
<stop offset="0.7475" stop-color="#443838"/>
</linearGradient>
<linearGradient id="paint1_linear_2006_74321" x1="94.6587" y1="176.76" x2="94.6587" y2="160.005" gradientUnits="userSpaceOnUse">
<stop offset="0.3862"/>
<stop offset="0.4387" stop-color="#0A0A0A"/>
<stop offset="0.5292" stop-color="#262626"/>
<stop offset="0.6468" stop-color="#545454"/>
<stop offset="0.787" stop-color="#929292"/>
<stop offset="0.9446" stop-color="#E1E1E1"/>
<stop offset="1" stop-color="white"/>
</linearGradient>
<linearGradient id="paint2_linear_2006_74321" x1="99.7929" y1="157.148" x2="99.7929" y2="168.186" gradientUnits="userSpaceOnUse">
<stop stop-color="#20181D"/>
<stop offset="0.4347" stop-color="#221A1F"/>
<stop offset="0.6855" stop-color="#2B2125"/>
<stop offset="0.8888" stop-color="#392E2F"/>
<stop offset="1" stop-color="#443838"/>
</linearGradient>
<linearGradient id="paint3_linear_2006_74321" x1="103.794" y1="17" x2="103.794" y2="166.694" gradientUnits="userSpaceOnUse">
<stop stop-color="#F4D4A2"/>
<stop offset="0.2716" stop-color="#F1CEA0"/>
<stop offset="0.6293" stop-color="#E7BE98"/>
<stop offset="1" stop-color="#D9A58E"/>
</linearGradient>
<linearGradient id="paint4_linear_2006_74321" x1="100.262" y1="133.729" x2="100.262" y2="26.399" gradientUnits="userSpaceOnUse">
<stop offset="0.2376" stop-color="#F2B975"/>
<stop offset="0.3961" stop-color="#F1B36B"/>
<stop offset="0.6689" stop-color="#F0A44F"/>
<stop offset="1" stop-color="#ED8D25"/>
</linearGradient>
<linearGradient id="paint5_linear_2006_74321" x1="99.9292" y1="32.4083" x2="99.9292" y2="127.048" gradientUnits="userSpaceOnUse">
<stop offset="0.0222772" stop-color="#CC5809"/>
<stop offset="0.2641" stop-color="#DA7C32"/>
<stop offset="0.523" stop-color="#E79D56"/>
<stop offset="0.733" stop-color="#EFB26D"/>
<stop offset="0.8663" stop-color="#F2B975"/>
</linearGradient>
<linearGradient id="paint6_linear_2006_74321" x1="102.69" y1="100.392" x2="102.69" y2="161.691" gradientUnits="userSpaceOnUse">
<stop offset="0.2376" stop-color="#F2B975"/>
<stop offset="0.3961" stop-color="#F1B36B"/>
<stop offset="0.6689" stop-color="#F0A44F"/>
<stop offset="1" stop-color="#ED8D25"/>
</linearGradient>
<linearGradient id="paint7_linear_2006_74321" x1="63.0531" y1="91.1457" x2="137.057" y2="91.1457" gradientUnits="userSpaceOnUse">
<stop offset="0.2475" stop-color="#F2B975"/>
<stop offset="0.2861" stop-color="#F3BE7F"/>
<stop offset="0.3527" stop-color="#F6CC9B"/>
<stop offset="0.4391" stop-color="#FAE3C8"/>
<stop offset="0.6485" stop-color="#F2B975"/>
</linearGradient>
<linearGradient id="paint8_linear_2006_74321" x1="153.301" y1="59.4011" x2="26.6189" y2="133.06" gradientUnits="userSpaceOnUse">
<stop offset="0.2475" stop-color="#F2B975"/>
<stop offset="0.2861" stop-color="#F3BE7F"/>
<stop offset="0.3527" stop-color="#F6CC9B"/>
<stop offset="0.6485" stop-color="#F2B975"/>
</linearGradient>
<linearGradient id="paint9_linear_2006_74321" x1="77.3321" y1="120.384" x2="134.52" y2="120.384" gradientUnits="userSpaceOnUse">
<stop offset="0.2475" stop-color="#F2B975"/>
<stop offset="0.2861" stop-color="#F3BE7F"/>
<stop offset="0.3527" stop-color="#F6CC9B"/>
<stop offset="0.4391" stop-color="#FAE3C8"/>
<stop offset="0.6485" stop-color="#F2B975"/>
</linearGradient>
<linearGradient id="paint10_linear_2006_74321" x1="151.636" y1="97.3886" x2="68.5278" y2="145.712" gradientUnits="userSpaceOnUse">
<stop offset="0.2475" stop-color="#F2B975"/>
<stop offset="0.2861" stop-color="#F3BE7F"/>
<stop offset="0.3527" stop-color="#F6CC9B"/>
<stop offset="0.4391" stop-color="#FAE3C8"/>
<stop offset="0.6485" stop-color="#F2B975"/>
</linearGradient>
<linearGradient id="paint11_linear_2006_74321" x1="99.5874" y1="27.9051" x2="99.5655" y2="17.7784" gradientUnits="userSpaceOnUse">
<stop stop-color="#F2B975"/>
<stop offset="0.2253" stop-color="#F1B36B"/>
<stop offset="0.6126" stop-color="#F0A44F"/>
<stop offset="1" stop-color="#EE912D"/>
</linearGradient>
<linearGradient id="paint12_linear_2006_74321" x1="90.0097" y1="163.018" x2="90.0097" y2="26.4495" gradientUnits="userSpaceOnUse">
<stop offset="0.4505"/>
<stop offset="0.4975" stop-color="#0A0A0A"/>
<stop offset="0.5785" stop-color="#262626"/>
<stop offset="0.6838" stop-color="#545454"/>
<stop offset="0.8094" stop-color="#929292"/>
<stop offset="0.9504" stop-color="#E1E1E1"/>
<stop offset="1" stop-color="white"/>
</linearGradient>
<linearGradient id="paint13_linear_2006_74321" x1="89.8401" y1="21.5465" x2="75.7407" y2="21.5465" gradientUnits="userSpaceOnUse">
<stop/>
<stop offset="0.0855143" stop-color="#0A0A0A"/>
<stop offset="0.233" stop-color="#262626"/>
<stop offset="0.4246" stop-color="#545454"/>
<stop offset="0.6531" stop-color="#929292"/>
<stop offset="0.9098" stop-color="#E1E1E1"/>
<stop offset="1" stop-color="white"/>
</linearGradient>
<linearGradient id="paint14_linear_2006_74321" x1="129.407" y1="150.402" x2="114.16" y2="141.537" gradientUnits="userSpaceOnUse">
<stop stop-color="#F2B975"/>
<stop offset="0.0533868" stop-color="#D3A166"/>
<stop offset="0.1475" stop-color="#A27C4E"/>
<stop offset="0.2466" stop-color="#765B39"/>
<stop offset="0.3492" stop-color="#523F28"/>
<stop offset="0.456" stop-color="#342819"/>
<stop offset="0.5684" stop-color="#1D160E"/>
<stop offset="0.6889" stop-color="#0D0A06"/>
<stop offset="0.8234" stop-color="#030201"/>
<stop offset="1"/>
</linearGradient>
<linearGradient id="paint15_linear_2006_74321" x1="109.47" y1="143.085" x2="93.1704" y2="143.085" gradientUnits="userSpaceOnUse">
<stop stop-color="#F2B975"/>
<stop offset="0.0533868" stop-color="#D3A166"/>
<stop offset="0.1475" stop-color="#A27C4E"/>
<stop offset="0.2466" stop-color="#765B39"/>
<stop offset="0.3492" stop-color="#523F28"/>
<stop offset="0.456" stop-color="#342819"/>
<stop offset="0.5684" stop-color="#1D160E"/>
<stop offset="0.6889" stop-color="#0D0A06"/>
<stop offset="0.8234" stop-color="#030201"/>
<stop offset="1"/>
</linearGradient>
</defs>
</svg>
