<svg width="200" height="200" viewBox="0 0 200 200" fill="none" xmlns="http://www.w3.org/2000/svg">
<path opacity="0.7" d="M165.346 131.17C157.169 126.174 153.546 126.798 153.443 123.259C153.339 119.72 162.034 118.263 158.411 112.746C156.341 109.624 153.65 109.312 149.716 109.832C149.716 109.832 149.716 109.832 149.613 109.832C149.509 109.832 149.406 109.832 149.302 109.832C149.199 109.832 149.199 109.832 149.095 109.832H148.992C148.578 109.936 148.164 109.936 147.75 110.04C147.232 110.144 146.818 110.248 146.301 110.352C146.404 110.352 146.508 110.248 146.611 110.248C146.715 110.248 146.818 110.248 146.922 110.144C147.232 110.04 147.439 110.04 147.646 109.936C147.75 109.936 147.853 109.832 147.957 109.832C148.06 109.832 148.267 109.728 148.371 109.728C148.474 109.728 148.578 109.624 148.785 109.624C148.888 109.624 149.095 109.52 149.199 109.52C149.302 109.52 149.406 109.416 149.613 109.416C149.82 109.312 150.13 109.207 150.337 109.207C150.441 109.207 150.648 109.103 150.751 108.999C150.855 108.999 150.958 108.895 151.062 108.895C151.165 108.791 151.372 108.791 151.476 108.687C151.579 108.687 151.683 108.583 151.786 108.583C152.304 108.375 152.925 108.167 153.443 107.958C153.546 107.958 153.546 107.958 153.65 107.854C153.857 107.75 153.96 107.75 154.167 107.646C154.167 107.646 154.271 107.646 154.271 107.542C155.099 107.126 155.927 106.813 156.651 106.397C168.451 100.256 176.11 90.3678 174.868 79.7509C171.867 58.4132 144.851 51.2312 136.26 50.8149C135.536 50.8149 134.915 50.7108 134.294 50.7108C127.255 50.6067 125.082 51.9598 125.082 51.9598L122.287 55.4988L117.836 56.8519L115.663 63.6175L113.903 64.1379L113.8 65.1788L113.489 68.5096L105.623 71.3199L105.416 76.7324L105.312 79.4387L108.831 84.1226L107.072 86.1002C107.072 86.1002 107.279 86.6206 109.97 89.6391C108.003 91.9291 108.107 94.6353 108.107 94.6353L111.729 95.8843L112.972 98.1742C107.279 97.6538 100.344 97.862 93.9263 99.2151C92.4773 93.8026 90.8212 90.5759 90.6141 90.2637L93.4088 85.1634L89.9931 82.1449V75.4834L86.5774 71.3199L87.1984 69.2382L87.6125 67.6769C87.6125 67.6769 85.5423 62.993 83.8862 60.599C82.1266 58.1009 78.4004 57.7887 78.4004 57.7887C78.2969 57.7887 78.2969 57.7887 78.1934 57.7887C62.6674 53.7293 27.7858 60.599 25.1981 79.0223C24.163 86.4125 27.2682 93.5944 32.5471 99.8396C33.7891 101.297 35.1347 102.754 36.5838 104.003C38.0329 105.356 39.482 106.605 41.1381 107.75C42.3802 108.687 43.7257 109.624 44.9678 110.456C44.9678 110.456 44.9678 110.456 45.0713 110.456C45.3818 110.665 45.6924 110.873 46.0029 110.977C46.0029 110.977 46.1064 110.977 46.1064 111.081C46.4169 111.289 46.7274 111.393 47.0379 111.601C47.0379 111.601 47.0379 111.601 47.1415 111.601C48.1765 112.122 49.1081 112.746 50.1431 113.267C50.2466 113.267 50.2466 113.371 50.3502 113.371C50.6607 113.475 50.8677 113.683 51.1782 113.787C51.2817 113.787 51.2817 113.891 51.3852 113.891C51.4887 113.995 51.6957 113.995 51.7992 114.099C42.7942 113.995 31.926 116.285 27.3717 121.906C21.0578 129.817 35.0312 134.709 48.3835 136.79C56.043 138.456 57.0781 139.809 57.8026 142.619C58.5272 145.43 65.1516 152.82 90.3036 151.362C103.656 150.113 122.287 146.366 128.911 146.783C133.362 147.095 133.569 148.032 134.087 150.217C134.501 152.299 141.539 153.236 154.788 149.177C168.037 145.325 173.626 136.166 165.346 131.17Z" fill="#A89676"/>
<path d="M139.573 100.986L141.125 98.5918L140.918 96.7182L143.506 96.6141L148.992 87.8708L148.888 84.436L152.614 82.5624L153.753 78.399L150.441 75.6927L150.958 66.9495L146.611 64.8677L145.472 61.4329L140.297 59.0389C140.297 59.0389 140.297 59.0389 140.918 56.6449C138.537 52.6896 135.432 49.4629 133.776 48.0057C126.945 47.9016 124.875 49.2547 124.875 49.2547L122.183 52.7937L117.836 54.1468L115.249 61.1206L113.592 61.641L113.178 66.0127L105.519 68.823L105.312 74.3396L105.208 77.0459L108.624 81.8338L106.968 83.8115C106.968 83.8115 107.175 84.3319 109.763 87.3504C107.796 89.6403 107.9 92.3466 107.9 92.3466L111.419 93.5956L114.11 98.7999C114.11 98.7999 129.843 108.064 135.743 109.833L139.676 102.859L139.573 100.986Z" fill="url(#paint0_radial_9002_29388)"/>
<g opacity="0.07">
<path d="M153.649 78.5035L150.337 75.7972L150.855 67.0539L146.507 64.9722L145.369 61.5374L140.194 59.1434C140.194 59.1434 140.194 59.1434 140.815 56.7494C138.434 52.7941 135.329 49.5674 133.673 48.1102C126.841 48.0061 124.771 49.3592 124.771 49.3592L122.08 52.8982L117.733 54.2513L115.145 61.2251L113.489 61.7455L113.385 62.7864C127.359 64.8681 149.302 71.3215 147.128 90.7857L148.888 87.9753L148.785 84.5405L152.511 82.6669L153.649 78.5035Z" fill="url(#paint1_radial_9002_29388)"/>
</g>
<path d="M173.005 77.3583C170.107 55.8123 143.92 48.5263 135.536 48.1099C134.915 48.1099 134.19 48.0059 133.673 48.0059C135.225 49.4631 138.434 52.6898 140.815 56.645C140.194 59.039 140.194 59.039 140.194 59.039L145.369 61.433L146.508 64.8679L150.855 66.9496L150.337 75.6929L153.65 78.3991L152.511 82.5626L148.785 84.4361L148.888 87.871L143.402 96.6143L140.815 96.7183L141.022 98.5919L139.469 100.986L139.366 102.651L135.432 109.625C136.053 109.833 136.675 109.937 136.985 109.937C157.893 107.439 174.868 93.0753 173.005 77.3583Z" fill="url(#paint2_radial_9002_29388)"/>
<path opacity="0.3" d="M108.314 91.7207C108.417 89.4308 110.28 86.9328 110.28 86.9328L107.486 83.7061L109.142 81.7284L105.726 76.5241L106.036 69.3421L113.592 66.9482L114.213 62.2643L115.973 61.3275L117.94 54.1455L117.629 54.2496L115.041 61.2234L113.385 61.7438L112.971 66.1155L105.519 68.8217L105.312 74.3383L105.208 77.0445L108.624 81.8325L106.968 83.8102C106.968 83.8102 107.175 84.3306 109.763 87.3491C107.796 89.639 107.9 92.3453 107.9 92.3453L111.419 93.5943L112.454 95.676L112.04 93.178C112.04 93.0739 110.28 92.4493 108.314 91.7207Z" fill="url(#paint3_radial_9002_29388)"/>
<g opacity="0.3">
<path d="M135.536 109.729C136.157 109.937 136.778 110.041 137.089 110.041C152.822 108.063 166.277 99.424 171.142 88.3909C165.139 94.1156 155.099 100.673 139.055 103.275L135.536 109.729Z" fill="url(#paint4_radial_9002_29388)"/>
</g>
<path d="M137.917 108.063C135.639 103.9 129.118 99.0078 118.457 96.7179C111.419 95.1566 99.5156 94.8444 89.8895 97.8629C89.8895 97.8629 77.2618 101.506 75.6057 109.729C74.0531 113.892 67.8427 114.413 60.9078 112.539C53.9728 110.666 35.6522 112.019 29.5453 120.033C23.4384 128.048 36.9978 132.94 49.9361 135.126C57.3885 136.895 58.3201 138.144 59.0446 141.059C59.7692 143.973 66.1866 151.363 90.5106 149.906C103.449 148.657 121.459 144.91 127.98 145.326C132.224 145.639 132.534 146.575 132.948 148.761C133.362 150.947 140.194 151.78 153.028 147.72C165.967 143.765 171.453 134.397 163.379 129.401C155.409 124.405 151.993 124.925 151.786 121.386C151.683 117.848 160.17 116.286 156.651 110.77C154.374 107.231 151.269 107.231 146.404 108.167C141.643 109.208 138.952 110.041 137.917 108.063Z" fill="url(#paint5_radial_9002_29388)"/>
<path d="M101.172 95.9883C97.3418 96.3005 93.2015 96.9251 89.6823 98.07C89.6823 98.07 77.3651 101.505 75.6055 109.728C74.0529 113.891 67.8425 114.412 60.9075 112.538C58.4234 111.914 56.9743 111.497 52.834 111.809C54.5937 113.475 58.6304 115.869 65.1513 117.326C86.0596 122.114 93.305 112.642 101.172 95.9883Z" fill="url(#paint6_linear_9002_29388)"/>
<path d="M71.3617 112.643C74.1564 112.33 74.7774 111.914 75.6054 109.728C77.3651 101.505 89.8893 97.8623 89.8893 97.8623C99.4119 94.8438 111.419 95.0519 118.354 96.6132C129.015 98.9031 136.053 102.338 137.192 107.022C138.123 110.873 141.539 109.208 146.404 108.167C148.888 107.646 150.855 107.438 152.511 107.751C145.265 109.832 139.779 110.665 139.883 112.434C139.986 116.91 139.365 119.929 132.637 124.717C124.357 130.545 109.763 134.188 97.7558 130.858C91.7524 129.192 83.4719 127.943 79.9527 124.925C76.4335 121.906 74.4669 119.929 69.7056 119.408C64.9443 118.888 55.4217 116.182 52.7305 111.914C60.804 114.308 71.3617 112.643 71.3617 112.643Z" fill="#E6C082"/>
<path d="M60.7006 113.06C60.2865 112.436 60.4935 110.874 59.8725 109.001C59.148 107.127 57.9059 106.607 55.5252 105.67C55.4217 104.629 54.2832 99.9451 54.2832 99.9451L53.4551 98.4879C53.4551 98.4879 52.6271 98.3838 51.2815 99.3206C49.9359 100.257 48.3833 99.6329 47.4517 98.6961C46.6237 99.3206 45.7956 101.611 45.7956 101.611L43.622 100.778L45.4851 100.986C45.4851 100.986 46.0027 100.049 46.1062 99.6329C46.2097 99.2165 47.0377 98.592 46.9342 98.1757C46.8307 97.7593 45.1746 94.5326 45.1746 94.5326L47.4517 92.555C47.4517 92.555 47.6588 89.1201 46.9342 88.4956C46.3132 87.8711 45.7956 87.6629 44.9676 86.7261C44.1395 85.7894 43.208 84.3321 41.2414 84.0199C42.1729 82.8749 42.1729 80.7932 42.1729 80.7932C42.1729 80.7932 42.1729 80.7932 44.036 81.9382C45.4851 80.8973 47.9693 82.0422 47.9693 82.0422L49.2113 79.4401C49.2113 79.4401 50.1429 80.0646 52.9376 80.6891C55.5252 76.8379 59.148 74.548 59.148 74.548C59.148 74.548 59.2515 71.4254 59.148 67.9906C60.0795 66.5333 61.5286 64.5557 62.6672 62.0576C63.8058 59.6636 66.4969 60.1841 66.4969 60.1841L68.153 57.1656C68.153 57.1656 69.6021 57.7901 70.7407 57.7901C72.1898 57.5819 76.33 55.8124 78.6072 54.7716C63.3917 50.7122 29.5451 57.686 27.061 76.3175C24.5768 95.0531 47.5553 112.852 63.9093 115.662C67.0145 116.183 70.1196 116.287 73.0178 116.183C67.2215 115.974 61.1146 113.58 60.7006 113.06Z" fill="url(#paint7_radial_9002_29388)"/>
<path d="M90.7174 87.6627L93.4085 82.4583L90.0963 79.4398V72.7783L86.7841 68.6148L87.8192 64.9718C87.8192 64.9718 85.8526 60.2879 84.1965 57.7898C82.5404 55.2918 78.9176 54.9795 78.9176 54.9795C78.8141 54.9795 78.8141 54.9795 78.7106 54.9795C76.4335 56.0204 72.2932 57.7898 70.8441 57.998C69.7056 57.998 68.2565 57.3735 68.2565 57.3735L67.1179 60.1838C67.1179 60.1838 64.4267 59.6634 63.2882 62.0574C62.1496 64.4514 60.597 66.5331 59.769 67.9903C59.8725 71.4252 59.769 74.5478 59.769 74.5478C59.769 74.5478 56.0427 76.8377 53.5586 80.6889C50.5569 79.8562 49.6253 79.2316 49.6253 79.2316L48.3833 81.8338C48.3833 81.8338 45.7956 80.6889 44.45 81.7297C42.5869 80.5848 42.5869 80.5848 42.5869 80.5848C42.5869 80.5848 42.5869 82.6665 41.6553 83.8115C43.622 84.1237 44.5535 85.5809 45.3816 86.5177C46.2096 87.4545 46.6236 87.6627 47.3482 88.2872C47.9692 88.9117 47.8657 92.3465 47.8657 92.3465L45.3816 94.3242C45.3816 94.3242 47.0377 97.5509 47.1412 97.9672C47.2447 98.3836 46.3131 99.0081 46.3131 99.4244C46.2096 99.8408 45.6921 100.778 45.6921 100.778L43.829 100.569L46.0026 101.402C46.0026 101.402 46.8307 99.1122 47.6587 98.4877C48.4868 99.4244 50.0394 100.049 51.4884 99.1122C52.834 98.1754 53.6621 98.2795 53.6621 98.2795L54.4901 99.7367C54.4901 99.7367 55.6287 104.421 55.7322 105.461C58.1129 106.294 59.3549 106.815 60.0795 108.792C60.804 110.666 60.4935 112.227 60.9075 112.852C61.218 113.372 67.3249 115.87 73.1213 115.974C85.6456 115.35 95.7892 109.625 95.7892 109.625C95.3751 96.0937 90.7174 87.6627 90.7174 87.6627Z" fill="url(#paint8_radial_9002_29388)"/>
<path d="M63.0814 100.362C55.2149 98.3848 49.8325 95.5745 46.5203 93.3887L45.4853 94.3255C45.4853 94.3255 47.1414 97.5521 47.2449 97.9685C47.3484 98.3848 46.4168 99.0093 46.4168 99.4257C46.3133 99.842 45.7958 100.779 45.7958 100.779L43.9327 100.571L46.1063 101.403C46.1063 101.403 46.9344 99.1134 47.7624 98.4889C48.5905 99.4257 50.1431 100.05 51.5922 99.1134C52.9377 98.1767 53.7658 98.2807 53.7658 98.2807L54.5938 99.738C54.5938 99.738 55.7324 104.422 55.8359 105.463C58.2166 106.295 59.4586 106.816 60.1832 108.793C60.9077 110.667 60.5972 112.228 61.0112 112.853C61.3218 113.373 67.4286 115.871 73.225 115.975C85.7493 115.351 95.8929 109.626 95.8929 109.626C95.7894 103.589 95.1683 100.258 94.1333 96.6154C82.6441 99.3216 76.0197 103.589 63.0814 100.362Z" fill="#F0B57D"/>
<g opacity="0.07">
<path d="M87.3017 66.5331L87.7157 64.9718C87.7157 64.9718 85.7491 60.2879 84.093 57.7898C82.4369 55.2918 78.8141 54.9795 78.8141 54.9795C78.7106 54.9795 78.7106 54.9795 78.6071 54.9795C76.33 56.0204 72.1897 57.7898 70.7406 57.998C69.6021 57.998 68.153 57.3735 68.153 57.3735L67.0144 60.1838C67.0144 60.1838 64.3232 59.6634 63.1847 62.0574C62.0461 64.4514 60.4935 66.5331 59.6654 67.9903C59.769 71.4252 59.6654 74.5478 59.6654 74.5478C59.6654 74.5478 55.9392 76.8377 53.4551 80.6889C50.5569 79.8562 49.6253 79.2317 49.6253 79.2317L48.3833 81.8338C48.3833 81.8338 45.7956 80.6889 44.45 81.7297C42.5869 80.5848 42.5869 80.5848 42.5869 80.5848C42.5869 80.5848 42.5869 82.6665 41.6553 83.8115C43.622 84.1237 44.5535 85.5809 45.3816 86.5177C46.2096 87.4545 46.6236 87.6627 47.3482 88.2872C47.9692 88.9117 47.8657 92.3466 47.8657 92.3466L45.3816 94.3242C45.3816 94.3242 47.0377 97.5509 47.1412 97.9672C47.2447 98.3836 46.3131 99.0081 46.3131 99.4244C46.2096 99.8408 45.6921 100.778 45.6921 100.778L43.829 100.569L46.0026 101.402C46.0026 101.402 46.8307 99.1122 47.6587 98.4877C48.0727 98.904 48.5903 99.3204 49.2113 99.4244C52.213 75.0682 75.3984 68.4067 87.3017 66.5331Z" fill="url(#paint9_radial_9002_29388)"/>
</g>
<path opacity="0.3" d="M86.2664 69.3445L89.5786 72.9876L89.3716 79.9614L92.6838 82.6676L90.0962 87.5597C90.0962 87.5597 91.9593 91.515 93.9259 96.9275C92.4768 90.9945 90.6137 87.7679 90.6137 87.7679L93.3049 82.5635L89.9926 79.545V72.8835L86.6804 68.72L87.7155 65.077C87.7155 65.077 87.5085 64.6607 87.3015 64.0361L87.5085 64.5566L86.2664 69.3445Z" fill="url(#paint10_radial_9002_29388)"/>
<path d="M71.5687 115.037C65.0478 113.997 61.4251 113.58 61.218 109.313C61.1145 106.606 57.8023 105.045 56.9743 105.045C56.1462 105.045 55.7322 100.778 54.6971 98.4877C53.6621 96.1978 52.627 98.0713 50.2464 98.0713C47.9692 98.0713 48.1762 96.1978 47.5552 95.1569C46.9342 94.116 48.5903 93.4915 48.7973 91.9302C49.0043 90.473 48.7973 88.079 48.7973 88.079C48.7973 88.079 47.7622 86.6218 45.1746 84.2278C42.6904 81.9379 43.3114 82.3542 45.5886 82.1461C47.8657 81.9379 48.0727 83.1869 49.0043 82.5624C49.8323 81.9379 50.4534 80.4807 50.4534 80.4807C50.4534 80.4807 52.1095 82.1461 53.4551 81.5216C58.3199 74.9641 59.976 76.2131 60.39 74.9641C60.804 73.7151 60.804 70.9047 61.011 68.6148C61.218 66.3249 64.4267 61.4329 65.8758 61.0165C68.153 60.8083 68.8775 58.9348 69.9126 58.9348C70.9476 58.9348 73.3283 59.3511 77.2615 56.853C78.7106 55.9163 80.0562 55.604 81.1948 55.604C79.8492 55.0836 78.7106 54.9795 78.7106 54.9795C78.6071 54.9795 78.6071 54.9795 78.5036 54.9795C76.2265 56.0204 72.0862 57.7898 70.6371 57.998C69.4986 57.998 68.0495 57.3735 68.0495 57.3735L66.9109 60.1838C66.9109 60.1838 64.2197 59.6634 63.0812 62.0574C61.9426 64.4514 60.39 66.5331 59.5619 67.9903C59.6654 71.4252 59.5619 74.5478 59.5619 74.5478C59.5619 74.5478 55.8357 76.8377 53.3516 80.6889C50.5569 79.8562 49.6253 79.2316 49.6253 79.2316L48.3833 81.8338C48.3833 81.8338 45.7956 80.6889 44.45 81.7297C42.5869 80.5848 42.5869 80.5848 42.5869 80.5848C42.5869 80.5848 42.5869 82.6665 41.6553 83.8115C43.622 84.1237 44.5535 85.5809 45.3816 86.5177C46.2096 87.4545 46.6236 87.6627 47.3482 88.2872C47.9692 88.9117 47.8657 92.3465 47.8657 92.3465L45.3816 94.3242C45.3816 94.3242 47.0377 97.5509 47.1412 97.9672C47.2447 98.3836 46.3131 99.0081 46.3131 99.4244C46.2096 99.8408 45.6921 100.778 45.6921 100.778L43.829 100.569L46.0026 101.402C46.0026 101.402 46.8307 99.1122 47.6587 98.4877C48.4868 99.4244 50.0394 100.049 51.4884 99.1122C52.834 98.1754 53.6621 98.2795 53.6621 98.2795L54.4901 99.7367C54.4901 99.7367 55.6287 104.421 55.7322 105.461C58.1129 106.294 59.3549 106.815 60.0795 108.792C60.804 110.666 60.4935 112.227 60.9075 112.852C61.218 113.372 67.3249 115.87 73.1213 115.974C75.6054 115.87 77.8826 115.558 80.1597 115.037C76.951 115.558 74.0528 115.454 71.5687 115.037Z" fill="url(#paint11_radial_9002_29388)"/>
<path d="M127.98 97.8631C121.562 95.8855 115.352 96.1978 112.454 95.8855L114.006 98.6958C114.006 98.6958 129.739 107.96 135.639 109.729L139.572 102.755L139.676 101.09L140.4 100.049C136.571 100.049 132.741 99.3204 127.98 97.8631Z" fill="#F0B478"/>
<path d="M93.719 96.926C93.719 96.926 77.2615 99.5282 73.4317 109.833C70.5336 117.431 75.1913 119.409 79.2281 122.635C84.4034 126.695 99.5153 131.587 111.005 130.338C124.667 128.881 132.327 124.197 135.846 120.658C139.365 117.015 139.469 111.81 136.881 107.127C134.293 102.443 126.22 98.2792 118.871 97.2383C112.247 96.1974 105.415 95.2606 93.719 96.926Z" fill="#F9AC38"/>
<path d="M138.02 111.602C138.02 120.866 124.357 128.36 106.968 128.36C89.5788 128.36 75.502 120.866 75.502 111.706C75.502 102.443 89.3718 95.7812 106.761 95.7812C124.15 95.7812 138.02 102.339 138.02 111.602Z" fill="url(#paint12_radial_9002_29388)"/>
<path d="M138.02 111.602C138.02 120.866 124.357 128.36 106.968 128.36C89.5788 128.36 75.502 120.866 75.502 111.706C75.502 102.443 89.3718 95.7812 106.761 95.7812C124.15 95.7812 138.02 102.339 138.02 111.602Z" fill="url(#paint13_radial_9002_29388)"/>
<path d="M76.0195 108.375C76.0195 108.375 75.0879 112.538 76.4335 115.557C76.8475 116.494 73.1213 113.579 76.0195 108.375Z" fill="#FFFBDD"/>
<path d="M79.0213 119.305C79.0213 119.305 82.644 122.948 88.5439 124.926C84.9212 124.197 80.7809 121.803 79.0213 119.305Z" fill="#FFFBDD"/>
<path d="M113.178 132.731C113.178 132.731 118.457 132.003 125.703 128.984C132.948 125.966 132.224 128.256 126.22 130.441C120.217 132.731 109.452 133.98 113.178 132.731Z" fill="white"/>
<path d="M140.918 114.1C140.918 114.1 140.711 118.159 137.916 120.657C135.122 123.155 134.397 123.884 134.19 125.133C133.983 126.382 134.708 125.862 138.641 122.115C142.574 118.367 143.402 109.624 140.918 114.1Z" fill="white"/>
<g opacity="0.3">
<path d="M63.9093 115.661C67.0145 116.181 70.1197 116.286 73.0179 116.181C67.2215 115.973 61.1146 113.579 60.8041 113.059C60.3901 112.434 60.5971 110.873 59.976 108.999C59.976 108.999 59.976 108.999 59.976 108.895C48.9009 106.605 40.3098 101.818 34.3065 97.3418C41.8624 106.814 54.0762 113.996 63.9093 115.661Z" fill="url(#paint14_radial_9002_29388)"/>
</g>
<path opacity="0.5" d="M62.6672 124.509C62.6672 124.509 71.6722 121.282 75.1915 125.029C78.7107 128.776 80.9878 127.839 84.1965 128.568C87.4052 129.297 93.2016 132.835 87.7157 132.107C82.2299 131.378 86.9912 133.876 81.1948 135.334C75.3985 136.791 72.9143 136.583 71.9828 133.564C70.9477 130.546 70.9477 129.297 67.946 129.088C64.9443 128.776 54.6972 127.319 62.6672 124.509Z" fill="white"/>
<path d="M68.2565 145.534C68.2565 145.534 71.5687 147.72 82.9544 148.032C94.2366 148.344 109.866 144.701 112.247 145.222C114.731 145.846 93.6156 150.738 83.2649 149.489C72.8108 148.24 66.7039 147.304 68.2565 145.534Z" fill="white"/>
<path opacity="0.5" d="M125.806 96.9258C125.806 96.9258 133.259 99.2157 136.157 99.4239C138.952 99.632 132.017 100.777 125.806 96.9258Z" fill="white"/>
<path opacity="0.5" d="M119.7 96.3018C119.7 96.3018 122.598 96.3018 123.736 96.7181C124.875 97.1344 121.563 96.9263 119.7 96.3018Z" fill="white"/>
<path opacity="0.5" d="M59.3548 99.3206C59.3548 99.3206 67.0143 101.61 69.9125 101.61C72.8106 101.61 68.4634 102.131 65.2547 101.194C62.046 100.257 59.5618 100.257 59.3548 99.3206Z" fill="white"/>
<path opacity="0.5" d="M73.3282 101.507C73.3282 101.507 77.8825 101.09 79.5386 100.57C81.0912 100.05 77.986 102.027 73.3282 101.507Z" fill="white"/>
<path opacity="0.7" d="M33.789 66.1166C33.789 66.1166 41.0345 57.0611 58.7341 55.2916C70.2233 53.8344 66.497 57.0611 64.0129 58.102C61.5287 59.1428 61.2182 65.1798 55.5254 70.176C49.8325 75.1721 21.3682 78.3988 33.789 66.1166Z" fill="url(#paint15_radial_9002_29388)"/>
<path d="M153.649 78.504L150.337 75.7977L150.855 67.0544L146.507 64.9727L145.369 61.5379L140.193 59.1439C140.193 59.1439 140.193 59.1439 140.815 56.7499C140.09 55.5008 139.262 54.2518 138.33 53.2109C138.744 54.2518 139.055 55.3968 138.951 56.4376C138.744 59.4561 138.951 60.1847 140.918 60.9133C142.885 61.6419 144.127 62.891 144.127 62.891L146.093 66.4299L149.302 67.679V76.11L151.786 78.3999L151.269 81.2102L147.542 84.0205V87.5595L142.264 95.8864L139.469 96.4068C139.469 96.4068 140.297 97.0314 140.297 97.8641C140.297 98.6968 139.779 99.4254 139.158 100.674C138.641 101.715 139.055 101.923 139.158 102.444L139.262 101.091L140.815 98.6968L140.608 96.8232L143.195 96.7191L148.681 87.9758L148.578 84.541L152.304 82.6674L153.649 78.504Z" fill="url(#paint16_radial_9002_29388)"/>
<path opacity="0.7" d="M138.848 49.9827C138.848 49.9827 142.057 53.7298 142.367 56.5402C142.574 59.3505 152.407 61.8486 153.649 66.8447C154.891 71.8409 162.344 76.1084 166.174 74.339C169.9 72.5695 171.452 66.3243 161.205 58.5178C150.855 50.7113 137.606 47.901 138.848 49.9827Z" fill="url(#paint17_radial_9002_29388)"/>
<path d="M138.02 111.498C138.02 120.761 124.357 128.256 106.968 128.256C89.5791 128.256 75.5023 120.761 75.5023 111.602C75.5023 102.338 89.3721 95.6765 106.761 95.6765C124.15 95.6765 138.02 102.234 138.02 111.498Z" fill="url(#paint18_radial_9002_29388)"/>
<path d="M101.689 99.4249C101.689 99.4249 92.6842 101.507 90.9246 104.525C89.165 107.544 86.1633 104.213 89.165 101.819C92.0632 99.4249 104.07 96.7186 101.689 99.4249Z" fill="#FFD696"/>
<path d="M105.726 98.0708C105.726 98.0708 109.245 97.5504 110.177 98.383C111.212 99.2157 109.866 99.528 108.21 99.4239C106.554 99.2157 104.173 99.0076 105.726 98.0708Z" fill="#FFD696"/>
<path d="M66.8076 124.405C66.8076 124.405 71.5689 123.052 73.1215 124.821C74.7776 126.487 63.2884 126.07 66.8076 124.405Z" fill="white"/>
<defs>
<radialGradient id="paint0_radial_9002_29388" cx="0" cy="0" r="1" gradientUnits="userSpaceOnUse" gradientTransform="translate(132.751 104.285) scale(59.4164 59.7494)">
<stop offset="0.00560029" stop-color="#FDE7D4"/>
<stop offset="0.3478" stop-color="#FBCAA1"/>
<stop offset="0.6992" stop-color="#ED9E73"/>
<stop offset="0.982" stop-color="#B96F4C"/>
</radialGradient>
<radialGradient id="paint1_radial_9002_29388" cx="0" cy="0" r="1" gradientUnits="userSpaceOnUse" gradientTransform="translate(132.752 104.286) scale(59.4136 59.7465)">
<stop offset="0.00560029" stop-color="#FDE7D4"/>
<stop offset="0.3478" stop-color="#FBCAA1"/>
<stop offset="0.6992" stop-color="#ED9E73"/>
<stop offset="0.982" stop-color="#B96F4C"/>
</radialGradient>
<radialGradient id="paint2_radial_9002_29388" cx="0" cy="0" r="1" gradientUnits="userSpaceOnUse" gradientTransform="translate(151.987 58.7362) scale(40.8286 41.0574)">
<stop offset="0.1123" stop-color="#F19759"/>
<stop offset="0.5884" stop-color="#E28F5B"/>
<stop offset="1" stop-color="#BD7151"/>
</radialGradient>
<radialGradient id="paint3_radial_9002_29388" cx="0" cy="0" r="1" gradientUnits="userSpaceOnUse" gradientTransform="translate(156.387 95.1204) scale(57.6548 57.978)">
<stop offset="0.1097" stop-color="#F6CDB9"/>
<stop offset="0.982" stop-color="white"/>
</radialGradient>
<radialGradient id="paint4_radial_9002_29388" cx="0" cy="0" r="1" gradientUnits="userSpaceOnUse" gradientTransform="translate(151.987 58.7308) scale(40.831 41.0598)">
<stop offset="0.1123" stop-color="#F19759"/>
<stop offset="0.5884" stop-color="#E28F5B"/>
<stop offset="1" stop-color="#BD7151"/>
</radialGradient>
<radialGradient id="paint5_radial_9002_29388" cx="0" cy="0" r="1" gradientUnits="userSpaceOnUse" gradientTransform="translate(104.307 102.785) scale(95.69 96.2263)">
<stop stop-color="#E6C38D"/>
<stop offset="0.0921438" stop-color="#E7C794"/>
<stop offset="0.2277" stop-color="#EBD1A8"/>
<stop offset="0.3892" stop-color="#F1E3C8"/>
<stop offset="0.5181" stop-color="#F7F3E7"/>
<stop offset="1" stop-color="white"/>
</radialGradient>
<linearGradient id="paint6_linear_9002_29388" x1="76.3369" y1="114.859" x2="75.5896" y2="127.244" gradientUnits="userSpaceOnUse">
<stop stop-color="#B56E42"/>
<stop offset="1" stop-color="white"/>
</linearGradient>
<radialGradient id="paint7_radial_9002_29388" cx="0" cy="0" r="1" gradientUnits="userSpaceOnUse" gradientTransform="translate(62.4957 57.5646) scale(53.1939 53.492)">
<stop offset="0.1123" stop-color="#F19759"/>
<stop offset="0.5884" stop-color="#E28F5B"/>
<stop offset="1" stop-color="#BD7151"/>
</radialGradient>
<radialGradient id="paint8_radial_9002_29388" cx="0" cy="0" r="1" gradientUnits="userSpaceOnUse" gradientTransform="translate(112.423 113.519) scale(85.4458 85.9247)">
<stop offset="0.00560029" stop-color="#FDE7D4"/>
<stop offset="0.3478" stop-color="#FBCAA1"/>
<stop offset="0.6992" stop-color="#ED9E73"/>
<stop offset="0.982" stop-color="#B96F4C"/>
</radialGradient>
<radialGradient id="paint9_radial_9002_29388" cx="0" cy="0" r="1" gradientUnits="userSpaceOnUse" gradientTransform="translate(112.417 113.52) scale(85.4406 85.9195)">
<stop offset="0.00560029" stop-color="#FDE7D4"/>
<stop offset="0.3478" stop-color="#FBCAA1"/>
<stop offset="0.6992" stop-color="#ED9E73"/>
<stop offset="0.982" stop-color="#B96F4C"/>
</radialGradient>
<radialGradient id="paint10_radial_9002_29388" cx="0" cy="0" r="1" gradientUnits="userSpaceOnUse" gradientTransform="translate(112.428 113.518) scale(85.4645 85.9435)">
<stop offset="0.1097" stop-color="#F6CDB9"/>
<stop offset="0.982" stop-color="white"/>
</radialGradient>
<radialGradient id="paint11_radial_9002_29388" cx="0" cy="0" r="1" gradientUnits="userSpaceOnUse" gradientTransform="translate(58.7309 80.5079) scale(55.3561 55.6663)">
<stop offset="0.1097" stop-color="#F6CDB9"/>
<stop offset="0.982" stop-color="white"/>
</radialGradient>
<radialGradient id="paint12_radial_9002_29388" cx="0" cy="0" r="1" gradientUnits="userSpaceOnUse" gradientTransform="translate(80.5157 106.41) scale(60.1497 31.9184)">
<stop offset="0.2124" stop-color="#FFB624"/>
<stop offset="0.5619" stop-color="#F99713"/>
<stop offset="1" stop-color="#EA871B"/>
</radialGradient>
<radialGradient id="paint13_radial_9002_29388" cx="0" cy="0" r="1" gradientUnits="userSpaceOnUse" gradientTransform="translate(121.34 109.618) scale(44.5332 23.6315)">
<stop offset="0.6326" stop-color="#FFB624"/>
<stop offset="0.9161" stop-color="#FFCA41"/>
</radialGradient>
<radialGradient id="paint14_radial_9002_29388" cx="0" cy="0" r="1" gradientUnits="userSpaceOnUse" gradientTransform="translate(57.5639 91.7287) scale(24.2292 24.365)">
<stop offset="0.1123" stop-color="#F19759"/>
<stop offset="0.5884" stop-color="#E28F5B"/>
<stop offset="1" stop-color="#BD7151"/>
</radialGradient>
<radialGradient id="paint15_radial_9002_29388" cx="0" cy="0" r="1" gradientUnits="userSpaceOnUse" gradientTransform="translate(45.6566 58.2341) scale(28.5985 28.7587)">
<stop stop-color="#FDC296"/>
<stop offset="0.1689" stop-color="#F6B286"/>
<stop offset="0.3927" stop-color="#EFA378"/>
<stop offset="0.5775" stop-color="#ED9E73"/>
</radialGradient>
<radialGradient id="paint16_radial_9002_29388" cx="0" cy="0" r="1" gradientUnits="userSpaceOnUse" gradientTransform="translate(143.162 64.4325) scale(35.5105 35.7095)">
<stop offset="0.1097" stop-color="#F6CDB9"/>
<stop offset="0.982" stop-color="white"/>
</radialGradient>
<radialGradient id="paint17_radial_9002_29388" cx="0" cy="0" r="1" gradientUnits="userSpaceOnUse" gradientTransform="translate(157.316 55.0518) scale(32.729 32.9124)">
<stop stop-color="#FDC296"/>
<stop offset="0.1689" stop-color="#F6B286"/>
<stop offset="0.3927" stop-color="#EFA378"/>
<stop offset="0.5775" stop-color="#ED9E73"/>
</radialGradient>
<radialGradient id="paint18_radial_9002_29388" cx="0" cy="0" r="1" gradientUnits="userSpaceOnUse" gradientTransform="translate(99.6787 73.1554) scale(54.8934 55.201)">
<stop offset="0.5592" stop-color="#FE9E0C"/>
<stop offset="0.6969" stop-color="#FE9E0C"/>
<stop offset="1" stop-color="#FD7E09"/>
</radialGradient>
</defs>
</svg>
