<svg width="200" height="200" viewBox="0 0 200 200" fill="none" xmlns="http://www.w3.org/2000/svg">
<path d="M58.6741 116.603C75.8408 118.035 93.0076 117.677 110.293 117.319C117.159 117.199 124.026 116.961 130.538 114.693C133.734 113.619 136.812 111.828 138.943 109.202C142.258 104.905 142.258 98.8177 142.14 93.327C142.14 92.014 142.022 90.8204 141.548 89.6267C140.719 87.5976 138.588 86.2846 136.694 85.3297C133.734 83.778 130.774 82.3456 127.815 81.0326C115.739 75.4226 103.426 70.1706 90.6397 66.2316C80.3397 63.0089 69.5661 60.741 59.0293 62.7701C48.4925 64.7993 33.6935 71.7223 30.7338 82.1069C29.6682 86.0458 29.6682 90.1042 29.905 94.1625C30.2602 99.2951 32.5096 105.621 36.2981 109.083C43.1648 115.528 51.4522 116.006 58.6741 116.603Z" fill="#351F34"/>
<mask id="mask0_9002_25422" style="mask-type:luminance" maskUnits="userSpaceOnUse" x="29" y="62" width="114" height="56">
<path d="M58.6741 116.603C75.8409 118.035 93.0076 117.677 110.293 117.319C117.159 117.199 124.026 116.961 130.538 114.693C133.734 113.619 136.812 111.828 138.943 109.202C142.258 104.905 142.258 98.8177 142.14 93.327C142.14 92.014 142.022 90.8204 141.548 89.6267C140.719 87.5976 138.588 86.2846 136.694 85.3297C133.734 83.778 130.775 82.3456 127.815 81.0326C115.739 75.4226 103.426 70.1706 90.6398 66.2316C80.3398 63.0089 69.5662 60.741 59.0293 62.7701C48.4925 64.7993 33.6936 71.7223 30.7338 82.1069C29.6683 86.0458 29.6683 90.1042 29.9051 94.1625C30.2602 99.2951 32.5097 105.621 36.2982 109.083C43.1649 115.528 51.4523 116.006 58.6741 116.603Z" fill="white"/>
</mask>
<g mask="url(#mask0_9002_25422)">
<g opacity="0.19">
<path d="M15.9349 94.9983C9.4234 83.4201 21.6177 73.513 31.4442 70.4096C43.8753 66.4706 51.6891 54.0569 64.4754 56.2054C78.8007 58.5927 107.807 63.3672 121.54 67.1868C134.681 70.887 154.69 88.9108 156.702 104.905C157.413 110.038 141.311 113.858 136.221 113.022C132.906 112.545 130.064 111.948 127.104 110.157C125.92 109.441 123.197 107.651 121.777 106.935C116.686 104.189 111.24 102.399 105.676 100.728C95.3755 97.6242 83.6548 94.0434 72.7628 91.4174C62.8179 89.0302 52.873 88.1946 42.6913 89.1495C40.6787 89.3882 38.666 89.627 36.7718 90.1044C33.5752 90.7012 38.666 89.5076 35.5879 90.4625C34.4039 90.8206 33.22 91.1787 32.0361 91.6561C31.2074 92.0142 30.497 92.3723 29.6683 92.8497C31.3258 91.8948 29.1948 93.2078 28.958 93.4465C30.9706 91.7755 25.7614 95.8338 25.9982 95.7145C27.4189 94.9983 26.9453 95.1176 26.2349 96.1919C23.3936 100.608 17.9476 98.4598 15.9349 94.9983Z" fill="#321831"/>
</g>
</g>
<mask id="mask1_9002_25422" style="mask-type:luminance" maskUnits="userSpaceOnUse" x="29" y="62" width="114" height="56">
<path d="M58.6741 116.603C75.8409 118.035 93.0076 117.677 110.293 117.319C117.159 117.199 124.026 116.961 130.538 114.693C133.734 113.619 136.812 111.828 138.943 109.202C142.258 104.905 142.258 98.8177 142.14 93.327C142.14 92.014 142.022 90.8204 141.548 89.6267C140.719 87.5976 138.588 86.2846 136.694 85.3297C133.734 83.778 130.775 82.3456 127.815 81.0326C115.739 75.4226 103.426 70.1706 90.6398 66.2316C80.3398 63.0089 69.5662 60.741 59.0293 62.7701C48.4925 64.7993 33.6936 71.7223 30.7338 82.1069C29.6683 86.0458 29.6683 90.1042 29.9051 94.1625C30.2602 99.2951 32.5097 105.621 36.2982 109.083C43.1649 115.528 51.4523 116.006 58.6741 116.603Z" fill="white"/>
</mask>
<g mask="url(#mask1_9002_25422)">
<g opacity="0.18">
<path d="M19.4864 81.2712C12.9749 69.6931 25.1692 59.786 34.9957 56.6825C47.4268 52.7436 55.2406 40.3299 68.0269 42.4784C82.3522 44.8656 111.358 49.6401 125.092 53.4597C138.233 57.16 158.241 75.1837 160.254 91.1783C160.964 96.3109 144.863 100.131 139.772 99.295C136.457 98.8175 133.616 98.2207 130.656 96.4303C129.472 95.7141 126.749 93.9237 125.328 93.2075C120.237 90.4622 114.791 88.6717 109.227 87.0006C98.927 83.8972 87.2063 80.3163 76.3143 77.6904C66.3694 75.3031 56.4245 74.4676 46.2429 75.4225C44.2302 75.6612 42.2175 75.8999 40.3233 76.3774C37.1267 76.9742 42.2175 75.7805 39.1394 76.7354C37.9555 77.0935 36.7715 77.4516 35.5876 77.9291C34.7589 78.2871 34.0485 78.6452 33.2198 79.1227C34.8773 78.1678 32.7463 79.4808 32.5095 79.7195C34.5221 78.0484 29.3129 82.1068 29.5497 81.9874C30.9704 81.2712 30.4968 81.3906 29.7865 82.4649C26.9451 86.8813 21.3807 84.7327 19.4864 81.2712Z" fill="#321831"/>
</g>
</g>
<mask id="mask2_9002_25422" style="mask-type:luminance" maskUnits="userSpaceOnUse" x="29" y="62" width="114" height="56">
<path d="M58.6741 116.603C75.8409 118.035 93.0076 117.677 110.293 117.319C117.159 117.199 124.026 116.961 130.538 114.693C133.734 113.619 136.812 111.828 138.943 109.202C142.258 104.905 142.258 98.8177 142.14 93.327C142.14 92.014 142.022 90.8204 141.548 89.6267C140.719 87.5976 138.588 86.2846 136.694 85.3297C133.734 83.778 130.775 82.3456 127.815 81.0326C115.739 75.4226 103.426 70.1706 90.6398 66.2316C80.3398 63.0089 69.5662 60.741 59.0293 62.7701C48.4925 64.7993 33.6936 71.7223 30.7338 82.1069C29.6683 86.0458 29.6683 90.1042 29.9051 94.1625C30.2602 99.2951 32.5097 105.621 36.2982 109.083C43.1649 115.528 51.4523 116.006 58.6741 116.603Z" fill="white"/>
</mask>
<g mask="url(#mask2_9002_25422)">
<g opacity="0.18">
<path d="M24.5775 73.5115C18.066 61.9333 30.2603 52.0262 40.0868 48.9228C52.5179 44.9838 60.3317 32.5701 73.1179 34.7186C87.4433 37.1059 116.449 41.8804 130.183 45.7C143.324 49.4002 163.332 67.424 165.345 83.4186C166.055 88.5511 149.954 92.3708 144.863 91.5352C141.548 91.0578 138.707 90.4609 135.747 88.6705C134.563 87.9543 131.84 86.1639 130.419 85.4477C125.329 82.7024 119.883 80.9119 114.318 79.2409C104.018 76.1374 92.2973 72.5566 81.4053 69.9306C71.4605 67.5433 61.5156 66.7078 51.334 67.6627C49.3213 67.9014 47.3086 68.1401 45.4144 68.6176C42.2178 69.2144 47.3086 68.0208 44.2305 68.9757C43.0466 69.3338 41.8626 69.6918 40.6787 70.1693C39.85 70.5274 39.1396 70.8855 38.3109 71.3629C39.9684 70.408 37.8373 71.721 37.6005 71.9597C39.6132 70.2887 34.404 74.347 34.6408 74.2276C36.0615 73.5115 35.5879 73.6308 34.8776 74.7051C32.0362 79.0021 26.5901 76.973 24.5775 73.5115Z" fill="#321831"/>
</g>
</g>
<path d="M117.396 85.6882C109.109 83.0622 100.94 80.1975 92.5339 77.9296C88.3902 76.736 84.2465 75.6618 79.9845 74.7069C75.7224 73.752 71.1051 73.8713 67.6718 71.2453C65.8959 69.9324 67.1982 67.4257 68.7373 66.7095C72.4074 65.2772 76.4327 66.8289 80.1029 67.6645C84.8385 68.8581 89.4558 70.2904 94.0731 71.8422C102.479 74.8262 110.648 78.7652 118.58 82.7041C120.119 83.5397 119.054 86.285 117.396 85.6882Z" fill="#A987A7"/>
<path d="M117.988 95.355C114.2 94.1614 109.819 93.9227 106.03 93.2065C99.2822 91.8935 92.5339 90.8193 85.6672 90.1031C80.2212 89.5063 74.6568 89.1482 69.2108 88.9095C63.4096 88.6707 56.5429 90.2224 50.9785 88.7901C45.6509 87.3577 43.5199 78.6443 49.0843 76.0183C55.2406 73.1536 62.5809 74.7053 69.0924 75.6602C75.6039 76.6151 82.1154 77.9281 88.5086 79.3605C95.7305 80.9122 102.716 82.9413 109.582 85.6867C113.489 87.2384 117.633 89.0288 119.882 92.7291C120.711 94.0421 119.527 95.8325 117.988 95.355Z" fill="#A987A7"/>
<mask id="mask3_9002_25422" style="mask-type:luminance" maskUnits="userSpaceOnUse" x="29" y="62" width="114" height="56">
<path d="M58.6741 116.604C75.8409 118.036 93.0076 117.678 110.293 117.32C117.159 117.2 124.026 116.962 130.538 114.694C133.734 113.62 136.812 111.829 138.943 109.203C142.258 104.906 142.258 98.8186 142.14 93.328C142.14 92.015 142.022 90.8213 141.548 89.6277C140.719 87.5985 138.588 86.2855 136.694 85.3306C133.734 83.7789 130.775 82.3466 127.815 81.0336C115.739 75.4235 103.426 70.1716 90.6398 66.2326C80.3398 63.0098 69.5662 60.742 59.0293 62.7711C48.4925 64.8003 33.6936 71.7233 30.7338 82.1078C29.6683 86.0468 29.6683 90.1051 29.9051 94.1635C30.2602 99.2961 32.5097 105.622 36.2982 109.084C43.1649 115.529 51.4523 116.007 58.6741 116.604Z" fill="white"/>
</mask>
<g mask="url(#mask3_9002_25422)">
<g opacity="0.36">
<path d="M140.601 117.201C115.62 127.346 86.8512 128.898 60.4499 125.317C48.374 123.646 36.6533 120.185 26.59 113.142C21.2624 109.442 18.3026 103.832 15.5796 98.1025C12.383 91.2989 10.3704 84.4952 12.6198 77.0947C14.6325 70.291 23.3934 68.0231 27.8923 73.9913C31.7992 79.2432 28.8395 84.1371 31.6808 89.9859C34.759 96.3121 38.9027 98.58 41.3889 99.7736C46.5982 102.4 54.7671 102.28 60.4499 103.354C73.1178 105.742 85.9041 106.339 98.6903 107.293C112.305 108.248 126.039 107.413 139.535 109.203C143.679 109.8 144.389 115.649 140.601 117.201Z" fill="#4C0F34"/>
</g>
</g>
<path d="M128.407 106.099C123.908 100.369 118.462 97.2657 115.739 90.462C123.434 88.9103 129.591 87.9554 137.523 88.1941C137.286 86.6424 133.734 84.6132 132.787 83.4196C136.102 82.9422 142.85 84.7326 144.745 87.5973C148.888 93.5654 148.178 95.8333 151.019 97.8625C155.873 101.324 162.977 97.9819 169.015 97.9819C171.383 97.9819 172.922 97.385 173.987 99.5336C175.408 102.279 175.408 104.666 173.514 105.382C168.896 107.053 163.45 107.053 158.596 106.695C154.926 106.457 151.493 106.099 148.296 107.77C144.745 109.56 143.324 112.902 140.009 115.051C133.024 119.586 124.855 116.006 120.238 119.945C119.29 114.096 123.789 109.441 128.407 106.099Z" fill="#398914"/>
<path d="M106.504 110.514C94.5467 114.692 82.234 115.885 69.6845 114.811C58.6741 113.856 41.5073 110.514 36.4165 99.4134C35.1142 96.5487 37.8372 92.2516 41.2705 93.2065C46.4798 94.6389 50.5051 97.8617 55.4775 100.01C60.5683 102.278 65.8959 103.591 71.3419 104.427C82.4707 106.217 94.0731 105.859 105.32 105.143C108.043 104.904 109.582 109.44 106.504 110.514Z" fill="#351532"/>
<path d="M70.8683 114.215C66.1326 114.812 60.805 113.738 56.1878 112.783C51.5705 111.947 46.9532 110.276 43.0463 107.77C36.6532 103.711 28.2474 94.1624 31.6808 85.9264C32.7463 83.5391 35.9428 83.3004 37.4819 85.2102C39.3762 87.5975 39.9681 90.5815 41.1521 93.3269C42.5728 96.5497 45.1774 99.295 47.9004 101.444C53.5832 105.979 63.6464 110.515 70.9867 110.754C72.881 110.873 72.7626 113.977 70.8683 114.215Z" fill="#351532"/>
<g style="mix-blend-mode:soft-light" opacity="0.2">
<path d="M120.119 112.424C119.764 112.901 119.291 113.14 118.817 113.498C117.87 114.214 116.331 114.214 115.265 114.095C113.608 113.856 112.305 112.662 111.595 111.23C110.53 109.32 111.477 106.933 113.489 106.217C114.318 105.978 115.147 105.739 115.976 105.739C116.923 105.739 117.633 105.978 118.462 106.455C118.817 106.575 119.172 106.813 119.527 107.172C118.58 106.455 119.054 106.814 119.409 107.052C121.303 108.127 121.54 110.872 120.119 112.424Z" fill="#F3CFF1"/>
</g>
<mask id="mask4_9002_25422" style="mask-type:luminance" maskUnits="userSpaceOnUse" x="115" y="83" width="60" height="37">
<path d="M128.407 106.097C123.908 100.367 118.462 97.2637 115.739 90.46C123.434 88.9083 129.591 87.9534 137.523 88.1922C137.286 86.6405 133.734 84.6113 132.787 83.4177C136.102 82.9402 142.85 84.7306 144.745 87.5954C148.888 93.5635 148.178 95.8314 151.019 97.8605C155.873 101.322 162.977 97.9799 169.015 97.9799C171.383 97.9799 172.922 97.3831 173.987 99.5316C175.408 102.277 175.408 104.664 173.514 105.38C168.896 107.051 163.45 107.051 158.596 106.693C154.926 106.455 151.493 106.097 148.296 107.768C144.745 109.558 143.324 112.9 140.009 115.049C133.024 119.585 124.855 116.004 120.238 119.943C119.29 114.094 123.789 109.439 128.407 106.097Z" fill="white"/>
</mask>
<g mask="url(#mask4_9002_25422)">
<path opacity="0.18" d="M112.779 90.222C116.331 88.6703 120.356 88.3121 124.381 88.6702C123.908 87.3572 124.5 85.8055 125.92 85.2087C126.986 84.7313 127.933 84.4926 128.999 84.2538C128.17 82.7021 128.643 80.4342 130.893 80.3148C138.825 80.0761 151.019 84.4925 152.914 93.4447C153.032 94.2803 152.795 94.9965 152.322 95.4739C160.135 97.9805 168.896 97.2644 176.829 96.7869C179.315 96.6675 181.209 100.01 178.841 101.681C174.816 104.426 169.844 104.665 165.108 104.784C159.544 104.904 151.256 104.187 145.81 102.994C139.891 101.681 139.062 96.1901 133.497 93.9222C127.223 91.2962 118.343 94.9965 111.832 93.5641C111.003 93.4447 112.069 90.5801 112.779 90.222Z" fill="#43B61A"/>
</g>
<path d="M128.998 110.157C131.721 107.77 134.8 104.189 138.706 104.547C140.482 104.667 141.666 106.696 140.246 108.248C137.878 110.754 133.852 111.948 130.774 113.261C129.117 113.858 127.578 111.232 128.998 110.157Z" fill="#3A931B"/>
<path d="M138.233 103.354C131.721 103.354 125.92 100.847 120.829 97.0275C120.593 96.7888 120.829 96.4307 121.066 96.5501C126.631 99.7729 131.603 102.876 138.233 102.996C138.47 102.996 138.47 103.354 138.233 103.354Z" fill="#73A853"/>
<path d="M136.576 101.562C132.432 100.01 127.933 99.1746 124.144 96.7873C123.908 96.6679 124.144 96.1905 124.381 96.4292C128.407 98.339 132.669 99.4133 136.812 101.204C137.049 101.204 136.812 101.681 136.576 101.562Z" fill="#73A853"/>
<path d="M122.487 95.5948C120.711 94.6399 118.935 93.5657 117.633 92.014C117.514 91.8946 117.633 91.5365 117.87 91.6559C119.527 92.8495 120.829 94.2818 122.605 95.3561C122.724 95.4755 122.605 95.7142 122.487 95.5948Z" fill="#73A853"/>
<path d="M141.193 101.206C137.168 99.5347 132.905 98.4604 128.88 96.7894C128.643 96.67 128.762 96.3119 128.999 96.4312C133.142 97.6249 137.286 99.1766 141.193 101.206C141.311 101.206 141.311 101.086 141.193 101.206Z" fill="#73A853"/>
<path d="M126.631 95.7136C125.684 95.7136 124.973 95.3555 124.381 94.8781C124.263 94.7587 124.381 94.52 124.618 94.52C125.21 94.8781 125.92 95.2362 126.631 95.2362C126.986 95.2362 126.986 95.7136 126.631 95.7136Z" fill="#73A853"/>
<path d="M142.614 97.8629C138.351 91.7754 127.104 91.6561 120.593 92.4916C120.238 92.4916 120.119 92.0142 120.474 91.8948C126.867 90.1044 138.588 91.8948 142.614 97.8629C142.85 97.8629 142.732 97.9823 142.614 97.8629Z" fill="#73A853"/>
<path d="M143.679 109.201C139.772 116.243 130.064 115.169 123.197 116.243C122.842 116.243 122.724 115.766 123.079 115.766C129.709 113.856 139.18 116.124 143.324 109.082C143.442 108.723 143.797 108.962 143.679 109.201Z" fill="#73A853"/>
<path d="M128.17 113.617C127.223 114.214 125.802 114.453 124.618 114.691C124.263 114.811 124.026 114.214 124.5 114.095C125.447 113.736 126.986 112.901 128.17 113.617Z" fill="#73A853"/>
<path d="M147.586 106.337C144.863 106.934 142.969 107.172 141.193 109.679C140.364 110.873 139.417 111.827 137.996 111.947C137.641 111.947 137.523 111.35 137.878 111.231C140.009 110.514 140.482 108.605 142.14 107.292C143.679 106.217 145.692 105.74 147.467 106.098C147.704 106.217 147.704 106.337 147.586 106.337Z" fill="#73A853"/>
<path d="M149.48 102.518C144.863 102.16 141.785 99.0566 138.825 95.8338C138.707 95.7145 138.825 95.5951 138.943 95.7145C141.903 98.6986 145.1 101.802 149.48 102.16C149.717 102.16 149.717 102.518 149.48 102.518Z" fill="#73A853"/>
<g opacity="0.29">
<path d="M131.13 89.744C133.261 89.3859 135.392 89.1472 137.523 89.5053C139.299 89.8633 141.667 91.4151 142.377 92.9668C142.85 93.9217 142.14 95.1153 140.956 94.7572C139.417 94.2798 138.352 92.8474 137.049 92.1312C135.273 91.1763 133.024 90.9376 131.13 90.5795C130.656 90.5795 130.656 89.8634 131.13 89.744Z" fill="#88C56C"/>
</g>
<g opacity="0.29">
<path d="M146.521 95.1169C146.165 92.4909 144.153 89.9843 142.258 88.1938C140.601 86.6421 138.588 86.4034 136.694 85.3291C136.221 85.0904 136.339 84.2549 136.931 84.2549C141.903 84.3742 147.231 90.1037 147.113 95.1169C147.113 95.475 146.639 95.475 146.521 95.1169Z" fill="#88C56C"/>
</g>
<g opacity="0.38">
<path d="M169.015 99.5326C163.924 100.965 158.36 101.562 153.032 100.607C152.795 100.607 152.914 100.249 153.032 100.249C158.478 100.607 163.569 100.607 168.896 99.2939C169.133 99.2939 169.133 99.5326 169.015 99.5326Z" fill="#88C56C"/>
</g>
<g opacity="0.38">
<path d="M171.738 100.367C170.199 101.084 168.66 101.322 167.121 101.561C164.398 101.8 161.793 102.516 159.07 102.277C158.715 102.277 158.715 101.8 159.07 101.68C161.201 101.442 163.332 101.203 165.463 100.964C167.594 100.725 169.725 100.845 171.619 100.009C171.738 100.009 171.975 100.367 171.738 100.367Z" fill="#88C56C"/>
</g>
<g opacity="0.38">
<path d="M157.294 102.16C156.702 102.16 156.11 102.16 155.637 102.16C155.518 102.16 155.518 101.921 155.637 101.921C156.229 101.921 156.821 101.921 157.294 101.921C157.413 101.921 157.413 102.16 157.294 102.16Z" fill="#88C56C"/>
</g>
<g opacity="0.38">
<path d="M173.395 102.16C171.383 103.234 169.015 103.234 166.765 103.115C166.41 103.115 166.41 102.637 166.765 102.637C168.896 102.398 171.264 102.756 173.277 101.921C173.395 101.921 173.514 102.16 173.395 102.16Z" fill="#88C56C"/>
</g>
<g opacity="0.38">
<path d="M129.709 89.6259C126.394 90.5808 122.724 90.4615 119.29 90.8195C119.054 90.8195 119.054 90.5808 119.29 90.4614C122.605 89.7453 126.275 88.5516 129.709 89.3872C129.709 89.5065 129.709 89.6259 129.709 89.6259Z" fill="#88C56C"/>
</g>
<g opacity="0.38">
<path d="M131.485 105.621C130.182 106.456 129.117 107.411 127.933 108.366C126.749 109.44 125.92 110.634 124.855 111.708C124.5 112.066 124.026 111.589 124.263 111.231C125.565 108.605 128.762 106.456 131.366 105.263C131.603 105.382 131.603 105.621 131.485 105.621Z" fill="#88C56C"/>
</g>
<g opacity="0.38">
<path d="M123.908 112.902C123.197 114.096 122.605 115.289 122.013 116.483C121.895 116.722 121.421 116.602 121.54 116.244C121.895 114.812 122.724 113.738 123.789 112.783C123.908 112.783 124.026 112.902 123.908 112.902Z" fill="#88C56C"/>
</g>
<g opacity="0.38">
<path d="M149.48 98.2204C148.77 97.9817 148.178 97.5042 147.823 96.9074C147.704 96.6687 148.059 96.43 148.178 96.5493C148.77 97.0268 149.007 97.6236 149.48 98.2204C149.599 98.2204 149.599 98.101 149.48 98.2204Z" fill="#88C56C"/>
</g>
<g opacity="0.38">
<path d="M134.208 104.547C131.129 105.144 128.051 103.353 125.565 101.682C125.21 101.443 125.565 100.966 125.802 101.205C128.525 102.398 131.129 104.069 134.208 104.308C134.326 104.428 134.326 104.547 134.208 104.547Z" fill="#88C56C"/>
</g>
<path d="M72.7626 109.679C72.9994 112.185 75.1304 116.363 74.6569 124.36C74.5385 125.435 72.7626 127.822 71.5787 128.896C67.0799 133.074 62.3442 136.416 56.3062 137.251C40.9153 139.519 34.9958 136.177 29.905 133.313C28.721 132.596 26.1164 128.896 25.8797 127.583C25.0509 122.451 24.459 114.214 25.7613 110.395C28.8394 114.573 35.1142 117.437 40.3234 117.795C51.689 118.512 61.8706 113.26 72.7626 109.679Z" fill="#351F34"/>
<mask id="mask5_9002_25422" style="mask-type:luminance" maskUnits="userSpaceOnUse" x="25" y="109" width="50" height="29">
<path d="M72.7626 109.678C72.9994 112.184 74.7753 116.243 74.3017 124.479C74.1833 125.553 72.7626 127.821 71.5787 128.895C67.0799 133.073 62.3442 136.415 56.3062 137.251C40.9153 139.518 34.9958 136.176 29.905 133.312C28.721 132.595 26.1164 128.895 25.8797 127.582C25.0509 122.45 24.459 114.214 25.7613 110.394C28.8394 114.572 35.1142 117.436 40.3234 117.794C51.689 118.63 61.8706 113.259 72.7626 109.678Z" fill="white"/>
</mask>
<g mask="url(#mask5_9002_25422)">
<path d="M49.0844 126.389C49.0844 124.241 49.7947 122.45 50.8602 121.018C52.3993 117.795 55.8326 115.766 59.266 115.527C59.3844 115.527 59.5028 115.408 59.6212 115.408C61.5155 114.095 64.0017 113.498 66.2511 113.975C66.9615 113.975 67.5534 114.214 68.1453 114.572C69.3293 115.169 70.8684 113.02 71.4603 114.453C72.7626 117.437 73.3546 126.389 73.2362 129.612C73.7098 131.522 73.473 130.567 73.5914 132.596C73.7098 133.79 73.473 134.983 72.9994 136.057C72.9994 137.848 72.7626 139.638 72.4074 141.19C71.5787 144.771 68.1454 146.681 64.8304 146.442C63.8833 147.397 62.6994 147.994 61.5155 148.232C56.0695 149.307 51.4522 146.442 50.505 140.832C50.2683 138.922 48.966 129.492 49.0844 126.389Z" fill="#261124"/>
</g>
<mask id="mask6_9002_25422" style="mask-type:luminance" maskUnits="userSpaceOnUse" x="25" y="109" width="50" height="29">
<path d="M72.7626 109.678C72.9994 112.184 74.7753 116.243 74.3017 124.479C74.1833 125.553 72.7626 127.821 71.5787 128.895C67.0799 133.073 62.3442 136.415 56.3062 137.251C40.9153 139.518 34.9958 136.176 29.905 133.312C28.721 132.595 26.1164 128.895 25.8797 127.582C25.0509 122.45 24.459 114.214 25.7613 110.394C28.8394 114.572 35.1142 117.436 40.3234 117.794C51.689 118.63 61.8706 113.259 72.7626 109.678Z" fill="white"/>
</mask>
<g mask="url(#mask6_9002_25422)">
<g opacity="0.67">
<path d="M34.5221 111.589C35.706 123.405 38.3107 135.461 38.4291 147.159C38.4291 151.336 34.2853 153.246 30.852 151.694C23.9853 148.71 23.0382 141.549 22.9198 134.864C22.683 126.748 23.5117 118.273 25.5244 110.395C26.7083 105.143 33.9302 106.575 34.5221 111.589Z" fill="#4C0F34"/>
</g>
</g>
<mask id="mask7_9002_25422" style="mask-type:luminance" maskUnits="userSpaceOnUse" x="25" y="109" width="50" height="29">
<path d="M72.7626 109.678C72.9994 112.184 74.7753 116.243 74.3017 124.479C74.1833 125.553 72.7626 127.821 71.5787 128.895C67.0799 133.073 62.3442 136.415 56.3062 137.251C40.9153 139.518 34.9958 136.176 29.905 133.312C28.721 132.595 26.1164 128.895 25.8797 127.582C25.0509 122.45 24.459 114.214 25.7613 110.394C28.8394 114.572 35.1142 117.436 40.3234 117.794C51.689 118.63 61.8706 113.259 72.7626 109.678Z" fill="white"/>
</mask>
<g mask="url(#mask7_9002_25422)">
<g opacity="0.36">
<path d="M41.8624 116.959C43.0463 122.927 43.7567 129.015 44.7038 135.102C45.6509 141.19 47.0717 147.038 46.5981 153.245C46.2429 157.303 40.6785 159.81 38.4291 155.632C32.5095 144.77 34.2854 130.089 34.6406 118.033C34.7589 113.975 41.0337 112.662 41.8624 116.959Z" fill="#958794"/>
</g>
</g>
<path d="M60.6867 99.2937C56.0694 98.1 49.7947 98.4581 45.059 98.8162C40.3234 99.1743 35.5877 100.607 31.9176 103.591C29.4314 105.62 26.7084 107.291 25.7613 110.394C24.1038 115.885 25.7613 121.376 32.2728 124.957C41.2705 129.97 48.966 129.492 54.1752 128.896C58.9108 128.299 63.5281 126.27 67.1982 123.166C70.3948 120.54 72.9994 116.84 73.2362 112.782C73.473 108.723 69.6844 101.681 60.6867 99.2937Z" fill="#D0D4B1"/>
<path d="M61.8707 101.8C67.4351 103.59 73.5915 109.678 70.2765 116.004C68.5006 119.466 65.5409 121.972 62.1075 123.643C58.4374 125.553 54.5305 125.076 50.7419 124.121C47.0718 123.166 48.2557 118.391 51.4523 117.914C54.8856 117.436 58.6741 116.243 61.6339 114.452C63.173 113.497 64.9489 112.543 65.0673 110.513C65.1857 107.887 62.6994 105.62 60.6868 104.545C59.1477 103.829 60.0948 101.203 61.8707 101.8Z" fill="#C6CDAE"/>
<path d="M42.8095 103.47C43.5199 103.232 44.1119 102.993 44.8222 103.112C45.6509 103.112 45.8877 104.306 45.059 104.664C44.467 104.903 43.8751 105.022 43.2831 105.261C42.8095 105.5 42.336 105.141 42.2176 104.664C41.9808 104.067 42.336 103.59 42.8095 103.47Z" fill="#C6CDAE"/>
<path d="M48.4924 104.664C43.9935 105.619 40.205 108.007 37.1268 111.468C34.0487 115.049 35.8245 117.317 38.9027 120.301C41.1521 122.449 38.7843 125.553 36.1797 125.195C29.0762 124.359 24.5773 117.197 28.1291 110.394C31.9176 103.113 39.9682 99.7705 47.7821 100.606C49.9131 100.845 50.8602 104.068 48.4924 104.664Z" fill="#C6CDAE"/>
<g opacity="0.53">
<path d="M63.6465 109.797C61.989 110.633 60.45 110.513 58.5557 110.991C56.0695 111.587 53.5833 112.542 51.2154 113.617C49.5579 114.452 47.9005 115.407 46.5982 116.72C45.1775 118.033 45.0591 119.824 43.8751 121.375C40.9154 125.434 34.759 126.508 31.7992 121.495C26.3532 112.304 36.2981 104.664 43.9935 102.158C49.6763 100.248 62.581 99.1738 64.712 106.694C65.1856 107.768 64.712 109.2 63.6465 109.797Z" fill="#E7E8BA"/>
</g>
<path d="M51.689 113.856C51.8074 114.214 52.5177 114.572 52.8729 114.452C53.2281 114.333 53.4648 113.975 53.5832 113.617C53.82 113.139 53.9384 112.543 53.82 111.946C53.1097 111.946 52.6361 112.185 51.9258 112.901C51.8074 113.02 51.689 113.617 51.689 113.856Z" fill="#B18E4A"/>
<path d="M51.9257 113.617C52.0441 113.856 52.5177 114.094 52.7544 113.975C52.9912 113.856 53.228 113.617 53.3464 113.378C53.4648 113.02 53.5832 112.543 53.5832 112.185C52.9912 112.185 52.7544 112.304 52.1625 112.901C51.9257 113.02 51.8073 113.498 51.9257 113.617Z" fill="#CBAE8E"/>
<path d="M53.8201 123.882C53.9385 124.241 54.6488 124.599 55.004 124.479C55.3592 124.36 55.5959 124.002 55.7143 123.644C55.9511 123.166 56.0695 122.569 55.9511 121.973C55.2408 121.973 54.7672 122.211 54.0568 122.928C53.9384 123.047 53.8201 123.644 53.8201 123.882Z" fill="#B18E4A"/>
<path d="M54.0568 123.762C54.1752 124.001 54.6488 124.24 54.8856 124.121C55.1224 124.001 55.3591 123.762 55.4775 123.524C55.5959 123.166 55.7143 122.688 55.7143 122.33C55.1223 122.33 54.8856 122.449 54.2936 123.046C54.0568 123.046 53.9384 123.524 54.0568 123.762Z" fill="#CBAE8E"/>
<path d="M48.3741 115.408C48.4925 115.766 49.2028 116.124 49.558 116.005C49.9132 115.885 50.15 115.527 50.2684 115.169C50.5051 114.692 50.6235 114.095 50.5051 113.498C49.7948 113.498 49.3212 113.737 48.6108 114.453C48.3741 114.692 48.2557 115.169 48.3741 115.408Z" fill="#D1A040"/>
<path d="M48.4926 115.288C48.6109 115.527 49.0845 115.765 49.3213 115.646C49.5581 115.527 49.7948 115.288 49.9132 115.049C50.0316 114.691 50.15 114.214 50.15 113.855C49.5581 113.855 49.3213 113.975 48.7293 114.572C48.6109 114.691 48.4926 115.168 48.4926 115.288Z" fill="#EBBD8A"/>
<path d="M47.0717 109.678C47.4269 109.558 47.7821 108.842 47.5453 108.484C47.4269 108.126 47.0718 107.887 46.7166 107.768C46.243 107.529 45.651 107.529 45.0591 107.529C45.0591 108.245 45.2959 108.723 46.0062 109.439C46.243 109.678 46.835 109.797 47.0717 109.678Z" fill="#B18E4A"/>
<path d="M46.9533 109.559C47.1901 109.44 47.4269 108.963 47.3085 108.724C47.1901 108.485 46.9533 108.246 46.7165 108.246C46.3613 108.127 45.8878 108.008 45.5326 108.127C45.5326 108.724 45.7693 108.963 46.2429 109.559C46.3613 109.559 46.7165 109.559 46.9533 109.559Z" fill="#CBAE8E"/>
<path d="M51.4522 107.769C51.8074 107.649 52.1626 106.933 51.9258 106.575C51.8074 106.217 51.4522 105.978 51.097 105.859C50.6235 105.62 50.0315 105.62 49.4396 105.62C49.4396 106.336 49.6763 106.814 50.3867 107.53C50.6235 107.769 51.2155 107.888 51.4522 107.769Z" fill="#B18E4A"/>
<path d="M51.3339 107.53C51.5707 107.411 51.8075 106.933 51.6891 106.695C51.5707 106.456 51.3339 106.217 51.0971 106.217C50.7419 106.098 50.2684 105.978 49.9132 106.098C49.9132 106.695 50.15 106.933 50.6236 107.53C50.742 107.53 51.0971 107.65 51.3339 107.53Z" fill="#CBAE8E"/>
<path d="M45.059 109.558C45.1774 109.2 44.8223 108.484 44.4671 108.365C44.1119 108.245 43.7567 108.365 43.4016 108.603C42.928 108.842 42.5728 109.32 42.2177 109.797C42.8096 110.275 43.2832 110.274 44.3487 110.155C44.5855 110.155 44.9406 109.797 45.059 109.558Z" fill="#B18E4A"/>
<path d="M44.8224 109.558C44.9407 109.319 44.5856 108.722 44.3488 108.722C44.112 108.603 43.7568 108.722 43.52 108.961C43.1649 109.2 42.8097 109.438 42.6913 109.796C43.1648 110.154 43.52 110.154 44.2304 110.035C44.4672 110.035 44.704 109.677 44.8224 109.558Z" fill="#CBAE8E"/>
<path d="M66.8431 109.677C66.9615 109.319 66.6063 108.603 66.2512 108.483C65.896 108.364 65.5408 108.483 65.1856 108.722C64.7121 108.961 64.3569 109.438 64.0017 109.916C64.5937 110.393 65.0673 110.393 66.1328 110.274C66.2512 110.274 66.7247 109.916 66.8431 109.677Z" fill="#B18E4A"/>
<path d="M66.6064 109.676C66.7248 109.438 66.3696 108.841 66.1328 108.841C65.896 108.721 65.5408 108.841 65.3041 109.079C64.9489 109.318 64.5937 109.557 64.4753 109.915C64.9489 110.273 65.3041 110.273 66.0144 110.154C66.1328 110.154 66.488 109.915 66.6064 109.676Z" fill="#CBAE8E"/>
<path d="M47.0718 110.752C47.3085 111.111 48.0189 111.23 48.3741 110.991C48.7293 110.753 48.8476 110.394 48.8476 110.036C48.966 109.44 48.8476 108.962 48.7292 108.365C48.0189 108.485 47.6637 108.843 47.0718 109.798C46.835 109.917 46.9534 110.514 47.0718 110.752Z" fill="#B18E4A"/>
<path d="M47.1902 110.634C47.3086 110.873 47.9006 110.992 48.1374 110.754C48.3741 110.634 48.4925 110.276 48.4925 110.037C48.4925 109.679 48.4925 109.202 48.3741 108.844C47.7822 108.963 47.5454 109.202 47.1902 109.918C47.0718 110.037 47.0718 110.395 47.1902 110.634Z" fill="#CBAE8E"/>
<path d="M53.228 107.888C53.4648 108.246 54.1751 108.366 54.5303 108.127C54.8855 107.888 55.0039 107.53 55.0039 107.172C55.1223 106.575 55.0039 106.098 54.8855 105.501C54.1751 105.62 53.82 105.978 53.228 106.933C52.9912 107.053 53.1096 107.65 53.228 107.888Z" fill="#B18E4A"/>
<path d="M53.3464 107.649C53.4648 107.888 54.0567 108.007 54.2935 107.769C54.5303 107.649 54.6487 107.291 54.6487 107.053C54.6487 106.694 54.6487 106.217 54.5303 105.859C53.9383 105.978 53.7015 106.217 53.3464 106.933C53.228 107.053 53.228 107.53 53.3464 107.649Z" fill="#CBAE8E"/>
<path d="M57.6086 107.172C57.8454 106.933 57.727 106.098 57.3718 105.859C57.0167 105.62 56.6615 105.62 56.3063 105.74C55.7143 105.859 55.2408 106.098 54.7672 106.456C55.2408 107.053 55.596 107.291 56.6615 107.53C56.8983 107.649 57.3718 107.411 57.6086 107.172Z" fill="#D1A040"/>
<path d="M57.3718 107.171C57.6086 106.933 57.4902 106.336 57.2534 106.217C57.0166 106.097 56.6614 106.097 56.4246 106.097C56.0695 106.217 55.5959 106.336 55.3591 106.694C55.7143 107.171 55.9511 107.291 56.7798 107.41C56.8982 107.53 57.2534 107.291 57.3718 107.171Z" fill="#EBBD8A"/>
<path d="M61.7523 106.814C61.3971 107.052 61.2787 107.769 61.5155 108.127C61.7523 108.485 62.1075 108.604 62.4626 108.604C63.0546 108.723 63.5282 108.604 64.1201 108.485C64.0017 107.769 63.6465 107.41 62.8178 106.814C62.581 106.694 61.9891 106.694 61.7523 106.814Z" fill="#BB8929"/>
<path d="M61.9893 107.053C61.7525 107.173 61.6341 107.77 61.7525 108.008C61.8709 108.247 62.2261 108.366 62.4629 108.366C62.818 108.486 63.2916 108.366 63.6468 108.247C63.5284 107.65 63.2916 107.411 62.6997 107.053C62.5813 106.934 62.1077 106.934 61.9893 107.053Z" fill="#CB9151"/>
<path d="M58.9108 105.62C59.1476 105.381 59.0292 104.546 58.674 104.307C58.3189 104.068 57.9637 104.068 57.6085 104.188C57.0166 104.307 56.543 104.546 56.0695 104.904C56.543 105.501 56.8982 105.739 57.9637 105.978C58.2005 105.978 58.6741 105.74 58.9108 105.62Z" fill="#B18E4A"/>
<path d="M58.674 105.501C58.9108 105.262 58.7924 104.665 58.5556 104.546C58.3189 104.427 57.9637 104.427 57.7269 104.427C57.3717 104.546 56.8982 104.665 56.6614 105.024C57.0166 105.501 57.2533 105.62 58.0821 105.74C58.2004 105.859 58.5556 105.74 58.674 105.501Z" fill="#CBAE8E"/>
<path d="M59.8579 105.738C59.6211 106.097 59.9763 106.813 60.3315 106.932C60.6867 107.051 61.0418 106.932 61.397 106.813C61.8706 106.574 62.3442 106.216 62.6993 105.858C62.2258 105.261 61.7522 105.261 60.6867 105.142C60.4499 105.142 59.9763 105.5 59.8579 105.738Z" fill="#B18E4A"/>
<path d="M60.0947 105.739C59.9763 105.978 60.2131 106.575 60.4499 106.694C60.6867 106.813 61.0419 106.694 61.2786 106.574C61.6338 106.455 61.989 106.216 62.2258 105.858C61.8706 105.5 61.5154 105.381 60.6867 105.381C60.4499 105.262 60.0947 105.5 60.0947 105.739Z" fill="#CBAE8E"/>
<path d="M63.1729 106.695C62.9361 107.053 63.2912 107.769 63.6464 107.889C64.0016 108.008 64.3568 107.889 64.7119 107.769C65.1855 107.53 65.6591 107.172 66.0142 106.814C65.5407 106.218 65.0671 106.218 64.0016 106.098C63.7648 106.098 63.2913 106.456 63.1729 106.695Z" fill="#B18E4A"/>
<path d="M63.4095 106.695C63.2911 106.934 63.528 107.531 63.7647 107.65C64.0015 107.769 64.3567 107.65 64.5935 107.531C64.9486 107.411 65.3038 107.172 65.5406 106.814C65.1854 106.456 64.8302 106.337 64.0015 106.337C63.8831 106.337 63.5279 106.576 63.4095 106.695Z" fill="#CBAE8E"/>
<path d="M49.3211 106.096C49.3211 105.738 48.8476 105.142 48.4924 105.142C48.1372 105.142 47.7821 105.38 47.5453 105.619C47.1901 105.977 46.8349 106.455 46.7166 107.051C47.4269 107.409 47.9005 107.29 48.8476 106.932C48.966 106.932 49.3211 106.335 49.3211 106.096Z" fill="#B18E4A"/>
<path d="M49.0845 106.215C49.0845 105.976 48.7293 105.499 48.4925 105.499C48.2557 105.499 48.0189 105.738 47.7821 105.857C47.5454 106.096 47.3086 106.573 47.1902 106.931C47.6638 107.17 48.0189 107.051 48.7293 106.812C48.8476 106.812 49.0845 106.454 49.0845 106.215Z" fill="#CBAE8E"/>
<path d="M42.8096 106.217C42.5728 106.456 42.6912 107.291 43.0464 107.53C43.4016 107.769 43.7567 107.769 44.1119 107.649C44.7039 107.53 45.1774 107.291 45.5326 106.933C45.059 106.336 44.7039 106.098 43.6383 105.859C43.5199 105.74 42.928 105.978 42.8096 106.217Z" fill="#B18E4A"/>
<path d="M43.0463 106.218C42.8095 106.456 42.9279 107.053 43.1647 107.172C43.4015 107.292 43.7566 107.292 43.9934 107.292C44.3486 107.172 44.8221 107.053 45.0589 106.695C44.7038 106.218 44.467 106.098 43.6383 105.979C43.5199 105.859 43.1647 106.098 43.0463 106.218Z" fill="#CBAE8E"/>
<path d="M53.5833 104.904C53.5833 104.546 52.8729 104.069 52.5178 104.188C52.1626 104.307 51.9258 104.546 51.689 104.904C51.4522 105.382 51.2155 105.979 51.2155 106.456C51.9258 106.575 52.3994 106.456 53.2281 105.859C53.4649 105.74 53.5833 105.143 53.5833 104.904Z" fill="#B18E4A"/>
<path d="M53.465 105.024C53.465 104.785 52.9914 104.427 52.6362 104.427C52.3995 104.546 52.1627 104.665 52.0443 104.904C51.8075 105.262 51.6891 105.62 51.6891 106.098C52.281 106.217 52.5178 106.098 53.2282 105.62C53.3466 105.62 53.465 105.262 53.465 105.024Z" fill="#CBAE8E"/>
<path d="M49.0844 113.14C49.4396 113.02 49.6764 112.304 49.558 111.946C49.4396 111.588 49.0844 111.349 48.7292 111.23C48.2557 110.991 47.6637 110.991 47.0718 111.111C47.0718 111.827 47.4269 112.304 48.1373 113.02C48.2557 113.14 48.8477 113.14 49.0844 113.14Z" fill="#B18E4A"/>
<path d="M48.9661 112.901C49.2029 112.781 49.4397 112.304 49.3213 112.065C49.2029 111.826 48.9661 111.707 48.6109 111.588C48.2557 111.468 47.7822 111.468 47.427 111.468C47.427 112.065 47.6638 112.304 48.2558 112.901C48.3741 112.901 48.7293 113.02 48.9661 112.901Z" fill="#CBAE8E"/>
<path d="M47.0717 114.452C47.3085 114.811 48.0188 114.93 48.374 114.691C48.6108 114.452 48.7292 114.094 48.8476 113.617C48.8476 113.02 48.8476 112.543 48.6108 111.946C47.9004 112.185 47.5453 112.543 47.0717 113.378C46.9533 113.736 46.9533 114.214 47.0717 114.452Z" fill="#B18E4A"/>
<path d="M47.1901 114.332C47.3085 114.571 47.9004 114.691 48.1372 114.452C48.374 114.213 48.4924 113.974 48.4924 113.736C48.4924 113.378 48.4924 112.9 48.374 112.542C47.7821 112.661 47.6637 112.9 47.1901 113.616C47.0717 113.736 47.0717 114.094 47.1901 114.332Z" fill="#CBAE8E"/>
<path d="M57.4902 120.541C57.727 120.899 58.4374 121.019 58.7925 120.78C59.0293 120.541 59.1477 120.183 59.2661 119.706C59.2661 119.109 59.2661 118.631 59.0293 118.035C58.319 118.273 57.9638 118.631 57.4902 119.467C57.2534 119.825 57.3718 120.303 57.4902 120.541Z" fill="#B18E4A"/>
<path d="M57.6085 120.422C57.7269 120.661 58.3189 120.78 58.5557 120.542C58.7924 120.303 58.9108 120.064 58.9108 119.825C58.9108 119.467 58.9108 118.99 58.7924 118.632C58.2005 118.751 58.0821 118.99 57.6085 119.706C57.3717 119.825 57.4901 120.184 57.6085 120.422Z" fill="#CBAE8E"/>
<path d="M42.0994 121.017C42.3361 121.375 43.0465 121.495 43.4017 121.256C43.6384 121.017 43.7568 120.659 43.8752 120.182C43.8752 119.585 43.8752 119.108 43.6385 118.511C42.9281 118.749 42.5729 119.108 42.0994 119.943C41.8626 120.182 41.981 120.779 42.0994 121.017Z" fill="#D1A040"/>
<path d="M42.2178 120.78C42.3362 121.018 42.9282 121.138 43.165 120.899C43.4018 120.66 43.5201 120.422 43.5201 120.183C43.5201 119.825 43.5201 119.347 43.4017 118.989C42.8098 119.109 42.6914 119.347 42.2178 120.064C42.0994 120.183 42.0994 120.66 42.2178 120.78Z" fill="#EBBD8A"/>
<path d="M53.4649 112.542C53.1097 112.781 53.1097 113.617 53.4649 113.855C53.7016 114.094 54.1752 114.213 54.5304 114.213C55.1223 114.213 55.5959 114.094 56.1879 113.855C55.9511 113.139 55.4775 112.9 54.6488 112.423C54.1752 112.304 53.7016 112.423 53.4649 112.542Z" fill="#BB8929"/>
<path d="M53.7016 112.661C53.4649 112.78 53.4649 113.377 53.7016 113.616C53.9384 113.855 54.1752 113.855 54.5304 113.855C54.8855 113.855 55.3591 113.735 55.7143 113.616C55.4775 113.138 55.2407 112.9 54.5304 112.542C54.1752 112.422 53.82 112.542 53.7016 112.661Z" fill="#CB9151"/>
<path d="M57.4902 115.528C57.6086 115.886 58.4373 116.124 58.6741 115.886C59.0293 115.647 59.1477 115.289 59.2661 114.931C59.3845 114.334 59.3845 113.857 59.3845 113.26C58.6741 113.379 58.3189 113.618 57.6086 114.453C57.4902 114.692 57.3718 115.289 57.4902 115.528Z" fill="#B18E4A"/>
<path d="M57.7271 115.29C57.8454 115.529 58.4374 115.767 58.6742 115.648C58.911 115.529 59.0294 115.29 59.1478 114.932C59.2662 114.574 59.2662 114.096 59.1478 113.738C58.5558 113.738 58.319 113.977 57.8455 114.574C57.6087 114.693 57.6087 115.171 57.7271 115.29Z" fill="#CBAE8E"/>
<path d="M57.0165 116.482C57.3717 116.244 57.4901 115.527 57.2533 115.169C57.0165 114.811 56.6613 114.692 56.3062 114.692C55.7142 114.572 55.2406 114.692 54.6487 114.931C54.8855 115.647 55.1223 116.005 56.0694 116.482C56.1878 116.721 56.7797 116.602 57.0165 116.482Z" fill="#B18E4A"/>
<path d="M56.7798 116.363C57.0166 116.243 57.1349 115.647 56.8981 115.408C56.7797 115.169 56.4246 115.05 56.1878 115.05C55.8326 115.05 55.3591 115.05 55.0039 115.169C55.1223 115.766 55.3591 116.005 56.0694 116.363C56.1878 116.482 56.6614 116.482 56.7798 116.363Z" fill="#CBAE8E"/>
<path d="M59.3843 123.405C59.7395 123.166 59.8579 122.45 59.6211 122.092C59.3843 121.734 59.0291 121.614 58.674 121.614C58.082 121.495 57.6084 121.614 57.0165 121.853C57.2533 122.569 57.4901 122.927 58.4372 123.405C58.5556 123.524 59.1475 123.524 59.3843 123.405Z" fill="#D1A040"/>
<path d="M59.1476 123.285C59.3844 123.166 59.5027 122.569 59.2659 122.33C59.1475 122.092 58.7924 121.972 58.5556 121.972C58.2004 121.972 57.7269 121.972 57.3717 122.092C57.4901 122.688 57.7269 122.927 58.4372 123.285C58.5556 123.404 59.0292 123.404 59.1476 123.285Z" fill="#EBBD8A"/>
<path d="M54.7672 125.672C55.1224 125.433 55.2408 124.717 55.004 124.359C54.7673 124.001 54.4121 123.882 54.0569 123.882C53.4649 123.762 52.9914 123.882 52.3994 124.121C52.6362 124.837 52.873 125.195 53.8201 125.672C53.9385 125.911 54.5305 125.792 54.7672 125.672Z" fill="#B18E4A"/>
<path d="M54.5305 125.553C54.7673 125.433 54.8857 124.837 54.6489 124.598C54.5305 124.359 54.1753 124.24 53.9386 124.24C53.5834 124.24 53.1098 124.24 52.7546 124.359C52.873 124.956 53.1098 125.195 53.8202 125.553C53.9386 125.672 54.4121 125.672 54.5305 125.553Z" fill="#CBAE8E"/>
<path d="M59.5029 119.346C59.858 119.466 60.45 118.869 60.5684 118.511C60.5684 118.153 60.3316 117.794 60.0948 117.436C59.7396 116.959 59.2661 116.72 58.7925 116.481C58.4373 117.198 58.4373 117.675 58.7925 118.63C58.7925 118.988 59.2661 119.346 59.5029 119.346Z" fill="#B18E4A"/>
<path d="M59.3845 119.108C59.6213 119.108 60.0949 118.75 60.0949 118.511C60.0949 118.272 59.9765 117.914 59.7397 117.795C59.5029 117.437 59.1478 117.198 58.7926 117.079C58.5558 117.556 58.5558 117.914 58.7926 118.63C58.911 118.869 59.2661 119.108 59.3845 119.108Z" fill="#CBAE8E"/>
<path d="M47.19 115.05C46.8349 114.93 46.1245 115.288 46.1245 115.766C46.0061 116.124 46.2429 116.482 46.4797 116.84C46.8348 117.317 47.19 117.675 47.6636 117.914C48.1371 117.317 48.1371 116.84 48.0187 115.766C47.9004 115.527 47.4268 115.169 47.19 115.05Z" fill="#B18E4A"/>
<path d="M47.1901 115.288C46.9533 115.169 46.4797 115.527 46.3613 115.765C46.3613 116.004 46.4797 116.362 46.5981 116.601C46.8349 116.959 47.1901 117.198 47.5452 117.436C47.9004 116.959 47.9004 116.601 47.782 115.885C47.6636 115.646 47.4269 115.288 47.1901 115.288Z" fill="#CBAE8E"/>
<path d="M46.3614 117.197C46.243 116.839 45.5327 116.601 45.1775 116.72C44.8223 116.839 44.7039 117.317 44.5855 117.675C44.4671 118.152 44.3487 118.749 44.4671 119.346C45.1775 119.346 45.651 118.988 46.243 118.272C46.3614 118.033 46.3614 117.436 46.3614 117.197Z" fill="#B18E4A"/>
<path d="M46.1246 117.317C46.0062 117.078 45.5326 116.839 45.1774 116.959C44.9406 117.078 44.8222 117.317 44.7038 117.675C44.5855 118.033 44.5854 118.51 44.5854 118.868C45.1774 118.868 45.4142 118.63 45.8878 118.033C46.1245 117.913 46.2429 117.555 46.1246 117.317Z" fill="#CBAE8E"/>
<path d="M44.9407 119.705C44.9407 120.063 45.4142 120.66 45.7694 120.66C46.1246 120.66 46.4798 120.421 46.7165 120.182C47.0717 119.824 47.4269 119.347 47.5453 118.75C46.8349 118.392 46.3614 118.511 45.4142 118.869C45.2958 118.869 44.9407 119.347 44.9407 119.705Z" fill="#B18E4A"/>
<path d="M45.1774 119.585C45.1774 119.824 45.5325 120.301 45.7693 120.301C46.0061 120.301 46.2429 120.182 46.4797 119.943C46.7165 119.704 46.9532 119.346 47.0716 118.869C46.5981 118.63 46.2429 118.75 45.5326 118.988C45.4142 118.988 45.1774 119.346 45.1774 119.585Z" fill="#CBAE8E"/>
<path d="M40.9155 124.002C41.1523 124.24 41.981 124.24 42.2178 123.882C42.4546 123.524 42.4546 123.166 42.4546 122.808C42.3362 122.211 42.2178 121.734 41.8627 121.256C41.1523 121.614 40.9155 121.973 40.6788 123.047C40.5604 123.166 40.7971 123.763 40.9155 124.002Z" fill="#B18E4A"/>
<path d="M41.0337 123.763C41.2705 124.002 41.8625 123.883 41.9809 123.644C42.0993 123.405 42.2177 123.166 42.0993 122.808C42.0993 122.45 41.8625 121.973 41.6257 121.615C41.1521 121.853 40.9154 122.212 40.6786 122.928C40.797 123.166 40.9154 123.644 41.0337 123.763Z" fill="#CBAE8E"/>
<path d="M44.9407 125.792C45.2959 125.792 45.7694 125.076 45.651 124.718C45.5326 124.36 45.2959 124.002 44.9407 123.882C44.4672 123.524 43.9936 123.405 43.4016 123.286C43.2832 124.002 43.4016 124.479 43.9936 125.315C44.112 125.673 44.7039 125.792 44.9407 125.792Z" fill="#BB8929"/>
<path d="M44.8223 125.673C45.0591 125.673 45.4143 125.196 45.4143 124.838C45.2959 124.599 45.1775 124.36 44.9407 124.241C44.5856 124.002 44.2304 123.883 43.7568 123.883C43.6384 124.48 43.7568 124.718 44.2304 125.435C44.2304 125.435 44.5855 125.673 44.8223 125.673Z" fill="#CB9151"/>
<path d="M40.0867 109.559C40.0867 109.917 40.797 110.394 41.1522 110.275C41.5074 110.155 41.8626 109.917 41.981 109.559C42.3361 109.081 42.4545 108.604 42.5729 108.007C41.8626 107.888 41.389 108.007 40.5603 108.604C40.2051 108.842 39.9683 109.32 40.0867 109.559Z" fill="#BB8929"/>
<path d="M40.205 109.439C40.205 109.678 40.6785 110.036 41.0337 110.036C41.2705 110.036 41.5072 109.797 41.6256 109.558C41.8624 109.2 41.9808 108.842 41.9808 108.365C41.3889 108.245 41.1521 108.365 40.4417 108.842C40.3233 108.842 40.205 109.32 40.205 109.439Z" fill="#CB9151"/>
<path d="M40.0866 107.052C40.0866 107.41 40.7969 107.888 41.1521 107.768C41.5073 107.649 41.8625 107.41 41.9809 107.052C42.336 106.575 42.4544 106.097 42.5728 105.501C41.8625 105.381 41.3889 105.501 40.5601 106.097C40.205 106.217 39.9682 106.814 40.0866 107.052Z" fill="#B18E4A"/>
<path d="M40.205 106.933C40.205 107.171 40.6785 107.53 41.0337 107.53C41.2705 107.53 41.5072 107.291 41.6256 107.052C41.8624 106.694 41.9808 106.336 41.9808 105.858C41.3889 105.739 41.1521 105.858 40.4417 106.336C40.4417 106.336 40.205 106.694 40.205 106.933Z" fill="#CBAE8E"/>
<path d="M44.7039 105.501C44.7039 105.859 45.4142 106.337 45.7694 106.217C46.1245 106.098 46.4797 105.859 46.5981 105.501C46.9533 105.024 47.0717 104.546 47.1901 103.949C46.4797 103.83 46.0062 103.949 45.1774 104.546C44.9406 104.665 44.7039 105.262 44.7039 105.501Z" fill="#D1A040"/>
<path d="M44.9407 105.381C44.9407 105.62 45.4142 105.978 45.7694 105.978C46.0062 105.978 46.243 105.74 46.3613 105.501C46.5981 105.143 46.7165 104.785 46.7165 104.307C46.1246 104.188 45.8878 104.307 45.1774 104.785C45.059 104.785 44.9407 105.143 44.9407 105.381Z" fill="#EBBD8A"/>
<path d="M39.4947 111.946C39.8499 111.946 40.4418 111.468 40.4418 111.11C40.4418 110.752 40.2051 110.394 39.9683 110.155C39.6131 109.797 39.1395 109.439 38.5476 109.32C38.1924 110.036 38.3108 110.513 38.666 111.468C38.7844 111.588 39.2579 111.946 39.4947 111.946Z" fill="#B18E4A"/>
<path d="M39.3763 111.708C39.6131 111.708 40.0866 111.35 40.0866 111.111C40.0866 110.872 39.8498 110.633 39.7314 110.395C39.4947 110.156 39.0211 109.917 38.6659 109.798C38.4291 110.275 38.5475 110.633 38.7843 111.35C38.9027 111.469 39.2579 111.708 39.3763 111.708Z" fill="#CBAE8E"/>
<path d="M34.8774 110.752C34.5222 110.991 34.5222 111.707 34.759 112.065C34.9958 112.304 35.4694 112.423 35.8245 112.423C36.4165 112.423 36.89 112.304 37.482 112.065C37.2452 111.349 36.8901 111.11 35.9429 110.633C35.7061 110.514 35.1142 110.633 34.8774 110.752Z" fill="#B18E4A"/>
<path d="M35.1141 110.872C34.8773 110.991 34.8773 111.588 34.9957 111.827C35.2325 112.065 35.4693 112.065 35.8245 112.065C36.1797 112.065 36.6532 111.946 37.0084 111.827C36.7716 111.23 36.5348 111.111 35.8245 110.752C35.7061 110.752 35.2325 110.752 35.1141 110.872Z" fill="#CBAE8E"/>
<path d="M32.8649 114.571C33.1017 114.81 33.9304 114.691 34.1672 114.452C34.404 114.094 34.404 113.736 34.2856 113.378C34.1672 112.781 33.9304 112.304 33.6936 111.826C32.9833 112.184 32.8649 112.662 32.6281 113.617C32.5097 113.855 32.7465 114.333 32.8649 114.571Z" fill="#B18E4A"/>
<path d="M32.9832 114.334C33.22 114.573 33.8119 114.453 33.9303 114.214C34.0487 113.976 34.0487 113.618 34.0487 113.379C33.9303 113.021 33.8119 112.543 33.5751 112.305C33.1016 112.543 32.9832 112.902 32.7464 113.618C32.628 113.856 32.8648 114.214 32.9832 114.334Z" fill="#CBAE8E"/>
<path d="M39.6132 108.723C39.6132 108.364 39.1396 107.768 38.7844 107.768C38.4292 107.768 38.0741 108.006 37.8373 108.245C37.4821 108.603 37.1269 109.081 37.0085 109.677C37.7189 110.035 38.1924 109.916 39.1396 109.558C39.258 109.439 39.6132 108.961 39.6132 108.723Z" fill="#B18E4A"/>
<path d="M39.3763 108.723C39.3763 108.484 39.0212 108.006 38.7844 108.006C38.5476 108.006 38.3108 108.126 38.074 108.364C37.8372 108.603 37.6004 108.961 37.4821 109.439C37.9556 109.677 38.3108 109.558 39.0212 109.319C39.1396 109.319 39.3763 108.961 39.3763 108.723Z" fill="#CBAE8E"/>
</svg>
