<svg width="200" height="200" viewBox="0 0 200 200" fill="none" xmlns="http://www.w3.org/2000/svg">
<path d="M94.8425 43.0394C94.9597 60.9611 94.2564 79.0007 92.381 96.8046C91.7949 101.992 91.2088 107.062 90.5055 112.25C89.5678 119.207 87.6923 128.285 92.4982 134.299C94.6081 136.893 98.359 138.897 101.758 138.307C105.978 137.6 107.385 133.355 107.853 129.582C108.088 127.224 108.088 124.748 108.088 122.272C107.854 105.294 107.15 88.1974 106.095 71.219C105.392 57.8956 103.634 44.6901 103.165 31.3667C102.227 31.4846 101.289 31.6025 100.469 31.8383C98.5934 32.3099 96.718 32.8995 94.8425 33.7248C94.8425 36.9083 94.8425 39.9738 94.8425 43.0394Z" fill="#F0F5DE"/>
<path d="M94.8425 43.0394C94.9597 60.9611 94.2564 79.0007 92.381 96.8046C91.7949 101.992 91.2088 107.062 90.5055 112.25C89.5678 119.207 87.6923 128.285 92.4982 134.299C94.6081 136.893 98.359 138.897 101.758 138.307C105.978 137.6 107.385 133.355 107.853 129.582C108.088 127.224 108.088 124.748 108.088 122.272C107.854 105.294 107.15 88.1974 106.095 71.219C105.392 57.8956 103.634 44.6901 103.165 31.3667C102.227 31.4846 101.289 31.6025 100.469 31.8383C98.5934 32.3099 96.718 32.8995 94.8425 33.7248C94.8425 36.9083 94.8425 39.9738 94.8425 43.0394Z" fill="url(#paint0_radial_8002_25873)"/>
<path d="M107.033 91.6167C106.564 92.9137 105.978 94.3285 105.509 95.6255C100.938 106.473 95.0769 116.495 89.6849 126.871C90.0366 129.582 90.8571 132.058 92.6153 134.181C94.7252 136.775 98.4761 138.779 101.875 138.19C106.095 137.482 107.502 133.238 107.971 129.465C108.205 127.106 108.205 124.63 108.205 122.154C107.853 112.132 107.502 101.875 107.033 91.6167Z" fill="#D1D6C4"/>
<path d="M108.791 111.19C107.619 109.185 106.564 107.181 105.626 105.176C103.985 101.639 102.462 98.1019 100.938 94.5648C98.4762 88.5515 96.1319 82.5383 94.1392 76.4072C93.7875 83.1279 93.2015 89.9664 92.4982 96.6871C91.9121 101.875 91.326 106.945 90.6227 112.133C89.685 119.089 87.8095 128.168 92.6154 134.181C94.7253 136.775 98.4762 138.78 101.875 138.19C106.095 137.483 107.502 133.238 107.971 129.465C108.205 127.107 108.205 124.631 108.205 122.155C107.853 118.382 108.791 115.08 108.791 111.19Z" fill="#9FC636"/>
<path d="M128.132 102.111C126.608 92.5604 127.546 82.6562 128.835 73.1059C129.656 67.5643 130.711 62.0227 131.883 56.4811C133.407 48.8172 135.516 41.1533 136.923 33.4894C134.462 31.3671 131.531 29.9522 128.366 29.3627C125.436 28.7732 122.506 28.6553 119.575 28.6553C119.458 29.1269 119.341 29.7164 119.341 30.1881C116.762 45.0442 113.832 59.9004 111.37 74.8744C109.729 85.0144 107.619 95.1543 102.579 104.233C97.5385 112.958 90.2711 120.268 86.0513 129.465C81.9487 138.308 74.9158 154.579 82.3004 163.422C88.3956 170.732 100.469 169.671 108.674 167.784C116.527 165.898 123.443 163.422 128.249 156.583C133.758 148.684 136.22 138.544 135.048 128.993C133.641 119.679 129.656 111.19 128.132 102.111Z" fill="#F0F5DE"/>
<path d="M128.132 102.111C126.608 92.5604 127.546 82.6562 128.835 73.1059C129.656 67.5643 130.711 62.0227 131.883 56.4811C133.407 48.8172 135.516 41.1533 136.923 33.4894C134.462 31.3671 131.531 29.9522 128.366 29.3627C125.436 28.7732 122.506 28.6553 119.575 28.6553C119.458 29.1269 119.341 29.7164 119.341 30.1881C116.762 45.0442 113.832 59.9004 111.37 74.8744C109.729 85.0144 107.619 95.1543 102.579 104.233C97.5385 112.958 90.2711 120.268 86.0513 129.465C81.9487 138.308 74.9158 154.579 82.3004 163.422C88.3956 170.732 100.469 169.671 108.674 167.784C116.527 165.898 123.443 163.422 128.249 156.583C133.758 148.684 136.22 138.544 135.048 128.993C133.641 119.679 129.656 111.19 128.132 102.111Z" fill="url(#paint1_radial_8002_25873)"/>
<path d="M111.136 115.198C109.143 111.896 107.267 108.595 105.626 105.176C105.158 104.233 104.689 103.171 104.22 102.11C103.985 101.757 103.868 101.521 103.868 101.403C103.399 102.346 102.93 103.289 102.462 104.115C97.4213 112.84 90.1539 120.15 85.9341 129.347C81.8316 138.19 74.7986 154.461 82.1832 163.304C88.2784 170.614 100.352 169.553 108.557 167.666C116.41 165.78 123.326 163.304 128.132 156.465C130.359 153.281 132 149.862 133.172 146.089C124.733 136.539 117.817 125.927 111.136 115.198Z" fill="#9FC636"/>
<path d="M125.319 145.382C124.967 143.967 124.498 142.552 124.147 141.255C120.747 131.115 113.949 122.508 108.322 113.547C96.4836 94.5646 78.6667 25.9432 76.7913 25C75.2674 25.2358 73.7436 25.4716 72.2198 25.9433C68.8206 27.0044 65.7729 28.773 63.3114 31.249C64.1319 32.6639 65.1869 33.9609 65.8902 35.4936C72.1026 48.817 75.9707 63.2016 77.8462 77.8219C78.3151 81.5949 78.5495 85.3679 78.9011 89.1409C79.2528 93.1497 79.37 97.1585 79.2528 101.167C78.9012 108.949 77.6118 116.731 76.088 124.395C74.6814 131.941 72.6887 139.369 72.337 147.033C72.2198 150.806 72.5715 154.343 73.1576 157.998C73.6264 161.064 74.6814 164.011 76.5568 166.605C80.425 171.793 87.2235 174.505 93.5532 174.623C102.813 174.741 114.769 172.854 121.685 166.251C127.311 160.828 127.077 152.574 125.319 145.382Z" fill="#F0F5DE"/>
<path d="M125.319 145.382C124.967 143.967 124.498 142.552 124.147 141.255C120.747 131.115 113.949 122.508 108.322 113.547C96.4836 94.5646 78.6667 25.9432 76.7913 25C75.2674 25.2358 73.7436 25.4716 72.2198 25.9433C68.8206 27.0044 65.7729 28.773 63.3114 31.249C64.1319 32.6639 65.1869 33.9609 65.8902 35.4936C72.1026 48.817 75.9707 63.2016 77.8462 77.8219C78.3151 81.5949 78.5495 85.3679 78.9011 89.1409C79.2528 93.1497 79.37 97.1585 79.2528 101.167C78.9012 108.949 77.6118 116.731 76.088 124.395C74.6814 131.941 72.6887 139.369 72.337 147.033C72.2198 150.806 72.5715 154.343 73.1576 157.998C73.6264 161.064 74.6814 164.011 76.5568 166.605C80.425 171.793 87.2235 174.505 93.5532 174.623C102.813 174.741 114.769 172.854 121.685 166.251C127.311 160.828 127.077 152.574 125.319 145.382Z" fill="url(#paint2_radial_8002_25873)"/>
<path d="M134.813 128.875C133.758 119.678 129.656 111.189 128.132 102.11C128.132 101.874 128.015 101.639 128.015 101.403C128.132 102.228 126.139 104.468 125.67 105.176C124.85 106.473 124.029 107.652 123.209 108.831C121.802 111.071 120.396 113.193 118.755 115.316C114.183 121.447 108.44 125.456 102.579 130.29C97.4213 134.534 92.8498 139.84 89.4506 145.618C87.6923 148.565 86.2857 151.513 85.2308 154.814C84.6447 156.347 84.1758 157.998 83.8242 159.648C83.4725 161.181 83.0037 162.832 83.1209 164.483C89.4506 170.496 100.703 169.553 108.44 167.666C116.293 165.78 123.209 163.304 128.015 156.465C133.407 148.565 135.868 138.425 134.813 128.875Z" fill="#93BA2B"/>
<path d="M143.722 135.124C143.136 119.914 142.081 104.351 146.183 89.4945C148.059 82.5381 150.872 75.9354 154.974 70.0401C157.67 66.1491 160.835 62.612 163.531 58.839C163.766 58.2494 164 57.542 164 56.9525C162.359 55.5376 160.601 54.3585 158.608 53.5332C154.154 57.4241 149.934 61.5508 146.418 66.385C144.425 68.9789 142.667 71.8086 141.143 74.7563C139.502 78.0577 138.095 81.359 136.689 84.7783C133.641 91.9706 130.945 99.2807 127.429 106.355C127.429 106.473 127.311 106.473 127.194 106.355C125.201 110.246 122.857 113.901 119.927 117.085C116.996 120.386 113.48 123.216 109.963 125.928C108.908 127.107 107.853 128.286 106.564 129.111C105.04 130.172 103.634 131.233 102.227 132.412C99.4139 134.653 96.2491 136.185 93.7876 138.779C91.326 141.373 88.9817 143.849 86.989 146.679C85.1136 149.391 83.8242 152.692 82.652 155.758C81.3626 159.177 80.8938 162.714 81.011 166.369C81.3627 167.548 82.1832 168.727 83.3553 169.553C90.8572 174.505 97.8901 175.094 106.33 174.976C118.051 174.859 135.165 168.963 140.557 158.234C142.198 154.814 143.253 151.159 143.839 147.386C143.956 143.142 143.839 139.133 143.722 135.124Z" fill="#F0F5DE"/>
<path d="M158.608 53.4155C154.154 57.3064 149.934 61.4331 146.418 66.2673C144.425 68.8612 142.667 71.691 141.143 74.6386C139.502 77.94 138.095 81.2414 136.689 84.6606C133.641 91.8529 130.945 99.1631 127.429 106.237C127.429 106.355 127.311 106.355 127.194 106.237C125.202 110.128 122.857 113.783 119.927 116.967C116.996 120.268 113.48 123.098 109.963 125.81C108.909 126.989 107.854 128.168 106.564 128.993C105.861 129.465 105.158 130.054 104.454 130.526C103.985 130.998 103.517 131.469 103.048 131.941C107.385 129.937 111.37 126.871 114.769 123.452C114.887 123.334 115.004 123.57 115.004 123.57C112.191 126.281 109.846 129.465 107.033 132.177C110.432 130.054 113.363 127.225 116.41 124.513C117.231 123.805 118.051 123.098 118.872 122.391C117.465 124.159 116.059 126.046 114.418 127.696C113.597 128.522 112.894 129.465 112.073 130.408C111.722 130.762 111.487 131.234 111.253 131.587C111.136 131.823 111.018 131.941 110.784 132.177C110.667 132.295 110.667 132.295 110.667 132.413C110.667 132.413 110.55 132.53 110.55 132.648C110.432 132.766 110.55 132.884 110.667 132.766C112.073 131.116 113.714 129.583 115.238 128.05C116.996 126.281 118.637 124.395 120.161 122.508C121.568 120.74 122.974 118.971 124.381 117.203C124.147 117.439 124.029 117.792 123.795 118.028C118.755 125.456 112.659 132.059 108.205 139.841C110.198 136.775 112.659 133.945 115.004 131.234C116.879 129.111 118.637 126.989 120.396 124.749C121.216 123.688 122.037 122.626 122.974 121.683C122.388 122.508 121.92 123.452 121.333 124.277C119.927 126.517 118.286 128.757 116.879 130.998C115.473 133.356 114.418 136.068 112.659 138.072C112.542 138.19 112.659 138.308 112.777 138.19C114.418 136.657 115.473 134.653 116.762 132.884C118.286 130.644 119.81 128.522 121.333 126.399C116.996 133.474 113.246 140.784 109.963 148.33C114.3 141.02 119.81 134.653 124.733 127.814C122.623 131.351 120.865 135.124 118.989 138.897C118.872 139.015 119.106 139.133 119.106 139.015C119.106 139.015 119.106 138.897 119.224 138.897C119.341 138.78 119.224 138.662 119.106 138.779C119.575 138.426 120.044 137.6 120.513 136.893C121.099 135.832 121.802 134.889 122.388 133.827C123.678 131.705 124.967 129.583 126.257 127.461C127.077 126.046 128.015 124.749 128.835 123.334C127.429 126.753 125.436 129.937 124.264 133.474C126.843 130.526 128.601 126.989 130.594 123.688C130.242 124.513 129.89 125.22 129.539 126.046C128.484 128.286 127.429 130.526 126.491 132.884C125.436 135.242 124.147 137.6 123.443 140.076C123.443 140.194 123.561 140.194 123.561 140.076C124.498 137.6 126.022 135.36 127.194 133.002C128.366 130.644 129.656 128.286 130.945 125.928C130.594 127.461 130.007 128.875 129.421 130.29C128.366 132.766 127.429 135.242 126.257 137.718C123.912 142.788 121.216 147.74 118.52 152.692C121.451 149.037 123.443 144.557 125.788 140.43C128.015 136.421 129.539 131.941 131.531 127.814C130.945 129.583 130.476 131.351 129.89 133.238C128.835 136.421 127.663 139.605 126.257 142.67C125.553 144.203 124.85 145.854 124.147 147.387C123.443 148.802 122.623 150.57 122.154 151.749C122.154 151.631 122.037 151.631 122.037 151.749L121.92 151.867C121.92 151.985 121.92 151.985 122.037 151.985C122.974 151.042 123.678 149.627 124.381 148.33C125.319 146.679 126.139 144.911 126.96 143.26C128.484 140.076 130.007 136.775 131.18 133.356C131.766 131.823 132.235 130.29 132.703 128.757C132.117 133.71 130.125 138.426 128.366 142.906C126.374 148.212 124.381 153.518 122.037 158.588C126.139 151.631 130.242 144.557 133.172 137.011C133.055 137.718 132.938 138.308 132.821 139.015C131.531 145.736 129.89 152.457 127.311 158.824C127.194 158.941 127.429 158.941 127.546 158.824C130.476 152.692 133.172 146.208 134.344 139.605C135.048 136.068 135.634 132.648 136.22 129.111C136.22 128.757 136.337 128.404 136.337 128.168C136.337 128.522 136.337 128.875 136.337 129.347C136.22 131.116 136.103 132.766 135.985 134.535C135.634 137.836 135.282 141.138 134.579 144.439C134.227 146.09 133.876 147.858 133.524 149.509C133.172 151.16 133.055 152.81 132.586 154.461C132.586 154.579 132.703 154.579 132.703 154.461C133.407 153.282 133.524 151.985 133.876 150.688C134.227 149.037 134.579 147.387 135.048 145.736C135.517 143.849 135.868 141.963 136.103 139.959C135.868 143.26 135.751 146.561 135.048 149.745C134.696 151.631 134.344 153.636 133.876 155.522C133.641 157.055 132.938 158.824 133.172 160.356C133.172 160.474 133.407 160.356 133.407 160.356C133.407 160.356 133.407 160.238 133.524 160.238C133.641 160.121 133.524 160.003 133.407 160.12C133.641 159.885 133.758 159.059 133.993 158.588C134.344 157.527 134.696 156.465 135.048 155.404C135.751 153.518 136.22 151.513 136.689 149.509C137.626 145.5 137.861 141.491 138.095 137.365C138.213 135.478 138.33 133.592 138.33 131.587C138.564 130.526 138.799 129.465 139.033 128.404C139.033 128.286 139.268 128.286 139.268 128.404C139.971 132.295 139.15 136.186 139.502 140.076C140.791 136.775 140.44 133.12 140.909 129.701C140.909 129.583 141.143 129.583 141.143 129.701C141.377 130.408 141.612 131.116 141.729 131.941C141.963 133.592 141.963 135.242 141.963 136.775C141.963 138.426 141.963 140.194 141.846 141.845C141.729 143.849 141.612 145.854 141.495 147.976C141.377 149.863 141.143 151.749 140.791 153.636C139.971 157.644 138.33 161.3 135.868 164.365C137.861 162.597 139.502 160.474 140.674 158.234C142.315 154.815 143.37 151.16 143.956 147.387C143.956 143.378 143.839 139.251 143.722 135.242C143.136 120.032 142.081 104.469 146.183 89.6127C148.059 82.6562 150.872 76.0535 154.974 70.1582C157.67 66.2673 160.835 62.7301 163.531 58.9571C163.766 58.3676 164 57.6602 164 57.0706C162.359 55.5378 160.601 54.3588 158.608 53.4155ZM126.491 118.618C126.374 118.853 126.257 119.089 126.139 119.207C126.257 118.971 126.374 118.735 126.491 118.618Z" fill="url(#paint3_radial_8002_25873)"/>
<path d="M126.374 151.395C125.905 149.155 125.201 146.915 124.146 144.91C123.326 143.26 122.388 141.609 121.333 139.958C120.278 138.426 119.341 136.893 118.168 135.478C113.714 130.172 108.088 125.692 102.461 121.919C94.608 116.613 85.6995 112.25 79.0182 105.294C78.4321 111.661 77.3772 118.028 76.0878 124.395C74.6812 131.941 72.6886 139.369 72.3369 147.033C72.2197 150.806 72.5713 154.343 73.1574 157.998C73.6263 161.064 74.6812 164.011 76.5567 166.605C80.4248 171.793 87.2234 174.505 93.553 174.623C102.813 174.741 114.769 172.854 121.685 166.251C125.787 162.243 126.725 156.819 126.374 151.395Z" fill="#D6EC9C"/>
<path d="M122.623 148.801C122.271 148.094 121.802 147.386 121.451 146.561C121.099 145.736 120.747 144.91 120.396 144.203C119.575 142.434 118.52 140.784 117.465 139.251C113.597 133.473 108.44 128.404 102.93 124.277C97.304 120.032 91.2088 116.731 85.4652 112.84C82.5348 110.835 79.7216 108.477 77.3773 105.883C74.9157 103.29 73.0403 100.224 71.282 97.1584C64.0146 84.3066 57.2161 71.2191 50.0659 58.2494C49.7143 57.6599 49.3626 57.3061 49.011 56.7166C48.6593 56.0092 48.1905 55.5375 47.6044 55.0659C43.3846 56.8345 39.3993 59.0747 36 62.0224C36.1172 62.6119 36.3516 63.3193 36.8205 63.9089C37.2894 64.6163 37.7582 65.3237 38.2271 66.0312C38.8132 66.7386 39.1648 67.564 39.5165 68.3893C46.5494 81.5948 56.5128 95.6256 59.4432 110.6C61.7875 122.744 55.2234 134.653 56.9817 146.797C60.6154 171.086 88.63 179.928 109.377 172.382C115.238 170.26 122.74 165.78 124.147 159.059C124.967 156.229 124.498 152.928 122.623 148.801Z" fill="#F0F5DE"/>
<path d="M100.469 125.338C95.663 121.211 90.5055 117.674 85.4652 113.901C83.8241 112.604 82.0659 111.425 80.4249 110.246C79.956 109.774 79.6044 109.302 79.1355 108.831C76.9084 106.119 74.9157 103.171 73.0403 100.224C72.1025 98.6909 71.282 97.0402 70.4615 95.3895C63.5458 83.0094 56.9817 70.5113 50.1831 58.1312C49.8315 57.5417 49.4798 57.188 49.1282 56.5984C48.7765 55.891 48.3077 55.4194 47.7216 54.9478C43.5018 56.7163 39.5165 58.9566 36.1172 61.9042C36.2344 62.4937 36.4688 63.2012 36.9377 63.7907C37.4066 64.4981 37.8754 65.2056 38.3443 65.913C38.9304 66.6205 39.282 67.4458 39.6337 68.2711C46.6666 81.4766 56.63 95.5074 59.5604 110.481C61.9047 122.626 55.3406 134.534 57.0989 146.679C58.271 154.46 61.9047 160.709 67.0622 165.308C65.5384 163.421 64.2491 161.181 63.1941 159.059C61.0842 154.696 59.7948 149.98 59.2088 145.146C58.8571 141.962 58.7399 138.543 59.4432 135.242C59.2088 138.425 59.4432 141.727 60.1465 144.792C60.8498 147.976 61.7875 151.159 63.0769 154.225C64.2491 156.936 65.7729 160.002 67.8827 162.006C67.8827 162.006 68 162.006 67.8827 161.889C65.8901 159.648 64.7179 156.465 63.663 153.753C62.4908 150.57 62.1392 147.504 61.4359 144.203C61.0842 142.198 60.967 140.194 60.967 138.189C61.5531 141.373 62.3736 144.556 62.7252 145.853C62.9597 146.679 63.5458 148.683 64.1318 150.57C64.4835 151.749 64.8351 152.928 65.1868 154.107C65.6556 155.404 66.3589 156.583 66.8278 157.762C66.8278 157.88 66.945 157.762 66.945 157.644C66.945 156.583 66.4762 155.522 66.1245 154.46C66.0073 154.107 65.8901 153.753 65.7729 153.281C65.5384 151.984 65.304 150.687 64.9523 149.273C64.4835 147.15 64.0146 145.146 63.7802 143.141C63.7802 143.259 63.7802 143.377 63.7802 143.495C64.3663 146.325 65.304 149.273 66.3589 151.984C66.945 153.399 67.5311 154.814 68.2344 156.229C68.8205 157.408 69.2893 158.587 70.1099 159.648C69.4066 158.587 69.0549 157.29 68.586 156.111C68 154.696 67.5311 153.163 67.0622 151.631C66.2417 148.801 65.5384 145.853 65.1868 142.906C64.9524 140.901 64.8351 139.015 64.7179 137.01C64.8351 137.954 64.9523 139.015 65.0696 139.958C65.4212 142.434 66.0073 144.91 66.7106 147.386C67.4139 149.862 68.1172 152.338 69.1721 154.696C70.1099 156.583 71.1648 158.469 72.6886 159.884C70.5787 153.399 68.2344 146.797 67.4139 139.958C67.5311 140.43 67.6483 141.019 67.7655 141.491C69.0549 146.443 70.4615 151.395 73.1575 155.875C73.1575 155.993 73.2747 155.875 73.2747 155.757C71.1648 151.041 70.3443 145.853 69.2893 140.783C68.8205 138.307 68.2344 135.831 68.1172 133.237C69.0549 137.482 69.9926 141.727 71.5164 145.735C71.3992 144.321 71.1648 142.788 70.9304 141.373C71.3992 143.024 71.8681 144.792 72.4542 146.443C72.8058 147.622 73.2747 148.683 73.6263 149.862C73.8608 150.57 74.2124 151.749 74.7985 152.22C74.7985 152.22 74.9157 152.22 74.9157 152.102C74.3296 151.395 74.2124 149.98 73.978 149.155C73.7436 148.094 73.5091 147.032 73.2747 145.971C72.8058 143.613 72.2197 141.373 71.7509 139.015C71.5165 137.836 71.282 136.539 71.1648 135.36C72.337 139.015 73.2747 142.67 74.5641 146.325C76.0879 150.452 77.8461 154.578 80.7765 157.998C78.9011 152.338 78.5494 146.325 77.7289 140.43C77.3773 137.836 76.9084 135.36 76.4395 132.884C76.5567 133.237 76.674 133.709 76.9084 134.063C77.8461 136.775 78.6666 139.604 79.4871 142.434C80.4249 145.382 81.2454 148.565 81.7143 151.631C81.7143 151.749 81.8315 151.631 81.8315 151.513V151.395C81.8315 151.277 81.7143 151.395 81.7143 151.395C81.7143 150.805 81.9487 150.216 81.9487 149.626C81.9487 149.037 81.8315 148.329 81.7143 147.74C81.4798 146.207 81.2454 144.674 80.8937 143.141C80.3077 140.076 79.4871 137.01 78.6666 134.063C78.5494 133.591 78.4322 133.119 78.1978 132.648C79.0183 134.181 79.8388 135.713 80.5421 137.246C81.1282 138.543 81.7142 139.84 82.4175 141.255C82.652 141.845 83.0036 142.316 83.2381 143.024C83.3553 143.377 83.4725 143.731 83.8241 143.967C83.8241 143.967 83.9414 143.967 83.9414 143.849C83.4725 142.906 83.3553 141.845 83.0036 140.783C82.5348 139.368 82.1831 137.836 81.7143 136.421C81.1282 134.534 80.3077 132.648 79.6044 130.761C79.6044 130.879 79.7216 130.997 79.7216 130.997C79.1355 129.464 78.6666 128.05 78.315 126.517C79.1355 128.403 79.956 130.29 80.7765 132.058C81.597 133.945 82.7692 135.831 83.4725 137.836C83.4725 137.954 83.5897 137.836 83.5897 137.718C82.4175 133.945 80.6593 130.29 79.2527 126.635C78.7839 125.338 78.1978 123.923 77.7289 122.626C80.7765 128.167 83.4725 133.827 86.4029 139.486C85.4652 134.888 84.293 130.172 82.7692 125.691C82.7692 125.573 82.652 125.456 82.652 125.456C83.9414 127.46 85.2307 129.464 86.4029 131.469C87.2234 132.884 87.9267 134.416 88.63 135.949C89.3333 137.482 89.8022 139.015 90.6227 140.312C90.6227 140.312 90.7399 140.312 90.7399 140.194C90.0366 138.779 89.6849 137.128 89.2161 135.595C88.7472 134.063 88.1611 132.648 87.6923 131.115C86.5201 128.167 84.9963 125.456 83.4725 122.744C81.9487 120.15 80.6593 117.438 79.0183 114.962C82.8864 119.56 86.7545 124.159 90.3882 128.875C88.0439 124.277 84.9963 120.15 82.3003 115.669C83.8241 117.32 85.2307 118.971 86.7545 120.621C88.5128 122.508 90.1538 124.512 91.912 126.399C93.2014 127.814 94.608 129.582 96.3663 130.643C96.3663 130.643 96.4835 130.643 96.4835 130.526C93.3186 126.988 90.9743 122.98 87.9267 119.324C87.1062 118.381 86.2857 117.438 85.4652 116.495C87.8095 118.617 90.3882 120.504 92.8498 122.39C91.6776 121.093 90.5055 119.914 89.2161 118.735C92.8498 121.093 96.6007 123.333 100.352 125.456C100.469 125.573 100.586 125.456 100.469 125.338Z" fill="url(#paint4_radial_8002_25873)"/>
<g opacity="0.4" style="mix-blend-mode:soft-light">
<path d="M100.703 161.535C100.117 153.99 95.077 147.74 90.8572 141.845C81.5972 129.111 73.2748 115.788 65.773 101.993C62.1393 95.3902 43.6192 63.0839 41.8609 60.3721H41.7437C40.6887 60.9616 39.3994 61.7869 38.5789 62.7302C39.6338 65.7957 49.8316 84.1891 50.8865 85.7219C52.0587 87.3726 52.8792 89.0232 53.817 90.7918C54.6375 92.3246 55.5752 93.8574 56.2785 95.5081C57.099 97.3946 61.9049 108.478 61.9049 112.251C61.9049 113.076 62.2565 116.377 62.2565 117.321C62.3737 119.443 61.2016 130.998 60.7327 134.771C60.3811 138.308 60.0294 141.963 60.4983 145.5C61.3188 152.221 64.4836 159.295 69.8756 163.54C75.3847 167.902 82.3005 170.732 89.3334 170.85C92.4983 170.968 95.8975 170.85 98.4763 168.728C100.469 166.841 100.938 164.012 100.703 161.535Z" fill="url(#paint5_radial_8002_25873)"/>
</g>
<g opacity="0.4" style="mix-blend-mode:soft-light">
<path d="M81.2455 107.181C85.4652 110.6 90.1539 113.076 95.077 115.316C95.077 115.199 95.077 115.081 95.077 114.963C93.2015 99.517 88.6301 84.5429 83.8242 69.8047C82.6521 66.1496 81.3627 62.4945 80.1905 58.7215C78.9011 54.9485 77.4946 51.1755 75.9707 47.5204C74.5641 43.9833 73.392 40.4461 71.751 37.0268C70.5788 34.7866 69.2894 32.5464 68.1173 30.3062C67.6484 30.542 67.1795 30.7778 66.8279 31.1315C67.7656 32.7822 68.4689 34.6687 69.055 36.5552C69.9927 39.5028 70.8132 42.4505 71.751 45.3981C73.0403 49.1711 73.7436 52.9441 74.6814 56.7171C75.6191 60.608 76.5568 64.381 77.3773 68.2719C80.1905 81.0058 82.1832 94.2112 81.2455 107.181Z" fill="url(#paint6_radial_8002_25873)"/>
</g>
<g opacity="0.4" style="mix-blend-mode:soft-light">
<path d="M124.264 33.0179C124.146 31.4851 122.271 31.1314 121.099 31.9567C121.099 31.8388 121.099 31.8388 121.099 31.7209H120.982C120.982 31.8388 120.982 31.8388 120.982 31.9567C120.864 32.0747 120.747 32.1925 120.63 32.4284C120.63 32.5463 120.513 32.5463 120.513 32.6642C120.278 33.0179 110.198 89.6128 106.212 99.2811C105.626 100.578 105.04 101.875 105.626 103.29C106.212 105.059 107.267 106.709 108.088 108.36C108.557 109.185 109.026 110.128 109.494 110.954C109.846 111.661 110.198 112.722 110.784 113.194C111.487 113.901 112.425 114.255 113.011 113.194C113.363 112.604 113.363 111.543 113.597 110.836C113.831 109.893 114.066 108.949 114.3 108.006C117.231 96.0976 118.989 83.9533 120.161 71.809C121.333 58.8393 125.319 45.9876 124.264 33.0179Z" fill="url(#paint7_radial_8002_25873)"/>
</g>
<g opacity="0.4" style="mix-blend-mode:soft-light">
<path d="M159.897 55.1838C158.843 54.9479 157.67 55.6554 156.85 56.2449C155.678 57.0702 154.506 58.0135 153.451 58.9567C151.927 60.3716 150.637 61.7865 149.465 63.4372C147.59 65.5595 146.066 67.9176 144.425 70.2757C142.432 73.2234 141.26 76.6426 139.736 79.8261C138.916 81.4768 138.564 83.2454 137.744 84.7782C137.04 86.311 136.337 87.8437 135.751 89.4944C132.938 96.5688 129.656 103.407 126.139 110.128C125.319 111.543 124.498 112.958 123.56 114.255C122.623 115.552 121.802 116.967 120.747 118.263C119.575 119.56 118.637 120.975 117.582 122.272C116.41 123.805 115.121 125.102 113.832 126.399C113.128 127.106 112.894 128.168 113.48 128.875C114.418 130.054 115.824 130.997 116.996 131.941C118.286 133.002 119.341 134.181 120.63 135.242C121.802 136.185 122.74 137.718 124.029 138.425C124.85 138.897 125.553 137.836 125.905 137.364C126.725 136.067 127.663 134.652 128.366 133.238C130.007 130.054 131.297 126.635 132.469 123.216C133.758 119.796 135.048 116.377 135.868 112.722C136.806 108.831 137.744 104.94 138.681 100.931C139.502 97.0404 140.674 93.2674 141.963 89.6123C143.253 85.9572 144.19 82.3021 145.597 78.647C146.535 76.4068 147.59 74.1666 148.645 71.9264C149.7 69.5683 150.637 67.3281 152.044 65.0879C153.216 63.2014 154.857 61.5507 155.912 59.7821C156.498 58.8388 157.436 58.2493 158.256 57.5419C158.96 56.9523 159.897 56.4807 160.132 55.5375C160.249 55.4196 160.132 55.1838 159.897 55.1838Z" fill="url(#paint8_radial_8002_25873)"/>
</g>
<defs>
<radialGradient id="paint0_radial_8002_25873" cx="0" cy="0" r="1" gradientTransform="matrix(112.604 -0.92879 0.923355 113.267 97.5432 149.573)" gradientUnits="userSpaceOnUse">
<stop stop-color="white"/>
<stop offset="0.3296" stop-color="#D8E8AF"/>
<stop offset="0.6533" stop-color="#B6D466"/>
<stop offset="0.884" stop-color="#A0C739"/>
<stop offset="1" stop-color="#98C228"/>
</radialGradient>
<radialGradient id="paint1_radial_8002_25873" cx="0" cy="0" r="1" gradientTransform="matrix(119.216 -0.983324 0.97757 119.918 92.356 151.111)" gradientUnits="userSpaceOnUse">
<stop stop-color="white"/>
<stop offset="0.3296" stop-color="#D8E8AF"/>
<stop offset="0.6533" stop-color="#B6D466"/>
<stop offset="0.884" stop-color="#A0C739"/>
<stop offset="1" stop-color="#98C228"/>
</radialGradient>
<radialGradient id="paint2_radial_8002_25873" cx="0" cy="0" r="1" gradientTransform="matrix(115.089 -0.949288 0.943733 115.767 87.965 158.992)" gradientUnits="userSpaceOnUse">
<stop stop-color="white"/>
<stop offset="0.3296" stop-color="#D8E8AF"/>
<stop offset="0.6533" stop-color="#B6D466"/>
<stop offset="0.884" stop-color="#A0C739"/>
<stop offset="1" stop-color="#98C228"/>
</radialGradient>
<radialGradient id="paint3_radial_8002_25873" cx="0" cy="0" r="1" gradientTransform="matrix(85.1248 -0.702132 0.698023 85.6259 104.417 176.082)" gradientUnits="userSpaceOnUse">
<stop stop-color="white"/>
<stop offset="0.3296" stop-color="#D8E8AF"/>
<stop offset="0.6533" stop-color="#B6D466"/>
<stop offset="0.884" stop-color="#A0C739"/>
<stop offset="1" stop-color="#98C228"/>
</radialGradient>
<radialGradient id="paint4_radial_8002_25873" cx="0" cy="0" r="1" gradientTransform="matrix(127.469 -1.0514 1.04524 128.219 75.8478 194.746)" gradientUnits="userSpaceOnUse">
<stop stop-color="white"/>
<stop offset="0.3296" stop-color="#D8E8AF"/>
<stop offset="0.6533" stop-color="#B6D466"/>
<stop offset="0.884" stop-color="#A0C739"/>
<stop offset="1" stop-color="#98C228"/>
</radialGradient>
<radialGradient id="paint5_radial_8002_25873" cx="0" cy="0" r="1" gradientTransform="matrix(102.128 -0.84238 0.837451 102.729 -2.93594 124.252)" gradientUnits="userSpaceOnUse">
<stop stop-color="white"/>
<stop offset="0.5188" stop-color="white"/>
<stop offset="0.6046" stop-color="white"/>
<stop offset="1" stop-color="white"/>
</radialGradient>
<radialGradient id="paint6_radial_8002_25873" cx="0" cy="0" r="1" gradientTransform="matrix(93.4256 -0.770599 0.76609 93.9755 145.675 74.1226)" gradientUnits="userSpaceOnUse">
<stop offset="0.00221549" stop-color="white"/>
<stop offset="0.9102" stop-color="white"/>
<stop offset="1" stop-color="white"/>
</radialGradient>
<radialGradient id="paint7_radial_8002_25873" cx="0" cy="0" r="1" gradientTransform="matrix(90.5161 -0.746601 0.742232 91.0489 48.0534 66.211)" gradientUnits="userSpaceOnUse">
<stop offset="0.00221549" stop-color="white"/>
<stop offset="0.9102" stop-color="white"/>
<stop offset="1" stop-color="white"/>
</radialGradient>
<radialGradient id="paint8_radial_8002_25873" cx="0" cy="0" r="1" gradientUnits="userSpaceOnUse" gradientTransform="translate(90.4259 67.0246) scale(69.1863 69.5936)">
<stop offset="0.00221549" stop-color="white"/>
<stop offset="0.9102" stop-color="white"/>
<stop offset="1" stop-color="white"/>
</radialGradient>
</defs>
</svg>
