<svg width="200" height="200" viewBox="0 0 200 200" fill="none" xmlns="http://www.w3.org/2000/svg">
<path d="M51.861 166.427C50.9667 166.577 50.0724 165.827 49.178 165.527C47.8365 164.926 46.4951 164.626 45.3026 164.176C45.1536 164.176 45.1536 164.026 45.0045 164.026C44.7064 163.876 44.5573 163.726 44.2592 163.576C44.1102 163.426 44.1102 163.276 43.9611 163.126C43.8121 163.276 43.514 163.276 43.2158 163.276C41.5762 163.276 40.5329 161.926 39.6385 160.575C38.8933 159.375 38.5951 157.875 39.0423 156.525C39.4895 155.174 40.98 154.724 42.1725 155.024C43.3649 155.174 44.4083 155.774 45.1536 156.825C45.6007 157.575 46.0479 158.325 46.0479 159.225C46.7932 159.225 47.6875 159.675 48.2837 159.975C49.4762 160.425 50.5195 160.876 51.5629 161.626C52.9044 162.526 54.8421 166.127 51.861 166.427Z" fill="#D2CCDB"/>
<path d="M94.7888 72.9573C94.7888 71.9071 93.8944 71.457 93.1492 71.457C92.702 70.5568 92.1058 69.9566 90.9133 70.4067C88.9756 71.0069 87.0379 72.9573 86.1436 74.7577C85.2493 76.4081 84.9511 79.2588 87.0379 80.159C87.7832 80.459 89.2737 80.0089 90.1681 80.0089C91.2115 80.0089 92.2548 79.8589 93.1492 79.2588C94.9378 77.9084 94.7888 75.0578 94.7888 72.9573Z" fill="#D2CCDB"/>
<path d="M104.477 59.9026C104.477 58.8524 103.583 58.4023 102.838 58.4023C102.391 57.5021 101.794 56.9019 100.602 57.352C98.6643 58.1022 96.7266 59.9026 95.6832 61.703C94.7889 63.3534 94.4907 66.2041 96.5775 67.1043C97.3228 67.4043 98.8133 66.9542 99.7077 66.9542C100.751 66.9542 101.794 66.8042 102.689 66.2041C104.776 64.8538 104.477 62.1531 104.477 59.9026Z" fill="#D2CCDB"/>
<path d="M119.532 42.1995C119.532 41.1493 118.638 40.6992 117.892 40.6992C117.445 39.7989 116.849 39.1988 115.657 39.6489C113.719 40.2491 111.781 42.1995 110.887 43.9999C109.993 45.6503 109.694 48.5009 111.781 49.4011C112.527 49.7012 114.017 49.2511 114.911 49.2511C115.955 49.2511 116.998 49.1011 117.892 48.5009C119.83 47.0006 119.532 44.3 119.532 42.1995Z" fill="#D2CCDB"/>
<path d="M130.562 34.9973C130.562 33.9471 129.668 33.497 128.923 33.497C128.475 32.5968 127.879 31.9967 126.687 32.4468C124.749 33.1969 122.811 35.1474 121.768 36.7978C120.874 38.4481 120.576 41.2988 122.662 42.199C123.408 42.4991 124.898 42.049 125.792 42.049C126.836 42.049 127.879 41.8989 128.774 41.2988C130.86 39.7984 130.562 37.0978 130.562 34.9973Z" fill="#D2CCDB"/>
<path d="M103.881 68.7552C103.881 67.7049 102.987 67.2548 102.242 67.2548C101.795 66.3546 101.198 65.7545 100.006 66.2046C98.0681 66.8047 96.1304 68.7552 95.0871 70.5556C94.1927 72.206 93.8946 75.0566 95.9814 75.9568C96.7267 76.2569 98.2172 75.9568 99.1115 75.8068C100.155 75.8068 101.198 75.6567 102.093 75.0566C104.179 73.7063 103.881 71.0057 103.881 68.7552Z" fill="#D2CCDB"/>
<path d="M139.207 75.6575C139.207 74.6073 138.313 74.1572 137.568 74.1572C137.121 73.257 136.524 72.6568 135.332 73.1069C133.394 73.8571 131.457 75.8075 130.413 77.4579C129.519 79.1083 129.221 81.9589 131.308 82.8592C132.053 83.1592 133.543 82.8592 134.438 82.7091C135.481 82.7091 136.524 82.5591 137.419 81.959C139.357 80.6086 139.207 77.908 139.207 75.6575Z" fill="#D2CCDB"/>
<path d="M145.17 61.8538C145.17 60.8036 144.275 60.3535 143.53 60.3535C143.083 59.4532 142.487 58.8531 141.294 59.3032C139.356 60.0534 137.419 62.0038 136.375 63.6542C135.481 65.3046 135.183 68.1552 137.27 69.0554C138.015 69.3555 139.505 69.0554 140.4 68.9054C141.443 68.9054 142.487 68.7554 143.381 68.1552C145.319 66.8049 145.17 64.1043 145.17 61.8538Z" fill="#D2CCDB"/>
<path d="M154.56 49.8509C154.56 48.8006 153.665 48.3505 152.92 48.3505C152.473 47.4503 151.877 46.8502 150.684 47.3003C148.747 48.0505 146.809 49.8509 145.765 51.6513C144.871 53.3017 144.573 56.1523 146.66 57.0525C147.405 57.3526 148.896 56.9025 149.79 56.9025C150.833 56.9025 151.877 56.7524 152.771 56.1523C154.858 54.652 154.56 51.9513 154.56 49.8509Z" fill="#D2CCDB"/>
<path d="M148.299 50.6009C148.299 49.5506 147.405 49.1005 146.66 49.1005C146.213 48.2003 145.616 47.6002 144.424 48.0503C142.486 48.8005 140.549 50.7509 139.505 52.4013C138.611 54.0517 138.313 56.9023 140.4 57.8025C141.145 58.1026 142.635 57.6525 143.53 57.6525C144.573 57.6525 145.616 57.5024 146.511 56.9023C148.598 55.552 148.299 52.8514 148.299 50.6009Z" fill="#D2CCDB"/>
<path d="M138.909 69.9563C138.909 68.9061 138.015 68.456 137.269 68.456C136.822 67.5558 136.226 66.9556 135.034 67.4057C133.096 68.1559 131.158 70.1064 130.115 71.7567C129.221 73.4071 128.922 76.2578 131.009 77.158C131.754 77.4581 133.245 77.008 134.139 77.008C135.183 77.008 136.226 76.8579 137.12 76.2578C139.207 74.9075 139.058 72.0568 138.909 69.9563Z" fill="#D2CCDB"/>
<path d="M88.3794 85.2591C88.3794 84.2088 87.4851 83.7587 86.7398 83.7587C86.2926 82.8585 85.6964 82.2584 84.504 82.7085C82.5663 83.4587 80.6286 85.4091 79.7342 87.0595C78.8399 88.7099 78.5418 91.5605 80.4795 92.4607C81.2248 92.7608 82.7153 92.3107 83.6097 92.3107C84.653 92.3107 85.6964 92.1607 86.5908 91.5605C88.6775 90.0602 88.3794 87.3596 88.3794 85.2591Z" fill="#D2CCDB"/>
<path d="M150.983 70.2554C150.386 69.3552 149.343 69.5052 148.598 69.9553C148.449 69.9553 148.3 69.9553 148.001 69.9553C145.169 71.0056 143.53 76.1067 144.573 78.8074C144.871 79.5575 145.617 80.1577 146.362 79.8576C149.939 78.9574 153.367 73.5561 150.983 70.2554Z" fill="#DFD8E7"/>
<path d="M154.113 64.1038C154.113 63.0536 153.219 62.6035 152.473 62.6035C152.026 61.7032 151.43 61.1031 150.238 61.5532C148.3 62.3034 146.362 64.2538 145.319 65.9042C144.424 67.5546 144.126 70.4052 146.213 71.3054C146.958 71.6055 148.449 71.1554 149.343 71.1554C150.387 71.1554 151.43 71.0054 152.324 70.4052C154.411 69.0549 154.113 66.3543 154.113 64.1038Z" fill="#D2CCDB"/>
<path d="M134.288 82.2583C134.288 81.2081 133.245 80.1578 132.052 80.908C130.264 82.2583 128.773 83.9087 128.177 86.0092C127.879 87.2095 127.432 89.3099 128.773 90.0601C130.711 90.9603 132.5 89.1599 133.543 87.6596C134.586 86.3092 135.332 83.7587 134.288 82.2583Z" fill="#D2CCDB"/>
<path d="M63.0405 165.227C62.8914 163.877 61.4009 163.277 60.3575 163.127C60.2085 163.127 60.2085 163.127 60.0594 163.127C59.4632 162.677 58.7179 162.227 57.9726 162.077C56.6311 161.627 55.2897 162.227 54.3953 163.277C53.501 164.177 53.9482 165.978 54.8425 166.728C55.7368 167.328 56.9293 167.778 57.9726 168.078C60.0594 168.528 63.3386 168.078 63.0405 165.227Z" fill="#D2CCDB"/>
<path d="M96.2794 154.874C95.6832 153.674 94.0436 153.674 93.0002 153.824C92.8511 153.824 92.8511 153.824 92.7021 153.824C91.9568 153.674 91.2115 153.524 90.4662 153.524C88.9757 153.674 88.0814 154.574 87.4851 155.925C87.038 157.125 87.9323 158.625 89.1248 158.925C90.1681 159.225 91.3606 159.075 92.553 159.075C94.6398 159.075 97.6209 157.575 96.2794 154.874Z" fill="#D2CCDB"/>
<path d="M105.521 142.573C104.925 141.372 103.285 141.372 102.242 141.522C102.093 141.522 102.093 141.522 101.944 141.522C101.198 141.372 100.453 141.222 99.7079 141.222C98.2173 141.372 97.323 142.273 96.7268 143.623C96.2796 144.823 97.174 146.324 98.3664 146.624C99.4098 146.924 100.602 146.774 101.795 146.774C103.881 146.774 106.863 145.273 105.521 142.573Z" fill="#D2CCDB"/>
<path d="M104.924 133.719C104.328 132.519 102.689 132.519 101.645 132.669C101.496 132.669 101.496 132.669 101.347 132.669C100.602 132.519 99.8565 132.369 99.1113 132.369C97.6207 132.519 96.7264 133.419 96.1302 134.769C95.683 135.97 96.5773 137.47 97.7698 137.77C98.8132 138.07 100.006 138.07 101.198 137.92C103.285 137.77 106.266 136.27 104.924 133.719Z" fill="#D2CCDB"/>
<path d="M116.253 133.72C116.253 133.57 116.253 133.57 116.253 133.72C116.104 132.67 115.358 131.92 114.315 132.22C113.57 131.77 112.377 132.07 112.079 133.12C111.93 133.87 111.781 134.62 111.632 135.371C111.483 135.671 111.483 135.821 111.334 136.121V136.271V136.421C111.334 136.421 111.334 136.421 111.334 136.571C111.185 136.871 111.185 137.171 111.036 137.471C110.588 139.271 110.439 143.022 113.122 143.172C115.656 143.172 117.147 140.922 117.594 138.671C117.892 136.571 117.296 134.92 116.253 133.72Z" fill="#D2CCDB"/>
<path d="M106.713 133.27C106.564 132.22 105.819 131.47 104.776 131.77C104.03 131.32 102.838 131.62 102.54 132.67C102.391 133.42 102.242 134.17 102.093 134.92C101.943 135.22 101.943 135.371 101.794 135.671C101.794 135.671 101.794 135.671 101.794 135.821V135.971C101.794 135.971 101.794 135.971 101.794 136.121C101.645 136.421 101.645 136.721 101.496 137.021C101.049 138.821 100.9 142.572 103.583 142.722C106.117 142.722 107.608 140.472 108.055 138.221C108.502 136.271 107.906 134.62 106.713 133.27Z" fill="#D2CCDB"/>
<path d="M124.003 122.617C123.705 121.867 123.109 121.567 122.513 121.567C122.066 121.417 121.619 121.567 121.171 121.717C120.426 122.017 119.681 122.617 119.234 123.217C118.787 123.217 118.339 123.367 118.041 123.817C117.743 124.267 117.445 124.718 117.296 125.318C117.147 125.468 116.998 125.768 116.7 125.918C115.656 127.268 115.358 129.219 116.849 130.269C118.488 131.469 121.171 129.219 122.364 128.168C124.152 126.818 124.6 124.868 124.003 122.617Z" fill="#D2CCDB"/>
<path d="M162.609 42.4999C162.013 40.8495 161.416 39.3492 159.628 38.749C159.032 38.599 158.584 38.749 158.286 39.0491C157.839 39.1991 157.541 39.4992 157.392 39.9493C156.796 41.5997 157.392 43.4001 157.988 44.6004C158.584 45.9507 160.075 47.301 161.715 46.7009C163.205 45.9507 163.056 44.0002 162.609 42.4999Z" fill="#D2CCDB"/>
<path d="M129.817 105.363C129.817 105.213 129.817 105.213 129.668 105.213C129.668 104.913 129.668 104.613 129.668 104.313C129.668 103.863 129.221 103.413 128.922 103.413C127.283 102.812 125.494 106.113 124.6 107.914C123.705 109.864 123.109 113.015 124.898 113.615C126.09 114.065 128.177 113.315 129.071 111.964C130.562 110.014 130.562 107.163 129.817 105.363Z" fill="#D2CCDB"/>
<path d="M164.696 51.3519C164.398 50.0015 162.758 50.0015 162.013 50.7517C161.715 50.7517 161.417 50.9017 161.267 51.2018C160.075 52.4021 159.032 54.2025 158.883 55.8529C158.734 57.5033 158.883 59.6037 160.969 59.7538C165.441 60.3539 165.292 54.3525 164.696 51.3519Z" fill="url(#paint0_linear_9002_27463)"/>
<path d="M162.162 44.8997C161.565 42.9492 160.075 41.5989 158.286 42.9492C157.392 43.6994 157.392 45.1998 157.243 46.1C157.243 48.0504 157.541 52.1013 160.373 51.5012C162.013 51.2011 162.609 49.8508 162.46 48.3505C162.609 47.3002 162.46 45.9499 162.162 44.8997Z" fill="#DFD8E7"/>
<path d="M148.449 82.4079C148.3 81.8078 147.554 81.2077 146.958 81.2077H146.809C146.362 81.0576 145.915 81.0576 145.617 81.5077C144.573 81.8078 143.679 82.558 142.785 83.1581C141.145 84.3584 140.698 86.3088 140.251 88.1092C139.953 89.7596 141.89 90.5098 142.785 89.7596C144.126 89.6096 145.319 87.9592 146.213 87.059C147.405 85.8587 148.747 84.2083 148.449 82.4079Z" fill="url(#paint1_linear_9002_27463)"/>
<path d="M130.562 96.8125C130.115 96.5125 129.519 96.2124 129.072 96.3624C128.476 96.0624 127.73 96.2124 127.432 96.9626C126.687 98.4629 126.985 99.9632 126.985 101.614C126.985 102.814 127.134 104.764 128.625 105.064C130.562 105.665 131.606 103.114 131.904 101.764C132.202 100.263 131.904 98.0128 130.562 96.8125Z" fill="url(#paint2_linear_9002_27463)"/>
<path d="M131.755 90.5105C131.606 89.9104 131.158 89.6103 130.562 89.4603C128.773 88.7101 127.581 90.0604 127.283 91.8608C126.985 93.3612 126.389 95.4616 126.836 97.112C127.432 99.2125 130.115 98.3123 131.009 96.962C132.351 95.0115 132.351 92.611 131.755 90.5105Z" fill="#DFD8E7"/>
<path d="M127.73 98.4626C127.73 97.2624 127.581 95.9121 126.835 95.1619C124.302 92.4613 122.364 99.2128 122.215 100.713C122.066 101.913 122.215 103.264 122.96 104.164C123.705 105.064 125.494 105.064 126.537 104.614C129.369 103.714 128.773 100.713 127.73 98.4626Z" fill="#DFD8E7"/>
<path d="M156.199 38.7482C156.05 38.4481 156.05 38.2981 155.752 38.148C154.858 36.9478 152.92 37.848 153.069 39.1983C152.622 40.5486 152.771 42.349 152.92 43.6993C153.069 45.0496 153.218 47.4502 155.305 47.0001C156.945 46.55 157.392 44.8996 157.69 43.3992C157.69 41.7489 156.945 40.0985 156.199 38.7482Z" fill="#DFD8E7"/>
<path d="M152.175 33.1973C152.026 32.5972 151.43 32.2971 150.535 32.4472C148.449 33.1973 148.598 34.9978 148.747 36.7982C148.896 38.5986 149.492 40.9991 151.877 40.6991C155.752 40.0989 155.156 34.6977 152.175 33.1973Z" fill="url(#paint3_linear_9002_27463)"/>
<path d="M146.809 30.946C146.362 30.1959 145.616 29.4457 144.871 28.9956C143.977 28.3954 142.784 28.2454 141.741 28.2454C141.294 27.9453 140.847 27.9453 140.25 28.0954C138.015 29.1456 139.356 31.6962 140.549 32.8965C142.039 34.3968 143.977 35.8972 146.064 35.297C148.15 34.5469 147.703 32.2963 146.809 30.946Z" fill="url(#paint4_linear_9002_27463)"/>
<path d="M157.69 46.8496C157.69 46.0994 157.541 45.3493 157.392 44.7491C157.094 43.3988 155.454 43.3988 154.56 44.299C153.218 46.0994 153.368 48.65 153.368 50.7505C153.368 52.4009 152.771 55.4016 154.858 56.0017C156.498 56.4518 158.734 54.6514 159.33 53.151C160.224 50.7505 159.181 48.65 157.69 46.8496Z" fill="url(#paint5_linear_9002_27463)"/>
<path d="M143.083 81.9577C142.934 81.0575 142.039 80.7575 141.294 80.9075C140.698 80.4574 139.804 80.4574 139.207 81.0575C136.971 82.858 134.587 87.359 135.481 90.3597C135.63 90.8098 136.077 91.4099 136.524 91.4099C141.145 92.1601 143.977 85.5586 143.083 81.9577Z" fill="#DFD8E7"/>
<path d="M96.1306 71.0057C95.9815 70.1055 95.0872 69.8055 94.3419 69.9555C93.7457 69.5054 92.8514 69.5054 92.2551 69.9555C90.0193 71.7559 87.6344 76.2569 88.5288 79.2576C88.6778 79.7077 89.125 80.3079 89.5722 80.3079C94.1929 81.2081 96.8758 74.6066 96.1306 71.0057Z" fill="#DFD8E7"/>
<path d="M110.589 57.3533C110.44 56.4531 109.545 56.153 108.8 56.303C108.204 55.8529 107.309 55.8529 106.713 56.4531C104.477 58.2535 102.093 62.7545 102.987 65.7552C103.136 66.2053 103.583 66.8054 104.03 66.8054C108.651 67.4056 111.483 60.9541 110.589 57.3533Z" fill="#DFD8E7"/>
<path d="M113.868 48.9509C113.719 48.0507 112.824 47.7506 112.079 47.9007C111.483 47.4506 110.589 47.4506 109.992 48.0507C107.757 49.8511 105.372 54.3522 106.266 57.3528C106.415 57.8029 106.862 58.4031 107.309 58.4031C111.93 59.0032 114.762 52.5517 113.868 48.9509Z" fill="#DFD8E7"/>
<path d="M122.364 38.2986C122.215 37.3984 121.321 37.0983 120.575 37.2483C119.979 36.7982 119.085 36.7982 118.489 37.3984C116.253 39.1988 113.868 43.6998 114.762 46.7005C114.911 47.1506 115.359 47.7507 115.806 47.7507C120.426 48.5009 123.258 41.8994 122.364 38.2986Z" fill="#DFD8E7"/>
<path d="M133.99 31.5458C133.841 30.6456 132.947 30.3455 132.202 30.4955C131.606 30.0454 130.711 30.0454 130.115 30.4955C128.028 32.446 125.643 36.947 126.538 39.9477C126.687 40.3978 127.134 40.9979 127.581 40.9979C132.053 41.7481 134.885 35.1466 133.99 31.5458Z" fill="#DFD8E7"/>
<path d="M143.53 67.7038C143.381 66.8036 142.487 66.5036 141.741 66.6536C141.145 66.2035 140.251 66.2035 139.654 66.8036C137.419 68.6041 135.034 73.1051 135.928 76.1058C136.077 76.5559 136.524 77.156 136.971 77.156C141.592 77.9062 144.424 71.3047 143.53 67.7038Z" fill="#DFD8E7"/>
<path d="M146.213 42.949C146.064 42.0488 145.169 41.7487 144.424 41.8987C143.977 41.4486 143.083 41.4486 142.486 42.0488C140.251 43.8492 137.866 48.3502 138.76 51.3509C138.909 51.801 139.356 52.4011 139.803 52.4011C144.275 53.1513 147.107 46.5498 146.213 42.949Z" fill="#DFD8E7"/>
<path d="M142.337 54.952C142.188 54.0518 141.294 53.7518 140.549 53.9018C139.952 53.4517 139.058 53.4517 138.462 53.9018C136.226 55.7022 133.841 60.2032 134.736 63.2039C134.885 63.654 135.332 64.2542 135.779 64.2542C140.4 65.1544 143.232 58.5529 142.337 54.952Z" fill="#DFD8E7"/>
<path d="M90.7643 79.106C90.7643 78.2058 90.0191 77.7557 89.2738 77.7557C88.8266 77.1556 87.9323 77.1556 87.187 77.4556C84.6531 78.806 81.5229 82.8569 81.9701 86.0076C81.9701 86.4577 82.2682 87.0578 82.8644 87.2079C87.038 88.8583 90.9134 82.8569 90.7643 79.106Z" fill="#DFD8E7"/>
<path d="M150.535 55.5515C150.386 54.6513 149.492 54.3512 148.747 54.5013C148.151 54.0512 147.256 54.0512 146.66 54.6513C144.573 56.4517 142.188 60.9527 143.083 63.9534C143.232 64.4035 143.679 65.0037 144.126 65.0037C148.598 65.7538 151.43 59.1523 150.535 55.5515Z" fill="#DFD8E7"/>
<path d="M136.971 87.0601C136.822 86.4599 136.375 86.1599 136.077 86.0098C135.779 85.4097 135.034 85.1096 134.437 85.2597C133.692 85.4097 133.096 86.0098 132.947 86.76C132.798 87.0601 132.649 87.5102 132.649 87.8103C132.649 87.2101 132.202 88.5604 132.052 88.7105C131.307 90.0608 130.711 93.0615 132.052 94.2617C133.394 95.612 135.481 94.5618 136.524 93.3615C137.717 91.5611 137.567 89.1606 136.971 87.0601Z" fill="url(#paint6_linear_9002_27463)"/>
<path d="M141.294 90.8095C141.145 90.2093 140.698 89.7592 140.102 89.7592C139.953 89.6092 139.953 89.6092 139.803 89.4591C137.717 88.2589 135.332 91.7097 134.736 93.36C134.288 94.5603 134.139 95.6106 134.288 96.8108C134.437 98.3112 136.375 98.6112 137.419 98.0111C139.505 96.6608 141.592 93.6601 141.294 90.8095Z" fill="url(#paint7_linear_9002_27463)"/>
<path d="M163.354 60.3534C163.205 59.7533 162.758 59.3032 162.162 59.3032C162.013 59.1531 162.013 59.1531 161.864 59.0031C159.777 57.8028 157.392 61.2536 156.796 62.904C156.349 64.1043 156.2 65.1545 156.349 66.3548C156.498 67.8551 158.435 68.1552 159.479 67.5551C161.565 66.2047 163.652 63.2041 163.354 60.3534Z" fill="url(#paint8_linear_9002_27463)"/>
<path d="M132.5 93.3602C132.351 92.7601 131.904 92.31 131.308 92.31C131.159 92.16 131.159 92.16 131.009 92.0099C128.923 90.8097 126.538 94.2604 125.942 95.9108C125.494 97.1111 125.345 98.1613 125.494 99.3616C125.643 100.862 127.581 101.162 128.625 100.562C130.711 99.0615 132.798 96.0609 132.5 93.3602Z" fill="url(#paint9_linear_9002_27463)"/>
<path d="M149.641 75.8065C149.492 75.2064 149.045 74.7563 148.449 74.7563C148.3 74.6063 148.3 74.6063 148.151 74.4562C146.064 73.2559 143.679 76.7067 143.083 78.3571C142.636 79.4074 142.486 80.6076 142.636 81.8079C142.785 83.3082 144.722 83.6083 145.766 83.0082C147.852 81.5078 149.939 78.5071 149.641 75.8065Z" fill="url(#paint10_linear_9002_27463)"/>
<path d="M153.218 74.3065C153.069 73.7064 152.622 73.2563 152.026 73.2563C151.877 73.1063 151.877 73.1063 151.728 72.9562C149.641 71.7559 147.256 75.2067 146.66 76.8571C146.213 77.9074 146.064 79.1076 146.213 80.3079C146.362 81.8082 148.3 82.1083 149.343 81.5082C151.43 80.1579 153.666 77.1572 153.218 74.3065Z" fill="url(#paint11_linear_9002_27463)"/>
<path d="M147.554 63.5042C147.405 63.2041 147.256 62.904 147.107 62.754C144.424 60.0534 142.635 67.105 142.486 68.4553C142.337 69.6556 142.039 71.456 143.232 72.2062C143.083 72.2062 142.784 72.3562 142.635 72.5062C141.741 73.1064 141.145 74.0066 140.847 74.9068C140.4 74.6067 139.952 74.6067 139.356 74.9068C137.866 75.807 136.822 77.6074 135.928 79.1077C135.332 80.158 134.139 82.1084 134.885 83.3087C135.928 85.1091 138.015 84.3589 139.058 83.0086C139.654 82.2585 140.251 81.3583 140.698 80.6081C141.145 81.3583 142.039 81.8084 142.784 81.2082C145.02 79.5578 144.722 76.5572 145.318 74.0066C145.467 73.4064 145.318 73.1064 145.02 72.6563C146.064 72.6563 147.107 72.2062 147.852 71.456C150.088 69.8056 149.79 65.3046 147.554 63.5042Z" fill="url(#paint12_linear_9002_27463)"/>
<path d="M106.862 52.1018C106.713 51.8018 106.564 51.5017 106.415 51.3517C103.732 48.651 101.944 55.7026 101.794 57.053C101.645 58.2532 101.347 60.0536 102.54 60.9539C102.391 60.9539 102.093 61.1039 101.944 61.2539C101.049 61.8541 100.453 62.7543 100.155 63.6545C99.7077 63.3544 99.2606 63.3544 98.6643 63.6545C97.1738 64.5547 96.1304 66.3551 95.2361 67.8554C94.6399 68.9057 93.4474 70.8561 94.1927 72.0564C95.2361 73.7068 97.3229 73.1066 98.3662 71.7563C98.9625 71.0062 99.5587 70.1059 100.006 69.3558C100.453 70.1059 101.347 70.5561 102.093 69.9559C104.328 68.3055 104.03 65.3048 104.627 62.7543C104.776 62.3042 104.627 61.8541 104.328 61.404C105.372 61.404 106.415 60.9539 107.16 60.2037C109.545 58.4033 109.098 53.9022 106.862 52.1018Z" fill="url(#paint13_linear_9002_27463)"/>
<path d="M161.119 55.1011C160.522 54.2009 159.479 54.3509 158.734 54.801C158.585 54.801 158.436 54.801 158.137 54.801C155.305 55.8513 153.666 60.9524 154.709 63.6531C155.007 64.4032 155.753 65.0034 156.498 64.7033C160.075 63.8031 163.503 58.4019 161.119 55.1011Z" fill="#DFD8E7"/>
<path d="M154.858 67.8553C156.349 66.205 157.243 64.4046 157.392 62.154C157.392 61.7039 157.243 60.9538 156.945 60.3536C157.839 58.8533 155.305 57.503 154.262 59.0033C154.113 59.1534 154.113 59.1533 153.964 59.3034C153.666 59.6035 153.368 60.0536 153.368 60.5037C152.622 61.7039 152.175 62.9042 151.728 64.2545C151.579 64.7046 151.43 65.1547 151.281 65.4548C150.834 65.7549 150.685 66.0549 150.685 66.8051C150.834 68.9056 152.473 69.9558 154.113 68.7556C154.262 68.4555 154.56 68.1554 154.858 67.8553Z" fill="url(#paint14_linear_9002_27463)"/>
<path d="M155.454 53.9016C155.454 53.0014 154.709 52.5513 153.964 52.4012C153.516 52.1012 152.92 51.9511 152.324 52.2512C150.684 53.1514 149.641 55.2519 148.896 57.0523C148.3 58.5527 147.703 61.8534 149.492 62.9036C151.132 63.9539 153.069 62.0034 153.815 60.8032C155.305 58.8527 155.603 56.4522 155.454 53.9016Z" fill="#DFD8E7"/>
<path d="M152.771 41.1483C152.771 40.2481 152.026 39.798 151.28 39.648C150.833 39.1979 150.237 39.1979 149.641 39.4979C148.001 40.3982 146.958 42.4986 146.213 44.149C145.616 45.6494 145.02 48.9501 146.809 50.0004C148.448 51.0506 150.386 49.1001 151.131 47.8999C152.771 45.9494 153.069 43.5489 152.771 41.1483Z" fill="#DFD8E7"/>
<path d="M86.2927 165.228C85.3984 164.778 84.355 164.928 83.4607 164.928C82.1192 164.928 80.6287 164.778 79.2872 164.628C79.1381 164.628 78.9891 164.628 78.9891 164.628C78.6909 164.628 78.3928 164.628 78.2438 164.778C78.0947 164.928 77.9457 164.928 77.7966 165.078C77.6476 164.928 77.4985 164.778 77.2004 164.628C75.7099 164.027 74.2193 164.778 72.8778 165.678C71.6854 166.428 70.791 167.778 70.791 169.129C70.642 170.479 71.8344 171.529 73.0269 171.829C74.2193 172.129 75.4117 171.979 76.4551 171.379C77.2004 170.929 77.7966 170.329 78.2438 169.429C78.9891 169.729 79.8834 169.579 80.6287 169.579C81.8211 169.579 83.0135 169.579 84.206 169.279C85.6965 169.129 88.8267 166.728 86.2927 165.228Z" fill="#D2CCDB"/>
<path d="M65.8723 159.825C65.4252 158.925 64.3818 158.475 63.6365 158.025C62.4441 157.124 61.5497 156.224 60.3573 155.324C60.2083 155.174 60.2083 155.174 60.0592 155.174C59.9101 155.024 59.612 154.874 59.3139 154.874C59.1649 154.874 59.0158 154.874 58.7177 154.874C58.7177 154.574 58.5687 154.424 58.4196 154.124C57.5253 152.773 55.8857 152.473 54.3951 152.473C53.0536 152.473 51.5631 152.923 50.6687 154.124C49.7744 155.174 50.2216 156.674 50.9669 157.575C51.8612 158.475 52.9046 159.075 54.097 159.225C54.9913 159.225 55.8857 159.075 56.6309 158.625C57.0781 159.225 57.9724 159.675 58.5687 160.125C59.612 160.875 60.5064 161.475 61.6988 162.076C63.0403 162.676 67.0648 162.526 65.8723 159.825Z" fill="#D2CCDB"/>
<path d="M82.8646 160.727C82.5665 160.577 82.2684 160.577 81.8212 160.727C79.7344 161.477 77.9458 162.977 75.5609 162.377C73.9213 161.927 73.027 164.177 74.0703 165.078C74.0703 165.078 74.0703 165.078 74.0703 165.228C75.2628 166.878 77.3496 166.728 79.1382 166.428C80.9269 166.128 82.8646 164.627 83.908 163.277C84.9514 161.777 83.908 160.727 82.8646 160.727Z" fill="url(#paint15_linear_9002_27463)"/>
<path d="M95.6832 156.826C95.236 156.376 94.6398 156.226 93.8946 156.526C90.9135 157.726 87.7833 161.027 87.3361 164.328C87.1871 165.828 87.6343 167.178 89.2739 167.478C91.0625 167.779 92.5531 166.278 93.5964 165.078C94.7889 163.578 98.2171 158.176 95.6832 156.826Z" fill="url(#paint16_linear_9002_27463)"/>
<path d="M102.838 134.471C102.391 134.02 101.795 133.87 101.049 134.171C98.0683 135.371 94.9381 138.672 94.491 141.972C94.3419 143.473 94.7891 144.823 96.4287 145.123C98.2173 145.423 99.7079 143.923 100.751 142.722C101.795 141.372 105.223 135.821 102.838 134.471Z" fill="url(#paint17_linear_9002_27463)"/>
<path d="M100.602 155.174C98.6647 154.724 96.1308 156.224 95.2365 158.025C94.7893 158.925 94.4912 160.125 95.0874 161.176C95.8327 162.376 97.1742 162.676 98.3666 162.076C99.8572 161.476 101.944 159.375 101.348 157.575C101.795 156.674 101.795 155.324 100.602 155.174Z" fill="#DFD8E7"/>
<path d="M64.5309 169.279C64.2328 167.178 61.9969 165.378 59.9102 165.378C58.8668 165.378 57.6744 165.528 57.0781 166.278C56.1838 167.328 56.4819 168.678 57.3762 169.729C58.5687 170.929 61.2517 172.129 62.5932 170.779C63.6366 171.079 64.829 170.479 64.5309 169.279Z" fill="#DFD8E7"/>
<path d="M81.8212 169.129C80.4797 167.478 77.6477 167.178 75.859 168.229C74.9647 168.679 74.0704 169.429 73.9213 170.629C73.7723 171.979 74.6666 173.03 76.0081 173.33C77.4986 173.78 80.4797 173.33 81.0759 171.529C81.8212 171.079 82.5665 170.029 81.8212 169.129Z" fill="#DFD8E7"/>
<path d="M100.304 147.973C100.304 147.823 100.304 147.673 100.155 147.523C99.857 146.323 98.2174 145.573 97.3231 146.923C96.7268 147.823 96.4287 148.873 95.9816 149.774C95.3853 150.974 94.6401 151.874 94.342 153.224C93.8948 154.575 93.8948 156.975 95.5344 157.425C97.174 157.875 98.6645 155.775 99.4098 154.725C100.751 153.074 100.602 150.074 100.304 147.973Z" fill="url(#paint18_linear_9002_27463)"/>
<path d="M89.87 157.875C89.721 156.825 88.6776 156.525 87.9323 156.825C87.6342 156.675 87.3361 156.525 86.8889 156.675C86.1437 156.975 85.3984 157.575 84.8022 158.025C84.0569 158.626 83.3116 159.376 82.7154 160.276C82.1192 161.026 81.672 162.076 81.8211 162.977C81.8211 164.027 82.4173 165.077 83.6097 165.077C87.187 165.527 90.6153 161.776 89.87 157.875Z" fill="url(#paint19_linear_9002_27463)"/>
<path d="M88.2302 168.829C88.5284 167.778 87.7831 167.178 87.0378 167.028C86.8888 166.728 86.5906 166.578 86.1435 166.428C85.3982 166.278 84.5039 166.428 83.6095 166.578C82.5662 166.728 81.6718 167.028 80.6284 167.478C79.7341 167.928 78.8398 168.529 78.5417 169.429C78.0945 170.329 78.0945 171.529 79.1379 172.129C82.4171 174.23 87.1869 172.58 88.2302 168.829Z" fill="url(#paint20_linear_9002_27463)"/>
<path d="M78.542 170.029C78.6911 168.979 77.9458 168.379 77.0515 168.379C76.9024 168.078 76.4552 167.928 76.1571 167.928C75.2628 167.928 74.5175 168.229 73.7723 168.379C72.7289 168.679 71.8345 169.129 70.9402 169.729C70.0459 170.329 69.3006 170.929 69.0025 171.979C68.7044 173.03 68.7044 174.08 69.8968 174.53C73.3251 176.03 77.7967 173.78 78.542 170.029Z" fill="url(#paint21_linear_9002_27463)"/>
<path d="M75.5611 162.977C74.8158 161.777 73.0271 162.077 71.8347 162.077C70.1951 162.227 68.5555 162.527 67.214 163.577C66.1706 164.478 66.0215 166.128 66.3197 167.328C66.7668 168.979 68.1083 169.579 69.7479 169.429C71.8347 169.129 74.0705 167.778 74.8158 165.828C75.5611 165.228 76.0082 164.027 75.5611 162.977Z" fill="url(#paint22_linear_9002_27463)"/>
<path d="M111.483 136.721C109.992 137.771 108.651 138.971 107.757 140.622C106.862 142.122 106.415 144.223 107.757 145.573C109.098 146.923 111.334 145.573 112.079 144.223C112.973 142.572 113.719 140.622 113.868 138.671C114.911 137.321 112.973 135.521 111.483 136.721Z" fill="#DFD8E7"/>
<path d="M118.19 125.318C116.104 123.517 113.868 126.968 113.123 128.619C112.974 129.069 112.825 129.669 112.675 130.419C112.228 130.269 111.781 130.419 111.483 130.569C109.992 130.719 108.502 132.67 107.608 133.72C105.968 135.97 104.925 139.421 105.819 142.122C106.117 143.022 107.16 143.472 108.055 143.022C109.843 142.122 111.185 139.721 112.079 138.071C112.675 136.871 113.421 135.37 113.719 134.02C114.166 134.32 114.762 134.32 115.507 133.87C116.253 133.57 116.7 132.97 117.147 132.369C117.296 132.219 117.445 132.069 117.594 131.919C118.34 130.869 118.489 129.669 118.638 128.469C118.638 127.718 119.234 126.218 118.19 125.318Z" fill="#DFD8E7"/>
<path d="M124.153 115.415C124.153 114.515 123.557 113.915 122.811 113.915C122.215 113.615 121.321 113.615 120.874 114.365C120.128 115.415 118.787 117.816 118.191 119.916C118.042 119.166 117.445 118.716 116.849 118.566C116.551 118.416 116.253 118.416 115.955 118.416C114.017 118.866 111.632 120.066 110.44 121.567C109.545 122.767 108.055 125.467 109.396 126.818C109.993 127.418 110.887 127.568 111.632 127.268C111.781 127.268 111.781 127.268 111.781 127.268C111.93 127.268 112.079 127.268 112.228 127.118C112.825 126.818 113.421 126.518 113.868 126.068C115.508 124.717 117.296 123.067 118.042 120.966C117.892 122.167 118.191 123.367 119.234 123.817C120.575 124.567 122.662 122.917 123.408 121.717C124.451 120.066 124.153 117.516 124.153 115.415Z" fill="#DFD8E7"/>
<path d="M107.757 138.222C107.161 137.322 105.819 136.872 105.223 138.072V138.222C103.732 139.122 102.987 140.622 102.54 142.273C101.795 143.623 101.198 144.973 101.347 146.624C101.496 148.124 102.838 149.024 104.179 148.424C105.521 147.824 106.266 146.474 106.862 145.123C107.608 143.473 108.204 141.673 108.353 139.872C108.502 139.122 108.204 138.522 107.757 138.222Z" fill="url(#paint23_linear_9002_27463)"/>
<path d="M112.527 125.618C112.229 125.168 111.632 124.718 110.887 124.868C109.099 125.168 108.055 127.119 107.161 128.619C106.117 130.419 105.372 132.37 105.67 134.32C105.819 135.07 106.565 135.52 107.161 135.52C108.8 135.671 110.142 134.17 111.036 132.97C112.229 131.169 112.974 128.919 112.974 126.668C112.974 126.218 112.825 125.918 112.527 125.618Z" fill="url(#paint24_linear_9002_27463)"/>
<path d="M126.985 104.613C126.836 103.713 126.09 103.413 125.345 103.563C125.047 103.563 124.749 103.563 124.451 103.713C124.153 103.863 123.706 104.013 123.407 104.313C123.407 103.563 123.407 102.963 123.407 102.212C123.407 101.312 122.96 100.862 122.215 100.712C121.768 99.8118 120.724 99.3617 119.83 100.262C118.34 101.762 117.296 103.413 116.849 105.513C116.551 106.863 116.253 109.264 117.743 110.014C117.296 110.014 116.998 110.314 116.7 110.764C115.657 112.265 115.209 114.065 114.017 115.565C112.974 116.766 112.377 118.266 111.483 119.466C111.036 120.066 111.185 120.667 111.483 121.117C109.992 122.317 112.079 124.567 113.57 123.367C114.464 122.617 114.762 121.567 115.657 120.817C116.551 120.066 117.296 119.316 117.892 118.266C118.638 117.216 118.787 116.016 119.085 114.665C119.234 113.915 119.383 113.165 119.532 112.415C119.532 112.565 119.681 112.565 119.681 112.715C121.321 114.365 123.556 111.965 124.451 110.764C125.047 109.864 125.494 108.964 126.09 108.064C126.687 106.563 127.134 105.813 126.985 104.613Z" fill="url(#paint25_linear_9002_27463)"/>
<path d="M51.265 155.174C50.6688 154.874 50.0726 154.724 49.4764 154.574C48.7311 154.424 47.9858 154.124 47.0915 154.124C45.8991 154.124 45.4519 155.174 45.601 156.074C45.4519 156.524 45.4519 156.974 45.601 157.425C46.6443 159.525 50.2217 160.425 52.0103 158.925C53.5009 157.725 52.3084 155.774 51.265 155.174Z" fill="#D2CCDB"/>
<path d="M48.4328 145.722C47.8366 144.672 46.0479 144.522 45.6008 146.022C45.4517 146.322 45.0045 146.622 44.8555 146.772C44.4083 147.222 44.1102 147.973 43.9612 148.423C43.663 149.323 43.2159 150.523 43.514 151.423C44.2593 154.124 47.9856 153.824 49.029 151.423C49.4762 150.223 49.4762 149.173 49.6252 147.973C49.6252 146.922 49.3271 146.022 48.4328 145.722Z" fill="url(#paint26_linear_9002_27463)"/>
<path d="M56.0348 163.878C57.5253 164.328 59.0159 162.977 58.2706 161.477C57.9725 160.877 57.5253 160.577 56.9291 160.277C57.0782 160.277 56.482 159.827 56.482 159.827C56.1839 159.527 55.8857 159.377 55.5876 159.227C55.5876 158.476 54.8424 158.026 54.2461 157.876C54.2461 157.576 54.2461 157.276 54.0971 156.976C53.948 156.676 53.799 156.526 53.5009 156.226C53.3518 156.226 53.0537 155.926 53.0537 155.926C52.6065 155.476 52.4575 154.876 52.3084 154.275C52.1594 153.525 51.5632 152.925 50.8179 152.925C50.5198 152.775 50.2217 152.775 49.9235 152.775C47.9858 153.075 47.6877 154.726 47.9858 156.376C48.1349 158.176 49.6254 159.077 51.265 159.377C51.7122 159.527 52.3084 159.527 52.9046 159.377C52.9046 159.527 52.9046 159.677 52.9046 159.977C52.0103 159.527 50.5198 160.127 50.6688 161.477C50.8179 162.527 51.116 163.578 51.5632 164.478C51.8613 164.928 52.1594 165.378 52.6065 165.828C52.7556 165.978 53.0537 166.128 53.2028 166.278C53.3518 166.278 53.5009 166.428 53.6499 166.428C53.6499 166.428 53.6499 166.428 53.799 166.428C53.948 166.578 53.948 166.578 54.0971 166.728C55.4386 167.779 57.3763 165.828 56.1839 164.628C56.1839 164.628 56.1839 164.628 56.0348 164.478C56.0348 164.478 56.0348 164.478 56.0348 164.328C55.8857 164.178 55.8857 164.028 55.8857 163.728C55.8857 163.578 55.7367 163.428 55.7367 163.278C55.4386 163.578 55.7367 163.728 56.0348 163.878Z" fill="url(#paint27_linear_9002_27463)"/>
<path d="M45.4519 156.526C46.9424 156.976 48.433 155.626 47.6877 154.125C47.3896 153.525 46.9424 153.225 46.3462 152.925C46.4952 152.925 45.899 152.475 45.899 152.475C45.6009 152.175 45.3028 152.025 45.0047 151.875C45.0047 151.125 44.2594 150.675 43.6632 150.525C43.6632 150.225 43.6632 149.924 43.5141 149.624C43.3651 149.324 43.216 149.174 42.9179 148.874C42.7689 148.874 42.4708 148.574 42.4708 148.574C42.0236 148.124 41.8745 147.524 41.7255 146.924C41.5764 146.174 40.9802 145.574 40.2349 145.574C39.9368 145.423 39.6387 145.273 39.3406 145.423C37.4029 145.724 37.2538 147.374 37.4029 149.024C37.5519 150.825 39.0425 151.725 40.6821 152.025C41.1293 152.175 41.7255 152.175 42.3217 152.025C42.3217 152.175 42.3217 152.325 42.3217 152.625C41.4274 152.175 39.9368 152.775 40.0859 154.125C40.2349 155.176 40.533 156.226 40.9802 157.126C41.2783 157.576 41.5764 158.026 42.0236 158.476C42.1726 158.626 42.4708 158.777 42.6198 158.927C42.7689 158.927 42.9179 159.077 43.067 159.077C43.067 159.077 43.067 159.077 43.216 159.077C43.3651 159.227 43.3651 159.227 43.5141 159.227C44.8556 160.277 46.7933 158.326 45.6009 157.126C45.6009 157.126 45.6009 157.126 45.4519 156.976C45.4519 156.976 45.4519 156.976 45.4519 156.826C45.3028 156.676 45.3028 156.526 45.3028 156.226C45.3028 156.076 45.1537 155.926 45.1537 155.776C45.0047 156.376 45.1537 156.526 45.4519 156.526Z" fill="url(#paint28_linear_9002_27463)"/>
<path d="M106.266 146.322C105.968 144.972 104.627 144.972 103.732 145.572C103.583 145.572 103.434 145.572 103.285 145.722C101.348 146.473 100.304 148.123 99.2607 149.923C98.5155 151.124 97.6211 153.974 99.2607 155.024C100.9 156.075 102.987 153.974 103.881 152.774C105.074 150.974 106.713 148.423 106.266 146.322Z" fill="#DFD8E7"/>
<path d="M66.4684 164.628C65.8722 164.028 64.6797 163.878 63.9344 163.728C62.742 163.428 61.8477 163.128 60.9534 162.378C60.3571 161.927 59.7609 162.078 59.1647 162.378C58.2704 162.528 57.5251 163.428 58.1213 164.328C59.1647 165.978 60.8043 166.429 62.4439 167.179C63.7854 167.779 66.1703 168.229 66.9155 166.429C67.2137 165.678 67.0646 165.078 66.4684 164.628Z" fill="#DFD8E7"/>
<path d="M68.5554 164.328C67.8101 163.878 67.2139 164.178 66.7668 164.628C66.0215 164.328 65.1272 164.628 64.829 165.528C64.3819 167.329 62.1461 167.479 61.6989 169.129C61.1027 170.929 63.1894 171.68 64.5309 171.83C66.3196 172.13 67.8101 170.629 68.7045 169.279C69.3007 168.379 69.8969 167.629 70.046 166.578C70.046 165.678 69.4497 164.778 68.5554 164.328Z" fill="url(#paint29_linear_9002_27463)"/>
<path d="M66.0213 162.376C66.1703 161.476 65.7232 161.026 64.9779 160.726C64.9779 159.975 64.3817 159.075 63.3383 159.375C61.5496 159.675 60.5063 157.575 58.7176 157.875C56.7799 158.175 56.9289 160.275 57.3761 161.626C57.8233 163.426 59.761 164.176 61.2515 164.476C62.2949 164.626 63.1892 164.927 64.2326 164.626C65.4251 164.326 65.8722 163.426 66.0213 162.376Z" fill="url(#paint30_linear_9002_27463)"/>
<path d="M156.05 63.6531C155.305 63.6531 154.858 64.1032 154.709 64.5533C154.411 64.7033 154.113 64.7033 153.815 65.0034C152.622 66.2037 152.324 68.1541 152.026 69.6545C151.728 71.0048 151.579 72.9552 152.324 74.3055C152.771 75.0557 153.517 75.2057 154.411 74.9057C156.498 74.0054 157.988 70.7047 158.286 68.6042C158.584 66.8038 158.435 63.8031 156.05 63.6531Z" fill="url(#paint31_linear_9002_27463)"/>
<path d="M149.79 47.45C149.045 47.45 148.598 47.9001 148.449 48.3502C148.151 48.5002 147.853 48.5002 147.554 48.8003C146.362 50.0005 146.064 51.951 145.766 53.4513C145.468 54.8016 145.319 56.7521 146.064 58.1024C146.511 58.8526 147.256 59.0026 148.151 58.7025C150.237 57.8023 151.728 54.5016 152.026 52.4011C152.324 50.6007 152.324 47.6 149.79 47.45Z" fill="url(#paint32_linear_9002_27463)"/>
<path d="M157.243 37.8469C156.796 38.147 156.796 38.5971 156.796 38.8972C156.647 39.0472 156.498 39.1972 156.498 39.4973C156.349 40.5475 156.945 41.8978 157.392 42.7981C157.839 43.6983 158.435 44.8985 159.479 45.1986C160.075 45.3486 160.522 45.1986 160.82 44.7485C161.566 43.3982 161.118 40.9976 160.522 39.6473C159.777 38.5971 158.585 36.9467 157.243 37.8469Z" fill="url(#paint33_linear_9002_27463)"/>
<path d="M161.715 44.8997C161.267 45.0497 160.969 45.3498 160.969 45.7999C160.82 45.9499 160.671 46.1 160.522 46.25C159.926 47.1502 160.075 48.6506 160.224 49.7008C160.224 50.601 160.522 51.9513 161.267 52.7015C161.715 53.1516 162.311 53.1516 162.758 52.7015C163.95 51.8013 164.398 49.2507 164.099 47.9004C163.95 46.5501 163.354 44.4496 161.715 44.8997Z" fill="url(#paint34_linear_9002_27463)"/>
<path d="M140.102 66.6556C139.654 66.2055 139.207 66.2055 138.76 66.3555C138.611 66.2055 138.313 66.0554 138.015 66.2055C136.673 66.2055 135.332 67.2557 134.288 68.0059C133.245 68.606 132.053 69.8063 131.904 71.0066C131.755 71.7567 132.202 72.3569 132.798 72.5069C134.587 73.107 137.27 72.0568 138.76 71.0066C139.803 69.9563 141.443 68.1559 140.102 66.6556Z" fill="url(#paint35_linear_9002_27463)"/>
<path d="M85.2496 82.108C84.8025 81.958 84.3553 82.2581 84.2063 82.5581C84.0572 82.5581 83.7591 82.7082 83.61 82.7082C82.7157 83.3083 82.2686 84.6586 81.8214 85.5588C81.3742 86.459 81.0761 87.6593 81.5233 88.7095C81.8214 89.3097 82.2686 89.4597 82.8648 89.3097C84.3553 88.8596 85.6968 86.9091 86.144 85.5588C86.5911 84.5086 86.8892 82.4081 85.2496 82.108Z" fill="url(#paint36_linear_9002_27463)"/>
<path d="M92.7024 67.4059C92.2552 67.2558 91.8081 67.5559 91.659 67.856C91.51 67.856 91.2119 68.006 91.0628 68.006C90.1685 68.6062 89.7213 69.9565 89.2741 70.8567C88.827 71.7569 88.5289 72.9571 88.976 74.0074C89.2741 74.6075 89.7213 74.7576 90.3175 74.6075C91.8081 74.3075 93.1496 72.207 93.5967 70.8567C94.0439 69.6564 94.342 67.7059 92.7024 67.4059Z" fill="url(#paint37_linear_9002_27463)"/>
<path d="M99.8569 59.4523C99.4098 59.1523 99.1116 59.1523 98.8135 59.4523C98.6645 59.3023 98.3664 59.3023 98.2173 59.3023C97.1739 59.4523 96.1305 60.3526 95.3853 61.1027C94.64 61.7029 93.7457 62.7531 93.7457 63.8033C93.7457 64.4035 94.0438 64.8536 94.64 65.0036C96.1305 65.3037 98.2173 64.1034 99.2607 63.2032C100.006 62.153 101.198 60.3526 99.8569 59.4523Z" fill="url(#paint38_linear_9002_27463)"/>
<path d="M93.4475 74.3063C93.0004 73.8562 92.5532 73.8562 92.106 74.0062C91.8079 73.8562 91.6589 73.8562 91.3608 73.8562C90.0193 73.8562 88.6778 74.9064 87.6344 75.6566C86.591 76.2568 85.3986 77.457 85.2495 78.6573C85.1005 79.4075 85.3986 80.0076 86.1438 80.1576C87.9325 80.7578 90.6155 79.7075 92.106 78.6573C93.1494 77.6071 94.789 75.8067 93.4475 74.3063Z" fill="url(#paint39_linear_9002_27463)"/>
<path d="M112.825 42.649C112.228 42.349 111.781 42.499 111.483 42.9491C111.185 42.9491 110.887 42.9491 110.738 43.0991C109.545 43.5492 108.651 45.0496 107.906 46.0998C107.16 47.1501 106.564 48.5004 106.713 49.7006C106.862 50.4508 107.459 50.7509 108.055 50.7509C109.843 50.7509 112.079 48.6504 112.974 47.1501C113.719 45.7998 114.613 43.5492 112.825 42.649Z" fill="url(#paint40_linear_9002_27463)"/>
<path d="M131.755 79.2572C131.009 79.1072 130.562 79.2572 130.115 79.7073C129.817 79.7073 129.519 79.7073 129.221 79.8573C127.73 80.6075 126.985 82.5579 126.24 83.9083C125.494 85.1085 124.898 87.059 125.345 88.4093C125.643 89.3095 126.24 89.6096 127.134 89.4595C129.37 89.1595 131.755 86.3088 132.649 84.3584C133.394 83.008 134.14 80.0074 131.755 79.2572Z" fill="url(#paint41_linear_9002_27463)"/>
<path d="M142.934 51.8015C142.189 51.8015 141.741 52.2516 141.592 52.7017C141.294 52.8518 140.996 53.0018 140.698 53.1518C139.506 54.3521 139.208 56.3025 138.76 57.8029C138.462 59.1532 138.313 61.1036 139.058 62.454C139.655 63.2041 140.251 63.3542 141.145 63.0541C143.232 62.1539 144.723 58.8531 145.021 56.7526C145.468 54.9522 145.319 51.9515 142.934 51.8015Z" fill="url(#paint42_linear_9002_27463)"/>
<path d="M125.047 33.646C124.451 33.1959 123.854 33.1959 123.407 33.496C123.109 33.346 122.811 33.346 122.513 33.346C120.873 33.496 119.383 34.8463 118.041 35.7465C116.849 36.6467 115.507 37.997 115.358 39.4974C115.209 40.3976 115.805 40.9977 116.551 41.2978C118.638 41.8979 122.066 40.3976 123.556 38.8972C124.898 37.697 126.836 35.2964 125.047 33.646Z" fill="url(#paint43_linear_9002_27463)"/>
<path d="M110.738 51.5016C110.142 51.0515 109.545 51.0515 109.098 51.3516C108.8 51.2016 108.502 51.0515 108.204 51.2016C106.564 51.3516 105.074 52.7019 103.732 53.6021C102.54 54.5023 101.198 55.8526 101.049 57.353C100.9 58.2532 101.496 58.8533 102.242 59.1534C104.328 59.7535 107.757 58.2532 109.247 56.7528C110.738 55.4025 112.526 53.002 110.738 51.5016Z" fill="url(#paint44_linear_9002_27463)"/>
<path d="M147.852 40.6984C147.405 40.3984 146.958 40.3984 146.511 40.6984C146.213 40.5484 146.064 40.5484 145.766 40.6984C144.424 40.9985 143.381 42.1988 142.486 43.099C141.741 43.8492 140.698 45.1995 140.847 46.3997C140.847 47.1499 141.294 47.6 142.039 47.6C143.828 47.9001 146.213 46.2497 147.256 45.0494C148.3 43.9992 149.492 41.8987 147.852 40.6984Z" fill="url(#paint45_linear_9002_27463)"/>
<path d="M121.47 109.114C120.725 109.114 120.277 109.564 120.128 110.014C119.83 110.164 119.532 110.314 119.234 110.464C118.042 111.665 117.743 113.615 117.445 115.115C117.147 116.466 116.998 118.416 117.743 119.766C118.191 120.517 118.936 120.667 119.83 120.367C121.917 119.466 123.408 116.166 123.706 114.065C124.004 112.265 124.004 109.114 121.47 109.114Z" fill="url(#paint46_linear_9002_27463)"/>
<path d="M119.234 120.817C118.638 120.517 118.191 120.667 117.893 121.117C117.595 121.117 117.296 121.117 116.998 121.267C115.657 121.717 114.763 123.218 113.868 124.418C113.123 125.468 112.378 126.968 112.527 128.169C112.676 128.919 113.272 129.369 114.017 129.369C115.955 129.369 118.34 127.268 119.234 125.768C120.278 124.118 121.172 121.717 119.234 120.817Z" fill="url(#paint47_linear_9002_27463)"/>
<path d="M117.296 130.269C116.7 129.969 116.253 130.119 115.955 130.569C115.657 130.569 115.359 130.569 115.06 130.719C113.719 131.169 112.825 132.67 111.93 133.87C111.185 134.92 110.44 136.421 110.589 137.621C110.738 138.371 111.334 138.821 112.079 138.821C114.017 138.821 116.402 136.721 117.296 135.22C118.34 133.57 119.234 131.169 117.296 130.269Z" fill="url(#paint48_linear_9002_27463)"/>
<path d="M109.546 143.172C108.949 142.872 108.502 143.022 108.204 143.473C107.906 143.473 107.608 143.473 107.31 143.623C105.968 144.073 105.074 145.573 104.18 146.623C103.434 147.673 102.689 149.174 102.838 150.374C102.987 151.124 103.583 151.574 104.329 151.574C106.266 151.574 108.651 149.474 109.546 147.974C110.589 146.473 111.483 144.073 109.546 143.172Z" fill="url(#paint49_linear_9002_27463)"/>
<path d="M102.54 151.124C101.943 151.124 101.645 151.424 101.496 151.724C101.347 151.724 101.049 151.874 100.9 152.024C100.006 152.774 99.7076 154.275 99.5585 155.325C99.2604 156.375 99.1114 157.725 99.7076 158.625C100.006 159.226 100.602 159.376 101.198 159.076C102.689 158.475 103.881 156.075 104.03 154.575C104.328 153.374 104.328 151.124 102.54 151.124Z" fill="url(#paint50_linear_9002_27463)"/>
<path d="M126.538 101.763C126.538 101.313 126.09 101.013 125.643 101.013C125.643 101.013 125.494 100.863 125.345 100.863C123.855 99.9629 122.066 102.514 121.619 103.714C121.321 104.614 121.172 105.364 121.321 106.264C121.47 107.315 122.811 107.615 123.557 107.165C125.196 105.964 126.836 103.714 126.538 101.763Z" fill="url(#paint51_linear_9002_27463)"/>
<path d="M69.8969 172.278C70.6421 171.528 70.344 170.628 69.7478 170.028C69.7478 169.728 69.5988 169.278 69.3007 168.978C68.7044 168.378 67.8101 168.077 67.0648 167.927C66.0215 167.627 65.1271 167.327 64.0837 167.327C63.0404 167.177 62.146 167.327 61.2517 167.927C60.3574 168.528 59.7611 169.428 60.3574 170.478C61.997 173.929 66.9158 174.979 69.8969 172.278Z" fill="url(#paint52_linear_9002_27463)"/>
<path d="M120.576 33.0466C121.023 33.6468 121.619 33.7968 122.066 33.6468C122.364 33.7968 122.662 33.9468 123.109 34.0969C124.749 34.3969 126.538 33.4967 128.028 32.8966C129.37 32.2965 131.009 31.3962 131.457 29.8959C131.755 28.9957 131.457 28.2455 130.711 27.9455C128.774 26.7452 125.196 27.4954 123.259 28.3956C121.619 29.1457 119.234 30.9461 120.576 33.0466Z" fill="url(#paint53_linear_9002_27463)"/>
<path d="M137.568 28.846C137.121 26.8956 135.63 26.5955 133.841 26.8956C132.947 27.0456 132.053 27.4957 131.158 28.0959C130.413 28.546 130.115 29.1461 129.966 29.7462C129.668 30.1963 129.668 30.9465 130.115 31.3966C131.308 32.7469 133.543 32.4468 135.034 32.1468C136.524 31.8467 137.866 30.4964 137.568 28.846Z" fill="url(#paint54_linear_9002_27463)"/>
<path d="M157.243 65.7545C156.945 64.7043 155.454 65.1544 155.753 66.2046C155.902 66.6547 156.051 67.2548 156.051 67.855C156.051 68.9052 157.69 68.9052 157.69 67.855C157.541 66.9548 157.392 66.3546 157.243 65.7545Z" fill="white"/>
<path d="M156.498 69.8042C155.454 69.8042 155.454 71.454 156.498 71.454C157.541 71.304 157.541 69.8042 156.498 69.8042Z" fill="white"/>
<path d="M148.151 49.4C147.853 50.0002 147.555 50.7503 147.256 51.3505C146.958 52.4007 148.449 52.8508 148.747 51.8006C148.896 51.2004 149.194 50.7503 149.492 50.1502C150.089 49.25 148.598 48.4998 148.151 49.4Z" fill="white"/>
<path d="M146.511 54.2V54.5C146.511 55.5499 148.151 55.5499 148.151 54.5V54.2C148.151 53.1501 146.511 53.1501 146.511 54.2Z" fill="white"/>
<path d="M148.747 74.6064C148.449 74.3063 148.002 74.3063 147.554 74.6064C146.66 75.3566 145.915 76.2568 145.468 77.307C145.021 78.2072 146.362 79.1074 146.809 78.2072C147.256 77.307 147.853 76.4068 148.747 75.8067C149.045 75.5066 149.045 74.9065 148.747 74.6064Z" fill="white"/>
<path d="M138.611 90.0595C138.313 89.7595 137.717 89.7595 137.419 90.0595C136.822 90.8097 136.226 91.7099 135.779 92.6101C135.63 93.0602 135.928 93.5103 136.375 93.6603C136.822 93.8104 137.27 93.5103 137.419 93.0602C137.717 92.31 138.164 91.7099 138.611 91.2598C138.909 90.8097 138.909 90.3596 138.611 90.0595Z" fill="white"/>
<path d="M128.624 93.2095C127.73 93.8097 126.836 94.5598 126.24 95.46C125.941 95.7601 126.24 96.3602 126.538 96.5103C126.985 96.8103 127.432 96.5103 127.581 96.2102C128.028 95.6101 128.773 95.0099 129.37 94.5598C130.264 94.1097 129.519 92.6094 128.624 93.2095Z" fill="white"/>
<path d="M135.928 93.811C134.885 93.811 134.885 95.4609 135.928 95.4609C136.972 95.4609 136.972 93.961 135.928 93.811Z" fill="white"/>
<path d="M131.456 103.112C131.158 102.662 130.711 102.662 130.413 102.812C129.221 103.262 128.624 104.312 128.475 105.663C128.326 106.113 128.923 106.413 129.221 106.413C129.668 106.413 129.966 106.113 129.966 105.663C130.115 105.062 130.562 104.612 131.158 104.312C131.456 104.162 131.605 103.562 131.456 103.112Z" fill="white"/>
<path d="M116.849 122.016C115.507 122.766 114.464 123.967 114.017 125.467C113.719 126.517 115.358 126.967 115.507 125.917C115.805 124.717 116.551 123.967 117.594 123.366C118.488 122.916 117.743 121.416 116.849 122.016Z" fill="white"/>
<path d="M116.253 131.919C116.104 131.469 115.657 131.319 115.21 131.469C114.017 131.619 113.272 132.219 112.527 133.119C112.229 133.419 112.378 134.019 112.825 134.169C113.272 134.469 113.719 134.319 113.868 133.869C114.315 133.269 114.912 132.969 115.508 132.969C116.104 132.969 116.402 132.369 116.253 131.919Z" fill="white"/>
<path d="M107.31 144.072C106.565 144.522 105.968 145.122 105.372 145.872C105.074 146.172 105.372 146.772 105.67 146.922C106.117 147.222 106.565 146.922 106.714 146.622C107.161 146.172 107.608 145.722 108.055 145.422C108.949 144.972 108.204 143.621 107.31 144.072Z" fill="white"/>
<path d="M104.776 148.723C103.732 148.723 103.732 150.373 104.776 150.373C105.67 150.373 105.819 148.723 104.776 148.723Z" fill="white"/>
<path d="M101.944 152.324C101.497 152.174 101.049 152.474 100.9 152.924C100.602 153.524 100.304 154.124 100.006 154.724C99.8569 155.174 100.155 155.624 100.602 155.774C101.049 155.925 101.497 155.624 101.646 155.174C101.944 154.574 102.242 153.974 102.54 153.374C102.689 152.924 102.391 152.474 101.944 152.324Z" fill="white"/>
<path d="M100.602 156.374C99.5588 156.374 99.5588 158.023 100.602 158.023C101.646 158.023 101.646 156.374 100.602 156.374Z" fill="white"/>
<path d="M85.8457 166.876C84.5042 166.876 83.1627 167.176 81.9703 167.476C80.9269 167.776 81.374 169.276 82.4174 168.976C83.6099 168.676 84.6532 168.376 85.9947 168.376C86.8891 168.526 86.8891 166.876 85.8457 166.876Z" fill="white"/>
<path d="M53.2025 159.677C53.5006 158.626 52.7554 158.026 52.0101 157.876C51.861 157.576 51.5629 157.276 51.1158 157.276C50.3705 157.126 49.4762 157.276 48.5818 157.576C47.5385 157.726 46.6441 158.026 45.6007 158.476C44.7064 158.927 43.8121 159.527 43.514 160.427C43.0668 161.327 43.0668 162.527 44.1102 163.127C47.2403 165.078 52.0101 163.428 53.2025 159.677Z" fill="url(#paint55_linear_9002_27463)"/>
<path d="M50.6688 157.874C49.3273 157.874 47.9858 158.174 46.6443 158.473C45.6009 158.773 46.0481 160.423 47.0915 159.973C48.2839 159.673 49.4763 159.373 50.6688 159.373C51.7122 159.373 51.7122 157.874 50.6688 157.874Z" fill="white"/>
<path d="M76.4553 168.377C75.71 168.527 74.9648 168.677 74.2195 168.677C73.7723 168.827 73.6233 169.277 73.6233 169.727C73.7723 170.177 74.2195 170.327 74.5176 170.327C75.2629 170.177 76.0081 170.027 76.7534 170.027C77.7968 169.877 77.3496 168.227 76.4553 168.377Z" fill="white"/>
<path d="M61.1026 161.476C60.2083 161.326 59.6121 160.876 59.1649 160.126C58.7177 159.225 57.2272 159.976 57.8234 160.876C58.4196 161.926 59.463 162.826 60.6555 162.976C61.1026 162.976 61.5498 162.826 61.6988 162.376C61.8479 162.226 61.5498 161.626 61.1026 161.476Z" fill="white"/>
<path d="M68.2574 169.276C67.214 168.526 66.0216 168.076 64.8292 167.626C63.7858 167.326 63.4877 168.826 64.382 169.126C65.4254 169.576 66.4688 169.876 67.5121 170.627C68.2574 171.227 69.0027 169.726 68.2574 169.276Z" fill="white"/>
<path d="M41.8746 157.875C42.918 157.725 43.2161 156.824 43.0671 156.074C43.2161 155.774 43.3652 155.474 43.2161 155.024C43.0671 154.274 42.4709 153.524 42.0237 152.774C41.4275 151.873 40.8313 151.123 39.9369 150.523C39.1916 149.923 38.2973 149.323 37.2539 149.323C36.2106 149.323 35.1672 149.623 35.0181 150.823C34.72 154.574 38.1483 158.325 41.8746 157.875Z" fill="url(#paint56_linear_9002_27463)"/>
<path d="M42.4709 154.424C42.0238 153.223 41.2785 152.173 40.5332 151.123C39.937 150.223 38.7445 151.273 39.1917 152.173C39.7879 153.073 40.3842 154.123 40.8313 155.174C41.2785 155.924 42.769 155.324 42.4709 154.424Z" fill="white"/>
<path d="M59.463 167.326C60.2083 166.576 59.9102 165.676 59.314 165.076C59.314 164.776 59.1649 164.326 58.8668 164.176C58.2706 163.576 57.3763 163.275 56.631 163.125C55.5876 162.825 54.6933 162.525 53.6499 162.525C52.6065 162.375 51.7122 162.525 50.8179 163.125C49.9235 163.726 49.3273 164.626 49.9235 165.676C51.7122 168.977 56.631 169.877 59.463 167.326Z" fill="url(#paint57_linear_9002_27463)"/>
<path d="M57.8235 164.176C56.7801 163.426 55.5877 162.975 54.3952 162.525C53.3519 162.225 52.9047 163.726 53.9481 164.026C54.9915 164.476 56.0348 164.776 57.0782 165.526C57.8235 166.126 58.7178 164.776 57.8235 164.176Z" fill="white"/>
<path d="M99.2604 65.7545C98.9623 65.3044 98.5151 65.3044 98.217 65.4545C97.1737 65.9046 96.2793 66.8048 95.9812 67.855C95.6831 68.9053 97.1737 69.3554 97.4718 68.3051C97.7699 67.555 98.3661 67.1049 98.9623 66.8048C99.4095 66.6548 99.5585 66.2047 99.2604 65.7545Z" fill="white"/>
<path d="M108.949 51.4999C107.161 51.3499 105.67 52.1 104.627 53.4503C104.031 54.3505 105.372 55.1007 105.968 54.3505C106.714 53.3003 107.757 53.1503 108.949 53.1503C109.993 53.3003 109.993 51.6499 108.949 51.4999Z" fill="white"/>
<path d="M103.434 54.9517C102.391 54.9517 102.391 56.6015 103.434 56.6015C104.478 56.6015 104.478 54.9517 103.434 54.9517Z" fill="white"/>
<path d="M112.527 43.8486C112.378 43.3985 111.93 43.0985 111.483 43.2485C110.142 43.6986 109.098 44.7488 108.651 46.0992C108.502 46.5493 108.8 46.9994 109.247 47.1494C109.695 47.2994 110.142 46.9994 110.291 46.5493C110.589 45.7991 111.185 45.1989 112.079 44.8989C112.378 44.7488 112.676 44.2987 112.527 43.8486Z" fill="white"/>
<path d="M108.949 47.1489C107.906 47.1489 107.906 48.7988 108.949 48.7988C109.844 48.7988 109.844 47.1489 108.949 47.1489Z" fill="white"/>
<path d="M123.109 34.3961C122.811 33.946 122.364 33.946 122.066 34.0961C121.022 34.5462 120.128 34.9963 119.532 35.7465C118.638 36.6467 119.83 37.8469 120.575 36.9467C121.172 36.1966 121.917 35.8965 122.811 35.4464C123.109 35.4464 123.258 34.8463 123.109 34.3961Z" fill="white"/>
<path d="M118.19 37.5474C117.147 37.5474 117.147 39.1972 118.19 39.1972C119.234 39.0472 119.234 37.5474 118.19 37.5474Z" fill="white"/>
<path d="M127.73 27.9448C126.091 27.9448 124.6 28.3948 123.109 28.9947C122.066 29.4447 122.811 30.9445 123.706 30.4946C124.898 29.8946 126.24 29.5947 127.581 29.5947C128.624 29.5947 128.624 27.9448 127.73 27.9448Z" fill="white"/>
<path d="M121.47 30.4956C120.426 30.4956 120.426 32.1454 121.47 32.1454C122.513 32.1454 122.513 30.4956 121.47 30.4956Z" fill="white"/>
<path d="M145.915 63.5023C145.467 63.2022 145.02 63.3523 144.871 63.8024C144.424 64.4025 143.977 65.1527 143.828 65.9029C143.53 66.9531 145.169 67.4032 145.318 66.353C145.467 65.7528 145.765 65.1527 146.213 64.5525C146.511 64.2525 146.362 63.6523 145.915 63.5023Z" fill="white"/>
<path d="M144.275 68.3052C143.232 68.3052 143.232 69.955 144.275 69.955C145.17 69.955 145.319 68.3052 144.275 68.3052Z" fill="white"/>
<path d="M163.503 46.399C163.354 45.3488 161.864 45.7989 162.013 46.8491C162.162 47.4493 162.162 48.1994 161.864 48.7996C161.566 49.8498 163.056 50.1499 163.354 49.2497C163.652 48.3495 163.652 47.2992 163.503 46.399Z" fill="white"/>
<path d="M141.443 53.9C140.698 54.6502 140.251 55.4004 139.952 56.3006C139.654 57.3508 141.145 57.6509 141.443 56.7507C141.741 56.1505 142.039 55.5504 142.486 55.1003C143.232 54.2001 142.188 53.1498 141.443 53.9Z" fill="white"/>
<path d="M159.926 39.3483C159.33 38.4481 157.988 39.1982 158.584 40.0984C158.883 40.5485 159.032 40.8486 159.032 41.2987C159.032 42.3489 160.671 42.3489 160.671 41.2987C160.522 40.6986 160.224 39.9484 159.926 39.3483Z" fill="white"/>
<path d="M138.76 77.6064C138.462 77.3063 138.015 77.3063 137.568 77.6064C136.822 78.2065 136.226 78.9567 136.077 79.8569C135.779 80.9072 137.27 81.3573 137.568 80.307C137.717 79.7069 138.164 79.2568 138.76 78.8067C139.058 78.3566 139.058 77.9065 138.76 77.6064Z" fill="white"/>
<path d="M122.811 111.064C122.662 110.014 121.172 110.464 121.321 111.514C121.47 112.414 121.47 113.465 121.023 114.365C120.575 115.265 122.215 115.715 122.513 114.815C123.109 113.465 123.109 112.264 122.811 111.064Z" fill="white"/>
<path d="M90.0192 75.5059C89.8701 75.0558 89.423 74.7557 88.9758 74.9057C87.9324 75.2058 87.1871 75.956 86.5909 76.8562C86.1437 77.7564 87.4852 78.6566 87.9324 77.7564C88.2305 77.1562 88.6777 76.7061 89.2739 76.5561C89.8701 76.4061 90.1682 75.956 90.0192 75.5059Z" fill="white"/>
<path d="M90.0194 53.0022C97.323 40.6993 106.117 29.8969 120.576 27.4963C128.625 26.8962 130.264 26.5961 131.457 25.3958C132.798 24.1956 138.015 25.996 140.549 27.1962C143.083 28.2465 145.17 31.8473 148.3 33.3477C156.796 37.6986 156.349 40.0992 157.839 43.2499C159.181 46.4006 157.392 49.2513 160.075 51.3518C162.609 53.3022 164.1 61.4041 157.243 65.0049C154.709 66.6553 153.219 70.2561 152.622 74.007C152.026 77.9079 149.194 80.3084 143.679 77.6078C137.121 74.4571 137.866 75.8074 139.804 77.6078C141.741 79.4082 141.443 81.5087 140.251 83.3091C139.058 85.1095 139.207 86.3098 139.058 89.1604C138.909 92.0111 137.121 93.0613 134.289 92.3112C131.457 91.711 122.662 102.514 118.489 108.065C114.464 113.466 114.017 116.467 115.657 119.467C117.296 122.468 116.849 125.769 114.464 129.52C110.738 135.371 108.204 135.821 104.925 134.321C101.497 132.97 97.7702 134.771 98.0683 138.522C98.8136 147.224 99.4098 150.224 97.0249 152.025C94.6401 153.825 93.0005 155.026 91.2118 158.476C89.4231 161.927 86.7402 167.328 79.2874 167.328C71.8347 167.328 67.6611 162.977 64.9781 161.177C62.4442 159.377 56.7801 156.676 48.5821 153.525C40.3841 150.374 37.8502 147.524 37.403 139.572C36.9558 131.77 39.7879 121.718 48.5821 112.266C57.3764 102.814 68.8536 90.3607 75.7101 80.0083C83.3119 68.7558 84.6534 66.0551 86.293 61.7042C88.0816 57.3532 90.0194 53.0022 90.0194 53.0022Z" fill="url(#paint58_linear_9002_27463)"/>
<g opacity="0.6" style="mix-blend-mode:soft-light">
<path d="M124.004 30.1973C124.004 30.1973 119.681 30.3473 112.825 32.7478C105.968 35.1484 99.7078 46.401 94.789 55.7031C90.0192 65.0052 84.057 76.5579 76.7534 88.7107C69.5987 100.713 46.3462 116.467 43.6632 129.67C40.533 140.923 47.6877 144.223 52.0103 145.724C50.3707 132.821 58.4196 119.618 73.176 103.414C87.9325 87.3604 97.7701 74.1573 104.627 59.604C111.632 45.2007 115.06 35.2984 124.004 30.1973Z" fill="white"/>
</g>
<g opacity="0.4" style="mix-blend-mode:soft-light">
<path d="M160.224 51.3526C157.69 49.4021 159.479 46.5515 157.988 43.2507C156.647 40.1 156.945 37.5494 148.449 33.3484C147.256 32.7483 146.213 31.8481 145.17 30.7979C148.449 35.1488 149.343 40.1 147.256 42.9506C143.232 48.6519 152.622 49.102 152.622 54.8034C152.622 60.5047 141.145 58.5542 145.021 62.005C148.896 65.4558 141.145 68.7566 137.121 69.2067C133.096 69.6568 130.711 66.9561 131.457 75.5081C132.202 83.91 114.911 76.2583 99.8569 70.4069C84.6533 64.7056 81.6722 70.707 68.5554 89.7614C103.881 96.813 111.036 107.765 107.012 113.767C102.987 119.918 94.4909 119.918 92.5532 128.62C90.4664 137.472 84.5043 135.672 83.759 142.573C83.0137 149.325 75.4119 152.026 69.5988 153.376C63.9347 154.726 58.4197 152.026 45.75 144.824C39.4897 141.373 38.7444 133.421 39.7878 126.37C37.9992 131.171 37.4029 135.672 37.552 139.573C37.9992 147.375 40.5331 150.225 48.7311 153.526C56.9291 156.677 62.5932 159.377 65.1271 161.178C67.6611 162.978 71.6855 167.329 79.2873 167.329C86.8891 167.329 89.4231 161.928 91.2117 158.477C93.0004 155.026 94.64 153.826 97.0249 152.026C99.4097 150.225 98.8135 147.225 98.0682 138.523C97.7701 134.772 101.497 132.821 104.925 134.322C108.353 135.672 110.738 135.372 114.464 129.52C116.849 125.77 117.296 122.469 115.657 119.468C114.017 116.467 114.464 113.467 118.638 108.066C122.811 102.664 131.606 91.7118 134.438 92.312C137.27 92.9121 139.058 91.8618 139.207 89.1612C139.356 86.3106 139.207 85.1103 140.4 83.3099C141.592 81.5095 142.039 79.409 139.953 77.6086C138.015 75.8082 137.121 74.4579 143.828 77.6086C149.492 80.3092 152.175 77.7586 152.771 74.0078C153.368 70.1069 154.709 66.506 157.392 65.0057C164.249 61.4049 162.758 53.303 160.224 51.3526Z" fill="url(#paint59_linear_9002_27463)"/>
</g>
<path d="M66.3199 96.5117C71.984 89.4601 82.865 74.7567 86.8895 63.6542C89.8706 55.2522 97.1743 42.9494 105.074 34.3975C98.9629 39.1986 94.1932 45.8001 90.0196 53.0017C90.0196 53.0017 87.9329 57.3527 86.2933 61.8538C84.6537 66.2047 83.3122 68.9054 75.7104 80.1579C69.8972 88.8599 60.6558 99.2123 52.6069 107.914C57.6747 104.464 63.4879 100.113 66.3199 96.5117Z" fill="url(#paint60_linear_9002_27463)"/>
<path opacity="0.9" d="M113.719 116.016C112.377 119.917 115.209 121.717 113.272 127.118C111.334 132.37 107.608 133.57 105.074 133.42C102.54 133.27 100.006 130.419 97.0248 133.42C94.0437 136.42 96.1304 141.972 96.4286 146.023C96.8757 150.224 93.4475 150.974 90.9135 151.874C88.3796 152.924 85.6966 148.873 85.6966 148.873C85.6966 148.873 87.0381 151.724 87.3362 155.775C87.4853 159.976 87.4853 162.076 84.8023 164.327C82.1193 166.427 78.9891 167.328 77.3495 165.527C75.7099 163.727 74.9647 166.577 73.176 163.727C71.0892 160.576 70.493 159.226 67.81 161.176C67.2138 161.626 66.4685 161.776 65.7233 161.776C68.2572 163.727 72.2817 167.478 79.2873 167.478C86.8891 167.478 89.423 162.076 91.2116 158.626C93.0003 155.175 94.6399 153.975 97.0248 152.174C99.4097 150.374 98.8134 147.373 98.0682 138.671C97.7701 134.92 101.496 132.97 104.925 134.47C108.353 135.82 110.738 135.52 114.464 129.669C116.849 125.918 117.296 122.617 115.657 119.617C114.017 116.616 114.464 113.615 118.638 108.214C119.234 107.464 119.83 106.714 120.426 105.813C120.277 105.813 120.128 105.964 120.128 105.964C117.445 108.064 115.06 111.965 113.719 116.016Z" fill="url(#paint61_linear_9002_27463)"/>
<path opacity="0.9" d="M160.224 51.3516C157.69 49.4012 159.479 46.5505 157.988 43.2498C156.647 40.2491 156.945 37.9986 150.088 34.0977C153.368 39.799 154.262 45.3502 152.92 47.1506C151.132 49.5512 153.368 49.8513 156.647 51.6517C159.926 53.4521 159.926 57.503 157.094 60.6537C154.113 63.8045 149.492 63.2043 149.492 63.2043C149.492 63.2043 152.473 65.0047 152.026 68.1555C151.579 71.4562 149.343 74.4569 146.511 74.4569C143.828 74.4569 142.039 72.6565 139.207 73.1066C136.524 73.5567 133.692 72.6565 133.692 72.6565C133.692 72.6565 134.736 74.3069 136.673 77.0075C138.611 79.7081 137.121 85.5595 135.034 86.9098C133.096 88.2601 134.587 90.8107 131.307 93.8113C132.5 92.9111 133.543 92.311 134.288 92.461C137.121 93.0612 138.909 92.0109 139.058 89.3103C139.207 86.4597 139.058 85.2594 140.251 83.459C141.443 81.6586 141.89 79.5581 139.804 77.7577C137.866 75.9573 136.971 74.6069 143.679 77.7577C149.343 80.4583 152.026 77.9077 152.622 74.1568C153.218 70.2559 154.56 66.6551 157.243 65.1548C164.249 61.4039 162.758 53.3021 160.224 51.3516Z" fill="url(#paint62_linear_9002_27463)"/>
<path d="M86.8888 150.225C86.8888 150.225 87.0378 150.375 87.485 150.676C87.7831 150.976 88.3793 151.276 89.1246 151.426C89.4227 151.576 89.8699 151.576 90.317 151.576C90.7642 151.576 91.2114 151.576 91.6585 151.426C92.1057 151.276 92.5528 151.126 93 150.976C93.4472 150.826 93.8943 150.526 94.1924 150.225C94.6396 149.925 94.9377 149.625 95.2358 149.325C95.5339 149.025 95.8321 148.575 95.9811 148.125C96.1302 147.675 96.2792 147.225 96.2792 146.925C96.2792 146.475 96.2792 146.175 96.2792 145.724C96.2792 144.974 96.1302 144.374 96.1302 143.924C96.1302 143.474 95.9811 143.174 95.9811 143.174C95.9811 143.174 95.9811 143.474 96.1302 143.774C96.2792 144.224 96.4283 144.824 96.4283 145.574C96.5773 146.325 96.5773 147.225 96.1302 148.125C95.9811 148.575 95.683 149.025 95.2358 149.325C94.9377 149.775 94.4906 150.075 94.0434 150.375C93.5962 150.676 93.1491 150.976 92.7019 151.126C92.2547 151.426 91.8076 151.576 91.3604 151.726C90.9132 151.876 90.4661 151.876 90.0189 151.876C89.5717 151.876 89.1246 151.726 88.8265 151.726C88.0812 151.576 87.485 151.126 87.1869 150.826C87.0378 150.526 86.8888 150.225 86.8888 150.225Z" fill="#953A27"/>
<path d="M95.3848 137.022C95.3848 137.022 95.3848 136.722 95.5338 136.272C95.6829 135.822 95.8319 135.072 96.2791 134.321C96.4282 133.871 96.7263 133.571 97.0244 133.121C97.1734 132.971 97.3225 132.821 97.6206 132.671C97.7697 132.521 98.0678 132.371 98.3659 132.221C98.664 132.071 98.813 132.071 99.1112 131.921C99.4093 131.921 99.7074 131.921 100.005 131.771C100.304 131.771 100.602 131.771 100.9 131.921C101.198 131.921 101.496 132.071 101.794 132.071C102.39 132.221 102.838 132.371 103.434 132.521C103.881 132.671 104.477 132.821 104.924 132.821C105.222 132.821 105.371 132.821 105.67 132.971C105.968 132.971 106.117 132.971 106.415 132.971C106.713 132.971 106.862 132.971 107.16 132.971C107.309 132.971 107.607 132.971 107.756 132.821C108.203 132.671 108.502 132.671 108.8 132.371C108.502 132.521 108.203 132.671 107.756 132.821C107.607 132.971 107.309 132.971 107.16 132.971C107.011 132.971 106.713 133.121 106.415 133.121C106.117 133.121 105.968 133.121 105.67 133.121C105.371 133.121 105.222 133.121 104.924 132.971C104.328 132.971 103.881 132.821 103.285 132.671C102.688 132.521 102.241 132.371 101.645 132.221C101.347 132.221 101.198 132.071 100.9 132.071C100.602 132.071 100.304 131.921 100.155 131.921C99.8564 131.921 99.5583 131.921 99.4093 132.071C99.1111 132.221 98.9621 132.221 98.664 132.371C98.5149 132.521 98.2168 132.521 98.0678 132.671C97.9187 132.821 97.6206 132.971 97.4715 133.121C97.1734 133.421 96.8753 133.871 96.7263 134.171C96.2791 134.921 95.981 135.522 95.8319 135.972C95.5338 136.722 95.3848 137.022 95.3848 137.022Z" fill="#953A27"/>
<path d="M136.822 84.0591C137.269 83.1589 137.418 82.1087 137.567 81.0584C137.567 80.6083 137.567 80.0082 137.567 79.5581C137.567 79.258 137.418 79.108 137.418 78.8079C137.269 78.5079 137.269 78.3578 137.12 78.0578C136.971 77.7577 136.971 77.6077 136.822 77.3076C136.673 77.1575 136.524 76.8575 136.375 76.7074L135.481 75.3571L133.692 72.8065L133.99 72.6565C133.99 72.6565 134.139 72.8065 134.288 72.8065C134.437 72.8065 134.586 72.8065 134.735 72.8065C135.033 72.8065 135.481 72.8065 135.779 72.8065H137.865C138.014 72.8065 138.164 72.8065 138.462 72.8065L139.058 72.9566C139.356 72.9566 139.803 73.1066 140.101 73.1066C140.847 73.2566 141.443 73.4067 142.188 73.7068C142.933 73.8568 143.53 74.0068 144.275 74.1569C144.573 74.3069 145.02 74.3069 145.318 74.3069C145.616 74.3069 146.063 74.3069 146.362 74.3069C146.66 74.3069 147.107 74.3069 147.405 74.1569C147.554 74.1569 147.703 74.0068 147.852 74.0068C148.001 74.0068 148.15 73.8568 148.299 73.8568C148.15 74.0068 148.001 74.0068 147.852 74.1569C147.703 74.1569 147.554 74.3069 147.405 74.3069C147.107 74.4569 146.66 74.4569 146.362 74.4569C146.063 74.4569 145.616 74.4569 145.318 74.4569C145.02 74.4569 144.573 74.4569 144.275 74.3069C143.53 74.1569 142.933 74.0068 142.188 73.8568C141.443 73.7068 140.847 73.5567 140.101 73.2567C139.803 73.1066 139.356 73.1066 139.058 73.1066L138.462 72.9566C138.313 72.9566 138.164 72.9566 138.014 72.9566C137.269 72.9566 136.524 72.9566 135.928 72.9566C135.63 72.9566 135.182 72.9566 134.884 72.9566C134.735 72.9566 134.586 72.9566 134.288 72.8065C134.139 72.8065 133.841 72.8065 133.692 72.5065L133.99 72.3564L135.779 74.907L136.673 76.2573C136.822 76.5574 136.971 76.7074 137.12 77.0075C137.269 77.3076 137.418 77.4576 137.418 77.7577C137.567 78.0578 137.567 78.2078 137.716 78.5079C137.716 78.8079 137.865 79.108 137.865 79.258C137.865 79.8582 137.865 80.3083 137.865 80.9084C137.567 82.1087 137.269 83.1589 136.822 84.0591Z" fill="#953A27"/>
<path d="M149.492 63.3546C149.492 63.3546 149.939 63.5046 150.833 63.3546C151.728 63.3546 152.92 63.2046 154.262 62.6044C154.858 62.3044 155.603 61.8542 156.348 61.4041C156.944 60.804 157.541 60.2039 158.137 59.4537C158.435 59.1536 158.584 58.7035 158.733 58.2534C158.882 57.8033 159.031 57.3532 159.18 56.9031C159.329 56.0029 159.18 54.9527 158.733 54.2025C158.286 53.3023 157.541 52.7022 156.795 52.102C156.646 51.952 156.348 51.8019 156.199 51.6519C156.05 51.5019 155.752 51.5019 155.603 51.3518C155.156 51.2018 154.709 50.9017 154.262 50.7517C153.814 50.4516 153.367 50.3016 153.069 50.0015C152.771 49.7015 152.473 49.2514 152.473 48.8013C152.473 48.3512 152.771 47.9011 152.92 47.601C153.069 47.3009 153.367 46.8508 153.367 46.5507C153.665 45.9506 153.665 45.2004 153.665 44.6003C153.665 44.3002 153.665 44.0002 153.665 43.7001C153.665 43.4 153.516 43.25 153.516 42.9499C153.367 42.0497 153.218 41.5996 153.218 41.5996C153.218 41.5996 153.367 42.0497 153.665 42.9499C153.665 43.1 153.814 43.4 153.814 43.7001C153.814 44.0002 153.814 44.3002 153.963 44.6003C153.963 45.2004 153.963 45.9506 153.665 46.7008C153.516 47.1509 153.367 47.4509 153.218 47.751C153.069 48.2011 152.771 48.5012 152.771 48.8013C152.771 49.2514 153.069 49.5514 153.367 49.8515C153.665 50.1516 154.112 50.3016 154.411 50.6017C154.858 50.7517 155.305 51.0518 155.752 51.2018C155.901 51.3518 156.199 51.3518 156.497 51.5019C156.646 51.6519 156.944 51.8019 157.094 51.952C157.988 52.5521 158.733 53.1523 159.18 54.0525C159.777 54.9527 159.926 56.1529 159.627 57.0531C159.627 57.5033 159.329 57.9534 159.18 58.5535C158.882 59.0036 158.733 59.4537 158.435 59.7538C157.988 60.5039 157.243 61.2541 156.646 61.7042C155.901 62.3044 155.305 62.6044 154.56 62.9045C153.218 63.5046 151.877 63.5046 150.982 63.5046C149.939 63.5046 149.492 63.3546 149.492 63.3546Z" fill="#953A27"/>
<path opacity="0.9" d="M156.051 61.7061C153.219 63.8065 149.492 63.3564 149.492 63.3564C149.492 63.3564 150.536 63.9566 151.281 65.1568C152.921 66.5072 153.815 67.8575 154.262 69.2078C155.007 67.4074 156.051 65.907 157.541 65.0068C158.287 64.5567 158.883 64.2566 159.479 63.6565C157.988 63.6565 156.796 62.7563 156.051 61.7061Z" fill="url(#paint63_linear_9002_27463)"/>
<path opacity="0.9" d="M159.628 50.6028C158.137 48.8023 159.181 46.4018 158.286 43.7012C158.286 45.2015 157.839 46.4018 156.796 46.2518C155.752 46.2518 154.709 45.6516 153.666 44.9014C153.666 45.8017 153.517 46.5518 153.069 47.152C151.728 48.9524 152.622 49.5525 154.709 50.6028C156.051 50.6028 157.839 50.6028 159.628 50.6028Z" fill="url(#paint64_linear_9002_27463)"/>
<path opacity="0.9" d="M97.0248 133.27C95.9814 134.32 95.5343 135.671 95.5343 137.021C96.4286 137.471 97.3229 138.071 98.0682 138.671V138.521C97.7701 135.07 100.751 133.27 103.732 134.02C103.434 133.57 103.136 133.12 102.987 132.67C101.049 132.07 99.1116 131.169 97.0248 133.27Z" fill="url(#paint65_linear_9002_27463)"/>
<path opacity="0.9" d="M88.2304 151.425C86.7399 150.524 85.6965 148.874 85.6965 148.874C85.6965 148.874 87.038 151.725 87.3361 155.776C87.3361 156.526 87.3361 157.126 87.3361 157.726C88.2304 158.626 89.2738 159.677 90.0191 160.727C90.4662 159.977 90.9134 159.076 91.2115 158.476C91.9568 156.976 92.7021 155.926 93.5964 155.025C91.5096 154.725 89.5719 153.075 88.2304 151.425Z" fill="url(#paint66_linear_9002_27463)"/>
<path d="M68.5555 89.611C68.5555 89.611 87.4854 89.911 107.012 103.264C117.296 110.016 124.153 119.318 124.153 119.318L124.6 116.317L118.638 108.065C118.638 108.065 89.8703 88.2607 69.4498 87.8105L68.5555 89.611Z" fill="url(#paint67_linear_9002_27463)"/>
<path d="M133.544 92.3096C133.395 92.0096 133.245 91.8595 133.245 91.8595C133.245 91.8595 127.73 84.958 112.08 76.7061C96.4289 68.6042 82.865 69.0543 82.865 69.0543L68.5557 88.8588C68.5557 88.8588 78.6914 88.7088 93.1497 94.8602C107.608 101.162 117.446 108.663 117.446 108.663L117.595 108.813C120.129 105.663 126.389 97.5608 133.544 92.3096Z" fill="url(#paint68_linear_9002_27463)"/>
<path d="M133.544 92.3096C126.389 97.7108 120.129 105.663 117.744 108.963L124.601 117.665C124.601 117.665 127.433 115.865 130.414 110.164C133.395 104.462 135.332 101.912 135.929 99.5112C136.376 97.5608 134.289 93.5098 133.544 92.3096Z" fill="url(#paint69_linear_9002_27463)"/>
<path opacity="0.1" d="M112.08 76.7074C108.055 74.6069 104.18 73.1065 100.453 71.9062C97.4724 76.5573 91.8083 85.5594 86.7404 92.461C88.8272 93.2111 90.914 93.9613 93.1498 94.8615C96.1309 96.0618 98.8139 97.4121 101.348 98.7624C104.925 92.0109 111.036 81.0583 113.123 77.1575C112.825 77.1575 112.527 77.0074 112.08 76.7074Z" fill="url(#paint70_linear_9002_27463)"/>
<path opacity="0.3" d="M113.272 77.3066C111.185 81.2075 105.074 92.16 101.496 98.9116C104.627 100.562 107.459 102.212 109.694 103.563C113.868 97.7113 121.172 89.6095 125.494 84.9584C122.364 82.7079 118.489 80.1573 113.272 77.3066Z" fill="url(#paint71_linear_9002_27463)"/>
<path opacity="0.1" d="M133.245 91.8606C133.245 91.8606 131.009 89.1599 125.494 84.959C121.321 89.6101 114.017 97.7119 109.695 103.563C114.613 106.564 117.594 108.814 117.594 108.814L117.743 108.964C120.128 105.664 126.538 97.5619 133.543 92.3107C133.394 92.0106 133.245 91.8606 133.245 91.8606Z" fill="url(#paint72_linear_9002_27463)"/>
<defs>
<linearGradient id="paint0_linear_9002_27463" x1="158.867" y1="54.9818" x2="164.984" y2="55.0633" gradientUnits="userSpaceOnUse">
<stop stop-color="white"/>
<stop offset="1" stop-color="#DFD8E7"/>
</linearGradient>
<linearGradient id="paint1_linear_9002_27463" x1="140.205" y1="85.6194" x2="148.441" y2="85.729" gradientUnits="userSpaceOnUse">
<stop stop-color="white"/>
<stop offset="1" stop-color="#DFD8E7"/>
</linearGradient>
<linearGradient id="paint2_linear_9002_27463" x1="126.788" y1="100.817" x2="131.934" y2="100.886" gradientUnits="userSpaceOnUse">
<stop stop-color="white"/>
<stop offset="1" stop-color="#DFD8E7"/>
</linearGradient>
<linearGradient id="paint3_linear_9002_27463" x1="148.708" y1="36.5859" x2="154.643" y2="36.6649" gradientUnits="userSpaceOnUse">
<stop stop-color="white"/>
<stop offset="1" stop-color="#DFD8E7"/>
</linearGradient>
<linearGradient id="paint4_linear_9002_27463" x1="139.011" y1="31.5958" x2="147.565" y2="31.7097" gradientUnits="userSpaceOnUse">
<stop stop-color="white"/>
<stop offset="1" stop-color="#DFD8E7"/>
</linearGradient>
<linearGradient id="paint5_linear_9002_27463" x1="153.37" y1="49.8281" x2="159.678" y2="49.9121" gradientUnits="userSpaceOnUse">
<stop stop-color="white"/>
<stop offset="1" stop-color="#DFD8E7"/>
</linearGradient>
<linearGradient id="paint6_linear_9002_27463" x1="131.13" y1="90.0248" x2="137.369" y2="90.1079" gradientUnits="userSpaceOnUse">
<stop stop-color="white"/>
<stop offset="1" stop-color="#DFD8E7"/>
</linearGradient>
<linearGradient id="paint7_linear_9002_27463" x1="134.05" y1="93.6992" x2="141.272" y2="93.7954" gradientUnits="userSpaceOnUse">
<stop stop-color="white"/>
<stop offset="1" stop-color="#DFD8E7"/>
</linearGradient>
<linearGradient id="paint8_linear_9002_27463" x1="156.155" y1="63.2416" x2="163.376" y2="63.3377" gradientUnits="userSpaceOnUse">
<stop stop-color="white"/>
<stop offset="1" stop-color="#DFD8E7"/>
</linearGradient>
<linearGradient id="paint9_linear_9002_27463" x1="125.253" y1="96.1396" x2="132.475" y2="96.2358" gradientUnits="userSpaceOnUse">
<stop stop-color="white"/>
<stop offset="1" stop-color="#DFD8E7"/>
</linearGradient>
<linearGradient id="paint10_linear_9002_27463" x1="142.422" y1="78.6658" x2="149.634" y2="78.7618" gradientUnits="userSpaceOnUse">
<stop stop-color="white"/>
<stop offset="1" stop-color="#DFD8E7"/>
</linearGradient>
<linearGradient id="paint11_linear_9002_27463" x1="146.061" y1="77.1963" x2="153.282" y2="77.2925" gradientUnits="userSpaceOnUse">
<stop stop-color="white"/>
<stop offset="1" stop-color="#DFD8E7"/>
</linearGradient>
<linearGradient id="paint12_linear_9002_27463" x1="134.632" y1="73.1694" x2="149.337" y2="73.3652" gradientUnits="userSpaceOnUse">
<stop stop-color="white"/>
<stop offset="1" stop-color="#DFD8E7"/>
</linearGradient>
<linearGradient id="paint13_linear_9002_27463" x1="93.988" y1="61.7504" x2="108.692" y2="61.9462" gradientUnits="userSpaceOnUse">
<stop stop-color="white"/>
<stop offset="1" stop-color="#DFD8E7"/>
</linearGradient>
<linearGradient id="paint14_linear_9002_27463" x1="150.501" y1="63.807" x2="157.332" y2="63.8979" gradientUnits="userSpaceOnUse">
<stop stop-color="white"/>
<stop offset="1" stop-color="#DFD8E7"/>
</linearGradient>
<linearGradient id="paint15_linear_9002_27463" x1="73.7051" y1="163.326" x2="84.4142" y2="163.469" gradientUnits="userSpaceOnUse">
<stop stop-color="white"/>
<stop offset="1" stop-color="#DFD8E7"/>
</linearGradient>
<linearGradient id="paint16_linear_9002_27463" x1="87.3457" y1="161.788" x2="96.5254" y2="161.91" gradientUnits="userSpaceOnUse">
<stop stop-color="white"/>
<stop offset="1" stop-color="#DFD8E7"/>
</linearGradient>
<linearGradient id="paint17_linear_9002_27463" x1="94.4216" y1="139.511" x2="103.605" y2="139.633" gradientUnits="userSpaceOnUse">
<stop stop-color="white"/>
<stop offset="1" stop-color="#DFD8E7"/>
</linearGradient>
<linearGradient id="paint18_linear_9002_27463" x1="94.2107" y1="151.965" x2="100.54" y2="152.049" gradientUnits="userSpaceOnUse">
<stop stop-color="white"/>
<stop offset="1" stop-color="#DFD8E7"/>
</linearGradient>
<linearGradient id="paint19_linear_9002_27463" x1="81.6906" y1="161.013" x2="89.8882" y2="161.122" gradientUnits="userSpaceOnUse">
<stop stop-color="white"/>
<stop offset="1" stop-color="#DFD8E7"/>
</linearGradient>
<linearGradient id="paint20_linear_9002_27463" x1="79.6991" y1="167.589" x2="86.875" y2="171.619" gradientUnits="userSpaceOnUse">
<stop stop-color="white"/>
<stop offset="1" stop-color="#DFD8E7"/>
</linearGradient>
<linearGradient id="paint21_linear_9002_27463" x1="69.8542" y1="169.806" x2="77.4617" y2="172.908" gradientUnits="userSpaceOnUse">
<stop stop-color="white"/>
<stop offset="1" stop-color="#DFD8E7"/>
</linearGradient>
<linearGradient id="paint22_linear_9002_27463" x1="66.1004" y1="165.742" x2="75.7184" y2="165.87" gradientUnits="userSpaceOnUse">
<stop stop-color="white"/>
<stop offset="1" stop-color="#DFD8E7"/>
</linearGradient>
<linearGradient id="paint23_linear_9002_27463" x1="101.346" y1="142.902" x2="108.415" y2="142.996" gradientUnits="userSpaceOnUse">
<stop stop-color="white"/>
<stop offset="1" stop-color="#DFD8E7"/>
</linearGradient>
<linearGradient id="paint24_linear_9002_27463" x1="105.726" y1="130.192" x2="112.972" y2="130.288" gradientUnits="userSpaceOnUse">
<stop stop-color="white"/>
<stop offset="1" stop-color="#DFD8E7"/>
</linearGradient>
<linearGradient id="paint25_linear_9002_27463" x1="111.118" y1="111.502" x2="126.941" y2="111.713" gradientUnits="userSpaceOnUse">
<stop stop-color="white"/>
<stop offset="1" stop-color="#DFD8E7"/>
</linearGradient>
<linearGradient id="paint26_linear_9002_27463" x1="43.3681" y1="149.074" x2="49.4607" y2="149.155" gradientUnits="userSpaceOnUse">
<stop stop-color="white"/>
<stop offset="1" stop-color="#DFD8E7"/>
</linearGradient>
<linearGradient id="paint27_linear_9002_27463" x1="46.552" y1="157.596" x2="58.512" y2="162.306" gradientUnits="userSpaceOnUse">
<stop stop-color="white"/>
<stop offset="1" stop-color="#DFD8E7"/>
</linearGradient>
<linearGradient id="paint28_linear_9002_27463" x1="36.0429" y1="150.34" x2="47.9967" y2="155.047" gradientUnits="userSpaceOnUse">
<stop stop-color="white"/>
<stop offset="1" stop-color="#DFD8E7"/>
</linearGradient>
<linearGradient id="paint29_linear_9002_27463" x1="61.5356" y1="167.94" x2="69.9294" y2="168.051" gradientUnits="userSpaceOnUse">
<stop stop-color="white"/>
<stop offset="1" stop-color="#DFD8E7"/>
</linearGradient>
<linearGradient id="paint30_linear_9002_27463" x1="59.9699" y1="157.322" x2="63.1862" y2="165.131" gradientUnits="userSpaceOnUse">
<stop stop-color="white"/>
<stop offset="1" stop-color="#DFD8E7"/>
</linearGradient>
<linearGradient id="paint31_linear_9002_27463" x1="151.645" y1="69.4079" x2="158.328" y2="69.4969" gradientUnits="userSpaceOnUse">
<stop stop-color="white"/>
<stop offset="1" stop-color="#DFD8E7"/>
</linearGradient>
<linearGradient id="paint32_linear_9002_27463" x1="145.452" y1="53.1755" x2="152.136" y2="53.2644" gradientUnits="userSpaceOnUse">
<stop stop-color="white"/>
<stop offset="1" stop-color="#DFD8E7"/>
</linearGradient>
<linearGradient id="paint33_linear_9002_27463" x1="157.107" y1="42.7468" x2="160.806" y2="40.1317" gradientUnits="userSpaceOnUse">
<stop stop-color="white"/>
<stop offset="1" stop-color="#DFD8E7"/>
</linearGradient>
<linearGradient id="paint34_linear_9002_27463" x1="159.969" y1="49.4007" x2="164.334" y2="48.2517" gradientUnits="userSpaceOnUse">
<stop stop-color="white"/>
<stop offset="1" stop-color="#DFD8E7"/>
</linearGradient>
<linearGradient id="paint35_linear_9002_27463" x1="134.245" y1="67.5936" x2="138.211" y2="71.4282" gradientUnits="userSpaceOnUse">
<stop stop-color="white"/>
<stop offset="1" stop-color="#DFD8E7"/>
</linearGradient>
<linearGradient id="paint36_linear_9002_27463" x1="81.7453" y1="85.3945" x2="86.138" y2="86.1775" gradientUnits="userSpaceOnUse">
<stop stop-color="white"/>
<stop offset="1" stop-color="#DFD8E7"/>
</linearGradient>
<linearGradient id="paint37_linear_9002_27463" x1="89.1925" y1="70.6245" x2="93.5973" y2="71.4097" gradientUnits="userSpaceOnUse">
<stop stop-color="white"/>
<stop offset="1" stop-color="#DFD8E7"/>
</linearGradient>
<linearGradient id="paint38_linear_9002_27463" x1="95.2757" y1="60.7049" x2="98.8476" y2="63.4052" gradientUnits="userSpaceOnUse">
<stop stop-color="white"/>
<stop offset="1" stop-color="#DFD8E7"/>
</linearGradient>
<linearGradient id="paint39_linear_9002_27463" x1="87.6135" y1="75.2761" x2="91.5843" y2="79.1148" gradientUnits="userSpaceOnUse">
<stop stop-color="white"/>
<stop offset="1" stop-color="#DFD8E7"/>
</linearGradient>
<linearGradient id="paint40_linear_9002_27463" x1="107.72" y1="45.6841" x2="112.805" y2="47.8016" gradientUnits="userSpaceOnUse">
<stop stop-color="white"/>
<stop offset="1" stop-color="#DFD8E7"/>
</linearGradient>
<linearGradient id="paint41_linear_9002_27463" x1="126.032" y1="83.5551" x2="132.458" y2="85.4166" gradientUnits="userSpaceOnUse">
<stop stop-color="white"/>
<stop offset="1" stop-color="#DFD8E7"/>
</linearGradient>
<linearGradient id="paint42_linear_9002_27463" x1="138.577" y1="57.5307" x2="145.259" y2="57.6196" gradientUnits="userSpaceOnUse">
<stop stop-color="white"/>
<stop offset="1" stop-color="#DFD8E7"/>
</linearGradient>
<linearGradient id="paint43_linear_9002_27463" x1="118.039" y1="35.2429" x2="123.16" y2="39.5751" gradientUnits="userSpaceOnUse">
<stop stop-color="white"/>
<stop offset="1" stop-color="#DFD8E7"/>
</linearGradient>
<linearGradient id="paint44_linear_9002_27463" x1="103.805" y1="53.0348" x2="108.921" y2="57.363" gradientUnits="userSpaceOnUse">
<stop stop-color="white"/>
<stop offset="1" stop-color="#DFD8E7"/>
</linearGradient>
<linearGradient id="paint45_linear_9002_27463" x1="142.566" y1="42.768" x2="147.05" y2="45.6182" gradientUnits="userSpaceOnUse">
<stop stop-color="white"/>
<stop offset="1" stop-color="#DFD8E7"/>
</linearGradient>
<linearGradient id="paint46_linear_9002_27463" x1="117.173" y1="114.797" x2="123.858" y2="114.886" gradientUnits="userSpaceOnUse">
<stop stop-color="white"/>
<stop offset="1" stop-color="#DFD8E7"/>
</linearGradient>
<linearGradient id="paint47_linear_9002_27463" x1="113.921" y1="123.839" x2="119.184" y2="126.169" gradientUnits="userSpaceOnUse">
<stop stop-color="white"/>
<stop offset="1" stop-color="#DFD8E7"/>
</linearGradient>
<linearGradient id="paint48_linear_9002_27463" x1="112.014" y1="133.267" x2="117.285" y2="135.601" gradientUnits="userSpaceOnUse">
<stop stop-color="white"/>
<stop offset="1" stop-color="#DFD8E7"/>
</linearGradient>
<linearGradient id="paint49_linear_9002_27463" x1="104.258" y1="146.204" x2="109.52" y2="148.534" gradientUnits="userSpaceOnUse">
<stop stop-color="white"/>
<stop offset="1" stop-color="#DFD8E7"/>
</linearGradient>
<linearGradient id="paint50_linear_9002_27463" x1="99.3579" y1="155.113" x2="104.173" y2="155.245" gradientUnits="userSpaceOnUse">
<stop stop-color="white"/>
<stop offset="1" stop-color="#DFD8E7"/>
</linearGradient>
<linearGradient id="paint51_linear_9002_27463" x1="121.246" y1="103.78" x2="126.569" y2="103.851" gradientUnits="userSpaceOnUse">
<stop stop-color="white"/>
<stop offset="1" stop-color="#DFD8E7"/>
</linearGradient>
<linearGradient id="paint52_linear_9002_27463" x1="63.0925" y1="166.87" x2="67.2048" y2="174.008" gradientUnits="userSpaceOnUse">
<stop stop-color="white"/>
<stop offset="1" stop-color="#DFD8E7"/>
</linearGradient>
<linearGradient id="paint53_linear_9002_27463" x1="127.745" y1="33.2767" x2="123.88" y2="27.7893" gradientUnits="userSpaceOnUse">
<stop stop-color="white"/>
<stop offset="1" stop-color="#DFD8E7"/>
</linearGradient>
<linearGradient id="paint54_linear_9002_27463" x1="129.882" y1="29.5798" x2="137.615" y2="29.6828" gradientUnits="userSpaceOnUse">
<stop stop-color="white"/>
<stop offset="1" stop-color="#DFD8E7"/>
</linearGradient>
<linearGradient id="paint55_linear_9002_27463" x1="44.5911" y1="158.458" x2="51.7583" y2="162.483" gradientUnits="userSpaceOnUse">
<stop stop-color="white"/>
<stop offset="1" stop-color="#DFD8E7"/>
</linearGradient>
<linearGradient id="paint56_linear_9002_27463" x1="39.6755" y1="149.436" x2="38.7787" y2="157.638" gradientUnits="userSpaceOnUse">
<stop stop-color="white"/>
<stop offset="1" stop-color="#DFD8E7"/>
</linearGradient>
<linearGradient id="paint57_linear_9002_27463" x1="52.7462" y1="161.828" x2="56.8654" y2="168.978" gradientUnits="userSpaceOnUse">
<stop stop-color="white"/>
<stop offset="1" stop-color="#DFD8E7"/>
</linearGradient>
<linearGradient id="paint58_linear_9002_27463" x1="75.3841" y1="78.2439" x2="128.371" y2="112.094" gradientUnits="userSpaceOnUse">
<stop offset="0.0230849" stop-color="#EDEBE6"/>
<stop offset="0.0406732" stop-color="#EFEDE9"/>
<stop offset="0.1592" stop-color="#FBFAF9"/>
<stop offset="0.2506" stop-color="white"/>
<stop offset="0.3639" stop-color="#F9F8F7"/>
<stop offset="0.542" stop-color="#EAE7E0"/>
<stop offset="0.5571" stop-color="#E8E5DE"/>
<stop offset="0.7198" stop-color="#D8C8CB"/>
<stop offset="0.8479" stop-color="#CDA599"/>
</linearGradient>
<linearGradient id="paint59_linear_9002_27463" x1="61.9928" y1="59.7756" x2="124.857" y2="117.797" gradientUnits="userSpaceOnUse">
<stop offset="0.0230849" stop-color="#EDEBE6"/>
<stop offset="0.0406732" stop-color="#EFEDE9"/>
<stop offset="0.1592" stop-color="#FBFAF9"/>
<stop offset="0.2506" stop-color="white"/>
<stop offset="0.3639" stop-color="#F9F8F7"/>
<stop offset="0.542" stop-color="#EAE7E0"/>
<stop offset="0.5571" stop-color="#E8E5DE"/>
<stop offset="0.7198" stop-color="#D8C8CB"/>
<stop offset="0.8479" stop-color="#CDA599"/>
</linearGradient>
<linearGradient id="paint60_linear_9002_27463" x1="112.783" y1="42.1653" x2="31.2561" y2="112.135" gradientUnits="userSpaceOnUse">
<stop stop-color="white"/>
<stop offset="0.3792" stop-color="#775150"/>
<stop offset="0.656" stop-color="#774150"/>
</linearGradient>
<linearGradient id="paint61_linear_9002_27463" x1="66.2372" y1="154.041" x2="120.288" y2="127.51" gradientUnits="userSpaceOnUse">
<stop offset="0.0969587" stop-color="#E3B79E"/>
<stop offset="0.1121" stop-color="#E2B49A"/>
<stop offset="0.2112" stop-color="#DCA185"/>
<stop offset="0.3212" stop-color="#D89476"/>
<stop offset="0.4497" stop-color="#D68C6D"/>
<stop offset="0.6413" stop-color="#D58A6A"/>
<stop offset="0.6966" stop-color="#D18566"/>
<stop offset="0.7612" stop-color="#C4775A"/>
<stop offset="0.8302" stop-color="#B06047"/>
<stop offset="0.8714" stop-color="#A04E39"/>
</linearGradient>
<linearGradient id="paint62_linear_9002_27463" x1="117.603" y1="70.4336" x2="151.273" y2="61.2569" gradientUnits="userSpaceOnUse">
<stop offset="0.0969587" stop-color="#E3B79E"/>
<stop offset="0.1121" stop-color="#E2B49A"/>
<stop offset="0.2112" stop-color="#DCA185"/>
<stop offset="0.3212" stop-color="#D89476"/>
<stop offset="0.4497" stop-color="#D68C6D"/>
<stop offset="0.6413" stop-color="#D58A6A"/>
<stop offset="0.6966" stop-color="#D18566"/>
<stop offset="0.7612" stop-color="#C4775A"/>
<stop offset="0.8302" stop-color="#B06047"/>
<stop offset="0.8714" stop-color="#A04E39"/>
</linearGradient>
<linearGradient id="paint63_linear_9002_27463" x1="121.172" y1="74.7163" x2="151.345" y2="66.4926" gradientUnits="userSpaceOnUse">
<stop offset="0.0969587" stop-color="#E3B79E"/>
<stop offset="0.1121" stop-color="#E2B49A"/>
<stop offset="0.2112" stop-color="#DCA185"/>
<stop offset="0.3212" stop-color="#D89476"/>
<stop offset="0.4497" stop-color="#D68C6D"/>
<stop offset="0.6413" stop-color="#D58A6A"/>
<stop offset="0.6966" stop-color="#D18566"/>
<stop offset="0.7612" stop-color="#C4775A"/>
<stop offset="0.8302" stop-color="#B06047"/>
<stop offset="0.8714" stop-color="#A04E39"/>
</linearGradient>
<linearGradient id="paint64_linear_9002_27463" x1="116.866" y1="58.7943" x2="147.011" y2="50.5782" gradientUnits="userSpaceOnUse">
<stop offset="0.0969587" stop-color="#E3B79E"/>
<stop offset="0.1121" stop-color="#E2B49A"/>
<stop offset="0.2112" stop-color="#DCA185"/>
<stop offset="0.3212" stop-color="#D89476"/>
<stop offset="0.4497" stop-color="#D68C6D"/>
<stop offset="0.6413" stop-color="#D58A6A"/>
<stop offset="0.6966" stop-color="#D18566"/>
<stop offset="0.7612" stop-color="#C4775A"/>
<stop offset="0.8302" stop-color="#B06047"/>
<stop offset="0.8714" stop-color="#A04E39"/>
</linearGradient>
<linearGradient id="paint65_linear_9002_27463" x1="73.4023" y1="151.755" x2="128.438" y2="116.251" gradientUnits="userSpaceOnUse">
<stop offset="0.0969587" stop-color="#E3B79E"/>
<stop offset="0.1121" stop-color="#E2B49A"/>
<stop offset="0.2112" stop-color="#DCA185"/>
<stop offset="0.3212" stop-color="#D89476"/>
<stop offset="0.4497" stop-color="#D68C6D"/>
<stop offset="0.6413" stop-color="#D58A6A"/>
<stop offset="0.6966" stop-color="#D18566"/>
<stop offset="0.7612" stop-color="#C4775A"/>
<stop offset="0.8302" stop-color="#B06047"/>
<stop offset="0.8714" stop-color="#A04E39"/>
</linearGradient>
<linearGradient id="paint66_linear_9002_27463" x1="79.1177" y1="160.556" x2="134.041" y2="125.124" gradientUnits="userSpaceOnUse">
<stop offset="0.0969587" stop-color="#E3B79E"/>
<stop offset="0.1121" stop-color="#E2B49A"/>
<stop offset="0.2112" stop-color="#DCA185"/>
<stop offset="0.3212" stop-color="#D89476"/>
<stop offset="0.4497" stop-color="#D68C6D"/>
<stop offset="0.6413" stop-color="#D58A6A"/>
<stop offset="0.6966" stop-color="#D18566"/>
<stop offset="0.7612" stop-color="#C4775A"/>
<stop offset="0.8302" stop-color="#B06047"/>
<stop offset="0.8714" stop-color="#A04E39"/>
</linearGradient>
<linearGradient id="paint67_linear_9002_27463" x1="59.852" y1="67.3112" x2="117.785" y2="120.781" gradientUnits="userSpaceOnUse">
<stop offset="0.0230849" stop-color="#EDEBE6"/>
<stop offset="0.0406732" stop-color="#EFEDE9"/>
<stop offset="0.1592" stop-color="#FBFAF9"/>
<stop offset="0.2506" stop-color="white"/>
<stop offset="0.3639" stop-color="#F9F8F7"/>
<stop offset="0.542" stop-color="#EAE7E0"/>
<stop offset="0.5571" stop-color="#E8E5DE"/>
<stop offset="0.7198" stop-color="#D8C8CB"/>
<stop offset="0.8479" stop-color="#CDA599"/>
</linearGradient>
<linearGradient id="paint68_linear_9002_27463" x1="77.5103" y1="75.5991" x2="122.838" y2="100.705" gradientUnits="userSpaceOnUse">
<stop stop-color="#33472E"/>
<stop offset="0.153" stop-color="#576C4B"/>
<stop offset="0.4545" stop-color="#33472E"/>
<stop offset="1" stop-color="#2A361E"/>
</linearGradient>
<linearGradient id="paint69_linear_9002_27463" x1="138.366" y1="112.881" x2="119.855" y2="97.4427" gradientUnits="userSpaceOnUse">
<stop offset="0.3423" stop-color="#2A361E"/>
<stop offset="1" stop-color="#10150B"/>
</linearGradient>
<linearGradient id="paint70_linear_9002_27463" x1="78.9185" y1="73.0714" x2="124.23" y2="98.1687" gradientUnits="userSpaceOnUse">
<stop stop-color="#33472E"/>
<stop offset="0.153" stop-color="#576C4B"/>
<stop offset="0.4545" stop-color="#33472E"/>
<stop offset="1" stop-color="#2A361E"/>
</linearGradient>
<linearGradient id="paint71_linear_9002_27463" x1="98.8277" y1="81.5412" x2="146.601" y2="115.043" gradientUnits="userSpaceOnUse">
<stop offset="0.153" stop-color="#576C4B"/>
<stop offset="1" stop-color="#2A361E"/>
</linearGradient>
<linearGradient id="paint72_linear_9002_27463" x1="78.9271" y1="73.0409" x2="124.255" y2="98.1471" gradientUnits="userSpaceOnUse">
<stop stop-color="#33472E"/>
<stop offset="0.153" stop-color="#576C4B"/>
<stop offset="0.4545" stop-color="#33472E"/>
<stop offset="1" stop-color="#2A361E"/>
</linearGradient>
</defs>
</svg>
