<svg width="200" height="200" viewBox="0 0 200 200" fill="none" xmlns="http://www.w3.org/2000/svg">
<path d="M75.8517 67.2621C73.1285 65.3807 69.3399 64.6752 66.1432 64.5576C66.972 65.028 67.9191 65.6159 68.8663 66.2038C74.5493 69.7314 77.5092 71.6127 81.653 76.9041C80.7059 73.2589 79.0483 69.4962 75.8517 67.2621Z" fill="url(#paint0_linear_9002_28266)"/>
<path d="M133.984 128.053C135.168 124.878 136.352 121.704 136.944 118.411C137.536 114.884 138.365 111.356 139.194 107.946C140.022 104.536 141.325 101.126 142.272 97.7161C144.166 91.0138 145.469 84.0762 146.297 77.1387C146.534 75.2573 146.771 73.3759 146.534 71.4946C146.416 69.7308 145.942 68.0846 145.35 66.3208C144.758 64.6746 144.285 63.0284 143.811 61.2646C143.337 60.3239 142.745 59.5009 142.153 58.5602C139.43 54.6798 135.05 51.6226 130.551 48.4478C126.052 45.273 124.039 42.5685 118.356 41.7454C112.673 40.9223 112.081 40.8048 108.884 41.2751C108.292 41.3927 107.819 41.3927 107.345 41.5103C115.041 44.4499 122.855 47.3895 128.893 52.9161C130.787 54.6798 132.327 56.6788 133.866 58.7953C135.642 61.2646 137.299 63.8515 138.246 66.6736C139.075 69.4956 139.312 72.4353 139.194 75.3749C139.075 78.3145 138.838 81.3718 138.01 84.1938C137.181 87.6038 135.997 90.8962 135.287 94.3062C134.576 97.8337 133.747 101.244 132.8 104.654C130.906 111.474 128.656 118.294 125.815 124.878C122.973 131.463 119.658 137.813 116.698 144.28C115.159 147.572 113.738 150.747 112.436 154.157C112.318 154.392 112.318 154.51 112.199 154.745C113.975 157.097 115.159 158.508 115.159 158.508C115.751 158.625 116.698 158.273 118.593 157.332C120.25 156.509 123.092 155.215 127.236 153.687C128.064 148.278 129.012 142.869 130.551 137.578C131.616 134.52 132.8 131.346 133.984 128.053Z" fill="url(#paint1_linear_9002_28266)"/>
<path d="M96.4529 85.2518C97.0448 83.488 97.4 81.7242 97.7552 79.9604C98.1104 78.079 98.4656 76.1977 98.3472 74.3163C98.2288 68.3195 95.1505 63.0281 89.2307 60.9116C85.7972 59.7357 82.2454 59.1478 78.6935 58.4423C75.0232 57.7368 71.4713 56.9137 67.8011 56.5609C65.6699 56.3257 63.5388 56.3257 61.2893 56.5609C59.7502 56.6785 58.211 56.7961 56.5535 56.6785C54.6591 56.6785 52.7648 57.0312 50.8705 57.1488C50.7521 57.1488 50.7521 57.1488 50.6337 57.1488C53.2384 58.2071 55.8431 59.2654 58.5662 60.5588C67.3275 60.3236 76.444 59.5005 83.5477 65.7326C86.9812 68.6722 88.0468 73.846 88.1652 78.079C88.2836 80.5483 88.1652 83.2528 87.6916 85.8397C91.2435 91.2486 92.309 93.6003 93.2562 99.5972C93.493 98.3038 93.7298 97.0103 94.0849 95.8345C94.7953 92.4245 95.2689 88.6617 96.4529 85.2518Z" fill="url(#paint2_linear_9002_28266)"/>
<path d="M141.325 140.047C142.39 134.168 143.219 128.171 145.35 122.527C146.416 119.705 147.718 117 149.02 114.296C150.323 111.474 151.507 108.769 152.691 105.947C154.111 102.537 155.414 99.1272 156.479 95.7172C156.124 94.3062 155.532 91.3666 154.466 88.1918C152.927 83.4883 151.743 81.1366 149.967 77.1387C148.902 74.787 148.428 73.6112 148.073 72.4353C148.191 74.6694 147.836 76.9036 147.481 79.1377C147.126 81.4894 146.771 83.9587 146.297 86.3104C145.705 89.7204 144.995 93.0128 144.048 96.4227C143.1 99.8327 141.916 103.125 140.969 106.535C140.022 109.945 139.43 113.59 138.601 117C137.891 120.293 137.062 123.585 135.878 126.76C133.51 133.345 131.379 139.812 130.077 146.632C129.603 148.866 129.248 151.218 128.893 153.452C132.208 152.393 136.115 151.218 140.851 150.159C140.614 149.219 140.377 148.16 140.377 147.102C140.377 144.75 140.969 142.399 141.325 140.047Z" fill="url(#paint3_linear_9002_28266)"/>
<path d="M108.292 104.654C109.95 97.3636 111.371 90.0733 112.91 82.783C113.738 79.1378 114.567 75.6103 115.159 71.9651C115.751 68.4375 115.514 64.91 114.212 61.5C113.265 58.7955 111.844 56.4438 109.476 54.7976C107.345 53.269 104.74 52.4459 102.136 51.858C96.0975 50.447 89.7041 49.9766 83.5475 50.0942C79.7588 50.0942 75.8518 50.3294 72.0631 50.5645C68.748 50.6821 65.4329 50.7997 61.9994 51.2701C58.566 51.7404 55.1325 52.3283 51.8174 53.5042C49.8047 54.2097 47.9103 55.1504 46.016 55.8559C46.4896 55.9735 46.9632 55.9735 47.4367 56.0911C48.2655 55.8559 49.0943 55.5031 49.9231 55.268C52.0542 54.5625 54.1853 53.8569 56.4348 53.3866C58.566 52.7987 60.9339 52.3283 63.1834 52.4459C65.5513 52.6811 68.0376 53.0338 70.4055 53.5042C75.3782 54.4449 80.3508 55.5031 85.3234 56.3262C88.9937 56.9142 92.7824 57.2669 96.0975 58.6779C101.425 60.9121 104.504 65.7331 106.279 71.142C107.227 74.0816 107.7 77.1389 107.7 80.0785C107.7 83.3709 106.99 86.5457 106.043 89.7205C103.912 96.5405 102.728 103.713 101.662 110.886C101.425 112.767 101.188 114.649 100.952 116.53C100.715 118.294 100.241 119.94 100.123 121.704C100.005 123.585 100.005 125.584 99.6493 127.465C99.5309 127.936 99.5309 128.406 99.5309 128.876C100.36 131.463 101.307 133.933 102.254 136.402C102.609 132.992 102.846 129.582 103.32 126.172C104.504 118.882 106.635 111.827 108.292 104.654Z" fill="url(#paint4_linear_9002_28266)"/>
<path d="M108.766 136.167C110.423 131.228 113.265 126.76 114.804 121.821C116.343 116.765 117.764 111.591 119.185 106.535C120.487 101.244 121.553 95.9523 122.618 90.5434C123.329 86.8983 124.157 83.2531 124.749 79.6079C125.341 76.3156 125.933 72.9056 125.815 69.6132C125.46 63.3812 122.855 56.5612 117.409 53.0336C114.449 51.1523 110.779 50.5643 107.582 49.3885C105.806 48.683 103.912 47.8599 102.017 47.3895C100.241 46.9192 98.4655 46.684 96.6895 46.4488C93.0192 45.9785 89.349 45.273 85.6787 44.9202C84.8499 44.8026 84.1396 44.8026 83.3108 44.6851C76.5622 46.2137 71.3528 45.6257 63.4203 47.6247C55.251 49.7412 49.0944 51.6226 45.3057 53.504C43.7666 54.3271 41.8722 55.1502 39.8595 56.0909C41.2802 55.8557 42.5826 55.6205 43.885 55.7381C46.0161 55.0326 47.9104 54.0919 50.0415 53.2688C56.3165 50.9171 63.0651 50.4467 69.8137 49.9764C77.0358 49.5061 84.3763 49.0357 91.7169 49.6236C96.6895 50.094 102.017 50.6819 106.753 52.5633C108.884 53.3864 110.897 54.5622 112.555 56.2084C114.449 58.2074 115.633 61.0294 116.343 63.6163C117.172 66.9087 117.054 70.2011 116.462 73.6111C115.751 77.2562 114.922 80.9014 114.094 84.5465C112.555 91.8368 111.134 99.1271 109.358 106.417C107.7 113.473 105.451 120.528 104.504 127.818C104.03 131.581 103.793 135.461 103.32 139.224C104.267 141.458 105.332 143.574 106.398 145.573C106.516 145.103 106.635 144.633 106.753 144.162C107.464 141.458 107.819 138.753 108.766 136.167Z" fill="url(#paint5_linear_9002_28266)"/>
<path d="M99.1758 118.764C99.8862 114.413 100.36 110.063 101.07 105.712C101.78 101.479 102.372 97.0108 103.556 92.8953C104.622 89.015 106.161 85.2523 106.28 81.2544C106.516 75.0223 104.859 67.9672 100.833 63.0286C96.9263 58.2076 90.7697 57.8549 84.9683 56.7966C81.298 56.0911 77.6277 55.3856 73.9575 54.68C72.0631 54.3273 70.1688 53.9745 68.2745 53.6218C66.4985 53.3866 64.6042 52.9163 62.7099 52.9163C59.158 53.0338 55.3693 54.0921 51.9358 55.268C50.9887 55.6207 49.9231 55.9735 48.8575 56.3262C49.4495 56.4438 50.0415 56.4438 50.6335 56.4438C51.699 56.3262 52.883 56.0911 53.9486 55.9735C56.3165 55.7383 58.6844 56.0911 61.0523 55.8559C68.1561 55.1504 75.023 57.0318 81.89 58.2076C87.573 59.2659 93.9664 60.5593 97.1631 65.8507C100.597 71.3772 99.531 78.4323 97.755 84.4292C97.1631 86.193 96.6895 87.8391 96.4527 89.6029C96.0975 91.3667 95.7423 93.1305 95.3871 94.8943C94.7951 97.7163 94.2032 100.656 93.6112 103.478C93.6112 103.713 93.6112 103.831 93.7296 104.066C94.5583 111.003 96.0975 118.294 98.347 125.584C98.347 125.466 98.347 125.349 98.347 125.231C98.7022 123.115 98.8206 120.998 99.1758 118.764Z" fill="url(#paint6_linear_9002_28266)"/>
<path d="M122.263 130.052C127.472 118.764 131.38 107.006 133.984 94.8943C134.695 91.4844 135.76 88.192 136.707 84.782C137.536 81.4896 137.891 78.0796 138.01 74.7872C138.01 71.3772 137.655 67.9673 136.234 64.7925C134.813 61.8528 132.919 59.0308 130.788 56.4439C124.631 48.8008 115.159 45.3908 106.161 41.8633C104.03 42.0985 102.136 42.3336 100.123 42.216C97.5183 42.216 91.5986 42.6864 84.9684 44.215C87.0995 44.4502 89.349 44.6853 91.4802 45.0381C94.4401 45.5084 97.4 45.8612 100.241 46.4491C102.965 46.9195 105.569 48.0953 108.174 49.036C110.897 50.0943 113.857 50.6822 116.462 51.858C118.593 52.7987 120.369 54.4449 121.908 56.2087C124.986 59.9714 126.762 64.5573 126.999 69.4959C127.117 72.9059 126.644 76.1982 126.052 79.4906C125.46 83.1358 124.631 86.7809 123.921 90.4261C122.5 97.7164 121.079 104.889 118.948 111.944C118.001 115.354 117.054 118.764 115.988 122.174C114.923 125.584 113.265 128.641 111.844 131.816C110.423 135.109 109.476 138.401 108.648 141.929C108.174 143.692 107.582 145.339 107.227 147.102V147.22C108.648 149.689 110.068 151.923 111.371 153.805C112.318 151.453 113.265 149.101 114.331 146.867C116.935 141.105 119.658 135.697 122.263 130.052Z" fill="url(#paint7_linear_9002_28266)"/>
<path d="M161.689 141.341C162.281 137.813 164.767 135.109 167.135 132.404C169.148 130.053 171.279 127.466 171.871 124.291C172.107 123.35 172.107 122.292 172.107 121.351C169.976 119.117 167.49 116.883 165.359 114.179C162.517 120.293 160.623 126.878 158.018 133.11C156.834 136.05 155.058 138.636 153.874 141.576C153.164 143.575 153.046 145.456 153.401 147.455C156.479 146.867 159.439 146.28 162.399 145.692C161.807 144.281 161.452 142.87 161.689 141.341Z" fill="url(#paint8_linear_9002_28266)"/>
<path d="M86.8623 78.3142C86.7439 74.1987 85.9151 69.0249 82.6 66.0853C78.8114 62.6753 74.1939 61.2643 69.1029 60.9115C65.9062 60.7939 62.8279 60.9115 59.6312 61.0291C61.4072 61.8522 63.1831 62.9105 65.0774 63.9687C66.143 63.9687 67.327 63.9687 68.3925 64.2039C71.4708 64.6742 75.0227 65.3797 77.509 67.3787C80.9425 70.2008 82.7184 74.7866 83.3104 79.3724C83.9024 80.3131 84.6128 81.2538 85.3231 82.3121C85.7967 83.0176 86.1519 83.6055 86.5071 84.1934C86.8623 82.1945 86.9807 80.1955 86.8623 78.3142Z" fill="url(#paint9_linear_9002_28266)"/>
<path d="M181.106 134.168C180.632 133.345 180.158 132.639 179.685 131.934C178.264 134.756 175.304 136.99 175.067 140.4C174.949 141.576 174.949 142.634 175.067 143.81C178.619 143.339 181.461 142.987 181.579 142.869C181.934 142.634 183 140.517 183 140.517C183 140.517 182.526 137.107 181.106 134.168Z" fill="url(#paint10_linear_9002_28266)"/>
<path d="M173.647 139.93C174.239 136.402 177.554 133.933 178.738 130.758C177.672 129.465 176.488 128.053 175.186 125.584C174.712 124.761 174.12 123.82 173.41 122.997C173.41 123.468 173.291 123.938 173.291 124.526C172.699 127.466 171.042 129.935 169.148 132.169C166.898 134.873 163.701 137.695 163.109 141.458C162.873 142.869 163.109 144.28 163.583 145.691C166.543 145.103 170.213 144.515 173.41 144.163C173.41 142.634 173.41 141.223 173.647 139.93Z" fill="url(#paint11_linear_9002_28266)"/>
<path d="M152.335 141.692C153.519 138.635 155.295 135.931 156.479 132.874C159.084 126.289 161.215 119.351 164.175 113.002C163.82 112.531 163.465 111.943 163.109 111.473C159.558 105.594 158.255 100.067 157.071 97.5979C156.124 100.302 155.177 103.007 153.993 105.594C152.809 108.416 151.625 111.238 150.323 113.942C149.02 116.764 147.6 119.586 146.534 122.526C144.64 128.053 143.574 133.932 142.627 139.694C142.272 142.045 141.68 144.397 141.68 146.866C141.68 147.924 141.798 148.983 142.035 149.923C145.587 149.1 148.902 148.395 151.862 147.807C151.625 145.808 151.625 143.809 152.335 141.692Z" fill="url(#paint12_linear_9002_28266)"/>
<path opacity="0.8" d="M181.106 134.167C180.632 133.344 180.158 132.639 179.685 131.933C179.448 131.581 179.093 131.228 178.738 130.757C177.672 129.464 176.488 128.053 175.186 125.584C174.712 124.761 174.12 123.82 173.41 122.997C172.936 122.527 172.463 121.939 171.989 121.468C169.858 119.234 167.372 117 165.241 114.296C164.885 113.943 164.649 113.472 164.293 113.12C163.938 112.649 163.583 112.061 163.228 111.591C159.676 105.712 158.374 100.185 157.19 97.716C157.071 97.3632 156.834 97.0105 156.716 96.7753C156.716 96.7753 156.598 96.4225 156.479 95.717C156.124 94.306 155.532 91.3664 154.467 88.1916C152.927 83.4881 151.743 81.1364 149.968 77.1385C148.902 74.7868 148.428 73.611 148.073 72.4351C147.836 71.612 147.6 70.7889 147.244 69.4955C146.534 67.1438 145.587 64.3217 144.048 61.3821C143.574 60.4414 142.982 59.6183 142.39 58.6776C139.667 54.7973 135.286 51.7401 130.787 48.5652C126.288 45.3904 124.276 42.686 118.593 41.8629C112.91 41.0398 112.318 40.9222 109.121 41.3925C108.529 41.5101 108.055 41.5101 107.582 41.6277C107.108 41.7453 106.753 41.7453 106.398 41.7453C104.267 41.9805 102.372 42.2156 100.36 42.098C97.5182 42.2156 91.5984 42.686 84.9682 44.2146C84.613 44.3322 84.2578 44.3322 83.9026 44.4498C83.6658 44.5673 83.429 44.5673 83.1923 44.5673C76.4437 46.0959 71.2343 45.508 63.3017 47.507C55.1324 49.6235 48.9758 51.5049 45.1872 53.3863C43.648 54.2093 41.7537 55.0324 39.741 55.9731C41.1617 55.738 42.4641 55.5028 43.7664 55.6204C44.4768 55.6204 45.1872 55.738 45.8976 55.8555C46.3711 55.9731 46.8447 55.9731 47.3183 56.0907C47.6735 56.2083 48.0287 56.3259 48.5023 56.4435C48.6207 56.4435 48.8574 56.4435 48.9758 56.5611H48.8574C49.2126 56.6786 49.6862 56.7962 50.1598 57.0314C50.3966 57.149 50.515 57.149 50.7518 57.2666C53.3565 58.3248 55.9612 59.3831 58.6843 60.6765C59.0395 60.7941 59.3947 61.0293 59.7499 61.2645C61.5258 62.0876 63.3017 63.1458 65.1961 64.2041C65.5513 64.4393 65.7881 64.5569 66.1432 64.792C66.972 65.2624 67.9192 65.8503 68.8664 66.4382C74.5494 69.9658 77.5093 71.8472 81.6531 77.1385C82.2451 77.844 82.8371 78.6671 83.429 79.4902C84.021 80.4309 84.7314 81.3716 85.4418 82.4299C85.9154 83.1354 86.2705 83.7233 86.6257 84.3112C86.9809 84.8992 87.4545 85.4871 87.8097 86.075C91.3616 91.4839 92.4271 93.8357 93.3743 99.8325C93.4927 101.008 93.7295 102.302 93.8479 103.713C93.8479 103.948 93.8479 104.066 93.9663 104.301C94.795 111.238 96.3342 118.529 98.5837 125.819C98.9389 126.877 99.2941 127.935 99.5309 128.994C100.36 131.581 101.307 134.05 102.254 136.519C102.609 137.46 102.964 138.283 103.32 139.224C104.267 141.458 105.332 143.574 106.398 145.573C106.753 146.161 106.99 146.749 107.345 147.337C108.766 149.806 110.187 152.04 111.489 153.922C111.844 154.392 112.081 154.863 112.436 155.215C114.212 157.567 115.396 158.978 115.396 158.978C115.988 159.096 116.935 158.743 118.829 157.802C120.487 156.979 123.328 155.686 127.472 154.157C127.946 154.039 128.419 153.804 129.011 153.687C132.327 152.628 136.234 151.453 140.969 150.394C141.088 150.394 141.206 150.394 141.325 150.277C141.68 150.159 142.035 150.159 142.272 150.042C145.824 149.218 149.139 148.513 152.099 147.925C152.572 147.807 152.927 147.807 153.401 147.69C156.479 147.102 159.439 146.514 162.399 145.926C162.518 145.926 162.754 145.808 162.873 145.808C163.109 145.808 163.346 145.691 163.583 145.691C166.543 145.103 170.213 144.515 173.41 144.162C173.883 144.045 174.357 144.045 174.831 143.927C178.383 143.457 181.224 143.104 181.342 142.986C181.698 142.751 182.763 140.635 182.763 140.635C182.763 140.635 182.526 137.107 181.106 134.167ZM92.7823 93.8357C91.7168 90.0729 89.2304 86.3102 88.8753 84.8992C88.5201 83.4881 89.9408 79.2551 89.2304 73.7285C87.9281 61.97 73.6022 59.5007 66.4984 59.7359C63.6569 59.8535 61.881 59.7359 60.1051 59.8535C58.3291 59.8535 59.0395 59.5007 56.79 58.56C54.5404 57.5017 55.8428 57.3842 61.4074 57.149C66.972 56.9138 73.3654 57.3842 85.9154 60.559C98.4653 63.7338 97.8733 73.7285 95.8606 82.9002C93.9663 92.0719 93.9663 97.5984 92.7823 93.8357ZM96.9262 115.824C95.8606 109.71 94.5583 106.182 94.9134 104.536C95.2686 102.89 97.3998 94.1884 99.1757 87.1333C101.07 80.1957 100.952 75.022 100.36 71.3768C99.6493 67.4965 99.2941 65.9679 95.7422 62.5579C92.0719 59.2655 85.3234 58.3248 77.746 56.7962C70.1687 55.2676 66.0248 54.5621 62.3546 54.6797C58.6843 54.6797 53.1197 55.8555 58.0923 54.3269C63.065 52.7983 67.2088 53.739 72.7734 54.7973C78.338 55.8555 91.1248 58.3248 93.1375 59.0304C95.1502 59.7359 102.964 61.7348 104.385 72.4351C105.924 83.1354 103.201 86.1926 100.952 96.0698C98.7021 106.065 98.1101 121.939 96.9262 115.824ZM102.017 132.286C101.78 130.875 100.241 128.288 100.478 125.231C101.78 111.709 104.148 99.9501 106.043 93.2477C108.055 86.5454 109.713 82.7826 108.174 71.7296C106.753 59.5007 101.899 57.0314 91.5984 55.738C81.4163 54.3269 75.1413 53.3863 70.6423 52.4456C67.4456 51.7401 62.8282 51.7401 68.9847 51.5049C75.1413 51.1521 90.1776 49.8587 102.728 52.7983C115.396 55.738 114.567 63.9689 113.028 77.1385C111.489 90.1905 109.358 97.8336 105.806 111.003C102.254 124.173 102.372 133.697 102.017 132.286ZM106.398 142.398C106.279 142.869 104.504 140.4 104.622 138.518C104.74 130.64 107.582 118.881 109.595 110.886C111.607 102.89 117.409 83.7233 118.119 70.7889C118.829 57.8545 114.094 54.2093 108.174 52.328C102.254 50.4466 99.0573 49.2708 92.1903 48.918C85.205 48.5652 77.3909 49.1532 67.8008 49.3883C58.2107 49.6235 58.6843 49.8587 62.3546 48.8004C66.6168 47.6246 73.4838 46.919 76.7989 46.4487C80.114 46.0959 84.7314 45.0377 86.8625 45.3904C88.9937 45.7432 98.7021 46.919 103.675 48.8004C108.647 50.6818 114.33 51.7401 118.711 55.3852C123.21 59.0304 126.525 69.2603 123.802 79.4902C121.079 89.7202 117.764 106.888 115.278 116.294C112.791 125.584 110.068 128.759 108.411 134.285C106.753 139.812 106.516 142.046 106.398 142.398ZM111.489 150.277C111.489 150.277 108.766 147.572 108.411 146.632C108.411 146.632 109.95 139.459 112.91 132.521C115.751 125.466 117.882 119.94 119.895 111.356C121.789 102.772 127.591 86.7805 128.064 73.9637C128.538 61.1469 124.512 53.5038 116.343 50.7994C113.857 49.9763 110.542 49.0356 107.937 47.8597C105.332 46.6839 102.017 46.4487 98.8205 45.8608C95.7422 45.1553 89.5856 44.2146 90.0592 44.097C91.3616 43.8618 98.5837 42.8036 102.254 42.9211C105.924 43.0387 106.043 42.4508 106.871 42.686C107.7 42.9211 118.001 47.3894 121.434 49.1532C124.868 50.917 129.959 55.3852 133.984 61.6172C138.01 67.8493 139.075 76.3154 133.984 92.6598C128.893 109.004 126.644 120.057 120.25 132.639C113.62 144.985 111.489 150.277 111.489 150.277ZM126.525 151.57C126.525 152.864 122.026 152.981 118.237 155.686C114.449 158.39 113.738 154.392 116.935 147.807V147.572C116.935 147.572 123.802 134.403 127.472 125.466C131.024 117.118 131.853 113.943 134.458 103.595C136.115 97.1281 137.299 93.2477 139.43 83.253C141.561 73.2582 142.39 65.1448 134.458 57.2666C126.644 49.5059 122.5 47.2718 116.106 44.6849C112.081 43.0387 113.502 43.6267 117.409 43.1563C121.434 42.686 126.407 46.2135 133.747 51.8576C139.667 56.4435 148.428 63.8514 144.995 78.7847C140.022 99.9501 139.075 104.536 137.418 110.415C135.76 116.177 137.062 118.293 132.208 128.994C127.472 139.576 126.525 150.277 126.525 151.57ZM139.904 142.516C138.483 148.866 139.904 147.572 136.115 148.983C132.327 150.394 131.379 150.982 131.735 148.983C132.09 146.984 131.853 140.517 135.405 130.875C138.957 121.351 139.785 118.293 141.206 110.886C142.627 103.478 147.6 93.1301 148.902 78.5495C149.02 76.9033 149.257 78.432 150.915 82.665C152.572 86.8981 153.638 92.5422 154.111 95.0115C154.585 97.4808 155.059 97.8336 148.073 112.414C140.969 126.995 141.206 136.166 139.904 142.516ZM152.335 137.342C149.849 142.751 150.678 143.457 150.796 145.808C150.915 148.043 150.086 147.219 145.232 148.395C142.509 149.101 142.627 149.571 142.745 147.219C142.864 144.868 143.929 137.577 145.35 131.345C147.008 123.938 147.363 123.82 151.743 114.178C156.124 104.536 157.19 100.538 157.545 102.89C158.018 105.241 160.978 109.475 162.162 111.473C163.465 113.472 162.044 112.767 159.084 120.41C156.243 127.935 154.822 131.933 152.335 137.342ZM161.215 143.339C161.57 145.221 156.834 145.338 154.348 146.161C154.348 146.161 153.046 143.104 156.006 138.165C158.966 133.227 159.794 132.051 161.689 126.642C162.873 123.232 165.004 117.588 165.241 116.53C165.477 115.471 166.661 118.881 167.845 119.822C169.029 120.763 170.924 121.821 170.924 122.879C170.924 123.938 169.029 128.759 165.241 133.109C161.334 137.46 160.505 140.4 161.215 143.339ZM172.818 138.988C172.226 140.87 172.344 142.986 172.344 142.986C172.344 142.986 167.372 143.574 165.241 143.927C164.53 144.045 163.109 141.575 164.53 138.988C165.951 136.402 166.188 136.284 167.253 135.343C169.621 133.109 173.41 127.583 173.883 126.289C174.357 124.996 174.949 127.818 175.778 128.876C176.607 129.934 177.909 130.522 177.554 131.345C177.08 132.169 173.292 137.107 172.818 138.988ZM178.146 142.516C175.423 143.104 174.357 142.986 176.488 138.165C177.435 136.049 179.566 132.874 179.566 132.874C179.566 132.874 180.277 134.05 181.579 137.813C182.882 141.575 180.987 141.928 178.146 142.516Z" fill="url(#paint13_linear_9002_28266)"/>
<path opacity="0.8" d="M181.106 134.167C180.632 133.344 180.158 132.639 179.685 131.933C179.448 131.581 179.093 131.228 178.738 130.757C177.672 129.464 176.488 128.053 175.186 125.584C174.712 124.761 174.12 123.82 173.41 122.997C172.936 122.527 172.463 121.939 171.989 121.468C169.858 119.234 167.372 117 165.241 114.296C164.885 113.943 164.649 113.472 164.293 113.12C163.938 112.649 163.583 112.061 163.228 111.591C159.676 105.712 158.374 100.185 157.19 97.716C157.071 97.3632 156.834 97.0105 156.716 96.7753C156.716 96.7753 156.598 96.4225 156.479 95.717C156.124 94.306 155.532 91.3664 154.467 88.1916C152.927 83.4881 151.743 81.1364 149.968 77.1385C148.902 74.7868 148.428 73.611 148.073 72.4351C147.836 71.612 147.6 70.7889 147.244 69.4955C146.534 67.1438 145.587 64.3217 144.048 61.3821C143.574 60.4414 142.982 59.6183 142.39 58.6776C139.667 54.7973 135.286 51.7401 130.787 48.5652C126.288 45.3904 124.276 42.686 118.593 41.8629C112.91 41.0398 112.318 40.9222 109.121 41.3925C108.529 41.5101 108.055 41.5101 107.582 41.6277C107.108 41.7453 106.753 41.7453 106.398 41.7453C104.267 41.9805 102.372 42.2156 100.36 42.098C97.5182 42.2156 91.5984 42.686 84.9682 44.2146C84.613 44.3322 84.2578 44.3322 83.9026 44.4498C83.6658 44.5673 83.429 44.5673 83.1923 44.5673C76.4437 46.0959 71.2343 45.508 63.3017 47.507C55.1324 49.6235 48.9758 51.5049 45.1872 53.3863C43.648 54.2093 41.7537 55.0324 39.741 55.9731C41.1617 55.738 42.4641 55.5028 43.7664 55.6204C44.4768 55.6204 45.1872 55.738 45.8976 55.8555C46.3711 55.9731 46.8447 55.9731 47.3183 56.0907C47.6735 56.2083 48.0287 56.3259 48.5023 56.4435C48.6207 56.4435 48.8574 56.4435 48.9758 56.5611H48.8574C49.2126 56.6786 49.6862 56.7962 50.1598 57.0314C50.3966 57.149 50.515 57.149 50.7518 57.2666C53.3565 58.3248 55.9612 59.3831 58.6843 60.6765C59.0395 60.7941 59.3947 61.0293 59.7499 61.2645C61.5258 62.0876 63.3017 63.1458 65.1961 64.2041C65.5513 64.4393 65.7881 64.5569 66.1432 64.792C66.972 65.2624 67.9192 65.8503 68.8664 66.4382C74.5494 69.9658 77.5093 71.8472 81.6531 77.1385C82.2451 77.844 82.8371 78.6671 83.429 79.4902C84.021 80.4309 84.7314 81.3716 85.4418 82.4299C85.9154 83.1354 86.2705 83.7233 86.6257 84.3112C86.9809 84.8992 87.4545 85.4871 87.8097 86.075C91.3616 91.4839 92.4271 93.8357 93.3743 99.8325C93.4927 101.008 93.7295 102.302 93.8479 103.713C93.8479 103.948 93.8479 104.066 93.9663 104.301C94.795 111.238 96.3342 118.529 98.5837 125.819C98.9389 126.877 99.2941 127.935 99.5309 128.994C100.36 131.581 101.307 134.05 102.254 136.519C102.609 137.46 102.964 138.283 103.32 139.224C104.267 141.458 105.332 143.574 106.398 145.573C106.753 146.161 106.99 146.749 107.345 147.337C108.766 149.806 110.187 152.04 111.489 153.922C111.844 154.392 112.081 154.863 112.436 155.215C114.212 157.567 115.396 158.978 115.396 158.978C115.988 159.096 116.935 158.743 118.829 157.802C120.487 156.979 123.328 155.686 127.472 154.157C127.946 154.039 128.419 153.804 129.011 153.687C132.327 152.628 136.234 151.453 140.969 150.394C141.088 150.394 141.206 150.394 141.325 150.277C141.68 150.159 142.035 150.159 142.272 150.042C145.824 149.218 149.139 148.513 152.099 147.925C152.572 147.807 152.927 147.807 153.401 147.69C156.479 147.102 159.439 146.514 162.399 145.926C162.518 145.926 162.754 145.808 162.873 145.808C163.109 145.808 163.346 145.691 163.583 145.691C166.543 145.103 170.213 144.515 173.41 144.162C173.883 144.045 174.357 144.045 174.831 143.927C178.383 143.457 181.224 143.104 181.342 142.986C181.698 142.751 182.763 140.635 182.763 140.635C182.763 140.635 182.526 137.107 181.106 134.167Z" fill="url(#paint14_radial_9002_28266)"/>
<path d="M109.358 106.3C111.134 99.0101 112.436 91.7198 114.094 84.4295C114.923 80.7843 115.633 77.1392 116.462 73.494C117.172 70.0841 117.29 66.9092 116.343 63.4993C115.633 60.7948 114.449 58.0903 112.555 56.0914C111.015 54.4452 108.884 53.3869 106.753 52.4462C102.017 50.5649 96.8079 49.8593 91.7169 49.5066C84.3764 49.0362 77.0358 49.5066 69.6953 49.9769C63.0651 50.3297 56.3166 50.8 49.9232 53.2693C47.7921 54.0924 45.8977 54.9155 43.7666 55.7386C44.477 55.7386 45.1874 55.8562 45.8977 55.9738C47.7921 55.2683 49.6864 54.3276 51.6991 53.6221C55.0142 52.4462 58.4477 51.8583 61.8812 51.388C65.1963 51.0352 68.6297 50.8 72.0632 50.5649C75.8519 50.3297 79.7589 50.0945 83.5476 50.0945C89.8226 49.9769 96.216 50.3297 102.254 51.7407C104.859 52.3286 107.345 53.2693 109.595 54.6804C111.963 56.3265 113.383 58.6783 114.331 61.3827C115.633 64.7927 115.87 68.2027 115.278 71.8478C114.686 75.493 113.857 79.1381 113.028 82.6657C111.489 89.956 110.068 97.2463 108.411 104.537C106.635 111.827 104.504 118.882 103.32 126.172C102.728 129.582 102.609 132.992 102.254 136.402C102.609 137.343 102.965 138.166 103.32 139.107C103.912 135.344 104.03 131.464 104.504 127.701C105.451 120.411 107.582 113.356 109.358 106.3Z" fill="url(#paint15_linear_9002_28266)"/>
<path d="M96.6896 89.7219C97.0448 87.9581 97.5184 86.3119 97.992 84.5481C99.8863 78.5513 100.833 71.6137 97.4 65.9696C94.2033 60.6783 87.8099 59.3848 82.1269 58.3265C75.26 57.1507 68.2746 55.1517 61.2892 55.9748C58.9213 56.21 56.5534 55.9748 54.1855 56.0924C53.1199 56.21 52.0544 56.4452 50.8704 56.5628C50.2784 56.5628 49.6864 56.5628 49.0945 56.4452H48.9761C49.3313 56.5628 49.8048 56.6804 50.2784 56.9155C50.5152 57.0331 50.6336 57.0331 50.8704 57.1507C50.9888 57.1507 50.9888 57.1507 51.1072 57.1507C53.0015 57.0331 54.8959 56.6804 56.7902 56.6804C58.3293 56.6804 59.8685 56.6804 61.526 56.5628C63.6572 56.3276 65.7883 56.4452 68.0378 56.5628C71.7081 56.9155 75.3784 57.7386 78.9302 58.4441C82.4821 59.1496 86.034 59.62 89.4675 60.9134C95.2689 63.03 98.3472 68.3213 98.5839 74.3182C98.7023 76.1995 98.3472 78.1985 97.992 79.9623C97.6368 81.7261 97.2816 83.6074 96.6896 85.2536C95.5057 88.6636 95.0321 92.3088 94.3217 95.8363C94.0849 97.1298 93.8481 98.4232 93.4929 99.5991C93.6113 100.775 93.8481 102.068 93.9665 103.479C94.5585 100.657 95.1505 97.7177 95.7424 94.8956C95.9792 93.2494 96.3344 91.4857 96.6896 89.7219Z" fill="url(#paint16_linear_9002_28266)"/>
<path d="M100.123 121.705C100.242 119.941 100.715 118.295 100.952 116.531C101.189 114.65 101.426 112.768 101.662 110.887C102.728 103.832 103.912 96.659 106.043 89.7215C106.99 86.5466 107.701 83.3718 107.701 80.0794C107.701 77.0222 107.109 73.965 106.28 71.1429C104.622 65.734 101.544 60.913 96.0977 58.6789C92.6642 57.2679 88.8756 56.9151 85.3237 56.3272C80.3511 55.5041 75.3784 54.3282 70.4058 53.5051C68.0379 53.0348 65.67 52.682 63.1837 52.4468C60.9341 52.3293 58.6846 52.7996 56.4351 53.3875C54.1856 53.9755 52.0544 54.5634 49.9233 55.2689C49.0946 55.5041 48.2658 55.8568 47.437 56.092C47.7922 56.2096 48.1474 56.3272 48.621 56.4448C48.7394 56.4448 48.9762 56.4448 49.0946 56.5623C50.1601 56.2096 51.1073 55.8568 52.1728 55.5041C55.6063 54.3282 59.2766 53.1524 62.9469 53.1524C64.7228 53.1524 66.7355 53.5051 68.5115 53.8579C70.4058 54.2106 72.3001 54.5634 74.1945 54.9161C77.8647 55.6217 81.535 56.3272 85.2053 57.0327C90.8883 58.091 97.1633 58.4437 101.07 63.2647C105.096 68.2033 106.753 75.2584 106.517 81.4905C106.398 85.4884 104.859 89.2511 103.793 93.1314C102.609 97.2469 102.018 101.715 101.307 105.948C100.597 110.299 100.123 114.65 99.4128 119C99.0576 121.234 98.9392 123.351 98.7024 125.585C98.7024 125.703 98.7024 125.82 98.7024 125.938C99.0576 126.996 99.4128 128.054 99.6496 129.113C99.6496 128.642 99.768 128.172 99.768 127.702C100.005 125.585 99.8864 123.586 100.123 121.705Z" fill="url(#paint17_linear_9002_28266)"/>
<path d="M108.766 141.812C109.595 138.284 110.542 134.992 111.963 131.7C113.383 128.525 115.041 125.468 116.106 122.058C117.172 118.648 118.001 115.238 119.066 111.828C121.079 104.773 122.5 97.4823 124.039 90.3096C124.749 86.6644 125.578 83.0193 126.17 79.3741C126.762 76.0817 127.354 72.7893 127.117 69.3794C126.88 64.5584 125.105 59.8549 122.026 56.0922C120.487 54.446 118.593 52.7998 116.462 51.8591C113.739 50.6833 110.897 50.0953 108.174 49.0371C105.569 47.9788 102.964 46.9205 100.241 46.4502C97.2815 45.8623 94.3216 45.5095 91.4801 45.0392C89.349 44.6864 87.2178 44.4512 84.9683 44.2161C84.6131 44.3336 84.2579 44.3337 83.9028 44.4512C83.666 44.5688 83.4292 44.5688 83.1924 44.5688C84.0212 44.6864 84.7315 44.6864 85.5603 44.804C89.2306 45.1567 92.9008 45.8623 96.5711 46.3326C98.347 46.5678 100.123 46.8029 101.899 47.2733C103.793 47.7436 105.569 48.5667 107.464 49.2722C110.66 50.5657 114.33 51.036 117.29 52.9174C122.737 56.445 125.341 63.2649 125.696 69.4969C125.815 72.9069 125.223 76.1993 124.631 79.4917C124.039 83.1369 123.21 86.782 122.5 90.4272C121.434 95.8361 120.369 101.127 119.066 106.419C117.764 111.593 116.343 116.649 114.686 121.705C113.147 126.643 110.305 131.112 108.647 136.05C107.819 138.637 107.345 141.342 106.635 143.929C106.516 144.399 106.398 144.869 106.28 145.34C106.635 145.928 106.872 146.515 107.227 147.103V146.986C107.7 145.222 108.292 143.576 108.766 141.812Z" fill="url(#paint18_linear_9002_28266)"/>
<path d="M116.817 144.634C119.777 138.167 123.092 131.817 125.933 125.232C128.775 118.648 131.025 111.945 132.919 105.008C133.866 101.598 134.695 98.0701 135.405 94.6602C136.116 91.2502 137.3 87.9578 138.128 84.5478C138.839 81.7257 139.194 78.6685 139.312 75.7289C139.431 72.7892 139.194 69.8496 138.365 67.0276C137.536 64.0879 135.76 61.6186 133.984 59.1493C132.445 57.0328 130.906 55.0338 129.012 53.2701C122.974 47.7435 115.041 44.8039 107.464 41.8643C106.99 41.9818 106.635 41.9818 106.28 41.9818C115.159 45.3918 124.631 48.8018 130.669 56.3273C132.682 58.9142 134.695 61.7362 136.116 64.6758C137.536 67.8507 138.01 71.2606 137.891 74.6706C137.891 78.0806 137.418 81.4906 136.589 84.6654C135.76 88.0754 134.576 91.3678 133.866 94.7777C131.261 106.889 127.473 118.765 122.145 129.936C119.54 135.462 116.817 140.989 114.212 146.633C113.147 148.985 112.2 151.219 111.252 153.57C111.608 154.041 111.844 154.511 112.2 154.864C112.318 154.629 112.318 154.511 112.436 154.276C113.857 151.101 115.278 147.926 116.817 144.634Z" fill="url(#paint19_linear_9002_28266)"/>
<path d="M135.879 126.761C137.063 123.586 137.891 120.294 138.602 117.001C139.312 113.474 140.022 109.946 140.97 106.536C141.917 103.126 143.219 99.8338 144.048 96.4238C144.995 93.1314 145.705 89.7214 146.297 86.3114C146.771 83.9597 147.126 81.4904 147.481 79.1387C147.837 76.9046 148.073 74.6705 148.073 72.4363C147.837 71.6132 147.6 70.7901 147.245 69.4967C146.534 67.145 145.587 64.3229 144.048 61.3833C144.521 63.0295 145.113 64.6757 145.587 66.4395C146.179 68.0857 146.534 69.8495 146.771 71.6132C146.889 73.4946 146.771 75.376 146.534 77.2573C145.587 84.1949 144.403 91.0148 142.509 97.8348C141.562 101.245 140.259 104.537 139.43 108.065C138.602 111.475 137.773 115.12 137.181 118.53C136.589 121.822 135.405 124.997 134.221 128.172C133.037 131.347 131.853 134.639 131.024 137.931C129.604 143.223 128.656 148.632 127.709 154.041C128.183 153.923 128.656 153.688 129.248 153.57C129.604 151.336 129.959 148.984 130.432 146.75C131.498 139.93 133.511 133.346 135.879 126.761Z" fill="url(#paint20_linear_9002_28266)"/>
<path d="M142.746 139.695C143.693 133.933 144.758 128.054 146.653 122.528C147.718 119.588 149.139 116.766 150.441 113.944C151.744 111.122 152.928 108.417 154.112 105.595C155.177 103.008 156.243 100.304 157.19 97.5995C157.072 97.2468 156.835 96.894 156.716 96.6589C156.716 96.6589 156.598 96.3061 156.48 95.6006C155.414 99.1282 154.112 102.538 152.691 105.831C151.507 108.653 150.323 111.475 149.021 114.179C147.718 116.884 146.416 119.588 145.35 122.41C143.338 128.054 142.39 134.051 141.325 139.93C140.97 142.282 140.378 144.634 140.378 146.985C140.378 148.044 140.496 149.102 140.851 150.043C140.97 150.043 141.088 150.043 141.206 149.925C141.562 149.808 141.917 149.807 142.154 149.69C141.917 148.749 141.798 147.691 141.798 146.633C141.798 144.399 142.39 142.047 142.746 139.695Z" fill="url(#paint21_linear_9002_28266)"/>
<path d="M153.756 141.694C154.822 138.754 156.716 136.05 157.9 133.227C160.387 126.995 162.399 120.411 165.241 114.296C164.886 113.943 164.649 113.473 164.294 113.12C161.215 119.588 159.203 126.408 156.598 132.992C155.414 136.05 153.52 138.754 152.454 141.811C151.625 143.81 151.744 145.927 152.217 147.926C152.691 147.808 153.046 147.808 153.52 147.69C152.928 145.692 153.046 143.693 153.756 141.694Z" fill="url(#paint22_linear_9002_28266)"/>
<path d="M163.109 141.341C163.701 137.696 166.78 134.756 169.148 132.052C171.042 129.818 172.699 127.348 173.291 124.409C173.41 123.938 173.41 123.468 173.41 122.88C172.936 122.41 172.463 121.822 171.989 121.352C171.989 122.292 171.989 123.351 171.752 124.291C171.16 127.466 169.029 130.053 167.016 132.405C164.767 134.991 162.162 137.696 161.57 141.341C161.333 142.87 161.689 144.281 162.281 145.692C162.399 145.692 162.636 145.574 162.754 145.574C162.991 145.574 163.228 145.457 163.465 145.457C163.109 144.163 162.873 142.752 163.109 141.341Z" fill="url(#paint23_linear_9002_28266)"/>
<path d="M174.949 140.401C175.304 136.991 178.146 134.756 179.567 131.934C179.33 131.582 178.975 131.229 178.619 130.759C177.436 133.933 174.12 136.285 173.528 139.93C173.292 141.224 173.292 142.635 173.41 143.928C173.884 143.811 174.357 143.811 174.831 143.693C174.831 142.635 174.831 141.459 174.949 140.401Z" fill="url(#paint24_linear_9002_28266)"/>
<path d="M88.2835 78.1984C88.1651 73.8477 87.0996 68.7916 83.6661 65.8519C76.5623 59.6199 67.4459 60.443 58.6846 60.6782C59.0398 60.7957 59.3949 61.0309 59.7501 61.2661C62.9468 61.1485 66.0251 61.0309 69.2218 61.1485C74.3128 61.3837 78.8119 62.9123 82.7189 66.3223C86.034 69.1443 86.8628 74.4357 86.9812 78.5512C87.0996 80.4325 86.9812 82.4315 86.7444 84.548C87.0996 85.1359 87.5732 85.7239 87.9284 86.3118C88.2835 83.3722 88.4019 80.6677 88.2835 78.1984Z" fill="url(#paint25_linear_9002_28266)"/>
<path d="M77.6281 67.4986C75.1418 65.4996 71.5899 64.7941 68.5116 64.3238C67.4461 64.0886 66.2621 64.0886 65.1965 64.0886C65.5517 64.3238 65.7885 64.4414 66.1437 64.6766C69.3404 64.7941 73.2475 65.4997 75.8522 67.381C78.9305 69.4976 80.7064 73.2603 81.5352 77.1406C82.1271 77.8461 82.7191 78.6692 83.3111 79.4923C82.7191 74.9065 81.0616 70.3207 77.6281 67.4986Z" fill="url(#paint26_linear_9002_28266)"/>
<path d="M89.9406 113.943C91.3613 116.882 93.966 118.999 97.0443 120.41C95.6236 115.001 94.558 109.475 93.966 104.301C93.8476 103.36 93.7292 102.537 93.6108 101.714C91.9533 105.712 87.691 109.239 89.9406 113.943Z" fill="url(#paint27_linear_9002_28266)"/>
<path d="M23.2838 67.967C22.5734 67.967 21.9815 67.8494 21.2711 67.6143C21.1527 72.788 22.8102 77.609 25.4149 82.0773C27.0725 83.7235 29.2036 85.4873 31.6899 87.1335C34.0578 88.7796 36.3074 90.3083 38.3201 91.8369C36.6625 89.8379 35.005 87.839 33.3475 85.84C29.2036 80.9014 24.3494 74.6694 23.2838 67.967Z" fill="url(#paint28_linear_9002_28266)"/>
<path d="M78.8117 88.192C82.482 87.9569 84.3763 84.8996 84.9683 81.7248C83.7844 80.0786 82.8372 78.6676 81.89 77.3742C80.8245 76.6687 79.7589 75.9631 78.3382 75.728C77.0358 75.4928 75.7334 75.2576 74.4311 75.0225C72.7735 74.5521 71.116 73.729 69.932 72.4356C68.2745 70.7894 67.4457 68.6728 66.2618 66.7915C65.3146 65.2629 64.1306 63.8518 62.8283 62.676C61.7627 62.0881 60.8156 61.6177 59.75 61.0298C62.4731 67.2618 64.1306 73.9642 67.6825 79.8435C69.932 83.6062 73.8391 88.6624 78.8117 88.192Z" fill="url(#paint29_linear_9002_28266)"/>
<path d="M70.7605 71.8476C73.1284 74.3169 75.8515 74.6697 79.0482 75.3752C79.6402 75.4928 80.1138 75.6103 80.5874 75.8455C76.9171 71.4949 74.0756 69.6135 68.8662 66.4387C67.919 65.8507 66.9718 65.2628 66.1431 64.7925C66.4983 65.2628 66.8534 65.7332 67.2086 66.3211C68.3926 67.9673 69.2214 70.2014 70.7605 71.8476Z" fill="url(#paint30_linear_9002_28266)"/>
<path d="M19.3769 66.9086C17.9562 66.203 16.8906 65.4975 17.009 66.3206C17.009 66.3206 16.8906 71.024 21.0344 77.0209C19.8505 73.8461 19.2585 70.4361 19.3769 66.9086Z" fill="url(#paint31_linear_9002_28266)"/>
<path d="M61.6443 76.7862C64.0122 82.6654 66.9721 88.1919 70.6423 93.3657C73.4839 97.3636 77.5093 102.89 82.4819 104.301C88.1649 105.947 90.7696 99.4802 92.072 94.0712C91.0064 90.8964 89.3489 88.3095 85.9154 83.2534C85.0866 86.0754 83.1923 88.3095 79.9956 88.7799C76.207 89.3678 72.0631 87.0161 69.5768 84.3116C63.4202 77.6093 61.6443 68.4376 57.974 60.3242C55.9613 59.3835 53.9485 58.4428 52.0542 57.7373C57.1452 62.9111 58.9212 70.2014 61.6443 76.7862Z" fill="url(#paint32_linear_9002_28266)"/>
<path d="M45.4241 83.7233C46.1345 84.3112 46.0161 84.3112 46.0161 83.3706C46.0161 82.9002 46.0161 82.4299 45.8977 82.0771C45.6609 81.0189 45.4241 79.843 45.0689 78.7847C44.3586 76.1978 43.5298 73.611 42.4642 71.2593C40.4515 66.9086 37.8468 62.6755 34.5317 59.1479C33.7029 59.8535 32.9926 60.559 32.4006 61.2645C32.2822 61.4997 32.1638 61.6172 31.927 61.8524C34.7685 65.1448 36.7812 69.1427 38.794 73.023C40.6883 76.3154 42.5826 81.1364 45.4241 83.7233Z" fill="url(#paint33_linear_9002_28266)"/>
<path d="M111.015 153.098C109.476 150.864 107.819 148.16 106.161 145.103C103.438 144.397 100.715 142.751 98.2285 141.693C93.1375 139.458 88.1649 136.754 83.9026 133.226C79.6404 129.699 75.1413 125.701 71.5895 121.585C68.156 117.588 65.5513 113.119 62.8282 108.533C59.6315 103.125 56.4348 97.7156 53.5933 92.0715C51.4622 87.8384 49.8046 83.3702 48.1471 78.9019C45.3056 71.3765 42.2273 63.4982 36.8995 57.3838C36.4259 57.7365 35.8339 57.9717 35.3603 58.3245C39.3858 62.44 42.4641 67.6137 44.4768 73.0227C45.5424 75.7271 46.3711 78.5492 46.9631 81.3712C47.1999 82.7823 47.5551 84.4285 45.7792 84.7812C44.24 85.134 43.056 83.0174 42.3457 81.9592C41.1617 80.0778 40.0962 78.0788 38.9122 76.0799C36.4259 71.6116 34.1764 66.673 30.8613 62.5576C29.9141 63.6158 28.9669 64.5565 28.0198 65.262C31.2165 69.4951 33.5844 73.9633 36.5443 77.9613C38.4386 80.5481 40.4513 82.8998 42.7009 85.2516C44.4768 87.1329 46.4895 88.8967 48.0287 90.8957C51.2254 95.0112 54.0669 99.8322 55.4876 104.888C55.8428 106.182 56.0796 107.358 56.4348 108.651C60.4602 112.884 65.0777 117.94 70.8791 124.29C79.8772 134.05 87.5729 140.987 94.5583 146.161C98.3469 148.16 102.491 149.924 106.516 151.452C108.055 152.04 109.476 152.628 111.015 153.098Z" fill="url(#paint34_linear_9002_28266)"/>
<path d="M52.883 87.6036C55.0141 92.5422 57.6188 97.3632 60.3419 101.949C63.065 106.652 65.6697 111.473 68.748 115.942C71.8263 120.528 75.615 124.29 79.6404 128.053C83.5475 131.816 87.5729 135.343 92.3088 138.048C95.0319 139.576 97.755 140.752 100.596 142.046C102.254 142.751 104.03 143.809 105.806 144.397C104.977 142.751 104.03 140.87 103.32 138.988C102.964 138.283 102.728 137.46 102.372 136.754C99.8861 136.519 97.2814 135.931 95.1503 135.226C90.6512 133.697 86.389 131.463 82.4819 128.641C75.1414 123.35 71.2343 114.531 66.9721 106.888C64.1306 101.949 61.1707 97.128 58.6844 92.0719C56.198 87.1333 53.9485 81.9595 51.9358 76.7857C50.1598 72.4351 48.6207 67.9668 46.7264 63.6162C45.424 60.7941 44.0033 57.9721 41.8721 55.6204C41.1618 55.7379 40.5698 55.7379 39.8594 55.9731C39.149 56.3259 38.5571 56.6786 37.8467 57.0314C42.5825 62.2051 45.6608 68.7899 48.1471 75.3747C49.8047 79.3726 51.2254 83.4881 52.883 87.6036Z" fill="url(#paint35_linear_9002_28266)"/>
<path d="M114.449 158.508C114.804 158.625 115.041 158.861 115.396 158.861C115.396 158.861 113.975 157.097 111.844 154.275C107.819 153.217 103.793 151.806 100.005 150.042C105.096 153.452 109.832 156.039 114.449 158.508Z" fill="url(#paint36_linear_9002_28266)"/>
<path d="M64.7224 100.303C67.0903 104.418 69.4582 108.416 71.7077 112.532C73.9573 116.647 76.3252 120.763 79.4035 124.173C82.7185 127.936 86.9808 130.875 91.4798 132.992C94.5581 134.403 98.2284 135.814 101.899 136.049C100.596 132.874 99.5308 129.582 98.4652 126.289C95.1501 125.349 91.9534 123.82 88.8751 122.174C85.56 120.528 82.3634 118.529 79.4035 116.177C73.9573 111.826 69.2214 106.653 65.7879 100.538C61.5257 92.8951 58.6842 84.1938 55.6059 75.9628C54.0667 71.6121 52.646 67.1439 50.3965 63.0284C48.9757 60.4415 47.1998 58.2074 45.6606 55.7381C44.8319 55.6205 44.1215 55.5029 43.2927 55.5029C47.4366 60.0888 49.4493 66.556 51.5804 72.2001C55.4875 81.8421 59.6314 91.3665 64.7224 100.303Z" fill="url(#paint37_linear_9002_28266)"/>
<path d="M56.1981 73.4933C59.2764 81.8419 61.9995 90.6608 66.1433 98.539C69.4584 104.889 73.9574 110.533 79.522 115.001C82.2452 117.235 85.0867 119.116 88.2833 120.88C91.48 122.644 94.7951 124.408 98.347 125.466C97.8734 124.055 97.5182 122.526 97.163 121.115C93.8479 119.822 90.6513 117.705 88.9937 114.766C87.573 112.297 87.573 109.71 88.8753 107.123C90.1777 104.536 92.1904 102.419 92.664 99.4797C92.664 99.3621 92.9008 99.2445 93.256 99.2445C93.1376 98.3038 93.0192 97.4807 92.7824 96.6576C91.48 101.126 89.1121 105.359 84.4947 105.006C79.522 104.653 75.4966 100.538 72.5367 96.8928C68.6296 92.307 65.3145 87.1332 62.7098 81.6067C60.4603 76.9033 58.6844 72.0823 56.79 67.2613C55.2509 63.2634 53.3566 59.6182 50.1599 56.6786C49.2127 56.3258 48.3839 56.0906 47.4368 55.8555C48.8575 58.0896 50.6335 60.2061 51.8174 62.6754C53.5934 66.3206 54.8957 69.9657 56.1981 73.4933Z" fill="url(#paint38_linear_9002_28266)"/>
<path d="M45.5423 89.6019C41.872 85.4864 37.7282 81.7237 34.4131 77.1378C31.9268 73.6103 29.7956 69.73 27.4277 66.2024C26.599 66.7903 25.7702 67.2607 25.0598 67.6134C26.007 74.551 31.2164 80.9006 35.4787 86.0743C38.3202 89.4843 41.28 92.7767 43.8848 96.3043C47.4366 99.3615 50.7517 102.536 54.422 106.417C54.1852 105.476 53.9484 104.653 53.5932 103.712C51.8173 98.7736 49.0942 93.5998 45.5423 89.6019Z" fill="url(#paint39_linear_9002_28266)"/>
<path d="M79.9958 88.7798C83.1924 88.3095 85.0868 86.0754 85.9155 83.2533C85.6788 83.0181 85.5604 82.6654 85.3236 82.4302C85.2052 82.195 84.9684 81.9599 84.85 81.7247C84.258 85.0171 82.3637 87.9567 78.6934 88.1919C73.7208 88.5446 69.8137 83.6061 67.5642 79.8433C64.0123 73.964 62.3548 67.2617 59.6317 61.0296C59.0397 60.7945 58.5661 60.4417 57.9741 60.2065C61.6444 68.3199 63.4203 77.4916 69.5769 84.194C72.0632 87.016 76.2071 89.3677 79.9958 88.7798Z" fill="url(#paint40_linear_9002_28266)"/>
<path d="M66.2618 66.7914C67.4458 68.6728 68.393 70.7893 69.9321 72.4355C71.1161 73.729 72.7736 74.5521 74.4312 75.0224C75.7335 75.3752 77.0359 75.4928 78.3382 75.7279C79.759 75.9631 80.8245 76.551 81.8901 77.3741C81.4165 76.7862 80.9429 76.1983 80.5877 75.7279C80.1142 75.4928 79.6406 75.3752 79.0486 75.2576C75.8519 74.6697 73.1288 74.1993 70.7609 71.73C69.2217 70.0838 68.393 67.8497 67.0906 65.9683C66.7354 65.498 66.3802 64.9101 66.025 64.4397C64.8411 63.7342 63.7755 63.1463 62.71 62.5583C64.1307 63.9694 65.1963 65.2628 66.2618 66.7914Z" fill="url(#paint41_linear_9002_28266)"/>
<path d="M56.7898 67.4966C58.6842 72.3176 60.4601 77.1386 62.7096 81.842C65.3143 87.251 68.6294 92.4247 72.5365 97.1281C75.4964 100.656 79.5218 104.889 84.4945 105.242C89.1119 105.594 91.4798 101.244 92.7822 96.893C92.5454 95.9523 92.3086 95.0116 92.0718 94.1885C90.7695 99.4799 88.2831 106.065 82.4817 104.418C77.5091 103.007 73.4837 97.3633 70.6422 93.483C66.9719 88.3092 64.012 82.7827 61.6441 76.9034C58.921 70.3187 57.145 63.0284 52.054 57.737C51.462 57.5018 50.7516 57.2667 50.1597 57.0315C53.3564 59.9711 55.2507 63.4987 56.7898 67.4966Z" fill="url(#paint42_linear_9002_28266)"/>
<path d="M55.7246 76.0803C58.8028 84.3113 61.5259 93.0126 65.9066 100.656C69.3401 106.77 74.0759 111.944 79.5221 116.295C82.482 118.646 85.6787 120.528 88.9938 122.291C92.0721 123.82 95.2688 125.466 98.5839 126.407C98.4655 126.172 98.4655 125.937 98.3471 125.701C94.7952 124.643 91.4801 122.879 88.2834 121.116C85.2051 119.469 82.2452 117.47 79.5221 115.236C73.9575 110.768 69.4585 105.006 66.1434 98.7743C61.9995 90.896 59.158 82.0771 56.1981 73.7286C54.8958 70.201 53.5934 66.5558 51.8175 63.1459C50.6335 60.6766 48.8576 58.56 47.4368 56.3259C46.8449 56.2083 46.3713 56.0907 45.7793 55.9731C47.2 58.4424 49.0944 60.7942 50.5151 63.2634C52.7647 67.2614 54.1854 71.7296 55.7246 76.0803Z" fill="url(#paint43_linear_9002_28266)"/>
<path d="M92.7821 99.5975C92.3085 102.537 90.2958 104.654 88.9935 107.241C87.6911 109.827 87.6911 112.297 89.1119 114.884C90.7694 117.823 93.9661 119.822 97.2812 121.233C97.1628 120.998 97.1628 120.645 97.0444 120.41C94.0845 118.999 91.3614 117 89.9406 113.943C87.6911 109.239 91.9533 105.712 93.6109 101.596C93.4925 100.773 93.3741 100.068 93.2557 99.3623C93.0189 99.3623 92.7821 99.4799 92.7821 99.5975Z" fill="url(#paint44_linear_9002_28266)"/>
<path d="M51.8176 76.9036C53.9487 82.0773 56.0798 87.1335 58.5661 92.1897C61.0525 97.2459 64.0124 102.067 66.8539 107.005C71.2345 114.649 75.0232 123.467 82.3637 128.759C86.2708 131.581 90.4146 133.815 95.0321 135.344C97.1632 136.049 99.7679 136.637 102.254 136.872C102.136 136.637 102.017 136.402 102.017 136.167C98.3472 135.932 94.6769 134.52 91.5986 133.109C86.9812 130.993 82.8373 128.053 79.5222 124.291C76.4439 120.763 74.076 116.647 71.8265 112.65C69.577 108.534 67.209 104.536 64.8411 100.421C59.6317 91.4842 55.6062 81.9598 51.936 72.3177C49.8049 66.6736 47.7921 60.324 43.6483 55.6206C43.0563 55.6206 42.5827 55.6206 41.9907 55.7382C44.0035 58.0899 45.5426 60.912 46.845 63.734C48.6209 68.0847 50.16 72.5529 51.8176 76.9036Z" fill="url(#paint45_linear_9002_28266)"/>
<path d="M53.7119 92.072C56.435 97.7161 59.7501 103.125 62.9468 108.534C65.5515 113.002 68.2746 117.588 71.7081 121.586C75.2599 125.819 79.759 129.699 84.0212 133.227C88.2835 136.754 93.2561 139.459 98.3471 141.693C100.833 142.751 103.557 144.398 106.28 145.103C106.161 144.868 106.043 144.633 105.924 144.398C104.149 143.81 102.373 142.751 100.715 142.046C97.8736 140.87 95.1504 139.694 92.4273 138.048C87.6915 135.343 83.666 131.816 79.759 128.053C75.7335 124.173 71.9449 120.528 68.8666 115.942C65.7883 111.356 63.1836 106.653 60.4605 101.949C57.7374 97.2457 55.1326 92.5423 53.0015 87.6037C51.344 83.6058 49.8048 79.3727 48.2657 75.3748C45.661 68.9076 42.7011 62.2053 37.9652 57.0315C37.7285 57.1491 37.3733 57.3843 37.1365 57.5018C42.4643 63.4987 45.5426 71.4945 48.3841 79.02C49.9232 83.3706 51.5808 87.8389 53.7119 92.072Z" fill="url(#paint46_linear_9002_28266)"/>
<path d="M42.5826 82.078C43.2929 83.1363 44.4769 85.1353 46.016 84.9001C47.792 84.5473 47.4368 82.9011 47.2 81.4901C46.608 78.6681 45.7793 75.846 44.7137 73.1415C42.701 67.8502 39.6227 62.6764 35.5972 58.4434C35.242 58.6785 34.8868 58.9137 34.65 59.1489C37.9651 62.6764 40.5698 66.9095 42.5826 71.2602C43.6481 73.7295 44.4769 76.1988 45.1873 78.7856C45.4241 79.8439 45.7793 80.9022 46.016 82.078C46.1344 82.5484 46.1344 83.0187 46.1344 83.3715C46.1344 84.3122 46.2528 84.3122 45.5425 83.7242C42.701 81.1374 40.8066 76.3164 39.0307 72.9064C37.018 69.0261 34.8868 65.1457 32.1637 61.7358C31.9269 62.0885 31.5718 62.3237 31.335 62.6764C34.5316 66.7919 36.8996 71.6129 39.3859 76.1988C40.2147 78.1977 41.2802 80.1967 42.5826 82.078Z" fill="url(#paint47_linear_9002_28266)"/>
<path d="M48.0289 90.897C46.3713 88.7805 44.477 87.1343 42.701 85.2529C40.4515 82.9012 38.4388 80.5495 36.5445 77.9626C33.5846 73.9647 31.2166 69.4964 28.3751 65.4985C28.02 65.7337 27.6648 65.9689 27.428 66.204C29.9143 69.7316 32.0454 73.6119 34.4133 77.1395C37.61 81.7253 41.7539 85.4881 45.5425 89.6036C49.0944 93.6015 51.9359 98.7752 53.7119 103.714C54.067 104.655 54.3038 105.478 54.5406 106.418C55.251 107.124 55.9614 107.829 56.6718 108.652C56.435 107.359 56.0798 106.066 55.7246 104.89C54.1854 99.9511 51.2255 95.0125 48.0289 90.897Z" fill="url(#paint48_linear_9002_28266)"/>
<path d="M25.0601 67.6145C24.5865 67.8497 24.2313 67.9673 23.8762 67.9673C23.6394 67.9673 23.521 67.9673 23.2842 67.9673C24.3497 74.6696 29.204 80.7841 33.3478 85.8403C35.0054 87.8392 36.6629 89.8382 38.3205 91.8371C40.3332 93.3657 42.1091 94.7768 43.8851 96.3054C41.2804 92.7778 38.3205 89.3678 35.479 86.0754C31.0983 80.9017 26.0073 74.552 25.0601 67.6145Z" fill="url(#paint49_linear_9002_28266)"/>
<path d="M21.2712 67.614C20.5609 67.4964 19.9689 67.1436 19.3769 66.9084C19.1401 70.436 19.7321 73.846 20.916 77.0208C21.9816 78.667 23.4024 80.3132 25.2967 82.077C22.8104 77.6087 21.1528 72.7877 21.2712 67.614Z" fill="url(#paint50_linear_9002_28266)"/>
<path d="M106.516 151.57C102.491 150.041 98.4652 148.277 94.5581 146.278C96.334 147.689 98.11 148.865 99.8859 150.041C103.675 151.805 107.7 153.216 111.726 154.274C111.489 153.921 111.134 153.451 110.897 153.098C109.476 152.628 108.055 152.04 106.516 151.57Z" fill="url(#paint51_linear_9002_28266)"/>
<path d="M111.844 154.275C111.607 153.923 111.252 153.452 111.015 153.1C109.476 150.865 107.819 148.161 106.161 145.104C106.043 144.869 105.924 144.633 105.806 144.398C104.977 142.752 104.03 140.871 103.32 138.989C102.964 138.284 102.728 137.461 102.372 136.755C102.254 136.52 102.136 136.285 102.136 136.05C100.833 132.875 99.7677 129.582 98.7021 126.29C98.5837 126.055 98.5837 125.82 98.4654 125.585C97.9918 124.174 97.6366 122.645 97.2814 121.234C97.163 120.999 97.163 120.646 97.0446 120.411C95.6238 115.002 94.5583 109.475 93.9663 104.302C93.8479 103.361 93.7295 102.538 93.6111 101.715C93.4927 100.892 93.3743 100.186 93.2559 99.4806C93.1375 98.5399 93.0191 97.7168 92.7823 96.8937C92.5456 95.953 92.3088 95.0123 92.072 94.1892C91.0064 91.0144 89.3489 88.4275 85.9154 83.3714C85.6786 83.1362 85.5602 82.7834 85.3234 82.5483C85.205 82.3131 84.9682 82.0779 84.8498 81.8428C83.6659 80.1966 82.7187 78.7855 81.7715 77.4921C81.298 76.9042 80.8244 76.3162 80.4692 75.8459C76.7989 71.4952 73.9574 69.6139 68.748 66.439C67.8008 65.8511 66.8537 65.2632 66.0249 64.7929C64.8409 64.0873 63.7754 63.4994 62.7098 62.9115C61.6442 62.3236 60.6971 61.8532 59.6315 61.2653C59.0395 61.0301 58.5659 60.6774 57.974 60.4422C55.9612 59.5015 53.9485 58.5608 52.0542 57.8553C51.4622 57.6201 50.7518 57.385 50.1598 57.1498C49.2127 56.797 48.3839 56.5619 47.4367 56.3267C46.8447 56.2091 46.3712 56.0915 45.7792 55.9739C44.9504 55.8564 44.24 55.7388 43.4113 55.7388C42.8193 55.7388 42.3457 55.7388 41.7537 55.8564C41.0433 55.9739 40.4514 55.9739 39.741 56.2091C39.0306 56.5619 38.4386 56.9146 37.7283 57.2674C37.4915 57.385 37.1363 57.6201 36.8995 57.7377C36.4259 58.0905 35.8339 58.3257 35.3603 58.6784C35.0052 58.9136 34.65 59.1487 34.4132 59.3839C33.5844 60.0894 32.874 60.7949 32.2821 61.5005C32.1637 61.7356 32.0453 61.8532 31.8085 62.0884C31.5717 62.4411 31.2165 62.6763 30.9797 63.0291C30.0325 64.0873 29.0854 65.028 28.1382 65.7335C28.0198 65.7335 27.6646 65.9687 27.4278 66.2039C26.5991 66.7918 25.7703 67.2621 25.0599 67.6149C24.5863 67.8501 24.2311 67.9677 23.8759 67.9677C23.6392 67.9677 23.5208 67.9677 23.284 67.9677C22.5736 67.9677 21.9816 67.8501 21.2712 67.6149C20.5609 67.4973 19.9689 67.1446 19.3769 66.9094C17.9562 66.2039 16.8906 65.4984 17.009 66.3215C17.009 66.3215 16.8906 71.0249 21.0344 77.0217C22.1 78.6679 23.5208 80.3141 25.4151 82.0779C27.0726 83.7241 29.2038 85.4879 31.6901 87.1341C34.058 88.7803 36.3075 90.3089 38.3202 91.8375C40.333 93.3661 42.1089 94.7772 43.8848 96.3058C47.4367 99.363 50.7518 102.538 54.4221 106.418C55.1325 107.124 55.8428 107.829 56.5532 108.652C60.5787 112.885 65.1961 117.941 70.9975 124.291C79.9956 134.051 87.6913 140.988 94.6767 146.162C96.4526 147.573 98.2286 148.749 100.004 149.925C105.096 153.335 109.831 155.922 114.449 158.391C114.804 158.508 115.041 158.744 115.396 158.744C115.396 158.861 113.857 157.097 111.844 154.275Z" fill="url(#paint52_linear_9002_28266)"/>
<defs>
<linearGradient id="paint0_linear_9002_28266" x1="66.1596" y1="70.8494" x2="81.588" y2="70.8494" gradientUnits="userSpaceOnUse">
<stop offset="0.2814" stop-color="#FFAD05"/>
<stop offset="1" stop-color="#F46600"/>
</linearGradient>
<linearGradient id="paint1_linear_9002_28266" x1="107.435" y1="100.068" x2="146.689" y2="100.068" gradientUnits="userSpaceOnUse">
<stop offset="0.2814" stop-color="#FFAD05"/>
<stop offset="1" stop-color="#F46600"/>
</linearGradient>
<linearGradient id="paint2_linear_9002_28266" x1="50.7477" y1="78.0598" x2="98.3653" y2="78.0598" gradientUnits="userSpaceOnUse">
<stop offset="0.2814" stop-color="#FFAD05"/>
<stop offset="1" stop-color="#F46600"/>
</linearGradient>
<linearGradient id="paint3_linear_9002_28266" x1="128.968" y1="112.987" x2="156.477" y2="112.987" gradientUnits="userSpaceOnUse">
<stop offset="0.2814" stop-color="#FFAD05"/>
<stop offset="1" stop-color="#F46600"/>
</linearGradient>
<linearGradient id="paint4_linear_9002_28266" x1="46.022" y1="93.1767" x2="115.544" y2="93.1767" gradientUnits="userSpaceOnUse">
<stop offset="0.2814" stop-color="#FFAD05"/>
<stop offset="1" stop-color="#F46600"/>
</linearGradient>
<linearGradient id="paint5_linear_9002_28266" x1="39.8561" y1="95.0532" x2="125.703" y2="95.0532" gradientUnits="userSpaceOnUse">
<stop offset="0.2814" stop-color="#FFAD05"/>
<stop offset="1" stop-color="#F46600"/>
</linearGradient>
<linearGradient id="paint6_linear_9002_28266" x1="49.071" y1="89.3451" x2="106.401" y2="89.3451" gradientUnits="userSpaceOnUse">
<stop offset="0.2814" stop-color="#FFAD05"/>
<stop offset="1" stop-color="#F46600"/>
</linearGradient>
<linearGradient id="paint7_linear_9002_28266" x1="84.9494" y1="97.8094" x2="137.987" y2="97.8094" gradientUnits="userSpaceOnUse">
<stop offset="0.2814" stop-color="#FFAD05"/>
<stop offset="1" stop-color="#F46600"/>
</linearGradient>
<linearGradient id="paint8_linear_9002_28266" x1="153.13" y1="130.921" x2="172.039" y2="130.921" gradientUnits="userSpaceOnUse">
<stop offset="0.2814" stop-color="#FFAD05"/>
<stop offset="1" stop-color="#F46600"/>
</linearGradient>
<linearGradient id="paint9_linear_9002_28266" x1="59.7726" y1="72.6049" x2="86.9298" y2="72.6049" gradientUnits="userSpaceOnUse">
<stop offset="0.2814" stop-color="#FFAD05"/>
<stop offset="1" stop-color="#F46600"/>
</linearGradient>
<linearGradient id="paint10_linear_9002_28266" x1="174.894" y1="137.82" x2="182.941" y2="137.82" gradientUnits="userSpaceOnUse">
<stop offset="0.2814" stop-color="#FFAD05"/>
<stop offset="1" stop-color="#F46600"/>
</linearGradient>
<linearGradient id="paint11_linear_9002_28266" x1="163.034" y1="134.247" x2="178.742" y2="134.247" gradientUnits="userSpaceOnUse">
<stop offset="0.2814" stop-color="#FFAD05"/>
<stop offset="1" stop-color="#F46600"/>
</linearGradient>
<linearGradient id="paint12_linear_9002_28266" x1="141.826" y1="123.781" x2="164.298" y2="123.781" gradientUnits="userSpaceOnUse">
<stop offset="0.2814" stop-color="#FFAD05"/>
<stop offset="1" stop-color="#F46600"/>
</linearGradient>
<linearGradient id="paint13_linear_9002_28266" x1="143.72" y1="152.815" x2="86.3685" y2="47.213" gradientUnits="userSpaceOnUse">
<stop offset="0.2814" stop-color="#FF9D28"/>
<stop offset="1" stop-color="#F46600"/>
</linearGradient>
<radialGradient id="paint14_radial_9002_28266" cx="0" cy="0" r="1" gradientUnits="userSpaceOnUse" gradientTransform="translate(217.197 40.2333) scale(146.526 145.521)">
<stop offset="0.0616952" stop-color="white"/>
<stop offset="0.756" stop-color="#FEF8F3"/>
<stop offset="0.7775" stop-color="#FDF2E9"/>
<stop offset="0.8137" stop-color="#FAE3CF"/>
<stop offset="0.8602" stop-color="#F5C9A4"/>
<stop offset="0.9151" stop-color="#EFA669"/>
<stop offset="0.9765" stop-color="#E67A1F"/>
<stop offset="1" stop-color="#E36800"/>
</radialGradient>
<linearGradient id="paint15_linear_9002_28266" x1="43.8797" y1="94.1803" x2="116.88" y2="94.1803" gradientUnits="userSpaceOnUse">
<stop offset="0.3275" stop-color="#F1E8DC"/>
<stop offset="1" stop-color="#FFC5A1"/>
</linearGradient>
<linearGradient id="paint16_linear_9002_28266" x1="48.9416" y1="79.7112" x2="99.7152" y2="79.7112" gradientUnits="userSpaceOnUse">
<stop offset="0.3275" stop-color="#F1E8DC"/>
<stop offset="1" stop-color="#FFC5A1"/>
</linearGradient>
<linearGradient id="paint17_linear_9002_28266" x1="47.4248" y1="90.6252" x2="107.748" y2="90.6252" gradientUnits="userSpaceOnUse">
<stop offset="0.3275" stop-color="#F1E8DC"/>
<stop offset="1" stop-color="#FFC5A1"/>
</linearGradient>
<linearGradient id="paint18_linear_9002_28266" x1="83.2116" y1="95.7205" x2="127.057" y2="95.7205" gradientUnits="userSpaceOnUse">
<stop offset="0.3275" stop-color="#F1E8DC"/>
<stop offset="1" stop-color="#FFC5A1"/>
</linearGradient>
<linearGradient id="paint19_linear_9002_28266" x1="106.201" y1="98.3971" x2="139.357" y2="98.3971" gradientUnits="userSpaceOnUse">
<stop offset="0.3275" stop-color="#F1E8DC"/>
<stop offset="1" stop-color="#FFC5A1"/>
</linearGradient>
<linearGradient id="paint20_linear_9002_28266" x1="127.467" y1="107.731" x2="148.034" y2="107.731" gradientUnits="userSpaceOnUse">
<stop offset="0.3275" stop-color="#F1E8DC"/>
<stop offset="1" stop-color="#FFC5A1"/>
</linearGradient>
<linearGradient id="paint21_linear_9002_28266" x1="140.447" y1="122.935" x2="157.216" y2="122.935" gradientUnits="userSpaceOnUse">
<stop offset="0.3275" stop-color="#F1E8DC"/>
<stop offset="1" stop-color="#FFC5A1"/>
</linearGradient>
<linearGradient id="paint22_linear_9002_28266" x1="151.742" y1="130.44" x2="165.219" y2="130.44" gradientUnits="userSpaceOnUse">
<stop offset="0.3275" stop-color="#F1E8DC"/>
<stop offset="1" stop-color="#FFC5A1"/>
</linearGradient>
<linearGradient id="paint23_linear_9002_28266" x1="161.64" y1="133.601" x2="173.398" y2="133.601" gradientUnits="userSpaceOnUse">
<stop offset="0.3275" stop-color="#F1E8DC"/>
<stop offset="1" stop-color="#FFC5A1"/>
</linearGradient>
<linearGradient id="paint24_linear_9002_28266" x1="173.476" y1="137.352" x2="179.634" y2="137.352" gradientUnits="userSpaceOnUse">
<stop offset="0.3275" stop-color="#F1E8DC"/>
<stop offset="1" stop-color="#FFC5A1"/>
</linearGradient>
<linearGradient id="paint25_linear_9002_28266" x1="58.7209" y1="73.2116" x2="88.2988" y2="73.2116" gradientUnits="userSpaceOnUse">
<stop offset="0.3275" stop-color="#F1E8DC"/>
<stop offset="1" stop-color="#FFC5A1"/>
</linearGradient>
<linearGradient id="paint26_linear_9002_28266" x1="65.1693" y1="71.755" x2="83.3715" y2="71.755" gradientUnits="userSpaceOnUse">
<stop offset="0.3275" stop-color="#F1E8DC"/>
<stop offset="1" stop-color="#FFC5A1"/>
</linearGradient>
<linearGradient id="paint27_linear_9002_28266" x1="16.9941" y1="110.961" x2="115.346" y2="110.961" gradientUnits="userSpaceOnUse">
<stop offset="0.2814" stop-color="#FF800C"/>
<stop offset="1" stop-color="#EA5800"/>
</linearGradient>
<linearGradient id="paint28_linear_9002_28266" x1="17.0081" y1="79.7585" x2="115.332" y2="79.7585" gradientUnits="userSpaceOnUse">
<stop offset="0.2814" stop-color="#FF800C"/>
<stop offset="1" stop-color="#EA5800"/>
</linearGradient>
<linearGradient id="paint29_linear_9002_28266" x1="17.019" y1="74.6856" x2="115.341" y2="74.6856" gradientUnits="userSpaceOnUse">
<stop offset="0.2814" stop-color="#FF800C"/>
<stop offset="1" stop-color="#EA5800"/>
</linearGradient>
<linearGradient id="paint30_linear_9002_28266" x1="17.011" y1="70.1785" x2="115.344" y2="70.1785" gradientUnits="userSpaceOnUse">
<stop offset="0.2814" stop-color="#FF800C"/>
<stop offset="1" stop-color="#EA5800"/>
</linearGradient>
<linearGradient id="paint31_linear_9002_28266" x1="17.009" y1="71.4938" x2="115.263" y2="71.4938" gradientUnits="userSpaceOnUse">
<stop offset="0.2814" stop-color="#FF800C"/>
<stop offset="1" stop-color="#EA5800"/>
</linearGradient>
<linearGradient id="paint32_linear_9002_28266" x1="17.0061" y1="81.1334" x2="115.341" y2="81.1334" gradientUnits="userSpaceOnUse">
<stop offset="0.2814" stop-color="#FF800C"/>
<stop offset="1" stop-color="#EA5800"/>
</linearGradient>
<linearGradient id="paint33_linear_9002_28266" x1="17.0087" y1="71.6368" x2="115.343" y2="71.6368" gradientUnits="userSpaceOnUse">
<stop offset="0.2814" stop-color="#FF800C"/>
<stop offset="1" stop-color="#EA5800"/>
</linearGradient>
<linearGradient id="paint34_linear_9002_28266" x1="17.0082" y1="105.273" x2="115.347" y2="105.273" gradientUnits="userSpaceOnUse">
<stop offset="0.2814" stop-color="#FF800C"/>
<stop offset="1" stop-color="#EA5800"/>
</linearGradient>
<linearGradient id="paint35_linear_9002_28266" x1="17.0115" y1="100.065" x2="115.343" y2="100.065" gradientUnits="userSpaceOnUse">
<stop offset="0.2814" stop-color="#FF800C"/>
<stop offset="1" stop-color="#EA5800"/>
</linearGradient>
<linearGradient id="paint36_linear_9002_28266" x1="17.0223" y1="154.429" x2="115.347" y2="154.429" gradientUnits="userSpaceOnUse">
<stop offset="0.2814" stop-color="#FF800C"/>
<stop offset="1" stop-color="#EA5800"/>
</linearGradient>
<linearGradient id="paint37_linear_9002_28266" x1="17.0084" y1="95.8259" x2="115.346" y2="95.8259" gradientUnits="userSpaceOnUse">
<stop offset="0.2814" stop-color="#FF800C"/>
<stop offset="1" stop-color="#EA5800"/>
</linearGradient>
<linearGradient id="paint38_linear_9002_28266" x1="17.0041" y1="90.8038" x2="115.345" y2="90.8038" gradientUnits="userSpaceOnUse">
<stop offset="0.2814" stop-color="#FF800C"/>
<stop offset="1" stop-color="#EA5800"/>
</linearGradient>
<linearGradient id="paint39_linear_9002_28266" x1="17.0049" y1="86.3356" x2="115.355" y2="86.3356" gradientUnits="userSpaceOnUse">
<stop offset="0.2814" stop-color="#FF800C"/>
<stop offset="1" stop-color="#EA5800"/>
</linearGradient>
<linearGradient id="paint40_linear_9002_28266" x1="58.0964" y1="74.592" x2="85.9935" y2="74.592" gradientUnits="userSpaceOnUse">
<stop offset="0.3275" stop-color="#F1E8DC"/>
<stop offset="1" stop-color="#FFC5A1"/>
</linearGradient>
<linearGradient id="paint41_linear_9002_28266" x1="62.7988" y1="70.0614" x2="81.8624" y2="70.0614" gradientUnits="userSpaceOnUse">
<stop offset="0.3275" stop-color="#F1E8DC"/>
<stop offset="1" stop-color="#FFC5A1"/>
</linearGradient>
<linearGradient id="paint42_linear_9002_28266" x1="50.2142" y1="81.0996" x2="92.8229" y2="81.0996" gradientUnits="userSpaceOnUse">
<stop offset="0.3275" stop-color="#F1E8DC"/>
<stop offset="1" stop-color="#FFC5A1"/>
</linearGradient>
<linearGradient id="paint43_linear_9002_28266" x1="45.8695" y1="91.0226" x2="98.6539" y2="91.0226" gradientUnits="userSpaceOnUse">
<stop offset="0.3275" stop-color="#F1E8DC"/>
<stop offset="1" stop-color="#FFC5A1"/>
</linearGradient>
<linearGradient id="paint44_linear_9002_28266" x1="88.0186" y1="110.272" x2="97.1979" y2="110.272" gradientUnits="userSpaceOnUse">
<stop offset="0.3275" stop-color="#F1E8DC"/>
<stop offset="1" stop-color="#FFC5A1"/>
</linearGradient>
<linearGradient id="paint45_linear_9002_28266" x1="41.8529" y1="96.205" x2="102.343" y2="96.205" gradientUnits="userSpaceOnUse">
<stop offset="0.3275" stop-color="#F1E8DC"/>
<stop offset="1" stop-color="#FFC5A1"/>
</linearGradient>
<linearGradient id="paint46_linear_9002_28266" x1="37.028" y1="101.072" x2="106.162" y2="101.072" gradientUnits="userSpaceOnUse">
<stop offset="0.3275" stop-color="#F1E8DC"/>
<stop offset="1" stop-color="#FFC5A1"/>
</linearGradient>
<linearGradient id="paint47_linear_9002_28266" x1="31.151" y1="71.64" x2="47.3401" y2="71.64" gradientUnits="userSpaceOnUse">
<stop offset="0.3275" stop-color="#F1E8DC"/>
<stop offset="1" stop-color="#FFC5A1"/>
</linearGradient>
<linearGradient id="paint48_linear_9002_28266" x1="27.3852" y1="87.0602" x2="56.5032" y2="87.0602" gradientUnits="userSpaceOnUse">
<stop offset="0.3275" stop-color="#F1E8DC"/>
<stop offset="1" stop-color="#FFC5A1"/>
</linearGradient>
<linearGradient id="paint49_linear_9002_28266" x1="23.231" y1="81.9692" x2="43.8578" y2="81.9692" gradientUnits="userSpaceOnUse">
<stop offset="0.3275" stop-color="#F1E8DC"/>
<stop offset="1" stop-color="#FFC5A1"/>
</linearGradient>
<linearGradient id="paint50_linear_9002_28266" x1="19.3906" y1="74.5121" x2="25.3813" y2="74.5121" gradientUnits="userSpaceOnUse">
<stop offset="0.3275" stop-color="#F1E8DC"/>
<stop offset="1" stop-color="#FFC5A1"/>
</linearGradient>
<linearGradient id="paint51_linear_9002_28266" x1="94.652" y1="150.235" x2="111.825" y2="150.235" gradientUnits="userSpaceOnUse">
<stop offset="0.3275" stop-color="#F1E8DC"/>
<stop offset="1" stop-color="#FFC5A1"/>
</linearGradient>
<linearGradient id="paint52_linear_9002_28266" x1="24.9882" y1="138.861" x2="95.2258" y2="93.2132" gradientUnits="userSpaceOnUse">
<stop offset="0.0873802" stop-color="#FFEAD6"/>
<stop offset="1" stop-color="#CB5D00"/>
</linearGradient>
</defs>
</svg>
