<svg width="200" height="200" viewBox="0 0 200 200" fill="none" xmlns="http://www.w3.org/2000/svg">
<path d="M151.954 44.7693C151.954 44.7693 168.018 69.3847 163.847 127.846L156.742 129.385C156.742 129.385 162.148 82.1539 148.71 44.6155L151.954 44.7693Z" fill="#60D1D9"/>
<path d="M156.742 129.385L163.847 127.846C163.847 127.846 154.271 137.692 151.027 140L156.742 129.385Z" fill="#5AC4CC"/>
<path d="M148.71 44.6155C162.148 82.0001 156.742 129.385 156.742 129.385L151.027 140C157.669 82.7693 146.085 44.6155 146.085 44.6155H148.71Z" fill="#4CCCDD"/>
<path d="M134.655 45.3845C138.671 45.2307 142.532 44.923 146.239 44.4614C146.239 44.4614 157.823 82.7691 151.182 139.846C151.182 139.846 107.161 152 75.0343 132.615C75.0343 132.615 75.3432 89.0768 77.5056 74.7691C80.5948 55.0768 87.082 42.4614 87.082 42.4614C87.082 42.4614 90.48 42.923 96.0405 43.5383C96.9673 43.6922 98.0485 43.6922 99.2841 43.846C103.763 44.3076 109.324 44.7691 115.193 45.0768C116.738 45.2307 118.437 45.2307 120.136 45.2307C123.379 45.3845 126.623 45.3845 130.021 45.3845C131.257 45.5383 132.956 45.5383 134.655 45.3845Z" fill="#47BCC4"/>
<path d="M75.9611 91.5386C75.0343 109.539 74.8799 132.615 74.8799 132.615C100.674 148.154 134.192 143.385 146.394 140.923C126.16 120.154 101.447 103.231 75.9611 91.5386Z" fill="#CEE9EB"/>
<g opacity="0.6" style="mix-blend-mode:overlay">
<path d="M101.447 56.1539C114.112 47.6924 131.257 48.7693 147.784 50.9232C146.857 46.7693 146.239 44.6155 146.239 44.6155C142.532 45.077 138.671 45.3847 134.655 45.5386C132.956 45.5386 131.257 45.6924 129.558 45.6924C126.314 45.6924 122.916 45.6924 119.672 45.5386C117.973 45.5386 116.429 45.3847 114.73 45.3847C109.015 44.9232 103.454 44.4616 98.9752 44.0001C97.894 44.0001 96.8128 43.8462 95.7316 43.6924C90.3256 43.077 86.7731 42.6155 86.7731 42.6155C86.7731 42.6155 80.2859 55.2309 77.1967 74.9232C75.0343 89.2308 74.7254 132.769 74.7254 132.769C83.375 137.846 92.6425 140.769 101.601 142.308C81.8304 117.539 73.4897 73.8462 101.447 56.1539Z" fill="#205659"/>
</g>
<path d="M153.653 30.7695L151.954 44.7695L148.71 44.6157L146.239 44.4618C148.556 42.4618 153.653 30.7695 153.653 30.7695Z" fill="#4CCCDD"/>
<path d="M132.647 35.2307C134.191 35.2307 135.582 38.3076 134.655 45.3846C132.956 45.3846 131.257 45.5384 129.558 45.5384C128.631 39.3846 130.793 35.2307 132.647 35.2307Z" fill="#4B9EB2"/>
<path d="M132.647 32.9231C106.698 33.0769 83.6839 30 83.6839 30C84.4562 34.4615 86.9275 42.6154 86.9275 42.6154C86.9275 42.6154 90.3256 43.0769 95.886 43.6923C90.48 33.0769 98.0484 30.6154 99.1296 44C103.609 44.4615 109.169 44.9231 115.039 45.2308C114.421 37.5385 119.672 35.5385 119.981 45.3846C123.225 45.5385 126.469 45.5385 129.867 45.5385C128.94 39.2308 131.102 35.2308 132.956 35.2308C134.5 35.2308 135.89 38.3077 134.964 45.3846C138.98 45.2308 142.841 44.9231 146.548 44.4615C148.865 42.3077 153.962 30.6154 153.962 30.6154C147.32 31.2308 138.825 32.9231 132.647 32.9231Z" fill="#5FD1D9"/>
<g opacity="0.6" style="mix-blend-mode:overlay">
<path d="M96.3494 31.3846C88.6265 30.6154 83.6839 30 83.6839 30C84.4562 34.4615 86.9275 42.6154 86.9275 42.6154C86.9275 42.6154 90.3256 43.0769 95.886 43.6923C90.48 33.0769 98.0484 30.6154 99.1296 44C103.609 44.4615 109.169 44.9231 115.039 45.2308C115.039 44.4615 115.039 43.6923 115.039 42.9231C108.552 39.5385 102.373 35.6923 96.3494 31.3846Z" fill="#1B3B3D"/>
</g>
<g opacity="0.6" style="mix-blend-mode:overlay">
<path d="M86.9275 42.616C86.9275 42.616 90.3256 43.0777 95.886 43.6932C95.4227 42.7699 94.9593 41.8466 94.8048 41.0772C92.0246 40.7694 89.0899 40.4617 86.3097 40C86.6186 41.6927 86.9275 42.616 86.9275 42.616Z" fill="#CEE9EB"/>
</g>
<g opacity="0.6" style="mix-blend-mode:overlay">
<path d="M98.6663 41.5386C98.8207 42.308 98.9752 43.0774 98.9752 44.0007C103.454 44.4624 109.015 44.924 114.884 45.2318C114.73 44.0007 114.884 43.0774 115.039 42.1541C109.478 42.1541 104.072 41.8463 98.6663 41.5386Z" fill="#CEE9EB"/>
</g>
<g opacity="0.6" style="mix-blend-mode:overlay">
<path d="M129.403 41.6924C126.16 41.8463 122.762 42.0002 119.518 42.154C119.672 43.0773 119.827 44.1545 119.827 45.3856C123.071 45.5395 126.314 45.5395 129.712 45.5395C129.403 44.1545 129.249 42.9235 129.403 41.6924Z" fill="#CEE9EB"/>
</g>
<path d="M152.726 33.6923C153.344 32 153.653 30.6154 153.653 30.6154C147.32 31.0769 138.825 32.7692 132.647 32.9231C106.698 33.0769 83.6839 30 83.6839 30C83.8384 30.6154 83.9928 31.3846 84.1473 32.1538C100.056 33.8462 116.12 35.0769 132.184 35.2308C132.338 35.2308 132.492 35.0769 132.647 35.0769C132.801 35.0769 132.956 35.0769 133.11 35.2308C138.98 35.3846 146.857 33.8462 152.726 33.6923Z" fill="#55BBC2"/>
<g opacity="0.6" style="mix-blend-mode:overlay">
<path d="M134.964 41.3847C134.964 42.6155 134.809 43.8462 134.655 45.5385C138.671 45.3847 142.532 45.077 146.239 44.6155C147.166 43.8462 148.093 41.8462 149.019 39.6924C144.231 40.4616 139.598 40.9232 134.964 41.3847Z" fill="#CEE9EB"/>
</g>
<path d="M119.827 45.3846C118.128 45.3846 116.583 45.2308 114.884 45.2308C114.267 37.5384 119.518 35.5384 119.827 45.3846Z" fill="#4B9EB2"/>
<path d="M98.9752 44C97.894 44 96.8128 43.8461 95.7316 43.6923C90.3256 33.0769 97.894 30.7692 98.9752 44Z" fill="#4B9EB2"/>
<path d="M143.922 109.692C143.922 87.2309 142.996 68.7693 142.996 68.7693V68.6155C115.039 69.3847 95.7316 67.6924 86.1552 66.6155L82.6027 107.692C94.6504 109.385 119.672 112.308 144.077 110.154L143.922 109.692Z" fill="#FC8700"/>
<path d="M144.695 110.615C144.695 88.1539 143.768 69.6924 143.768 69.6924V69.5386C115.811 70.3078 96.5039 68.4617 86.7731 67.5386L83.375 108.615C95.4227 110.308 120.445 113.231 144.849 111.077L144.695 110.615Z" fill="#F0AC5B"/>
<g opacity="0.8" style="mix-blend-mode:overlay">
<path d="M144.695 110.615C144.695 101.077 144.54 92.3078 144.386 85.2309C132.956 80.7693 121.989 75.3847 111.332 69.3847C100.365 68.9232 92.0246 68.154 86.7731 67.5386L85.5374 82.7693C101.138 95.2309 119.209 104.923 138.516 111.539C140.524 111.385 142.687 111.231 144.695 111.077V110.615Z" fill="url(#paint0_linear_2009_25375)"/>
</g>
<path d="M93.4147 77.8461L92.7969 85.5384V86.6153H93.5692C94.8049 86.6153 95.4227 87.0769 95.4227 87.6922C95.4227 87.9999 95.2682 88.3076 94.9593 88.4615C94.6504 88.6153 94.3415 88.7692 93.8781 88.7692C93.4147 88.7692 92.9514 88.6153 92.488 88.4615L92.1791 99.2307C92.1791 100.308 91.7157 100.923 91.0979 100.923C90.6345 100.923 90.3256 100.769 89.7078 100.308C90.0167 97.9999 90.3256 94.7692 90.4801 90.6153C90.789 86.4615 90.9434 83.6922 91.0979 82.4615V81.5384C91.2523 79.6922 91.4068 77.9999 91.4068 76.3076C91.4068 75.9999 91.5613 75.6923 91.8702 75.5384C92.1791 75.3846 92.488 75.2307 92.9514 75.2307C93.2603 75.2307 93.7237 75.2307 94.187 75.2307C94.6504 75.2307 95.1138 75.3846 95.7316 75.5384C97.1217 75.8461 97.894 76.3076 97.894 76.923C97.894 77.6923 97.2762 77.9999 95.8861 77.9999C95.4227 77.6923 94.6504 77.5384 93.8781 77.5384H93.4147V77.8461Z" fill="white"/>
<path d="M101.91 79.5385L101.755 88.7693C101.601 89.077 101.447 89.5385 101.447 90V90.7693L101.138 96.7693C101.138 98.4616 101.447 99.3846 102.373 99.3846H103.918C105.308 99.3846 105.926 99.8462 105.926 100.615C105.926 100.923 105.771 101.077 105.617 101.231C105.308 101.385 105.153 101.538 104.845 101.538C103.918 101.231 102.837 101.077 101.447 100.923C100.983 101.077 100.674 101.231 100.211 101.231C99.9019 101.231 99.593 101.077 99.2841 100.769C98.9752 100.769 98.8207 100.462 98.8207 100.154C98.8207 98.3077 99.1297 95.3846 99.2841 91.6923C99.593 87.8462 99.7475 85.077 99.7475 83.2308V82.9231C99.593 81.3847 99.593 80.1539 99.593 79.3846C99.7475 76.9231 100.211 75.8462 100.983 75.8462C101.292 75.8462 101.447 76 101.601 76.1539C101.755 76.3077 101.91 76.6154 101.91 76.7693V79.5385Z" fill="white"/>
<path d="M107.625 89.3844L107.779 87.9998C107.779 87.846 107.779 87.846 107.779 87.846V87.2306C107.934 83.2306 108.243 80.4614 108.706 78.7691C109.169 77.3844 109.478 76.4614 109.942 76.1537C110.251 75.846 110.714 75.6921 111.023 75.6921C113.958 75.846 115.966 77.3844 117.047 80.3075C117.665 81.9998 117.819 84.1537 117.819 86.6152V86.9229V91.2306C117.51 98.6152 115.811 102.154 112.413 102C111.023 102 109.942 101.077 109.324 99.5383C108.706 97.9998 108.243 96.6152 108.088 95.0767C107.625 92.9229 107.625 91.0767 107.625 89.3844ZM110.096 84.3075L109.787 87.846C109.633 91.5383 109.787 94.7691 110.405 97.5383C111.023 99.2306 111.486 100.154 112.104 100.461C112.567 100.461 113.031 100.308 113.34 99.9998C113.803 99.6921 114.112 99.0767 114.266 98.4614C114.575 97.846 114.73 97.2306 114.884 96.4614C115.039 95.846 115.193 95.0767 115.348 94.3075C115.502 92.9229 115.657 91.846 115.657 90.9229C115.657 89.9998 115.657 88.4614 115.502 86.4614C115.348 84.4614 115.348 83.0767 115.348 81.9998V81.3844C115.348 80.4614 115.039 79.5383 114.575 78.9229C113.958 78.1537 113.34 77.846 112.413 77.6921C111.486 77.6921 110.868 78.1537 110.56 79.0768C110.251 79.846 110.096 80.9229 110.096 82.1537V84.3075Z" fill="white"/>
<path d="M129.558 84.7693V85.3846C129.249 96.6154 127.395 102.308 123.997 102.154C122.762 102.154 121.835 101.538 121.217 100.462C120.599 99.3846 120.29 98.3077 120.136 97.2308C119.981 95.5385 119.981 93.6923 119.981 91.6923C119.981 89.5385 120.136 86.6154 120.29 82.6154V77.077C120.599 76.6154 120.754 76.3077 121.063 76.3077C121.372 76.3077 121.68 76.6154 121.835 77.077C121.989 77.5385 122.144 78 122.144 78.6154L121.989 88.9231C121.989 89.8462 121.989 91.2308 122.144 92.9231C122.298 94.7693 122.298 96 122.298 96.9231C122.298 98.7693 123.071 99.6923 124.615 99.8462C126.469 99.8462 127.55 93.0769 128.013 79.3846V77.2308V76.6154C128.013 76.3077 128.168 76.1539 128.168 76C128.322 75.8462 128.477 75.8462 128.94 75.8462C129.249 75.8462 129.558 75.8462 129.712 76C129.867 76.1539 130.021 76.3077 130.021 76.4616C130.176 76.7693 130.176 77.2308 130.176 77.6923L129.712 81.5385L129.558 84.7693Z" fill="white"/>
<path d="M134.037 89.2307L133.883 93.3845C133.728 96.7691 133.883 99.3845 134.346 101.384L133.883 102.308H132.801L132.338 101.692C132.338 100.615 132.492 99.2306 132.492 97.846C132.492 96.4614 132.492 93.3845 132.492 88.7691C132.492 84.1537 132.492 80.6153 132.492 78.3076C132.492 77.0768 132.956 76.4614 133.883 76.6153C135.273 76.6153 136.354 77.0768 137.281 77.846C138.207 78.6153 138.516 79.5383 138.516 80.923L138.362 83.5383C138.362 84.3076 138.207 84.923 137.898 85.5383C137.59 86.1537 137.281 86.7691 136.817 87.3845C136.508 87.9999 136.199 88.4614 136.199 88.4614C136.354 89.0768 136.508 90.3076 136.817 92.1537C137.435 96.1537 138.207 99.0768 138.98 100.769C139.289 101.231 139.289 101.692 139.289 102C139.289 102.308 139.134 102.461 138.98 102.769C138.825 102.923 138.671 103.077 138.362 103.077C137.898 103.077 137.281 102.461 136.817 101.231C136.354 99.9999 136.045 98.6153 135.736 97.0768C134.964 92.4614 134.5 89.9999 134.346 89.5383L134.037 89.2307ZM134.5 77.9999L134.346 78.4614C134.346 79.5384 134.346 81.0768 134.346 82.923C134.346 84.923 134.346 86.3076 134.346 87.2307C134.964 86.923 135.427 86.1537 135.891 84.923C136.354 83.6922 136.508 82.6153 136.508 81.9999C136.508 81.2307 136.508 80.7691 136.508 80.4614C136.508 80.1537 136.354 79.6922 136.354 79.3845C136.045 78.4614 135.427 77.9999 134.5 77.9999Z" fill="white"/>
<path d="M17.5761 152.923C11.0889 149.077 63.9133 92.923 71.0184 94.3077C78.2779 95.6923 87.6998 106 87.6998 106C87.6998 106 92.7968 103.077 107.007 120.308C121.371 137.846 139.752 163.692 110.096 153.077C90.3255 145.846 96.0405 164.308 77.66 161.846C69.6282 160.769 51.8656 152.308 48.0042 151.077C38.4279 148.154 22.0554 155.692 17.5761 152.923Z" fill="#ECE5DA"/>
<g opacity="0.8" style="mix-blend-mode:overlay">
<path d="M69.7827 94.4614C68.3926 94.923 66.5391 96.1537 64.2223 97.846C57.8895 115.231 54.4914 134.769 54.9548 153.692C62.0598 156.615 72.0996 160.923 77.66 161.692C81.367 162.154 83.9928 161.846 86.1552 161.077C70.0916 145.538 64.5312 117.846 69.7827 94.4614Z" fill="url(#paint1_linear_2009_25375)"/>
</g>
<g opacity="0.8" style="mix-blend-mode:overlay">
<path d="M71.0184 94.3077C63.7589 92.923 10.9345 149.077 17.5761 152.923C21.7465 155.385 35.6477 149.231 45.3785 150.461C50.9389 130.615 61.442 111.846 75.6521 96.1538C74.1075 95.2307 72.4085 94.6153 71.0184 94.3077Z" fill="url(#paint2_linear_2009_25375)"/>
</g>
<path d="M114.266 154.308C137.744 160.923 120.599 136.769 106.852 120.308C92.6424 103.077 87.5453 106 87.5453 106C87.5453 106 83.9928 102.154 79.668 98.9231C97.7395 113.538 107.779 133.077 114.266 154.308Z" fill="url(#paint3_linear_2009_25375)"/>
<path d="M145.467 138.154C148.865 137.385 152.263 136.462 155.661 135.231C158.905 134 162.303 132.77 165.083 130.77C162.148 132.77 158.905 134.308 155.661 135.539C152.417 136.77 149.019 137.846 145.621 138.616L145.467 138.154Z" fill="#EA9C00"/>
<path d="M133.574 135.385C136.354 133.846 139.289 132.615 142.223 131.692C145.158 130.769 148.247 130 151.336 129.692C148.247 130 145.158 130.769 142.223 131.846C139.289 132.923 136.508 134.154 133.728 135.692L133.574 135.385Z" fill="#EA9C00"/>
<path d="M136.663 146.616C139.289 146.77 141.914 146.462 144.54 146.001C147.166 145.539 149.792 144.77 152.263 143.846C149.792 144.923 147.32 145.693 144.695 146.308C142.069 146.924 139.443 147.232 136.663 147.078V146.616Z" fill="#EA9C00"/>
<path d="M127.55 149.077C130.021 149.692 132.801 150 135.427 150.154C138.053 150.154 140.679 149.846 143.304 149.231C140.679 149.846 138.053 150.308 135.427 150.308C132.801 150.308 130.176 150.154 127.55 149.538V149.077Z" fill="#EA9C00"/>
<path d="M124.152 137.846C125.851 136.308 127.704 134.769 129.558 133.385C131.411 132 133.574 130.769 135.736 130C133.574 130.923 131.566 132.154 129.712 133.538C127.859 134.923 126.005 136.462 124.461 138.154L124.152 137.846Z" fill="#EA9C00"/>
<path d="M118.282 151.539C120.445 152.462 122.762 153.077 125.079 153.539C127.395 154.001 129.712 154.309 132.184 154.309C129.712 154.462 127.395 154.309 125.079 153.847C122.762 153.385 120.445 152.77 118.128 152L118.282 151.539Z" fill="#EA9C00"/>
<path d="M115.039 140.462C115.502 139.385 116.12 138.769 116.892 138C117.665 137.231 118.437 136.616 119.209 136.154C120.908 134.923 122.762 134 124.461 133.231C122.607 134.154 120.908 135.231 119.209 136.308C118.437 136.923 117.665 137.539 116.892 138.308C116.274 139.077 115.502 139.846 115.193 140.616L115.039 140.462Z" fill="#EA9C00"/>
<path d="M129.094 142.923L100.829 150.769C96.195 152.154 91.5612 153.539 86.7731 154.769L72.563 158.462V158.308C77.0423 156.154 81.676 154.615 86.3097 153.077C90.9434 151.692 95.7316 150.462 100.52 149.385C109.942 147.077 119.518 144.769 129.094 142.769V142.923Z" fill="#EA9C00"/>
<path d="M129.094 142.923C136.045 133.385 145.467 138.462 145.467 138.462C145.467 138.462 140.37 147.385 129.094 142.923Z" fill="#EA9C00"/>
<path d="M119.672 146C129.249 139.077 136.663 146.923 136.663 146.923C136.663 146.923 128.94 153.846 119.672 146Z" fill="#EDB400"/>
<path d="M119.364 144.769C131.102 146 133.728 135.538 133.728 135.538C133.728 135.538 123.379 133.384 119.364 144.769Z" fill="#EDB400"/>
<path d="M110.405 148.462C119.981 141.539 127.395 149.231 127.395 149.231C127.395 149.231 119.672 156.308 110.405 148.462Z" fill="#EFC100"/>
<path d="M110.096 147.231C121.835 148.461 124.461 138 124.461 138C124.461 138 114.112 135.846 110.096 147.231Z" fill="#EFC100"/>
<path d="M101.138 150.923C110.714 144 118.128 151.846 118.128 151.846C118.128 151.846 110.56 158.769 101.138 150.923Z" fill="#F7C903"/>
<path d="M100.829 149.692C112.567 150.923 115.193 140.461 115.193 140.461C115.193 140.461 104.999 138.308 100.829 149.692Z" fill="#F7C903"/>
<path d="M92.0247 153.385C101.601 146.462 109.015 154.308 109.015 154.308C109.015 154.308 101.292 161.231 92.0247 153.385Z" fill="#FFD615"/>
<path d="M91.7157 152.308C103.454 153.539 106.08 143.077 106.08 143.077C106.08 143.077 95.7316 140.769 91.7157 152.308Z" fill="#FFD615"/>
<path d="M128.94 142.769C130.639 140.308 133.265 138.154 136.354 137.231C139.443 136.462 142.687 136.923 145.467 138.154V138.462C143.768 138.462 142.378 138.308 140.833 138.462C139.443 138.615 138.053 138.769 136.817 139.077C135.582 139.385 134.346 140 132.956 140.615C131.875 141.231 130.639 142 128.94 142.769Z" fill="#EFC206"/>
<path d="M145.621 138.461C143.922 141.077 141.297 143.231 138.207 144C135.118 144.769 131.875 144.154 128.94 143.077V142.923C130.639 142.923 132.184 142.923 133.574 142.923C134.964 142.769 136.354 142.615 137.59 142.308C138.825 142 140.061 141.538 141.451 140.769C142.687 140.154 143.922 139.385 145.312 138.308L145.621 138.461Z" fill="#E88F00"/>
<path d="M136.663 146.923C135.273 148 133.728 148.923 132.184 149.385C130.485 149.847 128.785 150.001 127.086 149.693V149.539C128.94 148.923 130.33 148.616 131.875 148L134.191 147.385C134.809 147.077 135.736 146.923 136.663 146.923Z" fill="#EA9600"/>
<path d="M127.859 143.077C129.558 143.077 131.102 143.384 132.647 144C134.191 144.616 135.582 145.539 136.663 146.77L136.508 146.924C134.655 146.462 133.419 145.847 132.029 145.385C131.411 145.077 130.639 144.769 130.021 144.462C129.403 144 128.631 143.692 127.859 143.077Z" fill="#FFBE06"/>
<path d="M133.574 135.692C131.72 136.616 130.33 136.923 128.94 137.385C128.168 137.539 127.55 137.693 126.778 137.847C126.005 138.001 125.233 138.154 124.152 138.154L123.997 138.001C125.387 136.923 126.932 136.154 128.631 135.692C130.33 135.384 132.029 135.231 133.728 135.538L133.574 135.692Z" fill="#FFBE06"/>
<path d="M119.827 144.769C122.762 144.923 126.005 144.308 128.477 142.615C130.948 140.923 132.801 138.308 133.728 135.539H133.883C134.037 137.231 133.574 138.769 132.801 140.308C132.029 141.846 130.793 143.077 129.403 144.154C128.013 145.077 126.314 145.692 124.615 145.846C122.916 146 121.217 145.692 119.827 144.923V144.769Z" fill="#C18E00"/>
<path d="M119.827 144.769C121.372 144.308 122.762 143.846 123.997 143.385C125.233 142.923 126.469 142.308 127.55 141.539C128.631 140.769 129.558 140 130.639 138.923C131.566 137.846 132.492 136.769 133.574 135.539H133.728C132.801 138.462 131.102 141.077 128.477 142.923C125.851 144.615 122.762 145.231 119.672 144.923L119.827 144.769Z" fill="#EA9600"/>
<path d="M127.395 149.385C126.16 150.462 124.615 151.231 122.916 151.847C121.217 152.309 119.518 152.462 117.819 152.155V152.001C119.518 151.385 121.063 150.924 122.453 150.462L124.615 149.846C125.696 149.693 126.469 149.539 127.395 149.385Z" fill="#EDA900"/>
<path d="M118.591 145.539C119.364 144.923 120.445 144.615 121.371 144.615C122.298 144.615 123.225 144.769 123.997 145.077C124.77 145.539 125.542 146 126.16 146.615C126.777 147.231 127.241 148.154 127.395 149.077L127.241 149.231C126.005 148.154 124.615 147.231 123.071 146.615C121.526 146 119.981 145.539 118.437 145.539H118.591Z" fill="#C18E00"/>
<path d="M118.591 145.539C120.29 145.539 121.835 145.846 123.379 146.462C124.924 147.077 126.314 148.001 127.395 149.232L127.241 149.386C125.387 148.924 124.152 148.309 122.762 147.847C122.144 147.539 121.372 147.231 120.754 146.924C120.136 146.616 119.364 146.154 118.591 145.539Z" fill="#F4D100"/>
<path d="M124.306 138.154C123.379 138.462 122.607 138.77 121.835 138.924L119.518 139.539C117.973 139.847 116.583 140.308 114.73 140.616L114.575 140.462C115.966 139.385 117.51 138.616 119.209 138.154C120.908 137.692 122.762 137.692 124.306 138.154Z" fill="#F4D100"/>
<path d="M110.559 147.231C113.494 147.385 116.583 146.769 119.055 145.077C121.526 143.385 123.379 140.769 124.306 138H124.461C124.615 139.692 124.152 141.231 123.379 142.769C122.607 144.308 121.526 145.538 119.981 146.615C118.591 147.538 116.892 148.154 115.193 148.308C113.494 148.462 111.795 148.154 110.405 147.385L110.559 147.231Z" fill="#C18E00"/>
<path d="M110.56 147.231C112.104 146.769 113.494 146.308 114.73 145.846C115.966 145.385 117.201 144.769 118.282 144C119.364 143.231 120.29 142.462 121.372 141.385C122.298 140.462 123.225 139.231 124.306 138H124.461C123.688 140.923 121.835 143.538 119.364 145.385C116.738 147.077 113.649 147.692 110.56 147.385V147.231Z" fill="#EDA900"/>
<path d="M118.282 151.846C117.047 152.923 115.502 153.693 113.803 154.308C112.104 154.77 110.405 154.924 108.706 154.616V154.462C110.559 153.846 111.95 153.385 113.34 152.923L115.657 152.308C116.429 152.154 117.201 152 118.282 151.846Z" fill="#F4B006"/>
<path d="M109.478 148C110.251 147.384 111.332 147.077 112.104 147.077C113.031 147.077 113.958 147.231 114.73 147.538C115.502 148 116.274 148.461 116.892 149.077C117.51 149.692 117.973 150.615 118.128 151.538L117.973 151.692C116.738 150.615 115.348 149.692 113.958 149.077C112.567 148.461 110.868 148 109.324 148H109.478Z" fill="#C49E00"/>
<path d="M109.478 148C111.177 148 112.722 148.308 114.266 148.923C115.811 149.539 117.201 150.462 118.282 151.693L118.128 151.847C116.429 151.385 115.039 150.77 113.649 150.308C113.031 150 112.259 149.692 111.641 149.385C110.868 149.077 110.251 148.615 109.478 148Z" fill="#FFD41F"/>
<path d="M115.193 140.615C114.267 140.923 113.494 141.231 112.722 141.385L110.405 142C108.86 142.308 107.47 142.77 105.617 143.077L105.462 142.924C106.853 141.846 108.397 141.077 110.096 140.615C111.795 140.154 113.494 140.154 115.193 140.615Z" fill="#FFD41F"/>
<path d="M101.292 149.692C104.227 149.846 107.316 149.231 109.787 147.539C112.259 145.846 114.112 143.231 115.039 140.462H115.193C115.348 142.154 114.884 143.692 114.112 145.231C113.34 146.769 112.259 148 110.714 149.077C109.324 150 107.625 150.616 105.926 150.769C104.227 150.923 102.528 150.616 101.138 149.846L101.292 149.692Z" fill="#C49E00"/>
<path d="M101.292 149.692C102.837 149.231 104.227 148.769 105.462 148.308C106.698 147.846 107.934 147.231 109.015 146.462C110.096 145.692 111.023 144.923 112.104 143.846C113.031 142.923 113.958 141.692 115.039 140.462H115.193C114.421 143.385 112.567 146 110.096 147.846C107.47 149.539 104.381 150.154 101.292 149.846V149.692Z" fill="#F4B006"/>
<path d="M109.169 154.308C106.698 156.308 103.609 157.385 100.52 157.231C97.2762 157.077 94.496 155.385 92.0247 153.385L92.1791 153.231C93.7237 153.692 95.1138 154.308 96.5039 154.616C97.894 154.923 99.2842 155.231 100.52 155.385C101.91 155.539 103.146 155.385 104.536 155.231C105.926 155.077 107.47 154.616 109.169 154.308Z" fill="#FFC217"/>
<path d="M100.211 150.462C100.983 149.846 102.064 149.539 102.991 149.539C103.918 149.539 104.845 149.692 105.617 150C106.389 150.462 107.161 150.923 107.779 151.539C108.397 152.154 108.86 153.077 109.015 154L108.86 154.154C107.625 153.077 106.235 152.154 104.69 151.539C103.146 150.923 101.601 150.462 100.056 150.462H100.211Z" fill="#D6AD00"/>
<path d="M100.211 150.462C101.91 150.462 103.454 150.769 104.999 151.385C106.544 152.001 107.934 152.924 109.015 154.155L108.86 154.309C107.007 153.847 105.771 153.232 104.381 152.77C103.763 152.462 102.991 152.154 102.373 151.847C101.755 151.539 100.983 151.077 100.211 150.462Z" fill="#FFEE17"/>
<path d="M91.7157 152.154C94.8049 152.462 98.0485 151.846 100.52 150.154C103.146 148.462 104.999 145.846 105.926 142.923H106.08C106.235 144.615 105.771 146.308 104.999 147.846C104.227 149.385 102.991 150.615 101.447 151.692C99.902 152.615 98.2029 153.231 96.5039 153.385C94.8049 153.538 93.1059 153.231 91.5613 152.462L91.7157 152.154Z" fill="#D6AD00"/>
<path d="M91.7157 152.154C93.2603 151.692 94.8049 151.231 96.0405 150.769C97.4307 150.308 98.6663 149.692 99.7475 148.923C100.829 148.154 101.91 147.385 102.991 146.308C103.918 145.231 104.999 144.154 105.926 142.923H106.08C105.154 145.846 103.3 148.615 100.674 150.462C98.0485 152.154 94.6504 152.615 91.5613 152.308L91.7157 152.154Z" fill="#FFC217"/>
<path d="M105.926 143.077C104.381 143.385 102.837 143.846 101.601 144.308C100.211 144.769 99.1297 145.385 97.894 146.154C96.8128 146.923 95.7316 147.846 94.8049 148.769C93.8781 149.846 92.7969 150.923 91.7157 152.154H91.5613C92.6425 149.231 94.3415 146.462 96.9673 144.615C99.5931 142.923 102.837 142.308 105.926 142.769V143.077Z" fill="#FFEE17"/>
<g opacity="0.2" style="mix-blend-mode:overlay">
<path d="M100.983 147.231C98.6663 148 96.6583 147.692 96.3494 146.769C96.0405 145.692 97.5851 144.307 99.7475 143.692C102.064 142.923 104.072 143.231 104.381 144.154C104.69 145.077 103.146 146.461 100.983 147.231Z" fill="url(#paint4_radial_2009_25375)"/>
</g>
<g opacity="0.2" style="mix-blend-mode:overlay">
<path d="M111.177 144.462C108.86 145.231 106.853 144.923 106.544 144C106.235 143.077 107.779 141.538 110.096 140.923C112.413 140.154 114.421 140.462 114.73 141.385C115.039 142.308 113.494 143.692 111.177 144.462Z" fill="url(#paint5_radial_2009_25375)"/>
</g>
<g opacity="0.2" style="mix-blend-mode:overlay">
<path d="M120.136 142C117.819 142.769 115.811 142.462 115.502 141.539C115.193 140.462 116.738 139.077 119.055 138.462C121.372 137.692 123.379 138 123.688 138.923C123.997 139.846 122.298 141.231 120.136 142Z" fill="url(#paint6_radial_2009_25375)"/>
</g>
<g opacity="0.2" style="mix-blend-mode:overlay">
<path d="M129.249 139.539C126.932 140.308 124.924 140 124.615 139.077C124.306 138.154 125.851 136.616 128.168 136C130.485 135.231 132.492 135.539 132.801 136.462C133.11 137.385 131.566 138.769 129.249 139.539Z" fill="url(#paint7_radial_2009_25375)"/>
</g>
<g opacity="0.2" style="mix-blend-mode:overlay">
<path d="M138.671 141.538C135.891 142 133.574 141.538 133.419 140.462C133.265 139.385 135.273 138.308 138.053 137.846C140.833 137.385 143.15 137.846 143.304 138.923C143.459 139.846 141.451 141.077 138.671 141.538Z" fill="url(#paint8_radial_2009_25375)"/>
</g>
<g opacity="0.2" style="mix-blend-mode:overlay">
<path d="M131.566 147.385C129.712 146.616 128.477 145.385 128.785 144.616C129.094 143.846 130.793 143.692 132.647 144.462C134.5 145.231 135.736 146.462 135.427 147.232C135.273 148.001 133.419 148.155 131.566 147.385Z" fill="url(#paint9_radial_2009_25375)"/>
</g>
<g opacity="0.2" style="mix-blend-mode:overlay">
<path d="M122.453 149.847C120.599 149.078 119.364 147.847 119.672 147.077C119.981 146.308 121.68 146.154 123.534 146.923C125.387 147.693 126.623 148.924 126.314 149.693C126.005 150.463 124.306 150.617 122.453 149.847Z" fill="url(#paint10_radial_2009_25375)"/>
</g>
<g opacity="0.2" style="mix-blend-mode:overlay">
<path d="M113.031 152.308C111.177 151.539 109.942 150.308 110.251 149.538C110.56 148.769 112.259 148.615 114.112 149.385C115.966 150.154 117.201 151.385 116.892 152.154C116.738 152.924 114.884 153.078 113.031 152.308Z" fill="url(#paint11_radial_2009_25375)"/>
</g>
<g opacity="0.2" style="mix-blend-mode:overlay">
<path d="M104.227 154.924C102.373 154.155 101.138 152.924 101.447 152.154C101.755 151.385 103.454 151.231 105.308 152C107.161 152.77 108.397 154.001 108.088 154.77C107.779 155.54 106.08 155.693 104.227 154.924Z" fill="url(#paint12_radial_2009_25375)"/>
</g>
<path d="M162.148 157.693C165.701 157.847 169.253 157.693 172.651 157.385C176.204 157.078 179.602 156.616 183 155.385C179.756 156.616 176.204 157.231 172.651 157.539C169.099 157.847 165.546 158.001 161.994 158.001L162.148 157.693Z" fill="#EA9C00"/>
<path d="M151.336 152C154.425 151.231 157.515 150.769 160.604 150.616C163.693 150.462 166.936 150.462 169.871 151.077C166.782 150.616 163.693 150.616 160.604 150.923C157.515 151.231 154.425 151.693 151.491 152.616L151.336 152Z" fill="#EA9C00"/>
<path d="M151.491 163.692C153.962 164.462 156.588 164.923 159.368 165.077C161.994 165.231 164.774 165.231 167.4 164.923C164.774 165.231 162.148 165.385 159.368 165.385C156.742 165.231 153.962 164.923 151.491 164.154V163.692Z" fill="#EA9C00"/>
<path d="M141.914 163.846C144.231 165.077 146.703 166.154 149.174 166.769C151.645 167.538 154.425 167.846 157.051 168C154.425 168 151.8 167.692 149.174 167.077C146.548 166.462 144.077 165.539 141.76 164.308L141.914 163.846Z" fill="#EA9C00"/>
<path d="M141.605 152.154C143.613 151.077 145.776 150 148.093 149.231C150.255 148.462 152.572 147.692 154.889 147.539C152.572 147.846 150.255 148.615 148.093 149.385C145.93 150.308 143.768 151.385 141.76 152.462L141.605 152.154Z" fill="#EA9C00"/>
<path d="M132.492 163.846C134.346 165.231 136.354 166.462 138.516 167.538C140.679 168.615 142.841 169.385 145.158 170C142.841 169.538 140.524 168.769 138.362 167.692C136.199 166.769 134.192 165.538 132.184 164.154L132.492 163.846Z" fill="#EA9C00"/>
<path d="M132.029 152.308C132.647 151.385 133.574 150.923 134.5 150.308C135.427 149.846 136.354 149.385 137.281 149.077C139.134 148.462 141.142 147.846 143.15 147.539C141.142 148 139.134 148.462 137.281 149.231C136.354 149.539 135.427 150 134.5 150.615C133.728 151.077 132.801 151.692 132.338 152.462L132.029 152.308Z" fill="#EA9C00"/>
<path d="M145.003 158.308L115.657 158.77C110.714 158.924 105.926 159.078 100.983 159.078H86.3097V158.924C91.0979 157.846 96.0405 157.693 100.983 157.385C105.926 157.231 110.714 157.385 115.657 157.385C125.387 157.539 135.273 157.846 145.003 158.154V158.308Z" fill="#EA9C00"/>
<path d="M145.004 158.154C154.116 150.769 161.994 158 161.994 158C161.994 158 154.889 165.384 145.004 158.154Z" fill="#EA9C00"/>
<path d="M135.118 158.769C146.085 154.615 151.336 163.846 151.336 163.846C151.336 163.846 142.223 168.769 135.118 158.769Z" fill="#EDB400"/>
<path d="M135.118 157.539C146.085 161.693 151.336 152.308 151.336 152.308C151.336 152.308 142.069 147.693 135.118 157.539Z" fill="#EDB400"/>
<path d="M125.542 158.923C136.508 154.769 141.76 164 141.76 164C141.76 164 132.492 168.769 125.542 158.923Z" fill="#EFC100"/>
<path d="M125.542 157.692C136.508 161.692 141.76 152.308 141.76 152.308C141.76 152.308 132.338 147.692 125.542 157.692Z" fill="#EFC100"/>
<path d="M115.966 158.923C126.932 154.769 132.184 164 132.184 164C132.184 164 123.071 168.769 115.966 158.923Z" fill="#F7C903"/>
<path d="M115.966 157.692C126.932 161.846 132.184 152.308 132.184 152.308C132.184 152.308 122.916 147.692 115.966 157.692Z" fill="#F7C903"/>
<path d="M106.544 159.077C117.51 154.923 122.762 164.154 122.762 164.154C122.762 164.154 113.494 168.923 106.544 159.077Z" fill="#FFD615"/>
<path d="M106.544 157.846C117.51 161.846 122.762 152.462 122.762 152.462C122.762 152.462 113.34 147.846 106.544 157.846Z" fill="#FFD615"/>
<path d="M145.004 158.155C147.32 156.154 150.41 154.769 153.499 154.615C156.742 154.615 159.677 155.847 162.148 157.847L161.994 158.001C160.449 157.539 159.059 157.078 157.515 156.77C156.124 156.462 154.734 156.308 153.499 156.308C152.109 156.308 150.873 156.462 149.483 156.77C148.093 157.232 146.703 157.847 145.004 158.155Z" fill="#EFC206"/>
<path d="M162.148 158C159.831 160.154 156.742 161.385 153.653 161.539C150.41 161.539 147.475 160.154 145.004 158.308L145.158 158.154C146.703 158.616 148.247 159.077 149.637 159.385C151.027 159.693 152.417 159.847 153.653 159.847C155.043 159.847 156.279 159.693 157.669 159.385C159.059 158.923 160.449 158.462 162.148 158Z" fill="#E88F00"/>
<path d="M151.491 164C149.946 164.77 148.247 165.077 146.548 165.231C144.849 165.231 143.15 164.923 141.451 164.308V164.154C143.304 164 144.849 164 146.394 164H148.71C149.637 163.846 150.41 163.846 151.491 164Z" fill="#EA9600"/>
<path d="M143.768 158.154C145.312 158.616 146.857 159.385 148.247 160.308C149.483 161.385 150.718 162.616 151.491 164H151.336C149.792 163.077 148.556 162.154 147.32 161.385C146.703 160.923 146.085 160.462 145.621 160C145.004 159.385 144.386 158.923 143.768 158.154Z" fill="#FFBE06"/>
<path d="M151.336 152.308C149.328 152.769 147.938 152.769 146.394 152.769C145.621 152.769 144.849 152.769 144.077 152.616C143.304 152.616 142.378 152.462 141.451 152.154V152C142.996 151.231 144.695 150.923 146.548 150.923C148.247 150.923 149.946 151.385 151.491 152.154L151.336 152.308Z" fill="#FFBE06"/>
<path d="M135.582 157.692C138.362 158.616 141.605 158.923 144.386 157.846C147.166 156.923 149.637 154.769 151.182 152.308H151.336C151.027 154 150.255 155.385 149.174 156.616C148.093 157.846 146.548 158.769 145.003 159.385C143.304 160 141.605 160.154 139.906 159.846C138.207 159.539 136.663 158.923 135.427 157.846L135.582 157.692Z" fill="#C18E00"/>
<path d="M135.582 157.692C137.281 157.539 138.671 157.539 140.061 157.385C141.451 157.231 142.687 156.923 143.922 156.462C145.158 156 146.394 155.385 147.629 154.769C148.865 154 149.946 153.231 151.336 152.308C149.792 154.923 147.32 157.077 144.386 158.154C141.451 159.231 138.207 158.923 135.427 157.846L135.582 157.692Z" fill="#EA9600"/>
<path d="M141.76 164C140.215 164.769 138.516 165.077 136.817 165.231C135.118 165.231 133.419 164.923 131.875 164.308V164.154C133.728 164 135.273 164 136.817 163.846H139.134C140.061 163.846 140.833 163.846 141.76 164Z" fill="#EDA900"/>
<path d="M134.192 158.154C135.118 157.692 136.199 157.846 136.972 158C137.898 158.154 138.671 158.615 139.443 159.231C140.215 159.846 140.833 160.462 141.142 161.231C141.605 162 141.914 162.923 141.76 164L141.605 164.154C140.679 162.769 139.598 161.538 138.362 160.615C137.126 159.539 135.582 158.769 134.037 158.308L134.192 158.154Z" fill="#C18E00"/>
<path d="M134.191 158.154C135.736 158.616 137.281 159.385 138.671 160.308C139.906 161.385 141.142 162.616 141.914 164H141.76C140.215 163.077 138.98 162.154 137.744 161.385C137.126 160.923 136.508 160.462 136.045 160C135.427 159.539 134.809 158.923 134.191 158.154Z" fill="#F4D100"/>
<path d="M141.76 152.462C140.833 152.462 139.906 152.616 139.134 152.616H136.817C135.273 152.616 133.728 152.616 131.875 152.462V152.308C133.419 151.539 135.118 151.231 136.817 151.231C138.516 151.231 140.215 151.539 141.76 152.462Z" fill="#F4D100"/>
<path d="M126.005 157.692C128.785 158.616 132.029 158.769 134.809 157.846C137.59 156.923 140.061 154.769 141.605 152.308L141.76 152.462C141.451 154.154 140.679 155.539 139.597 156.769C138.516 158 136.972 158.923 135.427 159.539C133.728 160.154 132.029 160.308 130.33 160C128.631 159.692 127.086 159.077 125.851 158L126.005 157.692Z" fill="#C18E00"/>
<path d="M126.005 157.692C127.704 157.539 129.094 157.539 130.485 157.385C131.875 157.231 133.11 156.923 134.346 156.462C135.582 156 136.817 155.385 137.898 154.769C139.134 154 140.215 153.231 141.605 152.308L141.76 152.462C140.215 155.077 137.744 157.231 134.964 158.308C132.029 159.385 128.785 159.077 126.005 158V157.692Z" fill="#EDA900"/>
<path d="M132.338 164.154C130.793 164.923 129.094 165.231 127.395 165.385C125.696 165.385 123.997 165.077 122.453 164.462V164.308C124.306 164.154 125.851 164.154 127.395 164H129.712C130.485 163.846 131.257 164 132.338 164.154Z" fill="#F4B006"/>
<path d="M124.77 158.154C125.696 157.692 126.778 157.846 127.55 158C128.477 158.154 129.249 158.615 130.021 159.231C130.793 159.846 131.411 160.462 131.72 161.231C132.184 162 132.492 162.923 132.338 164L132.184 164.154C131.257 162.769 130.176 161.692 128.94 160.615C127.704 159.539 126.314 158.769 124.77 158.308V158.154Z" fill="#C49E00"/>
<path d="M124.77 158.154C126.314 158.616 127.859 159.385 129.094 160.308C130.33 161.385 131.411 162.616 132.338 164H132.184C130.639 163.077 129.403 162.154 128.168 161.385C127.55 160.923 126.932 160.462 126.469 160C126.005 159.539 125.387 158.923 124.77 158.154Z" fill="#FFD41F"/>
<path d="M132.184 152.462C131.257 152.462 130.33 152.616 129.558 152.616H127.241C125.696 152.616 124.152 152.616 122.298 152.462V152.308C123.843 151.539 125.542 151.231 127.241 151.231C128.94 151.231 130.639 151.539 132.184 152.462Z" fill="#FFD41F"/>
<path d="M116.429 157.846C119.209 158.769 122.453 158.923 125.233 158C128.013 157.077 130.485 154.923 132.029 152.462L132.184 152.616C131.875 154.308 131.102 155.692 130.021 156.923C128.94 158.154 127.395 159.077 125.851 159.692C124.152 160.308 122.453 160.462 120.754 160.154C119.055 159.846 117.51 159.231 116.274 158.154L116.429 157.846Z" fill="#C49E00"/>
<path d="M116.429 157.846C118.128 157.692 119.518 157.692 120.908 157.539C122.298 157.385 123.534 157.077 124.77 156.616C126.005 156.154 127.241 155.539 128.322 154.923C129.558 154.154 130.639 153.385 132.029 152.462L132.184 152.616C130.639 155.231 128.168 157.385 125.387 158.462C122.453 159.539 119.209 159.231 116.429 158.154V157.846Z" fill="#F4B006"/>
<path d="M122.762 164.154C119.981 165.538 116.583 165.692 113.649 164.769C110.56 163.692 108.243 161.538 106.389 158.923L106.544 158.769C107.934 159.692 109.169 160.461 110.405 161.231C111.641 162 112.876 162.615 114.112 162.923C115.348 163.384 116.738 163.538 118.128 163.692C119.518 163.846 121.063 163.846 122.607 163.692L122.762 164.154Z" fill="#FFC217"/>
<path d="M115.193 158.308C116.12 157.846 117.201 158 117.973 158.154C118.9 158.308 119.672 158.769 120.445 159.385C121.217 160 121.835 160.615 122.144 161.385C122.607 162.154 122.916 163.077 122.762 164.154L122.607 164.308C121.68 162.923 120.599 161.692 119.364 160.769C118.128 159.692 116.583 158.923 115.039 158.462L115.193 158.308Z" fill="#D6AD00"/>
<path d="M115.193 158.308C116.738 158.769 118.282 159.539 119.673 160.462C120.908 161.539 122.144 162.769 122.916 164.154H122.762C121.217 163.231 119.981 162.308 118.746 161.385C118.128 160.923 117.51 160.462 117.047 160C116.429 159.539 115.811 159.077 115.193 158.308Z" fill="#FFEE17"/>
<path d="M106.544 157.692C109.478 158.769 112.722 159.077 115.657 158C118.591 157.077 121.063 154.923 122.762 152.308L122.916 152.462C122.607 154.154 121.835 155.692 120.599 156.923C119.518 158.154 117.973 159.077 116.274 159.692C114.575 160.154 112.722 160.308 111.023 160C109.324 159.692 107.779 158.923 106.544 157.846V157.692Z" fill="#D6AD00"/>
<path d="M106.544 157.692C108.243 157.692 109.633 157.692 111.177 157.539C112.567 157.385 113.958 157.231 115.193 156.769C116.429 156.308 117.665 155.692 118.9 155.077C120.136 154.308 121.372 153.539 122.607 152.462L122.762 152.616C121.217 155.231 118.591 157.385 115.657 158.462C112.567 159.385 109.324 159.077 106.389 158L106.544 157.692Z" fill="#FFC217"/>
<path d="M122.607 152.461C120.908 152.461 119.518 152.461 118.128 152.615C116.738 152.769 115.348 153.077 114.112 153.538C112.876 154 111.641 154.615 110.405 155.231C109.169 156 107.934 156.923 106.544 157.692L106.389 157.538C108.088 154.923 110.56 152.769 113.494 151.692C116.429 150.615 119.827 150.923 122.762 152.154L122.607 152.461Z" fill="#FFEE17"/>
<g opacity="0.2" style="mix-blend-mode:overlay">
<path d="M116.738 155.232C114.421 155.386 112.413 154.616 112.413 153.539C112.413 152.462 114.266 151.539 116.583 151.385C118.9 151.231 120.908 152 120.908 153.078C120.908 154.155 119.055 155.078 116.738 155.232Z" fill="url(#paint13_radial_2009_25375)"/>
</g>
<g opacity="0.2" style="mix-blend-mode:overlay">
<path d="M127.395 155.232C125.078 155.386 123.071 154.616 123.071 153.539C123.071 152.462 124.924 151.539 127.241 151.385C129.558 151.231 131.566 152 131.566 153.078C131.566 154.001 129.712 155.078 127.395 155.232Z" fill="url(#paint14_radial_2009_25375)"/>
</g>
<g opacity="0.2" style="mix-blend-mode:overlay">
<path d="M136.663 155.078C134.346 155.232 132.338 154.462 132.338 153.385C132.338 152.308 134.191 151.385 136.508 151.231C138.825 151.077 140.833 151.846 140.833 152.924C140.833 154.001 138.98 154.924 136.663 155.078Z" fill="url(#paint15_radial_2009_25375)"/>
</g>
<g opacity="0.2" style="mix-blend-mode:overlay">
<path d="M146.085 155.078C143.768 155.232 141.76 154.462 141.76 153.385C141.76 152.308 143.613 151.385 145.93 151.231C148.247 151.077 150.255 151.846 150.255 152.924C150.41 154.001 148.556 154.924 146.085 155.078Z" fill="url(#paint16_radial_2009_25375)"/>
</g>
<g opacity="0.2" style="mix-blend-mode:overlay">
<path d="M154.734 159.231C151.954 158.923 149.792 157.846 149.946 156.769C150.101 155.692 152.417 155.077 155.043 155.385C157.823 155.692 159.986 156.769 159.831 157.846C159.831 158.923 157.515 159.538 154.734 159.231Z" fill="url(#paint17_radial_2009_25375)"/>
</g>
<g opacity="0.2" style="mix-blend-mode:overlay">
<path d="M146.394 163.231C144.849 162.154 143.922 160.616 144.386 159.846C144.849 159.077 146.548 159.539 148.247 160.616C149.792 161.692 150.718 163.231 150.255 164C149.637 164.769 147.938 164.308 146.394 163.231Z" fill="url(#paint18_radial_2009_25375)"/>
</g>
<g opacity="0.2" style="mix-blend-mode:overlay">
<path d="M136.817 163.231C135.273 162.154 134.346 160.616 134.809 159.846C135.273 159.077 136.972 159.539 138.671 160.616C140.215 161.692 141.142 163.231 140.679 164C140.215 164.769 138.516 164.462 136.817 163.231Z" fill="url(#paint19_radial_2009_25375)"/>
</g>
<g opacity="0.2" style="mix-blend-mode:overlay">
<path d="M127.086 163.385C125.542 162.308 124.615 160.769 125.078 160C125.542 159.231 127.241 159.692 128.94 160.769C130.485 161.846 131.411 163.385 130.948 164.154C130.485 164.769 128.785 164.461 127.086 163.385Z" fill="url(#paint20_radial_2009_25375)"/>
</g>
<g opacity="0.2" style="mix-blend-mode:overlay">
<path d="M117.819 163.538C116.274 162.461 115.348 160.923 115.811 160.154C116.274 159.384 117.973 159.846 119.673 160.923C121.217 162 122.144 163.538 121.68 164.308C121.217 165.077 119.518 164.769 117.819 163.538Z" fill="url(#paint21_radial_2009_25375)"/>
</g>
<path d="M105.926 144.461C107.006 144.461 106.698 143.385 105.926 143.385C105.153 143.385 104.69 144.461 105.926 144.461Z" fill="white"/>
<path d="M86.1549 159.846C86.6182 158.923 85.5372 158.615 85.074 159.385C84.7651 160.154 85.5372 161.077 86.1549 159.846Z" fill="white"/>
<path d="M82.1393 153.077C81.9849 154.154 83.3746 154 83.3746 153.077C83.3746 152.308 82.2937 151.692 82.1393 153.077Z" fill="white"/>
<path d="M91.5611 146.615C92.4876 146.615 92.1787 145.692 91.5611 145.692C90.9434 145.692 90.6346 146.615 91.5611 146.615Z" fill="white"/>
<path d="M74.8796 153.385C73.9531 153.538 74.2619 154.462 75.034 154.462C75.6517 154.308 75.9605 153.231 74.8796 153.385Z" fill="white"/>
<path d="M72.0996 153.231C71.9452 154.615 73.4894 154.308 73.6438 153.231C73.6438 152.308 72.254 151.692 72.0996 153.231Z" fill="white"/>
<path d="M89.3988 130C89.0899 130.615 89.862 130.769 90.0164 130.307C90.1709 129.846 89.7076 129.23 89.3988 130Z" fill="white"/>
<path d="M79.9769 130.615C80.4401 131.692 81.5211 130.769 81.0578 130C80.749 129.23 79.3592 129.384 79.9769 130.615Z" fill="white"/>
<path d="M34.7208 131.692C34.2576 132.154 34.8753 132.461 35.1841 132.154C35.4929 131.846 35.3385 131.231 34.7208 131.692Z" fill="white"/>
<path d="M47.3864 141.077C47.232 142 48.3129 142 48.4673 141.231C48.4673 140.462 47.5408 139.846 47.3864 141.077Z" fill="white"/>
<path d="M56.499 140C56.6534 138.769 55.2637 138.923 55.1093 139.846C55.1093 140.769 56.3446 141.539 56.499 140Z" fill="white"/>
<path d="M62.5232 135.692C63.2953 136.461 63.9129 135.538 63.2953 134.923C62.832 134.308 61.7511 134.769 62.5232 135.692Z" fill="white"/>
<path d="M76.8877 128.769C76.2701 130 77.8142 130.308 78.2775 129.231C78.5863 128.308 77.5054 127.231 76.8877 128.769Z" fill="white"/>
<path d="M88.9354 138.769C88.6266 139.846 89.8619 140 90.0163 139.077C90.3252 138.462 89.2442 137.538 88.9354 138.769Z" fill="white"/>
<path d="M91.7155 126.154C91.4067 125.692 90.9434 126.154 91.2522 126.615C91.5611 126.769 92.1788 126.615 91.7155 126.154Z" fill="white"/>
<path d="M110.25 137.538C111.023 138 111.331 136.923 110.714 136.615C110.096 136.308 109.324 137.077 110.25 137.538Z" fill="white"/>
<path d="M110.25 132.923C109.478 132.616 109.324 133.539 109.942 133.692C110.559 134 111.177 133.385 110.25 132.923Z" fill="white"/>
<path d="M100.056 140.615C100.828 140.308 100.365 139.539 99.7473 139.846C99.2841 139.846 99.1297 140.923 100.056 140.615Z" fill="white"/>
<path d="M79.8224 127.846C80.2857 128.461 80.749 127.846 80.4401 127.385C80.1313 127.077 79.3592 127.231 79.8224 127.846Z" fill="white"/>
<path d="M72.0995 135.384C72.0995 136.615 73.3349 136.307 73.4893 135.384C73.4893 134.461 72.254 133.846 72.0995 135.384Z" fill="white"/>
<path d="M57.1172 136.308C56.4995 137.231 57.7349 137.538 58.1981 136.923C58.507 136.308 57.8893 135.231 57.1172 136.308Z" fill="white"/>
<path d="M54.9548 131.231C55.5724 131.846 56.1901 130.923 55.5724 130.461C55.1092 130 54.1827 130.461 54.9548 131.231Z" fill="white"/>
<path d="M36.883 129.231C37.8095 128.615 37.0374 127.846 36.2653 128.308C35.4932 128.615 35.8021 129.846 36.883 129.231Z" fill="white"/>
<path d="M30.0869 143.692C31.3223 143.692 31.1679 142.308 30.0869 142.308C29.1604 142.308 28.5427 143.692 30.0869 143.692Z" fill="white"/>
<path d="M37.0376 128C37.8097 128.154 37.8097 127.231 37.192 127.077C36.5743 127.077 36.1111 127.846 37.0376 128Z" fill="white"/>
<path d="M52.4834 114.923C51.8657 114.923 52.0201 115.692 52.4834 115.692C52.9466 115.538 53.2555 114.769 52.4834 114.923Z" fill="white"/>
<path d="M60.2064 105.077C59.8975 105.692 60.6696 106 60.8241 105.385C61.1329 105.077 60.6696 104.462 60.2064 105.077Z" fill="white"/>
<path d="M70.4004 117.539C71.0181 118 71.4814 117.231 71.0181 116.769C70.5549 116.462 69.6284 116.923 70.4004 117.539Z" fill="white"/>
<path d="M76.8877 109.846C77.5054 110 77.5054 109.384 77.0421 109.231C76.7333 109.077 76.27 109.692 76.8877 109.846Z" fill="white"/>
<path d="M77.5054 100.308C77.6598 99.5385 76.7333 99.6923 76.5789 100.308C76.5789 100.769 77.351 101.231 77.5054 100.308Z" fill="white"/>
<path d="M91.561 109.692C90.7889 109.539 90.789 110.308 91.4066 110.462C91.8699 110.615 92.4876 109.846 91.561 109.692Z" fill="white"/>
<path d="M80.749 107.539C81.2122 106.923 80.4401 106.462 80.1313 107.077C79.6681 107.539 80.1313 108.308 80.749 107.539Z" fill="white"/>
<path d="M60.2063 107.077C60.8239 107.538 61.1328 106.769 60.6695 106.461C60.2063 106.154 59.4342 106.615 60.2063 107.077Z" fill="white"/>
<defs>
<linearGradient id="paint0_linear_2009_25375" x1="5.3552" y1="0.234158" x2="135.413" y2="100.427" gradientUnits="userSpaceOnUse">
<stop stop-color="white"/>
<stop offset="1"/>
</linearGradient>
<linearGradient id="paint1_linear_2009_25375" x1="53.719" y1="71.4593" x2="74.6536" y2="179.117" gradientUnits="userSpaceOnUse">
<stop stop-color="white"/>
<stop offset="1"/>
</linearGradient>
<linearGradient id="paint2_linear_2009_25375" x1="47.7875" y1="70.0561" x2="45.2251" y2="163.105" gradientUnits="userSpaceOnUse">
<stop stop-color="white"/>
<stop offset="1"/>
</linearGradient>
<linearGradient id="paint3_linear_2009_25375" x1="120.469" y1="102.973" x2="96.4804" y2="134.369" gradientUnits="userSpaceOnUse">
<stop stop-color="#C6D9DE"/>
<stop offset="1" stop-color="white"/>
</linearGradient>
<radialGradient id="paint4_radial_2009_25375" cx="0" cy="0" r="1" gradientTransform="matrix(0.595061 1.80938 -4.06948 1.32799 100.009 144.388)" gradientUnits="userSpaceOnUse">
<stop stop-color="white"/>
<stop offset="0.5769" stop-color="#9B9B9B"/>
<stop offset="1"/>
</radialGradient>
<radialGradient id="paint5_radial_2009_25375" cx="0" cy="0" r="1" gradientTransform="matrix(0.595186 1.80976 -4.07033 1.32827 110.294 141.629)" gradientUnits="userSpaceOnUse">
<stop stop-color="white"/>
<stop offset="0.5769" stop-color="#9B9B9B"/>
<stop offset="1"/>
</radialGradient>
<radialGradient id="paint6_radial_2009_25375" cx="0" cy="0" r="1" gradientTransform="matrix(0.595186 1.80976 -4.07033 1.32827 119.209 139.235)" gradientUnits="userSpaceOnUse">
<stop stop-color="white"/>
<stop offset="0.5769" stop-color="#9B9B9B"/>
<stop offset="1"/>
</radialGradient>
<radialGradient id="paint7_radial_2009_25375" cx="0" cy="0" r="1" gradientTransform="matrix(0.594773 1.80851 -4.06751 1.32735 128.39 136.771)" gradientUnits="userSpaceOnUse">
<stop stop-color="white"/>
<stop offset="0.5769" stop-color="#9B9B9B"/>
<stop offset="1"/>
</radialGradient>
<radialGradient id="paint8_radial_2009_25375" cx="0" cy="0" r="1" gradientTransform="matrix(0.296933 1.88052 -4.9221 0.771099 138.256 138.57)" gradientUnits="userSpaceOnUse">
<stop stop-color="white"/>
<stop offset="0.5769" stop-color="#9B9B9B"/>
<stop offset="1"/>
</radialGradient>
<radialGradient id="paint9_radial_2009_25375" cx="0" cy="0" r="1" gradientTransform="matrix(-0.567587 1.49154 -3.35387 -1.26676 132.494 145.105)" gradientUnits="userSpaceOnUse">
<stop stop-color="white"/>
<stop offset="0.5769" stop-color="#9B9B9B"/>
<stop offset="1"/>
</radialGradient>
<radialGradient id="paint10_radial_2009_25375" cx="0" cy="0" r="1" gradientTransform="matrix(-0.567823 1.49216 -3.35526 -1.26729 123.31 147.569)" gradientUnits="userSpaceOnUse">
<stop stop-color="white"/>
<stop offset="0.5769" stop-color="#9B9B9B"/>
<stop offset="1"/>
</radialGradient>
<radialGradient id="paint11_radial_2009_25375" cx="0" cy="0" r="1" gradientTransform="matrix(-0.567493 1.4913 -3.35331 -1.26656 113.937 150.083)" gradientUnits="userSpaceOnUse">
<stop stop-color="white"/>
<stop offset="0.5769" stop-color="#9B9B9B"/>
<stop offset="1"/>
</radialGradient>
<radialGradient id="paint12_radial_2009_25375" cx="0" cy="0" r="1" gradientTransform="matrix(-0.567728 1.49191 -3.35471 -1.26708 105.058 152.632)" gradientUnits="userSpaceOnUse">
<stop stop-color="white"/>
<stop offset="0.5769" stop-color="#9B9B9B"/>
<stop offset="1"/>
</radialGradient>
<radialGradient id="paint13_radial_2009_25375" cx="0" cy="0" r="1" gradientTransform="matrix(0.114275 1.90218 -4.27741 0.255001 116.549 152.307)" gradientUnits="userSpaceOnUse">
<stop stop-color="white"/>
<stop offset="0.5769" stop-color="#9B9B9B"/>
<stop offset="1"/>
</radialGradient>
<radialGradient id="paint14_radial_2009_25375" cx="0" cy="0" r="1" gradientTransform="matrix(0.11418 1.9006 -4.27385 0.254788 127.202 152.24)" gradientUnits="userSpaceOnUse">
<stop stop-color="white"/>
<stop offset="0.5769" stop-color="#9B9B9B"/>
<stop offset="1"/>
</radialGradient>
<radialGradient id="paint15_radial_2009_25375" cx="0" cy="0" r="1" gradientTransform="matrix(0.114259 1.90192 -4.27681 0.254965 136.436 152.179)" gradientUnits="userSpaceOnUse">
<stop stop-color="white"/>
<stop offset="0.5769" stop-color="#9B9B9B"/>
<stop offset="1"/>
</radialGradient>
<radialGradient id="paint16_radial_2009_25375" cx="0" cy="0" r="1" gradientTransform="matrix(0.11422 1.90126 -4.27533 0.254877 145.946 152.121)" gradientUnits="userSpaceOnUse">
<stop stop-color="white"/>
<stop offset="0.5769" stop-color="#9B9B9B"/>
<stop offset="1"/>
</radialGradient>
<radialGradient id="paint17_radial_2009_25375" cx="0" cy="0" r="1" gradientTransform="matrix(-0.192303 1.89392 -4.95715 -0.499472 155.028 156.358)" gradientUnits="userSpaceOnUse">
<stop stop-color="white"/>
<stop offset="0.5769" stop-color="#9B9B9B"/>
<stop offset="1"/>
</radialGradient>
<radialGradient id="paint18_radial_2009_25375" cx="0" cy="0" r="1" gradientTransform="matrix(-0.929674 1.29933 -2.92279 -2.07461 147.787 161.216)" gradientUnits="userSpaceOnUse">
<stop stop-color="white"/>
<stop offset="0.5769" stop-color="#9B9B9B"/>
<stop offset="1"/>
</radialGradient>
<radialGradient id="paint19_radial_2009_25375" cx="0" cy="0" r="1" gradientTransform="matrix(-0.928672 1.29793 -2.91964 -2.07238 138.276 161.278)" gradientUnits="userSpaceOnUse">
<stop stop-color="white"/>
<stop offset="0.5769" stop-color="#9B9B9B"/>
<stop offset="1"/>
</radialGradient>
<radialGradient id="paint20_radial_2009_25375" cx="0" cy="0" r="1" gradientTransform="matrix(-0.929905 1.29965 -2.92352 -2.07513 128.574 161.336)" gradientUnits="userSpaceOnUse">
<stop stop-color="white"/>
<stop offset="0.5769" stop-color="#9B9B9B"/>
<stop offset="1"/>
</radialGradient>
<radialGradient id="paint21_radial_2009_25375" cx="0" cy="0" r="1" gradientTransform="matrix(-0.929751 1.29944 -2.92303 -2.07479 119.33 161.555)" gradientUnits="userSpaceOnUse">
<stop stop-color="white"/>
<stop offset="0.5769" stop-color="#9B9B9B"/>
<stop offset="1"/>
</radialGradient>
</defs>
</svg>
