<svg width="200" height="200" viewBox="0 0 200 200" fill="none" xmlns="http://www.w3.org/2000/svg">
<g clip-path="url(#clip0_2009_26736)">
<path d="M146.356 26.35C146.658 26.2 146.205 25.75 145.903 26.05C145.601 26.35 145.148 26.5 144.846 26.8C144.695 26.5 144.544 26.35 144.393 26.05C144.242 25.9 144.091 25.9 143.94 26.05C143.638 26.2 143.487 26.5 143.336 26.65C143.185 26.35 143.034 26.2 142.883 25.9C142.732 25.75 142.581 25.75 142.43 25.9C142.128 26.2 141.826 26.5 141.675 26.8C141.373 26.35 141.071 26.05 140.769 25.6C140.618 25.45 140.467 25.45 140.316 25.6C140.014 25.9 139.863 26.05 139.712 26.35C139.41 26.05 139.108 25.6 138.806 25.3C138.655 25.15 138.504 25.15 138.353 25.3C138.051 25.6 137.749 25.9 137.598 26.2C137.447 25.9 137.296 25.6 136.994 25.3C136.843 25.15 136.692 25.15 136.541 25.3C136.239 25.6 135.937 26.05 135.786 26.35C135.484 26.05 135.333 25.75 135.031 25.45C134.88 25.3 134.729 25.3 134.578 25.45C134.276 25.75 134.125 25.9 133.823 26.2C133.672 25.9 133.521 25.6 133.219 25.3C133.068 25.15 132.766 25.15 132.766 25.3C132.615 25.6 132.464 25.9 132.313 26.2C132.162 25.9 132.011 25.6 131.709 25.15C131.558 25 131.256 25 131.256 25.15C130.954 25.45 130.803 26.05 130.501 26.5C130.199 26.2 129.897 25.9 129.595 25.45C129.444 25.3 129.293 25.3 129.142 25.45C128.84 25.75 128.69 25.9 128.388 26.2C128.086 25.9 127.935 25.6 127.784 25.3C127.633 25.15 127.482 25.15 127.331 25.3C127.18 25.6 126.878 25.75 126.727 26.05C126.425 25.75 126.274 25.45 125.972 25.15C125.821 25 125.519 25 125.368 25.3C125.217 25.6 124.915 25.9 124.764 26.35C124.462 25.9 124.16 25.3 123.707 25.3C123.556 25.3 123.556 25.3 123.405 25.45C123.254 25.75 123.103 26.2 122.952 26.5C122.65 26.05 122.348 25.75 122.046 25.3C121.895 25.15 121.744 25.15 121.593 25.3C121.291 25.6 120.989 26.05 120.687 26.5C120.385 26.2 120.083 25.75 119.932 25.3C119.781 25.15 119.63 25.15 119.479 25.3C119.177 25.6 118.573 26.05 118.271 26.5C117.969 26.05 117.667 25.6 117.365 25.15C117.214 25 117.063 25 116.912 25C116.459 25.15 116.157 25.45 115.704 25.9C115.553 26.05 115.402 26.2 115.1 26.35C114.798 25.9 114.496 25.45 114.194 25.15C114.043 25 113.892 25 113.741 25.15C113.288 25.6 112.986 25.9 112.684 26.35C112.382 26.05 112.231 25.75 111.929 25.45C111.778 25.3 111.476 25.3 111.325 25.45C111.023 25.75 110.721 26.05 110.419 26.5C110.268 26.2 109.966 25.9 109.815 25.6C109.815 25.45 109.513 25.45 109.362 25.45C108.758 25.9 108.305 26.2 107.852 26.8C107.399 26.5 107.248 26.05 106.795 25.6C106.644 25.45 106.493 25.45 106.342 25.6C106.04 25.9 105.738 26.2 105.587 26.5C105.436 26.2 105.134 25.9 104.983 25.45C104.983 25.45 104.832 25.3 104.681 25.3C104.228 25.3 103.775 26.05 103.322 26.65C103.02 26.35 102.718 25.9 102.567 25.6C102.416 25.45 102.265 25.45 102.114 25.6C101.661 25.9 101.359 26.35 101.057 26.65C100.906 26.35 100.604 26.05 100.453 25.6C100.302 25.45 100.151 25.45 100 25.6C99.6981 25.9 99.3961 26.35 99.0941 26.8C99.0941 26.8 98.9431 26.65 98.9431 26.5C98.7921 26.2 98.6411 25.9 98.4901 25.75C98.3391 25.6 98.0371 25.6 98.0371 25.75C97.8861 26.05 97.7351 26.35 97.5841 26.65C97.2821 26.35 96.9801 25.9 96.6781 25.6C96.5271 25.45 96.3761 25.45 96.2251 25.6C95.7721 25.9 95.4701 26.35 95.0171 26.65C94.8661 26.2 94.5642 25.75 94.1112 25.75C93.6582 25.9 93.3562 26.35 93.0542 26.8C92.7522 26.35 92.6012 26.05 92.4502 25.6C92.2992 25.45 92.1482 25.45 91.9972 25.6C91.5442 25.75 91.0912 26.2 90.7892 26.5C90.6382 26.05 90.3362 25.75 90.1852 25.3C90.0342 25.15 89.8832 25.15 89.7322 25.3C89.2792 25.75 88.9773 26.05 88.6753 26.5C88.0713 26.05 87.4673 25.6 87.0143 25.3C86.8633 25.15 86.7123 25.15 86.5613 25.3C86.1083 25.75 85.8063 26.05 85.6553 26.5C85.3533 26.2 85.0513 26.05 84.7493 25.75C84.5983 25.6 84.4473 25.6 84.2963 25.75C83.9944 26.05 83.8434 26.35 83.5414 26.8C83.2394 26.5 83.0884 26.2 82.7864 25.9C82.6354 25.75 82.4844 25.75 82.3334 25.9C82.0314 26.2 81.7294 26.5 81.5784 26.8C81.4274 26.5 81.1254 26.2 80.9744 25.9C80.8234 25.75 80.5214 25.75 80.5214 25.9C80.2194 26.05 80.0684 26.5 79.7664 26.8C79.4644 26.5 79.1624 26.05 78.8604 25.75C78.7094 25.6 78.5585 25.6 78.4075 25.75C78.1055 26.05 77.8035 26.35 77.5015 26.65C77.1995 26.35 77.0485 26.05 76.8975 25.75C76.7465 25.6 76.5955 25.6 76.4445 25.75C76.1425 26.05 75.8405 26.35 75.6895 26.8C75.3875 26.5 75.0855 26.2 74.9345 25.75C74.7835 25.6 74.6325 25.6 74.4815 25.75C74.1795 26.05 73.8775 26.5 73.5755 26.95C73.1226 26.5 72.8206 26.35 72.6696 25.9C72.5186 25.75 72.3676 25.75 72.2166 25.9C71.7636 26.2 71.4616 26.5 71.1596 26.8C70.8576 26.5 70.7066 26.2 70.4046 25.9C70.2536 25.75 70.1026 25.75 69.9516 25.9C69.6496 26.2 69.3476 26.5 69.0456 26.95C68.7436 26.65 68.4416 26.35 68.1396 25.9C67.9887 25.75 67.8377 25.75 67.6867 25.9C67.3847 26.35 67.0827 26.65 66.7807 27.1C66.3277 26.8 66.0257 26.35 65.7237 25.9C65.5727 25.75 65.4217 25.75 65.2707 25.9C64.9687 26.2 64.6667 26.5 64.5157 26.8C64.2137 26.5 63.9117 26.2 63.6097 25.9C63.6097 25.75 63.3077 25.6 63.1567 25.75C62.7037 26.2 62.2508 26.8 61.9488 27.25C61.4958 26.95 61.1938 26.65 60.8918 26.2C60.7408 26.05 60.5898 26.05 60.4388 26.05C59.9858 26.5 59.6838 26.8 59.3818 27.25C59.0798 27.1 58.7778 26.8 58.6268 26.35C58.4758 26.2 58.1738 26.2 58.1738 26.35C57.8718 26.8 57.5698 27.1 57.4188 27.4C56.9659 27.1 56.5129 26.8 56.2109 26.35C56.0599 26.2 55.7579 26.35 55.7579 26.5C55.6069 26.95 55.4559 27.25 55.3049 27.55C55.0029 27.4 54.8519 27.25 54.7009 27.1C54.3989 26.95 54.2479 26.65 53.9459 26.8C53.9459 26.8 53.9459 26.8 53.9459 26.65C53.9459 26.5 53.6439 26.65 53.6439 26.8C53.7949 28 54.0969 29.2 54.3989 30.4C54.5499 31.6 54.5499 32.8 54.8519 34.15C54.8519 34.15 54.8519 34.15 54.8519 34.3C54.8519 34.45 55.1539 34.45 55.3049 34.45C62.2508 34.6 69.0456 34.45 75.9915 34.45C82.9374 34.45 89.8832 34.45 96.8291 34.45C110.721 34.45 124.613 34.45 138.504 34.45C140.618 34.45 142.732 34.45 144.997 34.45H145.148C145.601 34.15 145.903 33.4 145.903 32.8C146.205 31.9 146.356 30.85 146.507 29.8C146.356 28.75 146.658 27.55 146.356 26.35Z" fill="url(#paint0_linear_2009_26736)"/>
<path d="M55.1539 28.3C55.3049 28.45 55.4559 28.45 55.6069 28.3C55.7579 27.85 56.0599 27.4 56.2109 26.95C56.5129 27.4 56.8149 27.7 57.2679 28C57.2679 28 57.5698 28.15 57.5698 28C57.8718 27.7 58.0228 27.4 58.3248 27.1C58.6268 27.4 58.9288 27.7 59.2308 28C59.3818 28.15 59.5328 28.15 59.6838 28C59.8348 27.4 60.1368 27.1 60.5898 26.8C60.8918 27.25 61.3448 27.55 61.7978 28C61.9488 28.15 62.0998 28 62.2508 27.85C62.5528 27.25 63.0057 26.8 63.4587 26.35C63.7607 26.65 63.9117 27.1 64.2137 27.4C64.3647 27.55 64.5157 27.55 64.6667 27.4C64.9687 27.1 65.2707 26.8 65.4217 26.5C65.8747 26.95 66.3277 27.4 66.6297 27.7C66.7807 27.85 67.0827 27.85 67.0827 27.7C67.3847 27.25 67.5357 26.8 67.8377 26.5C68.1396 26.8 68.4416 27.1 68.7436 27.55C68.8946 27.7 69.1966 27.7 69.3476 27.55C69.6496 27.25 69.8006 26.95 70.1026 26.65C70.4046 26.95 70.7066 27.25 71.0086 27.55C71.1596 27.7 71.4616 27.7 71.4616 27.55C71.6126 27.1 71.9146 26.8 72.2166 26.5C72.5186 26.95 72.9716 27.1 73.2736 27.55C73.4245 27.7 73.5755 27.7 73.7265 27.55C74.0285 27.25 74.1795 26.8 74.4815 26.5C74.7835 26.8 75.0855 27.1 75.3875 27.55C75.5385 27.7 75.6895 27.55 75.8405 27.55C76.1425 27.25 76.2935 26.95 76.5955 26.65C76.7465 26.95 77.0485 27.25 77.1995 27.55C77.3505 27.7 77.5015 27.7 77.6525 27.55C77.9545 27.25 78.2565 26.95 78.5585 26.65C78.8604 26.95 79.1624 27.25 79.3134 27.7C79.4644 28 79.9174 27.85 79.9174 27.55C80.2194 26.95 80.3704 26.65 80.5214 26.5C80.6724 26.8 80.8234 27.1 81.1254 27.4C81.2764 27.55 81.5784 27.55 81.7294 27.4C81.8804 27.1 82.1824 26.8 82.4844 26.5C82.7864 26.8 83.0884 27.1 83.2394 27.4C83.3904 27.55 83.6924 27.55 83.8434 27.4C84.1453 27.1 84.2963 26.8 84.4473 26.35C84.7493 26.65 85.2023 26.95 85.6553 27.25C85.8063 27.4 86.1083 27.25 86.1083 27.1C86.2593 26.65 86.4103 26.2 86.7123 25.9C87.1653 26.35 87.7693 26.95 88.3733 26.95H88.5243C88.6753 26.95 88.6753 26.8 88.6753 26.8C88.9773 26.5 89.2793 26.2 89.5812 26.05C89.8832 26.5 90.0342 26.8 90.1852 27.25C90.3362 27.55 90.6382 27.55 90.7892 27.25C91.0912 26.8 91.5442 26.5 91.8462 26.2C92.2992 26.5 92.6012 26.95 92.7522 27.4C92.9032 27.55 93.2052 27.55 93.3562 27.4C93.5072 27.1 93.8092 26.65 93.9602 26.35C94.2622 26.05 94.5642 26.95 94.7151 27.1C94.8661 27.25 95.0171 27.25 95.1681 27.1C95.4701 26.65 95.9231 26.35 96.3761 26.05C96.6781 26.35 96.9801 26.8 97.2821 27.1C97.4331 27.25 97.7351 27.25 97.7351 27.1C97.7351 27.1 97.7351 27.1 97.8861 27.1C98.0371 26.65 98.1881 26.5 98.3391 26.2C98.6411 26.8 99.0941 27.55 99.5471 27.1V26.95C99.8491 26.8 100.151 26.5 100.302 26.2C100.453 26.5 100.604 26.8 100.906 27.25C101.057 27.4 101.208 27.4 101.359 27.25C101.661 26.8 101.963 26.5 102.416 26.2C102.718 26.65 103.02 27.25 103.473 27.25H103.624C103.926 26.95 104.228 26.65 104.681 26.2C104.983 25.9 104.832 26.05 104.983 26.35C105.134 26.65 105.285 26.95 105.436 27.1C105.587 27.25 105.738 27.25 105.889 27.1C106.191 26.8 106.493 26.5 106.795 26.2C107.097 26.65 107.399 27.1 107.852 27.25C108.003 27.25 108.003 27.25 108.154 27.25H108.305C108.758 26.8 109.211 26.5 109.664 26.2C109.815 26.5 110.117 26.8 110.268 27.25C110.419 27.4 110.57 27.4 110.721 27.25C111.023 26.95 111.325 26.5 111.627 26.2C111.929 26.5 112.231 26.95 112.533 27.25C112.684 27.4 112.986 27.4 112.986 27.25C113.288 26.8 113.59 26.35 113.892 26.05C114.194 26.35 114.496 26.65 114.647 27.1C114.647 27.25 114.798 27.25 114.949 27.25C115.251 27.25 115.402 27.1 115.704 26.8C116.006 26.5 116.459 26.2 116.761 26.05C117.063 26.5 117.365 26.95 117.667 27.25L117.818 27.4H117.969C118.271 27.25 118.422 26.95 118.724 26.8C118.875 26.65 119.177 26.5 119.328 26.35C119.479 26.8 119.781 27.1 120.083 27.4C120.234 27.55 120.536 27.4 120.687 27.25C121.14 26.95 121.442 26.5 121.744 26.2C122.046 26.65 122.197 26.95 122.499 27.4C122.65 27.7 123.103 27.55 123.103 27.25C123.405 26.95 123.556 26.65 123.707 26.35C123.707 26.5 124.16 27.25 124.311 27.4C124.462 27.55 124.764 27.55 124.915 27.4C125.066 27.1 125.368 26.65 125.519 26.35C125.821 26.65 125.972 26.95 126.274 27.25C126.425 27.4 126.727 27.4 126.878 27.25C127.029 26.95 127.18 26.8 127.331 26.5C127.633 26.8 127.784 27.1 128.086 27.4C128.237 27.55 128.539 27.55 128.539 27.4C128.69 27.1 128.841 26.8 129.143 26.65C129.595 26.5 129.746 26.65 130.048 26.95C130.199 27.1 130.35 27.1 130.501 26.95C130.954 26.95 131.256 26.35 131.558 26.05C131.709 26.5 132.011 26.8 132.313 27.1C132.464 27.25 132.766 27.25 132.766 26.95C132.917 26.65 133.068 26.35 133.219 26.05C133.37 26.35 133.521 26.65 133.672 26.8C133.823 26.95 134.125 26.95 134.125 26.8C134.276 26.5 134.578 26.2 134.88 26.05C135.182 26.35 135.484 26.65 135.635 26.95C135.786 27.1 136.088 27.1 136.088 26.95C136.239 26.5 136.541 26.2 136.843 25.75C136.994 26.05 137.296 26.35 137.447 26.65C137.598 26.8 137.9 26.8 137.9 26.65C138.051 26.35 138.353 26.05 138.504 25.6C138.806 25.9 139.108 26.35 139.41 26.65C139.561 26.8 139.863 26.8 139.863 26.65C140.165 26.5 140.316 26.35 140.618 26.05C140.92 26.35 141.222 26.8 141.524 27.1C141.675 27.25 141.977 27.1 141.977 26.95C142.128 26.8 142.279 26.5 142.581 26.35C142.732 26.65 142.883 26.95 143.034 27.25C143.185 27.4 143.487 27.4 143.487 27.25C143.638 26.95 143.789 26.8 144.091 26.65C144.242 26.8 144.393 27.1 144.393 27.4C144.393 27.55 144.695 27.7 144.846 27.55C144.997 27.4 145.601 26.8 146.205 26.35C146.205 26.2 145.903 26.05 145.752 26.2C145.601 26.35 145.148 26.5 144.846 26.8C144.695 26.5 144.544 26.35 144.393 26.05C144.242 25.9 144.091 25.9 143.94 26.05C143.638 26.2 143.487 26.5 143.336 26.65C143.185 26.35 143.034 26.2 142.883 25.9C142.732 25.75 142.581 25.75 142.43 25.9C142.128 26.2 141.826 26.5 141.675 26.8C141.373 26.35 141.071 26.05 140.769 25.6C140.618 25.45 140.467 25.45 140.316 25.6C140.014 25.9 139.863 26.05 139.712 26.35C139.41 26.05 139.108 25.6 138.806 25.3C138.655 25.15 138.504 25.15 138.353 25.3C138.051 25.6 137.749 25.9 137.598 26.2C137.447 25.9 137.296 25.6 136.994 25.3C136.843 25.15 136.692 25.15 136.541 25.3C136.239 25.6 135.937 26.05 135.786 26.35C135.484 26.05 135.333 25.75 135.031 25.45C134.88 25.3 134.729 25.3 134.578 25.45C134.276 25.75 134.125 25.9 133.823 26.2C133.672 25.9 133.521 25.6 133.219 25.3C133.068 25.15 132.766 25.15 132.766 25.3C132.615 25.6 132.464 25.9 132.313 26.2C132.162 25.9 132.011 25.6 131.709 25.15C131.558 25 131.256 25 131.256 25.15C130.954 25.45 130.803 26.05 130.501 26.5C130.199 26.2 129.897 25.9 129.595 25.45C129.444 25.3 129.294 25.3 129.143 25.45C128.841 25.75 128.69 25.9 128.388 26.2C128.086 25.9 127.935 25.6 127.784 25.3C127.633 25.15 127.482 25.15 127.331 25.3C127.18 25.6 126.878 25.75 126.727 26.05C126.425 25.75 126.274 25.45 125.972 25.15C125.821 25 125.519 25 125.368 25.3C125.217 25.6 124.915 25.9 124.764 26.35C124.462 25.9 124.16 25.3 123.707 25.3C123.556 25.3 123.556 25.3 123.405 25.45C123.254 25.75 123.103 26.2 122.952 26.5C122.65 26.05 122.348 25.75 122.046 25.3C121.895 25.15 121.744 25.15 121.593 25.3C121.291 25.6 120.989 26.05 120.687 26.5C120.385 26.2 120.083 25.75 119.932 25.3C119.781 25.15 119.63 25.15 119.479 25.3C119.177 25.6 118.573 26.05 118.271 26.5C117.969 26.05 117.667 25.6 117.365 25.15C117.214 25 117.063 25 116.912 25C116.459 25.15 116.157 25.45 115.704 25.9C115.553 26.05 115.402 26.2 115.1 26.35C114.798 25.9 114.496 25.45 114.194 25.15C114.043 25 113.892 25 113.741 25.15C113.288 25.6 112.986 25.9 112.684 26.35C112.382 26.05 112.231 25.75 111.929 25.45C111.778 25.3 111.476 25.3 111.325 25.45C111.023 25.75 110.721 26.05 110.419 26.5C110.268 26.2 109.966 25.9 109.815 25.6C109.815 25.45 109.513 25.45 109.362 25.45C108.758 25.9 108.305 26.2 107.852 26.8C107.399 26.5 107.248 26.05 106.795 25.6C106.644 25.45 106.493 25.45 106.342 25.6C106.04 25.9 105.738 26.2 105.587 26.5C105.436 26.2 105.134 25.9 104.983 25.45C104.983 25.45 104.832 25.3 104.681 25.3C104.228 25.3 103.775 26.05 103.322 26.65C103.02 26.35 102.718 25.9 102.567 25.6C102.416 25.45 102.265 25.45 102.114 25.6C101.661 25.9 101.359 26.35 101.057 26.65C100.906 26.35 100.604 26.05 100.453 25.6C100.302 25.45 100.151 25.45 100 25.6C99.6981 25.9 99.3961 26.35 99.0941 26.8C99.0941 26.8 98.9431 26.65 98.9431 26.5C98.7921 26.2 98.6411 25.9 98.4901 25.75C98.3391 25.6 98.0371 25.6 98.0371 25.75C97.8861 26.05 97.7351 26.35 97.5841 26.65C97.2821 26.35 96.9801 25.9 96.6781 25.6C96.5271 25.45 96.3761 25.45 96.2251 25.6C95.7721 25.9 95.4701 26.35 95.0171 26.65C94.8661 26.2 94.5642 25.75 94.1112 25.75C93.6582 25.9 93.3562 26.35 93.0542 26.8C92.7522 26.35 92.6012 26.05 92.4502 25.6C92.2992 25.45 92.1482 25.45 91.9972 25.6C91.5442 25.75 91.0912 26.2 90.7892 26.5C90.6382 26.05 90.3362 25.75 90.1852 25.3C90.0342 25.15 89.8832 25.15 89.7322 25.3C89.2793 25.75 88.9773 26.05 88.6753 26.5C88.0713 26.05 87.4673 25.6 87.0143 25.3C86.8633 25.15 86.7123 25.15 86.5613 25.3C86.1083 25.75 85.8063 26.05 85.6553 26.5C85.3533 26.2 85.0513 26.05 84.7493 25.75C84.5983 25.6 84.4473 25.6 84.2963 25.75C83.9944 26.05 83.8434 26.35 83.5414 26.8C83.2394 26.5 83.0884 26.2 82.7864 25.9C82.6354 25.75 82.4844 25.75 82.3334 25.9C82.0314 26.2 81.7294 26.5 81.5784 26.8C81.4274 26.5 81.1254 26.2 80.9744 25.9C80.8234 25.75 80.5214 25.75 80.5214 25.9C80.2194 26.05 80.0684 26.5 79.7664 26.8C79.4644 26.5 79.1624 26.05 78.8604 25.75C78.7095 25.6 78.5585 25.6 78.4075 25.75C78.1055 26.05 77.8035 26.35 77.5015 26.65C77.1995 26.35 77.0485 26.05 76.8975 25.75C76.7465 25.6 76.5955 25.6 76.4445 25.75C76.1425 26.05 75.8405 26.35 75.6895 26.8C75.3875 26.5 75.0855 26.2 74.9345 25.75C74.7835 25.6 74.6325 25.6 74.4815 25.75C74.1795 26.05 73.8775 26.5 73.5755 26.95C73.1226 26.5 72.8206 26.35 72.6696 25.9C72.5186 25.75 72.3676 25.75 72.2166 25.9C71.7636 26.2 71.4616 26.5 71.1596 26.8C70.8576 26.5 70.7066 26.2 70.4046 25.9C70.2536 25.75 70.1026 25.75 69.9516 25.9C69.6496 26.2 69.3476 26.5 69.0456 26.95C68.7436 26.65 68.4416 26.35 68.1396 25.9C67.9887 25.75 67.8377 25.75 67.6867 25.9C67.3847 26.35 67.0827 26.65 66.7807 27.1C66.3277 26.8 66.0257 26.35 65.7237 25.9C65.5727 25.75 65.4217 25.75 65.2707 25.9C64.9687 26.2 64.6667 26.5 64.5157 26.8C64.2137 26.5 63.9117 26.2 63.6097 25.9C63.6097 25.75 63.3077 25.6 63.1567 25.75C62.7038 26.2 62.2508 26.8 61.9488 27.25C61.4958 26.95 61.1938 26.65 60.8918 26.2C60.7408 26.05 60.5898 26.05 60.4388 26.05C59.9858 26.5 59.6838 26.8 59.3818 27.25C59.0798 27.1 58.7778 26.8 58.6268 26.35C58.4758 26.2 58.1738 26.2 58.1738 26.35C57.8718 26.8 57.5698 27.1 57.4188 27.4C56.9659 27.1 56.5129 26.8 56.2109 26.35C56.0599 26.2 55.7579 26.35 55.7579 26.5C55.6069 26.95 55.4559 27.25 55.3049 27.55C55.0029 27.4 54.8519 27.25 54.7009 27.1C54.3989 26.95 54.2479 26.65 53.9459 26.8C53.9459 26.8 53.9459 26.8 53.9459 26.65C53.9459 26.5 53.6439 26.65 53.6439 26.8C53.6439 26.95 53.6439 26.95 53.6439 27.1C53.9459 27.25 54.2479 27.55 54.2479 27.55C54.5499 27.7 54.8519 28 55.1539 28.3Z" fill="url(#paint1_radial_2009_26736)"/>
<g opacity="0.6">
<path d="M145.752 32.1999C144.544 32.1999 143.487 32.1999 142.279 32.0499C140.467 31.8999 138.504 31.8999 136.692 31.8999C133.068 31.8999 129.596 32.0499 125.972 32.0499C118.724 32.1999 111.325 32.1999 104.077 32.1999C96.8291 32.3499 89.5813 32.3499 82.3334 32.4999C75.0855 32.6499 67.8377 32.4999 60.5898 32.3499C58.6269 32.3499 56.6639 32.1999 54.5499 32.1999C54.5499 32.3499 54.5499 32.6499 54.5499 32.7999C57.1169 32.9499 59.6838 32.9499 62.2508 32.9499C65.8747 33.0999 69.4986 33.0999 73.1226 33.0999C80.3704 33.0999 87.6183 32.9499 94.8662 32.9499C102.114 32.9499 109.513 32.7999 116.761 32.7999C124.009 32.7999 131.256 32.4999 138.504 32.4999C140.014 32.4999 141.675 32.4999 143.185 32.7999C143.94 32.9499 144.846 32.9499 145.601 32.9499C145.601 32.6499 145.752 32.4999 145.752 32.1999Z" fill="url(#paint2_radial_2009_26736)"/>
<path d="M146.054 30.8498C144.846 30.8498 143.638 30.8498 142.279 30.6998C140.467 30.5498 138.504 30.5498 136.692 30.5498C133.068 30.5498 129.596 30.6998 125.972 30.6998C118.724 30.8498 111.476 30.8498 104.228 30.9998C96.8291 30.9998 89.5813 31.1498 82.3334 31.1498C75.0855 31.2998 67.8377 31.1498 60.5898 30.9998C58.6268 30.9998 56.5129 30.8498 54.3989 30.8498C54.5499 31.1498 54.5499 31.2998 54.5499 31.4498C57.1169 31.5998 59.6838 31.5998 62.4018 31.5998C66.0257 31.7498 69.6496 31.7498 73.2736 31.7498C80.5214 31.7498 87.7693 31.5998 95.0172 31.5998C102.265 31.5998 109.664 31.4498 116.912 31.4498C124.16 31.4498 131.256 30.9998 138.504 31.1498C140.014 31.1498 141.675 31.1498 143.185 31.4498C144.091 31.5998 144.997 31.5998 146.054 31.5998C145.903 31.2998 145.903 31.1498 146.054 30.8498Z" fill="url(#paint3_radial_2009_26736)"/>
<path d="M146.205 29.6499C144.846 29.6499 143.638 29.4999 142.279 29.4999C140.467 29.3499 138.504 29.3499 136.692 29.3499C133.068 29.3499 129.596 29.4999 125.972 29.4999C118.724 29.6499 111.325 29.6499 104.077 29.6499C96.8291 29.6499 89.4303 29.7999 82.1824 29.9499C74.9345 30.0999 67.6867 29.9499 60.4388 29.7999C58.3248 29.7999 56.2109 29.6499 54.0969 29.6499C54.0969 29.7999 54.0969 30.0999 54.2479 30.2499C56.9659 30.3999 59.5328 30.3999 62.2508 30.3999C65.8747 30.5499 69.4986 30.5499 73.1226 30.5499C80.3704 30.6999 87.6183 30.3999 94.8662 30.3999C102.114 30.3999 109.513 30.2499 116.761 30.2499C124.009 30.0999 131.105 29.7999 138.353 29.9499C139.863 29.9499 141.524 29.9499 143.034 30.2499C144.091 30.3999 144.997 30.3999 146.054 30.3999C146.205 30.0999 146.205 29.7999 146.205 29.6499Z" fill="url(#paint4_radial_2009_26736)"/>
<path d="M146.356 28.2999C144.997 28.4499 143.638 28.2999 142.279 28.1499C140.467 27.8499 138.504 27.9999 136.692 27.9999C133.068 27.9999 129.595 28.1499 125.972 28.1499C118.724 28.2999 111.325 28.2999 104.077 28.2999C96.8291 28.2999 89.4303 28.4499 82.1824 28.4499C74.9345 28.5999 67.6867 28.4499 60.4388 28.2999C58.1738 28.2999 56.0599 28.1499 53.7949 28.1499C53.7949 28.2999 53.9459 28.5999 53.9459 28.7499C56.6639 28.8999 59.3818 28.8999 62.2508 28.8999C65.8747 29.0499 69.4986 29.0499 73.1226 29.1999C80.3704 29.1999 87.6183 29.0499 94.8661 29.0499C102.114 29.0499 109.513 28.8999 116.761 28.8999C124.009 28.8999 131.105 28.4499 138.353 28.5999C139.863 28.5999 141.524 28.5999 143.034 28.8999C144.091 29.0499 145.148 29.0499 146.205 29.0499C146.356 28.7499 146.356 28.4499 146.356 28.2999Z" fill="url(#paint5_radial_2009_26736)"/>
</g>
<path opacity="0.8" d="M145.601 29.0501C144.242 30.2501 143.336 29.5001 142.128 29.2001C142.279 29.8001 142.43 30.2501 142.43 30.8501C142.43 31.1501 142.128 31.4501 141.826 31.4501C140.014 31.4501 138.202 30.8501 136.39 30.8501C134.276 30.7001 132.313 30.5501 130.199 30.7001C125.821 31.0001 121.593 31.6001 117.214 31.6001C108.607 31.6001 100.151 30.4001 91.6952 30.5501C83.2394 30.5501 75.0855 32.5001 66.6297 32.8001C64.0627 32.9501 60.2878 33.5501 57.8718 32.5001C55.7579 31.3001 55.1539 28.7501 53.6439 27.1001C53.7949 28.1501 54.0969 29.3501 54.3989 30.4001C54.5499 31.6001 54.5499 32.8001 54.8519 34.1501C54.8519 34.1501 54.8519 34.1501 54.8519 34.3001C54.8519 34.4501 55.1539 34.4501 55.3049 34.4501C62.2508 34.6001 69.0456 34.4501 75.9915 34.4501C82.9374 34.4501 89.8832 34.4501 96.8291 34.4501C110.721 34.4501 124.613 34.4501 138.504 34.4501C140.618 34.4501 142.732 34.4501 144.997 34.4501H145.148C145.601 34.1501 145.903 33.4001 145.903 32.8001C146.205 31.9001 146.356 30.8501 146.507 29.8001C146.658 29.2001 146.658 28.4501 146.658 27.8501C146.205 28.3001 145.903 28.7501 145.601 29.0501Z" fill="url(#paint6_linear_2009_26736)"/>
<path d="M152.698 164.5C152.849 162.55 152.698 160.3 152.698 160C152.547 157 152.245 154 151.943 151C151.792 148 151.641 144.85 151.49 141.85C151.339 135.7 151.641 129.7 151.49 123.55C151.339 118.15 150.886 112.75 150.735 107.35C151.49 94.9 150.735 82.45 151.188 70C151.49 63.7 151.49 57.4 151.792 51.1C151.943 48.4 151.943 45.85 151.49 43.15C151.037 40.45 149.678 38.2 148.017 36.1C147.262 35.05 146.356 34.15 145.45 33.25C145.299 33.25 145.299 33.25 145.148 33.4L144.997 33.25C141.826 32.95 138.504 32.95 135.333 33.1C132.011 33.1 128.689 33.1 125.518 33.1C118.573 33.1 111.778 33.1 104.832 33.25C97.886 33.4 91.0911 33.55 84.1452 33.55C80.8233 33.55 77.3504 33.55 74.0284 33.55C70.7065 33.55 67.3845 33.85 64.0626 33.85C60.8917 33.85 57.7207 33.7 54.5498 33.85C51.0769 37.15 48.5099 41.5 47.4529 46.15C46.8489 49 46.9999 52 47.1509 55C47.3019 58.3 47.7549 61.45 47.9059 64.75C48.3589 71.35 48.8119 77.8 48.9629 84.4C49.1139 87.7 49.2649 90.85 49.2649 94.15C49.2649 97.45 49.2649 100.6 49.2649 103.9C49.2649 104.95 49.4159 106.15 49.4159 107.35C49.4159 109.9 49.5669 112.45 49.7179 115C50.0199 120.1 50.0199 125.2 50.1709 130.3C50.1709 135.55 50.1709 140.8 50.1709 145.9C50.1709 148.45 50.1709 151.15 50.0199 153.7C49.8689 155.8 49.8689 157.9 49.8689 160C49.7179 161.65 49.5669 163.45 49.8689 165.1C50.1709 166.6 50.7749 167.8 51.6808 169C52.5868 170.05 53.9458 170.95 55.1538 171.7C57.2677 173.8 60.7407 174.25 63.7606 174.4C68.5925 174.7 73.4244 174.55 78.2563 174.55C83.0882 174.7 87.9202 174.4 92.9031 174.25C97.886 173.95 102.718 174.7 107.55 174.7C107.55 174.7 107.701 174.7 107.701 174.55C109.966 174.55 112.382 174.55 114.647 174.55C120.385 174.55 125.971 174.7 131.709 174.85C134.578 174.85 137.296 174.85 140.165 174.55C142.279 174.4 144.544 174.25 146.356 173.35C149.678 171.85 151.792 168.1 152.547 164.8C152.849 164.65 152.849 164.5 152.698 164.5Z" fill="url(#paint7_radial_2009_26736)"/>
<g opacity="0.7" style="mix-blend-mode:soft-light">
<path d="M147.564 35.9501C146.96 35.0501 146.356 34.1501 145.752 33.2501L145.601 33.1001C145.45 33.1001 145.45 33.1001 145.299 33.2501L145.148 33.1001C141.977 32.8001 138.655 32.8001 135.484 32.9501C132.162 32.9501 128.841 32.9501 125.67 32.9501C118.724 32.9501 111.929 32.9501 104.983 33.1001C98.0371 33.2501 91.2422 33.4001 84.2964 33.4001C80.9744 33.4001 77.5015 33.4001 74.1796 33.4001C70.8576 33.4001 67.5357 33.7001 64.2137 33.7001C63.1568 33.7001 62.0998 33.7001 61.0428 33.7001C59.0798 34.3001 57.2679 35.5001 55.7579 37.1501C54.3989 38.5001 53.0399 39.8501 51.832 41.2001C51.077 41.9501 50.02 43.1501 49.416 44.2001C50.322 44.6501 51.379 44.9501 52.436 45.2501C55.3049 45.8501 58.4758 45.5501 61.4958 45.4001C67.9887 44.8001 74.3305 45.1001 80.8234 45.7001C83.5414 45.8501 86.1083 46.0001 88.8263 46.1501C94.7152 45.8501 100.755 45.5501 106.644 45.4001C110.117 45.2501 113.59 45.1001 117.063 45.4001C120.234 45.7001 123.405 46.1501 126.576 46.3001C129.596 46.4501 132.464 46.0001 135.484 46.0001C137.749 46.0001 139.863 46.0001 142.128 46.0001C144.242 46.0001 148.017 46.3001 149.074 43.9001C149.98 41.2001 149.074 38.3501 147.564 35.9501Z" fill="url(#paint8_linear_2009_26736)"/>
</g>
<g opacity="0.3" style="mix-blend-mode:soft-light">
<path d="M140.769 82.7501C130.501 97.6001 124.764 103.6 125.972 118C127.029 132.25 128.539 140.8 117.063 146.65C105.587 152.5 101.661 145.9 88.8263 149.8C75.9915 153.7 66.7807 154.3 62.8547 159.55C58.9288 164.8 60.2878 166.45 72.0656 163.3C83.8433 160.15 88.5243 159.1 99.3961 161.65C110.268 164.35 131.558 163 136.843 162.4C142.128 161.8 129.897 157.9 137.145 157.15C144.393 156.4 143.789 161.35 142.43 153.4C141.071 145.45 138.504 130.9 141.373 124.3C144.242 117.7 142.732 130.45 144.695 138.1C146.658 145.75 149.376 158.2 149.376 137.5C149.376 116.8 147.715 121.3 147.111 108.85C146.658 96.5501 147.262 73.4501 140.769 82.7501Z" fill="url(#paint9_radial_2009_26736)"/>
</g>
<path opacity="0.4" d="M152.698 164.5C152.849 162.55 152.698 160.3 152.698 160C152.547 157 152.245 154 151.943 151C151.792 148 151.641 144.85 151.49 141.85C151.339 135.7 151.641 129.7 151.49 123.55C151.339 118.15 150.886 112.75 150.735 107.35C151.49 94.9 150.735 82.45 151.188 70C151.49 63.7 151.49 57.4 151.792 51.1C151.943 48.4 151.943 45.85 151.49 43.15C151.037 40.45 149.678 38.2 148.017 36.1C147.262 35.05 146.356 34.15 145.45 33.25C145.299 33.25 145.299 33.25 145.148 33.4L144.997 33.25C141.826 32.95 138.504 32.95 135.333 33.1C132.011 33.1 128.689 33.1 125.518 33.1C118.573 33.1 111.778 33.1 104.832 33.25C97.886 33.4 91.0911 33.55 84.1452 33.55C80.8233 33.55 77.3504 33.55 74.0284 33.55C70.7065 33.55 67.3845 33.85 64.0626 33.85C60.8917 33.85 57.7207 33.7 54.5498 33.85C51.0769 37.15 48.5099 41.5 47.4529 46.15C46.8489 49 46.9999 52 47.1509 55C47.3019 58.3 47.7549 61.45 47.9059 64.75C48.3589 71.35 48.8119 77.8 48.9629 84.4C49.1139 87.7 49.2649 90.85 49.2649 94.15C49.2649 97.45 49.2649 100.6 49.2649 103.9C49.2649 104.95 49.4159 106.15 49.4159 107.35C49.4159 109.9 49.5669 112.45 49.7179 115C50.0199 120.1 50.0199 125.2 50.1709 130.3C50.1709 135.55 50.1709 140.8 50.1709 145.9C50.1709 148.45 50.1709 151.15 50.0199 153.7C49.8689 155.8 49.8689 157.9 49.8689 160C49.7179 161.65 49.5669 163.45 49.8689 165.1C50.1709 166.6 50.7749 167.8 51.6808 169C52.5868 170.05 53.9458 170.95 55.1538 171.7C57.2677 173.8 60.7407 174.25 63.7606 174.4C68.5925 174.7 73.4244 174.55 78.2563 174.55C83.0882 174.7 87.9202 174.4 92.9031 174.25C97.886 173.95 102.718 174.7 107.55 174.7C107.55 174.7 107.701 174.7 107.701 174.55C109.966 174.55 112.382 174.55 114.647 174.55C120.385 174.55 125.971 174.7 131.709 174.85C134.578 174.85 137.296 174.85 140.165 174.55C142.279 174.4 144.544 174.25 146.356 173.35C149.678 171.85 151.792 168.1 152.547 164.8C152.849 164.65 152.849 164.5 152.698 164.5ZM143.034 40.45C142.883 42.55 142.128 45.25 139.561 45.55C138.051 45.7 136.541 45.4 135.031 45.55C133.521 45.7 132.011 46.15 130.501 45.85C130.35 45.85 130.35 45.7 130.35 45.55C131.256 44.35 133.068 43.75 134.427 43C135.635 42.25 136.692 41.5 137.9 40.75C138.806 40 139.561 39.1 140.618 38.65C142.279 38.05 143.185 38.95 143.034 40.45ZM59.8347 36.1C60.5897 35.35 62.5526 35.35 63.1566 35.35C66.4786 35.05 69.8005 35.65 73.1224 35.8C77.9543 36.1 82.6353 35.65 87.4672 35.5C92.1481 35.2 96.678 35.2 101.359 35.2C108.305 35.2 115.251 34.6 122.197 34.45C125.669 34.3 129.142 34.3 132.615 34.45C134.427 34.45 136.239 34.6 138.051 34.75C138.806 34.75 139.712 34.75 140.467 34.9C142.128 35.35 141.222 36.4 140.165 37C137.9 38.2 135.484 39.1 133.068 40.15C130.199 41.35 127.33 42.55 124.31 43.45C121.593 44.35 118.573 45.25 115.553 45.1C112.382 44.95 109.211 44.05 106.04 44.05C102.718 44.05 99.3959 44.35 96.074 44.8C92.7521 45.1 89.4301 45.7 86.1082 45.7C82.7863 45.85 79.6153 45.55 76.4444 45.1C73.8774 44.8 71.1595 44.65 68.5925 43.6C66.4786 42.7 64.6666 41.35 62.8546 40C61.7977 39.1 60.2877 38.2 59.6837 37.15C59.3817 36.55 59.5327 36.25 59.8347 36.1ZM150.886 139.15C150.735 142.15 150.433 145 150.584 148C150.584 149.35 150.584 150.85 150.433 152.2C150.282 153.25 150.131 154.45 149.527 155.35C149.527 155.5 149.376 155.5 149.225 155.35C149.074 155.2 149.074 155.2 148.923 155.05C148.017 154.75 147.564 153.55 147.413 152.8C146.658 150.85 144.544 147.4 143.638 135.4C142.883 137.2 142.883 139.45 143.034 141.4C143.185 143.65 143.638 145.9 144.242 148.15C144.695 150.25 145.299 152.2 145.903 154.3C146.507 156.25 147.262 158.35 147.111 160.45C147.111 160.6 146.96 160.6 146.809 160.6C145.601 160.3 144.393 159.7 143.185 159.25C142.43 158.95 141.675 158.65 140.92 158.5C140.316 158.35 139.41 158.05 138.957 158.35C137.598 159.1 143.638 163 144.242 163.75C144.242 163.9 144.393 163.9 144.242 164.05C143.336 164.8 141.977 164.95 140.769 165.1C139.259 165.1 137.598 165.1 136.088 165.1C132.766 164.95 129.444 164.65 125.971 164.5C122.65 164.35 119.177 164.5 115.855 164.65C109.362 164.95 102.567 165.7 96.074 164.5C92.9031 163.9 89.5811 162.85 86.2592 163.15C82.7863 163.45 79.4643 164.35 75.9914 164.95C72.9714 165.7 69.8005 166 66.6296 166C64.8176 166 63.0056 165.85 61.3447 166.15C60.1367 166.3 58.7777 166.6 57.5697 166.3C57.4187 166.3 57.4187 166 57.4187 166C58.0227 165.4 58.7777 165.1 59.6837 164.8C52.8888 166.6 60.7407 155.65 64.9686 145.6C62.0996 147.1 56.9657 158.05 55.3048 160.6C55.1538 160.75 54.8518 160.75 54.8518 160.45C55.3048 154.75 56.3618 149.2 55.1538 143.5C54.5498 141.1 54.3988 138.4 54.5498 135.7C54.8518 133 55.3048 130.45 55.7578 127.75C56.0598 125.05 56.0598 122.35 56.3618 119.65C56.9657 113.65 59.2307 107.65 58.0227 101.65C57.4187 98.95 56.5127 96.25 55.7578 93.55C54.8518 90.55 54.2478 87.55 53.4928 84.55C52.7378 81.4 51.6808 78.4 51.0769 75.25C50.4729 72.25 50.0199 69.25 49.5669 66.1C49.1139 62.95 48.6609 59.8 48.9629 56.5C49.1139 54.85 49.2649 53.35 49.5669 51.7C50.0199 47.95 50.0199 44.05 52.2848 40.6C52.2848 40.45 52.4358 40.45 52.5868 40.6C53.9458 41.95 53.6438 44.05 54.5498 45.55C54.8518 43.6 54.2478 41.5 54.8518 39.55C55.1538 38.8 55.6068 38.35 56.5127 38.65C57.5697 39.1 58.3247 39.7 59.2307 40.3C60.2877 41.05 61.3447 41.65 62.4016 42.25C64.5156 43.45 66.9316 43.9 69.1965 44.95C69.3475 45.1 69.3475 45.25 69.1965 45.25C69.1965 45.25 69.1965 45.4 69.0455 45.4C65.4216 44.65 59.3817 44.2 56.5127 45.7C62.4016 44.95 63.1566 46.75 65.5726 46.45C68.1395 46.15 72.2165 46.6 74.7834 46.3C77.9543 45.85 81.2763 46 84.4472 46.15C88.0712 46.3 91.6951 46.6 95.47 47.05C98.9429 47.35 102.265 47.65 105.738 47.8C109.211 47.8 112.533 47.8 116.006 47.8C118.875 47.8 121.895 47.95 124.763 47.65C127.632 47.5 130.501 47.2 133.219 47.2C135.333 47.2 138.051 47.35 139.863 48.4C141.222 49.3 141.071 51.1 140.92 52.45C140.618 54.85 140.014 57.25 139.561 59.8C139.108 62.35 138.051 69.1 133.37 80.65C138.655 71.65 141.977 59.35 142.883 55.3C143.789 51.7 144.997 47.5 148.47 45.4C147.262 44.35 145.601 43.15 145.299 41.35C145.148 40.15 146.507 38.35 147.866 38.5C149.225 38.65 149.98 40.6 150.433 41.65C151.188 43.75 151.188 45.85 150.735 48.1C150.131 50.95 148.923 53.5 147.866 56.2C146.809 59.05 146.205 62.2 145.903 65.2C145.601 68.2 145.601 71.2 146.054 74.2C146.507 77.35 147.564 80.2 148.319 83.2C149.678 89.2 150.131 95.35 149.829 101.5C149.527 107.65 148.772 113.95 149.074 120.1C149.225 123.4 149.98 126.55 150.433 129.85C150.886 133.15 151.037 136.15 150.886 139.15Z" fill="url(#paint10_radial_2009_26736)"/>
<g opacity="0.2" style="mix-blend-mode:soft-light">
<path d="M47.7549 53.7999C47.9059 51.0999 47.9059 48.0999 48.8119 45.5499C49.7179 43.1499 51.0769 41.0499 51.8318 38.4999C51.9828 38.0499 52.7378 37.8999 53.0398 38.3499C54.2478 40.2999 54.3988 42.5499 54.5498 44.7999C54.5498 44.0499 54.5498 43.2999 54.5498 42.5499C54.5498 42.3999 54.5498 42.2499 54.5498 42.0999C54.5498 41.1999 54.3988 40.2999 54.5498 39.3999C54.8518 38.3499 55.3048 37.2999 55.4558 36.0999C55.4558 35.6499 56.0598 35.3499 56.5127 35.6499C58.1737 37.2999 59.8347 38.6499 61.7977 39.8499C60.1367 38.4999 58.6267 37.2999 57.7207 35.3499C57.5697 35.0499 57.8717 34.7499 58.1737 34.5999C59.6837 34.4499 61.0427 34.4499 62.5526 34.5999C64.3646 34.7499 66.0256 34.5999 67.8375 34.2999C71.1595 33.9999 74.4814 33.6999 77.9543 33.3999C76.7464 33.3999 75.3874 33.3999 74.0284 33.3999C70.7065 33.3999 67.3845 33.6999 64.0626 33.6999C60.8917 33.6999 57.7207 33.5499 54.5498 33.6999C51.0769 37.1499 48.5099 41.4999 47.4529 46.1499C46.8489 48.9999 46.9999 51.9999 47.1509 54.9999C47.3019 56.3499 47.3019 57.6999 47.4529 59.1999C47.6039 57.2499 47.7549 55.5999 47.7549 53.7999Z" fill="url(#paint11_radial_2009_26736)"/>
</g>
<g opacity="0.2" style="mix-blend-mode:soft-light">
<path d="M124.009 33.0999C126.727 33.0999 129.445 33.2499 132.162 33.0999C135.635 33.0999 140.316 32.3499 143.336 34.2999C143.789 34.5999 143.789 35.0499 143.336 35.3499C137.749 38.4999 132.162 41.7999 127.029 45.6999C132.766 43.2999 137.9 39.8499 143.336 36.8499C143.789 36.5499 143.336 39.6999 143.034 40.8999C141.071 47.0499 140.769 53.7999 139.41 60.0999C139.259 60.9999 139.108 62.4999 138.504 64.5999C138.504 64.7499 138.504 64.8999 138.353 65.0499C138.957 63.8499 139.712 62.6499 140.165 61.2999C146.205 44.7999 146.205 38.0499 146.054 33.5499C145.903 33.3999 145.752 33.2499 145.601 32.9499C145.45 32.9499 145.45 32.9499 145.299 33.0999L145.148 32.9499C141.977 32.6499 138.655 32.6499 135.484 32.7999C132.162 32.7999 128.841 32.7999 125.67 32.7999C124.462 32.7999 123.405 32.7999 122.197 32.7999C122.65 33.0999 123.405 33.0999 124.009 33.0999Z" fill="url(#paint12_radial_2009_26736)"/>
</g>
<g opacity="0.2" style="mix-blend-mode:soft-light">
<path d="M152.698 164.5C152.698 163.6 152.849 162.55 152.849 161.8C151.49 165.55 149.678 168.4 146.809 165.85C145.752 167.35 143.185 167.5 141.524 167.65C138.504 167.8 135.333 167.5 132.313 167.2C123.858 166.3 115.402 167.2 106.946 167.35C100.151 167.5 93.3561 166.9 86.5613 166.9C79.9174 166.9 73.1225 167.05 66.4786 167.2C64.0627 167.2 61.4957 167.35 59.0798 167.5C57.2678 167.65 55.0029 167.8 53.3419 166.9C51.6809 166 51.0769 164.2 50.7749 162.7C50.4729 161.35 50.4729 160 50.3219 158.8C50.3219 159.25 50.3219 159.55 50.3219 160C50.1709 161.65 50.0199 163.45 50.3219 165.1C50.6239 166.6 51.2279 167.8 52.1339 169C53.0399 170.05 54.3989 170.95 55.6068 171.7C57.7208 173.8 61.1937 174.25 64.2137 174.4C69.0456 174.7 73.8775 174.55 78.7094 174.55C83.5413 174.7 88.3732 174.4 93.3561 174.25C98.339 173.95 103.171 174.7 108.003 174.7C108.003 174.7 108.154 174.7 108.154 174.55C110.419 174.55 112.835 174.55 115.1 174.55C120.838 174.55 126.425 174.7 132.162 174.85C135.031 174.85 137.749 174.85 140.618 174.55C142.732 174.4 144.997 174.25 146.809 173.35C150.131 171.85 152.245 168.1 153 164.8C152.849 164.65 152.849 164.5 152.698 164.5Z" fill="url(#paint13_linear_2009_26736)"/>
</g>
<g opacity="0.4">
<path d="M55.4558 35.0499C54.0968 36.0999 53.9458 38.4999 53.9458 39.9999C53.9458 41.9499 54.2478 44.0499 54.3988 45.9999C54.3988 46.1499 54.5498 46.1499 54.5498 45.9999C54.7008 44.1999 54.5498 42.2499 54.5498 40.4499C54.5498 39.5499 54.5498 38.4999 54.8518 37.5999C55.0028 36.6999 55.4558 35.9499 55.7578 35.1999C55.7578 35.0499 55.6068 34.8999 55.4558 35.0499Z" fill="url(#paint14_radial_2009_26736)"/>
<path d="M60.1367 38.95C59.0797 38.35 57.4188 37 57.4188 35.65C57.4188 35.5 57.4188 35.5 57.2678 35.5C56.3618 35.95 57.1168 37 57.5698 37.45C58.1738 38.2 59.2307 38.95 60.1367 39.25C60.1367 39.25 60.1367 39.1 60.1367 38.95Z" fill="url(#paint15_radial_2009_26736)"/>
<path d="M143.336 36.1C141.826 36.55 140.316 37.45 138.957 38.2C137.598 38.95 136.239 39.85 135.031 40.9C135.031 40.9 135.031 41.05 135.182 41.05C136.541 40.15 137.9 39.4 139.259 38.65C140.618 37.9 142.279 37.45 143.487 36.55C143.94 36.4 143.638 35.95 143.336 36.1Z" fill="url(#paint16_radial_2009_26736)"/>
<path d="M143.94 38.8C142.581 42.25 142.128 46.15 141.826 49.75C141.373 53.65 140.92 57.5501 140.165 61.3001C140.165 61.4501 140.316 61.4501 140.316 61.3001C141.222 57.5501 141.826 53.8 142.43 50.05C142.732 48.25 143.034 46.45 143.336 44.5C143.638 42.55 144.091 40.6 144.544 38.65C144.393 38.65 144.091 38.5 143.94 38.8Z" fill="url(#paint17_radial_2009_26736)"/>
<path d="M54.8518 145.75C54.8518 145.6 54.7008 145.6 54.7008 145.75C54.7008 149.2 55.3048 152.35 54.5498 155.8C53.9458 158.8 53.1908 161.5 53.4928 164.65C53.4928 164.8 53.7948 164.8 53.7948 164.65C53.9458 163 54.0968 161.35 54.3988 159.7C54.7008 158.2 55.1538 156.7 55.4558 155.2C55.7578 152.2 54.8518 148.9 54.8518 145.75Z" fill="url(#paint18_radial_2009_26736)"/>
<path d="M58.1738 157.6C58.1738 157.45 58.1738 157.45 58.1738 157.6C57.8718 158.35 53.1909 163.9 55.6068 164.05C55.7578 164.05 55.7578 163.9 55.6068 163.9C54.5499 163.15 58.1738 158.65 58.1738 157.6Z" fill="url(#paint19_radial_2009_26736)"/>
<g opacity="0.4" style="mix-blend-mode:soft-light">
<path d="M148.017 165.25C146.658 162.1 143.638 160.6 140.316 159.7C140.165 159.7 140.014 159.85 140.165 160C143.185 161.35 146.356 162.55 148.017 165.25C148.017 165.4 148.017 165.4 148.017 165.25Z" fill="url(#paint20_radial_2009_26736)"/>
</g>
<g opacity="0.4" style="mix-blend-mode:soft-light">
<path d="M148.621 160.3C148.168 158.35 147.262 156.4 146.658 154.6C145.148 150.7 144.846 146.35 143.336 142.45C143.336 142.3 143.185 142.45 143.185 142.45C144.393 146.35 144.393 150.55 145.752 154.45C146.507 156.4 147.262 158.2 147.866 160.15C148.47 162.25 148.621 164.35 149.376 166.3C149.376 166.45 149.527 166.3 149.527 166.3C149.074 164.35 149.074 162.25 148.621 160.3Z" fill="url(#paint21_radial_2009_26736)"/>
</g>
<g opacity="0.4" style="mix-blend-mode:soft-light">
<path d="M152.849 164.65C153 162.7 152.849 160.45 152.849 160.15C152.698 157.15 152.396 154.15 152.245 151.15C152.094 148.15 151.943 145 151.792 142C151.641 136 151.943 129.85 151.792 123.7C151.641 118.3 151.188 112.9 151.037 107.5C151.792 95.05 151.037 82.6 151.49 70.15C151.792 63.85 151.792 57.55 152.094 51.25C152.245 48.55 152.245 46 151.792 43.3C151.188 40.6 149.829 38.35 148.168 36.25C147.413 35.2 146.507 34.3 145.601 33.4C145.45 33.4 145.45 33.4 145.299 33.4C145.299 33.4 145.148 33.4 145.148 33.25C141.977 32.95 138.806 32.95 135.484 33.1C132.162 33.1 128.991 33.1 125.67 33.1C118.724 32.95 111.929 33.1 104.983 33.25C98.037 33.4 91.2421 33.55 84.2963 33.55C80.9743 33.55 77.6524 33.55 74.1795 33.55C70.8575 33.55 67.5356 33.85 64.2137 33.85C61.0427 33.85 57.8718 33.7 54.5498 33.85C51.0769 37.3 48.51 41.65 47.453 46.3C47 49.15 47 52.15 47.151 55C47.302 58.3 47.755 61.45 47.906 64.75C48.359 71.35 48.8119 77.8 49.1139 84.4C49.2649 87.7 49.4159 90.85 49.4159 94.15C49.4159 97.45 49.4159 100.6 49.4159 103.9C49.4159 104.95 49.5669 106.15 49.5669 107.2C49.5669 109.75 49.7179 112.3 49.8689 114.85C50.1709 119.95 50.1709 125.05 50.3219 130.15C50.3219 135.4 50.3219 140.65 50.3219 145.75C50.3219 148.3 50.3219 151 50.1709 153.55C50.0199 155.65 50.0199 157.75 50.0199 159.85C49.8689 161.5 49.7179 163.3 50.0199 164.95C50.3219 166.45 50.9259 167.65 51.8319 168.85C52.7379 169.9 54.0968 170.8 55.3048 171.55C57.4188 173.65 61.0427 174.1 63.9117 174.25C68.7436 174.55 73.5755 174.4 78.4074 174.4C83.2393 174.55 88.0712 174.25 93.0541 174.1C98.037 173.8 102.869 174.55 107.701 174.55C107.701 174.55 107.852 174.55 107.852 174.4C110.117 174.4 112.533 174.4 114.798 174.4C120.536 174.4 126.122 174.55 131.86 174.7C134.729 174.7 137.447 174.7 140.316 174.4C142.43 174.25 144.544 174.1 146.507 173.2C149.829 171.7 151.943 167.95 152.698 164.65C153 164.8 152.849 164.65 152.849 164.65ZM54.5498 34.45L54.7008 34.3C57.8718 34.15 61.0427 34.3 64.2137 34.45C67.5356 34.6 70.8575 34.3 74.1795 34.15C80.9743 34.15 87.7692 34.15 94.5641 34C101.51 33.85 108.305 33.7 115.251 33.7C122.046 33.7 128.689 33.85 135.484 33.7C138.655 33.7 141.826 33.7 145.148 34C145.299 34 145.45 33.85 145.45 33.85C146.96 35.65 148.319 37.45 149.527 39.55C150.584 41.35 151.037 43.45 151.188 45.55C146.205 44.2 140.618 45.25 135.484 45.55C132.464 45.7 129.293 45.7 126.122 45.85C122.801 46 119.479 46.15 116.157 46C112.684 45.85 109.362 45.4 105.889 45.4C102.567 45.4 99.094 45.55 95.7721 45.55C88.9772 45.7 82.1823 45.4 75.3874 45.4C73.1225 45.4 70.7065 45.25 68.4416 45.25C66.0256 45.25 63.6097 45.1 61.1937 45.25C58.9288 45.4 56.6638 46 54.2478 46C52.2849 46 50.1709 45.4 48.208 45.7C49.5669 41.5 51.6809 37.75 54.5498 34.45ZM145.752 173.2C143.487 174.1 140.92 174.1 138.655 174.1C135.937 174.25 133.219 174.25 130.501 174.25C121.744 174.1 112.835 174.1 104.077 174.1C100.906 173.8 97.584 173.65 94.4131 173.8C89.7322 173.95 85.0513 174.25 80.2194 174.25C75.6894 174.25 71.0085 174.25 66.4786 174.1C63.0057 174.1 59.3817 173.8 56.5128 172C62.4017 173.2 68.5926 172.6 74.6325 172.75C77.9544 172.75 81.4273 172.9 84.7493 173.05C88.0712 173.05 91.5441 172.9 94.8661 172.6C101.661 172.3 108.607 172 115.402 172C121.895 172 128.538 172 135.031 172.3C139.259 172.6 144.091 173.2 148.168 171.85C147.413 172.3 146.658 172.9 145.752 173.2ZM149.074 170.8C144.242 172.9 138.504 171.7 133.521 171.55C126.726 171.25 119.932 171.25 113.137 171.25C106.342 171.25 99.396 171.55 92.6011 171.85C85.8063 172.3 79.1624 171.85 72.3675 171.85C66.7806 171.85 61.3447 172.3 55.7578 171.25C55.3048 170.95 55.0028 170.5 54.5498 170.2L54.3988 170.05C54.3988 170.05 54.3988 170.05 54.2478 170.05C53.6439 169.6 53.0399 169.3 52.5869 168.7C51.8319 167.95 51.2279 167.05 50.9259 166.15C53.9458 166.6 57.1168 166.6 60.1367 166.6C63.4587 166.6 66.9316 166.6 70.2535 166.6C77.0484 166.75 83.9943 166.75 90.7892 166.6C104.53 166.45 118.271 166.75 132.011 166.9C133.974 166.9 135.937 166.9 138.051 167.05C139.712 167.2 141.524 167.35 143.185 167.35C145.601 167.5 148.772 167.8 151.037 166.6C150.735 168.25 150.131 169.6 149.074 170.8ZM152.094 163C152.094 163.75 152.094 164.5 151.943 165.25C151.943 165.4 151.943 165.7 151.943 165.85C150.584 166.9 148.319 166.9 146.507 167.05C144.393 167.05 142.128 166.9 140.014 166.75C134.276 166.3 128.689 166.6 122.952 166.6C109.211 166.6 95.4701 166.75 81.7293 166.6C76.5954 166.6 71.6125 166.45 66.4786 166.45C61.3447 166.3 56.2108 166.9 51.0769 166.15C50.9259 165.85 50.7749 165.4 50.7749 164.95C50.6239 163.9 50.4729 162.85 50.4729 161.8C50.4729 161.8 50.4729 161.8 50.4729 161.65C50.6239 159.1 50.7749 156.55 50.9259 154C51.0769 151.45 51.0769 148.75 51.0769 146.2C51.0769 140.95 51.0769 135.7 51.0769 130.6C51.0769 125.5 50.9259 120.4 50.6239 115.3C50.4729 112.9 50.3219 110.35 50.1709 107.95C50.1709 101.8 50.1709 95.65 50.0199 89.35C49.8689 82.75 49.4159 76.3 48.9629 69.7C48.8119 66.4 48.51 63.25 48.208 59.95C47.906 56.8 47.453 53.5 47.604 50.2C47.604 48.7 47.906 47.05 48.208 45.55C49.7179 45.4 51.2279 45.7 52.7379 45.85C54.2478 46.15 55.7578 46 57.4188 45.7C58.9288 45.55 60.4387 45.4 61.9487 45.25C63.6097 45.1 65.4216 45.25 67.2336 45.25C74.0285 45.4 80.8233 45.4 87.6182 45.55C94.4131 45.7 101.208 45.25 108.003 45.4C111.476 45.55 114.798 46 118.12 46.15C121.442 46.15 124.764 46 128.085 45.85C132.011 45.7 135.937 45.55 139.863 45.25C143.487 44.95 147.262 44.65 150.735 45.55C150.886 45.55 150.886 45.55 151.037 45.55C151.037 46.15 151.037 46.6 151.037 47.2C151.037 50.05 150.886 52.9 150.886 55.6C150.886 58.9 150.735 62.2 150.584 65.35C150.282 71.95 150.131 78.4 150.282 85C150.433 91.45 150.282 97.9 150.131 104.35C150.131 105.85 150.131 107.2 149.98 108.7C149.98 108.85 150.131 109 150.282 109C150.282 113.35 150.584 117.55 150.735 121.9C150.886 127.6 150.584 133.3 150.735 139C150.735 144.55 150.886 150.25 151.641 155.8C152.094 158.35 152.094 160.6 152.094 163Z" fill="url(#paint22_radial_2009_26736)"/>
</g>
</g>
<path d="M74.3305 91.9C74.3305 91.9 80.0684 92.65 85.8063 91.9C91.5442 91.15 104.53 92.05 111.627 92.05C118.573 92.05 127.029 92.2 127.029 92.2C127.029 92.2 127.029 113.95 126.878 119.65C126.727 125.35 127.482 143.8 127.029 147.7C126.576 151.6 127.029 152.5 127.029 152.5C127.029 152.5 108.758 152.95 101.359 152.95C93.9601 153.1 75.2365 152.8 75.2365 152.8C75.2365 152.8 74.9345 140.5 74.7835 126.85C74.6325 113.2 73.8775 105.1 74.0285 100.45C74.3305 95.65 74.3305 91.9 74.3305 91.9Z" fill="url(#paint23_linear_2009_26736)"/>
<path d="M76.2935 93.4001C76.2935 93.4001 83.8433 93.5501 90.1852 93.2501C96.5271 93.1001 103.171 93.4001 107.852 93.7001C112.533 94.0001 124.915 94.0001 124.915 94.0001C124.915 94.0001 124.764 111.25 124.915 117.1C125.066 122.95 124.764 132.25 125.066 136.6C125.217 140.95 125.368 150.4 125.368 150.4C125.368 150.4 115.855 151 110.419 150.7C104.983 150.55 95.1681 150.55 90.3362 150.7C85.6553 150.85 77.1994 150.55 77.1994 150.55C77.1994 150.55 76.7465 141.85 76.5955 136.15C76.4445 130.45 76.4445 121.45 76.2935 115.45C76.1425 109.45 75.5385 106.9 75.8405 101.8C76.2935 96.7001 76.2935 93.4001 76.2935 93.4001Z" fill="url(#paint24_radial_2009_26736)"/>
<path d="M90.1852 111.4C89.7322 110.5 88.8262 109.6 88.2222 108.7C87.7693 107.95 87.3163 107.05 86.5613 106.45C87.0143 106.3 87.4673 106.15 87.9203 105.85C88.9772 105.1 89.7322 104.05 89.4302 102.7C88.9772 100.15 84.9003 99.7001 82.6354 100.6C82.3334 100.45 82.0314 100.6 82.0314 100.9C81.5784 103.15 81.8804 105.4 82.0314 107.65C82.0314 108.85 81.5784 111.1 82.3334 112.3C82.6353 112.75 83.2393 112.6 83.3903 112.15C83.8433 110.8 83.5413 109 83.3903 107.65C83.3903 107.5 83.3903 107.35 83.3903 107.05C84.1453 106.9 84.9003 106.9 85.6553 106.75C85.9573 107.8 86.7123 108.85 87.3163 109.75C87.9203 110.65 88.3732 111.85 89.4302 112.3C89.8832 112.45 90.3362 111.85 90.1852 111.4ZM83.3903 105.55C83.3903 104.05 83.2393 102.55 82.9373 101.05C84.7493 101.2 86.8633 100.75 88.0712 102.4C88.8262 103.45 87.4673 104.5 86.5613 104.95C85.5043 105.55 84.4473 105.55 83.3903 105.55Z" fill="url(#paint25_radial_2009_26736)"/>
<path d="M96.8291 111.25C96.6781 111.25 96.3761 111.25 96.2251 111.25C96.0741 108.4 96.2251 105.1 95.6211 102.25C95.7721 102.25 95.9231 102.25 96.0741 102.25C96.8291 102.1 96.5271 100.9 95.7721 101.05C95.0171 101.2 94.1111 101.2 93.3561 101.2C93.0541 101.2 93.0541 101.65 93.2051 101.8C93.6581 102.1 93.9601 102.1 94.5641 102.1C94.1111 105.1 94.5641 108.25 94.7151 111.25C94.4131 111.25 94.2621 111.25 93.9601 111.4C93.6581 111.4 93.6581 111.85 93.8091 112C94.1111 112.3 94.7151 112.45 95.1681 112.45C95.6211 112.45 96.2251 112.45 96.6781 112.45C97.2821 112.3 97.4331 111.4 96.8291 111.25Z" fill="url(#paint26_radial_2009_26736)"/>
<path d="M108.305 109.9C107.701 110.5 107.097 111.1 106.191 111.55C104.832 112.3 103.171 111.55 102.265 110.65C100.906 109.45 100.604 107.35 100.755 105.7C101.057 101.8 106.04 99.7001 108.456 103.3C108.607 103.45 108.909 103.45 108.909 103.15C108.909 100.9 106.493 100 104.379 100.3C101.661 100.75 100 102.55 99.547 105.1C98.943 107.65 99.849 110.5 101.963 112.15C104.53 114.1 107.55 113.05 109.211 110.65C109.664 110.05 108.758 109.45 108.305 109.9Z" fill="url(#paint27_radial_2009_26736)"/>
<path d="M118.12 111.85C117.214 111.55 116.157 111.7 115.251 111.7C114.647 111.7 114.043 111.7 113.439 111.85C113.288 110.35 113.137 108.7 113.137 107.2C113.741 107.2 114.194 107.2 114.798 107.2C115.704 107.2 116.61 107.2 117.516 107.35C118.271 107.5 118.422 106.3 117.667 106.15C116.308 105.85 114.496 105.85 112.986 106.3C112.835 104.95 112.986 103.6 112.684 102.25C113.439 102.4 114.194 102.4 114.949 102.4C115.704 102.4 117.063 102.55 117.667 102.1C117.969 101.95 117.969 101.5 117.667 101.2C117.063 100.75 116.006 101.05 115.251 101.05C114.194 101.05 113.137 101.05 112.08 101.2C111.778 101.2 111.627 101.65 111.929 101.8C111.778 105.25 111.778 108.85 112.382 112.3C112.382 112.45 112.382 112.45 112.533 112.6C112.533 112.75 112.684 112.9 112.835 113.05C113.59 113.2 114.496 113.05 115.251 113.05C116.157 113.05 117.214 113.2 118.12 113.05C118.724 112.9 118.724 112 118.12 111.85Z" fill="url(#paint28_radial_2009_26736)"/>
<path d="M83.0884 137.8C83.0884 137.8 83.9944 143.05 100.151 143.2C116.308 143.35 117.516 137.8 117.516 137.8H83.0884Z" fill="url(#paint29_radial_2009_26736)"/>
<path d="M118.271 137.2C118.271 139.75 110.268 141.85 100.302 141.85C90.3362 141.85 82.3334 139.75 82.3334 137.2C82.3334 134.65 90.3362 132.55 100.302 132.55C110.117 132.55 118.271 134.65 118.271 137.2Z" fill="url(#paint30_radial_2009_26736)"/>
<path d="M112.835 135.55C112.08 134.65 111.325 134.05 110.57 133.15C110.268 132.7 109.664 132.25 109.06 132.25C108.607 131.5 107.701 130.9 106.795 130.75C105.738 130.45 104.832 129.55 103.624 129.7C102.416 129.7 101.661 128.65 100.302 128.95C99.396 129.1 99.849 129.4 98.792 129.25C98.1881 129.1 97.5841 129.25 96.9801 129.55C95.4701 129.7 93.3562 129.85 92.2992 131.05C91.6952 131.65 91.3932 131.65 90.7892 132.1C90.1852 132.55 90.0342 133.15 89.4302 133.45C89.1282 133.6 88.5242 134.2 88.8262 134.65C88.2222 134.95 87.4673 135.25 87.1653 135.85C87.0143 136.3 87.7693 137.35 88.2222 137.5C88.8262 137.65 89.1282 137.5 89.5812 137.65C89.2792 138.55 90.7892 138.7 91.3932 138.55C91.9972 141.25 98.0371 138.55 99.396 139.6C100.302 140.35 101.661 140.05 102.869 139.9C104.53 139.6 106.04 139.9 107.701 139.45C108.909 139.15 110.117 138.85 111.174 138.55C111.778 138.1 113.439 136.3 112.835 135.55C113.137 136 112.684 135.4 112.835 135.55Z" fill="url(#paint31_radial_2009_26736)"/>
<path opacity="0.7" d="M112.986 135.85C112.231 137.5 110.268 136.3 112.533 135.4C112.231 135.4 111.476 134.2 111.325 134.05C111.627 135.4 107.852 132.25 110.872 133.45C110.721 133 110.419 132.7 109.966 132.4C108.909 134.35 107.399 133 109.211 132.1C108.456 131.95 108.758 131.35 107.852 131.35C106.795 131.5 106.04 130.45 107.399 130.6C106.342 130.15 105.738 130.15 104.681 130.15C103.926 130.15 102.869 129.4 104.379 129.4C103.926 129.25 103.473 129.25 103.02 129.4C102.718 128.95 102.416 128.8 102.114 128.95C101.812 129.1 99.3961 129.25 100.151 128.5C99.3961 128.8 99.2451 129.1 98.4901 129.4C97.8861 129.7 96.0741 129.55 97.4331 128.8C96.6781 129.1 96.3761 129.55 95.6211 129.7C95.3191 129.7 93.9602 130 94.5642 129.4C93.6582 129.55 94.1112 130.15 93.3562 130.75C92.9032 131.05 91.6952 131.8 92.2992 130.6C91.9972 131.05 91.5442 131.05 90.9402 131.5C93.8092 130.6 90.1852 133.45 90.1852 132.25C89.8832 132.55 90.0342 132.55 89.5812 132.85C92.9032 131.95 89.4302 134.65 88.9773 133.45C88.8263 133.6 88.8263 133.75 88.8263 133.9C89.1283 133.9 90.0342 133.6 90.0342 134.05C90.1852 135.25 86.8633 133.9 87.3163 135.7C87.6183 136.9 88.6753 136.75 89.7322 137.2C89.4302 138.1 90.9402 138.25 91.5442 138.1C91.6952 138.7 92.4502 139 93.0542 139.15C93.9602 139.3 95.0171 139.15 95.9231 139C96.9801 138.85 98.0371 139 99.2451 138.7C97.8861 136 101.208 139 99.8491 139.15C101.057 139.9 102.718 139.45 103.926 139.15C105.285 138.85 106.493 139.15 107.852 138.85C108.607 138.7 110.419 138.85 110.872 137.95C111.476 138.4 113.137 136.75 112.986 135.85C112.986 136.15 112.684 136.3 112.986 135.85ZM90.6382 135.7C90.3362 135.85 88.2223 136.3 88.3733 135.55C88.5243 134.65 91.2422 135.1 90.6382 135.7C90.7892 135.55 90.3362 135.85 90.6382 135.7ZM107.55 132.4C107.701 132.4 107.852 132.4 108.003 132.55C108.305 133.75 103.322 132.1 107.55 132.4ZM105.134 130.75C105.134 130.75 107.399 131.65 106.493 131.95C105.436 132.25 104.077 130.45 105.134 130.75C105.587 130.9 104.832 130.75 105.134 130.75ZM104.077 131.95C104.228 132.25 104.681 134.2 103.926 133.15C103.473 132.85 103.775 131.5 104.077 131.95ZM102.869 131.35C104.379 130.9 103.322 131.95 102.869 132.25C101.51 132.85 101.661 131.65 102.869 131.35C103.171 131.2 102.416 131.5 102.869 131.35ZM102.718 134.35C102.567 135.1 101.812 133.3 101.812 132.85C101.963 132.4 102.869 133.75 102.718 134.35C102.869 133.75 102.718 134.5 102.718 134.35ZM97.8861 130.9C98.1881 130.6 98.4901 130.6 98.7921 130.75C98.4901 130.3 99.6981 129.85 99.8491 129.85C100.151 129.7 101.359 129.7 100.755 130.3C100.906 130.3 102.265 130 102.416 130.45C102.567 131.05 101.208 131.05 100.906 130.9C100.151 130.75 100.151 130.9 99.3961 130.9C102.114 131.95 97.2821 131.8 97.8861 130.9C98.0371 130.6 97.5841 131.35 97.8861 130.9ZM101.057 132.7C100.604 132.85 98.1881 132.7 99.5471 132.25C99.8491 132.1 101.661 132.4 101.057 132.7C101.208 132.55 100.453 132.85 101.057 132.7ZM97.7351 131.65C98.9431 131.5 97.2821 132.7 96.6781 132.7C94.7152 133 96.6781 131.5 97.7351 131.65ZM94.8661 130.75C95.1681 130.3 96.0741 130.3 96.5271 130.45C97.4331 130.75 94.2622 131.65 94.8661 130.75ZM94.4132 131.8C94.7152 131.05 95.1681 131.5 95.1681 132.1C95.1681 134.05 93.9602 133 94.4132 131.8ZM91.6952 132.55C92.1482 131.8 93.2052 131.5 93.9602 131.5C95.4701 131.65 92.6012 134.8 93.2052 132.1C93.0542 132.4 91.3932 133.15 91.6952 132.55C91.9972 132.1 91.6952 132.7 91.6952 132.55ZM91.2422 133.6C91.3932 133.3 92.9032 133.3 92.9032 133.75C92.9032 134.35 90.9402 134.05 91.2422 133.6C91.3932 133.3 91.0912 133.75 91.2422 133.6ZM92.4502 138.25C91.9972 138.4 91.8462 136.6 92.7522 136.75C92.7522 136.45 93.3562 137.8 92.4502 138.25C92.9032 137.95 92.2992 138.25 92.4502 138.25ZM93.2052 136C92.7522 136.45 90.7892 136.3 91.0912 136C91.5442 135.7 92.1482 135.55 92.6012 135.55C92.9032 135.4 93.8092 135.85 93.2052 136C93.5072 135.85 93.0542 136.15 93.2052 136ZM92.4502 134.65C91.8462 134.5 93.9602 133 94.4132 133.75C95.4701 133.9 93.3562 134.95 92.4502 134.65ZM96.5271 136.3C96.3761 137.05 94.2622 137.65 94.7152 136.75C95.0171 136 96.8291 136 96.5271 136.3C96.6781 136.15 96.3761 136.6 96.5271 136.3ZM98.0371 135.25C97.8861 136 97.1311 134.35 97.1311 134.2C96.9801 133.9 95.9231 133.6 97.1311 133.15C98.4901 132.7 99.2451 133.75 97.5841 133.9C97.8861 134.2 98.0371 134.95 98.0371 135.25C98.0371 134.8 97.8861 135.4 98.0371 135.25ZM100 137.05C99.3961 137.95 97.7351 136.75 98.0371 136.75C98.3391 136.75 100.453 136.6 100 137.05ZM100 134.05C100.151 133.6 101.51 132.85 101.359 133.45C101.057 133.75 99.8491 134.65 100 134.05C100 133.6 99.8491 134.2 100 134.05ZM101.812 136.45C100.453 136.45 100.755 135.4 101.963 135.55C103.02 135.7 102.869 136.45 101.812 136.45C102.114 136.45 101.51 136.45 101.812 136.45ZM103.171 135.1C102.718 135.4 100.906 135.4 101.057 134.65C101.208 133.6 103.624 134.8 103.171 135.1C103.322 134.95 102.869 135.4 103.171 135.1ZM103.322 134.05C103.473 133.15 106.04 133.9 105.285 134.35C104.983 134.5 103.171 134.65 103.322 134.05C103.473 133.6 103.171 134.5 103.322 134.05ZM105.738 135.4C106.493 135.7 103.926 136.75 103.926 135.85C103.926 135.25 105.436 135.25 105.738 135.4C105.889 135.4 105.587 135.25 105.738 135.4ZM103.473 136.9C103.775 136.6 105.587 136.9 105.285 137.5C105.134 137.95 103.171 137.35 103.473 136.9C103.926 136.6 103.473 137.05 103.473 136.9ZM106.191 139C105.738 139.15 103.624 138.85 104.228 138.55C104.832 138.25 106.795 138.85 106.191 139C106.342 139 105.738 139.3 106.191 139ZM107.097 135.85C106.795 136.75 104.983 137.05 105.738 136.15C105.889 136.15 107.399 135.25 107.097 135.85ZM107.399 133.9C106.644 134.65 104.832 133.3 105.587 133C105.889 133 107.701 133.6 107.399 133.9ZM109.211 137.8C108.607 138.55 108.003 137.95 108.607 137.2C109.513 136.15 109.966 136.75 109.211 137.8C109.362 137.5 109.06 137.95 109.211 137.8ZM109.966 134.65C109.211 135.4 106.644 135.1 108.003 134.5C108.154 134.2 110.419 134.2 109.966 134.65C109.966 134.5 109.362 134.95 109.966 134.65ZM110.268 135.7C109.513 134.95 111.476 134.95 111.778 135.1C112.231 135.25 110.872 136.15 110.268 135.7C110.419 135.85 109.966 135.4 110.268 135.7Z" fill="url(#paint32_radial_2009_26736)"/>
<path opacity="0.4" d="M91.2422 134.2C90.4872 133.9 90.7892 134.05 89.8832 134.2C90.0342 134.5 90.0342 134.8 89.8832 135.1C90.3362 134.65 90.9402 134.5 91.5441 134.35C91.3932 134.2 91.3931 134.2 91.2422 134.2C91.3931 134.2 91.0912 134.05 91.2422 134.2Z" fill="#A39772"/>
<path opacity="0.4" d="M98.6411 134.2C99.2451 133.9 99.3961 133.6 100 133.3C98.7921 133.3 99.2451 133.3 98.6411 134.2C98.7921 134.05 98.7921 133.9 98.6411 134.2Z" fill="#A39772"/>
<path opacity="0.4" d="M101.812 137.65C101.51 137.65 101.208 137.5 100.906 137.5C100.906 137.95 100.755 138.25 100.453 138.55C100.755 138.55 100.906 138.7 101.057 139C101.208 138.25 101.51 137.95 101.812 137.65C101.51 137.95 101.51 137.5 101.812 137.65Z" fill="#A39772"/>
<path opacity="0.4" d="M107.399 136.75C108.154 136.3 108.607 136.3 109.06 135.7C108.456 136 107.852 136.3 107.097 136.15C106.795 136.9 106.191 137.35 105.436 137.5C105.889 137.5 106.191 137.65 106.644 137.95C106.644 137.35 107.097 137.05 107.399 136.75C107.852 136.45 107.097 137.05 107.399 136.75Z" fill="#A39772"/>
<path opacity="0.4" d="M110.872 136.3C111.023 136 111.023 136 110.419 136C110.419 136.6 110.117 136.9 109.815 137.5C110.57 136.9 110.57 137.05 110.872 136.3Z" fill="#A39772"/>
<path opacity="0.4" d="M107.248 134.05C106.644 134.5 105.738 134.2 105.436 135.25C105.889 135.25 107.097 134.2 107.248 134.05C107.097 134.05 106.795 134.5 107.248 134.05Z" fill="#A39772"/>
<path opacity="0.4" d="M109.06 133.6C108.758 133.75 108.305 133.6 108.003 133.45C107.852 133.75 107.55 134.2 107.248 134.5C108.154 134.2 108.456 134.35 109.06 133.6C108.909 133.9 108.758 133.75 109.06 133.6Z" fill="#A39772"/>
<path opacity="0.4" d="M103.322 135.4C103.775 135.25 104.077 135.1 104.53 134.95C105.436 134.8 104.983 134.8 105.587 134.2C104.983 134.5 104.228 134.65 103.473 134.5C103.624 134.95 103.473 135.25 103.322 135.4Z" fill="#A39772"/>
<path opacity="0.4" d="M95.4701 133C95.4701 133.3 95.3191 133.6 95.1681 133.9C95.7721 133.6 96.2251 133.45 96.6781 133.15C96.2251 133.15 95.9231 133.15 95.4701 133C95.7721 133.15 95.4701 133.3 95.4701 133Z" fill="#A39772"/>
<path opacity="0.4" d="M98.4901 135.85C98.4901 135.7 98.4901 135.7 98.4901 135.55C98.0371 135.7 97.5841 135.7 96.9801 135.7C97.1311 136 97.1311 136.45 96.9801 136.75C97.4331 136.6 98.6411 136 98.4901 135.85C98.6411 135.85 98.4901 135.7 98.4901 135.85Z" fill="#A39772"/>
<path opacity="0.4" d="M94.4132 135.1C94.2622 135.25 93.8092 135.1 93.6582 135.1C93.9602 135.4 94.1112 135.7 94.1112 136C94.4132 135.55 94.7152 135.25 95.0172 134.95C94.7152 134.95 94.5642 134.95 94.4132 135.1Z" fill="#A39772"/>
<path opacity="0.4" d="M98.6411 138.7C98.1881 138.85 96.2251 139.3 96.8291 138.25C96.3761 138.55 93.5072 139.45 94.7152 138.1C93.8092 138.1 94.4132 137.05 94.5642 136.6C93.5072 136.6 94.1112 137.2 94.1112 138.1C94.1112 139 92.9032 139.75 92.9032 138.4C91.8462 139.6 91.2422 138.25 91.6952 137.35C91.3932 137.5 89.8832 138.4 89.7322 137.5C89.5813 137.05 90.1852 136.75 90.4872 136.6C91.5442 136.3 90.4872 136.3 91.2422 135.55C90.4872 135.55 90.9402 136.3 90.0342 136.75C89.5813 136.9 89.4303 136.75 89.2793 136.45C88.8263 136.75 88.2223 137.05 87.7693 136.9C88.2223 137.05 88.6753 137.2 89.1283 137.05C89.5813 137.35 89.2793 137.65 89.8832 137.95C90.3362 138.1 90.7892 138.1 91.2422 138.1C91.3932 138.55 91.8462 138.85 92.2992 139C93.3562 139.45 94.5642 139.15 95.6211 139C96.6781 138.85 97.7351 139 98.9431 138.7C98.9431 138.7 98.7921 138.55 98.6411 138.7Z" fill="#A39772"/>
<path opacity="0.4" d="M104.077 138.85C102.718 140.05 102.114 138.85 103.322 137.95C102.869 137.8 102.869 137.2 102.869 136.9C102.265 137.05 101.661 137.2 101.057 137.05C101.963 137.65 103.473 137.05 102.416 138.55C101.812 139.3 100.604 139.9 99.849 139.15C99.849 139.3 99.698 139.45 99.547 139.6C100.906 140.35 103.02 139.9 104.379 139.45C104.228 139.15 104.077 139 104.077 138.85C104.077 139 103.775 139.15 104.077 138.85Z" fill="#A39772"/>
<path opacity="0.4" d="M112.533 136.9C112.231 137.05 111.778 137.05 111.476 136.9C111.778 137.35 111.325 138.1 110.721 137.5C110.721 138.25 109.362 139.15 109.513 138.1C108.305 139.15 107.399 138.55 108.003 137.2C107.701 137.35 107.399 137.5 107.097 137.65C108.154 138.25 107.097 139.15 106.493 139.45C107.701 139.3 109.513 139.3 110.419 138.55C110.872 138.25 111.778 138.25 111.778 137.5C111.929 137.5 112.986 136.6 112.533 136.9Z" fill="#A39772"/>
<path d="M97.584 131.8C97.282 131.8 95.4701 132.1 96.0741 132.4C96.527 132.85 98.188 131.95 97.584 131.8C97.735 131.8 97.282 131.8 97.584 131.8Z" fill="white"/>
<path d="M100 131.05C99.5471 130.75 98.6411 130.45 98.1881 130.75C97.4331 131.5 101.057 131.65 100 131.05C100.302 131.2 99.8491 130.9 100 131.05Z" fill="white"/>
<path d="M97.8861 130C97.7351 130 95.9232 131.05 96.8291 131.2C97.7351 131.35 98.3391 129.85 97.8861 130Z" fill="white"/>
<path d="M96.2251 130.45C95.9231 130.3 94.5641 130.3 94.5641 130.75C94.5641 131.8 96.98 130.75 96.2251 130.45C96.3761 130.6 96.0741 130.45 96.2251 130.45Z" fill="white"/>
<path d="M94.1111 133.6C93.8091 133.6 92.1481 134.5 92.7521 134.5C93.3561 134.65 94.7151 133.6 94.1111 133.6C94.2621 133.6 93.9601 133.6 94.1111 133.6Z" fill="white"/>
<path d="M92.1482 134.8C91.8462 134.65 90.4873 134.5 90.6383 135.1C90.9402 136 93.0542 135.1 92.1482 134.8C92.4502 134.8 91.9972 134.8 92.1482 134.8Z" fill="white"/>
<path d="M96.8291 137.05C96.3761 136.9 95.3191 137.65 95.4701 138.1C95.7721 139 97.584 137.35 96.8291 137.05Z" fill="white"/>
<path d="M100 136.75C99.8491 136.75 97.5841 136.45 98.1881 137.2C99.0941 137.95 100.604 136.9 100 136.75C100.302 136.75 99.8491 136.6 100 136.75Z" fill="white"/>
<path d="M100.906 133.3C100.453 133.15 99.3961 134.35 99.6981 134.65C100.151 135.25 101.661 133.75 100.906 133.3C101.208 133.6 100.755 133.3 100.906 133.3Z" fill="white"/>
<path d="M102.869 130.6C102.567 130.6 100 131.2 101.057 131.5C101.963 131.8 103.624 130.75 102.869 130.6C103.171 130.6 102.567 130.6 102.869 130.6Z" fill="white"/>
<path d="M102.416 129.1C102.114 128.95 99.8491 128.8 100.906 129.4C100.755 129.4 98.4901 130 99.3961 130.3C99.6981 130.45 101.51 130.15 101.208 129.55C101.661 129.7 103.171 129.25 102.416 129.1C102.567 129.1 102.265 129.1 102.416 129.1Z" fill="white"/>
<path d="M104.832 129.7C104.681 129.7 103.171 129.25 103.322 129.85C103.624 130.75 105.587 129.85 104.832 129.7Z" fill="white"/>
<path d="M106.04 131.2C105.738 131.05 104.228 130.75 104.681 131.35C105.134 131.8 106.493 131.5 106.04 131.2C106.04 131.35 105.587 130.9 106.04 131.2Z" fill="white"/>
<path d="M102.718 133.3C102.567 133 101.963 132.25 101.812 133C101.359 134.05 103.322 134.35 102.718 133.3C102.718 133.45 102.567 133 102.718 133.3Z" fill="white"/>
<path d="M105.285 132.1C104.983 132.1 103.02 131.8 103.171 132.55C103.322 133.9 106.04 132.25 105.285 132.1Z" fill="white"/>
<path d="M108.003 132.4C108.305 131.95 106.644 132.25 106.493 132.25C105.889 132.55 108.003 133.15 108.003 132.4Z" fill="white"/>
<path d="M93.8091 131.2C93.3561 131.2 91.8461 131.8 92.2991 132.4C92.9031 133.15 94.7151 131.35 93.8091 131.2C94.1111 131.2 93.6581 131.2 93.8091 131.2Z" fill="white"/>
<path d="M100.755 135.1C100.453 135.1 98.641 135.25 98.943 135.85C99.396 136.9 101.359 135.25 100.755 135.1C100.906 135.1 100.302 135.1 100.755 135.1Z" fill="white"/>
<path d="M98.641 134.35C98.49 134.05 97.4331 133.15 97.2821 133.9C96.9801 134.65 98.943 134.95 98.641 134.35Z" fill="white"/>
<path d="M100.906 131.8C100.604 131.8 98.792 131.65 98.943 132.25C99.094 133.3 101.51 131.95 100.906 131.8C101.208 131.8 100.453 131.8 100.906 131.8Z" fill="white"/>
<path d="M107.55 135.1C107.399 135.1 104.983 135.55 105.738 135.85C106.493 136.3 108.003 135.25 107.55 135.1C107.701 135.25 107.097 135.1 107.55 135.1Z" fill="white"/>
<path d="M110.117 134.2C109.513 133.9 108.154 134.5 108.909 134.8C109.06 134.8 110.57 134.5 110.117 134.2C110.117 134.35 109.513 134.05 110.117 134.2Z" fill="white"/>
<path opacity="0.7" d="M97.1311 124.9C96.6781 123.85 94.7152 123.55 93.8092 122.95C93.0542 122.5 93.0542 122.05 93.6582 121.45C94.2622 120.85 95.3191 120.85 96.2251 120.4C96.8291 120.1 97.1311 119.35 96.9801 118.75C96.6781 117.7 95.9231 117.25 94.8661 116.8C95.3191 117.1 95.9231 117.4 96.3761 118C96.8291 118.6 96.6781 119.65 96.0741 119.95C95.3191 120.4 94.4132 120.25 93.8092 120.85C92.9032 121.6 92.4502 122.65 93.6582 123.4C94.5642 124.15 96.3761 124.15 96.9801 125.2C97.8861 126.55 94.1112 126.7 95.3191 128.2C95.3191 128.2 95.4701 128.2 95.4701 128.05C95.1681 127 96.8291 127 97.2821 126.25C97.2821 125.8 97.2821 125.35 97.1311 124.9Z" fill="url(#paint33_radial_2009_26736)"/>
<path opacity="0.7" d="M100.755 119.35C100.604 118.3 98.7921 118 99.0941 116.95C99.2451 116.2 100.151 115.6 100.302 114.85C100.453 114.25 99.6981 114.1 99.2451 114.1C99.2451 114.1 99.0941 114.25 99.2451 114.25C100.906 114.55 99.3961 115.75 98.9431 116.5C98.4901 117.1 98.6411 117.7 99.0941 118.15C99.3961 118.6 100 118.75 100.302 119.2C100.755 119.8 100 120.4 99.6981 120.85C99.2451 121.6 99.5471 122.5 100.302 122.95C100.302 122.95 100.453 122.95 100.453 122.8C99.6981 121.9 100.151 121.15 100.755 120.25C100.755 120.1 100.755 119.8 100.755 119.35Z" fill="url(#paint34_radial_2009_26736)"/>
<path opacity="0.7" d="M104.379 115.15C105.285 115.6 105.587 116.05 105.134 116.8C104.832 117.25 104.379 117.7 103.926 118.15C103.322 119.05 103.473 119.8 104.077 120.55C104.681 121.3 105.285 122.05 104.53 122.95C104.077 123.4 103.322 123.7 103.02 124.3C102.114 125.5 102.718 126.7 103.926 127.45C103.926 127.45 104.077 127.45 104.077 127.3C103.322 126.25 102.567 125.5 103.624 124.3C104.077 123.85 104.832 123.55 105.134 122.95C106.04 121.6 105.134 120.85 104.228 119.8C103.322 118.75 105.134 117.4 105.587 116.5C106.04 115.75 105.436 115.3 104.379 115.15Z" fill="url(#paint35_radial_2009_26736)"/>
<path d="M126.878 119.65C127.029 113.95 127.029 92.2 127.029 92.2C127.029 92.2 126.878 92.2 126.727 92.2C125.821 94.75 124.462 97 122.952 99.25C122.046 100.6 120.838 101.8 120.234 103.3C119.781 104.5 119.63 105.85 119.932 107.2C120.385 109.45 121.291 111.7 121.442 114.1C121.744 118.75 119.177 123.7 116.459 127.45C113.59 131.5 109.815 135.25 105.587 138.25C101.963 140.8 98.0371 143.05 93.8092 144.4C90.4872 145.45 84.7493 146.95 82.3334 143.5C81.7294 142.6 81.4274 141.55 81.1254 140.65C80.6724 139.45 80.2194 138.4 79.9174 137.2C79.1624 134.5 78.7094 131.65 78.5584 128.95C78.4074 126.25 78.1054 123.25 78.4074 120.55C78.7094 118.3 80.0684 116.5 81.2764 114.7C86.2593 106.6 77.5015 100.75 74.3305 93.85C74.3305 95.35 74.1795 97.75 74.0285 100.45C73.8775 105.1 74.6325 113.2 74.7835 126.85C74.9345 140.5 75.2365 152.8 75.2365 152.8C75.2365 152.8 93.9601 153.1 101.359 152.95C108.758 152.8 127.029 152.5 127.029 152.5C127.029 152.5 126.576 151.6 127.029 147.7C127.482 143.8 126.727 125.35 126.878 119.65Z" fill="url(#paint36_radial_2009_26736)"/>
<g opacity="0.4" style="mix-blend-mode:soft-light">
<path d="M126.878 119.65C127.029 114.55 127.029 96.25 127.029 92.8C127.029 93.1 127.029 93.25 126.878 93.55C126.425 96.1 126.274 98.8 125.519 101.35C125.217 102.55 124.915 103.75 124.311 104.8C123.707 105.85 122.952 106.9 122.65 108.1C121.744 110.65 123.103 112.75 124.16 115C125.217 117.25 125.519 119.95 125.519 122.35C125.519 124.45 125.67 126.4 125.821 128.5C125.972 132.55 125.972 136.9 124.311 140.65C122.499 144.7 118.875 147.7 114.194 148.3C109.362 148.9 104.379 147.85 99.547 148.45C95.7721 148.9 92.1482 150.55 88.5243 151.45C85.6553 152.2 81.7294 152.95 79.1624 151.15C77.8035 150.25 77.0485 149.05 76.5955 147.55C76.2935 146.5 75.9915 145.3 76.2935 144.25C76.5955 143.05 77.1995 141.85 77.6525 140.8C78.2564 139.3 78.5584 137.8 78.1055 136.15C77.8035 134.8 77.1995 133.45 76.8975 132.1C76.1425 129.25 75.6895 126.25 75.8405 123.4C75.8405 121.9 75.9915 120.4 76.4445 119.05C76.7465 117.85 77.3505 116.8 77.9545 115.75C78.7094 114.4 79.7664 112.9 79.7664 111.4C79.7664 110.05 79.3134 109 78.7094 107.8C77.3505 105.4 76.4445 102.7 75.6895 100C75.0855 98.2 74.7835 96.4 74.4815 94.45C74.4815 95.95 74.3305 97.9 74.3305 100.15C74.1795 104.8 74.9345 112.9 75.0855 126.55C75.2365 140.2 75.5385 152.5 75.5385 152.5C75.5385 152.5 94.2621 152.8 101.661 152.65C109.06 152.5 127.331 152.2 127.331 152.2C127.331 152.2 126.878 151.3 127.331 147.4C127.482 143.8 126.727 125.35 126.878 119.65Z" fill="url(#paint37_radial_2009_26736)"/>
</g>
<g opacity="0.2" style="mix-blend-mode:soft-light">
<path d="M65.2706 86.9499C58.1738 69.2499 49.7179 40.1499 56.3618 52.2999C63.0057 64.4499 66.4786 80.0499 90.7892 64.1499C115.1 48.2499 134.578 42.3999 110.57 59.6499C86.5612 76.8999 73.7265 107.95 65.2706 86.9499Z" fill="url(#paint38_radial_2009_26736)"/>
</g>
<g opacity="0.2" style="mix-blend-mode:soft-light">
<path d="M109.513 53.2C106.04 54.85 102.567 56.2 99.2451 57.85C96.5271 59.2 94.1112 61 91.5442 62.5C88.8263 64.3 85.9573 65.95 83.0884 67.45C80.5214 68.65 77.5015 69.85 74.6325 69.85C74.4815 69.85 74.4815 70 74.6325 70C77.3505 70.15 79.9174 69.4 82.3334 68.35C85.5043 67.15 88.3733 65.35 91.2422 63.55C93.9602 61.9 96.5271 60.1 99.2451 58.6C102.567 56.65 106.191 55.3 109.513 53.2C109.815 53.35 109.664 53.2 109.513 53.2Z" fill="white"/>
</g>
<g opacity="0.2" style="mix-blend-mode:soft-light">
<path d="M139.108 59.6499C130.35 80.0499 117.667 99.0999 100.453 114.1C96.0741 118 91.3931 121.6 86.7122 125.2C85.9572 125.95 85.3533 126.7 84.5983 127.45C87.3162 125.35 90.0342 123.25 92.6011 121.15C97.433 117.25 102.265 113.35 106.644 109.15C110.57 105.25 114.345 101.2 117.818 96.9999C126.877 85.5999 133.823 72.9999 139.108 59.6499Z" fill="white"/>
</g>
<path opacity="0.2" d="M82.6353 111.4C74.9345 126.4 62.5527 139.15 56.6638 155.05C56.6638 155.05 56.8148 155.2 56.8148 155.05C63.1567 139.45 75.3875 126.7 82.6353 111.4C82.7863 111.25 82.6353 111.25 82.6353 111.4Z" fill="white"/>
<g opacity="0.2" style="mix-blend-mode:soft-light">
<path d="M117.818 141.7C112.684 143.95 107.399 146.2 101.963 147.85C96.5271 149.5 90.9402 150.55 85.3533 151C80.9744 151.3 76.4445 151.75 72.2165 153.25C67.9886 154.6 64.5157 157.3 61.7977 160.6L61.9487 160.75C64.8177 157.3 68.5926 154.75 73.1225 153.4C77.6524 152.05 82.4843 151.9 87.3162 151.45C98.188 150.4 108.456 146.5 118.12 141.85C118.12 141.85 117.969 141.7 117.818 141.7Z" fill="white"/>
</g>
<g opacity="0.2" style="mix-blend-mode:soft-light">
<path d="M134.125 48.5501C129.142 48.4001 124.009 48.1001 119.026 47.9501C114.043 47.9501 109.06 48.5501 104.077 48.7001C99.094 48.8501 94.2621 48.1001 89.2792 47.5001C84.5983 46.9001 79.9174 46.6001 75.0854 47.2001C84.7493 46.4501 93.9601 49.6001 103.624 49.1501C108.607 48.8501 113.59 47.9501 118.573 48.1001C123.707 48.1001 128.84 48.7001 134.125 48.7001V48.5501Z" fill="white"/>
</g>
</g>
<defs>
<linearGradient id="paint0_linear_2009_26736" x1="100.039" y1="21.9905" x2="100.039" y2="31.9285" gradientUnits="userSpaceOnUse">
<stop stop-color="#EFE4D8"/>
<stop offset="1" stop-color="#CEAC83"/>
</linearGradient>
<radialGradient id="paint1_radial_2009_26736" cx="0" cy="0" r="1" gradientUnits="userSpaceOnUse" gradientTransform="translate(100.162 29.7491) scale(33.7138 31.9553)">
<stop stop-color="#C8B69E"/>
<stop offset="0.6608" stop-color="#CAB9A2"/>
<stop offset="1" stop-color="#CDBDA7"/>
</radialGradient>
<radialGradient id="paint2_radial_2009_26736" cx="0" cy="0" r="1" gradientUnits="userSpaceOnUse" gradientTransform="translate(100.184 32.5285) scale(32.2263 30.5455)">
<stop stop-color="#C49254"/>
<stop offset="0.892" stop-color="#907152"/>
</radialGradient>
<radialGradient id="paint3_radial_2009_26736" cx="0" cy="0" r="1" gradientUnits="userSpaceOnUse" gradientTransform="translate(100.227 31.2357) scale(32.3707 30.6823)">
<stop stop-color="#C49254"/>
<stop offset="0.892" stop-color="#907152"/>
</radialGradient>
<radialGradient id="paint4_radial_2009_26736" cx="0" cy="0" r="1" gradientUnits="userSpaceOnUse" gradientTransform="translate(100.224 29.9461) scale(32.5259 30.8294)">
<stop stop-color="#C49254"/>
<stop offset="0.892" stop-color="#907152"/>
</radialGradient>
<radialGradient id="paint5_radial_2009_26736" cx="0" cy="0" r="1" gradientUnits="userSpaceOnUse" gradientTransform="translate(100.166 28.6579) scale(32.6789 30.9744)">
<stop stop-color="#C49254"/>
<stop offset="0.892" stop-color="#907152"/>
</radialGradient>
<linearGradient id="paint6_linear_2009_26736" x1="100.066" y1="24.3701" x2="100.066" y2="33.7749" gradientUnits="userSpaceOnUse">
<stop stop-color="white"/>
<stop offset="0.2562" stop-color="#EFE4D8"/>
<stop offset="0.6228" stop-color="#CEAC83"/>
</linearGradient>
<radialGradient id="paint7_radial_2009_26736" cx="0" cy="0" r="1" gradientUnits="userSpaceOnUse" gradientTransform="translate(101.09 92.569) scale(84.3905 79.9889)">
<stop stop-color="#EFE4D8"/>
<stop offset="1" stop-color="#CEAC83"/>
</radialGradient>
<linearGradient id="paint8_linear_2009_26736" x1="99.3659" y1="46.9526" x2="99.3659" y2="31.0586" gradientUnits="userSpaceOnUse">
<stop stop-color="#EFE4D8"/>
<stop offset="0.5132" stop-color="#CEAC83"/>
<stop offset="0.8727" stop-color="#CEAC83"/>
</linearGradient>
<radialGradient id="paint9_radial_2009_26736" cx="0" cy="0" r="1" gradientUnits="userSpaceOnUse" gradientTransform="translate(52.4761 71.9104) scale(127.145 120.514)">
<stop offset="0.6413" stop-color="#CEAC83"/>
<stop offset="0.6808" stop-color="#D8BE9D"/>
<stop offset="0.743" stop-color="#E6D5C0"/>
<stop offset="0.8061" stop-color="#F1E7DC"/>
<stop offset="0.8697" stop-color="#F9F5EF"/>
<stop offset="0.934" stop-color="#FDFCFB"/>
<stop offset="1" stop-color="white"/>
</radialGradient>
<radialGradient id="paint10_radial_2009_26736" cx="0" cy="0" r="1" gradientUnits="userSpaceOnUse" gradientTransform="translate(101.09 92.5691) scale(84.3905 79.9889)">
<stop stop-color="#EFE4D8"/>
<stop offset="1" stop-color="#CEAC83"/>
</radialGradient>
<radialGradient id="paint11_radial_2009_26736" cx="0" cy="0" r="1" gradientUnits="userSpaceOnUse" gradientTransform="translate(101.088 92.5577) scale(84.3809 79.9798)">
<stop stop-color="#EFE4D8"/>
<stop offset="1" stop-color="#CEAC83"/>
</radialGradient>
<radialGradient id="paint12_radial_2009_26736" cx="0" cy="0" r="1" gradientUnits="userSpaceOnUse" gradientTransform="translate(101.048 92.5677) scale(84.5051 80.0976)">
<stop stop-color="#EFE4D8"/>
<stop offset="1" stop-color="#CEAC83"/>
</radialGradient>
<linearGradient id="paint13_linear_2009_26736" x1="101.412" y1="163.735" x2="101.412" y2="174.871" gradientUnits="userSpaceOnUse">
<stop offset="0.2158" stop-color="white"/>
<stop offset="0.3616" stop-color="#EFE4D8"/>
<stop offset="0.4904" stop-color="#CEAC83"/>
</linearGradient>
<radialGradient id="paint14_radial_2009_26736" cx="0" cy="0" r="1" gradientUnits="userSpaceOnUse" gradientTransform="translate(54.8479 40.5307) scale(4.21837 3.99835)">
<stop stop-color="#C8B69E"/>
<stop offset="0.6608" stop-color="#CAB9A2"/>
<stop offset="1" stop-color="#CDBDA7"/>
</radialGradient>
<radialGradient id="paint15_radial_2009_26736" cx="0" cy="0" r="1" gradientUnits="userSpaceOnUse" gradientTransform="translate(58.5054 37.3595) scale(1.79282 1.69931)">
<stop stop-color="#C8B69E"/>
<stop offset="0.6608" stop-color="#CAB9A2"/>
<stop offset="1" stop-color="#CDBDA7"/>
</radialGradient>
<radialGradient id="paint16_radial_2009_26736" cx="0" cy="0" r="1" gradientUnits="userSpaceOnUse" gradientTransform="translate(139.419 38.5072) scale(3.56679 3.38075)">
<stop stop-color="#C8B69E"/>
<stop offset="0.6608" stop-color="#CAB9A2"/>
<stop offset="1" stop-color="#CDBDA7"/>
</radialGradient>
<radialGradient id="paint17_radial_2009_26736" cx="0" cy="0" r="1" gradientUnits="userSpaceOnUse" gradientTransform="translate(142.261 50.0216) scale(8.63892 8.18834)">
<stop stop-color="#C8B69E"/>
<stop offset="0.6608" stop-color="#CAB9A2"/>
<stop offset="1" stop-color="#CDBDA7"/>
</radialGradient>
<radialGradient id="paint18_radial_2009_26736" cx="0" cy="0" r="1" gradientUnits="userSpaceOnUse" gradientTransform="translate(54.3272 155.224) scale(7.15817 6.78482)">
<stop stop-color="#C8B69E"/>
<stop offset="0.6608" stop-color="#CAB9A2"/>
<stop offset="1" stop-color="#CDBDA7"/>
</radialGradient>
<radialGradient id="paint19_radial_2009_26736" cx="0" cy="0" r="1" gradientUnits="userSpaceOnUse" gradientTransform="translate(56.6066 160.773) scale(2.68555 2.54548)">
<stop stop-color="#C8B69E"/>
<stop offset="0.6608" stop-color="#CAB9A2"/>
<stop offset="1" stop-color="#CDBDA7"/>
</radialGradient>
<radialGradient id="paint20_radial_2009_26736" cx="0" cy="0" r="1" gradientUnits="userSpaceOnUse" gradientTransform="translate(144.103 162.567) scale(3.49971 3.31717)">
<stop stop-color="#C8B69E"/>
<stop offset="0.6608" stop-color="#CAB9A2"/>
<stop offset="1" stop-color="#CDBDA7"/>
</radialGradient>
<radialGradient id="paint21_radial_2009_26736" cx="0" cy="0" r="1" gradientUnits="userSpaceOnUse" gradientTransform="translate(146.344 154.358) scale(9.26911 8.78566)">
<stop stop-color="#C8B69E"/>
<stop offset="0.6608" stop-color="#CAB9A2"/>
<stop offset="1" stop-color="#CDBDA7"/>
</radialGradient>
<radialGradient id="paint22_radial_2009_26736" cx="0" cy="0" r="1" gradientUnits="userSpaceOnUse" gradientTransform="translate(100.012 104.023) scale(64.8442 61.4621)">
<stop stop-color="#C8B69E"/>
<stop offset="0.6608" stop-color="#CAB9A2"/>
<stop offset="1" stop-color="#CDBDA7"/>
</radialGradient>
<linearGradient id="paint23_linear_2009_26736" x1="100.601" y1="155.724" x2="100.601" y2="89.3835" gradientUnits="userSpaceOnUse">
<stop stop-color="#6A4A21"/>
<stop offset="0.2641" stop-color="#AA8A55"/>
<stop offset="0.5719" stop-color="#5F4018"/>
<stop offset="0.957" stop-color="#9E8065"/>
</linearGradient>
<radialGradient id="paint24_radial_2009_26736" cx="0" cy="0" r="1" gradientUnits="userSpaceOnUse" gradientTransform="translate(105.209 154.009) scale(62.8802 59.6005)">
<stop offset="0.0340051" stop-color="#E2E2E0"/>
<stop offset="0.2641" stop-color="#EDEFEE"/>
<stop offset="0.86" stop-color="white"/>
</radialGradient>
<radialGradient id="paint25_radial_2009_26736" cx="0" cy="0" r="1" gradientUnits="userSpaceOnUse" gradientTransform="translate(84.887 96.5442) scale(31.5645 29.9182)">
<stop stop-color="#6A4A21"/>
<stop offset="0.2641" stop-color="#AA8A55"/>
<stop offset="0.5719" stop-color="#5F4018"/>
<stop offset="0.957" stop-color="#9E8065"/>
</radialGradient>
<radialGradient id="paint26_radial_2009_26736" cx="0" cy="0" r="1" gradientUnits="userSpaceOnUse" gradientTransform="translate(84.8914 96.5323) scale(31.576 29.9291)">
<stop stop-color="#6A4A21"/>
<stop offset="0.2641" stop-color="#AA8A55"/>
<stop offset="0.5719" stop-color="#5F4018"/>
<stop offset="0.957" stop-color="#9E8065"/>
</radialGradient>
<radialGradient id="paint27_radial_2009_26736" cx="0" cy="0" r="1" gradientUnits="userSpaceOnUse" gradientTransform="translate(84.8869 96.5351) scale(31.5785 29.9315)">
<stop stop-color="#6A4A21"/>
<stop offset="0.2641" stop-color="#AA8A55"/>
<stop offset="0.5719" stop-color="#5F4018"/>
<stop offset="0.957" stop-color="#9E8065"/>
</radialGradient>
<radialGradient id="paint28_radial_2009_26736" cx="0" cy="0" r="1" gradientUnits="userSpaceOnUse" gradientTransform="translate(84.8793 96.5429) scale(31.5763 29.9294)">
<stop stop-color="#6A4A21"/>
<stop offset="0.2641" stop-color="#AA8A55"/>
<stop offset="0.5719" stop-color="#5F4018"/>
<stop offset="0.957" stop-color="#9E8065"/>
</radialGradient>
<radialGradient id="paint29_radial_2009_26736" cx="0" cy="0" r="1" gradientUnits="userSpaceOnUse" gradientTransform="translate(100.076 150.033) scale(19.7775 18.746)">
<stop offset="0.0575575" stop-color="#3F3524"/>
<stop offset="0.9781" stop-color="#18140B"/>
</radialGradient>
<radialGradient id="paint30_radial_2009_26736" cx="0" cy="0" r="1" gradientUnits="userSpaceOnUse" gradientTransform="translate(99.9744 109.82) scale(35.8138 33.9459)">
<stop offset="0.8824" stop-color="#18140B"/>
<stop offset="0.9803" stop-color="#5C4D36"/>
</radialGradient>
<radialGradient id="paint31_radial_2009_26736" cx="0" cy="0" r="1" gradientUnits="userSpaceOnUse" gradientTransform="translate(100.257 121.446) scale(23.0249 21.824)">
<stop offset="0.5992" stop-color="#EDEFEE"/>
<stop offset="1" stop-color="#CECAA9"/>
</radialGradient>
<radialGradient id="paint32_radial_2009_26736" cx="0" cy="0" r="1" gradientUnits="userSpaceOnUse" gradientTransform="translate(100.237 121.428) scale(23.0744 21.8709)">
<stop offset="0.5992" stop-color="#EDEFEE"/>
<stop offset="1" stop-color="#CECAA9"/>
</radialGradient>
<radialGradient id="paint33_radial_2009_26736" cx="0" cy="0" r="1" gradientUnits="userSpaceOnUse" gradientTransform="translate(94.9172 122.386) scale(4.54959 4.3123)">
<stop offset="0.3747" stop-color="#CECAA9"/>
<stop offset="1" stop-color="#EDEFEE"/>
</radialGradient>
<radialGradient id="paint34_radial_2009_26736" cx="0" cy="0" r="1" gradientUnits="userSpaceOnUse" gradientTransform="translate(99.6719 118.56) scale(3.37514 3.19911)">
<stop offset="0.3747" stop-color="#CECAA9"/>
<stop offset="1" stop-color="#EDEFEE"/>
</radialGradient>
<radialGradient id="paint35_radial_2009_26736" cx="0" cy="0" r="1" gradientUnits="userSpaceOnUse" gradientTransform="translate(104.176 121.352) scale(4.7489 4.50122)">
<stop offset="0.3747" stop-color="#CECAA9"/>
<stop offset="1" stop-color="#EDEFEE"/>
</radialGradient>
<radialGradient id="paint36_radial_2009_26736" cx="0" cy="0" r="1" gradientUnits="userSpaceOnUse" gradientTransform="translate(77.9738 100.971) scale(66.4128 62.9489)">
<stop offset="0.5992" stop-color="#EDEFEE"/>
<stop offset="1" stop-color="#CECAA9"/>
</radialGradient>
<radialGradient id="paint37_radial_2009_26736" cx="0" cy="0" r="1" gradientUnits="userSpaceOnUse" gradientTransform="translate(77.9738 100.98) scale(66.407 62.9434)">
<stop offset="0.5992" stop-color="#EDEFEE"/>
<stop offset="1" stop-color="#CECAA9"/>
</radialGradient>
<radialGradient id="paint38_radial_2009_26736" cx="0" cy="0" r="1" gradientUnits="userSpaceOnUse" gradientTransform="translate(83.7665 29.799) scale(77.1189 73.0966)">
<stop offset="0.1812" stop-color="#CEAC83"/>
<stop offset="0.2713" stop-color="#D8BE9D"/>
<stop offset="0.4134" stop-color="#E6D5C0"/>
<stop offset="0.5575" stop-color="#F1E7DC"/>
<stop offset="0.7026" stop-color="#F9F5EF"/>
<stop offset="0.8493" stop-color="#FDFCFB"/>
<stop offset="1" stop-color="white"/>
</radialGradient>
<clipPath id="clip0_2009_26736">
<rect width="106" height="150" fill="white" transform="translate(47 25)"/>
</clipPath>
</defs>
</svg>
