<svg width="200" height="200" viewBox="0 0 200 200" fill="none" xmlns="http://www.w3.org/2000/svg">
<path d="M139.732 114.154C138.065 100.381 129.728 88.6954 116.806 82.8524C112.637 81.183 106.801 80.7656 105.134 75.7573C103.467 70.3316 105.551 64.0712 107.218 58.6455C108.052 56.5588 108.886 54.472 109.719 51.9678C110.136 51.1331 110.553 50.7157 110.553 50.2984C110.136 49.4636 109.302 48.6289 108.886 47.7942C107.218 45.7074 104.717 43.6206 102.633 41.9512C99.2981 39.8644 94.7128 37.7776 91.378 39.8644C90.9612 49.4636 90.5444 58.6455 85.9591 67.4101C82.6243 73.2531 78.8727 77.4267 72.2032 79.5135C63.0326 82.435 53.4451 84.5218 45.9419 90.3648C39.2724 95.3732 35.104 102.051 33.8534 110.398C32.6029 117.076 32.6029 124.171 34.6871 130.431C36.3545 135.44 40.5229 138.361 44.6914 141.7C48.0261 144.204 52.1946 145.874 56.7799 145.874C60.5315 147.96 64.7 148.795 68.8684 148.378C72.62 150.465 78.039 150.882 82.2075 150.882C84.7085 150.882 87.2096 150.047 89.2938 149.213C90.1275 149.213 91.3781 149.63 92.2118 149.63C94.7128 149.63 97.2139 149.63 99.7149 149.213C102.216 150.047 104.717 150.465 106.801 150.882C112.637 151.299 117.639 149.63 122.641 147.126C132.229 142.117 137.648 131.683 139.315 121.667C140.149 119.58 140.149 116.659 139.732 114.154Z" fill="#F5F1EE"/>
<path d="M139.732 114.154C138.064 100.381 129.727 88.6954 116.805 82.8524C112.637 81.183 106.801 80.7656 105.134 75.7573C103.466 70.3316 105.55 64.0712 107.218 58.6455C108.051 56.5588 108.885 54.472 109.719 51.9678C110.136 51.1331 110.553 50.7157 110.553 50.2984C110.136 49.4636 109.302 48.6289 108.885 47.7942C107.218 45.7074 104.717 43.6206 102.633 41.9512C99.2978 39.8644 94.7124 37.7776 91.3777 39.8644C90.9608 49.4636 90.544 58.6455 85.9587 67.4101C82.624 73.2531 78.8724 77.4267 72.2028 79.5135C69.2849 80.3482 66.7838 81.1829 63.8659 82.0177C65.5333 82.8524 61.7817 84.9392 60.948 85.3565C56.3627 87.8607 51.7774 90.3649 48.0258 94.1211C44.2742 98.2947 41.7731 103.72 40.5226 109.146C40.5226 109.563 40.1058 109.981 40.1058 110.815C38.8552 117.911 38.4383 125.006 40.5226 132.101L40.1058 132.518C39.6889 131.683 39.2721 131.266 38.8552 130.431C39.2721 131.683 39.6889 132.936 40.1058 134.605C40.1058 134.605 40.1057 135.022 39.6889 135.022C37.6047 133.353 36.3541 130.849 35.1036 128.345C35.1036 129.179 35.5204 130.014 35.5204 130.849C35.5204 130.849 35.1036 131.266 35.1036 130.849C34.2699 129.597 33.4362 128.345 33.0193 127.092C33.4362 128.762 33.8531 130.014 34.2699 131.683C35.9373 136.692 40.1058 139.613 44.2742 142.952C47.609 145.456 51.7774 147.126 56.3627 147.126C60.1143 149.213 64.2827 150.047 68.4512 149.63C72.2028 151.717 77.6218 152.134 81.7903 152.134C84.2914 152.134 86.7924 151.299 88.8766 150.465C89.7103 150.465 90.9609 150.882 91.7946 150.882C94.2956 150.882 96.7967 150.882 99.2978 150.465C101.799 151.299 104.3 151.717 106.384 152.134C112.22 152.551 117.222 150.882 122.224 148.378C131.812 143.37 137.231 132.936 138.898 122.919C140.149 119.58 140.149 116.659 139.732 114.154ZM55.9458 122.084C55.9458 124.171 55.9458 126.258 55.9458 128.345C55.9458 130.014 55.9459 131.683 55.529 133.353C55.529 133.353 55.529 133.77 55.1122 133.353C54.2785 132.936 53.8616 132.101 53.4448 131.683C53.4448 132.936 53.8616 134.188 53.8616 135.44C53.8616 135.44 53.8616 135.857 53.4448 135.44C53.028 135.022 52.6111 134.605 52.1943 134.188C53.0279 135.857 53.8616 137.526 54.2785 139.613C54.2785 139.613 54.2785 140.031 53.8616 140.031C50.9437 139.196 48.8595 137.109 47.1921 134.605C47.1921 135.022 47.6089 135.44 47.6089 135.857C47.6089 135.857 47.609 136.274 47.1921 136.274C41.7731 130.431 40.9394 122.084 41.7731 114.572C42.6068 105.807 47.1921 97.46 54.2785 92.4516C56.3627 90.7822 58.8638 89.1128 61.7817 88.6954C63.8659 87.4434 66.7838 86.6086 68.8681 87.026C69.7018 87.026 70.5355 87.026 71.3692 87.4433C70.5355 88.2781 69.7018 88.6954 68.8681 89.5301C69.7018 89.1128 70.1186 89.1128 70.9523 89.1128C69.7018 92.0343 66.367 93.7037 64.2827 96.2079C61.3648 99.5468 58.8638 104.138 57.6133 108.311C56.3627 112.485 55.9458 117.493 55.9458 122.084ZM88.8766 121.667C88.8766 122.084 88.4598 122.502 88.4598 122.919C88.0429 123.754 88.0429 124.171 87.6261 125.006C86.3756 128.345 85.5419 132.518 82.624 135.022H82.2071C82.2071 134.188 82.2071 133.353 82.2071 132.935C80.9566 135.44 80.5398 139.196 77.6218 140.448C73.8702 141.7 71.786 137.526 69.2849 135.022C69.7018 136.274 70.1186 137.109 70.1186 138.361C70.1186 138.361 70.1186 138.779 69.7017 138.779C68.0344 137.944 67.2007 135.857 66.367 134.188C66.367 135.022 66.7838 135.857 66.7838 136.274C66.7838 136.274 66.367 136.692 66.367 136.274C63.0322 132.518 62.1986 127.51 61.7817 122.502C61.7817 121.249 61.7817 119.997 61.7817 118.745C61.3649 114.572 62.1985 109.981 63.4491 106.225C64.6996 101.216 67.2007 97.46 70.9523 93.7037C73.8702 90.7822 77.6218 87.4433 81.7903 87.4433C82.624 87.4433 83.4577 87.4433 83.8745 87.4433C85.9587 87.8607 87.2092 89.5301 88.4598 91.1996C90.9608 95.3732 91.7946 100.799 91.7946 105.39C91.7946 110.815 90.544 116.241 88.8766 121.667ZM103.049 55.724C102.216 58.6456 101.382 61.1497 100.548 64.0712C99.2978 66.5754 98.0472 69.0795 96.7967 71.5837C95.963 73.2531 94.7125 74.9226 93.0451 75.7573C92.6283 74.9226 93.0451 74.0878 93.0451 73.2531C91.7946 75.3399 90.544 78.2614 88.043 78.6788C88.4598 76.1747 90.544 73.6705 91.3777 71.1663C88.4598 73.6705 86.7924 77.8441 82.624 78.2615C82.624 78.2615 82.624 78.2614 82.624 77.8441C83.0408 77.4267 83.4577 76.592 83.8745 76.1747C82.624 77.0094 80.9566 78.2614 79.2892 78.6788C79.2892 78.6788 79.2892 78.6788 79.2892 78.2615C80.9566 75.7573 83.8745 74.5052 85.5419 72.0011C87.6261 69.4969 89.2935 66.5754 90.544 63.2365C92.6282 57.8108 94.2956 51.5504 93.8788 45.7074C93.8788 45.2901 93.8788 44.8727 93.8788 44.8727C93.8788 44.8727 93.8788 44.4553 93.8788 44.038C93.8788 42.7859 93.8787 41.1165 95.5461 40.6991C98.4641 39.8644 101.382 43.6206 101.799 46.1248C101.799 46.1248 101.799 45.7074 102.216 45.7074C102.216 45.7074 102.633 45.2901 102.633 45.7074C103.466 47.7942 103.049 49.4637 103.049 51.5505C103.466 50.2984 104.3 49.4636 104.717 48.2116C104.717 48.2116 105.134 47.7942 105.134 48.2116C104.3 50.7157 103.883 53.6372 103.049 55.724ZM121.807 121.249C120.974 119.997 120.974 119.163 120.974 117.911C120.974 119.58 120.557 121.249 120.14 122.919C119.306 125.423 118.473 127.927 116.388 129.179C116.388 128.762 116.388 128.345 116.388 127.927C115.972 128.345 115.555 129.179 115.138 129.597C113.471 131.683 111.386 134.188 108.885 134.605C110.136 132.101 111.803 129.597 112.22 127.092C111.386 128.762 110.553 130.849 108.468 131.266C111.386 123.336 111.803 114.989 110.969 106.642C110.969 105.807 110.553 104.972 110.136 104.138C109.719 102.468 108.885 100.799 108.051 99.5468C106.801 97.46 105.967 95.3732 106.801 92.869C107.635 89.9475 111.386 89.5301 113.47 91.1996C115.972 92.869 118.056 95.3732 119.306 97.8773C122.224 103.303 126.81 114.989 121.807 121.249ZM133.896 115.824C132.645 114.154 133.062 112.068 132.645 109.981C132.229 108.311 131.812 106.225 130.978 104.555C130.978 105.39 131.395 105.807 130.978 106.642C130.978 106.642 130.561 107.059 130.561 106.642C129.311 104.138 128.477 101.634 127.226 99.1294C126.81 97.8773 125.976 97.0426 125.142 96.2079C124.308 94.9558 123.058 93.7037 122.641 92.4516C122.224 91.6169 122.224 90.7822 122.641 90.3648C123.058 87.026 127.226 89.9475 128.477 91.1996C128.894 91.6169 129.311 92.4517 129.727 92.869C131.395 94.5385 132.229 96.2079 133.062 98.2947C133.896 100.381 134.73 102.468 135.146 104.555C136.397 108.311 137.231 113.32 133.896 115.824Z" fill="#EAE8E6"/>
<path d="M109.302 87.0278C110.553 86.6104 111.804 87.0278 113.054 87.0278C114.305 87.4452 115.138 87.8625 116.389 88.2799C115.138 86.1931 112.22 84.5236 110.136 83.6889C109.719 83.6889 110.136 83.2716 110.136 83.2716C112.22 83.2716 114.721 84.1063 116.389 84.941C114.721 82.4368 110.97 82.0195 108.469 80.7674C108.469 80.7674 108.469 80.3501 108.886 80.3501C111.387 80.7674 113.471 81.6021 115.972 82.4369C114.721 81.6021 113.054 80.7674 111.804 80.3501C108.886 79.5153 106.385 78.2632 105.551 75.3417C103.883 69.9161 105.968 63.6557 107.635 58.23C108.469 56.1432 109.302 54.0564 110.136 51.5523C110.553 50.7175 110.97 50.3002 110.97 49.8828C108.052 52.8043 106.385 56.5606 105.134 60.3168C103.05 66.1598 103.883 72.4202 103.467 78.6806C103.467 78.6806 103.05 79.098 103.05 78.6806C101.799 75.7591 101.799 72.8376 101.382 69.9161C100.966 71.5855 100.966 72.8376 100.132 74.0897C100.132 74.0897 99.715 74.507 99.715 74.0897C99.2981 71.1681 100.132 68.2466 100.966 65.7425C99.715 67.8293 98.4645 69.9161 97.6308 72.4202C96.3802 75.3417 95.9634 78.6806 94.7129 81.6021H94.296C93.4624 79.9327 93.0455 77.8459 93.4623 76.1765C92.2118 77.8459 90.5444 79.098 89.2939 80.3501H88.877C89.2939 79.5153 90.1276 78.2632 90.5444 77.4285C89.2939 79.098 87.6265 80.35 85.5423 80.7674C85.9591 79.5153 86.7928 78.2632 87.2096 77.0112C86.3759 78.6806 85.1254 79.9327 83.458 80.3501C83.8749 79.5153 84.7086 79.098 85.1254 78.2633C82.6243 79.5153 80.1233 80.35 77.2054 80.7674C76.7885 80.7674 77.2054 80.3501 77.2054 80.3501C78.0391 79.9327 78.8728 79.098 79.7065 78.2633C79.2896 78.6806 78.4559 78.6806 78.039 78.6806C77.2054 79.098 76.3717 79.5153 75.1211 79.9327C75.1211 79.9327 75.1211 79.9327 75.1211 79.5153C75.9548 78.6806 76.7885 77.8459 77.6222 77.0112C75.9549 78.2632 73.8706 79.098 71.7864 79.9327C68.8685 80.7674 66.3674 81.6021 63.4495 82.4369C65.9505 81.6021 68.4516 81.1848 70.5358 80.7674V81.1848C69.2853 82.0195 67.6179 82.4368 66.3674 83.2716C68.0347 82.8542 69.7021 82.4368 71.7864 82.0195C72.2032 82.0195 71.7864 82.4369 71.7864 82.4369C70.119 83.6889 68.0348 84.1063 65.9506 85.3584C70.9527 84.1063 75.9548 82.8542 81.3738 82.8542C81.7907 82.8542 81.3738 83.2716 81.3738 83.2716C80.1233 83.2716 78.8728 84.1063 77.6222 84.941C80.5402 84.5236 83.8749 84.1063 86.7928 84.5236V84.941C85.5423 84.941 84.7086 84.941 83.8749 85.3584C85.5423 85.3584 87.6265 85.7757 88.877 86.6104C91.795 88.2799 93.8792 91.6187 95.9634 94.5402C95.5466 92.4534 94.296 90.784 93.4623 89.1146C93.4623 89.1146 93.4623 88.6972 93.8792 88.6972C95.9634 90.784 97.2139 93.2882 98.0476 96.2097C97.6308 93.7055 96.7971 91.6187 96.3803 89.1146C96.3803 89.1146 96.3802 88.6972 96.7971 88.6972C99.2982 90.3667 100.132 92.8708 100.966 95.375C100.966 92.0361 100.132 89.1146 101.382 85.7757C101.382 85.7757 101.799 85.3583 101.799 85.7757C103.05 87.4451 103.467 89.532 105.134 90.784C104.717 89.1146 103.883 88.2799 103.467 86.6104C103.467 86.6104 103.467 86.1931 103.883 86.1931C107.218 86.1931 110.553 87.4451 113.471 89.5319C112.22 88.6972 110.553 87.8625 109.302 87.0278Z" fill="#D1CEC6"/>
<path d="M100.132 120.413C100.549 118.326 100.966 116.24 100.966 114.153C100.966 114.57 100.966 114.57 100.966 114.988C100.549 116.24 100.549 117.074 100.132 118.326C100.132 118.744 100.132 119.579 100.132 120.413Z" fill="#E1E0DE"/>
<path d="M139.732 114.155C139.732 113.32 139.315 112.485 139.315 111.65C139.315 114.155 138.899 116.659 138.065 119.58C137.231 123.754 135.981 128.762 132.646 131.266H132.229C133.48 128.762 133.896 125.841 133.896 122.919C133.063 126.675 131.812 130.432 129.728 134.188C128.061 137.109 126.393 139.613 123.892 141.7C122.225 143.37 120.14 145.456 117.639 145.456C117.639 145.456 117.639 145.456 117.639 145.039C118.473 143.787 119.724 142.952 120.557 141.7C116.806 144.622 112.637 147.543 108.052 147.543V147.126C110.97 145.874 113.471 143.787 115.972 141.283C114.305 142.952 111.804 144.622 109.303 144.204C109.303 144.204 109.303 144.204 109.303 143.787C111.804 141.283 114.305 138.779 116.389 136.275C114.305 138.361 111.804 140.866 109.303 142.535C106.801 144.204 103.884 145.874 100.549 145.456C100.549 145.456 100.549 145.456 100.549 145.039C102.633 142.535 104.3 139.613 105.134 136.692C104.717 137.109 104.717 137.527 104.3 137.944C103.05 139.613 101.382 141.7 99.2983 142.952C100.549 139.196 102.633 135.022 101.382 131.266C100.132 135.022 99.7151 139.196 96.7972 142.535H96.3804C96.7972 138.779 98.0477 135.022 98.4646 130.849C98.8814 128.345 98.8814 125.841 98.8814 123.336C98.4645 125.841 97.6309 127.927 96.7972 130.432C95.9635 132.518 95.1298 134.605 93.8793 136.692C93.0456 138.361 91.7951 140.031 90.1277 140.866C90.5445 138.779 91.3782 137.109 91.795 135.022C90.9613 136.692 89.7108 138.361 88.4603 139.613C87.6266 140.866 86.376 142.118 85.5424 142.952C84.7087 143.37 83.875 144.204 83.0413 144.204C81.7907 143.787 82.2076 142.118 82.6245 141.7C83.4581 139.613 84.2918 137.944 84.2918 135.44C83.0413 138.361 82.6244 142.118 80.1234 144.204H79.7065C79.2897 143.37 79.2897 142.535 79.2897 141.283C79.2897 142.535 78.8728 143.787 78.456 144.622C78.0392 145.456 77.2055 146.709 76.3718 145.874C75.5381 145.456 75.1212 144.204 74.7044 143.37C74.7044 143.787 75.1212 144.622 75.1212 145.039C75.1212 145.039 75.1212 145.456 74.7044 145.039C73.4538 144.204 73.037 142.952 72.2033 141.7C72.6202 143.37 73.037 145.874 71.7864 146.291C70.5359 146.291 68.8685 145.039 68.4517 143.787C67.618 142.535 66.7843 141.283 66.3675 140.031C66.7843 140.866 66.7843 142.118 66.7843 142.952C66.7843 142.952 66.3675 143.37 66.3675 142.952C62.199 137.944 60.5316 131.684 60.1148 125.006C59.6979 122.502 59.698 119.998 59.698 117.493C59.2811 119.58 59.2811 121.25 59.2811 123.336C59.2811 129.179 60.9485 135.023 61.7822 140.866C61.7822 140.866 61.7822 141.283 61.3653 141.283C58.4474 137.944 57.6137 133.353 55.5295 129.179C55.9464 131.684 56.3632 134.605 57.6137 136.692C58.4474 139.196 60.1148 141.283 60.5316 143.787C60.5316 143.787 60.5316 144.204 60.1148 144.204C59.2811 143.787 58.4474 143.37 58.0305 142.535C58.4474 143.37 58.8643 143.787 58.8643 144.622C58.8643 144.622 58.8643 145.039 58.4474 145.039C55.9463 145.039 53.8621 143.787 52.1947 142.118C52.6116 142.535 52.6116 142.952 52.6116 143.37C52.6116 143.37 52.6116 143.787 52.1947 143.787C43.441 139.613 40.9399 129.179 38.8557 120.415C38.4389 124.589 39.6894 129.179 41.3567 132.936C43.441 137.109 45.9421 140.448 49.2768 143.37C49.2768 143.37 49.2768 143.787 48.86 143.787C43.441 142.118 38.4389 138.779 34.6873 134.188C36.7715 137.527 40.1062 140.031 43.441 142.535C46.7757 145.039 50.9442 146.709 55.5295 146.709C59.2811 148.795 63.4495 149.63 67.618 149.213C71.3696 151.3 76.7886 151.717 80.957 151.717C83.4581 151.717 85.9592 150.882 88.0435 150.047C88.8771 150.047 90.1277 150.465 90.9614 150.465C93.4624 150.465 95.9635 150.465 98.4646 150.047C100.966 150.882 103.467 151.299 105.551 151.717C111.387 152.134 116.389 150.465 121.391 147.961C130.979 142.952 136.397 132.518 138.065 122.502C140.149 119.58 140.149 116.659 139.732 114.155Z" fill="#D1CDC3"/>
<path d="M101.799 149.631C101.382 149.214 101.799 149.214 101.799 149.631C102.633 149.214 103.467 148.796 104.3 148.796C101.383 148.796 98.8814 149.214 95.9635 149.214C95.9635 149.214 95.9635 149.214 95.9635 148.796C96.3804 148.379 96.7972 147.962 97.2141 147.544C96.3804 147.544 95.5467 147.962 94.2962 148.379C94.713 147.127 95.1298 146.292 95.5466 145.04C95.1298 145.875 94.713 146.71 93.8793 147.127H93.4624C93.8793 146.292 94.2962 145.04 94.2962 143.788C93.0456 145.458 92.2119 147.544 90.1277 147.962C90.1277 147.544 90.1277 146.71 90.1277 146.292C89.294 147.127 88.0435 147.544 86.7929 147.544C84.7087 147.127 82.2076 146.71 80.1234 147.127C77.6223 147.127 75.1212 148.379 72.6202 147.962C70.5359 147.962 68.8686 146.71 67.2012 146.292L68.8686 147.962V148.379C67.2012 148.379 65.5338 148.379 63.8665 148.796C64.2833 148.796 64.7002 149.214 65.117 149.214C66.3675 149.214 67.618 149.214 68.8686 149.214C72.6202 151.301 78.0392 151.718 82.2076 151.718C84.7087 151.718 87.2097 150.883 89.294 150.048C90.1277 150.048 91.3783 150.466 92.2119 150.466C94.713 150.466 97.214 150.466 99.7151 150.048C100.966 150.466 102.216 150.883 103.467 150.883C103.05 150.466 102.216 150.048 101.799 149.631Z" fill="#E1E0DE"/>
<path d="M95.5469 150.464C92.2121 149.63 88.4605 149.212 85.1258 148.795C82.2079 148.795 78.8731 148.378 75.9552 148.795C74.7047 148.795 70.9531 148.795 70.1194 150.047V150.464C70.9531 151.299 73.0373 151.299 73.871 151.716C75.5383 152.134 76.7889 152.134 78.4563 152.134C80.1237 152.134 81.3742 152.551 83.0415 152.551C85.9595 152.968 89.2943 152.968 92.2122 152.968C93.4627 152.968 94.7132 152.968 95.9638 152.968C97.2143 152.968 98.048 152.968 99.2985 152.551C99.7154 152.551 99.7154 152.134 99.7154 152.134C99.7154 151.299 96.7974 150.882 95.5469 150.464Z" fill="#65462F"/>
<path d="M70.9528 149.631H70.5358C70.1188 149.631 69.7019 150.048 69.7019 150.465C69.7019 150.883 69.7019 151.3 70.1189 151.3C70.1189 151.3 70.5358 151.3 70.5358 150.883V150.465L70.9528 150.048C70.9528 150.048 70.9528 150.048 71.3697 150.048C71.7867 149.631 71.3697 149.213 70.9528 149.631Z" fill="#805A3D"/>
<path d="M98.8811 151.299C97.2137 150.465 94.2958 150.047 92.6284 150.465C92.2116 150.465 91.7948 150.465 91.7948 150.047C91.3779 150.047 91.3779 150.047 91.3779 150.047C90.5442 149.63 89.7105 149.63 88.8769 149.63H88.46C88.46 149.63 88.46 149.63 88.0432 149.63C87.6263 149.213 86.7926 149.63 86.3758 149.63C85.9589 149.63 85.9589 149.213 85.5421 149.213C85.1252 149.213 84.7084 149.213 84.2915 149.63C83.8747 149.213 83.4578 149.63 83.041 149.63C82.6241 149.213 82.2073 149.213 81.7905 149.213C81.7905 149.213 81.3736 148.795 80.9568 148.795C80.9568 148.795 80.9568 148.795 80.9568 148.378C80.5399 147.543 78.8725 147.543 78.0389 147.96C75.9546 147.543 74.2872 147.543 71.7862 147.96C71.7862 147.96 71.7862 147.96 71.3694 147.96C70.5357 147.96 69.702 148.378 68.8683 148.378C68.4514 148.378 67.2009 149.63 68.0346 150.047C68.0346 149.63 68.4514 149.63 68.8683 149.213C68.8683 149.213 68.8682 149.63 68.4514 149.63C68.4514 149.63 68.8683 150.047 68.8683 149.63C69.2851 149.63 69.2851 149.213 69.7019 149.213C70.1188 149.213 70.1188 148.795 70.5356 148.795C70.5356 148.795 70.5357 148.795 70.9525 148.795L70.5356 149.213C70.1188 149.63 70.1188 150.047 70.1188 150.047H70.5356C70.9525 149.63 71.3694 148.795 72.203 148.795C72.203 148.795 72.203 148.795 72.203 148.378H72.6199C72.203 148.795 71.7862 149.63 72.6199 150.047C73.0367 149.63 73.8704 149.213 74.2873 149.213H74.7041C74.2872 149.63 73.8704 150.047 73.8704 150.465C74.2872 150.047 74.7041 149.63 75.5378 149.213H75.9546C75.9546 149.213 75.5378 150.465 75.1209 150.465C75.5378 150.465 76.3715 150.047 76.3715 150.047L76.7883 149.63C76.7883 150.047 77.2051 150.465 76.7883 150.882C76.7883 150.882 76.7883 150.465 77.2052 150.465C77.2052 150.047 77.622 149.63 78.0389 149.213C78.0389 149.213 78.0389 149.63 77.622 150.047V150.882C78.4557 150.882 78.8726 150.465 79.2894 150.047C79.2894 150.047 79.2894 150.047 79.7063 149.63C79.7063 150.047 79.7063 150.465 79.7063 150.882H80.1231V150.465C80.5399 150.882 80.54 151.299 80.54 151.299C80.9568 150.882 81.3737 150.465 81.7905 150.047L82.2073 149.63V150.047C82.2073 150.465 82.2073 150.465 82.2073 150.882H82.6242C82.6242 150.465 82.6241 150.047 83.041 150.047C83.041 150.047 83.041 150.047 83.041 149.63C83.041 150.047 83.041 150.047 83.4579 150.465C83.4579 150.882 83.8747 150.882 83.8747 151.299C83.8747 151.299 83.8747 151.299 84.2915 151.299C84.7084 150.882 84.7084 150.465 85.1252 150.047V150.465C85.5421 150.882 85.9589 151.299 85.5421 151.717C85.9589 151.299 85.9589 150.882 86.3758 150.047C86.3758 150.465 86.7926 150.882 87.2094 151.299H87.6263V150.882C88.0432 151.299 88.46 151.717 88.0432 151.717C88.46 151.299 88.46 150.882 88.46 150.465L88.8769 150.882C89.2937 151.299 89.7105 151.299 89.7105 151.717H90.1274C90.1274 151.717 90.5442 151.717 90.1274 151.299V150.882C90.5442 151.299 91.3779 151.717 91.7948 151.717H92.2116C92.6285 151.299 92.6284 150.465 92.6284 150.047H93.0453C93.879 150.465 95.1295 150.882 95.9632 151.299H96.3801C96.3801 150.465 95.5464 150.047 95.1295 149.63C95.5464 149.63 95.9632 149.63 96.3801 150.047C97.2138 150.465 98.0474 150.882 98.8811 151.299H99.298C99.298 150.465 98.8811 150.047 98.0474 149.63C98.8811 150.047 99.7148 150.465 99.7148 150.882C101.382 152.551 99.7148 151.717 98.8811 151.299ZM94.2959 151.299C93.879 150.882 94.2959 150.882 94.2959 151.299C94.2959 151.299 94.7127 151.299 95.1295 151.299C95.1295 151.299 94.7127 151.299 94.2959 151.299Z" fill="#805A3D"/>
<path d="M98.4638 151.298C97.6301 150.881 96.7964 149.629 95.1291 149.629C93.8785 149.629 92.628 149.211 91.3774 149.211C90.1269 148.794 89.2932 148.794 88.0427 148.794H87.6258C86.7921 148.794 86.3753 148.377 85.5416 148.794C85.5416 148.794 85.5416 148.794 85.1247 148.794C84.7079 148.794 84.2911 148.794 84.2911 148.794C83.8742 148.794 83.4574 148.794 83.4574 148.794C82.6237 148.377 81.3731 148.377 80.9563 148.794H80.5395C79.7058 148.794 78.8721 148.794 78.0384 148.377C77.2047 148.377 76.371 148.794 75.5373 148.794C75.1205 148.794 75.1205 148.794 74.7036 148.794C74.2868 148.794 73.87 148.794 73.4531 148.794C72.6194 148.794 71.7857 148.794 70.952 149.211C70.1183 149.211 69.7015 149.629 69.2847 150.046C69.7015 149.629 70.5352 149.629 70.952 149.629C70.5352 150.046 70.5352 150.046 70.5352 150.464C70.952 150.046 71.3689 149.629 72.2026 149.629C72.6194 149.629 73.0363 149.629 73.4531 149.629C73.0363 149.629 72.6194 150.046 72.6194 150.464C72.6194 150.046 73.0363 150.046 73.4531 150.046C73.4531 150.463 73.0362 150.881 73.0362 151.298C73.4531 150.881 73.4531 150.881 73.8699 150.464C74.2868 150.046 74.7036 150.046 75.1205 150.046C75.1205 150.046 75.1205 150.046 75.1205 149.629C75.5373 149.629 75.9542 149.629 75.9542 149.629H75.5373C74.7037 150.046 73.4531 150.881 74.2868 151.716C74.2868 151.716 74.2868 151.716 74.7036 151.716C75.5373 150.881 76.371 150.881 77.6216 150.464C77.2047 150.881 77.2047 150.881 76.7878 151.298C77.2047 151.298 77.2047 150.881 77.6216 150.881C77.2047 151.298 77.2047 151.716 77.2047 151.716C77.6215 151.298 78.0384 150.881 78.4552 150.881C78.0384 151.298 78.0384 151.716 78.0384 152.133H78.4552C78.8721 151.716 78.8721 151.716 79.2889 151.298C79.2889 151.716 79.2889 152.55 79.2889 152.968C79.2889 152.968 79.289 152.968 79.7058 152.968C80.1226 152.133 80.1226 151.716 80.9563 151.298C80.9563 151.716 80.9563 152.133 80.9563 152.55C80.9563 152.55 80.9563 152.55 81.3732 152.55C81.3732 152.133 81.79 151.716 82.2068 151.716C82.2068 151.716 82.2069 151.298 82.6237 151.298V151.716C83.0405 151.716 83.4574 151.298 83.4574 150.881C83.4574 150.881 83.4574 150.881 83.4574 150.464C83.8742 150.881 83.8743 151.298 83.8743 151.716C84.2911 151.298 84.2911 151.298 84.2911 150.881C84.7079 151.298 84.7079 151.716 84.7079 152.133C85.1248 151.716 85.1248 151.298 85.5416 150.464V150.046L85.9585 150.464C85.9585 150.464 87.209 151.716 86.7922 151.716C87.209 151.716 87.209 150.881 86.7922 150.464C86.7922 150.464 87.209 150.463 87.209 150.881C87.6258 151.298 88.0427 151.716 88.4595 152.133C88.4595 152.133 88.4595 152.133 88.8764 152.133C88.8764 151.716 89.2932 150.881 89.2932 150.464C90.1269 150.464 90.9606 150.881 91.3774 151.298C91.7943 151.716 92.628 151.716 93.0448 151.716C93.4617 151.716 93.8785 152.133 94.2954 152.133C94.2954 152.133 95.129 152.55 95.5459 152.55C95.5459 152.55 95.5459 152.55 95.9627 152.55C96.3796 152.133 95.5459 151.298 94.7122 151.298C94.2953 151.298 93.8785 150.881 93.4616 150.464C94.2953 150.464 94.7122 150.881 95.1291 150.881C94.7122 150.463 94.2954 150.463 93.8785 150.046C94.2954 150.046 94.7122 150.046 94.7122 150.046C97.2133 150.881 97.6301 151.298 98.4638 151.298Z" fill="#65462F"/>
<path d="M94.7128 152.969C94.7128 152.552 94.2959 152.552 94.2959 152.134C93.8789 151.717 93.4619 151.299 92.628 151.717C92.2111 152.134 93.045 152.552 93.4619 152.969C93.8789 153.386 93.8789 153.386 94.2959 153.804L94.7128 154.221C94.7128 153.804 94.7128 153.386 94.7128 152.969Z" fill="#65462F"/>
<path d="M78.4568 150.048C78.0399 150.048 77.6229 150.048 77.206 150.466C76.789 150.883 76.3721 150.883 76.3721 151.3C76.789 150.883 76.789 150.883 77.206 150.883C77.6229 150.466 78.0399 150.466 78.4568 150.048Z" fill="#8A6142"/>
<path d="M78.0392 149.212C77.6222 149.212 77.2053 149.212 77.2053 149.629L76.7883 150.046C76.7883 150.046 76.7884 150.046 77.2053 150.046H77.6223C77.6223 149.629 78.0392 149.629 78.0392 149.212C78.4561 149.629 78.4561 149.212 78.0392 149.212Z" fill="#8A6142"/>
<path d="M82.2075 148.379C81.7907 148.379 81.3738 148.379 81.3738 148.379C80.957 148.379 80.957 148.379 80.5402 148.379C79.7065 148.379 78.8727 147.961 78.0391 147.961H77.6223C76.3717 147.961 74.7043 147.961 73.8706 148.796C74.2875 148.379 75.1212 148.379 75.538 148.379H75.9548C75.9548 148.379 75.538 148.379 75.538 148.796C75.538 148.796 75.538 148.796 75.1212 148.796C75.1212 148.796 75.1211 149.213 74.7043 149.213C75.1211 149.213 75.538 149.213 75.538 148.796C75.538 148.796 75.9549 148.796 76.3717 148.796C76.3717 148.796 76.3717 148.796 76.7885 148.796H77.2054C77.6222 148.796 77.6222 148.796 78.0391 148.796C78.4559 148.796 79.2896 148.796 79.7065 148.796C79.7065 148.796 79.7065 149.213 79.2896 149.213L79.7065 148.796C79.7065 148.796 79.7064 148.796 80.1233 148.796L79.7065 149.213C79.7065 149.631 79.2896 150.048 79.7065 150.465V150.048L80.1233 149.631C80.1233 149.631 80.1233 149.213 80.5402 149.213C80.5402 149.213 80.957 149.213 81.3738 148.796C82.2075 148.796 82.2075 148.796 82.2075 148.379Z" fill="#8A6142"/>
<path d="M86.3754 149.212C85.5415 149.212 86.3754 150.047 85.9585 150.464C85.9585 150.464 85.9585 150.047 86.3754 149.63C86.7924 149.63 86.7924 149.212 86.3754 149.212Z" fill="#8A6142"/>
<path d="M85.126 149.215C85.126 148.797 85.126 148.797 85.126 149.215C85.126 148.797 85.126 148.797 85.126 148.797C85.126 148.797 85.1261 148.797 84.7091 148.797C84.2922 148.797 84.2922 148.797 83.8752 148.797C83.8752 148.797 83.8752 148.797 83.4583 148.797H83.8752C84.2922 148.797 84.2922 149.215 84.7091 149.215C84.7091 149.632 85.126 149.632 85.126 150.049C85.126 150.049 85.126 149.632 85.126 149.215Z" fill="#8A6142"/>
<path d="M90.9611 148.795C90.5442 148.378 89.7105 148.795 89.2937 148.795C88.8768 148.795 88.46 148.795 88.46 148.795C88.0431 148.795 87.6263 148.378 87.2094 148.795C87.2094 148.795 86.7926 148.795 87.2094 149.212C87.6263 149.212 88.0431 149.212 88.46 149.212C88.8768 149.212 89.2937 149.63 89.2937 149.63C89.2937 149.63 89.2937 149.212 88.8769 149.212C90.1274 149.212 91.7947 149.63 92.6284 150.464C92.2116 149.212 91.3779 149.212 90.9611 148.795Z" fill="#8A6142"/>
<path d="M94.7131 149.628C94.2962 149.628 94.2962 150.045 94.7131 149.628C94.7131 150.045 94.7131 150.045 95.1301 150.045L95.547 150.462C95.547 150.462 95.1301 149.628 94.7131 149.628Z" fill="#8A6142"/>
<path d="M91.7953 152.134C91.7953 151.717 91.3784 151.717 90.9614 151.3C90.9614 151.3 90.5444 151.3 90.5444 151.717C90.9614 152.134 91.3783 152.134 91.7953 152.134C91.3783 152.134 91.7953 152.552 91.7953 152.552C92.2122 152.969 92.2122 152.552 91.7953 152.134Z" fill="#8A6142"/>
<path d="M90.5446 151.3C90.1277 151.3 90.1277 151.717 90.5446 151.3C90.5446 151.717 90.9616 152.134 91.3785 152.552C91.3785 152.134 90.9616 151.717 90.5446 151.3Z" fill="#8A6142"/>
<path d="M98.8819 151.716C98.8819 151.298 98.4649 151.298 98.048 150.881C97.631 150.881 97.2141 150.464 96.7971 150.464C96.7971 150.464 96.3802 150.881 96.7971 150.881C97.2141 150.881 97.631 151.298 97.631 151.298C97.631 151.298 98.048 151.298 98.048 151.716C98.4649 151.716 98.8819 151.716 98.8819 151.716Z" fill="#8A6142"/>
<path d="M85.959 152.969C85.959 152.552 85.959 152.552 85.959 152.134V151.717V151.3H85.542C85.125 151.717 85.125 151.717 85.125 152.134C85.125 152.552 85.1251 152.969 85.959 152.969Z" fill="#8A6142"/>
<path d="M83.8752 152.552C83.8752 152.135 83.8752 152.135 83.8752 152.135L83.4583 152.552C83.4583 152.969 83.4583 152.969 83.8752 152.552Z" fill="#8A6142"/>
<path d="M77.6223 151.3C77.2053 151.3 76.7883 151.716 76.7883 152.133C76.7883 152.55 77.2053 152.133 77.2053 152.133C77.2053 152.133 77.2053 151.716 77.6223 151.716C77.6223 151.716 77.6223 151.717 77.6223 151.3C78.0392 151.3 78.0392 151.3 77.6223 151.3Z" fill="#8A6142"/>
<path d="M74.7049 150.883C74.2879 150.883 74.2879 150.883 73.871 150.883C73.454 150.883 73.4541 151.3 73.0371 151.3V151.717C73.0371 151.717 73.0371 151.717 73.4541 151.717H73.871C73.871 151.717 73.871 151.717 74.288 151.717C74.288 151.717 74.2879 151.717 74.7049 151.3C74.7049 150.883 74.7049 150.883 74.7049 150.883Z" fill="#8A6142"/>
<path d="M72.6201 150.048C72.2032 150.048 71.7863 150.465 72.2032 150.465C72.2032 150.882 72.6201 150.465 72.6201 150.048Z" fill="#8A6142"/>
<path opacity="0.5" d="M68.0348 84.1028C61.7822 86.1896 55.9463 88.6938 50.9442 93.2847C45.942 97.8757 42.1904 103.719 40.9399 110.396C39.2725 117.492 39.2725 125.004 41.7736 132.099C44.2746 138.359 49.2768 144.203 55.9463 145.872C55.9463 145.872 56.3631 145.872 55.9463 145.455C53.0284 144.203 50.1105 142.95 48.0263 140.446C45.5252 137.942 43.8578 135.021 42.6073 132.099C39.6893 125.421 40.1062 118.326 40.9399 111.649C42.1904 104.971 45.9421 98.7104 50.5274 94.1194C55.5295 89.1111 61.7822 86.1896 68.0348 84.1028Z" fill="#B2A49E"/>
<path opacity="0.5" d="M88.8768 86.6082C87.2094 86.1908 85.9589 85.7734 84.2915 85.7734C82.6241 85.7734 80.9568 86.6082 79.2894 87.0255C76.3715 87.8602 73.4535 89.947 70.9525 92.0338C66.3672 96.6248 63.4493 103.303 61.7819 109.563C60.1145 116.658 60.1145 124.17 61.365 131.266C62.6156 137.109 64.6998 143.786 69.7019 147.96C61.365 138.361 60.5313 124.588 62.1987 112.484C63.0324 105.807 65.9503 99.5463 70.1188 94.1206C72.203 91.6165 75.1209 89.5297 78.0388 88.2776C79.7062 87.4429 81.3736 87.0255 83.041 86.6082C84.2915 86.1908 85.1252 86.1908 86.3757 86.1908C87.2094 86.1908 88.0431 86.6082 88.8768 86.6082Z" fill="#B2A49E"/>
<path opacity="0.5" d="M101.382 107.058C101.382 102.468 99.7148 98.294 98.0474 94.1204C99.298 98.294 100.132 102.05 100.549 106.641C100.965 111.232 100.132 116.24 100.132 120.831C99.7148 125.005 99.298 129.179 98.4643 132.935C97.6306 137.108 96.7969 141.282 94.7126 145.456C96.7969 141.699 97.6306 137.943 98.8811 133.77C100.132 129.596 100.548 125.005 100.965 120.831C100.965 116.24 101.382 111.649 101.382 107.058Z" fill="#B2A49E"/>
<path opacity="0.5" d="M120.14 95.3725C119.723 94.9551 119.723 94.5377 119.306 94.1204C120.14 94.9551 120.557 96.2072 120.974 97.0419C123.892 103.302 125.559 109.98 125.142 117.075C125.142 123.753 123.058 130.848 118.889 136.274C117.222 138.36 115.555 140.447 113.47 142.534C112.22 143.786 110.553 144.621 109.302 145.873C108.051 146.708 106.801 147.542 105.134 147.96C110.553 146.29 115.138 142.951 118.473 138.778C123.058 133.352 125.559 125.84 125.976 118.745C126.393 113.736 125.559 108.311 124.308 103.302C123.058 100.381 121.807 97.8766 120.14 95.3725Z" fill="#B2A49E"/>
<path opacity="0.7" d="M59.2814 85.7734C56.3634 87.0255 53.4456 87.8602 50.5276 89.5297C51.3613 89.1123 51.7782 88.6949 52.195 88.2776C50.9445 89.1123 49.2771 89.947 47.6097 90.7818C45.9423 92.0338 44.275 93.2859 43.0244 94.538C40.5233 97.0421 38.8559 99.9637 37.1885 103.303C33.8538 109.98 32.6033 117.91 35.1043 125.005C35.1043 125.423 35.5212 125.005 35.5212 124.588C35.5212 121.249 35.938 117.493 36.3549 114.154C36.3549 112.484 36.7717 110.398 37.6054 108.728C37.1886 110.398 36.7717 112.067 36.7717 113.737C36.7717 117.91 36.7718 122.084 38.0223 126.675C36.3549 118.327 38.4391 110.815 41.7739 103.303C45.5255 94.9554 51.7781 89.5297 59.2814 85.7734Z" fill="#EDDED7"/>
<path opacity="0.7" d="M62.6162 88.2759C59.2815 89.1106 55.5298 91.1974 53.0288 93.2842C49.694 95.7884 47.1929 98.2925 45.5256 102.049C41.7739 109.979 40.9403 118.743 43.0245 127.09C43.0245 127.508 43.4413 127.09 43.4413 126.673C42.6076 118.743 43.8582 110.813 47.193 103.301C48.8604 99.5446 50.9446 97.0404 53.4456 94.5363C55.9467 92.4495 59.2815 89.9453 62.6162 88.2759Z" fill="#E0CDC4"/>
<path opacity="0.7" d="M63.8662 92.0349C60.9483 94.1217 58.0304 95.7911 55.5293 98.2953C55.1125 98.7126 54.6956 99.5474 54.2788 99.9647C55.1125 97.8779 55.9462 95.7911 57.1967 93.7043C58.8641 91.6175 60.5315 89.9481 62.6157 88.696C60.9483 89.5308 59.281 89.9481 57.6136 91.2002C55.9462 92.4523 54.2788 93.7043 53.0282 95.3738C50.1103 98.7127 47.6093 103.304 46.3588 107.477C44.6914 111.651 44.2745 116.242 43.8577 120.833C43.8577 125.424 45.525 129.18 46.7756 133.353C46.7756 133.771 47.1924 133.353 47.1924 132.936C46.3588 128.762 46.3587 124.589 46.7756 120.415C46.7756 122.085 47.6093 123.754 48.443 125.424C48.443 126.676 48.8598 127.928 49.2767 128.762C49.6935 129.597 50.5272 128.763 50.5272 128.345C51.3609 125.006 51.3609 121.667 51.7777 117.911C52.1945 114.572 52.6114 111.233 53.4451 107.895C55.5293 101.634 59.281 96.6259 63.8662 92.0349Z" fill="#EDDED7"/>
<path opacity="0.7" d="M72.62 98.2943C74.2874 95.3728 76.3716 91.6165 79.2895 89.5297C72.2032 92.8686 68.0347 99.129 66.3673 106.224C65.1168 110.398 64.7 114.571 64.7 118.328C64.7 120.414 65.1168 122.918 65.5336 125.005C65.9505 127.092 66.7842 129.179 68.0347 131.266C68.4516 131.683 68.8684 131.266 68.8684 130.848C68.4516 128.344 68.4515 126.257 68.4515 123.753C68.4515 124.171 68.8684 124.588 69.2853 125.423C69.7021 126.257 70.5358 125.423 70.5358 125.005C71.3694 126.675 71.7863 128.344 72.62 130.014C72.62 130.431 73.0369 130.014 73.0369 129.596C73.0369 126.257 73.0368 123.336 72.62 119.997V119.58C73.0368 121.249 73.4537 122.918 74.2874 124.171C74.2874 125.005 74.7042 125.84 74.7042 126.257C74.7042 127.092 75.1211 127.509 75.1211 128.344C75.1211 130.431 75.5379 132.1 76.3716 133.77C76.3716 134.605 77.6222 133.77 77.6222 133.352C78.4559 130.848 78.039 127.927 78.039 125.423C78.039 122.501 78.039 119.58 78.039 116.658C78.039 110.398 77.2053 104.137 78.4559 98.2943C77.2053 101.216 76.3716 104.137 75.9548 107.059C75.5379 109.563 75.538 112.067 75.538 114.571C75.538 113.319 75.538 111.65 75.538 110.398C75.538 107.894 75.9548 105.807 75.9548 103.303C75.9548 101.633 76.3716 99.5464 76.3716 97.8769C76.7885 97.0422 77.6222 94.538 78.4559 93.7033C78.039 93.7033 77.6222 94.1207 77.2053 94.538C76.7885 94.9554 75.9548 95.3728 75.538 96.2075C75.1211 96.6248 74.7042 97.4596 74.2874 97.8769C73.8706 98.2943 73.4537 99.129 73.0369 99.9637C72.2032 99.129 72.62 98.7116 72.62 98.2943ZM74.7042 126.257V126.675C74.7042 126.257 74.7042 125.84 74.7042 126.257C74.7042 125.84 74.7042 125.84 74.7042 126.257Z" fill="#EDDED7"/>
<path opacity="0.7" d="M88.8768 98.713C88.46 96.2089 87.6263 93.7047 86.7926 91.6179C87.2094 94.1221 87.2094 96.6262 87.2094 99.1304C87.2094 100.8 87.2094 102.887 87.2094 104.973C86.7926 102.469 86.3757 99.9651 85.542 97.461C86.3757 103.304 85.5421 108.73 84.7084 114.573C84.2915 117.077 83.8746 119.581 83.041 122.503C82.6241 125.007 82.6241 127.928 82.2073 130.432C82.2073 130.85 82.6241 130.85 82.6241 130.432C83.4578 128.763 84.2915 126.676 85.1252 124.589C85.1252 125.007 85.9589 124.589 85.9589 124.589C88.8768 119.164 89.7105 113.321 90.5442 107.06C90.1273 104.139 89.7105 101.217 88.8768 98.713Z" fill="#EDDED7"/>
<path opacity="0.7" d="M118.473 104.137C118.056 101.632 116.806 99.5457 115.555 97.4589C114.305 95.7894 112.637 94.5374 111.387 92.8679C111.803 94.12 112.22 95.7894 113.054 97.0415C112.637 96.2068 112.22 95.7894 111.804 94.9547C110.97 93.7026 109.719 92.4506 108.886 91.1985C109.719 92.4506 110.553 93.7026 110.97 94.9547C111.387 95.7894 111.803 96.6242 112.22 97.4589C110.97 95.7894 109.719 94.5374 108.469 93.7026C109.719 94.9547 110.553 96.6241 111.387 98.2936C112.22 100.38 113.054 102.885 113.888 104.971C114.721 109.145 114.721 113.736 115.138 117.909C115.138 118.744 116.389 117.909 116.389 117.492C116.806 114.988 117.223 112.066 117.223 109.562V109.98C117.223 110.814 117.222 111.649 117.639 112.066C118.056 114.571 118.056 116.657 118.056 119.162C118.056 119.579 118.473 119.162 118.473 119.162C119.307 114.571 119.724 109.145 118.473 104.137Z" fill="#EDDED7"/>
<path opacity="0.7" d="M135.98 107.895C135.98 106.643 135.563 104.973 135.146 103.721C134.73 102.052 133.896 100.382 133.062 99.1304C133.062 99.1304 133.062 98.713 132.645 98.713C132.645 98.2956 132.229 98.2957 132.229 97.8783C130.561 94.9568 127.643 92.87 125.142 90.7832C126.393 92.0353 127.226 93.2873 128.477 94.1221C127.226 93.2873 125.976 92.87 124.725 92.4526C126.81 93.7047 128.06 95.3742 129.311 97.0436C128.894 96.6262 128.06 96.2089 127.643 96.2089C129.311 97.0436 130.561 100.382 131.395 102.052C132.229 104.556 132.645 107.06 133.896 109.147C134.313 109.564 134.73 109.147 134.73 108.73C134.73 107.895 134.73 107.06 134.313 106.225C134.313 106.643 134.73 107.478 135.146 107.895C135.146 108.312 135.563 107.895 135.563 107.478C135.563 108.312 135.563 108.312 135.98 107.895Z" fill="#EDDED7"/>
<path opacity="0.7" d="M100.549 53.6385C99.715 55.3079 98.8813 56.56 97.6307 58.2294C98.4644 55.7252 98.8813 53.2211 98.8813 50.7169C98.4644 53.2211 97.2139 55.3079 95.9634 57.812C96.3802 55.7253 96.7971 53.6385 97.2139 51.5517C97.6308 49.0475 97.2139 46.5433 96.797 44.4565C96.797 46.5433 96.3802 48.6301 95.9634 50.7169C95.9634 48.2128 95.1297 46.126 94.296 43.6218C94.296 48.6301 93.8791 53.6384 92.6286 58.2294C91.3781 62.8204 90.1275 66.9939 87.6265 71.1675C87.6265 71.5849 87.6265 71.5849 88.0433 71.1675C88.877 70.3328 89.2939 69.4981 90.1276 68.6634C89.7107 69.0807 89.7107 69.9155 89.2938 70.3328C89.2938 70.7502 89.2938 70.7502 89.7107 70.3328C90.9612 69.0807 91.7949 67.8287 92.6286 66.1592C92.2117 67.8287 91.7949 69.4981 91.7949 71.1675C91.7949 71.5849 92.2117 71.5849 92.6286 71.1675C93.8791 69.4981 94.7128 67.8287 95.5465 65.7419C95.9633 65.7419 96.3802 65.7419 96.3802 65.3245C97.2139 63.6551 98.0476 61.5683 98.4645 59.4815C98.8813 57.8121 100.132 55.7253 100.549 53.6385Z" fill="#EDDED7"/>
<path d="M103.049 111.233C103.049 108.729 103.049 106.225 102.633 103.721C102.216 101.217 101.799 98.7125 100.965 96.2084C99.2978 91.6174 95.963 88.2786 91.3777 86.6091C91.7945 87.0265 92.2114 87.4438 92.6282 88.2785C92.6282 88.2785 92.6282 88.2786 92.6282 88.6959C93.0451 89.1133 93.0451 89.1133 93.4619 89.5306C98.8809 98.2952 99.7146 109.147 99.2978 119.163C98.8809 125.006 98.0472 130.849 96.7967 136.275C96.3798 137.527 95.963 138.779 95.963 140.031C97.6304 136.275 99.2978 132.101 100.548 128.345C100.965 127.093 101.382 125.841 101.799 124.171C102.216 122.919 102.216 121.25 102.633 119.998C102.633 116.659 103.466 114.155 103.049 111.233Z" fill="#E1E0DE"/>
<path d="M125.976 102.466C124.725 98.2927 121.807 94.9539 118.473 92.4497C119.306 93.7018 119.723 94.5365 120.557 95.7886C121.807 98.2927 122.641 100.797 123.475 103.718C123.892 105.388 124.309 107.475 124.309 109.144C124.725 111.648 125.142 114.152 125.142 116.657C125.142 118.326 124.725 119.995 124.725 121.248C124.308 127.091 123.058 132.516 120.974 137.942C122.641 135.855 123.892 133.768 124.725 131.682C127.226 127.091 128.06 121.665 128.477 116.657C128.894 111.648 127.643 107.057 125.976 102.466Z" fill="#E1E0DE"/>
<path d="M71.3699 92.4516C70.1193 92.869 69.2856 93.7037 68.4519 94.5384C66.7845 95.7905 65.534 97.4599 64.2835 99.1294C61.7824 102.886 60.5319 107.477 59.2813 112.068C58.4476 116.658 58.8645 121.249 59.6982 125.423C60.5319 129.597 61.3656 134.188 63.4498 137.944C63.4498 138.361 63.8667 137.944 63.8667 137.526C62.6161 133.353 61.7824 129.597 62.1992 125.006C62.6161 120.832 62.6161 117.076 63.033 112.902C63.4498 109.146 64.7003 105.39 65.9509 102.051C66.7846 100.381 67.2014 98.712 68.0351 96.6252C68.8688 95.3731 69.7025 93.2863 71.3699 92.4516Z" fill="#E1E0DE"/>
<path d="M166.411 120.834C165.994 120 165.577 118.748 165.16 117.913C165.16 116.661 165.16 115.826 165.994 115.409C166.411 115.409 166.411 114.574 165.994 114.574C164.326 114.574 161.825 114.991 160.575 116.243C158.074 117.495 155.573 119.165 153.488 120.834C151.404 122.504 149.32 124.173 146.819 125.843C144.318 127.512 141.4 128.764 138.899 130.434C136.398 131.686 133.897 132.938 131.396 134.19C130.979 134.19 130.562 134.607 130.145 134.607C127.227 135.859 124.726 137.111 121.808 137.946C118.473 139.198 112.221 141.285 111.804 145.876C111.804 147.963 113.054 150.049 113.888 151.719C115.139 153.806 117.223 155.475 119.307 157.145C123.892 160.483 128.478 161.318 133.897 160.901C138.899 160.484 143.484 159.231 148.069 156.727C152.655 154.223 156.406 149.632 159.741 145.876C163.076 141.285 165.16 136.694 166.411 131.268C166.827 130.016 166.828 129.182 166.828 127.929C167.244 125.008 166.827 122.921 166.411 120.834Z" fill="#E2D7D2"/>
<path d="M166.41 120.834C165.994 120 165.577 118.748 165.16 117.913C165.16 116.661 165.16 115.826 165.994 115.409C166.411 115.409 166.411 114.574 165.994 114.574C164.326 115.826 164.743 118.33 164.743 120C165.16 122.086 165.16 124.591 164.743 126.26C163.909 130.434 161.825 134.19 159.324 137.529C155.989 142.537 151.404 146.711 145.568 148.797C147.236 148.38 148.486 147.963 150.154 147.545C150.154 147.545 150.154 147.545 150.154 147.963C146.819 151.719 141.817 152.971 136.815 153.388C133.897 153.388 130.979 153.388 128.061 152.554C126.81 152.136 125.56 151.719 124.309 150.884C123.475 150.467 122.642 149.632 121.391 149.215C123.059 150.884 124.726 152.971 126.81 154.223C129.311 155.893 132.229 156.31 134.73 157.562V157.979C128.478 160.066 121.808 157.562 117.223 152.971C118.056 154.223 118.89 155.058 119.724 156.31C119.724 156.31 119.724 156.727 119.307 156.727C117.223 155.058 115.555 153.388 113.888 151.719C115.139 153.806 117.223 155.475 119.307 157.145C123.892 160.483 128.478 161.318 133.897 160.901C138.899 160.484 143.484 159.231 148.069 156.727C152.655 154.223 156.406 149.632 159.741 145.876C163.076 141.285 165.16 136.694 166.41 131.268C166.827 130.016 166.827 129.182 166.827 127.929C167.244 125.008 166.827 122.921 166.41 120.834Z" fill="#E9E4DC"/>
<path d="M147.236 154.64C143.901 155.892 140.149 156.726 136.398 156.309C132.646 155.892 129.311 154.64 126.393 152.553C123.475 150.883 120.974 147.962 119.307 145.458C118.056 143.788 117.223 141.702 114.722 142.536C116.806 141.702 118.056 143.788 118.89 145.458C119.724 146.71 120.558 147.962 121.808 149.214C123.475 151.301 125.977 153.388 128.478 154.64C135.147 158.396 141.4 157.561 147.236 154.64C147.652 155.057 147.652 154.64 147.236 154.64Z" fill="#A1958F"/>
<path d="M118.056 152.555C118.89 152.973 119.307 153.808 120.14 154.225C119.724 153.808 119.307 152.973 118.473 152.555C116.389 150.051 113.888 146.712 113.471 143.374C113.054 144.626 113.054 146.295 113.888 147.547C115.138 149.634 116.389 151.303 118.056 152.555Z" fill="#E2D7D2"/>
<path d="M118.474 143.788C117.64 142.954 116.806 142.119 115.139 142.119C114.305 142.119 113.055 142.536 112.638 142.954C112.638 142.954 112.638 142.954 112.638 143.371C112.221 143.788 112.221 143.788 112.221 144.206C112.221 144.623 112.221 144.623 112.221 145.04C112.221 145.875 113.055 145.875 113.471 146.292C114.305 146.292 115.139 146.71 116.389 146.71C117.223 146.71 117.64 146.292 118.057 145.875C118.891 145.04 119.307 144.206 118.474 143.788Z" fill="#65462F"/>
<path d="M113.472 142.955C113.055 142.955 113.055 143.372 113.472 143.372C113.472 143.372 113.889 142.955 113.472 142.955Z" fill="#805A3D"/>
<path d="M118.474 143.788L118.057 143.37H117.64H117.223C117.223 143.787 117.223 143.788 117.64 143.788V144.205L117.223 143.788C117.223 143.788 117.64 144.622 117.64 145.04C117.223 145.04 116.806 145.04 116.806 145.04C116.39 145.04 115.973 145.457 115.973 145.457H115.556C115.556 145.457 115.556 145.457 115.139 145.457C115.139 145.04 115.139 145.04 114.722 144.622C114.722 144.622 114.722 144.622 114.722 144.205H114.305C113.888 144.622 113.888 145.04 114.305 145.457C114.305 145.874 114.305 146.292 115.139 146.292C115.556 146.292 115.556 146.292 115.973 146.292L116.39 146.709C116.806 146.709 117.223 147.126 118.057 146.709C118.891 146.709 119.307 146.709 119.724 145.874C120.141 145.874 120.141 145.457 120.558 145.04C118.891 144.622 118.891 143.788 118.474 143.788Z" fill="#8A6142"/>
<path d="M115.139 145.041V144.623V144.206C114.722 144.206 114.722 144.623 114.722 145.041V144.623C114.722 144.623 114.305 144.623 114.305 145.041C114.305 145.041 114.305 144.623 114.722 144.623H114.305C114.305 144.623 114.305 144.623 114.305 144.206C114.305 144.206 114.305 144.206 113.888 144.206C113.888 144.206 113.888 144.206 113.888 143.789H113.471L113.888 143.371C114.305 143.371 114.722 142.954 114.722 142.954H114.305C114.305 142.954 113.888 142.954 113.888 143.371L113.471 143.789C113.471 143.789 113.054 144.206 113.054 144.623H113.471V144.206C113.471 144.206 113.471 144.206 113.471 144.623C113.054 145.041 113.054 145.041 113.054 145.458C113.054 145.875 113.471 146.293 113.888 146.293V146.71C113.888 146.71 114.305 146.71 114.305 146.293C114.305 146.293 114.305 146.293 114.305 145.875L114.722 145.458V145.875C114.722 145.875 114.722 146.293 115.139 146.293C115.139 146.293 115.556 146.293 115.556 145.875C115.139 145.458 115.139 145.041 115.139 145.041Z" fill="#AD7753"/>
<path d="M118.058 143.787C118.058 143.369 117.641 143.369 117.224 143.369C117.224 143.369 117.224 143.787 117.641 143.787V144.204C117.641 144.204 117.641 143.787 117.224 143.787C117.224 143.787 117.224 143.786 117.224 143.369C117.224 143.369 117.224 143.369 117.224 142.952H116.807C116.807 142.952 116.807 142.952 116.807 143.369C116.807 142.952 116.807 142.952 116.807 142.534C116.807 142.952 116.39 143.369 116.39 143.787V143.369C115.973 143.786 115.973 143.787 115.556 144.204C115.556 144.621 115.556 145.039 115.556 145.039H115.973C115.973 145.039 115.973 145.039 116.39 145.456C116.39 145.456 116.39 145.456 116.807 145.456V145.873C117.224 145.873 117.224 145.873 117.641 145.873C118.058 145.873 118.058 145.456 118.058 145.039C118.475 145.039 118.475 145.039 118.892 144.621C118.475 144.621 118.475 143.787 118.058 143.787Z" fill="#65462F"/>
<path d="M116.807 142.534C116.807 142.951 116.807 142.951 116.807 142.534C117.224 142.951 117.224 142.951 117.224 143.368H117.641C117.641 142.534 116.807 142.534 116.807 142.534Z" fill="#65462F"/>
<path d="M115.556 142.534C115.139 142.534 115.139 142.534 115.139 142.952C114.722 142.952 114.305 143.369 114.305 143.787V144.204C114.305 144.204 114.722 144.204 114.722 143.787C114.722 143.369 115.139 143.369 115.139 143.369C115.139 143.369 115.556 142.952 115.556 142.534C115.139 142.952 115.139 142.534 115.556 142.534Z" fill="#AD7753"/>
<path d="M113.471 144.621L113.054 145.038C113.054 144.621 113.054 144.621 113.471 144.621Z" fill="#AD7753"/>
<path d="M112.638 144.621L112.221 145.038H112.638V144.621Z" fill="#AD7753"/>
<path d="M112.638 144.621C112.221 144.621 112.638 145.038 112.638 144.621V144.621Z" fill="#AD7753"/>
<path d="M114.722 145.459C114.305 145.459 114.305 145.042 114.722 145.042C114.305 145.459 114.305 145.876 114.305 146.294C114.305 146.294 114.305 146.294 114.722 146.294C114.722 146.294 115.139 146.294 115.139 145.876C114.722 145.876 114.722 145.876 114.722 145.459Z" fill="#AD7753"/>
<path d="M117.223 143.37V143.787C117.223 143.787 117.223 143.787 117.223 144.204C117.223 144.204 117.223 144.204 117.64 144.204C118.057 143.787 117.64 143.787 117.223 143.37Z" fill="#AD7753"/>
<path d="M117.223 143.79C116.806 143.79 116.806 144.207 117.223 143.79V143.79Z" fill="#AD7753"/>
<path d="M114.722 142.534C114.305 142.951 114.722 142.951 114.722 142.534C114.722 142.951 114.722 142.951 114.722 142.534Z" fill="#AD7753"/>
<path d="M116.389 142.952C116.389 142.534 115.973 142.534 115.973 142.534C115.973 142.534 115.556 142.534 115.139 142.534C115.139 142.534 115.556 142.534 115.556 142.952C115.556 142.952 115.556 142.952 115.556 143.369C115.556 143.369 115.556 143.369 115.556 143.787L115.139 144.204C115.139 144.204 114.722 144.621 115.139 145.039H115.556V145.456C115.973 145.456 115.973 145.456 115.973 145.039V144.621C115.973 143.787 115.973 143.369 116.389 142.952C115.973 143.369 115.973 143.369 115.973 143.369C115.973 142.952 116.389 142.952 116.389 142.952C116.389 143.369 116.389 143.369 116.389 143.369H116.806C116.806 142.952 116.389 142.952 116.389 142.952Z" fill="#AD7753"/>
<path opacity="0.7" d="M161.825 117.912C160.574 119.164 158.907 119.582 157.657 120.834C155.989 122.086 154.739 122.92 153.071 124.172C150.153 126.677 146.819 128.346 143.484 130.433C136.814 134.189 130.145 137.945 122.641 140.449C126.393 139.615 129.728 137.945 133.479 137.111C133.896 137.111 133.896 137.111 134.313 137.111C132.229 138.363 130.145 140.032 127.644 140.867C127.644 140.867 127.644 140.867 127.644 141.284C126.393 141.702 125.143 142.119 123.892 142.954C123.058 143.371 122.642 143.371 122.225 143.788C121.808 143.788 120.974 144.623 120.974 144.623V145.04C123.892 145.458 126.393 145.04 128.894 144.206C130.978 143.788 132.646 143.371 134.73 142.536C133.896 143.371 134.313 144.623 135.564 144.623C137.648 144.623 139.732 142.954 141.4 142.119C143.484 140.867 145.568 139.615 148.069 138.363C151.821 135.859 154.739 132.937 157.657 129.181C155.989 130.433 154.322 131.685 152.654 132.52C151.821 132.937 150.57 133.772 149.736 134.189C151.404 132.937 152.654 131.685 153.905 130.016C154.322 129.598 154.322 129.181 153.905 129.181C155.572 127.511 157.656 125.425 159.324 123.338C158.49 124.172 157.24 125.007 155.989 125.425C156.823 124.59 158.073 123.338 158.907 122.503C159.741 121.668 160.574 120.834 161.408 119.999C160.574 118.747 161.408 118.329 161.825 117.912Z" fill="#F9EFEB"/>
</svg>
