<svg width="200" height="200" viewBox="0 0 200 200" fill="none" xmlns="http://www.w3.org/2000/svg">
<path d="M109.924 159.402C109.924 159.295 109.817 159.188 109.71 159.188C109.014 159.188 108.64 159.51 107.944 159.778C106.552 160.315 105.001 160.422 103.556 160.852C100.345 161.818 97.0267 162.731 93.7622 163.537C92.5849 163.805 90.2837 164.557 89.8555 165.899C89.588 166.704 89.8555 167.349 90.2837 168.1C90.4442 168.369 90.6583 168.637 90.8188 168.852C91.0329 169.174 91.1934 169.55 91.4075 169.872C92.1032 171 91.7821 171.805 91.5681 172.986C91.4075 173.899 92.7989 174.06 93.3876 174.221C97.4013 175.349 101.361 175.134 105.482 174.328C106.499 174.114 107.462 173.738 107.837 172.771C107.997 172.342 107.73 171.859 107.569 171.483C107.088 170.302 106.82 169.281 106.82 167.993C106.767 165.792 108.051 164.235 108.854 162.302C109.335 161.389 109.977 160.315 109.924 159.402Z" fill="#85BE49"/>
<path d="M105.91 173.2C103.93 173.63 101.843 173.684 99.8631 173.63C97.9365 173.576 95.8494 173.63 94.0299 172.878C93.1201 172.502 92.4244 171.966 91.9427 171.268C91.9427 171.751 91.7822 172.288 91.6752 172.878C91.5146 173.791 92.906 173.952 93.4947 174.113C97.5084 175.241 101.469 175.026 105.589 174.221C106.606 174.006 107.569 173.63 107.944 172.664C107.997 172.61 107.997 172.502 107.997 172.449C107.302 172.825 106.606 173.039 105.91 173.2Z" fill="#6F9C19"/>
<path d="M109.763 78.0602C109.282 84.0736 109.656 90.087 110.192 96.1005C110.299 97.1206 110.406 98.1408 110.513 99.1072C110.834 107.376 111.744 115.644 112.439 123.913C113.242 133.148 114.633 142.651 112.921 151.886C112.386 154.248 111.637 156.503 110.62 158.705C109.871 160.369 108.961 161.926 107.89 163.376C106.927 164.45 105.803 165.416 104.84 166.49C103.395 168.101 100.773 170.57 99.1673 167.993C97.6154 165.523 98.7392 160.96 99.649 158.436C100.398 156.396 101.522 154.57 102.485 152.638C103.502 150.651 104.198 148.342 104.786 146.195C106.071 141.416 106.231 136.315 106.392 131.429C106.553 126.382 106.392 121.335 106.392 116.288C106.285 106.731 105.322 97.1743 105.268 87.5635C105.215 82.9461 105.589 78.436 106.767 73.9796C107.623 70.597 109.549 66.0333 113.242 64.9058C113.296 64.9058 113.349 64.9058 113.456 64.9058C110.994 68.7715 110.138 73.6038 109.763 78.0602Z" fill="url(#paint0_linear_8002_25808)"/>
<path opacity="0.5" d="M99.7024 158.49C100.452 156.45 101.575 154.625 102.539 152.692C103.556 150.705 104.251 148.396 104.84 146.249C106.124 141.47 106.285 136.369 106.445 131.484C106.606 126.437 106.445 121.39 106.445 116.343C106.392 111.242 106.071 106.141 105.803 101.041C106.552 109.255 107.409 117.47 107.676 125.739C107.837 132.128 107.783 138.517 106.981 144.853C106.606 147.859 106.231 150.866 105.643 153.819C105.322 155.43 103.609 158.92 104.465 160.477C106.499 164.289 112.546 153.658 112.921 152.101C112.386 154.356 111.636 156.611 110.673 158.759C109.924 160.423 109.014 161.98 107.944 163.43C106.981 164.504 105.857 165.47 104.893 166.544C103.449 168.155 100.826 170.625 99.2208 168.047C97.6153 165.524 98.7391 161.014 99.7024 158.49Z" fill="#77AA1F"/>
<path d="M106.981 151.189C108.64 143.833 109.068 135.833 108.854 128.316C108.747 124.504 108.479 120.746 108.211 116.934C108.211 115.377 108.211 113.82 108.158 112.316C108.64 117.954 109.335 123.592 109.496 129.283C109.71 136.531 109.282 144.316 107.195 151.35C107.195 151.511 106.927 151.35 106.981 151.189Z" fill="#E8FCD3"/>
<path d="M109.549 107.805C108.961 99.9128 108.265 92.0738 107.837 84.2349C108.051 85.8993 108.318 87.5637 108.532 89.2282C109.282 96.6913 110.138 104.208 110.62 111.725C110.727 113.711 110.887 115.644 110.941 117.631C110.566 114.302 110.084 111.081 109.549 107.805Z" fill="#E8FCD3"/>
<g opacity="0.2" style="mix-blend-mode:soft-light">
<path d="M109.175 148.665C109.763 143.242 109.924 137.819 109.924 132.396C109.924 121.282 108.64 110.275 108.64 99.1611C109.389 104.906 110.299 110.651 111.101 116.396C111.476 119.242 111.904 122.034 112.279 124.879C112.493 127.349 112.707 129.765 112.921 132.235C113.349 137.926 113.617 144.155 112.439 149.792C112.279 150.49 112.118 151.134 111.958 151.832C111.797 152.316 111.636 152.799 111.476 153.228C110.513 155.483 109.282 157.685 107.837 159.618C107.409 160.208 106.927 160.799 106.445 161.336C107.837 157.309 108.693 153.014 109.175 148.665Z" fill="url(#paint1_radial_8002_25808)"/>
</g>
<path d="M85.0929 81.3889C85.7886 87.3486 85.628 93.4157 85.1999 99.4292C85.1464 100.449 85.0394 101.469 84.9859 102.49C84.9323 110.758 84.2901 119.08 83.862 127.349C83.3804 136.637 82.2565 146.141 84.2901 155.322C84.9323 157.631 85.7351 159.939 86.8054 162.087C87.6081 163.751 88.5714 165.255 89.6953 166.651C90.7121 167.671 91.8359 168.637 92.8527 169.658C94.3511 171.215 97.0804 173.577 98.5789 171C100.077 168.476 98.7929 163.966 97.7761 161.496C96.9734 159.51 95.7961 157.684 94.7257 155.805C93.6019 153.819 92.8527 151.564 92.2105 149.416C90.7656 144.691 90.4445 139.59 90.1234 134.704C89.7488 129.657 89.7488 124.61 89.6417 119.563C89.4277 110.006 90.1234 100.396 89.8558 90.8385C89.7488 86.2211 89.2136 81.711 87.9292 77.3083C86.9659 73.9794 84.8788 69.4157 81.1862 68.4492C81.1327 68.4492 81.0792 68.4492 80.9722 68.4492C83.5409 72.1539 84.5577 76.9325 85.0929 81.3889Z" fill="url(#paint2_linear_8002_25808)"/>
<path opacity="0.5" d="M97.776 161.443C96.9732 159.456 95.7959 157.631 94.7256 155.752C93.6017 153.765 92.8525 151.51 92.2103 149.362C90.7654 144.638 90.4443 139.537 90.1232 134.651C89.7486 129.604 89.7486 124.557 89.6416 119.51C89.5345 114.409 89.6951 109.309 89.8021 104.154C89.3205 112.369 88.7318 120.638 88.7318 128.852C88.7318 135.242 89.0529 141.631 90.0697 147.967C90.5513 150.92 91.033 153.926 91.6752 156.879C92.0498 158.49 93.8693 161.926 93.0666 163.537C91.14 167.403 84.7716 156.987 84.3435 155.43C84.9857 157.685 85.7349 159.886 86.8052 161.98C87.608 163.644 88.5713 165.148 89.6951 166.544C90.7119 167.564 91.8357 168.53 92.8525 169.55C94.351 171.108 97.0803 173.47 98.5787 170.893C100.077 168.423 98.7928 163.913 97.776 161.443Z" fill="#9CC750"/>
<path d="M90.2837 154.409C88.4107 147.107 87.715 139.16 87.6615 131.644C87.608 127.832 87.7685 124.073 87.9291 120.261C87.8755 118.704 87.822 117.147 87.822 115.644C87.5009 121.335 87.0193 126.972 87.0193 132.664C87.0193 139.912 87.715 147.697 90.0162 154.624C90.0697 154.731 90.2837 154.516 90.2837 154.409Z" fill="#EEFDDA"/>
<path d="M86.2701 111.08C86.5912 103.188 87.0729 95.3487 87.2334 87.4561C87.0729 89.1205 86.8588 90.7849 86.6983 92.4494C86.2166 99.9662 85.628 107.483 85.3604 115C85.3069 116.986 85.2533 118.973 85.1998 120.906C85.4674 117.631 85.842 114.355 86.2701 111.08Z" fill="#EEFDDA"/>
<g opacity="0.2" style="mix-blend-mode:soft-light">
<path d="M87.9826 151.94C87.2334 146.57 86.9123 141.094 86.6982 135.671C86.3236 124.611 87.2334 113.496 86.9123 102.436C86.3236 108.235 85.6279 113.98 85.0392 119.778C84.7181 122.624 84.4506 125.47 84.1295 128.315C83.9689 130.785 83.8084 133.201 83.7548 135.671C83.5408 141.362 83.4338 147.591 84.8252 153.174C84.9857 153.872 85.1998 154.517 85.3603 155.161C85.5209 155.644 85.7349 156.074 85.8955 156.557C86.9123 158.758 88.1967 160.906 89.7486 162.839C90.2303 163.43 90.7119 163.966 91.2471 164.503C89.5881 160.53 88.6248 156.235 87.9826 151.94Z" fill="url(#paint3_radial_8002_25808)"/>
</g>
<path d="M107.034 146.195C107.034 144.369 106.981 142.597 106.981 140.772C106.713 137.497 106.392 134.221 106.071 130.946C104.733 118.382 103.823 105.711 103.074 93.0938C102.699 86.7045 102.432 80.3689 102.271 73.9796C102.271 72.9058 102.218 71.8856 102.218 70.8118C101.95 58.8386 101.683 46.6507 99.3815 34.8922C99.0604 33.2815 98.6858 31.6171 98.3647 29.9526C98.5252 36.6104 99.542 43.2681 99.5955 49.9258C99.5955 56.2614 99.4885 62.597 99.0069 68.9326C98.7928 71.9393 98.4717 74.946 98.0971 77.9528C97.4549 88.4763 96.4916 98.9461 95.2607 109.416C94.8326 116.074 94.351 122.785 93.9764 129.443C93.8158 132.235 93.5482 135.027 93.4412 137.872C93.3342 141.04 93.4947 144.262 93.3342 147.429C93.0666 152.96 93.8158 158.49 94.6185 163.913C94.8861 165.953 96.0635 167.886 96.8662 169.765C97.4014 171 99.0069 173.631 100.666 173.523C102.164 173.416 103.021 172.289 103.663 171.054C104.84 168.852 105.429 166.329 105.91 163.913C106.499 161.067 106.446 158.221 106.767 155.376C107.088 152.262 107.034 149.201 107.034 146.195Z" fill="url(#paint4_linear_8002_25808)"/>
<g opacity="0.3" style="mix-blend-mode:overlay">
<path d="M107.034 146.195C107.034 144.37 106.981 142.598 106.981 140.773C106.713 137.497 106.392 134.222 106.071 130.947C104.733 118.383 103.823 105.712 103.074 93.0946C102.699 86.7053 102.432 80.3697 102.271 73.9804C102.271 72.9066 102.218 71.8864 102.218 70.8126C102.218 69.5777 102.164 68.3428 102.164 67.1079C101.629 83.2153 101.469 99.3764 102.004 115.484C102.432 128.209 103.93 141.202 102.004 153.82C101.736 155.699 101.361 157.524 101.094 159.35C100.826 160.961 100.559 162.625 99.9701 164.236C99.649 165.148 99.1138 166.652 98.0435 166.974C97.4013 167.135 96.7056 167.081 96.1169 166.652C95.6353 166.276 95.2607 165.846 94.9396 165.31C95.4212 166.867 96.224 168.316 96.8661 169.766C97.4013 171.001 99.0068 173.632 100.666 173.524C102.164 173.417 103.02 172.289 103.663 171.054C104.84 168.853 105.429 166.33 105.91 163.914C106.499 161.068 106.445 158.222 106.767 155.377C107.088 152.262 107.034 149.202 107.034 146.195Z" fill="#E7F2D4"/>
</g>
<path d="M96.0099 121.013C96.5451 115.376 97.4013 109.738 97.7759 104.101C97.8295 103.242 97.883 102.382 97.9365 101.47C98.1505 97.3891 98.2041 93.3623 98.2576 89.2817C98.0435 90.9999 97.7759 92.718 97.6689 94.4361C97.5619 96.9059 97.4548 99.322 97.2943 101.792C96.9197 106.785 96.2775 111.832 96.0099 116.825C95.7423 120.852 95.5283 124.825 95.3142 128.852C95.4748 126.329 95.7423 123.644 96.0099 121.013Z" fill="#E6F5D5"/>
<path d="M98.5785 112.53C97.8828 125.201 98.2574 137.873 98.7926 150.544C98.7391 144.96 98.7926 139.322 98.8461 133.738C98.8996 128.423 98.8996 123.107 98.8461 117.738C98.8461 116.074 98.6856 114.302 98.5785 112.53Z" fill="#E6F5D5"/>
<path d="M100.826 88.1009C100.826 88.3694 100.773 88.6378 100.773 88.9063C100.933 96.1546 100.987 103.403 101.254 110.651C101.362 113.067 101.415 115.484 101.522 117.9C101.79 121.175 102.057 124.45 102.271 127.725C102.057 121.926 101.897 116.074 101.79 110.275C101.629 102.222 101.362 94.2754 100.933 86.2754C100.933 86.866 100.88 87.5103 100.826 88.1009Z" fill="#E6F5D5"/>
<g opacity="0.2" style="mix-blend-mode:soft-light">
<path d="M99.649 118.866C99.4349 116.235 99.3814 113.604 99.2209 110.974C99.1674 109.846 99.0603 108.719 99.0068 107.537C98.6857 102.866 98.4181 98.195 97.9365 93.5239C97.9365 93.4702 97.9365 93.4165 97.9365 93.3628V93.4165C97.7759 96.2084 97.6154 99.0004 97.4549 101.792C96.9732 108.665 96.117 115.484 95.7959 122.356C95.6353 125.685 95.0466 129.014 94.9931 132.396C94.8861 136.316 94.7791 140.289 94.565 144.209C94.4045 147.484 94.6185 150.813 94.565 154.141C94.5115 157.202 95.4213 160.262 95.9029 163.269C95.9564 163.591 96.3845 163.323 96.4381 163.108C96.5986 161.98 97.1873 160.692 97.5084 159.564C97.99 157.954 98.3646 156.289 98.8463 154.732C99.7025 151.994 100.291 149.256 100.666 146.41C101.415 140.504 100.666 134.544 100.452 128.638C100.291 125.417 99.9166 122.141 99.649 118.866Z" fill="url(#paint5_radial_8002_25808)"/>
</g>
<path d="M93.0665 67.9667C93.2805 68.1815 93.8157 69.4701 94.2438 69.7385C94.2973 68.7721 94.2973 67.6982 94.1903 66.6244C94.0298 65.2821 93.7622 63.9398 93.3876 62.7586C92.7454 60.9868 92.2637 59.1613 91.7286 57.2821C91.5145 56.4767 91.5145 55.564 91.1934 54.8123C91.1934 54.7586 91.0864 54.7586 91.0329 54.7586H90.8723C90.7653 54.7586 90.6582 54.866 90.6047 54.9734C90.3907 55.564 90.2301 56.262 90.0161 56.8526C89.9625 56.5841 89.9625 56.3157 89.8555 56.1009C89.6415 55.4566 89.3739 54.8123 89.0528 54.2217C88.7852 53.7385 88.3571 52.5036 87.7149 52.3962C87.5543 52.3962 87.4473 52.4499 87.3938 52.5573C87.0727 53.0942 87.1262 53.7385 87.2332 54.4365C87.1262 54.2217 86.9657 54.0069 86.8051 53.7922C86.6446 53.5774 86.5375 53.3626 86.3235 53.1479C85.6813 52.3962 84.4504 51.0002 83.3266 51.2687C83.2731 51.2687 83.166 51.376 83.166 51.4297C83.166 51.4834 83.166 51.4834 83.166 51.5371C82.8985 52.2351 83.4336 53.0942 83.8617 53.8995C83.6477 53.7922 83.4871 53.6311 83.3266 53.5774C83.2731 53.5237 83.2196 53.5237 83.1125 53.47C82.0422 52.5573 80.7578 51.8593 79.3664 52.1814C79.2059 52.2351 79.0988 52.3962 79.1523 52.5036C79.3664 53.1479 80.2227 53.5774 80.7043 54.0069C80.7578 54.0606 80.8113 54.1143 80.9184 54.168C80.6508 54.0606 80.3832 54.0069 80.1156 53.8995C79.4734 53.7385 78.3496 53.3626 77.9215 54.0606C77.9215 54.1143 77.868 54.168 77.9215 54.2217C78.4031 54.9197 78.9918 55.6177 79.634 56.262C79.0988 56.1009 78.5637 55.8861 78.082 56.1009C77.975 56.1546 77.9215 56.262 77.9215 56.3693C78.4031 57.5506 79.8481 58.6781 80.7578 59.4834C81.3465 60.0204 81.9887 60.5036 82.6309 60.9868C81.4 60.5573 80.1156 60.1814 78.7777 60.0741C78.6172 60.0741 78.4566 60.1814 78.4566 60.3425C78.4566 60.8257 79.1523 61.2553 79.4199 61.5774C80.0621 62.3291 81.0789 62.8123 81.9352 63.2955C82.0422 63.3492 82.1492 63.4029 82.2563 63.4566C81.7211 63.564 81.1324 63.6177 80.6508 63.7788C80.5438 63.8325 80.3832 63.9935 80.4902 64.1009C80.9184 64.5841 81.9352 64.5841 82.5238 64.7452C84.5039 65.1747 86.5375 65.2821 88.5176 65.819C89.2133 65.9801 90.0161 66.2486 90.7653 66.6244C91.6751 66.9466 92.4243 67.3761 93.0665 67.9667Z" fill="#95C125"/>
<path d="M86.1095 57.2281C87.2869 58.5704 88.4107 60.0201 89.481 61.4161C90.8189 63.1342 91.7822 65.1745 93.2806 66.7852C94.351 67.9664 95.4213 69.2013 96.5451 70.3825C96.6521 71.2416 96.7056 72.1007 96.7592 72.9597C95.3142 71.7785 94.0299 70.1678 93.0666 69.0939C90.0697 65.604 87.822 61.5235 85.949 57.2818C85.949 57.1744 86.056 57.1744 86.1095 57.2281Z" fill="#AFD076"/>
<path d="M91.7289 51.4831C91.943 51.6979 92.4246 52.9865 92.8527 53.255C92.9598 52.2885 93.0133 51.2147 92.9598 50.1409C92.9063 48.7986 92.6387 47.4026 92.3176 46.2214C91.7824 44.3959 91.3008 42.5704 90.9262 40.6912C90.7656 39.8858 90.7656 38.973 90.4981 38.1677C90.4981 38.114 90.391 38.0603 90.3375 38.114H90.177C90.0699 38.114 89.9629 38.2214 89.9094 38.3287C89.6953 38.9194 89.4813 39.5637 89.2672 40.2079C89.2672 39.9395 89.2137 39.671 89.1602 39.4026C88.9996 38.7583 88.732 38.114 88.4109 37.5234C88.1434 37.0402 87.7687 35.7516 87.1801 35.6442C87.0195 35.5905 86.9125 35.6979 86.859 35.8053C86.5379 36.3422 86.5379 36.9865 86.5914 37.6845C86.4844 37.4697 86.3773 37.2549 86.2168 37.0402C86.1098 36.8254 85.9492 36.6106 85.7887 36.3959C85.2 35.5905 84.0226 34.1945 82.8988 34.3556C82.8453 34.3556 82.7383 34.463 82.7383 34.5167C82.7383 34.5704 82.7383 34.5704 82.7383 34.624C82.4172 35.322 82.9523 36.1811 83.3804 36.9865C83.2199 36.8791 83.0058 36.718 82.8453 36.6106C82.7918 36.5569 82.7383 36.5569 82.6847 36.5032C81.6679 35.5368 80.4371 34.7851 78.9921 35.0536C78.8316 35.0536 78.7246 35.2146 78.7781 35.3757C78.9921 36.02 79.7949 36.5032 80.2765 36.9328C80.33 36.9865 80.3836 37.0402 80.4906 37.0938C80.223 36.9865 79.9554 36.8791 79.6878 36.8254C79.0457 36.6643 77.9218 36.1811 77.4937 36.8791C77.4402 36.9328 77.4402 36.9865 77.4937 37.0402C77.9753 37.7381 78.5105 38.4898 79.1527 39.1341C78.6175 38.9194 78.1359 38.7046 77.6007 38.9194C77.4937 38.973 77.4402 39.0804 77.4402 39.1878C77.9218 40.369 79.2597 41.5502 80.116 42.463C80.7047 42.9999 81.2933 43.5368 81.9355 44.02C80.7047 43.5368 79.4738 43.1073 78.1359 42.9462C77.9753 42.9462 77.8148 43.0536 77.7613 43.2147C77.7613 43.6979 78.4035 44.1811 78.6711 44.4496C79.3132 45.2013 80.2765 45.7919 81.1328 46.2751C81.2398 46.3288 81.3468 46.3825 81.4539 46.4362C80.9187 46.4898 80.33 46.5435 79.7949 46.7046C79.6879 46.7583 79.5273 46.9194 79.6343 47.0268C80.0625 47.51 81.0257 47.6174 81.6144 47.7247C83.5945 48.2617 85.6281 48.4764 87.5547 49.067C88.2504 49.2818 88.9996 49.6039 89.7488 49.9798C90.391 50.4093 91.1402 50.8389 91.7289 51.4831Z" fill="#167A2F"/>
<path d="M85.2533 40.3687C86.3771 41.7646 87.4474 43.268 88.4642 44.7177C89.7486 46.4895 90.6048 48.5834 91.9963 50.2479C93.0131 51.4828 94.0299 52.7714 95.1002 53.9526C95.1537 54.8116 95.2072 55.6707 95.2072 56.5298C93.8158 55.2949 92.5849 53.6304 91.7287 52.5029C88.8923 48.8519 86.8052 44.664 85.1462 40.3687H85.2533Z" fill="#56AF35"/>
<path d="M105.268 52.8255C105.054 53.0402 104.573 54.3288 104.144 54.5973C104.037 53.6308 103.984 52.557 104.091 51.4832C104.198 50.1409 104.412 48.7449 104.733 47.6174C105.268 45.7919 105.75 43.9664 106.178 42.0872C106.392 41.2818 106.339 40.369 106.606 39.5637C106.606 39.51 106.713 39.4563 106.767 39.51H106.927C107.034 39.51 107.141 39.6174 107.195 39.7247C107.409 40.3154 107.623 40.9596 107.837 41.6039C107.837 41.3355 107.891 41.067 107.944 40.7986C108.158 40.1543 108.372 39.51 108.693 38.9194C108.961 38.4362 109.335 37.1476 109.924 37.0402C110.085 36.9865 110.192 37.0939 110.245 37.2012C110.566 37.7382 110.566 38.3825 110.459 39.0804C110.566 38.8657 110.727 38.6509 110.834 38.4362C110.941 38.2214 111.102 38.0066 111.262 37.7919C111.851 36.9865 113.028 35.5905 114.152 35.7516C114.205 35.7516 114.312 35.859 114.312 35.9127C114.312 35.9663 114.312 35.9663 114.312 36.02C114.634 36.718 114.098 37.5771 113.67 38.3825C113.884 38.2751 114.045 38.114 114.205 38.0066C114.259 37.9529 114.312 37.9529 114.366 37.8992C115.383 36.9328 116.614 36.1811 118.059 36.4496C118.219 36.4496 118.326 36.6106 118.273 36.7717C118.059 37.416 117.256 37.8455 116.774 38.3288C116.721 38.3825 116.667 38.4362 116.56 38.4898C116.828 38.3825 117.095 38.2751 117.363 38.2214C118.005 38.0603 119.129 37.5771 119.557 38.2751C119.611 38.3288 119.611 38.3825 119.557 38.4362C119.075 39.1341 118.54 39.8858 117.898 40.5301C118.433 40.3154 118.915 40.1006 119.45 40.3154C119.557 40.369 119.611 40.4764 119.611 40.5838C119.129 41.765 117.791 42.9462 116.881 43.859C116.293 44.3959 115.704 44.9328 115.062 45.416C116.293 44.9328 117.523 44.5033 118.861 44.3959C119.022 44.3959 119.182 44.5033 119.236 44.6644C119.236 45.1476 118.594 45.6308 118.326 45.8993C117.684 46.6509 116.721 47.2415 115.864 47.7248C115.757 47.7785 115.65 47.8322 115.543 47.8858C116.078 47.9395 116.667 48.0469 117.202 48.1543C117.309 48.208 117.47 48.3691 117.363 48.4764C116.935 48.9597 115.971 49.0134 115.383 49.1744C113.403 49.7114 111.369 49.8724 109.443 50.463C108.747 50.6778 107.998 50.9999 107.248 51.3758C106.606 51.7516 105.857 52.1812 105.268 52.8255Z" fill="#95C125"/>
<path d="M111.797 41.7649C110.673 43.1609 109.603 44.6106 108.586 46.1139C107.302 47.8857 106.445 49.9797 105.001 51.6441C103.984 52.879 102.967 54.1676 101.897 55.3488C101.843 56.2079 101.79 57.067 101.79 57.926C103.181 56.6911 104.412 55.0804 105.322 53.8992C108.158 50.3019 110.299 46.1139 111.958 41.8186C111.904 41.7649 111.797 41.7112 111.797 41.7649Z" fill="#AFD076"/>
<path d="M100.345 45.2547C100.238 45.5231 100.291 46.9191 100.024 47.3486C99.5419 46.4896 99.0603 45.5231 98.6856 44.5567C98.204 43.2681 97.8829 41.9258 97.7224 40.7446C97.5083 38.8654 97.1337 36.9862 96.8126 35.107C96.652 34.3016 96.2774 33.4962 96.1704 32.6372C96.1704 32.5835 96.2239 32.5298 96.2774 32.4761L96.438 32.4224C96.545 32.3687 96.652 32.4224 96.7591 32.4761C97.1872 32.9056 97.6688 33.4425 98.097 33.9258C97.9899 33.6573 97.9364 33.4425 97.8829 33.1741C97.7759 32.4761 97.7759 31.8318 97.7759 31.1338C97.8294 30.5432 97.6153 29.2546 98.1505 28.8788C98.2575 28.7714 98.4181 28.8251 98.5251 28.8788C99.0603 29.2009 99.2743 29.8452 99.4884 30.4895C99.4884 30.2211 99.5419 29.9526 99.5954 29.7378C99.5954 29.4694 99.6489 29.2009 99.7024 28.9325C99.9165 27.966 100.398 26.1942 101.522 25.9257C101.576 25.9257 101.683 25.9257 101.736 26.0331C101.736 26.0868 101.736 26.0868 101.79 26.1405C102.378 26.6774 102.218 27.6439 102.164 28.5566C102.271 28.3419 102.378 28.1808 102.485 28.0197C102.539 27.966 102.539 27.9123 102.592 27.8586C103.127 26.57 103.984 25.3888 105.375 25.013C105.536 24.9593 105.696 25.0667 105.696 25.2278C105.803 25.8721 105.215 26.6237 104.947 27.268C104.893 27.3217 104.893 27.4291 104.84 27.5365C105.054 27.3217 105.215 27.107 105.429 26.9459C105.91 26.5163 106.767 25.6573 107.462 26.0868C107.516 26.0868 107.569 26.1942 107.516 26.2479C107.355 27.107 107.195 27.966 106.874 28.8251C107.248 28.4492 107.676 28.0197 108.211 28.0197C108.319 28.0197 108.426 28.0734 108.479 28.2345C108.533 29.5231 107.783 31.1338 107.302 32.315C106.981 33.0667 106.66 33.7647 106.285 34.4627C107.195 33.4962 108.158 32.5835 109.335 31.9392C109.496 31.8855 109.71 31.8855 109.763 32.0466C109.977 32.4761 109.549 33.1741 109.442 33.5499C109.175 34.5164 108.479 35.4291 107.944 36.2345C107.89 36.3419 107.783 36.3956 107.73 36.503C108.265 36.3419 108.8 36.1808 109.335 36.0734C109.442 36.0734 109.656 36.1271 109.603 36.2882C109.389 36.8788 108.533 37.362 108.051 37.7379C106.445 39.0265 104.679 40.0466 103.127 41.3889C102.592 41.8721 102.004 42.4627 101.468 43.107C101.201 43.7513 100.666 44.4493 100.345 45.2547Z" fill="#95C125"/>
<path d="M101.843 32.5295C101.362 34.2477 101.04 36.0195 100.666 37.7913C100.238 39.9389 100.238 42.194 99.6491 44.2879C99.2209 45.845 98.7928 47.4021 98.3112 48.9591C98.5787 49.7645 98.8998 50.5698 99.2209 51.3752C100.024 49.6571 100.452 47.6705 100.826 46.2745C101.95 41.8181 102.218 37.147 101.95 32.5295C101.95 32.4758 101.843 32.4758 101.843 32.5295Z" fill="#AFD076"/>
<path d="M111.048 39.9394C110.406 40.0468 109.817 40.3153 109.228 40.5837C108.961 40.6911 108.693 40.9059 108.426 41.1207C108.854 40.5837 109.282 40.0468 109.335 39.4025C109.335 39.3488 109.335 39.2415 109.282 39.1878C108.747 38.9193 108.104 39.4025 107.623 39.6173C107.302 39.7784 106.981 39.9931 106.713 40.2616C106.927 39.9931 107.034 39.7247 107.034 39.4025C107.034 39.3488 106.981 39.2951 106.927 39.2415C106.124 39.0267 104.626 40.369 104.037 40.7985C103.609 41.1743 103.128 41.6576 102.806 42.1945C102.86 41.926 102.86 41.7113 102.913 41.4428C102.967 41.1743 103.074 40.9059 102.967 40.6911C102.967 40.6374 102.913 40.6374 102.86 40.6374C102.164 40.9596 101.736 42.0871 101.415 42.7314C101.201 43.1072 101.04 43.5905 100.987 44.02C100.987 44.1274 100.933 44.2884 100.933 44.3958C100.88 43.7515 100.773 43.1072 100.505 42.5166C100.452 42.4629 100.398 42.4629 100.398 42.5166C100.238 42.8388 100.291 43.2146 100.238 43.5905C100.077 44.5032 99.863 45.416 99.542 46.3287C99.2744 47.1878 98.9533 47.9932 98.6322 48.8522C98.5251 49.2281 98.2576 50.1408 97.883 50.8925C97.6689 48.7448 97.5619 46.5435 97.9365 44.3958C98.1505 43.3757 98.5251 42.5703 98.8998 41.6576C99.0603 41.3354 99.756 39.8858 99.3814 39.5099C98.7927 39.5636 98.204 40.2079 97.8294 40.7985C97.99 39.7784 98.1505 38.7582 98.3646 37.7918C98.3646 37.6844 98.3111 37.577 98.2041 37.5233C97.7759 37.4696 97.1872 37.8992 96.7591 38.5435C96.7056 38.1139 96.7056 37.6307 96.6521 37.2012C96.5986 36.718 96.438 34.9998 95.9564 34.7851C95.4212 34.5166 95.1001 35.2683 94.8861 36.02C94.8325 35.6441 94.779 35.2683 94.7255 34.8388C94.672 34.3555 94.6185 33.4965 94.2974 33.1743C94.2439 33.1206 94.1904 33.1206 94.1368 33.1206C93.8158 33.228 93.6017 33.6039 93.4947 34.0334C93.3876 33.3891 93.2806 32.6374 92.906 32.1542C92.8525 32.1005 92.7454 32.1005 92.6919 32.1005C92.3173 32.2079 92.1568 32.6911 92.1033 33.228C91.9962 32.6911 91.7822 32.2079 91.5146 31.7783C91.354 31.5636 90.8724 30.6508 90.5513 31.1877C90.3372 31.5636 90.5513 32.2079 90.6048 32.5837C90.6048 32.6374 90.6048 32.6374 90.6048 32.6911C90.4443 32.4763 90.2837 32.2079 90.0696 32.1005C89.9091 32.0468 89.7486 32.1542 89.695 32.3153C89.5345 33.0669 89.7486 33.926 90.0696 34.7851C89.9091 34.5703 89.7486 34.3555 89.481 34.2482C89.4275 34.1945 89.3739 34.2482 89.3204 34.3018C88.9993 34.7851 89.2669 35.4831 89.3204 35.9663C89.4275 36.5032 89.5345 36.9864 89.695 37.5233C89.7486 37.577 89.7485 37.6844 89.8556 37.7918C89.5345 37.4159 89.2669 36.9327 88.9458 36.6106C88.8923 36.6106 88.8923 36.6106 88.8388 36.6106C88.4642 36.7717 88.6247 37.2549 88.6782 37.577C88.7317 38.1139 88.8923 38.6508 89.0528 39.1878C88.8923 38.973 88.6782 38.8119 88.4642 38.6508C88.4107 38.6508 88.3571 38.6508 88.3571 38.6508C87.6079 39.0804 88.5712 40.8522 88.7853 41.3891C88.4642 40.5837 86.5911 41.6576 86.6981 42.5166C86.7517 42.8925 87.7685 43.3757 88.0896 43.5905C89.0528 44.2884 89.9091 44.9864 90.7118 45.8455C91.5146 46.7046 92.2638 47.5636 92.8525 48.5838C93.2806 49.2818 93.7087 50.0871 94.2974 50.6777C94.4044 50.8925 94.565 51.1073 94.672 51.322C93.7622 50.7851 92.9595 50.1945 92.1568 49.4428C91.4611 48.7448 90.6583 48.1005 89.9626 47.4025C89.481 46.9193 89.1064 46.3287 88.5712 45.8992C88.5177 45.8455 88.4642 45.8992 88.4107 45.8992L88.3036 45.9529C88.2501 46.0066 88.1966 46.114 88.1966 46.1676C88.3036 46.6509 88.4642 47.1878 88.5712 47.7247C88.4642 47.5636 88.3036 47.4026 88.1431 47.2415C87.7149 46.8656 87.2868 46.5972 86.8052 46.3287C86.4306 46.114 85.6278 45.416 85.1462 45.6307C85.0392 45.6844 84.9856 45.7918 84.9856 45.8992C84.9856 46.3824 85.3067 46.8119 85.6814 47.2415C85.5208 47.1341 85.3067 47.0267 85.1462 46.973C84.9856 46.8656 84.7716 46.8119 84.5575 46.7046C83.8083 46.4361 82.4169 46.0066 81.7212 46.6509C81.6677 46.7046 81.6677 46.8119 81.7212 46.8119L81.7747 46.8656C81.8817 47.4562 82.5774 47.8321 83.2196 48.1542C83.0591 48.1542 82.845 48.1542 82.6845 48.1542C82.6309 48.1542 82.5774 48.1542 82.5239 48.1542C81.4001 47.9932 80.2762 48.0468 79.42 48.8522C79.313 48.9596 79.313 49.1207 79.42 49.1744C79.8481 49.4965 80.5973 49.4428 81.079 49.5502C81.1325 49.5502 81.2395 49.5502 81.293 49.6039C81.079 49.6576 80.8649 49.7113 80.6509 49.765C80.1692 49.926 79.2059 50.1408 79.2059 50.7851C79.2059 50.8388 79.2595 50.8925 79.2595 50.8925C79.9016 51.161 80.5973 51.3757 81.293 51.5905C80.8649 51.6979 80.4368 51.8052 80.1692 52.1274C80.1157 52.1811 80.1157 52.3422 80.1692 52.3959C81.0255 52.9865 82.4169 53.1475 83.4337 53.3623C84.0759 53.4697 84.7181 53.5771 85.3067 53.5771C84.2899 53.7918 83.2731 54.0603 82.3099 54.5972C82.2028 54.6509 82.0958 54.812 82.2028 54.9193C82.4169 55.2415 83.0591 55.2415 83.3802 55.3489C84.1294 55.5636 85.0392 55.51 85.8419 55.4563C85.9489 55.4563 86.0024 55.4563 86.1095 55.4563C85.7884 55.7247 85.4138 56.0469 85.1462 56.369C85.0927 56.4227 85.0392 56.6375 85.1997 56.6375C85.6813 56.7449 86.3771 56.369 86.8587 56.2079C87.7685 55.8858 88.6247 55.3489 89.588 54.973C90.6583 54.5972 91.8357 54.3287 92.9595 54.114C93.9228 53.9529 95.5283 54.0603 96.3845 54.7046C96.3845 54.8657 96.3845 55.0267 96.438 55.1341C96.4916 55.2952 96.6521 55.2415 96.7056 55.1341C97.2943 54.5435 97.6154 53.8455 98.2576 53.2549C99.0603 52.5569 100.238 52.1811 101.201 51.8052C102.057 51.4831 102.86 51.2683 103.716 50.9462C104.412 50.6777 105.375 50.5167 105.857 49.8724C105.91 49.765 106.017 49.4965 105.803 49.4965C105.429 49.4965 105.161 49.6039 104.786 49.7113C104.465 49.765 104.091 49.8187 103.77 49.8187C104.198 49.765 104.679 49.7113 105.054 49.6039C105.75 49.4428 106.392 49.1207 107.034 48.8522C107.944 48.4227 109.282 47.8858 110.031 47.0804C110.192 46.9193 110.673 46.114 110.085 46.0603C109.763 46.0603 109.389 46.114 109.014 46.275C109.442 45.8992 109.817 45.5234 110.192 45.0938C110.566 44.6643 111.208 44.02 111.155 43.4294C111.155 43.3757 111.101 43.322 111.048 43.322C110.78 43.3757 110.566 43.5368 110.352 43.6978C110.673 43.322 110.941 42.9462 111.208 42.5703C111.637 41.9797 112.493 40.6911 112.386 39.8858C112.279 39.671 111.422 39.8321 111.048 39.9394Z" fill="#18993C"/>
<path d="M115.811 59.1078C116.025 58.9467 116.774 58.195 116.078 58.0339C115.704 57.9266 115.329 57.9803 114.901 58.0339C115.436 57.7118 115.918 57.3896 116.453 57.0138C116.934 56.638 117.791 56.0474 117.844 55.4031C117.844 55.3494 117.791 55.2957 117.737 55.2957C117.47 55.2957 117.149 55.4031 116.881 55.5104C117.309 55.1883 117.684 54.8125 118.058 54.4903C118.647 53.8997 119.824 52.7185 119.931 51.8594C119.985 51.2151 119.022 51.2151 118.593 51.1614C117.898 51.1077 117.149 51.2688 116.506 51.4836C116.239 51.5373 115.864 51.752 115.543 51.8594C116.132 51.3762 116.72 50.893 116.881 50.195C116.881 50.1413 116.934 50.0339 116.827 49.9802C116.292 49.5507 115.49 49.9802 114.954 50.0876C114.526 50.195 114.152 50.4098 113.831 50.6245C114.098 50.3561 114.312 50.0876 114.366 49.7655C114.366 49.6581 114.312 49.6044 114.259 49.5507C113.402 49.1212 111.476 50.2487 110.78 50.6245C110.191 50.9467 109.603 51.3762 109.121 51.9131C109.228 51.6447 109.335 51.4299 109.389 51.1614C109.496 50.893 109.71 50.6245 109.603 50.3561C109.603 50.3024 109.549 50.2487 109.496 50.3024C108.693 50.4635 107.944 51.6447 107.462 52.2353C107.141 52.6111 106.873 53.0943 106.713 53.5239C106.659 53.6312 106.606 53.7923 106.606 53.9534C106.713 53.2017 106.713 52.5037 106.552 51.8057C106.552 51.752 106.445 51.752 106.392 51.8057C106.124 52.1279 106.124 52.5574 105.964 52.9333C105.589 53.8997 105.107 54.8661 104.626 55.7789C104.198 56.5306 103.716 57.2823 103.288 58.0339C103.502 57.1749 103.663 56.2621 104.091 55.4568C104.305 55.0809 103.663 55.0272 103.448 55.242C101.201 57.5507 100.719 60.987 100.13 64.0474C100.077 64.2085 100.238 64.3695 100.398 64.3695C101.04 64.5306 101.415 64.2621 102.057 63.94C103.502 63.2957 105.107 63.1883 106.606 62.9199C108.693 62.544 110.834 62.2756 112.921 61.7387C113.188 61.685 113.563 61.3091 113.135 61.148C112.653 60.9333 112.172 60.7722 111.636 60.6648C111.85 60.6111 112.011 60.5574 112.225 60.5037C113.295 60.1279 114.847 59.8058 115.811 59.1078Z" fill="#067D32"/>
<path d="M98.4716 69.5768C96.6521 68.664 96.8126 65.4962 96.8126 63.7781C96.7591 61.362 96.7591 59.0533 96.9196 56.6371C97.1872 52.1808 97.7759 47.617 96.8126 43.2143C96.8126 43.1069 96.545 43.1606 96.545 43.268C96.545 46.0062 95.8493 48.7982 95.4212 51.5365C94.9396 54.3821 94.5649 57.2814 94.4579 60.1808C94.4044 62.3821 93.9228 71.9929 98.3646 70.1137C98.5251 70.0063 98.6857 69.6842 98.4716 69.5768Z" fill="#B1CE55"/>
<path d="M115.597 51.8584C115.062 51.751 114.473 51.8584 113.938 51.9121C113.724 51.9658 113.456 52.0732 113.135 52.1269C113.617 51.8047 114.152 51.4826 114.312 50.9456C114.312 50.892 114.366 50.8383 114.312 50.7846C113.938 50.4087 113.296 50.6772 112.868 50.7309C112.546 50.7846 112.225 50.892 111.958 51.053C112.172 50.892 112.386 50.6772 112.439 50.4087C112.439 50.355 112.439 50.3013 112.386 50.2477C111.797 49.8181 110.192 50.5161 109.603 50.7846C109.121 50.9993 108.64 51.2678 108.212 51.6436C108.319 51.4289 108.426 51.2678 108.479 51.053C108.586 50.8383 108.747 50.6772 108.747 50.4087C108.747 50.355 108.693 50.355 108.64 50.355C107.998 50.4087 107.355 51.2678 106.874 51.6973C106.606 51.9658 106.339 52.2879 106.178 52.6101C106.125 52.7175 106.071 52.8248 106.017 52.9322C106.125 52.3953 106.232 51.8047 106.125 51.2678C106.125 51.2141 106.071 51.2141 106.017 51.2678C105.803 51.4826 105.75 51.8047 105.589 52.0732C105.215 52.7712 104.787 53.4691 104.305 54.1671C103.877 54.8114 103.395 55.3483 102.914 55.9926C102.699 56.2611 102.271 56.9591 101.736 57.496C102.164 55.6705 102.592 53.845 103.502 52.1805C103.93 51.3752 104.466 50.8383 105.001 50.194C105.215 49.9792 106.178 48.9591 105.964 48.5295C105.482 48.4221 104.84 48.798 104.358 49.1738C104.787 48.4221 105.161 47.5631 105.589 46.8114C105.643 46.7577 105.643 46.5966 105.536 46.5429C105.215 46.3819 104.626 46.5966 104.091 47.0262C104.198 46.6503 104.251 46.2745 104.358 45.8987C104.466 45.4691 104.733 44.0195 104.412 43.6973C104.037 43.3752 103.609 43.8584 103.235 44.449C103.288 44.1268 103.342 43.8047 103.395 43.4288C103.449 43.053 103.663 42.3013 103.449 41.9255C103.449 41.8718 103.395 41.8718 103.342 41.8718C103.021 41.8718 102.807 42.1403 102.592 42.4624C102.646 41.8718 102.753 41.2812 102.592 40.7443C102.592 40.6906 102.485 40.6369 102.432 40.6369C102.111 40.6369 101.843 40.959 101.683 41.3886C101.736 40.9053 101.683 40.4758 101.576 40.0463C101.522 39.8315 101.308 38.9725 100.933 39.2946C100.666 39.5631 100.666 40.1537 100.612 40.4758C100.612 40.5295 100.612 40.5295 100.612 40.5832C100.559 40.3684 100.505 40.1 100.345 39.9389C100.238 39.8315 100.024 39.9389 99.9702 40.0463C99.6491 40.5832 99.5956 41.3886 99.6491 42.1403C99.5956 41.9255 99.4886 41.7107 99.328 41.5496C99.2745 41.496 99.221 41.5496 99.1675 41.5496C98.7928 41.8718 98.7928 42.5161 98.7393 42.9456C98.6858 43.4288 98.6323 43.8584 98.6323 44.3416C98.6323 44.3953 98.6323 44.5027 98.6858 44.6101C98.5253 44.1805 98.4718 43.751 98.2042 43.4288C98.2042 43.4288 98.1507 43.3752 98.0971 43.3752C97.7225 43.4288 97.7225 43.8584 97.669 44.1268C97.562 44.6101 97.562 45.0933 97.562 45.5228C97.4549 45.308 97.3479 45.147 97.2409 44.9322C97.2409 44.8785 97.1874 44.8785 97.1339 44.8785C96.3846 45.0396 96.7592 46.7577 96.7592 47.2409C96.7057 46.4893 94.8862 46.9188 94.7256 47.6168C94.6721 47.9389 95.3678 48.6369 95.5819 48.8517C96.2241 49.6571 96.7057 50.4624 97.1339 51.4289C97.562 52.3416 97.9366 53.2544 98.2042 54.2208C98.3647 54.9188 98.5253 55.6705 98.8464 56.3148C98.8999 56.5296 98.9534 56.7443 99.0069 56.9591C98.3647 56.3148 97.8831 55.5631 97.455 54.7577C97.0803 54.0061 96.5987 53.2544 96.1706 52.5027C95.903 51.9658 95.7424 51.3752 95.4213 50.892C95.4213 50.8383 95.3143 50.8383 95.3143 50.892L95.2073 50.9456C95.1538 50.9456 95.1003 51.053 95.1003 51.1067C95.0467 51.5362 95.0467 52.0195 95.0467 52.449C94.9932 52.2879 94.9397 52.1269 94.8327 51.9658C94.5651 51.5899 94.2975 51.2141 93.9764 50.8383C93.7088 50.5698 93.2272 49.7644 92.7991 49.8181C92.692 49.8181 92.6385 49.9255 92.585 49.9792C92.478 50.4087 92.585 50.8383 92.7991 51.2678C92.692 51.1067 92.5315 50.9993 92.4245 50.892C92.3174 50.7846 92.1569 50.6235 91.9963 50.5161C91.4612 50.0866 90.3909 49.3886 89.6952 49.7107C89.6416 49.7107 89.5881 49.8181 89.6416 49.8718C89.6416 49.8718 89.6416 49.9255 89.6952 49.9255C89.5881 50.4624 90.1233 50.892 90.5514 51.3752C90.3909 51.3215 90.2303 51.2678 90.1233 51.2141C90.0698 51.2141 90.0163 51.1604 89.9627 51.1604C89.1065 50.7309 88.1432 50.4624 87.2334 50.892C87.1264 50.9456 87.0729 51.053 87.1264 51.1604C87.394 51.5363 88.0362 51.6973 88.4108 51.9121C88.4643 51.9658 88.5178 51.9658 88.5713 52.0195C88.3573 52.0195 88.1967 51.9658 87.9826 51.9658C87.5545 51.9658 86.6983 51.8584 86.5377 52.3953C86.5377 52.449 86.5377 52.5027 86.5377 52.5027C86.9658 52.8785 87.501 53.2544 88.0362 53.5765C87.6616 53.5228 87.2869 53.5228 86.9658 53.7376C86.9123 53.7913 86.8588 53.8987 86.9123 53.9524C87.4475 54.6504 88.5713 55.1873 89.3205 55.6168C89.8022 55.8853 90.2838 56.1 90.819 56.3148C89.9092 56.2074 88.9995 56.1537 88.0897 56.3685C87.9827 56.3685 87.8756 56.4759 87.9291 56.6369C87.9827 56.9591 88.5713 57.1202 88.7854 57.2812C89.3205 57.6571 90.1233 57.8718 90.7655 58.0329C90.819 58.0329 90.926 58.0866 90.9795 58.0866C90.6049 58.2477 90.2838 58.4088 89.9627 58.5698C89.8557 58.6235 89.8022 58.7309 89.9092 58.8383C90.2838 59.053 90.9795 58.9457 91.3542 58.9457C92.2104 58.9457 93.0667 58.6772 93.9229 58.6772C94.8862 58.6235 95.9565 58.7309 96.9198 58.892C97.7761 59.053 99.0604 59.5363 99.5421 60.288C99.4886 60.3953 99.4886 60.5564 99.4886 60.6638C99.4886 60.7712 99.6491 60.7712 99.7026 60.7175C100.345 60.3953 100.773 59.9121 101.469 59.59C102.325 59.2141 103.342 59.2141 104.251 59.1604C105.001 59.1067 105.75 59.1604 106.553 59.1067C107.195 59.053 107.998 59.1604 108.586 58.7846C108.64 58.7309 108.8 58.5161 108.64 58.4624C108.372 58.3551 108.105 58.4088 107.784 58.3551C107.462 58.3014 107.195 58.2477 106.927 58.1403C107.302 58.194 107.676 58.3014 108.051 58.3014C108.64 58.3551 109.282 58.2477 109.871 58.194C110.78 58.0866 112.011 57.9792 112.76 57.496C112.921 57.3886 113.563 56.8517 113.082 56.6906C112.814 56.5832 112.493 56.5832 112.172 56.5832C112.6 56.3685 113.028 56.1537 113.456 55.9389C113.831 55.6705 114.58 55.2946 114.687 54.8114C114.687 54.7577 114.687 54.704 114.634 54.704C114.419 54.704 114.205 54.7577 113.938 54.8114C114.259 54.5967 114.634 54.3819 114.901 54.1134C115.436 53.7376 116.453 52.9322 116.56 52.2342C116.667 52.0195 115.918 51.9121 115.597 51.8584Z" fill="#56AF35"/>
<path d="M102.967 68.718C102.699 68.8791 101.843 69.9529 101.361 70.0603C101.522 69.0939 101.843 68.0737 102.218 67.0536C102.699 65.765 103.342 64.5838 104.037 63.5637C105.108 62.0066 106.124 60.3959 107.088 58.7314C107.516 58.0334 107.73 57.1744 108.265 56.4764C108.319 56.4227 108.372 56.4227 108.426 56.4764L108.586 56.5301C108.693 56.5838 108.747 56.6911 108.747 56.7985C108.747 57.4428 108.747 58.0871 108.8 58.7851C108.907 58.5167 109.014 58.3019 109.121 58.0871C109.496 57.4965 109.924 57.0133 110.406 56.5301C110.78 56.1542 111.529 55.0267 112.172 55.1341C112.332 55.1341 112.439 55.2952 112.439 55.4026C112.6 55.9932 112.386 56.6375 112.065 57.2818C112.225 57.067 112.439 56.9059 112.653 56.7448C112.814 56.5838 113.028 56.4227 113.242 56.2616C114.045 55.7247 115.597 54.7046 116.613 55.2415C116.667 55.2952 116.721 55.4026 116.721 55.4562C116.721 55.5099 116.667 55.5099 116.667 55.5636C116.774 56.3153 116.025 56.9596 115.329 57.6576C115.543 57.6039 115.757 57.5502 115.971 57.4965C116.025 57.4965 116.132 57.4428 116.185 57.4428C117.47 56.8522 118.861 56.5301 120.146 57.1744C120.306 57.2281 120.36 57.4428 120.253 57.5502C119.878 58.0871 118.915 58.3019 118.379 58.5703C118.326 58.624 118.219 58.624 118.165 58.6777C118.433 58.624 118.701 58.624 119.022 58.624C119.664 58.6777 120.895 58.5703 121.109 59.322C121.109 59.3757 121.109 59.4294 121.055 59.4831C120.413 60.02 119.664 60.5569 118.861 60.9865C119.396 60.9328 119.985 60.9328 120.413 61.2549C120.52 61.3086 120.52 61.4697 120.467 61.5771C119.664 62.5435 118.005 63.2952 116.881 63.8321C116.185 64.208 115.436 64.4764 114.687 64.7449C116.025 64.6375 117.309 64.6375 118.647 64.9059C118.808 64.9596 118.968 65.1207 118.915 65.2818C118.808 65.7113 118.005 65.9798 117.63 66.1945C116.828 66.7314 115.704 66.9462 114.74 67.161C114.633 67.161 114.526 67.2147 114.419 67.2147C114.901 67.4294 115.436 67.6979 115.918 67.9663C116.025 68.02 116.132 68.2348 115.971 68.3422C115.436 68.6643 114.473 68.4496 113.884 68.3959C111.851 68.2885 109.87 67.859 107.783 67.8053C107.088 67.8053 106.231 67.859 105.429 68.02C104.572 68.1274 103.77 68.2885 102.967 68.718Z" fill="#95C125"/>
<path d="M112.546 60.1812C111.048 61.1476 109.603 62.2214 108.158 63.3489C106.392 64.6375 104.947 66.3557 103.074 67.4832C101.736 68.3422 100.398 69.255 99.0068 70.0604C98.6857 70.8657 98.3646 71.6711 98.097 72.4765C99.8096 71.7248 101.469 70.5436 102.646 69.7382C106.446 67.161 109.764 63.8322 112.653 60.2348C112.653 60.2348 112.6 60.1812 112.546 60.1812Z" fill="#AFD076"/>
<path d="M82.631 88.9061C82.8986 88.9598 84.0224 89.8726 84.5041 89.9262C84.1295 89.0135 83.5943 88.047 83.0056 87.188C82.2564 86.0605 81.3467 84.9866 80.4369 84.1276C79.0455 82.839 77.7076 81.443 76.4232 79.9933C75.8345 79.349 75.4064 78.5974 74.8177 78.0067C74.7642 77.9531 74.6572 78.0067 74.6572 78.0067L74.4966 78.1141C74.3896 78.1678 74.3361 78.2752 74.3896 78.3826C74.4966 79.0269 74.6572 79.6712 74.7642 80.3692C74.6037 80.1544 74.4431 79.9396 74.2826 79.7249C73.8009 79.2417 73.2658 78.8121 72.6771 78.4363C72.1955 78.1141 71.2322 77.2014 70.6435 77.4161C70.5365 77.4698 70.4294 77.6309 70.4294 77.7383C70.4294 78.3826 70.7505 78.9195 71.1786 79.5101C70.9646 79.349 70.7505 79.2417 70.4829 79.1343C70.2689 78.9732 70.0013 78.8658 69.7872 78.7584C68.8775 78.3826 67.1114 77.6846 66.2017 78.49C66.1482 78.5437 66.0946 78.651 66.1482 78.7047C66.1482 78.7584 66.2017 78.7584 66.2017 78.8121C66.2552 79.6175 67.165 80.047 67.9677 80.5839C67.7536 80.5839 67.4861 80.5302 67.3255 80.5302C67.272 80.5302 67.165 80.5302 67.1114 80.5302C65.72 80.2081 64.2751 80.2081 63.1513 81.1209C63.0442 81.2282 62.9907 81.443 63.0978 81.5504C63.5794 82.0336 64.5427 81.9799 65.1849 82.141C65.2919 82.141 65.3454 82.1947 65.4525 82.1947C65.1849 82.2484 64.9173 82.3021 64.5962 82.3558C63.954 82.5168 62.7231 82.6779 62.7231 83.4833C62.7231 83.537 62.7231 83.5907 62.7767 83.6443C63.5259 84.0202 64.3821 84.396 65.2919 84.6645C64.7567 84.7719 64.1681 84.8256 63.7935 85.2551C63.7399 85.3625 63.6864 85.4699 63.7935 85.5772C64.8103 86.3826 66.5763 86.7585 67.8071 87.0269C68.6099 87.2417 69.3591 87.4028 70.1619 87.4564C68.824 87.6175 67.5396 87.886 66.3087 88.4766C66.1482 88.5303 66.0411 88.745 66.1482 88.9061C66.3622 89.3356 67.2185 89.3893 67.5931 89.5504C68.5029 89.9262 69.6802 89.8726 70.6435 89.8726C70.7505 89.8726 70.8576 89.8726 71.0181 89.8726C70.59 90.1947 70.1083 90.5705 69.7337 90.9464C69.6267 91.0538 69.5732 91.2685 69.7337 91.3222C70.3759 91.537 71.2322 91.1075 71.8208 90.9464C73.8009 90.4095 75.674 89.5504 77.7076 89.0672C78.4033 88.9061 79.2595 88.7987 80.0623 88.745C80.9185 88.6377 81.7748 88.6377 82.631 88.9061Z" fill="#95C125"/>
<path d="M71.3391 82.5166C73.0516 83.1609 74.7106 83.9126 76.3696 84.6643C78.4032 85.577 80.1692 86.9193 82.2564 87.671C83.8083 88.2079 85.3068 88.8522 86.8587 89.3354C87.3404 90.0334 87.822 90.7851 88.2501 91.5368C86.3771 91.1609 84.504 90.3555 83.1661 89.8186C78.8313 88.1005 74.8712 85.5233 71.2856 82.5703C71.2321 82.5703 71.3391 82.5166 71.3391 82.5166Z" fill="#AFD076"/>
<path d="M73.7473 74.7316C74.0149 74.839 75.0852 75.7517 75.5669 75.8054C75.1923 74.8927 74.7641 73.9262 74.1755 72.9598C73.4798 71.7786 72.6235 70.6511 71.7673 69.792C70.4294 68.396 69.145 66.9464 67.9141 65.4967C67.379 64.8524 67.0043 64.047 66.3622 63.4564C66.3086 63.4027 66.2016 63.4564 66.2016 63.4564L66.0411 63.5638C65.934 63.6175 65.8805 63.7249 65.8805 63.8323C65.9876 64.4766 66.0946 65.1208 66.1481 65.8188C65.9876 65.6041 65.8805 65.3356 65.6665 65.1745C65.1848 64.6913 64.6497 64.2081 64.1145 63.8323C63.6329 63.5101 62.7231 62.5437 62.1344 62.7047C61.9739 62.7584 61.9203 62.8658 61.9203 63.0269C61.8668 63.6712 62.1879 64.2618 62.5625 64.7987C62.3485 64.6376 62.1344 64.5302 61.9203 64.3692C61.7063 64.2081 61.4922 64.1007 61.2246 63.9933C60.3149 63.5638 58.6024 62.8121 57.6926 63.5638C57.6391 63.6175 57.5856 63.7249 57.6391 63.7786C57.6391 63.8323 57.6926 63.8323 57.6926 63.8859C57.7461 64.6913 58.6024 65.1745 59.3516 65.7115C59.1375 65.6578 58.9235 65.6578 58.7094 65.6578C58.6559 65.6578 58.5489 65.6578 58.4953 65.6578C57.1039 65.2819 55.659 65.1745 54.4816 66.0873C54.3746 66.1947 54.3211 66.3558 54.4281 66.5168C54.9098 67 55.8731 67 56.5153 67.2148C56.6223 67.2148 56.6758 67.2685 56.7828 67.2685C56.5153 67.2685 56.1942 67.3222 55.9266 67.3759C55.2844 67.537 54.0535 67.6443 54 68.4497C54 68.5034 54 68.5571 54.0535 68.6108C54.8027 69.0403 55.659 69.4162 56.5153 69.7383C55.9801 69.792 55.3914 69.8457 55.0168 70.2752C54.9633 70.3826 54.9098 70.49 55.0168 70.5974C55.9801 71.4564 57.7461 71.886 58.977 72.2618C59.7262 72.4766 60.5289 72.6913 61.3317 72.7987C59.9938 72.9061 58.7094 73.1209 57.425 73.6578C57.2645 73.7115 57.1574 73.8726 57.2109 74.0873C57.425 74.5168 58.2278 74.6242 58.6024 74.7853C59.5121 75.1611 60.6895 75.2148 61.6528 75.2685C61.7598 75.2685 61.8668 75.2685 62.0274 75.2685C61.5457 75.5907 61.1176 75.9128 60.6895 76.2887C60.5824 76.396 60.5289 76.6108 60.6895 76.6645C61.2782 76.8793 62.2414 76.5034 62.8301 76.396C64.8637 75.9665 66.7903 75.1611 68.7704 74.7853C69.4661 74.6242 70.3223 74.5705 71.1786 74.5705C72.0348 74.4095 72.8911 74.4632 73.7473 74.7316Z" fill="#167A2F"/>
<path d="M62.723 67.8584C64.382 68.6101 65.9875 69.4154 67.6465 70.2745C69.6266 71.2946 71.3391 72.6906 73.4262 73.5497C74.9246 74.194 76.4231 74.8383 77.9215 75.4289C78.4032 76.1806 78.8313 76.9322 79.2594 77.6839C77.4399 77.2544 75.5668 76.3416 74.2289 75.751C70.0012 73.8181 66.1481 71.0799 62.6695 67.9658C62.616 67.9121 62.723 67.8584 62.723 67.8584Z" fill="#56AF35"/>
<path d="M86.4306 69.577C86.3771 69.8455 86.4841 71.2415 86.27 71.7247C85.7349 70.9193 85.1997 69.9529 84.7716 68.9864C84.2364 67.7515 83.7548 66.4092 83.5407 65.1743C83.1661 63.2951 82.738 61.4159 82.2564 59.5367C82.0423 58.7314 81.6142 57.926 81.4536 57.1206C81.4536 57.0669 81.5071 57.0132 81.5606 56.9596L81.7212 56.9059C81.8282 56.8522 81.9353 56.8522 82.0423 56.9596C82.5239 57.3891 83.0056 57.8723 83.4872 58.3018C83.3802 58.0334 83.2732 57.8186 83.2196 57.5502C83.0591 56.8522 83.0056 56.2079 83.0056 55.5099C83.0056 54.9193 82.738 53.6307 83.2732 53.2548C83.3802 53.1475 83.5407 53.2012 83.6478 53.2548C84.1829 53.577 84.504 54.1676 84.7181 54.8119C84.7181 54.5434 84.7181 54.275 84.7716 54.0065C84.7716 53.7381 84.7716 53.4696 84.8251 53.2012C84.9857 52.2347 85.3603 50.4092 86.4841 50.0334C86.5376 50.0334 86.6982 50.0334 86.6982 50.1407C86.6982 50.1944 86.7517 50.1944 86.7517 50.2481C87.3939 50.7314 87.2868 51.7515 87.2868 52.6642C87.3939 52.4495 87.5009 52.2347 87.6079 52.0736C87.6614 52.0199 87.6614 51.9663 87.715 51.8589C88.1966 50.5166 88.9458 49.2817 90.3372 48.7985C90.4978 48.7448 90.6583 48.8522 90.7119 48.9595C90.8189 49.6038 90.2837 50.4092 90.0697 51.0535C90.0161 51.1609 90.0162 51.2146 89.9626 51.322C90.1232 51.1072 90.3372 50.8924 90.5513 50.6777C91.033 50.2481 91.8357 49.2817 92.5314 49.7112C92.5849 49.7112 92.6384 49.8186 92.6384 49.8723C92.5314 50.7314 92.4244 51.6441 92.1568 52.5569C92.5314 52.1273 92.906 51.6978 93.4412 51.6441C93.5482 51.6441 93.7087 51.6978 93.7087 51.8052C93.8693 53.0938 93.1736 54.8119 92.799 55.9931C92.5314 56.7448 92.2638 57.4965 91.8892 58.2482C92.7455 57.228 93.6552 56.2616 94.8326 55.5099C94.9931 55.4025 95.2072 55.4025 95.2607 55.5636C95.4748 55.9931 95.1002 56.7448 95.0466 57.1206C94.8326 58.0871 94.1904 59.0535 93.7087 59.9126C93.6552 60.02 93.6017 60.1274 93.4947 60.2347C94.0298 60.02 94.565 59.8589 95.1002 59.6978C95.2072 59.6441 95.4748 59.7515 95.4212 59.9126C95.2607 60.5569 94.4044 61.0938 93.9763 61.4696C92.4779 62.8656 90.7119 63.9931 89.2669 65.4428C88.7318 65.926 88.1966 66.5703 87.715 67.2683C87.1798 67.9663 86.6982 68.718 86.4306 69.577Z" fill="#95C125"/>
<path d="M87.1263 56.584C86.7517 58.3558 86.5376 60.1813 86.2701 62.0068C85.949 64.2081 86.1095 66.4632 85.6814 68.6108C85.3068 70.2216 85.0392 71.8323 84.6111 73.3894C84.9322 74.1947 85.3068 75.0001 85.6814 75.7518C86.3771 73.98 86.6982 71.9397 86.9658 70.49C87.822 65.9263 87.7685 61.1477 87.2334 56.5303C87.2334 56.5303 87.1263 56.5303 87.1263 56.584Z" fill="#AFD076"/>
<path d="M78.5636 65.1207C78.6172 65.3892 79.3129 66.6241 79.2593 67.161C78.4031 66.6241 77.5468 65.9798 76.7441 65.2818C75.7273 64.3691 74.8175 63.3489 74.0683 62.3288C72.998 60.7717 71.8206 59.2147 70.5898 57.7113C70.0546 57.067 69.3589 56.5301 68.8773 55.8321C68.8238 55.7784 68.8773 55.6711 68.9308 55.6711L69.0378 55.5637C69.0913 55.4563 69.2519 55.4563 69.3589 55.51C69.9476 55.7247 70.5898 55.9395 71.232 56.1543C71.0179 55.9932 70.8574 55.7784 70.6968 55.5637C70.3222 55.0268 69.9476 54.3825 69.68 53.7919C69.4659 53.2549 68.6632 52.1811 68.9843 51.5905C69.0378 51.4831 69.1984 51.4294 69.3589 51.4294C69.9476 51.4831 70.4827 51.9127 71.0179 52.3959C70.9109 52.1811 70.8038 51.9127 70.7503 51.6442C70.6433 51.4294 70.5363 51.161 70.4827 50.8925C70.2152 49.9261 69.8406 48.1006 70.6968 47.2952C70.7503 47.2415 70.8574 47.2415 70.9109 47.2952L70.9644 47.3489C71.7136 47.51 72.0882 48.4764 72.4628 49.3355C72.4628 49.1207 72.5163 48.8522 72.5163 48.6912C72.5163 48.6375 72.5163 48.5301 72.5163 48.4764C72.4093 47.0267 72.5699 45.5771 73.6937 44.6106C73.8007 44.5032 74.0148 44.5032 74.1218 44.6106C74.4964 45.1475 74.3359 46.114 74.3894 46.7583C74.3894 46.8657 74.3894 46.9193 74.4429 47.0267C74.4964 46.7583 74.6035 46.4898 74.7105 46.2214C74.9781 45.6308 75.2992 44.4495 76.1019 44.5032C76.1554 44.5032 76.2089 44.5569 76.2625 44.6106C76.53 45.416 76.7441 46.3287 76.9046 47.2415C77.0652 46.7046 77.2257 46.1677 77.7074 45.8455C77.8144 45.7918 77.975 45.7918 78.0285 45.8992C78.6707 47.0267 78.7777 48.8522 78.8847 50.0871C78.9918 50.8925 78.9918 51.6979 78.9918 52.5033C79.3664 51.2147 79.7945 49.9798 80.5437 48.7985C80.6508 48.6375 80.8113 48.5838 80.9719 48.6912C81.3465 48.9596 81.2929 49.8187 81.4 50.1945C81.614 51.161 81.4 52.2885 81.2929 53.3086C81.2929 53.416 81.2394 53.5234 81.2394 53.6308C81.614 53.2549 82.0422 52.8254 82.4703 52.5033C82.5773 52.3959 82.7914 52.3959 82.8449 52.5569C82.9519 53.2012 82.4168 54.0066 82.1492 54.5972C81.3465 56.4764 80.2226 58.2482 79.4734 60.1811C79.2058 60.8791 78.9382 61.6845 78.8312 62.4899C78.5636 63.3489 78.4566 64.208 78.5636 65.1207Z" fill="#95C125"/>
<path d="M73.908 52.9867C74.2826 54.7585 74.8177 56.5303 75.2994 58.3021C75.9416 60.4498 76.9584 62.4364 77.44 64.584C77.7611 66.1948 78.1357 67.7518 78.4033 69.3626C79.0455 69.9532 79.6877 70.5438 80.3834 71.0807C80.2763 69.2015 79.7412 67.2149 79.4201 65.7653C78.3498 61.2015 76.3697 56.9062 74.015 52.933C73.9615 52.8793 73.908 52.9867 73.908 52.9867Z" fill="#AFD076"/>
<path d="M85.6278 55.2954C85.0926 55.6713 84.6645 56.2082 84.2899 56.6914C84.1294 56.9062 83.9688 57.2283 83.8618 57.5505C83.9688 56.9062 84.1294 56.1545 83.8618 55.5639C83.8083 55.5102 83.8083 55.4028 83.7012 55.4028C83.1126 55.4028 82.7379 56.1545 82.4704 56.584C82.2563 56.9062 82.0958 57.2283 81.9352 57.6042C81.9887 57.282 81.9887 56.9599 81.8282 56.6914C81.7747 56.6377 81.7211 56.584 81.6676 56.6377C80.8114 56.7988 80.1157 58.7317 79.7946 59.4297C79.5805 59.9666 79.42 60.6109 79.3665 61.2552C79.2594 61.0404 79.2059 60.7719 79.0989 60.5572C78.9918 60.2887 78.9918 60.0203 78.7778 59.8592C78.7243 59.8055 78.6707 59.8055 78.6172 59.8592C78.1356 60.4498 78.2961 61.6847 78.2961 62.3827C78.2961 62.8122 78.3496 63.2954 78.5102 63.725C78.5637 63.8324 78.6172 63.9934 78.6707 64.1008C78.2961 63.5639 77.9215 63.027 77.3864 62.6511C77.3329 62.5975 77.2793 62.6511 77.2793 62.7048C77.2793 63.0807 77.4934 63.4028 77.6004 63.725C77.9215 64.6377 78.1356 65.5505 78.2961 66.5169C78.4567 67.376 78.5102 68.2887 78.6707 69.1478C78.7243 69.5773 78.9383 70.4901 78.9383 71.3492C77.761 69.5237 76.5836 67.5908 75.9414 65.4968C75.6203 64.4767 75.6203 63.6176 75.5133 62.5975C75.5133 62.2216 75.4598 60.6109 74.9246 60.4498C74.3895 60.7719 74.2289 61.5773 74.1219 62.3827C73.8008 61.4162 73.4262 60.3961 73.1586 59.4297C73.1586 59.3223 72.9981 59.2149 72.891 59.2686C72.4629 59.4297 72.1953 60.074 72.0883 60.8793C71.8742 60.5035 71.6067 60.1276 71.3391 59.7518C71.0715 59.3223 70.1082 57.8726 69.5731 57.9263C68.9844 57.98 69.0379 58.7317 69.1984 59.537C68.9844 59.2149 68.7168 58.8927 68.5027 58.5706C68.2352 58.1948 67.7535 57.4431 67.3254 57.282C67.2719 57.282 67.2184 57.282 67.1648 57.3357C66.8973 57.6042 66.8973 57.98 67.0578 58.4632C66.6297 57.9263 66.2016 57.3357 65.6129 57.0672C65.5059 57.0135 65.4523 57.0672 65.3988 57.1209C65.1312 57.3894 65.2383 57.8726 65.3988 58.3558C65.0242 57.9263 64.6496 57.6042 64.1679 57.3357C63.9539 57.2283 63.0441 56.6377 63.0441 57.282C63.0441 57.7115 63.5258 58.1948 63.7398 58.5169C63.7398 58.5706 63.7933 58.5706 63.7933 58.6243C63.5793 58.4632 63.3117 58.3558 63.0441 58.3558C62.8836 58.3558 62.7765 58.5706 62.8301 58.7317C62.9906 59.4834 63.6328 60.1813 64.275 60.7719C64.0074 60.6646 63.7933 60.5572 63.5258 60.5572C63.4722 60.5572 63.4187 60.6109 63.4187 60.7183C63.3652 61.2552 63.9004 61.7921 64.2215 62.2216C64.5426 62.6511 64.9172 63.027 65.2918 63.4028C65.3453 63.4565 65.4523 63.5102 65.5594 63.5639C65.0777 63.3491 64.6496 63.027 64.1679 62.9733C64.1144 62.9733 64.1144 62.9733 64.0609 63.027C63.7933 63.3491 64.168 63.725 64.382 63.9934C64.7031 64.4767 65.0777 64.8525 65.4523 65.2283C65.1848 65.121 64.9707 65.0673 64.7031 65.0136C64.6496 65.0136 64.5961 65.0673 64.5961 65.0673C64.1144 65.8189 65.8269 66.9465 66.2551 67.3223C65.5594 66.7317 64.4355 68.6109 64.9172 69.3089C65.1312 69.631 66.3086 69.5773 66.6297 69.631C67.807 69.7921 68.9309 70.0069 70.0547 70.4364C71.1785 70.8659 72.2488 71.2955 73.2656 71.8324C74.0149 72.2619 74.7106 72.7988 75.5668 73.0136C75.7809 73.1747 75.9949 73.282 76.209 73.4431C75.1387 73.4431 74.1219 73.2821 73.1051 72.9599C72.1418 72.6914 71.125 72.423 70.1617 72.1545C69.5195 71.9935 68.8773 71.6176 68.2352 71.4565C68.1816 71.4565 68.1281 71.5102 68.1281 71.5639L68.0746 71.6713C68.0211 71.7787 68.0746 71.8324 68.1281 71.9398C68.4492 72.3156 68.8238 72.7451 69.1984 73.121C68.9844 73.0136 68.8238 72.9599 68.6098 72.9062C68.0746 72.7988 67.5395 72.7451 66.9508 72.6914C66.4691 72.6914 65.4523 72.4767 65.1312 72.8525C65.0777 72.9599 65.0777 73.0673 65.1312 73.1747C65.3988 73.6042 65.8269 73.8727 66.3621 74.0874C66.148 74.0874 65.934 74.0874 65.7199 74.0874C65.5059 74.0874 65.2918 74.0874 65.0777 74.1411C64.275 74.2485 62.8301 74.517 62.509 75.4297C62.509 75.4834 62.509 75.5908 62.5625 75.5908C62.616 75.5908 62.616 75.5908 62.616 75.6445C62.9906 76.1277 63.7933 76.1277 64.5426 76.1277C64.382 76.1814 64.2215 76.2888 64.0609 76.3425C64.0074 76.3962 63.9539 76.3962 63.9004 76.4498C62.8301 76.8257 61.8133 77.4163 61.4386 78.5438C61.3851 78.6512 61.4386 78.8123 61.5992 78.8123C62.1344 78.9196 62.7765 78.4901 63.2582 78.329C63.3117 78.329 63.4187 78.2754 63.4723 78.2754C63.3117 78.4364 63.0976 78.5438 62.9371 78.7049C62.5625 79.0807 61.8133 79.725 62.1344 80.2619C62.1344 80.3156 62.1879 80.3156 62.2414 80.3156C62.9371 80.2619 63.6328 80.1546 64.382 79.9935C64.0609 80.2619 63.6863 80.5841 63.6328 81.0136C63.6328 81.121 63.6863 81.2284 63.7933 81.2284C64.8101 81.3895 66.2016 80.8525 67.1648 80.5841C67.7535 80.423 68.3957 80.1546 68.9844 79.8861C68.1281 80.5841 67.3789 81.2821 66.7367 82.1948C66.6832 82.3022 66.6832 82.4633 66.7902 82.5707C67.1113 82.7854 67.7 82.4633 68.0211 82.4096C68.8238 82.2485 69.5731 81.7653 70.2688 81.3358C70.3758 81.2821 70.4293 81.2284 70.4828 81.1747C70.3223 81.6042 70.1617 82.0338 70.0547 82.4633C70.0012 82.5707 70.0547 82.7317 70.2152 82.7317C70.6969 82.6244 71.1785 81.9264 71.4996 81.6042C72.1953 80.8525 72.677 79.9935 73.3727 79.2418C74.1219 78.3827 75.0852 77.5774 75.995 76.8794C76.7977 76.2888 78.2426 75.5908 79.3129 75.8055C79.3664 75.9666 79.4735 76.074 79.5805 76.1277C79.6875 76.2351 79.7946 76.1277 79.8481 76.0203C80.0622 75.2149 80.0622 74.4633 80.3297 73.6579C80.7043 72.6378 81.5606 71.7787 82.2563 70.9733C82.845 70.2753 83.5407 69.7384 84.1294 69.0404C84.611 68.4498 85.3602 67.8592 85.5743 67.1075C85.5743 67.0002 85.5208 66.7317 85.3602 66.7854C85.0391 66.9465 84.8786 67.2149 84.5575 67.4297C84.2899 67.6445 83.9688 67.8592 83.7012 67.9666C84.0758 67.6981 84.4505 67.4297 84.7715 67.1612C85.3067 66.678 85.7348 66.0874 86.163 65.5505C86.8052 64.7451 87.7149 63.6176 87.9825 62.5438C88.036 62.329 88.0895 61.3626 87.5544 61.631C87.2333 61.7921 86.9657 62.0069 86.6981 62.2753C86.9122 61.7384 87.0727 61.2015 87.1798 60.6646C87.2868 60.1277 87.5544 59.2149 87.2333 58.7317C87.1798 58.678 87.1262 58.678 87.0727 58.678C86.8587 58.8391 86.7516 59.1075 86.5911 59.3223C86.6981 58.8391 86.7516 58.4095 86.8051 57.9263C86.9122 57.1746 87.0727 55.6713 86.6446 54.9733C86.5911 54.4901 85.8954 55.0807 85.6278 55.2954Z" fill="#18993C"/>
<path d="M98.8461 70.2747C98.9531 70.0599 99.2742 68.9861 98.5785 69.2009C98.2039 69.3083 97.8293 69.4693 97.5082 69.7378C97.8293 69.2009 98.1504 68.664 98.418 68.0734C98.6856 67.5364 99.1672 66.6237 98.8996 65.9794C98.8996 65.9257 98.7926 65.872 98.7391 65.9257C98.4715 66.0868 98.2574 66.3015 98.0969 66.5163C98.3109 66.0331 98.4715 65.5499 98.6856 65.0666C98.9531 64.2613 99.4883 62.6505 99.1137 61.8451C98.8461 61.2009 97.9899 61.6841 97.6152 61.8451C96.9731 62.1673 96.3844 62.6505 95.8492 63.0801C95.6352 63.2948 95.4211 63.617 95.1535 63.8854C95.4211 63.1874 95.7422 62.4358 95.5816 61.7378C95.5816 61.6841 95.5281 61.5767 95.4211 61.5767C94.7789 61.4693 94.2437 62.221 93.8156 62.5968C93.4945 62.8653 93.2805 63.2411 93.0129 63.617C93.1199 63.2411 93.2269 62.919 93.0664 62.5968C93.0129 62.4894 92.9594 62.4894 92.9059 62.4894C91.9426 62.4894 90.7652 64.4223 90.2836 65.1203C89.909 65.6572 89.5879 66.3552 89.4273 67.0532C89.3738 66.7848 89.3738 66.5163 89.3203 66.2478C89.2668 65.9257 89.3203 65.6572 89.1597 65.3888C89.1062 65.3351 89.0527 65.3351 88.9992 65.3888C88.357 65.9257 88.25 67.3217 88.0894 68.0734C87.9824 68.5566 87.9289 69.0935 87.9824 69.5767C87.9824 69.7378 88.0359 69.8452 88.0359 70.0062C87.7683 69.3083 87.4472 68.664 86.9656 68.127C86.9121 68.0734 86.8586 68.127 86.805 68.1807C86.698 68.5566 86.9121 68.9861 86.9656 69.3619C87.0726 70.4358 87.1261 71.4559 87.0726 72.5297C87.0726 73.3888 86.9656 74.3016 86.9121 75.1606C86.698 74.2479 86.4304 73.3888 86.4304 72.4761C86.4304 72.0465 85.8418 72.315 85.7882 72.5834C84.825 75.7512 86.0558 78.9727 86.9656 82.0331C87.0191 82.1942 87.2332 82.2479 87.3937 82.1942C88.0359 82.0331 88.25 81.6036 88.6781 81.0667C89.6414 79.8318 91.0328 78.9727 92.2637 78.0063C93.9762 76.664 95.7422 75.4291 97.3477 73.9794C97.5617 73.8183 97.7223 73.2814 97.2406 73.3351C96.759 73.3888 96.2238 73.4962 95.6887 73.6573C95.8492 73.5499 96.0098 73.3888 96.1168 73.2814C97.0801 72.3687 98.3645 71.3485 98.8461 70.2747Z" fill="#067D32"/>
<path d="M88.1965 87.7786C86.1094 87.8323 84.825 84.9329 83.9688 83.3759C82.7914 81.2282 81.7211 79.1343 80.7578 76.9329C78.9383 72.8524 77.2793 68.4497 74.3894 64.9597C74.3359 64.8523 74.1219 65.0134 74.1754 65.1208C75.4598 67.5906 76.1555 70.3826 77.0117 73.0671C77.9215 75.8591 78.9383 78.651 80.1692 81.2819C81.1324 83.3222 85.1996 92.1276 88.3036 88.3692C88.4641 88.1544 88.4641 87.7786 88.1965 87.7786Z" fill="#B1CE55"/>
<path d="M95.2608 63.8861C94.7256 64.0472 94.244 64.3693 93.8159 64.6915C93.6018 64.8525 93.4413 65.0673 93.2272 65.2821C93.4948 64.7452 93.8159 64.2082 93.7088 63.6713C93.7088 63.6176 93.7088 63.5639 93.6018 63.5103C93.1201 63.3492 92.6385 63.8861 92.2639 64.1545C91.9963 64.3693 91.7823 64.5841 91.5682 64.8525C91.6752 64.5841 91.7823 64.3156 91.7287 64.0472C91.7287 63.9935 91.6752 63.9398 91.6217 63.9398C90.8725 63.8861 89.8022 65.2284 89.374 65.7116C89.0529 66.0874 88.7319 66.5707 88.5178 67.1076C88.5178 66.8928 88.5178 66.678 88.5178 66.4633C88.5178 66.2485 88.5713 65.9801 88.4643 65.7653C88.4108 65.7116 88.4108 65.7116 88.3572 65.7653C87.8221 66.1411 87.608 67.1613 87.394 67.7519C87.2869 68.1277 87.1799 68.5572 87.1799 68.9331C87.1799 69.0405 87.1799 69.1479 87.1799 69.3089C87.0193 68.772 86.8588 68.2351 86.5377 67.7519C86.4842 67.6982 86.4307 67.7519 86.4307 67.8056C86.3236 68.074 86.4307 68.4499 86.4307 68.7183C86.4307 69.5237 86.3772 70.3828 86.2701 71.1881C86.1631 71.9398 86.0025 72.6915 85.8955 73.4432C85.842 73.819 85.735 74.6244 85.5744 75.3224C85.0928 73.4969 84.6646 71.6177 84.6646 69.7385C84.6646 68.8257 84.8787 68.074 85.0928 67.215C85.1463 66.8928 85.5744 65.5505 85.1463 65.2821C84.6111 65.3895 84.2365 66.0337 84.0225 66.6244C84.0225 65.7116 83.9689 64.8525 84.0225 63.9398C84.0225 63.8324 83.9689 63.725 83.8619 63.725C83.4873 63.725 83.0592 64.2082 82.7916 64.8525C82.6846 64.4767 82.5775 64.1009 82.4705 63.725C82.3635 63.2955 81.9353 61.8995 81.5072 61.7384C81.0256 61.6311 80.865 62.2753 80.8115 62.9733C80.7045 62.6512 80.5974 62.329 80.4904 62.0069C80.3834 61.6311 80.1693 60.8794 79.8482 60.6109C79.7947 60.5572 79.7412 60.6109 79.6877 60.6109C79.4201 60.772 79.3131 61.0941 79.2596 61.5237C79.0455 60.9868 78.8314 60.3425 78.4568 59.9666C78.4033 59.9129 78.3498 59.9129 78.2428 59.9666C77.9752 60.1277 77.8681 60.5572 77.9217 60.9868C77.7611 60.5572 77.4935 60.1277 77.226 59.8055C77.0654 59.6445 76.4767 58.9465 76.3162 59.4834C76.2092 59.8055 76.4767 60.3962 76.5838 60.6646C76.5838 60.7183 76.5838 60.7183 76.6373 60.772C76.4767 60.6109 76.3162 60.3962 76.1021 60.3425C75.9416 60.2888 75.8345 60.4498 75.8345 60.6109C75.781 61.2552 76.1021 62.0069 76.5302 62.6512C76.3697 62.4901 76.1556 62.329 75.9416 62.2753C75.8881 62.2753 75.8345 62.329 75.8345 62.3827C75.6205 62.8123 75.9416 63.4029 76.1021 63.8324C76.2627 64.2619 76.4232 64.6915 76.6908 65.121C76.7443 65.1747 76.7978 65.2821 76.8513 65.3358C76.5302 65.0673 76.2092 64.6915 75.8881 64.4767C75.8881 64.4767 75.8345 64.4767 75.781 64.4767C75.5134 64.6915 75.674 65.0673 75.781 65.3358C75.9416 65.819 76.1021 66.2485 76.3162 66.6244C76.1556 66.4633 75.9416 66.3559 75.781 66.2485C75.7275 66.2485 75.674 66.2485 75.674 66.2485C75.0853 66.7317 76.2091 68.1277 76.4767 68.5572C76.0486 67.9129 74.6037 69.1479 74.8713 69.8458C74.9783 70.168 75.9416 70.4364 76.2091 70.5438C77.1189 70.9734 77.9752 71.4566 78.8314 72.1009C79.6342 72.7452 80.4369 73.3895 81.0791 74.0875C81.5607 74.6244 82.0424 75.2687 82.631 75.6445C82.7916 75.8056 82.8986 75.9667 83.0592 76.1277C82.2029 75.8056 81.4002 75.4297 80.651 74.8928C79.9553 74.4096 79.206 73.9801 78.4568 73.4969C77.9752 73.1747 77.547 72.6915 77.0654 72.423C77.0119 72.423 76.9584 72.423 76.9584 72.4767L76.8513 72.5841C76.7978 72.6378 76.7978 72.7452 76.7978 72.7989C76.9584 73.2284 77.1724 73.6579 77.3865 74.0338C77.226 73.9264 77.1189 73.7653 76.9584 73.7116C76.5302 73.4969 76.1021 73.2821 75.674 73.121C75.2994 73.0136 74.4966 72.5304 74.122 72.7452C74.015 72.7989 74.015 72.9063 74.015 73.0136C74.122 73.4432 74.4431 73.7653 74.8177 74.0875C74.6572 74.0338 74.4966 73.9801 74.2826 73.9264C74.122 73.8727 73.908 73.819 73.7474 73.819C73.0517 73.7116 71.7673 73.5505 71.2857 74.1948C71.2322 74.2485 71.2322 74.3022 71.2857 74.3559L71.3392 74.4096C71.4998 74.9465 72.1955 75.1076 72.7841 75.3224C72.6236 75.3224 72.463 75.3761 72.356 75.3761C72.3025 75.3761 72.249 75.3761 72.1955 75.4297C71.2322 75.4297 70.2154 75.6445 69.6267 76.5036C69.5732 76.611 69.5732 76.7183 69.6802 76.772C70.1083 76.9868 70.7505 76.8257 71.1787 76.8257C71.2322 76.8257 71.2857 76.8257 71.3392 76.8257C71.1787 76.8794 70.9646 76.9868 70.8041 77.0405C70.4294 77.2553 69.6267 77.5774 69.7337 78.1143C69.7337 78.168 69.7872 78.2217 69.7872 78.2217C70.3759 78.3828 71.0181 78.4365 71.6068 78.4902C71.2322 78.6512 70.9111 78.8123 70.697 79.1345C70.6435 79.1881 70.697 79.2955 70.7505 79.3492C71.5533 79.7251 72.7841 79.6714 73.6939 79.6714C74.2291 79.6714 74.8177 79.6714 75.3529 79.6177C74.4966 79.9398 73.6404 80.3157 72.9447 80.96C72.8377 81.0137 72.7841 81.1747 72.8912 81.2821C73.1052 81.5506 73.6939 81.4432 73.9615 81.4969C74.6572 81.6043 75.4064 81.3895 76.1021 81.2284C76.1556 81.2284 76.2627 81.1747 76.3162 81.1747C76.0486 81.4969 75.8345 81.7653 75.6205 82.0875C75.567 82.1412 75.567 82.3023 75.674 82.3559C76.1021 82.4096 76.6373 81.9801 77.0119 81.7653C77.7611 81.3358 78.4033 80.7452 79.1525 80.3157C80.0088 79.8324 80.9721 79.4029 81.9353 79.0808C82.7381 78.8123 84.1295 78.6512 84.9322 79.0808C84.9322 79.2418 84.9857 79.3492 85.0393 79.4566C85.0928 79.564 85.2533 79.5103 85.3068 79.4029C85.6814 78.8123 85.8955 78.168 86.3236 77.5774C86.9123 76.8257 87.8221 76.3425 88.6248 75.8593C89.267 75.4834 90.0162 75.1613 90.6584 74.7318C91.1936 74.4096 91.9963 74.0875 92.3174 73.4969C92.3709 73.3895 92.3709 73.1747 92.2104 73.1747C91.8893 73.2284 91.6752 73.3895 91.4076 73.4969C91.1401 73.6042 90.819 73.7116 90.5514 73.7116C90.926 73.6042 91.3006 73.4969 91.6217 73.3358C92.1569 73.0673 92.692 72.6915 93.1737 72.3693C93.9229 71.8324 94.9932 71.1881 95.4748 70.3828C95.5819 70.2217 95.903 69.4163 95.3678 69.5237C95.1002 69.5774 94.7791 69.6848 94.5116 69.8458C94.8327 69.47 95.1002 69.0942 95.3143 68.6646C95.5284 68.2351 96.01 67.5908 95.903 67.1076C95.903 67.0539 95.8495 67.0002 95.7959 67.0539C95.5819 67.1613 95.4213 67.3223 95.2073 67.4834C95.4213 67.1076 95.5819 66.7854 95.7424 66.4096C96.01 65.819 96.5452 64.6378 96.3846 63.9398C96.2776 63.5103 95.5819 63.7787 95.2608 63.8861Z" fill="#56AF35"/>
<path d="M91.8357 84.8795C91.6751 85.0942 91.4076 86.4902 91.0329 86.8661C90.7654 85.8996 90.5513 84.8795 90.4443 83.8056C90.2837 82.4634 90.2837 81.0674 90.4443 79.8325C90.6583 77.9533 90.8189 76.0204 90.9259 74.0875C90.9794 73.2284 90.7654 72.3694 90.9259 71.5103C90.9259 71.4566 91.0329 71.4029 91.0865 71.4029H91.247C91.354 71.4029 91.4611 71.4566 91.5146 71.564C91.8357 72.1009 92.1568 72.7452 92.4779 73.3358C92.4243 73.0674 92.4243 72.7989 92.4779 72.5305C92.5314 71.8325 92.6919 71.1882 92.906 70.4902C93.0665 69.9533 93.2271 68.611 93.8158 68.3962C93.9228 68.3425 94.0833 68.3962 94.1904 68.5036C94.6185 68.9868 94.7255 69.6311 94.7255 70.3291C94.779 70.0606 94.8861 69.8459 94.9931 69.5774C95.1001 69.309 95.1537 69.0942 95.3142 68.8257C95.7958 67.9667 96.7056 66.3022 97.883 66.3022C97.9365 66.3022 98.0435 66.3559 98.0435 66.4633C98.0435 66.517 98.0435 66.517 98.0435 66.5707C98.4716 67.215 98.097 68.1278 97.8294 69.0405C97.99 68.8794 98.1505 68.7184 98.3111 68.5573C98.3646 68.5036 98.4181 68.4499 98.4716 68.3962C99.3279 67.2687 100.452 66.3022 101.897 66.3022C102.057 66.3022 102.218 66.4096 102.164 66.5707C102.057 67.215 101.308 67.8593 100.933 68.3425C100.88 68.3962 100.826 68.5036 100.773 68.5573C100.987 68.3962 101.254 68.2351 101.522 68.1278C102.111 67.8593 103.128 67.215 103.716 67.8056C103.77 67.8593 103.77 67.913 103.77 67.9667C103.449 68.7721 103.02 69.5774 102.485 70.3291C102.967 70.0606 103.449 69.7385 103.984 69.8459C104.091 69.8459 104.198 69.9533 104.198 70.1143C103.93 71.4029 102.806 72.7989 102.057 73.819C101.576 74.4633 101.094 75.1076 100.505 75.6982C101.629 75.0003 102.806 74.356 104.144 73.9801C104.305 73.9264 104.519 73.9801 104.519 74.1949C104.626 74.6781 104.037 75.2687 103.823 75.5909C103.342 76.4499 102.432 77.2016 101.683 77.8459C101.576 77.8996 101.522 78.007 101.415 78.0607C101.95 78.007 102.539 78.007 103.074 78.0607C103.235 78.0607 103.395 78.2217 103.288 78.3291C102.967 78.866 101.95 79.1345 101.415 79.403C99.542 80.262 97.5619 80.7989 95.6888 81.7654C95.0466 82.0875 94.3509 82.5171 93.6552 83.054C93.013 83.5909 92.3708 84.1278 91.8357 84.8795Z" fill="#95C125"/>
<path d="M96.4379 72.7449C95.5282 74.3556 94.779 75.9663 93.9762 77.6308C93.0129 79.6174 92.4778 81.8187 91.3539 83.7516C90.5512 85.1476 89.7485 86.5972 88.8922 87.9932C88.9457 88.8523 89.1063 89.7113 89.2133 90.5704C90.3907 89.067 91.3004 87.2415 92.0496 85.9529C94.2973 81.8724 95.6352 77.3086 96.545 72.7449C96.545 72.6912 96.4915 72.6912 96.4379 72.7449Z" fill="#AFD076"/>
<path d="M113.403 87.4563C113.135 87.5637 112.118 88.4228 111.637 88.4228C111.958 87.5637 112.439 86.6509 112.974 85.7919C113.67 84.718 114.473 83.6442 115.276 82.8388C116.56 81.5503 117.791 80.208 118.968 78.8657C119.503 78.2751 119.878 77.5234 120.467 76.9328C120.52 76.8791 120.574 76.9328 120.627 76.9328L120.788 77.0402C120.895 77.0939 120.948 77.2012 120.895 77.3086C120.788 77.8992 120.681 78.5435 120.574 79.1878C120.734 78.9731 120.841 78.7583 121.002 78.5972C121.484 78.114 121.965 77.7382 122.5 77.3623C122.928 77.0402 123.838 76.1811 124.427 76.3422C124.534 76.3959 124.641 76.5033 124.641 76.6643C124.694 77.2549 124.373 77.7919 123.999 78.3288C124.213 78.1677 124.427 78.0603 124.641 77.9529C124.855 77.8455 125.069 77.6845 125.283 77.5771C126.139 77.2012 127.745 76.5033 128.655 77.2012C128.708 77.2549 128.762 77.3623 128.708 77.416C128.708 77.416 128.655 77.4697 128.655 77.5234C128.601 78.2751 127.798 78.7046 127.049 79.2415C127.263 79.1878 127.477 79.1878 127.691 79.1878C127.745 79.1878 127.852 79.1878 127.905 79.1878C129.19 78.8657 130.581 78.812 131.652 79.6711C131.759 79.7784 131.812 79.9395 131.705 80.0469C131.277 80.4764 130.367 80.4764 129.725 80.6375C129.618 80.6375 129.564 80.6912 129.511 80.6912C129.778 80.6912 130.046 80.7449 130.314 80.7986C130.902 80.9596 132.08 81.067 132.133 81.8187C132.133 81.8724 132.133 81.9261 132.08 81.9798C131.384 82.3556 130.581 82.7315 129.725 82.9999C130.26 83.0536 130.795 83.161 131.116 83.5368C131.17 83.6442 131.223 83.7516 131.116 83.8053C130.207 84.6107 128.494 84.9865 127.37 85.3087C126.621 85.5234 125.872 85.6845 125.176 85.7919C126.407 85.9529 127.638 86.1677 128.869 86.6509C129.029 86.7046 129.136 86.8657 129.029 87.0268C128.815 87.4563 128.066 87.51 127.691 87.6711C126.835 88.0469 125.711 88.0469 124.801 88.0469C124.694 88.0469 124.587 88.0469 124.48 88.0469C124.909 88.3691 125.337 88.6912 125.711 89.0134C125.818 89.1207 125.872 89.2818 125.711 89.3892C125.123 89.604 124.266 89.2281 123.731 89.0671C121.858 88.5838 120.039 87.8322 118.166 87.4563C117.47 87.2952 116.721 87.2415 115.918 87.2415C115.062 87.1879 114.205 87.1879 113.403 87.4563Z" fill="#95C125"/>
<path d="M123.892 81.1743C122.286 81.8186 120.788 82.5703 119.236 83.322C117.363 84.2347 115.704 85.577 113.724 86.3287C112.279 86.8656 110.887 87.5099 109.442 87.9931C109.014 88.6911 108.586 89.3891 108.158 90.0871C109.924 89.7113 111.637 88.8522 112.921 88.3153C116.935 86.5972 120.627 84.0737 123.945 81.228C123.999 81.228 123.945 81.1743 123.892 81.1743Z" fill="#AFD076"/>
<path d="M121.484 73.8726C121.216 73.98 120.253 74.8927 119.771 74.9464C120.092 74.0874 120.52 73.1209 121.002 72.2618C121.644 71.1343 122.393 70.0605 123.196 69.2014C124.427 67.8591 125.604 66.4632 126.728 65.0672C127.21 64.4229 127.584 63.6712 128.119 63.0806C128.173 63.0269 128.227 63.0806 128.28 63.0806L128.441 63.1343C128.548 63.188 128.601 63.2954 128.601 63.4028C128.548 63.9934 128.441 64.6377 128.387 65.282C128.494 65.0672 128.655 64.8524 128.815 64.6377C129.243 64.1544 129.725 63.7249 130.26 63.3491C130.688 63.0269 131.544 62.1142 132.133 62.2752C132.24 62.3289 132.347 62.4363 132.347 62.5437C132.401 63.1343 132.133 63.7249 131.759 64.2618C131.973 64.1007 132.133 63.9934 132.347 63.8323C132.561 63.6712 132.775 63.5638 132.989 63.4564C133.846 63.0269 135.451 62.2752 136.307 62.9732C136.361 63.0269 136.414 63.1343 136.361 63.188C136.361 63.2417 136.307 63.2417 136.307 63.2954C136.307 64.0471 135.505 64.5303 134.755 65.0672C134.969 65.0135 135.184 65.0135 135.398 64.9598C135.451 64.9598 135.558 64.9598 135.612 64.9598C136.896 64.584 138.287 64.4229 139.411 65.282C139.518 65.3893 139.572 65.5504 139.465 65.6578C139.037 66.141 138.127 66.141 137.538 66.3558C137.431 66.3558 137.378 66.4095 137.324 66.4095C137.592 66.4095 137.859 66.4632 138.127 66.5169C138.716 66.6242 139.893 66.7316 140 67.4833C140 67.537 140 67.5907 139.946 67.6444C139.251 68.0739 138.448 68.4498 137.645 68.7719C138.18 68.8256 138.716 68.8793 139.09 69.2551C139.144 69.3088 139.197 69.4699 139.09 69.5236C138.18 70.329 136.521 70.8122 135.398 71.188C134.702 71.4028 133.953 71.6175 133.203 71.7786C134.434 71.886 135.719 71.9934 136.896 72.4766C137.057 72.5303 137.164 72.6914 137.11 72.8524C136.95 73.282 136.147 73.3894 135.772 73.5504C134.916 73.9263 133.846 73.98 132.882 74.0874C132.775 74.0874 132.668 74.0874 132.561 74.0874C132.989 74.3558 133.471 74.678 133.846 75.0001C133.953 75.1075 134.006 75.2686 133.846 75.3759C133.257 75.5907 132.401 75.2686 131.866 75.1612C129.939 74.7853 128.119 74.0874 126.193 73.7652C125.497 73.6578 124.748 73.6041 123.945 73.6041C123.089 73.5504 122.286 73.6041 121.484 73.8726Z" fill="#167A2F"/>
<path d="M131.651 67.1611C130.1 67.8591 128.601 68.7182 127.103 69.5236C125.283 70.5437 123.678 71.886 121.751 72.745C120.36 73.3893 118.968 74.0336 117.523 74.6242C117.095 75.3222 116.721 76.0739 116.346 76.7719C118.058 76.2887 119.771 75.4296 121.055 74.7853C125.016 72.9061 128.548 70.1679 131.759 67.2148C131.812 67.2148 131.705 67.1611 131.651 67.1611Z" fill="#56AF35"/>
<path d="M109.389 69.309C109.496 69.5775 109.335 70.9197 109.603 71.2956C110.138 70.4902 110.566 69.6311 110.994 68.6647C111.476 67.4835 111.851 66.1949 112.065 65.0674C112.332 63.2956 112.761 61.5237 113.189 59.7519C113.349 58.9465 113.777 58.2486 113.884 57.4432C113.884 57.3895 113.831 57.3358 113.777 57.2821L113.617 57.2284C113.51 57.1747 113.403 57.2284 113.296 57.2821C112.868 57.7116 112.439 58.1949 111.958 58.6244C112.065 58.4096 112.172 58.1412 112.172 57.9264C112.279 57.2821 112.332 56.6378 112.332 55.9935C112.332 55.4566 112.546 54.2217 112.065 53.8459C111.958 53.7385 111.797 53.7922 111.69 53.8459C111.209 54.168 110.941 54.7586 110.673 55.3492C110.673 55.0808 110.673 54.866 110.62 54.5975C110.62 54.3291 110.566 54.1143 110.513 53.8459C110.352 52.9331 109.924 51.215 108.854 50.8928C108.8 50.8928 108.693 50.8928 108.64 51.0002C108.64 51.0539 108.64 51.0539 108.586 51.1076C107.998 51.5908 108.105 52.5036 108.105 53.4163C107.998 53.2016 107.891 53.0405 107.784 52.8794C107.73 52.8257 107.73 52.772 107.677 52.7183C107.195 51.4297 106.446 50.3022 105.108 49.9264C104.947 49.8727 104.787 49.9801 104.787 50.0875C104.68 50.7318 105.215 51.4834 105.429 52.0204C105.482 52.074 105.482 52.1814 105.536 52.2351C105.375 52.0204 105.161 51.8593 105.001 51.6445C104.519 51.215 103.77 50.3559 103.128 50.7855C103.074 50.7855 103.021 50.8928 103.074 50.9465C103.181 51.7519 103.342 52.611 103.609 53.47C103.235 53.0942 102.914 52.6647 102.378 52.611C102.271 52.611 102.164 52.6647 102.164 52.772C102.057 54.0069 102.7 55.564 103.128 56.6915C103.395 57.3895 103.663 58.0875 104.037 58.7855C103.181 57.819 102.325 56.96 101.201 56.262C101.041 56.1546 100.88 56.2083 100.773 56.3157C100.559 56.6915 100.934 57.3895 101.041 57.7653C101.255 58.6781 101.897 59.5908 102.378 60.3425C102.432 60.4499 102.485 60.5036 102.593 60.611C102.111 60.4499 101.576 60.2351 101.094 60.1278C100.987 60.0741 100.773 60.1815 100.826 60.3425C100.987 60.9331 101.79 61.4164 102.218 61.7922C103.663 63.0808 105.322 64.1009 106.767 65.4432C107.248 65.9264 107.784 66.517 108.265 67.1613C108.64 67.8056 109.121 68.5036 109.389 69.309Z" fill="#95C125"/>
<path d="M108.426 57.1208C108.8 58.7853 109.068 60.5034 109.335 62.2215C109.656 64.2618 109.549 66.4095 110.085 68.4497C110.459 69.9531 110.78 71.4564 111.208 72.9598C110.887 73.7115 110.566 74.4632 110.245 75.2148C109.549 73.5504 109.228 71.6712 108.907 70.2752C107.997 65.9799 107.944 61.5235 108.319 57.1208C108.319 57.0671 108.426 57.0671 108.426 57.1208Z" fill="#AFD076"/>
<path d="M116.721 64.9599C116.667 65.2283 116.025 66.4095 116.078 66.8928C116.881 66.3558 117.63 65.7652 118.38 65.0672C119.343 64.1545 120.199 63.188 120.841 62.2216C121.805 60.7182 122.928 59.2686 123.999 57.8189C124.48 57.1746 125.123 56.6914 125.551 55.9934C125.604 55.9397 125.551 55.886 125.497 55.8323L125.39 55.7249C125.337 55.6712 125.176 55.6176 125.122 55.6712C124.534 55.886 123.945 56.1008 123.356 56.3155C123.517 56.1545 123.731 55.9934 123.838 55.7786C124.213 55.2417 124.534 54.6511 124.748 54.0605C124.962 53.5773 125.658 52.5035 125.337 51.9665C125.283 51.8592 125.123 51.8055 125.015 51.8055C124.427 51.8592 123.945 52.2887 123.517 52.7719C123.624 52.5571 123.678 52.3424 123.785 52.0739C123.892 51.8592 123.945 51.5907 123.999 51.3759C124.213 50.4632 124.534 48.7451 123.678 47.9934C123.624 47.9397 123.517 47.9397 123.464 47.9934L123.41 48.0471C122.714 48.2618 122.393 49.1209 122.072 49.98C122.072 49.7652 122.019 49.5504 122.019 49.3357C122.019 49.282 122.019 49.1746 121.965 49.1209C122.019 47.7786 121.805 46.3826 120.788 45.5236C120.681 45.4162 120.467 45.4162 120.413 45.5773C120.038 46.1142 120.253 47.0269 120.199 47.6175C120.199 47.7249 120.199 47.7786 120.199 47.886C120.146 47.6175 120.038 47.3491 119.931 47.1343C119.664 46.5974 119.343 45.4699 118.54 45.5236C118.487 45.5236 118.433 45.5773 118.433 45.631C118.219 46.3826 118.005 47.2417 117.898 48.1008C117.737 47.6175 117.577 47.0806 117.095 46.8122C116.988 46.7585 116.881 46.7585 116.828 46.8659C116.239 47.9397 116.185 49.6578 116.132 50.839C116.078 51.5907 116.078 52.3424 116.078 53.0941C115.704 51.9128 115.276 50.7316 114.526 49.6578C114.419 49.5504 114.259 49.443 114.098 49.5504C113.724 49.8189 113.831 50.6243 113.724 51.0001C113.563 51.9128 113.724 52.9867 113.884 53.8994C113.884 54.0068 113.938 54.1142 113.938 54.2216C113.563 53.8457 113.188 53.4699 112.76 53.2014C112.653 53.1478 112.439 53.0941 112.439 53.2551C112.332 53.8457 112.867 54.6511 113.135 55.1343C113.938 56.9062 115.062 58.5169 115.811 60.3424C116.078 60.9867 116.346 61.7384 116.506 62.4901C116.667 63.2954 116.828 64.1008 116.721 64.9599Z" fill="#95C125"/>
<path d="M120.788 53.4158C120.467 55.0802 120.039 56.7983 119.557 58.4091C119.022 60.4494 118.059 62.3286 117.684 64.4225C117.416 65.9259 117.095 67.4292 116.881 68.9863C116.293 69.5769 115.704 70.1138 115.062 70.6507C115.115 68.8789 115.543 66.9997 115.864 65.6037C116.774 61.3084 118.54 57.1742 120.681 53.3621C120.734 53.3084 120.841 53.3621 120.788 53.4158Z" fill="#AFD076"/>
<path d="M109.817 55.8316C110.299 56.1538 110.727 56.6907 111.101 57.1202C111.262 57.335 111.369 57.6034 111.53 57.9256C111.369 57.2813 111.208 56.637 111.476 56.0464C111.476 55.9927 111.53 55.939 111.637 55.939C112.225 55.939 112.546 56.637 112.867 57.0128C113.082 57.2813 113.242 57.6034 113.349 57.9793C113.296 57.6571 113.296 57.335 113.456 57.1202C113.51 57.0665 113.563 57.0128 113.617 57.0665C114.419 57.2276 115.115 58.9994 115.436 59.6437C115.65 60.1269 115.864 60.7712 115.864 61.3618C115.918 61.1471 116.025 60.9323 116.078 60.7175C116.185 60.4491 116.132 60.1806 116.346 60.0195C116.399 59.9659 116.453 59.9659 116.453 60.0195C116.935 60.5565 116.828 61.7377 116.828 62.4357C116.828 62.8652 116.774 63.2947 116.667 63.7243C116.614 63.8316 116.614 63.939 116.507 64.1001C116.828 63.5632 117.202 63.08 117.684 62.7041C117.737 62.6504 117.791 62.7041 117.791 62.7578C117.791 63.08 117.577 63.4021 117.523 63.7243C117.256 64.5833 117.095 65.4424 116.935 66.3551C116.828 67.1605 116.774 68.0196 116.614 68.8786C116.56 69.2545 116.399 70.1672 116.399 70.9726C117.47 69.2008 118.487 67.3753 119.075 65.3887C119.343 64.4222 119.343 63.6169 119.396 62.5967C119.396 62.2746 119.396 60.7175 119.932 60.5565C120.413 60.8249 120.627 61.6303 120.734 62.3283C121.002 61.4155 121.323 60.4491 121.537 59.5363C121.537 59.4289 121.644 59.3753 121.751 59.3753C122.179 59.4826 122.447 60.1269 122.554 60.8786C122.768 60.5028 122.982 60.1269 123.196 59.8048C123.464 59.3753 124.32 58.033 124.855 58.033C125.39 58.033 125.39 58.7846 125.23 59.5363C125.444 59.2142 125.658 58.9457 125.872 58.6236C126.139 58.2477 126.514 57.5497 126.942 57.3887C126.996 57.3887 127.049 57.3887 127.103 57.4424C127.317 57.6571 127.37 58.0867 127.263 58.5162C127.638 58.033 128.066 57.4424 128.601 57.1739C128.655 57.1202 128.762 57.1739 128.815 57.2276C129.083 57.4961 129.029 57.9256 128.815 58.4088C129.136 58.033 129.511 57.6571 129.939 57.4424C130.153 57.335 130.956 56.7444 131.009 57.3887C131.063 57.8182 130.581 58.3014 130.367 58.5699C130.367 58.5699 130.314 58.6236 130.314 58.6773C130.528 58.5162 130.795 58.4088 131.009 58.4088C131.17 58.4088 131.277 58.6236 131.223 58.731C131.063 59.4289 130.474 60.1269 129.885 60.6638C130.1 60.5565 130.367 60.4491 130.581 60.4491C130.635 60.4491 130.688 60.5028 130.688 60.5565C130.742 61.0934 130.26 61.5766 129.993 61.9524C129.671 62.382 129.404 62.7578 129.029 63.1337C128.976 63.1873 128.869 63.241 128.815 63.2947C129.243 63.08 129.671 62.8115 130.1 62.7041C130.153 62.7041 130.153 62.7041 130.207 62.7578C130.474 63.08 130.1 63.4021 129.939 63.6706C129.671 64.1001 129.297 64.5296 128.976 64.8518C129.19 64.7444 129.457 64.6907 129.671 64.637C129.725 64.637 129.778 64.637 129.778 64.6907C130.26 65.3887 128.655 66.5162 128.226 66.8384C128.869 66.3014 129.993 68.0196 129.564 68.6639C129.35 68.986 128.28 68.9323 127.905 68.986C126.782 69.1471 125.765 69.4155 124.694 69.7914C123.678 70.2209 122.661 70.6504 121.698 71.1874C121.002 71.6169 120.36 72.1001 119.557 72.3686C119.343 72.5296 119.129 72.637 118.915 72.7444C119.932 72.6907 120.841 72.5296 121.805 72.2075C122.714 71.8854 123.624 71.6706 124.534 71.4021C125.123 71.1874 125.711 70.8652 126.353 70.7041C126.407 70.7041 126.46 70.7578 126.46 70.7578L126.514 70.8652C126.567 70.9189 126.514 71.0263 126.46 71.08C126.139 71.4558 125.818 71.8317 125.497 72.2075C125.658 72.1001 125.872 72.0464 126.032 71.9927C126.514 71.8854 127.049 71.778 127.584 71.778C128.012 71.778 128.976 71.5095 129.297 71.8854C129.35 71.9927 129.35 72.1001 129.297 72.2075C129.083 72.637 128.655 72.8518 128.173 73.0666C128.387 73.0666 128.548 73.0666 128.762 73.0666C128.976 73.0666 129.136 73.0666 129.35 73.1203C130.1 73.2276 131.491 73.4424 131.812 74.2478C131.812 74.3015 131.812 74.4088 131.759 74.4088C131.759 74.4088 131.705 74.4088 131.705 74.4625C131.384 74.9458 130.635 74.9458 129.885 74.9458C130.046 74.9995 130.207 75.1068 130.314 75.1605C130.367 75.1605 130.421 75.2142 130.474 75.2142C131.491 75.5364 132.454 76.0733 132.829 77.0934C132.882 77.2008 132.829 77.3619 132.722 77.3619C132.24 77.4693 131.598 77.0934 131.116 76.986C131.063 76.986 131.009 76.9323 130.902 76.9323C131.063 77.0397 131.223 77.2008 131.384 77.3619C131.759 77.684 132.454 78.2746 132.187 78.8115C132.187 78.8652 132.133 78.8652 132.08 78.8652C131.437 78.8115 130.742 78.7579 130.046 78.5968C130.367 78.8652 130.688 79.1337 130.795 79.5632C130.795 79.6706 130.742 79.7243 130.688 79.778C129.725 79.9391 128.441 79.5095 127.531 79.2411C126.942 79.08 126.353 78.8652 125.818 78.6505C126.621 79.2411 127.37 79.9391 127.959 80.7981C128.012 80.9055 128.012 81.0666 127.905 81.1203C127.584 81.335 127.049 81.0129 126.728 81.0129C125.979 80.9055 125.23 80.4223 124.587 80.1001C124.534 80.0464 124.427 79.9928 124.373 79.9391C124.534 80.3149 124.694 80.7444 124.855 81.1203C124.908 81.2277 124.855 81.3887 124.694 81.335C124.213 81.2277 123.785 80.6371 123.464 80.3149C122.821 79.6706 122.34 78.8115 121.644 78.1136C120.895 77.3619 119.985 76.6102 119.129 75.9659C118.38 75.429 116.935 74.8384 115.971 75.0531C115.918 75.2142 115.811 75.3216 115.757 75.3753C115.65 75.4827 115.543 75.3753 115.49 75.2679C115.276 74.5162 115.276 73.7646 114.955 73.0129C114.58 72.0464 113.724 71.2411 113.081 70.4894C112.493 69.8451 111.851 69.3619 111.262 68.7176C110.78 68.1806 110.031 67.6437 109.871 66.892C109.871 66.7847 109.871 66.5162 110.031 66.5699C110.352 66.6773 110.513 66.9457 110.78 67.1605C111.048 67.3753 111.315 67.5363 111.583 67.6437C111.208 67.3753 110.887 67.1605 110.566 66.892C110.085 66.4625 109.656 65.9256 109.228 65.3887C108.586 64.637 107.676 63.5632 107.409 62.5967C107.355 62.382 107.248 61.4692 107.783 61.7377C108.051 61.8987 108.372 62.1135 108.586 62.3283C108.372 61.8451 108.212 61.3618 108.105 60.8249C107.998 60.3417 107.73 59.4826 107.997 58.9994C107.997 58.9457 108.105 58.9457 108.158 58.9457C108.319 59.1068 108.479 59.3216 108.64 59.5363C108.533 59.1068 108.426 58.6773 108.372 58.2477C108.265 57.5497 108.051 56.1001 108.479 55.4558C108.907 55.1336 109.549 55.6169 109.817 55.8316Z" fill="#18993C"/>
<path d="M97.669 70.275C97.562 70.0603 97.2409 69.0938 97.8831 69.2549C98.2577 69.3623 98.5788 69.5234 98.8999 69.7381C98.5788 69.2549 98.2577 68.7717 98.0437 68.2348C97.7761 67.6978 97.2944 66.8388 97.5085 66.2482C97.5085 66.1945 97.6155 66.1408 97.669 66.1945C97.8831 66.3556 98.0972 66.5166 98.3112 66.7314C98.0972 66.3019 97.9366 65.8186 97.7226 65.3354C97.455 64.5837 96.9198 63.0804 97.2409 62.275C97.455 61.6844 98.3112 62.0602 98.6858 62.275C99.2745 62.5435 99.8632 62.973 100.345 63.4025C100.559 63.5636 100.773 63.8858 100.987 64.1542C100.719 63.5099 100.398 62.8119 100.559 62.1676C100.559 62.1139 100.612 62.0066 100.666 62.0066C101.308 61.8992 101.79 62.5435 102.218 62.9193C102.539 63.1878 102.753 63.5099 102.967 63.8321C102.86 63.5099 102.753 63.1878 102.86 62.8656C102.86 62.8119 102.967 62.7582 103.021 62.7582C103.93 62.7582 105.108 64.53 105.536 65.1743C105.91 65.6576 106.232 66.3019 106.392 66.9462C106.446 66.6777 106.446 66.4092 106.499 66.1945C106.553 65.926 106.446 65.6039 106.66 65.3891C106.713 65.3354 106.767 65.3354 106.82 65.3891C107.462 65.8723 107.569 67.1609 107.73 67.9126C107.837 68.3958 107.891 68.8791 107.837 69.3623C107.837 69.4697 107.784 69.6307 107.784 69.7918C107.998 69.1475 108.319 68.5032 108.747 68.02C108.8 67.9663 108.854 68.02 108.854 68.0737C108.961 68.4495 108.8 68.8254 108.747 69.2012C108.64 70.2213 108.64 71.1878 108.693 72.2079C108.747 73.0133 108.854 73.8724 108.907 74.6777C109.068 73.8187 109.282 73.0133 109.282 72.1542C109.282 71.7784 109.817 71.9932 109.924 72.2616C110.887 75.2146 109.817 78.3287 109.068 81.2281C109.014 81.3892 108.854 81.4428 108.693 81.3892C108.105 81.2818 107.837 80.8522 107.462 80.369C106.499 79.1878 105.161 78.4361 103.984 77.5771C102.378 76.3422 100.612 75.2146 99.114 73.8724C98.8999 73.7113 98.7929 73.2281 99.1675 73.2817C99.6491 73.2817 100.131 73.3891 100.666 73.4965C100.505 73.3891 100.398 73.2281 100.238 73.1207C99.4351 72.2079 98.2042 71.2415 97.669 70.275Z" fill="#067D32"/>
<path d="M108.105 86.5436C110.085 86.5436 111.208 83.7516 112.011 82.302C113.082 80.2617 114.045 78.2751 114.901 76.1274C116.507 72.208 117.951 68.02 120.627 64.6912C120.681 64.5838 120.895 64.7449 120.841 64.8522C119.664 67.2147 119.075 69.8992 118.326 72.369C117.523 74.9999 116.667 77.6845 115.49 80.208C114.634 82.1409 110.994 90.5167 107.998 87.0805C107.891 86.9194 107.891 86.5436 108.105 86.5436Z" fill="#B1CE55"/>
<path d="M100.933 64.154C101.415 64.3151 101.897 64.5836 102.325 64.9057C102.485 65.0131 102.699 65.2279 102.913 65.4426C102.646 64.9594 102.325 64.4762 102.378 63.9393C102.378 63.8856 102.378 63.8319 102.485 63.7782C102.967 63.6171 103.395 64.1003 103.77 64.3688C104.037 64.5299 104.251 64.7983 104.412 65.0131C104.305 64.7446 104.198 64.5299 104.251 64.2614C104.251 64.2077 104.305 64.154 104.358 64.154C105.054 64.0466 106.124 65.3352 106.499 65.7648C106.82 66.1406 107.141 66.5701 107.302 67.0534C107.302 66.8386 107.302 66.6775 107.302 66.4627C107.302 66.248 107.248 66.0332 107.355 65.8185C107.409 65.7648 107.409 65.7648 107.462 65.8185C107.997 66.1406 108.211 67.1607 108.425 67.6977C108.533 68.0198 108.64 68.4493 108.64 68.7715C108.64 68.8789 108.64 68.9862 108.64 69.0936C108.747 68.5567 108.961 68.0735 109.228 67.644C109.282 67.5903 109.335 67.644 109.335 67.6977C109.442 67.9661 109.335 68.2883 109.335 68.5567C109.335 69.3084 109.442 70.1138 109.549 70.8654C109.656 71.5634 109.817 72.3151 109.977 73.0131C110.031 73.3353 110.138 74.1406 110.352 74.7849C110.78 73.0668 111.155 71.295 111.101 69.5232C111.048 68.6641 110.887 67.9661 110.62 67.1607C110.566 66.8923 110.138 65.6037 110.513 65.3352C110.994 65.4426 111.369 66.0332 111.636 66.5701C111.583 65.7111 111.636 64.852 111.583 64.0466C111.583 63.9393 111.636 63.8856 111.743 63.8856C112.118 63.8856 112.493 64.3151 112.814 64.9057C112.867 64.5299 112.974 64.2077 113.081 63.8319C113.188 63.456 113.563 62.0601 113.938 61.9527C114.366 61.8453 114.58 62.4359 114.633 63.0802C114.74 62.758 114.794 62.4896 114.901 62.1674C115.008 61.7916 115.168 61.0936 115.49 60.8788C115.543 60.8252 115.597 60.8788 115.597 60.8788C115.864 60.9862 115.971 61.3084 116.025 61.7379C116.185 61.201 116.399 60.6104 116.774 60.2882C116.827 60.2345 116.881 60.2345 116.935 60.2882C117.202 60.4493 117.309 60.8252 117.256 61.2547C117.416 60.8252 117.63 60.4493 117.898 60.1272C118.058 59.9661 118.593 59.3218 118.754 59.805C118.861 60.1272 118.647 60.6641 118.54 60.9325C118.54 60.9862 118.54 60.9862 118.486 61.0399C118.647 60.8788 118.808 60.7178 118.968 60.6104C119.129 60.5567 119.236 60.7178 119.236 60.8252C119.289 61.4158 119.022 62.1674 118.647 62.758C118.808 62.597 118.968 62.4359 119.182 62.3822C119.236 62.3822 119.289 62.4359 119.289 62.4359C119.45 62.8654 119.182 63.4023 119.075 63.7782C118.915 64.2077 118.754 64.5836 118.593 65.0131C118.54 65.0668 118.486 65.1205 118.433 65.2278C118.754 64.9594 119.022 64.5836 119.343 64.3688C119.343 64.3688 119.396 64.3688 119.45 64.3688C119.717 64.5836 119.557 64.9057 119.503 65.1742C119.396 65.6037 119.236 66.0332 119.022 66.4091C119.182 66.3017 119.343 66.1406 119.557 66.0332C119.61 66.0332 119.61 66.0332 119.664 66.0332C120.252 66.4628 119.182 67.805 118.968 68.2346C119.343 67.5903 120.734 68.7178 120.52 69.3621C120.413 69.6842 119.557 69.9527 119.289 70.0601C118.433 70.4896 117.63 70.9728 116.881 71.5634C116.132 72.154 115.436 72.7983 114.794 73.4963C114.366 74.0332 113.938 74.6238 113.349 74.9997C113.242 75.1608 113.081 75.3218 112.921 75.4829C113.724 75.1608 114.473 74.7849 115.168 74.3017C115.811 73.8185 116.56 73.3889 117.202 72.9057C117.63 72.5836 118.005 72.154 118.486 71.8856C118.54 71.8856 118.593 71.8856 118.593 71.9393L118.647 71.993C118.701 72.0467 118.701 72.154 118.701 72.2077C118.54 72.5836 118.379 73.0131 118.219 73.3889C118.326 73.2816 118.486 73.1205 118.593 73.0668C118.968 72.852 119.396 72.6373 119.771 72.4762C120.092 72.3688 120.841 71.8856 121.216 72.1003C121.269 72.154 121.323 72.2614 121.323 72.3151C121.269 72.691 120.948 73.0131 120.627 73.3353C120.788 73.2816 120.948 73.2279 121.109 73.1742C121.269 73.1205 121.43 73.0668 121.59 73.0131C122.233 72.9057 123.41 72.691 123.892 73.3353C123.945 73.3889 123.945 73.4426 123.892 73.4963L123.838 73.55C123.677 74.0332 123.035 74.1943 122.5 74.4091C122.661 74.4091 122.821 74.4628 122.928 74.4628C122.982 74.4628 123.035 74.4628 123.089 74.4628C123.999 74.4628 124.962 74.6238 125.551 75.3755C125.604 75.4292 125.604 75.5903 125.497 75.644C125.122 75.8588 124.534 75.7514 124.106 75.7514C124.052 75.7514 123.999 75.7514 123.945 75.7514C124.106 75.8051 124.32 75.8588 124.48 75.9661C124.855 76.1809 125.604 76.4494 125.551 76.9863C125.551 77.04 125.497 77.04 125.497 77.0937C124.962 77.2547 124.373 77.3621 123.785 77.4158C124.106 77.5232 124.48 77.6843 124.641 78.0064C124.694 78.0601 124.641 78.1675 124.587 78.2212C123.838 78.597 122.661 78.597 121.804 78.597C121.269 78.597 120.734 78.597 120.252 78.5433C121.055 78.8655 121.858 79.1876 122.554 79.7245C122.661 79.7782 122.661 79.9393 122.607 79.993C122.393 80.2078 121.858 80.1541 121.59 80.2078C120.948 80.3151 120.199 80.1541 119.61 79.993C119.557 79.993 119.45 79.9393 119.396 79.9393C119.664 80.2078 119.878 80.4762 120.092 80.7984C120.145 80.8521 120.145 81.0131 120.038 81.0131C119.61 81.0668 119.075 80.6373 118.754 80.4762C118.005 80.1004 117.416 79.5635 116.667 79.1339C115.864 78.7044 114.901 78.3286 113.991 78.0601C113.188 77.8453 111.904 77.6843 111.155 78.1138C111.155 78.2212 111.101 78.3822 111.048 78.4359C110.994 78.5433 110.887 78.4896 110.834 78.3822C110.459 77.8453 110.245 77.201 109.817 76.6641C109.282 75.9661 108.372 75.5366 107.623 75.1071C106.981 74.7312 106.338 74.4628 105.696 74.0869C105.161 73.7648 104.412 73.4963 104.091 72.9594C104.037 72.9057 103.984 72.6373 104.144 72.6373C104.412 72.6373 104.626 72.7983 104.947 72.9057C105.215 73.0131 105.482 73.0668 105.75 73.1205C105.375 73.0131 105.054 72.9057 104.733 72.7983C104.198 72.5836 103.716 72.2614 103.234 71.9393C102.539 71.4561 101.522 70.8654 101.04 70.1138C100.933 69.9527 100.612 69.2547 101.147 69.3084C101.415 69.3621 101.682 69.4695 101.95 69.5769C101.682 69.2547 101.361 68.8789 101.147 68.4493C100.933 68.0735 100.452 67.4292 100.559 66.946C100.559 66.8923 100.612 66.8386 100.666 66.8923C100.88 66.9997 101.04 67.107 101.201 67.2681C100.987 66.946 100.826 66.6238 100.666 66.248C100.398 65.7111 99.8629 64.5836 100.023 63.9393C99.97 63.8319 100.612 64.0466 100.933 64.154Z" fill="#56AF35"/>
<path d="M104.626 83.9125C104.787 84.1273 105.108 85.4159 105.429 85.738C105.696 84.8253 105.857 83.8588 105.91 82.8387C106.017 81.5501 106.017 80.2615 105.803 79.0803C105.536 77.3085 105.375 75.483 105.215 73.6574C105.161 72.8521 105.322 72.0467 105.161 71.2413C105.161 71.1876 105.054 71.134 105.001 71.134H104.84C104.733 71.134 104.626 71.1876 104.573 71.295C104.305 71.8319 103.984 72.4225 103.716 72.9595C103.716 72.691 103.77 72.4762 103.716 72.2078C103.609 71.5635 103.502 70.9192 103.288 70.3286C103.128 69.8454 102.967 68.6105 102.378 68.3957C102.271 68.342 102.111 68.3957 102.004 68.5031C101.629 68.9326 101.522 69.5769 101.522 70.2212C101.469 70.0064 101.362 69.738 101.255 69.5232C101.148 69.3084 101.094 69.04 100.933 68.8252C100.452 68.0198 99.5955 66.4628 98.4717 66.5165C98.4182 66.5165 98.3112 66.5702 98.3112 66.6776C98.3112 66.7313 98.3112 66.7313 98.3112 66.7849C97.883 67.4292 98.2576 68.2883 98.5787 69.0937C98.4182 68.9326 98.2576 68.8252 98.0971 68.6641C98.0436 68.6105 97.9901 68.5568 97.9365 68.5031C97.0803 67.4292 96.01 66.5702 94.6721 66.6239C94.5115 66.6239 94.4045 66.7313 94.4045 66.8923C94.5115 67.5366 95.2072 68.0735 95.5819 68.5568C95.6354 68.6105 95.6889 68.6641 95.7424 68.7715C95.5283 68.6105 95.2608 68.5031 95.0467 68.3957C94.458 68.1272 93.4947 67.5366 92.9596 68.1272C92.9061 68.1809 92.9061 68.2346 92.9061 68.2883C93.2272 69.04 93.6553 69.7917 94.1369 70.4897C93.7088 70.2212 93.2272 69.9527 92.692 70.0601C92.585 70.0601 92.4779 70.1675 92.5314 70.2749C92.799 71.4561 93.9229 72.7447 94.6186 73.7111C95.1002 74.3017 95.5819 74.8924 96.117 75.4293C95.0467 74.785 93.9229 74.1944 92.6385 73.9259C92.4779 73.8722 92.3174 73.9796 92.2639 74.1407C92.1568 74.5702 92.7455 75.1071 92.9596 75.483C93.4412 76.2883 94.2975 76.9326 95.0467 77.5232C95.1537 77.5769 95.2072 77.6843 95.3143 77.738C94.7791 77.738 94.244 77.738 93.7088 77.738C93.6018 77.738 93.3877 77.8991 93.4947 78.0065C93.8158 78.5434 94.7256 78.7581 95.2608 78.9729C97.0268 79.7246 98.9534 80.2078 100.719 81.0669C101.362 81.3353 102.004 81.7649 102.646 82.2481C103.502 82.6776 104.144 83.2145 104.626 83.9125Z" fill="#95C125"/>
<path d="M100.024 72.5303C100.88 74.0336 101.683 75.537 102.485 77.094C103.449 78.9732 103.984 81.0135 105.108 82.7853C105.91 84.0739 106.66 85.4162 107.516 86.7048C107.462 87.5102 107.355 88.3156 107.302 89.1746C106.124 87.8323 105.215 86.1142 104.572 84.8793C102.378 81.0672 100.987 76.8256 100.024 72.5303Z" fill="#AFD076"/>
<path d="M101.95 128.102C102.111 131.967 102.325 135.833 102.646 139.699C102.646 139.806 102.699 139.753 102.753 139.699C102.539 135.833 102.218 131.967 101.95 128.102Z" fill="#CFDC75"/>
<path d="M100.719 82.5166C100.719 82.4092 100.719 82.3555 100.719 82.2481C100.719 82.1407 100.612 82.2481 100.612 82.3018C100.612 83.1072 100.666 83.9125 100.666 84.7179C100.719 84.0199 100.719 83.2682 100.719 82.5166Z" fill="#CFDC75"/>
<path d="M88.6246 157.362C89.695 161.872 91.3004 166.597 94.779 169.604C92.1567 165.846 90.2836 161.658 88.6246 157.362Z" fill="#A0CE51"/>
<defs>
<linearGradient id="paint0_linear_8002_25808" x1="106.067" y1="64.9058" x2="106.067" y2="169.111" gradientUnits="userSpaceOnUse">
<stop stop-color="#CCEA99"/>
<stop offset="1" stop-color="#BBE375"/>
</linearGradient>
<radialGradient id="paint1_radial_8002_25808" cx="0" cy="0" r="1" gradientTransform="matrix(-35.0248 2.9621 2.95241 35.1397 136.856 138.564)" gradientUnits="userSpaceOnUse">
<stop offset="0.00221549" stop-color="white"/>
<stop offset="0.902" stop-color="white"/>
<stop offset="0.991" stop-color="white"/>
</radialGradient>
<linearGradient id="paint2_linear_8002_25808" x1="90.1175" y1="68.4492" x2="90.1175" y2="172.145" gradientUnits="userSpaceOnUse">
<stop stop-color="#CCEA99"/>
<stop offset="1" stop-color="#BBE375"/>
</linearGradient>
<radialGradient id="paint3_radial_8002_25808" cx="0" cy="0" r="1" gradientTransform="matrix(35.0939 1.81563 -1.80969 35.209 59.9922 142.736)" gradientUnits="userSpaceOnUse">
<stop offset="0.00221549" stop-color="white"/>
<stop offset="0.902" stop-color="white"/>
<stop offset="0.991" stop-color="white"/>
</radialGradient>
<linearGradient id="paint4_linear_8002_25808" x1="100.158" y1="29.9526" x2="100.158" y2="173.527" gradientUnits="userSpaceOnUse">
<stop stop-color="#C7E98E"/>
<stop offset="1" stop-color="#C4EB80"/>
</linearGradient>
<radialGradient id="paint5_radial_8002_25808" cx="0" cy="0" r="1" gradientTransform="matrix(37.2122 1.92522 -1.91892 37.3343 71.2175 131.775)" gradientUnits="userSpaceOnUse">
<stop offset="0.00221549" stop-color="white"/>
<stop offset="0.902" stop-color="white"/>
<stop offset="0.991" stop-color="white"/>
</radialGradient>
</defs>
</svg>
