<svg width="200" height="200" viewBox="0 0 200 200" fill="none" xmlns="http://www.w3.org/2000/svg">
<path d="M105.025 133.874C102.591 133.775 99.4748 133.084 96.9431 133.972C98.3063 135.947 99.3774 138.217 99.7669 140.686C100.156 142.858 100.449 145.029 100.838 147.103C101.617 148.979 103.467 152.73 105.609 151.348C107.07 150.361 107.849 148.09 108.433 146.412C108.823 145.128 109.115 143.845 109.504 142.463C109.602 141.87 109.699 141.278 109.796 140.587C110.186 138.217 110.965 135.947 112.231 133.972C109.796 134.17 107.459 133.972 105.025 133.874Z" fill="#808056"/>
<path d="M100.351 136.836C100.449 136.441 99.9617 136.639 99.8643 136.836C99.5722 137.626 99.1827 138.219 98.7932 138.811C98.4037 138.811 98.0142 138.811 97.6247 138.811C96.9431 138.91 96.0668 139.008 95.4825 138.811C96.0668 139.107 96.8458 139.107 97.5274 139.206C97.8195 139.206 98.1116 139.305 98.4037 139.305C97.8195 139.897 97.2353 140.391 96.5536 140.884C96.0668 140.292 95.093 140.193 94.4114 139.996C93.5351 139.403 92.8535 138.712 91.9771 138.12C91.1007 137.527 89.9323 137.527 89.0559 137.33C88.9585 137.33 88.9585 137.429 88.9585 137.429C90.127 137.824 91.1981 138.021 92.1719 139.008C92.3666 139.206 92.6587 139.502 92.9508 139.699C92.2692 139.699 91.5876 139.798 90.906 139.798C90.8086 139.798 90.7113 139.897 90.8086 139.996C91.2955 140.094 91.685 140.094 92.1719 140.094C92.8535 140.094 93.3403 140.391 93.9246 140.687C92.9508 140.884 92.0745 141.378 91.1007 141.279C91.1007 141.279 91.0034 141.378 91.1007 141.378C91.685 141.575 92.2692 141.476 92.8535 141.378C93.4377 141.279 94.0219 141.18 94.5088 141.082C94.8009 141.279 95.1904 141.477 95.5799 141.575C94.8983 141.871 94.2167 142.168 93.4377 142.464C93.3403 142.562 93.1456 142.562 93.0482 142.661C92.3666 142.661 91.685 142.661 91.0034 142.562C90.127 142.168 89.4454 141.575 88.6664 141.18C87.8874 140.785 86.9137 140.687 86.2321 140.193C86.719 140.687 87.5953 141.082 88.1796 141.378C88.7638 141.674 89.1533 142.168 89.6402 142.464C89.348 142.464 89.0559 142.464 88.7638 142.365C87.1085 142.168 85.6479 142.859 84.0899 143.254C83.9925 143.254 83.9925 143.352 84.0899 143.352C85.3557 143.254 86.4268 143.056 87.4979 143.056C86.0373 143.846 84.4794 144.833 82.824 145.031C82.824 145.031 82.7267 145.129 82.824 145.129C83.7978 145.129 84.8689 144.734 85.8426 144.438C86.6216 144.142 87.7901 143.846 88.1796 143.155C88.4717 143.155 88.8612 143.155 89.1533 143.254C89.8349 143.352 90.5165 143.451 91.1981 143.55C89.5428 144.34 87.8874 145.129 86.3295 146.117C86.1347 146.215 85.94 146.413 85.7452 146.511C85.2584 146.413 84.6741 146.314 84.0899 146.215C83.3109 146.117 82.6293 146.018 81.8503 146.314C81.8503 146.314 80.3897 146.709 80.7792 147.005C80.7792 147.005 80.7792 147.005 80.8766 147.005C80.8766 147.005 80.9739 147.005 80.9739 146.906V146.808C81.8503 146.413 82.6293 146.61 83.5056 146.709C83.3109 146.906 83.1162 147.104 82.9214 147.203C82.1424 147.795 81.4608 148.387 80.6818 148.782V148.881C81.3634 148.683 81.8503 148.387 82.4345 147.992C83.0188 147.597 83.603 147.4 83.9925 146.906C84.382 147.005 84.6741 147.005 85.0636 147.005C84.382 147.597 83.7978 148.289 83.2135 148.98C82.1424 149.375 81.1687 149.868 80.2923 150.658C79.1239 150.757 77.858 151.349 76.8843 151.941V152.04C77.4685 151.744 78.0528 151.546 78.7344 151.448C79.0265 151.349 79.3186 151.349 79.6107 151.25C78.9291 151.941 78.2475 152.929 78.1501 153.817C78.1501 153.817 78.1501 153.817 78.2475 153.817C78.2475 153.817 78.3449 153.718 78.2475 153.718C78.1501 153.718 79.1239 152.238 79.2212 152.139C79.6107 151.645 80.2923 151.152 80.8766 150.855C81.3634 150.559 81.9477 150.362 82.4345 150.066C81.1687 152.139 80.4871 154.508 80.3897 157.075C80.3897 157.174 80.4871 157.075 80.4871 157.075C80.8766 153.324 82.5319 150.559 84.8689 148.486C84.8689 148.881 84.9662 149.276 84.9662 149.671C84.5768 150.066 84.382 150.559 84.0899 150.954C83.603 151.744 83.3109 152.731 83.0188 153.62C83.0188 153.718 83.1162 153.718 83.1162 153.62C83.5056 152.731 83.8951 151.843 84.4794 151.053C84.5768 150.855 84.7715 150.658 84.9662 150.362C84.9662 151.645 84.5768 152.83 84.2846 154.113C83.9925 155.101 83.8951 156.285 83.4083 157.273C83.4083 157.371 83.4083 157.371 83.5056 157.273C84.382 155.989 84.7715 154.212 85.2584 152.731C85.2584 152.632 85.3557 152.534 85.3557 152.435C85.4531 152.632 85.5505 152.83 85.6479 153.126C85.94 153.718 86.2321 154.311 86.5242 155.002C86.5242 155.101 86.6216 155.002 86.6216 154.903C86.3295 153.817 85.8426 152.731 85.5505 151.547C85.6479 151.152 85.7452 150.757 85.7452 150.362C85.7452 150.066 85.7452 149.671 85.6479 149.276C85.6479 149.177 85.6479 149.177 85.6479 149.177C85.5505 148.683 85.5505 148.19 85.5505 147.696C86.5242 146.906 87.6927 146.117 88.8612 145.524C88.6664 145.919 88.569 146.314 88.569 146.709C87.6927 147.4 87.1085 148.289 86.3295 148.98C86.2321 148.98 86.3295 149.078 86.3295 149.078C86.8163 148.782 87.2058 148.387 87.5953 147.992C87.7901 147.795 88.0822 147.597 88.3743 147.4C88.3743 147.499 88.3743 147.597 88.3743 147.696C88.3743 147.894 88.3743 147.992 88.3743 148.19C87.4006 149.473 86.9137 151.744 87.1085 153.225C87.1085 153.324 87.2058 153.225 87.2058 153.225C87.4006 151.744 87.7901 150.461 88.3743 149.078C88.4717 150.263 88.6664 151.546 88.569 152.731C88.4717 154.508 88.0822 156.384 87.4979 157.964C87.4006 158.062 87.5953 158.062 87.6927 157.964C88.2769 156.68 88.6664 155.199 88.8612 153.817C88.8612 154.015 88.9585 154.212 88.9585 154.41C89.1533 155.792 89.4454 156.976 89.2507 158.359C89.2507 158.457 89.348 158.359 89.348 158.359C89.7375 156.483 89.348 154.607 88.9585 152.731C88.9585 152.435 89.0559 152.139 89.0559 151.941C89.0559 151.448 89.1533 151.053 89.1533 150.658C89.2507 150.855 89.348 150.954 89.4454 151.152C89.7375 151.645 89.9323 152.336 90.127 152.83C90.127 152.929 90.3218 152.83 90.3218 152.731C90.2244 151.546 89.7375 150.559 89.1533 149.473C89.1533 147.894 89.2507 146.413 90.3218 144.833C90.7113 144.636 91.1007 144.537 91.4902 144.34C91.685 144.241 91.7824 144.241 91.9771 144.142C91.8797 144.932 91.9771 145.82 91.685 146.61C91.3929 147.597 91.1007 148.486 90.8086 149.473C90.8086 149.572 90.906 149.572 90.906 149.473C91.3929 148.387 91.9771 147.301 92.2692 146.215C92.2692 146.511 92.2692 146.709 92.3666 146.906C92.3666 147.597 92.464 148.881 92.2692 149.572C92.2692 149.671 92.3666 149.671 92.3666 149.572C92.6587 148.881 92.6587 147.894 92.6587 147.104C92.6587 146.512 92.6587 145.722 92.5613 145.129C92.6587 144.734 92.6587 144.241 92.6587 143.846C93.1456 143.648 93.6325 143.451 94.2167 143.254C94.3141 144.142 94.6062 145.031 94.8009 146.018C94.4114 147.005 94.1193 147.894 93.9246 148.782C93.0482 149.967 92.3666 151.448 91.9771 152.929C91.685 153.916 91.7824 155.792 92.2692 156.68C92.2692 156.779 92.3666 156.68 92.3666 156.581C91.685 154.311 92.7561 152.336 93.6325 150.362C93.4377 151.546 93.4377 152.731 93.3403 154.015C93.3403 154.113 93.4377 154.015 93.4377 154.015C93.6324 152.534 93.9246 151.152 94.2167 149.671C94.4114 148.881 94.8009 148.091 95.093 147.301C95.093 147.499 95.093 147.597 95.1904 147.795C95.3852 150.066 95.2878 152.238 95.5799 154.508C95.5799 154.607 95.6773 154.508 95.6773 154.41C95.6773 152.731 95.7747 150.954 95.7747 149.177C95.9694 149.572 96.1641 150.066 96.2615 150.461C96.7484 151.843 97.0405 153.324 97.7221 154.706C97.7221 154.804 97.9169 154.706 97.8195 154.607C97.3326 153.324 97.1379 152.04 96.7484 150.757C96.5536 150.066 96.2615 149.473 95.9694 148.881C95.872 148.683 95.7747 148.486 95.7747 148.19C95.7747 147.894 95.7747 147.499 95.7747 147.203C95.872 147.301 95.9694 147.4 96.0668 147.499C96.7484 148.091 97.2353 148.881 97.7221 149.572C97.7221 149.671 97.8195 149.572 97.8195 149.473C97.43 148.782 97.1379 148.19 96.651 147.597C96.3589 147.203 95.9694 146.808 95.6773 146.413C95.5799 145.722 95.4825 145.129 95.3852 144.438C95.3852 144.438 95.4825 144.438 95.4825 144.537C95.7747 144.734 96.0668 145.031 96.3589 145.228C96.3589 145.228 96.4563 145.228 96.4563 145.129V145.031C96.3589 144.734 96.2615 144.438 95.9694 144.241C95.6773 144.043 95.4825 143.747 95.1904 143.55C95.093 143.352 95.093 143.155 94.9957 142.859C96.0668 142.365 97.0405 141.871 97.9169 141.279C97.9169 141.773 98.0142 142.266 97.9169 142.661C97.8195 143.747 97.7221 145.426 97.2353 146.314C97.1379 146.413 97.3326 146.413 97.3326 146.413C97.8195 145.623 98.0142 144.537 98.3064 143.648C98.3064 143.648 98.3064 143.648 98.3064 143.747C98.6958 144.636 98.7932 145.623 98.988 146.511C98.988 146.61 99.1827 146.511 99.1827 146.413C99.0853 145.623 99.1827 144.734 98.988 143.945C98.8906 143.451 98.6959 143.056 98.5011 142.562C98.5985 141.97 98.6959 141.279 98.5985 140.588C99.2801 139.798 100.059 138.613 100.351 136.836Z" fill="#A9A68E"/>
<path d="M108.628 137.724C108.531 137.329 109.017 137.527 109.115 137.724C109.407 138.514 109.796 139.106 110.186 139.699C110.575 139.699 110.965 139.699 111.354 139.699C112.036 139.699 112.912 139.896 113.497 139.699C112.912 139.995 112.133 139.995 111.452 140.093C111.16 140.093 110.868 140.192 110.575 140.192C111.16 140.785 111.744 141.278 112.426 141.772C112.912 141.179 113.886 141.081 114.568 140.883C115.444 140.291 116.126 139.6 117.002 139.008C117.878 138.415 119.047 138.415 119.923 138.218C120.021 138.218 120.021 138.316 120.021 138.316C118.852 138.711 117.781 138.909 116.807 139.896C116.613 140.093 116.32 140.39 116.028 140.587C116.71 140.587 117.392 140.686 118.073 140.686C118.171 140.686 118.268 140.785 118.171 140.883C117.684 140.982 117.294 140.982 116.807 140.982C116.126 140.982 115.639 141.278 115.055 141.574C116.028 141.772 116.905 142.265 117.878 142.167C117.878 142.167 117.976 142.265 117.878 142.265C117.294 142.463 116.71 142.364 116.126 142.265C115.541 142.167 114.957 142.068 114.47 141.969C114.178 142.167 113.789 142.364 113.399 142.463C114.081 142.759 114.762 143.055 115.541 143.351C115.639 143.45 115.834 143.45 115.931 143.549C116.613 143.549 117.294 143.549 117.976 143.45C118.852 143.055 119.534 142.463 120.313 142.068C121.092 141.673 122.065 141.574 122.747 141.081C122.26 141.574 121.384 141.969 120.8 142.265C120.215 142.562 119.826 143.055 119.339 143.351C119.631 143.351 119.923 143.253 120.215 143.253C121.871 143.055 123.331 143.746 124.889 144.141C124.987 144.141 124.987 144.24 124.889 144.24C123.623 144.141 122.552 143.944 121.481 143.944C122.942 144.734 124.5 145.721 126.155 145.918C126.155 145.918 126.253 146.017 126.155 146.017C125.181 146.017 124.11 145.622 123.137 145.326C122.358 145.03 121.189 144.734 120.8 144.043C120.507 144.043 120.118 144.043 119.826 144.141C119.144 144.24 118.463 144.339 117.781 144.437C119.436 145.227 121.092 146.017 122.65 147.004C122.844 147.103 123.039 147.3 123.234 147.399C123.721 147.3 124.305 147.202 124.889 147.103C125.668 147.004 126.35 146.906 127.129 147.202C127.129 147.202 128.589 147.597 128.2 147.893C128.2 147.893 128.2 147.893 128.103 147.893C128.103 147.893 128.005 147.893 128.005 147.794V147.695C127.129 147.3 126.35 147.498 125.474 147.597C125.668 147.794 125.863 147.992 126.058 148.09C126.837 148.683 127.518 149.275 128.297 149.67V149.769C127.616 149.571 127.129 149.275 126.545 148.88C125.96 148.485 125.376 148.288 124.987 147.794C124.597 147.893 124.305 147.893 123.916 147.893C124.597 148.485 125.181 149.176 125.766 149.867C126.837 150.262 127.81 150.756 128.687 151.546C129.855 151.644 131.121 152.237 132.095 152.829V152.928C131.511 152.632 130.926 152.434 130.245 152.335C129.953 152.335 129.661 152.237 129.368 152.138C130.05 152.829 130.732 153.816 130.829 154.705H130.732C130.732 154.705 130.634 154.606 130.732 154.606C130.829 154.606 129.855 153.125 129.758 153.027C129.368 152.533 128.687 152.039 128.103 151.743C127.616 151.447 127.031 151.249 126.545 150.953C127.81 153.027 128.492 155.396 128.589 157.963C128.589 158.062 128.492 157.963 128.492 157.963C128.103 154.211 126.447 151.447 124.11 149.374C124.11 149.769 124.013 150.163 124.013 150.558C124.402 150.953 124.597 151.447 124.889 151.842C125.376 152.632 125.668 153.619 125.96 154.507C125.96 154.606 125.863 154.606 125.863 154.507C125.474 153.619 125.084 152.73 124.5 151.941C124.402 151.743 124.208 151.546 124.013 151.249C124.013 152.533 124.402 153.718 124.695 155.001C124.987 155.988 125.084 157.173 125.571 158.16C125.571 158.259 125.571 158.259 125.474 158.16C124.597 156.877 124.208 155.1 123.721 153.619C123.721 153.52 123.623 153.421 123.623 153.323C123.526 153.52 123.429 153.718 123.331 154.014C123.039 154.606 122.747 155.198 122.455 155.89C122.455 155.988 122.358 155.89 122.358 155.791C122.65 154.705 123.137 153.619 123.429 152.434C123.331 152.039 123.234 151.644 123.234 151.249C123.234 150.953 123.234 150.558 123.331 150.163C123.331 150.065 123.331 150.065 123.331 150.065C123.429 149.571 123.429 149.078 123.429 148.584C122.455 147.794 121.286 147.004 120.118 146.412C120.313 146.807 120.41 147.202 120.507 147.597C121.384 148.288 121.968 149.176 122.747 149.867C122.844 149.867 122.747 149.966 122.747 149.966C122.26 149.67 121.871 149.275 121.481 148.88C121.286 148.683 120.994 148.485 120.702 148.288C120.702 148.386 120.702 148.485 120.702 148.584C120.702 148.781 120.702 148.88 120.702 149.078C121.676 150.361 122.163 152.632 121.968 154.112C121.968 154.211 121.871 154.112 121.871 154.112C121.676 152.632 121.286 151.348 120.702 149.966C120.605 151.151 120.41 152.434 120.507 153.619C120.605 155.396 120.994 157.272 121.579 158.851C121.676 158.95 121.481 158.95 121.384 158.851C120.8 157.568 120.41 156.087 120.215 154.705C120.215 154.902 120.118 155.1 120.118 155.297C119.923 156.679 119.631 157.864 119.826 159.246C119.826 159.345 119.729 159.246 119.729 159.246C119.339 157.37 119.729 155.495 120.118 153.619C120.118 153.323 120.021 153.027 120.021 152.829C120.021 152.335 119.923 151.941 119.923 151.546C119.826 151.743 119.729 151.842 119.631 152.039C119.339 152.533 119.144 153.224 118.95 153.718C118.95 153.816 118.755 153.718 118.755 153.619C118.852 152.434 119.339 151.447 119.923 150.361C119.923 148.683 119.826 147.3 118.755 145.721C118.365 145.523 117.976 145.425 117.586 145.227C117.392 145.128 117.294 145.128 117.099 145.03C117.099 145.82 117.099 146.708 117.392 147.498C117.684 148.485 117.976 149.374 118.268 150.361C118.268 150.46 118.171 150.46 118.171 150.361C117.684 149.275 117.099 148.189 116.807 147.103C116.807 147.399 116.807 147.597 116.71 147.794C116.71 148.485 116.613 149.769 116.807 150.46C116.807 150.558 116.71 150.558 116.71 150.46C116.418 149.769 116.418 148.781 116.418 147.992C116.418 147.399 116.418 146.609 116.515 146.017C116.418 145.622 116.418 145.128 116.418 144.734C115.931 144.536 115.444 144.339 114.86 144.141C114.762 145.03 114.47 145.918 114.276 146.906C114.665 147.893 114.957 148.781 115.152 149.67C116.028 150.855 116.71 152.335 117.099 153.816C117.392 154.804 117.294 156.679 116.807 157.568C116.807 157.667 116.71 157.568 116.71 157.469C117.392 155.198 116.32 153.224 115.444 151.249C115.639 152.434 115.639 153.619 115.736 154.902C115.736 155.001 115.639 154.902 115.639 154.902C115.444 153.421 115.152 152.039 114.86 150.558C114.665 149.769 114.276 148.979 113.983 148.189C113.983 148.386 113.886 148.485 113.886 148.683C113.691 150.953 113.789 153.125 113.497 155.396C113.497 155.495 113.399 155.396 113.399 155.297C113.399 153.619 113.302 151.842 113.302 150.065C113.107 150.46 112.912 150.953 112.815 151.348C112.328 152.73 112.036 154.211 111.452 155.593C111.452 155.692 111.257 155.593 111.354 155.495C111.841 154.211 112.036 152.928 112.426 151.644C112.62 150.953 112.912 150.361 113.205 149.769C113.302 149.571 113.399 149.374 113.399 149.078C113.399 148.781 113.399 148.386 113.399 148.09C113.302 148.189 113.205 148.288 113.107 148.386C112.426 148.979 111.939 149.769 111.452 150.46C111.452 150.558 111.354 150.46 111.354 150.361C111.744 149.67 112.036 149.078 112.523 148.485C112.815 148.09 113.205 147.695 113.497 147.3C113.594 146.609 113.691 146.017 113.789 145.326C113.789 145.326 113.691 145.326 113.691 145.425C113.399 145.622 113.107 145.918 112.815 146.116C112.815 146.116 112.718 146.116 112.718 146.017V145.918C112.815 145.622 113.01 145.326 113.205 145.128C113.497 144.931 113.691 144.635 113.983 144.437C114.081 144.24 114.081 144.042 114.178 143.746C113.107 143.253 112.133 142.759 111.257 142.167C111.257 142.66 111.16 143.154 111.257 143.549C111.354 144.635 111.452 146.313 111.939 147.202C112.036 147.3 111.841 147.3 111.841 147.3C111.354 146.511 111.16 145.425 110.868 144.536C110.868 144.536 110.868 144.536 110.868 144.635C110.478 145.523 110.381 146.412 110.186 147.399C110.186 147.498 109.991 147.399 109.991 147.3C110.089 146.511 109.991 145.622 110.186 144.832C110.283 144.339 110.478 143.944 110.673 143.45C110.575 142.858 110.478 142.167 110.575 141.476C109.699 140.686 108.92 139.402 108.628 137.724Z" fill="#A9A68E"/>
<path d="M104.344 137.427C104.538 137.131 104.83 137.526 104.733 137.822C104.538 138.612 104.344 139.303 104.344 139.994C104.636 140.191 105.025 140.488 105.317 140.784C105.804 141.277 106.388 141.87 106.973 142.166V142.265C106.291 142.166 105.707 141.672 105.123 141.277C104.83 141.08 104.636 140.981 104.441 140.784C104.441 141.574 104.636 142.363 104.928 143.153C105.609 143.055 106.486 143.548 107.167 143.844C108.141 143.943 109.212 143.844 110.186 143.943C111.16 144.042 112.133 144.733 113.01 145.226V145.325C111.841 144.832 110.868 144.338 109.602 144.437C109.31 144.437 108.92 144.535 108.628 144.535C109.115 144.93 109.602 145.424 110.186 145.918C110.283 146.016 110.186 146.115 110.089 146.115C109.699 145.918 109.31 145.621 109.017 145.325C108.531 144.93 107.946 144.733 107.362 144.634C107.946 145.424 108.433 146.411 109.212 146.905V147.004C108.628 146.806 108.239 146.312 107.752 145.918C107.362 145.523 106.973 145.029 106.681 144.634C106.291 144.634 105.902 144.535 105.512 144.338C105.804 145.029 106.194 145.72 106.583 146.411C106.681 146.51 106.778 146.707 106.778 146.806C107.265 147.201 107.849 147.695 108.433 148.09C109.31 148.287 110.283 148.287 111.16 148.484C112.036 148.682 112.815 149.274 113.691 149.373C113.01 149.472 112.133 149.176 111.452 149.077C110.77 148.978 110.186 148.978 109.699 148.978C109.894 149.175 110.186 149.274 110.381 149.472C111.744 150.36 112.523 151.841 113.497 153.124C113.497 153.124 113.497 153.322 113.399 153.223C112.523 152.335 111.841 151.545 110.965 150.755C111.647 152.335 112.231 154.013 113.399 155.296C113.399 155.296 113.399 155.494 113.302 155.395C112.523 154.704 111.939 153.816 111.452 152.927C111.062 152.236 110.381 151.249 110.478 150.36C110.478 150.36 110.478 150.36 110.478 150.261C110.186 150.064 109.991 149.867 109.699 149.669C109.115 149.274 108.531 148.978 107.946 148.583C108.823 150.261 109.504 151.94 110.089 153.717C110.186 153.914 110.186 154.21 110.283 154.408C110.77 154.605 111.257 155 111.744 155.198C112.426 155.593 113.01 155.988 113.399 156.679C113.399 156.679 114.276 157.863 113.789 157.962V157.863C113.789 157.863 113.789 157.765 113.886 157.863C113.497 157.074 112.718 156.58 112.036 156.185C112.036 156.481 112.133 156.679 112.133 156.975C112.426 157.863 112.523 158.752 112.912 159.64C112.523 159.048 112.328 158.456 112.036 157.863C111.841 157.271 111.549 156.679 111.549 155.988C111.257 155.79 110.868 155.593 110.673 155.395C110.868 156.284 110.965 157.172 110.868 158.061C111.452 159.048 111.939 160.134 112.133 161.22C113.01 162.01 113.594 163.293 113.886 164.379C113.886 164.379 113.886 164.478 113.789 164.379C113.497 163.787 113.205 163.194 112.718 162.701C112.523 162.503 112.328 162.306 112.133 162.01C112.231 162.997 112.133 164.182 111.647 164.972C111.647 164.972 111.647 164.972 111.549 164.873V164.774C111.647 164.873 111.744 163.096 111.744 162.898C111.744 162.207 111.549 161.417 111.257 160.825C111.062 160.233 110.77 159.739 110.575 159.245C110.283 161.615 109.31 163.984 107.849 165.959C107.752 166.058 107.752 165.959 107.752 165.86C109.796 162.701 110.186 159.542 109.699 156.382C109.407 156.679 109.115 156.975 108.823 157.172C108.823 157.666 108.725 158.159 108.628 158.752C108.433 159.739 108.141 160.628 107.752 161.516C107.752 161.615 107.654 161.516 107.654 161.516C107.849 160.529 108.141 159.64 108.141 158.653C108.141 158.357 108.141 158.16 108.141 157.863C107.362 158.851 106.875 160.035 106.388 161.22C105.999 162.207 105.317 163.194 105.123 164.28C105.123 164.379 105.025 164.28 105.025 164.28C105.123 162.701 105.902 161.121 106.486 159.64C106.486 159.542 106.583 159.443 106.583 159.344C106.388 159.443 106.194 159.542 105.902 159.64C105.317 159.937 104.636 160.233 104.051 160.529C103.954 160.529 103.954 160.43 103.954 160.43C104.83 159.739 105.902 159.245 106.875 158.554C107.07 158.159 107.265 157.863 107.557 157.567C107.752 157.271 108.044 157.074 108.239 156.777L108.336 156.679C108.725 156.284 109.018 155.988 109.31 155.593C109.018 154.309 108.628 153.026 108.044 151.742C107.946 152.137 107.752 152.532 107.557 152.828C107.752 153.816 107.752 154.902 107.849 155.988C107.849 156.086 107.752 156.086 107.752 155.988C107.557 155.494 107.46 154.902 107.46 154.309C107.46 154.013 107.265 153.717 107.167 153.421C107.167 153.519 107.07 153.618 107.07 153.618C106.973 153.717 106.875 153.914 106.778 154.013C106.778 155.593 105.707 157.666 104.636 158.653C104.636 158.653 104.538 158.653 104.538 158.554C105.317 157.271 105.902 155.988 106.194 154.605C105.415 155.494 104.441 156.382 103.759 157.271C102.688 158.653 101.812 160.43 101.325 162.01C101.325 162.207 101.13 162.01 101.13 161.911C101.52 160.529 102.104 159.147 102.786 157.962C102.591 158.061 102.494 158.258 102.299 158.357C101.325 159.245 100.351 160.035 99.5723 161.22C99.5723 161.319 99.4749 161.22 99.4749 161.121C100.351 159.443 101.812 158.16 103.272 156.975C103.467 156.777 103.565 156.481 103.759 156.284C104.051 155.889 104.246 155.593 104.538 155.198C104.344 155.296 104.149 155.296 104.051 155.395C103.467 155.593 102.883 155.988 102.396 156.284C102.299 156.284 102.299 156.185 102.299 156.086C103.175 155.198 104.149 154.803 105.22 154.309C106.194 153.026 107.07 151.841 107.167 149.965C106.973 149.57 106.778 149.274 106.583 148.879C106.486 148.682 106.388 148.583 106.291 148.386C105.804 149.077 105.317 149.669 104.928 150.459C104.538 151.347 104.246 152.335 103.857 153.223C103.857 153.322 103.759 153.223 103.759 153.223C104.051 152.137 104.246 150.953 104.733 149.768C104.538 149.965 104.344 150.163 104.246 150.261C103.759 150.755 102.883 151.742 102.688 152.433C102.688 152.532 102.591 152.433 102.591 152.335C102.786 151.545 103.467 150.854 103.857 150.163C104.246 149.669 104.733 149.077 105.22 148.781C105.415 148.386 105.707 148.089 105.999 147.695C105.707 147.201 105.415 146.707 105.22 146.214C104.538 146.905 103.759 147.398 103.078 147.892C103.078 147.892 103.078 147.892 103.078 147.991C102.786 148.978 102.396 149.867 102.007 150.755C102.007 152.236 101.617 153.914 101.033 155.198C100.643 156.185 99.3776 157.468 98.5012 157.962C98.4038 157.962 98.4038 157.863 98.5012 157.863C100.351 156.58 100.838 154.309 101.325 152.137C100.741 153.124 100.059 154.112 99.2802 155.099C99.1828 155.198 99.1828 155.099 99.1828 155C99.9618 153.717 100.643 152.433 101.325 151.15C101.715 150.459 101.909 149.57 102.201 148.781C102.104 148.879 101.909 148.978 101.812 149.175C100.254 150.755 98.8907 152.532 97.3327 154.112C97.2354 154.21 97.2354 154.013 97.2354 154.013C98.3065 152.73 99.3776 151.249 100.449 149.867C100.059 150.064 99.6697 150.261 99.2802 150.558C98.0143 151.249 96.8459 152.236 95.58 152.927C95.4826 152.927 95.4826 152.828 95.58 152.73C96.6511 152.039 97.7222 151.15 98.7933 150.459C99.3776 150.064 99.9618 149.768 100.546 149.472C100.741 149.373 100.936 149.274 101.13 149.077C101.325 148.781 101.617 148.583 101.812 148.287C101.617 148.287 101.52 148.287 101.325 148.287C100.449 148.386 99.5723 148.583 98.696 148.879C98.5986 148.879 98.5986 148.781 98.696 148.682C99.3776 148.386 100.059 148.09 100.838 147.991C101.325 147.892 101.812 147.793 102.299 147.695C102.786 147.201 103.272 146.806 103.759 146.411H103.662C103.272 146.411 102.883 146.411 102.591 146.411C102.494 146.411 102.494 146.312 102.591 146.312H102.688C102.98 146.115 103.272 146.016 103.565 146.016C103.857 146.016 104.246 145.918 104.538 146.016C104.733 145.918 104.928 145.72 105.123 145.621C104.636 144.634 104.149 143.548 103.857 142.561C103.565 142.956 103.175 143.252 102.98 143.647C102.396 144.535 101.422 145.918 101.228 147.004C101.228 147.102 101.13 147.102 101.13 147.004C101.228 146.016 101.715 145.128 102.104 144.239C102.104 144.239 102.104 144.239 102.007 144.239C101.13 144.733 100.546 145.325 99.7671 145.918C99.6697 146.016 99.5723 145.819 99.6697 145.72C100.254 145.128 100.741 144.437 101.422 143.943C101.812 143.647 102.201 143.449 102.591 143.153C102.883 142.561 103.272 142.067 103.662 141.574C103.37 140.488 103.565 139.007 104.344 137.427Z" fill="#A9A68E"/>
<path d="M149.622 98.5299C149.525 95.0745 148.746 87.5714 143.78 88.2625C141.248 88.5586 138.814 89.7433 136.574 91.0267C133.653 92.7051 130.732 94.3834 127.81 96.1605C117.489 102.281 107.752 109.094 98.1116 116.399C93.243 120.151 88.3743 123.902 83.5057 127.654C81.1687 129.53 78.8318 131.405 76.3974 133.084C74.7421 134.268 72.4052 134.762 71.1393 136.243C71.0419 136.342 71.0419 136.342 71.0419 136.44C69.8735 136.046 68.8023 135.651 67.7312 135.157C67.6339 135.157 67.5365 135.256 67.6339 135.256C68.705 135.848 69.8735 136.44 71.0419 136.934C71.1393 137.033 71.1393 137.132 71.334 137.132C81.5582 141.673 93.4377 142.956 104.441 142.167C116.515 141.278 127.616 137.526 136.671 129.135C140.858 125.284 144.364 120.941 146.603 115.708C148.843 110.476 149.914 104.355 149.622 98.5299Z" fill="#52AD32"/>
<path d="M105.902 135.157C114.86 129.826 120.605 121.039 124.402 111.562C124.11 111.463 123.818 111.463 123.623 111.463C120.605 110.871 117.489 110.871 114.47 110.673C102.007 109.785 89.8349 106.231 79.9029 98.3326C75.229 94.6798 71.2367 90.2371 68.8024 84.8073C67.6339 82.3391 66.8549 79.5748 66.368 76.8105C65.9785 74.3424 65.2969 72.0717 63.6416 70.1959C63.3495 69.6035 63.0573 69.1099 62.6678 68.6163C61.0125 66.7405 59.5519 64.766 56.8255 64.5685C54.9754 64.4698 53.0279 66.7405 51.7621 67.8265C49.4251 69.801 47.4776 72.1704 45.5302 74.5398C41.9274 79.0812 39.2009 84.2149 38.5193 89.941C37.7403 95.7657 39.1036 101.788 40.5642 107.317C43.5827 118.67 52.6384 128.345 62.5705 133.874C69.9708 138.02 78.3449 140.39 86.719 140.686C93.3404 140.093 99.9617 138.613 105.902 135.157Z" fill="#5A9F2E"/>
<path d="M149.622 98.5302C149.525 95.0748 148.746 87.5717 143.78 88.2627C141.248 88.5589 138.814 89.7436 136.574 91.027C133.653 92.7054 130.732 94.3837 127.81 96.1608C120.702 100.307 113.886 104.947 107.167 109.686C97.3326 108.107 87.7901 104.552 79.8055 98.234C75.1316 94.5812 71.1393 90.1385 68.7049 84.7086C67.5365 82.2405 66.7575 79.4762 66.2706 76.7119C65.8811 74.2437 65.1995 71.973 63.5442 70.0973C63.2521 69.5049 62.9599 69.0113 62.5704 68.5177C60.9151 66.6419 59.4545 64.6674 56.7281 64.4699C54.878 64.3712 52.9305 66.6419 51.6647 67.7279C49.3277 69.7024 47.3802 72.0718 45.4328 74.4412C41.83 78.9826 39.1035 84.1163 38.4219 89.8424C37.6429 95.6672 39.0062 101.689 40.4667 107.218C41.9273 112.845 44.9459 118.078 48.8408 122.619C50.1067 122.915 51.3725 123.113 52.6384 123.508C55.9491 124.495 58.4808 126.568 60.5256 129.333C61.7915 131.011 62.9599 132.887 64.1284 134.762C68.2181 136.836 72.5025 138.415 76.9817 139.402C77.6633 139.106 78.2475 138.81 78.8317 138.415C81.1687 137.132 83.4083 135.256 86.0374 134.466C88.4717 133.775 90.8086 134.17 93.243 134.861C95.6773 135.552 98.209 136.342 100.741 136.145C103.078 135.947 105.415 134.96 107.849 135.355C110.186 135.651 112.62 136.934 115.055 136.737C118.073 136.441 120.41 134.664 122.455 132.492C124.013 130.715 125.668 128.74 127.908 127.95C129.563 127.358 131.511 127.259 133.069 128.148C134.042 128.74 134.821 129.431 135.503 130.32C135.99 129.925 136.477 129.53 136.866 129.036C141.053 125.186 144.559 120.842 146.798 115.61C148.843 110.476 149.914 104.355 149.622 98.5302Z" fill="#7CC244"/>
<path d="M135.308 101.196C135.795 101.097 136.184 101.097 136.671 100.998C138.229 100.406 139.69 99.7149 141.053 98.7276C143.001 97.3455 144.656 95.4697 146.019 93.4952C147.674 91.2245 149.038 88.8551 149.33 85.9921C149.817 82.1418 148.648 78.2915 150.011 74.5399C152.348 68.5177 155.562 59.3362 150.109 54.2025C147.48 51.7344 143.974 50.5497 140.858 48.8713C137.45 46.9955 135.211 43.3427 132.192 40.9733C129.076 38.4064 125.376 36.6294 121.384 36.1358C113.204 35.1485 105.707 39.8873 97.43 38.8013C90.127 37.7154 82.1424 36.5307 76.7869 43.0465C72.9893 47.7853 69.4839 53.0178 65.7837 57.8553C58.286 67.6291 54.5858 79.0813 61.6941 90.336C61.5967 89.8424 61.5967 89.25 61.3046 88.6576C62.473 91.0271 67.9259 92.5079 70.2629 93.199C73.4762 94.1863 76.7869 94.7786 80.0976 95.4697C87.8874 97.148 95.4825 99.2213 103.272 100.603C107.752 101.393 112.328 102.084 116.905 102.282C123.136 102.479 129.271 101.986 135.308 101.196Z" fill="#65B331"/>
<path d="M150.109 60.9156C142.611 66.2468 132.971 62.7914 124.305 63.1863C126.642 62.4952 129.076 61.9029 131.511 61.2118C134.529 60.422 137.353 59.2373 140.177 57.8551C141.93 57.0653 144.461 56.0781 145.435 54.301C145.532 54.2023 145.338 54.1036 145.24 54.2023C144.461 55.1895 143.001 55.6832 141.93 56.1768C140.372 56.8679 138.716 57.3615 137.061 57.8551C134.724 58.5462 132.29 59.2373 129.855 59.8296C130.926 59.0398 131.998 58.1513 133.166 57.2628C134.627 56.0781 135.99 54.8934 137.353 53.7087C138.132 53.0176 139.203 52.4252 139.787 51.438C139.885 51.3392 139.69 51.2405 139.69 51.3392C138.716 52.4252 137.256 52.9189 135.99 53.7087C134.627 54.4985 133.361 55.5844 132.095 56.5717C130.926 57.4602 129.855 58.4475 128.784 59.4347C128.395 59.8296 127.908 60.2245 127.421 60.5207C124.695 61.4092 121.968 62.2978 119.436 63.4825C118.171 64.0748 116.905 64.4697 115.541 64.9633C115.055 65.1608 114.665 65.457 114.373 65.7532C114.665 62.8901 115.055 60.0271 115.639 57.2628C116.71 56.0781 118.268 55.0908 119.631 54.3997C121.384 53.5112 123.137 52.3265 124.792 51.3392C127.908 49.4635 129.855 47.094 131.413 43.9348C131.511 43.8361 131.316 43.8361 131.316 43.8361C130.05 45.7119 128.687 47.1928 126.837 48.4762C125.084 49.6609 123.137 50.4507 121.384 51.5367C119.826 52.5239 118.171 53.7087 117.002 55.0908C116.613 55.4857 116.32 55.8806 115.931 56.2755C116.32 54.5972 116.807 52.9189 117.392 51.2405C118.268 48.8711 119.436 46.6992 120.702 44.5272C121.773 42.6514 123.429 41.0718 124.402 39.2947C124.402 39.196 124.305 39.196 124.305 39.2947C123.818 40.0846 122.844 40.8744 122.163 41.5654C121.384 42.454 120.702 43.4412 120.021 44.4285C118.755 46.2055 117.684 47.9826 116.807 49.9571C116.905 49.266 117.002 48.6737 117.002 47.9826C117.099 45.1195 117.684 41.9603 116.613 39.2947C116.613 39.196 116.515 39.2948 116.515 39.3935C117.197 42.454 116.126 46.0081 115.736 49.0686C115.347 52.2278 114.568 55.1895 114.373 58.3487V58.4475C114.373 58.0526 114.276 57.6577 114.178 57.2628C113.691 55.1895 113.107 53.4125 112.036 51.438C111.062 49.4635 110.478 47.489 109.796 45.4157C109.407 44.231 109.212 42.9476 109.017 41.6642C108.92 41.0718 109.017 40.3807 108.628 39.8871C108.628 39.7884 108.531 39.8871 108.531 39.9858C108.725 40.6769 108.433 41.7629 108.336 42.454C108.238 43.4412 108.238 44.5272 108.336 45.5144C108.531 47.5877 109.017 49.5622 109.796 51.5367C110.575 53.4125 111.841 54.7946 112.62 56.6704C113.107 57.8551 113.789 59.1385 113.691 60.422C113.691 60.8169 113.691 61.2118 113.691 61.6067C113.497 63.4825 113.302 65.457 113.497 67.234C113.497 67.5302 113.983 67.4315 114.081 67.234C115.152 66.1481 116.223 65.9506 117.684 65.5557C119.144 65.1608 120.507 64.5685 121.968 64.0748C122.065 64.0748 122.163 63.9761 122.358 63.9761C131.511 63.9761 143.585 70.0971 150.304 61.2118C150.206 60.9156 150.206 60.8169 150.109 60.9156Z" fill="#83BB28"/>
<path d="M102.493 69.8009C101.52 67.0366 100.449 64.4698 99.8643 61.508C99.28 58.7437 98.8905 55.9794 98.0142 53.3138C97.8194 52.7214 97.6247 52.1291 97.3326 51.5367C97.2352 50.1546 97.0404 48.7724 96.8457 47.3903C96.651 46.0081 96.4562 44.626 95.9693 43.3425C95.6772 42.5527 95.3851 41.7629 95.093 41.0719C94.7035 40.3808 94.1193 39.8872 93.7298 39.2948C93.6324 39.1961 93.535 39.2948 93.535 39.3935C94.0219 40.9731 94.7035 42.3553 94.9956 43.9349C95.1904 45.2183 95.3851 46.6005 95.4825 47.9826C95.093 47.3903 94.6061 46.6992 94.1193 46.2056C92.0744 43.7374 88.9585 42.6515 86.9137 40.1833C86.8163 40.0846 86.7189 40.2821 86.8163 40.2821C88.1795 42.7502 90.5165 44.2311 92.1718 46.403C94.1193 48.9699 95.4825 51.8329 96.3588 54.8934V54.9921C96.5536 55.6832 96.651 56.3743 96.8457 57.1641C95.093 55.387 92.6587 54.3011 90.5165 53.1164C89.7375 52.7215 89.0559 52.2278 88.2769 51.7342C86.1347 48.3775 83.7003 45.2183 82.2397 41.5655C82.2397 41.4668 82.1424 41.5655 82.1424 41.6642C82.6292 43.9349 83.4082 46.8966 84.7714 49.3648C84.5767 49.2661 84.4793 49.1673 84.2846 49.0686C82.4345 47.6865 79.9028 45.9094 79.2212 43.54C79.2212 43.4413 79.0264 43.54 79.0264 43.6387C79.4159 47.6865 83.7977 50.7469 86.7189 52.9189C90.2243 55.4858 94.6061 56.3743 97.3326 59.6322C97.6247 60.9157 97.9168 62.1991 98.2089 63.4825C98.7932 65.8519 99.5721 68.8137 101.714 70.2946C102.201 70.492 102.591 70.0971 102.493 69.8009Z" fill="#83BB28"/>
<path d="M146.798 74.9348C147.48 72.8616 147.772 70.7884 147.675 68.6164C147.48 65.8521 146.701 63.2852 144.948 61.1133C143.39 59.3362 141.345 57.5592 139.008 56.8681C136.769 56.177 134.334 56.4732 132.095 55.7821C130.05 55.091 128.297 54.0051 126.642 52.6229C124.792 51.142 123.137 49.365 121.092 48.0815C119.047 46.7981 116.71 45.8108 114.373 45.2185C109.212 43.7376 103.565 43.0465 98.2091 43.244C97.917 43.244 97.6248 43.244 97.4301 43.244C96.7485 43.3427 96.0669 43.3427 95.3853 43.4414C94.022 43.6389 92.5614 43.8363 91.1982 44.1325C90.7113 44.2312 90.2245 44.33 89.7376 44.5274C86.9138 45.4159 84.2847 46.6006 81.5583 47.6866C80.0977 48.279 78.4423 48.9701 76.8844 48.279C75.8133 47.7854 75.0343 46.7981 74.6448 45.6134C71.6262 49.5624 68.705 53.8076 65.6865 57.7566C58.1887 67.5304 54.4886 78.9826 61.5968 90.2373C61.4994 89.7436 61.4994 89.1513 61.2073 88.5589C62.3758 90.9283 67.8287 92.4092 70.1656 93.1003C73.3789 94.0876 76.6896 94.6799 80.0003 95.371C87.7902 97.0493 95.3853 99.1226 103.175 100.505C107.654 101.295 112.231 101.986 116.807 102.183C120.313 102.381 123.721 102.282 127.226 101.986C128.589 101.591 129.953 101.196 131.316 100.702C133.848 99.7149 136.185 98.4315 138.619 97.0493C140.956 95.6672 143.488 94.0876 144.267 91.2245C144.851 89.1513 144.559 87.078 144.364 85.0048C144.169 83.0303 144.072 80.8584 144.656 78.9826C145.338 77.5017 146.117 76.2183 146.798 74.9348Z" fill="#51A71C"/>
<path d="M144.266 81.6483C143.877 79.1802 143.098 76.7121 142.124 74.4414C141.15 72.072 139.69 69.2089 137.937 67.3331C134.334 63.3841 130.147 60.5211 125.376 58.3491C114.762 53.5116 102.98 52.2282 91.3928 52.6231C86.3294 52.8205 81.266 53.8078 76.6895 56.0784C72.0156 58.4479 67.2443 61.8045 63.3494 65.3586C61.9861 66.6421 60.4282 68.3204 59.3571 70.0974C59.4544 69.7025 59.5518 69.4064 59.6492 69.0115C60.0387 67.728 60.7203 66.6421 61.2071 65.4574C61.2071 65.3586 61.1098 65.3586 61.1098 65.4574C60.5255 66.6421 59.8439 67.728 59.3571 69.0115C58.8702 70.2949 58.4807 71.5783 58.0912 72.9605C58.0912 73.0592 58.0912 73.0592 57.9938 73.1579C57.7017 73.9477 57.3122 74.8363 57.0201 75.6261C56.8254 76.1197 56.8254 76.712 56.8254 77.3044C56.5332 78.5878 56.2411 79.8713 56.1437 81.2534C55.4621 86.5846 56.0464 92.3106 57.4096 97.4444C58.8702 102.677 61.1098 107.317 64.3231 111.661C67.6338 116.103 71.7234 119.361 76.5921 121.83C95.7746 131.505 125.084 129.234 138.911 111.76C142.124 107.712 146.311 99.4189 147.674 94.2852C149.038 89.1515 145.143 86.782 144.266 81.6483Z" fill="#65B331"/>
<path d="M125.473 58.3492C123.331 57.362 121.189 56.5722 119.047 55.8811C111.549 57.7569 104.246 60.5212 97.6247 64.3715C89.1533 69.3077 81.1687 76.1198 76.3974 84.9064C74.0605 89.2503 72.3077 94.384 72.4051 99.419C72.5025 104.553 74.5473 109.39 78.1501 113.043C81.8503 116.893 87.1084 119.954 92.5613 119.954C98.0142 119.954 103.175 117.584 108.725 118.078C111.16 118.276 113.691 118.868 116.223 118.868C118.949 118.868 121.579 118.078 123.721 116.4C125.668 115.018 127.031 113.043 128.103 110.97C129.076 109.094 129.466 106.626 130.926 105.046C132.387 103.368 134.724 102.381 136.671 101.295C138.814 100.11 140.956 98.8266 142.611 96.9509C143.195 96.1611 143.78 95.3713 144.169 94.5815C144.948 90.3363 145.143 85.9923 144.461 81.7472C144.072 79.279 143.293 76.8109 142.319 74.5402C141.345 72.1708 139.885 69.3078 138.132 67.432C134.432 63.2855 130.245 60.5212 125.473 58.3492Z" fill="#ADC90E"/>
<path d="M129.563 62.6933C128.589 57.8558 125.863 54.3017 121.676 51.7348C115.347 47.8845 108.823 46.0087 101.52 46.1075C98.3064 46.1075 94.8983 46.996 91.8797 48.3781C90.906 48.8718 89.9323 49.3654 89.0559 50.0565C87.3032 51.0437 85.3557 52.1297 83.8951 53.6106C83.7978 53.7093 83.7004 53.7093 83.603 53.808C83.603 53.808 83.7004 53.8081 83.7004 53.7093C82.0451 55.4864 80.6818 57.7571 79.5134 59.929C77.1764 63.9768 77.858 70.0977 79.1239 74.3429C80.7792 79.7728 83.8952 83.4257 88.3743 86.7823C90.4191 88.2632 92.5614 89.5466 94.8983 90.6326C97.43 91.7186 100.156 91.9161 102.883 91.8173C112.231 91.6199 122.844 86.6836 126.642 77.6009C128.784 72.7633 130.634 68.1232 129.563 62.6933Z" fill="#9DC41A"/>
<path d="M116.32 65.4574C113.497 68.814 109.991 71.6771 106.583 74.4414C105.122 75.6261 103.565 76.6133 102.007 77.6993C101.52 77.9955 101.033 78.3904 100.546 78.7853C100.935 76.6133 101.422 74.4414 101.909 72.2694C102.007 71.8745 102.104 71.3809 102.299 70.986C104.343 70.0975 106.096 68.6166 107.849 67.3331C109.699 65.951 111.744 64.5688 113.399 62.9892C113.497 62.8905 113.399 62.7918 113.302 62.8905C111.452 64.4701 109.115 65.6548 107.07 66.9382C105.609 67.8268 103.954 68.6166 102.688 69.8013C103.467 67.2344 104.246 64.7663 105.122 62.2982C105.122 62.1994 105.122 62.1994 105.22 62.1007C106.973 60.7186 108.823 59.4351 110.575 57.8555C112.425 56.2759 114.081 54.4001 115.639 52.4256C115.639 52.4256 115.639 52.3269 115.541 52.4256C112.523 55.2887 108.628 57.5593 105.804 60.6198C106.388 58.9415 107.07 57.2632 107.849 55.6836C108.823 53.6103 110.283 51.7345 111.16 49.6613C111.16 49.5626 111.062 49.5626 111.062 49.6613C110.186 51.1422 109.017 52.4256 108.044 53.9065C108.238 53.5116 108.336 53.018 108.531 52.6231C108.531 52.5243 108.433 52.5243 108.433 52.6231C107.362 54.4988 106.486 56.4733 105.609 58.4479C105.609 57.6581 105.512 56.967 105.415 56.1772C105.22 54.104 105.512 52.0307 105.415 49.9575C105.415 49.8588 105.317 49.9575 105.317 49.9575C104.928 53.2154 103.759 57.1644 104.83 60.4224C104.246 61.7058 103.759 63.088 103.272 64.4701C102.883 62.002 102.493 59.5338 102.299 56.967C102.104 53.6103 101.617 49.0689 103.175 45.9097C103.175 45.811 103.175 45.811 103.078 45.9097C101.228 48.674 100.838 52.6231 100.838 55.881C100.838 59.3364 101.422 62.4956 102.688 65.5561C102.201 67.037 101.714 68.4191 101.325 69.9C101.13 70.6898 100.838 71.4796 100.643 72.3681C100.449 69.4064 99.767 66.3459 99.4748 63.3841C99.4748 63.2854 99.3775 63.3841 99.3775 63.3841C99.0853 67.1357 98.6958 71.1834 100.059 74.7375C99.4748 77.3044 99.0853 79.97 98.7932 82.6356C98.0142 80.5623 97.3326 78.4891 96.7484 76.3172C96.3589 74.935 96.0668 73.5528 95.872 72.1707C95.6773 70.986 95.2878 69.3077 95.5799 68.1229C95.5799 68.0242 95.4825 68.1229 95.4825 68.1229C94.6062 70.2949 95.1904 73.849 95.5799 76.021C96.0668 78.4891 96.7484 82.4381 98.6958 84.4127C98.5985 85.9923 98.6958 87.4731 98.7932 88.954C98.7932 89.1514 99.1827 88.954 99.1827 88.8553C99.4748 86.091 99.8643 83.4254 100.254 80.6611C101.13 80.5623 102.201 79.6738 102.786 79.2789C104.538 77.9955 106.194 76.9095 107.849 75.4286C111.062 72.5656 114.178 69.2089 116.515 65.6548C116.613 65.4574 116.418 65.3586 116.32 65.4574Z" fill="#C8DF46"/>
<path d="M129.563 62.6935C128.589 57.856 125.863 54.3019 121.676 51.735C120.507 51.0439 119.242 50.3529 118.073 49.7605C117.684 49.9579 117.391 50.2541 117.197 50.649C116.612 51.6363 116.515 52.821 116.515 53.907C116.515 56.3751 116.905 58.8432 115.736 61.1139C115.152 62.2986 114.373 63.2859 113.399 64.0757C112.231 64.9642 110.867 65.3591 109.504 65.8527C107.849 66.3463 106.096 67.0374 105.22 68.617C104.441 69.9992 104.538 71.4801 104.538 72.961C104.538 74.6393 104.441 76.7125 103.272 78.0947C102.493 79.0819 101.325 79.5756 99.9617 79.773C98.4037 79.9705 96.7483 79.8717 95.093 79.8717C93.1455 79.9705 91.1981 80.2666 89.348 80.9577C87.6926 81.5501 86.0373 82.4386 84.6741 83.6233C85.8425 84.7093 87.011 85.7953 88.4716 86.7825C90.5165 88.2634 92.6587 89.5468 94.9956 90.6328C97.5273 91.7188 100.254 91.9162 102.98 91.8175C112.328 91.6201 122.942 86.6838 126.739 77.601C128.784 72.7635 130.634 68.1234 129.563 62.6935Z" fill="#ADC90E"/>
<path d="M137.45 68.7153C136.477 64.5689 134.334 61.3109 131.705 57.9543C130.439 56.2759 128.881 54.7951 127.226 53.5116C126.058 52.6231 124.11 50.846 122.65 50.6486C120.994 50.3524 120.215 49.5626 118.657 50.7473C118.365 50.9448 118.073 51.2409 117.781 51.5371C117.391 52.1295 117.197 52.8206 117.489 53.7091C118.17 55.5849 118.852 57.4606 118.755 59.5339C118.657 61.1135 118.17 62.5944 117.197 63.7791C115.833 65.3587 114.081 66.2472 112.328 67.1357C110.77 67.9255 108.92 68.7153 107.751 70.0975C106.388 71.7758 106.583 73.7503 106.68 75.8236C106.68 77.2057 106.68 78.6866 105.707 79.7726C104.636 80.9573 102.98 81.5496 101.617 82.142C99.7669 82.9318 97.8194 83.8203 96.8457 85.6961C95.1903 88.6579 95.4824 93.0018 92.4639 95.075C91.198 95.9635 89.6401 96.161 88.1795 95.9635C86.0372 95.6674 84.3819 94.7788 82.7266 93.3967C81.266 92.1132 79.4159 90.04 77.371 90.2375C75.9104 90.3362 74.4498 91.4222 73.3787 92.4094C73.0866 92.6069 72.8919 92.9031 72.5998 93.1005C72.6971 96.0623 73.6709 99.024 75.4236 101.393C76.9815 103.565 79.2211 104.849 81.3633 106.33C91.977 113.932 107.459 114.326 118.852 108.403C122.065 106.725 125.473 104.553 128.102 102.085C130.731 99.6164 133.263 96.2597 134.724 92.903C138.132 85.005 139.398 77.0083 137.45 68.7153Z" fill="#ADC90E"/>
<path d="M135.406 87.572C133.945 89.349 132.387 90.7312 130.537 92.0146L130.44 92.1133C129.271 92.7057 128.103 93.2981 126.934 93.7917C127.713 92.607 128.395 91.3235 128.979 90.0401C129.563 88.6579 130.05 87.2758 130.537 85.8937C131.608 85.0051 132.484 83.623 133.263 82.4383C135.016 80.2663 136.379 77.7982 136.866 74.9351C136.866 74.8364 136.769 74.9351 136.769 74.9351C136.477 75.6262 136.185 76.2186 135.892 76.8109C134.919 78.3905 133.945 79.8714 132.777 81.2535C132.679 81.3523 132.679 81.451 132.582 81.451C132.095 81.9446 131.608 82.4383 131.121 82.9319C131.705 79.7727 131.803 76.6135 131.608 73.4543C131.511 72.0721 131.413 70.7887 131.219 69.5052C131.705 68.8142 131.998 67.8269 132.192 67.0371C132.387 66.2473 132.679 65.5562 132.777 64.7664C132.777 64.6677 132.679 64.7664 132.679 64.7664C132.484 65.5562 131.998 66.2473 131.705 66.9384C131.511 67.3333 131.219 67.7282 131.024 68.2218C130.829 67.0371 130.537 65.9511 130.147 64.7664C129.174 61.9034 127.713 59.4352 126.545 56.7697C126.545 56.6709 126.447 56.7697 126.447 56.8684C127.129 59.0403 128.2 61.1136 128.882 63.2855C129.563 65.5562 130.147 67.8269 130.44 70.1963C130.537 71.4797 130.537 72.6644 130.537 73.9479C130.44 73.553 130.245 73.2568 130.147 72.8619C129.661 71.6772 128.882 70.5912 128.103 69.5052C126.155 66.9384 124.305 64.2728 121.871 62.0021C121.871 62.0021 121.773 62.0021 121.773 62.1008C123.818 64.569 125.376 67.5307 127.226 70.1963C128.395 71.9734 129.271 74.0466 130.44 75.8237C130.342 79.1803 129.855 82.537 128.979 85.7949C128.979 85.8937 128.979 85.8936 128.882 85.9924C128.784 86.486 128.589 86.9796 128.395 87.3745C128.103 88.3618 127.713 89.349 127.226 90.2376C126.058 88.5592 124.889 86.7822 123.818 85.0051C123.623 84.6102 123.429 84.314 123.234 83.9191C122.065 81.6485 120.897 79.1803 119.729 76.9096C119.631 76.6135 119.534 76.416 119.339 76.1198H119.242C118.852 75.4287 118.463 74.7377 118.073 74.0466C118.073 74.0466 117.976 74.0466 117.976 74.1453C118.657 75.7249 118.95 77.4032 119.534 79.0816C120.215 80.8586 120.897 82.537 121.579 84.2153C122.26 85.7949 122.942 87.3745 123.818 88.8554C123.916 89.0529 124.11 89.349 124.208 89.5465C124.305 89.6452 124.305 89.8426 124.402 89.9414C124.792 90.7312 125.181 91.9159 125.766 92.7057C123.721 96.1611 121.092 99.2216 118.268 102.085C118.268 101.986 118.171 101.986 118.073 101.986C117.294 101.097 116.905 99.6165 116.32 98.5305C115.541 97.0496 115.055 95.3713 114.568 93.7917C113.984 91.9159 113.302 90.0401 112.815 88.0656C112.328 86.1898 112.231 84.1166 111.647 82.2408C111.647 82.1421 111.549 82.2408 111.549 82.2408C111.549 82.537 111.647 82.8331 111.647 83.0306C111.549 82.6357 111.452 82.3395 111.452 81.9446C111.452 81.8459 111.354 81.9446 111.354 81.9446C112.036 89.1516 113.01 97.0496 116.71 103.368C114.665 104.948 112.523 106.33 110.283 107.416C110.478 105.343 109.894 102.973 109.699 100.9C109.407 98.6292 108.823 96.3585 108.725 93.9891C108.725 93.8904 108.628 93.9891 108.628 93.9891C107.752 97.9381 107.946 102.183 109.115 106.132C109.212 106.823 109.407 107.416 109.602 107.712C108.823 108.107 108.141 108.403 107.362 108.798C107.167 108.897 107.167 109.094 107.362 109.094C108.239 108.798 109.115 108.403 109.894 108.107C109.991 108.107 110.089 108.107 110.186 108.008C111.16 107.515 112.133 107.021 113.107 106.527C113.984 106.231 114.763 105.836 115.541 105.441C117.197 104.651 118.56 103.565 120.313 102.874C123.818 101.591 126.837 100.011 129.661 97.4445V97.3458C128.2 98.333 126.642 99.2216 125.084 99.9126C123.526 100.308 121.968 100.604 120.41 101.097C121.968 99.6165 123.331 98.0369 124.695 96.3585C124.695 96.3585 124.695 96.3585 124.792 96.3585C127.129 95.3713 129.174 94.0878 131.219 92.607C133.556 91.3235 134.627 89.7439 135.406 87.572C135.6 87.4732 135.503 87.4732 135.406 87.572Z" fill="#C3D84F"/>
<path d="M110.478 108.6C109.017 108.6 106.972 108.501 105.804 107.316C105.025 106.428 104.83 105.243 104.928 104.157C105.025 102.676 105.512 101.195 105.512 99.6159C105.609 97.5426 104.928 95.6668 103.467 94.186C102.006 92.8038 100.351 91.7178 99.4747 89.842C98.4036 87.6701 99.3774 85.6956 99.5721 83.4249C99.6695 81.944 99.5721 80.3644 99.0852 78.9823C98.5984 77.7976 97.9168 76.8103 97.2351 75.823C96.0667 74.1447 95.0929 72.2689 95.4824 70.097C96.2614 65.8518 101.52 63.7785 100.935 59.1385C100.838 57.9537 100.546 56.769 101.033 55.6831C101.422 54.6958 102.201 54.0047 102.688 53.1162C103.467 51.734 103.954 50.2532 103.759 48.5748C103.662 47.6863 103.467 46.8965 103.175 46.1067C102.591 46.1067 102.006 46.1067 101.422 46.1067C98.2089 46.1067 94.8008 46.9952 91.7823 48.3774C90.8085 48.871 89.8348 49.3646 88.9584 50.0557C87.2057 51.043 85.2583 52.1289 83.7977 53.6098C83.7003 53.7085 83.6029 53.7085 83.5055 53.8073C83.5055 53.8073 83.6029 53.8073 83.6029 53.7086C81.9476 55.4856 80.5844 57.7563 79.4159 59.9282C77.0789 63.976 77.7605 70.097 79.0264 74.3422C80.6817 79.772 83.7977 83.4249 88.2768 86.7816C90.3217 88.2624 92.4639 89.5459 94.7035 90.5331C94.2166 92.2114 93.535 93.6923 92.0744 94.6796C90.8085 95.5681 89.2506 95.7656 87.79 95.5681C85.6478 95.2719 83.9924 94.3834 82.3371 93.0012C80.8765 91.7178 79.0264 89.6446 76.9815 89.842C75.521 89.9408 74.0604 91.0267 72.9893 92.014C72.6971 92.2114 72.5024 92.5076 72.2103 92.7051C72.3076 95.6668 73.2814 98.6286 75.0341 100.998C76.5921 103.17 78.8316 104.453 80.9738 105.934C91.5875 113.536 107.07 113.931 118.462 108.008C121.676 106.329 125.084 104.157 127.713 101.689C129.368 100.109 131.024 98.135 132.387 96.0617C126.934 102.775 119.436 108.699 110.478 108.6Z" fill="#ADC90E"/>
<path d="M98.4037 92.014C96.1642 88.8547 97.7221 86.3866 98.4037 82.9312C98.5011 82.6351 98.5011 82.3389 98.5011 82.1414C98.5011 82.0427 98.5011 82.0427 98.4037 81.944C97.3326 79.6733 95.6773 77.7975 94.3141 75.7243C93.243 73.9472 92.2692 71.9727 92.6587 69.8995C92.9509 68.1224 93.9246 66.7403 94.9957 65.3581C96.2615 63.8772 97.8195 62.5938 98.7932 60.8167C99.0854 60.2244 99.5722 59.5333 99.4749 58.7435C99.4749 58.2499 99.2801 57.855 99.1827 57.3613C98.988 56.4728 98.8906 55.5843 99.2801 54.7945C99.5722 54.0047 100.351 53.4123 100.935 52.82C101.909 51.8327 102.883 50.5493 103.175 49.1671C103.565 47.3901 102.98 45.7118 102.007 44.2309C99.3775 43.6385 96.3589 44.527 93.9246 44.9219C74.7421 48.2786 58.1887 65.6543 63.7389 86.1892C67.7312 100.998 79.1239 109.686 93.9246 111.364C95.4826 111.562 97.43 111.956 98.4037 110.574C100.741 107.218 102.883 103.071 102.396 98.826C102.104 95.963 100.059 94.1859 98.4037 92.014Z" fill="#9DC41A"/>
<path d="M93.9245 95.5689C93.6324 96.1612 93.1456 96.5561 92.7561 97.0497C92.2692 97.6421 91.8797 98.2344 91.3928 98.8268C91.1007 99.2217 90.8086 99.5179 90.5165 100.012C91.0034 98.4319 91.2955 96.7536 91.5876 95.174C91.5876 95.0752 91.3928 95.0752 91.3928 95.174C90.127 99.123 88.2769 102.875 86.3294 106.429C85.161 105.639 83.8951 104.849 82.7266 104.059C81.6555 103.072 80.4871 101.986 79.5133 100.9C79.8055 100.406 80.1949 99.9128 80.4871 99.4191C80.5844 99.2217 80.6818 99.123 80.8766 98.9255C85.3557 97.1485 89.6401 93.1995 91.3928 88.6581C91.3928 88.5594 91.2955 88.5594 91.2955 88.6581C89.8349 91.2249 87.4979 93.1007 85.4531 95.0752C84.382 96.0625 83.2135 96.7536 81.9477 97.4446C82.824 96.2599 83.603 94.9765 84.382 93.6931C85.5505 91.7186 86.9137 89.8428 87.8874 87.7696C88.8612 85.7951 89.348 83.6231 90.0296 81.5498C90.0296 81.4511 90.0296 81.4511 90.0296 81.4511C90.2244 80.7601 90.5165 80.069 90.7112 79.3779C90.7112 79.2792 90.6139 79.2792 90.6139 79.3779C89.1533 82.8333 87.4979 86.4861 85.5505 89.8428C85.161 90.4352 84.6741 90.9288 84.2846 91.5211C84.8689 88.5594 85.3557 85.5976 85.7452 82.6358H85.6478C84.7715 85.795 83.3109 89.2504 83.4083 92.6071C82.5319 93.6931 81.5582 94.8778 80.6818 95.9638C80.0002 96.8523 79.2212 97.8396 78.3449 98.6294C78.2475 98.7281 78.0527 98.9255 77.858 99.123C77.6632 98.9255 77.4685 98.7281 77.3711 98.5306C74.5473 95.3714 72.3077 91.8173 70.7498 87.8683C70.555 87.4734 70.4576 87.0785 70.3603 86.7823C72.0156 85.8938 73.5736 84.8078 75.0342 83.6231C75.6184 83.6231 76.2027 83.5243 76.6895 83.5243C78.0527 83.4256 79.416 83.0307 80.6818 82.5371C83.603 81.3524 86.5242 79.5753 88.9585 77.6008C89.0559 77.5021 88.9585 77.4034 88.8612 77.5021C86.6216 78.983 84.1872 80.069 81.7529 81.1549C80.0976 81.846 78.0527 82.5371 76.1053 82.7346C76.9816 82.0435 77.7606 81.3524 78.637 80.6613C82.2398 77.6996 85.6478 74.6391 88.569 70.9862C88.6664 70.8875 88.569 70.7888 88.4717 70.8875C86.4268 72.9607 84.1872 74.8365 81.9477 76.6136C80.4871 77.5021 78.1501 78.983 75.8132 80.3652C77.5659 76.5149 79.8055 72.7633 82.2398 69.4066C82.2398 69.3079 82.2398 69.3079 82.1424 69.3079C79.2212 72.5658 76.1053 76.3174 75.1315 80.7601C72.9893 82.0435 70.8471 83.3269 69.5813 84.018C68.7049 81.0562 68.2181 78.0945 68.3154 74.8365C68.3154 74.7378 68.3154 74.6391 68.3154 74.5404C68.5102 73.2569 68.7049 72.0722 68.997 70.8875C72.0156 69.1105 75.2289 67.6296 78.2475 65.9512C80.2923 65.9512 82.3372 65.0627 84.2846 64.5691C87.0111 63.878 89.5428 62.8908 92.0745 61.8048C92.1718 61.8048 92.1718 61.6073 92.0745 61.706C89.5428 62.3971 86.9137 63.0882 84.382 63.6806C83.1161 63.9767 81.7529 64.2729 80.4871 64.5691C80.8766 64.3716 81.1687 64.0755 81.5582 63.878C83.603 62.4958 85.7452 61.3112 87.79 59.8303C89.6401 58.4481 91.685 57.1647 93.2429 55.3876C93.3403 55.2889 93.2429 55.1902 93.1456 55.2889C91.4902 56.7698 89.2506 57.6583 87.3032 58.843C86.2321 59.5341 85.0636 60.1264 83.9925 60.7188C85.94 58.1519 87.6927 55.2889 90.0296 52.9195C90.0296 52.9195 90.0296 52.8208 89.9323 52.8208C87.1084 55.3876 84.4794 58.0532 82.6293 61.4099C82.045 61.706 81.4608 62.101 80.8766 62.4959C80.5844 62.6933 80.1949 62.8908 79.9028 63.0882C79.3186 63.3844 78.637 63.6806 77.9554 63.9767C76.6895 64.5691 75.4237 65.1614 74.1578 65.6551C74.6447 64.8653 75.1315 63.9767 75.6184 63.1869C76.9816 61.1137 78.8317 59.4354 80.3897 57.5596C80.4871 57.4609 80.3897 57.4609 80.2923 57.4609C78.5396 59.2379 76.4948 60.7188 74.9368 62.6933C74.0604 63.7793 73.0867 64.964 72.5025 66.3461C71.7235 66.741 70.9445 67.136 70.0681 67.5309C71.5287 63.878 73.7683 60.6201 76.6895 57.8558C79.0265 55.5851 81.6555 53.5118 84.382 51.6361C85.7452 50.5501 87.3032 49.7603 88.8612 48.9705C89.9323 48.4769 91.1007 48.2794 92.1718 47.5883C92.2692 47.4896 92.2692 47.3909 92.0745 47.3909C90.906 47.9832 89.4454 48.1807 88.1795 48.5756C86.7189 49.0692 85.2583 49.859 83.8951 50.6488C83.2135 51.0437 82.6293 51.4386 81.9477 51.8335C83.3109 50.5501 84.5767 48.9705 86.1347 47.9832C86.2321 47.9832 86.2321 47.7858 86.1347 47.8845C84.4794 48.6743 83.0188 50.2539 81.6555 51.3399C80.5844 52.2284 79.6107 53.0182 78.7343 54.0055C77.5659 54.894 76.3 55.7825 75.2289 56.7698C71.7235 59.8303 69.2892 63.5818 67.6338 67.827C67.5364 67.1359 67.3417 66.4449 67.1469 65.8525H67.0496H66.9522L66.8548 65.9512C66.9522 65.9512 66.8548 66.3461 66.7575 66.4449C66.6601 66.9385 66.7575 67.4321 66.7575 67.9258C66.7575 68.5181 66.7575 69.1105 66.9522 69.7028C66.5627 70.9862 66.2706 72.171 66.0758 73.5531C65.589 76.6136 65.6864 79.8715 66.2706 82.932C66.1732 82.7346 66.0758 82.6358 65.9785 82.4384C65.1021 81.0562 64.4205 79.5753 63.8363 78.0945C63.8363 77.9957 63.7389 78.0945 63.7389 78.1932C64.3231 81.0562 65.4916 83.3269 66.9522 85.6963C67.7312 88.3619 68.8023 90.83 70.1655 93.1995C71.1392 94.8778 72.3077 96.3587 73.5736 97.8395C71.8209 96.7536 69.9708 95.6676 68.997 93.7918C68.997 93.7918 68.8997 93.7918 68.8997 93.8905C69.776 96.0625 71.8209 97.4446 73.5736 98.8268C75.2289 100.11 76.3974 101.295 78.2475 102.085C78.2475 102.282 78.3449 102.282 78.5396 102.282C78.637 102.381 78.8317 102.48 78.9291 102.578C79.416 102.973 80.0002 103.467 80.4871 103.763C81.0713 104.158 81.5582 104.454 82.1424 104.849C83.2135 105.54 84.2846 106.231 85.3557 106.824L85.4531 106.725C85.0636 106.527 84.6741 106.231 84.2846 106.034C84.9662 106.429 85.7452 106.725 86.4268 107.12C86.4268 107.317 86.6216 107.317 86.7189 107.218C87.2058 107.416 87.79 107.712 88.2769 107.91C88.4717 108.008 88.7638 107.613 88.569 107.515C88.1795 107.218 87.79 107.021 87.3032 106.725C88.4717 105.836 89.4454 103.763 90.0296 102.48C90.127 102.183 90.3217 101.887 90.4191 101.591C91.1981 100.703 91.9771 99.7153 92.7561 98.8268C93.4377 97.9383 94.4114 96.7536 94.6062 95.5689C94.1193 95.4701 94.0219 95.5689 93.9245 95.5689Z" fill="#C1D64E"/>
<g opacity="0.2" style="mix-blend-mode:soft-light">
<path d="M94.1193 46.2061C94.1193 46.2061 72.3077 50.9449 66.4653 68.0244C59.1623 89.5465 74.2552 104.652 88.1795 107.515C88.1795 107.515 91.5876 109.687 92.4639 107.515C93.3403 105.343 96.8457 102.085 87.4979 92.9032C78.1501 83.7217 87.2058 83.3268 84.7715 73.2568C82.3371 63.1868 84.8688 62.3971 92.1718 56.671C99.4748 51.0436 101.909 45.2188 94.1193 46.2061Z" fill="url(#paint0_radial_8002_25654)"/>
</g>
<path d="M137.45 68.7154C136.477 64.569 134.334 61.311 131.705 57.9544C131.316 57.4607 130.829 56.8684 130.342 56.3748C131.511 59.8301 132.484 63.3843 132.874 67.0371C133.555 72.2695 133.068 77.502 131.218 82.4383C128.297 90.1388 122.357 96.556 114.762 99.7152C105.707 103.467 95.7746 102.085 87.011 98.333C82.7266 96.556 79.0264 93.8904 76.2026 90.1388C75.0341 90.5337 73.963 91.3235 73.184 92.1133C72.8919 92.3108 72.6972 92.607 72.4051 92.8044C72.5024 95.7662 73.4762 98.7279 75.2289 101.097C76.7869 103.269 79.0264 104.553 81.1686 106.034C91.7823 113.635 107.265 114.03 118.657 108.107C121.871 106.429 125.279 104.257 127.908 101.788C130.537 99.3203 133.069 95.9636 134.529 92.607C138.132 85.0051 139.398 77.0084 137.45 68.7154Z" fill="#ADC90E"/>
<path d="M145.63 72.96C146.409 68.9122 144.559 65.3581 142.222 62.2976C141.053 60.718 139.593 59.0397 137.84 58.0524C135.892 56.8677 133.555 56.769 131.413 56.5715C131.316 56.5715 131.121 56.6703 130.926 56.769C131.024 56.6703 133.75 62.6925 134.042 63.2849C135.211 66.839 135.308 71.6765 135.308 75.4281C135.308 79.3771 134.627 83.2274 133.069 86.8802C130.05 93.9885 124.013 99.1222 116.807 101.492C113.107 102.676 108.725 103.664 104.83 103.664C101.714 103.664 98.5011 103.367 95.3852 102.775C92.7561 102.281 89.4454 101.886 87.1085 100.406C86.2321 99.8132 84.382 97.6413 83.1162 98.6286C81.6556 99.8133 83.7978 102.775 84.382 103.861C86.0374 107.218 88.5691 110.377 91.7824 112.351C95.5799 114.622 100.351 112.154 104.441 113.931C108.433 115.609 111.646 117.88 116.223 117.584C119.923 117.288 122.942 115.609 125.571 112.944C126.837 111.66 127.713 110.278 128.2 108.501C128.687 106.823 128.2 104.157 129.758 103.17C131.511 102.084 133.458 101.492 135.211 100.406C137.061 99.2209 138.814 98.0362 140.372 96.5553C143.098 93.9885 145.045 90.4343 144.072 86.6828C143.39 84.1159 142.222 81.944 143.293 79.1796C144.169 77.1064 145.24 75.2306 145.63 72.96Z" fill="#83BB28"/>
<path d="M113.204 115.313C114.665 114.228 116.32 112.45 116.613 110.575C117.002 108.107 114.47 108.205 112.718 108.6C110.478 109.094 108.238 109.686 105.901 109.982C101.422 110.673 97.1379 109.785 93.3403 107.218C90.5165 105.243 88.0822 102.677 86.1347 99.7149C85.161 98.9251 83.9925 98.0366 83.1162 98.7276C81.6556 99.9123 83.7978 102.874 84.382 103.96C86.0374 107.317 88.5691 110.476 91.7824 112.45C95.5799 114.721 100.351 112.253 104.441 114.03C106.583 115.017 108.531 116.103 110.673 116.794C111.646 116.301 112.523 115.807 113.204 115.313Z" fill="#ADC90E"/>
<path opacity="0.7" d="M141.929 87.3747C140.566 87.7696 139.398 88.0658 138.132 88.6581C136.574 89.3492 135.308 90.5339 133.847 91.4224C131.316 93.1007 128.979 95.0753 126.35 96.4574C125.279 96.951 124.11 97.5434 123.234 98.1357C122.942 98.3332 123.039 98.9256 123.429 98.7281C126.058 97.2472 128.589 97.1485 131.511 96.951C134.237 96.7536 136.184 96.3587 138.521 95.0753C138.619 95.0753 138.619 94.8778 138.521 94.8778C137.061 95.0752 135.6 95.3714 134.14 95.2727C132.874 95.174 131.511 95.3714 130.245 95.4702C130.147 95.4702 130.147 95.4702 130.05 95.4702C131.024 94.8778 131.9 94.2855 132.874 93.5944C135.698 91.3237 138.716 89.3492 141.929 87.3747Z" fill="#ACCB51"/>
<path opacity="0.7" d="M143.293 71.3808C141.735 72.8617 140.664 74.6388 138.911 75.8235C137.937 76.5146 136.574 77.1069 135.698 78.0942C135.405 78.2916 135.113 78.5878 135.113 78.6865C135.113 78.0942 135.308 77.5018 135.405 77.0082C135.698 75.9222 135.795 74.8362 135.99 73.6515C136.477 72.0719 136.866 70.591 137.353 69.0114C137.937 67.3331 138.814 65.8522 139.398 64.1739C139.398 64.0752 139.398 64.0752 139.3 64.1739C138.619 65.2599 137.84 66.2471 137.158 67.2344C137.256 66.642 137.256 66.0497 137.256 65.4573C137.061 63.6803 136.379 61.9032 136.282 60.1262C136.282 60.0274 136.184 60.1262 136.184 60.1262C135.503 63.2854 135.795 66.5433 135.99 69.8012C135.892 70.2949 135.795 70.6897 135.698 71.1834C135.405 71.9732 135.211 72.763 134.919 73.5528C134.334 75.2311 135.113 77.2056 134.529 78.884C134.529 78.9827 134.529 79.1801 134.724 79.0814C134.821 79.0814 134.919 78.9827 135.016 78.9827C135.016 79.0814 135.113 79.0814 135.211 79.0814C135.892 78.4891 136.963 78.1929 137.84 77.798C138.716 77.4031 139.398 76.8107 140.177 76.2184C141.735 75.0337 142.319 73.2566 143.293 71.3808Z" fill="#ACCB51"/>
<path opacity="0.7" d="M125.376 102.875C123.429 102.677 121.481 102.579 119.534 102.776C117.099 103.072 114.665 102.776 112.231 103.072C110.088 103.27 108.044 103.072 105.901 103.27C104.343 103.467 102.299 103.27 100.838 103.862C100.741 103.862 100.643 104.158 100.838 104.06C103.954 103.665 107.07 104.06 110.186 104.158C110.478 104.158 110.77 104.257 111.062 104.356C112.328 104.652 113.497 104.948 114.762 105.244C116.223 105.54 117.586 106.231 118.852 106.923C120.313 107.712 122.844 108.897 123.234 110.773C123.234 110.97 123.526 110.773 123.526 110.674C123.429 107.515 119.339 105.54 116.905 104.652C116.515 104.553 116.126 104.356 115.736 104.257H115.833C118.949 104.257 122.163 103.27 125.279 102.974C125.376 102.974 125.376 102.875 125.376 102.875Z" fill="#ACCB51"/>
<g opacity="0.2" style="mix-blend-mode:soft-light">
<path d="M141.832 66.5434C140.664 64.174 138.229 62.0021 135.795 61.1135C136.574 63.9766 136.964 66.9383 136.964 69.9988C136.964 75.7249 135.892 81.7471 133.75 87.0783C133.653 87.3745 133.458 87.7694 133.263 88.0655C132.679 89.4477 131.997 90.7311 131.121 92.0146C130.829 92.5082 130.44 92.9031 130.147 93.3967C128.589 95.4699 126.739 97.4445 124.792 99.1228C121.189 102.183 117.002 103.96 112.425 105.145C112.036 105.244 111.549 105.342 111.062 105.441C111.939 105.836 112.912 106.231 113.886 106.527C116.71 107.416 119.631 108.008 122.552 107.317C123.137 107.218 123.721 107.021 124.305 106.823C126.545 104.651 127.031 101.097 129.855 99.7152C132.679 98.333 135.211 97.4445 137.548 95.1738C139.69 93.0018 140.858 89.7439 141.053 86.7821C141.151 85.2025 140.274 83.7216 139.982 82.3395C139.398 79.7726 140.664 77.8968 141.637 75.6261C142.903 72.5657 143.39 69.6039 141.832 66.5434Z" fill="url(#paint1_radial_8002_25654)"/>
</g>
<path d="M113.302 112.155C112.133 112.352 110.867 112.451 109.602 112.55C107.265 112.747 104.83 112.846 102.396 112.846C99.6695 112.747 96.9431 112.451 94.2166 111.859C91.8797 111.365 89.5427 110.575 87.4979 109.39C83.3108 107.021 80.3897 103.072 78.6369 98.6293C76.9816 96.5561 75.6184 94.3841 74.3525 92.1134C70.9445 85.795 69.2891 78.7855 68.4128 71.776C67.9259 68.1232 68.1206 64.2729 68.5101 60.62C68.7049 58.843 69.0944 57.1647 69.2891 55.3876C69.4839 54.1042 69.8734 52.722 69.5812 51.4386C69.4839 51.2411 69.3865 51.0437 69.1917 51.0437C67.6338 50.7475 66.7574 52.8207 66.4653 54.3016C65.4916 55.8812 64.4205 57.4608 63.4467 59.1392C62.0835 61.5086 61.0124 63.9767 59.9413 66.6423C57.8965 71.6773 56.9227 76.9097 57.1175 82.3396C57.507 93.1007 62.2783 102.875 70.8471 109.39C79.0264 115.61 90.7112 118.374 100.838 117.585C104.246 117.288 108.628 116.894 112.036 115.314C112.62 114.327 112.912 113.241 113.302 112.155Z" fill="#65B331"/>
<path opacity="0.5" d="M57.5068 76.6136C57.3121 80.5626 58.3832 85.0053 60.7201 88.2632C62.4728 90.8301 65.394 92.2122 67.731 94.1867C68.7047 95.0752 69.7758 95.9638 70.3601 97.1485C71.139 98.7281 71.139 100.406 71.6259 102.085C73.1839 107.12 76.4946 112.352 81.1685 114.82C81.1685 114.82 81.2658 114.82 81.2658 114.919C84.5765 116.104 87.9846 116.894 91.3926 117.387C93.2427 117.486 95.0928 117.585 96.9429 117.683C97.6245 117.683 98.3061 117.782 98.8904 117.782C99.572 117.782 100.156 117.683 100.838 117.683C104.246 117.387 108.628 116.992 112.036 115.413C112.523 114.425 112.815 113.438 113.204 112.352C112.036 112.55 110.77 112.648 109.504 112.747C107.167 112.945 104.733 113.043 102.298 113.043C99.572 112.945 96.8455 112.648 94.1191 112.056C91.7821 111.562 89.4452 110.773 87.4004 109.588C83.2133 107.218 80.2921 103.269 78.5394 98.8268C76.8841 96.7536 75.5208 94.5816 74.255 92.3109C70.8469 85.9925 69.1916 78.983 68.3152 71.9735C67.8284 68.3207 68.0231 64.4704 68.4126 60.8175C68.6073 59.0405 68.9968 57.3621 69.1916 55.5851C69.3863 54.3017 69.7758 52.9195 69.4837 51.6361C69.3863 51.4386 69.289 51.2412 69.0942 51.2412C67.5362 50.945 66.6599 53.0182 66.3678 54.4991C65.394 56.0787 64.3229 57.6583 63.3492 59.3367C61.986 61.7061 60.9149 64.1742 59.8438 66.8398C58.7727 69.9003 57.8963 73.1582 57.5068 76.6136Z" fill="#ADC90E"/>
<path d="M114.081 110.575C113.107 109.291 110.867 110.575 109.796 111.069C105.707 112.747 100.059 112.154 96.3588 110.081C92.5612 108.008 89.2506 104.651 86.9136 101.097C85.5504 99.024 84.3819 96.6546 83.5056 94.2852C82.5318 91.8171 81.8502 89.2502 81.3633 86.5846C80.0975 78.884 81.266 70.986 81.1686 63.1867C81.1686 58.4479 80.9739 51.5371 76.4947 48.6741C74.0604 45.9097 68.8022 48.8715 66.7574 50.7473C65.5889 51.8333 64.0309 53.9065 63.8362 55.4861C63.7388 56.1772 63.7388 56.8683 64.3231 57.3619C65.881 59.0402 65.3942 60.1262 64.3231 61.9033C61.7914 65.951 58.9675 69.8013 58.3833 74.6388C57.7991 79.1802 58.7728 83.7216 61.5966 87.2757C63.0572 89.0527 64.9073 90.04 66.9521 90.9285C69.8733 92.1132 72.0155 93.2979 72.9893 96.5559C74.4499 101.591 74.6446 106.823 77.6632 111.167C80.3896 115.215 84.4793 117.189 89.2506 116.992C91.3928 116.893 93.4376 115.709 95.3851 114.919C98.5984 113.734 101.325 114.228 104.343 115.511C107.07 116.597 109.309 117.288 111.841 115.511C112.912 114.721 114.762 112.451 114.275 110.97C114.275 110.871 114.178 110.772 114.081 110.575Z" fill="#83BB28"/>
<path opacity="0.7" d="M83.1161 90.7311C82.6293 88.6579 81.8503 86.5846 80.8765 84.7089C80.0976 82.4382 79.4159 80.1675 78.9291 77.8968C78.8317 77.2057 78.637 76.5147 78.5396 75.8236C78.5396 75.7249 78.5396 75.6261 78.5396 75.5274C78.9291 73.5529 79.6107 71.5784 80.1949 69.6039C80.3897 68.9128 80.487 68.2217 80.5844 67.5307C80.9739 65.26 80.8765 62.8906 80.0976 60.8173C80.6818 64.4702 79.7081 68.123 78.4422 71.4797C78.4422 70.295 78.4422 69.209 78.4422 68.0243C78.0527 65.7536 78.0527 63.3842 77.7606 61.0148C79.1238 56.8683 79.5133 52.7218 76.3974 49.1677C76.3974 49.1677 76.3 49.1677 76.3 49.2665C77.9553 52.8206 78.3448 56.5721 77.5658 60.3237C77.3711 59.139 77.1764 57.8556 76.6895 56.7696C76.0079 55.0912 74.9368 53.8078 73.7683 52.5244C74.0604 53.018 74.3525 53.6104 74.6447 54.2027C74.6447 54.2027 74.6447 54.3014 74.742 54.3014C75.2289 55.6836 75.6184 57.0657 75.9105 58.4479C76.0079 58.9415 76.1053 59.4352 76.1053 59.8301C76.3974 61.4097 76.5921 63.088 76.7869 64.6676C76.0079 63.4829 75.0342 62.4957 74.0604 61.5084C72.0156 59.6326 70.3602 57.5594 69.3865 54.8938C69.3865 54.7951 69.2891 54.8938 69.2891 54.9925C69.8734 57.1645 70.7497 59.139 72.3077 60.7186C73.7683 62.3969 75.8131 63.6804 76.9816 65.5561C77.1764 66.9383 77.2737 68.3205 77.2737 69.7026C77.3711 73.4542 77.4685 77.6006 78.2475 81.4509C77.4685 80.4637 76.4947 79.4764 75.6184 78.4892C75.521 78.3904 75.521 78.3904 75.4236 78.2917C75.2289 77.3045 75.0342 76.4159 74.742 75.4287C74.1578 73.5529 73.4762 71.6771 72.6972 69.9001C72.0156 68.4192 70.7497 67.2345 69.5813 66.2472C69.2891 65.951 68.8996 65.6549 68.5102 65.3587C68.218 65.26 67.9259 65.26 67.5364 65.1612C69.776 66.5434 71.6261 69.4064 72.4051 71.5784C72.9893 73.2567 73.6709 74.8363 74.1578 76.6134C74.2552 76.8108 74.2552 77.107 74.3525 77.4032C72.9893 76.1198 71.5287 75.2312 69.8734 74.5402C69.3865 74.244 68.8996 73.9478 68.3154 73.6516C67.3417 73.158 66.2706 72.8618 65.1021 72.7631C64.4205 72.8618 63.7389 72.9606 63.1546 73.0593C64.81 73.2567 66.3679 73.5529 67.9259 74.3427C70.0681 75.4287 72.113 77.3044 73.7683 79.0815C74.8394 80.1675 75.8131 81.3522 76.6895 82.6356C76.7869 82.7343 72.8919 83.919 72.5024 84.0178C69.776 84.6101 66.9522 84.314 64.2257 83.4254C62.0835 82.6356 61.2072 80.9573 59.6492 79.6739C59.6492 79.6739 59.6492 79.7726 59.7466 79.9701C60.9151 82.0433 63.252 83.7216 65.1995 84.9063C65.3942 85.0051 65.589 85.1038 65.7837 85.3012C66.9522 85.6961 68.3154 85.9923 69.5813 86.091C72.113 86.3872 74.4499 85.6961 76.8842 85.5974C77.5658 85.5974 78.1501 85.5974 78.7343 85.7948C79.6107 87.177 80.3897 88.5591 81.1687 89.9413C80.9739 90.04 80.8765 90.1388 80.6818 90.2375C79.3186 91.0273 77.1764 91.0273 75.7158 91.0273C73.0867 90.9286 70.555 90.2375 68.0233 89.8426C68.0233 89.8426 67.9259 89.8426 68.0233 89.9413C69.0944 90.6324 70.3602 91.2247 71.6261 91.6196C73.4762 92.4094 75.3263 92.7056 77.6632 92.5082C78.8317 92.4094 81.0713 92.4095 82.045 91.3235C82.4345 92.1133 82.824 92.9031 83.2135 93.6929C83.2135 92.4095 83.2135 91.5209 83.1161 90.7311Z" fill="#ACCB51"/>
<path opacity="0.7" d="M90.127 105.639C90.127 105.342 89.9322 105.046 89.6401 105.145C89.4453 105.145 89.2506 105.244 89.1532 105.441C88.9585 105.441 88.7637 105.54 88.569 105.639C86.4268 105.836 84.1872 104.454 82.045 104.75C80.9739 104.849 80.0975 105.145 79.1238 105.54C78.0527 106.033 77.2737 106.823 76.2026 107.218C76.1052 107.218 76.1052 107.416 76.2026 107.317C76.6895 107.218 77.079 107.021 77.5658 106.823C79.0264 106.33 80.2923 105.737 81.9476 105.836C83.7977 105.836 85.2583 106.428 87.011 106.922C86.8163 107.119 86.6215 107.317 86.4268 107.514C85.6478 108.008 84.9662 108.6 84.1872 109.094C83.5056 109.489 82.7266 109.982 82.045 110.377C81.9476 110.377 81.9476 110.377 81.8502 110.476C80.8765 110.871 80.0975 111.463 79.3185 112.056V112.154C80.3896 111.661 81.4608 111.167 82.6292 110.97C83.1161 110.871 83.603 110.674 84.0898 110.476C83.603 111.068 83.2135 111.76 82.9213 112.451C82.4345 113.438 82.3371 114.326 82.4345 115.412C82.4345 115.314 82.5319 115.215 82.5319 115.116H82.6292C83.0187 114.129 83.7003 113.24 84.2846 112.352C84.3819 112.253 84.5767 112.056 84.6741 111.858C84.6741 112.056 84.6741 112.253 84.6741 112.451C84.6741 113.339 84.8688 114.425 85.6478 115.018C85.6478 115.116 85.7452 115.116 85.7452 115.215C85.8425 115.314 85.9399 115.215 85.9399 115.116C85.6478 114.129 85.6478 112.846 85.7452 111.858C85.8425 110.97 85.7452 110.081 85.9399 109.291C86.0373 109.193 86.1347 109.094 86.232 108.995C87.011 108.502 87.6926 107.909 88.2769 107.218C88.3742 107.613 88.4716 108.008 88.4716 108.205C88.569 108.798 88.8611 109.39 89.0559 109.983C89.348 110.871 89.4453 111.661 89.5427 112.451C89.6401 113.438 89.5427 114.524 89.0559 115.511C88.9585 115.61 89.1532 115.709 89.2506 115.511C90.6138 112.944 90.127 109.588 89.348 106.823C89.348 106.823 89.348 106.823 89.4453 106.823C89.7375 106.428 90.0296 106.132 90.127 105.639Z" fill="#ACCB51"/>
<path opacity="0.7" d="M106.778 111.857C106.68 111.66 106.388 111.857 106.388 112.055C106.291 113.24 106.972 114.326 106.778 115.51C106.778 115.708 106.972 115.609 106.972 115.51C107.362 114.424 107.362 112.845 106.778 111.857Z" fill="#ACCB51"/>
<g opacity="0.2" style="mix-blend-mode:soft-light">
<path d="M85.8426 104.158C84.5767 101.986 83.8951 99.715 82.9214 97.3456C81.7529 94.68 80.6818 91.9157 79.8055 89.1514C79.0265 86.4858 78.1501 83.8202 77.6632 81.0559C77.079 78.0941 76.9816 74.9349 76.9816 71.9732C76.9816 69.1101 76.9816 66.3458 77.1764 63.5815C77.3711 61.0146 77.9554 58.4478 77.858 55.8809C77.858 54.0051 77.5659 52.2281 76.4948 50.7472C75.2289 49.5625 73.4762 48.8714 71.4314 49.4638C69.1918 50.0561 67.3417 51.8332 66.7575 54.1039C66.4653 55.3873 66.4653 56.572 66.8548 57.8554C67.147 58.8427 67.5364 59.9286 67.2443 60.9159C66.6601 63.0879 64.9074 64.3713 63.5442 66.1483C62.1809 67.9254 61.0124 69.8012 60.1361 71.8744C58.9676 75.1324 58.7729 78.489 60.1361 81.9444C61.8888 86.3871 66.4653 87.2756 70.1655 89.3488C72.9893 90.9284 73.3788 93.8902 73.5736 96.8519C73.7683 99.3201 74.2552 101.986 75.4237 104.158C76.4948 106.132 77.2738 108.107 78.9291 109.785C80.1949 111.068 82.3372 113.24 84.382 113.043C88.8612 112.451 87.3032 106.626 85.8426 104.158ZM69.3865 50.9446C69.1918 51.0434 68.997 51.1421 68.8023 51.3395C69.2892 50.9446 69.776 50.5497 70.4576 50.3523C70.0681 50.451 69.5813 50.8459 69.3865 50.9446Z" fill="url(#paint2_radial_8002_25654)"/>
</g>
<path opacity="0.7" d="M77.0791 121.632C77.1764 121.632 77.1764 121.632 77.0791 121.632C78.3449 122.224 79.6108 122.718 80.8766 123.211C80.0976 122.323 79.2213 121.533 78.3449 120.743C78.0528 119.953 77.858 119.163 77.5659 118.374C77.3712 117.88 77.1764 117.485 76.9817 116.992C76.4948 116.004 76.1053 114.918 75.8132 113.832C75.6185 115.116 76.1053 116.498 76.3001 117.683C76.3974 118.176 76.4948 118.769 76.5922 119.262C76.2027 118.867 75.7158 118.571 75.3263 118.176C73.671 116.004 72.892 113.339 72.5025 110.278C72.3078 109.192 72.2104 108.106 72.113 107.02C71.7235 105.638 71.334 104.157 71.0419 102.775C71.0419 105.737 71.0419 108.6 71.4314 111.463C71.6262 113.043 72.0157 114.425 72.5999 115.708C71.2367 114.326 70.0682 112.648 68.705 111.167C68.4129 110.871 68.2181 110.673 67.926 110.377C67.7312 109.982 67.5365 109.587 67.3417 109.094C67.7312 107.514 68.2181 105.934 68.3155 104.256C68.3155 102.775 68.4129 101.195 68.4129 99.7146C67.8286 102.183 66.5628 104.848 66.5628 107.316C65.0048 102.775 64.3232 97.9375 64.1284 93.1C64.0311 92.7051 63.9337 92.2115 63.8363 91.8166C63.3495 96.7528 63.5442 101.985 65.0048 106.724C63.5442 104.355 62.3757 101.788 61.4994 99.3197C61.0125 97.8388 60.623 96.4566 60.3309 94.9758C59.9414 93.8898 59.5519 92.7051 59.2598 91.5204C59.065 90.928 58.9677 90.3357 58.8703 89.7433C58.7729 89.5459 58.6755 89.2497 58.5782 89.0522C58.2861 92.5076 59.065 96.2592 59.9414 99.4184C60.623 101.985 61.6941 104.256 62.96 106.428C62.96 106.527 63.0573 106.625 63.0573 106.625C63.9337 108.501 65.2969 110.278 66.6601 111.858C69.0945 115.017 72.2104 117.88 75.3263 120.249C76.1053 120.842 76.5922 121.237 77.0791 121.632Z" fill="#ACCB51"/>
<path opacity="0.7" d="M129.661 119.164C130.342 118.374 131.024 117.683 131.705 116.893C134.724 113.24 137.645 108.699 137.548 103.664C137.548 103.565 137.353 103.664 137.353 103.763C136.963 106.132 135.308 108.699 134.14 110.772C132.971 112.845 131.413 114.721 130.05 116.696C132.192 113.043 133.263 108.896 131.9 104.849C131.9 104.75 131.705 104.849 131.705 104.947C132.192 106.823 131.413 109.686 130.926 111.562C130.342 113.734 129.174 115.511 127.908 117.288C126.739 118.966 125.473 120.546 124.11 122.126C126.058 121.237 127.908 120.25 129.661 119.164Z" fill="#ACCB51"/>
<path d="M122.358 117.485C121.871 117.88 121.286 118.275 120.8 118.67C118.56 120.348 116.418 121.928 113.983 123.211C111.257 124.593 108.531 125.778 105.609 126.568C103.954 126.963 102.299 127.259 100.546 127.456C94.7036 127.753 88.8612 127.16 83.2136 125.087C70.3603 120.249 56.5334 108.6 53.2227 94.5808C52.0542 89.6446 51.8594 83.8198 53.4174 78.9823C54.2938 76.2179 63.0574 64.3709 55.4623 64.4696C50.9831 64.5683 46.0171 68.6161 42.1221 70.6893C40.0773 71.7753 37.5456 72.96 35.7929 74.6383C33.4559 76.909 31.6058 79.6733 31.119 82.8325C30.6321 85.893 31.7032 88.2624 33.1638 90.8293C34.2349 92.7051 35.2087 94.6796 35.5981 96.9503C36.3771 100.899 35.6955 104.947 35.8903 108.896C35.9876 110.871 36.3771 112.845 37.4482 114.523C38.7141 116.597 40.8563 117.979 43.1932 118.769C47.3803 120.249 52.6384 119.855 56.3386 122.619C60.3309 125.679 61.402 131.109 64.4206 134.861C67.4391 138.612 72.5999 140.784 77.2738 139.303C81.0714 137.033 83.311 132.195 87.7901 131.307C90.1271 130.813 93.3404 132.788 95.58 133.38C97.7222 133.972 99.9618 134.17 102.201 133.972C106.875 133.479 110.965 130.616 114.47 127.753C116.223 126.272 117.878 124.89 119.242 123.014C120.41 121.632 121.968 119.855 122.552 118.077C122.747 117.781 122.65 117.485 122.358 117.485Z" fill="#83BB28"/>
<path d="M163.254 78.8842C161.112 77.3045 159.262 75.8237 158.872 72.9606C158.58 70.6899 159.944 68.3205 159.067 66.0499C157.704 62.2983 153.322 63.483 150.79 65.1613C149.622 65.9511 148.356 67.432 148.161 68.8142C148.064 69.7027 148.064 70.4925 148.161 71.381C148.259 72.8619 148.746 74.1453 148.746 75.6262C148.648 81.5497 148.064 87.0784 146.214 92.7057C143.39 101.097 138.035 107.909 131.511 113.438C130.05 114.919 128.395 116.202 126.642 117.19C125.863 117.782 124.987 118.374 124.11 118.868C119.144 122.027 114.081 124.594 108.433 126.075C105.804 126.766 103.078 127.161 100.449 127.358C100.546 127.358 100.741 127.457 100.838 127.457C103.175 128.247 104.538 129.925 106.291 131.702C108.336 133.775 110.867 135.454 113.886 135.256C119.728 134.96 122.358 128.839 127.031 126.174C130.926 124.002 134.432 125.285 137.937 127.26C145.63 131.702 157.801 127.654 160.43 118.769C161.404 115.413 161.502 111.76 162.086 108.304C162.67 104.553 164.228 101.788 166.37 98.6292C167.831 96.4573 168.61 94.0879 168.902 91.521C169.486 86.486 167.441 82.0434 163.254 78.8842Z" fill="#3AAA3A"/>
<path opacity="0.7" d="M99.8643 129.234C97.1379 129.234 94.4114 128.74 91.7824 128.247C91.7824 128.247 91.7824 128.247 91.685 128.148C90.3218 127.556 88.8612 127.457 87.4006 127.457C86.719 127.358 86.1347 127.26 85.4531 127.26C85.2584 127.26 84.9663 127.161 84.7715 127.161C84.7715 127.062 84.6741 127.062 84.5768 127.062C74.8395 125.088 67.4391 117.782 60.623 110.97C60.0387 110.378 59.4545 109.983 58.8703 109.588C58.286 108.897 57.7018 108.107 57.1176 107.317C55.1701 104.651 53.4174 101.986 51.8594 99.1228C51.4699 97.4445 50.6909 95.7661 50.3014 94.0878C49.8146 91.6197 49.9119 89.0528 49.5225 86.5847C49.4251 85.6961 49.2303 84.8076 49.133 83.9191C49.4251 82.8331 49.6198 81.7471 50.0093 80.6612C50.4962 79.279 50.983 77.9956 51.3725 76.6134C52.1515 73.8491 52.1515 71.381 51.9568 68.5179C51.9568 68.4192 51.762 68.5179 51.762 68.6167C51.5673 71.9733 50.8857 74.9351 49.9119 78.193C49.6198 79.279 49.133 80.1675 48.8408 81.2535C48.7435 81.451 48.7435 81.6484 48.7435 81.7471C48.7435 81.6484 48.7435 81.6484 48.6461 81.5497C48.4513 80.7599 48.2566 80.0688 47.9645 79.3777C47.8671 79.1803 47.8671 79.0816 47.7697 78.8841C47.6724 78.7854 47.6724 78.5879 47.575 78.4892C47.575 78.4892 47.575 78.4892 47.575 78.3905C47.4776 78.0943 47.2829 77.6994 47.1855 77.4032C46.6986 76.2185 46.017 75.0338 45.7249 73.8491C45.4328 72.9606 45.5302 72.2695 45.0433 71.4797C44.9459 71.381 44.8485 71.4797 44.8485 71.5784C45.1407 73.4542 45.0433 75.1326 45.6275 77.0083C46.4065 79.1803 47.2829 81.1548 47.575 83.5242C47.8671 85.5974 48.0619 87.7694 48.2566 89.8426C48.354 91.0273 48.354 92.3107 48.5487 93.3967C46.8934 90.8299 44.9459 88.3618 43.1932 85.8936C40.8562 82.6357 38.1298 82.3395 34.527 81.451C34.4296 81.451 34.3323 81.5497 34.4296 81.5497C36.085 82.3395 37.8377 82.7344 39.2983 83.9191C40.9536 85.2025 42.0247 87.2758 43.0958 89.0528C43.7774 90.0401 44.4591 91.1261 45.1407 92.1133C43.5827 91.521 41.83 91.3235 40.272 90.7312C37.1561 89.5465 34.8191 87.4732 32.8717 84.9064C32.7743 84.8076 32.6769 85.0051 32.6769 85.0051C34.0401 87.4732 35.7928 89.9413 38.2272 91.4222C40.7589 93.0018 43.6801 93.0018 46.4065 93.7916C47.6724 95.6674 48.9382 97.5432 50.1067 99.419L50.2041 99.5177C50.0093 99.419 49.8146 99.419 49.6198 99.3202C47.9645 98.9253 46.1144 98.7279 44.3617 98.7279C44.2643 98.7279 44.0696 98.9254 44.2643 99.0241C46.6986 99.8139 49.0356 101.097 51.4699 101.492C53.0279 103.862 54.6832 106.132 56.6307 108.304C55.5596 108.008 54.4885 107.811 53.32 107.811C52.2489 107.613 51.1778 107.416 50.1067 107.021C48.6461 106.527 47.0881 106.428 45.6275 105.836C44.1669 105.244 41.6352 103.664 40.5641 102.381C40.5641 102.282 40.3694 102.479 40.4668 102.479C41.051 103.664 42.2195 104.553 43.0958 105.441C44.3617 106.725 45.4328 107.514 47.1855 108.008C47.8671 108.206 48.5487 108.304 49.2303 108.403C46.2118 109.39 43.4853 111.167 41.6352 113.438C41.5379 113.537 41.6352 113.635 41.7326 113.537C45.1407 110.575 49.133 109.588 53.5147 109.292C55.5596 109.193 57.3123 109.588 58.8703 110.476C60.4282 111.957 61.9862 113.339 63.7389 114.524L63.8363 114.623C65.1995 116.202 66.7575 117.584 68.1207 119.263C68.5102 119.658 68.8997 120.053 69.2892 120.448C67.7312 120.053 66.0759 119.756 64.5179 119.46C63.5442 119.263 62.6678 118.967 61.6941 118.769C61.1098 117.486 59.844 116.696 58.7729 115.709C58.0913 115.116 57.507 114.524 56.9228 113.932C56.3386 113.438 55.7543 113.142 55.2675 112.549C55.2675 112.549 55.1701 112.549 55.1701 112.648C55.4622 113.241 55.8517 113.734 56.2412 114.228C56.8254 115.018 57.3123 115.906 57.8965 116.696C58.286 117.19 58.6755 117.782 59.1624 118.276C57.7018 118.078 55.657 117.881 54.5859 117.19C54.4885 117.091 54.3911 117.288 54.4885 117.288C55.2675 118.276 56.8254 118.572 57.8965 119.065C59.7466 119.855 61.6941 120.349 63.6416 120.941C64.1284 121.04 64.6153 121.237 65.1021 121.336C64.9074 121.435 64.81 121.632 64.6153 121.731C64.031 122.225 63.5442 123.014 63.3494 123.705C63.2521 124.1 63.6416 124.002 63.8363 123.804C64.5179 122.817 65.8811 122.521 66.7575 121.731C68.4128 122.126 70.1655 122.422 71.9183 122.225C72.5999 122.619 73.2815 123.014 73.8657 123.508C76.3 125.088 78.7344 126.174 81.4608 126.766C81.6556 126.865 81.8503 126.963 82.0451 127.062C79.416 127.457 76.7869 128.346 74.1578 128.839C71.1393 129.432 67.147 129.234 64.1284 128.444C64.031 128.444 63.9337 128.543 64.031 128.642C66.6601 130.024 69.1918 130.123 72.0156 130.616C72.5999 130.715 73.2815 130.616 73.8657 130.517C72.5999 131.801 71.9183 133.775 71.9183 135.651C71.9183 135.947 72.2104 135.849 72.4051 135.651C73.4762 133.775 74.2552 131.702 75.6184 130.123C77.2738 129.728 78.9291 129.333 80.4871 128.938C83.7978 128.049 86.6216 128.444 89.9323 128.642C93.1456 128.839 96.2615 129.826 99.5722 129.333C99.9617 129.53 100.059 129.135 99.8643 129.234Z" fill="#ADD045"/>
<path d="M166.078 89.151C163.838 89.5459 161.599 89.5459 159.359 90.237C157.704 90.7306 156.146 91.5204 154.783 92.6064C154.978 92.3102 155.27 91.9153 155.464 91.6191C156.828 90.237 158.191 88.8548 159.457 87.3739C161.015 85.5969 162.962 83.4249 163.936 81.1542C164.033 80.9568 163.838 81.0555 163.741 81.1542C162.962 82.2402 161.502 83.2275 160.625 84.116C159.554 85.202 158.58 86.2879 157.509 87.4727C156.925 88.1637 156.341 88.8548 155.854 89.5459C154.685 90.7306 153.517 91.9153 152.543 93.1987C151.472 94.5809 150.498 96.1605 149.622 97.7401C149.525 97.8388 149.427 97.9376 149.33 98.0363C149.817 96.8516 150.206 95.6669 150.596 94.4822C152.056 89.4472 152.056 83.4249 155.464 79.1797C155.562 78.9823 155.464 78.8836 155.27 78.9823C154.101 80.0683 153.225 81.4504 152.446 82.9313C152.543 81.253 152.641 79.5746 152.738 77.8963C152.835 76.4154 152.543 74.8358 152.348 73.3549C152.154 71.9728 152.056 70.4919 151.667 69.1097C151.667 69.011 151.569 69.1097 151.569 69.2085C151.862 72.0715 151.569 75.3294 151.472 78.1925C151.375 80.5619 151.18 82.9313 150.888 85.3007C150.596 83.2275 149.914 81.253 149.33 79.1797C149.33 79.081 149.135 79.1797 149.135 79.2785C149.427 83.3262 150.109 87.3739 149.817 91.4217C149.817 91.5204 149.817 91.5204 149.817 91.6191C148.843 95.963 147.285 100.011 145.045 103.762C144.072 105.046 143.098 106.329 142.027 107.514C139.203 110.673 135.99 113.437 132.582 115.906C131.803 116.3 131.024 116.695 130.342 117.189H130.245C130.147 117.288 130.05 117.386 129.953 117.386C129.076 117.979 128.2 118.472 127.324 119.065C125.571 120.052 123.721 121.039 121.871 122.027C119.436 123.31 116.613 123.902 113.983 124.988C112.815 125.482 111.647 126.074 110.478 126.667C109.504 127.062 108.531 127.95 107.459 128.345C107.362 128.345 107.362 128.345 107.265 128.444C107.167 128.444 107.07 128.542 106.973 128.542C106.778 128.542 106.68 128.74 106.68 128.937V129.036C106.68 129.135 106.778 129.234 106.973 129.234H107.07H107.167C107.362 129.135 107.557 129.135 107.752 129.135C108.141 129.036 108.628 128.937 109.017 128.839C109.407 128.839 109.894 128.839 110.283 128.937C112.036 129.135 113.983 128.937 115.736 128.839C117.392 128.839 118.949 128.444 120.507 128.345C121.384 128.246 121.871 128.246 122.455 127.555C122.552 127.456 122.552 127.259 122.358 127.358C121.676 127.654 120.41 127.259 119.728 127.16C118.073 127.16 116.418 127.259 114.86 127.358C114.276 127.456 113.594 127.456 113.01 127.555C115.055 126.864 117.002 126.173 118.852 125.087C119.242 124.89 119.631 124.593 120.021 124.396C121.189 124.001 122.26 123.409 123.331 122.816C123.818 122.619 124.208 122.421 124.597 122.125C126.739 121.829 129.174 122.323 131.219 122.619C133.75 123.014 136.282 123.31 138.911 123.409C139.787 123.409 140.664 123.409 141.443 123.409C141.54 123.409 141.54 123.409 141.637 123.409C142.806 123.606 143.974 123.902 145.143 124.199C146.117 124.495 147.188 124.593 148.161 124.988C148.648 125.186 148.94 125.284 149.33 124.988C149.525 124.89 149.525 124.593 149.233 124.692C148.94 124.791 147.772 123.705 147.382 123.507C147.285 123.507 147.188 123.409 147.09 123.409C148.94 123.31 150.596 122.718 152.251 121.928C152.348 121.928 152.446 121.632 152.251 121.632C150.012 122.125 147.772 122.027 145.532 121.73C144.364 121.533 143.195 121.829 141.93 121.829C140.372 121.829 138.814 121.73 137.158 121.632C134.529 121.434 131.9 121.237 129.271 121.237C128.2 121.237 127.129 121.237 126.058 121.434C127.226 120.743 128.395 120.052 129.563 119.361C131.024 118.67 132.484 117.88 133.848 117.09C134.042 116.992 134.14 116.893 134.334 116.794C135.6 116.3 136.866 116.004 138.132 115.708C139.203 116.004 140.372 116.597 141.345 116.794C142.806 117.189 144.461 116.794 145.922 117.288C146.019 117.288 146.019 117.189 146.019 117.189C145.727 116.597 145.143 116.498 144.559 116.202C143.682 115.807 142.709 115.511 141.832 115.214C142.319 115.116 142.903 115.116 143.39 115.017C145.24 114.82 147.09 114.721 148.94 114.918C150.79 115.017 152.056 115.609 153.712 116.399C153.809 116.498 154.004 116.202 153.906 116.103C152.835 115.313 152.154 114.523 150.79 114.129C149.427 113.635 148.064 113.339 146.701 113.24C145.143 113.141 143.585 113.24 141.93 113.437C142.903 112.944 143.974 112.45 144.948 111.957C147.188 110.772 149.427 109.785 151.667 108.699C153.906 107.613 156.243 107.02 158.386 105.934C158.483 105.934 158.58 105.638 158.386 105.638C156.438 105.737 154.88 105.737 152.933 106.23C152.348 106.428 151.764 106.527 151.277 106.724C152.835 104.75 153.809 101.985 155.075 100.208C155.075 100.11 155.075 100.11 154.978 100.11C153.42 101.195 152.251 102.775 151.083 104.256C150.206 105.342 148.94 106.625 148.161 107.909C147.48 108.205 146.798 108.501 146.117 108.797C144.753 109.488 143.39 110.278 142.027 111.068C142.903 110.18 143.78 109.291 144.656 108.402C146.311 106.527 147.675 104.453 149.135 102.38C149.719 101.59 150.109 100.603 150.498 99.7146C150.79 99.3197 151.083 99.0235 151.375 98.6286C153.225 96.1605 155.562 93.7911 158.288 92.3102C160.917 90.8293 163.546 90.3357 166.37 89.5459C166.078 89.3484 166.175 89.151 166.078 89.151Z" fill="#66BA2E"/>
<g opacity="0.3" style="mix-blend-mode:soft-light">
<path d="M66.6601 120.842C64.9074 118.769 63.3494 116.301 61.4994 114.425C59.1624 112.154 56.8254 109.489 55.2675 106.626C53.4174 103.368 51.6647 99.9124 50.7883 96.2595C49.7172 92.0143 49.8146 87.5717 50.2041 83.2278C50.5936 79.18 51.4699 75.3297 53.32 71.6769C53.9043 70.5909 55.9491 68.2215 55.0727 66.8393C54.2938 65.7534 51.6647 67.7279 50.9831 68.1228C48.354 69.8011 45.5302 71.0845 42.7064 72.368C40.1747 73.5527 37.643 74.3425 35.5007 76.317C34.4296 77.3042 33.748 78.6864 33.5533 80.1673C33.2612 80.7596 33.0664 81.4507 32.8717 82.1418C32.3848 84.5112 33.4559 86.387 34.7218 88.2628C36.5718 91.0271 38.1298 94.1863 38.6167 97.4442C39.3957 102.775 36.1824 109.489 40.272 114.03C41.83 115.708 44.5564 116.103 46.6986 116.498C50.1067 117.189 53.8069 117.485 57.0202 118.868C58.5782 119.559 59.7466 121.434 60.5256 122.817C61.2072 124.001 61.9862 125.087 62.7652 126.173C63.2521 126.963 65.0048 130.024 66.2706 129.629C69.6787 128.543 68.4128 122.915 66.6601 120.842Z" fill="url(#paint3_radial_8002_25654)"/>
</g>
<g opacity="0.1" style="mix-blend-mode:soft-light">
<path d="M163.741 87.6703C162.865 85.4984 160.43 85.1035 158.775 83.6226C156.536 81.6481 157.217 77.9952 156.73 75.3297C156.341 73.5526 156.243 70.5908 154.491 69.5049C153.322 68.8138 151.764 69.1099 150.985 70.2947C149.914 71.8743 150.109 73.6513 149.914 75.4284C149.622 78.6863 149.525 81.7468 148.746 84.906C148.064 87.7691 147.382 90.5333 146.993 93.3964C146.701 94.4824 146.311 95.5684 146.019 96.7531C145.24 99.2212 144.072 101.492 142.709 103.763C140.274 108.106 136.769 111.759 132.971 114.919C131.413 116.202 129.466 117.387 127.713 118.473C126.253 119.46 124.305 120.25 123.039 121.533C122.844 121.731 122.747 122.224 123.137 122.224C125.571 122.027 128.103 121.336 130.634 121.434C133.458 121.632 136.282 123.606 138.911 124.495C141.248 125.285 143.585 126.075 146.117 125.877C148.356 125.68 150.791 124.495 152.349 122.915C154.004 121.336 155.27 119.361 155.757 117.09C156.243 114.326 155.562 112.253 154.88 109.587C154.393 107.415 154.783 105.737 156.536 104.256C157.509 103.466 158.386 102.282 159.262 101.393C161.307 99.2212 162.865 96.9505 163.741 94.0875C164.52 92.0142 164.52 89.7436 163.741 87.6703Z" fill="url(#paint4_radial_8002_25654)"/>
</g>
<defs>
<radialGradient id="paint0_radial_8002_25654" cx="0" cy="0" r="1" gradientUnits="userSpaceOnUse" gradientTransform="translate(37.8296 53.4295) scale(49.6868 50.3768)">
<stop offset="0.00221549" stop-color="white"/>
<stop offset="0.902" stop-color="white"/>
<stop offset="0.991" stop-color="white"/>
</radialGradient>
<radialGradient id="paint1_radial_8002_25654" cx="0" cy="0" r="1" gradientUnits="userSpaceOnUse" gradientTransform="translate(96.1898 61.5505) scale(52.0943 52.8178)">
<stop offset="0.00221549" stop-color="white"/>
<stop offset="0.902" stop-color="white"/>
<stop offset="0.991" stop-color="white"/>
</radialGradient>
<radialGradient id="paint2_radial_8002_25654" cx="0" cy="0" r="1" gradientUnits="userSpaceOnUse" gradientTransform="translate(27.7679 94.0932) scale(54.8212 55.5826)">
<stop offset="0.00221549" stop-color="white"/>
<stop offset="0.902" stop-color="white"/>
<stop offset="0.991" stop-color="white"/>
</radialGradient>
<radialGradient id="paint3_radial_8002_25654" cx="0" cy="0" r="1" gradientUnits="userSpaceOnUse" gradientTransform="translate(5.97313 129.817) scale(57.3063 58.1022)">
<stop offset="0.00221549" stop-color="white"/>
<stop offset="0.902" stop-color="white"/>
<stop offset="0.991" stop-color="white"/>
</radialGradient>
<radialGradient id="paint4_radial_8002_25654" cx="0" cy="0" r="1" gradientUnits="userSpaceOnUse" gradientTransform="translate(216.391 121.915) scale(73.9273 74.954)">
<stop offset="0.00221549" stop-color="white"/>
<stop offset="0.902" stop-color="white"/>
<stop offset="0.991" stop-color="white"/>
</radialGradient>
</defs>
</svg>
