<svg width="200" height="200" viewBox="0 0 200 200" fill="none" xmlns="http://www.w3.org/2000/svg">
<path d="M175 68.901C175 62.8521 156.818 58.0547 134.71 58.0547C112.396 58.0547 94.4201 62.8521 94.4201 68.901C94.4201 72.8642 110.536 97.8943 110.536 99.563C110.536 104.986 121.28 109.366 134.71 109.366C148.14 109.366 158.884 104.986 158.884 99.563C158.884 97.8943 175 72.8642 175 68.901Z" fill="#943D17"/>
<path d="M98.759 64.521C96.2797 66.8154 95.2466 69.527 96.073 71.8214C98.1392 77.6618 113.222 103.526 126.652 101.023C140.082 98.3117 146.9 68.0669 144.834 62.4351C144.421 61.3922 143.595 60.3493 142.561 59.515C139.669 59.3064 136.776 59.3064 133.677 59.3064C118.801 59.0978 105.784 61.3922 98.759 64.521Z" fill="#B84C1D"/>
<path d="M134.71 86.0052C156.962 86.0052 175 78.3475 175 68.9013C175 59.455 156.962 51.7974 134.71 51.7974C112.459 51.7974 94.4201 59.455 94.4201 68.9013C94.4201 78.3475 112.459 86.0052 134.71 86.0052Z" fill="#FFE084"/>
<path d="M134.71 81.6248C116.528 81.6248 101.238 75.5759 101.238 68.2754C101.238 61.1836 116.528 54.926 134.71 54.926C152.892 54.926 168.182 60.975 168.182 68.2754C168.182 75.5759 152.892 81.6248 134.71 81.6248Z" fill="#B84C1D"/>
<path d="M117.354 61.8098C112.809 61.8098 108.47 62.227 104.544 62.8527C102.478 64.5214 101.238 66.3987 101.238 68.4845C101.238 75.5764 116.528 81.834 134.71 81.834C139.256 81.834 143.594 81.4168 147.52 80.791C149.586 79.1224 150.826 77.2451 150.826 75.1592C150.826 67.8588 135.33 61.8098 117.354 61.8098Z" fill="#943D17"/>
<path d="M102.065 75.1591C101.652 76.2021 105.784 78.7051 110.949 80.5824C116.115 82.4596 120.66 83.0854 120.867 81.8339C121.073 80.791 116.321 80.9995 111.156 79.1222C105.991 77.4536 102.478 74.1162 102.065 75.1591Z" fill="white"/>
<path d="M119.644 103.021C119.831 102.477 118.934 101.668 117.64 101.215C116.347 100.762 115.146 100.835 114.959 101.379C114.772 101.923 115.669 102.732 116.963 103.185C118.256 103.639 119.457 103.565 119.644 103.021Z" fill="white"/>
<mask id="mask0_8002_25952" style="mask-type:luminance" maskUnits="userSpaceOnUse" x="101" y="47" width="68" height="35">
<path d="M101.238 47V68.4843C101.238 75.5761 116.528 81.8337 134.71 81.8337C152.892 81.8337 168.182 75.7847 168.182 68.4843V47H101.238Z" fill="white"/>
</mask>
<g mask="url(#mask0_8002_25952)">
<path d="M160.33 71.1961C159.297 70.5704 159.297 68.4845 158.264 67.6501C156.818 66.3986 154.338 65.1471 153.099 63.687C151.859 61.8098 149.586 60.9754 147.52 61.6012C147.52 61.184 147.314 60.7669 147.107 60.3497C146.074 58.2638 145.041 56.5952 144.008 55.5523C144.214 54.0922 143.801 52.6321 142.768 51.5892C142.148 50.9634 141.322 50.3376 140.289 50.3376C138.842 50.3376 137.396 50.7548 136.57 51.7978C135.95 50.9634 134.917 50.3376 133.47 50.3376C129.545 50.3376 126.239 53.675 124.173 57.2209C121.693 57.8467 119.627 59.0982 117.974 61.1841C114.668 65.5643 110.329 67.6502 105.577 69.9446C103.098 71.1961 102.891 75.7849 105.577 77.0365C108.47 78.288 111.569 79.5395 114.875 80.1652C117.354 80.5824 118.801 79.7481 120.247 78.9138C123.14 81.834 127.272 85.1713 130.371 82.6683C131.198 82.8768 132.024 83.0854 133.057 82.8769C135.33 82.2511 138.016 81.8339 140.495 80.791C140.702 80.9996 141.115 81.2081 141.528 81.2081C141.735 81.2081 142.148 81.2082 142.355 80.9996C142.561 80.9996 142.768 81.2081 142.768 81.2081C143.181 81.4167 142.975 81.2082 142.355 80.9996C143.181 81.6254 144.628 81.8339 145.661 81.4167C146.9 80.9996 147.933 80.1652 148.553 79.1223C150.206 79.9566 151.652 80.3739 152.892 79.9567C153.512 79.7481 154.132 79.5395 154.545 79.3309C155.578 80.1652 156.818 80.5824 158.058 80.3738C161.983 79.9566 164.049 74.1163 160.33 71.1961Z" fill="#9EB300"/>
<path d="M106.817 80.5819C107.388 80.5819 107.85 80.115 107.85 79.539C107.85 78.963 107.388 78.4961 106.817 78.4961C106.246 78.4961 105.784 78.963 105.784 79.539C105.784 80.115 106.246 80.5819 106.817 80.5819Z" fill="#9EB300"/>
<path d="M108.057 82.4599C109.312 82.4599 110.329 81.4327 110.329 80.1655C110.329 78.8983 109.312 77.8711 108.057 77.8711C106.801 77.8711 105.784 78.8983 105.784 80.1655C105.784 81.4327 106.801 82.4599 108.057 82.4599Z" fill="#9EB300"/>
<path d="M115.288 86.6313C116.657 86.6313 117.768 85.5107 117.768 84.1283C117.768 82.7459 116.657 81.6252 115.288 81.6252C113.919 81.6252 112.809 82.7459 112.809 84.1283C112.809 85.5107 113.919 86.6313 115.288 86.6313Z" fill="#CBE600"/>
<path d="M130.371 53.4671C131.626 53.4671 132.644 52.4398 132.644 51.1726C132.644 49.9054 131.626 48.8782 130.371 48.8782C129.116 48.8782 128.098 49.9054 128.098 51.1726C128.098 52.4398 129.116 53.4671 130.371 53.4671Z" fill="#B4CC00"/>
<path d="M135.123 55.5528C135.808 55.5528 136.363 54.9925 136.363 54.3013C136.363 53.6101 135.808 53.0498 135.123 53.0498C134.439 53.0498 133.884 53.6101 133.884 54.3013C133.884 54.9925 134.439 55.5528 135.123 55.5528Z" fill="#9EB300"/>
<path d="M138.842 53.8837C140.326 53.8837 141.528 52.6696 141.528 51.172C141.528 49.6744 140.326 48.4604 138.842 48.4604C137.359 48.4604 136.156 49.6744 136.156 51.172C136.156 52.6696 137.359 53.8837 138.842 53.8837Z" fill="#9EB300"/>
<path d="M157.231 83.5027C157.916 83.5027 158.471 82.9424 158.471 82.2512C158.471 81.56 157.916 80.9998 157.231 80.9998C156.546 80.9998 155.991 81.56 155.991 82.2512C155.991 82.9424 156.546 83.5027 157.231 83.5027Z" fill="#CBE600"/>
<path d="M160.33 83.0858C161.471 83.0858 162.396 82.1519 162.396 80.9999C162.396 79.8479 161.471 78.9141 160.33 78.9141C159.189 78.9141 158.264 79.8479 158.264 80.9999C158.264 82.1519 159.189 83.0858 160.33 83.0858Z" fill="#B4CC00"/>
<path d="M143.801 55.7607C144.714 55.7607 145.454 55.0136 145.454 54.092C145.454 53.1704 144.714 52.4233 143.801 52.4233C142.888 52.4233 142.148 53.1704 142.148 54.092C142.148 55.0136 142.888 55.7607 143.801 55.7607Z" fill="#CBE600"/>
<path d="M142.561 56.1785C143.702 56.1785 144.628 55.2447 144.628 54.0927C144.628 52.9407 143.702 52.0068 142.561 52.0068C141.42 52.0068 140.495 52.9407 140.495 54.0927C140.495 55.2447 141.42 56.1785 142.561 56.1785Z" fill="#B4CC00"/>
<path d="M138.429 55.135C138.885 55.135 139.255 54.7614 139.255 54.3006C139.255 53.8398 138.885 53.4663 138.429 53.4663C137.973 53.4663 137.603 53.8398 137.603 54.3006C137.603 54.7614 137.973 55.135 138.429 55.135Z" fill="#9EB300"/>
<path d="M132.437 56.1779C133.692 56.1779 134.71 55.1507 134.71 53.8836C134.71 52.6164 133.692 51.5891 132.437 51.5891C131.182 51.5891 130.164 52.6164 130.164 53.8836C130.164 55.1507 131.182 56.1779 132.437 56.1779Z" fill="#9EB300"/>
<path d="M128.512 53.8835C129.424 53.8835 130.164 53.1364 130.164 52.2148C130.164 51.2932 129.424 50.5461 128.512 50.5461C127.599 50.5461 126.859 51.2932 126.859 52.2148C126.859 53.1364 127.599 53.8835 128.512 53.8835Z" fill="#B4CC00"/>
<path d="M104.957 78.7055C105.984 78.7055 106.817 77.865 106.817 76.8282C106.817 75.7915 105.984 74.9509 104.957 74.9509C103.93 74.9509 103.098 75.7915 103.098 76.8282C103.098 77.865 103.93 78.7055 104.957 78.7055Z" fill="#9EB300"/>
<path d="M108.057 82.6684C108.513 82.6684 108.883 82.2949 108.883 81.8341C108.883 81.3733 108.513 80.9998 108.057 80.9998C107.6 80.9998 107.23 81.3733 107.23 81.8341C107.23 82.2949 107.6 82.6684 108.057 82.6684Z" fill="#CBE600"/>
<path d="M133.677 56.1778C134.362 56.1778 134.917 55.6175 134.917 54.9263C134.917 54.2351 134.362 53.6748 133.677 53.6748C132.992 53.6748 132.437 54.2351 132.437 54.9263C132.437 55.6175 132.992 56.1778 133.677 56.1778Z" fill="#CBE600"/>
<path d="M141.942 52.0059C142.74 52.0059 143.388 51.3522 143.388 50.5458C143.388 49.7394 142.74 49.0857 141.942 49.0857C141.143 49.0857 140.495 49.7394 140.495 50.5458C140.495 51.3522 141.143 52.0059 141.942 52.0059Z" fill="#B4CC00"/>
<path d="M161.777 84.1279C162.804 84.1279 163.636 83.2873 163.636 82.2505C163.636 81.2138 162.804 80.3733 161.777 80.3733C160.75 80.3733 159.917 81.2138 159.917 82.2505C159.917 83.2873 160.75 84.1279 161.777 84.1279Z" fill="#B4CC00"/>
<path d="M163.843 79.3308C164.299 79.3308 164.669 78.9572 164.669 78.4964C164.669 78.0356 164.299 77.6621 163.843 77.6621C163.386 77.6621 163.016 78.0356 163.016 78.4964C163.016 78.9572 163.386 79.3308 163.843 79.3308Z" fill="#B4CC00"/>
<path d="M167.355 78.0797C167.926 78.0797 168.388 77.6128 168.388 77.0368C168.388 76.4608 167.926 75.9939 167.355 75.9939C166.785 75.9939 166.322 76.4608 166.322 77.0368C166.322 77.6128 166.785 78.0797 167.355 78.0797Z" fill="#9EB300"/>
<path d="M145.454 59.098C146.937 59.098 148.14 57.884 148.14 56.3864C148.14 54.8888 146.937 53.6748 145.454 53.6748C143.97 53.6748 142.768 54.8888 142.768 56.3864C142.768 57.884 143.97 59.098 145.454 59.098Z" fill="#9EB300"/>
<path d="M140.702 57.6381C142.185 57.6381 143.388 56.4241 143.388 54.9265C143.388 53.4289 142.185 52.2148 140.702 52.2148C139.218 52.2148 138.016 53.4289 138.016 54.9265C138.016 56.4241 139.218 57.6381 140.702 57.6381Z" fill="#B4CC00"/>
<path d="M131.611 57.8466C132.524 57.8466 133.264 57.0995 133.264 56.1779C133.264 55.2563 132.524 54.5093 131.611 54.5093C130.698 54.5093 129.958 55.2563 129.958 56.1779C129.958 57.0995 130.698 57.8466 131.611 57.8466Z" fill="#B4CC00"/>
<path d="M127.272 55.1353C128.413 55.1353 129.338 54.2015 129.338 53.0495C129.338 51.8975 128.413 50.9636 127.272 50.9636C126.131 50.9636 125.206 51.8975 125.206 53.0495C125.206 54.2015 126.131 55.1353 127.272 55.1353Z" fill="#9EB300"/>
<path d="M125.412 59.0984C126.325 59.0984 127.065 58.3512 127.065 57.4296C127.065 56.5081 126.325 55.761 125.412 55.761C124.499 55.761 123.759 56.5081 123.759 57.4296C123.759 58.3512 124.499 59.0984 125.412 59.0984Z" fill="#9EB300"/>
<path d="M161.57 77.0368C162.141 77.0368 162.603 76.5698 162.603 75.9939C162.603 75.4179 162.141 74.9509 161.57 74.9509C160.999 74.9509 160.537 75.4179 160.537 75.9939C160.537 76.5698 160.999 77.0368 161.57 77.0368Z" fill="#CBE600"/>
<path d="M163.016 78.2879C163.701 78.2879 164.256 77.7276 164.256 77.0364C164.256 76.3452 163.701 75.7849 163.016 75.7849C162.332 75.7849 161.777 76.3452 161.777 77.0364C161.777 77.7276 162.332 78.2879 163.016 78.2879Z" fill="#9EB300"/>
<path d="M161.983 74.7418C162.668 74.7418 163.223 74.1815 163.223 73.4903C163.223 72.7991 162.668 72.2388 161.983 72.2388C161.299 72.2388 160.743 72.7991 160.743 73.4903C160.743 74.1815 161.299 74.7418 161.983 74.7418Z" fill="#9EB300"/>
<path d="M161.57 73.0731C162.597 73.0731 163.43 72.2326 163.43 71.1959C163.43 70.1591 162.597 69.3186 161.57 69.3186C160.543 69.3186 159.71 70.1591 159.71 71.1959C159.71 72.2326 160.543 73.0731 161.57 73.0731Z" fill="#B4CC00"/>
<path d="M156.405 78.7051C157.203 78.7051 157.851 78.0514 157.851 77.245C157.851 76.4386 157.203 75.7849 156.405 75.7849C155.606 75.7849 154.958 76.4386 154.958 77.245C154.958 78.0514 155.606 78.7051 156.405 78.7051Z" fill="#9EB300"/>
<path d="M156.405 82.2509C157.66 82.2509 158.677 81.2237 158.677 79.9566C158.677 78.6894 157.66 77.6621 156.405 77.6621C155.149 77.6621 154.132 78.6894 154.132 79.9566C154.132 81.2237 155.149 82.2509 156.405 82.2509Z" fill="#9EB300"/>
<path d="M161.777 73.0732C162.347 73.0732 162.81 72.6062 162.81 72.0302C162.81 71.4542 162.347 70.9873 161.777 70.9873C161.206 70.9873 160.743 71.4542 160.743 72.0302C160.743 72.6062 161.206 73.0732 161.777 73.0732Z" fill="#B4CC00"/>
<path d="M158.884 70.3617C159.569 70.3617 160.124 69.8014 160.124 69.1102C160.124 68.419 159.569 67.8586 158.884 67.8586C158.199 67.8586 157.644 68.419 157.644 69.1102C157.644 69.8014 158.199 70.3617 158.884 70.3617Z" fill="#CBE600"/>
<path d="M155.372 74.3253C156.399 74.3253 157.231 73.4848 157.231 72.448C157.231 71.4113 156.399 70.5708 155.372 70.5708C154.345 70.5708 153.512 71.4113 153.512 72.448C153.512 73.4848 154.345 74.3253 155.372 74.3253Z" fill="#B4CC00"/>
<path d="M155.372 82.2507C156.17 82.2507 156.818 81.5971 156.818 80.7907C156.818 79.9843 156.17 79.3306 155.372 79.3306C154.573 79.3306 153.925 79.9843 153.925 80.7907C153.925 81.5971 154.573 82.2507 155.372 82.2507Z" fill="#B4CC00"/>
<path d="M155.372 83.7114C156.969 83.7114 158.264 82.404 158.264 80.7913C158.264 79.1785 156.969 77.8711 155.372 77.8711C153.774 77.8711 152.479 79.1785 152.479 80.7913C152.479 82.404 153.774 83.7114 155.372 83.7114Z" fill="#9EB300"/>
<path d="M156.818 81.2081C158.301 81.2081 159.504 79.9941 159.504 78.4965C159.504 76.9989 158.301 75.7849 156.818 75.7849C155.334 75.7849 154.132 76.9989 154.132 78.4965C154.132 79.9941 155.334 81.2081 156.818 81.2081Z" fill="#9EB300"/>
<path d="M158.057 79.1226C159.541 79.1226 160.743 77.9086 160.743 76.411C160.743 74.9135 159.541 73.6995 158.057 73.6995C156.574 73.6995 155.371 74.9135 155.371 76.411C155.371 77.9086 156.574 79.1226 158.057 79.1226Z" fill="#B4CC00"/>
<path d="M156.611 72.6561C157.296 72.6561 157.851 72.0958 157.851 71.4046C157.851 70.7134 157.296 70.1531 156.611 70.1531C155.927 70.1531 155.371 70.7134 155.371 71.4046C155.371 72.0958 155.927 72.6561 156.611 72.6561Z" fill="#B4CC00"/>
<path d="M154.958 77.2448C155.529 77.2448 155.991 76.7778 155.991 76.2019C155.991 75.6259 155.529 75.1589 154.958 75.1589C154.388 75.1589 153.925 75.6259 153.925 76.2019C153.925 76.7778 154.388 77.2448 154.958 77.2448Z" fill="#CBE600"/>
<path d="M150.826 80.5821C151.967 80.5821 152.892 79.6482 152.892 78.4962C152.892 77.3443 151.967 76.4104 150.826 76.4104C149.685 76.4104 148.76 77.3443 148.76 78.4962C148.76 79.6482 149.685 80.5821 150.826 80.5821Z" fill="#9EB300"/>
<path d="M147.52 81.2084C148.433 81.2084 149.173 80.4613 149.173 79.5397C149.173 78.6182 148.433 77.8711 147.52 77.8711C146.607 77.8711 145.867 78.6182 145.867 79.5397C145.867 80.4613 146.607 81.2084 147.52 81.2084Z" fill="#B4CC00"/>
<path d="M135.95 54.0917C137.319 54.0917 138.429 52.9711 138.429 51.5887C138.429 50.2064 137.319 49.0857 135.95 49.0857C134.58 49.0857 133.47 50.2064 133.47 51.5887C133.47 52.9711 134.58 54.0917 135.95 54.0917Z" fill="#B4CC00"/>
<path d="M151.033 81.6256C151.717 81.6256 152.272 81.0653 152.272 80.3741C152.272 79.6829 151.717 79.1226 151.033 79.1226C150.348 79.1226 149.793 79.6829 149.793 80.3741C149.793 81.0653 150.348 81.6256 151.033 81.6256Z" fill="#9EB300"/>
<path d="M153.925 79.5392C155.409 79.5392 156.611 78.3252 156.611 76.8276C156.611 75.33 155.409 74.116 153.925 74.116C152.442 74.116 151.239 75.33 151.239 76.8276C151.239 78.3252 152.442 79.5392 153.925 79.5392Z" fill="#B4CC00"/>
<path d="M154.545 72.8651C155.116 72.8651 155.578 72.3982 155.578 71.8222C155.578 71.2462 155.116 70.7793 154.545 70.7793C153.975 70.7793 153.512 71.2462 153.512 71.8222C153.512 72.3982 153.975 72.8651 154.545 72.8651Z" fill="#CBE600"/>
<path d="M155.578 67.233C157.062 67.233 158.264 66.019 158.264 64.5214C158.264 63.0238 157.062 61.8098 155.578 61.8098C154.095 61.8098 152.892 63.0238 152.892 64.5214C152.892 66.019 154.095 67.233 155.578 67.233Z" fill="#B4CC00"/>
<path d="M154.132 66.8153C154.702 66.8153 155.165 66.3484 155.165 65.7724C155.165 65.1964 154.702 64.7295 154.132 64.7295C153.561 64.7295 153.099 65.1964 153.099 65.7724C153.099 66.3484 153.561 66.8153 154.132 66.8153Z" fill="#9EB300"/>
<path d="M151.859 74.5333C153.342 74.5333 154.545 73.3193 154.545 71.8217C154.545 70.3241 153.342 69.1101 151.859 69.1101C150.376 69.1101 149.173 70.3241 149.173 71.8217C149.173 73.3193 150.376 74.5333 151.859 74.5333Z" fill="#CBE600"/>
<path d="M148.76 74.7427C150.129 74.7427 151.239 73.622 151.239 72.2396C151.239 70.8572 150.129 69.7366 148.76 69.7366C147.391 69.7366 146.28 70.8572 146.28 72.2396C146.28 73.622 147.391 74.7427 148.76 74.7427Z" fill="#9EB300"/>
<path d="M146.9 75.3673C148.384 75.3673 149.586 74.1533 149.586 72.6557C149.586 71.1582 148.384 69.9441 146.9 69.9441C145.417 69.9441 144.214 71.1582 144.214 72.6557C144.214 74.1533 145.417 75.3673 146.9 75.3673Z" fill="#B4CC00"/>
<path d="M142.355 82.2516C142.925 82.2516 143.388 81.7847 143.388 81.2087C143.388 80.6327 142.925 80.1658 142.355 80.1658C141.784 80.1658 141.322 80.6327 141.322 81.2087C141.322 81.7847 141.784 82.2516 142.355 82.2516Z" fill="#9EB300"/>
<path d="M141.942 83.9193C143.425 83.9193 144.628 82.7052 144.628 81.2077C144.628 79.7101 143.425 78.4961 141.942 78.4961C140.458 78.4961 139.256 79.7101 139.256 81.2077C139.256 82.7052 140.458 83.9193 141.942 83.9193Z" fill="#9EB300"/>
<path d="M144.214 83.5028C145.698 83.5028 146.9 82.2888 146.9 80.7912C146.9 79.2937 145.698 78.0796 144.214 78.0796C142.731 78.0796 141.528 79.2937 141.528 80.7912C141.528 82.2888 142.731 83.5028 144.214 83.5028Z" fill="#9EB300"/>
<path d="M147.52 76.4105C148.661 76.4105 149.586 75.4766 149.586 74.3246C149.586 73.1726 148.661 72.2388 147.52 72.2388C146.379 72.2388 145.454 73.1726 145.454 74.3246C145.454 75.4766 146.379 76.4105 147.52 76.4105Z" fill="#CBE600"/>
<path d="M152.066 74.325C153.663 74.325 154.958 73.0176 154.958 71.4048C154.958 69.792 153.663 68.4846 152.066 68.4846C150.468 68.4846 149.173 69.792 149.173 71.4048C149.173 73.0176 150.468 74.325 152.066 74.325Z" fill="#B4CC00"/>
<path d="M151.033 67.442C152.174 67.442 153.099 66.5081 153.099 65.3561C153.099 64.2041 152.174 63.2703 151.033 63.2703C149.891 63.2703 148.966 64.2041 148.966 65.3561C148.966 66.5081 149.891 67.442 151.033 67.442Z" fill="#B4CC00"/>
<path d="M148.966 69.1098C149.537 69.1098 150 68.6428 150 68.0668C150 67.4909 149.537 67.0239 148.966 67.0239C148.396 67.0239 147.933 67.4909 147.933 68.0668C147.933 68.6428 148.396 69.1098 148.966 69.1098Z" fill="#B4CC00"/>
<path d="M145.661 70.7788C146.459 70.7788 147.107 70.1251 147.107 69.3188C147.107 68.5124 146.459 67.8586 145.661 67.8586C144.862 67.8586 144.214 68.5124 144.214 69.3188C144.214 70.1251 144.862 70.7788 145.661 70.7788Z" fill="#B4CC00"/>
<path d="M140.082 78.4966C141.223 78.4966 142.148 77.5628 142.148 76.4108C142.148 75.2588 141.223 74.325 140.082 74.325C138.941 74.325 138.016 75.2588 138.016 76.4108C138.016 77.5628 138.941 78.4966 140.082 78.4966Z" fill="#B4CC00"/>
<path d="M136.983 83.2941C137.896 83.2941 138.636 82.547 138.636 81.6254C138.636 80.7039 137.896 79.9568 136.983 79.9568C136.07 79.9568 135.33 80.7039 135.33 81.6254C135.33 82.547 136.07 83.2941 136.983 83.2941Z" fill="#9EB300"/>
<path d="M135.743 83.9199C136.542 83.9199 137.189 83.2662 137.189 82.4598C137.189 81.6534 136.542 80.9998 135.743 80.9998C134.944 80.9998 134.297 81.6534 134.297 82.4598C134.297 83.2662 134.944 83.9199 135.743 83.9199Z" fill="#CBE600"/>
<path d="M142.148 83.2937C142.833 83.2937 143.388 82.7335 143.388 82.0423C143.388 81.3511 142.833 80.7908 142.148 80.7908C141.463 80.7908 140.908 81.3511 140.908 82.0423C140.908 82.7335 141.463 83.2937 142.148 83.2937Z" fill="#B4CC00"/>
<path d="M145.247 82.0424C146.16 82.0424 146.9 81.2953 146.9 80.3737C146.9 79.4521 146.16 78.7051 145.247 78.7051C144.335 78.7051 143.594 79.4521 143.594 80.3737C143.594 81.2953 144.335 82.0424 145.247 82.0424Z" fill="#CBE600"/>
<path d="M148.76 74.7425C149.901 74.7425 150.826 73.8086 150.826 72.6566C150.826 71.5047 149.901 70.5708 148.76 70.5708C147.619 70.5708 146.694 71.5047 146.694 72.6566C146.694 73.8086 147.619 74.7425 148.76 74.7425Z" fill="#9EB300"/>
<path d="M150.206 73.49C151.461 73.49 152.479 72.4627 152.479 71.1956C152.479 69.9284 151.461 68.9011 150.206 68.9011C148.951 68.9011 147.933 69.9284 147.933 71.1956C147.933 72.4627 148.951 73.49 150.206 73.49Z" fill="#9EB300"/>
<path d="M151.652 65.1468C152.337 65.1468 152.892 64.5865 152.892 63.8953C152.892 63.2041 152.337 62.6438 151.652 62.6438C150.968 62.6438 150.413 63.2041 150.413 63.8953C150.413 64.5865 150.968 65.1468 151.652 65.1468Z" fill="#B4CC00"/>
<path d="M147.314 64.3129C147.998 64.3129 148.553 63.7525 148.553 63.0613C148.553 62.3701 147.998 61.8098 147.314 61.8098C146.629 61.8098 146.074 62.3701 146.074 63.0613C146.074 63.7525 146.629 64.3129 147.314 64.3129Z" fill="#B4CC00"/>
<path d="M143.801 73.2819C144.257 73.2819 144.627 72.9084 144.627 72.4476C144.627 71.9868 144.257 71.6133 143.801 71.6133C143.345 71.6133 142.975 71.9868 142.975 72.4476C142.975 72.9084 143.345 73.2819 143.801 73.2819Z" fill="#B4CC00"/>
<path d="M140.289 72.6566C140.859 72.6566 141.322 72.1897 141.322 71.6137C141.322 71.0377 140.859 70.5708 140.289 70.5708C139.718 70.5708 139.256 71.0377 139.256 71.6137C139.256 72.1897 139.718 72.6566 140.289 72.6566Z" fill="#9EB300"/>
<path d="M135.123 75.9938C135.694 75.9938 136.156 75.5269 136.156 74.9509C136.156 74.3749 135.694 73.908 135.123 73.908C134.553 73.908 134.09 74.3749 134.09 74.9509C134.09 75.5269 134.553 75.9938 135.123 75.9938Z" fill="#B4CC00"/>
<path d="M132.85 82.8775C133.307 82.8775 133.677 82.5039 133.677 82.0431C133.677 81.5823 133.307 81.2087 132.85 81.2087C132.394 81.2087 132.024 81.5823 132.024 82.0431C132.024 82.5039 132.394 82.8775 132.85 82.8775Z" fill="#9EB300"/>
<path d="M134.09 80.3738C134.889 80.3738 135.536 79.7201 135.536 78.9137C135.536 78.1073 134.889 77.4536 134.09 77.4536C133.291 77.4536 132.644 78.1073 132.644 78.9137C132.644 79.7201 133.291 80.3738 134.09 80.3738Z" fill="#B4CC00"/>
<path d="M134.09 76.6196C134.547 76.6196 134.917 76.2461 134.917 75.7853C134.917 75.3245 134.547 74.9509 134.09 74.9509C133.634 74.9509 133.264 75.3245 133.264 75.7853C133.264 76.2461 133.634 76.6196 134.09 76.6196Z" fill="#CBE600"/>
<path d="M139.049 77.454C140.076 77.454 140.908 76.6135 140.908 75.5767C140.908 74.5399 140.076 73.6995 139.049 73.6995C138.022 73.6995 137.189 74.5399 137.189 75.5767C137.189 76.6135 138.022 77.454 139.049 77.454Z" fill="#9EB300"/>
<path d="M139.462 72.2396C140.147 72.2396 140.702 71.6793 140.702 70.9881C140.702 70.2969 140.147 69.7366 139.462 69.7366C138.777 69.7366 138.222 70.2969 138.222 70.9881C138.222 71.6793 138.777 72.2396 139.462 72.2396Z" fill="#B4CC00"/>
<path d="M141.322 73.2819C142.805 73.2819 144.008 72.0679 144.008 70.5703C144.008 69.0727 142.805 67.8586 141.322 67.8586C139.838 67.8586 138.636 69.0727 138.636 70.5703C138.636 72.0679 139.838 73.2819 141.322 73.2819Z" fill="#CBE600"/>
<path d="M141.735 67.024C142.876 67.024 143.801 66.0901 143.801 64.9381C143.801 63.7862 142.876 62.8523 141.735 62.8523C140.594 62.8523 139.669 63.7862 139.669 64.9381C139.669 66.0901 140.594 67.024 141.735 67.024Z" fill="#CBE600"/>
<path d="M147.314 61.6015C148.226 61.6015 148.966 60.8545 148.966 59.9329C148.966 59.0113 148.226 58.2642 147.314 58.2642C146.401 58.2642 145.661 59.0113 145.661 59.9329C145.661 60.8545 146.401 61.6015 147.314 61.6015Z" fill="#9EB300"/>
<path d="M145.247 67.8591C146.503 67.8591 147.52 66.8318 147.52 65.5646C147.52 64.2975 146.503 63.2703 145.247 63.2703C143.992 63.2703 142.975 64.2975 142.975 65.5646C142.975 66.8318 143.992 67.8591 145.247 67.8591Z" fill="#B4CC00"/>
<path d="M139.049 68.4841C139.505 68.4841 139.875 68.1105 139.875 67.6498C139.875 67.189 139.505 66.8154 139.049 66.8154C138.592 66.8154 138.222 67.189 138.222 67.6498C138.222 68.1105 138.592 68.4841 139.049 68.4841Z" fill="#9EB300"/>
<path d="M137.603 76.8283C138.173 76.8283 138.636 76.3613 138.636 75.7854C138.636 75.2094 138.173 74.7424 137.603 74.7424C137.032 74.7424 136.57 75.2094 136.57 75.7854C136.57 76.3613 137.032 76.8283 137.603 76.8283Z" fill="#9EB300"/>
<path d="M128.718 81.417C129.631 81.417 130.371 80.6699 130.371 79.7483C130.371 78.8267 129.631 78.0796 128.718 78.0796C127.805 78.0796 127.065 78.8267 127.065 79.7483C127.065 80.6699 127.805 81.417 128.718 81.417Z" fill="#CBE600"/>
<path d="M130.371 85.588C131.512 85.588 132.437 84.6541 132.437 83.5021C132.437 82.3501 131.512 81.4163 130.371 81.4163C129.23 81.4163 128.305 82.3501 128.305 83.5021C128.305 84.6541 129.23 85.588 130.371 85.588Z" fill="#B4CC00"/>
<path d="M135.123 82.0426C135.694 82.0426 136.156 81.5757 136.156 80.9997C136.156 80.4237 135.694 79.9568 135.123 79.9568C134.553 79.9568 134.09 80.4237 134.09 80.9997C134.09 81.5757 134.553 82.0426 135.123 82.0426Z" fill="#B4CC00"/>
<path d="M136.363 75.9933C137.39 75.9933 138.222 75.1528 138.222 74.116C138.222 73.0792 137.39 72.2388 136.363 72.2388C135.336 72.2388 134.503 73.0792 134.503 74.116C134.503 75.1528 135.336 75.9933 136.363 75.9933Z" fill="#CBE600"/>
<path d="M137.809 69.319C138.38 69.319 138.842 68.8521 138.842 68.2761C138.842 67.7001 138.38 67.2332 137.809 67.2332C137.239 67.2332 136.776 67.7001 136.776 68.2761C136.776 68.8521 137.239 69.319 137.809 69.319Z" fill="#B4CC00"/>
<path d="M142.768 71.6128C144.023 71.6128 145.041 70.5855 145.041 69.3184C145.041 68.0512 144.023 67.0239 142.768 67.0239C141.513 67.0239 140.495 68.0512 140.495 69.3184C140.495 70.5855 141.513 71.6128 142.768 71.6128Z" fill="#9EB300"/>
<path d="M142.148 64.7299C142.605 64.7299 142.975 64.3564 142.975 63.8956C142.975 63.4348 142.605 63.0613 142.148 63.0613C141.692 63.0613 141.322 63.4348 141.322 63.8956C141.322 64.3564 141.692 64.7299 142.148 64.7299Z" fill="#9EB300"/>
<path d="M146.694 63.6868C148.291 63.6868 149.586 62.3794 149.586 60.7666C149.586 59.1538 148.291 57.8464 146.694 57.8464C145.096 57.8464 143.801 59.1538 143.801 60.7666C143.801 62.3794 145.096 63.6868 146.694 63.6868Z" fill="#B4CC00"/>
<path d="M144.008 54.9271C144.806 54.9271 145.454 54.2733 145.454 53.467C145.454 52.6606 144.806 52.0068 144.008 52.0068C143.209 52.0068 142.561 52.6606 142.561 53.467C142.561 54.2733 143.209 54.9271 144.008 54.9271Z" fill="#B4CC00"/>
<path d="M142.975 58.4723C144.002 58.4723 144.834 57.6318 144.834 56.595C144.834 55.5582 144.002 54.7178 142.975 54.7178C141.948 54.7178 141.115 55.5582 141.115 56.595C141.115 57.6318 141.948 58.4723 142.975 58.4723Z" fill="#9EB300"/>
<path d="M138.222 61.6013C138.679 61.6013 139.049 61.2277 139.049 60.7669C139.049 60.3062 138.679 59.9326 138.222 59.9326C137.766 59.9326 137.396 60.3062 137.396 60.7669C137.396 61.2277 137.766 61.6013 138.222 61.6013Z" fill="#9EB300"/>
<path d="M133.677 69.7355C135.046 69.7355 136.156 68.6149 136.156 67.2325C136.156 65.8502 135.046 64.7295 133.677 64.7295C132.308 64.7295 131.198 65.8502 131.198 67.2325C131.198 68.6149 132.308 69.7355 133.677 69.7355Z" fill="#CBE600"/>
<path d="M131.611 78.2879C132.295 78.2879 132.85 77.7276 132.85 77.0364C132.85 76.3452 132.295 75.7849 131.611 75.7849C130.926 75.7849 130.371 76.3452 130.371 77.0364C130.371 77.7276 130.926 78.2879 131.611 78.2879Z" fill="#9EB300"/>
<path d="M130.578 80.1656C131.719 80.1656 132.644 79.2317 132.644 78.0797C132.644 76.9278 131.719 75.9939 130.578 75.9939C129.437 75.9939 128.512 76.9278 128.512 78.0797C128.512 79.2317 129.437 80.1656 130.578 80.1656Z" fill="#B4CC00"/>
<path d="M126.652 85.589C128.135 85.589 129.338 84.375 129.338 82.8774C129.338 81.3798 128.135 80.1658 126.652 80.1658C125.169 80.1658 123.966 81.3798 123.966 82.8774C123.966 84.375 125.169 85.589 126.652 85.589Z" fill="#B4CC00"/>
<path d="M129.958 76.6193C131.327 76.6193 132.437 75.4986 132.437 74.1163C132.437 72.7339 131.327 71.6133 129.958 71.6133C128.589 71.6133 127.478 72.7339 127.478 74.1163C127.478 75.4986 128.589 76.6193 129.958 76.6193Z" fill="#9EB300"/>
<path d="M136.363 74.5336C137.732 74.5336 138.842 73.4129 138.842 72.0306C138.842 70.6482 137.732 69.5276 136.363 69.5276C134.994 69.5276 133.884 70.6482 133.884 72.0306C133.884 73.4129 134.994 74.5336 136.363 74.5336Z" fill="#CBE600"/>
<path d="M136.983 63.4785C138.238 63.4785 139.256 62.4513 139.256 61.1841C139.256 59.9169 138.238 58.8896 136.983 58.8896C135.728 58.8896 134.71 59.9169 134.71 61.1841C134.71 62.4513 135.728 63.4785 136.983 63.4785Z" fill="#CBE600"/>
<path d="M141.322 61.601C141.892 61.601 142.355 61.1341 142.355 60.5581C142.355 59.9821 141.892 59.5151 141.322 59.5151C140.751 59.5151 140.289 59.9821 140.289 60.5581C140.289 61.1341 140.751 61.601 141.322 61.601Z" fill="#9EB300"/>
<path d="M136.983 61.3923C137.782 61.3923 138.429 60.7387 138.429 59.9323C138.429 59.1259 137.782 58.4722 136.983 58.4722C136.184 58.4722 135.536 59.1259 135.536 59.9323C135.536 60.7387 136.184 61.3923 136.983 61.3923Z" fill="#9EB300"/>
<path d="M134.917 68.6926C135.715 68.6926 136.363 68.039 136.363 67.2326C136.363 66.4262 135.715 65.7725 134.917 65.7725C134.118 65.7725 133.47 66.4262 133.47 67.2326C133.47 68.039 134.118 68.6926 134.917 68.6926Z" fill="#CBE600"/>
<path d="M130.991 66.3982C131.447 66.3982 131.817 66.0246 131.817 65.5638C131.817 65.103 131.447 64.7295 130.991 64.7295C130.535 64.7295 130.164 65.103 130.164 65.5638C130.164 66.0246 130.535 66.3982 130.991 66.3982Z" fill="#9EB300"/>
<path d="M126.239 71.6131C126.923 71.6131 127.479 71.0528 127.479 70.3616C127.479 69.6704 126.923 69.1101 126.239 69.1101C125.554 69.1101 124.999 69.6704 124.999 70.3616C124.999 71.0528 125.554 71.6131 126.239 71.6131Z" fill="#B4CC00"/>
<path d="M129.131 76.4108C129.702 76.4108 130.164 75.9439 130.164 75.3679C130.164 74.7919 129.702 74.325 129.131 74.325C128.561 74.325 128.098 74.7919 128.098 75.3679C128.098 75.9439 128.561 76.4108 129.131 76.4108Z" fill="#CBE600"/>
<path d="M123.553 84.3366C124.922 84.3366 126.032 83.216 126.032 81.8336C126.032 80.4512 124.922 79.3306 123.553 79.3306C122.183 79.3306 121.073 80.4512 121.073 81.8336C121.073 83.216 122.183 84.3366 123.553 84.3366Z" fill="#CBE600"/>
<path d="M128.718 78.0793C129.973 78.0793 130.991 77.0521 130.991 75.7849C130.991 74.5177 129.973 73.4905 128.718 73.4905C127.463 73.4905 126.445 74.5177 126.445 75.7849C126.445 77.0521 127.463 78.0793 128.718 78.0793Z" fill="#CBE600"/>
<path d="M128.718 74.9511C129.289 74.9511 129.751 74.4841 129.751 73.9082C129.751 73.3322 129.289 72.8652 128.718 72.8652C128.148 72.8652 127.685 73.3322 127.685 73.9082C127.685 74.4841 128.148 74.9511 128.718 74.9511Z" fill="#CBE600"/>
<path d="M131.611 69.527C132.638 69.527 133.47 68.6865 133.47 67.6497C133.47 66.6129 132.638 65.7725 131.611 65.7725C130.584 65.7725 129.751 66.6129 129.751 67.6497C129.751 68.6865 130.584 69.527 131.611 69.527Z" fill="#9EB300"/>
<path d="M138.429 65.1468C139.912 65.1468 141.115 63.9328 141.115 62.4352C141.115 60.9376 139.912 59.7236 138.429 59.7236C136.946 59.7236 135.743 60.9376 135.743 62.4352C135.743 63.9328 136.946 65.1468 138.429 65.1468Z" fill="#B4CC00"/>
<path d="M139.049 61.393C139.619 61.393 140.082 60.926 140.082 60.3501C140.082 59.7741 139.619 59.3071 139.049 59.3071C138.478 59.3071 138.016 59.7741 138.016 60.3501C138.016 60.926 138.478 61.393 139.049 61.393Z" fill="#9EB300"/>
<path d="M139.875 59.0983C140.446 59.0983 140.908 58.6314 140.908 58.0554C140.908 57.4794 140.446 57.0125 139.875 57.0125C139.305 57.0125 138.842 57.4794 138.842 58.0554C138.842 58.6314 139.305 59.0983 139.875 59.0983Z" fill="#B4CC00"/>
<path d="M134.09 58.6817C135.345 58.6817 136.363 57.6544 136.363 56.3872C136.363 55.12 135.345 54.0928 134.09 54.0928C132.835 54.0928 131.817 55.12 131.817 56.3872C131.817 57.6544 132.835 58.6817 134.09 58.6817Z" fill="#B4CC00"/>
<path d="M134.71 60.5583C135.166 60.5583 135.536 60.1848 135.536 59.724C135.536 59.2632 135.166 58.8896 134.71 58.8896C134.254 58.8896 133.884 59.2632 133.884 59.724C133.884 60.1848 134.254 60.5583 134.71 60.5583Z" fill="#9EB300"/>
<path d="M133.264 65.5647C134.519 65.5647 135.536 64.5375 135.536 63.2703C135.536 62.0031 134.519 60.9758 133.264 60.9758C132.008 60.9758 130.991 62.0031 130.991 63.2703C130.991 64.5375 132.008 65.5647 133.264 65.5647Z" fill="#CBE600"/>
<path d="M128.305 70.7788C129.56 70.7788 130.578 69.7516 130.578 68.4844C130.578 67.2172 129.56 66.1899 128.305 66.1899C127.05 66.1899 126.032 67.2172 126.032 68.4844C126.032 69.7516 127.05 70.7788 128.305 70.7788Z" fill="#9EB300"/>
<path d="M124.586 70.362C125.613 70.362 126.445 69.5215 126.445 68.4847C126.445 67.448 125.613 66.6074 124.586 66.6074C123.559 66.6074 122.726 67.448 122.726 68.4847C122.726 69.5215 123.559 70.362 124.586 70.362Z" fill="#9EB300"/>
<path d="M122.107 77.0364C122.791 77.0364 123.346 76.4762 123.346 75.785C123.346 75.0938 122.791 74.5334 122.107 74.5334C121.422 74.5334 120.867 75.0938 120.867 75.785C120.867 76.4762 121.422 77.0364 122.107 77.0364Z" fill="#CBE600"/>
<path d="M118.387 84.7543C119.757 84.7543 120.867 83.6336 120.867 82.2513C120.867 80.8689 119.757 79.7483 118.387 79.7483C117.018 79.7483 115.908 80.8689 115.908 82.2513C115.908 83.6336 117.018 84.7543 118.387 84.7543Z" fill="#CBE600"/>
<path d="M120.66 83.2939C121.117 83.2939 121.487 82.9204 121.487 82.4596C121.487 81.9988 121.117 81.6252 120.66 81.6252C120.204 81.6252 119.834 81.9988 119.834 82.4596C119.834 82.9204 120.204 83.2939 120.66 83.2939Z" fill="#B4CC00"/>
<path d="M122.313 76.411C122.998 76.411 123.553 75.8507 123.553 75.1595C123.553 74.4683 122.998 73.908 122.313 73.908C121.628 73.908 121.073 74.4683 121.073 75.1595C121.073 75.8507 121.628 76.411 122.313 76.411Z" fill="#CBE600"/>
<path d="M123.346 75.9934C124.944 75.9934 126.239 74.686 126.239 73.0732C126.239 71.4605 124.944 70.1531 123.346 70.1531C121.749 70.1531 120.454 71.4605 120.454 73.0732C120.454 74.686 121.749 75.9934 123.346 75.9934Z" fill="#B4CC00"/>
<path d="M131.404 70.9877C132.431 70.9877 133.264 70.1472 133.264 69.1104C133.264 68.0736 132.431 67.2332 131.404 67.2332C130.377 67.2332 129.545 68.0736 129.545 69.1104C129.545 70.1472 130.377 70.9877 131.404 70.9877Z" fill="#B4CC00"/>
<path d="M132.85 66.6069C133.649 66.6069 134.297 65.9533 134.297 65.1469C134.297 64.3405 133.649 63.6868 132.85 63.6868C132.052 63.6868 131.404 64.3405 131.404 65.1469C131.404 65.9533 132.052 66.6069 132.85 66.6069Z" fill="#9EB300"/>
<path d="M134.297 59.9327C135.438 59.9327 136.363 58.9988 136.363 57.8468C136.363 56.6949 135.438 55.761 134.297 55.761C133.156 55.761 132.231 56.6949 132.231 57.8468C132.231 58.9988 133.156 59.9327 134.297 59.9327Z" fill="#9EB300"/>
<path d="M136.363 57.0129C137.732 57.0129 138.842 55.8923 138.842 54.5099C138.842 53.1275 137.732 52.0068 136.363 52.0068C134.994 52.0068 133.884 53.1275 133.884 54.5099C133.884 55.8923 134.994 57.0129 136.363 57.0129Z" fill="#B4CC00"/>
<path d="M136.983 57.8472C137.782 57.8472 138.429 57.1934 138.429 56.3871C138.429 55.5807 137.782 54.927 136.983 54.927C136.184 54.927 135.536 55.5807 135.536 56.3871C135.536 57.1934 136.184 57.8472 136.983 57.8472Z" fill="#CBE600"/>
<path d="M130.784 59.3067C132.382 59.3067 133.677 57.9993 133.677 56.3865C133.677 54.7737 132.382 53.4663 130.784 53.4663C129.187 53.4663 127.892 54.7737 127.892 56.3865C127.892 57.9993 129.187 59.3067 130.784 59.3067Z" fill="#CBE600"/>
<path d="M127.065 65.9818C128.435 65.9818 129.545 64.8612 129.545 63.4788C129.545 62.0964 128.435 60.9758 127.065 60.9758C125.696 60.9758 124.586 62.0964 124.586 63.4788C124.586 64.8612 125.696 65.9818 127.065 65.9818Z" fill="#B4CC00"/>
<path d="M120.04 71.6129C121.638 71.6129 122.933 70.3054 122.933 68.6926C122.933 67.0799 121.638 65.7725 120.04 65.7725C118.443 65.7725 117.148 67.0799 117.148 68.6926C117.148 70.3054 118.443 71.6129 120.04 71.6129Z" fill="#CBE600"/>
<path d="M113.842 76.4111C114.298 76.4111 114.668 76.0375 114.668 75.5768C114.668 75.116 114.298 74.7424 113.842 74.7424C113.385 74.7424 113.015 75.116 113.015 75.5768C113.015 76.0375 113.385 76.4111 113.842 76.4111Z" fill="#9EB300"/>
<path d="M110.949 79.5388C111.862 79.5388 112.602 78.7917 112.602 77.8701C112.602 76.9485 111.862 76.2014 110.949 76.2014C110.036 76.2014 109.296 76.9485 109.296 77.8701C109.296 78.7917 110.036 79.5388 110.949 79.5388Z" fill="#CBE600"/>
<path d="M117.974 80.3737C119.229 80.3737 120.247 79.3465 120.247 78.0793C120.247 76.8121 119.229 75.7849 117.974 75.7849C116.719 75.7849 115.701 76.8121 115.701 78.0793C115.701 79.3465 116.719 80.3737 117.974 80.3737Z" fill="#CBE600"/>
<path d="M119.42 70.9875C120.79 70.9875 121.9 69.8669 121.9 68.4845C121.9 67.1021 120.79 65.9814 119.42 65.9814C118.051 65.9814 116.941 67.1021 116.941 68.4845C116.941 69.8669 118.051 70.9875 119.42 70.9875Z" fill="#CBE600"/>
<path d="M125.619 69.527C126.646 69.527 127.478 68.6865 127.478 67.6497C127.478 66.6129 126.646 65.7725 125.619 65.7725C124.592 65.7725 123.759 66.6129 123.759 67.6497C123.759 68.6865 124.592 69.527 125.619 69.527Z" fill="#9EB300"/>
<path d="M123.346 65.9815C124.487 65.9815 125.412 65.0476 125.412 63.8957C125.412 62.7437 124.487 61.8098 123.346 61.8098C122.205 61.8098 121.28 62.7437 121.28 63.8957C121.28 65.0476 122.205 65.9815 123.346 65.9815Z" fill="#9EB300"/>
<path d="M125.619 60.7672C126.304 60.7672 126.859 60.2069 126.859 59.5157C126.859 58.8245 126.304 58.2642 125.619 58.2642C124.934 58.2642 124.379 58.8245 124.379 59.5157C124.379 60.2069 124.934 60.7672 125.619 60.7672Z" fill="#9EB300"/>
<path d="M129.545 58.0555C130.686 58.0555 131.611 57.1216 131.611 55.9696C131.611 54.8177 130.686 53.8838 129.545 53.8838C128.404 53.8838 127.478 54.8177 127.478 55.9696C127.478 57.1216 128.404 58.0555 129.545 58.0555Z" fill="#CBE600"/>
<path d="M131.817 58.6805C133.301 58.6805 134.503 57.4665 134.503 55.969C134.503 54.4714 133.301 53.2573 131.817 53.2573C130.334 53.2573 129.131 54.4714 129.131 55.969C129.131 57.4665 130.334 58.6805 131.817 58.6805Z" fill="#B4CC00"/>
<path d="M123.553 60.7674C124.808 60.7674 125.826 59.7401 125.826 58.4729C125.826 57.2057 124.808 56.1785 123.553 56.1785C122.298 56.1785 121.28 57.2057 121.28 58.4729C121.28 59.7401 122.298 60.7674 123.553 60.7674Z" fill="#B4CC00"/>
<path d="M118.387 66.6075C119.072 66.6075 119.627 66.0472 119.627 65.356C119.627 64.6648 119.072 64.1045 118.387 64.1045C117.703 64.1045 117.148 64.6648 117.148 65.356C117.148 66.0472 117.703 66.6075 118.387 66.6075Z" fill="#9EB300"/>
<path d="M112.189 72.8651C112.759 72.8651 113.222 72.3982 113.222 71.8222C113.222 71.2462 112.759 70.7793 112.189 70.7793C111.618 70.7793 111.156 71.2462 111.156 71.8222C111.156 72.3982 111.618 72.8651 112.189 72.8651Z" fill="#B4CC00"/>
<path d="M112.396 79.7482C113.879 79.7482 115.082 78.5341 115.082 77.0365C115.082 75.539 113.879 74.325 112.396 74.325C110.912 74.325 109.71 75.539 109.71 77.0365C109.71 78.5341 110.912 79.7482 112.396 79.7482Z" fill="#CBE600"/>
<path d="M119.214 73.0739C120.127 73.0739 120.867 72.3269 120.867 71.4053C120.867 70.4837 120.127 69.7366 119.214 69.7366C118.301 69.7366 117.561 70.4837 117.561 71.4053C117.561 72.3269 118.301 73.0739 119.214 73.0739Z" fill="#B4CC00"/>
<path d="M122.106 66.1903C123.476 66.1903 124.586 65.0697 124.586 63.6873C124.586 62.3049 123.476 61.1843 122.106 61.1843C120.737 61.1843 119.627 62.3049 119.627 63.6873C119.627 65.0697 120.737 66.1903 122.106 66.1903Z" fill="#9EB300"/>
<path d="M125.619 65.9818C126.646 65.9818 127.478 65.1413 127.478 64.1045C127.478 63.0678 126.646 62.2273 125.619 62.2273C124.592 62.2273 123.759 63.0678 123.759 64.1045C123.759 65.1413 124.592 65.9818 125.619 65.9818Z" fill="#B4CC00"/>
<path d="M128.925 62.853C130.18 62.853 131.198 61.8258 131.198 60.5586C131.198 59.2914 130.18 58.2642 128.925 58.2642C127.67 58.2642 126.652 59.2914 126.652 60.5586C126.652 61.8258 127.67 62.853 128.925 62.853Z" fill="#9EB300"/>
<path d="M123.966 63.4778C124.765 63.4778 125.412 62.8241 125.412 62.0177C125.412 61.2113 124.765 60.5576 123.966 60.5576C123.167 60.5576 122.52 61.2113 122.52 62.0177C122.52 62.8241 123.167 63.4778 123.966 63.4778Z" fill="#CBE600"/>
<path d="M117.561 68.0676C119.159 68.0676 120.454 66.7602 120.454 65.1475C120.454 63.5347 119.159 62.2273 117.561 62.2273C115.963 62.2273 114.668 63.5347 114.668 65.1475C114.668 66.7602 115.963 68.0676 117.561 68.0676Z" fill="#B4CC00"/>
<path d="M114.875 67.8591C116.13 67.8591 117.148 66.8318 117.148 65.5646C117.148 64.2975 116.13 63.2703 114.875 63.2703C113.62 63.2703 112.602 64.2975 112.602 65.5646C112.602 66.8318 113.62 67.8591 114.875 67.8591Z" fill="#9EB300"/>
<path d="M111.569 71.6135C112.482 71.6135 113.222 70.8664 113.222 69.9448C113.222 69.0232 112.482 68.2761 111.569 68.2761C110.656 68.2761 109.916 69.0232 109.916 69.9448C109.916 70.8664 110.656 71.6135 111.569 71.6135Z" fill="#B4CC00"/>
<path d="M109.503 78.0788C110.872 78.0788 111.982 76.9582 111.982 75.5758C111.982 74.1934 110.872 73.0728 109.503 73.0728C108.134 73.0728 107.024 74.1934 107.024 75.5758C107.024 76.9582 108.134 78.0788 109.503 78.0788Z" fill="#CBE600"/>
<path d="M115.288 75.5763C116.772 75.5763 117.974 74.3622 117.974 72.8647C117.974 71.3671 116.772 70.1531 115.288 70.1531C113.805 70.1531 112.602 71.3671 112.602 72.8647C112.602 74.3622 113.805 75.5763 115.288 75.5763Z" fill="#CBE600"/>
<path d="M116.115 66.399C116.913 66.399 117.561 65.7453 117.561 64.9389C117.561 64.1325 116.913 63.4788 116.115 63.4788C115.316 63.4788 114.668 64.1325 114.668 64.9389C114.668 65.7453 115.316 66.399 116.115 66.399Z" fill="#9EB300"/>
<path d="M122.52 63.0612C124.003 63.0612 125.206 61.8471 125.206 60.3495C125.206 58.8519 124.003 57.6379 122.52 57.6379C121.036 57.6379 119.834 58.8519 119.834 60.3495C119.834 61.8471 121.036 63.0612 122.52 63.0612Z" fill="#CBE600"/>
<path d="M120.04 62.4353C120.497 62.4353 120.867 62.0617 120.867 61.6009C120.867 61.1401 120.497 60.7666 120.04 60.7666C119.584 60.7666 119.214 61.1401 119.214 61.6009C119.214 62.0617 119.584 62.4353 120.04 62.4353Z" fill="#CBE600"/>
<path d="M115.701 65.7725C116.5 65.7725 117.148 65.1188 117.148 64.3124C117.148 63.506 116.5 62.8523 115.701 62.8523C114.903 62.8523 114.255 63.506 114.255 64.3124C114.255 65.1188 114.903 65.7725 115.701 65.7725Z" fill="#CBE600"/>
<path d="M114.462 65.7731C114.918 65.7731 115.288 65.3996 115.288 64.9388C115.288 64.478 114.918 64.1045 114.462 64.1045C114.005 64.1045 113.635 64.478 113.635 64.9388C113.635 65.3996 114.005 65.7731 114.462 65.7731Z" fill="#9EB300"/>
<path d="M111.362 73.4904C112.275 73.4904 113.015 72.7433 113.015 71.8217C113.015 70.9001 112.275 70.1531 111.362 70.1531C110.45 70.1531 109.71 70.9001 109.71 71.8217C109.71 72.7433 110.45 73.4904 111.362 73.4904Z" fill="#CBE600"/>
<path d="M111.156 70.3613C112.411 70.3613 113.429 69.3341 113.429 68.0669C113.429 66.7997 112.411 65.7725 111.156 65.7725C109.901 65.7725 108.883 66.7997 108.883 68.0669C108.883 69.3341 109.901 70.3613 111.156 70.3613Z" fill="#9EB300"/>
<path d="M116.321 68.2758C117.234 68.2758 117.974 67.5287 117.974 66.6071C117.974 65.6855 117.234 64.9385 116.321 64.9385C115.408 64.9385 114.668 65.6855 114.668 66.6071C114.668 67.5287 115.408 68.2758 116.321 68.2758Z" fill="#B4CC00"/>
<path d="M117.561 65.3561C118.131 65.3561 118.594 64.8892 118.594 64.3132C118.594 63.7372 118.131 63.2703 117.561 63.2703C116.99 63.2703 116.528 63.7372 116.528 64.3132C116.528 64.8892 116.99 65.3561 117.561 65.3561Z" fill="#B4CC00"/>
<path d="M116.321 62.4359C117.234 62.4359 117.974 61.6889 117.974 60.7673C117.974 59.8457 117.234 59.0986 116.321 59.0986C115.408 59.0986 114.668 59.8457 114.668 60.7673C114.668 61.6889 115.408 62.4359 116.321 62.4359Z" fill="#CBE600"/>
<path d="M122.52 58.6809C123.433 58.6809 124.173 57.9338 124.173 57.0122C124.173 56.0906 123.433 55.3435 122.52 55.3435C121.607 55.3435 120.867 56.0906 120.867 57.0122C120.867 57.9338 121.607 58.6809 122.52 58.6809Z" fill="#B4CC00"/>
<path d="M107.23 70.3613C108.143 70.3613 108.883 69.6142 108.883 68.6926C108.883 67.771 108.143 67.0239 107.23 67.0239C106.317 67.0239 105.577 67.771 105.577 68.6926C105.577 69.6142 106.317 70.3613 107.23 70.3613Z" fill="#B4CC00"/>
<path d="M106.197 69.7358C106.654 69.7358 107.024 69.3623 107.024 68.9015C107.024 68.4407 106.654 68.0671 106.197 68.0671C105.741 68.0671 105.371 68.4407 105.371 68.9015C105.371 69.3623 105.741 69.7358 106.197 69.7358Z" fill="#CBE600"/>
<path d="M114.875 67.4413C115.902 67.4413 116.734 66.6008 116.734 65.564C116.734 64.5272 115.902 63.6868 114.875 63.6868C113.848 63.6868 113.015 64.5272 113.015 65.564C113.015 66.6008 113.848 67.4413 114.875 67.4413Z" fill="#B4CC00"/>
<path d="M118.387 63.6872C119.757 63.6872 120.867 62.5666 120.867 61.1842C120.867 59.8018 119.757 58.6812 118.387 58.6812C117.018 58.6812 115.908 59.8018 115.908 61.1842C115.908 62.5666 117.018 63.6872 118.387 63.6872Z" fill="#B4CC00"/>
<path d="M127.685 58.2643C128.598 58.2643 129.338 57.5172 129.338 56.5957C129.338 55.6741 128.598 54.927 127.685 54.927C126.772 54.927 126.032 55.6741 126.032 56.5957C126.032 57.5172 126.772 58.2643 127.685 58.2643Z" fill="#B4CC00"/>
<path d="M134.297 64.3132C135.666 64.3132 136.776 63.1925 136.776 61.8102C136.776 60.4278 135.666 59.3071 134.297 59.3071C132.927 59.3071 131.817 60.4278 131.817 61.8102C131.817 63.1925 132.927 64.3132 134.297 64.3132Z" fill="#9EB300"/>
<path d="M124.586 57.013C125.385 57.013 126.032 56.3593 126.032 55.5529C126.032 54.7465 125.385 54.0928 124.586 54.0928C123.787 54.0928 123.14 54.7465 123.14 55.5529C123.14 56.3593 123.787 57.013 124.586 57.013Z" fill="#B4CC00"/>
<path d="M133.884 63.0617C135.253 63.0617 136.363 61.941 136.363 60.5586C136.363 59.1763 135.253 58.0557 133.884 58.0557C132.514 58.0557 131.404 59.1763 131.404 60.5586C131.404 61.941 132.514 63.0617 133.884 63.0617Z" fill="#CBE600"/>
<path d="M133.884 64.939C135.139 64.939 136.156 63.9117 136.156 62.6445C136.156 61.3774 135.139 60.3501 133.884 60.3501C132.628 60.3501 131.611 61.3774 131.611 62.6445C131.611 63.9117 132.628 64.939 133.884 64.939Z" fill="#9EB300"/>
<path d="M133.057 65.3554C134.084 65.3554 134.917 64.5149 134.917 63.4781C134.917 62.4413 134.084 61.6008 133.057 61.6008C132.03 61.6008 131.198 62.4413 131.198 63.4781C131.198 64.5149 132.03 65.3554 133.057 65.3554Z" fill="#9EB300"/>
<path d="M131.611 64.939C132.866 64.939 133.884 63.9117 133.884 62.6445C133.884 61.3774 132.866 60.3501 131.611 60.3501C130.356 60.3501 129.338 61.3774 129.338 62.6445C129.338 63.9117 130.356 64.939 131.611 64.939Z" fill="#9EB300"/>
<path d="M129.338 63.4784C130.251 63.4784 130.991 62.7313 130.991 61.8098C130.991 60.8882 130.251 60.1411 129.338 60.1411C128.425 60.1411 127.685 60.8882 127.685 61.8098C127.685 62.7313 128.425 63.4784 129.338 63.4784Z" fill="#CBE600"/>
<path d="M157.024 69.5275C157.595 69.5275 158.058 69.0606 158.058 68.4846C158.058 67.9086 157.595 67.4417 157.024 67.4417C156.454 67.4417 155.991 67.9086 155.991 68.4846C155.991 69.0606 156.454 69.5275 157.024 69.5275Z" fill="#CBE600"/>
<path d="M151.033 62.2274C151.831 62.2274 152.479 61.5736 152.479 60.7672C152.479 59.9609 151.831 59.3071 151.033 59.3071C150.234 59.3071 149.586 59.9609 149.586 60.7672C149.586 61.5736 150.234 62.2274 151.033 62.2274Z" fill="#CBE600"/>
<path d="M150.619 68.902C152.103 68.902 153.305 67.688 153.305 66.1904C153.305 64.6928 152.103 63.4788 150.619 63.4788C149.136 63.4788 147.933 64.6928 147.933 66.1904C147.933 67.688 149.136 68.902 150.619 68.902Z" fill="#B4CC00"/>
<path d="M154.132 71.4045C155.045 71.4045 155.785 70.6574 155.785 69.7358C155.785 68.8142 155.045 68.0671 154.132 68.0671C153.219 68.0671 152.479 68.8142 152.479 69.7358C152.479 70.6574 153.219 71.4045 154.132 71.4045Z" fill="#CBE600"/>
<path d="M157.024 71.1963C158.28 71.1963 159.297 70.169 159.297 68.9019C159.297 67.6347 158.28 66.6074 157.024 66.6074C155.769 66.6074 154.752 67.6347 154.752 68.9019C154.752 70.169 155.769 71.1963 157.024 71.1963Z" fill="#B4CC00"/>
<path d="M157.644 74.5333C159.128 74.5333 160.33 73.3193 160.33 71.8217C160.33 70.3241 159.128 69.1101 157.644 69.1101C156.161 69.1101 154.958 70.3241 154.958 71.8217C154.958 73.3193 156.161 74.5333 157.644 74.5333Z" fill="#9EB300"/>
<path d="M153.719 70.1533C154.517 70.1533 155.165 69.4996 155.165 68.6932C155.165 67.8868 154.517 67.2332 153.719 67.2332C152.92 67.2332 152.272 67.8868 152.272 68.6932C152.272 69.4996 152.92 70.1533 153.719 70.1533Z" fill="#B4CC00"/>
<path d="M152.686 64.9388C153.713 64.9388 154.545 64.0984 154.545 63.0616C154.545 62.0248 153.713 61.1843 152.686 61.1843C151.659 61.1843 150.826 62.0248 150.826 63.0616C150.826 64.0984 151.659 64.9388 152.686 64.9388Z" fill="#CBE600"/>
<path d="M144.214 69.11C145.698 69.11 146.9 67.896 146.9 66.3984C146.9 64.9008 145.698 63.6868 144.214 63.6868C142.731 63.6868 141.528 64.9008 141.528 66.3984C141.528 67.896 142.731 69.11 144.214 69.11Z" fill="#CBE600"/>
<path d="M149.173 71.196C150.542 71.196 151.652 70.0753 151.652 68.6929C151.652 67.3105 150.542 66.1899 149.173 66.1899C147.804 66.1899 146.694 67.3105 146.694 68.6929C146.694 70.0753 147.804 71.196 149.173 71.196Z" fill="#B4CC00"/>
<path d="M149.793 77.2448C151.162 77.2448 152.272 76.1242 152.272 74.7418C152.272 73.3594 151.162 72.2388 149.793 72.2388C148.424 72.2388 147.314 73.3594 147.314 74.7418C147.314 76.1242 148.424 77.2448 149.793 77.2448Z" fill="#9EB300"/>
<path d="M156.405 69.1109C157.66 69.1109 158.677 68.0836 158.677 66.8164C158.677 65.5492 157.66 64.522 156.405 64.522C155.149 64.522 154.132 65.5492 154.132 66.8164C154.132 68.0836 155.149 69.1109 156.405 69.1109Z" fill="#9EB300"/>
<path d="M163.43 77.4541C164.685 77.4541 165.702 76.4269 165.702 75.1597C165.702 73.8925 164.685 72.8652 163.43 72.8652C162.174 72.8652 161.157 73.8925 161.157 75.1597C161.157 76.4269 162.174 77.4541 163.43 77.4541Z" fill="#B4CC00"/>
<path d="M148.76 68.9013C150.129 68.9013 151.239 67.7807 151.239 66.3983C151.239 65.0159 150.129 63.8953 148.76 63.8953C147.391 63.8953 146.28 65.0159 146.28 66.3983C146.28 67.7807 147.391 68.9013 148.76 68.9013Z" fill="#9EB300"/>
<path d="M149.173 63.0607C149.858 63.0607 150.413 62.5003 150.413 61.8091C150.413 61.1179 149.858 60.5576 149.173 60.5576C148.488 60.5576 147.933 61.1179 147.933 61.8091C147.933 62.5003 148.488 63.0607 149.173 63.0607Z" fill="#9EB300"/>
<path d="M146.28 63.8953C147.422 63.8953 148.347 62.9615 148.347 61.8095C148.347 60.6575 147.422 59.7236 146.28 59.7236C145.139 59.7236 144.214 60.6575 144.214 61.8095C144.214 62.9615 145.139 63.8953 146.28 63.8953Z" fill="#B4CC00"/>
<path d="M141.115 64.9385C141.914 64.9385 142.561 64.2848 142.561 63.4784C142.561 62.672 141.914 62.0183 141.115 62.0183C140.316 62.0183 139.669 62.672 139.669 63.4784C139.669 64.2848 140.316 64.9385 141.115 64.9385Z" fill="#9EB300"/>
<path d="M141.942 65.564C142.74 65.564 143.388 64.9103 143.388 64.1039C143.388 63.2975 142.74 62.6438 141.942 62.6438C141.143 62.6438 140.495 63.2975 140.495 64.1039C140.495 64.9103 141.143 65.564 141.942 65.564Z" fill="#CBE600"/>
<path d="M149.173 68.4845C150.657 68.4845 151.859 67.2704 151.859 65.7729C151.859 64.2753 150.657 63.0613 149.173 63.0613C147.69 63.0613 146.487 64.2753 146.487 65.7729C146.487 67.2704 147.69 68.4845 149.173 68.4845Z" fill="#B4CC00"/>
<path d="M151.446 68.0673C152.815 68.0673 153.925 66.9466 153.925 65.5643C153.925 64.1819 152.815 63.0613 151.446 63.0613C150.076 63.0613 148.966 64.1819 148.966 65.5643C148.966 66.9466 150.076 68.0673 151.446 68.0673Z" fill="#B4CC00"/>
<path d="M145.454 64.5212C146.823 64.5212 147.933 63.4006 147.933 62.0182C147.933 60.6358 146.823 59.5151 145.454 59.5151C144.085 59.5151 142.975 60.6358 142.975 62.0182C142.975 63.4006 144.085 64.5212 145.454 64.5212Z" fill="#B4CC00"/>
<path d="M142.561 68.2755C144.045 68.2755 145.247 67.0614 145.247 65.5639C145.247 64.0663 144.045 62.8523 142.561 62.8523C141.078 62.8523 139.875 64.0663 139.875 65.5639C139.875 67.0614 141.078 68.2755 142.561 68.2755Z" fill="#B4CC00"/>
<path d="M139.049 59.9327C140.19 59.9327 141.115 58.9988 141.115 57.8468C141.115 56.6949 140.19 55.761 139.049 55.761C137.908 55.761 136.983 56.6949 136.983 57.8468C136.983 58.9988 137.908 59.9327 139.049 59.9327Z" fill="#B4CC00"/>
<path d="M136.776 61.3924C137.803 61.3924 138.636 60.552 138.636 59.5152C138.636 58.4784 137.803 57.6379 136.776 57.6379C135.749 57.6379 134.917 58.4784 134.917 59.5152C134.917 60.552 135.749 61.3924 136.776 61.3924Z" fill="#B4CC00"/>
<path d="M137.396 65.9815C138.994 65.9815 140.289 64.6741 140.289 63.0613C140.289 61.4485 138.994 60.1411 137.396 60.1411C135.798 60.1411 134.503 61.4485 134.503 63.0613C134.503 64.6741 135.798 65.9815 137.396 65.9815Z" fill="#B4CC00"/>
<path d="M142.148 74.5333C143.632 74.5333 144.834 73.3193 144.834 71.8217C144.834 70.3241 143.632 69.1101 142.148 69.1101C140.665 69.1101 139.462 70.3241 139.462 71.8217C139.462 73.3193 140.665 74.5333 142.148 74.5333Z" fill="#9EB300"/>
<path d="M149.793 74.3253C150.82 74.3253 151.652 73.4848 151.652 72.448C151.652 71.4113 150.82 70.5708 149.793 70.5708C148.766 70.5708 147.933 71.4113 147.933 72.448C147.933 73.4848 148.766 74.3253 149.793 74.3253Z" fill="#CBE600"/>
<path d="M146.28 72.0303C147.079 72.0303 147.727 71.3766 147.727 70.5702C147.727 69.7638 147.079 69.1101 146.28 69.1101C145.482 69.1101 144.834 69.7638 144.834 70.5702C144.834 71.3766 145.482 72.0303 146.28 72.0303Z" fill="#9EB300"/>
<path d="M137.809 74.1168C139.293 74.1168 140.495 72.9028 140.495 71.4052C140.495 69.9077 139.293 68.6936 137.809 68.6936C136.326 68.6936 135.123 69.9077 135.123 71.4052C135.123 72.9028 136.326 74.1168 137.809 74.1168Z" fill="#9EB300"/>
<path d="M133.884 66.1903C135.253 66.1903 136.363 65.0697 136.363 63.6873C136.363 62.3049 135.253 61.1843 133.884 61.1843C132.514 61.1843 131.404 62.3049 131.404 63.6873C131.404 65.0697 132.514 66.1903 133.884 66.1903Z" fill="#B4CC00"/>
<path d="M129.958 66.6076C130.871 66.6076 131.611 65.8605 131.611 64.9389C131.611 64.0173 130.871 63.2703 129.958 63.2703C129.045 63.2703 128.305 64.0173 128.305 64.9389C128.305 65.8605 129.045 66.6076 129.958 66.6076Z" fill="#9EB300"/>
<path d="M133.47 73.0738C134.954 73.0738 136.156 71.8598 136.156 70.3623C136.156 68.8647 134.954 67.6506 133.47 67.6506C131.987 67.6506 130.784 68.8647 130.784 70.3623C130.784 71.8598 131.987 73.0738 133.47 73.0738Z" fill="#B4CC00"/>
<path d="M134.503 73.49C135.759 73.49 136.776 72.4627 136.776 71.1956C136.776 69.9284 135.759 68.9011 134.503 68.9011C133.248 68.9011 132.231 69.9284 132.231 71.1956C132.231 72.4627 133.248 73.49 134.503 73.49Z" fill="#B4CC00"/>
<path d="M140.702 70.5702C141.387 70.5702 141.942 70.0098 141.942 69.3187C141.942 68.6275 141.387 68.0671 140.702 68.0671C140.017 68.0671 139.462 68.6275 139.462 69.3187C139.462 70.0098 140.017 70.5702 140.702 70.5702Z" fill="#9EB300"/>
<path d="M143.594 78.914C144.964 78.914 146.074 77.7934 146.074 76.411C146.074 75.0286 144.964 73.908 143.594 73.908C142.225 73.908 141.115 75.0286 141.115 76.411C141.115 77.7934 142.225 78.914 143.594 78.914Z" fill="#B4CC00"/>
<path d="M139.669 76.411C140.353 76.411 140.908 75.8507 140.908 75.1595C140.908 74.4683 140.353 73.908 139.669 73.908C138.984 73.908 138.429 74.4683 138.429 75.1595C138.429 75.8507 138.984 76.411 139.669 76.411Z" fill="#CBE600"/>
<path d="M132.024 71.8221C133.507 71.8221 134.71 70.6081 134.71 69.1105C134.71 67.6129 133.507 66.3989 132.024 66.3989C130.541 66.3989 129.338 67.6129 129.338 69.1105C129.338 70.6081 130.541 71.8221 132.024 71.8221Z" fill="#9EB300"/>
<path d="M132.644 66.6078C133.214 66.6078 133.677 66.1409 133.677 65.5649C133.677 64.9889 133.214 64.522 132.644 64.522C132.073 64.522 131.611 64.9889 131.611 65.5649C131.611 66.1409 132.073 66.6078 132.644 66.6078Z" fill="#9EB300"/>
<path d="M130.371 67.6505C131.512 67.6505 132.437 66.7166 132.437 65.5646C132.437 64.4126 131.512 63.4788 130.371 63.4788C129.23 63.4788 128.305 64.4126 128.305 65.5646C128.305 66.7166 129.23 67.6505 130.371 67.6505Z" fill="#CBE600"/>
<path d="M127.478 73.2818C128.62 73.2818 129.545 72.3479 129.545 71.196C129.545 70.044 128.62 69.1101 127.478 69.1101C126.337 69.1101 125.412 70.044 125.412 71.196C125.412 72.3479 126.337 73.2818 127.478 73.2818Z" fill="#CBE600"/>
<path d="M122.933 64.3128C124.074 64.3128 124.999 63.3789 124.999 62.227C124.999 61.075 124.074 60.1411 122.933 60.1411C121.792 60.1411 120.867 61.075 120.867 62.227C120.867 63.3789 121.792 64.3128 122.933 64.3128Z" fill="#9EB300"/>
<path d="M122.726 62.6441C123.411 62.6441 123.966 62.0838 123.966 61.3926C123.966 60.7014 123.411 60.1411 122.726 60.1411C122.042 60.1411 121.487 60.7014 121.487 61.3926C121.487 62.0838 122.042 62.6441 122.726 62.6441Z" fill="#B4CC00"/>
<path d="M127.685 68.2758C128.598 68.2758 129.338 67.5287 129.338 66.6071C129.338 65.6855 128.598 64.9385 127.685 64.9385C126.772 64.9385 126.032 65.6855 126.032 66.6071C126.032 67.5287 126.772 68.2758 127.685 68.2758Z" fill="#9EB300"/>
<path d="M129.545 73.9076C130.572 73.9076 131.404 73.0671 131.404 72.0303C131.404 70.9935 130.572 70.1531 129.545 70.1531C128.518 70.1531 127.685 70.9935 127.685 72.0303C127.685 73.0671 128.518 73.9076 129.545 73.9076Z" fill="#CBE600"/>
<path d="M136.156 76.2023C137.183 76.2023 138.016 75.3618 138.016 74.325C138.016 73.2882 137.183 72.4478 136.156 72.4478C135.129 72.4478 134.297 73.2882 134.297 74.325C134.297 75.3618 135.129 76.2023 136.156 76.2023Z" fill="#9EB300"/>
<path d="M142.355 79.9563C143.61 79.9563 144.628 78.9291 144.628 77.6619C144.628 76.3947 143.61 75.3674 142.355 75.3674C141.1 75.3674 140.082 76.3947 140.082 77.6619C140.082 78.9291 141.1 79.9563 142.355 79.9563Z" fill="#CBE600"/>
<path d="M134.71 79.123C135.281 79.123 135.743 78.656 135.743 78.08C135.743 77.504 135.281 77.0371 134.71 77.0371C134.139 77.0371 133.677 77.504 133.677 78.08C133.677 78.656 134.139 79.123 134.71 79.123Z" fill="#CBE600"/>
<path d="M133.057 73.9074C133.514 73.9074 133.884 73.5339 133.884 73.0731C133.884 72.6123 133.514 72.2388 133.057 72.2388C132.601 72.2388 132.231 72.6123 132.231 73.0731C132.231 73.5339 132.601 73.9074 133.057 73.9074Z" fill="#9EB300"/>
<path d="M131.404 74.533C132.659 74.533 133.677 73.5057 133.677 72.2385C133.677 70.9714 132.659 69.9441 131.404 69.9441C130.149 69.9441 129.131 70.9714 129.131 72.2385C129.131 73.5057 130.149 74.533 131.404 74.533Z" fill="#9EB300"/>
<path d="M124.173 68.6933C125.086 68.6933 125.826 67.9462 125.826 67.0246C125.826 66.103 125.086 65.356 124.173 65.356C123.26 65.356 122.52 66.103 122.52 67.0246C122.52 67.9462 123.26 68.6933 124.173 68.6933Z" fill="#9EB300"/>
<path d="M118.801 68.9015C119.828 68.9015 120.66 68.061 120.66 67.0242C120.66 65.9874 119.828 65.147 118.801 65.147C117.774 65.147 116.941 65.9874 116.941 67.0242C116.941 68.061 117.774 68.9015 118.801 68.9015Z" fill="#CBE600"/>
<path d="M122.726 68.4842C123.982 68.4842 124.999 67.4569 124.999 66.1897C124.999 64.9225 123.982 63.8953 122.726 63.8953C121.471 63.8953 120.454 64.9225 120.454 66.1897C120.454 67.4569 121.471 68.4842 122.726 68.4842Z" fill="#9EB300"/>
<path d="M123.14 70.5699C124.737 70.5699 126.032 69.2624 126.032 67.6497C126.032 66.0369 124.737 64.7295 123.14 64.7295C121.542 64.7295 120.247 66.0369 120.247 67.6497C120.247 69.2624 121.542 70.5699 123.14 70.5699Z" fill="#9EB300"/>
<path d="M124.379 73.0739C125.292 73.0739 126.032 72.3269 126.032 71.4053C126.032 70.4837 125.292 69.7366 124.379 69.7366C123.466 69.7366 122.726 70.4837 122.726 71.4053C122.726 72.3269 123.466 73.0739 124.379 73.0739Z" fill="#B4CC00"/>
<path d="M120.867 77.4533C121.78 77.4533 122.52 76.7063 122.52 75.7847C122.52 74.8631 121.78 74.116 120.867 74.116C119.954 74.116 119.214 74.8631 119.214 75.7847C119.214 76.7063 119.954 77.4533 120.867 77.4533Z" fill="#9EB300"/>
<path d="M125.619 76.2026C126.532 76.2026 127.272 75.4555 127.272 74.5339C127.272 73.6124 126.532 72.8652 125.619 72.8652C124.706 72.8652 123.966 73.6124 123.966 74.5339C123.966 75.4555 124.706 76.2026 125.619 76.2026Z" fill="#CBE600"/>
<path d="M129.338 77.0358C130.707 77.0358 131.817 75.9152 131.817 74.5328C131.817 73.1504 130.707 72.0298 129.338 72.0298C127.969 72.0298 126.859 73.1504 126.859 74.5328C126.859 75.9152 127.969 77.0358 129.338 77.0358Z" fill="#9EB300"/>
<path d="M131.404 78.0797C132.317 78.0797 133.057 77.3327 133.057 76.4111C133.057 75.4895 132.317 74.7424 131.404 74.7424C130.491 74.7424 129.751 75.4895 129.751 76.4111C129.751 77.3327 130.491 78.0797 131.404 78.0797Z" fill="#9EB300"/>
<path d="M133.47 82.2513C134.155 82.2513 134.71 81.691 134.71 80.9998C134.71 80.3086 134.155 79.7483 133.47 79.7483C132.786 79.7483 132.231 80.3086 132.231 80.9998C132.231 81.691 132.786 82.2513 133.47 82.2513Z" fill="#CBE600"/>
<path d="M134.71 83.085C135.166 83.085 135.536 82.7114 135.536 82.2506C135.536 81.7898 135.166 81.4163 134.71 81.4163C134.254 81.4163 133.884 81.7898 133.884 82.2506C133.884 82.7114 134.254 83.085 134.71 83.085Z" fill="#B4CC00"/>
<path d="M135.95 85.588C137.091 85.588 138.016 84.6541 138.016 83.5021C138.016 82.3501 137.091 81.4163 135.95 81.4163C134.809 81.4163 133.884 82.3501 133.884 83.5021C133.884 84.6541 134.809 85.588 135.95 85.588Z" fill="#9EB300"/>
<path d="M135.33 79.3306C136.471 79.3306 137.396 78.3968 137.396 77.2448C137.396 76.0928 136.471 75.1589 135.33 75.1589C134.189 75.1589 133.264 76.0928 133.264 77.2448C133.264 78.3968 134.189 79.3306 135.33 79.3306Z" fill="#B4CC00"/>
<path d="M132.024 76.8282C132.823 76.8282 133.47 76.1745 133.47 75.3681C133.47 74.5617 132.823 73.908 132.024 73.908C131.225 73.908 130.578 74.5617 130.578 75.3681C130.578 76.1745 131.225 76.8282 132.024 76.8282Z" fill="#CBE600"/>
<path d="M128.718 72.4477C129.289 72.4477 129.751 71.9807 129.751 71.4047C129.751 70.8287 129.289 70.3618 128.718 70.3618C128.148 70.3618 127.685 70.8287 127.685 71.4047C127.685 71.9807 128.148 72.4477 128.718 72.4477Z" fill="#CBE600"/>
<path d="M120.454 69.319C121.823 69.319 122.933 68.1983 122.933 66.816C122.933 65.4336 121.823 64.313 120.454 64.313C119.084 64.313 117.974 65.4336 117.974 66.816C117.974 68.1983 119.084 69.319 120.454 69.319Z" fill="#9EB300"/>
<path d="M121.487 64.5211C122.514 64.5211 123.346 63.6806 123.346 62.6439C123.346 61.6071 122.514 60.7666 121.487 60.7666C120.46 60.7666 119.627 61.6071 119.627 62.6439C119.627 63.6806 120.46 64.5211 121.487 64.5211Z" fill="#B4CC00"/>
<path d="M116.115 68.693C117.142 68.693 117.974 67.8525 117.974 66.8157C117.974 65.7789 117.142 64.9385 116.115 64.9385C115.088 64.9385 114.255 65.7789 114.255 66.8157C114.255 67.8525 115.088 68.693 116.115 68.693Z" fill="#9EB300"/>
<path d="M122.52 75.1596C123.775 75.1596 124.792 74.1324 124.792 72.8652C124.792 71.598 123.775 70.5708 122.52 70.5708C121.264 70.5708 120.247 71.598 120.247 72.8652C120.247 74.1324 121.264 75.1596 122.52 75.1596Z" fill="#B4CC00"/>
<path d="M128.305 79.7483C129.104 79.7483 129.751 79.0946 129.751 78.2882C129.751 77.4818 129.104 76.8281 128.305 76.8281C127.506 76.8281 126.859 77.4818 126.859 78.2882C126.859 79.0946 127.506 79.7483 128.305 79.7483Z" fill="#B4CC00"/>
<path d="M122.933 73.6988C123.618 73.6988 124.173 73.1385 124.173 72.4473C124.173 71.7561 123.618 71.1958 122.933 71.1958C122.248 71.1958 121.693 71.7561 121.693 72.4473C121.693 73.1385 122.248 73.6988 122.933 73.6988Z" fill="#CBE600"/>
<path d="M126.239 82.0421C126.923 82.0421 127.479 81.4818 127.479 80.7906C127.479 80.0994 126.923 79.5391 126.239 79.5391C125.554 79.5391 124.999 80.0994 124.999 80.7906C124.999 81.4818 125.554 82.0421 126.239 82.0421Z" fill="#B4CC00"/>
<path d="M122.52 69.11C124.003 69.11 125.206 67.896 125.206 66.3984C125.206 64.9008 124.003 63.6868 122.52 63.6868C121.036 63.6868 119.834 64.9008 119.834 66.3984C119.834 67.896 121.036 69.11 122.52 69.11Z" fill="#B4CC00"/>
<path d="M106.404 74.1168C107.887 74.1168 109.09 72.9028 109.09 71.4052C109.09 69.9077 107.887 68.6936 106.404 68.6936C104.92 68.6936 103.718 69.9077 103.718 71.4052C103.718 72.9028 104.92 74.1168 106.404 74.1168Z" fill="#9EB300"/>
<path d="M118.387 70.1534C119.414 70.1534 120.247 69.313 120.247 68.2762C120.247 67.2394 119.414 66.3989 118.387 66.3989C117.36 66.3989 116.528 67.2394 116.528 68.2762C116.528 69.313 117.36 70.1534 118.387 70.1534Z" fill="#9EB300"/>
<path d="M115.495 68.4847C116.636 68.4847 117.561 67.5508 117.561 66.3988C117.561 65.2469 116.636 64.313 115.495 64.313C114.354 64.313 113.429 65.2469 113.429 66.3988C113.429 67.5508 114.354 68.4847 115.495 68.4847Z" fill="#CBE600"/>
<path d="M113.635 65.9816C114.092 65.9816 114.462 65.6081 114.462 65.1473C114.462 64.6865 114.092 64.313 113.635 64.313C113.179 64.313 112.809 64.6865 112.809 65.1473C112.809 65.6081 113.179 65.9816 113.635 65.9816Z" fill="#B4CC00"/>
<path d="M119.007 75.3682C120.262 75.3682 121.28 74.3409 121.28 73.0737C121.28 71.8066 120.262 70.7793 119.007 70.7793C117.752 70.7793 116.734 71.8066 116.734 73.0737C116.734 74.3409 117.752 75.3682 119.007 75.3682Z" fill="#9EB300"/>
<path d="M120.454 82.2514C121.366 82.2514 122.106 81.5043 122.106 80.5827C122.106 79.6611 121.366 78.9141 120.454 78.9141C119.541 78.9141 118.801 79.6611 118.801 80.5827C118.801 81.5043 119.541 82.2514 120.454 82.2514Z" fill="#B4CC00"/>
<path d="M124.999 78.9141C125.798 78.9141 126.445 78.2604 126.445 77.454C126.445 76.6476 125.798 75.9939 124.999 75.9939C124.2 75.9939 123.553 76.6476 123.553 77.454C123.553 78.2604 124.2 78.9141 124.999 78.9141Z" fill="#CBE600"/>
<path d="M119.214 73.0734C120.469 73.0734 121.487 72.0462 121.487 70.779C121.487 69.5118 120.469 68.4846 119.214 68.4846C117.959 68.4846 116.941 69.5118 116.941 70.779C116.941 72.0462 117.959 73.0734 119.214 73.0734Z" fill="#B4CC00"/>
<path d="M121.487 81.2085C122.742 81.2085 123.759 80.1813 123.759 78.9141C123.759 77.6469 122.742 76.6196 121.487 76.6196C120.231 76.6196 119.214 77.6469 119.214 78.9141C119.214 80.1813 120.231 81.2085 121.487 81.2085Z" fill="#B4CC00"/>
<path d="M109.296 70.5705C110.209 70.5705 110.949 69.8234 110.949 68.9018C110.949 67.9802 110.209 67.2332 109.296 67.2332C108.383 67.2332 107.643 67.9802 107.643 68.9018C107.643 69.8234 108.383 70.5705 109.296 70.5705Z" fill="#B4CC00"/>
<path d="M112.189 74.533C113.444 74.533 114.462 73.5057 114.462 72.2385C114.462 70.9714 113.444 69.9441 112.189 69.9441C110.934 69.9441 109.916 70.9714 109.916 72.2385C109.916 73.5057 110.934 74.533 112.189 74.533Z" fill="#CBE600"/>
<path d="M116.528 75.3678C117.897 75.3678 119.007 74.2472 119.007 72.8648C119.007 71.4824 117.897 70.3618 116.528 70.3618C115.159 70.3618 114.048 71.4824 114.048 72.8648C114.048 74.2472 115.159 75.3678 116.528 75.3678Z" fill="#9EB300"/>
<path d="M119.007 82.6685C120.605 82.6685 121.9 81.3611 121.9 79.7483C121.9 78.1355 120.605 76.8281 119.007 76.8281C117.41 76.8281 116.115 78.1355 116.115 79.7483C116.115 81.3611 117.41 82.6685 119.007 82.6685Z" fill="#B4CC00"/>
<path d="M116.528 78.2876C117.327 78.2876 117.974 77.6339 117.974 76.8275C117.974 76.0212 117.327 75.3674 116.528 75.3674C115.729 75.3674 115.082 76.0212 115.082 76.8275C115.082 77.6339 115.729 78.2876 116.528 78.2876Z" fill="#9EB300"/>
<path d="M115.908 76.828C117.391 76.828 118.594 75.6139 118.594 74.1164C118.594 72.6188 117.391 71.4048 115.908 71.4048C114.425 71.4048 113.222 72.6188 113.222 74.1164C113.222 75.6139 114.425 76.828 115.908 76.828Z" fill="#B4CC00"/>
<path d="M128.718 59.9325C130.202 59.9325 131.404 58.7184 131.404 57.2209C131.404 55.7233 130.202 54.5093 128.718 54.5093C127.235 54.5093 126.032 55.7233 126.032 57.2209C126.032 58.7184 127.235 59.9325 128.718 59.9325Z" fill="#B4CC00"/>
<path d="M108.883 73.6995C109.682 73.6995 110.329 73.0458 110.329 72.2394C110.329 71.433 109.682 70.7793 108.883 70.7793C108.084 70.7793 107.437 71.433 107.437 72.2394C107.437 73.0458 108.084 73.6995 108.883 73.6995Z" fill="#B4CC00"/>
<path d="M102.891 73.0732C103.462 73.0732 103.924 72.6062 103.924 72.0302C103.924 71.4542 103.462 70.9873 102.891 70.9873C102.321 70.9873 101.858 71.4542 101.858 72.0302C101.858 72.6062 102.321 73.0732 102.891 73.0732Z" fill="#B4CC00"/>
<path d="M111.776 78.4965C113.145 78.4965 114.255 77.3758 114.255 75.9935C114.255 74.6111 113.145 73.4905 111.776 73.4905C110.406 73.4905 109.296 74.6111 109.296 75.9935C109.296 77.3758 110.406 78.4965 111.776 78.4965Z" fill="#B4CC00"/>
<path d="M110.536 83.0857C111.449 83.0857 112.189 82.3385 112.189 81.4169C112.189 80.4954 111.449 79.7483 110.536 79.7483C109.623 79.7483 108.883 80.4954 108.883 81.4169C108.883 82.3385 109.623 83.0857 110.536 83.0857Z" fill="#9EB300"/>
<path d="M114.668 82.6686C115.695 82.6686 116.528 81.8281 116.528 80.7913C116.528 79.7545 115.695 78.9141 114.668 78.9141C113.641 78.9141 112.809 79.7545 112.809 80.7913C112.809 81.8281 113.641 82.6686 114.668 82.6686Z" fill="#CBE600"/>
<path d="M107.437 78.7051C108.236 78.7051 108.883 78.0514 108.883 77.245C108.883 76.4386 108.236 75.7849 107.437 75.7849C106.638 75.7849 105.991 76.4386 105.991 77.245C105.991 78.0514 106.638 78.7051 107.437 78.7051Z" fill="#CBE600"/>
<path d="M105.991 69.9448C106.447 69.9448 106.817 69.5712 106.817 69.1104C106.817 68.6497 106.447 68.2761 105.991 68.2761C105.534 68.2761 105.164 68.6497 105.164 69.1104C105.164 69.5712 105.534 69.9448 105.991 69.9448Z" fill="#9EB300"/>
<path d="M147.107 77.0364C147.792 77.0364 148.347 76.4762 148.347 75.785C148.347 75.0938 147.792 74.5334 147.107 74.5334C146.422 74.5334 145.867 75.0938 145.867 75.785C145.867 76.4762 146.422 77.0364 147.107 77.0364Z" fill="#CBE600"/>
<path d="M146.28 75.5768C147.65 75.5768 148.76 74.4562 148.76 73.0738C148.76 71.6914 147.65 70.5708 146.28 70.5708C144.911 70.5708 143.801 71.6914 143.801 73.0738C143.801 74.4562 144.911 75.5768 146.28 75.5768Z" fill="#B4CC00"/>
<path d="M146.074 70.3617C146.758 70.3617 147.314 69.8014 147.314 69.1102C147.314 68.419 146.758 67.8586 146.074 67.8586C145.389 67.8586 144.834 68.419 144.834 69.1102C144.834 69.8014 145.389 70.3617 146.074 70.3617Z" fill="#9EB300"/>
<path d="M141.528 63.0607C142.213 63.0607 142.768 62.5003 142.768 61.8091C142.768 61.1179 142.213 60.5576 141.528 60.5576C140.844 60.5576 140.289 61.1179 140.289 61.8091C140.289 62.5003 140.844 63.0607 141.528 63.0607Z" fill="#B4CC00"/>
<path d="M145.661 72.8646C146.688 72.8646 147.52 72.0241 147.52 70.9874C147.52 69.9506 146.688 69.1101 145.661 69.1101C144.634 69.1101 143.801 69.9506 143.801 70.9874C143.801 72.0241 144.634 72.8646 145.661 72.8646Z" fill="#CBE600"/>
<path d="M138.016 75.1589C138.815 75.1589 139.462 74.5053 139.462 73.6989C139.462 72.8925 138.815 72.2388 138.016 72.2388C137.217 72.2388 136.57 72.8925 136.57 73.6989C136.57 74.5053 137.217 75.1589 138.016 75.1589Z" fill="#CBE600"/>
<path d="M138.636 81.4171C140.119 81.4171 141.322 80.2031 141.322 78.7055C141.322 77.208 140.119 75.9939 138.636 75.9939C137.152 75.9939 135.95 77.208 135.95 78.7055C135.95 80.2031 137.152 81.4171 138.636 81.4171Z" fill="#9EB300"/>
<path d="M138.429 76.4108C139.798 76.4108 140.908 75.2901 140.908 73.9078C140.908 72.5254 139.798 71.4048 138.429 71.4048C137.06 71.4048 135.95 72.5254 135.95 73.9078C135.95 75.2901 137.06 76.4108 138.429 76.4108Z" fill="#9EB300"/>
<path d="M139.669 66.8153C140.239 66.8153 140.702 66.3484 140.702 65.7724C140.702 65.1964 140.239 64.7295 139.669 64.7295C139.098 64.7295 138.636 65.1964 138.636 65.7724C138.636 66.3484 139.098 66.8153 139.669 66.8153Z" fill="#B4CC00"/>
<path d="M137.396 67.0247C138.195 67.0247 138.842 66.3709 138.842 65.5645C138.842 64.7582 138.195 64.1045 137.396 64.1045C136.597 64.1045 135.95 64.7582 135.95 65.5645C135.95 66.3709 136.597 67.0247 137.396 67.0247Z" fill="#B4CC00"/>
<path d="M134.71 74.7419C135.737 74.7419 136.57 73.9013 136.57 72.8646C136.57 71.8278 135.737 70.9873 134.71 70.9873C133.683 70.9873 132.85 71.8278 132.85 72.8646C132.85 73.9013 133.683 74.7419 134.71 74.7419Z" fill="#CBE600"/>
<path d="M132.85 75.3681C133.307 75.3681 133.677 74.9946 133.677 74.5338C133.677 74.073 133.307 73.6995 132.85 73.6995C132.394 73.6995 132.024 74.073 132.024 74.5338C132.024 74.9946 132.394 75.3681 132.85 75.3681Z" fill="#9EB300"/>
<path d="M132.644 84.1283C133.328 84.1283 133.884 83.568 133.884 82.8768C133.884 82.1856 133.328 81.6252 132.644 81.6252C131.959 81.6252 131.404 82.1856 131.404 82.8768C131.404 83.568 131.959 84.1283 132.644 84.1283Z" fill="#B4CC00"/>
<path d="M132.85 82.877C133.649 82.877 134.297 82.2232 134.297 81.4168C134.297 80.6105 133.649 79.9568 132.85 79.9568C132.052 79.9568 131.404 80.6105 131.404 81.4168C131.404 82.2232 132.052 82.877 132.85 82.877Z" fill="#CBE600"/>
<path d="M137.603 74.9511C138.173 74.9511 138.636 74.4841 138.636 73.9082C138.636 73.3322 138.173 72.8652 137.603 72.8652C137.032 72.8652 136.57 73.3322 136.57 73.9082C136.57 74.4841 137.032 74.9511 137.603 74.9511Z" fill="#9EB300"/>
<path d="M138.222 73.4906C138.793 73.4906 139.256 73.0237 139.256 72.4477C139.256 71.8717 138.793 71.4048 138.222 71.4048C137.652 71.4048 137.189 71.8717 137.189 72.4477C137.189 73.0237 137.652 73.4906 138.222 73.4906Z" fill="#9EB300"/>
<path d="M141.115 74.325C141.914 74.325 142.561 73.6712 142.561 72.8648C142.561 72.0585 141.914 71.4048 141.115 71.4048C140.316 71.4048 139.669 72.0585 139.669 72.8648C139.669 73.6712 140.316 74.325 141.115 74.325Z" fill="#B4CC00"/>
<path d="M141.528 65.7732C142.441 65.7732 143.181 65.0261 143.181 64.1045C143.181 63.1829 142.441 62.4358 141.528 62.4358C140.615 62.4358 139.875 63.1829 139.875 64.1045C139.875 65.0261 140.615 65.7732 141.528 65.7732Z" fill="#B4CC00"/>
<path d="M143.594 73.9071C144.964 73.9071 146.074 72.7865 146.074 71.4042C146.074 70.0218 144.964 68.9011 143.594 68.9011C142.225 68.9011 141.115 70.0218 141.115 71.4042C141.115 72.7865 142.225 73.9071 143.594 73.9071Z" fill="#B4CC00"/>
<path d="M125.412 80.7909C126.782 80.7909 127.892 79.6703 127.892 78.2879C127.892 76.9055 126.782 75.7849 125.412 75.7849C124.043 75.7849 122.933 76.9055 122.933 78.2879C122.933 79.6703 124.043 80.7909 125.412 80.7909Z" fill="#B4CC00"/>
<path d="M147.52 80.5824C148.889 80.5824 150 79.4618 150 78.0794C150 76.697 148.889 75.5764 147.52 75.5764C146.151 75.5764 145.041 76.697 145.041 78.0794C145.041 79.4618 146.151 80.5824 147.52 80.5824Z" fill="#B4CC00"/>
<path d="M148.347 84.9628C149.716 84.9628 150.826 83.8421 150.826 82.4598C150.826 81.0774 149.716 79.9568 148.347 79.9568C146.977 79.9568 145.867 81.0774 145.867 82.4598C145.867 83.8421 146.977 84.9628 148.347 84.9628Z" fill="#CBE600"/>
<path d="M130.164 81C131.534 81 132.644 79.8793 132.644 78.4969C132.644 77.1146 131.534 75.9939 130.164 75.9939C128.795 75.9939 127.685 77.1146 127.685 78.4969C127.685 79.8793 128.795 81 130.164 81Z" fill="#B4CC00"/>
<path d="M137.396 82.8765C138.651 82.8765 139.669 81.8492 139.669 80.582C139.669 79.3149 138.651 78.2876 137.396 78.2876C136.141 78.2876 135.123 79.3149 135.123 80.582C135.123 81.8492 136.141 82.8765 137.396 82.8765Z" fill="#CBE600"/>
<path d="M138.016 85.1712C139.271 85.1712 140.289 84.1439 140.289 82.8767C140.289 81.6095 139.271 80.5823 138.016 80.5823C136.761 80.5823 135.743 81.6095 135.743 82.8767C135.743 84.1439 136.761 85.1712 138.016 85.1712Z" fill="#B4CC00"/>
<path d="M136.983 81.2084C137.553 81.2084 138.016 80.7415 138.016 80.1655C138.016 79.5895 137.553 79.1226 136.983 79.1226C136.412 79.1226 135.95 79.5895 135.95 80.1655C135.95 80.7415 136.412 81.2084 136.983 81.2084Z" fill="#9EB300"/>
<path d="M115.908 71.196C117.277 71.196 118.387 70.0753 118.387 68.6929C118.387 67.3105 117.277 66.1899 115.908 66.1899C114.539 66.1899 113.429 67.3105 113.429 68.6929C113.429 70.0753 114.539 71.196 115.908 71.196Z" fill="#B4CC00"/>
<path d="M135.95 83.5023C137.091 83.5023 138.016 82.5684 138.016 81.4164C138.016 80.2644 137.091 79.3306 135.95 79.3306C134.809 79.3306 133.884 80.2644 133.884 81.4164C133.884 82.5684 134.809 83.5023 135.95 83.5023Z" fill="#9EB300"/>
<path d="M150.413 84.9625C151.554 84.9625 152.479 84.0286 152.479 82.8766C152.479 81.7246 151.554 80.7908 150.413 80.7908C149.272 80.7908 148.347 81.7246 148.347 82.8766C148.347 84.0286 149.272 84.9625 150.413 84.9625Z" fill="#B4CC00"/>
<path d="M132.644 76.4108C133.214 76.4108 133.677 75.9439 133.677 75.3679C133.677 74.7919 133.214 74.325 132.644 74.325C132.073 74.325 131.611 74.7919 131.611 75.3679C131.611 75.9439 132.073 76.4108 132.644 76.4108Z" fill="#9EB300"/>
<path d="M125.826 79.3305C126.396 79.3305 126.859 78.8635 126.859 78.2876C126.859 77.7116 126.396 77.2446 125.826 77.2446C125.255 77.2446 124.793 77.7116 124.793 78.2876C124.793 78.8635 125.255 79.3305 125.826 79.3305Z" fill="#CBE600"/>
<path d="M125.826 81.2084C126.396 81.2084 126.859 80.7415 126.859 80.1655C126.859 79.5895 126.396 79.1226 125.826 79.1226C125.255 79.1226 124.793 79.5895 124.793 80.1655C124.793 80.7415 125.255 81.2084 125.826 81.2084Z" fill="#B4CC00"/>
</g>
<path d="M104.544 152.752C122.933 152.752 135.123 148.998 139.669 133.98C144.421 118.962 138.429 108.533 121.487 98.3119C117.974 96.226 94.6267 77.662 81.8166 73.4903C58.0558 65.9813 33.4686 76.8276 26.6503 97.8947C20.0387 118.962 33.8819 142.323 57.6426 150.041C70.866 154.213 100.619 152.752 104.544 152.752Z" fill="#4A7006"/>
<path d="M105.784 151.292C123.553 151.501 135.33 148.163 139.669 134.188C144.008 120.213 138.223 110.201 121.693 100.397C118.387 98.3115 95.6598 80.5818 83.0563 76.6187C59.9154 69.3183 36.1546 79.3303 29.9562 99.1458C23.7577 118.961 37.3943 140.863 60.5352 148.372C73.3454 152.335 102.065 151.292 105.784 151.292Z" fill="#B4CC00"/>
<path d="M107.024 150.041C124.173 150.458 135.537 147.329 139.669 133.98C143.801 120.631 138.222 111.244 122.107 101.858C118.801 99.9807 96.6929 82.8767 84.5026 79.1222C61.9815 72.0303 39.2538 81.208 33.262 99.9807C27.4768 118.545 40.9068 139.612 63.2212 146.704C75.4115 150.667 103.305 150.041 107.024 150.041Z" fill="#CBE600"/>
<path d="M108.057 149.206C124.793 149.624 135.743 146.704 139.875 134.188C143.801 121.465 138.222 112.496 122.52 103.526C119.214 101.649 97.5193 85.3796 85.7423 81.6251C63.8411 74.5332 41.5266 83.2938 35.948 101.232C30.3694 118.962 43.5928 139.194 65.494 146.078C77.271 149.624 104.338 148.998 108.057 149.206Z" fill="#FCF3C8"/>
<path d="M89.0481 108.532C88.6349 108.324 88.2217 108.324 87.8084 107.906C82.643 103.318 79.1306 100.397 71.8991 100.606C69.6263 100.606 66.5271 100.815 63.4278 101.649C62.3948 102.692 61.3617 103.943 60.7418 105.612C58.4691 111.661 59.7088 117.71 64.8741 121.464C65.9072 122.299 66.9403 122.924 67.9734 123.342C68.3866 123.133 68.5932 123.133 69.0064 123.133C76.0314 124.176 83.2629 122.507 90.2878 122.299C90.4944 122.09 90.701 121.882 90.9077 121.673C88.015 119.796 89.4613 114.373 93.1804 115.415C92.354 113.121 90.701 110.827 89.0481 108.532Z" fill="#EAE556"/>
<path d="M106.817 121.674C109.09 122.925 111.363 124.385 114.049 125.428C117.974 126.888 122.107 128.14 126.652 129.183C129.338 129.809 131.817 130.434 134.297 131.269C136.363 131.477 138.429 131.686 140.495 131.686C142.561 121.465 136.776 113.748 122.726 105.821C119.627 104.153 98.5524 88.7174 87.3952 85.1715C66.3204 78.4968 45.2457 86.2144 40.0803 102.275C34.9149 118.545 47.9317 137.109 69.0064 143.784C80.3703 147.33 106.197 147.33 109.71 147.538C122.313 148.164 131.611 146.704 136.57 140.446C127.479 137.109 118.181 134.189 109.296 130.643C106.404 130.017 103.718 129.391 100.825 129.183C99.7921 128.974 98.759 128.974 97.7259 128.974C88.6349 136.066 73.552 137.735 63.0146 133.354C61.3617 132.729 60.122 131.686 58.6757 130.434C54.3368 127.723 51.6508 123.551 50.6177 118.962C50.6177 118.754 50.4111 118.545 50.4111 118.336C47.3118 112.705 48.5515 106.864 51.6508 101.441C57.2294 91.8462 68.18 88.0917 78.7173 91.429C83.0563 92.6805 86.5687 94.975 89.4613 97.6866C95.0399 101.441 99.1722 106.447 100.205 113.122C101.032 114.79 101.652 116.459 102.478 118.128C103.511 119.379 104.957 120.631 106.817 121.674Z" fill="#EAE556"/>
<path d="M97.0628 120.437C100.372 109.895 92.7374 98.0476 80.0099 93.9758C67.2825 89.9041 54.2821 95.1497 50.9727 105.692C47.6633 116.235 55.2982 128.082 68.0256 132.154C80.753 136.226 93.7534 130.98 97.0628 120.437Z" fill="#61320C"/>
<path d="M89.0481 111.87C90.9076 106.03 88.4283 99.7725 83.4695 95.3922C82.4364 94.7664 81.1967 94.3492 79.9571 93.9321C68.18 90.1775 55.9897 94.3492 51.6508 103.527C51.2376 111.036 57.0228 118.336 65.9072 121.257C76.0314 124.385 86.3621 120.422 89.0481 111.87Z" fill="#804B20"/>
<path opacity="0.4" d="M65.3588 108.078C69.1035 106.676 71.4635 103.7 70.6301 101.432C69.7966 99.1636 66.0854 98.4617 62.3407 99.864C58.5961 101.266 56.2361 104.242 57.0695 106.51C57.9029 108.778 61.6142 109.48 65.3588 108.078Z" fill="#FFDE85"/>
<path d="M140.909 130.433C140.702 129.808 140.082 129.599 139.669 129.808C138.842 130.225 138.429 131.476 137.809 132.311C137.189 133.354 136.776 134.814 136.57 136.065C135.95 138.568 139.462 138.985 139.669 136.482C139.875 135.439 140.082 134.397 140.495 133.562C140.702 132.519 141.115 131.476 140.909 130.433Z" fill="#C2622F"/>
</svg>
