<svg width="200" height="200" viewBox="0 0 200 200" fill="none" xmlns="http://www.w3.org/2000/svg">
<path d="M55.7214 90.9622C42.2436 98.8542 31.5406 102.8 27.973 96.6839C26.5856 94.119 25 89.3837 25.7928 84.4512C25.7928 85.2404 25.991 85.8323 26.3874 86.4242C29.3604 91.3567 40.658 90.3702 51.7573 83.8593C62.8567 77.5456 69.3974 68.2724 66.6225 63.1426C66.2261 62.5507 65.8297 61.9588 65.2351 61.5642C69.001 63.3399 71.974 68.4697 73.3614 71.0347C76.9291 77.5456 69.3974 83.0701 55.7214 90.9622Z" fill="#402C1B"/>
<path d="M75.9381 69.2586C81.2896 78.7291 74.7489 92.5402 61.2711 100.235C47.7933 107.93 32.3335 106.746 26.982 97.2754C24.8018 93.5267 24.6036 88.9888 25.991 84.4508C26.1892 85.4373 26.5856 86.4239 27.1803 87.4104C30.3515 92.7375 37.2886 94.9078 45.0185 93.5267L36.0994 81.2941C35.703 81.0968 35.3066 80.7022 35.1084 80.3075C33.5227 77.348 37.0904 72.0208 43.0365 68.6667C48.9826 65.3126 55.5232 64.7207 57.1088 67.6802C57.307 68.0748 57.5053 68.4694 57.5053 69.0613L63.6495 82.8724C68.6046 76.9534 70.1902 69.8506 67.2172 64.5234C66.6226 63.5369 66.028 62.7477 65.2352 62.1558C69.992 62.945 73.7579 65.5099 75.9381 69.2586Z" fill="#D9BA98"/>
<path d="M76.9291 82.4784C74.7489 88.9894 69.1992 95.6977 61.2711 100.236C47.7933 107.93 32.3335 106.747 26.982 97.2761C25.5946 94.9085 25 92.1462 25 89.384C25.1982 90.3705 25.5946 91.1598 25.991 91.949C29.1623 97.2761 38.676 97.868 46.4059 96.4869L44.0275 93.33C44.2257 93.33 44.4239 93.33 44.6221 93.33L35.703 81.2947C35.5048 78.7298 37.0904 75.9675 41.649 73.2053C47.5951 69.8512 54.1358 69.2593 55.7214 72.2188C55.9196 72.6134 56.1178 73.008 56.1178 73.5999L62.2621 87.411C65.4334 83.6623 67.2172 79.5189 67.4154 75.5729C68.4064 73.008 68.6046 70.4431 68.2082 68.0754C70.983 69.4566 73.1633 71.4296 74.7489 73.9945C76.5327 76.5594 77.1273 79.5189 76.9291 82.4784Z" fill="#F2DDC6"/>
<path d="M105.867 48.7391C94.1728 42.0308 84.659 38.874 80.8932 45.3849C79.3075 47.9499 77.5237 53.0797 77.9201 58.0122C78.1183 57.223 78.3165 56.6311 78.713 56.0392C81.8842 50.7121 91.9925 50.7121 101.704 56.2365C111.218 61.761 116.57 70.4422 113.398 75.7694C113.002 76.3613 112.606 76.9532 112.011 77.3478C115.579 75.1775 118.75 69.653 120.335 66.8908C124.101 60.5772 117.561 55.4473 105.867 48.7391Z" fill="#402C1B"/>
<path d="M122.317 69.06C128.065 58.9977 123.309 45.5812 111.615 38.8729C99.9206 32.1646 85.65 34.9269 79.9021 44.792C77.5237 48.9353 76.9291 53.4732 77.9201 58.0111C78.3165 57.0246 78.7129 56.0381 79.3075 55.0516C82.677 49.3299 89.2177 46.5676 96.1548 47.1595L87.0374 60.3788C86.641 60.7734 86.2446 60.9707 86.0464 61.5626C84.2626 64.7194 87.0374 69.8492 92.3889 72.8088C97.5422 75.7683 103.488 75.571 105.272 72.6115C105.47 72.2169 105.668 71.8223 105.668 71.2304L112.407 56.6301C116.371 62.1545 117.362 69.2574 113.993 74.9791C113.398 75.9656 112.804 76.7548 112.011 77.544C116.371 75.9656 119.939 73.0061 122.317 69.06Z" fill="#D9BA98"/>
<path d="M124.3 55.4473C122.912 48.9363 118.353 42.6227 111.615 38.6766C99.9206 31.9684 85.65 34.7306 79.9021 44.5957C78.5147 47.1606 77.7219 49.9228 77.5237 52.8823C77.9201 51.8958 78.3165 51.1066 78.7129 50.1201C82.0824 44.3983 90.8033 43.0173 97.7404 43.6092L95.362 46.9633C95.5602 46.9633 95.7584 46.9633 95.9566 46.9633L86.8392 59.9852C86.4428 62.5501 87.6321 65.3123 91.5961 67.6799C96.7494 70.6395 102.695 70.4422 104.479 67.4827C104.677 67.0881 104.876 66.6935 104.876 66.1016L111.615 51.5012C114.191 55.0527 115.38 59.196 115.182 63.142C115.777 65.7069 115.777 68.2718 115.182 70.6395C117.759 69.0611 119.939 66.8908 121.525 64.1285C123.507 61.5636 124.3 58.6041 124.3 55.4473Z" fill="#F2DDC6"/>
<path d="M174.841 138.315C175.436 128.844 174.643 118.585 167.508 111.679C163.94 108.128 158.787 105.958 153.832 104.971C148.084 103.984 142.336 105.563 136.588 105.958C135.994 105.366 135.003 105.366 134.606 105.958H134.408C134.011 105.563 133.615 105.168 133.021 104.774C132.426 104.379 131.831 103.984 131.237 103.393C131.435 103.195 131.435 102.998 131.435 102.998C130.84 92.1464 123.705 84.2543 113.2 81.8867C103.092 79.9137 82.8752 90.7652 83.4698 91.7518C87.6321 99.0519 97.1458 102.801 105.074 104.774C112.606 106.747 121.525 107.339 129.056 104.576C129.651 105.168 130.246 105.563 130.84 105.958C131.435 106.352 132.228 106.747 132.822 107.339C133.219 107.536 133.615 107.733 134.012 107.931C132.426 116.02 134.408 124.898 142.534 128.647C148.084 131.212 154.228 132.001 159.778 134.369C164.138 136.145 168.697 139.104 173.454 139.301C174.247 139.499 174.643 139.104 174.841 138.315Z" fill="#4A7006"/>
<path d="M148.084 104.181C150.859 98.2615 149.868 90.1722 148.084 83.8585C148.084 82.872 148.282 82.0828 148.282 81.4909C148.48 80.1098 146.498 79.5179 145.706 80.3071C141.543 84.2531 136.985 87.8045 133.615 92.3425C131.237 95.4993 129.453 100.235 131.237 103.786C130.84 103.983 130.642 104.378 130.444 104.773C130.246 104.97 130.246 105.167 130.246 105.364C125.885 102.405 120.137 106.154 117.362 109.705C113.795 114.243 111.02 120.359 111.218 126.278C111.218 127.265 112.011 127.857 113.002 127.66C119.939 126.476 128.065 123.911 133.813 119.767C135.994 118.189 138.372 116.019 138.372 113.059C138.372 110.692 136.786 108.916 134.804 107.535C135.003 107.535 135.003 107.337 135.201 107.14C135.201 106.943 135.399 106.943 135.399 106.746C135.399 106.746 135.597 106.548 135.597 106.351C136.192 106.548 136.786 106.943 137.381 106.943C141.147 108.521 145.904 108.719 148.084 104.181Z" fill="#649015"/>
<path d="M166.715 117.794C166.517 119.57 167.508 120.753 169.292 121.345C170.481 121.74 171.472 121.148 172.463 120.359C171.67 118.188 170.679 116.018 169.292 114.242C169.093 114.637 168.697 115.032 168.499 115.426L168.301 115.624C167.31 116.018 166.715 116.807 166.715 117.794Z" fill="#649015"/>
<path d="M157.994 113.652C159.183 116.217 162.156 116.809 164.337 114.836C164.931 114.244 165.328 112.665 165.724 110.692C163.742 109.114 161.165 107.733 158.589 106.944C157.994 109.114 157.201 111.876 157.994 113.652Z" fill="#649015"/>
<path d="M162.156 132.789C163.147 131.014 163.94 129.041 164.336 127.068V126.87V126.673C164.733 125.095 164.138 123.911 163.345 123.122C163.147 122.924 162.949 122.924 162.751 122.727C162.751 122.727 162.553 122.727 162.553 122.53C161.958 122.332 161.562 122.135 160.967 122.135C160.769 122.135 160.571 122.135 160.372 122.135C160.174 122.135 160.174 122.135 159.976 122.135C159.778 122.135 159.778 122.135 159.58 122.135C159.381 122.135 159.183 122.135 158.985 122.332C158.39 122.53 157.994 122.727 157.399 123.122C157.399 123.122 157.399 123.122 157.201 123.319C157.003 123.516 156.805 123.516 156.805 123.713C156.012 124.503 155.814 125.884 156.408 127.462C156.805 128.251 156.607 129.632 156.408 130.816C157.598 131.211 158.787 131.606 159.976 132.197C160.967 132.197 161.562 132.395 162.156 132.789Z" fill="#649015"/>
<path d="M152.246 129.24C153.634 127.267 154.625 125.294 155.814 123.321C158.985 117.796 148.48 113.85 147.093 120.756C146.696 122.926 146.498 125.096 146.3 127.464C148.282 128.253 150.264 128.845 152.246 129.24Z" fill="#649015"/>
<path d="M149.868 105.76C149.868 105.957 149.67 106.549 149.67 106.746C149.075 110.495 154.228 111.876 155.814 108.719C156.21 107.93 156.408 107.141 156.408 106.352C156.012 106.154 155.417 106.154 155.021 106.154C153.237 105.76 151.652 105.562 149.868 105.76Z" fill="#649015"/>
<path d="M168.301 130.423C165.724 129.239 163.742 131.015 163.345 133.382C165.327 134.369 167.508 135.355 169.49 135.947C171.075 134.172 170.481 131.409 168.301 130.423Z" fill="#649015"/>
<path d="M141.94 124.7C143.525 122.529 144.913 120.359 146.3 118.583C147.687 116.61 147.886 113.651 145.705 112.072L145.507 111.875C141.94 109.31 137.183 112.467 138.174 116.216C138.174 116.61 137.976 117.202 137.976 117.597C138.372 120.359 139.759 122.924 141.94 124.7Z" fill="#649015"/>
<path d="M109.236 87.6084C110.425 89.5814 113.795 89.5814 114.984 87.8057C115.975 86.4246 116.371 85.0435 116.173 83.4651C114.984 83.0705 113.993 82.6759 112.804 82.4786C111.416 82.084 109.633 82.2813 107.849 82.4786C108.443 84.2543 108.245 86.03 109.236 87.6084Z" fill="#649015"/>
<path d="M123.309 104.182C123.309 103.984 123.309 103.787 123.309 103.787C123.507 101.222 121.723 98.4599 118.75 98.8545C115.975 99.2491 113.993 101.814 112.606 104.576C116.173 104.774 119.741 104.774 123.309 104.182Z" fill="#649015"/>
<path d="M95.5601 99.8413C96.5511 98.8548 97.5422 98.0656 98.5332 97.2763C101.506 94.9087 99.1278 89.187 95.3619 90.9627C93.1817 92.1465 90.8033 93.5276 89.0194 95.3033C90.8033 97.079 93.1817 98.6575 95.5601 99.8413Z" fill="#649015"/>
<path d="M119.543 85.2407C119.543 85.438 119.543 86.6218 119.741 87.0164C119.741 86.6218 119.344 89.1867 119.543 88.5948C118.75 91.1597 119.344 93.922 121.921 95.1058C123.903 96.0923 126.083 95.5004 127.471 93.922C125.885 90.3706 123.11 87.411 119.543 85.2407Z" fill="#649015"/>
<path d="M94.5692 87.2139C95.362 87.2139 96.353 87.4111 96.9476 87.6084C97.9386 88.2003 98.9296 88.5949 100.119 88.7922C103.687 89.1869 105.074 85.6354 104.083 83.2678C100.515 84.2543 96.5512 85.6354 93.3799 87.0165C93.7763 87.0165 94.1728 87.2139 94.5692 87.2139Z" fill="#649015"/>
<path d="M108.642 93.5263C105.074 94.7101 101.903 98.2616 99.5242 101.024C99.326 101.221 99.3261 101.221 99.1279 101.418C101.11 102.208 103.29 102.799 105.272 103.194C105.867 103.391 106.263 103.391 106.858 103.589C108.443 102.405 110.029 101.221 112.011 100.235C115.975 98.0643 112.606 92.1452 108.642 93.5263Z" fill="#649015"/>
<path d="M173.057 123.319C171.274 123.714 169.886 124.897 170.084 126.87C170.283 128.844 172.066 129.83 173.85 129.83C173.652 127.66 173.454 125.489 173.057 123.319Z" fill="#649015"/>
<path d="M119.543 115.427C118.552 114.046 116.966 113.652 115.38 113.849C113.993 116.611 112.804 119.768 112.606 122.925C113.993 122.727 114.786 121.741 115.975 121.149C115.975 121.149 116.173 121.149 116.173 120.952C116.372 120.754 116.57 120.754 116.768 120.557C116.768 120.557 116.768 120.557 117.164 120.36C117.957 119.965 118.75 119.571 119.345 118.781C120.137 117.992 120.336 116.611 119.543 115.427Z" fill="#7EB023"/>
<path d="M132.822 94.5137C131.237 97.0786 130.246 100.235 131.038 102.998C133.219 103.392 135.597 102.998 136.985 101.222C137.777 100.235 137.976 98.657 137.183 97.4732C136.39 96.4867 135.597 96.0921 134.804 95.5002C135.399 95.6975 136.192 95.8948 136.786 95.8948C140.156 96.0921 142.336 93.1326 140.75 89.9758C140.552 89.5812 139.958 88.5946 139.759 88.5946L139.561 88.3973C139.958 88.5946 140.354 88.7919 140.75 88.7919C143.525 89.5811 145.507 86.8189 145.507 84.4513C145.507 83.6621 145.309 82.8729 144.714 82.281C140.949 85.8324 136.786 89.1865 133.615 93.3299C133.219 93.5272 133.021 93.9218 132.822 94.5137C133.021 94.5137 133.02 94.5137 133.219 94.711C133.02 94.5137 132.822 94.5137 132.822 94.5137Z" fill="#7EB023"/>
<path d="M144.516 87.41C144.12 88.1992 144.318 89.3831 145.111 89.975C145.705 90.3696 146.3 90.7642 147.093 90.7642C146.102 90.7642 145.111 90.9615 144.12 91.5534C142.931 92.5399 142.138 93.921 142.732 95.3021C143.129 96.6832 144.318 97.8671 145.904 98.0644C146.696 98.2617 147.687 98.459 148.282 98.6563C148.678 94.3156 147.886 89.5803 146.895 85.437C145.904 85.8316 145.111 86.4235 144.516 87.41Z" fill="#7EB023"/>
<path d="M123.903 121.939C122.714 119.966 120.137 118.782 118.353 120.558C117.957 120.953 117.759 121.742 118.155 122.136C118.155 122.334 118.552 123.32 118.353 122.728C118.552 123.32 118.75 123.912 118.948 124.701C118.948 124.701 118.948 124.899 118.948 125.096C120.732 124.701 122.714 124.109 124.498 123.32C124.3 122.728 124.101 122.334 123.903 121.939Z" fill="#7EB023"/>
<path d="M122.714 114.243C125.291 113.651 126.282 111.481 125.092 109.311C124.894 108.916 124.498 108.324 124.101 108.127C124.101 108.127 124.101 108.127 124.3 108.127C125.291 108.521 126.48 109.311 127.669 109.311C129.849 109.508 131.237 108.127 131.237 105.957C131.237 105.365 131.038 104.97 130.84 104.575L130.642 104.773C130.444 104.97 130.444 105.167 130.444 105.167C127.669 103.392 124.498 104.378 121.723 106.154C121.921 106.351 121.921 106.548 122.119 106.746C121.921 106.548 121.723 106.548 121.326 106.351C120.137 107.14 119.146 108.127 118.353 109.113C117.561 110.1 116.768 111.086 116.173 112.27C116.57 112.27 116.768 112.467 117.164 112.665C118.948 113.257 120.732 114.638 122.714 114.243Z" fill="#7EB023"/>
<path d="M124.101 116.02C123.705 116.809 123.903 118.19 124.696 118.585C125.092 118.782 125.291 118.98 125.687 118.98C125.885 119.177 125.885 119.374 125.687 118.98C125.885 119.374 126.083 119.769 126.282 119.966C126.48 120.558 126.678 121.347 127.074 121.939C129.255 120.953 131.038 119.966 132.822 118.782C130.84 115.428 126.282 112.469 124.101 116.02Z" fill="#7EB023"/>
<path d="M129.849 111.876C129.255 113.059 130.047 114.835 131.633 115.032C131.633 115.032 131.633 115.032 131.831 115.032C131.831 115.032 131.831 115.032 131.831 115.23C132.228 115.822 132.624 116.216 133.021 116.808C133.417 117.4 133.615 117.992 133.813 118.584C135.795 117.005 137.976 115.032 137.976 112.467C137.976 112.073 137.976 111.876 137.976 111.678L137.777 111.481C135.399 109.311 131.237 109.311 129.849 111.876Z" fill="#7EB023"/>
<path d="M142.336 103.391C143.129 104.18 143.723 104.97 144.516 105.759C144.714 105.956 145.111 106.351 145.309 106.745C145.904 106.153 146.498 105.561 147.093 104.575C147.687 103.391 147.886 102.207 148.282 100.826C146.895 100.432 145.507 100.234 144.12 100.037C141.741 99.6425 140.949 101.813 142.336 103.391Z" fill="#7EB023"/>
<path d="M118.75 129.041C115.182 126.082 111.02 124.109 106.66 122.53C103.686 121.347 99.326 119.571 95.9566 119.965C95.7584 119.373 95.7584 118.979 95.5602 118.387C95.5602 117.598 90.8033 95.5 90.6051 85.6349C89.8123 85.2403 89.0195 85.2403 88.0285 85.8322C87.6321 86.0295 87.4339 86.0295 87.0375 86.2268C86.8393 86.2268 86.641 86.4241 86.4428 86.4241C85.0554 86.6214 83.668 87.016 82.0824 87.4106C81.0914 87.6079 80.4968 88.5944 80.1004 89.3836C80.695 92.3431 86.0464 116.611 86.6411 123.32C80.695 123.32 73.3615 128.449 69.5956 131.606C63.8477 136.539 62.2621 145.023 66.028 151.534C68.01 154.888 71.3794 156.466 74.9471 156.664C75.3435 158.045 75.9381 159.228 76.7309 160.018C79.1094 162.977 82.677 164.556 86.2447 164.95C90.2087 165.345 97.5422 163.372 101.11 159.426C103.092 161.399 106.263 161.793 109.038 161.201C113.002 161.201 116.768 158.045 118.552 154.69C119.543 152.717 119.939 150.35 119.741 148.377C120.93 147.785 121.921 146.996 122.912 146.009C127.669 140.682 123.309 132.79 118.75 129.041Z" fill="#D9BA98"/>
<path d="M108.245 125.491C104.876 124.11 101.506 122.729 98.335 121.347C96.9476 120.756 95.5602 120.164 93.9746 119.966C92.5871 115.626 91.7943 110.89 91.0015 106.353C89.8123 99.6443 89.0195 92.7387 87.2357 86.2278C87.2357 86.2278 87.2357 86.2278 87.0375 86.2278C86.8393 86.2278 86.641 86.425 86.4428 86.425C85.0554 86.6223 83.668 87.0169 82.0824 87.4115C81.0914 87.6088 81.2896 88.3981 80.8932 89.3846C81.4878 92.3441 87.4339 117.401 88.0285 123.912C82.0824 123.912 73.9561 129.24 70.3884 132.396C66.028 136.145 64.2441 140.88 65.2352 146.208C67.6136 146.799 69.1992 145.813 70.7848 144.234C73.9561 141.275 76.5327 137.921 79.704 135.159C81.0914 133.975 82.4788 132.791 83.668 131.607C82.8752 133.383 81.8842 134.961 80.695 136.934C78.1183 140.683 73.9561 145.813 74.1543 150.745C74.7489 158.44 82.0824 163.175 88.8213 157.651C92.3889 154.691 93.3799 150.943 93.7763 146.405C93.9745 143.84 94.1728 140.683 94.1728 137.723C97.7404 146.799 104.281 160.413 110.227 152.521C113.398 148.378 110.227 142.064 107.849 138.315L107.651 138.118H107.849C110.822 138.315 114.984 137.724 115.38 134.172C116.57 129.831 111.615 126.872 108.245 125.491Z" fill="#F2DDC6"/>
<path d="M93.3799 123.122C92.9835 122.727 92.3889 122.53 91.9925 122.332C91.5961 121.74 91.3979 120.951 91.0015 120.359C90.8033 119.965 90.6051 119.57 90.4069 119.176C90.2087 116.216 89.4159 113.059 88.8213 110.1C87.4338 103.391 85.8482 96.2886 83.2716 89.7776C83.2716 89.5803 82.8752 89.5803 82.8752 89.7776C83.2716 95.1048 84.2626 100.432 85.2536 105.562C86.2447 110.494 86.4428 115.821 87.8303 120.557C87.8303 121.938 88.0285 123.122 87.2357 123.714C87.0375 123.714 86.8392 123.911 86.8392 123.911C85.4518 124.503 86.0464 126.476 87.4339 126.081H87.6321C87.6321 127.66 89.8123 127.857 90.2087 126.476C90.2087 126.476 90.2087 126.476 90.2087 126.278C91.0015 126.673 92.1907 126.278 92.1907 125.292C93.38 125.489 94.3709 123.911 93.3799 123.122Z" fill="#FDF4DC"/>
<path d="M82.677 126.673C79.1093 126.081 75.5417 128.843 72.7669 130.816C69.7938 132.986 66.8208 135.551 66.4244 139.3C66.028 142.654 71.3794 142.654 71.7758 139.3C71.974 136.932 74.5507 134.762 76.1363 133.184C77.1273 132.197 77.9201 131.408 78.9111 130.421C80.1003 129.238 81.4878 128.251 82.677 127.067C82.8752 126.87 82.677 126.673 82.677 126.673Z" fill="#FDF4DC"/>
<path d="M88.6231 130.422C88.4249 130.225 88.2267 130.027 88.0285 130.027C87.8303 130.027 87.8303 129.83 87.6321 130.027C87.2357 130.027 87.0375 130.225 86.641 130.619C86.0464 131.409 85.65 132.395 85.4518 133.382C83.0734 137.328 81.2896 141.668 80.1004 146.206C79.5057 148.574 79.5057 152.717 83.0734 152.125C85.4518 151.731 87.0374 147.587 87.8302 145.614C88.8213 142.852 88.2267 139.695 88.6231 136.933C88.8213 134.565 89.8123 132.395 88.6231 130.422Z" fill="#FDF4DC"/>
<path d="M112.011 130.027C110.425 128.054 107.849 127.067 105.47 126.081C104.083 125.489 102.695 125.094 101.308 124.7C99.7224 124.305 98.335 124.503 96.9476 124.108C96.7494 124.108 96.5512 124.503 96.7494 124.503C97.7404 125.094 98.335 126.278 99.5242 126.87C100.515 127.659 101.704 128.054 102.894 128.646C105.074 129.632 107.651 130.816 109.038 132.789C110.624 135.354 113.993 132.197 112.011 130.027Z" fill="#FDF4DC"/>
<path d="M106.461 142.655C104.677 139.892 102.497 137.327 100.515 134.762C98.5332 132.592 96.9476 129.435 94.1728 128.252C93.5782 128.054 93.1818 128.449 93.1818 129.041C94.371 134.171 97.9386 138.314 100.713 142.457C100.912 143.246 101.308 144.233 101.506 145.022C101.903 146.009 102.894 146.995 104.083 146.995C104.876 146.995 105.272 146.798 105.867 146.206C106.263 145.811 106.461 145.219 106.66 144.628C106.858 144.233 106.858 143.444 106.461 142.655Z" fill="#FDF4DC"/>
</svg>
