<svg width="200" height="200" viewBox="0 0 200 200" fill="none" xmlns="http://www.w3.org/2000/svg">
<path d="M124.317 82.0176C125.086 73.5351 122.86 69.4205 121.919 67.9908C120.978 66.5611 114.558 57.2962 113.698 54.6338C112.837 51.9714 111.087 37.2466 111.087 37.2466C110.743 32.4171 108.305 30.0249 108.305 28.9329C108.305 27.8409 109.452 27.8072 109.504 26.3268C109.53 25.9198 109.463 25.5122 109.307 25.1341C109.151 24.7561 108.91 24.4173 108.603 24.1429V22.1953H91.3912V24.1429C91.0837 24.4173 90.8431 24.7561 90.6872 25.1341C90.5313 25.5122 90.464 25.9198 90.4905 26.3268C90.5306 27.7959 91.6896 27.8409 91.6896 28.9329C91.6896 30.0249 89.2627 32.4059 88.9128 37.2522C88.9128 37.2522 87.1572 51.9489 86.3023 54.6394C85.4475 57.33 79.0275 66.5667 78.0809 67.9964C77.1342 69.4261 74.9139 73.5407 75.6827 82.0233C76.4515 90.5058 75 164.254 75 165.768C75 172.579 77.226 178.956 80.393 180.887C83.5599 182.817 95.0344 183.071 99.9971 182.986C104.96 183.071 116.434 182.817 119.601 180.887C122.768 178.956 124.994 172.241 124.994 165.768C125.006 164.248 123.548 90.5002 124.317 82.0176Z" fill="#1B1A22"/>
<path d="M124.317 82.0176C125.086 73.5351 122.86 69.4205 121.919 67.9908C120.978 66.5611 114.558 57.2962 113.698 54.6338C112.837 51.9714 111.087 37.2466 111.087 37.2466C110.743 32.4171 108.305 30.0249 108.305 28.9329C108.305 27.8409 109.452 27.8072 109.504 26.3268C109.53 25.9198 109.463 25.5122 109.307 25.1341C109.151 24.7561 108.91 24.4173 108.603 24.1429V22.1953H91.3912V24.1429C91.0837 24.4173 90.8431 24.7561 90.6872 25.1341C90.5313 25.5122 90.464 25.9198 90.4905 26.3268C90.5306 27.7959 91.6896 27.8409 91.6896 28.9329C91.6896 30.0249 89.2627 32.4059 88.9128 37.2522C88.9128 37.2522 87.1572 51.9489 86.3023 54.6394C85.4475 57.33 79.0275 66.5667 78.0809 67.9964C77.1342 69.4261 74.9139 73.5407 75.6827 82.0233C76.4515 90.5058 75 164.254 75 165.768C75 172.579 77.226 178.956 80.393 180.887C83.5599 182.817 95.0344 183.071 99.9971 182.986C104.96 183.071 116.434 182.817 119.601 180.887C122.768 178.956 124.994 172.241 124.994 165.768C125.006 164.248 123.548 90.5002 124.317 82.0176Z" fill="#408F26"/>
<path d="M107.41 17H92.6022C92.2051 17 91.8242 17.1548 91.5434 17.4303C91.2626 17.7058 91.1048 18.0795 91.1048 18.4691V22.2066H108.89V18.4691C108.89 18.0824 108.735 17.7112 108.458 17.4362C108.181 17.1612 107.804 17.0044 107.41 17Z" fill="#D75D27"/>
<g opacity="0.4" style="mix-blend-mode:overlay">
<path d="M95.9412 22.2066H108.913V18.4128C108.913 18.0381 108.761 17.6788 108.491 17.4138C108.221 17.1488 107.855 17 107.473 17H92.5563C92.1743 17 91.8081 17.1488 91.538 17.4138C91.2679 17.6788 91.1162 18.0381 91.1162 18.4128V18.6661C92.6653 19.8519 94.2736 21.0321 95.9412 22.2066Z" fill="white"/>
</g>
<g opacity="0.4" style="mix-blend-mode:overlay">
<path d="M108.907 18.4128C108.907 18.0381 108.755 17.6788 108.485 17.4138C108.215 17.1488 107.849 17 107.467 17H98.8613C101.196 18.7618 103.703 20.5067 106.354 22.2066H108.919L108.907 18.4128Z" fill="white"/>
</g>
<g opacity="0.2" style="mix-blend-mode:overlay">
<path d="M122.246 160.989C121.93 143.225 120.984 89.1773 121.672 81.7868C122.32 74.6214 120.714 70.9627 119.693 69.4035L118.999 68.4297C115.361 63.0655 111.896 57.7802 111.15 55.433C110.267 52.6524 108.735 40.0665 108.436 37.5729V37.4266C108.379 36.8085 108.087 36.2342 107.618 35.8172C107.15 35.4003 106.539 35.1711 105.906 35.1751H94.1221C93.4895 35.1711 92.8785 35.4003 92.4099 35.8172C91.9414 36.2342 91.6495 36.8085 91.592 37.4266V37.5729C91.2936 40.0665 89.7618 52.6524 88.8783 55.433C88.1324 57.7745 84.6671 63.0599 81.0297 68.4241L80.3527 69.4317C79.3373 70.9739 77.7251 74.6326 78.3734 81.8149C79.0447 89.2055 78.0923 143.258 77.7997 161.017C77.7538 163.668 77.7194 165.588 77.7194 165.79C77.7194 167.26 77.8344 168.728 78.0636 170.181C78.6485 171.188 79.4611 172.051 80.4388 172.702C83.6058 174.633 95.0802 174.886 100.043 174.802C105.006 174.886 116.48 174.633 119.647 172.702C120.622 172.043 121.427 171.17 121.999 170.152C122.238 168.71 122.359 167.251 122.361 165.79C122.326 165.559 122.292 163.64 122.246 160.989Z" fill="black"/>
</g>
<g opacity="0.2" style="mix-blend-mode:overlay">
<path d="M101.741 171.718H100.06H99.9512H98.2702C95.482 171.718 92.8314 171.549 90.5078 171.324C87.9232 171.091 85.5153 169.937 83.7408 168.079C81.9663 166.22 80.9486 163.788 80.8807 161.242C80.8807 161.169 82.0741 88.277 81.4545 81.5112C80.8807 75.0269 82.2978 72.0606 82.9461 71.0812L83.6059 70.1074C85.4935 67.3211 87.1917 63.9158 90.1521 62.0808C92.8773 60.3922 96.2393 59.6717 99.4292 59.5253C103.118 59.3508 107.295 59.8799 110.41 61.9964C113.233 63.9158 114.547 67.3943 116.388 70.1074L117.042 71.0812C117.685 72.0549 118.396 75.0213 118.528 81.5112C118.666 88.3108 119.102 161.169 119.102 161.242C119.034 163.787 118.017 166.219 116.244 168.077C114.471 169.935 112.064 171.09 109.481 171.324C107.18 171.554 104.53 171.718 101.741 171.718Z" fill="white"/>
</g>
<g opacity="0.2" style="mix-blend-mode:overlay">
<path d="M124.317 82.0176C125.086 73.5351 122.86 69.4205 121.919 67.9908C120.978 66.5611 114.558 57.2962 113.697 54.6338C112.837 51.9714 111.087 37.2466 111.087 37.2466C110.743 32.4171 108.304 30.0249 108.304 28.9329C108.304 27.8409 109.452 27.8072 109.504 26.3268C109.53 25.9198 109.463 25.5122 109.307 25.1341C109.151 24.7561 108.91 24.4173 108.603 24.1429V22.1953H91.3911V24.1429C91.0837 24.4173 90.843 24.7561 90.6871 25.1341C90.5312 25.5122 90.464 25.9198 90.4904 26.3268C90.5306 27.7959 91.6895 27.8409 91.6895 28.9329C91.6895 30.0249 89.2626 32.4059 88.9127 37.2522C88.9127 37.2522 87.1571 51.9489 86.3022 54.6394C85.8146 56.1704 83.5197 59.8347 81.46 62.9643C82.6075 109.902 89.6815 152.034 100.462 182.986C105.625 183.048 116.526 182.755 119.607 180.881C122.774 178.95 125 172.235 125 165.762C125.005 164.248 123.548 90.5002 124.317 82.0176Z" fill="white"/>
</g>
<g opacity="0.1" style="mix-blend-mode:overlay">
<path d="M102.751 58.0168H97.295C94.3289 58.0168 91.925 56.7503 91.925 55.2024L93.17 39.6164C93.17 38.0572 95.5739 36.802 98.54 36.802H101.5C104.467 36.802 106.87 38.0685 106.87 39.6164L108.115 55.2024C108.121 56.7559 105.717 58.0168 102.751 58.0168Z" fill="white"/>
</g>
<g opacity="0.3" style="mix-blend-mode:overlay">
<path d="M124.948 167.333C124.948 166.809 124.994 166.286 124.994 165.762C124.994 164.248 123.537 90.5002 124.312 82.0176C125.086 73.5351 122.854 69.4205 121.913 67.9908C120.973 66.5611 114.553 57.2962 113.692 54.6338C112.831 51.9714 111.082 37.2466 111.082 37.2466C110.737 32.4171 108.299 30.0249 108.299 28.9329C108.299 27.8409 109.446 27.8072 109.498 26.3268C109.525 25.9198 109.457 25.5122 109.301 25.1341C109.145 24.7561 108.905 24.4173 108.597 24.1429V22.1953H100.961C101.099 22.1953 100.313 26.7715 100.789 27.1768C101.203 27.3484 101.648 27.4346 102.097 27.43C103.499 27.5909 104.889 27.8448 106.257 28.1899C105.767 28.2984 105.271 28.3737 104.771 28.4151H102.682C102.109 28.4151 101.271 28.3194 100.8 28.7584C100.227 29.2763 100.462 30.5709 100.433 31.2463C100.158 37.1978 100.022 43.1549 100.026 49.1176C100.02 100.93 110.175 145.752 124.948 167.333Z" fill="#CCCCCC"/>
</g>
<path d="M100.009 56.0073C104.598 56.0373 109.168 55.429 113.583 54.2004C112.694 50.66 111.093 37.2523 111.093 37.2523C110.986 35.6861 110.623 34.1469 110.02 32.693C103.404 31.4305 96.6019 31.4305 89.9858 32.693C89.3826 34.1469 89.0204 35.6861 88.9129 37.2523C88.9129 37.2523 87.3122 50.6543 86.423 54.2004C90.8417 55.43 95.4158 56.0384 100.009 56.0073Z" fill="#EDC951"/>
<path d="M100.009 54.6283C104.505 54.644 108.993 54.254 113.417 53.4631C112.51 49.1009 111.122 37.258 111.122 37.258C111.042 36.0899 110.821 34.9353 110.462 33.8188C103.544 32.9009 96.5312 32.9009 89.613 33.8188C89.2544 34.9353 89.0329 36.0899 88.9533 37.258C88.9533 37.258 87.5362 49.0783 86.6584 53.4631C91.063 54.2506 95.5318 54.6406 100.009 54.6283Z" fill="#00A0B0"/>
<path opacity="0.2" d="M124.948 167.333C124.948 166.809 124.994 166.286 124.994 165.762C124.994 164.248 123.537 90.5002 124.311 82.0176C125.086 73.5351 122.854 69.4205 121.913 67.9908C120.972 66.5611 114.552 57.2962 113.692 54.6338C112.831 51.9714 111.081 37.2466 111.081 37.2466C110.737 32.4171 108.299 30.0249 108.299 28.9329C108.299 27.8409 109.446 27.8072 109.498 26.3268C109.524 25.9198 109.457 25.5122 109.301 25.1341C109.145 24.7561 108.905 24.4173 108.597 24.1429V22.1953H100.961C100.886 23.2535 100.863 24.323 100.749 25.3756C100.68 26.0116 100.226 26.9178 100.932 27.385C101.379 27.5929 101.875 27.6748 102.366 27.6214C103.051 27.6704 103.731 27.7644 104.403 27.9029C104.992 27.9505 105.571 28.0774 106.124 28.28C105.51 28.28 104.839 28.2068 104.208 28.2068C103.577 28.2068 103.015 28.2462 102.418 28.28C101.821 28.3138 101.081 28.4094 100.737 28.8429C100.485 29.1468 100.559 29.5746 100.542 29.9348C100.525 30.2951 100.485 30.8129 100.462 31.2576C100.186 37.2166 100.051 43.1793 100.054 49.1458C100.02 100.93 110.175 145.752 124.948 167.333Z" fill="url(#paint0_radial_2006_76188)" style="mix-blend-mode:overlay"/>
<g style="mix-blend-mode:overlay" opacity="0.6">
<path opacity="0.5" d="M109.704 55.8271C109.022 56.3471 108.376 56.9112 107.771 57.5158C107.49 57.8422 107.094 58.2137 107.53 58.5909C108.104 59.1031 109.016 59.3057 109.653 59.7842C109.986 60.0318 111.85 61.4221 111.856 60.4315C111.793 59.9274 111.631 59.44 111.38 58.9961C111.14 58.4578 110.935 57.9051 110.766 57.3413C110.599 56.7672 110.416 56.0016 109.704 55.8271Z" fill="#CCCCCC"/>
<path opacity="0.5" d="M112.309 60.3075C112.206 60.0879 112.114 59.8684 112.028 59.6602C111.991 59.5864 111.972 59.5057 111.97 59.4238C111.97 59.1705 112.275 59.1817 112.452 59.238C112.888 59.3787 112.98 59.874 113.181 60.2118C113.47 60.6251 113.638 61.1076 113.669 61.6077C113.669 61.9398 113.669 61.9454 113.388 61.7372C113.218 61.6215 113.062 61.4874 112.923 61.3375C112.68 61.0177 112.474 60.6722 112.309 60.3075Z" fill="#CCCCCC"/>
<path opacity="0.5" d="M112.045 61.2194L111.907 61.3038C111.684 61.4445 111.397 61.7147 111.477 62.0018C111.509 62.0958 111.557 62.1835 111.621 62.2607C111.929 62.7284 112.403 63.0674 112.952 63.212C113.405 63.2795 113.084 62.6041 112.952 62.4296C112.825 62.2269 112.712 62.0163 112.613 61.7992C112.547 61.5868 112.429 61.3936 112.269 61.2363C112.237 61.2126 112.199 61.1984 112.16 61.1954C112.12 61.1924 112.08 61.2007 112.045 61.2194Z" fill="#CCCCCC"/>
</g>
<g opacity="0.2" style="mix-blend-mode:overlay">
<path d="M79.0678 168.464H79.108C79.5575 168.672 80.0315 168.825 80.5193 168.92C80.898 168.954 81.6094 168.762 81.7069 169.246C81.8045 169.73 81.6094 170.372 82.0741 170.744C82.7339 171.256 83.7207 171.16 84.4723 171.492C84.8109 171.631 85.089 171.882 85.2583 172.201C85.3845 172.466 85.4533 172.809 85.155 172.956C84.8783 173.066 84.5738 173.089 84.2829 173.023C83.9043 172.961 83.5314 172.95 83.1355 172.916C82.5928 172.843 82.0647 172.689 81.5692 172.46C80.8206 172.235 80.1574 171.796 79.6645 171.199C79.4182 170.884 79.2246 170.533 79.0908 170.158C78.9514 169.603 78.8517 169.039 78.7924 168.47C78.8096 168.346 78.8957 168.47 79.0678 168.464Z" fill="black"/>
</g>
<g opacity="0.2" style="mix-blend-mode:overlay">
<path d="M82.16 169.612C82.1743 169.385 82.2167 169.16 82.2862 168.942C82.3551 168.745 82.378 168.52 82.6362 168.543C82.8026 168.543 82.9173 168.7 83.0435 168.79C83.1697 168.881 83.3476 168.999 83.5025 169.1C83.8238 169.32 84.9827 170.068 84.3516 170.53C84.1954 170.618 84.0134 170.652 83.8353 170.625C83.5541 170.625 83.2615 170.592 82.9919 170.586C82.8633 170.601 82.7329 170.591 82.6086 170.555C82.4843 170.519 82.3687 170.459 82.269 170.378C82.1417 170.143 82.1031 169.872 82.16 169.612Z" fill="black"/>
</g>
<path d="M100.003 37.4324L100.56 40.9447L102.195 37.7701L101.609 41.2824L104.162 38.7551L102.504 41.9185L105.729 40.2918L103.158 42.7966L106.733 42.2281L103.497 43.8323L107.083 44.3726L103.497 44.913L106.733 46.5172L103.158 45.9487L105.729 48.4535L102.504 46.8268L104.162 49.9901L101.609 47.4628L102.195 50.9751L100.56 47.8005L100.003 51.3129L99.4522 47.8005L97.8171 50.9751L98.4023 47.4628L95.8493 49.9901L97.5073 46.8268L94.283 48.4535L96.8533 45.9487L93.279 46.5172L96.5148 44.913L92.9348 44.3726L96.5148 43.8323L93.279 42.2281L96.8533 42.7966L94.283 40.2918L97.5073 41.9185L95.8493 38.7551L98.4023 41.2824L97.8171 37.7701L99.4522 40.9447L100.003 37.4324Z" fill="#FBFFEC"/>
<path d="M124.128 88.2206C124.128 87.7253 121.036 87.2862 116.096 86.9766C111.879 81.6012 106.228 78.3027 100.032 78.3027C93.8355 78.3027 88.1786 81.6012 83.9675 86.971C79.022 87.275 75.9067 87.7196 75.9067 88.215C76.0214 98.3467 75.7919 117.805 75.5395 134.692C75.5395 135.451 79.6301 136.121 85.8665 136.527C89.8137 140.585 94.7133 142.994 100.02 142.994C105.327 142.994 110.232 140.585 114.157 136.538C120.387 136.132 124.449 135.463 124.449 134.708C124.237 117.811 124.013 98.3692 124.128 88.2206Z" fill="#FBFFEC"/>
<path d="M114.157 136.538C120.387 136.132 124.449 135.463 124.449 134.708C124.449 133.307 124.409 131.894 124.386 130.453C123.484 130.712 122.554 130.865 121.615 130.909C114.472 131.776 107.169 131.776 99.9858 131.776C94.7363 131.776 89.481 131.686 84.2429 131.387C81.7286 131.304 79.2223 131.065 76.7386 130.673C76.4173 130.616 75.9641 130.397 75.5912 130.279C75.5912 131.765 75.551 133.239 75.5281 134.697C75.5281 135.457 79.6187 136.127 85.8551 136.532C89.8023 140.59 94.7018 143 100.009 143C105.316 143 110.232 140.585 114.157 136.538Z" fill="#17BBCB"/>
<path d="M116.096 87.0047C111.879 81.6293 106.228 78.3308 100.031 78.3308C93.8351 78.3308 88.1782 81.6293 83.9671 86.9991C79.0216 87.303 75.9063 87.7477 75.9063 88.243C75.9063 89.4757 75.9063 90.8435 75.9063 92.3295C76.0211 92.2788 76.1301 92.2282 76.1817 92.2113C76.9528 91.9997 77.7421 91.8584 78.5397 91.7891C85.6137 90.8942 92.8827 90.9111 99.9912 90.9111C107.1 90.9111 114.374 90.9111 121.454 91.7891C122.35 91.8405 123.234 92.0129 124.082 92.3014C124.082 90.8266 124.082 89.487 124.082 88.2374C124.11 87.7252 121.041 87.2862 116.096 87.0047Z" fill="#EDC951"/>
<path d="M99.9974 131.77C113.537 131.77 124.512 131.01 124.512 130.082C124.512 130.464 124.512 130.836 124.512 131.207C124.512 132.142 113.537 132.896 99.9974 132.896C86.4575 132.896 75.4822 132.136 75.4822 131.207C75.4822 130.858 75.4822 130.492 75.4822 130.121C75.7175 131.027 86.6182 131.77 99.9974 131.77Z" fill="#EDC951"/>
<path d="M99.9971 90.8942C113.313 90.8942 124.093 91.6428 124.093 92.5828C124.093 92.2057 124.093 91.8399 124.093 91.4909C124.093 90.5678 113.296 89.8022 99.9971 89.8022C86.6983 89.8022 75.9008 90.5509 75.9008 91.4909C75.9008 91.8342 75.9008 92.1945 75.9008 92.5547C76.1188 91.626 86.8187 90.8942 99.9971 90.8942Z" fill="#00A0B0"/>
<path d="M84.1658 110.9V100.689H88.0746C88.8125 100.689 89.4258 100.806 89.9144 101.038C90.4063 101.268 90.7736 101.582 91.0162 101.981C91.2622 102.379 91.3852 102.831 91.3852 103.337C91.3852 103.752 91.3054 104.108 91.1459 104.404C90.9863 104.696 90.7719 104.934 90.5027 105.117C90.2335 105.299 89.9327 105.431 89.6003 105.511V105.61C89.9626 105.63 90.3099 105.742 90.6423 105.944C90.978 106.144 91.2522 106.426 91.465 106.792C91.6777 107.157 91.7841 107.6 91.7841 108.118C91.7841 108.647 91.6561 109.122 91.4002 109.544C91.1442 109.963 90.7586 110.294 90.2434 110.536C89.7282 110.779 89.0801 110.9 88.299 110.9H84.1658ZM86.0155 109.355H88.0048C88.6762 109.355 89.1599 109.227 89.4557 108.971C89.7548 108.711 89.9044 108.379 89.9044 107.973C89.9044 107.671 89.8296 107.398 89.6801 107.156C89.5305 106.91 89.3177 106.717 89.0419 106.577C88.766 106.435 88.4369 106.363 88.0547 106.363H86.0155V109.355ZM86.0155 105.032H87.8453C88.1644 105.032 88.4519 104.974 88.7078 104.857C88.9638 104.738 89.1649 104.57 89.3111 104.354C89.4607 104.134 89.5355 103.875 89.5355 103.576C89.5355 103.18 89.3959 102.855 89.1167 102.599C88.8408 102.343 88.4303 102.215 87.8852 102.215H86.0155V105.032ZM93.3932 110.9V100.689H100.034V102.24H95.243V105.012H99.6903V106.563H95.243V109.35H100.074V110.9H93.3932ZM101.921 110.9V100.689H108.563V102.24H103.771V105.012H108.218V106.563H103.771V109.35H108.602V110.9H101.921ZM110.45 110.9V100.689H114.279C115.063 100.689 115.721 100.826 116.253 101.098C116.788 101.371 117.192 101.753 117.465 102.245C117.741 102.733 117.878 103.303 117.878 103.955C117.878 104.61 117.739 105.178 117.46 105.66C117.184 106.139 116.777 106.509 116.238 106.772C115.7 107.031 115.038 107.161 114.254 107.161H111.527V105.625H114.005C114.463 105.625 114.839 105.562 115.131 105.436C115.424 105.306 115.64 105.118 115.779 104.872C115.922 104.623 115.994 104.317 115.994 103.955C115.994 103.593 115.922 103.284 115.779 103.028C115.637 102.768 115.419 102.572 115.126 102.439C114.834 102.303 114.457 102.235 113.995 102.235H112.299V110.9H110.45ZM115.725 106.273L118.252 110.9H116.188L113.705 106.273H115.725Z" fill="#00A0B0"/>
<path d="M88.424 118.514V119.302H85.1632V118.514H88.424ZM86.1399 124.563V117.679C86.1399 117.333 86.2213 117.044 86.384 116.813C86.5468 116.582 86.7582 116.409 87.0181 116.293C87.278 116.177 87.5524 116.12 87.8412 116.12C88.0696 116.12 88.256 116.138 88.4004 116.175C88.5448 116.212 88.6524 116.246 88.7233 116.277L88.4555 117.081C88.4083 117.065 88.3426 117.045 88.2586 117.022C88.1772 116.998 88.0696 116.986 87.9357 116.986C87.6285 116.986 87.4067 117.064 87.2701 117.218C87.1362 117.373 87.0693 117.6 87.0693 117.9V124.563H86.1399ZM89.7266 124.563V118.514H90.6245V119.428H90.6875C90.7978 119.129 90.9973 118.886 91.2861 118.699C91.5749 118.513 91.9005 118.42 92.2628 118.42C92.3311 118.42 92.4164 118.421 92.5188 118.424C92.6212 118.426 92.6986 118.43 92.7511 118.435V119.381C92.7196 119.373 92.6474 119.361 92.5345 119.345C92.4243 119.327 92.3074 119.318 92.184 119.318C91.89 119.318 91.6274 119.379 91.3964 119.503C91.168 119.623 90.9868 119.791 90.8529 120.007C90.7216 120.219 90.656 120.462 90.656 120.735V124.563H89.7266ZM96.1262 124.689C95.5801 124.689 95.1009 124.559 94.6887 124.299C94.2792 124.039 93.9589 123.676 93.7278 123.208C93.4994 122.741 93.3852 122.195 93.3852 121.57C93.3852 120.94 93.4994 120.39 93.7278 119.92C93.9589 119.45 94.2792 119.085 94.6887 118.825C95.1009 118.565 95.5801 118.435 96.1262 118.435C96.6723 118.435 97.1501 118.565 97.5597 118.825C97.9719 119.085 98.2922 119.45 98.5206 119.92C98.7517 120.39 98.8672 120.94 98.8672 121.57C98.8672 122.195 98.7517 122.741 98.5206 123.208C98.2922 123.676 97.9719 124.039 97.5597 124.299C97.1501 124.559 96.6723 124.689 96.1262 124.689ZM96.1262 123.854C96.541 123.854 96.8823 123.748 97.1501 123.535C97.4179 123.323 97.6161 123.043 97.7448 122.697C97.8734 122.35 97.9378 121.975 97.9378 121.57C97.9378 121.166 97.8734 120.789 97.7448 120.44C97.6161 120.091 97.4179 119.808 97.1501 119.593C96.8823 119.378 96.541 119.27 96.1262 119.27C95.7114 119.27 95.37 119.378 95.1022 119.593C94.8344 119.808 94.6362 120.091 94.5076 120.44C94.3789 120.789 94.3146 121.166 94.3146 121.57C94.3146 121.975 94.3789 122.35 94.5076 122.697C94.6362 123.043 94.8344 123.323 95.1022 123.535C95.37 123.748 95.7114 123.854 96.1262 123.854ZM100.113 124.563V123.854L103.547 119.444V119.381H100.223V118.514H104.744V119.255L101.404 123.634V123.697H104.854V124.563H100.113ZM108.649 124.689C108.066 124.689 107.563 124.561 107.14 124.303C106.72 124.043 106.396 123.681 106.168 123.216C105.942 122.749 105.829 122.206 105.829 121.586C105.829 120.966 105.942 120.42 106.168 119.948C106.396 119.472 106.714 119.102 107.121 118.837C107.53 118.569 108.008 118.435 108.554 118.435C108.869 118.435 109.18 118.488 109.488 118.593C109.795 118.698 110.074 118.869 110.326 119.105C110.578 119.339 110.779 119.648 110.929 120.034C111.079 120.42 111.153 120.895 111.153 121.46V121.854H106.491V121.05H110.208C110.208 120.709 110.14 120.404 110.003 120.137C109.87 119.869 109.678 119.658 109.428 119.503C109.182 119.348 108.89 119.27 108.554 119.27C108.184 119.27 107.864 119.362 107.593 119.546C107.325 119.727 107.119 119.963 106.975 120.255C106.831 120.546 106.758 120.859 106.758 121.192V121.728C106.758 122.185 106.837 122.572 106.995 122.889C107.155 123.205 107.377 123.445 107.66 123.61C107.944 123.773 108.273 123.854 108.649 123.854C108.893 123.854 109.113 123.82 109.31 123.752C109.51 123.681 109.682 123.576 109.826 123.437C109.971 123.295 110.082 123.119 110.161 122.909L111.059 123.161C110.964 123.466 110.806 123.734 110.582 123.965C110.359 124.193 110.084 124.372 109.755 124.5C109.427 124.626 109.058 124.689 108.649 124.689ZM113.497 120.924V124.563H112.567V118.514H113.465V119.459H113.544C113.686 119.152 113.901 118.905 114.19 118.719C114.479 118.53 114.851 118.435 115.308 118.435C115.718 118.435 116.076 118.519 116.383 118.687C116.691 118.853 116.929 119.105 117.1 119.444C117.271 119.78 117.356 120.205 117.356 120.72V124.563H116.427V120.783C116.427 120.307 116.303 119.937 116.056 119.672C115.81 119.404 115.471 119.27 115.04 119.27C114.744 119.27 114.479 119.335 114.245 119.463C114.014 119.592 113.831 119.78 113.697 120.026C113.564 120.273 113.497 120.573 113.497 120.924Z" fill="#00A0B0"/>
<path d="M100.02 80.3459L100.336 82.3442L101.265 80.543L100.932 82.5355L102.384 81.1002L101.443 82.8958L103.273 81.9727L101.81 83.3967L103.841 83.0703L102.005 83.9821L104.042 84.2917L102.005 84.6013L103.841 85.5075L101.81 85.1867L103.273 86.6107L101.443 85.6876L102.384 87.4832L100.932 86.0479L101.265 88.0404L100.336 86.2392L100.02 88.2318L99.7045 86.2392L98.7809 88.0404L99.1079 86.0479L97.6621 87.4832L98.603 85.6876L96.7728 86.6107L98.2301 85.1867L96.1991 85.5075L98.035 84.6013L96.004 84.2917L98.035 83.9821L96.1991 83.0703L98.2301 83.3967L96.7728 81.9727L98.603 82.8958L97.6621 81.1002L99.1079 82.5355L98.7809 80.543L99.7045 82.3442L100.02 80.3459Z" fill="#FBFFEC"/>
<path d="M100.02 134.292L100.336 136.29L101.265 134.483L100.932 136.476L102.384 135.046L101.443 136.842L103.273 135.919L101.81 137.343L103.841 137.016L102.005 137.928L104.042 138.232L102.005 138.542L103.841 139.454L101.81 139.133L103.273 140.551L101.443 139.628L102.384 141.424L100.932 139.994L101.265 141.986L100.336 140.18L100.02 142.178L99.7045 140.18L98.7809 141.986L99.1079 139.994L97.6621 141.424L98.603 139.628L96.7728 140.551L98.2301 139.133L96.1991 139.454L98.035 138.542L96.004 138.232L98.035 137.928L96.1991 137.016L98.2301 137.343L96.7728 135.919L98.603 136.842L97.6621 135.046L99.1079 136.476L98.7809 134.483L99.7045 136.29L100.02 134.292Z" fill="#FBFFEC"/>
<defs>
<radialGradient id="paint0_radial_2006_76188" cx="0" cy="0" r="1" gradientTransform="matrix(-25.7734 4.90241 -10.2568 -53.1525 127.635 72.2169)" gradientUnits="userSpaceOnUse">
<stop offset="0.04" stop-color="white"/>
<stop offset="1" stop-color="white" stop-opacity="0"/>
</radialGradient>
</defs>
</svg>
