<svg width="200" height="200" viewBox="0 0 200 200" fill="none" xmlns="http://www.w3.org/2000/svg">
<path d="M164.807 70.7478C161.586 66.039 158.566 61.305 154.615 57.1472C150.765 53.0895 146.21 49.7332 141.277 47.0782C136.395 44.4482 130.406 41.7682 124.743 41.8433C126.002 39.0631 128.569 33.7781 122.881 35.2559C117.647 36.6084 112.689 39.3887 107.882 41.8183C105.215 43.1959 102.522 44.5484 99.8543 45.926C98.3444 46.7025 96.8344 47.504 95.2489 48.1302C94.7708 48.3306 94.2926 48.5309 93.8145 48.7313L93.0344 49.0068C92.2542 49.082 91.5999 48.9567 91.0714 48.6311C90.9959 47.1533 90.4926 45.7757 89.2091 44.7237C85.5349 41.693 80.7534 39.2635 76.0725 38.3618C71.4672 37.4851 66.7108 37.4851 62.03 37.0342C61.9041 37.0593 61.7783 37.1094 61.6525 37.1595C61.6273 37.1845 61.6273 37.2096 61.6021 37.2346C61.6021 37.2346 61.6021 37.2346 61.6273 37.2346C61.3002 38.0862 60.9982 38.9378 60.7969 39.8646C60.067 43.1207 59.7902 46.3769 59.6392 49.7081C59.312 56.5711 57.6008 63.3589 53.5239 68.9945C49.7239 74.2294 44.2628 78.1619 40.0853 83.0711C38.1224 85.3504 36.6124 88.0555 35.3541 90.7606C34.725 92.1132 33.4415 94.668 33.8442 96.1708C33.9197 96.4213 34.1461 96.4463 34.3475 96.3211C36.5872 94.8183 39.0535 94.8684 41.4694 95.6448C44.5648 96.2961 47.1569 98.1746 49.7742 100.028C51.259 101.105 52.6934 102.207 54.1027 103.384C52.5424 104.612 51.259 106.49 50.1265 108.068C49.1954 109.371 47.6603 111.124 47.2073 112.802C45.5463 114.906 51.863 116.584 53.3729 116.91C56.1915 117.511 59.01 118.212 61.9041 117.837C64.5717 117.486 67.189 117.185 69.8314 116.96C70.234 116.96 70.6367 116.985 71.0645 117.01C74.9401 117.311 78.7653 117.862 82.6408 118.137C88.6806 118.563 95.3245 119.039 100.559 115.482C103.05 113.804 104.736 111.024 106.397 108.594C108.461 105.589 110.776 102.608 113.922 100.729C115.155 99.7025 116.464 98.8258 117.949 98.0995C118.477 97.849 119.484 97.1727 120.339 96.9473C121.119 96.5716 121.9 96.1959 122.705 95.8201C121.547 98.6755 118.578 101.756 117.823 104.962C117.672 105.513 117.496 106.365 117.546 106.991L117.521 107.016C117.772 108.219 118.326 109.321 119.484 109.621C120.516 109.897 121.472 110.222 122.428 110.598C126.077 111.324 129.877 111.55 133.526 112.627C135.791 113.303 137.955 113.904 140.246 113.128C142.158 112.477 143.92 110.097 145.077 108.594C146.009 107.417 146.713 106.09 147.342 104.687C147.82 103.359 148.248 102.057 148.827 100.754C148.852 100.704 148.903 100.654 148.928 100.629C149.733 98.4501 150.488 96.246 151.595 94.2672C154.791 88.4813 159.472 84.624 164.656 80.6916C166.066 79.6396 167.198 78.5375 167.551 76.7842C168.004 74.8305 165.864 72.3008 164.807 70.7478Z" fill="#F4A399"/>
<path d="M53.197 101.783C50.5294 99.303 47.4088 97.0738 44.1121 95.4958C41.7968 94.3938 38.4749 93.2416 35.9583 94.4939C35.304 94.8196 34.3226 95.8966 35.002 94.3186C35.2537 93.6924 35.3795 92.941 35.606 92.2898C36.1848 90.4613 37.1915 88.708 38.1729 87.0549C42.0988 80.4925 48.6671 75.9339 53.5996 70.1981C57.5507 65.5894 59.4129 59.4278 60.2183 53.5417C60.6712 50.1352 60.5454 46.6787 60.9481 43.2723C61.1494 41.4689 61.4766 39.6905 61.854 37.9122C61.9044 37.7118 61.9547 37.5114 62.005 37.311C65.9309 37.9122 69.882 38.2628 73.8078 38.889C78.7907 39.6905 83.1192 41.9448 87.2716 44.725C87.9007 45.1508 88.4292 45.6267 89.008 46.1026C90.2663 47.1546 90.0902 48.4821 90.0147 49.9098C89.8385 52.7903 88.6054 55.4452 86.7683 57.6244C84.0755 60.8555 81.0556 63.8862 78.841 67.4679C78.1615 68.57 77.5072 69.6721 76.9284 70.7742C76.6768 71.1248 76.5006 71.3753 76.4503 71.4755C75.5191 73.0034 74.7641 74.6315 74.0343 76.2595C72.1972 80.2921 70.5363 84.4249 69.1773 88.6579C67.8183 92.8158 66.7614 97.0738 65.7296 101.307C64.9998 104.287 63.7415 107.293 62.9613 110.299C62.5587 109.522 62.005 108.796 61.5269 108.345C59.5136 106.517 57.0725 105.064 54.9334 103.386C54.7069 103.185 54.4553 103.01 54.2288 102.835C53.8764 102.484 53.5493 102.133 53.197 101.783Z" fill="#EF5853"/>
<path d="M51.209 108.093C52.2911 106.591 53.4991 105.263 54.4302 103.685C54.7322 103.936 55.0342 104.211 55.3613 104.462C56.4686 105.413 57.5759 106.34 58.6077 107.342C59.3375 107.968 60.0674 108.594 60.8223 109.195C61.829 110.022 63.8422 112.652 60.9985 112.677C59.3879 112.702 57.7269 112.251 56.1415 111.976C53.8766 111.575 50.4037 110.798 48.2646 112.001C48.2394 112.001 48.2394 112.026 48.2142 112.026C49.1202 110.673 50.303 109.371 51.209 108.093Z" fill="#EF5853"/>
<path d="M122.403 95.369C120.012 96.5212 117.697 97.7485 115.432 99.101C115.281 99.1762 115.13 99.2263 114.979 99.3014C108.386 102.507 106.171 109.671 100.962 114.305C95.4 119.264 85.1072 117.411 78.4131 116.784C76.2488 116.584 74.0845 116.308 71.9202 116.108C71.8951 116.033 71.8196 115.983 71.6937 115.983C71.2156 115.958 70.7375 115.958 70.2593 115.983C69.7057 115.958 69.152 115.908 68.5984 115.883C68.1202 115.858 67.6169 115.883 67.1387 115.908C65.6791 116.359 64.1188 116.734 62.6592 116.784C59.6393 117.11 56.9214 116.709 53.8763 116.108C52.6683 115.883 51.4855 115.557 50.3027 115.181C49.8246 115.106 49.4471 115.006 49.1703 114.856C48.214 114.53 47.2577 113.428 48.4656 112.652C49.2206 112.176 50.1517 112.151 51.0577 112.326C52.014 112.326 53.0206 112.476 53.8511 112.551C56.3929 112.852 58.834 113.603 61.4009 113.603C62.936 113.603 63.4645 112.927 63.4394 112.025C65.8553 104.586 67.4659 97.0472 69.5546 89.5079C70.6619 85.5505 72.2222 81.7433 73.8328 77.9611C74.0845 77.36 74.3613 76.7839 74.6382 76.2078C75.4938 74.0037 76.7018 71.9748 78.0607 70.0211C79.3945 67.6417 81.0303 65.4375 82.7164 63.4838C85.4343 60.378 88.4542 57.4474 90.0397 53.5651C90.543 52.3127 90.9708 50.9101 91.0715 49.5826C91.5245 49.9082 92.1536 49.9833 92.9589 49.7078C96.306 48.5807 99.4014 46.8775 102.547 45.2995C106.398 43.3458 110.223 41.317 114.123 39.5136C115.885 38.7121 117.596 37.8605 119.383 37.1341C121.245 36.3827 126.757 34.3288 125.599 38.3614C124.869 40.9163 123.208 43.3458 122.302 45.8505C121.069 49.1818 120.792 52.6133 121.673 56.0698C123.41 62.8576 129.475 68.343 133.652 73.6781C136.622 77.4853 141.277 84.3231 141.101 89.9337C139.667 89.4328 137.1 90.0089 136.093 90.2093C131.312 91.2362 126.782 93.24 122.403 95.369Z" fill="#EF5853"/>
<path d="M120.163 102.007C120.49 101.305 120.868 100.604 121.27 99.9276C121.547 99.4768 121.849 99.051 122.151 98.6252C122.604 97.8988 123.611 96.4711 123.435 95.5694C125.121 94.7929 126.832 94.0666 128.543 93.3903C131.186 92.3634 133.904 91.5619 136.697 90.9858C137.452 90.8355 138.207 90.7103 138.962 90.6351C140.472 90.4598 140.9 91.086 140.824 91.8875C140.598 92.7641 140.195 93.5907 139.642 94.3421C139.314 95.1687 138.685 95.9451 138.056 96.5463C137.049 97.5231 135.942 98.1994 134.709 98.6252C131.488 100.504 127.738 101.706 124.416 103.184C122.68 103.96 120.339 104.762 118.653 106.039C118.829 104.611 119.433 103.284 120.163 102.007Z" fill="#EF5853"/>
<path d="M166.066 78.538C165.034 79.9908 162.945 81.0428 161.486 82.0697C154.515 87.0291 150.237 94.0673 147.343 101.907C147.317 101.907 147.292 101.907 147.267 101.907C147.141 102.258 147.015 102.583 146.89 102.909C146.915 102.909 146.94 102.909 146.965 102.909C146.084 105.314 145.053 107.468 143.291 109.396C142.586 110.173 141.907 110.874 141.177 111.4C140.749 111.876 140.271 112.277 139.667 112.452C137.553 113.128 135.263 112.126 133.225 111.625C130.532 110.949 127.814 110.523 125.046 110.223C123.838 110.098 122.554 109.972 121.472 109.421C120.793 109.321 120.138 109.146 119.534 108.87C119.283 108.745 118.981 108.57 118.754 108.319C118.024 107.718 118.301 106.791 119.232 106.34C119.283 106.315 119.358 106.315 119.408 106.315C120.163 105.764 121.095 105.464 122.026 105.238C126.153 103.285 130.406 101.632 134.508 99.6529C136.723 98.5759 138.837 96.8476 140.372 94.7687C140.85 93.7918 141.278 92.7649 141.58 91.7129C141.68 90.9865 141.856 90.2852 141.756 89.5588C141.756 89.4586 141.781 89.4086 141.831 89.3585C141.882 87.505 141.529 85.6014 141.001 83.8981C138.711 76.6845 132.822 70.8736 128.217 65.0877C126.027 62.3575 124.064 59.4771 122.856 56.1959C121.12 51.5621 122.579 46.9033 124.442 42.5702C124.442 42.5952 124.467 42.6203 124.492 42.6453C124.567 42.7956 124.769 42.5451 124.744 42.4449C124.718 42.2696 131.111 43.8225 131.689 44.0229C134.483 44.9747 137.226 46.202 139.868 47.5045C144.121 49.6335 148.022 52.4388 151.52 55.6198C155.421 59.1514 158.642 63.3344 161.536 67.6926C162.845 69.6713 164.179 71.6501 165.437 73.6789C166.318 75.1567 167.249 76.91 166.066 78.538Z" fill="#EF5853"/>
<g opacity="0.6">
<path d="M66.434 90.3099C65.5532 87.0036 63.9426 83.9228 61.8035 81.2428C58.9598 77.7111 55.3611 74.7054 51.2842 72.7017C50.1266 73.9039 48.9186 75.0561 47.6855 76.2083C49.7994 77.135 51.7372 78.3874 53.524 79.8902C55.9651 81.9691 57.8525 84.3987 59.8154 86.9034C61.3506 88.8571 62.8102 91.0362 63.5652 93.4157C64.1943 95.4947 64.3201 98.0244 62.5082 99.5774C60.9982 100.88 59.0353 100.83 57.2233 100.153C52.4922 98.4252 48.8934 94.6431 44.6152 92.0882C42.3755 90.7607 39.8589 89.4583 37.2668 88.6067C36.6125 89.7839 36.0085 90.9862 35.6058 92.2636C35.4045 92.9148 35.2787 93.6662 35.0019 94.2924C34.3476 95.8704 35.3038 94.7934 35.9582 94.4677C38.4747 93.2154 41.7967 94.3425 44.1119 95.4696C47.4086 97.0476 50.504 99.2768 53.1968 101.756C53.5491 102.082 53.9014 102.433 54.2034 102.808C54.4299 102.984 54.6816 103.184 54.9081 103.36C57.0472 105.038 59.4883 106.49 61.5015 108.319C61.9797 108.745 62.5334 109.496 62.936 110.273C63.691 107.267 64.9745 104.236 65.7043 101.281C66.1572 99.4521 66.6102 97.6487 67.0632 95.8203C67.0632 93.9918 66.9374 92.1383 66.434 90.3099Z" fill="#F38483"/>
<path d="M133.275 87.7303C130.834 88.6821 128.392 89.8593 125.775 90.2851C123.837 90.6107 120.868 89.2081 123.032 87.2043C125.524 84.9 129.248 83.6727 132.369 82.4453C134.181 81.744 135.993 81.0427 137.804 80.3414C137.905 80.3163 138.006 80.2662 138.081 80.2412C137.553 79.2894 136.974 78.3376 136.395 77.4609C134.608 76.7095 132.117 77.1854 130.381 77.511C127.99 77.9619 125.599 78.588 123.334 79.5148C118.402 81.5186 115.432 85.977 113.041 90.4855C110.474 95.2695 108.209 100.554 104.032 104.211C99.7788 107.918 94.4185 108.92 88.9323 109.171C85.7362 109.321 82.5402 109.221 79.3441 109.146C76.7017 109.071 73.6566 109.446 71.1149 108.545C67.038 107.092 66.887 102.934 66.9877 99.227C65.9055 103.51 64.7982 107.768 63.4141 112.001C63.4141 112.903 62.9108 113.579 61.3756 113.579C58.8087 113.579 56.3676 112.828 53.8259 112.527C52.9954 112.427 51.9888 112.302 51.0325 112.302C50.1265 112.151 49.1953 112.151 48.4404 112.627C47.2324 113.404 48.1887 114.506 49.145 114.831C49.4219 114.982 49.7993 115.082 50.2775 115.157C51.4603 115.533 52.6431 115.858 53.851 116.084C56.9213 116.66 59.6392 117.061 62.6339 116.76C64.0936 116.71 65.679 116.359 67.1135 115.883C67.5916 115.858 68.0949 115.833 68.5731 115.858C69.1267 115.883 69.6804 115.908 70.2341 115.959C70.7122 115.959 71.1904 115.959 71.6685 115.959C71.7943 115.959 71.8698 116.009 71.895 116.084C74.0593 116.284 76.2235 116.56 78.3878 116.76C85.0819 117.386 95.3748 119.24 100.936 114.28C106.146 109.647 108.335 102.483 114.954 99.2771C115.105 99.2019 115.256 99.1518 115.407 99.0767C117.672 97.7241 120.012 96.4969 122.378 95.3447C126.782 93.2157 131.287 91.2369 136.093 90.21C137.1 89.9846 139.667 89.4335 141.101 89.9344C141.126 88.8073 140.975 87.6552 140.699 86.4779C138.157 86.4779 135.665 86.7785 133.275 87.7303Z" fill="#F38483"/>
<path d="M136.295 105.99C134.81 105.213 133.526 103.861 135.288 102.533C137.125 101.156 139.616 100.404 141.907 100.705C143.769 100.93 145.455 101.581 147.141 102.283C147.191 102.182 147.217 102.057 147.267 101.957C147.292 101.957 147.317 101.957 147.342 101.957C147.569 101.356 147.795 100.73 148.047 100.129C145.002 99.0766 142.133 97.699 139.944 95.3696C138.459 97.1981 136.546 98.726 134.533 99.6777C130.431 101.682 126.178 103.31 122.051 105.263C121.094 105.489 120.188 105.789 119.433 106.34C119.383 106.34 119.333 106.34 119.257 106.365C118.326 106.816 118.049 107.743 118.779 108.344C119.006 108.57 119.308 108.77 119.559 108.895C120.163 109.196 120.818 109.371 121.497 109.446C122.579 109.997 123.863 110.122 125.071 110.248C127.814 110.548 130.557 110.999 133.249 111.65C135.288 112.151 137.578 113.153 139.692 112.477C140.296 112.277 140.799 111.901 141.202 111.425C141.932 110.899 142.611 110.198 143.316 109.421C143.517 109.196 143.719 108.97 143.895 108.72C141.328 107.943 138.66 107.217 136.295 105.99Z" fill="#F38483"/>
</g>
<path d="M71.1654 51.7868C74.0343 52.438 78.0608 53.4148 79.0675 56.6209C79.7218 58.7248 79.0674 60.8038 78.388 62.8076C77.7085 64.8113 76.9284 66.9904 77.935 68.9441C78.2118 68.4682 78.5138 67.9923 78.8158 67.4914C81.0556 63.9096 84.0503 60.8789 86.743 57.6478C88.5802 55.4687 89.8133 52.7886 89.9895 49.9333C90.0901 48.4805 90.2411 47.153 88.9828 46.1261C88.404 45.6502 87.8755 45.1743 87.2464 44.7485C83.094 41.9682 78.7655 39.714 73.7826 38.9125C69.8567 38.2863 65.9057 37.9356 61.9798 37.3345C61.9295 37.5349 61.8791 37.7352 61.8288 37.9356C61.4513 39.714 61.1493 41.4923 60.9228 43.2957C60.6209 45.7504 60.6208 48.23 60.4698 50.7097C64.0686 50.6095 67.6925 50.9852 71.1654 51.7868Z" fill="#FDE4CB"/>
<path d="M63.3639 38.5117C66.8368 39.0127 70.36 39.3884 73.7071 40.5155C76.9283 41.5925 79.6462 43.3458 82.2635 45.4999C83.547 46.5519 85.1073 47.7792 85.8874 49.282C86.6424 50.7097 86.592 52.3879 87.3973 53.8156C87.7748 54.4668 88.1775 54.7674 88.6053 54.8425C89.3855 53.3146 89.8888 51.6615 89.9894 49.9333C90.0901 48.4805 90.2411 47.153 88.9828 46.1261C88.404 45.6502 87.8755 45.1743 87.2464 44.7485C83.094 41.9682 78.7655 39.714 73.7826 38.9125C69.8567 38.2863 65.9057 37.9356 61.9798 37.3345C61.9295 37.5349 61.8791 37.7352 61.8288 37.9356C61.8036 38.0608 61.7785 38.1861 61.7533 38.2863C62.2818 38.3364 62.8354 38.4366 63.3639 38.5117Z" fill="#FDE4CB"/>
<path d="M89.1087 59.5774C91.424 59.327 93.6889 59.9531 96.0041 60.0283C98.3446 60.1034 100.484 59.6025 102.547 58.4753C108.939 54.9186 113.922 46.4276 121.975 46.8534C122.076 46.5278 122.177 46.1771 122.302 45.8515C123.234 43.3468 124.869 40.9172 125.599 38.3624C126.757 34.3298 121.246 36.3837 119.383 37.1351C117.597 37.8615 115.86 38.7131 114.124 39.5146C110.198 41.318 106.398 43.3468 102.547 45.3005C99.4015 46.8785 96.3313 48.6067 92.9591 49.7088C92.1538 49.9843 91.5246 49.8841 91.0716 49.5836C90.971 50.9361 90.5683 52.3137 90.0398 53.5661C88.6054 57.0727 85.9881 59.8028 83.4967 62.6081C85.0067 61.0552 86.7683 59.8279 89.1087 59.5774Z" fill="#FDE4CB"/>
<path d="M90.7948 53.8166C91.6001 53.1403 92.3551 52.3388 93.2862 51.8128C94.6703 51.0363 96.3564 50.7107 97.8664 50.2097C99.7287 49.5836 101.616 48.9574 103.428 48.1559C106.347 46.8785 108.939 45.2003 111.607 43.4971C115.432 41.0425 120.692 37.5859 125.524 38.688C125.549 38.5878 125.599 38.4876 125.624 38.3624C126.782 34.3298 121.271 36.3837 119.408 37.1351C117.622 37.8615 115.885 38.7131 114.149 39.5146C110.223 41.318 106.423 43.3468 102.572 45.3005C99.4267 46.8785 96.3564 48.6067 92.9842 49.7088C92.1789 49.9843 91.5497 49.8841 91.0968 49.5836C90.9961 50.9361 90.5934 52.3137 90.065 53.5661C89.914 53.9418 89.7378 54.2925 89.5616 54.6431C89.9643 54.4678 90.367 54.1672 90.7948 53.8166Z" fill="#FDE4CB"/>
<path opacity="0.3" d="M79.3695 67.8677C80.4013 66.5652 81.3828 65.1125 82.4398 63.8101C81.3828 65.0624 80.3258 66.44 79.3695 67.8677Z" fill="#F38483"/>
<path d="M165.412 73.7048C164.153 71.701 162.845 69.6972 161.511 67.7185C158.617 63.3602 155.396 59.1774 151.495 55.6457C147.972 52.4647 144.096 49.6594 139.843 47.5304C137.201 46.2029 134.458 44.9755 131.664 44.0488C131.085 43.8484 124.693 42.2955 124.718 42.4708C124.744 42.571 124.517 42.7964 124.467 42.6712C124.442 42.6461 124.442 42.6211 124.416 42.596C123.812 44.0237 123.259 45.4765 122.831 46.9543C122.906 47.0044 122.982 47.0795 122.957 47.1797C122.957 48.0564 122.881 48.933 122.806 49.8347C122.479 53.1409 122.152 56.3971 124.668 59.002C127.109 61.5067 130.406 62.158 133.753 62.4335C136.672 62.684 139.818 62.709 142.586 63.8111C145.279 64.8881 147.846 66.6164 150.06 68.4699C153.961 71.726 156.78 75.934 158.189 80.8182C158.491 81.8952 158.743 82.9723 158.944 84.0743C159.749 83.373 160.58 82.6967 161.486 82.0705C162.945 81.0186 165.034 79.9916 166.066 78.5389C167.249 76.9108 166.318 75.1575 165.412 73.7048Z" fill="#FDE4CB"/>
<path d="M134.282 47.6043C139.164 50.0339 144.172 52.2131 148.475 55.6445C152.376 58.7504 156.025 62.1568 159.85 65.3378C157.384 61.8562 154.666 58.55 151.47 55.6696C147.947 52.4886 144.071 49.6833 139.818 47.5543C137.176 46.2268 134.433 44.9994 131.639 44.0727C131.06 43.8723 124.668 42.3194 124.693 42.4947C124.718 42.5949 124.492 42.8203 124.442 42.6951C124.416 42.67 124.416 42.645 124.391 42.62C124.14 43.1961 123.913 43.7721 123.687 44.3482C127.386 44.4233 131.035 46.0013 134.282 47.6043Z" fill="#FDE4CB"/>
<path opacity="0.3" d="M69.3785 59.5511C69.1017 59.3758 68.7997 59.2005 68.4473 59.0752C68.4473 59.0752 68.4473 59.0502 68.4222 59.0502C68.1957 58.7747 67.6672 58.6494 67.3401 58.5993C66.4089 58.449 65.4526 59.2756 65.3268 60.1773C65.1003 61.9557 66.9374 63.0077 68.4725 63.1579C69.5043 63.2581 70.5613 62.3815 70.4355 61.2794C70.3851 60.6532 69.907 59.8767 69.3785 59.5511Z" fill="#F38483"/>
<path opacity="0.3" d="M71.5174 69.0947C71.3916 68.8442 71.2406 68.5687 71.0141 68.4434C70.7121 68.2681 70.3346 68.193 69.9823 68.1679C69.0764 68.1429 68.3717 68.6188 68.271 69.5455C68.1955 70.322 68.875 71.0484 69.4538 71.4742C70.1081 71.9501 71.14 72.7766 71.8949 72.0503C72.9267 71.0734 72.4234 69.8962 71.5174 69.0947Z" fill="#F38483"/>
<path opacity="0.3" d="M105.315 89.0576C104.46 88.3562 103.076 89.7339 102.597 90.335C102.522 90.4352 102.446 90.5354 102.371 90.6356C102.774 89.9843 102.396 90.5604 102.245 90.7107C101.993 90.9862 101.767 91.3369 101.566 91.6625C101.465 91.8128 101.389 91.9881 101.314 92.1634C100.735 92.8898 100.282 93.7665 100.458 94.593C100.534 94.9187 100.76 94.9938 101.062 94.8936C102.446 94.5429 103.554 93.4158 104.51 92.3889C105.24 91.6375 106.448 89.9593 105.315 89.0576Z" fill="#F38483"/>
<path opacity="0.3" d="M125.322 73.3031L125.297 73.278C125.322 73.2029 125.297 73.1027 125.222 73.0777C125.121 73.0276 124.995 73.0025 124.895 73.0025C124.718 72.9775 124.517 73.0025 124.341 73.0526C124.165 73.1027 124.014 73.2029 123.863 73.278H123.838C123.636 73.3281 123.485 73.4784 123.334 73.5786C122.957 73.8541 122.428 74.881 123.133 75.1065C123.309 75.1566 123.485 75.1315 123.636 75.0564C123.712 75.0814 123.812 75.0814 123.913 75.0814C124.316 75.0564 124.693 74.8059 124.945 74.5053C125.247 74.2298 125.524 73.6788 125.322 73.3031Z" fill="#F38483"/>
<path opacity="0.3" d="M86.9945 89.5595C86.4409 89.3842 85.8369 89.259 85.2329 89.2339C84.7296 89.0837 84.1004 89.1588 83.4713 89.3842C82.5905 89.6097 81.8103 90.0354 81.2567 90.7869C80.9798 91.1375 80.6527 91.7888 81.0554 92.1645C81.156 92.2396 81.2567 92.3148 81.3573 92.3649C81.4832 92.5652 81.6593 92.7155 81.911 92.8157C83.2699 93.3667 84.5282 93.1163 85.9124 92.7906C87.6236 92.44 89.3853 90.336 86.9945 89.5595Z" fill="#F38483"/>
<path opacity="0.6" d="M55.7387 85.4259C55.2102 85.2005 54.6314 85.0752 54.0526 85.0251C53.5493 84.8247 52.9453 84.95 52.3665 85.2005C51.536 85.4509 50.7559 86.002 50.2274 86.8786C49.9757 87.3044 49.6485 88.0809 50.0512 88.5568C50.1267 88.657 50.2274 88.7321 50.3532 88.8073C50.479 89.0327 50.6552 89.2331 50.8817 89.3583C52.1903 90.0346 53.3983 89.709 54.732 89.3333C56.3427 88.8824 58.0539 86.3526 55.7387 85.4259Z" fill="#F38483"/>
<path opacity="0.6" d="M105.995 60.1032C105.693 59.978 105.366 59.9029 105.039 59.8778C104.762 59.7776 104.409 59.8277 104.057 59.978C103.579 60.1283 103.151 60.4289 102.824 60.9298C102.673 61.1803 102.497 61.6311 102.723 61.8816C102.774 61.9317 102.824 61.9818 102.899 62.0319C102.975 62.1571 103.076 62.2823 103.201 62.3575C103.956 62.7332 104.636 62.5579 105.416 62.3324C106.347 62.082 107.329 60.6292 105.995 60.1032Z" fill="#F38483"/>
<path opacity="0.3" d="M99.1751 73.0031C99.0996 72.8277 98.9738 72.7276 98.848 72.6775C98.8228 72.5773 98.7221 72.5272 98.5963 72.5773C98.2943 72.6775 97.9923 72.7025 97.6903 72.8528C97.2625 73.0782 96.8095 73.6292 97.0108 74.1302C97.1367 74.4558 97.5393 74.5309 97.8413 74.5059C98.3698 74.4558 98.7725 74.1552 99.0745 73.7044C99.2255 73.504 99.301 73.2034 99.1751 73.0031Z" fill="#F38483"/>
<path opacity="0.3" d="M146.613 71.975C146.135 71.6995 145.656 71.5242 145.128 71.4991C145.002 71.449 144.851 71.3989 144.675 71.3739C143.895 71.2236 143.19 71.8748 142.913 72.5261C142.309 73.9287 143.568 74.605 144.75 74.9306C145.984 75.2813 147.544 75.2312 147.796 73.6281C147.921 72.9769 147.116 72.2756 146.613 71.975Z" fill="#F38483"/>
<path opacity="0.3" d="M149.28 91.6133C149.305 91.5131 149.33 91.4129 149.28 91.3378C149.003 90.8368 148.45 90.2357 147.795 89.8349C147.745 89.8099 147.695 89.7848 147.644 89.7598C146.94 89.359 146.134 89.2338 145.53 89.8099C144.851 90.4611 144.775 91.1624 145.128 91.989C145.253 92.2896 145.43 92.7905 145.681 93.0159C146.084 93.3916 146.537 93.6171 147.04 93.7924C147.921 94.0679 148.877 94.118 149.356 93.1412C149.632 92.6152 149.507 92.0892 149.28 91.6133Z" fill="#F38483"/>
<path opacity="0.3" d="M134.81 63.7343C134.835 63.4838 134.584 63.3335 134.357 63.4337C134.282 63.4588 134.206 63.5089 134.156 63.559C133.904 63.6341 133.678 63.8846 133.577 64.1601C133.501 64.3354 133.527 64.5859 133.728 64.661C133.929 64.7362 134.13 64.6861 134.307 64.5859C134.357 64.6109 134.407 64.661 134.458 64.7111C134.609 64.8614 134.911 64.5608 134.986 64.3855C135.037 64.0849 134.986 63.8846 134.81 63.7343Z" fill="#F38483"/>
<path opacity="0.3" d="M139.138 57.1479C137.931 56.3214 136.395 55.5699 134.911 55.6701C133.703 55.7453 132.897 57.0227 133.224 58.1248C133.375 58.6006 133.803 58.9513 134.357 59.2519C135.187 60.0033 136.37 60.4291 137.402 60.6545C138.736 60.9551 140.699 61.982 141.429 60.1786C142.007 58.776 140.12 57.7992 139.138 57.1479Z" fill="#F38483"/>
<path opacity="0.3" d="M109.518 48.3064C109.392 48.0559 109.191 47.9557 108.99 47.9307C108.964 47.8806 108.889 47.8806 108.788 47.9056C108.26 48.0309 107.681 48.106 107.253 48.4316C106.926 48.6821 106.674 49.0578 106.549 49.4335C106.196 50.3352 107.052 50.8111 107.832 50.6608C108.335 50.5606 108.839 50.2851 109.166 49.8844C109.443 49.5086 109.745 48.8324 109.518 48.3064Z" fill="#F38483"/>
<path opacity="0.3" d="M96.0039 56.7719C95.9787 56.5215 95.7523 56.4714 95.5509 56.3962C95.1735 56.296 94.7456 56.3461 94.3681 56.296C93.9906 56.2459 93.6635 56.5465 93.4622 56.8471C93.3112 57.0975 93.2105 57.5484 93.588 57.6736C93.7138 57.7237 93.8397 57.7237 93.9655 57.7488C94.0913 57.7988 94.2423 57.874 94.3681 57.8991C94.9721 58.0493 95.6013 57.9241 95.9033 57.323C95.9536 57.1727 96.0291 56.9723 96.0039 56.7719Z" fill="#F38483"/>
<path opacity="0.3" d="M81.7349 54.618C81.7349 54.4927 81.6342 54.3425 81.5336 54.2172C81.4832 54.092 81.4329 53.9918 81.3574 53.8666C81.2568 53.6411 81.1309 53.3907 81.0051 53.1653C80.6276 52.5391 79.6713 51.1615 78.7653 51.4871C76.5256 52.2886 78.9667 55.7451 80.5018 55.8954C80.8541 55.9205 81.2064 55.7201 81.4077 55.4195C81.6342 55.1941 81.7349 54.9686 81.7349 54.618Z" fill="#F38483"/>
<path opacity="0.6" d="M88.9829 46.1009C88.4041 45.625 87.8756 45.1492 87.2465 44.7233C83.0941 41.9431 78.7656 39.6889 73.7827 38.8874C71.392 38.5116 68.9509 38.2111 66.5601 37.9355C68.7244 38.6369 71.09 38.9875 73.1536 39.5887C76.3245 40.5154 80.2503 42.5192 80.5272 46.2513C80.7285 48.9564 79.3444 51.5362 77.9099 53.7404C75.9973 56.746 73.8079 59.5764 71.543 62.3316C66.6356 68.393 61.7786 74.3543 58.3309 81.3925C57.3494 83.4214 56.5692 85.4752 55.7136 87.5542C55.2606 88.6813 54.9335 89.8836 54.4302 90.9857C53.2474 93.4653 51.4857 94.2919 48.793 93.9412C47.3082 93.7408 45.8486 93.3151 44.3638 93.0896C43.0048 92.8893 41.5704 93.0145 40.2366 93.2649C39.2299 93.4403 38.1981 93.6907 37.2167 94.0665C39.5068 93.5906 42.1995 94.5424 44.1373 95.4691C47.434 97.0471 50.5294 99.2763 53.2222 101.756C53.5745 102.082 53.9268 102.432 54.2288 102.808C54.4553 102.983 54.707 103.184 54.9335 103.359C57.0726 105.037 59.5136 106.49 61.5269 108.318C62.0051 108.744 62.5587 109.496 62.9614 110.272C63.7164 107.266 64.9998 104.236 65.7296 101.28C66.7614 97.0471 67.8184 92.7891 69.1774 88.6312C70.5615 84.3982 72.1973 80.2905 74.0344 76.2328C74.7642 74.6047 75.5192 72.9767 76.4503 71.4488C76.5006 71.3737 76.6768 71.0981 76.9285 70.7475C77.5073 69.6454 78.1364 68.5433 78.8411 67.4412C81.0808 63.8595 84.0756 60.8287 86.7683 57.5976C88.6054 55.4185 89.8386 52.7385 90.0147 49.8831C90.0651 48.4554 90.2412 47.1279 88.9829 46.1009Z" fill="#F38483"/>
<path opacity="0.6" d="M67.6922 109.296C68.0949 105.714 68.7996 102.133 69.6049 98.6009C71.2407 91.5375 73.7069 84.6746 77.0791 78.2374C78.8407 74.8811 80.7785 71.65 83.0686 68.6443C85.3336 65.6637 87.7495 62.8083 89.7124 59.6273C90.7694 57.9241 91.6502 56.1708 92.3297 54.2672C92.8581 52.7894 93.3866 51.2365 94.2674 49.909C94.4939 49.5583 94.7456 49.2327 94.9972 48.9321C94.3178 49.2076 93.6383 49.4581 92.9588 49.7086C92.1535 49.9841 91.5243 49.8839 91.0714 49.5834C90.9707 50.9359 90.568 52.3135 90.0396 53.5659C88.4541 57.4482 85.4342 60.3787 82.7163 63.4846C81.0302 65.4383 79.3692 67.6424 78.0606 70.0219C76.7016 71.9756 75.4937 74.0044 74.6381 76.2086C74.3612 76.7847 74.0844 77.3608 73.8327 77.9619C72.2221 81.744 70.6367 85.5512 69.5545 89.5087C67.4658 97.0479 65.8552 104.587 63.4392 112.026C63.4392 112.928 62.9359 113.604 61.4008 113.604C58.8338 113.604 56.3928 112.853 53.851 112.552C53.0205 112.452 52.0139 112.327 51.0576 112.327C50.1516 112.176 49.2205 112.176 48.4655 112.652C47.2576 113.429 48.2138 114.531 49.1702 114.857C49.447 115.007 49.8245 115.107 50.3026 115.182C51.4854 115.558 52.6682 115.883 53.8762 116.109C56.9464 116.685 59.6643 117.086 62.6591 116.785C64.1187 116.735 65.7041 116.384 67.1386 115.909C67.5161 115.883 67.8684 115.883 68.2459 115.883C67.5916 113.779 67.4406 111.55 67.6922 109.296Z" fill="#F38483"/>
<path opacity="0.6" d="M133.652 73.6791C129.475 68.3189 123.41 62.8336 121.673 56.0708C120.792 52.6143 121.069 49.1828 122.302 45.8515C123.234 43.3468 124.869 40.9172 125.599 38.3624C126.757 34.3298 121.245 36.3837 119.383 37.1351C117.596 37.8615 115.86 38.7131 114.123 39.5146C110.55 41.1677 107.077 42.9961 103.579 44.7745C103.629 44.7495 103.705 44.7494 103.755 44.7244C105.945 44.1734 108.059 43.3969 110.122 42.5203C111.204 42.0694 113.847 40.4413 114.878 41.7939C115.583 42.7206 115.357 44.1483 115.231 45.2253C115.029 46.9286 114.753 48.6318 114.451 50.335C113.721 54.5179 113.419 58.6256 114.174 62.8336C114.853 66.6658 116.036 70.6233 117.949 74.0297C118.905 75.758 120.037 77.361 121.422 78.7636C122.428 79.7906 123.661 80.5169 124.769 81.4186C126.555 82.8714 127.713 84.7249 126.807 87.0543C125.045 91.5127 120.088 93.6918 116.716 96.7476C115.533 97.7996 114.425 98.9768 113.394 100.229C113.897 99.9035 114.425 99.6029 114.979 99.3274C115.13 99.2523 115.281 99.2022 115.432 99.1271C117.697 97.7745 120.037 96.5472 122.403 95.395C126.807 93.266 131.312 91.2873 136.118 90.2603C137.125 90.0349 139.692 89.4839 141.126 89.9848C141.277 84.3241 136.647 77.4862 133.652 73.6791Z" fill="#F38483"/>
<path opacity="0.6" d="M165.412 73.7038C164.153 71.7 162.845 69.6962 161.511 67.7175C158.969 63.9103 156.176 60.2033 152.879 56.9722C155.27 60.9296 157.937 64.7869 159.573 69.1451C160.404 71.3743 161.309 74.2798 159.875 76.459C158.768 78.1121 157.031 78.8384 155.245 79.5147C152.728 80.4665 150.815 81.7439 150.287 84.5492C149.632 88.156 148.324 91.6125 146.663 94.8687C144.977 98.2 143.115 101.581 141.001 104.662C139.591 106.741 137.779 108.62 135.439 109.647C133.828 110.348 132.067 110.774 130.28 110.974C131.261 111.149 132.243 111.35 133.199 111.6C135.238 112.101 137.528 113.103 139.642 112.427C140.246 112.226 140.749 111.851 141.152 111.375C141.881 110.849 142.561 110.148 143.266 109.371C145.027 107.442 146.059 105.288 146.94 102.884C146.915 102.884 146.889 102.884 146.864 102.884C146.99 102.558 147.141 102.208 147.242 101.882C147.267 101.882 147.292 101.882 147.317 101.882C150.211 94.0421 154.515 87.0038 161.46 82.0445C162.92 80.9925 165.009 79.9656 166.041 78.5128C167.249 76.9098 166.317 75.1565 165.412 73.7038Z" fill="#F38483"/>
<path opacity="0.6" d="M128.191 65.1135C130.506 68.019 133.149 70.9495 135.489 74.0304C135.263 72.3021 135.741 70.674 135.867 68.9458C136.018 66.7667 135.942 64.5625 135.59 62.3834C135.263 60.3545 134.785 58.3508 134.256 56.372C133.879 54.9944 133.35 53.6419 132.998 52.2392C132.469 50.01 132.142 47.1296 134.055 45.4264C134.181 45.3012 134.306 45.201 134.457 45.1008C133.526 44.7251 132.595 44.3744 131.639 44.0488C131.06 43.8484 124.668 42.2955 124.693 42.4708C124.718 42.571 124.492 42.7964 124.441 42.6712C124.416 42.6461 124.416 42.6211 124.391 42.596C122.554 46.9292 121.069 51.563 122.806 56.2218C124.039 59.5029 126.002 62.3834 128.191 65.1135Z" fill="#F38483"/>
<path opacity="0.9" d="M51.209 108.094C52.2911 106.591 53.4991 105.264 54.4302 103.686C54.7322 103.936 55.0342 104.212 55.3613 104.462C56.4686 105.414 57.5759 106.341 58.6077 107.342C59.3375 107.969 60.0674 108.595 60.8223 109.196C61.829 110.023 63.8422 112.652 60.9985 112.678C59.3879 112.703 57.7269 112.252 56.1415 111.976C53.8766 111.575 50.4037 110.799 48.2646 112.001C48.2394 112.001 48.2394 112.026 48.2142 112.026C49.1202 110.674 50.303 109.371 51.209 108.094Z" fill="#F38483"/>
<path opacity="0.9" d="M120.163 102.007C120.49 101.306 120.868 100.604 121.27 99.9281C121.547 99.4773 121.849 99.0515 122.151 98.6257C122.604 97.8993 123.611 96.4716 123.435 95.5699C125.121 94.7934 126.832 94.0671 128.543 93.3908C131.186 92.3639 133.904 91.5624 136.697 90.9863C137.452 90.836 138.207 90.7107 138.962 90.6356C140.472 90.4603 140.9 91.0864 140.824 91.888C140.598 92.7646 140.195 93.5912 139.642 94.3426C139.314 95.1692 138.685 95.9456 138.056 96.5467C137.049 97.5236 135.942 98.1999 134.709 98.6257C131.488 100.504 127.738 101.706 124.416 103.184C122.68 103.961 120.339 104.762 118.653 106.04C118.829 104.612 119.433 103.284 120.163 102.007Z" fill="#F38483"/>
<path opacity="0.3" d="M122.051 51.9621C122.126 50.9853 122.227 50.0084 122.328 49.0566C122.152 50.0084 122.051 50.9853 122.051 51.9621Z" fill="#F38483"/>
<path opacity="0.6" d="M119.735 69.3965C119.459 69.2963 119.157 69.2212 118.855 69.1962C118.603 69.096 118.276 69.1461 117.974 69.2964C117.521 69.4466 117.118 69.7222 116.841 70.173C116.715 70.3984 116.539 70.7992 116.741 71.0497C116.791 71.0998 116.841 71.1499 116.892 71.1749C116.942 71.3001 117.043 71.4003 117.168 71.4755C117.848 71.8261 118.502 71.6508 119.182 71.4504C120.063 71.1999 120.943 69.8724 119.735 69.3965Z" fill="#F38483"/>
<path opacity="0.6" d="M92.657 81.9942C92.3802 81.894 92.0782 81.8189 91.7762 81.7938C91.5246 81.6936 91.1974 81.7437 90.8954 81.894C90.4424 82.0443 90.0398 82.3198 89.763 82.7707C89.6371 82.9961 89.461 83.3969 89.6623 83.6473C89.7126 83.6974 89.7629 83.7475 89.8133 83.7726C89.8888 83.8978 89.9643 83.998 90.0901 84.0731C90.7696 84.4238 91.4239 84.2485 92.1034 84.0481C92.9842 83.7976 93.865 82.4701 92.657 81.9942Z" fill="#F38483"/>
<path opacity="0.6" d="M92.657 112.526C92.3802 112.426 92.0782 112.351 91.7762 112.326C91.5246 112.225 91.1974 112.275 90.8954 112.426C90.4424 112.576 90.0398 112.852 89.763 113.302C89.6371 113.528 89.461 113.929 89.6623 114.179C89.7126 114.229 89.7629 114.279 89.8133 114.304C89.8888 114.43 89.9643 114.53 90.0901 114.605C90.7696 114.956 91.4239 114.78 92.1034 114.58C92.9842 114.354 93.865 113.027 92.657 112.526Z" fill="#F38483"/>
<path opacity="0.6" d="M75.846 99.0761C75.6195 98.9759 75.393 98.9258 75.1414 98.9258C74.94 98.8507 74.6884 98.9008 74.4367 99.001C74.0844 99.1012 73.7824 99.3266 73.5559 99.7023C73.4552 99.8776 73.3042 100.203 73.4804 100.404C73.5055 100.454 73.5559 100.479 73.6062 100.504C73.6565 100.604 73.732 100.679 73.8327 100.729C74.3864 101.005 74.8645 100.88 75.4182 100.729C76.0977 100.504 76.8023 99.4518 75.846 99.0761Z" fill="#F38483"/>
<path opacity="0.3" d="M150.992 82.67C150.966 82.5948 150.941 82.4946 150.891 82.4195C150.916 82.3444 150.916 82.2692 150.891 82.1941C150.866 81.9687 150.765 81.8434 150.589 81.7683C150.388 81.4176 150.136 81.1421 149.784 81.067C149.431 81.0169 149.18 81.2924 149.003 81.5679C148.752 81.9436 148.752 82.3945 149.029 82.7702C149.129 82.8954 149.255 83.0457 149.406 83.1459C149.532 83.221 149.658 83.2962 149.809 83.3212C149.96 83.3463 150.086 83.3212 150.237 83.2461C150.237 83.2711 150.262 83.2711 150.262 83.2962C150.539 83.6969 151.092 82.9956 150.992 82.67Z" fill="#F38483"/>
<path d="M18.9213 114.203C21.2869 119.413 23.426 124.573 26.5969 129.357C29.6923 134.016 33.6181 138.099 37.997 141.555C42.3507 144.987 47.7866 148.643 53.3734 149.545C51.6621 152.075 48.2144 156.834 54.0529 156.333C59.4384 155.882 64.7987 154.004 69.9577 152.426C72.8266 151.549 75.6955 150.647 78.5644 149.745C80.2002 149.245 81.8108 148.719 83.4718 148.368C83.9751 148.243 84.4784 148.142 84.9817 148.017L85.787 147.867C86.5672 147.942 87.1963 148.168 87.6493 148.593C87.448 150.071 87.7248 151.524 88.8069 152.776C91.9024 156.383 96.1805 159.589 100.66 161.292C105.039 162.945 109.745 163.747 114.275 164.999C114.401 164.999 114.552 164.974 114.677 164.949C114.703 164.924 114.728 164.899 114.728 164.874C114.728 164.874 114.728 164.874 114.703 164.874C115.181 164.098 115.609 163.296 115.961 162.419C117.244 159.339 118.075 156.158 118.805 152.926C120.315 146.214 123.184 139.827 128.166 134.968C132.797 130.459 138.862 127.529 143.845 123.396C146.16 121.467 148.123 119.088 149.834 116.633C150.69 115.406 152.401 113.101 152.25 111.548C152.225 111.298 151.999 111.223 151.772 111.323C149.306 112.425 146.89 111.949 144.625 110.747C141.706 109.57 139.441 107.29 137.201 104.986C135.917 103.684 134.71 102.331 133.527 100.953C135.288 100.027 136.849 98.3735 138.258 97.021C139.416 95.8939 141.228 94.4411 141.957 92.8632C143.945 91.0848 138.031 88.3296 136.597 87.7535C133.929 86.6765 131.262 85.4993 128.368 85.374C125.675 85.2488 123.058 85.0985 120.39 84.8731C119.988 84.7979 119.585 84.7228 119.182 84.6226C115.432 83.6708 111.733 82.4685 107.983 81.5418C102.12 80.089 95.6521 78.486 89.8639 81.0909C87.1208 82.3183 84.9817 84.7729 82.9181 86.8769C80.3512 89.4818 77.5578 92.0116 74.1353 93.3391C72.7511 94.1406 71.3166 94.7918 69.706 95.2426C69.1272 95.418 68.0199 95.8939 67.1391 95.969C66.3086 96.2195 65.453 96.4449 64.6225 96.6703C66.2583 94.0404 69.7061 91.5356 71.0147 88.5049C71.2663 87.9789 71.5683 87.1774 71.6187 86.5512L71.6438 86.5262C71.5935 85.2989 71.2412 84.0966 70.159 83.6207C69.1776 83.1699 68.3219 82.694 67.4411 82.1429C63.9682 80.7904 60.2688 79.9388 56.8714 78.2606C54.7575 77.2086 52.7442 76.2318 50.3535 76.6075C48.3654 76.908 46.2011 78.9619 44.817 80.2393C43.7097 81.2412 42.7534 82.4435 41.8977 83.6959C41.2182 84.9232 40.5388 86.1505 39.7586 87.3026C39.7335 87.3527 39.6831 87.3778 39.6328 87.4028C38.4752 89.4317 37.3175 91.4605 35.9083 93.2138C31.7559 98.3736 26.4962 101.379 20.6829 104.335C19.1226 105.136 17.814 106.013 17.1597 107.691C16.4802 109.645 18.1411 112.5 18.9213 114.203Z" fill="#F4A399"/>
<path d="M134.231 102.756C136.421 105.661 139.114 108.391 142.083 110.521C144.172 111.998 147.242 113.702 149.935 112.9C150.639 112.7 151.772 111.798 150.841 113.251C150.463 113.827 150.212 114.553 149.91 115.154C149.004 116.857 147.72 118.41 146.462 119.863C141.454 125.649 134.206 129.005 128.368 133.84C123.687 137.697 120.793 143.433 118.981 149.118C117.924 152.4 117.471 155.806 116.489 159.112C115.961 160.84 115.357 162.569 114.677 164.247C114.602 164.447 114.526 164.623 114.426 164.798C110.651 163.546 106.826 162.519 103.076 161.216C98.2944 159.563 94.444 156.607 90.8201 153.176C90.2665 152.65 89.8387 152.099 89.3353 151.523C88.2784 150.271 88.681 148.993 89.0082 147.59C89.6877 144.785 91.3486 142.381 93.5381 140.527C96.7593 137.822 100.232 135.317 103.051 132.186C103.932 131.21 104.737 130.233 105.492 129.256C105.794 128.955 106.02 128.73 106.096 128.655C107.279 127.302 108.285 125.824 109.292 124.347C111.808 120.69 114.149 116.908 116.238 112.975C118.301 109.118 120.063 105.11 121.825 101.103C123.058 98.2975 124.819 95.5673 126.103 92.7119C126.354 93.5385 126.782 94.365 127.185 94.866C128.846 97.02 131.01 98.8485 132.822 100.877C133.023 101.103 133.225 101.328 133.426 101.554C133.678 101.954 133.929 102.355 134.231 102.756Z" fill="#EF5853"/>
<path d="M137.276 96.8694C135.968 98.1468 134.533 99.2739 133.325 100.677C133.073 100.376 132.797 100.075 132.545 99.7498C131.614 98.6227 130.683 97.5206 129.852 96.3434C129.248 95.617 128.619 94.8656 128.015 94.1392C127.159 93.1374 125.624 90.2068 128.443 90.6827C130.028 90.9332 131.589 91.6596 133.099 92.2106C135.263 92.9871 138.56 94.3396 140.85 93.5381C140.875 93.5381 140.875 93.5381 140.9 93.5131C139.768 94.6903 138.409 95.7673 137.276 96.8694Z" fill="#EF5853"/>
<path d="M64.9494 97.22C67.4912 96.4937 70.0077 95.6922 72.474 94.7404C72.625 94.6903 72.8011 94.6652 72.9521 94.6151C79.9986 92.5863 83.4212 85.8987 89.3351 82.2418C95.6769 78.3094 105.492 81.9161 111.984 83.6695C114.073 84.2455 116.162 84.8717 118.251 85.4478C118.276 85.523 118.326 85.5981 118.452 85.6232C118.93 85.7233 119.383 85.7985 119.861 85.8736C120.39 85.9989 120.943 86.1241 121.472 86.2493C121.95 86.3495 122.428 86.4247 122.906 86.4748C124.416 86.2744 126.027 86.1742 127.461 86.3996C130.481 86.6 133.099 87.4516 136.018 88.5537C137.175 88.9795 138.283 89.5055 139.365 90.0816C139.818 90.2319 140.17 90.4072 140.422 90.5825C141.303 91.0835 142.058 92.3358 140.749 92.8869C139.919 93.2375 138.987 93.0872 138.132 92.7867C137.201 92.6113 136.219 92.3108 135.414 92.0854C132.973 91.359 130.683 90.2068 128.166 89.756C126.656 89.5055 126.027 90.0816 125.876 90.9582C122.202 97.8713 119.308 105.035 115.961 112.098C114.199 115.805 111.984 119.287 109.745 122.743C109.392 123.294 109.015 123.795 108.637 124.321C107.404 126.35 105.869 128.128 104.183 129.832C102.472 131.936 100.458 133.839 98.4704 135.467C95.2743 138.072 91.7762 140.427 89.5365 143.983C88.8067 145.135 88.1775 146.438 87.8252 147.74C87.4225 147.34 86.8186 147.164 85.9881 147.289C82.49 147.815 79.1681 148.968 75.7959 149.995C71.6687 151.247 67.5666 152.6 63.3891 153.727C61.5268 154.228 59.6646 154.754 57.7771 155.154C55.8142 155.58 50.026 156.657 51.8883 152.9C53.0459 150.521 55.0844 148.392 56.4433 146.087C58.2301 143.006 59.0858 139.675 58.8089 136.143C58.2553 129.155 53.2473 122.718 50.0512 116.732C47.7863 112.474 44.3889 104.935 45.5465 99.4492C46.8551 100.176 49.4975 100.075 50.5293 100.025C55.4619 99.7498 60.2686 98.5726 64.9494 97.22Z" fill="#EF5853"/>
<path d="M68.2967 91.0589C67.8689 91.7101 67.3656 92.3113 66.8623 92.9124C66.5351 93.2881 66.1325 93.6638 65.755 94.0395C65.1762 94.6907 63.9431 95.9181 63.9431 96.8448C62.1563 97.3207 60.3443 97.7465 58.5324 98.1222C55.7641 98.6983 52.9204 98.9989 50.1018 99.0991C49.3468 99.1241 48.5667 99.1241 47.8117 99.074C46.3017 98.9738 45.9746 98.3226 46.2011 97.5211C46.5786 96.6945 47.1071 95.9682 47.8117 95.3169C48.2899 94.5405 49.0197 93.9143 49.7495 93.4133C50.9071 92.6118 52.1151 92.1359 53.3985 91.9355C56.8966 90.6331 60.7973 90.1071 64.3205 89.2054C66.1577 88.7295 68.5988 88.3538 70.4862 87.377C70.0835 88.7295 69.253 89.9067 68.2967 91.0589Z" fill="#EF5853"/>
<path d="M19.0219 106.312C20.3054 105.06 22.5199 104.384 24.1557 103.607C31.8816 99.9003 37.3175 93.7136 41.5202 86.475C41.5454 86.475 41.5705 86.475 41.5957 86.5C41.7719 86.1744 41.948 85.8738 42.1493 85.5733C42.1242 85.5733 42.099 85.5732 42.0739 85.5482C43.3573 83.344 44.7414 81.3653 46.805 79.7873C47.6355 79.1361 48.4157 78.56 49.2461 78.1843C49.7494 77.7836 50.3031 77.483 50.9322 77.4078C53.1217 77.1073 55.2104 78.4849 57.123 79.3365C59.6648 80.4636 62.2569 81.3403 64.9245 82.1167C66.0821 82.4674 67.3404 82.793 68.3219 83.5194C68.9762 83.7198 69.5802 84.0203 70.1338 84.396C70.3603 84.5463 70.612 84.7968 70.8133 85.0723C71.4173 85.7987 70.9895 86.6503 69.9828 86.9509C69.9073 86.9759 69.857 86.9509 69.8067 86.9509C68.951 87.3516 67.9947 87.5019 67.0384 87.5771C62.6344 88.8044 58.18 89.681 53.776 90.9334C51.4104 91.6096 49.0196 92.9622 47.1574 94.7406C46.503 95.6172 45.9242 96.544 45.4461 97.5458C45.2196 98.2221 44.9176 98.8984 44.8924 99.6248C44.8924 99.725 44.8421 99.775 44.7917 99.8001C44.4394 101.603 44.4394 103.532 44.6659 105.336C45.6726 112.825 50.4541 119.562 54.0025 126.05C55.6886 129.105 57.123 132.286 57.7522 135.743C58.6582 140.602 56.4184 144.935 53.8263 148.893C53.8263 148.868 53.8012 148.843 53.8012 148.818C53.7508 148.667 53.4992 148.868 53.4992 148.968C53.4992 149.143 47.4593 146.513 46.9309 146.213C44.3388 144.81 41.8473 143.132 39.4818 141.379C35.6565 138.548 32.3095 135.117 29.3902 131.385C26.169 127.252 23.7027 122.568 21.614 117.784C20.6577 115.605 19.7014 113.426 18.8206 111.222C18.2166 109.594 17.5874 107.715 19.0219 106.312Z" fill="#EF5853"/>
<g opacity="0.6">
<path d="M119.207 111.772C119.509 115.178 120.566 118.509 122.202 121.49C124.392 125.472 127.411 129.029 131.086 131.709C132.445 130.732 133.829 129.781 135.238 128.854C133.325 127.576 131.614 126.023 130.129 124.22C128.091 121.765 126.656 119.035 125.146 116.23C123.989 114.026 122.907 111.646 122.58 109.167C122.303 107.013 122.63 104.508 124.693 103.281C126.43 102.254 128.317 102.629 130.004 103.606C134.357 106.136 137.276 110.469 141.026 113.725C142.989 115.428 145.254 117.132 147.645 118.434C148.5 117.382 149.281 116.305 149.91 115.128C150.237 114.527 150.489 113.8 150.841 113.224C151.772 111.772 150.614 112.673 149.935 112.874C147.242 113.675 144.147 111.997 142.083 110.494C139.114 108.365 136.446 105.635 134.231 102.73C133.929 102.329 133.678 101.928 133.426 101.527C133.225 101.302 133.023 101.076 132.822 100.851C131.01 98.8222 128.846 96.9687 127.185 94.8396C126.782 94.3387 126.354 93.5121 126.103 92.6855C124.819 95.5159 123.058 98.2711 121.825 101.076C121.07 102.78 120.315 104.508 119.534 106.211C119.232 108.04 119.031 109.893 119.207 111.772Z" fill="#F38483"/>
<path d="M52.9203 102.855C55.4872 102.329 58.1045 101.578 60.7469 101.628C62.7098 101.653 65.4026 103.531 62.9112 105.134C60.0423 106.988 56.1667 107.539 52.8952 108.215C50.9825 108.616 49.0699 108.966 47.1573 109.342C47.0567 109.367 46.956 109.367 46.8553 109.392C47.2077 110.444 47.6103 111.446 48.0381 112.423C49.6739 113.45 52.2157 113.425 53.9773 113.4C56.4184 113.375 58.8846 113.149 61.2754 112.648C66.4847 111.521 70.1589 107.639 73.3299 103.606C76.6769 99.3233 79.8227 94.5142 84.579 91.6338C89.3857 88.7032 94.8467 88.6281 100.308 89.3294C103.479 89.7302 106.599 90.3563 109.745 91.0076C112.337 91.5336 115.407 91.6839 117.748 93.0114C121.523 95.1404 120.944 99.2481 120.214 102.905C122.026 98.8724 123.863 94.8648 125.952 90.9324C126.103 90.0558 126.732 89.4797 128.242 89.7302C130.758 90.156 133.049 91.3332 135.49 92.0596C136.295 92.31 137.251 92.6106 138.208 92.7609C139.063 93.0615 139.994 93.2117 140.825 92.8611C142.133 92.31 141.378 91.0577 140.498 90.5567C140.246 90.3814 139.894 90.2061 139.441 90.0558C138.359 89.4797 137.226 88.9787 136.094 88.5279C133.174 87.4258 130.557 86.5742 127.537 86.3738C126.103 86.1735 124.492 86.2486 122.982 86.449C122.504 86.3989 122.026 86.3237 121.548 86.2236C120.994 86.0983 120.466 85.9731 119.937 85.8478C119.459 85.7727 119.006 85.6976 118.528 85.5974C118.402 85.5723 118.352 85.5222 118.326 85.422C116.238 84.8459 114.149 84.2198 112.06 83.6437C105.567 81.8904 95.7527 78.3086 89.4109 82.216C83.4969 85.8979 80.0743 92.5605 73.0279 94.5893C72.8769 94.6394 72.7259 94.6645 72.5497 94.7146C70.0835 95.6664 67.5669 96.4679 65.0251 97.1942C60.3191 98.5468 55.5376 99.724 50.6302 99.9244C49.5984 99.9745 46.9812 100.075 45.6474 99.3483C45.4209 100.45 45.3706 101.603 45.4461 102.83C47.9123 103.256 50.3786 103.381 52.9203 102.855Z" fill="#F38483"/>
<path d="M53.0966 84.3708C54.4304 85.3977 55.4622 86.9507 53.4993 87.9526C51.4608 89.0045 48.8687 89.3051 46.6793 88.6288C44.8925 88.0778 43.3322 87.151 41.7971 86.1742C41.7468 86.2744 41.6713 86.3746 41.6209 86.4748C41.5958 86.4748 41.5706 86.4748 41.5455 86.4497C41.2183 87.0258 40.866 87.5768 40.5388 88.1279C43.3574 89.7058 45.9495 91.5343 47.7111 94.2144C49.4727 92.6865 51.637 91.5092 53.8012 90.8831C58.1801 89.6307 62.6596 88.754 67.0636 87.5267C68.0451 87.4766 68.9763 87.3264 69.8319 86.9005C69.8822 86.9256 69.9326 86.9256 70.0081 86.9005C71.0147 86.6 71.4425 85.7484 70.8385 85.022C70.6624 84.7465 70.3856 84.5211 70.1591 84.3457C69.6306 83.945 69.0014 83.6695 68.3471 83.4691C67.3657 82.7427 66.1325 82.3921 64.9497 82.0664C62.2822 81.29 59.6901 80.3883 57.1483 79.2862C55.2105 78.4346 53.1469 77.057 50.9575 77.3575C50.3283 77.4327 49.7747 77.7583 49.2714 78.134C48.4661 78.5348 47.6859 79.1109 46.8303 79.737C46.5786 79.9374 46.3521 80.1128 46.1256 80.3131C48.4912 81.5905 50.9826 82.7427 53.0966 84.3708Z" fill="#F38483"/>
</g>
<path d="M107.883 148.92C105.165 147.768 101.365 146.14 100.937 142.809C100.635 140.63 101.667 138.676 102.673 136.823C103.68 134.969 104.838 132.94 104.183 130.861C103.831 131.287 103.454 131.713 103.076 132.139C100.258 135.27 96.7847 137.774 93.5634 140.479C91.374 142.308 89.7131 144.738 89.0336 147.543C88.7064 148.945 88.3038 150.223 89.3607 151.475C89.8389 152.051 90.2919 152.602 90.8455 153.128C94.4694 156.585 98.3198 159.54 103.101 161.169C106.851 162.471 110.701 163.473 114.451 164.75C114.527 164.575 114.627 164.375 114.703 164.199C115.382 162.521 115.986 160.793 116.515 159.065C117.219 156.685 117.672 154.255 118.251 151.851C114.678 151.3 111.154 150.298 107.883 148.92Z" fill="#FDE4CB"/>
<path d="M113.268 163.346C109.946 162.269 106.524 161.293 103.428 159.614C100.434 157.986 98.0679 155.807 95.8785 153.227C94.7963 151.975 93.4877 150.497 92.9592 148.894C92.4559 147.341 92.8083 145.713 92.2546 144.185C92.003 143.484 91.6506 143.108 91.2228 142.958C90.191 144.336 89.4109 145.863 89.0082 147.567C88.681 148.969 88.2784 150.247 89.3353 151.499C89.8135 152.075 90.2665 152.626 90.8201 153.152C94.444 156.609 98.2944 159.564 103.076 161.192C106.826 162.495 110.676 163.497 114.426 164.774C114.501 164.599 114.602 164.398 114.677 164.223C114.728 164.098 114.753 163.998 114.803 163.872C114.3 163.672 113.797 163.497 113.268 163.346Z" fill="#FDE4CB"/>
<path d="M91.55 138.175C89.2347 138.025 87.0956 137.023 84.8307 136.547C82.5406 136.072 80.326 136.197 78.1366 136.973C71.2411 139.403 64.849 146.892 56.9721 145.089C56.8211 145.414 56.6449 145.715 56.4687 146.015C55.1349 148.32 53.0965 150.449 51.9137 152.828C50.0766 156.585 55.8648 155.508 57.8025 155.082C59.69 154.682 61.5271 154.131 63.4145 153.655C67.5921 152.553 71.6941 151.2 75.8213 149.923C79.1935 148.896 82.5154 147.744 86.0135 147.218C86.844 147.092 87.448 147.268 87.8506 147.668C88.1778 146.366 88.8321 145.063 89.5619 143.911C91.5752 140.705 94.6202 138.451 97.5647 136.122C95.8534 137.424 93.9156 138.326 91.55 138.175Z" fill="#FDE4CB"/>
<path d="M88.9075 143.56C88.0015 144.111 87.0956 144.737 86.1141 145.088C84.6042 145.614 82.8929 145.639 81.3326 145.864C79.3696 146.165 77.4319 146.465 75.5193 146.941C72.4239 147.693 69.5801 148.92 66.6609 150.147C62.4582 151.901 56.6952 154.43 52.1402 152.502C52.0898 152.602 52.0395 152.702 51.9892 152.802C50.1521 156.559 55.9402 155.482 57.878 155.057C59.7654 154.656 61.6025 154.105 63.49 153.629C67.6675 152.527 71.7696 151.174 75.8968 149.897C79.269 148.87 82.5909 147.718 86.0889 147.192C86.9194 147.067 87.5234 147.242 87.926 147.643C88.2532 146.34 88.9075 145.038 89.6373 143.886C89.8387 143.56 90.0651 143.234 90.3168 142.909C89.8386 143.059 89.3857 143.284 88.9075 143.56Z" fill="#FDE4CB"/>
<path opacity="0.3" d="M102.573 131.662C101.34 132.789 100.132 134.017 98.823 135.144C100.106 134.092 101.39 132.914 102.573 131.662Z" fill="#F38483"/>
<path d="M18.8459 111.174C19.7267 113.378 20.683 115.557 21.6393 117.736C23.7532 122.52 26.1943 127.204 29.4156 131.337C32.3348 135.069 35.6819 138.5 39.5071 141.331C41.8727 143.084 44.3641 144.762 46.9562 146.165C47.4847 146.44 53.5245 149.095 53.5245 148.92C53.5245 148.82 53.7761 148.619 53.8265 148.77C53.8265 148.795 53.8516 148.82 53.8516 148.845C54.6821 147.542 55.4874 146.215 56.1669 144.837C56.0914 144.787 56.0411 144.687 56.0662 144.587C56.2172 143.71 56.4437 142.858 56.6702 142.007C57.5762 138.801 58.457 135.645 56.4186 132.639C54.4556 129.734 51.3099 128.557 48.0635 127.705C45.2197 126.953 42.1243 126.402 39.6077 124.824C37.1415 123.297 34.9269 121.168 33.0646 118.963C29.7931 115.081 27.7295 110.447 27.201 105.413C27.0752 104.311 27.0248 103.184 26.9996 102.082C26.0937 102.633 25.1374 103.134 24.1559 103.609C22.5453 104.386 20.3055 105.037 19.0221 106.315C17.5876 107.717 18.2167 109.596 18.8459 111.174Z" fill="#FDE4CB"/>
<path d="M44.9931 142.233C40.5891 139.002 36.0592 135.997 32.4102 131.889C29.1135 128.157 26.1187 124.174 22.8723 120.392C24.7094 124.249 26.8234 127.981 29.4406 131.338C32.3598 135.07 35.7069 138.501 39.5322 141.332C41.8977 143.085 44.3892 144.763 46.9813 146.166C47.5097 146.441 53.5495 149.096 53.5495 148.921C53.5495 148.821 53.8012 148.62 53.8515 148.771C53.8515 148.796 53.8767 148.821 53.8767 148.846C54.2039 148.32 54.5562 147.794 54.8582 147.268C51.2343 146.541 47.9124 144.387 44.9931 142.233Z" fill="#FDE4CB"/>
<path opacity="0.3" d="M110.978 141.581C111.204 141.781 111.506 142.032 111.808 142.207V142.232C111.985 142.558 112.488 142.758 112.815 142.858C113.696 143.159 114.778 142.507 115.055 141.656C115.583 139.953 113.948 138.6 112.463 138.174C111.456 137.899 110.273 138.575 110.198 139.677C110.173 140.328 110.525 141.155 110.978 141.581Z" fill="#F38483"/>
<path opacity="0.3" d="M110.525 131.812C110.601 132.088 110.726 132.363 110.903 132.539C111.154 132.764 111.532 132.914 111.859 132.99C112.74 133.19 113.52 132.839 113.797 131.938C114.023 131.186 113.47 130.36 112.966 129.834C112.413 129.258 111.532 128.281 110.651 128.857C109.493 129.608 109.795 130.886 110.525 131.812Z" fill="#F38483"/>
<path opacity="0.3" d="M80.6783 106.365C81.4082 107.191 82.9936 106.064 83.5724 105.588C83.6731 105.513 83.7486 105.413 83.8492 105.313C83.3459 105.889 83.7989 105.388 83.9751 105.263C84.2771 105.037 84.5539 104.737 84.8055 104.461C84.9314 104.336 85.032 104.186 85.1327 104.01C85.8373 103.384 86.4162 102.608 86.391 101.756C86.3658 101.43 86.1645 101.33 85.8373 101.355C84.4029 101.48 83.1446 102.382 82.0121 103.234C81.2068 103.835 79.722 105.288 80.6783 106.365Z" fill="#F38483"/>
<path opacity="0.3" d="M58.2554 118.462C58.2554 118.487 58.2554 118.487 58.2806 118.487C58.2554 118.563 58.2554 118.663 58.3057 118.713C58.4064 118.788 58.5071 118.813 58.6077 118.838C58.7839 118.913 58.9601 118.913 59.1614 118.888C59.3376 118.863 59.5137 118.788 59.6647 118.738H59.6899C59.8912 118.713 60.0674 118.613 60.2183 118.512C60.621 118.287 61.3257 117.385 60.6965 117.035C60.5455 116.96 60.3694 116.934 60.1932 116.985C60.1177 116.96 60.0422 116.934 59.9164 116.909C59.5137 116.859 59.1111 117.035 58.7839 117.285C58.5071 117.561 58.1296 118.037 58.2554 118.462Z" fill="#F38483"/>
<path opacity="0.3" d="M98.8231 108.995C99.3264 109.271 99.9052 109.471 100.484 109.621C100.962 109.872 101.591 109.897 102.246 109.771C103.152 109.696 104.007 109.396 104.687 108.77C105.014 108.469 105.442 107.893 105.115 107.442C105.039 107.342 104.938 107.267 104.863 107.192C104.762 106.991 104.611 106.791 104.385 106.641C103.152 105.864 101.868 105.914 100.459 105.989C98.6973 106.064 96.6085 107.818 98.8231 108.995Z" fill="#F38483"/>
<path opacity="0.6" d="M128.896 118.437C129.374 118.738 129.928 118.963 130.507 119.113C130.96 119.389 131.589 119.389 132.218 119.214C133.099 119.088 133.929 118.713 134.609 117.936C134.936 117.56 135.389 116.859 135.087 116.333C135.011 116.208 134.936 116.133 134.835 116.033C134.76 115.782 134.609 115.557 134.407 115.406C133.225 114.505 131.991 114.63 130.607 114.78C128.896 114.93 126.782 117.11 128.896 118.437Z" fill="#F38483"/>
<path opacity="0.6" d="M75.0159 134.769C75.2927 134.944 75.5947 135.069 75.9218 135.145C76.1735 135.295 76.5258 135.295 76.9033 135.22C77.4066 135.145 77.8848 134.919 78.2874 134.493C78.4887 134.268 78.7404 133.867 78.5642 133.567C78.5139 133.492 78.4887 133.441 78.4132 133.391C78.3629 133.241 78.2874 133.116 78.1616 133.041C77.4821 132.54 76.7774 132.59 75.9973 132.665C75.0158 132.74 73.7827 134.018 75.0159 134.769Z" fill="#F38483"/>
<path opacity="0.3" d="M83.9498 123.221C84.0002 123.396 84.1008 123.522 84.2015 123.597C84.2267 123.697 84.3022 123.772 84.4532 123.747C84.7803 123.697 85.0823 123.747 85.3843 123.622C85.8373 123.471 86.3909 123.021 86.2903 122.495C86.2148 122.144 85.8373 122.019 85.5353 121.994C85.0068 121.944 84.5538 122.194 84.1763 122.57C84.0002 122.72 83.8743 123.021 83.9498 123.221Z" fill="#F38483"/>
<path opacity="0.3" d="M37.0407 116.108C37.4433 116.458 37.9215 116.709 38.4248 116.834C38.5506 116.909 38.6765 116.984 38.8526 117.034C39.5824 117.31 40.3878 116.784 40.7904 116.208C41.6209 114.93 40.4884 114.054 39.4063 113.528C38.2487 112.952 36.7135 112.751 36.185 114.279C35.9586 114.905 36.6129 115.707 37.0407 116.108Z" fill="#F38483"/>
<path opacity="0.3" d="M37.821 96.3199C37.7707 96.4201 37.7455 96.5203 37.7707 96.5955C37.9469 97.1215 38.3998 97.8228 38.9535 98.3237C39.0038 98.3738 39.029 98.3988 39.0793 98.4239C39.7085 98.9499 40.4886 99.2004 41.1681 98.7245C41.9482 98.1985 42.1496 97.5222 41.9231 96.6455C41.8476 96.3199 41.7469 95.819 41.5456 95.5435C41.2184 95.0926 40.8158 94.792 40.3376 94.5416C39.5071 94.1158 38.576 93.8903 37.9468 94.792C37.67 95.2679 37.67 95.7939 37.821 96.3199Z" fill="#F38483"/>
<path opacity="0.3" d="M47.258 126.252C47.1825 126.502 47.409 126.678 47.6606 126.628C47.7361 126.603 47.8116 126.577 47.8871 126.552C48.1639 126.527 48.4156 126.302 48.5666 126.051C48.6673 125.876 48.6924 125.651 48.4911 125.551C48.2898 125.45 48.0884 125.45 47.9123 125.526C47.862 125.475 47.8116 125.425 47.7865 125.4C47.6606 125.225 47.3083 125.475 47.2077 125.626C47.0818 125.851 47.1321 126.077 47.258 126.252Z" fill="#F38483"/>
<path opacity="0.3" d="M41.8473 131.989C42.9042 132.991 44.2632 134.018 45.7731 134.168C46.9559 134.293 47.9878 133.166 47.8619 132.039C47.8116 131.563 47.4341 131.112 46.956 130.736C46.2513 129.86 45.1692 129.208 44.2129 128.833C42.9546 128.307 41.193 126.979 40.1612 128.607C39.3055 129.91 40.9916 131.187 41.8473 131.989Z" fill="#F38483"/>
<path opacity="0.3" d="M69.5047 145.764C69.5802 146.039 69.7563 146.165 69.9828 146.24C70.008 146.29 70.0835 146.315 70.1841 146.315C70.7378 146.29 71.3166 146.315 71.7948 146.039C72.1471 145.839 72.4742 145.538 72.6756 145.188C73.1789 144.361 72.4239 143.735 71.6186 143.76C71.0901 143.76 70.5616 143.96 70.1841 144.286C69.7815 144.612 69.3537 145.213 69.5047 145.764Z" fill="#F38483"/>
<path opacity="0.3" d="M84.2769 139.753C84.2769 140.004 84.4782 140.104 84.6795 140.179C85.0318 140.354 85.4597 140.354 85.8372 140.48C86.2146 140.58 86.5921 140.354 86.8186 140.079C86.9948 139.853 87.1961 139.428 86.8438 139.252C86.718 139.202 86.6173 139.152 86.4915 139.127C86.3656 139.052 86.2398 138.977 86.114 138.902C85.5603 138.651 84.906 138.676 84.5034 139.202C84.3775 139.377 84.302 139.553 84.2769 139.753Z" fill="#F38483"/>
<path opacity="0.3" d="M97.9671 144.311C97.9419 144.437 98.0174 144.612 98.0929 144.762C98.1181 144.888 98.1433 145.013 98.2188 145.138C98.2943 145.389 98.3698 145.639 98.4453 145.889C98.6969 146.566 99.4267 148.094 100.358 147.943C102.723 147.543 100.886 143.71 99.4015 143.285C99.0492 143.184 98.6717 143.36 98.4453 143.61C98.1684 143.76 98.0426 143.961 97.9671 144.311Z" fill="#F38483"/>
<path opacity="0.6" d="M89.3603 151.474C89.8384 152.051 90.2914 152.602 90.8451 153.128C94.4689 156.584 98.3193 159.54 103.101 161.168C105.391 161.969 107.731 162.646 110.047 163.347C108.033 162.295 105.768 161.543 103.831 160.592C100.886 159.139 97.3379 156.484 97.7154 152.777C97.9922 150.072 99.8041 147.792 101.591 145.839C104.007 143.209 106.649 140.804 109.342 138.475C115.231 133.365 121.044 128.306 125.65 121.969C126.983 120.14 128.091 118.237 129.299 116.333C129.953 115.306 130.456 114.179 131.161 113.177C132.746 110.923 134.634 110.422 137.226 111.223C138.66 111.674 140.019 112.326 141.429 112.801C142.737 113.227 144.146 113.352 145.531 113.352C146.562 113.352 147.619 113.277 148.651 113.077C146.311 113.152 143.819 111.749 142.083 110.497C139.113 108.368 136.446 105.638 134.231 102.732C133.929 102.332 133.677 101.931 133.426 101.53C133.224 101.305 133.023 101.079 132.822 100.854C131.01 98.8251 128.846 96.9716 127.185 94.8426C126.782 94.3416 126.354 93.515 126.102 92.6885C124.819 95.5188 123.057 98.274 121.824 101.079C120.063 105.087 118.301 109.094 116.237 112.952C114.149 116.884 111.808 120.666 109.292 124.323C108.285 125.801 107.253 127.279 106.096 128.631C106.02 128.706 105.819 128.932 105.492 129.232C104.737 130.234 103.906 131.186 103.051 132.163C100.232 135.294 96.7591 137.799 93.5378 140.504C91.3484 142.332 89.6874 144.762 89.008 147.567C88.6808 148.945 88.3033 150.222 89.3603 151.474Z" fill="#F38483"/>
<path opacity="0.6" d="M121.246 92.8637C120.239 96.3202 118.93 99.7517 117.496 103.058C114.652 109.746 111.053 116.083 106.599 121.843C104.284 124.849 101.818 127.679 99.0493 130.259C96.3062 132.814 93.4373 135.219 90.9459 137.999C89.6121 139.502 88.4544 141.08 87.4478 142.833C86.6677 144.186 85.8875 145.638 84.7802 146.79C84.5034 147.091 84.2014 147.367 83.8994 147.617C84.6041 147.467 85.3339 147.316 86.0385 147.216C86.869 147.091 87.473 147.266 87.8756 147.667C88.2028 146.365 88.8571 145.062 89.5869 143.91C91.8015 140.353 95.2996 137.999 98.5208 135.394C100.534 133.766 102.522 131.862 104.233 129.758C105.894 128.055 107.455 126.277 108.688 124.248C109.065 123.722 109.443 123.196 109.795 122.67C112.035 119.238 114.249 115.757 116.011 112.025C119.383 104.962 122.252 97.798 125.926 90.885C126.077 90.0083 126.707 89.4322 128.217 89.6827C130.733 90.1085 133.023 91.2857 135.464 92.0121C136.27 92.2626 137.226 92.5631 138.182 92.7134C139.038 93.014 139.969 93.1643 140.799 92.8136C142.108 92.2626 141.353 91.0102 140.472 90.5093C140.221 90.3339 139.868 90.1586 139.415 90.0083C138.333 89.4322 137.201 88.9313 136.068 88.4804C133.149 87.3784 130.532 86.5268 127.512 86.3264C126.077 86.126 124.467 86.2011 122.957 86.4015C122.579 86.3514 122.227 86.3013 121.875 86.2512C122.126 88.4804 121.9 90.6846 121.246 92.8637Z" fill="#F38483"/>
<path opacity="0.6" d="M50.1017 116.659C53.2978 122.645 58.3058 129.082 58.8594 136.07C59.1363 139.627 58.2806 142.958 56.4938 146.014C55.16 148.319 53.1216 150.448 51.9388 152.827C50.1017 156.584 55.8899 155.507 57.8276 155.081C59.7151 154.681 61.5522 154.13 63.4396 153.654C67.2397 152.652 70.9894 151.424 74.7391 150.272C74.6888 150.272 74.6133 150.272 74.563 150.272C72.3232 150.423 70.1086 150.848 67.9192 151.349C66.7867 151.625 63.8926 152.777 63.1125 151.274C62.584 150.222 63.0621 148.87 63.3641 147.843C63.8423 146.19 64.4211 144.561 65.0251 142.958C66.4847 138.951 67.4662 134.968 67.441 130.685C67.4158 126.803 66.9377 122.695 65.6794 119.013C65.0251 117.16 64.1946 115.381 63.0622 113.753C62.2317 112.576 61.1495 111.649 60.2184 110.572C58.7084 108.844 57.9031 106.79 59.1866 104.686C61.678 100.578 66.9629 99.3011 70.8132 96.8715C72.147 96.0199 73.4557 95.0681 74.6888 94.0161C74.1351 94.2415 73.5815 94.467 72.9775 94.6423C72.8265 94.6924 72.6755 94.7174 72.4994 94.7675C70.0331 95.7193 67.5165 96.5208 64.9748 97.2472C60.2687 98.5998 55.4872 99.777 50.5798 99.9774C49.548 100.027 46.9308 100.128 45.597 99.4013C44.4394 104.862 47.8368 112.401 50.1017 116.659Z" fill="#F38483"/>
<path opacity="0.6" d="M18.8456 111.174C19.7264 113.378 20.6827 115.557 21.639 117.736C23.5013 121.944 25.6152 126.052 28.2828 129.784C26.5967 125.476 24.6338 121.218 23.8033 116.634C23.3755 114.305 22.9728 111.274 24.7847 109.395C26.1689 107.943 27.9808 107.542 29.8934 107.166C32.5359 106.665 34.6498 105.739 35.6564 103.033C36.9399 99.602 38.8022 96.421 40.9916 93.4654C43.2314 90.4848 45.6473 87.4791 48.2645 84.799C50.0262 82.9956 52.1149 81.4677 54.6063 80.8416C56.3176 80.4158 58.1044 80.3156 59.9164 80.4157C58.9852 80.0651 58.0541 79.6894 57.1481 79.2886C55.2103 78.437 53.1467 77.0594 50.9573 77.36C50.3281 77.4351 49.7745 77.7607 49.2712 78.1364C48.4659 78.5372 47.6857 79.1133 46.8301 79.7395C44.7665 81.3425 43.3824 83.2962 42.0989 85.5003C42.1241 85.5003 42.1492 85.5003 42.1744 85.5254C41.9731 85.826 41.7969 86.1516 41.6207 86.4522C41.5956 86.4522 41.5704 86.4521 41.5453 86.4271C37.3174 93.6657 31.8816 99.8524 24.1808 103.559C22.5702 104.336 20.3304 104.987 19.0469 106.265C17.5873 107.717 18.2165 109.596 18.8456 111.174Z" fill="#F38483"/>
<path opacity="0.6" d="M54.0023 126.026C52.2155 122.77 50.1268 119.439 48.34 115.982C48.2645 117.736 47.5095 119.264 47.1069 120.942C46.5784 123.071 46.2764 125.25 46.2512 127.454C46.226 129.508 46.3519 131.562 46.528 133.616C46.6539 135.043 46.9558 136.446 47.0565 137.899C47.2075 140.203 47.0062 143.059 44.8168 144.436C44.6658 144.536 44.5148 144.611 44.3638 144.687C45.2194 145.213 46.0751 145.739 46.9559 146.214C47.4844 146.49 53.5242 149.145 53.5242 148.97C53.5242 148.869 53.7758 148.669 53.8261 148.819C53.8261 148.844 53.8513 148.869 53.8513 148.895C56.4182 144.937 58.6832 140.629 57.7772 135.745C57.1229 132.263 55.6884 129.082 54.0023 126.026Z" fill="#F38483"/>
<path opacity="0.9" d="M137.276 96.8723C135.968 98.1497 134.533 99.2769 133.325 100.68C133.073 100.379 132.797 100.078 132.545 99.7528C131.614 98.6256 130.683 97.5236 129.852 96.3463C129.248 95.62 128.619 94.8685 128.015 94.1422C127.159 93.1403 125.624 90.2097 128.443 90.6856C130.028 90.9361 131.589 91.6625 133.099 92.2135C135.263 92.99 138.56 94.3425 140.85 93.541C140.875 93.541 140.875 93.541 140.9 93.516C139.768 94.6932 138.409 95.7703 137.276 96.8723Z" fill="#F38483"/>
<path opacity="0.9" d="M68.2967 91.0608C67.8689 91.7121 67.3656 92.3132 66.8623 92.9143C66.5351 93.2901 66.1325 93.6658 65.755 94.0415C65.1762 94.6927 63.9431 95.92 63.9431 96.8468C62.1563 97.3227 60.3443 97.7485 58.5324 98.1242C55.7641 98.7003 52.9204 99.0008 50.1018 99.101C49.3468 99.1261 48.5667 99.1261 47.8117 99.076C46.3017 98.9758 45.9746 98.3246 46.2011 97.523C46.5786 96.6965 47.1071 95.9701 47.8117 95.3189C48.2899 94.5424 49.0197 93.9162 49.7495 93.4153C50.9071 92.6138 52.1151 92.1379 53.3985 91.9375C56.8966 90.635 60.7973 90.1091 64.3205 89.2074C66.1577 88.7315 68.5988 88.3557 70.4862 87.3789C70.0835 88.7315 69.253 89.9087 68.2967 91.0608Z" fill="#F38483"/>
<path opacity="0.3" d="M57.8026 140.028C57.5761 140.98 57.2993 141.906 57.0476 142.858C57.3748 141.931 57.6264 141.005 57.8026 140.028Z" fill="#F38483"/>
<path opacity="0.6" d="M63.0874 123.272C63.3391 123.422 63.6159 123.547 63.9179 123.622C64.1444 123.773 64.4715 123.773 64.8239 123.672C65.2768 123.622 65.7298 123.397 66.0821 122.996C66.2583 122.796 66.4848 122.42 66.3338 122.145C66.3086 122.095 66.2583 122.044 66.208 121.994C66.1576 121.869 66.0821 121.744 65.9815 121.669C65.3523 121.193 64.7232 121.268 63.9934 121.343C63.0874 121.418 61.9801 122.57 63.0874 123.272Z" fill="#F38483"/>
<path opacity="0.6" d="M91.9274 115.481C92.1791 115.631 92.4559 115.757 92.7579 115.832C92.9844 115.982 93.3116 115.982 93.6387 115.882C94.0917 115.832 94.5447 115.606 94.897 115.206C95.0732 115.005 95.2997 114.63 95.1487 114.354C95.1235 114.304 95.0732 114.254 95.0228 114.204C94.9725 114.079 94.897 113.953 94.7963 113.878C94.1672 113.402 93.538 113.477 92.8082 113.553C91.9274 113.653 90.8201 114.805 91.9274 115.481Z" fill="#F38483"/>
<path opacity="0.6" d="M97.2122 85.3992C97.4638 85.5495 97.7658 85.6747 98.0426 85.7498C98.2691 85.9001 98.5963 85.9001 98.9486 85.7999C99.4016 85.7498 99.8546 85.5244 100.207 85.1237C100.383 84.9233 100.61 84.5476 100.459 84.272C100.433 84.2219 100.383 84.1719 100.333 84.1218C100.282 83.9965 100.207 83.8713 100.106 83.7961C99.4771 83.3202 98.8479 83.3954 98.1181 83.4705C97.2122 83.5457 96.1049 84.6978 97.2122 85.3992Z" fill="#F38483"/>
<path opacity="0.6" d="M111.456 101.53C111.658 101.655 111.884 101.755 112.111 101.805C112.287 101.931 112.564 101.931 112.815 101.855C113.168 101.805 113.52 101.655 113.797 101.329C113.923 101.179 114.124 100.879 113.998 100.653C113.973 100.603 113.923 100.578 113.897 100.528C113.872 100.428 113.797 100.328 113.721 100.277C113.243 99.9017 112.715 99.9518 112.161 100.027C111.456 100.077 110.576 101.004 111.456 101.53Z" fill="#F38483"/>
<path opacity="0.3" d="M34.5994 104.812C34.6246 104.887 34.6246 104.987 34.6498 105.088C34.6246 105.163 34.5994 105.238 34.5994 105.313C34.5994 105.538 34.6749 105.689 34.8259 105.789C34.9518 106.165 35.1531 106.49 35.5054 106.615C35.8326 106.741 36.1597 106.49 36.361 106.265C36.663 105.939 36.7386 105.488 36.5372 105.088C36.4617 104.937 36.3611 104.787 36.2101 104.637C36.1094 104.537 35.9836 104.436 35.8326 104.386C35.7067 104.336 35.5558 104.336 35.4048 104.386C35.4048 104.361 35.3796 104.336 35.3796 104.336C35.2034 103.91 34.5491 104.486 34.5994 104.812Z" fill="#F38483"/>
<path d="M180.385 113.279C177.416 108.945 174.673 104.637 171.049 100.805C167.526 97.0729 163.323 94.0172 158.818 91.5876C154.339 89.1831 148.852 86.7284 143.668 86.7785C144.801 84.2237 147.166 79.3896 141.957 80.7421C137.15 81.9945 132.62 84.5242 128.216 86.7785C125.775 88.0309 123.309 89.2832 120.868 90.5356C119.484 91.2369 118.1 91.9883 116.64 92.5394C116.212 92.7147 115.759 92.9151 115.331 93.0904L114.627 93.3409C113.922 93.416 113.318 93.2908 112.815 92.9902C112.765 91.6377 112.286 90.3603 111.129 89.4085C107.757 86.6282 103.378 84.399 99.0743 83.5725C94.8465 82.771 90.4928 82.7709 86.2146 82.3451C86.0887 82.3702 85.9629 82.4203 85.8622 82.4704C85.8371 82.4954 85.837 82.5205 85.8119 82.5455C85.8119 82.5455 85.8119 82.5455 85.8371 82.5455C85.5351 83.322 85.2583 84.1235 85.0821 84.9501C84.4278 87.9307 84.1509 90.9364 84.0251 93.9671C83.7483 100.254 82.1628 106.491 78.4131 111.65C74.9402 116.434 69.9322 120.041 66.0818 124.55C64.2951 126.654 62.9109 129.108 61.7533 131.588C61.1745 132.84 60.0168 135.17 60.3692 136.547C60.4195 136.773 60.646 136.798 60.8473 136.673C62.9109 135.295 65.1759 135.345 67.3905 136.072C70.2342 136.673 72.6249 138.376 74.9905 140.104C76.3495 141.081 77.6581 142.108 78.9668 143.185C77.5323 144.312 76.3495 146.015 75.3177 147.468C74.4621 148.67 73.0528 150.273 72.625 151.801C71.115 153.73 76.878 155.283 78.2621 155.583C80.829 156.134 83.4463 156.761 86.0635 156.435C88.5046 156.134 90.8954 155.834 93.3365 155.633C93.714 155.633 94.0915 155.658 94.469 155.684C98.0173 155.959 101.541 156.46 105.089 156.71C110.625 157.111 116.716 157.537 121.522 154.281C123.812 152.753 125.347 150.173 126.883 147.969C128.795 145.214 130.909 142.484 133.778 140.755C134.911 139.804 136.093 139.002 137.477 138.326C137.956 138.1 138.887 137.474 139.667 137.274C140.372 136.923 141.101 136.572 141.831 136.247C140.749 138.877 138.056 141.682 137.352 144.613C137.201 145.114 137.05 145.89 137.1 146.466L137.075 146.491C137.301 147.593 137.83 148.62 138.862 148.896C139.818 149.146 140.674 149.447 141.554 149.797C144.901 150.474 148.374 150.674 151.721 151.651C153.81 152.277 155.773 152.828 157.887 152.127C159.649 151.526 161.259 149.347 162.316 147.969C163.172 146.867 163.826 145.665 164.405 144.387C164.833 143.185 165.235 141.958 165.764 140.805C165.789 140.755 165.814 140.73 165.865 140.705C166.594 138.701 167.299 136.673 168.306 134.869C171.225 129.559 175.528 126.028 180.285 122.421C181.568 121.444 182.625 120.442 182.952 118.839C183.33 117.011 181.367 114.681 180.385 113.279Z" fill="#F4A399"/>
<path d="M78.0859 141.733C75.6448 139.454 72.801 137.425 69.7811 135.972C67.6672 134.946 64.597 133.919 62.3069 135.071C61.7029 135.371 60.8221 136.348 61.4261 134.895C61.6777 134.319 61.7784 133.643 61.9797 133.042C62.5082 131.364 63.4393 129.761 64.3453 128.258C67.944 122.247 73.9587 118.064 78.4885 112.804C82.1124 108.571 83.8237 102.935 84.5535 97.55C84.9813 94.419 84.8555 91.2631 85.2078 88.1322C85.4092 86.4791 85.686 84.851 86.0383 83.2229C86.0886 83.0476 86.1138 82.8723 86.1641 82.6719C89.7628 83.2229 93.3867 83.5485 96.9855 84.1246C101.566 84.851 105.517 86.9299 109.317 89.4597C109.896 89.8354 110.374 90.2863 110.927 90.7121C112.085 91.6639 111.934 92.8912 111.833 94.2187C111.682 96.8486 110.55 99.2782 108.864 101.307C106.398 104.263 103.629 107.068 101.591 110.324C100.962 111.351 100.383 112.353 99.8544 113.355C99.6279 113.68 99.4517 113.906 99.4266 113.981C98.5709 115.384 97.8914 116.886 97.212 118.364C95.5258 122.071 94.0159 125.853 92.7576 129.711C91.5245 133.518 90.543 137.425 89.6119 141.308C88.9324 144.038 87.7747 146.793 87.0701 149.548C86.7178 148.822 86.2145 148.17 85.7615 147.77C83.9244 146.092 81.6846 144.764 79.7217 143.211C79.4952 143.036 79.2939 142.86 79.0674 142.685C78.715 142.36 78.413 142.034 78.0859 141.733Z" fill="#EF5853"/>
<path d="M76.2738 147.52C77.2553 146.142 78.3626 144.915 79.2434 143.462C79.5202 143.687 79.797 143.938 80.099 144.163C81.1057 145.04 82.1375 145.892 83.0686 146.818C83.7481 147.394 84.4024 147.945 85.0819 148.521C86.013 149.298 87.8501 151.702 85.258 151.728C83.7984 151.753 82.2633 151.327 80.8037 151.076C78.7401 150.726 75.544 149.999 73.5811 151.101L73.5559 151.126C74.3612 149.874 75.4434 148.672 76.2738 147.52Z" fill="#EF5853"/>
<path d="M141.504 135.847C139.315 136.899 137.176 138.026 135.112 139.253C134.986 139.303 134.835 139.378 134.709 139.428C128.644 142.359 126.631 148.921 121.875 153.179C116.766 157.738 107.354 156.01 101.214 155.459C99.2255 155.283 97.2374 155.008 95.2744 154.832C95.2493 154.757 95.1738 154.707 95.0731 154.707C94.6453 154.707 94.1923 154.707 93.7645 154.707C93.2612 154.682 92.7578 154.657 92.2545 154.632C91.8015 154.607 91.3737 154.632 90.9207 154.657C89.5869 155.083 88.1525 155.408 86.8187 155.459C84.0504 155.759 81.559 155.383 78.7656 154.857C77.6583 154.632 76.5761 154.356 75.494 154.006C75.041 153.931 74.7139 153.831 74.4622 153.705C73.5814 153.405 72.7006 152.378 73.8079 151.676C74.4874 151.251 75.3682 151.226 76.1735 151.376C77.0543 151.376 77.9603 151.501 78.7404 151.601C81.0557 151.877 83.3206 152.578 85.661 152.553C87.0703 152.553 87.5485 151.927 87.5485 151.1C89.7631 144.287 91.2479 137.374 93.1605 130.461C94.1671 126.83 95.6016 123.348 97.0864 119.891C97.3129 119.34 97.5645 118.814 97.8413 118.288C98.6215 116.26 99.7539 114.406 100.987 112.603C102.195 110.424 103.705 108.395 105.265 106.616C107.757 103.761 110.525 101.081 111.985 97.5243C112.463 96.3721 112.84 95.0947 112.916 93.8674C113.344 94.1679 113.922 94.2431 114.652 93.9926C117.722 92.9657 120.541 91.3877 123.435 89.9349C126.958 88.1566 130.456 86.278 134.055 84.6249C135.666 83.8735 137.251 83.097 138.887 82.4458C140.598 81.7445 145.631 79.8659 144.574 83.5729C143.895 85.9023 142.385 88.1315 141.554 90.4359C140.422 93.4916 140.17 96.6476 140.976 99.8035C142.586 106.015 148.123 111.05 151.948 115.959C154.666 119.466 158.944 125.702 158.768 130.862C157.459 130.411 155.094 130.937 154.188 131.113C149.683 132.064 145.556 133.893 141.504 135.847Z" fill="#EF5853"/>
<path d="M139.466 141.933C139.768 141.282 140.095 140.656 140.472 140.03C140.724 139.629 141.001 139.228 141.278 138.828C141.68 138.151 142.611 136.849 142.46 136.022C144.021 135.321 145.581 134.645 147.141 134.018C149.557 133.067 152.049 132.34 154.616 131.814C155.295 131.664 156 131.564 156.679 131.489C158.063 131.338 158.441 131.889 158.39 132.641C158.164 133.442 157.812 134.194 157.308 134.895C157.006 135.672 156.428 136.348 155.874 136.924C154.943 137.826 153.936 138.452 152.804 138.828C149.834 140.556 146.411 141.633 143.366 143.01C141.781 143.737 139.642 144.438 138.082 145.64C138.233 144.313 138.811 143.111 139.466 141.933Z" fill="#EF5853"/>
<path d="M181.543 120.418C180.586 121.771 178.674 122.698 177.34 123.649C170.948 128.208 167.022 134.645 164.354 141.834C164.329 141.834 164.304 141.834 164.279 141.834C164.178 142.134 164.052 142.46 163.927 142.76C163.952 142.76 163.977 142.76 164.002 142.76C163.197 144.965 162.24 146.943 160.63 148.697C159.976 149.423 159.372 150.049 158.692 150.525C158.315 150.951 157.862 151.327 157.308 151.502C155.37 152.128 153.281 151.201 151.394 150.725C148.928 150.124 146.436 149.724 143.895 149.423C142.787 149.298 141.604 149.198 140.623 148.672C139.994 148.571 139.415 148.421 138.861 148.146C138.635 148.02 138.358 147.87 138.157 147.645C137.502 147.094 137.754 146.242 138.61 145.816C138.66 145.791 138.71 145.791 138.761 145.791C139.465 145.29 140.296 145.015 141.177 144.789C144.952 142.986 148.852 141.483 152.627 139.655C154.666 138.678 156.603 137.075 157.987 135.196C158.44 134.294 158.818 133.368 159.095 132.391C159.195 131.74 159.346 131.088 159.271 130.437C159.271 130.362 159.296 130.287 159.346 130.262C159.372 128.559 159.07 126.83 158.566 125.252C156.452 118.64 151.067 113.305 146.839 108.02C144.851 105.515 143.039 102.885 141.906 99.8545C140.321 95.5964 141.655 91.3384 143.366 87.3559C143.366 87.3809 143.391 87.406 143.391 87.431C143.442 87.5562 143.643 87.3559 143.643 87.2557C143.618 87.1054 149.481 88.5331 150.01 88.7084C152.577 89.5851 155.093 90.7122 157.509 91.9145C161.41 93.8682 164.984 96.423 168.205 99.3535C171.778 102.585 174.723 106.417 177.39 110.399C178.598 112.203 179.806 114.031 180.964 115.885C181.769 117.312 182.625 118.915 181.543 120.418Z" fill="#EF5853"/>
<g opacity="0.6">
<path d="M90.2159 131.213C89.4106 128.182 87.9258 125.352 85.9629 122.897C83.3708 119.641 80.0489 116.911 76.3243 115.057C75.2673 116.159 74.1601 117.211 73.0276 118.288C74.9402 119.14 76.7521 120.292 78.3627 121.67C80.6025 123.573 82.339 125.802 84.1257 128.107C85.5099 129.91 86.8688 131.889 87.5483 134.068C88.1271 135.972 88.2278 138.301 86.5668 139.729C85.1827 140.931 83.3959 140.881 81.735 140.255C77.4064 138.652 74.0845 135.195 70.1838 132.866C68.1454 131.638 65.8301 130.436 63.4645 129.66C62.8606 130.737 62.3069 131.839 61.9546 132.991C61.7533 133.592 61.6526 134.268 61.4009 134.844C60.7969 136.297 61.6778 135.32 62.2817 135.02C64.5718 133.868 67.6421 134.92 69.756 135.922C72.7759 137.374 75.6197 139.403 78.0608 141.682C78.3879 141.983 78.6899 142.309 78.9919 142.634C79.2184 142.809 79.4197 142.985 79.6462 143.16C81.6091 144.713 83.8489 146.041 85.686 147.719C86.1138 148.12 86.6423 148.796 86.9947 149.497C87.6993 146.742 88.8569 143.987 89.5364 141.257C89.9391 139.603 90.3669 137.925 90.7947 136.272C90.7947 134.594 90.6689 132.891 90.2159 131.213Z" fill="#F38483"/>
<path d="M151.495 128.858C149.255 129.735 147.015 130.812 144.625 131.213C142.838 131.513 140.12 130.236 142.108 128.382C144.398 126.253 147.821 125.151 150.664 124.024C152.325 123.373 153.986 122.747 155.647 122.096C155.723 122.071 155.823 122.02 155.899 121.995C155.396 121.119 154.892 120.267 154.364 119.466C152.728 118.789 150.438 119.215 148.853 119.516C146.663 119.917 144.474 120.518 142.385 121.344C137.855 123.173 135.162 127.255 132.948 131.413C130.607 135.796 128.518 140.656 124.693 143.987C120.818 147.393 115.885 148.32 110.852 148.546C107.933 148.671 104.988 148.596 102.069 148.52C99.6532 148.445 96.8598 148.796 94.5445 147.969C90.7948 146.642 90.669 142.835 90.7445 139.428C89.7379 143.361 88.7312 147.268 87.4729 151.125C87.4729 151.952 86.9948 152.578 85.5855 152.578C83.2451 152.578 80.9801 151.877 78.6649 151.626C77.9099 151.551 76.9787 151.401 76.0979 151.401C75.2675 151.251 74.4118 151.276 73.7323 151.702C72.625 152.403 73.5059 153.43 74.3867 153.73C74.6383 153.856 74.9907 153.956 75.4185 154.031C76.5006 154.382 77.5827 154.657 78.69 154.882C81.5086 155.434 84 155.784 86.7431 155.484C88.0769 155.459 89.5114 155.108 90.8451 154.682C91.2981 154.657 91.726 154.632 92.179 154.657C92.6823 154.682 93.1856 154.707 93.6889 154.732C94.1167 154.732 94.5697 154.732 94.9975 154.732C95.1233 154.732 95.1737 154.782 95.1989 154.857C97.187 155.033 99.1499 155.283 101.138 155.484C107.278 156.06 116.716 157.763 121.799 153.204C126.556 148.946 128.594 142.384 134.634 139.453C134.76 139.378 134.911 139.328 135.036 139.278C137.125 138.026 139.264 136.924 141.429 135.872C145.455 133.918 149.608 132.09 153.986 131.163C154.892 130.962 157.258 130.461 158.567 130.912C158.592 129.885 158.466 128.833 158.189 127.756C155.949 127.706 153.684 127.982 151.495 128.858Z" fill="#F38483"/>
<path d="M154.263 145.565C152.904 144.864 151.722 143.612 153.332 142.384C155.018 141.107 157.283 140.431 159.397 140.706C161.108 140.932 162.669 141.508 164.204 142.134C164.229 142.034 164.279 141.933 164.33 141.833C164.355 141.833 164.38 141.833 164.405 141.833C164.607 141.282 164.833 140.706 165.06 140.155C162.266 139.178 159.649 137.926 157.61 135.797C156.251 137.45 154.49 138.853 152.653 139.754C148.903 141.583 144.977 143.086 141.202 144.889C140.347 145.089 139.491 145.39 138.786 145.891C138.736 145.891 138.686 145.891 138.635 145.916C137.78 146.342 137.528 147.193 138.182 147.744C138.384 147.97 138.661 148.12 138.887 148.245C139.441 148.521 140.045 148.671 140.649 148.771C141.655 149.272 142.813 149.398 143.92 149.523C146.437 149.798 148.953 150.199 151.42 150.825C153.307 151.301 155.396 152.203 157.334 151.602C157.887 151.426 158.34 151.076 158.718 150.625C159.397 150.149 160.001 149.498 160.656 148.796C160.857 148.596 161.033 148.371 161.184 148.17C158.869 147.369 156.428 146.717 154.263 145.565Z" fill="#F38483"/>
</g>
<path d="M94.5696 95.8963C97.212 96.4974 100.886 97.3741 101.817 100.305C102.421 102.233 101.817 104.137 101.213 105.965C100.584 107.819 99.8796 109.798 100.786 111.576C101.037 111.125 101.314 110.699 101.591 110.248C103.629 106.967 106.398 104.187 108.864 101.231C110.55 99.2276 111.657 96.798 111.833 94.143C111.909 92.8155 112.06 91.6132 110.927 90.6364C110.399 90.1855 109.896 89.7597 109.317 89.384C105.517 86.8292 101.541 84.7753 96.9855 84.0489C93.3868 83.4728 89.7629 83.1472 86.1642 82.5962C86.1138 82.7715 86.0635 82.9468 86.0383 83.1472C85.7112 84.7753 85.4092 86.4034 85.2079 88.0565C84.931 90.3107 84.931 92.5901 84.78 94.8443C88.0516 94.8193 91.3735 95.1699 94.5696 95.8963Z" fill="#FDE4CB"/>
<path d="M87.3974 83.723C90.5683 84.1739 93.8147 84.5245 96.8849 85.5515C99.8293 86.5534 102.321 88.1564 104.712 90.1351C105.894 91.112 107.304 92.2141 108.033 93.5917C108.713 94.8941 108.688 96.4471 109.418 97.7495C109.77 98.3506 110.147 98.6261 110.525 98.7013C111.229 97.2986 111.682 95.7958 111.783 94.1928C111.859 92.8653 112.01 91.663 110.877 90.6862C110.349 90.2353 109.845 89.8095 109.267 89.4338C105.467 86.879 101.49 84.8251 96.9353 84.0987C93.3365 83.5227 89.7127 83.197 86.1139 82.646C86.0636 82.8213 86.0133 82.9967 85.9881 83.1971C85.9629 83.2972 85.9378 83.4225 85.9126 83.5227C86.4159 83.5727 86.9192 83.6479 87.3974 83.723Z" fill="#FDE4CB"/>
<path d="M111.003 103.035C113.117 102.81 115.206 103.386 117.32 103.436C119.459 103.511 121.447 103.06 123.309 102.008C129.173 98.752 133.728 90.9623 141.127 91.363C141.227 91.0624 141.328 90.7368 141.429 90.4362C142.284 88.1319 143.769 85.9027 144.448 83.5733C145.505 79.8914 140.472 81.7699 138.761 82.4462C137.125 83.1225 135.54 83.8739 133.929 84.6253C130.33 86.2784 126.832 88.1569 123.309 89.9353C120.415 91.388 117.596 92.966 114.526 93.993C113.796 94.2434 113.218 94.1683 112.79 93.8677C112.689 95.0951 112.312 96.3725 111.859 97.5246C110.55 100.731 108.134 103.235 105.869 105.815C107.253 104.388 108.864 103.285 111.003 103.035Z" fill="#FDE4CB"/>
<path d="M112.538 97.7498C113.268 97.1236 113.972 96.3972 114.828 95.9213C116.112 95.22 117.647 94.9195 119.031 94.4686C120.742 93.8925 122.453 93.3164 124.114 92.5901C126.782 91.4128 129.173 89.8849 131.614 88.3069C135.112 86.0527 139.944 82.8717 144.348 83.8986C144.373 83.7984 144.423 83.6983 144.448 83.6231C145.505 79.9412 140.472 81.8197 138.761 82.496C137.125 83.1723 135.54 83.9237 133.929 84.6751C130.33 86.3282 126.832 88.2068 123.309 89.9851C120.415 91.4379 117.596 93.0158 114.526 94.0428C113.796 94.2933 113.217 94.2181 112.79 93.9175C112.689 95.1449 112.312 96.4223 111.859 97.5744C111.733 97.9 111.557 98.2257 111.406 98.5513C111.783 98.3509 112.16 98.0754 112.538 97.7498Z" fill="#FDE4CB"/>
<path opacity="0.3" d="M102.094 110.649C103.025 109.446 103.931 108.119 104.913 106.917C103.931 108.069 102.975 109.321 102.094 110.649Z" fill="#F38483"/>
<path d="M180.939 115.983C179.781 114.13 178.573 112.301 177.365 110.498C174.698 106.515 171.753 102.683 168.18 99.4521C164.959 96.5466 161.385 93.9668 157.484 92.0131C155.068 90.8108 152.552 89.6837 149.985 88.807C149.456 88.6317 143.593 87.204 143.618 87.3543C143.643 87.4545 143.442 87.6549 143.366 87.5296C143.341 87.5046 143.341 87.4796 143.341 87.4545C142.787 88.757 142.259 90.0845 141.881 91.437C141.957 91.4871 142.007 91.5372 142.007 91.6374C142.007 92.4389 141.957 93.2655 141.856 94.067C141.554 97.0977 141.252 100.078 143.568 102.483C145.807 104.787 148.827 105.363 151.898 105.639C154.59 105.864 157.459 105.889 160.001 106.891C162.467 107.868 164.808 109.471 166.846 111.174C170.42 114.155 173.012 118.012 174.295 122.496C174.572 123.472 174.798 124.474 175 125.476C175.73 124.825 176.51 124.224 177.315 123.648C178.649 122.696 180.561 121.744 181.518 120.417C182.625 118.914 181.769 117.311 180.939 115.983Z" fill="#FDE4CB"/>
<path d="M152.426 92.0632C156.906 94.2924 161.486 96.2962 165.437 99.4271C169.011 102.282 172.358 105.413 175.856 108.319C173.591 105.138 171.099 102.082 168.18 99.4521C164.959 96.5466 161.385 93.9668 157.485 92.0131C155.069 90.8108 152.552 89.6837 149.985 88.807C149.457 88.6317 143.593 87.204 143.618 87.3543C143.643 87.4545 143.442 87.6549 143.366 87.5296C143.341 87.5046 143.341 87.4796 143.341 87.4545C143.115 87.9805 142.914 88.5065 142.687 89.0575C146.11 89.1327 149.457 90.5854 152.426 92.0632Z" fill="#FDE4CB"/>
<path opacity="0.3" d="M92.9085 103.01C92.6568 102.86 92.38 102.684 92.0528 102.584C92.0528 102.584 92.0528 102.559 92.0277 102.559C91.8012 102.309 91.323 102.209 91.021 102.158C90.1654 102.008 89.2846 102.785 89.1839 103.611C88.9826 105.239 90.6435 106.191 92.078 106.341C93.0343 106.441 93.9906 105.64 93.8899 104.613C93.8396 104.012 93.4118 103.311 92.9085 103.01Z" fill="#F38483"/>
<path opacity="0.3" d="M94.8969 111.752C94.7711 111.501 94.6453 111.276 94.4439 111.15C94.1671 110.975 93.8148 110.925 93.5128 110.9C92.6823 110.875 92.028 111.301 91.9273 112.152C91.8518 112.854 92.481 113.53 93.0095 113.906C93.6135 114.331 94.5446 115.083 95.2492 114.432C96.1552 113.58 95.7022 112.478 94.8969 111.752Z" fill="#F38483"/>
<path opacity="0.3" d="M125.876 130.036C125.096 129.41 123.812 130.662 123.385 131.213C123.309 131.313 123.259 131.414 123.183 131.489C123.561 130.888 123.208 131.414 123.083 131.564C122.856 131.814 122.655 132.115 122.453 132.415C122.353 132.566 122.277 132.716 122.227 132.866C121.698 133.543 121.271 134.344 121.447 135.095C121.522 135.396 121.724 135.446 122 135.371C123.284 135.045 124.265 134.018 125.146 133.092C125.8 132.415 126.908 130.862 125.876 130.036Z" fill="#F38483"/>
<path opacity="0.3" d="M144.197 115.609L144.172 115.584C144.197 115.509 144.172 115.433 144.096 115.383C143.996 115.333 143.895 115.308 143.794 115.308C143.643 115.283 143.467 115.308 143.291 115.333C143.14 115.383 142.989 115.459 142.863 115.559C142.863 115.559 142.863 115.559 142.838 115.559C142.662 115.609 142.536 115.734 142.385 115.834C142.058 116.085 141.554 117.036 142.184 117.237C142.335 117.287 142.511 117.262 142.662 117.187C142.737 117.212 142.813 117.212 142.913 117.212C143.291 117.187 143.618 116.961 143.87 116.686C144.121 116.46 144.373 115.984 144.197 115.609Z" fill="#F38483"/>
<path opacity="0.3" d="M109.065 130.537C108.562 130.387 108.008 130.261 107.455 130.236C106.977 130.086 106.398 130.161 105.844 130.387C105.039 130.587 104.309 130.988 103.806 131.664C103.554 131.99 103.252 132.591 103.629 132.942C103.705 133.017 103.806 133.092 103.906 133.142C104.032 133.317 104.183 133.468 104.41 133.568C105.668 134.094 106.8 133.843 108.059 133.543C109.644 133.167 111.255 131.238 109.065 130.537Z" fill="#F38483"/>
<path opacity="0.6" d="M80.4263 126.729C79.9482 126.529 79.4197 126.404 78.866 126.379C78.413 126.203 77.8594 126.304 77.3058 126.554C76.5256 126.805 75.8461 127.28 75.3428 128.107C75.0911 128.508 74.8143 129.209 75.1667 129.635C75.2422 129.735 75.3428 129.81 75.4435 129.86C75.5441 130.061 75.7203 130.261 75.9468 130.361C77.1548 130.987 78.2621 130.687 79.47 130.336C80.98 129.885 82.5403 127.581 80.4263 126.729Z" fill="#F38483"/>
<path opacity="0.6" d="M126.505 103.51C126.228 103.41 125.926 103.334 125.624 103.309C125.373 103.209 125.045 103.259 124.743 103.41C124.29 103.535 123.913 103.835 123.611 104.286C123.485 104.512 123.309 104.912 123.51 105.163C123.561 105.213 123.611 105.263 123.661 105.288C123.737 105.413 123.812 105.514 123.938 105.589C124.618 105.939 125.247 105.789 125.951 105.564C126.807 105.338 127.713 104.011 126.505 103.51Z" fill="#F38483"/>
<path opacity="0.3" d="M120.239 115.334C120.163 115.183 120.063 115.083 119.962 115.033C119.937 114.933 119.836 114.908 119.71 114.933C119.434 115.008 119.157 115.033 118.88 115.183C118.477 115.384 118.075 115.885 118.251 116.361C118.377 116.661 118.729 116.736 119.031 116.711C119.534 116.661 119.887 116.386 120.163 115.985C120.264 115.81 120.34 115.509 120.239 115.334Z" fill="#F38483"/>
<path opacity="0.3" d="M163.726 114.407C163.298 114.156 162.845 114.006 162.367 113.956C162.241 113.906 162.115 113.856 161.939 113.831C161.234 113.706 160.58 114.282 160.328 114.883C159.774 116.16 160.932 116.786 162.014 117.087C163.147 117.413 164.556 117.362 164.808 115.91C164.908 115.309 164.179 114.682 163.726 114.407Z" fill="#F38483"/>
<path opacity="0.3" d="M166.167 132.39C166.192 132.289 166.192 132.214 166.167 132.139C165.915 131.688 165.412 131.137 164.808 130.762C164.757 130.736 164.732 130.711 164.682 130.686C164.027 130.311 163.298 130.21 162.744 130.736C162.115 131.338 162.039 131.964 162.392 132.74C162.518 133.016 162.669 133.467 162.895 133.692C163.247 134.043 163.675 134.243 164.153 134.393C164.959 134.644 165.839 134.694 166.267 133.792C166.469 133.316 166.393 132.84 166.167 132.39Z" fill="#F38483"/>
<path opacity="0.3" d="M152.904 106.842C152.929 106.616 152.703 106.491 152.501 106.566C152.426 106.591 152.376 106.616 152.3 106.666C152.048 106.742 151.872 106.967 151.772 107.218C151.696 107.393 151.721 107.593 151.923 107.668C152.124 107.744 152.3 107.693 152.451 107.593C152.501 107.618 152.552 107.668 152.577 107.693C152.728 107.819 153.005 107.543 153.055 107.393C153.105 107.167 153.055 106.992 152.904 106.842Z" fill="#F38483"/>
<path opacity="0.3" d="M156.881 100.806C155.773 100.054 154.364 99.3528 153.005 99.4529C151.898 99.5281 151.168 100.705 151.47 101.707C151.596 102.133 151.998 102.484 152.502 102.734C153.257 103.41 154.339 103.836 155.295 104.037C156.503 104.312 158.315 105.239 158.994 103.611C159.498 102.283 157.761 101.407 156.881 100.806Z" fill="#F38483"/>
<path opacity="0.3" d="M129.701 92.7149C129.601 92.4895 129.424 92.3893 129.198 92.3642C129.173 92.3142 129.097 92.3142 128.997 92.3392C128.518 92.4644 127.99 92.5145 127.587 92.8402C127.285 93.0656 127.059 93.4162 126.933 93.7418C126.606 94.5684 127.386 95.0193 128.116 94.869C128.594 94.7938 129.047 94.5183 129.324 94.1676C129.651 93.7919 129.928 93.1908 129.701 92.7149Z" fill="#F38483"/>
<path opacity="0.3" d="M117.32 100.481C117.295 100.256 117.068 100.205 116.892 100.155C116.54 100.055 116.162 100.105 115.81 100.08C115.458 100.03 115.156 100.306 114.979 100.581C114.854 100.807 114.753 101.232 115.08 101.333C115.206 101.358 115.307 101.383 115.432 101.408C115.558 101.458 115.684 101.508 115.81 101.533C116.363 101.683 116.942 101.558 117.219 101.007C117.295 100.832 117.345 100.656 117.32 100.481Z" fill="#F38483"/>
<path opacity="0.3" d="M104.233 98.5014C104.233 98.3762 104.133 98.2509 104.057 98.1257C104.007 98.0255 103.956 97.9253 103.881 97.8251C103.78 97.5997 103.68 97.3993 103.554 97.1989C103.227 96.6228 102.321 95.3705 101.49 95.646C99.4266 96.3724 101.692 99.5534 103.076 99.7036C103.403 99.7287 103.73 99.5283 103.906 99.2528C104.158 99.0274 104.233 98.827 104.233 98.5014Z" fill="#F38483"/>
<path opacity="0.6" d="M110.902 90.6862C110.374 90.2354 109.871 89.8096 109.292 89.4339C105.492 86.879 101.515 84.8252 96.9605 84.0988C94.7459 83.7482 92.5312 83.4977 90.3167 83.2222C92.3048 83.8483 94.469 84.174 96.3565 84.75C99.2505 85.6017 102.874 87.4552 103.101 90.8616C103.277 93.3413 102.019 95.6957 100.71 97.7245C98.9486 100.48 96.9353 103.06 94.8717 105.614C90.367 111.15 85.9126 116.635 82.7417 123.097C81.8358 124.951 81.1059 126.854 80.351 128.758C79.9231 129.785 79.6463 130.887 79.1682 131.914C78.086 134.193 76.4754 134.945 74.0092 134.619C72.6502 134.444 71.3164 134.043 69.9574 133.843C68.7243 133.642 67.4157 133.768 66.1826 133.993C65.2514 134.168 64.3203 134.394 63.4143 134.719C65.5282 134.294 67.9694 135.145 69.7561 136.022C72.776 137.475 75.6198 139.503 78.0609 141.783C78.388 142.083 78.69 142.409 78.992 142.734C79.2185 142.91 79.4198 143.085 79.6463 143.26C81.6092 144.813 83.849 146.141 85.6861 147.819C86.1139 148.22 86.6424 148.896 86.9948 149.597C87.6994 146.842 88.857 144.087 89.5365 141.357C90.4928 137.475 91.4491 133.567 92.6823 129.76C93.9405 125.878 95.4505 122.121 97.1366 118.414C97.8161 116.936 98.4956 115.433 99.3512 114.03C99.4015 113.955 99.5525 113.705 99.779 113.404C100.308 112.402 100.886 111.4 101.515 110.373C103.554 107.092 106.322 104.312 108.788 101.356C110.475 99.3526 111.582 96.923 111.758 94.268C111.884 92.8403 112.035 91.638 110.902 90.6862Z" fill="#F38483"/>
<path opacity="0.6" d="M91.3735 148.595C91.7258 145.314 92.3801 142.008 93.1351 138.802C94.645 132.315 96.8848 126.028 99.9802 120.142C101.591 117.061 103.378 114.105 105.466 111.35C107.53 108.62 109.77 105.99 111.556 103.084C112.538 101.506 113.318 99.9034 113.947 98.1751C114.451 96.8225 114.904 95.3948 115.709 94.1926C115.91 93.867 116.137 93.5914 116.388 93.3159C115.784 93.5664 115.155 93.8169 114.501 94.0173C113.771 94.2677 113.192 94.1926 112.764 93.892C112.664 95.1193 112.286 96.3967 111.833 97.5489C110.399 101.106 107.605 103.786 105.114 106.641C103.554 108.419 102.044 110.448 100.836 112.627C99.6027 114.431 98.4702 116.284 97.6901 118.313C97.4384 118.839 97.1868 119.365 96.9351 119.916C95.4503 123.373 94.0159 126.854 93.0092 130.486C91.0966 137.399 89.6118 144.312 87.3972 151.125C87.3972 151.952 86.9191 152.578 85.5098 152.578C83.1694 152.578 80.9044 151.876 78.5892 151.626C77.8342 151.551 76.9031 151.401 76.0223 151.401C75.1918 151.25 74.3361 151.275 73.6567 151.701C72.5494 152.402 73.4302 153.429 74.311 153.73C74.5626 153.855 74.9149 153.955 75.3428 154.03C76.4249 154.381 77.507 154.657 78.6143 154.882C81.4329 155.433 83.9243 155.784 86.6674 155.483C88.0012 155.458 89.4357 155.108 90.7695 154.682C91.0966 154.657 91.4489 154.657 91.7761 154.657C91.298 152.703 91.147 150.674 91.3735 148.595Z" fill="#F38483"/>
<path opacity="0.6" d="M151.847 115.959C148.022 111.05 142.46 106.041 140.875 99.8039C140.07 96.648 140.321 93.492 141.454 90.4362C142.309 88.1319 143.794 85.9027 144.474 83.5733C145.531 79.8914 140.497 81.7699 138.786 82.4462C137.15 83.1225 135.565 83.8739 133.954 84.6253C130.683 86.1281 127.487 87.8063 124.291 89.4594C124.341 89.4344 124.391 89.4344 124.441 89.4093C126.43 88.9084 128.393 88.207 130.28 87.3805C131.261 86.9547 133.703 85.4769 134.634 86.7042C135.288 87.5558 135.062 88.8833 134.961 89.8602C134.785 91.4382 134.508 92.9911 134.231 94.544C133.552 98.3762 133.3 102.133 133.979 105.991C134.609 109.497 135.691 113.129 137.427 116.26C138.308 117.838 139.34 119.316 140.623 120.593C141.554 121.545 142.687 122.196 143.693 123.023C145.329 124.35 146.386 126.053 145.556 128.182C143.945 132.265 139.39 134.269 136.295 137.074C135.213 138.051 134.206 139.128 133.25 140.255C133.703 139.955 134.181 139.679 134.709 139.429C134.835 139.354 134.986 139.303 135.112 139.253C137.201 138.001 139.34 136.899 141.504 135.847C145.531 133.893 149.683 132.065 154.062 131.138C154.968 130.938 157.333 130.437 158.642 130.888C158.843 125.703 154.59 119.441 151.847 115.959Z" fill="#F38483"/>
<path opacity="0.6" d="M180.939 115.984C179.782 114.131 178.574 112.302 177.366 110.499C175.025 106.992 172.458 103.611 169.464 100.655C171.678 104.287 174.119 107.819 175.604 111.826C176.359 113.88 177.189 116.535 175.881 118.539C174.874 120.067 173.289 120.718 171.628 121.344C169.338 122.221 167.551 123.398 167.073 125.978C166.469 129.284 165.286 132.44 163.751 135.446C162.216 138.502 160.504 141.582 158.567 144.413C157.258 146.316 155.622 148.045 153.458 148.996C151.973 149.648 150.388 150.023 148.727 150.224C149.633 150.399 150.514 150.574 151.42 150.8C153.307 151.276 155.396 152.177 157.334 151.576C157.887 151.401 158.34 151.05 158.718 150.6C159.397 150.124 160.001 149.472 160.655 148.771C162.266 147.018 163.222 145.014 164.028 142.835C164.003 142.835 163.977 142.835 163.952 142.835C164.078 142.534 164.204 142.209 164.305 141.908C164.33 141.908 164.355 141.908 164.38 141.908C167.048 134.72 170.973 128.257 177.366 123.724C178.699 122.772 180.612 121.82 181.568 120.493C182.625 118.915 181.77 117.312 180.939 115.984Z" fill="#F38483"/>
<path opacity="0.6" d="M146.839 108.119C148.978 110.774 151.394 113.454 153.533 116.285C153.307 114.707 153.76 113.204 153.861 111.626C153.986 109.622 153.936 107.593 153.609 105.614C153.307 103.761 152.879 101.932 152.376 100.104C152.023 98.8266 151.545 97.5993 151.218 96.3219C150.715 94.268 150.438 91.638 152.2 90.06C152.325 89.9598 152.426 89.8597 152.552 89.7595C151.696 89.4088 150.841 89.0832 149.985 88.7826C149.457 88.6073 143.593 87.1796 143.618 87.3299C143.643 87.4301 143.442 87.6305 143.366 87.5052C143.341 87.4802 143.341 87.4551 143.341 87.4301C141.655 91.4126 140.296 95.6706 141.882 99.9287C143.039 102.959 144.826 105.614 146.839 108.119Z" fill="#F38483"/>
<path opacity="0.9" d="M76.2741 147.519C77.2556 146.141 78.3628 144.914 79.2436 143.461C79.5205 143.687 79.7973 143.937 80.0993 144.163C81.1059 145.039 82.1377 145.891 83.0689 146.818C83.7484 147.394 84.4027 147.945 85.0821 148.521C86.0133 149.297 87.8504 151.702 85.2583 151.727C83.7987 151.752 82.2636 151.326 80.8039 151.076C78.7403 150.725 75.5443 149.999 73.5813 151.101L73.5562 151.126C74.3615 149.874 75.4436 148.671 76.2741 147.519Z" fill="#F38483"/>
<path opacity="0.9" d="M139.466 141.933C139.768 141.282 140.095 140.655 140.472 140.029C140.724 139.629 141.001 139.228 141.278 138.827C141.68 138.151 142.611 136.848 142.46 136.022C144.021 135.32 145.581 134.644 147.141 134.018C149.557 133.066 152.049 132.34 154.616 131.814C155.295 131.664 156 131.563 156.679 131.488C158.063 131.338 158.441 131.889 158.39 132.64C158.164 133.442 157.812 134.193 157.308 134.895C157.006 135.671 156.428 136.347 155.874 136.923C154.943 137.825 153.936 138.451 152.804 138.827C149.834 140.555 146.411 141.632 143.366 143.01C141.781 143.736 139.642 144.438 138.082 145.64C138.233 144.312 138.811 143.11 139.466 141.933Z" fill="#F38483"/>
<path opacity="0.3" d="M141.202 96.0467C141.252 95.145 141.378 94.2684 141.454 93.3667C141.278 94.2684 141.202 95.1701 141.202 96.0467Z" fill="#F38483"/>
<path opacity="0.6" d="M139.063 112.026C138.811 111.926 138.535 111.851 138.258 111.851C138.031 111.751 137.729 111.801 137.452 111.926C137.05 112.052 136.672 112.302 136.421 112.728C136.295 112.928 136.144 113.304 136.345 113.529C136.396 113.579 136.446 113.604 136.496 113.655C136.547 113.755 136.647 113.855 136.748 113.93C137.377 114.256 137.956 114.105 138.61 113.905C139.365 113.68 140.196 112.477 139.063 112.026Z" fill="#F38483"/>
<path opacity="0.6" d="M114.275 123.573C114.023 123.473 113.746 123.398 113.469 123.398C113.243 123.298 112.941 123.348 112.664 123.473C112.261 123.598 111.884 123.849 111.632 124.275C111.506 124.475 111.355 124.851 111.557 125.076C111.607 125.126 111.657 125.151 111.708 125.201C111.758 125.302 111.859 125.402 111.959 125.477C112.588 125.803 113.167 125.652 113.822 125.452C114.551 125.226 115.382 124.024 114.275 123.573Z" fill="#F38483"/>
<path opacity="0.6" d="M114.275 151.577C114.023 151.477 113.746 151.401 113.469 151.376C113.243 151.276 112.941 151.326 112.664 151.477C112.261 151.602 111.884 151.852 111.632 152.278C111.506 152.478 111.355 152.854 111.557 153.08C111.607 153.13 111.657 153.155 111.708 153.205C111.758 153.305 111.859 153.405 111.959 153.48C112.588 153.806 113.167 153.656 113.822 153.455C114.551 153.255 115.382 152.028 114.275 151.577Z" fill="#F38483"/>
<path opacity="0.6" d="M98.8479 139.253C98.6466 139.178 98.4201 139.128 98.2188 139.103C98.0426 139.028 97.791 139.078 97.5896 139.178C97.2625 139.278 96.9857 139.479 96.7843 139.804C96.6837 139.98 96.5578 140.255 96.7088 140.431C96.734 140.481 96.7843 140.506 96.8095 140.531C96.8598 140.606 96.9101 140.681 97.0108 140.731C97.5141 140.982 97.9671 140.856 98.4704 140.731C99.0996 140.556 99.7287 139.604 98.8479 139.253Z" fill="#F38483"/>
<path opacity="0.3" d="M167.727 124.199C167.702 124.124 167.677 124.049 167.652 123.974C167.677 123.899 167.677 123.824 167.652 123.774C167.626 123.573 167.526 123.448 167.375 123.373C167.199 123.072 166.972 122.797 166.645 122.747C166.318 122.697 166.091 122.947 165.915 123.198C165.689 123.548 165.689 123.974 165.94 124.3C166.041 124.425 166.167 124.55 166.293 124.65C166.418 124.725 166.544 124.801 166.67 124.801C166.796 124.826 166.922 124.801 167.048 124.725C167.048 124.75 167.073 124.75 167.073 124.776C167.324 125.126 167.828 124.5 167.727 124.199Z" fill="#F38483"/>
</svg>
