<svg width="200" height="200" viewBox="0 0 200 200" fill="none" xmlns="http://www.w3.org/2000/svg">
<path d="M64.3646 41.5982C42.5245 54.2083 25.0597 82.5032 34.7807 99.3594C44.5016 116.216 77.7653 115.246 99.6054 102.635C121.445 90.0254 131.258 66.1412 121.519 49.285C111.798 32.4289 86.2047 28.9881 64.3646 41.5982Z" fill="#FFBF83"/>
<path d="M35.9049 81.6731C34.0925 91.9955 36.3809 98.6208 42.7883 101.494C46.0469 102.958 42.7883 86.633 57.2874 81.6731C72.7933 76.3656 76.2533 81.8928 79.933 79.9711C85.1871 77.2257 85.5349 64.3045 100.089 60.1683C110.597 57.2033 118.817 58.7224 124.748 64.7621L76.3082 101.494C76.3082 101.494 59.5415 115.914 48.4634 112.274C26.3487 101.494 32.9099 81.6731 32.9099 81.6731H35.9049Z" fill="url(#paint0_linear_9002_25697)" fill-opacity="0.8"/>
<path d="M105.006 133.694C84.6854 123.335 75.5686 100.476 84.6671 82.6311C93.7656 64.7867 117.619 58.7104 137.94 69.0693C158.261 79.4283 174.499 105.911 165.419 123.756C156.32 141.619 125.345 144.053 105.006 133.694Z" fill="#FFD5A6"/>
<path d="M121.647 65.7563C104.42 71.9607 95.7978 78.3847 95.7978 85.0284C95.7978 95.003 110.077 93.9781 118.572 105.289C127.066 116.599 121.757 128.679 128.476 131.991C135.194 135.304 146.38 134.462 154.508 127.819C159.927 123.389 163.716 116.965 165.895 108.528C167.103 118.869 165.034 126.684 159.689 131.991C151.689 139.953 134.059 140.978 134.059 140.227C134.059 139.459 128.476 141.472 111.285 137.317C94.0769 133.163 85.253 99.0111 82.4704 91.6537C79.6877 84.2963 82.4887 82.5942 88.1638 75.914C93.8389 69.2337 96.6216 68.1356 104.402 65.7746C109.583 64.1824 115.331 64.1824 121.647 65.7563Z" fill="#FFCA91"/>
<path d="M55.2669 145.45C70.1451 162.563 98.5801 172.765 112.336 160.813C126.091 148.861 119.939 119.304 105.063 102.172C90.1866 85.0402 66.9711 80.871 53.2156 92.8229C39.4602 104.775 40.3887 128.336 55.2669 145.45Z" fill="#FFDEB9"/>
<path d="M81.9597 88.004C71.6383 92.3298 65.1393 101.272 62.466 114.793C58.4542 135.093 90.8806 166.509 103.969 163.008C112.682 160.666 117.767 157.998 119.191 154.964C114.295 162.657 105.672 165.892 93.3037 164.648C74.7781 162.793 67.8943 158.058 56.3128 148.633C44.7129 139.207 40.6385 114.579 41.8431 109.424C43.0495 104.25 44.5964 99.1682 53.4242 91.5385C59.2974 86.4507 68.8104 85.2605 81.9597 88.004Z" fill="#FCD0A1"/>
<g opacity="0.6" style="mix-blend-mode:soft-light">
<path d="M93.9324 113.183C94.9959 114.21 96.0984 115.176 97.1768 116.025C98.2552 116.875 99.2885 117.591 100.218 118.134C101.147 118.677 101.954 119.035 102.592 119.188C103.231 119.342 103.688 119.287 103.939 119.028C104.189 118.769 104.228 118.309 104.052 117.677C103.877 117.044 103.49 116.251 102.916 115.341C102.341 114.432 101.588 113.424 100.702 112.376C99.815 111.328 98.8112 110.26 97.7477 109.234C96.6842 108.207 95.5818 107.241 94.5033 106.392C93.4249 105.542 92.3916 104.826 91.4625 104.283C90.5333 103.74 89.7265 103.382 89.0881 103.229C88.4497 103.075 87.9922 103.13 87.7416 103.389C87.4911 103.648 87.4526 104.107 87.6281 104.74C87.8037 105.373 88.1899 106.166 88.7648 107.076C89.3397 107.985 90.0919 108.993 90.9786 110.041C91.8653 111.088 92.869 112.156 93.9325 113.183H93.9324Z" fill="white"/>
</g>
<g opacity="0.6" style="mix-blend-mode:soft-light">
<path d="M107.956 126.104C108.23 126.544 108.542 126.955 108.873 127.313C109.205 127.671 109.55 127.969 109.889 128.19C110.228 128.411 110.554 128.551 110.848 128.602C111.142 128.653 111.399 128.613 111.603 128.485C111.807 128.358 111.956 128.144 112.039 127.858C112.122 127.571 112.139 127.217 112.089 126.816C112.039 126.414 111.922 125.974 111.746 125.519C111.569 125.064 111.337 124.604 111.061 124.165C110.788 123.722 110.475 123.309 110.143 122.948C109.81 122.588 109.464 122.287 109.124 122.064C108.783 121.841 108.456 121.699 108.16 121.648C107.865 121.596 107.607 121.636 107.402 121.764C107.197 121.892 107.048 122.106 106.965 122.394C106.882 122.683 106.865 123.039 106.917 123.442C106.968 123.846 107.087 124.289 107.265 124.746C107.444 125.203 107.679 125.665 107.956 126.104H107.956ZM134.42 80.9726C135.228 81.561 136.07 82.0864 136.899 82.5185C137.728 82.9506 138.527 83.281 139.249 83.4907C139.972 83.7005 140.605 83.7855 141.111 83.7408C141.617 83.6961 141.987 83.5227 142.2 83.2304C142.412 82.9382 142.463 82.5328 142.349 82.0377C142.235 81.5425 141.959 80.9672 141.536 80.3448C141.113 79.7224 140.552 79.0651 139.885 78.4106C139.218 77.7561 138.457 77.1173 137.648 76.5307C136.84 75.9423 135.997 75.417 135.169 74.9849C134.34 74.5528 133.541 74.2224 132.818 74.0126C132.096 73.8029 131.463 73.7179 130.957 73.7625C130.45 73.8072 130.08 73.9806 129.868 74.2729C129.656 74.5652 129.605 74.9705 129.719 75.4657C129.833 75.9608 130.109 76.5361 130.532 77.1585C130.955 77.7809 131.516 78.4382 132.183 79.0927C132.85 79.7472 133.61 80.3861 134.42 80.9726Z" fill="white"/>
</g>
<g opacity="0.6" style="mix-blend-mode:soft-light">
<path d="M144.88 88.1283C145.176 88.6017 145.623 88.9535 146.124 89.1063C146.624 89.2591 147.137 89.2004 147.548 88.9432C147.96 88.6859 148.237 88.2511 148.319 87.7345C148.401 87.2179 148.281 86.6617 147.985 86.1883C147.838 85.9539 147.653 85.7469 147.44 85.5791C147.226 85.4113 146.989 85.286 146.741 85.2104C146.494 85.1347 146.24 85.1102 145.996 85.1382C145.751 85.1662 145.521 85.2461 145.317 85.3735C145.113 85.5009 144.94 85.6732 144.808 85.8806C144.675 86.088 144.586 86.3264 144.546 86.5822C144.505 86.838 144.514 87.1062 144.571 87.3715C144.629 87.6368 144.734 87.894 144.88 88.1283Z" fill="white"/>
</g>
<defs>
<linearGradient id="paint0_linear_9002_25697" x1="42.7517" y1="73.2319" x2="78.3637" y2="112.872" gradientUnits="userSpaceOnUse">
<stop stop-color="#F2A264" stop-opacity="0"/>
<stop offset="1" stop-color="#F2A264"/>
</linearGradient>
</defs>
</svg>
