<svg width="200" height="200" viewBox="0 0 200 200" fill="none" xmlns="http://www.w3.org/2000/svg">
<path d="M152.971 62.8987C152.692 62.9001 152.417 62.8355 152.169 62.7104C151.921 62.5853 151.707 62.4032 151.544 62.1794C151.382 61.9556 151.275 61.6965 151.234 61.4237C151.193 61.151 151.219 60.8725 151.309 60.6115C152.802 56.3718 152.689 49.4544 147.929 46.5256C147.169 47.7685 146.006 48.7204 144.631 49.2268C143.255 49.7331 141.748 49.7642 140.352 49.3149C139.768 49.229 139.208 49.0252 138.707 48.716C138.206 48.4069 137.774 47.999 137.438 47.5178C137.103 47.0365 136.871 46.4922 136.757 45.9184C136.643 45.3447 136.649 44.7539 136.775 44.1826C136.886 43.7834 137.085 43.4137 137.357 43.1001C137.63 42.7865 137.97 42.537 138.352 42.3696C140.581 41.6849 142.955 41.6079 145.225 42.1464C145.19 41.5401 144.974 40.9577 144.605 40.4729C142.662 37.9904 136.155 38.102 131.564 38.1857C129.43 38.3187 127.287 38.2346 125.171 37.9346C124.582 37.8214 124.012 37.6241 123.481 37.3489C123.072 37.6598 122.627 37.9219 122.157 38.1299C114.298 41.3933 103.37 39.8034 99.4266 31.603C99.2494 31.1918 99.2399 30.7286 99.4001 30.3106C99.5603 29.8926 99.8778 29.5523 100.286 29.3611C100.694 29.1699 101.161 29.1426 101.589 29.2849C102.017 29.4273 102.372 29.7282 102.581 30.1246C105.623 36.4563 114.158 37.572 120.495 35.1453C119.111 33.821 118.252 32.0499 118.073 30.1525C118.073 29.1205 118.411 26.6659 122.1 25.9407C126.241 25.2155 127.367 27.419 127.734 28.3953C127.935 29.5119 127.896 30.658 127.619 31.7587C127.343 32.8594 126.835 33.8898 126.128 34.7827C127.928 34.9286 129.736 34.9286 131.536 34.7827C137.169 34.7827 144.38 34.5596 147.394 38.4088C148.404 39.7749 148.857 41.4683 148.661 43.1506H148.83C155.506 46.4977 156.689 55.2282 154.463 61.7272C154.356 62.0446 154.157 62.3243 153.892 62.5322C153.627 62.7402 153.307 62.8675 152.971 62.8987ZM140.211 45.4378C140.408 45.8004 141.169 45.9956 141.282 46.0235C141.788 46.1675 142.321 46.1997 142.842 46.1178C143.362 46.0359 143.859 45.8418 144.295 45.5494C142.948 45.3079 141.571 45.2703 140.211 45.4378ZM123.65 29.2042C123.35 29.1787 123.048 29.1787 122.748 29.2042C121.565 29.4552 121.565 29.8178 121.565 29.9852C121.745 31.0566 122.28 32.0382 123.086 32.7745C123.557 32.1061 123.928 31.3731 124.185 30.5988C124.318 30.1909 124.318 29.7516 124.185 29.3436C124.018 29.2618 123.836 29.2144 123.65 29.2042Z" fill="url(#paint0_linear_7002_11883)"/>
<path d="M91.2865 48.4225C91.0571 48.4225 90.8301 48.3777 90.6182 48.2908C90.4063 48.2039 90.2138 48.0765 90.0516 47.9159C89.8895 47.7554 89.7608 47.5647 89.6731 47.3549C89.5853 47.1451 89.5402 46.9202 89.5402 46.6931C89.7209 41.6067 91.5993 36.7232 94.8815 32.8067C98.1636 28.8902 102.664 26.1617 107.679 25.0483C107.903 24.9952 108.135 24.9862 108.362 25.022C108.59 25.0577 108.808 25.1374 109.004 25.2566C109.2 25.3757 109.37 25.5319 109.506 25.7164C109.641 25.9008 109.738 26.1097 109.792 26.3313C109.845 26.553 109.854 26.7829 109.818 27.0079C109.782 27.233 109.702 27.4488 109.581 27.6431C109.461 27.8373 109.303 28.0062 109.117 28.1401C108.931 28.274 108.72 28.3702 108.496 28.4233C104.221 29.3052 100.37 31.5874 97.5642 34.9019C94.7588 38.2165 93.1625 42.3702 93.0328 46.6931C93.0328 46.9202 92.9876 47.1451 92.8998 47.3549C92.8121 47.5647 92.6834 47.7554 92.5213 47.9159C92.3591 48.0765 92.1666 48.2039 91.9547 48.2908C91.7429 48.3777 91.5158 48.4225 91.2865 48.4225Z" fill="url(#paint1_linear_7002_11883)"/>
<path d="M53.8255 120.218C51.8258 120.246 49.8445 119.837 48.0233 119.018C46.2036 118.08 44.5928 116.789 43.2864 115.222C41.9801 113.655 41.0048 111.845 40.4184 109.897C38.3582 103.588 38.791 96.7405 41.6295 90.7351C45.2066 83.734 52.22 76.2866 61.3459 76.2866C64.1 76.3236 66.8121 76.9617 69.2887 78.1554C71.359 79.0105 73.227 80.2828 74.7739 81.8915C76.3207 83.5001 77.5126 85.41 78.2738 87.4995C79.854 93.9294 78.833 100.716 75.429 106.411C73.2663 110.306 70.1595 113.607 66.3884 116.017C62.6172 118.427 58.3001 119.871 53.8255 120.218Z" fill="#C9C540"/>
<g opacity="0.4" style="mix-blend-mode:soft-light">
<path d="M63.1203 90.5684C73.4009 98.3784 71.0631 109.591 65.6834 117.82C70.3084 115.243 74.1134 111.436 76.6682 106.83C81.541 97.3185 83.1465 83.2047 69.5703 76.9009C55.9942 70.5972 45.5727 80.4433 40.6155 89.8432C43.9603 87.587 47.9424 86.4414 51.9873 86.5717C56.0322 86.7021 59.9307 88.1016 63.1203 90.5684Z" fill="#B2A93D"/>
</g>
<path d="M61.0924 75.0879V77.5146C63.6619 77.5552 66.1909 78.1551 68.5001 79.2718C70.4365 80.0473 72.1882 81.2144 73.6432 82.6985C75.0982 84.1825 76.2245 85.951 76.9499 87.8907C78.551 93.9766 77.6921 100.441 74.5558 105.909C72.4941 109.633 69.5256 112.788 65.9201 115.087C62.3146 117.386 58.1863 118.757 53.91 119.075C52.0949 119.1 50.2967 118.728 48.6429 117.987C46.978 117.123 45.5047 115.937 44.3099 114.5C43.1151 113.063 42.2228 111.403 41.6859 109.619C39.6859 103.639 40.0483 97.1311 42.6998 91.4052C46.1079 84.7388 52.7552 77.5982 61.205 77.5982V75.1716M61.205 75.1716C51.6849 75.1716 44.3053 82.87 40.531 90.2895C35.6583 99.8009 37.7144 115.588 47.6289 120.218C49.609 121.11 51.7633 121.557 53.9382 121.529C58.6633 121.211 63.231 119.717 67.2188 117.187C71.2066 114.656 74.4857 111.171 76.7528 107.053C81.6255 97.5416 83.231 83.4278 69.6549 77.1241C67.0219 75.8503 64.1353 75.1738 61.205 75.1437V75.1716Z" fill="#BCB828"/>
<g opacity="0.6" style="mix-blend-mode:soft-light">
<path d="M52.6707 105.212C53.404 104.882 54.0617 104.407 54.604 103.817C55.1463 103.227 55.5617 102.534 55.8252 101.78C56.0886 101.026 56.1945 100.227 56.1364 99.4313C56.0784 98.6356 55.8575 97.8599 55.4873 97.1513C54.6831 95.7287 53.3579 94.6664 51.7854 94.1836C50.2129 93.7009 48.5132 93.8346 47.0375 94.5573C46.3042 94.8877 45.6465 95.3624 45.1042 95.9524C44.5619 96.5424 44.1464 97.2355 43.883 97.9894C43.6196 98.7434 43.5137 99.5425 43.5717 100.338C43.6298 101.134 43.8507 101.91 44.2208 102.618C45.0251 104.041 46.3503 105.103 47.9228 105.586C49.4953 106.069 51.1949 105.935 52.6707 105.212Z" fill="#E2DA71"/>
</g>
<g opacity="0.6" style="mix-blend-mode:soft-light">
<path d="M49.009 103.064C49.4443 102.862 49.8336 102.575 50.1535 102.22C50.4734 101.865 50.7171 101.449 50.8698 100.998C51.0226 100.547 51.0812 100.069 51.0422 99.5951C51.0031 99.1208 50.8672 98.6592 50.6426 98.2385C50.16 97.385 49.3653 96.7473 48.4221 96.4567C47.4789 96.1661 46.4591 96.2448 45.5727 96.6765C45.1375 96.8782 44.7481 97.1653 44.4282 97.5205C44.1084 97.8756 43.8647 98.2914 43.7119 98.7426C43.5591 99.1938 43.5005 99.671 43.5396 100.145C43.5786 100.62 43.7145 101.081 43.9391 101.502C44.4217 102.355 45.2164 102.993 46.1596 103.284C47.1028 103.574 48.1226 103.496 49.009 103.064Z" fill="#FCF5D4"/>
</g>
<path d="M69.2605 86.8859C67.5113 86.8837 65.7794 86.5426 64.1625 85.8817C62.3002 85.012 60.6328 83.7815 59.2588 82.2628C57.8849 80.7441 56.8323 78.9681 56.1633 77.0397C53.7603 70.8569 53.8511 63.9957 56.4168 57.8774C59.7967 50.5137 66.7256 42.6758 76.1331 42.6758C78.6736 42.7037 81.1827 43.2348 83.5127 44.2378C85.6205 45.015 87.5424 46.2171 89.1569 47.7679C90.7714 49.3187 92.0433 51.1845 92.892 53.2472C94.8547 59.5518 94.2586 66.3657 91.2302 72.2422C87.5686 80.1916 77.6259 86.8859 69.4859 86.8859H69.2605Z" fill="#C9C540"/>
<path d="M75.9079 43.8758C78.2846 43.9081 80.6309 44.4108 82.8086 45.3542C84.7656 46.0756 86.5498 47.192 88.0481 48.6325C89.5463 50.073 90.7259 51.8061 91.5119 53.722C93.3602 59.7281 92.7743 66.2109 89.8783 71.7965C86.4139 79.3555 76.95 85.7429 69.2325 85.7429C67.6015 85.7636 65.9828 85.4601 64.4724 84.8504C62.7633 84.0305 61.2373 82.8801 59.9844 81.4669C58.7315 80.0537 57.7771 78.4063 57.1773 76.622C54.9276 70.7402 55.0081 64.2334 57.4027 58.408C60.6136 51.4069 67.1763 43.9037 75.8797 43.9037M75.8797 41.4771C66.0215 41.4771 58.7546 49.6496 55.1775 57.4038C50.7273 67.1105 53.3467 82.7863 63.6274 87.026C65.4141 87.7537 67.3288 88.1234 69.2606 88.1138C78.3865 88.1138 88.4418 80.7222 92.1034 72.7449C96.5537 63.0382 97.5959 48.8965 83.6536 43.1227C81.172 42.0579 78.4996 41.4983 75.7952 41.4771H75.8797Z" fill="#BCB828"/>
<g opacity="0.4" style="mix-blend-mode:soft-light">
<path d="M90.4133 57.0966C90.0755 54.911 89.149 52.8561 87.7314 51.1479C86.3138 49.4397 84.4575 48.1415 82.3578 47.3899C80.5789 46.6206 78.6652 46.2037 76.7246 46.1626C74.4014 46.1852 72.1263 46.8207 70.1337 48.0035C74.969 49.1735 79.2772 51.896 82.3854 55.7461C85.4936 59.5962 87.2271 64.3572 87.3151 69.2857C87.3115 70.2188 87.2456 71.1506 87.1179 72.075C87.6218 71.3304 88.0645 70.5469 88.4417 69.732C90.3122 65.7956 90.9967 61.4085 90.4133 57.0966Z" fill="#B2A93D"/>
</g>
<g opacity="0.6" style="mix-blend-mode:soft-light">
<path d="M66.0778 68.7556C66.9026 68.767 67.7214 68.6232 68.4877 68.3324C69.2539 68.0416 69.9525 67.6094 70.5435 67.0607C71.1346 66.5119 71.6065 65.8573 71.9324 65.1342C72.2583 64.411 72.4317 63.6335 72.4428 62.8461C72.4539 62.0586 72.3025 61.2766 71.9971 60.5447C71.6917 59.8129 71.2384 59.1454 70.6631 58.5805C70.0878 58.0157 69.4016 57.5644 68.6439 57.2525C67.8862 56.9406 67.0717 56.7742 66.2469 56.7628C64.5812 56.7398 62.9749 57.3495 61.7812 58.4577C60.5875 59.566 59.9043 61.082 59.8819 62.6724C59.8595 64.2627 60.4997 65.797 61.6616 66.9379C62.8236 68.0787 64.4121 68.7325 66.0778 68.7556Z" fill="#E2DA71"/>
</g>
<g opacity="0.6" style="mix-blend-mode:soft-light">
<path d="M63.901 65.2439C64.3967 65.2507 64.8888 65.1644 65.3492 64.9899C65.8097 64.8154 66.2295 64.5561 66.5847 64.2268C66.9398 63.8974 67.2234 63.5046 67.4191 63.0706C67.6149 62.6367 67.7191 62.1701 67.7256 61.6976C67.7322 61.2251 67.6411 60.7559 67.4575 60.3167C67.2739 59.8776 67.0014 59.4771 66.6555 59.1382C66.3097 58.7994 65.8972 58.5287 65.4418 58.3417C64.9864 58.1546 64.4969 58.0549 64.0012 58.0482C63.5056 58.0414 63.0135 58.1277 62.553 58.3022C62.0925 58.4767 61.6728 58.736 61.3176 59.0654C60.9624 59.3947 60.6789 59.7875 60.4831 60.2215C60.2873 60.6554 60.1832 61.122 60.1766 61.5945C60.17 62.067 60.2611 62.5363 60.4448 62.9754C60.6284 63.4145 60.9009 63.815 61.2467 64.1539C61.5926 64.4928 62.005 64.7634 62.4604 64.9505C62.9159 65.1375 63.4054 65.2372 63.901 65.2439Z" fill="#FCF5D4"/>
</g>
<path d="M62.9514 78.6855C62.65 78.6875 62.3588 78.5781 62.1345 78.3787C61.1658 77.4383 60.44 76.2807 60.0183 75.0039C59.5967 73.727 59.4917 72.3684 59.7122 71.0429C59.74 70.8872 59.7984 70.7385 59.8842 70.6052C59.97 70.4719 60.0815 70.3566 60.2122 70.2659C60.343 70.1753 60.4905 70.111 60.6464 70.0768C60.8022 70.0426 60.9634 70.0392 61.1206 70.0667C61.2778 70.0941 61.4279 70.152 61.5626 70.2369C61.6972 70.3219 61.8136 70.4323 61.9051 70.5618C61.9967 70.6913 62.0616 70.8374 62.0961 70.9917C62.1306 71.1461 62.1341 71.3056 62.1064 71.4613C61.9435 72.3904 62.0095 73.3446 62.2988 74.243C62.5881 75.1414 63.0922 75.9573 63.7682 76.6215C63.962 76.7815 64.1005 76.9976 64.1643 77.2394C64.2281 77.4812 64.2141 77.7367 64.1241 77.9702C64.0341 78.2037 63.8727 78.4036 63.6625 78.5418C63.4522 78.6801 63.2036 78.7498 62.9514 78.7413V78.6855Z" fill="white"/>
<path d="M77.1189 116.146C74.5541 116.204 72.0219 115.568 69.7957 114.305C68.0971 113.193 66.6427 111.752 65.5199 110.07C64.397 108.388 63.6287 106.498 63.2611 104.515C61.8109 98.0053 62.9188 91.1933 66.3594 85.4639C68.2747 82.5073 75.3726 72.8843 85.8223 72.8843C89.1101 72.9609 92.3143 73.9254 95.089 75.6736C97.044 76.7199 98.7575 78.1582 100.12 79.8966C101.483 81.6351 102.465 83.6356 103.004 85.7708C104.061 92.355 102.462 99.0868 98.5534 104.515C96.1161 107.947 92.9166 110.78 89.2008 112.797C85.485 114.813 81.3518 115.959 77.1189 116.146Z" fill="#C9C540"/>
<g opacity="0.4" style="mix-blend-mode:soft-light">
<path d="M87.8503 87.584C97.2578 96.3423 93.7088 107.276 87.4841 114.947C92.357 112.826 96.54 109.408 99.5674 105.073C105.454 96.1471 108.581 82.2007 95.7086 74.6138C82.8367 67.027 71.4857 75.6737 65.5708 84.5436C69.1304 82.6463 73.2067 81.9184 77.2113 82.4649C81.2159 83.0113 84.9415 84.804 87.8503 87.584Z" fill="#B2A93D"/>
</g>
<path d="M85.8223 74.1953C88.881 74.2417 91.8695 75.1093 94.4693 76.7056C96.2802 77.6685 97.869 78.9941 99.1346 80.5979C100.4 82.2018 101.315 84.0489 101.821 86.0218C102.783 92.2617 101.247 98.6272 97.5395 103.762C95.2053 107.026 92.156 109.725 88.6198 111.657C85.0835 113.589 81.1519 114.704 77.1189 114.919C74.7816 114.972 72.4739 114.393 70.4436 113.245C68.8954 112.22 67.5679 110.9 66.5381 109.364C65.5083 107.827 64.7966 106.103 64.4442 104.292C63.0473 98.1215 64.0532 91.6567 67.2608 86.1892C71.035 80.3875 77.8794 74.1674 85.7096 74.1674M85.7096 71.7407C76.9781 71.7407 69.5141 78.2676 65.2328 84.8782C59.3742 93.8876 59.5996 109.759 69.1197 115.337C71.5258 116.704 74.2613 117.398 77.0345 117.345C81.4913 117.143 85.8414 115.929 89.7486 113.796C93.6557 111.663 97.0153 108.669 99.5674 105.045C105.454 96.1469 108.581 82.2005 95.7086 74.6137C92.7314 72.8092 89.3128 71.8447 85.8223 71.8244L85.7096 71.7407Z" fill="#BCB828"/>
<g opacity="0.6" style="mix-blend-mode:soft-light">
<path d="M76.5838 96.8158C77.317 96.4853 77.9748 96.0107 78.5171 95.4207C79.0594 94.8306 79.4748 94.1376 79.7383 93.3837C80.0017 92.6297 80.1076 91.8306 80.0495 91.0349C79.9914 90.2391 79.7706 89.4634 79.4004 88.7548C78.5962 87.3322 77.271 86.2699 75.6985 85.7871C74.126 85.3044 72.4263 85.4381 70.9506 86.1608C70.2173 86.4913 69.5595 86.9659 69.0173 87.5559C68.475 88.146 68.0595 88.839 67.7961 89.5929C67.5326 90.3469 67.4267 91.146 67.4848 91.9417C67.5429 92.7375 67.7637 93.5132 68.1339 94.2218C68.9382 95.6443 70.2634 96.7067 71.8359 97.1894C73.4084 97.6722 75.108 97.5384 76.5838 96.8158Z" fill="#E2DA71"/>
</g>
<g opacity="0.6" style="mix-blend-mode:soft-light">
<path d="M72.9222 94.6963C73.3575 94.4946 73.7468 94.2075 74.0667 93.8523C74.3866 93.4972 74.6303 93.0814 74.783 92.6302C74.9358 92.1789 74.9944 91.7017 74.9554 91.2274C74.9163 90.7531 74.7804 90.2916 74.5558 89.8708C74.0732 89.0173 73.2785 88.3796 72.3353 88.089C71.3921 87.7984 70.3723 87.8771 69.4859 88.3088C69.0507 88.5105 68.6613 88.7976 68.3414 89.1528C68.0216 89.5079 67.7779 89.9237 67.6251 90.3749C67.4724 90.8261 67.4137 91.3034 67.4528 91.7777C67.4918 92.252 67.6277 92.7135 67.8523 93.1343C68.3349 93.9878 69.1296 94.6255 70.0728 94.9161C71.016 95.2067 72.0358 95.128 72.9222 94.6963Z" fill="#FCF5D4"/>
</g>
<path d="M105.426 87.7789C95.5678 87.7789 86.4137 76.8728 85.1181 67.4729C84.6393 64.0142 84.0478 55.2559 89.005 48.8405C90.428 47.0461 92.2065 45.5588 94.2311 44.47C96.2558 43.3811 98.4839 42.7138 100.779 42.5089C101.713 42.3935 102.654 42.3376 103.595 42.3415C115.622 42.3415 121.424 53.3034 122.748 62.7032C123.412 69.266 121.54 75.834 117.509 81.0846C116.301 82.7951 114.763 84.2523 112.984 85.3724C111.206 86.4925 109.221 87.2535 107.144 87.6115C106.609 87.6451 106.073 87.6451 105.539 87.6115L105.426 87.7789Z" fill="#C9C540"/>
<path d="M103.595 43.5404C118.101 43.5404 121.086 59.6346 121.537 62.8702C122.131 69.1153 120.342 75.3544 116.523 80.359C114.277 83.5504 110.842 85.7275 106.975 86.4117C106.497 86.4414 106.017 86.4414 105.539 86.4117C96.441 86.4117 87.6531 75.8682 86.4419 67.1657C85.3191 61.0151 86.6303 54.6725 90.1036 49.4537C91.4045 47.8377 93.0195 46.4965 94.8531 45.5096C96.6867 44.5226 98.7016 43.91 100.779 43.7078C101.647 43.5976 102.522 43.5417 103.398 43.5404M103.398 41.1138C102.456 41.1222 101.515 41.1874 100.581 41.309C85.597 43.1499 82.4423 57.0964 83.8788 67.5562C85.259 77.486 95.1453 88.8941 105.398 88.8941C105.979 88.9305 106.563 88.9305 107.144 88.8941C118.185 87.4995 125.283 73.1347 123.819 62.647C122.467 52.7451 116.439 41.1138 103.595 41.1138H103.398Z" fill="#BCB828"/>
<g opacity="0.4" style="mix-blend-mode:soft-light">
<path d="M121.171 69.0903C121.54 67.0369 121.597 64.9404 121.34 62.8702C120.101 53.9445 114.693 43.5405 103.482 43.5405C102.616 43.5421 101.751 43.598 100.891 43.7079C97.9115 44.0229 95.0763 45.1421 92.6948 46.9435C93.7415 46.8162 94.7949 46.751 95.8494 46.7482C102.133 46.6413 108.226 48.8804 112.918 53.0202C117.61 57.16 120.556 62.8971 121.171 69.0903Z" fill="#B2A93D"/>
</g>
<g opacity="0.6" style="mix-blend-mode:soft-light">
<path d="M97.962 63.289C98.6952 62.9585 99.353 62.4838 99.8952 61.8938C100.438 61.3038 100.853 60.6107 101.116 59.8568C101.38 59.1028 101.486 58.3037 101.428 57.508C101.37 56.7123 101.149 55.9365 100.779 55.2279C99.9743 53.8054 98.6491 52.743 97.0766 52.2603C95.5041 51.7775 93.8045 51.9113 92.3287 52.6339C91.5955 52.9644 90.9377 53.4391 90.3954 54.0291C89.8532 54.6191 89.4377 55.3121 89.1743 56.0661C88.9108 56.82 88.8049 57.6191 88.863 58.4149C88.9211 59.2106 89.1419 59.9863 89.5121 60.6949C90.3163 62.1175 91.6416 63.1799 93.2141 63.6626C94.7866 64.1453 96.4862 64.0116 97.962 63.289Z" fill="#E2DA71"/>
</g>
<g opacity="0.6" style="mix-blend-mode:soft-light">
<path d="M94.3285 61.1689C94.7637 60.9672 95.1531 60.6801 95.473 60.325C95.7928 59.9698 96.0365 59.554 96.1893 59.1028C96.342 58.6516 96.4007 58.1744 96.3616 57.7001C96.3226 57.2257 96.1866 56.7642 95.9621 56.3435C95.4795 55.49 94.6847 54.8523 93.7416 54.5617C92.7984 54.2711 91.7786 54.3498 90.8922 54.7815C90.4569 54.9832 90.0675 55.2703 89.7477 55.6254C89.4278 55.9806 89.1841 56.3964 89.0314 56.8476C88.8786 57.2988 88.82 57.776 88.859 58.2503C88.8981 58.7247 89.034 59.1862 89.2585 59.6069C89.7412 60.4604 90.5359 61.0981 91.4791 61.3887C92.4223 61.6793 93.4421 61.6006 94.3285 61.1689Z" fill="#FCF5D4"/>
</g>
<path d="M115.65 66.1065C115.329 66.1065 115.021 65.9801 114.794 65.7552C114.567 65.5303 114.439 65.2252 114.439 64.9071C114.439 56.5393 111.285 52.8574 111.256 52.8016C111.153 52.6807 111.074 52.5409 111.025 52.3899C110.976 52.239 110.958 52.08 110.971 51.922C110.984 51.764 111.028 51.6101 111.102 51.4691C111.175 51.3281 111.275 51.2027 111.397 51.1002C111.519 50.9976 111.661 50.9199 111.813 50.8714C111.965 50.8229 112.126 50.8046 112.285 50.8175C112.445 50.8305 112.6 50.8744 112.743 50.9468C112.885 51.0193 113.012 51.1188 113.115 51.2396C113.256 51.407 116.805 55.5909 116.89 64.8792C116.893 65.0391 116.865 65.198 116.806 65.3468C116.746 65.4955 116.658 65.6311 116.545 65.7454C116.432 65.8597 116.297 65.9506 116.149 66.0126C116 66.0746 115.84 66.1065 115.679 66.1065H115.65Z" fill="#F5F174"/>
<path d="M140.211 105.77C135.764 105.458 131.462 104.075 127.677 101.742C123.893 99.4084 120.741 96.1951 118.495 92.3812C115.101 86.6828 114.09 79.8961 115.679 73.4699C116.396 71.3748 117.546 69.4501 119.053 67.8177C120.561 66.1853 122.395 64.8806 124.438 63.9863C126.978 62.7022 129.783 62.015 132.635 61.978C141.479 61.978 148.549 69.2581 152.351 76.0639C155.273 82.0369 155.797 88.8858 153.816 95.2263C153.261 97.1972 152.308 99.0364 151.016 100.633C149.723 102.229 148.117 103.55 146.295 104.515C144.392 105.39 142.31 105.82 140.211 105.77Z" fill="#C9C540"/>
<path d="M132.635 60.7508V63.1775C140.944 63.1775 147.647 70.1228 151.14 76.6218C153.912 82.301 154.405 88.8104 152.52 94.8358C152.036 96.6264 151.196 98.3035 150.05 99.769C148.904 101.235 147.474 102.459 145.844 103.371C144.083 104.182 142.153 104.574 140.211 104.515C135.982 104.216 131.89 102.899 128.292 100.677C124.693 98.4557 121.698 95.3971 119.565 91.7676C116.3 86.3716 115.29 79.9271 116.749 73.8046C117.417 71.8615 118.485 70.077 119.887 68.5645C121.288 67.052 122.991 65.8444 124.889 65.0184C127.262 63.8123 129.883 63.1633 132.55 63.1217V60.695M132.55 60.695C129.502 60.7307 126.503 61.4658 123.79 62.8428C110.355 69.3976 112.27 83.4834 117.34 92.8833C119.69 96.8821 122.998 100.246 126.972 102.679C130.946 105.111 135.464 106.537 140.127 106.83C142.416 106.856 144.681 106.36 146.746 105.379C156.66 100.554 158.266 84.7386 153.196 75.3387C149.281 68.0587 141.929 60.6113 132.55 60.6113V60.695Z" fill="#BCB828"/>
<g opacity="0.4" style="mix-blend-mode:soft-light">
<path d="M131.761 76.9009C141.591 74.5021 147.732 81.057 150.576 88.0581C151.059 84.143 150.394 80.1731 148.661 76.622C144.774 69.3699 136.381 61.8946 126.128 66.9432C115.876 71.9918 117.228 82.5353 121.002 89.7874C121.102 86.7629 122.212 83.8568 124.16 81.5247C126.107 79.1925 128.78 77.5663 131.761 76.9009Z" fill="#B2A93D"/>
</g>
<g opacity="0.6" style="mix-blend-mode:soft-light">
<path d="M144.802 86.3842C143.998 84.9616 142.673 83.8993 141.1 83.4165C139.528 82.9338 137.828 83.0675 136.353 83.7902C135.619 84.1206 134.962 84.5953 134.419 85.1853C133.877 85.7753 133.461 86.4684 133.198 87.2223C132.935 87.9763 132.829 88.7754 132.887 89.5711C132.945 90.3669 133.166 91.1426 133.536 91.8512C134.34 93.2737 135.665 94.3361 137.238 94.8188C138.81 95.3016 140.51 95.1678 141.986 94.4452C142.719 94.1147 143.377 93.6401 143.919 93.05C144.461 92.46 144.877 91.767 145.14 91.013C145.404 90.2591 145.51 89.46 145.451 88.6643C145.393 87.8685 145.173 87.0928 144.802 86.3842Z" fill="#E2DA71"/>
</g>
<g opacity="0.6" style="mix-blend-mode:soft-light">
<path d="M142.549 89.8708C142.066 89.0173 141.272 88.3796 140.328 88.089C139.385 87.7984 138.365 87.8771 137.479 88.3088C137.044 88.5105 136.654 88.7976 136.335 89.1528C136.015 89.5079 135.771 89.9237 135.618 90.3749C135.466 90.8261 135.407 91.3034 135.446 91.7777C135.485 92.252 135.621 92.7135 135.845 93.1343C136.328 93.9878 137.123 94.6255 138.066 94.9161C139.009 95.2067 140.029 95.128 140.915 94.6963C141.351 94.4946 141.74 94.2075 142.06 93.8523C142.38 93.4972 142.623 93.0814 142.776 92.6302C142.929 92.1789 142.988 91.7017 142.949 91.2274C142.909 90.7531 142.774 90.2916 142.549 89.8708Z" fill="#FCF5D4"/>
</g>
<path d="M148.661 88.2251C148.363 88.2271 148.074 88.1201 147.851 87.9245C147.627 87.7289 147.485 87.4586 147.45 87.1652C147.177 82.8916 145.551 78.8118 142.803 75.506C142.564 75.2878 142.422 74.9845 142.409 74.6628C142.395 74.3411 142.512 74.0273 142.732 73.7906C142.953 73.5539 143.259 73.4135 143.584 73.4005C143.909 73.3874 144.225 73.5026 144.464 73.7209C144.633 73.8882 148.661 77.6259 149.9 86.8584C149.924 87.0161 149.916 87.1769 149.876 87.3315C149.837 87.486 149.766 87.6312 149.669 87.7585C149.572 87.8857 149.45 87.9925 149.311 88.0727C149.172 88.1528 149.018 88.2046 148.858 88.2251H148.661ZM149.168 94.4173C149.006 94.4069 148.848 94.3643 148.704 94.2923C148.559 94.2202 148.43 94.1201 148.325 93.9979C148.22 93.8756 148.141 93.7337 148.092 93.5806C148.043 93.4274 148.026 93.2662 148.041 93.1064C148.161 92.2644 148.161 91.4101 148.041 90.5681C147.967 90.2574 148.02 89.9301 148.189 89.6581C148.358 89.3861 148.629 89.1917 148.943 89.1177C149.257 89.0437 149.587 89.0962 149.862 89.2636C150.136 89.431 150.333 89.6996 150.407 90.0103C150.565 91.1212 150.556 92.2492 150.379 93.3574C150.345 93.6508 150.202 93.9211 149.978 94.1167C149.755 94.3123 149.466 94.4193 149.168 94.4173ZM120.241 75.8407H119.819C119.666 75.7879 119.525 75.7051 119.405 75.5973C119.284 75.4895 119.187 75.3589 119.119 75.2132C119.051 75.0675 119.013 74.9097 119.007 74.7492C119.002 74.5887 119.029 74.4287 119.087 74.2787C119.714 72.5793 120.75 71.0564 122.104 69.8416C123.458 68.6268 125.091 67.7564 126.86 67.3055C127.178 67.2537 127.503 67.329 127.765 67.5147C128.026 67.7004 128.202 67.9813 128.255 68.2957C128.307 68.6101 128.231 68.9322 128.044 69.1911C127.856 69.4501 127.572 69.6246 127.255 69.6764C125.914 70.0584 124.683 70.7471 123.66 71.6871C122.637 72.627 121.852 73.7919 121.368 75.0876C121.278 75.3104 121.122 75.5012 120.922 75.6355C120.721 75.7697 120.484 75.8412 120.241 75.8407Z" fill="#F5F174"/>
<path d="M124.016 140.468C113.82 140.468 105.088 127.972 105.088 117.736C105.088 107.499 110.045 95.0029 124.016 95.0029C126.916 94.8684 129.802 95.4875 132.386 96.7988C134.97 98.1102 137.163 100.068 138.747 102.478C141.619 107.053 143.105 112.349 143.028 117.736C143.028 127.972 134.212 140.468 124.016 140.468Z" fill="#C9C540"/>
<g opacity="0.4" style="mix-blend-mode:soft-light">
<path d="M124.494 108.755C137.338 111.544 140.38 122.701 139.338 132.213C142.315 127.956 143.987 122.939 144.154 117.764C144.154 107.193 139.113 93.8042 124.016 93.8042C108.919 93.8042 104.018 106.83 103.877 117.346C105.93 113.914 109.042 111.227 112.754 109.68C116.466 108.134 120.582 107.809 124.494 108.755Z" fill="#B2A93D"/>
</g>
<path d="M124.016 96.1469C137.085 96.1469 141.732 107.75 141.732 117.68C141.732 127.164 133.282 139.213 124.016 139.213C114.749 139.213 106.412 127.219 106.412 117.736C106.412 107.806 110.947 96.1469 124.016 96.1469ZM124.016 93.7202C108.919 93.7202 103.877 107.081 103.877 117.68C103.877 128.279 112.89 141.64 124.016 141.64C135.141 141.64 144.154 128.279 144.154 117.68C144.154 107.081 139.113 93.7202 124.016 93.7202Z" fill="#BCB828"/>
<g opacity="0.6" style="mix-blend-mode:soft-light">
<path d="M124.438 132.742C125.171 132.412 125.829 131.937 126.371 131.347C126.914 130.757 127.329 130.064 127.593 129.31C127.856 128.556 127.962 127.757 127.904 126.961C127.846 126.165 127.625 125.39 127.255 124.681C126.451 123.259 125.125 122.196 123.553 121.713C121.98 121.231 120.281 121.364 118.805 122.087C118.072 122.418 117.414 122.892 116.872 123.482C116.329 124.072 115.914 124.765 115.65 125.519C115.387 126.273 115.281 127.072 115.339 127.868C115.397 128.664 115.618 129.439 115.988 130.148C116.793 131.571 118.118 132.633 119.69 133.116C121.263 133.598 122.962 133.465 124.438 132.742Z" fill="#E2DA71"/>
</g>
<g opacity="0.6" style="mix-blend-mode:soft-light">
<path d="M120.777 130.623C121.212 130.421 121.601 130.134 121.921 129.779C122.241 129.423 122.485 129.008 122.637 128.556C122.79 128.105 122.849 127.628 122.81 127.154C122.771 126.679 122.635 126.218 122.41 125.797C121.928 124.944 121.133 124.306 120.19 124.015C119.246 123.725 118.227 123.803 117.34 124.235C116.905 124.437 116.516 124.724 116.196 125.079C115.876 125.434 115.632 125.85 115.479 126.301C115.327 126.752 115.268 127.23 115.307 127.704C115.346 128.178 115.482 128.64 115.707 129.061C116.189 129.914 116.984 130.552 117.927 130.842C118.87 131.133 119.89 131.054 120.777 130.623Z" fill="#FCF5D4"/>
</g>
<path d="M133.987 129.785C133.769 129.786 133.554 129.728 133.367 129.618C133.23 129.537 133.11 129.431 133.015 129.305C132.919 129.178 132.85 129.035 132.811 128.882C132.772 128.729 132.763 128.57 132.786 128.414C132.809 128.258 132.863 128.108 132.944 127.972C137.338 120.636 136.634 116.062 136.606 116.006C136.578 115.851 136.582 115.691 136.616 115.537C136.651 115.382 136.716 115.236 136.807 115.107C136.899 114.977 137.015 114.867 137.15 114.782C137.284 114.697 137.435 114.639 137.592 114.612C137.749 114.584 137.91 114.588 138.066 114.622C138.222 114.656 138.369 114.72 138.5 114.811C138.631 114.902 138.742 115.017 138.828 115.15C138.914 115.283 138.972 115.432 139 115.588C139 115.811 139.873 121.166 135.029 129.2C134.921 129.378 134.769 129.526 134.586 129.629C134.403 129.732 134.197 129.786 133.987 129.785ZM130.409 134.973C130.168 134.98 129.931 134.915 129.727 134.788C129.523 134.66 129.363 134.475 129.266 134.256C129.169 134.037 129.141 133.795 129.184 133.56C129.227 133.325 129.34 133.108 129.508 132.937C130.108 132.311 130.619 131.607 131.029 130.845C131.096 130.701 131.19 130.57 131.308 130.462C131.425 130.353 131.563 130.269 131.713 130.213C131.864 130.157 132.024 130.132 132.184 130.137C132.345 130.143 132.503 130.18 132.649 130.246C132.795 130.311 132.926 130.405 133.036 130.521C133.145 130.638 133.231 130.774 133.287 130.923C133.343 131.072 133.369 131.231 133.364 131.389C133.358 131.548 133.321 131.705 133.254 131.849C132.746 132.867 132.092 133.807 131.311 134.639C131.192 134.752 131.05 134.841 130.895 134.898C130.74 134.956 130.575 134.982 130.409 134.973Z" fill="#F5F174"/>
<path d="M101.99 120.414C100.203 120.426 98.431 120.085 96.779 119.41C94.9167 118.54 93.2493 117.309 91.8754 115.791C90.5015 114.272 89.4489 112.496 88.7798 110.568C86.3769 104.385 86.4677 97.5235 89.0333 91.4052C92.4133 84.0415 99.3422 76.2036 108.75 76.2036C111.29 76.2315 113.799 76.7626 116.129 77.7656C118.237 78.5428 120.159 79.7449 121.773 81.2957C123.388 82.8465 124.66 84.7123 125.509 86.775C127.471 93.0796 126.875 99.8936 123.847 105.77C120.072 113.692 110.13 120.414 101.99 120.414Z" fill="#C9C540"/>
<g opacity="0.4" style="mix-blend-mode:soft-light">
<path d="M110.637 90.5682C121.255 97.9876 119.368 109.284 114.355 117.708C118.866 114.954 122.506 111.001 124.861 106.3C129.311 96.593 130.353 82.4514 116.411 76.6775C102.468 70.9037 92.5821 80.973 88.0474 90.6239C91.3188 88.2406 95.2715 86.9505 99.3328 86.9405C103.394 86.9304 107.353 88.201 110.637 90.5682Z" fill="#B2A93D"/>
</g>
<path d="M108.637 77.4033C111.014 77.4356 113.36 77.9382 115.538 78.8816C117.495 79.6031 119.279 80.7195 120.777 82.16C122.275 83.6005 123.455 85.3336 124.241 87.2495C126.089 93.2556 125.503 99.7384 122.607 105.324C119.143 112.883 109.679 119.27 101.961 119.27C100.33 119.291 98.7118 118.988 97.2014 118.378C95.4868 117.552 93.9574 116.393 92.7042 114.969C91.451 113.546 90.4995 111.888 89.9063 110.094C87.6566 104.212 87.7371 97.7051 90.1317 91.8797C93.3426 84.8786 99.9054 77.3754 108.609 77.3754M108.609 74.9487C98.7505 74.9487 91.4836 83.1213 87.9065 90.8755C83.4563 100.582 86.0757 116.258 96.3564 120.498C98.1431 121.225 100.058 121.595 101.99 121.586C111.115 121.586 121.171 114.194 124.861 106.244C129.311 96.5378 130.353 82.3961 116.411 76.6223C113.929 75.5575 111.257 74.9978 108.552 74.9766L108.609 74.9487Z" fill="#BCB828"/>
<g opacity="0.6" style="mix-blend-mode:soft-light">
<path d="M100.525 101.725C101.258 101.395 101.916 100.92 102.458 100.33C103.001 99.7403 103.416 99.0473 103.68 98.2933C103.943 97.5394 104.049 96.7403 103.991 95.9445C103.933 95.1488 103.712 94.3731 103.342 93.6645C102.537 92.2419 101.212 91.1795 99.6398 90.6968C98.0673 90.2141 96.3676 90.3478 94.8918 91.0704C94.1586 91.4009 93.5008 91.8756 92.9586 92.4656C92.4163 93.0556 92.0008 93.7487 91.7374 94.5026C91.4739 95.2566 91.368 96.0557 91.4261 96.8514C91.4842 97.6471 91.705 98.4229 92.0752 99.1315C92.8795 100.554 94.2047 101.616 95.7772 102.099C97.3497 102.582 99.0493 102.448 100.525 101.725Z" fill="#E2DA71"/>
</g>
<g opacity="0.6" style="mix-blend-mode:soft-light">
<path d="M96.8353 99.4936C97.2706 99.292 97.6599 99.0048 97.9798 98.6497C98.2997 98.2945 98.5434 97.8787 98.6961 97.4275C98.8489 96.9763 98.9075 96.4991 98.8685 96.0248C98.8294 95.5504 98.6935 95.0889 98.4689 94.6682C97.9863 93.8147 97.1916 93.177 96.2484 92.8864C95.3052 92.5958 94.2854 92.6745 93.399 93.1062C92.9638 93.3079 92.5744 93.595 92.2545 93.9501C91.9346 94.3053 91.691 94.7211 91.5382 95.1723C91.3854 95.6235 91.3268 96.1007 91.3659 96.5751C91.4049 97.0494 91.5408 97.5109 91.7654 97.9316C92.248 98.7851 93.0427 99.4229 93.9859 99.7134C94.9291 100.004 95.9489 99.9254 96.8353 99.4936Z" fill="#FCF5D4"/>
</g>
<path d="M110.44 111.795C110.175 111.804 109.915 111.727 109.698 111.576C109.482 111.425 109.322 111.208 109.242 110.958C109.162 110.708 109.167 110.439 109.256 110.192C109.345 109.945 109.514 109.734 109.735 109.591C116.833 104.682 118.185 100.135 118.185 100.08C118.271 99.7726 118.477 99.512 118.757 99.3551C119.037 99.1981 119.368 99.1578 119.678 99.2428C119.988 99.3279 120.251 99.5315 120.41 99.8087C120.568 100.086 120.609 100.414 120.523 100.721C120.523 100.944 118.946 106.077 111.059 111.571C110.877 111.701 110.663 111.778 110.44 111.795Z" fill="#F5F174"/>
<path d="M104.891 173.968C94.9482 173.968 85.8787 162.392 85.0055 152.797C84.6957 149.31 84.5267 140.552 89.7938 134.36C91.2935 132.641 93.1307 131.243 95.1935 130.251C97.2563 129.258 99.5016 128.692 101.793 128.586H103.652C116.298 128.586 121.819 139.994 122.692 149.784C123.039 156.375 120.856 162.852 116.58 167.915C115.291 169.573 113.685 170.964 111.853 172.007C110.022 173.05 108 173.726 105.905 173.995L104.891 173.968Z" fill="#C9C540"/>
<g opacity="0.4" style="mix-blend-mode:soft-light">
<path d="M103.595 142.254C116.636 143.955 120.664 154.722 120.495 164.401C123.075 159.91 124.288 154.776 123.988 149.618C123.03 139.074 116.805 126.16 101.764 127.303C86.7236 128.447 83.0057 141.919 83.8225 152.407C85.5764 148.833 88.4477 145.915 92.0099 144.086C95.572 142.256 99.635 141.614 103.595 142.254Z" fill="#B2A93D"/>
</g>
<path d="M103.595 127.331V129.619C115.397 129.619 120.495 140.441 121.424 149.729C121.724 155.995 119.644 162.144 115.594 166.967C113.187 170.036 109.655 172.04 105.764 172.546H104.835C95.5115 172.546 87.0053 161.584 86.1603 152.491C85.4184 146.362 87.0488 140.183 90.7233 135.197C92.1319 133.591 93.859 132.29 95.7972 131.373C97.7354 130.457 99.8433 129.945 101.99 129.87L103.595 129.619V127.192M103.595 127.192H101.624C86.5547 128.419 82.7522 142.17 83.7099 152.686C84.6675 163.202 94.1595 175 104.806 175H105.933C117.031 174.08 124.804 160.05 123.847 149.506C122.945 139.437 117.228 127.192 103.595 127.192Z" fill="#BCB828"/>
<g opacity="0.6" style="mix-blend-mode:soft-light">
<path d="M103.032 165.07C103.765 164.739 104.423 164.265 104.965 163.675C105.507 163.085 105.923 162.392 106.186 161.638C106.45 160.884 106.556 160.084 106.498 159.289C106.44 158.493 106.219 157.717 105.849 157.009C105.044 155.586 103.719 154.524 102.147 154.041C100.574 153.558 98.8744 153.692 97.3987 154.415C96.6654 154.745 96.0077 155.22 95.4654 155.81C94.9231 156.4 94.5076 157.093 94.2442 157.847C93.9808 158.601 93.8749 159.4 93.9329 160.196C93.991 160.991 94.2119 161.767 94.5821 162.476C95.3863 163.898 96.7115 164.961 98.284 165.443C99.8565 165.926 101.556 165.792 103.032 165.07Z" fill="#E2DA71"/>
</g>
<g opacity="0.6" style="mix-blend-mode:soft-light">
<path d="M99.3703 162.95C99.8056 162.748 100.195 162.461 100.515 162.106C100.835 161.751 101.078 161.335 101.231 160.884C101.384 160.433 101.443 159.956 101.403 159.481C101.364 159.007 101.229 158.545 101.004 158.125C100.521 157.271 99.7266 156.634 98.7834 156.343C97.8402 156.052 96.8204 156.131 95.9341 156.563C95.4988 156.764 95.1094 157.052 94.7896 157.407C94.4697 157.762 94.226 158.178 94.0732 158.629C93.9205 159.08 93.8618 159.557 93.9009 160.032C93.9399 160.506 94.0759 160.967 94.3004 161.388C94.783 162.242 95.5778 162.879 96.521 163.17C97.4642 163.461 98.484 163.382 99.3703 162.95Z" fill="#FCF5D4"/>
</g>
<path d="M115.932 158.488H115.678C115.52 158.455 115.37 158.391 115.237 158.299C115.104 158.208 114.991 158.092 114.905 157.956C114.818 157.821 114.76 157.67 114.733 157.512C114.706 157.355 114.712 157.193 114.749 157.037C116.58 148.669 114.383 144.625 114.383 144.597C114.307 144.458 114.26 144.305 114.243 144.148C114.227 143.99 114.242 143.831 114.288 143.68C114.334 143.528 114.409 143.387 114.51 143.265C114.611 143.142 114.735 143.04 114.876 142.965C115.016 142.89 115.17 142.843 115.329 142.827C115.488 142.811 115.649 142.826 115.802 142.871C115.955 142.917 116.097 142.991 116.221 143.091C116.345 143.191 116.448 143.314 116.523 143.453C116.523 143.649 119.143 148.446 117.143 157.567C117.078 157.835 116.923 158.072 116.702 158.24C116.482 158.408 116.21 158.495 115.932 158.488ZM114.214 164.484C114.011 164.484 113.811 164.433 113.633 164.337C113.455 164.24 113.304 164.101 113.195 163.931C113.085 163.762 113.021 163.568 113.007 163.367C112.993 163.167 113.03 162.966 113.115 162.783C113.479 162.012 113.735 161.196 113.876 160.356C113.913 160.038 114.077 159.748 114.33 159.549C114.584 159.35 114.906 159.259 115.228 159.296C115.549 159.333 115.842 159.495 116.043 159.746C116.244 159.997 116.335 160.317 116.298 160.635C116.134 161.726 115.811 162.788 115.34 163.787C115.242 163.999 115.082 164.179 114.882 164.302C114.682 164.426 114.45 164.49 114.214 164.484Z" fill="#F5F174"/>
<path d="M84.4702 148.223C81.6019 148.298 78.7766 147.521 76.3584 145.991C74.7326 144.811 73.3635 143.318 72.3328 141.603C71.302 139.887 70.6308 137.984 70.359 136.006C69.2513 129.413 70.7218 122.651 74.4712 117.094C76.471 114.305 83.7379 105.463 93.7933 105.463C97.3064 105.538 100.718 106.645 103.595 108.643C105.486 109.779 107.117 111.294 108.383 113.09C109.649 114.886 110.522 116.925 110.946 119.075C111.641 125.697 109.69 132.325 105.51 137.54C102.983 140.712 99.796 143.307 96.1655 145.151C92.5349 146.994 88.5461 148.042 84.4702 148.223Z" fill="#C9C540"/>
<path d="M93.7652 106.691C97.0738 106.74 100.292 107.77 103.004 109.648C104.752 110.696 106.26 112.092 107.434 113.749C108.607 115.406 109.42 117.286 109.82 119.271C110.452 125.572 108.572 131.868 104.581 136.815C102.163 139.848 99.1111 142.328 95.6353 144.085C92.1594 145.842 88.3414 146.835 84.4422 146.996C81.8169 147.075 79.2276 146.376 77.0063 144.988C75.5175 143.9 74.2642 142.527 73.3208 140.951C72.3774 139.374 71.7629 137.627 71.5139 135.811C70.4721 129.539 71.8712 123.11 75.429 117.82C77.3443 115.198 84.2732 106.663 93.7652 106.663M93.7652 104.236C85.3154 104.236 77.964 110.177 73.4574 116.37C67.12 125.072 66.5285 140.943 75.6544 147.052C78.2755 148.706 81.3346 149.551 84.4422 149.478C88.7253 149.323 92.9227 148.245 96.7415 146.318C100.56 144.391 103.909 141.662 106.553 138.321C112.89 129.619 116.749 116.007 104.356 107.639C101.248 105.486 97.5577 104.31 93.7652 104.264V104.236Z" fill="#BCB828"/>
<g opacity="0.4" style="mix-blend-mode:soft-light">
<path d="M94.7793 120.832C101.933 128.224 98.6099 136.843 93.2864 142.728C97.2955 141.192 100.796 138.585 103.398 135.197C108.468 128.224 111.594 117.206 101.624 110.651C91.6528 104.097 82.1608 110.651 77.0345 117.429C79.9728 116.052 83.2784 115.639 86.4701 116.251C89.6618 116.863 92.5728 118.468 94.7793 120.832Z" fill="#B2A93D"/>
</g>
<g opacity="0.6" style="mix-blend-mode:soft-light">
<path d="M85.3998 136.34C86.1331 136.01 86.7908 135.535 87.3331 134.945C87.8754 134.355 88.2909 133.662 88.5543 132.908C88.8177 132.154 88.9236 131.355 88.8656 130.559C88.8075 129.764 88.5866 128.988 88.2165 128.279C87.4122 126.857 86.087 125.794 84.5145 125.312C82.942 124.829 81.2424 124.963 79.7666 125.685C79.0333 126.016 78.3756 126.49 77.8333 127.08C77.291 127.67 76.8756 128.363 76.6121 129.117C76.3487 129.871 76.2428 130.67 76.3009 131.466C76.3589 132.262 76.5798 133.038 76.95 133.746C77.7542 135.169 79.0794 136.231 80.6519 136.714C82.2244 137.197 83.9241 137.063 85.3998 136.34Z" fill="#E2DA71"/>
</g>
<g opacity="0.6" style="mix-blend-mode:soft-light">
<path d="M81.7383 134.22C82.1735 134.019 82.5629 133.731 82.8828 133.376C83.2026 133.021 83.4463 132.605 83.5991 132.154C83.7518 131.703 83.8105 131.226 83.7714 130.751C83.7324 130.277 83.5964 129.815 83.3719 129.395C82.8893 128.541 82.0945 127.904 81.1513 127.613C80.2082 127.322 79.1883 127.401 78.302 127.833C77.8667 128.034 77.4773 128.322 77.1575 128.677C76.8376 129.032 76.5939 129.448 76.4411 129.899C76.2884 130.35 76.2298 130.827 76.2688 131.302C76.3079 131.776 76.4438 132.237 76.6683 132.658C77.1509 133.512 77.9457 134.149 78.8889 134.44C79.8321 134.731 80.8519 134.652 81.7383 134.22Z" fill="#FCF5D4"/>
</g>
<path d="M100.778 134.165C100.539 134.168 100.303 134.1 100.102 133.97C99.9663 133.885 99.8486 133.774 99.7562 133.643C99.6639 133.512 99.5987 133.365 99.5646 133.209C99.5305 133.053 99.5282 132.892 99.5576 132.735C99.5871 132.579 99.6479 132.429 99.7363 132.296C102.36 128.893 103.82 124.75 103.905 120.47C103.864 120.151 103.952 119.83 104.15 119.576C104.348 119.323 104.64 119.157 104.961 119.117C105.282 119.076 105.607 119.163 105.863 119.36C106.119 119.556 106.286 119.845 106.327 120.163C106.327 120.386 106.975 125.741 101.764 133.607C101.659 133.773 101.513 133.91 101.341 134.007C101.17 134.105 100.976 134.159 100.778 134.165ZM96.9479 139.213C96.7034 139.22 96.4626 139.154 96.257 139.022C96.0515 138.891 95.8909 138.701 95.7965 138.478C95.702 138.255 95.678 138.008 95.7276 137.771C95.7773 137.534 95.8983 137.317 96.0747 137.149C96.6939 136.571 97.2337 135.915 97.6802 135.197C97.8296 134.912 98.0871 134.698 98.3961 134.601C98.7051 134.504 99.0403 134.533 99.3279 134.681C99.6155 134.829 99.832 135.084 99.9297 135.39C100.027 135.696 99.9984 136.028 99.849 136.313C99.3014 137.277 98.6186 138.16 97.821 138.935C97.5782 139.137 97.2646 139.237 96.9479 139.213Z" fill="#F5F174"/>
<defs>
<linearGradient id="paint0_linear_7002_11883" x1="151.619" y1="44.5453" x2="101.384" y2="33.8883" gradientUnits="userSpaceOnUse">
<stop stop-color="#423C3D"/>
<stop offset="1" stop-color="#251E20"/>
</linearGradient>
<linearGradient id="paint1_linear_7002_11883" x1="99.69" y1="25.0005" x2="99.69" y2="48.4225" gradientUnits="userSpaceOnUse">
<stop stop-color="#4E4346"/>
<stop offset="1" stop-color="#231F20"/>
</linearGradient>
</defs>
</svg>
