<svg width="200" height="200" viewBox="0 0 200 200" fill="none" xmlns="http://www.w3.org/2000/svg">
<path d="M102.708 179.498C99.4 180.482 95.7248 179.683 92.7847 175.626C93.2134 176.671 94.0097 177.593 94.1322 178.638C94.6835 183.555 100.809 183.494 104.361 182.387C105.464 182.019 107.24 181.65 108.098 180.851C108.955 180.113 109.507 179.498 109.507 178.023C109.507 176.486 108.833 175.995 109.507 174.396C107.424 177.163 105.035 178.822 102.708 179.498Z" fill="#C49202"/>
<path d="M101.176 103.093C101.176 103.093 102.279 42.3616 109.2 18.6346C109.2 18.6346 110.242 15.8071 106.566 17.5897C102.891 19.3722 101.421 22.0154 100.257 30.9284C99.0936 39.7799 96.5822 82.0089 97.9298 110.1L101.176 103.093Z" fill="url(#paint0_radial_8002_27124)"/>
<path d="M99.4 92.8876C99.4 93.0106 99.1549 93.0106 99.0937 92.8876C98.6649 89.9371 97.9911 86.9866 97.6236 84.0361C97.5011 93.1335 97.5624 102.169 97.9299 110.099L101.176 103.153C101.176 103.153 101.299 95.4078 101.789 84.3435C100.809 87.1096 100.012 89.9986 99.4 92.8876Z" fill="url(#paint1_radial_8002_27124)"/>
<path d="M97.256 113.235C97.256 113.235 89.6607 52.9345 80.2277 30.1296C80.2277 30.1296 78.8802 27.425 82.7391 28.7773C86.598 30.1296 88.3131 32.6499 90.3957 41.3169C92.4783 49.984 99.5224 91.7213 101.176 119.751L97.256 113.235Z" fill="url(#paint2_radial_8002_27124)"/>
<path d="M99.9512 104.322C99.6449 103.584 99.2162 102.908 98.9099 102.232C98.4199 101.187 97.9299 100.203 97.3786 99.1583C96.5823 97.6831 95.7248 96.2078 94.6835 94.917C96.3373 105.674 97.3173 113.235 97.3173 113.235L101.299 119.812C100.931 114.956 100.502 109.731 99.9512 104.322Z" fill="url(#paint3_radial_8002_27124)"/>
<path d="M103.871 147.166C103.871 147.166 101.36 119.136 105.096 98.7287C108.894 78.3826 116.061 45.0665 115.999 45.2509C115.938 45.4353 115.448 45.2509 115.448 45.2509C115.448 45.2509 113.366 44.8821 110.058 48.6932C106.75 52.4428 99.0325 89.5699 98.4199 117.477C97.8074 145.383 103.871 147.166 103.871 147.166Z" fill="url(#paint4_radial_8002_27124)"/>
<path d="M102.156 134.872C101.789 131.122 101.85 127.311 101.85 123.561C101.85 119.627 102.034 115.632 101.483 111.698C101.115 108.993 100.503 106.166 99.2162 103.769C98.7874 108.44 98.5424 113.112 98.4199 117.476C97.8074 145.383 103.871 147.165 103.871 147.165C103.871 147.165 103.688 144.83 103.443 141.019C102.708 139.052 102.34 136.962 102.156 134.872Z" fill="url(#paint5_radial_8002_27124)"/>
<path d="M105.342 181.281C106.199 180.974 106.995 180.605 107.73 180.175C114.897 176.118 114.284 166.774 111.712 160.013C110.303 156.263 108.037 152.882 106.138 149.317C105.219 147.596 104.3 145.752 103.688 143.908C103.014 141.818 102.524 139.667 102.218 137.515C101.605 133.151 101.544 128.725 101.238 124.361C101.054 122.271 100.931 120.12 100.87 118.03C100.809 115.878 100.748 113.788 100.503 111.637C100.074 107.703 98.91 104.076 96.9499 100.634C96.0311 99.0358 95.0511 97.4991 93.8873 96.1468C93.336 95.4706 92.7235 94.856 91.9884 94.3027C91.8659 94.3027 91.7434 94.3027 91.6209 94.3027C91.5597 94.3027 91.4984 94.3642 91.4372 94.3642C92.4172 99.9579 93.826 105.49 94.6223 111.145C95.1123 114.649 95.4798 118.153 95.9086 121.656C96.3374 125.283 96.7662 128.91 96.9499 132.536C97.1949 136.962 97.1949 141.265 96.2761 145.629C95.3573 149.748 93.7648 153.62 92.1722 157.493C90.8859 160.627 89.5996 163.824 88.9258 167.143C88.8033 168.434 88.8645 169.786 89.0483 171.077C89.5996 174.642 91.9272 177.962 94.7448 180.113C97.7462 182.51 101.85 182.51 105.342 181.281Z" fill="#F0F5DE"/>
<path d="M105.342 181.281C106.199 180.974 106.995 180.605 107.73 180.175C114.897 176.118 114.284 166.774 111.712 160.013C110.303 156.263 108.037 152.882 106.138 149.317C105.219 147.596 104.3 145.752 103.688 143.908C103.014 141.818 102.524 139.667 102.218 137.515C101.605 133.151 101.544 128.725 101.238 124.361C101.054 122.271 100.931 120.12 100.87 118.03C100.809 115.878 100.748 113.788 100.503 111.637C100.074 107.703 98.91 104.076 96.9499 100.634C96.0311 99.0358 95.0511 97.4991 93.8873 96.1468C93.336 95.4706 92.7235 94.856 91.9884 94.3027C91.8659 94.3027 91.7434 94.3027 91.6209 94.3027C91.5597 94.3027 91.4984 94.3642 91.4372 94.3642C92.4172 99.9579 93.826 105.49 94.6223 111.145C95.1123 114.649 95.4798 118.153 95.9086 121.656C96.3374 125.283 96.7662 128.91 96.9499 132.536C97.1949 136.962 97.1949 141.265 96.2761 145.629C95.3573 149.748 93.7648 153.62 92.1722 157.493C90.8859 160.627 89.5996 163.824 88.9258 167.143C88.8033 168.434 88.8645 169.786 89.0483 171.077C89.5996 174.642 91.9272 177.962 94.7448 180.113C97.7462 182.51 101.85 182.51 105.342 181.281Z" fill="url(#paint6_radial_8002_27124)"/>
<path d="M114.591 48.6318C113.427 52.32 112.324 55.9466 111.467 59.7577C110.487 63.9376 109.629 68.1174 108.649 72.2358C106.75 80.4726 104.851 88.7095 103.81 97.1307C103.81 97.1921 103.933 97.1921 103.933 97.1307C104.606 93.0737 105.28 89.0168 106.077 84.9599C106.934 80.9029 107.914 76.846 108.894 72.789C110.732 64.6752 112.386 56.6228 114.591 48.6318Z" fill="#C9FF85"/>
<path d="M110.303 57.4209C107.975 66.5797 105.831 75.6771 104.3 84.9589C102.83 94.1177 101.972 103.338 100.625 112.435C100.625 112.558 100.809 112.497 100.809 112.374C101.605 108.133 101.972 103.83 102.524 99.5884C103.075 94.8553 103.749 90.1222 104.484 85.4506C105.954 75.9844 108.098 66.7027 110.303 57.4209C110.364 57.4209 110.364 57.3594 110.303 57.4209Z" fill="#C9FF85"/>
<path d="M109.752 52.5654C107.485 60.7408 106.076 69.039 104.484 77.3988C104.484 77.5217 104.606 77.4603 104.606 77.3988C106.444 69.162 107.792 60.8022 109.813 52.6269C109.813 52.5654 109.752 52.5654 109.752 52.5654Z" fill="#C9FF85"/>
<path d="M106.383 23.3675C106.015 26.6253 105.219 29.8217 104.729 33.0181C104.239 36.3374 103.81 39.6567 103.504 43.0375C102.891 49.7376 102.34 56.4376 101.789 63.1377C101.789 63.2607 101.972 63.1992 101.972 63.0763C102.769 56.3762 103.198 49.6146 103.81 42.9145C104.116 39.5952 104.545 36.2759 104.974 32.9566C105.403 29.7602 106.199 26.5638 106.505 23.306C106.566 23.2445 106.383 23.2445 106.383 23.3675Z" fill="#C9FF85"/>
<path d="M104.116 27.3633C103.075 35.5386 102.34 43.6525 101.85 51.8893C101.36 60.1261 100.931 68.3629 100.257 76.5382C100.257 76.6612 100.38 76.5997 100.38 76.5382C100.931 72.5428 100.992 68.5473 101.237 64.5518C101.483 60.4949 101.85 56.438 102.095 52.381C102.646 44.0213 103.198 35.723 104.239 27.3633C104.178 27.3018 104.116 27.3633 104.116 27.3633Z" fill="#C9FF85"/>
<path d="M102.401 24.9658C100.809 32.0961 100.502 39.4724 100.012 46.7257C99.7675 50.4138 99.5224 54.1019 99.3387 57.7901C99.1549 61.2938 98.9099 64.9204 98.9099 68.4242C98.9099 68.67 99.2162 68.5471 99.2162 68.3627C100.012 61.1708 100.074 53.8561 100.564 46.6028C101.054 39.4109 101.421 32.0347 102.585 24.9043C102.463 24.9043 102.401 24.9043 102.401 24.9658Z" fill="#C9FF85"/>
<path d="M92.2946 58.5275C90.702 50.7824 88.7419 43.2218 86.5368 35.6611C86.5368 35.5996 86.4756 35.6611 86.4756 35.6611C90.6408 51.2742 93.6422 67.0102 96.3373 82.9306C96.3373 83.0535 96.521 82.9306 96.521 82.8691C95.1735 74.7552 93.9484 66.6414 92.2946 58.5275Z" fill="#C9FF85"/>
<path d="M94.3161 78.0752C93.4585 73.2806 92.601 68.4246 91.621 63.63C89.7834 54.4712 88.007 45.1279 84.8832 36.3379C84.8832 36.3379 84.8219 36.3379 84.8219 36.3994C86.2307 40.8866 87.2108 45.5582 88.3133 50.1684C89.4159 54.717 90.3347 59.2657 91.2534 63.8144C92.1722 68.4246 92.9685 73.0962 93.8261 77.7063C94.6223 82.378 95.2349 87.0496 96.0924 91.7212C96.1537 91.9056 96.3374 91.7212 96.3374 91.5983C95.9699 87.0496 95.1124 82.5009 94.3161 78.0752Z" fill="#C9FF85"/>
<path d="M88.7419 56.0695C88.1906 53.5493 87.6393 51.029 87.0268 48.5088C86.4143 45.9271 85.5567 43.4069 85.0055 40.8867C85.0055 40.8252 84.9442 40.8867 84.9442 40.8867C85.7405 46.0501 87.3331 51.152 88.3744 56.2539C89.4157 61.2328 90.457 66.1503 91.3758 71.1293C91.3758 71.1908 91.4983 71.1293 91.4983 71.0678C90.702 66.0889 89.7832 61.0484 88.7419 56.0695Z" fill="#C9FF85"/>
<path d="M97.8686 133.028C97.5011 127.987 97.0724 123.008 96.2761 118.029C95.541 113.235 95.2348 108.317 93.9485 103.646C93.9485 103.584 93.8872 103.646 93.8872 103.707C95.1123 108.194 95.4798 112.989 96.0311 117.599C96.6436 122.455 97.1336 127.25 97.4399 132.106C97.7461 136.839 97.8074 141.387 97.2561 146.12C96.9498 148.579 96.2148 150.854 95.541 153.189C94.9285 155.402 94.4385 157.677 93.9485 159.889C93.9485 160.012 94.071 159.951 94.1322 159.889C95.2348 155.464 96.8886 151.099 97.6849 146.551C98.3587 142.002 98.2362 137.515 97.8686 133.028Z" fill="#C9FF85"/>
<path d="M98.2974 131C98.1136 126.205 97.6849 121.472 97.0111 116.739C96.3986 112.559 96.2148 108.072 94.7447 104.138C94.7447 104.076 94.6835 104.138 94.6835 104.199C95.3573 106.289 95.541 108.379 95.786 110.531C96.0923 112.805 96.3986 115.141 96.7661 117.415C97.4398 121.964 97.8686 126.512 97.9911 131.184C98.0524 133.274 98.3586 135.364 98.4199 137.454C98.4811 139.913 98.4811 142.433 98.4199 144.892C98.2974 149.563 97.5011 154.112 97.5011 158.783C97.5011 158.906 97.6849 158.845 97.6849 158.722C97.9911 153.866 98.6649 149.071 98.8487 144.215C98.8487 139.79 98.4811 135.425 98.2974 131Z" fill="#C9FF85"/>
<path d="M99.645 125.406C99.2162 120.98 98.8487 116.493 98.1137 112.128C97.3786 107.825 96.4598 103.277 94.561 99.3428C94.561 99.3428 94.4998 99.3428 94.4998 99.4042C95.3573 101.556 95.7861 103.83 96.2761 106.043C96.7661 108.133 97.2561 110.223 97.6236 112.374C98.4199 116.8 98.7262 121.226 99.155 125.713C99.5837 130.262 99.89 134.749 100.135 139.297C100.38 143.908 100.564 148.579 101.176 153.128C101.176 153.251 101.421 153.128 101.421 153.005C100.625 143.785 100.503 134.564 99.645 125.406Z" fill="#C9FF85"/>
<path d="M105.158 152.329C103.871 149.255 103.014 146.243 102.463 142.986C101.973 139.728 101.728 136.408 101.36 133.089C100.625 126.205 100.38 119.32 99.4 112.436C99.4 112.374 99.2775 112.436 99.2775 112.497C100.074 119.382 100.258 126.328 100.931 133.274C101.299 136.716 101.605 140.219 102.156 143.662C102.646 146.797 103.565 149.563 104.974 152.452C105.096 152.513 105.219 152.39 105.158 152.329Z" fill="#C9FF85"/>
<path d="M105.219 159.336C103.32 154.05 102.218 148.579 101.238 143.108C101.238 143.047 101.176 143.108 101.176 143.108C102.034 148.579 102.585 154.48 105.035 159.521C105.035 159.643 105.28 159.459 105.219 159.336Z" fill="#C9FF85"/>
<path d="M109.262 158.722C108.22 156.017 106.995 153.374 105.648 150.854C105.648 150.792 105.525 150.854 105.586 150.915C106.75 153.189 107.792 155.525 108.649 157.922C109.69 160.689 110.732 163.578 111.099 166.467C111.099 166.59 111.283 166.467 111.283 166.405C111.099 163.701 110.242 161.242 109.262 158.722Z" fill="#C9FF85"/>
<path d="M94.6835 153.682C92.9684 158.784 90.212 163.701 90.7633 169.295C90.7633 169.479 91.0083 169.295 91.0083 169.172C90.9471 163.701 93.4584 158.907 94.806 153.682C94.806 153.62 94.6835 153.62 94.6835 153.682Z" fill="#C9FF85"/>
<g opacity="0.4" style="mix-blend-mode:soft-light">
<path d="M82.2492 29.5143C82.2492 29.5143 80.2891 28.7766 81.1466 31.1739C82.0042 33.5712 85.6793 44.1438 87.5169 52.5036C89.3545 60.8633 95.296 93.7491 94.9898 94.3023L97.9911 99.2813C97.9911 99.2813 92.3559 53.2412 89.0482 43.2218C85.6793 33.1409 84.2093 30.4363 82.2492 29.5143Z" fill="url(#paint7_radial_8002_27124)"/>
</g>
<g opacity="0.4" style="mix-blend-mode:soft-light">
<path d="M107.24 18.3271C107.24 18.3271 103.381 20.3556 102.279 26.1951C101.176 32.0347 98.4199 69.2233 98.4811 75.7389C98.4811 82.2546 98.8486 87.9098 98.8486 87.9098C98.8486 87.9098 101.728 68.1783 102.279 57.6671C102.708 47.2174 107.24 18.3271 107.24 18.3271Z" fill="url(#paint8_radial_8002_27124)"/>
</g>
<g opacity="0.4" style="mix-blend-mode:soft-light">
<path d="M93.8872 97.1297C93.8872 97.1297 92.1109 96.8839 93.8872 102.109C95.6635 107.334 99.2774 129.954 96.7048 144.829C94.1322 159.766 85.1893 166.405 93.8259 175.687C102.401 184.969 103.994 170.769 103.381 161.488C102.646 152.267 100.012 104.383 93.8872 97.1297Z" fill="url(#paint9_radial_8002_27124)"/>
</g>
<defs>
<radialGradient id="paint0_radial_8002_27124" cx="0" cy="0" r="1" gradientTransform="matrix(-132.873 14.5802 14.529 133.341 125.276 130.116)" gradientUnits="userSpaceOnUse">
<stop stop-color="white"/>
<stop offset="0.0387024" stop-color="#DAE7D4"/>
<stop offset="0.0952773" stop-color="#A9C79B"/>
<stop offset="0.1438" stop-color="#85B071"/>
<stop offset="0.1819" stop-color="#6FA157"/>
<stop offset="0.2047" stop-color="#679C4E"/>
<stop offset="0.3388" stop-color="#4A9349"/>
<stop offset="0.52" stop-color="#2A8943"/>
<stop offset="0.6947" stop-color="#13823E"/>
<stop offset="0.8584" stop-color="#057D3C"/>
<stop offset="1" stop-color="#007C3B"/>
</radialGradient>
<radialGradient id="paint1_radial_8002_27124" cx="0" cy="0" r="1" gradientTransform="matrix(-132.873 14.5802 14.529 133.341 125.276 130.115)" gradientUnits="userSpaceOnUse">
<stop stop-color="white"/>
<stop offset="0.0387024" stop-color="#DAE7D4"/>
<stop offset="0.0952773" stop-color="#A9C79B"/>
<stop offset="0.1438" stop-color="#85B071"/>
<stop offset="0.1819" stop-color="#6FA157"/>
<stop offset="0.2047" stop-color="#679C4E"/>
<stop offset="0.3778" stop-color="#5E9644"/>
<stop offset="0.7111" stop-color="#528F36"/>
<stop offset="1" stop-color="#4E8C31"/>
</radialGradient>
<radialGradient id="paint2_radial_8002_27124" cx="0" cy="0" r="1" gradientTransform="matrix(133.664 0.201203 -0.200496 134.135 76.2144 142.674)" gradientUnits="userSpaceOnUse">
<stop stop-color="white"/>
<stop offset="0.0387024" stop-color="#DAE7D4"/>
<stop offset="0.0952773" stop-color="#A9C79B"/>
<stop offset="0.1438" stop-color="#85B071"/>
<stop offset="0.1819" stop-color="#6FA157"/>
<stop offset="0.2047" stop-color="#679C4E"/>
<stop offset="0.3778" stop-color="#5E9644"/>
<stop offset="0.7111" stop-color="#528F36"/>
<stop offset="1" stop-color="#4E8C31"/>
</radialGradient>
<radialGradient id="paint3_radial_8002_27124" cx="0" cy="0" r="1" gradientTransform="matrix(133.663 0.201201 -0.200495 134.134 76.2149 142.674)" gradientUnits="userSpaceOnUse">
<stop stop-color="white"/>
<stop offset="0.0387024" stop-color="#DAE7D4"/>
<stop offset="0.0952773" stop-color="#A9C79B"/>
<stop offset="0.1438" stop-color="#85B071"/>
<stop offset="0.1819" stop-color="#6FA157"/>
<stop offset="0.2047" stop-color="#679C4E"/>
<stop offset="0.3778" stop-color="#5E9644"/>
<stop offset="0.7111" stop-color="#528F36"/>
<stop offset="1" stop-color="#4E8C31"/>
</radialGradient>
<radialGradient id="paint4_radial_8002_27124" cx="0" cy="0" r="1" gradientTransform="matrix(85.9879 0.129436 -0.128982 86.291 98.7176 173.418)" gradientUnits="userSpaceOnUse">
<stop stop-color="white"/>
<stop offset="0.3208" stop-color="#CEE6BA"/>
<stop offset="0.789" stop-color="#8AC45A"/>
<stop offset="1" stop-color="#6FB634"/>
</radialGradient>
<radialGradient id="paint5_radial_8002_27124" cx="0" cy="0" r="1" gradientTransform="matrix(85.9897 0.129439 -0.128984 86.2928 98.7175 173.417)" gradientUnits="userSpaceOnUse">
<stop stop-color="white"/>
<stop offset="0.0387024" stop-color="#DAE7D4"/>
<stop offset="0.0952773" stop-color="#A9C79B"/>
<stop offset="0.1438" stop-color="#85B071"/>
<stop offset="0.1819" stop-color="#6FA157"/>
<stop offset="0.2047" stop-color="#679C4E"/>
<stop offset="0.3778" stop-color="#5E9644"/>
<stop offset="0.7111" stop-color="#528F36"/>
<stop offset="1" stop-color="#4E8C31"/>
</radialGradient>
<radialGradient id="paint6_radial_8002_27124" cx="0" cy="0" r="1" gradientTransform="matrix(71.0783 0.106993 -0.106617 71.3289 99.1083 177.559)" gradientUnits="userSpaceOnUse">
<stop stop-color="white"/>
<stop offset="0.3208" stop-color="#CEE6BA"/>
<stop offset="0.789" stop-color="#8AC45A"/>
<stop offset="1" stop-color="#6FB634"/>
</radialGradient>
<radialGradient id="paint7_radial_8002_27124" cx="0" cy="0" r="1" gradientTransform="matrix(49.3414 0.074273 -0.0740121 49.5153 51.5322 68.541)" gradientUnits="userSpaceOnUse">
<stop offset="0.00221549" stop-color="white"/>
<stop offset="0.9102" stop-color="white"/>
<stop offset="1" stop-color="white"/>
</radialGradient>
<radialGradient id="paint8_radial_8002_27124" cx="0" cy="0" r="1" gradientTransform="matrix(40.8717 0.0615237 -0.0613076 41.0158 67.5019 42.3909)" gradientUnits="userSpaceOnUse">
<stop offset="0.00221549" stop-color="white"/>
<stop offset="0.9102" stop-color="white"/>
<stop offset="1" stop-color="white"/>
</radialGradient>
<radialGradient id="paint9_radial_8002_27124" cx="0" cy="0" r="1" gradientTransform="matrix(66.4327 0.1 -0.0996491 66.6669 40.4056 107.833)" gradientUnits="userSpaceOnUse">
<stop offset="0.00221549" stop-color="white"/>
<stop offset="0.9102" stop-color="white"/>
<stop offset="1" stop-color="white"/>
</radialGradient>
</defs>
</svg>
