<svg width="200" height="200" viewBox="0 0 200 200" fill="none" xmlns="http://www.w3.org/2000/svg">
<path opacity="0.6" d="M55.2973 131.792C60.8485 136.887 66.3006 141.982 72.5457 146.137C78.2455 149.896 84.6889 152.616 91.1322 154.892C94.5521 156.079 97.8234 157.365 101.045 159.047C104.366 160.778 107.389 162.905 111.057 163.746C113.486 164.34 115.914 164.785 118.343 165.131C118.343 164.983 118.343 164.834 118.293 164.686C117.649 161.52 117.203 160.877 121.614 156.772C126.075 152.666 129.098 146.285 125.431 139.954C121.763 133.622 130.684 128.874 128.603 120.118C126.521 111.413 118.095 107.752 100.648 112.996C86.1758 117.447 81.1202 118.684 75.2221 109.681C70.4639 102.41 67.738 99.1951 61.5425 101.124C55.3469 103.004 53.9096 107.95 55.3469 113.985C56.7843 120.02 55.0495 121.454 50.44 122.839C49.0522 123.284 47.8627 123.828 47.1193 124.62C49.5479 127.34 52.6704 129.418 55.2973 131.792Z" fill="#A96A26"/>
<path d="M156.606 98.7512C155.02 94.6457 154.375 93.6564 155.02 88.7595C155.664 83.8625 153.335 78.8171 152.145 76.987C150.956 75.2062 150.361 74.2664 150.361 71.7438C150.361 69.2211 150.014 67.935 147.734 65.5607C145.454 63.1864 144.264 64.0273 143.174 62.1971C142.084 60.4164 141.142 58.3884 139.011 56.3604C136.879 54.3323 134.847 52.2053 131.576 50.0289C128.354 47.902 125.727 45.7255 124.389 44.7857C123.051 43.8459 121.861 44.5384 120.92 40.8286C119.978 37.1188 119.581 33.5573 118.194 32.2218C116.756 30.8862 115.567 29.8475 113.535 27.2259C112.791 26.2366 111.651 25.4946 110.561 25C109.272 25.0495 107.884 25.3957 106.298 26.0387C101.788 27.9184 95.5924 30.54 93.9072 34.3488C92.222 38.1575 91.7761 38.85 85.5805 46.2202C79.385 53.5904 65.507 67.1436 55.2968 79.2128C45.1362 91.2821 38.5441 101.571 37.8998 102.807C37.2554 104.044 37.2555 106.863 37.0077 108.694C36.8094 110.524 40.4771 114.431 43.8474 118.191C47.2178 121.95 50.7369 124.572 50.7369 124.572C50.7369 124.572 56.6846 131.793 66.3991 138.619C76.1137 145.446 90.2395 155.091 102.284 159.048C114.377 163.005 121.019 163.352 125.777 159.84C130.535 156.377 132.468 151.579 134.054 146.831C135.64 142.082 137.871 133.673 142.926 128.133C148.031 122.593 152.641 114.481 156.408 111.167C157.349 110.326 158.142 109.485 158.737 108.644C159.53 104.786 157.994 102.313 156.606 98.7512Z" fill="#934A0F"/>
<path d="M158.341 75.3042C154.821 70.8524 151.352 66.1038 147.833 62.6413C144.314 59.1788 143.868 56.3099 138.614 52.7979C133.36 49.286 128.354 42.2126 126.223 38.8985C124.092 35.5844 122.902 33.2595 121.514 32.0724C120.127 30.8852 119.235 27.9669 116.558 26.5819C114.823 25.642 112.89 24.9495 110.462 25.0485C111.552 25.5926 112.692 26.3345 113.436 27.2744C115.468 29.896 116.657 30.9842 118.095 32.2702C119.532 33.6058 119.879 37.1672 120.821 40.877C121.762 44.5869 122.952 43.8449 124.29 44.8342C125.628 45.774 128.255 47.9504 131.477 50.0774C134.698 52.2044 136.731 54.3808 138.911 56.4088C141.043 58.4369 142.034 60.4649 143.075 62.2456C144.165 64.0263 145.355 63.1854 147.635 65.6092C149.915 67.9835 150.262 69.319 150.262 71.7922C150.262 74.3149 150.856 75.2547 152.046 77.0354C153.235 78.8162 155.565 83.8615 154.921 88.808C154.276 93.7049 154.921 94.6942 156.507 98.7997C157.845 102.312 159.431 104.785 158.688 108.792C160.571 106.17 161.017 103.252 160.769 98.9481C160.472 93.2598 162.504 91.1823 162.851 87.0767C163.297 82.9217 161.86 79.756 158.341 75.3042Z" fill="#4A1C0D"/>
<path d="M122.011 36.4261C121.366 35.9809 120.474 35.5852 119.632 35.1895C119.879 35.9809 120.078 36.9207 120.276 37.8605C122.258 38.9982 125.183 40.7295 125.976 41.0757C127.215 41.6693 123.894 37.6627 122.011 36.4261Z" fill="#591B04"/>
<path d="M154.822 91.4305C156.309 93.2607 158.985 96.6243 160.968 99.1965C160.968 99.0975 160.968 99.0481 160.968 98.9491C160.918 98.3061 160.918 97.663 160.968 97.1189C159.431 94.9425 156.359 90.6392 155.07 89.0068C154.872 89.8972 154.822 90.6886 154.822 91.4305Z" fill="#591B04"/>
<path d="M121.564 32.0724C120.176 30.8852 119.284 27.9669 116.608 26.5819C114.873 25.642 112.94 24.9495 110.511 25.0485C111.602 25.5926 112.741 26.3345 113.485 27.2744C115.517 29.896 116.707 30.9842 118.144 32.2702C118.243 32.3197 118.293 32.4186 118.342 32.5176C119.73 32.8144 121.366 33.2101 122.902 33.6553C122.506 33.0122 122.06 32.4681 121.564 32.0724Z" fill="#591B04"/>
<path d="M156.805 99.2959C158.093 102.561 159.481 104.984 158.787 108.744C159.878 107.21 160.472 105.578 160.77 103.599C159.729 101.868 158.093 100.335 156.805 99.2959Z" fill="#591B04"/>
<path d="M156.259 97.8594C156.358 98.1562 156.507 98.453 156.606 98.7992C156.656 98.9971 156.755 99.1454 156.804 99.3433C158.044 100.382 159.679 101.915 160.77 103.647C160.869 103.103 160.918 102.509 160.918 101.866C159.481 100.085 157.597 98.7003 156.259 97.8594Z" fill="#591B04"/>
<path d="M154.525 82.624C154.723 83.366 154.872 84.1574 154.971 84.9488C156.705 86.5811 159.63 89.4006 161.86 91.8244C162.058 91.2308 162.207 90.6867 162.356 90.0931C160.076 87.5704 156.557 84.4047 154.525 82.624Z" fill="#591B04"/>
<path d="M163 85.3953C162.951 84.5544 162.852 83.7135 162.604 82.8726C160.324 81.0919 156.557 78.0251 155.219 76.5412C154.029 75.1562 151.551 72.1883 150.262 70.6055C150.262 70.9517 150.312 71.3475 150.312 71.7432C150.312 72.1389 150.312 72.4851 150.361 72.7819C151.749 74.4142 154.426 77.7283 156.359 79.7069C158.093 81.4876 161.117 83.9114 163 85.3953Z" fill="#591B04"/>
<path d="M127.264 45.6264C128.652 47.1103 131.923 48.4459 134.401 49.2373C133.707 48.5448 133.013 47.7534 132.32 47.0114C130.238 46.2695 129.148 44.8844 126.719 42.9553C124.687 41.323 122.06 40.1854 120.623 39.5918C120.722 40.037 120.821 40.4327 120.92 40.8779C121.019 41.1746 121.069 41.422 121.168 41.6693C123.2 42.708 126.025 44.2909 127.264 45.6264Z" fill="#591B04"/>
<path d="M71.9503 111.512C70.8599 110.968 69.8686 110.523 69.2243 109.484C68.6295 108.544 68.3321 107.407 68.0347 106.368C67.7373 105.428 67.3409 104.637 66.7461 103.895C66.0026 102.955 65.2591 102.114 64.813 100.976C64.3174 99.7893 65.3583 97.2172 63.5244 97.1182C61.3436 96.9698 59.8566 95.4859 59.2619 93.5568C59.3114 92.2213 59.4601 90.8858 59.6088 89.5997C59.6584 88.9566 59.8567 88.0168 59.4106 87.4727C58.4689 86.2361 55.9411 91.0836 55.6933 91.5783C55.2968 92.4686 54.6525 93.9031 55.0985 94.8923C55.6437 96.1784 56.7836 96.871 57.8741 97.6624C59.1627 98.6022 60.2036 99.6409 60.8975 101.174C61.4923 102.609 62.1366 103.845 63.227 104.983C64.2679 106.071 65.5565 107.011 66.1017 108.495C66.5478 109.781 65.4574 111.611 66.4487 112.749C67.1921 113.639 68.3816 113.986 69.3729 114.48C70.2651 114.925 70.8103 115.618 71.0085 116.607C71.1077 117.102 71.1077 117.596 71.2564 118.091C71.3555 118.635 71.6529 119.674 72.3964 119.575C73.2885 119.476 73.7841 118.685 74.0815 117.893C74.6763 115.816 74.0816 112.502 71.9503 111.512Z" fill="#C28E83"/>
<path d="M85.3325 126.155C85.3325 125.017 85.0846 123.681 84.5394 122.692C83.7464 121.357 82.8543 122.692 82.309 123.83C82.0117 124.275 81.6647 124.671 81.4169 125.066C80.9212 125.808 80.4751 126.6 80.029 127.391C79.6325 128.133 79.137 129.024 79.7317 129.815C79.9796 130.161 80.5247 130.359 80.9212 130.557C81.6151 130.854 82.2595 131.2 82.9534 131.497C83.796 131.843 84.5395 131.052 84.8369 130.359C85.3821 129.073 85.3325 127.54 85.3325 126.155Z" fill="#C28E83"/>
<path d="M89.4963 132.189C89.1494 131.991 88.8025 131.992 88.5547 132.338C88.406 132.585 88.4059 132.832 88.4059 133.129C88.4059 133.179 88.4059 133.228 88.4059 133.327C88.3564 133.475 88.3068 133.624 88.2572 133.772C88.1581 134.217 87.9598 134.663 87.9598 135.108C87.9102 135.652 88.505 136.146 88.9511 136.344C89.8432 136.79 91.0823 136.74 91.4293 135.652C91.8754 134.168 90.6363 132.931 89.4963 132.189Z" fill="#C28E83"/>
<path d="M109.669 154.2C108.38 153.063 106.695 152.222 105.307 151.282C104.96 151.035 104.712 150.837 104.464 150.49C104.018 149.897 104.712 149.6 104.861 149.155C105.01 148.759 105.158 148.314 105.158 147.869C105.208 146.781 104.564 145.989 103.424 145.989C102.829 145.989 102.234 146.088 101.689 146.286C100.995 146.484 99.8551 147.325 99.3099 146.434C98.9133 145.841 99.0124 144.852 99.0124 144.159C98.9629 143.12 98.7646 142.082 98.6159 141.092C98.4176 140.103 98.0707 139.361 97.2777 138.718C96.8316 138.372 95.9395 137.976 95.3447 138.322C95.2456 138.372 95.1465 138.471 95.0969 138.57C95.0473 138.52 94.9978 138.421 94.9482 138.372C94.8986 138.322 94.7499 138.471 94.7995 138.52C94.849 138.57 94.8986 138.669 94.9482 138.767C94.8491 138.965 94.849 139.163 94.8986 139.361C94.9977 139.707 95.0473 140.103 95.0969 140.449C94.9978 141.29 94.7995 142.131 94.75 142.675C94.6509 143.615 94.3534 145.297 95.4438 145.791C95.7412 145.94 96.0386 145.841 96.2864 145.643C96.6333 145.445 96.6333 145.049 96.3855 145.791C95.9394 147.176 96.1873 148.215 97.0795 149.303C97.8229 150.194 98.8638 150.639 99.9542 150.342C100.698 150.144 101.491 149.65 102.234 150.045C102.878 150.441 102.581 151.727 102.532 152.271C102.482 153.211 102.581 154.052 103.572 154.398C104.018 154.547 104.564 154.497 105.059 154.547C106.1 154.596 106.546 155.041 106.893 155.981C107.24 156.871 107.587 157.811 108.677 157.96C109.421 158.058 110.065 157.366 110.363 156.772C110.809 155.932 110.313 154.794 109.669 154.2Z" fill="#C28E83"/>
<path d="M103.82 108.347C103.275 106.269 101.986 104.489 100.648 102.807C99.0619 100.779 98.3184 98.8497 97.5254 96.4259C96.7819 93.9527 94.6011 92.6666 93.2133 90.5891C92.3707 89.3031 92.7672 87.918 92.9655 86.4836C93.0646 85.89 93.1142 85.0986 92.7177 84.604C91.7264 83.4168 89.6942 83.4168 88.356 83.0211C85.5309 82.1802 85.1343 79.5091 84.1431 77.0854C83.3996 75.2552 81.8631 74.0681 80.3266 72.9304C79.5832 72.3368 78.8892 71.6938 78.5423 70.8034C78.0962 69.6657 78.8397 68.3302 79.4345 67.242C79.3849 67.8356 78.9884 68.4786 78.7406 69.0227C78.6911 69.0722 78.7902 69.0722 78.8397 69.0227C79.1867 68.4291 79.7319 67.6377 79.7319 66.8957C79.7319 66.8463 79.7319 66.8463 79.7319 66.7968C79.7319 66.7474 79.7319 66.7474 79.7319 66.7474C79.5832 66.0549 78.8893 65.8075 78.1954 66.0054C75.8658 66.7474 74.4781 69.1216 74.6764 71.5454C74.9738 74.6616 78.4432 76.5413 79.9797 79.0145C80.8719 80.4489 81.5162 82.0813 82.2101 83.6147C82.8544 85.0491 83.8456 86.2857 84.9856 87.4234C87.3151 89.7977 90.3882 91.43 92.222 94.2495C93.1142 95.6345 93.2629 97.1184 93.4611 98.7013C93.6594 100.235 94.3533 101.323 95.4933 102.312C96.6829 103.351 97.9219 104.34 99.0123 105.527C100.251 106.813 101.044 108.347 102.135 109.732C103.424 111.364 104.167 109.682 103.82 108.347Z" fill="#C28E83"/>
<path d="M115.715 120.961C115.517 120.219 115.418 119.526 115.071 118.834C114.675 118.042 114.179 117.3 113.733 116.509C113.039 115.322 112.494 114.085 111.502 113.145C111.056 112.7 110.362 112.453 109.916 113.096C109.669 113.492 109.718 114.036 109.817 114.58C109.669 115.618 109.322 116.657 109.669 117.647C109.817 118.042 110.263 118.24 110.61 118.438C111.403 118.834 111.949 119.229 112.543 119.922C113.237 120.664 114.129 121.703 115.22 121.9C115.715 121.95 115.814 121.257 115.715 120.961Z" fill="#C28E83"/>
<path d="M120.176 125.312C120.077 124.422 120.127 123.531 120.226 122.641C120.276 122.196 120.325 121.75 120.176 121.305C119.929 120.613 118.69 121.206 118.293 121.355C118.095 121.454 117.896 121.553 117.797 121.75C117.797 121.701 117.797 121.652 117.797 121.602C117.797 121.503 117.649 121.602 117.649 121.701C117.649 121.8 117.649 121.899 117.649 121.998C117.55 122.196 117.549 122.443 117.599 122.69C117.599 122.74 117.599 122.74 117.649 122.74C117.55 123.828 117.203 124.916 117.103 126.004C117.054 127.093 118.342 127.983 118.838 128.824C119.482 129.813 120.622 130.456 120.672 128.824C120.672 127.637 120.325 126.499 120.176 125.312Z" fill="#C28E83"/>
<path d="M131.477 135.948C131.031 134.514 131.229 132.634 129.891 131.596C128.751 130.705 127.958 131.497 127.413 132.585C126.818 133.574 126.273 134.563 126.074 135.751C125.827 137.432 127.462 137.531 128.503 138.174C129.296 138.619 129.494 140.202 130.436 140.499C131.08 140.697 131.526 140.103 131.626 139.51C132.022 138.273 131.873 137.086 131.477 135.948Z" fill="#C28E83"/>
<path d="M117.004 72.0904C116.558 69.9635 116.509 68.3806 117.054 66.3031C117.351 65.2644 116.41 64.5719 115.666 64.0278C114.328 63.088 112.99 62.2965 111.85 61.1094C110.611 59.8233 109.867 58.092 109.173 56.4597C108.529 54.9263 107.686 53.294 106.596 52.0079C105.307 50.4251 103.523 49.139 102.581 47.3088C101.986 46.1711 101.887 44.6872 101.045 43.6485C100.45 42.956 99.8057 43.0054 99.2109 43.6485C99.2605 43.5001 99.2605 43.4012 99.31 43.2528C99.31 43.1539 99.2109 43.2528 99.2109 43.3022C99.1614 43.5001 99.0622 43.7474 99.0126 43.9452C98.8639 44.1926 98.8144 44.4399 98.7648 44.7367C98.4674 45.6271 98.2692 46.5174 98.2692 47.4077C98.3187 48.7927 99.6569 49.6336 100.5 50.5735C101.689 51.909 102.036 53.5413 102.433 55.2231C102.78 56.8554 103.473 58.2404 104.564 59.477C105.605 60.6642 106.596 61.8019 107.538 63.1374C108.578 64.6213 109.768 65.8579 111.007 67.144C112.246 68.529 112.544 69.8646 112.593 71.6948C112.593 73.0303 112.692 74.2669 113.287 75.454C114.13 77.1358 116.311 77.581 117.153 75.7013C117.698 74.6626 117.252 73.1786 117.004 72.0904Z" fill="#C28E83"/>
<path d="M123.051 82.4263C122.654 81.2887 122.308 80.2004 122.208 78.9638C122.06 77.4304 123.15 75.3035 122.06 73.968C121.564 73.3249 120.622 72.484 119.928 73.2754C119.581 73.6217 119.631 74.2647 119.631 74.7594C119.631 75.254 119.631 75.7487 119.631 76.2433C119.532 76.5896 119.482 76.9358 119.334 77.282C119.036 78.1229 118.838 78.8649 119.185 79.7553C119.581 80.794 120.374 81.536 120.573 82.6737C120.721 83.5146 120.622 84.4544 120.721 85.2953C120.821 86.1362 121.415 87.3728 122.407 86.7792C123.1 86.334 123.348 85.1469 123.447 84.4049C123.497 83.7619 123.249 83.0694 123.051 82.4263Z" fill="#C28E83"/>
<path d="M142.926 106.517C143.224 105.874 143.67 104.835 142.728 104.489C141.538 103.994 140.299 104.093 139.11 103.4C137.772 102.609 137.474 100.828 136.78 99.5916C136.037 98.2561 134.649 97.3658 133.559 96.3765C132.121 95.1399 132.022 93.9033 132.27 92.1225C132.468 90.6881 132.518 89.3031 131.725 88.0665C131.031 86.9783 129.99 86.4836 128.999 87.4234C128.949 87.4234 128.949 87.4729 128.949 87.5224C128.949 87.4235 128.949 87.275 128.949 87.1761C128.949 87.0772 128.85 87.2256 128.85 87.2751C128.85 87.4729 128.8 87.6213 128.8 87.7697C128.602 88.116 128.503 88.6106 128.503 88.9568C128.503 89.0557 128.503 89.1547 128.503 89.2041C128.404 89.5999 128.255 89.9461 128.106 90.3418C127.908 90.8365 127.71 91.3806 127.71 91.9247C127.611 93.6065 128.206 94.942 129.098 96.3765C130.981 99.3938 132.766 102.461 134.748 105.428C135.64 106.764 136.384 108.001 136.879 109.534C137.325 110.968 137.672 112.403 138.317 113.738C138.763 114.579 141.142 117.745 142.034 115.816C142.579 114.678 142.084 113.491 142.034 112.304C141.984 111.315 141.885 110.474 141.984 109.435C142.183 108.396 142.53 107.407 142.926 106.517Z" fill="#C28E83"/>
<path d="M68.6296 79.1131C68.58 78.7669 68.6792 78.2228 68.5305 77.8765C68.3818 77.5303 67.9357 77.6786 67.6383 77.5797C67.5392 77.4808 67.4401 77.3819 67.2914 77.2335C67.0931 77.0851 66.7958 77.4313 66.7463 77.5797C66.5976 77.9259 66.6471 78.1733 66.6967 78.5195C66.6967 78.569 66.7463 78.6185 66.7463 78.6185C66.895 80.4981 67.4897 82.4272 68.0349 84.2079C68.0844 84.4058 68.2827 84.2079 68.3818 84.01C68.4313 84.2574 68.4314 84.5047 68.481 84.752C68.5306 85.1477 69.0758 84.6531 69.0758 84.4058C69.1749 82.6251 68.8774 80.8444 68.6296 79.1131Z" fill="#C28E83"/>
<path d="M74.3792 91.5296C73.7844 89.6994 73.7348 87.6219 72.7931 85.9401C72.6444 85.6928 72.2974 86.138 72.347 86.3358C72.8426 88.2649 73.0904 90.293 73.5861 92.2221C74.1809 94.4974 74.5774 97.3664 75.5686 99.4933C75.7669 99.8396 76.2626 99.1965 76.213 98.9492C75.6678 96.4265 75.1722 93.9533 74.3792 91.5296Z" fill="#C28E83"/>
<path d="M79.0381 92.9142C78.7407 91.6281 77.9972 90.3915 77.799 89.1549C77.7494 89.0065 77.5512 89.2044 77.5512 89.3033C77.6007 90.2926 78.146 91.3314 78.3938 92.2712C78.8399 93.7551 79.0877 95.2885 79.6329 96.7724C79.7321 96.9703 80.0789 96.6241 80.0294 96.4262C79.7815 95.2391 79.3355 94.1013 79.0381 92.9142Z" fill="#C28E83"/>
<path d="M83.9945 102.906C83.4493 101.224 83.3006 99.3445 82.4085 97.8111C82.3589 97.7122 82.1607 97.9101 82.2103 98.009C83.0033 101.373 83.5485 104.885 84.6885 108.1C84.7876 108.347 85.2337 107.902 85.1841 107.753C84.9363 106.072 84.4901 104.489 83.9945 102.906Z" fill="#C28E83"/>
<path d="M49.7952 106.864C49.6465 106.122 49.3987 105.429 49.2005 104.737C49.0022 103.995 48.9031 103.104 48.5066 102.412C48.4075 102.264 48.1597 102.511 48.1597 102.659C48.2588 103.302 48.3084 103.945 48.4075 104.588C48.6058 105.528 48.8536 106.468 49.0023 107.457C49.1014 107.902 49.9935 107.259 49.7952 106.864Z" fill="#C28E83"/>
<path d="M44.9876 102.164C44.6406 100.828 44.9876 100.136 43.6494 99.8391C43.5998 99.6907 43.5502 99.5424 43.5007 99.394C43.352 98.9983 42.7572 99.6908 42.7572 99.9381V100.037C42.7572 100.136 42.8067 100.185 42.8563 100.185C43.3519 101.471 43.4511 102.906 43.9963 104.192C44.5911 105.626 45.285 107.506 45.4337 109.089C45.4833 109.534 46.1772 108.99 46.1772 108.644C45.9789 106.467 45.4832 104.291 44.9876 102.164Z" fill="#C28E83"/>
<path d="M53.2153 103.647C53.017 103.152 52.9675 102.658 52.8188 102.163C52.7692 102.015 52.4718 102.262 52.4718 102.41C52.571 102.954 52.5213 103.548 52.7691 104.043C52.9178 104.24 53.3144 103.845 53.2153 103.647Z" fill="#C28E83"/>
<path d="M111.701 89.452C111.552 88.5616 111.701 85.9401 110.809 85.3465C110.611 85.1981 110.313 85.5443 110.264 85.7422C110.065 86.1874 109.867 86.682 109.669 87.1272C109.57 87.2756 109.619 87.3745 109.718 87.3251L109.768 87.3745C110.363 89.1552 111.007 91.1338 111.007 93.0135C111.007 94.9426 111.85 96.7233 112.097 98.6029C112.147 99.147 112.99 98.4545 112.99 98.0588C112.89 95.2393 112.246 92.3209 111.701 89.452Z" fill="#C28E83"/>
<path d="M87.6624 65.2646C87.5633 63.9291 87.5137 62.5935 87.2659 61.258C87.0181 59.6751 86.8694 58.0428 86.7702 56.46C86.8198 56.361 86.8693 56.2621 86.8693 56.1632C86.8693 56.1137 86.8198 56.1137 86.7702 56.1137C86.7702 56.0643 86.8198 55.9653 86.7702 55.9653C86.7702 55.9159 86.7702 55.9159 86.7702 55.8664C86.7702 55.5696 86.3242 55.9159 86.2746 56.1137V56.1632C86.2746 56.2126 86.2746 56.2126 86.2746 56.2621C86.1259 56.4105 86.0267 56.6083 85.8781 56.8062C85.6302 56.6578 85.1842 57.2514 85.1842 57.4492V57.5481C85.1842 57.6471 85.2337 57.6966 85.2833 57.746C85.7294 58.9332 85.7294 60.4666 86.0764 61.6537C86.4729 63.0387 86.8694 64.5721 87.1668 66.056C87.2163 66.6991 87.3155 67.3916 87.4146 68.0346V68.0841C87.4642 68.3809 88.0589 67.8367 88.0589 67.6389C87.9598 66.8969 87.8111 66.1055 87.6624 65.2646Z" fill="#C28E83"/>
<path d="M92.2717 56.3104C92.0735 55.3211 91.9248 54.0351 91.3795 53.1942C91.2804 53.0458 91.0822 53.2931 91.1317 53.4415C91.5282 54.5297 91.6769 56.0631 91.8256 57.2008C92.0238 58.6353 92.4203 60.2181 92.916 61.5537C93.0151 61.801 93.4612 61.3558 93.4612 61.1579C93.1638 59.4761 92.5691 57.9427 92.2717 56.3104Z" fill="#C28E83"/>
<path d="M96.0882 75.7505C95.9395 75.2558 95.7908 74.7612 95.6421 74.2665C95.4934 73.7224 95.2456 73.2278 95.196 72.6342C95.196 72.4363 94.8986 72.6837 94.8986 72.832C94.8986 73.9203 95.2456 75.1569 95.6917 76.1462C95.7908 76.2946 96.1873 75.8988 96.0882 75.7505Z" fill="#C28E83"/>
<path d="M100.945 85.3463C100.797 84.7527 100.499 84.1591 100.351 83.5161C100.301 83.2687 100.004 83.615 100.004 83.7139C100.004 84.3075 100.202 84.9011 100.351 85.4946C100.549 86.1871 100.648 86.9291 100.896 87.6216C100.995 87.8689 101.441 87.4237 101.391 87.2259C101.243 86.5828 101.094 85.9398 100.945 85.3463Z" fill="#C28E83"/>
<path d="M115.022 97.8603C114.972 97.6625 114.675 98.0088 114.675 98.1572C114.873 99.0475 115.022 99.9378 115.319 100.828C115.418 101.075 115.815 100.63 115.765 100.432C115.567 99.5916 115.319 98.7507 115.022 97.8603Z" fill="#C28E83"/>
<path d="M113.188 43.5489C113.039 42.8564 112.99 42.1144 112.692 41.4713C112.593 41.224 112.147 41.6692 112.197 41.8671C112.543 43.3015 112.494 44.6865 113.089 46.0715C113.237 46.4178 113.832 45.8242 113.733 45.5274C113.584 44.8844 113.386 44.2414 113.188 43.5489Z" fill="#C28E83"/>
<path d="M126.471 62.8901C125.331 59.5265 124.389 55.8661 123.844 52.3541C123.795 52.1068 123.497 52.4531 123.448 52.6015C123.398 54.4811 123.993 56.4102 124.34 58.2404C124.687 60.0211 125.133 61.8018 125.827 63.4836C125.975 63.7804 126.57 63.1868 126.471 62.8901Z" fill="#C28E83"/>
<path d="M130.238 72.8315C129.941 71.8422 129.742 70.8529 129.148 69.9626C128.999 69.7152 128.652 70.1604 128.652 70.3582C128.85 71.2981 129.048 72.2874 129.247 73.2272C129.445 74.0186 129.544 75.2552 130.238 75.7499C130.486 75.9477 130.932 75.4531 130.882 75.2058C130.833 74.4143 130.436 73.6229 130.238 72.8315Z" fill="#C28E83"/>
<path d="M140.398 69.418C140.2 68.676 139.952 67.9341 139.655 67.2416C139.605 67.0932 139.358 67.3405 139.358 67.4394C139.358 68.1814 139.605 68.9233 139.754 69.6158C139.952 70.4073 139.903 71.4955 140.448 72.1385C140.646 72.3364 140.993 71.8418 140.993 71.6934C140.894 70.902 140.597 70.1599 140.398 69.418Z" fill="#C28E83"/>
<path d="M133.211 58.4866C133.162 58.0414 132.914 57.8435 132.517 57.7941C132.369 57.5467 131.972 57.9919 131.972 58.1403C131.823 58.8823 132.319 59.5253 132.27 60.2178C132.22 60.8609 132.815 60.8114 133.211 61.1577C133.409 61.306 133.707 60.9103 133.707 60.7619C133.657 59.9705 133.36 59.278 133.211 58.4866ZM132.914 59.7232C132.914 59.6242 132.914 59.5253 132.914 59.3769C132.963 59.6737 133.063 59.921 133.112 60.2178C132.765 60.1684 132.864 60.0694 132.914 59.7232Z" fill="#C28E83"/>
<path d="M146.643 79.5101C146.544 79.2134 146.396 78.6198 145.999 78.5703C145.85 78.5703 145.503 78.8176 145.553 79.0155V79.065C145.603 79.3617 145.603 79.708 145.603 80.0048C145.603 80.1532 145.553 80.351 145.603 80.4994C145.702 80.7468 146.049 80.7962 146.247 80.8952C146.396 80.9446 146.594 80.7468 146.643 80.6478C146.842 80.3511 146.743 79.9059 146.643 79.5101Z" fill="#C28E83"/>
<path d="M142.083 90.4898C141.885 89.4511 141.736 88.4618 141.736 87.423C141.736 86.0875 142.232 85.0487 140.597 84.9003C140.547 84.9003 140.547 84.8509 140.497 84.8509C140.249 84.7025 139.853 85.1477 139.952 85.395C140.398 86.2853 140.398 87.4725 140.696 88.4617C140.943 89.2037 141.142 89.9952 141.29 90.7866C141.439 91.7759 141.637 92.7652 141.736 93.7545C141.736 94.0018 141.786 94.1997 141.786 94.447C141.786 94.8922 142.529 94.348 142.529 94.0018C142.48 92.8146 142.331 91.6275 142.083 90.4898Z" fill="#C28E83"/>
<path d="M149.27 98.3054C149.122 97.9097 149.072 97.4646 148.973 97.0194C148.923 96.871 148.626 97.1183 148.675 97.2667C148.527 98.1076 148.824 99.0969 149.022 99.9378C149.072 100.235 149.617 99.7399 149.617 99.5421C149.518 99.1463 149.419 98.7506 149.27 98.3054Z" fill="#C28E83"/>
<path d="M155.02 110.771C154.673 110.078 154.227 109.435 153.88 108.792C153.582 108.248 153.087 107.902 152.641 107.506C152.542 107.407 152.443 107.407 152.294 107.506C152.145 107.407 151.947 107.704 151.897 107.852C151.749 108.05 151.699 108.297 151.848 108.396C151.947 108.495 152.046 108.545 152.145 108.644C152.542 109.682 153.087 110.721 153.186 111.809C153.236 112.551 153.632 113.343 154.475 112.897C155.416 112.403 155.466 111.611 155.02 110.771Z" fill="#C28E83"/>
<path d="M147.238 111.663C147.09 111.663 146.991 111.613 146.842 111.613C146.594 111.415 146.495 111.119 146.545 110.822C146.545 110.476 146.445 110.426 146.198 110.228C145.95 110.03 145.553 110.525 145.603 110.772C145.702 111.168 145.652 111.762 145.851 112.157C145.702 112.603 145.454 113.048 145.305 113.493C145.107 113.938 144.612 114.532 144.612 115.076C144.661 115.768 146.445 116.213 146.941 115.768C147.734 115.076 147.635 113.74 147.734 112.8C147.784 112.306 147.685 111.861 147.238 111.663Z" fill="#C28E83"/>
<path d="M144.463 120.119C144.165 119.674 143.62 120.465 143.62 120.762C143.62 121.356 143.57 121.9 143.719 122.444C143.62 122.889 143.471 123.334 143.422 123.78C143.323 124.62 143.174 125.511 143.273 126.352C143.273 126.55 143.422 126.599 143.62 126.55C144.809 126.154 145.553 124.719 145.999 123.631C146.544 122.197 145.107 121.207 144.463 120.119Z" fill="#C28E83"/>
<path d="M151.848 115.767C151.6 115.47 151.352 114.728 150.856 114.778C150.41 114.827 150.014 115.124 149.716 115.421C149.32 115.767 149.171 116.262 149.023 116.756C148.775 117.35 148.477 117.894 148.329 118.488C148.18 119.131 148.676 119.922 149.32 119.378C149.667 119.081 149.816 118.587 150.063 118.191C150.41 117.548 150.906 116.806 151.451 116.311C151.55 116.46 151.996 115.965 151.848 115.767Z" fill="#C28E83"/>
<path opacity="0.6" d="M50.3404 135.255C50.3404 135.255 56.2385 139.855 57.4776 144.604C58.7663 149.352 53.8099 151.281 58.1219 156.475C62.434 161.718 65.7548 160.432 68.7782 165.675C71.8016 170.919 76.2624 176.607 84.6387 174.579C93.0647 172.502 95.9394 163.647 103.721 165.675C111.503 167.753 118.987 167.901 118.342 164.736C117.698 161.57 117.252 160.927 121.663 156.821C126.124 152.716 129.147 146.335 125.48 140.003C121.812 133.672 130.733 128.923 128.652 120.168C126.57 111.463 118.144 107.802 100.698 113.045C86.2249 117.497 81.1693 118.734 75.2712 109.731C70.513 102.46 67.7869 99.2449 61.5914 101.174C55.3959 103.054 53.9586 108 55.3959 114.035C56.8333 120.069 55.0986 121.504 50.4891 122.889C45.8797 124.274 43.6988 127.143 50.3404 135.255Z" fill="#A96A26"/>
<path opacity="0.6" d="M98.864 164.884C95.0475 164.488 91.6772 165.923 88.7529 168.297C86.7208 169.929 84.4904 172.155 81.8139 172.452C79.2366 172.749 76.8079 171.314 75.5688 169.089C74.4288 166.912 74.0819 163.944 72.248 162.213C69.4725 159.641 65.0613 159.74 61.9883 157.514C60.6005 156.525 59.7579 155.14 59.857 153.408C59.9066 152.37 60.3527 151.529 60.8979 150.688C61.9883 148.957 61.8891 147.027 60.3527 145.593C59.3614 144.653 58.2214 143.911 57.0319 143.219C57.2301 143.664 57.3788 144.159 57.5275 144.604C58.8162 149.352 53.8598 151.281 58.1719 156.475C62.484 161.718 65.8048 160.432 68.8282 165.676C71.8516 170.919 76.3124 176.607 84.6887 174.579C92.1729 172.749 95.2458 165.577 101.293 165.379C100.5 165.131 99.7065 164.983 98.864 164.884Z" fill="#A96A26"/>
<path opacity="0.5" d="M72.1488 115.668C71.4549 113.936 70.1166 112.799 68.9271 111.414C67.6384 109.93 66.5976 108.199 65.4576 106.616C64.1194 104.786 62.7811 102.955 61.5916 100.977C60.6003 99.2455 59.7082 97.4153 58.5186 95.783C57.3787 94.2001 56.2387 92.5184 55.8917 90.7871C55.743 91.0839 55.5944 91.3312 55.5448 91.4301C55.1483 92.3205 54.504 93.755 54.95 94.7443C55.4952 96.0303 56.6352 96.7228 57.7256 97.5142C59.0142 98.4541 60.0551 99.4928 60.749 101.026C61.3438 102.461 61.9881 103.697 63.0785 104.835C64.1194 105.923 65.408 106.863 65.9533 108.347C66.3993 109.633 65.3089 111.463 66.3002 112.601C67.0436 113.491 68.2333 113.837 69.2245 114.332C70.1167 114.777 70.6618 115.47 70.8601 116.459C70.9592 116.954 70.9592 117.448 71.1079 117.943C71.207 118.487 71.5044 119.526 72.2479 119.427C72.6444 119.377 72.9913 119.18 73.2392 118.932C72.8426 117.943 72.5948 116.805 72.1488 115.668Z" fill="#C28E83"/>
<path opacity="0.5" d="M83.0534 129.469C82.1613 128.48 81.4674 127.293 80.6248 126.304C80.4266 126.65 80.1787 127.046 79.9805 127.441C79.5839 128.183 79.0883 129.074 79.683 129.865C79.9308 130.211 80.4761 130.409 80.8726 130.607C81.5665 130.904 82.2108 131.25 82.9047 131.547C83.549 131.844 84.1438 131.399 84.5403 130.854C83.9951 130.459 83.4995 130.014 83.0534 129.469Z" fill="#C28E83"/>
<path opacity="0.5" d="M108.033 154.645C106.992 153.656 105.654 152.815 104.713 151.678C104.316 151.232 103.969 150.738 103.622 150.243C102.978 149.402 102.482 149.105 101.441 148.957C100.401 148.809 99.5084 148.314 98.9632 147.424C98.071 145.989 97.1789 144.703 95.9893 143.466C95.5928 143.071 95.1962 142.675 94.7997 142.279C94.7502 142.477 94.7502 142.626 94.7502 142.774C94.6511 143.714 94.3537 145.396 95.4441 145.89C95.7415 146.039 96.0388 145.94 96.2866 145.742C96.6336 145.544 96.6336 145.148 96.3857 145.89C95.9397 147.275 96.1876 148.314 97.0797 149.402C97.8232 150.293 98.864 150.738 99.9545 150.441C100.698 150.243 101.491 149.748 102.234 150.144C102.879 150.54 102.581 151.826 102.532 152.37C102.482 153.31 102.581 154.151 103.573 154.497C104.019 154.645 104.564 154.596 105.059 154.645C106.1 154.695 106.546 155.14 106.893 156.08C107.24 156.97 107.587 157.91 108.678 158.058C109.421 158.157 110.066 157.465 110.363 156.871C110.363 156.822 110.412 156.772 110.412 156.723C109.57 156.03 108.777 155.338 108.033 154.645Z" fill="#C28E83"/>
<path opacity="0.5" d="M97.0791 99.9875C95.84 97.811 94.8983 95.4368 93.3618 93.4582C91.8253 91.5291 89.9915 89.8472 88.4054 87.9676C86.8689 86.1869 85.6794 84.2084 84.589 82.1309C83.8951 80.8448 83.102 79.6081 82.0116 78.5694C81.1194 77.679 80.1281 76.8382 79.1864 75.9973C77.1543 74.0682 75.2213 71.6444 75.0231 69.0723C74.7257 69.8637 74.6266 70.7046 74.6762 71.5455C74.9736 74.6617 78.443 76.5414 79.9795 79.0146C80.8717 80.449 81.516 82.0814 82.2099 83.6148C82.8542 85.0492 83.8454 86.2858 84.9854 87.4235C87.3149 89.7978 90.3879 91.4301 92.2218 94.2496C93.114 95.6346 93.2627 97.1185 93.4609 98.7014C93.6592 100.235 94.3531 101.323 95.4931 102.312C96.6826 103.351 97.9217 104.34 99.0121 105.527C100.251 106.814 101.044 108.347 102.135 109.732C102.68 110.424 103.126 110.523 103.423 110.276C101.589 106.715 99.1608 103.45 97.0791 99.9875Z" fill="#C28E83"/>
<path opacity="0.5" d="M112.494 118.833C111.453 117.547 110.908 115.914 109.818 114.678C109.669 115.667 109.322 116.706 109.669 117.646C109.817 118.041 110.264 118.239 110.611 118.437C111.404 118.833 111.949 119.228 112.544 119.921C113.188 120.663 114.08 121.702 115.17 121.9C114.477 120.762 113.386 119.97 112.494 118.833Z" fill="#C28E83"/>
<path opacity="0.5" d="M117.5 123.582C117.351 124.373 117.153 125.214 117.103 126.055C117.054 127.143 118.342 128.034 118.838 128.875C119.482 129.864 120.622 130.507 120.672 128.875C120.672 128.43 120.622 128.034 120.573 127.638C119.582 126.204 118.64 124.819 117.5 123.582Z" fill="#C28E83"/>
<path opacity="0.5" d="M129.841 137.482C129.048 136.691 128.85 135.553 128.057 134.761C127.66 134.415 127.264 134.069 126.867 133.723C126.52 134.366 126.272 135.009 126.173 135.8C125.925 137.482 127.561 137.581 128.602 138.224C129.395 138.669 129.593 140.252 130.535 140.549C131.179 140.747 131.625 140.153 131.724 139.559C131.774 139.411 131.774 139.263 131.824 139.114C131.08 138.57 130.436 138.076 129.841 137.482Z" fill="#C28E83"/>
<path opacity="0.5" d="M115.22 74.2655C114.824 73.3751 114.328 72.5342 114.08 71.5944C113.882 70.7535 113.783 69.8632 113.585 69.0223C112.841 65.5103 109.966 63.878 107.637 61.4048C106.646 60.366 105.803 59.1788 105.406 57.7938C104.96 56.211 105.01 54.4303 104.316 52.8969C103.473 51.0173 101.739 49.5333 100.4 48C99.7561 47.258 99.1117 46.516 98.517 45.7246C98.3683 46.3182 98.2692 46.8623 98.3187 47.4559C98.3683 48.8409 99.7065 49.6817 100.549 50.6215C101.739 51.9571 102.086 53.5894 102.482 55.2712C102.829 56.9035 103.523 58.2885 104.613 59.5251C105.654 60.7122 106.645 61.8499 107.587 63.1855C108.628 64.6694 109.818 65.906 111.057 67.1921C112.296 68.5771 112.593 69.9126 112.643 71.7428C112.643 73.0784 112.742 74.3149 113.337 75.5021C113.882 76.5903 114.972 77.1344 115.914 76.9366C115.815 75.9967 115.617 75.1064 115.22 74.2655Z" fill="#C28E83"/>
<path opacity="0.5" d="M121.663 86.9279C121.812 85.1967 121.366 83.5149 121.068 81.8331C120.771 80.1514 120.027 78.519 119.433 76.8867C119.383 77.0351 119.334 77.134 119.284 77.2824C118.987 78.1233 118.788 78.8653 119.135 79.7556C119.532 80.7944 120.325 81.5363 120.523 82.674C120.672 83.5149 120.573 84.4548 120.672 85.2956C120.771 85.9387 121.118 86.7301 121.663 86.9279Z" fill="#C28E83"/>
<path opacity="0.5" d="M141.786 112.107C139.308 109.287 136.979 106.517 135.095 103.253C134.054 101.423 133.014 99.6418 131.973 97.8611C131.031 96.2782 130.188 94.5965 129.891 92.7663C129.643 91.2329 130.04 89.749 129.792 88.2651C129.742 87.8694 129.544 87.4736 129.346 87.1768C129.247 87.2263 129.148 87.3252 129.048 87.4241C128.999 87.4241 128.999 87.4736 128.999 87.5231C128.999 87.4242 128.999 87.2758 128.999 87.1768C128.999 87.0779 128.9 87.2263 128.9 87.2758C128.9 87.4736 128.85 87.622 128.85 87.7704C128.652 88.1167 128.553 88.6113 128.553 88.9575C128.553 89.0565 128.553 89.1554 128.553 89.2049C128.454 89.6006 128.305 89.9468 128.156 90.3426C127.958 90.8372 127.76 91.3813 127.76 91.9254C127.661 93.6072 128.255 94.9427 129.148 96.3772C131.031 99.3945 132.815 102.461 134.798 105.429C135.69 106.765 136.433 108.001 136.929 109.535C137.375 110.969 137.722 112.404 138.367 113.739C138.813 114.58 141.192 117.746 142.084 115.817C142.579 114.778 142.183 113.64 142.133 112.503C141.985 112.305 141.886 112.206 141.786 112.107Z" fill="#C28E83"/>
<path d="M87.8108 104.885C87.7117 104.588 87.5134 104.34 87.3152 104.093C87.1665 103.895 87.0674 103.697 86.8196 103.648C86.7204 103.549 86.6709 103.45 86.5717 103.351C86.4726 103.104 86.1257 103.549 86.0761 103.648C86.0265 103.796 86.0265 103.994 86.1256 104.143C86.076 104.242 86.0265 104.34 86.0265 104.439C86.076 104.885 86.3238 105.181 86.6212 105.528C86.6708 105.577 86.7699 105.627 86.869 105.577C86.9186 105.627 86.9186 105.676 86.9681 105.676C87.3151 105.923 87.91 105.181 87.8108 104.885Z" fill="black"/>
<path d="M80.5251 105.23C80.426 105.23 80.3764 105.18 80.2773 105.18C80.1781 105.032 79.9799 104.933 79.8312 104.884C79.4347 104.735 78.9886 105.181 79.0382 105.576C79.0877 105.774 79.1869 105.873 79.3852 105.922C79.633 106.021 79.8312 106.12 80.079 106.071C80.2773 106.071 80.4756 105.873 80.5747 105.725C80.6243 105.626 80.7729 105.279 80.5251 105.23Z" fill="black"/>
<path d="M79.1371 121.554C79.038 121.406 78.8396 121.406 78.691 121.406C78.691 121.356 78.6414 121.356 78.5918 121.356C77.9971 121.455 77.6006 121.455 77.1049 121.851C76.6588 122.197 76.1136 122.791 76.064 123.335C76.0145 123.83 76.3119 124.225 76.758 124.374C77.2536 124.522 77.9971 124.621 78.4927 124.423C79.038 124.225 79.3849 123.681 79.4344 123.137C79.4344 122.593 79.4345 121.901 79.1371 121.554Z" fill="black"/>
<path d="M68.6793 126.254C68.5802 126.106 68.5306 126.007 68.4315 125.908C68.2828 125.71 68.1342 125.562 67.9855 125.413C67.6385 125.116 67.1924 125.463 66.9942 125.809C66.9446 125.858 66.9445 125.858 66.895 125.908C66.8454 126.007 66.7959 126.106 66.7959 126.254C66.7959 126.452 66.8951 126.65 66.9942 126.848C67.1924 127.194 67.4402 127.392 67.7871 127.59C67.8863 127.689 68.035 127.738 68.1837 127.738C68.4811 127.689 68.7784 127.392 68.8775 127.144C69.0758 126.749 68.9271 126.501 68.6793 126.254Z" fill="black"/>
<path d="M64.8128 121.307C64.7136 121.109 64.5649 120.911 64.4162 120.763C64.3667 120.713 64.3172 120.713 64.2676 120.713C64.2676 120.713 64.2676 120.713 64.218 120.664C63.9206 120.367 63.5241 120.614 63.3754 120.96C63.2267 121.356 63.425 121.702 63.6233 121.999C63.8215 122.247 64.1189 122.543 64.5154 122.494C64.8128 122.444 65.0606 122.148 65.0606 121.851C65.0606 121.702 64.9119 121.505 64.8128 121.307Z" fill="black"/>
<path d="M100.103 132.188C100.053 131.941 99.9543 131.199 99.5578 131.248H99.5081C99.3099 131.001 99.0126 131.001 98.8143 131.248C98.3187 131.792 98.7647 132.831 99.1612 133.326C99.3595 133.622 99.7065 133.523 99.9543 133.326C100.301 133.078 100.202 132.633 100.103 132.188Z" fill="black"/>
<path d="M109.173 135.602C109.123 135.453 109.074 135.404 108.975 135.305C108.876 135.206 108.826 135.058 108.727 134.959C108.677 134.86 108.578 134.761 108.529 134.711C108.43 134.613 108.43 134.563 108.33 134.514C108.33 134.514 108.33 134.514 108.281 134.514C108.182 134.514 108.083 134.613 108.033 134.711C107.835 135.008 107.984 135.256 108.083 135.552C108.182 135.849 108.281 136.195 108.677 136.245C108.925 136.294 109.322 135.899 109.173 135.602Z" fill="black"/>
<path d="M117.351 139.114C117.202 139.114 116.806 139.559 117.053 139.658C117.202 139.708 117.252 139.955 117.252 140.054C117.301 140.202 117.351 140.4 117.351 140.499C117.4 140.697 117.549 140.697 117.698 140.598C117.896 140.499 118.045 140.301 118.045 140.054C118.094 139.658 117.846 139.065 117.351 139.114Z" fill="black"/>
<path d="M104.911 79.3118C104.911 79.2128 104.861 79.015 104.762 78.8666C104.713 78.6193 104.613 78.4214 104.514 78.2236C104.267 77.7289 103.771 77.1848 103.226 77.5805C102.68 77.9268 102.581 78.6193 102.73 79.2129C102.879 79.8064 103.275 80.6968 103.92 80.8947C104.217 80.9936 104.613 80.5979 104.762 80.4C104.911 80.0538 104.96 79.7075 104.911 79.3118Z" fill="black"/>
<path d="M101.391 74.909C101.391 74.7111 101.292 74.5627 101.243 74.3648C101.144 74.1175 101.044 73.9691 100.846 73.8207C100.351 73.425 99.6567 74.068 99.7558 74.6122C99.8054 74.8595 100.004 75.1563 100.152 75.3541C100.301 75.6014 100.45 75.8488 100.698 75.9972C101.193 76.4918 102.135 75.2058 101.391 74.909Z" fill="black"/>
<path d="M127.76 82.2802C127.561 81.8845 127.413 81.4393 126.917 81.7856C126.57 81.9834 126.421 82.3792 126.273 82.7254C125.876 83.2695 125.579 83.9621 125.975 84.5556C126.62 85.4954 127.809 84.605 128.008 83.7642C128.156 83.22 127.958 82.7749 127.76 82.2802Z" fill="black"/>
<path d="M148.874 86.5828C148.824 86.4839 148.775 86.4344 148.725 86.4344C148.676 86.286 148.577 86.1376 148.428 86.0387C148.031 85.6925 147.536 86.4344 147.387 86.6817C147.189 87.0774 147.288 87.5226 147.387 87.9183C147.486 88.314 147.833 89.5507 148.378 89.5012C149.766 89.3528 149.122 87.3742 148.874 86.5828Z" fill="black"/>
<path d="M73.5859 160.927C73.5859 160.878 73.5364 160.878 73.5364 160.828C73.586 160.63 73.4868 160.383 73.239 160.235C72.8425 159.938 72.3964 160.086 72.1486 160.482C71.9504 160.828 72.0495 161.224 72.2477 161.521C72.3964 161.818 72.6443 162.114 72.8921 162.213C73.0408 162.312 73.2886 162.065 73.3877 161.966C73.6851 161.669 73.7842 161.323 73.5859 160.927Z" fill="black"/>
<path d="M78.7901 164.637C78.7405 164.637 78.7405 164.637 78.691 164.588C78.6414 164.439 78.5919 164.291 78.4928 164.143C78.4432 163.945 78.3441 163.846 78.1458 163.747C78.0467 163.697 77.898 163.796 77.8484 163.846C77.5015 164.143 77.5015 164.489 77.6502 164.835C77.7493 165.033 77.9971 165.478 78.2944 165.429C78.5918 165.379 78.8397 165.082 78.8397 164.786C78.9388 164.736 78.8892 164.637 78.7901 164.637Z" fill="black"/>
<path d="M83.3996 166.518C83.3996 166.469 83.3501 166.419 83.3005 166.37C83.2014 166.221 83.0527 166.122 82.904 166.024C82.6561 165.925 82.3587 166.221 82.2596 166.419C82.1109 166.617 82.0614 166.864 82.1605 167.112C82.3092 167.606 82.7553 167.606 83.1023 167.359H83.1518C83.3005 167.31 83.4492 167.161 83.4492 167.013C83.4988 166.815 83.4492 166.667 83.3996 166.518Z" fill="black"/>
<path d="M86.0763 158.405C86.0763 158.355 86.0763 158.355 86.0763 158.306C86.0267 158.157 85.9276 158.058 85.8284 157.91C85.7789 157.861 85.7788 157.762 85.7292 157.712C85.6796 157.564 85.5805 157.465 85.4814 157.366C85.2336 157.168 84.9362 157.366 84.7875 157.613C84.5893 157.91 84.6388 158.256 84.7875 158.603C84.9362 158.998 85.2831 159.542 85.7292 159.246C85.8779 159.147 85.9771 159.048 86.0266 158.949L86.0763 158.899C86.1754 158.751 86.1258 158.603 86.0763 158.405Z" fill="black"/>
<path d="M104.068 77.8755C104.018 77.8261 104.018 77.826 103.969 77.826C103.87 77.6776 103.622 77.925 103.523 78.0734C103.424 78.1723 103.374 78.2713 103.374 78.3702V78.4196C103.374 78.4691 103.374 78.5185 103.374 78.568C103.374 78.6669 103.424 78.7164 103.572 78.7164C103.82 78.6669 104.068 78.4196 104.118 78.1723C104.167 78.0239 104.167 77.925 104.068 77.8755Z" fill="white"/>
<path d="M127.214 82.2783C126.867 82.2783 126.322 83.1192 126.818 83.1192C127.214 83.1687 127.71 82.2783 127.214 82.2783Z" fill="white"/>
<path d="M78.3441 121.751C78.0963 121.702 77.8484 121.702 77.6006 121.85C77.2537 122.048 77.0059 122.394 77.0059 122.79C77.0059 123.037 77.3032 122.988 77.4519 122.889C77.551 122.84 77.6007 122.79 77.6502 122.741C77.6998 122.691 77.7988 122.642 77.7988 122.543H77.8484C78.0467 122.543 78.1953 122.345 78.2945 122.196C78.4432 122.147 78.5919 121.801 78.3441 121.751Z" fill="white"/>
<path d="M109.173 29.1043C104.266 28.857 100.003 32.6163 97.1783 36.2767C95.394 38.552 93.461 40.5801 91.8253 42.9543C89.8923 45.7243 87.9593 48.4944 85.9768 51.2149C84.0933 53.7871 81.7638 55.9635 79.583 58.3378C77.3526 60.811 75.5684 63.6304 73.1893 65.9552C68.8772 70.1102 65.0607 73.9685 62.3347 79.3106C61.3434 81.2892 63.8712 80.3494 64.5651 79.459C66.2007 77.2331 67.638 74.8094 69.6206 72.8802C71.504 71.0501 73.3876 69.2694 75.1719 67.3897C77.0553 65.4606 78.6413 63.2842 80.3265 61.1572C82.0612 58.9313 84.1925 57.1012 86.0264 54.9247C89.5454 50.7203 92.4202 45.9717 95.4932 41.4704C97.0296 39.2445 98.8139 37.0187 100.499 34.8917C102.482 32.4185 105.753 30.341 108.875 29.8463C109.123 29.8958 109.668 29.1538 109.173 29.1043Z" fill="#7C3800"/>
<path d="M56.3876 84.6537C50.7869 90.0453 43.3523 95.8821 44.3931 104.687C44.5914 106.369 46.8713 104.291 46.9704 103.45C47.4661 99.8392 47.9618 96.6735 49.9939 93.6067C51.9269 90.6883 54.6529 88.1656 56.9329 85.4946C57.4285 84.8515 57.1311 83.9612 56.3876 84.6537Z" fill="#7C3800"/>
<path d="M60.6993 102.756C57.8742 104.685 55.9908 107.653 55.6934 111.116C55.4952 113.638 56.0403 116.013 56.2386 118.486C56.4368 121.404 52.1744 123.383 49.9935 124.471C49.3492 124.768 48.5066 126.697 49.7952 126.252C52.6699 125.361 57.9238 122.196 58.122 118.733C58.2707 116.26 57.4778 113.886 57.3291 111.462C57.1308 108.247 58.4195 105.229 60.7986 103.102C60.8977 103.004 60.9967 102.558 60.6993 102.756Z" fill="#A96A26"/>
<path d="M53.2152 132.585C52.5213 132.239 51.7283 131.992 51.1335 131.448C50.5387 130.854 49.9439 129.815 49.8448 128.974C49.7952 128.529 49.1509 129.123 49.1509 129.37C49.1509 130.409 49.6466 131.448 50.2413 132.338C50.737 133.129 51.6787 133.426 52.4717 133.822C52.9178 134.02 53.7604 132.882 53.2152 132.585Z" fill="#A96A26"/>
<path d="M120.523 113.591C117.302 112.552 114.328 112.453 111.007 112.7C108.182 112.948 105.208 114.135 102.532 115.075C96.336 117.152 87.2657 121.554 80.9215 117.746C80.7233 117.647 80.3763 118.042 80.525 118.191C84.9858 122.049 92.2222 119.972 97.1786 118.339C100.599 117.202 104.167 116.361 107.587 115.173C111.453 113.788 115.567 114.679 119.532 115.223C120.127 115.272 121.316 113.887 120.523 113.591Z" fill="#A96A26"/>
<path d="M123.249 116.36C122.903 116.064 122.258 116.904 122.506 117.201C123.646 118.537 124.34 119.971 123.894 121.752C123.646 122.692 124.935 121.9 125.133 121.455C125.926 119.427 124.786 117.696 123.249 116.36Z" fill="#A96A26"/>
</svg>
