<svg width="200" height="200" viewBox="0 0 200 200" fill="none" xmlns="http://www.w3.org/2000/svg">
<path d="M101.143 70.1185C100.615 72.052 100.44 73.634 100.44 74.8644C101.495 75.3917 102.726 76.0948 103.781 76.7979C103.781 76.7979 109.76 76.7979 113.628 78.3798C113.98 78.5556 114.332 78.5556 114.683 78.5556C116.442 78.5556 116.09 75.919 113.804 73.4582C113.101 73.2824 112.397 72.9309 111.87 72.9309C108.88 72.2278 106.243 72.2278 103.253 70.8216C102.374 70.4701 101.846 70.2943 101.143 70.1185ZM71.9519 157.477C66.8523 157.477 61.9285 156.071 58.0598 153.61C43.6401 144.47 57.1805 114.061 65.7972 103.867C75.4689 92.2658 83.7339 86.9926 89.8886 86.9926C99.2086 86.9926 103.957 99.2967 102.022 121.268C99.7362 147.458 85.3165 157.477 71.9519 157.477ZM39.068 129.529C36.2544 129.529 33.7925 127.069 32.5615 120.038C29.2204 102.461 43.2884 85.7622 53.8394 79.6102C58.0598 77.1494 61.5768 76.0948 64.0387 76.0948C69.3142 76.0948 70.7209 80.4891 68.0832 83.4772C64.3904 87.8715 52.9601 111.952 49.7948 119.159C48.0363 123.729 43.2884 129.529 39.068 129.529ZM77.2274 68.0093C67.0281 68.0093 55.0703 74.5128 45.3986 82.9499C35.7268 91.3869 28.1653 101.757 26.4068 109.491C25.8792 112.128 25.5275 115.116 25.5275 118.28C25.5275 122.147 25.8792 126.19 26.9343 130.584C29.0445 135.154 32.034 140.603 36.0785 146.755C45.7503 161.871 61.7526 168.199 77.7549 168.199C89.8886 168.199 101.846 164.684 110.991 158.708C132.268 144.997 127.345 106.328 122.421 95.0781C119.08 87.5199 114.332 85.0591 111.694 85.0591C110.287 85.0591 109.584 85.5865 109.76 86.4653C110.111 88.223 111.166 94.5508 109.76 94.5508C109.056 94.5508 107.825 93.3204 105.891 90.1565C101.671 83.1256 96.395 81.0164 90.9437 81.0164C88.1301 81.0164 85.3165 81.5437 82.5029 82.4226C80.9202 82.9499 79.6893 83.1256 78.8101 83.1256C75.4689 83.1256 77.7549 79.9618 80.9202 78.5556C84.2614 76.9736 81.4478 75.5675 75.8206 75.5675C74.9414 75.5675 74.0621 75.5675 73.007 75.7432C72.1278 75.7432 71.6002 75.7432 70.8968 75.7432C66.1489 75.7432 68.0832 74.1613 68.0832 74.1613C68.0832 74.1613 72.4794 71.5247 78.6342 71.5247C81.2719 71.5247 84.4372 72.052 87.6025 73.4582C87.6025 73.4582 89.0093 73.1067 91.1195 73.1067C91.9988 73.1067 93.2298 73.1067 94.2848 73.2824C94.6365 72.2278 95.1641 70.9974 95.6916 69.5912C93.5814 69.5912 91.2954 69.767 89.1852 69.767C87.2508 69.767 85.1406 69.5912 83.2063 69.0639C81.4478 68.3608 79.3376 68.0093 77.2274 68.0093Z" fill="url(#paint0_radial_7002_16365)"/>
<path d="M83.3822 68.7128V68.8886C85.3165 69.4159 87.4267 69.5917 89.3611 69.5917C91.6471 69.5917 94.109 69.4159 96.3951 69.4159C98.6811 69.4159 100.967 69.5917 103.077 70.6463C106.067 72.0525 108.705 72.0525 111.694 72.7556C114.683 73.4587 117.849 74.8648 121.893 79.0834C126.114 83.3019 128.576 85.2354 130.158 87.1689C131.917 89.1024 132.796 91.0359 134.027 95.2544C135.258 99.8244 136.665 111.953 136.665 124.081C136.665 134.803 135.61 145.701 132.093 151.677C129.279 156.599 122.948 162.048 114.332 166.09C105.715 170.309 94.8124 173.121 83.0305 173.121C76.1723 173.121 68.9625 172.067 61.9285 169.957C48.388 165.739 39.2438 157.126 33.4408 147.459C27.6378 137.791 25.3517 126.893 25.3517 117.929C25.3517 114.765 25.7034 111.777 26.231 109.14C27.8136 101.406 35.3751 91.0359 45.2227 82.5988C54.8945 74.1618 66.8523 67.6582 77.0516 67.6582C79.1618 67.6582 81.272 68.0097 83.2063 68.5371L83.3822 68.7128V68.5371C81.4478 67.834 79.3376 67.6582 77.0516 67.6582C66.6764 67.6582 54.7186 74.1618 44.871 82.5988C35.0234 91.0359 27.4619 101.406 25.8792 109.316C25.3517 111.953 25 114.941 25 118.105C25 127.069 27.2861 138.143 33.0891 147.986C38.8922 157.829 48.0363 166.442 61.7526 170.661C68.9625 172.946 76.1723 174 83.0305 174C94.8124 174 105.891 171.012 114.508 166.969C123.124 162.751 129.631 157.302 132.444 152.38C135.785 146.228 137.016 135.33 137.016 124.608C137.016 112.304 135.61 100.176 134.379 95.6059C133.148 91.3874 132.268 89.2781 130.51 87.3446C128.751 85.4112 126.29 83.4777 122.245 79.2591C118.025 75.0406 114.859 73.4587 111.87 72.7556C108.88 72.0525 106.243 72.0525 103.253 70.6463C101.143 69.5917 98.6811 69.4159 96.3951 69.4159C94.109 69.4159 91.823 69.5917 89.3611 69.5917C87.4267 69.5917 85.4924 69.4159 83.558 68.8886L83.3822 68.7128Z" fill="#758614"/>
<path d="M78.8101 71.3486C72.4795 71.3486 68.2591 73.9852 68.2591 73.9852C68.2591 73.9852 66.5006 75.5672 71.0727 75.5672C71.6003 75.5672 72.3036 75.5672 73.1829 75.5672C74.0621 75.5672 75.1172 75.3914 75.9965 75.3914C81.6237 75.3914 84.4373 76.7976 81.0962 78.3795C77.9309 79.7857 75.6448 82.9496 78.9859 82.9496C79.8652 82.9496 80.9203 82.7738 82.6788 82.2465C85.4924 81.3676 88.306 80.8403 91.1196 80.8403C96.5709 80.8403 101.846 82.9496 106.067 89.9805C108.001 93.1444 109.232 94.3748 109.936 94.3748C111.518 94.3748 110.287 88.2227 109.936 86.2892C109.76 85.4104 110.639 84.8831 111.87 84.8831C114.508 84.8831 119.256 87.3439 122.597 94.9021C127.521 106.327 132.444 144.821 111.166 158.531C102.022 164.508 90.0645 168.023 77.9309 168.023C61.9285 168.023 45.9262 161.871 36.2544 146.579C32.2099 140.427 29.2204 134.978 27.1102 130.408C28.3412 136.208 30.4514 142.185 33.7925 147.809C39.5956 157.477 48.5639 166.09 62.2802 170.308C69.4901 172.593 76.6999 173.472 83.3822 173.472C95.1641 173.472 106.067 170.66 114.683 166.441C123.3 162.223 129.631 156.95 132.444 152.028C135.785 146.052 140.533 135.154 140.533 124.432C140.533 112.128 135.61 99.9995 134.379 95.6052C134.203 94.9021 134.027 94.199 133.851 93.4959C133.499 93.3201 133.148 93.1443 132.796 92.7928C131.565 92.0897 129.982 91.5624 129.103 90.332C128.4 89.6289 128.048 88.5743 128.048 86.9923C128.048 85.9377 127.696 85.4104 127.345 84.8831C126.817 84.3557 126.29 84.18 125.41 84.0042C123.828 83.6527 122.069 83.4769 120.662 82.598C119.783 81.895 119.256 80.8403 119.256 79.0826C119.256 77.6764 119.08 76.6218 118.728 75.9187C117.145 74.6883 115.563 73.9852 114.156 73.4579C116.442 75.9187 116.794 78.5553 115.035 78.5553C114.683 78.5553 114.332 78.5553 113.98 78.3795C110.111 76.7976 104.132 76.7976 104.132 76.7976C103.077 75.9187 102.022 75.3914 100.791 74.8641C100.791 75.3914 100.791 75.7429 100.791 76.0945C100.791 78.028 101.143 78.731 101.143 78.731V78.9068C102.374 79.6099 103.429 80.4888 104.484 81.5434C106.067 80.4888 108.001 80.313 109.76 80.313C113.804 80.313 117.673 81.8949 117.673 81.8949L117.497 82.2465C117.497 82.2465 117.321 82.0707 116.794 82.0707C116.442 81.895 115.739 81.7192 115.035 81.5434C113.628 81.1919 111.694 80.8403 109.584 80.8403C107.825 80.8403 106.067 81.1919 104.484 82.0707C105.539 83.3011 106.594 84.7073 107.474 86.465L107.122 86.6408C104.836 82.2465 102.022 79.9614 99.0328 78.731C98.5053 78.5553 97.9777 78.3795 97.4502 78.2038C96.0434 77.8522 94.6366 77.6764 93.2298 77.6764C87.2509 77.6764 81.6237 80.6645 80.3927 81.5434C80.2169 81.7192 80.041 81.7192 80.041 81.7192L79.8652 81.3676C79.8652 81.3676 84.2614 78.5553 89.7128 77.6764C85.6682 73.6337 81.6237 72.7548 78.4584 72.7548C76.6999 72.7548 75.2931 73.1064 74.5897 73.2821C74.4139 73.2821 74.0621 73.2821 74.0621 73.2821V72.9306C74.0621 72.9306 74.4139 72.9306 74.5897 72.9306C74.7655 72.9306 75.1172 72.7548 75.6448 72.7548C76.3482 72.579 77.4033 72.4033 78.6342 72.4033C81.7995 72.4033 86.1958 73.2821 90.2403 77.6764C91.1196 77.5007 92.1747 77.5006 93.2298 77.5006C93.4056 76.446 93.9332 75.0398 94.4607 73.6337C93.2298 73.4579 92.1747 73.4579 91.2954 73.4579C89.1852 73.4579 87.7784 73.8095 87.7784 73.8095C84.6131 71.876 81.4478 71.3486 78.8101 71.3486Z" fill="url(#paint1_radial_7002_16365)"/>
<path d="M113.453 73.2822L113.804 73.6338C115.211 74.1611 116.618 74.8642 118.376 76.0946L118.2 75.743C116.266 74.5126 114.859 73.6338 113.453 73.2822Z" fill="#637213"/>
<path d="M103.957 26.7031C103.429 26.8789 103.077 27.2304 102.55 27.582C102.726 28.4608 103.957 33.9098 103.957 40.9406C103.957 42.3468 103.957 43.9288 103.781 45.3349C103.429 50.2565 101.319 56.4086 99.0328 62.209C97.626 65.7245 96.3951 69.0641 95.34 71.8765C95.5158 73.4584 95.8675 74.1615 96.3951 74.1615C98.857 74.1615 104.132 55.7055 105.539 50.0808C107.298 42.8741 112.222 28.6366 107.649 27.7577C106.243 27.9335 105.012 27.4062 103.957 26.7031Z" fill="url(#paint2_radial_7002_16365)"/>
<path d="M102.374 27.5813H102.198C102.198 27.5813 102.374 27.9328 102.374 28.6359C102.726 30.5694 103.605 35.3153 103.605 40.94C103.605 42.3461 103.605 43.7523 103.429 45.3343C103.077 50.0801 100.967 56.2321 98.6811 62.2084C96.3951 68.0088 94.109 73.6335 93.4056 76.9732V77.3248H93.7573H93.9332C94.6366 77.3248 96.9226 77.5005 100.615 79.0825L101.143 79.2582L100.791 78.7309C100.791 78.7309 100.44 78.0278 100.44 76.0943C100.44 73.9851 100.967 70.2939 102.902 64.4934C106.77 53.0682 108.529 47.4435 110.111 40.4127C110.815 36.8972 111.342 34.0849 111.87 32.1514C112.046 31.0967 112.222 30.2179 112.397 29.6906C112.573 28.9875 112.749 28.6359 112.749 28.4602V28.2844C112.749 28.1086 112.749 27.9329 112.573 27.9329C112.222 27.5813 111.342 27.054 110.463 26.7025C109.408 26.3509 108.177 26.1751 106.77 26.1751C105.012 25.8236 103.429 26.1751 102.374 27.5813H102.198V27.7571L102.374 27.5813C103.605 26.5267 105.188 26.1751 106.77 26.1751C108.177 26.1751 109.584 26.5267 110.639 26.8782C111.166 27.054 111.694 27.2298 111.87 27.5813C112.046 27.7571 112.046 27.7571 112.222 27.9329V28.1086C112.046 28.4602 111.87 28.8117 111.87 29.5148C111.342 31.4483 110.815 35.1395 109.76 40.4127C108.177 47.4435 106.419 53.0682 102.55 64.4934C100.615 70.4697 100.088 74.1609 100.088 76.2701C100.088 78.3794 100.44 79.0825 100.615 79.0825L100.791 78.9067V78.7309C97.0985 77.149 94.8124 76.9732 93.9332 76.9732C93.7573 76.9732 93.5815 76.9732 93.5815 76.9732V77.149H93.7573C94.4607 73.8093 96.9226 68.3604 99.0328 62.3842C101.319 56.5837 103.429 50.2559 103.781 45.51C103.957 43.9281 103.957 42.5219 103.957 41.1157C103.957 33.5576 102.55 27.5813 102.55 27.5813H102.374Z" fill="#503309"/>
<path d="M106.77 26.1758C105.715 26.1758 104.836 26.3516 103.957 26.7031C105.012 27.4062 106.243 27.9335 107.649 28.1093C112.397 28.8124 107.474 43.0499 105.539 50.4323C104.132 56.057 98.857 74.513 96.3951 74.513C95.8675 74.513 95.5158 73.8099 95.34 72.228C94.6366 73.9857 94.109 75.5677 93.7573 76.9738C94.2849 76.9738 95.5158 76.9739 97.4502 77.6769C97.9777 77.8527 98.5053 78.0285 99.0328 78.2043C99.3845 78.38 99.7362 78.38 100.088 78.5558C99.9121 78.2043 99.7362 77.3254 99.7362 76.095C99.7362 73.8099 100.264 70.1187 102.198 64.3183C106.067 52.8931 107.825 47.2684 109.408 40.2375C110.639 34.9644 111.166 31.4489 111.518 29.3397C111.694 28.6366 111.87 28.285 111.87 27.9335V27.7577C111.87 27.7577 111.694 27.582 111.518 27.4062C111.166 27.2304 110.815 27.0546 110.287 26.7031C109.584 26.5273 108.177 26.1758 106.77 26.1758Z" fill="url(#paint3_radial_7002_16365)"/>
<path d="M95.34 71.7007C94.6366 73.8099 93.9332 75.5677 93.5815 76.9738C94.9883 76.9738 96.2192 77.1496 97.626 77.5012C95.6917 76.9738 94.4607 76.7981 93.9332 76.7981C94.2849 75.5677 94.8124 73.81 95.5158 72.0523C95.34 72.0523 95.34 71.8765 95.34 71.7007ZM106.77 26C105.715 26 104.66 26.1758 103.781 26.5273L103.957 26.7031C104.836 26.3516 105.715 26.1758 106.77 26.1758C108.177 26.1758 109.584 26.5273 110.639 26.8789C111.166 27.0546 111.694 27.2304 111.87 27.582C112.046 27.7577 112.046 27.7577 112.222 27.9335V28.1093C112.046 28.4608 111.87 28.8123 111.87 29.5154C111.342 31.4489 110.815 35.1402 109.76 40.4133C108.177 47.4442 106.419 53.0689 102.55 64.4941C100.615 70.4703 100.088 74.1615 100.088 76.2708C100.088 77.5012 100.264 78.2042 100.44 78.7316C100.088 78.5558 99.7362 78.38 99.3845 78.38C99.7362 78.5558 100.264 78.7316 100.615 78.9073C100.264 78.2043 99.3845 74.5131 102.726 64.4941C106.594 53.0689 108.353 47.4442 109.936 40.4133C111.518 33.3824 112.046 29.3397 112.573 28.285C112.749 27.4062 109.76 26 106.77 26Z" fill="#372209"/>
<path d="M157.415 85.7622C158.998 87.8714 160.756 89.8049 162.691 91.3869C163.218 91.7384 163.57 92.2657 164.097 92.6173C159.877 92.4415 156.36 90.8596 153.019 88.5745C153.546 89.9807 154.25 91.3869 154.777 92.793C155.832 95.0781 157.063 97.1873 157.943 98.5935C159.525 98.7693 160.932 98.9451 162.691 99.4724C163.921 99.8239 165.152 99.9997 166.383 100.351C167.087 100.175 167.614 100.175 168.318 99.9997C170.78 99.4724 173.066 98.7693 174.121 98.4178C174.472 98.242 174.648 98.0662 174.648 98.0662C174.648 98.0662 174.472 98.0662 174.297 97.8904C173.593 97.8904 173.241 97.5389 173.066 97.0116C172.89 96.4843 172.714 95.957 172.714 95.2539C172.714 94.375 172.89 93.1446 172.89 92.2657C172.89 91.2111 172.714 90.3323 172.362 89.6292C172.011 88.9261 171.307 88.3988 169.9 88.223C165.504 88.223 160.229 86.641 157.415 85.7622ZM143.171 81.3679C143.171 81.5436 143.171 81.8952 143.171 82.2467C143.171 83.1256 143.171 84.1802 143.171 85.4106V85.7622C143.171 88.5745 144.05 92.09 144.93 94.9023C145.281 95.0781 145.809 95.2539 146.336 95.7812C147.567 97.0116 148.447 98.4178 150.029 99.1208C150.557 99.2966 151.084 99.4724 151.612 99.4724C152.843 99.4724 154.25 99.1208 155.481 98.9451C156.008 98.9451 156.712 98.7693 157.239 98.7693H157.591C156.887 97.7147 156.008 96.1327 155.305 94.5508C154.25 92.6173 153.37 90.508 152.667 88.3987C149.853 86.4653 147.04 84.1802 144.226 82.071C143.699 81.7194 143.523 81.5436 143.171 81.3679ZM150.557 76.7978C152.667 79.6102 154.777 82.4225 156.887 85.2349C157.767 85.5864 158.998 85.9379 160.404 86.2895C162.691 86.9926 165.68 87.5199 168.318 87.6957C167.79 87.3441 167.438 86.9926 167.263 86.641C166.911 85.9379 166.735 85.0591 166.735 84.1802C166.735 83.3014 166.735 82.4225 166.735 81.7194C166.735 80.8406 166.559 79.9617 166.208 79.4344C165.856 78.7313 165.328 78.204 164.273 78.0282C163.218 78.204 161.987 78.3798 160.756 78.3798C157.239 78.204 153.37 77.5009 150.557 76.7978ZM134.379 73.4581C134.379 73.8097 134.379 73.9855 134.379 74.337C134.379 76.2705 134.203 78.5555 134.203 80.6648C134.203 81.3679 134.203 82.071 134.203 82.5983C134.379 84.356 134.379 86.1137 134.555 87.8715L134.906 88.0472C136.841 88.7503 136.841 90.508 137.72 92.2657C138.775 94.375 140.006 94.5508 142.292 94.5508C143.171 94.5508 143.875 94.5508 144.402 94.7265C143.523 91.9142 142.644 88.5745 142.644 85.7622C142.644 85.5864 142.644 85.4106 142.644 85.4106C142.644 84.1802 142.644 83.1256 142.644 82.2467C142.644 81.8952 142.644 81.5437 142.644 81.1921C140.006 78.9071 137.368 75.9189 134.379 73.4581ZM126.29 68.7123C126.817 69.9427 127.169 71.3489 127.696 72.7551C128.224 74.5128 128.4 76.4463 128.4 78.0282C128.4 79.7859 128.224 81.3679 128.048 82.5983C128.224 82.7741 128.4 82.9498 128.576 83.1256C129.455 84.1802 129.279 85.5864 130.158 86.4653C131.213 87.6957 132.796 87.5199 134.203 87.6957C134.027 85.938 134.027 84.1802 133.851 82.5983C133.851 81.8952 133.851 81.1921 133.851 80.489C133.851 78.3798 134.027 76.2705 134.027 74.1612C134.027 73.8097 134.027 73.2824 134.027 72.9308C131.565 70.9974 129.103 69.4154 126.29 68.7123ZM124.355 68.3608C123.476 68.3608 123.124 68.7123 122.773 70.2943C121.717 73.4582 123.124 76.2705 123.828 78.9071C124.179 80.6648 123.828 80.3133 125.586 81.1921C126.29 81.5437 126.993 81.7194 127.696 82.2467C127.872 81.0163 128.048 79.6102 128.048 78.0282C128.048 76.2705 127.872 74.5128 127.345 72.7551C126.817 71.1731 126.29 69.767 125.938 68.5365H125.586C125.059 68.5365 124.707 68.3608 124.355 68.3608ZM153.722 66.9546C149.678 67.6577 145.633 67.8334 142.644 67.8334C142.468 67.8334 142.292 67.8334 142.116 67.8334C145.106 70.2943 147.743 73.2824 150.029 76.4463C150.381 76.4463 150.733 76.622 151.26 76.622C154.074 77.1494 157.591 77.8524 160.58 77.8524C161.635 77.8524 162.515 77.8525 163.394 77.6767C161.635 76.9736 160.756 75.3917 160.053 73.8097C159.349 72.052 158.822 70.1185 157.943 68.7123C157.239 67.8334 156.36 67.3061 155.129 67.3061C154.601 67.1304 154.25 67.1304 153.722 66.9546ZM138.599 60.8026C135.961 61.1541 133.324 61.1541 131.389 61.1541C132.444 62.3845 134.379 63.0876 135.785 63.7907C137.896 64.6695 139.83 65.8999 141.589 67.3061C141.94 67.3061 142.292 67.3061 142.644 67.3061C145.457 67.3061 149.326 67.1304 153.019 66.603L152.667 66.4273C152.14 65.8999 151.788 65.3726 151.436 64.8453C151.084 64.1422 150.909 63.2634 150.557 62.5603C149.502 62.2087 148.447 62.2088 147.392 62.2088C147.216 62.2088 146.864 62.2088 146.688 62.2088C143.523 62.033 141.413 61.8572 138.599 60.8026ZM131.917 57.6387C131.213 57.6387 130.686 57.9902 130.686 59.2206C130.686 59.9237 130.862 60.451 131.038 60.8026H131.213C133.148 60.8026 135.434 60.8026 137.896 60.451H137.72C136.489 59.9237 133.499 57.6387 131.917 57.6387Z" fill="url(#paint4_radial_7002_16365)"/>
<path d="M117.849 53.9477L117.673 54.1235C118.728 54.6508 119.783 54.8266 121.014 54.8266C124.004 54.8266 127.345 53.7719 130.686 53.7719C132.269 53.7719 133.675 53.9477 135.258 54.6508C138.247 55.8812 139.127 57.2874 140.182 58.342C140.709 58.8693 141.237 59.3967 142.116 59.5724C142.995 59.924 144.226 60.0997 145.985 60.0997C147.743 60.0997 148.798 60.4513 149.502 61.1544C150.557 62.0332 150.909 63.4394 151.436 64.6698C151.788 65.3729 152.14 65.9002 152.667 66.2518C153.195 66.7791 154.074 66.9548 155.129 66.9548C156.536 66.9548 157.415 67.6579 157.943 68.361C158.998 69.5914 159.349 71.5249 160.053 73.4584C160.756 75.2161 161.811 76.9738 164.097 77.5012C165.152 77.8527 165.856 78.38 166.208 78.9073C166.559 79.6104 166.735 80.3135 166.735 81.1924C166.735 82.0712 166.735 82.7743 166.735 83.6532C166.735 84.532 166.911 85.4109 167.263 86.114C167.614 86.8171 168.494 87.3444 169.725 87.5201C170.955 87.6959 171.659 88.2232 172.186 88.9263C172.538 89.6294 172.714 90.5083 172.714 91.5629C172.714 92.6175 172.538 93.6722 172.538 94.551C172.538 95.2541 172.538 95.7814 172.89 96.3087C173.066 96.8361 173.593 97.1876 174.121 97.1876C174.297 97.1876 174.472 97.1876 174.472 97.3634C174.472 97.3634 174.297 97.5391 173.945 97.7149C172.89 98.2422 170.604 98.9453 168.142 99.2969C165.68 99.8242 162.866 100.176 160.932 100.176C160.58 100.176 160.053 100.176 159.877 100.176C159.701 100.176 159.349 100.176 159.174 100.176C157.591 100.176 156.184 100.703 154.953 101.23C153.722 101.758 152.491 102.285 151.26 102.285C150.029 102.285 148.798 101.758 147.392 100.351C145.106 97.8907 142.468 97.8907 140.182 97.7149C139.127 97.7149 138.072 97.5391 137.368 97.1876C136.665 96.8361 136.137 96.3088 135.785 95.2541C135.434 94.0237 134.73 93.1449 134.027 92.6175C132.796 91.7387 131.213 91.2114 130.158 90.3325C128.927 89.4536 128.048 88.5748 128.048 86.4655C128.048 85.0594 127.521 84.1805 126.641 83.6532C125.41 82.9501 123.476 82.9501 121.893 82.4228C121.19 82.247 120.487 81.8955 119.959 81.1924C119.431 80.6651 119.256 79.7862 119.256 78.5558C119.256 76.9738 119.08 75.9192 118.552 75.0404C118.025 73.81 116.97 73.2826 116.442 72.5795C115.739 71.8764 115.211 70.9976 115.211 69.0641C115.211 68.361 115.211 67.6579 115.387 66.7791C115.563 65.3729 115.739 64.3183 115.739 63.4394C115.739 61.6817 115.387 60.9786 115.035 60.4513C114.859 60.2755 114.684 59.924 114.508 59.7482C114.332 59.5724 114.332 59.2209 114.332 58.6936C114.332 58.342 114.332 57.9905 114.508 57.6389C114.859 55.5297 115.739 54.6508 116.618 53.9477C116.97 53.5962 117.497 53.5962 117.673 53.4204C117.849 53.4204 117.849 53.4204 118.025 53.4204H118.2L117.849 53.9477V53.7719C117.849 53.7719 116.97 53.772 116.09 54.4751C115.211 55.0024 114.156 56.2328 113.804 58.342C113.628 58.8693 113.628 59.2209 113.628 59.5724C113.628 60.0997 113.804 60.4513 113.804 60.8028C113.98 61.1544 114.332 61.5059 114.508 61.8575C114.684 62.209 115.035 62.9121 115.035 64.1425C115.035 65.0214 114.859 66.076 114.684 67.4822C114.508 68.361 114.508 69.0641 114.508 69.7672C114.508 70.9976 114.859 71.8764 115.211 72.5795C115.739 73.6342 116.618 74.1615 117.321 74.8646C118.025 75.7434 118.552 76.7981 118.552 79.0831C118.552 80.8408 119.08 81.8955 119.959 82.5986C121.19 83.6532 123.124 83.6532 124.707 84.0047C125.41 84.1805 126.114 84.532 126.641 84.8836C127.169 85.4109 127.345 85.9382 127.345 86.9928C127.345 88.399 127.696 89.4536 128.4 90.3325C129.455 91.3871 130.862 92.0902 132.093 92.7933C133.324 93.4964 134.555 94.3753 135.082 95.9572C135.434 97.1876 136.137 97.8907 137.016 98.2422C138.247 98.7696 140.006 98.5938 141.764 98.9453C143.523 99.1211 145.281 99.6484 146.864 101.406C148.271 102.988 149.678 103.515 150.909 103.515C152.315 103.515 153.546 102.988 154.777 102.461C156.008 101.933 157.415 101.406 158.998 101.406C159.174 101.406 159.525 101.406 159.701 101.406C160.053 101.406 160.404 101.406 160.932 101.406C163.394 101.406 166.735 100.879 169.725 100.176C171.131 99.8242 172.362 99.4726 173.417 99.1211C173.945 98.9453 174.297 98.7695 174.472 98.5938L174.824 98.418C174.824 98.418 175 98.2422 175 98.0665V97.8907C174.824 97.7149 174.648 97.7149 174.297 97.5392C173.769 97.5392 173.417 97.1876 173.242 96.8361C173.066 96.4845 173.066 95.9572 173.066 95.2541C173.066 94.3753 173.242 93.3206 173.242 92.266C173.242 91.2114 173.066 90.3325 172.714 89.4536C172.186 88.5748 171.307 88.0475 170.076 87.6959C168.845 87.5202 168.142 86.9928 167.79 86.4655C167.438 85.7624 167.263 85.0593 167.263 84.1805C167.263 83.3016 167.263 82.5986 167.263 81.7197C167.263 80.8408 167.087 79.962 166.735 79.0831C166.383 78.38 165.68 77.6769 164.449 77.3254C163.042 76.9739 162.163 76.095 161.46 75.2161C160.404 73.6342 160.053 71.7007 159.349 69.943C158.998 69.0641 158.47 68.361 157.943 67.8337C157.239 67.3064 156.536 66.9549 155.305 66.7791C153.898 66.7791 153.195 66.2518 152.667 65.7244C151.964 64.8456 151.612 63.4394 150.909 62.0332C150.557 61.3301 150.029 60.8028 149.326 60.4513C148.623 60.0997 147.567 59.7482 146.161 59.7482C144.402 59.7482 143.171 59.5724 142.468 59.2209C141.237 58.6936 140.709 57.9905 140.006 57.1116C139.127 56.2328 138.072 55.1781 135.785 54.1235C134.203 53.4204 132.62 53.2446 131.038 53.2446C127.521 53.2446 124.179 54.2993 121.366 54.2993C120.135 54.2993 119.08 54.1235 118.2 53.5962L117.849 53.9477Z" fill="#503309"/>
<path d="M125.938 68.5366C126.465 69.767 126.993 71.1732 127.345 72.7551C127.872 74.5129 128.048 76.2706 128.048 78.0283C128.048 79.6102 127.872 81.0164 127.696 82.2468L128.048 82.4226C128.224 81.1922 128.4 79.6102 128.4 77.8525C128.4 76.0948 128.224 74.3371 127.696 72.5794C127.169 71.1732 126.817 69.767 126.29 68.5366C126.29 68.7124 126.114 68.5366 125.938 68.5366Z" fill="url(#paint5_radial_7002_16365)"/>
<path d="M134.027 73.1064C134.027 73.458 134.027 73.9853 134.027 74.3368C134.027 76.2703 133.851 78.5554 133.851 80.6646C133.851 81.3677 133.851 82.0708 133.851 82.7739C134.027 84.5316 134.027 86.2894 134.203 87.8713L134.555 88.0471C134.379 86.2893 134.379 84.5316 134.203 82.7739C134.203 82.0708 134.203 81.3677 134.203 80.8404C134.203 78.7312 134.379 76.6219 134.379 74.5126C134.379 74.1611 134.379 73.9853 134.379 73.6338L134.027 73.1064Z" fill="url(#paint6_radial_7002_16365)"/>
<path d="M142.819 81.0161C142.819 81.3677 142.819 81.7192 142.819 82.0708C142.819 82.9496 142.819 84.0043 142.819 85.2347C142.819 85.4104 142.819 85.5862 142.819 85.5862C142.819 88.3985 143.699 91.7382 144.578 94.5505C144.754 94.5505 144.93 94.5506 145.106 94.7263C144.226 91.914 143.347 88.3985 143.347 85.5862V85.2347C143.347 84.0043 143.347 82.9496 143.347 82.0708C143.347 81.7192 143.347 81.5434 143.347 81.1919L142.819 81.0161Z" fill="url(#paint7_radial_7002_16365)"/>
<path d="M146.688 100.703C146.864 101.055 146.864 101.231 146.864 101.231L147.04 101.055L146.688 100.703Z" fill="#503309"/>
<path d="M152.491 88.2227C153.195 90.3319 154.25 92.4412 155.129 94.3747C156.008 95.9566 156.887 97.5386 157.415 98.5932C157.591 98.5932 157.767 98.5932 157.943 98.5932C157.063 97.187 156.008 95.0777 154.777 92.7927C154.074 91.3865 153.546 89.9804 153.019 88.5742C152.843 88.5742 152.667 88.3984 152.491 88.2227Z" fill="url(#paint8_radial_7002_16365)"/>
<path d="M118.727 76.6216L118.552 76.7966H118.727V76.6216Z" fill="#503309"/>
<path d="M144.05 59.5723H143.699L144.05 59.7481V59.5723Z" fill="#AE9D79"/>
<path d="M143.699 59.5723C143.523 59.5723 143.347 59.5723 143.171 59.7481C143.523 59.7481 143.699 59.924 144.05 59.924V59.7481L143.699 59.5723Z" fill="#503309"/>
<path d="M137.896 60.4517C135.434 60.6275 133.148 60.8034 131.213 60.8034H131.037L131.389 61.155C133.499 61.155 135.961 60.9792 138.599 60.8034C138.423 60.8034 138.071 60.6275 137.896 60.4517Z" fill="url(#paint9_radial_7002_16365)"/>
<path d="M154.601 66.4272C154.425 66.4272 154.074 66.4273 153.898 66.6031C154.074 66.6031 154.425 66.779 154.601 66.779V66.4272Z" fill="#AE9D79"/>
<path d="M153.019 66.603C149.326 67.1306 145.457 67.3064 142.644 67.3064C142.292 67.3064 141.94 67.3064 141.589 67.3064C141.764 67.4823 141.94 67.6581 142.116 67.6581C142.292 67.6581 142.468 67.6581 142.644 67.6581C145.633 67.6581 149.678 67.4823 153.722 66.7789C153.546 66.7789 153.37 66.7789 153.019 66.603Z" fill="url(#paint10_radial_7002_16365)"/>
<path d="M153.722 66.603C153.546 66.603 153.195 66.603 153.019 66.7789C153.195 66.9547 153.37 66.9547 153.722 67.1306C154.074 67.1306 154.25 66.9547 154.601 66.9547C154.25 66.603 154.074 66.603 153.722 66.603Z" fill="#503309"/>
<path d="M150.205 76.2705C150.381 76.4464 150.381 76.6222 150.557 76.7981C153.371 77.5015 157.239 78.2049 160.58 78.2049C161.811 78.2049 163.042 78.029 164.097 77.8531C163.922 77.8531 163.57 77.6773 163.394 77.6773C162.515 77.8532 161.635 77.8531 160.58 77.8531C157.591 77.8531 154.074 77.3256 151.26 76.6222C150.909 76.4464 150.557 76.4464 150.205 76.2705Z" fill="url(#paint11_radial_7002_16365)"/>
<path d="M164.273 77.3252C164.097 77.3252 163.746 77.501 163.57 77.501C163.746 77.6769 164.097 77.6769 164.273 77.6769V77.3252Z" fill="#503309"/>
<path d="M156.887 85.0591C157.063 85.2349 157.239 85.4106 157.415 85.5864C160.229 86.4653 165.504 88.0472 169.724 88.0472C169.197 87.8714 168.669 87.8714 168.318 87.5199C165.68 87.3441 162.866 86.641 160.404 86.1137C158.998 85.7622 157.767 85.4106 156.887 85.0591Z" fill="url(#paint12_radial_7002_16365)"/>
<path d="M168.318 87.6958C168.669 87.8717 169.197 88.0475 169.724 88.2234V87.8717C169.197 87.6958 168.845 87.6958 168.318 87.6958Z" fill="#503309"/>
<path d="M134.73 87.8712C134.906 91.3867 135.082 94.3748 135.082 94.3748H134.906C135.258 94.7263 135.434 95.2536 135.61 95.9567C135.961 97.0114 136.489 97.5387 137.192 97.8902C137.896 98.2418 138.951 98.2418 140.006 98.4176C141.94 98.5933 144.226 98.5933 146.336 100.351C145.809 99.2964 144.93 97.1871 144.226 94.7263C143.699 94.5506 142.995 94.7263 142.116 94.5506C139.83 94.3748 138.599 94.3748 137.544 92.2655C136.665 90.332 136.665 88.7501 134.73 88.047V87.8712ZM128.048 82.5981C127.872 84.18 127.521 85.0589 127.521 85.0589H127.345C127.696 85.5862 128.048 86.2893 128.048 87.1681C128.048 89.2774 128.927 90.332 130.158 91.0351C131.389 91.7382 132.796 92.2655 134.027 93.3202C134.379 93.4959 134.555 93.8475 134.906 94.0233C134.906 93.4959 134.73 92.0898 134.73 90.332C134.73 89.4532 134.555 88.5743 134.555 87.6955C133.148 87.3439 131.565 87.5197 130.51 86.4651C129.631 85.5862 129.807 84.0042 128.927 83.1254C128.4 82.9496 128.224 82.7739 128.048 82.5981ZM130.862 53.9473C127.521 53.9473 124.179 55.0019 121.19 55.0019C119.959 55.0019 118.904 54.8261 117.849 54.2988C117.849 54.2988 117.673 54.2988 117.497 54.2988C117.145 54.2988 116.794 54.4746 116.442 54.8261C115.563 55.3534 114.684 56.4081 114.332 58.5173C114.156 59.0446 114.156 59.3962 114.156 59.572C114.156 60.0993 114.156 60.2751 114.332 60.6266C114.508 60.8024 114.684 60.9781 114.859 61.3297C115.211 61.857 115.563 62.5601 115.563 64.3178C115.563 65.1967 115.387 66.2513 115.211 67.6575C115.035 68.5363 115.035 69.2394 115.035 69.9425C115.035 71.876 115.563 72.5791 116.266 73.4579C116.97 74.161 117.849 74.6883 118.376 75.9187C118.552 76.0945 118.552 76.2703 118.552 76.4461C118.904 74.3368 119.08 72.0518 119.08 69.9425C119.08 66.0755 118.552 62.3843 118.376 60.9781C118.376 60.4508 118.2 60.275 118.2 60.275H118.552C118.552 60.275 119.431 64.8451 119.431 70.1183C119.431 72.4033 119.256 74.8641 118.728 77.3249H118.552C118.728 77.8522 118.728 78.7311 118.728 79.6099C118.728 80.8403 119.08 81.7192 119.431 82.2465C119.959 82.7738 120.487 83.1254 121.366 83.4769C122.948 84.0043 124.707 84.0043 126.114 84.7073C126.465 84.8831 126.641 85.0589 126.817 85.2347C126.817 85.2347 126.817 85.0589 126.993 84.7073C127.169 84.3558 127.169 83.8285 127.345 83.3012C127.345 83.1254 127.345 82.9496 127.521 82.7738C126.817 82.4223 126.114 82.0708 125.41 81.7192C123.652 80.8404 124.004 81.1919 123.652 79.4342C122.948 76.6218 121.717 73.8095 122.597 70.8213C123.124 69.2394 123.3 68.8879 124.179 68.8879C124.531 68.8879 124.883 68.8879 125.234 69.0636H125.586C124.883 66.9544 124.179 65.3724 123.652 64.4936C123.476 63.9663 123.3 63.7905 123.3 63.7905L123.652 63.6147C123.652 63.6147 124.707 65.724 125.938 69.2394C128.752 69.9425 131.213 71.5244 133.675 73.6337C133.675 72.7549 133.499 72.0518 133.324 71.3487C133.148 70.294 132.62 69.591 132.093 68.8879L132.268 68.5363C132.972 69.2394 133.499 70.1183 133.675 71.1729C133.851 72.0518 134.027 72.9306 134.027 73.9852C137.016 76.4461 139.654 79.4342 142.292 81.5434C142.292 80.1373 142.116 78.9069 141.764 78.028C141.413 76.7976 140.885 75.9188 139.83 74.6884L140.182 74.5126C141.061 75.743 141.764 76.7976 142.116 78.028C142.468 79.0826 142.644 80.313 142.644 82.0708C142.995 82.2465 143.171 82.5981 143.523 82.7738C146.336 84.8831 149.15 87.1681 151.964 89.1016C151.436 87.5197 151.084 85.9377 150.909 84.5316H151.26C151.26 85.9377 151.788 87.6955 152.491 89.4532C155.832 91.5624 159.349 93.3202 163.57 93.4959C163.042 93.1444 162.691 92.6171 162.163 92.2655C160.229 90.5078 158.47 88.5743 156.887 86.6408C155.657 86.2893 154.953 85.9377 154.953 85.9377L155.129 85.5862C155.129 85.5862 155.657 85.762 156.536 86.1135C154.426 83.4769 152.315 80.4888 150.205 77.6765C149.15 77.5007 148.271 77.1491 147.567 76.9734C146.688 76.7976 145.985 76.6218 145.809 76.6218V76.2703H145.985H146.336C146.688 76.2703 147.04 76.4461 147.392 76.6218C148.095 76.7976 148.798 76.9734 149.678 77.1491C147.216 73.9853 144.754 70.9971 141.764 68.5363C138.775 68.5363 136.841 68.3606 136.841 68.3606V68.009C136.841 68.009 137.368 68.009 138.247 68.1848C138.951 68.1848 140.006 68.1848 141.237 68.3606C139.478 66.9544 137.544 65.724 135.434 64.8451C134.027 64.142 132.093 63.4389 131.038 62.2085H130.862C127.345 62.2085 125.234 62.0328 125.234 62.0328V61.6812C125.234 61.6812 125.762 61.6812 126.817 61.857C127.696 61.857 129.103 62.0328 130.686 62.0328C130.334 61.5054 130.158 60.9781 130.334 60.4508C130.334 59.3962 130.862 58.8689 131.565 58.8689C133.148 58.8689 136.137 60.9781 137.368 61.6812H137.544C139.127 61.5054 140.709 61.3297 142.468 60.9781C142.292 60.9781 142.116 60.8024 141.94 60.8024C141.061 60.4508 140.533 60.0993 140.006 59.572C138.951 58.5173 138.247 57.2869 135.082 55.8807C134.027 54.123 132.444 53.9473 130.862 53.9473Z" fill="url(#paint13_radial_7002_16365)"/>
<path d="M118.728 76.7976C118.904 77.3249 118.904 78.2038 118.904 79.0826C118.904 86.1135 127.696 81.3677 127.696 87.1681C127.696 92.7928 134.203 91.3867 135.434 95.9567C136.665 100.527 142.292 96.6598 146.688 100.703C146.688 100.527 146.512 100.351 146.512 100.351C144.402 98.5933 142.116 98.5933 140.182 98.4176C139.127 98.4176 138.071 98.2418 137.368 97.8902C136.665 97.5387 136.137 97.0114 135.785 95.9567C135.61 95.4294 135.434 94.9021 135.082 94.3748H134.906C134.906 94.3748 134.906 94.199 134.906 94.0233C134.73 93.6717 134.379 93.4959 134.027 93.3202C132.796 92.4413 131.213 91.914 130.158 91.0351C128.927 90.1563 128.048 89.2774 128.048 87.1681C128.048 86.2893 127.872 85.5862 127.345 85.0589H127.169V84.8831C126.993 84.7073 126.641 84.5316 126.465 84.3558C125.234 83.6527 123.3 83.6527 121.717 83.1254C121.014 82.9496 120.311 82.5981 119.783 81.895C119.256 81.3677 119.08 80.4888 119.08 79.2584C119.08 78.3795 119.08 77.6765 118.904 76.9734L118.728 76.7976ZM130.862 53.7715C129.103 53.7715 127.52 53.9473 125.762 54.2988C124.179 54.4746 122.597 54.8261 121.19 54.8261C119.959 54.8261 118.904 54.6503 117.849 54.123C117.849 54.123 114.683 54.2988 113.98 58.5173C113.277 62.7358 116.266 59.572 115.035 67.6575C113.98 74.5126 117.497 73.1064 118.552 76.7976V76.4461C118.552 76.2703 118.376 76.0945 118.376 75.9188C117.849 74.6883 116.794 74.161 116.266 73.4579C115.563 72.7548 115.035 71.876 115.035 69.9425C115.035 69.2394 115.035 68.5363 115.211 67.6575C115.387 66.2513 115.563 65.1967 115.563 64.3178C115.563 62.5601 115.211 61.857 114.859 61.3297C114.683 61.1539 114.508 60.8024 114.332 60.6266C114.156 60.4508 114.156 60.0993 114.156 59.572C114.156 59.2204 114.156 58.8689 114.332 58.5173C114.683 56.4081 115.563 55.5292 116.442 54.8261C116.794 54.4746 117.321 54.4746 117.497 54.2988C117.673 54.2988 117.673 54.2988 117.849 54.2988C118.904 54.8261 119.959 55.0019 121.19 55.0019C124.179 55.0019 127.52 53.9473 130.862 53.9473C132.444 53.9473 133.851 54.123 135.434 54.8261C138.423 56.0565 139.302 57.4627 140.358 58.5173C140.885 59.0446 141.413 59.572 142.292 59.7477C142.468 59.7477 142.644 59.9235 142.819 59.9235C142.995 59.9235 143.171 59.9235 143.347 59.7477C139.654 59.0447 140.885 56.7596 135.61 54.4746C134.027 53.9473 132.444 53.7715 130.862 53.7715Z" fill="#3D2708"/>
<path d="M143.875 60.0991C142.116 60.4507 140.358 60.6264 138.775 60.8022C141.589 61.8568 143.699 62.0326 146.864 62.0326C147.04 62.0326 147.392 62.0326 147.567 62.0326C148.622 62.0326 149.678 62.0326 150.733 62.3842C150.557 61.8568 150.205 61.5053 149.853 61.1537C149.15 60.6264 148.095 60.0991 146.336 60.0991C145.281 60.0991 144.402 60.0991 143.875 60.0991Z" fill="url(#paint14_radial_7002_16365)"/>
<path d="M144.05 59.9233L143.699 60.0991C144.402 60.2749 145.105 60.2749 145.985 60.2749C147.743 60.2749 148.798 60.6264 149.502 61.3295C149.853 61.6811 150.205 62.0326 150.381 62.5599H150.557C149.853 61.1537 148.798 59.9233 145.809 59.9233C145.281 59.9233 144.754 59.9233 144.05 59.9233Z" fill="#3D2708"/>
<path d="M144.93 94.7266C145.809 97.5389 146.864 99.6482 147.216 100.527C147.216 100.703 147.392 100.879 147.392 100.879C148.798 102.285 150.029 102.812 151.084 102.812C152.315 102.812 153.546 102.285 154.777 101.757C156.184 101.23 157.415 100.703 158.998 100.703C159.174 100.703 159.525 100.703 159.701 100.703C160.053 100.703 160.404 100.703 160.756 100.703C162.163 100.703 164.097 100.527 166.032 100.176C164.801 99.824 163.57 99.6482 162.339 99.2966C160.58 98.9451 159.174 98.5936 157.591 98.4178C157.943 98.9451 158.118 99.2966 158.294 99.6482C158.47 99.9997 158.646 100.176 158.646 100.176L158.294 100.351C158.294 100.351 157.767 99.6482 157.063 98.4178H156.712C156.184 98.4178 155.657 98.4178 154.953 98.5935C153.722 98.7693 152.315 99.1209 151.084 99.1209C150.557 99.1209 150.029 99.1209 149.502 98.7693C147.743 98.0662 147.04 96.4843 145.809 95.4296C145.809 95.2539 145.281 94.9023 144.93 94.7266Z" fill="url(#paint15_radial_7002_16365)"/>
<path d="M166.383 100.526C164.449 100.878 162.515 101.054 161.108 101.054C160.756 101.054 160.229 101.054 160.053 101.054C159.877 101.054 159.525 101.054 159.349 101.054C157.767 101.054 156.36 101.581 155.129 102.108C153.898 102.636 152.667 103.163 151.436 103.163C150.205 103.163 148.974 102.636 147.743 101.229H147.567C148.974 102.636 150.205 103.163 151.436 103.163C152.667 103.163 153.898 102.636 155.305 102.108C156.536 101.581 157.943 101.054 159.525 101.054C159.701 101.054 160.053 101.054 160.229 101.054C160.58 101.054 160.932 101.054 161.46 101.054C163.042 101.054 165.152 100.878 167.263 100.351C166.559 100.526 166.559 100.526 166.383 100.526Z" fill="#3D2708"/>
<path d="M127.696 82.4228C127.696 82.5986 127.696 82.7743 127.521 82.9501C127.345 83.6532 127.345 84.0048 127.169 84.3563C127.169 84.5321 126.993 84.7078 126.993 84.8836L127.169 85.0594H127.345C127.345 85.0594 127.696 84.0048 127.872 82.5986L127.696 82.4228ZM124.004 63.0879L123.652 63.2637C123.652 63.2637 123.828 63.4394 124.004 63.9667C124.355 64.8456 125.059 66.4276 125.938 68.5368C126.114 68.5368 126.29 68.5368 126.465 68.7126C125.059 65.3729 124.004 63.0879 124.004 63.0879Z" fill="url(#paint16_radial_7002_16365)"/>
<path d="M127.169 84.8828V85.0579H127.344L127.169 84.8828Z" fill="#3D2708"/>
<path d="M134.379 87.6957C134.379 88.5746 134.555 89.6292 134.555 90.3323C134.73 92.09 134.73 93.3204 134.73 94.0235L134.906 94.3751H135.082C135.082 94.3751 134.906 91.3869 134.73 87.8715L134.379 87.6957ZM132.796 68.0093L132.62 68.3608C133.324 68.8881 133.675 69.767 133.851 70.8216C134.027 71.5247 134.027 72.4036 134.203 73.1067L134.555 73.4582C134.555 72.4036 134.379 71.5247 134.203 70.6459C133.851 69.5912 133.499 68.5366 132.796 68.0093Z" fill="url(#paint17_radial_7002_16365)"/>
<path d="M134.73 94.0239C134.73 94.1998 134.73 94.3756 134.73 94.3756H134.906L134.73 94.0239Z" fill="#3D2708"/>
<path d="M144.402 94.7269C145.105 97.1877 145.985 99.297 146.512 100.352C146.688 100.527 147.04 100.879 147.216 101.055C147.216 101.055 147.216 100.879 147.04 100.703C146.688 99.8243 145.633 97.5393 144.754 94.9027C144.754 94.7269 144.578 94.7269 144.402 94.7269ZM140.709 73.8101L140.358 73.9858C141.237 75.2162 141.94 76.0951 142.292 77.3255C142.644 78.2044 142.644 79.4348 142.819 80.8409L143.171 81.1925C143.171 79.4348 142.995 78.2043 142.644 77.1497C142.292 76.0951 141.764 75.0405 140.709 73.8101Z" fill="url(#paint18_radial_7002_16365)"/>
<path d="M146.512 100.351C146.512 100.526 146.688 100.702 146.688 100.702L147.04 101.054H147.216C147.04 100.702 146.864 100.526 146.512 100.351Z" fill="#3D2708"/>
<path d="M157.415 98.7692C158.118 99.9996 158.646 100.703 158.646 100.703L158.998 100.527C158.998 100.527 158.822 100.351 158.646 99.9996C158.47 99.6481 158.294 99.2965 157.943 98.7692C157.767 98.7692 157.591 98.7692 157.415 98.7692ZM151.788 83.6528H151.436C151.436 85.059 151.788 86.641 152.491 88.2229C152.667 88.3987 152.843 88.3987 153.019 88.5745C152.315 86.8167 151.964 85.059 151.788 83.6528Z" fill="url(#paint19_radial_7002_16365)"/>
<path d="M118.728 59.9233H118.376C118.376 59.9233 118.376 60.2749 118.552 60.6264C118.728 62.2084 119.256 65.7238 119.256 69.5908C119.256 71.7001 119.08 73.9851 118.728 76.0943C118.728 76.2701 118.904 76.4459 118.904 76.7974H119.08C119.607 74.5124 119.783 72.0516 119.783 69.5908C119.607 64.4934 118.728 59.9233 118.728 59.9233Z" fill="url(#paint20_radial_7002_16365)"/>
<path d="M118.728 76.2705V76.6222V76.7981H118.904C118.904 76.6222 118.728 76.4464 118.728 76.2705Z" fill="#3D2708"/>
<path d="M142.644 59.9233C141.061 60.275 139.302 60.4509 137.72 60.6268C137.896 60.8026 138.247 60.8026 138.423 60.9784C140.006 60.8026 141.764 60.6267 143.523 60.275C143.347 59.9233 142.995 59.9233 142.644 59.9233Z" fill="url(#paint21_radial_7002_16365)"/>
<path d="M143.171 59.748C142.995 59.748 142.82 59.748 142.644 59.9239C142.995 59.9239 143.347 60.0997 143.699 60.0997H144.05V59.9239C143.699 59.9239 143.523 59.748 143.171 59.748Z" fill="#3D2708"/>
<path d="M125.586 60.6274V60.9791C125.586 60.9791 127.872 61.155 131.213 61.155H131.389L131.038 60.8033C129.455 60.8033 128.048 60.8033 127.169 60.6274C126.114 60.6274 125.586 60.6274 125.586 60.6274Z" fill="url(#paint22_radial_7002_16365)"/>
<path d="M137.368 67.1304V67.4821C137.368 67.4821 139.302 67.6579 142.292 67.6579C142.116 67.4821 141.94 67.3062 141.764 67.3062C140.533 67.3062 139.654 67.3062 138.775 67.1304C137.896 67.1304 137.368 67.1304 137.368 67.1304Z" fill="url(#paint23_radial_7002_16365)"/>
<path d="M146.161 75.3921V75.7438C146.336 75.7438 147.04 75.9196 147.919 76.0955C148.623 76.2713 149.502 76.4472 150.557 76.7989C150.381 76.623 150.381 76.4472 150.205 76.2713C149.326 76.0955 148.447 75.9196 147.919 75.7438C147.392 75.5679 147.04 75.5679 146.864 75.3921H146.512H146.161Z" fill="url(#paint24_radial_7002_16365)"/>
<path d="M155.657 84.708L155.481 85.0597C155.481 85.0597 156.184 85.4114 157.415 85.7631C157.239 85.5872 157.063 85.4114 156.887 85.2356C156.184 84.8839 155.657 84.708 155.657 84.708Z" fill="url(#paint25_radial_7002_16365)"/>
<path d="M110.111 35.8433C108.529 40.0618 108.177 43.5772 110.111 48.8504C110.815 51.8385 116.266 59.7482 124.003 63.2637C131.037 66.7791 136.489 70.9976 136.489 70.9976C136.489 70.9976 142.995 74.8646 148.622 80.4893C153.898 85.9382 160.58 92.4418 163.57 93.6722C168.493 96.3088 169.724 97.1876 174.121 97.8907C170.252 95.4299 167.614 94.1995 163.218 91.7387C160.756 90.8599 155.305 84.5321 149.678 78.7316C144.05 73.1069 138.423 68.5368 138.247 68.7126C138.775 67.658 112.046 55.1782 112.925 47.9715C111.166 43.2257 110.463 40.4133 110.111 35.8433Z" fill="url(#paint26_radial_7002_16365)"/>
<path d="M110.111 35.8433H109.936C109.056 38.1283 108.529 40.0618 108.529 42.3468C108.529 44.2803 108.88 46.3896 109.76 49.0262C110.111 50.6081 111.694 53.2447 114.156 56.057C116.618 58.8694 119.783 61.6817 123.652 63.4394V63.2637L123.476 63.4394C126.993 65.1972 129.982 67.1307 132.268 68.5368C133.324 69.2399 134.379 69.943 134.906 70.2946C135.258 70.4703 135.434 70.6461 135.61 70.8219L135.785 70.9976V70.8219V70.6461L135.961 70.4703H135.785L135.961 70.2946H135.785L135.961 70.6461L136.137 70.2946L135.961 70.1188V70.2946L136.137 70.1188L135.961 69.943V70.1188V70.9976V71.1734C135.961 71.1734 136.137 71.3492 136.313 71.3492C137.896 72.4038 143.171 75.9192 147.743 80.4893C150.381 83.1259 153.37 86.2898 156.008 88.7506C158.646 91.2114 161.108 93.1449 162.691 93.848V93.6722L162.515 93.848C167.438 96.4846 168.845 97.3634 173.242 98.0665L173.417 97.7149C169.549 95.2541 166.911 94.0237 162.515 91.5629C161.284 91.2114 159.349 89.2779 157.063 86.9929C154.777 84.5321 151.964 81.5439 149.15 78.7316C146.336 75.9192 143.523 73.4584 141.413 71.525C140.358 70.6461 139.478 69.943 138.775 69.4157C138.423 69.2399 138.247 68.8884 138.072 68.8884L137.896 68.7126H137.72L137.544 68.8884L137.896 69.0641V68.8884L137.72 68.5368C137.544 68.1853 137.016 67.8337 136.137 67.3064C133.324 65.5487 127.345 62.209 122.245 58.6936C119.607 56.9359 117.145 55.0024 115.387 53.2447C113.628 51.4869 112.573 49.7292 112.573 48.3231V47.9715C110.815 43.4014 110.111 40.5891 109.76 36.1948H109.408L110.111 35.8433H109.936C110.287 40.2376 110.991 43.2257 112.749 47.7958V48.1473C112.749 50.0808 114.332 52.19 116.794 54.2993C120.311 57.639 125.762 60.9786 130.158 63.6152C132.444 65.0214 134.379 66.076 135.785 66.9549C136.489 67.4822 137.016 67.8337 137.544 68.0095C137.72 68.1853 137.896 68.1853 138.072 68.3611L138.247 68.5368L138.599 68.7126H138.423V68.8884L138.599 68.7126H138.423V68.8884C138.423 68.8884 138.599 69.0641 138.775 69.2399C140.182 70.2945 144.93 74.3373 149.678 78.9074C152.491 81.7197 155.305 84.8836 157.591 87.1686C160.053 89.6294 161.987 91.3872 163.218 91.9145V91.7387L163.042 91.9145C167.438 94.3753 170.252 95.6057 173.945 98.0665L174.121 97.8907V97.7149C169.725 97.0119 168.494 96.133 163.57 93.6722C161.987 93.1449 159.701 91.2114 156.887 88.7506C154.25 86.2898 151.26 83.3017 148.623 80.4893C145.985 77.677 142.995 75.3919 140.533 73.6342C139.302 72.7554 138.423 72.0523 137.72 71.7007C137.368 71.5249 137.016 71.3492 136.841 71.1734L136.665 70.9976L136.489 71.1734L136.665 71.3492H136.841C136.841 71.3492 136.313 70.9976 135.785 70.4703C133.851 69.0641 129.455 66.076 124.355 63.4394C120.487 61.6817 117.321 58.8694 114.859 56.2328C112.397 53.4205 110.991 50.7839 110.639 49.3777C109.76 46.9169 109.408 44.8076 109.408 42.8741C109.408 40.7649 109.936 38.6556 110.815 36.5463L110.111 35.8433Z" fill="#503309"/>
<path d="M39.068 106.679C38.0129 106.679 37.4854 105.8 37.6612 104.042C38.1888 98.5935 42.9367 90.6838 49.619 84.356C54.367 79.9617 57.0047 78.204 58.0598 78.204C61.0493 78.204 53.8394 90.508 49.4432 97.0116C45.3986 102.988 41.1782 106.679 39.068 106.679ZM63.8629 76.2705C61.401 76.2705 58.0598 77.1494 53.6636 79.7859C43.1126 85.938 29.0446 102.636 32.3857 120.213C33.7925 127.244 36.2544 129.705 38.8922 129.705C43.1126 129.705 47.8605 123.905 49.619 119.51C52.7843 112.304 64.2146 88.223 67.9074 83.8287C70.5452 80.489 69.3142 76.2705 63.8629 76.2705Z" fill="url(#paint27_radial_7002_16365)"/>
<path d="M71.2485 124.608C69.8417 124.608 68.6108 124.081 67.7315 122.675C64.3904 117.577 66.5006 108.437 74.238 99.8245C80.2169 93.3209 83.9097 90.6844 86.0199 90.6844C90.7679 90.6844 87.2509 104.043 84.4373 111.425C81.0961 119.335 75.2931 124.608 71.2485 124.608ZM89.8886 86.8174C83.7339 86.8174 75.4689 92.2663 65.7972 103.691C57.1806 113.886 43.6401 144.295 58.0598 153.435C61.9285 155.896 66.8523 157.302 71.9519 157.302C85.3165 157.302 99.7362 147.459 102.022 120.917C103.957 99.1214 99.2087 86.8174 89.8886 86.8174Z" fill="url(#paint28_radial_7002_16365)"/>
<path d="M78.6342 71.8765C77.4033 71.8765 76.3482 72.0522 75.6448 72.228C75.2931 72.228 74.9414 72.4038 74.5897 72.4038C74.4138 72.4038 74.0621 72.4038 74.0621 72.4038V72.7553C74.238 72.7553 74.4138 72.7553 74.5897 72.7553C75.2931 72.5796 76.6999 72.228 78.4584 72.228C81.4478 72.228 85.6682 73.1069 89.7128 77.1496C89.8886 77.1496 90.0645 77.1496 90.2403 77.1496C86.1958 72.9311 81.7995 71.8765 78.6342 71.8765Z" fill="url(#paint29_radial_7002_16365)"/>
<path d="M109.408 80.1372C107.474 80.1372 105.715 80.4889 104.132 81.3682L104.484 81.7199C105.891 80.8406 107.825 80.4889 109.584 80.4889C111.518 80.4889 113.452 80.8406 115.035 81.1923C115.739 81.3682 116.442 81.544 116.794 81.7199C117.145 81.8957 117.497 81.8957 117.497 81.8957L117.673 81.544C117.497 81.8957 113.628 80.1372 109.408 80.1372Z" fill="url(#paint30_radial_7002_16365)"/>
<path d="M99.0329 78.5561C102.022 79.7865 104.836 82.2473 107.122 86.4658L107.474 86.29C106.594 84.5323 105.539 82.9504 104.484 81.8957H104.308L104.133 81.5442C103.077 80.4896 102.022 79.6107 100.791 78.9076L100.967 79.2592L100.44 79.0834C99.9121 78.9076 99.5604 78.7319 99.0329 78.5561ZM93.2298 76.9741C92.1747 76.9741 91.2955 76.9741 90.2404 77.1499L89.8887 77.5014L89.7128 77.3257C84.2615 78.2045 79.8652 81.0169 79.8652 81.0169L80.0411 81.3684C80.0411 81.3684 80.2169 81.3684 80.3928 81.1927C81.6237 80.4896 87.2509 77.3257 93.2298 77.3257C94.6366 77.3257 96.0434 77.5014 97.4502 77.853C95.5159 77.3257 94.2849 77.1499 93.7574 77.1499H93.5815H93.2298V76.9741Z" fill="url(#paint31_radial_7002_16365)"/>
<path d="M93.4056 76.9741V77.3257H93.7573H93.9332C94.4607 77.3257 95.6917 77.3257 97.626 78.0288C98.1536 78.2045 98.6811 78.3803 99.2087 78.5561C99.5604 78.7319 100.088 78.9076 100.615 79.0834L101.143 79.2592L100.967 78.9076L100.615 78.7318V78.9076C96.9226 77.3257 94.6366 77.1499 93.9332 77.1499C93.7573 77.1499 93.5815 77.1499 93.5815 77.1499V76.9741H93.4056Z" fill="#21190B"/>
<path d="M93.5815 76.9741C93.5815 77.15 93.5815 76.9741 93.7573 76.9741C94.4607 76.9741 96.7468 77.15 100.44 78.7326V78.5568C100.088 78.3809 99.5604 78.2051 99.2087 78.0292C98.6811 77.8534 98.1536 77.6775 97.626 77.5017C96.2192 77.15 94.8124 76.9741 93.5815 76.9741Z" fill="#19130B"/>
<path d="M90.2403 77.1489C90.0645 77.1489 89.8886 77.1489 89.7128 77.1489L89.8886 77.3248L90.2403 77.1489Z" fill="url(#paint32_radial_7002_16365)"/>
<path d="M104.132 81.5435L104.308 81.8952H104.484L104.132 81.5435Z" fill="url(#paint33_radial_7002_16365)"/>
<path d="M85.8441 90.8594C83.7339 90.8594 80.0411 93.3202 74.0622 99.9995C66.3248 108.437 64.2146 117.577 67.5557 122.85C68.435 124.256 69.6659 124.783 71.0727 124.783C75.2931 124.783 81.0962 119.686 84.0856 111.776C87.0751 104.042 90.5921 90.8594 85.8441 90.8594Z" fill="url(#paint34_radial_7002_16365)"/>
<path d="M58.2356 78.2046C57.0047 78.2046 54.5428 79.9623 49.7948 84.3566C42.9367 90.6844 38.3646 98.5941 37.837 104.043C37.6612 105.801 38.1887 106.68 39.2438 106.68C41.354 106.68 45.5744 103.164 49.619 97.1879C53.8394 90.5086 61.2251 78.2046 58.2356 78.2046Z" fill="url(#paint35_radial_7002_16365)"/>
<defs>
<radialGradient id="paint0_radial_7002_16365" cx="0" cy="0" r="1" gradientTransform="matrix(27.4435 82.5539 82.5906 -27.4313 79.8646 88.0301)" gradientUnits="userSpaceOnUse">
<stop stop-color="#B7D33E"/>
<stop offset="0.2577" stop-color="#B7D33E"/>
<stop offset="0.9264" stop-color="#789F18"/>
<stop offset="1" stop-color="#789F18"/>
</radialGradient>
<radialGradient id="paint1_radial_7002_16365" cx="0" cy="0" r="1" gradientTransform="matrix(27.4646 82.6178 82.6545 -27.4524 78.865 88.7345)" gradientUnits="userSpaceOnUse">
<stop stop-color="#9FB32C"/>
<stop offset="0.2577" stop-color="#9FB32C"/>
<stop offset="0.9264" stop-color="#658717"/>
<stop offset="1" stop-color="#658717"/>
</radialGradient>
<radialGradient id="paint2_radial_7002_16365" cx="0" cy="0" r="1" gradientTransform="matrix(1.81569 69.7564 69.7874 -1.81488 102.85 11.4321)" gradientUnits="userSpaceOnUse">
<stop stop-color="#623B14"/>
<stop offset="0.2577" stop-color="#623B14"/>
<stop offset="0.9264" stop-color="#789F18"/>
<stop offset="1" stop-color="#789F18"/>
</radialGradient>
<radialGradient id="paint3_radial_7002_16365" cx="0" cy="0" r="1" gradientTransform="matrix(1.81059 69.5563 69.5871 -1.80979 103.342 11.6493)" gradientUnits="userSpaceOnUse">
<stop stop-color="#45260A"/>
<stop offset="0.2577" stop-color="#45260A"/>
<stop offset="0.9264" stop-color="#546913"/>
<stop offset="1" stop-color="#546913"/>
</radialGradient>
<radialGradient id="paint4_radial_7002_16365" cx="0" cy="0" r="1" gradientTransform="matrix(1.87111 71.8865 71.9184 -1.87028 157.661 29.8805)" gradientUnits="userSpaceOnUse">
<stop stop-color="#623B14"/>
<stop offset="0.2577" stop-color="#623B14"/>
<stop offset="0.9264" stop-color="#789F18"/>
<stop offset="1" stop-color="#789F18"/>
</radialGradient>
<radialGradient id="paint5_radial_7002_16365" cx="0" cy="0" r="1" gradientTransform="matrix(1.86207 71.5352 71.5667 -1.86125 157.114 30.0381)" gradientUnits="userSpaceOnUse">
<stop stop-color="#59370F"/>
<stop offset="0.2577" stop-color="#59370F"/>
<stop offset="0.9264" stop-color="#626610"/>
<stop offset="1" stop-color="#626610"/>
</radialGradient>
<radialGradient id="paint6_radial_7002_16365" cx="0" cy="0" r="1" gradientTransform="matrix(1.88924 72.5827 72.6138 -1.88843 159.567 30.271)" gradientUnits="userSpaceOnUse">
<stop stop-color="#59370F"/>
<stop offset="0.2577" stop-color="#59370F"/>
<stop offset="0.9264" stop-color="#626610"/>
<stop offset="1" stop-color="#626610"/>
</radialGradient>
<radialGradient id="paint7_radial_7002_16365" cx="0" cy="0" r="1" gradientTransform="matrix(1.87414 72.002 72.0341 -1.8733 158.131 29.9992)" gradientUnits="userSpaceOnUse">
<stop stop-color="#59370F"/>
<stop offset="0.2577" stop-color="#59370F"/>
<stop offset="0.9264" stop-color="#626610"/>
<stop offset="1" stop-color="#626610"/>
</radialGradient>
<radialGradient id="paint8_radial_7002_16365" cx="0" cy="0" r="1" gradientTransform="matrix(1.88306 72.3404 72.3727 -1.88222 157.724 29.7716)" gradientUnits="userSpaceOnUse">
<stop stop-color="#59370F"/>
<stop offset="0.2577" stop-color="#59370F"/>
<stop offset="0.9264" stop-color="#626610"/>
<stop offset="1" stop-color="#626610"/>
</radialGradient>
<radialGradient id="paint9_radial_7002_16365" cx="0" cy="0" r="1" gradientUnits="userSpaceOnUse" gradientTransform="translate(157.799 33.9029) rotate(88.5095) scale(67.0282 67.0293)">
<stop stop-color="#59370F"/>
<stop offset="0.2577" stop-color="#59370F"/>
<stop offset="0.9264" stop-color="#626610"/>
<stop offset="1" stop-color="#626610"/>
</radialGradient>
<radialGradient id="paint10_radial_7002_16365" cx="0" cy="0" r="1" gradientUnits="userSpaceOnUse" gradientTransform="translate(158.034 29.6125) rotate(88.5096) scale(72.6524 72.6516)">
<stop stop-color="#59370F"/>
<stop offset="0.2577" stop-color="#59370F"/>
<stop offset="0.9264" stop-color="#626610"/>
<stop offset="1" stop-color="#626610"/>
</radialGradient>
<radialGradient id="paint11_radial_7002_16365" cx="0" cy="0" r="1" gradientUnits="userSpaceOnUse" gradientTransform="translate(157.834 29.6066) rotate(88.5096) scale(72.3519 72.3516)">
<stop stop-color="#59370F"/>
<stop offset="0.2577" stop-color="#59370F"/>
<stop offset="0.9264" stop-color="#626610"/>
<stop offset="1" stop-color="#626610"/>
</radialGradient>
<radialGradient id="paint12_radial_7002_16365" cx="0" cy="0" r="1" gradientTransform="matrix(1.87857 72.1708 72.203 -1.87773 157.549 29.6138)" gradientUnits="userSpaceOnUse">
<stop stop-color="#59370F"/>
<stop offset="0.2577" stop-color="#59370F"/>
<stop offset="0.9264" stop-color="#626610"/>
<stop offset="1" stop-color="#626610"/>
</radialGradient>
<radialGradient id="paint13_radial_7002_16365" cx="0" cy="0" r="1" gradientTransform="matrix(1.87337 71.9724 72.0043 -1.87254 157.016 29.0143)" gradientUnits="userSpaceOnUse">
<stop stop-color="#4C2E0D"/>
<stop offset="0.2577" stop-color="#4C2E0D"/>
<stop offset="0.9264" stop-color="#5C7B17"/>
<stop offset="1" stop-color="#5C7B17"/>
</radialGradient>
<radialGradient id="paint14_radial_7002_16365" cx="0" cy="0" r="1" gradientTransform="matrix(1.91457 73.5559 73.5885 -1.91372 157.101 28.2565)" gradientUnits="userSpaceOnUse">
<stop stop-color="#4C2E0D"/>
<stop offset="0.2577" stop-color="#4C2E0D"/>
<stop offset="0.9264" stop-color="#5C7B17"/>
<stop offset="1" stop-color="#5C7B17"/>
</radialGradient>
<radialGradient id="paint15_radial_7002_16365" cx="0" cy="0" r="1" gradientTransform="matrix(1.8785 72.1675 72.1994 -1.87767 157.634 29.6868)" gradientUnits="userSpaceOnUse">
<stop stop-color="#4C2E0D"/>
<stop offset="0.2577" stop-color="#4C2E0D"/>
<stop offset="0.9264" stop-color="#5C7B17"/>
<stop offset="1" stop-color="#5C7B17"/>
</radialGradient>
<radialGradient id="paint16_radial_7002_16365" cx="0" cy="0" r="1" gradientTransform="matrix(1.87786 72.1405 72.1724 -1.87703 157.704 29.6085)" gradientUnits="userSpaceOnUse">
<stop stop-color="#442B0B"/>
<stop offset="0.2577" stop-color="#442B0B"/>
<stop offset="0.9264" stop-color="#4B4E0E"/>
<stop offset="1" stop-color="#4B4E0E"/>
</radialGradient>
<radialGradient id="paint17_radial_7002_16365" cx="0" cy="0" r="1" gradientTransform="matrix(1.87869 72.1745 72.207 -1.87785 157.336 29.2853)" gradientUnits="userSpaceOnUse">
<stop stop-color="#442B0B"/>
<stop offset="0.2577" stop-color="#442B0B"/>
<stop offset="0.9264" stop-color="#4B4E0E"/>
<stop offset="1" stop-color="#4B4E0E"/>
</radialGradient>
<radialGradient id="paint18_radial_7002_16365" cx="0" cy="0" r="1" gradientTransform="matrix(1.87399 71.9955 72.0273 -1.87316 157.343 29.3605)" gradientUnits="userSpaceOnUse">
<stop stop-color="#442B0B"/>
<stop offset="0.2577" stop-color="#442B0B"/>
<stop offset="0.9264" stop-color="#4B4E0E"/>
<stop offset="1" stop-color="#4B4E0E"/>
</radialGradient>
<radialGradient id="paint19_radial_7002_16365" cx="0" cy="0" r="1" gradientTransform="matrix(1.88416 72.3828 72.4147 -1.88333 157.112 28.9701)" gradientUnits="userSpaceOnUse">
<stop stop-color="#442B0B"/>
<stop offset="0.2577" stop-color="#442B0B"/>
<stop offset="0.9264" stop-color="#4B4E0E"/>
<stop offset="1" stop-color="#4B4E0E"/>
</radialGradient>
<radialGradient id="paint20_radial_7002_16365" cx="0" cy="0" r="1" gradientTransform="matrix(1.79961 69.1382 69.1691 -1.7988 154.53 30.2933)" gradientUnits="userSpaceOnUse">
<stop stop-color="#442B0B"/>
<stop offset="0.2577" stop-color="#442B0B"/>
<stop offset="0.9264" stop-color="#4B4E0E"/>
<stop offset="1" stop-color="#4B4E0E"/>
</radialGradient>
<radialGradient id="paint21_radial_7002_16365" cx="0" cy="0" r="1" gradientUnits="userSpaceOnUse" gradientTransform="translate(157.425 28.0119) rotate(88.5096) scale(74.2478 74.2471)">
<stop stop-color="#442B0B"/>
<stop offset="0.2577" stop-color="#442B0B"/>
<stop offset="0.9264" stop-color="#4B4E0E"/>
<stop offset="1" stop-color="#4B4E0E"/>
</radialGradient>
<radialGradient id="paint22_radial_7002_16365" cx="0" cy="0" r="1" gradientTransform="matrix(1.84127 70.7628 70.7658 -1.8412 157.967 30.8156)" gradientUnits="userSpaceOnUse">
<stop stop-color="#442B0B"/>
<stop offset="0.2577" stop-color="#442B0B"/>
<stop offset="0.9264" stop-color="#4B4E0E"/>
<stop offset="1" stop-color="#4B4E0E"/>
</radialGradient>
<radialGradient id="paint23_radial_7002_16365" cx="0" cy="0" r="1" gradientUnits="userSpaceOnUse" gradientTransform="translate(157.673 28.8611) rotate(88.5097) scale(73.6021 73.601)">
<stop stop-color="#442B0B"/>
<stop offset="0.2577" stop-color="#442B0B"/>
<stop offset="0.9264" stop-color="#4B4E0E"/>
<stop offset="1" stop-color="#4B4E0E"/>
</radialGradient>
<radialGradient id="paint24_radial_7002_16365" cx="0" cy="0" r="1" gradientUnits="userSpaceOnUse" gradientTransform="translate(156.844 29.6346) rotate(88.5096) scale(71.6701 71.6698)">
<stop stop-color="#442B0B"/>
<stop offset="0.2577" stop-color="#442B0B"/>
<stop offset="0.9264" stop-color="#4B4E0E"/>
<stop offset="1" stop-color="#4B4E0E"/>
</radialGradient>
<radialGradient id="paint25_radial_7002_16365" cx="0" cy="0" r="1" gradientTransform="matrix(1.88845 72.5778 72.5793 -1.88841 157.406 29.1875)" gradientUnits="userSpaceOnUse">
<stop stop-color="#442B0B"/>
<stop offset="0.2577" stop-color="#442B0B"/>
<stop offset="0.9264" stop-color="#4B4E0E"/>
<stop offset="1" stop-color="#4B4E0E"/>
</radialGradient>
<radialGradient id="paint26_radial_7002_16365" cx="0" cy="0" r="1" gradientTransform="matrix(92.3635 87.0168 87.0554 -92.3226 80.6301 7.26786)" gradientUnits="userSpaceOnUse">
<stop stop-color="#623B14"/>
<stop offset="0.2577" stop-color="#623B14"/>
<stop offset="0.9264" stop-color="#789F18"/>
<stop offset="1" stop-color="#789F18"/>
</radialGradient>
<radialGradient id="paint27_radial_7002_16365" cx="0" cy="0" r="1" gradientTransform="matrix(27.4934 82.7044 82.7411 -27.4812 78.431 88.2749)" gradientUnits="userSpaceOnUse">
<stop stop-color="#C1DD47"/>
<stop offset="0.2577" stop-color="#C1DD47"/>
<stop offset="0.9264" stop-color="#88AF25"/>
<stop offset="1" stop-color="#88AF25"/>
</radialGradient>
<radialGradient id="paint28_radial_7002_16365" cx="0" cy="0" r="1" gradientTransform="matrix(27.4152 82.4688 82.5054 -27.403 78.5757 88.1699)" gradientUnits="userSpaceOnUse">
<stop stop-color="#C1DD47"/>
<stop offset="0.2577" stop-color="#C1DD47"/>
<stop offset="0.9264" stop-color="#88AF25"/>
<stop offset="1" stop-color="#88AF25"/>
</radialGradient>
<radialGradient id="paint29_radial_7002_16365" cx="0" cy="0" r="1" gradientTransform="matrix(27.2586 81.9976 82.0341 -27.2465 78.9211 86.8007)" gradientUnits="userSpaceOnUse">
<stop stop-color="#445311"/>
<stop offset="0.2577" stop-color="#445311"/>
<stop offset="0.9264" stop-color="#2E3E0E"/>
<stop offset="1" stop-color="#2E3E0E"/>
</radialGradient>
<radialGradient id="paint30_radial_7002_16365" cx="0" cy="0" r="1" gradientUnits="userSpaceOnUse" gradientTransform="translate(78.6952 87.9902) rotate(71.6192) scale(86.9726 86.9726)">
<stop stop-color="#445311"/>
<stop offset="0.2577" stop-color="#445311"/>
<stop offset="0.9264" stop-color="#2E3E0E"/>
<stop offset="1" stop-color="#2E3E0E"/>
</radialGradient>
<radialGradient id="paint31_radial_7002_16365" cx="0" cy="0" r="1" gradientTransform="matrix(27.3971 82.4146 82.4511 -27.3849 78.5725 88.7016)" gradientUnits="userSpaceOnUse">
<stop stop-color="#445311"/>
<stop offset="0.2577" stop-color="#445311"/>
<stop offset="0.9264" stop-color="#2E3E0E"/>
<stop offset="1" stop-color="#2E3E0E"/>
</radialGradient>
<radialGradient id="paint32_radial_7002_16365" cx="0" cy="0" r="1" gradientTransform="matrix(29.4851 88.7391 88.7346 -29.4866 77.3892 87.2015)" gradientUnits="userSpaceOnUse">
<stop stop-color="#22270A"/>
<stop offset="0.2577" stop-color="#22270A"/>
<stop offset="0.9264" stop-color="#191D0C"/>
<stop offset="1" stop-color="#191D0C"/>
</radialGradient>
<radialGradient id="paint33_radial_7002_16365" cx="0" cy="0" r="1" gradientUnits="userSpaceOnUse" gradientTransform="translate(86.3275 84.9467) rotate(71.6192) scale(60.4459)">
<stop stop-color="#22270A"/>
<stop offset="0.2577" stop-color="#22270A"/>
<stop offset="0.9264" stop-color="#191D0C"/>
<stop offset="1" stop-color="#191D0C"/>
</radialGradient>
<radialGradient id="paint34_radial_7002_16365" cx="0" cy="0" r="1" gradientTransform="matrix(27.4369 82.5341 82.5708 -27.4247 78.6132 87.9474)" gradientUnits="userSpaceOnUse">
<stop stop-color="#D4EB57"/>
<stop offset="0.2577" stop-color="#D4EB57"/>
<stop offset="0.9264" stop-color="#ADD13A"/>
<stop offset="1" stop-color="#ADD13A"/>
</radialGradient>
<radialGradient id="paint35_radial_7002_16365" cx="0" cy="0" r="1" gradientTransform="matrix(27.5354 82.8307 82.8676 -27.5232 78.9161 88.9076)" gradientUnits="userSpaceOnUse">
<stop stop-color="#D4EB57"/>
<stop offset="0.2577" stop-color="#D4EB57"/>
<stop offset="0.9264" stop-color="#ADD13A"/>
<stop offset="1" stop-color="#ADD13A"/>
</radialGradient>
</defs>
</svg>
