<svg width="200" height="200" viewBox="0 0 200 200" fill="none" xmlns="http://www.w3.org/2000/svg">
<path d="M123.207 74.8973C123.784 72.4142 124.731 70.1794 125.925 68.1515C126.995 68.3585 127.654 68.524 127.654 68.524C127.654 68.524 151.945 69.2689 160.838 63.7647C160.838 63.7647 159.15 49.3213 167.714 50.0249C173.93 50.4801 170.307 59.8331 170.307 59.8331V59.8745C174.425 58.8813 181.712 57.9294 182.371 63.5578C183.276 71.421 172.201 70.1794 168.29 68.3585C168.29 68.3585 150.957 79.4083 135.765 86.6093C135.765 86.6093 135.6 86.8162 135.271 87.1473C129.013 85.3263 123.948 82.7191 123.207 74.8973Z" fill="url(#paint0_linear_9002_26853)"/>
<g opacity="0.4" style="mix-blend-mode:soft-light">
<path d="M179.777 60.3708C181.465 60.9502 182.701 62.109 182.948 64.3024C183.853 72.1656 172.778 70.924 168.867 69.1031C168.867 69.1031 151.534 80.1529 136.342 87.3539C136.342 87.3539 136.177 87.5608 135.848 87.8919C133.995 87.3539 132.266 86.7331 130.701 85.9468C143.258 80.4426 154.828 74.2762 166.232 67.4477C167.261 67.9857 168.332 68.5237 169.443 68.9376C172.572 67.5718 182.165 66.4958 179.777 60.3708Z" fill="#BB4110"/>
</g>
<path d="M137.371 75.6001C131.813 57.3079 48.3171 47.5824 28.7607 53.8315L58.8158 153.776C58.8158 153.776 147.828 110.032 137.371 75.6001Z" fill="url(#paint1_linear_9002_26853)"/>
<path d="M39.1357 88.3059L58.8156 153.777C58.8156 153.777 59.6391 153.363 61.1212 152.618L39.1357 88.3059Z" fill="#B53630"/>
<path d="M67.1736 125.76C75.2844 125.967 123.249 101.136 124.896 103.702C125.884 105.274 105.298 121.29 63.2212 145.79L67.1736 125.76Z" fill="#E49A67"/>
<g opacity="0.4" style="mix-blend-mode:soft-light">
<path d="M45.0234 56.6468L67.7912 114.503C67.7912 114.503 138.194 86.7751 132.965 77.091C122.837 58.5091 60.3392 55.8605 45.0234 56.6468Z" fill="#FBCBB3"/>
</g>
<g opacity="0.4" style="mix-blend-mode:soft-light">
<path d="M67.2559 99.3556C75.2431 97.7416 81.3365 99.1073 81.1718 102.128C81.0483 105.067 68.8204 111.026 68.8204 111.026L67.2559 99.3556Z" fill="#FFE8D9"/>
</g>
<path d="M34.8953 52.5908C32.4662 52.8805 30.4076 53.2944 28.7607 53.8324L42.7178 100.308L34.8953 52.5908Z" fill="#AF342E"/>
<path d="M138.029 78.5393C139.182 107.923 74.3374 134.285 55.1104 141.445L58.8158 153.736C58.8158 153.777 142.846 112.475 138.029 78.5393Z" fill="#CD895B"/>
<path d="M136.259 73.3247C124.855 56.5224 47.4937 47.8729 28.7607 53.8323L30.2429 58.8399C50.0052 52.8805 121.643 58.2192 136.259 73.3247Z" fill="#FFB27C"/>
<path d="M38.3536 53.9558C78.8662 62.3983 72.1965 148.769 58.8158 153.735C41.318 160.274 -12.5753 43.3612 38.3536 53.9558Z" fill="#FFCAC5"/>
<path d="M36.9539 56.4807C72.1554 63.9714 68.4088 143.596 56.3456 148.645C40.3712 155.35 -7.63461 47.0035 36.9539 56.4807Z" fill="#FF7871"/>
<path d="M64.4973 105.15C63.6327 118.973 60.4214 129.94 56.1807 131.719C46.2584 135.899 23.8612 95.3831 19.1677 66.5791C13.3625 92.0309 44.1587 153.777 56.3454 148.687C62.2329 146.204 66.1442 126.049 64.4973 105.15Z" fill="#F9635F"/>
<path d="M34.9775 78.4555C41.812 71.627 43.3353 102.417 39.6299 104.321C35.8833 106.266 26.7021 86.7739 34.9775 78.4555Z" fill="#FFCAC5"/>
<path d="M35.2246 83.1738C39.3006 79.0766 40.2063 97.4516 37.9831 98.6104C35.7598 99.7278 30.284 88.0986 35.2246 83.1738Z" fill="#AF3831"/>
<g opacity="0.4" style="mix-blend-mode:soft-light">
<path d="M110.198 86.9391C111.68 91.3673 128.766 85.9872 126.625 81.3107C124.443 76.5928 107.439 78.662 110.198 86.9391Z" fill="#FFE8D9"/>
</g>
<g opacity="0.4" style="mix-blend-mode:soft-light">
<path d="M105.01 90.5827C106.533 89.9205 107.357 88.3479 106.78 87.0236C106.245 85.6993 104.516 85.1613 102.993 85.8234C101.469 86.4856 100.646 88.0582 101.222 89.3825C101.799 90.7068 103.487 91.2449 105.01 90.5827Z" fill="#FFE8D9"/>
</g>
<path d="M75.5723 135.608C79.8129 133.58 90.1469 128.656 97.6401 124.434C105.133 120.213 108.592 116.985 110.197 116.323C111.803 115.619 96.4873 121.62 95.1698 121.951C93.8112 122.282 75.5723 135.608 75.5723 135.608Z" fill="#EFAA7C"/>
<path d="M82.7363 106.143C87.5945 105.025 99.4519 102.252 108.263 99.1899C117.073 96.1688 121.52 92.7339 123.331 92.4028C125.143 92.0717 108.016 94.0996 106.575 93.9754C105.134 93.8927 82.7363 106.143 82.7363 106.143Z" fill="#FDB888"/>
<g opacity="0.4" style="mix-blend-mode:soft-light">
<path d="M70.5498 60.2468C73.8435 60.5365 82.2425 61.3228 89.0769 61.2814C96.2407 61.2401 100.399 59.9157 101.881 60.1227C103.363 60.3296 89.9415 57.9293 88.9534 57.5154C87.9653 57.1429 70.5498 60.2468 70.5498 60.2468Z" fill="#FFE8D9"/>
</g>
<path d="M40.9884 95.3419C42.2235 97.5767 45.5584 97.3698 47.7816 95.8386C50.0049 94.3487 57.6628 96.211 59.1038 99.0666C60.5036 101.922 65.65 105.895 65.65 105.895L65.4853 103.453C65.4853 103.453 61.7799 102.667 59.3096 98.6941C57.1275 95.2592 50.9107 94.1004 47.9052 95.5075C44.8996 96.9146 41.4413 95.7144 40.5767 93.3555L40.9884 95.3419Z" fill="#FFCAC5"/>
<path d="M58.1158 97.6179C59.3097 99.1906 60.5449 103.205 58.9804 104.695C55.4396 108.171 62.3152 120.794 65.5678 125.263L65.856 123.773C65.856 123.773 56.5101 107.923 59.1039 105.067C61.9447 101.922 58.1158 97.6179 58.1158 97.6179Z" fill="#FFCAC5"/>
<g opacity="0.4" style="mix-blend-mode:soft-light">
<path d="M76.1484 95.6314C77.4247 95.259 78.3305 94.3899 78.1246 93.6863C77.9187 92.9828 76.7248 92.7345 75.4073 93.1069C74.131 93.4794 73.2252 94.3485 73.4311 95.0107C73.6781 95.7556 74.8721 96.0039 76.1484 95.6314Z" fill="#FFE8D9"/>
</g>
<path d="M34.5248 98.3208C33.8249 98.5691 29.1725 102.087 29.1314 104.322C29.0902 106.556 26.6199 110.778 26.6199 110.778L26.4141 110.405C26.4141 110.405 28.6373 106.556 28.7608 103.949C28.8843 101.342 34.4425 98.0725 34.4425 98.0725L34.5248 98.3208Z" fill="#FFCAC5"/>
<path d="M35.7599 79.1601C36.8715 77.6288 36.4598 72.2902 34.5659 69.2277C30.0371 62.0267 33.6601 55.7775 35.1423 54.9912L34.6483 55.0326C34.6483 55.0326 28.6784 58.8814 33.2896 67.7792C37.1597 75.1871 35.5129 77.3391 34.9776 79.4084C34.4424 81.4776 35.7599 79.1601 35.7599 79.1601Z" fill="#FFCAC5"/>
<path d="M57.1275 150.095C58.6508 147.653 54.5337 136.644 48.4403 129.236C34.195 111.896 38.3122 101.467 41.0706 100.805L40.0414 100.557C40.0414 100.557 29.2956 104.654 44.8172 125.512C57.745 142.894 55.4806 146.204 55.563 150.053C55.6453 153.943 57.1275 150.095 57.1275 150.095Z" fill="#FFCAC5"/>
<defs>
<linearGradient id="paint0_linear_9002_26853" x1="139.5" y1="50" x2="152.815" y2="87.1473" gradientUnits="userSpaceOnUse">
<stop offset="0.311498" stop-color="#F3A889"/>
<stop offset="0.563466" stop-color="#F9B89D"/>
<stop offset="0.755" stop-color="#D28F73"/>
<stop offset="1" stop-color="#F3A889"/>
</linearGradient>
<linearGradient id="paint1_linear_9002_26853" x1="60" y1="55.5" x2="83.4928" y2="153.776" gradientUnits="userSpaceOnUse">
<stop stop-color="#F9B98D"/>
<stop offset="0.285" stop-color="#F4CAAD"/>
<stop offset="0.79" stop-color="#EC985E"/>
<stop offset="0.97" stop-color="#F8C5A2"/>
</linearGradient>
</defs>
</svg>
