<svg width="200" height="200" viewBox="0 0 200 200" fill="none" xmlns="http://www.w3.org/2000/svg">
<path d="M168.849 103.829C168.849 79.4368 158.936 57.6733 143.413 43.3975C131.548 46.1392 116.442 47.7842 99.9906 47.7842C83.5388 47.7842 68.4327 46.1392 56.5677 43.3975C41.0636 57.6733 31.1509 79.4368 31.1509 103.829C31.1509 126.84 39.9833 147.526 54.0279 161.783H54.0658C53.8953 162.218 53.7815 162.652 53.7815 163.087C53.7815 169.667 74.2894 175 99.5736 175C124.858 175 145.366 169.667 145.366 163.087C145.366 162.652 145.271 162.218 145.081 161.783H145.991C160.017 147.526 168.849 126.84 168.849 103.829Z" fill="url(#paint0_linear_2003_15273)"/>
<path d="M100.104 58.5436C81.1127 58.5436 63.3342 56.407 50.0098 52.5118C49.3085 52.3039 48.9104 51.5664 49.1189 50.8668C49.3274 50.1672 50.0666 49.7701 50.7679 49.9781C63.8459 53.7976 81.3781 55.8964 100.123 55.8964C118.717 55.8964 136.135 53.8165 149.194 50.0538C149.896 49.8458 150.635 50.2617 150.843 50.9614C151.052 51.661 150.635 52.3984 149.933 52.6064C136.628 56.4448 118.944 58.5436 100.104 58.5436Z" fill="#FFF1E4"/>
<path d="M99.8389 52.3602C83.1218 52.3602 66.9353 50.6396 54.2364 47.5197C52.9665 47.1983 52.1704 45.9125 52.4926 44.6456C52.8149 43.3788 54.1037 42.5846 55.3736 42.9061C67.7124 45.9314 83.5008 47.6143 99.8389 47.6143C116.329 47.6143 132.231 45.9125 144.607 42.8304C145.877 42.509 147.185 43.2842 147.488 44.57C147.811 45.8369 147.033 47.1415 145.745 47.4441C133.008 50.6207 116.708 52.3602 99.8389 52.3602ZM63.372 161.083C63.372 162.633 67.2301 164.119 74.0973 165.215C80.9646 166.31 90.2787 166.926 99.9905 166.926C109.702 166.926 119.016 166.31 125.884 165.215C132.751 164.119 136.609 162.633 136.609 161.083C136.609 159.534 132.751 158.048 125.884 156.952C119.016 155.856 109.702 155.241 99.9905 155.241C90.2787 155.241 80.9646 155.856 74.0973 156.952C67.2301 158.048 63.372 159.534 63.372 161.083Z" fill="#CF7211"/>
<path d="M143.641 25H56.3592C53.3077 25 50.8058 27.4959 50.8058 30.5401V37.801C50.8058 40.8452 53.3077 43.3411 56.3592 43.3411H56.7193C63.2394 45.8937 80.146 47.7089 99.9905 47.7089C119.835 47.7089 136.742 45.8937 143.262 43.3411H143.622C146.673 43.3411 149.175 40.8452 149.175 37.801V30.5401C149.175 27.477 146.692 25 143.641 25Z" fill="url(#paint1_linear_2003_15273)"/>
<path d="M167.674 74.9177C166.328 72.0437 163.163 70.4932 160.036 71.0983C144.57 74.1047 129.956 77.2057 101.734 77.2057C70.7829 77.2057 56.1886 73.8778 40.4002 70.531C37.2729 69.8692 34.0887 71.3819 32.6861 74.256C28.0993 83.6912 27 94.4879 27 105.719C27 113.491 29.7672 121.47 32.6671 128.447C33.5011 130.452 35.2448 131.945 37.3487 132.513C56.852 137.656 63.0309 141.608 99.5735 141.608C135.51 141.608 143.11 137.693 162.879 132.399C164.983 131.832 166.707 130.319 167.541 128.315C170.346 121.376 173 113.358 173 105.701C173 94.7526 172.014 84.1828 167.674 74.9177Z" fill="#FFF6ED"/>
<path d="M167.674 74.9177C166.328 72.0437 163.163 70.4932 160.036 71.0983C144.57 74.1047 129.956 77.2057 101.734 77.2057C70.7829 77.2057 56.1886 73.8778 40.4002 70.531C37.2729 69.8692 34.0887 71.3819 32.6861 74.256C28.0993 83.6912 27 94.4879 27 105.719C27 113.491 29.7672 121.47 32.6671 128.447C33.5011 130.452 35.2448 131.945 37.3487 132.513C56.852 137.656 63.0309 141.608 99.5735 141.608C135.51 141.608 143.11 137.693 162.879 132.399C164.983 131.832 166.707 130.319 167.541 128.315C170.346 121.376 173 113.358 173 105.701C173 94.7526 172.014 84.1828 167.674 74.9177Z" fill="url(#paint2_linear_2003_15273)"/>
<path d="M54.9755 62.3631C54.9755 63.4413 55.4049 64.4754 56.1691 65.2378C56.9333 66.0001 57.9698 66.4284 59.0506 66.4284C60.1313 66.4284 61.1678 66.0001 61.9321 65.2378C62.6963 64.4754 63.1256 63.4413 63.1256 62.3631C63.1256 61.285 62.6963 60.2509 61.9321 59.4886C61.1678 58.7262 60.1313 58.2979 59.0506 58.2979C57.9698 58.2979 56.9333 58.7262 56.1691 59.4886C55.4049 60.2509 54.9755 61.285 54.9755 62.3631Z" fill="#FFF1B6"/>
<path d="M147.635 34H52.3649C51.0698 34 50 32.8889 50 31.5C50 30.131 51.0511 29 52.3649 29H147.635C148.93 29 150 30.1111 150 31.5C150 32.869 148.949 34 147.635 34Z" fill="url(#paint3_linear_2003_15273)"/>
<path d="M63.2583 90.9711C63.2394 90.8199 63.2204 90.6308 63.2014 90.3471C63.2014 90.0824 63.1825 89.7799 63.1825 89.4395C63.1825 88.8723 63.2014 88.2294 63.2204 87.492C63.2394 86.7546 63.2962 86.0171 63.3531 85.2608C63.4099 84.5045 63.4858 83.7859 63.5616 83.0863C63.6374 82.3867 63.7511 81.8006 63.8648 81.29L65.2105 81.3657C65.1916 81.5548 65.1916 81.7627 65.1726 82.0275C65.1726 82.2733 65.1537 82.538 65.1537 82.8027C65.1537 83.1431 65.1537 83.4834 65.1726 83.8238C65.1726 84.1641 65.1916 84.5423 65.2105 84.9583C65.6465 84.8448 66.1582 84.7881 66.7458 84.7881C67.0301 84.7881 67.3333 84.807 67.6366 84.8637C67.9399 84.9204 68.2242 85.015 68.5085 85.1284C68.9444 85.3364 69.3614 85.6011 69.7405 85.9415C70.1195 86.2818 70.3659 86.7356 70.4797 87.3218C70.4986 87.4731 70.5365 87.6432 70.5555 87.7945C70.5744 87.9458 70.5934 88.0971 70.5934 88.2483C70.5934 88.8345 70.4607 89.345 70.2143 89.7799C69.9679 90.2148 69.6267 90.574 69.1908 90.8577C68.9823 90.99 68.717 91.1035 68.4137 91.2169C68.0915 91.3304 67.7314 91.3682 67.3333 91.3682C67.0111 91.3682 66.651 91.3304 66.2909 91.2547C65.9118 91.1791 65.5138 91.0468 65.0968 90.8766V91.0657L63.3531 90.99L63.2583 90.9711ZM67.902 86.5844C67.6935 86.4709 67.466 86.4142 67.2386 86.3764C67.0111 86.3386 66.7837 86.3197 66.5562 86.3197C66.0634 86.3197 65.6275 86.3764 65.2295 86.4898C65.2295 86.9815 65.2295 87.4731 65.2105 87.9458C65.2105 88.4185 65.1916 88.9101 65.1537 89.3828C65.419 89.4963 65.6844 89.5719 65.9687 89.6286C66.253 89.6854 66.4994 89.7232 66.7268 89.7232C67.3523 89.7232 67.8451 89.5719 68.2052 89.2505C68.5653 88.929 68.7359 88.4941 68.698 87.9458C68.6791 87.5298 68.6222 87.2273 68.5085 87.0571C68.4137 86.868 68.2052 86.7167 67.902 86.5844ZM79.5964 88.2483H79.6153C79.0088 88.3996 78.4781 88.513 78.0043 88.5887C77.5304 88.6643 77.0945 88.7021 76.6775 88.7021C76.2037 88.7021 75.7867 88.6643 75.3886 88.6076C75.0096 88.5508 74.6115 88.4563 74.2325 88.3429C74.3083 88.9101 74.5547 89.3072 74.9717 89.4963C75.3886 89.6853 75.8435 89.7799 76.3742 89.7799C76.6775 89.7799 76.9808 89.761 77.284 89.7232C77.5873 89.6854 77.9095 89.6286 78.2317 89.5719C78.2886 89.8366 78.3454 90.0824 78.3833 90.3093C78.4402 90.5362 78.497 90.782 78.535 91.0278C77.682 91.2547 76.9239 91.3682 76.2605 91.3682C75.673 91.3682 75.1233 91.2737 74.6305 91.1035C74.1377 90.9144 73.7207 90.593 73.3796 90.1392C73.2469 89.9879 73.0953 89.7421 72.9057 89.3639C72.7162 88.9857 72.6214 88.4941 72.6214 87.908C72.6214 87.4163 72.7351 86.8302 72.9626 86.1306C73.0763 85.8848 73.2469 85.6579 73.4743 85.431C73.7018 85.223 73.9861 85.0339 74.2704 84.8637C74.5736 84.7125 74.8769 84.5801 75.2181 84.4856C75.5403 84.391 75.8625 84.3343 76.1657 84.2965C76.8102 84.3721 77.3598 84.5234 77.8147 84.7692C78.2696 84.9961 78.6487 85.2797 78.933 85.5822C79.2173 85.8848 79.4258 86.2062 79.5585 86.5655C79.6911 86.9058 79.748 87.2273 79.748 87.5109C79.748 87.8891 79.729 88.1349 79.6722 88.2483H79.5964ZM74.4031 87.1894L74.3841 87.1705H74.3652V87.2084H74.4031V87.1894ZM74.4031 87.1894C74.5357 87.2084 74.7442 87.2462 75.0664 87.2651C75.3697 87.284 75.7298 87.3029 76.1468 87.3029C76.4501 87.3029 76.7344 87.284 77.0187 87.2651C77.303 87.2462 77.5683 87.2084 77.8337 87.1327C77.7768 86.8113 77.701 86.5466 77.5683 86.3764C77.4356 86.2062 77.303 86.0739 77.1324 85.9982C76.9618 85.9226 76.7912 85.8848 76.6206 85.8659C76.4311 85.8659 76.2605 85.847 76.0899 85.847C75.8246 85.847 75.5782 85.9037 75.3886 85.9982C75.1991 86.0928 75.0285 86.2062 74.8959 86.3575C74.7632 86.4898 74.6495 86.6411 74.5736 86.7735C74.4978 86.9247 74.441 87.0193 74.422 87.1138V87.076C74.4031 87.0949 74.4031 87.1138 74.4031 87.1327V87.1516C74.4031 87.1327 74.4031 87.1327 74.422 87.1138V87.1894H74.4031ZM88.6183 88.2483H88.6373C88.0307 88.3996 87.5 88.513 87.0262 88.5887C86.5524 88.6643 86.1164 88.7021 85.6994 88.7021C85.2256 88.7021 84.8086 88.6643 84.4106 88.6076C84.0315 88.5508 83.6335 88.4563 83.2544 88.3429C83.3302 88.9101 83.5766 89.3072 83.9936 89.4963C84.4106 89.6853 84.8655 89.7799 85.3962 89.7799C85.6994 89.7799 86.0027 89.761 86.306 89.7232C86.6092 89.6854 86.9314 89.6286 87.2536 89.5719C87.3105 89.8366 87.3674 90.0824 87.4053 90.3093C87.4621 90.5362 87.519 90.782 87.5569 91.0278C86.704 91.2547 85.9458 91.3682 85.2825 91.3682C84.6949 91.3682 84.1452 91.2737 83.6524 91.1035C83.1596 90.9144 82.7427 90.593 82.4015 90.1392C82.2688 89.9879 82.1172 89.7421 81.9277 89.3639C81.7381 88.9857 81.6434 88.4941 81.6434 87.908C81.6434 87.4163 81.7571 86.8302 81.9845 86.1306C82.0982 85.8848 82.2688 85.6579 82.4963 85.431C82.7237 85.223 83.008 85.0339 83.2923 84.8637C83.5956 84.7125 83.8988 84.5801 84.24 84.4856C84.5622 84.391 84.8844 84.3343 85.1877 84.2965C85.8321 84.3721 86.3818 84.5234 86.8367 84.7692C87.2915 84.9961 87.6706 85.2797 87.9549 85.5822C88.2392 85.8848 88.4477 86.2062 88.5804 86.5655C88.7131 86.9058 88.7699 87.2273 88.7699 87.5109C88.7699 87.8891 88.751 88.1349 88.6941 88.2483H88.6183ZM83.425 87.1894L83.406 87.1705H83.3871V87.2084H83.425V87.1894ZM83.425 87.1894C83.5577 87.2084 83.7662 87.2462 84.0884 87.2651C84.3916 87.284 84.7518 87.3029 85.1687 87.3029C85.472 87.3029 85.7563 87.284 86.0406 87.2651C86.3249 87.2462 86.5903 87.2084 86.8556 87.1327C86.7987 86.8113 86.7229 86.5466 86.5903 86.3764C86.4576 86.2062 86.3249 86.0739 86.1543 85.9982C85.9837 85.9226 85.8132 85.8848 85.6426 85.8659C85.453 85.8659 85.2825 85.847 85.1119 85.847C84.8465 85.847 84.6001 85.9037 84.4106 85.9982C84.2211 86.0928 84.0505 86.2062 83.9178 86.3575C83.7851 86.4898 83.6714 86.6411 83.5956 86.7735C83.5198 86.9247 83.4629 87.0193 83.444 87.1138V87.076C83.425 87.0949 83.425 87.1138 83.425 87.1327V87.1516C83.425 87.1327 83.425 87.1327 83.444 87.1138V87.1894H83.425ZM95.4416 91.2547C95.4037 90.9711 95.3658 90.4984 95.3468 89.8555C95.3279 89.2126 95.3089 88.4752 95.3089 87.6622C95.3089 87.1705 95.3089 86.66 95.3279 86.1306C95.3469 85.6011 95.3658 85.0906 95.3848 84.5801C95.4037 84.0696 95.4416 83.578 95.4985 83.1242C95.5364 82.6704 95.5932 82.2355 95.6691 81.8573L97.0337 81.8762C97.0337 82.2544 97.0527 82.7271 97.0716 83.3132C97.0906 83.8994 97.1285 84.5423 97.1474 85.2419C97.4128 85.0906 97.7161 84.9772 98.0383 84.8826C98.3605 84.7881 98.7016 84.7503 99.0618 84.7503C99.4029 84.7503 99.782 84.8259 100.199 84.9583C100.616 85.0906 100.976 85.2797 101.298 85.4877C101.696 85.828 102 86.2629 102.208 86.8113C102.417 87.3596 102.53 88.0214 102.53 88.8156C102.53 89.0047 102.53 89.1748 102.511 89.3261C102.492 89.4774 102.473 89.6097 102.454 89.7421C102.436 89.8744 102.417 90.0068 102.379 90.1202C102.36 90.2526 102.322 90.385 102.284 90.5551L102.113 91.3115L100.085 91.1035C100.218 90.4795 100.313 89.969 100.389 89.6097C100.464 89.2315 100.502 88.8534 100.502 88.4563C100.502 87.8701 100.389 87.3785 100.161 86.9815C99.9336 86.5844 99.5735 86.3764 99.1186 86.3764C98.7775 86.3764 98.4363 86.4331 98.0762 86.5655C97.7161 86.6978 97.4507 86.7924 97.2422 86.8869C97.2612 87.3218 97.2801 87.7567 97.2991 88.2105C97.318 88.6643 97.318 89.0992 97.318 89.5152C97.318 89.8177 97.318 90.1202 97.2991 90.4417C97.2991 90.7631 97.2801 91.0468 97.2422 91.3115L95.4795 91.2926L95.4416 91.2547ZM107.856 91.198C107.458 91.1791 107.06 91.1035 106.662 90.9333C106.264 90.7631 105.904 90.5551 105.582 90.2715C105.26 89.9879 104.994 89.6664 104.786 89.2883C104.577 88.9101 104.464 88.513 104.464 88.0781C104.464 87.5109 104.539 87.0004 104.691 86.5466C104.843 86.0928 105.07 85.6768 105.373 85.3553C105.677 85.015 106.018 84.7692 106.416 84.5801C106.814 84.391 107.269 84.2965 107.761 84.2965C108.463 84.2965 109.069 84.391 109.581 84.599C110.093 84.7881 110.51 85.0717 110.851 85.4121C111.192 85.7524 111.42 86.1684 111.571 86.6222C111.723 87.0949 111.799 87.5865 111.78 88.1349C111.78 88.6454 111.666 89.0992 111.439 89.4774C111.211 89.8555 110.927 90.177 110.567 90.4417C110.207 90.7064 109.79 90.8955 109.316 91.0278C108.861 91.1224 108.368 91.198 107.856 91.198ZM107.818 85.828C107.496 85.828 107.231 85.9037 107.022 86.036C106.814 86.1873 106.643 86.3575 106.511 86.5844C106.378 86.7924 106.302 87.0382 106.283 87.3029C106.245 87.5676 106.245 87.8134 106.302 88.0403C106.321 88.2294 106.359 88.3996 106.454 88.5887C106.53 88.7777 106.662 88.9479 106.795 89.0992C106.946 89.2505 107.098 89.3828 107.288 89.4774C107.477 89.5719 107.686 89.6286 107.913 89.6286C108.539 89.6475 109.031 89.4774 109.373 89.1559C109.714 88.8345 109.865 88.4563 109.827 88.0214C109.79 87.5865 109.733 87.2084 109.657 86.9058C109.581 86.6033 109.467 86.3764 109.316 86.2251C109.164 86.0549 108.975 85.9604 108.728 85.8848C108.463 85.828 108.16 85.8091 107.818 85.828ZM115.836 86.7735C115.836 86.8113 115.836 86.8491 115.855 86.8869C115.855 86.9247 115.874 86.9625 115.874 87.0004C115.893 87.3596 115.912 87.7567 115.931 88.1916C115.949 88.6076 115.949 89.0425 115.949 89.4585C115.949 89.7232 115.949 90.0068 115.931 90.3093C115.931 90.6119 115.912 90.9144 115.874 91.198L114.073 91.1602C114.016 90.8955 113.978 90.593 113.959 90.2337C113.94 89.8744 113.921 89.4774 113.921 89.0614C113.921 88.2861 113.959 87.4353 114.016 86.5466C114.073 85.6579 114.187 84.7881 114.319 83.975L115.741 84.0128C115.741 84.2019 115.741 84.4099 115.722 84.599C115.722 84.7881 115.722 84.9961 115.76 85.223C116.025 85.1095 116.329 84.9961 116.689 84.9204C117.049 84.8448 117.428 84.7881 117.845 84.7881C118.186 84.7881 118.565 84.8448 119.001 84.9772C119.418 85.1095 119.816 85.2797 120.157 85.4877C120.536 85.8091 120.84 86.244 121.048 86.7735C121.257 87.3029 121.37 87.9647 121.37 88.721C121.37 88.9479 121.37 89.137 121.351 89.3072C121.351 89.4774 121.332 89.6286 121.294 89.761C121.275 89.9123 121.238 90.0635 121.2 90.2148C121.162 90.385 121.105 90.574 121.048 90.8198L120.953 91.198L118.906 91.0278C118.982 90.7064 119.058 90.4417 119.096 90.1959C119.153 89.9501 119.191 89.7421 119.228 89.5341C119.266 89.345 119.285 89.1559 119.304 88.9668C119.323 88.7967 119.323 88.6076 119.323 88.3807C119.323 87.7945 119.209 87.3029 118.982 86.9247C118.755 86.5466 118.413 86.3575 117.921 86.3575C117.466 86.3575 117.049 86.4142 116.67 86.5277C116.291 86.6411 116.044 86.7167 115.949 86.7546L115.836 86.7735ZM130.335 88.2483H130.354C129.748 88.3996 129.217 88.513 128.743 88.5887C128.269 88.6643 127.833 88.7021 127.416 88.7021C126.943 88.7021 126.526 88.6643 126.128 88.6076C125.749 88.5508 125.35 88.4563 124.971 88.3429C125.047 88.9101 125.294 89.3072 125.711 89.4963C126.128 89.6853 126.582 89.7799 127.113 89.7799C127.416 89.7799 127.72 89.761 128.023 89.7232C128.326 89.6854 128.648 89.6286 128.971 89.5719C129.027 89.8366 129.084 90.0824 129.122 90.3093C129.179 90.5362 129.236 90.782 129.274 91.0278C128.421 91.2547 127.663 91.3682 126.999 91.3682C126.412 91.3682 125.862 91.2737 125.369 91.1035C124.877 90.9144 124.46 90.593 124.118 90.1392C123.986 89.9879 123.834 89.7421 123.645 89.3639C123.455 88.9857 123.36 88.4941 123.36 87.908C123.36 87.4163 123.474 86.8302 123.702 86.1306C123.815 85.8848 123.986 85.6579 124.213 85.431C124.441 85.223 124.725 85.0339 125.009 84.8637C125.313 84.7125 125.616 84.5801 125.957 84.4856C126.279 84.391 126.601 84.3343 126.905 84.2965C127.549 84.3721 128.099 84.5234 128.554 84.7692C129.009 84.9961 129.388 85.2797 129.672 85.5822C129.956 85.8848 130.165 86.2062 130.297 86.5655C130.43 86.9058 130.487 87.2273 130.487 87.5109C130.487 87.8891 130.468 88.1349 130.411 88.2483H130.335ZM125.142 87.1894L125.123 87.1705H125.104V87.2084H125.142V87.1894ZM125.142 87.1894C125.275 87.2084 125.483 87.2462 125.805 87.2651C126.109 87.284 126.469 87.3029 126.886 87.3029C127.189 87.3029 127.473 87.284 127.758 87.2651C128.042 87.2462 128.307 87.2084 128.573 87.1327C128.516 86.8113 128.44 86.5466 128.307 86.3764C128.175 86.2062 128.042 86.0739 127.871 85.9982C127.701 85.9226 127.53 85.8848 127.36 85.8659C127.17 85.8659 126.999 85.847 126.829 85.847C126.564 85.847 126.317 85.9037 126.128 85.9982C125.938 86.0928 125.767 86.2062 125.635 86.3575C125.502 86.4898 125.388 86.6411 125.313 86.7735C125.237 86.9247 125.18 87.0193 125.161 87.1138V87.076C125.142 87.0949 125.142 87.1138 125.142 87.1327V87.1516C125.142 87.1327 125.142 87.1327 125.161 87.1138V87.1894H125.142ZM139.869 85.3175C139.414 86.5466 138.997 87.6054 138.599 88.4941C138.22 89.3828 137.841 90.1581 137.481 90.8388C137.121 91.5195 136.761 92.1056 136.419 92.6161C136.059 93.1267 135.699 93.6183 135.32 94.091C135.131 94.0343 134.998 93.9775 134.884 93.9208C134.77 93.8641 134.657 93.7885 134.562 93.6939C134.505 93.675 134.448 93.6372 134.372 93.5805C134.297 93.5427 134.164 93.467 133.955 93.3725L134.088 93.0321C134.316 92.6351 134.524 92.2569 134.714 91.9165C134.903 91.5762 135.112 91.2169 135.301 90.8577C134.903 90.4606 134.581 90.0635 134.297 89.6475C134.031 89.2316 133.785 88.8156 133.576 88.3807C133.368 87.9458 133.197 87.5109 133.046 87.076C132.894 86.6411 132.742 86.1873 132.61 85.7335L132.401 85.0339L132.742 84.8637C132.932 84.7692 133.121 84.6746 133.349 84.5423C133.557 84.4288 133.823 84.3154 134.107 84.2019L134.316 84.8826C134.467 85.3364 134.581 85.7524 134.714 86.1306C134.827 86.5087 134.96 86.868 135.093 87.2084C135.225 87.5487 135.358 87.8891 135.529 88.2294C135.68 88.5698 135.87 88.9101 136.078 89.2883C136.419 88.5887 136.742 87.8323 137.064 87.0382C137.386 86.244 137.727 85.3553 138.087 84.3721C138.201 84.4288 138.315 84.5045 138.466 84.5801C138.618 84.6557 138.732 84.6935 138.827 84.7314C139.016 84.7881 139.187 84.8637 139.357 84.9583C139.528 85.0528 139.698 85.1284 139.85 85.223L139.869 85.3175Z" fill="#562009"/>
<path d="M106.113 106.06C106.113 106.06 115.836 97.4754 119.778 104.434C123.626 111.203 116.84 120.43 107.856 120.846L106.113 106.06Z" fill="white"/>
<path d="M93.9254 110.428C93.9254 110.428 88.6942 97.7594 98.5501 97.4947C108.387 97.211 111.609 107.232 107.989 115.439L93.9254 110.428Z" fill="#FFF6ED"/>
<path d="M116.859 123.456C116.859 123.456 120.081 124.458 120.081 124.95C120.081 125.441 116.859 124.95 116.859 124.95V123.456Z" fill="#3C170E"/>
<path d="M97.7583 135.403C102.353 136.116 106.982 135.37 110.627 133.33C114.273 131.29 116.636 128.123 117.196 124.526C117.757 120.928 116.469 117.195 113.617 114.147C110.764 111.099 106.58 108.987 101.986 108.274C97.3911 107.562 92.762 108.308 89.1167 110.348C85.4714 112.388 83.1086 115.555 82.548 119.152C81.9874 122.75 83.275 126.483 86.1275 129.531C88.98 132.578 93.1637 134.691 97.7583 135.403Z" fill="url(#paint4_linear_2003_15273)"/>
<path d="M90.8927 136.408C90.6084 136.408 90.3241 136.408 90.0209 136.389C89.0163 136.351 88.2392 135.519 88.2771 134.517C88.3151 133.515 89.149 132.759 90.1536 132.778C90.4 132.797 90.6653 132.797 90.9117 132.797C99.4788 132.797 102.379 126.897 103.307 121.868C104.35 116.157 102.871 111.146 99.2324 108.14C98.4742 107.497 98.3605 106.363 99.0049 105.606C99.6493 104.85 100.787 104.737 101.545 105.379C106.207 109.256 108.141 115.495 106.852 122.529C105.222 131.378 99.4408 136.408 90.8927 136.408Z" fill="#9D442E"/>
<path d="M99.4598 138.582C98.6638 138.582 98.0004 137.958 97.9625 137.164C97.9246 136.332 98.55 135.632 99.384 135.576C103.952 135.311 109.733 133.137 111.382 124.155C112.462 118.199 110.908 112.98 107.098 109.823C106.454 109.293 106.378 108.348 106.909 107.705C107.439 107.062 108.387 106.986 109.031 107.516C113.694 111.392 115.627 117.651 114.338 124.703C112.803 133.08 107.42 138.147 99.5546 138.582H99.4598ZM87.4578 119.011C87.562 119.024 87.6695 118.996 87.774 118.931C87.8785 118.866 87.978 118.765 88.0668 118.633C88.1556 118.501 88.2319 118.341 88.2913 118.162C88.3508 117.983 88.3922 117.789 88.4132 117.591C88.4343 117.393 88.4345 117.194 88.4138 117.007C88.3932 116.82 88.3521 116.648 88.2929 116.5C88.2338 116.352 88.1577 116.232 88.0692 116.147C87.9806 116.062 87.8812 116.013 87.7768 116.003C87.6723 115.989 87.5643 116.016 87.4593 116.08C87.3542 116.144 87.2541 116.245 87.1647 116.377C87.0753 116.509 86.9984 116.67 86.9385 116.849C86.8787 117.028 86.837 117.223 86.8158 117.423C86.7947 117.622 86.7946 117.821 86.8155 118.009C86.8365 118.197 86.878 118.37 86.9377 118.518C86.9974 118.665 87.0741 118.785 87.1634 118.87C87.2527 118.955 87.3528 119.003 87.4578 119.011ZM91.1449 119.402C91.2488 119.413 91.3559 119.385 91.46 119.32C91.564 119.254 91.6631 119.153 91.7514 119.021C91.8397 118.889 91.9156 118.729 91.9747 118.551C92.0339 118.372 92.0751 118.179 92.096 117.981C92.117 117.784 92.1172 117.586 92.0968 117.399C92.0764 117.213 92.0356 117.041 91.9769 116.893C91.9182 116.746 91.8427 116.626 91.7547 116.54C91.6666 116.454 91.5678 116.405 91.4638 116.394C91.2539 116.371 91.0357 116.509 90.8573 116.775C90.679 117.042 90.555 117.415 90.5127 117.814C90.4704 118.213 90.5132 118.605 90.6318 118.903C90.7503 119.2 90.9349 119.38 91.1449 119.402Z" fill="#893B27"/>
<path d="M167.674 74.918C166.328 72.044 163.163 70.4935 160.036 71.0985C158.709 71.3632 157.382 71.6091 156.055 71.8738C160.396 81.517 162.803 92.2003 162.803 103.451C162.803 114.361 160.528 124.76 156.434 134.177C158.463 133.61 160.585 133.004 162.879 132.399C164.983 131.832 166.707 130.32 167.541 128.315C170.346 121.376 173 113.359 173 105.701C173 94.7529 172.014 84.1831 167.674 74.918Z" fill="#FFB862"/>
<defs>
<linearGradient id="paint0_linear_2003_15273" x1="30.5435" y1="103.353" x2="169.513" y2="103.353" gradientUnits="userSpaceOnUse">
<stop stop-color="#FFAF66"/>
<stop offset="0.16" stop-color="#FF9E44"/>
<stop offset="0.33" stop-color="#FFB36D"/>
<stop offset="0.48" stop-color="#FFE2B6"/>
<stop offset="0.625" stop-color="#FFBC6D"/>
<stop offset="0.815" stop-color="#F0811A"/>
<stop offset="1" stop-color="#DD8A0F"/>
</linearGradient>
<linearGradient id="paint1_linear_2003_15273" x1="99.9905" y1="25" x2="99.9905" y2="47.7089" gradientUnits="userSpaceOnUse">
<stop stop-color="#934710"/>
<stop offset="0.075" stop-color="#AC501C"/>
<stop offset="0.195" stop-color="#A76C13"/>
<stop offset="0.285" stop-color="#8B3611"/>
<stop offset="0.595" stop-color="#AE7217"/>
<stop offset="0.945" stop-color="#753012"/>
</linearGradient>
<linearGradient id="paint2_linear_2003_15273" x1="26.356" y1="102.828" x2="173.704" y2="102.828" gradientUnits="userSpaceOnUse">
<stop stop-color="#FFE9D5"/>
<stop offset="0.16" stop-color="#FFF6EE"/>
<stop offset="0.33" stop-color="#F9E4D0"/>
<stop offset="0.48" stop-color="#FFD597"/>
<stop offset="0.825" stop-color="#FFCC8F"/>
<stop offset="1" stop-color="#FEC97A"/>
</linearGradient>
<linearGradient id="paint3_linear_2003_15273" x1="50" y1="31.5" x2="150" y2="31.5" gradientUnits="userSpaceOnUse">
<stop stop-color="#FFF9F3"/>
<stop offset="0.155" stop-color="#FFD7AF"/>
<stop offset="0.535" stop-color="#FFFAF5"/>
<stop offset="0.699922" stop-color="#FFEBD6"/>
<stop offset="0.86" stop-color="#FFDBB8"/>
<stop offset="1" stop-color="#FFAF5F"/>
</linearGradient>
<linearGradient id="paint4_linear_2003_15273" x1="105.5" y1="109" x2="99.8721" y2="135.667" gradientUnits="userSpaceOnUse">
<stop stop-color="#F6E01E"/>
<stop offset="0.34" stop-color="#FFF27B"/>
<stop offset="0.765" stop-color="#FFE925"/>
<stop offset="1" stop-color="#D9AC0D"/>
</linearGradient>
</defs>
</svg>
