<svg width="200" height="200" viewBox="0 0 200 200" fill="none" xmlns="http://www.w3.org/2000/svg">
<path d="M128.639 61.4416C122.459 54.8388 121.24 51.1142 121.24 49.6751V36.9775H78.7601V49.7598C78.7601 51.1989 77.5414 54.9235 71.3609 61.5262C65.0934 68.0443 59 75.5783 59 85.3131C59 95.0479 59 126.199 59 140.251C59 154.303 59 152.356 59 160.991C59 169.541 61.7856 183 86.4204 183H113.58C138.214 183 141 169.541 141 160.991C141 152.441 141 154.303 141 140.251C141 126.199 141 95.0479 141 85.3131C140.913 75.5783 134.82 68.0443 128.639 61.4416Z" fill="#AFE1F9"/>
<path d="M66.3121 77.6944C66.5733 77.5251 66.9214 77.3558 67.2696 77.1865C73.0149 74.9856 79.9788 75.7474 85.811 77.3558C98.172 80.6572 116.278 78.033 123.068 77.6097C129.858 77.1018 136.299 82.7734 136.038 93.8627C135.777 104.952 136.038 147.277 136.038 161.668C136.038 176.058 121.675 177.667 101.306 177.159C80.9363 176.651 62.3079 176.905 62.3079 164.207C62.3079 155.742 62.3079 122.813 62.3079 108.846C62.3079 102.666 62.3079 96.4022 62.7431 90.2227C63.0043 86.6674 62.8302 80.0646 66.3121 77.6944Z" fill="#F2722F"/>
<path d="M74.2336 96.487V154.134C74.2336 154.134 96.8663 169.794 125.68 154.134V96.487C125.68 96.487 98.6073 74.3931 74.2336 96.487Z" fill="#FFECA7"/>
<path d="M76.6709 99.1114V151.341C76.6709 151.341 97.1274 165.562 123.329 151.341V99.1114C123.242 99.1114 98.7813 79.0492 76.6709 99.1114Z" fill="#FFFCEA"/>
<path d="M106.268 130.093C106.268 130.093 118.977 125.522 121.153 122.305C121.762 121.459 120.195 127.384 116.8 129.839C115.321 130.516 119.586 128.4 121.24 128.739C122.894 129.077 118.454 130.178 118.193 132.125C117.932 134.072 116.365 135.849 110.794 136.357C105.223 136.865 102.35 138.727 100.174 139.913C97.9979 141.098 95.4735 140.505 91.034 141.86C86.5074 143.214 83.3737 140.928 89.8153 138.22L106.268 130.093Z" fill="#FF9862"/>
<path d="M105.31 129.416C105.31 129.416 110.272 129.755 112.535 128.739C114.798 127.723 116.191 127.384 117.236 126.369C118.28 125.353 116.278 129.755 114.102 130.94C111.926 132.21 110.272 133.056 114.798 132.717C119.325 132.379 114.885 135.172 109.75 134.664C104.527 134.072 106.442 134.411 103.743 136.019C101.132 137.627 95.9087 139.743 91.3822 137.712L105.31 129.416Z" fill="#F14117"/>
<path d="M84.07 130.093C84.07 130.093 87.9872 126.369 84.4182 121.29C80.8492 116.126 81.5456 112.74 86.3332 111.47C91.208 110.116 93.2101 108.253 93.036 104.783C92.7749 101.312 93.8194 99.8731 96.1698 98.6033C98.433 97.3336 93.5583 103.174 95.0381 107.153C95.3863 108.169 96.0827 104.021 101.132 101.481C104.004 100.127 104.701 100.212 105.397 98.7726C106.093 97.4182 104.352 100.466 105.397 102.497C106.442 104.529 103.743 107.068 103.743 107.068C103.743 107.068 106.616 105.968 107.399 104.275C108.183 102.582 106.442 106.137 106.79 108.423C107.138 110.624 110.011 116.973 105.136 119.935L84.07 130.093Z" fill="#FF9862"/>
<path d="M85.4629 132.633C85.4629 132.633 88.2485 129.839 87.9003 126.284C87.5521 122.729 86.1593 116.295 90.5117 113.84C94.8642 111.385 94.7771 110.37 94.7771 110.37C94.7771 110.37 91.6434 115.787 92.6009 118.073C93.5584 120.443 93.6455 114.941 95.1253 114.348C96.6051 113.756 96.0829 115.449 95.9088 116.888C95.8217 118.327 95.4735 116.549 98.5202 115.533C101.654 114.518 97.9109 116.549 97.9109 118.919C97.9979 121.374 97.7368 128.4 85.4629 132.633Z" fill="#F14117"/>
<path d="M108.705 116.295C107.834 115.956 106.964 115.702 106.093 115.618C104.178 115.364 100.522 114.941 99.3907 116.972C97.7368 119.766 93.3843 131.194 86.8557 136.103C80.7622 140.844 88.2484 141.69 96.1699 138.643C101.132 136.78 105.832 133.987 109.924 130.686C113.231 127.977 116.104 123.829 113.231 119.681C112.187 118.242 110.533 117.057 108.705 116.295Z" fill="url(#paint0_linear_2003_14884)"/>
<path d="M113.231 119.766C112.187 118.242 110.533 117.057 108.705 116.38C107.834 116.041 106.964 115.787 106.093 115.703C104.178 115.449 100.522 115.026 99.3907 117.057C97.7368 119.851 93.3843 131.278 86.8557 136.188C80.7622 140.929 88.2484 141.775 96.1699 138.728C101.132 136.865 105.832 134.072 109.924 130.771C113.231 127.977 116.104 123.829 113.231 119.766ZM89.8153 139.066C85.1147 139.574 85.5499 138.051 88.5966 135.511C94.8641 130.347 99.4777 119.173 99.4777 119.173C100.087 117.988 100.522 116.973 101.915 117.819C104.004 118.75 107.747 117.988 106.442 120.189C103.395 123.999 106.616 124.252 110.359 120.951C110.533 124.168 112.274 122.221 112.361 123.745C111.926 131.871 94.4289 138.558 89.8153 139.066Z" fill="url(#paint1_linear_2003_14884)"/>
<path d="M114.973 101.482C114.973 101.482 114.885 114.01 110.011 115.195C108.357 115.449 105.31 112.148 105.919 108.677C106.442 105.545 102.786 110.709 105.136 113.248C105.136 113.248 100.958 111.386 97.8239 113.079C96.5182 113.671 102.612 112.571 106.006 114.602C106.877 115.11 103.656 116.042 101.306 116.042C98.9555 116.042 105.571 117.904 109.75 116.465C110.533 115.957 106.006 121.036 106.442 121.628C106.877 122.221 110.62 117.565 110.62 117.565C110.62 117.565 110.446 120.105 111.665 121.375C112.883 122.644 111.491 117.481 111.491 117.481C111.491 117.481 114.102 121.713 113.232 124.93C112.361 128.231 117.758 120.105 111.752 116.295C111.752 116.295 116.975 110.962 116.975 102.751C116.888 100.974 115.147 100.466 114.973 101.482Z" fill="#36A224"/>
<path d="M100.522 120.189C100.522 120.189 98.4331 123.829 96.1698 127.3C93.9936 130.771 98.0849 127.131 100.174 123.829C102.35 120.528 101.741 118.919 100.522 120.189Z" fill="#F34740"/>
<path d="M93.9068 130.178C93.9068 130.178 91.3818 132.21 92.862 132.802C94.3421 133.395 95.9093 128.654 93.9068 130.178Z" fill="#F34740"/>
<path d="M115.321 102.158C115.321 102.158 114.885 101.397 115.756 101.481C116.626 101.566 116.539 103.174 116.191 104.275C115.93 105.375 114.537 113.84 110.794 115.449C110.011 115.787 111.142 116.041 112.013 116.718C112.883 117.48 111.49 117.142 111.142 116.803C110.794 116.464 111.578 117.903 111.229 117.903C110.881 117.988 110.446 116.38 110.446 116.38C110.446 116.38 110.446 117.057 109.837 117.311C109.227 117.565 110.881 115.787 109.662 115.787C108.444 115.787 105.484 116.634 104.962 115.787C104.962 115.787 107.921 115.364 106.529 114.517C105.049 113.671 104.875 113.078 106.006 113.417C107.138 113.756 104.875 112.147 105.049 111.047C105.31 109.862 106.964 116.464 110.098 115.279C111.229 114.856 114.711 113.586 115.321 102.158Z" fill="#39BC18"/>
<path d="M115.669 102.921C115.669 102.921 115.669 103.937 115.234 106.307C114.711 108.592 116.975 102.921 115.669 102.921Z" fill="#68E349"/>
<path d="M108.531 115.28C108.531 115.28 107.574 114.602 107.225 114.094C106.877 113.586 106.703 114.01 107.312 114.687C107.922 115.365 107.225 115.534 106.442 115.788C105.658 115.958 108.531 116.127 108.531 115.28Z" fill="#68E349"/>
<g opacity="0.8" style="mix-blend-mode:soft-light">
<path d="M78.0636 84.0434C98.433 82.8582 103.83 81.9271 111.142 84.2973C117.323 86.2443 133.949 84.7206 131.25 80.4034C128.987 78.2871 126.028 77.356 123.068 77.5253C116.278 78.0332 98.1719 80.5727 85.811 77.2713C79.9787 75.7476 73.0148 74.9011 67.2696 77.102C66.9214 77.2713 66.5732 77.4406 66.312 77.6099C65.0063 78.4564 64.2228 79.9801 63.7876 81.6731C65.2674 83.2815 69.1846 84.5513 78.0636 84.0434Z" fill="#FFC195"/>
</g>
<path d="M83.2867 41.8872C81.8939 41.8872 81.8939 44.596 81.8939 48.9132C81.8939 53.823 80.8494 61.8648 92.775 63.5578C93.7326 63.7271 94.3419 63.7271 94.6901 63.7271C96.6922 63.7271 87.7262 61.0183 86.8557 55.4313C85.3759 45.7811 89.8154 44.2574 96.1699 44.2574C97.0404 44.2574 97.9109 44.2574 98.7814 44.3421C98.7814 44.3421 92.0787 44.0035 83.8961 41.9719C83.722 41.9719 83.5479 41.8872 83.2867 41.8872Z" fill="#CFEDFB"/>
<g opacity="0.4" style="mix-blend-mode:overlay">
<path d="M98.6072 180.715C91.034 180.715 82.5032 179.868 74.0594 177.159C74.0594 177.159 86.7686 178.852 102.176 178.852C109.401 178.852 117.149 178.514 124.548 177.413C124.461 177.329 113.318 180.715 98.6072 180.715ZM65.9639 74.3933C64.0488 70.4994 69.707 66.4362 72.3185 63.8966C75.4522 60.8492 80.1529 56.786 80.1529 52.0455C80.1529 46.0353 80.5011 39.6019 80.5011 39.6019C80.5011 39.6019 88.7707 42.9033 102.176 42.9033C105.919 42.9033 110.098 42.6493 114.537 41.9721C114.711 41.9721 114.972 41.8875 115.146 41.8875C118.454 41.8875 117.758 47.3051 117.497 56.3627C117.323 62.119 108.705 65.8436 99.5648 65.8436C93.5584 65.8436 87.2909 64.2352 83.0255 60.5953C82.4161 60.172 81.9809 60.0027 81.8068 60.0027C81.1975 60.0027 82.8514 62.0343 86.2463 64.1506C89.6412 66.1822 94.69 68.2985 101.045 68.2985C106.442 68.2985 112.709 66.7748 119.499 62.5422C119.934 62.2883 120.369 62.119 120.892 62.119C125.941 62.119 134.907 73.2082 131.686 77.0175C130.989 77.864 130.206 78.3719 129.335 78.8798C133.34 81.1654 136.299 86.1598 136.212 93.7783C135.951 104.868 136.212 147.193 136.212 161.584C136.212 162.684 136.125 163.615 135.951 164.631C135.951 164.631 135.951 164.631 135.951 164.716C135.951 167.509 134.82 169.541 132.817 171.149C128.117 176.059 118.803 177.244 106.79 177.244C105.049 177.244 103.221 177.244 101.393 177.159C86.5945 176.821 72.6667 176.821 66.138 171.996C63.0042 169.795 61.0892 166.578 61.0892 161.837C61.0892 145.5 61.0892 129.162 61.0892 112.825C61.0892 107.153 61.0892 101.397 61.0892 95.7253C61.0892 93.1858 60.5669 90.3923 61.6115 88.0221C61.8726 87.4295 62.2208 86.9216 62.6561 86.4137C62.7431 82.1812 63.8747 78.1179 65.9639 74.3933ZM78.7601 37.8242V49.76C78.7601 51.199 77.5414 54.9237 71.3609 61.5264C65.0934 68.0445 59 75.5784 59 85.3133C59 95.0481 59 126.2 59 140.252C59 154.304 59 152.357 59 160.991C59 169.541 61.7856 183 86.4204 183H113.58C138.127 183 141 169.625 141 161.076C141 169.033 138.563 181.053 118.628 182.746C140.13 177.413 138.824 165.477 138.824 156.42C138.824 150.24 138.476 99.1113 138.824 87.5142C139.172 75.917 131.599 66.0129 127.943 62.9655C124.287 59.918 119.673 55.4316 119.673 48.9981C119.673 43.1572 119.412 40.533 116.365 40.533C116.104 40.533 115.843 40.533 115.495 40.6177C109.924 41.5488 104.875 41.9721 100.435 41.9721C90.0764 41.9721 82.6773 39.9405 78.8471 38.5861V37.8242H78.7601Z" fill="#E2F1FF"/>
</g>
<path d="M132.643 171.064C127.682 174.958 117.584 175.72 106.268 175.72C101.045 175.72 94.3419 176.228 87.7262 176.228C79.3695 176.228 71.1869 175.466 66.1381 171.91C72.5797 176.82 86.5075 176.736 101.393 177.074C103.221 177.159 105.049 177.159 106.79 177.159C118.629 177.159 127.943 175.974 132.643 171.064ZM129.161 78.8794C129.858 79.3026 130.554 79.8106 131.251 80.3185C131.947 81.4189 131.425 82.3501 130.119 83.0273C131.076 83.4505 131.773 83.8738 132.121 84.1277C134.21 85.7361 135.429 88.2756 135.864 90.8151C135.864 93.6933 135.864 96.656 135.864 99.8728C135.864 112.147 135.864 154.811 135.864 164.461C136.038 163.53 136.125 162.514 136.125 161.414C136.125 147.023 135.864 104.698 136.125 93.6086C136.212 86.244 133.253 81.165 129.161 78.8794Z" fill="#97642B"/>
<path d="M74.0595 79.218C73.3631 79.8106 72.7537 80.5724 72.2314 81.2496C73.5372 80.7417 74.8429 80.2338 76.1486 79.6413C75.3652 79.5566 74.7559 79.3873 74.0595 79.218ZM129.161 78.8794C127.42 79.8106 125.418 80.3185 123.677 81.2496C123.851 81.165 124.026 81.165 124.287 81.165C125.592 81.165 128.204 82.1808 130.119 83.1119C131.425 82.3501 131.947 81.5036 131.251 80.4031C130.641 79.8106 129.945 79.3026 129.161 78.8794Z" fill="#98712B"/>
<path d="M73.9724 177.159C82.4161 179.783 90.9469 180.715 98.5202 180.715C113.231 180.715 124.374 177.413 124.374 177.413C117.062 178.514 109.227 178.852 102.002 178.852C86.6815 178.768 73.9724 177.159 73.9724 177.159Z" fill="#97D8EC"/>
<path d="M63.0042 85.8212C62.8301 85.9905 62.656 86.1598 62.4819 86.3291C62.4819 86.837 62.4819 87.2602 62.4819 87.7681C62.4819 89.3765 62.4819 91.8314 62.4819 94.8788C62.569 93.3551 62.656 91.7467 62.7431 90.223C62.8301 89.0379 62.9172 87.4295 63.0042 85.8212ZM79.1083 62.2036C72.9278 65.5896 68.6624 69.7375 66.0509 74.3933C66.225 74.7319 66.4862 75.1552 66.8344 75.4938C67.2696 76.0017 67.7919 76.4249 68.3142 76.8482C70.5775 76.171 73.0148 75.8324 75.4522 75.8324C76.4968 75.8324 77.6284 75.917 78.673 76.0017C88.5095 70.6687 101.567 71.6845 95.9957 70.0761C82.5032 67.6213 79.1083 62.2036 79.1083 62.2036Z" fill="#CFEDFB"/>
<path d="M66.9215 83.3664C65.5287 84.0436 64.136 84.8055 63.0043 85.8213C62.8302 87.4297 62.8302 89.038 62.7432 90.2231C62.6561 91.7468 62.5691 93.3552 62.482 94.8789C62.5691 110.116 62.6561 140.421 62.482 158.536C62.3079 171.657 76.758 174.281 86.4205 174.281C92.775 174.281 97.0404 173.181 93.8196 173.012C82.5033 172.588 68.9236 170.133 68.9236 154.219C68.9236 138.305 68.9236 114.349 68.9236 91.4929C68.9236 88.5301 69.533 86.0753 70.4905 83.8743C69.0977 83.8743 67.9661 83.6204 66.9215 83.3664Z" fill="#F7AA82"/>
<path d="M72.1443 81.3348C70.5774 81.9274 69.0106 82.4353 67.5307 83.1125C67.3566 83.1971 67.0955 83.2818 66.9214 83.3664C67.8789 83.6204 69.0976 83.8743 70.4904 83.959C71.0127 83.0278 71.535 82.0967 72.1443 81.3348ZM75.3651 75.8325C72.9278 75.8325 70.4904 76.0865 68.2271 76.8483C69.881 78.0334 71.9702 78.7106 73.9723 79.3032C75.3651 78.0334 76.845 76.933 78.4989 76.0018C77.5413 75.9172 76.4097 75.8325 75.3651 75.8325Z" fill="#F8B382"/>
<path d="M65.9639 74.3936C63.7877 78.1182 62.7431 82.1814 62.4819 86.3293C62.656 86.16 62.8301 85.9907 63.0042 85.8214C63.2654 82.774 63.8747 79.4726 65.9639 77.8642C66.225 77.6949 66.5732 77.5256 66.9214 77.3563C67.0085 77.3563 67.0085 77.3563 67.0955 77.2717C67.3567 77.187 67.7049 77.1024 67.966 76.9331C67.4437 76.5098 66.9214 76.0866 66.4862 75.5787C66.3991 75.1554 66.138 74.7322 65.9639 74.3936Z" fill="#A7DDEE"/>
<path d="M65.9644 77.8639C63.8748 79.4723 63.2654 82.7736 63.0042 85.8211C64.136 84.8053 65.5291 84.0434 66.9222 83.3662C65.355 82.9429 64.3102 82.3504 63.7007 81.6732C64.136 80.1495 64.8326 78.7951 65.9644 77.8639ZM67.3575 77.1021C67.2705 77.1021 67.2704 77.102 67.1834 77.1867C67.2704 77.1867 67.3575 77.1021 67.3575 77.1021Z" fill="#C1A280"/>
<path d="M68.2273 76.8481C67.9662 76.9328 67.618 77.0174 67.3568 77.1867C67.2698 77.1867 67.2698 77.1867 67.1827 77.2714C66.8345 77.4407 66.4863 77.61 66.2252 77.7793C65.0935 78.7105 64.3972 80.0649 63.9619 81.5886C64.5713 82.2658 65.6158 82.8583 67.1827 83.2816C67.3568 83.1969 67.618 83.1123 67.7921 83.0276C69.2719 82.3504 70.8388 81.8425 72.4057 81.25C72.9279 80.4881 73.6243 79.8109 74.2337 79.2184C72.0575 78.7105 69.9683 77.9486 68.2273 76.8481Z" fill="#C1AA80"/>
<path d="M76.5839 65.3359C76.5839 65.3359 67.1826 71.3461 65.7898 80.3191C65.0934 83.4512 72.9278 68.468 84.4183 69.9917C84.4183 70.0764 77.7155 67.6215 76.5839 65.3359Z" fill="white"/>
<path d="M64.136 87.3449C64.136 87.3449 64.136 140.167 64.136 147.616C64.136 154.981 65.9644 79.3031 64.136 87.3449Z" fill="white"/>
<path d="M121.153 37.8242C117.584 39.7712 109.401 41.0409 99.913 41.0409C90.4247 41.0409 82.2421 39.6865 78.6731 37.8242V38.6707C82.5032 40.0251 89.9024 42.0568 100.261 42.0568C104.701 42.0568 109.75 41.7181 115.321 40.7023C115.669 40.7023 115.93 40.6177 116.191 40.6177C119.151 40.6177 119.499 43.2419 119.499 49.0828C119.499 55.4316 124.2 60.0027 127.769 63.0501C131.425 66.0975 138.998 76.0017 138.65 87.5988C138.302 99.196 138.65 150.24 138.65 156.504C138.65 165.562 139.955 177.498 118.454 182.831C138.389 181.138 140.826 169.117 140.826 161.16V161.076C140.826 152.526 140.826 154.388 140.826 140.336C140.826 126.284 140.826 95.1327 140.826 85.3979C140.826 75.6631 134.733 68.1292 128.465 61.5264C122.285 54.9237 121.066 51.199 121.066 49.76V37.8242H121.153Z" fill="#9CC7E7"/>
<path d="M76.7581 29.7822V35.6231C76.7581 38.5859 87.1169 41.0408 99.913 41.0408C112.709 41.0408 123.068 38.5859 123.068 35.6231V29.7822H76.7581Z" fill="#FFF9D0"/>
<path d="M100.784 40.0252C100.348 40.0252 100 40.0252 99.5648 40.0252C86.3334 39.7712 78.0638 37.5703 78.1508 34.7768C78.1508 34.7768 86.3334 37.4856 99.2167 37.4856C105.223 37.4856 112.274 36.8931 120.021 35.2001C120.108 35.2001 120.195 35.1154 120.195 35.1154C120.631 35.1154 119.934 36.3005 117.149 37.5703C114.276 38.8401 109.227 40.0252 100.784 40.0252ZM76.7581 33.1685V35.6233C76.7581 38.5861 87.1169 41.041 99.913 41.041C112.709 41.041 123.068 38.5861 123.068 35.6233V33.2531C118.367 35.1154 109.75 36.3852 99.913 36.3852C90.0765 36.3005 81.4587 35.0308 76.7581 33.1685Z" fill="#EEE381"/>
<path d="M73.1021 23.2637V29.9511C73.1021 33.4218 85.1148 36.2152 100 36.2152C114.798 36.2152 126.898 33.4218 126.898 29.9511V23.2637H73.1021Z" fill="#F0D36C"/>
<path d="M97.3015 35.1994C74.0595 35.1994 73.5372 29.8664 74.2336 26.1418C74.2336 26.1418 81.1975 30.7976 97.4756 30.7976C104.178 30.7976 112.535 30.0357 122.633 27.7502C123.503 27.4962 124.113 27.4116 124.548 27.4116C125.244 27.4116 125.592 27.6655 125.592 28.3427C125.592 29.4432 122.72 35.0301 98.5202 35.1994C98.085 35.1994 97.6497 35.1994 97.3015 35.1994ZM126.811 23.2637C126.811 26.7343 114.798 29.5278 99.913 29.5278C85.1147 29.5278 73.0149 26.7343 73.0149 23.2637V29.9511C73.0149 33.4218 85.0276 36.2152 99.913 36.2152C114.711 36.2152 126.811 33.4218 126.811 29.9511V23.2637Z" fill="#FFF4CD"/>
<path d="M126.811 23.2642C126.811 26.7348 114.798 29.5283 99.9129 29.5283C85.1146 29.5283 73.0148 26.7348 73.0148 23.2642C73.1018 19.7935 85.1146 17 99.9999 17C114.798 17 126.811 19.7935 126.811 23.2642Z" fill="#FFEF78"/>
<path d="M100 28.5971C87.552 28.5971 77.4544 26.2269 77.4544 23.2642C77.4544 20.3014 87.552 17.9312 100 17.9312C112.448 18.0158 122.546 20.386 122.546 23.2642C122.546 26.2269 112.448 28.5971 100 28.5971ZM100 17C85.1147 17 73.1019 19.7935 73.1019 23.2642C73.1019 26.7348 85.1147 29.5283 100 29.5283C114.798 29.5283 126.898 26.7348 126.898 23.2642C126.811 19.7935 114.798 17 100 17Z" fill="#FFE484"/>
<path d="M75.7133 28.0894C75.4522 29.0205 75.3651 30.7135 82.329 32.4912C85.6369 33.3377 88.6836 33.5917 91.2951 33.5917C97.3885 33.5917 100.609 31.9833 96.1698 31.7293C80.9363 31.4754 75.7133 28.0894 75.7133 28.0894Z" fill="#FFF8E4"/>
<path d="M82.9385 45.5272C82.9385 45.5272 82.2419 50.2677 82.9385 54.7541C83.635 59.3253 83.635 40.8714 82.9385 45.5272Z" fill="white"/>
<path d="M88.2484 159.806C90.5117 160.314 93.0361 160.737 95.7346 160.906C93.0361 160.737 90.5987 160.398 88.2484 159.806ZM125.679 154.134C122.372 155.912 119.238 157.266 116.104 158.367C119.238 157.266 122.459 155.912 125.679 154.134Z" fill="#D36123"/>
<path d="M98.4331 86.6675C94.603 86.6675 90.5987 87.26 86.5074 88.7837C89.1189 88.1065 92.6009 87.514 96.6922 87.514C104.265 87.514 114.102 89.5456 124.635 97.0795V152.864C124.635 152.864 116.626 160.483 98.259 160.483C95.2123 160.483 91.8174 160.314 88.2484 159.806C90.5117 160.314 93.0361 160.737 95.7346 160.906C95.7346 160.906 95.7346 160.906 95.8217 160.906C95.8217 160.906 95.8217 160.906 95.9087 160.906C96.9533 160.991 98.0849 160.991 99.1295 160.991C104.178 160.991 109.749 160.229 115.756 158.197C118.803 157.181 122.023 155.742 125.331 153.965V96.487C125.592 96.4023 113.667 86.6675 98.4331 86.6675Z" fill="#EFCF5C"/>
<path d="M82.6772 154.389C86.4203 156.082 91.9044 157.69 98.5201 157.69C99.2165 157.69 99.9129 157.69 100.696 157.605C100.348 157.605 100 157.605 99.6518 157.605C92.5138 157.605 86.6815 155.997 82.6772 154.389Z" fill="#D4C799"/>
<path d="M76.6709 99.1113V151.002C76.6709 151.002 78.8471 152.695 82.6773 154.473C86.6815 156.081 92.5138 157.69 99.5647 157.69C99.9129 157.69 100.261 157.69 100.609 157.69C100.958 157.69 101.306 157.605 101.741 157.605C101.741 157.605 85.6369 157.605 77.4543 150.41L76.6709 99.1113Z" fill="#FADE64"/>
<defs>
<linearGradient id="paint0_linear_2003_14884" x1="105.645" y1="117.102" x2="91.9999" y2="140.119" gradientUnits="userSpaceOnUse">
<stop stop-color="#FC554F"/>
<stop offset="0.355005" stop-color="#E72F28"/>
<stop offset="1" stop-color="#CF1912"/>
</linearGradient>
<linearGradient id="paint1_linear_2003_14884" x1="99.5179" y1="115.484" x2="88.5432" y2="141.111" gradientUnits="userSpaceOnUse">
<stop stop-color="#FD4E47"/>
<stop offset="1" stop-color="#B9140E"/>
</linearGradient>
</defs>
</svg>
