<svg width="200" height="200" viewBox="0 0 200 200" fill="none" xmlns="http://www.w3.org/2000/svg">
<path fill-rule="evenodd" clip-rule="evenodd" d="M68.9515 49.0102C68.9515 49.1632 68.8003 49.1632 68.8003 49.3161C68.8003 49.3161 68.9515 49.1632 68.9515 49.0102ZM68.8003 49.4691C69.859 50.3867 73.3373 51.4573 81.9577 52.5278C93.9052 54.0572 111.146 54.0572 123.093 52.5278C132.016 51.4573 135.495 50.2338 136.402 49.3161C140.637 55.5866 148.954 62.0101 148.803 80.3627C148.803 86.3274 148.803 103.762 146.232 134.35C144.871 148.421 123.698 155.303 102.526 155.15C81.3528 155.303 60.18 148.574 58.9701 134.503C56.3991 103.915 56.3991 86.3274 56.3991 80.5157C56.2479 62.0101 64.4145 55.7396 68.8003 49.4691ZM135.797 48.5514L135.646 48.3985C135.646 48.3985 135.646 48.3985 135.797 48.5514ZM135.495 48.0926C135.495 47.9397 135.343 47.9397 135.343 47.7867C135.343 47.9397 135.495 48.0926 135.495 48.0926ZM135.343 47.7867C135.343 47.6338 135.192 47.6338 135.192 47.4809C135.192 47.6338 135.192 47.6338 135.343 47.7867ZM135.041 47.3279C135.041 47.175 134.89 47.175 134.89 47.022C135.041 47.175 135.041 47.3279 135.041 47.3279ZM134.89 47.022C134.89 46.8691 134.738 46.8691 134.738 46.7162C134.738 46.7162 134.89 46.8691 134.89 47.022ZM134.738 46.5632C134.738 46.4103 134.587 46.2573 134.587 46.2573C134.587 46.4103 134.587 46.4103 134.738 46.5632ZM134.587 46.1044C134.587 45.9515 134.436 45.7985 134.436 45.7985C134.436 45.9515 134.436 46.1044 134.587 46.1044ZM134.436 45.7985C134.436 45.6456 134.285 45.4926 134.285 45.4926C134.285 45.4926 134.285 45.6456 134.436 45.7985ZM134.285 45.3397C134.285 45.1868 134.134 45.0338 134.134 44.8809C134.134 45.0338 134.133 45.1868 134.285 45.3397ZM134.134 44.8809C134.134 44.728 134.133 44.575 133.982 44.4221C133.982 44.728 134.134 44.728 134.134 44.8809ZM133.982 44.1162C133.982 43.9633 133.982 43.8103 133.982 43.6574C133.831 43.8103 133.831 43.9633 133.982 44.1162Z" fill="#9D934D"/>
<path fill-rule="evenodd" clip-rule="evenodd" d="M129.294 101.011C129.294 101.011 129.899 105.293 133.831 106.976C140.788 109.882 149.862 100.552 148.047 91.376C146.686 84.6467 142.149 79.1408 136.704 78.835C130.05 78.5291 126.572 84.7996 127.63 91.223C128.689 97.4935 129.294 101.011 129.294 101.011Z" fill="#805400"/>
<path fill-rule="evenodd" clip-rule="evenodd" d="M129.294 101.011C129.294 101.011 129.899 105.293 133.831 106.976C137.158 108.352 140.939 106.976 143.813 104.223C140.637 106.976 137.158 106.517 136.553 103.917C135.948 101.47 139.276 95.0465 138.973 91.376C138.671 87.7054 137.612 84.0349 141.393 83.882C145.022 83.729 146.837 86.9407 146.837 87.0937C144.72 82.5055 141.09 79.1408 136.856 78.835C130.202 78.5291 126.723 84.7996 127.782 91.223C128.689 97.4935 129.294 101.011 129.294 101.011Z" fill="#744A00"/>
<path fill-rule="evenodd" clip-rule="evenodd" d="M129.294 101.011C129.294 101.011 129.899 105.293 133.831 106.975C136.251 108.046 138.973 107.587 141.393 106.058C134.134 108.352 134.89 104.528 135.948 99.1753C136.251 97.34 136.251 95.3518 136.1 93.6695C135.495 87.399 128.84 81.2814 134.587 80.0579C140.032 78.8344 144.266 83.1167 144.418 83.2696C142.3 80.6696 139.729 79.1403 136.856 78.9873C130.202 78.6814 126.723 84.9519 127.782 91.3754C128.689 97.4929 129.294 101.011 129.294 101.011Z" fill="#603B00"/>
<path fill-rule="evenodd" clip-rule="evenodd" d="M129.294 101.011C129.294 101.011 129.445 102.54 130.504 104.07C136.704 105.752 134.436 88.6227 131.714 86.1757C128.991 83.8816 127.782 86.7875 127.782 86.9404C127.479 88.3169 127.479 89.8463 127.782 91.2227C128.689 97.4932 129.294 101.011 129.294 101.011Z" fill="#3E2400"/>
<path fill-rule="evenodd" clip-rule="evenodd" d="M132.621 87.8578C132.621 87.8578 127.933 89.0813 125.211 89.3872C122.488 89.693 119.01 90.3048 118.405 90.6107C117.8 90.9166 117.8 94.893 117.649 95.9635C117.498 97.0341 118.556 101.469 119.766 102.081C120.976 102.846 124.001 102.387 125.513 102.081C127.177 101.928 131.411 101.469 133.982 101.163C135.041 98.1047 134.133 91.2224 132.621 87.7048C132.772 87.8578 132.621 87.8578 132.621 87.8578Z" fill="#E7BA78"/>
<path fill-rule="evenodd" clip-rule="evenodd" d="M122.64 89.6941C120.674 90 118.708 90.3059 118.405 90.6117C117.8 90.9176 117.8 94.894 117.649 95.9646C117.498 97.0352 118.556 101.47 119.766 102.082C120.522 102.541 122.035 102.541 123.396 102.388C123.396 102.388 120.825 102.235 120.069 100.553C119.312 98.7175 118.405 97.1881 118.859 96.5763C119.161 95.9646 119.917 96.2705 120.674 95.5058C121.581 94.7411 124.303 93.8234 124.606 93.2117C125.059 92.5999 121.43 93.6705 120.976 92.9058C120.522 92.1411 120.069 90.4588 122.64 89.6941Z" fill="#CDA163"/>
<path fill-rule="evenodd" clip-rule="evenodd" d="M132.621 87.8586C132.621 87.8586 127.933 89.0822 125.211 89.388C124.152 89.541 123.093 89.6939 122.035 89.8469C123.396 89.6939 127.782 89.2351 129.748 92.2939C132.016 95.8115 131.26 95.6585 130.504 97.6467C129.748 99.3291 128.84 101.623 126.118 102.235C127.933 102.082 131.865 101.623 134.134 101.317C135.192 98.2585 134.285 91.3762 132.772 87.8586H132.621ZM123.85 102.388C124.152 102.388 124.455 102.388 124.606 102.235C124.303 102.235 124.001 102.388 123.85 102.388Z" fill="#CDA163"/>
<path fill-rule="evenodd" clip-rule="evenodd" d="M132.621 87.8578C132.621 87.8578 130.504 88.4695 128.235 88.7754C128.235 88.7754 131.26 88.7754 132.621 92.1401C133.982 95.5047 133.377 96.5753 133.377 97.7988C133.377 99.0223 133.075 101.316 131.562 101.469C132.47 101.316 133.377 101.316 134.133 101.163C135.192 98.1047 134.285 91.2224 132.772 87.7048C132.772 87.8578 132.621 87.8578 132.621 87.8578Z" fill="#B78E50"/>
<path fill-rule="evenodd" clip-rule="evenodd" d="M123.396 90.3049C124.757 90.4579 126.723 90.4579 127.781 91.6814C128.991 92.9049 130.201 93.6696 130.201 94.7402C130.201 95.6578 129.899 96.8813 128.235 98.4107C126.572 99.9401 125.362 100.705 123.396 100.246C121.278 99.6342 119.615 97.9519 120.371 96.8813C121.127 95.8107 122.035 95.5049 123.244 94.8931C124.454 94.2813 125.513 94.2813 125.664 93.2108C125.815 92.1402 124.303 91.0696 123.244 91.3755C122.186 91.6814 121.732 90.7637 123.396 90.3049Z" fill="#F2C585"/>
<path fill-rule="evenodd" clip-rule="evenodd" d="M146.535 88.1649C147.14 89.3885 148.501 93.5178 147.14 97.8001C145.778 102.082 142.149 105.6 139.275 104.988C136.553 104.376 138.822 101.624 140.485 98.5648C142.3 95.506 143.359 89.6943 142.603 87.7061C141.998 85.7179 144.72 85.1062 146.535 88.1649Z" fill="#9C6700"/>
<path fill-rule="evenodd" clip-rule="evenodd" d="M147.291 94.2815C147.14 92.905 147.14 91.8345 146.232 91.8345C145.476 91.8345 145.476 94.4344 145.022 96.4226C144.569 98.4109 143.661 100.246 143.359 100.705C143.207 101.164 147.291 101.011 147.291 94.2815Z" fill="#BA8325"/>
<g style="mix-blend-mode:overlay">
<path opacity="0.5" d="M102.072 153.163C117.607 153.163 130.201 149.945 130.201 145.975C130.201 142.005 117.607 138.787 102.072 138.787C86.5363 138.787 73.9423 142.005 73.9423 145.975C73.9423 149.945 86.5363 153.163 102.072 153.163Z" fill="#B2B1B2"/>
<path fill-rule="evenodd" clip-rule="evenodd" d="M79.2354 142.764C79.2354 142.764 90.2755 139.552 103.584 140.011C116.893 140.47 126.42 142.305 126.42 142.305C126.42 142.305 100.257 134.505 79.2354 142.764Z" fill="#B2B1B2"/>
<path fill-rule="evenodd" clip-rule="evenodd" d="M83.0162 150.87C83.3186 150.258 84.0748 149.187 85.2847 149.187C86.4946 149.187 97.8371 150.87 101.467 150.717C105.096 150.564 116.136 149.493 117.951 148.882C119.766 148.117 120.976 148.423 121.43 149.035C121.883 149.646 121.883 150.717 121.581 150.87C121.278 151.023 99.1982 157.293 83.0162 150.87Z" fill="#959696"/>
</g>
<path opacity="0.5" fill-rule="evenodd" clip-rule="evenodd" d="M71.2199 42.7406C70.9175 52.8346 56.0965 56.0463 56.399 80.3636C56.399 86.3282 56.399 103.763 58.97 134.351C60.1798 148.269 80.8989 154.998 101.769 154.998C101.769 154.692 101.769 154.539 101.618 154.233C101.618 154.233 77.1181 153.927 68.3465 145.821C59.5749 137.716 61.2385 130.375 60.3311 124.41C59.5749 118.445 58.365 81.4342 60.3311 71.1872C62.2971 61.0933 70.1613 54.9757 72.2786 48.8581C73.186 46.2582 73.6397 44.117 73.7909 42.5876H71.2199V42.7406ZM102.374 155.151C123.698 155.304 144.871 148.421 146.081 134.351C148.652 103.763 148.652 86.1753 148.652 80.3636C148.803 55.8933 134.133 52.6816 133.831 42.7406H130.201C130.353 44.27 130.806 46.2582 131.714 49.0111C133.831 55.2816 141.695 61.2462 143.661 71.3402C145.627 81.4342 144.417 118.598 143.661 124.563C142.905 130.528 144.417 137.869 135.646 145.974C126.874 154.08 102.374 154.386 102.374 154.386C102.374 154.692 102.374 154.845 102.374 155.151Z" fill="#CBCBCB"/>
<path opacity="0.5" fill-rule="evenodd" clip-rule="evenodd" d="M71.22 42.4353C71.0687 44.8823 70.1613 47.1764 68.649 49.3176C69.7076 50.2352 73.186 51.3058 81.8064 52.3763C93.7539 53.9057 110.995 53.9057 122.942 52.3763C131.865 51.3058 135.343 50.0823 136.251 49.1646C134.89 47.1764 133.831 45.0353 133.831 42.5882H106.609H98.4421L71.22 42.4353Z" fill="#CBCBCB"/>
<path fill-rule="evenodd" clip-rule="evenodd" d="M71.2198 42.4353C71.2198 42.4353 73.9421 43.8118 75.6056 43.8118C77.2692 43.8118 108.121 43.8118 108.121 43.8118C108.121 43.8118 131.26 43.9647 132.47 43.3529C133.831 42.8941 134.133 42.4353 134.133 42.4353H71.2198Z" fill="#B8B7B8"/>
<path fill-rule="evenodd" clip-rule="evenodd" d="M71.2202 40.293H133.68V29.7402C133.68 28.3638 132.621 27.2932 131.26 27.2932H73.3374C72.1276 27.2932 71.2202 28.2108 71.2202 29.4344V40.293Z" fill="#B8B7B8"/>
<path fill-rule="evenodd" clip-rule="evenodd" d="M133.68 36.4693V35.7046C130.958 33.7164 111.6 30.0459 111.6 30.0459C111.6 30.0459 112.507 31.2694 114.624 32.0341C116.742 32.9517 131.411 37.5399 133.68 36.4693Z" fill="#959696"/>
<path fill-rule="evenodd" clip-rule="evenodd" d="M71.2202 34.1758C71.2202 34.1758 71.6739 35.5522 73.3374 35.8581C75.001 36.3169 93.6028 37.5404 93.6028 36.9287C93.6028 36.3169 71.2202 33.2581 71.2202 34.1758Z" fill="#A2A3A3"/>
<path fill-rule="evenodd" clip-rule="evenodd" d="M97.5349 27.7517C97.5349 27.7517 74.3961 28.2105 73.6399 28.2105C72.8837 28.2105 72.2788 29.1282 72.5813 31.1164C72.8837 33.1046 72.5813 36.3163 75.9084 36.7751C79.2356 37.2339 103.282 36.7751 103.282 37.2339C103.282 37.6927 96.93 38.4574 99.0472 38.6104C101.165 38.7633 109.029 38.3045 109.029 38.3045C109.029 38.3045 129.143 38.6104 130.353 37.6927C131.563 36.928 133.831 29.2811 130.353 28.5164C126.874 27.9046 97.5349 27.7517 97.5349 27.7517Z" fill="#CBCBCB"/>
<path fill-rule="evenodd" clip-rule="evenodd" d="M97.5349 27.7517C97.5349 27.7517 74.3961 28.2105 73.6399 28.2105C72.8837 28.2105 72.2788 29.1282 72.5813 31.1164C72.8837 33.1046 72.5813 36.3163 75.9084 36.7751C79.2356 37.2339 103.282 36.7751 103.282 37.2339C103.282 37.6927 96.93 38.4574 99.0472 38.6104C101.165 38.7633 109.029 38.3045 109.029 38.3045C109.029 38.3045 129.143 38.6104 130.353 37.6927C131.563 36.928 133.831 29.2811 130.353 28.5164C126.874 27.9046 97.5349 27.7517 97.5349 27.7517Z" fill="#CBCBCB"/>
<path fill-rule="evenodd" clip-rule="evenodd" d="M131.26 36.6231C131.411 36.1643 131.714 35.5526 131.865 34.9408C126.269 32.9526 111.751 30.1997 111.751 30.1997C111.751 30.1997 112.658 31.4232 114.775 32.1879C116.288 32.7997 126.269 35.8584 131.26 36.6231Z" fill="#B2B1B2"/>
<path fill-rule="evenodd" clip-rule="evenodd" d="M86.1921 32.0337C86.1921 32.0337 88.9144 33.869 94.2076 35.0925C99.5007 36.316 113.414 37.5395 116.439 37.2336C119.464 36.9277 120.522 35.8572 120.522 35.8572L86.1921 32.0337Z" fill="#B2B1B2"/>
<path fill-rule="evenodd" clip-rule="evenodd" d="M87.7045 31.729C87.7045 31.729 86.1921 31.729 86.1921 32.0349C86.1921 32.3408 95.4174 34.4819 101.164 35.2466C107.062 36.1642 120.522 37.0819 120.522 35.8584C120.371 34.7878 87.7045 31.729 87.7045 31.729Z" fill="#959696"/>
<path fill-rule="evenodd" clip-rule="evenodd" d="M73.0349 34.0232C73.1861 34.7879 73.4886 35.3996 73.9423 36.0114C77.7232 36.4702 93.6028 37.5408 93.6028 36.929C93.6028 36.4702 78.3281 34.3291 73.0349 34.0232Z" fill="#B2B1B2"/>
<path fill-rule="evenodd" clip-rule="evenodd" d="M70.6152 39.2219H133.529C134.436 39.2219 135.192 39.9866 135.192 40.9043C135.192 41.8219 134.436 42.5866 133.529 42.5866H70.6152C69.7078 42.5866 68.9517 41.8219 68.9517 40.9043C68.9517 39.9866 69.7078 39.2219 70.6152 39.2219Z" fill="#B2B1B2"/>
<path fill-rule="evenodd" clip-rule="evenodd" d="M70.3126 39.2219H73.0348C71.8249 39.2219 70.4638 39.5278 70.0101 40.1396C69.4052 41.3631 70.3126 41.8219 72.2786 41.9748C73.9422 41.9748 113.414 41.9748 127.782 41.9748C131.562 41.9748 133.982 41.6689 134.133 40.9043C134.133 40.2925 133.075 39.2219 130.655 39.2219H133.68C134.436 39.2219 135.041 39.9866 135.041 40.9043C135.041 41.8219 134.436 42.5866 133.68 42.5866H70.1613C69.4052 42.5866 68.8002 41.8219 68.8002 40.9043C68.9515 39.9866 69.5564 39.2219 70.3126 39.2219Z" fill="#7E7E7D"/>
<path fill-rule="evenodd" clip-rule="evenodd" d="M132.167 39.9869C132.167 42.8928 71.3712 40.9046 71.3712 39.9869C71.3712 39.0693 132.167 39.9869 132.167 39.9869Z" fill="#CBCBCB"/>
<g opacity="0.2" style="mix-blend-mode:overlay">
<path fill-rule="evenodd" clip-rule="evenodd" d="M87.402 39.9874C87.402 39.9874 124.757 39.8344 123.698 40.2932C119.615 42.1285 74.0934 40.2932 87.402 39.9874Z" fill="white"/>
</g>
<path fill-rule="evenodd" clip-rule="evenodd" d="M71.2198 31.269C71.2198 31.269 70.7661 31.269 70.4636 31.5749C70.1612 31.8808 70.0099 33.4102 70.7661 34.0219C71.5223 34.4808 92.6951 37.3866 93.4512 36.9278C94.3586 36.469 80.8988 32.7984 71.2198 31.269Z" fill="#B2B1B2"/>
<path fill-rule="evenodd" clip-rule="evenodd" d="M71.2198 31.269C71.2198 31.269 70.7661 31.269 70.4636 31.5749C70.1612 31.8808 70.0099 33.4102 70.7661 34.0219C71.5223 34.4808 92.6951 37.3866 93.4512 36.9278C93.6025 36.9278 93.4512 36.7748 93.1488 36.6219C92.9975 36.9278 92.8463 37.0807 92.8463 36.9278C92.8463 36.469 69.8587 34.0219 70.7661 32.0337C71.0686 31.269 72.2784 31.422 72.2784 31.422C71.976 31.269 71.6735 31.269 71.2198 31.269Z" fill="#959696"/>
<path fill-rule="evenodd" clip-rule="evenodd" d="M72.4298 31.729C71.9761 32.3408 72.581 32.6466 74.5471 33.1055C76.5131 33.5643 91.3341 36.776 91.4853 36.3172C91.6365 36.0113 77.1181 32.3408 72.4298 31.729Z" fill="#E5E5E5"/>
<path fill-rule="evenodd" clip-rule="evenodd" d="M86.1924 32.1866C86.0411 32.9513 119.01 36.9277 120.371 36.163C123.547 34.1748 86.6461 30.5042 86.1924 32.1866Z" fill="#B2B1B2"/>
<path fill-rule="evenodd" clip-rule="evenodd" d="M89.6707 31.8813C89.3682 31.8813 92.9978 32.646 95.2663 32.799C97.5348 33.1049 118.556 35.8578 118.859 35.3989C119.161 35.0931 99.8034 31.8813 89.6707 31.8813Z" fill="#E5E5E5"/>
<path fill-rule="evenodd" clip-rule="evenodd" d="M134.285 33.4105C134.285 33.4105 134.738 33.7164 134.89 34.0222C135.041 34.3281 134.89 36.0104 133.982 36.1634C133.075 36.3163 112.356 30.8105 111.6 30.0458C110.995 29.2811 124.908 31.1164 134.285 33.4105Z" fill="#B2B1B2"/>
<path fill-rule="evenodd" clip-rule="evenodd" d="M134.285 33.4112C134.285 33.4112 134.738 33.717 134.889 34.0229C135.041 34.3288 134.889 36.0111 133.982 36.1641C133.075 36.317 112.356 30.8112 111.599 30.0465C111.448 29.8936 111.599 29.8936 112.053 29.8936C112.053 30.1994 112.204 30.3524 112.356 30.1994C112.507 29.8936 134.889 36.6229 134.587 34.3288C134.436 33.5641 133.377 33.1053 133.226 33.1053C133.68 33.2582 133.982 33.4112 134.285 33.4112Z" fill="#959696"/>
<path fill-rule="evenodd" clip-rule="evenodd" d="M133.075 33.4104C133.377 34.1751 132.772 34.328 130.806 34.0221C128.84 33.7162 113.868 30.8104 113.868 30.3516C113.868 30.0457 128.538 32.1868 133.075 33.4104Z" fill="#E5E5E5"/>
<path fill-rule="evenodd" clip-rule="evenodd" d="M74.0935 31.1165C73.791 30.8107 73.3373 28.9754 75.4546 28.9754C77.5719 28.9754 127.177 28.8225 128.84 29.2813C130.504 29.7401 131.562 31.7283 130.958 32.0342C130.353 32.1871 111.6 29.1283 110.238 30.046C108.877 30.9636 116.288 33.2577 116.288 33.8694C116.288 34.4812 86.4947 30.1989 85.1336 31.1165C83.9237 32.0342 90.2755 34.4812 89.6706 35.093C89.3681 35.3988 74.0935 31.1165 74.0935 31.1165Z" fill="#E1E0E0"/>
<path fill-rule="evenodd" clip-rule="evenodd" d="M84.0751 29.1289C84.0751 29.1289 122.64 29.1289 125.211 29.2818C127.782 29.4348 129.748 29.5877 130.05 30.5054C130.504 31.2701 129.748 31.2701 129.143 31.1171C128.387 30.9642 123.547 29.8936 116.439 29.8936C109.18 29.8936 104.038 30.0465 104.643 30.1995C105.248 30.3524 110.995 31.423 109.18 32.0347C107.365 32.7994 84.0751 29.1289 84.0751 29.1289Z" fill="#F1F2F1"/>
<path fill-rule="evenodd" clip-rule="evenodd" d="M81.9576 47.1758C81.9576 47.1758 90.4268 47.7875 95.2663 47.6346C100.106 47.4817 127.782 47.3287 127.782 47.3287C127.782 47.3287 102.525 51.1522 81.9576 47.1758Z" fill="white"/>
<path fill-rule="evenodd" clip-rule="evenodd" d="M74.5472 44.1169C74.5472 44.1169 75.1521 45.7993 74.5472 47.1757C73.9423 48.5522 73.791 49.9286 75.3034 50.3874C76.8157 50.8463 85.5873 52.5286 96.1737 52.5286C106.911 52.5286 119.161 52.3756 121.884 51.458C124.757 50.5404 111.448 50.8463 103.887 50.6933C96.3249 50.5404 84.0749 50.0816 81.9577 48.7051C79.8404 47.3287 79.9916 46.564 85.7385 47.1757C91.4854 47.7875 115.985 46.7169 115.229 46.2581C114.473 45.6463 81.3527 46.8698 74.5472 44.1169Z" fill="#B2B1B2"/>
<g opacity="0.2" style="mix-blend-mode:overlay">
<path fill-rule="evenodd" clip-rule="evenodd" d="M73.0347 44.5754C73.0347 44.5754 71.5223 50.693 68.0439 55.1282C64.7168 59.5635 61.5409 62.4693 59.4236 73.7868C57.4575 85.1043 59.1211 114.316 59.4236 119.821C59.7261 125.327 60.1798 134.962 62.4483 139.398C64.868 143.833 70.3125 148.268 70.3125 148.268C70.3125 148.268 60.331 142.915 59.4236 136.033C58.6674 128.998 56.3989 87.5513 57.0038 78.375C57.6088 69.0457 59.8773 62.1634 63.2044 57.5753C66.6828 52.9871 73.0347 44.5754 73.0347 44.5754Z" fill="#796B00"/>
</g>
<g opacity="0.2" style="mix-blend-mode:overlay">
<path fill-rule="evenodd" clip-rule="evenodd" d="M132.167 44.5754C132.167 44.5754 133.68 50.693 137.158 55.1282C140.485 59.5635 143.661 62.4693 145.778 73.7868C147.744 85.1043 146.081 114.316 145.778 119.821C145.476 125.327 145.022 134.962 142.754 139.398C140.334 143.833 134.89 148.268 134.89 148.268C134.89 148.268 144.871 142.915 145.778 136.033C146.686 129.151 148.803 87.7042 148.349 78.375C147.744 69.0457 145.476 62.1634 142.149 57.5753C138.519 52.9871 132.167 44.5754 132.167 44.5754Z" fill="#796B00"/>
</g>
<path fill-rule="evenodd" clip-rule="evenodd" d="M92.2416 129.61C92.2416 129.61 96.3249 126.246 95.4175 120.893C93.9052 111.564 78.4793 108.046 70.1614 115.999C64.112 121.81 61.3898 130.222 64.5657 136.034C68.4978 143.222 77.2694 142.763 83.1676 137.716C89.2169 132.516 92.2416 129.61 92.2416 129.61Z" fill="#805400"/>
<path fill-rule="evenodd" clip-rule="evenodd" d="M92.2415 129.61C92.2415 129.61 96.3249 126.245 95.4174 120.892C94.6613 116.457 90.8804 113.398 86.1922 112.175C91.0317 113.704 92.8465 117.834 90.578 119.975C88.4607 122.269 79.6891 122.881 76.0595 125.633C72.4298 128.233 69.2539 131.751 66.6829 128.08C64.2632 124.41 66.3805 120.281 66.3805 120.128C62.9021 125.328 61.8435 131.445 64.4144 135.88C68.3465 143.068 77.1181 142.61 83.0162 137.563C89.2168 132.516 92.2415 129.61 92.2415 129.61Z" fill="#744A00"/>
<path fill-rule="evenodd" clip-rule="evenodd" d="M92.2416 129.611C92.2416 129.611 96.3249 126.247 95.4175 120.894C94.8126 117.682 92.5441 115.082 89.5194 113.4C96.6274 119.67 92.2416 121.2 86.041 123.647C83.9237 124.564 81.9577 125.788 80.1429 127.164C74.0935 132.058 72.1275 142.764 67.1367 137.564C62.2972 132.517 63.9608 125.482 64.112 125.176C62.7509 128.999 62.9022 132.823 64.5657 136.035C68.4978 143.223 77.2694 142.764 83.1676 137.717C89.2169 132.517 92.2416 129.611 92.2416 129.611Z" fill="#603B00"/>
<path fill-rule="evenodd" clip-rule="evenodd" d="M92.2415 129.61C92.2415 129.61 93.6026 128.387 94.6613 126.398C92.3928 118.751 76.0595 132.21 75.4545 136.798C74.8496 141.234 78.6305 140.469 78.7817 140.469C80.294 139.857 81.9576 138.939 83.3187 137.716C89.2168 132.516 92.2415 129.61 92.2415 129.61Z" fill="#3E2400"/>
<path fill-rule="evenodd" clip-rule="evenodd" d="M76.6643 134.657C76.6643 134.657 80.8988 138.786 83.0161 141.539C85.1334 144.292 88.0068 147.504 88.6118 147.81C89.3679 148.115 93.4513 145.668 94.5099 145.057C95.7198 144.445 99.5006 140.621 99.5006 138.786C99.5006 137.104 97.0809 134.198 95.7198 132.669C94.5099 131.139 91.1828 126.857 89.2167 124.41C85.2846 125.175 78.7816 130.68 76.2106 134.504C76.513 134.657 76.6643 134.657 76.6643 134.657Z" fill="#E7BA78"/>
<path fill-rule="evenodd" clip-rule="evenodd" d="M84.9822 143.987C86.6458 145.976 88.1582 147.658 88.6119 147.811C89.368 148.117 93.4514 145.67 94.51 145.058C95.7199 144.446 99.5007 140.623 99.5007 138.787C99.5007 137.717 98.4421 136.187 97.5347 134.811C97.5347 134.811 99.047 137.564 97.6859 139.552C96.3248 141.54 95.2662 143.529 94.3588 143.529C93.6026 143.529 93.4514 142.611 92.0902 142.305C90.8804 141.999 88.3094 139.705 87.402 139.705C86.4946 139.705 89.973 142.764 89.5193 143.834C88.9143 144.752 87.5532 146.281 84.9822 143.987Z" fill="#CDA163"/>
<path fill-rule="evenodd" clip-rule="evenodd" d="M76.6643 134.657C76.6643 134.657 80.8989 138.786 83.0161 141.539C83.7723 142.61 84.6797 143.68 85.5871 144.598C84.5285 143.221 81.3526 138.939 83.0161 134.963C85.1334 130.222 85.5871 131.139 88.0069 130.68C90.1241 130.375 93.1488 129.763 95.7198 132.363C94.3587 130.527 91.334 126.704 89.5192 124.41C85.5871 125.175 79.084 130.68 76.5131 134.504C76.5131 134.657 76.6643 134.657 76.6643 134.657ZM97.3834 134.504C97.2321 134.198 96.9297 134.045 96.7785 133.739C96.9297 134.198 97.2321 134.351 97.3834 134.504Z" fill="#CDA163"/>
<path fill-rule="evenodd" clip-rule="evenodd" d="M76.6643 134.657C76.6643 134.657 78.6303 136.492 80.5964 138.633C80.5964 138.633 78.6303 135.574 81.2013 131.904C83.7723 128.233 85.2846 128.233 86.4945 127.469C87.7044 126.551 90.4266 125.48 91.4853 127.01C90.7291 126.092 90.1241 125.175 89.5192 124.41C85.5871 125.175 79.084 130.68 76.5131 134.504C76.5131 134.657 76.6643 134.657 76.6643 134.657Z" fill="#B78E50"/>
<path fill-rule="evenodd" clip-rule="evenodd" d="M85.1334 142.916C84.3772 141.387 83.1674 139.399 83.6211 137.258C84.0748 135.269 83.9235 133.434 85.1334 132.822C86.3433 132.211 87.7044 131.752 90.2754 132.364C92.9976 132.975 94.5099 133.74 95.2661 136.34C96.0223 138.787 95.4173 141.693 93.7538 141.693C92.2414 141.693 91.334 140.775 89.8217 139.858C88.3093 138.94 87.7044 137.869 86.4945 138.328C85.2846 138.787 85.1334 141.081 86.192 142.152C87.4019 143.222 86.797 144.293 85.1334 142.916Z" fill="#F2C585"/>
<path fill-rule="evenodd" clip-rule="evenodd" d="M68.044 119.669C68.9515 118.292 72.2786 114.01 77.5718 112.786C82.865 111.563 88.7631 113.092 90.1242 116.304C91.3341 119.516 86.9483 119.057 82.7138 119.057C78.4792 119.21 71.6737 121.81 70.1613 123.951C68.3465 126.245 65.9268 123.798 68.044 119.669Z" fill="#9C6700"/>
<path fill-rule="evenodd" clip-rule="evenodd" d="M73.791 114.928C72.4298 115.998 71.3712 116.763 71.8249 117.527C72.4298 118.292 75.0008 116.61 77.4206 115.845C79.8403 115.08 82.2601 114.775 83.0162 114.775C83.6212 114.928 80.7477 110.645 73.791 114.928Z" fill="#BA8325"/>
<path fill-rule="evenodd" clip-rule="evenodd" d="M115.38 143.681C116.59 142.304 115.985 141.081 118.859 141.081C121.732 141.081 122.942 141.54 123.396 143.375C124.001 145.363 125.967 147.81 124.454 148.116C122.942 148.575 121.127 150.41 119.01 150.257C117.195 150.257 113.566 147.198 115.38 143.681Z" fill="#342C00"/>
<path fill-rule="evenodd" clip-rule="evenodd" d="M117.195 144.599C117.649 143.375 116.59 142.61 118.405 142.458C120.22 142.305 121.884 141.846 122.035 142.763C122.186 143.681 123.245 144.905 122.489 145.516C121.732 146.128 120.674 146.434 119.918 145.669C119.313 145.057 118.708 143.375 117.195 144.599Z" fill="#4A4307"/>
<path fill-rule="evenodd" clip-rule="evenodd" d="M123.396 129.915C122.64 129.609 119.161 129.762 117.649 129.762C116.137 129.762 114.927 129.915 114.322 130.22C113.868 130.526 113.717 130.832 113.112 131.138C112.356 131.597 111.6 132.515 111.449 133.891C111.297 135.267 111.146 137.714 111.751 138.938C112.356 140.009 113.112 140.773 113.717 140.773C114.473 140.773 116.137 140.773 117.195 140.926C118.405 141.079 118.405 141.232 119.766 141.232C120.976 141.232 123.396 141.079 124.001 140.314C124.606 139.55 124.908 129.609 123.396 129.915Z" fill="#CDA163"/>
<path fill-rule="evenodd" clip-rule="evenodd" d="M118.859 129.762C118.405 129.762 117.951 129.762 117.498 129.762C115.985 129.762 114.776 129.915 114.171 130.221C113.717 130.527 113.566 130.833 112.961 131.139C112.205 131.597 111.448 132.515 111.297 133.892C111.297 134.35 111.146 134.809 111.146 135.268C111.146 135.268 111.297 133.586 112.205 132.974C113.112 132.209 113.263 132.056 114.019 132.209C114.776 132.209 115.078 132.056 116.137 132.056C117.195 132.056 117.951 132.209 117.498 131.75C117.044 131.139 117.044 130.374 118.254 130.833C118.859 130.833 119.01 130.374 118.859 129.762Z" fill="#B48B4D"/>
<path fill-rule="evenodd" clip-rule="evenodd" d="M123.396 129.915C122.64 129.609 119.161 129.762 117.649 129.762C117.195 129.762 116.742 129.762 116.439 129.762C116.439 129.762 118.557 130.373 119.464 132.667C120.371 135.114 119.918 134.809 119.615 136.338C119.464 137.867 119.615 138.632 118.859 139.55C118.103 140.314 117.952 140.009 116.439 139.856C114.927 139.55 112.507 140.773 111.297 138.326C111.297 138.632 111.449 138.785 111.6 138.938C112.205 140.009 112.961 140.773 113.566 140.773C114.322 140.773 115.986 140.773 117.044 140.926C118.254 141.079 118.254 141.232 119.615 141.232C120.825 141.232 123.245 141.079 123.85 140.314C124.606 139.55 124.908 129.609 123.396 129.915Z" fill="#B48B4D"/>
<path fill-rule="evenodd" clip-rule="evenodd" d="M123.396 129.915C122.791 129.762 120.976 129.762 119.312 129.762C119.464 129.762 119.917 129.915 120.069 130.68C120.371 131.75 120.22 132.209 120.522 132.668C120.825 133.28 121.581 134.197 121.732 135.88C121.883 137.562 121.581 140.927 119.464 141.233C119.615 141.233 119.766 141.233 119.917 141.233C121.127 141.233 123.547 141.08 124.152 140.315C124.606 139.55 124.908 129.609 123.396 129.915Z" fill="#997334"/>
<path fill-rule="evenodd" clip-rule="evenodd" d="M121.127 130.526C121.127 130.526 121.581 125.174 125.664 122.879C129.748 120.585 139.427 121.809 140.788 132.362C142.149 142.914 131.109 147.044 125.664 145.973C120.371 144.903 120.825 141.538 121.581 139.856C122.337 138.173 122.488 136.491 122.488 135.573C122.337 134.656 121.279 132.056 121.127 130.526Z" fill="#603B00"/>
<path fill-rule="evenodd" clip-rule="evenodd" d="M128.538 122.114C133.075 121.656 139.578 124.103 140.637 132.514C140.637 132.973 140.788 133.585 140.788 134.044C140.788 133.432 140.334 129.608 136.1 127.62C131.26 125.479 127.782 134.655 129.748 139.397C131.714 144.138 135.192 143.22 137.461 142.302C134.587 145.055 130.504 146.279 127.328 146.279C125.816 145.361 124.908 143.985 124.757 139.855C124.606 133.279 122.489 127.314 124.606 125.02C125.513 123.95 127.026 122.879 128.538 122.114Z" fill="#533300"/>
<path fill-rule="evenodd" clip-rule="evenodd" d="M121.128 130.527C121.128 130.527 121.581 125.174 125.665 122.88C128.689 121.198 135.192 121.504 138.671 126.398C138.671 126.398 135.192 122.88 130.05 123.798C124.908 124.868 127.328 133.739 126.875 136.492C126.572 139.245 128.387 147.503 135.797 143.527C132.47 145.668 128.538 146.433 125.816 145.974C120.523 144.903 120.976 141.539 121.733 139.856C122.489 138.174 122.64 136.492 122.64 135.574C122.337 134.656 121.279 132.056 121.128 130.527Z" fill="#4A2C00"/>
<path fill-rule="evenodd" clip-rule="evenodd" d="M111.448 138.327C111.448 138.327 111.448 137.868 112.053 137.409C112.658 136.95 112.356 136.797 113.414 136.797C114.473 136.797 116.742 136.797 116.893 136.339C117.044 135.727 115.532 136.033 115.229 135.421C114.927 134.962 115.078 134.656 115.229 134.35C115.38 134.044 114.927 133.586 113.868 134.044C112.658 134.503 110.843 134.656 111.448 138.327Z" fill="#B48B4D"/>
<path fill-rule="evenodd" clip-rule="evenodd" d="M140.334 134.197C140.334 131.75 138.519 129.915 137.158 130.374C135.948 130.832 135.041 135.574 133.831 137.256C132.621 138.938 131.865 140.926 132.924 141.691C133.831 142.456 135.495 143.22 137.461 141.232C139.275 139.55 140.334 136.797 140.334 134.197Z" fill="#744A00"/>
<path fill-rule="evenodd" clip-rule="evenodd" d="M132.621 117.68C132.621 115.998 132.47 115.998 133.377 115.08C134.285 114.162 134.285 113.551 135.494 114.01C136.856 114.315 137.46 114.01 138.065 115.08C138.67 116.151 140.334 115.845 140.031 117.221C139.729 118.598 139.88 118.904 138.519 119.821C137.158 120.586 136.553 120.433 135.192 120.892C133.982 121.198 132.621 119.057 132.621 117.68Z" fill="#342C00"/>
<path fill-rule="evenodd" clip-rule="evenodd" d="M133.226 117.221C133.075 116.609 132.924 116.15 133.529 115.845C133.982 115.539 134.133 115.233 134.285 115.08C134.436 114.774 134.738 114.621 135.495 114.621C136.251 114.621 136.856 114.927 137.158 115.386C137.309 115.845 137.309 115.998 137.914 116.303C138.519 116.456 138.822 117.068 138.671 117.374C138.519 117.833 138.066 118.139 137.461 118.139C137.007 117.986 136.1 117.374 135.495 117.527C134.89 117.68 134.738 117.986 134.285 118.292C133.982 118.598 133.529 118.445 133.226 117.221Z" fill="#4A4307"/>
<path fill-rule="evenodd" clip-rule="evenodd" d="M109.785 121.352C109.785 121.352 107.365 116.611 102.072 116.305C92.6954 115.846 86.0411 130.528 91.9393 140.316C96.1738 147.504 103.887 151.94 110.239 150.104C118.103 147.657 119.464 138.94 115.683 132.058C111.902 125.022 109.785 121.352 109.785 121.352Z" fill="#805400"/>
<path fill-rule="evenodd" clip-rule="evenodd" d="M109.785 121.351C109.785 121.351 107.365 116.61 102.072 116.304C97.6862 116.151 93.9053 119.21 91.788 123.645C94.2078 119.21 98.5936 118.293 100.257 120.892C101.921 123.492 100.862 132.363 102.677 136.492C104.492 140.622 107.214 144.598 102.979 146.127C98.896 147.81 95.4176 144.904 95.2664 144.751C99.501 149.186 105.248 151.633 110.087 150.104C117.952 147.657 119.313 138.939 115.532 132.057C111.902 125.022 109.785 121.351 109.785 121.351Z" fill="#744A00"/>
<path fill-rule="evenodd" clip-rule="evenodd" d="M109.785 121.351C109.785 121.351 107.365 116.61 102.072 116.304C98.7447 116.151 95.8712 117.833 93.6027 120.586C101.164 114.775 101.618 119.516 102.677 126.092C102.979 128.386 103.887 130.68 104.794 132.669C108.121 139.704 118.254 143.833 112.205 147.809C106.306 151.48 99.8033 148.421 99.6521 148.268C103.13 150.409 106.76 151.174 110.238 150.104C118.103 147.657 119.464 138.939 115.683 132.057C111.902 125.022 109.785 121.351 109.785 121.351Z" fill="#603B00"/>
<path fill-rule="evenodd" clip-rule="evenodd" d="M109.785 121.352C109.785 121.352 108.877 119.669 107.214 118.293C99.3497 118.904 109.029 137.869 113.263 139.398C117.498 140.928 117.498 136.951 117.498 136.951C117.195 135.269 116.59 133.587 115.683 131.904C111.902 125.022 109.785 121.352 109.785 121.352Z" fill="#3E2400"/>
<path fill-rule="evenodd" clip-rule="evenodd" d="M111.448 137.869C111.448 137.869 116.288 134.504 119.464 132.975C122.488 131.445 126.269 129.304 126.723 128.692C127.177 128.081 125.664 123.492 125.362 122.269C125.059 121.045 122.035 116.304 120.371 115.998C118.708 115.692 115.38 117.528 113.566 118.445C111.751 119.363 107.063 121.657 104.189 123.034C104.189 127.01 108.121 134.657 111.146 138.022C111.297 138.022 111.297 137.869 111.448 137.869Z" fill="#E7BA78"/>
<path fill-rule="evenodd" clip-rule="evenodd" d="M122.035 131.598C124.303 130.375 126.269 129.151 126.572 128.693C127.026 128.081 125.513 123.493 125.211 122.269C124.908 121.046 121.884 116.305 120.22 115.999C119.161 115.846 117.498 116.457 115.985 117.069C115.985 117.069 118.859 116.152 120.523 117.834C122.186 119.516 123.85 121.046 123.698 121.963C123.547 122.728 122.64 122.728 122.035 123.951C121.43 125.175 118.556 127.316 118.405 128.234C118.254 129.151 121.884 126.398 122.791 127.01C123.698 127.928 124.908 129.457 122.035 131.598C122.186 131.598 122.186 131.598 122.035 131.598Z" fill="#CDA163"/>
<path fill-rule="evenodd" clip-rule="evenodd" d="M111.449 137.868C111.449 137.868 116.288 134.503 119.464 132.974C120.674 132.362 121.884 131.75 122.942 131.139C121.43 131.903 116.59 134.197 113.112 131.597C109.029 128.539 109.936 128.386 110.087 125.786C110.239 123.645 110.239 120.433 113.263 118.598C111.297 119.668 106.911 121.656 104.341 123.033C104.341 127.009 108.273 134.656 111.297 138.021C111.297 138.021 111.297 137.868 111.449 137.868ZM115.532 117.374C115.229 117.527 114.927 117.68 114.624 117.833C115.078 117.68 115.381 117.527 115.532 117.374Z" fill="#CDA163"/>
<path fill-rule="evenodd" clip-rule="evenodd" d="M111.449 137.868C111.449 137.868 113.717 136.339 116.137 134.809C116.137 134.809 112.658 136.186 109.785 132.821C106.911 129.456 107.214 128.08 106.609 126.551C106.004 125.021 105.55 122.268 107.214 121.504C106.155 121.962 105.248 122.574 104.341 122.88C104.341 126.857 108.273 134.503 111.297 137.868C111.297 138.021 111.297 137.868 111.449 137.868Z" fill="#B78E50"/>
<path fill-rule="evenodd" clip-rule="evenodd" d="M120.976 131.14C119.313 131.599 117.044 132.21 115.229 131.446C113.566 130.528 111.6 130.222 111.297 128.999C110.995 127.775 110.843 126.246 112.053 123.799C113.263 121.352 114.322 119.822 116.893 119.669C119.464 119.364 122.186 120.74 121.732 122.269C121.43 123.799 120.371 124.563 119.161 125.787C117.951 127.01 116.742 127.469 117.044 128.693C117.195 130.069 119.464 130.528 120.674 129.916C121.883 128.999 122.791 129.916 120.976 131.14Z" fill="#F2C585"/>
<path fill-rule="evenodd" clip-rule="evenodd" d="M95.1151 143.374C93.9052 142.15 90.578 138.021 90.4268 132.515C90.2756 127.009 93.149 121.504 96.4762 120.892C99.9546 120.433 98.4422 124.562 97.686 128.845C96.9299 133.127 98.1397 140.315 99.8033 142.303C101.316 144.292 98.5934 146.127 95.1151 143.374Z" fill="#9C6700"/>
<path fill-rule="evenodd" clip-rule="evenodd" d="M91.6369 136.644C92.3931 138.174 92.8468 139.397 93.7542 139.091C94.6616 138.785 93.4517 135.727 93.3005 133.28C92.998 130.68 93.3005 128.233 93.4517 127.621C93.7542 126.856 88.9147 128.844 91.6369 136.644Z" fill="#BA8325"/>
<path fill-rule="evenodd" clip-rule="evenodd" d="M64.4142 99.4809C64.4142 99.4809 60.9358 101.469 60.7846 105.446C60.6333 112.481 71.6734 117.375 78.7814 112.634C84.0746 109.269 87.2505 103.304 85.7382 98.5633C83.7722 92.5987 77.2691 91.681 72.1271 94.7398C66.9852 97.7986 64.4142 99.4809 64.4142 99.4809Z" fill="#805400"/>
<path fill-rule="evenodd" clip-rule="evenodd" d="M64.4141 99.4806C64.4141 99.4806 60.9357 101.469 60.7845 105.445C60.6333 108.81 63.053 111.563 66.3802 113.245C63.053 111.41 62.2968 108.198 64.2629 106.822C66.2289 105.445 72.732 106.21 75.7567 104.68C78.7814 103.151 81.6548 101.01 83.0159 104.222C84.377 107.28 82.2597 110.033 82.1085 110.186C85.4357 106.822 86.948 102.539 85.7381 98.7159C83.7721 92.7512 77.269 91.8336 72.1271 94.8924C66.9851 97.7982 64.4141 99.4806 64.4141 99.4806Z" fill="#744A00"/>
<path fill-rule="evenodd" clip-rule="evenodd" d="M64.4142 99.4806C64.4142 99.4806 60.9358 101.469 60.7845 105.445C60.7845 107.892 61.9944 110.186 64.1117 111.716C59.7259 106.057 63.2043 105.598 68.0438 104.68C69.7074 104.375 71.3709 103.763 72.8833 102.998C78.0252 100.245 81.0499 92.5983 83.9234 97.1865C86.7968 101.622 84.5283 106.669 84.5283 106.822C86.0407 104.222 86.4944 101.316 85.7382 98.7159C83.7722 92.7512 77.2691 91.8336 72.1271 94.8924C66.9851 97.7982 64.4142 99.4806 64.4142 99.4806Z" fill="#603B00"/>
<path fill-rule="evenodd" clip-rule="evenodd" d="M64.4143 99.4808C64.4143 99.4808 63.2045 100.093 62.1458 101.469C62.7507 107.434 76.6643 99.7867 77.8742 96.575C78.9328 93.3633 76.0594 93.3633 75.9081 93.3633C74.6983 93.6692 73.3371 94.128 72.1273 94.7397C66.9853 97.7985 64.4143 99.4808 64.4143 99.4808Z" fill="#3E2400"/>
<path fill-rule="evenodd" clip-rule="evenodd" d="M76.6641 97.951C76.6641 97.951 74.0931 94.2805 72.8832 91.9864C71.6734 89.6923 70.0098 86.9394 69.5561 86.4806C69.1024 86.1747 65.7752 87.3982 64.7166 87.7041C63.8092 88.01 60.3308 90.304 60.1796 91.5276C60.0283 92.7511 61.3894 95.351 61.9944 96.5745C62.7505 97.951 64.5653 101.469 65.624 103.61C68.6487 103.61 74.2443 100.551 76.6641 97.951Z" fill="#E7BA78"/>
<path fill-rule="evenodd" clip-rule="evenodd" d="M71.6735 89.8452C70.7661 88.1629 69.8587 86.6335 69.405 86.4806C68.9513 86.1747 65.6241 87.3982 64.5655 87.7041C63.6581 88.01 60.1797 90.304 60.0285 91.5276C59.8772 92.2922 60.3309 93.6687 60.9359 94.7393C60.9359 94.7393 60.1797 92.4452 61.3896 91.2217C62.5994 89.9982 63.8093 88.6217 64.4143 88.7747C65.0192 88.9276 65.0192 89.5393 65.9266 89.9982C66.834 90.457 68.4976 92.5981 69.2537 92.7511C70.0099 92.904 67.8926 90.1511 68.3463 89.3864C68.9513 88.7746 70.1612 87.857 71.6735 89.8452Z" fill="#CDA163"/>
<path fill-rule="evenodd" clip-rule="evenodd" d="M76.6641 97.9506C76.6641 97.9506 74.0931 94.28 72.8833 91.986C72.4296 91.0683 71.9759 90.1507 71.3709 89.386C71.9759 90.4566 73.7907 94.28 71.9759 96.88C69.7073 100.092 69.5561 99.327 67.7413 99.327C66.0777 99.327 63.8092 99.327 62.2969 97.0329C63.053 98.5623 64.7166 101.774 65.7752 103.762C68.6487 103.609 74.2444 100.551 76.6641 97.9506ZM61.2382 95.1977C61.3895 95.5036 61.5407 95.6565 61.5407 95.8094C61.5407 95.5035 61.3895 95.1977 61.2382 95.1977Z" fill="#CDA163"/>
<path fill-rule="evenodd" clip-rule="evenodd" d="M76.6642 97.9505C76.6642 97.9505 75.4543 96.2681 74.3957 94.4329C74.3957 94.4329 75.4543 97.0328 73.0346 99.3269C70.6148 101.621 69.5562 101.468 68.4975 101.927C67.4389 102.386 65.3216 102.845 64.7167 101.621C65.1704 102.386 65.4728 103.15 65.7753 103.762C68.6488 103.609 74.2444 100.55 76.6642 97.9505Z" fill="#B78E50"/>
<path fill-rule="evenodd" clip-rule="evenodd" d="M71.5223 90.7624C71.8248 91.9859 72.4297 93.6682 71.8248 95.0446C71.2199 96.4211 71.0686 97.7975 70.01 98.1034C69.1026 98.4093 68.044 98.5622 66.0779 97.6446C64.1119 96.727 63.0532 95.9623 62.902 93.9741C62.7508 91.9859 63.5069 89.9977 64.7168 90.1506C65.9267 90.4565 66.3804 91.2212 67.2878 91.9859C68.1952 92.9035 68.4977 93.8211 69.5563 93.5153C70.4637 93.3623 70.9174 91.68 70.3125 90.7624C69.8588 90.1506 70.4637 89.3859 71.5223 90.7624Z" fill="#F2C585"/>
<path fill-rule="evenodd" clip-rule="evenodd" d="M81.0498 110.34C80.1424 111.257 77.1177 113.857 73.0343 114.163C68.951 114.316 64.7165 112.328 64.2628 109.728C63.8091 107.128 66.985 108.198 70.1609 108.657C73.3368 109.116 78.7813 108.198 80.1424 106.822C81.6547 105.446 83.0158 107.587 81.0498 110.34Z" fill="#9C6700"/>
<path fill-rule="evenodd" clip-rule="evenodd" d="M76.0593 112.939C77.2691 112.327 78.1765 111.868 77.8741 111.256C77.5716 110.645 75.4543 111.562 73.4883 111.715C71.5222 111.868 69.7074 111.715 69.2537 111.715C68.6488 111.562 70.3124 115.233 76.0593 112.939Z" fill="#BA8325"/>
<path fill-rule="evenodd" clip-rule="evenodd" d="M93.9052 99.1755C93.149 98.8697 89.6706 99.0226 88.1583 99.0226C86.6459 99.0226 85.436 99.1755 84.8311 99.4814C84.3774 99.7873 84.2262 100.093 83.6212 100.399C82.8651 100.858 82.1089 101.776 81.9577 103.152C81.8064 104.528 81.6552 106.975 82.2601 108.199C82.8651 109.27 83.6212 110.034 84.2262 110.034C84.9823 110.034 86.6459 110.034 87.7046 110.187C88.9144 110.493 88.9144 110.646 90.2755 110.646C91.4854 110.646 93.9052 110.493 94.5101 109.728C95.115 108.811 95.2663 99.0226 93.9052 99.1755Z" fill="#CDA163"/>
<path fill-rule="evenodd" clip-rule="evenodd" d="M89.368 99.0215C88.9143 99.0215 88.4606 99.0215 88.0069 99.0215C86.4946 99.0215 85.2847 99.1744 84.6798 99.4803C84.2261 99.7862 84.0748 100.092 83.4699 100.398C82.7137 100.857 81.9576 101.774 81.8063 103.151C81.8063 103.61 81.6551 104.068 81.6551 104.527C81.6551 104.527 81.8063 102.845 82.7137 102.233C83.6211 101.469 83.7724 101.316 84.5285 101.469C85.2847 101.469 85.5872 101.316 86.6458 101.316C87.7045 101.316 88.4606 101.469 88.0069 101.01C87.5532 100.398 87.5532 99.6332 88.7631 100.092C89.368 100.245 89.368 99.6332 89.368 99.0215Z" fill="#B48B4D"/>
<path fill-rule="evenodd" clip-rule="evenodd" d="M93.9053 99.1755C93.1491 98.8697 89.6708 99.0226 88.1584 99.0226C87.7047 99.0226 87.251 99.0226 86.9485 99.0226C86.9485 99.0226 89.0658 99.6344 89.9732 101.928C90.8806 104.375 90.4269 104.07 90.1245 105.599C89.9732 107.128 90.1245 107.893 89.3683 108.811C88.6121 109.575 88.4609 109.27 86.9485 109.117C85.4362 108.811 83.0165 110.034 81.8066 107.587C81.8066 107.893 81.9578 108.046 82.109 108.199C82.714 109.27 83.4702 110.034 84.0751 110.034C84.8313 110.034 86.4948 110.034 87.5535 110.187C88.9146 110.493 88.9146 110.646 90.2757 110.646C91.4856 110.646 93.9053 110.493 94.5103 109.728C95.1152 108.811 95.2664 99.0226 93.9053 99.1755Z" fill="#B48B4D"/>
<path fill-rule="evenodd" clip-rule="evenodd" d="M93.905 99.1744C93.3 99.0215 91.4852 99.0215 89.8217 99.0215C89.9729 99.0215 90.4266 99.1744 90.5778 99.9391C90.8803 101.01 90.7291 101.469 91.0315 101.927C91.334 102.539 92.0902 103.457 92.2414 105.139C92.3926 106.821 92.0902 110.186 89.9729 110.492C90.1241 110.492 90.2754 110.492 90.4266 110.492C91.6365 110.492 94.0562 110.339 94.6611 109.574C95.1149 108.81 95.2661 99.0215 93.905 99.1744Z" fill="#997334"/>
<path fill-rule="evenodd" clip-rule="evenodd" d="M91.4856 99.9395C91.4856 99.9395 91.9393 94.5866 96.0226 92.2925C100.106 89.9984 109.785 91.2219 111.146 101.775C112.507 112.328 101.467 116.457 96.0226 115.386C90.7294 114.316 91.1831 110.951 91.9393 109.269C92.6955 107.586 92.8467 105.904 92.8467 104.986C92.8467 103.916 91.7881 101.316 91.4856 99.9395Z" fill="#603B00"/>
<path fill-rule="evenodd" clip-rule="evenodd" d="M99.0472 91.3754C103.584 90.9166 110.087 93.3636 111.146 101.775C111.146 102.234 111.297 102.846 111.297 103.305C111.297 102.693 110.843 98.8694 106.609 96.8812C101.769 94.7401 98.2911 103.916 100.257 108.658C102.223 113.399 105.702 112.481 107.97 111.563C105.097 114.316 101.013 115.54 97.8374 115.54C96.325 114.622 95.4176 113.246 95.2664 109.116C95.1151 102.54 92.9979 96.5753 95.1151 94.2813C96.0225 93.3636 97.5349 92.2931 99.0472 91.3754Z" fill="#533300"/>
<path fill-rule="evenodd" clip-rule="evenodd" d="M91.4854 99.9401C91.4854 99.9401 91.9391 94.5872 96.0224 92.2932C99.0471 90.6108 105.55 90.9167 109.029 95.8108C109.029 95.8108 105.55 92.2932 100.408 93.2108C95.2663 94.2814 97.686 103.152 97.2323 105.905C96.9298 108.658 98.7447 116.916 106.155 112.94C102.828 115.081 98.8959 115.846 96.1737 115.387C90.8805 114.316 91.3342 110.952 92.0903 109.269C92.8465 107.587 92.9978 105.905 92.9978 104.987C92.8465 103.917 91.7879 101.317 91.4854 99.9401Z" fill="#4A2C00"/>
<path fill-rule="evenodd" clip-rule="evenodd" d="M81.8066 107.586C81.8066 107.586 81.8066 107.127 82.4115 106.668C83.0165 106.21 82.714 106.057 83.7726 106.057C84.8313 106.057 87.0998 106.057 87.251 105.598C87.4023 104.986 85.8899 105.292 85.5875 104.68C85.285 104.221 85.4362 103.915 85.5875 103.61C85.7387 103.304 85.285 102.845 84.2263 103.304C83.0165 103.915 81.3529 103.915 81.8066 107.586Z" fill="#B48B4D"/>
<path fill-rule="evenodd" clip-rule="evenodd" d="M110.692 103.61C110.692 101.163 108.877 99.3279 107.516 99.7867C106.306 100.245 105.399 104.987 104.189 106.669C102.979 108.351 102.223 110.339 103.281 111.104C104.189 111.869 105.852 112.634 107.818 110.645C109.785 108.81 110.692 106.057 110.692 103.61Z" fill="#744A00"/>
<path fill-rule="evenodd" clip-rule="evenodd" d="M108.575 79.7525C107.667 80.3642 104.794 84.1877 103.584 85.87C102.374 87.5523 101.467 88.9288 101.315 89.8464C101.164 90.7641 101.467 90.917 101.315 91.9876C101.164 93.0581 101.467 94.7405 102.828 96.1169C104.189 97.4934 106.609 99.6345 108.423 99.9404C110.238 100.246 111.448 100.093 112.204 99.3286C112.809 98.5639 114.17 96.8816 115.38 95.6581C116.439 94.4346 116.741 94.5875 117.8 93.0581C118.859 91.6817 120.522 88.9288 120.371 87.7053C119.917 86.6347 109.482 77.9172 108.575 79.7525Z" fill="#CDA163"/>
<path fill-rule="evenodd" clip-rule="evenodd" d="M104.643 84.4939C104.189 85.1057 103.886 85.5645 103.584 86.0233C102.374 87.7056 101.467 89.0821 101.315 89.9997C101.164 90.9173 101.467 91.0703 101.315 92.1408C101.164 93.2114 101.467 94.8937 102.828 96.2702C103.281 96.729 103.735 97.1878 104.189 97.6466C104.189 97.6466 102.525 96.1173 102.525 94.4349C102.525 92.7526 102.525 92.4467 103.13 91.682C103.735 90.9173 103.886 90.4585 104.794 89.235C105.701 88.0115 106.609 87.3997 105.55 87.3997C104.491 87.3997 103.735 86.635 105.248 85.8703C105.852 85.5645 105.399 84.9527 104.643 84.4939Z" fill="#B48B4D"/>
<path fill-rule="evenodd" clip-rule="evenodd" d="M108.575 79.7523C107.667 80.3641 104.794 84.1876 103.584 85.8699C103.282 86.3287 102.979 86.7875 102.677 87.2463C102.677 87.2463 105.096 85.4111 108.424 86.4816C111.751 87.5522 111.146 87.8581 112.507 89.2345C113.868 90.611 115.078 91.2228 115.229 92.5992C115.532 93.9757 114.927 93.9756 113.414 95.505C111.902 97.0344 110.995 100.552 107.516 99.7873C107.819 99.9403 108.121 100.093 108.424 100.093C110.238 100.399 111.448 100.246 112.204 99.4815C112.809 98.7168 114.171 97.0344 115.38 95.8109C116.439 94.5874 116.741 94.7403 117.8 93.211C118.859 91.8345 120.522 89.0816 120.371 87.8581C119.917 86.6346 109.482 77.9171 108.575 79.7523Z" fill="#B48B4D"/>
<path fill-rule="evenodd" clip-rule="evenodd" d="M108.575 79.7535C107.97 80.2123 106.306 82.2006 104.945 84.0358C105.096 83.8829 105.701 83.577 106.609 84.0358C107.97 84.6476 108.272 85.2593 109.18 85.4123C110.087 85.5652 111.751 85.5652 113.717 86.9417C115.532 88.3181 118.859 91.3769 117.346 93.9769C117.498 93.8239 117.649 93.671 117.8 93.518C118.859 92.1416 120.522 89.3887 120.371 88.1652C119.917 86.6358 109.482 77.9183 108.575 79.7535Z" fill="#997334"/>
<path fill-rule="evenodd" clip-rule="evenodd" d="M107.365 82.8117C107.365 82.8117 102.071 77.7647 102.979 71.4942C103.886 65.2237 113.565 55.5886 125.966 62.9297C138.368 70.2707 133.377 85.8705 127.781 90.7645C122.034 95.6586 118.858 92.2939 117.8 89.9999C116.741 87.7058 114.926 86.1764 113.868 85.4117C112.658 84.7999 109.028 83.7294 107.365 82.8117Z" fill="#603B00"/>
<path fill-rule="evenodd" clip-rule="evenodd" d="M104.643 67.5185C107.97 62.1656 116.136 57.2715 125.967 63.0832C126.572 63.3891 127.176 63.8479 127.63 64.3067C126.874 63.8479 122.488 60.9421 116.741 64.0009C110.389 67.3655 117.195 78.9889 124.001 80.9771C130.655 82.8124 132.621 78.3771 133.68 75.0125C134.133 80.5183 132.016 86.0241 129.294 89.3887C127.025 90.1534 124.757 90.1534 120.22 86.6358C113.263 81.283 104.945 78.5301 104.34 74.4007C104.038 72.4125 104.189 69.8125 104.643 67.5185Z" fill="#533300"/>
<path fill-rule="evenodd" clip-rule="evenodd" d="M107.365 82.8115C107.365 82.8115 102.071 77.7645 102.979 71.494C103.735 66.7529 109.482 59.8706 117.649 60.3294C117.497 60.3294 110.843 61.0941 107.667 67.6705C104.34 74.2469 115.834 78.988 118.556 81.7409C121.278 84.4938 131.562 89.3878 133.528 78.0703C133.074 83.4232 130.503 88.4702 127.63 90.9172C121.883 95.8113 118.707 92.4466 117.649 90.1525C116.439 87.8584 114.775 86.329 113.716 85.5644C112.658 84.7997 109.028 83.7291 107.365 82.8115Z" fill="#4A2C00"/>
<path fill-rule="evenodd" clip-rule="evenodd" d="M107.365 99.7872C107.365 99.7872 106.76 99.3284 106.911 98.4108C106.911 97.4931 106.458 97.4931 107.365 96.4226C108.121 95.352 110.238 92.752 109.785 92.1403C109.331 91.5285 108.272 93.2109 107.516 93.2109C106.609 93.2109 106.609 92.905 106.458 92.4462C106.306 91.9873 105.248 92.1403 104.945 93.6697C104.491 95.352 103.13 97.3402 107.365 99.7872Z" fill="#B48B4D"/>
<path fill-rule="evenodd" clip-rule="evenodd" d="M127.328 64.9183C124.757 62.7772 121.278 63.389 120.673 65.0713C120.068 66.7536 124.454 71.8006 125.059 74.5535C125.664 77.3064 127.328 79.7534 129.142 79.2946C130.655 78.9887 132.923 77.7652 132.47 73.9417C132.167 70.4241 130.05 67.2124 127.328 64.9183Z" fill="#744A00"/>
<path fill-rule="evenodd" clip-rule="evenodd" d="M117.649 98.1042C117.649 98.1042 111.902 96.7278 107.819 101.163C100.711 108.963 108.424 125.174 120.976 127.163C130.202 128.692 139.427 125.174 142.3 118.292C145.93 109.728 139.427 102.234 130.807 100.551C122.186 98.8689 117.649 98.1042 117.649 98.1042Z" fill="#805400"/>
<path fill-rule="evenodd" clip-rule="evenodd" d="M117.649 98.1042C117.649 98.1042 111.902 96.7278 107.819 101.163C104.491 104.834 104.34 110.339 106.609 115.386C104.643 110.033 106.911 105.598 110.39 106.057C113.868 106.516 120.522 113.857 125.362 115.08C130.201 116.457 135.494 116.916 133.831 121.81C132.319 126.551 127.328 127.469 127.025 127.469C133.982 127.01 140.031 123.645 142.3 118.292C145.93 109.728 139.427 102.234 130.806 100.551C122.186 98.8689 117.649 98.1042 117.649 98.1042Z" fill="#744A00"/>
<path fill-rule="evenodd" clip-rule="evenodd" d="M117.649 98.1042C117.649 98.1042 111.902 96.7278 107.819 101.163C105.399 103.916 104.643 107.739 105.399 111.563C105.853 100.857 110.39 103.763 116.742 107.739C119.01 109.116 121.43 110.033 123.85 110.645C132.319 112.786 143.057 106.975 141.998 115.08C140.939 122.88 133.529 126.245 133.378 126.398C137.612 124.869 140.939 122.269 142.603 118.445C146.233 109.881 139.729 102.387 131.109 100.704C122.186 98.8689 117.649 98.1042 117.649 98.1042Z" fill="#603B00"/>
<path fill-rule="evenodd" clip-rule="evenodd" d="M117.649 98.1046C117.649 98.1046 115.683 97.6457 113.112 98.1046C107.97 105.293 131.109 110.646 135.343 108.199C139.729 105.752 136.402 102.846 136.251 102.693C134.587 101.775 132.772 101.01 130.655 100.552C122.186 98.8693 117.649 98.1046 117.649 98.1046Z" fill="#3E2400"/>
<path fill-rule="evenodd" clip-rule="evenodd" d="M132.772 108.657C132.772 108.657 133.528 102.08 134.436 98.2569C135.343 94.4335 136.25 89.6924 136.099 88.7747C135.948 87.8571 130.957 86.0218 129.596 85.2571C128.235 84.6454 122.186 83.8807 120.673 85.1042C119.161 86.3277 118.405 90.457 117.8 92.5982C117.346 94.7393 115.834 100.551 114.926 104.069C118.254 106.974 127.479 109.116 132.772 108.81V108.657Z" fill="#E7BA78"/>
<path fill-rule="evenodd" clip-rule="evenodd" d="M135.192 94.7393C135.797 91.9864 136.099 89.3865 136.099 88.7747C135.948 87.8571 130.957 86.0218 129.596 85.2571C128.235 84.6454 122.186 83.8807 120.674 85.1042C119.766 85.8689 119.01 87.8571 118.556 89.6924C118.556 89.6924 119.917 86.4806 122.488 86.3277C125.059 86.1748 127.63 85.8689 128.235 86.4806C128.84 87.2453 128.084 87.8571 128.689 89.3865C129.294 90.9159 129.143 94.8923 129.748 95.657C130.353 96.4217 130.655 91.3747 131.865 91.0688C133.075 90.7629 135.343 90.9159 135.041 94.5864C135.192 94.7393 135.192 94.7393 135.192 94.7393Z" fill="#CDA163"/>
<path fill-rule="evenodd" clip-rule="evenodd" d="M132.772 108.657C132.772 108.657 133.528 102.081 134.436 98.2573C134.738 96.8808 135.192 95.3514 135.343 93.822C134.889 95.6573 133.377 101.622 128.689 102.845C123.093 104.222 123.547 103.304 121.581 101.316C119.766 99.6337 117.195 97.3396 117.8 93.3632C117.195 95.8102 115.834 101.163 115.078 104.375C118.405 107.281 127.63 109.422 132.923 109.116C132.772 108.81 132.772 108.657 132.772 108.657ZM118.405 90.3044C118.254 90.6103 118.254 91.0691 118.102 91.375C118.254 90.9162 118.405 90.4574 118.405 90.3044Z" fill="#CDA163"/>
<path fill-rule="evenodd" clip-rule="evenodd" d="M132.772 108.657C132.772 108.657 133.075 105.598 133.528 102.387C133.528 102.387 132.167 106.363 127.177 106.516C122.186 106.669 121.278 105.293 119.615 104.834C117.951 104.375 115.229 102.693 115.683 100.704C115.38 101.928 115.078 103.151 114.775 104.222C118.103 107.128 127.328 109.269 132.621 108.963C132.772 108.81 132.772 108.657 132.772 108.657Z" fill="#B78E50"/>
<path fill-rule="evenodd" clip-rule="evenodd" d="M134.133 95.5036C133.226 97.3389 132.318 99.6329 130.201 100.704C128.084 101.621 126.571 102.998 125.21 102.386C123.849 101.774 122.488 100.856 121.278 98.1035C120.068 95.1977 119.615 93.3624 121.278 90.9154C122.942 88.4684 125.967 87.0919 127.025 88.4684C128.084 89.8448 127.933 91.3742 128.084 93.2095C128.386 95.0448 127.781 96.4212 128.991 97.1859C130.201 97.9506 132.318 96.4212 132.621 94.8918C132.772 93.2095 134.284 92.9036 134.133 95.5036Z" fill="#F2C585"/>
<path fill-rule="evenodd" clip-rule="evenodd" d="M125.664 126.703C123.849 126.856 117.8 126.856 113.112 123.033C108.423 119.209 105.55 112.786 107.667 109.421C109.633 106.057 112.204 110.339 115.229 114.162C118.254 117.986 125.21 122.115 128.235 122.115C131.109 121.962 130.655 125.786 125.664 126.703Z" fill="#9C6700"/>
<path fill-rule="evenodd" clip-rule="evenodd" d="M117.649 124.868C119.463 125.327 120.976 125.786 121.278 124.715C121.581 123.645 118.254 122.574 115.985 120.892C113.717 119.209 111.751 117.221 111.297 116.609C110.692 115.998 108.877 121.504 117.649 124.868Z" fill="#BA8325"/>
<path fill-rule="evenodd" clip-rule="evenodd" d="M88.0067 113.398C88.0067 113.398 90.2752 114.315 91.9388 115.845C93.4512 117.374 98.1394 120.739 98.2906 127.162C98.4419 133.586 96.3246 134.809 95.5684 138.938C94.8123 143.221 94.5098 145.821 94.5098 145.821C94.5098 145.821 90.8802 142.456 88.158 139.244C85.4357 136.186 80.1425 131.444 80.8987 125.786C81.6549 119.974 86.6456 112.174 88.0067 113.398Z" fill="#796B00"/>
<path fill-rule="evenodd" clip-rule="evenodd" d="M88.0067 113.398C88.0067 113.398 90.2752 114.315 91.9388 115.845C93.4512 117.374 98.1394 120.739 98.2906 127.162C98.4419 131.292 97.5345 133.28 96.7783 135.268C98.7444 121.045 91.9388 117.833 91.6363 119.209C91.3339 120.739 92.3925 126.55 93.4512 130.221C94.661 134.045 93.9049 137.256 93.9049 138.174C93.9049 139.091 93.9049 143.068 93.6024 142.915C93.2999 142.762 90.5777 135.268 89.2166 131.75C87.8555 128.233 87.2505 118.904 86.6456 118.139C85.8894 117.221 82.2598 123.798 82.8648 128.233C83.4697 132.668 91.9388 142.915 91.9388 142.915C90.7289 141.691 89.3678 140.315 88.158 138.939C85.4357 135.88 80.1425 131.139 80.8987 125.48C81.6549 119.974 86.6456 112.174 88.0067 113.398Z" fill="#695C00"/>
<path fill-rule="evenodd" clip-rule="evenodd" d="M87.0994 114.774C87.0994 114.774 86.9482 113.551 86.797 113.245C86.797 112.939 86.3433 111.41 86.4945 111.104C86.6457 110.798 87.4019 110.645 87.7044 110.798C88.0068 111.104 87.8556 111.563 88.0068 112.327C88.1581 112.939 92.0902 131.445 92.2414 132.821C92.3926 134.198 92.6951 136.186 92.8463 138.327C92.9976 140.315 93.1488 141.692 93.1488 141.692C93.1488 141.692 92.2414 139.398 92.0902 138.174C91.9389 136.798 91.6365 132.21 91.1827 130.986C91.1827 129.61 88.1581 119.21 87.0994 114.774Z" fill="#897A03"/>
<path fill-rule="evenodd" clip-rule="evenodd" d="M98.291 82.1975C98.291 82.1975 103.282 80.5152 104.492 75.3153C106.458 66.139 93.3002 57.1155 82.7138 61.2449C75.0009 64.3037 69.4052 71.1859 70.1614 77.9152C71.22 86.174 79.5379 88.9269 86.9484 86.3269C94.5101 83.7269 98.291 82.1975 98.291 82.1975Z" fill="#805400"/>
<path fill-rule="evenodd" clip-rule="evenodd" d="M98.2911 82.1974C98.2911 82.1974 103.282 80.5151 104.492 75.3152C105.399 71.0329 102.979 66.7506 99.0472 63.8447C102.979 67.0564 103.131 71.4917 100.257 72.8681C97.3836 74.2446 89.0658 71.6446 84.68 72.7152C80.4454 73.9387 76.0596 75.9269 75.1522 71.4917C74.2448 67.2094 77.7232 64.1506 77.8744 63.9977C72.7325 67.5153 69.5565 72.8681 70.3127 77.9151C71.3714 86.1738 79.6892 88.9267 87.0997 86.3268C94.5102 83.7268 98.2911 82.1974 98.2911 82.1974Z" fill="#744A00"/>
<path fill-rule="evenodd" clip-rule="evenodd" d="M98.291 82.1981C98.291 82.1981 103.282 80.5158 104.492 75.3159C105.248 72.1042 104.038 68.8924 101.769 66.2925C106.155 74.7041 101.467 74.5512 94.8126 74.3982C92.5441 74.3982 90.1244 74.8571 88.1583 75.4688C80.7478 77.7629 75.0009 87.0922 72.2787 80.3629C69.5565 73.9394 73.7911 67.9748 73.9423 67.6689C71.3713 70.7277 70.0102 74.3982 70.4639 77.9158C71.5226 86.1745 79.8404 88.9275 87.2509 86.3275C94.5102 83.7275 98.291 82.1981 98.291 82.1981Z" fill="#603B00"/>
<path fill-rule="evenodd" clip-rule="evenodd" d="M98.291 82.1977C98.291 82.1977 100.106 81.5859 101.769 80.0566C102.526 72.1037 82.4114 78.6801 80.1429 82.5036C78.0257 86.48 81.8065 87.0918 81.9577 87.0918C83.6213 87.0918 85.4361 86.7859 87.0997 86.1741C94.5102 83.7271 98.291 82.1977 98.291 82.1977Z" fill="#3E2400"/>
<path fill-rule="evenodd" clip-rule="evenodd" d="M81.9576 81.1268C81.9576 81.1268 84.3774 86.4796 85.436 89.8443C86.3434 93.209 87.8558 97.1854 88.4607 97.7971C88.9144 98.4089 93.7539 97.6442 94.9638 97.4912C96.3249 97.3383 101.316 95.1972 101.921 93.5148C102.525 91.9854 101.316 88.3149 100.711 86.3267C100.106 84.3385 98.5934 79.2915 97.686 76.2327C93.7539 75.621 85.7385 78.2209 81.9576 80.8209C81.9576 80.9738 81.9576 81.1268 81.9576 81.1268Z" fill="#E7BA78"/>
<path fill-rule="evenodd" clip-rule="evenodd" d="M86.3436 92.9037C87.0998 95.3507 88.0072 97.4919 88.3097 97.9507C88.7634 98.5624 93.6029 97.7977 94.8127 97.6448C96.1739 97.4919 101.165 95.3507 101.77 93.6684C102.072 92.5978 101.77 90.9155 101.316 89.2332C101.316 89.2332 101.77 92.2919 99.8035 93.6684C97.8374 95.0448 96.0226 96.4213 95.2664 96.1154C94.5103 95.8095 94.6615 94.8919 93.6029 94.1272C92.393 93.2096 90.8807 90.1508 89.9733 89.8449C89.0658 89.539 91.1831 93.6684 90.427 94.4331C89.6708 95.0448 88.0072 95.9625 86.3436 92.9037Z" fill="#CDA163"/>
<path fill-rule="evenodd" clip-rule="evenodd" d="M81.9576 81.1264C81.9576 81.1264 84.3774 86.4793 85.436 89.8439C85.7385 91.0675 86.1922 92.4439 86.6459 93.6674C86.041 91.9851 84.6799 86.7852 87.8558 83.7264C91.4854 80.0559 91.6366 81.1264 94.0564 81.5852C96.1737 82.0441 99.1983 82.6558 100.559 86.0205C99.9545 83.8793 98.5934 79.1382 97.686 76.3853C93.7539 75.7736 85.7385 78.3735 81.9576 80.9735V81.1264ZM101.316 88.6204C101.164 88.3146 101.164 88.0087 101.013 87.7028C101.164 88.1616 101.164 88.4675 101.316 88.6204Z" fill="#CDA163"/>
<path fill-rule="evenodd" clip-rule="evenodd" d="M81.9576 81.1273C81.9576 81.1273 83.0163 83.5743 84.0749 86.3272C84.0749 86.3272 83.3187 82.6567 87.0996 80.3626C90.8805 77.9156 92.2416 78.5273 93.7539 78.2214C95.2663 77.9156 97.9885 77.9156 98.5934 79.5979C98.2909 78.5273 97.9885 77.4568 97.686 76.5391C93.7539 75.9274 85.7385 78.5273 81.9576 81.1273Z" fill="#B78E50"/>
<path fill-rule="evenodd" clip-rule="evenodd" d="M86.9484 91.833C86.7971 90.1507 86.4947 87.8566 87.5533 86.0213C88.7632 84.339 89.3681 82.5037 90.578 82.5037C91.9391 82.3508 93.3002 82.5037 95.5687 84.0331C97.8372 85.7155 99.0471 86.939 98.8959 89.5389C98.7446 92.1389 97.0811 94.5859 95.5687 93.9742C94.0564 93.3624 93.6027 92.1389 92.544 90.7625C91.4854 89.386 91.3341 88.1625 89.973 88.1625C88.6119 88.1625 87.7045 90.3036 88.3095 91.5271C88.9144 92.9036 87.8558 93.8212 86.9484 91.833Z" fill="#F2C585"/>
<path fill-rule="evenodd" clip-rule="evenodd" d="M79.3865 63.8452C80.7476 62.7746 85.2847 60.1747 90.7291 60.9394C96.0223 61.7041 101.164 65.3746 101.013 68.8922C100.862 72.4098 97.0809 70.2687 93.1488 68.7393C89.0655 67.2099 81.9575 67.2099 79.689 68.5863C77.2692 70.1157 75.9081 66.904 79.3865 63.8452Z" fill="#9C6700"/>
<path fill-rule="evenodd" clip-rule="evenodd" d="M86.3433 61.7039C84.6798 62.1627 83.3187 62.4686 83.6211 63.3862C83.7724 64.3038 86.9483 63.6921 89.368 63.845C91.939 63.998 94.2075 64.7626 94.9637 64.9156C95.7199 65.2215 94.51 60.1745 86.3433 61.7039Z" fill="#BA8325"/>
<path fill-rule="evenodd" clip-rule="evenodd" d="M117.195 76.5403C117.195 76.5403 114.927 77.4579 112.809 77.305C110.692 77.152 104.945 77.7638 100.711 73.1756C96.476 68.4345 97.2322 66.1404 95.1149 62.4699C92.9976 58.7993 91.334 56.6582 91.334 56.6582C91.334 56.6582 96.3248 56.8111 100.408 57.27C104.491 57.7288 111.599 57.7288 114.624 62.6228C117.649 67.3639 119.01 76.5403 117.195 76.5403Z" fill="#796B00"/>
<path fill-rule="evenodd" clip-rule="evenodd" d="M117.195 76.5397C117.195 76.5397 114.926 77.4573 112.809 77.3044C110.692 77.1515 104.945 77.7632 100.71 73.1751C97.8369 70.1163 97.2319 68.1281 96.627 65.9869C104.491 77.9162 111.599 75.928 110.994 74.5515C110.238 73.1751 105.701 69.5045 102.374 67.5163C99.0467 65.5281 97.3832 62.4693 96.7782 61.8576C96.1733 61.2458 93.6023 58.187 93.9048 58.187C94.2072 58.187 101.164 61.8576 104.491 63.6928C107.818 65.3752 114.321 72.1045 115.38 72.2574C116.439 72.4104 114.926 65.2222 111.599 62.1634C108.272 59.1047 95.1146 57.1165 95.1146 57.1165C96.7782 57.2694 98.7443 57.4223 100.408 57.5753C104.491 58.0341 111.599 58.0341 114.624 62.9281C117.649 67.3634 119.01 76.5397 117.195 76.5397Z" fill="#695C00"/>
<path fill-rule="evenodd" clip-rule="evenodd" d="M116.893 74.8573C116.893 74.8573 117.8 75.622 118.103 75.9279C118.405 76.0808 119.615 76.9984 119.615 77.3043C119.615 77.6102 119.312 78.2219 118.859 78.2219C118.556 78.2219 118.254 77.7631 117.649 77.3043C117.044 76.8455 102.072 65.6809 101.164 64.7633C100.257 63.8457 98.5934 62.4692 97.2322 60.9398C95.8711 59.4104 94.8125 58.6458 94.8125 58.6458C94.8125 58.6458 96.9298 59.7163 97.8372 60.634C98.7446 61.5516 102.072 64.7633 103.13 65.528C104.34 66.4456 113.263 72.2573 116.893 74.8573Z" fill="#897A03"/>
<g opacity="0.2" style="mix-blend-mode:overlay">
<path fill-rule="evenodd" clip-rule="evenodd" d="M72.5808 45.0352C72.5808 45.0352 67.7414 53.2939 65.6241 56.3526C63.3556 59.4114 60.7846 64.9172 60.1796 66.7525C53.6766 86.1758 151.071 86.1758 144.568 66.7525C143.963 64.9172 141.392 59.4114 139.124 56.3526C136.855 53.2939 132.167 45.0352 132.167 45.0352L112.355 42.5881V40.1411L102.374 41.3646L92.3925 40.2941V42.7411L72.5808 45.0352Z" fill="white"/>
</g>
<path opacity="0.56" fill-rule="evenodd" clip-rule="evenodd" d="M96.7786 80.3633C96.7786 80.3633 111.297 80.975 117.195 80.0574C122.942 78.9868 135.646 75.9281 136.553 77.1516C137.461 78.2221 131.26 82.6574 117.195 84.7985C103.282 86.7867 80.4453 79.9045 96.7786 80.3633Z" fill="#8A7F2B"/>
<g opacity="0.2" style="mix-blend-mode:overlay">
<path fill-rule="evenodd" clip-rule="evenodd" d="M105.399 84.0335C105.399 84.0335 111.902 89.5393 111.146 102.386C110.39 115.233 112.658 146.586 104.038 148.88C95.4177 151.174 103.433 152.397 103.433 152.397C103.433 152.397 123.094 155.456 126.723 144.139C130.353 132.821 128.84 85.257 127.479 82.9629C126.118 80.6688 105.399 82.0453 105.399 84.0335Z" fill="#796B00"/>
</g>
<g opacity="0.2" style="mix-blend-mode:overlay">
<path fill-rule="evenodd" clip-rule="evenodd" d="M74.0935 55.281C72.2786 58.0339 62.9021 64.6103 61.6922 77.6101C60.4824 90.6099 60.1799 137.256 70.1614 144.444C76.8157 149.339 95.2663 150.868 95.2663 150.868C95.2663 150.868 85.5873 142.609 83.9237 129.609C82.2601 116.61 78.9329 84.4924 81.3527 75.7748C83.6212 67.0573 88.9144 60.9397 100.106 59.8692C111.297 58.7986 105.096 56.5045 99.1983 55.8928C92.9977 55.281 76.5132 58.0339 74.0935 55.281Z" fill="white"/>
</g>
<g opacity="0.1" style="mix-blend-mode:overlay">
<path fill-rule="evenodd" clip-rule="evenodd" d="M68.0442 72.8691C66.0781 72.8691 65.4732 77.9161 73.1861 80.9749C80.8991 84.0337 106.609 85.4101 112.658 83.1161C122.337 79.4455 73.1861 78.3749 68.0442 72.8691Z" fill="white"/>
</g>
<g opacity="0.1" style="mix-blend-mode:overlay">
<path fill-rule="evenodd" clip-rule="evenodd" d="M75.0008 86.3279C72.4298 84.0338 68.6489 83.7279 68.1952 88.0102C67.5903 92.1396 71.5224 130.527 75.9082 135.421C80.1427 140.162 77.2693 93.516 75.0008 86.3279Z" fill="white"/>
</g>
<g opacity="0.1" style="mix-blend-mode:overlay">
<path fill-rule="evenodd" clip-rule="evenodd" d="M73.0347 71.7993C72.2786 70.117 73.9421 64.1524 77.723 63.0818C81.5038 62.1642 79.0841 69.1994 78.4792 71.4934C77.8742 73.6346 75.4545 74.2463 73.0347 71.7993Z" fill="white"/>
</g>
<g opacity="0.2" style="mix-blend-mode:overlay">
<path fill-rule="evenodd" clip-rule="evenodd" d="M121.43 61.2461C121.43 61.2461 130.655 70.8812 131.714 93.6692C132.924 116.457 129.748 137.716 128.236 142.457C126.572 147.198 119.766 149.033 121.581 149.798C123.396 150.562 138.671 146.892 141.998 133.28C145.476 119.669 146.232 77.4576 141.998 67.6695C137.763 57.8814 132.168 54.8227 131.714 50.9992C131.26 47.0228 131.714 44.4228 130.202 44.5757C128.689 44.5757 118.103 45.7993 117.195 45.7993C116.288 45.7993 117.044 56.1991 121.43 61.2461Z" fill="white"/>
</g>
<path fill-rule="evenodd" clip-rule="evenodd" d="M76.3619 25H128.538C131.26 25 133.528 27.2941 133.528 30.047C133.528 32.7999 131.26 35.094 128.538 35.094H76.3619C73.6397 35.094 71.3712 32.7999 71.3712 30.047C71.5224 27.2941 73.6397 25 76.3619 25Z" fill="#616161"/>
<g opacity="0.2" style="mix-blend-mode:overlay">
<path fill-rule="evenodd" clip-rule="evenodd" d="M76.5129 25H85.7382C85.7382 25 76.0592 25.3059 75.303 26.0706C74.6981 26.8353 76.0592 27.2941 79.5376 27.2941C82.8647 27.2941 127.025 27.2941 128.084 27.2941C128.991 27.2941 131.108 25.7647 125.21 25.1529H128.689C131.411 25.1529 133.679 27.447 133.679 30.1999C133.679 31.8823 132.772 33.4116 131.562 34.3293C127.025 34.7881 121.278 35.094 115.38 35.2469H100.862C98.8956 35.2469 97.0807 35.094 95.5684 34.941C84.6795 33.8705 75.0005 33.8705 71.6734 31.7293C71.5222 31.2705 71.5222 30.8117 71.5222 30.3529C71.5222 27.2941 73.7907 25 76.5129 25Z" fill="#000003"/>
</g>
<path fill-rule="evenodd" clip-rule="evenodd" d="M68.8001 27.4465H136.251C137.612 27.4465 138.67 28.5171 138.67 29.8936V34.7876C138.67 36.1641 137.612 37.2346 136.251 37.2346H68.8001C67.439 37.2346 66.3803 36.1641 66.3803 34.7876V30.0465C66.3803 28.67 67.439 27.4465 68.8001 27.4465Z" fill="#959696"/>
<g opacity="0.43" style="mix-blend-mode:overlay">
<path fill-rule="evenodd" clip-rule="evenodd" d="M111.902 27.4465H136.251C137.612 27.4465 138.67 28.5171 138.67 29.8936V34.7876C138.67 36.1641 137.612 37.2346 136.251 37.2346H120.22L115.229 36.6229C115.229 36.6229 128.084 36.1641 130.201 35.5523C132.319 34.9405 132.016 29.5877 128.992 28.67C126.118 27.7524 111.902 27.4465 111.902 27.4465Z" fill="#7E7E7D"/>
</g>
<g opacity="0.43" style="mix-blend-mode:overlay">
<path fill-rule="evenodd" clip-rule="evenodd" d="M68.8001 27.4465H89.9729C89.3679 27.4465 70.4636 27.5995 68.9513 28.3642C67.4389 29.1289 67.5902 30.3524 67.7414 31.4229C67.7414 32.6465 67.2877 36.1641 69.7075 36.1641C71.5223 36.1641 91.7877 36.317 102.525 36.4699C113.263 36.4699 133.528 36.317 135.343 36.1641C137.914 36.0111 137.309 32.4935 137.309 31.4229C137.309 30.1994 137.612 29.1289 136.099 28.3642C134.587 27.5995 115.531 27.4465 115.078 27.4465H136.099C137.46 27.4465 138.519 28.5171 138.519 29.8936V34.7876C138.519 36.1641 137.46 37.2346 136.099 37.2346H68.8001C67.439 37.2346 66.3803 36.1641 66.3803 34.7876V30.0465C66.3803 28.67 67.439 27.4465 68.8001 27.4465Z" fill="#464545"/>
</g>
<g opacity="0.2" style="mix-blend-mode:overlay">
<path fill-rule="evenodd" clip-rule="evenodd" d="M82.865 25.4593C81.9576 25.4593 78.7817 25.7652 78.933 26.377C79.0842 26.9887 124.001 26.6828 125.664 26.5299C127.479 26.5299 123.698 25.6123 122.488 25.4593C121.279 25.3064 82.865 25.4593 82.865 25.4593Z" fill="#B2B1B2"/>
</g>
<g opacity="0.43" style="mix-blend-mode:overlay">
<path fill-rule="evenodd" clip-rule="evenodd" d="M78.9328 28.5172C78.0254 28.5172 75.4544 28.3642 74.8495 29.1289C74.2445 29.8936 73.0347 34.4818 77.118 35.0936C80.8988 35.7053 110.39 36.0112 112.053 35.5524C113.717 35.0936 115.834 28.5172 113.414 28.2113C111.146 27.7525 78.9328 28.5172 78.9328 28.5172Z" fill="#B2B1B2"/>
</g>
<g opacity="0.43" style="mix-blend-mode:overlay">
<path fill-rule="evenodd" clip-rule="evenodd" d="M82.5625 29.2821C80.8989 29.2821 79.8403 30.0468 79.8403 31.2704C79.8403 32.4939 79.5378 34.635 84.226 34.635C88.9143 34.788 101.618 35.3997 102.828 34.635C104.038 33.8703 105.248 29.1292 103.282 28.9763C101.164 28.6704 82.5625 29.2821 82.5625 29.2821Z" fill="#CBCBCB"/>
</g>
<g opacity="0.2" style="mix-blend-mode:overlay">
<path fill-rule="evenodd" clip-rule="evenodd" d="M99.3493 30.0478C99.3493 30.0478 101.92 30.2007 102.223 31.2713C102.525 32.3419 102.072 34.483 99.9543 34.3301C97.6858 34.1771 91.4852 34.6359 91.0315 34.0242C90.5778 33.5654 93.3 29.589 99.3493 30.0478Z" fill="white"/>
</g>
<g opacity="0.43" style="mix-blend-mode:overlay">
<path fill-rule="evenodd" clip-rule="evenodd" d="M117.195 28.8235C116.741 29.8941 115.532 34.941 118.405 35.094C121.278 35.3999 128.084 35.2469 128.386 34.7881C128.689 34.1764 130.504 29.8941 128.689 29.2823C127.025 28.8235 117.195 28.8235 117.195 28.8235Z" fill="#B2B1B2"/>
</g>
<path fill-rule="evenodd" clip-rule="evenodd" d="M122.034 162.237C122.942 161.167 122.488 160.249 124.757 160.249C127.025 160.249 127.781 160.555 128.235 161.932C128.689 163.461 130.201 165.143 128.991 165.449C127.933 165.755 126.571 167.132 124.908 167.132C123.396 167.132 120.673 164.837 122.034 162.237Z" fill="#342C00"/>
<path fill-rule="evenodd" clip-rule="evenodd" d="M123.395 162.849C123.698 161.932 122.942 161.473 124.303 161.32C125.664 161.167 126.874 160.861 127.025 161.626C127.176 162.391 127.932 163.308 127.327 163.767C126.723 164.226 125.966 164.379 125.361 163.92C125.059 163.308 124.605 162.085 123.395 162.849Z" fill="#4A4307"/>
<path fill-rule="evenodd" clip-rule="evenodd" d="M116.59 155.967C116.59 155.967 116.288 157.955 115.38 159.332C114.473 160.861 112.658 165.143 107.818 166.214C102.979 167.437 101.618 165.908 98.2907 166.061C94.9635 166.214 92.8463 166.367 92.8463 166.367C92.8463 166.367 94.9635 163.002 96.7783 160.249C98.7444 157.496 101.467 152.602 106.004 152.297C110.389 152.144 117.346 154.744 116.59 155.967Z" fill="#796B00"/>
<path fill-rule="evenodd" clip-rule="evenodd" d="M116.59 155.967C116.59 155.967 116.288 157.955 115.38 159.331C114.473 160.861 112.658 165.143 107.819 166.214C104.643 166.978 102.979 166.672 101.315 166.367C112.507 165.602 114.019 159.637 112.809 159.637C111.599 159.637 107.214 161.473 104.491 163.002C101.769 164.531 99.047 164.531 98.442 164.684C97.6859 164.837 94.6612 165.449 94.8124 165.296C94.9637 164.99 100.257 161.625 102.677 159.943C105.096 158.261 112.204 156.273 112.809 155.661C113.414 154.896 107.819 153.214 104.34 154.284C101.013 155.508 94.5099 163.92 94.5099 163.92C95.2661 162.849 96.0223 161.473 96.9297 160.402C98.8957 157.649 101.618 152.755 106.155 152.449C110.39 152.143 117.346 154.743 116.59 155.967Z" fill="#695C00"/>
<path fill-rule="evenodd" clip-rule="evenodd" d="M115.38 155.508C115.38 155.508 116.287 155.202 116.59 155.05C116.892 154.897 117.951 154.438 118.253 154.438C118.405 154.591 118.707 155.05 118.556 155.355C118.405 155.661 117.951 155.661 117.497 155.814C117.044 155.967 103.432 162.238 102.374 162.544C101.315 162.849 99.8028 163.461 98.2905 163.92C96.7781 164.379 95.7195 164.685 95.7195 164.685C95.7195 164.685 97.2318 163.614 98.2905 163.308C99.3491 163.002 102.827 161.932 103.735 161.473C104.642 161.167 112.053 157.038 115.38 155.508Z" fill="#897A03"/>
<path fill-rule="evenodd" clip-rule="evenodd" d="M135.948 154.591C137.158 155.203 137.914 154.591 138.519 156.732C138.973 158.873 138.973 159.791 137.612 160.555C136.25 161.32 134.889 163.155 134.436 162.238C133.831 161.167 132.167 160.25 131.865 158.72C131.562 157.038 133.226 153.826 135.948 154.591Z" fill="#342C00"/>
<path fill-rule="evenodd" clip-rule="evenodd" d="M135.797 156.121C136.704 156.274 137.007 155.356 137.46 156.733C137.914 158.109 138.519 159.18 137.914 159.486C137.309 159.791 136.553 160.709 135.948 160.25C135.343 159.791 135.041 159.027 135.343 158.415C135.797 157.65 136.855 157.039 135.797 156.121Z" fill="#4A4307"/>
<path fill-rule="evenodd" clip-rule="evenodd" d="M139.88 147.555C139.88 147.555 142.451 151.838 147.442 151.685C156.214 151.532 161.507 137.309 155.306 128.591C150.769 122.015 143.359 118.344 137.612 120.638C130.353 123.391 129.748 131.803 133.68 137.92C137.763 144.344 139.88 147.555 139.88 147.555Z" fill="#805400"/>
<path fill-rule="evenodd" clip-rule="evenodd" d="M139.88 147.556C139.88 147.556 142.451 151.838 147.442 151.686C151.525 151.533 154.853 148.474 156.667 144.192C154.701 148.627 150.618 149.697 148.803 147.25C146.988 144.956 147.442 136.545 145.476 132.874C143.51 129.204 140.637 125.686 144.569 123.851C148.349 122.015 151.677 124.615 151.828 124.615C147.442 120.639 141.998 118.957 137.461 120.639C130.201 123.392 129.596 131.803 133.529 137.921C137.763 144.344 139.88 147.556 139.88 147.556Z" fill="#744A00"/>
<path fill-rule="evenodd" clip-rule="evenodd" d="M139.88 147.555C139.88 147.555 142.451 151.837 147.442 151.684C150.467 151.684 153.189 149.849 155.004 147.096C148.35 153.061 147.593 148.626 146.081 142.508C145.627 140.367 144.72 138.379 143.661 136.543C140.032 130.12 130.353 126.908 135.797 122.932C141.09 119.108 147.442 121.555 147.593 121.708C144.266 120.026 140.637 119.567 137.612 120.638C130.353 123.391 129.748 131.802 133.68 137.92C137.763 144.343 139.88 147.555 139.88 147.555Z" fill="#603B00"/>
<path fill-rule="evenodd" clip-rule="evenodd" d="M139.88 147.555C139.88 147.555 140.788 149.085 142.451 150.308C149.862 149.238 139.578 132.109 135.495 130.885C131.411 129.662 131.714 133.485 131.714 133.485C132.167 135.014 132.772 136.697 133.68 138.073C137.763 144.344 139.88 147.555 139.88 147.555Z" fill="#3E2400"/>
<path fill-rule="evenodd" clip-rule="evenodd" d="M137.309 132.262C137.309 132.262 132.924 135.626 130.201 137.309C127.479 138.991 124.001 141.132 123.698 141.744C123.245 142.356 125.059 146.485 125.362 147.709C125.664 148.932 128.84 153.062 130.353 153.214C131.865 153.367 134.89 151.532 136.553 150.615C138.217 149.697 142.451 147.097 145.022 145.72C144.871 141.897 140.637 135.015 137.309 132.262Z" fill="#E7BA78"/>
<path fill-rule="evenodd" clip-rule="evenodd" d="M127.63 138.837C125.664 140.061 123.849 141.437 123.547 141.743C123.093 142.355 124.908 146.484 125.211 147.708C125.513 148.931 128.689 153.06 130.201 153.213C131.26 153.366 132.772 152.602 134.133 151.837C134.133 151.837 131.411 152.908 129.748 151.378C128.084 149.849 126.42 148.472 126.572 147.708C126.723 146.943 127.479 146.943 128.084 145.719C128.689 144.496 131.109 142.355 131.26 141.437C131.411 140.519 128.084 143.425 127.177 142.814C126.42 142.355 125.211 140.978 127.63 138.837Z" fill="#CDA163"/>
<path fill-rule="evenodd" clip-rule="evenodd" d="M137.309 132.262C137.309 132.262 132.924 135.626 130.201 137.309C129.143 137.921 128.084 138.685 127.025 139.297C128.386 138.379 132.772 135.932 136.251 138.226C140.334 140.826 139.427 141.132 139.427 143.426C139.427 145.568 139.578 148.473 136.856 150.462C138.67 149.391 142.603 147.097 145.022 145.72C144.871 141.897 140.636 135.015 137.309 132.262ZM134.738 151.685C135.041 151.532 135.343 151.379 135.495 151.226C135.192 151.379 134.89 151.532 134.738 151.685Z" fill="#CDA163"/>
<path fill-rule="evenodd" clip-rule="evenodd" d="M137.309 132.262C137.309 132.262 135.343 133.791 133.075 135.321C133.075 135.321 136.251 133.791 139.124 136.85C142.149 139.756 141.846 141.132 142.602 142.509C143.207 143.732 143.812 146.485 142.451 147.25C143.359 146.638 144.266 146.179 145.022 145.72C144.871 141.897 140.636 135.015 137.309 132.262Z" fill="#B78E50"/>
<path fill-rule="evenodd" clip-rule="evenodd" d="M128.689 139.144C130.201 138.685 132.319 137.767 133.982 138.532C135.797 139.297 137.461 139.45 137.914 140.52C138.368 141.744 138.519 142.967 137.612 145.414C136.704 147.861 135.646 149.238 133.377 149.697C130.958 150.155 128.387 149.085 128.689 147.555C128.991 146.026 129.899 145.414 130.958 144.191C132.016 142.967 133.075 142.508 132.772 141.285C132.47 140.061 130.353 139.603 129.294 140.367C128.084 141.132 127.177 140.367 128.689 139.144Z" fill="#F2C585"/>
<path fill-rule="evenodd" clip-rule="evenodd" d="M152.281 125.991C153.491 127.062 156.97 130.733 157.423 135.78C157.877 140.827 155.608 146.332 152.433 147.097C149.257 147.862 150.315 143.732 150.769 139.756C151.223 135.78 149.71 129.05 147.895 127.215C146.232 125.533 148.803 123.544 152.281 125.991Z" fill="#9C6700"/>
<path fill-rule="evenodd" clip-rule="evenodd" d="M155.911 132.109C155.155 130.733 154.55 129.509 153.794 129.968C153.038 130.427 154.247 133.027 154.55 135.474C155.004 137.768 154.852 140.215 154.701 140.827C154.701 141.438 158.936 139.297 155.911 132.109Z" fill="#BA8325"/>
<path fill-rule="evenodd" clip-rule="evenodd" d="M45.9638 118.955C45.9638 118.955 49.1397 123.085 52.9205 124.002C56.7014 124.92 61.8434 123.391 67.1366 126.908C73.0347 130.732 74.0933 139.296 68.044 144.496C61.2384 150.308 55.3403 149.696 51.7107 144.802C46.4175 137.767 50.8033 128.132 49.5934 125.99C48.5348 124.155 44.7539 117.732 45.9638 118.955Z" fill="#DE813B"/>
<path fill-rule="evenodd" clip-rule="evenodd" d="M66.9854 144.802C66.9854 145.261 66.8342 145.261 67.1367 145.567C67.4391 146.026 67.4391 146.79 67.2879 147.249C67.1367 147.708 66.9854 148.779 67.4391 148.014C67.8928 147.249 68.0441 146.484 67.8928 145.873C67.7416 145.261 67.2879 144.343 67.7416 144.649C68.1953 144.802 68.4978 145.567 68.649 145.261C68.649 144.955 68.4978 144.649 68.8002 144.802C69.2539 144.955 70.615 145.873 70.3126 145.414C70.1613 144.955 68.8002 144.496 69.2539 144.19C69.8589 144.037 69.7076 144.802 70.615 144.037C71.5224 143.273 71.22 141.59 70.9175 142.049C70.7663 142.661 71.3712 142.814 70.7663 143.273C70.1613 143.732 70.0101 143.884 69.7076 143.732C69.4052 143.426 69.4052 143.12 68.9515 143.273C68.4978 143.426 68.4978 143.732 68.1953 143.732C67.8928 143.732 67.7416 143.426 67.4391 143.884C67.1366 144.19 66.8342 144.19 66.9854 144.802Z" fill="#5A2B00"/>
<path fill-rule="evenodd" clip-rule="evenodd" d="M52.7692 124.003C50.1982 123.391 49.7445 123.238 47.3248 119.873C44.905 116.509 41.1242 111.921 42.1828 114.215C43.2414 116.662 45.9636 122.167 49.2908 123.544C52.4667 124.92 52.7692 124.003 52.7692 124.003Z" fill="#F0A674"/>
<path fill-rule="evenodd" clip-rule="evenodd" d="M49.7444 128.744C49.5932 126.603 49.7444 127.062 47.7784 124.156C45.9636 121.25 43.8463 118.803 43.2414 116.968C42.6364 115.132 46.871 120.791 48.2321 122.626C49.5932 124.615 51.1055 126.756 49.7444 128.744Z" fill="#F7B888"/>
<path fill-rule="evenodd" clip-rule="evenodd" d="M65.1704 143.578C63.6581 145.261 57.9112 147.555 53.3742 142.355C48.9884 137.308 49.7445 129.202 49.7445 128.743C49.2908 132.72 47.7785 139.449 51.7106 144.649C55.189 149.237 60.6334 150.155 66.9852 145.261C66.9852 145.108 66.9852 144.955 66.9852 144.649C66.834 144.037 67.1365 144.037 67.4389 143.731C67.7414 143.272 67.8926 143.578 68.1951 143.578C68.4976 143.578 68.6488 143.272 68.9513 143.12C69.1025 142.967 69.2538 143.12 69.2538 143.12C73.7908 137.92 72.4297 130.426 66.9852 126.908C65.1704 125.684 63.3556 125.073 61.692 124.767C67.7414 126.449 70.1612 132.873 70.0099 136.543C69.8587 140.214 67.1365 141.743 65.0192 141.131C62.9019 140.52 61.0871 141.743 58.0624 140.978C55.0377 140.214 53.5254 137.155 53.5254 137.155C53.5254 137.155 54.8865 140.061 57.155 141.437C59.726 142.661 66.6828 141.896 65.1704 143.578Z" fill="#D67625"/>
<path fill-rule="evenodd" clip-rule="evenodd" d="M49.1395 134.25C48.9883 137.615 49.2908 141.438 51.7105 144.65C55.1889 149.238 60.6333 150.156 66.9852 145.262C66.9852 145.109 66.9852 144.956 66.9852 144.65C66.8339 144.038 67.1364 144.038 67.4389 143.732C67.7413 143.274 67.8926 143.579 68.195 143.579C68.4975 143.579 68.6487 143.274 68.9512 143.121C69.1024 142.968 69.2537 143.121 69.2537 143.121C73.0345 138.838 72.7321 133.027 69.4049 129.05C74.5469 135.474 69.2537 141.438 68.8 141.744C68.4975 141.897 68.0438 142.203 67.1364 141.744C66.229 141.438 65.3216 141.285 64.263 141.438C63.2043 141.591 61.692 141.591 61.692 141.591C61.692 141.591 63.0531 142.05 64.1117 142.05C65.1704 141.897 65.7753 142.203 66.8339 142.509C67.8926 142.662 67.4389 143.427 66.5315 143.885C65.6241 144.344 65.4728 145.721 63.3555 146.944C61.2383 148.168 57.6086 149.697 53.2229 146.027C49.5932 142.509 49.1395 135.933 49.1395 134.25Z" fill="#BE671B"/>
<path fill-rule="evenodd" clip-rule="evenodd" d="M51.2568 125.379C51.2568 125.379 53.6766 126.909 56.2476 127.062C58.9698 127.215 60.7846 126.756 63.2043 128.591C65.6241 130.273 67.8926 136.85 67.8926 136.85C67.8926 136.85 65.0192 130.579 63.5068 129.356C61.9945 128.132 60.3309 127.826 59.4235 127.826C58.3648 127.826 53.3741 127.673 51.2568 125.379Z" fill="#D67625"/>
<path fill-rule="evenodd" clip-rule="evenodd" d="M50.3495 130.58C50.3495 130.58 49.8958 135.015 51.5593 138.533C53.2229 142.05 55.9451 142.815 55.9451 142.815C55.9451 142.815 49.5933 138.533 50.3495 130.58Z" fill="#D67625"/>
<path fill-rule="evenodd" clip-rule="evenodd" d="M51.8617 126.603C53.5253 127.979 54.8864 128.438 57.1549 128.591C59.4234 128.744 60.1796 128.591 62.2968 130.885C64.4141 133.332 64.7166 134.402 65.624 136.085C66.6826 137.767 65.0191 136.697 63.8092 135.779C62.7505 134.708 61.6919 133.638 60.482 133.179C59.1209 132.72 56.8524 130.12 57.6086 131.65C58.2135 133.179 58.6672 135.167 60.1796 136.391C61.6919 137.614 62.4481 138.073 63.053 138.685C63.658 139.296 60.0283 139.755 58.0623 138.838C56.2475 137.92 55.1888 136.849 53.6765 134.097C52.0129 131.191 51.1055 128.897 52.1642 129.814C53.2228 130.579 55.6425 131.955 54.5839 130.579C53.374 129.203 51.2567 126.45 51.8617 126.603Z" fill="#EA9052"/>
<path fill-rule="evenodd" clip-rule="evenodd" d="M55.9453 125.838C55.9453 125.838 59.2724 124.615 62.902 127.215C66.5316 129.968 68.044 132.415 68.4977 135.168C68.9514 137.768 68.044 138.379 68.9514 138.226C69.8588 138.074 70.1613 131.191 66.0779 127.98C61.8434 124.768 58.365 124.309 55.9453 125.838Z" fill="#EA9052"/>
<path fill-rule="evenodd" clip-rule="evenodd" d="M52.6179 130.732C52.6179 130.732 55.1888 135.932 57.0037 137.156C58.8185 138.379 60.3308 138.532 61.087 138.685C61.8431 138.685 58.9697 137.614 58.516 137.156C57.9111 136.85 58.0623 136.085 58.516 136.085C58.9697 136.238 57.9111 135.779 56.7012 134.709C55.3401 133.485 54.5839 134.097 52.6179 130.732Z" fill="#F29B5C"/>
<path fill-rule="evenodd" clip-rule="evenodd" d="M68.3464 170.038C68.8001 170.65 71.2198 172.485 72.2785 173.403C73.3371 174.167 74.2445 174.779 74.8495 174.932C75.4544 175.085 75.6056 174.932 76.2106 174.932C76.9667 175.085 78.0254 174.779 78.9328 174.014C79.8402 173.097 81.2013 171.414 81.5038 170.344C81.655 169.12 81.655 168.356 81.0501 167.897C80.5964 167.438 79.3865 166.52 78.6303 165.756C77.8741 164.991 77.8741 164.838 76.9667 164.226C76.0593 163.614 74.3958 162.391 73.4883 162.544C72.7322 162.544 67.1365 169.273 68.3464 170.038Z" fill="#CDA163"/>
<path fill-rule="evenodd" clip-rule="evenodd" d="M71.3711 172.638C71.6736 172.944 72.1273 173.097 72.2785 173.403C73.3371 174.167 74.2445 174.779 74.8495 174.932C75.4544 174.932 75.6057 174.932 76.2106 174.932C76.9668 175.085 78.0254 174.779 78.9328 174.014C79.2353 173.709 79.5377 173.403 79.8402 173.097C79.8402 173.097 78.7816 174.167 77.7229 174.167C76.6643 174.167 76.5131 174.167 75.9081 173.709C75.4544 173.25 75.1519 173.25 74.2445 172.638C73.3371 172.026 73.0347 171.414 73.0347 172.179C73.0347 172.791 72.581 173.403 71.976 172.485C72.1273 171.873 71.6736 172.026 71.3711 172.638Z" fill="#B48B4D"/>
<path fill-rule="evenodd" clip-rule="evenodd" d="M68.3464 170.038C68.8001 170.65 71.2198 172.485 72.2785 173.403C72.5809 173.708 72.8834 173.861 73.1859 174.014C73.1859 174.014 71.976 172.332 72.7322 170.191C73.4883 168.05 73.6396 168.508 74.547 167.591C75.4544 166.673 75.9081 165.909 76.8155 165.756C77.7229 165.603 77.7229 165.909 78.6303 166.979C79.5377 168.05 81.8062 168.508 81.3525 170.956C81.5038 170.803 81.5038 170.497 81.5038 170.344C81.655 169.12 81.655 168.356 81.0501 167.897C80.5964 167.438 79.3865 166.52 78.6303 165.756C77.8741 164.991 77.8741 164.838 76.9667 164.226C76.0593 163.614 74.3958 162.391 73.4883 162.544C72.7322 162.544 67.1365 169.273 68.3464 170.038Z" fill="#B48B4D"/>
<path fill-rule="evenodd" clip-rule="evenodd" d="M68.3462 170.037C68.6487 170.496 70.0098 171.566 71.0685 172.484C70.9172 172.331 70.766 172.025 71.0685 171.413C71.5222 170.496 71.8246 170.343 71.9759 169.731C72.1271 169.119 72.1271 168.049 72.8833 166.825C73.7907 165.602 75.7567 163.461 77.4203 164.378C77.2691 164.225 77.2691 164.225 77.1178 164.072C76.2104 163.461 74.5468 162.237 73.6394 162.39C72.732 162.543 67.1364 169.272 68.3462 170.037Z" fill="#997334"/>
<path fill-rule="evenodd" clip-rule="evenodd" d="M70.3126 170.802C70.3126 170.802 67.1366 174.32 63.0533 173.555C58.97 172.943 52.7694 166.52 57.6089 158.414C62.4484 150.155 72.5811 153.52 75.6058 157.344C78.7817 161.167 76.5132 163.155 75.1521 164.073C73.6397 164.838 72.7323 165.908 72.1274 166.673C71.6737 167.285 70.9175 169.732 70.3126 170.802Z" fill="#603B00"/>
<path fill-rule="evenodd" clip-rule="evenodd" d="M60.3309 172.485C56.8525 170.191 53.6766 164.838 57.6087 158.414C57.9111 157.956 58.0624 157.65 58.3648 157.344C58.0624 157.803 56.0963 160.708 58.0624 164.532C60.1796 168.661 67.7414 164.226 69.1025 159.791C70.3123 155.356 67.4389 153.979 65.3216 153.367C68.8 153.062 72.4296 154.438 74.6981 156.273C75.1518 157.803 75.1518 159.332 72.8833 162.238C69.4049 166.826 67.5901 172.332 64.8679 172.638C63.658 172.944 61.8432 172.791 60.3309 172.485Z" fill="#533300"/>
<path fill-rule="evenodd" clip-rule="evenodd" d="M70.3123 170.802C70.3123 170.802 67.1364 174.32 63.0531 173.555C59.8772 173.096 55.6426 169.273 55.9451 163.767C55.9451 163.767 56.3988 168.202 60.6333 170.343C64.8679 172.484 68.0438 164.99 69.8586 163.155C71.6734 161.32 74.8494 154.591 67.4389 153.214C70.9173 153.52 74.2444 155.355 75.7568 157.191C78.9327 161.014 76.6642 163.002 75.3031 163.92C73.7907 164.685 72.8833 165.755 72.2784 166.52C71.6734 167.284 70.9173 169.732 70.3123 170.802Z" fill="#4A2C00"/>
<path fill-rule="evenodd" clip-rule="evenodd" d="M81.3523 170.803C81.3523 170.803 81.0499 171.108 80.4449 171.108C79.84 171.108 79.84 171.414 79.0838 170.803C78.3276 170.191 76.6641 168.967 76.3616 169.273C76.0591 169.579 77.1178 170.191 77.1178 170.803C77.1178 171.414 76.8153 171.414 76.6641 171.567C76.3616 171.72 76.5128 172.332 77.4202 172.638C78.4789 172.791 79.6888 173.708 81.3523 170.803Z" fill="#B48B4D"/>
<path fill-rule="evenodd" clip-rule="evenodd" d="M58.8188 157.496C57.4577 159.178 57.7602 161.473 58.97 161.931C60.0287 162.39 63.3558 159.484 65.0194 159.026C66.8342 158.567 68.3466 157.496 68.0441 156.426C67.8928 155.508 66.9854 153.979 64.5657 154.132C62.4484 154.284 60.1799 155.661 58.8188 157.496Z" fill="#744A00"/>
</svg>
