<svg width="200" height="200" viewBox="0 0 200 200" fill="none" xmlns="http://www.w3.org/2000/svg">
<path opacity="0.5" d="M100 171.346C116.99 171.346 130.762 168.562 130.762 165.129C130.762 161.696 116.99 158.912 100 158.912C83.0103 158.912 69.2375 161.696 69.2375 165.129C69.2375 168.562 83.0103 171.346 100 171.346Z" fill="#B2B1B2"/>
<path fill-rule="evenodd" clip-rule="evenodd" d="M74.9531 171.346C75.2893 170.674 76.2979 169.666 77.9789 169.666C79.6599 169.666 94.4528 171.514 99.1597 171.346C103.866 171.178 118.491 170.17 120.845 169.33C123.198 168.658 124.711 168.826 125.383 169.498C126.056 170.002 125.888 171.178 125.551 171.514C125.215 171.514 96.3019 178.235 74.9531 171.346Z" fill="#959696"/>
<path fill-rule="evenodd" clip-rule="evenodd" d="M74.9531 162.273C74.9531 162.273 86.8883 159.416 101.513 159.921C115.97 160.257 126.56 161.937 126.56 161.937C126.56 161.937 97.9829 154.88 74.9531 162.273Z" fill="#B2B1B2"/>
<path fill-rule="evenodd" clip-rule="evenodd" d="M59.1515 44.994V53.0589C59.1515 53.0589 57.9748 57.7635 54.949 59.4437C4.51869 87.167 49.9059 156.895 70.7504 169.329C83.5261 176.89 116.306 176.89 129.25 169.329C150.094 156.895 195.481 87.167 145.051 59.4437C142.025 57.7635 140.849 53.0589 140.849 53.0589V44.994C107.733 43.6498 92.4355 43.6498 59.1515 44.994ZM59.992 47.5143C57.8067 44.8259 138.159 47.3463 138.159 47.3463C138.159 47.3463 140.512 49.8666 140.512 51.5468C140.512 53.227 139.84 58.6036 140.008 60.2838C140.176 61.964 132.78 62.8041 125.383 62.8041C117.987 62.8041 93.7803 63.1402 80.6684 62.8041C67.7246 62.4681 61.3368 60.9559 61.8411 58.6036C62.3454 56.4193 60.6644 49.8665 59.992 47.5143Z" fill="#91B944"/>
<path opacity="0.5" fill-rule="evenodd" clip-rule="evenodd" d="M59.9918 47.5139C60.6642 49.6982 62.3452 56.419 61.8409 58.7713C61.3366 61.1236 67.7244 62.6357 80.6682 62.9718C93.612 63.3078 117.987 62.9718 125.383 62.9718C132.779 62.9718 140.176 62.1317 140.008 60.4515C139.84 58.7713 140.512 53.3946 140.512 51.7144C140.512 50.0342 138.159 47.5139 138.159 47.5139C138.159 47.5139 57.8065 44.8256 59.9918 47.5139Z" fill="#C5C4C4"/>
<path opacity="0.5" fill-rule="evenodd" clip-rule="evenodd" d="M59.1515 44.9947V53.0597C59.1515 53.0597 57.9748 57.7643 54.949 59.4445C4.51869 87.1678 49.9059 156.896 70.7504 169.33C83.5261 176.891 116.306 176.891 129.25 169.33C150.094 156.896 195.481 87.1678 145.051 59.4445C142.025 57.7643 140.849 53.0597 140.849 53.0597V44.9947C138.663 44.8267 136.478 44.8267 134.461 44.6587C134.293 45.1628 133.956 45.6668 133.788 46.0029C132.948 55.244 138.327 59.7805 141.689 61.2927C185.395 81.4551 166.904 161.601 104.539 173.026C102.858 173.362 101.177 173.194 99.8319 173.194C98.319 173.026 96.8061 173.026 95.1251 173.026C70.078 172.69 -0.188129 112.203 57.1343 60.2846C61.1687 56.5881 66.8841 57.0922 65.8755 46.1709C65.7074 45.6668 65.3712 45.1628 65.2031 44.8267C63.354 44.8267 61.1687 44.8267 59.1515 44.9947Z" fill="#6C8C2A"/>
<path fill-rule="evenodd" clip-rule="evenodd" d="M60.3281 46.675C60.3281 46.675 71.2547 49.5314 80.8364 49.6994C90.4182 49.8674 131.435 50.5395 134.965 49.6994C138.495 48.8593 140.512 46.675 140.512 46.675H60.3281Z" fill="#B2B1B2"/>
<path fill-rule="evenodd" clip-rule="evenodd" d="M59.8242 44.3222H140.849V33.4009C140.849 32.0568 139.672 30.8806 138.327 30.8806H62.0095C60.8328 30.8806 59.8242 31.8887 59.8242 33.0649V44.3222Z" fill="#B8B7B8"/>
<path fill-rule="evenodd" clip-rule="evenodd" d="M140.849 40.4581V39.618C137.319 37.4337 112.272 33.7373 112.272 33.7373C112.272 33.7373 113.28 34.9134 116.138 35.7535C118.659 36.7617 137.823 41.4662 140.849 40.4581Z" fill="#959696"/>
<path fill-rule="evenodd" clip-rule="evenodd" d="M59.8242 37.9377C59.8242 37.9377 60.3285 39.2819 62.5138 39.7859C64.6991 40.29 88.7375 41.6341 88.7375 40.9621C88.7375 40.122 59.8242 37.0976 59.8242 37.9377Z" fill="#A2A3A3"/>
<path fill-rule="evenodd" clip-rule="evenodd" d="M93.9485 31.3843C93.9485 31.3843 64.0266 31.8883 63.0179 31.8883C62.0093 31.8883 61.1688 32.8964 61.6731 34.9127C62.1774 36.9289 61.6731 40.2893 66.0438 40.7934C70.4144 41.2975 101.345 40.7934 101.513 41.2975C101.513 41.8015 93.2761 42.6416 96.1338 42.8097C98.9915 42.9777 109.078 42.6416 109.078 42.6416C109.078 42.6416 135.133 42.9777 136.646 42.1376C138.159 41.2975 141.185 33.5685 136.646 32.5604C131.771 31.5523 93.9485 31.3843 93.9485 31.3843Z" fill="#CBCBCB"/>
<path fill-rule="evenodd" clip-rule="evenodd" d="M93.9485 31.3843C93.9485 31.3843 64.0266 31.8883 63.0179 31.8883C62.0093 31.8883 61.1688 32.8964 61.6731 34.9127C62.1774 36.9289 61.6731 40.2893 66.0438 40.7934C70.4144 41.2975 101.345 40.7934 101.513 41.2975C101.513 41.8015 93.2761 42.6416 96.1338 42.8097C98.9915 42.9777 109.078 42.6416 109.078 42.6416C109.078 42.6416 135.133 42.9777 136.646 42.1376C138.159 41.2975 141.185 33.5685 136.646 32.5604C131.771 31.5523 93.9485 31.3843 93.9485 31.3843Z" fill="#CBCBCB"/>
<path fill-rule="evenodd" clip-rule="evenodd" d="M137.655 40.4573C137.991 39.9533 138.159 39.2812 138.327 38.7771C131.099 36.5929 112.272 33.9045 112.272 33.9045C112.272 33.9045 113.28 35.0807 116.138 35.9208C118.155 36.5929 131.099 39.7852 137.655 40.4573Z" fill="#B2B1B2"/>
<path fill-rule="evenodd" clip-rule="evenodd" d="M79.3236 35.7539C79.3236 35.7539 82.8537 37.7702 89.5778 38.9463C96.4699 40.1224 114.457 41.4666 118.323 41.1306C122.189 40.7945 123.534 39.7864 123.534 39.7864L79.3236 35.7539Z" fill="#B2B1B2"/>
<path fill-rule="evenodd" clip-rule="evenodd" d="M81.173 35.585C81.173 35.585 79.1558 35.585 79.1558 35.921C79.1558 36.257 91.0909 38.4413 98.6555 39.1134C106.22 39.9535 123.702 40.9616 123.702 39.7855C123.534 38.6093 81.173 35.585 81.173 35.585Z" fill="#959696"/>
<path fill-rule="evenodd" clip-rule="evenodd" d="M62.1774 37.9377C62.3455 38.6098 62.6817 39.4499 63.3541 39.954C68.229 40.458 88.7373 41.6342 88.7373 40.9621C88.7373 40.29 68.9014 38.1058 62.1774 37.9377Z" fill="#B2B1B2"/>
<path fill-rule="evenodd" clip-rule="evenodd" d="M58.6473 43.3147H140.849C141.857 43.3147 142.53 44.1548 142.53 44.9949C142.53 46.003 141.689 46.6751 140.849 46.6751H58.6473C57.6387 46.6751 56.9663 45.835 56.9663 44.9949C56.7982 43.9868 57.6387 43.3147 58.6473 43.3147Z" fill="#B2B1B2"/>
<path fill-rule="evenodd" clip-rule="evenodd" d="M58.6473 43.3147H62.1774C60.6645 43.3147 58.8154 43.6507 58.3111 44.3228C57.4706 45.499 58.6473 46.1711 61.3369 46.1711C63.5222 46.1711 114.457 46.1711 133.116 46.1711C137.991 46.1711 141.185 45.835 141.353 44.9949C141.521 44.4908 140.008 43.3147 136.814 43.3147H140.849C141.857 43.3147 142.53 44.1548 142.53 44.9949C142.53 46.003 141.689 46.6751 140.849 46.6751H58.6473C57.6387 46.6751 56.9663 45.835 56.9663 44.9949C56.7982 43.9868 57.6387 43.3147 58.6473 43.3147Z" fill="#7E7E7D"/>
<path fill-rule="evenodd" clip-rule="evenodd" d="M138.831 43.9859C138.831 47.0103 60.1603 44.994 60.1603 43.9859C60.1603 42.9778 138.831 43.9859 138.831 43.9859Z" fill="#CBCBCB"/>
<path fill-rule="evenodd" clip-rule="evenodd" d="M80.8367 43.9866C80.8367 43.9866 129.25 43.8186 127.905 44.3226C122.358 46.1709 63.5223 44.3226 80.8367 43.9866Z" fill="white"/>
<path fill-rule="evenodd" clip-rule="evenodd" d="M59.8241 34.9138C59.8241 34.9138 59.1517 34.9138 58.8154 35.2499C58.4792 35.5859 58.143 37.2661 59.1517 37.7702C60.1603 38.2742 87.5607 41.2986 88.5693 40.7945C89.9141 40.4585 72.2635 36.594 59.8241 34.9138Z" fill="#B2B1B2"/>
<path fill-rule="evenodd" clip-rule="evenodd" d="M59.8241 34.9138C59.8241 34.9138 59.1517 34.9138 58.8154 35.2499C58.4792 35.5859 58.143 37.2661 59.1517 37.7702C60.1603 38.2742 87.5607 41.2986 88.5693 40.7945C88.7374 40.7945 88.5693 40.6265 88.065 40.4585C87.8969 40.7945 87.7288 40.9626 87.7288 40.6265C87.5607 40.2905 57.9749 37.7702 58.9836 35.5859C59.3198 34.9138 60.8327 34.9138 61.0008 34.9138C60.8327 35.0818 60.3284 35.0818 59.8241 34.9138Z" fill="#959696"/>
<path fill-rule="evenodd" clip-rule="evenodd" d="M61.505 35.4175C60.8326 36.0896 61.6731 36.4256 64.1947 36.9297C66.7162 37.4337 86.0478 40.6261 86.0478 40.2901C86.2159 39.954 67.3886 36.0896 61.505 35.4175Z" fill="#E5E5E5"/>
<path fill-rule="evenodd" clip-rule="evenodd" d="M79.1554 35.9206C78.9873 36.7607 121.685 40.7932 123.366 39.9531C127.568 37.9368 79.6597 34.2404 79.1554 35.9206Z" fill="#B2B1B2"/>
<path fill-rule="evenodd" clip-rule="evenodd" d="M83.6944 35.7534C83.3582 35.7534 87.8969 36.4255 90.9228 36.7615C93.9486 37.0976 121.013 39.9539 121.517 39.4499C122.021 38.9458 96.8063 35.5854 83.6944 35.7534Z" fill="#E5E5E5"/>
<path fill-rule="evenodd" clip-rule="evenodd" d="M141.521 37.266C141.521 37.266 142.025 37.602 142.362 37.938C142.53 38.2741 142.362 39.9543 141.185 40.1223C140.008 40.2903 113.112 34.5776 112.272 33.7375C111.431 33.0654 129.25 34.9137 141.521 37.266Z" fill="#B2B1B2"/>
<path fill-rule="evenodd" clip-rule="evenodd" d="M141.521 37.2648C141.521 37.2648 142.025 37.6008 142.362 37.9369C142.53 38.2729 142.362 39.9531 141.185 40.1211C140.008 40.2892 113.112 34.5765 112.272 33.7364C112.103 33.5683 112.44 33.5684 112.776 33.5684C112.776 33.9044 112.944 34.0724 113.112 33.9044C113.448 33.5684 142.362 40.6252 141.857 38.1049C141.689 37.2648 140.176 36.9288 140.176 36.9288C140.681 37.0968 141.017 37.2648 141.521 37.2648Z" fill="#959696"/>
<path fill-rule="evenodd" clip-rule="evenodd" d="M140.008 37.2647C140.344 38.1048 139.504 38.1048 136.982 37.7687C134.461 37.4327 115.129 34.4083 115.129 34.0723C115.129 33.7362 134.125 35.9205 140.008 37.2647Z" fill="#E5E5E5"/>
<path fill-rule="evenodd" clip-rule="evenodd" d="M63.5222 34.7458C63.0179 34.4098 62.5136 32.5616 65.3713 32.5616C68.229 32.5616 132.275 32.3935 134.461 32.8976C136.646 33.4016 137.991 35.4179 137.319 35.7539C136.478 35.9219 112.271 32.7296 110.422 33.5697C108.573 34.5778 118.323 36.9301 118.155 37.4341C117.987 37.9382 79.4918 33.5697 77.9789 34.5778C76.2979 35.5859 84.7029 37.9382 83.8624 38.6103C83.3581 39.2824 63.5222 34.7458 63.5222 34.7458Z" fill="#E1E0E0"/>
<path fill-rule="evenodd" clip-rule="evenodd" d="M76.466 32.8972C76.466 32.8972 126.392 32.8972 129.754 33.0652C133.116 33.2333 135.469 33.4013 135.974 34.2414C136.478 35.0815 135.469 35.0815 134.629 34.9135C133.788 34.7454 127.401 33.5693 118.155 33.5693C108.909 33.5693 102.017 33.7373 102.858 33.9053C103.698 34.0734 110.927 35.0815 108.741 35.9216C106.724 36.5937 76.466 32.8972 76.466 32.8972Z" fill="#F1F2F1"/>
<g opacity="0.2" style="mix-blend-mode:overlay">
<path fill-rule="evenodd" clip-rule="evenodd" d="M84.0305 50.8759C82.8538 51.38 81.1728 53.5642 80.5004 55.5805C79.828 57.5967 80.3323 60.6211 85.0391 61.1251C89.7459 61.6292 105.716 60.9571 105.547 61.6292C104.875 63.9815 56.6301 63.8135 56.1258 60.4531C55.9577 59.613 57.6387 59.781 58.3111 57.2607C58.9835 54.7404 61.3369 49.8678 62.1774 49.8678C63.0179 49.6998 74.4488 51.548 84.0305 50.8759Z" fill="#959696"/>
</g>
<g opacity="0.2" style="mix-blend-mode:overlay">
<path fill-rule="evenodd" clip-rule="evenodd" d="M105.379 61.797C105.379 61.797 124.879 62.133 126.392 61.461C127.905 60.7889 125.887 58.1006 123.366 57.9325C120.844 57.7645 119.163 57.4285 118.155 56.4203C117.146 55.4122 117.987 54.9082 118.659 53.732C119.332 52.5559 119.5 52.5559 118.659 51.0437C117.819 49.5315 117.146 48.3554 118.659 48.3554C120.172 48.3554 133.62 48.3554 135.469 48.1874C137.15 47.8513 136.982 47.6833 137.655 50.7077C138.327 53.732 140.344 58.2686 142.025 59.6127C143.706 60.9569 143.37 61.4609 141.185 61.797C138.999 61.797 125.215 64.4853 105.379 61.797Z" fill="#B2B1B2"/>
</g>
<path opacity="0.5" fill-rule="evenodd" clip-rule="evenodd" d="M86.3836 60.1162C87.056 58.9401 85.7112 52.2193 87.2241 51.8833C88.5689 51.5472 93.9481 50.8751 93.9481 53.5635C93.9481 56.2518 94.2843 60.1163 93.2757 61.1244C92.099 62.1325 84.8707 62.1325 86.3836 60.1162Z" fill="white"/>
<path opacity="0.5" fill-rule="evenodd" clip-rule="evenodd" d="M81.0045 60.1157C81.3407 59.1075 80.6683 53.2269 81.3407 52.8908C82.0131 52.5548 84.1984 52.0507 84.1984 54.403C84.1984 56.7553 84.3665 60.1157 83.8622 60.9558C83.526 61.9639 80.3321 61.9639 81.0045 60.1157Z" fill="white"/>
<g opacity="0.2" style="mix-blend-mode:overlay">
<path fill-rule="evenodd" clip-rule="evenodd" d="M54.2764 61.6282C54.2764 61.6282 43.6861 69.6931 38.6431 82.2947C33.6 94.7282 34.1043 106.658 34.1043 106.658C34.1043 106.658 28.0527 74.3977 54.2764 61.6282Z" fill="#5E7B1A"/>
</g>
<g opacity="0.2" style="mix-blend-mode:overlay">
<path fill-rule="evenodd" clip-rule="evenodd" d="M146.732 61.6282C146.732 61.6282 157.322 69.6931 162.366 82.2947C167.409 94.7282 166.904 106.658 166.904 106.658C166.904 106.658 172.956 74.3977 146.732 61.6282Z" fill="#5E7B1A"/>
</g>
<path fill-rule="evenodd" clip-rule="evenodd" d="M100.673 169.162C105.379 169.162 109.414 165.298 109.414 160.425C109.414 155.721 105.548 151.688 100.673 151.688C95.9658 151.688 91.9313 155.553 91.9313 160.425C91.9313 165.298 95.9658 169.162 100.673 169.162Z" fill="#88AF3B"/>
<path fill-rule="evenodd" clip-rule="evenodd" d="M100.673 151.856C101.009 151.856 101.177 151.856 101.513 151.856C101.345 151.856 95.6296 152.528 95.9658 159.249C96.302 166.137 106.892 166.642 108.573 160.593C108.741 159.753 109.078 159.249 109.246 158.913C109.414 159.417 109.414 159.921 109.414 160.425C109.414 165.297 105.548 169.162 100.673 169.162C95.7977 169.162 91.9313 165.297 91.9313 160.425C91.9313 155.72 95.9658 151.856 100.673 151.856Z" fill="#7A9D30"/>
<path fill-rule="evenodd" clip-rule="evenodd" d="M107.565 155.216C108.741 156.728 109.246 158.408 109.246 160.425C109.246 165.297 105.379 169.162 100.504 169.162C95.6294 169.162 91.7631 165.297 91.7631 160.425C91.7631 158.744 92.2674 157.232 93.1079 155.888C87.2244 169.498 114.793 167.145 107.565 155.216Z" fill="#6C8C2A"/>
<path fill-rule="evenodd" clip-rule="evenodd" d="M96.8062 154.04C96.8062 154.04 99.6639 152.696 103.194 153.368C106.556 154.04 109.414 159.081 106.388 161.601C103.53 164.289 103.026 163.617 102.185 161.769C101.345 159.753 103.698 153.704 96.8062 154.04Z" fill="#9EC549"/>
<path fill-rule="evenodd" clip-rule="evenodd" d="M104.875 154.88C105.548 155.216 107.061 158.241 105.716 158.913C104.539 159.585 104.371 156.728 103.53 155.72C102.858 154.712 103.867 153.536 104.875 154.88Z" fill="#DFE7A7"/>
<path fill-rule="evenodd" clip-rule="evenodd" d="M95.4615 155.721C94.1167 157.401 93.1081 161.433 94.9572 162.273C96.8063 163.113 98.1511 162.945 99.664 162.945C101.177 162.945 101.681 160.761 100.336 158.745C98.9916 156.897 97.8149 153.872 95.4615 155.721Z" fill="#91B944"/>
<path fill-rule="evenodd" clip-rule="evenodd" d="M120.172 163.952C124.879 163.952 128.913 160.088 128.913 155.215C128.913 150.511 125.047 146.478 120.172 146.478C115.465 146.478 111.431 150.343 111.431 155.215C111.599 160.088 115.465 163.952 120.172 163.952Z" fill="#7A9D30"/>
<path fill-rule="evenodd" clip-rule="evenodd" d="M120.172 146.646C120.508 146.646 120.676 146.646 121.013 146.646C120.845 146.646 115.129 147.318 115.465 154.038C115.802 160.927 126.392 161.431 128.073 155.383C128.241 154.542 128.577 154.038 128.745 153.702C128.913 154.206 128.913 154.71 128.913 155.215C128.913 160.087 125.047 163.952 120.172 163.952C115.297 163.952 111.431 160.087 111.431 155.215C111.599 150.51 115.465 146.646 120.172 146.646Z" fill="#6C8C2A"/>
<path fill-rule="evenodd" clip-rule="evenodd" d="M127.064 150.006C128.241 151.518 128.745 153.198 128.745 155.214C128.745 160.087 124.879 163.952 120.004 163.952C115.129 163.952 111.263 160.087 111.263 155.214C111.263 153.534 111.767 152.022 112.608 150.678C106.724 164.456 134.461 161.935 127.064 150.006Z" fill="#5E7B1A"/>
<path fill-rule="evenodd" clip-rule="evenodd" d="M116.306 148.83C116.306 148.83 119.163 147.486 122.694 148.158C126.056 148.83 128.913 153.87 125.888 156.391C123.03 159.079 122.525 158.407 121.685 156.559C121.013 154.71 123.198 148.662 116.306 148.83Z" fill="#88AF3B"/>
<path fill-rule="evenodd" clip-rule="evenodd" d="M124.543 149.838C125.215 150.174 126.728 153.199 125.383 153.871C124.207 154.543 124.038 151.686 123.198 150.678C122.357 149.67 123.366 148.326 124.543 149.838Z" fill="#DFE7A7"/>
<path fill-rule="evenodd" clip-rule="evenodd" d="M73.2722 162.608C77.979 162.608 82.0134 158.744 82.0134 153.871C82.0134 149.167 78.1471 145.134 73.2722 145.134C68.5654 145.134 64.5309 148.999 64.5309 153.871C64.5309 158.744 68.3973 162.608 73.2722 162.608Z" fill="#7A9D30"/>
<path fill-rule="evenodd" clip-rule="evenodd" d="M73.2722 145.302C73.6084 145.302 73.7765 145.302 74.1127 145.302C73.9446 145.302 68.2292 145.974 68.5654 152.694C68.9016 159.583 79.4919 160.087 81.1729 154.039C81.341 153.198 81.6772 152.694 81.8453 152.358C82.0134 152.862 82.0134 153.366 82.0134 153.871C82.0134 158.743 78.1471 162.608 73.2722 162.608C68.3973 162.608 64.5309 158.743 64.5309 153.871C64.5309 149.166 68.3973 145.302 73.2722 145.302Z" fill="#6C8C2A"/>
<path fill-rule="evenodd" clip-rule="evenodd" d="M80.1642 148.662C81.3409 150.174 81.8452 151.854 81.8452 153.871C81.8452 158.743 77.9789 162.608 73.104 162.608C68.2291 162.608 64.3627 158.743 64.3627 153.871C64.3627 152.19 64.867 150.678 65.7075 149.334C59.6559 163.112 87.3926 160.591 80.1642 148.662Z" fill="#5E7B1A"/>
<path fill-rule="evenodd" clip-rule="evenodd" d="M69.2375 147.486C69.2375 147.486 72.0952 146.142 75.6253 146.814C78.9873 147.486 81.8451 152.526 78.8192 155.047C75.9615 157.735 75.4572 157.063 74.6167 155.215C73.9443 153.366 76.1296 147.318 69.2375 147.486Z" fill="#88AF3B"/>
<path fill-rule="evenodd" clip-rule="evenodd" d="M77.4745 148.495C78.1469 148.831 79.6598 151.855 78.315 152.527C77.1383 153.199 76.9702 150.343 76.1297 149.335C75.2892 148.159 76.2978 146.983 77.4745 148.495Z" fill="#DFE7A7"/>
<path d="M89.0733 146.814C93.3439 146.814 96.8059 143.354 96.8059 139.085C96.8059 134.817 93.3439 131.356 89.0733 131.356C84.8027 131.356 81.3406 134.817 81.3406 139.085C81.3406 143.354 84.8027 146.814 89.0733 146.814Z" fill="#7A9D30"/>
<path fill-rule="evenodd" clip-rule="evenodd" d="M89.0733 131.356C89.4095 131.356 89.5776 131.356 89.9138 131.356C89.7457 131.356 84.7027 131.861 84.8708 137.909C85.0389 144.126 94.6206 144.462 96.1335 139.085C96.3016 138.413 96.4697 137.909 96.6378 137.573C96.6378 138.077 96.8059 138.413 96.8059 138.917C96.8059 143.286 93.2758 146.646 89.0733 146.646C84.7027 146.646 81.3406 143.118 81.3406 138.917C81.3406 134.717 84.8708 131.356 89.0733 131.356Z" fill="#6C8C2A"/>
<path fill-rule="evenodd" clip-rule="evenodd" d="M95.2931 134.38C96.3017 135.725 96.806 137.237 96.806 139.085C96.806 143.453 93.2759 146.814 89.0733 146.814C84.7027 146.814 81.3407 143.285 81.3407 139.085C81.3407 137.573 81.845 136.229 82.5174 134.884C76.9701 147.318 101.849 145.134 95.2931 134.38Z" fill="#5E7B1A"/>
<path fill-rule="evenodd" clip-rule="evenodd" d="M85.5432 133.373C85.5432 133.373 88.0647 132.029 91.2586 132.701C94.2845 133.373 96.806 137.742 94.1164 140.094C91.5948 142.447 91.0905 141.942 90.4181 140.094C89.7457 138.582 91.7629 133.205 85.5432 133.373Z" fill="#88AF3B"/>
<path fill-rule="evenodd" clip-rule="evenodd" d="M92.9396 134.213C93.4439 134.549 94.7887 137.237 93.7801 137.741C92.6034 138.245 92.6034 135.893 91.7629 134.885C90.9224 134.045 91.931 132.869 92.9396 134.213Z" fill="#DFE7A7"/>
<path fill-rule="evenodd" clip-rule="evenodd" d="M127.905 139.422C132.611 139.422 136.646 135.557 136.646 130.685C136.646 125.98 132.779 121.948 127.905 121.948C123.198 121.948 119.163 125.812 119.163 130.685C119.331 135.557 123.198 139.422 127.905 139.422Z" fill="#7A9D30"/>
<path fill-rule="evenodd" clip-rule="evenodd" d="M127.905 121.948C128.241 121.948 128.409 121.948 128.745 121.948C128.577 121.948 122.861 122.62 123.198 129.341C123.534 136.229 134.124 136.734 135.805 130.685C135.973 129.845 136.31 129.341 136.478 129.005C136.646 129.509 136.646 130.013 136.646 130.517C136.646 135.389 132.779 139.254 127.905 139.254C123.03 139.254 119.163 135.389 119.163 130.517C119.163 125.644 123.198 121.948 127.905 121.948Z" fill="#6C8C2A"/>
<path fill-rule="evenodd" clip-rule="evenodd" d="M134.965 125.476C136.141 126.988 136.646 128.668 136.646 130.684C136.646 135.557 132.779 139.421 127.905 139.421C123.03 139.421 119.163 135.557 119.163 130.684C119.163 129.004 119.668 127.492 120.508 126.148C114.456 139.757 142.193 137.405 134.965 125.476Z" fill="#5E7B1A"/>
<path fill-rule="evenodd" clip-rule="evenodd" d="M124.038 124.299C124.038 124.299 126.896 122.955 130.426 123.627C133.788 124.299 136.646 129.34 133.62 131.86C130.762 134.549 130.258 133.877 129.417 132.028C128.745 130.012 130.93 123.963 124.038 124.299Z" fill="#88AF3B"/>
<path fill-rule="evenodd" clip-rule="evenodd" d="M132.275 125.14C132.947 125.476 134.46 128.5 133.116 129.172C131.939 129.844 131.771 126.988 130.93 125.98C130.09 124.972 131.098 123.796 132.275 125.14Z" fill="#DFE7A7"/>
<path d="M63.6901 128.5C67.775 128.5 71.0865 125.19 71.0865 121.107C71.0865 117.024 67.775 113.714 63.6901 113.714C59.6051 113.714 56.2936 117.024 56.2936 121.107C56.2936 125.19 59.6051 128.5 63.6901 128.5Z" fill="#7A9D30"/>
<path fill-rule="evenodd" clip-rule="evenodd" d="M63.6902 113.547C63.8583 113.547 64.1945 113.547 64.3626 113.547C64.3626 113.547 59.3196 114.051 59.6558 119.932C59.8239 125.812 69.0694 126.148 70.4142 121.108C70.5823 120.436 70.7504 119.932 70.9185 119.764C70.9185 120.268 71.0866 120.604 71.0866 121.108C71.0866 125.14 67.7246 128.501 63.6902 128.501C59.6558 128.501 56.2938 125.14 56.2938 121.108C56.2938 116.907 59.4877 113.547 63.6902 113.547Z" fill="#6C8C2A"/>
<path fill-rule="evenodd" clip-rule="evenodd" d="M69.5736 116.571C70.5822 117.747 71.0865 119.427 71.0865 121.108C71.0865 125.14 67.7245 128.5 63.6901 128.5C59.6557 128.5 56.2936 125.14 56.2936 121.108C56.2936 119.595 56.6298 118.251 57.4703 117.243C52.0911 128.837 75.7933 126.82 69.5736 116.571Z" fill="#5E7B1A"/>
<path fill-rule="evenodd" clip-rule="evenodd" d="M60.3279 115.564C60.3279 115.564 62.8495 114.388 65.7072 114.892C68.5649 115.564 70.9183 119.764 68.3968 121.949C65.8753 124.133 65.5391 123.629 64.8667 121.949C64.1943 120.436 66.2115 115.396 60.3279 115.564Z" fill="#88AF3B"/>
<path fill-rule="evenodd" clip-rule="evenodd" d="M67.2202 116.235C67.7245 116.571 69.0693 119.091 68.0607 119.595C67.0521 120.1 66.884 117.747 66.2116 116.907C65.3711 116.067 66.3797 115.059 67.2202 116.235Z" fill="#DFE7A7"/>
<path d="M97.4783 119.427C101.47 119.427 104.707 116.192 104.707 112.202C104.707 108.212 101.47 104.977 97.4783 104.977C93.4862 104.977 90.25 108.212 90.25 112.202C90.25 116.192 93.4862 119.427 97.4783 119.427Z" fill="#7A9D30"/>
<path fill-rule="evenodd" clip-rule="evenodd" d="M97.4783 104.977C97.6464 104.977 97.9826 104.977 98.1507 104.977C98.1507 104.977 93.2758 105.481 93.612 111.026C93.7801 116.739 102.689 117.075 104.034 112.202C104.202 111.53 104.37 111.194 104.539 110.858C104.539 111.194 104.707 111.698 104.707 112.034C104.707 115.899 101.513 119.259 97.4783 119.259C93.612 119.259 90.25 116.067 90.25 112.034C90.25 108.17 93.4439 104.977 97.4783 104.977Z" fill="#6C8C2A"/>
<path fill-rule="evenodd" clip-rule="evenodd" d="M103.194 107.834C104.034 109.01 104.707 110.522 104.707 112.202C104.707 116.067 101.513 119.427 97.4783 119.427C93.612 119.427 90.25 116.235 90.25 112.202C90.25 110.858 90.5862 109.514 91.2586 108.338C86.3837 119.595 109.077 117.579 103.194 107.834Z" fill="#5E7B1A"/>
<path fill-rule="evenodd" clip-rule="evenodd" d="M94.2842 106.826C94.2842 106.826 96.6377 105.65 99.4954 106.322C102.353 106.994 104.538 111.027 102.185 113.211C99.8316 115.395 99.3273 114.891 98.823 113.211C97.9825 111.699 99.8316 106.658 94.2842 106.826Z" fill="#88AF3B"/>
<path fill-rule="evenodd" clip-rule="evenodd" d="M101.008 107.665C101.513 108.002 102.857 110.522 101.681 110.858C100.672 111.362 100.504 109.178 99.8316 108.338C99.1591 107.497 99.9996 106.489 101.008 107.665Z" fill="#DFE7A7"/>
<path fill-rule="evenodd" clip-rule="evenodd" d="M155.137 120.771C159.844 120.771 163.879 116.906 163.879 112.034C163.879 107.329 160.012 103.297 155.137 103.297C150.43 103.297 146.396 107.161 146.396 112.034C146.396 116.906 150.43 120.771 155.137 120.771Z" fill="#7A9D30"/>
<path fill-rule="evenodd" clip-rule="evenodd" d="M155.137 103.464C155.473 103.464 155.642 103.464 155.978 103.464C155.81 103.464 150.094 104.136 150.43 110.857C150.767 117.746 161.357 118.25 163.038 112.201C163.206 111.361 163.542 110.857 163.71 110.521C163.879 111.025 163.879 111.529 163.879 112.033C163.879 116.906 160.012 120.77 155.137 120.77C150.262 120.77 146.396 116.906 146.396 112.033C146.396 107.329 150.262 103.464 155.137 103.464Z" fill="#6C8C2A"/>
<path fill-rule="evenodd" clip-rule="evenodd" d="M162.029 106.993C163.206 108.506 163.71 110.186 163.71 112.202C163.71 117.075 159.844 120.939 154.969 120.939C150.094 120.939 146.228 117.075 146.228 112.202C146.228 110.522 146.732 109.01 147.573 107.665C141.689 121.275 169.258 118.923 162.029 106.993Z" fill="#5E7B1A"/>
<path fill-rule="evenodd" clip-rule="evenodd" d="M151.271 105.648C151.271 105.648 154.129 104.304 157.659 104.976C161.021 105.648 163.878 110.689 160.853 113.209C157.995 115.898 157.491 115.226 156.65 113.377C155.81 111.529 158.163 105.48 151.271 105.648Z" fill="#88AF3B"/>
<path fill-rule="evenodd" clip-rule="evenodd" d="M159.34 106.657C160.012 106.993 161.525 110.017 160.18 110.689C159.004 111.361 158.836 108.505 157.995 107.497C157.323 106.489 158.331 105.144 159.34 106.657Z" fill="#DFE7A7"/>
<path d="M146.396 138.918C150.481 138.918 153.792 135.608 153.792 131.525C153.792 127.442 150.481 124.132 146.396 124.132C142.311 124.132 138.999 127.442 138.999 131.525C138.999 135.608 142.311 138.918 146.396 138.918Z" fill="#7A9D30"/>
<path fill-rule="evenodd" clip-rule="evenodd" d="M146.396 123.964C146.564 123.964 146.9 123.964 147.068 123.964C147.068 123.964 142.025 124.468 142.361 130.349C142.529 136.23 151.775 136.566 153.12 131.525C153.288 130.853 153.456 130.349 153.624 130.181C153.624 130.517 153.792 131.021 153.792 131.525C153.792 135.558 150.43 138.918 146.396 138.918C142.361 138.918 138.999 135.558 138.999 131.525C138.999 127.325 142.193 123.964 146.396 123.964Z" fill="#6C8C2A"/>
<path fill-rule="evenodd" clip-rule="evenodd" d="M152.279 126.988C153.288 128.164 153.792 129.845 153.792 131.525C153.792 135.557 150.43 138.918 146.396 138.918C142.361 138.918 138.999 135.557 138.999 131.525C138.999 130.013 139.336 128.668 140.176 127.66C134.797 139.254 158.499 137.238 152.279 126.988Z" fill="#5E7B1A"/>
<path fill-rule="evenodd" clip-rule="evenodd" d="M143.034 125.981C143.034 125.981 145.555 124.805 148.413 125.309C151.271 125.981 153.624 130.182 151.102 132.366C148.581 134.55 148.245 134.046 147.572 132.366C147.068 130.854 148.917 125.813 143.034 125.981Z" fill="#88AF3B"/>
<path fill-rule="evenodd" clip-rule="evenodd" d="M149.926 126.652C150.43 126.988 151.775 129.509 150.766 130.013C149.758 130.517 149.59 128.165 148.917 127.324C148.077 126.652 149.085 125.476 149.926 126.652Z" fill="#DFE7A7"/>
<path d="M59.3197 90.5276C64.1474 90.5276 68.061 86.6159 68.061 81.7905C68.061 76.9652 64.1474 73.0535 59.3197 73.0535C54.4921 73.0535 50.5785 76.9652 50.5785 81.7905C50.5785 86.6159 54.4921 90.5276 59.3197 90.5276Z" fill="#7A9D30"/>
<path fill-rule="evenodd" clip-rule="evenodd" d="M59.3197 73.0535C59.6559 73.0535 59.824 73.0535 60.1602 73.0535C59.9921 73.0535 54.2767 73.7255 54.6129 80.4463C54.9491 87.3352 65.5395 87.8392 67.2205 81.7905C67.3886 80.9504 67.7248 80.4463 67.8929 80.1103C68.061 80.6144 68.061 81.1184 68.061 81.6225C68.061 86.4951 64.1947 90.3595 59.3197 90.3595C54.4448 90.3595 50.5785 86.4951 50.5785 81.6225C50.5785 77.0859 54.4448 73.0535 59.3197 73.0535Z" fill="#6C8C2A"/>
<path fill-rule="evenodd" clip-rule="evenodd" d="M66.2118 76.5813C67.3885 78.0935 67.8928 79.7737 67.8928 81.7899C67.8928 86.6625 64.0265 90.527 59.1515 90.527C54.2766 90.527 50.4103 86.6625 50.4103 81.7899C50.4103 80.1097 50.9146 78.5976 51.7551 77.2534C45.7035 90.863 73.4401 88.5107 66.2118 76.5813Z" fill="#5E7B1A"/>
<path fill-rule="evenodd" clip-rule="evenodd" d="M55.285 75.4052C55.285 75.4052 58.1428 74.061 61.6729 74.7331C65.0349 75.4052 67.8926 80.4458 64.8668 82.9661C62.0091 85.6544 61.5048 84.9823 60.6643 83.1341C59.9919 81.1179 62.1772 75.0691 55.285 75.4052Z" fill="#88AF3B"/>
<path fill-rule="evenodd" clip-rule="evenodd" d="M63.522 76.2454C64.1944 76.5814 65.7074 79.6058 64.3625 80.2779C63.1858 80.9499 63.0177 78.0936 62.1772 77.0855C61.3367 76.0774 62.3453 74.9012 63.522 76.2454Z" fill="#DFE7A7"/>
<path fill-rule="evenodd" clip-rule="evenodd" d="M107.901 94.8965C112.608 94.8965 116.642 91.032 116.642 86.1594C116.642 81.4548 112.776 77.4224 107.901 77.4224C103.194 77.4224 99.1595 81.2868 99.1595 86.1594C99.1595 90.864 103.194 94.8965 107.901 94.8965Z" fill="#7A9D30"/>
<path fill-rule="evenodd" clip-rule="evenodd" d="M107.901 77.4224C108.237 77.4224 108.405 77.4224 108.741 77.4224C108.573 77.4224 102.858 78.0945 103.194 84.8153C103.53 91.7041 114.121 92.2081 115.802 86.1594C115.97 85.3193 116.306 84.8152 116.474 84.4792C116.642 84.9833 116.642 85.4873 116.642 85.9914C116.642 90.864 112.776 94.7284 107.901 94.7284C103.026 94.7284 99.1595 90.864 99.1595 85.9914C99.1595 81.2868 103.194 77.4224 107.901 77.4224Z" fill="#6C8C2A"/>
<path fill-rule="evenodd" clip-rule="evenodd" d="M114.793 80.9502C115.97 82.4624 116.474 84.1426 116.474 86.1588C116.474 91.0314 112.608 94.8959 107.733 94.8959C102.858 94.8959 98.9913 91.0314 98.9913 86.1588C98.9913 84.4786 99.4956 82.9664 100.336 81.6223C94.4526 95.2319 122.021 92.8796 114.793 80.9502Z" fill="#5E7B1A"/>
<path fill-rule="evenodd" clip-rule="evenodd" d="M104.034 79.7741C104.034 79.7741 106.892 78.4299 110.422 79.102C113.784 79.7741 116.642 84.8147 113.616 87.335C110.758 90.0233 110.254 89.3512 109.414 87.503C108.573 85.4868 110.926 79.4381 104.034 79.7741Z" fill="#88AF3B"/>
<path fill-rule="evenodd" clip-rule="evenodd" d="M112.103 80.6143C112.776 80.9503 114.289 83.9747 112.944 84.6468C111.767 85.3188 111.599 82.4625 110.759 81.4544C110.086 80.4463 111.095 79.2701 112.103 80.6143Z" fill="#DFE7A7"/>
<path d="M133.284 80.6148C137.276 80.6148 140.512 77.3801 140.512 73.3899C140.512 69.3997 137.276 66.165 133.284 66.165C129.292 66.165 126.056 69.3997 126.056 73.3899C126.056 77.3801 129.292 80.6148 133.284 80.6148Z" fill="#7A9D30"/>
<path fill-rule="evenodd" clip-rule="evenodd" d="M133.284 66.165C133.452 66.165 133.788 66.165 133.956 66.165C133.956 66.165 129.081 66.6691 129.25 72.3818C129.418 78.0945 138.495 78.5985 139.84 73.5579C140.008 72.8858 140.176 72.3818 140.344 72.2138C140.344 72.5498 140.512 73.0539 140.512 73.5579C140.512 77.5904 137.318 80.7828 133.284 80.7828C129.25 80.7828 126.056 77.5904 126.056 73.5579C126.056 69.3574 129.25 66.165 133.284 66.165Z" fill="#6C8C2A"/>
<path fill-rule="evenodd" clip-rule="evenodd" d="M139.168 69.0217C140.176 70.1979 140.681 71.7101 140.681 73.3903C140.681 77.4227 137.487 80.6151 133.452 80.6151C129.418 80.6151 126.224 77.4227 126.224 73.3903C126.224 72.0461 126.56 70.7019 127.401 69.5258C122.021 81.1192 145.219 79.1029 139.168 69.0217Z" fill="#5E7B1A"/>
<path fill-rule="evenodd" clip-rule="evenodd" d="M130.09 68.0135C130.09 68.0135 132.443 66.8374 135.469 67.5094C138.327 68.1815 140.68 72.214 138.159 74.5663C135.637 76.7505 135.301 76.2465 134.629 74.5663C133.956 72.8861 135.805 67.8455 130.09 68.0135Z" fill="#88AF3B"/>
<path fill-rule="evenodd" clip-rule="evenodd" d="M136.982 68.853C137.487 69.189 138.831 71.7093 137.655 72.2134C136.646 72.7175 136.478 70.3652 135.806 69.5251C135.133 68.685 135.974 67.6768 136.982 68.853Z" fill="#DFE7A7"/>
<path d="M76.6338 135.558C81.4615 135.558 85.3751 131.646 85.3751 126.821C85.3751 121.995 81.4615 118.084 76.6338 118.084C71.8062 118.084 67.8926 121.995 67.8926 126.821C67.8926 131.646 71.8062 135.558 76.6338 135.558Z" fill="#88AF3B"/>
<path fill-rule="evenodd" clip-rule="evenodd" d="M76.6338 118.084C76.97 118.084 77.1381 118.084 77.4743 118.084C77.3062 118.084 71.5908 118.756 71.927 125.477C72.2632 132.365 82.8536 132.87 84.5346 126.821C84.7027 125.981 85.0389 125.477 85.207 125.141C85.3751 125.645 85.3751 126.149 85.3751 126.653C85.3751 131.525 81.5088 135.39 76.6338 135.39C71.7589 135.39 67.8926 131.525 67.8926 126.653C68.0607 121.948 71.927 118.084 76.6338 118.084Z" fill="#7A9D30"/>
<path fill-rule="evenodd" clip-rule="evenodd" d="M83.6942 121.444C84.8709 122.956 85.3752 124.636 85.3752 126.653C85.3752 131.525 81.5089 135.39 76.6339 135.39C71.759 135.39 67.8927 131.525 67.8927 126.653C67.8927 124.973 68.397 123.46 69.2375 122.116C63.1859 135.894 90.9225 133.374 83.6942 121.444Z" fill="#6C8C2A"/>
<path fill-rule="evenodd" clip-rule="evenodd" d="M72.7675 120.268C72.7675 120.268 75.6252 118.924 79.1553 119.596C82.5173 120.268 85.375 125.309 82.3492 127.829C79.4915 130.517 78.9872 129.845 78.1467 127.997C77.4743 126.149 79.6596 120.1 72.7675 120.268Z" fill="#9EC549"/>
<path fill-rule="evenodd" clip-rule="evenodd" d="M81.0045 121.275C81.6769 121.611 83.1898 124.636 81.845 125.308C80.6683 125.98 80.5002 123.124 79.6597 122.115C78.8192 120.939 79.8278 119.763 81.0045 121.275Z" fill="#DFE7A7"/>
<path fill-rule="evenodd" clip-rule="evenodd" d="M71.4228 121.949C70.078 123.629 69.0694 127.661 70.9185 128.501C72.7676 129.341 74.1124 129.173 75.6253 129.173C77.1382 129.173 77.6425 126.989 76.2977 124.973C74.9529 123.125 73.7762 120.1 71.4228 121.949Z" fill="#91B944"/>
<path d="M61.3369 146.31C66.1645 146.31 70.0781 142.399 70.0781 137.573C70.0781 132.748 66.1645 128.836 61.3369 128.836C56.5092 128.836 52.5956 132.748 52.5956 137.573C52.5956 142.399 56.5092 146.31 61.3369 146.31Z" fill="#88AF3B"/>
<path fill-rule="evenodd" clip-rule="evenodd" d="M61.3369 129.004C61.6732 129.004 61.8413 129.004 62.1775 129.004C62.0094 129.004 56.2939 129.676 56.6301 136.397C56.9663 143.285 67.5567 143.789 69.2377 137.741C69.4058 136.901 69.742 136.397 69.9101 136.061C70.0782 136.565 70.0782 137.069 70.0782 137.573C70.0782 142.445 66.2119 146.31 61.3369 146.31C56.462 146.31 52.5957 142.445 52.5957 137.573C52.7638 132.868 56.6301 129.004 61.3369 129.004Z" fill="#7A9D30"/>
<path fill-rule="evenodd" clip-rule="evenodd" d="M68.3972 132.364C69.5739 133.876 70.0782 135.557 70.0782 137.573C70.0782 142.445 66.2119 146.31 61.3369 146.31C56.462 146.31 52.5957 142.445 52.5957 137.573C52.5957 135.893 53.1 134.381 53.9405 133.036C47.8889 146.814 75.6255 144.294 68.3972 132.364Z" fill="#6C8C2A"/>
<path fill-rule="evenodd" clip-rule="evenodd" d="M57.4705 131.188C57.4705 131.188 60.3282 129.844 63.8583 130.516C67.2203 131.188 70.078 136.229 67.0522 138.749C64.1945 141.437 63.6902 140.765 62.8497 138.917C62.1773 137.069 64.3626 131.02 57.4705 131.188Z" fill="#9EC549"/>
<path fill-rule="evenodd" clip-rule="evenodd" d="M65.7075 132.028C66.3799 132.364 67.8928 135.389 66.548 136.061C65.3713 136.733 65.2032 133.877 64.3627 132.868C63.5222 131.86 64.5308 130.684 65.7075 132.028Z" fill="#DFE7A7"/>
<path fill-rule="evenodd" clip-rule="evenodd" d="M56.1258 132.869C54.781 134.549 53.7724 138.581 55.6215 139.422C57.4706 140.262 58.8154 140.094 60.3283 140.094C61.8412 140.094 62.3455 137.909 61.0007 135.893C59.6559 134.045 58.4792 131.021 56.1258 132.869Z" fill="#91B944"/>
<path d="M108.573 151.52C113.122 151.52 116.81 147.834 116.81 143.287C116.81 138.74 113.122 135.054 108.573 135.054C104.024 135.054 100.336 138.74 100.336 143.287C100.336 147.834 104.024 151.52 108.573 151.52Z" fill="#88AF3B"/>
<path fill-rule="evenodd" clip-rule="evenodd" d="M108.573 135.221C108.909 135.221 109.077 135.221 109.414 135.221C109.245 135.221 103.866 135.725 104.202 142.278C104.539 148.831 114.457 149.167 116.138 143.454C116.306 142.614 116.474 142.278 116.81 141.942C116.81 142.446 116.978 142.95 116.978 143.286C116.978 147.823 113.28 151.519 108.741 151.519C104.202 151.519 100.504 147.823 100.504 143.286C100.336 138.918 104.034 135.221 108.573 135.221Z" fill="#7A9D30"/>
<path fill-rule="evenodd" clip-rule="evenodd" d="M115.129 138.414C116.138 139.758 116.81 141.438 116.81 143.287C116.81 147.823 113.112 151.52 108.573 151.52C104.034 151.52 100.336 147.823 100.336 143.287C100.336 141.774 100.841 140.262 101.513 138.918C95.7975 152.024 121.853 149.671 115.129 138.414Z" fill="#6C8C2A"/>
<path fill-rule="evenodd" clip-rule="evenodd" d="M104.875 137.238C104.875 137.238 107.565 135.894 110.758 136.566C113.952 137.238 116.474 141.943 113.784 144.463C111.095 146.983 110.59 146.311 109.918 144.631C109.246 142.783 111.431 137.07 104.875 137.238Z" fill="#9EC549"/>
<path fill-rule="evenodd" clip-rule="evenodd" d="M112.608 138.078C113.112 138.414 114.625 141.27 113.448 141.775C112.272 142.279 112.103 139.758 111.431 138.75C110.422 137.91 111.431 136.902 112.608 138.078Z" fill="#DFE7A7"/>
<path fill-rule="evenodd" clip-rule="evenodd" d="M103.53 138.918C102.185 140.431 101.345 144.295 103.026 145.135C104.707 145.975 106.052 145.807 107.397 145.807C108.91 145.807 109.246 143.791 108.069 141.943C106.892 139.927 105.716 137.07 103.53 138.918Z" fill="#91B944"/>
<path d="M138.327 127.324C142.876 127.324 146.564 123.638 146.564 119.091C146.564 114.544 142.876 110.858 138.327 110.858C133.778 110.858 130.09 114.544 130.09 119.091C130.09 123.638 133.778 127.324 138.327 127.324Z" fill="#88AF3B"/>
<path fill-rule="evenodd" clip-rule="evenodd" d="M138.327 110.858C138.663 110.858 138.831 110.858 139.167 110.858C138.999 110.858 133.62 111.362 133.956 117.915C134.292 124.468 144.21 124.804 145.891 119.091C146.059 118.251 146.228 117.915 146.564 117.579C146.564 118.083 146.732 118.587 146.732 118.923C146.732 123.459 143.034 127.156 138.495 127.156C133.956 127.156 130.258 123.459 130.258 118.923C130.09 114.554 133.788 110.858 138.327 110.858Z" fill="#7A9D30"/>
<path fill-rule="evenodd" clip-rule="evenodd" d="M144.883 114.051C145.891 115.395 146.564 117.075 146.564 118.924C146.564 123.46 142.866 127.157 138.327 127.157C133.788 127.157 130.09 123.46 130.09 118.924C130.09 117.411 130.594 115.899 131.267 114.555C125.551 127.661 151.607 125.308 144.883 114.051Z" fill="#6C8C2A"/>
<path fill-rule="evenodd" clip-rule="evenodd" d="M134.629 112.873C134.629 112.873 137.318 111.529 140.512 112.201C143.706 112.873 146.228 117.578 143.538 120.098C140.848 122.618 140.344 121.946 139.672 120.266C138.999 118.418 141.185 112.705 134.629 112.873Z" fill="#9EC549"/>
<path fill-rule="evenodd" clip-rule="evenodd" d="M142.361 113.881C142.866 114.218 144.379 117.074 143.202 117.578C142.025 118.082 141.857 115.562 141.185 114.554C140.344 113.713 141.185 112.537 142.361 113.881Z" fill="#DFE7A7"/>
<path fill-rule="evenodd" clip-rule="evenodd" d="M133.284 114.554C131.939 116.066 131.099 119.93 132.78 120.77C134.461 121.611 135.806 121.443 137.15 121.443C138.663 121.443 138.999 119.426 137.823 117.578C136.646 115.562 135.469 112.706 133.284 114.554Z" fill="#91B944"/>
<path d="M137.318 157.904C141.868 157.904 145.555 154.218 145.555 149.671C145.555 145.124 141.868 141.438 137.318 141.438C132.769 141.438 129.082 145.124 129.082 149.671C129.082 154.218 132.769 157.904 137.318 157.904Z" fill="#88AF3B"/>
<path fill-rule="evenodd" clip-rule="evenodd" d="M137.318 141.438C137.655 141.438 137.823 141.438 138.159 141.438C137.991 141.438 132.612 141.942 132.948 148.495C133.284 155.048 143.202 155.384 144.883 149.671C145.051 148.831 145.219 148.495 145.555 148.159C145.555 148.663 145.723 149.167 145.723 149.503C145.723 154.04 142.025 157.736 137.486 157.736C132.948 157.736 129.25 154.04 129.25 149.503C129.081 145.134 132.78 141.438 137.318 141.438Z" fill="#7A9D30"/>
<path fill-rule="evenodd" clip-rule="evenodd" d="M143.874 144.631C144.883 145.975 145.555 147.655 145.555 149.503C145.555 154.04 141.857 157.736 137.318 157.736C132.78 157.736 129.082 154.04 129.082 149.503C129.082 147.991 129.586 146.479 130.258 145.135C124.543 158.24 150.598 155.888 143.874 144.631Z" fill="#6C8C2A"/>
<path fill-rule="evenodd" clip-rule="evenodd" d="M133.62 143.622C133.62 143.622 136.31 142.278 139.504 142.95C142.698 143.622 145.219 148.327 142.53 150.847C139.84 153.367 139.336 152.695 138.663 151.015C137.991 148.999 140.176 143.286 133.62 143.622Z" fill="#9EC549"/>
<path fill-rule="evenodd" clip-rule="evenodd" d="M141.353 144.462C141.857 144.798 143.37 147.654 142.194 148.158C141.017 148.662 140.849 146.142 140.176 145.134C139.336 144.294 140.344 143.117 141.353 144.462Z" fill="#DFE7A7"/>
<path fill-rule="evenodd" clip-rule="evenodd" d="M132.443 145.134C131.099 146.646 130.258 150.51 131.939 151.35C133.62 152.19 134.965 152.022 136.31 152.022C137.823 152.022 138.159 150.006 136.982 148.158C135.637 146.142 134.461 143.285 132.443 145.134Z" fill="#91B944"/>
<path d="M125.383 149.166C129.932 149.166 133.62 145.48 133.62 140.933C133.62 136.386 129.932 132.7 125.383 132.7C120.834 132.7 117.146 136.386 117.146 140.933C117.146 145.48 120.834 149.166 125.383 149.166Z" fill="#88AF3B"/>
<path fill-rule="evenodd" clip-rule="evenodd" d="M125.383 132.868C125.719 132.868 125.887 132.868 126.224 132.868C126.056 132.868 120.676 133.372 121.013 139.925C121.349 146.477 131.267 146.813 132.948 141.101C133.116 140.261 133.284 139.925 133.62 139.589C133.62 140.093 133.788 140.597 133.788 140.933C133.788 145.469 130.09 149.166 125.551 149.166C121.013 149.166 117.314 145.469 117.314 140.933C117.146 136.396 120.844 132.868 125.383 132.868Z" fill="#7A9D30"/>
<path fill-rule="evenodd" clip-rule="evenodd" d="M131.939 136.061C132.948 137.405 133.62 139.085 133.62 140.933C133.62 145.47 129.922 149.166 125.383 149.166C120.845 149.166 117.146 145.47 117.146 140.933C117.146 139.421 117.651 137.909 118.323 136.565C112.608 149.502 138.831 147.318 131.939 136.061Z" fill="#6C8C2A"/>
<path fill-rule="evenodd" clip-rule="evenodd" d="M121.685 134.885C121.685 134.885 124.375 133.541 127.568 134.213C130.762 134.885 133.284 139.589 130.594 142.11C127.905 144.63 127.4 143.958 126.728 142.278C126.056 140.429 128.241 134.717 121.685 134.885Z" fill="#9EC549"/>
<path fill-rule="evenodd" clip-rule="evenodd" d="M129.418 135.725C129.922 136.061 131.435 138.917 130.258 139.421C129.082 139.925 128.914 137.405 128.241 136.397C127.401 135.557 128.409 134.549 129.418 135.725Z" fill="#DFE7A7"/>
<path fill-rule="evenodd" clip-rule="evenodd" d="M120.508 136.565C119.163 138.077 118.323 141.942 120.004 142.782C121.685 143.622 123.03 143.454 124.375 143.454C125.887 143.454 126.224 141.438 125.047 139.589C123.702 137.573 122.525 134.717 120.508 136.565Z" fill="#91B944"/>
<path d="M103.698 136.565C108.247 136.565 111.935 132.879 111.935 128.332C111.935 123.785 108.247 120.099 103.698 120.099C99.1492 120.099 95.4614 123.785 95.4614 128.332C95.4614 132.879 99.1492 136.565 103.698 136.565Z" fill="#88AF3B"/>
<path fill-rule="evenodd" clip-rule="evenodd" d="M103.698 120.099C104.035 120.099 104.203 120.099 104.539 120.099C104.371 120.099 98.9915 120.603 99.3277 127.156C99.6639 133.709 109.582 134.045 111.263 128.332C111.431 127.492 111.599 127.156 111.935 126.82C111.935 127.324 112.103 127.828 112.103 128.164C112.103 132.7 108.405 136.397 103.866 136.397C99.3277 136.397 95.6295 132.7 95.6295 128.164C95.6295 123.795 99.3277 120.099 103.698 120.099Z" fill="#7A9D30"/>
<path fill-rule="evenodd" clip-rule="evenodd" d="M110.254 123.459C111.263 124.803 111.935 126.484 111.935 128.332C111.935 132.868 108.237 136.565 103.698 136.565C99.1596 136.565 95.4614 132.868 95.4614 128.332C95.4614 126.82 95.9657 125.307 96.6381 123.963C91.0907 136.901 117.146 134.549 110.254 123.459Z" fill="#6C8C2A"/>
<path fill-rule="evenodd" clip-rule="evenodd" d="M100 122.283C100 122.283 102.69 120.939 105.884 121.611C109.077 122.283 111.599 126.988 108.909 129.508C106.22 132.028 105.715 131.356 105.043 129.676C104.539 127.66 106.556 121.947 100 122.283Z" fill="#9EC549"/>
<path fill-rule="evenodd" clip-rule="evenodd" d="M107.733 123.122C108.237 123.459 109.75 126.315 108.573 126.819C107.397 127.323 107.229 124.803 106.556 123.795C105.716 122.954 106.724 121.778 107.733 123.122Z" fill="#DFE7A7"/>
<path fill-rule="evenodd" clip-rule="evenodd" d="M98.8232 123.963C97.4784 125.476 96.6379 129.34 98.3189 130.18C99.9999 131.02 101.345 130.852 102.69 130.852C104.202 130.852 104.539 128.836 103.362 126.988C102.185 124.972 101.009 122.115 98.8232 123.963Z" fill="#91B944"/>
<path d="M79.8281 113.211C84.3773 113.211 88.0651 109.525 88.0651 104.978C88.0651 100.431 84.3773 96.7449 79.8281 96.7449C75.279 96.7449 71.5912 100.431 71.5912 104.978C71.5912 109.525 75.279 113.211 79.8281 113.211Z" fill="#88AF3B"/>
<path fill-rule="evenodd" clip-rule="evenodd" d="M79.8283 96.9121C80.1645 96.9121 80.3326 96.9121 80.6688 96.9121C80.5007 96.9121 75.1215 97.4162 75.4577 103.969C75.7939 110.522 85.7118 110.858 87.3928 105.145C87.5609 104.305 87.729 103.969 88.0652 103.633C88.0652 104.137 88.2333 104.641 88.2333 104.977C88.2333 109.514 84.5351 113.21 79.9964 113.21C75.4577 113.21 71.7595 109.514 71.7595 104.977C71.7595 100.441 75.2896 96.9121 79.8283 96.9121Z" fill="#7A9D30"/>
<path fill-rule="evenodd" clip-rule="evenodd" d="M86.3842 100.105C87.3928 101.449 88.0652 103.129 88.0652 104.978C88.0652 109.514 84.367 113.211 79.8283 113.211C75.2895 113.211 71.5913 109.514 71.5913 104.978C71.5913 103.465 72.0956 101.953 72.768 100.609C67.2207 113.547 93.2763 111.362 86.3842 100.105Z" fill="#6C8C2A"/>
<path fill-rule="evenodd" clip-rule="evenodd" d="M76.1299 98.9291C76.1299 98.9291 78.8195 97.585 82.0134 98.257C85.2073 98.9291 87.7288 103.634 85.0392 106.154C82.3496 108.674 81.8453 108.002 81.1729 106.322C80.5005 104.474 82.6858 98.7611 76.1299 98.9291Z" fill="#9EC549"/>
<path fill-rule="evenodd" clip-rule="evenodd" d="M83.8627 99.7685C84.367 100.105 85.8799 102.961 84.7032 103.465C83.5265 103.969 83.3584 101.449 82.686 100.441C81.8455 99.6004 82.8541 98.4243 83.8627 99.7685Z" fill="#DFE7A7"/>
<path fill-rule="evenodd" clip-rule="evenodd" d="M74.9531 100.609C73.6083 102.122 72.7678 105.986 74.4488 106.826C76.1298 107.666 77.4746 107.498 78.8194 107.498C80.3324 107.498 80.6686 105.482 79.4918 103.634C78.3151 101.618 77.1384 98.7612 74.9531 100.609Z" fill="#91B944"/>
<path d="M48.8972 119.596C53.4463 119.596 57.1341 115.91 57.1341 111.363C57.1341 106.816 53.4463 103.13 48.8972 103.13C44.348 103.13 40.6602 106.816 40.6602 111.363C40.6602 115.91 44.348 119.596 48.8972 119.596Z" fill="#88AF3B"/>
<path fill-rule="evenodd" clip-rule="evenodd" d="M48.897 103.13C49.2332 103.13 49.4013 103.13 49.7375 103.13C49.5694 103.13 44.1902 103.634 44.5264 110.187C44.8626 116.74 54.7805 117.076 56.4615 111.363C56.6296 110.523 56.7977 110.187 57.1339 109.851C57.1339 110.355 57.302 110.859 57.302 111.195C57.302 115.731 53.6038 119.428 49.0651 119.428C44.5264 119.428 40.8281 115.731 40.8281 111.195C40.66 106.826 44.3583 103.13 48.897 103.13Z" fill="#7A9D30"/>
<path fill-rule="evenodd" clip-rule="evenodd" d="M55.4531 106.49C56.4617 107.834 57.1341 109.515 57.1341 111.363C57.1341 115.899 53.4359 119.596 48.8972 119.596C44.3584 119.596 40.6602 115.899 40.6602 111.363C40.6602 109.851 41.1645 108.338 41.8369 106.994C36.1215 119.932 62.1771 117.748 55.4531 106.49Z" fill="#6C8C2A"/>
<path fill-rule="evenodd" clip-rule="evenodd" d="M45.1989 105.314C45.1989 105.314 47.8885 103.97 51.0824 104.642C54.2763 105.314 56.7978 110.019 54.1082 112.539C51.4186 115.06 50.9143 114.387 50.2419 112.707C49.5695 110.691 51.7548 104.978 45.1989 105.314Z" fill="#9EC549"/>
<path fill-rule="evenodd" clip-rule="evenodd" d="M52.9317 106.153C53.436 106.49 54.9489 109.346 53.7722 109.85C52.5955 110.354 52.4274 107.834 51.755 106.826C50.9145 105.985 51.9231 104.809 52.9317 106.153Z" fill="#DFE7A7"/>
<path fill-rule="evenodd" clip-rule="evenodd" d="M44.0221 106.995C42.6773 108.507 41.8368 112.371 43.5178 113.211C45.1988 114.052 46.5436 113.883 47.8884 113.883C49.4013 113.883 49.7375 111.867 48.5608 110.019C47.216 108.003 46.0393 105.146 44.0221 106.995Z" fill="#91B944"/>
<path d="M84.8711 123.46C88.956 123.46 92.2676 120.15 92.2676 116.067C92.2676 111.984 88.956 108.674 84.8711 108.674C80.7862 108.674 77.4747 111.984 77.4747 116.067C77.4747 120.15 80.7862 123.46 84.8711 123.46Z" fill="#7A9D30"/>
<path fill-rule="evenodd" clip-rule="evenodd" d="M84.8711 108.674C85.0392 108.674 85.3754 108.674 85.5435 108.674C85.5435 108.674 80.5005 109.178 80.8367 115.059C81.0048 120.939 90.2503 121.275 91.5951 116.235C91.7632 115.563 91.9313 115.059 92.0994 114.891C92.0994 115.395 92.2676 115.731 92.2676 116.235C92.2676 120.267 88.9055 123.628 84.8711 123.628C80.8367 123.628 77.4747 120.267 77.4747 116.235C77.4747 112.034 80.8367 108.674 84.8711 108.674Z" fill="#6C8C2A"/>
<path fill-rule="evenodd" clip-rule="evenodd" d="M90.7546 111.698C91.7632 112.874 92.2675 114.554 92.2675 116.234C92.2675 120.267 88.9055 123.627 84.871 123.627C80.8366 123.627 77.4746 120.267 77.4746 116.234C77.4746 114.722 77.8108 113.378 78.6513 112.37C73.2721 123.963 96.9743 121.779 90.7546 111.698Z" fill="#5E7B1A"/>
<path fill-rule="evenodd" clip-rule="evenodd" d="M81.5089 110.522C81.5089 110.522 84.0304 109.345 86.8881 109.849C89.7458 110.522 92.0992 114.722 89.5777 116.906C87.0562 119.091 86.72 118.587 86.0476 116.906C85.5433 115.562 87.3924 110.354 81.5089 110.522Z" fill="#88AF3B"/>
<path fill-rule="evenodd" clip-rule="evenodd" d="M88.5694 111.362C89.0737 111.698 90.4185 114.218 89.4099 114.722C88.4013 115.226 88.2332 112.874 87.5608 112.034C86.7203 111.194 87.5608 110.186 88.5694 111.362Z" fill="#DFE7A7"/>
<path d="M125.719 111.867C129.804 111.867 133.116 108.557 133.116 104.474C133.116 100.391 129.804 97.0815 125.719 97.0815C121.634 97.0815 118.323 100.391 118.323 104.474C118.323 108.557 121.634 111.867 125.719 111.867Z" fill="#7A9D30"/>
<path fill-rule="evenodd" clip-rule="evenodd" d="M125.719 97.0815C125.887 97.0815 126.223 97.0815 126.392 97.0815C126.392 97.0815 121.349 97.5856 121.685 103.466C121.853 109.347 131.098 109.683 132.443 104.642C132.611 103.97 132.779 103.466 132.948 103.298C132.948 103.802 133.116 104.138 133.116 104.642C133.116 108.675 129.754 112.035 125.719 112.035C121.685 112.035 118.323 108.675 118.323 104.642C118.323 100.61 121.685 97.0815 125.719 97.0815Z" fill="#6C8C2A"/>
<path fill-rule="evenodd" clip-rule="evenodd" d="M131.771 99.9382C132.78 101.114 133.284 102.795 133.284 104.475C133.284 108.507 129.922 111.868 125.887 111.868C121.853 111.868 118.491 108.507 118.491 104.475C118.491 102.963 118.827 101.618 119.668 100.61C114.288 112.204 137.823 110.187 131.771 99.9382Z" fill="#5E7B1A"/>
<path fill-rule="evenodd" clip-rule="evenodd" d="M122.357 98.9292C122.357 98.9292 124.879 97.7531 127.736 98.2572C130.594 98.9293 132.947 103.13 130.426 105.314C127.904 107.498 127.568 106.994 126.896 105.314C126.391 103.802 128.409 98.7612 122.357 98.9292Z" fill="#88AF3B"/>
<path fill-rule="evenodd" clip-rule="evenodd" d="M129.418 99.6021C129.922 99.9381 131.267 102.458 130.258 102.962C129.249 103.467 129.081 101.114 128.409 100.274C127.568 99.6021 128.409 98.4259 129.418 99.6021Z" fill="#DFE7A7"/>
<path d="M115.297 129.509C119.846 129.509 123.534 125.823 123.534 121.276C123.534 116.73 119.846 113.043 115.297 113.043C110.748 113.043 107.06 116.73 107.06 121.276C107.06 125.823 110.748 129.509 115.297 129.509Z" fill="#88AF3B"/>
<path fill-rule="evenodd" clip-rule="evenodd" d="M115.297 113.043C115.633 113.043 115.801 113.043 116.138 113.043C115.97 113.043 110.59 113.548 110.927 120.1C111.263 126.653 121.181 126.989 122.862 121.276C123.03 120.436 123.198 120.1 123.534 119.764C123.534 120.268 123.702 120.772 123.702 121.108C123.702 125.645 120.004 129.341 115.465 129.341C110.927 129.341 107.228 125.645 107.228 121.108C107.228 116.74 110.927 113.043 115.297 113.043Z" fill="#7A9D30"/>
<path fill-rule="evenodd" clip-rule="evenodd" d="M121.853 116.237C122.862 117.581 123.534 119.261 123.534 121.109C123.534 125.646 119.836 129.342 115.297 129.342C110.758 129.342 107.06 125.646 107.06 121.109C107.06 119.597 107.564 118.085 108.237 116.741C102.689 129.846 128.745 127.494 121.853 116.237Z" fill="#6C8C2A"/>
<path fill-rule="evenodd" clip-rule="evenodd" d="M111.599 115.06C111.599 115.06 114.288 113.716 117.482 114.388C120.676 115.06 123.198 119.765 120.508 122.285C117.819 124.806 117.314 124.134 116.642 122.453C116.138 120.605 118.155 114.892 111.599 115.06Z" fill="#9EC549"/>
<path fill-rule="evenodd" clip-rule="evenodd" d="M119.332 116.067C119.836 116.403 121.349 119.259 120.172 119.763C118.995 120.268 118.827 117.747 118.155 116.739C117.314 115.899 118.323 114.723 119.332 116.067Z" fill="#DFE7A7"/>
<path fill-rule="evenodd" clip-rule="evenodd" d="M110.422 116.739C109.077 118.251 108.237 122.116 109.918 122.956C111.599 123.796 112.944 123.628 114.288 123.628C115.801 123.628 116.137 121.612 114.961 119.764C113.784 117.747 112.607 114.891 110.422 116.739Z" fill="#91B944"/>
<path d="M85.2072 166.138C89.7563 166.138 93.4441 162.452 93.4441 157.905C93.4441 153.358 89.7563 149.672 85.2072 149.672C80.658 149.672 76.9702 153.358 76.9702 157.905C76.9702 162.452 80.658 166.138 85.2072 166.138Z" fill="#88AF3B"/>
<path fill-rule="evenodd" clip-rule="evenodd" d="M85.207 149.672C85.5432 149.672 85.7113 149.672 86.0475 149.672C85.8794 149.672 80.5002 150.176 80.8364 156.728C81.1726 163.281 91.0905 163.617 92.7715 157.905C92.9396 157.065 93.1077 156.728 93.4439 156.392C93.4439 156.896 93.612 157.401 93.612 157.737C93.612 162.273 89.9138 165.97 85.3751 165.97C80.8364 165.97 77.1381 162.273 77.1381 157.737C76.97 153.368 80.6683 149.672 85.207 149.672Z" fill="#7A9D30"/>
<path fill-rule="evenodd" clip-rule="evenodd" d="M91.5949 152.865C92.6035 154.209 93.2759 155.889 93.2759 157.737C93.2759 162.274 89.5777 165.97 85.0389 165.97C80.5002 165.97 76.802 162.274 76.802 157.737C76.802 156.225 77.3063 154.713 77.9787 153.369C72.4314 166.474 98.487 164.122 91.5949 152.865Z" fill="#6C8C2A"/>
<path fill-rule="evenodd" clip-rule="evenodd" d="M81.5089 151.689C81.5089 151.689 84.1985 150.344 87.3924 151.017C90.5864 151.689 93.1079 156.393 90.4183 158.914C87.7286 161.434 87.2243 160.762 86.5519 159.082C85.8795 157.233 87.8967 151.521 81.5089 151.689Z" fill="#9EC549"/>
<path fill-rule="evenodd" clip-rule="evenodd" d="M89.0735 152.695C89.5778 153.031 91.0907 155.888 89.914 156.392C88.7373 156.896 88.5692 154.375 87.8968 153.367C87.0563 152.527 88.0649 151.351 89.0735 152.695Z" fill="#DFE7A7"/>
<path fill-rule="evenodd" clip-rule="evenodd" d="M80.1639 153.367C78.8191 154.88 77.9786 158.744 79.6596 159.584C81.3406 160.424 82.6854 160.256 84.0302 160.256C85.5431 160.256 85.8793 158.24 84.7026 156.392C83.5259 154.376 82.3492 151.519 80.1639 153.367Z" fill="#91B944"/>
<path d="M86.2158 91.1997C90.2079 91.1997 93.4441 87.9651 93.4441 83.9749C93.4441 79.9847 90.2079 76.75 86.2158 76.75C82.2237 76.75 78.9874 79.9847 78.9874 83.9749C78.9874 87.9651 82.2237 91.1997 86.2158 91.1997Z" fill="#7A9D30"/>
<path fill-rule="evenodd" clip-rule="evenodd" d="M86.2158 76.9172C86.3839 76.9172 86.7201 76.9172 86.8882 76.9172C86.8882 76.9172 82.0132 77.4213 82.3494 82.966C82.5175 88.6787 91.4269 89.0147 92.7717 84.1421C92.9398 83.47 93.1079 83.134 93.276 82.7979C93.276 83.134 93.4441 83.6381 93.4441 83.9741C93.4441 87.8386 90.2502 91.199 86.2158 91.199C82.1813 91.199 78.9874 88.0066 78.9874 83.9741C79.1555 80.1096 82.3494 76.9172 86.2158 76.9172Z" fill="#6C8C2A"/>
<path fill-rule="evenodd" clip-rule="evenodd" d="M91.9312 79.7739C92.7717 80.9501 93.4441 82.4622 93.4441 84.1424C93.4441 88.0069 90.2502 91.3673 86.2158 91.3673C82.1813 91.3673 78.9874 88.1749 78.9874 84.1424C78.9874 82.7983 79.3236 81.4541 79.996 80.278C75.1211 91.5353 97.9828 89.5191 91.9312 79.7739Z" fill="#5E7B1A"/>
<path fill-rule="evenodd" clip-rule="evenodd" d="M83.0217 78.7659C83.0217 78.7659 85.3751 77.5898 88.2328 78.2619C91.0905 78.934 93.2758 82.9665 90.9224 85.1507C88.569 87.335 88.0647 86.8309 87.5604 85.1507C86.888 83.4705 88.7371 78.5979 83.0217 78.7659Z" fill="#88AF3B"/>
<path fill-rule="evenodd" clip-rule="evenodd" d="M89.7458 79.4379C90.2501 79.774 91.5949 82.2943 90.4182 82.6303C89.4096 83.1344 89.2415 80.9501 88.5691 80.11C88.0648 79.2699 88.9053 78.2618 89.7458 79.4379Z" fill="#DFE7A7"/>
<path d="M66.5479 105.314C71.097 105.314 74.7848 101.628 74.7848 97.0806C74.7848 92.5337 71.097 88.8477 66.5479 88.8477C61.9987 88.8477 58.3109 92.5337 58.3109 97.0806C58.3109 101.628 61.9987 105.314 66.5479 105.314Z" fill="#88AF3B"/>
<path fill-rule="evenodd" clip-rule="evenodd" d="M66.5476 89.0151C66.8838 89.0151 67.0519 89.0151 67.3881 89.0151C67.22 89.0151 61.8408 89.5192 62.177 96.072C62.5132 102.625 72.4312 102.961 74.1122 97.2481C74.2803 96.408 74.4484 96.072 74.7846 95.7359C74.7846 96.24 74.9527 96.744 74.9527 97.0801C74.9527 101.617 71.2545 105.313 66.7157 105.313C62.177 105.313 58.4788 101.617 58.4788 97.0801C58.3107 92.7116 62.0089 89.0151 66.5476 89.0151Z" fill="#7A9D30"/>
<path fill-rule="evenodd" clip-rule="evenodd" d="M73.1037 92.208C74.1123 93.5522 74.7847 95.2324 74.7847 97.0806C74.7847 101.617 71.0865 105.314 66.5478 105.314C62.0091 105.314 58.3109 101.617 58.3109 97.0806C58.3109 95.5684 58.8152 94.0562 59.4876 92.7121C53.7721 105.818 79.9959 103.465 73.1037 92.208Z" fill="#6C8C2A"/>
<path fill-rule="evenodd" clip-rule="evenodd" d="M62.8495 91.0322C62.8495 91.0322 65.5391 89.688 68.733 90.3601C71.9269 91.0321 74.4485 95.7367 71.7588 98.257C69.0692 100.777 68.5649 100.105 67.8925 98.425C67.2201 96.5768 69.4054 90.8641 62.8495 91.0322Z" fill="#9EC549"/>
<path fill-rule="evenodd" clip-rule="evenodd" d="M70.5823 91.8723C71.0866 92.2083 72.5995 95.0647 71.4228 95.5687C70.2461 96.0728 70.078 93.5525 69.4056 92.5443C68.5651 91.7042 69.5737 90.6961 70.5823 91.8723Z" fill="#DFE7A7"/>
<path fill-rule="evenodd" clip-rule="evenodd" d="M61.6727 92.7124C60.3279 94.2246 59.4874 98.0891 61.1684 98.9292C62.8494 99.7693 64.1942 99.6013 65.539 99.6013C67.052 99.6013 67.3882 97.585 66.2115 95.7368C65.0347 93.7206 63.858 90.8642 61.6727 92.7124Z" fill="#91B944"/>
<path d="M105.884 108.506C110.433 108.506 114.121 104.82 114.121 100.273C114.121 95.7263 110.433 92.0403 105.884 92.0403C101.335 92.0403 97.6467 95.7263 97.6467 100.273C97.6467 104.82 101.335 108.506 105.884 108.506Z" fill="#88AF3B"/>
<path fill-rule="evenodd" clip-rule="evenodd" d="M105.883 92.2078C106.22 92.2078 106.388 92.2078 106.724 92.2078C106.556 92.2078 101.177 92.7118 101.513 99.2646C101.849 105.817 111.767 106.153 113.448 100.441C113.616 99.6006 113.784 99.2646 114.12 98.9286C114.12 99.4326 114.289 99.9367 114.289 100.273C114.289 104.809 110.59 108.506 106.052 108.506C101.513 108.506 97.8147 104.809 97.8147 100.273C97.6466 95.9042 101.345 92.2078 105.883 92.2078Z" fill="#7A9D30"/>
<path fill-rule="evenodd" clip-rule="evenodd" d="M112.44 95.4006C113.448 96.7448 114.121 98.425 114.121 100.273C114.121 104.81 110.422 108.506 105.884 108.506C101.345 108.506 97.6467 104.81 97.6467 100.273C97.6467 98.7611 98.151 97.2489 98.8234 95.9047C93.108 109.01 119.164 106.658 112.44 95.4006Z" fill="#6C8C2A"/>
<path fill-rule="evenodd" clip-rule="evenodd" d="M102.185 94.2248C102.185 94.2248 104.875 92.8806 108.069 93.5527C111.263 94.2248 113.784 98.9293 111.095 101.45C108.405 103.97 107.901 103.298 107.228 101.618C106.556 99.7694 108.741 94.0567 102.185 94.2248Z" fill="#9EC549"/>
<path fill-rule="evenodd" clip-rule="evenodd" d="M109.918 95.0647C110.423 95.4007 111.935 98.257 110.759 98.7611C109.582 99.2652 109.414 96.7449 108.742 95.7368C107.901 94.8966 108.742 93.8885 109.918 95.0647Z" fill="#DFE7A7"/>
<path fill-rule="evenodd" clip-rule="evenodd" d="M100.841 95.9051C99.496 97.4173 98.6554 101.282 100.336 102.122C102.017 102.962 103.362 102.794 104.707 102.794C106.22 102.794 106.556 100.778 105.379 98.9294C104.203 96.9132 103.026 94.0568 100.841 95.9051Z" fill="#91B944"/>
<path d="M152.28 95.4001C157.107 95.4001 161.021 91.4884 161.021 86.6631C161.021 81.8377 157.107 77.926 152.28 77.926C147.452 77.926 143.538 81.8377 143.538 86.6631C143.538 91.4884 147.452 95.4001 152.28 95.4001Z" fill="#7A9D30"/>
<path fill-rule="evenodd" clip-rule="evenodd" d="M152.28 78.0935C152.616 78.0935 152.784 78.0935 153.12 78.0935C152.952 78.0935 147.237 78.7656 147.573 85.4864C147.909 92.3752 158.499 92.8793 160.18 86.8305C160.348 85.9904 160.685 85.4864 160.853 85.1503C161.021 85.6544 161.021 86.1585 161.021 86.6625C161.021 91.5351 157.154 95.3996 152.28 95.3996C147.405 95.3996 143.538 91.5351 143.538 86.6625C143.538 81.958 147.573 78.0935 152.28 78.0935Z" fill="#6C8C2A"/>
<path fill-rule="evenodd" clip-rule="evenodd" d="M159.172 81.4539C160.348 82.966 160.853 84.6462 160.853 86.6625C160.853 91.5351 156.986 95.3995 152.111 95.3995C147.236 95.3995 143.37 91.5351 143.37 86.6625C143.37 84.9823 143.874 83.4701 144.715 82.1259C138.831 95.9036 166.568 93.3833 159.172 81.4539Z" fill="#5E7B1A"/>
<path fill-rule="evenodd" clip-rule="evenodd" d="M148.413 80.2777C148.413 80.2777 151.271 78.9336 154.801 79.6057C158.163 80.2777 161.021 85.3183 157.995 87.8386C155.137 90.527 154.633 89.8549 153.792 88.0067C153.12 85.9904 155.305 79.9417 148.413 80.2777Z" fill="#88AF3B"/>
<path fill-rule="evenodd" clip-rule="evenodd" d="M156.482 81.1179C157.154 81.454 158.667 84.4784 157.322 85.1504C156.146 85.8225 155.977 82.9662 155.137 81.958C154.465 80.9499 155.473 79.7738 156.482 81.1179Z" fill="#DFE7A7"/>
<path d="M140.512 110.187C145.061 110.187 148.749 106.501 148.749 101.954C148.749 97.407 145.061 93.7209 140.512 93.7209C135.963 93.7209 132.275 97.407 132.275 101.954C132.275 106.501 135.963 110.187 140.512 110.187Z" fill="#88AF3B"/>
<path fill-rule="evenodd" clip-rule="evenodd" d="M140.512 93.7212C140.849 93.7212 141.017 93.7212 141.353 93.7212C141.185 93.7212 135.806 94.2253 136.142 100.778C136.478 107.331 146.396 107.667 148.077 101.954C148.245 101.114 148.413 100.778 148.749 100.442C148.749 100.946 148.917 101.45 148.917 101.786C148.917 106.323 145.219 110.019 140.681 110.019C136.142 110.019 132.444 106.323 132.444 101.786C132.444 97.4176 135.974 93.7212 140.512 93.7212Z" fill="#7A9D30"/>
<path fill-rule="evenodd" clip-rule="evenodd" d="M147.068 96.9143C148.077 98.2585 148.749 99.9387 148.749 101.787C148.749 106.323 145.051 110.02 140.512 110.02C135.974 110.02 132.275 106.323 132.275 101.787C132.275 100.275 132.78 98.7625 133.452 97.4184C127.905 110.524 153.96 108.172 147.068 96.9143Z" fill="#6C8C2A"/>
<path fill-rule="evenodd" clip-rule="evenodd" d="M136.814 95.9057C136.814 95.9057 139.504 94.5615 142.698 95.2336C145.891 95.9057 148.413 100.61 145.723 103.131C143.034 105.651 142.529 104.979 141.857 103.299C141.185 101.282 143.37 95.5696 136.814 95.9057Z" fill="#9EC549"/>
<path fill-rule="evenodd" clip-rule="evenodd" d="M144.547 96.7448C145.051 97.0808 146.564 99.9372 145.387 100.441C144.211 100.945 144.043 98.425 143.37 97.4169C142.53 96.5768 143.538 95.4006 144.547 96.7448Z" fill="#DFE7A7"/>
<path fill-rule="evenodd" clip-rule="evenodd" d="M135.637 97.4175C134.292 98.9297 133.452 102.794 135.133 103.634C136.814 104.474 138.159 104.306 139.504 104.306C141.016 104.306 141.353 102.29 140.176 100.442C138.999 98.5936 137.823 95.7373 135.637 97.4175Z" fill="#91B944"/>
<path d="M116.642 79.9435C120.727 79.9435 124.038 76.6336 124.038 72.5506C124.038 68.4676 120.727 65.1577 116.642 65.1577C112.557 65.1577 109.246 68.4676 109.246 72.5506C109.246 76.6336 112.557 79.9435 116.642 79.9435Z" fill="#7A9D30"/>
<path fill-rule="evenodd" clip-rule="evenodd" d="M116.642 65.1577C116.81 65.1577 117.146 65.1577 117.314 65.1577C117.314 65.1577 112.271 65.6618 112.608 71.5425C112.776 77.4232 122.021 77.7592 123.366 72.7186C123.534 72.0465 123.702 71.5425 123.87 71.3745C123.87 71.8785 124.038 72.2146 124.038 72.7186C124.038 76.7511 120.676 80.1115 116.642 80.1115C112.608 80.1115 109.246 76.7511 109.246 72.7186C109.246 68.3501 112.439 65.1577 116.642 65.1577Z" fill="#6C8C2A"/>
<path fill-rule="evenodd" clip-rule="evenodd" d="M122.526 68.0144C123.534 69.1905 124.038 70.8707 124.038 72.5509C124.038 76.5834 120.676 79.9438 116.642 79.9438C112.608 79.9438 109.246 76.5834 109.246 72.5509C109.246 71.0388 109.582 69.6946 110.422 68.6865C105.043 80.2799 128.745 78.2636 122.526 68.0144Z" fill="#5E7B1A"/>
<path fill-rule="evenodd" clip-rule="evenodd" d="M113.28 67.0054C113.28 67.0054 115.801 65.8293 118.659 66.3333C121.517 67.0054 123.87 71.2059 121.349 73.3902C118.827 75.5744 118.491 75.0704 117.819 73.3902C117.314 71.878 119.163 66.8374 113.28 67.0054Z" fill="#88AF3B"/>
<path fill-rule="evenodd" clip-rule="evenodd" d="M120.172 67.6783C120.676 68.0143 122.021 70.5346 121.013 71.0387C120.004 71.5427 119.836 69.1905 119.164 68.3504C118.323 67.6783 119.332 66.5021 120.172 67.6783Z" fill="#DFE7A7"/>
<path d="M125.215 94.392C129.765 94.392 133.452 90.706 133.452 86.159C133.452 81.612 129.765 77.926 125.215 77.926C120.666 77.926 116.978 81.612 116.978 86.159C116.978 90.706 120.666 94.392 125.215 94.392Z" fill="#88AF3B"/>
<path fill-rule="evenodd" clip-rule="evenodd" d="M125.215 77.926C125.552 77.926 125.72 77.926 126.056 77.926C125.888 77.926 120.509 78.4301 120.845 84.9829C121.181 91.5357 131.099 91.8717 132.78 86.159C132.948 85.3189 133.116 84.9829 133.452 84.6468C133.452 85.1509 133.62 85.655 133.62 85.991C133.62 90.5275 129.922 94.224 125.384 94.224C120.845 94.224 117.147 90.5275 117.147 85.991C117.147 81.6225 120.677 77.926 125.215 77.926Z" fill="#7A9D30"/>
<path fill-rule="evenodd" clip-rule="evenodd" d="M131.771 81.1191C132.78 82.4633 133.452 84.1435 133.452 85.9917C133.452 90.5283 129.754 94.2247 125.215 94.2247C120.677 94.2247 116.978 90.5283 116.978 85.9917C116.978 84.4796 117.483 82.9674 118.155 81.6232C112.608 94.7288 138.663 92.3765 131.771 81.1191Z" fill="#6C8C2A"/>
<path fill-rule="evenodd" clip-rule="evenodd" d="M121.517 80.1105C121.517 80.1105 124.207 78.7663 127.401 79.4384C130.595 80.1105 133.116 84.8151 130.426 87.3354C127.737 89.8557 127.233 89.1836 126.56 87.5034C125.888 85.4872 128.073 79.7745 121.517 80.1105Z" fill="#9EC549"/>
<path fill-rule="evenodd" clip-rule="evenodd" d="M129.25 80.9496C129.754 81.2857 131.267 84.142 130.09 84.6461C128.914 85.1501 128.746 82.6298 128.073 81.6217C127.233 80.7816 128.241 79.6055 129.25 80.9496Z" fill="#DFE7A7"/>
<path fill-rule="evenodd" clip-rule="evenodd" d="M120.34 81.6219C118.995 83.134 118.155 86.9985 119.836 87.8386C121.517 88.6787 122.862 88.5107 124.207 88.5107C125.72 88.5107 126.056 86.4945 124.879 84.6462C123.702 82.63 122.526 79.7736 120.34 81.6219Z" fill="#91B944"/>
<path d="M94.1167 105.481C98.6658 105.481 102.354 101.795 102.354 97.2484C102.354 92.7014 98.6658 89.0154 94.1167 89.0154C89.5676 89.0154 85.8798 92.7014 85.8798 97.2484C85.8798 101.795 89.5676 105.481 94.1167 105.481Z" fill="#88AF3B"/>
<path fill-rule="evenodd" clip-rule="evenodd" d="M94.1168 89.0154C94.453 89.0154 94.6211 89.0154 94.9573 89.0154C94.7892 89.0154 89.41 89.5194 89.7462 96.0722C90.0824 102.625 100 102.961 101.681 97.2484C101.849 96.4083 102.018 96.0722 102.354 95.7362C102.354 96.2402 102.522 96.7443 102.522 97.0803C102.522 101.617 98.8236 105.313 94.2849 105.313C89.7462 105.313 86.048 101.617 86.048 97.0803C86.048 92.7118 89.5781 89.0154 94.1168 89.0154Z" fill="#7A9D30"/>
<path fill-rule="evenodd" clip-rule="evenodd" d="M100.673 92.2085C101.681 93.5527 102.354 95.2328 102.354 97.0811C102.354 101.618 98.6554 105.314 94.1167 105.314C89.578 105.314 85.8798 101.618 85.8798 97.0811C85.8798 95.5689 86.3841 94.0567 87.0565 92.7126C81.341 105.818 107.565 103.466 100.673 92.2085Z" fill="#6C8C2A"/>
<path fill-rule="evenodd" clip-rule="evenodd" d="M90.4184 91.0307C90.4184 91.0307 93.108 89.6865 96.3019 90.3586C99.4958 91.0307 102.017 95.7353 99.3277 98.2556C96.6381 100.776 96.1338 100.104 95.4614 98.4236C94.789 96.5753 96.9743 90.8627 90.4184 91.0307Z" fill="#9EC549"/>
<path fill-rule="evenodd" clip-rule="evenodd" d="M98.1512 92.039C98.6556 92.375 100.168 95.2314 98.9918 95.7354C97.815 96.2395 97.6469 93.7192 96.9745 92.7111C96.134 91.871 97.1426 90.6948 98.1512 92.039Z" fill="#DFE7A7"/>
<path fill-rule="evenodd" clip-rule="evenodd" d="M89.2416 92.7112C87.8968 94.2234 87.0563 98.0879 88.7373 98.928C90.4183 99.7681 91.7632 99.6 93.108 99.6C94.6209 99.6 94.9571 97.5838 93.7804 95.7356C92.6037 93.7193 91.4269 90.863 89.2416 92.7112Z" fill="#91B944"/>
<path d="M73.7763 86.328C78.3254 86.328 82.0133 82.642 82.0133 78.0951C82.0133 73.5481 78.3254 69.8621 73.7763 69.8621C69.2272 69.8621 65.5394 73.5481 65.5394 78.0951C65.5394 82.642 69.2272 86.328 73.7763 86.328Z" fill="#88AF3B"/>
<path fill-rule="evenodd" clip-rule="evenodd" d="M73.7761 69.8621C74.1123 69.8621 74.2804 69.8621 74.6166 69.8621C74.4485 69.8621 69.0693 70.3661 69.4055 76.9189C69.7417 83.4717 79.6597 83.8078 81.3407 78.0951C81.5088 77.255 81.6769 76.9189 82.0131 76.5829C82.0131 77.0869 82.1812 77.591 82.1812 77.927C82.1812 82.4636 78.483 86.16 73.9442 86.16C69.4055 86.16 65.7073 82.4636 65.7073 77.927C65.5392 73.5585 69.2374 69.8621 73.7761 69.8621Z" fill="#7A9D30"/>
<path fill-rule="evenodd" clip-rule="evenodd" d="M80.164 73.0552C81.1726 74.3993 81.845 76.0795 81.845 77.9278C81.845 82.4643 78.1468 86.1607 73.6081 86.1607C69.0694 86.1607 65.3712 82.4643 65.3712 77.9278C65.3712 76.4156 65.8755 74.9034 66.5479 73.5592C61.0005 86.6648 87.0562 84.3125 80.164 73.0552Z" fill="#6C8C2A"/>
<path fill-rule="evenodd" clip-rule="evenodd" d="M70.0781 71.8791C70.0781 71.8791 72.7677 70.5349 75.9616 71.207C79.1555 71.8791 81.677 76.5836 78.9874 79.1039C76.2978 81.6242 75.7935 80.9522 75.1211 79.272C74.4487 77.4237 76.4659 71.711 70.0781 71.8791Z" fill="#9EC549"/>
<path fill-rule="evenodd" clip-rule="evenodd" d="M77.6426 72.8857C78.1469 73.2217 79.6599 76.078 78.4831 76.5821C77.3064 77.0862 77.1383 74.5658 76.4659 73.5577C75.6254 72.7176 76.634 71.5415 77.6426 72.8857Z" fill="#DFE7A7"/>
<path fill-rule="evenodd" clip-rule="evenodd" d="M68.733 73.5579C67.3882 75.0701 66.5477 78.9346 68.2287 79.7747C69.9097 80.6148 71.2545 80.4467 72.5994 80.4467C74.1123 80.4467 74.4485 78.4305 73.2718 76.5823C72.095 74.566 70.9183 71.7097 68.733 73.5579Z" fill="#91B944"/>
<path d="M142.361 92.7121C146.91 92.7121 150.598 89.026 150.598 84.4791C150.598 79.9321 146.91 76.2461 142.361 76.2461C137.812 76.2461 134.124 79.9321 134.124 84.4791C134.124 89.026 137.812 92.7121 142.361 92.7121Z" fill="#88AF3B"/>
<path fill-rule="evenodd" clip-rule="evenodd" d="M142.361 76.2461C142.697 76.2461 142.865 76.2461 143.202 76.2461C143.034 76.2461 137.654 76.7501 137.991 83.3029C138.327 89.8557 148.245 90.1918 149.926 84.4791C150.094 83.639 150.262 83.3029 150.598 82.9669C150.598 83.471 150.766 83.975 150.766 84.3111C150.766 88.8476 147.068 92.544 142.529 92.544C137.991 92.544 134.292 88.8476 134.292 84.3111C134.124 79.9425 137.822 76.2461 142.361 76.2461Z" fill="#7A9D30"/>
<path fill-rule="evenodd" clip-rule="evenodd" d="M148.749 79.4392C149.758 80.7834 150.43 82.4636 150.43 84.3118C150.43 88.8484 146.732 92.5448 142.193 92.5448C137.654 92.5448 133.956 88.8484 133.956 84.3118C133.956 82.7996 134.46 81.2874 135.133 79.9433C129.586 93.0488 155.641 90.6966 148.749 79.4392Z" fill="#6C8C2A"/>
<path fill-rule="evenodd" clip-rule="evenodd" d="M138.663 78.2631C138.663 78.2631 141.353 76.9189 144.547 77.591C147.741 78.2631 150.262 82.9677 147.572 85.488C144.883 88.0083 144.379 87.3362 143.706 85.656C143.034 83.8078 145.051 78.0951 138.663 78.2631Z" fill="#9EC549"/>
<path fill-rule="evenodd" clip-rule="evenodd" d="M146.228 79.2699C146.732 79.606 148.245 82.4623 147.068 82.9664C145.891 83.4704 145.723 80.9501 145.051 79.942C144.21 78.9339 145.219 77.9258 146.228 79.2699Z" fill="#DFE7A7"/>
<path fill-rule="evenodd" clip-rule="evenodd" d="M137.318 79.9419C135.973 81.4541 135.133 85.3186 136.814 86.1587C138.495 86.9988 139.84 86.8308 141.184 86.8308C142.697 86.8308 143.034 84.8145 141.857 82.9663C140.68 80.9501 139.503 78.0937 137.318 79.9419Z" fill="#91B944"/>
<path d="M92.7714 132.868C96.7635 132.868 99.9997 129.633 99.9997 125.643C99.9997 121.653 96.7635 118.418 92.7714 118.418C88.7793 118.418 85.543 121.653 85.543 125.643C85.543 129.633 88.7793 132.868 92.7714 132.868Z" fill="#7A9D30"/>
<path fill-rule="evenodd" clip-rule="evenodd" d="M92.7714 118.586C92.9395 118.586 93.2757 118.586 93.4438 118.586C93.4438 118.586 88.5688 119.09 88.905 124.634C89.0731 130.347 97.9825 130.683 99.3273 125.811C99.4954 125.138 99.6635 124.802 99.8316 124.466C99.8316 124.802 99.9997 125.306 99.9997 125.643C99.9997 129.507 96.8058 132.867 92.7714 132.867C88.7369 132.867 85.543 129.675 85.543 125.643C85.543 121.778 88.7369 118.586 92.7714 118.586Z" fill="#6C8C2A"/>
<path fill-rule="evenodd" clip-rule="evenodd" d="M98.4868 121.442C99.3273 122.618 99.9997 124.13 99.9997 125.811C99.9997 129.675 96.8058 133.036 92.7714 133.036C88.7369 133.036 85.543 129.843 85.543 125.811C85.543 124.467 85.8792 123.122 86.5516 121.946C81.6767 133.204 104.37 131.187 98.4868 121.442Z" fill="#5E7B1A"/>
<path fill-rule="evenodd" clip-rule="evenodd" d="M89.5773 120.434C89.5773 120.434 91.9307 119.258 94.7884 119.93C97.6461 120.602 99.8314 124.635 97.478 126.819C95.1246 129.003 94.6203 128.499 94.116 126.819C93.4436 125.139 95.2927 120.266 89.5773 120.434Z" fill="#88AF3B"/>
<path fill-rule="evenodd" clip-rule="evenodd" d="M96.3013 121.106C96.8057 121.442 98.1505 123.963 96.9738 124.299C95.9651 124.803 95.797 122.619 95.1246 121.778C94.4522 120.938 95.2927 119.93 96.3013 121.106Z" fill="#DFE7A7"/>
<path d="M97.4783 152.359C101.47 152.359 104.707 149.125 104.707 145.135C104.707 141.144 101.47 137.91 97.4783 137.91C93.4862 137.91 90.25 141.144 90.25 145.135C90.25 149.125 93.4862 152.359 97.4783 152.359Z" fill="#7A9D30"/>
<path fill-rule="evenodd" clip-rule="evenodd" d="M97.4783 137.91C97.6464 137.91 97.9826 137.91 98.1507 137.91C98.1507 137.91 93.2758 138.414 93.612 143.958C93.7801 149.671 102.689 150.007 104.034 145.135C104.202 144.462 104.37 144.126 104.539 143.79C104.539 144.126 104.707 144.63 104.707 144.966C104.707 148.831 101.513 152.191 97.4783 152.191C93.612 152.191 90.25 148.999 90.25 144.966C90.25 140.934 93.612 137.91 97.4783 137.91Z" fill="#6C8C2A"/>
<path fill-rule="evenodd" clip-rule="evenodd" d="M103.194 140.766C104.034 141.942 104.707 143.455 104.707 145.135C104.707 148.999 101.513 152.36 97.4783 152.36C93.612 152.36 90.25 149.167 90.25 145.135C90.25 143.791 90.5862 142.447 91.2586 141.27C86.3837 152.696 109.245 150.68 103.194 140.766Z" fill="#5E7B1A"/>
<path fill-rule="evenodd" clip-rule="evenodd" d="M94.2842 139.758C94.2842 139.758 96.6377 138.582 99.4954 139.254C102.353 139.926 104.538 143.959 102.185 146.143C99.8316 148.327 99.3273 147.823 98.823 146.143C98.1506 144.631 99.9997 139.59 94.2842 139.758Z" fill="#88AF3B"/>
<path fill-rule="evenodd" clip-rule="evenodd" d="M101.008 140.598C101.513 140.934 102.858 143.454 101.681 143.79C100.672 144.294 100.504 142.11 99.8317 141.27C99.1593 140.43 100.168 139.422 101.008 140.598Z" fill="#DFE7A7"/>
<path d="M67.3885 115.731C71.3806 115.731 74.6168 112.497 74.6168 108.506C74.6168 104.516 71.3806 101.281 67.3885 101.281C63.3964 101.281 60.1602 104.516 60.1602 108.506C60.1602 112.497 63.3964 115.731 67.3885 115.731Z" fill="#7A9D30"/>
<path fill-rule="evenodd" clip-rule="evenodd" d="M67.3885 101.449C67.5566 101.449 67.8928 101.449 68.0609 101.449C68.0609 101.449 63.186 101.953 63.5222 107.498C63.6903 113.21 72.5996 113.546 73.9444 108.674C74.1125 108.002 74.2806 107.666 74.4487 107.33C74.4487 107.666 74.6168 108.17 74.6168 108.506C74.6168 112.37 71.4229 115.731 67.3885 115.731C63.5222 115.731 60.1602 112.538 60.1602 108.506C60.3283 104.641 63.5222 101.449 67.3885 101.449Z" fill="#6C8C2A"/>
<path fill-rule="evenodd" clip-rule="evenodd" d="M73.1039 104.305C73.9444 105.482 74.6168 106.994 74.6168 108.674C74.6168 112.538 71.4229 115.899 67.3885 115.899C63.5222 115.899 60.1602 112.706 60.1602 108.674C60.1602 107.33 60.4964 105.986 61.1688 104.809C56.2938 116.067 79.1556 114.051 73.1039 104.305Z" fill="#5E7B1A"/>
<path fill-rule="evenodd" clip-rule="evenodd" d="M64.1944 103.297C64.1944 103.297 66.5478 102.121 69.4055 102.793C72.2632 103.465 74.4485 107.498 72.0951 109.682C69.7417 111.866 69.2374 111.362 68.7331 109.682C68.0607 108.002 69.9098 103.129 64.1944 103.297Z" fill="#88AF3B"/>
<path fill-rule="evenodd" clip-rule="evenodd" d="M70.9185 103.97C71.4228 104.306 72.7676 106.826 71.5909 107.162C70.5823 107.666 70.4142 105.482 69.7418 104.642C69.2375 103.802 70.078 102.794 70.9185 103.97Z" fill="#DFE7A7"/>
<path fill-rule="evenodd" clip-rule="evenodd" d="M47.3843 105.315C52.0911 105.315 56.1255 101.45 56.1255 96.5776C56.1255 91.7051 52.2592 87.8406 47.3843 87.8406C42.5093 87.8406 38.643 91.8731 38.643 96.5776C38.643 101.282 42.5093 105.315 47.3843 105.315Z" fill="#7A9D30"/>
<path fill-rule="evenodd" clip-rule="evenodd" d="M47.3843 88.0081C47.7205 88.0081 47.8886 88.0081 48.2248 88.0081C48.0567 88.0081 42.3412 88.6801 42.6774 95.4009C43.0136 102.29 53.604 102.794 55.285 96.7451C55.4531 95.905 55.7893 95.4009 55.9574 95.0649C56.1255 95.569 56.1255 96.073 56.1255 96.5771C56.1255 101.45 52.2592 105.314 47.3843 105.314C42.5093 105.314 38.643 101.45 38.643 96.5771C38.643 91.8725 42.5093 88.0081 47.3843 88.0081Z" fill="#6C8C2A"/>
<path fill-rule="evenodd" clip-rule="evenodd" d="M54.2763 91.3684C55.453 92.8806 55.9573 94.5608 55.9573 96.577C55.9573 101.45 52.091 105.314 47.216 105.314C42.3411 105.314 38.4748 101.45 38.4748 96.577C38.4748 94.8968 38.9791 93.3846 39.8196 92.0405C33.768 105.65 61.5046 103.298 54.2763 91.3684Z" fill="#5E7B1A"/>
<path fill-rule="evenodd" clip-rule="evenodd" d="M43.3495 90.1923C43.3495 90.1923 46.2073 88.8481 49.7374 89.5202C53.0994 90.1923 55.9571 95.2329 52.9313 97.7532C50.0736 100.442 49.5693 99.7694 48.7288 97.9212C48.0564 95.905 50.2417 89.8563 43.3495 90.1923Z" fill="#88AF3B"/>
<path fill-rule="evenodd" clip-rule="evenodd" d="M51.5866 91.0325C52.259 91.3685 53.7719 94.3929 52.4271 95.065C51.2504 95.737 51.0823 92.8807 50.2417 91.8726C49.4012 90.8645 50.4098 89.6883 51.5866 91.0325Z" fill="#DFE7A7"/>
<path d="M97.3103 83.9748C101.859 83.9748 105.547 80.2887 105.547 75.7418C105.547 71.1948 101.859 67.5088 97.3103 67.5088C92.7612 67.5088 89.0734 71.1948 89.0734 75.7418C89.0734 80.2887 92.7612 83.9748 97.3103 83.9748Z" fill="#88AF3B"/>
<path fill-rule="evenodd" clip-rule="evenodd" d="M97.3101 67.5088C97.6463 67.5088 97.8144 67.5088 98.1506 67.5088C97.9825 67.5088 92.6033 68.0128 92.9395 74.5656C93.2757 81.1184 103.194 81.4545 104.875 75.7418C105.043 74.9017 105.211 74.5656 105.547 74.2296C105.547 74.7337 105.715 75.2377 105.715 75.5738C105.715 80.1103 102.017 83.8067 97.4782 83.8067C92.9395 83.8067 89.2413 80.1103 89.2413 75.5738C89.0732 71.2052 92.7714 67.5088 97.3101 67.5088Z" fill="#7A9D30"/>
<path fill-rule="evenodd" clip-rule="evenodd" d="M103.698 70.8691C104.707 72.2133 105.379 73.8935 105.379 75.7417C105.379 80.2783 101.681 83.9747 97.1421 83.9747C92.6034 83.9747 88.9052 80.2783 88.9052 75.7417C88.9052 74.2295 89.4094 72.7174 90.0819 71.3732C84.5345 84.3108 110.59 81.9585 103.698 70.8691Z" fill="#6C8C2A"/>
<path fill-rule="evenodd" clip-rule="evenodd" d="M93.6121 69.6933C93.6121 69.6933 96.3017 68.3491 99.4956 69.0212C102.69 69.6933 105.211 74.3978 102.521 76.9181C99.8318 79.4384 99.3275 78.7664 98.6551 77.0862C97.9827 75.0699 99.9999 69.3572 93.6121 69.6933Z" fill="#9EC549"/>
<path fill-rule="evenodd" clip-rule="evenodd" d="M101.177 70.5324C101.681 70.8684 103.194 73.7248 102.017 74.2288C100.84 74.7329 100.672 72.2126 100 71.2045C99.1595 70.3644 100.168 69.1882 101.177 70.5324Z" fill="#DFE7A7"/>
<path fill-rule="evenodd" clip-rule="evenodd" d="M92.267 71.3736C90.9222 72.8858 90.0817 76.7502 91.7627 77.5903C93.4437 78.4304 94.7885 78.2624 96.1334 78.2624C97.6463 78.2624 97.9825 76.2461 96.8057 74.3979C95.629 72.3817 94.4523 69.5254 92.267 71.3736Z" fill="#91B944"/>
<g opacity="0.2" style="mix-blend-mode:overlay">
<path fill-rule="evenodd" clip-rule="evenodd" d="M57.1344 60.1166C49.5699 69.0217 44.1907 68.8537 37.9709 78.5989C30.7426 90.0242 41.6692 112.539 101.681 112.539C162.534 112.539 170.939 89.5202 164.047 78.4309C157.827 68.5177 152.616 68.8537 145.051 59.9486C144.883 56.2522 114.121 56.4202 100.504 56.9243C86.8883 56.4202 57.3025 56.2522 57.1344 60.1166Z" fill="#F4F3F3"/>
</g>
<g opacity="0.1" style="mix-blend-mode:overlay">
<path fill-rule="evenodd" clip-rule="evenodd" d="M73.44 63.8125C77.1382 64.8206 85.7114 65.1566 91.0906 65.1566C96.4698 65.1566 98.3189 68.6851 98.1508 73.8937C97.9827 79.2704 90.2501 85.6551 84.7028 93.048C79.1554 100.441 78.8192 112.202 82.8536 129.172C86.8881 146.142 94.7888 162.944 94.7888 166.473C94.7888 170.001 85.2071 168.825 80.6683 166.977C76.1296 165.297 44.3585 130.853 39.8198 104.473C35.2811 78.2622 56.798 68.013 73.44 63.8125Z" fill="white"/>
</g>
<g opacity="0.1" style="mix-blend-mode:overlay">
<path fill-rule="evenodd" clip-rule="evenodd" d="M123.534 71.3733C123.534 71.3733 139.336 87.6712 139.336 104.137C139.336 120.603 132.443 144.63 127.4 154.039C122.357 163.448 122.694 164.961 123.534 166.305C124.375 167.481 181.025 110.522 150.766 77.9261C143.874 70.3652 140.512 74.9017 123.534 71.3733Z" fill="white"/>
</g>
<g opacity="0.1" style="mix-blend-mode:overlay">
<path fill-rule="evenodd" clip-rule="evenodd" d="M46.0398 91.2001C46.0398 91.2001 50.5785 96.0727 61.1689 98.9291C71.5911 101.617 75.9617 102.626 74.785 105.146C73.7764 107.666 68.3972 111.867 70.0782 118.923C71.7592 125.98 74.6169 129.845 70.7506 129.509C66.8843 129.341 61.8413 124.132 59.9921 127.156C58.143 130.181 74.9531 150.679 72.4316 153.872C69.742 156.896 59.1516 140.598 53.6043 129.173C47.8889 117.915 37.1304 90.5281 46.0398 91.2001Z" fill="white"/>
</g>
<g opacity="0.2" style="mix-blend-mode:overlay">
<path fill-rule="evenodd" clip-rule="evenodd" d="M60.3283 87.3349C57.3024 90.0232 68.9014 96.744 74.6168 96.408C80.1642 96.0719 71.7591 86.4948 60.3283 87.3349Z" fill="white"/>
</g>
<path opacity="0.5" fill-rule="evenodd" clip-rule="evenodd" d="M106.556 167.313C107.733 167.649 117.819 169.834 121.685 160.592C125.551 151.351 133.788 128.837 134.461 120.772C135.133 112.707 133.116 100.105 122.357 99.4331C111.599 98.761 110.086 117.075 108.909 123.46C107.733 129.845 104.371 165.633 106.556 167.313Z" fill="#9EC549"/>
<path fill-rule="evenodd" clip-rule="evenodd" d="M68.5649 25.1675H132.275C135.637 25.1675 138.327 27.8558 138.327 31.2162C138.327 34.5766 135.637 37.2649 132.275 37.2649H68.5649C65.2029 37.2649 62.5133 34.5766 62.5133 31.2162C62.5133 28.0238 65.2029 25.1675 68.5649 25.1675Z" fill="#3C731F"/>
<path fill-rule="evenodd" clip-rule="evenodd" d="M68.5649 25.168H79.8277C79.8277 25.168 67.8925 25.5041 67.2201 26.3442C66.3796 27.1843 68.2287 27.8563 72.2632 27.8563C76.4657 27.8563 130.426 27.8564 131.603 27.6883C132.779 27.6883 135.301 25.8401 128.073 25H132.275C135.637 25 138.327 27.6883 138.327 31.0487C138.327 33.065 137.318 34.9132 135.637 36.0893C130.09 36.5934 123.03 36.9294 115.969 37.0974H98.3188C95.9654 37.0974 93.7801 36.9294 91.931 36.7614C78.4829 35.5853 66.8839 35.4173 62.6814 32.7289C62.5133 32.2249 62.5133 31.5528 62.5133 31.0487C62.5133 28.0244 65.2029 25.168 68.5649 25.168Z" fill="#37691C"/>
<path fill-rule="evenodd" clip-rule="evenodd" d="M59.1512 28.3604H141.521C143.202 28.3604 144.546 29.7045 144.546 31.3847V37.4334C144.546 39.1136 143.202 40.4578 141.521 40.4578H59.1512C57.4702 40.4578 56.1254 39.1136 56.1254 37.4334V31.3847C56.1254 29.7045 57.4702 28.3604 59.1512 28.3604Z" fill="#438224"/>
<path fill-rule="evenodd" clip-rule="evenodd" d="M111.767 28.3604H141.521C143.202 28.3604 144.547 29.7045 144.547 31.3847V37.4334C144.547 39.1136 143.202 40.4578 141.521 40.4578H122.021L115.969 39.6177C115.969 39.6177 131.771 39.1136 134.292 38.2735C136.814 37.4334 136.478 31.0487 132.78 29.8725C129.249 28.6964 111.767 28.3604 111.767 28.3604Z" fill="#3C731F"/>
<path fill-rule="evenodd" clip-rule="evenodd" d="M59.1512 28.3604H85.0387C84.3663 28.3604 61.1684 28.5284 59.3193 29.3685C57.4702 30.2086 57.6383 31.7208 57.8064 33.0649C57.9745 34.4091 57.134 38.7776 60.3279 38.9456C62.5132 39.1136 87.3921 39.1136 100.504 39.2817C113.616 39.2817 138.495 39.1136 140.68 38.9456C143.706 38.7776 143.034 34.4091 143.202 33.0649C143.37 31.7208 143.538 30.2086 141.689 29.3685C139.84 28.5284 116.642 28.3604 115.969 28.3604H141.689C143.37 28.3604 144.715 29.7045 144.715 31.3847V37.4334C144.715 39.1136 143.37 40.4578 141.689 40.4578H59.3193C57.6383 40.4578 56.2935 39.1136 56.2935 37.4334V31.3847C56.1254 29.7045 57.4702 28.3604 59.1512 28.3604Z" fill="#37691C"/>
<path fill-rule="evenodd" clip-rule="evenodd" d="M76.4655 25.8394C75.2888 25.8394 71.5906 26.1754 71.7587 27.0155C71.9268 27.8556 126.896 27.3515 128.913 27.3515C130.93 27.1835 126.392 26.1754 124.879 26.0074C123.198 25.6714 76.4655 25.8394 76.4655 25.8394Z" fill="#4C9128"/>
<path fill-rule="evenodd" clip-rule="evenodd" d="M71.5908 29.5369C70.4141 29.5369 67.3883 29.3689 66.5478 30.377C65.7073 31.3851 64.3625 36.9298 69.2374 37.6019C74.1124 38.2739 110.086 38.61 112.103 38.1059C114.12 37.6019 116.81 29.7049 113.784 29.2009C110.926 28.6968 71.5908 29.5369 71.5908 29.5369Z" fill="#4C9128"/>
<path fill-rule="evenodd" clip-rule="evenodd" d="M75.9614 30.3765C73.9442 30.3765 72.5994 31.3846 72.5994 32.8968C72.5994 34.4089 72.2632 36.9293 77.9786 37.0973C83.694 37.2653 99.3274 37.9374 100.84 37.0973C102.353 36.2572 103.866 30.5445 101.345 30.2085C98.8231 29.7044 75.9614 30.3765 75.9614 30.3765Z" fill="#57A331"/>
<g opacity="0.2" style="mix-blend-mode:overlay">
<path fill-rule="evenodd" clip-rule="evenodd" d="M96.4695 31.3844C96.4695 31.3844 99.6634 31.5524 99.9996 32.8966C100.336 34.2407 99.8315 36.761 97.1419 36.593C94.4523 36.425 86.7197 36.929 86.2154 36.257C85.7111 35.5849 89.0731 30.8803 96.4695 31.3844Z" fill="white"/>
</g>
<path fill-rule="evenodd" clip-rule="evenodd" d="M118.323 29.8733C117.818 31.0494 116.306 37.2662 119.836 37.6022C123.198 37.9383 131.771 37.9383 132.107 37.2662C132.443 36.5941 134.629 31.3855 132.611 30.5454C130.258 29.8733 118.323 29.8733 118.323 29.8733Z" fill="#4C9128"/>
</svg>
