<svg width="200" height="200" viewBox="0 0 200 200" fill="none" xmlns="http://www.w3.org/2000/svg">
<path opacity="0.38" fill-rule="evenodd" clip-rule="evenodd" d="M72.1323 37.5986C72.1323 37.5986 72.3678 42.7096 72.25 43.7793C71.6614 46.8696 55.1802 57.5669 51.2953 68.502C48.3523 76.7032 51.2953 119.492 51.6485 129.358C52.0017 139.342 54.1207 159.667 64.0094 166.798C79.1957 177.733 120.752 177.733 135.938 166.798C145.945 159.667 147.946 139.223 148.299 129.358C148.652 119.374 151.713 76.7032 148.652 68.502C144.767 57.6858 128.286 46.8696 127.698 43.7793C127.462 42.7096 127.815 37.5986 127.815 37.5986H72.1323Z" fill="#CBCBCB"/>
<path fill-rule="evenodd" clip-rule="evenodd" d="M63.774 52.5754C58.9473 57.0921 53.4143 62.7973 51.2953 68.5025C48.3523 76.7038 51.2953 119.493 51.6485 129.358C52.0017 139.342 54.1207 159.667 64.0094 166.799C79.1957 177.734 120.752 177.734 135.938 166.799C145.945 159.667 147.946 139.224 148.299 129.358C148.652 119.374 151.713 76.7038 148.652 68.5025C146.651 63.1539 141.589 57.6864 136.998 53.2886C117.338 58.043 79.7843 59.2315 63.774 52.5754Z" fill="#FBC150"/>
<path fill-rule="evenodd" clip-rule="evenodd" d="M64.1269 52.6937C63.7737 52.2182 64.7155 51.3862 68.6003 51.3862C80.8435 51.5051 130.287 47.9393 137.351 53.4068C142.06 57.0914 83.5512 60.5384 64.1269 52.6937Z" fill="#F3A500"/>
<g opacity="0.5" style="mix-blend-mode:overlay">
<path d="M100.151 171.315C117.12 171.315 130.876 168.495 130.876 165.016C130.876 161.537 117.12 158.716 100.151 158.716C83.1813 158.716 69.4249 161.537 69.4249 165.016C69.4249 168.495 83.1813 171.315 100.151 171.315Z" fill="#D48022"/>
</g>
<path fill-rule="evenodd" clip-rule="evenodd" d="M75.0753 171.316C75.4285 170.721 76.488 169.652 78.1361 169.652C79.7843 169.652 94.6174 171.434 99.3263 171.316C104.035 171.197 118.633 170.008 120.987 169.295C123.342 168.582 124.872 168.82 125.579 169.414C126.167 170.008 126.167 171.197 125.814 171.316C125.225 171.553 96.3832 178.209 75.0753 171.316Z" fill="#DF7600"/>
<path fill-rule="evenodd" clip-rule="evenodd" d="M75.1932 162.163C75.1932 162.163 87.201 159.311 101.681 159.786C116.161 160.262 126.638 161.807 126.638 161.807C126.638 161.807 98.1493 154.794 75.1932 162.163Z" fill="#CF7C25"/>
<g opacity="0.2" style="mix-blend-mode:overlay">
<path fill-rule="evenodd" clip-rule="evenodd" d="M72.25 38.3125C72.3678 39.7388 72.4855 42.948 72.25 43.78C71.6614 46.8704 55.1802 57.5677 51.2953 68.5027C48.3523 76.704 51.2953 119.493 51.6485 129.358C52.0017 139.343 54.1207 159.668 64.0094 166.799C79.1957 177.734 120.752 177.734 135.938 166.799C145.945 159.668 147.946 139.224 148.299 129.358C148.652 119.374 151.713 76.704 148.652 68.5027C144.767 57.6865 128.286 46.8704 127.698 43.78C127.58 42.948 127.698 39.62 127.698 38.3125C126.285 38.3125 124.872 38.4314 123.577 38.9068C123.577 38.9068 123.342 43.5423 124.166 45.0875C124.99 46.6326 145.592 61.2523 147.828 71.4742C150.183 81.696 148.417 103.566 147.711 115.571C147.004 127.576 145.121 150.04 140.176 158.241C135.114 166.442 127.698 168.344 120.634 169.533C115.69 170.365 107.214 170.127 101.21 170.008C100.739 170.008 100.386 170.008 99.915 170.008C99.4441 170.008 98.9732 170.008 98.62 170.008C92.6161 170.008 84.1401 170.365 79.1957 169.533C72.25 168.344 64.7157 166.561 59.6536 158.241C54.5916 150.04 52.8257 127.576 52.1194 115.571C51.413 103.566 49.6472 81.696 52.0016 71.4742C54.3561 61.2523 74.8399 46.6326 75.664 45.0875C76.4881 43.5423 76.2526 38.9068 76.2526 38.9068C75.1931 38.4314 73.7804 38.1937 72.25 38.3125Z" fill="#959696"/>
</g>
<path fill-rule="evenodd" clip-rule="evenodd" d="M72.8386 38.9055C72.8386 38.9055 80.3729 40.8073 86.9654 41.045C93.5579 41.1638 121.811 41.6393 124.166 41.045C126.638 40.4507 127.933 38.9055 127.933 38.9055H72.8386Z" fill="#B2B1B2"/>
<path fill-rule="evenodd" clip-rule="evenodd" d="M72.4857 37.242H128.051V29.7539C128.051 28.803 127.227 28.0898 126.403 28.0898H74.0161C73.192 28.0898 72.4857 28.803 72.4857 29.635V37.242Z" fill="#B8B7B8"/>
<path fill-rule="evenodd" clip-rule="evenodd" d="M128.051 34.5079V34.0324C125.696 32.6061 108.509 29.9912 108.509 29.9912C108.509 29.9912 109.215 30.8232 111.098 31.4175C112.864 32.0118 126.049 35.221 128.051 34.5079Z" fill="#959696"/>
<path fill-rule="evenodd" clip-rule="evenodd" d="M72.603 32.8444C72.603 32.8444 72.9562 33.7953 74.3689 34.033C75.8993 34.3896 92.3805 35.3405 92.3805 34.865C92.3805 34.3896 72.603 32.2501 72.603 32.8444Z" fill="#A2A3A3"/>
<path fill-rule="evenodd" clip-rule="evenodd" d="M95.9124 28.3279C95.9124 28.3279 75.3109 28.6845 74.7223 28.6845C74.1336 28.6845 73.545 29.3976 73.7805 30.7051C74.1336 32.1314 73.7805 34.3897 76.7235 34.7463C79.6666 35.1028 100.975 34.7463 101.092 35.1028C101.092 35.4594 95.4415 36.0537 97.4428 36.1726C99.3264 36.2914 106.272 36.0537 106.272 36.0537C106.272 36.0537 124.166 36.2914 125.225 35.6971C126.285 35.1028 128.404 29.7542 125.225 29.041C121.929 28.4467 95.9124 28.3279 95.9124 28.3279Z" fill="#CBCBCB"/>
<path fill-rule="evenodd" clip-rule="evenodd" d="M95.9124 28.3279C95.9124 28.3279 75.3109 28.6845 74.7223 28.6845C74.1336 28.6845 73.545 29.3976 73.7805 30.7051C74.1336 32.1314 73.7805 34.3897 76.7235 34.7463C79.6666 35.1028 100.975 34.7463 101.092 35.1028C101.092 35.4594 95.4415 36.0537 97.4428 36.1726C99.3264 36.2914 106.272 36.0537 106.272 36.0537C106.272 36.0537 124.166 36.2914 125.225 35.6971C126.285 35.1028 128.404 29.7542 125.225 29.041C121.929 28.4467 95.9124 28.3279 95.9124 28.3279Z" fill="#CBCBCB"/>
<path fill-rule="evenodd" clip-rule="evenodd" d="M125.932 34.5083C126.167 34.1517 126.285 33.7951 126.402 33.3197C121.34 31.8934 108.509 29.8728 108.509 29.8728C108.509 29.8728 109.215 30.7048 111.098 31.2991C112.511 31.8934 121.458 34.1517 125.932 34.5083Z" fill="#B2B1B2"/>
<path fill-rule="evenodd" clip-rule="evenodd" d="M85.906 31.2993C85.906 31.2993 88.2605 32.6068 92.9694 33.5576C97.6783 34.3896 110.039 35.2217 112.747 35.1028C115.455 34.8651 116.396 34.1519 116.396 34.1519L85.906 31.2993Z" fill="#B2B1B2"/>
<path fill-rule="evenodd" clip-rule="evenodd" d="M87.2008 31.1797C87.2008 31.1797 85.7881 31.1797 85.7881 31.4174C85.7881 31.6551 93.911 33.0814 99.0908 33.6757C104.271 34.27 116.278 34.9832 116.278 34.0323C116.278 33.2003 87.2008 31.1797 87.2008 31.1797Z" fill="#959696"/>
<path fill-rule="evenodd" clip-rule="evenodd" d="M74.1337 32.7258C74.2514 33.2013 74.4868 33.7956 74.9577 34.1521C78.254 34.5087 92.3808 35.3407 92.3808 34.8653C92.3808 34.3899 78.7249 32.9635 74.1337 32.7258Z" fill="#B2B1B2"/>
<path fill-rule="evenodd" clip-rule="evenodd" d="M71.6614 36.5283H128.051C128.757 36.5283 129.228 37.1226 129.228 37.7169C129.228 38.4301 128.639 38.9055 128.051 38.9055H71.6614C70.955 38.9055 70.4841 38.3112 70.4841 37.7169C70.4841 37.0038 70.955 36.5283 71.6614 36.5283Z" fill="#B2B1B2"/>
<path fill-rule="evenodd" clip-rule="evenodd" d="M71.6614 36.5283H74.1336C73.074 36.5283 71.7791 36.766 71.5436 37.2415C70.955 38.0735 71.7791 38.5489 73.5449 38.5489C75.0753 38.5489 110.039 38.5489 122.871 38.5489C126.167 38.5489 128.404 38.3112 128.522 37.7169C128.639 37.3603 127.58 36.5283 125.461 36.5283H128.168C128.875 36.5283 129.346 37.1226 129.346 37.7169C129.346 38.4301 128.757 38.9055 128.168 38.9055H71.6614C70.955 38.9055 70.4841 38.3112 70.4841 37.7169C70.4841 37.0038 70.955 36.5283 71.6614 36.5283Z" fill="#7E7E7D"/>
<path fill-rule="evenodd" clip-rule="evenodd" d="M126.756 37.0045C126.756 39.1439 72.7207 37.7176 72.7207 37.0045C72.7207 36.2913 126.756 37.0045 126.756 37.0045Z" fill="#CBCBCB"/>
<g opacity="0.2" style="mix-blend-mode:overlay">
<path fill-rule="evenodd" clip-rule="evenodd" d="M86.9655 37.0046C86.9655 37.0046 120.163 36.8858 119.339 37.2423C115.454 38.5498 74.9577 37.2423 86.9655 37.0046Z" fill="white"/>
</g>
<path fill-rule="evenodd" clip-rule="evenodd" d="M72.6032 30.7051C72.6032 30.7051 72.1323 30.7051 72.0146 30.9428C71.7791 31.1805 71.6614 32.2502 72.25 32.7257C72.9564 33.0823 91.7921 35.1029 92.4984 34.8651C93.087 34.5086 81.0792 31.8937 72.6032 30.7051Z" fill="#B2B1B2"/>
<path fill-rule="evenodd" clip-rule="evenodd" d="M72.6032 30.7051C72.6032 30.7051 72.1323 30.7051 72.0146 30.9428C71.7791 31.1805 71.6614 32.2502 72.25 32.7257C72.9564 33.0823 91.7921 35.1029 92.4984 34.8651C92.6161 34.8651 92.4984 34.7463 92.1452 34.6274C92.0275 34.7463 91.9098 34.984 91.9098 34.7463C91.7921 34.5086 71.426 32.7257 72.25 31.2994C72.4855 30.8239 73.545 30.8239 73.6627 30.8239C73.1918 30.8239 72.8386 30.8239 72.6032 30.7051Z" fill="#959696"/>
<path fill-rule="evenodd" clip-rule="evenodd" d="M73.5452 31.0613C73.192 31.5367 73.6629 31.7744 75.4288 32.0122C77.1946 32.3687 90.3796 34.627 90.4973 34.3893C90.615 34.1516 77.6655 31.5367 73.5452 31.0613Z" fill="#E5E5E5"/>
<path fill-rule="evenodd" clip-rule="evenodd" d="M85.7878 31.4183C85.6701 31.8937 114.983 34.8652 116.16 34.2709C118.986 32.8446 86.141 30.2297 85.7878 31.4183Z" fill="#B2B1B2"/>
<path fill-rule="evenodd" clip-rule="evenodd" d="M88.8487 31.299C88.6132 31.299 91.7917 31.7744 93.793 32.0121C95.7943 32.2499 114.512 34.2705 114.866 33.9139C115.101 33.5573 97.7956 31.1801 88.8487 31.299Z" fill="#E5E5E5"/>
<path fill-rule="evenodd" clip-rule="evenodd" d="M128.64 32.369C128.64 32.369 128.993 32.6067 129.11 32.8444C129.228 33.0821 129.111 34.2707 128.286 34.3896C127.58 34.5084 108.98 30.4672 108.391 29.9918C107.92 29.3975 120.164 30.7049 128.64 32.369Z" fill="#B2B1B2"/>
<path fill-rule="evenodd" clip-rule="evenodd" d="M128.639 32.3688C128.639 32.3688 128.992 32.6066 129.11 32.8443C129.228 33.082 129.11 34.2706 128.286 34.3894C127.58 34.5083 108.979 30.4671 108.391 29.9917C108.273 29.8728 108.509 29.8728 108.744 29.8728C108.744 30.1105 108.862 30.2294 108.979 30.1105C109.215 29.8728 128.992 34.746 128.757 33.082C128.639 32.4877 127.58 32.25 127.58 32.25C127.933 32.25 128.286 32.25 128.639 32.3688Z" fill="#959696"/>
<path fill-rule="evenodd" clip-rule="evenodd" d="M127.462 32.3693C127.698 32.9636 127.109 32.9636 125.343 32.7259C123.577 32.4881 110.392 30.4675 110.392 30.111C110.392 29.8732 123.459 31.4184 127.462 32.3693Z" fill="#E5E5E5"/>
<path fill-rule="evenodd" clip-rule="evenodd" d="M75.0752 30.5862C74.722 30.3484 74.3689 29.041 76.3702 29.041C78.2537 29.041 122.282 28.9221 123.813 29.2787C125.343 29.6353 126.285 31.0616 125.696 31.1805C125.225 31.2993 108.509 29.041 107.331 29.7541C106.154 30.4673 112.747 32.0125 112.629 32.4879C112.629 32.8445 86.1412 29.7541 84.9639 30.4673C83.9044 31.1805 89.5551 32.8445 89.0842 33.3199C88.6134 33.6765 75.0752 30.5862 75.0752 30.5862Z" fill="#E1E0E0"/>
<path fill-rule="evenodd" clip-rule="evenodd" d="M83.9044 29.2783C83.9044 29.2783 118.28 29.2783 120.516 29.3972C122.753 29.516 124.519 29.6349 124.872 30.2292C125.225 30.8235 124.519 30.8235 123.93 30.7046C123.342 30.5858 118.986 29.7538 112.629 29.7538C106.272 29.7538 101.563 29.8726 102.152 29.9915C102.74 30.1103 107.684 30.8235 106.272 31.2989C104.741 31.8932 83.9044 29.2783 83.9044 29.2783Z" fill="#F1F2F1"/>
<path opacity="0.5" fill-rule="evenodd" clip-rule="evenodd" d="M74.487 38.4307C74.487 38.4307 73.7807 43.6605 73.663 44.6114C73.5452 45.5623 82.9631 47.7017 98.3848 47.9394C98.8557 47.9394 99.4443 47.9394 99.9152 47.9394H100.033H100.151C100.622 47.9394 101.21 47.9394 101.681 47.9394C117.103 47.7017 126.638 45.4434 126.403 44.6114C126.285 43.6605 125.579 38.4307 125.579 38.4307L100.151 37.8364H100.033H99.9152L74.487 38.4307Z" fill="#CBCBCB"/>
<g opacity="0.5" style="mix-blend-mode:overlay">
<path fill-rule="evenodd" clip-rule="evenodd" d="M92.0274 41.5211C90.1438 41.64 88.4957 41.1645 85.5526 41.2834C82.6096 41.4023 78.4892 40.4514 78.0184 41.0457C77.5475 41.5211 77.1943 45.2057 78.3715 45.8C79.6665 46.5132 86.1413 48.2961 95.4414 48.2961C104.742 48.2961 119.104 47.8206 121.34 46.9886C123.695 46.1566 122.165 46.2755 116.632 46.632C111.216 47.1075 97.325 48.2961 93.6756 47.4641C90.0261 46.632 94.9705 46.7509 98.3845 46.632C101.916 46.632 106.861 45.5623 105.566 45.2057C104.271 44.8492 87.0831 45.2057 85.3172 44.136C83.4336 43.0663 107.449 42.2343 92.0274 41.5211Z" fill="#B2B1B2"/>
</g>
<path fill-rule="evenodd" clip-rule="evenodd" d="M76.017 39.9758C76.017 39.9758 75.6638 43.0661 74.9574 44.849C74.2511 46.6319 66.2459 52.8125 62.5965 56.2594C58.9471 59.7064 53.885 65.5304 53.6496 66.0059C53.4141 66.3625 59.1825 57.448 63.3028 53.5257C67.4231 49.6033 72.3675 46.2753 72.603 44.6113C72.7207 43.6604 72.603 40.6889 73.427 39.8569C74.0157 39.1437 75.6638 39.6192 76.017 39.9758Z" fill="#959696"/>
<path fill-rule="evenodd" clip-rule="evenodd" d="M124.283 39.9758C124.283 39.9758 124.637 43.0661 125.343 44.849C126.049 46.6319 134.054 52.8125 137.704 56.2594C141.353 59.7064 146.415 65.5304 146.651 66.0059C146.886 66.3625 141.118 57.448 136.998 53.5257C132.877 49.6033 127.933 46.2753 127.697 44.6113C127.58 43.6604 127.697 40.6889 126.873 39.8569C126.402 39.1437 124.754 39.6192 124.283 39.9758Z" fill="#959696"/>
<path fill-rule="evenodd" clip-rule="evenodd" d="M77.7832 25.1184H122.047C124.402 25.1184 126.285 27.0202 126.285 29.3973C126.285 31.7745 124.402 33.6763 122.047 33.6763H77.7832C75.4287 33.6763 73.5452 31.7745 73.5452 29.3973C73.5452 27.0202 75.4287 25.1184 77.7832 25.1184Z" fill="#CD7100"/>
<g opacity="0.2" style="mix-blend-mode:overlay">
<path fill-rule="evenodd" clip-rule="evenodd" d="M77.7831 25.1189H85.6706C85.6706 25.1189 77.43 25.3566 76.8413 25.9509C76.2527 26.5452 77.5477 27.0206 80.373 27.0206C83.1984 27.0206 120.634 27.0206 121.458 26.9017C122.282 26.9017 124.048 25.5943 119.104 25H122.047C124.401 25 126.285 26.9017 126.285 29.2789C126.285 30.7052 125.579 32.0127 124.519 32.7258C120.634 33.0824 115.69 33.3201 110.863 33.439H98.6201C96.972 33.439 95.4416 33.3201 94.1467 33.2013C84.8465 32.3693 76.7236 32.2504 73.8983 30.4675C73.7805 30.1109 73.7805 29.6355 73.7805 29.2789C73.5451 27.0206 75.4287 25.1189 77.7831 25.1189Z" fill="#8A4700"/>
</g>
<path fill-rule="evenodd" clip-rule="evenodd" d="M71.3081 27.2588H128.404C129.581 27.2588 130.523 28.2097 130.523 29.3983V33.6772C130.523 34.8658 129.581 35.8166 128.404 35.8166H71.3081C70.1309 35.8166 69.1891 34.8658 69.1891 33.6772V29.3983C69.1891 28.2097 70.1309 27.2588 71.3081 27.2588Z" fill="#DF8311"/>
<path fill-rule="evenodd" clip-rule="evenodd" d="M107.802 27.2588H128.521C129.698 27.2588 130.64 28.2097 130.64 29.3983V33.6772C130.64 34.8658 129.698 35.8166 128.521 35.8166H114.983L110.745 35.2223C110.745 35.2223 121.693 34.8658 123.459 34.2715C125.225 33.6772 124.99 29.1605 122.4 28.3285C119.81 27.4965 107.802 27.2588 107.802 27.2588Z" fill="#CD7100"/>
<g opacity="0.2" style="mix-blend-mode:overlay">
<path fill-rule="evenodd" clip-rule="evenodd" d="M71.3081 27.2588H89.3198C88.8489 27.2588 72.7208 27.3776 71.4258 27.9719C70.1309 28.5662 70.3663 29.636 70.3663 30.5868C70.484 31.5377 69.8954 34.628 72.0144 34.7469C73.5448 34.8658 90.7324 34.8658 99.9148 34.9846C109.097 34.9846 126.285 34.8658 127.815 34.7469C129.934 34.628 129.463 31.6566 129.463 30.5868C129.581 29.636 129.699 28.5662 128.404 27.9719C127.109 27.3776 110.981 27.2588 110.51 27.2588H128.404C129.581 27.2588 130.523 28.2097 130.523 29.3983V33.6772C130.523 34.8658 129.581 35.8166 128.404 35.8166H71.3081C70.1309 35.8166 69.1891 34.8658 69.1891 33.6772V29.3983C69.1891 28.2097 70.1309 27.2588 71.3081 27.2588Z" fill="#B45F00"/>
</g>
<g opacity="0.2" style="mix-blend-mode:overlay">
<path fill-rule="evenodd" clip-rule="evenodd" d="M83.1982 25.4755C82.3741 25.4755 79.7842 25.7132 79.902 26.3075C80.0197 26.783 118.162 26.5452 119.575 26.5452C120.987 26.4264 117.809 25.7132 116.749 25.5944C115.69 25.3567 83.1982 25.4755 83.1982 25.4755Z" fill="#DF8311"/>
</g>
<g opacity="0.2" style="mix-blend-mode:overlay">
<path fill-rule="evenodd" clip-rule="evenodd" d="M79.7841 28.2096C78.9601 28.2096 76.841 28.0907 76.2524 28.685C75.6638 29.3982 74.722 33.3205 78.136 33.796C81.55 34.2714 106.507 34.5091 107.92 34.1525C109.215 33.796 111.098 28.2096 109.097 27.853C107.096 27.4964 79.7841 28.2096 79.7841 28.2096Z" fill="#F29943"/>
</g>
<g opacity="0.2" style="mix-blend-mode:overlay">
<path fill-rule="evenodd" clip-rule="evenodd" d="M82.9628 28.6844C81.5501 28.6844 80.6083 29.2787 80.6083 30.3484C80.6083 31.4182 80.3729 33.201 84.2578 33.3199C88.2604 33.4388 99.0909 33.9142 100.033 33.3199C101.092 32.7256 102.152 28.6844 100.386 28.4467C98.7377 28.209 82.9628 28.6844 82.9628 28.6844Z" fill="#F5A355"/>
</g>
<g opacity="0.2" style="mix-blend-mode:overlay">
<path fill-rule="evenodd" clip-rule="evenodd" d="M97.0891 29.398C97.0891 29.398 99.3259 29.5169 99.5613 30.4677C99.7968 31.4186 99.4436 33.2015 97.56 33.0826C95.6765 32.9638 90.3789 33.3204 90.0258 32.8449C89.6726 32.3695 92.0271 29.0414 97.0891 29.398Z" fill="#F8BA7B"/>
</g>
<g opacity="0.2" style="mix-blend-mode:overlay">
<path fill-rule="evenodd" clip-rule="evenodd" d="M112.276 28.4467C111.923 29.2787 110.863 33.6765 113.335 33.7954C115.69 34.0331 121.576 34.0331 121.811 33.5577C122.047 33.0822 123.577 29.3976 122.164 28.9221C120.634 28.3279 112.276 28.4467 112.276 28.4467Z" fill="#F29943"/>
</g>
<path fill-rule="evenodd" clip-rule="evenodd" d="M104.742 135.301C99.5618 143.502 105.566 156.22 112.982 157.765C113.689 157.884 114.395 158.122 115.219 158.479C115.925 158.954 116.514 159.429 116.985 159.905C122.282 165.372 136.174 163.352 140.059 154.556C143.119 147.187 140.176 141.838 140.176 138.986C140.176 134.826 150.065 120.206 138.646 114.263C127.344 108.32 120.987 124.366 117.573 126.624C115.219 128.17 109.097 128.645 104.742 135.301Z" fill="#FAB932"/>
<path fill-rule="evenodd" clip-rule="evenodd" d="M107.214 154.08C107.332 154.199 107.449 154.318 107.567 154.437C110.746 157.765 111.57 156.814 115.219 158.359L115.337 158.478C115.572 158.716 115.69 158.835 115.925 159.072C121.223 164.54 135.114 162.519 138.999 153.724C142.06 146.355 139.117 141.006 139.117 138.153C139.117 133.993 149.006 119.374 137.586 113.431C136.762 112.955 135.821 112.599 135.114 112.48C135.114 113.668 137.469 117.115 137.351 120.8C137.116 126.267 134.29 133.28 130.641 133.042C126.991 132.805 121.929 129.714 117.809 132.686C117.809 132.686 130.052 134.944 133.348 143.621C136.527 152.06 130.876 155.744 122.989 155.15C107.802 153.962 98.2669 131.854 116.632 130.19C119.928 129.833 117.927 127.694 118.162 125.911C118.398 124.128 123.577 117.472 123.813 117.234C120.634 120.681 118.28 124.96 116.632 126.03C114.277 127.575 108.156 128.05 103.8 134.706C101.092 141.006 102.858 149.207 107.214 154.08Z" fill="#F8B000"/>
<path fill-rule="evenodd" clip-rule="evenodd" d="M107.214 154.08C107.331 154.199 107.449 154.318 107.567 154.437C110.745 157.765 111.569 156.814 115.219 158.359C116.161 156.458 116.514 154.912 115.101 155.031C111.687 155.269 102.74 150.277 103.329 140.768C104.035 131.141 113.453 128.288 114.983 128.05C116.514 127.813 117.338 127.694 117.338 126.624C117.338 125.792 118.162 124.603 118.515 124.128C117.809 124.96 117.22 125.673 116.631 126.03C114.277 127.575 108.155 128.05 103.8 134.706C101.092 141.006 102.858 149.207 107.214 154.08Z" fill="#F3A500"/>
<path fill-rule="evenodd" clip-rule="evenodd" d="M130.052 162.282C130.523 162.163 130.994 162.044 131.465 161.807C130.994 161.925 130.523 162.163 130.052 162.282ZM136.527 158.954C137.939 157.765 139.117 156.22 139.941 154.437C143.001 147.068 140.058 141.719 140.058 138.867C140.058 136.371 143.59 130.19 144.061 124.366C143.943 125.555 143.355 129.239 140.647 132.567C137.233 136.727 135.467 136.252 132.171 134.944C128.875 133.637 124.637 132.686 124.872 133.399C125.108 134.112 132.995 134.826 137.233 139.104C140.765 142.67 141.824 153.486 136.527 158.954Z" fill="#F3A500"/>
<path fill-rule="evenodd" clip-rule="evenodd" d="M106.743 153.486C108.508 155.626 110.627 157.171 112.982 157.646C113.688 157.765 114.395 158.003 115.219 158.36C115.925 158.835 116.514 159.31 116.984 159.786C118.279 161.212 120.281 162.044 122.4 162.52C119.457 161.569 117.809 159.192 118.515 159.192C119.457 159.192 120.045 156.458 118.044 155.745C116.043 155.031 112.982 156.458 110.863 155.982C108.626 155.626 106.743 153.605 106.743 153.486ZM126.52 162.876C126.991 162.876 127.344 162.757 127.815 162.757C127.462 162.757 126.991 162.757 126.52 162.876Z" fill="#F3A500"/>
<path fill-rule="evenodd" clip-rule="evenodd" d="M109.686 156.339C110.745 157.053 111.805 157.528 112.982 157.766C113.688 157.885 114.395 158.122 115.219 158.479C115.925 158.954 116.514 159.43 116.985 159.905C117.22 160.143 117.573 160.499 117.809 160.737C115.572 158.717 117.809 158.241 117.22 157.409C116.631 156.577 114.748 157.053 113.335 157.409C111.805 157.528 109.804 156.339 109.686 156.339Z" fill="#CB8400"/>
<path fill-rule="evenodd" clip-rule="evenodd" d="M134.408 114.026C134.408 114.026 134.996 113.194 136.409 113.669C137.939 114.144 138.292 114.501 138.999 114.976C139.705 115.333 141.942 116.997 141.353 117.71C140.765 118.423 138.999 117.71 138.763 117.591C138.528 117.354 135.82 114.382 134.408 114.026Z" fill="#F1AA10"/>
<path fill-rule="evenodd" clip-rule="evenodd" d="M134.76 114.025C134.76 114.025 136.409 114.263 137.115 114.976C137.704 115.57 138.528 116.164 139.352 116.402C140.176 116.64 141.353 116.759 141.118 117.472C140.882 118.185 140.293 118.304 138.999 117.71C137.586 116.878 135.82 114.619 134.76 114.025Z" fill="#EC9F00"/>
<path fill-rule="evenodd" clip-rule="evenodd" d="M134.408 114.025C134.408 114.025 135.938 115.333 136.409 115.927C136.88 116.64 137.704 117.591 138.646 117.948C139.47 118.304 141.589 118.066 141.589 117.591C141.589 117.116 139.587 117.71 138.41 116.878C136.998 116.046 135.467 113.669 134.408 114.025Z" fill="#CB8400"/>
<path fill-rule="evenodd" clip-rule="evenodd" d="M131.818 114.5C133.231 114.619 136.762 116.402 136.291 120.087C135.821 123.89 132.76 120.206 129.817 120.681C126.874 121.156 122.282 124.841 121.811 123.652C121.341 122.583 128.051 113.312 131.818 114.5Z" fill="#FBC150"/>
<path fill-rule="evenodd" clip-rule="evenodd" d="M144.414 114.976C144.414 114.976 144.767 114.976 144.65 114.5C144.532 114.144 143.943 113.312 143.826 113.193C142.295 111.767 140.294 113.55 139.352 114.619C138.41 115.689 137.939 116.878 137.822 116.996C137.586 117.234 137.586 117.234 137.586 117.353C137.704 117.472 137.939 117.591 138.057 117.71C138.999 115.808 140.412 115.214 141.236 114.619C141.707 114.263 141.942 114.382 142.648 114.619C143.355 114.738 144.414 114.976 144.414 114.976Z" fill="#4D3000"/>
<path fill-rule="evenodd" clip-rule="evenodd" d="M137.822 117.115C137.822 117.234 137.704 117.234 137.704 117.353C137.94 117.472 138.057 117.591 138.175 117.71C139.117 115.808 140.529 115.214 141.354 114.619C141.824 114.263 142.06 114.382 142.766 114.619C143.119 114.738 143.708 114.857 144.061 114.976C144.061 114.976 143.355 114.738 143.237 114.619C143.002 114.5 143.002 114.263 142.766 114.144C142.531 114.025 141.589 113.906 141.471 114.025C141.353 114.144 141 114.5 140.765 114.619C140.529 114.738 138.999 115.927 138.881 116.283C138.528 116.402 138.175 116.997 137.822 117.115Z" fill="#210C00"/>
<path fill-rule="evenodd" clip-rule="evenodd" d="M144.532 114.976C144.65 114.976 144.65 114.857 144.65 114.619C144.532 114.262 143.943 113.43 143.825 113.312C143.355 112.836 142.766 112.717 142.177 112.836C142.177 112.955 142.177 113.193 142.177 113.312C142.177 113.549 142.295 113.549 142.648 113.668C143.001 113.787 143.237 114.025 143.472 114.144C143.708 114.262 143.825 114.738 144.061 114.857C144.296 114.857 144.414 114.976 144.532 114.976Z" fill="#CE8600"/>
<path fill-rule="evenodd" clip-rule="evenodd" d="M130.876 114.976C129.817 115.214 128.286 115.808 128.522 116.522C128.639 117.235 130.876 116.403 132.406 116.759C133.937 117.116 134.879 117.354 134.761 116.759C134.525 116.165 132.642 114.739 130.876 114.976Z" fill="#FDD282"/>
<path fill-rule="evenodd" clip-rule="evenodd" d="M130.287 117.234C129.581 117.234 128.639 117.234 128.639 117.829C128.522 118.423 132.995 117.591 130.287 117.234Z" fill="#FDD282"/>
<path fill-rule="evenodd" clip-rule="evenodd" d="M124.99 141.006C124.99 144.334 122.282 140.292 117.338 139.817C112.394 139.46 108.156 143.264 108.627 140.292C108.98 137.321 114.866 132.923 119.575 134.468C124.284 136.132 125.579 139.46 124.99 141.006Z" fill="#FBC150"/>
<path fill-rule="evenodd" clip-rule="evenodd" d="M66.2463 134.944C71.3084 143.145 85.3174 143.383 89.7909 137.321C90.2618 136.727 90.7327 136.133 91.3214 135.657C92.0277 135.182 92.734 134.944 93.4404 134.706C100.621 132.329 104.977 118.898 98.7379 111.41C93.5581 105.467 87.4365 105.705 84.9643 104.516C81.1971 102.733 72.6034 87.2818 62.3614 95.0076C52.1195 102.733 63.6564 115.451 64.1273 119.611C64.4805 122.226 62.2437 128.05 66.2463 134.944Z" fill="#FAB932"/>
<path fill-rule="evenodd" clip-rule="evenodd" d="M84.1404 140.887C84.3759 140.887 84.4936 140.768 84.6113 140.768C88.9671 139.342 88.4962 138.153 91.557 135.538H91.6747C91.9101 135.42 92.1456 135.301 92.381 135.301C99.5622 132.924 103.918 119.492 97.6786 112.004C92.4988 106.061 86.3772 106.299 83.905 105.111C80.1378 103.328 71.5441 87.876 61.3021 95.6018C60.4781 96.1961 59.8894 96.7904 59.3008 97.5036C60.3603 97.979 64.4807 97.3847 67.6592 99.1676C72.4858 101.783 77.4302 107.488 75.5466 110.578C73.663 113.787 68.7187 116.996 69.6605 122.107C69.6605 122.107 77.077 112.004 86.1417 112.836C94.9709 113.55 95.795 120.443 91.7924 127.218C84.0227 140.531 60.2426 139.58 66.7174 122.107C67.8946 119.017 65.0693 119.849 63.5389 118.779C62.0085 117.828 58.3591 110.103 58.2413 109.865C59.8895 114.263 62.7148 118.185 62.9503 120.206C63.3034 123.058 61.0667 128.763 65.0693 135.657C69.7782 140.649 77.9011 142.67 84.1404 140.887Z" fill="#F8B000"/>
<path fill-rule="evenodd" clip-rule="evenodd" d="M84.1405 140.888C84.376 140.888 84.4937 140.769 84.6114 140.769C88.9672 139.343 88.4963 138.154 91.5571 135.539C90.2621 133.875 89.0849 132.806 88.4963 134.113C87.2013 137.322 78.843 143.265 70.6024 138.511C62.3618 133.638 64.0099 123.891 64.363 122.346C64.8339 120.801 65.0694 120.088 64.1276 119.612C63.4213 119.256 62.7149 118.067 62.4795 117.473C62.9504 118.424 63.3035 119.375 63.4213 119.969C63.7744 122.822 61.5377 128.527 65.5403 135.421C69.7783 140.65 77.9012 142.671 84.1405 140.888Z" fill="#F3A500"/>
<path fill-rule="evenodd" clip-rule="evenodd" d="M101.446 123.653C101.563 123.178 101.563 122.702 101.681 122.227C101.563 122.702 101.446 123.178 101.446 123.653ZM101.328 116.403C100.857 114.501 100.033 112.837 98.8559 111.292C93.676 105.349 87.5544 105.587 85.0822 104.398C82.8455 103.328 78.9606 97.3853 73.8985 94.4138C74.958 95.0081 77.9011 97.1476 79.7847 101.189C82.0214 106.062 80.7265 107.488 78.1366 109.865C75.5467 112.243 72.839 115.69 73.5454 115.808C74.3694 115.927 78.372 109.033 84.0227 107.013C88.6139 105.468 98.7381 109.152 101.328 116.403Z" fill="#F3A500"/>
<path fill-rule="evenodd" clip-rule="evenodd" d="M83.4338 141.125C86.1415 140.531 88.4959 139.223 89.9086 137.321C90.3795 136.727 90.8504 136.133 91.439 135.657C92.1453 135.182 92.8517 134.944 93.558 134.706C95.4416 134.112 97.0897 132.805 98.3847 131.022C96.148 133.28 93.4403 133.756 93.6758 133.161C94.0289 132.329 91.9099 130.665 90.3795 132.092C88.8491 133.637 88.8491 136.965 87.4364 138.748C86.0237 140.293 83.5516 141.006 83.4338 141.125ZM100.386 127.218C100.504 126.862 100.739 126.386 100.857 126.03C100.739 126.268 100.504 126.624 100.386 127.218Z" fill="#F3A500"/>
<path fill-rule="evenodd" clip-rule="evenodd" d="M87.2013 139.581C88.2608 138.986 89.2026 138.154 89.7912 137.203C90.2621 136.609 90.733 136.015 91.3216 135.539C92.0279 135.064 92.7343 134.826 93.4406 134.589C93.7938 134.47 94.1469 134.351 94.5001 134.113C91.6748 135.302 92.2634 133.043 91.2039 133.281C90.1444 133.519 89.9089 135.302 89.438 136.847C89.2026 138.273 87.2013 139.581 87.2013 139.581Z" fill="#CB8400"/>
<path fill-rule="evenodd" clip-rule="evenodd" d="M60.3603 98.5742C60.3603 98.5742 59.8894 97.7421 60.9489 96.5536C62.0084 95.365 62.597 95.2461 63.1856 94.7707C63.7742 94.2952 66.2464 92.9878 66.5996 93.8198C67.0705 94.6518 65.5401 95.9593 65.3046 96.0781C65.1869 96.3158 61.302 97.5044 60.3603 98.5742Z" fill="#F1AA10"/>
<path fill-rule="evenodd" clip-rule="evenodd" d="M60.4779 98.2167C60.4779 98.2167 61.4197 96.7904 62.3615 96.5527C63.1855 96.1961 64.0096 95.8396 64.5982 95.1264C65.1868 94.5321 65.7754 93.4624 66.3641 93.9378C66.835 94.4133 66.8349 95.0075 65.54 95.9584C64.3628 97.0281 61.4197 97.6224 60.4779 98.2167Z" fill="#EC9F00"/>
<path fill-rule="evenodd" clip-rule="evenodd" d="M60.3601 98.5739C60.3601 98.5739 62.126 97.7419 62.95 97.623C63.7741 97.5042 64.9513 97.1476 65.6576 96.5533C66.364 95.959 67.0703 93.9384 66.5995 93.7007C66.1286 93.463 65.7754 95.4836 64.5981 96.3156C63.3032 97.1476 60.4778 97.623 60.3601 98.5739Z" fill="#CB8400"/>
<path fill-rule="evenodd" clip-rule="evenodd" d="M59.6537 101.188C60.3601 99.9997 63.4209 97.5037 66.5994 99.5243C69.7779 101.545 65.1867 102.852 64.3626 105.705C63.5386 108.558 64.7158 114.382 63.5386 114.263C62.2437 114.263 56.9461 104.041 59.6537 101.188Z" fill="#FBC150"/>
<path fill-rule="evenodd" clip-rule="evenodd" d="M65.6575 90.0155C65.6575 90.0155 65.7752 89.6589 65.3043 89.6589C64.9512 89.6589 63.8916 89.6589 63.7739 89.7778C61.8904 90.491 62.5967 93.1058 63.0676 94.5322C63.5385 95.9585 64.4803 96.7905 64.4803 97.0282C64.4803 97.1471 64.598 97.1471 64.598 97.2659C64.7157 97.1471 64.9512 97.1471 65.0689 97.0282C63.7739 95.3642 63.7739 93.819 63.6562 92.7493C63.5385 92.155 63.7739 92.0361 64.2448 91.4418C64.9512 90.8475 65.6575 90.0155 65.6575 90.0155Z" fill="#4D3000"/>
<path fill-rule="evenodd" clip-rule="evenodd" d="M64.48 96.9093C64.48 97.0281 64.5978 97.147 64.5978 97.147C64.7155 97.0281 64.9509 97.0281 65.0686 96.9093C63.7737 95.2453 63.7737 93.7001 63.656 92.6304C63.5383 92.0361 63.7737 91.9172 64.2446 91.3229C64.48 91.0852 64.9509 90.6098 65.1864 90.2532C65.1864 90.2532 64.7155 90.7286 64.48 90.8475C64.2446 90.9663 64.0091 90.9663 63.8914 91.0852C63.7737 91.204 63.1851 92.0361 63.1851 92.2738C63.1851 92.5115 63.4205 92.9869 63.4205 93.2246C63.4205 93.4624 63.8914 95.3641 64.1269 95.7207C64.3623 95.9584 64.5977 96.4338 64.48 96.9093Z" fill="#210C00"/>
<path fill-rule="evenodd" clip-rule="evenodd" d="M65.6572 89.8967C65.6572 89.7778 65.5395 89.6589 65.3041 89.6589C64.9509 89.6589 63.8914 89.6589 63.7737 89.7778C63.1851 90.0155 62.8319 90.4909 62.5964 91.0852C62.7142 91.2041 62.9496 91.2041 63.0674 91.2041C63.3028 91.323 63.4205 91.2041 63.656 90.9664C63.8914 90.7287 64.2446 90.491 64.48 90.3721C64.7155 90.2532 65.0686 90.3721 65.3041 90.1344C65.4218 90.1344 65.5395 90.0155 65.6572 89.8967Z" fill="#CE8600"/>
<path fill-rule="evenodd" clip-rule="evenodd" d="M59.6536 102.258C59.4181 103.328 59.3004 104.873 60.0068 105.11C60.7131 105.348 60.9486 102.971 61.8904 101.664C62.8321 100.475 63.5385 99.643 62.9499 99.5241C62.2435 99.4053 60.1245 100.475 59.6536 102.258Z" fill="#FDD282"/>
<path fill-rule="evenodd" clip-rule="evenodd" d="M61.4197 103.804C61.0665 104.398 60.7133 105.349 61.1842 105.587C61.6551 105.824 62.8323 101.545 61.4197 103.804Z" fill="#FDD282"/>
<path fill-rule="evenodd" clip-rule="evenodd" d="M80.2551 119.018C83.1982 120.563 78.3716 121.157 75.8994 125.436C73.4272 129.715 74.9576 135.301 72.4854 133.518C70.0132 131.854 68.6005 124.604 72.1322 121.038C75.5462 117.591 79.0779 117.829 80.2551 119.018Z" fill="#FBC150"/>
<path fill-rule="evenodd" clip-rule="evenodd" d="M98.8554 168.939C108.509 168.82 115.808 156.815 112.982 149.684C112.747 148.97 112.511 148.257 112.394 147.425C112.394 146.593 112.511 145.761 112.629 145.048C114.277 137.56 105.095 126.981 95.5592 128.408C87.7895 129.834 84.9641 135.302 82.6096 136.847C79.1957 139.105 61.6549 138.63 62.9499 151.585C64.2448 164.422 80.9615 160.975 84.7287 162.758C87.2009 163.947 90.968 168.82 98.8554 168.939Z" fill="#FAB932"/>
<path fill-rule="evenodd" clip-rule="evenodd" d="M113.1 156.577C113.1 156.339 113.218 156.221 113.218 156.102C114.277 151.585 112.982 151.466 112.394 147.425V147.306C112.394 147.068 112.511 146.831 112.511 146.593C114.159 139.105 104.977 128.526 95.4414 129.953C87.6717 131.379 84.8463 136.847 82.4919 138.392C79.0779 140.65 61.5371 140.175 62.8321 153.13C62.9498 154.081 63.0675 155.032 63.4207 155.745C64.4802 155.032 66.0106 151.228 69.1891 149.327C73.8981 146.474 81.1969 145.167 82.9628 148.376C84.7286 151.585 84.964 157.528 89.673 159.43C89.673 159.43 84.964 147.782 90.2616 140.293C95.4414 133.043 101.681 135.777 105.448 142.789C112.747 156.339 99.6794 176.427 88.1426 161.807C86.1413 159.192 85.3172 162.045 83.6691 162.877C82.1387 163.709 73.6626 162.877 73.3094 162.877C77.9006 163.709 82.7273 163.352 84.4931 164.184C87.0831 165.373 90.7325 170.246 98.6199 170.365C105.566 168.938 111.334 162.877 113.1 156.577Z" fill="#F8B000"/>
<path fill-rule="evenodd" clip-rule="evenodd" d="M113.1 156.577C113.1 156.339 113.218 156.22 113.218 156.102C114.277 151.585 112.982 151.466 112.394 147.425C110.275 147.663 108.862 148.257 109.686 149.327C111.687 152.06 112.511 162.401 104.153 167.037C95.7946 171.672 88.2604 165.254 87.2008 164.065C86.1413 162.876 85.5527 162.282 84.7286 162.876C84.0223 163.352 82.6096 163.352 82.021 163.233C83.0805 163.352 84.0223 163.471 84.6109 163.708C87.2008 164.897 90.8502 169.77 98.7377 169.889C105.566 168.938 111.334 162.876 113.1 156.577Z" fill="#F3A500"/>
<path fill-rule="evenodd" clip-rule="evenodd" d="M107.332 132.687C106.979 132.33 106.625 132.093 106.272 131.736C106.625 132.093 106.979 132.449 107.332 132.687ZM101.092 129.002C99.3266 128.408 97.443 128.289 95.4417 128.527C87.672 129.953 84.8467 135.421 82.4922 136.966C80.3732 138.392 73.4275 138.749 68.2477 141.483C69.3072 140.888 72.6034 139.462 76.9592 139.937C82.2567 140.532 82.8454 142.315 83.5517 145.88C84.258 149.327 85.7884 153.487 86.2593 152.893C86.7302 152.299 82.9631 145.286 84.258 139.224C85.3175 134.47 93.6759 127.576 101.092 129.002Z" fill="#F3A500"/>
<path fill-rule="evenodd" clip-rule="evenodd" d="M112.865 157.291C113.689 154.676 113.807 151.942 112.982 149.684C112.747 148.971 112.512 148.257 112.394 147.425C112.394 146.593 112.512 145.761 112.629 145.048C113.1 143.146 112.747 141.007 111.923 138.986C112.747 142.077 111.688 144.692 111.334 144.097C110.863 143.384 108.274 144.216 108.744 146.356C109.215 148.495 112.041 150.159 112.865 152.299C113.571 154.557 112.865 157.172 112.865 157.291ZM109.804 135.421C109.569 135.064 109.333 134.707 108.98 134.47C109.215 134.707 109.451 135.064 109.804 135.421Z" fill="#F3A500"/>
<path fill-rule="evenodd" clip-rule="evenodd" d="M113.571 153.25C113.571 152.061 113.336 150.872 112.982 149.803C112.747 149.089 112.512 148.376 112.394 147.544C112.394 146.712 112.511 145.88 112.629 145.167C112.747 144.811 112.747 144.454 112.747 143.979C112.276 147.069 110.746 145.286 110.392 146.356C110.039 147.425 111.452 148.614 112.512 149.684C113.453 150.872 113.571 153.131 113.571 153.25Z" fill="#CB8400"/>
<path fill-rule="evenodd" clip-rule="evenodd" d="M64.9511 155.388C64.9511 155.388 64.0094 155.388 63.5385 153.843C63.1853 152.298 63.1853 151.704 63.1853 150.991C63.1853 150.159 63.1853 147.425 64.1271 147.425C65.0689 147.544 65.4221 149.445 65.4221 149.683C65.5398 150.04 64.598 153.962 64.9511 155.388Z" fill="#F1AA10"/>
<path fill-rule="evenodd" clip-rule="evenodd" d="M64.7156 155.033C64.7156 155.033 64.0092 153.487 64.2447 152.537C64.4801 151.586 64.4801 150.754 64.2447 149.922C64.0092 149.09 63.4206 148.02 64.127 147.782C64.8333 147.545 65.3042 148.02 65.4219 149.565C65.6574 151.11 64.7156 153.844 64.7156 155.033Z" fill="#EC9F00"/>
<path fill-rule="evenodd" clip-rule="evenodd" d="M64.9513 155.388C64.9513 155.388 65.1868 153.368 65.4223 152.655C65.7754 151.942 66.1286 150.634 65.8932 149.683C65.7754 148.732 64.3627 147.187 64.0096 147.425C63.6564 147.781 65.1868 148.97 65.1868 150.515C65.3045 152.06 64.1273 154.675 64.9513 155.388Z" fill="#CB8400"/>
<path fill-rule="evenodd" clip-rule="evenodd" d="M66.7168 157.29C66.0105 156.102 65.5396 152.06 68.9536 150.396C72.2499 148.732 71.0726 153.368 73.0739 155.626C75.0752 157.885 80.6082 159.667 79.9018 160.737C79.3132 161.807 67.8941 161.213 66.7168 157.29Z" fill="#FBC150"/>
<path fill-rule="evenodd" clip-rule="evenodd" d="M60.36 146.355C60.36 146.355 60.1246 146.117 59.8891 146.474C59.6537 146.831 59.1828 147.663 59.1828 147.9C58.8296 149.921 61.4195 150.634 62.8322 150.991C64.2449 151.228 65.5398 150.991 65.6575 150.991C65.7753 150.991 65.7753 150.991 65.893 150.991C65.893 150.753 66.0107 150.634 65.893 150.396C63.774 150.634 62.479 149.802 61.5372 149.446C61.0663 149.208 60.9486 148.97 60.8309 148.257C60.7132 147.425 60.36 146.355 60.36 146.355Z" fill="#4D3000"/>
<path fill-rule="evenodd" clip-rule="evenodd" d="M65.6577 150.871C65.7754 150.871 65.8932 150.871 65.8932 150.871C65.8932 150.634 66.0109 150.515 65.8932 150.277C63.7742 150.515 62.4792 149.683 61.5374 149.326C61.0665 149.088 60.9488 148.851 60.8311 148.138C60.7133 147.781 60.5956 147.187 60.4779 146.83C60.4779 146.83 60.5956 147.543 60.5956 147.781C60.5956 148.019 60.4779 148.256 60.4779 148.494C60.4779 148.732 60.9488 149.564 61.0665 149.683C61.302 149.802 61.7728 149.92 62.0083 149.92C62.2437 150.039 64.0096 150.634 64.4805 150.634C64.7159 150.515 65.3045 150.634 65.6577 150.871Z" fill="#210C00"/>
<path fill-rule="evenodd" clip-rule="evenodd" d="M60.2425 146.355C60.1247 146.355 60.007 146.355 59.8893 146.474C59.6539 146.831 59.183 147.663 59.183 147.901C59.0652 148.614 59.3007 149.089 59.6539 149.565C59.7716 149.446 59.8893 149.327 60.007 149.327C60.2425 149.208 60.1248 149.089 60.1248 148.733C60.0071 148.376 60.007 148.019 60.007 147.782C60.007 147.544 60.2425 147.187 60.2425 146.95C60.3602 146.593 60.3602 146.474 60.2425 146.355Z" fill="#CE8600"/>
<path fill-rule="evenodd" clip-rule="evenodd" d="M67.6586 157.884C68.4827 158.717 69.6599 159.549 70.2485 159.073C70.8371 158.598 68.8358 157.052 68.3649 155.626C67.7763 154.2 67.5409 153.13 67.07 153.724C66.7168 154.2 66.4814 156.458 67.6586 157.884Z" fill="#FDD282"/>
<path fill-rule="evenodd" clip-rule="evenodd" d="M69.8953 157.172C70.2485 157.767 70.8371 158.599 71.308 158.242C71.7789 158.004 68.7181 154.676 69.8953 157.172Z" fill="#FDD282"/>
<path fill-rule="evenodd" clip-rule="evenodd" d="M92.4986 148.614C95.3239 146.831 93.4403 151.348 95.6771 155.746C98.0315 160.144 103.565 161.57 100.857 162.877C98.1493 164.185 91.3213 161.57 90.0264 156.697C88.8491 151.942 90.9682 148.971 92.4986 148.614Z" fill="#FBC150"/>
<path fill-rule="evenodd" clip-rule="evenodd" d="M100.503 92.1553C91.2032 94.5325 86.7297 107.845 91.2032 114.144C91.5564 114.739 92.0273 115.452 92.3804 116.165C92.6159 116.997 92.6158 117.71 92.6158 118.423C92.7336 126.149 104.153 134.231 112.982 130.547C120.163 127.338 121.811 121.395 123.695 119.374C126.52 116.284 143.708 112.718 139.47 100.475C135.232 88.233 119.81 95.6022 115.69 94.7702C112.982 94.2948 108.273 90.3724 100.503 92.1553Z" fill="#FAB932"/>
<path fill-rule="evenodd" clip-rule="evenodd" d="M89.5549 107.488C89.5549 107.726 89.5549 107.844 89.5549 107.963C89.5549 112.599 90.8499 112.48 92.3803 116.165V116.283C92.3803 116.521 92.3803 116.759 92.3803 117.115C92.498 124.841 103.917 132.924 112.746 129.239C119.927 126.03 121.576 120.087 123.459 118.066C126.285 114.976 143.472 111.41 139.234 99.1678C138.881 98.2169 138.528 97.3849 138.057 96.6717C137.233 97.5038 136.644 101.664 133.937 104.279C130.052 108.082 123.224 111.173 120.752 108.439C118.279 105.705 116.749 99.9998 111.687 99.2866C111.687 99.2866 118.986 109.509 115.454 117.947C112.04 126.268 105.33 124.96 100.15 119.017C89.9081 107.607 98.031 84.9047 112.511 96.434C115.101 98.4546 115.219 95.4832 116.514 94.2946C117.808 93.106 126.285 91.9174 126.52 91.9174C121.811 92.274 117.22 93.7003 115.336 93.3437C112.629 92.8683 107.802 88.9459 100.15 90.7288C94.0284 93.8191 89.6727 101.07 89.5549 107.488Z" fill="#F8B000"/>
<path fill-rule="evenodd" clip-rule="evenodd" d="M89.5549 107.488C89.5549 107.726 89.5549 107.845 89.5549 107.964C89.5549 112.599 90.8499 112.48 92.3803 116.165C94.3816 115.452 95.6765 114.501 94.617 113.669C92.0271 111.53 88.8486 101.664 95.912 95.127C102.975 88.7086 111.805 93.1064 113.1 94.0572C114.395 94.8893 115.101 95.3647 115.807 94.6515C116.396 94.0572 117.691 93.8195 118.279 93.7007C117.22 93.8195 116.278 93.9384 115.572 93.8195C112.864 93.3441 108.037 89.4217 100.385 91.2046C94.0284 93.8195 89.6727 101.07 89.5549 107.488Z" fill="#F3A500"/>
<path fill-rule="evenodd" clip-rule="evenodd" d="M100.504 129.477C100.974 129.715 101.328 129.953 101.799 130.19C101.445 129.834 100.974 129.596 100.504 129.477ZM107.449 131.498C109.333 131.617 111.216 131.379 112.982 130.666C120.163 127.457 121.811 121.514 123.695 119.493C125.343 117.71 132.171 115.69 136.409 111.767C135.585 112.599 132.642 114.858 128.286 115.333C122.989 115.927 122.047 114.382 120.516 111.173C119.104 107.964 116.632 104.279 116.278 104.992C115.925 105.706 121.223 111.648 121.341 117.829C121.576 122.583 114.983 131.26 107.449 131.498Z" fill="#F3A500"/>
<path fill-rule="evenodd" clip-rule="evenodd" d="M89.5552 106.775C89.3197 109.509 89.9084 112.242 91.2033 114.144C91.5565 114.738 92.0274 115.452 92.3805 116.165C92.616 116.997 92.616 117.71 92.616 118.423C92.616 120.325 93.44 122.345 94.6173 124.128C93.0869 121.395 93.5578 118.542 94.0287 119.017C94.735 119.612 96.9718 118.185 96.03 116.165C95.0882 114.263 91.9097 113.193 90.6147 111.292C89.5552 109.628 89.5552 106.894 89.5552 106.775ZM97.5604 127.338C97.9135 127.575 98.2667 127.813 98.5021 128.17C98.2667 127.932 97.9135 127.694 97.5604 127.338Z" fill="#F3A500"/>
<path fill-rule="evenodd" clip-rule="evenodd" d="M89.7906 110.935C90.0261 112.124 90.497 113.193 91.2033 114.144C91.5565 114.739 92.0274 115.452 92.3806 116.165C92.616 116.997 92.616 117.71 92.616 118.423C92.616 118.78 92.616 119.255 92.7337 119.612C92.4983 116.521 94.3819 117.829 94.4996 116.759C94.6173 115.689 92.9692 114.857 91.6742 114.025C90.497 113.193 89.9084 110.935 89.7906 110.935Z" fill="#CB8400"/>
<path fill-rule="evenodd" clip-rule="evenodd" d="M136.644 97.3845C136.644 97.3845 137.586 97.1468 138.292 98.5731C138.999 99.9994 139.116 100.594 139.352 101.307C139.587 102.02 140.176 104.754 139.234 104.991C138.292 105.11 137.586 103.327 137.468 103.09C137.35 102.733 137.351 98.6919 136.644 97.3845Z" fill="#F1AA10"/>
<path fill-rule="evenodd" clip-rule="evenodd" d="M136.88 97.6226C136.88 97.6226 137.939 99.0489 137.939 99.8809C137.939 100.832 138.175 101.664 138.528 102.496C138.999 103.209 139.705 104.16 139.117 104.516C138.528 104.873 137.939 104.635 137.468 103.209C136.88 101.783 137.233 98.8111 136.88 97.6226Z" fill="#EC9F00"/>
<path fill-rule="evenodd" clip-rule="evenodd" d="M136.644 97.3848C136.644 97.3848 136.88 99.4054 136.762 100.237C136.644 101.069 136.526 102.377 136.997 103.209C137.35 104.041 138.999 105.348 139.352 104.873C139.705 104.516 137.821 103.565 137.468 102.139C137.115 100.713 137.586 97.8602 136.644 97.3848Z" fill="#CB8400"/>
<path fill-rule="evenodd" clip-rule="evenodd" d="M134.407 96.0776C135.349 97.0284 136.762 100.832 133.819 103.328C130.993 105.705 131.111 100.951 128.639 99.2868C126.167 97.6227 120.398 97.0284 120.751 95.8398C121.222 94.5324 132.406 92.5118 134.407 96.0776Z" fill="#FBC150"/>
<path fill-rule="evenodd" clip-rule="evenodd" d="M143.119 105.11C143.119 105.11 143.355 105.348 143.59 104.873C143.708 104.516 143.943 103.565 143.943 103.327C143.826 101.307 141.118 101.188 139.705 101.188C138.293 101.307 137.115 101.782 136.998 101.901C136.762 101.901 136.88 101.901 136.762 102.02C136.762 102.258 136.762 102.495 136.88 102.614C138.881 101.901 140.294 102.377 141.353 102.614C141.942 102.733 142.06 102.971 142.295 103.565C142.531 104.159 143.119 105.11 143.119 105.11Z" fill="#4D3000"/>
<path fill-rule="evenodd" clip-rule="evenodd" d="M136.998 102.02C136.88 102.02 136.762 102.02 136.762 102.139C136.88 102.377 136.762 102.615 136.88 102.733C138.881 102.02 140.294 102.496 141.353 102.733C141.942 102.852 142.06 103.09 142.295 103.684C142.531 104.041 142.766 104.516 143.002 104.873C143.002 104.873 142.648 104.279 142.648 104.041C142.648 103.803 142.648 103.565 142.648 103.328C142.531 103.09 141.942 102.377 141.824 102.377C141.589 102.377 141.118 102.377 140.883 102.377C140.647 102.377 138.764 102.139 138.293 102.258C137.939 102.02 137.351 102.139 136.998 102.02Z" fill="#210C00"/>
<path fill-rule="evenodd" clip-rule="evenodd" d="M143.237 105.11C143.355 105.11 143.472 105.11 143.59 104.872C143.708 104.516 143.943 103.565 143.943 103.327C143.943 102.614 143.59 102.138 143.119 101.901C143.001 102.019 142.884 102.257 142.884 102.257C142.766 102.376 142.766 102.495 143.001 102.852C143.119 103.208 143.237 103.565 143.237 103.802C143.237 104.04 143.119 104.397 143.119 104.753C143.119 104.872 143.119 104.991 143.237 105.11Z" fill="#CE8600"/>
<path fill-rule="evenodd" clip-rule="evenodd" d="M133.348 95.7203C132.406 95.126 130.993 94.5318 130.522 95.126C130.052 95.7203 132.288 96.6712 133.112 97.9787C133.936 99.2861 134.525 100.237 134.76 99.5238C135.231 99.0484 134.878 96.6712 133.348 95.7203Z" fill="#FDD282"/>
<path fill-rule="evenodd" clip-rule="evenodd" d="M131.347 96.9093C130.876 96.4338 130.17 95.7207 129.816 96.1961C129.463 96.6715 133.113 98.9299 131.347 96.9093Z" fill="#FDD282"/>
<path fill-rule="evenodd" clip-rule="evenodd" d="M111.334 110.46C108.979 112.837 109.803 107.964 106.625 104.279C103.328 100.595 97.6777 100.357 100.032 98.4551C102.387 96.5533 109.685 97.5042 111.922 101.902C114.159 106.419 112.864 109.747 111.334 110.46Z" fill="#FBC150"/>
<g opacity="0.1" style="mix-blend-mode:overlay">
<path fill-rule="evenodd" clip-rule="evenodd" d="M71.4259 53.0508C74.6045 49.8416 77.1944 49.0096 78.6071 49.3662C80.0197 49.7227 91.0857 51.9811 95.5592 51.9811C100.15 51.9811 97.4428 58.8749 94.6174 62.3218C91.7921 65.8876 86.4945 74.4454 86.4945 79.6752C86.4945 85.0239 84.3755 122.227 86.4945 140.769C88.6135 159.311 91.6744 168.344 88.9667 168.344C86.2591 168.344 63.8917 168.106 59.3005 145.404C56.2397 130.19 54.2384 102.258 55.4156 83.4787C56.5929 65.2933 59.3005 65.2933 71.4259 53.0508Z" fill="white"/>
</g>
<g opacity="0.2" style="mix-blend-mode:overlay">
<path fill-rule="evenodd" clip-rule="evenodd" d="M69.0715 167.511C69.0715 167.511 63.5386 164.421 60.5955 160.38C57.6524 156.339 56.0043 147.9 54.7093 142.67C53.4144 137.44 52.3549 122.345 52.3549 121.275C52.3549 120.206 52.4726 137.678 54.003 145.047C55.6511 152.297 58.0055 165.372 69.0715 167.511Z" fill="#BA7016"/>
</g>
<g opacity="0.1" style="mix-blend-mode:overlay">
<path fill-rule="evenodd" clip-rule="evenodd" d="M61.5371 77.0597C64.7156 77.4163 68.2474 79.6746 68.2474 85.7364C68.2474 91.6794 66.0106 115.57 68.2474 131.735C70.4841 147.9 76.3702 160.974 74.6044 161.568C72.8385 162.163 61.4194 152.297 59.1827 129.358C56.9459 106.418 58.0054 74.2071 61.5371 77.0597Z" fill="white"/>
</g>
<g opacity="0.2" style="mix-blend-mode:overlay">
<path fill-rule="evenodd" clip-rule="evenodd" d="M71.7789 67.9082C70.1308 67.195 69.8954 66.1253 71.1903 64.5801C72.4853 62.9161 75.3106 59.8258 78.8423 60.5389C82.374 61.2521 82.374 66.1253 79.6664 67.195C77.0764 68.1459 77.0765 69.0968 71.7789 67.9082Z" fill="white"/>
</g>
<g opacity="0.1" style="mix-blend-mode:overlay">
<path fill-rule="evenodd" clip-rule="evenodd" d="M60.5954 69.097C59.6536 70.8799 70.2487 74.4457 71.8968 78.0115C73.5449 81.5772 72.8386 122.465 75.0753 138.511C77.3121 154.557 81.9033 159.192 84.14 161.569C86.3768 163.828 78.9602 82.647 80.8438 80.2698C82.7273 77.7737 91.792 78.0115 107.214 76.704C122.635 75.3966 126.991 73.6137 121.694 73.0194C118.044 72.6628 101.563 72.1874 88.0249 71.8308C72.1322 71.4742 62.7144 64.8181 60.5954 69.097Z" fill="white"/>
</g>
<g opacity="0.2" style="mix-blend-mode:overlay">
<path fill-rule="evenodd" clip-rule="evenodd" d="M75.4286 42.8287C75.4286 42.8287 67.4234 52.2185 63.0676 55.7843C58.7119 59.4689 53.0612 65.7685 52.5903 67.0759C51.2953 71.1171 74.6045 76.1092 98.3846 76.5846C123.46 77.0601 147.946 71.236 146.651 67.0759C146.298 65.7685 140.529 59.3501 136.174 55.7843C131.818 52.0997 123.813 42.8287 123.813 42.8287L103.8 39.7384L103.682 38.4309L99.5618 39.0252L95.4415 38.4309L95.3238 39.7384L75.4286 42.8287Z" fill="white"/>
</g>
<g opacity="0.1" style="mix-blend-mode:overlay">
<path fill-rule="evenodd" clip-rule="evenodd" d="M66.7168 72.5423C64.9509 71.948 80.6081 78.8418 102.387 78.8418C116.043 78.8418 122.753 90.7277 122.753 103.089C122.753 115.569 119.339 158.477 118.28 161.449C117.22 164.42 115.925 166.916 117.102 167.392C118.28 167.867 129.581 166.084 134.054 138.39C138.646 110.815 136.527 73.6121 134.643 72.5423C132.759 71.5914 100.032 79.7927 66.7168 72.5423Z" fill="white"/>
</g>
<g opacity="0.1" style="mix-blend-mode:overlay">
<path fill-rule="evenodd" clip-rule="evenodd" d="M119.575 56.4969C124.519 60.6569 132.524 68.3828 134.055 75.0389C136.291 84.6664 136.291 117.59 134.055 136.489C131.818 155.388 124.637 165.609 119.104 168.819C113.688 172.028 140.529 170.126 145.238 145.047C149.947 119.968 149.005 78.9612 145.474 70.2845C141.824 61.6078 128.404 48.8899 125.578 48.8899C122.753 48.8899 140.647 65.649 138.057 66.8376C136.762 67.5507 133.584 63.985 130.287 60.3004C123.695 52.6934 118.633 50.9105 116.278 51.2671C112.158 51.7425 118.633 55.6649 119.575 56.4969Z" fill="white"/>
</g>
<path opacity="0.12" fill-rule="evenodd" clip-rule="evenodd" d="M97.7958 161.449C97.7958 158.834 93.3223 110.934 93.3223 101.663C93.3223 92.511 97.9135 87.8755 102.387 87.8755C106.86 87.8755 104.624 94.7693 109.215 97.0276C113.688 99.2859 117.102 98.9294 116.161 109.508C115.219 120.086 116.043 162.4 111.452 164.183C106.86 166.085 99.5616 170.007 97.7958 161.449Z" fill="#F6F6F6"/>
</svg>
