<svg width="200" height="200" viewBox="0 0 200 200" fill="none" xmlns="http://www.w3.org/2000/svg">
<path opacity="0.38" fill-rule="evenodd" clip-rule="evenodd" d="M71.6554 37.5986C71.6554 37.5986 71.8951 42.7096 71.7753 43.7793C71.0561 46.8696 54.2746 57.5669 50.3189 68.502C47.3222 76.7032 50.3189 119.492 50.6785 129.358C51.0381 139.342 53.1958 159.667 63.2646 166.798C78.7276 177.733 121.041 177.733 136.504 166.798C146.693 159.667 148.73 139.223 149.09 129.358C149.689 119.374 152.686 76.7032 149.689 68.502C145.734 57.6858 128.952 46.8696 128.353 43.7793C128.113 42.7096 128.353 37.5986 128.353 37.5986H71.6554Z" fill="#CBCBCB"/>
<path fill-rule="evenodd" clip-rule="evenodd" d="M63.0249 52.5754C58.1103 57.0921 52.4765 62.7973 50.3189 68.5025C47.3222 76.7038 50.3189 119.493 50.6785 129.358C51.0381 139.342 53.1958 159.667 63.2646 166.799C78.7276 177.734 121.041 177.734 136.504 166.799C146.693 159.667 148.73 139.224 149.09 129.358C149.689 119.374 152.686 76.7038 149.689 68.5025C147.652 63.1539 142.497 57.6864 137.822 53.2886C117.565 58.043 79.3269 59.2315 63.0249 52.5754Z" fill="#F7B371"/>
<path fill-rule="evenodd" clip-rule="evenodd" d="M63.3843 52.6937C63.0247 52.2182 63.9836 51.3862 67.9392 51.3862C80.4055 51.5051 130.75 47.9393 137.942 53.4068C142.737 57.0914 83.1624 60.5384 63.3843 52.6937Z" fill="#EE7C09"/>
<path fill-rule="evenodd" clip-rule="evenodd" d="M123.558 81.1018C123.558 81.1018 125.836 79.4378 127.274 77.8926C128.713 76.2286 134.347 73.0194 140.22 75.7531C146.094 78.4869 149.69 84.7864 150.529 88.5899C151.368 92.5123 150.049 94.7706 148.491 96.3158C146.933 97.8609 145.734 97.9798 145.135 98.9306C144.535 99.8815 144.296 102.496 141.658 104.755C139.021 107.013 130.151 109.747 123.439 104.992C114.448 98.5741 113.969 86.0939 123.558 81.1018Z" fill="#F28F00"/>
<path fill-rule="evenodd" clip-rule="evenodd" d="M145.854 98.0982C145.495 98.3359 145.255 98.5736 145.135 98.8113C144.536 99.7622 144.296 102.377 141.659 104.635C139.022 106.894 130.151 109.627 123.439 104.873C121.521 103.447 119.963 101.783 118.764 99.9999C127.035 111.41 141.419 102.496 140.58 92.5118C139.981 85.2614 134.826 82.8842 135.545 82.1711C136.265 81.4579 144.416 88.946 145.495 92.7495C145.974 94.4135 145.974 96.3153 145.854 98.0982Z" fill="#F08800"/>
<path fill-rule="evenodd" clip-rule="evenodd" d="M145.135 79.1997C145.255 79.3186 145.375 79.4374 145.495 79.5563C145.135 79.3186 145.015 79.1997 145.135 79.1997ZM148.012 82.7655C149.33 84.7861 150.169 86.9255 150.529 88.5896C151.368 92.5119 150.049 94.7702 148.491 96.3154C147.412 97.3851 146.573 97.7417 145.854 98.2171C145.495 97.8606 145.255 97.3851 145.135 96.7908C145.135 96.7908 145.495 91.4422 142.977 88.7084C140.46 86.0935 137.823 84.0729 136.864 83.3598C135.785 82.6466 135.545 82.29 135.545 82.29C141.299 83.0032 144.775 89.5404 147.772 87.0444C148.611 86.2124 148.731 84.5484 148.012 82.7655Z" fill="#F08800"/>
<path fill-rule="evenodd" clip-rule="evenodd" d="M136.504 82.647C136.504 82.647 142.498 85.8562 145.015 89.8974C147.652 93.9386 150.409 91.5614 150.049 87.2825C150.169 87.7579 150.289 88.1145 150.409 88.4711C151.248 92.3934 149.929 94.6517 148.371 96.1969C147.412 97.1478 146.693 97.5043 146.094 97.8609C145.614 97.6232 145.374 97.3855 145.374 97.3855C145.374 97.3855 145.974 95.1272 144.535 91.7991C144.176 90.6105 143.696 89.4219 142.857 88.5899C142.498 88.2333 142.138 87.8768 141.778 87.5202C140.58 85.975 138.902 84.311 136.504 82.647Z" fill="#F08600"/>
<path fill-rule="evenodd" clip-rule="evenodd" d="M148.971 84.5497L149.09 84.6685V84.7874V84.9063V85.0251V85.144V85.2628V85.3817V85.5006V85.6194V85.7383V85.8571V85.976V86.0949V86.2137V86.3326V86.4514V86.5703V86.6891V86.808V86.9269V87.0457V87.1646V87.2834V87.4023V87.5212V87.64V87.7589V87.8777V87.9966V88.1155V88.2343V88.3532V88.472V88.5909V88.7098C149.09 88.8286 149.09 88.8286 149.09 88.9475C149.929 92.8698 148.611 95.1281 147.053 96.6733C145.494 98.2185 144.296 98.3373 143.696 99.2882C143.097 100.239 142.857 102.854 140.22 105.112L140.1 105.231L139.98 105.35L139.861 105.469L139.741 105.588L139.621 105.707L139.501 105.825C139.501 105.825 139.381 105.825 139.381 105.944L139.261 106.063C139.261 106.063 139.141 106.063 139.141 106.182C139.141 106.182 139.021 106.182 139.021 106.301L138.902 106.42L138.782 106.539H138.662H138.542H138.422L138.302 106.657H138.182H138.063H137.943L137.823 106.776H137.703H137.583H137.463L137.343 106.895H137.223H137.104L137.703 106.539H137.583H137.463H137.343C137.223 106.539 137.223 106.539 137.104 106.657H136.984H136.864H136.744H136.624H136.384H136.265H136.145C136.025 106.657 135.785 106.776 135.665 106.776H135.545C135.425 106.776 135.306 106.776 135.306 106.776H135.186C134.946 106.776 134.826 106.895 134.586 106.895C134.467 106.895 134.347 106.895 134.227 106.895H133.987C133.867 106.895 133.747 106.895 133.627 106.895H133.388C133.268 106.895 133.148 106.895 133.028 106.895C132.788 106.895 132.668 106.895 132.429 106.895C132.189 106.895 132.069 106.895 131.829 106.895C131.59 106.895 131.35 106.895 131.23 106.895H130.99C131.35 106.895 136.984 107.133 141.299 103.092C145.854 98.9316 145.614 92.0378 142.737 88.2343C139.861 84.4308 136.145 82.8857 135.665 81.8159C135.186 80.7462 141.898 84.9063 144.416 89.0663C146.813 93.1075 146.094 96.1979 146.933 96.1979C147.412 96.5544 152.567 91.4435 148.971 84.5497Z" fill="#E78000"/>
<path fill-rule="evenodd" clip-rule="evenodd" d="M144.295 100.595C144.535 100.119 145.254 97.8611 145.015 95.6028C144.775 93.1068 143.936 89.7787 142.138 87.7581C140.46 85.9752 147.292 91.6805 145.134 98.4554C145.015 98.5743 145.015 98.5743 145.015 98.6931C144.775 99.1686 144.655 99.8817 144.295 100.595Z" fill="#B16000"/>
<path fill-rule="evenodd" clip-rule="evenodd" d="M121.88 83.4794C121.88 83.4794 124.278 83.2417 125.836 82.2909C127.394 81.34 128.473 78.1308 129.552 77.1799C130.631 76.229 129.072 76.8233 128.114 77.7742C127.035 78.7251 126.795 79.3194 125.117 80.6268C123.439 82.0531 121.041 83.4794 121.88 83.4794Z" fill="#F08600"/>
<path fill-rule="evenodd" clip-rule="evenodd" d="M128.593 78.3677C128.593 78.3677 127.155 81.3392 126.316 81.9335C125.477 82.5278 124.398 83.0032 124.038 83.0032C123.679 83.0032 124.398 82.7655 125.237 81.9335C126.076 81.1015 126.915 79.9129 127.514 79.1997C128.114 78.3677 129.432 77.1791 128.593 78.3677Z" fill="#B16000"/>
<path fill-rule="evenodd" clip-rule="evenodd" d="M125.237 103.091C130.511 103.448 135.186 98.9312 135.306 94.89C135.306 90.7299 132.309 83.5984 133.747 80.9835C135.186 78.3686 138.302 80.7458 140.1 79.3195C141.898 77.8932 135.426 73.4954 133.028 75.6348C130.511 77.7743 128.593 83.0041 124.398 85.3813C120.202 87.7585 118.644 86.451 118.045 87.4019C115.048 92.7505 118.764 102.735 125.237 103.091Z" fill="#EE7C09"/>
<path fill-rule="evenodd" clip-rule="evenodd" d="M122.24 83.7168C122.839 83.5979 125.476 83.1225 126.555 81.9339C127.634 80.8642 129.072 78.0116 129.552 77.2984C130.031 76.5853 130.511 76.2287 130.75 76.4664C131.11 76.7041 129.072 80.5076 127.035 82.1716C124.997 83.9545 121.64 83.9545 122.24 83.7168Z" fill="#F5A249"/>
<path fill-rule="evenodd" clip-rule="evenodd" d="M118.285 90.6101C118.165 92.8684 118.285 96.3154 121.041 96.6719C123.679 97.1474 126.196 94.2947 126.555 91.7987C126.915 89.3027 127.155 88.2329 128.114 87.1632C129.073 85.9746 131.23 81.8146 132.309 79.3185C133.388 76.7036 132.309 77.4168 131.83 78.2488C131.35 78.9619 129.552 82.6466 126.196 85.2615C122.839 87.8764 120.322 88.8272 119.483 88.9461C118.644 88.9461 118.165 89.897 118.285 90.6101Z" fill="#ED7500"/>
<path fill-rule="evenodd" clip-rule="evenodd" d="M148.73 87.877C148.73 87.877 147.891 84.9055 144.415 83.3603C141.059 81.8152 137.823 81.6963 139.021 80.9832C140.22 80.3889 148.85 81.8152 148.73 87.877Z" fill="#F08800"/>
<path fill-rule="evenodd" clip-rule="evenodd" d="M148.731 88.5899C148.491 87.7578 148.97 85.8561 147.172 83.8355C145.374 81.8149 142.498 80.6263 143.576 80.032C144.416 79.4377 149.81 83.1223 148.731 88.5899Z" fill="#F08800"/>
<path fill-rule="evenodd" clip-rule="evenodd" d="M116.486 141.244C116.486 141.244 119.003 140.174 120.921 138.986C122.719 137.797 129.072 136.014 133.987 140.174C139.021 144.334 140.819 151.228 140.58 155.269C140.34 159.192 138.542 161.093 136.624 162.163C134.706 163.233 133.507 163.114 132.668 163.827C131.829 164.54 130.99 167.036 127.754 168.581C124.637 170.127 115.407 170.483 110.133 164.184C103.181 155.864 106.058 143.74 116.486 141.244Z" fill="#F28F00"/>
<path fill-rule="evenodd" clip-rule="evenodd" d="M133.747 163.352C133.387 163.471 133.028 163.59 132.788 163.827C131.949 164.541 131.11 167.037 127.873 168.582C124.757 170.127 115.527 170.484 110.253 164.184C108.695 162.401 107.616 160.381 107.016 158.36C112.171 171.434 128.233 166.561 130.031 156.696C131.35 149.564 127.034 145.88 127.873 145.404C128.713 144.929 134.706 154.2 134.826 158.241C134.706 159.786 134.346 161.688 133.747 163.352Z" fill="#F08800"/>
<path fill-rule="evenodd" clip-rule="evenodd" d="M137.943 144.929C138.063 145.048 138.182 145.286 138.182 145.405C137.943 145.048 137.823 144.81 137.943 144.929ZM139.741 149.089C140.1 150.991 139.501 152.536 138.302 153.13C134.826 154.794 133.148 147.544 127.754 145.405C127.754 145.405 127.874 145.761 128.713 146.712C129.552 147.663 131.59 150.278 133.268 153.487C134.946 156.696 133.268 161.807 133.268 161.807C133.268 162.52 133.388 162.996 133.627 163.352C134.347 163.115 135.425 162.996 136.624 162.164C138.542 161.094 140.34 159.192 140.58 155.27C140.7 153.606 140.46 151.347 139.741 149.089Z" fill="#F08800"/>
<path fill-rule="evenodd" clip-rule="evenodd" d="M128.713 145.999C128.713 145.999 133.627 150.634 135.066 155.151C136.504 159.786 139.86 158.241 140.58 153.962C140.58 154.438 140.58 154.794 140.58 155.27C140.34 159.192 138.542 161.094 136.624 162.163C135.545 162.877 134.586 162.995 133.867 163.233C133.507 162.877 133.268 162.52 133.268 162.52C133.268 162.52 134.466 160.499 133.987 156.815C133.987 155.626 133.747 154.319 133.268 153.249C133.028 152.774 132.788 152.298 132.548 151.941C131.709 150.277 130.511 148.257 128.713 145.999Z" fill="#F08600"/>
<path fill-rule="evenodd" clip-rule="evenodd" d="M140.22 151.11V151.229V151.348V151.466V151.585V151.704V151.823V151.942V152.061V152.18V152.298V152.417V152.536V152.655V152.774V152.893V153.012V153.13V153.249V153.368V153.487V153.606V153.725V153.844V153.962V154.081V154.2V154.319V154.438V154.557V154.794V155.032V155.151V155.27V155.389V155.508C140.22 155.626 140.22 155.626 140.22 155.745C139.98 159.668 138.182 161.569 136.264 162.639C134.346 163.709 133.148 163.59 132.309 164.303C131.47 165.016 130.631 167.512 127.394 169.058C127.394 169.058 127.274 169.058 127.274 169.176C127.274 169.176 127.154 169.176 127.154 169.295H127.034H126.915H126.795H126.675H126.555C126.435 169.295 126.435 169.295 126.315 169.295H126.195C126.076 169.295 126.076 169.295 125.956 169.295H125.836H125.716H125.476H125.356H125.236H125.117H124.997H124.877H124.757H124.637H124.517H124.397H124.278H124.158H124.038H123.918H123.798H123.678H123.438H123.319H123.199C123.079 169.295 123.079 169.295 122.959 169.295H122.839H122.719H122.599H122.48H122.24H122.12H122C121.88 169.295 121.64 169.295 121.521 169.295H121.401C121.281 169.295 121.161 169.295 121.041 169.295H120.921C120.682 169.295 120.562 169.295 120.322 169.176C120.202 169.176 120.082 169.176 119.962 169.176H119.723C119.603 169.176 119.483 169.176 119.363 169.058H119.123C119.003 169.058 118.883 169.058 118.764 168.939C118.524 168.939 118.404 168.82 118.164 168.82C117.925 168.82 117.805 168.701 117.565 168.701C117.325 168.582 117.205 168.582 116.966 168.463L116.726 168.344C117.085 168.463 122.36 170.008 127.634 167.275C133.028 164.422 134.706 157.647 132.908 153.249C131.11 148.852 127.874 146.474 127.754 145.286C127.634 144.097 133.028 149.921 134.346 154.438C135.665 158.955 134.107 161.807 134.946 161.926C135.665 162.283 141.898 158.717 140.22 151.11Z" fill="#E78000"/>
<path fill-rule="evenodd" clip-rule="evenodd" d="M131.589 165.491C131.829 165.135 133.268 163.114 133.627 160.856C134.107 158.36 134.107 155.032 132.908 152.536C131.709 150.396 136.864 157.647 133.028 163.709C132.908 163.709 132.908 163.827 132.788 163.827C132.428 164.184 132.069 164.778 131.589 165.491Z" fill="#B16000"/>
<path fill-rule="evenodd" clip-rule="evenodd" d="M114.329 143.145C114.329 143.145 116.726 143.502 118.404 143.026C120.082 142.551 122 139.698 123.319 138.985C124.637 138.391 122.959 138.51 121.761 139.223C120.562 139.936 120.082 140.293 118.165 141.244C116.247 142.076 113.49 142.908 114.329 143.145Z" fill="#F08600"/>
<path fill-rule="evenodd" clip-rule="evenodd" d="M122.12 139.937C122.12 139.937 119.962 142.433 119.003 142.79C118.044 143.146 116.846 143.265 116.486 143.146C116.126 143.027 116.965 143.027 117.924 142.433C119.003 141.839 120.082 140.888 120.801 140.412C121.64 139.818 123.199 138.986 122.12 139.937Z" fill="#B16000"/>
<path fill-rule="evenodd" clip-rule="evenodd" d="M112.531 162.995C117.565 164.659 123.319 161.568 124.398 157.646C125.476 153.724 124.398 145.998 126.435 143.858C128.473 141.719 130.99 144.809 133.028 143.858C135.066 142.908 130.031 137.084 127.155 138.391C124.158 139.817 120.921 144.334 116.367 145.641C111.692 146.949 110.493 145.166 109.654 145.998C105.339 150.396 106.298 160.974 112.531 162.995Z" fill="#EE7C09"/>
<path fill-rule="evenodd" clip-rule="evenodd" d="M114.568 143.502C115.168 143.621 117.805 143.74 119.243 142.908C120.562 142.076 122.6 139.818 123.319 139.223C124.038 138.629 124.517 138.391 124.757 138.748C124.997 139.104 122.12 142.314 119.723 143.383C117.206 144.453 113.849 143.621 114.568 143.502Z" fill="#F5A249"/>
<path fill-rule="evenodd" clip-rule="evenodd" d="M108.934 149.088C108.215 151.228 107.496 154.556 110.013 155.626C112.41 156.695 115.647 154.675 116.606 152.297C117.565 149.92 118.164 149.088 119.363 148.137C120.561 147.305 123.798 143.858 125.476 141.6C127.154 139.342 125.955 139.817 125.236 140.412C124.637 141.006 122 144.096 118.044 145.76C114.088 147.424 111.451 147.781 110.612 147.662C109.773 147.662 109.054 148.375 108.934 149.088Z" fill="#ED7500"/>
<path fill-rule="evenodd" clip-rule="evenodd" d="M139.021 154.2C139.021 154.2 138.901 151.109 136.024 148.851C133.148 146.474 130.031 145.523 131.469 145.166C132.788 144.81 140.819 148.376 139.021 154.2Z" fill="#F08800"/>
<path fill-rule="evenodd" clip-rule="evenodd" d="M138.902 154.913C138.902 154.081 139.861 152.298 138.542 149.921C137.343 147.544 134.826 145.642 136.025 145.404C137.224 145.048 141.419 149.921 138.902 154.913Z" fill="#F08800"/>
<path opacity="0.5" d="M100.064 171.315C117.343 171.315 131.35 168.495 131.35 165.016C131.35 161.537 117.343 158.716 100.064 158.716C82.7858 158.716 68.7788 161.537 68.7788 165.016C68.7788 168.495 82.7858 171.315 100.064 171.315Z" fill="#D48022"/>
<path fill-rule="evenodd" clip-rule="evenodd" d="M74.5322 171.316C74.8918 170.721 75.9706 169.652 77.6487 169.652C79.3269 169.652 94.4302 171.434 99.2249 171.316C104.02 171.197 118.883 170.008 121.281 169.295C123.678 168.582 125.236 168.82 125.955 169.414C126.555 170.008 126.555 171.197 126.195 171.316C125.596 171.553 96.2282 178.209 74.5322 171.316Z" fill="#DF7600"/>
<path fill-rule="evenodd" clip-rule="evenodd" d="M74.6522 162.163C74.6522 162.163 86.8787 159.311 101.622 159.786C116.366 160.262 127.034 161.807 127.034 161.807C127.034 161.807 98.0264 154.794 74.6522 162.163Z" fill="#CF7C25"/>
<path opacity="0.38" fill-rule="evenodd" clip-rule="evenodd" d="M71.6554 38.3119C71.7753 39.7382 71.8951 42.9474 71.6554 43.7794C71.056 46.8698 54.2746 57.5671 50.3189 68.5021C47.3222 76.7034 50.3189 119.493 50.6785 129.358C51.0381 139.342 53.1958 159.667 63.2646 166.798C78.7276 177.733 121.041 177.733 136.504 166.798C146.693 159.667 148.73 139.223 149.09 129.358C149.689 119.374 152.686 76.7034 149.689 68.5021C145.734 57.6859 128.952 46.8698 128.353 43.7794C128.233 42.9474 128.353 39.6194 128.353 38.3119C126.914 38.3119 125.476 38.4308 124.157 38.9062C124.157 38.9062 123.918 43.5417 124.757 45.0869C125.596 46.6321 146.573 61.2517 148.85 71.4736C151.248 81.6954 149.45 103.565 148.73 115.57C148.011 127.575 146.093 150.039 141.059 158.241C135.905 166.442 128.353 168.344 121.161 169.532C116.126 170.364 107.496 170.127 101.383 170.008C100.903 170.008 100.544 170.008 100.064 170.008C99.5846 170.008 99.1051 170.008 98.7455 170.008C92.6323 170.008 84.0018 170.364 78.9673 169.532C71.8951 168.344 64.2236 166.561 59.0693 158.241C53.915 150.039 52.1169 127.575 51.3977 115.57C50.6785 103.565 49.0004 81.5766 51.3977 71.3547C53.7951 61.1328 74.6521 46.5132 75.4912 44.968C76.3302 43.4229 76.0905 38.7874 76.0905 38.7874C74.6521 38.4308 73.2137 38.1931 71.6554 38.3119Z" fill="#959696"/>
<path fill-rule="evenodd" clip-rule="evenodd" d="M72.2546 38.9055C72.2546 38.9055 79.9261 40.8073 86.6387 41.045C93.3513 41.1638 122.12 41.6393 124.517 41.045C127.034 40.4507 128.353 38.9055 128.353 38.9055H72.2546Z" fill="#B2B1B2"/>
<path fill-rule="evenodd" clip-rule="evenodd" d="M71.8952 37.242H128.473V29.7539C128.473 28.803 127.634 28.0898 126.795 28.0898H73.4535C72.6144 28.0898 71.8952 28.803 71.8952 29.635V37.242Z" fill="#B8B7B8"/>
<path fill-rule="evenodd" clip-rule="evenodd" d="M128.472 34.5079V34.0324C126.075 32.6061 108.574 29.9912 108.574 29.9912C108.574 29.9912 109.294 30.8232 111.211 31.4175C113.009 32.0118 126.435 35.221 128.472 34.5079Z" fill="#959696"/>
<path fill-rule="evenodd" clip-rule="evenodd" d="M72.0146 32.8444C72.0146 32.8444 72.3742 33.7953 73.8127 34.033C75.3709 34.3896 92.1524 35.3405 92.1524 34.865C92.1524 34.3896 72.0146 32.2501 72.0146 32.8444Z" fill="#A2A3A3"/>
<path fill-rule="evenodd" clip-rule="evenodd" d="M95.7487 28.3279C95.7487 28.3279 74.7719 28.6845 74.1725 28.6845C73.5732 28.6845 72.9739 29.3976 73.2136 30.7051C73.5732 32.1314 73.2136 34.3897 76.2103 34.7463C79.207 35.1028 100.903 34.7463 101.023 35.1028C101.023 35.4594 95.2693 36.0537 97.307 36.1726C99.2249 36.2914 106.297 36.0537 106.297 36.0537C106.297 36.0537 124.517 36.2914 125.596 35.6971C126.675 35.1028 128.832 29.7542 125.596 29.041C122.24 28.4467 95.7487 28.3279 95.7487 28.3279Z" fill="#CBCBCB"/>
<path fill-rule="evenodd" clip-rule="evenodd" d="M95.7487 28.3279C95.7487 28.3279 74.7719 28.6845 74.1725 28.6845C73.5732 28.6845 72.9739 29.3976 73.2136 30.7051C73.5732 32.1314 73.2136 34.3897 76.2103 34.7463C79.207 35.1028 100.903 34.7463 101.023 35.1028C101.023 35.4594 95.2693 36.0537 97.307 36.1726C99.2249 36.2914 106.297 36.0537 106.297 36.0537C106.297 36.0537 124.517 36.2914 125.596 35.6971C126.675 35.1028 128.832 29.7542 125.596 29.041C122.24 28.4467 95.7487 28.3279 95.7487 28.3279Z" fill="#CBCBCB"/>
<path fill-rule="evenodd" clip-rule="evenodd" d="M126.315 34.5083C126.554 34.1517 126.674 33.7951 126.794 33.3197C121.64 31.8934 108.574 29.8728 108.574 29.8728C108.574 29.8728 109.294 30.7048 111.211 31.2991C112.77 31.8934 121.76 34.1517 126.315 34.5083Z" fill="#B2B1B2"/>
<path fill-rule="evenodd" clip-rule="evenodd" d="M85.56 31.2993C85.56 31.2993 87.9574 32.6068 92.7521 33.5576C97.5468 34.3896 110.133 35.2217 112.89 35.1028C115.647 34.8651 116.606 34.1519 116.606 34.1519L85.56 31.2993Z" fill="#B2B1B2"/>
<path fill-rule="evenodd" clip-rule="evenodd" d="M86.8785 31.1797C86.8785 31.1797 85.4401 31.1797 85.4401 31.4174C85.4401 31.6551 93.7109 33.0814 98.9851 33.6757C104.259 34.27 116.486 34.9832 116.486 34.0323C116.486 33.2003 86.8785 31.1797 86.8785 31.1797Z" fill="#959696"/>
<path fill-rule="evenodd" clip-rule="evenodd" d="M73.5733 32.7258C73.6931 33.2013 73.9329 33.7956 74.4123 34.1521C77.7686 34.5087 92.1528 35.3407 92.1528 34.8653C92.1528 34.3899 78.2481 32.9635 73.5733 32.7258Z" fill="#B2B1B2"/>
<path fill-rule="evenodd" clip-rule="evenodd" d="M71.0559 36.5283H128.473C129.192 36.5283 129.671 37.1226 129.671 37.7169C129.671 38.4301 129.072 38.9055 128.473 38.9055H71.0559C70.3367 38.9055 69.8573 38.3112 69.8573 37.7169C69.8573 37.0038 70.3367 36.5283 71.0559 36.5283Z" fill="#B2B1B2"/>
<path fill-rule="evenodd" clip-rule="evenodd" d="M71.0559 36.5283H73.5732C72.4943 36.5283 71.1758 36.766 70.9361 37.2415C70.3367 38.0735 71.1758 38.5489 72.9738 38.5489C74.5321 38.5489 110.133 38.5489 123.198 38.5489C126.555 38.5489 128.832 38.3112 128.952 37.7169C129.072 37.3603 127.993 36.5283 125.835 36.5283H128.592C129.312 36.5283 129.791 37.1226 129.791 37.7169C129.791 38.4301 129.192 38.9055 128.592 38.9055H71.0559C70.3367 38.9055 69.8573 38.3112 69.8573 37.7169C69.8573 37.0038 70.3367 36.5283 71.0559 36.5283Z" fill="#7E7E7D"/>
<path fill-rule="evenodd" clip-rule="evenodd" d="M127.154 37.0045C127.154 39.1439 72.1346 37.7176 72.1346 37.0045C72.1346 36.2913 127.154 37.0045 127.154 37.0045Z" fill="#CBCBCB"/>
<path fill-rule="evenodd" clip-rule="evenodd" d="M86.6388 37.0046C86.6388 37.0046 120.442 36.8858 119.602 37.2423C115.647 38.5498 74.4123 37.2423 86.6388 37.0046Z" fill="white"/>
<path fill-rule="evenodd" clip-rule="evenodd" d="M72.015 30.7051C72.015 30.7051 71.5355 30.7051 71.4156 30.9428C71.1759 31.1805 71.056 32.2502 71.6554 32.7257C72.3746 33.0823 91.5534 35.1029 92.2726 34.8651C92.872 34.5086 80.6455 31.8937 72.015 30.7051Z" fill="#B2B1B2"/>
<path fill-rule="evenodd" clip-rule="evenodd" d="M72.015 30.7051C72.015 30.7051 71.5355 30.7051 71.4156 30.9428C71.1759 31.1805 71.056 32.2502 71.6554 32.7257C72.3746 33.0823 91.5534 35.1029 92.2726 34.8651C92.3925 34.8651 92.2726 34.7463 91.913 34.6274C91.7932 34.7463 91.6733 34.984 91.6733 34.7463C91.5534 34.5086 70.8163 32.7257 71.6554 31.2994C71.7752 30.8239 72.8541 30.8239 72.9739 30.8239C72.6143 30.8239 72.2547 30.8239 72.015 30.7051Z" fill="#959696"/>
<path fill-rule="evenodd" clip-rule="evenodd" d="M73.094 31.0613C72.7344 31.5367 73.2138 31.7744 75.0119 32.0122C76.8099 32.3687 90.2351 34.627 90.3549 34.3893C90.3549 34.1516 77.1695 31.5367 73.094 31.0613Z" fill="#E5E5E5"/>
<path fill-rule="evenodd" clip-rule="evenodd" d="M85.4398 31.4183C85.32 31.8937 115.167 34.8652 116.366 34.2709C119.362 32.8446 85.7994 30.2297 85.4398 31.4183Z" fill="#B2B1B2"/>
<path fill-rule="evenodd" clip-rule="evenodd" d="M88.5565 31.299C88.3167 31.299 91.5532 31.7744 93.5909 32.0121C95.6287 32.2499 114.688 34.2705 115.047 33.9139C115.407 33.5573 97.7863 31.1801 88.5565 31.299Z" fill="#E5E5E5"/>
<path fill-rule="evenodd" clip-rule="evenodd" d="M129.072 32.369C129.072 32.369 129.432 32.6067 129.552 32.8444C129.671 33.0821 129.552 34.2707 128.712 34.3896C127.993 34.5084 109.174 30.4672 108.575 29.8729C107.975 29.3975 120.442 30.705 129.072 32.369Z" fill="#B2B1B2"/>
<path fill-rule="evenodd" clip-rule="evenodd" d="M129.072 32.3693C129.072 32.3693 129.432 32.607 129.551 32.8447C129.671 33.0824 129.551 34.271 128.712 34.3899C127.993 34.5088 109.174 30.4675 108.575 29.8733C108.455 29.7544 108.694 29.7544 108.934 29.7544C108.934 29.9921 109.054 30.111 109.174 29.9921C109.414 29.7544 129.551 34.6276 129.312 32.9636C129.192 32.3693 128.113 32.1316 128.113 32.1316C128.473 32.2504 128.712 32.2504 129.072 32.3693Z" fill="#959696"/>
<path fill-rule="evenodd" clip-rule="evenodd" d="M127.873 32.3693C128.113 32.9636 127.514 32.9636 125.716 32.7259C123.918 32.4881 110.492 30.4675 110.492 30.111C110.492 29.8732 123.798 31.4184 127.873 32.3693Z" fill="#E5E5E5"/>
<path fill-rule="evenodd" clip-rule="evenodd" d="M74.5319 30.5862C74.1723 30.3484 73.8127 29.041 75.8505 29.041C77.7684 29.041 122.599 28.9221 124.157 29.2787C125.715 29.6353 126.674 31.0616 126.075 31.1805C125.596 31.2993 108.574 29.041 107.376 29.7541C106.177 30.4673 112.89 32.0125 112.77 32.4879C112.77 32.8445 85.7995 29.7541 84.7207 30.4673C83.6419 31.1805 89.3955 32.8445 88.9161 33.3199C88.3167 33.6765 74.5319 30.5862 74.5319 30.5862Z" fill="#E1E0E0"/>
<path fill-rule="evenodd" clip-rule="evenodd" d="M83.5221 29.2783C83.5221 29.2783 118.523 29.2783 120.801 29.3972C123.078 29.516 124.876 29.6349 125.236 30.2292C125.596 30.8235 124.876 30.8235 124.277 30.7046C123.678 30.5858 119.243 29.7538 112.77 29.7538C106.297 29.7538 101.502 29.8726 102.102 29.9915C102.701 30.1103 107.735 30.8235 106.297 31.2989C104.739 31.8932 83.5221 29.2783 83.5221 29.2783Z" fill="#F1F2F1"/>
<path opacity="0.5" fill-rule="evenodd" clip-rule="evenodd" d="M73.9331 38.4307C73.9331 38.4307 73.2139 43.6605 73.0941 44.6114C72.9742 45.5623 82.5636 47.7017 98.2663 47.9394C98.7458 47.9394 99.3451 47.9394 99.8246 47.9394H99.9444H100.064C100.544 47.9394 101.143 47.9394 101.623 47.9394C117.325 47.7017 127.035 45.4434 126.795 44.6114C126.675 43.6605 125.956 38.4307 125.956 38.4307L100.064 37.8364H99.9444H99.8246L73.9331 38.4307Z" fill="#CBCBCB"/>
<path opacity="0.5" fill-rule="evenodd" clip-rule="evenodd" d="M91.7931 41.5211C89.8753 41.64 88.1971 41.1645 85.2004 41.2834C82.2037 41.4023 78.0084 40.4514 77.5289 41.0457C77.0494 41.5211 76.6898 45.2057 77.8885 45.8C79.207 46.5132 85.7998 48.2961 95.2693 48.2961C104.739 48.2961 119.363 47.8206 121.64 46.9886C124.038 46.1566 122.479 46.2755 116.846 46.632C111.212 47.1075 97.0673 48.2961 93.3514 47.4641C89.6355 46.632 94.67 46.7509 98.1461 46.632C101.742 46.632 106.777 45.5623 105.458 45.2057C104.14 44.8492 86.6388 45.2057 84.8408 44.136C83.0428 43.0663 107.616 42.2343 91.7931 41.5211Z" fill="#B2B1B2"/>
<path fill-rule="evenodd" clip-rule="evenodd" d="M75.491 39.9758C75.491 39.9758 75.1314 43.0661 74.4122 44.849C73.693 46.6319 65.542 52.8125 61.8261 56.2594C58.1102 59.7064 52.9558 65.5304 52.7161 66.0059C52.4764 66.3625 58.3499 57.448 62.5453 53.5257C66.7406 49.6033 71.7751 46.2753 72.0148 44.6113C72.1347 43.6604 72.0148 40.6889 72.8539 39.8569C73.4532 39.1437 75.1314 39.6192 75.491 39.9758Z" fill="#959696"/>
<path fill-rule="evenodd" clip-rule="evenodd" d="M124.637 39.9758C124.637 39.9758 124.996 43.0661 125.715 44.849C126.435 46.6319 134.586 52.8125 138.302 56.2594C142.018 59.7064 147.172 65.5304 147.412 66.0059C147.651 66.3625 141.778 57.448 137.582 53.5257C133.387 49.6033 128.353 46.2753 128.113 44.6113C127.993 43.6604 128.113 40.6889 127.274 39.8569C126.794 39.1437 125.116 39.6192 124.637 39.9758Z" fill="#959696"/>
<path fill-rule="evenodd" clip-rule="evenodd" d="M68.4192 167.512C68.4192 167.512 62.7854 164.422 59.7887 160.381C56.792 156.34 55.1138 147.901 53.7953 142.671C52.4767 137.441 51.3979 122.346 51.3979 121.276C51.3979 120.207 51.5178 137.679 53.0761 145.048C54.7542 152.298 57.1516 165.373 68.4192 167.512Z" fill="#BA7016"/>
<path fill-rule="evenodd" clip-rule="evenodd" d="M131.829 167.512C131.829 167.512 137.463 164.422 140.459 160.381C143.456 156.34 145.134 147.901 146.453 142.671C147.771 137.441 148.85 122.346 148.85 121.276C148.85 120.207 148.73 137.679 147.172 145.048C145.494 152.298 143.216 165.373 131.829 167.512Z" fill="#BA7016"/>
<path fill-rule="evenodd" clip-rule="evenodd" d="M77.2892 25.1184H122.36C124.757 25.1184 126.675 27.0202 126.675 29.3973C126.675 31.7745 124.757 33.6763 122.36 33.6763H77.2892C74.8919 33.6763 72.974 31.7745 72.974 29.3973C72.974 27.0202 74.8919 25.1184 77.2892 25.1184Z" fill="#CE5108"/>
<path fill-rule="evenodd" clip-rule="evenodd" d="M77.2892 25.1189H85.3204C85.3204 25.1189 76.9296 25.3566 76.3303 25.9509C75.7309 26.5452 77.0495 27.0206 79.9263 27.0206C82.8031 27.0206 120.921 27.0206 121.76 26.9017C122.599 26.9017 124.397 25.5943 119.363 25H122.36C124.757 25 126.675 26.9017 126.675 29.2789C126.675 30.7052 125.956 32.0127 124.877 32.7258C120.921 33.0824 115.887 33.3201 110.972 33.439H98.2661C96.5879 33.439 95.0296 33.3201 93.7111 33.2013C84.2416 32.3693 75.9707 32.2504 73.0939 30.4675C72.974 30.1109 72.974 29.6355 72.974 29.2789C72.974 27.0206 74.8919 25.1189 77.2892 25.1189Z" fill="#AF4205"/>
<path fill-rule="evenodd" clip-rule="evenodd" d="M70.6963 27.2588H128.832C130.031 27.2588 130.99 28.2097 130.99 29.3983V33.6772C130.99 34.8658 130.031 35.8166 128.832 35.8166H70.6963C69.4976 35.8166 68.5386 34.8658 68.5386 33.6772V29.3983C68.5386 28.2097 69.4976 27.2588 70.6963 27.2588Z" fill="#E15607"/>
<path fill-rule="evenodd" clip-rule="evenodd" d="M107.855 27.2588H128.952C130.15 27.2588 131.109 28.2097 131.109 29.3983V33.6772C131.109 34.8658 130.15 35.8166 128.952 35.8166H115.167L110.852 35.2223C110.852 35.2223 121.999 34.8658 123.797 34.2715C125.595 33.6772 125.356 29.1605 122.719 28.3285C120.082 27.4965 107.855 27.2588 107.855 27.2588Z" fill="#CE5108"/>
<path fill-rule="evenodd" clip-rule="evenodd" d="M70.6963 27.2588H89.036C88.5566 27.2588 72.1347 27.3776 70.8161 27.9719C69.4976 28.5662 69.7373 29.636 69.7373 30.5868C69.8572 31.5377 69.2579 34.628 71.4155 34.7469C72.9738 34.8658 90.4744 34.8658 99.8241 34.9846C109.174 34.9846 126.675 34.8658 128.233 34.7469C130.39 34.628 129.911 31.6566 129.911 30.5868C130.031 29.636 130.151 28.5662 128.832 27.9719C127.514 27.3776 111.092 27.2588 110.612 27.2588H128.832C130.031 27.2588 130.99 28.2097 130.99 29.3983V33.6772C130.99 34.8658 130.031 35.8166 128.832 35.8166H70.6963C69.4976 35.8166 68.5386 34.8658 68.5386 33.6772V29.3983C68.5386 28.2097 69.4976 27.2588 70.6963 27.2588Z" fill="#BB4706"/>
<path fill-rule="evenodd" clip-rule="evenodd" d="M82.8029 25.4755C81.9638 25.4755 79.3267 25.7132 79.4466 26.3075C79.5665 26.783 118.404 26.5452 119.842 26.5452C121.28 26.4264 118.044 25.7132 116.965 25.5944C115.886 25.3567 82.8029 25.4755 82.8029 25.4755Z" fill="#EA6004"/>
<path fill-rule="evenodd" clip-rule="evenodd" d="M79.3266 28.2088C78.4876 28.2088 76.3299 28.0899 75.7306 28.6842C75.1313 29.3974 74.1723 33.3197 77.6485 33.7951C81.1246 34.2706 106.656 34.3894 107.975 34.0329C109.294 33.6763 111.211 28.0899 109.174 27.7333C107.136 27.4956 79.3266 28.2088 79.3266 28.2088Z" fill="#EA6004"/>
<path fill-rule="evenodd" clip-rule="evenodd" d="M82.5633 28.6844C81.1249 28.6844 80.1659 29.2787 80.1659 30.3484C80.1659 31.4182 79.9262 33.201 83.8818 33.3199C87.9573 33.4388 98.9852 33.9142 99.9441 33.3199C101.023 32.7256 102.102 28.6844 100.304 28.4467C98.6256 28.209 82.5633 28.6844 82.5633 28.6844Z" fill="#EB6303"/>
<path fill-rule="evenodd" clip-rule="evenodd" d="M96.9476 29.398C96.9476 29.398 99.2251 29.5169 99.4648 30.4677C99.7046 31.4186 99.345 33.2015 97.4271 33.0826C95.5092 32.9638 90.1151 33.3204 89.7555 32.8449C89.3959 32.3695 91.7933 29.0414 96.9476 29.398Z" fill="#F9C9B3"/>
<path fill-rule="evenodd" clip-rule="evenodd" d="M112.41 28.4467C112.051 29.2787 110.972 33.6765 113.489 33.7954C115.886 34.0331 121.88 34.0331 122.119 33.5577C122.359 33.0822 123.917 29.3976 122.479 28.9221C120.921 28.3279 112.41 28.4467 112.41 28.4467Z" fill="#EA5E04"/>
<path fill-rule="evenodd" clip-rule="evenodd" d="M117.445 126.267C117.445 126.267 119.363 128.288 121.161 129.477C122.959 130.665 126.914 135.895 124.877 141.957C122.839 148.137 117.085 152.416 113.25 153.605C109.414 154.912 107.016 153.843 105.338 152.535C103.66 151.228 103.301 150.039 102.342 149.564C101.383 149.088 98.7456 149.207 96.1085 146.83C93.4714 144.453 89.7555 136.133 93.7111 128.882C98.8654 119.374 111.332 117.472 117.445 126.267Z" fill="#F28F00"/>
<path fill-rule="evenodd" clip-rule="evenodd" d="M103.181 150.277C102.941 150.039 102.701 149.801 102.342 149.563C101.383 149.088 98.7456 149.207 96.1085 146.83C93.4714 144.452 89.7555 136.132 93.7111 128.882C94.7899 126.742 96.3482 125.078 98.0264 123.771C87.5979 133.28 98.2661 146.354 108.095 144.334C115.287 142.788 117.085 137.559 117.924 138.153C118.763 138.747 112.171 147.781 108.455 149.326C106.897 149.92 104.979 150.158 103.181 150.277Z" fill="#F08800"/>
<path fill-rule="evenodd" clip-rule="evenodd" d="M122 147.305C121.88 147.424 121.76 147.662 121.641 147.781C121.88 147.305 122 147.186 122 147.305ZM118.764 150.514C116.846 152.06 114.928 153.129 113.25 153.724C109.414 155.031 107.017 153.961 105.339 152.654C104.14 151.703 103.66 150.871 103.181 150.277C103.421 149.92 103.9 149.682 104.5 149.326C104.5 149.326 109.894 148.969 112.291 146.235C114.688 143.502 116.366 140.649 116.966 139.46C117.565 138.272 117.925 138.034 117.925 138.034C117.925 143.739 111.811 148.018 114.568 150.633C115.407 151.584 117.086 151.465 118.764 150.514Z" fill="#F08800"/>
<path fill-rule="evenodd" clip-rule="evenodd" d="M117.565 139.223C117.565 139.223 115.048 145.522 111.332 148.494C107.616 151.584 110.253 154.08 114.568 153.129C114.208 153.367 113.729 153.486 113.369 153.605C109.534 154.912 107.136 153.842 105.458 152.535C104.379 151.703 103.9 150.99 103.42 150.395C103.66 149.92 103.78 149.563 103.78 149.563C103.78 149.563 106.057 149.92 109.294 148.137C110.373 147.662 111.571 147.067 112.291 146.116C112.65 145.76 113.01 145.284 113.249 144.928C114.688 143.62 116.126 141.719 117.565 139.223Z" fill="#F08600"/>
<path fill-rule="evenodd" clip-rule="evenodd" d="M117.085 151.703C110.493 155.982 104.859 151.584 104.739 150.752C104.499 149.92 107.736 150.277 111.571 147.424C115.287 144.572 118.763 137.44 117.685 138.034C116.606 138.629 115.647 142.432 112.171 145.76C108.695 149.088 101.862 150.039 97.0674 146.117C92.5124 142.313 92.0329 136.846 92.0329 136.489V136.727C92.0329 136.965 92.0329 137.202 92.0329 137.321C92.0329 137.559 92.0329 137.678 92.1528 137.916C92.1528 138.153 92.1528 138.272 92.2726 138.51C92.2726 138.629 92.2726 138.748 92.3925 138.866V139.104C92.3925 139.223 92.3925 139.342 92.5124 139.461V139.698C92.5124 139.817 92.5124 139.936 92.6322 140.055C92.6322 140.293 92.7521 140.412 92.7521 140.649V140.768C92.7521 140.887 92.872 141.006 92.872 141.006V141.125C92.872 141.244 92.9919 141.481 92.9919 141.6V141.719V141.838L93.1117 142.076V142.194V142.313V142.432V142.551C93.1117 142.67 93.2316 142.67 93.2316 142.789V142.908V143.027L93.3515 143.145V143.264V143.383V143.502L93.4713 143.621V143.74V143.859V143.977L93.5912 144.096V144.215L93.7111 144.334V144.453L93.8309 144.572V144.691L93.9508 144.809V144.928L94.0707 145.047L94.1905 145.166L94.3104 145.285L94.4303 145.404L94.5501 145.523L94.67 145.641L94.7899 145.76L94.9097 145.879L95.0296 145.998L95.1495 146.117L95.2693 146.236L95.3892 146.355C98.0263 148.732 100.544 148.613 101.622 149.088C102.581 149.564 102.941 150.752 104.619 152.06C106.297 153.367 108.814 154.437 112.53 153.13C112.53 153.13 112.65 153.13 112.65 153.011H112.77H112.89L113.01 152.892L113.13 152.773L113.25 152.654L113.369 152.535L113.489 152.416L113.609 152.298H113.729H113.849H113.969L114.089 152.179H114.208L114.328 152.06H114.448H114.568H114.688H114.808H114.928H115.048H115.167H115.287H115.407H115.527H115.647H115.767H115.887H116.006H116.126H116.246H116.366L116.486 151.941H116.606L117.085 151.703Z" fill="#E78000"/>
<path fill-rule="evenodd" clip-rule="evenodd" d="M100.424 149.088C100.903 149.207 103.3 149.683 105.458 149.207C107.975 148.613 111.092 147.543 112.89 145.404C114.568 143.502 109.534 150.99 102.461 149.683C102.342 149.683 102.342 149.564 102.222 149.564C101.982 149.445 101.263 149.326 100.424 149.088Z" fill="#B16000"/>
<path fill-rule="evenodd" clip-rule="evenodd" d="M114.928 124.841C114.928 124.841 115.407 127.1 116.486 128.526C117.565 129.952 120.921 130.547 122 131.497C123.079 132.448 122.24 131.022 121.161 130.19C120.082 129.239 119.483 129.001 117.924 127.694C116.606 126.268 114.928 124.128 114.928 124.841Z" fill="#F08600"/>
<path fill-rule="evenodd" clip-rule="evenodd" d="M120.801 130.902C120.801 130.902 117.685 129.833 116.966 129.12C116.246 128.406 115.647 127.337 115.647 126.98C115.647 126.624 115.887 127.337 116.846 128.05C117.805 128.763 119.003 129.476 119.842 129.952C120.801 130.427 122.12 131.616 120.801 130.902Z" fill="#B16000"/>
<path fill-rule="evenodd" clip-rule="evenodd" d="M95.6288 130.546C95.9884 135.776 100.903 139.936 105.098 139.46C109.174 138.985 116.006 135.181 118.763 136.251C121.52 137.321 119.602 140.768 121.281 142.313C122.959 143.858 126.555 137.083 124.157 134.825C121.76 132.567 116.246 131.378 113.369 127.574C110.492 123.771 111.691 121.988 110.492 121.632C104.859 119.254 95.2692 124.128 95.6288 130.546Z" fill="#EE7C09"/>
<path fill-rule="evenodd" clip-rule="evenodd" d="M114.688 125.197C114.808 125.791 115.647 128.287 116.966 129.238C118.164 130.189 121.161 131.259 121.88 131.616C122.599 132.091 123.079 132.448 122.839 132.685C122.599 133.042 118.524 131.616 116.726 129.714C114.808 128.05 114.328 124.722 114.688 125.197Z" fill="#F5A249"/>
<path fill-rule="evenodd" clip-rule="evenodd" d="M107.376 122.227C105.098 122.345 101.742 122.94 101.622 125.674C101.502 128.288 104.619 130.547 107.256 130.547C109.893 130.547 110.852 130.784 112.171 131.498C113.369 132.33 117.804 133.994 120.561 134.707C123.318 135.539 122.479 134.469 121.64 134.112C120.801 133.756 117.085 132.448 113.969 129.477C110.972 126.506 109.653 124.128 109.414 123.296C109.054 122.345 108.095 121.989 107.376 122.227Z" fill="#ED7500"/>
<path fill-rule="evenodd" clip-rule="evenodd" d="M113.729 151.822C113.729 151.822 116.486 150.634 117.685 147.068C118.883 143.502 118.644 140.293 119.483 141.482C120.202 142.551 119.842 151.347 113.729 151.822Z" fill="#F08800"/>
<path fill-rule="evenodd" clip-rule="evenodd" d="M113.01 151.941C113.729 151.585 115.767 151.822 117.565 149.802C119.363 147.781 120.202 144.81 120.921 145.761C121.64 146.711 118.644 152.417 113.01 151.941Z" fill="#F08800"/>
<path fill-rule="evenodd" clip-rule="evenodd" d="M88.7968 139.818C88.7968 139.818 91.314 141.006 93.3518 141.6C95.5094 142.195 101.023 145.642 101.143 152.06C101.383 158.478 97.4273 164.54 94.3107 167.036C91.1941 169.532 88.5571 169.413 86.5193 168.7C84.4815 167.987 83.7623 167.036 82.6835 166.917C81.6047 166.799 79.0875 167.749 75.8511 166.442C72.6146 165.135 66.1418 158.597 67.3405 150.396C68.8987 139.699 79.9266 133.756 88.7968 139.818Z" fill="#F28F00"/>
<path fill-rule="evenodd" clip-rule="evenodd" d="M83.5225 167.274C83.1629 167.036 82.9232 166.917 82.5636 166.917C81.4847 166.798 78.9675 167.749 75.7311 166.442C72.4947 165.134 66.0218 158.597 67.2205 150.396C67.5801 148.019 68.4192 145.879 69.498 144.096C63.0251 156.576 77.5291 165.253 86.0397 160.023C92.2728 156.22 92.153 150.633 93.1119 150.871C94.0709 151.109 91.0742 161.806 88.0775 164.54C86.9987 165.729 85.2006 166.561 83.5225 167.274Z" fill="#F08800"/>
<path fill-rule="evenodd" clip-rule="evenodd" d="M100.184 158.122C100.064 158.359 100.064 158.478 99.9442 158.716C100.184 158.122 100.184 158.003 100.184 158.122ZM98.3859 162.163C97.1872 164.302 95.6289 165.966 94.3104 167.036C91.1938 169.532 88.5567 169.413 86.519 168.7C85.0806 168.225 84.3614 167.63 83.6422 167.274C83.762 166.798 84.1216 166.442 84.6011 165.966C84.6011 165.966 89.6356 163.827 90.8342 160.38C92.1528 156.933 92.7521 153.724 92.872 152.535C92.9919 151.228 93.2316 150.871 93.2316 150.871C95.1495 156.22 90.8342 162.282 94.4303 163.827C95.5091 164.302 97.0674 163.708 98.3859 162.163Z" fill="#F08800"/>
<path fill-rule="evenodd" clip-rule="evenodd" d="M93.2317 152.06C93.2317 152.06 93.1118 158.716 90.5946 162.876C88.0774 167.036 91.5536 168.462 95.1496 166.204C94.79 166.561 94.5503 166.798 94.1907 167.036C91.0741 169.532 88.437 169.413 86.3992 168.7C85.2006 168.343 84.4814 167.749 83.7622 167.393C83.7622 166.917 83.882 166.561 83.882 166.561C83.882 166.561 86.1595 166.085 88.5569 163.351C89.5158 162.519 90.235 161.569 90.7145 160.499C90.9542 160.023 91.0741 159.548 91.194 159.072C92.1529 157.171 92.7522 154.912 93.2317 152.06Z" fill="#F08600"/>
<path fill-rule="evenodd" clip-rule="evenodd" d="M97.1878 163.946L97.0679 164.065V164.184L96.9481 164.303L96.8282 164.421L96.7083 164.54L96.5885 164.659L96.4686 164.778L96.3487 164.897L96.2289 165.016L96.109 165.135L95.9891 165.253L95.8693 165.372L95.7494 165.491L95.6295 165.61L95.5096 165.729L95.3898 165.848L95.2699 165.967C92.1534 168.463 89.5163 168.344 87.4785 167.631C85.4408 166.918 84.7216 165.967 83.6427 165.848C82.5639 165.729 80.0467 166.68 76.8103 165.372H76.6904C76.6904 165.372 76.5705 165.372 76.5705 165.253C76.5705 165.253 76.4507 165.253 76.4507 165.135C76.4507 165.135 76.3308 165.135 76.3308 165.016C76.3308 165.016 76.2109 165.016 76.2109 164.897C76.2109 164.897 76.0911 164.897 76.0911 164.778L75.9712 164.659L75.8513 164.54L75.7315 164.421L75.6116 164.303L75.4917 164.184L75.3719 164.065L75.252 163.946L75.1321 163.827L75.0123 163.708H74.8924L74.7725 163.589L74.6527 163.471L74.5328 163.352L74.4129 163.233L74.2931 163.114L74.1732 162.995L74.0533 162.876L73.9335 162.757L73.8136 162.639L73.6937 162.52L73.5738 162.401L73.454 162.282L73.3341 162.163L73.2142 162.044L73.0944 161.925L72.9745 161.807L72.8546 161.688L72.7348 161.569L72.6149 161.45L72.495 161.331C72.3752 161.212 72.2553 161.093 72.1354 160.975V160.856C72.0156 160.737 72.0156 160.737 71.8957 160.618L71.7758 160.499C71.656 160.38 71.5361 160.143 71.4162 160.024C71.2964 159.905 71.2964 159.786 71.1765 159.667L71.0566 159.548C70.9368 159.429 70.9368 159.311 70.8169 159.192L70.697 159.073C70.5772 158.954 70.5772 158.835 70.4573 158.716C70.3374 158.597 70.2176 158.36 70.2176 158.241C70.0977 158.122 69.9778 157.884 69.9778 157.647C69.8579 157.409 69.8579 157.29 69.7381 157.052L69.6182 156.815C69.7381 157.171 72.1354 162.163 77.7692 164.184C83.5229 166.323 89.6361 162.995 91.7938 158.716C93.9514 154.437 93.5918 150.515 94.311 149.564C95.15 148.732 94.311 156.458 91.7938 160.499C89.2765 164.54 86.16 165.253 86.5196 165.967C85.6805 167.987 92.513 170.246 97.1878 163.946Z" fill="#E78000"/>
<path fill-rule="evenodd" clip-rule="evenodd" d="M80.6455 167.155C81.1249 167.155 83.5223 166.798 85.4402 165.61C87.5978 164.184 90.2349 162.044 91.1938 159.548C92.0329 157.171 89.9952 165.848 82.923 167.155C82.8031 167.155 82.6832 167.155 82.6832 167.155C82.0839 166.917 81.4846 167.036 80.6455 167.155Z" fill="#B16000"/>
<path fill-rule="evenodd" clip-rule="evenodd" d="M85.92 139.461C85.92 139.461 87.2386 141.482 88.677 142.433C90.2352 143.384 93.5915 142.789 94.9101 143.384C96.2286 143.978 95.03 142.789 93.7114 142.433C92.3929 141.957 91.6737 141.957 89.7558 141.125C87.9578 140.174 85.5604 138.748 85.92 139.461Z" fill="#F08600"/>
<path fill-rule="evenodd" clip-rule="evenodd" d="M93.4717 143.027C93.4717 143.027 90.2353 143.027 89.2764 142.551C88.3174 142.076 87.4784 141.244 87.3585 141.006C87.2386 140.649 87.7181 141.244 88.9168 141.6C90.1154 141.957 91.434 142.195 92.3929 142.432C93.3519 142.67 94.9102 143.264 93.4717 143.027Z" fill="#B16000"/>
<path fill-rule="evenodd" clip-rule="evenodd" d="M69.7375 151.347C71.8952 156.101 78.0084 158.36 81.7243 156.458C85.4402 154.675 90.4747 148.732 93.4714 148.732C96.468 148.851 95.7488 152.654 97.9065 153.605C100.064 154.556 101.023 146.83 98.0263 145.642C95.0296 144.334 89.3959 145.047 85.3203 142.433C81.2448 139.818 81.7243 137.797 80.6455 137.797C74.4124 137.678 67.1004 145.404 69.7375 151.347Z" fill="#EE7C09"/>
<path fill-rule="evenodd" clip-rule="evenodd" d="M85.8 139.937C86.1596 140.412 87.8377 142.551 89.396 143.027C90.9543 143.502 94.0708 143.502 94.9099 143.621C95.749 143.74 96.2285 143.978 96.2285 144.334C96.1086 144.691 91.7934 144.81 89.396 143.621C86.8788 142.551 85.3205 139.461 85.8 139.937Z" fill="#F5A249"/>
<path fill-rule="evenodd" clip-rule="evenodd" d="M77.7689 139.58C75.7311 140.53 72.7344 142.194 73.5735 144.69C74.4126 147.187 78.0086 148.256 80.5258 147.424C82.9232 146.592 84.002 146.355 85.4404 146.711C86.8788 147.068 91.6735 147.068 94.4305 146.949C97.1875 146.711 96.1086 146.117 95.2696 145.998C94.4305 145.879 90.355 145.998 86.3994 144.215C82.4437 142.432 80.5258 140.649 80.0464 139.936C79.447 139.104 78.4881 139.104 77.7689 139.58Z" fill="#ED7500"/>
<path fill-rule="evenodd" clip-rule="evenodd" d="M94.0709 165.135C94.0709 165.135 96.3484 162.996 96.1087 159.311C95.9888 155.626 94.6702 152.655 95.8689 153.487C96.9477 154.319 99.5848 162.639 94.0709 165.135Z" fill="#F08800"/>
<path fill-rule="evenodd" clip-rule="evenodd" d="M93.4716 165.491C94.0709 164.897 96.1087 164.421 97.0676 161.925C98.0265 159.429 97.9067 156.339 98.8656 157.052C99.7047 157.646 98.8656 164.065 93.4716 165.491Z" fill="#F08800"/>
<path fill-rule="evenodd" clip-rule="evenodd" d="M67.22 114.976C67.22 114.976 69.977 114.619 72.0147 113.906C74.0525 113.193 80.6452 113.193 84.3611 118.422C88.077 123.652 88.077 130.903 86.8783 134.706C85.6796 138.51 83.4021 139.817 81.2445 140.411C79.2068 141.006 78.0081 140.53 77.0491 141.006C76.0902 141.481 74.5319 143.621 71.0558 144.334C67.5796 145.047 58.5895 143.026 55.1133 135.538C50.5584 125.554 56.4319 114.619 67.22 114.976Z" fill="#F28F00"/>
<path fill-rule="evenodd" clip-rule="evenodd" d="M78.1281 140.649C77.7685 140.649 77.4089 140.767 77.0493 140.886C76.0904 141.362 74.5321 143.501 71.0559 144.214C67.5798 144.927 58.5897 142.907 55.1135 135.419C54.1546 133.279 53.5552 131.021 53.5552 128.882C55.1135 142.907 72.0149 142.194 76.2102 133.16C79.3268 126.504 76.0904 121.988 77.0493 121.631C78.0082 121.393 81.3645 131.972 80.4056 135.775C80.046 137.439 79.0871 139.222 78.1281 140.649Z" fill="#F08800"/>
<path fill-rule="evenodd" clip-rule="evenodd" d="M86.9984 124.009C86.9984 124.246 87.1183 124.365 87.1183 124.603C86.8786 124.009 86.8786 123.771 86.9984 124.009ZM87.5978 128.406C87.3581 130.308 86.3991 131.734 85.2004 131.853C81.3647 132.566 81.6044 125.197 77.0494 121.75C77.0494 121.75 77.0494 122.107 77.6488 123.295C78.2481 124.484 79.4468 127.455 80.2859 131.021C81.1249 134.587 78.1282 139.104 78.1282 139.104C78.0084 139.817 77.8885 140.292 78.0084 140.768C78.8474 140.768 79.8064 140.768 81.2448 140.411C83.2825 139.817 85.6799 138.509 86.8786 134.706C87.4779 133.042 87.7177 130.784 87.5978 128.406Z" fill="#F08800"/>
<path fill-rule="evenodd" clip-rule="evenodd" d="M77.7687 122.701C77.7687 122.701 81.3648 128.406 81.6045 133.161C81.8443 137.915 85.4403 137.321 87.2383 133.398C87.1184 133.874 86.9986 134.23 86.8787 134.587C85.68 138.39 83.4025 139.698 81.2449 140.292C80.0462 140.649 79.0873 140.649 78.3681 140.649C78.1283 140.173 78.0085 139.817 78.0085 139.817C78.0085 139.817 79.6866 138.153 80.1661 134.587C80.5257 133.398 80.6456 132.091 80.4058 131.021C80.286 130.546 80.1661 129.951 80.0462 129.476C79.5668 127.574 78.8476 125.197 77.7687 122.701Z" fill="#F08600"/>
<path fill-rule="evenodd" clip-rule="evenodd" d="M87.5979 130.427V130.546V130.665V130.784V130.903V131.021V131.14V131.259V131.378V131.497V131.616V131.735V131.853V131.972V132.091V132.21V132.329V132.448V132.567V132.686V132.804V132.923V133.042V133.161V133.28V133.399V133.518V133.636V133.755V133.874V133.993V134.231V134.35V134.468V134.587V134.706C87.5979 134.825 87.5979 134.825 87.5979 134.825C86.3992 138.628 84.1217 139.936 81.9641 140.53C79.9263 141.124 78.7277 140.649 77.7687 141.124C76.8098 141.6 75.2515 143.739 71.7753 144.453H71.6555H71.5356H71.4157H71.2959H71.176H71.0561H70.9363C70.8164 144.453 70.8164 144.453 70.6965 144.453H70.5766H70.4568C70.3369 144.453 70.3369 144.453 70.217 144.453H70.0972H69.9773H69.7376H69.6177H69.4978H69.378H69.2581H69.1382H69.0184H68.8985H68.7786H68.6588H68.5389H68.419H68.2992H68.1793H68.0594H67.9396H67.8197H67.6998H67.58C67.4601 144.453 67.4601 144.453 67.3402 144.453H67.2204H67.1005H66.9806H66.8607H66.621H66.5011H66.3813C66.2614 144.453 66.0217 144.334 65.9018 144.334H65.7819C65.6621 144.334 65.5422 144.215 65.5422 144.215H65.4223C65.3025 144.096 65.0627 144.096 64.9429 143.977C64.823 143.977 64.7031 143.858 64.5833 143.858L64.4634 143.739C64.3435 143.739 64.2237 143.621 64.1038 143.621L63.8641 143.502C63.7442 143.502 63.6243 143.383 63.5045 143.264C63.3846 143.145 63.1448 143.026 63.025 143.026C62.9051 142.907 62.6654 142.789 62.5455 142.67C62.4256 142.551 62.1859 142.432 62.066 142.313L61.9462 142.194C62.3058 142.432 66.9806 145.285 72.8541 143.977C78.8475 142.551 82.2038 136.489 81.6045 131.735C81.0051 126.98 78.4879 123.89 78.7277 122.701C78.8475 121.513 82.5634 128.525 82.6833 133.28C82.8032 138.034 80.5257 140.292 81.3647 140.649C80.1661 140.055 87.1184 138.153 87.5979 130.427Z" fill="#E78000"/>
<path fill-rule="evenodd" clip-rule="evenodd" d="M75.4908 142.075C75.8504 141.718 77.6484 140.173 78.6074 138.152C79.6862 135.775 80.6451 132.566 80.0458 129.951C79.4464 127.574 82.563 135.894 77.2888 140.767C77.1689 140.767 77.1689 140.886 77.0491 140.886C76.5696 141.124 76.0901 141.599 75.4908 142.075Z" fill="#B16000"/>
<path fill-rule="evenodd" clip-rule="evenodd" d="M64.5831 116.046C64.5831 116.046 66.7407 116.996 68.5388 116.996C70.3368 116.996 72.854 114.619 74.2924 114.382C75.7308 114.144 74.0527 113.906 72.7341 114.144C71.4156 114.5 70.8162 114.738 68.7785 115.214C66.7407 115.689 63.8639 115.689 64.5831 116.046Z" fill="#F08600"/>
<path fill-rule="evenodd" clip-rule="evenodd" d="M72.9741 114.975C72.9741 114.975 70.2171 116.758 69.2582 116.877C68.1794 116.996 66.9807 116.877 66.741 116.639C66.5012 116.402 67.2204 116.639 68.4191 116.283C69.6178 115.926 70.9363 115.332 71.7754 114.975C72.6145 114.738 74.2926 114.381 72.9741 114.975Z" fill="#B16000"/>
<path fill-rule="evenodd" clip-rule="evenodd" d="M57.6307 134.825C62.0658 137.678 68.4188 136.133 70.4565 132.686C72.6141 129.12 73.4532 121.394 76.0903 119.849C78.6075 118.304 80.1658 121.87 82.4433 121.513C84.7208 121.156 81.3645 114.144 78.1281 114.738C74.8916 115.332 70.5764 118.898 65.7817 119.017C60.987 119.017 60.2678 117.115 59.1889 117.71C54.0346 120.8 52.2366 131.26 57.6307 134.825Z" fill="#EE7C09"/>
<path fill-rule="evenodd" clip-rule="evenodd" d="M64.7028 116.52C65.3022 116.758 67.8194 117.59 69.3777 117.115C70.9359 116.639 73.4532 114.975 74.2922 114.619C75.1313 114.262 75.6108 114.143 75.7306 114.5C75.8505 114.856 72.2545 117.233 69.7373 117.709C67.1002 118.184 64.1035 116.52 64.7028 116.52Z" fill="#F5A249"/>
<path fill-rule="evenodd" clip-rule="evenodd" d="M57.8702 120.561C56.6715 122.463 55.1132 125.553 57.151 127.217C59.1887 128.881 62.9046 127.693 64.4629 125.672C66.0212 123.652 66.7404 122.938 68.1788 122.344C69.6172 121.869 73.5729 119.254 75.8504 117.59C78.1278 115.926 76.8093 115.926 75.9702 116.401C75.251 116.758 71.8947 119.016 67.5795 119.729C63.2642 120.324 60.747 119.967 59.9079 119.61C58.949 119.373 58.1099 119.848 57.8702 120.561Z" fill="#ED7500"/>
<path fill-rule="evenodd" clip-rule="evenodd" d="M85.6799 133.161C85.6799 133.161 86.3991 130.19 84.2415 127.218C82.0839 124.247 79.3269 122.464 80.7653 122.464C82.0839 122.464 88.9164 128.05 85.6799 133.161Z" fill="#F08800"/>
<path fill-rule="evenodd" clip-rule="evenodd" d="M85.3204 133.755C85.5602 132.923 86.8787 131.497 86.2794 128.882C85.68 126.267 83.882 123.771 84.9608 123.771C86.1595 123.771 89.0363 129.595 85.3204 133.755Z" fill="#F08800"/>
<path fill-rule="evenodd" clip-rule="evenodd" d="M92.153 122.702C92.153 122.702 89.6357 121.513 87.598 120.919C85.4404 120.325 79.9264 116.878 79.6867 110.459C79.447 104.041 83.4026 97.9793 86.5192 95.4832C89.6357 92.9872 92.2728 93.106 94.3106 93.7003C96.3483 94.2946 97.0675 95.3644 98.1463 95.4832C99.2252 95.6021 101.623 94.6512 104.979 95.9586C108.215 97.2661 114.688 103.803 113.489 111.886C111.931 122.821 100.903 128.764 92.153 122.702Z" fill="#F28F00"/>
<path fill-rule="evenodd" clip-rule="evenodd" d="M97.1875 95.2451C97.5471 95.4828 97.7868 95.6017 98.1464 95.6017C99.2253 95.7206 101.623 94.7697 104.979 96.0771C108.215 97.3846 114.688 103.922 113.49 112.004C113.13 114.381 112.411 116.521 111.212 118.304C117.685 105.824 103.061 97.1469 94.5504 102.496C88.3173 106.299 88.4372 111.885 87.4782 111.648C86.5193 111.41 89.516 100.713 92.3928 97.9789C93.7113 96.9091 95.5094 95.9583 97.1875 95.2451Z" fill="#F08800"/>
<path fill-rule="evenodd" clip-rule="evenodd" d="M80.5257 104.398C80.6456 104.16 80.6456 104.041 80.7655 103.803C80.6456 104.516 80.5257 104.635 80.5257 104.398ZM82.4436 100.356C83.6423 98.217 85.2006 96.5529 86.5191 95.4832C89.6357 92.9872 92.2728 93.106 94.3105 93.7003C95.749 94.1758 96.4682 94.7701 97.1874 95.1266C97.0675 95.6021 96.7079 95.9587 96.2284 96.4341C96.2284 96.4341 91.194 98.5735 89.9953 102.02C88.6768 105.467 88.1973 108.677 87.9576 109.865C87.8377 111.173 87.5979 111.529 87.5979 111.529C85.6801 106.181 89.8754 100.119 86.3993 98.5735C85.2006 98.217 83.6423 98.9301 82.4436 100.356Z" fill="#F08800"/>
<path fill-rule="evenodd" clip-rule="evenodd" d="M87.4783 110.579C87.4783 110.579 87.5982 103.923 90.1154 99.7625C92.6326 95.6024 89.1565 94.1761 85.5604 96.5533C85.92 96.1967 86.1598 95.959 86.5194 95.7213C89.6359 93.2252 92.273 93.3441 94.3108 93.9384C95.5095 94.2949 96.2287 94.8892 96.9479 95.2458C96.9479 95.7213 96.828 96.0778 96.828 96.0778C96.828 96.0778 94.5505 96.5533 92.1532 99.4059C91.1942 100.238 90.475 101.189 89.9955 102.258C89.7558 102.734 89.6359 103.209 89.5161 103.685C88.677 105.468 87.9578 107.726 87.4783 110.579Z" fill="#F08600"/>
<path fill-rule="evenodd" clip-rule="evenodd" d="M83.5229 98.692L83.6428 98.5731V98.4542L83.7626 98.3354L83.8825 98.2165L84.0024 98.0977L84.1223 97.9788L84.9613 97.0279L85.0812 96.9091L85.2011 96.7902L85.3209 96.6714L85.4408 96.5525L85.5607 96.4336L85.6805 96.3148L85.8004 96.1959L86.16 95.8393L86.2799 95.7205L86.3997 95.6016C89.5163 93.1056 92.1534 93.2244 94.1911 93.8187C96.2289 94.413 96.9481 95.4828 98.0269 95.6016C99.1057 95.7205 101.503 94.7696 104.859 96.0771H104.979C104.979 96.0771 105.099 96.0771 105.099 96.1959C105.099 96.1959 105.219 96.1959 105.219 96.3148C105.219 96.3148 105.339 96.3148 105.339 96.4336C105.339 96.4336 105.459 96.4336 105.459 96.5525C105.459 96.5525 105.579 96.5525 105.579 96.6714L105.698 96.7902L105.818 96.9091L105.938 97.0279L106.058 97.1468L106.178 97.2657L106.298 97.3845L106.418 97.5034H106.538L106.657 97.6222H106.777L106.897 97.7411L107.017 97.8599L107.137 97.9788L107.257 98.0977L107.377 98.2165L107.496 98.3354L107.616 98.4542L107.736 98.5731L107.856 98.692L107.976 98.8108L108.096 98.9297L108.216 99.0485L108.336 99.1674L108.455 99.2863L108.575 99.4051L108.695 99.524L108.815 99.6428L108.935 99.7617L109.055 99.8805L109.175 99.9994C109.294 100.118 109.414 100.237 109.534 100.356V100.475C109.654 100.594 109.654 100.594 109.774 100.713L109.894 100.831C110.014 100.95 110.134 101.188 110.253 101.307C110.373 101.426 110.373 101.545 110.493 101.663L110.613 101.782C110.733 101.901 110.733 102.02 110.853 102.139L110.973 102.258C111.092 102.377 111.092 102.495 111.212 102.614C111.332 102.733 111.452 102.971 111.452 103.09C111.572 103.209 111.692 103.446 111.692 103.684C111.812 103.922 111.812 104.041 111.932 104.278L112.051 104.516C111.932 104.159 109.534 99.1674 103.9 97.1468C98.1468 95.0073 92.0335 98.3354 89.8759 102.614C87.7183 106.893 88.0779 110.816 87.3587 111.766C86.5196 112.717 87.3587 104.873 89.8759 100.831C92.3931 96.7902 95.5097 96.0771 95.0302 95.3639C95.0302 94.6508 88.1978 92.3924 83.5229 98.692Z" fill="#E78000"/>
<path fill-rule="evenodd" clip-rule="evenodd" d="M100.184 95.4832C99.7048 95.4832 97.3075 95.8397 95.3896 97.0283C93.232 98.4546 90.5949 100.594 89.7558 103.09C88.9167 105.467 90.9545 96.7906 98.0267 95.4832C98.1466 95.4832 98.2664 95.4832 98.2664 95.4832C98.626 95.602 99.3452 95.4832 100.184 95.4832Z" fill="#B16000"/>
<path fill-rule="evenodd" clip-rule="evenodd" d="M94.9101 123.177C94.9101 123.177 93.5915 121.157 92.1531 120.206C90.5948 119.255 87.2385 119.849 85.92 119.255C84.6014 118.661 85.8001 119.849 87.1187 120.206C88.4372 120.681 89.1564 120.681 91.0743 121.513C92.9922 122.345 95.2697 123.772 94.9101 123.177Z" fill="#F08600"/>
<path fill-rule="evenodd" clip-rule="evenodd" d="M87.3586 119.492C87.3586 119.492 90.595 119.373 91.5539 119.849C92.5129 120.324 93.3519 121.037 93.4718 121.394C93.5917 121.751 93.1122 121.156 91.9135 120.8C90.7149 120.443 89.3963 120.205 88.4374 120.087C87.4784 119.968 85.9201 119.255 87.3586 119.492Z" fill="#B16000"/>
<path fill-rule="evenodd" clip-rule="evenodd" d="M111.092 111.173C108.935 106.418 102.821 104.279 99.1054 106.062C95.3895 107.844 90.3551 113.906 87.3584 113.787C84.3617 113.669 85.0809 109.865 82.9233 108.914C80.7657 108.082 79.8067 115.689 82.8034 116.878C85.8001 118.185 91.4339 117.472 95.5094 119.968C99.5849 122.464 99.1054 124.604 100.304 124.604C106.417 124.841 113.729 117.115 111.092 111.173Z" fill="#EE7C09"/>
<path fill-rule="evenodd" clip-rule="evenodd" d="M95.1496 122.702C94.79 122.227 93.1119 120.087 91.5536 119.612C89.9953 119.136 86.8787 119.255 86.0397 119.018C85.2006 118.899 84.7211 118.661 84.7211 118.304C84.841 117.948 89.1562 117.829 91.5536 118.899C93.9509 120.087 95.6291 123.059 95.1496 122.702Z" fill="#F5A249"/>
<path fill-rule="evenodd" clip-rule="evenodd" d="M103.061 123.059C105.099 122.108 108.095 120.444 107.256 117.948C106.417 115.452 102.701 114.382 100.304 115.333C97.9066 116.165 96.8278 116.403 95.3894 116.046C93.951 115.69 89.1563 115.69 86.3993 115.927C83.6424 116.165 84.7212 116.759 85.5603 116.878C86.3993 116.997 90.4749 116.878 94.4305 118.661C98.3861 120.444 100.304 122.227 100.783 122.94C101.383 123.415 102.342 123.415 103.061 123.059Z" fill="#ED7500"/>
<path fill-rule="evenodd" clip-rule="evenodd" d="M86.7588 97.3845C86.7588 97.3845 84.6012 99.524 84.7211 103.209C84.841 106.893 86.1595 109.865 85.0807 109.033C83.7622 108.32 81.1251 99.9994 86.7588 97.3845Z" fill="#F08800"/>
<path fill-rule="evenodd" clip-rule="evenodd" d="M87.3585 97.1477C86.7592 97.742 84.7214 98.2174 83.7625 100.713C82.8036 103.21 82.9234 106.3 82.0843 105.587C81.1254 104.992 81.8446 98.574 87.3585 97.1477Z" fill="#F08800"/>
<path fill-rule="evenodd" clip-rule="evenodd" d="M144.175 124.722C144.175 124.722 142.257 126.743 141.179 128.526C139.98 130.427 135.065 134.587 128.712 132.923C122.479 131.259 117.804 125.673 116.366 121.988C114.928 118.304 115.767 115.808 117.085 114.025C118.284 112.242 119.483 111.885 119.962 110.934C120.441 109.865 120.202 107.369 122.359 104.635C124.637 101.901 132.788 97.741 140.22 101.307C150.049 105.942 152.566 118.066 144.175 124.722Z" fill="#F28F00"/>
<path fill-rule="evenodd" clip-rule="evenodd" d="M119.242 111.766C119.482 111.529 119.722 111.291 119.842 110.934C120.321 109.865 120.082 107.369 122.239 104.635C124.517 101.901 132.668 97.741 140.099 101.307C142.257 102.377 144.055 103.684 145.493 105.348C135.305 95.6016 122.719 106.774 125.356 116.402C127.274 123.415 132.668 124.96 132.068 125.792C131.469 126.624 122.119 120.562 120.321 116.996C119.722 115.451 119.362 113.549 119.242 111.766Z" fill="#F08800"/>
<path fill-rule="evenodd" clip-rule="evenodd" d="M123.078 130.19C122.959 130.071 122.719 129.952 122.599 129.833C123.198 130.19 123.318 130.309 123.078 130.19ZM119.722 127.219C118.044 125.436 116.845 123.534 116.246 121.989C114.808 118.304 115.647 115.808 116.965 114.025C117.804 112.837 118.643 112.242 119.243 111.767C119.602 112.005 119.962 112.48 120.202 113.074C120.202 113.074 120.801 118.423 123.678 120.681C126.555 122.94 129.551 124.366 130.63 124.96C131.829 125.436 132.069 125.792 132.069 125.792C126.315 126.03 121.76 120.206 119.243 123.177C118.523 124.009 118.643 125.673 119.722 127.219Z" fill="#F08800"/>
<path fill-rule="evenodd" clip-rule="evenodd" d="M130.99 125.435C130.99 125.435 124.517 123.296 121.28 119.73C118.044 116.164 115.647 119.017 116.725 123.177C116.486 122.82 116.366 122.345 116.246 121.988C114.808 118.304 115.647 115.808 116.965 114.025C117.684 112.955 118.404 112.48 119.003 111.885C119.482 112.004 119.842 112.242 119.842 112.242C119.842 112.242 119.602 114.5 121.64 117.709C122.12 118.779 122.839 119.849 123.798 120.562C124.157 120.919 124.637 121.156 124.996 121.513C126.555 122.82 128.473 124.128 130.99 125.435Z" fill="#F08600"/>
<path fill-rule="evenodd" clip-rule="evenodd" d="M118.404 125.673L118.284 125.554V125.435L118.164 125.316V125.197V125.079V124.96V124.841V124.722V124.603V124.484V124.365V124.247V124.128V124.009V123.89V123.771V123.652L118.044 123.533L117.325 124.009V123.89L117.205 123.771V123.652V123.533L117.085 123.415L116.965 123.296L116.845 123.177L116.725 123.058L116.605 122.939L116.486 122.82L116.366 122.701C116.366 122.701 116.366 122.583 116.246 122.583C116.246 122.583 116.246 122.464 116.126 122.464C114.688 118.779 115.527 116.283 116.845 114.5C118.044 112.717 119.243 112.361 119.722 111.41C120.202 110.34 119.962 107.844 122.119 105.11L122.239 104.991L122.359 104.873L122.479 104.754L122.599 104.635L122.719 104.516L122.839 104.397L122.958 104.278L123.078 104.159L123.198 104.041L123.318 103.922L123.438 103.803L123.558 103.684H123.678L123.798 103.565H123.917L124.037 103.446H124.157L124.277 103.327H124.397L124.517 103.209H124.637L124.756 103.09H124.876L124.996 102.971L125.116 102.852H125.236H125.356L125.476 102.733H125.596H125.715C125.835 102.733 125.835 102.614 125.955 102.614H126.075H126.195H126.315H126.435L126.555 102.495L126.674 102.376H126.794C126.914 102.258 127.154 102.258 127.274 102.139H127.394C127.513 102.139 127.633 102.02 127.633 102.02L127.753 101.901C127.873 101.782 128.113 101.782 128.353 101.663C128.472 101.663 128.592 101.544 128.712 101.544H128.832C128.952 101.544 129.072 101.426 129.192 101.426H129.431C129.551 101.426 129.671 101.307 129.791 101.307C130.031 101.307 130.151 101.188 130.39 101.188C130.63 101.188 130.75 101.069 130.99 101.069C131.229 101.069 131.349 101.069 131.589 100.95H131.829C131.469 100.95 125.955 101.782 122.359 106.418C118.643 111.291 119.962 118.066 123.438 121.275C126.914 124.603 130.87 125.316 131.469 126.386C132.068 127.456 124.756 124.365 121.64 120.8C118.523 117.234 118.763 114.025 117.924 114.262C117.924 113.549 113.729 119.373 118.404 125.673Z" fill="#E78000"/>
<path fill-rule="evenodd" clip-rule="evenodd" d="M120.201 109.032C120.082 109.508 119.722 111.885 120.321 114.024C121.04 116.52 122.359 119.611 124.517 121.275C126.554 122.82 118.763 118.303 119.602 111.172C119.602 111.053 119.722 111.053 119.722 110.934C119.962 110.459 120.082 109.864 120.201 109.032Z" fill="#B16000"/>
<path fill-rule="evenodd" clip-rule="evenodd" d="M145.374 122.107C145.374 122.107 143.096 122.701 141.778 123.89C140.459 125.078 139.98 128.406 139.021 129.595C138.062 130.665 139.5 129.833 140.339 128.763C141.178 127.693 141.418 126.98 142.736 125.435C144.055 123.771 146.093 121.988 145.374 122.107Z" fill="#F08600"/>
<path fill-rule="evenodd" clip-rule="evenodd" d="M139.62 128.288C139.62 128.288 140.579 125.198 141.299 124.485C142.018 123.772 143.097 123.059 143.336 123.059C143.696 123.059 142.977 123.296 142.257 124.366C141.538 125.436 140.939 126.624 140.459 127.456C140.1 128.17 139.021 129.596 139.62 128.288Z" fill="#B16000"/>
<path fill-rule="evenodd" clip-rule="evenodd" d="M138.661 103.327C133.387 103.921 129.551 109.032 130.151 113.074C130.87 117.115 135.065 123.652 134.106 126.505C133.147 129.357 129.671 127.574 128.113 129.238C126.675 131.021 133.627 134.23 135.785 131.734C137.942 129.238 138.901 123.771 142.617 120.681C146.333 117.59 148.131 118.66 148.491 117.59C150.408 111.766 145.134 102.614 138.661 103.327Z" fill="#EE7C09"/>
<path fill-rule="evenodd" clip-rule="evenodd" d="M145.014 121.869C144.415 122.107 141.897 123.058 141.058 124.365C140.099 125.554 139.26 128.525 138.901 129.357C138.541 130.071 138.182 130.546 137.822 130.308C137.462 130.071 138.661 126.029 140.459 124.009C142.137 122.107 145.493 121.513 145.014 121.869Z" fill="#F5A249"/>
<path fill-rule="evenodd" clip-rule="evenodd" d="M147.651 114.382C147.412 112.123 146.572 108.795 143.935 108.795C141.298 108.795 139.261 112.005 139.261 114.62C139.38 117.234 139.261 118.185 138.541 119.493C137.822 120.8 136.384 125.198 135.665 127.932C135.065 130.665 136.024 129.715 136.384 129.001C136.743 128.169 137.822 124.366 140.699 121.157C143.576 117.948 145.853 116.64 146.692 116.402C147.651 116.046 147.891 115.214 147.651 114.382Z" fill="#ED7500"/>
<path fill-rule="evenodd" clip-rule="evenodd" d="M118.164 122.226C118.164 122.226 119.482 124.96 123.198 125.911C126.794 126.862 130.031 126.505 128.952 127.337C127.873 128.288 119.003 128.288 118.164 122.226Z" fill="#F08800"/>
<path fill-rule="evenodd" clip-rule="evenodd" d="M118.044 121.632C118.403 122.345 118.283 124.366 120.441 126.03C122.599 127.694 125.595 128.407 124.636 129.12C123.797 129.833 117.804 127.218 118.044 121.632Z" fill="#F08800"/>
<path fill-rule="evenodd" clip-rule="evenodd" d="M76.6897 109.984C76.6897 109.984 74.4122 111.529 72.854 113.074C71.4156 114.738 65.6619 117.709 59.7884 114.857C54.0347 111.885 50.6784 105.467 49.9592 101.663C49.3599 97.7411 50.6784 95.4827 52.2367 94.0564C53.795 92.6301 55.1135 92.5113 55.7129 91.5604C56.3122 90.6095 56.6718 88.1135 59.4288 85.8552C62.1857 83.7157 71.0559 81.3385 77.6487 86.3306C86.5189 92.8678 86.399 105.348 76.6897 109.984Z" fill="#F28F00"/>
<path fill-rule="evenodd" clip-rule="evenodd" d="M54.9936 92.1551C55.3532 91.9174 55.593 91.7986 55.8327 91.442C56.4321 90.4911 56.7917 87.9951 59.5486 85.7367C62.3056 83.5973 71.1758 81.2201 77.7685 86.2122C79.6864 87.6385 81.1248 89.4214 82.2036 91.2043C74.2924 79.5561 59.6685 87.8762 60.148 97.8604C60.5076 105.111 65.4221 107.726 64.7029 108.439C63.9837 109.152 56.0725 101.307 55.1135 97.3849C54.7539 95.9586 54.8738 93.938 54.9936 92.1551Z" fill="#F08800"/>
<path fill-rule="evenodd" clip-rule="evenodd" d="M54.9938 111.054C54.8739 110.935 54.7541 110.816 54.6342 110.578C54.9938 111.054 55.1137 111.172 54.9938 111.054ZM52.3567 107.488C51.158 105.348 50.3189 103.209 50.0792 101.545C49.4799 97.6225 50.7984 95.3642 52.3567 93.9379C53.4355 92.8682 54.3944 92.5116 54.9938 92.155C55.2335 92.5116 55.4733 92.987 55.713 93.5813C55.713 93.5813 55.2335 98.93 57.511 101.783C59.9084 104.516 62.4256 106.656 63.5044 107.369C64.5832 108.082 64.7031 108.439 64.7031 108.439C59.0693 107.488 55.8329 100.832 52.7163 103.209C51.7574 104.041 51.6375 105.586 52.3567 107.488Z" fill="#F08800"/>
<path fill-rule="evenodd" clip-rule="evenodd" d="M63.7441 107.963C63.7441 107.963 57.8706 104.516 55.4733 100.356C53.0759 96.1962 50.0792 98.4546 50.3189 102.733C50.1991 102.258 50.0792 101.901 50.0792 101.426C49.4799 97.5037 50.7984 95.2454 52.3567 93.8191C53.3156 92.987 54.1547 92.5116 54.7541 92.155C55.2335 92.3927 55.4733 92.6305 55.4733 92.6305C55.4733 92.6305 54.7541 94.8888 56.0726 98.3357C56.3123 99.5243 56.7918 100.713 57.6309 101.664C57.9905 102.02 58.3501 102.496 58.7097 102.852C59.7885 104.516 61.4666 106.18 63.7441 107.963Z" fill="#F08600"/>
<path fill-rule="evenodd" clip-rule="evenodd" d="M51.3973 105.586L51.2775 105.467V105.349V105.23V105.111V104.992V104.873V104.754V104.635V104.517V104.398V104.279V104.16V104.041V103.922V103.803V103.685V103.566V103.447V103.328V103.209V103.09V102.971V102.853V102.734V102.615V102.496V102.377V102.258V102.139V102.021V101.902V101.783V101.664V101.545V101.426C51.2775 101.307 51.2775 101.307 51.2775 101.189C50.6781 97.2662 51.9967 95.0079 53.555 93.5816C55.1132 92.1553 56.4318 92.0364 57.0311 91.0856C57.6305 90.1347 57.9901 87.6387 60.747 85.3803L60.8669 85.2615L60.9868 85.1426C60.9868 85.1426 61.1066 85.1426 61.1066 85.0238C61.1066 85.0238 61.2265 85.0238 61.2265 84.9049L61.3464 84.786C61.3464 84.786 61.4662 84.786 61.4662 84.6672C61.4662 84.6672 61.5861 84.6672 61.5861 84.5483C61.5861 84.5483 61.706 84.5483 61.706 84.4295C61.706 84.4295 61.8258 84.4295 61.8258 84.3106C61.8258 84.3106 61.9457 84.3106 61.9457 84.1917L62.0656 84.0729L62.1854 83.954H62.3053H62.4252H62.545L62.6649 83.8352H62.7848H62.9046H63.0245H63.1444H63.2642H63.3841H63.504H63.6239H63.7437H63.8636H63.9835H64.1033H64.2232H64.3431C64.4629 83.8352 64.4629 83.8352 64.5828 83.8352H64.7027H64.8225H64.9424H65.0623H65.302H65.4219H65.5417C65.6616 83.8352 65.9013 83.7163 66.0212 83.7163H66.1411C66.2609 83.7163 66.3808 83.7163 66.3808 83.7163H66.5007C66.7404 83.7163 66.8603 83.7163 67.1 83.5974C67.2199 83.5974 67.3398 83.5974 67.4596 83.5974H67.6994C67.8192 83.5974 67.9391 83.5974 68.059 83.5974H68.2987C68.4186 83.5974 68.5384 83.5974 68.6583 83.5974C68.898 83.5974 69.0179 83.5974 69.2576 83.5974C69.4974 83.5974 69.6172 83.5974 69.857 83.5974C70.0967 83.5974 70.3364 83.5974 70.4563 83.5974H70.6961C70.3364 83.5974 64.8225 83.122 60.2676 87.0444C55.5927 91.0856 55.4728 97.8605 58.2298 101.902C60.9868 105.824 64.5828 107.488 65.0623 108.558C65.4219 109.628 58.949 105.23 56.6715 101.07C54.394 96.9097 55.2331 93.8193 54.394 93.9382C53.4351 93.7005 48.1609 98.5737 51.3973 105.586Z" fill="#E78000"/>
<path fill-rule="evenodd" clip-rule="evenodd" d="M56.6718 89.6597C56.432 90.1351 55.5929 92.2746 55.7128 94.6517C55.8327 97.2666 56.5519 100.476 58.23 102.615C59.7883 104.517 53.1956 98.4552 55.5929 91.7991C55.7128 91.6803 55.7128 91.6803 55.8327 91.5614C56.0724 91.086 56.3121 90.4917 56.6718 89.6597Z" fill="#B16000"/>
<path fill-rule="evenodd" clip-rule="evenodd" d="M78.4876 107.725C78.4876 107.725 76.0902 107.844 74.5319 108.676C72.9736 109.627 71.775 112.836 70.5763 113.787C69.3776 114.738 70.9359 114.143 72.0147 113.193C73.0935 112.242 73.4531 111.766 75.0114 110.459C76.8094 109.151 79.2068 107.844 78.4876 107.725Z" fill="#F08600"/>
<path fill-rule="evenodd" clip-rule="evenodd" d="M71.5354 112.599C71.5354 112.599 73.0936 109.746 73.9327 109.152C74.7718 108.558 75.9705 108.201 76.2102 108.201C76.5698 108.201 75.8506 108.32 74.8917 109.271C74.0526 110.103 73.0936 111.173 72.4943 111.886C72.0148 112.599 70.5764 113.788 71.5354 112.599Z" fill="#B16000"/>
<path fill-rule="evenodd" clip-rule="evenodd" d="M75.8505 87.9952C70.5763 87.5198 65.6617 91.6799 65.422 95.8399C65.1822 99.8811 67.9392 107.25 66.3809 109.746C64.8226 112.242 61.826 109.865 60.0279 111.173C58.2299 112.599 64.463 117.116 66.9803 115.214C69.6174 113.193 71.6551 108.082 75.9703 105.824C80.2856 103.566 81.8439 104.992 82.4432 104.041C85.5598 98.6925 82.3233 88.5895 75.8505 87.9952Z" fill="#EE7C09"/>
<path fill-rule="evenodd" clip-rule="evenodd" d="M78.1284 107.488C77.5291 107.607 74.892 107.963 73.6933 109.033C72.4946 110.103 71.0562 112.836 70.5767 113.55C70.0973 114.263 69.6178 114.619 69.2582 114.263C68.8986 114.025 71.0562 110.222 73.2138 108.676C75.2516 107.131 78.7277 107.25 78.1284 107.488Z" fill="#F5A249"/>
<path fill-rule="evenodd" clip-rule="evenodd" d="M82.3234 100.712C82.5632 98.4541 82.4433 95.0072 79.8062 94.5318C77.1691 94.0563 74.532 96.6712 74.0526 99.1673C73.5731 101.663 73.3334 102.614 72.2546 103.803C71.2956 104.872 68.8983 109.033 67.6996 111.529C66.5009 114.025 67.6996 113.43 68.1791 112.717C68.6585 112.004 70.5764 108.438 74.0526 105.942C77.5287 103.446 80.046 102.614 80.885 102.495C81.844 102.376 82.4433 101.544 82.3234 100.712Z" fill="#ED7500"/>
<path fill-rule="evenodd" clip-rule="evenodd" d="M51.7575 102.258C51.7575 102.258 52.4767 105.23 55.833 106.894C59.1893 108.558 62.4257 108.795 61.1072 109.508C60.0284 110.103 51.3979 108.32 51.7575 102.258Z" fill="#F08800"/>
<path fill-rule="evenodd" clip-rule="evenodd" d="M51.8768 101.664C52.1166 102.496 51.5172 104.398 53.3152 106.537C54.9934 108.558 57.8702 109.984 56.7914 110.459C55.7126 110.816 50.4384 107.012 51.8768 101.664Z" fill="#F08800"/>
<path fill-rule="evenodd" clip-rule="evenodd" d="M104.979 85.8561C104.979 85.8561 105.818 83.2412 106.058 81.1017C106.297 78.9623 108.934 73.0193 115.407 71.8307C121.76 70.6421 128.353 73.7325 131.35 76.3474C134.227 79.0811 134.586 81.696 134.227 83.8355C133.867 85.9749 132.908 86.8069 133.028 87.8767C133.028 88.9464 134.346 91.2047 133.507 94.6516C132.668 98.0985 127.034 105.349 118.764 105.349C107.736 105.349 100.184 95.3648 104.979 85.8561Z" fill="#F28F00"/>
<path fill-rule="evenodd" clip-rule="evenodd" d="M133.148 86.9264C133.028 87.2829 132.908 87.5206 132.908 87.9961C132.908 89.0658 134.227 91.3241 133.387 94.771C132.548 98.218 126.915 105.468 118.644 105.468C116.246 105.468 113.969 104.993 112.051 104.161C125.476 108.678 131.949 93.2259 125.476 85.6189C120.681 80.0325 115.168 80.9834 115.287 80.0325C115.407 79.0817 126.555 80.508 129.672 83.004C130.99 83.836 132.189 85.3812 133.148 86.9264Z" fill="#F08800"/>
<path fill-rule="evenodd" clip-rule="evenodd" d="M121.52 71.9495C121.76 71.9495 121.88 72.0683 122.12 72.0683C121.52 71.9495 121.4 71.9495 121.52 71.9495ZM125.835 73.1381C128.113 74.0889 130.031 75.2775 131.229 76.4661C134.106 79.1999 134.466 81.8148 134.106 83.9542C133.867 85.3805 133.387 86.2125 133.028 87.0445C132.548 86.9257 132.069 86.688 131.589 86.3314C131.589 86.3314 128.712 81.6959 125.116 80.9827C121.52 80.2696 118.284 80.1507 116.965 80.1507C115.647 80.1507 115.287 80.0319 115.287 80.0319C120.322 77.2981 127.034 80.6262 127.993 76.9415C128.353 75.5152 127.514 74.0889 125.835 73.1381Z" fill="#F08800"/>
<path fill-rule="evenodd" clip-rule="evenodd" d="M116.486 79.5566C116.486 79.5566 123.198 78.7246 127.753 80.5075C132.188 82.2903 133.147 78.8434 130.39 75.5154C130.75 75.7531 131.11 76.1097 131.349 76.3474C134.226 79.0811 134.586 81.696 134.226 83.8355C133.986 85.143 133.627 85.8561 133.267 86.5693C132.788 86.5693 132.428 86.5693 132.428 86.5693C132.428 86.5693 131.589 84.4298 128.473 82.4092C127.514 81.696 126.435 80.9829 125.236 80.7452C124.757 80.6263 124.157 80.5075 123.678 80.5075C121.76 80.032 119.363 79.6754 116.486 79.5566Z" fill="#F08600"/>
<path fill-rule="evenodd" clip-rule="evenodd" d="M127.754 73.9709L127.874 74.0898H127.994L128.113 74.2086H128.233H128.353H128.473H128.593H128.713H128.833H128.952H129.072H129.192H129.312H129.432H129.552H129.672H129.792H129.911L130.031 74.3275L130.151 74.4463H130.271L130.391 74.5652H130.511L130.631 74.6841L130.75 74.8029L130.87 74.9218L130.99 75.0406L131.11 75.1595L131.23 75.2784L131.35 75.3972L131.47 75.5161L131.59 75.6349C134.466 78.3687 134.826 80.9836 134.466 83.123C134.107 85.2625 133.148 86.0945 133.268 87.1643C133.268 88.234 134.586 90.4923 133.747 93.9392V94.0581V94.1769V94.2958V94.4146C133.747 94.4146 133.747 94.5335 133.627 94.5335C133.627 94.5335 133.627 94.6524 133.507 94.6524C133.507 94.6524 133.507 94.7712 133.388 94.7712C133.388 94.7712 133.388 94.8901 133.268 94.8901C133.268 94.8901 133.268 95.0089 133.148 95.0089C133.148 95.0089 133.148 95.1278 133.028 95.1278L132.908 95.2467L132.788 95.3655V95.4844L132.309 97.0295V97.1484L132.189 97.2673V97.3861L132.069 97.505V97.6238L131.949 97.7427V97.8616L131.829 97.9804H131.709V98.2181H131.59L131.47 98.337L131.35 98.4559L131.23 98.5747L131.11 98.6936L130.99 98.8124C130.99 98.9313 130.87 98.9313 130.87 99.0501L130.75 99.169L130.631 99.2879L130.511 99.4067L130.391 99.5256L130.271 99.6444H130.511C130.391 99.7633 130.271 99.8822 130.151 100.001V100.12C130.031 100.239 130.031 100.239 129.911 100.358L129.792 100.476C129.672 100.595 129.552 100.714 129.432 100.833C129.312 100.952 129.312 100.952 129.192 101.071L129.072 101.19C128.952 101.308 128.833 101.308 128.833 101.427L128.233 101.784C128.113 101.903 127.994 101.903 127.874 102.022C127.754 102.14 127.514 102.259 127.394 102.378C127.274 102.497 127.035 102.616 126.915 102.735C126.795 102.854 126.555 102.972 126.435 103.091L126.196 103.21C126.555 102.972 131.11 100.001 132.429 94.1769C133.627 88.234 129.552 82.6476 124.997 81.2213C120.442 79.795 116.486 80.7459 115.527 80.0327C114.568 79.4384 122.48 78.963 126.795 80.8647C131.11 82.7665 132.309 85.7379 133.028 85.1437C133.507 84.6682 134.706 77.6555 127.754 73.9709Z" fill="#E78000"/>
<path fill-rule="evenodd" clip-rule="evenodd" d="M133.388 89.7787C133.268 89.3032 132.668 87.0449 131.11 85.262C129.432 83.3603 126.915 81.102 124.158 80.5077C121.76 80.0322 130.631 80.7454 132.908 87.5204C132.908 87.6392 132.908 87.7581 132.908 87.7581C132.908 88.3524 133.148 89.0655 133.388 89.7787Z" fill="#B16000"/>
<path fill-rule="evenodd" clip-rule="evenodd" d="M104.979 88.709C104.979 88.709 106.777 87.1638 107.496 85.4998C108.215 83.8358 107.136 80.6266 107.496 79.2003C107.856 77.774 106.897 79.2003 106.657 80.5077C106.417 81.934 106.417 82.5283 105.938 84.5489C105.458 86.5695 104.38 89.1844 104.979 88.709Z" fill="#F08600"/>
<path fill-rule="evenodd" clip-rule="evenodd" d="M107.496 80.745C107.496 80.745 107.975 83.9541 107.736 84.905C107.376 85.8559 106.777 86.9256 106.537 87.0445C106.297 87.1633 106.777 86.6879 106.897 85.4993C107.136 84.3107 107.136 82.8844 107.136 81.9335C107.136 80.9827 107.496 79.1998 107.496 80.745Z" fill="#B16000"/>
<path fill-rule="evenodd" clip-rule="evenodd" d="M119.243 102.853C123.678 100.12 124.996 93.7013 122.599 90.3733C120.202 87.0452 113.489 82.8852 113.249 79.9137C112.89 76.9422 116.845 77.0611 117.445 74.9216C118.044 72.6633 110.253 72.7822 109.414 75.9914C108.575 79.0817 110.133 84.5492 108.095 88.8281C106.057 93.2259 104.02 92.9882 104.139 94.1768C104.859 100.239 113.729 106.3 119.243 102.853Z" fill="#EE7C09"/>
<path fill-rule="evenodd" clip-rule="evenodd" d="M105.458 88.8277C105.938 88.4711 107.736 86.4505 107.975 84.9053C108.215 83.3602 107.736 80.2698 107.736 79.4378C107.736 78.6058 107.856 78.0115 108.335 78.1304C108.815 78.1304 109.414 82.4093 108.695 84.9053C107.856 87.2825 105.099 89.3031 105.458 88.8277Z" fill="#F5A249"/>
<path fill-rule="evenodd" clip-rule="evenodd" d="M106.297 96.6728C107.496 98.5746 109.654 101.308 112.051 100.12C114.448 98.9311 114.928 95.2465 113.729 92.8693C112.53 90.611 112.171 89.6601 112.291 88.115C112.411 86.6887 111.811 81.9343 111.212 79.2006C110.613 76.4668 110.133 77.6554 110.133 78.6063C110.133 79.4383 110.852 83.4795 109.654 87.5207C108.455 91.5619 107.017 93.8202 106.297 94.4145C105.578 95.1277 105.698 96.0785 106.297 96.6728Z" fill="#ED7500"/>
<path fill-rule="evenodd" clip-rule="evenodd" d="M129.432 76.942C129.432 76.942 127.034 75.0402 123.318 75.7534C119.602 76.4665 116.965 78.1306 117.565 76.942C118.164 75.6345 126.075 71.831 129.432 76.942Z" fill="#F08800"/>
<path fill-rule="evenodd" clip-rule="evenodd" d="M129.791 77.5357C129.192 77.0603 128.353 75.1585 125.715 74.5642C123.078 73.9699 120.082 74.5642 120.561 73.6133C121.161 72.5436 127.633 72.4248 129.791 77.5357Z" fill="#F08800"/>
<path fill-rule="evenodd" clip-rule="evenodd" d="M87.7179 65.531C87.7179 65.531 90.4749 65.4121 92.6325 64.8178C94.7901 64.2235 101.263 64.5801 104.739 70.0476C108.215 75.5151 107.736 82.6466 106.297 86.4501C104.859 90.1348 102.462 91.3233 100.424 91.7988C98.2663 92.2742 97.1875 91.6799 96.1087 92.1554C95.0299 92.6308 93.4716 94.6514 89.9954 95.1268C86.5192 95.6023 77.649 93.1062 74.5325 85.4993C70.457 75.2774 77.0497 64.5801 87.7179 65.531Z" fill="#F28F00"/>
<path fill-rule="evenodd" clip-rule="evenodd" d="M97.1875 91.7992C96.8279 91.7992 96.4682 91.7992 96.1086 92.0369C95.0298 92.5124 93.4716 94.533 89.9954 95.0084C86.5192 95.4838 77.649 92.9878 74.5324 85.3808C73.6934 83.1225 73.2139 80.983 73.3338 78.8436C74.053 92.8689 90.9543 93.1066 95.749 84.3111C99.2252 77.8927 96.2285 73.1383 97.3073 72.9006C98.2663 72.6629 101.023 83.3602 99.8245 87.1637C99.2252 88.7089 98.2663 90.3729 97.1875 91.7992Z" fill="#F08800"/>
<path fill-rule="evenodd" clip-rule="evenodd" d="M106.897 75.6339C106.897 75.8716 107.017 75.9905 107.017 76.2282C106.897 75.6339 106.897 75.515 106.897 75.6339ZM107.376 80.1505C107.017 82.0523 106.058 83.3597 104.859 83.4786C101.023 83.954 101.623 76.5848 97.3076 72.9001C97.3076 72.9001 97.3076 73.2567 97.787 74.4453C98.2665 75.6339 99.3453 78.7242 100.065 82.29C100.664 85.8558 97.4274 90.2536 97.4274 90.2536C97.1877 90.8478 97.1877 91.4421 97.3076 91.9176C98.1466 91.9176 99.1056 92.0364 100.544 91.7987C102.702 91.3233 104.979 90.1347 106.418 86.4501C106.897 84.786 107.376 82.5277 107.376 80.1505Z" fill="#F08800"/>
<path fill-rule="evenodd" clip-rule="evenodd" d="M97.7872 73.8508C97.7872 73.8508 101.024 79.6749 101.024 84.5481C101.024 89.4214 104.62 88.9459 106.657 85.1424C106.538 85.6179 106.418 85.9744 106.298 86.331C104.859 90.0156 102.462 91.2042 100.424 91.6797C99.2256 91.9174 98.2667 91.9174 97.5475 91.7985C97.3077 91.3231 97.1879 90.9665 97.1879 90.9665C97.1879 90.9665 98.9859 89.4214 99.5852 85.8556C99.9448 84.667 100.185 83.4784 99.9448 82.2898C99.8249 81.8144 99.7051 81.2201 99.7051 80.7446C99.3455 78.8429 98.866 76.4657 97.7872 73.8508Z" fill="#F08600"/>
<path fill-rule="evenodd" clip-rule="evenodd" d="M107.257 82.1709V82.2898V82.4086V82.5275V82.6464V82.7652V82.8841V83.0029V83.1218V83.2406V83.3595V83.4784V83.5972V83.7161V83.8349V83.9538V84.0727V84.1915V84.3104V84.4292V84.5481V84.667V84.7858V84.9047V85.0235V85.1424V85.2612V85.3801V85.499V85.6178V85.7367V85.8555V85.9744V86.0933V86.2121V86.331C107.257 86.331 107.257 86.4498 107.137 86.4498C105.698 90.1345 103.301 91.3231 101.263 91.7985C99.1057 92.2739 98.0269 91.6796 96.9481 92.1551C95.8693 92.6305 94.311 94.6511 90.8349 95.1265H90.715H90.5951H90.4753H90.3554H90.2355H90.1157H89.9958C89.8759 95.1265 89.8759 95.1265 89.756 95.1265H89.6362C89.5163 95.1265 89.5163 95.1265 89.3964 95.1265H89.2766H89.1567H88.917H88.7971H88.6772H88.5574H88.4375H88.3176H88.1978H88.0779H87.958H87.8382H87.7183L86.16 94.6511H86.0401H85.9203H85.8004H85.6805H85.5607H85.4408H85.3209C85.2011 94.6511 85.2011 94.6511 85.0812 94.5322H84.9613H84.8415H84.7216H84.6017L84.362 94.4134H84.2421H84.1223C84.0024 94.4134 83.7627 94.2945 83.6428 94.2945H83.5229C83.4031 94.2945 83.2832 94.1757 83.2832 94.1757L83.1633 94.0568C83.0435 93.938 82.8037 93.938 82.6838 93.8191C82.564 93.8191 82.4441 93.7002 82.3242 93.7002L82.2044 93.5814C82.0845 93.5814 81.9646 93.4625 81.8448 93.4625L81.7249 93.3437C81.605 93.2248 81.4852 93.2248 81.3653 93.1059C81.2454 92.9871 81.0057 92.8682 80.8858 92.7494C80.766 92.6305 80.5262 92.5116 80.4064 92.3928C80.2865 92.2739 80.0468 92.1551 79.9269 92.0362L79.807 91.9174C80.1666 92.1551 84.7216 95.3643 90.5951 94.2945C96.7084 93.2248 100.304 87.4007 99.9448 82.6464C99.5852 77.892 97.3077 74.6828 97.5475 73.4942C97.7872 72.3056 101.024 79.556 100.904 84.1915C100.784 88.9459 98.3865 91.0853 99.1057 91.4419C99.3455 91.3231 106.418 89.8967 107.257 82.1709Z" fill="#E78000"/>
<path fill-rule="evenodd" clip-rule="evenodd" d="M94.4305 93.1065C94.7901 92.8688 96.708 91.3237 97.7868 89.3031C98.9855 87.0447 100.064 83.8355 99.7047 81.2206C99.2252 78.7246 101.862 87.2824 96.3484 91.9179C96.2286 91.9179 96.1087 91.9179 96.1087 92.0368C95.6292 92.1557 95.1497 92.6311 94.4305 93.1065Z" fill="#B16000"/>
<path fill-rule="evenodd" clip-rule="evenodd" d="M85.0809 66.6012C85.0809 66.6012 87.2385 67.671 89.0366 67.7898C90.8346 67.7898 93.4717 65.6504 94.9101 65.5315C96.3485 65.2938 94.7902 65.0561 93.3518 65.2938C91.9134 65.5315 91.4339 65.8881 89.2763 66.1258C87.2385 66.2447 84.3617 66.1258 85.0809 66.6012Z" fill="#F08600"/>
<path fill-rule="evenodd" clip-rule="evenodd" d="M93.4718 65.8875C93.4718 65.8875 90.7148 67.5516 89.636 67.5516C88.5572 67.5516 87.3585 67.4327 87.1188 67.195C86.879 66.9573 87.5982 67.195 88.7969 66.9573C89.9956 66.7195 91.3141 66.2441 92.2731 65.8875C93.1122 65.6498 94.9102 65.4121 93.4718 65.8875Z" fill="#B16000"/>
<path fill-rule="evenodd" clip-rule="evenodd" d="M77.0498 84.9054C81.365 87.9957 87.718 86.8071 89.9955 83.4791C92.273 80.0322 93.7114 72.4252 96.3485 70.9989C98.9856 69.5726 100.304 73.2572 102.582 73.0195C104.859 72.7818 101.862 65.6503 98.626 66.0068C95.3895 66.3634 90.8346 69.8103 86.0398 69.5726C81.2451 69.3349 80.6458 67.3143 79.567 67.9086C74.1729 70.7612 71.7756 81.1019 77.0498 84.9054Z" fill="#EE7C09"/>
<path fill-rule="evenodd" clip-rule="evenodd" d="M85.2008 67.0758C85.6802 67.3135 88.1975 68.2644 89.7557 67.9078C91.314 67.5513 93.9511 66.0061 94.7902 65.6495C95.6293 65.2929 96.1087 65.2929 96.2286 65.6495C96.3485 66.0061 92.6326 68.2644 89.9955 68.5021C87.4783 68.7398 84.4816 66.957 85.2008 67.0758Z" fill="#F5A249"/>
<path fill-rule="evenodd" clip-rule="evenodd" d="M78.1285 70.6419C76.81 72.4248 75.012 75.3962 77.0497 77.1791C79.0875 78.962 82.6835 78.0111 84.3616 76.1094C86.0398 74.2076 86.759 73.4945 88.1974 73.019C89.6358 72.5436 93.7113 70.2853 96.1087 68.7401C98.506 67.195 97.0676 67.195 96.3484 67.5515C95.5093 67.9081 92.153 69.9287 87.8378 70.4041C83.5226 70.7607 81.0053 70.2853 80.1663 69.9287C79.3272 69.4533 78.4881 69.9287 78.1285 70.6419Z" fill="#ED7500"/>
<path fill-rule="evenodd" clip-rule="evenodd" d="M105.099 84.7865C105.099 84.7865 105.938 81.815 104.02 78.7247C101.982 75.6343 99.3454 73.7326 100.784 73.8515C102.102 73.8515 108.695 79.7944 105.099 84.7865Z" fill="#F08800"/>
<path fill-rule="evenodd" clip-rule="evenodd" d="M104.739 85.3804C104.979 84.5484 106.417 83.1221 106.058 80.5072C105.578 77.8923 103.9 75.2774 105.099 75.3962C106.178 75.5151 108.695 81.458 104.739 85.3804Z" fill="#F08800"/>
<g opacity="0.2" style="mix-blend-mode:overlay">
<path fill-rule="evenodd" clip-rule="evenodd" d="M70.8165 53.0508C74.0529 49.8416 76.69 49.0096 78.1284 49.3662C79.5668 49.7227 90.8344 51.9811 95.3894 51.9811C100.064 51.9811 97.3073 58.8749 94.4304 62.3218C91.5536 65.8876 86.1596 74.4454 86.1596 79.6752C86.1596 85.0239 84.0019 122.227 86.1596 140.769C88.3172 159.311 91.4337 168.344 88.6768 168.344C85.9198 168.344 63.1449 168.106 58.4701 145.404C55.3535 130.19 53.1959 102.258 54.5145 83.4787C55.7131 65.2933 58.4701 65.2933 70.8165 53.0508Z" fill="white"/>
</g>
<path opacity="0.17" fill-rule="evenodd" clip-rule="evenodd" d="M60.8673 77.0601C64.1037 77.4167 67.6997 79.675 67.6997 85.7368C67.6997 91.6797 65.4223 115.57 67.6997 131.735C69.9772 147.781 75.9706 160.975 74.1726 161.569C72.3746 162.163 60.7474 152.298 58.4699 129.358C56.1924 106.299 57.1514 74.2075 60.8673 77.0601Z" fill="white"/>
<path fill-rule="evenodd" clip-rule="evenodd" d="M71.1759 67.9079C69.4977 67.1948 69.258 66.125 70.5765 64.5799C71.8951 62.9159 74.7719 59.8255 78.3679 60.5387C81.964 61.2518 81.964 66.125 79.207 67.1948C76.5699 68.1456 76.5699 69.0965 71.1759 67.9079Z" fill="white"/>
<g opacity="0.2" style="mix-blend-mode:overlay">
<path fill-rule="evenodd" clip-rule="evenodd" d="M66.0215 72.5438C64.2235 71.9495 80.1659 78.8433 102.341 78.8433C116.246 78.8433 123.079 90.7292 123.079 103.091C123.079 115.571 119.602 158.479 118.524 161.45C117.445 164.422 116.126 166.918 117.325 167.393C118.524 167.869 130.031 166.086 134.586 138.392C139.261 110.816 137.103 73.6135 135.185 72.5438C133.387 71.5929 100.064 79.7942 66.0215 72.5438Z" fill="#E28008"/>
</g>
<g opacity="0.2" style="mix-blend-mode:overlay">
<path fill-rule="evenodd" clip-rule="evenodd" d="M119.842 56.4971C124.877 60.6572 133.028 68.383 134.586 75.0391C136.863 84.6667 136.863 117.591 134.586 136.489C132.308 155.388 124.997 165.61 119.363 168.819C113.849 172.028 141.179 170.126 145.973 145.047C150.768 119.968 149.809 78.9615 146.213 70.2847C142.497 61.608 128.832 48.8901 125.955 48.8901C123.079 48.8901 141.299 65.6492 138.661 66.8378C137.343 67.551 134.106 63.9852 130.75 60.3006C124.038 52.6936 118.883 50.9107 116.486 51.2673C112.291 51.7428 118.883 55.6651 119.842 56.4971Z" fill="white"/>
</g>
<path opacity="0.12" fill-rule="evenodd" clip-rule="evenodd" d="M97.6667 161.451C97.6667 158.836 93.1117 110.936 93.1117 101.665C93.1117 92.5125 97.7865 87.877 102.342 87.877C106.896 87.877 104.619 94.7708 109.294 97.0291C113.849 99.2874 117.325 98.9308 116.366 109.509C115.407 120.088 116.246 162.402 111.571 164.184C106.896 166.086 99.4647 170.008 97.6667 161.451Z" fill="#F6F6F6"/>
<g opacity="0.2" style="mix-blend-mode:overlay">
<path fill-rule="evenodd" clip-rule="evenodd" d="M59.7886 69.0968C58.8297 70.8797 69.6178 74.4454 71.2959 78.0112C72.9741 81.577 72.2549 122.464 74.5323 138.51C76.8098 154.556 81.4847 159.192 83.7622 161.569C86.0396 163.827 78.488 82.6467 80.4059 80.2695C82.3237 77.7735 91.5536 78.0112 107.256 76.7038C122.959 75.3963 127.394 73.6134 122 73.0191C118.284 72.6626 101.503 72.1871 87.7178 71.8306C71.5356 71.474 61.9462 64.8179 59.7886 69.0968Z" fill="white"/>
</g>
<g opacity="0.2" style="mix-blend-mode:overlay">
<path fill-rule="evenodd" clip-rule="evenodd" d="M74.8921 42.8287C74.8921 42.8287 66.7411 52.2185 62.306 55.7843C57.8709 59.4689 52.1172 65.7685 51.6377 67.0759C50.3192 71.1171 74.053 76.1092 98.2663 76.5846C123.798 77.0601 148.731 71.236 147.412 67.0759C147.052 65.7685 141.179 59.3501 136.744 55.7843C132.309 52.0997 124.158 42.8287 124.158 42.8287L103.78 39.7384L103.66 38.4309L99.465 39.0252L95.2696 38.4309L95.1497 39.7384L74.8921 42.8287Z" fill="white"/>
</g>
</svg>
