<svg width="200" height="200" viewBox="0 0 200 200" fill="none" xmlns="http://www.w3.org/2000/svg">
<path d="M60.7977 164.585C60.7977 167.003 61.8111 169.398 63.7803 171.632C65.7494 173.866 68.6355 175.896 72.2739 177.606C75.9124 179.316 80.2318 180.673 84.9856 181.598C89.7395 182.524 94.8346 183 99.9801 183C105.126 183 110.221 182.524 114.975 181.598C119.728 180.673 124.048 179.316 127.686 177.606C131.325 175.896 134.211 173.866 136.18 171.632C138.149 169.398 139.163 167.003 139.163 164.585C139.163 162.166 138.149 159.771 136.18 157.537C134.211 155.303 131.325 153.273 127.686 151.563C124.048 149.853 119.728 148.496 114.975 147.571C110.221 146.645 105.126 146.169 99.9801 146.169C94.8346 146.169 89.7395 146.645 84.9856 147.571C80.2318 148.496 75.9124 149.853 72.2739 151.563C68.6355 153.273 65.7494 155.303 63.7803 157.537C61.8111 159.771 60.7977 162.166 60.7977 164.585Z" fill="url(#paint0_linear_2003_30385)"/>
<path d="M148 154.647L147.623 63.3287C145.974 38.2948 125.281 18.5195 100 18.5195C74.7191 18.5195 53.7278 38.2948 52.0596 63.3287V153.127C52.0199 153.607 52 154.067 52 154.547C52.0199 166.564 73.5077 176.322 100 176.322C126.492 176.322 148 166.584 148 154.567" fill="url(#paint1_linear_2003_30385)"/>
<path d="M59.5068 40.8741C68.662 46.0929 82.8018 49.4321 98.6694 49.4321C115.55 49.4321 130.484 45.653 139.54 39.8544C130.961 26.9975 116.384 18.5195 99.8411 18.5195C82.8813 18.5195 67.9669 27.4374 59.5068 40.8741Z" fill="#317DEF"/>
<path d="M86.2853 152.226C92.8456 156.037 100.579 157.176 107.785 155.392C114.99 153.608 121.078 149.047 124.708 142.713C128.338 136.379 129.213 128.79 127.141 121.617C125.069 114.443 120.22 108.271 113.659 104.46C107.099 100.649 99.3654 99.5101 92.1598 101.294C84.9542 103.078 78.8668 107.639 75.2367 113.973C71.6067 120.307 70.7314 127.896 72.8034 135.07C74.8754 142.243 79.7251 148.415 86.2853 152.226Z" fill="url(#paint2_radial_2003_30385)"/>
<path d="M123.454 113.697C126.175 121.115 125.777 129.513 121.647 136.711C114.08 149.908 96.902 154.147 83.2387 146.229C79.1676 143.85 75.8511 140.67 73.4282 137.011C75.6922 143.15 80.0811 148.648 86.2772 152.227C99.9404 160.166 117.139 155.907 124.685 142.71C129.988 133.472 129.134 122.295 123.454 113.697Z" fill="#7D00FA"/>
<path d="M112.293 107.298C112.293 107.298 111.161 105.538 109.493 105.658L111.081 107.358C111.081 107.358 110.128 107.078 109.135 108.038L111.558 108.578C111.558 108.578 112.134 109.497 112.035 110.577L112.928 109.017L114.239 110.477C114.239 110.477 114.676 108.977 113.723 108.278C113.723 108.278 114.597 107.578 115.57 108.218C115.57 108.218 114.597 107.058 113.445 107.178L112.293 107.298Z" fill="#302B2F"/>
<path d="M91.381 109.022C91.695 109.204 92.0403 109.325 92.3973 109.376C92.7542 109.428 93.1157 109.411 93.4613 109.324C93.8068 109.237 94.1295 109.084 94.411 108.872C94.6926 108.66 94.9273 108.395 95.102 108.09C95.2767 107.785 95.3878 107.447 95.429 107.096C95.4702 106.745 95.4407 106.386 95.3421 106.042C95.2436 105.697 95.078 105.373 94.8548 105.088C94.6315 104.803 94.355 104.562 94.041 104.38C93.727 104.198 93.3817 104.077 93.0248 104.025C92.6678 103.973 92.3063 103.991 91.9608 104.078C91.6153 104.164 91.2925 104.318 91.011 104.529C90.7295 104.741 90.4947 105.007 90.32 105.312C90.1454 105.616 90.0343 105.954 89.9931 106.306C89.9519 106.657 89.9814 107.015 90.0799 107.36C90.1784 107.704 90.344 108.028 90.5673 108.313C90.7905 108.598 91.0671 108.839 91.381 109.022Z" fill="#FFF1B6"/>
<path d="M76.0695 80.0245C76.4667 81.844 76.7447 83.4237 76.8838 84.7233C77.0228 86.023 77.1022 87.1828 77.1022 88.2025C77.1022 88.9023 77.0824 89.5222 77.0228 90.0621C76.9632 90.6019 76.9036 91.1018 76.844 91.5417C76.6653 92.5615 76.1887 93.3413 75.3943 93.9011C74.6198 94.461 73.6864 94.7409 72.614 94.7409C72.4154 94.7409 72.197 94.7209 71.9785 94.681C71.7601 94.641 71.5217 94.601 71.2834 94.561C70.9657 94.501 70.6479 94.361 70.2905 94.1811C69.9529 93.9811 69.6152 93.6812 69.2975 93.2813C68.9797 92.8814 68.7017 92.3415 68.4634 91.6817C68.2251 91.0218 68.0464 90.182 67.9669 89.1623L70.8465 88.6624C71.0253 89.7421 71.2636 90.5619 71.5416 91.1418C71.8395 91.7217 72.197 92.0016 72.614 92.0016C73.1502 91.9816 73.5275 91.6617 73.746 91.0418C73.9644 90.422 74.0836 89.6022 74.0836 88.6024C74.0836 87.5827 73.9843 86.3829 73.7857 84.9633C73.5871 83.5636 73.3687 82.084 73.1502 80.5244L76.0695 80.0245ZM73.5673 74.3458C73.9446 74.3458 74.3219 74.3259 74.6794 74.2859C75.0368 74.2459 75.5135 74.1859 76.0894 74.0659C76.0894 74.3858 76.0894 74.6858 76.0695 74.9857C76.0497 75.2856 76.0497 75.5456 76.0497 75.7655V77.4251H75.0567C74.8581 77.4251 74.7191 77.4051 74.5999 77.3851C74.4808 77.3651 74.3418 77.3451 74.1829 77.3251C74.024 77.3051 73.7063 77.3051 73.2694 77.3051C73.1502 76.9452 73.0906 76.6653 73.0906 76.4853C73.0708 76.3054 73.0708 76.0854 73.031 75.8455L72.892 74.3259H73.5673V74.3458ZM92.8904 80.7643C93.0095 81.5441 93.1088 82.2639 93.2081 82.9238C93.3074 83.5836 93.4067 84.2035 93.4862 84.8233C93.5656 85.4432 93.6252 86.083 93.6649 86.7229C93.7046 87.3627 93.7245 88.0625 93.7245 88.8024V89.6622C93.7245 89.9821 93.7046 90.302 93.6847 90.5819L90.4874 90.6419V89.3422C89.0972 90.202 87.7667 90.6219 86.4957 90.6219C85.8999 90.6219 85.3041 90.5219 84.7083 90.322C84.1324 90.122 83.5764 89.8021 83.06 89.3422C82.782 89.1423 82.5437 88.8823 82.3252 88.6024C82.1068 88.3025 81.9082 87.9426 81.7294 87.5227C81.5706 87.1028 81.4315 86.5829 81.3323 85.9631C81.233 85.3632 81.1734 84.6234 81.1734 83.7636C81.1734 82.5639 81.2727 81.1042 81.4713 79.3446L85.0261 79.5846C84.8871 80.3244 84.7878 81.0042 84.7481 81.6241C84.6885 82.2439 84.6686 82.8038 84.6686 83.3237C84.6686 84.7433 84.8474 85.7631 85.2048 86.4229C85.5623 87.0628 86.0389 87.4027 86.6148 87.4227C87.5681 87.4627 88.283 87.4227 88.7596 87.2627C89.2363 87.1228 89.6732 86.9628 90.0704 86.7629L90.1697 86.9228C90.2094 86.9828 90.2491 87.0628 90.2888 87.1628C90.3285 87.2627 90.3881 87.3627 90.4675 87.5027C90.4477 86.9028 90.408 86.263 90.3682 85.6031C90.3285 84.9433 90.2689 84.1835 90.2292 83.3637L90.0902 79.7246L92.5329 79.2447L92.8904 80.7643ZM97.6169 74.8457C97.7956 74.8257 97.9545 74.8057 98.0935 74.8057H98.4708C98.7886 74.7857 99.0666 74.7657 99.3248 74.7458C99.583 74.7258 100 74.6658 100.576 74.5658V76.1454C100.556 76.3454 100.536 76.5653 100.536 76.8253V77.705H99.583C99.4241 77.705 99.2851 77.685 99.1659 77.6651C99.0468 77.6451 98.9276 77.6251 98.7886 77.6051C98.6496 77.5851 98.3517 77.5851 97.8949 77.5851C97.7956 77.2651 97.7361 77.0052 97.7162 76.8053C97.6765 76.6053 97.6566 76.3854 97.6368 76.1254L97.4977 74.9457L97.6169 74.8457ZM97.7162 90.9019C97.7162 90.6019 97.7162 90.302 97.7361 90.0021C97.7559 89.7021 97.7559 89.4022 97.7559 89.1423C97.7559 88.7624 97.7559 88.3825 97.7758 88.0026C97.7956 87.6226 97.7956 87.2427 97.7956 86.8428C97.7956 86.063 97.7758 85.1632 97.7361 84.1635C97.6963 83.1637 97.6368 81.944 97.5573 80.5244L100.099 79.9245C100.238 80.9842 100.338 81.884 100.417 82.6438C100.497 83.4037 100.556 84.0835 100.616 84.7034C100.675 85.3232 100.715 85.9231 100.735 86.5029C100.755 87.0828 100.775 87.7226 100.794 88.4025L100.894 90.9019H97.7162ZM109.493 90.9019C109.076 90.8419 108.579 90.7219 108.023 90.5619C107.467 90.402 106.931 90.1021 106.415 89.6822C105.898 89.2623 105.461 88.6424 105.104 87.8826C104.746 87.1028 104.568 86.083 104.568 84.7833C104.588 83.8836 104.707 83.1237 104.945 82.4839C105.163 81.844 105.441 81.3242 105.779 80.9043C106.117 80.4844 106.494 80.1644 106.911 79.9245C107.328 79.6846 107.725 79.5046 108.142 79.4046C108.897 79.2247 109.592 79.1247 110.188 79.1247C110.784 79.1247 111.379 79.1847 111.955 79.2847C112.531 79.4046 113.067 79.5646 113.564 79.7645C114.06 79.9845 114.517 80.2444 114.914 80.5444C115.312 80.8443 115.609 81.1842 115.828 81.5441L114.219 83.4437C114.001 83.2837 113.683 83.1237 113.266 82.9438C112.849 82.7638 112.412 82.6039 111.916 82.4639C111.439 82.3239 110.943 82.224 110.446 82.184C109.95 82.124 109.493 82.144 109.096 82.2439C108.619 82.3439 108.242 82.5839 107.964 82.9638C107.686 83.3637 107.547 83.8836 107.547 84.5634C107.527 85.5032 107.705 86.283 108.083 86.8828C108.46 87.4827 108.957 87.8426 109.592 87.9426C109.731 87.9826 109.87 88.0026 110.029 88.0026H110.525C110.923 88.0026 111.34 87.9626 111.777 87.8826C112.214 87.8026 112.631 87.6826 113.028 87.5427C113.425 87.4027 113.802 87.2227 114.12 87.0428C114.438 86.8428 114.696 86.6229 114.875 86.383L116.225 88.2425C115.669 88.9623 114.914 89.6022 113.941 90.142C112.988 90.7019 111.896 90.9618 110.684 90.9618C110.247 91.0018 109.85 90.9618 109.493 90.9019ZM131.735 85.7631H131.775C130.742 86.043 129.829 86.223 129.014 86.363C128.2 86.4829 127.446 86.5429 126.731 86.5429C125.916 86.5429 125.202 86.4829 124.526 86.383C123.871 86.263 123.216 86.103 122.56 85.9031C122.699 86.9028 123.116 87.5627 123.811 87.8826C124.506 88.2025 125.321 88.3825 126.214 88.3825C126.731 88.3825 127.247 88.3425 127.783 88.2825C128.3 88.2225 128.856 88.1225 129.412 88.0026C129.491 88.4624 129.59 88.8823 129.69 89.2823C129.769 89.6822 129.868 90.1021 129.968 90.5419C128.518 90.9219 127.207 91.1218 126.075 91.1218C125.062 91.1218 124.149 90.9618 123.295 90.6419C122.441 90.322 121.726 89.7821 121.15 88.9823C120.932 88.7424 120.654 88.2825 120.336 87.6226C120.018 86.9628 119.859 86.143 119.859 85.1233C119.859 84.2835 120.058 83.2637 120.435 82.044C120.614 81.6241 120.912 81.2242 121.309 80.8443C121.706 80.4644 122.163 80.1445 122.679 79.8845C123.196 79.6046 123.732 79.3846 124.288 79.2247C124.844 79.0647 125.38 78.9447 125.897 78.9047C126.989 79.0447 127.922 79.3047 128.717 79.7246C129.491 80.1245 130.127 80.6043 130.603 81.1242C131.08 81.6441 131.437 82.2239 131.656 82.8038C131.874 83.4037 131.993 83.9435 131.993 84.4434C131.993 85.1033 131.954 85.5232 131.854 85.7231L131.735 85.7631ZM122.878 83.9435L122.838 83.9035H122.799V83.9635H122.858V83.9435H122.878ZM122.878 83.9435C123.096 83.9835 123.474 84.0435 124.01 84.0835C124.526 84.1235 125.162 84.1435 125.877 84.1435C126.393 84.1435 126.89 84.1235 127.366 84.0835C127.843 84.0435 128.319 83.9835 128.756 83.8636C128.657 83.3037 128.518 82.8638 128.3 82.5639C128.081 82.2639 127.843 82.044 127.565 81.904C127.287 81.7641 126.989 81.7041 126.671 81.6841C126.353 81.6641 126.055 81.6641 125.758 81.6641C125.281 81.6641 124.884 81.7441 124.546 81.924C124.209 82.084 123.931 82.3039 123.692 82.5239C123.454 82.7638 123.275 83.0038 123.136 83.2437C122.997 83.4836 122.918 83.6836 122.858 83.8236V83.7636C122.838 83.7836 122.818 83.8236 122.818 83.8636V83.9035C122.818 83.8835 122.838 83.8636 122.858 83.8436L122.878 83.9435Z" fill="#FFF6ED"/>
<path d="M138.785 30.1169C138.785 28.6573 137.812 30.0969 136.482 29.717C131.179 24.4583 116.821 20.6792 99.9206 20.6792C82.9607 20.6792 68.5429 24.4783 63.3 29.777C62.0687 30.2169 61.175 28.7373 61.175 30.1169V34.4159C61.175 34.7558 61.2346 35.0957 61.3339 35.3957C63.0815 42.294 79.6839 47.6927 99.9206 47.6927C119.323 47.6927 135.409 42.7139 138.229 36.2155C138.587 35.6956 138.785 35.0757 138.785 34.3959V30.1169Z" fill="#3D9DF5"/>
<path d="M99.8808 22.7585C117.397 22.7585 131.834 26.8175 133.94 32.0563C134.118 31.6164 134.198 31.1765 134.198 30.7366C134.198 24.878 118.827 20.1191 99.861 20.1191C80.8953 20.1191 65.5242 24.878 65.5242 30.7366C65.5242 31.1765 65.6235 31.6364 65.7823 32.0563C67.9271 26.8175 82.3847 22.7585 99.8808 22.7585Z" fill="#26435E"/>
<path d="M99.9801 17C78.5519 17 61.175 23.0385 61.175 30.4967C61.175 37.955 78.5519 43.9935 99.9801 43.9935C121.408 43.9935 138.785 37.955 138.785 30.4967C138.785 23.0385 121.408 17 99.9801 17ZM99.7418 41.1942C80.7364 41.1942 65.3454 36.4553 65.3454 30.5967C65.3454 24.7381 80.7563 19.9993 99.7418 19.9993C118.727 19.9993 134.138 24.7381 134.138 30.5967C134.138 36.4553 118.747 41.1942 99.7418 41.1942Z" fill="#DAE5F5"/>
<path d="M99.9801 26.6974C114.716 26.6974 126.492 29.2967 132.688 32.476C130.226 28.4969 117.456 24.3779 99.9801 24.3779C82.5039 24.3779 69.7343 28.4969 67.2718 32.476C73.4679 29.2967 85.2445 26.6974 99.9801 26.6974Z" fill="#D6E8FD"/>
<path d="M92.6719 37.3349C92.6719 38.1887 93.4314 39.0076 94.7834 39.6113C96.1353 40.215 97.9689 40.5542 99.8809 40.5542C101.793 40.5542 103.626 40.215 104.978 39.6113C106.33 39.0076 107.09 38.1887 107.09 37.3349C107.09 36.4812 106.33 35.6623 104.978 35.0586C103.626 34.4549 101.793 34.1157 99.8809 34.1157C97.9689 34.1157 96.1353 34.4549 94.7834 35.0586C93.4314 35.6623 92.6719 36.4812 92.6719 37.3349Z" fill="#2086F5"/>
<path d="M105.998 29.4968V29.4169C105.978 26.5376 104.468 23.4583 100.238 23.3183C96.7232 23.2184 94.3004 25.3378 93.9628 28.837L93.9231 28.897C93.9032 29.3769 93.8039 32.4761 93.8039 33.8758C93.8039 35.2155 96.8821 35.9153 99.9404 35.9153C102.661 35.9153 104.945 35.3954 105.759 34.5756C105.978 34.3557 106.097 34.1157 106.097 33.8558C106.097 32.2162 106.037 30.4166 105.998 29.4968ZM99.8213 27.2774C97.7559 27.2774 95.8494 27.8172 94.8962 28.657C95.2933 25.8577 97.2991 24.1381 100.199 24.2381C102.999 24.3181 104.806 26.0377 105.064 28.817C103.892 27.8372 102.006 27.2774 99.8213 27.2774Z" fill="white"/>
<path d="M99.9007 34.9752C97.0608 34.9752 94.7571 33.6556 94.7571 32.0359C94.7571 30.3963 97.0608 29.0767 99.9007 29.0767C102.741 29.0767 105.044 30.3963 105.044 32.016C105.044 33.6356 102.741 34.9752 99.9007 34.9752Z" fill="#367DB0"/>
<path d="M99.9007 29.637C102.363 29.637 104.448 30.5767 105.024 31.8364C104.885 30.2768 102.641 29.0371 99.9007 29.0371C97.1601 29.0371 94.916 30.2768 94.777 31.8364C95.3529 30.5967 97.4183 29.657 99.9007 29.637Z" fill="#F2E1D7"/>
<path d="M99.9007 33.1759C98.7886 33.1759 97.8751 32.656 97.8751 32.0161C97.8751 31.3763 98.7886 30.8364 99.9007 30.8364C101.013 30.8364 101.926 31.3563 101.926 31.9961C101.926 32.656 101.013 33.1759 99.9007 33.1759Z" fill="#FFF6ED"/>
<path d="M99.5631 62.1893C117.655 62.1893 133.662 58.9501 143.452 51.8518C142.102 48.0527 140.295 44.4536 138.07 41.1943C128.28 46.3731 114.656 49.8523 99.583 49.8523C84.8076 49.8523 71.4026 46.4931 61.6715 41.4943C59.4473 44.8135 57.6401 48.4526 56.3293 52.3117C66.1597 59.13 81.8684 62.1893 99.5631 62.1893Z" fill="url(#paint3_linear_2003_30385)" fill-opacity="0.6"/>
<path d="M59.8842 109.357C58.5734 109.357 57.501 108.278 57.501 106.958V98.92C57.501 97.6003 58.5734 96.5206 59.8842 96.5206C61.1949 96.5206 62.2673 97.6003 62.2673 98.92V106.958C62.2673 108.278 61.1949 109.357 59.8842 109.357ZM59.8842 93.9212C58.5734 93.9212 57.501 92.8415 57.501 91.5218V63.4086C57.501 62.8487 57.5209 62.2089 57.5606 61.449C57.9578 54.9706 60.3012 47.5924 63.995 41.1939C64.6504 40.0542 66.12 39.6543 67.252 40.3141C68.384 40.974 68.7811 42.4536 68.1258 43.5934C64.7894 49.372 62.6843 55.9904 62.3269 61.729C62.2871 62.3888 62.2673 62.9287 62.2673 63.4086V91.5218C62.2673 92.8615 61.1949 93.9212 59.8842 93.9212Z" fill="#DFEFFF"/>
<defs>
<linearGradient id="paint0_linear_2003_30385" x1="100" y1="175.5" x2="99.9801" y2="183" gradientUnits="userSpaceOnUse">
<stop stop-color="#4688C5"/>
<stop offset="1" stop-color="#345F88"/>
</linearGradient>
<linearGradient id="paint1_linear_2003_30385" x1="51.5765" y1="90.4114" x2="148.463" y2="90.4114" gradientUnits="userSpaceOnUse">
<stop stop-color="#66A3FF"/>
<stop offset="0.16" stop-color="#44A5FF"/>
<stop offset="0.33" stop-color="#6DCBFF"/>
<stop offset="0.48" stop-color="#B6E5FF"/>
<stop offset="0.625" stop-color="#6DB0FF"/>
<stop offset="0.815" stop-color="#1A89F0"/>
<stop offset="1" stop-color="#2385F8"/>
</linearGradient>
<radialGradient id="paint2_radial_2003_30385" cx="0" cy="0" r="1" gradientUnits="userSpaceOnUse" gradientTransform="translate(99.9722 128.343) rotate(90) scale(27.8729 28.2698)">
<stop stop-color="#B8A6FF"/>
<stop offset="0.67" stop-color="#892CFF"/>
<stop offset="1" stop-color="#6C26FF"/>
</radialGradient>
<linearGradient id="paint3_linear_2003_30385" x1="56.3293" y1="51.6918" x2="143.452" y2="51.6918" gradientUnits="userSpaceOnUse">
<stop stop-color="#D8EDFF"/>
<stop offset="0.475" stop-color="#EAF5FF"/>
<stop offset="0.855" stop-color="#C8E1F7"/>
<stop offset="1" stop-color="#9CBEDC"/>
</linearGradient>
</defs>
</svg>
