<svg width="200" height="200" viewBox="0 0 200 200" fill="none" xmlns="http://www.w3.org/2000/svg">
<path d="M87.8268 171.856C74.6347 171.856 79.7116 159.88 66.1925 91.9322C61.7695 69.7408 70.8271 32.4392 74.2117 23.5974C76.5578 17.4256 85.423 17 100.904 17C119.557 17 124.846 17.89 126.153 22.7268C130.73 39.617 138.076 62.2921 133.615 92.8222C123.961 158.913 125.826 171.875 115.153 171.875H87.8268V171.856Z" fill="url(#paint0_linear_2006_76496)"/>
<path d="M81.3076 180.659V171.759C81.3076 171.043 81.8845 170.463 82.5961 170.463H119.23C119.942 170.463 120.519 171.043 120.519 171.759V180.659C120.519 181.375 119.942 181.955 119.23 181.955C119.23 181.955 114.115 183 100.923 183C89.9998 183 82.5961 181.955 82.5961 181.955C81.8845 181.955 81.3076 181.375 81.3076 180.659Z" fill="url(#paint1_linear_2006_76496)"/>
<path d="M90.9806 180.137V179.343C90.9806 179.208 91.096 179.092 91.2306 179.092H111.596C111.73 179.092 111.846 179.208 111.846 179.343V180.137C111.846 180.272 111.73 180.388 111.596 180.388H91.2114C91.0767 180.369 90.9806 180.272 90.9806 180.137Z" fill="url(#paint2_linear_2006_76496)"/>
<path d="M120.422 180.369H81.3076V180.543H120.422V180.369Z" fill="url(#paint3_linear_2006_76496)"/>
<path d="M129.98 110.486C128.692 123.139 124.999 148.194 122.826 160.712C122.365 163.44 121.692 166.458 119.403 168.025C116.884 169.767 100.442 169.534 95.9037 169.225C115.115 165.433 127.076 118.438 129.98 110.486Z" fill="#BF0230"/>
<g opacity="0.2" style="mix-blend-mode:overlay">
<path d="M117.365 19.6504C126.403 21.4497 134.23 55.1527 132.23 78.1954C129.692 107.41 125.403 155.797 120.423 166.032C118.749 169.476 113.25 169.65 108.038 169.457C121.076 134.245 121.519 39.3847 117.365 19.6504Z" fill="url(#paint4_linear_2006_76496)"/>
</g>
<path d="M70.0194 105.127C74.6732 129.833 75.1924 141.306 79.8654 166.013C80.9616 143.802 78.3654 123.797 70.0194 105.127Z" fill="#BF0230"/>
<g opacity="0.1" style="mix-blend-mode:overlay">
<path d="M96.8651 123.372C102.153 124.571 107.711 124.668 112.961 123.352C133.076 118.264 136.461 87.1727 127.634 43.9121C129.249 56.9909 136.018 90.1716 123.903 110.718C118.73 119.463 108.134 124.842 96.8651 123.372Z" fill="url(#paint5_linear_2006_76496)"/>
</g>
<g opacity="0.2" style="mix-blend-mode:overlay">
<path d="M68.981 77.5571C71.6732 105.011 78.6154 134.303 80.0962 160.228C80.2885 163.575 82.7307 166.497 85.6153 168.18C87.1345 169.07 88.9999 169.089 90.7691 169.07C95.0575 169.051 103.807 164.949 105.577 161.37C112.269 147.943 95.1344 143.241 93.9613 131.091C92.7691 118.941 93.4806 109.287 90.7499 97.3687C89.6153 92.4352 87.9999 87.3662 84.4038 83.8063C80.8462 80.227 73.1732 74.0552 68.981 77.5571Z" fill="url(#paint6_linear_2006_76496)"/>
</g>
<g opacity="0.1" style="mix-blend-mode:overlay">
<path d="M103.577 25.9191C92.1345 23.075 82.0962 26.8284 76.3078 34.4706C71.8848 40.3135 70.1733 48.1685 69.2695 55.8107C67.3464 72.0431 68.481 88.5464 70.7117 104.721C69.0387 92.4158 68.8656 79.8594 70.1733 67.4965C71.2502 57.2811 73.4809 46.9109 78.8462 38.6109C84.2115 30.2916 93.2691 24.4487 103.577 25.9191Z" fill="url(#paint7_linear_2006_76496)"/>
</g>
<g opacity="0.2" style="mix-blend-mode:overlay">
<path d="M100.884 20.5987C94.8651 18.4511 88.0767 20.0763 82.846 24.0231C77.6153 27.97 73.8462 34.0063 71.4616 40.5457C69.077 47.0851 67.9809 54.1082 67.3078 61.1119C66.1347 73.2427 66.2117 85.9539 70.6731 97.0979C71.8847 100.116 73.7885 103.308 76.7307 103.792C78.7499 104.121 80.8268 103.018 82.2114 101.354C83.6153 99.6905 84.4422 97.5236 85.0383 95.3373C88.6152 82.5294 85.7114 67.5546 92.1151 56.1977C94.4035 52.1348 97.7112 48.9231 100.653 45.4406C103.615 41.9387 106.326 37.8951 107 33.1357C107.673 28.3763 105.826 22.3593 100.884 20.5987Z" fill="url(#paint8_linear_2006_76496)"/>
</g>
<path d="M70.0194 78.7761C70.0194 53.4891 75.2309 32.981 99.9997 32.981C124.769 32.981 129.98 53.4891 129.98 78.7761C129.98 104.063 124.903 123.739 99.9997 124.571C76.6539 123.488 70.0194 104.063 70.0194 78.7761Z" fill="#FF7171"/>
<g opacity="0.2" style="mix-blend-mode:overlay">
<path d="M70.0194 77.5956C70.0194 52.3087 75.2309 31.8005 99.9997 31.8005C124.769 31.8005 129.98 52.3087 129.98 77.5956C129.98 102.883 124.903 122.559 99.9997 123.391C76.6539 122.327 70.0194 102.902 70.0194 77.5956Z" fill="url(#paint9_linear_2006_76496)"/>
</g>
<path d="M99.0575 53.0635C108.577 53.0635 117.115 53.5665 123.576 55.2884C124.519 55.5399 125.153 56.2171 125.153 56.991V76.4931C125.153 77.2476 124.538 77.9248 123.615 78.1956C117.153 80.0143 108.615 80.6915 99.0383 80.6915C90.5768 80.6915 82.7885 80.2852 76.5578 78.9889C75.5386 78.7761 74.8463 78.0602 74.8463 77.2476V56.991C74.8463 56.1784 75.5578 54.9789 76.5578 54.766C82.7885 53.4698 90.5961 53.0635 99.0575 53.0635Z" fill="url(#paint10_linear_2006_76496)"/>
<path d="M76.173 57.1068V56.6231C85.519 55.3075 115.211 55.3462 123.845 56.6231V57.1068C123.845 57.1068 114.749 56.1395 100.211 56.1395C85.6344 56.1201 76.173 57.1068 76.173 57.1068Z" fill="#D1AA5D"/>
<path d="M76.173 76.7058V77.1895C85.519 78.5051 115.211 78.4664 123.845 77.1895V76.7058C123.845 76.7058 114.749 77.6732 100.211 77.6732C85.6344 77.6925 76.173 76.7058 76.173 76.7058Z" fill="#D1AA5D"/>
<g opacity="0.7608">
<path d="M82.7306 68.5218V63.6462H83.7113V65.8131L85.6921 63.6462H86.9998L85.1729 65.5423L87.0959 68.5218H85.8459L84.4998 66.2388L83.7113 67.0514V68.5218H82.7306Z" fill="white"/>
<path d="M88.2882 68.5218V63.6462H91.8843V64.4588H89.269V65.5423H91.692V66.3742H89.269V67.6898H91.9805V68.5218H88.2882Z" fill="white"/>
<path d="M94.5766 68.5218V64.4588H93.1343V63.6462H96.9804V64.4588H95.5573V68.5218H94.5766Z" fill="white"/>
<path d="M101.403 66.7223L102.346 67.0318C102.192 67.5736 101.961 67.9605 101.615 68.212C100.519 69.044 98.115 68.6764 98.115 66.1225C98.115 64.5941 98.9419 63.5493 100.384 63.5493C100.98 63.5493 101.461 63.7234 101.826 64.0717C102.038 64.2845 102.211 64.5747 102.326 64.9617L101.365 65.1938C101.153 64.2458 99.9996 64.1491 99.4611 64.7682C99.2304 65.0197 99.1342 65.4454 99.1342 66.0258C99.1342 66.6449 99.2496 67.0899 99.4611 67.3414C99.6727 67.6123 99.9611 67.7283 100.326 67.7283C100.807 67.767 101.23 67.4768 101.403 66.7223Z" fill="white"/>
<path d="M103.865 68.5218V63.6462H104.846V65.5616H106.769V63.6462H107.749V68.5218H106.769V66.3936H104.846V68.5218H103.865Z" fill="white"/>
<path d="M109.422 63.6462H110.403C110.403 66.084 110.384 66.8579 110.442 67.1094C110.48 67.3029 110.576 67.477 110.749 67.5931C111.153 67.9026 112.153 67.864 112.288 67.1868C112.345 66.8385 112.326 66.3355 112.326 63.6656H113.307C113.307 66.1614 113.326 66.9933 113.23 67.477C113.134 67.9413 112.865 68.2896 112.365 68.4831C111.845 68.6959 110.826 68.6765 110.384 68.4637C109.922 68.2509 109.634 67.8833 109.538 67.4964C109.403 66.9353 109.422 66.2194 109.422 63.6462Z" fill="white"/>
<path d="M114.999 68.5216V63.6461C116.288 63.6461 117.384 63.6268 117.73 63.7235C117.999 63.8009 118.249 63.9557 118.422 64.2072C118.788 64.6715 118.769 65.4648 118.538 65.9097C118.326 66.2967 117.98 66.5482 117.615 66.6256C117.172 66.7223 116.499 66.703 115.961 66.703V68.541H114.999V68.5216ZM115.98 64.4587V65.8517C116.403 65.8517 117.038 65.8711 117.288 65.7743C117.903 65.5421 117.845 64.6328 117.153 64.4974C116.942 64.4587 116.346 64.4587 115.98 64.4587Z" fill="white"/>
</g>
<defs>
<linearGradient id="paint0_linear_2006_76496" x1="129.796" y1="173.681" x2="68.7883" y2="-2.83081" gradientUnits="userSpaceOnUse">
<stop stop-color="#BD002F"/>
<stop offset="0.085467" stop-color="#C80932"/>
<stop offset="0.2301" stop-color="#D41135"/>
<stop offset="0.433" stop-color="#DB1737"/>
<stop offset="0.988" stop-color="#DD1837"/>
</linearGradient>
<linearGradient id="paint1_linear_2006_76496" x1="81.3026" y1="176.737" x2="120.509" y2="176.737" gradientUnits="userSpaceOnUse">
<stop stop-color="#B7B7BA"/>
<stop offset="0.00674468" stop-color="#BBBBBE"/>
<stop offset="0.0501715" stop-color="#CFD1D2"/>
<stop offset="0.101" stop-color="#DFE2E1"/>
<stop offset="0.1644" stop-color="#EAEDEC"/>
<stop offset="0.2533" stop-color="#F0F4F2"/>
<stop offset="0.5" stop-color="#F2F6F4"/>
<stop offset="0.7467" stop-color="#F0F4F2"/>
<stop offset="0.8356" stop-color="#EAEDEC"/>
<stop offset="0.899" stop-color="#DFE2E1"/>
<stop offset="0.9498" stop-color="#CFD1D2"/>
<stop offset="0.9933" stop-color="#BBBBBE"/>
<stop offset="1" stop-color="#B7B7BA"/>
</linearGradient>
<linearGradient id="paint2_linear_2006_76496" x1="101.428" y1="178.779" x2="101.345" y2="181.139" gradientUnits="userSpaceOnUse">
<stop stop-color="#B7B7BA"/>
<stop offset="0.1807" stop-color="#C3C2C4"/>
<stop offset="0.7024" stop-color="#E0DFDD"/>
<stop offset="1" stop-color="#EBEAE7"/>
</linearGradient>
<linearGradient id="paint3_linear_2006_76496" x1="100.888" y1="179.725" x2="100.824" y2="181.549" gradientUnits="userSpaceOnUse">
<stop stop-color="#B7B7BA"/>
<stop offset="0.1807" stop-color="#C3C2C4"/>
<stop offset="0.7024" stop-color="#E0DFDD"/>
<stop offset="1" stop-color="#EBEAE7"/>
</linearGradient>
<linearGradient id="paint4_linear_2006_76496" x1="105.978" y1="88.1174" x2="171.003" y2="145.18" gradientUnits="userSpaceOnUse">
<stop/>
<stop offset="0.0985371" stop-color="#050505"/>
<stop offset="0.2224" stop-color="#151515"/>
<stop offset="0.36" stop-color="#2F2F2F"/>
<stop offset="0.5074" stop-color="#535353"/>
<stop offset="0.6627" stop-color="#818181"/>
<stop offset="0.8246" stop-color="#B9B9B9"/>
<stop offset="0.9891" stop-color="#FAFAFA"/>
<stop offset="1" stop-color="white"/>
</linearGradient>
<linearGradient id="paint5_linear_2006_76496" x1="108.92" y1="77.0623" x2="135.04" y2="127.963" gradientUnits="userSpaceOnUse">
<stop stop-color="white"/>
<stop offset="0.2597" stop-color="#FFFDFD"/>
<stop offset="0.4008" stop-color="#FDF5F6"/>
<stop offset="0.5135" stop-color="#FBE7EA"/>
<stop offset="0.6111" stop-color="#F8D4DA"/>
<stop offset="0.699" stop-color="#F5BAC4"/>
<stop offset="0.7799" stop-color="#F09BA9"/>
<stop offset="0.8555" stop-color="#EA7789"/>
<stop offset="0.9269" stop-color="#E44C65"/>
<stop offset="0.9925" stop-color="#DD1D3C"/>
<stop offset="1" stop-color="#DC1737"/>
</linearGradient>
<linearGradient id="paint6_linear_2006_76496" x1="76.4941" y1="122.6" x2="103.556" y2="123.711" gradientUnits="userSpaceOnUse">
<stop stop-color="#FD673F"/>
<stop offset="0.356" stop-color="#F14A3C"/>
<stop offset="1" stop-color="#DD1837"/>
</linearGradient>
<linearGradient id="paint7_linear_2006_76496" x1="80.2643" y1="-6.77211" x2="93.5122" y2="133.454" gradientUnits="userSpaceOnUse">
<stop stop-color="white"/>
<stop offset="0.0789383" stop-color="#CECECE"/>
<stop offset="0.1674" stop-color="#9E9E9E"/>
<stop offset="0.2611" stop-color="#737373"/>
<stop offset="0.3584" stop-color="#505050"/>
<stop offset="0.4603" stop-color="#333333"/>
<stop offset="0.5684" stop-color="#1C1C1C"/>
<stop offset="0.6856" stop-color="#0C0C0C"/>
<stop offset="0.8182" stop-color="#030303"/>
<stop offset="1"/>
</linearGradient>
<linearGradient id="paint8_linear_2006_76496" x1="113.632" y1="144.965" x2="68.962" y2="-0.636249" gradientUnits="userSpaceOnUse">
<stop/>
<stop offset="0.1595" stop-color="#353535"/>
<stop offset="0.3903" stop-color="#7C7C7C"/>
<stop offset="0.5982" stop-color="#B4B4B4"/>
<stop offset="0.7754" stop-color="#DDDDDD"/>
<stop offset="0.9152" stop-color="#F6F6F6"/>
<stop offset="1" stop-color="white"/>
</linearGradient>
<linearGradient id="paint9_linear_2006_76496" x1="139.134" y1="77.5997" x2="62.245" y2="77.5997" gradientUnits="userSpaceOnUse">
<stop stop-color="#B7B7BA"/>
<stop offset="0.00892336" stop-color="#B9B9BC"/>
<stop offset="0.1023" stop-color="#CECFD0"/>
<stop offset="0.2052" stop-color="#DCDEDE"/>
<stop offset="0.3249" stop-color="#E4E7E6"/>
<stop offset="0.4995" stop-color="#E7EAE9"/>
<stop offset="0.6833" stop-color="#E5E7E7"/>
<stop offset="0.7936" stop-color="#DDDFDF"/>
<stop offset="0.8845" stop-color="#CFD1D2"/>
<stop offset="0.9643" stop-color="#BCBDC0"/>
<stop offset="1" stop-color="#B1B1B5"/>
</linearGradient>
<linearGradient id="paint10_linear_2006_76496" x1="75.1368" y1="66.879" x2="125.159" y2="66.879" gradientUnits="userSpaceOnUse">
<stop stop-color="#33732C"/>
<stop offset="0.4966" stop-color="#38872E"/>
<stop offset="1" stop-color="#33732C"/>
</linearGradient>
</defs>
</svg>
