<svg width="200" height="200" viewBox="0 0 200 200" fill="none" xmlns="http://www.w3.org/2000/svg">
<path d="M85.1941 180.768C95.3171 183.263 106.558 183.263 116.681 180.768C118.127 180.44 119.244 180.112 119.967 179.784C125.226 177.421 126.475 175.78 127.264 170.857C130.551 150.772 138.176 98.6545 130.288 88.4805C122.4 78.3065 118.193 51.0009 116.878 40.6956C116.615 38.3983 114.643 36.6917 112.342 36.6917H104.257H95.843H87.7577C85.457 36.6917 83.485 38.3983 83.222 40.6956C81.9074 51.0009 77.6346 78.3065 69.8123 88.4805C61.9899 98.6545 69.5493 150.772 72.8361 170.857C73.6249 175.78 76.1228 177.88 80.8556 179.587C81.7102 179.915 83.2878 180.309 85.1941 180.768Z" fill="#E5352C"/>
<path d="M100.97 183C95.5801 183 90.2556 182.344 85.1284 181.097C83.0249 180.572 81.5787 180.178 80.7242 179.915C76.32 178.34 73.362 176.239 72.5074 170.923C68.9578 149.459 61.6613 98.4576 69.4837 88.2836C77.2403 78.2409 81.4473 51.5917 82.8277 40.63C83.1563 38.2014 85.2598 36.3635 87.692 36.3635H112.277C114.709 36.3635 116.812 38.2014 117.141 40.63C118.587 51.5917 122.728 78.2409 130.485 88.218C138.373 98.392 131.011 149.393 127.527 170.857C126.672 175.977 125.292 177.683 120.033 180.046C119.31 180.375 118.258 180.703 116.681 181.097C111.685 182.344 106.295 183 100.97 183ZM85.2598 180.44C95.3829 182.934 106.492 182.934 116.615 180.44C118.127 180.046 119.179 179.718 119.836 179.456C124.898 177.224 126.146 175.714 126.935 170.791C130.419 149.459 137.781 98.6545 130.025 88.6775C122.202 78.5035 117.995 51.7886 116.549 40.7613C116.286 38.6609 114.446 37.0199 112.342 37.0199H87.7577C85.6542 37.0199 83.8137 38.5952 83.5508 40.7613C82.0389 51.7886 77.8319 78.5035 70.0095 88.6775C62.3186 98.6545 69.6151 149.459 73.099 170.791C73.9536 175.846 76.5829 177.749 80.9214 179.259C81.7759 179.587 83.2221 179.981 85.2598 180.44Z" fill="url(#paint0_linear_2006_74488)"/>
<g opacity="0.2" style="mix-blend-mode:overlay">
<path d="M85.1939 180.768C95.317 183.262 106.558 183.262 116.681 180.768C118.127 180.44 119.244 180.112 119.967 179.784C125.226 177.421 126.475 175.78 127.264 170.857C130.55 150.771 138.176 98.6542 130.288 88.4803C122.399 78.3063 118.192 51.0006 116.878 40.6954C116.615 38.398 114.643 36.6914 112.342 36.6914H104.257H100.379C100.379 36.6914 106.558 42.3363 102.153 43.7804C97.7491 45.2244 114.971 101.936 106.229 113.489C97.4862 125.041 108.135 179.652 78.8177 178.733C79.4751 179.062 80.1324 179.324 80.9212 179.587C81.71 179.915 83.2876 180.309 85.1939 180.768Z" fill="#B72825"/>
</g>
<path d="M100.05 19.7568C107.855 19.7568 114.183 19.1397 114.183 18.3784C114.183 17.6171 107.855 17 100.05 17C92.2446 17 85.9171 17.6171 85.9171 18.3784C85.9171 19.1397 92.2446 19.7568 100.05 19.7568Z" fill="#E5352C"/>
<path d="M100.05 39.8424C108.255 39.8424 114.906 37.844 114.906 35.379C114.906 32.9139 108.255 30.9155 100.05 30.9155C91.8452 30.9155 85.194 32.9139 85.194 35.379C85.194 37.844 91.8452 39.8424 100.05 39.8424Z" fill="url(#paint1_linear_2006_74488)"/>
<path d="M100.05 37.7421C109.634 37.7421 117.404 36.5666 117.404 35.1165C117.404 33.6665 109.634 32.491 100.05 32.491C90.4657 32.491 82.6961 33.6665 82.6961 35.1165C82.6961 36.5666 90.4657 37.7421 100.05 37.7421Z" fill="#E5352C"/>
<path d="M85.8515 18.3784L84.6025 18.9035C83.4193 19.4286 82.6305 20.6101 82.6305 21.9229V35.1819H117.404V21.9229C117.404 20.6101 116.615 19.4286 115.432 18.9035L114.183 18.3784H85.8515Z" fill="#E5352C"/>
<g opacity="0.2" style="mix-blend-mode:overlay">
<path d="M88.0205 20.5445C92.8191 21.3978 101.693 22.448 111.29 20.6101C113.197 20.2163 114.972 21.726 114.972 23.6295V34.7881C114.972 34.7881 100.247 38.7264 84.4052 34.7881V23.5639C84.4052 21.6603 86.18 20.2163 88.0205 20.5445Z" fill="url(#paint2_linear_2006_74488)"/>
</g>
<g opacity="0.2" style="mix-blend-mode:overlay">
<path d="M90.0585 43.1241C94.134 43.7149 101.102 44.1743 110.436 42.9928C112.803 42.6646 114.972 44.4369 115.169 46.7999C115.761 54.4139 117.798 70.561 124.175 86.6425C125.095 89.0055 123.78 91.6967 121.348 92.353C113.065 94.5191 95.1201 97.998 79.2124 92.8125C76.846 92.0249 74.2166 88.3491 75.1369 86.0517C77.2404 81.0632 82.1047 71.0205 85.2599 46.7999C85.5886 44.4369 87.7578 42.7959 90.0585 43.1241Z" fill="url(#paint3_linear_2006_74488)"/>
</g>
<g opacity="0.2" style="mix-blend-mode:overlay">
<path d="M76.1227 100.098C85.9171 103.118 104.257 106.793 123.386 100.361C127.067 99.1137 130.945 101.805 130.879 105.743C130.813 119.133 129.959 146.242 124.897 169.741C124.437 171.776 122.925 173.482 120.888 174.073C113.657 176.173 95.5143 180.177 79.4094 174.073C77.766 173.482 76.5171 172.104 75.9912 170.397C74.0192 163.833 69.4178 144.339 68.6947 105.612C68.6947 101.739 72.4416 98.9824 76.1227 100.098Z" fill="url(#paint4_linear_2006_74488)"/>
</g>
<g opacity="0.2" style="mix-blend-mode:overlay">
<path d="M86.1142 38.595C86.1142 38.595 88.3492 41.0892 100.313 40.4329C100.313 40.4329 94.7254 41.68 94.3967 43.5835C93.8051 46.6685 83.8135 93.9939 87.6918 97.3415C91.5701 100.755 96.8946 103.84 98.9324 103.84C98.9324 103.84 80.6583 104.234 70.2723 96.16C70.2723 96.16 74.4135 95.7662 76.3856 94.1909C78.3576 92.6155 87.6918 43.4522 87.2974 41.6143C86.8373 39.8421 86.1142 38.595 86.1142 38.595Z" fill="url(#paint5_linear_2006_74488)"/>
</g>
<g style="mix-blend-mode:overlay" opacity="0.2">
<path opacity="0.21" d="M87.692 141.188C99.8528 110.404 103.863 108.828 116.286 102.265C122.728 98.8514 125.226 89.2682 126.146 80.8664C123.32 74.04 121.085 65.1132 119.573 57.1709C119.376 70.5612 117.798 100.295 108.661 103.38C96.8291 107.319 92.2934 115.852 85.1941 129.702C79.2781 141.254 76.2543 150.837 69.7466 150.181C70.3382 154.71 70.9956 158.976 71.5214 162.783C76.4515 160.552 82.3018 154.775 87.692 141.188Z" fill="url(#paint6_linear_2006_74488)"/>
<path opacity="0.21" d="M95.7115 142.633C107.872 111.848 105.046 112.504 117.404 106.006C122.005 103.578 126.738 96.8168 130.813 89.2683C130.616 89.0058 130.485 88.6776 130.288 88.4807C129.236 87.1023 128.184 85.3957 127.264 83.4265C125.292 93.5349 122.071 102.856 117.009 104.497C105.177 108.435 99.6555 120.315 95.7115 132.852C92.359 143.486 81.6444 160.88 72.3101 167.51C72.5073 168.691 72.7045 169.741 72.836 170.791C73.0989 172.236 73.4933 173.483 74.0192 174.467C81.1185 168.035 89.7296 157.861 95.7115 142.633Z" fill="url(#paint7_linear_2006_74488)"/>
</g>
<g opacity="0.2" style="mix-blend-mode:overlay">
<path d="M84.4052 32.2935L84.0766 24.4825C84.0108 22.3165 85.7199 20.5442 87.8891 20.5442C89.8612 20.5442 92.0304 20.5442 93.2136 20.5442C95.7115 20.4786 105.703 20.8068 107.938 19.1658C107.938 19.1658 92.9507 19.9535 94.594 17.7217C94.594 17.7217 87.4947 17.3936 86.5087 18.9689C86.5087 18.9689 84.208 19.1002 83.4192 20.5442C82.6304 21.9226 84.4052 32.2935 84.4052 32.2935Z" fill="url(#paint8_linear_2006_74488)"/>
</g>
<g opacity="0.2" style="mix-blend-mode:overlay">
<path d="M116.089 25.927V31.7688C116.089 33.6724 114.643 35.3133 112.737 35.5759L104.257 36.6917C104.257 36.6917 113.131 34.0662 116.089 25.927Z" fill="url(#paint9_linear_2006_74488)"/>
</g>
<path d="M117.404 30.2593C117.404 30.6531 117.01 30.9157 116.681 31.1126C116.352 31.3095 116.024 31.4408 115.629 31.572C114.906 31.8346 114.183 32.0315 113.46 32.2284C112.014 32.5566 110.502 32.7535 108.99 32.9505C106.032 33.2787 103.008 33.4099 99.9844 33.4756C96.9607 33.4099 94.0026 33.3443 90.9789 32.9505C89.467 32.7535 88.0208 32.5566 86.5089 32.2284C85.7859 32.0315 85.0628 31.8346 84.3397 31.572C84.0111 31.4408 83.6166 31.3095 83.288 31.1126C82.9593 30.9157 82.5649 30.6531 82.5649 30.2593C82.6306 30.6531 83.025 30.7844 83.3537 30.9813C83.6824 31.1126 84.0768 31.2439 84.4055 31.3095C85.1285 31.5064 85.8516 31.6377 86.5747 31.7033C88.0208 31.9002 89.5327 32.0315 90.9789 32.1628C93.9369 32.3597 96.8949 32.491 99.9187 32.4254C102.877 32.491 105.901 32.3597 108.859 32.1628C110.37 32.0972 111.817 31.9659 113.263 31.7033C113.986 31.572 114.709 31.5064 115.432 31.3095C115.761 31.2439 116.155 31.1126 116.484 30.9813C116.944 30.85 117.338 30.6531 117.404 30.2593Z" fill="url(#paint10_linear_2006_74488)"/>
<path d="M94.2654 32.8845C94.2654 32.8845 95.5801 33.6722 96.106 34.5255C96.3689 34.985 96.8948 35.2475 97.4206 35.2475H102.351C102.942 35.2475 103.534 34.9193 103.797 34.3286C104.06 33.8035 104.586 32.9502 105.769 32.8845H94.2654Z" fill="url(#paint11_linear_2006_74488)"/>
<path d="M100.247 145.521C99.5898 146.243 98.801 146.833 97.9464 147.227C98.1436 147.752 98.3408 148.277 98.6037 148.868C98.801 148.934 98.9982 149.131 98.9982 149.328C99.0639 149.656 99.1296 149.918 99.1296 150.246C99.3268 151.559 96.6975 152.216 96.1716 151.034C95.7114 149.984 95.317 148.934 94.9226 147.883C94.594 147.818 94.331 147.621 94.2653 147.293C94.1996 147.03 94.331 146.702 94.4625 146.505C94.2653 145.849 94.0024 145.258 93.8052 144.602C93.608 144.076 93.4765 143.486 93.2793 142.961C93.1478 142.435 92.9506 141.91 92.9506 141.32C93.0821 139.941 94.9226 139.219 96.1059 139.613C96.7632 139.81 96.8947 140.401 96.4345 140.86C96.3031 140.991 96.1059 141.123 95.9087 141.254C95.9087 141.385 95.9744 141.582 96.0401 141.713C96.1716 142.173 96.3031 142.567 96.4345 143.026C96.6317 143.748 96.8947 144.47 97.0919 145.127C97.2233 145.061 97.2891 144.995 97.4205 144.864C97.4205 144.864 97.4863 144.798 97.552 144.733C97.6177 144.667 97.6835 144.602 97.7492 144.536C97.9464 144.339 98.0779 144.142 98.2093 143.945C98.2093 143.88 98.2751 143.88 98.2751 143.814C98.2751 143.814 98.2751 143.814 98.2751 143.88C98.1436 144.076 98.2093 143.945 98.2751 143.88C98.3408 143.748 98.4065 143.683 98.4723 143.551C98.6038 143.354 98.6695 143.092 98.801 142.829C98.801 142.764 98.8667 142.698 98.9324 142.632C98.538 141.582 98.2751 140.532 98.1436 139.416C98.0121 138.366 99.7212 137.906 100.51 138.169C100.839 138.235 101.102 138.432 101.365 138.628C101.89 131.999 102.351 125.763 103.337 120.906C103.205 120.972 103.074 120.972 102.942 121.037C102.614 121.103 102.219 121.169 101.89 121.169C101.759 121.169 101.43 121.103 101.365 120.972C101.167 120.447 101.496 119.921 101.89 119.593C102.351 119.199 102.876 118.937 103.402 118.674C103.6 118.477 103.797 118.346 103.994 118.28C104.52 116.311 105.243 114.67 106.097 113.489C106.097 113.489 106.097 113.423 106.163 113.423C102.219 113.358 99.2611 114.605 99.2611 114.605C99.6555 113.226 104.388 111.782 107.412 111.06C107.478 110.798 107.544 110.601 107.675 110.338C100.576 110.141 95.6457 113.686 95.6457 113.686C95.1198 111.323 101.628 106.4 101.628 106.4C94.1338 106.466 89.5982 115.721 89.5982 115.721C84.7339 114.473 85.7199 106.4 85.7199 106.4H82.8276C81.3814 110.863 87.6919 116.968 87.6919 116.968C83.6164 114.605 75.5968 116.64 75.5968 116.64C81.3814 116.64 84.4709 119.331 84.4709 119.331C76.5828 117.755 70.7982 125.435 70.7982 125.435C75.3339 120.84 81.2499 122.022 81.2499 122.022C77.9632 126.091 70.7982 128.848 70.7982 128.848C76.9115 129.242 82.8276 124.516 84.3394 123.138C84.6024 122.875 84.7339 122.81 84.7339 122.81C84.7339 122.81 84.6024 122.941 84.3394 123.138C82.4332 124.91 74.1507 133.377 77.1744 143.88C80.2639 154.776 89.5982 158.254 98.801 158.189C99.6555 154.382 100.247 150.312 100.707 146.177C100.576 146.046 100.444 145.783 100.247 145.521ZM92.6219 124.254C93.8052 122.481 95.8429 121.3 97.9464 121.234C98.4723 121.234 99.1296 121.365 99.3268 121.956C99.3926 122.284 99.4583 122.547 99.5898 122.875C99.787 123.597 98.9982 124.122 98.4065 124.319C97.8149 124.516 96.8289 124.385 96.6317 123.663C96.566 123.728 96.4345 123.728 96.3688 123.794C96.3688 123.794 96.3688 123.794 96.3031 123.794C96.2373 123.86 96.1059 123.925 96.0401 123.991C95.9744 124.057 95.9086 124.122 95.7772 124.188L95.7114 124.254C95.58 124.451 95.3828 124.647 95.2513 124.779C95.2513 124.779 95.2513 124.844 95.1856 124.844C95.1198 124.976 95.0541 125.041 94.9884 125.173C94.9226 125.369 94.8569 125.501 94.7912 125.698C94.7912 125.829 94.7254 125.96 94.7254 126.091C94.7254 126.223 94.6597 126.42 94.5282 126.551C95.5142 125.763 96.6975 125.173 97.9464 124.779C98.6037 124.582 99.4583 124.779 99.7212 125.435C99.787 125.698 99.6555 126.091 99.524 126.288C99.2611 126.551 98.9324 126.813 98.538 126.879C98.4065 126.945 98.2751 126.945 98.1436 127.01C97.8149 127.142 97.4863 127.339 97.1576 127.536C96.8289 127.798 96.4345 128.061 96.1716 128.323C96.0401 128.454 95.9087 128.586 95.8429 128.717C95.6457 128.98 95.317 129.111 95.0541 129.242C95.2513 129.702 95.5142 130.161 95.7772 130.555C96.0401 130.949 96.3688 131.408 96.6975 131.736C97.4205 131.014 98.0779 130.227 98.7352 129.439C99.1954 128.848 99.9184 128.586 100.642 128.586C101.102 128.586 101.89 128.98 101.496 129.57C100.97 130.227 100.379 130.883 99.8527 131.539C99.3268 132.13 98.7352 132.852 98.0779 133.312C97.1576 133.902 95.8429 134.099 94.7912 133.574C94.1338 133.246 93.608 132.59 93.2136 131.999C92.359 130.817 91.7674 129.439 91.5045 127.995C91.373 127.273 91.3073 126.485 91.3073 125.763C91.1758 124.976 91.8331 124.516 92.6219 124.254ZM83.8136 127.667C84.2737 127.536 85.2597 127.404 85.4569 127.995C85.7199 128.717 85.9828 129.439 86.2457 130.161C86.3772 129.242 86.4429 128.258 86.3772 127.339C86.3772 126.879 87.4289 126.617 87.7576 126.551C87.9548 126.485 89.3352 126.157 89.3352 126.551C89.401 127.667 89.3352 128.783 89.138 129.833C88.9408 130.883 88.6779 131.802 88.3492 132.852C88.2178 133.377 88.5464 133.509 89.0066 133.706C89.4667 133.902 89.9268 134.099 90.4527 134.231C91.4387 134.493 92.4247 134.624 93.4108 134.69C93.5422 134.69 93.8709 134.69 93.9366 134.887C94.0024 135.084 93.6737 135.215 93.608 135.281C93.0163 135.675 92.2275 135.872 91.5045 135.806C90.387 135.806 89.2695 135.675 88.152 135.347C88.3492 135.806 88.4807 136.265 88.6779 136.725C88.9408 136.791 89.2038 136.987 89.138 137.316C89.138 137.578 89.0723 137.841 89.0723 138.038C89.0066 138.628 88.0206 138.891 87.6262 139.022C87.166 139.088 86.3772 139.154 86.18 138.628C84.9968 135.347 83.7478 132.065 82.5646 128.783C82.3017 128.192 83.4192 127.732 83.8136 127.667ZM91.1101 154.644C89.0723 154.972 87.2317 153.988 86.0485 152.347C84.9311 150.772 84.4709 148.934 84.5367 147.03C84.6024 145.98 84.7996 144.93 85.1283 143.945C85.4569 143.026 85.8513 142.107 86.7059 141.582C87.6919 140.991 89.2038 140.795 90.1241 141.648C90.8471 142.304 91.373 143.223 91.7674 144.076C92.1618 144.93 89.2695 145.849 88.8094 144.864C88.6122 144.536 88.415 144.011 88.0863 143.551C88.0206 143.748 87.9548 143.945 87.8891 144.142C87.6919 144.93 87.4947 145.717 87.4947 146.505C87.429 147.949 87.6919 149.524 88.415 150.772C88.7436 151.362 89.2038 151.953 89.7296 152.347C90.0583 152.609 90.7157 153.135 91.2415 153.135C91.2415 153.135 91.3073 153.069 91.373 153.003C91.6359 152.806 91.7674 152.544 91.9646 152.281C92.2933 151.625 92.4247 150.903 92.4247 150.115C92.4247 149.524 93.6737 149.196 94.1338 149.131C94.594 149.065 95.3828 149.065 95.3828 149.721C95.3828 152.281 93.608 154.25 91.1101 154.644Z" fill="#F9E8D4"/>
<path d="M109.845 110.469C109.121 110.338 108.333 110.338 107.675 110.338C107.61 110.601 107.544 110.798 107.412 111.06C108.859 110.666 109.845 110.469 109.845 110.469Z" fill="#E2B9AF"/>
<path d="M117.141 131.605C116.483 131.342 116.089 131.342 115.497 131.408C115.497 131.408 115.497 131.408 115.432 131.408C115.366 131.408 115.235 131.474 115.169 131.474C115.103 131.474 115.037 131.539 114.972 131.539C114.972 131.539 114.906 131.539 114.84 131.605C114.446 131.802 114.511 131.736 114.183 131.999C113.986 132.13 113.854 132.261 113.657 132.393C113.657 132.393 113.657 132.458 113.723 132.458C114.117 134.624 114.774 136.79 115.497 138.825C115.826 138.628 116.089 138.431 116.352 138.169C116.878 137.775 117.404 137.25 117.798 136.659C118.587 135.543 118.916 134.099 118.39 132.852C118.258 132.327 117.732 131.868 117.141 131.605Z" fill="#E2B9AF"/>
<path d="M121.019 123.335C117.01 115.392 110.962 113.489 106.229 113.423C106.229 113.423 106.229 113.489 106.163 113.489C105.243 114.67 104.586 116.311 104.06 118.28C104.191 118.215 104.323 118.149 104.454 118.149C104.52 118.149 104.717 118.083 104.914 118.083C105.835 117.69 106.755 117.361 107.741 117.099C108.07 116.968 108.464 116.968 108.793 116.968C108.924 116.968 109.253 116.968 109.319 117.165C109.384 117.361 109.056 117.558 108.99 117.624C108.661 117.821 108.333 117.952 108.004 118.018C107.872 118.083 107.741 118.083 107.675 118.149C108.135 118.018 107.741 118.149 107.61 118.149C107.347 118.215 107.149 118.28 106.886 118.412C106.624 118.477 106.426 118.609 106.163 118.674C106.558 122.678 107.478 126.551 108.99 130.292C109.187 130.883 108.07 131.342 107.741 131.408C107.281 131.539 106.295 131.671 106.098 131.08C104.783 127.798 103.928 124.45 103.468 120.972C102.482 125.829 102.088 132.064 101.496 138.694C101.759 138.891 101.956 139.219 102.022 139.547C102.219 140.204 102.022 140.86 101.825 141.516C102.482 143.42 103.468 145.258 104.454 147.03C104.914 147.096 105.309 147.293 105.243 147.818C105.177 148.671 104.06 149.13 103.337 149.196C102.942 149.262 102.351 149.196 102.022 148.868C101.825 148.671 101.759 148.408 101.628 148.212C101.299 147.621 100.97 147.03 100.642 146.505C100.182 150.575 99.59 154.71 98.7354 158.517C102.548 158.517 106.295 157.86 109.582 156.876C120.954 153.331 128.316 137.972 121.019 123.335ZM110.896 144.601C110.107 145.258 108.793 145.652 107.741 145.586C107.018 145.586 106.361 145.258 105.835 144.798C104.849 143.879 104.126 142.567 103.666 141.319C103.205 139.941 103.008 138.563 103.14 137.119C103.205 136.265 106.098 136.003 106.098 136.331C105.966 137.906 106.163 139.416 106.755 140.86C107.149 141.845 107.741 143.092 108.661 143.879C108.661 143.814 108.727 143.748 108.727 143.682C108.858 142.829 108.858 141.91 108.727 141.057C108.464 139.35 107.741 137.775 107.084 136.2C106.886 135.806 108.267 135.412 108.464 135.346C108.793 135.281 109.845 134.953 110.042 135.412C110.765 137.053 111.488 138.76 111.751 140.597C111.882 141.845 111.948 143.682 110.896 144.601ZM118.39 139.219C117.733 139.744 117.01 140.269 116.286 140.663C116.747 141.713 117.207 142.764 117.798 143.814C118.193 144.536 115.366 145.52 114.84 144.601C113.065 141.385 111.817 137.906 111.093 134.296H111.028C110.502 134.296 109.845 133.902 110.173 133.312C111.225 131.605 113.065 130.358 114.972 129.898C116.812 129.439 118.916 129.57 120.362 130.817C121.611 131.802 121.874 133.574 121.545 135.018C121.085 136.725 119.77 138.103 118.39 139.219Z" fill="#E2B9AF"/>
<path d="M101.891 119.593C101.496 119.921 101.168 120.446 101.365 120.971C101.431 121.168 101.759 121.168 101.891 121.168C102.219 121.168 102.614 121.103 102.942 121.037C103.074 120.971 103.205 120.971 103.337 120.906C103.534 119.987 103.731 119.068 103.994 118.215C103.797 118.28 103.534 118.412 103.403 118.608C102.877 118.937 102.351 119.199 101.891 119.593Z" fill="#AF1D00"/>
<g opacity="0.2" style="mix-blend-mode:overlay">
<path d="M130.616 117.23L126.081 165.081C125.029 171.71 120.033 176.764 113.526 178.602C113.394 178.668 113.263 178.668 113.065 178.734C92.7536 184.182 75.334 163.374 83.8795 144.208C91.0445 128.192 104.52 112.504 130.616 117.23Z" fill="url(#paint12_linear_2006_74488)"/>
</g>
<defs>
<linearGradient id="paint0_linear_2006_74488" x1="100.032" y1="36.3701" x2="100.032" y2="182.973" gradientUnits="userSpaceOnUse">
<stop stop-color="#AD343C"/>
<stop offset="0.5639" stop-color="#CB3533"/>
<stop offset="1" stop-color="#E5352C"/>
</linearGradient>
<linearGradient id="paint1_linear_2006_74488" x1="100.032" y1="39.8738" x2="100.032" y2="30.9223" gradientUnits="userSpaceOnUse">
<stop stop-color="#950000"/>
<stop offset="0.245" stop-color="#950000"/>
</linearGradient>
<linearGradient id="paint2_linear_2006_74488" x1="99.6845" y1="36.4924" x2="99.6845" y2="20.4894" gradientUnits="userSpaceOnUse">
<stop offset="0.1618" stop-color="#E5352C"/>
<stop offset="1" stop-color="#950000"/>
</linearGradient>
<linearGradient id="paint3_linear_2006_74488" x1="99.7686" y1="95.5368" x2="99.7686" y2="42.9642" gradientUnits="userSpaceOnUse">
<stop offset="0.3762" stop-color="white"/>
<stop offset="1" stop-color="#950000"/>
</linearGradient>
<linearGradient id="paint4_linear_2006_74488" x1="99.8236" y1="177.298" x2="99.8236" y2="99.8466" gradientUnits="userSpaceOnUse">
<stop offset="0.3762" stop-color="white"/>
<stop offset="1" stop-color="#950000"/>
</linearGradient>
<linearGradient id="paint5_linear_2006_74488" x1="85.3142" y1="135.919" x2="85.3142" y2="38.1793" gradientUnits="userSpaceOnUse">
<stop offset="0.3862"/>
<stop offset="0.4387" stop-color="#0A0902"/>
<stop offset="0.5292" stop-color="#262109"/>
<stop offset="0.6468" stop-color="#544813"/>
<stop offset="0.787" stop-color="#927F22"/>
<stop offset="0.9446" stop-color="#E1C334"/>
<stop offset="1" stop-color="#FFDD3B"/>
</linearGradient>
<linearGradient id="paint6_linear_2006_74488" x1="69.7382" y1="109.941" x2="126.145" y2="109.941" gradientUnits="userSpaceOnUse">
<stop stop-color="#FFDD3B"/>
<stop offset="0.0508049" stop-color="#F5D439"/>
<stop offset="0.1384" stop-color="#D9BC32"/>
<stop offset="0.2523" stop-color="#AB9528"/>
<stop offset="0.388" stop-color="#6D5E19"/>
<stop offset="0.5405" stop-color="#1E1A07"/>
<stop offset="0.5941"/>
<stop offset="0.6288" stop-color="#0A0902"/>
<stop offset="0.6887" stop-color="#262109"/>
<stop offset="0.7665" stop-color="#544813"/>
<stop offset="0.8592" stop-color="#927F22"/>
<stop offset="0.9634" stop-color="#E1C334"/>
<stop offset="1" stop-color="#FFDD3B"/>
</linearGradient>
<linearGradient id="paint7_linear_2006_74488" x1="72.2862" y1="128.979" x2="130.833" y2="128.979" gradientUnits="userSpaceOnUse">
<stop stop-color="#FFDD3B"/>
<stop offset="0.0508049" stop-color="#F5D439"/>
<stop offset="0.1384" stop-color="#D9BC32"/>
<stop offset="0.2523" stop-color="#AB9528"/>
<stop offset="0.388" stop-color="#6D5E19"/>
<stop offset="0.5405" stop-color="#1E1A07"/>
<stop offset="0.5941"/>
<stop offset="0.6288" stop-color="#0A0902"/>
<stop offset="0.6887" stop-color="#262109"/>
<stop offset="0.7665" stop-color="#544813"/>
<stop offset="0.8592" stop-color="#927F22"/>
<stop offset="0.9634" stop-color="#E1C334"/>
<stop offset="1" stop-color="#FFDD3B"/>
</linearGradient>
<linearGradient id="paint8_linear_2006_74488" x1="95.5948" y1="32.298" x2="95.5948" y2="17.6285" gradientUnits="userSpaceOnUse">
<stop offset="0.3862"/>
<stop offset="0.4387" stop-color="#0A0902"/>
<stop offset="0.5292" stop-color="#262109"/>
<stop offset="0.6468" stop-color="#544813"/>
<stop offset="0.787" stop-color="#927F22"/>
<stop offset="0.9446" stop-color="#E1C334"/>
<stop offset="1" stop-color="#FFDD3B"/>
</linearGradient>
<linearGradient id="paint9_linear_2006_74488" x1="109.324" y1="29.8292" x2="112.818" y2="35.8894" gradientUnits="userSpaceOnUse">
<stop offset="0.3862"/>
<stop offset="0.4387" stop-color="#0A0902"/>
<stop offset="0.5292" stop-color="#262109"/>
<stop offset="0.6468" stop-color="#544813"/>
<stop offset="0.787" stop-color="#927F22"/>
<stop offset="0.9446" stop-color="#E1C334"/>
<stop offset="1" stop-color="#FFDD3B"/>
</linearGradient>
<linearGradient id="paint10_linear_2006_74488" x1="82.164" y1="31.8385" x2="117.899" y2="31.8385" gradientUnits="userSpaceOnUse">
<stop stop-color="#950000"/>
<stop offset="1" stop-color="#950000"/>
</linearGradient>
<linearGradient id="paint11_linear_2006_74488" x1="94.2677" y1="34.0881" x2="105.796" y2="34.0881" gradientUnits="userSpaceOnUse">
<stop stop-color="#950000"/>
<stop offset="1" stop-color="#950000"/>
</linearGradient>
<linearGradient id="paint12_linear_2006_74488" x1="97.5627" y1="124.239" x2="125.34" y2="172.421" gradientUnits="userSpaceOnUse">
<stop offset="0.25" stop-color="white"/>
<stop offset="1" stop-color="#950000"/>
</linearGradient>
</defs>
</svg>
