<svg width="200" height="200" viewBox="0 0 200 200" fill="none" xmlns="http://www.w3.org/2000/svg">
<path d="M52 167.094C52 167.094 52 62.8117 52 62.6628C52.118 56.3183 54.8036 50.2418 59.4368 45.6845L69.3525 35.8848H129.142L139.677 45.3866C144.812 50.0035 147.852 56.4076 148 63.1692C148 63.3479 148 167.124 148 167.124C148 174.034 148.619 183 100.044 183C57.5776 182.97 52 174.005 52 167.094Z" fill="#BF0230"/>
<path d="M52 165.337C52 165.337 52 61.0542 52 60.9052C52.118 54.5607 54.8036 48.4843 59.4368 43.927L69.3525 34.1272H129.142L139.677 43.6291C144.812 48.246 147.852 54.6501 148 61.4116C148 61.5903 148 165.366 148 165.366C148 172.277 148.619 181.243 100.044 181.243C57.5776 181.213 52 172.247 52 165.337Z" fill="url(#paint0_linear_2006_76523)"/>
<g opacity="0.4" style="mix-blend-mode:overlay">
<path d="M146.642 111.125C144.458 171.353 155.023 175.166 122.148 178.234C113.649 179.038 105.917 178.234 94.2894 178.234C114.623 170.549 139.323 142.252 146.642 111.125Z" fill="#C20430"/>
</g>
<path d="M69.2936 33.2038V29.9868H129.083V33.2038C129.083 34.3059 128.198 35.1994 127.106 35.1994H71.2708C70.1789 35.1994 69.2936 34.3059 69.2936 33.2038Z" fill="#C20430"/>
<path d="M129.083 29.0337H69.2936V34.2165H129.083V29.0337Z" fill="url(#paint1_linear_2006_76523)"/>
<g opacity="0.4" style="mix-blend-mode:overlay">
<path d="M54.2429 161.285V62.3348C54.2724 54.1435 59.673 44.4927 69.2936 37.8801H92.8434C86.0559 49.616 86.8822 60.3689 86.9117 68.173L88.0331 178.591C88.0331 178.591 74.6056 177.549 69.2936 176.477C55.8365 173.796 54.2429 167.958 54.2429 161.285Z" fill="url(#paint2_linear_2006_76523)"/>
</g>
<g opacity="0.4" style="mix-blend-mode:overlay">
<path d="M146.554 160.75V61.7989C145.078 46.1015 134.897 41.9612 129.083 37.106L120.849 37.2847C125.365 49.0205 124.45 59.833 124.42 67.6371V178.056C124.42 178.056 132.978 177.013 136.52 175.941C145.491 173.23 146.554 167.422 146.554 160.75Z" fill="url(#paint3_linear_2006_76523)"/>
</g>
<g opacity="0.4" style="mix-blend-mode:overlay">
<path d="M56.3087 52.4758C71.2118 51.6715 86.1444 51.1056 101.077 50.7184C115.833 50.3609 130.795 50.212 145.137 53.7566C115.774 52.446 86.3215 52.297 56.3087 52.4758Z" fill="url(#paint4_linear_2006_76523)"/>
</g>
<g opacity="0.4" style="mix-blend-mode:overlay">
<path d="M127.224 29.1528H120.613V33.7399H127.224V29.1528Z" fill="url(#paint5_linear_2006_76523)"/>
</g>
<g opacity="0.4" style="mix-blend-mode:overlay">
<path d="M95.6763 29.3315H69.9722V33.9187H95.6763V29.3315Z" fill="url(#paint6_linear_2006_76523)"/>
</g>
<path d="M66.8441 29.7189V26.5616C66.8441 26.0254 67.2868 25.5786 67.818 25.5786H130.588C131.119 25.5786 131.562 26.0254 131.562 26.5616V29.7189C131.562 30.2551 131.119 30.7019 130.588 30.7019H67.818C67.2868 30.6721 66.8441 30.2551 66.8441 29.7189Z" fill="url(#paint7_linear_2006_76523)"/>
<path d="M67.5818 25.1615V22.9871C67.5818 22.6594 67.8474 22.4211 68.1425 22.4211H130.411C130.736 22.4211 130.972 22.6892 130.972 22.9871V25.1615C130.972 25.4892 130.706 25.7274 130.411 25.7274H68.1425C67.8179 25.7274 67.5818 25.4594 67.5818 25.1615Z" fill="url(#paint8_linear_2006_76523)"/>
<g opacity="0.4" style="mix-blend-mode:overlay">
<path d="M129.614 25.8169H118.666V30.404H129.614V25.8169Z" fill="url(#paint9_linear_2006_76523)"/>
</g>
<g opacity="0.4" style="mix-blend-mode:overlay">
<path d="M129.142 22.302H120.908V25.4594H129.142V22.302Z" fill="url(#paint10_linear_2006_76523)"/>
</g>
<path d="M65.8998 22.3318V18.8766C65.8998 17.834 66.7261 17 67.759 17H130.647C131.68 17 132.506 17.834 132.506 18.8766V22.3318C132.506 22.4807 132.388 22.5999 132.241 22.5999H66.1654C66.0178 22.5999 65.8998 22.4807 65.8998 22.3318Z" fill="url(#paint11_linear_2006_76523)"/>
<g opacity="0.4" style="mix-blend-mode:overlay">
<path d="M103.408 17.9829H70.8281V21.736H103.408V17.9829Z" fill="url(#paint12_linear_2006_76523)"/>
</g>
<g opacity="0.4" style="mix-blend-mode:overlay">
<path d="M96.6798 25.8169H68.3491V30.404H96.6798V25.8169Z" fill="url(#paint13_linear_2006_76523)"/>
</g>
<g opacity="0.4" style="mix-blend-mode:overlay">
<path d="M95.9716 22.5999H69.2936V25.5785H95.9716V22.5999Z" fill="url(#paint14_linear_2006_76523)"/>
</g>
<g opacity="0.4" style="mix-blend-mode:overlay">
<path d="M120.613 21.6767V17.9236H130.145C130.824 17.9236 131.385 18.4895 131.385 19.1746V21.498C131.385 21.5873 131.296 21.6767 131.208 21.6767H120.613Z" fill="url(#paint15_linear_2006_76523)"/>
</g>
<path d="M52 155.835V72.9688C52 72.9688 59.2597 76.3942 98.539 76.3942C139.205 76.3942 148 74.6666 148 74.6666V155.805C148 155.805 132.565 161.703 99.9851 161.703C66.549 161.732 52 155.835 52 155.835Z" fill="#BF0031"/>
<path d="M52 153.779V72.9688C52 72.9688 59.2597 76.3048 98.539 76.3048C139.205 76.3048 148 74.6368 148 74.6368V153.779C148 153.779 132.565 159.528 99.9851 159.528C66.549 159.528 52 153.779 52 153.779Z" fill="url(#paint16_linear_2006_76523)"/>
<path d="M53.9182 153.571V74.7261C53.9182 74.7261 63.3913 76.3048 68.5557 76.692C81.216 77.6154 87.2953 77.3175 87.2953 77.3175V158.307C87.2953 158.307 76.4057 157.92 69.5296 156.967C65.4571 156.43 53.9182 153.571 53.9182 153.571Z" fill="url(#paint17_linear_2006_76523)"/>
<path d="M146.613 153.333V76.0667C146.613 76.0667 140.504 76.573 136.933 76.7518C127.903 77.1986 124.568 76.9305 124.568 76.9305V157.652C124.568 157.652 131.768 156.996 136.49 156.014C143.425 154.554 146.613 153.333 146.613 153.333Z" fill="url(#paint18_linear_2006_76523)"/>
<g opacity="0.4" style="mix-blend-mode:overlay">
<path d="M67.1096 27.6038C67.1391 27.0081 67.0211 26.323 67.5227 26.0251C67.9064 25.7868 68.3786 25.8166 68.8212 25.8166H81.2159C81.7176 25.8166 81.6586 26.2634 81.1569 26.2932L70.6509 26.5315C69.8836 26.5613 69.0278 26.6209 68.5556 27.2166C68.3786 27.4251 68.29 27.6932 68.1425 27.9315C67.9949 28.14 67.0506 29.0336 67.1096 27.6038Z" fill="url(#paint19_linear_2006_76523)"/>
</g>
<g opacity="0.4" style="mix-blend-mode:overlay">
<path d="M71.5069 30.6124C71.0348 30.4337 70.5036 30.5826 70.0019 30.5826C69.6477 30.5826 69.4412 30.6719 69.4412 31.1783C69.4412 31.3273 69.4707 31.506 69.5887 31.5655C69.6773 31.5953 69.6773 31.5953 71.3004 31.2677C71.4184 31.2379 71.566 31.2081 71.6545 31.1188C71.7725 31.0294 71.8611 30.7315 71.5069 30.6124Z" fill="url(#paint20_linear_2006_76523)"/>
</g>
<g opacity="0.4" style="mix-blend-mode:overlay">
<path d="M120.761 25.7275C113.796 25.936 106.714 25.7275 99.749 25.8467C98.2734 25.8765 98.5685 26.8594 99.4834 26.8594C106.389 26.8594 113.295 26.9786 120.2 26.919C120.466 26.919 120.731 26.919 120.967 26.7999C121.204 26.7105 121.41 26.4722 121.41 26.2041C121.41 25.936 121.115 25.7275 120.761 25.7275Z" fill="url(#paint21_linear_2006_76523)"/>
</g>
<g opacity="0.2" style="mix-blend-mode:overlay">
<path d="M107.983 177.638C94.0533 178.621 79.9765 177.847 66.2243 175.315C65.8112 175.255 65.3685 175.166 65.0439 175.434C64.6012 175.762 64.7193 176.506 65.1029 176.894C65.4865 177.281 66.0768 177.4 66.608 177.519C79.9765 180.081 93.6106 181.272 107.215 180.557C107.894 180.528 108.632 180.468 109.222 180.14C109.842 179.813 110.284 179.098 110.137 178.413C109.989 177.728 109.045 177.579 107.983 177.638Z" fill="url(#paint22_linear_2006_76523)"/>
</g>
<g opacity="0.4" style="mix-blend-mode:overlay">
<path d="M72.5102 37.4038C67.4343 37.8506 63.1257 41.9016 60.1156 46.1908C57.0759 50.4801 55.5118 55.9608 55.8069 61.3521C55.8364 61.8287 55.8955 62.3351 56.1611 62.7223C56.4267 63.1095 57.0169 63.2882 57.3415 62.9904C57.6071 62.7521 57.6071 62.3351 57.6366 61.9776C57.8137 56.1991 60.5877 50.5992 64.9554 47.2333C67.7294 45.1185 71.1232 43.7483 73.189 40.859C73.6021 40.2931 73.9563 39.6378 73.8972 38.8931C73.8677 38.208 73.248 37.3442 72.5102 37.4038Z" fill="url(#paint23_linear_2006_76523)"/>
</g>
<g opacity="0.4" style="mix-blend-mode:overlay">
<path d="M109.34 30.8804C104.973 30.7017 100.634 30.7017 96.2667 30.8507C95.4404 30.8804 95.4994 31.5358 96.2962 31.5655C100.457 31.7145 104.589 31.6847 108.75 31.5358C108.957 31.5358 109.193 31.506 109.34 31.357C109.488 31.2081 109.429 30.8507 109.34 30.8804Z" fill="url(#paint24_linear_2006_76523)"/>
</g>
<path d="M99.2768 83.7812C114.032 83.7812 127.224 84.5855 137.228 87.2365C138.704 87.6237 139.678 88.696 139.678 89.8875V120.18C139.678 121.372 138.733 122.414 137.287 122.802C127.312 125.631 114.091 126.674 99.2473 126.674C86.1444 126.674 74.0743 126.018 64.4537 124.023C62.8896 123.695 61.7977 122.593 61.7977 121.312V89.8577C61.7977 88.6067 62.8896 86.7301 64.4537 86.4025C74.1039 84.4068 86.1739 83.7812 99.2768 83.7812Z" fill="url(#paint25_linear_2006_76523)"/>
<path d="M63.8339 90.0363V89.2917C78.2353 87.2662 124.155 87.296 137.612 89.2917V90.0363C137.612 90.0363 123.535 88.5172 101.018 88.5172C78.5009 88.5172 63.8339 90.0363 63.8339 90.0363Z" fill="#D1AA5D"/>
<path d="M63.8339 120.508V121.252C78.2353 123.278 124.155 123.248 137.612 121.252V120.508C137.612 120.508 123.535 122.027 101.018 122.027C78.5009 121.997 63.8339 120.508 63.8339 120.508Z" fill="#D1AA5D"/>
<path d="M73.1887 106.746V98.853H74.7528V102.368L77.9695 98.853H80.0943L77.1432 101.921L80.2419 106.746H78.2056L76.0513 103.053L74.7528 104.364V106.746H73.1887Z" fill="white"/>
<path d="M82.16 106.746V98.853H87.9737V100.193H83.7536V101.951H87.6786V103.261H83.7536V105.436H88.1213V106.746H82.16Z" fill="white"/>
<path d="M92.3119 106.746V100.193H90.01V98.853H96.2368V100.193H93.9055V106.746H92.3119Z" fill="white"/>
<path d="M103.349 103.857L104.884 104.334C104.647 105.198 104.264 105.853 103.703 106.27C101.962 107.61 98.037 107.044 98.037 102.874C98.037 100.402 99.365 98.7041 101.696 98.7041C102.641 98.7041 103.438 99.002 104.028 99.5679C104.382 99.8956 104.647 100.402 104.825 101.027L103.26 101.415C102.906 99.8658 101.077 99.7169 100.191 100.73C99.8372 101.147 99.6601 101.832 99.6601 102.785C99.6601 103.798 99.8372 104.483 100.191 104.929C100.545 105.346 101.018 105.555 101.578 105.555C102.405 105.525 103.083 105.078 103.349 103.857Z" fill="white"/>
<path d="M107.363 106.746V98.853H108.927V101.951H112.025V98.853H113.619V106.746H112.025V103.291H108.927V106.746H107.363Z" fill="white"/>
<path d="M116.334 98.853H117.928C117.928 102.815 117.898 104.036 117.987 104.453C118.252 105.764 119.993 105.704 120.525 105.257C121.115 104.781 120.997 104.632 120.997 98.853H122.59C122.59 102.874 122.62 104.244 122.472 105.019C122.295 105.763 121.882 106.329 121.085 106.657C120.229 107.015 118.577 106.955 117.869 106.627C117.101 106.27 116.659 105.704 116.511 105.078C116.275 104.185 116.334 103.023 116.334 98.853Z" fill="white"/>
<path d="M125.335 106.747V98.8235C127.43 98.8235 129.171 98.7937 129.762 98.9426C130.204 99.0618 130.588 99.3298 130.883 99.7171C131.473 100.462 131.444 101.772 131.09 102.487C130.765 103.113 130.204 103.5 129.614 103.649C128.935 103.798 127.902 103.768 126.928 103.768V106.747H125.335ZM126.928 100.194V102.428C127.607 102.428 128.64 102.457 129.053 102.308C130.057 101.921 129.939 100.432 128.847 100.253C128.463 100.164 127.489 100.194 126.928 100.194Z" fill="white"/>
<defs>
<linearGradient id="paint0_linear_2006_76523" x1="165.414" y1="223.386" x2="43.1915" y2="18.6878" gradientUnits="userSpaceOnUse">
<stop stop-color="#B9032F"/>
<stop offset="0.0798972" stop-color="#C00731"/>
<stop offset="0.3174" stop-color="#CF1034"/>
<stop offset="0.5941" stop-color="#D81536"/>
<stop offset="1" stop-color="#DB1737"/>
</linearGradient>
<linearGradient id="paint1_linear_2006_76523" x1="147.135" y1="31.6382" x2="68.7228" y2="31.6382" gradientUnits="userSpaceOnUse">
<stop stop-color="#C20430"/>
<stop offset="0.0341672" stop-color="#C40631"/>
<stop offset="0.3245" stop-color="#D11035"/>
<stop offset="0.586" stop-color="#D61336"/>
<stop offset="1" stop-color="#DB1737"/>
</linearGradient>
<linearGradient id="paint2_linear_2006_76523" x1="98.0984" y1="108.243" x2="41.7178" y2="108.243" gradientUnits="userSpaceOnUse">
<stop stop-color="#D81436"/>
<stop offset="0.2732" stop-color="#E32C39"/>
<stop offset="0.7487" stop-color="#F4523C"/>
<stop offset="1" stop-color="#FA603E"/>
</linearGradient>
<linearGradient id="paint3_linear_2006_76523" x1="145.883" y1="107.581" x2="73.0074" y2="107.581" gradientUnits="userSpaceOnUse">
<stop stop-color="#EA3D3A"/>
<stop offset="0.0536737" stop-color="#EA4946"/>
<stop offset="0.39" stop-color="#E98D8B"/>
<stop offset="0.6709" stop-color="#E8BFBE"/>
<stop offset="0.8823" stop-color="#E7DEDD"/>
<stop offset="1" stop-color="#E7EAE9"/>
</linearGradient>
<linearGradient id="paint4_linear_2006_76523" x1="101.729" y1="62.7716" x2="99.516" y2="41.6305" gradientUnits="userSpaceOnUse">
<stop stop-color="#DA1636"/>
<stop offset="0.2541" stop-color="#E73339"/>
<stop offset="0.5391" stop-color="#F24D3C"/>
<stop offset="0.7964" stop-color="#F95D3D"/>
<stop offset="1" stop-color="#FB623E"/>
</linearGradient>
<linearGradient id="paint5_linear_2006_76523" x1="97.074" y1="31.4641" x2="139.754" y2="31.4641" gradientUnits="userSpaceOnUse">
<stop stop-color="white"/>
<stop offset="0.2296" stop-color="#FDDBD7"/>
<stop offset="0.7419" stop-color="#F78272"/>
<stop offset="1" stop-color="#F4533D"/>
</linearGradient>
<linearGradient id="paint6_linear_2006_76523" x1="132.356" y1="31.6382" x2="68.3574" y2="31.6382" gradientUnits="userSpaceOnUse">
<stop stop-color="#F3513C"/>
<stop offset="0.5744" stop-color="#E63139"/>
<stop offset="1" stop-color="#DB1737"/>
</linearGradient>
<linearGradient id="paint7_linear_2006_76523" x1="134.468" y1="36.6736" x2="78.2412" y2="23.3063" gradientUnits="userSpaceOnUse">
<stop stop-color="#C20430"/>
<stop offset="1" stop-color="#DB1737"/>
</linearGradient>
<linearGradient id="paint8_linear_2006_76523" x1="116.264" y1="29.2071" x2="79.0159" y2="18.1459" gradientUnits="userSpaceOnUse">
<stop stop-color="#C20430"/>
<stop offset="1" stop-color="#DB1737"/>
</linearGradient>
<linearGradient id="paint9_linear_2006_76523" x1="79.6491" y1="28.1303" x2="150.43" y2="28.1303" gradientUnits="userSpaceOnUse">
<stop stop-color="white"/>
<stop offset="0.2296" stop-color="#FDDBD7"/>
<stop offset="0.7419" stop-color="#F78272"/>
<stop offset="1" stop-color="#F4533D"/>
</linearGradient>
<linearGradient id="paint10_linear_2006_76523" x1="91.5351" y1="23.8912" x2="144.796" y2="23.8912" gradientUnits="userSpaceOnUse">
<stop stop-color="white"/>
<stop offset="0.2296" stop-color="#FDDBD7"/>
<stop offset="0.7419" stop-color="#F78272"/>
<stop offset="1" stop-color="#F4533D"/>
</linearGradient>
<linearGradient id="paint11_linear_2006_76523" x1="65.8944" y1="19.7951" x2="132.492" y2="19.7951" gradientUnits="userSpaceOnUse">
<stop stop-color="#B7B7BA"/>
<stop offset="0.00674468" stop-color="#BBBBBE"/>
<stop offset="0.0501715" stop-color="#CFD1D2"/>
<stop offset="0.101" stop-color="#DFE2E1"/>
<stop offset="0.1644" stop-color="#EAEDEC"/>
<stop offset="0.2533" stop-color="#F0F4F2"/>
<stop offset="0.5" stop-color="#F2F6F4"/>
<stop offset="0.7467" stop-color="#F0F4F2"/>
<stop offset="0.8356" stop-color="#EAEDEC"/>
<stop offset="0.899" stop-color="#DFE2E1"/>
<stop offset="0.9498" stop-color="#CFD1D2"/>
<stop offset="0.9933" stop-color="#BBBBBE"/>
<stop offset="1" stop-color="#B7B7BA"/>
</linearGradient>
<linearGradient id="paint12_linear_2006_76523" x1="104.391" y1="19.8652" x2="69.6116" y2="19.8652" gradientUnits="userSpaceOnUse">
<stop stop-color="#EBEAE7"/>
<stop offset="0.5038" stop-color="#E9E8E5"/>
<stop offset="0.6853" stop-color="#E2E2E0"/>
<stop offset="0.8146" stop-color="#D7D6D5"/>
<stop offset="0.9184" stop-color="#C6C6C7"/>
<stop offset="0.9823" stop-color="#B7B7BA"/>
</linearGradient>
<linearGradient id="paint13_linear_2006_76523" x1="97.617" y1="29.6009" x2="42.0141" y2="24.2837" gradientUnits="userSpaceOnUse">
<stop stop-color="#F3513C"/>
<stop offset="0.5744" stop-color="#E63139"/>
<stop offset="1" stop-color="#DB1737"/>
</linearGradient>
<linearGradient id="paint14_linear_2006_76523" x1="91.8172" y1="25.0419" x2="67.8207" y2="22.5954" gradientUnits="userSpaceOnUse">
<stop stop-color="#F3513C"/>
<stop offset="0.5744" stop-color="#E63139"/>
<stop offset="1" stop-color="#DB1737"/>
</linearGradient>
<linearGradient id="paint15_linear_2006_76523" x1="118.454" y1="19.7953" x2="136.821" y2="19.7953" gradientUnits="userSpaceOnUse">
<stop stop-color="#EBEAE7"/>
<stop offset="0.5038" stop-color="#E9E8E5"/>
<stop offset="0.6853" stop-color="#E2E2E0"/>
<stop offset="0.8146" stop-color="#D7D6D5"/>
<stop offset="0.9184" stop-color="#C6C6C7"/>
<stop offset="0.9823" stop-color="#B7B7BA"/>
</linearGradient>
<linearGradient id="paint16_linear_2006_76523" x1="52" y1="116.252" x2="148.001" y2="116.252" gradientUnits="userSpaceOnUse">
<stop stop-color="#B7B7BA"/>
<stop offset="0.00674468" stop-color="#BBBBBE"/>
<stop offset="0.0501715" stop-color="#CFD1D2"/>
<stop offset="0.101" stop-color="#DFE2E1"/>
<stop offset="0.1644" stop-color="#EAEDEC"/>
<stop offset="0.2533" stop-color="#F0F4F2"/>
<stop offset="0.5" stop-color="#F2F6F4"/>
<stop offset="0.7467" stop-color="#F0F4F2"/>
<stop offset="0.8356" stop-color="#EAEDEC"/>
<stop offset="0.899" stop-color="#DFE2E1"/>
<stop offset="0.9498" stop-color="#CFD1D2"/>
<stop offset="0.9933" stop-color="#BBBBBE"/>
<stop offset="1" stop-color="#B7B7BA"/>
</linearGradient>
<linearGradient id="paint17_linear_2006_76523" x1="54.6242" y1="116.508" x2="130.505" y2="116.508" gradientUnits="userSpaceOnUse">
<stop stop-color="white"/>
<stop offset="0.4804" stop-color="#FDFDFD"/>
<stop offset="0.6535" stop-color="#F6F6F7"/>
<stop offset="0.7768" stop-color="#EBEBEB"/>
<stop offset="0.8765" stop-color="#DADADB"/>
<stop offset="0.961" stop-color="#C4C4C6"/>
<stop offset="1" stop-color="#B7B7BA"/>
</linearGradient>
<linearGradient id="paint18_linear_2006_76523" x1="146.134" y1="116.845" x2="96.0309" y2="116.845" gradientUnits="userSpaceOnUse">
<stop stop-color="white"/>
<stop offset="0.4804" stop-color="#FDFDFD"/>
<stop offset="0.6535" stop-color="#F6F6F7"/>
<stop offset="0.7768" stop-color="#EBEBEB"/>
<stop offset="0.8765" stop-color="#DADADB"/>
<stop offset="0.961" stop-color="#C4C4C6"/>
<stop offset="1" stop-color="#B7B7BA"/>
</linearGradient>
<linearGradient id="paint19_linear_2006_76523" x1="15.6623" y1="27.0965" x2="108.966" y2="27.0965" gradientUnits="userSpaceOnUse">
<stop stop-color="white"/>
<stop offset="0.2296" stop-color="#FDDBD7"/>
<stop offset="0.7419" stop-color="#F78272"/>
<stop offset="1" stop-color="#F4533D"/>
</linearGradient>
<linearGradient id="paint20_linear_2006_76523" x1="61.2131" y1="31.0417" x2="76.1472" y2="31.0417" gradientUnits="userSpaceOnUse">
<stop stop-color="white"/>
<stop offset="0.2296" stop-color="#FDDBD7"/>
<stop offset="0.7419" stop-color="#F78272"/>
<stop offset="1" stop-color="#F4533D"/>
</linearGradient>
<linearGradient id="paint21_linear_2006_76523" x1="83.93" y1="26.319" x2="120.748" y2="26.3184" gradientUnits="userSpaceOnUse">
<stop stop-color="white"/>
<stop offset="0.1062" stop-color="#FAFAFA"/>
<stop offset="0.2299" stop-color="#ECECEC"/>
<stop offset="0.3624" stop-color="#D5D5D5"/>
<stop offset="0.501" stop-color="#B4B4B4"/>
<stop offset="0.6445" stop-color="#8A8A8A"/>
<stop offset="0.792" stop-color="#565656"/>
<stop offset="0.9401" stop-color="#1A1A1A"/>
<stop offset="1"/>
</linearGradient>
<linearGradient id="paint22_linear_2006_76523" x1="53.6599" y1="178.001" x2="110.479" y2="178.001" gradientUnits="userSpaceOnUse">
<stop stop-color="white"/>
<stop offset="0.1054" stop-color="#E2E2E2"/>
<stop offset="0.5524" stop-color="#6A6A6A"/>
<stop offset="0.8593" stop-color="#1E1E1E"/>
<stop offset="1"/>
</linearGradient>
<linearGradient id="paint23_linear_2006_76523" x1="57.3259" y1="40.2339" x2="69.1896" y2="52.7945" gradientUnits="userSpaceOnUse">
<stop stop-color="white"/>
<stop offset="0.1971" stop-color="#BCBCBC"/>
<stop offset="0.4134" stop-color="#7A7A7A"/>
<stop offset="0.6098" stop-color="#464646"/>
<stop offset="0.7792" stop-color="#202020"/>
<stop offset="0.9149" stop-color="#080808"/>
<stop offset="1"/>
</linearGradient>
<linearGradient id="paint24_linear_2006_76523" x1="90.0338" y1="27.0257" x2="109.411" y2="33.3147" gradientUnits="userSpaceOnUse">
<stop stop-color="white"/>
<stop offset="0.1545" stop-color="#D6D6D6"/>
<stop offset="0.7437" stop-color="#3D3D3D"/>
<stop offset="1"/>
</linearGradient>
<linearGradient id="paint25_linear_2006_76523" x1="62.2532" y1="105.224" x2="139.674" y2="105.224" gradientUnits="userSpaceOnUse">
<stop stop-color="#33732C"/>
<stop offset="0.4966" stop-color="#38872E"/>
<stop offset="1" stop-color="#33732C"/>
</linearGradient>
</defs>
</svg>
