<svg width="200" height="200" viewBox="0 0 200 200" fill="none" xmlns="http://www.w3.org/2000/svg">
<g clip-path="url(#clip0_2003_14929)">
<path d="M86.6791 39.6244C86.6791 39.6244 85.8113 60.7753 72.1867 85.3936C66.8063 92.675 65.4178 97.5293 62.1201 120.501C58.8224 143.472 57.1736 156.301 57 163.843C56.7397 171.297 63.7689 181.44 94.4894 183H105.511C136.231 181.353 143.26 171.297 143 163.843C142.74 156.388 141.091 143.472 137.88 120.501C134.582 97.5293 133.194 92.675 127.813 85.3936C114.189 60.7753 113.408 39.0176 113.408 39.0176L86.6791 39.6244Z" fill="#AFE1F9"/>
<path d="M83.4682 72.8245C83.4682 72.8245 76.0051 84.6135 71.7528 91.895C67.5005 99.1765 67.0666 105.938 64.7235 120.674C62.3804 135.41 61.4259 149.973 60.2977 159.335C59.0828 168.697 71.7528 176.932 94.4894 179.012L105.25 178.839C127.987 176.759 140.657 168.524 139.442 159.075C138.314 149.713 137.359 135.237 135.016 120.414C132.673 105.678 132.239 98.8297 127.987 91.635C123.735 84.3535 116.271 72.5645 116.271 72.5645L83.4682 72.8245Z" fill="url(#paint0_linear_2003_14929)"/>
<path d="M116.445 73.0846C116.445 75.2517 109.069 76.9854 99.9566 76.9854C90.8446 76.9854 83.4682 75.2517 83.4682 73.0846C83.4682 70.9175 90.8446 69.1838 99.9566 69.1838C109.069 69.1838 116.445 70.9175 116.445 73.0846Z" fill="#DE1E29"/>
<path d="M65.678 168.957C65.678 168.957 93.7083 188.288 133.194 169.911C136.144 168.61 136.318 168.177 135.537 162.456C134.756 156.735 129.549 132.81 127.119 123.795C124.689 114.866 116.185 104.291 99.1755 103.771C82.1664 103.251 75.4843 114.693 71.5792 126.569C67.674 138.531 64.5499 163.583 64.5499 163.583C64.5499 163.583 63.5953 167.917 65.678 168.957Z" fill="#F3EBCE"/>
<path d="M71.5792 164.103C71.5792 164.103 94.7497 180.14 127.553 164.883C129.983 163.843 130.156 163.41 129.462 158.642C128.768 153.875 124.516 134.024 122.433 126.656C120.35 119.201 113.408 110.532 99.2623 110.099C85.117 109.666 79.5631 119.114 76.3522 128.996C73.1413 138.878 70.5378 159.682 70.5378 159.682C70.5378 159.682 70.2775 163.063 71.5792 164.103Z" fill="#FFFCEA"/>
<path d="M105.24 144.051C106.497 137.516 101.868 131.135 94.9015 129.798C87.9351 128.462 81.2692 132.677 80.0128 139.212C78.7563 145.748 83.3851 152.129 90.3515 153.465C97.3178 154.802 103.984 150.587 105.24 144.051Z" fill="#ED342D"/>
<path d="M88.8486 130.123C87.894 130.383 86.9395 130.816 85.9849 131.249L86.0716 131.423C86.7659 131.249 87.4601 130.816 88.0676 130.469C88.4147 130.296 88.5883 130.209 88.8486 130.123Z" fill="#E12727"/>
<path d="M89.8032 129.776C88.5015 130.036 87.1998 130.47 85.9849 131.163L86.0716 131.25C86.9395 130.73 87.894 130.383 88.9354 130.123C89.1958 129.949 89.4561 129.863 89.8032 129.776Z" fill="#E24347"/>
<path d="M101.432 133.243C101.345 133.243 101.258 133.243 101.258 133.243C101.172 133.243 101.172 133.243 101.085 133.243C100.911 133.243 100.738 133.157 100.564 133.157C100.391 133.157 100.217 133.07 100.13 133.157C99.9566 133.157 99.9566 133.243 99.8698 133.33C99.8698 133.417 99.783 133.503 99.783 133.503C99.6963 133.764 99.783 134.024 100.043 134.37C100.217 134.63 100.564 134.977 100.911 135.237C101.605 135.844 102.473 136.277 102.82 136.624C103.254 136.884 103.775 137.058 104.209 137.144C103.862 136.451 103.515 135.757 102.994 135.064C102.56 134.37 102.039 133.764 101.432 133.243ZM93.3612 131.25C92.9273 131.163 92.3199 131.336 91.886 131.423C90.4975 131.596 89.1958 131.943 87.8073 132.203C87.3734 132.29 87.0262 132.29 86.6791 132.377C86.7659 132.463 87.0262 132.55 87.1998 132.637C88.5015 132.897 91.1917 132.03 93.1877 132.463C93.6216 132.55 93.7951 132.723 93.9687 132.897V132.723C94.0555 132.463 94.0555 132.29 93.9687 132.03C93.8819 131.856 93.7951 131.683 93.7084 131.51C93.6216 131.336 93.448 131.25 93.3612 131.25Z" fill="#E12727"/>
<path d="M101.605 133.243C101.519 133.243 101.432 133.243 101.432 133.243C102.039 133.763 102.56 134.37 102.994 135.064C103.428 135.67 103.862 136.364 104.209 137.144H104.382C103.688 135.67 102.82 134.37 101.605 133.243Z" fill="#E24347"/>
<path d="M96.8325 132.81C96.7457 132.81 96.6589 132.81 96.5721 132.81C96.3118 132.81 96.1382 132.984 95.8779 133.157C95.7043 133.33 95.444 133.59 95.2704 133.764C94.9233 134.284 94.5762 134.891 94.3158 135.237C93.7084 136.018 92.9273 136.711 91.886 137.145C91.7992 137.318 91.7992 137.405 91.7992 137.491C91.7992 137.665 91.886 137.665 91.9728 137.751C92.667 137.838 95.3572 135.151 95.7911 134.544C96.0515 134.197 96.3118 133.937 96.4854 134.024C96.7457 134.111 97.0061 134.457 97.0061 135.411C97.0928 137.145 100.217 138.445 100.217 138.445C101.953 139.745 99.6963 143.732 99.6963 143.732C96.8325 147.893 93.2745 148.76 89.89 148.153C85.9849 147.373 82.4268 144.599 80.778 142.259C80.4309 141.739 80.0838 141.305 79.7366 141.045C79.6499 143.646 80.5177 146.073 81.9929 148.153C83.8153 150.667 86.6791 152.661 90.1504 153.268C93.6216 153.961 97.0061 153.181 99.6095 151.534C102.3 149.8 104.209 147.2 104.816 143.906C105.25 141.739 104.99 139.572 104.209 137.578C103.688 137.665 103.168 137.578 102.647 137.491C101.692 137.318 100.824 136.971 99.9566 136.451C99.1756 135.931 98.4813 135.411 98.221 134.717C98.0474 134.371 97.8739 133.937 97.5267 133.504C97.5267 133.244 97.1796 132.897 96.8325 132.81Z" fill="#E12727"/>
<path d="M105.163 143.992H105.077C104.469 147.2 102.473 149.887 99.8698 151.62C97.1796 153.354 93.7951 154.048 90.4107 153.354C86.9394 152.661 84.0757 150.754 82.2533 148.24C80.778 146.159 79.9102 143.732 79.9969 141.132L79.8234 141.045C79.6498 146.94 83.9889 152.314 90.3239 153.527C97.2664 154.828 103.949 150.58 105.163 143.992ZM104.643 137.664H104.469C105.25 139.658 105.511 141.825 105.077 143.992H105.163C105.597 141.825 105.337 139.658 104.643 137.664Z" fill="#E24347"/>
<path d="M86.1584 132.984C84.8567 133.504 83.7285 134.284 83.1211 135.411C82.8607 135.931 82.34 137.058 82.6872 137.665C83.4682 139.051 86.1584 136.711 86.5923 136.278C87.3733 135.584 89.1957 134.111 88.1544 133.07C87.8072 132.637 87.1998 132.724 86.7659 132.897C86.5055 132.897 86.332 132.984 86.1584 132.984Z" fill="#F05756"/>
<path d="M81.6458 138.791C81.2119 139.225 80.9516 139.658 80.9516 140.265C80.9516 140.525 80.9516 141.045 81.1251 141.132C81.6458 141.478 82.2533 140.178 82.3401 139.918C82.5136 139.571 82.9475 138.705 82.3401 138.445C82.1665 138.358 81.9062 138.531 81.7326 138.618L81.6458 138.791Z" fill="#F05756"/>
<path d="M98.3078 123.622C97.5267 123.708 97.7871 124.748 97.7871 125.182C97.7871 125.962 97.7003 126.742 97.5267 127.522C97.4399 128.216 97.2664 128.996 96.8325 129.689C96.6589 129.95 96.3118 130.123 95.9647 129.863C95.1836 129.256 94.4026 128.303 93.448 127.956C92.0595 127.436 90.5842 128.389 89.109 128.129C87.9808 127.956 86.9394 127.436 85.8981 126.742C86.9394 127.696 88.0676 128.649 89.5429 128.996C89.89 129.083 90.3239 128.996 90.8446 128.909C91.7992 128.823 92.8405 128.736 93.0141 129.603C92.8405 128.909 91.2785 129.429 90.9314 129.516C89.9768 129.689 89.109 130.036 88.2412 130.47C87.4601 130.903 86.6791 131.336 85.8113 131.51C85.0303 131.597 84.2492 131.423 83.555 130.99C83.3814 130.903 83.1211 130.73 82.9475 130.556C82.9475 130.556 83.2079 132.723 87.7205 131.857C89.109 131.597 90.4107 131.336 91.7992 131.076C92.3199 130.99 93.2745 130.73 93.7084 131.163C94.6629 132.03 93.5348 133.85 93.0141 134.63C92.7538 134.977 92.3199 135.757 91.9727 135.931C90.4107 136.624 91.0181 136.538 90.4107 137.751C90.4107 137.751 90.5842 137.318 91.6256 136.971C92.667 136.624 93.5348 135.844 94.1423 135.064C94.7497 134.284 95.3572 132.723 96.4854 132.55C97.4399 132.463 98.1342 133.937 98.4813 134.63C99.4359 136.451 103.428 138.185 105.25 137.144C105.25 137.144 103.601 137.231 102.56 136.451C101.779 135.844 98.9152 134.284 99.5227 132.983C99.6962 132.637 100.217 132.723 100.651 132.81C100.824 132.81 100.911 132.897 101.085 132.897C101.692 132.897 102.386 132.983 102.994 132.897C104.035 132.81 105.424 132.463 105.684 131.25C105.511 131.943 103.775 131.77 103.254 131.77C101.432 131.857 99.3491 131.77 97.9606 130.296C97.7871 130.123 97.6135 129.776 97.7871 129.603C98.0474 128.823 98.5681 128.216 98.8284 127.522C99.1756 126.656 99.4359 125.789 99.6095 124.835C99.6962 124.488 99.6963 124.142 99.4359 123.882C99.2623 123.882 98.7417 123.622 98.3078 123.622Z" fill="#48C01E"/>
<path d="M98.3078 123.622V123.795C98.1342 123.795 98.0474 123.882 98.0474 123.968C97.9606 124.055 97.9606 124.142 97.9606 124.315V124.402C98.0474 124.402 98.221 124.488 98.3945 124.488C99.0888 124.662 99.8698 124.835 99.3491 125.269C98.4813 125.962 98.5681 125.615 98.6549 126.222C98.7417 126.916 97.7871 130.123 97.3532 130.296C96.9193 130.47 97.0928 130.816 98.5681 131.597C99.9566 132.377 99.5227 132.983 99.002 133.07H98.9152C98.7417 133.07 98.3945 132.723 98.0474 132.463C97.7003 132.203 97.2664 131.943 97.006 131.857C96.8325 131.857 96.6589 131.857 96.5721 132.03C96.1382 132.55 95.0969 133.504 94.9233 133.504C94.8365 133.504 94.8365 133.417 94.9233 133.244C95.3572 132.377 95.2704 131.163 93.9687 130.816H93.8819C93.3612 130.73 92.667 130.816 91.9727 130.816C91.3653 130.903 90.7578 130.99 90.4975 130.903C90.3239 130.903 90.3239 130.816 90.3239 130.643C90.3239 130.643 91.1049 129.689 92.2331 129.863H92.3199C92.667 129.95 92.9273 130.036 93.1009 130.123C93.2745 130.21 93.448 130.296 93.6216 130.296C93.7951 130.296 93.7951 130.21 93.7951 129.863C93.7084 129.169 93.3612 128.649 92.5802 128.563C92.3199 128.476 91.9727 128.476 91.5388 128.563C90.9314 128.649 90.4107 128.649 89.9768 128.563C89.8032 128.563 89.6297 128.476 89.5429 128.389C89.4561 128.389 89.3693 128.389 89.3693 128.389C89.2825 128.389 89.1957 128.389 89.1957 128.389C88.5883 128.303 87.9808 128.042 87.4601 127.782C88.2412 128.389 89.0222 128.823 89.89 128.996C90.1503 129.083 90.5842 128.996 91.1049 128.909C91.6256 128.823 92.0595 128.823 92.4934 128.909C92.667 128.909 92.9273 128.996 93.0141 129.169C93.1877 129.256 93.2745 129.516 93.3612 129.689V129.776L93.2745 129.863H93.1877H93.1009L93.0141 129.776L92.9273 129.689C92.8406 129.689 92.8406 129.603 92.7538 129.603C92.4934 129.516 92.1463 129.603 91.886 129.689C91.5388 129.776 91.2785 129.863 91.1049 129.863C90.1503 130.036 89.2825 130.383 88.5015 130.816C87.7205 131.25 86.9394 131.77 86.0716 131.857C85.7245 131.943 85.2906 131.943 84.9435 131.857C84.5096 131.77 84.0757 131.597 83.7285 131.336C83.6418 131.25 83.555 131.25 83.4682 131.163L83.555 131.25C83.8153 131.51 84.2492 131.857 85.0303 132.03C85.7245 132.117 86.6791 132.203 87.894 131.943C89.2825 131.683 90.5842 131.423 91.9727 131.163C92.3199 131.076 93.0141 130.903 93.5348 131.076C93.7084 131.076 93.8819 131.163 93.9687 131.25C94.1423 131.423 94.3158 131.683 94.3158 131.943C94.4026 132.203 94.3158 132.463 94.3158 132.723C94.1423 133.59 93.6216 134.457 93.2745 134.977C93.1877 135.151 93.0141 135.411 92.8406 135.671C92.667 135.931 92.4066 136.191 92.2331 136.277C91.886 136.451 91.6256 136.538 91.4521 136.711C91.2785 136.798 91.1917 136.884 91.1917 136.971C91.1049 137.058 91.1049 137.231 91.0181 137.491C91.1917 137.318 91.4521 137.231 91.886 137.058C92.8406 136.711 93.7084 136.017 94.4026 135.151C94.5762 134.891 94.8365 134.457 95.0969 134.11C95.3572 133.677 95.6175 133.33 95.9647 132.983C96.225 132.81 96.4854 132.637 96.7457 132.637C96.8325 132.637 96.9193 132.637 97.0928 132.637C97.5267 132.723 97.9606 133.157 98.221 133.59C98.4813 134.024 98.7417 134.544 98.9152 134.804C99.1756 135.411 99.783 135.931 100.564 136.451C101.345 136.884 102.3 137.318 103.167 137.491C103.775 137.578 104.382 137.664 104.903 137.491C104.73 137.491 104.556 137.491 104.382 137.404C103.862 137.318 103.341 137.144 102.907 136.798C102.647 136.624 102.126 136.277 101.519 135.844C100.998 135.411 100.39 134.977 100.043 134.457C99.783 134.11 99.6963 133.764 99.783 133.417C99.783 133.33 99.8698 133.244 99.8698 133.157C99.9566 132.983 100.13 132.897 100.304 132.897C100.477 132.897 100.651 132.897 100.911 132.897C101.085 132.897 101.258 132.983 101.432 132.983H101.605C102.213 132.983 102.907 133.07 103.515 132.983C104.035 132.897 104.643 132.81 105.077 132.55C105.337 132.377 105.597 132.203 105.771 131.943C105.597 132.03 105.337 132.03 105.077 132.117C104.556 132.203 103.949 132.117 103.688 132.117C102.82 132.117 101.866 132.117 100.911 131.943C99.9566 131.77 99.002 131.336 98.221 130.643C98.0474 130.47 97.8739 130.123 97.9606 129.863V129.776C98.221 128.996 98.7417 128.389 99.002 127.696C99.3491 126.829 99.5227 125.962 99.783 125.009V124.922C99.783 124.748 99.783 124.662 99.783 124.575C99.783 124.488 99.6962 124.315 99.6095 124.228C99.4359 124.055 99.0888 123.882 98.7417 123.795C98.6549 123.795 98.5681 123.795 98.3945 123.795L98.3078 123.622Z" fill="#32B526"/>
<path d="M91.7124 129.949C91.4521 129.863 91.1917 129.949 90.9314 130.036C90.8446 130.123 90.5843 130.21 90.5843 130.383C90.5843 130.73 91.2785 130.643 91.3653 130.556C91.5388 130.556 92.0595 130.47 91.9728 130.21C91.9728 130.123 91.886 130.036 91.7124 130.036V129.949Z" fill="#77E343"/>
<path d="M96.8325 130.816C96.8325 130.816 96.225 130.643 96.5721 130.383C96.9192 130.123 96.6589 130.123 96.3986 130.21C96.225 130.296 95.2704 130.036 95.1836 129.776V129.69C95.0101 129.429 93.7083 127.783 92.3198 127.956C92.3198 127.956 91.2785 128.043 91.452 128.129C91.7124 128.216 93.0141 127.869 93.6216 128.736C94.0555 129.256 94.0555 129.603 94.1422 129.863C94.1422 130.036 94.1422 130.296 93.9687 130.296C93.9687 130.296 93.7083 130.383 94.0555 130.47C94.4026 130.556 95.3572 130.903 95.2704 131.857C95.1836 132.81 95.5307 132.117 95.7911 131.857C96.0514 131.51 96.3118 131.163 97.006 131.597C97.006 131.597 98.221 132.463 98.3077 132.03C98.4813 131.683 97.0928 130.903 96.8325 130.816Z" fill="#77E343"/>
<path d="M98.1342 124.575C98.221 124.488 98.3946 124.488 98.5681 124.575C98.7417 124.661 99.1756 124.748 98.9153 125.008C98.7417 125.182 98.4813 125.268 98.3946 125.442C98.3078 125.615 98.3078 125.875 98.3078 126.048C98.221 126.655 98.1342 127.262 97.9607 127.869C97.7871 128.476 97.7003 129.169 97.3532 129.689C97.3532 129.776 97.1796 129.863 97.0929 129.863C96.9193 129.863 97.0061 129.602 97.0929 129.516C97.3532 129.082 97.5268 128.562 97.7003 128.129C97.8739 127.522 97.9607 127.002 98.0474 126.395C98.1342 125.788 97.9607 125.268 98.0474 124.661C98.0474 124.661 98.0474 124.661 98.1342 124.575Z" fill="#77E343"/>
<path d="M112.378 152.598C117.886 151.12 121.223 145.724 119.83 140.545C118.438 135.367 112.844 132.367 107.335 133.845C101.827 135.323 98.4903 140.719 99.8827 145.897C101.275 151.076 106.869 154.076 112.378 152.598Z" fill="#ED342D"/>
<path d="M103.081 136.104C102.473 136.624 101.866 137.231 101.432 137.924L101.519 138.011C101.953 137.664 102.3 137.144 102.647 136.624C102.82 136.451 102.994 136.277 103.081 136.104Z" fill="#E12727"/>
<path d="M103.601 135.584C102.734 136.277 101.953 137.058 101.345 137.924L101.432 138.011C101.866 137.318 102.473 136.711 103.081 136.191C103.254 135.931 103.428 135.757 103.601 135.584Z" fill="#E24347"/>
<path d="M113.321 134.023L113.147 134.11L112.974 134.197C112.887 134.197 112.713 134.283 112.627 134.283C112.453 134.283 112.366 134.37 112.279 134.457C112.193 134.544 112.106 134.544 112.106 134.63V134.804C112.193 134.977 112.366 135.15 112.627 135.324C112.887 135.497 113.234 135.584 113.581 135.67C114.275 135.844 115.056 135.93 115.49 135.93C115.924 136.017 116.358 135.93 116.705 135.844C116.185 135.41 115.664 135.064 115.143 134.804C114.536 134.457 113.928 134.197 113.321 134.023ZM106.726 135.41C106.378 135.497 105.944 135.844 105.684 136.017C104.73 136.624 103.862 137.317 102.994 138.011C102.734 138.184 102.473 138.358 102.213 138.531C102.386 138.531 102.473 138.531 102.647 138.531C103.688 138.271 105.337 136.711 106.986 136.277C107.333 136.191 107.507 136.191 107.68 136.277V136.191C107.593 136.017 107.593 135.844 107.42 135.67C107.333 135.497 107.159 135.41 106.986 135.41C106.986 135.41 106.899 135.41 106.726 135.41Z" fill="#E12727"/>
<path d="M113.494 133.937L113.321 134.023C113.928 134.197 114.536 134.457 115.057 134.804C115.664 135.15 116.185 135.497 116.619 135.844H116.705C115.838 134.977 114.709 134.37 113.494 133.937Z" fill="#E24347"/>
<path d="M109.85 135.324L109.676 135.41C109.503 135.497 109.416 135.67 109.329 135.844C109.242 136.017 109.155 136.277 109.155 136.537C109.069 137.057 109.069 137.577 108.982 137.924C108.808 138.704 108.461 139.484 107.94 140.091C107.94 140.178 107.94 140.351 108.027 140.351C108.114 140.438 108.114 140.525 108.201 140.438C108.721 140.265 109.763 137.404 109.85 136.711C109.85 136.364 110.023 136.104 110.197 136.104C110.457 136.017 110.717 136.277 111.065 136.971C111.759 138.184 114.449 138.097 114.449 138.097C116.185 138.444 115.924 142.085 115.924 142.085C115.317 146.072 113.061 147.979 110.37 148.76C107.333 149.626 103.688 148.76 101.692 147.719C101.258 147.459 100.824 147.286 100.477 147.199C101.345 149.106 102.82 150.58 104.643 151.534C106.899 152.747 109.676 153.094 112.366 152.4C115.143 151.707 117.313 149.973 118.615 147.806C119.916 145.639 120.437 143.038 119.743 140.438C119.309 138.704 118.354 137.231 117.139 136.104C116.792 136.277 116.445 136.45 116.011 136.624C115.317 136.797 114.449 136.884 113.755 136.797C112.974 136.711 112.28 136.537 111.846 136.19C111.585 136.017 111.325 135.757 110.978 135.584C110.544 135.41 110.11 135.237 109.85 135.324Z" fill="#E12727"/>
<path d="M119.829 140.525H119.743C120.437 143.125 119.916 145.726 118.615 147.893C117.313 150.06 115.056 151.794 112.366 152.487C109.676 153.181 106.899 152.834 104.643 151.62C102.82 150.667 101.345 149.107 100.477 147.286H100.391C102.3 151.62 107.42 153.961 112.453 152.661C117.92 151.1 121.218 145.726 119.829 140.525ZM117.226 136.104L117.139 136.191C118.354 137.318 119.309 138.791 119.743 140.525H119.829C119.396 138.791 118.441 137.318 117.226 136.104Z" fill="#E24347"/>
<path d="M102.213 139.225C101.432 140.005 100.911 141.045 100.824 142.085C100.824 142.519 100.824 143.559 101.258 143.819C102.3 144.512 103.428 141.912 103.601 141.478C103.949 140.698 104.73 139.051 103.601 138.618C103.168 138.445 102.82 138.705 102.473 138.965C102.386 139.051 102.3 139.138 102.213 139.225Z" fill="#F05756"/>
<path d="M100.998 145.032C100.824 145.466 100.824 145.899 100.998 146.333C101.085 146.506 101.258 146.853 101.432 146.939C101.953 147.026 101.953 145.899 101.866 145.639C101.866 145.292 101.866 144.512 101.345 144.599C101.172 144.599 101.085 144.772 100.998 144.946V145.032Z" fill="#F05756"/>
<path d="M107.072 141.218H106.986V141.304H107.072H107.159V141.218L107.072 141.131L106.986 141.218H107.072H106.986V141.304H107.072H107.159V141.218L107.072 141.131L106.986 141.218H107.072Z" fill="#667F37"/>
<path d="M107.68 128.129C107.159 128.476 107.68 129.083 107.854 129.516C108.114 130.123 108.288 130.643 108.548 131.25C108.722 131.856 108.895 132.463 108.808 133.07C108.722 133.33 108.548 133.59 108.288 133.503C107.507 133.33 106.639 132.897 105.771 132.983C104.556 133.157 103.775 134.284 102.734 134.63C101.866 134.89 100.911 134.89 99.9566 134.804C101.085 135.064 102.213 135.411 103.428 135.15C103.688 135.064 104.035 134.89 104.296 134.717C104.903 134.284 105.684 133.85 106.118 134.457C105.771 134.024 104.816 134.977 104.556 135.15C103.949 135.671 103.428 136.191 102.994 136.797C102.56 137.404 102.213 138.011 101.605 138.358C101.085 138.705 100.477 138.878 99.7831 138.791C99.6095 138.791 99.3492 138.791 99.1756 138.705C99.1756 138.705 100.13 140.178 103.081 138.011C103.949 137.318 104.816 136.624 105.771 136.017C106.118 135.757 106.726 135.237 107.159 135.411C108.114 135.671 108.027 137.404 107.94 138.184C107.94 138.531 107.854 139.225 107.68 139.485C106.812 140.525 107.246 140.265 107.246 141.392C107.246 141.392 107.246 141.045 107.854 140.352C108.461 139.745 108.808 138.878 108.982 138.098C109.155 137.318 109.069 135.931 109.763 135.497C110.457 135.064 111.499 135.931 111.932 136.277C113.234 137.318 116.792 137.058 117.747 135.671C117.747 135.671 116.619 136.277 115.577 136.104C114.796 135.931 112.106 135.844 112.193 134.63C112.193 134.284 112.627 134.197 112.974 134.11C113.061 134.11 113.234 134.024 113.321 134.024C113.755 133.85 114.275 133.59 114.709 133.33C115.404 132.897 116.271 132.117 116.011 131.163C116.185 131.77 114.796 132.203 114.449 132.377C113.147 133.07 111.585 133.764 110.11 133.243C109.936 133.157 109.676 132.983 109.676 132.81C109.589 132.203 109.763 131.596 109.676 130.903C109.589 130.123 109.503 129.429 109.329 128.736C109.242 128.476 109.155 128.216 108.895 128.129C108.461 127.956 107.94 127.956 107.68 128.129Z" fill="#32B526"/>
<path d="M107.68 128.129L107.767 128.216C107.68 128.303 107.593 128.303 107.593 128.389C107.593 128.476 107.593 128.563 107.593 128.649V128.736C107.68 128.736 107.767 128.649 107.94 128.649C108.548 128.476 109.155 128.389 108.895 128.823C108.461 129.603 108.461 129.343 108.721 129.776C108.982 130.21 109.503 132.897 109.242 133.244C108.982 133.504 109.242 133.677 110.544 133.764C111.846 133.85 111.759 134.457 111.412 134.63H111.325C111.151 134.717 110.804 134.63 110.457 134.544C110.11 134.457 109.763 134.37 109.503 134.457C109.329 134.457 109.242 134.544 109.242 134.717C109.069 135.237 108.721 136.277 108.548 136.364C108.461 136.364 108.461 136.277 108.461 136.104C108.461 135.324 108.027 134.457 106.899 134.717H106.812C106.378 134.804 105.858 135.151 105.424 135.411C104.99 135.671 104.643 135.931 104.382 136.017C104.296 136.017 104.209 136.017 104.209 135.931C104.209 135.931 104.469 134.891 105.337 134.63C105.597 134.544 105.858 134.544 106.031 134.544C106.205 134.544 106.378 134.544 106.465 134.544C106.552 134.544 106.552 134.457 106.378 134.197C106.031 133.764 105.597 133.504 105.077 133.677C104.816 133.764 104.556 133.85 104.296 134.024C103.862 134.284 103.515 134.457 103.167 134.544C102.994 134.544 102.907 134.63 102.82 134.63L102.647 134.717L102.473 134.804C101.953 134.977 101.519 134.977 100.998 134.977C101.779 135.151 102.473 135.237 103.254 135.064C103.515 134.977 103.775 134.804 104.122 134.63C104.469 134.457 104.816 134.197 105.163 134.11C105.337 134.024 105.511 134.024 105.684 134.11C105.858 134.11 106.031 134.197 106.118 134.37V134.457V134.544H106.031H105.944L105.858 134.457C105.771 134.457 105.771 134.457 105.684 134.457C105.511 134.544 105.25 134.63 105.077 134.804C104.903 134.977 104.643 135.151 104.556 135.237C103.949 135.671 103.428 136.277 102.994 136.884C102.56 137.491 102.213 138.098 101.605 138.531C101.345 138.705 101.085 138.791 100.824 138.878C100.477 138.965 100.13 138.965 99.783 138.965C99.6962 138.965 99.6095 138.965 99.6095 138.965L99.6962 139.051C99.9566 139.138 100.39 139.311 101.085 139.138C101.605 138.965 102.3 138.705 103.167 138.011C104.035 137.318 104.903 136.624 105.858 136.017C106.118 135.844 106.552 135.497 106.986 135.411C107.159 135.411 107.246 135.324 107.42 135.411C107.593 135.497 107.767 135.584 107.94 135.757C108.027 135.931 108.114 136.104 108.201 136.364C108.374 137.058 108.288 137.838 108.201 138.358C108.201 138.531 108.201 138.791 108.114 139.051C108.027 139.311 108.027 139.571 107.854 139.745C107.68 140.005 107.507 140.178 107.42 140.265C107.333 140.438 107.333 140.438 107.333 140.525C107.333 140.612 107.333 140.785 107.42 140.958C107.507 140.785 107.68 140.612 107.854 140.352C108.461 139.745 108.808 138.965 108.982 138.098C109.069 137.838 109.069 137.491 109.155 137.058C109.155 136.711 109.242 136.277 109.416 135.931C109.503 135.671 109.676 135.497 109.85 135.411C109.936 135.324 110.023 135.324 110.11 135.324C110.457 135.237 110.891 135.411 111.238 135.584C111.585 135.757 111.932 136.104 112.193 136.277C112.627 136.624 113.234 136.798 114.015 136.884C114.709 136.971 115.577 136.884 116.271 136.711C116.792 136.538 117.226 136.364 117.573 136.104C117.486 136.191 117.313 136.191 117.139 136.277C116.705 136.364 116.271 136.451 115.838 136.364C115.577 136.277 115.056 136.277 114.536 136.191C114.015 136.104 113.408 135.931 112.974 135.757C112.713 135.584 112.453 135.411 112.366 135.064C112.366 134.977 112.366 134.891 112.366 134.804C112.366 134.63 112.453 134.544 112.627 134.457C112.713 134.37 112.887 134.284 113.061 134.284C113.234 134.284 113.321 134.197 113.408 134.197H113.494C113.928 134.024 114.449 133.764 114.883 133.504C115.23 133.244 115.664 132.983 115.924 132.637C116.098 132.463 116.185 132.203 116.271 131.943C116.185 132.117 116.011 132.203 115.838 132.29C115.49 132.55 115.056 132.723 114.883 132.81C114.275 133.157 113.581 133.504 112.8 133.677C112.019 133.85 111.238 133.937 110.37 133.677C110.197 133.59 109.936 133.417 109.936 133.244V133.157C109.85 132.55 110.023 131.857 109.936 131.25C109.85 130.556 109.763 129.776 109.589 129.083V128.996C109.589 128.909 109.503 128.823 109.416 128.736C109.329 128.649 109.242 128.649 109.155 128.563C108.982 128.476 108.635 128.476 108.374 128.563C108.288 128.563 108.201 128.649 108.114 128.649L107.68 128.129Z" fill="#35A919"/>
<path d="M105.163 135.063C104.903 135.15 104.73 135.237 104.643 135.41C104.556 135.497 104.469 135.67 104.556 135.757C104.643 136.017 105.163 135.67 105.25 135.584C105.424 135.497 105.684 135.324 105.597 135.063C105.511 134.977 105.424 134.977 105.337 134.977L105.163 135.063Z" fill="#77E343"/>
<path d="M109.155 133.936C109.155 133.936 108.635 134.023 108.808 133.763C108.982 133.503 108.722 133.59 108.635 133.676C108.548 133.763 107.68 133.936 107.593 133.763C107.333 133.59 105.858 132.896 104.903 133.503C104.903 133.503 104.209 133.936 104.382 133.936C104.556 133.936 105.424 133.156 106.205 133.59C106.639 133.85 106.812 134.11 106.986 134.197C107.073 134.283 107.159 134.543 107.073 134.63C107.073 134.63 106.899 134.803 107.159 134.717C107.42 134.63 108.288 134.543 108.548 135.323C108.808 136.017 108.808 135.41 108.895 135.15C108.982 134.803 108.982 134.457 109.676 134.543C109.676 134.543 110.804 134.717 110.804 134.457C110.631 133.936 109.329 133.85 109.155 133.936Z" fill="#77E343"/>
<path d="M107.854 128.909C107.94 128.823 108.027 128.736 108.114 128.736C108.288 128.736 108.635 128.649 108.548 128.909C108.461 129.083 108.288 129.256 108.288 129.43C108.288 129.603 108.374 129.776 108.461 129.863C108.635 130.296 108.721 130.816 108.895 131.337C108.982 131.77 109.155 132.377 109.069 132.897L108.982 133.157C108.895 133.244 108.895 132.984 108.895 132.897C108.895 132.463 108.895 132.117 108.808 131.683C108.721 131.25 108.635 130.73 108.461 130.296C108.288 129.863 108.027 129.516 107.854 129.083V128.909Z" fill="#77E343"/>
<path d="M85.1171 155.175C84.336 156.562 84.1625 157.082 82.4268 156.648C81.9062 157.169 80.9516 157.949 80.9516 158.642C80.9516 158.902 81.0384 159.076 81.3855 159.249C81.9062 159.422 82.4268 159.336 84.1625 158.642C84.1625 158.902 84.2492 159.076 84.2492 159.336C83.2947 159.942 81.559 160.723 80.2573 160.029C79.6499 159.769 79.3027 159.249 79.3027 158.816C79.3027 158.469 79.4763 158.122 79.7366 157.862C79.4763 157.949 79.2159 157.949 78.9556 158.035C78.8688 157.862 78.8688 157.775 78.782 157.602C79.7366 157.515 80.6044 157.082 81.2119 156.475C80.2573 156.302 80.5177 156.302 79.7366 156.215L79.9102 156.042C80.778 155.175 80.9516 155.001 82.6004 155.001C83.1211 154.481 83.4682 153.875 84.4228 153.788C84.5964 153.788 84.9435 153.875 84.9435 154.048C84.9435 154.308 84.4228 154.828 84.2492 155.001C84.4228 155.088 84.7699 155.088 85.1171 155.175Z" fill="#6D0101"/>
<path d="M90.671 160.289C89.89 161.242 89.1957 161.502 87.9808 161.242C87.2866 161.849 86.5055 162.109 85.4642 161.762C84.5963 161.502 83.9021 160.462 83.9021 159.162C83.9021 158.035 84.5096 157.515 85.4642 156.908C86.332 156.301 87.5469 155.954 88.5015 155.954C88.8486 155.954 89.3693 156.128 89.3693 156.648C89.3693 156.908 89.1957 156.995 89.0222 157.081C89.5429 157.255 89.6296 157.601 89.5429 158.208C89.5429 158.988 89.1957 159.595 88.8486 160.202C89.5429 160.462 90.0636 159.855 90.5842 159.508C90.5842 159.768 90.671 160.028 90.671 160.289ZM85.7245 158.642C85.3774 158.902 85.0303 159.422 85.0303 159.942C85.0303 160.375 85.2906 160.635 85.7245 160.722C86.2452 160.895 86.5923 160.635 86.9394 160.375C86.8527 160.115 86.7659 159.855 86.7659 159.595C86.7659 158.728 87.5469 157.861 87.5469 157.775C87.0262 158.035 86.2452 158.295 85.7245 158.642Z" fill="#6D0101"/>
<path d="M95.9647 162.543C95.6176 162.976 95.0101 163.67 94.4026 163.67C93.9687 163.583 93.7084 163.236 93.7084 162.803C93.7084 162.283 94.1423 161.416 95.1836 159.595L95.2704 159.335C95.2704 159.249 95.1836 159.162 95.1836 159.162C95.0101 159.162 94.663 159.595 94.5762 159.682C93.7084 160.722 92.7538 161.763 91.9728 162.716C91.7992 162.889 91.5388 163.15 91.2785 163.15C90.4975 162.976 90.3239 161.503 90.3239 160.896C90.4107 159.162 92.1463 156.822 93.1009 156.995C93.3612 157.082 93.7952 157.082 93.7952 157.428C93.7952 157.775 93.3612 158.382 93.1009 158.642C92.8406 158.989 92.4067 159.335 92.1463 159.682C91.9728 159.942 91.6256 160.202 91.6256 160.636L91.7124 160.809C91.7992 160.809 91.9728 160.636 92.0595 160.549C92.9273 159.769 95.8779 156.475 96.9193 156.388C97.3532 156.388 97.6135 156.822 97.6135 157.342C97.6135 158.209 96.3986 159.769 96.0515 160.549V160.636C97.2664 159.509 98.4813 158.382 99.6963 157.255C99.8698 157.082 100.304 156.735 100.477 156.735C100.651 156.735 100.738 157.168 100.824 157.255C100.911 157.515 101.085 157.775 101.085 158.035C101.085 158.382 100.738 158.815 100.564 159.075C99.2624 160.809 99.1756 161.069 99.1756 161.589C99.1756 161.849 99.3491 162.109 99.6095 162.109C99.9566 162.023 100.13 162.023 102.126 160.289C102.126 160.636 102.213 160.896 102.213 161.242C101.432 162.023 99.0888 164.45 98.1342 164.363C97.6135 164.363 97.2664 163.756 97.2664 163.15C97.2664 162.196 98.1342 160.809 98.4813 159.942V159.856C97.7871 160.722 96.9193 161.676 95.9647 162.543Z" fill="#6D0101"/>
<path d="M104.903 162.369C104.556 162.716 103.515 163.756 103.168 163.843C102.734 163.843 101.692 162.629 101.692 161.589C101.605 159.075 105.858 156.475 107.68 156.301C108.461 156.214 108.721 156.908 108.721 157.168C108.721 157.428 108.288 157.601 108.201 157.688C108.548 157.775 108.635 158.035 108.721 158.382C108.721 158.988 107.333 160.375 107.333 161.329C107.333 161.676 107.593 161.762 107.854 161.676C108.548 161.589 109.416 160.462 110.11 159.855C110.197 160.029 110.197 160.289 110.284 160.462C109.589 161.416 107.42 163.843 106.639 163.929C106.118 164.016 105.858 163.583 105.858 162.976C105.858 162.369 106.205 161.329 106.465 160.722C105.858 161.329 105.337 161.849 104.903 162.369ZM102.82 161.936C102.82 162.022 102.907 162.369 103.168 162.282C103.515 162.196 104.035 162.196 107.159 158.122C103.341 159.769 102.82 160.982 102.82 161.936Z" fill="#6D0101"/>
<path d="M115.664 155.088C114.97 156.561 114.796 157.168 113.061 157.255C112.54 158.035 111.672 159.595 111.672 160.636C111.672 160.982 111.846 161.242 112.193 161.156C112.713 161.069 113.321 160.376 114.883 158.902C114.883 159.075 114.97 159.335 114.97 159.595C114.015 160.636 112.366 162.889 110.978 163.236C110.37 163.409 109.936 162.976 109.936 162.283C109.936 161.676 110.11 160.982 110.284 160.462C110.023 160.722 109.763 161.069 109.503 161.329C109.416 161.156 109.416 160.896 109.329 160.636C110.284 159.682 111.151 158.642 111.759 157.515C110.804 157.602 111.065 157.515 110.197 157.775C110.284 157.688 110.284 157.515 110.37 157.428C111.238 155.781 111.325 155.521 113.061 155.435C113.494 154.741 113.842 153.961 114.796 153.961C114.97 153.961 115.317 154.048 115.317 154.221C115.317 154.481 114.883 155.001 114.709 155.261C114.97 155.088 115.317 155.088 115.664 155.088Z" fill="#6D0101"/>
<path d="M121.305 157.428C120.61 158.208 119.916 158.815 118.788 159.248C118.181 160.029 117.4 160.809 116.358 161.156C115.577 161.502 114.709 160.895 114.623 159.508C114.536 158.382 115.143 157.515 116.011 156.735C116.879 155.954 118.007 155.521 118.962 155.348C119.309 155.261 119.829 155.348 119.829 155.694C119.829 155.868 119.656 155.954 119.482 156.041C120.003 156.041 120.09 156.301 120.09 156.561C120.09 157.081 119.743 157.515 119.482 158.122C120.177 157.948 120.61 157.428 121.044 156.995C121.218 157.168 121.218 157.255 121.305 157.428ZM116.445 158.208C116.098 158.555 115.838 159.248 115.838 159.682C115.838 160.115 116.185 160.115 116.532 160.029C117.052 159.855 117.4 159.508 117.747 159.075C117.66 158.902 117.573 158.728 117.573 158.555C117.573 157.862 118.267 156.908 118.181 156.908C117.66 157.168 116.966 157.688 116.445 158.208Z" fill="#6D0101"/>
<path d="M86.5923 40.4912C86.5923 40.8379 86.5056 41.2714 86.5056 41.7915C86.5923 41.2714 86.5923 40.8379 86.5923 40.4912Z" fill="#9FE0E9"/>
<path opacity="0.6" d="M86.5923 40.4912C86.5923 40.8379 86.5056 41.2714 86.5056 41.7915C88.7619 43.2651 93.2745 45.4322 100.824 45.4322C102.82 45.4322 105.077 45.2588 107.507 44.9121C107.593 44.9121 107.593 44.9121 107.68 44.9121C109.763 44.9121 110.023 58.3481 118.962 75.6849C120.784 79.239 122.346 82.0996 123.474 84.2667C125.036 86.8672 126.685 89.5544 127.987 91.7215C132.239 99.003 132.673 105.764 135.016 120.501C136.144 127.695 137.012 134.89 137.62 141.391C138.227 146.159 138.748 150.493 139.008 153.527C139.095 154.654 139.182 155.781 139.182 156.995C139.268 157.688 139.355 158.382 139.442 159.075C139.789 161.502 139.095 163.843 137.62 166.096C134.062 174.245 123.214 181.786 92.4934 182.826C93.1009 182.913 93.7084 182.913 94.4026 182.913H94.4894H105.511C135.71 181.266 143 171.558 143 164.103C143 169.564 139.182 176.238 125.383 180.053C140.31 172.684 141.872 166.096 141.872 161.676C141.872 156.735 140.31 144.859 136.925 121.628C133.628 98.4829 131.111 93.0218 129.028 89.4677C117.052 71.4374 113.061 53.1471 112.627 47.5993C112.28 43.5252 111.065 42.2249 109.329 42.2249C108.721 42.2249 108.114 42.3983 107.42 42.6583C104.382 43.3518 101.605 43.6985 99.1756 43.6985C92.8406 43.6118 88.5015 41.6181 86.5923 40.4912Z" fill="#E2F1FF"/>
<g opacity="0.6" style="mix-blend-mode:overlay">
<path d="M139.268 157.081C139.355 160.028 139.008 163.149 137.706 166.183C139.182 164.016 139.789 161.589 139.529 159.162C139.355 158.468 139.355 157.775 139.268 157.081ZM123.474 84.2666C127.987 93.0217 126.772 92.5883 117.226 95.0154C105.25 97.9627 129.723 94.6687 131.632 103.077C133.107 109.318 135.884 127.609 137.62 141.478C136.925 134.977 136.144 127.782 135.016 120.587C132.673 105.851 132.239 99.0029 127.987 91.8081C126.685 89.4677 125.123 86.8671 123.474 84.2666Z" fill="#FF9DA3"/>
</g>
<path d="M71.9264 85.8269C66.8063 92.8483 65.4178 98.0494 62.2069 120.501C58.9092 143.472 57.2604 156.301 57.0868 163.843C56.9133 168.957 60.2109 175.285 72.0132 179.272C57.7811 172.424 58.6489 162.196 59.6035 154.827C60.4713 147.979 61.8598 133.243 64.7235 120.847C64.7235 120.761 64.7235 120.761 64.7235 120.674C67.0666 105.938 67.5005 99.1763 71.7528 91.8948C72.1867 91.1146 72.7074 90.3345 73.1413 89.4676C72.5338 88.1674 72.0999 86.9538 71.9264 85.8269Z" fill="#DEEDFF"/>
<g opacity="0.6" style="mix-blend-mode:overlay">
<path d="M73.2281 89.4678C72.7074 90.3346 72.2735 91.1148 71.8396 91.8949C67.5873 99.1764 67.1534 105.938 64.8103 120.674C64.8103 120.761 64.8103 120.761 64.8103 120.847C65.8517 116.427 67.0666 112.352 68.4551 108.972C73.9223 96.3158 92.9274 98.2229 86.4188 97.1827C78.6953 96.1424 74.9637 92.7618 73.2281 89.4678Z" fill="#FF9DA3"/>
</g>
<path d="M89.3693 45.0854C87.8073 45.0854 85.551 64.5894 75.7447 81.3194C74.7033 82.7063 74.5298 84.44 75.1373 86.2604C79.0424 79.7591 83.4682 72.911 83.4682 72.911H83.555C83.8154 72.1309 85.1171 71.3507 87.113 70.7439C90.8446 58.6948 95.3572 47.7727 101.779 46.4724C101.779 46.4724 100.304 46.6458 98.3078 46.6458C95.7044 46.6458 92.0596 46.3857 89.4561 45.0854H89.3693Z" fill="#C7EAFB"/>
<path d="M83.555 72.8247C83.4682 72.8247 79.1291 79.6727 75.224 86.1741C76.6125 90.4216 82.2533 94.9291 91.6256 95.796C91.7992 95.796 91.9727 95.8827 91.9727 95.8827C93.1009 95.8827 80.9515 91.8085 84.9435 78.1124C85.2038 77.1589 85.5509 76.1187 85.8113 75.0785C84.336 74.4717 83.555 73.7782 83.555 73.0848C83.4682 72.9981 83.4682 72.9114 83.555 72.8247Z" fill="#FFC8CA"/>
<path d="M87.113 70.6572C85.117 71.264 83.8153 72.0442 83.555 72.8243C83.555 72.911 83.4682 72.9977 83.4682 73.0844C83.4682 73.7778 84.336 74.4713 85.7245 75.0781C86.2452 73.6045 86.6791 72.1309 87.113 70.6572Z" fill="#E4636A"/>
<path d="M126.685 174.852C117.052 178.579 107.159 179.793 98.5681 179.793C83.3814 179.793 72.0131 176.066 72.0131 176.066C82.4268 180.14 91.7124 181.527 99.5227 181.527C116.619 181.527 126.685 174.852 126.685 174.852Z" fill="#D2E9EF"/>
<path d="M114.536 126.915C114.362 126.915 114.275 126.829 114.189 126.655C114.189 126.569 111.498 116.34 101.172 115.473C90.8446 114.606 85.7245 124.488 85.7245 124.575C85.6377 124.748 85.4642 124.835 85.2906 124.748C85.1171 124.661 85.0303 124.488 85.1171 124.315C85.2038 124.228 90.4107 113.913 101.258 114.78C112.106 115.646 114.883 126.308 114.97 126.482C115.057 126.655 114.883 126.829 114.709 126.915H114.536Z" fill="#FAFCB6"/>
<path d="M101.779 169.39C90.7578 169.39 82.6004 163.929 82.5136 163.843C82.3401 163.756 82.3401 163.496 82.4268 163.323C82.5136 163.149 82.774 163.149 82.9475 163.236C83.1211 163.323 99.3491 174.245 117.052 164.796C117.226 164.71 117.4 164.796 117.486 164.97C117.573 165.143 117.486 165.316 117.313 165.403C111.932 168.437 106.552 169.39 101.779 169.39Z" fill="#FFFBED"/>
<path d="M88.7619 52.2805C88.7619 52.2805 77.4803 82.0998 78.001 83.5735C78.6085 84.9604 91.5388 47.6863 88.7619 52.2805Z" fill="white"/>
<path d="M86.679 39.6248C86.679 39.7114 86.679 39.9715 86.5923 40.4916C86.679 39.8848 86.679 39.6248 86.679 39.6248Z" fill="#28ABC1"/>
<path d="M113.408 39.0176H113.234C113.061 39.1043 112.887 39.2776 112.627 39.3643C112.54 39.451 112.54 39.451 112.453 39.451C109.936 40.8379 104.99 42.3116 99.4359 42.3116C98.7417 42.3116 98.0474 42.3116 97.44 42.2249H97.3532C92.8406 41.9648 89.0222 40.7513 86.7659 39.6244C86.7659 39.6244 86.7659 39.8844 86.6791 40.4912C88.5883 41.6181 92.8406 43.6118 99.3491 43.6118C101.779 43.6118 104.556 43.3518 107.593 42.5716C108.288 42.3116 108.895 42.1382 109.503 42.1382C111.238 42.1382 112.453 43.4385 112.8 47.5126C113.234 53.0604 117.226 71.2641 129.115 89.381C131.198 92.9351 133.714 98.3095 137.012 121.541C140.31 144.685 141.959 156.648 141.959 161.589C141.959 166.01 140.397 172.684 125.47 179.966C139.268 176.152 143.174 169.477 143.087 164.016C143.087 163.929 143.087 163.929 143.087 163.843C143.087 163.843 143.087 163.843 143.087 163.756C142.826 156.301 141.178 143.385 137.967 120.414C134.669 97.4426 133.281 92.5883 127.9 85.3069C114.189 60.7753 113.408 39.0176 113.408 39.0176Z" fill="#9CC7E7"/>
<path d="M84.5096 19.687V37.7173C84.5096 39.1909 91.1917 42.3116 99.3491 42.3116C107.593 42.3116 114.189 39.1909 114.189 37.7173V19.687H84.5096Z" fill="#FFFCEA"/>
<path d="M104.99 26.9686C105.771 26.7086 106.205 26.4485 106.031 26.2751C99.1756 21.8543 94.4026 26.2751 94.4026 26.2751C94.663 26.5352 95.0101 26.7086 95.3572 26.8819C97.0929 25.9284 100.477 24.5415 104.99 26.9686Z" fill="#FEF4A6"/>
<path d="M104.99 26.9687C100.477 24.6282 97.006 25.9285 95.444 26.882C98.3077 28.269 102.907 27.6622 104.99 26.9687Z" fill="#E3E1D2"/>
<path d="M100.043 25.5815C98.0474 25.5815 96.5722 26.1883 95.6176 26.7951H95.5308C96.0515 27.0552 96.5722 27.2285 97.1796 27.4019C97.2664 27.3152 97.3532 27.2285 97.44 27.2285C97.6135 27.2285 97.7003 27.3152 97.7871 27.4886C98.221 27.5753 98.7417 27.5753 99.2624 27.662C99.3492 27.5753 99.4359 27.4019 99.6095 27.4019C99.7831 27.4019 99.8698 27.4886 99.9566 27.662C100.564 27.662 101.172 27.662 101.779 27.5753C101.866 27.4019 101.953 27.3152 102.126 27.3152C102.213 27.3152 102.386 27.4019 102.473 27.4886C103.168 27.4019 103.862 27.2285 104.469 27.1419C104.469 26.9685 104.643 26.7951 104.816 26.7951C104.903 26.7951 104.99 26.8818 105.077 26.9685H105.163C105.163 26.9685 105.077 26.9685 105.077 26.8818C102.994 25.9283 101.432 25.5815 100.043 25.5815Z" fill="#E9DE7E"/>
<path d="M105.771 26.5349C105.597 26.5349 105.424 26.3616 105.424 26.1882C105.424 26.0148 105.511 25.8414 105.771 25.8414C105.858 25.8414 110.978 25.408 113.842 23.9344C114.015 23.8477 114.189 23.9344 114.275 24.1078C114.362 24.2811 114.275 24.4545 114.102 24.5412C111.151 26.1882 106.031 26.5349 105.771 26.5349Z" fill="#FEF4A6"/>
<path d="M109.503 36.6771C108.982 37.3706 108.374 37.9774 107.593 38.5841V40.5779C108.288 40.2311 108.895 39.7977 109.503 39.3643V36.6771ZM112.019 25.4082C111.759 25.4948 111.498 25.5815 111.238 25.6682C111.412 26.8818 111.412 28.5288 111.412 30.5225C111.412 32.1695 111.151 33.9032 110.284 35.5502V38.6708C111.065 37.8907 111.672 36.9371 112.106 36.0703V25.4082H112.019ZM113.147 25.0614C112.974 25.1481 112.887 25.1481 112.713 25.2348C112.713 25.2348 112.713 25.2348 112.713 25.3215V34.1633C113.408 31.3894 113.234 28.4421 113.234 26.5351C113.234 25.9283 113.234 25.4948 113.147 25.0614ZM84.5096 24.5413V37.7173C84.5096 39.1042 90.0636 41.7915 97.2664 42.2249C97.0928 42.2249 97.006 42.0515 97.006 41.8781V40.9246C96.3986 40.9246 95.7043 40.8379 95.0969 40.7512V41.5314C95.0969 41.7048 94.9233 41.8781 94.7497 41.8781C94.5762 41.8781 94.4026 41.7048 94.4026 41.5314V40.6646C94.1423 40.6646 93.7951 40.5779 93.5348 40.5779C93.1877 40.4912 92.9273 40.4045 92.667 40.4045V41.1847C92.667 41.358 92.4934 41.5314 92.3199 41.5314C92.1463 41.5314 91.9727 41.358 91.9727 41.1847V40.2311C91.3653 40.0578 90.8446 39.9711 90.3239 39.7977V40.4912C90.3239 40.6646 90.1503 40.8379 89.9768 40.8379C89.8032 40.8379 89.6297 40.6646 89.6297 40.4912V39.5377C89.0222 39.3643 88.5015 39.1042 88.0676 38.9309V39.451C88.0676 39.6243 87.894 39.7977 87.7205 39.7977C87.5469 39.7977 87.3734 39.6243 87.3734 39.451V38.4975C86.8527 38.1507 86.5055 37.804 86.2452 37.4572V38.6708C86.2452 38.8442 86.0716 39.0176 85.8981 39.0176C85.7245 39.0176 85.551 38.8442 85.551 38.6708V33.2097C85.4642 30.7826 85.3774 27.4886 85.3774 25.0614C85.0303 24.8014 84.7699 24.7147 84.5096 24.5413C84.5964 24.5413 84.5964 24.5413 84.5096 24.5413ZM84.5096 19.687V24.0212C84.5964 23.9345 84.6831 23.9345 84.7699 23.9345C84.8567 23.9345 84.9435 23.9345 84.9435 24.0212C85.0303 24.1079 85.2038 24.1946 85.2906 24.1946C85.3774 22.8076 85.551 21.8541 85.8113 21.8541H85.8981C85.8981 21.8541 89.9768 23.5878 98.8285 23.5878C101.692 23.5878 105.077 23.4144 108.895 22.981C109.069 22.981 109.155 22.981 109.242 22.981C110.284 22.981 110.717 23.6745 110.978 25.0614C111.672 24.8881 112.28 24.7147 112.887 24.4546C112.54 23.2411 112.019 22.2009 111.238 21.4207C108.548 22.1142 104.209 22.5476 99.2624 22.5476C91.1917 22.3742 84.5096 21.1606 84.5096 19.687Z" fill="#F2EDCC"/>
<path d="M106.899 39.1045C106.292 39.4512 105.684 39.7979 104.99 40.058V41.2716C104.99 41.4449 104.816 41.6183 104.643 41.6183C104.469 41.6183 104.296 41.4449 104.296 41.2716V40.2314C103.688 40.4047 103.081 40.5781 102.386 40.6648V41.705C102.386 41.8784 102.213 42.0517 102.039 42.0517C101.866 42.0517 101.692 41.8784 101.692 41.705V40.7515C101.085 40.8382 100.477 40.8382 99.8698 40.9248V41.8784C99.8698 42.0517 99.6963 42.2251 99.5227 42.2251C99.3492 42.2251 99.1756 42.0517 99.1756 41.8784V41.0115C99.0888 41.0115 98.9153 41.0115 98.8285 41.0115C98.4813 41.0115 98.1342 41.0115 97.7871 41.0115V41.965C97.7871 42.1384 97.6135 42.3118 97.44 42.3118C98.1342 42.3118 98.7417 42.3985 99.4359 42.3985C105.077 42.3985 109.936 40.9248 112.453 39.5379C110.284 40.7515 106.292 41.965 101.605 42.3118C103.775 42.1384 105.511 41.6183 106.899 41.0115C106.899 41.0115 106.899 41.0115 106.899 40.9248V39.1045ZM114.275 37.7175C114.275 38.1509 113.668 38.7577 112.627 39.3645C113.668 38.7577 114.275 38.2376 114.275 37.7175Z" fill="#F2EDCC"/>
<path d="M114.275 19.687C114.275 20.2938 113.147 20.8139 111.325 21.334C112.019 22.1142 112.627 23.1544 112.974 24.368C113.234 24.2813 113.581 24.1079 113.842 24.0212C113.928 24.0212 113.928 24.0212 114.015 24.0212C114.102 23.9345 114.275 23.9345 114.275 24.1079V19.687Z" fill="#E6DFB2"/>
<path d="M112.019 36.0707C111.585 37.0243 110.978 37.8911 110.197 38.6713V40.1449C110.197 40.3183 110.023 40.4916 109.85 40.4916C109.676 40.4916 109.503 40.3183 109.503 40.1449V39.3647C108.982 39.7982 108.374 40.2316 107.593 40.5783V40.8384C107.593 41.0117 107.42 41.1851 107.246 41.1851C107.073 41.1851 106.899 41.0117 106.899 40.8384C105.511 41.4452 103.688 41.8786 101.605 42.1386C106.292 41.7919 110.284 40.5783 112.453 39.3647H112.366C112.193 39.3647 112.019 39.1914 112.019 39.018V36.0707ZM114.275 24.4551C114.275 24.5418 114.189 24.5418 114.102 24.5418C113.755 24.7151 113.408 24.8885 113.061 24.9752C113.147 25.4086 113.147 25.9287 113.147 26.4488C113.147 28.3559 113.321 31.3031 112.627 34.077V39.1047C112.627 39.1914 112.627 39.2781 112.54 39.3647C113.581 38.7579 114.189 38.2378 114.189 37.7177V24.4551H114.275Z" fill="#E6DFB2"/>
<path d="M114.275 19.6872C114.275 21.1608 107.593 22.3744 99.4359 22.3744C91.1917 22.3744 84.5964 21.1608 84.5964 19.6872C84.5964 18.2136 91.2785 17 99.4359 17C107.68 17 114.275 18.2136 114.275 19.6872Z" fill="#F0E592"/>
<path d="M99.4359 21.4209C93.0141 21.4209 87.8073 20.4674 87.8073 19.3405C87.8073 18.2136 93.0141 17.2601 99.4359 17.2601C105.858 17.2601 111.065 18.2136 111.065 19.3405C111.065 20.4674 105.858 21.4209 99.4359 21.4209ZM99.4359 17C91.1917 17 84.5964 18.2136 84.5964 19.6872C84.5964 21.1608 91.2785 22.3744 99.4359 22.3744C107.68 22.3744 114.275 21.1608 114.275 19.6872C114.275 18.2136 107.68 17 99.4359 17Z" fill="#FAF6CE"/>
<path d="M92.667 39.3643V39.8844C92.8406 39.8844 93.0141 39.9711 93.1877 39.9711C93.2745 39.9711 93.3612 39.9711 93.3612 39.9711C93.5348 40.0577 93.1877 39.7977 92.667 39.3643ZM90.3239 37.1972V39.0175C90.8446 39.2776 91.3653 39.5376 91.9727 39.711V38.8442C91.4521 38.4108 90.8446 37.804 90.3239 37.1972ZM87.9808 32.3429V37.1972C88.4147 37.7173 88.9354 38.1507 89.5429 38.5841V36.3303C88.8486 35.2034 88.1544 33.9032 87.9808 32.3429ZM87.9808 25.7549V28.7021C88.0676 27.4886 88.2412 26.535 88.5015 25.8416C88.3279 25.8416 88.1544 25.8416 87.9808 25.7549ZM86.1584 25.2348V32.6896C86.332 33.8165 86.6791 35.0301 87.2866 36.157V25.5815C86.8527 25.4948 86.5055 25.4081 86.1584 25.2348ZM86.9394 22.8076C86.4188 22.8076 86.0716 23.5011 85.8981 24.4546C86.6791 24.8014 87.7205 25.0614 88.8486 25.2348C89.4561 24.1079 90.3239 23.7611 91.5388 23.7611C91.6256 23.7611 91.6256 23.7611 91.7124 23.7611C91.7124 23.7611 89.109 23.4144 87.1998 22.8076C87.0262 22.8076 87.0262 22.8076 86.9394 22.8076Z" fill="#FFFEFB"/>
<path d="M94.6629 26.5351C94.3158 26.5351 87.113 26.1884 84.5096 24.5414C84.336 24.4547 84.336 24.1946 84.4228 24.0213C84.5963 23.9346 84.7699 23.8479 84.9435 23.9346C87.3733 25.4949 94.6629 25.8416 94.6629 25.8416C94.8365 25.8416 95.0101 26.015 95.0101 26.1884C95.0101 26.4484 94.9233 26.5351 94.6629 26.5351Z" fill="#FEF4A6"/>
<path d="M99.1756 103.684C116.185 104.204 124.689 114.779 127.119 123.708C129.549 132.636 134.756 156.561 135.537 162.369C135.797 164.189 135.971 165.403 135.971 166.356C135.971 165.403 135.797 164.103 135.537 162.369C134.756 156.648 129.549 132.723 127.119 123.708C124.689 114.779 116.185 104.204 99.1756 103.684Z" fill="#A51C1C"/>
<path d="M98.0474 103.684C91.7992 103.684 87.0262 105.331 83.2946 108.018C87.113 106.458 91.7992 105.071 96.4853 105.071C96.7457 105.071 97.006 105.071 97.2664 105.071C108.721 105.418 122.259 111.399 126.425 127.349C130.677 143.298 131.545 149.8 132.933 158.642C134.495 168.263 120.003 177.452 97.006 177.452C94.9233 177.452 92.7538 177.365 90.5842 177.192C93.2744 177.539 96.1382 177.712 99.1755 177.712C108.982 177.712 120.524 175.718 133.194 169.824C135.19 168.957 135.971 168.437 135.971 166.356C135.971 165.403 135.797 164.103 135.537 162.369C134.756 156.648 129.549 132.723 127.119 123.708C124.689 114.779 116.185 104.204 99.1755 103.684C98.8284 103.684 98.5681 103.684 98.221 103.684C98.1342 103.684 98.0474 103.684 98.0474 103.684Z" fill="#D0CB44"/>
<path d="M85.4642 24.9749C85.4642 25.0615 85.4642 25.0615 85.4642 24.9749V33.1232C85.4642 34.0767 85.551 34.9435 85.551 35.4636C85.551 36.2438 85.8113 36.8506 86.1584 37.4574V32.7764C85.9849 31.7362 85.8981 30.696 85.8981 29.9158C85.8113 28.3555 85.7245 26.6219 85.8981 25.2349C85.6377 25.0615 85.551 25.0615 85.4642 24.9749Z" fill="#F1EDD5"/>
<path d="M85.4642 33.1233V38.5844C85.4642 38.7578 85.6377 38.9311 85.8113 38.9311C85.9849 38.9311 86.1584 38.7578 86.1584 38.5844V37.3708C85.8113 36.8507 85.551 36.1572 85.551 35.3771C85.4642 34.9437 85.4642 34.0768 85.4642 33.1233Z" fill="#E4DFBA"/>
<path d="M85.8113 25.1479C85.6378 26.5349 85.7245 28.3553 85.8113 29.8289C85.8981 30.6957 85.8981 31.6493 86.0717 32.6895V25.2346C85.9849 25.2346 85.8981 25.2346 85.8113 25.1479Z" fill="#F1EFE5"/>
<path d="M85.8113 24.7148C85.6377 24.7148 85.4642 24.8015 85.4642 24.9749C85.551 25.0616 85.7245 25.0616 85.8981 25.1483C85.9849 25.1483 86.0716 25.2349 86.2452 25.2349V25.0616C86.1584 24.8882 85.9849 24.7148 85.8113 24.7148Z" fill="#D6D4BF"/>
<path d="M87.2866 36.1572V38.411C87.4602 38.5844 87.7205 38.6711 87.9808 38.8444V37.1974C87.7205 36.8507 87.4602 36.504 87.2866 36.1572ZM87.9808 28.7024C87.8941 29.4825 87.8941 30.3494 87.8941 31.3896C87.8941 31.6497 87.8941 31.9964 87.9808 32.2564V28.7024Z" fill="#F1EDD5"/>
<path d="M87.2866 38.498V39.4516C87.2866 39.6249 87.4602 39.7983 87.6337 39.7983C87.8073 39.7983 87.9808 39.6249 87.9808 39.4516V38.9315C87.7205 38.7581 87.5469 38.5847 87.2866 38.498Z" fill="#E4DFBA"/>
<path d="M87.2866 25.5815V36.157C87.4602 36.5037 87.7205 36.8505 87.9808 37.1972V32.3429C87.9808 32.0828 87.8941 31.8228 87.8941 31.4761C87.8941 30.4359 87.8941 29.569 87.9808 28.7889V25.8416C87.7205 25.7549 87.5469 25.6682 87.2866 25.5815Z" fill="#F1EFE5"/>
<path d="M87.6337 25.0615C87.4602 25.0615 87.2866 25.2349 87.2866 25.4083V25.5816C87.5469 25.6683 87.7205 25.6683 87.9808 25.755V25.4083C87.9808 25.2349 87.8073 25.0615 87.6337 25.0615Z" fill="#D6D4BF"/>
<path d="M89.5429 38.5846V39.4514C89.8032 39.5381 89.9768 39.6248 90.2371 39.7115V39.018C90.0636 38.8446 89.8032 38.7579 89.5429 38.5846ZM89.5429 26.0154V36.2441C89.8032 36.5908 89.9768 36.8509 90.2371 37.1109V26.1887C90.0636 26.1021 89.8032 26.1021 89.5429 26.0154Z" fill="#F1EDD5"/>
<path d="M89.5429 39.5381V40.4916C89.5429 40.665 89.7164 40.8383 89.89 40.8383C90.0636 40.8383 90.2371 40.665 90.2371 40.4916V39.7981C90.0636 39.6248 89.8032 39.6248 89.5429 39.5381Z" fill="#E4DFBA"/>
<path d="M89.5429 36.3306V38.5844C89.8032 38.7577 89.9768 38.8444 90.2371 39.0178V37.1974C90.0636 36.9374 89.8032 36.5906 89.5429 36.3306Z" fill="#F1EFE5"/>
<path d="M89.89 25.4084C89.7164 25.4084 89.5429 25.5818 89.5429 25.7552V26.0152C89.8032 26.0152 89.9768 26.1019 90.2371 26.1019V25.7552C90.3239 25.5818 90.1503 25.4084 89.89 25.4084Z" fill="#D6D4BF"/>
<path d="M91.886 39.7112V40.2313C92.1463 40.318 92.3199 40.318 92.5802 40.4046V39.9712C92.4067 39.7978 92.1463 39.7978 91.886 39.7112ZM91.886 26.3618V38.7576C92.1463 38.931 92.4067 39.1911 92.5802 39.2777V26.4485C92.4067 26.4485 92.1463 26.3618 91.886 26.3618Z" fill="#F1EDD5"/>
<path d="M91.886 40.1448V41.0983C91.886 41.2717 92.0595 41.445 92.2331 41.445C92.4067 41.445 92.5802 41.2717 92.5802 41.0983V40.3181C92.4067 40.3181 92.1463 40.2315 91.886 40.1448Z" fill="#E4DFBA"/>
<path d="M91.886 38.7578V39.6247C92.1463 39.7113 92.3199 39.798 92.5802 39.798V39.2779C92.4067 39.1912 92.1463 39.0179 91.886 38.7578Z" fill="#F1EFE5"/>
<path d="M92.2331 25.7549C92.0595 25.7549 91.886 25.9283 91.886 26.1016V26.3617C92.1463 26.3617 92.3199 26.4484 92.5802 26.4484V26.1016C92.667 25.8416 92.4935 25.7549 92.2331 25.7549Z" fill="#D6D4BF"/>
<path d="M94.8365 26.5352C94.7498 26.5352 94.7498 26.5352 94.663 26.5352C94.663 26.5352 94.4894 26.5352 94.3159 26.5352V40.6647C94.5762 40.6647 94.7498 40.7513 95.0101 40.7513V26.6218C95.0101 26.6218 94.9233 26.5352 94.8365 26.5352Z" fill="#F1EDD5"/>
<path d="M95.0967 26.1887C95.0967 26.3621 95.01 26.5355 94.9233 26.5355C95.01 26.6221 95.0967 26.6221 95.0967 26.7088V26.3621C95.0967 26.2754 95.0967 26.1887 95.0967 26.1887Z" fill="#D6D4BF"/>
<path d="M94.4026 40.6648V41.5316C94.4026 41.705 94.5762 41.8784 94.7498 41.8784C94.9233 41.8784 95.0969 41.705 95.0969 41.5316V40.7515C94.8366 40.7515 94.663 40.6648 94.4026 40.6648Z" fill="#E4DFBA"/>
<path d="M94.7498 25.9282C94.5762 25.9282 94.4026 26.1016 94.4026 26.275V26.535C94.5762 26.535 94.663 26.535 94.7498 26.535C94.8366 26.535 94.8366 26.535 94.9233 26.535C95.0101 26.4483 95.0969 26.3616 95.0969 26.275V26.1883C95.0101 26.0149 94.8366 25.9282 94.7498 25.9282Z" fill="#D6D4BF"/>
<path d="M97.0928 27.4019C97.006 27.4885 97.006 27.5752 97.006 27.6619V40.9246C97.2664 40.9246 97.44 40.9246 97.7003 40.9246V27.6619V27.5752C97.5267 27.4885 97.2664 27.4885 97.0928 27.4019Z" fill="#F1EDD5"/>
<path d="M97.3532 27.3152C97.2664 27.3152 97.1796 27.4019 97.0929 27.4886C97.2664 27.5752 97.5268 27.5752 97.7003 27.5752C97.7003 27.4019 97.5268 27.3152 97.3532 27.3152Z" fill="#BFBB9D"/>
<path d="M97.006 40.925V41.8786C97.006 42.0519 97.0928 42.1386 97.2664 42.2253H97.3532C97.5267 42.2253 97.7003 42.0519 97.7003 41.8786V40.925C97.5267 40.925 97.2664 40.925 97.006 40.925Z" fill="#E4DFBA"/>
<path d="M99.1756 27.6624C99.1756 27.6624 99.1756 27.749 99.1756 27.8357V41.0117C99.4359 41.0117 99.6095 41.0117 99.8698 41.0117V27.8357V27.749C99.6095 27.749 99.3492 27.749 99.1756 27.6624Z" fill="#F1EDD5"/>
<path d="M99.5227 27.4885C99.3492 27.4885 99.2624 27.5752 99.1756 27.7486C99.4359 27.7486 99.6095 27.7486 99.8698 27.7486C99.7831 27.5752 99.6095 27.4885 99.5227 27.4885Z" fill="#BFBB9D"/>
<path d="M99.8698 40.925C99.6095 40.925 99.4359 40.925 99.1756 40.925V41.7919C99.1756 41.9653 99.3492 42.1386 99.5227 42.1386C99.6963 42.1386 99.8698 41.9653 99.8698 41.7919V40.925Z" fill="#E4DFBA"/>
<path d="M102.3 27.5757C102.126 27.5757 101.866 27.6624 101.692 27.6624V27.7491V40.8383C101.953 40.8383 102.126 40.7517 102.386 40.7517V27.7491C102.386 27.6624 102.3 27.5757 102.3 27.5757Z" fill="#F1EDD5"/>
<path d="M102.039 27.4019C101.866 27.4019 101.779 27.4885 101.692 27.6619C101.953 27.6619 102.126 27.5752 102.3 27.5752C102.213 27.4019 102.126 27.4019 102.039 27.4019Z" fill="#BFBB9D"/>
<path d="M102.386 40.6648C102.126 40.6648 101.953 40.7515 101.692 40.7515V41.705C101.692 41.8784 101.866 42.0517 102.039 42.0517C102.213 42.0517 102.386 41.8784 102.386 41.705V40.6648Z" fill="#E4DFBA"/>
<path d="M104.903 26.9688C104.73 27.0554 104.469 27.0554 104.296 27.1421V40.2314C104.556 40.1447 104.73 40.058 104.99 39.9714V27.1421C104.99 27.1421 104.99 27.0554 104.903 26.9688Z" fill="#F1EDD5"/>
<path d="M104.643 26.7954C104.469 26.7954 104.296 26.9688 104.296 27.1421C104.556 27.0555 104.73 27.0555 104.903 26.9688C104.816 26.8821 104.73 26.7954 104.643 26.7954Z" fill="#BFBB9D"/>
<path d="M104.99 39.9709C104.73 40.0576 104.556 40.1443 104.296 40.231V41.2712C104.296 41.4446 104.469 41.6179 104.643 41.6179C104.816 41.6179 104.99 41.4446 104.99 41.2712V39.9709Z" fill="#E4DFBA"/>
<path d="M107.593 26.3618C107.333 26.3618 107.073 26.4485 106.899 26.4485V39.1044C107.159 38.931 107.333 38.7576 107.593 38.671V26.3618Z" fill="#F1EDD5"/>
<path d="M107.246 26.1021C107.073 26.1021 106.899 26.2754 106.899 26.4488C107.073 26.4488 107.333 26.3621 107.593 26.3621C107.593 26.1887 107.42 26.1021 107.246 26.1021Z" fill="#D6D4BF"/>
<path d="M107.593 38.5845C107.333 38.7578 107.159 38.9312 106.899 39.0179V40.8383C106.899 40.8383 106.899 40.8383 106.899 40.9249C107.159 40.8383 107.333 40.7516 107.593 40.5782V38.5845Z" fill="#E4DFBA"/>
<path d="M107.593 40.5779C107.333 40.6646 107.159 40.8379 106.899 40.9246C106.899 41.098 107.073 41.2714 107.246 41.2714C107.42 41.2714 107.593 41.098 107.593 40.9246V40.5779Z" fill="#D9D2A2"/>
<path d="M110.197 25.9282C109.936 26.0149 109.763 26.0149 109.503 26.1016V36.7637C109.763 36.417 110.023 35.9836 110.197 35.6368V25.9282Z" fill="#F1EDD5"/>
<path d="M109.85 25.5815C109.676 25.5815 109.503 25.7549 109.503 25.9283V26.1016C109.763 26.015 109.936 26.015 110.197 25.9283C110.197 25.6682 110.023 25.5815 109.85 25.5815Z" fill="#D6D4BF"/>
<path d="M110.197 35.5505C110.023 35.984 109.763 36.3307 109.503 36.6774V39.3646C109.763 39.1913 110.023 38.9312 110.197 38.7578V35.5505Z" fill="#E4DFBA"/>
<path d="M110.197 38.7578C110.023 39.0179 109.763 39.1912 109.503 39.3646V40.1448C109.503 40.3181 109.676 40.4915 109.85 40.4915C110.023 40.4915 110.197 40.3181 110.197 40.1448V38.7578Z" fill="#D9D2A2"/>
<path d="M112.626 39.3645C112.54 39.3645 112.54 39.451 112.453 39.451C112.54 39.451 112.54 39.451 112.626 39.3645Z" fill="#198EAB"/>
<path d="M112.713 25.2351C112.453 25.3218 112.28 25.4085 112.019 25.4952V36.0706C112.28 35.4638 112.54 34.7704 112.713 34.0769V25.2351Z" fill="#E4DFBA"/>
<path d="M112.366 24.8882C112.193 24.8882 112.019 25.0616 112.019 25.2349V25.4083C112.28 25.3216 112.453 25.2349 112.713 25.1482C112.713 25.0616 112.54 24.8882 112.366 24.8882Z" fill="#CBC7A7"/>
<path d="M112.713 34.0767C112.54 34.7701 112.28 35.3769 112.019 36.0704V39.1043C112.019 39.2777 112.193 39.4511 112.366 39.4511H112.453C112.54 39.4511 112.54 39.3644 112.627 39.3644C112.713 39.2777 112.713 39.191 112.713 39.1043V34.0767Z" fill="#D9D2A2"/>
</g>
<defs>
<linearGradient id="paint0_linear_2003_14929" x1="99.8699" y1="72.5645" x2="99.8699" y2="179.012" gradientUnits="userSpaceOnUse">
<stop stop-color="#F5343A"/>
<stop offset="0.33" stop-color="#DC171D"/>
<stop offset="0.775" stop-color="#BB0C11"/>
<stop offset="1" stop-color="#92080D"/>
</linearGradient>
<clipPath id="clip0_2003_14929">
<rect width="86" height="166" fill="white" transform="translate(57 17)"/>
</clipPath>
</defs>
</svg>
