<svg width="200" height="200" viewBox="0 0 200 200" fill="none" xmlns="http://www.w3.org/2000/svg">
<path d="M40.1423 25C125.105 31.4135 153.982 117.845 153.982 117.845L125.067 137.236C98.9596 85.664 75.888 122.523 75.888 122.523L60.216 118.75C51.2986 111.054 44.3164 101.434 42.7606 95.5106C42.7606 95.5106 36.1579 85.5131 36.0061 63.2545C35.8163 40.996 40.1423 25 40.1423 25Z" fill="url(#paint0_linear_9002_27424)"/>
<path d="M44.6201 25.415C53.6134 34.6957 62.1894 46.9568 69.0957 61.3305C78.3167 80.4955 82.8703 99.6228 82.6806 115.015C86.7029 111.733 92.2811 108.828 98.8459 110.073C98.3905 106.979 98.1249 103.81 98.049 100.566C97.7075 82.9855 103.475 67.1781 112.772 56.577C96.1516 41.4487 73.839 28.6595 44.6201 25.415Z" fill="#FCD7D2"/>
<path d="M40.6357 80.6085C40.6357 80.6085 46.9728 60.6136 61.0131 52.8797C75.0154 45.1458 81.9217 51.4461 81.6561 57.52C81.6561 57.52 87.0066 46.0889 80.1762 38.5059C73.3458 30.9229 55.359 28.6593 47.8077 34.9219C40.2563 41.2222 35.8924 65.3671 40.6357 80.6085Z" fill="#DC4141"/>
<path d="M125.674 69.8945C129.886 90.4931 126.016 110.186 116.453 123.051C119.261 126.786 122.183 131.464 125.105 137.236L154.02 117.845C153.982 117.845 145.9 93.6244 125.674 69.8945Z" fill="#E8AFA6"/>
<path d="M61.658 117.391C45.6445 105.658 34.1467 85.2107 58.6602 60.8394C83.2117 36.4682 77.7474 72.6855 76.0777 75.2132C76.0777 75.2132 87.3859 47.0693 104.841 62.0089C113.455 69.4033 115.808 85.9652 95.2408 88.3042C95.2408 88.3042 120.324 93.4727 137.362 125.314L129.051 130.369C129.051 130.369 88.7899 61.1412 61.658 117.391Z" fill="#EA4A4A"/>
<path d="M84.3501 64.2747C93.4573 65.9724 99.1113 76.498 97.2899 88.0046C115.694 84.8355 113.227 69.1414 104.879 62.0111C95.5443 54.0131 87.993 58.3516 82.946 64.1238C83.4014 64.1238 83.8568 64.1992 84.3501 64.2747Z" fill="#DE3131"/>
<path d="M63.5174 82.4954C65.1871 73.5165 70.9929 66.688 77.7854 64.6508C78.0131 55.0306 74.8635 44.7313 58.6602 60.8404C34.1087 85.2494 45.6445 105.659 61.6201 117.392C64.3522 111.771 67.1982 107.395 70.1201 104.113C64.6938 99.7363 61.8478 91.3611 63.5174 82.4954Z" fill="#DE3131"/>
<path d="M97.1381 88.7959C96.6068 91.6254 95.6202 94.2662 94.368 96.6053C113 102.83 129.051 130.37 129.051 130.37L137.362 125.315C123.132 98.6802 103.248 90.7199 97.1381 88.7959Z" fill="#DE3131"/>
<path d="M105.638 98.5285C104.955 99.4717 104.234 100.415 103.513 101.32C117.971 111.318 129.051 130.37 129.051 130.37L137.362 125.314C128.368 108.526 117.174 99.1321 108.56 94.0391C107.649 95.5481 106.701 97.0572 105.638 98.5285Z" fill="#D23535"/>
<path d="M61.4682 67.2532C65.4527 61.6697 70.1201 57.0671 74.9773 53.5962C72.321 51.1817 67.3879 52.1626 58.6602 60.8397C37.7895 81.5892 42.9882 99.4715 54.8655 111.544C47.9213 101.094 50.236 82.9096 61.4682 67.2532Z" fill="#D23535"/>
<path d="M104.955 89.813C117.212 91.6993 133.833 109.733 139.259 123.314L143.813 120.485C143.813 120.485 126.205 86.3422 114.783 72.3457C114.821 72.3457 116.643 86.0404 104.955 89.813Z" fill="#EA4A4A"/>
<path d="M145.786 119.542C145.786 119.542 124.384 74.4218 115.277 64.5752C115.277 64.5752 142.447 94.2658 151.592 116.562L145.786 119.542Z" fill="#D23535"/>
<path d="M110.571 91.6628C121.842 96.9445 134.592 111.771 139.259 123.315L143.813 120.486C143.813 120.486 128.748 91.2855 117.478 75.8555C116.112 81.0994 113.835 86.4943 110.571 91.6628Z" fill="#D23535"/>
<path d="M64.7318 116.109L72.8903 119.429C72.8903 119.429 85.7163 93.8501 105.98 109.544C106.018 109.544 84.0846 85.6257 64.7318 116.109Z" fill="#FB6363"/>
<path d="M125.181 133.953C124.991 133.538 114.594 116.071 110.457 112.336C110.457 112.336 121.576 122.748 126.813 131.539L125.181 133.953Z" fill="#FB6363"/>
<path d="M156.525 175C159.029 174.284 161.496 173.567 164 172.888C163.848 168.096 162.862 162.136 160.775 156.099C153.375 134.595 142.75 121.655 142.75 121.655L134.857 126.862C134.857 126.862 147.645 137.576 154.627 167.87C155.272 170.662 155.917 173.039 156.525 175Z" fill="#FACEBB"/>
<path d="M156.525 175C157.473 174.736 158.384 174.472 159.333 174.208C156.487 168.209 151.326 148.478 146.962 139.084C142.446 129.389 137.323 125.201 137.323 125.201L134.857 126.823C134.857 126.823 147.645 137.538 154.627 167.832C155.272 170.661 155.917 173.038 156.525 175Z" fill="#DFAB94"/>
<path d="M43.1777 67.5539C43.1777 67.5539 46.0617 43.7108 54.2202 40.3909C62.3788 37.071 74.3699 37.5614 73.611 40.8436C72.852 44.0881 64.0484 43.145 56.4591 50.2752C48.8697 57.4055 43.1777 67.5539 43.1777 67.5539Z" fill="#EA4A4A"/>
<g opacity="0.3">
<path d="M75.7739 42.5426C72.2828 39.8641 70.8788 42.1277 64.0864 42.6181C57.2939 43.1085 54.5238 37.4119 52.1711 38.2796C49.8184 39.1473 51.0327 42.9576 52.3229 46.4662C53.6131 49.9747 53.9546 54.0115 51.564 56.9918C49.1733 59.9722 46.7827 61.8208 43.4813 67.4043C41.8117 70.1961 40.4076 73.2142 39.421 75.5532C39.7246 77.3263 40.1041 79.024 40.6353 80.6085C40.6353 80.6085 45.834 64.273 57.1801 55.4073C57.0283 54.2001 56.8006 53.1815 56.497 52.6533C55.4345 50.8047 55.0171 49.107 55.2827 45.9757C55.5484 42.8445 57.4077 43.2217 59.6087 44.6553C61.8096 46.0889 66.3632 44.0894 70.4235 43.1463C74.4458 42.2031 74.332 44.3912 79.7204 44.8062C81.1624 44.9194 82.3767 44.9571 83.3633 44.9949C83.2115 44.1649 82.9838 43.3726 82.6802 42.5426C80.1758 43.3726 77.4057 43.7876 75.7739 42.5426Z" fill="#F27475"/>
<path d="M70.006 47.4853C68.3743 47.7494 67.6913 48.9189 67.4257 50.1639C71.6757 48.8812 75.015 49.183 77.3677 50.3525C75.1668 48.0889 72.131 47.1458 70.006 47.4853Z" fill="#F27475"/>
<path d="M39.1555 73.7803C40.2559 71.8562 41.3943 69.7058 41.6979 68.2722C42.3809 65.1786 43.9747 62.5378 46.8586 60.161C49.7426 57.7843 50.0841 52.6158 48.8698 44.8819C48.3006 41.2979 46.3653 39.7511 44.5059 39.1475C39.9903 47.0323 37.5237 61.6701 39.1555 73.7803Z" fill="#F27475"/>
<path d="M63.8209 51.4834C62.0374 49.0312 59.3053 46.2395 58.2807 47.4467C57.4459 48.4653 58.5843 51.4457 59.6468 53.7093C60.1021 53.4075 60.5575 53.1434 61.0129 52.8793C61.9995 52.3511 62.9102 51.8984 63.8209 51.4834Z" fill="#F27475"/>
</g>
<g opacity="0.1">
<path d="M105.6 62.6885C105.335 62.4622 105.107 62.2358 104.842 62.0095C100.516 58.3123 96.6071 57.2559 93.116 57.7464C97.9732 58.9914 102.109 60.689 105.6 62.6885Z" fill="#F27475"/>
<path d="M133.073 122.221C133.946 122.033 134.667 121.844 135.274 121.618C134.591 120.486 133.908 119.354 133.225 118.298C133.681 119.505 133.529 120.901 133.073 122.221Z" fill="#F27475"/>
<path d="M83.2876 95.7373C82.6425 94.9073 81.9974 94.1905 81.6938 93.8133C81.542 93.6624 81.4661 93.5869 81.4661 93.5869C80.8969 92.9079 79.1514 90.8706 75.6223 87.0603C71.2205 82.269 63.4794 72.0075 65.6423 71.7056C67.8053 71.4038 74.408 80.1563 79.2273 78.7982C84.0085 77.4401 79.7206 74.1201 79.3032 69.2534C79.3032 69.2157 79.3032 69.1403 79.3032 69.1025C77.8612 71.4416 76.8746 73.5165 76.3813 74.5728C77.254 71.932 78.5442 63.5945 77.1781 57.9355C66.591 55.1438 63.4035 53.6724 64.3142 60.0482C65.3008 67.0276 59.3811 63.0286 55.245 64.5376C52.7405 67.4048 50.6914 70.2343 49.0976 72.9883C49.5909 73.5542 50.198 74.1956 51.0329 74.8747C58.1289 80.76 64.8075 83.5517 64.8075 83.5517L61.7718 83.6272C63.1758 85.1362 64.8075 87.2866 66.2874 89.5125C68.9817 93.5492 72.8902 95.1337 74.2562 96.341C75.6223 97.5482 75.7362 95.7373 73.7629 92.6815C71.7897 89.5879 74.8634 91.3988 76.7607 95.0583C77.1781 95.8882 77.7473 96.7182 78.3165 97.5105C79.9862 96.6428 81.6179 96.0769 83.2876 95.7373Z" fill="#F27475"/>
<path d="M44.9994 83.7026C45.1512 83.7026 45.303 83.7026 45.4548 83.7403C47.2382 83.8912 49.2874 83.0612 50.8432 82.2313C49.6668 81.3635 48.0351 80.2318 46.2516 79.1377C45.6824 80.6845 45.265 82.2313 44.9994 83.7026Z" fill="#F27475"/>
<path d="M111.065 73.2904C106.018 70.0459 102.868 69.2914 102.033 71.7059C101.047 74.6108 105.714 76.1576 110.723 78.2326C111.178 76.648 111.254 74.9504 111.065 73.2904Z" fill="#F27475"/>
<path d="M61.6201 109.809C61.8098 105.018 63.6312 95.8501 61.2027 91.0211C60.0643 88.7953 57.5218 87.1353 55.1312 85.9658C52.8544 86.9467 49.4392 87.9653 45.8343 87.3617C45.3789 87.2862 44.9615 87.2485 44.5441 87.2108C43.7851 99.7737 51.8678 110.186 61.658 117.354C61.9236 116.788 62.1893 116.26 62.4549 115.732C61.9616 113.846 61.5442 111.695 61.6201 109.809Z" fill="#F27475"/>
<path d="M124.042 122.787C125.333 122.976 126.699 123.014 128.141 122.9C128.217 122.9 128.293 122.9 128.368 122.863C130.531 121.278 131.822 118.675 127.458 114.865C119.337 107.734 108.826 107.47 108.219 101.925C107.687 97.2464 88.0311 90.833 82.0355 88.9844C82.7945 89.9275 83.5154 90.9084 84.0467 91.9648C84.2744 92.4175 84.4641 92.7947 84.6159 93.1343C84.9195 93.7379 85.2989 94.5301 85.7543 95.3979C101.312 94.2661 116.491 112.148 124.042 122.787Z" fill="#F27475"/>
<path d="M83.9326 84.3821C79.6447 84.118 72.7384 76.1577 73.9147 79.5908C74.446 81.2508 76.1915 82.9862 78.1647 84.9102C83.4773 86.6834 106.625 94.4927 109.053 97.624C111.823 101.17 108.788 103.811 114.897 105.094C118.198 105.773 121.158 105.848 122.486 104.943C108.636 91.0596 95.2787 88.3056 95.2787 88.3056C102.451 87.4756 106.814 84.948 109.129 81.6658C99.2252 77.1009 87.3858 71.6683 93.647 67.8202C98.0109 65.1416 99.0354 63.9344 94.33 62.2744C93.8747 62.9535 93.3434 63.9344 92.7742 65.4434C91.0287 70.0083 87.7273 69.8197 84.3121 70.1969C80.8969 70.6119 82.4527 72.4983 83.5911 75.8559C84.6157 79.1758 88.2206 84.6461 83.9326 84.3821Z" fill="#F27475"/>
<path d="M90.801 63.5189C91.0287 62.6512 91.3702 61.9721 91.7496 61.4817C90.4215 61.1044 88.8657 60.7271 87.0443 60.2744C84.6157 62.0098 82.5286 64.3489 80.8589 66.6879C83.8947 65.2166 90.1559 65.9334 90.801 63.5189Z" fill="#F27475"/>
<path d="M125.37 107.998C125.295 108.564 125.446 109.281 125.94 110.299C127.837 114.034 129.924 114.11 132.239 116.788C130 113.506 127.685 110.601 125.37 107.998Z" fill="#F27475"/>
</g>
<defs>
<linearGradient id="paint0_linear_9002_27424" x1="94.9911" y1="25" x2="94.9911" y2="137.236" gradientUnits="userSpaceOnUse">
<stop stop-color="#F4C7BE"/>
<stop offset="0.23" stop-color="#FEE4DF"/>
<stop offset="0.78" stop-color="#DFB1A8"/>
<stop offset="1" stop-color="#F4C7BE"/>
</linearGradient>
</defs>
</svg>
