<svg width="200" height="200" viewBox="0 0 200 200" fill="none" xmlns="http://www.w3.org/2000/svg">
<path d="M89.1015 127.977C89.1015 127.977 73.4226 126.999 61.3635 138.074C52.859 145.826 46.2952 149.648 46.2952 149.648C46.2952 149.648 83.6063 153.73 102.971 143.264C122.335 132.797 118.366 117.206 118.366 117.206L89.1015 127.977Z" fill="#71CE46"/>
<path d="M89.1015 127.977C89.1015 127.977 73.4226 126.999 61.3635 138.074C52.859 145.826 46.2952 149.648 46.2952 149.648C46.2952 149.648 83.6063 153.73 102.971 143.264C122.335 132.797 118.366 117.206 118.366 117.206L89.1015 127.977Z" fill="url(#paint0_linear_7002_10560)"/>
<path opacity="0.45" d="M88.5783 133.253C88.5783 133.253 62.9119 146.282 55.6939 147.281C48.4759 148.28 72.1361 146.673 93.2885 132.233C114.441 117.793 88.5783 133.253 88.5783 133.253Z" fill="#236307"/>
<path d="M105.151 124.177C105.151 124.177 83.9554 134.534 78.9399 153.252C77.915 158.898 74.8621 165 74.8621 165C74.8621 165 88.4476 158.225 101.335 156.358C114.223 154.49 124.036 147.541 128.354 140.767C132.65 133.992 114.637 123.091 114.637 123.091L105.151 124.177Z" fill="url(#paint1_linear_7002_10560)"/>
<path d="M137.141 70.2157C137.141 70.2157 153.714 63.5927 163.789 53.5605C163.789 53.5605 166.035 54.9937 165.185 56.0143C164.334 57.0349 145.341 71.3231 136.465 72.2134C127.59 73.1037 137.141 70.2157 137.141 70.2157Z" fill="#236307"/>
<path d="M132.586 73.0182C132.809 73.7018 133.108 74.3534 133.466 74.9358C133.823 75.5182 134.233 76.02 134.672 76.4126C135.111 76.8051 135.57 77.0807 136.022 77.2236C136.475 77.3665 136.913 77.374 137.31 77.2455C137.708 77.117 138.058 76.8552 138.34 76.4748C138.623 76.0945 138.831 75.6032 138.955 75.029C139.079 74.4548 139.115 73.8088 139.061 73.1281C139.008 72.4474 138.866 71.7452 138.643 71.0616C138.42 70.378 138.121 69.7264 137.764 69.144C137.406 68.5616 136.996 68.0598 136.557 67.6672C136.118 67.2747 135.659 66.9991 135.207 66.8562C134.754 66.7133 134.316 66.7058 133.919 66.8343C133.521 66.9628 133.171 67.2246 132.889 67.605C132.607 67.9853 132.398 68.4766 132.274 69.0508C132.15 69.625 132.114 70.2709 132.168 70.9517C132.221 71.6324 132.363 72.3346 132.586 73.0182Z" fill="#6BC840"/>
<path d="M95.7744 134.534C70.675 140.376 46.1643 130.322 36.1551 111.517C36.1551 111.517 26.1895 110.54 25.1209 104.156C23.987 97.3156 31.4667 93.8847 31.4667 93.8847C30.8561 71.7792 48.6503 50.7378 74.6438 44.6794C103.734 37.9044 132.061 52.5184 137.905 77.3382C143.749 102.158 124.864 127.738 95.7744 134.534Z" fill="url(#paint2_linear_7002_10560)"/>
<path d="M84.5659 43.1812C81.2949 43.42 77.9585 43.8977 74.6439 44.6795C48.6504 50.7161 30.8562 71.7793 31.4668 93.8848C31.4668 93.8848 23.9653 97.294 25.121 104.156C25.3609 105.611 26.0805 106.762 27.0182 107.717C27.4543 100.377 35.2175 97.4026 35.2175 97.4026C38.096 67.4581 75.2108 47.6978 84.5659 43.1812Z" fill="url(#paint3_linear_7002_10560)"/>
<path d="M96.712 43.4854L96.4939 43.7459V43.4854H96.712Z" fill="#FFBB00"/>
<path d="M126.413 49.6523L138.036 59.3584V77.2725L137.447 77.9678H121.441L110.363 68.7178L96.4939 57.1221V43.7461L96.7117 43.4854H119.042L126.413 49.6523Z" fill="url(#paint4_linear_7002_10560)"/>
<path d="M137.447 77.9678L138.036 77.2729V77.9678H137.447Z" fill="#FFB900"/>
<path opacity="0.05" d="M45.0305 123.069C56.8497 134.187 75.2327 139.377 94.1826 135.598L121.615 100.486L128.681 90.8878C128.681 90.8878 86.2232 66.1983 45.0305 123.069Z" fill="white"/>
<path d="M128.572 99.6172C128.572 99.6172 72.9647 135.837 42.6753 120.485C54.6253 134.013 75.4288 140.484 96.6903 135.533C105.958 133.383 114.179 129.301 120.896 123.959L128.572 99.6172Z" fill="#E6BA05"/>
<path d="M88.0549 35.8852C88.0549 35.8852 127.874 77.8379 155.372 60.7919C156.462 60.5965 158.752 58.4467 159.537 59.1416C150.335 51.194 140.522 44.3756 128.921 40.0327C121.833 37.3835 114.332 35.4292 106.743 35.0601C103.123 34.8863 99.6997 35.3423 96.1452 35.7115C95.0112 35.8201 88.9054 36.7755 88.0549 35.8852Z" fill="url(#paint5_linear_7002_10560)"/>
<path d="M152.319 57.5343C152.319 57.5343 122.008 54.8634 97.3445 39.4678C97.3445 39.4895 125.628 51.8668 152.319 57.5343Z" fill="#236307"/>
<path opacity="0.2" d="M99.5469 39.1421C103.232 38.773 106.787 38.2953 110.516 38.469C118.366 38.8599 126.107 40.8576 133.434 43.6154C141.525 46.6554 148.786 50.868 155.568 55.7973C147.521 49.2829 138.886 43.7456 128.942 40.0107C121.855 37.3615 114.354 35.4072 106.765 35.0381C103.145 34.8644 99.7214 35.3204 96.1669 35.6895C95.033 35.7981 88.9271 36.7753 88.0767 35.8632C88.0767 35.8632 89.4723 37.3398 91.9146 39.5982C93.79 39.989 98.5438 39.2507 99.5469 39.1421Z" fill="white"/>
<path opacity="0.45" d="M105.391 139.355C103.45 139.116 89.1015 146.325 82.7122 156.314C82.7122 156.314 109.6 135.164 114.877 141.526C120.132 147.91 105.391 139.355 105.391 139.355Z" fill="#236307"/>
<path d="M121.45 103.08C119.674 103.196 118.545 104.424 118.761 106.35C118.96 108.093 119.889 109.305 121.798 109.487C123.624 109.056 124.587 107.794 124.521 106.051C124.454 104.258 123.276 102.964 121.45 103.08ZM115.142 89.8999C113.3 90.0161 112.32 91.2444 112.536 93.1036C112.768 95.1619 114.146 96.0582 116.088 96.2408C117.997 95.942 118.794 94.7303 118.645 92.9376C118.479 90.8626 117.151 89.7671 115.142 89.8999ZM115.823 115.297C114.063 115.114 113.134 116.392 112.901 117.92C112.636 119.629 113.632 120.625 115.358 120.874C117.117 120.874 118.047 119.779 118.279 118.252C118.545 116.525 117.449 115.463 115.823 115.297ZM127.824 86.7294C125.998 86.9286 124.985 88.3229 125.118 90.2153C125.234 91.8088 125.998 93.0372 127.791 93.0538C129.866 93.087 130.629 91.7756 130.662 89.8169C130.579 88.0241 129.882 86.497 127.824 86.7128V86.7294ZM109.78 101.835C108.038 102.001 106.876 102.93 106.743 104.59C106.577 106.582 107.905 107.777 109.714 108.043C111.557 108.309 112.403 106.964 112.503 105.304C112.619 103.412 111.855 102.051 109.78 101.818V101.835ZM101.448 112.873C99.8872 113.073 99.1569 114.367 99.3229 115.828C99.4889 117.305 100.501 118.202 102.327 118.235C103.705 118.003 104.585 116.924 104.469 115.479C104.336 113.836 103.24 112.641 101.448 112.873ZM66.0577 127.381C64.5804 127.149 63.3852 128.112 63.1031 129.489C62.7047 131.365 64.1156 132.162 65.6926 132.361C67.1035 132.544 68.3153 132.095 68.697 130.419C68.6472 128.693 67.6513 127.614 66.0577 127.365V127.381ZM78.5239 128.128C76.9635 128.576 75.7186 129.323 75.785 131.249C75.8348 132.809 76.4157 134.054 78.0923 134.104C79.8352 134.154 81.047 133.208 81.1964 131.348C81.3458 129.523 80.383 128.477 78.5239 128.112V128.128ZM97.7957 125.406C96.667 126.535 96.2354 127.912 97.3973 129.29C98.7419 130.884 100.219 130.602 101.73 129.357C103.025 128.128 103.738 126.601 102.228 125.174C100.883 123.929 99.1569 124.061 97.8123 125.406H97.7957ZM87.5539 117.156C85.9936 117.604 84.7486 118.351 84.815 120.277C84.8648 121.837 85.4458 123.082 87.1223 123.132C88.8653 123.182 90.077 122.235 90.2264 120.376C90.3758 118.55 89.413 117.505 87.5539 117.139V117.156ZM126.031 80.8034C127.94 80.5046 128.737 79.2929 128.588 77.5002C128.422 75.4252 127.094 74.3297 125.085 74.4625C123.243 74.5787 122.263 75.807 122.479 77.6661C122.711 79.7245 124.089 80.6208 126.031 80.8034Z" fill="#C8990F"/>
<circle cx="76.5" cy="111.5" r="1.5" fill="#C8990F"/>
<circle cx="73.5" cy="121.5" r="1.5" fill="#C8990F"/>
<circle cx="56.5" cy="118.5" r="1.5" fill="#C8990F"/>
<circle cx="64.5" cy="108.5" r="1.5" fill="#C8990F"/>
<circle cx="82.5" cy="100.5" r="1.5" fill="#C8990F"/>
<path d="M153.736 151.776C144.272 156.423 132.976 157.226 122.727 154.447C112.5 151.667 100.179 144.501 94.0516 133.34C93.2665 131.885 91.0205 126.587 90.4317 125.045C94.8366 104.09 98.9581 95.6869 104.606 82.6582C122.902 70.0854 147.238 69.7163 163.2 87.1097C170.353 94.9052 174.605 105.35 174.976 115.903C175.368 127.238 170.942 138.161 162.503 145.848C159.864 148.236 156.898 150.212 153.736 151.776Z" fill="url(#paint6_linear_7002_10560)"/>
<path d="M87.6626 111.3C87.6626 116.236 88.7365 121.124 90.8231 125.684C92.9097 130.245 95.968 134.388 99.8235 137.879C103.679 141.369 108.256 144.138 113.293 146.027C118.331 147.916 123.73 148.888 129.182 148.888C134.635 148.888 140.034 147.916 145.071 146.027C150.109 144.138 154.686 141.369 158.541 137.879C162.397 134.388 165.455 130.245 167.542 125.684C169.628 121.124 170.702 116.236 170.702 111.3C170.702 106.364 169.628 101.476 167.542 96.9156C165.455 92.3552 162.397 88.2116 158.541 84.7212C154.686 81.2308 150.109 78.4621 145.071 76.5731C140.034 74.6842 134.635 73.7119 129.182 73.7119C123.73 73.7119 118.331 74.6842 113.293 76.5731C108.256 78.4621 103.679 81.2308 99.8235 84.7212C95.968 88.2116 92.9097 92.3552 90.8231 96.9156C88.7365 101.476 87.6626 106.364 87.6626 111.3Z" fill="#FFE139"/>
<path d="M96.7994 132.862C96.2324 132.862 95.7309 132.862 95.2075 132.841C102.709 142.525 115.139 148.888 129.204 148.888C152.123 148.888 170.724 132.059 170.724 111.3C170.724 105.154 169.088 99.3566 166.21 94.2319C166.144 94.3622 150.574 133.796 96.7994 132.862Z" fill="#FBD039"/>
<path d="M90.4097 111.105C90.4097 120.4 94.4624 129.314 101.676 135.887C108.89 142.459 118.674 146.152 128.877 146.152C139.079 146.152 148.863 142.459 156.077 135.887C163.291 129.314 167.343 120.4 167.343 111.105C167.343 101.809 163.291 92.8949 156.077 86.3223C148.863 79.7496 139.079 76.0571 128.877 76.0571C118.674 76.0571 108.89 79.7496 101.676 86.3223C94.4624 92.8949 90.4097 101.809 90.4097 111.105Z" fill="#FFF7CD"/>
<path d="M112.348 136.467C112.348 136.467 125.038 110.346 129.051 111.235C132.037 111.907 132.715 139.744 132.694 139.768L132.628 139.745C132.65 139.897 132.65 140.05 132.628 140.201C132.301 142.308 127.503 143.61 121.877 142.698C116.251 141.786 111.912 139.029 112.26 136.923C112.304 136.771 112.348 136.619 112.413 136.488L112.348 136.467ZM131.493 111.235C133.234 109.632 153.624 128.717 153.714 128.802L154.368 129.345C154.499 129.453 154.783 129.974 154.892 130.105C156.178 131.777 155.154 134.209 150.618 137.64C146.083 141.07 138.953 141.505 137.665 139.812C137.578 139.681 137.49 139.551 137.447 139.399L137.381 139.443C137.381 139.443 129.487 113.08 131.493 111.235ZM96.385 111.3C96.4185 111.296 123.47 108.131 125.366 110.279C126.955 112.082 108.447 133.812 108.401 133.84L107.79 134.426C107.703 134.556 107.157 134.774 107.027 134.861C105.238 135.99 100.07 131.43 97.0393 126.631C94.0083 121.832 94.1826 112.669 95.9924 111.539C96.1233 111.452 96.385 111.3 96.385 111.3ZM133.98 108.477C134.895 105.574 162.709 107.275 162.829 107.282L162.808 107.348C162.96 107.348 163.113 107.347 163.266 107.391C165.337 107.912 166.21 112.777 164.836 118.292C163.441 123.807 160.3 127.868 158.229 127.347C158.098 127.325 157.945 127.26 157.814 127.173L157.792 127.238C157.734 127.204 132.738 112.381 133.98 108.477ZM94.2913 99.4436C95.7305 95.1006 98.9149 91.9087 100.987 92.343C101.117 92.3864 101.27 92.4302 101.401 92.4953L101.422 92.4299C101.422 92.4299 126.303 104.394 125.017 107.478C124.081 109.753 96.2812 108.158 96.1672 108.152L96.1887 108.086C96.0361 108.086 95.8834 108.064 95.7307 108.042C93.6592 107.608 92.8303 103.765 94.2913 99.4436ZM148.459 86.2414C150.226 85.3945 157.334 89.0857 160.3 92.9074C163.265 96.7506 163.091 102.309 161.325 103.156C161.195 103.222 161.063 103.266 160.91 103.287L160.954 103.33C160.954 103.33 133.937 107.76 132.584 105.98C131.366 104.398 147.038 87.0768 147.107 87.0227L147.696 86.5666C147.805 86.458 148.328 86.3066 148.459 86.2414ZM125.715 79.4875C126.086 77.7939 130.339 76.8388 135.943 77.5988C141.569 78.3589 146.518 81.7899 146.148 83.4836C146.126 83.592 146.082 83.7219 145.995 83.8303H146.061C146.061 83.8303 131.822 106.781 129.139 105.958C126.239 105.046 125.715 81.0725 125.715 81.0725V80.4865C125.693 80.3562 125.693 79.6178 125.715 79.4875ZM110.036 81.3557C114.616 78.6849 120.416 79.2487 121.681 80.5949C121.768 80.7035 121.855 80.7908 121.899 80.9211L121.964 80.8772C121.964 80.8772 127.524 102.417 126.478 104.264C125.409 106.153 104.453 90.1711 104.453 90.1711L103.821 89.7375C103.69 89.6719 103.429 89.2374 103.32 89.1506C102.055 87.8042 105.457 84.0265 110.036 81.3557Z" fill="#DFE311"/>
<path d="M132.061 126.5C132.561 133.264 132.714 139.747 132.715 139.768L132.65 139.746C132.671 139.898 132.671 140.05 132.65 140.202C132.3 142.308 127.503 143.611 121.856 142.721C116.229 141.809 111.889 139.051 112.238 136.944C112.282 136.793 112.325 136.641 112.391 136.511L112.325 136.488C112.336 136.466 113.338 134.409 114.856 131.494C121.288 130.387 127.023 128.65 132.061 126.5ZM143.945 120.008C149.026 124.416 153.715 128.802 153.715 128.802L154.369 129.345C154.5 129.453 154.783 129.973 154.87 130.126C156.157 131.798 155.132 134.23 150.597 137.661C146.061 141.092 138.931 141.526 137.644 139.833C137.556 139.703 137.469 139.572 137.425 139.42L137.36 139.464C137.36 139.464 135.354 132.71 133.609 125.805C137.447 124.046 140.893 122.092 143.945 120.008ZM158.142 107.044C160.955 107.174 162.83 107.283 162.83 107.283L162.808 107.348C162.96 107.348 163.113 107.348 163.266 107.392C165.337 107.913 166.232 112.798 164.836 118.292C163.44 123.808 160.3 127.868 158.229 127.347C158.098 127.325 157.945 127.261 157.815 127.174L157.792 127.238C157.73 127.202 151.33 123.396 145.189 119.139C150.706 115.208 154.958 110.931 158.142 107.044Z" fill="#CED20D"/>
<path opacity="0.4" d="M99.7003 100.915C100.183 102.012 101.143 102.848 102.368 103.238C103.593 103.628 104.984 103.541 106.234 102.996C107.484 102.45 108.492 101.491 109.034 100.33C109.577 99.1685 109.611 97.8995 109.128 96.8023C108.645 95.7051 107.686 94.8695 106.46 94.4793C105.235 94.0891 103.844 94.1763 102.594 94.7217C101.344 95.2671 100.337 96.226 99.7939 97.3875C99.2512 98.549 99.2175 99.8179 99.7003 100.915Z" fill="white"/>
<path d="M105.805 101.767C105.805 102.446 106.077 103.098 106.559 103.579C107.042 104.059 107.696 104.329 108.379 104.329C109.061 104.329 109.716 104.059 110.198 103.579C110.681 103.098 110.952 102.446 110.952 101.767C110.952 101.087 110.681 100.436 110.198 99.9551C109.716 99.4745 109.061 99.2046 108.379 99.2046C107.696 99.2046 107.042 99.4745 106.559 99.9551C106.077 100.436 105.805 101.087 105.805 101.767Z" fill="white"/>
<path d="M110.3 115.63C109.214 115.611 108.358 114.869 108.377 113.974C108.396 113.079 109.291 112.393 110.357 112.412C111.443 112.431 112.299 113.174 112.28 114.069C112.261 114.964 111.366 115.649 110.3 115.63ZM101.216 116.335C99.9595 116.335 98.9502 115.497 98.9502 114.45C98.9502 113.421 99.9785 112.564 101.216 112.564C102.473 112.564 103.482 113.402 103.482 114.45C103.502 115.497 102.473 116.335 101.216 116.335Z" fill="#F6FF91"/>
<path d="M113.447 106.554C112.533 106.002 112.152 104.916 112.609 104.155C113.066 103.393 114.19 103.24 115.123 103.793C116.037 104.345 116.418 105.43 115.961 106.192C115.485 106.935 114.361 107.106 113.447 106.554ZM100.239 102.612C99.1539 101.984 98.6968 100.746 99.211 99.8508C99.7252 98.9557 101.039 98.7272 102.125 99.3556C103.21 99.9841 103.667 101.222 103.153 102.117C102.62 103.031 101.325 103.24 100.239 102.612Z" fill="#F6FF91"/>
<path d="M119.502 96.6466C118.988 95.6945 119.198 94.59 119.979 94.152C120.759 93.733 121.807 94.152 122.321 95.0851C122.835 96.0373 122.626 97.1418 121.845 97.5798C121.064 98.0177 120.017 97.5988 119.502 96.6466ZM114.361 89.1246C113.732 88.0391 113.942 86.7252 114.856 86.211C115.751 85.6968 116.989 86.1539 117.617 87.2393C118.246 88.3248 118.036 89.6388 117.122 90.1529C116.227 90.6861 114.989 90.2291 114.361 89.1246Z" fill="#F6FF91"/>
<path d="M128.705 95.3307C128.724 94.2452 129.466 93.3883 130.361 93.4073C131.256 93.4263 131.942 94.3214 131.923 95.3878C131.904 96.4732 131.161 97.3302 130.266 97.3111C129.371 97.3111 128.686 96.4161 128.705 95.3307ZM128 86.2661C128 85.0093 128.838 84 129.885 84C130.914 84 131.771 85.0283 131.771 86.2661C131.771 87.523 130.933 88.5323 129.885 88.5323C128.838 88.5323 128 87.523 128 86.2661Z" fill="#F6FF91"/>
<path d="M133.325 91.4469C133.877 90.5329 134.963 90.152 135.725 90.609C136.486 91.0661 136.639 92.1896 136.086 93.1227C135.534 94.0368 134.449 94.4176 133.687 93.9606C132.944 93.5036 132.773 92.38 133.325 91.4469ZM137.267 83.2393C137.895 82.1539 139.133 81.6968 140.028 82.211C140.923 82.7252 141.152 84.0391 140.523 85.1246C139.895 86.2101 138.657 86.6671 137.762 86.1529C136.848 85.6388 136.639 84.3438 137.267 83.2393Z" fill="#F6FF91"/>
<path d="M143.104 99.5025C144.056 98.9883 145.161 99.1978 145.599 99.9786C146.017 100.759 145.599 101.807 144.665 102.321C143.713 102.835 142.609 102.626 142.171 101.845C141.733 101.064 142.171 100.017 143.104 99.5025ZM150.626 94.3609C151.711 93.7324 153.025 93.9419 153.539 94.856C154.054 95.751 153.597 96.9888 152.511 97.6172C151.426 98.2456 150.112 98.0362 149.598 97.1221C149.064 96.208 149.521 94.9893 150.626 94.3609Z" fill="#F6FF91"/>
<path d="M146.92 111.688C148.005 111.708 148.862 112.45 148.843 113.345C148.824 114.24 147.929 114.926 146.863 114.907C145.777 114.888 144.92 114.145 144.94 113.25C144.94 112.374 145.835 111.669 146.92 111.688ZM155.985 111.003C157.241 111.003 158.251 111.841 158.251 112.888C158.251 113.917 157.222 114.773 155.985 114.773C154.728 114.773 153.718 113.936 153.718 112.888C153.718 111.841 154.728 111.003 155.985 111.003Z" fill="#F6FF91"/>
<path d="M137.707 120.331C138.621 120.883 139.002 121.968 138.545 122.73C138.088 123.492 136.965 123.644 136.032 123.092C135.117 122.54 134.737 121.454 135.194 120.692C135.651 119.931 136.774 119.778 137.707 120.331ZM145.915 124.273C147 124.901 147.457 126.139 146.943 127.034C146.429 127.929 145.115 128.157 144.03 127.529C142.944 126.9 142.487 125.663 143.001 124.768C143.516 123.854 144.81 123.625 145.915 124.273Z" fill="#F6FF91"/>
<path d="M140.455 128.541C140.969 129.494 140.76 130.598 139.979 131.036C139.198 131.455 138.151 131.036 137.636 130.103C137.122 129.151 137.332 128.046 138.113 127.608C138.893 127.17 139.941 127.589 140.455 128.541ZM145.596 136.044C146.225 137.13 146.015 138.444 145.101 138.958C144.206 139.472 142.969 139.015 142.34 137.93C141.712 136.844 141.921 135.53 142.835 135.016C143.749 134.502 144.968 134.959 145.596 136.044Z" fill="#F6FF91"/>
<path d="M129.219 126.981C129.2 128.066 128.457 128.923 127.562 128.904C126.667 128.885 125.981 127.99 126 126.924C126.019 125.838 126.762 124.981 127.657 125C128.533 125.019 129.238 125.914 129.219 126.981ZM129.904 136.064C129.904 137.321 129.066 138.33 128.019 138.33C126.991 138.33 126.134 137.321 126.134 136.064C126.134 134.808 126.972 133.798 128.019 133.798C129.066 133.779 129.904 134.808 129.904 136.064Z" fill="#F6FF91"/>
<path d="M121.155 130.503C120.602 131.417 119.517 131.798 118.755 131.341C117.993 130.884 117.841 129.761 118.393 128.827C118.946 127.913 120.031 127.533 120.793 127.99C121.555 128.466 121.707 129.589 121.155 130.503ZM117.232 138.711C116.603 139.796 115.365 140.253 114.47 139.739C113.575 139.225 113.347 137.911 113.975 136.826C114.604 135.74 115.842 135.283 116.737 135.797C117.632 136.33 117.86 137.625 117.232 138.711Z" fill="#F6FF91"/>
<path d="M113.728 124.523C112.776 125.038 111.671 124.828 111.233 124.047C110.814 123.267 111.233 122.219 112.166 121.705C113.118 121.191 114.223 121.4 114.661 122.181C115.099 122.962 114.68 124.009 113.728 124.523ZM106.225 129.665C105.139 130.294 103.825 130.084 103.311 129.17C102.797 128.275 103.254 127.037 104.339 126.409C105.425 125.78 106.739 125.99 107.253 126.904C107.767 127.799 107.31 129.037 106.225 129.665Z" fill="#F6FF91"/>
<path opacity="0.4" d="M51.1403 67.3489C51.4549 67.9573 51.9976 68.4413 52.7375 68.7731C53.4773 69.105 54.3997 69.2782 55.4522 69.2829C56.5046 69.2877 57.6663 69.1238 58.8711 68.8006C60.0759 68.4775 61.3 68.0014 62.4737 67.3996C63.6475 66.7979 64.7477 66.0821 65.7117 65.2933C66.6756 64.5044 67.4844 63.658 68.0919 62.8022C68.6993 61.9464 69.0936 61.0981 69.2521 60.3056C69.4105 59.5132 69.3302 58.7922 69.0155 58.1837C68.3801 56.9548 66.8291 56.2591 64.7037 56.2496C62.5782 56.2401 60.0525 56.9175 57.6821 58.1329C55.3117 59.3483 53.2908 61.002 52.0639 62.7304C50.8371 64.4587 50.5049 66.12 51.1403 67.3489Z" fill="white"/>
<path d="M58.7792 69.4472C59.0601 70.1292 59.7079 70.6288 60.58 70.836C61.4521 71.0432 62.4772 70.9411 63.4296 70.5521C64.3821 70.163 65.1839 69.519 65.6588 68.7617C66.1336 68.0044 66.2426 67.1958 65.9617 66.5137C65.8226 66.176 65.5919 65.8796 65.283 65.6413C64.974 65.403 64.5927 65.2276 64.1608 65.125C63.729 65.0224 63.2551 64.9946 62.7661 65.0434C62.2772 65.0921 61.7828 65.2163 61.3112 65.4089C60.8396 65.6015 60.4 65.8588 60.0175 66.1659C59.635 66.4731 59.3172 66.8242 59.082 67.1992C58.8469 67.5742 58.6992 67.9658 58.6472 68.3515C58.5952 68.7372 58.6401 69.1095 58.7792 69.4472Z" fill="white"/>
<defs>
<linearGradient id="paint0_linear_7002_10560" x1="82.4983" y1="117.206" x2="82.4983" y2="150.432" gradientUnits="userSpaceOnUse">
<stop stop-color="#76E043"/>
<stop offset="1" stop-color="#3B8916"/>
</linearGradient>
<linearGradient id="paint1_linear_7002_10560" x1="101.939" y1="123.091" x2="101.939" y2="165" gradientUnits="userSpaceOnUse">
<stop stop-color="#76E043"/>
<stop offset="1" stop-color="#3B8916"/>
</linearGradient>
<linearGradient id="paint2_linear_7002_10560" x1="81.9849" y1="43.0225" x2="81.9849" y2="136.192" gradientUnits="userSpaceOnUse">
<stop stop-color="#F4C533"/>
<stop offset="0.305" stop-color="#F0CC0F"/>
<stop offset="1" stop-color="#F0B912"/>
</linearGradient>
<linearGradient id="paint3_linear_7002_10560" x1="46.5" y1="59" x2="52" y2="69" gradientUnits="userSpaceOnUse">
<stop stop-color="#FFE793"/>
<stop offset="1" stop-color="#FDE153"/>
</linearGradient>
<linearGradient id="paint4_linear_7002_10560" x1="115.5" y1="46.5" x2="90.5" y2="58.5001" gradientUnits="userSpaceOnUse">
<stop stop-color="#E2C11A"/>
<stop offset="1" stop-color="#FADE54"/>
</linearGradient>
<linearGradient id="paint5_linear_7002_10560" x1="123.796" y1="35.022" x2="123.796" y2="64.8663" gradientUnits="userSpaceOnUse">
<stop stop-color="#76E043"/>
<stop offset="1" stop-color="#3B8916"/>
</linearGradient>
<linearGradient id="paint6_linear_7002_10560" x1="132.716" y1="73.5942" x2="132.716" y2="156.049" gradientUnits="userSpaceOnUse">
<stop stop-color="#F7C838"/>
<stop offset="0.64" stop-color="#ECB91D"/>
<stop offset="1" stop-color="#DEAC13"/>
</linearGradient>
</defs>
</svg>
