<svg width="200" height="200" viewBox="0 0 200 200" fill="none" xmlns="http://www.w3.org/2000/svg">
<path d="M133.513 71.3769C131.977 67.7084 126.883 65.7519 124.295 62.8172C110.307 46.6761 85.4832 40.8881 61.3066 51.0782C40.2025 59.964 28.2355 77.6539 25.4863 96.6483C24.516 103.414 21.4434 111.404 24.0308 117.681C25.9714 122.327 31.7124 125.425 35.2702 128.849C50.0672 143.034 74.2439 147.354 97.2886 137.572C121.708 127.219 135.049 104.882 133.109 83.3604C132.705 79.692 134.888 74.8007 133.513 71.3769Z" fill="#EFDF14"/>
<path opacity="0.3" d="M124.295 62.737C111.762 48.3078 90.5773 42.1122 68.9072 48.3078C80.7934 47.9817 79.338 51.0795 93.4073 62.8185C107.8 74.802 128.823 68.1173 128.823 68.1173C129.228 67.8728 129.632 67.5467 129.955 67.2206C128.015 65.7532 125.751 64.4489 124.295 62.737Z" fill="#999918"/>
<g opacity="0.4" style="mix-blend-mode:soft-light">
<path d="M133.513 71.3781C132.705 69.5031 131.007 68.0358 129.147 66.6499C129.147 66.6499 132.785 73.4976 127.853 77.003C122.921 80.5084 124.053 111.323 78.0442 121.513C32.0358 131.785 31.9549 119.312 27.5077 116.541C25.0011 114.992 24.3543 110.019 23.3031 107.981C22.8179 111.323 22.8179 114.666 24.0308 117.6C25.9714 122.247 31.7124 125.345 35.2701 128.769C50.0672 142.953 74.2439 147.274 97.2885 137.491C121.708 127.138 135.049 104.802 133.109 83.2801C132.705 79.6932 134.888 74.802 133.513 71.3781Z" fill="#514004"/>
</g>
<g opacity="0.3" style="mix-blend-mode:soft-light">
<path d="M133.917 73.4155C133.917 73.4155 130.926 78.7144 129.874 82.3013C128.823 85.8067 111.034 148.333 45.3774 136.186C59.8511 144.175 78.9337 145.317 97.2885 137.572C121.708 127.219 135.049 104.883 133.109 83.3611C132.785 80.3448 134.16 76.5948 133.917 73.4155Z" fill="#595916"/>
</g>
<g opacity="0.3" style="mix-blend-mode:soft-light">
<path d="M77.3974 53.4427C67.6135 57.3557 48.6927 65.7523 41.4154 82.6271C41.4154 82.6271 50.0673 91.7574 74.3248 79.4478C98.6632 67.2197 87.2621 49.6112 77.3974 53.4427Z" fill="white"/>
</g>
<g opacity="0.3" style="mix-blend-mode:soft-light">
<path d="M68.6647 61.2693C63.6515 63.2258 53.9485 67.5464 50.229 76.2691C50.229 76.2691 54.6762 80.9158 67.1284 74.6387C79.5806 68.2801 73.6779 59.2313 68.6647 61.2693Z" fill="white"/>
</g>
<g opacity="0.6">
<path d="M59.0427 91.7571C59.4446 91.7571 59.7704 91.2097 59.7704 90.5343C59.7704 89.859 59.4446 89.3115 59.0427 89.3115C58.6408 89.3115 58.3149 89.859 58.3149 90.5343C58.3149 91.2097 58.6408 91.7571 59.0427 91.7571Z" fill="#BAA408"/>
<path d="M72.7077 89.3123C73.1096 89.3123 73.4354 88.7648 73.4354 88.0895C73.4354 87.4142 73.1096 86.8667 72.7077 86.8667C72.3058 86.8667 71.98 87.4142 71.98 88.0895C71.98 88.7648 72.3058 89.3123 72.7077 89.3123Z" fill="#BAA408"/>
<path d="M68.9073 101.703C69.3092 101.703 69.635 101.155 69.635 100.48C69.635 99.8048 69.3092 99.2573 68.9073 99.2573C68.5054 99.2573 68.1796 99.8048 68.1796 100.48C68.1796 101.155 68.5054 101.703 68.9073 101.703Z" fill="#BAA408"/>
<path d="M49.5013 101.703C49.9032 101.703 50.229 101.155 50.229 100.48C50.229 99.8048 49.9032 99.2573 49.5013 99.2573C49.0994 99.2573 48.7736 99.8048 48.7736 100.48C48.7736 101.155 49.0994 101.703 49.5013 101.703Z" fill="#BAA408"/>
<path d="M61.7109 105.534C62.1128 105.534 62.4386 104.987 62.4386 104.311C62.4386 103.636 62.1128 103.088 61.7109 103.088C61.309 103.088 60.9832 103.636 60.9832 104.311C60.9832 104.987 61.309 105.534 61.7109 105.534Z" fill="#BAA408"/>
<path d="M75.4569 103.171C75.8588 103.171 76.1846 102.623 76.1846 101.948C76.1846 101.273 75.8588 100.725 75.4569 100.725C75.0549 100.725 74.7291 101.273 74.7291 101.948C74.7291 102.623 75.0549 103.171 75.4569 103.171Z" fill="#BAA408"/>
<path d="M71.6564 115.48C72.0583 115.48 72.3842 114.933 72.3842 114.257C72.3842 113.582 72.0583 113.035 71.6564 113.035C71.2545 113.035 70.9287 113.582 70.9287 114.257C70.9287 114.933 71.2545 115.48 71.6564 115.48Z" fill="#BAA408"/>
<path d="M52.1696 115.48C52.5715 115.48 52.8973 114.933 52.8973 114.257C52.8973 113.582 52.5715 113.035 52.1696 113.035C51.7677 113.035 51.4419 113.582 51.4419 114.257C51.4419 114.933 51.7677 115.48 52.1696 115.48Z" fill="#BAA408"/>
<path d="M41.9006 84.3392C42.3025 84.3392 42.6283 83.7917 42.6283 83.1164C42.6283 82.441 42.3025 81.8936 41.9006 81.8936C41.4987 81.8936 41.1729 82.441 41.1729 83.1164C41.1729 83.7917 41.4987 84.3392 41.9006 84.3392Z" fill="#BAA408"/>
<path d="M55.6464 81.9749C56.0483 81.9749 56.3742 81.4274 56.3742 80.7521C56.3742 80.0768 56.0483 79.5293 55.6464 79.5293C55.2445 79.5293 54.9187 80.0768 54.9187 80.7521C54.9187 81.4274 55.2445 81.9749 55.6464 81.9749Z" fill="#BAA408"/>
<path d="M51.8461 94.2845C52.248 94.2845 52.5739 93.737 52.5739 93.0617C52.5739 92.3863 52.248 91.8389 51.8461 91.8389C51.4442 91.8389 51.1184 92.3863 51.1184 93.0617C51.1184 93.737 51.4442 94.2845 51.8461 94.2845Z" fill="#BAA408"/>
<path d="M32.3593 94.2845C32.7612 94.2845 33.087 93.737 33.087 93.0617C33.087 92.3863 32.7612 91.8389 32.3593 91.8389C31.9574 91.8389 31.6316 92.3863 31.6316 93.0617C31.6316 93.737 31.9574 94.2845 32.3593 94.2845Z" fill="#BAA408"/>
<path d="M37.4533 109.284C37.8552 109.284 38.181 108.737 38.181 108.062C38.181 107.386 37.8552 106.839 37.4533 106.839C37.0514 106.839 36.7256 107.386 36.7256 108.062C36.7256 108.737 37.0514 109.284 37.4533 109.284Z" fill="#BAA408"/>
<path d="M41.1728 123.143C41.5747 123.143 41.9005 122.595 41.9005 121.92C41.9005 121.245 41.5747 120.697 41.1728 120.697C40.7709 120.697 40.4451 121.245 40.4451 121.92C40.4451 122.595 40.7709 123.143 41.1728 123.143Z" fill="#BAA408"/>
<path d="M74.5673 80.7518C74.9692 80.7518 75.295 80.2043 75.295 79.529C75.295 78.8536 74.9692 78.3062 74.5673 78.3062C74.1654 78.3062 73.8396 78.8536 73.8396 79.529C73.8396 80.2043 74.1654 80.7518 74.5673 80.7518Z" fill="#BAA408"/>
<path d="M106.426 69.095C106.828 69.095 107.153 68.5476 107.153 67.8722C107.153 67.1969 106.828 66.6494 106.426 66.6494C106.024 66.6494 105.698 67.1969 105.698 67.8722C105.698 68.5476 106.024 69.095 106.426 69.095Z" fill="#BAA408"/>
<path d="M94.216 81.9749C94.6179 81.9749 94.9437 81.4274 94.9437 80.7521C94.9437 80.0768 94.6179 79.5293 94.216 79.5293C93.8141 79.5293 93.4883 80.0768 93.4883 80.7521C93.4883 81.4274 93.8141 81.9749 94.216 81.9749Z" fill="#BAA408"/>
<path d="M89.6879 71.4593C90.0898 71.4593 90.4157 70.9118 90.4157 70.2365C90.4157 69.5611 90.0898 69.0137 89.6879 69.0137C89.286 69.0137 88.9602 69.5611 88.9602 70.2365C88.9602 70.9118 89.286 71.4593 89.6879 71.4593Z" fill="#BAA408"/>
<path d="M94.9437 59.8831C95.3456 59.8831 95.6714 59.3356 95.6714 58.6603C95.6714 57.985 95.3456 57.4375 94.9437 57.4375C94.5418 57.4375 94.2159 57.985 94.2159 58.6603C94.2159 59.3356 94.5418 59.8831 94.9437 59.8831Z" fill="#BAA408"/>
<path d="M68.1796 57.1116C68.5815 57.1116 68.9074 56.5642 68.9074 55.8888C68.9074 55.2135 68.5815 54.666 68.1796 54.666C67.7777 54.666 67.4519 55.2135 67.4519 55.8888C67.4519 56.5642 67.7777 57.1116 68.1796 57.1116Z" fill="#BAA408"/>
<path d="M49.5013 64.1219C49.9032 64.1219 50.229 63.5744 50.229 62.8991C50.229 62.2237 49.9032 61.6763 49.5013 61.6763C49.0994 61.6763 48.7736 62.2237 48.7736 62.8991C48.7736 63.5744 49.0994 64.1219 49.5013 64.1219Z" fill="#BAA408"/>
<path d="M81.1169 87.1107C81.5188 87.1107 81.8446 86.5632 81.8446 85.8878C81.8446 85.2125 81.5188 84.665 81.1169 84.665C80.715 84.665 80.3892 85.2125 80.3892 85.8878C80.3892 86.5632 80.715 87.1107 81.1169 87.1107Z" fill="#BAA408"/>
<path d="M115.886 94.2845C116.288 94.2845 116.614 93.737 116.614 93.0617C116.614 92.3863 116.288 91.8389 115.886 91.8389C115.484 91.8389 115.158 92.3863 115.158 93.0617C115.158 93.737 115.484 94.2845 115.886 94.2845Z" fill="#BAA408"/>
<path d="M117.422 79.5291C117.824 79.5291 118.15 78.9816 118.15 78.3063C118.15 77.631 117.824 77.0835 117.422 77.0835C117.02 77.0835 116.695 77.631 116.695 78.3063C116.695 78.9816 117.02 79.5291 117.422 79.5291Z" fill="#BAA408"/>
<path d="M71.6564 126.975C72.0583 126.975 72.3842 126.427 72.3842 125.752C72.3842 125.077 72.0583 124.529 71.6564 124.529C71.2545 124.529 70.9287 125.077 70.9287 125.752C70.9287 126.427 71.2545 126.975 71.6564 126.975Z" fill="#BAA408"/>
<path d="M59.0425 130.806C59.4445 130.806 59.7703 130.259 59.7703 129.584C59.7703 128.908 59.4445 128.361 59.0425 128.361C58.6406 128.361 58.3148 128.908 58.3148 129.584C58.3148 130.259 58.6406 130.806 59.0425 130.806Z" fill="#BAA408"/>
<path d="M59.7702 120.779C60.1721 120.779 60.4979 120.232 60.4979 119.556C60.4979 118.881 60.1721 118.333 59.7702 118.333C59.3683 118.333 59.0425 118.881 59.0425 119.556C59.0425 120.232 59.3683 120.779 59.7702 120.779Z" fill="#BAA408"/>
<path d="M92.6796 125.752C93.0815 125.752 93.4074 125.205 93.4074 124.529C93.4074 123.854 93.0815 123.307 92.6796 123.307C92.2777 123.307 91.9519 123.854 91.9519 124.529C91.9519 125.205 92.2777 125.752 92.6796 125.752Z" fill="#BAA408"/>
<path d="M118.959 69.4212C119.361 69.4212 119.686 68.8737 119.686 68.1984C119.686 67.5231 119.361 66.9756 118.959 66.9756C118.557 66.9756 118.231 67.5231 118.231 68.1984C118.231 68.8737 118.557 69.4212 118.959 69.4212Z" fill="#BAA408"/>
<path d="M105.617 59.8831C106.019 59.8831 106.345 59.3356 106.345 58.6603C106.345 57.985 106.019 57.4375 105.617 57.4375C105.215 57.4375 104.889 57.985 104.889 58.6603C104.889 59.3356 105.215 59.8831 105.617 59.8831Z" fill="#BAA408"/>
<path d="M40.3642 95.5076C40.7661 95.5076 41.0919 94.9602 41.0919 94.2848C41.0919 93.6095 40.7661 93.062 40.3642 93.062C39.9623 93.062 39.6365 93.6095 39.6365 94.2848C39.6365 94.9602 39.9623 95.5076 40.3642 95.5076Z" fill="white"/>
<path d="M63.2473 114.257C63.6492 114.257 63.975 113.71 63.975 113.034C63.975 112.359 63.6492 111.812 63.2473 111.812C62.8453 111.812 62.5195 112.359 62.5195 113.034C62.5195 113.71 62.8453 114.257 63.2473 114.257Z" fill="white"/>
<path d="M83.947 109.284C84.3489 109.284 84.6747 108.737 84.6747 108.062C84.6747 107.386 84.3489 106.839 83.947 106.839C83.5451 106.839 83.2192 107.386 83.2192 108.062C83.2192 108.737 83.5451 109.284 83.947 109.284Z" fill="white"/>
<path d="M73.7587 74.6385C74.1606 74.6385 74.4865 74.091 74.4865 73.4157C74.4865 72.7403 74.1606 72.1929 73.7587 72.1929C73.3568 72.1929 73.031 72.7403 73.031 73.4157C73.031 74.091 73.3568 74.6385 73.7587 74.6385Z" fill="white"/>
<path d="M102.625 77.0838C103.027 77.0838 103.353 76.5363 103.353 75.861C103.353 75.1857 103.027 74.6382 102.625 74.6382C102.223 74.6382 101.897 75.1857 101.897 75.861C101.897 76.5363 102.223 77.0838 102.625 77.0838Z" fill="white"/>
<path d="M111.034 90.5355C111.436 90.5355 111.762 89.988 111.762 89.3127C111.762 88.6373 111.436 88.0898 111.034 88.0898C110.633 88.0898 110.307 88.6373 110.307 89.3127C110.307 89.988 110.633 90.5355 111.034 90.5355Z" fill="white"/>
<path d="M47.965 113.116C48.3669 113.116 48.6928 112.569 48.6928 111.893C48.6928 111.218 48.3669 110.67 47.965 110.67C47.5631 110.67 47.2373 111.218 47.2373 111.893C47.2373 112.569 47.5631 113.116 47.965 113.116Z" fill="white"/>
<path d="M31.6315 116.702C32.0334 116.702 32.3593 116.155 32.3593 115.48C32.3593 114.804 32.0334 114.257 31.6315 114.257C31.2296 114.257 30.9038 114.804 30.9038 115.48C30.9038 116.155 31.2296 116.702 31.6315 116.702Z" fill="white"/>
<path d="M108.69 111.894C109.092 111.894 109.417 111.346 109.417 110.671C109.417 109.996 109.092 109.448 108.69 109.448C108.288 109.448 107.962 109.996 107.962 110.671C107.962 111.346 108.288 111.894 108.69 111.894Z" fill="white"/>
<path d="M92.6796 86.7855C93.0815 86.7855 93.4074 86.238 93.4074 85.5627C93.4074 84.8873 93.0815 84.3398 92.6796 84.3398C92.2777 84.3398 91.9519 84.8873 91.9519 85.5627C91.9519 86.238 92.2777 86.7855 92.6796 86.7855Z" fill="#BAA408"/>
<path d="M106.426 84.3392C106.828 84.3392 107.153 83.7917 107.153 83.1164C107.153 82.441 106.828 81.8936 106.426 81.8936C106.024 81.8936 105.698 82.441 105.698 83.1164C105.698 83.7917 106.024 84.3392 106.426 84.3392Z" fill="#BAA408"/>
<path d="M102.625 96.7303C103.027 96.7303 103.353 96.1828 103.353 95.5075C103.353 94.8321 103.027 94.2847 102.625 94.2847C102.223 94.2847 101.897 94.8321 101.897 95.5075C101.897 96.1828 102.223 96.7303 102.625 96.7303Z" fill="#BAA408"/>
<path d="M83.1384 96.7303C83.5403 96.7303 83.8661 96.1828 83.8661 95.5075C83.8661 94.8321 83.5403 94.2847 83.1384 94.2847C82.7365 94.2847 82.4106 94.8321 82.4106 95.5075C82.4106 96.1828 82.7365 96.7303 83.1384 96.7303Z" fill="#BAA408"/>
<path d="M93.4882 105.534C93.8901 105.534 94.2159 104.987 94.2159 104.311C94.2159 103.636 93.8901 103.088 93.4882 103.088C93.0863 103.088 92.7605 103.636 92.7605 104.311C92.7605 104.987 93.0863 105.534 93.4882 105.534Z" fill="#BAA408"/>
<path d="M107.153 103.171C107.555 103.171 107.881 102.623 107.881 101.948C107.881 101.273 107.555 100.725 107.153 100.725C106.751 100.725 106.426 101.273 106.426 101.948C106.426 102.623 106.751 103.171 107.153 103.171Z" fill="#BAA408"/>
<path d="M103.353 115.48C103.755 115.48 104.081 114.933 104.081 114.257C104.081 113.582 103.755 113.035 103.353 113.035C102.951 113.035 102.625 113.582 102.625 114.257C102.625 114.933 102.951 115.48 103.353 115.48Z" fill="#BAA408"/>
<path d="M83.947 115.48C84.3489 115.48 84.6747 114.933 84.6747 114.257C84.6747 113.582 84.3489 113.035 83.947 113.035C83.5451 113.035 83.2192 113.582 83.2192 114.257C83.2192 114.933 83.5451 115.48 83.947 115.48Z" fill="#BAA408"/>
</g>
<path d="M143.054 56.5411C143.054 56.5411 139.82 65.6714 128.823 68.1986C128.823 68.1986 127.853 74.1496 132.381 74.6387C132.381 74.6387 140.467 64.3671 149.119 59.8835C149.119 59.8835 148.31 55.3183 143.054 56.5411Z" fill="#197F36"/>
<path d="M143.054 56.5408C143.054 56.5408 143.701 59.8831 149.2 59.8831C149.119 59.8016 148.229 55.3179 143.054 56.5408Z" fill="#49C15A"/>
<path d="M128.985 71.459L129.47 72.7633C138.203 70.3992 144.995 58.9048 144.995 58.9048C137.96 69.5025 128.985 71.459 128.985 71.459Z" fill="#0F5E23"/>
<path d="M136.99 59.8832C135.777 58.9865 135.211 60.6984 135.535 60.943C135.535 60.943 139.982 61.4321 140.386 62.0027C140.79 62.5734 141.842 60.943 141.599 60.7799C141.356 60.5354 138.203 60.6984 136.99 59.8832Z" fill="#316602"/>
<path d="M109.579 34.2039C90.0923 30.1278 69.3926 37.7093 69.3926 37.7093C69.3926 37.7093 86.858 40.7255 90.9009 50.508C94.9438 60.2905 109.66 73.5784 137.475 60.0459C137.395 60.0459 129.066 38.2799 109.579 34.2039Z" fill="#3E8903"/>
<path d="M92.437 49.693C88.0706 40.0735 70.5244 37.6279 70.5244 37.6279C70.5244 37.6279 72.6267 36.8127 76.1036 35.7529C71.9798 36.8127 69.3923 37.7094 69.3923 37.7094C69.3923 37.7094 86.8578 40.7257 90.9007 50.5082C94.9436 60.2907 109.66 73.5785 137.475 60.0461C137.475 60.0461 137.313 59.6385 136.99 58.9048C111.034 71.459 96.6416 59.0678 92.437 49.693Z" fill="#64AA27"/>
<path d="M72.1416 37.5465L69.3115 37.7095L71.899 37.791C108.609 35.5084 128.096 52.5463 133.351 57.9266C109.822 32.2476 72.1416 37.5465 72.1416 37.5465Z" fill="#285104"/>
<path d="M134.807 59.5572C134.807 59.5572 134.322 58.905 133.351 57.9268C133.836 58.4974 134.322 59.068 134.807 59.5572Z" fill="#285104"/>
<path d="M92.6796 51.6498C92.6796 51.6498 105.374 52.302 107.881 42.3564C107.962 42.3564 105.455 50.9976 92.6796 51.6498Z" fill="#285104"/>
<path d="M102.625 59.5573C102.625 59.5573 116.048 58.3345 115.886 45.9434C115.805 47.8999 114.997 57.1932 102.625 59.5573Z" fill="#285104"/>
<path d="M117.422 61.759C126.398 58.4981 123.406 49.9385 123.406 49.9385C125.104 57.9275 117.422 61.759 117.422 61.759Z" fill="#285104"/>
<path d="M117.422 38.3618C117.422 38.3618 120.252 41.2966 119.686 47.6552C119.686 47.6552 120.899 41.2966 117.422 38.3618Z" fill="#285104"/>
<path d="M103.353 35.0191C108.204 35.2637 110.549 39.7473 111.358 41.8668C108.528 34.0409 103.353 35.0191 103.353 35.0191Z" fill="#285104"/>
<path d="M111.439 41.8667C111.52 42.0297 111.6 42.1928 111.6 42.3558C111.52 42.2743 111.439 42.1113 111.439 41.8667Z" fill="#285104"/>
<path d="M111.762 43.0086C111.762 43.0086 111.681 42.764 111.6 42.3564C111.681 42.601 111.762 42.764 111.762 43.0086Z" fill="#285104"/>
<path d="M90.4155 35.0191C90.4155 35.0191 97.3693 34.2854 99.3908 39.1767C99.3908 39.1767 98.6631 33.5517 90.4155 35.0191Z" fill="#285104"/>
<path d="M89.6879 41.4592C89.6879 41.4592 97.7737 45.5353 102.14 40.5625C102.059 40.5625 96.5608 44.0679 89.6879 41.4592Z" fill="#285104"/>
<path opacity="0.3" d="M86.1301 37.8726C86.6961 37.9541 95.1054 47.2475 104.889 55.8887C114.673 64.5299 136.262 59.8832 136.262 59.8832C120.414 30.9434 85.5641 37.7911 86.1301 37.8726Z" fill="#031E10"/>
<path d="M145.481 86.8669C145.481 86.8669 115.644 77.8997 96.3996 100.481C77.1553 123.144 86.2923 177.273 143.944 165.29C201.515 153.225 171.679 91.1875 145.481 86.8669Z" fill="#F5DA11"/>
<path d="M150.898 88.5786C157.285 94.2851 166.099 95.5894 172.81 116.214C176.206 126.649 174.832 154.366 152.191 158.523C129.551 162.681 101.817 156.404 95.7522 152.898C104.404 163.822 120.01 170.262 144.025 165.29C197.634 154.04 175.317 99.4209 150.898 88.5786Z" fill="#E2CD07"/>
<path d="M144.833 91.1055L144.591 91.024L144.348 90.9424C144.267 90.9424 139.012 89.3936 131.492 89.3936C122.355 89.3936 109.417 91.8392 99.6335 103.334C91.0625 113.361 89.0411 130.725 94.8629 143.523C100.523 155.914 112.409 162.762 128.338 162.762C132.866 162.762 137.88 162.192 143.054 161.132C162.784 156.974 173.053 146.54 172.73 130.725C172.325 111.812 157.043 93.062 144.833 91.1055Z" fill="#FFFFB8"/>
<path d="M131.006 92.5734C131.006 92.5734 123.163 92.4103 121.142 95.8342C119.12 99.1766 125.589 110.916 127.853 114.992C127.853 114.992 128.742 119.149 129.632 119.149C130.521 119.149 133.271 118.986 134.564 119.149C134.564 119.149 136.181 115.807 136.747 113.035C137.313 110.263 140.709 97.3831 140.871 95.9973C141.033 94.5299 137.879 92.0843 131.006 92.5734Z" fill="#E8CD00"/>
<path d="M157.609 102.682C157.609 102.682 152.111 97.4643 148.148 98.6056C144.106 99.6654 135.777 118.904 136.343 119.556C136.99 120.127 138.688 121.594 139.497 122.573C139.497 122.573 143.378 122.573 145.965 120.942C148.472 119.312 160.762 112.464 161.975 111.567C163.188 110.589 162.865 106.839 157.609 102.682Z" fill="#E8CD00"/>
<path d="M165.048 118.089C161.409 116.214 148.634 122.165 144.186 124.284C144.186 124.284 139.901 124.692 139.901 125.507C139.901 126.322 139.658 128.523 139.497 129.746C139.497 129.746 143.297 131.947 146.37 132.518C149.361 133.007 163.35 136.186 164.967 136.268C166.503 136.431 169.253 133.578 168.606 127.219C168.606 127.138 168.767 119.882 165.048 118.089Z" fill="#E8CD00"/>
<path d="M142.569 133.659C142.569 133.659 138.688 131.295 138.041 131.866C137.394 132.436 136.747 134.719 135.696 135.453C135.696 135.453 136.02 138.469 137.718 140.833C139.497 143.197 146.936 154.447 147.987 155.507C148.957 156.566 153.081 156.322 157.609 151.431C157.609 151.431 163.269 146.458 162.056 142.708C160.843 139.121 147.259 135.045 142.569 133.659Z" fill="#E8CD00"/>
<path d="M133.109 136.514C130.602 136.432 130.926 136.758 127.772 136.351C127.772 136.351 125.832 138.389 125.266 141.16C124.7 143.932 121.303 156.812 121.142 158.198C120.98 159.584 124.134 162.111 131.007 161.54C131.007 161.54 138.85 161.704 140.871 158.28C142.893 154.937 136.424 143.198 134.16 139.122C134.079 139.204 133.998 136.514 133.109 136.514Z" fill="#E8CD00"/>
<path d="M122.678 131.213C122.678 131.213 118.554 131.703 116.048 133.333C113.541 134.963 101.251 141.811 100.038 142.708C98.8249 143.605 99.1483 147.436 104.404 151.512C104.404 151.512 109.903 156.729 113.865 155.588C117.908 154.528 122.355 142.056 123.81 137.654C123.81 137.654 126.317 134.963 125.67 134.311C125.104 133.822 123.487 132.192 122.678 131.213Z" fill="#E8CD00"/>
<path d="M115.643 121.758C112.652 121.268 98.6632 118.089 97.046 118.008C95.5097 117.845 92.7605 120.698 93.4074 127.056C93.4074 127.056 93.2457 134.312 96.9652 136.105C100.604 137.98 113.379 132.029 117.827 129.91C117.827 129.91 122.678 129.991 122.678 129.176C122.678 128.361 122.516 125.834 122.678 124.611C122.678 124.692 118.635 122.328 115.643 121.758Z" fill="#E8CD00"/>
<path d="M114.026 98.687C113.056 97.6272 108.932 97.8718 104.404 102.682C104.404 102.682 98.744 107.736 99.9569 111.404C101.17 115.073 114.754 119.149 119.444 120.535C119.444 120.535 123.325 122.98 123.972 122.41C124.619 121.839 126.398 119.964 127.449 119.23C127.449 119.23 125.993 115.725 124.214 113.442C122.516 111.078 114.997 99.7468 114.026 98.687Z" fill="#E8CD00"/>
<g opacity="0.3" style="mix-blend-mode:soft-light">
<path d="M96.3991 100.562C89.4453 108.714 86.2109 121.024 87.5855 132.845C88.475 131.785 89.1218 131.051 89.1218 131.051C88.3132 86.7039 131.168 85.7256 143.459 86.3778C136.505 84.8289 112.652 81.405 96.3991 100.562Z" fill="white"/>
</g>
<path d="M122.759 119.393C122.597 119.149 122.516 118.823 122.516 118.578C122.355 118.171 122.274 117.763 121.95 117.274C121.384 116.459 120.899 115.562 120.495 114.665C120.172 114.013 119.848 113.361 119.444 112.79C118.716 111.649 117.907 110.508 117.018 109.285C114.35 105.698 111.601 101.948 112.652 97.2197L112.167 97.1382C111.035 102.029 113.865 105.861 116.614 109.611C117.503 110.834 118.312 111.893 118.959 113.116C119.282 113.687 119.686 114.339 120.01 114.991C120.495 115.888 120.98 116.785 121.546 117.6C121.789 118.007 121.95 118.334 122.031 118.741C122.112 118.986 122.193 119.312 122.355 119.556C122.516 119.964 122.84 120.372 123.163 120.698C123.568 121.187 123.972 121.676 124.053 122.165H124.619C124.619 121.513 124.134 120.942 123.648 120.372C123.163 120.045 122.84 119.719 122.759 119.393Z" fill="#F7F7CD"/>
<path d="M156.315 100.481C156.558 103.497 153.566 105.942 150.979 107.165C147.663 108.633 144.672 109.937 141.842 110.997C142.65 110.1 143.701 109.285 144.672 108.47C145.965 107.491 147.259 106.513 148.149 105.209C148.795 104.312 149.038 103.171 149.361 102.111C149.766 100.399 150.17 98.7686 151.625 98.0349L151.383 97.5458C149.685 98.361 149.281 100.236 148.795 101.948C148.553 103.089 148.229 104.149 147.663 104.883C146.774 106.105 145.561 107.084 144.267 108.062C143.216 108.877 142.084 109.774 141.195 110.752C141.033 110.915 140.871 111.16 140.71 111.323C139.982 111.649 139.497 111.975 138.85 112.301L138.526 112.464C137.96 112.79 137.394 112.953 136.748 113.116C136.343 113.279 135.858 113.361 135.454 113.524C134.888 113.768 134.079 114.095 133.351 114.584C133.513 114.258 133.675 113.931 133.837 113.524C134.241 112.464 134.322 111.486 134.322 110.426C134.322 109.937 134.403 109.366 134.403 108.796C134.484 107.98 134.645 107.247 134.807 106.432C135.13 104.638 135.454 102.763 135.292 100.97C135.292 100.562 135.211 100.073 135.13 99.5838C134.726 97.0567 134.16 93.3067 136.505 92.41L136.262 91.9209C133.513 93.0622 134.16 97.0567 134.564 99.6654C134.645 100.236 134.726 100.644 134.726 101.051C134.888 102.845 134.564 104.638 134.241 106.432C134.079 107.165 133.918 107.98 133.837 108.796C133.756 109.366 133.756 109.937 133.675 110.426C133.594 111.404 133.594 112.383 133.19 113.361C132.947 114.013 132.624 114.584 132.219 115.154C131.977 115.48 131.734 115.888 131.573 116.296C131.492 115.48 131.33 114.665 131.007 113.687C130.764 113.116 130.441 112.546 130.198 111.975C129.632 110.915 129.147 109.937 128.985 108.714C129.389 107.491 129.309 106.105 129.309 104.801C129.309 104.312 129.309 103.904 129.309 103.497C129.309 103.252 129.309 102.926 129.309 102.437C129.228 100.073 128.985 93.7143 130.36 92.6546C130.521 92.5731 130.683 92.4915 130.926 92.5731L131.087 92.0839C130.683 92.0024 130.36 92.0024 130.036 92.247C128.662 93.3067 128.662 97.9534 128.823 102.437C128.823 102.926 128.823 103.334 128.823 103.497C128.823 103.904 128.823 104.394 128.823 104.883C128.823 105.372 128.823 105.861 128.823 106.35C128.823 106.269 128.823 106.105 128.743 106.024C128.662 105.535 128.5 105.046 128.419 104.475C128.177 103.252 127.934 101.948 127.449 100.888C127.206 100.318 126.883 99.9099 126.559 99.4208C126.155 98.7686 125.67 98.1165 125.427 97.2197C125.347 96.8121 125.185 96.4045 125.023 95.9969C124.619 95.0187 124.295 94.0404 124.376 93.0622L123.81 92.9807C123.648 94.0404 124.053 95.1002 124.457 96.16C124.619 96.5676 124.78 96.9752 124.861 97.3013C125.104 98.2795 125.589 98.9317 126.074 99.6654C126.317 100.073 126.64 100.562 126.883 101.051C127.368 102.029 127.611 103.252 127.853 104.475C127.934 104.964 128.096 105.535 128.177 106.024C128.338 106.676 128.338 107.165 128.338 107.817C128.338 108.144 128.338 108.388 128.419 108.714C128.338 108.877 128.338 108.959 128.257 109.04C126.964 111.893 126.964 114.991 127.045 118.008C127.045 118.497 127.045 118.986 127.045 119.556H127.611C127.611 119.067 127.611 118.497 127.611 118.008C127.611 115.073 127.53 112.383 128.581 109.774C128.823 110.671 129.228 111.486 129.632 112.301C129.875 112.872 130.198 113.442 130.441 114.013C130.926 115.317 131.007 116.214 131.007 117.6H131.573C131.573 117.274 131.573 117.029 131.573 116.703L131.977 116.866C132.139 116.459 132.381 116.133 132.624 115.725L132.705 115.806C133.19 115.073 134.726 114.502 135.535 114.095C135.939 113.931 136.343 113.768 136.748 113.687C137.394 113.524 138.041 113.279 138.688 112.953L139.012 112.79C139.335 112.627 139.658 112.383 139.901 112.22C139.497 112.872 139.092 113.524 138.688 114.095C138.284 114.747 137.88 115.317 137.475 115.969C137.152 116.459 136.748 116.948 136.343 117.437C135.616 118.334 134.807 119.312 134.322 120.372L134.807 120.535C135.211 119.475 136.02 118.578 136.748 117.681C137.152 117.192 137.556 116.703 137.96 116.133C138.365 115.562 138.769 114.91 139.173 114.258C139.739 113.361 140.305 112.464 140.952 111.567C141.033 111.486 141.195 111.486 141.276 111.404C144.267 110.263 147.421 108.877 150.979 107.328C153.728 106.105 156.881 103.497 156.639 100.154L156.315 100.481Z" fill="#F7F7CD"/>
<path d="M153.97 110.589C156.234 107.654 158.256 105.453 160.116 103.741L159.711 103.333C157.609 105.208 155.345 107.817 152.838 111.159C151.464 111.893 150.008 112.627 148.472 113.524C147.502 114.094 146.45 114.502 145.399 114.909C144.106 115.399 142.731 115.969 141.599 116.784C141.276 117.029 140.79 117.274 140.224 117.6C137.879 118.985 134.645 120.86 134.645 122.98H135.211C135.211 121.105 138.365 119.23 140.467 118.007C141.033 117.681 141.518 117.437 141.842 117.192C142.974 116.458 144.267 115.888 145.561 115.399C146.612 114.991 147.663 114.502 148.715 113.931C149.847 113.279 150.979 112.708 152.03 112.138C151.706 112.627 151.302 113.034 150.979 113.524C149.604 115.236 148.229 117.029 147.178 118.904C146.208 120.534 145.076 121.187 143.378 122.083C142.893 122.328 142.246 122.572 141.599 122.735C140.79 122.98 139.901 123.225 139.254 123.714L139.577 124.121C140.144 123.714 140.952 123.469 141.761 123.225C142.408 123.061 143.054 122.817 143.62 122.491C145.48 121.513 146.693 120.779 147.663 119.067C148.714 117.274 150.089 115.48 151.464 113.768C151.949 113.116 152.515 112.464 153 111.812C153.081 111.73 153.162 111.649 153.243 111.567C156.477 109.937 159.469 108.551 162.38 107.491L162.218 107.002C159.55 107.98 156.881 109.203 153.97 110.589Z" fill="#F7F7CD"/>
<path d="M124.619 122.736C123.082 122.165 121.061 121.92 119.363 121.757L119.282 121.676C119.039 121.431 118.716 121.105 118.393 120.942C118.069 120.698 117.746 120.535 117.422 120.371C117.018 120.127 116.614 119.964 116.209 119.638C115.563 119.149 115.239 118.578 114.835 118.007C114.592 117.681 114.35 117.274 114.026 116.948C113.784 116.622 113.46 116.377 113.218 116.132C112.894 115.806 112.49 115.48 112.247 114.991C112.652 115.236 113.056 115.48 113.379 115.806C114.269 116.377 115.077 116.948 115.967 117.518C116.533 117.926 117.422 118.252 118.312 118.578C119.848 119.23 121.627 119.882 122.112 121.105L122.597 120.942C122.031 119.475 120.171 118.741 118.473 118.089C117.584 117.763 116.775 117.437 116.29 117.029C115.482 116.459 114.592 115.888 113.703 115.236C113.056 114.747 112.328 114.339 111.601 113.85C111.196 113.035 110.954 112.301 110.954 111.323C110.954 111.078 110.954 110.752 111.034 110.507C111.115 109.774 111.196 108.959 110.954 108.306C110.549 107.084 109.417 106.024 108.366 104.964C107.881 104.475 107.396 104.067 107.072 103.578C106.83 103.334 106.587 103.008 106.264 102.763C105.536 102.029 104.647 101.133 104.566 100.399H104C104.081 101.296 105.051 102.274 105.86 103.089C106.183 103.415 106.426 103.66 106.668 103.904C107.072 104.312 107.477 104.801 108.043 105.29C109.094 106.268 110.145 107.328 110.549 108.469C110.711 108.959 110.63 109.774 110.63 110.426C110.63 110.752 110.549 111.078 110.549 111.323C110.549 112.056 110.63 112.627 110.873 113.279C106.911 110.507 103.11 107.573 100.442 103.904L100.038 104.23C102.868 108.225 107.072 111.323 111.358 114.257C111.439 114.42 111.52 114.584 111.681 114.828C112.086 115.562 112.571 115.969 113.056 116.459C113.299 116.703 113.541 116.948 113.865 117.274C114.188 117.6 114.431 117.926 114.592 118.333C114.997 118.904 115.401 119.556 116.129 120.045C116.533 120.371 117.018 120.616 117.422 120.861C117.746 121.024 118.069 121.187 118.312 121.35C118.473 121.431 118.635 121.594 118.716 121.676C118.635 121.676 118.473 121.676 118.393 121.676H118.15C116.048 121.513 114.026 121.757 112.005 121.92C111.52 122.002 110.954 122.002 110.468 122.083C109.822 122.165 109.094 122.165 108.447 122.246C106.749 122.41 105.213 122.573 103.434 122.573C101.331 122.573 99.3909 122.083 97.4503 121.513C96.7226 121.35 95.9948 121.105 95.2671 120.942C94.782 120.861 93.0031 120.453 92.1945 120.861L92.4371 121.35C93.0031 121.105 94.2968 121.268 95.1863 121.513C95.914 121.676 96.6417 121.839 97.3694 122.083C99.3909 122.573 101.331 123.143 103.515 123.143C105.294 123.143 106.911 122.98 108.609 122.817C109.256 122.736 109.902 122.654 110.63 122.654C111.115 122.573 111.681 122.573 112.167 122.491C114.107 122.328 116.129 122.165 118.15 122.246C117.018 122.654 115.805 123.469 114.35 124.611C113.865 124.611 113.379 124.611 112.975 124.611C111.843 124.529 110.711 124.529 109.579 124.611C108.043 124.774 106.506 125.018 105.051 125.181C102.544 125.507 99.876 125.915 97.2886 125.915C96.0757 125.915 94.8628 125.915 93.7308 125.915C92.9222 125.915 92.1136 125.915 91.2242 125.915V126.404C92.0328 126.404 92.8414 126.404 93.7308 126.404C94.5394 126.404 95.348 126.404 96.2374 126.404C96.6417 126.404 96.9651 126.404 97.3694 126.404C100.038 126.404 102.625 125.996 105.213 125.589C106.668 125.344 108.204 125.181 109.741 125.018C110.792 124.937 111.924 124.937 113.056 125.018C113.379 125.018 113.622 125.018 113.865 125.018C113.784 125.1 113.622 125.181 113.541 125.263C112.086 126.567 110.226 127.301 108.043 128.197C101.978 130.562 96.0757 132.681 90.4965 132.681V133.17C96.2374 133.17 102.14 131.051 108.285 128.687C110.468 127.871 112.409 127.056 113.945 125.67C114.188 125.426 114.431 125.263 114.673 125.018C116.29 125.018 117.907 124.611 119.444 124.203C120.495 123.958 121.546 123.714 122.597 123.551C125.185 123.225 127.206 122.817 129.389 122.083L129.228 121.594C127.449 122.083 126.074 122.491 124.619 122.736ZM118.878 123.795C117.584 124.121 116.29 124.448 114.916 124.529C116.614 123.225 117.988 122.491 119.201 122.328C119.363 122.491 119.605 122.654 119.848 122.817C120.171 123.062 120.576 123.143 120.98 123.225C120.252 123.469 119.605 123.632 118.878 123.795ZM122.193 123.062V122.817C121.465 122.899 120.818 122.736 120.171 122.328C120.091 122.328 120.091 122.246 120.01 122.246C121.223 122.328 122.436 122.491 123.568 122.817C123.082 122.98 122.678 123.062 122.193 123.062Z" fill="#F7F7CD"/>
<path d="M116.371 131.459C117.261 130.725 118.312 130.073 119.363 129.502C120.657 128.768 121.95 127.953 123.002 126.975L122.597 126.649C121.708 127.546 120.495 128.198 119.363 128.932L119.04 128.524C117.827 129.502 116.371 130.317 114.997 131.051C114.835 131.133 114.673 131.214 114.592 131.296C116.209 130.236 117.827 129.013 119.201 127.709L118.797 127.383C116.695 129.502 113.945 131.133 111.358 132.763C109.337 133.986 107.234 135.29 105.455 136.757C104.404 137.573 103.596 138.551 102.787 139.529C102.302 140.1 101.817 140.752 101.251 141.323C100.846 141.73 100.361 141.975 99.8761 142.301C99.5526 142.545 99.1484 142.708 98.8249 143.035C97.9355 143.768 97.3695 144.502 96.8035 145.317L97.2078 145.643C97.7738 144.828 98.2589 144.176 99.1484 143.442C99.4718 143.198 99.7952 142.953 100.119 142.79C100.604 142.464 101.089 142.138 101.574 141.73C102.14 141.16 102.625 140.507 103.191 139.937C104 138.959 104.808 138.062 105.779 137.247C107.396 135.942 109.256 134.801 111.035 133.66C109.417 134.964 108.932 136.268 108.285 137.98C108.124 138.388 107.962 138.877 107.8 139.285C107.396 140.589 106.911 141.975 106.021 142.953C105.86 143.116 105.698 143.279 105.455 143.361C105.132 143.605 104.808 143.768 104.647 144.176C104.485 144.42 104.404 144.747 104.323 145.073C104.242 145.317 104.162 145.643 104 145.806C103.676 146.295 103.353 146.703 102.949 147.111C102.544 147.6 102.14 148.007 101.817 148.578C101.736 148.741 101.574 148.986 101.412 149.23C100.927 150.045 100.28 150.942 100.28 151.92H100.846C100.846 151.105 101.412 150.29 101.898 149.475C102.059 149.23 102.14 149.067 102.302 148.823C102.625 148.333 102.949 147.844 103.434 147.437C103.838 147.029 104.242 146.54 104.566 146.051C104.728 145.806 104.808 145.48 104.889 145.154C104.97 144.91 105.051 144.583 105.213 144.42C105.374 144.176 105.617 143.931 105.94 143.768C106.183 143.605 106.345 143.442 106.587 143.279C107.477 142.219 107.962 140.752 108.447 139.448C108.609 138.959 108.771 138.551 108.932 138.143C109.66 136.268 110.145 135.127 111.681 133.986C112.813 133.089 114.188 132.355 115.482 131.703C115.724 131.54 115.967 131.459 116.209 131.296C114.026 133.089 112.247 135.698 111.601 137.98C111.277 139.203 111.196 140.426 111.196 141.73C110.549 142.708 109.983 143.768 109.822 144.991C109.741 145.562 109.741 146.132 109.822 146.621C109.822 146.866 109.822 147.111 109.822 147.355C109.822 147.6 109.822 147.844 109.903 148.089C109.66 148.333 109.337 148.496 109.013 148.741C108.528 149.067 108.043 149.475 107.558 149.882C106.102 151.268 105.294 152.409 105.132 153.306C105.051 153.877 105.132 154.284 105.374 154.611C105.698 154.855 106.102 155.018 106.668 155.018C107.315 155.018 108.124 154.855 108.851 154.692C109.256 154.611 109.579 154.529 109.903 154.529L109.822 154.04C109.498 154.04 109.175 154.121 108.771 154.203C107.719 154.447 106.345 154.692 105.86 154.284C105.698 154.121 105.617 153.877 105.698 153.469C105.779 152.98 106.264 152.002 107.962 150.29C108.366 149.882 108.851 149.556 109.337 149.23C109.579 149.067 109.822 148.904 109.983 148.741C110.064 149.149 110.226 149.556 110.388 149.882C110.549 150.371 110.711 150.861 110.873 151.35C111.035 152.165 110.954 153.225 110.873 154.121C110.873 154.611 110.792 155.1 110.792 155.589H111.358C111.358 155.181 111.358 154.692 111.439 154.203C111.52 153.225 111.52 152.165 111.439 151.268C111.358 150.698 111.115 150.208 110.954 149.719C110.792 149.312 110.63 148.823 110.549 148.333C111.196 147.763 111.762 147.029 111.843 146.051C111.924 145.236 111.843 144.339 111.843 143.524C111.843 143.035 111.843 142.464 111.843 141.975C111.843 141.975 111.924 141.893 111.924 141.812C112.247 141.241 112.652 140.67 112.894 140.1C113.137 139.611 113.299 138.959 113.379 138.469C113.46 137.98 113.622 137.491 113.784 137.002C114.673 134.964 116.775 134.067 118.797 133.171C119.606 132.844 120.495 132.437 121.223 132.029L120.98 131.622C120.252 132.029 119.444 132.355 118.635 132.763C116.533 133.66 114.269 134.638 113.299 136.921C113.056 137.41 112.975 137.98 112.894 138.469C112.813 139.04 112.652 139.529 112.409 140.018C112.247 140.344 112.086 140.67 111.843 140.997C111.924 140.1 112.005 139.203 112.247 138.306C112.49 135.779 114.269 133.252 116.371 131.459ZM110.954 145.806C110.954 146.458 110.63 147.029 110.145 147.518C110.145 147.437 110.145 147.355 110.145 147.274C110.145 147.029 110.145 146.785 110.145 146.458C110.145 145.969 110.064 145.399 110.145 144.91C110.226 144.094 110.549 143.361 111.035 142.627C111.035 142.872 111.035 143.116 111.035 143.361C110.954 144.094 110.954 144.991 110.954 145.806Z" fill="#F7F7CD"/>
<path d="M123.002 131.214C122.84 131.54 122.678 131.785 122.516 132.029C121.546 133.415 120.98 134.638 120.576 136.187L120.414 136.839C119.848 138.958 119.282 140.996 118.959 143.197C118.878 143.687 118.797 144.176 118.716 144.665C118.554 145.888 118.312 147.11 118.312 148.415C118.312 151.186 118.069 153.958 116.209 155.426L116.533 155.833C118.635 154.284 118.878 151.35 118.878 148.415C118.878 147.11 119.04 145.969 119.282 144.665C119.363 144.176 119.444 143.687 119.525 143.197C119.848 140.996 120.333 138.958 120.899 136.92L121.061 136.268C121.465 134.719 122.031 133.578 122.921 132.274C123.082 132.029 123.244 131.703 123.406 131.377C123.648 130.806 123.972 130.236 124.376 129.991L124.053 129.583C123.568 129.991 123.325 130.643 123.002 131.214Z" fill="#F7F7CD"/>
<path d="M127.772 153.713C127.691 152.328 127.53 151.023 127.368 149.637C127.206 148.578 127.044 147.436 126.964 146.295C126.883 145.398 126.883 144.502 126.964 143.605C126.964 143.116 126.964 142.545 126.964 142.056C126.964 140.752 126.721 139.447 126.478 138.143C126.236 136.839 125.993 135.453 126.074 134.148H125.508C125.508 135.534 125.751 136.92 125.993 138.224C126.236 139.447 126.398 140.752 126.398 142.056C126.398 142.545 126.398 143.116 126.398 143.605C126.398 144.502 126.398 145.48 126.478 146.377C126.559 147.518 126.721 148.659 126.883 149.719C127.044 151.023 127.206 152.409 127.287 153.713C127.368 154.855 127.449 155.996 127.61 157.056C127.772 158.686 128.015 160.398 127.934 162.11H128.5C128.581 160.398 128.338 158.605 128.177 156.974C128.015 155.914 127.853 154.773 127.772 153.713Z" fill="#F7F7CD"/>
<path d="M137.071 159.909C136.909 159.502 136.828 159.013 136.667 158.605C136.586 158.36 136.505 158.116 136.505 157.871C136.101 156.567 135.615 155.344 135.13 154.121C134.645 153.062 134.241 151.92 133.837 150.697C133.756 150.371 133.675 150.127 133.513 149.801C133.513 148.904 133.513 148.007 133.432 147.192C133.271 145.725 132.866 144.339 132.462 143.035C132.219 142.219 131.977 141.404 131.815 140.589C131.492 139.04 131.168 134.312 131.896 134.067L131.734 133.578C130.279 134.067 131.33 140.67 131.33 140.752C131.492 141.649 131.734 142.464 131.977 143.279C132.381 144.665 132.785 145.969 132.947 147.355C132.947 147.763 133.028 148.17 133.028 148.578C132.543 147.518 131.977 146.458 131.492 145.399C129.955 142.301 128.257 139.122 128.5 135.616H127.934C127.691 139.285 129.389 142.545 131.007 145.643C131.734 147.111 132.543 148.578 133.109 150.127C133.109 150.534 133.109 151.024 133.109 151.431V152.328C133.109 155.018 133.109 157.871 132.543 161.947L133.109 162.029C133.675 157.953 133.675 155.1 133.675 152.328V151.757C133.998 152.735 134.403 153.632 134.726 154.529C135.211 155.752 135.696 156.975 136.101 158.279C136.181 158.523 136.262 158.768 136.262 159.013C136.424 159.665 136.586 160.317 136.909 160.888L136.99 161.132L137.233 161.051C137.394 160.969 137.718 160.725 137.475 160.154L137.071 159.909Z" fill="#F7F7CD"/>
<path d="M145.642 144.583C142.731 141.975 139.901 139.366 137.475 136.513C137.071 135.453 136.909 134.312 136.99 133.089H136.424C136.343 133.904 136.424 134.719 136.586 135.534C136.02 134.882 135.535 134.23 135.049 133.496L134.564 133.741C135.292 134.801 136.101 135.779 136.909 136.757C137.556 138.551 138.688 140.263 139.739 141.975C140.144 142.627 140.629 143.279 141.033 143.931C142.165 145.888 143.701 148.415 144.833 151.105C145.642 152.898 146.612 154.692 147.421 156.241C147.663 156.648 147.825 157.137 148.068 157.545C148.391 158.279 148.715 159.094 149.281 159.746L149.685 159.42C149.2 158.768 148.876 158.116 148.553 157.301C148.391 156.893 148.149 156.404 147.906 155.915C147.017 154.366 146.127 152.654 145.319 150.86C144.106 148.17 142.65 145.562 141.437 143.605C141.033 142.953 140.548 142.219 140.144 141.567C139.335 140.344 138.607 139.203 137.96 137.899C140.224 140.426 142.731 142.627 145.157 144.828C146.451 145.969 147.744 147.192 149.038 148.415L154.617 153.714L155.022 153.388L149.442 148.089C148.31 146.947 146.936 145.725 145.642 144.583Z" fill="#F7F7CD"/>
<path d="M156.719 145.235C156.396 145.153 156.073 145.072 155.83 145.072C153.889 144.664 151.949 144.257 150.413 143.278C144.752 139.61 139.82 134.474 136.667 130.887L136.262 131.213C139.416 134.882 144.429 140.018 150.17 143.686C151.787 144.746 153.809 145.153 155.749 145.561C156.073 145.642 156.396 145.724 156.639 145.724C159.064 146.295 161.328 147.191 163.512 148.17C163.997 148.333 164.401 148.577 164.886 148.74L165.129 148.251C164.644 148.088 164.239 147.844 163.754 147.68C161.49 146.784 159.226 145.805 156.719 145.235Z" fill="#F7F7CD"/>
<path d="M161.248 141.404C159.226 140.67 157.043 140.181 155.345 140.018H155.022C152.677 139.773 150.493 139.61 148.795 137.898C147.421 136.512 145.723 135.453 144.106 134.474C141.922 133.088 139.901 131.866 138.526 129.909L138.041 130.235C139.497 132.273 141.68 133.659 143.782 134.963C145.399 135.942 147.097 137.001 148.391 138.387C150.251 140.262 152.596 140.425 154.941 140.67H155.264C156.962 140.833 159.145 141.322 161.086 142.056L161.571 142.219C162.46 142.545 163.35 142.871 164.401 142.952L164.482 142.463C163.512 142.382 162.703 142.056 161.814 141.73L161.248 141.404Z" fill="#F7F7CD"/>
<path d="M159.954 132.681C157.609 132.273 155.102 132.11 152.677 131.947C152.111 131.866 151.464 131.866 150.898 131.784C149.846 131.703 148.634 131.621 147.421 131.376C148.795 131.376 150.089 131.376 151.302 131.539H151.464C153 131.784 154.536 132.029 156.073 132.029C156.558 132.029 156.962 132.029 157.447 131.947C158.741 131.784 160.035 131.458 161.328 131.05C162.137 130.806 163.026 130.561 163.835 130.398C164.32 130.317 164.886 130.154 165.452 129.991C166.665 129.665 167.959 129.257 169.01 129.338V128.849C167.878 128.768 166.503 129.175 165.29 129.501C164.724 129.665 164.158 129.828 163.673 129.909C162.784 130.072 161.975 130.317 161.086 130.561C159.873 130.887 158.579 131.295 157.366 131.458C155.426 131.621 153.404 131.376 151.464 131.05H151.221C149.28 130.806 147.259 130.806 145.238 130.887C145.157 130.887 145.076 130.887 145.076 130.887C144.672 130.806 144.186 130.643 143.782 130.48L143.459 130.398C142.569 130.072 141.114 129.665 140.305 128.931C141.356 128.523 142.408 128.442 143.701 128.442C144.914 128.442 146.208 128.442 147.421 128.442C148.229 128.442 148.795 128.605 149.442 128.849C149.846 129.012 150.332 129.094 150.817 129.257C151.383 129.338 152.03 129.42 152.677 129.42C153.243 129.42 153.728 129.42 154.294 129.338C154.779 129.338 155.264 129.257 155.749 129.257C155.911 129.257 156.153 129.257 156.315 129.257C157.528 129.257 157.851 129.257 158.417 127.953C158.417 127.871 158.498 127.79 158.498 127.708C159.226 127.626 159.954 127.545 160.52 127.545H160.682L160.762 127.382C161.167 126.485 161.005 125.425 160.762 124.366C161.005 124.284 161.248 124.203 161.49 124.203C162.299 124.04 163.431 124.203 164.563 124.284C166.261 124.447 167.959 124.61 169.091 124.04L168.848 123.55C167.797 124.04 166.18 123.877 164.644 123.714C163.431 123.632 162.38 123.469 161.409 123.632C161.086 123.713 160.843 123.714 160.601 123.795C160.358 122.735 160.277 121.757 160.924 121.186C161.652 120.453 162.865 120.453 163.997 120.371C165.21 120.29 166.422 120.29 167.15 119.474L166.746 119.148C166.18 119.801 165.129 119.801 163.997 119.882C162.784 119.964 161.49 119.964 160.601 120.86C159.711 121.675 159.873 122.898 160.116 124.04C159.064 124.61 158.741 125.507 158.337 126.567C158.256 126.811 158.175 126.974 158.094 127.219C156.153 127.463 153.889 127.708 152.272 127.219C151.706 127.056 151.221 126.648 150.655 126.241C150.008 125.752 149.442 125.262 148.634 125.099C148.068 125.018 147.502 124.936 146.936 124.936C147.825 124.61 148.714 124.284 149.604 124.04L150.17 123.877C152.111 123.387 154.051 122.817 155.426 121.349C155.749 120.942 156.073 120.534 156.315 120.127C156.639 119.637 156.881 119.148 157.285 118.822C158.741 117.436 161.328 115.969 163.512 115.724L163.431 115.235C161.167 115.48 158.417 117.029 156.881 118.496C156.477 118.904 156.153 119.393 155.83 119.882C155.587 120.29 155.345 120.697 155.021 121.023C153.728 122.409 151.868 122.898 150.008 123.469L149.442 123.632C148.068 124.04 146.774 124.447 145.48 124.936C145.399 124.936 145.318 125.018 145.318 125.018C144.672 125.018 144.025 125.099 143.459 125.181C141.599 125.344 139.658 125.588 137.96 125.099L137.799 125.588C139.497 126.078 141.437 125.915 143.378 125.752C143.216 125.833 142.974 125.915 142.812 125.915C142.408 125.996 142.003 126.241 141.518 126.404C140.548 126.811 139.497 127.219 138.607 127.219V127.708C139.577 127.708 140.709 127.219 141.68 126.811C142.084 126.648 142.569 126.485 142.893 126.322C143.701 126.078 144.591 125.752 145.399 125.425C146.45 125.344 147.502 125.344 148.472 125.588C149.119 125.752 149.685 126.159 150.251 126.648C150.817 127.056 151.383 127.545 152.03 127.708C152.757 127.953 153.647 128.034 154.536 128.034C155.587 128.034 156.8 127.953 157.851 127.79C157.447 128.686 157.285 128.686 156.234 128.686C156.073 128.686 155.911 128.686 155.749 128.686C155.264 128.686 154.698 128.686 154.213 128.768C153.081 128.849 151.949 128.849 150.898 128.686C150.412 128.605 150.008 128.442 149.604 128.36C148.957 128.116 148.229 127.953 147.421 127.953C146.127 127.953 144.914 127.953 143.701 127.953C142.327 127.953 141.114 128.034 139.982 128.605C139.901 128.523 139.901 128.442 139.82 128.36L139.335 128.605C139.901 129.828 142.003 130.561 143.297 130.969H143.378C143.135 130.969 142.893 130.969 142.65 130.969V131.458C143.378 131.458 144.186 131.458 144.995 131.376C146.936 131.866 148.876 132.11 150.655 132.192C151.221 132.273 151.868 132.273 152.434 132.355C154.86 132.518 157.366 132.681 159.711 133.088C161.248 133.414 162.865 133.741 164.482 134.067C166.503 134.556 168.606 135.045 170.627 135.289L170.708 134.8C168.686 134.474 166.665 133.985 164.644 133.578C163.188 133.333 161.49 132.925 159.954 132.681ZM159.145 126.893C159.469 125.996 159.792 125.181 160.52 124.773C160.682 125.67 160.843 126.485 160.601 127.219C160.116 127.219 159.549 127.3 158.983 127.382C159.064 127.219 159.145 127.056 159.145 126.893Z" fill="#F7F7CD"/>
</svg>
