<svg width="200" height="200" viewBox="0 0 200 200" fill="none" xmlns="http://www.w3.org/2000/svg">
<path d="M98.2239 146.297C90.8734 124.701 83.1506 96.3057 79.5219 69.0127C76.3584 45.4874 74.8697 22.8811 74.4975 17.1836C74.3114 17.1836 74.2183 17.1836 74.0323 17.1836C72.4505 17.1836 71.0548 17.735 69.8452 18.4701C70.0313 20.2161 71.7061 41.444 71.7061 41.9035C71.7061 42.363 67.24 25.9137 67.24 25.9137C67.24 25.9137 63.5182 26.465 64.1695 27.8435C64.1695 27.8435 73.474 51.2769 78.2193 109.079C81.848 154.016 82.8715 176.163 93.0134 180.298C93.0134 180.298 96.5491 181.952 100.085 178.552C99.8987 178.368 105.574 167.892 98.2239 146.297Z" fill="#CEDE8B"/>
<path d="M80.3593 137.016C80.4524 132.88 80.6384 130.675 81.1967 130.583C81.5689 130.491 83.3368 133.524 84.8255 136.28C84.6394 132.237 85.1976 129.388 84.9185 125.345C84.9185 125.253 89.1986 137.291 91.1525 140.875C90.6873 133.799 88.3612 125.621 87.6168 119.555C87.6168 119.464 90.4081 126.999 92.3621 131.686C91.8038 129.204 91.6177 126.172 91.1525 123.691C86.3142 106.506 81.9411 87.392 79.4289 68.8291C76.2654 45.3038 74.7766 22.6975 74.4045 17C74.2184 17 74.1253 17 73.9392 17C72.3575 17 70.9618 17.5514 69.7522 18.2865C69.9383 20.0326 71.6131 41.2604 71.6131 41.7199C71.6131 42.1794 67.147 25.7301 67.147 25.7301C67.147 25.7301 63.4252 26.2815 64.0765 27.6599C64.0765 27.6599 73.381 51.0932 78.1262 108.896C78.9636 119.555 79.615 128.837 80.3593 137.016Z" fill="#79B939"/>
<path d="M80.3593 137.016C80.4524 132.88 80.6384 130.675 81.1967 130.583C81.5689 130.491 83.3368 133.524 84.8255 136.28C84.6394 132.237 85.1976 129.388 84.9185 125.345C84.9185 125.253 89.1986 137.291 91.1525 140.875C90.6873 133.799 88.3612 125.621 87.6168 119.555C87.6168 119.464 90.4081 126.999 92.3621 131.686C91.8038 129.204 91.6177 126.172 91.1525 123.691C86.3142 106.506 81.9411 87.392 79.4289 68.8291C76.2654 45.3038 74.7766 22.6975 74.4045 17C74.2184 17 74.1253 17 73.9392 17C72.3575 17 70.9618 17.5514 69.7522 18.2865C69.9383 20.0326 71.6131 41.2604 71.6131 41.7199C71.6131 42.1794 67.147 25.7301 67.147 25.7301C67.147 25.7301 63.4252 26.2815 64.0765 27.6599C64.0765 27.6599 73.381 51.0932 78.1262 108.896C78.9636 119.555 79.615 128.837 80.3593 137.016Z" fill="#79B939"/>
<path d="M99.8987 176.806C95.5256 180.482 90.8734 178.46 90.129 178.368C90.9664 179.104 91.8038 179.655 92.8273 180.114C92.8273 180.114 96.363 181.769 99.8987 178.368C99.8987 178.368 100.271 177.725 100.643 176.347C100.457 176.53 100.178 176.714 99.8987 176.806Z" fill="#9EBA2F"/>
<path opacity="0.5" d="M76.5445 78.846C75.7071 71.77 73.567 54.1261 71.5201 41.7202C70.9618 40.158 67.0539 25.8223 67.0539 25.8223C67.0539 25.8223 65.8443 26.0061 64.9139 26.3736C65.193 27.1088 65.5652 28.1197 65.9374 29.3143C67.9844 34.7361 74.8697 67.451 76.5445 78.846Z" fill="#79B939"/>
<path opacity="0.5" d="M98.2239 146.297C90.8734 124.701 83.1507 96.3057 79.5219 69.0127C76.3584 45.4874 74.8697 22.8811 74.4975 17.1836C74.3114 17.1836 74.2184 17.1836 74.0323 17.1836C73.6601 17.1836 73.2879 17.1836 73.0088 17.2755C73.474 24.5352 74.4975 39.4223 76.2654 56.6068C78.7776 80.4077 86.8725 116.155 92.6412 137.199C98.503 158.335 101.946 171.568 100.736 176.439C101.946 172.303 103.714 162.379 98.2239 146.297Z" fill="#79B939"/>
<g opacity="0.4" style="mix-blend-mode:soft-light">
<path d="M94.5021 170.466C94.223 166.699 87.989 129.021 86.9655 125.162C86.0351 121.21 85.1977 117.259 84.2672 113.307C83.802 111.469 83.3368 109.631 82.8715 107.702C82.4063 105.772 82.1272 103.75 81.662 101.728C80.8246 98.3282 80.1732 94.9281 79.4289 91.4361C78.7776 88.1278 77.661 84.7277 77.568 81.3276C77.568 80.96 76.9167 81.2357 76.9167 81.5114V81.6032C77.0097 84.2682 77.1958 86.9332 77.4749 89.5063C77.568 90.7009 77.661 91.8955 77.7541 93.0902C78.0332 97.0417 78.4984 100.901 78.8706 104.853C79.2428 108.896 79.8011 112.848 79.9872 116.891C80.0802 120.567 80.4524 124.243 80.8246 127.919C81.1967 131.686 81.5689 135.454 81.848 139.314C82.2202 143.081 82.3133 146.941 82.7785 150.709C83.2437 154.476 83.895 158.244 84.3603 162.104C84.8255 165.596 85.942 169.272 87.4307 172.488C88.3612 174.51 90.4082 177.358 93.0134 176.991C93.9439 176.899 94.4091 175.98 94.5021 175.153C94.7813 173.683 94.5952 172.028 94.5021 170.466Z" fill="url(#paint0_radial_8002_27155)"/>
</g>
<path d="M113.111 137.383C109.296 119.187 105.854 95.3863 105.574 72.9638C105.295 53.5738 106.319 35.1947 106.598 30.508C106.505 30.508 106.319 30.508 106.226 30.4161C104.923 30.3242 103.714 30.508 102.69 31.0594C102.597 32.4378 101.946 49.8061 101.946 50.1737C101.853 50.5412 99.8987 36.7569 99.8987 36.7569C99.8987 36.7569 96.8282 36.8488 97.2004 37.9516C97.2004 37.9516 102.411 57.801 100.55 105.127C99.0613 141.885 97.7587 159.897 105.574 164.216C105.574 164.216 108.273 165.87 111.436 163.481C111.343 163.573 116.926 155.578 113.111 137.383Z" fill="#CEDE8B"/>
<path d="M99.6195 128.193C100.085 124.793 100.457 123.047 100.922 123.047C101.294 123.047 102.318 125.62 103.341 128.009C103.527 124.701 104.272 122.495 104.551 119.187C104.551 119.095 106.877 129.296 108.087 132.42C108.366 126.631 107.342 119.739 107.342 114.868C107.342 114.776 108.831 121.209 110.041 125.16C109.854 123.139 109.947 120.658 109.854 118.544C107.621 104.208 105.947 88.3103 105.76 72.9638C105.481 53.5738 106.505 35.1947 106.784 30.508C106.691 30.508 106.505 30.508 106.412 30.4161C105.109 30.3242 103.9 30.508 102.876 31.0594C102.783 32.4378 102.132 49.8061 102.132 50.1737C102.039 50.5412 100.085 36.7569 100.085 36.7569C100.085 36.7569 97.0143 36.8488 97.3865 37.9516C97.3865 37.9516 102.597 57.801 100.736 105.127C100.085 113.857 99.8056 121.485 99.6195 128.193Z" fill="#79B939"/>
<path d="M99.6195 128.193C100.085 124.793 100.457 123.047 100.922 123.047C101.294 123.047 102.318 125.62 103.341 128.009C103.527 124.701 104.272 122.495 104.551 119.187C104.551 119.095 106.877 129.296 108.087 132.42C108.366 126.631 107.342 119.739 107.342 114.868C107.342 114.776 108.831 121.209 110.041 125.16C109.854 123.139 109.947 120.658 109.854 118.544C107.621 104.208 105.947 88.3103 105.76 72.9638C105.481 53.5738 106.505 35.1947 106.784 30.508C106.691 30.508 106.505 30.508 106.412 30.4161C105.109 30.3242 103.9 30.508 102.876 31.0594C102.783 32.4378 102.132 49.8061 102.132 50.1737C102.039 50.5412 100.085 36.7569 100.085 36.7569C100.085 36.7569 97.0143 36.8488 97.3865 37.9516C97.3865 37.9516 102.597 57.801 100.736 105.127C100.085 113.857 99.8056 121.485 99.6195 128.193Z" fill="#79B939"/>
<path d="M111.529 162.377C107.621 164.95 104.086 162.837 103.434 162.745C103.993 163.388 104.644 163.939 105.388 164.399C105.388 164.399 108.087 166.053 111.25 163.664C111.25 163.664 111.622 163.112 112.087 162.102C111.994 162.102 111.808 162.193 111.529 162.377Z" fill="#9EBA2F"/>
<path opacity="0.5" d="M102.225 80.6828C102.225 74.8015 102.225 60.3739 101.853 50.1735C101.574 48.887 99.8057 36.8486 99.8057 36.8486C99.8057 36.8486 98.8752 36.8486 98.0378 37.1243C98.2239 37.7676 98.41 38.5946 98.5961 39.6055C99.5265 44.2003 101.946 71.3095 102.225 80.6828Z" fill="#79B939"/>
<path opacity="0.5" d="M113.111 137.382C109.296 119.187 105.854 95.3862 105.574 72.9637C105.295 53.5737 106.319 35.1946 106.598 30.5079C106.505 30.5079 106.319 30.5079 106.226 30.416C105.947 30.416 105.668 30.416 105.388 30.416C105.109 36.2973 104.365 48.5194 104.179 62.5795C103.9 82.1532 106.97 111.835 109.575 129.479C112.181 147.123 113.762 158.243 112.274 162.01C113.576 158.886 115.995 150.983 113.111 137.382Z" fill="#79B939"/>
<g opacity="0.4" style="mix-blend-mode:soft-light">
<path d="M107.807 156.589C107.901 153.465 106.598 122.404 106.133 119.096C105.761 115.787 105.481 112.479 105.109 109.263C104.923 107.701 104.737 106.138 104.551 104.576C104.365 102.922 104.365 101.268 104.086 99.6138C103.714 96.7651 103.527 93.9163 103.248 91.0675C102.969 88.3107 102.504 85.4619 102.69 82.705C102.69 82.4293 102.225 82.6131 102.132 82.7969C102.132 82.7969 102.132 82.7969 102.132 82.8888C101.946 85.0024 101.853 87.2079 101.76 89.3215C101.667 90.3324 101.667 91.2513 101.667 92.2622C101.48 95.4785 101.48 98.6949 101.387 101.911C101.294 105.219 101.387 108.436 101.108 111.744C100.829 114.777 100.829 117.809 100.736 120.75C100.643 123.874 100.55 126.999 100.457 130.031C100.364 133.156 100.085 136.28 100.085 139.405C100.085 142.529 100.178 145.653 100.271 148.778C100.364 151.627 100.829 154.751 101.76 157.508C102.318 159.254 103.714 161.735 105.854 161.735C106.598 161.735 107.063 161 107.249 160.357C107.621 159.254 107.714 157.876 107.807 156.589Z" fill="url(#paint1_radial_8002_27155)"/>
</g>
<path d="M125.393 156.589C124.462 138.026 124.835 114.041 128.091 91.8024C130.883 72.6882 134.79 54.5847 135.814 49.99C135.721 49.99 135.535 49.8981 135.442 49.8981C134.232 49.5305 133.023 49.6224 131.813 49.99C131.534 51.3684 128.091 68.3691 127.998 68.8286C127.905 69.1961 128.091 55.228 128.091 55.228C128.091 55.228 125.021 54.8604 125.207 56.0551C125.207 56.0551 127.254 76.4559 117.949 122.863C110.692 158.978 106.505 176.53 113.576 182.044C113.576 182.044 115.995 184.066 119.531 182.228C119.531 182.228 126.323 175.152 125.393 156.589Z" fill="#CEDE8B"/>
<path d="M113.483 145.378C114.507 142.161 115.065 140.415 115.623 140.507C115.995 140.507 116.647 143.264 117.205 145.837C117.949 142.621 119.066 140.507 119.81 137.291C119.81 137.199 120.462 147.675 121.206 150.891C122.415 145.194 122.415 138.302 123.253 133.431C123.253 133.339 123.718 139.864 124.276 143.999C124.462 141.977 124.928 139.496 125.114 137.475C125.114 122.955 126.044 106.965 128.277 91.8024C131.069 72.6882 134.976 54.5847 136 49.99C135.907 49.99 135.721 49.8981 135.628 49.8981C134.418 49.5305 133.209 49.6224 131.999 49.99C131.72 51.3684 128.277 68.3691 128.184 68.8286C128.091 69.1961 128.277 55.228 128.277 55.228C128.277 55.228 125.207 54.8604 125.393 56.0551C125.393 56.0551 127.44 76.4559 118.135 122.863C116.274 131.409 114.786 138.853 113.483 145.378Z" fill="#79B939"/>
<path d="M113.483 145.378C114.507 142.161 115.065 140.415 115.623 140.507C115.995 140.507 116.647 143.264 117.205 145.837C117.949 142.621 119.066 140.507 119.81 137.291C119.81 137.199 120.462 147.675 121.206 150.891C122.415 145.194 122.415 138.302 123.253 133.431C123.253 133.339 123.718 139.864 124.276 143.999C124.462 141.977 124.928 139.496 125.114 137.475C125.114 122.955 126.044 106.965 128.277 91.8024C131.069 72.6882 134.976 54.5847 136 49.99C135.907 49.99 135.721 49.8981 135.628 49.8981C134.418 49.5305 133.209 49.6224 131.999 49.99C131.72 51.3684 128.277 68.3691 128.184 68.8286C128.091 69.1961 128.277 55.228 128.277 55.228C128.277 55.228 125.207 54.8604 125.393 56.0551C125.393 56.0551 127.44 76.4559 118.135 122.863C116.274 131.409 114.786 138.853 113.483 145.378Z" fill="#79B939"/>
<path d="M119.903 180.94C115.623 182.87 112.46 180.297 111.901 180.021C112.367 180.757 112.925 181.4 113.576 181.951C113.576 181.951 115.995 183.973 119.531 182.135C119.531 182.135 119.996 181.676 120.648 180.665C120.368 180.849 120.182 180.94 119.903 180.94Z" fill="#9EBA2F"/>
<path opacity="0.5" d="M123.625 98.8787C124.555 93.0893 126.789 78.8455 128.091 68.6451C127.998 67.2667 128.184 55.2283 128.184 55.2283C128.184 55.2283 127.254 55.1364 126.416 55.2283C126.509 55.8716 126.509 56.6987 126.602 57.7095C126.789 62.3962 124.835 89.5973 123.625 98.8787Z" fill="#79B939"/>
<path opacity="0.5" d="M125.393 156.589C124.462 138.026 124.835 114.042 128.091 91.803C130.883 72.6887 134.79 54.5853 135.814 49.9905C135.721 49.9905 135.535 49.8986 135.442 49.8986C135.163 49.8067 134.883 49.8067 134.604 49.7148C133.395 55.5043 130.79 67.4507 128.277 81.3269C124.835 100.625 123.253 130.399 123.067 148.227C122.881 166.055 122.695 177.266 120.648 180.758C122.509 177.909 126.137 170.466 125.393 156.589Z" fill="#79B939"/>
<g opacity="0.4" style="mix-blend-mode:soft-light">
<path d="M117.112 174.784C117.67 171.752 121.299 140.783 121.392 137.567C121.578 134.258 121.764 130.95 121.95 127.642C122.043 126.08 122.043 124.518 122.136 122.955C122.229 121.301 122.416 119.647 122.509 117.993C122.602 115.144 122.881 112.295 123.067 109.447C123.253 106.69 123.253 103.841 123.811 101.084C123.904 100.808 123.346 100.9 123.253 101.084C123.253 101.084 123.253 101.084 123.253 101.176C122.695 103.29 122.229 105.403 121.857 107.517C121.671 108.528 121.485 109.447 121.299 110.458C120.648 113.582 120.089 116.798 119.531 119.923C118.88 123.139 118.508 126.355 117.67 129.572C116.926 132.512 116.368 135.453 115.902 138.486C115.344 141.518 114.786 144.643 114.228 147.675C113.669 150.708 112.832 153.74 112.367 156.865C111.901 159.989 111.529 163.022 111.064 166.146C110.692 168.995 110.692 172.119 111.157 174.968C111.436 176.806 112.367 179.471 114.507 179.747C115.251 179.839 115.809 179.195 116.088 178.644C116.554 177.357 116.833 175.979 117.112 174.784Z" fill="url(#paint2_radial_8002_27155)"/>
</g>
<defs>
<radialGradient id="paint0_radial_8002_27155" cx="0" cy="0" r="1" gradientTransform="matrix(88.4518 -2.64805 2.68116 87.3594 21.7666 139.943)" gradientUnits="userSpaceOnUse">
<stop stop-color="white"/>
<stop offset="0.5188" stop-color="white"/>
<stop offset="0.6046" stop-color="white"/>
<stop offset="1" stop-color="white"/>
</radialGradient>
<radialGradient id="paint1_radial_8002_27155" cx="0" cy="0" r="1" gradientTransform="matrix(71.9204 6.30382 -6.38265 71.0321 51.8218 124.969)" gradientUnits="userSpaceOnUse">
<stop stop-color="white"/>
<stop offset="0.5188" stop-color="white"/>
<stop offset="0.6046" stop-color="white"/>
<stop offset="1" stop-color="white"/>
</radialGradient>
<radialGradient id="paint2_radial_8002_27155" cx="0" cy="0" r="1" gradientTransform="matrix(70.0505 17.3249 -17.5415 69.1854 66.8245 134.855)" gradientUnits="userSpaceOnUse">
<stop stop-color="white"/>
<stop offset="0.5188" stop-color="white"/>
<stop offset="0.6046" stop-color="white"/>
<stop offset="1" stop-color="white"/>
</radialGradient>
</defs>
</svg>
