<svg width="200" height="200" viewBox="0 0 200 200" fill="none" xmlns="http://www.w3.org/2000/svg">
<path d="M82.9623 157.782C80.0394 157.741 77.1223 157.507 74.2295 157.083C73.05 156.93 71.7731 156.777 70.5611 156.668C63.903 156.034 57.4456 154.022 51.5915 150.757C46.2079 147.725 41.4771 143.639 37.6754 138.74C33.5891 133.499 30.5759 127.49 28.811 121.062C27.0462 114.634 26.5649 107.917 27.3952 101.3C28.8777 89.8502 35.6843 76.0081 46.1268 63.2586C55.8659 51.3394 66.2759 43.4734 73.2989 42.796C76.0475 42.5338 78.5148 42.3809 80.6682 42.3809C88.3188 42.3809 92.5716 44.0415 95.3526 47.9854C96.6734 49.5235 98.1215 50.9452 99.6811 52.2353C106.109 58.0365 118.077 68.7976 123.661 84.1473C125.457 89.1182 131.106 106.139 128.509 118.244C127.34 123.707 125.522 130.732 121.713 137.287C117.437 144.859 110.65 150.663 102.549 153.674C94.9739 156.548 88.8923 157.815 82.9407 157.815L82.9623 157.782Z" fill="url(#paint0_linear_7002_11160)"/>
<path d="M123.844 86.313C120.834 78.5194 116.342 71.3767 110.614 65.2764C103.492 98.6146 86.9552 122.823 77.6063 129.67C70.749 134.663 59.9669 137.758 51.522 136.748C44.6647 135.914 37.7963 134.257 32.7801 128.167C36.0215 136.001 41.3639 142.798 48.2234 147.814C55.0829 152.83 63.1956 155.873 71.6751 156.611C80.8586 157.511 87.3631 159.574 103.272 153.637C121.628 146.8 126.423 129.912 128.628 119.421C130.833 108.93 126.644 93.9069 123.877 86.313H123.844Z" fill="url(#paint1_linear_7002_11160)"/>
<path d="M61.2439 55.8077C58.9729 55.8768 56.7416 55.1964 54.8883 53.8695C53.035 52.5426 51.6609 50.6417 50.9745 48.4551C50.9009 48.2241 50.8882 47.9777 50.9375 47.7401C50.9868 47.5026 51.0965 47.2822 51.2558 47.1004C51.3834 46.9605 51.5393 46.85 51.713 46.7765C51.8866 46.7029 52.074 46.6681 52.2622 46.6743C52.3547 46.6524 52.451 46.6524 52.5436 46.6743C53.4245 46.872 54.3249 46.9673 55.2272 46.9584C61.6659 46.9584 68.2127 42.643 69.2949 41.5723C69.5944 41.2738 69.9519 41.0411 70.3449 40.8888C70.7378 40.7365 71.1577 40.668 71.5781 40.6874C72.727 40.7736 73.859 41.0162 74.9436 41.4085C75.6946 41.6586 76.4609 41.8593 77.2377 42.0093C77.4467 42.0203 77.6562 42.0203 77.8653 42.0093C79.1206 42.0093 80.7437 41.2883 84.2607 36.2081C84.3916 36.024 84.5637 35.8736 84.763 35.7692C84.9623 35.6648 85.1832 35.6094 85.4077 35.6073C85.6371 35.6021 85.8639 35.658 86.0652 35.7692C86.2665 35.8804 86.4353 36.0431 86.5548 36.2409C87.5516 38.1399 88.0799 40.2537 88.095 42.4029C88.1101 44.552 87.6114 46.6731 86.6413 48.5862C84.9424 52.3007 80.7113 54.3765 75.1708 54.3765C73.0068 54.3982 70.855 54.0472 68.8079 53.3386C66.5886 54.9234 63.9507 55.8022 61.233 55.8623L61.2439 55.8077Z" fill="url(#paint2_linear_7002_11160)"/>
<path d="M138.801 75.0142C130.726 74.8154 122.765 73.0499 115.351 69.8138C107.04 66.1802 100.018 60.0847 95.2129 52.3338C91.2632 45.7132 89.4019 42.2062 88.2765 40.1196C86.794 37.4102 86.794 37.4102 85.16 35.979C78.7538 30.5164 77.5851 28.8121 77.3254 27.96C77.2101 27.6935 77.1485 27.4065 77.1444 27.1158C77.1404 26.825 77.1938 26.5364 77.3016 26.2667C77.4095 25.9971 77.5695 25.7519 77.7724 25.5455C77.9754 25.3391 78.217 25.1757 78.4833 25.0649C78.6167 25.0055 78.7643 24.9864 78.9082 25.0096C79.0522 25.0329 79.1864 25.0976 79.2949 25.196C80.3011 26.2082 81.2206 27.3046 82.0435 28.4735C83.5693 30.4509 85.2899 32.6796 86.7183 33.499C88.7307 33.8403 90.7704 33.9903 92.8106 33.9469C100.277 34.1763 111.575 34.4932 119.247 38.5354C125.354 41.7578 130.563 46.4758 134.397 52.2573C138.732 58.7418 140.579 66.599 139.591 74.3587C139.555 74.5514 139.453 74.7252 139.302 74.8492C139.152 74.9732 138.963 75.0394 138.768 75.036L138.801 75.0142Z" fill="url(#paint3_linear_7002_11160)"/>
<path d="M77.3254 27.96C77.5851 28.8121 78.7538 30.5164 85.16 35.979L86.7183 33.499C85.2899 32.6796 83.5693 30.4509 82.0435 28.4735C81.2206 27.3046 80.3011 26.2082 79.2949 25.196C79.1865 25.0976 79.0522 25.0329 78.9082 25.0096C78.7643 24.9864 78.6167 25.0055 78.4833 25.0649C78.217 25.1757 77.9754 25.3391 77.7724 25.5455C77.5695 25.7519 77.4095 25.9971 77.3016 26.2667C77.1938 26.5364 77.1404 26.825 77.1444 27.1158C77.1485 27.4065 77.2101 27.6935 77.3254 27.96Z" fill="#236307"/>
<path d="M62.5642 83.175C55.6711 90.8226 53.4094 107.56 46.4297 104.042C39.45 100.524 39.3743 85.8298 43.8651 76.5872C48.3559 67.3446 58.4305 59.271 65.3994 62.7561C72.3683 66.2412 71.5783 73.0912 62.5642 83.1532V83.175Z" fill="url(#paint4_linear_7002_11160)"/>
<path d="M125.609 175C118.985 175.021 112.575 172.636 107.548 168.281C103.658 165.004 99.4906 162.08 95.0927 159.541C93.5236 158.569 91.9112 157.717 90.3963 156.875C83.027 152.921 76.0689 149.162 75.0301 133.245C74.7379 128.569 76.307 123.03 79.5534 117.239C83.1653 111.033 87.7062 105.428 93.015 100.622C105.546 89.031 121.356 81.2196 136.43 79.0892C140.953 78.2589 144.751 77.4395 147.792 76.7184C152.911 75.6259 156.265 74.8393 159.025 74.8393C161.205 74.7511 163.343 75.4654 165.041 76.8495C169.489 80.4439 170.387 87.4031 171.534 96.1978C171.675 97.2903 171.837 98.4921 171.989 99.661C175.235 123.434 170.625 143.219 158.743 156.897C148.799 168.401 136.711 174.989 125.598 174.989L125.609 175Z" fill="url(#paint5_linear_7002_11160)"/>
<path d="M159.696 123.368C170.701 92.7778 163.689 80.4871 161.232 78.7391C161.126 78.6701 161.014 78.6116 160.897 78.5643C160.69 78.4844 160.488 78.3933 160.291 78.2911C156.06 76.6305 150.206 79.0231 135.716 81.8199C104.94 86.2664 77.1513 114.792 78.3633 132.534C78.5051 135.547 79.0325 138.529 79.9324 141.405C81.3451 144.171 83.3486 146.586 85.7982 148.476C88.2479 150.365 91.0825 151.681 94.0974 152.33C100.417 153.663 101.542 157.29 109.658 159.322C117.774 161.354 148.16 155.542 159.696 123.412V123.368Z" fill="url(#paint6_linear_7002_11160)"/>
<path d="M147.372 93.2261C147.328 93.2497 147.29 93.2838 147.262 93.3254C147.308 93.3046 147.347 93.2699 147.372 93.2261Z" fill="#FEF7E9"/>
<path d="M147.738 91.1284C147.511 91.3469 147.738 91.9478 147.37 92.2209C152.294 88.7249 158.289 83.7431 164.414 83.2514C163.44 80.1706 162.163 78.4772 161.351 77.9091C161.246 77.8379 161.134 77.7793 161.016 77.7343C160.809 77.6545 160.607 77.5633 160.41 77.4612C158.516 76.6855 156.319 76.751 153.127 77.2973C152.965 83.3607 147.716 88.6812 145.357 93.9908C145.96 92.8903 146.764 91.9153 147.727 91.1175L147.738 91.1284Z" fill="#FFE499"/>
<path d="M112.461 133.463C108.371 138.663 103.609 147.534 109.778 152.811C115.946 158.088 128.769 154.013 136.106 143.219C143.443 132.425 150.336 131.715 153.669 119.009C157.002 106.303 153.907 100.535 147.933 100.535C141.96 100.535 136.787 105.997 134.201 110.881C131.615 115.764 121.389 125.509 117.612 128.361C115.621 129.758 113.879 131.487 112.461 133.474V133.463Z" fill="#BC9B08"/>
<path d="M111.985 131.54C107.894 136.74 103.133 145.611 109.301 150.888C115.469 156.165 128.292 152.09 135.629 141.296C142.966 130.502 149.859 129.792 153.192 117.086C156.525 104.38 153.43 98.6118 147.457 98.6118C141.484 98.6118 136.289 104.074 133.703 108.925C131.117 113.776 120.88 123.554 117.114 126.427C115.126 127.828 113.384 129.556 111.963 131.54H111.985Z" fill="#F3DC45"/>
<path d="M153.744 102.862C153.972 106.6 153.547 110.35 152.489 113.94C149.242 126.657 142.295 127.367 134.937 138.15C127.578 148.933 114.766 153.062 108.63 147.742C107.665 146.957 106.891 145.959 106.369 144.825C106.397 145.99 106.674 147.136 107.182 148.182C107.69 149.229 108.417 150.152 109.312 150.888C115.491 156.154 128.303 152.09 135.64 141.296C142.977 130.502 149.87 129.792 153.203 117.086C154.837 110.597 154.891 105.91 153.733 102.884L153.744 102.862Z" fill="#FFDB00"/>
<path d="M104.302 136.26C101.055 141.438 86.7496 146.092 85.3104 133.867C83.8712 121.642 108.035 101.485 120.187 96.4487C132.34 91.4123 135.337 94.2637 135.586 98.0984C135.835 101.933 128.217 106.489 126.106 109.613C123.996 112.738 105.979 133.605 104.302 136.26Z" fill="#BC9B08"/>
<path d="M103.847 134.818C100.601 139.996 86.2952 144.65 84.8668 132.425C83.4384 120.2 107.646 100.043 119.755 94.9958C131.864 89.9485 134.904 92.8108 135.164 96.6565C135.424 100.502 127.795 105.047 125.674 108.171C123.553 111.296 105.503 132.207 103.847 134.807V134.818Z" fill="#F3DC45"/>
<path d="M126.312 104.992C124.148 108.204 105.481 129.77 103.771 132.479C100.741 137.275 88.5565 141.645 85.0287 133.386C87.0848 144.399 100.676 139.876 103.869 134.828C105.503 132.195 123.52 111.339 125.695 108.215C127.87 105.09 135.434 100.567 135.174 96.7107C135.171 96.4908 135.149 96.2715 135.11 96.0552C132.945 99.2016 128 102.523 126.323 104.992H126.312Z" fill="#FFDB00"/>
<path d="M113.337 127.847C118.575 120.141 124.281 112.77 130.424 105.779C132.58 103.846 134.881 102.085 137.307 100.513C132.783 107.701 132.567 108.685 130.424 112.279C128.282 115.873 113.337 127.847 113.337 127.847Z" fill="#FFD623"/>
<path d="M132.318 107.942C131.127 109.93 126.074 114.497 121.756 118.124C118.8 120.618 116.203 123.515 114.04 126.733C113.792 127.115 113.543 127.476 113.326 127.825C113.326 127.825 128.26 115.808 130.413 112.246C132.566 108.685 132.783 107.669 137.295 100.48C137.295 100.48 133.768 105.451 132.285 107.942H132.318Z" fill="#C79C0B"/>
<path d="M148.019 101.933C148.669 101.638 148.842 100.841 148.355 100.939C147.868 101.037 140.347 103.124 140.596 103.288C143.121 103.187 145.619 102.731 148.019 101.933ZM151.601 105.342C152.586 105.123 153.138 104.249 152.488 104.348C151.839 104.446 140.802 105.528 141.029 105.779C144.551 106.001 148.087 105.854 151.579 105.342H151.601ZM149.231 110.04C150.313 109.81 150.974 108.543 150.194 108.609C149.415 108.674 136.505 108.98 136.819 109.362C137.133 109.745 146.364 110.575 149.22 110.04H149.231ZM149.459 112.574C150.129 112.443 150.432 111.689 150 111.744C149.567 111.799 142.014 112.17 142.187 112.367C144.591 112.763 147.036 112.833 149.459 112.574ZM135.142 122.888C135.813 123.008 136.386 122.44 135.954 122.33C135.521 122.221 128.379 119.687 128.487 119.982C130.568 121.237 132.801 122.213 135.131 122.888H135.142ZM146.385 115.317C147.467 115.251 148.084 114.224 147.392 114.224C146.699 114.224 135.272 113.317 135.488 113.656C135.705 113.995 143.767 115.469 146.31 115.317H146.385ZM147.197 123.838C148.279 123.904 149.015 123.008 148.344 122.909C147.673 122.811 136.441 120.429 136.646 120.834C136.852 121.238 144.611 123.674 147.197 123.838ZM149.036 119.108C150.194 119.108 151.049 118.015 150.292 117.928C149.534 117.84 136.819 115.36 137.047 115.808C137.274 116.256 146.104 119.086 149.036 119.086V119.108ZM142.847 120.626C144.005 120.626 144.86 119.534 144.102 119.468C143.345 119.402 130.684 116.715 130.9 117.163C131.117 117.611 139.914 120.473 142.847 120.626ZM135.001 131.551C136.083 131.846 137.166 130.939 136.473 130.721C135.78 130.502 123.92 125.182 124.039 125.663C124.158 126.143 132.177 130.83 135.001 131.584V131.551ZM130.835 133.518C131.917 133.944 133.097 133.179 132.404 132.84C131.712 132.502 120.566 125.848 120.642 126.285C120.717 126.722 128.13 132.392 130.835 133.463V133.518ZM127.654 138.445C128.617 139.1 129.948 138.598 129.299 138.106C128.649 137.615 119.202 128.722 119.17 129.246C119.137 129.77 125.197 136.773 127.654 138.401V138.445ZM139.784 128.011C140.791 128.153 141.646 127.269 140.964 127.116C140.282 126.963 129.504 123.543 129.645 123.947C129.785 124.352 137.22 127.662 139.784 128.022V128.011ZM126.16 144.672C126.983 145.502 128.325 145.328 127.859 144.672C127.394 144.017 120.122 133.245 119.971 133.747C119.819 134.25 124.158 142.487 126.16 144.672ZM118.867 146.223C119.516 147.196 120.912 147.316 120.512 146.595C120.111 145.874 114.852 133.977 114.625 134.424C114.398 134.872 117.244 143.765 118.856 146.223H118.867ZM131.701 94.3186C131.452 93.969 130.824 94.1329 130.933 94.3841C131.041 94.6354 132.794 99.0819 132.924 98.8634C132.775 97.2893 132.361 95.7523 131.701 94.3186ZM110.881 104.151C110.253 103.714 109.333 104.151 109.712 104.512C110.091 104.872 116.064 111.067 116.107 110.619C116.151 110.171 112.461 105.276 110.881 104.195V104.151ZM129.353 95.3018C129.104 94.7665 128.368 94.6245 128.53 95.0178C128.693 95.4111 130.391 101.912 130.554 101.704C130.445 99.5273 130.052 97.3747 129.385 95.3018H129.353ZM127.805 99.1147C127.6 98.7542 126.94 98.8634 127.048 99.1147C127.156 99.366 128.541 103.954 128.682 103.725C128.658 102.147 128.358 100.586 127.794 99.1147H127.805ZM124.375 97.0608C124.083 96.6784 123.412 96.7658 123.552 97.0608C123.693 97.3558 125.944 102.392 126.085 102.141C125.779 100.356 125.198 98.6313 124.364 97.028L124.375 97.0608ZM122.47 101.016C122.113 100.568 121.388 100.655 121.594 101.016C121.799 101.376 124.84 107.024 124.992 106.806C124.402 104.795 123.555 102.87 122.47 101.081V101.016ZM118.672 100.065C118.315 99.6172 117.59 99.7046 117.796 100.065C118.001 100.426 121.042 106.074 121.193 105.855C120.605 103.842 119.754 101.917 118.661 100.131L118.672 100.065ZM116.746 103.66C116.194 103.07 115.22 103.244 115.556 103.66C115.891 104.075 120.966 111.493 121.042 111.11C121.118 110.728 118.153 105.047 116.713 103.594L116.746 103.66ZM107.007 109.22C106.044 108.696 104.843 109.22 105.481 109.603C106.119 109.985 115.859 117.36 115.837 116.933C115.815 116.507 109.442 110.531 106.996 109.22H107.007ZM92.1059 129.432C91.2943 129.432 90.6775 130.262 91.2402 130.262C91.8029 130.262 101.131 131.354 100.979 131.092C98.09 130.215 95.1147 129.658 92.1059 129.432ZM93.0041 122.057C91.9219 121.992 91.0995 123.019 91.8029 123.15C92.5063 123.281 104.301 126.078 104.085 125.652C103.869 125.226 95.7094 122.287 93.0041 122.057ZM96.7807 126.897C95.9583 126.81 95.2549 127.487 95.7959 127.607C96.337 127.727 105.416 130.131 105.286 129.792C102.577 128.48 99.7213 127.5 96.7807 126.875V126.897ZM100.265 116.955C99.4535 116.78 98.7069 117.392 99.183 117.545C99.6591 117.698 108.533 120.987 108.424 120.67C105.856 119.095 103.104 117.848 100.233 116.955H100.265ZM102.429 120.55C101.618 120.375 100.871 120.987 101.347 121.14C101.823 121.293 110.697 124.581 110.589 124.264C108.02 122.69 105.269 121.442 102.397 120.55H102.429ZM101.347 112.115C100.525 111.864 99.7132 112.432 100.265 112.64C100.817 112.847 109.323 116.78 109.236 116.475C106.777 114.717 104.127 113.251 101.336 112.105L101.347 112.115ZM90.1148 133.692C89.2924 133.758 88.773 134.785 89.2924 134.785C89.8118 134.785 99.3129 135.714 99.1181 135.375C98.9233 135.036 92.2141 133.518 90.1148 133.714V133.692ZM112.342 148.594C112.591 149.752 113.878 150.255 113.77 149.523C113.662 148.791 112.958 135.692 112.569 136.03C112.179 136.369 111.757 145.721 112.352 148.594H112.342Z" fill="#F5FF82"/>
<path d="M85.9351 34.4692C100.536 44.0759 130.92 64.8794 135.645 71.2397" stroke="#236307" stroke-width="1.98055" stroke-linecap="round"/>
<defs>
<linearGradient id="paint0_linear_7002_11160" x1="54.9282" y1="55.8357" x2="109.321" y2="143.323" gradientUnits="userSpaceOnUse">
<stop stop-color="#FDF1A8"/>
<stop offset="0.305" stop-color="#F8E253"/>
<stop offset="1" stop-color="#E1C50E"/>
</linearGradient>
<linearGradient id="paint1_linear_7002_11160" x1="46.0689" y1="81.1771" x2="99.7381" y2="153.89" gradientUnits="userSpaceOnUse">
<stop offset="0.305" stop-color="#F5E054"/>
<stop offset="1" stop-color="#D9BA19"/>
</linearGradient>
<linearGradient id="paint2_linear_7002_11160" x1="69.5017" y1="35.6069" x2="69.5017" y2="55.8623" gradientUnits="userSpaceOnUse">
<stop stop-color="#76E043"/>
<stop offset="1" stop-color="#3B8916"/>
</linearGradient>
<linearGradient id="paint3_linear_7002_11160" x1="108.498" y1="25" x2="108.498" y2="75.0361" gradientUnits="userSpaceOnUse">
<stop stop-color="#76E043"/>
<stop offset="1" stop-color="#3B8916"/>
</linearGradient>
<linearGradient id="paint4_linear_7002_11160" x1="55.4205" y1="62.2953" x2="66.0893" y2="83.2155" gradientUnits="userSpaceOnUse">
<stop stop-color="#FFF29E"/>
<stop offset="1" stop-color="#F9E45C"/>
</linearGradient>
<linearGradient id="paint5_linear_7002_11160" x1="123.998" y1="74.832" x2="123.998" y2="175" gradientUnits="userSpaceOnUse">
<stop stop-color="#FDE966"/>
<stop offset="0.305" stop-color="#EFD73B"/>
<stop offset="1" stop-color="#DBC117"/>
</linearGradient>
<linearGradient id="paint6_linear_7002_11160" x1="122.356" y1="84.6556" x2="122.007" y2="159.684" gradientUnits="userSpaceOnUse">
<stop stop-color="#FFFBE7"/>
<stop offset="1" stop-color="#FFF0A5"/>
</linearGradient>
</defs>
</svg>
