<svg width="200" height="200" viewBox="0 0 200 200" fill="none" xmlns="http://www.w3.org/2000/svg">
<path d="M75.3556 171.98C78.7442 178.338 90.1807 180.598 99.7816 180.598C99.9228 180.598 100.064 180.598 100.064 180.598C109.665 180.598 121.384 178.338 124.631 171.698C124.914 170.991 125.196 170.285 125.337 169.437C126.89 160.961 129.996 107.558 129.996 94.1368C129.996 87.9206 129.29 82.8347 127.737 78.4551C127.737 78.0313 127.596 77.7487 127.314 77.3249C125.478 72.6627 122.796 68.9896 119.266 65.8815C113.054 60.3717 107.688 59.1002 106.559 58.8176C106.559 58.6764 106.559 58.5351 106.418 58.3938C107.124 56.4159 110.936 45.2551 107.547 36.0721V35.9308C108.677 35.6483 109.524 35.2244 110.371 34.9419C110.653 35.6483 113.76 47.0917 109.383 56.8398C124.49 62.4908 133.526 72.804 132.82 94.9844C132.256 117.024 129.008 157.005 128.585 165.764C128.02 177.631 121.807 179.044 117.713 180.457C113.054 181.87 106.841 183 99.9228 183C93.0045 183 86.7921 181.87 82.1328 180.457C77.8971 179.185 71.6847 177.631 71.2611 165.764C70.8375 157.005 67.5901 117.024 67.0254 94.9844C66.4606 72.9453 75.3556 62.4908 90.6042 56.8398C86.5097 47.6568 89.0511 36.9198 89.6159 35.0832C90.3218 35.3657 91.169 35.7896 92.2985 35.9308C89.0511 44.8313 92.2985 55.427 93.2869 57.97C93.0045 58.1113 92.8633 58.3938 92.8633 58.6764C91.169 59.1002 86.2273 60.6542 80.4385 65.5989C76.7675 68.8483 74.0849 72.6627 72.2494 77.4661C70.5551 82.4108 69.708 87.6381 69.708 94.1368C69.708 107.558 72.9554 161.102 74.5085 169.437C74.6497 170.285 74.9321 171.133 75.3556 171.98Z" fill="#DEEDEB"/>
<path d="M130.138 94.1374C130.138 107.559 126.89 161.103 125.478 169.438C125.337 170.286 125.055 170.992 124.772 171.698L124.49 171.557C121.525 167.743 111.642 164.917 100.064 164.917C88.0628 164.917 78.0383 167.884 75.3556 171.84C74.9321 171.133 74.6497 170.286 74.5085 169.438C72.9554 160.961 69.708 107.559 69.708 94.1374C69.708 87.6387 70.5552 82.2702 72.2494 77.8906C72.1083 78.1732 72.1083 78.4557 72.1083 78.597C72.1083 82.694 84.533 86.0847 99.9228 86.0847C115.313 86.0847 127.737 82.694 127.737 78.597V78.4557C129.432 82.8353 130.138 87.9213 130.138 94.1374Z" fill="#E8E2C8"/>
<path d="M127.879 78.4553V78.5965C127.879 82.6936 115.454 86.0842 100.064 86.0842C84.6743 86.0842 72.2495 82.6936 72.2495 78.5965C72.2495 78.314 72.2495 78.0314 72.3907 77.8902C73.8026 74.0757 85.6626 71.1089 100.064 71.1089C113.76 71.1089 125.196 73.7931 127.455 77.3251C127.596 77.7489 127.737 78.0314 127.879 78.4553Z" fill="#F9F1D2"/>
<path d="M124.349 171.557L124.631 171.698C121.384 178.338 109.665 180.598 100.064 180.598C99.9227 180.598 99.7815 180.598 99.7815 180.598C90.1805 180.598 78.744 178.338 75.3555 171.98C78.0381 168.025 88.0626 165.058 100.064 165.058C111.641 164.917 121.384 167.742 124.349 171.557Z" fill="#CCC4A3"/>
<path d="M124.349 171.557L124.631 171.698C121.384 178.338 109.665 180.598 100.064 180.598C99.9227 180.598 99.7815 180.598 99.7815 180.598C90.1805 180.598 78.744 178.338 75.3555 171.98C78.0381 168.025 88.0626 165.058 100.064 165.058C111.641 164.917 121.384 167.742 124.349 171.557Z" fill="url(#paint0_linear_2006_75699)"/>
<path d="M127.879 78.4557V78.597C127.879 82.694 115.454 86.0847 100.064 86.0847C84.6742 86.0847 72.2494 82.694 72.2494 78.597C72.2494 78.3145 72.2494 78.0319 72.3906 77.8906C70.5552 82.4115 69.708 87.6387 69.708 94.1374C69.708 107.559 72.9554 161.103 74.5085 169.438C74.6497 170.286 74.9321 171.133 75.3556 171.84C78.7442 178.197 90.1807 180.457 99.7816 180.457C99.9228 180.457 100.064 180.457 100.064 180.457C109.665 180.457 121.384 178.197 124.631 171.557C124.914 170.851 125.196 170.144 125.337 169.297C126.89 160.82 129.996 107.417 129.996 93.9962C130.138 87.9213 129.432 82.8353 127.879 78.4557Z" fill="url(#paint1_linear_2006_75699)"/>
<g opacity="0.6" style="mix-blend-mode:overlay">
<path d="M71.8259 170.144C73.5202 178.055 78.6031 179.327 82.274 180.457C86.9333 181.87 93.1457 183 100.064 183C106.982 183 113.195 181.87 117.854 180.457C121.525 179.327 126.89 177.914 128.443 169.296C103.029 139.204 77.3324 162.798 71.8259 170.144Z" fill="url(#paint2_linear_2006_75699)"/>
</g>
<path d="M119.407 65.8815C122.937 68.9896 125.619 72.6628 127.455 77.3249C125.196 73.793 113.759 71.1088 100.064 71.1088C85.6624 71.1088 73.8024 74.0756 72.3905 77.89C74.226 73.0866 76.9086 69.1309 80.5796 66.0228C86.2272 61.0781 91.1689 59.5241 93.0044 59.1003C93.1455 60.0892 96.2517 60.9369 99.9227 60.9369C103.735 60.9369 106.841 60.0892 106.841 58.959C107.971 59.1003 113.195 60.513 119.407 65.8815Z" fill="#DAE8E6"/>
<path d="M110.371 35.0834C109.665 35.5072 108.677 35.7898 107.547 36.0723C105.429 36.6374 102.888 37.0613 99.923 37.0613C96.9579 37.0613 94.2753 36.7787 92.1575 36.2136C91.1691 35.9311 90.1808 35.6485 89.4748 35.3659C89.1925 35.2247 88.7689 35.0834 88.6277 34.8008C86.5098 33.8119 85.9451 32.1166 85.9451 27.3132C85.9451 22.6511 85.9451 20.3906 87.357 19.543C87.0746 19.8255 86.9334 20.1081 86.9334 20.3906C86.9334 22.2272 92.7222 23.7813 99.923 23.7813C106.841 23.7813 112.63 22.3685 112.913 20.5319C113.618 21.8034 113.618 23.9225 113.618 27.3132C113.618 31.9753 113.054 33.6706 110.936 34.8008C110.795 34.8008 110.512 34.9421 110.371 35.0834Z" fill="#9AA390"/>
<path d="M110.371 35.0834C109.665 35.5072 108.677 35.7898 107.547 36.0723C105.429 36.6374 102.888 37.0613 99.923 37.0613C96.9579 37.0613 94.2753 36.7787 92.1575 36.2136C91.1691 35.9311 90.1808 35.6485 89.4748 35.3659C89.1925 35.2247 88.7689 35.0834 88.6277 34.8008C86.5098 33.8119 85.9451 32.1166 85.9451 27.3132C85.9451 22.6511 85.9451 20.3906 87.357 19.543C87.0746 19.8255 86.9334 20.1081 86.9334 20.3906C86.9334 22.2272 92.7222 23.7813 99.923 23.7813C106.841 23.7813 112.63 22.3685 112.913 20.5319C113.618 21.8034 113.618 23.9225 113.618 27.3132C113.618 31.9753 113.054 33.6706 110.936 34.8008C110.795 34.8008 110.512 34.9421 110.371 35.0834Z" fill="url(#paint3_linear_2006_75699)"/>
<g opacity="0.3" style="mix-blend-mode:overlay">
<path d="M94.5576 23.4987C91.5926 23.0749 89.1923 22.5098 87.9216 21.6621C87.0745 25.9004 87.3568 30.1387 88.0628 34.377C88.204 34.5183 88.4864 34.6596 88.7687 34.8008C89.0511 34.9421 89.3335 35.2247 89.6159 35.3659C90.3218 35.6485 91.169 36.0723 92.2985 36.2136C93.1457 36.3549 93.9928 36.6374 94.9811 36.7787C94.4164 32.2579 94.134 27.8783 94.5576 23.4987Z" fill="url(#paint4_linear_2006_75699)"/>
</g>
<g opacity="0.3" style="mix-blend-mode:overlay">
<path d="M113.054 20.5322C112.912 21.6624 110.653 22.5101 107.547 23.0752C107.971 27.3135 107.971 31.6931 107.688 35.9314C108.818 35.6488 109.665 35.225 110.512 34.9424C110.653 34.8012 110.795 34.8012 110.936 34.6599C113.054 33.6709 113.618 31.9756 113.618 27.1722C113.618 23.9229 113.618 21.8037 113.054 20.5322Z" fill="url(#paint5_linear_2006_75699)"/>
</g>
<path d="M113.054 20.5319C112.63 22.3685 106.982 23.7813 100.064 23.7813C92.8633 23.7813 87.0745 22.2272 87.0745 20.3906C87.0745 20.1081 87.2157 19.8255 87.498 19.543C88.9099 18.1302 93.9928 17 100.064 17C107.265 17 113.054 18.554 113.054 20.3906C113.054 20.5319 113.054 20.5319 113.054 20.5319ZM108.677 21.097C108.677 20.2494 104.723 19.543 100.064 19.543C95.2635 19.543 91.3102 20.2494 91.3102 21.097C91.3102 21.9447 95.2635 22.6511 100.064 22.6511C104.865 22.6511 108.677 21.9447 108.677 21.097Z" fill="#B7BFB0"/>
<path d="M113.054 20.5319C112.63 22.3685 106.982 23.7813 100.064 23.7813C92.8633 23.7813 87.0745 22.2272 87.0745 20.3906C87.0745 20.1081 87.2157 19.8255 87.498 19.543C88.9099 18.1302 93.9928 17 100.064 17C107.265 17 113.054 18.554 113.054 20.3906C113.054 20.5319 113.054 20.5319 113.054 20.5319ZM108.677 21.097C108.677 20.2494 104.723 19.543 100.064 19.543C95.2635 19.543 91.3102 20.2494 91.3102 21.097C91.3102 21.9447 95.2635 22.6511 100.064 22.6511C104.865 22.6511 108.677 21.9447 108.677 21.097Z" fill="url(#paint6_linear_2006_75699)"/>
<path d="M107.688 36.2139C111.077 45.3968 107.406 56.5577 106.559 58.5356C105.994 57.6879 103.17 56.9815 99.7818 56.9815C96.8168 56.9815 94.1341 57.5466 93.1458 58.253C92.2987 55.71 88.9101 44.973 92.1575 36.2139C94.2753 36.779 96.958 37.0615 99.923 37.0615C102.888 37.0615 105.571 36.6377 107.688 36.2139Z" fill="#DAE8E6"/>
<path d="M106.7 58.818C106.7 59.9483 103.594 60.7959 99.7816 60.7959C95.9694 60.7959 92.8632 59.9483 92.8632 58.9593C92.8632 58.9593 92.722 58.6768 93.2868 58.2529C94.2751 57.5466 96.8166 56.9814 99.9228 56.9814C103.311 56.9814 106.135 57.6878 106.7 58.5355C106.559 58.5355 106.841 58.6768 106.7 58.818Z" fill="#CBDFDC"/>
<path d="M100.064 19.543C104.864 19.543 108.677 20.2494 108.677 21.097C108.677 21.9447 104.723 22.6511 100.064 22.6511C95.2635 22.6511 91.3102 21.9447 91.3102 21.097C91.3102 20.2494 95.2635 19.543 100.064 19.543Z" fill="#97AD9D"/>
<g opacity="0.6" style="mix-blend-mode:overlay">
<path d="M91.3102 21.097C91.3102 21.9447 95.2635 22.6511 100.064 22.6511C101.758 22.6511 103.453 22.5098 104.723 22.3685C102.747 21.5208 100.911 20.5319 99.0757 19.543C94.6988 19.6842 91.3102 20.2494 91.3102 21.097Z" fill="url(#paint7_linear_2006_75699)"/>
</g>
<g opacity="0.6" style="mix-blend-mode:overlay">
<path d="M107.547 36.0724C105.429 36.6375 102.888 37.0614 99.9229 37.0614C96.9579 37.0614 94.2752 36.7788 92.1574 36.2137C91.169 35.9312 90.1807 35.6486 89.4748 35.366C89.3336 35.7899 89.0512 36.9201 88.7688 38.4741C96.1107 43.2775 103.876 44.4078 111.501 42.995C111.218 38.6154 110.371 35.5073 110.23 35.0835C109.665 35.366 108.677 35.7899 107.547 36.0724Z" fill="url(#paint8_linear_2006_75699)"/>
</g>
<path d="M127.879 99.6465L127.596 103.32C121.808 105.721 111.642 107.275 99.9229 107.275C88.3453 107.275 78.0384 105.721 72.2495 103.32L71.9672 99.6465C77.756 102.048 88.0629 103.744 99.7817 103.744C111.783 103.744 122.09 102.048 127.879 99.6465Z" fill="#139183"/>
<path d="M127.596 103.32L125.761 133.412C120.254 135.955 110.795 137.65 100.064 137.65C89.3335 137.65 80.0149 135.955 74.5085 133.412H74.2261L72.3906 103.32C78.1794 105.722 88.3452 107.276 100.064 107.276C111.642 107.276 121.807 105.722 127.596 103.32Z" fill="#00A39E"/>
<path d="M125.761 133.553L125.62 137.085C120.113 139.628 110.795 141.323 100.064 141.323C89.3336 141.323 80.015 139.628 74.5086 137.085L74.2262 133.553H74.5086C80.015 136.096 89.3336 137.791 100.064 137.791C110.795 137.791 120.254 136.096 125.761 133.553Z" fill="#139183"/>
<g opacity="0.4" style="mix-blend-mode:overlay">
<path d="M127.596 103.32L127.879 99.6465C122.655 101.907 113.76 103.32 103.453 103.602C93.2869 108.264 83.1212 113.35 73.379 118.86L74.2262 133.412L74.5086 137.085C79.7326 139.628 88.91 141.182 99.2169 141.323C108.253 136.378 117.148 131.575 126.184 126.63L127.596 103.32Z" fill="url(#paint9_linear_2006_75699)"/>
</g>
<path d="M77.1912 112.785C77.6148 112.785 77.8972 115.752 78.3208 121.686C78.4619 123.946 78.4619 125.217 78.6031 125.5C78.7443 124.794 79.0267 123.522 79.4503 121.827C80.2974 118.295 80.8622 115.611 81.0034 113.492C81.2858 113.209 81.5681 113.068 81.8505 113.209L82.2741 113.492C82.2741 113.774 82.1329 114.339 81.8505 115.469C81.5681 116.6 81.427 117.589 81.2858 118.436C81.1446 119.284 80.8622 120.132 80.721 120.838C80.5798 121.544 80.2974 122.392 80.1562 123.24C80.015 124.087 79.7327 124.935 79.5915 125.5C79.4503 126.206 79.3091 126.772 79.1679 127.337C78.6031 128.608 78.4619 129.315 78.3208 129.315C78.1796 129.315 78.0384 129.173 77.8972 129.032C77.756 127.619 77.4736 124.794 77.1912 120.697C76.9088 116.6 76.6265 114.057 76.6265 113.068C76.6265 112.785 76.9088 112.785 77.1912 112.785Z" fill="#FFE67B"/>
<path d="M86.2277 114.622H85.8041C85.6629 114.622 85.5217 114.622 85.5217 114.763C85.5217 114.763 85.3805 114.904 85.3805 115.046C85.3805 116.459 85.3805 118.436 85.5217 121.121C85.6629 123.805 85.6629 125.924 85.6629 127.196V128.043C85.8041 128.043 85.9453 128.043 86.0865 128.043C86.6512 128.043 86.9336 128.326 86.9336 128.75V128.891L86.3688 129.173H84.9569C83.6862 129.173 83.1215 128.891 83.1215 128.467C83.1215 128.184 83.4038 127.902 83.8274 128.043H84.251C84.3922 128.043 84.5334 127.902 84.5334 127.619C84.5334 126.489 84.5334 124.935 84.5334 122.816C84.5334 120.697 84.3922 119.001 84.5334 118.013L84.6746 115.893C84.6746 115.47 84.6746 115.046 84.6746 114.763C84.5334 114.763 84.3922 114.904 84.251 114.904C83.9686 114.904 83.8274 114.763 83.8274 114.339C83.8274 114.198 83.9686 114.057 84.1098 113.916C84.3922 113.774 84.5334 113.774 84.9569 113.633C85.5217 113.492 85.9453 113.492 86.2277 113.492C86.51 113.492 86.6512 113.633 86.7924 113.633C86.9336 113.774 86.9336 113.916 86.9336 114.057C86.9336 114.198 86.9336 114.339 86.7924 114.481C86.51 114.481 86.3688 114.622 86.2277 114.622Z" fill="#FFE67B"/>
<path d="M89.1925 118.436L89.3337 114.622V114.481C89.3337 113.774 89.4748 113.492 89.7572 113.492C90.0396 113.492 90.4632 114.198 90.8867 115.47C91.7339 117.871 92.7222 121.686 93.9929 127.054V127.196V119.849V113.633C94.1341 113.35 94.2753 113.068 94.6989 113.068C95.1225 113.068 95.2637 113.35 95.2637 113.916V114.057C95.1225 114.198 95.1225 114.481 95.1225 114.622L94.9813 122.392V128.75C94.9813 128.891 94.9813 129.173 94.8401 129.315C94.6989 129.456 94.5577 129.597 94.4165 129.597C94.1341 129.597 93.5694 128.184 92.7222 125.359C91.8751 122.533 91.0279 119.425 90.1808 116.035V122.957C90.1808 123.664 90.1808 124.653 90.322 125.924C90.4632 127.196 90.4632 128.184 90.4632 128.891C90.4632 129.032 90.322 129.173 90.1808 129.173C90.0396 129.315 89.7572 129.315 89.616 129.315C89.3337 129.315 89.1925 129.173 89.1925 129.032L89.3337 127.478C89.3337 126.772 89.3337 125.641 89.1925 123.946C89.0513 122.392 89.0513 121.403 89.0513 120.979L89.1925 118.436Z" fill="#FFE67B"/>
<path d="M99.9231 121.544H99.4995C99.3583 121.544 99.2171 121.544 99.0759 121.686L99.2171 128.184C99.9231 128.184 100.347 128.043 100.347 128.043C101.194 128.043 101.476 128.184 101.617 128.608V128.75C101.476 128.891 101.335 129.032 101.194 129.173C100.911 129.315 100.77 129.315 100.629 129.315C100.488 129.315 100.205 129.315 99.9231 129.315H99.2171C98.6524 129.315 98.37 129.173 98.2288 129.032C98.2288 128.891 98.0876 128.75 98.0876 128.608L97.8052 116.459C97.8052 116.176 97.8052 115.893 97.664 115.328C97.5228 114.904 97.5228 114.481 97.5228 114.198V114.057C97.8052 113.633 97.9464 113.35 98.0876 113.35L99.6407 113.068C99.7819 113.068 100.064 113.068 100.347 113.209C100.629 113.35 100.629 113.492 100.629 113.633C100.629 114.057 100.347 114.198 99.6407 114.339H99.0759C98.9347 114.339 98.9347 114.339 98.7935 114.339L99.0759 117.73C99.0759 118.013 99.0759 118.436 99.0759 119.001C99.0759 119.567 99.0759 119.99 99.0759 120.132C99.2171 120.132 99.2171 120.132 99.3583 119.99C99.6407 119.849 99.9231 119.849 100.064 119.849C100.205 119.849 100.347 119.849 100.488 119.99C100.629 120.132 100.629 120.273 100.629 120.414C100.629 120.556 100.629 120.697 100.488 120.838C100.347 121.544 100.205 121.544 99.9231 121.544Z" fill="#FFE67B"/>
<path d="M107.971 125.218L107.124 125.359C106.7 125.359 106.418 125.218 106.418 124.794C106.418 124.511 106.841 124.229 107.688 124.088C107.83 124.088 108.112 124.088 108.253 124.088C108.394 124.088 108.677 124.229 108.818 124.37C108.959 124.653 109.1 124.935 109.1 125.218C109.1 125.642 109.241 126.207 109.383 127.054C109.524 127.902 109.665 128.467 109.665 128.75C109.665 129.315 109.524 129.456 109.241 129.597C108.959 129.597 108.677 129.456 108.535 129.174C108.394 129.174 108.253 129.315 108.112 129.456C107.688 129.739 107.265 129.88 106.841 129.88C106.559 129.88 106.276 129.88 105.994 129.739C105.288 129.456 104.865 129.032 104.441 128.467C104.017 127.902 103.735 127.196 103.594 126.631C103.453 126.065 103.311 125.642 103.311 125.218C103.311 124.935 103.17 124.511 103.17 124.088C103.17 123.523 103.029 122.816 103.029 122.11V120.556C103.029 119.143 103.029 118.295 103.029 117.589C103.029 117.024 103.17 116.459 103.311 116.176C103.453 115.752 103.453 115.47 103.594 115.187C103.735 114.905 103.876 114.622 104.017 114.34C104.159 114.057 104.441 113.774 104.582 113.633C105.006 113.209 105.57 113.068 106.276 112.927C106.982 112.927 107.265 113.068 107.265 113.492C107.265 113.633 107.265 113.774 107.124 113.916C106.982 114.057 106.841 114.057 106.7 114.057L106.135 113.916C105.57 113.916 105.147 114.34 104.865 114.905C104.582 115.611 104.441 116.317 104.3 116.882C104.3 117.448 104.159 118.013 104.159 118.437C104.159 118.86 104.159 119.284 104.159 119.708C104.159 120.414 104.159 120.98 104.159 121.686V122.957C104.159 124.229 104.3 125.218 104.441 125.783C104.582 126.348 104.723 126.772 104.865 127.054C105.006 127.337 105.147 127.62 105.288 127.902C105.853 128.326 106.418 128.608 106.841 128.608C107.406 128.608 107.971 128.326 108.394 127.62C108.394 126.348 108.253 125.5 107.971 125.218Z" fill="#FFE67B"/>
<path d="M116.583 128.608C116.16 128.608 115.877 128.467 115.877 128.043L115.736 125.359C115.595 125.217 115.172 125.076 114.607 125.076C114.042 125.076 113.618 124.935 113.195 124.935C113.054 125.217 112.912 125.5 112.912 126.065C112.912 126.489 112.771 127.054 112.63 127.478C112.489 127.902 112.489 128.326 112.348 128.608C111.783 128.608 111.501 128.467 111.359 128.184C111.501 127.902 111.783 126.489 112.065 123.946C112.348 121.403 112.63 119.425 112.771 118.012C112.912 116.6 113.195 115.328 113.477 114.339C113.76 113.35 114.042 112.926 114.324 112.785C114.607 112.785 114.889 112.785 115.03 112.926C115.03 113.492 115.313 114.763 115.595 116.882C116.019 119.001 116.16 120.414 116.16 121.12C116.16 121.827 116.301 122.816 116.583 124.37C116.866 125.924 116.866 126.913 117.007 127.76C117.289 128.326 117.007 128.608 116.583 128.608ZM115.454 121.827C115.313 120.555 115.172 119.425 114.889 118.295C114.748 117.165 114.607 116.458 114.607 116.317C114.607 116.035 114.607 115.893 114.607 115.893C114.466 116.176 114.183 117.447 113.901 119.708C113.618 121.968 113.477 123.381 113.477 124.087C114.042 124.229 114.607 124.229 114.889 124.229C115.313 124.229 115.595 124.229 115.736 124.087C115.736 123.805 115.595 123.098 115.454 121.827Z" fill="#FFE67B"/>
<path d="M119.69 127.902L119.125 115.611L118.984 113.068C118.984 112.927 118.984 112.785 119.125 112.785C119.125 112.644 119.407 112.644 119.69 112.644C119.972 112.644 120.254 112.644 120.537 112.785C120.819 112.927 121.102 113.068 121.384 113.35C121.525 113.633 121.807 113.916 121.949 114.198C122.231 114.763 122.372 115.328 122.513 116.035C122.513 116.741 122.372 117.447 122.09 118.436C122.09 118.578 121.949 118.719 121.949 119.001C121.807 119.284 121.807 119.567 121.807 119.567C121.807 120.556 122.231 121.968 122.796 123.522C122.937 124.087 123.361 124.794 123.643 125.783C124.067 126.772 124.208 127.337 124.349 127.619C124.349 128.043 124.349 128.326 124.208 128.467C124.067 128.608 123.925 128.608 123.925 128.608C123.643 128.608 123.361 128.467 123.078 128.043V127.902C122.937 126.63 122.372 124.794 121.384 122.251C120.96 121.121 120.678 120.273 120.537 119.708L120.96 127.902C120.96 128.043 120.96 128.326 120.819 128.467C120.819 128.608 120.678 128.608 120.396 128.608C120.254 128.608 120.113 128.608 119.972 128.467C119.831 128.326 119.831 128.184 119.831 128.043L119.69 127.902ZM119.972 113.492L120.113 117.73C120.113 118.154 120.113 118.436 120.254 118.719C120.537 118.436 120.678 118.154 120.96 117.871L121.243 116.035C121.243 115.893 121.243 115.893 121.243 115.752C121.243 115.47 121.102 115.046 120.96 114.481C120.678 113.916 120.396 113.492 119.972 113.492Z" fill="#FFE67B"/>
<g opacity="0.6" style="mix-blend-mode:overlay">
<path d="M92.0162 57.5466C94.84 58.3943 97.6638 58.6768 100.488 58.6768C99.0758 54.156 98.2286 49.3526 98.511 44.5492C95.6872 44.1253 92.8634 43.419 90.0395 42.1475C89.1924 47.2334 89.8984 52.6019 92.0162 57.5466Z" fill="url(#paint10_linear_2006_75699)"/>
</g>
<g opacity="0.6" style="mix-blend-mode:overlay">
<path d="M86.9332 111.09C87.4979 94.4197 84.1093 82.5525 99.9227 63.7627C95.2634 63.6214 90.7453 62.6325 86.3684 60.7959C76.485 65.5993 72.5317 72.5219 70.555 78.5967C65.8957 93.007 70.6962 134.825 73.6612 162.939C77.897 164.634 84.3917 165.764 88.7686 166.895C87.9215 148.387 86.3684 129.88 86.9332 111.09Z" fill="url(#paint11_linear_2006_75699)"/>
</g>
<g opacity="0.4" style="mix-blend-mode:overlay">
<path d="M109.524 56.9814C113.76 47.2333 110.653 35.6486 110.512 35.0835C109.806 35.5073 108.818 35.7899 107.688 36.0724C106.418 36.355 105.006 36.6375 103.453 36.9201C105.571 45.1141 105.429 54.0146 103.029 62.3499C112.489 64.8929 119.407 77.749 119.407 86.2256C118.984 120.556 120.254 149.376 116.16 181.163C116.725 181.022 117.289 180.881 117.854 180.598C122.09 179.327 128.302 177.773 128.726 165.906C129.149 157.146 132.397 117.165 132.962 95.126C133.668 72.9456 124.631 62.6324 109.524 56.9814Z" fill="#DBEAE8"/>
</g>
<defs>
<linearGradient id="paint0_linear_2006_75699" x1="100.348" y1="160.528" x2="99.7493" y2="180.089" gradientUnits="userSpaceOnUse">
<stop stop-color="#EBE2B5"/>
<stop offset="1" stop-color="white"/>
</linearGradient>
<linearGradient id="paint1_linear_2006_75699" x1="99.8905" y1="75.3266" x2="100.126" y2="199.18" gradientUnits="userSpaceOnUse">
<stop stop-color="#EBE2B5"/>
<stop offset="1" stop-color="white"/>
</linearGradient>
<linearGradient id="paint2_linear_2006_75699" x1="99.7611" y1="201.361" x2="100.323" y2="147.118" gradientUnits="userSpaceOnUse">
<stop stop-color="white"/>
<stop offset="0.8918"/>
</linearGradient>
<linearGradient id="paint3_linear_2006_75699" x1="99.9213" y1="56.7602" x2="99.7446" y2="24.6209" gradientUnits="userSpaceOnUse">
<stop stop-color="white"/>
<stop offset="1"/>
</linearGradient>
<linearGradient id="paint4_linear_2006_75699" x1="87.8832" y1="15.4911" x2="94.9508" y2="43.3915" gradientUnits="userSpaceOnUse">
<stop stop-color="white"/>
<stop offset="1"/>
</linearGradient>
<linearGradient id="paint5_linear_2006_75699" x1="111.541" y1="18.343" x2="109.068" y2="37.7676" gradientUnits="userSpaceOnUse">
<stop stop-color="#D2D7D9"/>
<stop offset="1" stop-color="white"/>
</linearGradient>
<linearGradient id="paint6_linear_2006_75699" x1="78.4007" y1="29.963" x2="119.53" y2="11.7922" gradientUnits="userSpaceOnUse">
<stop stop-color="white"/>
<stop offset="1"/>
</linearGradient>
<linearGradient id="paint7_linear_2006_75699" x1="91.3275" y1="21.095" x2="104.728" y2="21.095" gradientUnits="userSpaceOnUse">
<stop stop-color="#D2D7D9"/>
<stop offset="1" stop-color="white"/>
</linearGradient>
<linearGradient id="paint8_linear_2006_75699" x1="88.8974" y1="39.2328" x2="111.632" y2="39.2328" gradientUnits="userSpaceOnUse">
<stop stop-color="#D2D7D9"/>
<stop offset="1" stop-color="white"/>
</linearGradient>
<linearGradient id="paint9_linear_2006_75699" x1="41.8219" y1="154.127" x2="108.906" y2="117.899" gradientUnits="userSpaceOnUse">
<stop stop-color="white"/>
<stop offset="1"/>
</linearGradient>
<linearGradient id="paint10_linear_2006_75699" x1="86.9348" y1="35.1601" x2="99.1925" y2="58.5471" gradientUnits="userSpaceOnUse">
<stop stop-color="white"/>
<stop offset="1"/>
</linearGradient>
<linearGradient id="paint11_linear_2006_75699" x1="56.1383" y1="50.1111" x2="112.671" y2="166.639" gradientUnits="userSpaceOnUse">
<stop stop-color="white"/>
<stop offset="1"/>
</linearGradient>
</defs>
</svg>
