<svg width="200" height="200" viewBox="0 0 200 200" fill="none" xmlns="http://www.w3.org/2000/svg">
<path d="M142.247 108.21C141.43 107.667 139.795 106.988 138.297 106.31C138.569 105.902 138.705 105.495 138.705 104.816C138.705 104.681 138.569 104.681 138.569 104.681C136.253 104.816 134.755 101.966 132.031 102.101C129.988 102.237 128.626 103.866 129.034 106.038C129.579 108.346 131.35 109.839 133.257 111.061C134.483 111.74 137.071 112.69 138.433 113.912C137.207 113.64 136.39 113.369 135.3 112.69C133.529 111.74 131.35 110.382 129.17 110.925C128.353 111.197 127.672 112.011 127.4 112.826C125.493 112.961 124.267 114.862 125.22 116.898C125.629 117.849 126.31 118.663 126.991 119.478C125.493 119.885 124.403 121.378 124.403 123.007C123.313 122.6 122.087 122.6 121.134 123.007C121.134 122.871 120.998 122.736 120.998 122.6C120.317 121.242 119.499 120.564 118.273 119.749C114.732 117.441 109.828 122.057 112.28 125.722C114.323 128.844 115.277 131.559 119.363 132.645C121.134 133.188 122.905 132.781 124.403 131.695C126.446 131.967 128.489 131.016 129.988 129.387C132.031 130.066 134.619 129.116 134.346 126.401C134.346 126.265 134.346 126.129 134.346 125.858C135.028 125.722 135.436 125.315 135.845 124.908C136.526 124.908 137.207 124.636 137.752 124.229C139.386 122.871 139.795 121.65 139.523 120.428C142.247 120.699 144.971 119.342 145.788 116.355C146.742 112.962 144.971 110.111 142.247 108.21Z" fill="#618917"/>
<path d="M119.636 42.9138C118.546 42.0993 118.273 40.4703 117.592 39.2485C116.639 37.348 114.732 36.1262 112.689 35.5832C111.19 35.176 109.556 35.4475 108.057 36.262C106.968 34.2257 105.061 33.1397 102.609 33.0039C98.114 32.8682 96.207 36.262 94.9811 39.9273C94.1638 39.52 93.3465 39.2485 92.5293 39.2485C89.9412 39.3843 88.3067 40.606 87.217 42.9138C86.3997 44.5428 86.6721 52.5522 90.2137 50.7874C90.4861 50.6516 90.6223 50.5159 90.7585 50.2444C91.4396 50.6517 92.2568 50.9232 93.0741 50.9232C94.4362 51.0589 95.7984 51.0589 97.1605 51.0589C98.3864 51.6019 99.7485 51.7376 101.247 51.7376C102.745 52.8236 103.971 54.1812 105.061 55.2672C106.968 57.032 110.237 57.3035 112.008 55.2672C113.37 53.7739 114.187 52.9594 116.366 52.6879C118.818 52.2807 119.908 50.5159 119.908 48.6154C121.27 47.1221 121.542 44.5428 119.636 42.9138ZM103.154 41.5563C103.018 41.5563 103.018 41.5563 103.154 41.5563C103.154 41.4205 103.154 41.4205 103.154 41.5563Z" fill="#618917"/>
<path d="M68.2835 106.309C63.7885 102.644 57.7952 99.3859 51.938 98.5714C49.2138 98.2999 45.9447 99.6574 44.5826 102.101C41.9945 101.965 40.6324 105.495 43.4929 106.852C43.6291 106.988 43.7653 106.988 43.9015 107.124C44.0377 107.395 44.1739 107.802 44.3102 108.074C43.6291 109.024 40.36 109.567 39.4065 109.975C37.6357 110.653 36.8185 112.147 36.8185 113.911C36.8185 114.726 37.4995 115.133 38.1806 115.269C39.6789 115.405 41.0411 115.133 42.4032 114.862C42.4032 115.133 42.4032 115.405 42.4032 115.676C41.5859 116.491 40.6324 117.305 40.36 117.848C39.6789 118.934 40.36 120.156 41.4497 120.563C43.0842 121.106 44.3102 120.97 45.5361 120.427C45.5361 122.192 45.8085 124.228 46.6258 125.314C47.8517 126.808 51.1208 129.523 53.3002 129.659C55.2071 129.794 56.7055 129.115 58.4762 128.029C59.9746 127.079 61.4729 127.758 63.1074 127.758C66.5128 127.758 67.8749 124.636 66.5128 121.921C70.0543 121.513 72.9147 118.934 73.051 114.862C73.3234 111.332 70.8716 108.481 68.2835 106.309ZM40.6324 112.418C40.4962 112.418 40.2238 112.554 40.0876 112.554C40.2238 112.282 40.4962 112.147 40.7686 112.011C40.6324 112.147 40.6324 112.282 40.6324 112.418Z" fill="#7B9D2F"/>
<path d="M163.087 79.8376C161.725 79.0231 160.636 79.1588 161.998 77.6656C163.087 76.4438 164.177 75.4936 164.449 73.8646C164.994 70.335 161.589 67.7557 158.456 67.2127C157.639 67.077 156.958 67.077 156.141 66.9412C156.004 66.9412 155.868 66.9412 155.596 66.9412C155.596 66.8055 155.732 66.8054 155.732 66.6697C157.094 65.9909 158.592 65.5837 159.954 64.9049C162.134 63.8189 163.768 60.2894 160.908 58.7961C159.546 58.1174 158.184 57.8458 156.685 57.8458C156.141 57.8458 155.459 57.9816 154.915 58.2531C154.915 56.8956 153.689 55.8096 152.463 55.8096C149.194 55.9453 146.469 57.0314 143.473 58.1174C142.792 58.3889 142.247 58.9319 141.974 59.6106C140.885 60.1536 139.931 60.6966 138.842 61.3754C138.433 59.6106 136.662 58.1174 134.891 58.2531C130.533 58.5246 127.263 61.1039 125.765 64.4977C121.406 65.8552 121.27 70.6065 122.905 74.136C124.539 77.5298 128.626 77.3941 131.077 75.3578C132.44 76.9868 135.028 78.2086 136.662 79.1589C138.705 80.3806 141.021 81.4666 143.473 81.8739C143.609 82.1454 143.745 82.4169 144.018 82.5526C145.652 83.7744 147.15 84.1816 149.057 83.6386C148.785 83.9101 148.649 84.1816 148.513 84.3174C146.197 87.7112 146.742 93.82 151.782 94.0915C155.323 94.2273 157.911 91.3765 159.41 88.3899C159.682 88.5257 159.818 88.5257 160.091 88.6615C162.27 89.476 166.356 89.476 166.901 86.4894C167.446 83.7744 165.675 81.3309 163.087 79.8376Z" fill="#7B9D2F"/>
<path d="M141.974 50.2443C140.612 49.1583 138.978 48.4795 137.343 47.9365C137.343 47.8008 137.343 47.665 137.479 47.665C137.616 47.122 137.479 46.7148 137.343 46.1718C137.343 46.036 137.207 45.9002 137.071 45.7645C137.071 45.7645 136.117 45.0857 136.798 45.6287C136.253 45.0857 135.436 44.95 134.755 45.493C134.483 45.0858 134.346 44.6785 133.938 44.407C131.214 41.6919 128.353 43.1852 126.446 45.6287C126.31 45.3572 126.31 45.2215 126.174 44.95C126.037 44.8142 126.037 44.6785 125.901 44.6785C125.493 44.407 125.493 44.407 125.765 44.5427C125.493 43.9997 124.675 43.864 124.267 44.2712C124.267 44.2712 124.131 44.2712 123.994 44.407C123.858 44.5427 123.586 44.6785 123.449 44.8143C123.041 45.2215 122.632 45.7645 122.224 46.3075C121.542 47.2577 121.134 48.3438 121.134 49.4298C120.725 49.8371 120.317 50.2443 119.908 50.6516C119.227 49.837 118.546 49.294 117.729 48.6153C115.549 46.9863 112.961 46.7147 111.327 49.0225C110.101 50.6515 108.194 49.9728 106.287 50.1086H106.15C105.606 49.5655 105.061 49.1583 104.38 48.751C103.426 48.208 102.2 48.6153 101.655 49.4298C101.519 49.7013 101.247 50.1085 101.111 50.38C100.974 50.38 100.702 50.5158 100.566 50.5158C94.7086 52.2806 97.1604 61.2402 102.337 60.1542C102.745 61.3759 103.426 62.3262 104.244 63.2764C104.652 63.8194 104.925 64.091 105.197 64.3625C105.197 65.5842 104.925 67.0775 104.788 68.1635C104.516 71.0143 104.652 73.8651 105.878 76.5801C109.147 83.3677 118.954 81.1956 119.227 73.5936C119.227 73.0505 119.227 72.6433 119.227 72.236C120.998 71.0143 122.496 69.1138 123.586 67.6205C123.722 67.4847 123.858 67.2132 123.994 67.0775C124.812 67.2132 125.765 67.2132 126.719 67.0775C128.489 66.6702 129.988 65.8557 131.35 64.7697C131.622 64.634 131.895 64.3624 132.031 64.0909C133.393 64.3624 134.483 64.091 135.436 63.5479C137.479 63.9552 139.931 63.0049 140.34 60.6972C140.476 59.7469 140.476 58.6609 140.476 57.5749C140.612 57.4391 140.885 57.3034 141.021 57.1676C143.336 55.5386 144.699 52.4163 141.974 50.2443Z" fill="#547F0C"/>
<path d="M106.968 65.0417C105.061 59.8832 109.828 52.9598 106.695 48.6158C106.695 47.5298 106.15 46.4438 104.925 46.0365C102.473 45.222 100.293 42.0997 97.4329 43.1857C95.3897 44.0002 93.6189 46.1723 92.393 48.0728C91.5757 46.851 91.3033 45.4935 90.3498 44.4075C88.0342 41.8282 84.9013 41.8282 81.9047 43.05C81.6322 42.6427 81.2236 42.2355 80.9512 41.964C79.4528 40.4707 77.001 41.1494 76.32 43.1857C76.1838 43.4572 76.1837 43.8645 76.0475 44.136C75.9113 44.136 75.7751 44.0002 75.6389 44.0002C75.2303 43.8645 74.8216 43.7287 74.2768 43.7287C73.3233 43.7287 72.6422 44.136 72.0974 44.679C71.0077 45.6293 71.0077 47.5298 71.5525 48.8873L71.4163 49.023C70.7353 49.566 69.7818 50.6521 68.8283 51.4666C67.1937 48.8873 64.6057 46.7153 62.5625 45.3578C61.8815 44.8147 61.0642 44.5432 60.3831 44.4075C59.2934 42.9142 56.8416 42.0997 54.9346 41.964C53.5725 41.964 52.0742 43.3215 52.2104 44.679C52.2104 45.222 52.3466 45.9007 52.4828 46.4437C52.619 46.7153 52.619 46.9868 52.7552 47.2583C52.0742 47.394 50.4396 47.2583 49.8948 47.2583C48.9413 47.2583 47.8516 48.0728 47.9878 49.1588C48.124 50.9235 49.0775 52.0096 50.5758 52.9598C52.8914 54.3174 53.0277 55.2676 50.712 56.6251C48.3964 57.8469 45.9446 60.4262 47.5792 62.0552C46.8981 63.9557 46.7619 65.992 47.3067 67.8925L47.1705 68.0282C46.0808 69.1143 47.3067 70.2003 48.2602 70.2003C48.2602 70.336 48.3964 70.4718 48.3964 70.4718C49.0775 71.4221 50.3034 71.422 50.9845 70.7433C53.5725 72.1008 57.5227 71.0148 58.7486 67.7568C59.4296 67.621 60.7918 67.7568 61.3366 67.621C63.3798 67.4852 65.2868 67.4852 67.3299 67.621C69.918 67.8925 72.6422 67.8925 75.2303 68.0282C75.3665 73.3225 81.496 75.4946 85.31 72.2365C86.2635 71.2863 87.0807 70.336 87.7618 69.25C88.1704 69.1143 88.4429 69.1143 88.8515 68.9785C88.9877 68.9785 88.9877 68.9785 89.1239 68.8428C89.5326 71.6935 90.0774 74.4086 91.4395 76.9878C92.9379 79.9744 96.3432 81.6034 99.6123 80.9246C99.8847 80.7889 100.293 80.7889 100.566 80.6532C101.792 81.8749 103.154 82.9609 104.652 83.7754C106.15 84.5899 108.466 84.5899 109.556 83.0967C114.596 76.8521 109.42 71.4221 106.968 65.0417ZM98.9312 54.8604C98.795 55.1319 98.795 55.5391 98.6588 55.8106C98.6588 55.9463 98.6588 56.0821 98.5226 56.3536C98.1139 56.2179 97.7053 56.0821 97.2967 56.0821C97.1604 55.9464 97.1605 55.8106 97.0242 55.6749C97.7053 55.2676 98.2501 55.1319 98.9312 54.8604ZM58.8848 67.2138C58.8848 67.078 58.8848 66.8065 59.021 66.6707C58.8848 66.8065 58.8848 66.9423 58.8848 67.2138Z" fill="#7B9D2F"/>
<path d="M153.961 91.2423C155.596 89.8848 156.685 87.4413 157.366 85.948C158.728 82.69 154.915 80.3822 152.326 78.6175C153.28 78.0745 153.28 76.7169 152.054 76.3097C150.964 76.0382 150.011 75.9024 148.921 76.0382C148.104 76.1739 147.287 76.4454 146.333 76.5812C144.699 76.9884 144.29 76.4454 142.928 76.3097C141.838 76.3097 140.885 76.3097 139.931 76.4454C140.34 75.7667 140.885 74.5449 141.566 74.1376C142.792 73.4589 142.928 71.9656 141.974 70.8796C141.157 69.9294 140.067 69.6578 138.841 69.5221C138.433 69.5221 137.343 69.5221 136.526 69.5221C136.39 69.2506 136.117 69.1149 135.845 68.9791C135.709 68.8433 135.572 68.5719 135.436 68.4361C135.436 68.1646 135.164 68.0288 134.891 68.1646C134.755 68.1646 134.755 68.1646 134.619 68.3003C134.483 68.3003 134.483 68.1646 134.346 68.1646C133.529 67.7573 132.576 68.1646 132.303 68.9791V69.1149C131.622 69.5221 130.941 70.2009 130.26 70.6081C129.988 70.7439 129.715 70.8796 129.443 70.8796C129.307 70.8796 129.17 70.8796 129.034 70.8796C128.081 70.8796 126.446 71.8299 125.084 72.3729C124.948 71.9656 124.675 71.5584 124.403 71.0154C123.586 69.5221 125.22 67.0786 126.174 65.9925C127.4 64.635 126.31 61.92 124.267 62.7345C122.496 63.4133 121.542 64.4993 120.317 65.9925C118.954 67.7573 116.775 68.3004 115.141 69.9294C113.506 71.5584 113.915 74.0019 112.144 75.6309C110.237 77.3957 109.42 75.4952 107.921 74.1376C105.061 71.4226 101.928 72.1014 99.8847 75.3594C99.3399 76.3097 99.2037 77.3957 99.3399 78.3459C98.795 79.432 98.5226 80.6537 98.5226 81.8755C98.3864 83.233 98.5226 84.4548 98.6588 85.6765C98.2502 85.6765 97.8416 85.5408 97.5691 85.5408C95.7984 85.1335 93.619 86.7626 94.4362 88.6631C94.8449 89.7491 95.3897 90.6994 96.0708 91.6496C96.3432 92.0569 96.4794 92.8714 97.0243 92.5999C96.6157 92.7356 96.0708 92.7356 95.5259 92.7356C93.2103 92.8714 90.3499 93.6859 89.805 96.2652C89.2602 98.8444 90.3499 101.288 91.9844 103.189C92.2569 103.46 92.5293 103.731 92.6655 104.003C92.8017 104.41 92.9379 104.682 92.9379 104.682C92.9379 104.546 92.8017 104.41 92.8017 104.41C91.712 104.818 90.7585 105.225 89.9413 105.904C88.7153 106.854 88.3067 108.483 89.3964 109.705C90.0775 110.383 90.8947 111.062 91.5758 111.741C91.712 111.877 90.3499 114.049 89.9413 114.727C88.4429 117.171 88.0343 120.293 89.6688 122.872C89.6688 122.872 89.6688 123.008 89.805 123.008C89.5326 123.415 89.2602 123.823 88.9877 124.23C88.3067 125.452 88.4429 126.945 88.7153 128.303C88.9878 129.524 89.805 130.475 90.6223 131.425C89.124 132.511 87.8981 133.054 87.3532 135.09C86.9446 136.583 87.217 137.941 87.6256 139.298C87.4894 140.384 87.7618 141.606 88.0343 142.828C88.5791 145.814 89.2602 148.665 89.6688 151.652C90.0774 154.503 90.2137 157.218 90.4861 160.068C90.7585 161.969 91.4396 164.141 93.4828 164.82C97.2967 165.77 98.795 161.833 99.8847 159.118C100.566 157.353 101.111 155.453 101.383 153.552C102.2 153.009 102.881 152.331 103.154 151.38C103.29 150.702 103.018 149.073 103.562 148.53C104.38 147.715 105.197 147.036 105.606 145.814C105.742 145.407 105.878 144.864 105.878 144.457C106.014 144.05 106.014 143.507 106.014 143.099C106.014 142.285 105.878 141.47 105.878 140.656C105.742 139.977 105.742 139.434 105.742 138.755C106.151 138.755 107.104 138.62 106.968 138.62C108.194 138.484 109.147 137.805 109.556 136.855C109.964 136.855 110.373 136.855 110.782 136.855C112.144 136.719 113.506 135.769 113.37 134.276C113.37 134.14 113.37 134.004 113.37 133.733C115.277 135.226 118.273 133.597 117.592 131.018C117.32 130.203 117.047 129.524 116.639 128.71C117.32 128.981 117.865 129.117 118.546 129.253C120.317 129.524 122.496 129.117 123.586 127.624C124.675 127.352 125.356 126.402 125.493 125.316C125.493 125.18 125.493 124.909 125.493 124.773C127.263 124.773 129.034 123.958 129.851 122.329C131.622 118.8 127.944 116.899 126.174 114.456C126.719 114.049 128.353 114.049 128.898 114.049C129.715 114.049 130.669 114.999 131.35 115.406C132.576 116.085 133.938 116.085 135.3 115.678C136.798 115.135 137.616 113.777 137.207 112.284C136.798 110.655 135.845 109.297 134.755 108.076C133.802 107.125 131.758 106.175 131.214 104.817C131.077 104.41 131.35 104.003 131.895 103.732C134.21 104.818 136.798 104.274 138.705 106.175C140.612 108.076 142.247 110.248 145.243 110.248C146.878 110.248 148.24 108.619 147.695 106.99C147.423 106.039 146.878 105.496 146.469 104.682C146.197 104.41 146.061 104.003 145.788 103.732C145.652 103.596 145.652 103.46 145.516 103.46C145.652 103.46 145.788 103.596 146.061 103.596C148.104 104.003 149.875 104.546 151.782 103.324C152.871 102.645 153.28 100.881 152.19 99.9304C152.054 99.7947 151.645 99.5232 151.237 99.3874C151.918 99.1159 153.008 98.9802 153.416 98.8444C154.778 98.3014 155.459 97.3512 155.868 96.1294C156.14 95.1791 155.732 93.8216 154.778 93.4144C154.233 93.1429 153.689 92.8714 153.144 92.5999C153.144 92.4641 153.144 92.4641 153.28 92.3284C153.825 91.7854 153.825 91.5138 153.961 91.2423Z" fill="#8AAC22"/>
<path d="M111.463 107.395C112.689 106.173 113.37 104.137 112.28 102.508C109.964 99.3857 106.423 97.8924 103.154 95.9919C103.426 95.8562 103.835 95.7204 104.38 95.5847C105.742 95.4489 106.832 95.1774 108.058 94.6344C109.556 94.0914 111.327 92.8697 110.782 90.9691C110.646 90.4261 110.373 90.0189 110.101 89.6116C109.692 89.0686 110.918 86.8966 111.054 86.2178C111.463 83.7743 110.237 81.4665 108.33 79.9733C107.513 79.2945 106.695 79.023 105.742 78.6157C104.788 78.2085 102.337 79.023 101.792 78.48C100.157 77.1225 98.7951 76.851 96.6157 77.1225C95.526 77.2582 94.3001 77.5297 93.2104 77.6655C92.9379 77.6655 92.8017 77.6655 92.5293 77.6655C92.8017 76.1722 92.9379 74.8147 92.9379 73.4572C93.4828 73.0499 93.8914 72.5069 94.0276 71.6924C94.4363 70.0634 93.2104 68.7059 92.1207 67.6199C91.8482 67.3483 91.5758 67.0768 91.1672 66.8053C90.6223 65.8551 89.9413 65.0406 89.124 64.3618C89.124 64.0903 89.124 63.9546 88.9878 63.6831C87.3532 58.6603 80.815 60.5608 79.0443 64.2261C77.9546 66.5338 78.4994 70.3349 74.6855 68.7058C74.2768 68.5701 74.0044 68.4344 73.732 68.1628C73.5958 68.0271 73.4596 67.8914 73.3234 67.8914C72.6423 67.3484 71.825 66.9411 71.0077 66.5339C70.8715 66.1266 71.0077 65.7193 70.5991 65.1763C69.7818 63.8188 68.5559 62.3255 66.9214 62.054C65.0144 61.7825 63.5161 62.7328 61.8815 63.2758C61.2005 62.4613 60.1108 61.9183 58.8849 61.6468C57.9314 61.511 56.8417 61.7825 56.2968 62.7328C55.752 63.9546 55.752 65.0406 54.5261 65.8551C53.5726 66.5339 52.6191 67.3483 51.6656 68.0271C50.7121 68.8416 50.4397 69.9276 50.4397 71.0136C47.0344 70.6064 43.6291 69.1131 41.8583 73.4572C41.3135 74.9504 37.6357 74.8147 36.2736 76.0365C34.7753 77.2582 35.0477 79.4302 35.5925 81.0592C35.865 81.8738 32.8683 84.1815 33.0045 85.6748C33.1407 87.7111 33.958 88.7971 35.5925 89.6116C35.5925 89.6116 35.5925 89.6116 35.5925 89.7473C35.4563 89.7473 35.7288 90.1546 36.0012 90.4261C36.1374 90.6976 36.2736 90.8334 36.4098 90.9691C36.4098 91.1049 36.546 91.1049 36.546 91.2406C36.546 92.0551 36.4098 92.7339 36.8185 93.5484C37.7719 95.5847 39.8151 95.7204 41.5859 94.7702C41.8583 94.6344 42.1307 94.3629 42.267 94.2272C42.948 94.2272 43.4928 94.0914 44.0377 93.9556C43.3566 98.0282 45.8085 101.015 50.1673 101.694C52.4829 101.965 55.3433 100.879 57.2503 99.6572C57.6589 99.3857 58.0676 99.1142 58.4762 98.8427C58.0676 99.793 57.6589 100.743 57.6589 101.829C57.2503 102.101 56.9779 102.237 56.5693 102.508C54.6623 103.866 55.2071 106.173 57.1141 106.988C58.34 107.531 59.7021 107.259 60.928 106.988C61.4729 106.852 62.0177 106.581 62.5626 106.309C62.5626 106.581 62.6988 106.852 62.835 107.124C64.1971 109.431 66.1041 109.839 68.0111 109.567C68.6921 111.196 68.8284 114.047 68.9646 115.269C68.9646 115.676 69.1008 116.083 69.1008 116.49C68.5559 115.812 68.0111 115.133 67.33 114.454C65.423 112.418 62.0177 112.554 60.1108 114.454C58.0676 116.49 58.2038 119.613 60.1108 121.649C60.6556 122.192 61.0642 122.735 61.7453 123.142C59.1573 125.178 59.4297 129.794 63.2436 131.016C63.7885 131.152 64.3333 131.287 64.8782 131.287C63.3799 131.152 67.0576 131.559 66.1041 131.423C66.2403 131.423 66.3765 131.423 66.3765 131.423C66.2403 131.423 66.2403 131.559 66.1041 131.559C64.6058 133.052 64.3334 135.36 65.4231 137.125C66.5128 139.025 68.5559 139.568 70.5991 139.297C70.7353 139.432 71.0078 139.432 71.144 139.568C71.144 139.568 71.2802 139.704 71.5526 139.84C74.8217 142.69 76.32 147.17 77.5459 151.243C78.227 153.551 78.9081 155.858 79.8615 158.166C80.9512 160.474 82.4496 161.56 84.3566 163.189C84.629 163.46 85.0376 163.46 85.31 163.325C85.4463 163.46 85.5825 163.596 85.7187 163.732C86.1273 164.139 86.6722 164.139 87.217 163.732C89.124 162.103 89.6688 160.067 89.9413 157.623C90.3499 153.958 91.031 150.564 92.1207 147.035C92.6655 145.405 93.2104 143.776 93.8914 142.283C96.0708 141.333 98.114 140.111 99.2037 138.075C100.702 135.224 99.4761 133.459 98.2502 131.423C99.4761 130.066 100.021 128.301 99.2037 126.265C98.6589 124.907 97.7054 123.821 96.4795 123.278L96.6157 123.142C97.8416 122.192 98.5227 120.427 100.157 120.156C101.111 120.02 102.473 119.748 103.154 118.934C103.971 117.984 104.38 117.305 104.788 116.219C104.925 115.812 109.283 115.54 109.964 115.269C111.054 114.997 111.871 113.911 111.871 112.689C112.008 111.332 110.101 108.753 111.463 107.395ZM41.3135 85.2676C41.1772 85.2676 41.1772 85.2676 41.3135 85.2676V85.2676ZM64.1971 105.902C64.3333 105.902 64.3333 106.038 64.1971 105.902V105.902Z" fill="#B1CC49"/>
<path d="M98.9313 51.8739C97.4329 52.9599 96.207 54.3174 95.5259 56.0822C94.8449 57.9827 94.7087 60.2904 95.7984 61.9195C96.6156 63.277 98.114 64.0915 99.7485 64.0915C101.247 64.0915 103.018 63.277 103.699 61.9195C104.107 60.9692 104.516 60.1547 104.38 59.0687C104.244 57.5754 104.107 57.4397 104.244 58.39C104.244 58.2542 104.244 57.9827 104.244 57.7112C104.244 57.3039 104.244 56.8967 104.244 56.4894C104.244 56.0821 104.244 56.0822 104.244 56.7609C103.971 57.3039 103.971 57.3039 104.244 56.8967C105.061 55.4034 104.925 53.5029 103.699 52.2811C102.473 51.3309 100.43 50.9236 98.9313 51.8739Z" fill="#7B9D2F"/>
<path d="M119.091 53.3665C120.317 53.3665 121.27 52.4163 121.27 51.1945C121.27 49.9727 120.317 49.0225 119.091 49.0225C117.865 49.0225 116.911 49.9727 116.911 51.1945C116.911 52.2805 117.865 53.3665 119.091 53.3665Z" fill="#547F0C"/>
<path d="M68.4197 49.294C67.6024 50.2443 67.4662 51.466 67.7387 52.6878C68.0111 53.9096 69.237 54.8598 70.5991 54.8598C71.825 54.8598 73.1871 53.9096 73.4596 52.6878C73.732 51.466 73.5958 50.2443 72.7785 49.294C72.2337 48.6153 71.5526 48.0723 70.5991 48.0723C69.6456 48.0723 68.9646 48.6153 68.4197 49.294Z" fill="#7B9D2F"/>
<path d="M90.7586 166.176C94.3001 163.461 94.7087 156.266 95.1174 152.193C95.526 147.035 94.4363 140.926 91.8483 136.446C89.3964 132.102 83.4031 135.224 84.2204 139.704C84.629 141.74 85.5825 143.641 85.8549 145.813C86.1274 148.392 86.536 150.971 86.3998 153.551C86.2636 157.488 83.8117 162.239 86.2636 165.768C87.3533 167.262 89.2602 167.397 90.7586 166.176Z" fill="#C7DA5C"/>
<path d="M89.3964 142.692C89.3964 142.692 89.5326 142.692 89.5326 142.556C90.4861 142.013 90.8948 140.927 90.6223 139.841C90.2137 137.941 89.2602 136.312 88.5792 134.411C87.8981 132.511 88.3067 130.067 88.5792 128.031C88.9878 123.415 90.3499 120.7 88.0343 116.356C86.9446 114.184 86.1273 112.148 86.2635 109.569C86.3997 107.397 87.0808 105.225 87.3532 103.053C87.4894 101.288 87.3532 99.523 87.217 97.7582C86.9446 95.0432 91.031 93.6857 91.5758 96.6722C92.1207 95.7219 92.6655 94.7717 93.2104 93.8214C91.8482 94.3644 91.1672 95.0432 90.2137 96.1292C89.3964 97.0795 89.8051 99.1157 90.7585 99.7945C93.4828 102.102 99.2037 104.139 102.473 101.695C103.154 101.152 103.835 100.745 104.38 100.066C106.287 97.6224 103.699 100.337 105.333 98.7085C106.695 97.3509 106.695 95.7219 105.878 94.0929C104.925 92.1924 102.337 91.7851 100.702 92.7354C100.021 93.1427 98.6589 94.6359 98.6589 94.6359C97.1605 95.3147 94.5725 94.5002 92.9379 94.6359C94.0276 95.7219 94.9811 96.6722 96.0708 97.7582C95.9346 97.351 95.9346 97.0794 96.0708 96.6722C96.4795 95.5862 95.7984 94.6359 94.9811 94.0929C91.712 91.6494 88.7154 91.6494 85.1738 93.9572C83.8117 94.7717 83.5393 96.265 83.5393 97.7582C83.5393 100.881 83.4031 103.731 82.722 106.854C82.1772 109.569 82.3134 112.012 82.722 114.727C82.9944 116.492 83.6755 117.985 83.8117 119.75C83.9479 121.379 83.2669 123.28 82.8582 124.909C81.4961 131.153 82.3134 137.126 86.536 142.013C87.0808 142.692 88.0343 142.828 88.8516 142.556C89.124 142.828 89.2602 142.828 89.3964 142.692Z" fill="#C7DA5C"/>
<path d="M90.7585 98.8442C90.4861 97.894 89.9413 97.2152 89.2602 96.6722C88.1705 95.8577 86.8084 95.8577 85.5825 96.4007C84.7652 96.808 84.3565 97.894 84.629 98.7085C84.9014 99.7945 86.1273 100.473 87.217 100.202C88.9878 99.7945 90.4861 98.7085 91.712 97.4867C92.5293 96.6722 92.6655 95.0432 91.712 94.2287C90.7585 93.2784 89.3964 92.7354 88.0343 93.1427C85.9911 93.6857 85.0376 95.722 85.9911 97.6225C86.3997 98.437 87.4894 98.98 88.3067 98.98C89.2602 98.8443 89.805 98.5727 90.4861 98.0297C90.8947 97.6225 89.9413 98.3012 89.9413 98.3012C90.0775 98.3012 90.6223 98.1655 90.0775 98.3012C89.3964 97.0795 88.7153 95.9935 88.0343 94.7717C87.8981 95.0432 87.8981 95.0432 88.0343 94.7717C87.8981 94.9074 87.8981 95.0432 87.7619 95.0432C87.4894 95.3147 87.3532 95.4505 87.0808 95.5862C87.3532 95.4505 86.6722 95.8577 86.6722 95.8577C86.5359 95.9934 86.3997 95.9935 86.2635 96.1292C85.7187 96.4007 86.6722 95.9935 86.1273 96.1292C86.6722 97.351 87.217 98.7085 87.7619 99.9302C88.0343 99.7945 88.0343 99.7945 87.7619 99.9302C88.0343 99.7945 88.1705 99.7945 88.4429 99.6588C88.5791 99.523 88.7154 99.523 88.5791 99.6588C88.7154 99.6588 88.8516 99.523 88.9878 99.523C89.5326 99.3873 90.0775 99.2515 90.6223 99.2515C90.6223 99.2515 90.7585 99.1157 90.7585 98.8442Z" fill="#C7DA5C"/>
<path d="M87.6256 97.0787C85.1738 98.572 84.7652 101.694 84.9014 104.409C85.0376 106.174 85.31 107.939 85.5824 109.568C86.1273 113.097 86.1273 116.084 85.5824 119.613C85.1738 122.193 84.0841 124.772 83.8117 127.216C83.5393 129.795 84.7652 131.56 86.2635 133.596C87.898 135.632 86.2635 136.99 86.2635 139.433C86.2635 142.148 86.9446 144.32 88.0343 146.628C88.5791 147.714 89.805 147.85 90.7585 147.307C92.3931 146.492 93.3465 145.27 93.7552 143.506C94.0276 142.555 93.8914 141.334 93.8914 140.383C93.8914 139.162 94.4362 137.804 94.7087 136.582C94.9811 134.275 94.5725 132.238 93.2103 130.338C91.712 128.166 90.7585 127.894 91.0309 125.043C91.5758 120.292 90.3499 114.319 89.2602 109.704C88.7153 106.989 86.5359 100.608 88.5791 98.3005C89.124 97.6217 88.4429 96.5357 87.6256 97.0787Z" fill="#C7DA5C"/>
<path d="M118.955 92.7348C118.001 94.7711 118.41 96.4001 119.091 98.5721C120.317 102.78 119.908 105.903 118.273 109.84C116.911 112.962 115.141 115.134 112.28 117.034C110.373 118.256 109.283 119.614 108.466 121.65C108.058 122.736 108.058 123.958 107.921 125.044C107.785 126.673 106.287 127.759 105.197 128.845C102.881 131.288 103.563 134.275 102.064 136.99C100.43 139.976 99.6124 143.506 98.3864 146.628C97.433 149.072 96.3433 151.787 97.7054 154.095C97.9778 154.638 98.9313 154.773 99.3399 154.366C101.247 152.194 101.247 148.529 102.609 145.814C103.29 144.456 103.563 143.099 103.971 141.741C104.516 139.841 105.742 138.347 106.423 136.583C107.104 135.089 107.649 133.46 108.875 132.374C109.828 131.424 111.054 130.61 111.871 129.524C113.506 127.487 112.689 124.365 114.323 122.736C115.958 120.971 118.546 120.021 120.18 118.12C122.224 115.813 123.313 112.962 124.403 110.111C125.765 106.853 125.493 103.459 124.675 100.065C123.994 97.4861 121.679 95.4499 121.27 93.0064C120.998 92.0561 119.363 91.7846 118.955 92.7348Z" fill="#A2BA40"/>
<path d="M77.9546 99.6575C76.0476 94.4989 71.5526 90.0191 65.6955 92.1912C63.1075 93.1414 61.3367 95.3134 59.5659 97.4855C58.0676 99.386 56.2968 101.151 55.0709 103.323C55.6158 102.916 56.2969 102.373 56.8417 101.965C56.7055 101.965 56.5693 102.101 56.2968 102.101C53.3002 103.051 53.7088 107.938 57.1141 107.803C59.0211 107.803 60.3832 107.938 61.8816 106.581C63.5161 105.088 64.8782 103.323 66.2403 101.558C67.6025 99.929 68.2835 98.9787 70.3267 98.7072C71.4164 98.5715 72.5061 98.1642 73.5958 98.5715C74.5493 98.9787 75.639 100.065 76.5925 100.608C77.2736 101.015 78.3633 100.472 77.9546 99.6575Z" fill="#A2BA40"/>
<path d="M77.8183 85.5408C77.5459 84.319 78.6356 82.4185 78.6356 81.1967C78.6356 79.7035 78.0908 77.6672 77.0011 76.5812C74.5493 74.2734 71.0077 73.8661 68.0111 75.6309C65.423 77.1242 65.423 81.3325 61.4729 80.1107C58.2038 79.0247 55.3433 76.1739 52.0742 74.9522C52.7553 75.9024 53.5725 76.8527 54.2536 77.8029C54.1174 76.5812 55.3433 75.9024 55.8882 74.9522C56.5692 73.7304 57.1141 72.5086 57.3865 71.1511C57.9313 69.2506 57.9313 68.5718 59.4297 67.0786C60.5194 66.1283 61.0642 65.3138 60.928 63.8206C60.7918 62.0558 59.2935 60.6982 57.5227 61.2412C54.7985 61.92 52.4828 66.1283 52.3466 68.7076C52.2104 70.4723 50.4397 71.9656 49.4862 73.3232C48.2603 74.9522 47.9878 76.5812 48.3965 78.4817C48.6689 79.7035 50.031 80.7895 51.2569 80.6537C54.1174 80.518 56.9779 81.8755 58.6124 84.1833C59.9745 86.2196 62.835 86.2195 65.0144 85.948C67.7386 85.5408 70.1904 84.1833 71.2801 81.4683C72.2336 79.1605 73.4596 82.2827 73.8682 83.233C74.5493 84.5905 75.5027 85.1335 76.5924 86.0838C77.1373 86.7626 77.9546 86.2196 77.8183 85.5408Z" fill="#A2BA40"/>
<path d="M52.4829 72.9144C53.3002 72.9144 53.9812 72.6428 54.3898 72.0998C54.9347 71.5568 55.0709 71.0138 55.2071 70.1993C55.2071 70.1993 55.2071 70.1993 55.2071 70.0636C55.3433 69.1133 54.6623 68.1631 53.845 67.6201C52.7553 66.9413 51.3932 67.2128 50.4397 68.0273C49.7586 68.7061 49.4862 69.7921 49.7586 70.7423C50.1673 72.0998 51.257 73.0501 52.4829 72.9144Z" fill="#A2BA40"/>
<path d="M68.4197 65.448C67.0576 66.5341 66.7852 68.1631 67.4663 69.6564C68.2835 71.2854 70.4629 71.5569 72.0975 71.2854C72.7785 71.1496 73.4596 70.6066 73.732 70.0636C74.2769 69.1133 74.1407 68.1631 73.732 67.2128C73.3234 66.2626 72.5061 65.5838 71.5526 65.0408C71.2802 64.9051 70.8716 64.7693 70.5991 64.4978C70.4629 64.3621 70.3267 64.362 70.1905 64.2263C69.9181 64.0905 69.6457 63.9548 69.3732 63.8191C69.1008 63.6833 69.1008 63.6833 69.6456 63.9548C68.4197 63.4118 67.0576 63.4118 66.1041 64.3621C65.0144 65.4481 65.0144 67.3486 66.1041 68.4346C66.9214 69.2491 67.7387 69.5206 68.8284 69.9279C68.9646 69.9279 69.1008 70.0636 69.1008 70.0636C69.6457 70.3351 68.4197 69.7921 68.9646 70.0636C69.1008 70.1993 69.5094 70.4709 68.9646 69.9279C69.3732 70.3351 68.6922 69.3849 68.9646 69.7921C69.5094 68.4346 70.0543 67.0771 70.5991 65.7196C70.4629 65.7196 70.3267 65.8553 70.1905 65.8553C70.5991 65.8553 70.7354 65.8553 70.4629 65.8553C71.0078 65.9911 71.144 65.9911 70.8716 65.8553C71.5526 65.9911 71.4164 66.1268 71.144 65.8553C70.8716 65.7196 70.7354 65.5838 70.4629 65.5838C70.7354 65.7196 71.0078 65.8553 71.2802 66.1268C71.144 65.9911 71.144 66.1268 71.5526 66.3983C71.4164 66.2626 71.2802 65.9911 71.144 65.8553C70.4629 65.1766 69.1008 64.905 68.4197 65.448Z" fill="#A2BA40"/>
<path d="M34.7753 80.7886C34.7753 81.6031 34.5028 82.0104 34.7753 82.8249C35.1839 83.7752 36.0012 84.3182 36.9546 84.5897C38.1805 84.9969 41.9945 84.8612 42.5394 86.0829C44.4463 89.6125 49.6224 84.4539 45.2636 82.5534C43.6291 81.8746 41.9945 81.7389 40.2237 81.7389C38.8616 81.7389 36.2736 81.7389 35.3201 80.5171C35.0477 80.3814 34.7753 80.5171 34.7753 80.7886Z" fill="#A2BA40"/>
<path d="M85.5825 85.5389C87.217 84.1814 87.4894 82.1451 89.6688 81.1948C91.9844 80.2446 94.3001 82.0093 96.6157 82.2808C98.5226 82.5523 101.383 81.6021 103.154 82.5523C103.563 82.8238 104.107 83.5026 104.38 83.9099C104.652 84.1814 105.061 84.5886 105.197 84.9958C105.742 86.0819 106.151 85.4031 106.423 83.2311C102.473 84.0456 104.107 90.1544 108.057 89.3399C116.23 87.5751 108.602 76.9865 103.154 76.8508C100.838 76.8508 98.5226 77.3938 96.207 76.8508C94.0276 76.3077 91.8482 75.3575 89.3964 76.0363C85.31 77.1223 82.4496 79.973 82.4496 84.4528C82.3134 85.8104 84.3566 86.4891 85.5825 85.5389Z" fill="#A2BA40"/>
<path d="M90.8948 88.6618C91.712 88.7976 92.2569 88.2546 92.9379 88.1189C93.619 88.1189 94.4363 88.6618 94.8449 89.0691C96.4794 90.0193 98.9313 91.1054 100.43 89.2048C100.974 88.5261 101.247 87.7116 100.702 86.8971C100.021 85.8111 98.9313 85.4038 97.8416 84.9965C96.8881 84.5893 95.9346 84.0463 94.9811 83.7748C92.8017 82.9603 88.8516 83.9106 89.124 86.8971C89.2602 87.9831 89.9413 88.6618 90.8948 88.6618Z" fill="#A2BA40"/>
<path d="M106.15 109.026C106.695 109.705 106.832 110.248 106.559 111.062C106.559 111.062 106.968 110.927 106.559 110.927C105.742 110.927 104.925 110.791 104.244 110.791C102.473 110.655 100.566 111.47 99.3399 112.827C98.795 113.506 98.3864 114.32 98.114 115.135C97.9778 115.406 97.9777 115.678 97.8415 115.949C97.5691 117.035 98.9312 115.135 97.7053 116.085C94.5725 118.121 96.4794 123.416 100.293 122.194C101.655 121.787 102.881 120.972 103.562 119.75C103.835 119.207 104.107 118.664 104.244 118.121C104.38 117.85 104.925 116.492 104.38 117.171C103.971 117.714 104.788 117.443 105.333 117.443C106.014 117.443 106.695 117.443 107.376 117.307C108.739 117.035 109.964 116.357 110.918 115.406C112.552 113.777 113.234 110.655 112.008 108.619C110.782 106.583 108.466 105.768 106.287 106.718C105.606 107.261 105.742 108.347 106.15 109.026Z" fill="#A2BA40"/>
<path d="M60.2469 115.405C59.021 115.134 57.7951 116.356 57.7951 117.713C57.7951 119.885 59.2934 121.514 60.928 122.6C62.9712 123.958 65.2868 124.501 67.6024 125.179C70.8715 126.265 70.5991 130.474 74.413 130.745C76.7286 130.881 77.4097 128.03 76.1838 126.673C75.0941 125.451 74.2768 123.958 73.1871 122.736C71.6888 121.107 69.2369 120.428 67.1937 120.021C65.8316 119.749 64.4695 119.342 63.2436 118.663C62.5625 118.256 61.8815 117.985 61.2004 117.577C60.2469 117.034 60.3831 116.627 60.3831 115.677C60.3831 115.541 60.3831 115.405 60.2469 115.405Z" fill="#A2BA40"/>
<path d="M116.911 84.5896C120.725 87.5762 126.446 87.7119 129.307 83.5036C129.851 82.6891 130.26 81.6031 130.805 80.7886C132.031 78.6166 133.938 79.8384 135.845 79.4311C137.207 79.1596 138.297 78.6166 139.386 77.6663C140.067 77.1233 140.476 75.7658 141.157 75.3586C142.383 74.544 142.928 73.1865 142.655 71.829C142.383 70.3357 141.429 69.3855 140.067 68.7067C134.21 65.9917 132.848 75.7658 138.297 75.3586C137.343 74.6798 137.207 74.6798 137.888 75.3586C137.752 74.4083 137.616 73.458 137.479 72.6435C135.845 76.4446 131.214 75.2228 128.626 78.0736C127.672 79.1596 127.127 80.6528 126.446 81.8746C124.948 84.5896 120.589 83.7751 118.137 82.8249C117.047 82.2819 116.094 83.9109 116.911 84.5896Z" fill="#9ABE1C"/>
<path d="M124.539 78.8883C124.267 77.2592 123.041 75.223 124.131 73.8655C124.675 73.1867 125.084 72.3722 125.356 71.4219C125.629 70.4717 125.765 69.3857 125.901 68.4354C126.037 67.8924 126.037 67.3494 126.037 66.8064C126.037 66.3991 126.037 66.1276 126.037 65.7204C126.037 65.0416 125.901 65.0416 125.629 65.8561C127.672 63.9556 125.901 61.2406 123.586 60.9691C122.632 60.8333 121.679 61.2406 121.134 62.0551C119.908 63.5483 120.044 66.1276 122.36 66.6706C123.177 66.8064 123.858 66.9421 124.675 66.6706C123.994 66.2634 123.177 65.8561 122.496 65.4489C122.905 67.7566 122.496 70.6074 121.134 72.3722C119.091 75.223 120.998 78.0738 123.586 79.567C124.131 79.8385 124.539 79.4313 124.539 78.8883Z" fill="#9ABE1C"/>
<path d="M140.204 83.5036C140.476 83.5036 141.157 83.2321 140.476 83.3678C140.34 83.5036 140.204 83.5036 140.204 83.5036C140.34 83.5036 140.204 83.5036 139.795 83.3678C139.931 83.3678 139.931 83.5036 140.204 83.5036C140.476 83.6393 139.386 83.2321 139.931 83.5036C140.204 83.6393 141.021 84.3181 140.204 83.5036C141.021 84.1823 141.838 84.5896 142.928 84.5896C144.426 84.4538 145.788 83.6393 146.197 82.0103C146.606 80.517 145.925 78.888 144.562 78.0735C143.2 77.3948 141.838 77.3948 140.476 78.0735C139.931 78.345 139.523 78.7523 139.114 79.0238C138.297 79.8383 137.752 80.9243 138.024 82.1461C138.16 82.6891 138.705 83.2321 139.25 83.3678C139.659 83.5036 139.931 83.6393 140.204 83.5036Z" fill="#9ABE1C"/>
<path d="M148.649 78.2099C149.738 80.6535 150.011 84.9975 153.28 85.6763C154.37 85.9478 153.28 85.1333 153.144 85.6763C152.871 86.2193 152.327 86.355 151.918 86.6265C150.828 87.3053 149.33 87.441 148.104 87.1695C144.426 86.4908 143.064 91.5136 146.606 92.7354C150.964 94.3644 158.047 91.3778 158.728 86.4908C159.001 84.8618 158.592 83.5043 157.775 82.1468C157.503 81.6038 156.958 81.1965 156.413 80.925C156.004 80.6535 155.732 80.6535 155.323 80.5177C154.915 80.382 154.915 80.5177 155.323 80.925C154.915 78.3457 153.552 75.2234 150.556 75.2234C148.649 74.9519 148.104 76.8524 148.649 78.2099Z" fill="#9ABE1C"/>
<path d="M137.752 98.1646C138.297 98.7076 138.841 99.1149 139.523 99.6579C140.476 100.337 140.612 101.151 141.157 102.101C141.974 103.459 143.609 104.138 144.971 104.681C147.968 105.767 152.463 105.495 153.28 101.83C154.233 97.7574 147.831 95.9926 147.014 100.065C147.014 100.337 146.469 102.101 147.014 101.015C147.559 99.7937 148.376 100.472 147.15 100.337C146.197 100.201 145.243 99.7936 144.29 99.2506C142.247 98.0289 140.476 96.3998 137.888 97.2144C137.616 97.2144 137.343 97.7574 137.752 98.1646Z" fill="#9ABE1C"/>
<path d="M128.762 103.051C128.626 104.816 129.443 106.988 130.396 108.482C130.941 109.16 131.622 109.839 132.167 110.382C132.439 110.654 132.576 110.789 132.848 111.061C132.848 110.518 132.984 110.111 132.984 109.568C132.712 109.975 132.439 110.246 132.167 110.654C131.214 112.147 131.895 114.183 133.257 114.998C134.891 115.948 136.526 115.269 137.616 113.912C139.386 111.468 138.024 108.346 135.845 106.581C134.891 105.767 133.938 105.088 133.121 104.137C132.303 103.051 131.077 101.83 129.715 101.965C129.17 102.101 128.762 102.508 128.762 103.051Z" fill="#9ABE1C"/>
<path d="M123.177 117.307C123.177 115.813 123.177 117.714 123.177 118.121C123.177 116.221 123.041 119.207 123.041 118.664C123.041 118.936 123.041 119.207 123.041 119.479C123.041 120.836 122.632 122.058 123.041 123.28C124.131 126.945 129.17 126.809 130.396 123.28C130.805 122.058 130.533 120.972 130.396 119.75C130.26 118.8 130.124 117.985 129.715 117.035C129.307 116.085 128.081 114.863 126.991 114.727C125.22 114.456 123.313 115.27 123.177 117.307Z" fill="#9ABE1C"/>
<path d="M115.277 126.266C114.868 127.216 114.868 128.166 115.277 129.117C115.685 129.795 116.503 130.474 117.184 130.746C118.001 131.017 118.954 130.746 119.499 130.067C120.044 129.524 120.453 128.438 120.18 127.759C119.908 127.216 119.908 127.08 119.499 126.537C119.363 126.402 119.363 126.402 119.227 126.266C119.363 126.402 119.499 126.537 119.636 126.809C119.499 126.537 119.363 126.266 119.091 126.13C118.682 125.723 118.41 125.723 117.865 125.451C118.001 125.587 118.273 125.587 118.41 125.723C118.137 125.587 117.865 125.451 117.592 125.316C116.775 125.18 115.685 125.451 115.277 126.266Z" fill="#9ABE1C"/>
<path d="M74.2769 134.411C74.2769 131.831 71.6888 130.881 69.6456 130.474C66.649 129.795 63.3799 131.56 63.5161 134.954C63.6523 138.076 67.1938 139.705 69.237 136.99C69.9181 136.175 69.6456 134.954 69.3732 134.003C69.5094 134.411 69.5094 134.546 69.237 135.225C68.6921 135.768 69.3732 134.818 69.237 135.225C68.5559 135.768 69.5094 135.089 69.7819 134.954C69.1008 135.225 69.9181 134.954 70.0543 134.954C70.3267 134.954 70.3267 134.954 70.0543 134.954C70.1905 134.954 70.3267 134.954 70.4629 134.954C70.7353 134.954 70.3267 134.954 70.8716 135.089C71.2802 135.225 71.0078 135.089 71.2802 135.225C71.825 135.497 72.2337 135.632 72.3699 135.768C73.0509 136.311 74.2769 135.361 74.2769 134.411Z" fill="#9ABE1C"/>
<path d="M80.5426 126.943C84.629 125.722 86.9446 123.142 84.629 118.798C84.2203 118.119 83.6755 117.441 83.1306 116.898C82.4496 116.083 82.1771 116.219 82.1771 117.712C82.5858 117.441 82.9944 117.033 83.5393 116.626C84.9014 115.54 85.9911 113.368 85.9911 111.603C85.9911 109.703 84.4928 108.481 83.1306 107.531C82.722 107.259 82.4496 106.852 82.0409 106.581C81.0875 107.124 80.9512 107.124 81.6323 106.716C82.5858 106.038 83.1306 105.223 83.8117 104.273C85.1738 102.101 84.629 99.6573 86.536 97.621C88.9878 94.906 90.7585 97.8925 93.4828 97.078C94.1638 96.8065 94.5725 96.2635 94.5725 95.5847C94.5725 91.1049 87.7619 89.8832 84.629 91.5122C82.3134 92.7339 80.2702 94.7702 79.5891 97.3495C79.1805 98.5712 79.0443 99.793 78.7718 101.015C78.4994 102.101 77.1373 102.78 76.5924 103.73C75.5028 105.766 76.32 108.345 77.6822 109.974C78.4994 110.925 79.3167 111.739 80.2702 112.554C80.6788 110.925 80.4064 110.382 79.4529 111.06C78.7718 111.332 77.8184 111.739 77.2735 112.418C75.639 114.318 75.0941 116.355 75.7752 118.798C76.5924 121.513 81.3599 122.735 79.8615 125.857C79.4529 126.4 79.8615 127.079 80.5426 126.943Z" fill="#9ABE1C"/>
<path d="M91.712 108.481C91.4396 107.667 91.8482 107.124 91.8482 106.445C91.8482 106.038 91.9844 105.63 92.1206 105.223C90.7585 105.495 90.4861 105.63 91.3034 105.766C92.8017 106.173 94.1638 106.716 95.526 107.124C99.0675 108.074 102.337 106.716 104.516 103.866C105.197 102.915 105.061 101.558 104.516 100.608C103.971 99.5215 102.881 98.9785 101.656 98.9785C100.157 98.9785 99.3399 100.2 97.9778 100.608C95.7984 101.286 93.3466 100.2 91.1672 100.065C88.5791 99.9288 87.3532 102.101 87.0808 104.273C86.9446 105.495 87.6256 106.716 88.4429 107.531C89.124 108.21 90.3499 108.21 91.1672 108.617C91.5758 108.888 91.8482 108.617 91.712 108.481Z" fill="#9ABE1C"/>
<path d="M91.712 96.6697C95.6622 98.8417 100.702 97.077 102.609 93.0044C103.562 90.8324 103.971 88.7961 102.881 86.4883C101.383 83.366 97.1605 83.366 94.8449 85.4023C93.4828 86.6241 93.2103 88.9318 94.1638 90.4251C95.1173 92.1899 97.0243 92.7329 98.9313 92.3257C99.3399 92.1899 99.7486 92.0541 100.157 91.7826C99.4761 92.1899 98.6588 92.3256 97.7054 92.0541C96.4795 91.6469 95.6622 90.8324 95.3898 89.7463C95.526 90.0178 95.526 90.6966 95.3898 89.4749C95.3898 89.7464 95.3898 90.0178 95.3898 90.4251C95.3898 90.8324 95.3898 90.6966 95.3898 90.1536C95.3898 90.4251 95.2535 90.5609 95.2535 90.8324C95.2535 91.1039 94.7087 92.0541 95.2535 90.9681C95.2535 91.1039 95.1173 91.2396 95.1173 91.2396C95.6622 90.2894 94.1638 92.3256 94.4363 92.0541C93.8914 92.8686 92.8017 93.6831 91.8482 93.9546C91.031 94.6334 90.6223 96.1267 91.712 96.6697Z" fill="#9ABE1C"/>
<path d="M56.9779 91.377C56.1606 88.3904 51.8018 88.2547 49.4862 89.2049C47.9878 89.7479 46.7619 90.9697 46.0809 92.463C45.9447 92.7345 45.8084 93.1417 45.8084 93.4132C45.3998 94.4993 45.9447 94.3635 47.5792 93.006C46.6257 92.7345 45.6722 92.5987 44.5825 92.463C38.7254 91.92 40.0875 102.237 45.6722 100.201C48.2603 99.2506 50.1672 98.3003 50.9845 95.4495C51.3932 94.2278 51.3932 93.6848 52.8915 93.6848C54.1174 93.549 55.2071 93.9562 56.433 93.1417C56.8417 92.7345 57.1141 92.0557 56.9779 91.377Z" fill="#9ABE1C"/>
<path d="M120.861 50.5167C121.951 49.7021 121.815 48.3446 121.27 47.2586C120.861 46.3084 119.636 44.2721 118.273 45.0866C116.911 45.9011 118.001 47.8016 118.546 48.8877C118.954 49.5664 119.363 49.9736 119.908 50.3809C120.044 50.5166 120.725 50.6524 120.861 50.5167Z" fill="#618917"/>
<path d="M71.6888 62.8676C71.9613 64.2251 72.2337 65.5826 72.6423 66.8044C73.3234 68.5692 75.2304 70.3339 77.2735 69.3837C78.227 68.9764 78.3632 67.6189 77.9546 66.8044C77.546 66.1256 77.0011 65.8541 76.4563 65.5826C75.9114 65.3111 75.5028 64.9039 74.9579 64.4966C74.0045 63.8179 73.3234 62.8676 72.5061 62.1889C72.2337 61.7816 71.5526 62.1889 71.6888 62.8676Z" fill="#618917"/>
<path d="M73.5958 65.991C74.2769 64.7693 74.8217 63.819 74.8217 62.3258C74.8217 60.9683 77.1373 60.1538 78.0908 59.6107C79.3167 58.7962 80.134 57.846 80.134 56.3527C80.2702 54.4522 78.227 53.2304 76.7287 52.4159C73.4596 50.7869 70.5991 55.8097 73.8682 57.303C74.2769 57.4387 74.9579 57.7102 75.3666 57.9817C75.7752 55.9454 75.5028 55.4024 74.8217 56.0812C74.5493 56.2169 74.4131 56.3527 74.1407 56.4884C73.051 57.3029 72.2337 57.9817 71.5526 59.2035C70.8716 60.1537 70.7353 61.647 71.0078 62.733C71.2802 64.2263 72.3699 64.7693 73.0509 65.8553C73.3234 65.9911 73.5958 65.991 73.5958 65.991Z" fill="#618917"/>
<path d="M82.5858 59.0683C83.1306 59.0683 83.6755 58.6611 84.2203 58.2538C84.9014 57.7108 85.0376 56.6248 85.1738 55.8103C85.31 54.86 84.9014 53.774 83.8117 53.5025C82.722 53.231 81.2236 54.0455 81.4961 55.2673C81.6323 56.0818 81.4961 57.032 81.9047 57.8465C81.9047 58.118 82.0409 59.0683 82.5858 59.0683Z" fill="#618917"/>
<path d="M70.4629 53.502C70.0542 54.045 69.7818 54.5879 69.5094 55.2667C69.5094 55.2667 69.5094 55.2667 69.6456 55.2667C69.7818 54.7237 70.1905 54.1807 70.4629 53.502Z" fill="#618917"/>
<path d="M70.0542 54.9962C68.2835 53.7745 67.8748 53.3672 67.7386 51.0594C67.4662 48.6159 66.2403 46.3081 64.3333 44.9506C61.6091 42.9143 55.0709 41.0138 52.6191 44.1361C51.5294 45.4936 53.0277 47.8014 54.6622 47.6656H54.7985C56.1606 47.5299 57.3865 46.3081 56.9778 44.8149V44.6791C56.8416 45.4936 56.5692 46.1723 56.433 46.9869C56.5692 46.8511 56.5692 46.8511 56.7054 46.7154C56.1606 46.9869 55.6157 47.1226 55.0709 47.3941C56.8416 47.3941 58.0675 47.9371 59.7021 48.7516C61.7453 49.9734 61.8815 51.6024 62.4263 53.7744C63.1074 56.6252 65.5592 60.019 68.9645 59.6118C70.1904 59.476 70.8715 58.933 71.4164 57.7113C71.4164 57.5755 71.4164 57.5755 71.5526 57.4397C71.4164 56.4895 70.7353 55.5392 70.0542 54.9962Z" fill="#618917"/>
<path d="M56.5692 43.4577C56.0243 42.3717 54.6622 42.236 53.7087 42.779C52.619 43.4577 52.0742 44.6795 52.0742 45.9012C52.0742 46.9873 53.0276 47.8018 54.1173 47.9375C54.6622 47.9375 55.0708 47.8018 55.4795 47.5303C56.7054 46.8515 56.8416 44.951 55.4795 44.2722C55.207 44.1365 54.9346 44.0007 54.6622 44.0007C55.0708 44.2722 55.4795 44.5437 55.8881 44.951C56.0243 45.0867 56.1605 45.494 55.8881 44.951C55.7519 44.6795 55.8881 45.3582 55.8881 44.951C55.8881 44.5437 55.7519 45.3582 55.8881 45.0867C55.7519 45.3582 55.8881 44.8152 55.8881 45.0867C55.8881 44.951 56.0243 44.951 56.0243 44.8153C56.1605 44.6795 56.0243 44.6795 56.0243 44.951L56.1605 44.8153C56.2967 44.6795 56.4329 44.5437 56.4329 44.408C56.5692 44.2722 56.4329 44.408 56.4329 44.2722C56.7054 44.0007 56.7054 43.7292 56.5692 43.4577Z" fill="#618917"/>
<path d="M55.4796 43.5931C55.2071 42.2356 53.7088 42.2356 52.6191 42.5071C51.938 42.7786 51.257 43.0501 50.8483 43.5931C50.4397 44.1361 50.0311 44.8149 50.0311 45.4937C50.0311 46.3082 50.4397 46.8512 50.8483 47.3942C51.5294 48.3444 53.0277 48.2087 53.845 47.8014C54.5261 47.3942 54.7985 46.8511 55.0709 46.3081C55.3433 45.4936 54.9347 44.6792 54.5261 44.1361C54.2537 43.8646 54.3899 44.1361 55.0709 45.0864C54.9347 44.5434 54.6623 44.4076 54.3899 43.8646C54.6623 44.2719 54.7985 44.5434 55.0709 44.9506V44.8149C54.9347 45.4937 54.9347 46.0367 54.7985 46.7154C55.0709 46.1724 55.2071 45.7651 55.2071 45.0864C55.2071 44.9506 55.3434 44.5434 55.2071 45.2221C55.2071 45.0864 55.2071 44.9507 55.3433 44.8149C55.2071 45.2222 55.3433 44.9507 55.3433 44.8149C55.0709 45.3579 55.6158 44.4076 55.6158 44.2719C55.6158 44.0004 55.4795 44.5434 55.6158 44.4076C55.6158 44.2719 55.6158 43.8646 55.4796 43.5931Z" fill="#618917"/>
<path d="M49.0776 51.4668C49.7587 53.3673 50.4398 54.8606 52.0743 56.2181C52.7554 56.7611 53.5726 57.1684 54.3899 57.3041C54.7985 57.4399 55.2072 57.4399 55.6158 57.4399C56.4331 57.5756 55.071 56.0824 55.2072 57.1684C55.6158 60.2907 61.2005 58.9331 60.1108 55.8109C59.2936 53.5031 57.659 52.6886 55.3434 52.9601C54.2537 53.0959 53.5726 52.8243 52.6191 52.2813C51.5294 51.6026 50.576 51.3311 49.4863 50.9238C49.2138 51.0596 49.0776 51.1953 49.0776 51.4668Z" fill="#618917"/>
<path d="M47.0344 62.5987C47.0344 62.8702 47.1706 63.0059 47.1706 63.2774C47.3068 64.092 47.8517 64.4992 48.5327 64.7707C49.0776 64.9065 49.6225 64.7707 50.0311 64.3635C50.5759 63.8205 50.5759 63.1417 50.3035 62.463C49.8949 61.7842 49.35 61.5127 48.5327 61.5127C48.2603 61.5127 47.8517 61.5127 47.5793 61.6485C47.1706 61.7842 47.0344 62.1914 47.0344 62.5987Z" fill="#618917"/>
<path d="M95.2535 51.1955C96.0708 50.5167 97.1605 49.9737 98.114 49.7022C98.3864 49.5664 98.9312 49.7022 98.5226 49.5665C97.9777 49.295 99.2037 50.1094 98.9312 49.8379C99.2037 50.1094 99.4761 50.5167 99.7485 50.7882C101.928 53.3675 106.151 49.9737 104.244 47.2587C102.609 44.8151 99.7485 43.5934 97.1605 45.6296C95.5259 46.8514 95.1173 49.0234 94.5724 50.7882C94.7087 51.0597 94.9811 51.3312 95.2535 51.1955Z" fill="#618917"/>
<path d="M108.057 78.0736C111.19 78.8881 111.054 82.6891 111.054 85.1327C110.918 88.3907 110.373 89.884 107.649 91.513C105.742 92.7348 104.788 94.771 105.742 96.8073C106.15 97.8933 106.968 98.7078 107.921 99.3866C108.466 99.7938 109.147 100.065 109.692 100.473C108.739 99.9296 109.42 100.744 109.692 101.559C110.509 104.681 115.277 104.681 116.094 101.559C117.184 97.4861 114.459 95.3141 110.918 94.3638C109.828 94.0923 110.237 95.7213 111.19 94.771C111.871 94.228 112.416 93.685 112.961 92.8705C113.642 91.9203 113.778 90.2912 113.915 89.0695C114.459 85.2684 114.051 76.3088 108.194 77.1233C107.649 77.2591 107.649 77.9379 108.057 78.0736Z" fill="#618917"/>
<path d="M71.0077 116.085C72.2336 112.691 67.8748 109.84 65.423 108.483C61.7453 106.311 57.3865 105.496 53.845 108.211C51.5294 109.976 53.9812 114.184 56.7054 113.234C59.021 112.42 61.2004 112.148 63.6523 112.691C66.1041 113.234 67.33 115.542 69.237 116.764C69.918 117.307 70.7353 116.764 71.0077 116.085Z" fill="#618917"/>
<path d="M46.3533 123.008C47.5792 122.193 48.1241 121.65 49.4862 121.243C51.2569 120.7 54.3898 119.75 54.6623 117.578C54.9347 115.677 53.3001 114.184 51.3932 115.134C51.1207 115.27 50.8483 115.541 50.5759 115.813C50.5759 115.813 50.031 116.22 50.3035 116.084C49.8948 116.356 49.35 116.627 48.8051 116.899C47.7154 117.442 46.7619 117.985 45.8084 118.664C44.9912 119.342 44.0377 120.7 44.4463 121.786C44.855 122.193 45.6723 123.551 46.3533 123.008Z" fill="#618917"/>
<path d="M54.6622 127.079C55.4795 127.079 56.1605 126.807 56.7054 126.264C56.9778 125.857 57.3865 125.45 57.5227 124.907C57.6589 124.092 57.5227 123.278 56.8416 122.599C55.6157 121.513 53.5725 122.056 53.0277 123.821C52.8915 124.228 52.7552 124.5 52.7552 124.907C52.7552 125.043 52.7552 125.178 52.7552 125.45C52.8915 126.264 53.7087 127.215 54.6622 127.079Z" fill="#618917"/>
<path d="M112.144 74.2725C113.642 72.1005 113.506 70.0642 112.553 67.7564C111.735 65.8559 111.327 64.2269 111.327 62.1906C111.327 61.1046 111.054 59.6113 109.828 59.3398C106.423 58.3896 106.968 63.6839 107.376 65.3129C107.785 66.8062 108.739 68.1637 109.556 69.5212C110.373 70.8787 110.509 72.6435 111.054 74.1367C111.19 74.6797 111.871 74.8155 112.144 74.2725Z" fill="#3E6309"/>
<path d="M115.549 66.6711C116.366 65.3135 116.775 63.4131 116.639 61.784C116.366 59.7478 113.778 59.7478 113.506 61.784C113.37 63.4131 113.778 65.1778 114.596 66.6711C114.732 66.9426 115.277 66.9426 115.549 66.6711Z" fill="#3E6309"/>
<path d="M130.26 61.6483C134.074 59.7478 135.3 53.3675 133.529 49.8379C131.895 46.5799 127.127 48.3447 126.991 51.6027C126.991 53.2317 127.127 54.725 126.991 56.354C126.719 58.1188 126.991 60.0193 128.217 61.3768C128.762 62.0556 129.579 62.0556 130.26 61.6483Z" fill="#4A7605"/>
<path d="M114.323 54.1813C114.596 53.5026 115.004 52.9596 115.822 52.5523C116.503 52.1451 116.23 52.2808 116.911 52.9596C118.41 54.3171 119.908 55.2673 121.951 54.4528C123.586 53.6383 123.313 51.3305 121.951 50.516C121.406 50.2445 120.998 50.1088 120.453 49.973C120.044 49.8373 119.636 49.5658 119.363 49.43C118.273 48.887 117.048 49.0228 115.958 49.1585C113.642 49.5658 112.825 52.1451 113.234 54.1813C113.234 54.5886 114.187 54.7244 114.323 54.1813Z" fill="#4A7605"/>
<path d="M113.642 67.7557C113.642 66.3982 114.732 64.6334 115.004 63.2759C115.277 61.9184 115.004 60.4251 114.732 59.0676C114.46 57.8459 113.37 57.1671 112.825 56.0811C112.553 55.2666 113.234 53.6375 113.642 52.823C115.004 49.2935 109.692 47.5287 107.785 50.3795C106.151 52.9588 106.151 56.4883 107.376 59.0676C108.058 60.6966 109.692 61.3754 110.237 63.1402C110.782 65.0407 112.144 65.9909 113.37 67.6199C113.506 67.8915 113.642 67.8915 113.642 67.7557Z" fill="#4A7605"/>
<path d="M115.413 58.6613C115.549 58.797 115.685 58.9328 115.685 58.9328L115.822 59.0685C115.685 58.797 115.685 58.9328 115.958 59.2043C116.23 59.4758 116.775 59.7473 117.184 59.7473C117.456 59.7473 117.592 59.7473 117.865 59.6115C118.41 59.4758 118.682 58.9328 118.682 58.3898C118.682 57.5753 118.273 56.7607 117.456 56.625C117.048 56.4892 116.639 56.4893 116.094 56.3535C115.277 56.4893 114.596 57.9825 115.413 58.6613Z" fill="#4A7605"/>
<path d="M110.646 51.4666C111.599 50.3806 112.552 50.7879 113.915 50.9236C115.277 51.0594 116.503 51.6023 117.865 51.8738C118.546 52.0096 119.363 51.1951 119.363 50.3806C119.091 47.937 116.639 46.4438 114.187 46.7153C112.008 46.9868 110.373 48.7516 110.101 50.9236C109.964 51.3309 110.373 51.7381 110.646 51.4666Z" fill="#4A7605"/>
<path d="M134.891 62.3274C137.071 63.2776 139.659 60.9698 141.157 59.6123C143.2 57.5761 143.609 54.5895 142.383 52.0102C141.838 50.9242 140.476 50.517 139.386 50.7885C137.888 51.1957 137.343 52.689 137.479 54.0465C137.616 54.5895 137.888 55.2683 137.616 55.8113C137.207 56.6258 136.526 57.1688 135.981 57.7118C135.028 58.5263 132.576 61.3771 134.891 62.3274Z" fill="#4A7605"/>
<path d="M99.7485 132.238C101.247 131.288 101.519 129.794 101.519 128.029C101.519 126.265 100.157 125.043 99.6123 123.414C99.2037 124.093 99.3399 124.228 99.8847 124.093C100.293 124.093 100.566 124.093 100.974 124.093C101.792 124.093 102.609 124.093 103.29 123.685C105.061 122.871 105.878 121.378 106.968 119.884C108.33 118.12 105.469 116.219 103.971 117.577C103.426 118.12 102.881 118.798 102.337 119.477C101.792 120.156 100.566 119.884 99.7485 119.884C98.2502 119.884 96.6156 120.292 95.7984 121.649C94.9811 123.142 95.5259 124.5 96.4794 125.586C97.0243 126.265 97.5691 126.808 98.114 127.486C98.9313 128.437 98.114 130.473 98.2502 131.695C98.6588 132.238 99.3399 132.509 99.7485 132.238Z" fill="#7B9D2F"/>
<path d="M93.2103 48.0722C90.6223 48.3437 89.9412 50.2442 91.0309 52.4162C91.712 53.7737 92.8017 54.4525 94.0276 55.267C95.1173 55.9457 96.207 56.2173 96.207 57.7105C96.207 60.1541 100.293 60.1541 100.021 57.7105C99.8847 55.6743 99.0674 54.181 97.2967 53.2307C96.3432 52.6877 95.2535 52.2804 94.1638 51.7374C92.5292 50.9229 91.9844 49.9727 93.2103 48.3436C93.3465 48.2079 93.3465 47.9364 93.2103 48.0722Z" fill="#8AAC22"/>
<path d="M102.609 55.2676C102.609 55.8106 102.745 56.3536 102.609 56.8966C102.473 57.7111 102.337 58.6614 102.609 59.3401C103.154 60.9692 105.333 60.9692 105.878 59.3401C106.423 57.7111 105.606 54.8603 103.699 54.4531C103.154 54.3173 102.609 54.7246 102.609 55.2676Z" fill="#8AAC22"/>
<path d="M83.1306 45.4943C83.403 45.6301 83.8117 45.7658 84.2203 45.7658C84.6289 45.7658 84.9014 45.6301 85.1738 45.4943C85.0376 45.4943 84.4927 45.6301 84.9014 45.6301C84.3565 45.6301 84.9014 45.6301 85.1738 45.7658C84.629 45.4943 85.7186 46.1731 85.31 45.9016C85.4462 46.0373 85.7187 46.1731 85.8549 46.4446C85.5824 46.0373 85.9911 46.7161 86.1273 46.8519C86.2635 46.9876 86.5359 47.6663 86.2635 47.1233C86.3997 47.5306 86.6721 47.8021 86.8083 48.2094C87.4894 49.5669 89.5326 49.4311 90.2137 48.2094C92.2568 44.5441 86.6721 40.2 83.403 42.372C82.722 42.915 82.3133 43.5938 82.5858 44.5441C82.4495 44.8156 82.722 45.2228 83.1306 45.4943Z" fill="#8AAC22"/>
<path d="M141.702 64.3636C142.247 64.2278 142.792 64.3636 143.2 64.2278C143.881 64.0921 144.562 63.6848 145.243 63.5491C146.469 63.1418 148.921 62.8703 149.875 63.9563C151.101 65.5853 154.506 66.5356 156.277 65.3138C156.685 65.0423 156.685 64.3636 156.277 64.0921C154.642 63.0061 151.101 64.3636 150.556 61.7843C150.283 60.5626 148.785 60.0195 147.695 60.0195C144.971 60.1553 141.702 60.9698 141.293 63.9563C141.293 64.3636 141.566 64.4993 141.702 64.3636Z" fill="#8AAC22"/>
<path d="M132.303 65.5841C135.436 64.0909 140.34 64.2266 142.247 60.9686C142.519 60.5613 142.111 60.0183 141.566 60.1541C139.931 60.5613 138.297 61.3758 136.662 62.0546C134.891 62.8691 133.257 63.5479 131.895 65.1769C132.031 65.4484 132.167 65.5841 132.303 65.5841Z" fill="#8AAC22"/>
<path d="M150.147 68.2988C151.237 69.3848 152.599 69.7921 154.097 69.9279C156.413 70.0636 157.911 68.4346 160.227 68.8418C160.499 68.8418 160.772 68.5703 160.499 68.2988C159.682 67.3486 158.592 67.3486 157.366 67.6201C154.915 68.1631 153.008 68.1631 150.556 67.6201C150.283 67.6201 149.875 68.0273 150.147 68.2988Z" fill="#8AAC22"/>
<path d="M153.689 60.8329C154.233 61.9189 155.187 62.4619 156.413 62.7334C157.639 62.8691 159.001 63.0049 159.546 61.6474C160.091 60.2899 157.911 60.0183 157.094 60.0183C156.413 60.0183 155.868 59.8826 155.187 60.0183C154.642 60.1541 154.233 60.2898 153.825 60.5613C153.689 60.5613 153.552 60.6971 153.689 60.8329Z" fill="#8AAC22"/>
<path d="M158.865 74.8155C159.273 76.4445 159.001 78.3451 159.954 79.8384C160.908 81.3316 162.815 80.3814 162.679 78.7524C162.542 77.9378 161.998 76.9876 161.589 76.173C161.044 75.3585 160.499 74.6798 159.682 74.2725C159.137 74.001 158.729 74.2725 158.865 74.8155Z" fill="#8AAC22"/>
<path d="M132.031 68.8435C133.529 68.029 135.845 66.943 136.934 68.8435C137.479 69.658 138.024 70.2011 138.978 70.6083C139.931 71.0156 141.021 70.8798 141.974 70.744C143.2 70.6083 141.702 73.7306 141.566 74.2736C141.293 75.6311 143.064 77.1244 144.154 75.7669C146.469 73.0518 146.469 66.8073 141.429 67.6218C140.204 67.7575 139.386 68.029 138.433 67.0788C137.888 66.6715 137.343 66.2642 136.662 66.1285C134.619 65.9927 132.984 67.2145 131.758 68.7078C131.895 68.8435 131.895 68.9793 132.031 68.8435Z" fill="#618917"/>
<path d="M125.629 71.9649C126.719 71.1504 127.263 70.2001 127.808 68.9783C128.217 68.0281 128.898 66.8063 128.217 65.7203C128.081 65.5846 127.945 65.4488 127.808 65.5845C126.991 66.1276 126.855 67.0778 126.582 67.8923C126.174 69.1141 125.629 70.3359 125.22 71.6934C124.948 71.9649 125.356 72.1006 125.629 71.9649Z" fill="#618917"/>
<path d="M145.243 76.4441C147.15 77.2586 149.33 76.1726 151.237 76.0369C153.28 75.9011 155.323 76.9872 157.094 76.0369C157.503 75.7654 157.775 75.2224 157.503 74.6794C156.277 72.7789 153.416 73.0504 151.373 73.3219C149.194 73.4576 146.333 74.0006 145.107 76.0369C144.971 76.1726 145.107 76.3084 145.243 76.4441Z" fill="#618917"/>
<path d="M148.785 72.2361C151.237 71.9646 154.233 72.7791 156.549 71.9646C156.821 71.8289 156.958 71.5574 156.821 71.2859C155.051 68.4351 150.692 70.3356 148.649 71.6931C148.376 71.8288 148.376 72.3718 148.785 72.2361Z" fill="#618917"/>
<path d="M158.32 83.7754C158.32 84.1827 158.32 84.59 158.592 84.8615C158.865 85.2687 159.137 85.676 159.41 85.9475C160.091 86.6262 160.772 87.5765 161.861 87.5765C162.542 87.5765 163.223 87.1692 163.36 86.4905C163.632 85.1329 162.679 84.4542 161.725 83.6397C161.044 83.0967 160.091 82.8252 159.273 82.8252C158.592 82.9609 158.184 83.2324 158.32 83.7754Z" fill="#618917"/>
<path d="M113.234 112.283C113.506 110.654 115.549 109.161 116.503 107.803C117.592 106.038 118.818 104.409 119.636 102.509C120.453 100.473 120.18 97.8933 119.772 95.8571C119.363 93.685 118.001 91.3773 119.363 89.2052C120.044 88.1192 119.227 86.626 117.865 86.626C112.689 86.7617 113.097 92.7348 113.778 96.4001C114.459 99.6581 114.323 101.694 112.825 104.681C111.327 107.803 112.144 108.889 112.28 112.147C112.416 112.69 113.097 112.826 113.234 112.283Z" fill="#7B9D2F"/>
<path d="M124.675 105.223C126.174 102.101 126.174 98.0283 128.353 95.3133C130.533 92.5982 134.074 91.5123 137.207 90.8335C139.795 90.2905 138.705 86.4894 136.117 87.0324C132.167 87.8469 128.626 90.019 126.038 93.1412C123.041 96.8065 123.994 100.743 124.131 105.087C124.131 105.359 124.539 105.495 124.675 105.223Z" fill="#7B9D2F"/>
<path d="M124.131 92.3273C125.084 91.1056 126.446 90.291 127.672 89.205C128.762 88.2548 130.533 87.8475 131.486 86.7615C132.576 85.6755 131.758 83.9107 130.26 83.775C128.353 83.6392 126.446 85.404 125.084 86.6258C123.586 88.119 123.449 90.0195 123.177 91.9201C123.041 92.5988 123.858 92.5988 124.131 92.3273Z" fill="#7B9D2F"/>
<path d="M129.579 98.3008C130.669 97.3505 131.758 97.3505 133.121 96.9433C134.346 96.536 135.845 96.9433 136.934 96.1288C137.752 95.5858 137.752 94.4997 136.934 93.9567C135.572 93.0065 133.393 93.6852 132.031 94.2282C130.533 94.7713 129.443 96.4002 129.034 97.8935C128.762 98.3008 129.307 98.4365 129.579 98.3008Z" fill="#7B9D2F"/>
<g opacity="0.26">
<path d="M89.3964 148.665C92.6655 145.271 91.712 140.52 90.6223 136.312C89.3964 131.696 87.898 127.216 86.6721 122.736C86.1273 120.564 86.8083 117.442 87.3532 114.999C88.0342 111.333 88.7153 107.532 87.6256 103.867C86.2635 99.2515 82.1771 98.5727 78.908 95.8577C77.1373 94.3644 72.6423 90.6991 72.3698 88.9344C72.3698 90.1561 72.3698 91.5136 72.3698 92.7354C72.506 91.5136 73.732 90.0204 74.413 88.2556C75.2303 86.2193 75.2303 83.7758 74.413 81.7395C72.506 76.7167 67.0575 74.8162 62.835 78.6172C61.2004 80.1105 60.6556 83.2328 62.0177 85.1333C63.3798 87.0338 64.8781 87.7126 67.1938 87.8483C65.8316 87.3053 64.6057 86.7623 63.2436 86.2193C62.5625 82.554 62.2901 81.3323 62.6988 82.554C62.0177 83.5043 61.2004 84.3188 60.5194 85.2691C59.2934 86.8981 58.0675 89.6131 58.2038 91.7851C58.6124 96.9437 61.2004 100.473 64.8781 104.003C68.4197 107.261 71.4163 110.112 76.0476 111.741C74.9579 111.062 74.1406 110.247 73.5958 109.297C73.732 110.247 73.5958 111.333 73.5958 112.284C73.4595 114.32 73.3233 116.492 73.3233 118.528C73.1871 124.501 76.0476 129.524 78.4994 134.818C79.5891 137.398 80.6788 139.977 81.7685 142.556C82.3133 143.642 82.722 144.864 83.2668 145.95C83.5392 146.493 84.4927 148.937 84.2203 147.443C84.6289 149.615 87.7618 150.294 89.3964 148.665Z" fill="#BECE61"/>
</g>
<g opacity="0.26">
<path d="M76.5924 92.4626C78.7718 90.5621 81.6323 89.4761 82.5858 86.3538C83.5392 82.96 83.5392 79.4305 83.2668 75.901C83.1306 73.729 83.1306 71.5569 83.2668 69.3849C83.403 68.2989 83.5393 67.0771 84.0841 65.9911C84.3565 65.3123 85.31 65.3123 85.7186 64.7693C86.1273 64.2263 86.3997 63.5476 85.9911 62.8688C84.7652 60.9683 82.5858 61.6471 81.2236 63.0046C79.4529 64.7694 79.1805 67.7559 78.908 69.9279C78.6356 72.5072 78.6356 75.0865 78.4994 77.6657C78.3632 80.3808 78.4994 83.0958 77.8183 85.8108C77.4097 87.5756 75.9114 89.4761 74.9579 90.9694C74.2768 92.3269 75.6389 93.2772 76.5924 92.4626Z" fill="#BECE61"/>
</g>
<g opacity="0.26">
<path d="M86.536 74.0012C86.536 73.7297 86.5359 73.7297 86.3997 74.0012C86.5359 73.8655 86.3997 74.0012 86.6722 73.8655C86.8084 73.7297 87.0808 73.5939 87.217 73.4582C87.217 73.4582 87.7619 73.0509 87.4894 73.1867C88.4429 72.5079 89.5326 71.8292 89.805 70.6074C90.3499 68.9784 88.7154 67.7566 87.217 68.0281C85.8549 68.2996 84.9014 69.6571 84.3565 70.8789C83.8117 72.2364 84.2203 73.4582 84.9014 74.5442C85.31 75.766 86.6722 75.0872 86.536 74.0012Z" fill="#BECE61"/>
</g>
<g opacity="0.26">
<path d="M85.1739 92.3279C88.1705 90.8346 90.0775 88.1195 92.3931 85.676C93.2104 84.8615 94.1639 83.504 95.2536 82.961C96.6157 82.418 98.2502 82.5537 99.7486 82.418C103.563 81.875 102.473 76.1734 98.9313 75.9019C91.712 75.6304 83.2669 84.047 82.9944 90.9703C82.9944 92.3279 84.2204 92.8709 85.1739 92.3279Z" fill="#BECE61"/>
</g>
<g opacity="0.26">
<path d="M65.9679 74.2725C65.2869 72.915 65.5593 71.5575 65.6955 70.2C65.8317 68.8425 66.7852 67.3492 66.649 66.1274C66.649 65.4487 65.9679 64.9057 65.2869 65.0414C63.5161 65.4487 62.8351 68.1637 62.6989 69.7928C62.5626 71.6933 62.9713 73.8653 64.1972 75.3586C65.0145 76.4446 66.5128 75.4943 65.9679 74.2725Z" fill="#BECE61"/>
</g>
<g opacity="0.26">
<path d="M62.4264 75.4934C61.2005 71.8281 59.9746 67.6198 57.5227 64.4975C56.5692 63.4115 54.7985 64.769 55.4795 65.9907C57.3865 69.2488 59.2935 72.9141 61.8815 75.6291C62.1539 76.0364 62.5626 75.7649 62.4264 75.4934Z" fill="#BECE61"/>
</g>
<g opacity="0.26">
<path d="M58.0675 77.3942C57.3865 75.9009 56.8416 74.2719 56.1606 72.7786C55.4795 71.2853 53.3001 69.3848 51.5293 70.0636C49.7586 70.7423 49.8948 73.4574 51.938 73.4574C52.6191 73.4574 52.4828 73.3216 53.0277 73.5931C53.5725 73.8646 54.1174 74.4076 54.6622 74.8149C55.7519 75.6294 56.5692 76.5796 57.2503 77.6657C57.6589 78.2087 58.2038 77.8014 58.0675 77.3942Z" fill="#BECE61"/>
</g>
<g opacity="0.26">
<path d="M89.2602 159.932C91.712 157.217 92.3931 154.095 92.5293 150.429C92.6655 147.578 92.9379 142.42 90.7585 140.248C90.2137 139.705 89.3964 139.976 89.2602 140.655C88.4429 143.234 89.6688 146.628 89.6688 149.343C89.6688 152.601 89.5326 156.267 88.7153 159.525C88.7153 159.932 89.124 160.203 89.2602 159.932Z" fill="#BECE61"/>
</g>
<g opacity="0.26">
<path d="M97.5691 161.017C98.114 158.845 99.4761 156.944 100.157 154.772C100.974 151.922 101.383 148.935 102.337 146.084C103.699 141.876 107.376 137.803 106.695 133.052C106.559 132.373 105.606 131.966 105.061 132.373C101.247 134.953 99.6123 140.654 98.2502 144.863C97.4329 147.442 97.2967 150.157 97.2967 152.872C97.1605 155.858 95.9346 157.895 96.6156 160.881C96.6156 161.696 97.4329 161.56 97.5691 161.017Z" fill="#BECE61"/>
</g>
<g opacity="0.26">
<path d="M114.46 128.845C120.18 132.238 127.672 124.229 128.489 119.206C128.626 118.256 128.626 117.17 128.898 116.22C129.307 114.862 129.851 115.541 131.077 115.813C132.712 116.084 134.346 115.812 135.709 114.998C138.433 113.369 138.433 110.111 137.888 107.396C137.616 106.174 137.207 104.952 136.935 103.595C136.798 102.916 136.662 100.88 136.39 101.287C135.709 102.78 133.802 101.016 136.117 102.645C137.343 103.459 138.433 104.409 139.523 105.36C141.43 106.717 143.473 107.939 145.925 107.26C149.33 106.446 149.738 102.373 148.513 99.6581C147.559 97.4861 143.881 97.6218 142.928 99.6581C142.655 100.065 142.519 100.608 142.383 101.016C141.838 102.916 143.473 99.3866 145.107 100.201C144.426 99.7938 143.609 99.2508 143.064 98.8436C141.43 97.6218 139.931 96.2643 138.16 95.314C133.393 92.8705 129.17 97.2145 129.579 101.966C129.715 104.274 130.396 106.31 130.941 108.618C131.486 110.925 130.396 108.753 132.167 108.618C130.26 108.753 128.217 107.667 126.446 109.025C123.313 111.333 122.632 113.776 123.041 117.442C123.313 119.749 122.36 121.378 120.725 122.872C119.772 123.822 117.184 126.673 115.685 125.994C114.051 125.315 112.961 127.894 114.46 128.845Z" fill="#BECE61"/>
</g>
<g opacity="0.26">
<path d="M134.346 100.745C137.071 100.338 138.433 101.967 139.523 104.139C140.476 106.039 142.111 108.347 144.562 107.533C145.925 107.125 146.469 105.361 145.38 104.275C144.699 103.596 144.154 103.053 143.609 102.374C142.928 101.424 142.247 100.338 141.43 99.3875C139.386 97.2155 136.117 97.6228 133.802 98.9803C133.121 99.5233 133.257 100.881 134.346 100.745Z" fill="#BECE61"/>
</g>
<g opacity="0.26">
<path d="M74.5493 117.034C74.6855 117.034 74.9579 116.898 75.0941 116.898C75.5027 116.762 75.9114 116.355 76.0476 115.948C76.5924 113.776 76.1838 111.875 75.9114 109.567C75.639 107.124 76.32 104.816 75.9114 102.372C75.639 100.879 74.2768 99.5216 73.1871 98.5713C70.7353 96.2635 69.7818 92.8697 69.3732 89.7475C69.237 88.7972 68.8283 87.9827 67.8748 87.7112C67.4662 87.5754 67.1938 87.5754 66.7852 87.7112C65.9679 87.9827 65.1506 88.7972 65.2868 89.7475C65.423 92.5982 66.3765 95.0418 67.6024 97.4853C68.9645 100.336 72.3698 101.965 72.6423 105.087C72.3698 106.445 72.5061 117.712 74.5493 117.034Z" fill="#BECE61"/>
</g>
<g opacity="0.26">
<path d="M88.8515 139.977C88.9877 137.126 89.2602 133.325 87.0808 131.153C86.8083 130.881 86.2635 131.017 86.1273 131.424C85.1738 134.275 86.3997 137.805 87.6256 140.384C87.898 140.927 88.7153 140.52 88.8515 139.977Z" fill="#BECE61"/>
</g>
<g opacity="0.26">
<path d="M81.0875 86.7615C82.7221 84.5895 83.4031 82.146 83.2669 79.2952C83.1307 76.8517 83.8117 72.9148 82.5858 70.7428C82.3134 70.3356 81.9048 70.1998 81.4961 70.4713C79.3167 71.6931 79.5892 74.4081 79.7254 76.5802C79.9978 79.7024 80.9513 83.232 79.9978 86.3542C79.7254 87.033 80.6789 87.3045 81.0875 86.7615Z" fill="#BECE61"/>
</g>
<g opacity="0.26">
<path d="M123.994 94.2283C127.127 92.0563 128.353 88.6625 129.851 85.4045C130.941 83.0967 132.303 80.9247 133.529 78.7526C134.074 77.9381 134.619 77.2594 135.3 76.5806C135.572 76.3091 136.526 78.3454 136.798 78.7526C139.659 82.9609 145.925 79.2956 143.609 74.8158C142.111 71.965 140.34 69.5215 137.071 68.8428C133.665 68.164 130.669 70.336 128.762 72.7795C126.446 75.9018 125.356 79.4314 124.403 83.2324C123.586 86.762 124.131 90.4272 123.177 93.821C123.177 94.0925 123.586 94.4998 123.994 94.2283Z" fill="#BECE61"/>
</g>
<g opacity="0.26">
<path d="M147.014 82.0101C147.287 82.1459 147.15 82.0101 146.742 81.8744C146.469 81.4671 146.061 81.0599 145.788 80.5169C145.925 81.0599 146.197 81.4671 146.469 81.7386C146.197 81.3314 146.061 81.1956 146.197 81.4671C145.788 80.7884 145.924 80.9241 146.061 81.1956C146.197 81.7386 146.333 82.2816 146.606 82.6889C146.061 81.4671 146.606 82.6889 146.606 83.0961C146.606 83.2319 146.606 83.3677 146.742 83.5034C146.878 83.7749 147.014 84.1821 147.15 84.4536C146.878 83.7749 146.742 83.6392 147.014 84.0464C147.423 85.1324 148.104 86.0827 149.057 86.6257C151.373 87.9832 154.37 86.6257 154.915 84.0464C155.459 81.1956 153.416 77.8018 150.556 76.9873C148.513 76.4443 146.061 77.1231 145.516 79.4309C145.38 80.5169 145.925 81.7386 147.014 82.0101Z" fill="#BECE61"/>
</g>
<g opacity="0.26">
<path d="M128.353 98.4352C130.26 95.8559 132.848 93.8196 134.891 91.5119C136.934 89.2041 139.931 88.3896 141.021 85.2673C141.566 83.5025 140.067 81.1947 138.16 81.4662C134.619 81.8735 131.758 84.7243 129.715 87.5751C127.536 90.5616 126.855 93.9554 126.31 97.6207C125.901 98.8424 127.536 99.5212 128.353 98.4352Z" fill="#BECE61"/>
</g>
<g opacity="0.26">
<path d="M121.815 84.9966C122.36 81.0598 122.224 77.123 122.768 73.322C123.177 70.607 124.675 67.3489 125.765 64.7696C127.4 60.6971 119.091 59.7468 120.317 64.7696C120.589 65.9914 119.636 67.6204 119.227 68.7064C118.546 70.3354 118.41 72.1002 118.273 74.0008C118.137 77.8018 118.818 81.4671 119.499 85.2681C119.772 86.7614 121.679 86.2184 121.815 84.9966Z" fill="#BECE61"/>
</g>
</svg>
