<svg width="200" height="200" viewBox="0 0 200 200" fill="none" xmlns="http://www.w3.org/2000/svg">
<path d="M72.5085 176.001C70.8914 175.462 69.4539 173.309 68.1962 169.899L72.5085 169.181C72.8679 170.079 73.0476 170.617 73.4069 170.976C73.4069 170.976 78.4381 177.975 99.8202 177.975H99.9999C121.382 177.975 126.413 170.976 126.413 170.976C126.952 170.258 127.491 168.643 128.03 166.31C130.546 155.542 132.522 128.982 132.702 107.806C132.702 99.0126 133.6 90.578 132.882 85.0148C132.702 82.6818 132.163 80.8872 131.265 79.631C124.796 69.7607 108.804 69.0429 108.804 69.0429C114.374 59.5315 111.32 42.3034 110.601 38.3553C112.039 38.1758 113.117 37.8169 114.195 37.458C114.554 37.9964 119.406 46.9694 115.453 65.0948C115.453 65.0948 139.35 69.2223 138.811 86.271C138.272 103.32 138.093 172.591 127.312 176.18C122.46 180.308 111.859 183 99.8202 183C87.7815 183 77.36 180.128 72.5085 176.001Z" fill="#DBEAE8"/>
<path d="M133.061 84.8359C133.78 90.5786 132.882 98.8338 132.882 107.627C132.702 128.983 130.726 155.364 128.21 166.131C123.538 161.824 112.757 158.773 100.18 158.773C87.2425 158.773 76.2819 162.004 71.7898 166.311C69.2743 155.722 67.2977 128.983 67.1181 107.448C66.9384 99.1927 66.3993 91.2965 66.7587 85.5538C67.8368 88.6046 77.36 91.2965 89.9377 92.1938C85.805 95.2446 82.9301 99.9105 82.5707 105.474C79.8755 105.115 77.1803 104.756 74.8444 104.397C73.7663 121.446 75.9225 143.699 75.9225 143.699C82.391 145.314 90.8361 146.211 99.9999 146.211C109.164 146.211 117.609 145.314 124.077 143.699C125.155 129.701 125.515 104.576 125.515 104.576C123.179 105.115 120.304 105.474 117.429 105.833C117.07 100.269 114.195 95.4241 110.062 92.5527C123.359 91.4759 132.882 88.7841 132.882 85.3743C132.882 85.1949 132.882 85.0154 133.061 84.8359Z" fill="#F4DC76"/>
<path d="M133.061 84.8359C133.78 90.5786 132.882 98.8338 132.882 107.627C132.702 128.983 130.726 155.364 128.21 166.131C123.538 161.824 112.757 158.773 100.18 158.773C87.2425 158.773 76.2819 162.004 71.7898 166.311C69.2743 155.722 67.2977 128.983 67.1181 107.448C66.9384 99.1927 66.3993 91.2965 66.7587 85.5538C67.8368 88.6046 77.36 91.2965 89.9377 92.1938C85.805 95.2446 82.9301 99.9105 82.5707 105.474C79.8755 105.115 77.1803 104.756 74.8444 104.397C73.7663 121.446 75.9225 143.699 75.9225 143.699C82.391 145.314 90.8361 146.211 99.9999 146.211C109.164 146.211 117.609 145.314 124.077 143.699C125.155 129.701 125.515 104.576 125.515 104.576C123.179 105.115 120.304 105.474 117.429 105.833C117.07 100.269 114.195 95.4241 110.062 92.5527C123.359 91.4759 132.882 88.7841 132.882 85.3743C132.882 85.1949 132.882 85.0154 133.061 84.8359Z" fill="url(#paint0_linear_2006_75647)"/>
<path d="M133.061 84.8357C131.983 80.8876 117.429 77.6573 99.8201 77.6573C82.9299 77.6573 68.9147 80.5287 66.9382 84.2974C67.1179 82.3233 67.657 80.5287 68.3757 79.4519C74.8442 69.5817 90.836 68.8638 90.836 68.8638C85.2658 59.173 88.3204 42.1244 89.2188 38.1763C92.2734 38.7146 96.0467 39.0736 100.179 39.0736C104.132 39.0736 107.726 38.7146 110.781 38.1763C111.499 42.1244 114.734 59.173 108.984 68.8638C108.984 68.8638 124.976 69.5817 131.444 79.4519C132.343 80.7082 132.702 82.5027 133.061 84.8357Z" fill="#DAE8E6"/>
<path d="M132.882 84.8354C132.882 85.0148 132.882 85.0148 132.882 85.1943C132.882 88.604 123.359 91.2959 110.062 92.3727C107.187 90.3986 103.773 89.1424 100 89.1424C96.2267 89.1424 92.8127 90.3986 89.9378 92.3727C77.36 91.4754 67.8369 88.9629 66.7588 85.7327C66.7588 85.1943 66.7588 84.6559 66.9385 84.1175C68.915 80.3489 82.9302 77.4775 99.8203 77.4775C117.429 77.657 131.983 80.8873 132.882 84.8354Z" fill="#FFEEA6"/>
<path d="M128.03 166.31C127.491 168.823 126.952 170.438 126.413 170.976C126.413 170.976 121.382 177.975 99.9999 177.975H99.8202C78.2584 177.975 73.4069 170.976 73.4069 170.976C73.0476 170.617 72.8679 170.079 72.5085 169.182C72.3288 168.464 71.9695 167.567 71.7898 166.49C76.2818 162.003 87.2425 158.953 100.18 158.953C112.578 158.953 123.359 162.003 128.03 166.31Z" fill="#E5C74A"/>
<path d="M128.03 166.31C127.491 168.823 126.952 170.438 126.413 170.976C126.413 170.976 121.382 177.975 99.9999 177.975H99.8202C78.2584 177.975 73.4069 170.976 73.4069 170.976C73.0476 170.617 72.8679 170.079 72.5085 169.182C72.3288 168.464 71.9695 167.567 71.7898 166.49C76.2818 162.003 87.2425 158.953 100.18 158.953C112.578 158.953 123.359 162.003 128.03 166.31Z" fill="url(#paint1_linear_2006_75647)"/>
<path d="M133.062 84.8359C132.882 85.0154 132.882 85.1949 132.882 85.1949C132.882 88.6046 123.359 91.2965 110.062 92.3732C114.375 95.4241 117.07 100.269 117.429 105.653C120.304 105.294 123 104.935 125.515 104.397C125.515 104.397 125.156 129.521 124.078 143.519C117.609 145.134 109.164 146.032 100 146.032C90.8364 146.032 82.3914 145.134 75.9228 143.519C75.9228 143.519 73.7666 121.266 74.8447 104.397C77.1806 104.935 79.8758 105.294 82.571 105.474C82.9304 99.9105 85.6256 95.2446 89.938 92.1938C77.3603 91.2965 67.8371 88.784 66.759 85.5538C66.22 91.2965 66.9387 99.1927 67.1184 107.448C67.2981 128.983 69.2746 155.722 71.7901 166.311C71.9698 167.387 72.3292 168.285 72.5088 169.002C72.8682 169.9 73.0479 170.438 73.4072 170.797C73.4072 170.797 78.4384 177.796 99.8205 177.796H100C121.382 177.796 126.413 170.797 126.413 170.797C126.953 170.079 127.492 168.464 128.031 166.131C130.546 155.364 132.523 128.804 132.702 107.627C132.882 98.8338 133.601 90.5786 133.062 84.8359Z" fill="url(#paint2_linear_2006_75647)"/>
<g opacity="0.6" style="mix-blend-mode:overlay">
<path d="M132.343 168.464C129.109 156.44 94.969 130.06 69.4541 173.13C70.3525 174.745 71.2509 175.822 72.329 176.181C77.1804 180.308 87.7817 183 99.8204 183C112.039 183 122.46 180.129 127.312 176.181C129.468 175.463 131.085 172.591 132.343 168.464Z" fill="url(#paint3_linear_2006_75647)"/>
</g>
<path d="M68.1962 169.899C68.5555 171.156 69.0946 172.053 69.6336 172.95C70.532 171.694 71.4304 170.258 72.3289 169.182L68.1962 169.899Z" fill="url(#paint4_linear_2006_75647)"/>
<path d="M89.9381 92.5525C92.813 90.5785 96.227 89.3223 100 89.3223C103.774 89.3223 107.188 90.5785 110.063 92.5525C114.375 95.6034 117.07 100.449 117.429 105.833C120.304 105.474 123 105.115 125.515 104.576C125.515 104.576 125.156 129.701 124.078 143.698C117.609 145.314 109.164 146.211 100 146.211C90.8365 146.211 82.3915 145.314 75.9229 143.698C75.9229 143.698 73.7667 121.446 74.8448 104.576C77.1807 105.115 79.8759 105.474 82.5712 105.653C82.9305 100.269 85.6258 95.4239 89.9381 92.5525Z" fill="#9DC400"/>
<path d="M100 146.211C109.164 146.211 117.609 145.313 124.077 143.698C124.617 135.084 125.156 122.343 125.335 113.729C111.32 126.291 94.7893 136.52 77.0007 143.878C83.2896 145.313 91.3753 146.211 100 146.211Z" fill="#9DC400"/>
<g opacity="0.6" style="mix-blend-mode:overlay">
<path d="M117.429 105.832C117.249 101.884 115.632 98.2952 113.117 95.4238C101.258 104.935 88.3205 113.011 74.485 119.651C74.8443 132.392 75.9224 143.698 75.9224 143.698C76.2818 143.698 76.6412 143.878 76.8209 143.878C94.6094 136.52 111.14 126.291 125.155 113.729C125.335 108.345 125.335 104.576 125.335 104.576C122.999 105.115 120.304 105.474 117.429 105.832Z" fill="url(#paint5_linear_2006_75647)"/>
</g>
<path d="M113.297 95.2442C112.398 94.1674 111.32 93.2702 110.062 92.3729C107.187 90.3988 103.773 89.1426 100 89.1426C96.2268 89.1426 92.8128 90.3988 89.9379 92.3729C85.8052 95.4237 82.9303 100.09 82.5709 105.653C79.8757 105.294 77.1804 104.935 74.8446 104.576C74.4852 109.421 74.4852 114.626 74.6649 119.651C88.5004 113.011 101.438 104.756 113.297 95.2442Z" fill="#9DC400"/>
<path d="M82.0316 143.519C80.4144 143.34 78.977 142.981 77.5395 142.622H77.1802V142.263C77.1802 141.186 77.0005 139.75 76.8208 137.776H77.7192C77.8989 139.571 77.8989 141.007 78.0786 141.904C79.3363 142.263 80.7738 142.442 82.2113 142.622L82.0316 143.519Z" fill="white"/>
<path d="M76.6412 135.802C76.4615 132.392 76.2818 128.803 76.1022 125.573H77.0006C77.1803 128.803 77.3599 132.392 77.5396 135.802H76.6412ZM76.1022 123.599C75.9225 120.369 75.9225 117.138 75.9225 114.446V113.37H76.8209V114.446C76.8209 117.318 76.8209 120.369 77.0006 123.599H76.1022Z" fill="white"/>
<path d="M76.8209 111.216H75.9225C75.9225 109.78 75.9225 108.165 76.1022 106.729V106.191H76.6412C78.7974 106.55 80.7739 106.729 82.391 106.909L83.8285 107.088V105.652C83.8285 104.755 84.0082 103.858 84.1879 102.96L85.0863 103.14C84.9066 104.217 84.9066 105.114 84.7269 105.832L84.5472 108.165L82.2114 107.806C80.7739 107.626 78.7974 107.447 76.8209 107.088C76.8209 108.524 76.8209 109.959 76.8209 111.216Z" fill="white"/>
<path d="M114.374 101.884C113.476 99.1922 111.859 97.0387 109.702 95.2441L110.241 94.5262C112.398 96.5003 114.194 98.8333 115.093 101.705L114.374 101.884ZM85.625 101.884L84.7266 101.525C85.625 98.8333 87.4218 96.3208 89.578 94.3468L90.117 95.0646C88.1405 96.8592 86.5234 99.1922 85.625 101.884ZM91.5545 94.1673L91.0154 93.4495C93.3513 91.8343 96.2262 90.7576 99.1011 90.7576V91.6549C96.4059 91.6549 93.7107 92.5522 91.5545 94.1673ZM108.624 94.1673C106.288 92.5522 103.773 91.6549 100.898 91.4754V90.5781C103.773 90.7576 106.648 91.6549 108.984 93.27L108.624 94.1673Z" fill="white"/>
<path d="M123.898 111.216H122.999C122.999 109.601 122.999 108.345 122.999 107.268C121.382 107.448 119.585 107.807 117.609 107.986L115.273 108.165L115.093 105.833C115.093 104.935 114.914 104.217 114.734 103.32L115.632 103.141C115.812 104.038 115.992 104.935 115.992 105.833V107.268L117.429 107.089C119.585 106.909 121.562 106.55 123.359 106.191H123.898V106.73C124.077 107.807 124.077 109.422 123.898 111.216Z" fill="white"/>
<path d="M123.179 135.802H122.281C122.46 132.572 122.64 128.983 122.64 125.573H123.538C123.359 128.983 123.359 132.393 123.179 135.802ZM123.718 123.42H122.82C122.999 119.651 122.999 116.241 123.179 113.19H124.077C123.898 116.241 123.718 119.83 123.718 123.42Z" fill="white"/>
<path d="M117.968 143.519L117.788 142.622C119.226 142.442 120.484 142.083 121.921 141.904C121.921 140.648 122.101 139.212 122.101 137.776H122.999C122.999 139.392 122.819 140.827 122.819 142.263V142.622H122.46C121.023 142.981 119.585 143.34 117.968 143.519Z" fill="white"/>
<path d="M99.9996 144.955C98.3825 144.955 96.7654 144.955 95.3279 144.955V144.057C98.5622 144.237 101.617 144.237 104.851 144.057V144.955C103.234 144.955 101.617 144.955 99.9996 144.955ZM106.648 144.775V143.878C109.882 143.698 113.116 143.339 115.991 142.98L116.171 143.878C113.116 144.237 109.882 144.596 106.648 144.775ZM93.3514 144.775C90.1171 144.596 86.8828 144.237 83.8282 143.878L84.0079 142.98C87.0625 143.339 90.1171 143.698 93.3514 143.878V144.775Z" fill="white"/>
<path d="M114.375 37.4583C113.297 37.8172 112.039 37.9967 110.781 38.3556C107.727 38.894 104.133 39.2529 100.18 39.2529C96.0472 39.2529 92.2739 38.894 89.2193 38.3556C87.9615 38.1762 86.7038 37.8172 85.8053 37.6378C84.1882 37.0994 82.7507 36.561 82.032 35.8432C78.2587 32.6129 78.2587 22.3837 82.032 20.4097C81.493 20.948 81.1336 21.307 81.1336 21.8453C81.1336 24.5372 89.7583 26.6907 100.18 26.6907C110.601 26.6907 119.226 24.5372 119.226 21.8453C119.226 21.8453 119.226 21.8453 119.226 21.6659C121.562 25.2551 121.023 33.3307 117.789 36.0226C116.89 36.561 115.812 37.0994 114.375 37.4583Z" fill="#90A399"/>
<path d="M114.375 37.4583C113.297 37.8172 112.039 37.9967 110.781 38.3556C107.727 38.894 104.133 39.2529 100.18 39.2529C96.0472 39.2529 92.2739 38.894 89.2193 38.3556C87.9615 38.1762 86.7038 37.8172 85.8053 37.6378C84.1882 37.0994 82.7507 36.561 82.032 35.8432C78.2587 32.6129 78.2587 22.3837 82.032 20.4097C81.493 20.948 81.1336 21.307 81.1336 21.8453C81.1336 24.5372 89.7583 26.6907 100.18 26.6907C110.601 26.6907 119.226 24.5372 119.226 21.8453C119.226 21.8453 119.226 21.8453 119.226 21.6659C121.562 25.2551 121.023 33.3307 117.789 36.0226C116.89 36.561 115.812 37.0994 114.375 37.4583Z" fill="url(#paint6_linear_2006_75647)"/>
<g opacity="0.2" style="mix-blend-mode:overlay">
<path d="M119.046 21.666C119.046 23.4606 115.812 24.8963 110.781 25.7936C110.961 29.9211 110.961 34.2282 110.242 38.3557C110.422 38.3557 110.601 38.3557 110.781 38.3557C112.218 38.1763 113.297 37.8174 114.375 37.4584C115.812 37.0995 116.89 36.5612 117.609 36.0228C120.843 33.3309 121.382 25.2552 119.046 21.666Z" fill="url(#paint7_linear_2006_75647)"/>
</g>
<g opacity="0.2" style="mix-blend-mode:overlay">
<path d="M89.0395 38.1761C89.9379 38.3556 91.016 38.535 92.0941 38.535C90.8363 34.5869 90.1176 30.1004 90.477 25.7934C87.2427 25.255 84.7271 24.5372 82.9303 23.8193C81.8522 28.1264 82.2116 32.6129 83.649 36.7404C84.1881 36.9199 84.7271 37.0993 85.4459 37.4583C86.7036 37.8172 87.7817 37.9966 89.0395 38.1761Z" fill="url(#paint8_linear_2006_75647)"/>
</g>
<path d="M119.046 21.6659C119.046 24.3578 110.422 26.6908 100 26.6908C89.3988 26.6908 80.9537 24.5373 80.9537 21.8454C80.9537 21.307 81.3131 20.7686 81.8521 20.4097C84.3677 18.4357 91.555 17 100 17C110.422 17 118.867 18.9741 119.046 21.6659ZM113.656 22.3838C113.656 20.7686 107.547 19.5124 100 19.5124C92.4534 19.5124 86.3442 20.7686 86.3442 22.3838C86.3442 23.9989 92.4534 25.2551 100 25.2551C107.547 25.2551 113.656 23.9989 113.656 22.3838Z" fill="#B0BFB7"/>
<path d="M119.046 21.6659C119.046 24.3578 110.422 26.6908 100 26.6908C89.3988 26.6908 80.9537 24.5373 80.9537 21.8454C80.9537 21.307 81.3131 20.7686 81.8521 20.4097C84.3677 18.4357 91.555 17 100 17C110.422 17 118.867 18.9741 119.046 21.6659ZM113.656 22.3838C113.656 20.7686 107.547 19.5124 100 19.5124C92.4534 19.5124 86.3442 20.7686 86.3442 22.3838C86.3442 23.9989 92.4534 25.2551 100 25.2551C107.547 25.2551 113.656 23.9989 113.656 22.3838Z" fill="url(#paint9_linear_2006_75647)"/>
<path d="M100 19.6919C107.547 19.6919 113.656 20.9481 113.656 22.5632C113.656 24.1784 107.547 25.4346 100 25.4346C92.4533 25.4346 86.3441 24.1784 86.3441 22.5632C86.3441 20.9481 92.4533 19.6919 100 19.6919Z" fill="#97ADAA"/>
<g opacity="0.2" style="mix-blend-mode:overlay">
<path d="M86.3441 22.3838C86.3441 23.9989 92.4533 25.2551 100 25.2551C102.336 25.2551 104.672 25.0757 106.648 24.8962C103.953 23.4605 101.437 21.6659 98.7422 19.6919C91.7346 19.8714 86.3441 20.9481 86.3441 22.3838Z" fill="url(#paint10_linear_2006_75647)"/>
</g>
<path d="M85.6254 37.458C86.7035 37.8169 87.7816 37.9964 89.0394 38.1758C88.3207 42.124 85.0864 59.1726 90.6565 68.8634C90.6565 68.8634 74.6648 69.5812 68.1963 79.4515C67.4775 80.7077 66.9385 82.3229 66.7588 84.2969C66.5791 84.6558 66.5791 84.8353 66.5791 85.1942C66.5791 85.3737 66.5791 85.5531 66.7588 85.7326C66.2198 91.4753 66.9385 99.3715 67.1182 107.627C67.2979 129.162 69.2744 155.901 71.7899 166.489C71.9696 167.566 72.329 168.463 72.5086 169.181L68.1963 169.899C61.7277 151.953 61.548 100.448 61.009 86.0915C60.4699 69.0429 84.3677 64.9153 84.3677 64.9153C80.5943 46.9694 85.2661 37.9964 85.6254 37.458Z" fill="#DEEDEB"/>
<g opacity="0.4" style="mix-blend-mode:overlay">
<path d="M110.601 38.3555C107.546 38.8939 103.953 39.2528 99.9997 39.2528C95.867 39.2528 92.0937 38.8939 89.0391 38.3555C87.7813 38.1761 86.5235 37.8172 85.6251 37.6377C85.4454 37.8172 84.9064 38.8939 84.3673 40.868C94.0701 46.0723 105.57 47.6874 116.71 46.4312C115.991 40.868 114.374 37.9966 114.374 37.6377C113.296 37.8172 112.038 37.9966 110.601 38.3555Z" fill="url(#paint11_linear_2006_75647)"/>
</g>
<g opacity="0.4" style="mix-blend-mode:overlay">
<path d="M86.1647 45.5342C85.0866 52.5331 85.2663 60.6088 87.7818 67.2488C91.5552 68.8639 95.3285 69.5817 99.6408 69.5817C96.0472 63.6596 94.9691 55.9428 95.8675 48.4055C92.6332 47.8672 89.399 46.7904 86.1647 45.5342Z" fill="url(#paint12_linear_2006_75647)"/>
</g>
<g opacity="0.2" style="mix-blend-mode:overlay">
<path d="M94.7892 72.2735C94.4298 72.0941 88.141 71.3762 84.3676 68.5049C70.5321 70.12 63.1652 78.5546 63.5245 88.4249C63.8839 100.628 64.0636 139.93 68.1963 162.362C74.4851 165.054 81.1334 166.669 87.9613 166.849C83.2895 145.134 82.9302 102.423 82.5708 89.5016C82.3911 80.7081 88.68 75.3243 94.7892 72.2735Z" fill="url(#paint13_linear_2006_75647)"/>
</g>
<path d="M82.9303 125.214V123.42C82.9303 123.24 82.9303 123.24 82.9303 123.24V122.343C82.9303 117.497 83.2897 113.908 83.8287 111.934C84.3678 110.14 84.7271 109.063 85.2662 108.704C85.6255 108.345 86.1646 108.166 86.5239 108.166C90.1176 108.166 92.6331 109.96 94.0706 113.549C94.7893 115.703 95.3284 118.215 95.3284 121.266V121.625L95.508 126.829C95.508 135.802 93.3519 140.289 89.2192 140.289C87.4224 140.289 86.1646 139.391 85.2662 137.417C84.3677 135.623 83.8287 133.828 83.649 132.034C83.11 129.342 82.9303 127.009 82.9303 125.214ZM85.8052 118.754L85.6255 123.061C85.6255 127.547 85.9849 131.495 86.7036 134.905C87.4223 136.879 88.1411 137.956 88.8598 138.315C89.3988 138.315 89.9379 138.135 90.4769 137.597C91.016 137.059 91.3753 136.52 91.555 135.802C91.7347 135.084 92.0941 134.187 92.2738 133.29C92.4534 132.393 92.6331 131.495 92.6331 130.598C92.8128 128.983 92.8128 127.547 92.8128 126.291C92.8128 125.035 92.6331 123.24 92.4534 120.907C92.2738 118.574 92.0941 116.78 92.0941 115.523V114.626C92.0941 113.549 91.7347 112.473 91.016 111.575C90.2973 110.678 89.3989 110.319 88.3208 110.319C87.2427 110.319 86.5239 110.857 86.1646 112.114C85.8052 113.19 85.8052 114.267 85.8052 115.882V118.754Z" fill="white"/>
<path d="M103.235 123.958L103.414 133.828V135.264V136.52H103.953H105.211C106.469 136.52 107.188 136.879 107.188 137.597C107.188 137.956 107.008 138.315 106.649 138.674C106.289 139.033 105.93 139.033 105.571 139.033H103.594C102.157 139.033 101.258 139.033 100.899 138.853C100.719 138.853 100.539 138.853 100.36 138.853C99.2817 138.853 98.7426 138.494 98.7426 137.777C98.7426 137.418 98.9223 137.238 99.102 136.879C99.2817 136.7 99.4614 136.52 99.641 136.52H100.899L101.078 135.982L100.719 126.112L100.899 115.703C100.899 113.908 100.899 112.293 100.719 110.678H99.8207H98.7426C98.2036 110.678 97.8442 110.678 97.6645 110.499C97.4849 110.319 97.3052 109.96 97.3052 109.422C97.3052 108.704 98.0239 108.345 99.641 108.345H105.211C106.469 108.345 107.188 108.704 107.188 109.243C107.188 109.601 107.008 109.781 106.828 109.96C106.469 110.14 106.289 110.319 105.93 110.319H103.594C103.774 111.575 103.774 113.011 103.774 114.626L103.235 123.958Z" fill="white"/>
<path d="M112.398 113.191L112.578 124.317C112.398 124.676 112.219 125.214 112.219 125.932V126.83L112.039 134.187C112.039 136.341 112.578 137.418 113.656 137.418H115.633C117.25 137.418 118.148 137.956 118.148 138.853C118.148 139.212 117.968 139.392 117.789 139.751C117.429 139.93 117.25 140.11 116.89 140.11C115.812 139.751 114.375 139.571 112.758 139.571C112.219 139.93 111.859 139.93 111.32 139.93C110.781 139.93 110.422 139.751 110.242 139.392C110.062 139.033 109.883 138.674 109.883 138.315C109.883 135.982 110.062 132.572 110.242 127.906C110.422 123.24 110.601 119.831 110.601 117.498V117.139C110.422 115.165 110.242 113.729 110.242 112.832C110.242 109.96 110.781 108.345 111.859 108.345C112.219 108.345 112.398 108.525 112.758 108.704C112.937 108.884 113.117 109.243 113.117 109.601L112.398 113.191Z" fill="white"/>
<defs>
<linearGradient id="paint0_linear_2006_75647" x1="99.9007" y1="87.5282" x2="99.3039" y2="165.294" gradientUnits="userSpaceOnUse">
<stop stop-color="#EAF2B3"/>
<stop offset="1" stop-color="white"/>
</linearGradient>
<linearGradient id="paint1_linear_2006_75647" x1="99.1541" y1="190.818" x2="100.349" y2="151.937" gradientUnits="userSpaceOnUse">
<stop stop-color="#F2C98C"/>
<stop offset="1" stop-color="white"/>
</linearGradient>
<linearGradient id="paint2_linear_2006_75647" x1="100.597" y1="189.937" x2="99.6344" y2="55.8534" gradientUnits="userSpaceOnUse">
<stop stop-color="#EFF249"/>
<stop offset="1" stop-color="white"/>
</linearGradient>
<linearGradient id="paint3_linear_2006_75647" x1="102.128" y1="208.534" x2="100.09" y2="143.235" gradientUnits="userSpaceOnUse">
<stop stop-color="white"/>
<stop offset="0.8918"/>
</linearGradient>
<linearGradient id="paint4_linear_2006_75647" x1="70.2435" y1="173.564" x2="70.2039" y2="168.035" gradientUnits="userSpaceOnUse">
<stop stop-color="#EFF249"/>
<stop offset="1" stop-color="white"/>
</linearGradient>
<linearGradient id="paint5_linear_2006_75647" x1="27.8102" y1="157.914" x2="108.021" y2="112.965" gradientUnits="userSpaceOnUse">
<stop stop-color="white"/>
<stop offset="1"/>
</linearGradient>
<linearGradient id="paint6_linear_2006_75647" x1="100.893" y1="56.0483" x2="99.6985" y2="26.4397" gradientUnits="userSpaceOnUse">
<stop stop-color="white"/>
<stop offset="1"/>
</linearGradient>
<linearGradient id="paint7_linear_2006_75647" x1="110.885" y1="23.2029" x2="120.747" y2="41.1577" gradientUnits="userSpaceOnUse">
<stop stop-color="#D2D7D9"/>
<stop offset="1" stop-color="white"/>
</linearGradient>
<linearGradient id="paint8_linear_2006_75647" x1="81.1062" y1="16.3633" x2="92.5643" y2="44.923" gradientUnits="userSpaceOnUse">
<stop stop-color="white"/>
<stop offset="1"/>
</linearGradient>
<linearGradient id="paint9_linear_2006_75647" x1="80.8332" y1="52.9384" x2="112.221" y2="1.75772" gradientUnits="userSpaceOnUse">
<stop stop-color="white"/>
<stop offset="1"/>
</linearGradient>
<linearGradient id="paint10_linear_2006_75647" x1="88.9432" y1="18.4904" x2="103.977" y2="29.2745" gradientUnits="userSpaceOnUse">
<stop stop-color="#D2D7D9"/>
<stop offset="1" stop-color="white"/>
</linearGradient>
<linearGradient id="paint11_linear_2006_75647" x1="81.4809" y1="35.6021" x2="121.604" y2="45.195" gradientUnits="userSpaceOnUse">
<stop stop-color="#D2D7D9"/>
<stop offset="1" stop-color="white"/>
</linearGradient>
<linearGradient id="paint12_linear_2006_75647" x1="80.9401" y1="36.4521" x2="97.9763" y2="69.9682" gradientUnits="userSpaceOnUse">
<stop stop-color="white"/>
<stop offset="1"/>
</linearGradient>
<linearGradient id="paint13_linear_2006_75647" x1="58.5813" y1="54.2667" x2="96.6803" y2="159.282" gradientUnits="userSpaceOnUse">
<stop stop-color="white"/>
<stop offset="1"/>
</linearGradient>
</defs>
</svg>
