<svg width="200" height="200" viewBox="0 0 200 200" fill="none" xmlns="http://www.w3.org/2000/svg">
<mask id="mask0_2006_74072" style="mask-type:luminance" maskUnits="userSpaceOnUse" x="74" y="24" width="52" height="159">
<path d="M115.438 75.276C115.438 75.276 115.123 65.0918 114.194 57.5275C112.882 46.8262 109.453 33.5561 109.453 33.5561C110.076 33.1847 110.563 32.6216 110.845 31.9495C111.127 31.2774 111.188 30.5317 111.018 29.8222V29.7597C110.886 29.2032 110.617 28.6891 110.236 28.265C109.856 27.841 109.375 27.5204 108.839 27.333L108.519 24.1846H91.5322L91.2112 27.3614C90.6755 27.5488 90.195 27.8694 89.8143 28.2935C89.4335 28.7176 89.1646 29.2316 89.0323 29.7881V29.8507C88.863 30.5602 88.9237 31.3058 89.2055 31.9779C89.4872 32.65 89.9751 33.2131 90.5975 33.5845C90.5975 33.5845 87.9288 40.6032 85.6767 58.363C84.7365 65.6715 84.6014 75.276 84.6014 75.276C80.9652 78.8201 78.1396 83.1229 76.3221 87.8837C74.5045 92.6446 73.7388 97.7486 74.0785 102.839C74.2361 105.243 74.4276 107.664 74.5233 110.091L76.7754 170.793C78.2617 178.306 84.8153 183 100 183C115.483 183 121.733 178.306 123.225 170.793L125.477 110.091C125.567 107.664 125.758 105.237 125.922 102.839C126.261 97.7486 125.495 92.6446 123.678 87.8837C121.86 83.1229 119.035 78.8201 115.399 75.276H115.438Z" fill="white"/>
</mask>
<g mask="url(#mask0_2006_74072)">
<path d="M128.787 15.2393H73.808V182.596H94.3921C96.98 182.877 99.5815 183.012 102.184 183C104.817 183.012 107.448 182.877 110.067 182.596H128.787V15.2393Z" fill="#3F57CC"/>
<path d="M99.9436 165.172C85.7048 165.172 71.421 162.33 56.27 156.482L53.7365 155.499L71.877 102.044L74.4669 102.817C82.5997 105.324 91.0517 106.618 99.5552 106.658C108.059 106.618 116.511 105.324 124.643 102.817L127.233 102.044L145.357 155.465L142.863 156.471C128.224 162.325 114.188 165.172 99.9436 165.172Z" fill="url(#paint0_linear_2006_74072)" style="mix-blend-mode:multiply"/>
<path d="M99.9436 163.45C85.7048 163.45 71.421 160.608 56.27 154.76L53.7365 153.76L71.877 100.276L74.4669 101.049C82.5997 103.556 91.0517 104.85 99.5552 104.891C108.059 104.85 116.511 103.556 124.643 101.049L127.233 100.276L145.357 153.76L142.863 154.749C128.224 160.58 114.188 163.45 99.9436 163.45Z" fill="#96E9FF"/>
<path d="M141.827 152.106C113.738 163.342 86.8984 163.535 57.2778 152.106L73.6618 103.8C91.3294 109.079 107.798 109.074 125.46 103.8L141.827 152.106Z" fill="#FC3E40"/>
<path d="M99.5498 96.1387L77.1922 131.562L99.5498 166.979L121.902 131.562L99.5498 96.1387Z" fill="url(#paint1_linear_2006_74072)" style="mix-blend-mode:multiply"/>
<path d="M99.5498 94.894L77.1922 130.317L99.5498 165.74L121.902 130.317L99.5498 94.894Z" fill="#96E9FF"/>
<path d="M81.1443 130.317L99.5438 101.151L117.949 130.317L99.5438 159.477L81.1443 130.317Z" fill="white"/>
<path d="M85.9012 126.622V126.183L86.1617 126.146L87.3214 122.974H88.0704L89.2226 126.146L89.4831 126.183V126.622H88.2407V126.183L88.4937 126.138L88.3334 125.637H87.0509L86.8906 126.138L87.1436 126.183V126.622H85.9012ZM87.2237 125.099H88.1606L87.7347 123.849L87.6997 123.738H87.6846L87.6471 123.856L87.2237 125.099ZM90.5051 126.622L89.6585 123.453L89.2853 123.415V122.974H90.7531V123.415L90.3599 123.473L90.7882 125.246L90.8658 125.572H90.8809L90.9735 125.246L91.695 122.974H92.2335L92.9825 125.309L93.0701 125.597H93.0852L93.1603 125.309L93.6037 123.473L93.1879 123.415V122.974H94.6282V123.415L94.28 123.453L93.4233 126.622H92.762L92.0707 124.49L91.983 124.189H91.968L91.8703 124.5L91.1714 126.622H90.5051ZM94.8561 126.622V126.183L95.2444 126.108V123.49L94.8561 123.415V122.974H97.6866V123.959H97.1255L97.093 123.538H95.9758V124.455H97.2107V125.018H95.9758V126.06H97.1531L97.1857 125.625H97.7417V126.622H94.8561ZM99.6204 126.674C99.3515 126.674 99.1069 126.644 98.8865 126.584C98.666 126.524 98.449 126.42 98.2352 126.271V125.389H98.8013L98.879 125.908C98.9541 125.971 99.0576 126.023 99.1896 126.063C99.3215 126.101 99.4651 126.121 99.6204 126.121C99.7523 126.121 99.8634 126.102 99.9536 126.065C100.045 126.029 100.115 125.977 100.161 125.91C100.21 125.842 100.234 125.762 100.234 125.67C100.234 125.583 100.212 125.506 100.169 125.439C100.127 125.371 100.057 125.309 99.9586 125.254C99.8617 125.197 99.7298 125.143 99.5628 125.091C99.2739 125.006 99.0343 124.913 98.8439 124.813C98.6552 124.711 98.5132 124.59 98.4181 124.45C98.3245 124.308 98.2778 124.138 98.2778 123.939C98.2778 123.742 98.3321 123.568 98.4406 123.418C98.5508 123.266 98.7028 123.146 98.8965 123.06C99.0902 122.973 99.314 122.928 99.5678 122.924C99.8483 122.921 100.096 122.954 100.312 123.025C100.529 123.095 100.716 123.192 100.873 123.318V124.139H100.324L100.229 123.638C100.166 123.598 100.08 123.563 99.9711 123.533C99.8642 123.503 99.7423 123.488 99.6054 123.488C99.4885 123.488 99.3849 123.506 99.2948 123.541C99.2063 123.576 99.1361 123.627 99.0844 123.693C99.0326 123.76 99.0067 123.841 99.0067 123.936C99.0067 124.018 99.0293 124.09 99.0743 124.152C99.1194 124.212 99.1946 124.269 99.2998 124.325C99.4067 124.378 99.5536 124.436 99.7406 124.497C100.143 124.609 100.448 124.757 100.655 124.941C100.864 125.124 100.968 125.366 100.968 125.665C100.968 125.872 100.912 126.051 100.8 126.203C100.688 126.354 100.531 126.47 100.329 126.551C100.127 126.633 99.8909 126.674 99.6204 126.674ZM102.929 126.674C102.684 126.674 102.46 126.628 102.258 126.536C102.056 126.445 101.881 126.316 101.735 126.151C101.589 125.984 101.477 125.788 101.399 125.565C101.32 125.339 101.281 125.093 101.281 124.826V124.77C101.281 124.505 101.32 124.26 101.399 124.037C101.477 123.811 101.589 123.615 101.735 123.448C101.88 123.281 102.053 123.151 102.256 123.06C102.458 122.968 102.681 122.922 102.927 122.922C103.174 122.922 103.399 122.968 103.603 123.06C103.807 123.151 103.982 123.281 104.129 123.448C104.276 123.615 104.389 123.811 104.467 124.037C104.548 124.26 104.588 124.505 104.588 124.77V124.826C104.588 125.093 104.548 125.339 104.467 125.565C104.389 125.788 104.276 125.984 104.129 126.151C103.982 126.316 103.807 126.445 103.603 126.536C103.401 126.628 103.177 126.674 102.929 126.674ZM102.929 126.106C103.136 126.106 103.308 126.052 103.445 125.945C103.582 125.838 103.685 125.689 103.753 125.497C103.824 125.305 103.859 125.081 103.859 124.826V124.765C103.859 124.513 103.824 124.292 103.753 124.102C103.683 123.91 103.579 123.76 103.44 123.653C103.303 123.546 103.132 123.493 102.927 123.493C102.723 123.493 102.554 123.546 102.418 123.653C102.283 123.759 102.181 123.906 102.113 124.097C102.046 124.287 102.013 124.51 102.013 124.765V124.826C102.013 125.081 102.046 125.305 102.113 125.497C102.181 125.689 102.283 125.838 102.418 125.945C102.555 126.052 102.726 126.106 102.929 126.106ZM104.881 126.622V126.183L105.269 126.108V123.49L104.881 123.415V122.974H105.269H106.351L107.345 125.517H107.36L108.322 122.974H109.795V123.415L109.404 123.49V126.108L109.795 126.183V126.622H108.285V126.183L108.693 126.108V125.409L108.706 123.764L108.691 123.761L107.601 126.571H107.047L105.933 123.784L105.918 123.786L105.96 125.334V126.108L106.391 126.183V126.622H104.881ZM110.056 126.622V126.183L110.444 126.108V123.49L110.056 123.415V122.974H112.886V123.959H112.325L112.293 123.538H111.175V124.455H112.41V125.018H111.175V126.06H112.353L112.385 125.625H112.941V126.622H110.056Z" fill="#FC3E40"/>
<path d="M85.9253 142.322V130.093H88.685C89.4066 130.093 90.0697 130.289 90.6548 130.669C91.1521 131 91.5129 131.498 91.7274 132.18C91.8445 132.551 91.903 132.98 91.903 133.477C91.903 134.296 91.6787 134.959 91.2496 135.447C91.0643 135.662 90.8498 135.818 90.606 135.925C91.0156 136.081 91.3569 136.393 91.6494 136.851C91.8347 137.163 91.9712 137.573 92.0687 138.06C92.1077 138.314 92.137 138.597 92.137 138.909C92.137 139.689 91.9907 140.342 91.6982 140.879C91.4642 141.308 91.1424 141.639 90.7328 141.893C90.2647 142.185 89.7967 142.322 89.3383 142.322H85.9253ZM87.9146 140.498H88.685C89.3091 140.498 89.7382 140.176 89.9819 139.533C90.0599 139.318 90.1087 139.065 90.1087 138.772C90.1087 138.09 89.9722 137.592 89.7186 137.28C89.4846 136.998 89.1336 136.851 88.685 136.851H87.9146V140.498ZM87.9146 135.086H88.685C89.2506 135.086 89.6406 134.813 89.8357 134.248C89.9039 134.043 89.9429 133.789 89.9429 133.477C89.9429 132.97 89.8162 132.59 89.5724 132.327C89.3383 132.093 89.0458 131.966 88.685 131.966H87.9146V135.086ZM93.7289 142.322V130.093H98.9752V131.937H95.5719V135.281H98.0586V137.134H95.5719V140.479H98.9752V142.322H93.7289ZM100.245 142.322V130.093H105.492V131.937H102.088V135.281H104.575V137.134H102.088V140.479H105.492V142.322H100.245ZM109.668 130.103C110.692 130.103 111.442 130.386 111.93 130.952C112.349 131.449 112.564 132.141 112.564 133.019V134.794C112.564 135.662 112.232 136.393 111.579 136.988L112.944 142.322H110.955L109.833 137.709C109.775 137.719 109.726 137.719 109.668 137.719H108.605V142.322H106.762V130.103H109.668ZM110.77 133.048C110.77 132.346 110.418 131.985 109.716 131.985H108.605V135.896H109.716C110.009 135.896 110.253 135.798 110.457 135.584C110.662 135.379 110.77 135.125 110.77 134.833V133.048Z" fill="#FC3E40"/>
<path d="M108.355 32.7094C102.863 33.9356 97.171 33.9356 91.6785 32.7094C91.0154 32.5763 90.4063 32.2478 89.9282 31.7652C89.4502 31.2827 89.1247 30.6679 88.9929 29.9985C88.828 30.8854 89.018 31.802 89.5214 32.5477C90.0248 33.2934 90.8005 33.8072 91.6785 33.9767C97.171 35.2028 102.863 35.2028 108.355 33.9767C109.233 33.8072 110.009 33.2934 110.512 32.5477C111.016 31.802 111.206 30.8854 111.041 29.9985C110.909 30.6679 110.583 31.2827 110.105 31.7652C109.627 32.2478 109.018 32.5763 108.355 32.7094Z" fill="#D3B186"/>
<g opacity="0.4" style="mix-blend-mode:overlay">
<path d="M126.107 85.1818L121.676 70.7125L113.974 23.2583H88.3115L78.5093 68.9621L72.485 85.1818V169.497C72.485 169.497 76.8034 182.869 76.6232 183.386C76.4993 183.739 88.3678 184.25 96.0756 184.523V184.756L99.2961 184.642L102.517 184.756V184.523C110.224 184.228 122.093 183.716 121.969 183.386C121.789 182.864 126.107 169.497 126.107 169.497V85.1818ZM93.8798 28.4413C94.3246 27.4979 96.0418 27.191 97.6689 27.1228V27.2308C97.6689 27.2308 98.3446 27.1569 99.2736 27.1228C100.203 27.0887 100.878 27.2308 100.878 27.2308V27.1228C102.505 27.191 104.256 27.4922 104.667 28.4413C112.24 45.3884 108.896 67.7459 107.094 71.9173C106.08 74.2645 102.336 75.1226 99.2567 75.4295C96.1769 75.1226 91.9374 74.4236 91.4194 71.9173C86.8026 48.8779 92.9846 30.3509 93.8798 28.4413ZM118.906 173.839C117.465 177.487 115.781 177.141 107.995 175.402C105.976 174.944 103.93 174.623 101.869 174.441C101.013 174.35 100.152 174.31 99.2904 174.322C98.4293 174.31 97.5683 174.35 96.7118 174.441C94.651 174.623 92.6045 174.944 90.5861 175.402C82.7939 177.141 81.1105 177.487 79.6748 173.839C78.2391 170.19 79.5847 101.47 80.8459 95.4114C82.107 89.3532 85.8793 81.3116 91.0365 78.5325C93.6152 77.1458 96.7794 76.7082 99.2961 76.623C101.813 76.7082 104.977 77.1458 107.556 78.5325C112.707 81.3116 116.485 89.3305 117.746 95.4114C119.007 101.492 120.342 170.19 118.912 173.839H118.906Z" fill="#9FB1BD"/>
</g>
<g opacity="0.4" style="mix-blend-mode:overlay">
<path d="M98.3277 182.357L96.1319 182.272C84.8996 181.846 80.3279 181.556 78.4699 181.391C77.9744 179.448 76.8991 175.913 74.7145 169.133V85.5907L80.6488 69.5983L90.1019 25.5312H93.9924C93.0668 25.8857 92.3044 26.5742 91.8529 27.4635C91.7741 27.634 84.1001 46.8657 89.2518 72.3603C89.4034 73.0609 89.6994 73.7214 90.1203 74.2991C90.5413 74.8768 91.0779 75.3586 91.6953 75.7134C91.1071 75.9404 90.5336 76.2042 89.9781 76.5033C84.162 79.6347 80.0295 88.2504 78.6444 94.9224C77.4339 100.753 75.8631 170.332 77.586 174.68C78.4192 176.788 79.748 178.936 83.3344 178.936C85.1699 178.936 87.5177 178.413 91.076 177.618C92.9961 177.182 94.9428 176.877 96.9032 176.703H96.9764C97.687 176.626 98.4013 176.59 99.1159 176.595H99.4706C100.185 176.59 100.9 176.626 101.61 176.703H101.683C103.644 176.88 105.591 177.19 107.511 177.629C111.069 178.425 113.417 178.948 115.252 178.948C118.839 178.948 120.173 176.794 121.001 174.691C122.69 170.343 121.153 100.765 119.942 94.9394C118.557 88.2674 114.424 79.6575 108.608 76.5204C107.982 76.1837 107.333 75.8912 106.666 75.6452C107.775 74.9939 108.657 74.0109 109.188 72.832C111.3 67.9445 114.571 45.0187 106.75 27.5147C106.323 26.6049 105.565 25.8965 104.634 25.5369H112.049L119.469 71.2407L123.849 85.5338V169.138C121.665 175.918 120.584 179.453 120.094 181.397C118.236 181.562 113.664 181.846 102.432 182.278L100.264 182.363V182.431L99.2961 182.397L98.3277 182.431V182.357Z" fill="#9FB1BD"/>
</g>
<g opacity="0.2" style="mix-blend-mode:overlay">
<path d="M102.506 86.6138L106.024 88.0857C108.095 88.9467 109.865 90.4089 111.111 92.2867C112.357 94.1645 113.022 96.3735 113.023 98.6336L114.599 178.3L117.752 175.697L121.89 103.669C122.365 95.3005 119.801 87.0444 114.678 80.4476L111.272 76.0488H103.277L102.506 86.6138Z" fill="url(#paint2_linear_2006_74072)" style="mix-blend-mode:soft-light"/>
</g>
<g opacity="0.2" style="mix-blend-mode:overlay">
<path d="M97.2583 86.6138L93.7394 88.0857C91.6724 88.9494 89.9057 90.4126 88.6629 92.2903C87.4201 94.1679 86.7572 96.3755 86.7579 98.6336L85.1815 178.3L82.0567 175.697L77.896 103.669C77.4145 95.3034 79.9707 87.0476 85.0858 80.4476L88.492 76.0488H96.4869L97.2583 86.6138Z" fill="url(#paint3_linear_2006_74072)" style="mix-blend-mode:soft-light"/>
</g>
<g opacity="0.4" style="mix-blend-mode:overlay">
<path d="M101.424 34.8914L103.271 73.7414C103.271 73.7414 106.565 73.8834 108.305 68.2003C113.935 49.7244 106.328 34.8857 106.328 34.8857L101.424 34.8914Z" fill="url(#paint4_linear_2006_74072)" style="mix-blend-mode:soft-light"/>
</g>
<g opacity="0.2" style="mix-blend-mode:overlay">
<path d="M116.125 166.917C115.1 172.264 112.685 173.969 112.685 173.969C109.251 172.39 102.376 172.054 98.9023 172.094C95.6818 172.134 89.117 172.6 86.1499 173.969C86.1499 173.969 83.7345 172.264 82.7098 166.917C81.6851 161.569 81.6851 144.326 81.6851 144.326V171.946C81.6851 171.946 83.8809 178.601 99.409 179.164C114.937 178.596 117.133 171.946 117.133 171.946V144.326C117.133 144.326 117.15 161.569 116.125 166.917Z" fill="#D3B186"/>
</g>
<path d="M91.9487 27.282C96.7338 27.9538 101.583 28.0207 106.385 27.4809C108.081 27.3716 109.742 26.9437 111.283 26.2192L111.159 22.0421C103.827 21.3084 96.4422 21.2836 89.1054 21.9682C88.9197 21.9682 89.0717 25.3781 89.2181 25.7759C89.6516 26.8728 90.8677 27.1342 91.9487 27.282Z" fill="url(#paint5_linear_2006_74072)" style="mix-blend-mode:multiply"/>
<g opacity="0.2" style="mix-blend-mode:overlay">
<path d="M110.292 163.183C115.922 160.37 121.457 155.181 126.107 145.73C127.993 155.658 126.484 170.167 127.402 180.238C127.56 181.943 120.038 184.426 118.754 184.892C114.912 186.289 110.901 187.156 106.829 187.473C97.7683 188.196 88.7064 186.087 80.874 181.431C78.1265 179.817 73.9601 176.885 73.0537 173.509C71.6911 168.377 83.402 176.663 110.292 163.183Z" fill="url(#paint6_linear_2006_74072)" style="mix-blend-mode:multiply"/>
</g>
</g>
<path d="M111.266 25.1733C102.286 26.1735 97.7535 26.1735 88.7452 25.1733C88.8859 24.605 89.0154 24.0708 89.128 23.5934C89.4208 22.3829 89.6516 21.4054 89.9613 20.0528L90.119 19.3537C90.2341 18.6876 90.5808 18.0847 91.0968 17.6535C91.6128 17.2222 92.2642 16.9909 92.9341 17.0009C97.6429 17.4243 102.38 17.4243 107.088 17.0009C107.759 16.9836 108.414 17.2116 108.931 17.6429C109.448 18.0743 109.794 18.6799 109.904 19.3481L110.067 20.0471C110.376 21.3997 110.602 22.3772 110.894 23.5877C110.996 24.0707 111.125 24.5879 111.266 25.1733Z" fill="#3F57CC"/>
<path d="M110.883 23.6163C107.302 24.3218 103.665 24.7022 100.017 24.7529C96.3629 24.8121 92.7149 24.4305 89.1506 23.6163C89.4433 22.4058 89.6742 21.4283 89.9838 20.0757C93.2665 20.8851 96.6382 21.267 100.017 21.2123C106.829 21.2123 110.056 20.0757 110.056 20.0757C110.365 21.4055 110.59 22.383 110.883 23.6163Z" fill="#FC3E40"/>
<path d="M93.4521 22.3544C93.272 23.6331 93.1763 24.2753 92.9905 25.554C91.7912 25.4687 91.1944 25.4176 89.9952 25.2982C90.2654 24.0309 90.3949 23.3944 90.6539 22.127C90.715 21.7205 90.9196 21.3499 91.23 21.0836C91.5404 20.8173 91.9356 20.6732 92.343 20.6778C92.5281 20.7079 92.705 20.7761 92.8628 20.8784C93.0205 20.9806 93.1557 21.1146 93.2598 21.2719C93.3639 21.4293 93.4347 21.6067 93.4678 21.7929C93.5009 21.9792 93.4956 22.1703 93.4521 22.3544Z" fill="url(#paint7_linear_2006_74072)" style="mix-blend-mode:multiply"/>
<path d="M97.4384 22.5424C97.3652 23.8324 97.3314 24.4746 97.2582 25.7647C96.059 25.7306 95.4566 25.7079 94.2573 25.6397C94.4093 24.3553 94.4882 23.7131 94.6345 22.4344C94.6592 22.0352 94.8293 21.6594 95.112 21.3793C95.3947 21.0991 95.7702 20.9345 96.166 20.917C96.3561 20.9374 96.5402 20.9959 96.7076 21.089C96.875 21.1822 97.0223 21.3082 97.1408 21.4596C97.2593 21.611 97.3467 21.7847 97.3978 21.9707C97.4489 22.1566 97.4627 22.351 97.4384 22.5424Z" fill="url(#paint8_linear_2006_74072)" style="mix-blend-mode:multiply"/>
<path d="M101.419 22.5648C101.458 23.8549 101.475 24.4971 101.514 25.7872C100.315 25.7872 99.7183 25.7872 98.519 25.7872C98.5585 24.4971 98.581 23.8549 98.6204 22.5648C98.6204 22.188 98.7687 21.8266 99.0326 21.5602C99.2966 21.2937 99.6546 21.144 100.028 21.144C100.401 21.144 100.759 21.2937 101.023 21.5602C101.287 21.8266 101.435 22.188 101.435 22.5648H101.419Z" fill="url(#paint9_linear_2006_74072)" style="mix-blend-mode:multiply"/>
<path d="M105.405 22.4284C105.557 23.7127 105.63 24.3549 105.782 25.6336C104.583 25.7018 103.98 25.7246 102.781 25.7587C102.708 24.4686 102.669 23.8264 102.601 22.5363C102.576 22.3445 102.589 22.1495 102.64 21.9629C102.691 21.7763 102.778 21.6019 102.896 21.4499C103.015 21.2979 103.163 21.1714 103.33 21.0778C103.498 20.9843 103.683 20.9256 103.873 20.9053C104.27 20.9229 104.646 21.0883 104.929 21.3697C105.212 21.651 105.382 22.0282 105.405 22.4284Z" fill="url(#paint10_linear_2006_74072)" style="mix-blend-mode:multiply"/>
<path d="M109.391 22.1269C109.65 23.3943 109.786 24.0308 110.05 25.2981C108.851 25.4175 108.254 25.4686 107.055 25.5539C106.869 24.2752 106.773 23.633 106.593 22.3543C106.55 22.169 106.545 21.9766 106.579 21.7893C106.613 21.6021 106.686 21.424 106.792 21.2664C106.897 21.1088 107.034 20.9751 107.194 20.8738C107.354 20.7724 107.533 20.7057 107.719 20.6777C108.124 20.6772 108.515 20.8232 108.822 21.0891C109.129 21.355 109.331 21.7233 109.391 22.1269Z" fill="url(#paint11_linear_2006_74072)" style="mix-blend-mode:multiply"/>
<defs>
<linearGradient id="paint0_linear_2006_74072" x1="53.7365" y1="133.596" x2="145.357" y2="133.596" gradientUnits="userSpaceOnUse">
<stop stop-color="white" stop-opacity="0"/>
<stop offset="1" stop-color="#34475A"/>
</linearGradient>
<linearGradient id="paint1_linear_2006_74072" x1="77.1922" y1="131.562" x2="121.902" y2="131.562" gradientUnits="userSpaceOnUse">
<stop stop-color="white" stop-opacity="0"/>
<stop offset="1" stop-color="#34475A"/>
</linearGradient>
<linearGradient id="paint2_linear_2006_74072" x1="102.506" y1="127.18" x2="121.924" y2="127.18" gradientUnits="userSpaceOnUse">
<stop offset="0.17" stop-color="white" stop-opacity="0"/>
<stop offset="0.78" stop-color="white"/>
<stop offset="1" stop-color="white" stop-opacity="0"/>
</linearGradient>
<linearGradient id="paint3_linear_2006_74072" x1="97.2583" y1="127.18" x2="77.8397" y2="127.18" gradientUnits="userSpaceOnUse">
<stop offset="0.17" stop-color="white" stop-opacity="0"/>
<stop offset="0.78" stop-color="white"/>
<stop offset="1" stop-color="white" stop-opacity="0"/>
</linearGradient>
<linearGradient id="paint4_linear_2006_74072" x1="101.424" y1="54.3164" x2="110.393" y2="54.3164" gradientUnits="userSpaceOnUse">
<stop offset="0.17" stop-color="white" stop-opacity="0"/>
<stop offset="0.78" stop-color="white"/>
<stop offset="1" stop-color="white" stop-opacity="0"/>
</linearGradient>
<linearGradient id="paint5_linear_2006_74072" x1="99.9605" y1="19.2517" x2="100.299" y2="27.9239" gradientUnits="userSpaceOnUse">
<stop stop-color="white" stop-opacity="0"/>
<stop offset="1" stop-color="#34475A"/>
</linearGradient>
<linearGradient id="paint6_linear_2006_74072" x1="72.8451" y1="170.137" x2="128.276" y2="164.59" gradientUnits="userSpaceOnUse">
<stop stop-color="white" stop-opacity="0"/>
<stop offset="1" stop-color="#34475A"/>
</linearGradient>
<linearGradient id="paint7_linear_2006_74072" x1="91.7293" y1="27.8272" x2="91.7293" y2="21.4735" gradientUnits="userSpaceOnUse">
<stop stop-color="white" stop-opacity="0"/>
<stop offset="1" stop-color="#34475A"/>
</linearGradient>
<linearGradient id="paint8_linear_2006_74072" x1="95.845" y1="28.0209" x2="95.845" y2="21.7013" gradientUnits="userSpaceOnUse">
<stop stop-color="white" stop-opacity="0"/>
<stop offset="1" stop-color="#34475A"/>
</linearGradient>
<linearGradient id="paint9_linear_2006_74072" x1="100.022" y1="28.0491" x2="100.022" y2="21.7692" gradientUnits="userSpaceOnUse">
<stop stop-color="white" stop-opacity="0"/>
<stop offset="1" stop-color="#34475A"/>
</linearGradient>
<linearGradient id="paint10_linear_2006_74072" x1="104.194" y1="28.0206" x2="104.194" y2="21.7009" gradientUnits="userSpaceOnUse">
<stop stop-color="white" stop-opacity="0"/>
<stop offset="1" stop-color="#34475A"/>
</linearGradient>
<linearGradient id="paint11_linear_2006_74072" x1="108.31" y1="27.8271" x2="108.31" y2="21.4734" gradientUnits="userSpaceOnUse">
<stop stop-color="white" stop-opacity="0"/>
<stop offset="1" stop-color="#34475A"/>
</linearGradient>
</defs>
</svg>
