<svg width="200" height="200" viewBox="0 0 200 200" fill="none" xmlns="http://www.w3.org/2000/svg">
<path d="M152 75.7208C152 71.2436 148.393 67.6274 143.926 67.6274L135.853 65.7332V21.1335C135.853 18.8949 130.871 17.1729 124.687 17.1729C118.503 17.1729 113.521 18.8949 113.521 21.1335V65.7332L105.448 67.6274C100.982 67.6274 97.3743 71.2436 97.3743 75.7208V172.325C97.3743 176.802 100.982 180.418 105.448 180.418H143.926C148.393 180.418 152 176.802 152 172.325V75.7208Z" fill="#829AA8"/>
<path d="M105.104 178.008C101.669 178.008 98.9202 175.252 98.9202 171.808V75.3764C98.9202 71.9324 101.669 69.1772 105.104 69.1772H105.276L115.067 66.7664V20.789C115.583 20.1003 118.675 18.7227 124.343 18.7227C130.012 18.7227 133.104 20.1003 133.62 20.789V66.7664L143.411 69.1772H143.583C147.018 69.1772 149.767 71.9324 149.767 75.3764V171.808C149.767 175.252 147.018 178.008 143.583 178.008H105.104Z" fill="#D1DCE3"/>
<path d="M143.583 69.1764H143.411L133.62 66.7656V60.5664H115.239V66.7656L105.448 69.1764H105.276C101.84 69.1764 99.092 71.9316 99.092 75.3756V171.808C99.092 175.252 101.84 178.007 105.276 178.007H143.755C147.19 178.007 149.939 175.252 149.939 171.808V75.3756C149.767 71.9316 147.018 69.1764 143.583 69.1764Z" fill="#FFE45E"/>
<path d="M124.687 17C118.159 17 112.834 18.722 112.834 20.9606V44.8964C113.521 46.9628 118.503 48.5126 124.687 48.5126C130.871 48.5126 136.025 46.9628 136.54 44.8964V20.9606C136.54 18.8942 131.215 17 124.687 17Z" fill="#FFD334"/>
<path d="M124.687 40.5914C118.503 40.5914 113.35 39.0416 112.834 36.9751V42.8301C113.521 44.8966 118.503 46.4465 124.687 46.4465C130.871 46.4465 136.025 44.8966 136.54 42.8301V36.9751C136.025 39.0416 130.871 40.5914 124.687 40.5914Z" fill="#E63800"/>
<path d="M124.344 63.4942C129.372 63.4942 133.448 62.1835 133.448 60.5667C133.448 58.9498 129.372 57.6392 124.344 57.6392C119.315 57.6392 115.239 58.9498 115.239 60.5667C115.239 62.1835 119.315 63.4942 124.344 63.4942Z" fill="#FFF2BF"/>
<g opacity="0.3">
<path d="M128.638 24.7491V48.3414C130.528 48.1691 132.417 47.6525 133.62 47.3081V23.7158C132.245 24.0602 130.528 24.4047 128.638 24.7491Z" fill="#8C4013"/>
</g>
<path d="M117.472 65.2172C117.947 65.2172 118.331 61.8248 118.331 57.6401C118.331 53.4554 117.947 50.063 117.472 50.063C116.998 50.063 116.614 53.4554 116.614 57.6401C116.614 61.8248 116.998 65.2172 117.472 65.2172Z" fill="white"/>
<path d="M99.2639 169.397C100.023 169.397 100.638 150.278 100.638 126.692C100.638 103.106 100.023 83.9863 99.2639 83.9863C98.5049 83.9863 97.8896 103.106 97.8896 126.692C97.8896 150.278 98.5049 169.397 99.2639 169.397Z" fill="white"/>
<path d="M142.38 172.669C145.701 172.669 148.393 150.927 148.393 124.108C148.393 97.2891 145.701 75.5479 142.38 75.5479C139.06 75.5479 136.368 97.2891 136.368 124.108C136.368 150.927 139.06 172.669 142.38 172.669Z" fill="#FFD334"/>
<path d="M115.926 44.5534C116.496 44.5534 116.957 40.6213 116.957 35.7708C116.957 30.9204 116.496 26.9883 115.926 26.9883C115.357 26.9883 114.896 30.9204 114.896 35.7708C114.896 40.6213 115.357 44.5534 115.926 44.5534Z" fill="white"/>
<path d="M105.963 75.7207C105.276 77.615 104.074 78.9926 103.215 78.8204C102.356 78.6482 102.012 77.0983 102.699 75.2041C103.387 73.3098 104.589 71.9322 105.448 72.1044C106.307 72.4488 106.65 73.9986 105.963 75.7207Z" fill="white"/>
<path d="M113.006 72.2758C111.975 72.9646 110.773 73.3091 110.429 72.9646C109.914 72.6202 110.429 71.587 111.46 70.8982C112.491 70.2093 113.693 69.8649 114.037 70.2093C114.38 70.5537 114.037 71.587 113.006 72.2758Z" fill="white"/>
<path d="M104.245 173.53C102.699 173.186 101.669 172.325 101.669 171.98C101.669 171.463 102.871 171.463 104.417 171.808C105.963 172.152 106.994 173.013 106.994 173.358C106.994 173.702 105.791 173.874 104.245 173.53Z" fill="white"/>
<path d="M146.331 159.238C146.331 162.682 143.411 165.609 139.975 165.609H108.712C105.276 165.609 102.356 162.682 102.356 159.238V103.617C102.356 100.173 105.276 97.2456 108.712 97.2456H139.975C143.411 97.2456 146.331 100.173 146.331 103.617V159.238Z" fill="#541E0A"/>
<path d="M124.344 110.849C131.838 110.849 137.914 104.759 137.914 97.2454C137.914 89.7322 131.838 83.6416 124.344 83.6416C116.849 83.6416 110.773 89.7322 110.773 97.2454C110.773 104.759 116.849 110.849 124.344 110.849Z" fill="#541E0A"/>
<path d="M124.172 171.808C119.362 171.808 106.994 175.252 101.497 176.974C102.528 177.663 103.73 178.179 105.104 178.179H143.583C144.957 178.179 146.16 177.835 147.19 176.974C141.693 175.252 128.982 171.808 124.172 171.808Z" fill="#FFAA00"/>
<path d="M108.712 164.576C105.791 164.576 103.386 162.165 103.386 159.238V103.617C103.386 100.69 105.791 98.2788 108.712 98.2788H139.975C142.896 98.2788 145.301 100.69 145.301 103.617V159.238C145.301 162.165 142.896 164.576 139.975 164.576H108.712Z" fill="#FFD334"/>
<path d="M108.712 161.648C107.337 161.648 106.307 160.615 106.307 159.237V103.616C106.307 102.239 107.337 101.206 108.712 101.206H139.975C141.35 101.206 142.38 102.239 142.38 103.616V159.237C142.38 160.615 141.35 161.648 139.975 161.648H108.712Z" fill="#B7432F"/>
<path d="M124.344 109.817C131.269 109.817 136.883 104.189 136.883 97.2459C136.883 90.3031 131.269 84.6748 124.344 84.6748C117.418 84.6748 111.804 90.3031 111.804 97.2459C111.804 104.189 117.418 109.817 124.344 109.817Z" fill="#FFD334"/>
<path d="M124.344 106.545C129.467 106.545 133.62 102.382 133.62 97.2459C133.62 92.1101 129.467 87.9468 124.344 87.9468C119.221 87.9468 115.068 92.1101 115.068 97.2459C115.068 102.382 119.221 106.545 124.344 106.545Z" fill="#E63800"/>
<path d="M137.742 117.737H110.945V155.105H137.742V117.737Z" fill="#FFD334"/>
<path d="M135.681 120.665H112.834V152.522H135.681V120.665Z" fill="#E63800"/>
<path d="M88.6135 130.48C88.6135 127.725 80.0245 123.592 69.546 123.592C59.0675 123.592 50.4785 127.725 50.4785 130.48C50.4785 135.99 54.9448 173.874 54.9448 175.768C54.9448 178.696 61.4724 182.829 69.3742 182.829C77.4478 182.829 83.8037 178.696 83.8037 175.768C84.1472 173.874 88.6135 136.162 88.6135 130.48Z" fill="#D1DCE3"/>
<path d="M53.0552 155.965C54.0859 165.78 55.1165 174.907 55.1165 175.94C55.1165 178.867 61.6441 183 69.546 183C77.6196 183 83.9754 178.867 83.9754 175.94C83.9754 175.079 85.0061 165.952 86.0368 155.965H53.0552Z" fill="#FFE45E"/>
<path d="M69.7177 160.96C60.6135 160.96 53.0552 158.549 53.0552 155.621C53.0552 152.694 60.6135 150.283 69.7177 150.283C78.822 150.283 86.3803 152.694 86.3803 155.621C86.2085 158.549 78.6503 160.96 69.7177 160.96Z" fill="#FFF2BF"/>
<path d="M58.5521 176.113C58.5521 177.49 63.5337 179.557 69.7178 179.557C75.9018 179.557 80.8834 177.663 80.8834 176.113C80.8834 174.735 75.9018 173.357 69.7178 173.357C63.5337 173.357 58.5521 174.735 58.5521 176.113Z" fill="#FFAA00"/>
<path opacity="0.4" d="M72.8098 123.764C70.0613 125.486 66.7975 126.519 63.1901 126.519C61.1288 126.519 59.2392 126.175 57.5214 125.658C53.3987 127.036 50.6503 129.102 50.6503 130.652C50.6503 134.268 52.5398 152.005 53.9141 164.059C56.1472 169.742 59.0674 173.358 63.1901 173.358C74.3558 173.358 77.4478 144.773 78.3067 124.453C76.5889 124.109 74.6994 123.936 72.8098 123.764Z" fill="white"/>
<path opacity="0.3" d="M82.6012 178.523C83.6319 159.753 85.6932 140.295 86.8957 128.069C85.6932 127.208 84.1472 126.347 82.0859 125.658C81.9141 125.658 81.7423 125.658 81.7423 125.83C80.3681 137.54 77.9632 161.475 77.6196 181.623C79.681 180.762 81.3988 179.728 82.6012 178.523Z" fill="#AAB3B8"/>
<path opacity="0.4" d="M57.865 179.557C59.2392 180.418 60.957 181.279 62.8466 181.968C61.9877 161.993 59.0675 138.229 57.3497 126.175C57.0061 126.003 56.8343 126.003 56.4908 126.003C54.6012 126.692 53.227 127.553 52.1963 128.414C53.9141 140.64 56.319 160.615 57.865 179.557Z" fill="white"/>
<path d="M69.7177 137.541C80.2484 137.541 88.7852 134.38 88.7852 130.48C88.7852 126.581 80.2484 123.42 69.7177 123.42C59.1871 123.42 50.6503 126.581 50.6503 130.48C50.6503 134.38 59.1871 137.541 69.7177 137.541Z" fill="#829AA8"/>
<path opacity="0.5" d="M85.8845 131.1C86.0118 127.773 78.8139 124.796 69.8075 124.45C60.801 124.103 53.3966 126.519 53.2693 129.845C53.1419 133.172 60.3399 136.149 69.3463 136.496C78.3527 136.842 85.7571 134.426 85.8845 131.1Z" fill="#D1DCE3"/>
<path d="M69.7178 135.13C61.816 135.13 55.1166 132.891 55.1166 130.308C55.1166 127.725 61.816 125.486 69.7178 125.486C77.6196 125.486 84.319 127.725 84.319 130.308C84.1473 132.891 77.6196 135.13 69.7178 135.13Z" fill="#DFEAF2"/>
<path d="M54.0859 133.408C53.9142 133.924 55.8037 134.785 58.0368 135.474C60.4417 136.163 62.3313 136.507 62.5031 135.991C62.6749 135.474 60.6135 135.474 58.2086 134.613C55.9755 134.097 54.2577 133.063 54.0859 133.408Z" fill="white"/>
<path d="M77.1043 124.797C77.1043 124.452 75.3865 124.108 72.9816 123.936C70.7485 123.764 68.8589 123.936 68.8589 124.28C68.8589 124.625 70.7485 124.452 72.9816 124.625C75.2147 124.625 77.1043 125.141 77.1043 124.797Z" fill="white"/>
<path d="M57.0061 152.866C55.9754 143.739 54.6012 136.507 54.0859 136.679C53.5705 136.679 53.9141 144.084 54.9448 153.21C55.9755 162.165 57.3497 169.569 57.865 169.397C58.3804 169.225 58.0368 161.82 57.0061 152.866Z" fill="white"/>
<path d="M59.5799 178.292C59.846 177.898 59.4252 177.147 58.64 176.613C57.8547 176.08 57.0024 175.966 56.7362 176.36C56.47 176.753 56.8908 177.505 57.6761 178.038C58.4614 178.572 59.3137 178.686 59.5799 178.292Z" fill="white"/>
<path d="M83.1165 174.735C83.1165 177.663 76.5889 181.796 68.6871 181.796C63.3619 181.796 58.7239 179.901 56.1472 177.835C58.2086 180.418 63.5337 182.829 69.7178 182.829C77.7914 182.829 84.1472 178.696 84.1472 175.768C84.1472 174.046 83.1165 173.185 83.1165 174.735Z" fill="#829AA8"/>
<path d="M86.8957 98.7954C85.0061 100.345 83.1166 101.723 81.3988 102.928C75.7301 106.717 68.5153 108.439 62.1595 110.161C55.4601 111.883 48.7607 112.744 41.7178 112.916C41.2025 112.916 40.5153 112.916 40 112.916C41.7178 122.042 48.4172 129.791 57.865 132.374C70.9202 135.818 84.4908 128.069 87.9264 114.81C89.4724 109.3 88.957 103.617 86.8957 98.7954Z" fill="#4A7006"/>
<path d="M81.3987 102.756C75.73 106.544 68.5153 108.266 62.1595 109.988C55.6319 111.538 49.276 112.571 42.5767 112.743C44.1227 120.837 50.1349 127.725 58.7239 129.963C70.5767 133.063 82.773 126.003 85.865 114.121C87.0675 109.299 86.7239 104.478 85.0061 100.173C83.6319 101.206 82.4294 102.067 81.3987 102.756Z" fill="#FFF2BF"/>
<path d="M44.6381 112.743C45.3252 115.671 46.5276 118.426 48.4172 120.837C51.8528 117.393 55.2884 113.949 58.724 110.849C54.2577 111.71 49.4479 112.399 44.6381 112.743Z" fill="#CBE600"/>
<path d="M61.8159 110.333C58.2086 114.638 54.4294 118.771 50.4785 122.904C52.5399 124.798 54.9448 126.348 57.6932 127.381C58.3804 124.798 59.0675 122.215 59.5828 119.804C60.2699 116.532 60.9571 113.433 61.8159 110.333Z" fill="#CBE600"/>
<path d="M74.8712 106.2C71.6074 107.577 68.1718 108.438 64.7362 109.299C64.7362 109.472 64.7362 109.472 64.7362 109.644C69.7178 113.432 74.6994 117.221 79.5092 121.354C81.3988 119.115 82.773 116.532 83.4601 113.604C84.319 110.333 84.319 107.061 83.6319 103.961C80.7117 104.65 77.7914 105.511 74.8712 106.2Z" fill="#CBE600"/>
<path d="M64.3926 110.677C63.7055 113.776 62.8466 116.876 62.1594 119.976C61.4723 122.559 60.957 125.314 60.4417 128.07C66.7975 129.275 73.1533 127.209 77.6196 123.076C73.3251 119.115 68.8588 114.982 64.3926 110.677Z" fill="#CBE600"/>
</svg>
