<svg width="200" height="200" viewBox="0 0 200 200" fill="none" xmlns="http://www.w3.org/2000/svg">
<path d="M65.2996 72.826C64.3718 72.826 63.6295 72.0807 63.6295 71.1492V61.2749C63.6295 60.3434 64.3718 59.5981 65.2996 59.5981C66.2274 59.5981 66.9696 60.3434 66.9696 61.2749V71.1492C66.9696 72.0807 66.2088 72.826 65.2996 72.826Z" fill="url(#paint0_linear_7002_11809)"/>
<path d="M104.768 71.2239L19.9302 50.5811C17.8705 50.0781 16.6087 48.0101 17.1097 45.942C17.6107 43.874 19.6705 42.6072 21.7302 43.1102L106.587 63.753C108.646 64.2561 109.908 66.3241 109.407 68.3921C108.888 70.4601 106.828 71.727 104.768 71.2239Z" fill="url(#paint1_linear_7002_11809)"/>
<path d="M59.0091 77.4283C59.0091 79.2763 59.7403 81.0486 61.0417 82.3554C62.3432 83.6621 64.1084 84.3962 65.949 84.3962C67.7896 84.3962 69.5548 83.6621 70.8563 82.3554C72.1578 81.0486 72.889 79.2763 72.889 77.4283C72.889 75.5803 72.1578 73.808 70.8563 72.5013C69.5548 71.1946 67.7896 70.4604 65.949 70.4604C64.1084 70.4604 62.3432 71.1946 61.0417 72.5013C59.7403 73.808 59.0091 75.5803 59.0091 77.4283Z" fill="url(#paint2_linear_7002_11809)"/>
<path d="M25.6826 115.565C25.6826 138.443 44.1457 157 66.9325 157C89.7192 157 108.182 138.462 108.182 115.584C108.182 92.7051 89.7192 74.1675 66.9325 74.1675C44.1457 74.1489 25.6826 92.6864 25.6826 115.565Z" fill="url(#paint3_radial_7002_11809)"/>
<path d="M50.7888 131.886C50.7888 137.68 53.8691 143.027 58.8607 145.915C63.8522 148.802 70.0128 148.802 75.0043 145.915C79.9959 143.027 83.0762 137.661 83.0762 131.886C83.0762 126.11 79.9959 120.745 75.0043 117.857C70.0128 114.969 63.8522 114.969 58.8607 117.857C53.8691 120.745 50.7888 126.092 50.7888 131.886Z" fill="url(#paint4_linear_7002_11809)"/>
<path d="M57.5246 131.886C57.5246 135.258 59.3245 138.388 62.2378 140.064C65.1511 141.76 68.7324 141.76 71.6457 140.064C74.559 138.369 76.3589 135.258 76.3589 131.886C76.3589 128.513 74.559 125.383 71.6457 123.688C68.7324 121.993 65.1511 121.993 62.2378 123.688C59.306 125.383 57.5246 128.495 57.5246 131.886Z" fill="url(#paint5_radial_7002_11809)"/>
<g opacity="0.6" style="mix-blend-mode:soft-light">
<path d="M39.8964 122.887C38.5047 123.614 36.5378 122.626 35.8698 120.577C33.1049 112.212 34.274 103.008 39.0614 95.6302C40.2304 93.8231 42.3644 93.3387 43.5334 94.4006C44.7024 95.4626 44.7581 97.3629 43.8488 98.7602C40.0078 104.685 39.08 112.063 41.2881 118.77C41.8262 120.335 41.3067 122.16 39.8964 122.887Z" fill="white"/>
</g>
<path d="M96.0468 91.2333C96.0468 115.341 115.512 134.885 139.523 134.885C163.535 134.885 183 115.341 183 91.2333C183 67.1252 163.535 47.5815 139.523 47.5815C115.512 47.5815 96.0468 67.1252 96.0468 91.2333Z" fill="url(#paint6_radial_7002_11809)"/>
<path d="M145.684 82.1787C149.989 86.501 155.537 88.8858 160.288 88.4386C165.019 87.9915 168.211 84.8056 168.638 80.0548C169.064 75.304 166.689 69.7147 162.403 65.3924C158.098 61.0701 152.55 58.6854 147.799 59.1325C143.068 59.5796 139.876 62.7655 139.449 67.5163C139.004 72.2672 141.398 77.8564 145.684 82.1787Z" fill="url(#paint7_linear_7002_11809)"/>
<path d="M149.024 78.8253C152.902 82.7192 158.283 83.6134 161.048 80.8375C163.813 78.0615 162.922 72.6586 159.044 68.7648C155.166 64.8709 149.785 63.9767 147.02 66.7526C144.255 69.5286 145.164 74.9315 149.024 78.8253Z" fill="url(#paint8_radial_7002_11809)"/>
<g opacity="0.6" style="mix-blend-mode:soft-light">
<path d="M139.913 123.875C140.099 125.44 138.466 126.911 136.313 126.818C127.536 126.427 119.409 122.049 114.232 114.932C112.97 113.199 113.285 111.019 114.696 110.293C116.106 109.566 117.887 110.2 118.852 111.541C123.009 117.261 129.522 120.763 136.573 121.08C138.224 121.173 139.728 122.291 139.913 123.875Z" fill="white"/>
</g>
<defs>
<linearGradient id="paint0_linear_7002_11809" x1="65.2996" y1="59.5981" x2="65.2996" y2="72.826" gradientUnits="userSpaceOnUse">
<stop stop-color="#4A2700"/>
<stop offset="1" stop-color="#6D3C05"/>
</linearGradient>
<linearGradient id="paint1_linear_7002_11809" x1="66" y1="60.5" x2="66.9835" y2="52.9978" gradientUnits="userSpaceOnUse">
<stop stop-color="#4A2700"/>
<stop offset="1" stop-color="#723E05"/>
</linearGradient>
<linearGradient id="paint2_linear_7002_11809" x1="65.949" y1="70.4604" x2="65.7956" y2="79.0045" gradientUnits="userSpaceOnUse">
<stop stop-color="#B46831"/>
<stop offset="1" stop-color="#4E2D15"/>
</linearGradient>
<radialGradient id="paint3_radial_7002_11809" cx="0" cy="0" r="1" gradientTransform="matrix(34.6774 75.3575 -132.804 61.6059 51.0708 78.0501)" gradientUnits="userSpaceOnUse">
<stop stop-color="#AD5D1D"/>
<stop offset="0.285" stop-color="#BD7135"/>
<stop offset="0.763706" stop-color="#69370E"/>
<stop offset="1" stop-color="#87450F"/>
</radialGradient>
<linearGradient id="paint4_linear_7002_11809" x1="66.9325" y1="115.691" x2="66.9325" y2="148.08" gradientUnits="userSpaceOnUse">
<stop stop-color="#C6783A"/>
<stop offset="1" stop-color="#A45925"/>
</linearGradient>
<radialGradient id="paint5_radial_7002_11809" cx="0" cy="0" r="1" gradientUnits="userSpaceOnUse" gradientTransform="translate(66.9417 131.876) rotate(90) scale(9.45974 9.41715)">
<stop stop-color="#B46831"/>
<stop offset="1" stop-color="#955323"/>
</radialGradient>
<radialGradient id="paint6_radial_7002_11809" cx="0" cy="0" r="1" gradientTransform="matrix(42.2666 71.2122 -131.426 78.6352 126.601 51.3412)" gradientUnits="userSpaceOnUse">
<stop stop-color="#B56526"/>
<stop offset="0.285" stop-color="#C17B42"/>
<stop offset="0.763706" stop-color="#794216"/>
<stop offset="1" stop-color="#8F4C16"/>
</radialGradient>
<linearGradient id="paint7_linear_7002_11809" x1="154.042" y1="59.0791" x2="154.042" y2="88.492" gradientUnits="userSpaceOnUse">
<stop stop-color="#EB9855"/>
<stop offset="1" stop-color="#AF622D"/>
</linearGradient>
<radialGradient id="paint8_radial_7002_11809" cx="0" cy="0" r="1" gradientUnits="userSpaceOnUse" gradientTransform="translate(154.037 73.7951) rotate(90) scale(8.65541 8.61808)">
<stop stop-color="#C2743B"/>
<stop offset="1" stop-color="#B5662C"/>
</radialGradient>
</defs>
</svg>
