<svg width="200" height="200" viewBox="0 0 200 200" fill="none" xmlns="http://www.w3.org/2000/svg">
<path d="M66.4499 84.4298C66.2908 84.5894 65.9728 84.7491 65.8138 84.9088C59.1356 90.0191 54.8425 96.0875 53.0935 99.4411C50.3904 104.711 49.1184 110.141 49.1184 115.251C49.1184 127.867 56.5916 139.525 69.6299 148.148C82.6682 156.772 101.431 162.201 124.009 162.201C124.804 162.201 125.758 162.201 126.712 162.201C140.387 161.882 151.517 158.848 159.944 154.217C150.086 159.327 136.888 161.563 123.373 161.563C104.293 161.563 84.7353 157.091 72.81 149.426C67.5629 146.072 43.5532 131.54 50.8674 106.627C53.8885 96.2472 60.2487 89.2206 66.6088 84.5895L66.4499 84.4298ZM118.285 127.707C110.494 127.707 101.749 125.312 93.4805 120.681C76.9441 111.099 69.6298 95.6084 77.103 85.867C80.7601 80.9165 87.5973 78.521 95.5475 78.521C103.339 78.521 112.084 80.9165 120.352 85.5476C136.888 95.1293 144.203 110.62 136.729 120.361C132.913 125.312 126.235 127.707 118.285 127.707ZM92.3674 75.4868C83.3042 75.4868 75.513 78.521 69.3119 82.5134L69.4709 82.8328C77.5801 77.8822 85.0532 76.445 85.0532 76.445C85.0532 76.445 65.6548 84.2701 68.1989 107.905C69.7889 122.597 83.9402 141.122 122.26 143.038C124.168 143.198 126.076 143.198 127.825 143.198C165.35 143.198 175.526 123.076 165.032 110.62C165.032 110.62 169.802 111.259 174.89 112.536C179.978 113.654 188.883 126.909 169.643 147.35C168.689 148.308 167.576 149.266 166.463 150.224C167.258 149.585 167.894 149.106 168.689 148.468C177.752 140.802 182.045 131.38 182.045 123.875C182.045 120.521 181.091 117.487 179.501 115.411C177.752 113.175 175.367 111.897 172.028 111.578C161.216 110.46 152.948 106.627 144.839 101.357C136.729 96.0875 128.779 89.6997 118.444 83.6313C108.904 77.7225 100.159 75.4868 92.3674 75.4868Z" fill="url(#paint0_radial_7002_12860)"/>
<path d="M52.7758 99.2815L53.0938 99.4412C54.6838 96.0876 59.136 90.0192 65.8141 84.9089C72.4923 79.7987 81.3965 75.3272 92.3677 75.3272C100.159 75.3272 108.904 77.5629 118.603 83.312C128.939 89.3804 136.889 95.9279 144.998 101.038C153.107 106.308 161.375 110.3 172.188 111.259C175.527 111.578 177.912 113.015 179.661 115.091C181.41 117.327 182.205 120.202 182.205 123.555C182.205 130.901 177.912 140.483 168.848 148.148C159.785 155.814 145.952 161.722 126.872 162.042C125.918 162.042 125.123 162.042 124.168 162.042C101.59 162.042 82.8275 156.612 69.7892 147.989C56.7509 139.365 49.2777 127.707 49.2777 115.091C49.2777 109.981 50.5497 104.551 53.2528 99.2815H52.7758L52.4578 99.1218C49.7547 104.551 48.4827 109.981 48.4827 115.251C48.4827 128.027 56.1149 140.004 69.3122 148.787C82.5095 157.411 101.431 163 124.168 163C125.123 163 125.918 163 126.872 163C146.27 162.681 160.262 156.612 169.485 148.787C178.707 140.962 183 131.38 183 123.715C183 120.202 182.046 117.167 180.297 114.932C178.548 112.696 175.845 111.099 172.347 110.78C161.693 109.662 153.584 105.829 145.475 100.719C137.366 95.6085 129.416 89.061 119.08 82.9926C109.381 77.2435 100.318 75.0078 92.3677 75.0078C81.2375 75.0078 72.1743 79.4793 65.3371 84.7492C58.659 90.0192 54.2068 96.0876 52.4578 99.4412L52.7758 99.2815Z" fill="url(#paint1_linear_7002_12860)"/>
<path d="M85.0532 76.4453C85.0532 76.4453 77.5801 77.8826 69.4709 82.8331C70.2659 84.1107 71.0609 85.5479 71.8559 86.9852V87.1449L71.697 87.3046C71.697 87.3046 71.0609 87.9434 69.7889 87.9434C69.3119 87.9434 68.8349 87.7837 68.1989 87.624C68.1989 87.624 67.5629 86.6658 66.4499 85.0689C60.0897 89.7 53.7295 96.5669 50.7084 107.107C43.3943 132.019 67.4038 146.552 72.6509 149.905C84.5762 157.571 104.134 162.042 123.214 162.042C136.729 162.042 149.927 159.806 159.785 154.696C162.17 153.418 164.396 151.981 166.463 150.384C167.576 149.426 168.689 148.468 169.643 147.51C188.724 127.069 179.978 113.814 174.89 112.696C169.802 111.578 165.032 110.78 165.032 110.78C175.367 123.396 165.191 143.358 127.825 143.358C126.076 143.358 124.168 143.358 122.26 143.198C83.7812 141.282 69.7889 122.757 68.1989 108.065C65.4958 84.2704 85.0532 76.4453 85.0532 76.4453Z" fill="url(#paint2_radial_7002_12860)"/>
<path d="M166.622 150.064C164.555 151.661 162.329 153.099 159.944 154.376C162.488 153.099 164.714 151.661 166.622 150.064Z" fill="#F4830F"/>
<path d="M120.034 95.1293C118.921 95.1293 117.808 94.6502 117.013 93.6921C116.059 92.7339 116.059 91.4563 116.695 90.6578C117.172 90.1788 117.967 89.8594 118.762 89.8594C119.239 89.8594 119.557 89.8594 120.034 90.0191C121.942 90.6578 123.373 92.7339 121.942 94.1711C121.624 94.9696 120.829 95.1293 120.034 95.1293ZM110.812 91.4563C108.109 91.4563 104.611 90.4982 101.908 88.9012C98.5686 86.8252 97.1376 84.27 97.9326 82.6731C98.5686 81.5552 100.318 80.7567 102.703 80.7567C103.657 80.7567 104.77 80.9164 105.883 81.0761C111.607 82.3537 117.013 86.3461 115.423 89.3803C114.628 90.8175 112.879 91.4563 110.812 91.4563ZM95.5475 78.521C87.5974 78.521 80.7601 80.9164 77.1031 85.867C69.6299 95.6084 77.1031 111.099 93.4805 120.681C101.59 125.312 110.494 127.707 118.285 127.707C126.235 127.707 133.072 125.312 136.729 120.361C144.203 110.62 136.729 95.1293 120.352 85.5476C112.084 80.9164 103.339 78.521 95.5475 78.521Z" fill="url(#paint3_radial_7002_12860)"/>
<path d="M61.3616 75.1679C64.0646 80.5975 66.7677 84.5899 68.0397 86.3465C68.3577 86.8256 68.6757 87.145 68.6757 87.3047C69.1527 87.4644 69.6298 87.6241 70.1068 87.6241C70.9018 87.6241 71.3787 87.3047 71.5377 87.145C70.9017 86.0271 70.1067 84.9093 69.4707 83.7914C70.1067 85.2287 70.9018 86.8256 71.2198 87.145C71.2198 87.145 70.5837 87.4644 69.9477 87.4644C69.6297 87.4644 69.1527 87.3047 68.6757 87.145C68.8347 86.9853 65.1777 81.8751 61.3616 75.1679ZM54.0473 38.7573C53.7293 40.3543 53.5704 41.9512 53.4114 43.5482C53.5704 41.9512 53.7293 40.514 54.0473 39.0767C54.0473 39.0767 55.7964 40.8334 61.2025 40.8334C61.6795 40.8334 62.1566 40.8334 62.6336 40.8334C62.6336 40.8334 62.4745 41.6318 60.7255 41.6318C60.4075 41.6318 60.0895 41.6318 59.7715 41.6318C59.6125 41.6318 59.2945 41.6318 59.1355 41.6318C53.4113 41.6318 56.4324 52.012 57.0684 56.9626C57.7045 61.7535 64.0646 81.7154 68.0397 81.7154H68.3577C61.8385 69.7382 59.9305 60.4759 59.9305 53.9284C59.9305 46.7421 62.1565 42.59 63.1106 40.9931H62.9516C62.3156 41.1528 61.6796 41.3125 60.8846 41.3125C60.0896 41.3125 59.2945 41.3124 58.4995 41.1528C56.4325 40.1946 54.8424 39.7155 54.0473 38.7573Z" fill="url(#paint4_radial_7002_12860)"/>
<path d="M63.7468 39.7141C63.5878 39.7141 59.7717 44.0259 59.7717 53.4479C59.7717 61.1133 62.3157 72.292 71.5379 87.1436H71.697L71.5379 86.9839C71.3789 87.1436 70.9019 87.463 69.9479 87.463C69.4708 87.463 68.9939 87.3033 68.5169 87.1436C68.5169 87.1436 68.1988 86.8242 67.8808 86.1855C65.0188 82.0334 53.2525 63.9878 53.2525 45.9422C53.2525 43.5468 53.4115 40.9917 53.8885 38.5962H53.7296V38.7559L63.5877 40.0335L63.7468 39.7141V39.5544L53.7296 38.2769V38.4366C53.2525 40.832 53.0935 43.3871 53.0935 45.7825C53.0935 66.5429 68.5169 87.1436 68.5169 87.1436C69.1529 87.463 69.6299 87.463 70.1069 87.463C71.2199 87.463 71.856 86.9839 72.015 86.8242L72.1739 86.6645V86.5048C62.9517 71.6532 60.4076 60.6342 60.4076 52.9688C60.4076 48.3377 61.3617 44.9841 62.3157 42.7483C62.7927 41.6305 63.2697 40.832 63.5877 40.1932C63.7467 39.8738 63.9058 39.7141 64.0648 39.5544H63.7468V39.7141Z" fill="#972D03"/>
<path d="M57.0688 37.3198H56.7508C56.2738 37.4795 55.9558 37.6392 55.7968 37.7989C55.6378 38.4377 56.9098 39.2362 58.8178 39.5556C59.4539 39.7153 59.9309 39.7153 60.5669 39.7153C61.68 39.7153 62.6339 39.5556 62.7929 39.0765C62.7929 38.9168 62.793 38.7571 62.634 38.4377C61.839 38.1183 60.7259 37.6392 59.6129 37.4795C58.4998 37.3198 57.7049 37.3198 57.0688 37.3198Z" fill="url(#paint5_radial_7002_12860)"/>
<path d="M54.0475 38.1179H53.8885V38.2776C53.8885 38.597 54.0476 38.7566 54.2066 39.076C54.8426 39.7148 56.4326 40.3536 58.3406 40.673C59.1357 40.8327 60.0897 40.8327 60.7257 40.8327C61.5207 40.8327 62.3157 40.673 62.7927 40.5133C63.4287 40.3536 63.7468 40.0342 63.9058 39.7148V39.5551C63.9058 39.2357 63.7467 39.076 63.5877 38.7566C62.9517 38.1179 61.3617 37.4791 59.4537 37.1597C58.6587 37 57.7046 37 57.0686 37C56.2736 37 55.4786 37.1597 55.0016 37.3194C54.3656 37.4791 54.0476 37.7985 53.8885 38.1179H54.0475H54.2066C54.2066 37.9582 54.5245 37.6388 55.1606 37.4791C55.6376 37.3194 56.4326 37.3194 57.2276 37.3194C58.0226 37.3194 58.8176 37.3194 59.6126 37.4791C60.8847 37.6388 61.9977 37.9582 62.6338 38.4373C62.9518 38.597 63.2698 38.7566 63.4288 39.076C63.5878 39.2357 63.7468 39.3954 63.7468 39.5551V39.7148C63.7468 39.8745 63.4287 40.1939 62.7927 40.3536C62.3157 40.5133 61.5207 40.5133 60.7257 40.5133C59.9307 40.5133 59.1357 40.5133 58.3406 40.3536C57.0686 40.1939 55.9556 39.8745 55.3196 39.3954C55.0016 39.2357 54.6836 39.076 54.5246 38.7566C54.3656 38.597 54.2066 38.4373 54.2066 38.2776V38.1179H54.0475Z" fill="#972D03"/>
<path d="M56.5918 37.3198C55.9557 37.3198 55.3197 37.4795 55.0017 37.4795C54.5247 37.6392 54.2066 37.7989 54.0476 38.1183V38.278C54.0476 38.4377 54.2067 38.5974 54.3657 38.7571C54.5247 38.9168 54.8427 39.0765 55.1607 39.3959C55.9557 39.7153 57.0688 40.1943 58.1818 40.354C58.9768 40.5137 59.7718 40.5137 60.5668 40.5137C61.3619 40.5137 61.9979 40.354 62.6339 40.354C63.1109 40.1943 63.4289 40.0346 63.5879 39.7153V39.5556C63.5879 39.3959 63.4289 39.2362 63.2699 39.0765C63.1109 38.9168 62.7929 38.7571 62.4749 38.4377C62.6339 38.5974 62.7929 38.9168 62.6339 39.0765C62.4749 39.5556 61.6798 39.7153 60.4078 39.7153C59.9308 39.7153 59.2948 39.7153 58.6588 39.5556C56.7507 39.2362 55.3197 38.4377 55.6377 37.7989C55.7967 37.6392 56.1147 37.3198 56.5918 37.3198Z" fill="url(#paint6_radial_7002_12860)"/>
<path d="M57.0686 37.1597C55.4786 37.1597 54.2065 37.4791 54.0475 38.1179C53.7295 38.9163 55.6376 40.0342 58.3406 40.5133C59.1357 40.673 59.9307 40.673 60.7257 40.673C62.3157 40.673 63.5878 40.3536 63.7468 39.7148C63.9058 39.076 63.1107 38.4373 61.5207 37.7985C61.9977 37.9582 62.3158 38.1179 62.4748 38.2776C62.7928 38.4373 63.1108 38.597 63.2698 38.9163C63.4288 39.076 63.5877 39.2357 63.5877 39.3954V39.5551C63.5877 39.7148 63.2698 40.0342 62.6338 40.1939C62.1567 40.3536 61.3617 40.3536 60.5667 40.3536C59.7717 40.3536 58.9767 40.3536 58.1817 40.1939C56.9096 40.0342 55.7966 39.7148 55.1606 39.2357C54.8426 39.076 54.5245 38.9163 54.3655 38.597C54.2065 38.4373 54.0475 38.2776 54.0475 38.1179V37.9582C54.0475 37.7985 54.3656 37.4791 55.0016 37.3194C55.4786 37.1597 55.9556 37.1597 56.5916 37.1597C56.9096 37.1597 57.3866 37 57.8636 37H58.1817C57.8637 37.1597 57.3866 37.1597 57.0686 37.1597Z" fill="#8F2202"/>
<path d="M54.0473 39.2363C53.7293 40.6736 53.5704 42.1108 53.4114 43.7078C53.4114 44.5063 53.4114 45.1451 53.4114 45.9435C53.4114 53.7686 55.6374 61.434 58.3405 68.1412C58.9765 67.9815 59.4535 67.9815 59.4535 67.9815H59.6125V68.1412C59.6125 68.1412 59.9305 69.7381 60.2485 72.453C60.7255 73.4111 61.2026 74.3693 61.6796 75.1678C65.4957 81.875 69.1527 87.1449 69.1527 87.1449C69.6297 87.4643 69.9478 87.4643 70.4248 87.4643C71.2198 87.4643 71.6968 87.1449 71.6968 87.1449C71.2198 86.6658 70.5837 85.2286 69.9477 83.7913C69.4707 82.9929 68.9937 82.1944 68.6757 81.3959H68.3577C64.3826 81.3959 58.0225 61.5937 57.3865 56.6431C56.7505 51.6926 53.8884 41.3124 59.4535 41.3124C59.6125 41.3124 59.9305 41.3124 60.0896 41.3124C60.4076 41.3124 60.8845 41.3124 61.0435 41.3124C62.7926 41.3124 62.9516 40.5139 62.9516 40.5139C62.4746 40.5139 61.9975 40.5139 61.5205 40.5139C55.7964 40.8333 54.0473 39.2363 54.0473 39.2363Z" fill="url(#paint7_radial_7002_12860)"/>
<path d="M53.0935 49.6162C53.0935 51.5326 53.2525 53.2892 53.4115 54.5668C53.8885 58.5591 55.6376 63.35 57.7047 67.8215C55.4786 62.3918 53.7295 56.1637 53.0935 49.6162Z" fill="#F4E03B"/>
<path d="M68.5169 81.2369L68.1989 81.3966C68.6759 82.1951 68.9939 82.9935 69.4709 83.792C68.9939 82.3548 68.5169 81.2369 68.5169 81.2369ZM60.0897 72.294V72.6134C60.5667 73.4118 61.0437 74.2103 61.3617 75.0088C60.8847 74.2103 60.5667 73.2521 60.0897 72.294ZM53.4115 43.7085C53.2525 45.7845 53.0935 47.8606 53.0935 49.7769C53.5705 56.1647 55.4786 62.3928 57.7047 67.9822L57.8636 68.3016H58.1816C55.4786 61.5944 53.2525 53.929 53.2525 46.1039C53.4115 45.1458 53.4115 44.507 53.4115 43.7085Z" fill="#8F2202"/>
<path d="M41.0092 110.461C39.7372 111.578 38.4651 112.537 36.7161 113.654C34.8081 114.772 33.059 115.73 31.469 116.529L31.3099 116.848C34.808 115.092 37.9881 113.335 40.6912 111.419C40.8502 110.94 41.0092 110.62 41.0092 110.461ZM19.5437 101.677C19.0667 102.156 18.5897 102.635 18.1126 103.115C17.9536 103.913 17.7946 104.711 17.7946 105.35C17.7946 106.947 17.7946 107.905 17.7946 107.905C17.6356 107.107 17.6356 106.308 17.7946 105.35C17.7946 104.711 17.7947 104.073 17.9537 103.434C17.7947 103.594 17.6356 103.753 17.4766 103.913C17.4766 104.552 17.3176 105.35 17.3176 105.989C17.3176 114.772 22.5647 119.563 23.3597 120.202C25.9038 119.244 28.4479 118.286 30.674 117.168L30.8329 116.848C26.5398 118.924 23.5188 119.723 23.5188 119.723C23.5188 119.723 23.2008 119.403 22.8828 118.924H22.5647C22.5647 118.765 22.5647 118.605 22.5647 118.445C20.9747 116.21 17.9536 111.578 18.1126 107.267C18.2716 105.51 18.7487 103.594 19.5437 101.677ZM20.1797 94.1716C18.5896 97.5252 17.7946 100.559 17.4766 103.274C17.6356 103.115 17.7947 102.955 17.9537 102.795C18.2717 100.4 18.9076 97.3655 20.1797 94.1716ZM38.3061 83.1526C36.2391 83.1526 33.218 83.472 30.0379 84.7496C24.3138 89.7001 19.8617 96.7267 18.4307 102.476C18.9077 101.997 19.3847 101.518 20.0207 101.038C22.8828 94.491 29.4019 87.6241 37.6701 87.4644C38.9421 86.0271 40.2142 84.7496 41.4862 83.472C41.3272 83.472 41.1682 83.472 40.8502 83.472C40.0551 83.1526 39.2602 83.1526 38.3061 83.1526ZM49.7544 80.1184C51.3445 82.6735 53.2525 86.6659 53.7295 91.4568C54.5245 86.8256 53.8885 82.3541 49.7544 80.1184ZM46.2563 79.0005C44.8253 80.2781 43.2353 81.7154 41.8042 83.3123C40.5322 84.5899 39.1012 86.0271 37.8291 87.4644C38.9422 87.4644 40.0551 87.6241 41.3271 87.9435C46.0973 89.221 51.0264 100.719 41.6452 109.822C41.4862 110.141 41.3272 110.461 41.1682 110.94C44.0302 108.864 46.4153 106.628 48.4823 104.392C49.7543 102.156 51.9804 97.6849 53.2524 93.0537C53.2524 87.4644 50.7084 82.5138 49.1184 79.9587C48.6414 79.799 48.1643 79.6393 47.5283 79.4796C47.0513 79.1602 46.7333 79.0005 46.2563 79.0005ZM43.7122 78.6812C39.1011 78.6812 34.6491 80.7572 30.674 84.1108C33.536 83.1526 36.2391 82.8332 38.3061 82.8332C40.2142 82.8332 41.4862 82.9929 41.4862 82.9929C43.0762 81.396 44.5073 80.1184 45.9383 78.6812C45.1433 78.8408 44.5072 78.6812 43.7122 78.6812Z" fill="url(#paint8_radial_7002_12860)"/>
<path d="M59.2948 67.9805H59.1357C59.1357 67.9805 59.1358 68.1402 59.2948 68.4596C59.4538 69.4178 59.9308 71.8132 59.9308 75.1668C59.9308 80.9158 58.8178 89.22 53.7297 97.5241C48.6415 105.828 39.5783 114.132 23.519 119.881V120.041L23.6779 119.881C23.0419 119.402 17.6358 114.612 17.6358 105.669C17.6358 100.718 19.2258 94.6496 24.1549 87.3036C29.084 79.9576 37.9882 75.1668 45.6204 72.1326C49.4365 70.6953 52.9346 69.5774 55.4787 68.9387C56.7507 68.6193 57.7048 68.2999 58.4998 68.2999C58.9768 68.2999 59.2948 68.1402 59.2948 67.9805C59.2948 67.8208 52.9346 68.9387 45.3024 71.9729C37.6702 75.0071 28.766 79.798 23.6779 87.3036C18.7488 94.6496 16.9998 100.878 16.9998 105.828C16.9998 115.41 23.2009 120.361 23.2009 120.361H23.3599H23.519C39.5783 114.612 48.8005 106.148 53.8886 97.8435C58.9767 89.3797 60.0898 81.0755 60.0898 75.3265C60.0898 70.855 59.4538 67.9805 59.4538 67.9805V67.8208L59.2948 67.9805Z" fill="#466E1A"/>
<path d="M58.8178 68.9395C58.8178 68.9395 24.632 90.0192 22.5649 118.764H22.883C23.837 104.392 32.9002 92.0953 41.6454 83.1523C46.0975 78.6809 50.3906 75.1676 53.5707 72.7721C55.1607 71.4946 56.5918 70.6961 57.3868 70.0573C57.8638 69.7379 58.1818 69.5782 58.4998 69.4185C58.8178 69.2588 58.8178 69.0991 58.8178 69.0991V68.9395Z" fill="#466E1A"/>
<path d="M47.6877 77.7227C47.6877 77.7227 47.8468 77.8824 48.0058 78.042C49.1188 79.4793 53.4119 85.5477 53.4119 92.8937C53.4119 95.4488 52.9349 98.1637 51.5039 100.878L51.8219 101.038C53.2529 98.3234 53.73 95.6085 53.73 93.0534C53.73 84.5896 48.0058 77.7227 48.0058 77.7227H47.6877Z" fill="#466E1A"/>
<path d="M37.3523 88.103C37.3523 88.103 37.3524 88.2627 37.5114 88.4224C38.4654 89.7 42.5995 95.449 42.5995 102.795C42.5995 105.51 41.9634 108.544 40.5324 111.578L40.8504 111.738C42.4404 108.704 42.9174 105.67 42.9174 102.955C42.9174 94.4908 37.6703 88.103 37.6703 88.103H37.3523Z" fill="#466E1A"/>
<path d="M28.925 99.2813L29.0841 99.441C29.7201 100.399 32.5821 104.392 32.5821 109.661C32.5821 111.897 32.1052 114.452 30.6741 117.007L30.9921 117.167C32.4231 114.452 32.9001 112.057 32.9001 109.661C32.9001 103.433 29.2431 99.1216 29.2431 99.1216L28.925 99.2813Z" fill="#466E1A"/>
<path d="M32.105 94.4907C32.105 94.4907 23.8368 96.0877 17.3176 103.593L17.6357 103.753C20.8157 100.08 24.4728 97.8443 27.3348 96.4071C28.7659 95.7683 30.0379 95.2892 30.8329 95.1295C31.31 94.9698 31.6279 94.9698 31.7869 94.8101C31.9459 94.8101 32.105 94.8101 32.105 94.8101V94.4907Z" fill="#466E1A"/>
<path d="M41.4862 83.1519C41.4862 83.1519 40.2142 82.9922 38.3061 82.9922C34.49 82.9922 27.8119 83.9504 22.4058 89.38L22.7238 89.5397C28.1299 84.1101 34.649 83.3116 38.3061 83.3116C39.2602 83.3116 40.0551 83.3116 40.5321 83.4713C40.8501 83.4713 41.0092 83.4713 41.1682 83.4713H41.3271L41.4862 83.1519Z" fill="#466E1A"/>
<path d="M54.0479 72.293C54.0479 72.293 52.6169 72.1333 50.3909 72.1333C47.8468 72.1333 44.3487 72.4527 41.3276 73.89L41.4867 74.2093C44.3488 72.7721 47.8468 72.4527 50.3909 72.4527C51.5039 72.4527 52.299 72.4527 52.935 72.6124C53.253 72.6124 53.571 72.6124 53.73 72.6124C53.889 72.6124 54.0479 72.6124 54.0479 72.6124V72.293Z" fill="#466E1A"/>
<path d="M46.8925 71.4946C44.3484 72.4528 41.9634 73.411 39.7373 74.5288C41.6453 73.5707 43.5534 72.7722 45.3024 72.1334C45.7794 71.814 46.2565 71.6543 46.8925 71.4946Z" fill="#DEF00F"/>
<path d="M53.2527 92.8939C52.1396 97.525 49.7546 102.156 48.4825 104.232C49.5956 103.114 50.5497 101.996 51.3447 100.719C52.7757 98.1638 53.2527 95.449 53.2527 92.8939ZM47.6875 77.7228C47.2105 78.0422 46.7335 78.5213 46.4155 78.8407C46.8925 78.8407 47.2105 79.0004 47.6875 79.1601C48.3235 79.3198 48.8006 79.4795 49.2776 79.6391C48.8006 78.8407 48.3236 78.2019 48.0056 77.8825L47.6875 77.7228ZM50.3906 72.2932C47.8466 72.2932 44.5075 72.6126 41.4864 74.0498V73.8901C34.9673 76.9243 28.1301 81.2361 23.996 87.4642C23.837 87.7836 23.678 87.9433 23.519 88.2627C25.9041 86.1867 28.2892 84.9091 30.6742 84.1106C34.6493 80.9167 39.1013 78.681 43.7124 78.681C44.3484 78.681 45.1435 78.681 45.7796 78.8407C48.6416 76.2855 51.3446 74.0498 53.5707 72.4529C53.4117 72.4529 53.0937 72.4529 52.7757 72.4529C52.2987 72.4529 51.3446 72.2932 50.3906 72.2932ZM59.1358 68.3008C58.9768 68.3008 58.6588 68.4605 58.1818 68.4605C57.5458 68.6202 56.4328 68.7799 55.1607 69.0993C52.6167 69.738 49.1186 70.8559 45.3025 72.2932C44.9845 72.4529 44.6665 72.6126 44.3485 72.6126C46.4155 72.1335 48.4826 71.9738 50.2316 71.9738C52.2987 71.9738 53.8887 72.1335 53.8887 72.1335C56.9098 69.8977 58.8178 68.7799 58.8178 68.7799L58.9768 69.0993C58.9768 69.0993 58.8178 69.259 58.6588 69.4186C58.3408 69.5783 58.0228 69.8977 57.5458 70.0574C56.5918 70.6962 55.3198 71.6544 53.7297 72.7722C51.9807 74.0498 50.0726 75.6468 47.8466 77.4034C47.8466 77.4034 48.6416 78.3616 49.5956 79.9585C53.8887 82.1943 54.3657 86.6657 53.5707 91.2969C53.5707 91.776 53.5707 92.2551 53.5707 92.7342C53.5707 94.8102 53.2527 97.0459 52.2987 99.2817C52.6167 98.6429 53.0937 98.1638 53.4117 97.525C58.4998 89.2209 59.6128 80.9167 59.6128 75.1677C59.6128 71.8141 59.2949 69.4186 58.9768 68.4605C59.1359 68.4605 59.1358 68.3008 59.1358 68.3008Z" fill="url(#paint9_radial_7002_12860)"/>
<path d="M51.5035 100.878C50.7085 101.996 49.7545 103.274 48.6415 104.391C48.1645 105.19 48.0055 105.669 47.8465 105.669L48.0054 105.509C49.4365 103.912 50.7085 102.475 51.6625 100.878H51.5035ZM59.2948 67.981C54.6837 68.9391 50.5495 70.057 46.8924 71.3346C46.4154 71.4943 45.7794 71.6539 45.3024 71.9733C43.5533 72.6121 41.6453 73.4106 39.7372 74.3688C31.628 78.5208 26.5399 83.4714 23.3599 88.422L23.6779 88.1026C23.8369 87.7832 23.9959 87.6235 24.1549 87.3041C28.289 81.2357 35.1261 76.7642 41.6453 73.73L41.4863 73.5703C42.4403 73.0912 43.5534 72.7718 44.6664 72.4524C44.9844 72.2927 45.3024 72.133 45.6204 72.133C49.4365 70.6958 52.9346 69.5779 55.4786 68.9391C56.7507 68.6197 57.7047 68.3003 58.4997 68.3003C58.9768 68.1407 59.2947 68.1407 59.4537 68.1407C59.4537 68.3003 59.4537 68.3003 59.4537 68.46C59.6127 69.4182 60.0898 71.8136 60.0898 75.1672C60.0898 80.9163 58.9767 89.2204 53.8886 97.5246C53.5706 98.1634 53.0936 98.6425 52.7755 99.2812C52.6165 99.4409 52.6165 99.7603 52.4575 99.92C63.5878 83.3117 59.2948 67.981 59.2948 67.981Z" fill="#3C5F16"/>
<path d="M58.8178 68.9395C58.8178 68.9395 56.9098 70.0573 53.8887 72.2931V72.6124C53.8887 72.6124 53.7297 72.6124 53.5707 72.6124C51.3446 74.2094 48.6416 76.4451 45.7795 79.0003H46.2565C46.7335 78.5212 47.2105 78.2018 47.5285 77.8824L47.8466 77.7227C49.9136 75.966 51.9807 74.3691 53.7297 73.0915C55.3198 71.814 56.7507 71.0155 57.5458 70.3767C58.0228 70.0573 58.3408 69.8976 58.6588 69.7379C58.9768 69.5782 58.9768 69.4185 58.9768 69.4185L58.8178 68.9395Z" fill="#3C5F16"/>
<path d="M53.5709 91.4565C53.4119 91.9356 53.4119 92.4147 53.2529 92.8937C53.2529 95.4489 52.7759 98.1637 51.3449 100.719H51.5039C51.6629 100.399 51.8219 100.24 52.1399 99.9203C52.2989 99.7606 52.2989 99.4413 52.4579 99.2816C53.2529 97.0458 53.73 94.8101 53.73 92.734C53.571 92.4147 53.5709 91.9356 53.5709 91.4565ZM48.0058 77.563L47.6877 77.7227L47.8468 78.0421C48.1648 78.3615 48.4828 79.0002 49.1188 79.7987C49.2778 79.9584 49.5959 79.9584 49.7549 80.1181C48.6418 78.5212 48.0058 77.563 48.0058 77.563Z" fill="#3C5F16"/>
<path d="M30.0381 84.749C27.653 85.7072 25.109 87.1445 22.8829 89.3802C21.9289 90.9771 20.9749 92.5741 20.3389 94.1711C18.9079 97.5247 18.2718 100.399 18.1128 102.795L18.4308 102.475C19.8619 96.7262 24.3139 89.5399 30.0381 84.749Z" fill="url(#paint10_radial_7002_12860)"/>
<path d="M22.724 89.3804C21.611 90.9773 20.8159 92.5743 20.1799 94.1712C20.975 92.5743 21.77 90.9773 22.724 89.3804Z" fill="#3C5F16"/>
<path d="M30.6742 84.1104C28.2891 84.9088 25.7451 86.1864 23.519 88.2624L23.201 88.5818C23.042 88.9012 22.7239 89.2206 22.5649 89.54L22.724 89.3803C24.9501 87.1446 27.4941 85.7073 29.8792 84.7491C30.1972 84.4297 30.5152 84.27 30.6742 84.1104Z" fill="#3C5F16"/>
<path d="M50.3909 71.9731C48.6418 71.9731 46.5748 72.1328 44.5077 72.6119C43.3947 72.9313 42.4407 73.2507 41.3276 73.7298L41.4867 73.8895V74.0492C44.3488 72.6119 47.8468 72.2925 50.3909 72.2925C51.5039 72.2925 52.299 72.2925 52.935 72.4522C53.253 72.4522 53.571 72.4522 53.73 72.4522C53.889 72.4522 54.0479 72.4522 54.0479 72.4522V72.1328C54.0479 72.2925 52.4579 71.9731 50.3909 71.9731Z" fill="#3C5F16"/>
<path d="M29.0844 99.6012C25.7453 105.51 23.3602 111.898 22.8832 118.765C23.3602 119.244 23.5192 119.563 23.5192 119.563C23.5192 119.563 26.3813 118.765 30.8334 116.689C32.1054 114.293 32.4234 111.898 32.4234 109.822C32.5824 104.392 29.8794 100.4 29.0844 99.6012ZM31.6284 94.97C31.4694 94.97 31.1514 95.1297 30.8334 95.1297C30.0383 95.4491 28.7663 95.7685 27.3353 96.4073C25.1092 97.5252 22.2472 99.1221 19.7031 101.518C18.9081 103.434 18.4311 105.35 18.4311 107.107C18.2721 111.259 21.2931 116.05 22.8832 118.286C23.3602 109.662 27.0173 101.837 31.6284 94.97ZM37.8296 87.4644C35.7625 89.7001 33.8544 92.2552 32.1054 94.8103C31.1513 96.2476 30.1973 97.6849 29.4023 99.1221C29.8793 99.7609 33.0594 103.913 33.0594 109.662C33.0594 111.738 32.5824 113.974 31.6284 116.369C33.2184 115.571 34.9674 114.613 36.8755 113.495C38.4655 112.537 39.8966 111.419 41.1686 110.301C42.2816 107.586 42.7586 105.031 42.7586 102.635C42.7586 95.2894 38.7835 89.5404 37.6705 88.2628C37.5115 88.1031 37.5115 87.9434 37.5115 87.9434L37.8296 87.7837C37.8296 87.7837 43.0767 94.1716 43.0767 102.635C43.0767 104.871 42.7587 107.267 41.8046 109.662C51.0269 100.559 46.2567 89.0613 41.4866 87.7837C40.2146 87.6241 38.9426 87.4644 37.8296 87.4644ZM37.3525 87.4644C29.2433 87.4644 22.7242 94.3313 19.7031 101.038C24.9502 96.2476 30.6743 94.8103 31.7873 94.6506C33.5364 91.9358 35.4444 89.7001 37.3525 87.4644Z" fill="url(#paint11_radial_7002_12860)"/>
<path d="M32.1053 94.8103C32.1053 94.8103 31.9463 94.8103 31.7873 94.8103H31.6283C27.0172 101.677 23.3601 109.502 22.7241 118.126C22.8831 118.286 22.883 118.445 23.0421 118.605C23.5191 111.738 25.9042 105.191 29.2432 99.4415L29.0843 99.2818L29.4022 99.1221C30.1972 97.6849 31.1513 96.2476 32.1053 94.8103ZM37.5114 87.4644C35.6034 89.7001 33.6954 92.0955 31.9463 94.6506H32.1053V94.97C33.8543 92.4149 35.9214 89.8598 37.8295 87.624L37.5114 87.4644Z" fill="#6EAF32"/>
<path d="M37.6703 87.7832L37.3523 87.9429C37.3523 87.9429 37.3524 88.1026 37.5114 88.2623C38.4654 89.5399 42.5995 95.2889 42.5995 102.635C42.5995 105.03 42.1225 107.585 41.0095 110.3C41.1685 110.141 41.4864 109.981 41.6454 109.661C42.5994 107.266 42.9174 104.871 42.9174 102.635C42.9174 94.3307 37.6703 87.9429 37.6703 87.7832Z" fill="#6EAF32"/>
<path d="M29.2431 99.1216L28.925 99.2813L29.0841 99.441C29.7201 100.399 32.5821 104.392 32.5821 109.661C32.5821 111.738 32.1051 114.133 30.9921 116.528C31.1511 116.369 31.3102 116.369 31.4692 116.209C32.5822 113.814 32.9001 111.578 32.9001 109.502C33.0591 103.912 29.8791 99.7604 29.2431 99.1216Z" fill="#6EAF32"/>
<path d="M32.1049 94.4907H31.946C30.8329 94.6504 25.2678 96.0877 19.8616 100.879C19.7026 101.198 19.7027 101.358 19.5437 101.677C22.2468 99.1219 24.9498 97.5249 27.1759 96.5668C28.6069 95.928 29.8789 95.4489 30.674 95.2892C30.992 95.1295 31.31 95.1295 31.469 95.1295H31.6279C31.7869 95.1295 31.946 95.1295 31.946 95.1295L32.1049 94.4907Z" fill="#6EAF32"/>
<path d="M102.862 80.7568C100.477 80.7568 98.5688 81.5553 98.0917 82.6732C97.2967 84.2701 98.5688 86.8253 102.067 88.9013C104.77 90.4983 108.109 91.4564 110.971 91.4564C113.197 91.4564 114.946 90.8176 115.582 89.5401C117.172 86.3462 111.766 82.3538 106.042 81.2359C104.77 80.7568 103.816 80.7568 102.862 80.7568Z" fill="url(#paint12_radial_7002_12860)"/>
<path d="M118.762 89.8594C117.808 89.8594 117.013 90.1788 116.695 90.6579C116.059 91.4563 116.059 92.7339 117.013 93.6921C117.808 94.4905 118.921 95.1293 120.034 95.1293C120.83 95.1293 121.625 94.8099 122.102 94.1712C123.374 92.7339 122.102 90.6578 120.194 90.0191C119.717 90.0191 119.239 89.8594 118.762 89.8594Z" fill="url(#paint13_radial_7002_12860)"/>
<path d="M65.4958 90.3392C65.4958 90.3392 72.015 89.2213 76.1491 83.1529L75.5131 82.8335C73.605 85.708 71.061 87.4647 68.994 88.4228C68.0399 88.9019 67.0859 89.2213 66.4499 89.381C66.1319 89.5407 65.8139 89.5407 65.6549 89.5407H65.4958V90.3392Z" fill="#F49028"/>
<defs>
<radialGradient id="paint0_radial_7002_12860" cx="0" cy="0" r="1" gradientTransform="matrix(64.9414 21.9752 20.0756 -44.8554 112.128 112.402)" gradientUnits="userSpaceOnUse">
<stop stop-color="#FAE650"/>
<stop offset="1" stop-color="#FBB906"/>
</radialGradient>
<linearGradient id="paint1_linear_7002_12860" x1="115.741" y1="75.0078" x2="115.741" y2="163" gradientUnits="userSpaceOnUse">
<stop stop-color="#FAC357"/>
<stop offset="1" stop-color="#F4AF28"/>
</linearGradient>
<radialGradient id="paint2_radial_7002_12860" cx="0" cy="0" r="1" gradientTransform="matrix(64.9479 21.9775 20.0776 -44.8602 110.846 111.874)" gradientUnits="userSpaceOnUse">
<stop stop-color="#F9D42A"/>
<stop offset="1" stop-color="#FBA901"/>
</radialGradient>
<radialGradient id="paint3_radial_7002_12860" cx="0" cy="0" r="1" gradientTransform="matrix(64.8823 21.9552 20.0574 -44.8147 112.184 112.604)" gradientUnits="userSpaceOnUse">
<stop stop-color="#FBED67"/>
<stop offset="1" stop-color="#FCCC0C"/>
</radialGradient>
<radialGradient id="paint4_radial_7002_12860" cx="0" cy="0" r="1" gradientTransform="matrix(-17.4637 1.60799 -2.65254 -22.6383 62.1357 63.2026)" gradientUnits="userSpaceOnUse">
<stop stop-color="#E07103"/>
<stop offset="1" stop-color="#943E04"/>
</radialGradient>
<radialGradient id="paint5_radial_7002_12860" cx="0" cy="0" r="1" gradientTransform="matrix(-4.86054 -0.523589 0.469805 -1.69436 58.8596 38.914)" gradientUnits="userSpaceOnUse">
<stop stop-color="#E07103"/>
<stop offset="1" stop-color="#943E04"/>
</radialGradient>
<radialGradient id="paint6_radial_7002_12860" cx="0" cy="0" r="1" gradientTransform="matrix(-4.87234 -0.524812 0.470855 -1.69853 58.9058 38.8795)" gradientUnits="userSpaceOnUse">
<stop stop-color="#D95703"/>
<stop offset="1" stop-color="#8D3003"/>
</radialGradient>
<radialGradient id="paint7_radial_7002_12860" cx="0" cy="0" r="1" gradientTransform="matrix(-17.3905 1.60127 -2.64147 -22.5434 62.2191 63.3881)" gradientUnits="userSpaceOnUse">
<stop stop-color="#D95703"/>
<stop offset="1" stop-color="#8D3003"/>
</radialGradient>
<radialGradient id="paint8_radial_7002_12860" cx="0" cy="0" r="1" gradientTransform="matrix(-28.7355 13.8275 7.54227 11.8504 39.8836 93.0646)" gradientUnits="userSpaceOnUse">
<stop stop-color="#8BC91C"/>
<stop offset="1" stop-color="#2E8A28"/>
</radialGradient>
<radialGradient id="paint9_radial_7002_12860" cx="0" cy="0" r="1" gradientTransform="matrix(-28.7824 13.85 7.55449 11.8699 39.9105 93.0026)" gradientUnits="userSpaceOnUse">
<stop stop-color="#7BAE1A"/>
<stop offset="1" stop-color="#287723"/>
</radialGradient>
<radialGradient id="paint10_radial_7002_12860" cx="0" cy="0" r="1" gradientTransform="matrix(-28.7466 13.8328 7.54516 11.855 39.9082 92.9502)" gradientUnits="userSpaceOnUse">
<stop stop-color="#7BAE1A"/>
<stop offset="1" stop-color="#287723"/>
</radialGradient>
<radialGradient id="paint11_radial_7002_12860" cx="0" cy="0" r="1" gradientTransform="matrix(-28.787 13.8523 7.55578 11.8717 40.6091 93.0484)" gradientUnits="userSpaceOnUse">
<stop stop-color="#B7DF37"/>
<stop offset="0.1936" stop-color="#A8D83A"/>
<stop offset="0.5662" stop-color="#81C640"/>
<stop offset="1" stop-color="#4CAF48"/>
</radialGradient>
<radialGradient id="paint12_radial_7002_12860" cx="0" cy="0" r="1" gradientTransform="matrix(64.1464 21.7062 19.8298 -44.3065 111.35 111.125)" gradientUnits="userSpaceOnUse">
<stop stop-color="#FDFBD5"/>
<stop offset="1" stop-color="#FDF5AA"/>
</radialGradient>
<radialGradient id="paint13_radial_7002_12860" cx="0" cy="0" r="1" gradientTransform="matrix(65.9141 22.3043 20.3764 -45.5273 110.796 111.56)" gradientUnits="userSpaceOnUse">
<stop stop-color="#FDFBD5"/>
<stop offset="1" stop-color="#FDF5AA"/>
</radialGradient>
</defs>
</svg>
