<svg width="200" height="200" viewBox="0 0 200 200" fill="none" xmlns="http://www.w3.org/2000/svg">
<path d="M124.179 63.5946C124.179 63.5946 98.9499 39.2745 63.5182 54.0337C34.5792 66.1009 4.89823 95.8977 22.0576 129.5C26.9735 139.154 74.9268 168.301 122.324 126.901C158.961 94.7838 124.179 63.5946 124.179 63.5946Z" fill="url(#paint0_linear_7002_11182)"/>
<path d="M125.106 60.7167C125.106 60.7167 99.8774 36.3966 64.4457 51.1557C35.5067 63.223 5.82571 93.0198 23.0778 126.622C27.9937 136.276 75.9471 165.423 123.344 124.023C159.981 91.9059 125.106 60.7167 125.106 60.7167Z" fill="url(#paint1_linear_7002_11182)"/>
<path d="M125.013 61.6449C125.013 61.6449 99.7846 37.3248 64.3529 52.084C35.4139 64.1512 5.73295 93.948 22.8923 127.551C27.8082 137.204 75.7616 166.351 123.158 124.952C159.889 92.8341 125.013 61.6449 125.013 61.6449Z" fill="url(#paint2_linear_7002_11182)"/>
<path d="M133.083 109.635C130.393 111.77 127.518 113.812 124.642 115.669C113.234 122.724 100.619 126.344 87.263 126.437C75.2978 126.529 58.8805 122.259 51.8313 111.77C42.185 97.4752 43.669 78.8173 52.4806 64.8008C42.7415 69.3492 33.5589 75.5685 25.8604 82.6232C17.4199 95.6186 14.6373 111.12 23.0778 127.55C27.9938 137.204 75.9471 166.351 123.344 124.951C125.941 122.724 128.167 120.403 130.022 118.175C131.228 115.39 132.341 112.606 133.083 109.635Z" fill="url(#paint3_linear_7002_11182)"/>
<path d="M125.106 61.6449C125.106 61.6449 99.8774 37.3248 64.4458 52.084C49.327 58.3961 33.93 69.5351 25.2112 83.5516C36.8981 72.227 51.4603 63.6871 67.1356 59.2315C77.1529 56.4468 87.7268 55.24 97.9296 57.0037C102.289 57.7463 106.648 59.1387 109.802 62.1091C114.811 66.8431 116.202 74.8261 122.045 78.5391C124.828 80.3028 127.982 79.9315 130.3 82.3449C132.898 85.0368 133.918 89.0283 134.382 92.5557C135.402 101.281 133.732 110.285 129.929 118.083C155.158 88.5642 125.106 61.6449 125.106 61.6449Z" fill="url(#paint4_linear_7002_11182)"/>
<path d="M115.089 56.7254C116.11 57.7465 116.944 58.8604 117.686 60.0671C117.965 60.5313 118.243 60.9954 118.428 61.5523C118.799 62.2949 119.078 63.0375 119.263 63.7801C120.098 66.4721 120.654 69.2568 122.231 71.5774C122.695 72.2272 123.159 72.7841 123.623 73.3411C124.921 74.3622 126.498 75.1048 127.982 75.8474C128.538 76.033 129.095 76.2187 129.651 76.3115C131.97 76.8684 134.196 77.5182 135.402 79.746C139.947 88.2859 139.854 91.7204 139.947 92.5559C139.576 74.6407 125.014 61.6452 125.014 61.6452C125.014 61.6452 119.078 55.89 108.968 51.7129C111.286 53.1053 113.327 54.8689 115.089 56.7254Z" fill="url(#paint5_linear_7002_11182)"/>
<path d="M121.489 66.2862C121.489 66.2862 118.799 58.8602 119.912 58.3961C121.025 57.932 131.228 66.936 133.547 75.3831C133.547 75.3831 129.095 74.919 121.489 66.2862Z" fill="url(#paint6_linear_7002_11182)"/>
<path d="M118.428 81.0454C118.428 81.0454 122.045 84.3871 128.074 84.6656C128.074 84.6656 131.228 101.653 127.518 108.8C127.518 108.8 115.274 115.855 109.802 101.281L118.428 81.0454Z" fill="url(#paint7_linear_7002_11182)"/>
<path d="M108.689 68.1427C111.008 74.5476 106.556 81.9736 98.7646 84.7584C90.9733 87.636 82.8111 84.7584 80.4922 78.3535C78.1734 71.9485 82.6255 64.5225 90.4168 61.7378C98.1153 58.8602 106.37 61.7378 108.689 68.1427Z" fill="url(#paint8_linear_7002_11182)"/>
<path d="M139.947 92.3705C139.576 87.7292 138.927 81.4171 135.866 77.797C135.309 77.1472 134.474 77.8898 134.567 78.5396C134.938 80.7674 136.237 82.8095 136.886 84.9445C137.628 87.3579 138.185 89.8642 138.556 92.3705C138.648 93.2987 139.947 93.2987 139.947 92.3705Z" fill="white"/>
<path d="M118.614 60.9025C118.706 64.0586 119.541 67.2146 121.211 69.9994C122.509 72.32 124.642 75.2904 127.332 76.033C127.703 76.1258 128.167 75.6617 127.889 75.2904C126.312 73.2482 124.179 71.8559 122.695 69.6281C121.025 67.029 120.19 64.0586 120.098 60.9954C120.098 59.8815 118.614 59.8815 118.614 60.9025Z" fill="white"/>
<path d="M102.382 51.5273C106.927 52.5484 110.73 54.5905 114.532 57.0968C115.645 57.8394 116.573 56.0757 115.553 55.3331C111.843 52.5483 107.298 50.7847 102.846 49.7636C101.733 49.4851 101.269 51.2488 102.382 51.5273Z" fill="white"/>
<g opacity="0.5">
<path d="M18.533 110.935C18.162 111.307 18.162 111.957 18.6258 112.235C18.904 112.328 19.0895 112.328 19.3678 112.235C19.8316 111.957 19.8316 111.4 19.5533 111.028C19.5533 111.028 19.5533 111.028 19.4605 110.935C19.275 110.657 18.8113 110.657 18.533 110.935Z" fill="#B47300"/>
<path d="M26.9734 118.269C28.0865 118.269 28.0865 116.505 26.9734 116.505C25.7676 116.505 25.7676 118.269 26.9734 118.269Z" fill="#B47300"/>
<path d="M31.7042 106.294C32.91 106.294 32.91 104.53 31.7042 104.53C30.5911 104.53 30.5911 106.294 31.7042 106.294Z" fill="#B47300"/>
<path d="M35.2283 135.163C35.321 135.256 35.2283 135.256 35.2283 135.163C35.5993 135.441 35.9703 135.441 36.2486 135.256C36.2486 135.256 36.2486 135.256 36.3413 135.163C36.8978 134.699 36.4341 133.863 35.7848 133.863C35.1355 133.863 34.6718 134.699 35.2283 135.163Z" fill="#B47300"/>
<path d="M37.4546 138.04C37.5474 138.04 37.5474 137.947 37.4546 138.04Z" fill="#B47300"/>
<path d="M38.9388 138.69C39.7736 138.69 39.7736 137.391 38.9388 137.391C38.0113 137.298 38.0113 138.69 38.9388 138.69Z" fill="#B47300"/>
<path d="M40.6083 134.326C41.1648 134.326 41.1648 133.399 40.6083 133.399C40.0518 133.492 40.0518 134.326 40.6083 134.326Z" fill="#B47300"/>
<path d="M43.669 140.268C44.7821 140.268 44.7821 138.597 43.669 138.597C42.6487 138.597 42.6487 140.268 43.669 140.268Z" fill="#B47300"/>
<path d="M59.3441 94.876C60.0862 94.876 60.0862 93.7629 59.3441 93.7629C58.6949 93.6701 58.6949 94.876 59.3441 94.876Z" fill="#B47300"/>
<path d="M63.3327 98.9612C63.2399 99.054 63.1472 99.054 62.9617 99.1469C62.1269 99.5182 62.8689 100.818 63.7037 100.354C63.7964 100.261 63.8892 100.261 63.982 100.168C64.8167 99.7038 64.1675 98.5899 63.3327 98.9612Z" fill="#B47300"/>
<path d="M64.4457 96.2683C65.1877 96.2683 65.1877 95.1553 64.4457 95.1553C63.7037 95.1553 63.7037 96.2683 64.4457 96.2683Z" fill="#B47300"/>
<path d="M74.5559 71.8562C74.6487 71.8562 74.6487 71.7634 74.5559 71.8562Z" fill="#B47300"/>
<path d="M65.0023 75.0115C65.7443 75.0115 65.7443 73.8984 65.0023 73.8984C64.2603 73.8984 64.2603 75.0115 65.0023 75.0115Z" fill="#B47300"/>
<path d="M68.1558 82.4384C69.1761 82.4384 69.1761 80.8604 68.1558 80.8604C67.1356 80.8604 67.1356 82.4384 68.1558 82.4384Z" fill="#B47300"/>
<path d="M69.0833 78.5393C70.0109 78.5393 70.0109 77.147 69.0833 77.147C68.1558 77.147 68.1558 78.5393 69.0833 78.5393Z" fill="#B47300"/>
<path d="M98.1153 112.513C99.3211 112.513 99.3211 110.657 98.1153 110.657C96.9095 110.75 96.9095 112.513 98.1153 112.513Z" fill="#B47300"/>
<path d="M104.051 104.995C105.072 104.995 105.072 103.324 104.051 103.324C103.031 103.417 103.031 104.995 104.051 104.995Z" fill="#B47300"/>
<path d="M87.2632 109.357C87.2632 109.264 87.3559 109.171 87.3559 109.079C87.4487 108.8 87.1704 108.615 86.8922 108.615C86.7994 108.615 86.7067 108.708 86.6139 108.708C86.2429 108.8 86.1501 109.264 86.4284 109.542C86.7067 109.821 87.1704 109.728 87.2632 109.357Z" fill="#B47300"/>
<path d="M99.2281 121.146C100.063 121.146 100.063 119.846 99.2281 119.846C98.4861 119.846 98.4861 121.146 99.2281 121.146Z" fill="#B47300"/>
<path d="M109.524 119.289C109.524 119.197 109.524 119.104 109.524 119.011C109.524 118.825 109.338 118.547 109.06 118.547C108.967 118.547 108.874 118.547 108.782 118.547C108.225 118.547 107.854 119.289 108.318 119.661C108.782 120.218 109.524 119.846 109.524 119.289Z" fill="#B47300"/>
<path d="M91.1586 118.082C91.8079 118.082 91.8079 117.155 91.1586 117.155C90.5093 117.155 90.5093 118.082 91.1586 118.082Z" fill="#B47300"/>
<path d="M57.1183 116.133C57.6748 116.133 57.6748 115.206 57.1183 115.206C56.5618 115.298 56.5618 116.133 57.1183 116.133Z" fill="#B47300"/>
<path d="M70.5675 129.128C71.124 129.128 71.124 128.201 70.5675 128.201C69.9182 128.201 69.9182 129.128 70.5675 129.128Z" fill="#B47300"/>
<path d="M78.6369 143.145C79.3789 143.145 79.3789 142.032 78.6369 142.032C77.9876 142.032 77.9876 143.145 78.6369 143.145Z" fill="#B47300"/>
<path d="M83.4603 132.471C84.3878 132.471 84.3878 131.079 83.4603 131.079C82.5328 131.079 82.5328 132.471 83.4603 132.471Z" fill="#B47300"/>
<path d="M32.4459 77.0535C33.0025 77.0535 33.0025 76.126 32.4459 76.126C31.7967 76.126 31.7967 77.0535 32.4459 77.0535Z" fill="#B47300"/>
<path d="M41.5358 82.066C42.2778 82.066 42.3705 80.8602 41.5358 80.8602C40.7937 80.7675 40.7937 82.066 41.5358 82.066Z" fill="#B47300"/>
<path d="M43.9476 74.5471C44.6897 74.5471 44.6897 73.4341 43.9476 73.4341C43.2056 73.4341 43.2056 74.5471 43.9476 74.5471Z" fill="#B47300"/>
<path d="M61.9415 54.8686C62.2198 54.4048 61.6633 53.7555 61.1067 54.0338C60.272 54.5903 61.4777 55.7033 61.9415 54.8686Z" fill="#B47300"/>
<path d="M70.0111 62.5737C71.0313 62.5737 71.0313 60.9028 70.0111 60.9028C68.9908 60.9028 68.9908 62.5737 70.0111 62.5737Z" fill="#B47300"/>
<path d="M117.501 99.054C118.985 99.054 118.985 96.7334 117.501 96.7334C115.924 96.7334 115.924 99.054 117.501 99.054Z" fill="#B47300"/>
<path d="M119.82 103.509C121.025 103.509 121.025 101.653 119.82 101.653C118.614 101.653 118.614 103.509 119.82 103.509Z" fill="#B47300"/>
<path d="M121.582 99.2395C121.675 99.2395 121.675 99.1467 121.582 99.2395Z" fill="#B47300"/>
</g>
<path d="M132.805 60.6244C133.732 59.9747 134.567 58.4895 135.866 58.6751C136.329 58.7679 138.37 60.6244 138.277 60.7173C137.072 61.7383 135.773 62.8522 134.567 63.8733C135.216 63.8733 135.68 64.7087 135.495 65.3585C135.309 66.0083 134.753 66.4724 134.196 66.8437C133.083 67.6791 130.672 68.8858 130.022 70.0926C129.28 71.4849 131.228 72.8773 132.063 73.8984C132.248 74.1769 132.527 74.4553 132.434 74.7338C132.341 76.1262 125.477 72.3204 124.735 71.6706C123.159 70.4639 122.046 68.1433 121.489 66.2868C121.303 65.7298 120.561 60.2531 120.654 60.2531C122.324 60.9029 123.808 63.5948 125.57 63.3164C127.518 62.9451 127.982 60.346 130.301 60.6244C130.857 60.7173 131.414 60.9957 131.97 60.9029C132.248 60.9029 132.527 60.8101 132.805 60.6244Z" fill="#7F6B00"/>
<path d="M125.106 71.1133C124.272 70.0922 122.973 67.586 123.901 66.1936C124.55 65.2654 125.663 66.1008 126.312 66.7505C127.332 67.7716 128.26 70.0922 129.744 70.6492C129.744 70.4635 129.837 70.2779 129.93 70.1851C129.93 70.1851 129.93 70.0922 130.022 70.0922C128.816 68.607 127.425 67.1218 127.147 65.1725C127.054 64.8012 127.518 64.5228 127.796 64.8012C128.631 65.451 129.559 66.4721 130.672 66.4721C129.93 65.2653 128.724 63.5017 129.837 62.3878C130.579 61.738 131.692 62.1093 132.527 61.8308C134.011 61.2739 135.216 60.16 136.329 58.9533C136.144 58.8604 135.958 58.7676 135.866 58.7676C134.567 58.6748 133.732 60.0671 132.805 60.7169C132.527 60.9026 132.248 60.9954 131.97 61.0882C131.414 61.1811 130.857 60.9026 130.301 60.8098C127.982 60.5313 127.518 63.1304 125.57 63.5017C123.901 63.7801 122.324 61.0882 120.654 60.4384C120.561 60.4384 121.303 65.9151 121.489 66.4721C122.138 68.3286 123.251 70.6492 124.735 71.8559C125.014 72.1344 126.405 72.877 127.982 73.7124C126.869 72.877 125.941 72.0416 125.106 71.1133Z" fill="#665600"/>
<path d="M130.208 73.0627C130.486 73.434 130.764 73.8053 131.043 74.0838C131.321 74.4551 131.877 73.8981 131.599 73.5268C131.321 73.1555 131.043 72.7842 130.764 72.5057C130.393 72.1344 129.837 72.6914 130.208 73.0627Z" fill="white"/>
<path d="M125.384 67.4935C126.219 68.7002 127.147 69.9069 128.26 70.8352C128.631 71.2065 129.187 70.6495 128.816 70.2782C127.796 69.35 126.869 68.2361 126.034 67.0294C125.848 66.7509 125.106 67.1222 125.384 67.4935Z" fill="white"/>
<path d="M121.674 62.4808C122.045 62.8521 122.324 63.1305 122.695 63.5018C123.066 63.8731 123.53 63.3162 123.251 62.9449C122.88 62.5736 122.602 62.2951 122.231 61.9238C121.86 61.6453 121.396 62.1095 121.674 62.4808Z" fill="white"/>
<path d="M128.353 66.3794C129.002 66.9364 129.651 67.5862 130.301 68.1431C130.672 68.5144 131.228 67.9575 130.857 67.5862C130.208 67.0292 129.559 66.3794 128.909 65.8225C128.538 65.544 127.982 66.101 128.353 66.3794Z" fill="white"/>
<path d="M130.579 63.223C131.043 63.223 131.043 62.481 130.579 62.481C130.115 62.481 130.115 63.223 130.579 63.223Z" fill="white"/>
<path d="M133.64 64.5231C134.011 64.7088 134.196 65.1729 134.104 65.637C133.918 66.1011 134.66 66.2868 134.846 65.8227C135.124 65.0801 134.753 64.2446 134.104 63.8733C133.547 63.6877 133.176 64.3375 133.64 64.5231Z" fill="white"/>
<path d="M135.773 61.7382C136.144 61.3669 136.515 61.0884 136.886 60.7171C137.257 60.3458 136.701 59.8817 136.33 60.1601C135.958 60.5314 135.587 60.8099 135.216 61.1812C134.845 61.5525 135.402 62.0166 135.773 61.7382Z" fill="white"/>
<path d="M129.28 63.2233C130.764 62.7591 131.228 60.717 130.022 59.6959C125.385 55.7045 114.718 48.4641 97.9297 47.443C82.4399 46.5148 67.1357 50.7847 60.272 54.1264C60.1792 54.1264 89.0254 74.4551 129.28 63.2233Z" fill="url(#paint9_linear_7002_11182)"/>
<path d="M133.176 62.7592C133.176 62.7592 122.695 47.9072 98.1152 43.266C81.6979 40.2028 66.6719 43.3588 58.7878 45.7723C58.7878 45.6794 86.4283 70.0924 133.176 62.7592Z" fill="url(#paint10_linear_7002_11182)"/>
<path d="M133.176 62.759L58.7878 45.6792C58.7878 45.6792 86.4283 70.0922 133.176 62.759Z" fill="url(#paint11_linear_7002_11182)"/>
<path d="M48.585 113.998L75.0196 96.9185C75.0196 96.9185 101.454 112.977 123.251 110.935C145.048 108.893 158.034 96.64 158.034 96.64L180.109 95.1548C180.109 95.1548 187.715 113.72 178.254 131.913C170.184 147.508 149.593 158.183 134.011 157.997C71.7732 157.348 48.585 113.998 48.585 113.998Z" fill="url(#paint12_linear_7002_11182)"/>
<path d="M48.956 113.72L77.8022 95.0621C77.8022 95.0621 102.938 110.471 124.086 108.336C145.234 106.201 157.848 93.8554 157.848 93.8554L179.181 92.2773C179.181 92.2773 196.897 143.053 140.967 156.141C138.927 156.605 136.886 156.883 134.845 156.883C74.6486 156.419 48.956 113.72 48.956 113.72Z" fill="url(#paint13_linear_7002_11182)"/>
<path d="M123.622 111.864C102.103 113.72 85.5006 104.531 75.3905 96.6404L54.7993 110.007C58.6022 117.712 74.9267 149.365 126.59 153.171C173.338 156.605 183.726 112.049 175.378 92.5562L158.219 93.8557C154.602 100.818 145.605 109.914 123.622 111.864Z" fill="url(#paint14_linear_7002_11182)"/>
<path d="M125.663 112.606C146.254 109.821 159.796 98.2181 164.619 93.2983L157.755 93.7625C157.755 93.7625 145.141 106.108 123.993 108.243C102.845 110.378 77.7094 94.9692 77.7094 94.9692L72.7935 98.2181C83.1818 104.159 106.092 115.298 125.663 112.606Z" fill="url(#paint15_linear_7002_11182)"/>
<path d="M133.083 114.463L142.544 153.078C142.544 153.078 164.897 149.736 172.132 134.513L148.202 109.915L133.083 114.463Z" fill="url(#paint16_linear_7002_11182)"/>
<path d="M152.376 107.408L175.657 130.243C175.657 130.243 181.036 120.496 179.738 111.585L158.312 101.653L152.376 107.408Z" fill="url(#paint17_linear_7002_11182)"/>
<path d="M125.014 109.264C144.121 107.779 158.219 95.0621 158.219 95.0621L179.089 92.2773L157.755 93.8554C157.755 93.8554 145.141 106.201 123.993 108.336C102.846 110.471 77.7094 95.0621 77.7094 95.0621L48.8632 113.72L77.8022 96.3616C77.8949 96.4545 99.6919 111.214 125.014 109.264Z" fill="url(#paint18_linear_7002_11182)"/>
<path d="M80.2138 103.324L57.6748 122.353C57.6748 122.353 67.0429 131.914 73.1646 135.812L88.7471 107.965L80.2138 103.324Z" fill="url(#paint19_linear_7002_11182)"/>
<defs>
<linearGradient id="paint0_linear_7002_11182" x1="25.5722" y1="134.584" x2="138.567" y2="59.8676" gradientUnits="userSpaceOnUse">
<stop stop-color="#FFC72D"/>
<stop offset="1" stop-color="#FF392D"/>
</linearGradient>
<linearGradient id="paint1_linear_7002_11182" x1="29.9842" y1="129.789" x2="230.585" y2="-4.26679" gradientUnits="userSpaceOnUse">
<stop stop-color="#FF771C"/>
<stop offset="1" stop-color="white"/>
</linearGradient>
<linearGradient id="paint2_linear_7002_11182" x1="26.4494" y1="132.608" x2="139.444" y2="57.892" gradientUnits="userSpaceOnUse">
<stop stop-color="#FFC72D"/>
<stop offset="1" stop-color="#FF392D"/>
</linearGradient>
<linearGradient id="paint3_linear_7002_11182" x1="11.9189" y1="141.376" x2="123.659" y2="73.7968" gradientUnits="userSpaceOnUse">
<stop stop-color="#FFC72D"/>
<stop offset="1" stop-color="#FF392D"/>
</linearGradient>
<linearGradient id="paint4_linear_7002_11182" x1="188.727" y1="-13.6765" x2="54.9562" y2="122.63" gradientUnits="userSpaceOnUse">
<stop stop-color="#FFC72D"/>
<stop offset="1" stop-color="white" stop-opacity="0"/>
</linearGradient>
<linearGradient id="paint5_linear_7002_11182" x1="32.7678" y1="133.436" x2="233.369" y2="-0.620743" gradientUnits="userSpaceOnUse">
<stop stop-color="#FF771C"/>
<stop offset="1" stop-color="white"/>
</linearGradient>
<linearGradient id="paint6_linear_7002_11182" x1="76.9684" y1="129.585" x2="140.321" y2="49.841" gradientUnits="userSpaceOnUse">
<stop stop-color="#FFC72D"/>
<stop offset="1" stop-color="#FF392D"/>
</linearGradient>
<linearGradient id="paint7_linear_7002_11182" x1="141.121" y1="-0.722019" x2="117.037" y2="113.732" gradientUnits="userSpaceOnUse">
<stop stop-color="#FFC72D"/>
<stop offset="1" stop-color="white" stop-opacity="0"/>
</linearGradient>
<linearGradient id="paint8_linear_7002_11182" x1="130.599" y1="-6.03918" x2="88.9026" y2="85.5579" gradientUnits="userSpaceOnUse">
<stop stop-color="#FFC72D"/>
<stop offset="1" stop-color="white" stop-opacity="0"/>
</linearGradient>
<linearGradient id="paint9_linear_7002_11182" x1="94.6999" y1="69.8044" x2="96.6423" y2="45.4805" gradientUnits="userSpaceOnUse">
<stop stop-color="#FFC72D"/>
<stop offset="1" stop-color="#786867"/>
</linearGradient>
<linearGradient id="paint10_linear_7002_11182" x1="93.6129" y1="65.5746" x2="98.6143" y2="41.4431" gradientUnits="userSpaceOnUse">
<stop stop-color="#81BD46"/>
<stop offset="1" stop-color="#007400"/>
</linearGradient>
<linearGradient id="paint11_linear_7002_11182" x1="95.602" y1="56.844" x2="97.624" y2="42.1619" gradientUnits="userSpaceOnUse">
<stop stop-color="#81BD46"/>
<stop offset="1" stop-color="#007400"/>
</linearGradient>
<linearGradient id="paint12_linear_7002_11182" x1="111.472" y1="78.4455" x2="122.467" y2="162.645" gradientUnits="userSpaceOnUse">
<stop stop-color="#FFC72D"/>
<stop offset="1" stop-color="#FF392D"/>
</linearGradient>
<linearGradient id="paint13_linear_7002_11182" x1="111.07" y1="76.9124" x2="122.122" y2="161.553" gradientUnits="userSpaceOnUse">
<stop stop-color="#FFE54F"/>
<stop offset="1" stop-color="#FFC200"/>
</linearGradient>
<linearGradient id="paint14_linear_7002_11182" x1="136.151" y1="224.939" x2="112.093" y2="80.8648" gradientUnits="userSpaceOnUse">
<stop stop-color="#FAFFB3"/>
<stop offset="1" stop-color="#FAFFB3" stop-opacity="0"/>
</linearGradient>
<linearGradient id="paint15_linear_7002_11182" x1="80.0348" y1="54.9713" x2="156.911" y2="135.914" gradientUnits="userSpaceOnUse">
<stop stop-color="#FFE54F"/>
<stop offset="1" stop-color="#FFC200"/>
</linearGradient>
<linearGradient id="paint16_linear_7002_11182" x1="128.321" y1="108.366" x2="171.842" y2="161.312" gradientUnits="userSpaceOnUse">
<stop stop-color="#FAFFB3" stop-opacity="0.5"/>
<stop offset="1" stop-color="#FAFFB3" stop-opacity="0"/>
</linearGradient>
<linearGradient id="paint17_linear_7002_11182" x1="150.352" y1="90.2562" x2="193.873" y2="143.203" gradientUnits="userSpaceOnUse">
<stop stop-color="#FAFFB3" stop-opacity="0.5"/>
<stop offset="1" stop-color="#FAFFB3" stop-opacity="0"/>
</linearGradient>
<linearGradient id="paint18_linear_7002_11182" x1="114.325" y1="105.458" x2="121.221" y2="164.958" gradientUnits="userSpaceOnUse">
<stop stop-color="#FAFFB3"/>
<stop offset="1" stop-color="#FAFFB3" stop-opacity="0"/>
</linearGradient>
<linearGradient id="paint19_linear_7002_11182" x1="70.6544" y1="93.4624" x2="81.7505" y2="189.198" gradientUnits="userSpaceOnUse">
<stop stop-color="#FAFFB3" stop-opacity="0.5"/>
<stop offset="1" stop-color="#FAFFB3" stop-opacity="0"/>
</linearGradient>
</defs>
</svg>
