<svg width="200" height="200" viewBox="0 0 200 200" fill="none" xmlns="http://www.w3.org/2000/svg">
<path d="M158.432 80.6784C158.264 79.3418 157.929 78.0053 157.593 76.8358C155.914 72.4919 153.899 68.3152 150.876 64.6397C147.686 60.797 143.992 57.6227 139.962 54.7825V54.6155C133.246 49.2692 124.682 45.5937 116.118 45.4266C115.279 45.2595 114.439 45.2595 113.6 45.0924C104.868 44.4241 96.6406 47.4313 89.0846 52.4435C73.3008 62.8018 62.3865 80.6784 48.6177 93.877C42.237 100.059 35.3526 104.402 28.3003 109.08C23.5987 112.088 18.3934 115.763 17.218 122.279C15.5389 131.134 23.9346 138.151 29.4757 142.16C37.3676 148.008 47.2744 151.182 56.3417 153.187C86.5659 159.87 122.163 147.674 144.664 123.281C154.57 112.255 160.783 96.7171 158.432 80.6784Z" fill="url(#paint0_linear_7002_36904)"/>
<path d="M155.242 100.226C149.365 121.778 130.391 134.81 113.6 142.996C94.2898 152.352 72.4612 155.359 51.9759 149.679C41.9012 147.006 32.3302 142.662 24.2704 135.144C20.5763 131.635 17.8897 126.957 18.5614 121.277C19.0651 116.599 23.2629 113.258 26.4532 111.086C29.6435 108.747 33.1697 107.243 36.36 105.238C41.0616 102.398 45.4273 98.8896 49.6252 95.047C58.3566 87.0276 65.5768 77.3376 73.6366 68.4829C82.2001 59.1269 91.939 50.1051 103.693 47.0979C111.753 45.093 119.98 46.4295 127.872 49.1026C128.04 49.1026 128.208 49.2698 128.208 49.2698C129.887 49.9381 131.398 50.7734 133.078 51.4417C134.925 52.277 136.436 53.4465 138.115 54.4489C143.488 57.9574 148.19 61.9671 151.716 68.3157C157.089 77.5046 158.097 89.5337 155.242 100.226Z" fill="url(#paint1_radial_7002_36904)"/>
<path d="M62.0506 148.007C49.1214 145.668 33.3376 140.656 26.6211 128.46C23.7666 123.281 23.2629 117.266 24.942 112.087C22.0875 114.259 19.0651 117.266 18.5613 121.109C17.8897 126.789 20.7442 131.467 24.2703 134.976C32.3301 142.494 41.9011 146.838 51.9759 149.511C70.95 154.69 90.7636 152.518 109.066 144.833C93.7861 149.678 77.3307 150.847 62.0506 148.007Z" fill="url(#paint2_radial_7002_36904)"/>
<path d="M151.716 68.1484C148.19 61.9668 143.32 57.79 138.115 54.2816C136.436 53.2791 134.925 52.1097 133.078 51.2743C132.406 50.9402 131.902 50.7731 131.398 50.439C130.223 51.4414 129.719 53.112 130.727 54.4486C131.231 55.1169 131.734 55.7852 132.406 56.4535C133.413 57.4559 134.421 58.2912 135.428 59.1265C138.115 61.4655 140.97 63.4704 143.656 65.8093C148.693 70.1532 152.22 75.4995 153.731 81.8482C156.921 96.0491 150.708 109.749 142.145 120.943C139.122 124.952 135.428 128.795 131.566 132.303C142.313 124.451 151.716 114.093 155.41 100.059C158.097 89.5333 157.089 77.5043 151.716 68.1484Z" fill="url(#paint3_radial_7002_36904)"/>
<path d="M143.992 60.2955C141.641 59.6272 139.458 59.126 137.275 57.7895C135.26 56.4529 133.413 54.9493 131.398 53.4457C131.231 53.2786 131.063 53.6128 131.063 53.7798C133.749 57.6225 138.451 62.1333 143.656 61.1309C144.16 60.9638 144.496 60.4626 143.992 60.2955Z" fill="#D4700D"/>
<g opacity="0.4" style="mix-blend-mode:soft-light">
<path d="M146.343 78.0057C145.671 76.6691 144.831 75.4996 143.824 74.3301C140.298 70.1534 135.428 68.1485 131.398 64.8071C125.018 59.6279 123.003 49.6038 113.6 48.7684C108.227 48.4343 102.182 49.9379 97.3123 52.1098C86.23 57.1219 80.1852 67.9815 73.4687 77.6715C69.4388 83.6861 65.7447 90.5359 60.3715 95.3809C54.6625 100.56 39.7183 104.069 40.8937 114.427C42.0691 124.618 60.5394 130.299 67.7597 131.301C90.2599 134.475 114.439 132.471 133.413 117.935C143.656 110.083 152.723 90.8701 146.343 78.0057Z" fill="url(#paint4_radial_7002_36904)"/>
</g>
<path d="M154.067 88.6977C150.037 74.4967 142.816 61.4653 133.917 49.7704C133.581 49.4362 133.078 49.4363 132.742 49.6033C132.574 49.4363 132.406 49.4363 132.07 49.6033C120.484 56.1191 122.331 70.9883 125.857 81.8479C129.384 92.3733 137.107 107.41 148.861 110.584C152.723 111.753 155.41 108.746 156.082 105.238C157.257 99.8915 155.41 93.7098 154.067 88.6977Z" fill="url(#paint5_radial_7002_36904)"/>
<path d="M179.757 133.974C180.093 134.308 180.261 134.81 180.429 135.144C180.765 134.308 181.101 133.473 181.436 132.638C182.948 124.618 183.115 116.265 182.948 107.911C182.612 95.8822 180.765 83.8532 175.895 72.8265C172.033 63.9718 165.988 55.2842 157.761 49.7709C155.41 48.2672 152.555 47.0977 149.869 46.7636C147.35 46.4295 144.496 45.9282 141.977 46.5965C140.802 46.9306 139.626 47.2648 138.787 47.9331C138.283 48.2673 137.947 48.4343 137.611 48.9355C137.275 49.2696 136.94 50.105 136.604 50.272L135.596 49.7709C135.093 49.6038 134.757 49.7709 134.253 49.7709C132.07 50.2721 130.223 51.7757 129.384 53.7806C127.537 57.9573 126.865 62.8023 127.033 67.4803C127.033 67.8144 127.033 67.9815 127.033 68.3156C127.369 77.8386 130.727 86.1921 136.604 93.7103C142.817 101.563 150.876 107.744 159.272 113.258C163.134 115.931 166.996 118.604 170.354 121.778C174.216 124.785 177.406 129.129 179.757 133.974Z" fill="url(#paint6_linear_7002_36904)"/>
<path d="M128.712 72.3248C128.544 71.6565 128.544 70.9882 128.544 70.3199C128.544 67.9809 128.544 65.6419 128.544 63.3029C128.712 62.3005 128.712 61.4652 129.048 60.4628C129.216 60.2957 129.216 60.2957 129.216 60.1286C129.384 59.1262 129.551 58.2909 129.719 57.2884C130.223 55.4507 131.063 53.78 132.406 52.2763C132.574 52.1093 132.742 52.1092 132.91 51.9422C132.91 51.9422 133.078 51.9422 133.078 51.7751C134.085 51.2739 135.093 51.608 136.1 51.608C138.955 53.4458 141.809 56.1189 143.992 58.2908C148.19 62.3005 152.388 66.1432 156.082 70.6541C162.798 78.6734 168.507 87.194 171.698 97.0511C171.026 94.378 170.018 91.5379 169.347 88.8647C166.492 82.6832 162.63 77.1698 158.6 71.6564C154.906 66.8114 150.708 62.4676 146.175 58.1238C144.16 56.1189 141.977 54.2811 139.626 52.4434C138.787 51.7751 137.947 51.1069 137.107 50.4386C144.664 44.0899 155.914 49.4362 161.959 55.1165C168.843 61.6323 173.88 70.1528 177.071 79.0076C180.597 88.6976 181.604 99.3901 181.94 109.581C182.276 115.095 182.276 120.608 181.604 126.121C181.436 128.126 180.933 130.131 180.597 132.136C172.201 117.1 154.403 109.581 142.649 97.5523C135.428 90.7024 130.223 82.1819 128.712 72.3248Z" fill="url(#paint7_radial_7002_36904)"/>
<path opacity="0.5" d="M146.007 58.2908C150.037 62.3005 153.899 66.3102 157.425 70.8211C161.623 70.1528 167.332 71.3223 170.354 67.8138C170.522 67.4797 170.858 67.1455 171.026 66.9785C168.507 62.8017 165.485 58.7921 161.791 55.4507C155.746 49.6032 144.496 44.2569 136.94 50.7726C137.779 51.4409 138.619 52.1092 139.458 52.7775C141.809 54.2811 143.992 56.1189 146.007 58.2908Z" fill="url(#paint8_radial_7002_36904)"/>
<path opacity="0.5" d="M128.712 72.325C129.383 77.17 131.063 81.6809 133.246 85.6906C135.26 87.8625 137.779 89.1991 140.802 88.1966C144.496 86.8601 145.503 83.5186 147.014 80.3443C148.861 76.1675 151.548 72.325 156.25 70.9884C156.082 70.8213 156.082 70.8213 155.914 70.6543C152.22 66.1434 148.022 62.4678 143.824 58.291C141.641 56.1191 138.787 53.446 135.932 51.6082C134.925 51.4411 133.917 51.2741 132.91 51.7753C132.91 51.7753 132.742 51.7753 132.742 51.9424C132.574 52.1094 132.406 52.1095 132.238 52.2765C131.063 53.7802 130.223 55.4509 129.551 57.2886C129.383 58.2911 129.216 59.1264 129.048 60.1288C129.048 60.2959 128.88 60.2959 128.88 60.463C128.712 61.4654 128.544 62.3007 128.376 63.3031C128.208 65.6421 128.208 67.9811 128.376 70.3201C128.712 70.9884 128.712 71.6567 128.712 72.325Z" fill="url(#paint9_radial_7002_36904)"/>
<path d="M181.94 109.748C181.772 106.24 181.604 102.564 181.268 99.0559C180.597 101.562 179.421 103.066 177.406 101.562C174.048 99.2229 172.705 92.8743 171.026 89.3658C168.675 84.1866 164.981 79.1745 160.783 74.9977C163.973 79.5086 166.996 84.0196 169.179 88.8646C170.018 91.5377 170.858 94.2108 171.53 97.051C168.843 88.1963 163.973 80.6782 158.264 73.4941C161.455 80.0099 169.179 100.894 168.339 107.744C167.668 113.257 156.921 108.078 152.052 104.235C147.35 100.392 141.137 96.2156 137.275 91.7047C138.955 93.8766 140.634 95.8815 142.649 97.8864C154.57 109.915 172.201 117.267 180.597 132.47C181.101 130.465 181.436 128.46 181.604 126.455C182.108 120.775 182.108 115.262 181.94 109.748Z" fill="#1F8F23"/>
<defs>
<linearGradient id="paint0_linear_7002_36904" x1="103.86" y1="48.5747" x2="88.1205" y2="155.023" gradientUnits="userSpaceOnUse">
<stop stop-color="#F9E350"/>
<stop offset="1" stop-color="#F28C13"/>
</linearGradient>
<radialGradient id="paint1_radial_7002_36904" cx="0" cy="0" r="1" gradientUnits="userSpaceOnUse" gradientTransform="translate(57.2141 67.3043) scale(105.468 104.939)">
<stop stop-color="#F7EDC1"/>
<stop offset="0.1083" stop-color="#F7ECAE"/>
<stop offset="0.3284" stop-color="#F8EA7D"/>
<stop offset="0.4974" stop-color="#F9E954"/>
<stop offset="1" stop-color="#F89B16"/>
</radialGradient>
<radialGradient id="paint2_radial_7002_36904" cx="0" cy="0" r="1" gradientUnits="userSpaceOnUse" gradientTransform="translate(57.2136 67.2996) scale(105.47 104.942)">
<stop stop-color="#F7EDC1"/>
<stop offset="0.1083" stop-color="#F7ECAE"/>
<stop offset="0.3284" stop-color="#F8EA7D"/>
<stop offset="0.4974" stop-color="#F9E954"/>
<stop offset="1" stop-color="#F89B16"/>
</radialGradient>
<radialGradient id="paint3_radial_7002_36904" cx="0" cy="0" r="1" gradientUnits="userSpaceOnUse" gradientTransform="translate(57.2102 67.305) scale(105.47 104.941)">
<stop stop-color="#F7EDC1"/>
<stop offset="0.1083" stop-color="#F7ECAE"/>
<stop offset="0.3284" stop-color="#F8EA7D"/>
<stop offset="0.4974" stop-color="#F9E954"/>
<stop offset="1" stop-color="#F89B16"/>
</radialGradient>
<radialGradient id="paint4_radial_7002_36904" cx="0" cy="0" r="1" gradientUnits="userSpaceOnUse" gradientTransform="translate(73.1869 6.76213) scale(102.087 101.575)">
<stop stop-color="#F7EDC1"/>
<stop offset="0.1083" stop-color="#F7ECAE"/>
<stop offset="0.3284" stop-color="#F8EA7D"/>
<stop offset="0.4974" stop-color="#F9E954"/>
<stop offset="1" stop-color="#F89B16"/>
</radialGradient>
<radialGradient id="paint5_radial_7002_36904" cx="0" cy="0" r="1" gradientUnits="userSpaceOnUse" gradientTransform="translate(143.99 9.41692) scale(118.304 117.711)">
<stop stop-color="#F7EDC1"/>
<stop offset="0.1083" stop-color="#F7ECAE"/>
<stop offset="0.3284" stop-color="#F8EA7D"/>
<stop offset="0.4974" stop-color="#F9E954"/>
<stop offset="1" stop-color="#F89B16"/>
</radialGradient>
<linearGradient id="paint6_linear_7002_36904" x1="155.004" y1="46.2671" x2="181.692" y2="135.525" gradientUnits="userSpaceOnUse">
<stop stop-color="#529816"/>
<stop offset="1" stop-color="#55AA0D"/>
</linearGradient>
<radialGradient id="paint7_radial_7002_36904" cx="0" cy="0" r="1" gradientUnits="userSpaceOnUse" gradientTransform="translate(169.924 16.1947) scale(90.8657 90.41)">
<stop offset="0.0588054" stop-color="#F8EECC"/>
<stop offset="0.1192" stop-color="#F3EDB9"/>
<stop offset="0.2418" stop-color="#E9EC89"/>
<stop offset="0.3508" stop-color="#DEEB5C"/>
<stop offset="0.4969" stop-color="#A8D545"/>
<stop offset="0.7495" stop-color="#43A729"/>
<stop offset="1" stop-color="#2E9332"/>
</radialGradient>
<radialGradient id="paint8_radial_7002_36904" cx="0" cy="0" r="1" gradientUnits="userSpaceOnUse" gradientTransform="translate(165.681 25.6288) scale(108.09 107.548)">
<stop offset="0.0588054" stop-color="#F8EECC"/>
<stop offset="0.1242" stop-color="#E7E9B8"/>
<stop offset="0.2578" stop-color="#BBDA88"/>
<stop offset="0.4461" stop-color="#75BE4A"/>
<stop offset="0.5726" stop-color="#43A729"/>
</radialGradient>
<radialGradient id="paint9_radial_7002_36904" cx="0" cy="0" r="1" gradientUnits="userSpaceOnUse" gradientTransform="translate(165.681 25.6323) scale(108.082 107.539)">
<stop offset="0.0588054" stop-color="#F8EECC"/>
<stop offset="0.1242" stop-color="#E7E9B8"/>
<stop offset="0.2578" stop-color="#BBDA88"/>
<stop offset="0.4461" stop-color="#75BE4A"/>
<stop offset="0.5726" stop-color="#43A729"/>
</radialGradient>
</defs>
</svg>
