<svg width="200" height="200" viewBox="0 0 200 200" fill="none" xmlns="http://www.w3.org/2000/svg">
<path d="M143.718 100.405V147.373C143.718 148.976 144.124 150.561 144.883 151.935C145.412 152.903 146.118 153.766 146.983 154.488C149.083 156.232 151.535 159.19 152.171 163.822C152.276 164.562 152.329 165.354 152.329 166.164C152.329 169.14 151.288 171.782 149.806 174.054C146.065 179.76 139.536 183 132.689 183H67.3283C60.4993 183 53.9525 179.76 50.2116 174.054C48.7293 171.782 47.6882 169.14 47.6882 166.164C47.6882 164.879 47.8294 163.699 48.0764 162.624C48.9234 158.679 51.1292 156.073 53.0349 154.488C54.0937 153.608 54.9054 152.516 55.4701 151.301C56.0171 150.085 56.2995 148.747 56.2995 147.373V100.405C56.2995 99.6303 56.1583 98.873 55.8936 98.1509C55.5936 97.3232 55.1348 96.566 54.5349 95.932L50.1763 91.2651C48.9234 89.9267 48.0058 88.3241 47.4941 86.5982C47.1588 85.5063 47 84.3792 47 83.2169V69.9912C47 64.8664 50.6527 60.3932 55.7172 59.5303C63.252 58.2447 73.822 54.2823 79.7511 42.5358C79.9805 42.0956 80.1923 41.6377 80.404 41.1622C80.8805 40.1231 81.304 39.0313 81.6922 37.9042C82.0628 36.8475 82.398 35.7204 82.6804 34.5581C82.8392 33.9241 82.998 33.2549 83.1392 32.5857H116.861C117.002 33.2725 117.143 33.9241 117.32 34.5581C117.602 35.7204 117.937 36.8475 118.308 37.9042C118.696 39.0489 119.12 40.1408 119.596 41.1622C119.808 41.6377 120.019 42.0956 120.249 42.5358C126.178 54.2823 136.766 58.2447 144.283 59.5303C149.347 60.3932 153 64.8664 153 69.9912V83.2345C153 84.6258 152.771 85.9994 152.294 87.285C151.765 88.7644 150.935 90.1204 149.841 91.2827L145.483 95.9496C144.724 96.7597 144.195 97.7283 143.93 98.7849C143.789 99.2956 143.718 99.8592 143.718 100.405Z" fill="url(#paint0_linear_2006_76379)"/>
<path d="M142.677 147.373C142.677 150.49 144 153.378 146.312 155.28C148.588 157.165 151.288 160.581 151.288 166.164C151.288 168.629 150.494 171.095 148.924 173.472C145.447 178.791 139.377 181.961 132.689 181.961H67.3283C60.6404 181.961 54.5702 178.791 51.0939 173.472C49.5234 171.095 48.7293 168.629 48.7293 166.164C48.7293 160.581 51.4292 157.165 53.7055 155.28C55.9995 153.361 57.3406 150.473 57.3406 147.373V100.405C57.3406 98.4854 56.6171 96.6362 55.2937 95.2273L50.9351 90.5605C49.0646 88.5528 48.0411 85.9464 48.0411 83.2167V69.991C48.0411 65.3065 51.341 61.3264 55.8936 60.5516C64.5226 59.0722 79.5041 53.6129 83.9862 33.6069H116.031C120.496 53.6129 135.495 59.0722 144.124 60.5516C148.677 61.3264 151.977 65.3065 151.977 69.991V83.2344C151.977 85.9816 150.953 88.5881 149.083 90.5781L144.724 95.245C143.401 96.6538 142.677 98.4854 142.677 100.423V147.373Z" fill="#B0BEEA"/>
<path d="M141.989 100.018V146.722C141.989 149.821 143.295 152.692 145.553 154.594C147.777 156.46 150.441 159.859 150.441 165.424C150.441 167.872 149.665 170.338 148.13 172.698C144.706 177.981 138.742 181.133 132.16 181.133H67.8753C67.2577 181.133 66.6401 181.098 66.0225 181.045C60.1816 180.517 55.0113 177.488 51.9056 172.715C50.3704 170.338 49.594 167.89 49.594 165.442C49.594 159.877 52.2409 156.496 54.4819 154.611C56.7583 152.709 58.0464 149.839 58.0464 146.739V100.018C58.0464 98.1156 57.3406 96.284 56.0348 94.8928L51.7468 90.2435C49.9116 88.2535 48.9058 85.6647 48.9058 82.935V69.7797C48.9058 65.7468 51.3233 62.2598 54.8701 60.8686C55.4348 60.6573 56.0348 60.4811 56.6524 60.3755C63.9932 59.1075 76.0278 54.8457 81.9745 40.8098H118.078C124.025 54.8633 136.06 59.1075 143.401 60.3755C144.336 60.534 145.236 60.851 146.047 61.2736C149.118 62.841 151.129 66.0814 151.129 69.7621V82.9174C151.129 85.6295 150.124 88.2359 148.288 90.2259L144 94.8752C142.695 96.284 141.989 98.1156 141.989 100.018Z" fill="url(#paint1_linear_2006_76379)"/>
<path opacity="0.35" d="M143.983 94.8928L148.271 90.2435C150.106 88.2535 151.112 85.6647 151.112 82.935V69.7797C151.112 66.099 149.082 62.8586 146.03 61.2912C145.218 60.8509 144.318 60.5516 143.383 60.3931C136.042 59.1251 124.007 54.8633 118.061 40.8274H116.261C122.207 54.8809 134.242 59.1251 141.583 60.3931C142.518 60.5516 143.418 60.8686 144.23 61.2912C147.3 62.8586 149.312 66.099 149.312 69.7797V82.935C149.312 85.647 148.306 88.2535 146.471 90.2435L142.183 94.8928C140.895 96.3016 140.171 98.1155 140.171 100.018V146.722C140.171 149.821 141.477 152.692 143.736 154.594C145.959 156.46 148.624 159.859 148.624 165.424C148.624 167.872 147.847 170.338 146.312 172.698C142.889 177.981 136.924 181.133 130.342 181.133H132.142C138.724 181.133 144.689 177.981 148.112 172.698C149.647 170.32 150.424 167.872 150.424 165.424C150.424 159.859 147.777 156.478 145.536 154.594C143.259 152.692 141.971 149.821 141.971 146.722V100.018C141.989 98.1155 142.695 96.284 143.983 94.8928Z" fill="url(#paint2_linear_2006_76379)"/>
<path d="M120.249 42.5358H79.7511C79.9805 42.0955 80.1922 41.6376 80.404 41.1621H119.596C119.808 41.6376 120.037 42.0955 120.249 42.5358Z" fill="url(#paint3_linear_2006_76379)"/>
<path d="M152.294 87.2674C151.765 88.7467 150.935 90.1027 149.841 91.265L145.483 95.9319C144.724 96.742 144.195 97.7106 143.93 98.7673C114.602 100.299 85.2037 100.088 55.8936 98.1509C55.5936 97.3232 55.1348 96.5659 54.5348 95.9319L50.1762 91.265C48.9234 89.9266 48.0058 88.324 47.494 86.5981C82.398 89.2926 117.408 89.5039 152.294 87.2674Z" fill="url(#paint4_linear_2006_76379)"/>
<g opacity="0.15">
<path d="M152.171 163.839C117.531 166.164 82.7333 165.759 48.0764 162.642C48.9234 158.768 51.1292 156.32 53.035 154.876C54.0937 154.083 54.9055 153.026 55.4525 151.846C85.2214 154.065 115.096 154.277 144.883 152.48C145.412 153.414 146.118 154.224 146.983 154.893C149.083 156.478 151.535 159.261 152.171 163.839Z" fill="url(#paint5_linear_2006_76379)"/>
</g>
<path d="M146.03 61.2912L54.8525 60.8862C55.4172 60.6748 56.0172 60.4987 56.6348 60.3931C63.9756 59.1251 76.0102 54.8633 81.9569 40.8274H118.061C124.008 54.8809 136.042 59.1251 143.383 60.3931C144.318 60.5516 145.218 60.8509 146.03 61.2912Z" fill="url(#paint6_linear_2006_76379)"/>
<path d="M120.319 41.6728H79.8746C79.3099 41.6728 78.8335 41.2149 78.8335 40.6338C78.8335 40.0526 79.2923 39.5947 79.8746 39.5947H120.319C120.884 39.5947 121.361 40.0526 121.361 40.6338C121.361 41.2149 120.884 41.6728 120.319 41.6728Z" fill="url(#paint7_linear_2006_76379)"/>
<path opacity="0.8" d="M96.1267 41.6551H84.6921C84.3921 41.6551 84.145 41.4085 84.145 41.1091V40.211C84.145 39.9116 84.3921 39.665 84.6921 39.665H96.1267C96.4267 39.665 96.6737 39.9116 96.6737 40.211V41.1091C96.6914 41.4085 96.4444 41.6551 96.1267 41.6551Z" fill="#FFFFEE"/>
<path d="M118.308 37.9042H81.6923C82.0628 36.8475 82.3981 35.7204 82.6805 34.5581H117.32C117.62 35.7028 117.937 36.8299 118.308 37.9042Z" fill="url(#paint8_linear_2006_76379)"/>
<g opacity="0.1" style="mix-blend-mode:overlay">
<path d="M65.1577 60.2523C62.9873 60.763 60.7286 60.9391 58.5934 61.5731C56.4582 62.2071 54.3583 63.4222 53.2996 65.377C52.5584 66.7683 52.4173 68.4061 52.2938 69.9735C52.2055 70.9773 52.1349 72.0163 52.4173 72.9849C52.6996 73.9535 53.4407 74.8517 54.4466 75.0278C55.5759 75.2391 56.67 74.4642 57.3229 73.5132C57.9758 72.5623 58.2934 71.4352 58.8052 70.4137C60.2874 67.4903 63.3226 65.5531 66.5341 64.8663C69.7457 64.1795 73.0985 64.6198 76.2571 65.5355C77.3159 65.8349 78.5864 66.1519 79.3981 65.4122C80.104 64.7606 80.0334 63.5807 79.6275 62.7178C79.2217 61.8372 78.5511 61.1152 78.1452 60.217C77.0865 57.822 78.3041 55.0923 79.6099 52.8205C80.0334 52.0984 83.3156 46.234 80.7745 47.0969C79.6805 47.4668 77.9512 51.7462 77.0688 52.8029C74.0161 56.4659 69.7987 59.178 65.1577 60.2523Z" fill="white"/>
</g>
<g opacity="0.1" style="mix-blend-mode:overlay">
<path d="M54.8878 170.355C55.3642 171.412 56.0171 172.451 57.0053 173.067C57.9935 173.684 59.3699 173.79 60.2698 173.05C61.4521 172.081 61.3286 170.267 62.0168 168.911C63.0755 166.816 65.7224 166.217 68.0517 165.9C74.2102 165.072 80.4216 164.597 86.633 164.509C87.9389 164.491 89.4564 164.368 90.1623 163.293C90.8328 162.272 90.3917 160.846 89.5094 160.018C88.6271 159.19 87.4095 158.803 86.2448 158.486C79.6452 156.637 72.8868 155.404 66.0754 154.77C63.8167 154.558 60.1463 153.643 57.9935 154.541C55.8759 155.421 54.6937 158.732 54.1466 160.757C53.3349 163.91 53.529 167.362 54.8878 170.355Z" fill="white"/>
</g>
<path d="M136.536 149.469C112.202 150.984 87.8154 150.984 63.4814 149.469C63.4814 132.651 63.4814 115.85 63.4814 99.0315C87.8154 100.546 112.202 100.546 136.536 99.0315C136.536 115.85 136.536 132.668 136.536 149.469Z" fill="url(#paint9_linear_2006_76379)"/>
<path opacity="0.35" d="M137.224 150.332C112.89 151.846 88.5035 151.846 64.1696 150.332C64.1696 133.513 64.1696 116.713 64.1696 99.8943C88.5035 101.409 112.89 101.409 137.224 99.8943C137.224 116.713 137.224 133.513 137.224 150.332Z" fill="url(#paint10_linear_2006_76379)"/>
<path d="M136.536 99.0315V149.469C132.019 149.751 127.519 149.98 123.002 150.156C116.473 150.42 109.926 150.561 103.397 150.596C93.4797 150.649 83.5803 150.455 73.6455 150.015C70.2575 149.874 66.8694 149.68 63.4637 149.487V99.0315C68.2282 99.3309 72.975 99.5598 77.7394 99.7359C86.686 100.071 95.6502 100.211 104.597 100.141C111.179 100.088 117.761 99.9296 124.343 99.6655C128.419 99.4894 132.478 99.278 136.536 99.0315Z" fill="url(#paint11_linear_2006_76379)"/>
<path d="M100.274 148.377C91.5035 148.377 82.5746 148.183 73.7692 147.778C71.3164 147.672 68.6694 147.532 65.7225 147.373V101.409C69.6929 101.638 73.6986 101.831 77.6866 101.972C85.0626 102.254 92.5622 102.395 99.9383 102.395C101.509 102.395 103.079 102.395 104.65 102.377C111.126 102.324 117.796 102.166 124.466 101.884C127.572 101.761 130.819 101.602 134.313 101.391V147.355C130.519 147.584 126.707 147.761 122.931 147.901C116.526 148.148 109.961 148.306 103.397 148.342C102.356 148.359 101.315 148.377 100.274 148.377Z" fill="url(#paint12_linear_2006_76379)"/>
<g opacity="0.1" style="mix-blend-mode:overlay">
<path d="M151.288 166.182C151.288 168.647 150.494 171.113 148.924 173.49C145.447 178.809 139.377 181.979 132.689 181.979H95.9502C119.843 168.929 134.807 140.135 142.695 120.358V147.373C142.695 150.49 144.018 153.379 146.33 155.28C148.588 157.182 151.288 160.599 151.288 166.182Z" fill="white"/>
</g>
<path d="M123.496 124.285C110.085 113.719 91.0447 113.719 77.6337 124.285C75.7808 125.73 73.1692 125.976 71.6517 124.514C70.8752 123.739 70.0988 122.965 69.34 122.207C67.8224 120.763 68.4224 117.699 70.9105 115.744C88.2566 102.078 112.891 102.078 130.237 115.744C132.725 117.699 133.325 120.763 131.807 122.207C131.031 122.982 130.254 123.757 129.495 124.514C127.96 125.976 125.349 125.747 123.496 124.285Z" fill="#393D2C"/>
<path d="M110.879 127.385C110.879 127.385 122.296 120.534 111.726 113.349C111.726 113.349 112.961 120.728 107.703 121.697C107.703 121.697 103.838 120.781 100.838 120.728C100.803 120.728 100.75 120.728 100.715 120.728C100.679 120.728 100.627 120.728 100.591 120.728C97.5738 120.781 93.7269 121.697 93.7269 121.697C88.4684 120.728 89.7036 113.349 89.7036 113.349C79.1336 120.534 90.5506 127.385 90.5506 127.385C83.1569 129.076 83.4216 133.531 83.4216 133.531C89.4566 135.609 92.2446 132.105 92.6328 132.439C93.021 132.756 95.1033 139.625 95.1033 139.625C93.3563 142.918 97.5737 143.569 97.5737 143.569C98.2443 145.313 99.8677 144.89 100.75 144.925C101.491 144.925 103.256 145.295 103.926 143.569C103.926 143.569 108.144 142.918 106.397 139.625C106.397 139.625 108.479 132.774 108.867 132.439C109.255 132.122 112.044 135.609 118.078 133.531C118.026 133.531 118.273 129.076 110.879 127.385Z" fill="url(#paint13_linear_2006_76379)"/>
<g style="mix-blend-mode:overlay">
<path d="M86.633 145.718C81.1451 145.594 75.6571 145.418 70.1692 145.154C70.2221 143.939 70.2751 142.742 70.3457 141.526C75.7983 141.791 81.2509 141.967 86.7212 142.09C86.6859 143.287 86.6506 144.503 86.633 145.718Z" fill="#393D2C"/>
<path d="M131.401 145.154C125.913 145.418 120.425 145.594 114.937 145.718C114.919 144.503 114.884 143.305 114.866 142.09C120.319 141.967 125.789 141.791 131.242 141.526C131.277 142.724 131.33 143.939 131.401 145.154Z" fill="#393D2C"/>
</g>
<g opacity="0.1" style="mix-blend-mode:overlay">
<path d="M86.2801 35.8262C86.2448 37.5697 86.1213 39.2251 85.9095 40.8101C85.1684 46.5512 83.4214 51.2357 81.7627 54.5994C80.104 57.9631 77.5983 60.8337 74.4749 62.8941C73.4338 63.5809 72.428 64.3206 71.9515 64.8489C70.9633 65.976 71.5986 80.6107 71.8633 85.9467C71.9339 87.1971 72.2868 88.4123 72.922 89.5041L77.0159 96.4428C78.1982 98.4681 78.8158 100.757 78.8158 103.117L78.5864 150.649C78.5864 152.481 78.1453 154.312 77.1924 155.897C71.1045 166.076 75.1807 175.639 78.8158 181.116H67.8576C67.24 181.116 66.6224 181.081 66.0048 181.028C61.0286 174.846 59.1405 167.15 60.2522 163.435C61.6285 158.803 65.7577 154.259 66.1813 152.71C66.6224 151.16 67.7341 103.241 67.7341 99.5423C67.7341 96.9888 64.8401 92.1458 63.1638 89.6274C62.3167 88.3594 61.8756 86.8801 61.858 85.348C61.858 80.0119 61.9462 67.5434 62.8108 65.5358C63.6402 63.6162 67.1518 61.9255 68.8458 61.1859C69.834 60.7808 70.7692 60.2877 71.6692 59.7066C81.1627 53.6484 83.3509 44.0681 84.4096 41.4969C84.4978 41.268 84.5684 41.039 84.639 40.8101C85.3449 38.2213 84.4802 35.4036 84.4802 35.4036L86.2801 35.8262Z" fill="url(#paint14_linear_2006_76379)"/>
</g>
<g opacity="0.1" style="mix-blend-mode:overlay">
<path d="M107.932 35.826C107.985 37.5695 108.197 39.2249 108.532 40.8099C109.75 46.5511 112.608 51.2356 115.326 54.5992C118.043 57.9629 122.137 60.8335 127.254 62.8939C128.966 63.5808 130.607 64.3204 131.384 64.8487C132.989 65.9758 131.984 80.6105 131.542 85.9466C131.437 87.1969 130.854 88.4121 129.796 89.504L123.09 96.4426C121.149 98.4679 120.125 100.757 120.143 103.117L120.514 150.649C120.514 152.48 121.237 154.312 122.79 155.897C132.742 166.076 126.09 175.639 120.125 181.116L135.036 180.852C136.042 180.852 134.648 180.992 135.636 180.94C143.789 174.758 147.777 171.324 146.471 161.62C145.801 156.513 141.53 154.241 140.807 152.692C140.101 151.142 138.266 103.223 138.266 99.5245C138.266 96.971 142.995 92.128 145.73 89.6096C147.124 88.3416 147.847 86.8623 147.865 85.3302C147.865 79.9941 147.759 67.508 146.295 65.518C143.277 61.397 139.201 61.9077 136.413 61.1681C134.807 60.763 133.254 60.2699 131.807 59.6888C116.279 53.6306 112.679 44.0503 110.95 41.4615C110.791 41.2326 110.685 41.0036 110.561 40.7747C109.397 38.1859 110.808 35.3682 110.808 35.3682L107.932 35.826Z" fill="url(#paint15_linear_2006_76379)"/>
</g>
<path d="M78.0391 19.6945L80.5449 34.7166C80.6507 35.3682 81.2154 35.8261 81.8683 35.8261H118.149C118.802 35.8261 119.366 35.3506 119.472 34.7166L121.978 19.6945C122.119 18.8844 121.484 18.1448 120.654 18.1448H79.3626C78.5332 18.1448 77.898 18.8844 78.0391 19.6945Z" fill="url(#paint16_linear_2006_76379)"/>
<path d="M121.978 19.6946L121.837 20.5399L119.472 34.7166C119.366 35.3506 118.802 35.8261 118.149 35.8261H81.8686C81.2157 35.8261 80.651 35.3506 80.5451 34.7166L78.1805 20.5399L78.0394 19.6946C77.8982 18.8845 78.5335 18.1272 79.3628 18.1272H120.655C121.484 18.1448 122.119 18.8845 121.978 19.6946Z" fill="url(#paint17_linear_2006_76379)"/>
<g style="mix-blend-mode:overlay" opacity="0.2">
<path d="M80.4919 34.3818L80.5449 34.7341C80.6508 35.3857 81.2154 35.8435 81.8683 35.8435H118.149C118.802 35.8435 119.366 35.368 119.472 34.7341L119.525 34.3818H80.4919Z" fill="url(#paint18_linear_2006_76379)"/>
<path opacity="0.8" d="M102.232 18.1448L101.473 35.8261H83.3683L81.2155 18.1448H102.232Z" fill="#FFFFEE"/>
<path opacity="0.8" d="M95.5618 18.1448L95.05 35.8261H86.2799L84.5682 18.1448H95.5618Z" fill="#FFFFEE"/>
<path d="M118.607 18.1448L115.837 35.8261H109.537L108.99 18.1448H118.607Z" fill="url(#paint19_linear_2006_76379)"/>
</g>
<path opacity="0.8" d="M121.978 19.6946L121.837 20.5399H78.1982L78.0571 19.6946C77.9159 18.8845 78.5512 18.1272 79.3805 18.1272H120.672C121.484 18.1448 122.119 18.8845 121.978 19.6946Z" fill="#FFFFEE"/>
<path d="M108.126 50.0908H93.7621V18.2327C93.7621 17.5635 94.3091 17.0176 94.9797 17.0176H106.908C107.579 17.0176 108.126 17.5635 108.126 18.2327V50.0908Z" fill="url(#paint20_linear_2006_76379)"/>
<path d="M107.014 18.2328V50.0908H92.6504V18.2328C92.6504 17.5459 93.1974 17 93.868 17H105.797C106.467 17.0176 107.014 17.5635 107.014 18.2328Z" fill="url(#paint21_linear_2006_76379)"/>
<path d="M95.809 17.0176H94.3268V50.1084H95.809V17.0176Z" fill="url(#paint22_linear_2006_76379)"/>
<path d="M105.32 17.0176H103.838V50.1084H105.32V17.0176Z" fill="url(#paint23_linear_2006_76379)"/>
<defs>
<linearGradient id="paint0_linear_2006_76379" x1="100.01" y1="183.015" x2="100.01" y2="32.5683" gradientUnits="userSpaceOnUse">
<stop stop-color="#DEE1E9"/>
<stop offset="0.9946" stop-color="#C4C6CF"/>
</linearGradient>
<linearGradient id="paint1_linear_2006_76379" x1="48.9002" y1="110.97" x2="151.119" y2="110.97" gradientUnits="userSpaceOnUse">
<stop stop-color="#59170C"/>
<stop offset="0.1818" stop-color="#822D12"/>
<stop offset="0.4669" stop-color="#772710"/>
<stop offset="0.9599" stop-color="#5B180C"/>
<stop offset="0.9946" stop-color="#59170C"/>
</linearGradient>
<linearGradient id="paint2_linear_2006_76379" x1="116.251" y1="110.97" x2="151.119" y2="110.97" gradientUnits="userSpaceOnUse">
<stop offset="0.00540541" stop-color="#E6E6E6"/>
<stop offset="1" stop-color="white"/>
</linearGradient>
<linearGradient id="paint3_linear_2006_76379" x1="79.7621" y1="41.8475" x2="126.941" y2="41.8475" gradientUnits="userSpaceOnUse">
<stop stop-color="#CCCCCC"/>
<stop offset="1" stop-color="#999999"/>
</linearGradient>
<linearGradient id="paint4_linear_2006_76379" x1="47.5062" y1="93.1983" x2="169.592" y2="93.1983" gradientUnits="userSpaceOnUse">
<stop stop-color="#CCCCCC"/>
<stop offset="1" stop-color="#999999"/>
</linearGradient>
<linearGradient id="paint5_linear_2006_76379" x1="100.118" y1="165.325" x2="100.118" y2="149.622" gradientUnits="userSpaceOnUse">
<stop offset="5.781e-05" stop-color="#333333"/>
<stop offset="1" stop-color="white"/>
</linearGradient>
<linearGradient id="paint6_linear_2006_76379" x1="100.443" y1="61.287" x2="100.443" y2="37.4323" gradientUnits="userSpaceOnUse">
<stop stop-color="#CCCCCC"/>
<stop offset="1" stop-color="#999999"/>
</linearGradient>
<linearGradient id="paint7_linear_2006_76379" x1="78.8431" y1="40.6436" x2="121.348" y2="40.6436" gradientUnits="userSpaceOnUse">
<stop stop-color="#B0BEEA"/>
<stop offset="0.9946" stop-color="#94A1D3"/>
</linearGradient>
<linearGradient id="paint8_linear_2006_76379" x1="81.7033" y1="36.2213" x2="124.359" y2="36.2213" gradientUnits="userSpaceOnUse">
<stop stop-color="#CCCCCC"/>
<stop offset="1" stop-color="#999999"/>
</linearGradient>
<linearGradient id="paint9_linear_2006_76379" x1="100.01" y1="150.605" x2="100.01" y2="99.0362" gradientUnits="userSpaceOnUse">
<stop offset="0.00540541" stop-color="#EDB77D"/>
<stop offset="1" stop-color="#FFD8B0"/>
</linearGradient>
<linearGradient id="paint10_linear_2006_76379" x1="100.698" y1="151.464" x2="100.698" y2="99.8948" gradientUnits="userSpaceOnUse">
<stop stop-color="#CCCCCC"/>
<stop offset="1" stop-color="#999999"/>
</linearGradient>
<linearGradient id="paint11_linear_2006_76379" x1="100.01" y1="150.605" x2="100.01" y2="99.0327" gradientUnits="userSpaceOnUse">
<stop offset="0.00540541" stop-color="#EDB77D"/>
<stop offset="1" stop-color="#FFD8B0"/>
</linearGradient>
<linearGradient id="paint12_linear_2006_76379" x1="100.01" y1="148.37" x2="100.01" y2="101.405" gradientUnits="userSpaceOnUse">
<stop offset="0.0108108" stop-color="#E93400"/>
<stop offset="1" stop-color="#C92005"/>
</linearGradient>
<linearGradient id="paint13_linear_2006_76379" x1="83.3988" y1="129.151" x2="118.019" y2="129.151" gradientUnits="userSpaceOnUse">
<stop offset="0.00540541" stop-color="#EDB77D"/>
<stop offset="1" stop-color="#FFD8B0"/>
</linearGradient>
<linearGradient id="paint14_linear_2006_76379" x1="59.9526" y1="108.266" x2="86.2876" y2="108.266" gradientUnits="userSpaceOnUse">
<stop offset="0.00540541" stop-color="#E6E6E6"/>
<stop offset="1" stop-color="white"/>
</linearGradient>
<linearGradient id="paint15_linear_2006_76379" x1="147.88" y1="108.266" x2="107.924" y2="108.266" gradientUnits="userSpaceOnUse">
<stop stop-color="#CCCCCC"/>
<stop offset="1" stop-color="#999999"/>
</linearGradient>
<linearGradient id="paint16_linear_2006_76379" x1="78.0225" y1="26.9901" x2="129.254" y2="26.9901" gradientUnits="userSpaceOnUse">
<stop stop-color="#4F7C0F"/>
<stop offset="0.0263225" stop-color="#538212"/>
<stop offset="0.1088" stop-color="#5D9019"/>
<stop offset="0.2104" stop-color="#63991E"/>
<stop offset="0.3851" stop-color="#659B1F"/>
<stop offset="0.9946" stop-color="#4F7C0F"/>
</linearGradient>
<linearGradient id="paint17_linear_2006_76379" x1="78.0241" y1="26.9891" x2="129.255" y2="26.9891" gradientUnits="userSpaceOnUse">
<stop stop-color="#372B42"/>
<stop offset="0.00305385" stop-color="#372B42"/>
<stop offset="0.1405" stop-color="#43364D"/>
<stop offset="0.2811" stop-color="#473951"/>
<stop offset="0.6406" stop-color="#43364D"/>
<stop offset="0.9939" stop-color="#372B42"/>
<stop offset="1" stop-color="#372B42"/>
</linearGradient>
<linearGradient id="paint18_linear_2006_76379" x1="80.492" y1="35.1048" x2="125.97" y2="35.1048" gradientUnits="userSpaceOnUse">
<stop stop-color="#CCCCCC"/>
<stop offset="1" stop-color="#999999"/>
</linearGradient>
<linearGradient id="paint19_linear_2006_76379" x1="108.982" y1="26.9884" x2="118.615" y2="26.9884" gradientUnits="userSpaceOnUse">
<stop stop-color="#CCCCCC"/>
<stop offset="1" stop-color="#999999"/>
</linearGradient>
<linearGradient id="paint20_linear_2006_76379" x1="93.7592" y1="33.5546" x2="110.5" y2="33.5546" gradientUnits="userSpaceOnUse">
<stop stop-color="#CCCCCC"/>
<stop offset="1" stop-color="#999999"/>
</linearGradient>
<linearGradient id="paint21_linear_2006_76379" x1="99.8261" y1="50.0982" x2="99.8261" y2="11.5488" gradientUnits="userSpaceOnUse">
<stop offset="0.00540541" stop-color="#EDB77D"/>
<stop offset="1" stop-color="#FFD8B0"/>
</linearGradient>
<linearGradient id="paint22_linear_2006_76379" x1="95.0674" y1="50.0982" x2="95.0674" y2="11.5488" gradientUnits="userSpaceOnUse">
<stop stop-color="#4F7C0F"/>
<stop offset="0.0263225" stop-color="#538212"/>
<stop offset="0.1088" stop-color="#5D9019"/>
<stop offset="0.2104" stop-color="#63991E"/>
<stop offset="0.3851" stop-color="#659B1F"/>
<stop offset="0.9946" stop-color="#4F7C0F"/>
</linearGradient>
<linearGradient id="paint23_linear_2006_76379" x1="104.585" y1="50.0982" x2="104.585" y2="11.5488" gradientUnits="userSpaceOnUse">
<stop stop-color="#4F7C0F"/>
<stop offset="0.0263225" stop-color="#538212"/>
<stop offset="0.1088" stop-color="#5D9019"/>
<stop offset="0.2104" stop-color="#63991E"/>
<stop offset="0.3851" stop-color="#659B1F"/>
<stop offset="0.9946" stop-color="#4F7C0F"/>
</linearGradient>
</defs>
</svg>
