<svg width="200" height="200" viewBox="0 0 200 200" fill="none" xmlns="http://www.w3.org/2000/svg">
<path d="M96.885 48.7395H96.6437C95.954 48.7739 95.2988 48.8428 94.6092 49.0149C88.5056 51.1836 84.8159 52.3885 83.609 52.6639C68.9881 55.0392 60.9191 56.7604 59.4363 57.862C53.8156 60.2373 48.712 63.7486 44.1258 68.327C42.0568 70.4269 40.0223 72.871 37.9878 75.6938C36.6774 77.2773 33.2291 84.4721 27.6428 97.3124L17.0565 111.874C16.953 112.907 16.9875 113.802 17.1944 114.628C17.1255 115.179 17.7117 116.177 19.022 117.657C19.6427 118.174 20.4014 118.621 21.2979 118.931L24.6428 119.757C24.6773 120.032 28.9187 118.69 37.4016 115.695C46.9534 114.146 52.8845 113.044 55.1949 112.39C58.9191 111.53 61.8156 110.635 63.8501 109.774C73.9882 106.056 82.3676 100.824 89.0229 94.0765C91.2298 91.8389 93.2643 89.3947 95.0919 86.8129L97.7126 82.7853L103.816 66.8812C104.333 66.1927 104.782 65.4353 105.127 64.6436C105.471 63.8518 105.747 63.0256 105.92 62.1306C106.368 57.4833 105.954 54.3507 104.678 52.7327C103.195 50.3919 100.575 49.0493 96.885 48.7395Z" fill="#D67C93"/>
<path d="M99.6089 49.1865L85.8846 56.8976C82.7121 58.55 79.5397 61.6482 76.4017 66.1578C71.8155 76.5539 69.0223 82.1996 67.9878 83.0946L40.2634 103.543C34.5392 107.364 30.2288 109.257 27.3667 109.257C26.6425 109.257 25.9873 109.119 25.4356 108.878L21.4355 113.354C21.3666 113.388 21.2976 113.388 21.2286 113.388C20.9873 113.388 20.6769 113.25 20.3666 112.941C19.5735 111.839 18.8493 110.91 18.2631 110.187L17.0907 111.77C16.9872 112.803 17.0217 113.698 17.2286 114.524C17.1596 115.075 17.7459 116.073 19.0562 117.553C19.6769 118.07 20.4356 118.517 21.3321 118.827L24.677 119.653C24.677 119.688 24.7115 119.688 24.7804 119.688C25.4701 119.688 29.7115 118.311 37.4357 115.591C46.9876 114.042 52.9187 112.941 55.229 112.287C58.9532 111.426 61.8498 110.531 63.8844 109.67C74.0224 105.952 82.4018 100.72 89.0571 93.9727C91.264 91.7351 93.2985 89.291 95.1261 86.7092L97.7468 82.6815L103.85 66.7774C104.368 66.0889 104.816 65.3316 105.161 64.5398C105.506 63.7481 105.781 62.9219 105.954 62.0268C106.402 57.3795 105.988 54.2469 104.712 52.629C103.609 51.011 101.885 49.8406 99.6089 49.1865Z" fill="#940027" fill-opacity="0.1765"/>
<path d="M104.989 53.1807C98.4022 57.2427 93.5746 60.4442 90.5056 62.7851C87.9193 65.6767 86.2641 67.7766 85.5055 69.1536C83.5055 75.2123 82.0572 78.4826 81.1951 78.9646C79.6434 80.376 77.0571 82.5447 73.4364 85.4019C68.8157 90.6344 65.9536 93.5949 64.9191 94.2834L51.0223 104.026C48.7809 105.196 45.7809 106.298 42.0222 107.296C38.298 109.947 33.7808 112.356 28.5393 114.525C28.16 114.663 27.7807 114.766 27.4014 114.766C26.6082 114.766 25.7117 114.456 24.7462 113.871C24.2289 115.764 23.7117 116.694 23.2289 116.694C23.1944 116.694 23.1599 116.694 23.1599 116.694C23.0909 116.694 23.022 116.728 22.953 116.728C22.7116 116.728 22.4358 116.625 22.1254 116.453C20.4357 114.491 19.1599 113.182 18.2288 112.528C17.8495 112.219 17.4702 112.046 17.1943 112.046C17.1599 112.046 17.1254 112.046 17.0909 112.046C17.0219 112.976 17.0909 113.802 17.2633 114.559C17.1943 115.11 17.7806 116.109 19.0909 117.589C19.7116 118.105 20.4702 118.553 21.3668 118.862L24.7117 119.689C24.7117 119.723 24.7462 119.723 24.8151 119.723C25.5048 119.723 29.7462 118.346 37.4704 115.627C47.0223 114.077 52.9534 112.976 55.2638 112.322C58.988 111.461 61.8845 110.566 63.919 109.706C74.0571 105.988 82.4365 100.755 89.0918 94.008C91.2987 91.7705 93.3332 89.3263 95.1608 86.7445L97.7815 82.7168L103.885 66.8127C104.402 66.1243 104.851 65.3669 105.195 64.5752C105.54 63.7834 105.816 62.9572 105.989 62.0622C106.368 57.8624 106.023 54.8675 104.989 53.1807Z" fill="#940027" fill-opacity="0.1765"/>
<path d="M98.8163 62.51H98.7128C98.4025 62.51 98.0921 62.5444 97.7818 62.5789C96.7473 62.7854 95.7473 63.0608 94.7817 63.405C93.8507 63.7493 92.9541 64.1968 92.1265 64.7132C90.4713 65.7459 88.9886 67.0885 87.7472 68.7753C86.3334 70.8063 85.3334 72.6996 84.7472 74.4897L80.4368 91.1856C79.7471 93.3199 79.0919 94.9722 78.4712 96.1083C77.4367 97.9328 76.1608 99.6884 74.6091 101.341C73.8505 102.167 72.9884 102.993 72.0918 103.785L70.678 104.955C69.7125 105.713 68.678 106.47 67.5745 107.193C67.54 107.296 67.5745 107.365 67.7469 107.365C68.0228 107.331 68.4021 107.227 68.8504 107.021C69.7125 106.401 71.5056 105.506 74.1608 104.232C75.6091 103.578 77.4022 102.855 79.5057 102.098C80.4367 101.582 82.2298 100.101 84.8851 97.7262L102.678 68.0523C102.885 67.7425 103.023 67.4327 103.127 67.1229C103.334 66.5032 103.334 65.8836 103.161 65.2984C103.161 65.1607 102.954 64.7132 102.437 63.9558C101.816 63.0608 100.609 62.6133 98.8163 62.51Z" fill="#940027" fill-opacity="0.1765"/>
<path d="M129.196 46.0204L128.575 46.0548C126.713 46.1925 123.23 46.8122 118.092 47.9826C112.954 48.2236 110.195 48.499 109.851 48.8432C108.057 49.3596 106.885 50.2546 106.264 51.5283C105.678 52.802 105.678 54.42 106.264 56.451L112.678 72.4928C115.471 76.6237 117.782 78.999 119.575 79.6186L136.403 104.163C137.644 105.506 139.092 106.814 140.747 108.053C143.023 109.878 146.161 111.771 150.196 113.699C154.851 115.558 159.851 117.245 165.162 118.794L172.713 122.443C174.334 122.993 175.886 123.269 177.438 123.166C179.369 123.131 181.024 122.064 182.334 119.964C183.093 118.381 183.196 116.005 182.679 112.838C178.541 100.17 175.438 89.464 173.403 80.7202C172.058 76.7958 170.713 73.7321 169.3 71.5289C163.575 63.6113 157.437 57.6559 150.92 53.5938C142.472 48.258 135.23 45.745 129.196 46.0204Z" fill="#D67C93"/>
<path d="M111.264 48.4658C110.437 48.5691 109.989 48.7068 109.851 48.8101C108.058 49.3264 106.885 50.2215 106.264 51.4952C105.678 52.7689 105.678 54.3868 106.264 56.4179L112.678 72.4597C115.471 76.5906 117.782 78.9659 119.575 79.5855L136.403 104.13C137.644 105.473 139.092 106.781 140.748 108.02C143.023 109.845 146.161 111.738 150.196 113.666C154.851 115.525 159.851 117.211 165.162 118.761L172.713 122.41C174.127 122.891 175.507 123.167 176.886 123.167C177.058 123.167 177.265 123.167 177.438 123.167C179.369 123.132 181.024 122.065 182.334 119.965C182.541 119.518 182.714 119.036 182.817 118.485C182.3 117.659 181.748 116.764 181.093 115.8C180.955 115.628 180.714 115.525 180.438 115.525C179.472 115.525 177.714 116.42 175.162 118.175L171.196 116.97C171.196 116.97 171.196 116.97 171.162 116.97C171.024 116.97 170.334 116.454 169.058 115.387C164.989 112.082 159.231 105.473 151.713 95.524C147.092 86.5392 143.61 80.8592 141.265 78.4839L136.679 73.9399L114.092 54.4557C112.954 53.2508 112.127 51.7361 111.678 49.9116C111.471 49.6018 111.333 49.0855 111.264 48.4658Z" fill="#940027" fill-opacity="0.1765"/>
<path d="M108.299 49.4287C107.333 49.9451 106.644 50.6336 106.264 51.4942C105.678 52.7679 105.678 54.3858 106.264 56.4169L112.678 72.4587C115.471 76.5896 117.782 78.9649 119.575 79.5845L136.403 104.129C137.644 105.472 139.092 106.78 140.748 108.019C143.023 109.844 146.161 111.737 150.196 113.665C154.851 115.524 159.851 117.21 165.162 118.76L172.713 122.409C174.127 122.89 175.507 123.166 176.886 123.166C177.058 123.166 177.265 123.166 177.438 123.166C178.093 123.166 178.679 123.028 179.265 122.787C179.058 122.271 178.748 121.651 178.334 120.894C177.714 120.309 177.127 119.964 176.576 119.861C175.231 120.205 174.058 120.377 173.058 120.377C171.886 120.377 170.955 120.136 170.265 119.655C168.851 119.069 166.886 117.589 164.403 115.179C163.955 114.973 163.369 114.87 162.679 114.87C162.541 114.87 162.403 114.87 162.231 114.87L161.162 112.666C159.61 112.46 158.334 111.324 157.334 109.293C155.196 108.432 153.989 107.881 153.644 107.537C152.506 103.957 148.161 98.2425 140.644 90.3594C136.61 82.8548 134.161 78.5862 133.265 77.519C132.299 76.0732 126.851 71.839 116.954 64.7476C116.023 63.9558 115.127 63.0608 114.264 62.028C111.506 57.8283 109.747 54.2137 108.92 51.2532C108.713 50.7024 108.506 50.0828 108.299 49.4287Z" fill="#940027" fill-opacity="0.1765"/>
<path d="M99.9194 65.0918L98.7125 65.1262C95.1952 65.6426 92.54 66.6065 90.7124 68.0523L89.6089 68.8441L87.0571 72.9406C87.2296 74.8683 86.9537 77.278 86.1951 80.1697C82.1605 93.2854 80.1605 100.239 80.195 100.962C79.7122 105.988 79.8502 109.844 80.5398 112.529C80.8846 114.284 81.6778 116.453 82.8502 119.069L84.3674 121.789C84.4709 122.374 87.1951 126.057 92.5745 132.908C97.4366 138.829 103.919 146.058 112.023 154.63L118.333 159.966H118.575C119.575 160.103 120.989 159.415 122.782 157.9C123.609 156.282 124.058 155.215 124.196 154.767C124.713 151.841 125.575 147.71 126.851 142.409C129.368 132.116 131.609 123.407 133.54 116.212L134.403 112.047C134.92 109.224 135.196 106.022 135.161 102.477C134.954 98.3114 134.713 95.7984 134.437 95.0066C133.196 87.089 129.851 80.6172 124.437 75.5568C123.058 73.9733 118.644 72.0111 111.161 69.6702C108.299 67.6736 106.471 66.5032 105.678 66.159C103.988 65.4705 102.057 65.1262 99.9194 65.0918Z" fill="#E2859E"/>
<path d="M99.9194 65.0918L98.7125 65.1262C95.1952 65.6426 92.54 66.6065 90.7124 68.0523L89.6089 68.8441L87.0571 72.9406C87.2296 74.8683 86.9537 77.278 86.1951 80.1697C82.1605 93.2854 80.1605 100.239 80.195 100.962C79.7122 105.988 79.8502 109.844 80.5398 112.529C80.8846 114.284 81.6778 116.453 82.8502 119.069L84.3674 121.789C84.4709 122.374 87.1951 126.057 92.5745 132.908C97.4366 138.829 103.919 146.058 112.023 154.63L118.333 159.966H118.575C118.678 159.966 118.747 160 118.851 160C119.851 160 121.161 159.311 122.816 157.934C123.644 156.317 124.092 155.249 124.23 154.802C124.471 153.459 124.747 151.91 125.161 150.086C124.575 149.019 123.644 148.33 122.402 147.951C121.92 147.848 121.402 147.779 120.816 147.779C119.161 147.779 117.057 148.192 114.506 148.984C113.954 148.984 113.402 148.468 112.782 147.469C111.437 145.266 110.333 141.686 109.402 136.695C109.092 135.249 108.851 129.982 108.644 120.894C108.264 117.899 107.678 115.283 106.885 113.011C105.85 109.912 104.333 106.883 102.333 103.854C101.264 102.339 98.4021 99.2753 93.7124 94.6624C92.9538 93.7673 92.4365 92.8723 92.1607 91.9773C91.7814 90.738 91.8503 89.602 92.402 88.5348C93.5745 86.4005 94.8848 84.7481 96.2641 83.5777C94.9193 83.8875 93.5745 84.3695 92.2641 84.9891L86.9882 87.8808C88.0572 83.8531 89.3675 80.5484 90.9538 77.9665C91.2641 77.1403 92.6089 75.4191 94.9538 72.8717C95.9538 71.9423 96.9883 71.1505 98.1262 70.4964C101.195 68.8096 104.471 67.8113 107.988 67.5015C106.919 66.813 106.161 66.3655 105.747 66.159C103.988 65.4705 102.057 65.1262 99.9194 65.0918Z" fill="#851849" fill-opacity="0.1765"/>
<path d="M82.7469 97.4854L82.3676 97.5198C81.8159 97.6575 81.2642 98.0706 80.7124 98.7246C80.3676 99.9639 80.2297 100.687 80.2297 100.893C79.7469 105.919 79.8848 109.775 80.5745 112.46C80.9193 114.216 81.7125 116.384 82.8849 119.001L84.4022 121.72C84.5056 122.305 87.2297 125.989 92.6091 132.839C97.4713 138.76 103.954 145.989 112.058 154.561L118.368 159.897H118.609C118.713 159.897 118.782 159.931 118.885 159.931C119.885 159.931 121.196 159.243 122.851 157.866C123.368 156.799 123.782 156.007 123.989 155.456C123.368 154.217 122.851 153.356 122.368 152.84C122.161 152.599 121.885 152.392 121.472 152.186C120.299 151.635 118.265 151.325 115.402 151.291C114.196 150.809 112.989 150.12 111.851 149.225C109.851 147.883 107.333 145.232 104.333 141.308C103.678 140.413 103.058 139.449 102.437 138.45L89.816 115.386C89.2298 114.25 88.1608 110.395 86.5746 103.854L85.2642 100.274C84.7125 98.5181 83.8849 97.623 82.7469 97.4854Z" fill="#851849" fill-opacity="0.1765"/>
<path d="M126.541 82.8196L126.127 82.854C125.024 83.0261 124.196 83.8179 123.575 85.2981C123.748 86.0899 124.161 87.0882 124.817 88.2931C126.575 90.0143 127.437 90.9437 127.472 91.1503C127.886 92.8371 128.472 94.6616 129.196 96.6238C129.299 97.2778 129.162 97.7598 128.817 98.104C128.472 98.3794 128.161 98.5171 127.817 98.5171C127.575 98.5171 127.334 98.4483 127.093 98.2761C125.679 97.0024 124.024 95.6943 122.127 94.3862C119.748 92.665 118.368 91.8044 118.058 91.8044C118.023 91.8044 117.989 91.8044 117.989 91.8388C117.954 91.8388 117.886 91.8388 117.851 91.8388C117.437 91.8388 117.092 92.0109 116.851 92.3896C115.299 95.2468 114.541 96.968 114.472 97.6221C114.679 99.3089 115.368 101.374 116.575 103.818C116.817 104.3 117.23 104.714 117.748 105.127C119.575 105.884 120.644 106.469 120.92 106.813C121.161 107.089 121.368 107.467 121.541 107.949C121.886 108.948 122.127 109.877 122.265 110.669L122.817 111.667C123.161 112.115 124.817 112.562 127.817 113.044C128.024 113.148 128.196 113.354 128.299 113.733C128.334 115.454 127.92 116.521 127.093 116.9C126.644 117.21 126.196 117.347 125.782 117.347C124.472 116.728 123.679 116.383 123.403 116.383C123.368 116.383 123.368 116.383 123.334 116.383C123.058 116.418 122.817 116.659 122.644 117.106C122.23 118.518 121.989 120.514 121.851 123.062C121.748 125.334 121.886 127.399 122.265 129.258C122.334 129.465 122.437 129.671 122.541 129.843C124.196 132.219 125.058 133.596 125.127 133.94L128.61 135.041C130.403 127.847 132.058 121.513 133.506 116.074L134.368 111.908C134.886 109.085 135.162 105.884 135.127 102.338C134.92 98.1729 134.679 95.6599 134.403 94.8681C133.955 91.9421 133.196 89.1881 132.162 86.6407C131.817 86.3309 131.472 86.0211 131.127 85.7112C129.851 84.6097 128.472 83.6113 127.058 82.7852L126.541 82.8196Z" fill="#851849" fill-opacity="0.1765"/>
<path d="M122.747 155.662L122.437 155.938C122.333 156.041 122.023 156.282 121.575 156.592C121.402 156.695 121.23 156.798 121.092 156.867C120.954 156.936 120.782 156.97 120.678 157.005C120.609 157.005 120.437 157.039 120.161 157.039C119.816 157.039 119.333 156.97 118.747 156.833L118.264 156.695L117.747 156.557C117.609 156.523 116.989 156.316 115.92 155.938C115.816 155.903 115.747 155.938 115.713 155.972C115.678 156.006 115.609 156.075 115.575 156.178C115.506 156.419 115.506 156.557 115.54 156.592C115.575 156.764 115.678 156.901 115.851 157.039C117.023 157.969 117.885 158.588 118.437 158.864C118.644 158.967 118.816 159.036 118.954 159.07C119.333 159.139 119.575 159.173 119.747 159.173C119.782 159.173 119.885 159.173 120.058 159.139C120.195 159.105 120.299 159.036 120.437 158.967C120.713 158.76 120.92 158.554 121.092 158.347C121.299 158.106 121.506 157.796 121.747 157.452L121.92 157.177L122.747 155.662Z" fill="#851849" fill-opacity="0.1765"/>
<path d="M86.2299 98.173L84.3678 98.2763C79.4712 98.8615 74.9195 101.753 70.7125 106.951L68.0918 138.14L68.2987 139.172L68.678 140.136C68.9883 140.722 69.3677 141.272 69.8849 141.754C70.4022 142.236 71.0229 142.649 71.747 143.028C74.6091 144.164 77.0574 144.646 79.0575 144.439C81.8161 144.233 84.9541 143.235 88.5058 141.445C89.4024 141.1 91.0576 139.689 93.4714 137.21C96.8852 133.114 99.2301 129.568 100.575 126.539C102.127 123.372 103.092 120.446 103.472 117.795C103.472 116.039 103.403 114.938 103.265 114.559C103.023 113.079 102.54 111.564 101.851 110.015C101.506 109.223 101.092 108.431 100.644 107.64C98.6784 104.92 97.506 103.44 97.1611 103.199C95.368 101.34 94.3335 100.376 94.0231 100.307C93.3679 99.8254 92.7473 99.4811 92.1266 99.2401C89.8851 98.4828 87.9196 98.1386 86.2299 98.173Z" fill="#BD4187"/>
<path d="M103.437 117.21C100.403 121.961 98.2991 124.887 97.0921 126.057C95.5404 127.778 92.7473 129.947 88.7472 132.632C87.3334 133.458 85.9196 134.181 84.5403 134.801C83.8161 135.214 81.8161 135.971 78.5402 137.038C77.8506 137.348 75.9885 137.658 72.885 138.071C72.2988 138.106 71.747 138.14 71.1608 138.14C70.3332 138.14 69.5056 138.106 68.6435 138.002L68.0918 138.381L68.2642 139.242L68.6435 140.205C68.9539 140.791 69.3332 141.341 69.8504 141.823C70.3677 142.305 70.9884 142.718 71.7125 143.097C74.1264 144.061 76.2298 144.543 78.0574 144.543C78.4023 144.543 78.7471 144.509 79.0575 144.474C81.8161 144.268 84.9541 143.269 88.5058 141.479C89.4024 141.135 91.0576 139.724 93.4714 137.245C96.8852 133.148 99.2301 129.603 100.575 126.573C102.127 123.406 103.092 120.48 103.472 117.83C103.437 117.589 103.437 117.382 103.437 117.21Z" fill="#C9578A"/>
<path d="M86.8847 104.576L82.2984 105.368C81.7467 105.471 81.1605 105.712 80.5053 106.091C80.0571 106.297 79.195 106.951 77.8846 108.087L77.6777 129.293C77.9536 129.637 78.5053 129.775 79.4019 129.637C80.0226 129.568 81.264 129.155 83.1261 128.398L85.0571 128.226C85.8502 127.95 86.5054 127.572 87.0571 127.193C87.5054 126.849 88.264 125.747 89.333 123.819C89.3675 123.647 89.333 123.475 89.2641 123.303L88.2296 121.272C88.1951 121.134 88.1606 120.997 88.2296 120.893C88.2641 120.825 88.402 120.859 88.6434 120.962L90.6779 121.995C90.8158 122.064 90.9537 122.064 91.0572 122.029C91.1261 121.444 91.2296 121.1 91.3331 120.997C92.4365 120.343 93.0572 119.757 93.1262 119.172C93.3676 118.38 93.4021 117.141 93.2296 115.489C93.0917 114.353 92.8503 113.32 92.471 112.494C92.2986 112.081 92.0572 111.668 91.8158 111.323L91.4365 110.807L91.8158 109.637C91.7469 109.533 91.6779 109.464 91.5744 109.464H90.471C90.3331 109.43 90.2296 109.327 90.1951 109.189C90.8158 107.881 91.0917 107.124 91.0917 106.986C91.1261 106.504 91.0917 106.229 90.9882 106.125C90.6779 105.437 89.2985 104.92 86.8847 104.576Z" fill="#B2367C"/>
<path d="M81.9886 108.983L81.8507 109.018C81.6782 109.156 81.5403 109.534 81.4368 110.188C81.3679 110.842 81.2989 111.737 81.3334 112.908L80.4023 121.755C81.5748 121.927 82.5403 121.893 83.2989 121.583C83.8507 121.376 84.3679 121.101 84.8507 120.722C85.161 120.447 85.3335 120.309 85.3335 120.343C85.5748 120.068 85.7128 119.862 85.7818 119.724C86.1956 119.035 86.5749 118.244 86.9887 117.314L87.0921 116.97C87.1266 116.66 87.1611 116.385 87.1956 116.109C87.2645 115.662 87.3335 115.352 87.368 115.18C87.368 115.145 87.368 115.077 87.368 115.042C87.3335 114.836 87.2645 114.663 87.1611 114.491C87.0576 114.354 86.7818 114.044 86.299 113.596C86.23 113.527 86.1955 113.424 86.1611 113.321C86.1266 113.183 86.1266 113.045 86.1611 112.977C86.4024 112.46 86.5404 112.15 86.5748 112.047C86.6438 111.841 86.6093 111.634 86.5059 111.462C86.4024 111.359 86.2645 111.255 86.0921 111.152L86.0231 111.118C85.3679 110.842 84.7128 110.498 84.0576 110.154C83.3679 109.81 82.7472 109.431 82.1955 109.018L81.9886 108.983Z" fill="#C74E91"/>
<path d="M100.54 123.716L97.6091 127.606L96.0574 129.396C94.9884 130.532 93.816 131.634 92.6091 132.632C90.1608 134.663 87.4366 136.419 84.4021 137.899C81.2297 139.345 78.1261 140.033 75.0227 140.033C72.7468 140.033 70.4709 139.655 68.264 138.863L68.2295 138.897L68.2984 139.173L68.6777 140.137C68.9881 140.722 69.3674 141.273 69.8847 141.754C70.4019 142.236 71.0226 142.65 71.7468 143.028C74.1606 143.992 76.2641 144.474 78.0917 144.474C78.4365 144.474 78.7813 144.44 79.0917 144.405C81.8503 144.199 84.9883 143.2 88.5401 141.41C89.4367 141.066 91.0918 139.655 93.5056 137.176C94.816 135.592 95.9884 134.078 97.0229 132.632C98.9885 129.362 100.195 127.124 100.609 125.919C101.126 124.473 101.126 123.716 100.54 123.716Z" fill="#64001A" fill-opacity="0.1765"/>
<path d="M67.0571 103.2L65.8847 103.234C61.1605 103.613 56.4708 105.919 51.8845 110.188C50.0224 111.909 48.4017 113.768 47.0569 115.799C45.4361 118.484 44.6086 119.999 44.6086 120.309C44.2292 121.238 43.9534 122.202 43.7465 123.2C42.8154 128.536 43.6775 133.872 46.2982 139.277C46.781 140.172 47.3327 140.998 47.9534 141.721C48.5741 142.444 49.2293 143.098 49.9534 143.683L51.0914 144.475C52.5741 145.301 54.5397 145.783 56.9535 145.92C59.7811 145.92 62.6777 144.922 65.5743 142.96C67.0226 141.962 68.5054 140.722 69.9882 139.242L72.2296 136.832C73.7123 135.111 75.2296 133.115 76.7469 130.911C79.1607 126.333 80.678 122.477 81.3331 119.379C82.1607 115.455 81.1952 111.944 78.5055 108.811C77.8848 108.088 77.1607 107.468 76.3331 106.883L75.0572 106.057C74.7468 105.919 73.1951 105.093 70.3675 103.544C68.9881 103.269 67.9192 103.165 67.0571 103.2Z" fill="#BD4187"/>
<path d="M76.471 106.986C76.6435 107.331 76.8158 107.64 76.9538 107.95C77.3676 108.88 77.6779 109.775 77.7814 110.601L77.8504 111.771C77.2642 116.04 76.609 119.379 75.8159 121.754C75.4021 122.994 74.5055 124.68 73.0572 126.849L71.471 129.018L68.4365 132.667C67.4709 133.7 66.4709 134.629 65.5054 135.421C62.5743 137.831 59.6777 139.242 56.8156 139.586C56.3329 139.69 55.8501 139.724 55.2984 139.724C53.4018 139.724 51.0914 139.173 48.4017 138.037C47.781 137.865 46.6431 137.142 44.9189 135.937C45.2983 137.039 45.781 138.14 46.2983 139.242C46.781 140.137 47.3327 140.963 47.9534 141.686C48.5741 142.409 49.2293 143.063 49.9535 143.648L51.0914 144.44C52.5742 145.266 54.5397 145.748 56.9535 145.886C59.7812 145.886 62.6777 144.888 65.5743 142.925C67.0226 141.927 68.5054 140.688 69.9882 139.208L72.2296 136.798C73.7124 135.077 75.2296 133.08 76.7469 130.877C79.1607 126.298 80.678 122.443 81.3332 119.345C82.1608 115.42 81.1952 111.909 78.5055 108.776C77.8503 108.157 77.1952 107.537 76.471 106.986Z" fill="#D678A2"/>
<path d="M66.3678 111.634L65.954 111.944C64.885 112.736 64.2298 113.527 63.9884 114.216L64.2988 111.634C64.1609 112.15 63.954 112.563 63.7126 112.908C63.5747 113.218 63.1609 113.527 62.5746 113.837C62.3677 113.94 62.0919 114.009 61.747 114.044C60.3677 114.078 59.4367 114.147 58.9539 114.216C58.2643 114.319 57.816 114.422 57.6435 114.56C57.5056 114.663 57.3677 114.767 57.2987 114.904C56.9539 115.593 56.678 116.04 56.4711 116.247C56.2298 116.557 55.6091 116.901 54.5746 117.314L53.9539 118.622C52.7469 119.173 52.1262 119.586 52.0573 119.861C52.0228 119.965 52.0228 120.068 52.0573 120.171C52.1262 120.378 52.3676 120.722 52.7469 121.204C52.8159 121.342 52.8504 121.514 52.8849 121.755C52.9194 121.927 52.6435 122.443 52.0228 123.338C51.9883 123.373 52.0228 123.476 52.0918 123.545C52.4366 123.717 52.609 123.855 52.6435 123.992L52.0573 125.06C51.9538 125.266 51.9193 125.473 51.8849 125.645C51.8159 125.989 51.8504 126.264 52.0228 126.505C52.1263 126.643 52.2642 126.712 52.4021 126.712C53.0918 126.609 53.4711 126.609 53.5745 126.678C53.609 126.815 53.6435 126.918 53.609 127.056C53.3676 127.745 53.2642 128.123 53.2987 128.192C53.2642 128.295 53.5401 128.261 54.0918 128.02C54.1608 128.02 54.1952 128.02 54.2642 128.089C54.2642 128.777 54.2642 129.122 54.2987 129.19C54.3332 129.397 54.4021 129.569 54.4711 129.741C54.609 130.051 54.8504 130.292 55.2297 130.464C55.4366 130.567 55.6435 130.533 55.8504 130.292C55.9539 130.189 56.1953 129.569 56.5401 128.433C56.6091 128.295 56.7125 128.192 56.8849 128.123C57.0229 128.02 57.5056 128.468 58.3332 129.431C58.4711 129.535 58.6435 129.535 58.8504 129.431C58.9539 129.363 59.0229 129.259 59.0574 129.156C59.1608 128.364 59.2987 127.882 59.4712 127.71L61.1953 127.297C61.4367 126.953 61.816 126.643 62.2643 126.333C62.5402 126.127 63.2988 125.714 64.5747 125.163C64.6437 125.128 64.6436 125.06 64.6092 124.991L63.9195 124.543C63.885 124.474 63.9195 124.371 64.0574 124.268L67.1609 122.994C67.1609 122.925 67.1609 122.891 67.0919 122.856C66.6092 122.684 66.4023 122.547 66.4023 122.443C67.5402 121.514 68.092 120.963 68.023 120.757C68.023 120.688 67.9885 120.653 67.954 120.584C67.2644 120.481 66.9885 120.343 67.023 120.171C67.9885 119.104 68.4713 118.519 68.5057 118.45L69.8851 115.008C69.8506 114.836 69.7816 114.767 69.6437 114.801C68.7127 115.214 68.023 115.49 67.5747 115.627C67.1609 115.765 66.9195 115.765 66.8506 115.662C66.7816 115.593 66.7816 115.49 66.8161 115.317L67.8851 113.527L65.7126 114.354C65.5057 114.422 65.3678 114.422 65.3678 114.388C65.2988 114.319 65.2988 114.25 65.3678 114.147C65.9195 113.527 66.2298 113.114 66.2643 112.908L66.4713 111.6C66.4368 111.703 66.4023 111.668 66.3678 111.634Z" fill="#D75EA2"/>
<path d="M65.0229 106.47L63.816 106.538C60.5746 106.848 57.2643 108.432 53.8849 111.255C52.8504 112.081 51.7469 113.251 50.5745 114.8C49.7124 116.625 48.6435 118.518 47.3676 120.48C47.2296 121.169 47.2641 121.823 47.471 122.408C47.471 122.477 47.3676 122.718 47.1262 123.131L47.54 123.613C46.6779 124.233 46.2641 125.506 46.3331 127.4L46.4365 127.778L47.3331 129.431C47.6435 129.637 47.8158 129.74 47.8158 129.809C47.6089 130.05 47.54 130.463 47.6779 131.083C47.6779 131.427 48.0917 132.46 48.8848 134.181C49.2642 134.835 49.5745 135.248 49.8848 135.386C50.1262 135.524 50.54 135.524 51.1607 135.386L51.8159 136.04C53.5056 136.247 54.8504 136.35 55.816 136.315C56.4711 136.384 57.4022 135.799 58.5746 134.525C59.0574 134.698 60.1263 134.284 61.747 133.355C62.7815 132.735 64.0919 131.806 65.6781 130.567C65.9885 130.326 66.0574 129.913 65.885 129.327C65.5747 128.708 65.0574 127.778 64.2988 126.573L66.3678 127.365C66.6092 127.434 66.8161 127.468 66.9885 127.468C67.3333 127.537 67.885 127.159 68.6782 126.401L69.2989 125.747L71.1954 122.718L72.6437 118.312C72.6782 118.105 72.6782 117.898 72.6092 117.623C72.161 117.038 71.9541 116.659 71.9886 116.556C72.092 116.315 72.4368 115.902 73.092 115.351C73.1955 115.213 73.23 115.076 73.23 114.903C72.9196 112.425 72.3334 110.463 71.4023 109.017C71.161 108.501 70.8506 108.26 70.4023 108.225C70.1609 108.225 69.954 108.225 69.7127 108.294L67.3333 108.81C67.2644 108.776 67.1954 108.742 67.1609 108.638L68.8506 107.089C67.2988 106.642 66.023 106.435 65.0229 106.47Z" fill="#850D50" fill-opacity="0.1961"/>
<path d="M77.0227 122.754H76.8848C75.7813 125.095 74.5744 127.195 73.2641 129.088C71.9882 130.981 70.6089 132.668 69.1261 134.148C66.195 137.074 62.9191 139.14 59.2984 140.379C56.7121 141.171 54.988 141.55 54.1604 141.55C54.1259 141.55 54.0569 141.55 54.0224 141.55L52.3673 141.446C51.4707 141.309 50.5397 141.068 49.6086 140.723C48.4707 140.276 47.2982 139.622 46.0913 138.83C46.1603 139.002 46.2293 139.14 46.3327 139.312C46.8155 140.207 47.3672 141.033 47.9879 141.756C48.6086 142.479 49.2638 143.133 49.9879 143.718L51.1259 144.51C52.6087 145.336 54.5742 145.818 56.988 145.956C59.8156 145.956 62.7122 144.958 65.6088 142.995C67.0571 141.997 68.5399 140.758 70.0226 139.278L72.264 136.868C72.4365 136.661 72.6434 136.42 72.8503 136.214C73.3331 135.422 73.7813 134.63 74.2296 133.839L75.8158 130.568L77.5055 126.231C78.0572 123.89 77.9538 122.754 77.0227 122.754Z" fill="#940027" fill-opacity="0.1765"/>
<path d="M132.196 46.123C130.402 46.9492 128.644 47.9131 126.851 48.9458C124.023 51.0113 123.092 53.3522 124.023 55.934C125.23 59.1011 126.954 60.96 129.265 61.5108C131.851 60.9944 133.471 60.7534 134.092 60.7534C134.161 60.7534 134.23 60.7534 134.265 60.7534L138.678 62.6468C140.334 62.3025 142.472 61.3042 145.058 59.7207C145.196 59.6863 145.368 59.6518 145.506 59.6518C146.058 59.6518 146.713 59.9617 147.403 60.5469C147.92 61.1321 147.989 61.6829 147.644 62.1648C145.437 64.4024 144.368 65.7105 144.437 66.1581L145.368 73.3528C147.334 75.6592 149.23 78.964 151.161 83.267C151.885 84.3342 152.644 85.1948 153.472 85.8144C153.61 85.8833 153.713 85.9177 153.851 85.9177C154.058 85.9177 154.265 85.8488 154.437 85.6767C157.403 82.1654 159.713 79.6869 161.368 78.2755C162.368 77.4493 163.058 77.0018 163.403 77.0018C163.472 77.0018 163.541 77.0362 163.575 77.0706C163.782 77.7247 162.23 80.5475 158.92 85.5734C158.575 86.3652 158.472 87.1914 158.575 88.1209C158.679 88.293 158.782 88.3618 158.886 88.3618C158.955 88.3618 159.023 88.3274 159.092 88.293L162.851 85.4357C163.024 85.3325 163.161 85.2981 163.299 85.2981C163.437 85.2981 163.575 85.3669 163.679 85.4702C163.851 85.6767 163.817 86.6062 163.61 88.293C164.299 87.9832 164.817 87.8455 165.161 87.8455C165.61 87.8455 165.782 88.0864 165.713 88.5339C165.782 88.8438 165.093 90.8404 163.679 94.4894C163.61 95.109 163.886 96.0385 164.541 97.3466C165.127 98.4138 165.817 99.3432 166.644 100.101C169.127 100.755 170.541 101.271 170.817 101.684C173.541 107.433 175.334 110.462 176.162 110.807C176.472 110.807 176.782 110.531 177.093 109.946C177.265 109.946 177.748 108.431 178.506 105.436C178.748 104.438 178.955 103.336 179.196 102.063C176.713 93.973 174.782 86.8816 173.334 80.754C171.989 76.8296 170.644 73.7659 169.231 71.5627C163.506 63.6451 157.368 57.6897 150.851 53.6276C143.816 49.118 137.609 46.6394 132.196 46.123Z" fill="#F1D2DA" fill-opacity="0.4824"/>
<path d="M87.4713 51.458C85.5403 52.1121 84.2644 52.4907 83.6437 52.6284C69.0228 55.0037 60.9538 56.7249 59.471 57.8265C53.8502 60.2018 48.7467 63.7131 44.1605 68.2916C42.0915 70.3914 40.057 72.8356 38.0225 75.6584C36.7121 77.2419 33.2638 84.4366 27.6775 97.2769L19.436 108.637C19.5395 108.671 19.6774 108.671 19.8153 108.671C19.9188 108.671 20.0567 108.671 20.1946 108.637C20.574 108.534 20.9878 108.293 21.436 107.914C27.0568 102.406 31.6776 98.2064 35.2983 95.2803C36.0224 94.4541 36.781 92.905 37.4707 90.633C38.4707 89.8412 39.988 89.2216 42.057 88.7741C42.8846 87.5348 42.8846 85.5382 42.057 82.7498L45.8157 79.9959C46.8502 76.8977 47.7122 74.9699 48.4364 74.247C49.3674 73.7995 50.195 73.5929 50.8847 73.5929C51.7468 73.5929 52.4364 73.9372 52.9192 74.6601C53.1261 75.3486 52.6778 77.9648 51.6088 82.5088C51.5398 83.0252 51.5743 83.5072 51.7468 83.9202C51.7123 84.0579 52.0916 84.1268 52.8847 84.1268C53.7123 84.1268 54.9537 84.0579 56.6434 83.9202C57.1606 84.0235 57.2296 84.3333 56.8848 84.8153C59.6089 82.8531 61.9883 80.8909 63.9538 78.9976L66.609 76.1748C67.1262 75.6928 68.0918 74.3503 69.5056 72.0782C69.5401 72.1471 69.5401 72.2159 69.6091 72.2159C69.6435 72.2159 69.7125 72.1815 69.8159 72.0782C70.4022 71.2521 71.7815 67.1556 73.9194 59.7543C74.3677 58.756 74.816 58.0675 75.1953 57.6888C80.7126 54.9693 84.8161 52.9383 87.4713 51.458Z" fill="#F1D2DA" fill-opacity="0.4824"/>
</svg>
