<svg width="200" height="200" viewBox="0 0 200 200" fill="none" xmlns="http://www.w3.org/2000/svg">
<g clip-path="url(#clip0_2008_24406)">
<path d="M144 124.381C144 103.184 133.022 83.8188 127.752 75.7936C122.483 67.7684 123.01 31.8293 123.01 31.8293L120.902 27.7295L93.7645 29.2124L79.01 27.7295L76.99 31.8293C76.99 31.8293 77.517 67.7684 72.2475 75.7936C66.978 83.8188 56 103.184 56 124.381C56 145.578 60.479 173.492 60.479 173.492C60.479 178.813 78.0439 183.087 99.8244 183.087C121.517 183.087 139.082 178.813 139.17 173.579H139.521C139.521 173.492 144 145.578 144 124.381Z" fill="url(#paint0_linear_2008_24406)"/>
<path d="M140.311 125.951C139.082 107.72 135.393 92.0183 126.874 81.4634C100.878 81.2889 76.1996 81.2889 76.1996 81.2889L72.9501 81.2017C72.9501 81.2017 59.2495 96.1181 59.7765 126.998C60.3034 157.877 64.8703 174.102 64.8703 174.102C64.8703 177.33 80.6787 180.994 99.9122 180.994C119.146 180.994 134.603 177.243 134.603 174.102C134.691 174.102 141.541 144.182 140.311 125.951Z" fill="white"/>
<path d="M126.611 81.4634C126.611 83.9059 114.579 85.9122 99.8243 85.9122C84.982 85.9122 73.0378 83.9059 73.0378 81.4634C73.0378 79.021 85.0698 77.0146 99.8243 77.0146C114.579 77.0146 126.611 79.021 126.611 81.4634Z" fill="#F1F1F2"/>
<path d="M99.8243 77.0146C91.5688 77.0146 84.4551 77.7997 81.2934 79.021C84.016 79.3699 84.4551 81.2017 84.1038 82.5102C87.7924 83.2953 93.501 83.7314 99.8243 83.7314C103.952 83.7314 107.816 83.5569 110.978 83.208C110.1 81.3762 109.485 79.4571 109.046 77.4508C106.323 77.1891 103.162 77.0146 99.8243 77.0146Z" fill="#E7E8E9"/>
<path d="M85.421 38.6328C85.2454 38.6328 85.0697 38.6328 84.8063 38.72C82.3472 39.069 81.6446 43.1688 81.8202 48.4026C81.9959 53.5493 82.1715 66.4594 80.7664 68.3785C80.7664 68.3785 84.0159 69.2508 85.948 69.2508C86.3871 69.2508 86.8262 69.1636 87.0897 69.0763C88.3193 68.3785 89.0218 49.7983 88.8462 43.605C88.4949 40.3774 87.441 38.6328 85.421 38.6328Z" fill="#E8F6FF"/>
<path d="M78.3952 84.1675C78.483 84.4292 78.6587 84.6036 78.8343 84.6909C79.3613 85.0398 79.8882 85.2142 80.4152 85.2142C80.9421 85.2142 81.5569 85.0398 81.996 84.7781C80.7665 84.6036 79.4491 84.4292 78.3952 84.1675Z" fill="white"/>
<path d="M80.2396 79.021C79.8883 79.021 79.537 79.021 79.1857 79.1082C79.1857 79.1082 77.6049 82.5975 78.3953 84.2548C79.4492 84.5165 80.7666 84.691 82.084 84.9527C82.7865 84.6038 83.4013 84.0804 83.7526 83.4698C83.9283 83.2081 84.0161 82.9464 84.1039 82.6847C81.2057 82.0741 79.537 81.3762 79.537 80.5912C79.537 80.0678 80.1518 79.6316 81.2935 79.1955C80.9422 79.021 80.6788 79.021 80.2396 79.021Z" fill="#F8F8F9"/>
<path d="M81.2935 79.021C80.1518 79.4571 79.537 79.8933 79.537 80.4167C79.537 81.2018 81.2935 81.9868 84.1039 82.5102C84.4552 81.2018 84.016 79.3699 81.2935 79.021Z" fill="#F4F4F4"/>
<path d="M80.9422 128.83V128.394C80.7665 127.871 80.4152 127.522 79.9761 127.347C79.537 127.173 79.0979 126.998 78.5709 126.998C78.3075 127.086 78.044 127.173 77.8683 127.26C77.6927 127.347 77.517 127.522 77.4292 127.609C77.2536 127.783 77.1657 127.871 77.0779 128.045C76.9901 128.22 76.8144 128.394 76.6388 128.568V137.117C76.6388 137.815 76.4631 138.338 76.024 138.687C75.5849 139.036 75.1458 139.298 74.7067 139.298C74.1797 139.385 73.7406 139.211 73.3015 138.949C72.8623 138.687 72.6867 138.164 72.5989 137.466C72.511 135.809 72.511 133.89 72.511 131.796C72.511 129.702 72.511 127.26 72.511 124.643C72.511 124.207 72.6867 123.771 72.9502 123.509C73.2136 123.247 73.5649 122.986 73.9162 122.898C74.2675 122.811 74.7067 122.811 75.1458 122.898C75.5849 122.986 75.8484 123.247 76.1118 123.596C77.3414 122.986 78.5709 122.811 79.8005 122.986C81.03 123.247 82.1717 123.771 83.1378 124.73C83.5769 124.294 84.016 123.945 84.543 123.596C85.0699 123.247 85.5969 122.986 86.2116 122.898C86.9142 122.811 87.6168 122.811 88.3194 122.986C89.022 123.16 89.6368 123.422 90.2516 123.771C90.8663 124.12 91.3933 124.556 91.8324 125.166C92.2715 125.69 92.6228 126.3 92.7985 126.911C92.8863 127.347 92.9741 127.696 92.9741 128.045V136.943C92.9741 137.204 92.9741 137.466 92.8863 137.728C92.7106 138.251 92.3594 138.687 91.9202 138.949C91.4811 139.211 91.042 139.298 90.6029 139.211C90.1637 139.123 89.7246 138.949 89.4611 138.6C89.1098 138.251 88.9342 137.815 88.9342 137.204V128.394C88.7586 127.871 88.4073 127.522 88.056 127.26C87.7047 126.998 87.2655 126.911 86.9142 126.911C86.5629 126.911 86.1238 127.086 85.7725 127.347C85.4212 127.609 85.1578 127.958 84.8943 128.394V136.943C84.8943 137.553 84.7186 137.989 84.2795 138.425C83.9282 138.774 83.4891 139.036 82.9621 139.211C82.523 139.298 82.0839 139.298 81.6448 139.123C81.2057 138.949 81.03 138.513 80.9422 137.989V128.83Z" fill="#231F20"/>
<path d="M96.1356 118.711C96.2234 117.926 96.4869 117.316 97.0139 116.967C97.453 116.618 97.9799 116.443 98.5069 116.443C99.0338 116.443 99.5608 116.618 99.9999 117.054C100.439 117.403 100.702 118.014 100.702 118.711C100.702 119.496 100.527 120.02 100.088 120.456C99.6486 120.892 99.2095 121.067 98.5947 121.154C98.0678 121.241 97.5408 121.067 97.0139 120.718C96.4869 120.369 96.2234 119.845 96.1356 119.06V118.711ZM100.527 137.291C100.527 137.728 100.351 138.077 100.088 138.425C99.8242 138.774 99.5608 139.036 99.2095 139.123C98.8582 139.298 98.5069 139.298 98.0678 139.211C97.6286 139.123 97.2773 138.862 97.0139 138.513C96.8382 138.338 96.7504 138.077 96.6626 137.815C96.5747 137.553 96.5747 137.291 96.4869 136.943C96.4869 136.681 96.4869 136.332 96.4869 136.07C96.4869 135.809 96.4869 135.547 96.4869 135.285C96.4869 133.977 96.4869 132.755 96.4869 131.447C96.4869 130.226 96.4869 128.917 96.4869 127.609C96.4869 127.086 96.4869 126.562 96.3991 126.039C96.3113 125.515 96.3991 124.992 96.4869 124.469C96.5747 124.12 96.7504 123.771 97.1017 123.422C97.3652 123.16 97.7165 122.986 98.0678 122.811C98.4191 122.724 98.7703 122.724 99.1216 122.811C99.4729 122.898 99.8242 123.16 100.088 123.509C100.439 123.945 100.615 124.381 100.615 124.818C100.615 125.254 100.615 125.777 100.615 126.388C100.615 127.086 100.615 127.871 100.615 128.568C100.615 129.266 100.615 130.051 100.615 130.749C100.615 131.796 100.615 132.843 100.615 133.889C100.615 134.936 100.615 135.983 100.615 137.03V137.291H100.527Z" fill="#231F20"/>
<path d="M109.046 136.157C109.309 136.331 109.485 136.68 109.661 137.029C109.836 137.378 109.924 137.727 109.924 138.076C109.924 138.425 109.836 138.687 109.661 139.036C109.485 139.297 109.222 139.559 108.782 139.733C108.431 139.821 108.08 139.908 107.729 139.821C107.289 139.733 106.938 139.646 106.587 139.472C106.236 139.297 105.884 139.036 105.533 138.774C105.27 138.512 105.006 138.163 104.918 137.902C104.83 137.814 104.83 137.64 104.83 137.553C104.83 137.378 104.83 137.291 104.83 137.204V119.06C104.83 118.536 105.006 118.1 105.445 117.751C105.796 117.402 106.236 117.228 106.763 117.141C107.026 117.141 107.202 117.141 107.465 117.228C107.729 117.315 107.992 117.402 108.168 117.577C108.431 117.751 108.607 117.926 108.695 118.187C108.87 118.449 108.87 118.624 108.87 118.885C108.87 119.409 108.87 120.194 108.87 121.153C108.87 122.113 108.87 123.072 108.87 124.206C108.87 125.34 108.87 126.474 108.87 127.608C108.87 128.83 108.87 129.964 108.87 131.01C108.87 132.057 108.87 133.104 108.87 133.976C108.87 134.848 108.87 135.634 108.87 136.157H109.046Z" fill="#231F20"/>
<path d="M117.389 138.687C116.95 139.035 116.511 139.123 115.984 139.123C115.545 139.123 115.106 138.948 114.754 138.512C114.403 138.163 114.227 137.64 114.227 137.029V118.449C114.227 118.1 114.315 117.838 114.491 117.577C114.667 117.315 114.93 117.053 115.194 116.879C115.457 116.704 115.808 116.617 116.16 116.53C116.511 116.443 116.774 116.53 117.126 116.53C117.389 116.617 117.653 116.792 117.828 117.053C118.004 117.315 118.18 117.664 118.18 118.1C118.267 119.758 118.267 121.328 118.267 122.636C118.267 124.032 118.267 125.34 118.267 126.736C118.794 126.387 119.233 125.951 119.673 125.602C120.112 125.166 120.551 124.817 120.99 124.381C121.429 123.945 121.78 123.508 122.132 122.985C122.483 122.462 123.01 122.113 123.537 121.938C123.976 121.851 124.327 121.764 124.679 121.851C125.03 121.938 125.381 122.113 125.557 122.374C125.82 122.636 125.996 122.898 126.084 123.247C126.172 123.596 126.172 124.032 125.996 124.381C125.908 124.73 125.645 125.079 125.293 125.515C124.942 125.951 124.503 126.474 123.976 126.91C123.537 127.347 123.01 127.87 122.571 128.219C122.132 128.655 121.693 128.917 121.429 129.178C122.219 129.964 122.922 130.836 123.713 131.708C124.503 132.58 125.206 133.365 125.996 134.238C126.347 134.587 126.611 134.936 126.962 135.197C127.225 135.459 127.489 135.808 127.752 136.244C127.928 136.593 128.016 136.942 127.928 137.291C127.84 137.64 127.752 137.989 127.489 138.25C127.225 138.512 126.962 138.687 126.611 138.861C126.259 139.035 125.908 139.035 125.469 138.861C125.118 138.774 124.766 138.512 124.415 138.25C124.064 137.989 123.713 137.64 123.449 137.291C123.098 136.942 122.834 136.593 122.571 136.244C122.307 135.895 122.044 135.546 121.78 135.285C121.166 134.587 120.551 133.976 120.024 133.278C119.409 132.58 118.882 131.97 118.18 131.359V137.029C118.092 137.902 117.828 138.425 117.389 138.687Z" fill="#231F20"/>
<path d="M76.9899 32.0908C76.4629 32.2653 76.2873 32.6142 76.9899 32.9631C76.9899 32.6142 76.9899 32.2653 76.9899 32.0908Z" fill="#D9F1FC"/>
<g opacity="0.6" style="mix-blend-mode:soft-light">
<path d="M113.964 35.929C113.876 35.929 113.876 35.929 113.876 35.929C110.627 36.0162 107.729 36.1034 105.094 36.1907C113.437 38.7204 105.357 60.4408 109.046 77.3635C115.896 77.7997 121.429 78.672 124.327 79.7188C120.287 75.5317 116.774 71.4319 118.267 68.2916C121.166 62.0982 119.058 47.0945 118.794 41.4245C118.619 36.1907 114.667 35.929 113.964 35.929ZM78.2195 32.527C82.6986 34.2716 95.3453 35.1439 104.04 35.1439C107.729 35.1439 110.715 34.9694 112.12 34.7077C114.93 34.0971 117.389 33.7482 118.97 33.7482C120.2 33.7482 120.99 33.9227 120.99 34.446C120.99 35.4928 121.78 54.858 121.78 60.0046C121.78 65.1512 121.253 73.6999 127.577 79.8932C133.198 85.476 133.812 91.4949 133.637 91.4949C133.637 91.4949 133.637 91.4077 133.549 91.2332C133.022 89.3142 131.529 87.3078 129.597 85.1271C136.271 95.4203 139.257 109.639 140.311 125.864C141.277 140.431 137.15 162.501 135.393 170.788C137.413 168.956 138.731 166.949 138.731 164.42C138.731 163.46 138.731 163.024 138.731 163.024C138.818 163.024 138.994 168.258 138.994 168.258C138.994 168.258 136.359 175.236 132.407 177.068C128.631 178.813 115.896 181.779 107.465 181.779C107.114 181.779 106.762 181.779 106.411 181.779C107.202 181.779 110.275 181.168 114.052 180.296C111.241 180.557 108.168 180.819 104.918 180.906C101.493 181.691 97.7165 182.04 93.501 182.04C92.7984 182.04 92.0958 182.04 91.3932 182.04C94.9062 182.564 98.9461 182.825 102.986 182.825C118.443 182.825 135.481 179.075 137.764 172.968C140.663 165.205 152.168 110.947 127.84 78.0614C119.146 64.3662 123.01 55.3814 122.746 47.0945C122.483 38.8076 122.22 32.8759 122.22 32.8759C122.22 32.8759 121.341 32.8759 119.848 32.8759C115.369 33.9227 107.992 34.5333 99.6487 34.5333C90.5149 34.5333 82.4351 33.7482 78.2195 32.527ZM76.99 32.0908C76.99 32.2653 76.99 32.6142 76.99 32.9631C77.3413 33.1376 77.9561 33.3993 78.9221 33.5737C77.9561 33.0504 77.5169 32.527 77.2535 32.1781C77.0778 32.1781 76.99 32.0908 76.99 32.0908Z" fill="white"/>
</g>
<path d="M116.423 84.953C115.106 85.1274 113.613 85.3019 112.12 85.3891C112.208 85.5636 112.383 85.7381 112.471 85.9125C114.052 85.6508 115.369 85.3891 116.423 84.953ZM126.523 81.8999C126.347 82.2488 125.908 82.5977 125.293 82.8594C125.381 83.6445 124.854 84.3424 123.361 85.0402C121.429 85.9125 117.916 86.8721 113.701 87.5699C114.315 88.355 115.018 89.14 115.808 89.9251C134.954 108.331 147.776 171.486 105.182 180.819C108.343 180.732 111.417 180.471 114.315 180.209C119.673 178.9 126.259 177.069 129.158 175.237C131.441 173.754 133.724 172.358 135.481 170.788C137.237 162.501 141.365 140.519 140.399 125.864C139.345 109.639 136.271 95.5079 129.685 85.1274C128.631 84.0807 127.577 83.0339 126.523 81.8999Z" fill="#D9F1FC"/>
<path d="M120.024 80.7658C119.409 81.8125 115.984 82.6848 110.978 83.2082C111.329 83.9933 111.68 84.6912 112.12 85.389C113.613 85.3018 115.106 85.1273 116.423 84.9528C117.477 84.6039 118.179 84.1678 118.531 83.7316C119.672 82.5104 120.024 81.5508 120.024 80.7658ZM109.046 77.3638V77.451C114.754 77.9744 118.794 78.8467 119.848 79.8935C119.585 79.1956 119.058 78.8467 119.058 78.8467C119.058 78.8467 120.112 79.1084 121.692 79.3701C121.692 79.3701 125.118 81.0275 125.205 82.8593C125.82 82.5104 126.259 82.2487 126.435 81.8998C125.732 81.2019 125.03 80.4168 124.327 79.719C121.429 78.585 115.896 77.7127 109.046 77.3638Z" fill="#CDE3EF"/>
<path d="M109.046 77.4507C109.485 79.457 110.1 81.3761 110.978 83.2079C115.984 82.6845 119.409 81.725 120.024 80.7654C120.024 80.4165 119.936 80.1548 119.848 79.8931C118.882 78.8464 114.754 77.8868 109.046 77.4507Z" fill="#C5DBE6"/>
<path d="M124.503 20.5767C124.503 22.583 113.437 24.2403 99.7366 24.2403C86.036 24.2403 74.9702 22.583 74.9702 20.5767C74.9702 20.5767 72.8624 25.3743 74.9702 30.4337C74.9702 32.6145 86.036 34.4463 99.7366 34.4463C113.437 34.5336 124.503 32.7017 124.503 30.521C124.503 30.521 126.26 26.3339 124.503 20.5767Z" fill="#DDB07D"/>
<path d="M99.7367 17C86.0361 17 74.9703 18.6574 74.9703 20.5765C74.9703 22.5828 86.0361 24.2401 99.7367 24.2401C113.437 24.2401 124.503 22.5828 124.503 20.5765C124.503 18.6574 113.437 17 99.7367 17Z" fill="#F6CA8D"/>
<path d="M99.4731 22.8445C108.931 22.8445 116.599 21.712 116.599 20.3148C116.599 18.9177 108.931 17.7852 99.4731 17.7852C90.0148 17.7852 82.3474 18.9177 82.3474 20.3148C82.3474 21.712 90.0148 22.8445 99.4731 22.8445Z" fill="#F7D8A0"/>
<path d="M74.9701 20.5767C74.9701 20.5767 74.004 22.6702 74.004 25.636C74.004 27.119 74.2675 28.7763 74.9701 30.4337C75.0579 30.9571 75.8483 31.4805 77.1657 32.0039C77.0779 31.8294 76.9901 31.7422 76.9901 31.655C77.2535 31.9166 77.6927 32.0911 78.2196 32.3528C78.3074 32.3528 78.4831 32.44 78.5709 32.44C73.7406 27.904 77.7805 23.9787 79.6248 22.583C76.7266 22.1468 75.0579 21.449 74.9701 20.5767C74.9701 20.6639 74.9701 20.6639 74.9701 20.5767Z" fill="#D2A570"/>
<path d="M74.9703 20.6641C75.0581 21.4491 76.8146 22.147 79.625 22.7576C76.7268 22.147 75.0581 21.4491 74.9703 20.6641Z" fill="#E9BD7E"/>
<path d="M124.503 20.5767C124.503 22.583 113.437 24.2403 99.7365 24.2403C99.2095 24.2403 98.5948 24.2403 98.0678 24.2403C102.283 25.985 107.553 29.4742 98.5948 34.5336C98.9461 34.5336 99.3852 34.5336 99.7365 34.5336C113.437 34.5336 124.503 32.7017 124.503 30.521C124.503 30.521 125.293 28.6891 125.293 25.7233C125.293 24.2403 125.118 22.4957 124.503 20.5767Z" fill="#CA9D67"/>
<path d="M78.8344 33.5737C81.2935 34.795 87.0021 36.1907 101.757 36.1907C102.81 36.1907 103.864 36.1907 105.006 36.1907C104.479 36.0162 103.864 35.929 103.25 35.929C103.074 35.929 102.986 35.929 102.81 35.929C101.142 36.0162 99.561 36.0162 98.0679 36.0162C86.036 36.0162 79.0101 33.5737 79.0101 33.5737C79.0101 33.5737 78.9222 33.5737 78.8344 33.5737Z" fill="#3BB2EE"/>
<path d="M77.1658 32.1782C77.4293 32.5271 77.8684 33.0505 78.8345 33.5739C78.9223 33.5739 78.9223 33.5739 79.0101 33.5739C79.0101 33.5739 86.0361 36.0164 98.068 36.0164C99.561 36.0164 101.142 36.0164 102.811 35.9291C102.986 35.9291 103.074 35.9291 103.25 35.9291C103.864 35.9291 104.479 36.0164 105.006 36.1908C107.641 36.1908 110.627 36.1036 113.789 35.9291C113.789 35.9291 113.789 35.9291 113.876 35.9291C114.579 35.9291 118.531 36.1036 118.795 41.3374C119.058 47.0074 121.166 62.0111 118.268 68.2045C116.775 71.432 120.288 75.4446 124.328 79.6317C125.733 80.1551 126.523 80.7657 126.611 81.3763C126.699 81.3763 126.787 81.3763 126.874 81.3763C127.84 82.5976 128.719 83.8188 129.597 85.1272C131.441 87.2208 132.934 89.3143 133.549 91.2334C133.549 91.4079 133.637 91.4951 133.637 91.4951C133.813 91.4951 133.198 85.4762 127.577 79.8934C121.254 73.7 121.781 65.1514 121.781 60.0048C121.781 54.8582 120.99 35.4058 120.99 34.4462C120.99 34.0101 120.2 33.7484 118.97 33.7484C117.389 33.7484 114.842 34.0973 112.12 34.7079C110.715 34.9696 107.729 35.1441 104.04 35.1441C95.3455 35.1441 82.7866 34.359 78.2197 32.5271C77.8684 32.4399 77.5171 32.2655 77.1658 32.1782Z" fill="#D2EFFF"/>
<path d="M126.611 81.4634C126.611 81.6378 126.611 81.8123 126.523 81.8995C127.577 83.0335 128.631 84.0803 129.597 85.2143C128.719 83.9058 127.84 82.6846 126.874 81.4634C126.786 81.4634 126.699 81.4634 126.611 81.4634Z" fill="white"/>
<path d="M124.327 79.7188C125.03 80.4166 125.733 81.2017 126.435 81.8995C126.523 81.7251 126.523 81.6378 126.523 81.4634C126.523 81.4634 126.523 81.4634 126.523 81.3761C126.611 80.8528 125.82 80.2421 124.327 79.7188Z" fill="white"/>
<path d="M76.99 31.8296C77.0778 31.9168 77.0778 32.0913 77.1656 32.1785C77.5169 32.2657 77.8682 32.4402 78.2195 32.5274C77.6926 32.2657 77.2535 32.0913 76.99 31.8296Z" fill="#94926D"/>
<path d="M138.818 163.024C138.818 163.024 138.818 163.46 138.818 164.42C138.818 166.862 137.501 168.956 135.481 170.787C135.042 172.881 134.778 174.102 134.778 174.102C134.778 176.457 126.435 179.074 114.315 180.296C110.539 181.168 107.377 181.779 106.675 181.779C107.026 181.779 107.377 181.779 107.728 181.779C116.16 181.779 128.894 178.813 132.671 177.068C136.623 175.236 139.257 168.258 139.257 168.258L138.818 163.024Z" fill="#D2EFFF"/>
<path d="M135.393 170.788C133.637 172.358 131.353 173.841 129.07 175.236C126.172 177.068 119.585 178.987 114.227 180.209C126.347 178.987 134.691 176.37 134.691 174.015C134.691 174.102 134.954 172.881 135.393 170.788Z" fill="white"/>
<path d="M60.8303 157.441C60.6546 157.441 61.2694 162.326 61.2694 165.205C61.2694 165.205 62.0598 173.492 62.0598 174.277C62.0598 175.062 67.8562 179.947 81.469 180.732C83.1377 180.732 81.9081 180.209 79.5369 179.511C70.7544 178.115 65.0458 176.022 65.0458 174.102C65.0458 174.102 64.958 173.841 64.8702 173.317C64.4311 172.707 64.0798 171.922 63.9919 171.224C63.7285 169.741 63.2015 167.298 62.5868 163.984C61.8842 161.28 61.2694 158.924 61.0937 158.052C60.9181 157.616 60.8303 157.441 60.8303 157.441Z" fill="#D2EFFF"/>
<path d="M64.7825 173.317C64.9582 173.841 64.9582 174.102 64.9582 174.102C64.9582 176.022 70.6668 178.115 79.4492 179.511C79.0979 179.424 78.7466 179.336 78.3953 179.162C74.531 178.464 70.4033 177.417 67.5051 175.673C66.0121 175.062 65.046 174.539 64.9582 174.015C64.9582 173.841 64.8704 173.579 64.8704 173.317C64.7825 173.405 64.7825 173.317 64.7825 173.317Z" fill="white"/>
<path d="M68.998 87.0464C68.3832 87.2208 67.3293 88.7038 65.9241 91.7568C54.9461 117.577 59.6886 148.98 62.499 163.897C62.9381 165.728 63.465 167.648 63.9041 169.305C62.9381 164.507 61.5329 156.22 60.6546 144.531C60.3033 144.531 60.0399 144.444 60.0399 144.444C60.0399 144.444 58.1956 121.677 60.5668 111.907C60.7425 111.209 60.9181 110.599 61.0938 110.075C62.8502 99.4331 66.2754 91.8441 68.998 87.0464Z" fill="#EFF5F7"/>
<path d="M69.0857 87.0464C68.9979 87.0464 68.9979 87.0464 68.9101 87.0464C66.1875 91.7568 62.7624 99.4331 61.0059 110.075C61.8841 107.109 62.8502 106.237 63.6406 106.237C64.7823 106.237 65.6606 107.982 65.6606 107.982C65.6606 107.982 61.1815 128.655 64.1676 144.706C63.2015 144.706 61.5328 144.531 60.5668 144.531C61.445 156.22 62.8502 164.507 63.8163 169.305C64.2554 170.962 64.6067 172.445 64.7823 173.318C65.3971 174.19 66.3632 174.975 67.5049 175.586C70.4031 176.72 75.0578 178.028 78.3951 179.075C82.0837 179.685 85.5089 180.034 87.2654 180.209C53.1017 174.626 68.2953 95.4205 68.2953 95.4205C69.8762 90.2739 70.0518 87.0464 69.0857 87.0464Z" fill="#F0F9FE"/>
<path d="M62.499 163.896C63.1137 167.211 63.6407 169.654 63.9042 171.137C63.992 171.922 64.3433 172.62 64.7824 173.23C64.6067 172.445 64.2554 171.137 63.9042 169.305C63.465 167.647 62.9381 165.728 62.499 163.896Z" fill="white"/>
<path d="M67.5049 175.673C70.4031 177.418 74.5309 178.465 78.3951 179.162C75.0578 178.203 70.4031 176.894 67.5049 175.673ZM63.9041 169.393C64.2554 171.224 64.6067 172.533 64.7824 173.318L64.8702 173.405C64.6067 172.446 64.2554 171.05 63.9041 169.393Z" fill="#DFF2F9"/>
<path d="M61.094 110.075C60.9183 110.599 60.7427 111.209 60.567 111.907C58.2836 121.764 60.0401 144.444 60.0401 144.444C60.0401 144.444 60.3035 144.444 60.6548 144.531C60.2157 139.297 59.9522 133.453 59.8644 126.911C59.7766 120.717 60.2157 115.047 61.094 110.075Z" fill="#DFF2F9"/>
<path d="M63.7285 106.324C62.9381 106.324 61.9721 107.197 61.0938 110.162C60.3034 115.135 59.7765 120.717 59.8643 126.998C59.9521 133.54 60.3034 139.385 60.6547 144.618C61.5329 144.706 63.2894 144.793 64.2555 144.793C61.2695 128.743 65.7485 108.069 65.7485 108.069C65.7485 108.069 64.8703 106.324 63.7285 106.324Z" fill="white"/>
<path d="M87.2656 180.296C87.6169 180.383 87.8803 180.383 88.2316 180.47C88.056 180.383 87.7047 180.383 87.2656 180.296Z" fill="#F3F3F4"/>
<path d="M76.6388 64.9771C76.551 64.9771 76.1118 67.8557 76.1118 70.1237C76.1118 70.1237 75.8484 75.7937 72.9502 77.6255C72.2476 78.0617 72.0719 78.2361 72.2476 78.2361C72.6867 78.2361 76.4631 76.4043 77.4292 75.0086C78.7466 73.1767 76.6388 66.1983 76.6388 65.1515C76.7266 65.0643 76.6388 64.9771 76.6388 64.9771Z" fill="#D2EFFF"/>
<path d="M112.471 85.9995C105.972 87.2207 96.2234 87.8314 91.9201 87.8314C90.954 87.8314 90.3392 87.8314 89.9879 87.7441C93.2374 88.5292 96.8382 88.7909 100.527 88.7909C105.094 88.7909 109.661 88.3547 113.613 87.6569C113.174 87.1335 112.822 86.5229 112.471 85.9995Z" fill="#D9F1FC"/>
<path d="M125.293 82.8594C123.625 83.7317 120.551 84.4295 116.423 84.9529C115.369 85.3018 113.964 85.6508 112.471 85.9997C112.822 86.5231 113.174 87.1337 113.613 87.6571C117.828 86.9592 121.341 85.9997 123.274 85.1274C124.854 84.4295 125.293 83.6445 125.293 82.8594Z" fill="#B9E3F9"/>
<path d="M119.146 78.8467C119.146 78.8467 119.673 79.1956 119.936 79.8934C120.112 80.0679 120.2 80.2424 120.2 80.4168C120.2 80.5041 120.2 80.6785 120.112 80.7658C120.112 81.5508 119.761 82.5104 118.707 83.8188C118.355 84.255 117.565 84.6911 116.599 85.0401C120.639 84.5167 123.8 83.8188 125.469 82.9465C125.381 81.1147 121.956 79.4573 121.956 79.4573C120.2 79.1084 119.146 78.8467 119.146 78.8467Z" fill="#AFD6EC"/>
<path d="M119.848 79.8936C119.936 80.1552 120.024 80.4169 120.024 80.7659C120.112 80.6786 120.112 80.5042 120.112 80.4169C120.112 80.2425 120.024 80.068 119.848 79.8936Z" fill="#A8CEE3"/>
</g>
<defs>
<linearGradient id="paint0_linear_2008_24406" x1="100" y1="27.7295" x2="100" y2="183.087" gradientUnits="userSpaceOnUse">
<stop stop-color="#D6EFFF"/>
<stop offset="0.13" stop-color="#E9F6FF"/>
<stop offset="0.505" stop-color="#CCECFF"/>
<stop offset="0.85795" stop-color="#E8F6FF"/>
<stop offset="0.911251" stop-color="#DEF2FE"/>
<stop offset="0.966974" stop-color="#C5D5DF"/>
<stop offset="1" stop-color="#C5E1F2"/>
</linearGradient>
<clipPath id="clip0_2008_24406">
<rect width="88" height="166" fill="white" transform="translate(56 17)"/>
</clipPath>
</defs>
</svg>
