<svg width="200" height="200" viewBox="0 0 200 200" fill="none" xmlns="http://www.w3.org/2000/svg">
<path d="M132.798 47.718C134.636 36.7824 137.455 29.1643 137.455 29.1643C137.455 29.1643 142.602 29.0414 146.892 28.3042C140.641 34.5707 135.862 41.4515 132.798 47.718Z" fill="#E0DCD0"/>
<g opacity="0.1" style="mix-blend-mode:overlay">
<path d="M132.798 47.718C134.636 36.7824 137.455 29.1643 137.455 29.1643C137.455 29.1643 142.602 29.0414 146.892 28.3042C140.641 34.5707 135.862 41.4515 132.798 47.718Z" fill="url(#paint0_linear_2006_74683)"/>
</g>
<path d="M135.862 26.584C130.224 28.3042 120.297 29.5329 108.899 29.5329C91.2511 29.5329 77.0346 26.7069 77.0346 23.2665C77.0346 22.4064 77.8925 21.6691 79.3631 20.9319C84.0203 18.5973 95.5406 17 108.899 17C122.135 17 133.41 18.5973 138.313 20.809C138.313 20.809 146.892 21.792 149.588 23.0207C150.078 23.2665 150.323 23.5122 150.323 23.758C150.323 26.0925 135.862 26.584 135.862 26.584ZM135.862 22.0377C131.45 20.5633 121.277 18.9659 109.267 18.9659C93.3346 18.9659 80.3436 20.809 80.3436 23.2665C80.3436 25.601 93.3346 27.567 109.267 27.567C119.562 27.567 129.979 26.0925 135.004 24.9867C135.004 24.9867 146.892 24.6181 146.892 23.6351C147.014 23.0207 135.862 22.0377 135.862 22.0377Z" fill="#FCFCFB"/>
<path d="M135.862 26.584C130.224 28.3042 120.297 29.5329 108.899 29.5329C91.2511 29.5329 77.0346 26.7069 77.0346 23.2665C77.0346 22.4064 77.8925 21.6691 79.3631 20.9319C84.0203 18.5973 95.5406 17 108.899 17C122.135 17 133.41 18.5973 138.313 20.809C138.313 20.809 146.892 21.792 149.588 23.0207C150.078 23.2665 150.323 23.5122 150.323 23.758C150.323 26.0925 135.862 26.584 135.862 26.584ZM135.862 22.0377C131.45 20.5633 121.277 18.9659 109.267 18.9659C93.3346 18.9659 80.3436 20.809 80.3436 23.2665C80.3436 25.601 93.3346 27.567 109.267 27.567C119.562 27.567 129.979 26.0925 135.004 24.9867C135.004 24.9867 146.892 24.6181 146.892 23.6351C147.014 23.0207 135.862 22.0377 135.862 22.0377Z" fill="url(#paint1_linear_2006_74683)"/>
<path d="M137.455 29.1641C131.45 31.0071 120.665 32.3587 108.532 32.3587C96.3986 32.3587 85.6136 31.13 79.6083 29.1641C77.5249 28.5497 76.0542 27.8125 75.1963 27.0752C74.7061 26.0923 74.3384 25.6008 74.3384 25.6008C74.461 24.0034 76.4219 21.7917 79.2407 20.9316C77.77 21.6689 76.9121 22.4061 76.9121 23.2662C76.9121 26.7066 91.1286 29.5327 108.777 29.5327C120.174 29.5327 130.102 28.304 135.739 26.5838C135.739 26.5838 150.201 26.0923 150.201 23.6348C150.201 23.3891 149.956 23.1433 149.465 22.8976C151.181 23.512 152.774 24.4949 152.897 25.8465C152.897 26.2151 152.529 26.5838 152.039 26.8295C150.936 27.4439 149.098 27.8125 147.014 28.0582C142.602 28.9183 137.455 29.1641 137.455 29.1641Z" fill="#D9CFBA"/>
<g opacity="0.1" style="mix-blend-mode:overlay">
<path d="M137.455 29.1641C131.45 31.0071 120.665 32.3587 108.532 32.3587C96.3986 32.3587 85.6136 31.13 79.6083 29.1641C77.5249 28.5497 76.0542 27.8125 75.1963 27.0752C74.7061 26.0923 74.3384 25.6008 74.3384 25.6008C74.461 24.0034 76.4219 21.7917 79.2407 20.9316C77.77 21.6689 76.9121 22.4061 76.9121 23.2662C76.9121 26.7066 91.1286 29.5327 108.777 29.5327C120.174 29.5327 130.102 28.304 135.739 26.5838C135.739 26.5838 150.201 26.0923 150.201 23.6348C150.201 23.3891 149.956 23.1433 149.465 22.8976C151.181 23.512 152.774 24.4949 152.897 25.8465C152.897 26.2151 152.529 26.5838 152.039 26.8295C150.936 27.4439 149.098 27.8125 147.014 28.0582C142.602 28.9183 137.455 29.1641 137.455 29.1641Z" fill="url(#paint2_linear_2006_74683)"/>
</g>
<path d="M128.753 62.3395C128.753 58.2847 130.102 53.1241 132.798 47.7177C135.862 41.4512 140.641 34.5704 147.014 28.3039C149.098 27.9353 151.059 27.5667 152.039 27.0752C151.181 27.8124 137.455 39.2395 131.572 57.056C131.45 58.2847 131.327 59.3905 131.327 60.6192C131.327 75.241 154 89.2484 154 120.212C154 149.824 144.073 172.064 138.803 175.382C134.391 179.805 122.626 183 108.777 183C94.9279 183 83.1625 179.805 78.7504 175.382C75.1963 173.17 69.5587 162.357 66.2497 146.507C64.6564 138.766 63.5534 129.919 63.5534 120.212C63.5534 115.543 64.0437 111.12 65.0241 107.188C69.4361 87.6511 82.4271 76.1011 85.6136 65.1655C86.1038 63.691 86.2264 62.2166 86.2264 60.6192C86.2264 54.8443 84.388 48.0863 82.182 42.0656C79.7309 35.4305 76.667 29.6555 75.3188 27.0752C76.1767 27.8124 77.6474 28.5497 79.7309 29.164C85.1234 40.3454 89.0452 50.7895 89.0452 62.3395C89.0452 68.9745 81.3241 77.9442 74.7061 89.1255C74.3384 89.617 74.0933 90.2314 73.7256 90.7229C69.3136 98.5867 65.5143 107.556 65.5143 117.632C65.5143 144.172 74.7061 165.06 79.2406 169.238C83.7752 173.416 96.8888 176.487 108.777 176.487C108.777 176.487 108.777 176.487 108.899 176.487C120.787 176.487 133.901 173.416 138.435 169.238C142.97 165.06 152.162 144.172 152.162 117.632C152.162 107.556 148.485 98.5867 143.95 90.7229C143.583 90.1085 143.338 89.617 142.97 89.0027C136.474 77.9442 128.753 69.0974 128.753 62.3395Z" fill="#F0EDE7"/>
<g opacity="0.3" style="mix-blend-mode:overlay">
<path d="M128.753 62.3395C128.753 58.2847 130.102 53.1241 132.798 47.7177C135.862 41.4512 140.641 34.5704 147.014 28.3039C149.098 27.9353 151.059 27.5667 152.039 27.0752C151.181 27.8124 137.455 39.2395 131.572 57.056C131.45 58.2847 131.327 59.3905 131.327 60.6192C131.327 75.241 154 89.2484 154 120.212C154 149.824 144.073 172.064 138.803 175.382C134.391 179.805 122.626 183 108.777 183C94.9279 183 83.1625 179.805 78.7504 175.382C75.1963 173.17 69.5587 162.357 66.2497 146.507C64.6564 138.766 63.5534 129.919 63.5534 120.212C63.5534 115.543 64.0437 111.12 65.0241 107.188C69.4361 87.6511 82.4271 76.1011 85.6136 65.1655C86.1038 63.691 86.2264 62.2166 86.2264 60.6192C86.2264 54.8443 84.388 48.0863 82.182 42.0656C79.7309 35.4305 76.667 29.6555 75.3188 27.0752C76.1767 27.8124 77.6474 28.5497 79.7309 29.164C85.1234 40.3454 89.0452 50.7895 89.0452 62.3395C89.0452 68.9745 81.3241 77.9442 74.7061 89.1255C74.3384 89.617 74.0933 90.2314 73.7256 90.7229C69.3136 98.5867 65.5143 107.556 65.5143 117.632C65.5143 144.172 74.7061 165.06 79.2406 169.238C83.7752 173.416 96.8888 176.487 108.777 176.487C108.777 176.487 108.777 176.487 108.899 176.487C120.787 176.487 133.901 173.416 138.435 169.238C142.97 165.06 152.162 144.172 152.162 117.632C152.162 107.556 148.485 98.5867 143.95 90.7229C143.583 90.1085 143.338 89.617 142.97 89.0027C136.474 77.9442 128.753 69.0974 128.753 62.3395Z" fill="url(#paint3_linear_2006_74683)"/>
</g>
<path d="M82.182 41.943C84.388 47.9637 86.2263 54.5988 86.2263 60.4967C86.2263 61.9711 85.9812 63.4456 85.6136 65.0429C77.1572 68.9748 71.1519 59.6365 78.873 55.4589C78.873 55.4589 74.5835 41.0829 62.4504 49.1924C50.4399 57.1791 48.6015 79.4189 65.0241 107.065C64.1662 110.997 63.5534 115.42 63.5534 120.09C63.5534 129.796 64.6564 138.643 66.2497 146.384C66.2497 146.384 51.4203 114.069 46.5181 76.3471C41.8609 40.2228 69.8038 32.6047 82.182 41.943Z" fill="#E3E1D9"/>
<g opacity="0.2" style="mix-blend-mode:overlay">
<path d="M63.7986 44.8919C63.1858 43.909 62.573 42.8031 62.0828 41.6973C52.6459 45.5063 44.6798 56.319 47.2535 76.47C49.0918 90.846 52.4008 104.239 55.8324 115.298C56.6903 111.734 57.058 110.383 57.9159 106.819C48.479 82.6136 45.7828 49.8068 63.7986 44.8919Z" fill="url(#paint4_linear_2006_74683)"/>
</g>
<path d="M135.126 24.8635C129.979 26.0922 119.684 27.4438 109.389 27.4438C93.4572 27.4438 80.4662 25.6007 80.4662 23.1433C80.4662 20.8087 93.4572 18.8428 109.389 18.8428C121.4 18.8428 131.572 20.3172 135.984 21.9146C135.984 21.9146 147.014 22.8975 147.014 23.5119C147.014 24.6178 135.126 24.8635 135.126 24.8635Z" fill="#D1D1D1"/>
<path d="M135.126 24.8635C129.979 26.0922 119.684 27.4438 109.389 27.4438C93.4572 27.4438 80.4662 25.6007 80.4662 23.1433C80.4662 20.8087 93.4572 18.8428 109.389 18.8428C121.4 18.8428 131.572 20.3172 135.984 21.9146C135.984 21.9146 147.014 22.8975 147.014 23.5119C147.014 24.6178 135.126 24.8635 135.126 24.8635Z" fill="url(#paint5_linear_2006_74683)"/>
<path d="M80.4662 23.2666C80.4662 25.6012 93.4572 27.5671 109.389 27.5671C116.743 27.5671 124.096 26.8299 129.611 25.9698C117.601 22.7751 105.345 20.8091 93.212 19.8262C85.491 20.5634 80.4662 21.7921 80.4662 23.2666Z" fill="url(#paint6_linear_2006_74683)"/>
<path d="M143.093 89.1256C139.416 85.9309 125.444 83.7192 108.899 83.7192C92.2317 83.7192 78.3828 86.0538 74.7061 89.2484C81.3242 77.9442 89.0452 69.0975 89.0452 62.3395C89.0452 50.6667 85.1234 40.2225 79.7309 29.1641C85.7362 31.0071 96.3986 32.3587 108.654 32.3587C120.787 32.3587 131.572 31.13 137.578 29.1641C137.578 29.1641 134.759 36.7821 132.92 47.7177C130.224 53.247 128.876 58.4076 128.876 62.3395C128.753 69.0975 136.475 77.9442 143.093 89.1256Z" fill="#EBEBEB"/>
<path d="M143.093 89.1256C139.416 85.9309 125.444 83.7192 108.899 83.7192C92.2317 83.7192 78.3828 86.0538 74.7061 89.2484C81.3242 77.9442 89.0452 69.0975 89.0452 62.3395C89.0452 50.6667 85.1234 40.2225 79.7309 29.1641C85.7362 31.0071 96.3986 32.3587 108.654 32.3587C120.787 32.3587 131.572 31.13 137.578 29.1641C137.578 29.1641 134.759 36.7821 132.92 47.7177C130.224 53.247 128.876 58.4076 128.876 62.3395C128.753 69.0975 136.475 77.9442 143.093 89.1256Z" fill="url(#paint7_linear_2006_74683)"/>
<path d="M143.95 90.8463C143.95 94.7782 128.263 97.9729 108.777 97.9729C89.4128 97.9729 73.603 94.7782 73.603 90.8463C73.9707 90.2319 74.2158 89.7405 74.5834 89.249C78.2601 86.1772 92.109 83.7197 108.777 83.7197C125.322 83.7197 139.171 86.0543 142.97 89.1261C143.338 89.7405 143.705 90.2319 143.95 90.8463Z" fill="#FFFFF2"/>
<path d="M143.95 90.8463C143.95 94.7782 128.263 97.9729 108.777 97.9729C89.4128 97.9729 73.603 94.7782 73.603 90.8463C73.9707 90.2319 74.2158 89.7405 74.5834 89.249C78.2601 86.1772 92.109 83.7197 108.777 83.7197C125.322 83.7197 139.171 86.0543 142.97 89.1261C143.338 89.7405 143.705 90.2319 143.95 90.8463Z" fill="url(#paint8_linear_2006_74683)"/>
<path d="M152.162 117.755C152.162 144.295 142.97 165.184 138.435 169.361C133.901 173.539 120.787 176.611 108.899 176.611C108.899 176.611 108.899 176.611 108.777 176.611C96.8889 176.611 83.7753 173.539 79.2407 169.361C74.7062 165.184 65.5144 144.295 65.5144 117.755C65.5144 107.68 69.1911 98.71 73.7257 90.8462C73.7257 94.7781 89.4129 97.9728 108.899 97.9728C128.263 97.9728 144.073 94.7781 144.073 90.8462C148.485 98.71 152.162 107.68 152.162 117.755Z" fill="#ECEFD5"/>
<path d="M152.162 117.755C152.162 144.295 142.97 165.184 138.435 169.361C133.901 173.539 120.787 176.611 108.899 176.611C108.899 176.611 108.899 176.611 108.777 176.611C96.8889 176.611 83.7753 173.539 79.2407 169.361C74.7062 165.184 65.5144 144.295 65.5144 117.755C65.5144 107.68 69.1911 98.71 73.7257 90.8462C73.7257 94.7781 89.4129 97.9728 108.899 97.9728C128.263 97.9728 144.073 94.7781 144.073 90.8462C148.485 98.71 152.162 107.68 152.162 117.755Z" fill="url(#paint9_linear_2006_74683)"/>
<g opacity="0.4" style="mix-blend-mode:overlay">
<path d="M97.9916 79.9107C93.8246 79.7878 89.6577 79.2963 85.4908 78.5591C66.7397 105.099 69.8036 135.08 76.5442 155.231C82.4269 156.214 88.3096 156.951 94.1923 157.443C85.8585 132.623 85.7359 105.714 97.9916 79.9107Z" fill="url(#paint10_linear_2006_74683)"/>
</g>
<g opacity="0.4" style="mix-blend-mode:overlay">
<path d="M103.629 62.9536C102.772 52.3867 100.933 41.8197 97.7467 31.9899C92.7219 31.6213 88.3099 31.1298 84.6332 30.3926C90.3933 39.9766 93.3347 50.7893 94.9279 61.9707C97.8693 62.4622 100.688 62.7079 103.629 62.9536Z" fill="url(#paint11_linear_2006_74683)"/>
</g>
<g style="mix-blend-mode:overlay" opacity="0.2">
<mask id="mask0_2006_74683" style="mask-type:luminance" maskUnits="userSpaceOnUse" x="63" y="26" width="91" height="157">
<path d="M154 120.09C154 89.1258 131.327 75.2413 131.327 60.4967C131.327 59.3908 131.45 58.1621 131.572 56.9334C137.332 39.117 151.181 27.6899 152.039 26.9526C150.936 27.567 149.098 27.9356 147.014 28.1814C142.725 28.7957 137.577 29.0415 137.577 29.0415C131.572 30.8845 120.787 32.2361 108.654 32.2361C96.5211 32.2361 85.7361 31.0074 79.7309 29.0415C77.6474 28.4271 76.1767 27.6899 75.3188 26.9526C76.667 29.5329 79.7309 35.3079 82.182 41.943C84.388 47.9637 86.2264 54.5988 86.2264 60.4967C86.2264 61.9711 85.9812 63.4456 85.6136 65.0429C82.5497 75.9785 69.4361 87.5285 65.0241 107.065C64.1662 110.997 63.5534 115.42 63.5534 120.09C63.5534 129.796 64.6564 138.643 66.2497 146.384C69.5587 162.235 75.1963 173.047 78.7504 175.259C83.1625 179.682 94.9279 182.877 108.777 182.877C122.626 182.877 134.391 179.682 138.803 175.259C144.196 171.942 154 149.579 154 120.09Z" fill="white"/>
</mask>
<g mask="url(#mask0_2006_74683)">
<path d="M161.843 166.044C152.774 187.423 135.371 200.571 123.116 195.287C110.737 190.004 108.164 168.501 117.11 146.998C126.18 125.619 143.46 112.471 155.838 117.755C168.216 122.915 170.79 144.541 161.843 166.044Z" fill="url(#paint12_radial_2006_74683)"/>
</g>
<mask id="mask1_2006_74683" style="mask-type:luminance" maskUnits="userSpaceOnUse" x="63" y="26" width="91" height="157">
<path d="M154 120.09C154 89.1258 131.327 75.2413 131.327 60.4967C131.327 59.3908 131.45 58.1621 131.572 56.9334C137.332 39.117 151.181 27.6899 152.039 26.9526C150.936 27.567 149.098 27.9356 147.014 28.1814C142.725 28.7957 137.577 29.0415 137.577 29.0415C131.572 30.8845 120.787 32.2361 108.654 32.2361C96.5211 32.2361 85.7361 31.0074 79.7309 29.0415C77.6474 28.4271 76.1767 27.6899 75.3188 26.9526C76.667 29.5329 79.7309 35.3079 82.182 41.943C84.388 47.9637 86.2264 54.5988 86.2264 60.4967C86.2264 61.9711 85.9812 63.4456 85.6136 65.0429C82.5497 75.9785 69.4361 87.5285 65.0241 107.065C64.1662 110.997 63.5534 115.42 63.5534 120.09C63.5534 129.796 64.6564 138.643 66.2497 146.384C69.5587 162.235 75.1963 173.047 78.7504 175.259C83.1625 179.682 94.9279 182.877 108.777 182.877C122.626 182.877 134.391 179.682 138.803 175.259C144.196 171.942 154 149.579 154 120.09Z" fill="white"/>
</mask>
<g mask="url(#mask1_2006_74683)">
<path d="M134.514 48.3325C130.592 60.6197 123.851 69.4665 119.439 68.1149C115.027 66.7633 114.659 55.5819 118.459 43.2947C122.38 31.0075 129.121 22.1608 133.533 23.5124C137.945 24.8639 138.435 35.9224 134.514 48.3325Z" fill="url(#paint13_radial_2006_74683)"/>
</g>
<mask id="mask2_2006_74683" style="mask-type:luminance" maskUnits="userSpaceOnUse" x="63" y="26" width="91" height="157">
<path d="M154 120.09C154 89.1258 131.327 75.2413 131.327 60.4967C131.327 59.3908 131.45 58.1621 131.572 56.9334C137.332 39.117 151.181 27.6899 152.039 26.9526C150.936 27.567 149.098 27.9356 147.014 28.1814C142.725 28.7957 137.577 29.0415 137.577 29.0415C131.572 30.8845 120.787 32.2361 108.654 32.2361C96.5211 32.2361 85.7361 31.0074 79.7309 29.0415C77.6474 28.4271 76.1767 27.6899 75.3188 26.9526C76.667 29.5329 79.7309 35.3079 82.182 41.943C84.388 47.9637 86.2264 54.5988 86.2264 60.4967C86.2264 61.9711 85.9812 63.4456 85.6136 65.0429C82.5497 75.9785 69.4361 87.5285 65.0241 107.065C64.1662 110.997 63.5534 115.42 63.5534 120.09C63.5534 129.796 64.6564 138.643 66.2497 146.384C69.5587 162.235 75.1963 173.047 78.7504 175.259C83.1625 179.682 94.9279 182.877 108.777 182.877C122.626 182.877 134.391 179.682 138.803 175.259C144.196 171.942 154 149.579 154 120.09Z" fill="white"/>
</mask>
<g mask="url(#mask2_2006_74683)">
<path d="M109.512 184.597C96.6435 184.597 86.2262 182.631 86.2262 180.297C86.2262 177.962 96.6435 176.119 109.634 176.119C122.503 176.119 132.92 178.085 132.92 180.42C132.92 182.754 122.38 184.597 109.512 184.597Z" fill="url(#paint14_radial_2006_74683)"/>
</g>
<mask id="mask3_2006_74683" style="mask-type:luminance" maskUnits="userSpaceOnUse" x="63" y="26" width="91" height="157">
<path d="M154 120.09C154 89.1258 131.327 75.2413 131.327 60.4967C131.327 59.3908 131.45 58.1621 131.572 56.9334C137.332 39.117 151.181 27.6899 152.039 26.9526C150.936 27.567 149.098 27.9356 147.014 28.1814C142.725 28.7957 137.577 29.0415 137.577 29.0415C131.572 30.8845 120.787 32.2361 108.654 32.2361C96.5211 32.2361 85.7361 31.0074 79.7309 29.0415C77.6474 28.4271 76.1767 27.6899 75.3188 26.9526C76.667 29.5329 79.7309 35.3079 82.182 41.943C84.388 47.9637 86.2264 54.5988 86.2264 60.4967C86.2264 61.9711 85.9812 63.4456 85.6136 65.0429C82.5497 75.9785 69.4361 87.5285 65.0241 107.065C64.1662 110.997 63.5534 115.42 63.5534 120.09C63.5534 129.796 64.6564 138.643 66.2497 146.384C69.5587 162.235 75.1963 173.047 78.7504 175.259C83.1624 179.682 94.9279 182.877 108.777 182.877C122.626 182.877 134.391 179.682 138.803 175.259C144.195 171.942 154 149.579 154 120.09Z" fill="white"/>
</mask>
<g mask="url(#mask3_2006_74683)">
<path d="M104.242 109.523C98.7272 138.152 83.6528 159.286 70.4167 156.706C57.3032 154.125 51.0528 128.936 56.5678 100.307C62.0829 71.801 77.2798 50.6671 90.3934 53.1245C103.507 55.7048 109.757 80.8936 104.242 109.523Z" fill="url(#paint15_radial_2006_74683)"/>
</g>
</g>
<g style="mix-blend-mode:overlay" opacity="0.2">
<mask id="mask4_2006_74683" style="mask-type:luminance" maskUnits="userSpaceOnUse" x="46" y="38" width="41" height="109">
<path d="M82.182 41.943C84.388 47.9637 86.2263 54.5988 86.2263 60.4967C86.2263 61.9711 85.9812 63.4456 85.6136 65.0429C77.1572 68.9748 71.1519 59.6365 78.873 55.4589C78.873 55.4589 74.5835 41.0829 62.4504 49.1924C50.4399 57.1791 48.6015 79.4189 65.0241 107.065C64.1662 110.997 63.5534 115.42 63.5534 120.09C63.5534 129.796 64.6564 138.643 66.2497 146.384C66.2497 146.384 51.4203 114.069 46.5181 76.3471C41.8609 40.2228 69.8038 32.6047 82.182 41.943Z" fill="white"/>
</mask>
<g mask="url(#mask4_2006_74683)">
<path d="M48.479 105.468C42.964 88.5114 42.1061 73.521 46.6407 72.0465C51.1752 70.5721 59.264 83.2279 64.6564 100.184C70.1715 117.141 71.0294 132.131 66.4948 133.605C61.9602 135.08 53.8715 122.424 48.479 105.468Z" fill="url(#paint16_radial_2006_74683)"/>
</g>
<mask id="mask5_2006_74683" style="mask-type:luminance" maskUnits="userSpaceOnUse" x="46" y="38" width="41" height="109">
<path d="M82.182 41.943C84.388 47.9637 86.2263 54.5988 86.2263 60.4967C86.2263 61.9711 85.9812 63.4456 85.6136 65.0429C77.1572 68.9748 71.1519 59.6365 78.873 55.4589C78.873 55.4589 74.5835 41.0829 62.4504 49.1924C50.4399 57.1791 48.6015 79.4189 65.0241 107.065C64.1662 110.997 63.5534 115.42 63.5534 120.09C63.5534 129.796 64.6564 138.643 66.2497 146.384C66.2497 146.384 51.4203 114.069 46.5181 76.3471C41.8609 40.2228 69.8038 32.6047 82.182 41.943Z" fill="white"/>
</mask>
<g mask="url(#mask5_2006_74683)">
<path d="M47.7436 95.0233C43.4541 76.9611 42.4737 61.725 45.6601 60.9878C48.8466 60.2505 54.8519 74.2579 59.1413 92.3201C63.4308 110.382 64.4113 125.618 61.2248 126.356C58.1609 127.093 52.1556 113.085 47.7436 95.0233Z" fill="url(#paint17_radial_2006_74683)"/>
</g>
<mask id="mask6_2006_74683" style="mask-type:luminance" maskUnits="userSpaceOnUse" x="46" y="38" width="41" height="109">
<path d="M82.182 41.943C84.388 47.9637 86.2263 54.5988 86.2263 60.4967C86.2263 61.9711 85.9812 63.4456 85.6136 65.0429C77.1572 68.9748 71.1519 59.6365 78.873 55.4589C78.873 55.4589 74.5835 41.0829 62.4504 49.1924C50.4399 57.1791 48.6015 79.4189 65.0241 107.065C64.1662 110.997 63.5534 115.42 63.5534 120.09C63.5534 129.796 64.6564 138.643 66.2497 146.384C66.2497 146.384 51.4203 114.069 46.5181 76.3471C41.8609 40.2228 69.8038 32.6047 82.182 41.943Z" fill="white"/>
</mask>
<g mask="url(#mask6_2006_74683)">
<path d="M74.9513 53.1246C71.0295 45.5065 70.4167 38.1342 73.4806 36.5369C76.5446 34.9396 82.1821 39.8544 86.1039 47.3496C90.0257 54.9677 90.6385 62.34 87.5746 63.9373C84.3882 65.6575 78.7506 60.7427 74.9513 53.1246Z" fill="url(#paint18_radial_2006_74683)"/>
</g>
<mask id="mask7_2006_74683" style="mask-type:luminance" maskUnits="userSpaceOnUse" x="46" y="38" width="41" height="109">
<path d="M82.182 41.943C84.388 47.9637 86.2263 54.5988 86.2263 60.4967C86.2263 61.9711 85.9812 63.4456 85.6136 65.0429C77.1572 68.9748 71.1519 59.6365 78.873 55.4589C78.873 55.4589 74.5835 41.0829 62.4504 49.1924C50.4399 57.1791 48.6015 79.4189 65.0241 107.065C64.1662 110.997 63.5534 115.42 63.5534 120.09C63.5534 129.796 64.6564 138.643 66.2497 146.384C66.2497 146.384 51.4203 114.069 46.5181 76.3471C41.8609 40.2228 69.8038 32.6047 82.182 41.943Z" fill="white"/>
</mask>
<g mask="url(#mask7_2006_74683)">
<path d="M72.6227 50.5437C64.0437 45.2602 58.4061 38.8708 60.1219 36.1676C61.7152 33.4645 70.049 35.5533 78.6279 40.8368C87.2069 46.1203 92.8445 52.5096 91.1287 55.2128C89.4129 57.916 81.2016 55.8271 72.6227 50.5437Z" fill="url(#paint19_radial_2006_74683)"/>
</g>
<mask id="mask8_2006_74683" style="mask-type:luminance" maskUnits="userSpaceOnUse" x="46" y="38" width="41" height="109">
<path d="M82.182 41.943C84.388 47.9637 86.2263 54.5988 86.2263 60.4967C86.2263 61.9711 85.9812 63.4456 85.6136 65.0429C77.1572 68.9748 71.1519 59.6365 78.873 55.4589C78.873 55.4589 74.5835 41.0829 62.4504 49.1924C50.4399 57.1791 48.6015 79.4189 65.0241 107.065C64.1662 110.997 63.5534 115.42 63.5534 120.09C63.5534 129.796 64.6564 138.643 66.2497 146.384C66.2497 146.384 51.4203 114.069 46.5181 76.3471C41.8609 40.2228 69.8038 32.6047 82.182 41.943Z" fill="white"/>
</mask>
<g mask="url(#mask8_2006_74683)">
<path d="M75.1963 57.3018C76.1768 55.213 78.3828 54.1072 80.0986 54.9673C81.8143 55.8274 82.5497 58.162 81.5692 60.2508C80.5888 62.3396 78.3828 63.4454 76.667 62.5853C74.9512 61.7252 74.3384 59.3907 75.1963 57.3018Z" fill="url(#paint20_radial_2006_74683)"/>
</g>
</g>
<path d="M77.0346 26.584C79.9759 27.4441 82.9173 28.0584 85.8586 28.5499C88.8 29.0414 91.7413 29.5329 94.8052 29.9015C100.811 30.5159 106.816 30.7616 112.944 30.5159V30.6388C106.938 31.1302 100.811 31.376 94.6827 30.8845C91.6188 30.6388 88.5549 30.393 85.6135 29.7787C82.6722 29.0414 79.7308 28.1813 77.0346 26.584Z" fill="white"/>
<path d="M137.577 28.1812C140.029 28.0583 142.602 27.8126 145.053 27.3211C146.279 27.0754 147.504 26.8296 148.73 26.461C149.956 26.2153 151.059 25.8466 152.284 25.478C151.304 26.2153 150.078 26.7067 148.853 27.0754C147.627 27.444 146.401 27.5669 145.176 27.8126C142.48 28.3041 140.029 28.3041 137.577 28.1812Z" fill="white"/>
<defs>
<linearGradient id="paint0_linear_2006_74683" x1="123.216" y1="25.9517" x2="140.551" y2="38.4273" gradientUnits="userSpaceOnUse">
<stop stop-color="white"/>
<stop offset="1"/>
</linearGradient>
<linearGradient id="paint1_linear_2006_74683" x1="115.192" y1="16.4359" x2="110.79" y2="37.0713" gradientUnits="userSpaceOnUse">
<stop stop-color="#D6D0C3"/>
<stop offset="1" stop-color="white"/>
</linearGradient>
<linearGradient id="paint2_linear_2006_74683" x1="83.8181" y1="0.297994" x2="120.252" y2="31.1653" gradientUnits="userSpaceOnUse">
<stop stop-color="white"/>
<stop offset="1"/>
</linearGradient>
<linearGradient id="paint3_linear_2006_74683" x1="108.82" y1="24.4677" x2="108.82" y2="173.158" gradientUnits="userSpaceOnUse">
<stop stop-color="#A0BAAC"/>
<stop offset="1"/>
</linearGradient>
<linearGradient id="paint4_linear_2006_74683" x1="36.117" y1="62.4233" x2="54.5448" y2="75.3336" gradientUnits="userSpaceOnUse">
<stop stop-color="white"/>
<stop offset="1"/>
</linearGradient>
<linearGradient id="paint5_linear_2006_74683" x1="113.701" y1="17.8801" x2="113.701" y2="27.3245" gradientUnits="userSpaceOnUse">
<stop stop-color="#D6D0C3"/>
<stop offset="1" stop-color="white"/>
</linearGradient>
<linearGradient id="paint6_linear_2006_74683" x1="80.4385" y1="23.6491" x2="129.523" y2="23.6491" gradientUnits="userSpaceOnUse">
<stop stop-color="#D6D0C3"/>
<stop offset="1" stop-color="white"/>
</linearGradient>
<linearGradient id="paint7_linear_2006_74683" x1="108.861" y1="26.0044" x2="108.861" y2="81.837" gradientUnits="userSpaceOnUse">
<stop stop-color="#D6D0C3"/>
<stop offset="1" stop-color="white"/>
</linearGradient>
<linearGradient id="paint8_linear_2006_74683" x1="108.868" y1="72.9929" x2="108.868" y2="96.7066" gradientUnits="userSpaceOnUse">
<stop stop-color="#D6D0C3"/>
<stop offset="1" stop-color="white"/>
</linearGradient>
<linearGradient id="paint9_linear_2006_74683" x1="65.5655" y1="133.725" x2="152.172" y2="133.725" gradientUnits="userSpaceOnUse">
<stop stop-color="#D6D0C3"/>
<stop offset="1" stop-color="white"/>
</linearGradient>
<linearGradient id="paint10_linear_2006_74683" x1="82.6378" y1="77.19" x2="88.3004" y2="151.672" gradientUnits="userSpaceOnUse">
<stop stop-color="white"/>
<stop offset="1"/>
</linearGradient>
<linearGradient id="paint11_linear_2006_74683" x1="87.3238" y1="23.8059" x2="103.062" y2="63.5732" gradientUnits="userSpaceOnUse">
<stop stop-color="white"/>
<stop offset="1"/>
</linearGradient>
<radialGradient id="paint12_radial_2006_74683" cx="0" cy="0" r="1" gradientTransform="matrix(22.3318 9.47922 -16.3772 38.7797 139.452 156.516)" gradientUnits="userSpaceOnUse">
<stop offset="0.1314" stop-color="white"/>
<stop offset="0.2737" stop-color="#C2C2C2"/>
<stop offset="0.4088" stop-color="#8D8D8D"/>
<stop offset="0.5876" stop-color="#4C4C4C"/>
<stop offset="0.708" stop-color="#2B2B2B"/>
<stop offset="0.8431" stop-color="#0D0D0D"/>
<stop offset="1"/>
</radialGradient>
<radialGradient id="paint13_radial_2006_74683" cx="0" cy="0" r="1" gradientTransform="matrix(8.00703 2.55094 -7.07429 22.3113 126.469 45.7457)" gradientUnits="userSpaceOnUse">
<stop stop-color="white"/>
<stop offset="0.1277" stop-color="#C2C2C2"/>
<stop offset="0.2737" stop-color="#8D8D8D"/>
<stop offset="0.4416" stop-color="#4C4C4C"/>
<stop offset="0.5985" stop-color="#2B2B2B"/>
<stop offset="0.7737" stop-color="#0D0D0D"/>
<stop offset="1"/>
</radialGradient>
<radialGradient id="paint14_radial_2006_74683" cx="0" cy="0" r="1" gradientTransform="matrix(-0.0137729 4.21156 -23.349 -0.0749598 109.54 180.386)" gradientUnits="userSpaceOnUse">
<stop stop-color="white"/>
<stop offset="0.1277" stop-color="#C2C2C2"/>
<stop offset="0.2737" stop-color="#8D8D8D"/>
<stop offset="0.4416" stop-color="#4C4C4C"/>
<stop offset="0.5401" stop-color="#2B2B2B"/>
<stop offset="0.6277" stop-color="#191919"/>
<stop offset="0.7336" stop-color="#0D0D0D"/>
<stop offset="0.8796" stop-color="#040404"/>
<stop offset="1"/>
</radialGradient>
<radialGradient id="paint15_radial_2006_74683" cx="0" cy="0" r="1" gradientTransform="matrix(23.8112 4.60193 -9.96262 51.8095 80.4373 104.964)" gradientUnits="userSpaceOnUse">
<stop offset="0.1314" stop-color="white"/>
<stop offset="0.2737" stop-color="#C2C2C2"/>
<stop offset="0.4088" stop-color="#8D8D8D"/>
<stop offset="0.5876" stop-color="#4C4C4C"/>
<stop offset="0.708" stop-color="#2B2B2B"/>
<stop offset="0.8431" stop-color="#0D0D0D"/>
<stop offset="1"/>
</radialGradient>
<radialGradient id="paint16_radial_2006_74683" cx="0" cy="0" r="1" gradientTransform="matrix(-8.11461 2.63556 -9.94452 -30.7745 56.5334 102.835)" gradientUnits="userSpaceOnUse">
<stop stop-color="white"/>
<stop offset="0.1277" stop-color="#C2C2C2"/>
<stop offset="0.2737" stop-color="#8D8D8D"/>
<stop offset="0.4416" stop-color="#4C4C4C"/>
<stop offset="0.5401" stop-color="#2B2B2B"/>
<stop offset="0.6277" stop-color="#191919"/>
<stop offset="0.7336" stop-color="#0D0D0D"/>
<stop offset="0.8796" stop-color="#040404"/>
<stop offset="1"/>
</radialGradient>
<radialGradient id="paint17_radial_2006_74683" cx="0" cy="0" r="1" gradientTransform="matrix(-5.7063 1.37304 -7.82157 -32.6886 53.4959 93.6486)" gradientUnits="userSpaceOnUse">
<stop stop-color="#C2C2C2"/>
<stop offset="0.1642" stop-color="#8D8D8D"/>
<stop offset="0.354" stop-color="#4C4C4C"/>
<stop offset="0.4745" stop-color="#2B2B2B"/>
<stop offset="0.6277" stop-color="#191919"/>
<stop offset="0.7336" stop-color="#0D0D0D"/>
<stop offset="0.8796" stop-color="#040404"/>
<stop offset="1"/>
</radialGradient>
<radialGradient id="paint18_radial_2006_74683" cx="0" cy="0" r="1" gradientTransform="matrix(-5.53484 2.85049 -7.03021 -13.7179 80.4383 50.3087)" gradientUnits="userSpaceOnUse">
<stop stop-color="white"/>
<stop offset="0.1277" stop-color="#C2C2C2"/>
<stop offset="0.2737" stop-color="#8D8D8D"/>
<stop offset="0.4416" stop-color="#4C4C4C"/>
<stop offset="0.5401" stop-color="#2B2B2B"/>
<stop offset="0.6277" stop-color="#191919"/>
<stop offset="0.7336" stop-color="#0D0D0D"/>
<stop offset="0.8796" stop-color="#040404"/>
<stop offset="1"/>
</radialGradient>
<radialGradient id="paint19_radial_2006_74683" cx="0" cy="0" r="1" gradientTransform="matrix(-2.95922 4.84676 -15.4985 -9.51402 75.5621 45.6719)" gradientUnits="userSpaceOnUse">
<stop stop-color="#C2C2C2"/>
<stop offset="0.1642" stop-color="#8D8D8D"/>
<stop offset="0.354" stop-color="#4C4C4C"/>
<stop offset="0.4745" stop-color="#2B2B2B"/>
<stop offset="0.6277" stop-color="#191919"/>
<stop offset="0.7336" stop-color="#0D0D0D"/>
<stop offset="0.8796" stop-color="#040404"/>
<stop offset="1"/>
</radialGradient>
<radialGradient id="paint20_radial_2006_74683" cx="0" cy="0" r="1" gradientTransform="matrix(-3.20056 -1.47446 1.74513 -3.80637 78.4417 58.7438)" gradientUnits="userSpaceOnUse">
<stop stop-color="white"/>
<stop offset="0.1277" stop-color="#C2C2C2"/>
<stop offset="0.2737" stop-color="#8D8D8D"/>
<stop offset="0.4416" stop-color="#4C4C4C"/>
<stop offset="0.5401" stop-color="#2B2B2B"/>
<stop offset="0.6277" stop-color="#191919"/>
<stop offset="0.7336" stop-color="#0D0D0D"/>
<stop offset="0.8796" stop-color="#040404"/>
<stop offset="1"/>
</radialGradient>
</defs>
</svg>
