<svg width="200" height="200" viewBox="0 0 200 200" fill="none" xmlns="http://www.w3.org/2000/svg">
<path d="M128.56 71.042C134.699 77.3131 137.676 91.1464 137.118 109.96C136.187 138.18 127.444 167.322 120.747 173.409C117.584 175.991 109.957 168.613 100.097 168.613C90.4235 168.613 82.6101 176.175 79.6336 173.593C72.7504 167.506 64.0069 138.364 63.0767 109.96C62.3326 91.1464 65.3091 77.3131 71.4482 71.042C70.8901 71.5953 70.518 72.3331 70.518 73.0709C70.518 77.3131 83.7263 80.8175 99.9111 80.8175C116.096 80.8175 129.304 77.3131 129.304 73.0709C129.304 72.5175 128.932 71.7798 128.56 71.042C128.374 71.042 128.374 71.042 128.56 71.042Z" fill="#B2DBD9"/>
<path d="M128.56 71.042C134.699 77.3131 137.676 91.1464 137.118 109.96C136.187 138.18 127.444 167.322 120.747 173.409C117.584 175.991 109.957 168.613 100.097 168.613C90.4235 168.613 82.6101 176.175 79.6336 173.593C72.7504 167.506 64.0069 138.364 63.0767 109.96C62.3326 91.1464 65.3091 77.3131 71.4482 71.042C70.8901 71.5953 70.518 72.3331 70.518 73.0709C70.518 77.3131 83.7263 80.8175 99.9111 80.8175C116.096 80.8175 129.304 77.3131 129.304 73.0709C129.304 72.5175 128.932 71.7798 128.56 71.042C128.374 71.042 128.374 71.042 128.56 71.042Z" fill="url(#paint0_linear_2009_24487)"/>
<path d="M136.932 110.144C137.49 91.331 134.513 77.4976 128.374 71.2265C117.212 59.6065 110.515 49.4621 112.561 34.7065C114.05 34.5221 115.352 34.3376 116.654 34.1532C114.236 48.171 120.375 57.3932 131.351 68.6443C150.884 88.7487 136.932 164.371 123.165 176.729C119.072 179.864 110.329 183 99.9112 183C89.6794 183 80.7498 180.049 76.6571 176.544C63.0767 164.187 49.1243 88.5643 68.6577 68.4599C79.6336 57.2088 85.5867 48.171 83.3543 33.9688C84.6565 34.1532 85.9587 34.3376 87.447 34.5221C89.4933 49.2776 82.7962 59.6065 71.6342 71.0421C65.4952 77.3132 62.5186 91.1465 63.0767 109.96C63.8209 138.364 72.5644 167.507 79.4476 173.593C82.4241 176.175 90.2375 168.613 99.9112 168.613C109.585 168.613 117.398 176.175 120.561 173.409C127.444 167.507 136.001 138.364 136.932 110.144Z" fill="#E6E7D7"/>
<g opacity="0.2" style="mix-blend-mode:overlay">
<path d="M136.932 110.144C137.49 91.331 134.513 77.4976 128.374 71.2265C117.212 59.6065 110.515 49.4621 112.561 34.7065C114.05 34.5221 115.352 34.3376 116.654 34.1532C114.236 48.171 120.375 57.3932 131.351 68.6443C150.884 88.7487 136.932 164.371 123.165 176.729C119.072 179.864 110.329 183 99.9112 183C89.6794 183 80.7498 180.049 76.6571 176.544C63.0767 164.187 49.1243 88.5643 68.6577 68.4599C79.6336 57.2088 85.5867 48.171 83.3543 33.9688C84.6565 34.1532 85.9587 34.3376 87.447 34.5221C89.4933 49.2776 82.7962 59.6065 71.6342 71.0421C65.4952 77.3132 62.5186 91.1465 63.0767 109.96C63.8209 138.364 72.5644 167.507 79.4476 173.593C82.4241 176.175 90.2375 168.613 99.9112 168.613C109.585 168.613 117.398 176.175 120.561 173.409C127.444 167.507 136.001 138.364 136.932 110.144Z" fill="url(#paint1_linear_2009_24487)"/>
</g>
<path d="M113.306 176.545C105.678 173.409 94.7023 171.749 87.075 176.545C94.8883 178.205 106.05 178.02 113.306 176.545Z" fill="url(#paint2_linear_2009_24487)"/>
<path d="M131.351 68.4599C120.375 57.2088 114.422 48.171 116.654 33.9688C115.352 34.1532 114.05 34.3376 112.561 34.5221C110.515 49.2776 117.212 59.6065 128.374 71.0421C134.513 77.3132 137.49 91.1465 136.932 109.96C136.001 137.995 127.444 166.953 120.747 173.409C123.165 172.487 125.398 171.38 127.63 170.273C139.536 148.324 148.652 86.351 131.351 68.4599Z" fill="url(#paint3_linear_2009_24487)"/>
<path d="M128.374 71.2266C128.932 71.7799 129.304 72.5177 129.304 73.071C129.304 77.3132 116.282 80.8177 99.9111 80.8177C83.5403 80.8177 70.518 77.4977 70.518 73.2555C70.518 72.5177 70.8901 71.9643 71.4482 71.2266C74.7968 67.9066 86.1447 65.5088 99.7251 65.5088C113.491 65.5088 125.026 67.9066 128.374 71.2266Z" fill="#E9FAF8"/>
<path d="M128.374 71.0426C125.025 67.907 113.491 65.5093 99.9111 65.5093C86.3307 65.5093 74.7967 67.907 71.6342 71.227C82.9821 59.607 89.4933 49.4626 87.4469 34.707C91.1676 35.0759 95.4463 35.4448 100.097 35.4448C104.748 35.4448 109.027 35.2604 112.747 34.707C110.515 49.2781 117.212 59.607 128.374 71.0426Z" fill="#F2F8DA"/>
<g opacity="0.4" style="mix-blend-mode:overlay">
<path d="M131.351 68.4599C120.375 57.2088 114.422 48.171 116.654 33.9688C115.352 34.1532 114.05 34.3376 112.561 34.5221C110.887 34.7065 109.213 34.891 107.352 35.0754C107.911 42.4532 108.655 49.831 108.841 57.2087C111.631 62.3732 114.608 66.6154 116.654 73.071C128.374 113.095 121.305 145.742 112.003 181.34C116.84 180.233 120.747 178.389 122.979 176.36C136.746 164.187 150.884 88.5643 131.351 68.4599Z" fill="url(#paint4_linear_2009_24487)"/>
</g>
<path d="M116.654 33.9688C115.352 34.1532 114.05 34.3376 112.561 34.5221C108.841 34.891 104.562 35.2599 99.9111 35.2599C95.2603 35.2599 90.9816 35.0754 87.2609 34.5221C85.7727 34.3376 84.4704 34.1532 83.1682 33.9688C83.3542 35.2599 83.5403 36.3665 83.5403 37.6576C94.7022 41.3465 105.492 42.4532 116.096 41.3465C116.096 38.9488 116.282 36.551 116.654 33.9688Z" fill="url(#paint5_linear_2009_24487)"/>
<path d="M83.3542 33.9692C77.9593 33.0469 74.4247 31.5714 74.4247 29.9114C71.6342 20.8736 80.1917 19.0292 81.3079 18.8447C78.5174 19.5825 76.6571 20.6892 76.6571 21.7958C76.6571 24.5625 87.0749 26.5914 99.9111 26.5914C112.747 26.5914 123.165 24.3781 123.165 21.7958C123.165 20.6892 121.491 19.7669 118.514 18.8447C119.631 19.0292 128.374 20.6892 125.398 29.9114C125.398 31.5714 122.049 33.0469 116.654 33.9692C115.352 34.1536 114.05 34.3381 112.561 34.5225C108.841 34.8914 104.562 35.2603 99.9111 35.2603C95.2603 35.2603 90.9816 35.0758 87.2609 34.5225C85.9587 34.3381 84.4704 34.1536 83.3542 33.9692Z" fill="#8FBAA0"/>
<g opacity="0.2" style="mix-blend-mode:overlay">
<path d="M83.3542 33.9692C77.9593 33.0469 74.4247 31.5714 74.4247 29.9114C71.6342 20.8736 80.1917 19.0292 81.3079 18.8447C78.5174 19.5825 76.6571 20.6892 76.6571 21.7958C76.6571 24.5625 87.0749 26.5914 99.9111 26.5914C112.747 26.5914 123.165 24.3781 123.165 21.7958C123.165 20.6892 121.491 19.7669 118.514 18.8447C119.631 19.0292 128.374 20.6892 125.398 29.9114C125.398 31.5714 122.049 33.0469 116.654 33.9692C115.352 34.1536 114.05 34.3381 112.561 34.5225C108.841 34.8914 104.562 35.2603 99.9111 35.2603C95.2603 35.2603 90.9816 35.0758 87.2609 34.5225C85.9587 34.3381 84.4704 34.1536 83.3542 33.9692Z" fill="url(#paint6_linear_2009_24487)"/>
</g>
<path d="M87.2609 34.5222C87.819 34.5222 88.5631 34.7067 89.1212 34.7067C88.7491 31.94 88.7491 28.9889 89.3072 26.0378C84.2844 25.4845 80.3777 24.5622 78.3313 23.4556C77.0291 26.2222 76.285 29.1733 76.285 31.94C77.7732 32.6778 80.1917 33.4156 83.3542 33.9689C84.4704 34.1533 85.9587 34.3378 87.2609 34.5222Z" fill="url(#paint7_linear_2009_24487)"/>
<path d="M118.514 19.0293C121.491 19.7671 123.165 20.8737 123.165 21.9804C123.165 23.2715 120.561 24.5626 116.282 25.4849C116.654 28.0671 116.84 31.0182 116.654 33.9693C122.049 33.0471 125.398 31.5715 125.398 29.9115C128.374 20.8737 119.631 19.0293 118.514 19.0293Z" fill="url(#paint8_linear_2009_24487)"/>
<path d="M118.514 19.0289C121.491 19.7667 123.165 20.8733 123.165 21.98C123.165 24.7467 112.747 26.7756 99.9112 26.7756C87.0749 26.7756 76.6571 24.5622 76.6571 21.98C76.6571 20.8733 78.3314 19.9511 81.3079 19.0289C81.3079 19.0289 81.3079 19.0289 81.4939 19.0289C85.7727 17.7378 92.4699 17 99.9112 17C107.352 17 114.236 17.7378 118.514 19.0289C118.514 18.8444 118.328 18.8444 118.514 19.0289ZM118.328 21.4267C118.328 19.7667 110.143 18.4756 99.9112 18.4756C89.6794 18.4756 81.4939 19.7667 81.4939 21.4267C81.4939 23.0867 89.8654 24.3778 99.9112 24.3778C109.957 24.3778 118.328 23.0867 118.328 21.4267Z" fill="#BCD8CC"/>
<path d="M130.235 104.058C123.537 106.824 112.375 108.484 99.9112 108.484C87.8191 108.484 77.0292 106.824 70.3321 104.242C70.146 111.62 70.146 124.715 72.3784 139.102C78.7035 141.5 88.7493 144.451 100.097 144.451C111.817 144.451 122.049 141.315 128.374 138.733C130.421 124.531 130.421 111.251 130.235 104.058Z" fill="#81B9C9"/>
<path d="M78.1454 129.511L77.9594 116.969C77.9594 115.493 77.9594 114.202 77.9594 112.726L78.8896 112.173C79.4477 112.173 80.1918 114.018 81.122 117.338C81.8661 120.104 82.4242 122.686 82.7963 124.9C83.1683 127.113 83.3544 128.404 83.5404 128.589C83.7264 127.851 83.9125 126.56 84.2845 124.9C84.6566 123.055 85.0286 121.764 85.2147 120.658C85.7728 117.706 86.1448 115.124 86.3309 112.911V112.726C86.3309 112.542 86.5169 112.173 86.7029 111.989C86.889 111.804 87.075 111.804 87.4471 111.804C87.6331 111.804 87.8191 111.804 88.0052 111.989C88.1912 112.173 88.1912 112.358 88.1912 112.542C88.1912 115.124 88.3772 118.998 88.5633 124.162C88.7493 129.326 88.9353 133.2 88.9353 135.782C88.9353 136.335 88.7493 136.704 88.5633 137.073C88.3772 137.442 88.0052 137.626 87.8191 137.626C87.261 137.626 87.075 137.258 87.075 136.335L86.889 122.686V121.026C86.7029 121.949 86.3309 123.24 85.9588 125.453C85.4007 127.482 85.0286 129.142 85.0286 130.249V130.433C85.0286 130.433 85.0286 130.802 84.8426 130.986C84.8426 131.355 84.8426 131.54 84.6566 131.724C84.6566 131.909 84.4705 132.093 84.4705 132.462C84.2845 133.015 83.9124 133.2 83.5404 133.2C82.7963 133.2 82.4242 132.278 82.4242 130.249C82.4242 128.22 81.8661 125.453 80.9359 121.949C80.3778 120.104 80.1918 118.998 80.0058 118.26C80.0058 119.92 80.0058 121.211 80.0058 122.133L80.1918 135.413C80.1918 135.966 80.0058 136.335 79.6337 136.704C79.0756 136.704 78.7035 136.52 78.5175 136.151C78.3315 135.782 78.1454 135.229 78.1454 134.675V129.511Z" fill="white"/>
<path d="M98.0509 114.017H97.4928C97.3068 114.017 97.1207 114.017 96.9347 114.202C96.7487 114.202 96.7487 114.386 96.7487 114.755C96.7487 116.784 96.9347 120.104 97.1207 124.162C97.3068 128.404 97.4928 131.54 97.4928 133.568V134.86C97.6788 134.86 97.8649 134.86 98.2369 134.86C99.1671 134.86 99.5392 135.228 99.5392 135.966V136.151L98.795 136.704H96.5626C94.7023 136.704 93.7722 136.335 93.7722 135.782C93.7722 135.228 94.1442 135.044 94.7023 135.044H95.4464C95.8185 135.044 96.0045 134.86 96.0045 134.306C96.0045 132.646 95.8185 130.064 95.6325 126.744C95.4464 123.424 95.2604 120.842 95.2604 119.182V115.862C95.2604 115.124 95.2604 114.571 95.2604 114.017C94.8883 114.202 94.7023 114.202 94.5163 114.202C93.9582 114.202 93.7722 114.017 93.7722 113.464C93.7722 113.28 93.9582 112.911 94.3303 112.726C94.7023 112.542 95.0744 112.357 95.6325 112.357C96.5626 112.173 97.3068 112.173 97.6788 112.173C98.0509 112.173 98.423 112.173 98.609 112.357C98.795 112.542 98.9811 112.726 98.9811 112.911C98.9811 113.095 98.9811 113.28 98.795 113.464C98.423 114.017 98.2369 114.017 98.0509 114.017Z" fill="white"/>
<path d="M106.422 124.531V125.638V125.822C106.422 127.667 106.608 130.433 106.608 134.307V135.045H109.213C109.771 135.413 109.957 135.598 109.957 135.967C109.957 136.336 109.957 136.52 109.771 136.705C109.399 136.889 109.213 136.889 109.027 136.889C108.841 136.889 108.655 136.889 108.469 136.705C108.283 136.705 108.097 136.705 107.911 136.705H106.794C106.608 136.889 106.236 137.073 105.864 137.073C105.492 137.073 105.306 136.889 104.934 136.705C104.748 136.52 104.562 136.336 104.562 135.967L104.748 134.491C104.748 132.093 104.562 128.405 104.376 123.425C104.19 118.445 104.004 114.756 104.004 112.358C104.004 112.173 104.004 111.989 104.19 111.805C104.376 111.62 104.562 111.62 104.748 111.62C104.934 111.62 105.12 111.62 105.492 111.805C105.678 111.989 105.864 112.173 105.864 112.542L106.422 124.531Z" fill="white"/>
<path d="M115.166 126.376V120.289C115.166 119.182 115.166 117.891 114.98 116.6C114.794 115.125 114.794 114.202 114.794 113.833C114.794 113.465 114.794 113.096 114.98 112.911C115.166 112.727 115.352 112.542 115.724 112.542C116.468 112.542 117.026 113.465 117.026 115.125C117.026 115.125 117.026 117.338 116.84 121.765C116.84 121.58 117.212 121.027 117.398 120.105C117.77 119.182 118.142 118.26 118.514 117.522C118.887 116.6 119.259 115.678 119.631 114.756C120.561 112.542 121.305 111.62 121.677 111.62C121.863 111.62 122.049 111.62 122.235 111.805C122.421 111.989 122.607 112.173 122.607 112.358C122.607 112.542 122.049 114.018 120.747 116.416C119.631 118.813 118.887 120.473 118.7 121.211V121.765C119.073 122.502 119.817 125.269 121.305 129.696C122.793 134.122 123.351 136.52 123.351 136.705C123.351 136.889 123.165 137.258 122.979 137.442C122.793 137.627 122.607 137.627 122.235 137.627L121.491 137.442C120.933 134.307 120.375 131.725 119.817 129.327C119.259 127.113 118.514 124.9 117.584 122.871C117.026 123.978 116.654 124.716 116.654 124.9C116.654 125.638 116.468 126.007 116.468 126.376L116.654 132.462V135.045C116.654 136.151 116.282 136.705 115.538 136.705C114.98 136.705 114.608 136.151 114.608 135.045C114.608 133.938 114.608 132.462 114.794 130.433C114.98 128.773 115.166 127.298 115.166 126.376Z" fill="white"/>
<path d="M99.9112 18.4756C110.143 18.4756 118.328 19.7667 118.328 21.4267C118.328 23.0867 110.143 24.3778 99.9112 24.3778C89.6794 24.3778 81.494 23.0867 81.494 21.4267C81.494 19.7667 89.8655 18.4756 99.9112 18.4756Z" fill="#B1B5A0"/>
<g opacity="0.2" style="mix-blend-mode:overlay">
<path d="M81.494 21.4268C81.494 23.0868 89.8655 24.3779 99.9112 24.3779C101.027 24.3779 102.144 24.3779 103.26 24.3779C99.5392 22.9024 96.0045 21.0579 92.656 18.6602C86.1448 19.2135 81.494 20.1357 81.494 21.4268Z" fill="url(#paint9_linear_2009_24487)"/>
</g>
<g opacity="0.2" style="mix-blend-mode:overlay">
<path d="M78.3314 160.682C83.7264 162.711 89.3074 164.187 95.0744 165.293C84.4705 130.987 80.9359 89.4866 101.399 57.5777C98.0509 58.1311 91.9118 56.8399 87.447 55.5488C57.4958 83.5844 66.2393 129.327 78.3314 160.682Z" fill="url(#paint10_linear_2009_24487)"/>
</g>
<defs>
<linearGradient id="paint0_linear_2009_24487" x1="101.857" y1="182.523" x2="99.1606" y2="71.0005" gradientUnits="userSpaceOnUse">
<stop stop-color="white"/>
<stop offset="1"/>
</linearGradient>
<linearGradient id="paint1_linear_2009_24487" x1="-3.61738" y1="-12.1044" x2="146.949" y2="167.159" gradientUnits="userSpaceOnUse">
<stop stop-color="white"/>
<stop offset="1"/>
</linearGradient>
<linearGradient id="paint2_linear_2009_24487" x1="56.151" y1="248.856" x2="116.776" y2="147.871" gradientUnits="userSpaceOnUse">
<stop stop-color="white"/>
<stop offset="1"/>
</linearGradient>
<linearGradient id="paint3_linear_2009_24487" x1="31.7881" y1="2.03938" x2="158.716" y2="153.158" gradientUnits="userSpaceOnUse">
<stop stop-color="white"/>
<stop offset="1"/>
</linearGradient>
<linearGradient id="paint4_linear_2009_24487" x1="127.793" y1="176.431" x2="122.307" y2="27.9492" gradientUnits="userSpaceOnUse">
<stop stop-color="white"/>
<stop offset="1" stop-color="#E4EEF2"/>
</linearGradient>
<linearGradient id="paint5_linear_2009_24487" x1="83.3014" y1="37.8716" x2="116.638" y2="37.8716" gradientUnits="userSpaceOnUse">
<stop stop-color="#D2D7D9"/>
<stop offset="1" stop-color="white"/>
</linearGradient>
<linearGradient id="paint6_linear_2009_24487" x1="67.2235" y1="15.1833" x2="135.003" y2="38.5953" gradientUnits="userSpaceOnUse">
<stop stop-color="#3D7A5D"/>
<stop offset="1"/>
</linearGradient>
<linearGradient id="paint7_linear_2009_24487" x1="78.5531" y1="-8.1003" x2="85.4119" y2="52.3167" gradientUnits="userSpaceOnUse">
<stop stop-color="white"/>
<stop offset="1"/>
</linearGradient>
<linearGradient id="paint8_linear_2009_24487" x1="121.101" y1="19.324" x2="121.101" y2="33.6751" gradientUnits="userSpaceOnUse">
<stop stop-color="white"/>
<stop offset="1" stop-color="#E4EEF2"/>
</linearGradient>
<linearGradient id="paint9_linear_2009_24487" x1="81.5338" y1="21.5653" x2="103.373" y2="21.5653" gradientUnits="userSpaceOnUse">
<stop stop-color="#D2D7D9"/>
<stop offset="1" stop-color="white"/>
</linearGradient>
<linearGradient id="paint10_linear_2009_24487" x1="56.8093" y1="-12.2981" x2="105.783" y2="173.279" gradientUnits="userSpaceOnUse">
<stop stop-color="white"/>
<stop offset="1"/>
</linearGradient>
</defs>
</svg>
