<svg width="200" height="200" viewBox="0 0 200 200" fill="none" xmlns="http://www.w3.org/2000/svg">
<path d="M125.594 22.9907C125.594 22.9907 130.59 24.394 126.454 28.1723C126.883 35.8906 128.925 41.1262 135.639 51.2734C141.816 60.4491 142.997 65.4147 142.997 74.3745C142.997 83.3343 142.997 136.607 142.997 148.59C142.997 168.074 143.911 180.866 111.307 182.701C103.894 183.187 88.6934 182.701 88.6934 182.701C56.1432 180.866 57.0027 168.074 57.0027 148.59C57.0027 136.607 57.0027 83.3343 57.0027 74.3745C57.0027 65.4147 58.1843 60.5031 64.3613 51.2734C71.0217 41.1262 73.1166 35.9446 73.5463 28.1723C69.4104 24.3401 74.4058 22.9907 74.4058 22.9907C74.4058 22.9907 95.0852 31.0329 125.594 22.9907Z" fill="url(#paint0_linear_2003_22740)"/>
<path d="M142.997 148.59C142.997 136.608 142.997 83.3347 142.997 74.375C142.997 65.4152 141.816 60.5035 135.639 51.2739C128.978 41.1267 126.883 35.9451 126.454 28.1728C130.59 24.3406 125.594 22.9912 125.594 22.9912C125.111 23.0992 124.574 23.2611 124.09 23.369C125.487 24.2866 126.131 25.0962 126.078 25.636C125.97 26.9853 123.983 27.8489 119.901 28.8745C115.818 29.9 111.629 30.6556 118.504 30.2238C122.64 29.9539 124.251 30.4397 124.842 32.2208C125.541 34.3798 126.937 40.4789 131.234 47.3877C135.531 54.2964 141.171 62.1227 141.171 69.0315C141.171 82.1473 141.171 98.2857 141.171 106.814C141.171 115.342 141.171 132.937 141.171 142.599C141.171 158.359 141.171 152.908 141.171 160.41C141.171 166.887 135.155 180.327 107.869 180.327H92.507C65.2207 180.327 59.2048 166.941 59.2048 160.41C59.2048 152.908 59.2048 158.359 59.2048 142.599C59.2048 132.883 59.2048 115.342 59.2048 106.814C59.2048 98.2857 59.2048 82.2013 59.2048 69.0315C59.2048 62.1227 64.8447 54.2964 69.1418 47.3877C73.4388 40.4789 74.9964 34.3798 75.5336 32.2208C76.1244 30.0619 77.5747 29.5761 81.7643 30.1698C96.6429 32.4907 106.633 30.1698 100.618 30.3317C83.2682 30.4397 73.7073 27.2012 74.0296 25.2042C74.137 24.6644 74.5668 24.0167 75.2114 23.315C74.728 23.1531 74.4593 23.0452 74.4593 23.0452C74.4593 23.0452 69.4641 24.4485 73.6 28.2267C73.1703 35.9451 71.1291 41.1806 64.415 51.3279C58.238 60.5035 57.0563 65.4691 57.0563 74.4289C57.0563 83.3887 57.0563 136.662 57.0563 148.644C57.0563 168.129 56.1432 180.921 88.747 182.756C88.747 182.756 103.894 183.242 111.36 182.756C143.91 180.867 142.997 168.075 142.997 148.59Z" fill="url(#paint1_linear_2003_22740)"/>
<path d="M107.439 180.273C135.746 179.247 140.688 170.126 140.688 156.74C140.688 143.354 140.688 84.1982 140.688 72.7017C140.688 61.2051 136.014 56.0775 132.845 50.9499C129.408 45.6604 126.078 38.2119 126.078 38.2119H73.9221C73.9221 38.2119 70.5383 45.6604 67.1543 50.9499C63.9853 56.0775 59.3122 61.2051 59.3122 72.7017C59.3122 84.1982 59.3122 143.354 59.3122 156.74C59.3122 170.126 64.2537 179.301 92.5605 180.273H107.439Z" fill="url(#paint2_radial_2003_22740)"/>
<path d="M99.1136 176.711C68.2823 176.711 61.031 164.243 59.3122 158.521C59.7419 170.936 65.4892 179.356 92.5069 180.273H107.439C131.073 179.41 138.432 172.933 140.204 163.001C136.068 169.424 125.648 176.711 99.1136 176.711Z" fill="url(#paint3_radial_2003_22740)"/>
<path opacity="0.8" d="M99.9734 42.8539C114.391 42.8539 126.078 40.7757 126.078 38.2121C126.078 35.6485 114.391 33.5703 99.9734 33.5703C85.5562 33.5703 73.8689 35.6485 73.8689 38.2121C73.8689 40.7757 85.5562 42.8539 99.9734 42.8539Z" fill="url(#paint4_radial_2003_22740)"/>
<path opacity="0.6" d="M83.322 181.514C57.7546 178.653 57.9157 164.35 57.9157 158.898C57.9157 153.501 57.9157 140.925 57.9157 129.914C57.9157 118.903 57.9157 81.3369 57.9157 72.8089C57.9157 64.281 59.7957 59.963 64.791 52.1907C70.9143 43.1769 73.3314 36.754 74.1908 32.8138C75.0502 28.8737 76.8764 29.6294 80.4752 29.9532C101.37 32.3281 106.634 30.7088 106.634 30.7088C101.531 31.0326 91.379 31.1946 79.2935 29.2515C74.6742 28.28 72.7943 26.3908 72.2034 24.4478C71.6663 25.2574 71.72 26.4988 73.5462 28.172C73.1165 35.8904 71.0754 41.1259 64.3612 51.2732C58.1842 60.4488 57.0026 65.4144 57.0026 74.3742C57.0026 83.334 57.0026 136.607 57.0026 148.589C57.0026 168.074 56.0894 180.866 88.6933 182.701C88.6933 182.701 103.84 183.187 111.307 182.701C113.616 182.593 115.765 182.377 117.698 182.161C109.104 182.971 97.3948 183.079 83.322 181.514Z" fill="url(#paint5_linear_2003_22740)"/>
<path opacity="0.6" d="M74.1908 35.5132C74.1908 35.5132 71.1292 44.3651 64.6836 53.7026C66.0801 50.5721 71.6126 40.8027 74.1908 35.5132Z" fill="white"/>
<path opacity="0.6" d="M58.7213 81.229V137.848C58.7213 137.848 57.3248 95.9101 58.7213 81.229Z" fill="white"/>
<path opacity="0.3" d="M80.6364 41.3423C80.6364 41.3423 100.51 44.4188 118.074 41.5582C109.641 44.6887 93.3127 44.9046 80.6364 41.3423Z" fill="#FEFFF3"/>
<g opacity="0.3" style="mix-blend-mode:soft-light">
<path d="M142.997 148.59C142.997 136.608 142.997 83.3347 142.997 74.375C142.997 65.4152 141.816 60.5035 135.639 51.2739C128.978 41.1267 126.883 35.9451 126.454 28.1728C130.59 24.3406 125.594 22.9912 125.594 22.9912C100.564 29.5761 82.1942 25.3661 76.3932 23.6389C81.9256 26.2297 91.8625 29.0903 108.299 28.3887C116.087 27.633 108.728 30.7096 96.9115 31.0334C100.188 31.7891 102.498 31.897 105.774 31.6811C109.051 31.4652 114.153 41.9902 118.504 53.6487C122.855 65.3072 122.855 94.5075 122.855 130.239C122.855 151.343 122.855 144.326 122.855 158.413C122.855 170.612 123.768 181.784 97.8246 182.972C102.444 183.026 107.762 183.026 111.36 182.756C143.91 180.867 142.997 168.075 142.997 148.59Z" fill="url(#paint6_linear_2003_22740)"/>
</g>
<path opacity="0.3" d="M142.997 148.59C142.997 136.608 142.997 83.3347 142.997 74.375C142.997 65.4152 141.816 60.5035 135.639 51.2739C128.978 41.1267 126.883 35.9451 126.454 28.1728C130.59 24.3406 125.594 22.9912 125.594 22.9912C119.417 24.6104 113.616 25.582 108.299 26.1217C110.662 26.8234 112.972 27.2552 115.013 26.9853C123.499 26.0138 121.136 29.738 115.872 30.7095C120.277 30.5476 120.814 34.1639 125.057 43.6634C129.3 53.1629 135.8 60.6654 135.8 79.5565C135.8 98.4476 135.8 130.94 135.8 148.374C135.8 160.356 136.391 173.85 123.607 181.191C143.642 176.981 142.997 165.214 142.997 148.59Z" fill="url(#paint7_linear_2003_22740)"/>
<g opacity="0.4" style="mix-blend-mode:soft-light">
<path d="M68.2824 152.313V178.599C71.0755 179.894 74.5131 180.92 78.8638 181.676V154.958C75.2113 154.472 71.5589 153.663 68.2824 152.313Z" fill="url(#paint8_linear_2003_22740)"/>
</g>
<g opacity="0.4" style="mix-blend-mode:soft-light">
<path d="M68.2823 148.212C71.3977 149.939 75.1039 150.965 78.8638 151.667V101.524C78.8638 78.2071 77.5748 66.6025 83.9129 51.4897C88.1562 41.3425 91.379 32.7066 93.5813 26.4455C89.6602 26.2296 86.2225 25.7978 83.4294 25.312C81.2809 31.627 77.897 40.7487 73.3851 51.4897C67.0469 66.5486 68.3361 78.2071 68.3361 101.524V148.212H68.2823Z" fill="url(#paint9_linear_2003_22740)"/>
</g>
<g opacity="0.2" style="mix-blend-mode:soft-light">
<path d="M126.561 97.1521C126.561 120.145 126.561 156.146 126.561 167.535L133.222 165.916C133.222 165.916 133.222 114.478 133.222 94.9931C133.222 75.5083 132.899 63.31 124.52 47.0637C120.169 38.5897 116.034 30.9253 113.133 25.5278C111.307 25.7977 109.588 26.0136 107.869 26.1215C111.038 32.0587 115.282 40.155 118.827 47.3336C125.541 60.8812 126.561 74.159 126.561 97.1521Z" fill="url(#paint10_linear_2003_22740)"/>
</g>
<g opacity="0.8" style="mix-blend-mode:soft-light">
<path d="M94.5484 181.191C94.5484 181.191 107.547 181.083 113.993 180.489C118.128 180.111 114.1 182.324 97.986 182.648C108.997 182.756 119.847 181.892 121.405 180.813C123.231 179.517 121.888 179.463 118.397 179.787C115.013 180.057 103.304 181.083 94.5484 181.191Z" fill="url(#paint11_linear_2003_22740)"/>
</g>
<g opacity="0.8" style="mix-blend-mode:soft-light">
<path d="M118.451 179.733C116.248 179.949 110.716 180.435 104.754 180.813C108.729 180.651 113.294 180.435 117.108 180.111C120.384 179.787 120.814 180.165 120.223 180.705C119.632 181.299 112.381 182.162 104.7 182.432C102.874 182.486 101.37 182.54 100.134 182.594C99.4362 182.594 98.6842 182.648 97.9322 182.648C108.943 182.756 119.793 181.892 121.351 180.813C123.285 179.463 121.942 179.409 118.451 179.733Z" fill="url(#paint12_linear_2003_22740)"/>
</g>
<path opacity="0.6" d="M73.1702 178.114C73.1702 178.114 79.1861 179.949 93.2052 180.813C104.431 181.46 94.0646 182.918 82.3014 181.137C73.0628 179.679 71.4514 177.844 73.1702 178.114Z" fill="white"/>
<path opacity="0.6" d="M141.01 73.2954C141.01 73.2954 141.064 74.3749 141.117 76.264C141.171 78.1531 141.279 80.8518 141.279 84.0903C141.332 87.3288 141.44 91.107 141.44 95.2091C141.44 99.2572 141.493 103.575 141.493 107.947C141.493 112.265 141.44 116.583 141.44 120.685C141.44 124.733 141.332 128.511 141.279 131.804C141.225 135.042 141.117 137.741 141.117 139.63C141.064 141.519 141.01 142.599 141.01 142.599C141.01 142.599 140.956 141.519 140.903 139.63C140.849 137.741 140.742 135.042 140.742 131.804C140.688 128.565 140.58 124.787 140.58 120.685C140.58 116.637 140.527 112.319 140.527 107.947C140.527 103.629 140.58 99.3111 140.58 95.2091C140.58 91.161 140.688 87.3828 140.742 84.0903C140.795 80.8518 140.903 78.1531 140.903 76.264C140.956 74.3749 141.01 73.2954 141.01 73.2954Z" fill="#FDFEFF"/>
<path opacity="0.5" d="M59.1511 149.021C59.1511 149.021 59.2048 149.669 59.2585 150.749C59.3122 151.828 59.366 153.447 59.4734 155.336C59.5271 156.308 59.5271 157.334 59.5808 158.413C59.6345 159.493 59.5808 160.626 59.6882 161.813C59.7956 163.001 60.0104 164.188 60.3327 165.376C60.655 166.563 61.1922 167.751 61.8367 168.83C62.4813 169.964 63.287 170.989 64.2538 171.907C65.2206 172.824 66.295 173.688 67.423 174.39C68.5509 175.091 69.7326 175.685 70.9143 176.225C71.5052 176.441 72.096 176.71 72.6331 176.926C72.9017 177.034 73.2239 177.142 73.4924 177.25C73.761 177.358 74.0296 177.412 74.2981 177.52C74.8353 177.682 75.3725 177.844 75.8559 177.952C76.3393 178.114 76.8227 178.222 77.3061 178.33C78.2192 178.546 79.0249 178.707 79.6694 178.815C81.0123 179.031 81.7643 179.193 81.7643 179.193C81.7643 179.193 81.5495 179.193 81.2272 179.139C80.8512 179.085 80.314 179.085 79.6694 178.977C79.0249 178.869 78.1655 178.815 77.2524 178.6C76.7689 178.546 76.2856 178.438 75.7485 178.33C75.2114 178.222 74.6742 178.114 74.1371 177.952C73.0091 177.682 71.8274 177.304 70.592 176.818C69.3566 176.333 68.1212 175.739 66.9395 175.037C65.7578 174.336 64.5761 173.472 63.5555 172.5C62.535 171.529 61.6757 170.449 60.9774 169.262C60.2791 168.075 59.7956 166.887 59.4196 165.646C59.0436 164.404 58.8826 163.163 58.8289 161.975C58.7752 160.788 58.8289 159.654 58.8289 158.575C58.8826 157.495 58.8826 156.47 58.9363 155.498C58.99 153.609 59.0974 152.044 59.1511 150.911C59.0974 149.669 59.1511 149.021 59.1511 149.021Z" fill="#D5DADF"/>
<path d="M88.962 179.895C88.962 179.895 90.5196 179.895 92.8293 179.895C94.011 179.949 95.3539 179.895 96.8041 179.949C97.5561 179.949 98.3081 179.949 99.0601 179.949C99.812 179.949 100.618 179.949 101.37 179.949C102.122 179.949 102.927 179.949 103.679 179.949C104.055 179.949 104.431 179.949 104.807 179.949C105.183 179.949 105.559 179.949 105.935 179.895C106.634 179.895 107.386 179.841 108.03 179.841C108.675 179.841 109.319 179.841 109.91 179.787C112.22 179.679 113.777 179.679 113.777 179.679C113.777 179.679 112.274 179.949 109.964 180.273C109.373 180.38 108.728 180.38 108.084 180.434C107.439 180.488 106.687 180.542 105.989 180.596C105.237 180.65 104.485 180.704 103.733 180.704C102.981 180.704 102.175 180.758 101.423 180.758C100.671 180.758 99.8658 180.758 99.1138 180.704C98.3618 180.704 97.6097 180.65 96.8578 180.65C96.1058 180.596 95.4076 180.542 94.763 180.542C94.1184 180.488 93.4739 180.434 92.883 180.38C91.7014 180.273 90.7345 180.165 90.09 180.057C89.7677 180.003 89.4991 179.949 89.2843 179.949C89.0694 179.895 88.962 179.895 88.962 179.895Z" fill="#4C4C4C"/>
<path d="M127.743 24.3406C127.044 23.369 125.648 22.9912 125.648 22.9912C95.1389 31.0334 74.5131 22.9912 74.5131 22.9912C74.5131 22.9912 73.224 23.369 72.472 24.2326C75.4262 25.6359 82.8386 28.1188 98.1469 28.4966C113.025 28.8744 123.07 26.0678 127.743 24.3406Z" fill="url(#paint13_linear_2003_22740)"/>
<path d="M100.242 23.9087C116.913 23.9087 130.429 22.3622 130.429 20.4544C130.429 18.5466 116.913 17 100.242 17C83.5701 17 70.0551 18.5466 70.0551 20.4544C70.0551 22.3622 83.5701 23.9087 100.242 23.9087Z" fill="url(#paint14_linear_2003_22740)"/>
<path d="M97.0191 23.0993C110.962 23.0993 122.264 21.7944 122.264 20.1847C122.264 18.575 110.962 17.27 97.0191 17.27C83.0766 17.27 71.774 18.575 71.774 20.1847C71.774 21.7944 83.0766 23.0993 97.0191 23.0993Z" fill="url(#paint15_linear_2003_22740)"/>
<path d="M130.375 20.2381C130.053 22.1272 116.732 23.9623 100.242 23.9623C83.5371 23.9623 70.0551 22.3971 70.0551 20.508C70.0551 20.346 70.1625 20.2381 70.2699 20.0762C68.766 20.7239 67.9066 21.4255 67.9066 22.1272C67.9066 25.1498 82.1943 27.6326 99.8659 27.6326C117.484 27.6326 131.825 25.1498 131.825 22.1272C131.772 21.5875 131.234 20.7239 130.375 20.2381Z" fill="url(#paint16_linear_2003_22740)"/>
<path d="M80.8517 23.1528V26.6072C83.8596 26.985 87.2973 27.3089 91.0572 27.4708V23.8006C87.2973 23.6386 83.8596 23.4227 80.8517 23.1528Z" fill="url(#paint17_linear_2003_22740)"/>
<path d="M130.375 20.2381C130.053 22.1272 116.732 23.9623 100.242 23.9623C83.537 23.9623 70.0551 22.3971 70.0551 20.508C70.0551 20.346 70.1624 20.2381 70.2699 20.0762C70.0013 20.1841 69.7865 20.2921 69.5179 20.4C71.1293 22.0192 76.7692 24.1243 94.7631 24.3402C109.588 24.5021 116.517 24.2862 116.624 25.2038C116.732 26.1213 104.754 27.5786 89.0158 26.877C80.4217 26.4991 75.0504 25.6895 71.4517 24.664C76.7693 26.4452 87.4581 27.6326 99.8659 27.6326C117.484 27.6326 131.825 25.1498 131.825 22.1272C131.771 21.5875 131.234 20.7239 130.375 20.2381Z" fill="url(#paint18_linear_2003_22740)"/>
<path d="M130.375 20.2388C130.053 22.0199 118.128 23.7471 102.928 23.909C106.258 23.963 109.857 23.963 113.831 23.8011C121.244 23.3153 125.272 22.9915 125.272 24.071C125.272 25.1505 118.182 27.7952 94.3334 27.5254C93.9037 27.5254 93.4203 27.5254 92.9906 27.5254C95.1928 27.6333 97.5025 27.6333 99.8121 27.6333C117.43 27.6333 131.771 25.1505 131.771 22.1279C131.771 21.5881 131.234 20.7245 130.375 20.2388Z" fill="url(#paint19_linear_2003_22740)"/>
<path d="M77.6824 25.9594C68.1214 24.5561 67.9604 21.5335 73.0631 22.505C76.3933 23.0987 79.7773 23.3146 82.7315 23.3146C75.0505 22.667 70.0551 21.6414 70.0551 20.508C70.0551 20.346 70.1625 20.2381 70.2699 20.0762C68.766 20.7239 67.9066 21.4255 67.9066 22.1272C67.9066 23.8544 72.5259 25.4196 79.8309 26.3912C79.5623 26.2832 78.9178 26.1213 77.6824 25.9594Z" fill="url(#paint20_linear_2003_22740)"/>
<path d="M127.26 23.8546C127.582 23.099 126.454 24.5023 125.487 24.9341C124.52 25.3659 121.673 26.0136 122.425 25.15C123.177 24.2864 122.533 24.5023 121.62 25.204C120.653 25.9057 118.29 26.6613 119.256 25.9057C120.223 25.204 120.653 24.0705 119.847 24.7182C119.041 25.3659 117.484 26.3914 114.959 26.6613C112.435 26.9312 112.703 25.6898 112.596 25.258C112.488 24.7722 112.166 25.4738 111.898 26.3914C111.629 27.309 110.394 26.8233 110.394 25.9057C110.394 24.9881 110.018 24.8262 109.91 26.1756C109.803 27.2011 105.452 26.9852 101.424 27.0391C97.8248 27.0931 97.7174 25.7977 97.7174 25.5278C97.7174 25.7977 97.5562 27.0391 97.2877 27.0931C96.9654 27.1471 96.8043 26.9312 96.1598 25.7437C96.1598 26.7153 95.4615 27.255 94.3872 27.0931C93.313 26.8772 92.4535 26.4454 91.0033 26.7693C89.553 27.0931 88.9622 26.0676 88.6399 25.3119C88.4251 26.6613 87.9416 26.6613 87.3508 26.6613C86.7062 26.6613 84.88 24.9341 84.88 24.9341C84.88 24.9341 86.1154 26.7153 83.8594 26.5534C81.6035 26.3914 80.2607 24.8802 80.2607 24.8802C80.2607 24.8802 80.8515 26.2295 78.4345 25.7977C74.9431 25.258 73.6539 22.6132 73.6539 23.4768C73.6539 24.3404 75.8024 25.15 72.9556 24.8802C71.6128 24.7182 70.0551 24.1245 68.8197 23.5848C72.3111 25.9596 84.8262 27.7408 99.8122 27.7408C116.302 27.7408 129.892 25.5818 131.557 22.8291C130.053 23.8006 126.991 24.3944 127.26 23.8546Z" fill="url(#paint21_linear_2003_22740)"/>
<defs>
<linearGradient id="paint0_linear_2003_22740" x1="57.0496" y1="102.973" x2="143.006" y2="102.973" gradientUnits="userSpaceOnUse">
<stop stop-color="#C9C5C4"/>
<stop offset="0.1165" stop-color="#DFDDDC"/>
<stop offset="0.2475" stop-color="#F1F0EF"/>
<stop offset="0.3805" stop-color="#FBFBFB"/>
<stop offset="0.5177" stop-color="white"/>
<stop offset="0.6371" stop-color="#FBFBFA"/>
<stop offset="0.7697" stop-color="#EFEDED"/>
<stop offset="0.9081" stop-color="#DAD8D7"/>
<stop offset="1" stop-color="#C9C5C4"/>
</linearGradient>
<linearGradient id="paint1_linear_2003_22740" x1="57.0495" y1="102.973" x2="143.006" y2="102.973" gradientUnits="userSpaceOnUse">
<stop stop-color="#BEC5CC"/>
<stop offset="0.1165" stop-color="#D5DFEB"/>
<stop offset="0.2475" stop-color="#F1F0EF"/>
<stop offset="0.3805" stop-color="#FBFBFB"/>
<stop offset="0.5177" stop-color="white"/>
<stop offset="0.6371" stop-color="#FBFBFA"/>
<stop offset="0.7697" stop-color="#EFEDED"/>
<stop offset="0.9081" stop-color="#E0E6EB"/>
<stop offset="1" stop-color="#B9BEC7"/>
</linearGradient>
<radialGradient id="paint2_radial_2003_22740" cx="0" cy="0" r="1" gradientUnits="userSpaceOnUse" gradientTransform="translate(80.1232 73.0855) scale(134.733 109.152)">
<stop offset="0.1107" stop-color="#FDFFEA"/>
<stop offset="0.7062" stop-color="#EEDCB4"/>
<stop offset="1" stop-color="#E0D1B0"/>
</radialGradient>
<radialGradient id="paint3_radial_2003_22740" cx="0" cy="0" r="1" gradientUnits="userSpaceOnUse" gradientTransform="translate(80.1248 73.0886) scale(134.73 109.15)">
<stop offset="0.1107" stop-color="#FEFFF3"/>
<stop offset="0.7062" stop-color="#E4DBC8"/>
<stop offset="1" stop-color="#D8CFBC"/>
</radialGradient>
<radialGradient id="paint4_radial_2003_22740" cx="0" cy="0" r="1" gradientUnits="userSpaceOnUse" gradientTransform="translate(113.536 25.4414) scale(58.8403 47.6685)">
<stop offset="0.1107" stop-color="#FDFFE4"/>
<stop offset="0.7062" stop-color="#F7EACE"/>
<stop offset="1" stop-color="#F0DDB3"/>
</radialGradient>
<linearGradient id="paint5_linear_2003_22740" x1="165.653" y1="103.71" x2="65.6608" y2="103.71" gradientUnits="userSpaceOnUse">
<stop stop-color="#B0BBC5"/>
<stop offset="0.1165" stop-color="#DFE1E7"/>
<stop offset="0.2475" stop-color="#F1F0EF"/>
<stop offset="0.3805" stop-color="#FBFBFB"/>
<stop offset="0.5177" stop-color="white"/>
<stop offset="0.6371" stop-color="#FBFBFA"/>
<stop offset="0.7697" stop-color="#EFEDED"/>
<stop offset="0.9081" stop-color="#C7CED2"/>
<stop offset="1" stop-color="#B8BEC1"/>
</linearGradient>
<linearGradient id="paint6_linear_2003_22740" x1="25.4658" y1="102.974" x2="146.705" y2="102.974" gradientUnits="userSpaceOnUse">
<stop stop-color="#C9C5C4"/>
<stop offset="0.0257004" stop-color="#DDDADA"/>
<stop offset="0.0556553" stop-color="#ECEBEB"/>
<stop offset="0.092947" stop-color="#F7F6F6"/>
<stop offset="0.1453" stop-color="#FDFDFD"/>
<stop offset="0.2906" stop-color="white"/>
<stop offset="0.4604" stop-color="#FAFAFA"/>
<stop offset="0.6673" stop-color="#EDEBEB"/>
<stop offset="0.8928" stop-color="#D6D3D2"/>
<stop offset="1" stop-color="#C9C5C4"/>
</linearGradient>
<linearGradient id="paint7_linear_2003_22740" x1="25.468" y1="102.107" x2="146.705" y2="102.107" gradientUnits="userSpaceOnUse">
<stop stop-color="#C9C5C4"/>
<stop offset="0.0257004" stop-color="#DDDADA"/>
<stop offset="0.0556553" stop-color="#ECEBEB"/>
<stop offset="0.092947" stop-color="#F7F6F6"/>
<stop offset="0.1453" stop-color="#FDFDFD"/>
<stop offset="0.2906" stop-color="white"/>
<stop offset="0.4604" stop-color="#FAFAFA"/>
<stop offset="0.6673" stop-color="#EDEBEB"/>
<stop offset="0.8928" stop-color="#D6D3D2"/>
<stop offset="1" stop-color="#C9C5C4"/>
</linearGradient>
<linearGradient id="paint8_linear_2003_22740" x1="73.5856" y1="27.6154" x2="73.5856" y2="210.423" gradientUnits="userSpaceOnUse">
<stop/>
<stop offset="0.0472484" stop-color="#2B2C2B"/>
<stop offset="0.1532" stop-color="#989997"/>
<stop offset="0.2476" stop-color="#FDFFFC"/>
<stop offset="0.3587" stop-color="#FDFFFC"/>
<stop offset="0.4059" stop-color="#EBEDEA"/>
<stop offset="0.5006" stop-color="#BCBEBC"/>
<stop offset="0.6344" stop-color="#717270"/>
<stop offset="0.8007" stop-color="#0A0A0A"/>
<stop offset="0.8167"/>
</linearGradient>
<linearGradient id="paint9_linear_2003_22740" x1="80.8917" y1="27.607" x2="80.8917" y2="210.424" gradientUnits="userSpaceOnUse">
<stop/>
<stop offset="0.0472484" stop-color="#2B2C2B"/>
<stop offset="0.1532" stop-color="#989997"/>
<stop offset="0.2476" stop-color="#FDFFFC"/>
<stop offset="0.3587" stop-color="#FDFFFC"/>
<stop offset="0.4059" stop-color="#EBEDEA"/>
<stop offset="0.5006" stop-color="#BCBEBC"/>
<stop offset="0.6344" stop-color="#717270"/>
<stop offset="0.8007" stop-color="#0A0A0A"/>
<stop offset="0.8167"/>
</linearGradient>
<linearGradient id="paint10_linear_2003_22740" x1="120.588" y1="26.7969" x2="120.588" y2="179.599" gradientUnits="userSpaceOnUse">
<stop offset="0.082224"/>
<stop offset="0.1138" stop-color="#2B2C2B"/>
<stop offset="0.1845" stop-color="#989997"/>
<stop offset="0.2476" stop-color="#FDFFFC"/>
<stop offset="0.3017" stop-color="#EEF0ED"/>
<stop offset="0.4062" stop-color="#C6C8C5"/>
<stop offset="0.5507" stop-color="#868785"/>
<stop offset="0.7276" stop-color="#2F2F2E"/>
<stop offset="0.8167"/>
</linearGradient>
<linearGradient id="paint11_linear_2003_22740" x1="82.5811" y1="159.656" x2="113.363" y2="184.24" gradientUnits="userSpaceOnUse">
<stop stop-color="#C9C5C4"/>
<stop offset="0.0257004" stop-color="#DDDADA"/>
<stop offset="0.0556553" stop-color="#ECEBEB"/>
<stop offset="0.092947" stop-color="#F7F6F6"/>
<stop offset="0.1453" stop-color="#FDFDFD"/>
<stop offset="0.2906" stop-color="white"/>
<stop offset="0.4604" stop-color="#FAFAFA"/>
<stop offset="0.6673" stop-color="#EDEBEB"/>
<stop offset="0.8928" stop-color="#D6D3D2"/>
<stop offset="1" stop-color="#C9C5C4"/>
</linearGradient>
<linearGradient id="paint12_linear_2003_22740" x1="78.8547" y1="155.987" x2="113.298" y2="183.495" gradientUnits="userSpaceOnUse">
<stop stop-color="#C9C5C4"/>
<stop offset="0.0257004" stop-color="#DDDADA"/>
<stop offset="0.0556553" stop-color="#ECEBEB"/>
<stop offset="0.092947" stop-color="#F7F6F6"/>
<stop offset="0.1453" stop-color="#FDFDFD"/>
<stop offset="0.2906" stop-color="white"/>
<stop offset="0.4604" stop-color="#FAFAFA"/>
<stop offset="0.6673" stop-color="#EDEBEB"/>
<stop offset="0.8928" stop-color="#D6D3D2"/>
<stop offset="1" stop-color="#C9C5C4"/>
</linearGradient>
<linearGradient id="paint13_linear_2003_22740" x1="100.079" y1="4.14603" x2="100.079" y2="24.3721" gradientUnits="userSpaceOnUse">
<stop stop-color="#C9C5C4"/>
<stop offset="0.0257004" stop-color="#DDDADA"/>
<stop offset="0.0556553" stop-color="#ECEBEB"/>
<stop offset="0.092947" stop-color="#F7F6F6"/>
<stop offset="0.1453" stop-color="#FDFDFD"/>
<stop offset="0.2906" stop-color="white"/>
<stop offset="0.4604" stop-color="#FAFAFA"/>
<stop offset="0.6673" stop-color="#EDEBEB"/>
<stop offset="0.8928" stop-color="#D6D3D2"/>
<stop offset="1" stop-color="#C9C5C4"/>
</linearGradient>
<linearGradient id="paint14_linear_2003_22740" x1="99.4553" y1="-3.70165" x2="100.619" y2="32.2474" gradientUnits="userSpaceOnUse">
<stop offset="0.1284" stop-color="#C6EEFF"/>
<stop offset="0.2783" stop-color="#53B5FF"/>
<stop offset="0.4497" stop-color="#41ADED"/>
<stop offset="0.5775" stop-color="#30A5DC"/>
<stop offset="0.6803" stop-color="#42ADEE"/>
<stop offset="0.7569" stop-color="#53B5FF"/>
<stop offset="0.8961" stop-color="#41ADED"/>
<stop offset="1" stop-color="#30A5DC"/>
</linearGradient>
<linearGradient id="paint15_linear_2003_22740" x1="97.0161" y1="14.0543" x2="97.0161" y2="23.4287" gradientUnits="userSpaceOnUse">
<stop offset="0.1284" stop-color="#C6EEFF"/>
<stop offset="1" stop-color="#30A5DC"/>
</linearGradient>
<linearGradient id="paint16_linear_2003_22740" x1="67.8903" y1="23.852" x2="131.779" y2="23.852" gradientUnits="userSpaceOnUse">
<stop stop-color="#30A5DC"/>
<stop offset="0.0558959" stop-color="#42ADEE"/>
<stop offset="0.0975965" stop-color="#53B5FF"/>
<stop offset="0.1341" stop-color="#65BEFF"/>
<stop offset="0.2071" stop-color="#95D6FF"/>
<stop offset="0.2745" stop-color="#C6EEFF"/>
<stop offset="0.4148" stop-color="#53B5FF"/>
<stop offset="0.508" stop-color="#41ADED"/>
<stop offset="0.5775" stop-color="#30A5DC"/>
<stop offset="0.6803" stop-color="#42ADEE"/>
<stop offset="0.7569" stop-color="#53B5FF"/>
<stop offset="0.8961" stop-color="#41ADED"/>
<stop offset="1" stop-color="#30A5DC"/>
</linearGradient>
<linearGradient id="paint17_linear_2003_22740" x1="76.9401" y1="24.5373" x2="109.007" y2="27.0025" gradientUnits="userSpaceOnUse">
<stop stop-color="#30A5DC"/>
<stop offset="0.0558959" stop-color="#42ADEE"/>
<stop offset="0.0975965" stop-color="#53B5FF"/>
<stop offset="0.1341" stop-color="#65BEFF"/>
<stop offset="0.2071" stop-color="#95D6FF"/>
<stop offset="0.2745" stop-color="#C6EEFF"/>
<stop offset="0.4148" stop-color="#53B5FF"/>
<stop offset="0.508" stop-color="#41ADED"/>
<stop offset="0.5775" stop-color="#30A5DC"/>
<stop offset="0.6803" stop-color="#42ADEE"/>
<stop offset="0.7569" stop-color="#53B5FF"/>
<stop offset="0.8961" stop-color="#41ADED"/>
<stop offset="1" stop-color="#30A5DC"/>
</linearGradient>
<linearGradient id="paint18_linear_2003_22740" x1="35.4702" y1="23.852" x2="114.96" y2="23.852" gradientUnits="userSpaceOnUse">
<stop stop-color="#30A5DC"/>
<stop offset="0.0558959" stop-color="#42ADEE"/>
<stop offset="0.0975965" stop-color="#53B5FF"/>
<stop offset="0.1341" stop-color="#65BEFF"/>
<stop offset="0.2071" stop-color="#95D6FF"/>
<stop offset="0.2745" stop-color="#C6EEFF"/>
<stop offset="0.4148" stop-color="#53B5FF"/>
<stop offset="0.508" stop-color="#41ADED"/>
<stop offset="0.5775" stop-color="#30A5DC"/>
<stop offset="0.6803" stop-color="#42ADEE"/>
<stop offset="0.7569" stop-color="#53B5FF"/>
<stop offset="0.8961" stop-color="#41ADED"/>
<stop offset="1" stop-color="#30A5DC"/>
</linearGradient>
<linearGradient id="paint19_linear_2003_22740" x1="35.4729" y1="23.9354" x2="114.96" y2="23.9354" gradientUnits="userSpaceOnUse">
<stop stop-color="#30A5DC"/>
<stop offset="0.0558959" stop-color="#42ADEE"/>
<stop offset="0.0975965" stop-color="#53B5FF"/>
<stop offset="0.1341" stop-color="#65BEFF"/>
<stop offset="0.2071" stop-color="#95D6FF"/>
<stop offset="0.2745" stop-color="#C6EEFF"/>
<stop offset="0.4148" stop-color="#53B5FF"/>
<stop offset="0.508" stop-color="#41ADED"/>
<stop offset="0.5775" stop-color="#30A5DC"/>
<stop offset="0.6803" stop-color="#42ADEE"/>
<stop offset="0.7569" stop-color="#53B5FF"/>
<stop offset="0.8961" stop-color="#41ADED"/>
<stop offset="1" stop-color="#30A5DC"/>
</linearGradient>
<linearGradient id="paint20_linear_2003_22740" x1="67.8903" y1="23.243" x2="131.783" y2="23.243" gradientUnits="userSpaceOnUse">
<stop stop-color="#30A5DC"/>
<stop offset="0.0558959" stop-color="#42ADEE"/>
<stop offset="0.0975965" stop-color="#53B5FF"/>
<stop offset="0.1341" stop-color="#65BEFF"/>
<stop offset="0.2071" stop-color="#95D6FF"/>
<stop offset="0.2745" stop-color="#C6EEFF"/>
<stop offset="0.4148" stop-color="#53B5FF"/>
<stop offset="0.508" stop-color="#41ADED"/>
<stop offset="0.5775" stop-color="#30A5DC"/>
<stop offset="0.6803" stop-color="#42ADEE"/>
<stop offset="0.7569" stop-color="#53B5FF"/>
<stop offset="0.8961" stop-color="#41ADED"/>
<stop offset="1" stop-color="#30A5DC"/>
</linearGradient>
<linearGradient id="paint21_linear_2003_22740" x1="67.891" y1="25.1816" x2="131.777" y2="25.1816" gradientUnits="userSpaceOnUse">
<stop stop-color="#30A5DC"/>
<stop offset="0.0558959" stop-color="#42ADEE"/>
<stop offset="0.0975965" stop-color="#53B5FF"/>
<stop offset="0.1341" stop-color="#65BEFF"/>
<stop offset="0.2071" stop-color="#95D6FF"/>
<stop offset="0.2745" stop-color="#C6EEFF"/>
<stop offset="0.4148" stop-color="#53B5FF"/>
<stop offset="0.508" stop-color="#41ADED"/>
<stop offset="0.5775" stop-color="#30A5DC"/>
<stop offset="0.6803" stop-color="#42ADEE"/>
<stop offset="0.7569" stop-color="#53B5FF"/>
<stop offset="0.8961" stop-color="#41ADED"/>
<stop offset="1" stop-color="#30A5DC"/>
</linearGradient>
</defs>
</svg>
