<svg width="200" height="200" viewBox="0 0 200 200" fill="none" xmlns="http://www.w3.org/2000/svg">
<path d="M111.471 17.1101L111.036 24.1552L82.1937 28.4483V19.752L111.471 17.1101Z" fill="#DFE1E5"/>
<path d="M111.471 17.1101L111.036 24.1552L82.1937 28.4483V19.752L111.471 17.1101Z" fill="url(#paint0_linear_2006_74818)"/>
<path d="M111.58 23.935L110.382 24.2653L110.6 17.1101L111.906 17L111.58 23.935Z" fill="#C5DBEA"/>
<path d="M81.6494 19.4217L111.906 17V17.7706L82.7378 20.1923L81.6494 19.4217Z" fill="#CFDEE8"/>
<path d="M82.7378 28.4482H81.6494V19.4216L82.7378 20.1922V28.4482Z" fill="#BCD3DD"/>
<path d="M88.6151 35.6033L98.4104 46.6112L66.3035 40.1165L88.6151 35.6033Z" fill="#A2C3D1"/>
<g opacity="0.2" style="mix-blend-mode:overlay">
<path d="M88.6151 35.6033L98.4104 46.6112L66.3035 40.1165L88.6151 35.6033Z" fill="url(#paint1_linear_2006_74818)"/>
</g>
<path d="M82.1937 28.4482L88.6151 35.6034L66.3035 40.1167L82.1937 28.4482Z" fill="#9A979C"/>
<path d="M82.1937 28.4482L88.6151 35.6034L66.3035 40.1167L82.1937 28.4482Z" fill="url(#paint2_linear_2006_74818)"/>
<path d="M133.891 39.1261L98.4104 46.6115L88.6151 35.6035L82.1937 28.4484L111.036 24.1553L133.891 39.1261Z" fill="#DDDBD6"/>
<g opacity="0.2" style="mix-blend-mode:overlay">
<path d="M133.891 39.1261L98.4104 46.6115L88.6151 35.6035L82.1937 28.4484L111.036 24.1553L133.891 39.1261Z" fill="url(#paint3_linear_2006_74818)"/>
</g>
<path d="M133.891 39.1262V167.919L101.349 183L98.4103 46.6116L133.891 39.1262Z" fill="#00AEEE"/>
<g opacity="0.2" style="mix-blend-mode:overlay">
<path d="M133.891 39.1262V167.919L101.349 183L98.4103 46.6116L133.891 39.1262Z" fill="url(#paint4_linear_2006_74818)"/>
</g>
<g opacity="0.2" style="mix-blend-mode:overlay">
<path d="M133.891 100.771C122.028 119.374 111.035 138.418 100.805 157.902L101.349 183L105.376 181.129C114.301 161.975 123.769 143.151 134 124.768V100.771H133.891Z" fill="url(#paint5_linear_2006_74818)"/>
</g>
<g opacity="0.2" style="mix-blend-mode:overlay">
<path d="M133.891 90.8635V48.1526C121.484 64.9948 110.056 82.6075 99.4987 100.661L100.587 148.985C111.144 129.281 122.246 109.907 133.891 90.8635Z" fill="url(#paint6_linear_2006_74818)"/>
</g>
<path d="M98.4104 46.6114L101.349 183L71.2011 164.617L66.3035 40.1167L98.4104 46.6114Z" fill="#006EA9"/>
<g opacity="0.2" style="mix-blend-mode:overlay">
<path d="M98.4104 46.6114L101.349 183L71.2011 164.617L66.3035 40.1167L98.4104 46.6114Z" fill="url(#paint7_linear_2006_74818)"/>
</g>
<path d="M70.4393 146.674L70.7658 154.159L101.023 171.222L100.914 163.626L70.4393 146.674Z" fill="#035A98"/>
<mask id="mask0_2006_74818" style="mask-type:luminance" maskUnits="userSpaceOnUse" x="66" y="39" width="68" height="145">
<path d="M98.4104 46.6116L66.3035 40.1169L71.2011 164.617L101.349 183L133.891 167.919V39.1262L98.4104 46.6116Z" fill="white"/>
</mask>
<g mask="url(#mask0_2006_74818)">
<path d="M83.1732 93.9457C84.8058 95.707 81.8672 101.871 79.4727 100.551C79.4727 100.551 79.3639 100.55 79.2551 100.44C77.0783 98.5691 80.0169 90.5333 83.1732 93.9457Z" fill="#E0E9F0"/>
<path d="M94.0571 83.5983C95.5808 86.9007 100.043 83.3782 98.9548 81.0665C98.0841 79.3052 92.9688 80.8463 93.9483 83.2681C93.9483 83.3782 94.0571 83.5983 94.0571 83.5983ZM89.1595 102.862C87.0916 108.586 94.4925 112.769 94.3836 107.045C94.3836 104.183 95.2543 98.349 92.5334 96.9179C88.0711 94.4962 89.8125 100.881 89.1595 102.862ZM89.9213 116.842C88.8329 114.531 90.2478 112.879 88.3976 110.458C86.765 108.256 85.8943 106.605 85.2413 103.853C85.0236 102.642 83.8264 102.642 84.0441 100.991C84.3706 98.4591 85.1325 96.9179 86.6562 95.0466C89.5948 91.0837 81.5409 92.5148 80.4525 90.2031C79.2553 87.6713 81.8674 86.1301 83.8264 87.2309C84.9148 87.8914 90.0302 89.4325 90.5743 87.4511C91.1185 85.4697 89.9213 83.3782 90.9009 80.9564C91.8804 78.5347 93.4041 77.9843 95.7985 77.654C97.6488 77.4339 100.696 77.3238 100.261 74.6819C99.7167 71.7097 98.3018 70.8291 96.6692 68.6275C95.472 66.9763 94.4925 64.4445 96.125 62.6832C98.3018 60.3715 101.349 64.7747 101.893 66.536C102.438 68.1872 104.07 74.0214 106.9 72.04C108.75 70.719 108.968 67.8569 110.709 66.3158C112.124 65.1049 114.627 63.4537 116.26 65.215C117.239 66.4259 118.545 68.7376 120.287 67.0864C123.552 63.8941 122.246 57.0691 126.817 55.3079C129.865 54.2071 130.518 57.1792 129.973 59.3808C129.32 61.8026 128.014 62.7933 127.035 64.7747C125.946 66.9763 132.259 64.0041 138.68 69.398C142.49 72.4803 142.272 79.1951 143.034 83.8185C144.013 89.8729 147.823 89.6527 153.047 89.8729C154.897 89.9829 158.271 90.2031 159.468 91.8543C161.21 94.276 159.359 97.3583 155.006 95.597C152.72 94.7164 149.238 93.9458 146.734 94.7164C143.687 95.7071 149.238 97.6885 149.891 97.9087C151.741 98.5691 153.809 101.101 150.652 101.761C149.564 101.982 145.537 99.4498 144.775 101.101C144.231 102.312 151.632 104.293 152.611 104.954C155.332 106.935 152.067 111.228 148.149 108.586C146.408 107.486 145.428 105.724 143.143 105.944C138.136 106.495 139.333 115.521 136.939 118.604C133.347 123.227 127.252 119.814 125.293 121.906C122.899 124.438 126.491 130.272 122.137 132.253C119.743 133.354 117.675 127.63 114.192 127.41C110.927 127.19 111.362 133.024 110.6 136.326C110.165 138.088 109.403 141.28 107.009 141.28C103.744 141.28 102.546 137.207 104.723 135.226C107.118 133.024 109.077 130.162 108.097 126.75C107.553 124.878 107.662 123.007 105.159 124.988C103.308 126.419 101.676 126.199 100.152 124.548C97.8664 122.126 98.7371 119.815 94.7102 120.145C91.9892 120.585 90.9008 119.044 89.9213 116.842ZM133.565 78.0943C134.218 79.4153 136.395 85.0293 137.918 84.4789C137.81 79.085 137.265 74.2415 132.259 71.2694C130.844 70.4988 128.123 70.0585 129.103 72.4803C129.973 75.0121 132.368 75.8927 133.456 77.9843C133.456 77.9843 133.456 78.0943 133.565 78.0943Z" fill="#E0E9F0"/>
</g>
<path d="M104.505 103.302L104.396 93.7256C104.396 92.6248 104.396 91.524 104.396 90.4232L105.158 89.8728C105.702 89.7627 106.247 90.9736 106.9 93.5054C107.444 95.4868 107.77 97.3582 108.097 98.8993C108.423 100.44 108.532 101.321 108.532 101.431C108.641 100.881 108.859 99.89 109.185 98.459C109.512 97.028 109.729 95.9272 109.947 95.1566C110.382 92.8449 110.709 90.7534 110.927 88.8821V88.772C110.927 88.5518 111.035 88.3317 111.253 88.2216C111.471 88.0014 111.58 87.8914 111.797 87.8914C112.015 87.8914 112.124 87.8914 112.233 88.0014C112.341 88.1115 112.45 88.2216 112.45 88.4418C112.45 90.4232 112.45 93.5054 112.45 97.3582C112.559 101.211 112.559 103.963 112.45 105.834C112.45 106.165 112.341 106.605 112.124 106.825C111.906 107.155 111.688 107.375 111.58 107.375C111.144 107.486 111.035 107.265 111.035 106.605L111.144 96.5876V95.3768C111.035 96.0372 110.709 97.2481 110.382 98.8993C109.947 100.551 109.729 101.761 109.621 102.642V102.752C109.621 102.862 109.621 102.972 109.512 103.192C109.512 103.413 109.403 103.633 109.403 103.743C109.403 103.853 109.294 104.073 109.185 104.293C109.076 104.734 108.75 104.954 108.423 105.064C107.879 105.174 107.553 104.513 107.553 103.082C107.553 101.651 107.226 99.6699 106.464 97.028C106.138 95.707 105.811 94.8264 105.702 94.386C105.702 95.707 105.594 96.6977 105.594 97.3582L105.811 107.155C105.811 107.486 105.702 107.816 105.485 108.146C105.049 108.256 104.832 108.256 104.614 108.036C104.505 107.816 104.396 107.486 104.396 107.045L104.505 103.302Z" fill="#007396"/>
<path d="M117.239 88.4418L116.804 88.5519C116.695 88.5519 116.477 88.662 116.477 88.7721C116.368 88.8821 116.368 88.9922 116.368 89.2124C116.368 90.8636 116.368 93.2853 116.477 96.3675C116.586 99.4498 116.586 101.761 116.477 103.192V104.073C116.586 103.963 116.804 103.963 116.913 103.963C117.566 103.743 117.892 103.963 117.892 104.513V104.624L117.348 105.174L115.715 105.614C114.409 105.944 113.647 105.944 113.756 105.504C113.756 105.174 113.974 104.844 114.518 104.734L115.062 104.624C115.28 104.513 115.389 104.403 115.389 103.963C115.389 102.752 115.389 100.991 115.389 98.5691C115.28 96.1474 115.28 94.276 115.389 92.9551L115.498 90.4232C115.498 89.8728 115.498 89.4325 115.498 88.9922C115.28 89.1023 115.062 89.2124 114.953 89.2124C114.518 89.3225 114.409 89.1023 114.409 88.7721C114.409 88.5519 114.518 88.3317 114.845 88.1116C115.062 87.8914 115.389 87.6713 115.824 87.5612C116.477 87.2309 117.021 87.1209 117.348 87.0108C117.674 86.9007 117.892 86.9007 118.001 87.0108C118.11 87.1209 118.219 87.2309 118.219 87.4511C118.219 87.6713 118.11 87.7813 118.001 88.0015C117.566 88.3317 117.348 88.4418 117.239 88.4418Z" fill="#007396"/>
<path d="M120.613 95.597V96.3675V96.4776C120.613 97.7986 120.504 99.8901 120.395 102.642V103.192L122.137 102.752C122.463 102.862 122.572 103.082 122.572 103.303C122.572 103.523 122.463 103.633 122.354 103.853C122.245 103.963 122.137 104.073 122.028 104.183C121.919 104.183 121.81 104.183 121.592 104.183C121.483 104.293 121.266 104.293 121.157 104.293L120.395 104.403C120.177 104.624 120.069 104.734 119.742 104.844C119.524 104.954 119.307 104.844 119.198 104.734C119.089 104.623 118.98 104.513 118.98 104.293L119.198 103.192C119.307 101.431 119.307 98.7893 119.307 95.1567C119.307 91.524 119.307 88.662 119.416 86.7906C119.416 86.6805 119.524 86.4604 119.633 86.3503C119.742 86.2402 119.96 86.1301 120.069 86.1301C120.286 86.1301 120.395 86.1301 120.504 86.2402C120.613 86.3503 120.722 86.4604 120.722 86.6805L120.613 95.597Z" fill="#007396"/>
<path d="M124.422 95.9271L124.749 91.3037C124.749 90.5332 124.749 89.5425 124.749 88.5518C124.749 87.451 124.64 86.7905 124.749 86.4602C124.749 86.13 124.858 85.9098 124.966 85.6897C125.075 85.4695 125.293 85.3594 125.511 85.3594C126.055 85.2494 126.381 85.7998 126.273 87.2308C126.273 87.2308 126.164 88.9921 125.837 92.2945C125.946 92.1844 126.055 91.7441 126.381 90.9735C126.708 90.2029 126.926 89.5425 127.252 88.7719C127.579 88.0014 127.905 87.2308 128.232 86.4602C128.993 84.699 129.538 83.7083 129.864 83.7083C130.082 83.7083 130.191 83.7083 130.3 83.8183C130.408 83.9284 130.517 84.0385 130.517 84.2586C130.517 84.4788 129.973 85.5796 128.993 87.6711C128.014 89.7626 127.47 91.0836 127.361 91.5239V91.9642C127.579 92.5146 128.014 94.2759 128.776 97.248C129.538 100.11 129.864 101.651 129.864 101.871C129.864 102.092 129.755 102.202 129.646 102.422C129.538 102.532 129.32 102.642 129.102 102.752H128.558C128.34 100.661 128.123 98.8992 127.796 97.3581C127.47 95.817 127.034 94.386 126.49 92.9549C125.946 93.9457 125.728 94.4961 125.728 94.7162C125.62 95.1565 125.62 95.5968 125.62 95.817L125.511 100.11L125.402 101.981C125.402 102.752 125.075 103.302 124.531 103.413C124.096 103.523 123.878 103.192 123.987 102.422C123.987 101.651 124.096 100.55 124.313 99.1194C124.313 97.7984 124.422 96.6976 124.422 95.9271Z" fill="#007396"/>
<path d="M100.914 163.626L133.891 150.417V157.902L101.023 171.222L100.914 163.626Z" fill="#7CB7ED"/>
<path d="M81.8606 28.0475L66 39.6785L66.6389 40.5697L82.4995 28.9387L81.8606 28.0475Z" fill="#BCD3DD"/>
<path d="M82.6117 28.1651L81.8037 28.9026L97.9921 47.0451L98.8001 46.3076L82.6117 28.1651Z" fill="#BEDBE9"/>
<path d="M133.782 39.7865L110.382 24.2653L111.58 23.9351L133.782 38.5756V39.7865Z" fill="#CFDEE8"/>
<path d="M98.3016 47.1619L66.3035 40.6672V39.5664L98.5192 46.0611L98.3016 47.1619Z" fill="#0082B3"/>
<path d="M116.695 29.8794C117.239 31.4205 117.239 33.1818 116.586 35.0531C115.498 37.695 111.253 39.4563 106.247 38.9059C100.805 38.3555 96.5602 35.2733 96.8867 32.081C96.8867 30.0995 97.5397 28.3383 98.7369 26.9072C98.3015 27.4576 97.975 28.1181 97.975 28.7786C97.6485 31.7507 101.675 34.7229 106.791 35.1632C112.015 35.7136 116.368 33.7322 116.695 30.6499C116.804 30.4298 116.695 30.2096 116.695 29.8794Z" fill="#006EA9"/>
<g opacity="0.2" style="mix-blend-mode:overlay">
<path d="M116.695 29.8794C117.239 31.4205 117.239 33.1818 116.586 35.0531C115.498 37.695 111.253 39.4563 106.247 38.9059C100.805 38.3555 96.5602 35.2733 96.8867 32.081C96.8867 30.0995 97.5397 28.3383 98.7369 26.9072C98.3015 27.4576 97.975 28.1181 97.975 28.7786C97.6485 31.7507 101.675 34.7229 106.791 35.1632C112.015 35.7136 116.368 33.7322 116.695 30.6499C116.804 30.4298 116.695 30.2096 116.695 29.8794Z" fill="url(#paint8_linear_2006_74818)"/>
</g>
<g opacity="0.2" style="mix-blend-mode:overlay">
<path d="M108.314 35.9336C108.314 36.7041 108.206 37.915 108.206 38.6856C110.926 38.6856 113.321 38.0251 114.845 36.8142C114.953 35.9336 115.062 34.8328 115.171 33.9521C114.083 35.2731 110.818 36.3739 108.314 35.9336Z" fill="url(#paint9_linear_2006_74818)"/>
</g>
<path d="M116.695 29.8792C116.695 30.2095 116.804 30.4296 116.695 30.7599C116.368 33.732 111.906 35.8235 106.791 35.2731C101.675 34.7227 97.6485 31.8607 97.975 28.8885C98.0838 28.2281 98.3015 27.5676 98.7368 27.0172C98.8457 26.9071 98.8457 26.9071 98.9545 26.797C99.0633 26.6869 99.1722 26.4668 99.3898 26.3567C99.3898 26.3567 99.3898 26.3567 99.4987 26.3567C101.24 24.8156 104.505 24.045 107.988 24.3753C111.688 24.7055 114.736 26.3567 116.042 28.228C116.368 28.6684 116.477 29.2188 116.695 29.6591C116.695 29.7692 116.695 29.7692 116.695 29.8792Z" fill="#00AEEE"/>
<g opacity="0.2" style="mix-blend-mode:overlay">
<path d="M116.695 29.8792C116.695 30.2095 116.804 30.4296 116.695 30.7599C116.368 33.732 111.906 35.8235 106.791 35.2731C101.675 34.7227 97.6485 31.8607 97.975 28.8885C98.0838 28.2281 98.3015 27.5676 98.7368 27.0172C98.8457 26.9071 98.8457 26.9071 98.9545 26.797C99.0633 26.6869 99.1722 26.4668 99.3898 26.3567C99.3898 26.3567 99.3898 26.3567 99.4987 26.3567C101.24 24.8156 104.505 24.045 107.988 24.3753C111.688 24.7055 114.736 26.3567 116.042 28.228C116.368 28.6684 116.477 29.2188 116.695 29.6591C116.695 29.7692 116.695 29.7692 116.695 29.8792Z" fill="url(#paint10_linear_2006_74818)"/>
</g>
<g opacity="0.2" style="mix-blend-mode:overlay">
<path d="M116.586 29.659C116.368 29.1086 116.151 28.6683 115.933 28.228C115.062 26.907 113.43 25.8062 111.362 25.1458C107.444 27.5675 103.634 30.0993 99.8252 32.6312C101.458 33.9521 103.852 34.9428 106.682 35.2731C107.988 35.3832 109.185 35.3832 110.274 35.2731C112.341 33.6219 114.409 31.8606 116.586 30.2094C116.586 30.0993 116.586 30.0993 116.586 29.9893C116.695 29.7691 116.695 29.7691 116.586 29.659Z" fill="url(#paint11_linear_2006_74818)"/>
</g>
<path d="M133.738 38.6376L98.238 46.0239L98.4573 47.1022L133.957 39.7159L133.738 38.6376Z" fill="#BDEDFF"/>
<g style="mix-blend-mode:overlay" opacity="0.2">
<mask id="mask1_2006_74818" style="mask-type:luminance" maskUnits="userSpaceOnUse" x="98" y="39" width="36" height="145">
<path d="M133.891 39.1262V167.919L101.349 183L98.4103 46.6116L133.891 39.1262Z" fill="white"/>
</mask>
<g mask="url(#mask1_2006_74818)">
<path d="M111.144 110.347C111.906 182.89 106.138 241.782 98.0839 241.892C90.1388 242.003 83.0644 183.22 82.1937 110.678C81.5407 38.1351 87.4179 -20.7574 95.363 -20.8675C103.308 -20.9776 110.383 37.8049 111.144 110.347Z" fill="url(#paint12_radial_2006_74818)"/>
</g>
</g>
<g style="mix-blend-mode:overlay" opacity="0.2">
<mask id="mask2_2006_74818" style="mask-type:luminance" maskUnits="userSpaceOnUse" x="66" y="40" width="36" height="143">
<path d="M98.4104 46.6114L101.349 183L71.2011 164.617L66.3035 40.1167L98.4104 46.6114Z" fill="white"/>
</mask>
<g mask="url(#mask2_2006_74818)">
<path d="M88.2886 97.6884C88.9416 157.131 79.3639 205.346 66.9565 205.456C54.5491 205.566 43.8831 157.572 43.3389 98.1287C42.6859 38.6857 52.2635 -9.52914 64.6709 -9.63922C76.9695 -9.7493 87.6356 38.3555 88.2886 97.6884Z" fill="url(#paint13_radial_2006_74818)"/>
</g>
</g>
<defs>
<linearGradient id="paint0_linear_2006_74818" x1="98.6835" y1="31.5235" x2="95.6261" y2="17.5607" gradientUnits="userSpaceOnUse">
<stop stop-color="#D6D0C3"/>
<stop offset="1" stop-color="white"/>
</linearGradient>
<linearGradient id="paint1_linear_2006_74818" x1="56.0939" y1="54.6336" x2="91.7998" y2="39.6299" gradientUnits="userSpaceOnUse">
<stop stop-color="white"/>
<stop offset="1"/>
</linearGradient>
<linearGradient id="paint2_linear_2006_74818" x1="66.3347" y1="34.295" x2="88.5805" y2="34.295" gradientUnits="userSpaceOnUse">
<stop stop-color="#D6D0C3"/>
<stop offset="1" stop-color="white"/>
</linearGradient>
<linearGradient id="paint3_linear_2006_74818" x1="82.2144" y1="35.3492" x2="133.908" y2="35.3492" gradientUnits="userSpaceOnUse">
<stop stop-color="white"/>
<stop offset="1"/>
</linearGradient>
<linearGradient id="paint4_linear_2006_74818" x1="79.0097" y1="76.0672" x2="131.198" y2="122.355" gradientUnits="userSpaceOnUse">
<stop stop-color="#7ACEFF"/>
<stop offset="1"/>
</linearGradient>
<linearGradient id="paint5_linear_2006_74818" x1="67.5643" y1="205.769" x2="140.865" y2="116.57" gradientUnits="userSpaceOnUse">
<stop stop-color="#33576B"/>
<stop offset="1"/>
</linearGradient>
<linearGradient id="paint6_linear_2006_74818" x1="72.7255" y1="149.944" x2="140.449" y2="73.4733" gradientUnits="userSpaceOnUse">
<stop stop-color="#33576B"/>
<stop offset="1"/>
</linearGradient>
<linearGradient id="paint7_linear_2006_74818" x1="49.522" y1="155.073" x2="119.589" y2="68.2033" gradientUnits="userSpaceOnUse">
<stop stop-color="#804D00"/>
<stop offset="1"/>
</linearGradient>
<linearGradient id="paint8_linear_2006_74818" x1="101.086" y1="40.429" x2="107.232" y2="31.9215" gradientUnits="userSpaceOnUse">
<stop stop-color="#008069"/>
<stop offset="1"/>
</linearGradient>
<linearGradient id="paint9_linear_2006_74818" x1="120.02" y1="25.849" x2="109.08" y2="39.1614" gradientUnits="userSpaceOnUse">
<stop stop-color="#7ACEFF"/>
<stop offset="1"/>
</linearGradient>
<linearGradient id="paint10_linear_2006_74818" x1="101.337" y1="36.887" x2="110.574" y2="26.2325" gradientUnits="userSpaceOnUse">
<stop stop-color="#7ACEFF"/>
<stop offset="1"/>
</linearGradient>
<linearGradient id="paint11_linear_2006_74818" x1="102.665" y1="38.0268" x2="111.895" y2="27.3797" gradientUnits="userSpaceOnUse">
<stop stop-color="#7ACEFF"/>
<stop offset="1"/>
</linearGradient>
<radialGradient id="paint12_radial_2006_74818" cx="0" cy="0" r="1" gradientTransform="matrix(14.4289 -0.160146 1.41499 131.376 96.7635 110.504)" gradientUnits="userSpaceOnUse">
<stop offset="0.1314" stop-color="white"/>
<stop offset="0.2737" stop-color="#C2C2C2"/>
<stop offset="0.4088" stop-color="#8D8D8D"/>
<stop offset="0.5876" stop-color="#4C4C4C"/>
<stop offset="0.708" stop-color="#2B2B2B"/>
<stop offset="0.8431" stop-color="#0D0D0D"/>
<stop offset="1"/>
</radialGradient>
<radialGradient id="paint13_radial_2006_74818" cx="0" cy="0" r="1" gradientTransform="matrix(22.5113 -0.249112 1.15862 107.568 65.7313 97.9876)" gradientUnits="userSpaceOnUse">
<stop stop-color="#C2C2C2"/>
<stop offset="0.1642" stop-color="#8D8D8D"/>
<stop offset="0.4088" stop-color="#4C4C4C"/>
<stop offset="0.6204" stop-color="#2B2B2B"/>
<stop offset="0.8431" stop-color="#0D0D0D"/>
<stop offset="1"/>
</radialGradient>
</defs>
</svg>
