<svg width="200" height="200" viewBox="0 0 200 200" fill="none" xmlns="http://www.w3.org/2000/svg">
<path d="M73.9991 115.127C70.2378 110.331 66.6854 104.284 64.1779 98.4452C61.8793 93.4405 61.0435 87.8102 59.5807 82.3885C58.9538 79.6776 57.2822 73.6303 54.5656 75.7156C51.4312 78.0094 52.058 85.0994 52.6849 89.2699C53.3118 95.5258 54.5656 101.573 56.4463 107.62C58.327 114.085 60.4166 121.8 64.3868 126.596C66.6854 129.307 69.6109 128.89 72.1185 128.265C73.9991 127.639 78.1784 126.388 77.5515 122.634C77.1336 119.507 75.4619 117.213 73.9991 115.127Z" fill="#B7916D"/>
<path d="M55.8194 103.033C56.0283 102.824 56.2373 102.824 56.4463 102.824C58.118 103.45 58.7449 107.62 59.1628 109.497C59.3717 110.748 59.7897 112.208 60.6255 113.042C62.2972 115.127 62.9241 113.251 62.7152 111.165C62.5062 109.497 58.9539 100.739 60.8345 99.9049C62.2973 99.4878 62.7152 103.033 63.551 100.948C63.551 100.739 67.3123 107.62 67.7303 108.246C70.6557 113.876 73.5812 117.838 77.5515 122.009C77.1336 119.298 75.4619 117.213 73.9991 115.127C70.2378 110.331 66.6854 104.284 64.1779 98.4452C61.8793 93.4405 61.0435 87.8102 59.5807 82.3885C58.9538 79.6776 57.2822 73.6303 54.5656 75.7156C51.4312 78.0094 52.058 85.0994 52.6849 89.2699C53.3118 94.6917 54.3567 99.9049 55.6105 105.118C55.4015 104.284 55.4014 103.45 55.8194 103.033Z" fill="#E3D2C0"/>
<path opacity="0.6" d="M59.5805 113.043C58.5357 110.541 57.9088 107.621 56.8639 105.119C56.8639 104.911 56.655 105.119 56.655 105.328C56.655 105.328 56.655 105.328 56.655 105.536C57.2819 111.375 59.7895 117.839 62.7149 122.635C62.9239 122.844 63.1329 122.427 62.9239 122.218C62.0881 119.091 60.8343 116.171 59.5805 113.043Z" fill="#E3D2C0"/>
<path opacity="0.6" d="M65.0136 121.177C64.1777 119.926 63.5508 118.674 62.715 117.632C62.715 117.632 62.715 117.632 62.715 117.84C63.3419 119.3 63.9687 120.551 64.5956 122.011C65.2225 123.054 65.6404 124.096 66.2673 124.722C66.4763 124.93 66.6852 124.305 66.4763 124.096C66.0583 123.054 65.4315 122.219 65.0136 121.177Z" fill="#E3D2C0"/>
<path opacity="0.6" d="M71.2824 122.845C68.148 116.589 64.8046 110.542 61.8791 104.077C63.7598 111.376 67.1032 117.632 71.0735 123.053C71.2824 123.262 71.2824 122.845 71.2824 122.845Z" fill="#E3D2C0"/>
<path opacity="0.6" d="M65.6405 107.829C65.2226 106.995 64.8046 106.37 64.3867 105.536C64.3867 105.536 64.1777 105.536 64.1777 105.744C64.8046 107.412 65.4315 108.872 66.2674 110.332C66.4763 110.54 66.6853 110.123 66.4763 110.123C66.2674 109.081 66.0584 108.664 65.6405 107.829Z" fill="#E3D2C0"/>
<path opacity="0.6" d="M74.8348 123.262C72.9541 119.508 70.4466 116.589 68.5659 113.044C68.3569 112.835 68.3569 113.252 68.3569 113.461C70.2376 117.214 72.3272 120.759 74.6258 123.887C74.8348 124.096 75.0437 123.47 74.8348 123.262Z" fill="#E3D2C0"/>
<path opacity="0.6" d="M57.9088 99.697C58.3267 101.991 58.9537 104.076 59.7895 106.161C59.9985 106.37 60.2074 106.161 59.9984 105.953C59.3715 103.868 58.5357 101.782 57.9088 99.697Z" fill="#E3D2C0"/>
<path d="M42.0277 79.8873C41.4008 82.1811 41.4008 84.6835 43.0725 86.7688C45.3711 89.6882 49.9683 89.8967 53.3117 89.8967C57.073 89.8967 60.8343 89.0625 64.1777 87.3943C66.2673 86.5602 68.148 85.1005 68.9839 83.0152C70.6556 79.2617 69.1928 74.8826 66.6853 71.9632C65.2225 70.295 63.3419 68.4182 61.4612 67.5841C58.7447 66.333 55.8192 65.4989 52.8937 66.75C49.7593 68.0012 47.4607 70.7121 45.58 73.4229C44.3263 74.8826 42.8636 77.385 42.0277 79.8873Z" fill="url(#paint0_linear_8002_27038)"/>
<g opacity="0.2" style="mix-blend-mode:soft-light">
<path d="M58.5357 73.0053C58.1178 71.5456 57.4909 70.2944 56.864 69.2518C56.0281 68.0006 53.9386 66.5409 52.2669 67.1665C49.3414 68.4177 47.6697 71.5456 45.998 74.0479C44.5352 76.3418 42.6546 79.6782 42.8635 82.5976C43.4904 87.8108 51.8489 86.3511 54.7744 84.6829C55.8192 84.0573 57.073 83.2232 57.6999 82.1805C59.5806 79.4697 59.3716 75.9247 58.5357 73.0053Z" fill="url(#paint1_radial_8002_27038)"/>
</g>
<path d="M101.582 128.475C98.4476 120.551 95.3131 110.75 93.6414 101.366C91.9697 93.4421 91.9697 85.101 91.5518 76.7598C91.3428 72.5893 90.507 63.414 87.1636 65.7078C83.1933 68.4187 82.7754 78.8451 82.5664 85.3095C82.1485 94.6933 82.5664 104.077 83.4023 113.252C84.2381 123.262 85.2829 135.148 88.8353 143.28C90.9249 147.868 94.2683 148.077 97.1938 147.451C99.2834 147.034 104.299 145.991 104.507 140.361C104.507 135.773 103.045 132.02 101.582 128.475Z" fill="#B7916D"/>
<path d="M83.6113 106.162C83.8203 105.954 84.0292 105.745 84.2382 105.954C86.1189 107.414 85.9099 113.461 86.1188 116.589C86.3278 118.465 86.3279 120.759 86.9547 122.219C88.4175 125.555 89.4623 123.053 89.6712 119.925C89.6712 117.631 87.3726 103.451 89.6712 103.034C91.3429 102.617 91.134 108.039 92.5967 105.12C92.8057 104.911 95.7311 115.755 95.9401 116.797C98.2387 125.764 100.746 132.437 104.299 139.527C104.299 135.356 102.836 131.811 101.582 128.475C98.4477 120.551 95.3132 110.75 93.6415 101.366C91.9698 93.4421 91.9698 85.101 91.5519 76.7598C91.3429 72.5893 90.5071 63.414 87.1637 65.7078C83.1934 68.4187 82.7755 78.8451 82.5665 85.3095C82.3576 93.4421 82.3575 101.366 82.9844 109.29C82.7754 108.248 83.1934 106.788 83.6113 106.162Z" fill="#E3D2C0"/>
<path opacity="0.6" d="M86.119 122.218C85.4921 118.256 85.2831 113.877 84.4473 109.914C84.4473 109.706 84.2383 109.915 84.2383 110.123V110.332C83.8204 119.09 85.4921 129.308 87.7907 137.023C87.9997 137.44 88.2086 136.815 88.2086 136.606C87.5817 131.601 86.7458 126.805 86.119 122.218Z" fill="#E3D2C0"/>
<path opacity="0.6" d="M90.2979 135.355C89.671 133.479 89.2531 131.393 88.4172 129.517C88.4172 129.517 88.4172 129.517 88.4172 129.725C88.8352 131.81 89.2531 134.104 89.88 136.19C90.2979 137.858 90.5068 139.526 91.3427 140.777C91.5517 141.194 91.7607 140.152 91.7607 139.943C91.3427 138.483 90.9248 137.024 90.2979 135.355Z" fill="#E3D2C0"/>
<path opacity="0.6" d="M97.1939 139.109C94.6864 129.308 92.1788 119.507 90.0892 109.289C90.0892 109.08 89.8802 109.289 89.8802 109.498C90.7161 120.55 93.2236 130.767 96.776 139.734C96.985 139.943 97.4029 139.317 97.1939 139.109Z" fill="#E3D2C0"/>
<path opacity="0.6" d="M93.6414 115.753C93.2234 114.502 93.0145 113.251 92.5965 112C92.5965 111.791 92.3876 112 92.3876 112.208C92.8055 114.711 93.2234 117.213 93.8503 119.507C93.8503 119.924 94.2683 119.507 94.2683 119.09C94.0593 117.839 93.8503 117.005 93.6414 115.753Z" fill="#E3D2C0"/>
<path opacity="0.6" d="M101.164 140.777C99.7014 134.939 97.4028 129.725 95.9401 124.095C95.9401 123.678 95.5222 124.304 95.7311 124.512C97.1939 130.351 98.8655 136.19 100.746 141.403C100.955 142.029 101.373 141.194 101.164 140.777Z" fill="#E3D2C0"/>
<path opacity="0.6" d="M86.5366 101.992C86.3276 101.783 86.3276 101.992 86.5366 101.992C86.7456 105.537 86.9545 108.665 87.5814 111.792C87.5814 112.21 87.9994 111.792 87.9994 111.375C87.3725 108.456 86.9545 105.12 86.5366 101.992Z" fill="#E3D2C0"/>
<path d="M71.2824 68.2103C70.0286 71.1297 69.6107 74.0491 71.0734 76.9685C73.372 80.9305 79.014 82.1817 83.1933 82.8073C87.7904 83.4328 92.5966 83.2243 97.1938 81.9732C99.9103 81.139 102.418 79.8879 104.09 77.3855C107.015 73.215 105.97 67.3762 103.463 63.2056C102 60.9118 99.9103 58.2009 97.8206 56.7412C94.6862 54.4474 91.3428 52.9877 87.3725 53.8218C83.1933 54.8645 79.8499 57.7839 76.9244 60.7033C74.8347 62.58 72.7452 65.2909 71.2824 68.2103Z" fill="url(#paint2_linear_8002_27038)"/>
<path d="M91.9699 75.9258C87.7906 77.3855 82.9845 79.0538 79.2231 81.9732C80.6859 82.3902 82.1486 82.5987 83.4024 82.8073C87.9996 83.4329 92.8057 83.2243 97.4029 81.9732C100.119 81.1391 102.627 79.8879 104.299 77.3856C105.343 75.9259 105.97 74.0491 105.97 72.3809C101.164 73.215 96.3581 74.4661 91.9699 75.9258Z" fill="#E3D2C0"/>
<g opacity="0.2" style="mix-blend-mode:soft-light">
<path d="M93.0146 62.9961C92.8057 61.3279 92.3877 59.4511 91.7608 57.9914C91.134 56.3232 88.6264 54.0294 86.5368 54.655C82.7755 55.6976 80.059 59.2426 77.3424 61.9534C75.0439 64.4558 72.1184 68.2093 71.9094 71.9628C71.7004 78.6357 82.3575 78.4272 86.3278 76.9675C87.7905 76.5504 89.4622 75.7163 90.5071 74.4651C93.2236 71.3372 93.6415 66.9581 93.0146 62.9961Z" fill="url(#paint3_radial_8002_27038)"/>
</g>
<path d="M130.21 119.715C127.702 110.749 125.822 100.114 124.986 90.3128C124.15 81.9716 125.195 73.6305 125.613 65.0808C125.822 60.9103 126.24 51.5265 122.269 52.7777C117.881 54.4459 116.209 64.6638 115.165 70.9196C113.702 80.3034 112.866 89.4786 112.866 99.071C112.657 109.289 112.448 121.592 115.165 130.559C116.836 135.772 120.18 136.815 123.314 137.232C125.613 137.44 130.837 137.857 131.673 132.227C132.299 127.639 131.255 123.469 130.21 119.715Z" fill="#B7916D"/>
<path d="M113.911 92.1905C114.12 91.982 114.329 91.982 114.747 92.1905C116.418 94.2758 115.583 100.115 115.374 103.243C115.374 105.119 115.165 107.413 115.583 109.081C116.836 112.835 118.299 110.541 118.717 107.413C119.135 105.119 118.299 90.3138 120.598 90.5223C122.269 90.7308 121.643 95.9441 123.523 93.4417C123.732 93.2332 125.404 104.911 125.613 106.162C126.867 115.754 128.956 123.053 131.882 131.185C132.3 127.015 131.255 123.053 130.21 119.508C127.702 110.541 125.822 99.9061 124.986 90.1053C124.15 81.7641 125.195 73.423 125.613 64.8733C125.822 60.7028 126.24 51.319 122.269 52.5702C117.881 54.2384 116.21 64.4563 115.165 70.7121C113.911 78.6362 113.284 86.7688 112.866 94.9014C112.866 93.8588 113.284 92.6076 113.911 92.1905Z" fill="#E3D2C0"/>
<path opacity="0.6" d="M114.747 108.873C114.538 104.703 114.747 100.324 114.538 96.153C114.538 95.9445 114.329 96.153 114.329 96.153V96.3615C114.329 96.57 114.329 96.3615 114.538 96.3615C113.075 104.911 113.702 115.755 115.165 124.096C115.165 124.513 115.583 124.096 115.583 123.679C115.165 118.674 114.956 113.669 114.747 108.873Z" fill="#E3D2C0"/>
<path opacity="0.6" d="M117.672 123.26C117.254 121.175 117.045 119.09 116.418 117.004C116.418 117.004 116.209 117.004 116.418 117.213C116.627 119.507 116.836 121.801 117.045 124.094C117.254 125.763 117.463 127.639 118.09 129.099C118.299 129.516 118.717 128.682 118.717 128.265C118.508 126.597 118.09 124.928 117.672 123.26Z" fill="#E3D2C0"/>
<path opacity="0.6" d="M124.359 128.893C122.896 118.258 121.224 107.831 120.389 96.9877C120.389 96.7792 120.18 96.9877 120.18 96.9877C119.762 108.248 121.224 119.092 123.941 129.101C124.15 129.727 124.568 129.31 124.359 128.893Z" fill="#E3D2C0"/>
<path opacity="0.6" d="M123.314 104.702C123.105 103.451 122.896 101.992 122.687 100.74C122.687 100.532 122.478 100.74 122.478 100.949C122.687 103.451 122.687 106.162 123.105 108.665C123.105 109.082 123.523 108.665 123.523 108.456C123.523 106.788 123.523 105.745 123.314 104.702Z" fill="#E3D2C0"/>
<path opacity="0.6" d="M128.329 131.811C127.493 125.555 125.822 119.716 124.777 113.669C124.777 113.252 124.359 113.669 124.359 114.086C125.195 120.342 126.24 126.598 127.702 132.436C127.911 132.853 128.329 132.228 128.329 131.811Z" fill="#E3D2C0"/>
<path opacity="0.6" d="M117.463 88.8537C117.463 88.6452 117.254 88.8537 117.254 89.0622C117.254 92.3987 117.045 95.7351 117.254 99.0716C117.254 99.4886 117.672 99.0716 117.672 98.863C117.672 95.3181 117.463 92.1902 117.463 88.8537Z" fill="#E3D2C0"/>
<path d="M109.732 49.0254C107.433 51.5278 105.97 54.4472 106.597 57.7836C107.642 62.5798 112.866 65.9163 117.045 68.0015C121.433 70.2953 126.658 71.755 131.673 71.9636C134.598 72.1721 137.942 71.5465 140.24 69.6697C144.628 66.3333 145.673 60.0774 144.419 55.0728C143.792 52.3619 142.539 48.8169 140.867 46.5231C138.568 43.1867 135.434 40.4758 131.255 40.0587C126.658 39.6417 122.269 41.5184 118.299 43.3952C115.374 44.6464 112.239 46.5231 109.732 49.0254Z" fill="url(#paint4_linear_8002_27038)"/>
<g opacity="0.2" style="mix-blend-mode:soft-light">
<path d="M133.762 51.3187C134.18 49.4419 134.18 47.5651 134.18 45.8969C133.971 43.8116 132.509 40.6837 130.001 40.6837C125.822 40.4752 121.643 43.1861 118.09 45.0628C114.747 46.9396 110.568 49.6504 109.105 53.404C106.597 60.0769 117.463 63.4133 122.06 63.4133C123.732 63.4133 125.822 63.2048 127.076 62.3706C131.046 59.8683 132.927 55.4892 133.762 51.3187Z" fill="url(#paint5_radial_8002_27038)"/>
</g>
<path d="M133.344 136.815C134.598 129.308 136.688 120.55 139.613 112.626C141.912 105.953 145.673 100.114 148.807 93.6501C150.479 90.5222 154.032 83.4322 150.479 83.2237C146.509 82.8066 141.703 90.1051 138.568 94.4842C134.18 100.949 130.21 107.83 126.866 114.92C123.105 122.636 118.717 131.602 117.672 139.526C117.045 144.114 119.344 146.199 121.851 147.45C123.523 148.493 127.493 150.578 130.001 146.616C132.299 143.697 132.717 140.152 133.344 136.815Z" fill="#B7916D"/>
<path d="M130.21 110.542C130.419 110.542 130.628 110.542 130.837 110.959C131.464 113.044 128.747 117.215 127.493 119.509C126.867 120.968 125.822 122.636 125.613 124.096C125.195 127.433 127.076 126.181 128.538 123.888C129.583 122.219 134.18 110.75 136.061 111.793C137.315 112.419 135.016 116.172 137.315 115.129C137.524 115.129 134.807 124.513 134.598 125.347C132.3 133.063 131.255 139.319 130.628 146.409C132.509 143.281 132.926 140.153 133.553 137.025C134.807 129.518 136.897 120.76 139.822 112.836C142.121 106.163 145.882 100.324 149.017 93.8596C150.688 90.7316 154.241 83.6417 150.688 83.4331C146.718 83.0161 141.912 90.3146 138.777 94.6937C135.016 100.324 131.673 106.163 128.538 112.21C128.956 111.376 129.792 110.542 130.21 110.542Z" fill="#E3D2C0"/>
<path opacity="0.6" d="M124.986 123.261C126.24 119.925 128.12 116.797 129.165 113.461C129.165 113.252 128.956 113.461 128.956 113.461V113.669C128.956 113.669 128.956 113.669 129.165 113.669C124.986 119.716 121.851 128.058 119.971 134.731C119.971 135.148 120.389 134.939 120.389 134.522C122.06 130.768 123.523 127.015 124.986 123.261Z" fill="#E3D2C0"/>
<path opacity="0.6" d="M122.269 135.357C122.687 133.689 123.314 131.812 123.523 130.144C123.523 130.144 123.523 130.144 123.314 130.144C122.687 132.021 122.06 133.898 121.433 135.566C121.015 137.025 120.388 138.485 120.597 139.736C120.597 140.153 121.224 139.736 121.224 139.319C121.642 138.068 122.06 136.608 122.269 135.357Z" fill="#E3D2C0"/>
<path opacity="0.6" d="M125.613 141.821C128.12 133.272 130.628 124.93 133.553 116.381C133.553 116.172 133.553 116.381 133.344 116.381C128.956 124.722 126.448 133.48 124.986 142.03C125.195 142.238 125.613 142.238 125.613 141.821Z" fill="#E3D2C0"/>
<path opacity="0.6" d="M133.136 123.053C133.345 122.011 133.762 120.968 133.971 119.925C133.971 119.717 133.762 119.925 133.762 119.925C132.927 122.011 132.091 123.887 131.464 125.973C131.464 126.181 131.673 126.181 131.882 125.973C132.718 124.93 132.927 124.096 133.136 123.053Z" fill="#E3D2C0"/>
<path opacity="0.6" d="M127.702 145.366C129.374 140.361 130.001 135.356 131.255 130.352C131.255 130.143 130.837 130.352 130.837 130.56C129.374 135.565 127.911 140.778 127.075 145.574C127.075 145.991 127.493 145.783 127.702 145.366Z" fill="#E3D2C0"/>
<path opacity="0.6" d="M134.18 109.08C134.18 108.872 133.971 108.872 133.971 109.08C132.718 111.583 131.464 114.085 130.628 116.587C130.419 117.004 130.837 116.796 131.046 116.587C132.091 114.085 133.136 111.583 134.18 109.08Z" fill="#E3D2C0"/>
<path d="M139.613 74.4663C137.315 76.1345 135.643 78.4283 135.643 81.5563C135.852 85.9353 139.822 89.4803 142.957 91.7741C146.509 94.2765 150.479 96.3618 154.868 97.1959C157.375 97.8215 160.092 97.8215 162.599 96.5703C166.778 94.2765 168.45 89.0633 168.241 84.6842C168.032 82.1818 167.614 79.0539 166.361 76.7601C164.898 73.6322 162.599 70.9213 159.047 69.8787C155.286 68.836 151.106 69.8787 147.554 70.9213C145.046 71.5469 142.121 72.798 139.613 74.4663Z" fill="url(#paint6_linear_8002_27038)"/>
<g opacity="0.2" style="mix-blend-mode:soft-light">
<path d="M159.883 79.8879C160.51 78.4282 160.927 76.76 160.927 75.3003C161.136 73.632 160.092 70.7126 158.211 70.2956C154.659 69.4614 150.897 71.1297 147.554 72.3808C144.419 73.4235 140.449 75.3002 138.777 78.2196C135.643 83.4328 144.628 88.0205 148.39 88.6461C149.643 88.8546 151.524 89.0631 152.987 88.4375C156.33 86.7693 158.629 83.2243 159.883 79.8879Z" fill="url(#paint7_radial_8002_27038)"/>
</g>
<path d="M70.2375 139.317C65.0135 135.772 59.7893 131.185 55.8191 126.389C52.4757 122.218 50.595 117.422 48.2965 112.626C47.0427 110.332 44.5351 105.119 41.1917 107.83C37.4303 110.958 39.102 117.213 40.1469 121.175C41.8186 126.806 43.9082 132.227 46.8337 137.441C49.9681 142.862 53.5205 149.535 59.1625 152.872C62.5059 154.748 66.0583 153.497 69.1927 152.038C71.4913 150.995 76.7153 148.493 75.6705 145.156C74.8346 142.445 72.5361 140.986 70.2375 139.317Z" fill="#CCA272"/>
<path d="M45.7891 133.271C45.9981 133.063 46.207 132.854 46.625 132.854C48.9236 133.063 49.9684 136.608 50.8042 138.276C51.2221 139.319 51.849 140.57 52.8938 141.195C55.1924 142.655 55.8193 140.57 55.4014 138.693C54.9835 137.233 49.5504 129.935 51.849 128.684C53.5207 127.85 54.5656 130.978 55.6104 128.684C55.6104 128.475 61.2524 133.897 61.6703 134.314C66.0585 138.693 70.2377 141.612 75.6707 144.323C74.8349 141.821 72.5363 140.361 70.4467 138.902C65.2226 135.357 59.9986 130.769 56.0283 125.973C52.6849 121.802 50.8042 117.006 48.5056 112.21C47.2518 109.916 44.7443 104.703 41.4009 107.414C37.6396 110.542 39.3113 116.798 40.3561 120.76C41.6099 125.556 43.4905 130.352 45.7891 134.731C45.3712 134.731 45.3712 133.688 45.7891 133.271Z" fill="#D1AD86"/>
<path opacity="0.6" d="M51.64 141.612C49.9683 139.527 48.9235 137.025 47.2518 134.939C47.2518 134.939 47.0428 134.939 47.0428 135.148C47.0428 135.148 47.0428 135.148 47.0428 135.357C48.2966 140.778 52.4759 145.991 56.6551 149.745C56.8641 149.954 57.073 149.536 57.073 149.328C55.4013 146.617 53.5206 144.115 51.64 141.612Z" fill="#E3D2C0"/>
<path opacity="0.6" d="M59.3717 147.866C58.3269 147.032 57.2821 145.99 56.2373 145.156C56.2373 145.156 56.2373 145.155 56.2373 145.364C57.2821 146.407 58.118 147.658 59.1628 148.7C59.9986 149.535 60.6255 150.369 61.6703 150.786C62.0883 150.786 62.0883 150.369 61.8793 150.16C61.0435 149.118 60.2076 148.492 59.3717 147.866Z" fill="#E3D2C0"/>
<path opacity="0.6" d="M67.5212 147.243C62.7151 142.446 57.909 137.65 53.5207 132.437C53.5207 132.437 53.3118 132.437 53.3118 132.646C56.4462 138.901 61.4613 143.906 67.3122 147.66C67.5212 147.868 67.7302 147.451 67.5212 147.243Z" fill="#E3D2C0"/>
<path opacity="0.6" d="M58.7447 134.938C58.1178 134.312 57.4908 133.687 56.8639 133.061C56.8639 133.061 56.655 133.061 56.655 133.27C57.6998 134.521 58.5357 135.981 59.7895 137.023C59.9984 137.232 60.2074 136.815 60.2074 136.606C59.7894 135.981 59.3715 135.564 58.7447 134.938Z" fill="#E3D2C0"/>
<path opacity="0.6" d="M72.3274 146.826C69.6109 143.907 66.0585 141.821 63.133 138.902C62.924 138.694 62.7151 139.111 62.9241 139.319C65.6406 142.238 68.775 144.949 72.1184 147.243C72.3274 147.66 72.5364 147.035 72.3274 146.826Z" fill="#E3D2C0"/>
<path opacity="0.6" d="M48.0876 129.517C47.6697 129.725 47.8786 129.517 48.0876 129.517C48.9235 131.602 49.9683 133.27 51.222 134.938C51.431 135.147 51.64 134.73 51.431 134.521C50.3862 133.062 49.1324 131.393 48.0876 129.517Z" fill="#E3D2C0"/>
<path d="M25.1017 116.797C24.6838 120.342 25.5197 123.887 28.2362 126.181C32.2065 129.726 38.8933 128.892 43.4904 127.849C48.7145 126.806 53.9386 124.721 58.1178 121.593C60.6254 119.717 62.924 117.214 63.7598 114.086C65.2226 108.456 61.8792 102.617 57.6999 99.0722C55.4013 97.1955 52.0579 95.1102 49.1324 94.2761C44.9532 93.0249 40.565 92.8164 36.8037 95.1102C32.6244 97.6125 30.1168 102.2 28.0272 106.371C26.7734 109.499 25.3107 113.252 25.1017 116.797Z" fill="url(#paint8_linear_8002_27038)"/>
<path d="M50.1772 125.971C53.1027 124.929 55.8192 123.469 58.1178 121.592C60.6253 119.716 62.924 117.213 63.7598 114.085C64.5957 111.166 63.9688 108.247 62.715 105.536C55.8192 110.123 50.3862 117.839 50.1772 125.971Z" fill="#E3D2C0"/>
<g opacity="0.2" style="mix-blend-mode:soft-light">
<path d="M46.4159 103.034C45.5801 101.157 44.3263 99.4891 43.0726 98.2379C41.6098 96.5697 38.2664 95.11 36.1768 96.5697C32.4154 99.0721 30.9527 104.077 29.0721 107.83C27.4004 111.375 25.7287 116.588 26.9824 120.55C29.0721 127.849 40.565 123.47 44.5353 120.55C45.789 119.508 47.4608 118.048 48.0877 116.38C49.7594 112.001 48.5055 106.996 46.4159 103.034Z" fill="url(#paint9_radial_8002_27038)"/>
</g>
<path d="M120.18 143.489C116.209 137.441 112.866 129.934 110.776 123.053C109.105 117.214 109.523 111.167 109.105 104.911C108.896 101.783 108.478 95.1099 103.881 96.5696C98.4476 98.2379 97.1938 105.745 96.5669 110.332C95.5221 117.214 95.5221 123.887 96.149 130.768C96.9849 138.067 97.6117 146.825 102 152.872C104.508 156.417 109.105 156.834 113.075 156.626C116 156.626 122.687 156.209 123.105 152.247C123.523 148.91 121.851 145.991 120.18 143.489Z" fill="#CCA272"/>
<path d="M96.9847 125.555C97.1937 125.347 97.6116 125.347 98.0296 125.555C100.537 126.806 99.7012 131.185 99.9102 133.271C99.9102 134.522 99.9102 136.19 100.746 137.441C102.627 139.944 104.298 138.275 104.507 135.981C104.716 134.313 102.209 123.887 105.343 123.678C107.642 123.678 107.015 127.432 109.314 125.555C109.522 125.347 112.866 133.479 113.075 134.313C115.582 140.986 118.717 145.991 123.314 151.621C123.523 148.493 121.851 145.991 120.18 143.489C116.209 137.441 112.866 129.934 110.776 123.053C109.105 117.214 109.522 111.167 109.105 104.911C108.896 101.783 108.478 95.1099 103.88 96.5696C98.4475 98.2379 97.1937 105.745 96.5668 110.332C95.7309 116.171 95.522 122.01 95.9399 127.849C95.731 126.806 96.1489 125.972 96.9847 125.555Z" fill="#D1AD86"/>
<path opacity="0.6" d="M99.4924 137.232C98.8655 134.313 98.6566 131.185 98.0297 128.057C98.0297 127.849 97.8207 128.057 97.8207 128.057C97.8207 128.057 97.8207 128.057 97.8207 128.266H98.0297C96.9849 134.521 98.8655 142.028 101.373 147.867C101.582 148.284 102 147.867 102 147.45C100.955 144.322 100.328 140.777 99.4924 137.232Z" fill="#E3D2C0"/>
<path opacity="0.6" d="M104.508 147.242C103.672 145.782 103.254 144.322 102.418 142.863H102.209C102.836 144.531 103.045 146.199 103.672 147.659C104.09 148.91 104.508 150.161 105.343 150.995C105.552 151.204 105.97 150.578 105.97 150.37C105.761 149.535 105.134 148.493 104.508 147.242Z" fill="#E3D2C0"/>
<path opacity="0.6" d="M113.702 150.579C110.776 143.281 107.851 135.982 105.761 128.267C105.761 128.058 105.552 128.267 105.552 128.267C106.179 136.399 109.105 143.906 113.284 150.788C113.284 151.205 113.702 150.788 113.702 150.579Z" fill="#E3D2C0"/>
<path opacity="0.6" d="M109.941 133.478C109.523 132.644 109.105 131.602 108.687 130.768C108.687 130.559 108.478 130.768 108.478 130.976C108.896 132.853 109.314 134.521 109.941 136.398C110.15 136.606 110.358 136.398 110.358 136.189C110.567 134.938 110.358 134.313 109.941 133.478Z" fill="#E3D2C0"/>
<path opacity="0.6" d="M118.926 152.248C117.254 147.869 114.538 143.907 112.657 139.736C112.448 139.528 112.239 139.736 112.239 139.945C113.911 144.324 115.791 148.703 118.299 152.665C118.508 153.082 118.926 152.456 118.926 152.248Z" fill="#E3D2C0"/>
<path opacity="0.6" d="M100.955 122.843C100.955 122.635 100.746 122.843 100.746 123.052C100.955 125.554 101.164 127.848 101.791 130.142C101.791 130.559 102.418 130.142 102.209 129.933C102 127.431 101.373 125.137 100.955 122.843Z" fill="#E3D2C0"/>
<path d="M71.9095 93.6511C68.984 97.8217 67.7302 102.409 70.6557 107.205C74.8349 113.878 86.1189 116.798 94.4774 118.257C103.672 120.134 113.493 120.343 122.687 119.092C128.12 118.257 133.553 116.589 137.106 113.253C143.375 107.205 141.912 98.0302 137.315 91.1488C134.807 87.3953 130.837 82.8077 126.658 80.0968C120.807 76.1347 113.911 73.2154 106.179 74.0495C97.8208 74.8836 90.7161 79.0542 84.4472 83.0162C79.85 85.7271 75.0439 89.4806 71.9095 93.6511Z" fill="url(#paint10_linear_8002_27038)"/>
<path d="M126.24 118.465C130.419 117.423 134.18 115.754 136.897 113.252C140.658 109.707 141.703 105.119 140.867 100.532C133.135 102.617 126.658 110.75 126.24 118.465Z" fill="#ECD5BB"/>
<path d="M84.865 103.659C81.9395 101.365 78.3871 99.9055 74.6258 99.697C72.7451 99.697 70.8645 99.9056 68.9838 100.323C68.7748 102.616 69.1927 104.702 70.6555 106.996C74.8347 113.668 86.1187 116.588 94.4772 118.048C92.5965 112.626 89.6711 107.204 84.865 103.659Z" fill="#ECD5BB"/>
<g opacity="0.2" style="mix-blend-mode:soft-light">
<path d="M102.209 76.5518C94.4772 77.5944 88.2084 82.3906 82.7754 85.9355C79.223 88.2293 75.0437 91.3573 72.5361 94.6937C75.0437 98.2387 83.8201 98.4472 87.1635 98.4472C92.8055 98.2387 98.6565 97.1961 103.463 94.2767C106.388 92.3999 109.105 89.8976 109.94 86.3526C110.567 84.0588 110.567 81.1394 108.896 79.0541C107.851 77.8029 106.388 77.1774 104.716 76.7603C104.09 76.5518 103.254 76.5518 102.209 76.5518Z" fill="url(#paint11_radial_8002_27038)"/>
</g>
<path d="M92.1788 147.867C87.9995 143.905 84.0292 138.692 81.3127 133.687C79.0141 129.517 78.1783 124.721 76.9245 120.133C76.2976 117.839 74.8349 112.626 71.2825 114.503C67.3122 116.588 67.7302 122.635 68.1481 126.389C68.566 131.81 69.6108 137.024 71.4914 142.237C73.3721 147.659 75.4617 154.332 79.8499 158.294C82.3575 160.587 85.9099 160.17 89.0443 159.336C91.3429 158.711 96.358 157.459 96.1491 154.123C95.9401 151.621 94.0594 149.744 92.1788 147.867Z" fill="#CCA272"/>
<path d="M71.2824 138.275C71.4913 138.066 71.7003 138.066 72.1182 138.066C74.2078 138.483 74.4168 142.028 74.8347 143.697C75.0437 144.739 75.4616 145.99 76.2975 146.825C78.1781 148.493 79.0139 146.825 79.0139 145.156C78.805 143.697 75.2527 136.19 77.5512 135.564C79.2229 135.147 79.4319 138.066 80.8946 136.19C80.8946 135.981 85.0739 141.82 85.4918 142.237C88.6262 147.033 91.9697 150.369 96.3579 153.706C95.9399 151.412 94.2682 149.535 92.5965 147.867C88.4173 143.905 84.447 138.692 81.7305 133.687C79.4319 129.517 78.596 124.721 77.3423 120.133C76.7154 117.839 75.2526 112.626 71.7002 114.503C67.73 116.588 68.1479 122.635 68.5658 126.389C68.9837 130.976 69.8196 135.564 71.0734 139.943C70.6555 139.526 70.8644 138.692 71.2824 138.275Z" fill="#D1AD86"/>
<path opacity="0.6" d="M75.2527 146.825C74.2079 144.74 73.581 142.238 72.5362 140.153H72.3273C72.3273 140.153 72.3273 140.153 72.3273 140.361C72.5362 145.366 75.4617 150.788 78.3872 154.958C78.5961 155.167 78.8051 154.75 78.8051 154.541C77.7602 151.83 76.5065 149.328 75.2527 146.825Z" fill="#E3D2C0"/>
<path opacity="0.6" d="M80.8947 153.706C80.0589 152.663 79.432 151.621 78.3872 150.787C79.0141 152.038 79.641 153.08 80.4768 154.332C81.1037 155.166 81.5216 156.208 82.3575 156.625C82.5664 156.834 82.7754 156.208 82.7754 156C82.3575 155.166 81.5216 154.54 80.8947 153.706Z" fill="#E3D2C0"/>
<path opacity="0.6" d="M88.6264 154.748C85.074 149.535 81.5217 144.53 78.5962 138.9H78.3872C80.2679 145.156 83.8202 150.369 88.4174 154.957C88.4174 155.165 88.6264 154.748 88.6264 154.748Z" fill="#E3D2C0"/>
<path opacity="0.6" d="M82.7754 142.029C82.3575 141.404 81.9395 140.778 81.3126 140.153C81.3126 140.153 81.1036 140.153 81.1036 140.361C81.7305 141.612 82.3574 143.072 83.1933 144.323C83.4022 144.532 83.6112 144.115 83.6112 144.115C83.4023 143.072 83.1933 142.655 82.7754 142.029Z" fill="#E3D2C0"/>
<path opacity="0.6" d="M92.8058 154.958C90.7161 151.83 87.9997 149.328 85.91 146.408C85.7011 146.2 85.4921 146.617 85.7011 146.825C87.7907 149.953 90.0892 152.873 92.5968 155.584C92.5968 155.584 93.0147 155.167 92.8058 154.958Z" fill="#E3D2C0"/>
<path opacity="0.6" d="M73.9991 135.356C73.7902 135.356 73.9991 135.147 73.9991 135.356C74.417 137.233 75.0439 139.109 75.8798 140.778C76.0887 140.986 76.2977 140.778 76.2977 140.569C75.4619 138.901 74.626 137.024 73.9991 135.356Z" fill="#E3D2C0"/>
<path d="M55.4013 119.924C54.5655 123.052 54.5655 126.18 56.6551 128.891C59.5806 132.644 65.8495 133.061 70.2377 133.061C75.0438 133.061 80.0589 132.018 84.6561 129.933C87.3726 128.682 89.8802 126.805 91.134 124.094C93.4325 119.298 91.5518 113.459 88.2084 109.497C86.3278 107.412 83.8202 104.91 81.3127 103.659C77.7603 101.782 73.999 100.948 70.0287 102.407C65.8495 104.076 62.924 107.621 60.2075 111.166C58.3268 113.668 56.4462 116.796 55.4013 119.924Z" fill="url(#paint12_linear_8002_27038)"/>
<g opacity="0.2" style="mix-blend-mode:soft-light">
<path d="M77.1335 111.166C76.5066 109.289 75.8797 107.621 75.0439 106.37C73.9991 104.701 71.2826 102.616 69.193 103.659C65.4316 105.327 63.133 109.497 60.8345 112.625C58.7448 115.545 56.2373 119.924 56.6552 123.677C57.2821 130.559 68.3571 128.682 72.3274 126.597C73.5812 125.971 75.4618 124.72 76.2977 123.469C78.5963 119.924 78.3873 115.128 77.1335 111.166Z" fill="url(#paint13_radial_8002_27038)"/>
</g>
<path d="M119.971 146.199C118.926 149.536 124.15 152.038 126.24 153.289C129.374 154.749 133.135 156 136.27 154.123C141.912 150.787 145.673 144.323 148.808 138.692C151.733 133.479 154.032 128.266 155.703 122.636C156.748 118.882 158.629 112.418 154.868 109.29C151.733 106.579 148.808 111.792 147.763 114.086C145.464 118.674 143.584 123.678 140.031 127.64C136.061 132.436 130.628 137.024 125.404 140.361C123.105 141.82 120.807 143.488 119.971 146.199Z" fill="#CCA272"/>
<path d="M150.061 134.522C149.852 134.313 149.644 134.105 149.226 134.105C146.927 134.105 145.882 137.858 145.046 139.526C144.419 140.569 144.002 141.82 142.957 142.446C140.658 143.906 140.031 141.82 140.449 139.944C140.867 138.484 146.509 131.185 144.002 129.934C142.33 129.1 141.285 132.228 140.24 129.934C140.24 129.726 134.598 134.939 134.18 135.564C129.792 139.943 125.613 142.654 119.971 145.574C121.016 143.071 123.105 141.612 125.404 140.152C130.628 136.816 136.061 132.228 140.031 127.432C143.584 123.47 145.255 118.465 147.763 113.877C149.017 111.584 151.733 106.37 154.868 109.081C158.629 112.209 156.748 118.674 155.703 122.427C154.241 127.223 152.36 132.019 150.061 136.398C150.479 135.981 150.479 135.147 150.061 134.522Z" fill="#D1AD86"/>
<path opacity="0.6" d="M143.792 142.863C145.464 140.778 146.509 138.275 148.181 136.19C148.181 136.19 148.39 136.19 148.39 136.398C148.39 136.398 148.39 136.398 148.39 136.607C146.927 141.82 142.748 147.242 138.777 150.787C138.568 150.995 138.359 150.578 138.359 150.37C140.24 147.868 141.912 145.365 143.792 142.863Z" fill="#E3D2C0"/>
<path opacity="0.6" d="M136.27 148.91C137.315 148.075 138.359 147.033 139.613 146.199C139.613 146.199 139.613 146.199 139.613 146.407C138.568 147.45 137.733 148.701 136.688 149.744C135.852 150.578 135.225 151.412 134.18 151.829C133.762 151.829 133.762 151.412 133.971 151.203C134.389 150.369 135.434 149.744 136.27 148.91Z" fill="#E3D2C0"/>
<path opacity="0.6" d="M127.911 148.494C132.717 143.698 137.733 139.11 142.121 133.897C142.121 133.897 142.33 133.897 142.33 134.106C138.986 140.361 133.971 145.157 128.12 148.911C127.911 148.911 127.702 148.494 127.911 148.494Z" fill="#E3D2C0"/>
<path opacity="0.6" d="M136.897 136.19C137.524 135.564 138.15 134.939 138.777 134.521C138.777 134.521 138.986 134.521 138.986 134.73C137.942 135.981 137.106 137.232 135.852 138.484C135.643 138.692 135.434 138.275 135.434 138.066C135.852 137.232 136.27 136.815 136.897 136.19Z" fill="#E3D2C0"/>
<path opacity="0.6" d="M123.314 147.868C126.24 144.949 129.792 142.864 132.718 140.153C132.927 139.944 133.136 140.361 132.927 140.57C130.21 143.489 126.867 146.2 123.732 148.494C123.314 148.494 123.105 148.077 123.314 147.868Z" fill="#E3D2C0"/>
<path opacity="0.6" d="M147.763 130.977C147.763 130.769 147.972 130.977 147.763 130.977C146.927 133.063 145.882 134.731 144.628 136.399C144.419 136.608 144.21 136.191 144.419 135.982C145.464 134.314 146.509 132.646 147.763 130.977Z" fill="#E3D2C0"/>
<path d="M137.733 107.204C135.225 109.706 133.762 112.834 134.389 116.587C135.434 121.801 141.076 125.346 145.464 127.431C150.27 129.933 155.495 131.393 160.928 131.601C164.062 131.81 167.405 131.184 170.122 129.308C174.719 125.763 175.764 119.09 174.51 113.668C173.883 110.749 172.629 106.995 170.749 104.493C168.241 100.948 164.898 98.0283 160.51 97.6113C155.703 97.1942 150.897 99.071 146.718 101.156C143.793 102.616 140.24 104.701 137.733 107.204Z" fill="url(#paint14_linear_8002_27038)"/>
<g opacity="0.2" style="mix-blend-mode:soft-light">
<path d="M163.226 109.707C163.644 107.622 163.853 105.745 163.644 103.869C163.435 101.783 161.763 98.4469 159.256 98.2384C154.867 98.0299 150.479 100.741 146.718 102.826C143.165 104.703 138.568 107.622 137.106 111.584C134.389 118.674 146.091 122.219 150.897 122.219C152.569 122.219 154.867 122.011 156.33 121.177C160.3 118.674 162.39 114.087 163.226 109.707Z" fill="url(#paint15_radial_8002_27038)"/>
</g>
<defs>
<linearGradient id="paint0_linear_8002_27038" x1="55.6703" y1="66.1311" x2="55.6703" y2="89.8967" gradientUnits="userSpaceOnUse">
<stop stop-color="#E3D2C0"/>
<stop offset="1" stop-color="#DBBEA0"/>
</linearGradient>
<radialGradient id="paint1_radial_8002_27038" cx="0" cy="0" r="1" gradientTransform="matrix(23.7257 -5.59553 5.60718 23.6764 35.5878 68.672)" gradientUnits="userSpaceOnUse">
<stop offset="0.00221549" stop-color="white"/>
<stop offset="0.9102" stop-color="white"/>
<stop offset="1" stop-color="white"/>
</radialGradient>
<linearGradient id="paint2_linear_8002_27038" x1="88.0032" y1="53.5847" x2="88.0032" y2="83.1489" gradientUnits="userSpaceOnUse">
<stop stop-color="#E3D2C0"/>
<stop offset="1" stop-color="#DBBEA0"/>
</linearGradient>
<radialGradient id="paint3_radial_8002_27038" cx="0" cy="0" r="1" gradientTransform="matrix(30.612 -2.1899 2.19446 30.5484 65.4603 53.0322)" gradientUnits="userSpaceOnUse">
<stop offset="0.00221549" stop-color="white"/>
<stop offset="0.9102" stop-color="white"/>
<stop offset="1" stop-color="white"/>
</radialGradient>
<linearGradient id="paint4_linear_8002_27038" x1="125.682" y1="40" x2="125.682" y2="72.0019" gradientUnits="userSpaceOnUse">
<stop stop-color="#E3D2C0"/>
<stop offset="1" stop-color="#DBBEA0"/>
</linearGradient>
<radialGradient id="paint5_radial_8002_27038" cx="0" cy="0" r="1" gradientTransform="matrix(31.9803 8.28923 -8.3065 31.9139 109.045 31.6863)" gradientUnits="userSpaceOnUse">
<stop offset="0.00221549" stop-color="white"/>
<stop offset="0.9102" stop-color="white"/>
<stop offset="1" stop-color="white"/>
</radialGradient>
<linearGradient id="paint6_linear_8002_27038" x1="151.951" y1="69.4468" x2="151.951" y2="97.6068" gradientUnits="userSpaceOnUse">
<stop stop-color="#E3D2C0"/>
<stop offset="1" stop-color="#DBBEA0"/>
</linearGradient>
<radialGradient id="paint7_radial_8002_27038" cx="0" cy="0" r="1" gradientTransform="matrix(26.0317 11.5712 -11.5953 25.9776 141.561 59.6467)" gradientUnits="userSpaceOnUse">
<stop offset="0.00221549" stop-color="white"/>
<stop offset="0.9102" stop-color="white"/>
<stop offset="1" stop-color="white"/>
</radialGradient>
<linearGradient id="paint8_linear_8002_27038" x1="44.5546" y1="93.3533" x2="44.5546" y2="128.75" gradientUnits="userSpaceOnUse">
<stop stop-color="#E3D2C0"/>
<stop offset="1" stop-color="#DBBEA0"/>
</linearGradient>
<radialGradient id="paint9_radial_8002_27038" cx="0" cy="0" r="1" gradientTransform="matrix(32.1017 -13.9729 14.002 32.0349 12.9794 102.799)" gradientUnits="userSpaceOnUse">
<stop offset="0.00221549" stop-color="white"/>
<stop offset="0.9102" stop-color="white"/>
<stop offset="1" stop-color="white"/>
</radialGradient>
<linearGradient id="paint10_linear_8002_27038" x1="105.145" y1="73.9065" x2="105.145" y2="119.88" gradientUnits="userSpaceOnUse">
<stop stop-color="#F1E1C6"/>
<stop offset="1" stop-color="#DFCBAA"/>
</linearGradient>
<radialGradient id="paint11_radial_8002_27038" cx="0" cy="0" r="1" gradientUnits="userSpaceOnUse" gradientTransform="translate(88.4353 46.7203) scale(56.0666 55.95)">
<stop offset="0.00221549" stop-color="white"/>
<stop offset="0.9102" stop-color="white"/>
<stop offset="1" stop-color="white"/>
</radialGradient>
<linearGradient id="paint12_linear_8002_27038" x1="73.5135" y1="101.664" x2="73.5135" y2="133.061" gradientUnits="userSpaceOnUse">
<stop stop-color="#F0E5D8"/>
<stop offset="1" stop-color="#E7D2B9"/>
</linearGradient>
<radialGradient id="paint13_radial_8002_27038" cx="0" cy="0" r="1" gradientTransform="matrix(31.2914 -7.06227 7.07697 31.2264 47.0527 105.209)" gradientUnits="userSpaceOnUse">
<stop offset="0.00221549" stop-color="white"/>
<stop offset="0.9102" stop-color="white"/>
<stop offset="1" stop-color="white"/>
</radialGradient>
<linearGradient id="paint14_linear_8002_27038" x1="154.622" y1="97.5527" x2="154.622" y2="131.64" gradientUnits="userSpaceOnUse">
<stop stop-color="#E3D2C0"/>
<stop offset="1" stop-color="#DBBEA0"/>
</linearGradient>
<radialGradient id="paint15_radial_8002_27038" cx="0" cy="0" r="1" gradientTransform="matrix(33.8907 8.80718 -8.82551 33.8203 136.968 88.79)" gradientUnits="userSpaceOnUse">
<stop offset="0.00221549" stop-color="white"/>
<stop offset="0.9102" stop-color="white"/>
<stop offset="1" stop-color="white"/>
</radialGradient>
</defs>
</svg>
