<svg width="200" height="200" viewBox="0 0 200 200" fill="none" xmlns="http://www.w3.org/2000/svg">
<path d="M81.0331 52.4151C69.2611 59.0597 34.4682 84.7258 33.1602 113.389C32.7678 122.639 36.4302 127.59 40.7466 129.674C49.2487 133.583 65.9911 121.727 83.6491 105.962C110.463 81.9898 137.67 58.9294 143.948 49.4186C150.226 39.9078 148.003 37.4324 141.201 35.4781C134.4 33.5238 109.678 40.2986 101.961 43.2952C94.3748 46.1615 85.6111 49.8094 81.0331 52.4151Z" fill="url(#paint0_radial_9002_27339)"/>
<path opacity="0.8" d="M81.0331 52.4151C69.2611 59.0597 34.4682 84.7258 33.1602 113.389C32.7678 122.639 36.4302 127.59 40.7466 129.674C49.2487 133.583 65.9911 121.727 83.6491 105.962C110.463 81.9898 137.67 58.9294 143.948 49.4186C150.226 39.9078 148.003 37.4324 141.201 35.4781C134.4 33.5238 109.678 40.2986 101.961 43.2952C94.3748 46.1615 85.6111 49.8094 81.0331 52.4151Z" fill="url(#paint1_radial_9002_27339)"/>
<g opacity="0.2" style="mix-blend-mode:soft-light">
<path d="M46.6327 126.547C37.215 119.903 50.5567 107.786 57.0967 101.402C73.1851 85.3772 92.5436 73.1305 111.379 60.7534C113.995 59.0597 143.556 39.5169 144.471 46.0312C144.602 46.8129 144.602 47.5946 144.602 48.3763C149.965 39.7775 147.741 37.4324 141.201 35.4781C134.4 33.5238 109.678 40.2986 101.961 43.2952C94.3748 46.2917 85.6111 49.9397 81.0331 52.5454C69.2611 59.19 34.4682 84.8561 33.1602 113.519C32.7678 122.769 36.4302 127.72 40.7466 129.804C43.8858 131.238 48.4639 130.716 51.3415 128.892C49.3795 128.111 47.8099 127.329 46.6327 126.547Z" fill="url(#paint2_radial_9002_27339)"/>
</g>
<g opacity="0.4" style="mix-blend-mode:soft-light">
<path d="M133.745 38.7362C119.619 43.4265 80.9018 70.7863 65.075 91.8925C49.2481 112.999 58.5349 110.523 78.9398 99.449C99.3446 88.5051 133.745 60.1029 140.808 50.983C147.872 42.1236 151.272 32.7431 133.745 38.7362Z" fill="url(#paint3_radial_9002_27339)"/>
</g>
<g opacity="0.2" style="mix-blend-mode:soft-light">
<path d="M38.6533 125.766C31.5901 104.92 61.5433 83.9445 75.8006 73.652C91.3658 62.4475 110.201 51.6338 128.513 43.5562C130.083 42.9047 146.694 34.9574 147.087 43.1653C148.526 38.6053 146.04 36.7814 141.07 35.3482C134.268 33.3939 109.547 40.1688 101.83 43.1653C94.2434 46.1619 85.4798 49.8098 80.9018 52.4155C69.1298 59.0601 34.3369 84.7262 33.0289 113.389C32.6365 122.639 36.2989 127.59 40.6153 129.675C40.8769 129.805 41.1385 129.935 41.4001 129.935C40.2229 128.763 39.1765 127.329 38.6533 125.766Z" fill="url(#paint4_radial_9002_27339)"/>
</g>
<path d="M146.04 37.5631C141.593 35.0877 132.568 37.4328 118.18 43.1654C100.391 50.2008 84.0408 63.099 74.6232 69.4829C60.4967 79.124 36.2987 94.1068 34.3367 114.952C33.6827 121.467 35.3831 125.505 37.9991 127.981C38.7839 128.763 39.6995 129.284 40.7459 129.675C49.2479 133.583 65.9903 121.727 83.6484 105.963C110.462 81.9903 137.669 58.9299 143.947 49.419C148.264 42.7745 148.525 39.5174 146.04 37.5631Z" stroke="#70A98F" stroke-width="0.722342" stroke-miterlimit="10"/>
<path d="M146.04 37.5631C141.593 35.0877 132.568 37.4328 118.18 43.1654C100.391 50.2008 84.0408 63.099 74.6232 69.4829C60.4967 79.124 36.2987 94.1068 34.3367 114.952C33.6827 121.467 35.3831 125.505 37.9991 127.981C38.7839 128.763 39.6995 129.284 40.7459 129.675C49.2479 133.583 65.9903 121.727 83.6484 105.963C110.462 81.9903 137.669 58.9299 143.947 49.419C148.264 42.7745 148.525 39.5174 146.04 37.5631ZM141.201 51.7642C134.006 60.363 111.247 80.4269 84.9564 103.748C79.8552 108.178 74.6232 112.477 69.3911 116.646C63.1127 121.727 52.5179 129.805 43.8851 129.414C36.6911 128.893 35.2523 120.685 35.9063 114.301C37.8683 94.1068 61.6739 79.5149 75.6696 70.2646C84.8256 64.1412 101.176 50.8522 118.703 43.9471C129.167 39.9082 137.276 36.9117 142.378 37.1723C148.264 37.5631 147.348 41.7322 146.302 43.8168C145.255 45.9014 143.817 48.7676 141.201 51.7642Z" fill="url(#paint5_radial_9002_27339)"/>
<path d="M34.3374 114.953C36.2994 94.1072 60.4974 79.1245 74.6238 69.4834C83.9107 63.0994 100.392 50.2012 118.18 43.1658C132.568 37.4333 141.594 35.0881 146.041 37.5635C144.864 36.6516 143.163 36.0001 141.07 35.3487C134.269 33.3944 109.548 40.1692 101.83 43.1658C94.2439 46.1624 85.4803 49.8103 80.9023 52.416C69.1302 59.0606 34.3374 84.7267 33.0294 113.389C32.7678 120.685 34.8606 125.376 37.9998 127.981C35.3838 125.506 33.6834 121.467 34.3374 114.953Z" fill="url(#paint6_radial_9002_27339)"/>
<mask id="mask0_9002_27339" style="mask-type:luminance" maskUnits="userSpaceOnUse" x="33" y="35" width="114" height="93">
<path d="M34.3374 114.953C36.2994 94.1072 60.4974 79.1245 74.6238 69.4834C83.9107 63.0994 100.392 50.2012 118.18 43.1658C132.568 37.4333 141.594 35.0881 146.041 37.5635C144.864 36.6516 143.163 36.0001 141.07 35.3487C134.269 33.3944 109.548 40.1692 101.83 43.1658C94.2439 46.1624 85.4803 49.8103 80.9023 52.416C69.1302 59.0606 34.3374 84.7267 33.0294 113.389C32.7678 120.685 34.8606 125.376 37.9998 127.981C35.3838 125.506 33.6834 121.467 34.3374 114.953Z" fill="white"/>
</mask>
<g mask="url(#mask0_9002_27339)">
<g opacity="0.3">
<path d="M38.132 127.33C30.6764 120.164 35.2544 106.745 39.9632 99.3188C46.3725 89.0263 56.5749 81.2092 66.5157 74.4343C76.9797 67.2687 87.1821 59.5819 98.0386 52.9373C108.241 46.5534 119.228 41.6025 130.739 38.0848C135.186 36.782 141.726 34.5671 146.173 37.0426C142.249 34.958 136.755 36.5214 132.701 37.694C126.945 39.2574 121.321 41.4722 115.827 43.8174C104.317 48.6379 93.853 55.6733 83.7813 62.839C73.4481 70.1349 62.5917 76.7795 53.0433 85.1177C44.2796 92.6742 36.3008 102.185 34.7312 113.911C34.0772 118.731 34.6004 123.943 38.132 127.33Z" fill="#46825B"/>
<path d="M38.0005 127.461C30.5449 120.295 34.4689 107.527 38.9161 99.7103C44.8021 89.5481 54.2197 81.731 63.6373 74.8259C73.5782 67.5299 83.7806 60.4945 94.2446 53.9803C104.578 47.5963 115.434 42.5152 127.075 38.7369C132.7 36.9129 140.548 34.0467 146.172 36.7827C142.248 34.6981 136.755 36.1312 132.7 37.1735C127.337 38.6066 122.105 40.4306 117.004 42.5152C105.624 47.0752 95.1602 53.4591 85.0886 60.3642C75.017 67.2693 64.6837 73.9139 55.2661 81.6007C46.3717 89.2875 37.8697 98.4074 34.9921 110.003C33.4225 115.735 33.4225 123.031 38.0005 127.461Z" fill="#46825B"/>
<path d="M37.8698 127.462C30.2834 120.296 33.815 107.658 38.2622 99.7109C43.8866 89.5487 52.7811 81.471 62.0679 74.5659C72.0087 67.1396 82.3419 60.1043 92.9367 53.7203C103.401 47.3363 114.388 42.3855 126.16 38.7375C132.177 36.9135 140.025 34.0473 146.042 36.9135C141.725 34.829 136.232 36.2621 131.784 37.3044C126.422 38.7375 121.19 40.5615 115.958 42.5158C104.447 46.9455 93.7215 53.1992 83.5191 60.1043C73.3167 66.8791 62.9835 73.6539 53.6967 81.7316C44.8022 89.5487 36.9542 98.9292 34.2074 110.655C33.161 116.387 33.4226 123.162 37.8698 127.462Z" fill="#46825B"/>
<path d="M37.7388 127.593C29.8908 120.036 33.4224 107.268 37.8696 98.9299C43.3633 88.6374 52.3885 80.2991 61.5445 73.2638C81.0337 58.5416 102.223 45.1222 125.898 38.4777C132.177 36.6537 139.763 34.1783 146.041 36.9142C141.463 34.96 136.362 36.0023 131.653 37.0445C126.291 38.4777 120.928 40.0411 115.696 41.9954C104.055 46.2948 93.0674 52.4182 82.7341 59.193C72.4009 65.9678 61.9369 72.7426 52.9117 81.0809C44.2789 88.8979 36.5616 98.539 33.9456 110.004C32.6376 115.997 33.1608 123.033 37.7388 127.593Z" fill="#46825B"/>
<path d="M37.6081 127.592C29.6293 120.036 32.7685 107.528 37.2157 98.7991C42.5785 88.246 51.3421 79.7775 60.629 72.4816C70.5698 64.6645 81.2954 57.7594 92.2826 51.636C102.877 45.7731 113.995 41.2132 125.767 38.0863C129.561 37.0441 133.485 36.1321 137.409 35.7412C139.24 35.6109 141.071 35.4806 142.902 35.8715C143.687 36.0018 145.518 36.2623 146.042 36.9138C145.126 35.8715 142.118 35.7412 140.94 35.6109C138.063 35.4806 135.185 36.0018 132.438 36.6532C126.814 37.956 121.451 39.3892 116.088 41.2132C104.185 45.252 93.0674 51.1148 82.4726 57.8896C72.0086 64.5342 61.4138 71.4393 52.3885 80.0381C43.8865 87.9855 36.0385 97.8871 33.5533 109.482C32.2453 115.736 32.7685 122.902 37.6081 127.592Z" fill="#46825B"/>
<path d="M37.3459 127.722C29.3671 119.905 32.2447 107.658 36.5611 98.7988C41.6623 87.9851 50.4259 79.2561 59.5819 71.8298C69.1303 64.143 79.7252 57.3682 90.5816 51.5054C100.784 45.9031 111.51 41.6037 122.758 38.6072C126.813 37.5649 131.13 36.5226 135.315 36.0015C138.847 35.4803 142.771 35.35 146.041 37.174C141.986 34.6986 136.623 35.6106 132.307 36.5226C126.813 37.5649 121.32 38.998 115.957 40.822C104.446 44.6003 93.4592 49.9419 83.126 56.3259C72.4003 62.8402 61.8055 69.8755 52.6495 78.4743C43.8859 86.552 36.2995 96.4537 33.4219 108.179C31.7215 114.954 32.2447 122.511 37.3459 127.722Z" fill="#46825B"/>
<path d="M37.2161 127.722C29.368 120.035 31.5917 108.31 35.6465 99.3202C40.4861 88.2459 48.8573 78.9957 58.0133 71.4392C67.5617 63.4918 78.2874 56.717 89.1438 50.9844C99.6078 45.3822 110.464 41.2131 121.844 38.3468C126.16 37.1742 130.738 36.2622 135.185 35.7411C138.979 35.2199 142.641 35.3502 146.042 37.0439C141.464 35.0897 136.886 35.4805 132.046 36.3925C126.553 37.3045 121.059 38.6074 115.565 40.3011C104.055 43.8188 93.1986 48.8999 82.8654 55.0233C62.5913 67.0095 39.7013 82.9043 33.1613 106.877C31.3301 114.173 31.5917 122.12 37.2161 127.722Z" fill="#46825B"/>
<path d="M37.0844 127.853C28.9748 120.036 30.9368 108.571 34.8608 99.1906C39.5696 87.9861 47.81 78.4753 56.9661 70.6581C66.5145 62.5805 77.3709 55.8057 88.4889 50.0731C98.953 44.6012 110.071 40.5623 121.581 37.8263C129.168 36.0024 138.716 33.2664 146.172 36.9143C141.463 34.9601 137.016 35.0904 132.045 36.0024C126.421 36.9143 120.797 38.2172 115.303 39.7806C103.662 43.168 92.5437 48.1189 82.0797 54.112C61.2825 65.9679 38.7848 82.3838 32.6372 106.747C31.5908 111.046 30.9368 115.346 32.2448 119.645C33.2912 122.772 34.8608 125.638 37.0844 127.853Z" fill="#46825B"/>
<path d="M36.954 127.852C33.684 124.725 31.3295 120.035 30.9371 115.475C30.4139 109.873 32.376 103.749 34.4688 98.5378C39.0468 87.3333 47.0256 77.6922 56.0508 69.7449C65.3376 61.5369 76.0633 55.0227 87.1813 49.5507C98.2993 44.0787 109.941 39.9096 122.105 37.3039C129.561 35.7405 139.109 33.1348 146.172 36.913C141.856 34.6982 137.278 34.9588 132.569 35.6102C126.945 36.3919 121.32 37.5645 115.827 38.9976C103.793 42.1244 92.1517 47.0753 81.2953 53.1987C60.3672 64.9243 38.3928 81.6008 32.376 105.964C31.3295 110.003 30.5447 114.433 31.7219 118.471C32.5068 121.989 34.338 125.377 36.954 127.852Z" fill="#46825B"/>
<path d="M38.0008 127.069C30.4143 119.773 34.9923 106.484 39.7012 98.9277C46.1104 88.6351 56.3128 80.818 66.2536 74.0432C76.7176 66.8776 87.0509 59.1907 97.7765 52.5462C107.979 46.1622 118.966 41.2114 130.477 37.6937C134.924 36.3909 141.464 34.176 145.911 36.6514C141.987 34.5669 136.624 36.1303 132.569 37.3029C126.814 38.9966 121.19 41.2114 115.696 43.4263C104.186 48.1165 93.7217 55.2822 83.6501 62.4479C73.3168 69.8741 62.4604 76.5186 52.7812 84.7266C44.0176 92.2831 36.1695 101.794 34.4691 113.52C33.9459 118.34 34.4691 123.552 38.0008 127.069Z" fill="#46825B"/>
<path d="M37.8691 127.068C30.4135 119.903 34.3375 107.135 38.7847 99.3176C44.6708 89.1554 54.0884 81.3383 63.506 74.4332C73.4468 67.1373 83.6492 60.1019 94.1133 53.5876C104.316 47.3339 115.172 42.2528 126.813 38.6048C132.438 36.7809 140.286 33.9146 145.91 36.6506C141.986 34.566 136.493 35.9992 132.438 37.0414C127.075 38.4746 121.843 40.2986 116.742 42.3831C105.362 46.9431 94.8981 53.3271 84.8264 60.2322C74.7548 67.1373 64.4216 73.7818 55.004 81.5989C46.1096 89.0251 37.7383 98.1451 34.7299 109.61C33.2911 115.473 33.2911 122.639 37.8691 127.068Z" fill="#46825B"/>
<path d="M37.739 127.2C30.1525 119.904 33.6842 107.266 38.1314 99.3186C43.7558 89.1564 52.6502 81.0787 61.937 74.1736C71.8778 66.7474 82.2111 59.712 92.8059 53.328C103.27 46.9441 114.257 41.9933 126.029 38.4756C132.046 36.6516 139.894 33.7853 145.911 36.6516C141.464 34.567 136.101 35.8699 131.654 37.0424C126.291 38.4756 120.928 40.1693 115.827 42.1235C104.316 46.5532 93.5907 52.8069 83.3883 59.712C73.1858 66.4868 62.8526 73.2616 53.5658 81.3393C44.6714 89.1564 36.8234 98.5369 34.0766 110.263C32.8994 115.995 33.2918 122.77 37.739 127.2Z" fill="#46825B"/>
<path d="M37.4766 127.2C29.6286 119.644 33.1602 106.876 37.6074 98.5377C43.101 88.2452 52.1263 79.9069 61.2823 72.8716C80.7715 58.1494 102.092 44.8603 125.767 38.0855C132.045 36.2615 139.632 33.7861 145.91 36.6523C141.332 34.6981 136.231 35.7404 131.522 36.7826C126.159 38.0855 120.796 39.7792 115.564 41.6032C103.923 45.9026 92.936 52.026 82.6027 58.8008C72.2695 65.5756 61.8055 72.4807 52.6495 80.8189C44.1475 88.636 36.2994 98.2771 33.6834 109.742C32.3754 115.735 32.8986 122.771 37.4766 127.2Z" fill="#46825B"/>
<path d="M37.3463 127.331C29.4983 119.644 32.6375 107.137 37.0847 98.5381C42.4475 87.9851 51.2111 79.5165 60.4979 72.2206C70.4388 64.4035 81.1644 57.4984 92.1516 51.375C102.746 45.5122 113.864 40.9522 125.636 37.8253C129.43 36.7831 133.354 35.8711 137.278 35.4802C139.109 35.3499 140.94 35.2196 142.771 35.6105C143.556 35.7408 145.387 36.0014 145.911 36.6528C144.995 35.6105 141.987 35.4802 140.809 35.3499C137.932 35.2196 135.054 35.7408 132.307 36.3922C126.814 37.5648 121.32 39.1282 116.088 40.9522C104.185 44.991 93.0672 50.8538 82.4724 57.6287C72.0084 64.2732 61.4135 71.1783 52.3883 79.7771C43.7555 87.5942 35.9075 97.4959 33.4223 109.091C31.9835 115.475 32.5067 122.511 37.3463 127.331Z" fill="#46825B"/>
<path d="M37.215 127.329C29.2362 119.512 32.1138 107.265 36.2994 98.4056C41.4006 87.592 50.1643 78.8629 59.3203 71.4366C68.8687 63.7498 79.4635 56.975 90.32 51.1122C100.522 45.5099 111.248 41.2105 122.497 38.214C126.552 37.1717 130.868 36.1294 135.054 35.6083C138.585 35.0871 142.509 34.9569 145.779 36.7808C141.724 34.4357 136.231 35.478 131.914 36.2597C126.552 37.302 121.058 38.6048 115.695 40.4288C104.185 44.2071 93.1976 49.5488 82.8643 55.9327C72.1387 62.447 61.5439 69.4824 52.3879 78.0812C43.755 86.1588 36.0378 96.1908 33.1602 107.786C31.4598 114.561 31.983 122.248 37.215 127.329Z" fill="#46825B"/>
<path d="M37.0842 127.461C29.1054 119.774 31.4598 108.048 35.3838 98.9283C40.2234 87.8541 48.5946 78.7341 57.8814 71.0473C67.4299 63.0999 78.1555 56.3251 89.0119 50.5926C99.3451 45.1206 110.202 40.8212 121.581 37.9549C126.028 36.7824 130.476 35.8704 134.923 35.3492C138.716 34.8281 142.378 34.9584 145.779 36.6521C141.201 34.6978 136.623 35.0887 131.784 36.0007C126.421 36.9127 120.796 38.2155 115.434 39.9092C103.923 43.4269 93.0667 48.508 82.7335 54.6314C62.4595 66.6176 39.5694 82.5124 33.0294 106.485C31.0674 113.781 31.329 121.728 37.0842 127.461Z" fill="#46825B"/>
<path d="M36.9532 127.461C28.8436 119.644 30.8056 108.178 34.7296 98.798C39.4384 87.5935 47.6788 78.0827 56.8348 70.2656C66.3833 62.1879 77.2397 55.4131 88.3577 49.6805C98.8217 44.2086 109.94 40.1697 121.45 37.4338C129.037 35.6098 138.585 32.8738 146.041 36.5218C141.332 34.4372 136.885 34.6978 131.914 35.6098C126.159 36.6521 120.665 37.8246 115.172 39.388C103.531 42.7754 92.4125 47.7263 81.9485 53.7194C61.1512 65.5753 38.6536 82.1215 32.506 106.485C31.4596 110.784 30.8056 115.084 32.1136 119.383C33.0292 122.38 34.5988 125.246 36.9532 127.461Z" fill="#46825B"/>
<path d="M36.8226 127.59C33.5526 124.463 31.1982 119.773 30.8058 115.213C30.2826 109.611 32.2446 103.487 34.3374 98.2759C38.9154 87.0714 46.8942 77.4303 55.9195 69.4829C65.2063 61.2749 75.9319 54.7607 87.0499 49.2887C98.1679 43.6865 109.809 39.6476 121.974 37.0419C129.429 35.4785 138.978 32.8728 146.041 36.6511C141.724 34.4362 137.146 34.6968 132.438 35.3482C126.813 36.1299 121.189 37.3025 115.695 38.7356C103.662 41.8625 92.0203 46.8133 81.1639 52.9367C60.2359 64.6624 38.2614 81.3388 32.2446 105.702C31.1982 109.741 30.4134 114.171 31.5906 118.209C32.3754 121.727 34.2066 125.115 36.8226 127.59Z" fill="#46825B"/>
</g>
</g>
<path opacity="0.3" d="M34.3371 114.952C36.2991 94.1067 60.4971 79.124 74.6235 69.4829C83.9104 63.0989 100.391 50.2007 118.18 43.1653C132.568 37.4328 141.593 35.0876 146.04 37.5631C144.863 36.6511 143.163 35.9996 141.07 35.3482C134.268 33.3939 109.547 40.1688 101.83 43.1653C94.2436 46.1619 85.48 49.8098 80.902 52.4155C69.1299 59.0601 34.3371 84.7262 33.029 113.389C32.7674 120.685 34.8603 125.375 37.9995 127.981C35.3835 125.505 33.6831 121.467 34.3371 114.952Z" fill="url(#paint7_radial_9002_27339)"/>
<path opacity="0.3" d="M141.07 35.3482C134.269 33.3939 109.547 40.1688 101.83 43.1653C94.2436 46.1619 85.48 49.8098 80.902 52.4155C79.2016 53.4578 76.8472 54.7607 74.362 56.5847C78.94 53.4578 84.3028 51.8944 90.4504 49.0281C94.5052 47.2041 103.007 44.0773 107.454 44.4682C110.201 44.7287 103.923 47.0739 99.868 49.2887C83.9104 57.4967 71.092 66.0955 57.0963 77.4303C54.2187 79.7754 50.1639 83.4234 47.6787 86.1593C40.4847 93.8462 39.8307 91.8919 43.4931 86.5502C37.8687 94.7582 33.8139 103.878 33.2907 113.389C32.7675 120.685 34.8603 125.375 37.9995 127.981C35.3835 125.505 33.8139 121.467 34.3371 114.952C36.2991 94.1067 60.4972 79.124 74.6236 69.4829C83.9104 63.0989 100.391 50.2007 118.18 43.1653C132.568 37.4328 141.593 35.0876 146.041 37.5631C144.863 36.6511 143.163 35.9996 141.07 35.3482Z" fill="url(#paint8_radial_9002_27339)"/>
<g opacity="0.2" style="mix-blend-mode:soft-light">
<path d="M103.531 43.2956C92.4125 46.8133 64.1597 60.1024 48.4636 80.5571C32.7676 101.142 43.7548 90.0679 49.6408 84.8565C55.5268 79.6451 72.9233 63.7504 86.0033 56.1938C98.9525 48.6373 134.792 33.6545 103.531 43.2956Z" fill="url(#paint9_radial_9002_27339)"/>
</g>
<path opacity="0.4" d="M143.686 49.4203L144.078 48.7689C144.209 48.5083 144.34 48.2478 144.47 48.1175L144.863 47.4661C144.994 47.2055 145.124 46.9449 145.255 46.6843C145.386 46.4238 145.517 46.1632 145.648 45.9026L146.04 45.1209C146.171 44.8604 146.302 44.5998 146.302 44.3392C146.432 44.0786 146.432 43.8181 146.563 43.5575C146.694 43.2969 146.694 43.0364 146.825 42.7758C146.956 42.5152 147.086 42.2547 147.086 41.9941C147.086 41.7335 147.086 41.4729 147.217 41.2124C147.217 41.0821 147.217 40.9518 147.217 40.8215C147.217 40.6912 147.217 40.561 147.217 40.4307V40.0398C147.086 39.9095 147.086 39.7792 146.956 39.649V39.5187C146.956 39.5187 146.956 39.3884 146.825 39.3884C146.825 39.2581 146.694 39.1278 146.694 38.9975L146.432 38.6067C146.302 38.4764 146.302 38.4764 146.171 38.3461C146.04 38.0855 145.778 37.9553 145.648 37.825C144.209 37.0433 142.508 36.913 140.939 36.913C139.238 37.0433 137.669 37.1735 136.099 37.5644C132.829 38.2158 129.69 39.2581 126.551 40.4307C124.981 40.9518 123.412 41.6032 121.842 42.1244C120.272 42.7758 118.703 43.2969 117.133 43.9484L114.779 44.8604L112.555 45.9026L111.378 46.4238L110.201 46.9449C109.416 47.3358 108.631 47.7266 107.977 47.9872C104.969 49.5506 102.091 51.114 99.2136 52.8077C96.336 54.5014 93.5891 56.3254 90.8423 58.1494C90.1883 58.6706 89.5343 59.0614 88.7495 59.5826C88.0955 60.1037 87.3107 60.4946 86.6567 61.0157C85.3487 61.9277 83.9099 62.97 82.6019 63.882C79.8551 65.8362 77.2391 67.7905 74.4923 69.7448C71.7455 71.6991 68.9987 73.523 66.2519 75.4773C63.5051 77.4316 60.8891 79.3859 58.1423 81.3401C55.5263 83.4247 53.0411 85.5093 50.5559 87.7241C48.0706 89.939 45.847 92.2841 43.6234 94.8898C41.5306 97.3652 39.5686 100.101 37.999 103.098C37.2142 104.531 36.5602 106.094 35.9062 107.527L35.5138 108.7L35.383 109.221L35.2522 109.873L34.9906 111.045C34.8598 111.436 34.8598 111.827 34.729 112.218C34.075 115.475 33.8134 118.862 34.5982 121.989C34.8598 122.771 34.9906 123.552 35.383 124.334C35.9062 125.246 36.2986 125.898 36.691 126.549C36.9526 126.94 37.2142 127.2 37.4758 127.461C37.6066 127.591 37.7374 127.722 37.8682 127.852L38.3914 128.243C39.0454 128.764 39.6994 129.155 40.4842 129.546V129.676C39.6994 129.285 39.0454 128.894 38.2606 128.373L37.7374 127.982C37.6066 127.852 37.4758 127.722 37.2142 127.591C36.9526 127.331 36.691 126.94 36.4294 126.679C35.9062 126.028 35.5138 125.246 35.1214 124.464C34.729 123.683 34.4674 122.901 34.2058 122.119C33.8134 120.426 33.6826 118.862 33.6826 117.169C33.6826 116.778 33.6826 116.257 33.6826 115.866C33.6826 115.475 33.6826 115.084 33.8134 114.563C33.9442 113.781 33.9442 112.869 34.2058 112.087C34.3366 111.697 34.3366 111.306 34.4674 110.785L34.729 109.612L34.8598 108.961L34.9906 108.309L35.383 107.137C36.037 105.573 36.5602 104.01 37.345 102.577C38.1298 101.013 39.0454 99.58 39.961 98.2772L40.7458 97.2349L41.1382 96.7138L41.5306 96.1926L42.3154 95.1504C42.577 94.7595 42.8386 94.4989 43.1002 94.2384C44.1466 92.9355 45.3238 91.6327 46.501 90.4601C47.6782 89.2875 48.8554 88.115 50.0327 86.9424C52.5179 84.7276 55.1339 82.5127 57.7499 80.5584C60.3659 78.4739 63.1127 76.5196 65.8595 74.6956C68.6063 72.8716 71.3531 71.0476 74.2307 69.0934C76.9775 67.2694 79.7243 65.3151 82.4711 63.3608L86.5259 60.4945C87.1799 59.9734 87.9647 59.5826 88.6187 59.0614C89.2727 58.5403 90.0575 58.1494 90.7115 57.6283L92.8043 56.1951L94.8971 54.8923C95.5512 54.3712 96.336 53.9803 96.99 53.5894C97.644 53.1986 98.4288 52.6775 99.0828 52.2866C101.96 50.5929 104.838 48.8992 107.716 47.3358C108.5 46.9449 109.154 46.5541 109.939 46.1632L111.116 45.6421L112.294 45.1209L114.517 44.0786L116.872 43.0364C117.264 42.9061 117.656 42.7758 118.049 42.5152L119.226 41.9941C120.011 41.7335 120.796 41.3427 121.58 41.0821C123.15 40.4307 124.72 39.9095 126.289 39.3884C129.428 38.3461 132.698 37.3038 135.968 36.6524C137.669 36.2615 139.238 36.001 140.939 36.001C141.854 36.001 142.639 36.001 143.424 36.2615C144.209 36.3918 145.124 36.6524 145.909 37.0433C146.171 37.3038 146.302 37.4341 146.563 37.6947C146.694 37.825 146.825 37.9553 146.825 38.0855L147.086 38.737C147.217 38.8672 147.217 38.9975 147.217 39.1278C147.217 39.2581 147.217 39.2581 147.348 39.3884V39.649C147.348 39.7792 147.479 39.9095 147.479 40.0398V40.4307C147.479 40.561 147.479 40.6912 147.479 40.8215C147.479 40.9518 147.479 41.0821 147.479 41.2124C147.479 41.4729 147.479 41.7335 147.348 41.9941C147.217 42.2547 147.217 42.5152 147.086 42.7758C146.956 43.0364 146.956 43.2969 146.825 43.5575C146.694 43.8181 146.563 44.0786 146.563 44.3392C146.432 44.5998 146.302 44.8604 146.171 45.1209L145.778 45.9026C145.778 46.1632 145.648 46.4238 145.517 46.6843C145.386 46.9449 145.255 47.2055 145.124 47.3358L144.732 47.9872C144.601 48.2478 144.47 48.5083 144.34 48.6386L143.686 49.4203Z" fill="url(#paint10_radial_9002_27339)"/>
<g opacity="0.4" style="mix-blend-mode:soft-light">
<path d="M135.707 50.4618C122.235 63.2297 106.931 70.3954 93.5896 84.857C80.248 99.1884 76.5856 102.055 63.3747 109.09C50.0331 116.125 41.6619 130.196 52.9107 125.376C64.1595 120.555 91.366 96.7129 105.492 84.857C119.619 73.0011 139.893 52.4161 143.032 47.4652C146.171 42.3841 141.593 44.8595 135.707 50.4618Z" fill="url(#paint11_radial_9002_27339)"/>
</g>
<path d="M152.712 46.0322C160.952 44.078 166.707 54.8916 166.838 61.7967C166.969 68.7018 168.015 75.2161 159.383 107.787C150.75 140.489 144.471 145.961 131.653 154.95C118.965 163.94 95.8137 170.454 81.2949 158.468C66.9068 146.482 68.3456 126.809 84.5649 108.96C100.915 90.9806 107.847 84.9874 115.434 76.6492C123.02 68.311 134.661 57.7579 141.855 52.4162C149.049 47.0745 150.881 46.4231 152.712 46.0322Z" fill="url(#paint12_radial_9002_27339)"/>
<g opacity="0.4" style="mix-blend-mode:soft-light">
<path d="M154.935 47.0754C150.618 49.16 149.964 53.3291 147.218 59.3222C143.424 67.3999 135.446 77.3015 122.104 90.4603C98.8215 113.26 86.1339 112.478 81.0327 128.113C75.9315 143.747 85.2183 155.082 95.8131 158.078C106.408 161.075 137.408 152.215 142.378 135.278C147.479 118.341 156.635 100.883 160.167 88.506C165.791 68.9633 163.437 43.0366 154.935 47.0754Z" fill="url(#paint13_radial_9002_27339)"/>
</g>
<g opacity="0.4" style="mix-blend-mode:soft-light">
<path d="M118.704 77.3004C112.425 83.1633 105.101 91.8923 99.2146 97.6249C93.3285 103.097 81.6873 116.907 78.8097 130.978C75.9321 145.049 87.0501 158.598 103.4 157.426C119.75 156.253 133.092 150.911 139.632 132.672C146.172 114.432 148.134 111.305 151.535 104.53C154.935 97.7552 160.298 90.4592 154.02 78.6033C147.872 66.8776 118.704 77.3004 118.704 77.3004Z" fill="url(#paint14_radial_9002_27339)"/>
</g>
<path opacity="0.5" d="M83.2569 124.203C79.3329 139.056 86.1345 144.137 93.5901 150.13C103.269 157.817 124.59 147.524 132.699 139.056C140.809 130.587 141.071 117.819 147.218 108.178C154.02 97.4949 160.952 82.5121 147.218 73.783C136.754 67.1385 121.712 79.255 114.257 85.3784C102.354 95.1497 87.3117 108.699 83.2569 124.203Z" fill="url(#paint15_radial_9002_27339)"/>
<path opacity="0.5" d="M140.285 123.943C143.294 117.95 144.079 108.179 149.18 101.925C155.981 93.7172 157.682 80.4281 146.956 73.6533C132.176 64.2728 115.564 85.7698 107.324 95.4109C104.969 98.2772 102.484 101.143 100.13 103.879C93.8512 111.306 86.9188 118.341 85.3492 128.503C83.518 139.708 93.0664 148.307 103.792 148.437C123.804 148.697 132.83 139.187 140.285 123.943Z" fill="url(#paint16_radial_9002_27339)"/>
<path d="M166.838 61.7967C166.708 54.8916 160.952 44.078 152.712 46.0322C150.881 46.4231 149.049 47.2048 141.855 52.5465C134.661 57.8882 123.02 68.4413 115.434 76.7795C107.847 84.9874 100.915 90.9806 84.6957 108.96C68.4765 126.809 67.0377 146.482 81.4257 158.468C95.8137 170.454 118.965 163.94 131.784 154.95C144.471 145.961 150.881 140.489 159.513 107.787C168.016 75.0858 167.1 68.7018 166.838 61.7967ZM161.737 90.72C156.897 112.999 150.096 142.183 130.214 153.517C110.463 164.982 95.1597 167.849 83.9109 158.338C72.6621 148.957 66.6453 132.672 84.6957 111.566C102.746 90.72 107.847 86.0297 121.451 73.1315C135.054 60.2333 141.986 50.5922 152.973 47.2048C157.813 45.7717 161.606 49.8105 163.176 54.7613C164.615 59.5819 166.708 68.4413 161.737 90.72Z" fill="url(#paint17_radial_9002_27339)"/>
<path d="M166.838 61.7967C166.708 54.8916 160.952 44.078 152.712 46.0322C150.881 46.4231 149.049 47.2048 141.855 52.5465C134.661 57.8882 123.02 68.4413 115.434 76.7795C107.847 84.9874 100.915 90.9806 84.6957 108.96C68.4765 126.809 67.0377 146.482 81.4257 158.468C95.8137 170.454 118.965 163.94 131.784 154.95C144.471 145.961 150.881 140.489 159.513 107.787C168.016 75.0858 167.1 68.7018 166.838 61.7967ZM163.045 89.808C158.205 112.087 151.011 143.225 131.261 154.69C111.51 166.155 93.4593 167.458 82.0797 158.077C70.8309 148.697 65.9913 129.545 85.2189 109.481C103.923 89.9383 106.409 85.248 120.012 72.3498C133.615 59.4516 141.725 50.0711 152.712 46.6837C157.551 45.2505 162.391 49.2894 163.83 54.1099C165.269 59.0607 168.016 67.399 163.045 89.808Z" fill="url(#paint18_radial_9002_27339)"/>
<path d="M151.534 95.1488C147.61 100.881 144.34 105.702 143.294 111.695C142.378 117.688 139.501 127.85 133.615 134.625C127.729 141.4 120.404 143.615 112.294 142.573C104.185 141.53 110.201 133.062 120.535 122.118C130.868 111.174 129.822 109.22 135.054 101.924C140.286 94.6277 147.218 87.9832 150.619 89.6769C154.15 91.2403 151.534 95.1488 151.534 95.1488Z" fill="url(#paint19_radial_9002_27339)"/>
<path d="M154.935 82.381C154.674 80.2964 154.412 78.3421 153.758 76.3879C153.366 75.4759 152.973 74.5639 152.319 73.6519V73.5216C151.665 72.2187 149.965 71.1765 148.526 71.6976C145.649 73.0004 143.817 77.2999 141.725 79.5147C140.155 81.2084 138.455 82.6415 136.754 83.9444C133.353 86.5501 129.299 88.6346 125.636 90.8495C118.181 95.2792 111.248 100.491 104.839 106.223C102.354 108.308 99.9993 110.653 97.6449 112.868C95.4213 115.213 93.1977 117.558 91.3665 120.164C90.5817 121.336 89.7969 122.639 89.1429 124.072C88.4889 125.505 87.7041 126.808 87.5733 128.372C87.4425 129.805 87.9657 130.847 88.7505 131.889C89.1429 132.41 89.6661 132.932 89.9277 133.583C90.3201 134.234 90.0585 134.756 90.3201 135.277C90.3201 135.407 90.4509 135.407 90.4509 135.407C90.4509 135.537 90.4509 135.798 90.4509 135.928C90.4509 136.58 90.7125 137.101 91.3665 137.361C92.1513 137.622 92.9361 137.492 93.4593 138.273C93.8517 138.925 93.9825 139.706 94.2441 140.358C94.6365 141.661 95.5521 142.182 96.8601 142.051C98.0373 141.921 99.0837 142.312 99.9993 142.833C100.915 143.224 101.569 143.485 102.615 143.485C103.531 143.485 104.446 143.094 105.493 143.224C106.408 143.224 107.324 143.875 108.24 143.875C109.155 143.875 109.94 143.485 110.856 143.224C112.033 142.963 113.21 143.224 114.257 143.354C115.041 143.485 115.957 143.485 116.742 143.224C117.134 143.094 117.527 142.833 117.919 142.703C118.573 142.442 119.227 142.573 119.881 142.573C121.451 142.703 122.759 142.833 123.936 141.661C124.328 141.27 124.721 140.618 125.113 140.227C125.767 139.446 126.421 138.925 127.467 138.794C128.252 138.664 128.906 138.534 129.429 137.882C129.953 137.361 130.214 136.319 130.607 135.668C131.13 134.756 131.915 134.365 132.699 133.844C133.484 133.322 133.877 132.671 134.138 131.759C134.4 130.847 134.792 130.065 135.577 129.544C136.231 129.023 136.623 128.502 136.885 127.72C137.277 126.157 136.885 124.463 138.324 123.29C139.239 122.639 140.286 121.988 140.286 120.815C140.286 119.773 139.893 118.861 139.893 117.818C139.893 116.646 140.547 115.864 140.809 114.822C141.201 113.128 140.024 111.304 140.809 109.611C141.071 108.959 141.725 108.308 142.117 107.787C142.64 107.135 143.033 106.353 143.425 105.702C144.471 104.139 145.91 103.096 147.349 102.054C148.788 101.012 149.965 99.8391 151.011 98.5363C152.189 97.1032 152.973 95.67 153.758 94.1066C153.758 94.1066 153.758 94.1066 153.758 93.9763C154.281 92.8038 154.674 91.5009 154.935 90.0678C155.328 87.5924 155.197 84.9867 154.935 82.381Z" fill="url(#paint20_radial_9002_27339)"/>
<path d="M154.935 82.381C154.674 80.2964 154.412 78.3421 153.758 76.3879C153.366 75.4759 152.973 74.5639 152.319 73.6519V73.5216C151.665 72.2187 149.965 71.1765 148.526 71.6976C145.649 73.0004 143.817 77.2999 141.725 79.5147C140.155 81.2084 138.455 82.6415 136.754 83.9444C133.353 86.5501 129.299 88.6346 125.636 90.8495C118.181 95.2792 111.248 100.491 104.839 106.223C102.354 108.308 99.9993 110.653 97.6449 112.868C95.4213 115.213 93.1977 117.558 91.3665 120.164C90.5817 121.336 89.7969 122.639 89.1429 124.072C88.4889 125.505 87.7041 126.808 87.5733 128.372C87.4425 129.805 87.9657 130.847 88.7505 131.889C89.1429 132.41 89.6661 132.932 89.9277 133.583C90.3201 134.234 90.0585 134.756 90.3201 135.277C90.3201 135.407 90.4509 135.407 90.4509 135.407C90.4509 135.537 90.4509 135.798 90.4509 135.928C90.4509 136.58 90.7125 137.101 91.3665 137.361C92.1513 137.622 92.9361 137.492 93.4593 138.273C93.8517 138.925 93.9825 139.706 94.2441 140.358C94.6365 141.661 95.5521 142.182 96.8601 142.051C98.0373 141.921 99.0837 142.312 99.9993 142.833C100.915 143.224 101.569 143.485 102.615 143.485C103.531 143.485 104.446 143.094 105.493 143.224C106.408 143.224 107.324 143.875 108.24 143.875C109.155 143.875 109.94 143.485 110.856 143.224C112.033 142.963 113.21 143.224 114.257 143.354C115.041 143.485 115.957 143.485 116.742 143.224C117.134 143.094 117.527 142.833 117.919 142.703C118.573 142.442 119.227 142.573 119.881 142.573C121.451 142.703 122.759 142.833 123.936 141.661C124.328 141.27 124.721 140.618 125.113 140.227C125.767 139.446 126.421 138.925 127.467 138.794C128.252 138.664 128.906 138.534 129.429 137.882C129.953 137.361 130.214 136.319 130.607 135.668C131.13 134.756 131.915 134.365 132.699 133.844C133.484 133.322 133.877 132.671 134.138 131.759C134.4 130.847 134.792 130.065 135.577 129.544C136.231 129.023 136.623 128.502 136.885 127.72C137.277 126.157 136.885 124.463 138.324 123.29C139.239 122.639 140.286 121.988 140.286 120.815C140.286 119.773 139.893 118.861 139.893 117.818C139.893 116.646 140.547 115.864 140.809 114.822C141.201 113.128 140.024 111.304 140.809 109.611C141.071 108.959 141.725 108.308 142.117 107.787C142.64 107.135 143.033 106.353 143.425 105.702C144.471 104.139 145.91 103.096 147.349 102.054C148.788 101.012 149.965 99.8391 151.011 98.5363C152.189 97.1032 152.973 95.67 153.758 94.1066C153.758 94.1066 153.758 94.1066 153.758 93.9763C154.281 92.8038 154.674 91.5009 154.935 90.0678C155.328 87.5924 155.197 84.9867 154.935 82.381ZM154.412 89.8072C153.758 94.1066 151.142 98.5363 147.611 101.272C146.826 101.924 145.91 102.445 145.125 103.096C143.556 104.269 142.771 105.963 141.725 107.526C141.332 108.177 140.809 108.699 140.417 109.35C140.024 110.001 139.893 110.783 140.024 111.565C140.155 112.477 140.417 113.258 140.417 114.17C140.417 115.082 139.763 115.994 139.501 116.906C139.109 118.73 140.547 120.815 138.978 122.248C138.585 122.639 138.062 122.9 137.67 123.29C137.147 123.812 136.885 124.333 136.754 124.984C136.493 125.766 136.623 126.548 136.493 127.199C136.362 127.72 136.231 128.111 135.969 128.502C135.708 128.893 135.315 129.153 134.923 129.544C134.4 130.065 134.007 130.717 133.746 131.498C133.615 132.02 133.484 132.41 133.092 132.932C132.83 133.322 132.176 133.713 131.784 133.974C131.13 134.365 130.607 134.886 130.214 135.537C129.691 136.319 129.429 137.492 128.775 138.013C127.991 138.664 126.813 138.403 126.029 138.925C125.505 139.315 124.982 139.706 124.59 140.358C124.197 140.879 123.805 141.4 123.413 141.791C122.628 142.573 121.712 142.703 120.666 142.573C119.881 142.442 118.965 142.312 118.181 142.442C117.134 142.703 116.349 143.224 115.172 143.354C114.257 143.354 113.21 143.094 112.295 142.963C111.248 142.963 110.463 143.224 109.417 143.485C108.24 143.875 107.324 143.615 106.147 143.224C105.362 142.963 104.446 143.094 103.531 143.224C102.484 143.354 101.569 143.485 100.522 142.963C99.6069 142.573 98.8221 142.051 97.7757 141.921C96.4677 141.791 95.2905 142.312 94.6365 140.879C94.2441 139.967 94.1133 139.055 93.5901 138.273C93.3285 137.882 92.9361 137.752 92.5437 137.622C91.8897 137.361 91.1049 137.622 90.7125 136.97C90.4509 136.449 90.7125 135.798 90.5817 135.277C90.5817 135.146 90.5817 135.146 90.4509 135.016C90.4509 134.886 90.4509 134.756 90.4509 134.625C90.3201 134.234 90.1893 133.974 90.0585 133.713C89.6661 132.932 89.0121 132.28 88.4889 131.629C87.1809 129.674 88.0965 127.329 89.0121 125.505C89.9277 123.681 90.9741 121.857 92.1513 120.164C93.3285 118.47 94.7673 116.906 96.0753 115.473C101.961 109.22 108.763 103.748 115.565 98.5363C120.797 94.6278 126.421 91.3706 131.915 88.1135C134.661 86.4198 137.277 84.5958 139.763 82.5113C140.809 81.469 141.855 80.4267 142.902 79.3844C144.21 77.821 147.349 71.3067 150.096 72.8702C153.497 74.8244 154.02 79.7753 154.281 83.293C154.674 84.9867 154.805 87.4621 154.412 89.8072Z" fill="url(#paint21_radial_9002_27339)"/>
<path d="M96.9906 138.012C101.438 139.575 109.547 141.79 115.041 140.227C120.535 138.663 123.935 138.403 128.252 134.234C132.438 130.064 134.138 126.026 135.446 123.68C136.885 121.466 136.623 119.251 137.67 116.645C138.716 114.039 140.286 107.655 141.855 104.919C143.425 102.183 145.91 89.9367 127.729 109.74C109.678 129.413 86.919 134.624 96.9906 138.012Z" fill="url(#paint22_radial_9002_27339)"/>
<path d="M148.265 95.4099C148.265 94.8887 148.003 94.3676 147.218 94.107C146.303 93.7162 145.387 93.4556 144.471 93.195C143.425 92.8042 142.379 92.5436 141.463 92.283C137.277 91.371 133.092 92.283 128.906 93.195C120.535 94.8887 112.949 98.667 105.755 103.097C101.7 105.572 97.7758 108.438 94.1133 111.305C92.2821 112.738 90.5817 114.301 88.8813 115.865C88.0965 116.646 87.1809 117.558 86.5269 118.47C86.3961 118.731 86.1345 118.861 86.0037 119.122C85.4805 119.903 85.2189 120.815 85.4805 121.858C85.6113 122.639 85.8729 123.291 86.0037 124.073C86.1345 125.245 85.8729 126.287 85.0881 127.199C84.3033 128.242 84.0417 129.154 85.0881 130.066C85.6113 130.587 86.3961 130.717 86.9193 131.238C87.3117 131.629 87.4425 132.281 87.5733 132.802C87.8349 133.974 88.2273 135.277 89.5353 135.668C90.0585 135.798 90.7125 135.798 91.2357 135.798C91.8897 135.798 92.8053 135.668 93.1977 136.45C93.5901 137.362 93.4593 138.404 94.3749 138.925C95.0289 139.316 95.8137 138.925 96.4677 138.925C97.2525 139.055 97.6449 139.967 98.1681 140.228C98.6913 140.488 99.2146 140.619 99.7378 140.358C100.523 140.098 101.177 139.576 101.831 140.098C102.877 140.879 103.793 141.01 104.97 140.358C105.231 140.228 105.493 140.098 105.885 139.967C106.147 139.967 106.409 140.098 106.67 139.967C107.193 139.707 107.455 139.576 108.109 139.707C108.501 139.837 108.894 139.837 109.417 139.837C110.071 139.837 110.594 139.446 111.117 139.055C111.902 138.404 112.425 138.013 113.472 138.404C113.995 138.534 114.518 138.795 115.172 138.795C115.826 138.795 116.611 138.274 117.134 137.883C117.919 137.362 118.573 136.971 119.619 137.101C120.404 137.231 121.189 137.362 121.843 136.971C123.413 136.189 123.282 133.844 125.244 133.583C126.029 133.453 126.683 133.453 127.467 133.062C128.121 132.671 128.383 131.89 128.514 131.238C128.645 130.457 128.383 129.545 128.775 128.763C129.037 127.981 130.083 127.981 130.737 127.721C131.261 127.46 131.784 127.199 132.045 126.548C132.307 125.897 132.045 125.245 132.176 124.594C132.438 123.942 133.092 123.682 133.615 123.161C134.007 122.639 134.269 122.118 134.138 121.467C134.138 120.425 134.007 119.773 135.054 119.252C135.577 118.991 136.1 118.991 136.493 118.601C137.408 117.689 136.493 116.255 137.277 115.343C137.801 114.822 138.324 114.562 138.585 113.91C138.847 113.389 138.716 112.868 138.716 112.347C138.716 111.435 139.239 110.914 139.763 110.393C140.417 109.741 140.809 109.09 141.071 108.308C141.332 107.396 141.594 106.484 141.986 105.572C142.509 104.53 143.163 103.618 143.687 102.706C144.995 100.621 146.303 98.5367 147.611 96.4522C147.611 96.4522 147.741 96.4522 147.741 96.3219C147.872 96.0613 148.003 95.8007 148.134 95.5402L148.265 95.4099C148.395 95.5402 148.395 95.4099 148.265 95.4099Z" fill="url(#paint23_radial_9002_27339)"/>
<path opacity="0.4" d="M148.264 95.4099C148.264 94.8887 148.003 94.3676 147.218 94.107C146.302 93.7162 145.387 93.4556 144.471 93.195C143.425 92.8042 142.378 92.5436 141.463 92.283C137.277 91.371 133.091 92.283 128.906 93.195C120.534 94.8887 112.948 98.667 105.754 103.097C101.699 105.572 97.7752 108.438 94.1128 111.305C92.2816 112.738 90.5812 114.301 88.8808 115.865C88.096 116.646 87.1804 117.558 86.5264 118.47C86.3956 118.731 86.134 118.861 86.0032 119.122C85.48 119.903 85.2184 120.815 85.48 121.858C85.6108 122.639 85.8724 123.291 86.0032 124.073C86.134 125.245 85.8724 126.287 85.0876 127.199C84.6952 127.59 84.4336 128.111 84.4336 128.502C84.5644 128.111 84.826 127.851 85.3492 127.59C85.48 127.46 85.6108 127.46 85.7416 127.59C86.5264 128.111 86.6572 129.154 87.3112 129.675C87.9652 130.196 88.6192 130.717 89.0116 131.369C89.6656 132.541 90.058 133.844 91.6276 133.844C92.5432 133.844 93.4588 133.974 94.2436 134.235C96.2056 135.017 97.5136 137.752 99.7372 137.752C101.176 137.752 102.484 137.101 103.792 136.71C104.969 136.45 106.146 136.189 107.324 136.059C108.762 135.929 110.07 136.059 111.509 136.189C112.948 136.319 114.648 136.58 115.956 135.668C117.003 135.017 117.788 133.974 118.834 133.453C120.142 132.932 121.581 132.541 122.889 131.759C125.243 130.457 125.897 127.981 127.728 126.157C129.429 124.463 130.083 122.249 131.652 120.425C135.838 116.255 138.716 109.35 140.285 108.178C140.024 109.22 139.37 110.002 138.716 111.044C137.931 112.217 138.193 113.259 137.539 114.431C137.277 115.083 136.361 115.083 135.969 115.734C135.446 116.516 136.231 117.298 135.838 118.079C135.315 118.861 134.269 118.861 133.614 119.513C132.83 120.425 133.091 121.858 132.437 122.77C131.653 123.812 130.998 124.594 130.606 125.766C130.344 126.418 129.952 126.678 129.429 127.069C128.906 127.46 128.121 127.851 127.728 128.502C127.467 129.154 127.336 129.805 127.205 130.457C126.551 132.541 124.458 132.671 123.15 134.235C122.366 135.147 122.496 136.71 120.273 137.231C120.665 137.231 121.188 137.231 121.581 136.971C123.15 136.189 123.02 133.844 124.982 133.583C125.766 133.453 126.42 133.453 127.205 133.062C127.859 132.671 128.121 131.89 128.252 131.238C128.382 130.457 128.121 129.545 128.513 128.763C128.775 127.981 129.821 127.981 130.475 127.721C130.999 127.46 131.522 127.199 131.783 126.548C132.045 125.897 131.783 125.245 131.914 124.594C132.176 123.942 132.83 123.682 133.353 123.161C133.745 122.639 134.007 122.118 133.876 121.467C133.876 120.425 133.745 119.773 134.792 119.252C135.315 118.991 135.838 118.991 136.231 118.601C137.146 117.689 136.231 116.255 137.015 115.343C137.539 114.822 138.062 114.562 138.323 113.91C138.585 113.389 138.454 112.868 138.454 112.347C138.454 111.435 138.977 110.914 139.501 110.393C140.155 109.741 140.547 109.09 140.809 108.308C141.07 107.396 141.332 106.484 141.724 105.572C142.247 104.53 142.901 103.618 143.425 102.706C144.733 100.621 146.041 98.5367 147.349 96.4522C147.349 96.4522 147.479 96.4522 147.479 96.3219C147.61 96.0613 147.741 95.8007 147.872 95.5402L148.003 95.4099C148.395 95.5402 148.395 95.4099 148.264 95.4099Z" fill="url(#paint24_radial_9002_27339)"/>
<path d="M146.433 69.3524C140.94 65.965 130.868 67.9192 124.459 71.6975C117.919 75.4758 110.986 83.5534 105.624 91.3705C100.261 99.1876 92.8051 104.529 90.5815 110.001C89.7967 112.086 89.2735 112.998 87.7039 114.952C86.1343 116.906 84.4339 120.164 86.2651 122.509C88.0963 124.854 84.9571 127.59 88.2271 129.414C91.4971 131.238 88.8811 131.759 91.7587 133.062C94.6363 134.365 96.3367 134.755 98.5603 136.058C100.784 137.361 101.961 135.928 104.839 135.798C107.716 135.667 108.763 134.625 111.902 135.146C115.041 135.537 115.434 133.713 117.788 133.192C120.142 132.671 121.843 131.889 124.72 128.762C127.598 125.635 128.121 124.202 132.83 118.73C137.539 113.258 137.277 111.304 141.463 105.702C145.648 100.1 152.058 95.9305 153.104 87.462C154.15 78.8632 152.973 74.1729 150.357 71.0461C148.526 68.7009 146.433 69.3524 146.433 69.3524Z" fill="url(#paint25_radial_9002_27339)"/>
<g opacity="0.4" style="mix-blend-mode:soft-light">
<path d="M113.994 106.875C111.771 106.614 110.463 104.79 109.155 103.227C108.37 102.184 106.539 100.23 105.1 101.142C104.446 101.533 103.792 102.054 103.138 102.575C103.007 102.836 102.876 103.096 102.876 103.357C102.353 104.66 101.568 105.963 100.784 107.266C99.214 109.741 97.252 111.695 94.8976 113.519C93.5896 114.562 92.5432 115.995 92.1508 117.688C91.8892 118.731 93.0664 119.773 93.4588 120.555C94.2436 122.118 94.3744 124.593 95.6824 125.896C98.1676 128.111 101.83 123.16 103.4 121.857C106.016 119.382 109.155 118.079 111.248 115.474C112.163 114.431 112.556 112.998 113.471 111.956C114.648 110.653 116.218 110.132 117.395 109.09C119.619 107.005 120.796 104.139 121.319 101.142C119.75 104.008 117.395 107.266 113.994 106.875Z" fill="url(#paint26_radial_9002_27339)"/>
</g>
<g opacity="0.6" style="mix-blend-mode:soft-light">
<path d="M93.3282 118.861C94.113 119.512 94.8978 119.903 95.6826 120.424C96.8598 121.336 97.7754 121.727 99.2142 120.945C100.13 120.424 101.045 119.773 102.092 119.252C102.877 118.861 103.792 118.6 104.577 118.21C106.801 117.037 107.193 114.562 108.501 112.738C109.417 111.435 110.986 110.262 111.509 108.568C111.64 108.047 111.771 106.744 110.725 106.875C110.201 106.875 109.809 107.005 109.286 106.875C108.501 106.744 107.716 106.354 107.193 105.963C106.016 105.181 104.708 104.008 103.138 104.53C102.615 104.66 102.092 105.051 101.699 105.311C101.438 105.832 101.045 106.354 100.784 106.875C99.345 109.22 97.5138 111.044 95.2902 112.738C94.3746 114.431 91.3662 117.167 93.3282 118.861Z" fill="url(#paint27_radial_9002_27339)"/>
</g>
<g opacity="0.4" style="mix-blend-mode:soft-light">
<path d="M95.4209 111.825C100.13 108.568 107.978 101.272 110.594 107.265C112.948 113.127 103.138 117.687 100.522 121.726C96.9905 127.068 104.577 127.459 107.585 126.807C114.125 125.505 121.058 117.687 125.243 112.737C130.737 106.092 129.821 96.1905 135.838 88.8945C137.146 87.3311 138.323 85.6374 139.239 83.8134C141.201 80.1654 145.125 73.3906 139.239 75.0843C130.868 77.69 123.543 84.7254 121.581 90.4579C123.674 83.0317 128.775 79.3837 132.045 75.0843C133.615 72.9997 141.593 69.0912 136.885 67.7883C132.568 68.1792 127.99 69.7426 124.459 71.8272C117.919 75.6054 110.986 83.6831 105.623 91.5002C100.653 98.7962 93.9821 103.877 91.2353 108.828C91.2353 108.568 90.1889 115.473 95.4209 111.825Z" fill="url(#paint28_radial_9002_27339)"/>
</g>
<g opacity="0.24" style="mix-blend-mode:soft-light">
<path d="M98.1679 101.403C97.6447 102.184 96.7291 102.706 96.2059 103.618C95.8135 104.139 95.8135 104.66 96.2059 105.181C98.0371 104.66 98.9527 103.227 100.13 101.663C101.7 99.5787 103.4 96.7124 106.147 96.1913C108.632 95.8004 109.286 99.0575 110.986 98.797C113.864 98.4061 114.649 94.3673 114.91 92.1524C115.303 89.4164 115.826 86.941 117.526 84.7262C119.488 82.1205 122.366 80.1662 124.72 77.9514C129.691 73.3914 126.421 71.3068 121.32 74.0428C114.78 77.5605 109.548 85.6382 105.493 91.501C103.792 93.8461 101.961 96.061 100.13 98.0152C99.6067 99.1878 98.9527 100.36 98.1679 101.403Z" fill="url(#paint29_radial_9002_27339)"/>
</g>
<g opacity="0.24" style="mix-blend-mode:soft-light">
<path d="M112.556 86.5489C113.21 85.7672 113.995 85.1158 114.78 84.3341C117.003 82.3798 123.412 77.1684 124.851 74.693C127.467 70.3936 122.628 73.3901 118.704 75.9958C116.349 77.6895 114.518 80.0347 112.687 82.2495C110.202 85.3763 107.586 89.4152 104.316 94.7568C104.054 99.0563 109.94 89.2849 112.556 86.5489Z" fill="url(#paint30_radial_9002_27339)"/>
</g>
<path opacity="0.5" d="M117.657 107.525C116.218 109.088 109.548 113.909 112.425 116.254C119.488 121.726 132.176 88.6336 134.4 85.2462C141.332 74.8234 132.83 77.8199 127.206 84.0736C121.974 90.0667 124.59 95.669 121.45 101.792C120.535 103.877 119.227 105.831 117.657 107.525Z" fill="url(#paint31_radial_9002_27339)"/>
<g opacity="0.2" style="mix-blend-mode:soft-light">
<path d="M123.805 100.75C125.898 101.792 129.691 90.9787 130.083 89.8062C130.476 88.6336 130.999 87.4611 131.653 86.2885C132.307 85.2462 133.092 84.0736 133.615 83.0314C134.007 82.2497 134.923 80.6862 134.269 79.7742C134.138 79.644 134.007 79.5137 133.876 79.5137C130.083 81.7285 127.336 85.5068 125.767 89.5456C124.982 91.7605 124.328 93.9753 123.936 96.1901C123.805 96.8416 122.889 100.359 123.805 100.75Z" fill="url(#paint32_radial_9002_27339)"/>
</g>
<path d="M150.357 70.9155C148.788 68.9612 146.956 69.2218 146.433 69.3521C148.788 71.6972 150.096 74.4332 150.357 77.9509C150.75 82.5108 149.703 90.8491 145.518 96.0605C141.332 101.272 137.408 107.786 134.53 112.476C131.653 117.167 129.168 123.29 120.142 129.023C111.117 134.885 99.4759 133.192 94.1131 130.195C88.6195 127.199 88.4887 121.336 90.1891 114.3C91.8895 107.265 98.2987 100.751 101.046 97.1028C101.307 96.7119 101.7 96.1908 102.223 95.5393C97.5139 101.142 92.2819 105.441 90.4507 109.871C89.6659 111.955 89.1427 112.867 87.5731 114.822C86.0035 116.776 84.3031 120.033 86.1343 122.378C87.9655 124.723 84.8263 127.459 88.0963 129.283C91.3663 131.107 88.7503 131.628 91.6279 132.931C94.5055 134.234 96.2059 134.625 98.4295 135.928C100.653 137.231 101.83 135.797 104.708 135.667C107.586 135.537 108.632 134.495 111.771 135.016C114.91 135.407 115.303 133.583 117.657 133.061C120.012 132.54 121.712 131.759 124.59 128.632C127.467 125.505 127.99 124.072 132.699 118.6C137.408 113.128 137.146 111.174 141.332 105.571C145.518 99.969 151.927 95.7999 152.973 87.3314C154.02 78.7326 152.973 74.0423 150.357 70.9155Z" fill="url(#paint33_radial_9002_27339)"/>
<g opacity="0.2" style="mix-blend-mode:soft-light">
<path d="M145.387 68.8317C143.948 68.1803 142.378 67.7895 140.547 67.6592C146.433 68.8317 137.931 69.3529 137.016 69.6135C132.568 70.9163 129.56 72.8706 126.552 75.2157C122.628 78.2123 118.834 83.1631 116.742 87.5928C114.91 91.371 112.294 109.22 118.05 100.361C118.442 99.3184 118.834 98.4064 119.227 97.3641C120.142 95.019 120.796 92.6739 121.712 90.3288C123.412 86.5505 126.159 83.4237 129.037 80.4271C130.999 78.3425 133.222 76.5186 135.577 74.8249C137.931 73.1311 140.809 71.4374 143.686 71.0466C146.041 70.786 147.48 71.9586 148.526 73.522C148.003 71.8283 146.956 70.0043 145.387 68.8317Z" fill="url(#paint34_radial_9002_27339)"/>
</g>
<g opacity="0.4" style="mix-blend-mode:soft-light">
<path d="M142.77 73C141.332 73.1303 139.893 73.2606 138.454 73.7817C137.015 74.3029 135.576 74.9543 134.268 75.736C131.522 77.2994 129.167 79.2537 127.074 81.5988C124.982 84.0742 123.412 86.8102 121.973 89.8068C120.404 92.9336 119.75 96.4513 118.703 99.8387C119.357 98.4056 119.75 96.8421 120.273 95.2787C120.796 93.585 121.319 92.0216 122.104 90.4582C123.412 87.5919 124.982 84.7256 127.074 82.3805C130.998 77.6903 136.623 74.3029 142.77 73.2606C142.901 73.1303 142.901 73 142.77 73Z" fill="url(#paint35_radial_9002_27339)"/>
</g>
<g opacity="0.24" style="mix-blend-mode:soft-light">
<path d="M94.5052 113.78C95.5516 113.91 94.636 114.952 96.3364 115.474C98.0368 115.995 100.13 115.343 102.615 113.519C105.1 111.695 105.231 110.392 106.016 108.438C107.324 105.572 107.585 104.009 106.67 102.966C106.539 102.836 106.408 102.836 106.277 102.706C104.708 101.924 102.353 103.618 99.9988 105.572C97.6444 107.526 97.6444 109.48 96.4672 110.392C95.5516 111.304 94.3744 112.086 94.1128 113.128C94.1128 113.519 94.2436 113.78 94.5052 113.78Z" fill="url(#paint36_linear_9002_27339)"/>
</g>
<g opacity="0.4" style="mix-blend-mode:soft-light">
<path d="M106.67 102.967C106.539 102.836 106.408 102.836 106.277 102.706C105.623 102.445 104.839 102.445 103.923 102.836C104.185 102.836 104.446 102.836 104.839 102.967C107.324 103.618 105.493 107.266 104.969 108.699C104.446 110.002 103.923 111.305 103.007 112.347C101.83 113.52 100.261 114.432 98.8218 115.213C98.1678 115.474 97.5138 115.604 96.729 115.735C98.4294 116.125 100.391 115.474 102.746 113.78C105.231 111.956 105.362 110.653 106.147 108.699C107.324 105.703 107.585 104.009 106.67 102.967Z" fill="url(#paint37_radial_9002_27339)"/>
</g>
<g opacity="0.24" style="mix-blend-mode:soft-light">
<path d="M110.332 107.916C110.332 107.916 109.155 107.655 108.762 106.483C108.37 105.44 107.978 103.877 106.67 102.965C107.454 104.007 107.193 105.701 106.016 108.437C105.1 110.391 104.969 111.694 102.615 113.518C99.9988 115.472 98.0368 116.124 96.3364 115.472C94.636 114.951 95.5516 113.909 94.5052 113.778C94.2436 113.778 94.1128 113.518 93.982 113.257C93.982 113.388 93.8512 113.648 93.8512 113.778C93.7204 115.212 93.5896 115.212 93.1972 115.993C92.8048 116.775 92.5432 118.469 94.3744 118.99C96.3364 119.511 96.4672 120.162 98.0368 120.162C99.6064 120.032 99.868 119.25 101.307 119.12C102.746 118.99 104.577 117.557 105.885 115.602C107.193 113.648 107.716 112.606 108.501 111.824C109.286 111.043 111.117 109.088 110.332 107.916Z" fill="url(#paint38_linear_9002_27339)"/>
</g>
<g opacity="0.24" style="mix-blend-mode:soft-light">
<path d="M149.442 76.5177C149.049 74.0423 147.611 71.6972 145.387 70.2641C144.079 69.3521 137.67 68.7006 141.071 70.7852C141.594 71.3063 142.64 72.088 142.902 72.7395C143.294 73.912 141.855 75.2149 141.201 75.9966C140.417 77.0389 140.155 77.9509 140.417 79.2537C141.855 85.5074 141.463 89.4159 138.062 95.1485C136.362 97.8845 134.923 100.881 134.661 104.008C134.531 104.79 134.4 105.962 135.315 106.483C135.708 106.744 136.231 106.092 136.493 105.832C137.931 104.268 138.978 102.054 139.893 100.23C140.417 99.3176 140.94 98.2753 141.463 97.3633C141.986 96.4513 142.64 95.5393 143.294 94.7576C145.518 92.1519 147.611 89.8068 148.657 86.5497C149.18 84.856 149.442 83.032 149.573 81.3383C149.573 79.7749 149.703 78.0812 149.442 76.5177Z" fill="url(#paint39_radial_9002_27339)"/>
</g>
<g opacity="0.24" style="mix-blend-mode:soft-light">
<path d="M149.441 76.5184C149.049 74.043 147.61 71.6979 145.387 70.2647C145.256 70.1344 144.994 70.0042 144.602 70.0042C144.079 70.395 144.34 71.1767 144.471 71.6979C144.733 73.0007 144.994 74.043 144.863 75.3458C144.733 76.5184 144.34 77.691 144.079 78.8635C143.425 81.5995 144.471 84.3355 143.948 87.0715C143.425 89.4166 142.378 91.5012 141.07 93.5857C140.155 95.0189 139.239 96.5823 138.585 98.1457C138.454 98.5366 136.885 102.445 138.193 102.315C138.454 102.315 138.716 102.185 138.977 102.054C139.239 101.533 139.501 101.012 139.762 100.491C140.285 99.5788 140.809 98.5366 141.332 97.6246C141.855 96.7126 142.509 95.8006 143.163 95.0189C145.387 92.4132 147.479 90.068 148.526 86.8109C149.049 85.1172 149.311 83.2932 149.441 81.5995C149.572 79.7755 149.703 78.0818 149.441 76.5184Z" fill="url(#paint40_radial_9002_27339)"/>
</g>
<g opacity="0.4">
<path opacity="0.6" d="M150.357 70.9146C148.526 68.6998 146.433 69.3512 146.433 69.3512C146.171 69.2209 145.779 68.9604 145.387 68.8301C146.825 70.0026 148.003 71.8266 148.657 73.6506C150.095 76.126 150.226 79.774 149.965 82.2494C149.572 85.5065 149.049 88.5031 147.872 91.4997C146.433 94.8871 143.163 97.8836 140.809 100.75C136.492 106.092 133.876 111.954 130.214 117.687C126.813 122.768 122.758 127.328 117.003 129.803C112.425 131.758 106.67 132.409 101.699 131.888C97.2521 131.497 92.0201 129.803 90.4505 125.113C88.0961 118.078 91.2353 110.782 95.1593 105.049C96.9905 102.313 99.3449 99.8379 101.176 96.9716C96.7289 102.053 92.1509 105.961 90.5813 110C89.7965 112.085 89.2733 112.997 87.7037 114.951C86.2649 116.775 84.6953 119.771 86.0033 122.117C84.9569 120.423 86.5265 115.863 88.3577 115.472C89.7965 115.342 88.2269 120.162 88.2269 121.595C88.2269 123.029 88.8809 124.201 89.4041 125.504C89.9273 127.067 90.5813 127.849 91.6277 129.022C92.8049 130.194 93.4589 131.237 95.4209 131.497C96.8597 131.627 97.9061 132.67 99.3449 133.191C100.915 133.582 102.353 133.582 103.923 133.712C105.493 133.842 106.931 133.973 108.632 133.582C110.332 133.191 111.902 133.061 113.602 132.67C115.433 132.279 117.003 131.367 118.703 130.715C121.319 129.673 125.243 125.634 127.467 123.81C127.729 123.55 128.644 123.55 125.897 126.807C124.328 128.631 123.02 130.715 120.796 131.627C119.881 132.149 118.834 132.279 117.657 132.409C116.218 132.539 115.957 133.451 114.91 134.103C114.256 134.494 113.471 134.754 112.687 134.624C112.033 134.624 111.379 134.494 110.725 134.494C109.94 134.494 109.155 134.754 108.37 134.885C107.455 135.015 106.539 135.015 105.623 135.015C104.446 135.015 103.531 135.406 102.353 135.797C101.699 136.057 100.915 136.318 100.13 136.057C98.1677 135.406 96.4673 133.973 94.6361 133.191C93.7205 132.8 91.3661 132.8 91.1045 131.627C90.8429 130.715 90.5813 129.934 89.6657 129.282C89.1425 129.022 88.4885 128.631 87.9653 128.24C87.4421 127.719 87.0497 127.067 86.9189 126.416C86.7881 127.458 87.0497 128.501 88.4885 129.282C91.7585 131.106 89.1425 131.627 92.0201 132.93C94.8977 134.233 96.5981 134.624 98.8217 135.927C101.045 137.23 102.223 135.797 105.1 135.666C107.978 135.536 109.024 134.494 112.163 135.015C115.303 135.406 115.695 133.582 118.049 133.061C120.404 132.539 122.104 131.758 124.982 128.631C127.859 125.504 128.383 124.071 133.091 118.599C137.8 113.127 137.539 111.173 141.724 105.57C145.91 99.9682 152.319 95.7991 153.365 87.3305C154.019 78.7317 152.973 74.0415 150.357 70.9146ZM149.572 72.4781C148.657 70.9146 147.349 70.0026 148.395 70.2632C149.572 70.3935 150.88 71.5661 151.534 73.7809C152.188 76.126 150.357 74.0415 149.572 72.4781ZM152.188 85.1157C152.057 92.4117 147.61 98.0139 144.602 101.01C141.593 104.007 137.539 109.87 136.361 112.606C135.184 115.342 131.26 119.902 129.821 121.595C128.383 123.289 127.336 123.81 128.644 122.117C129.952 120.423 133.876 114.3 136.231 111.303C138.585 108.437 141.332 100.75 145.648 96.5808C149.965 92.4117 150.226 85.8974 151.142 80.2952C151.665 78.2106 152.188 77.8197 152.188 85.1157Z" fill="url(#paint41_radial_9002_27339)"/>
</g>
<path opacity="0.7" d="M90.1898 133.584C89.6666 133.062 89.0126 132.672 88.3586 132.15C88.2278 132.02 88.097 132.15 88.097 132.281C88.097 132.281 88.097 132.281 88.097 132.411C87.9662 133.193 88.097 134.105 88.6202 134.626C89.0126 135.147 90.059 135.408 90.5822 134.886C91.1054 134.496 90.4514 133.974 90.1898 133.584Z" fill="url(#paint42_linear_9002_27339)"/>
<path opacity="0.7" d="M95.8137 136.319C95.1597 135.798 93.9825 135.407 93.1977 135.538C93.0669 135.538 93.0669 135.798 93.1977 135.798H93.3285C93.9825 136.45 93.5901 137.492 94.1133 138.143C94.3749 138.404 94.6365 138.534 94.8981 138.534C95.5521 138.534 96.0753 138.143 96.7293 138.143C96.8601 138.143 96.9909 138.013 96.9909 138.013C97.1217 137.231 96.3369 136.71 95.8137 136.319Z" fill="url(#paint43_linear_9002_27339)"/>
<path opacity="0.7" d="M101.177 138.924C100.654 138.403 100.13 138.012 99.3457 138.012C98.6917 137.882 97.6453 137.882 97.122 138.273C96.9912 138.403 97.1221 138.533 97.2529 138.533C97.3837 138.533 97.3836 138.533 97.5144 138.533C97.7761 138.664 98.2993 139.706 98.5609 139.836C99.3457 140.227 100.13 139.315 100.915 139.315C101.046 139.315 101.308 139.055 101.177 138.924Z" fill="url(#paint44_linear_9002_27339)"/>
<path opacity="0.7" d="M104.316 138.143C103.401 137.882 102.354 138.534 101.569 139.055C101.439 139.185 101.569 139.316 101.7 139.316C102.223 139.837 102.877 140.488 103.793 140.228C104.185 140.097 104.578 139.837 104.97 139.706C105.232 139.576 105.493 139.576 105.493 139.185C105.624 138.534 104.709 138.273 104.316 138.143Z" fill="url(#paint45_linear_9002_27339)"/>
<path opacity="0.7" d="M110.986 137.753C110.332 137.362 109.547 137.232 108.893 137.362C108.239 137.492 107.585 138.274 107.324 138.795C107.324 138.926 107.455 139.056 107.585 139.056C108.109 139.447 108.763 139.577 109.417 139.577C110.201 139.577 110.463 138.535 111.117 138.144C110.986 138.014 110.986 137.883 110.986 137.753Z" fill="url(#paint46_linear_9002_27339)"/>
<path opacity="0.7" d="M115.565 136.58C114.518 136.58 113.864 137.101 112.949 137.362C112.818 137.362 112.818 137.622 112.949 137.622H113.079C113.733 137.883 114.257 138.534 114.911 138.404C115.434 138.274 116.088 137.883 116.219 137.362C116.48 136.84 115.957 136.58 115.565 136.58Z" fill="url(#paint47_linear_9002_27339)"/>
<path opacity="0.7" d="M121.843 134.366C120.535 133.975 119.489 134.887 118.704 135.929C118.573 136.059 118.835 136.32 118.966 136.19C119.489 136.58 120.274 136.45 120.797 136.32C121.582 136.19 121.974 135.278 121.974 134.626C121.974 134.496 121.843 134.366 121.843 134.366Z" fill="url(#paint48_linear_9002_27339)"/>
<path opacity="0.7" d="M126.29 130.717C126.16 130.717 126.029 130.717 126.029 130.847C126.029 130.847 126.029 130.847 125.898 130.847C125.375 131.107 124.721 131.238 124.459 131.889C124.459 132.019 124.459 132.019 124.59 132.15C125.375 132.41 126.29 131.889 126.552 130.977C126.552 130.847 126.421 130.717 126.29 130.717Z" fill="url(#paint49_linear_9002_27339)"/>
<path opacity="0.7" d="M86.9197 130.066C86.6581 129.675 86.3965 129.544 86.0041 129.414C85.8733 129.284 85.7425 129.023 85.7425 128.763C85.6117 128.632 85.6117 128.502 85.3501 128.372C85.2193 128.372 85.0885 128.372 85.0885 128.372C84.6961 128.893 84.8269 129.284 85.2193 129.675C85.2193 129.805 85.3501 129.935 85.4809 130.066C85.8733 130.456 86.3965 130.717 86.7889 130.456C87.0505 130.196 87.0505 130.066 86.9197 130.066Z" fill="url(#paint50_linear_9002_27339)"/>
<defs>
<radialGradient id="paint0_radial_9002_27339" cx="0" cy="0" r="1" gradientUnits="userSpaceOnUse" gradientTransform="translate(164.517 181.694) scale(144.879 144.308)">
<stop offset="0.7432" stop-color="#C4DAD9"/>
<stop offset="0.7833" stop-color="#EBF0F6"/>
<stop offset="0.8676" stop-color="#E4F4F5"/>
<stop offset="0.899" stop-color="#DEEBED"/>
<stop offset="0.9499" stop-color="#CFD3D6"/>
<stop offset="0.9889" stop-color="#C1BCC1"/>
</radialGradient>
<radialGradient id="paint1_radial_9002_27339" cx="0" cy="0" r="1" gradientUnits="userSpaceOnUse" gradientTransform="translate(-74.298 -101.769) scale(275.956 274.869)">
<stop offset="0.8227" stop-color="white"/>
<stop offset="0.8369" stop-color="#E8E7E7"/>
<stop offset="0.8703" stop-color="#B5B3B4"/>
<stop offset="0.8867" stop-color="#A19FA0"/>
<stop offset="0.8879" stop-color="#A09D9F"/>
<stop offset="0.9231" stop-color="#847379"/>
<stop offset="0.9411" stop-color="#79636A"/>
<stop offset="0.9519" stop-color="#8D7A80"/>
<stop offset="0.9745" stop-color="#C0B5B9"/>
<stop offset="1" stop-color="white"/>
</radialGradient>
<radialGradient id="paint2_radial_9002_27339" cx="0" cy="0" r="1" gradientUnits="userSpaceOnUse" gradientTransform="translate(206.598 240.101) scale(217.247 216.391)">
<stop offset="0.9354" stop-color="white"/>
<stop offset="0.9389" stop-color="#F1F1F1"/>
<stop offset="0.9548" stop-color="#B8B6B7"/>
<stop offset="0.9624" stop-color="#A19FA0"/>
<stop offset="0.9887" stop-color="#79636A"/>
</radialGradient>
<radialGradient id="paint3_radial_9002_27339" cx="0" cy="0" r="1" gradientUnits="userSpaceOnUse" gradientTransform="translate(263.117 289.485) scale(284.668 283.547)">
<stop offset="0.913" stop-color="white"/>
<stop offset="0.9203" stop-color="#E8E7E7"/>
<stop offset="0.9376" stop-color="#B5B3B4"/>
<stop offset="0.9461" stop-color="#A19FA0"/>
<stop offset="0.9466" stop-color="#A09D9F"/>
<stop offset="0.9608" stop-color="#847379"/>
<stop offset="0.9681" stop-color="#79636A"/>
<stop offset="0.9739" stop-color="#8D7A80"/>
<stop offset="0.9862" stop-color="#C0B5B9"/>
<stop offset="1" stop-color="white"/>
</radialGradient>
<radialGradient id="paint4_radial_9002_27339" cx="0" cy="0" r="1" gradientUnits="userSpaceOnUse" gradientTransform="translate(206.607 239.934) scale(217.112 216.257)">
<stop offset="0.8884" stop-color="white"/>
<stop offset="0.8981" stop-color="#F1F1F1"/>
<stop offset="0.9416" stop-color="#B8B6B7"/>
<stop offset="0.9624" stop-color="#A19FA0"/>
<stop offset="0.9887" stop-color="#79636A"/>
</radialGradient>
<radialGradient id="paint5_radial_9002_27339" cx="0" cy="0" r="1" gradientUnits="userSpaceOnUse" gradientTransform="translate(44.8185 127.632) scale(167.067 166.409)">
<stop offset="0.2114" stop-color="#008593"/>
<stop offset="0.2717" stop-color="#178E95"/>
<stop offset="0.3974" stop-color="#52A79B"/>
<stop offset="0.4765" stop-color="#7AB79F"/>
<stop offset="0.5867" stop-color="#91C3B0"/>
<stop offset="0.8167" stop-color="#CCE3DA"/>
<stop offset="1" stop-color="white"/>
</radialGradient>
<radialGradient id="paint6_radial_9002_27339" cx="0" cy="0" r="1" gradientUnits="userSpaceOnUse" gradientTransform="translate(166.899 46.4272) scale(141.956 141.396)">
<stop stop-color="#423127"/>
<stop offset="0.1466" stop-color="#563D16"/>
<stop offset="0.7149" stop-color="#476839"/>
<stop offset="0.9164" stop-color="#00858D"/>
<stop offset="1" stop-color="#257370"/>
</radialGradient>
<radialGradient id="paint7_radial_9002_27339" cx="0" cy="0" r="1" gradientUnits="userSpaceOnUse" gradientTransform="translate(126.629 34.1821) scale(114.342 113.891)">
<stop stop-color="#423127"/>
<stop offset="0.3102" stop-color="#563D16"/>
<stop offset="0.7149" stop-color="#476839"/>
<stop offset="1" stop-color="#257370"/>
</radialGradient>
<radialGradient id="paint8_radial_9002_27339" cx="0" cy="0" r="1" gradientUnits="userSpaceOnUse" gradientTransform="translate(126.629 34.1821) scale(114.342 113.891)">
<stop stop-color="#423127"/>
<stop offset="0.3102" stop-color="#563D16"/>
<stop offset="0.7149" stop-color="#476839"/>
<stop offset="1" stop-color="#257370"/>
</radialGradient>
<radialGradient id="paint9_radial_9002_27339" cx="0" cy="0" r="1" gradientUnits="userSpaceOnUse" gradientTransform="translate(347.002 446.093) scale(476.861 474.982)">
<stop offset="0.9833"/>
<stop offset="0.9881" stop-color="#514D24"/>
<stop offset="0.9937" stop-color="#E4F4F5"/>
<stop offset="0.9942" stop-color="#DCEBEC"/>
<stop offset="0.9951" stop-color="#C5D3D4"/>
<stop offset="0.9963" stop-color="#A0ABAC"/>
<stop offset="0.9976" stop-color="#6D7475"/>
<stop offset="0.9991" stop-color="#2C2F30"/>
<stop offset="1"/>
</radialGradient>
<radialGradient id="paint10_radial_9002_27339" cx="0" cy="0" r="1" gradientUnits="userSpaceOnUse" gradientTransform="translate(90.6904 83.1297) scale(52.3716 52.1653)">
<stop stop-color="#7AB79F"/>
<stop offset="0.0480714" stop-color="#63AE9D"/>
<stop offset="0.1484" stop-color="#289597"/>
<stop offset="0.2114" stop-color="#008593"/>
<stop offset="0.3775" stop-color="#0D787C"/>
<stop offset="0.7239" stop-color="#2F5641"/>
<stop offset="1" stop-color="#4D380E"/>
</radialGradient>
<radialGradient id="paint11_radial_9002_27339" cx="0" cy="0" r="1" gradientUnits="userSpaceOnUse" gradientTransform="translate(-146.153 -204.887) scale(387.898 386.37)">
<stop offset="0.9668" stop-color="#79636A"/>
<stop offset="0.971" stop-color="#87737A"/>
<stop offset="0.9791" stop-color="#AB9EA2"/>
<stop offset="0.9903" stop-color="#E6E2E3"/>
<stop offset="0.9948" stop-color="white"/>
</radialGradient>
<radialGradient id="paint12_radial_9002_27339" cx="0" cy="0" r="1" gradientUnits="userSpaceOnUse" gradientTransform="translate(189.643 169.011) scale(136.585 136.047)">
<stop offset="0.5859" stop-color="#CFD2D6"/>
<stop offset="0.6338" stop-color="#B2B2B4"/>
<stop offset="0.669" stop-color="#A19FA0"/>
<stop offset="0.6727" stop-color="#A09D9F"/>
<stop offset="0.7784" stop-color="#847379"/>
<stop offset="0.8325" stop-color="#79636A"/>
<stop offset="0.8474" stop-color="#735C63"/>
<stop offset="0.9092" stop-color="#5E454B"/>
<stop offset="0.9473" stop-color="#563C42"/>
</radialGradient>
<radialGradient id="paint13_radial_9002_27339" cx="0" cy="0" r="1" gradientUnits="userSpaceOnUse" gradientTransform="translate(42.1943 60.792) scale(122.138 121.657)">
<stop offset="0.8335" stop-color="white"/>
<stop offset="0.8448" stop-color="#E8E7E7"/>
<stop offset="0.8718" stop-color="#B5B3B4"/>
<stop offset="0.885" stop-color="#A19FA0"/>
<stop offset="0.8858" stop-color="#A09D9F"/>
<stop offset="0.9092" stop-color="#847379"/>
<stop offset="0.9212" stop-color="#79636A"/>
<stop offset="0.9356" stop-color="#8D7A80"/>
<stop offset="0.9659" stop-color="#C0B5B9"/>
<stop offset="1" stop-color="white"/>
</radialGradient>
<radialGradient id="paint14_radial_9002_27339" cx="0" cy="0" r="1" gradientUnits="userSpaceOnUse" gradientTransform="translate(116.173 111.869) scale(50.7428 50.5428)">
<stop offset="0.14" stop-color="#A19FA0"/>
<stop offset="0.1493" stop-color="#A09D9F"/>
<stop offset="0.4081" stop-color="#847379"/>
<stop offset="0.5406" stop-color="#79636A"/>
<stop offset="0.6246" stop-color="#8D7A80"/>
<stop offset="0.8012" stop-color="#C0B5B9"/>
<stop offset="1" stop-color="white"/>
</radialGradient>
<radialGradient id="paint15_radial_9002_27339" cx="0" cy="0" r="1" gradientUnits="userSpaceOnUse" gradientTransform="translate(116.322 112.103) scale(51.4852 51.2824)">
<stop offset="0.14" stop-color="#A19FA0"/>
<stop offset="0.1493" stop-color="#A09D9F"/>
<stop offset="0.4081" stop-color="#847379"/>
<stop offset="0.5406" stop-color="#79636A"/>
<stop offset="0.6246" stop-color="#8D7A80"/>
<stop offset="0.8012" stop-color="#C0B5B9"/>
<stop offset="1" stop-color="white"/>
</radialGradient>
<radialGradient id="paint16_radial_9002_27339" cx="0" cy="0" r="1" gradientUnits="userSpaceOnUse" gradientTransform="translate(116.592 111.921) scale(51.8682 51.6639)">
<stop offset="0.14" stop-color="#A19FA0"/>
<stop offset="0.1493" stop-color="#A09D9F"/>
<stop offset="0.4081" stop-color="#847379"/>
<stop offset="0.5406" stop-color="#79636A"/>
<stop offset="0.6246" stop-color="#8D7A80"/>
<stop offset="0.8012" stop-color="#C0B5B9"/>
<stop offset="1" stop-color="white"/>
</radialGradient>
<radialGradient id="paint17_radial_9002_27339" cx="0" cy="0" r="1" gradientUnits="userSpaceOnUse" gradientTransform="translate(86.2202 169.856) scale(136.847 136.308)">
<stop offset="0.2114" stop-color="#008593"/>
<stop offset="0.2717" stop-color="#178E95"/>
<stop offset="0.3974" stop-color="#52A79B"/>
<stop offset="0.4765" stop-color="#7AB79F"/>
<stop offset="0.5867" stop-color="#91C3B0"/>
<stop offset="0.8167" stop-color="#CCE3DA"/>
<stop offset="1" stop-color="white"/>
</radialGradient>
<radialGradient id="paint18_radial_9002_27339" cx="0" cy="0" r="1" gradientUnits="userSpaceOnUse" gradientTransform="translate(86.2202 169.856) scale(136.847 136.308)">
<stop offset="0.2114" stop-color="#008593"/>
<stop offset="0.2717" stop-color="#178E95"/>
<stop offset="0.3974" stop-color="#52A79B"/>
<stop offset="0.4765" stop-color="#7AB79F"/>
<stop offset="0.5867" stop-color="#91C3B0"/>
<stop offset="0.8167" stop-color="#CCE3DA"/>
<stop offset="1" stop-color="white"/>
</radialGradient>
<radialGradient id="paint19_radial_9002_27339" cx="0" cy="0" r="1" gradientUnits="userSpaceOnUse" gradientTransform="translate(129.925 141.988) scale(56.2184 55.9969)">
<stop offset="0.1621" stop-color="#240200"/>
<stop offset="0.2076" stop-color="#2D0400"/>
<stop offset="0.2817" stop-color="#450900"/>
<stop offset="0.3747" stop-color="#6C1000"/>
<stop offset="0.4454" stop-color="#8F1700"/>
<stop offset="0.4887" stop-color="#982002"/>
<stop offset="0.5594" stop-color="#B03808"/>
<stop offset="0.648" stop-color="#D75F11"/>
<stop offset="0.7003" stop-color="#F17A17"/>
<stop offset="0.7768" stop-color="#F38313"/>
<stop offset="0.9011" stop-color="#F99B0A"/>
<stop offset="1" stop-color="#FFB300"/>
</radialGradient>
<radialGradient id="paint20_radial_9002_27339" cx="0" cy="0" r="1" gradientUnits="userSpaceOnUse" gradientTransform="translate(90.3602 148.177) scale(89.7721 89.4185)">
<stop offset="0.1621" stop-color="#240200"/>
<stop offset="0.2076" stop-color="#2D0400"/>
<stop offset="0.2817" stop-color="#450900"/>
<stop offset="0.3747" stop-color="#6C1000"/>
<stop offset="0.4454" stop-color="#8F1700"/>
<stop offset="0.4887" stop-color="#982002"/>
<stop offset="0.5594" stop-color="#B03808"/>
<stop offset="0.648" stop-color="#D75F11"/>
<stop offset="0.7003" stop-color="#F17A17"/>
<stop offset="0.7768" stop-color="#F38313"/>
<stop offset="0.9011" stop-color="#F99B0A"/>
<stop offset="1" stop-color="#FFB300"/>
</radialGradient>
<radialGradient id="paint21_radial_9002_27339" cx="0" cy="0" r="1" gradientUnits="userSpaceOnUse" gradientTransform="translate(90.3602 155.682) scale(73.405 73.1158)">
<stop offset="0.1657" stop-color="#8F1700"/>
<stop offset="0.2396" stop-color="#982002"/>
<stop offset="0.3601" stop-color="#B03808"/>
<stop offset="0.5112" stop-color="#D75F11"/>
<stop offset="0.6004" stop-color="#F17A17"/>
<stop offset="0.7024" stop-color="#F38313"/>
<stop offset="0.8681" stop-color="#F99B0A"/>
<stop offset="1" stop-color="#FFB300"/>
</radialGradient>
<radialGradient id="paint22_radial_9002_27339" cx="0" cy="0" r="1" gradientUnits="userSpaceOnUse" gradientTransform="translate(106.941 142.365) scale(40.9461 40.7848)">
<stop offset="0.1621" stop-color="#240200"/>
<stop offset="0.2076" stop-color="#2D0400"/>
<stop offset="0.2817" stop-color="#450900"/>
<stop offset="0.3747" stop-color="#6C1000"/>
<stop offset="0.4454" stop-color="#8F1700"/>
<stop offset="0.4887" stop-color="#982002"/>
<stop offset="0.5594" stop-color="#B03808"/>
<stop offset="0.648" stop-color="#D75F11"/>
<stop offset="0.7003" stop-color="#F17A17"/>
<stop offset="0.7768" stop-color="#F38313"/>
<stop offset="0.9011" stop-color="#F99B0A"/>
<stop offset="1" stop-color="#FFB300"/>
</radialGradient>
<radialGradient id="paint23_radial_9002_27339" cx="0" cy="0" r="1" gradientUnits="userSpaceOnUse" gradientTransform="translate(110.522 141.424) scale(43.0398 42.8702)">
<stop offset="0.2187" stop-color="#F09D58"/>
<stop offset="0.3331" stop-color="#E1A964"/>
<stop offset="0.6284" stop-color="#F8A36E"/>
<stop offset="0.6973" stop-color="#F79F65"/>
<stop offset="0.8071" stop-color="#F5944E"/>
<stop offset="0.9434" stop-color="#F28229"/>
<stop offset="1" stop-color="#F17A17"/>
</radialGradient>
<radialGradient id="paint24_radial_9002_27339" cx="0" cy="0" r="1" gradientUnits="userSpaceOnUse" gradientTransform="translate(94.8837 150.429) scale(70.6074 70.3293)">
<stop stop-color="white"/>
<stop offset="0.3808" stop-color="#C98A7E"/>
<stop offset="0.4362" stop-color="#C78275"/>
<stop offset="0.5265" stop-color="#C16E5D"/>
<stop offset="0.6397" stop-color="#B94D36"/>
<stop offset="0.6795" stop-color="#B54026"/>
<stop offset="1" stop-color="white"/>
</radialGradient>
<radialGradient id="paint25_radial_9002_27339" cx="0" cy="0" r="1" gradientUnits="userSpaceOnUse" gradientTransform="translate(88.9011 77.1069) scale(63.5627 63.3123)">
<stop offset="0.3586" stop-color="#F09D58"/>
<stop offset="0.4384" stop-color="#FD924A"/>
<stop offset="0.4965" stop-color="#FF8C3B"/>
<stop offset="0.6284" stop-color="#F8A36E"/>
<stop offset="0.6669" stop-color="#F79F65"/>
<stop offset="0.7282" stop-color="#F5944E"/>
<stop offset="0.8043" stop-color="#F28229"/>
<stop offset="0.8359" stop-color="#F17A17"/>
<stop offset="0.8687" stop-color="#F3831B"/>
<stop offset="0.9219" stop-color="#FA9B24"/>
<stop offset="0.9576" stop-color="#FFAF2C"/>
</radialGradient>
<radialGradient id="paint26_radial_9002_27339" cx="0" cy="0" r="1" gradientUnits="userSpaceOnUse" gradientTransform="translate(108.255 115.343) scale(16.3868 16.3222)">
<stop stop-color="#B54026"/>
<stop offset="0.0714708" stop-color="#B94D36"/>
<stop offset="0.2752" stop-color="#C16E5D"/>
<stop offset="0.4376" stop-color="#C78275"/>
<stop offset="0.5373" stop-color="#C98A7E"/>
<stop offset="0.9956" stop-color="white"/>
</radialGradient>
<radialGradient id="paint27_radial_9002_27339" cx="0" cy="0" r="1" gradientUnits="userSpaceOnUse" gradientTransform="translate(108.257 115.341) scale(16.3868 16.3222)">
<stop stop-color="#B54026"/>
<stop offset="0.0714708" stop-color="#B94D36"/>
<stop offset="0.2752" stop-color="#C16E5D"/>
<stop offset="0.4376" stop-color="#C78275"/>
<stop offset="0.5373" stop-color="#C98A7E"/>
<stop offset="0.9956" stop-color="white"/>
</radialGradient>
<radialGradient id="paint28_radial_9002_27339" cx="0" cy="0" r="1" gradientUnits="userSpaceOnUse" gradientTransform="translate(110.096 89.0705) scale(28.9102 28.7963)">
<stop offset="0.1229" stop-color="#FCD7C0"/>
<stop offset="0.2058" stop-color="#FBCDB0"/>
<stop offset="0.3676" stop-color="#FAB586"/>
<stop offset="0.4657" stop-color="#F9A469"/>
<stop offset="0.5915" stop-color="#F89D5B"/>
<stop offset="0.829" stop-color="#F48A36"/>
<stop offset="1" stop-color="#F17A17"/>
</radialGradient>
<radialGradient id="paint29_radial_9002_27339" cx="0" cy="0" r="1" gradientUnits="userSpaceOnUse" gradientTransform="translate(109.404 89.4073) scale(27.106 26.9992)">
<stop offset="0.1229" stop-color="#FCD7C0"/>
<stop offset="0.2058" stop-color="#FBCDB0"/>
<stop offset="0.3676" stop-color="#FAB586"/>
<stop offset="0.4657" stop-color="#F9A469"/>
<stop offset="0.5915" stop-color="#F89D5B"/>
<stop offset="0.829" stop-color="#F48A36"/>
<stop offset="1" stop-color="#F17A17"/>
</radialGradient>
<radialGradient id="paint30_radial_9002_27339" cx="0" cy="0" r="1" gradientTransform="matrix(25.9573 0.783826 -0.786926 25.8551 111.261 87.5744)" gradientUnits="userSpaceOnUse">
<stop offset="0.1229" stop-color="#FCD7C0"/>
<stop offset="0.2058" stop-color="#FBCDB0"/>
<stop offset="0.3676" stop-color="#FAB586"/>
<stop offset="0.4657" stop-color="#F9A469"/>
<stop offset="0.5915" stop-color="#F89D5B"/>
<stop offset="0.829" stop-color="#F48A36"/>
<stop offset="1" stop-color="#F17A17"/>
</radialGradient>
<radialGradient id="paint31_radial_9002_27339" cx="0" cy="0" r="1" gradientUnits="userSpaceOnUse" gradientTransform="translate(111.857 89.3419) scale(27.2987 27.1912)">
<stop offset="0.1229" stop-color="#FCD7C0"/>
<stop offset="0.2058" stop-color="#FBCDB0"/>
<stop offset="0.3676" stop-color="#FAB586"/>
<stop offset="0.4657" stop-color="#F9A469"/>
<stop offset="0.5915" stop-color="#F89D5B"/>
<stop offset="0.829" stop-color="#F48A36"/>
<stop offset="1" stop-color="#F17A17"/>
</radialGradient>
<radialGradient id="paint32_radial_9002_27339" cx="0" cy="0" r="1" gradientUnits="userSpaceOnUse" gradientTransform="translate(126.347 88.6471) scale(12.2781 12.2297)">
<stop offset="0.1229" stop-color="#FCD7C0"/>
<stop offset="0.2058" stop-color="#FBCDB0"/>
<stop offset="0.3676" stop-color="#FAB586"/>
<stop offset="0.4657" stop-color="#F9A469"/>
<stop offset="0.5915" stop-color="#F89D5B"/>
<stop offset="0.829" stop-color="#F48A36"/>
<stop offset="1" stop-color="#F17A17"/>
</radialGradient>
<radialGradient id="paint33_radial_9002_27339" cx="0" cy="0" r="1" gradientUnits="userSpaceOnUse" gradientTransform="translate(95.4008 137.485) scale(85.488 85.1513)">
<stop offset="0.00946787" stop-color="#F7DBC8"/>
<stop offset="0.3962" stop-color="#E37000"/>
<stop offset="0.4906" stop-color="#E57408"/>
<stop offset="0.6412" stop-color="#E97F20"/>
<stop offset="0.828" stop-color="#F09045"/>
<stop offset="1" stop-color="#F8A36E"/>
</radialGradient>
<radialGradient id="paint34_radial_9002_27339" cx="0" cy="0" r="1" gradientUnits="userSpaceOnUse" gradientTransform="translate(138.213 90.9439) scale(24.6136 24.5166)">
<stop offset="0.6251" stop-color="#B54026"/>
<stop offset="0.6407" stop-color="#B94D36"/>
<stop offset="0.6855" stop-color="#C16E5D"/>
<stop offset="0.7211" stop-color="#C78275"/>
<stop offset="0.743" stop-color="#C98A7E"/>
<stop offset="0.8954" stop-color="white"/>
</radialGradient>
<radialGradient id="paint35_radial_9002_27339" cx="0" cy="0" r="1" gradientUnits="userSpaceOnUse" gradientTransform="translate(130.702 86.4166) scale(12.7917 12.7413)">
<stop stop-color="#F8A36E"/>
<stop offset="0.172" stop-color="#F09045"/>
<stop offset="0.3588" stop-color="#E97F20"/>
<stop offset="0.5094" stop-color="#E57408"/>
<stop offset="0.6038" stop-color="#E37000"/>
<stop offset="0.9905" stop-color="#F7DBC8"/>
</radialGradient>
<linearGradient id="paint36_linear_9002_27339" x1="96.8723" y1="101.006" x2="104.453" y2="116.368" gradientUnits="userSpaceOnUse">
<stop stop-color="#F8A36E"/>
<stop offset="0.0855588" stop-color="#FAC9AB"/>
<stop offset="0.2665" stop-color="#F2D4D1"/>
<stop offset="0.3444" stop-color="#F1D1CD"/>
<stop offset="0.4148" stop-color="#EFC7C2"/>
<stop offset="0.4821" stop-color="#EAB7B0"/>
<stop offset="0.5077" stop-color="#E8AFA7"/>
<stop offset="0.6233" stop-color="#EBAD9E"/>
<stop offset="0.79" stop-color="#F1A889"/>
<stop offset="1" stop-color="#F8A36E"/>
</linearGradient>
<radialGradient id="paint37_radial_9002_27339" cx="0" cy="0" r="1" gradientUnits="userSpaceOnUse" gradientTransform="translate(107.6 111.401) scale(12.6422 12.5924)">
<stop offset="0.1229" stop-color="#FCD7C0"/>
<stop offset="0.168" stop-color="#FBCDB0"/>
<stop offset="0.2562" stop-color="#FAB586"/>
<stop offset="0.3097" stop-color="#F9A469"/>
<stop offset="0.4068" stop-color="#F89D5B"/>
<stop offset="0.5903" stop-color="#F48A36"/>
<stop offset="0.7224" stop-color="#F17A17"/>
</radialGradient>
<linearGradient id="paint38_linear_9002_27339" x1="92.9278" y1="118.196" x2="110.223" y2="107.344" gradientUnits="userSpaceOnUse">
<stop stop-color="#F8A36E"/>
<stop offset="0.0855588" stop-color="#FAC9AB"/>
<stop offset="0.2665" stop-color="#F2D4D1"/>
<stop offset="0.3444" stop-color="#F1D1CD"/>
<stop offset="0.4148" stop-color="#EFC7C2"/>
<stop offset="0.4821" stop-color="#EAB7B0"/>
<stop offset="0.5077" stop-color="#E8AFA7"/>
<stop offset="0.6233" stop-color="#EBAD9E"/>
<stop offset="0.79" stop-color="#F1A889"/>
<stop offset="1" stop-color="#F8A36E"/>
</linearGradient>
<radialGradient id="paint39_radial_9002_27339" cx="0" cy="0" r="1" gradientUnits="userSpaceOnUse" gradientTransform="translate(153.903 88.0837) scale(20.6709 20.5894)">
<stop offset="0.1229" stop-color="#FCD7C0"/>
<stop offset="0.2058" stop-color="#FBCDB0"/>
<stop offset="0.3676" stop-color="#FAB586"/>
<stop offset="0.4657" stop-color="#F9A469"/>
<stop offset="0.5915" stop-color="#F89D5B"/>
<stop offset="0.829" stop-color="#F48A36"/>
<stop offset="1" stop-color="#F17A17"/>
</radialGradient>
<radialGradient id="paint40_radial_9002_27339" cx="0" cy="0" r="1" gradientUnits="userSpaceOnUse" gradientTransform="translate(150.086 81.937) scale(9.42073 9.38361)">
<stop offset="0.1229" stop-color="#FCD7C0"/>
<stop offset="0.2058" stop-color="#FBCDB0"/>
<stop offset="0.3676" stop-color="#FAB586"/>
<stop offset="0.4657" stop-color="#F9A469"/>
<stop offset="0.5915" stop-color="#F89D5B"/>
<stop offset="0.829" stop-color="#F48A36"/>
<stop offset="1" stop-color="#F17A17"/>
</radialGradient>
<radialGradient id="paint41_radial_9002_27339" cx="0" cy="0" r="1" gradientUnits="userSpaceOnUse" gradientTransform="translate(87.7243 112.744) scale(74.4196 74.1264)">
<stop offset="0.257" stop-color="#C98A7E"/>
<stop offset="0.3949" stop-color="#C78275"/>
<stop offset="0.6194" stop-color="#C16E5D"/>
<stop offset="0.9012" stop-color="#B94D36"/>
<stop offset="1" stop-color="#B54026"/>
</radialGradient>
<linearGradient id="paint42_linear_9002_27339" x1="88.4515" y1="132.055" x2="90.0322" y2="135.259" gradientUnits="userSpaceOnUse">
<stop stop-color="#F8A36E"/>
<stop offset="0.0855588" stop-color="#FAC9AB"/>
<stop offset="0.2665" stop-color="#F2D4D1"/>
<stop offset="0.4655" stop-color="#F1D1CD"/>
<stop offset="0.6456" stop-color="#EFC7C2"/>
<stop offset="0.8177" stop-color="#EAB7B0"/>
<stop offset="0.8831" stop-color="#E8AFA7"/>
<stop offset="0.9129" stop-color="#EBAD9E"/>
<stop offset="0.9614" stop-color="#F1A886"/>
<stop offset="1" stop-color="#F8A36E"/>
</linearGradient>
<linearGradient id="paint43_linear_9002_27339" x1="94.1469" y1="135.042" x2="95.9032" y2="138.601" gradientUnits="userSpaceOnUse">
<stop stop-color="#F8A36E"/>
<stop offset="0.0855588" stop-color="#FAC9AB"/>
<stop offset="0.2665" stop-color="#F2D4D1"/>
<stop offset="0.4655" stop-color="#F1D1CD"/>
<stop offset="0.6456" stop-color="#EFC7C2"/>
<stop offset="0.8177" stop-color="#EAB7B0"/>
<stop offset="0.8831" stop-color="#E8AFA7"/>
<stop offset="0.9129" stop-color="#EBAD9E"/>
<stop offset="0.9614" stop-color="#F1A886"/>
<stop offset="1" stop-color="#F8A36E"/>
</linearGradient>
<linearGradient id="paint44_linear_9002_27339" x1="98.4855" y1="137.537" x2="99.662" y2="139.921" gradientUnits="userSpaceOnUse">
<stop stop-color="#F8A36E"/>
<stop offset="0.0855588" stop-color="#FAC9AB"/>
<stop offset="0.2665" stop-color="#F2D4D1"/>
<stop offset="0.4655" stop-color="#F1D1CD"/>
<stop offset="0.6456" stop-color="#EFC7C2"/>
<stop offset="0.8177" stop-color="#EAB7B0"/>
<stop offset="0.8831" stop-color="#E8AFA7"/>
<stop offset="0.9129" stop-color="#EBAD9E"/>
<stop offset="0.9614" stop-color="#F1A886"/>
<stop offset="1" stop-color="#F8A36E"/>
</linearGradient>
<linearGradient id="paint45_linear_9002_27339" x1="103.108" y1="138.202" x2="104.063" y2="140.137" gradientUnits="userSpaceOnUse">
<stop stop-color="#F8A36E"/>
<stop offset="0.0855588" stop-color="#FAC9AB"/>
<stop offset="0.2665" stop-color="#F2D4D1"/>
<stop offset="0.4655" stop-color="#F1D1CD"/>
<stop offset="0.6456" stop-color="#EFC7C2"/>
<stop offset="0.8177" stop-color="#EAB7B0"/>
<stop offset="0.8831" stop-color="#E8AFA7"/>
<stop offset="0.9129" stop-color="#EBAD9E"/>
<stop offset="0.9614" stop-color="#F1A886"/>
<stop offset="1" stop-color="#F8A36E"/>
</linearGradient>
<linearGradient id="paint46_linear_9002_27339" x1="108.577" y1="137.373" x2="109.576" y2="139.397" gradientUnits="userSpaceOnUse">
<stop stop-color="#F8A36E"/>
<stop offset="0.0855588" stop-color="#FAC9AB"/>
<stop offset="0.2665" stop-color="#F2D4D1"/>
<stop offset="0.4655" stop-color="#F1D1CD"/>
<stop offset="0.6456" stop-color="#EFC7C2"/>
<stop offset="0.8177" stop-color="#EAB7B0"/>
<stop offset="0.8831" stop-color="#E8AFA7"/>
<stop offset="0.9129" stop-color="#EBAD9E"/>
<stop offset="0.9614" stop-color="#F1A886"/>
<stop offset="1" stop-color="#F8A36E"/>
</linearGradient>
<linearGradient id="paint47_linear_9002_27339" x1="114.297" y1="136.76" x2="115.132" y2="138.452" gradientUnits="userSpaceOnUse">
<stop stop-color="#F8A36E"/>
<stop offset="0.0855588" stop-color="#FAC9AB"/>
<stop offset="0.2665" stop-color="#F2D4D1"/>
<stop offset="0.4655" stop-color="#F1D1CD"/>
<stop offset="0.6456" stop-color="#EFC7C2"/>
<stop offset="0.8177" stop-color="#EAB7B0"/>
<stop offset="0.8831" stop-color="#E8AFA7"/>
<stop offset="0.9129" stop-color="#EBAD9E"/>
<stop offset="0.9614" stop-color="#F1A886"/>
<stop offset="1" stop-color="#F8A36E"/>
</linearGradient>
<linearGradient id="paint48_linear_9002_27339" x1="120.013" y1="134.634" x2="120.821" y2="136.27" gradientUnits="userSpaceOnUse">
<stop stop-color="#F8A36E"/>
<stop offset="0.0855588" stop-color="#FAC9AB"/>
<stop offset="0.2665" stop-color="#F2D4D1"/>
<stop offset="0.4655" stop-color="#F1D1CD"/>
<stop offset="0.6456" stop-color="#EFC7C2"/>
<stop offset="0.8177" stop-color="#EAB7B0"/>
<stop offset="0.8831" stop-color="#E8AFA7"/>
<stop offset="0.9129" stop-color="#EBAD9E"/>
<stop offset="0.9614" stop-color="#F1A886"/>
<stop offset="1" stop-color="#F8A36E"/>
</linearGradient>
<linearGradient id="paint49_linear_9002_27339" x1="125.366" y1="131.086" x2="125.794" y2="131.954" gradientUnits="userSpaceOnUse">
<stop stop-color="#F8A36E"/>
<stop offset="0.0855588" stop-color="#FAC9AB"/>
<stop offset="0.2665" stop-color="#F2D4D1"/>
<stop offset="0.4655" stop-color="#F1D1CD"/>
<stop offset="0.6456" stop-color="#EFC7C2"/>
<stop offset="0.8177" stop-color="#EAB7B0"/>
<stop offset="0.8831" stop-color="#E8AFA7"/>
<stop offset="0.9129" stop-color="#EBAD9E"/>
<stop offset="0.9614" stop-color="#F1A886"/>
<stop offset="1" stop-color="#F8A36E"/>
</linearGradient>
<linearGradient id="paint50_linear_9002_27339" x1="85.2925" y1="128.21" x2="86.4305" y2="130.516" gradientUnits="userSpaceOnUse">
<stop stop-color="#F8A36E"/>
<stop offset="0.0855588" stop-color="#FAC9AB"/>
<stop offset="0.2665" stop-color="#F2D4D1"/>
<stop offset="0.4655" stop-color="#F1D1CD"/>
<stop offset="0.6456" stop-color="#EFC7C2"/>
<stop offset="0.8177" stop-color="#EAB7B0"/>
<stop offset="0.8831" stop-color="#E8AFA7"/>
<stop offset="0.9129" stop-color="#EBAD9E"/>
<stop offset="0.9614" stop-color="#F1A886"/>
<stop offset="1" stop-color="#F8A36E"/>
</linearGradient>
</defs>
</svg>
