<svg width="200" height="200" viewBox="0 0 200 200" fill="none" xmlns="http://www.w3.org/2000/svg">
<path d="M132 166.424V122.23C132 119.143 130.82 116.207 128.695 113.798C118.701 102.354 115.632 84.435 114.688 72.69C114.137 65.9893 108.314 60.8696 101.31 60.8696H98.2409H97.6901C90.6864 60.8696 84.8632 65.9893 84.3123 72.69C83.368 84.435 80.299 102.354 70.3051 113.798C68.2591 116.132 67 119.143 67 122.23V166.424C67 173.502 73.7676 175.911 80.3777 179.224C92.1816 184.117 105.638 184.268 117.521 179.6L118.544 179.224C125.783 176.287 132 173.502 132 166.424Z" fill="#EFBD54"/>
<g opacity="0.2" style="mix-blend-mode:overlay">
<path d="M113.193 78.6376C113.193 78.6376 117.442 100.02 122.085 109.807C121.613 112.141 118.937 113.346 116.812 112.216L116.183 111.915C116.183 111.915 109.179 100.396 108.314 80.821C108.314 80.3692 108.392 79.9175 108.55 79.4658C109.337 77.5835 111.776 77.2071 113.193 78.6376Z" fill="url(#paint0_linear_2006_74444)"/>
</g>
<path d="M99.4998 71.3343C106.714 71.3343 112.563 70.2219 112.563 68.8498C112.563 67.4776 106.714 66.3652 99.4998 66.3652C92.2854 66.3652 86.4369 67.4776 86.4369 68.8498C86.4369 70.2219 92.2854 71.3343 99.4998 71.3343Z" fill="#F9E8D4"/>
<path d="M99.5 66.4403C106.74 66.4403 112.563 67.5697 112.563 68.9249C112.563 70.2801 106.74 71.4094 99.5 71.4094C92.2603 71.4094 86.437 70.2801 86.437 68.9249C86.437 67.5697 92.2603 66.4403 99.5 66.4403ZM99.5 64.9346C95.8801 64.9346 92.4964 65.2357 89.9782 65.6875C87.6174 66.1392 84.8632 66.8921 84.8632 68.9249C84.8632 70.9577 87.6174 71.7106 89.9782 72.1623C92.5751 72.614 95.9588 72.9152 99.5 72.9152C103.12 72.9152 106.504 72.614 109.022 72.1623C111.383 71.7106 114.137 70.9577 114.137 68.9249C114.137 66.8921 111.383 66.1392 109.022 65.6875C106.504 65.1604 103.12 64.9346 99.5 64.9346Z" fill="url(#paint1_linear_2006_74444)"/>
<g opacity="0.2" style="mix-blend-mode:overlay">
<path d="M72.5084 162.66C69.7541 159.724 71.9575 146.473 72.1936 134.803C72.2723 128.931 77.8595 124.489 83.9188 125.392C90.9224 126.446 100.995 126.973 113.901 124.94C120.117 123.962 125.783 128.479 125.783 134.502V142.332V157.39C125.783 160.853 123.816 164.166 120.668 165.822C112.012 170.49 89.742 180.88 72.5084 162.66Z" fill="url(#paint2_linear_2006_74444)"/>
</g>
<g opacity="0.2" style="mix-blend-mode:overlay">
<path d="M74.7119 166.048C74.7119 166.048 75.3414 179.524 93.9915 179.524C113.429 179.6 127.2 180.879 125.705 158.519C124.209 135.556 76.2857 134.803 74.7119 166.048Z" fill="#E07E3B"/>
</g>
<g opacity="0.75">
<path d="M81.3219 158.595V158.444C81.3219 158.369 81.3219 158.218 81.3219 158.143C81.3219 157.842 81.3219 157.616 81.3219 157.315C81.3219 156.788 81.4006 156.336 81.4793 155.809C81.6367 154.755 81.9515 153.776 82.3449 152.797C82.6597 152.044 80.3776 152.12 80.0628 152.722C79.7481 153.324 79.3546 153.851 78.8824 154.378C78.7251 154.529 78.5677 154.68 78.4103 154.83C78.4103 154.604 78.4103 154.454 78.4103 154.228C78.4103 153.625 78.489 152.948 78.5677 152.346C78.6464 151.969 77.7021 151.894 77.5447 151.969C77.1512 151.969 76.5217 152.12 76.3643 152.496C75.42 154.378 73.5314 155.658 71.8001 156.788C71.4067 157.013 71.4067 157.39 71.8788 157.54C72.351 157.691 73.0592 157.616 73.5314 157.39C74.4757 156.788 75.3413 156.185 76.2069 155.432C76.2856 156.637 77.7808 156.712 78.7251 156.336C78.8824 156.261 79.0398 156.185 79.1972 156.11C79.1185 156.712 79.0398 157.239 79.0398 157.842C79.0398 158.369 78.9611 158.896 79.4333 159.272C79.8268 159.573 80.6137 159.498 81.0071 159.272C81.3219 159.197 81.7154 158.896 81.3219 158.595ZM77.5447 155.508C77.466 155.583 77.466 155.583 77.5447 155.508V155.508Z" fill="white"/>
<path d="M89.3485 154.98C89.5846 154.378 89.8207 153.851 89.8994 153.249C89.978 152.722 89.5059 152.496 88.955 152.42C88.5616 152.42 87.696 152.571 87.6173 153.098C87.5386 153.7 87.3025 154.227 87.1451 154.754C86.9877 155.206 86.8303 155.658 86.5943 156.11C86.3582 156.561 86.0434 157.013 85.7286 157.389C85.8073 157.314 85.5713 157.54 85.5713 157.54C85.4926 157.615 85.4139 157.691 85.3352 157.691L85.2565 157.766C85.2565 157.766 85.2565 157.766 85.1778 157.841C85.0991 157.841 85.0991 157.916 85.0204 157.916C85.0204 157.841 84.9417 157.841 84.9417 157.766C84.863 157.465 84.7843 156.938 84.863 156.561C85.0204 155.507 85.3352 154.378 85.7286 153.399C85.886 152.872 85.2565 152.571 84.7843 152.571C84.3122 152.571 83.604 152.722 83.4466 153.249C83.1318 154.227 82.817 155.206 82.6596 156.26C82.5023 157.164 82.5023 158.293 83.2105 159.046C84.0761 160.025 85.8073 159.422 86.7517 158.82C87.6173 158.293 88.2468 157.54 88.719 156.637C88.955 156.11 89.1911 155.507 89.3485 154.98Z" fill="white"/>
<path d="M93.6767 156.185C93.2046 155.959 92.9685 155.733 92.9685 155.206C92.9685 154.905 93.0472 154.604 93.2833 154.303V154.378C93.2833 154.604 93.5194 154.755 93.6767 154.83C93.9128 154.905 94.2276 154.98 94.5424 154.905C95.0145 154.83 95.5654 154.604 95.6441 154.152C95.6441 153.625 95.5654 153.174 95.1719 152.797C94.621 152.27 93.6767 152.27 92.9685 152.421C91.7881 152.722 90.8438 154.002 90.7651 155.131C90.6864 155.658 90.8438 156.185 91.2373 156.561C91.552 156.938 92.1816 157.089 92.4964 157.314C93.362 157.841 91.8668 158.594 91.4733 158.82C91.2373 158.895 91.3947 158.82 91.3947 158.82C91.316 158.82 91.2373 158.895 91.1586 158.895C91.0799 158.895 91.0799 158.895 91.0012 158.971C90.9225 158.971 90.9225 158.971 90.9225 158.971C90.8438 158.971 90.8438 158.971 90.7651 158.971C90.7651 158.971 90.6864 158.971 90.6077 158.971H90.529C90.4503 158.971 90.3717 158.971 90.293 158.971H90.2143C90.1356 158.971 90.1356 158.895 90.1356 158.895C90.1356 158.82 90.0569 158.82 90.1356 158.745C90.4503 158.519 90.6077 158.143 90.293 157.917C89.8995 157.54 89.1913 157.616 88.7191 157.841C88.1683 158.067 87.7748 158.594 87.9322 159.121C88.0896 159.724 88.6404 160.025 89.27 160.251C90.4503 160.552 91.9455 160.326 93.0472 159.799C93.9915 159.347 95.5654 158.293 95.0932 157.164C94.6997 156.712 94.1489 156.411 93.6767 156.185Z" fill="white"/>
<path d="M102.805 154.228C103.041 154.228 103.356 154.153 103.592 154.002C103.671 153.927 103.907 153.851 103.907 153.626C103.828 153.249 102.963 153.249 102.726 153.324C102.648 153.324 102.648 153.324 102.569 153.324C102.49 153.324 102.412 153.324 102.333 153.324C102.097 153.324 101.94 153.249 101.703 153.249C101.231 153.174 100.68 153.174 100.208 153.099C99.1853 153.023 98.1623 153.099 97.1393 153.174C96.9032 153.174 95.9589 153.324 96.0376 153.701C96.1163 154.077 96.9819 154.002 97.218 154.002C97.3754 154.002 97.5328 154.002 97.6115 154.002C97.6115 154.002 97.6901 154.002 97.7688 154.002C97.9262 154.002 98.0836 154.002 98.241 154.002C97.5328 155.884 96.8245 157.842 96.2737 159.875C96.195 160.176 97.3754 160.1 97.4541 160.1C97.7688 160.1 98.4771 160.025 98.5558 159.649C99.1066 157.766 99.6575 155.96 100.366 154.153C101.231 154.303 102.018 154.378 102.805 154.228Z" fill="white"/>
<path d="M125.862 156.562C125.154 154.679 123.344 153.324 121.377 152.722C121.298 152.722 121.219 152.647 121.14 152.647C121.14 152.496 121.062 152.27 121.062 152.12C121.062 151.969 121.062 151.743 120.904 151.668C120.354 151.291 119.331 151.367 118.78 151.818C118.701 151.894 118.622 151.969 118.622 152.12C118.622 152.195 118.701 152.27 118.78 152.345V152.421C118.386 152.421 117.993 152.421 117.599 152.496C117.285 152.496 116.498 152.647 116.498 153.098C116.498 153.475 117.442 153.475 117.678 153.399C117.835 153.399 117.914 153.399 118.071 153.324C118.15 153.324 118.229 153.324 118.308 153.324C118.544 153.324 118.544 153.324 118.78 153.324H118.858C118.937 153.625 118.937 153.851 119.016 154.152C119.173 154.83 119.252 155.583 119.252 156.26C119.252 156.938 119.252 157.691 119.016 158.368C118.937 158.67 118.78 158.971 118.622 159.272L118.544 159.347C116.734 158.368 115.081 157.239 113.507 156.035C114.294 155.733 115.081 155.432 115.789 155.056C116.183 154.83 116.734 154.604 116.97 154.152C117.206 153.701 116.812 153.399 116.419 153.249C115.396 152.872 114.137 152.797 113.114 152.872C111.855 152.948 110.596 153.098 109.415 153.475C109.179 153.55 108.628 153.851 109.1 154.077C109.494 154.303 110.281 154.228 110.674 154.077C110.832 154.002 111.068 154.002 111.225 153.926C111.068 154.679 110.91 155.357 110.91 156.11C110.674 156.185 110.517 156.336 110.36 156.486C109.966 156.938 109.494 157.39 108.943 157.841C108.786 157.992 108.628 158.067 108.55 158.143C108.55 157.992 108.55 157.766 108.55 157.616C108.55 157.013 108.707 156.486 108.864 155.884C108.943 155.508 108.628 155.206 108.235 155.131C107.763 154.98 107.212 155.131 106.818 155.357C106.031 155.959 105.166 156.486 104.458 157.089C103.671 157.766 103.12 157.616 102.884 157.766C103.199 157.39 103.749 156.637 104.143 156.26C105.008 155.508 106.661 155.056 107.684 154.755C108.077 154.604 108.628 154.228 108.392 153.776C108.156 153.324 107.369 153.249 106.897 153.399C105.559 153.851 104.3 154.529 103.199 155.432C102.726 155.884 102.254 156.336 101.782 156.863C101.389 157.314 100.995 157.841 100.916 158.444C100.759 159.272 101.467 159.874 102.254 159.874C103.12 159.95 103.907 159.498 104.615 159.046C105.166 158.67 105.717 158.293 106.268 157.992C106.268 158.143 106.268 158.368 106.268 158.519C106.268 158.896 106.268 159.423 106.504 159.724C106.818 160.251 107.527 160.401 108.077 160.326C109.022 160.251 109.809 159.498 110.517 158.896C110.596 158.82 110.674 158.82 110.674 158.745C110.596 159.347 110.438 159.874 110.281 160.477C110.202 160.702 111.383 160.702 111.461 160.627C111.776 160.627 112.484 160.552 112.563 160.175C112.878 159.347 112.956 158.519 113.114 157.691C114.452 158.594 115.789 159.498 117.285 160.251C117.521 160.326 117.757 160.401 118.071 160.401C118.465 160.552 119.016 160.477 119.252 160.401C120.039 160.175 120.826 159.799 121.219 159.121C121.613 158.368 121.691 157.465 121.77 156.637C121.77 155.884 121.691 155.056 121.613 154.303C122.006 154.529 122.321 154.83 122.636 155.131C123.344 155.809 124.052 156.787 123.973 157.766C123.973 158.218 123.737 158.745 123.344 159.046C123.186 159.197 123.108 159.272 122.95 159.347C122.4 159.197 121.77 159.272 121.298 159.498C120.904 159.724 120.904 160.025 121.377 160.1C122.714 160.401 124.288 160.251 125.311 159.347C125.941 158.745 126.255 157.54 125.862 156.562ZM114.53 153.851C115.16 154.152 113.743 154.755 113.507 154.905C113.429 154.98 113.271 154.98 113.193 155.056C113.271 154.604 113.35 154.152 113.429 153.701C113.822 153.776 114.294 153.776 114.53 153.851Z" fill="white"/>
</g>
<path d="M124.446 147.15C124.446 147.15 122.793 138.417 111.933 140.224C101.074 142.031 101.074 134.502 101.074 134.502L99.7361 132.62L98.3197 134.502C98.3197 134.502 98.3197 142.031 87.4601 140.224C76.6005 138.417 74.948 147.15 74.948 147.15C74.948 147.15 99.6574 155.809 99.6574 147.15C99.7361 147.15 99.7361 156.11 124.446 147.15Z" fill="url(#paint3_linear_2006_74444)"/>
<g opacity="0.2" style="mix-blend-mode:overlay">
<path d="M73.6099 115.83C73.6099 115.83 109.966 136.685 103.907 116.959C103.67 116.131 99.8145 96.5562 99.6571 86.1663C99.4998 75.7765 94.5421 73.7437 90.4501 74.4965C86.3581 75.3247 85.6499 77.9598 85.3351 82.3266C85.0203 86.7686 83.7613 107.097 73.6099 115.83Z" fill="url(#paint4_linear_2006_74444)"/>
</g>
<g opacity="0.1" style="mix-blend-mode:overlay">
<path d="M87.7748 72.9907C87.7748 72.9907 89.6634 74.9482 99.736 74.4965C99.736 74.4965 95.0932 75.4753 94.7784 77.0563C94.2276 79.5408 85.8862 117.637 89.1912 120.347C92.4963 123.058 96.9031 125.542 98.6343 125.618C98.6343 125.618 83.2893 125.919 74.5544 119.444C74.5544 119.444 78.0169 119.143 79.6695 117.863C81.322 116.583 89.1912 76.981 88.7978 75.5505C88.4043 74.0448 87.7748 72.9907 87.7748 72.9907Z" fill="url(#paint5_linear_2006_74444)"/>
</g>
<g opacity="0.56">
<g opacity="0.2" style="mix-blend-mode:overlay">
<path d="M80.3777 179.223C92.1816 184.117 105.638 184.268 117.521 179.6L118.544 179.223C125.232 176.588 131.921 173.502 131.921 166.424V122.23C131.921 119.143 130.662 116.207 128.616 113.798C118.78 102.354 115.632 84.4349 114.688 72.6899C114.373 68.3231 111.697 64.5587 107.92 62.5259L98.0048 70.3559L99.2639 72.3134C99.8148 73.2922 100.838 73.8945 102.018 74.0451C103.985 74.3462 106.897 75.325 106.897 78.7883C106.897 84.0585 107.92 110.41 116.891 120.047C125.862 129.608 119.803 136.911 119.803 149.635C119.803 162.359 123.108 177.266 103.907 177.642C84.7058 178.019 73.2167 178.847 69.5969 158.896C68.5739 153.023 67.7082 148.581 67 145.118V166.424C67 173.502 72.7446 175.459 80.3777 179.223Z" fill="#E07E3B"/>
</g>
</g>
<g opacity="0.1" style="mix-blend-mode:overlay">
<path d="M70.9346 118.541C71.7215 117.411 72.7445 116.056 74.161 114.475C74.161 114.475 71.7215 119.821 81.2433 120.875C90.7651 121.929 103.277 122.305 112.563 120.875C112.563 120.875 103.356 123.585 107.999 124.338C112.642 125.166 114.53 124.79 114.53 124.79C114.53 124.79 99.1852 128.102 83.8402 125.392C83.8402 125.392 74.8692 123.359 71.092 128.78C69.2034 131.49 68.4951 130.21 68.3377 128.178C68.023 124.79 68.9673 121.402 70.9346 118.541Z" fill="url(#paint6_linear_2006_74444)"/>
</g>
<path d="M99.5 72.6894C108.322 72.6894 115.475 70.9366 115.475 68.7744C115.475 66.6122 108.322 64.8594 99.5 64.8594C90.6775 64.8594 83.5254 66.6122 83.5254 68.7744C83.5254 70.9366 90.6775 72.6894 99.5 72.6894Z" fill="#EFDCBB"/>
<path d="M83.5254 68.7747V55.298C83.5254 53.9428 84.1549 52.7382 85.3353 51.8347L87.6961 50.0278C88.6404 49.2749 89.8208 48.8984 91.0799 48.8984H95.8801H103.041H107.92C109.179 48.8984 110.36 49.2749 111.304 50.0278L113.665 51.8347C114.766 52.7382 115.475 53.9428 115.475 55.298V68.7747H83.5254Z" fill="#EFDCBB"/>
<g opacity="0.4" style="mix-blend-mode:overlay">
<path d="M113.035 51.9854C113.035 51.9854 112.878 54.244 111.225 54.4699C111.225 54.4699 114.137 55.8251 114.53 58.0837C114.924 60.3424 115.002 65.5373 115.002 65.5373C115.002 65.5373 115.868 54.9969 113.035 51.9854Z" fill="url(#paint7_linear_2006_74444)"/>
</g>
<g opacity="0.4" style="mix-blend-mode:overlay">
<path d="M84.4698 57.4065C84.4698 57.4065 83.2107 51.9857 89.7422 49.7271C89.7422 49.7271 87.3027 54.0938 101.231 52.7386C101.231 52.7386 93.2047 54.9973 96.4311 56.2772C96.4311 56.2772 89.3487 55.7502 88.011 54.395C86.5945 52.9645 84.4698 57.4065 84.4698 57.4065Z" fill="url(#paint8_linear_2006_74444)"/>
</g>
<g opacity="0.4" style="mix-blend-mode:overlay">
<path d="M88.2467 55.2228C91.9453 56.4274 100.287 58.3849 110.674 55.1475C111.697 54.8464 113.9 57.8579 113.9 58.912V68.3983C113.9 68.3983 97.6898 74.045 85.0203 68.3983V58.9872C85.0203 57.9332 87.3024 54.8464 88.2467 55.2228Z" fill="url(#paint9_linear_2006_74444)"/>
</g>
<g opacity="0.2" style="mix-blend-mode:overlay">
<path d="M105.166 179.148C105.166 179.148 122.321 168.532 131.056 157.314C131.056 157.314 134.125 180.503 105.166 179.148Z" fill="url(#paint10_linear_2006_74444)"/>
</g>
<g opacity="0.1" style="mix-blend-mode:overlay">
<path d="M126.885 125.241C126.885 125.241 126.019 116.658 122.084 109.731C122.006 109.807 136.013 117.787 126.885 125.241Z" fill="url(#paint11_linear_2006_74444)"/>
</g>
<path d="M88.5618 68.6991C88.5618 68.6991 86.1224 58.6857 88.0897 57.8575C90.057 57.0293 88.5618 68.6991 88.5618 68.6991Z" fill="url(#paint12_linear_2006_74444)"/>
<path d="M93.9914 69.6781C93.9914 69.6781 91.5519 59.6647 93.5193 58.8365C95.4866 58.0083 93.9914 69.6781 93.9914 69.6781Z" fill="url(#paint13_linear_2006_74444)"/>
<path d="M100.287 69.6781C100.287 69.6781 97.8473 59.6647 99.8146 58.8365C101.782 58.0083 100.287 69.6781 100.287 69.6781Z" fill="url(#paint14_linear_2006_74444)"/>
<path d="M103.907 51.9852C107.384 51.9852 110.202 51.311 110.202 50.4794C110.202 49.6478 107.384 48.9736 103.907 48.9736C100.43 48.9736 97.6114 49.6478 97.6114 50.4794C97.6114 51.311 100.43 51.9852 103.907 51.9852Z" fill="url(#paint15_linear_2006_74444)"/>
<path d="M106.11 68.6991C106.11 68.6991 103.671 58.6857 105.638 57.8575C107.605 57.0293 106.11 68.6991 106.11 68.6991Z" fill="url(#paint16_linear_2006_74444)"/>
<path d="M111.068 67.871C111.068 67.871 108.628 57.8576 110.596 57.0294C112.563 56.2012 111.068 67.871 111.068 67.871Z" fill="url(#paint17_linear_2006_74444)"/>
<path d="M99.4998 42.273C99.4998 35.8735 102.726 29.7751 103.356 23.1497C103.67 19.837 102.097 18.03 100.287 17.1266C97.9259 16.6748 95.4078 17.4277 93.6765 19.4605C92.3388 21.0416 91.7092 23.2249 91.9453 25.333L94.7782 39.3367C94.8569 40.1649 94.7782 41.5954 94.6208 42.4236L93.3618 46.3386C96.3521 51.4582 99.4998 48.2961 99.4998 42.273Z" fill="#E5352C"/>
<path d="M91.552 51.3829C91.552 52.0605 95.0931 52.5875 99.4999 52.5875C103.907 52.5875 107.448 52.0605 107.448 51.3829C107.448 51.3076 107.448 51.3076 107.369 51.2323L104.3 42.3482C104.143 41.5953 104.064 40.1648 104.064 39.4119L106.346 25.4835C106.504 23.526 105.874 21.6438 104.772 20.138L104.458 19.6863C103.356 18.2558 101.861 17.4276 100.366 17.1265C102.097 18.0299 103.671 19.9121 103.435 23.1496C102.884 29.775 99.5786 35.8734 99.5786 42.2729C99.5786 48.296 96.4309 51.4581 93.4406 46.3385L91.7094 51.2323C91.6307 51.2323 91.552 51.3076 91.552 51.3829Z" fill="#E5352C"/>
<path d="M91.552 51.3829C91.552 52.0605 95.0931 52.5875 99.4999 52.5875C103.907 52.5875 107.448 52.0605 107.448 51.3829C107.448 51.3076 107.448 51.3076 107.369 51.2323L104.3 42.3482C104.143 41.5953 104.064 40.1648 104.064 39.4119L106.346 25.4835C106.504 23.526 105.874 21.6438 104.772 20.138L104.458 19.6863C103.356 18.2558 101.861 17.4276 100.366 17.1265C102.097 18.0299 103.671 19.9121 103.435 23.1496C102.884 29.775 99.5786 35.8734 99.5786 42.2729C99.5786 48.296 96.4309 51.4581 93.4406 46.3385L91.7094 51.2323C91.6307 51.2323 91.552 51.3076 91.552 51.3829Z" fill="url(#paint18_linear_2006_74444)"/>
<g opacity="0.2" style="mix-blend-mode:overlay">
<path d="M94.621 35.1958C94.621 35.1958 89.8208 19.2346 96.431 18.7828C102.962 18.3311 94.621 35.1958 94.621 35.1958Z" fill="url(#paint19_linear_2006_74444)"/>
</g>
<g opacity="0.4" style="mix-blend-mode:overlay">
<path d="M95.8802 39.4121C95.8802 39.4121 94.385 32.2596 97.6114 30.528C100.838 28.721 95.8802 39.4121 95.8802 39.4121Z" fill="url(#paint20_linear_2006_74444)"/>
</g>
<path d="M91.3947 137.664C92.8289 137.664 93.9915 136.552 93.9915 135.179C93.9915 133.807 92.8289 132.695 91.3947 132.695C89.9605 132.695 88.7978 133.807 88.7978 135.179C88.7978 136.552 89.9605 137.664 91.3947 137.664Z" fill="url(#paint21_linear_2006_74444)"/>
<path d="M107.763 137.664C109.197 137.664 110.36 136.552 110.36 135.179C110.36 133.807 109.197 132.695 107.763 132.695C106.328 132.695 105.166 133.807 105.166 135.179C105.166 136.552 106.328 137.664 107.763 137.664Z" fill="url(#paint22_linear_2006_74444)"/>
<g opacity="0.1" style="mix-blend-mode:overlay">
<path d="M68.2591 162.208C68.2591 162.208 119.094 140.826 106.661 130.361C94.2276 119.895 118.386 103.407 118.386 103.407C118.386 103.407 102.176 126.069 109.809 130.361C117.442 134.727 135.777 144.967 68.2591 162.208Z" fill="url(#paint23_linear_2006_74444)"/>
</g>
<defs>
<linearGradient id="paint0_linear_2006_74444" x1="105.678" y1="80.3545" x2="122.547" y2="110.893" gradientUnits="userSpaceOnUse">
<stop stop-color="#E07E3B"/>
<stop offset="0.189" stop-color="#E59143"/>
<stop offset="0.4903" stop-color="#EAA94C"/>
<stop offset="0.7687" stop-color="#EEB852"/>
<stop offset="1" stop-color="#EFBD54"/>
</linearGradient>
<linearGradient id="paint1_linear_2006_74444" x1="99.507" y1="64.8972" x2="99.507" y2="72.8227" gradientUnits="userSpaceOnUse">
<stop stop-color="#4C311B"/>
<stop offset="0.8587" stop-color="#4C311B"/>
<stop offset="1" stop-color="#4C311B"/>
</linearGradient>
<linearGradient id="paint2_linear_2006_74444" x1="98.4645" y1="124.842" x2="98.4645" y2="173.016" gradientUnits="userSpaceOnUse">
<stop stop-color="#E07E3B"/>
<stop offset="0.6179" stop-color="#E9A44A"/>
<stop offset="1" stop-color="#EFBD54"/>
</linearGradient>
<linearGradient id="paint3_linear_2006_74444" x1="80.3536" y1="156.134" x2="117.014" y2="134.011" gradientUnits="userSpaceOnUse">
<stop stop-color="#E5352C"/>
<stop offset="1" stop-color="#953343"/>
</linearGradient>
<linearGradient id="paint4_linear_2006_74444" x1="89.0736" y1="74.3723" x2="89.0736" y2="125.446" gradientUnits="userSpaceOnUse">
<stop stop-color="#E07E3B"/>
<stop offset="0.189" stop-color="#E59143"/>
<stop offset="0.4903" stop-color="#EAA94C"/>
<stop offset="0.7687" stop-color="#EEB852"/>
<stop offset="1" stop-color="#EFBD54"/>
</linearGradient>
<linearGradient id="paint5_linear_2006_74444" x1="87.0684" y1="151.413" x2="87.0684" y2="72.6802" gradientUnits="userSpaceOnUse">
<stop offset="0.3862"/>
<stop offset="0.4387" stop-color="#0A0A0A"/>
<stop offset="0.5292" stop-color="#262626"/>
<stop offset="0.6468" stop-color="#545454"/>
<stop offset="0.787" stop-color="#929292"/>
<stop offset="0.9446" stop-color="#E1E1E1"/>
<stop offset="1" stop-color="white"/>
</linearGradient>
<linearGradient id="paint6_linear_2006_74444" x1="114.588" y1="122.437" x2="68.2838" y2="122.437" gradientUnits="userSpaceOnUse">
<stop offset="0.3862"/>
<stop offset="0.4387" stop-color="#0A0A0A"/>
<stop offset="0.5292" stop-color="#262626"/>
<stop offset="0.6468" stop-color="#545454"/>
<stop offset="0.787" stop-color="#929292"/>
<stop offset="0.9446" stop-color="#E1E1E1"/>
<stop offset="1" stop-color="white"/>
</linearGradient>
<linearGradient id="paint7_linear_2006_74444" x1="128.562" y1="82.7789" x2="110.782" y2="50.5915" gradientUnits="userSpaceOnUse">
<stop offset="0.5041"/>
<stop offset="0.5465" stop-color="#0A0A0A"/>
<stop offset="0.6196" stop-color="#262626"/>
<stop offset="0.7146" stop-color="#545454"/>
<stop offset="0.8279" stop-color="#929292"/>
<stop offset="0.9553" stop-color="#E1E1E1"/>
<stop offset="1" stop-color="white"/>
</linearGradient>
<linearGradient id="paint8_linear_2006_74444" x1="118.1" y1="69.023" x2="84.8651" y2="48.9672" gradientUnits="userSpaceOnUse">
<stop offset="0.5041"/>
<stop offset="0.5465" stop-color="#0A0A0A"/>
<stop offset="0.6196" stop-color="#262626"/>
<stop offset="0.7146" stop-color="#545454"/>
<stop offset="0.8279" stop-color="#929292"/>
<stop offset="0.9553" stop-color="#E1E1E1"/>
<stop offset="1" stop-color="white"/>
</linearGradient>
<linearGradient id="paint9_linear_2006_74444" x1="99.4833" y1="55.0755" x2="99.4833" y2="70.8415" gradientUnits="userSpaceOnUse">
<stop stop-color="#CCB38F"/>
<stop offset="1" stop-color="white"/>
</linearGradient>
<linearGradient id="paint10_linear_2006_74444" x1="116.412" y1="165.392" x2="122.199" y2="175.869" gradientUnits="userSpaceOnUse">
<stop offset="0.3713"/>
<stop offset="0.4251" stop-color="#0A0A0A"/>
<stop offset="0.5178" stop-color="#262626"/>
<stop offset="0.6383" stop-color="#545454"/>
<stop offset="0.7819" stop-color="#929292"/>
<stop offset="0.9433" stop-color="#E1E1E1"/>
<stop offset="1" stop-color="white"/>
</linearGradient>
<linearGradient id="paint11_linear_2006_74444" x1="122.894" y1="117.085" x2="129.616" y2="116.302" gradientUnits="userSpaceOnUse">
<stop offset="0.3713"/>
<stop offset="0.4251" stop-color="#0A0A0A"/>
<stop offset="0.5178" stop-color="#262626"/>
<stop offset="0.6383" stop-color="#545454"/>
<stop offset="0.7819" stop-color="#929292"/>
<stop offset="0.9433" stop-color="#E1E1E1"/>
<stop offset="1" stop-color="white"/>
</linearGradient>
<linearGradient id="paint12_linear_2006_74444" x1="88.2589" y1="57.8132" x2="88.2589" y2="68.6852" gradientUnits="userSpaceOnUse">
<stop stop-color="#CCB38F"/>
<stop offset="1" stop-color="white"/>
</linearGradient>
<linearGradient id="paint13_linear_2006_74444" x1="93.6926" y1="58.7767" x2="93.6926" y2="69.6486" gradientUnits="userSpaceOnUse">
<stop stop-color="#CCB38F"/>
<stop offset="1" stop-color="white"/>
</linearGradient>
<linearGradient id="paint14_linear_2006_74444" x1="99.9319" y1="58.7767" x2="99.9319" y2="69.6486" gradientUnits="userSpaceOnUse">
<stop stop-color="#CCB38F"/>
<stop offset="1" stop-color="white"/>
</linearGradient>
<linearGradient id="paint15_linear_2006_74444" x1="110.189" y1="50.4482" x2="97.6351" y2="50.4482" gradientUnits="userSpaceOnUse">
<stop stop-color="#CCB38F"/>
<stop offset="1" stop-color="white"/>
</linearGradient>
<linearGradient id="paint16_linear_2006_74444" x1="105.769" y1="57.8132" x2="105.769" y2="68.6852" gradientUnits="userSpaceOnUse">
<stop stop-color="#CCB38F"/>
<stop offset="1" stop-color="white"/>
</linearGradient>
<linearGradient id="paint17_linear_2006_74444" x1="110.708" y1="57.0234" x2="110.708" y2="67.8954" gradientUnits="userSpaceOnUse">
<stop stop-color="#CCB38F"/>
<stop offset="1" stop-color="white"/>
</linearGradient>
<linearGradient id="paint18_linear_2006_74444" x1="99.5069" y1="61.8837" x2="99.5069" y2="12.582" gradientUnits="userSpaceOnUse">
<stop stop-color="#E5352C"/>
<stop offset="1" stop-color="#953343"/>
</linearGradient>
<linearGradient id="paint19_linear_2006_74444" x1="95.9107" y1="35.1658" x2="95.9107" y2="18.735" gradientUnits="userSpaceOnUse">
<stop offset="0.0684071"/>
<stop offset="0.1481" stop-color="#0A0A0A"/>
<stop offset="0.2855" stop-color="#262626"/>
<stop offset="0.464" stop-color="#545454"/>
<stop offset="0.6768" stop-color="#929292"/>
<stop offset="0.916" stop-color="#E1E1E1"/>
<stop offset="1" stop-color="white"/>
</linearGradient>
<linearGradient id="paint20_linear_2006_74444" x1="97.1447" y1="39.3745" x2="97.1447" y2="30.2713" gradientUnits="userSpaceOnUse">
<stop offset="0.0684071"/>
<stop offset="0.1481" stop-color="#0A0A0A"/>
<stop offset="0.2855" stop-color="#262626"/>
<stop offset="0.464" stop-color="#545454"/>
<stop offset="0.6768" stop-color="#929292"/>
<stop offset="0.916" stop-color="#E1E1E1"/>
<stop offset="1" stop-color="white"/>
</linearGradient>
<linearGradient id="paint21_linear_2006_74444" x1="89.0856" y1="136.427" x2="93.5488" y2="133.733" gradientUnits="userSpaceOnUse">
<stop stop-color="#E5352C"/>
<stop offset="1" stop-color="#953343"/>
</linearGradient>
<linearGradient id="paint22_linear_2006_74444" x1="105.514" y1="136.427" x2="109.978" y2="133.733" gradientUnits="userSpaceOnUse">
<stop stop-color="#E5352C"/>
<stop offset="1" stop-color="#953343"/>
</linearGradient>
<linearGradient id="paint23_linear_2006_74444" x1="121.059" y1="104.957" x2="84.4833" y2="171.171" gradientUnits="userSpaceOnUse">
<stop/>
<stop offset="0.0410638" stop-color="#0A0A0A"/>
<stop offset="0.1119" stop-color="#262626"/>
<stop offset="0.2039" stop-color="#545454"/>
<stop offset="0.3136" stop-color="#929292"/>
<stop offset="0.4369" stop-color="#E1E1E1"/>
<stop offset="0.4802" stop-color="white"/>
<stop offset="0.5246" stop-color="#F5F5F5"/>
<stop offset="0.6013" stop-color="#D9D9D9"/>
<stop offset="0.7009" stop-color="#ABABAB"/>
<stop offset="0.8197" stop-color="#6D6D6D"/>
<stop offset="0.9531" stop-color="#1E1E1E"/>
<stop offset="1"/>
</linearGradient>
</defs>
</svg>
