<svg width="200" height="200" viewBox="0 0 200 200" fill="none" xmlns="http://www.w3.org/2000/svg">
<path d="M72 59.9736V175.109C72 179.197 84.4757 183 99.9531 183C115.43 183 127.906 178.341 127.906 174.063V59.9736H72Z" fill="url(#paint0_linear_2003_16185)"/>
<g opacity="0.8" style="mix-blend-mode:overlay">
<path d="M96.4824 180.528C96.1072 180.528 95.732 180.528 95.4506 180.528C78.3786 179.482 74.2513 174.253 74.2513 166.932C74.2513 159.612 73.6884 63.3963 73.6884 63.3963C73.6884 63.3963 81.2864 67.8648 98.5461 67.8648C103.987 67.8648 110.365 67.3894 117.776 66.2485C117.963 66.2485 118.057 66.2485 118.151 66.2485C123.497 66.2485 123.591 81.9358 123.966 114.166C124.248 146.872 126.405 180.528 96.4824 180.528ZM72 59.9736V175.109C72 179.197 84.4757 183 99.9531 183C99.8593 183 99.7655 183 99.6717 183C126.312 181.098 126.593 155.238 126.687 134.417C126.874 111.314 126.781 79.4639 126.218 68.8156C126.124 66.1535 124.717 64.1569 122.747 62.6357C117.682 63.9668 109.333 65.1077 99.8593 65.1077C84.4757 65.0126 72 62.0653 72 59.9736Z" fill="#643205"/>
</g>
<g opacity="0.8" style="mix-blend-mode:overlay">
<path d="M127.906 59.9736C127.906 60.8293 126.03 61.78 122.841 62.6357C124.811 64.1569 126.218 66.1535 126.312 68.8156C126.781 79.4639 126.874 111.314 126.781 134.417C126.687 155.238 126.405 181.098 99.7656 183C99.8594 183 99.9532 183 100.047 183C115.524 183 128 178.341 128 174.063V59.9736H127.906Z" fill="#9A3903"/>
</g>
<path d="M127.906 59.9737C127.906 62.0654 115.43 65.0127 99.9531 65.0127C84.4757 65.0127 72 62.0654 72 59.9737C72 57.8821 84.4757 56.0757 99.9531 56.0757C115.337 56.0757 127.906 57.787 127.906 59.9737Z" fill="#FFD14F"/>
<path d="M118.901 57.1216V57.5019C122.184 58.0723 124.06 58.8329 124.06 59.5935C124.06 61.3999 113.273 63.9669 99.9531 63.9669C86.6332 63.9669 75.8459 61.3999 75.8459 59.5935C75.8459 58.8329 77.5343 58.1674 80.4422 57.692V57.3117C75.1893 57.8822 72 58.8329 72 59.9738C72 62.0655 84.4757 65.0128 99.9531 65.0128C115.43 65.0128 127.906 62.0655 127.906 59.9738C127.906 58.8329 124.436 57.7871 118.901 57.1216Z" fill="#E19915"/>
<path d="M80.3484 47.0435V58.1672C80.3484 59.3081 88.9783 61.4948 99.5779 61.4948C110.178 61.4948 118.807 59.213 118.807 58.1672V47.0435H80.3484Z" fill="#FBDC7C"/>
<path d="M99.7655 60.6391C99.2027 60.6391 98.6399 60.6391 98.0771 60.6391C88.8845 59.8785 79.8794 60.2588 81.4741 48.8499C81.4741 48.8499 86.0704 51.3218 97.5143 51.3218C101.642 51.3218 106.707 51.0366 112.71 50.0858C112.804 50.0858 112.804 50.0858 112.898 50.0858C114.211 50.0858 115.524 52.7479 114.305 55.41C113.085 57.977 109.052 60.6391 99.7655 60.6391ZM80.3484 47.0435V58.1672C80.3484 59.3081 88.9783 61.4948 99.5779 61.4948C110.084 61.4948 118.714 59.3081 118.807 58.1672C118.714 58.8327 115.806 59.7834 111.397 60.544C115.618 59.0228 117.025 56.5509 117.025 52.843C117.025 50.9415 116.462 49.5154 115.712 48.4696C112.241 49.4203 106.332 50.3711 99.4841 50.3711C88.9783 50.3711 80.3484 48.1844 80.3484 47.0435Z" fill="#F7BE3C"/>
<path d="M118.901 47.0435C118.901 47.4238 117.776 47.9942 115.806 48.5646C116.556 49.7055 117.119 51.1317 117.119 52.9381C117.119 56.646 115.712 59.1179 111.491 60.6391C115.899 59.8785 118.807 58.9278 118.901 58.2622V57.1213V47.0435Z" fill="#F3A41D"/>
<path d="M118.901 47.0433C118.901 48.1842 110.271 50.3709 99.6717 50.3709C89.0721 50.3709 80.4423 48.1842 80.4423 47.0433C80.4423 45.9024 89.0721 44.2861 99.6717 44.2861C110.271 44.2861 118.901 45.9024 118.901 47.0433Z" fill="#E9C255"/>
<path d="M107.082 44.5713C107.082 44.6664 107.082 44.6664 107.176 44.7614C112.616 45.2368 116.369 46.0925 116.369 46.8531C116.369 47.8038 108.864 49.8004 99.6717 49.8004C90.4791 49.8004 82.9749 47.8989 82.9749 46.8531C82.9749 46.1876 86.0704 45.427 90.7605 44.9516C90.7605 44.8565 90.7605 44.8565 90.8543 44.7614C84.6634 45.3319 80.4423 46.3777 80.4423 47.1383C80.4423 48.2792 89.0721 50.4659 99.6717 50.4659C110.271 50.4659 118.901 48.2792 118.901 47.1383C118.901 46.1876 114.024 45.0467 107.082 44.5713Z" fill="#D5941C"/>
<path d="M107.27 45.0471C107.27 45.0471 105.394 40.1032 104.549 33.353C103.705 26.6977 103.142 18.4263 103.142 18.4263H93.2932C93.2932 18.4263 93.9498 34.4939 90.5729 45.0471H90.7605C90.6667 45.1422 90.6667 45.2373 90.6667 45.4274C90.6667 46.7585 94.4188 47.8993 99.0151 47.8993C103.611 47.8993 107.364 46.7585 107.364 45.4274C107.364 45.3323 107.364 45.1422 107.27 45.0471Z" fill="#FBDC7C"/>
<path d="M103.142 18.4261C103.142 19.2818 100.985 19.8522 98.2648 19.8522C95.5445 19.8522 93.387 19.1867 93.387 18.4261C93.2932 17.6655 95.5445 17 98.2648 17C100.985 17 103.142 17.6655 103.142 18.4261Z" fill="#FBDC7C"/>
<path d="M94.794 18.6165C94.4188 18.5215 94.2312 18.3313 94.2312 18.1412C94.2312 17.6658 96.0134 17.2855 98.2647 17.2855C100.516 17.2855 102.298 17.6658 102.298 18.1412C102.298 18.3313 102.111 18.4264 101.735 18.6165C100.985 18.9018 99.6717 19.0919 98.2647 19.0919C96.7638 19.0919 95.5444 18.9018 94.794 18.6165ZM98.2647 17.1904C95.8258 17.1904 93.856 17.6658 93.856 18.3313C93.856 18.9968 95.8258 19.4722 98.2647 19.4722C100.704 19.4722 102.673 18.9968 102.673 18.3313C102.673 17.6658 100.704 17.1904 98.2647 17.1904Z" fill="#F7BE3C"/>
<path d="M98.2646 17.3799C96.0133 17.3799 94.2311 17.7602 94.2311 18.2356C94.2311 18.4257 94.4187 18.5208 94.7939 18.7109C95.4505 18.5208 96.7637 18.3306 98.1708 18.3306C99.5778 18.3306 100.891 18.5208 101.548 18.7109C101.923 18.6159 102.11 18.4257 102.11 18.2356C102.204 17.7602 100.422 17.3799 98.2646 17.3799Z" fill="#F3A41D"/>
<path d="M98.2647 18.2358C96.8577 18.2358 95.5444 18.426 94.8878 18.6161C95.5444 18.9014 96.7639 19.0915 98.2647 19.0915C99.6717 19.0915 100.985 18.9014 101.642 18.7112C100.985 18.426 99.6717 18.2358 98.2647 18.2358Z" fill="#EF8D0E"/>
<g opacity="0.6" style="mix-blend-mode:soft-light">
<path d="M80.4348 69C78.0529 69 76.3205 69.1902 76.2123 69.8557C75.7792 72.1377 74.1552 131.374 75.5627 153.052C75.6709 155.049 75.7792 156 75.7792 156C75.9957 156 75.4544 134.607 77.8363 113.213C80.11 91.8197 85.3069 70.4262 96.6752 70.4262C96.7835 70.4262 96.8917 70.4262 97 70.4262C97 70.4262 86.4979 69 80.4348 69Z" fill="#F8D25C"/>
</g>
<path opacity="0.8" d="M77.7141 72.6189C77.7141 72.6189 75.9072 93.7255 76.5643 102.853C77.2213 111.98 80.3422 68.5307 77.7141 72.6189Z" fill="white"/>
<path d="M93.4808 19.377C93.4808 19.6622 93.4808 19.2819 93.4808 19.9474C94.5126 20.4228 96.201 21.6587 98.6399 21.6587C98.9213 21.6587 99.2027 21.6587 99.5779 21.5637H99.6717C101.829 21.5637 100.891 28.5992 102.298 36.7756C103.33 42.5751 99.6717 46.6633 95.263 46.6633C93.7622 46.6633 92.2613 46.1879 90.7605 45.2372V45.3323C90.7605 46.6633 94.325 47.7091 98.8275 47.7091C103.236 47.7091 106.895 46.6633 106.895 45.3323C106.895 45.2372 106.895 45.0471 106.801 44.952H106.895C106.895 44.952 105.112 40.1983 104.268 33.6381C103.893 30.4056 103.518 27.078 103.236 23.8455C103.142 22.7996 103.142 21.8489 102.955 20.8031C102.861 19.9474 102.58 19.6622 102.111 19.6622C101.829 19.6622 101.548 19.7573 101.173 19.7573C99.7655 20.0425 98.9213 20.2326 97.9833 20.2326C97.2329 20.2326 96.3886 20.1375 95.0754 19.9474C94.9816 19.9474 93.4808 19.5671 93.4808 19.377Z" fill="#F7BE3C"/>
<path d="M94.0435 20.8984C93.8559 20.8984 93.7621 20.9935 93.7621 21.1837C93.7621 21.9443 93.8559 33.163 92.0737 40.8641C91.3233 44.572 91.4171 45.5227 93.4807 45.8079C93.8559 45.903 94.0435 45.903 94.1373 45.903C94.5126 45.903 92.3551 45.1424 92.5427 42.2902C92.7303 38.8675 93.5745 36.4906 93.9497 30.6911C94.3249 25.462 93.6683 21.659 95.4506 21.659C95.6382 21.659 95.8258 21.659 96.1072 21.7541C96.201 21.7541 94.7002 20.8984 94.0435 20.8984Z" fill="#FFF9E8"/>
<path d="M82.5058 49.9912C81.0988 49.9912 81.474 57.8824 89.4472 59.1184C89.6348 59.1184 89.8224 59.1184 89.8224 59.1184C90.2914 59.1184 85.1323 57.8824 85.0385 55.0302C84.8509 51.8927 89.541 51.3223 89.541 51.3223C89.541 51.3223 86.2579 51.037 82.5996 49.9912C82.5996 49.9912 82.5996 49.9912 82.5058 49.9912Z" fill="#FFF9E8"/>
<defs>
<linearGradient id="paint0_linear_2003_16185" x1="99.9531" y1="59.9736" x2="99.9531" y2="183" gradientUnits="userSpaceOnUse">
<stop stop-color="#FFE69A"/>
<stop offset="0.44" stop-color="#FBDC7C"/>
<stop offset="0.96" stop-color="#FAD35B"/>
</linearGradient>
</defs>
</svg>
