<svg width="200" height="200" viewBox="0 0 200 200" fill="none" xmlns="http://www.w3.org/2000/svg">
<path d="M45.9896 165.105C43.9203 152.242 51.6275 57.7631 51.6575 57.6121C53.9367 41.4881 68.6013 36.5664 68.6013 36.5664H129.359C129.359 36.5664 145.313 40.7031 147.173 56.7062C147.203 56.8874 155.78 145.086 154.28 162.327C152.661 180.927 141.325 183.01 100.63 182.86C65.3325 182.739 49.3783 186.181 45.9896 165.105Z" fill="#E09E22"/>
<path d="M45.9896 163.595C43.9203 150.883 51.6275 57.5215 51.6575 57.3705C53.9367 41.4579 68.6013 36.5664 68.6013 36.5664H129.359C129.359 36.5664 145.313 40.6427 147.173 56.4647C147.203 56.6459 155.78 143.818 154.28 160.848C152.661 179.236 141.325 181.289 100.63 181.138C65.3325 181.018 49.3783 184.43 45.9896 163.595Z" fill="url(#paint0_linear_2006_76566)"/>
<g opacity="0.2" style="mix-blend-mode:overlay">
<path d="M149.152 104.172C153.68 163.263 160.248 177.575 124.981 178.904C116.314 179.236 99.97 179.809 88.1543 179.809C127.23 179.84 149.152 143.455 149.152 104.172Z" fill="#BF7E04"/>
</g>
<path d="M64.7329 37.7137V30.165H133.678V37.7137C133.678 38.7705 132.718 39.616 131.519 39.616H66.8921C65.7226 39.616 64.7329 38.7705 64.7329 37.7137Z" fill="#BF7E04"/>
<path d="M133.678 29.1987H64.7329V38.6497H133.678V29.1987Z" fill="url(#paint1_linear_2006_76566)"/>
<g opacity="0.2" style="mix-blend-mode:overlay">
<path d="M47.9689 160.726L53.277 65.1902C54.8364 46.2883 61.494 41.578 68.5714 40.4004H92.5027C85.6052 52.2971 83.9858 62.986 83.9858 70.8668C83.9858 161.964 88.4242 178.481 88.4242 178.481C88.4242 178.481 71.9302 178.722 66.4122 178.481C51.4476 177.816 47.9689 167.49 47.9689 160.726Z" fill="url(#paint2_linear_2006_76566)"/>
</g>
<g opacity="0.2" style="mix-blend-mode:overlay">
<path d="M152.151 157.677L147.053 64.6476C146.213 44.4172 133.378 41.1863 129.299 39.6162L120.932 39.7974C125.521 51.6941 124.981 62.6547 124.981 70.5657V177.938C124.981 177.938 133.888 177.183 137.516 176.247C151.101 172.805 152.151 164.441 152.151 157.677Z" fill="url(#paint3_linear_2006_76566)"/>
</g>
<path d="M55.3763 54.109C70.5207 54.9242 94.0622 54.7733 109.237 55.1658C124.231 55.5281 135.177 55.5281 145.643 53.958C115.774 55.2564 85.8752 54.26 55.3763 54.109Z" fill="url(#paint4_linear_2006_76566)"/>
<g opacity="0.2" style="mix-blend-mode:overlay">
<path d="M131.519 29.3193H123.901V38.1664H131.519V29.3193Z" fill="url(#paint5_linear_2006_76566)"/>
</g>
<g opacity="0.2" style="mix-blend-mode:overlay">
<path d="M95.1717 29.5005H65.5125V38.3475H95.1717V29.5005Z" fill="url(#paint6_linear_2006_76566)"/>
</g>
<path d="M61.9137 29.8934V26.6927C61.9137 26.1492 62.3636 25.6963 62.9034 25.6963H135.567C136.107 25.6963 136.557 26.1492 136.557 26.6927V29.8934C136.557 30.4369 136.107 30.8898 135.567 30.8898H62.8734C62.3336 30.8596 61.9137 30.4369 61.9137 29.8934Z" fill="url(#paint7_linear_2006_76566)"/>
<path d="M62.7535 25.2735V23.0693C62.7535 22.7372 63.0234 22.4956 63.3233 22.4956H135.297C135.627 22.4956 135.867 22.7674 135.867 23.0693V25.2735C135.867 25.6056 135.597 25.8472 135.297 25.8472H63.3233C62.9935 25.8472 62.7535 25.5755 62.7535 25.2735Z" fill="url(#paint8_linear_2006_76566)"/>
<g opacity="0.2" style="mix-blend-mode:overlay">
<path d="M134.307 25.9375H121.682V30.5875H134.307V25.9375Z" fill="url(#paint9_linear_2006_76566)"/>
</g>
<g opacity="0.2" style="mix-blend-mode:overlay">
<path d="M133.768 22.375H124.261V25.5756H133.768V22.375Z" fill="url(#paint10_linear_2006_76566)"/>
</g>
<path d="M60.8041 22.4048V18.9023C60.8041 17.8454 61.6438 17 62.6935 17H135.717C136.767 17 137.606 17.8454 137.606 18.9023V22.4048C137.606 22.5558 137.486 22.6766 137.336 22.6766H61.104C60.9241 22.6766 60.8041 22.5558 60.8041 22.4048Z" fill="url(#paint11_linear_2006_76566)"/>
<g opacity="0.4" style="mix-blend-mode:overlay">
<path d="M104.078 17.9961H66.5021V21.8006H104.078V17.9961Z" fill="url(#paint12_linear_2006_76566)"/>
</g>
<g opacity="0.2" style="mix-blend-mode:overlay">
<path d="M96.3413 25.9375H63.6531V30.5875H96.3413V25.9375Z" fill="url(#paint13_linear_2006_76566)"/>
</g>
<g opacity="0.2" style="mix-blend-mode:overlay">
<path d="M95.5017 22.6768H64.7329V25.6962H95.5017V22.6768Z" fill="url(#paint14_linear_2006_76566)"/>
</g>
<g opacity="0.4" style="mix-blend-mode:overlay">
<path d="M123.931 21.7401V17.9355H135.087C135.777 17.9355 136.347 18.5092 136.347 19.2037V21.5589C136.347 21.6495 136.257 21.7401 136.167 21.7401H123.931Z" fill="url(#paint15_linear_2006_76566)"/>
</g>
<path d="M45.1799 156.258L51.4177 57.0381C51.4177 57.0381 57.8653 65.7643 97.8108 65.7643C139.136 65.7643 148.073 64.0131 148.073 64.0131L154.46 156.258C154.46 156.258 133.528 161.089 100.42 161.089C66.4122 161.089 45.1799 156.258 45.1799 156.258Z" fill="#CE8D13"/>
<path d="M45 155.805L51.2077 56.4946C62.5136 59.031 138.866 58.6384 147.863 57.0381L155 155.684C155 155.684 132.208 159.942 99.1303 159.942C65.1227 159.972 45 155.805 45 155.805Z" fill="url(#paint16_linear_2006_76566)"/>
<g opacity="0.6588" style="mix-blend-mode:overlay">
<path d="M45.7798 155.201L52.7973 58.4268C69.5912 59.1514 80.3872 60.2082 85.3054 60.1177C85.3054 60.1177 82.5764 101.907 82.9363 113.139C83.9859 146.112 85.1855 158.492 85.1855 158.492C85.1855 158.492 73.5797 158.552 64.2231 157.677C60.0846 157.314 45.7798 155.201 45.7798 155.201Z" fill="url(#paint17_linear_2006_76566)"/>
</g>
<g opacity="0.2" style="mix-blend-mode:overlay">
<path d="M124.081 25.8472C116.044 26.0585 107.887 25.8472 99.8501 25.968C98.1407 25.9981 98.5005 26.9946 99.5502 26.9946C107.527 26.9946 115.474 27.1153 123.451 27.055C123.751 27.055 124.051 27.055 124.321 26.9342C124.591 26.8436 124.831 26.602 124.831 26.3303C124.831 26.0585 124.501 25.8472 124.081 25.8472Z" fill="url(#paint18_linear_2006_76566)"/>
</g>
<g opacity="0.1" style="mix-blend-mode:overlay">
<path d="M108.697 177.545C80.8969 179.508 57.2655 174.646 61.0741 178.511C61.7038 179.145 77.1482 181.893 107.917 180.504C108.607 180.474 109.357 180.413 109.956 180.081C110.586 179.749 111.036 179.024 110.886 178.33C110.736 177.605 109.776 177.454 108.697 177.545Z" fill="url(#paint19_linear_2006_76566)"/>
</g>
<g opacity="0.2" style="mix-blend-mode:overlay">
<path d="M70.3109 41.7292C66.2024 37.9549 60.0547 43.088 56.9958 47.4662C53.9069 51.8142 52.5274 60.5405 52.8573 66.0359C52.8872 66.519 52.9472 67.0323 53.2171 67.4249C53.487 67.8174 54.0868 67.9986 54.4167 67.6966C54.6866 67.4551 54.6866 67.0323 54.7166 66.67C54.8965 60.8122 58.3153 54.6827 62.7837 51.2707C65.5427 49.0967 72.6501 43.9334 70.3109 41.7292Z" fill="url(#paint20_linear_2006_76566)"/>
</g>
<g opacity="0.2" style="mix-blend-mode:overlay">
<path d="M110.916 31.0706C105.878 30.8894 100.87 30.8894 95.8316 31.0404C94.9019 31.0706 94.9319 31.7349 95.8616 31.765C100.66 31.916 105.428 31.8858 110.226 31.7348C110.466 31.7348 110.736 31.7047 110.916 31.5537C111.096 31.4027 111.006 31.0404 110.916 31.0706Z" fill="url(#paint21_linear_2006_76566)"/>
</g>
<path d="M98.3206 82.6133C113.165 82.6133 126.48 83.3983 136.557 86.0857C138.026 86.4782 139.016 87.535 139.016 88.7428V119.179C139.016 120.357 138.056 121.413 136.617 121.836C126.54 124.674 113.225 125.731 98.2906 125.731C85.0954 125.731 72.9498 125.097 63.2334 123.074C61.6439 122.742 60.5643 121.625 60.5643 120.357V88.7428C60.5643 87.4746 61.6739 85.6025 63.2334 85.2704C72.9798 83.2776 85.1254 82.6133 98.3206 82.6133Z" fill="url(#paint22_linear_2006_76566)"/>
<path d="M62.6634 88.9236V88.1687C77.2381 86.1155 123.541 86.1759 137.006 88.1687V88.9236C137.006 88.9236 122.822 87.4139 100.15 87.4139C77.478 87.4139 62.6634 88.9236 62.6634 88.9236Z" fill="#E7EAE9"/>
<path d="M62.6634 119.542V120.296C77.2381 122.35 123.541 122.289 137.006 120.296V119.542C137.006 119.542 122.822 121.051 100.15 121.051C77.478 121.051 62.6634 119.542 62.6634 119.542Z" fill="#E7EAE9"/>
<g opacity="0.749">
<path d="M72.2 106.738V99.1294H74.4792L75.8587 104.323L77.2082 99.1294H79.4874V106.738H78.0779V100.76L76.5785 106.738H75.109L73.6095 100.76V106.738H72.2Z" fill="white"/>
<path d="M82.0665 99.1294H83.5959C83.5959 102.934 83.5659 104.142 83.6559 104.534C83.7158 104.836 83.8658 105.108 84.1357 105.289C84.7655 105.772 86.3249 105.712 86.5348 104.655C86.6248 104.112 86.5948 103.326 86.5948 99.1596H88.1243C88.1243 103.055 88.1542 104.353 88.0043 105.108C87.8543 105.833 87.4345 106.376 86.6548 106.678C85.8451 107.01 84.2557 106.98 83.5659 106.648C82.8462 106.316 82.3963 105.742 82.2464 105.138C82.0065 104.262 82.0665 103.145 82.0665 99.1294Z" fill="white"/>
<path d="M90.3734 104.263L91.8729 104.112C91.9628 104.625 92.1428 104.987 92.4127 105.229C93.0125 105.742 94.182 105.652 94.6319 105.259C95.0817 104.866 95.0817 104.353 94.8418 104.051C94.362 103.477 92.2627 103.477 91.3331 102.632C90.1935 101.605 90.4934 99.8542 91.9029 99.2503C92.8625 98.8577 94.6619 98.8577 95.5315 99.6126C96.0114 100.035 96.2513 100.579 96.2813 101.303L94.7518 101.364C94.6319 100.549 94.212 100.277 93.3723 100.277C92.8025 100.277 92.0828 100.458 92.0828 101.032C92.0828 102.24 95.1717 101.666 96.1913 103.327C96.5811 103.93 96.6411 104.957 96.1313 105.772C95.5615 106.678 94.5119 106.89 93.4623 106.89C91.603 106.89 90.5833 105.984 90.3734 104.263Z" fill="white"/>
<path d="M100.57 106.738V100.428H98.3205V99.1294H104.318V100.428H102.099V106.738H100.57Z" fill="white"/>
<path d="M112.415 106.738H110.766L110.106 105.017H107.077L106.448 106.738H104.828L107.767 99.1294H109.387L112.415 106.738ZM109.597 103.719L108.547 100.881L107.527 103.719H109.597Z" fill="white"/>
<path d="M114.275 106.739V99.1297C117.453 99.1297 118.533 99.0694 119.253 99.3411C120.542 99.8242 120.842 101.696 119.973 102.693C119.643 103.055 119.133 103.297 118.473 103.387C119.403 103.931 119.553 104.293 121.082 106.739H119.253C117.064 103.478 117.364 103.568 115.804 103.568V106.739H114.275ZM115.804 102.361C116.584 102.361 117.963 102.391 118.293 102.27C118.653 102.149 118.863 101.847 118.863 101.364C118.863 100.851 118.563 100.519 118.083 100.458C117.843 100.428 116.644 100.428 115.774 100.428V102.361H115.804Z" fill="white"/>
<path d="M122.942 99.1298C125.701 99.1298 126.54 99.0996 127.17 99.2808C128.1 99.5525 128.729 100.277 129.029 101.213C129.329 102.119 129.389 103.629 129.059 104.625C128.669 105.742 128.07 106.286 127.17 106.588C126.48 106.799 125.731 106.739 122.942 106.739V99.1298ZM124.471 100.428V105.471C125.91 105.471 126.63 105.561 127.14 105.078C127.62 104.625 127.68 103.568 127.68 102.934C127.68 102.21 127.62 101.334 127.08 100.851C126.57 100.338 125.761 100.428 124.471 100.428Z" fill="white"/>
</g>
<defs>
<linearGradient id="paint0_linear_2006_76566" x1="165.024" y1="226.543" x2="42.3456" y2="20.5755" gradientUnits="userSpaceOnUse">
<stop stop-color="#BF7E04"/>
<stop offset="0.0567668" stop-color="#C78704"/>
<stop offset="0.2355" stop-color="#DA9C05"/>
<stop offset="0.4333" stop-color="#E7AB05"/>
<stop offset="0.663" stop-color="#F0B405"/>
<stop offset="1" stop-color="#F2B705"/>
</linearGradient>
<linearGradient id="paint1_linear_2006_76566" x1="154.505" y1="33.9299" x2="64.0767" y2="33.9299" gradientUnits="userSpaceOnUse">
<stop stop-color="#BF7E04"/>
<stop offset="0.1024" stop-color="#CE8F04"/>
<stop offset="0.274" stop-color="#E2A505"/>
<stop offset="0.4383" stop-color="#EEB205"/>
<stop offset="0.586" stop-color="#F2B705"/>
<stop offset="1" stop-color="#BF7E04"/>
</linearGradient>
<linearGradient id="paint2_linear_2006_76566" x1="98.5504" y1="109.509" x2="33.5254" y2="109.509" gradientUnits="userSpaceOnUse">
<stop stop-color="#BF7E04"/>
<stop offset="0.078079" stop-color="#C48304"/>
<stop offset="0.6814" stop-color="#E5A905"/>
<stop offset="1" stop-color="#F2B705"/>
</linearGradient>
<linearGradient id="paint3_linear_2006_76566" x1="163.806" y1="108.788" x2="62.852" y2="108.788" gradientUnits="userSpaceOnUse">
<stop stop-color="#F2B705"/>
<stop offset="0.2324" stop-color="#EFC546"/>
<stop offset="0.5049" stop-color="#ECD58B"/>
<stop offset="0.733" stop-color="#E9E0BE"/>
<stop offset="0.9046" stop-color="#E8E7DD"/>
<stop offset="1" stop-color="#E7EAE9"/>
</linearGradient>
<linearGradient id="paint4_linear_2006_76566" x1="101.415" y1="45.2631" x2="99.414" y2="64.4231" gradientUnits="userSpaceOnUse">
<stop stop-color="#F2B705"/>
<stop offset="0.0742188" stop-color="#F2BA10"/>
<stop offset="0.3427" stop-color="#F2C334"/>
<stop offset="0.5946" stop-color="#F2CA4E"/>
<stop offset="0.821" stop-color="#F2CE5E"/>
<stop offset="1" stop-color="#F2CF63"/>
</linearGradient>
<linearGradient id="paint5_linear_2006_76566" x1="96.7725" y1="33.7531" x2="145.993" y2="33.7531" gradientUnits="userSpaceOnUse">
<stop stop-color="white"/>
<stop offset="0.2811" stop-color="#FCF3D7"/>
<stop offset="0.9095" stop-color="#F3D472"/>
<stop offset="1" stop-color="#F2CF63"/>
</linearGradient>
<linearGradient id="paint6_linear_2006_76566" x1="137.461" y1="33.9297" x2="63.6553" y2="33.9297" gradientUnits="userSpaceOnUse">
<stop stop-color="#F2CF63"/>
<stop offset="0.3705" stop-color="#F2C743"/>
<stop offset="1" stop-color="#F2B705"/>
</linearGradient>
<linearGradient id="paint7_linear_2006_76566" x1="139.837" y1="38.0971" x2="75.1058" y2="22.67" gradientUnits="userSpaceOnUse">
<stop stop-color="#BF7E04"/>
<stop offset="1" stop-color="#F2B705"/>
</linearGradient>
<linearGradient id="paint8_linear_2006_76566" x1="118.878" y1="30.07" x2="75.9945" y2="17.3039" gradientUnits="userSpaceOnUse">
<stop stop-color="#BF7E04"/>
<stop offset="1" stop-color="#F2B705"/>
</linearGradient>
<linearGradient id="paint9_linear_2006_76566" x1="76.6775" y1="28.2827" x2="158.304" y2="28.2827" gradientUnits="userSpaceOnUse">
<stop stop-color="white"/>
<stop offset="0.2811" stop-color="#FCF3D7"/>
<stop offset="0.9095" stop-color="#F3D472"/>
<stop offset="1" stop-color="#F2CF63"/>
</linearGradient>
<linearGradient id="paint10_linear_2006_76566" x1="90.3845" y1="23.986" x2="151.807" y2="23.986" gradientUnits="userSpaceOnUse">
<stop stop-color="white"/>
<stop offset="0.2811" stop-color="#FCF3D7"/>
<stop offset="0.9095" stop-color="#F3D472"/>
<stop offset="1" stop-color="#F2CF63"/>
</linearGradient>
<linearGradient id="paint11_linear_2006_76566" x1="60.8146" y1="19.8335" x2="137.618" y2="19.8335" gradientUnits="userSpaceOnUse">
<stop stop-color="#B7B7BA"/>
<stop offset="0.00674468" stop-color="#BBBBBE"/>
<stop offset="0.0501715" stop-color="#CFD1D2"/>
<stop offset="0.101" stop-color="#DFE2E1"/>
<stop offset="0.1644" stop-color="#EAEDEC"/>
<stop offset="0.2533" stop-color="#F0F4F2"/>
<stop offset="0.5" stop-color="#F2F6F4"/>
<stop offset="0.7467" stop-color="#F0F4F2"/>
<stop offset="0.8356" stop-color="#EAEDEC"/>
<stop offset="0.899" stop-color="#DFE2E1"/>
<stop offset="0.9498" stop-color="#CFD1D2"/>
<stop offset="0.9933" stop-color="#BBBBBE"/>
<stop offset="1" stop-color="#B7B7BA"/>
</linearGradient>
<linearGradient id="paint12_linear_2006_76566" x1="105.21" y1="19.9043" x2="65.1015" y2="19.9043" gradientUnits="userSpaceOnUse">
<stop stop-color="#EBEAE7"/>
<stop offset="0.5038" stop-color="#E9E8E5"/>
<stop offset="0.6853" stop-color="#E2E2E0"/>
<stop offset="0.8146" stop-color="#D7D6D5"/>
<stop offset="0.9184" stop-color="#C6C6C7"/>
<stop offset="0.9823" stop-color="#B7B7BA"/>
</linearGradient>
<linearGradient id="paint13_linear_2006_76566" x1="97.367" y1="29.9714" x2="33.3626" y2="23.8358" gradientUnits="userSpaceOnUse">
<stop stop-color="#F2CF63"/>
<stop offset="0.3705" stop-color="#F2C743"/>
<stop offset="1" stop-color="#F2B705"/>
</linearGradient>
<linearGradient id="paint14_linear_2006_76566" x1="90.6959" y1="25.2812" x2="63.0606" y2="22.4568" gradientUnits="userSpaceOnUse">
<stop stop-color="#F2CF63"/>
<stop offset="0.3705" stop-color="#F2C743"/>
<stop offset="1" stop-color="#F2B705"/>
</linearGradient>
<linearGradient id="paint15_linear_2006_76566" x1="121.429" y1="19.833" x2="142.611" y2="19.833" gradientUnits="userSpaceOnUse">
<stop stop-color="#EBEAE7"/>
<stop offset="0.5038" stop-color="#E9E8E5"/>
<stop offset="0.6853" stop-color="#E2E2E0"/>
<stop offset="0.8146" stop-color="#D7D6D5"/>
<stop offset="0.9184" stop-color="#C6C6C7"/>
<stop offset="0.9823" stop-color="#B7B7BA"/>
</linearGradient>
<linearGradient id="paint16_linear_2006_76566" x1="45.0083" y1="108.227" x2="155.002" y2="108.227" gradientUnits="userSpaceOnUse">
<stop stop-color="#B7B7BA"/>
<stop offset="0.00674468" stop-color="#BBBBBE"/>
<stop offset="0.0501715" stop-color="#CFD1D2"/>
<stop offset="0.101" stop-color="#DFE2E1"/>
<stop offset="0.1644" stop-color="#EAEDEC"/>
<stop offset="0.2533" stop-color="#F0F4F2"/>
<stop offset="0.5" stop-color="#F2F6F4"/>
<stop offset="0.7467" stop-color="#F0F4F2"/>
<stop offset="0.8356" stop-color="#EAEDEC"/>
<stop offset="0.899" stop-color="#DFE2E1"/>
<stop offset="0.9498" stop-color="#CFD1D2"/>
<stop offset="0.9933" stop-color="#BBBBBE"/>
<stop offset="1" stop-color="#B7B7BA"/>
</linearGradient>
<linearGradient id="paint17_linear_2006_76566" x1="46.5982" y1="108.46" x2="136.441" y2="108.46" gradientUnits="userSpaceOnUse">
<stop stop-color="white"/>
<stop offset="0.4804" stop-color="#FDFDFD"/>
<stop offset="0.6535" stop-color="#F6F6F7"/>
<stop offset="0.7768" stop-color="#EBEBEB"/>
<stop offset="0.8765" stop-color="#DADADB"/>
<stop offset="0.961" stop-color="#C4C4C6"/>
<stop offset="1" stop-color="#B7B7BA"/>
</linearGradient>
<linearGradient id="paint18_linear_2006_76566" x1="81.6141" y1="26.4469" x2="124.074" y2="26.4462" gradientUnits="userSpaceOnUse">
<stop stop-color="white"/>
<stop offset="0.1062" stop-color="#FAFAFA"/>
<stop offset="0.2299" stop-color="#ECECEC"/>
<stop offset="0.3624" stop-color="#D5D5D5"/>
<stop offset="0.501" stop-color="#B4B4B4"/>
<stop offset="0.6445" stop-color="#8A8A8A"/>
<stop offset="0.792" stop-color="#565656"/>
<stop offset="0.9401" stop-color="#1A1A1A"/>
<stop offset="1"/>
</linearGradient>
<linearGradient id="paint19_linear_2006_76566" x1="48.3542" y1="178.916" x2="111.245" y2="178.916" gradientUnits="userSpaceOnUse">
<stop stop-color="white"/>
<stop offset="0.1054" stop-color="#E2E2E2"/>
<stop offset="0.5524" stop-color="#6A6A6A"/>
<stop offset="0.8593" stop-color="#1E1E1E"/>
<stop offset="1"/>
</linearGradient>
<linearGradient id="paint20_linear_2006_76566" x1="52.2482" y1="41.8375" x2="66.7539" y2="57.233" gradientUnits="userSpaceOnUse">
<stop stop-color="white"/>
<stop offset="0.1971" stop-color="#BCBCBC"/>
<stop offset="0.4134" stop-color="#7A7A7A"/>
<stop offset="0.6098" stop-color="#464646"/>
<stop offset="0.7792" stop-color="#202020"/>
<stop offset="0.9149" stop-color="#080808"/>
<stop offset="1"/>
</linearGradient>
<linearGradient id="paint21_linear_2006_76566" x1="88.6584" y1="26.5937" x2="110.988" y2="33.8588" gradientUnits="userSpaceOnUse">
<stop stop-color="white"/>
<stop offset="0.1545" stop-color="#D6D6D6"/>
<stop offset="0.7437" stop-color="#3D3D3D"/>
<stop offset="1"/>
</linearGradient>
<linearGradient id="paint22_linear_2006_76566" x1="61.0709" y1="104.182" x2="139.05" y2="104.182" gradientUnits="userSpaceOnUse">
<stop stop-color="#BF0230"/>
<stop offset="0.4966" stop-color="#B40522"/>
<stop offset="1" stop-color="#BF0230"/>
</linearGradient>
</defs>
</svg>
