<svg width="200" height="200" viewBox="0 0 200 200" fill="none" xmlns="http://www.w3.org/2000/svg">
<path d="M93.5317 148.025C93.5317 153.31 104.884 160.418 119.167 160.418C133.266 160.418 144.802 153.31 144.802 148.025C144.802 142.739 133.449 123.055 119.167 123.055C104.884 123.237 93.5317 142.921 93.5317 148.025Z" fill="#D1DCE3"/>
<path d="M93.5317 148.025C93.5317 153.31 104.884 160.418 119.167 160.418C133.266 160.418 144.802 153.31 144.802 148.025C144.802 142.739 133.449 123.055 119.167 123.055C104.884 123.237 93.5317 142.921 93.5317 148.025Z" fill="#ABBEC9"/>
<path d="M133.632 129.799C139.309 135.813 142.788 143.286 142.788 146.202C142.788 151.488 131.435 158.596 117.153 158.596C107.631 158.596 99.3912 155.315 94.9966 151.67C98.6587 156.044 107.997 160.418 118.984 160.418C133.083 160.418 144.619 153.31 144.619 148.025C144.619 144.926 140.224 136.178 133.632 129.799Z" fill="#829AA8"/>
<path d="M97.56 148.025C97.56 144.198 103.419 132.351 111.659 127.066C113.857 123.967 116.42 121.962 118.984 121.962C106.715 121.962 96.6445 140.735 96.6445 145.656C96.8276 146.385 97.0107 147.296 97.56 148.025Z" fill="#829AA8"/>
<path d="M118.984 121.78C127.956 121.78 135.463 146.203 135.463 152.582C135.463 152.582 135.463 152.582 135.463 152.764C139.126 150.577 141.323 147.843 141.323 145.474C141.323 140.553 131.435 121.78 118.984 121.78Z" fill="#829AA8"/>
<path opacity="0.7" d="M97.56 152.582C99.9404 154.404 103.053 156.045 106.899 157.138C107.265 150.212 112.941 132.533 120.998 122.509C108.363 124.696 98.2924 145.473 97.56 152.582Z" fill="white"/>
<path d="M101.388 152.367C101.842 151.7 101.056 150.382 99.6327 149.422C98.2094 148.462 96.6878 148.224 96.234 148.891C95.7802 149.558 96.5661 150.876 97.9894 151.836C99.4128 152.796 100.934 153.033 101.388 152.367Z" fill="white"/>
<path d="M118.984 148.39C141.535 148.39 159.817 130.193 159.817 107.746C159.817 85.2989 141.535 67.1021 118.984 67.1021C96.4323 67.1021 78.1506 85.2989 78.1506 107.746C78.1506 130.193 96.4323 148.39 118.984 148.39Z" fill="#DFEAF2"/>
<path d="M157.253 93.5298C157.07 93.712 157.253 93.712 157.253 93.5298C157.253 94.2588 157.253 94.8056 157.253 95.3524C157.253 103.19 140.041 109.386 118.984 109.386C97.9263 109.386 80.7141 103.007 80.7141 95.3524C80.7141 94.9879 80.7141 94.6233 80.8972 94.4411L80.7141 94.2588C79.2492 98.4508 78.3337 103.007 78.3337 107.928C78.3337 130.346 96.6445 148.572 119.167 148.572C141.689 148.572 160 130.346 160 107.928C159.817 102.825 158.901 98.0863 157.253 93.5298Z" fill="#F1C731"/>
<path d="M116.237 110.116C112.392 109.934 108.73 109.569 105.251 109.022C107.265 110.116 109.645 110.663 112.209 110.663C113.674 110.663 115.138 110.481 116.237 110.116Z" fill="#D9AF1A"/>
<path d="M152.493 93.5298C152.493 94.2588 152.493 94.6233 152.493 95.1701C152.493 101.367 142.055 106.47 127.773 107.928C127.59 126.336 122.28 141.464 115.138 144.745C116.42 144.927 117.702 144.927 118.984 144.927C138.759 144.927 154.69 127.795 154.69 106.835C154.69 102.096 153.957 97.7218 152.493 93.5298Z" fill="#D9AF1A"/>
<path d="M118.984 109.386C140.119 109.386 157.253 103.103 157.253 95.3519C157.253 87.6011 140.119 81.3179 118.984 81.3179C97.848 81.3179 80.7141 87.6011 80.7141 95.3519C80.7141 103.103 97.848 109.386 118.984 109.386Z" fill="#FFD454"/>
<path d="M83.6439 102.46C83.4608 103.918 83.4608 105.376 83.4608 106.834C83.4608 123.055 92.9824 136.907 106.349 142.375C101.039 136.725 97.1939 123.784 96.8277 108.657C90.9682 107.199 86.3905 105.012 83.6439 102.46Z" fill="#FFD454"/>
<path opacity="0.6" d="M121.73 109.387C141.349 109.387 157.253 103.511 157.253 96.2638C157.253 89.0164 141.349 83.1411 121.73 83.1411C102.112 83.1411 86.2075 89.0164 86.2075 96.2638C86.2075 103.511 102.112 109.387 121.73 109.387Z" fill="url(#paint0_linear_2003_10446)"/>
<g opacity="0.3">
<path d="M105.983 110.115C105.983 89.1553 111.842 72.0229 118.984 72.0229C101.039 72.0229 86.3904 88.9731 86.3904 110.115C86.3904 131.075 101.039 148.207 118.984 148.207C111.842 148.025 105.983 131.075 105.983 110.115Z" fill="white"/>
</g>
<g opacity="0.3">
<path d="M134.365 110.115C134.365 89.1553 128.505 72.0229 121.364 72.0229C139.309 72.0229 153.957 88.9731 153.957 110.115C153.957 131.075 139.309 148.207 121.364 148.207C128.505 148.025 134.365 131.075 134.365 110.115Z" fill="#AAB3B8"/>
</g>
<path d="M103.419 41.4033L106.349 74.21C106.349 76.7617 112.026 78.9488 119.167 78.9488C126.125 78.9488 131.984 76.7617 131.984 74.21L134.914 41.4033H103.419Z" fill="#DFEAF2"/>
<g opacity="0.7">
<path d="M114.589 74.3927L113.49 41.5859H106.715L108.913 74.3927C108.913 76.9443 113.307 79.1314 118.984 79.1314C116.603 78.9492 114.589 76.9443 114.589 74.3927Z" fill="white"/>
</g>
<path d="M131.801 41.4033L129.055 72.2052C129.055 74.7568 123.378 76.9439 116.237 76.9439C112.209 76.9439 108.73 76.2149 106.349 75.3036C107.448 77.4907 112.758 79.1311 118.801 79.1311C125.759 79.1311 131.618 76.9439 131.618 74.3923L134.548 41.5856H131.801V41.4033Z" fill="#829AA8"/>
<path d="M118.984 47.9643C129.703 47.9643 138.393 44.7819 138.393 40.8562C138.393 36.9304 129.703 33.748 118.984 33.748C108.264 33.748 99.5743 36.9304 99.5743 40.8562C99.5743 44.7819 108.264 47.9643 118.984 47.9643Z" fill="#829AA8"/>
<path opacity="0.5" d="M133.281 41.5513C133.394 38.6342 127.095 36.0254 119.212 35.7243C111.33 35.4231 104.849 37.5438 104.736 40.4608C104.624 43.3779 110.923 45.9868 118.805 46.2879C126.688 46.589 133.169 44.4684 133.281 41.5513Z" fill="#D1DCE3"/>
<path d="M101.772 41.04C101.222 42.3158 103.053 44.3207 105.983 45.5965C108.913 46.8723 111.659 46.8723 112.209 45.5965C112.758 44.3207 109.828 44.5029 106.899 43.2271C104.152 41.9513 102.321 39.7642 101.772 41.04Z" fill="white"/>
<path d="M99.9575 95.4927C101.222 92.4187 100.578 89.2466 98.5192 88.4075C96.4603 87.5685 93.7663 89.3802 92.5018 92.4541C91.2373 95.5281 91.8813 98.7002 93.9401 99.5393C95.999 100.378 98.6931 98.5666 99.9575 95.4927Z" fill="white"/>
<path d="M93.5962 106.642C93.6801 104.53 92.6832 102.776 91.3696 102.724C90.056 102.672 88.9231 104.343 88.8392 106.455C88.7554 108.567 89.7523 110.321 91.0659 110.373C92.3795 110.425 93.5124 108.754 93.5962 106.642Z" fill="white"/>
<path d="M131.984 29.192C131.984 26.8226 126.125 25 118.984 25C112.026 25 105.983 27.0049 105.983 29.192C105.983 29.5565 106.166 29.7388 106.349 30.1033L107.997 40.8566C107.997 42.8615 112.941 44.5018 118.984 44.5018C124.843 44.5018 129.97 42.8615 129.97 40.8566L131.618 30.1033C131.984 29.7388 131.984 29.5565 131.984 29.192Z" fill="#C56C35"/>
<path d="M118.984 33.202C126.063 33.202 131.801 31.4069 131.801 29.1923C131.801 26.9778 126.063 25.1826 118.984 25.1826C111.905 25.1826 106.166 26.9778 106.166 29.1923C106.166 31.4069 111.905 33.202 118.984 33.202Z" fill="#D78938"/>
<path d="M70.8262 84.9638C70.8262 94.2591 72.108 106.288 74.4884 113.396C76.6857 120.504 82.1789 130.893 86.2073 135.085C90.2357 139.277 84.7425 117.224 82.9114 111.209C79.6154 101.185 71.7418 81.8654 70.8262 84.9638Z" fill="#7EB023"/>
<path d="M96.6446 133.262C101.222 141.464 108.364 151.306 113.674 156.409C119.167 161.512 128.872 168.074 134.548 169.714C140.224 171.354 124.477 154.769 119.899 150.394C112.209 142.922 95.9122 129.981 96.6446 133.262Z" fill="#7EB023"/>
<path d="M43.177 101.185C48.4871 109.022 56.3608 118.135 62.2203 122.692C68.0797 127.43 78.5169 132.898 84.1932 134.174C90.0527 135.45 72.8405 120.322 67.8966 116.313C59.6567 109.569 42.2614 97.9043 43.177 101.185Z" fill="#649015"/>
<path d="M92.0669 134.721C94.0811 141.829 97.5601 150.76 100.856 155.863C104.152 160.966 110.561 167.71 114.589 170.079C118.618 172.449 109.645 156.774 106.899 152.4C102.138 145.292 92.0669 132.169 92.0669 134.721Z" fill="#649015"/>
<path d="M28.1621 127.248C36.4019 131.623 47.7546 136.179 55.079 137.637C62.4033 139.095 74.3053 139.278 79.9817 137.637C85.6581 135.997 63.5019 130.529 57.2763 129.253C46.656 127.066 25.9648 124.879 28.1621 127.248Z" fill="#4A7006"/>
<path d="M58.7412 173.178C64.4175 175.73 72.1081 171.355 75.7703 163.154C79.4324 155.134 77.7845 146.386 72.1081 143.834C66.4317 141.282 58.7412 145.657 55.079 153.858C51.4169 162.06 53.0648 170.626 58.7412 173.178Z" fill="#402C1B"/>
<path opacity="0.5" d="M60.2061 158.597C59.8398 158.233 59.4736 157.868 58.9243 157.686C58.0088 157.139 57.0932 156.228 56.1777 155.316C56.3608 155.134 56.3608 154.77 56.5439 154.587C58.375 150.76 61.1216 147.844 64.0513 146.386C64.4175 148.391 64.9669 150.578 65.15 152.765C63.1358 154.223 61.1216 156.228 60.2061 158.597Z" fill="#F2DDC6"/>
<path opacity="0.5" d="M73.2068 150.396C71.7419 150.396 70.4601 150.578 69.1784 150.942C68.629 149.12 67.8966 147.297 67.3473 145.475C68.629 145.292 69.9108 145.475 71.1926 146.021C72.1081 146.386 72.8405 146.933 73.3899 147.662C73.3899 148.391 73.3899 149.302 73.2068 150.031C73.2068 150.213 73.2068 150.396 73.2068 150.396Z" fill="#F2DDC6"/>
<path d="M57.4594 156.41C57.0932 156.045 56.727 155.681 56.3608 155.316C56.5439 155.134 56.5439 154.77 56.727 154.587C58.5581 150.76 61.3047 147.844 64.2344 146.386C64.4175 147.297 64.6007 148.208 64.7838 149.12C61.4878 150.578 58.7412 153.312 57.4594 156.41Z" fill="#F2DDC6"/>
<path d="M73.2068 148.027C71.3757 147.844 69.5446 147.844 68.2628 148.209H68.0797C67.7135 147.298 67.5304 146.386 67.1642 145.657C68.4459 145.475 69.7277 145.657 71.0095 146.204C71.925 146.568 72.6574 147.115 73.2068 147.844V148.027Z" fill="#F2DDC6"/>
<path d="M85.6581 175C91.8838 175 97.0108 167.892 97.1939 159.143C97.377 150.213 92.25 142.922 86.0243 142.922C79.7986 142.922 74.6716 150.03 74.4885 158.779C74.4885 167.527 79.4324 174.818 85.6581 175Z" fill="#402C1B"/>
<path opacity="0.5" d="M81.2634 160.966C80.7141 160.784 80.3478 160.602 79.7985 160.602C78.6999 160.419 77.6012 159.873 76.5026 159.508C76.5026 159.326 76.5026 158.961 76.5026 158.779C76.5026 154.587 77.9674 150.76 80.1647 148.208C81.4465 150.031 82.5451 151.671 83.8269 153.494C81.9958 155.863 81.0803 158.415 81.2634 160.966Z" fill="#F2DDC6"/>
<path opacity="0.5" d="M89.6864 148.208C88.4046 148.755 87.306 149.484 86.2073 150.395C84.9256 148.937 83.6438 147.661 82.3621 146.203C83.4607 145.474 84.7425 145.109 86.0242 145.109C86.9398 145.109 87.8553 145.292 88.7709 145.656C89.1371 146.385 89.3202 147.114 89.6864 147.843C89.6864 148.026 89.6864 148.208 89.6864 148.208Z" fill="#F2DDC6"/>
<path d="M77.7844 160.055C77.2351 159.873 76.8689 159.69 76.3196 159.508C76.3196 159.326 76.3196 158.961 76.3196 158.779C76.3196 154.587 77.7844 150.76 79.9817 148.208C80.5311 148.937 81.0804 149.848 81.6297 150.577C79.2493 153.129 77.6013 156.592 77.7844 160.055Z" fill="#F2DDC6"/>
<path d="M88.954 146.021C87.1229 146.567 85.4749 147.297 84.3762 148.026C84.3762 148.026 84.3763 148.026 84.1931 148.208C83.6438 147.479 82.9114 146.75 82.3621 146.203C83.4607 145.474 84.7425 145.109 86.0242 145.109C86.9398 145.109 87.8553 145.292 88.7709 145.656C88.7709 145.838 88.954 146.021 88.954 146.021Z" fill="#F2DDC6"/>
<path d="M100.673 128.159C88.0384 134.72 75.404 138.366 61.4877 141.464C61.3046 141.464 61.3046 141.829 61.4877 141.829C75.9533 142.193 89.5033 137.819 101.955 130.893C103.603 129.982 102.138 127.43 100.673 128.159Z" fill="#D78938"/>
<defs>
<linearGradient id="paint0_linear_2003_10446" x1="111.156" y1="78.104" x2="132.164" y2="114.66" gradientUnits="userSpaceOnUse">
<stop stop-color="white"/>
<stop offset="0.6183"/>
</linearGradient>
</defs>
</svg>
