<svg width="200" height="200" viewBox="0 0 200 200" fill="none" xmlns="http://www.w3.org/2000/svg">
<path d="M36.5036 39L51.4889 60.5191L58.8867 63.2744C58.8867 63.2744 53.5281 43.7979 36.5036 39Z" fill="#5C954B"/>
<path d="M54.6661 60.5183C54.6661 60.5183 52.7218 46.5047 54.6661 41.6118C54.6661 41.6118 57.2269 53.1552 60.3093 59.5207L59.6454 62.5609L54.6661 60.5183Z" fill="#5C954B"/>
<path d="M67.9914 147.498L63.676 156.951L71.5006 150.11L68.2285 157.996L73.8717 153.531V156.286L77.4284 152.723L82.0757 156.713L81.4118 152.486L85.9169 152.723L84.7788 149.54L89.5684 151.583L81.5067 139.422L67.9914 147.498Z" fill="#C79348"/>
<path d="M115.698 116.099C112.284 161.417 74.1091 146.406 74.1091 146.406L66.6164 149.351C63.8659 150.919 53.3857 153.959 43.6168 151.679C36.4561 150.016 29.7221 145.551 26.6397 135.67C19.3367 112.204 38.2107 95.5773 48.2167 81.9438C58.2227 68.2627 48.2167 57.3369 48.2167 57.3369C50.2084 57.0044 52.3424 57.6694 54.1919 58.572C56.563 59.7121 58.365 61.2322 58.365 61.2322L58.697 55.5317C63.0124 68.7377 77.9977 78.286 82.1234 79.6636C86.1543 80.9937 113.469 88.5468 115.698 116.099Z" fill="url(#paint0_linear_8002_26842)"/>
<g opacity="0.2" style="mix-blend-mode:soft-light">
<path d="M115.698 116.099C112.284 161.417 74.109 146.406 74.109 146.406L66.6163 149.351C63.8659 150.919 53.3856 153.959 43.6167 151.679C63.1071 150.824 68.8926 140.991 68.8926 140.991C92.0819 153.247 103.131 121.847 100.855 103.985C98.5313 86.1241 73.7771 83.8439 64.7195 75.7208C58.7443 70.4004 55.6145 62.9898 54.1444 58.572C56.5155 59.7121 58.3175 61.2322 58.3175 61.2322L58.6495 55.5317C62.9649 68.7377 77.9502 78.286 82.0759 79.6636C86.1542 80.9937 113.469 88.5468 115.698 116.099Z" fill="#7E0C40"/>
</g>
<path d="M51.8207 80.8025C51.8207 80.8025 51.7259 81.135 51.5836 81.7051C51.4414 82.2751 51.2043 83.1777 50.8723 84.2703C50.5403 85.3628 50.1135 86.6929 49.5919 88.2131C49.0228 89.6857 48.4538 91.3958 47.6002 93.2009C47.4105 93.676 47.2208 94.1035 46.9837 94.5785C46.8889 94.8161 46.794 95.0536 46.6517 95.2911C46.5569 95.5286 46.4146 95.7661 46.3198 96.0037C45.8456 96.9537 45.3714 97.9513 44.8497 98.9489C44.3281 99.9465 43.7116 100.944 43.0951 101.989C42.9528 102.227 42.8106 102.512 42.6209 102.749C42.4786 102.987 42.3363 103.272 42.1467 103.509C41.8147 104.032 41.5302 104.554 41.2931 105.029C40.1549 107.12 39.2539 109.447 38.4003 111.87C37.5942 114.245 36.9302 116.763 36.456 119.28C35.9818 121.798 35.6973 124.363 35.7447 126.834C35.7921 129.351 36.0767 131.774 36.788 134.007C37.4993 136.239 38.5426 138.282 39.9653 139.897C40.6292 140.752 41.4353 141.417 42.1941 142.082C42.6209 142.367 43.0003 142.7 43.3796 142.985C43.8064 143.27 44.2332 143.46 44.6126 143.745C44.8023 143.84 44.992 143.982 45.2291 144.077C45.4188 144.172 45.6559 144.267 45.8456 144.362C46.2724 144.552 46.6517 144.742 47.0785 144.932C47.8847 145.217 48.6909 145.502 49.4496 145.74C50.2084 145.93 50.9197 146.12 51.5836 146.262C52.2475 146.357 52.864 146.5 53.4331 146.595C54.0021 146.69 54.4764 146.738 54.9506 146.785C55.3774 146.833 55.7568 146.88 56.0887 146.928C56.7052 146.975 57.0372 147.023 57.0372 147.023C57.0372 147.023 56.7052 147.023 56.0887 147.023C55.8042 147.023 55.4248 147.023 54.9506 147.023C54.7135 147.023 54.4764 147.023 54.2393 147.023C54.0021 147.023 53.7176 146.975 53.4331 146.975C52.864 146.928 52.2475 146.88 51.5362 146.833C50.8723 146.738 50.1135 146.595 49.3074 146.453C48.5012 146.31 47.695 146.025 46.794 145.787C46.3672 145.645 45.9404 145.455 45.4662 145.312C45.2291 145.217 45.0394 145.122 44.8023 145.027C44.5652 144.932 44.3755 144.79 44.1384 144.695C42.2889 143.887 40.4869 142.557 38.922 140.847C37.357 139.137 36.0767 136.952 35.2705 134.529C34.4643 132.106 34.0375 129.494 33.9901 126.881C33.9427 124.221 34.1798 121.561 34.654 118.948C35.1756 116.335 35.887 113.77 36.7406 111.3C37.5942 108.83 38.6849 106.502 39.8704 104.269C40.2024 103.699 40.4869 103.177 40.8188 102.654C41.1508 102.132 41.4828 101.657 41.7673 101.134C42.3838 100.136 43.0003 99.1864 43.5693 98.2363C44.66 96.2887 45.7033 94.4835 46.5569 92.7259C47.4579 91.0158 48.1692 89.3531 48.8332 87.928C49.1651 87.2155 49.4496 86.5029 49.6867 85.8854C49.9713 85.2678 50.2084 84.6503 50.3981 84.1277C50.6352 83.6052 50.8249 83.1302 50.9671 82.7026C51.1094 82.2751 51.2517 81.9426 51.3465 81.6576C51.7259 81.0875 51.8207 80.8025 51.8207 80.8025Z" fill="#F9B7D5"/>
<path d="M48.8806 105.173C48.8806 105.173 48.7384 105.315 48.5487 105.553C48.4538 105.695 48.3116 105.838 48.1693 106.028C48.0271 106.218 47.8374 106.455 47.6951 106.693C47.5054 106.93 47.3157 107.216 47.126 107.548C46.9363 107.881 46.6992 108.213 46.5096 108.593C46.1302 109.353 45.7034 110.208 45.3714 111.206C45.2292 111.681 44.992 112.203 44.8972 112.726C44.7549 113.248 44.6127 113.819 44.5178 114.389C44.423 114.959 44.3281 115.576 44.3281 116.194C44.3281 116.811 44.2333 117.429 44.2807 118.094C44.2807 118.426 44.2807 118.759 44.3281 119.044V119.519L44.3756 119.994C44.423 120.327 44.4704 120.659 44.5178 120.992C44.5653 121.324 44.5653 121.657 44.6601 121.989C44.8024 122.654 44.9446 123.319 45.0869 123.984C45.2766 124.649 45.5137 125.314 45.7034 125.979L45.8456 126.454L45.9405 126.692V126.739L45.9879 126.787L46.0353 126.93L46.4147 127.927C46.557 128.26 46.6518 128.592 46.7941 128.925C46.8415 129.067 46.9363 129.257 46.9838 129.4L47.2209 129.827C47.3631 130.112 47.5054 130.445 47.6477 130.73C47.7899 131.015 47.9322 131.347 48.0745 131.632C48.4064 132.202 48.7384 132.772 49.0703 133.295C49.4497 133.818 49.8291 134.293 50.161 134.815C50.5404 135.29 50.9672 135.718 51.3466 136.193C51.7734 136.62 52.2002 136.953 52.5796 137.333C53.0064 137.665 53.4332 137.998 53.86 138.283C54.7135 138.853 55.5671 139.28 56.3259 139.613C56.5156 139.708 56.7053 139.755 56.895 139.851C57.0846 139.898 57.2743 139.946 57.4166 140.041C57.7486 140.183 58.0805 140.231 58.4125 140.278C59.0289 140.421 59.5032 140.468 59.8351 140.516C60.1671 140.563 60.3568 140.516 60.3568 140.516C60.3568 140.516 60.1671 140.563 59.8351 140.611C59.5032 140.658 59.0289 140.706 58.365 140.658C58.0331 140.658 57.7011 140.611 57.3218 140.563C57.1321 140.516 56.9424 140.516 56.7053 140.468C56.5156 140.421 56.2785 140.373 56.0888 140.326C55.2352 140.136 54.2867 139.755 53.2909 139.233C52.8167 138.995 52.3424 138.663 51.8208 138.33C51.3466 137.95 50.8724 137.57 50.3507 137.19C49.8765 136.763 49.4023 136.288 48.9755 135.813C48.5487 135.29 48.1219 134.768 47.6951 134.245C47.3157 133.675 46.9363 133.105 46.557 132.487C46.1776 131.87 45.8931 131.205 45.5137 130.587L45.2766 130.112C45.1817 129.97 45.1343 129.78 45.0869 129.637C44.9446 129.305 44.8024 128.972 44.7075 128.64L44.3281 127.642L44.2807 127.5L44.2333 127.452L44.1859 127.405V127.357L44.091 127.12L43.9488 126.597C43.7591 125.884 43.522 125.219 43.3323 124.507C43.19 123.794 43.0477 123.082 42.9055 122.369C42.7158 120.944 42.5735 119.519 42.6684 118.141C42.6684 117.429 42.7632 116.764 42.8581 116.099C42.9055 115.434 43.0952 114.816 43.2374 114.199C43.3797 113.581 43.5694 113.011 43.7591 112.441C43.9488 111.871 44.1859 111.348 44.423 110.873C44.8972 109.876 45.4188 109.021 45.9405 108.308C46.1776 107.928 46.4621 107.643 46.6992 107.358C46.9363 107.073 47.2209 106.835 47.4106 106.598C47.8374 106.17 48.2642 105.838 48.5013 105.648C48.7384 105.268 48.8806 105.173 48.8806 105.173Z" fill="#F9B7D5"/>
<path d="M170.518 139.898C163.073 162.795 144.246 162.462 132.581 159.707C126.795 158.329 122.764 156.382 122.764 156.382C112.521 159.327 81.602 153.104 82.7401 127.025C83.9256 100.945 106.83 87.6441 117.5 82.8462C128.17 78.0483 133.197 58.7144 133.197 58.7144C133.197 59.0469 133.244 59.3794 133.244 59.7119C134.288 74.9131 149.32 86.504 149.32 86.504C149.32 86.504 179.86 109.971 170.518 139.898Z" fill="#DC3075"/>
<path d="M57.0846 125.409C57.0846 125.409 57.1794 125.599 57.3691 125.932C57.5588 126.217 57.7959 126.692 58.0805 127.214C58.365 127.737 58.6969 128.307 59.0763 128.924C59.266 129.257 59.4557 129.542 59.6454 129.875C59.8351 130.207 60.0722 130.492 60.2619 130.825C60.4515 131.157 60.6887 131.442 60.8783 131.775C61.1155 132.06 61.3051 132.392 61.4948 132.725C61.6845 133.01 61.9216 133.295 62.0639 133.58C62.2536 133.865 62.4433 134.102 62.5855 134.387C62.7752 134.625 62.8701 134.862 63.0123 135.1C63.1546 135.29 63.2494 135.48 63.3443 135.622C63.534 135.955 63.6288 136.145 63.6288 136.145C63.6288 136.145 63.4391 136.05 63.1072 135.907C62.7752 135.765 62.301 135.527 61.7794 135.147C61.5423 134.957 61.2577 134.767 60.9732 134.53C60.6887 134.292 60.4041 134.055 60.167 133.77C59.8825 133.485 59.6454 133.2 59.3608 132.867C59.1237 132.535 58.8866 132.202 58.6495 131.87C58.4598 131.49 58.2227 131.157 58.033 130.777C57.8433 130.397 57.7011 130.017 57.5588 129.685C57.2743 128.924 57.132 128.212 57.0372 127.594C56.9897 127.262 56.9897 126.977 56.9897 126.739C56.9897 126.502 56.9897 126.264 56.9897 126.074C57.0372 125.647 57.0846 125.409 57.0846 125.409Z" fill="#F9B7D5"/>
<path d="M173.221 139.422C165.776 162.319 146.949 161.987 135.283 159.231C129.498 157.854 125.467 155.906 125.467 155.906C115.224 158.851 84.3048 152.628 85.443 126.549C86.6285 100.469 109.533 87.1685 120.203 82.3706C130.968 77.6203 135.947 58.2388 135.947 58.2388C135.947 58.5713 135.995 58.9038 135.995 59.2363C137.085 74.4375 152.071 86.0284 152.071 86.0284C152.071 86.0284 182.563 109.495 173.221 139.422Z" fill="#FFAFD3"/>
<path d="M130.209 86.2666L120.914 152.487C120.914 152.487 87.2922 158.425 92.7458 118.379C101.187 92.6321 130.209 86.2666 130.209 86.2666Z" fill="#FC5498"/>
<path d="M126.463 89.876C125.989 89.876 99.3375 104.507 96.7768 121.751C94.216 138.995 109.154 153.198 115.698 148.02C122.29 142.843 126.463 89.876 126.463 89.876Z" fill="#F9A9CD"/>
<path d="M122.385 95.6719C122.385 95.6719 123.001 122.179 119.824 130.777C116.647 139.375 107.874 150.634 105.74 138.188C103.606 125.742 101.329 114.246 122.385 95.6719Z" fill="#FC5498"/>
<path d="M117.405 112.345C118.686 113.96 116.315 136.429 113.422 136.097C110.576 135.812 108.632 127.499 111.193 121.133C113.754 114.768 116.172 110.825 117.405 112.345Z" fill="#F5B1D0"/>
<path d="M134.477 86.2666L126.463 152.629C126.463 152.629 157.477 167.023 162.456 126.882C160.939 99.9001 134.477 86.2666 134.477 86.2666Z" fill="#FC5498"/>
<path d="M137.18 90.7314C137.607 90.8265 159.658 111.823 157.714 129.162C155.77 146.501 137.702 156.381 132.675 149.683C127.648 142.985 137.18 90.7314 137.18 90.7314Z" fill="#F9A9CD"/>
<path d="M139.646 97.3823C139.646 97.3823 132.296 122.844 133.149 131.965C134.003 141.133 139.646 154.244 144.863 142.748C150.126 131.252 155.248 120.754 139.646 97.3823Z" fill="#FC5498"/>
<path d="M140.215 114.768C138.555 116.003 135.141 138.33 137.986 138.758C140.832 139.185 144.815 131.68 143.961 124.887C143.108 118.094 141.78 113.628 140.215 114.768Z" fill="#F5B1D0"/>
<path d="M173.221 139.422C165.776 162.319 146.949 161.987 135.283 159.231C144.436 159.041 157.667 159.279 164.78 136.81C171.893 114.341 158.71 98.7118 147.186 87.311C135.947 76.1476 135.995 59.9014 135.995 59.2363C137.085 74.4375 152.071 86.0284 152.071 86.0284C152.071 86.0284 182.563 109.495 173.221 139.422Z" fill="#C12E71"/>
<defs>
<linearGradient id="paint0_linear_8002_26842" x1="70.3491" y1="55.5317" x2="70.3491" y2="152.498" gradientUnits="userSpaceOnUse">
<stop stop-color="#F42E7E"/>
<stop offset="0.28" stop-color="#FD79AE"/>
<stop offset="0.7" stop-color="#C92769"/>
<stop offset="1" stop-color="#DC2972"/>
</linearGradient>
</defs>
</svg>
