<svg width="200" height="200" viewBox="0 0 200 200" fill="none" xmlns="http://www.w3.org/2000/svg">
<path d="M101.63 171.938C101.63 171.938 98.5577 173.163 98.5577 174.999C98.5577 174.999 99.7865 173.163 100.401 173.775C102.244 173.163 103.473 173.163 103.473 173.163L102.859 174.387L104.702 173.163L105.316 173.775C105.316 173.775 105.931 171.938 107.16 171.938C108.389 171.326 109.003 172.551 109.003 172.551C109.003 172.551 109.618 171.326 111.461 173.163C111.461 171.326 111.461 170.714 112.69 172.551C112.69 172.551 112.075 171.326 113.919 171.938C113.304 171.326 113.919 171.326 115.147 171.938C114.533 170.714 116.991 170.714 118.834 172.551C117.605 170.714 118.834 170.714 119.448 171.326C118.22 170.101 118.834 170.102 120.677 170.714C117.605 170.102 111.461 168.265 101.63 171.938Z" fill="#6E1D1B"/>
<path d="M78.2789 36.0192C78.2789 36.0192 86.2665 45.2029 84.4232 58.6723C82.5799 72.1416 73.3633 76.4273 64.7613 83.162C54.3159 91.1212 41.4128 108.264 46.9427 131.529C51.8582 154.795 69.6767 175.611 107.157 173.162C130.506 169.489 159.998 154.182 158.77 114.999C158.77 99.6926 145.252 78.8763 123.747 70.9171C102.242 62.958 102.242 62.3457 101.013 50.1008C101.013 39.6927 101.013 38.4682 99.7841 40.9171C100.399 37.8559 99.1695 39.6927 97.9407 43.3661C97.3262 38.4682 97.9407 36.0192 97.9407 36.0192C97.9407 36.0192 95.483 40.9171 95.483 44.5906C93.0252 40.3049 93.0253 34.7947 93.6397 30.509C93.6397 28.6723 91.7963 31.7335 91.7963 32.958C91.7963 34.7947 91.7964 29.8967 92.4108 26.2233C93.0252 23.162 88.1097 33.5702 88.1097 43.3661C88.1097 43.3661 86.881 42.1416 87.4954 43.9784C85.0377 37.8559 83.1942 36.6314 85.652 43.3661C81.9654 36.6314 80.7366 36.6314 81.3511 38.4682C79.5078 33.5702 77.6645 34.7947 78.2789 36.0192Z" fill="url(#paint0_radial_8002_25093)"/>
<g opacity="0.5">
<path d="M87.4963 42.144C87.4963 42.144 87.4961 42.144 88.1106 42.7563C88.1106 42.7563 88.725 43.3685 88.725 43.9807C88.725 44.593 89.3395 44.593 89.3395 45.2053C89.3395 45.8175 89.954 46.4297 89.954 47.042C89.954 47.6542 90.5684 48.2665 90.5684 48.8787C90.5684 49.491 91.1827 50.1032 91.1827 50.7154C91.1827 51.3277 91.7972 51.9399 91.7972 52.5522C91.7972 53.1644 92.4117 53.7767 92.4117 54.3889C92.4117 55.0012 93.0261 55.6134 93.0261 56.2256C93.0261 56.8379 93.6406 57.4502 93.6406 58.0624C93.6406 58.6746 93.6405 59.2869 94.2549 59.8991C94.8693 62.3481 94.8694 63.5726 94.8694 63.5726C94.8694 63.5726 94.2551 62.3481 93.6406 59.8991C93.6406 59.2869 93.0261 58.6746 93.0261 58.0624C93.0261 57.4502 92.4117 56.8379 92.4117 56.2256C92.4117 55.6134 91.7972 55.0012 91.7972 54.3889C91.7972 53.7767 91.1827 53.1644 91.1827 52.5522C90.5683 51.3277 90.5684 49.491 89.954 48.2665C89.954 47.6542 89.3395 47.042 89.3395 46.4297C89.3395 45.8175 88.725 45.2052 88.725 44.593C88.725 43.9807 88.1106 43.3685 88.1106 43.3685C88.1106 42.7563 88.1107 42.7563 87.4963 42.144Z" fill="#911D1B"/>
<path d="M96.0992 43.3677C96.0992 43.3677 96.0992 43.9799 96.0992 44.5921C96.0992 45.2044 96.0992 46.4289 96.0992 47.6534C96.0992 48.2656 96.0992 48.8779 96.0992 49.4901C96.0992 50.1024 96.0992 50.7146 96.0992 51.9391C96.0992 52.5514 96.0992 53.7759 96.0992 54.3881C96.0992 55.0003 96.0992 56.2248 96.7136 56.837C96.7136 57.4493 96.7136 57.4493 96.7136 58.0616C96.7136 58.6738 96.7136 58.6738 96.7136 59.286C96.7136 59.8983 96.7136 59.8983 96.7136 60.5105C96.7136 61.1228 96.7136 61.1228 96.7136 61.735C96.7136 62.3473 96.7136 62.3472 96.7136 62.9595C96.7136 63.5717 96.7135 63.5718 97.3279 64.184C97.3279 64.7962 97.9424 65.4085 97.9424 66.0207C97.9424 66.633 98.5569 67.2452 98.5569 67.8575C98.5569 68.4697 99.1713 68.4697 99.1713 69.0819C99.1713 69.6942 99.7858 70.3065 99.7858 70.3065C99.7858 70.3065 99.7858 69.6942 99.1713 69.0819C99.1713 68.4697 98.5569 68.4697 98.5569 67.8575C98.5569 67.2452 97.9424 66.633 97.9424 66.0207C97.9424 66.0207 97.9423 65.4085 97.3279 64.7962C97.3279 64.184 97.3281 64.184 96.7136 63.5718C96.7136 62.9595 96.7136 62.9595 96.0992 62.3473C96.0992 61.735 96.0991 61.735 95.4847 61.1228C95.4847 60.5105 95.4846 60.5105 94.8702 59.8983C94.8702 59.286 94.8702 59.286 94.8702 58.6738C94.8702 58.0615 94.8702 58.0616 94.8702 57.4493C94.8702 56.8371 94.8702 56.837 94.8702 56.2248C94.8702 55.6126 94.8702 54.3881 94.2557 53.7758C94.2557 53.1636 94.2557 51.9391 94.2557 51.3269C94.2557 50.7146 94.2557 49.4901 94.2557 48.8779C94.2557 48.2656 94.2557 47.6534 94.2557 47.0411C94.2557 46.4289 94.2557 45.8167 94.2557 45.2044C94.2557 44.5922 94.2557 43.9799 94.2557 43.9799C95.4846 43.3677 96.0992 43.3677 96.0992 43.3677Z" fill="#911D1B"/>
<path d="M96.7127 52.5508C96.7127 53.163 96.7127 53.163 96.7127 53.7753C96.7127 54.3875 96.7126 54.3875 97.327 54.9998C97.327 55.612 97.9415 56.2242 97.9415 56.8365C97.9415 57.4487 98.5559 58.061 98.5559 59.2855C98.5559 59.8977 98.556 59.8977 99.1704 60.51C99.1704 61.1222 99.7849 61.1222 99.7849 61.7345C100.399 62.3467 100.399 63.5712 101.014 64.1834C101.628 64.7957 102.243 66.0202 102.243 66.6324C102.243 67.2447 102.857 67.2447 102.857 67.8569C102.857 68.4691 103.471 68.4691 103.471 69.0814C104.086 69.6936 104.7 70.9181 105.315 71.5304C105.929 72.1426 106.544 72.7549 107.158 73.3671C107.772 73.9794 108.387 74.5916 109.001 75.2038C109.616 75.8161 110.23 76.4283 110.23 76.4283C110.845 77.0406 110.845 77.0406 111.459 77.6528C112.074 78.2651 112.688 78.8773 112.688 78.8773C112.688 78.8773 112.074 78.265 111.459 78.265C111.459 78.265 110.845 77.6528 110.23 77.0406L109.616 76.4283L109.001 75.8161C108.387 75.2039 107.772 74.5916 107.158 73.9793C106.544 73.3671 105.929 72.7548 105.315 72.1426C104.7 71.5303 104.086 70.9181 103.471 69.6937C103.471 69.0814 102.857 69.0814 102.857 68.4691C102.857 67.8569 102.243 67.8569 102.243 67.2447C101.628 66.6324 101.014 65.4079 101.014 64.7957C100.399 64.1834 100.399 62.9589 99.7849 62.3467C99.7849 61.7344 99.1704 61.7345 99.1704 61.1222C99.1704 60.51 99.1704 60.5099 98.5559 59.8977C98.5559 59.2855 97.9415 58.061 97.9415 57.4488C97.9415 56.8365 97.327 56.2242 97.327 55.612C97.327 54.9998 97.327 54.3875 97.327 54.3875C96.7126 53.163 96.7127 52.5508 96.7127 52.5508Z" fill="#911D1B"/>
<path d="M93.6422 51.3281C93.6422 51.3281 93.642 52.5526 94.2565 54.3893C94.2565 55.6138 94.8709 56.2261 94.8709 57.4506C94.8709 58.6751 95.4854 59.8995 95.4854 61.124C95.4854 61.7363 95.4854 62.3485 96.0999 62.9607C96.0999 63.573 96.0999 64.1852 96.7144 64.7975C96.7144 66.022 97.3286 67.2465 97.3286 67.8587C97.3286 68.471 97.3287 68.4709 97.9431 69.0832C97.9431 69.6954 97.9431 69.6955 97.9431 70.3077C97.9431 70.9199 97.9431 70.9199 97.9431 70.9199C97.9431 70.9199 97.9431 70.9199 97.3286 70.3077C97.3286 70.3077 97.3288 69.6954 96.7144 69.0832C96.7144 68.4709 96.0999 68.471 96.0999 67.8587C96.0999 67.2465 96.0998 66.6342 95.4854 66.6342C95.4854 66.022 94.8709 65.4097 94.8709 64.7975C94.8709 64.1852 94.8709 63.573 94.2565 62.9607C94.2565 62.3485 94.2566 61.7363 93.6422 61.124C93.6422 60.5118 93.6421 59.8995 93.0277 59.2873C93.0277 58.675 93.0277 58.0628 92.4132 57.4506C92.4132 56.2261 91.7988 55.0016 91.7988 54.3893C91.7988 53.1649 91.7988 52.5526 91.7988 51.9404C93.6421 51.9404 93.6422 51.3281 93.6422 51.3281Z" fill="#911D1B"/>
<path d="M92.4142 37.8579C92.4142 37.8579 92.4142 39.0824 93.0287 40.3069C93.0287 40.9191 93.6431 42.1436 93.6431 42.7559C93.6431 43.3681 93.6431 43.3681 93.6431 43.9804C93.6431 44.5926 93.6431 45.2049 93.6431 45.2049C93.6431 45.8171 93.643 46.4293 94.2574 46.4293C94.2574 47.0416 94.2574 47.0416 94.8719 47.6538C94.8719 48.2661 94.8719 48.2661 95.4864 48.8783C95.4864 49.4906 95.4864 49.4906 95.4864 50.1028C95.4864 49.4906 95.4863 49.4906 94.8719 48.8783C94.8719 48.2661 94.8718 48.2661 94.2574 47.6538C94.2574 47.0416 93.6431 45.8171 93.6431 45.2049C93.6431 44.5926 93.6431 43.9804 93.6431 43.9804C93.6431 43.3681 93.6431 42.7559 93.6431 42.7559C93.6431 42.1436 93.6431 40.9191 93.0287 40.3069C93.0287 39.6947 93.0287 39.0824 93.0287 38.4701C92.4142 37.8579 92.4142 37.8579 92.4142 37.8579Z" fill="#911D1B"/>
<path d="M98.5577 46.4287C98.5577 46.4287 98.5577 46.4287 98.5577 47.0409C98.5577 47.6532 98.5577 48.2655 98.5577 48.8777C98.5577 49.4899 98.5577 49.4899 98.5577 50.1022C98.5577 50.7144 98.5577 50.7144 98.5577 51.3267C98.5577 51.9389 98.5577 51.9389 99.1721 52.5512C99.1721 53.1634 99.1722 53.7756 99.7866 53.7756C99.7866 54.3879 100.401 55.0001 100.401 55.0001C100.401 55.6124 101.015 55.6124 101.015 56.2246C101.015 56.8369 101.63 56.8369 101.63 57.4491C101.63 58.0614 102.244 58.0614 102.244 58.6736L102.859 59.2858L103.473 59.8981C103.473 60.5103 104.088 60.5104 104.088 60.5104C104.088 60.5104 104.088 60.5103 103.473 59.8981L102.859 59.2858L102.244 58.6736C102.244 58.6736 101.63 58.0614 101.63 57.4491C101.63 56.8369 101.015 56.8369 101.015 56.2246C101.015 55.6124 100.401 55.6124 100.401 55.0001C100.401 54.3879 99.7866 53.7756 99.7866 53.7756C99.7866 53.1634 99.7866 52.5512 99.1721 52.5512C99.1721 51.9389 99.1721 51.3267 98.5577 51.3267C98.5577 50.7144 98.5577 50.7144 98.5577 50.1022C98.5577 49.4899 98.5577 49.4899 98.5577 48.8777C98.5577 47.041 98.5577 46.4287 98.5577 46.4287Z" fill="#911D1B"/>
<path d="M88.1118 50.1025C88.1118 50.1025 88.1118 50.1025 88.7262 50.7148C88.7262 51.327 89.3407 51.9393 89.3407 53.1638C89.3407 53.776 89.9552 54.3883 89.9552 55.0005C89.9552 55.6128 90.5696 56.225 90.5696 56.8372C90.5696 58.0617 91.1839 59.2862 91.1839 61.123C91.1839 61.7352 91.1839 62.3474 91.1839 62.9597C91.1839 63.5719 91.1839 64.1842 91.1839 64.7964C91.1839 65.4087 91.1841 66.0209 90.5696 66.6332C90.5696 67.2454 89.9552 67.8576 89.9552 68.4699V69.0821V69.6944C89.9552 70.3066 89.3407 70.3066 89.3407 70.9189L88.7262 71.5311C88.7262 71.5311 88.7263 71.5311 89.3407 70.9189C89.3407 70.9189 89.9552 70.3066 89.9552 69.6944C89.9552 69.0822 90.5696 69.0821 90.5696 68.4699C90.5696 67.8576 90.5695 67.2454 91.1839 66.6332C91.1839 66.0209 91.1839 65.4087 91.1839 64.7964C91.1839 64.1842 91.1839 63.5719 91.1839 62.9597C91.1839 62.3474 91.1839 61.7352 91.1839 61.123C91.1839 60.5107 91.1839 59.8985 91.1839 59.2862C91.1839 58.674 91.1841 58.0617 90.5696 57.4495C90.5696 56.225 89.9552 55.0005 89.9552 53.776C88.7263 51.327 88.1118 50.1025 88.1118 50.1025Z" fill="#911D1B"/>
<path d="M93.0284 80.7148C93.0284 80.7148 93.0284 81.9393 92.4139 84.3883C92.4139 85.6128 91.7995 86.8373 91.7995 88.674C91.7995 90.5108 91.7994 92.3475 91.185 94.1843C91.185 96.021 91.185 98.47 91.185 100.307C91.185 102.756 91.185 105.205 91.185 107.654C91.185 110.103 91.185 112.552 91.7995 115.001C91.7995 116.225 91.7995 117.45 92.4139 118.674C92.4139 119.899 92.414 121.123 93.0284 122.347C93.0284 123.572 93.6429 124.796 93.6429 126.021C93.6429 127.245 94.2572 128.47 94.2572 129.694C94.2572 130.307 94.2572 130.919 94.8716 131.531C94.8716 132.143 94.8717 132.756 95.4861 133.368C95.4861 133.98 95.4861 134.592 96.1006 135.205C96.1006 135.817 96.1006 136.429 96.7151 137.041C96.7151 137.654 96.7149 138.266 97.3293 138.878C97.3293 139.49 97.3294 140.103 97.9438 140.715C97.9438 141.939 98.5583 143.164 98.5583 144.388C99.1727 145.613 99.1728 146.837 99.7872 147.45C100.402 148.674 100.402 149.286 101.016 150.511C101.63 151.735 101.63 152.347 102.245 152.96C102.245 153.572 102.859 154.796 102.859 155.409C103.474 156.633 104.088 158.47 104.703 159.082C105.317 160.919 105.932 162.143 105.932 162.143C105.932 162.143 105.317 160.919 104.088 159.082C103.474 157.858 102.859 156.633 102.245 155.409C101.63 154.184 101.016 152.347 100.402 150.511C99.7871 149.286 99.7872 148.674 99.1727 147.45C98.5583 146.225 98.5582 145.613 97.9438 144.388C97.3294 143.164 97.3295 141.939 96.7151 140.715C96.7151 140.103 96.1006 139.49 96.1006 138.878C96.1006 138.266 96.1005 137.654 95.4861 137.041C95.4861 136.429 95.4861 135.817 94.8716 135.205C94.8716 134.592 94.8716 133.98 94.2572 133.368C94.2572 132.756 94.2573 132.143 93.6429 131.531C93.6429 130.919 93.6428 130.307 93.0284 129.694C93.0284 128.47 92.4139 127.245 92.4139 126.021C92.4139 124.796 91.7995 123.572 91.7995 122.347C91.7995 121.123 91.7994 119.899 91.185 118.674C91.185 117.45 91.1851 116.225 90.5707 115.001C90.5707 112.552 90.5707 110.103 89.9562 107.041C89.9562 104.592 89.9562 102.143 89.9562 99.6944C89.9562 97.2454 89.9563 95.4087 90.5707 93.572C91.1851 89.8985 91.185 86.225 91.7995 83.7761C91.7995 82.5516 92.4139 81.9393 92.4139 81.3271C93.0284 80.7148 93.0284 80.7148 93.0284 80.7148Z" fill="#911D1B"/>
<path d="M105.932 83.1625C105.932 83.7748 106.546 84.387 107.16 85.6115C107.775 86.836 107.775 88.0605 108.389 89.285C109.004 90.5095 109.618 92.3462 110.233 94.183C110.233 94.7952 110.847 96.0197 110.847 97.2442C110.847 98.4687 111.461 99.0809 111.461 100.305C112.076 101.53 112.076 102.142 112.076 103.367C112.076 104.591 112.69 105.816 112.69 106.428C112.69 107.652 113.305 108.877 113.305 110.101C113.305 110.714 113.305 111.326 113.919 111.938C113.919 112.55 113.919 113.163 114.534 113.775C114.534 114.999 115.148 116.224 115.148 117.448C115.148 118.673 115.762 119.897 115.762 121.122C115.762 122.346 116.377 123.571 116.377 124.795C116.377 126.02 116.377 127.244 116.991 128.469C116.991 129.693 116.991 130.918 117.606 132.142C117.606 133.367 117.606 134.591 117.606 135.816C117.606 136.428 117.606 137.04 117.606 137.652C117.606 138.265 117.606 138.877 117.606 139.489C117.606 140.714 117.606 141.938 117.606 142.55C117.606 143.775 117.606 144.387 117.606 145.611C117.606 146.836 117.606 147.448 117.606 148.673C117.606 150.509 117.606 152.346 117.606 153.571C117.606 154.795 116.991 156.632 116.991 157.244C116.991 159.693 116.377 160.918 116.377 160.918C116.377 160.918 116.377 159.693 116.377 157.244C116.377 156.02 116.377 154.795 116.377 153.571C116.377 152.346 116.377 150.509 116.377 148.673C116.377 147.448 116.377 146.836 116.377 145.611C116.377 144.387 116.377 143.775 116.377 142.55C116.377 141.326 116.377 140.101 116.377 139.489C116.377 138.265 116.377 137.04 116.377 135.816C116.377 134.591 116.377 133.367 116.377 132.142C116.377 130.918 116.377 129.693 115.762 128.469C115.762 127.244 115.763 126.02 115.148 124.795C115.148 123.571 114.534 122.346 114.534 121.122C114.534 119.897 113.919 118.673 113.919 117.448C113.919 116.224 113.305 114.999 113.305 113.775C113.305 113.163 113.305 112.55 112.69 111.938C112.69 111.326 112.69 110.714 112.076 110.101C112.076 108.877 111.461 107.652 111.461 106.428C111.461 105.203 110.847 103.979 110.847 103.367C110.847 102.142 110.233 100.918 110.233 100.305C110.233 99.0809 109.618 98.4687 109.618 97.2442C109.618 96.0197 109.004 95.4074 109.004 94.183C108.389 92.3462 107.775 90.5095 107.775 89.285C107.16 88.0605 107.16 86.836 106.546 85.6115C105.931 84.387 105.932 83.7748 105.932 83.1625Z" fill="#911D1B"/>
<path d="M86.2677 61.7349C86.2677 61.7349 86.2677 61.7349 86.2677 62.3471C86.2677 62.9593 86.2677 63.5716 86.2677 64.1839C86.2677 64.7961 85.6532 66.0206 85.0387 67.2451C85.0387 67.8573 84.4244 68.4695 84.4244 69.0818L83.81 69.6941L83.1955 70.3063L82.581 70.9185L81.9666 71.5308C81.3521 72.143 80.7378 72.7553 80.1233 73.3675C78.8945 74.592 77.6656 75.8165 76.4367 77.041C75.2078 78.2655 73.3646 79.4899 72.1358 80.7144C70.9069 81.9389 69.0635 83.1634 67.8346 85.0002C66.6058 86.2247 64.7624 88.0614 63.5335 89.2859C62.3047 90.5104 61.0759 92.3471 59.8471 93.5716C58.6182 94.7961 58.0038 96.6328 56.7749 97.8573C56.1605 99.0818 55.5459 100.919 54.9315 102.143C54.9315 102.755 54.317 103.368 54.317 103.98C54.317 104.592 54.317 104.592 54.317 105.204C54.317 105.816 54.317 105.816 54.317 105.816V106.429V107.041V107.653V108.265C54.317 108.878 54.317 108.878 54.317 109.49C54.317 110.102 54.317 110.102 54.317 110.102C54.317 109.49 54.317 108.878 54.317 108.265V107.653V107.041V106.429V105.816C54.317 104.592 54.9315 103.367 55.546 102.143C56.1604 100.919 56.7748 99.0818 57.3892 97.8573C58.0036 96.6328 59.2325 94.7961 60.4614 92.9593C61.6902 91.1226 62.9191 89.8981 64.148 88.6736C65.3769 87.4491 66.6058 85.6124 68.4491 84.3879C69.678 83.1634 71.5212 81.9389 72.75 80.1022C73.9789 78.8777 75.8223 77.6532 77.0512 76.4287C78.28 75.2043 79.5089 73.9798 80.7378 72.7553C81.3522 72.143 81.9666 71.5308 82.581 70.9185L83.1955 70.3063L83.81 69.6941C84.4244 68.4696 85.6532 67.2451 86.2677 66.6328C86.8821 65.4083 87.4966 64.7961 87.4966 63.5716C87.4966 62.9594 87.4966 62.3471 87.4966 61.7349C86.2677 62.3471 86.2677 61.7349 86.2677 61.7349Z" fill="#911D1B"/>
<path d="M58.6193 91.1245C58.6193 91.1245 58.0047 91.7367 57.3903 92.9612C56.7759 93.5735 56.776 94.1857 56.1616 95.4102C55.5471 96.6347 54.9326 97.2469 54.3181 98.4714C53.7037 99.6959 53.0893 100.92 52.4749 102.145C52.4749 102.757 51.8604 103.369 51.8604 104.594C51.8604 105.206 51.2461 106.431 51.2461 107.043C50.6316 108.88 50.6316 110.104 50.0172 111.941C50.0172 112.553 50.0172 113.778 49.4027 114.39C49.4027 115.002 49.4027 116.227 49.4027 116.839V118.063C49.4027 118.675 49.4027 118.676 49.4027 119.288C49.4027 119.9 49.4027 119.9 49.4027 120.512C49.4027 121.125 49.4027 121.125 49.4027 121.737C49.4027 123.573 49.4028 125.41 50.0172 126.635C50.0172 127.247 50.6316 128.471 50.6316 129.084C50.6316 129.696 51.2461 130.92 51.2461 131.533C51.2461 132.145 51.2461 132.145 51.2461 132.757C51.2461 133.369 51.246 133.369 51.8604 133.982C51.8604 134.594 52.4749 135.206 52.4749 135.818C52.4749 136.431 53.0894 137.043 53.0894 137.655C53.0894 138.267 53.7039 138.88 53.7039 139.492C54.3183 140.716 54.3182 141.329 54.9326 141.941C55.547 143.165 56.1616 144.39 56.1616 144.39C56.1616 144.39 55.547 143.778 54.9326 142.553C54.3182 141.941 54.3183 141.329 53.7039 140.104C53.0894 138.88 52.4749 138.267 52.4749 137.043C52.4749 136.431 51.8604 135.818 51.8604 135.206C51.8604 134.594 51.8605 134.594 51.2461 133.982C51.2461 133.369 51.246 133.369 50.6316 132.757C50.6316 132.145 50.0172 131.533 50.0172 130.308C50.0172 129.696 49.4027 128.471 49.4027 127.859C49.4027 126.022 48.7883 124.186 48.7883 122.961C48.7883 122.349 48.7883 122.349 48.7883 121.737C48.7883 121.125 48.7883 121.125 48.7883 120.512C48.7883 119.9 48.7883 119.9 48.7883 119.288V118.063C48.7883 117.451 48.7883 116.227 48.7883 115.614C48.7883 115.002 48.7883 113.778 49.4027 113.165C49.4027 112.553 50.0172 111.329 50.0172 110.716C50.0172 110.104 50.0172 110.104 50.6316 109.492C50.6316 108.88 50.6316 108.88 51.2461 108.267C51.2461 107.655 51.8604 106.431 51.8604 105.818C51.8604 105.206 52.4749 104.594 52.4749 103.369C53.0893 102.145 53.7037 100.92 54.3181 99.6959C55.547 97.2469 56.7759 95.4102 58.0048 94.1857C57.3903 92.349 58.0048 91.7368 58.6193 91.1245Z" fill="#911D1B"/>
<path d="M75.822 97.2466C75.822 97.2466 75.2077 98.4711 74.5933 100.308C73.9789 102.145 72.75 105.206 71.5211 108.267C70.9067 110.104 70.9066 111.94 70.2922 113.777C70.2922 115.614 69.6777 118.063 69.6777 120.512C69.6777 122.961 69.6777 124.798 70.2922 127.247C70.2922 129.696 70.9067 132.144 71.5211 134.593C72.1355 135.818 72.1354 137.042 72.7499 138.267C72.7499 138.879 73.3643 139.491 73.3643 140.104C73.3643 140.716 73.9788 141.328 73.9788 141.94C74.5932 144.389 75.8221 146.226 77.051 148.063C77.6654 149.287 78.2798 149.9 78.8942 151.124C79.5086 152.349 80.1232 152.961 80.7376 153.573C81.3521 154.185 81.9664 155.41 82.5809 156.022C82.5809 156.634 83.1953 156.634 83.1953 157.247C83.1953 157.859 83.8098 157.859 83.8098 158.471C84.4242 159.083 85.0386 159.696 85.653 160.308C86.2675 160.92 86.882 161.532 86.882 162.144C87.4964 162.757 88.1107 163.369 88.1107 163.981C88.1107 164.593 88.7252 164.593 89.3397 165.206C90.5685 167.042 91.7974 167.655 91.7974 167.655C91.7974 167.655 91.183 167.042 89.3397 165.206C88.7252 164.593 88.7252 164.593 88.1107 163.981C87.4963 163.369 87.4964 162.757 86.882 162.144C86.2675 161.532 85.653 160.92 85.0386 160.308C84.4241 159.696 83.8098 159.083 83.1953 158.471C83.1953 157.859 82.5809 157.859 82.5809 157.247C82.5809 156.634 81.9664 156.634 81.9664 156.022C81.3519 155.41 80.7376 154.185 80.1232 153.573C79.5087 152.961 78.8944 151.736 78.2799 151.124C77.6655 149.9 77.0509 149.287 76.4365 148.063C75.2076 146.226 74.5932 143.777 73.3643 141.94C73.3643 141.328 72.7499 140.716 72.7499 140.104C72.7499 139.491 72.1356 138.879 72.1356 138.267C71.5212 137.042 71.5211 135.818 70.9066 134.593C70.2922 132.144 69.6777 129.696 69.6777 127.247C69.6777 124.798 69.0634 122.349 69.0634 120.512C69.0634 118.063 69.0633 116.226 69.6777 113.777C70.2921 111.94 70.2922 109.491 70.9066 108.267C71.5211 106.43 72.1356 105.206 72.1356 103.369C72.75 102.145 73.3643 100.92 73.3643 99.6955C74.5932 98.471 75.822 97.2466 75.822 97.2466Z" fill="#911D1B"/>
<path d="M124.364 85.6118C124.364 85.6118 124.364 85.6118 124.978 86.2241C125.593 86.8363 125.593 87.4486 126.207 88.0608C126.822 88.673 127.436 89.8975 128.051 91.122C128.665 91.7343 128.665 92.3465 129.28 92.9587C129.894 93.571 129.894 94.7955 130.509 95.4077C131.123 97.2445 131.737 99.0812 132.352 100.918C132.966 102.755 133.581 105.204 134.195 107.04C134.809 109.489 134.81 111.326 135.424 113.775C135.424 116.224 135.424 118.673 135.424 121.122C135.424 122.346 135.424 123.571 135.424 124.795C135.424 126.02 135.424 127.244 134.809 128.469C134.809 129.693 134.195 130.918 134.195 132.142C134.195 133.367 133.581 134.591 133.581 135.816C133.581 137.04 132.966 138.265 132.966 138.877C132.352 140.102 132.352 140.714 131.737 141.938C131.737 142.551 131.123 143.163 131.123 143.163C131.123 143.775 130.509 144.387 130.509 144.387C129.894 145.612 129.894 146.224 129.28 146.836C128.665 147.448 128.665 148.673 128.051 149.285C127.436 149.898 127.436 150.51 126.822 151.122C126.207 152.347 125.593 153.571 124.978 154.795C123.75 156.632 123.135 157.857 123.135 157.857C123.135 157.857 123.75 156.632 124.364 154.795C124.979 153.571 125.593 152.959 126.207 151.122C126.207 150.51 126.822 149.897 126.822 148.673C126.822 148.061 127.436 146.836 128.051 146.224C128.665 145.612 128.665 144.387 129.28 143.775C129.28 143.163 129.894 142.551 129.894 142.551C129.894 141.938 130.509 141.326 130.509 141.326C130.509 140.102 131.123 139.489 131.123 138.265C131.123 137.04 131.737 136.428 131.737 135.204C131.737 133.979 132.352 132.755 132.352 131.53C132.352 130.306 132.966 129.081 132.966 127.857C132.966 126.632 132.966 125.408 133.581 124.183C133.581 122.959 133.581 121.734 133.581 120.51C133.581 118.061 133.581 115.612 133.581 113.163C133.581 110.714 132.966 108.265 132.352 106.428C132.352 105.204 131.737 103.979 131.737 103.367C131.737 102.142 131.123 101.53 131.123 100.306C130.508 98.469 129.894 96.6322 129.28 94.7955C128.665 92.9588 128.051 91.7342 127.436 90.5097C126.822 89.2853 126.207 88.0608 125.593 87.4485C124.979 86.8363 124.364 85.6118 124.364 85.6118Z" fill="#911D1B"/>
<path d="M91.1833 146.227C91.1833 146.227 91.1833 146.839 91.7978 147.451C92.4122 148.063 92.4123 149.288 93.0267 149.9C93.0267 150.512 93.6412 151.124 93.6412 151.737C93.6412 152.349 94.2555 152.961 94.8699 153.573C95.4844 154.186 95.4844 154.798 96.0989 155.41C96.0989 156.022 96.7133 156.022 96.7133 156.635C96.7133 157.247 97.3276 157.247 97.3276 157.859C97.9421 158.471 97.9421 159.084 98.5566 159.696C99.171 160.308 99.7855 160.92 99.7855 161.533C100.4 162.145 101.014 162.757 101.014 163.369L101.629 163.982L102.243 164.594C102.858 165.206 102.858 165.206 103.472 165.818C104.086 166.431 104.086 166.431 104.701 166.431C105.315 167.043 105.315 167.043 105.315 167.043C105.315 167.043 104.701 167.043 104.701 166.431C104.701 166.431 104.086 165.818 103.472 165.818C102.858 165.818 102.858 165.206 102.243 164.594L101.629 163.982L101.014 163.369C100.4 162.757 99.7855 162.145 99.7855 161.533C99.1711 160.92 98.5566 160.308 98.5566 159.696C97.9421 159.084 97.3276 158.471 97.3276 157.859C97.3276 157.247 96.7133 157.247 96.7133 156.635C96.7133 156.022 96.0989 156.022 96.0989 155.41C95.4844 154.798 95.4844 154.186 94.8699 153.573C94.2555 152.961 94.2555 152.349 94.2555 151.737C94.2555 151.124 93.6412 150.512 93.6412 149.9C93.6412 149.288 93.0267 148.676 93.0267 148.063C93.0267 147.451 93.0267 147.451 92.4122 146.839C91.1834 146.227 91.1833 146.227 91.1833 146.227Z" fill="#911D1B"/>
<path d="M59.2349 138.268C59.2349 138.268 59.235 138.88 59.8494 140.104C60.4638 141.329 61.0782 143.166 62.3071 145.002C62.9215 146.227 63.5359 146.839 64.1503 148.064C64.7648 149.288 65.3792 150.513 66.608 151.125C67.2225 152.349 68.4515 153.574 69.0659 154.186C69.6803 154.798 70.2947 155.41 70.2947 156.023C70.9091 156.635 71.5236 157.247 72.1381 157.859C73.3669 159.084 73.9814 159.696 75.2102 160.921L75.8245 161.533L76.439 162.145L77.0535 162.757L77.6679 163.37L78.2824 163.982L78.8967 164.594C79.5111 165.206 80.1257 165.206 80.7401 165.819C81.969 166.431 83.1979 167.043 83.8123 167.655C84.4267 167.655 85.041 168.268 85.041 168.268C85.6555 168.268 85.6556 168.88 86.27 168.88C86.8844 168.88 88.1133 169.492 88.7277 169.492C88.1133 169.492 87.4989 168.88 86.27 168.88C85.6556 168.88 84.4267 168.268 83.1978 167.655C81.969 167.043 81.3545 166.431 80.1256 166.431C79.5112 166.431 78.8969 165.819 78.2824 165.206L77.6679 164.594L77.0535 163.982L76.439 163.37L75.8245 162.757L75.2102 162.145L74.5958 161.533C73.3669 160.921 72.138 159.696 71.5236 158.472C70.9092 157.859 70.2946 157.247 69.6802 156.635C69.0658 156.023 68.4514 155.41 68.4514 154.798C67.2226 153.574 66.6082 152.349 65.9937 151.125C64.1504 148.676 62.9215 146.839 62.3071 144.39C61.0782 142.553 60.4637 140.717 60.4637 139.492C59.8492 138.88 59.2349 138.268 59.2349 138.268Z" fill="#911D1B"/>
<path d="M85.0386 76.4277C85.0386 76.4277 85.0388 76.4277 84.4243 77.04C83.8099 77.6522 83.8098 78.2645 82.5809 79.489C81.9665 80.7134 80.7376 81.9379 79.5088 83.1624C78.8943 83.7747 78.28 84.3869 77.6655 84.9992C77.0511 85.6114 77.051 85.6114 76.4366 86.2236C75.8222 86.8359 75.8223 86.8359 75.2078 87.4481C74.5934 88.0604 73.9788 89.2849 72.75 89.8971C72.1355 90.5093 70.9067 91.7338 70.2923 92.3461C69.0634 94.1828 67.2202 96.6318 65.9913 98.4685C63.5336 103.366 61.6901 108.264 60.4613 114.387C59.8468 117.448 59.847 119.897 59.847 122.958C59.847 126.02 60.4613 128.469 61.0757 130.918C61.0757 131.53 61.0758 132.142 61.6902 132.754C61.6902 133.367 62.3047 133.979 62.3047 134.591C62.3047 135.203 62.9192 135.815 62.9192 136.428C62.9192 137.04 63.5334 137.652 63.5334 138.264C64.1479 139.489 64.1479 140.713 64.7624 141.326C64.7624 141.938 65.3769 142.55 65.3769 143.162C65.3769 143.775 65.9913 144.387 65.9913 144.387C65.9913 144.999 66.6056 145.611 66.6056 145.611C66.6056 146.224 67.2201 146.224 67.2201 146.836C67.2201 147.448 67.8346 147.448 67.8346 148.06C67.8346 148.673 68.449 148.673 68.449 149.285C69.0635 150.509 70.2923 152.346 70.9067 152.958C70.2923 151.734 69.0635 150.509 68.449 149.285C68.449 148.673 67.8346 148.673 67.8346 148.06C67.8346 147.448 67.2201 147.448 67.2201 146.836C67.2201 146.224 66.6056 146.224 66.6056 145.611C66.6056 144.999 65.9913 144.387 65.9913 144.387C65.9913 143.775 65.3769 143.162 65.3769 143.162C65.3769 142.55 64.7624 141.938 64.7624 141.326C64.1479 140.101 64.1479 138.877 63.5334 138.264C62.919 135.815 61.6902 133.367 61.0757 130.918C60.4613 128.469 60.4614 125.407 59.847 122.958C59.847 119.897 59.8468 117.448 60.4613 114.387C61.0757 108.877 63.5336 103.366 65.9913 98.4685C67.2202 96.0196 69.0634 94.1828 70.2923 92.3461C70.9067 91.1216 72.1355 90.5093 72.75 89.8971C73.3644 89.2849 74.5934 88.0604 75.2078 87.4481C75.8223 86.8359 75.8222 86.8359 76.4366 86.2236C77.051 85.6114 77.0511 85.6114 77.6655 84.9992C78.28 84.3869 78.8943 83.7747 79.5088 83.1624C80.7376 81.9379 81.3521 80.7134 82.5809 79.489C83.1954 78.2645 83.8099 77.6522 84.4243 77.04C85.0388 77.04 85.0386 76.4277 85.0386 76.4277Z" fill="#911D1B"/>
<path d="M143.412 93.5723C143.412 93.5723 144.027 94.1845 144.641 96.0213C145.256 96.6335 145.256 97.858 145.87 99.0825C146.485 100.307 147.099 101.531 147.099 103.368C147.713 104.593 148.328 106.429 148.328 108.266C148.942 110.103 148.942 111.94 149.557 113.776C149.557 115.613 150.171 118.062 150.171 119.899C150.171 121.736 150.171 124.185 150.171 126.021C150.171 127.246 150.171 127.858 149.557 129.082C149.557 129.695 149.557 130.307 149.557 130.919V131.531V132.144C149.557 133.368 148.942 133.98 148.942 135.205C148.942 135.817 148.942 136.429 148.328 136.429C148.328 137.042 147.713 137.654 147.713 137.654C147.713 138.266 147.099 138.266 147.099 138.878C147.099 139.491 146.484 139.491 146.484 140.103C146.484 140.715 145.87 140.715 145.87 141.327C145.87 141.94 145.256 141.94 145.256 142.552C145.256 143.164 144.641 143.164 144.641 143.776V144.389C144.641 144.389 144.641 145.001 144.027 145.001C143.412 145.613 143.412 146.225 142.798 146.838C142.184 147.45 142.183 148.062 141.569 148.674L140.955 149.287L140.34 149.899C139.726 150.511 139.726 151.123 139.111 151.123L138.497 151.736L137.882 152.348C136.653 153.572 136.039 154.185 136.039 154.185C136.039 154.185 136.653 153.572 137.882 151.736L138.497 151.123L139.111 150.511C139.726 149.899 139.726 149.899 140.34 149.287L140.955 148.674L141.569 148.062C142.183 147.45 142.184 146.838 142.798 146.225C143.412 145.613 143.412 145.001 144.027 144.389C144.027 144.389 144.027 143.776 144.641 143.776V143.164C144.641 142.552 145.256 142.552 145.256 141.94C145.256 141.327 145.87 141.327 145.87 140.715C145.87 140.103 146.484 140.103 146.484 139.491C146.484 138.878 147.099 138.878 147.099 138.266C147.099 137.654 147.713 137.654 147.713 137.042C147.713 136.429 148.328 136.429 148.328 135.817C148.328 135.205 148.328 134.593 148.942 134.593C149.557 133.368 149.557 132.756 149.557 131.531V130.919V130.307C149.557 129.695 149.557 129.082 149.557 129.082C149.557 127.858 149.557 127.246 150.171 126.021C150.171 124.185 150.785 121.736 150.171 119.899C150.171 118.062 150.171 115.613 149.557 113.776C149.557 111.94 148.942 110.103 148.328 108.266C147.713 106.429 147.713 104.593 147.099 103.368C146.484 100.307 145.256 97.858 144.641 96.0213C144.027 94.7968 143.412 93.5723 143.412 93.5723Z" fill="#911D1B"/>
<path d="M127.435 75.2056C128.664 75.8178 129.278 75.8178 129.892 76.4301C130.507 77.0423 131.736 77.0423 132.35 77.6546C133.579 78.2668 134.193 78.8791 135.422 79.4913C136.037 80.1036 136.651 80.1035 137.266 80.7158C137.88 81.328 138.495 81.3281 139.109 81.9403C140.338 83.1648 141.567 83.777 142.796 85.0015C144.024 86.226 145.253 87.4505 146.482 88.675C147.711 89.8995 148.325 91.7362 149.554 92.9607C150.169 94.7974 151.398 96.0219 152.012 97.8586C152.012 98.4709 152.626 98.4709 152.626 99.0831C152.626 99.6954 152.626 99.6954 153.241 100.308C153.241 100.92 153.241 100.92 153.855 101.532C153.855 102.144 153.855 102.144 154.47 102.757C154.47 103.369 154.47 103.369 155.084 103.981C155.084 104.593 155.084 104.593 155.084 105.206C155.084 105.818 155.084 105.818 155.084 106.43C155.084 107.042 155.084 107.042 155.084 107.655C155.084 108.267 155.084 108.879 155.699 110.104C155.699 110.716 155.699 111.328 155.699 111.94C155.699 112.552 155.699 113.165 155.699 113.777V114.389V115.001C155.699 115.614 155.699 116.226 155.699 116.838C155.699 116.226 155.699 115.614 155.699 115.614V115.001V114.389C155.699 113.777 155.699 113.165 155.699 112.553C155.699 111.328 155.084 109.491 155.084 108.267C155.084 107.655 155.084 107.655 155.084 107.042C155.084 106.43 155.084 106.43 155.084 105.818C155.084 105.206 155.084 105.206 155.084 104.593C155.084 103.981 155.084 103.981 154.47 103.369C154.47 102.757 154.47 102.757 153.855 102.144C153.855 101.532 153.855 101.532 153.241 100.92C153.241 100.308 153.241 100.308 152.626 99.6954C152.626 99.0831 152.012 99.0831 152.012 98.4709C151.398 96.6341 150.169 95.4096 149.554 93.5729C148.325 92.3484 147.711 90.5117 146.482 89.2872C145.253 88.0627 144.024 86.8382 143.41 85.6138C142.181 84.3893 140.952 83.1648 139.723 82.5525C138.495 81.328 137.266 80.7158 136.651 80.1035C135.422 79.4913 134.808 78.879 133.579 78.2668C132.965 77.6545 131.736 77.0423 131.121 77.0423C129.278 75.8178 128.664 75.8178 127.435 75.2056Z" fill="#911D1B"/>
</g>
<path opacity="0.5" d="M77.6659 36.0204C80.1236 38.4694 81.3524 42.1429 82.5813 45.2041C84.4246 51.9388 84.4247 59.2857 81.3525 65.4081C77.0515 75.2041 66.606 78.8775 59.2328 86.2245C52.4741 92.9592 47.5586 101.531 45.1008 110.714C42.6431 121.122 44.4863 131.531 48.7874 141.326C52.474 149.286 57.3895 156.633 64.7627 162.143C72.7503 168.265 83.1958 171.327 93.0267 172.551C98.5566 173.163 104.086 173.163 109.616 171.939C113.917 171.326 117.604 170.102 121.291 168.878C129.278 165.816 137.266 161.531 143.41 155.408C150.169 148.673 155.085 139.49 156.928 130.306C158.157 124.796 158.771 118.673 158.157 113.163C158.157 108.878 156.313 103.98 154.47 99.6938C150.169 89.2857 142.181 80.7143 132.965 74.5918C127.435 70.9183 121.291 69.0816 115.146 66.6327C111.46 65.4082 107.159 63.5714 104.086 60.5102C102.858 59.2857 101.629 57.449 101.629 55.6122C101.014 53.1633 101.014 50.102 101.014 47.0408C101.014 45.2041 101.014 42.7551 101.014 40.9184C101.014 40.3061 101.014 39.0816 101.014 38.4694C101.014 37.8571 100.4 37.8571 99.7855 38.4694C99.1711 38.4694 99.1711 39.6939 99.1711 39.6939C99.7855 39.6939 99.7854 39.6939 100.4 39.6939C100.4 39.0816 101.014 37.2449 99.7855 37.8571C99.1711 37.8571 99.1711 38.4694 99.1711 39.0816C98.5566 40.3061 98.5565 40.9184 97.9421 42.1429C98.5565 42.1429 98.5566 42.1429 99.1711 42.1429C99.1711 39.6939 98.5566 36.6326 99.1711 34.7959C99.1711 34.7959 98.5565 34.7959 97.9421 34.7959C96.7132 37.2449 95.4844 40.3061 95.4844 43.3673C96.0988 43.3673 96.0989 43.3673 96.7134 43.3673C94.2556 39.0816 94.2555 34.1837 94.8699 29.2857C94.8699 28.6734 93.6412 28.6735 93.6412 28.6735C92.4123 29.2857 93.0267 31.1224 92.4122 32.3469H93.0267V31.7347C93.0267 31.1224 93.0267 30.5102 93.0267 29.898C93.0267 28.6735 93.0267 26.8367 93.6412 25.6122C93.6412 25 93.6411 25 93.0267 25C92.4123 25 92.4122 25.6122 92.4122 25.6122C91.1834 27.449 90.569 29.8979 89.9545 32.3469C89.3401 36.0204 88.7256 39.6939 88.7256 43.3673C89.34 43.3673 89.3401 43.3673 89.9545 43.3673C89.9545 43.3673 89.34 42.7551 88.7256 42.7551C87.4967 42.7551 88.1111 43.3673 88.1111 43.9796C88.7256 43.9796 88.7256 43.9796 89.3401 43.9796C88.7256 42.7551 88.1113 40.9184 87.4968 39.6939C87.4968 39.0816 86.8823 38.4694 86.2679 38.4694C84.4246 38.4694 86.8824 42.7551 86.8824 43.3673C87.4968 43.3673 87.4967 43.3673 88.1111 43.3673C87.4967 42.1429 86.2679 40.3061 85.6534 39.0816C85.039 38.4694 85.0391 37.8571 84.4247 37.8571C83.1958 37.2449 83.1957 38.4694 83.1957 39.0816C83.8102 39.0816 83.8102 39.0816 84.4247 39.0816C83.8102 37.8572 82.5813 36.0204 80.738 36.0204C78.2803 34.7959 77.6659 34.7959 77.6659 36.0204H78.8946C78.2802 35.4082 78.8947 35.4081 79.5091 35.4081C80.738 36.0204 81.3524 37.2449 81.9668 37.8571H83.1957C83.1957 37.8571 83.1957 37.2449 83.1957 36.6327H82.5813L83.1957 37.2449C84.4246 38.4694 85.6535 40.9184 86.2679 42.1429H87.4968C86.8824 40.9184 86.8823 40.3061 86.2679 39.0816V38.4694C86.2679 37.8571 85.6534 37.8571 85.6534 38.4694C86.8823 39.6939 87.4967 42.1429 88.1111 43.3673H89.3401V42.7551C89.3401 42.1429 89.34 42.1429 88.7256 42.7551C88.7256 42.7551 88.7256 42.7551 89.3401 43.3673H90.569C90.569 37.8571 91.7979 32.347 93.6412 26.8368C93.6412 26.2245 94.2555 25.6122 94.2555 25.6122C94.2555 25 93.6412 25.6122 93.6412 25.6122C93.6412 26.2245 93.6412 26.8367 93.6412 27.449C93.6412 28.6735 93.6412 29.898 93.6412 31.1224V32.9592H94.2555V32.3469C94.2555 31.7347 94.8699 31.1225 94.8699 29.898C94.8699 29.898 94.8699 30.5102 94.8699 31.1224C94.8699 32.3469 94.8699 32.9592 94.8699 34.1837C94.8699 37.8571 95.4845 41.5306 96.7134 44.5918H97.9421C97.9421 41.5306 99.1709 38.4694 100.4 36.0204C99.7854 36.0204 99.7855 36.0204 99.1711 36.0204C98.5566 38.4694 98.5566 41.5306 99.1711 43.9796H100.4C100.4 42.7551 101.014 41.5306 101.629 40.3061C101.629 40.3061 101.629 40.3061 101.629 39.6939C101.629 39.6939 101.629 39.0816 101.014 39.6939C101.014 40.3061 101.014 40.9184 101.014 40.9184C101.014 40.9184 101.629 40.9184 102.243 40.9184C102.243 40.3061 102.243 40.3061 102.858 39.6939C102.858 39.0816 102.243 39.0816 102.243 39.6939V40.3061C102.243 42.1429 102.243 44.5918 102.243 46.4286C102.243 50.102 102.243 54.3878 103.472 58.0612C104.701 60.5102 106.544 62.3469 109.002 64.1837C113.918 66.6327 119.447 68.4694 124.363 70.9184C135.423 75.2041 145.254 83.1632 152.012 92.9592C155.085 97.2449 156.928 102.143 158.771 107.041C160 111.939 160 116.837 160 122.347C159.386 132.755 155.699 143.163 149.555 151.735C144.025 159.082 136.651 164.592 128.049 168.265C124.363 170.102 120.062 171.327 115.761 172.551C113.917 173.163 111.46 173.775 109.616 173.775C106.544 174.388 102.858 174.388 99.7855 173.775C88.7257 173.163 78.2803 170.714 69.0638 163.98C53.0885 152.959 44.4863 130.918 48.7874 112.551C50.6307 102.755 56.1607 94.1836 62.9195 87.4489C70.2927 80.7143 80.1235 76.4286 85.039 67.2449C88.1111 61.1224 88.1112 53.7755 86.2679 47.0408C85.039 43.9796 83.8102 40.3061 81.3525 37.2449C78.8948 35.4082 77.6659 35.4082 77.6659 36.0204Z" fill="#911D1B"/>
<g opacity="0.2" style="mix-blend-mode:overlay">
<path d="M96.0996 83.1649C96.0996 83.1649 91.1842 116.226 105.316 159.696C110.232 175.614 90.5696 151.124 88.1119 120.512C85.6541 89.8997 95.4852 69.6956 96.0996 83.1649Z" fill="url(#paint1_radial_8002_25093)"/>
</g>
<g opacity="0.2" style="mix-blend-mode:overlay">
<path d="M102.858 81.3266C102.858 81.3266 117.604 131.531 113.303 159.694C112.074 165.816 124.977 155.408 118.219 118.061C112.074 80.7143 101.015 75.2041 102.858 81.3266Z" fill="url(#paint2_radial_8002_25093)"/>
</g>
<g opacity="0.2" style="mix-blend-mode:overlay">
<path d="M120.676 84.3892C120.676 84.3892 141.566 120.512 122.519 158.471C117.603 164.593 139.723 159.083 139.723 119.287C139.109 83.7769 116.989 74.5932 120.676 84.3892Z" fill="url(#paint3_radial_8002_25093)"/>
</g>
<g opacity="0.2" style="mix-blend-mode:overlay">
<path d="M79.5091 96.0199C79.5091 96.0199 61.076 129.693 91.1833 164.591C97.942 173.775 58.0039 151.122 68.4493 110.714C74.5937 90.5097 81.9668 88.0607 79.5091 96.0199Z" fill="url(#paint4_radial_8002_25093)"/>
</g>
<g opacity="0.2" style="mix-blend-mode:overlay">
<path d="M86.2681 77.0396C86.2681 77.0396 46.9443 110.101 71.5217 151.733C77.0516 162.142 64.763 151.121 59.8475 137.04C54.932 122.958 55.5465 105.815 69.064 91.1212C82.5816 76.4274 91.798 72.1416 86.2681 77.0396Z" fill="url(#paint5_radial_8002_25093)"/>
</g>
<g opacity="0.2" style="mix-blend-mode:soft-light">
<path d="M104.086 91.7351C104.086 91.7351 112.688 111.327 105.315 116.837C97.9415 122.347 96.7127 103.98 96.7127 96.633C97.3271 89.2861 100.399 81.9392 104.086 91.7351Z" fill="url(#paint6_radial_8002_25093)"/>
</g>
<g opacity="0.2" style="mix-blend-mode:soft-light">
<path d="M112.687 90.5116C112.687 90.5116 116.374 99.6953 117.603 108.267C118.832 116.226 130.506 111.94 123.747 96.0218C117.603 80.1034 109.615 82.5524 112.687 90.5116Z" fill="url(#paint7_radial_8002_25093)"/>
</g>
<g opacity="0.2" style="mix-blend-mode:soft-light">
<path d="M86.8824 94.1834C86.8824 94.1834 85.6535 102.755 86.268 111.938C86.8824 121.122 74.5937 119.285 77.0515 105.816C80.1236 91.7343 88.7258 86.8364 86.8824 94.1834Z" fill="url(#paint8_radial_8002_25093)"/>
</g>
<g opacity="0.2" style="mix-blend-mode:soft-light">
<path d="M65.9916 94.1829C65.9916 94.1829 62.9193 99.6931 61.6905 106.428C60.4616 112.55 51.8596 109.489 56.7751 100.305C61.0761 91.1217 68.4493 89.285 65.9916 94.1829Z" fill="url(#paint9_radial_8002_25093)"/>
</g>
<g opacity="0.2" style="mix-blend-mode:soft-light">
<path d="M128.663 82.5497C128.663 82.5497 134.808 90.5089 137.88 97.8558C140.952 105.203 148.325 99.6926 140.952 88.0599C132.964 76.4273 124.362 77.6518 128.663 82.5497Z" fill="url(#paint10_radial_8002_25093)"/>
</g>
<path opacity="0.8" d="M127.436 161.531C134.809 153.572 136.652 142.551 132.351 150.511C128.05 158.47 118.834 168.878 108.388 167.041C98.5575 165.204 89.9555 145.613 93.6421 154.796C97.3287 163.368 103.473 170.102 95.4853 170.102C82.5822 169.49 70.2935 164.592 61.077 158.47C70.9079 168.266 85.6543 173.776 106.545 172.551C126.821 169.49 150.784 157.858 156.929 129.694C150.17 153.572 120.677 168.266 127.436 161.531Z" fill="url(#paint11_radial_8002_25093)"/>
<g opacity="0.2" style="mix-blend-mode:soft-light">
<path d="M58.6184 138.265C58.6184 138.265 97.9421 159.693 147.097 124.183C161.229 113.775 148.94 156.02 109.616 163.367C69.6781 170.714 44.4864 136.428 58.6184 138.265Z" fill="url(#paint12_radial_8002_25093)"/>
</g>
<g opacity="0.8" style="mix-blend-mode:soft-light">
<path d="M69.6783 79.4893C69.6783 79.4893 69.6785 79.4892 69.0641 80.1015C68.4496 80.1015 67.8351 80.7137 67.2206 81.326C66.6062 81.9382 65.3774 82.5505 64.7629 83.775C63.5341 84.3872 62.9196 85.6117 61.6908 86.8362C60.4619 88.0607 59.233 89.2851 58.6186 90.5096C57.3897 91.7341 56.1609 93.5709 55.5464 95.4076C54.932 96.0199 54.3176 97.2444 53.7032 97.8566C53.7032 98.4688 53.0887 98.4688 53.0887 99.0811C53.0887 99.6933 52.4743 99.6933 52.4743 100.306L51.8598 100.918L51.2454 101.53C51.2454 102.142 50.6309 102.755 50.6309 102.755C50.6309 103.367 50.0166 103.979 50.0166 103.979C50.0166 104.591 49.4021 105.204 49.4021 105.204C48.7877 106.428 48.7876 107.04 48.7876 108.265C48.7876 108.877 48.7877 109.489 48.1732 109.489C48.1732 110.101 48.1732 110.714 48.1732 110.714C48.1732 111.326 48.1732 111.938 48.1732 111.938C48.1732 112.55 48.1732 113.163 48.1732 113.163C48.1732 114.387 48.1732 114.999 47.5588 116.224C47.5588 117.448 47.5588 118.061 47.5588 119.285C47.5588 119.897 47.5588 120.51 47.5588 120.51C47.5588 121.122 47.5588 121.734 47.5588 121.734C47.5588 122.346 47.5588 122.346 47.5588 122.959C47.5588 123.571 47.5588 123.571 47.5588 124.183C47.5588 124.795 47.5588 126.02 47.5588 126.632C47.5588 127.244 47.5588 127.857 48.1732 129.081C48.1732 129.693 48.1732 129.693 48.1732 130.306C48.1732 130.918 48.1732 130.918 48.1732 131.53C48.1732 132.754 48.7876 133.979 48.7876 134.591C49.4021 136.428 49.4021 137.652 49.4021 137.652C49.4021 137.652 48.7877 136.428 48.1732 135.204C47.5588 134.591 47.5588 133.367 46.9444 132.142C46.33 130.918 46.3299 129.693 45.7155 127.857C45.7155 127.244 45.7155 126.02 45.1011 125.408C45.1011 124.795 45.1011 124.795 45.1011 124.183C45.1011 123.571 45.1011 123.571 45.1011 122.959C45.1011 122.346 45.1011 121.734 45.1011 121.734C45.1011 121.122 45.1011 120.51 45.1011 120.51C45.1011 119.285 45.1011 118.673 45.1011 117.448C45.1011 116.224 45.1011 115.612 45.1011 114.387C45.1011 113.775 45.1011 113.163 45.1011 112.55C45.1011 111.938 45.1011 111.326 45.1011 110.714C45.1011 110.101 45.1011 109.489 45.1011 108.877C45.1011 108.265 45.101 107.653 45.7155 107.04C45.7155 105.816 46.33 105.204 46.9444 103.979C46.9444 103.367 47.5588 102.755 47.5588 102.755C47.5588 102.142 48.1732 101.53 48.1732 101.53C48.1732 100.918 48.7876 100.306 48.7876 100.306L49.4021 99.6933L50.0166 99.0811C50.0166 98.4688 50.6309 97.8566 50.6309 97.8566C50.6309 97.2444 51.2454 97.2443 51.2454 96.6321C51.8598 96.0198 52.4743 94.7954 53.0887 94.1831C54.3176 92.3464 55.5465 91.1219 56.7754 89.8974C57.3898 89.2852 58.0042 88.6729 58.6186 88.0607C59.233 87.4484 59.8474 86.8362 60.4618 86.2239C61.6907 84.9995 62.9196 84.3872 63.534 83.1627C64.7629 82.5505 65.3775 81.9382 65.9919 81.326C66.6063 80.7137 67.2207 80.7137 67.8351 80.1015C69.064 79.4892 69.6783 79.4893 69.6783 79.4893Z" fill="url(#paint13_radial_8002_25093)"/>
</g>
<path d="M101.014 48.8787C101.014 38.4705 101.015 37.246 99.7857 39.695C100.4 36.6338 99.1712 38.4705 97.9423 42.144C97.3279 37.246 97.9423 34.797 97.9423 34.797C97.9423 34.797 95.4846 39.695 95.4846 43.3685C94.8702 42.144 94.2557 40.9195 94.2557 40.3072C93.0268 46.4297 93.0269 50.7154 91.798 48.2664C88.1114 39.695 89.9546 31.7358 91.1835 26.2256C89.9546 28.6746 87.4969 36.0215 88.1113 43.3685C88.1113 43.3685 86.8826 42.144 87.4971 43.9807C85.0393 37.8582 83.1959 36.6338 85.6536 43.3685C81.967 36.6338 80.7383 36.6337 81.3527 38.4705C80.7383 37.246 79.5093 36.0215 78.8948 36.0215C80.7381 37.8583 82.5816 40.3073 83.8104 45.2052C88.1115 56.2256 85.0393 51.9399 84.4249 50.1031C83.8105 48.8786 85.0393 53.1644 83.8104 56.2256C83.8104 57.4501 83.8104 58.0623 83.8104 59.2868C83.196 63.5725 81.9671 66.6337 80.1238 69.0827C81.9671 66.6337 83.196 64.1848 84.4249 61.1236C86.8826 52.5521 88.7259 64.1848 83.1959 70.3072C77.666 76.4297 89.9548 69.695 89.9548 61.1236C89.9548 54.3889 93.0269 62.348 95.4846 68.4705C97.9424 73.9807 96.0991 65.4092 96.0991 59.899C95.4847 54.3888 97.328 61.7358 102.858 68.4705C106.545 72.7562 103.472 66.6338 102.243 63.5726C101.015 60.5113 102.858 66.0215 119.448 69.695C101.629 61.7358 101.629 60.5113 101.014 48.8787Z" fill="url(#paint14_radial_8002_25093)"/>
<defs>
<radialGradient id="paint0_radial_8002_25093" cx="0" cy="0" r="1" gradientTransform="matrix(64.8005 -23.2827 23.3659 64.5696 81.8425 91.447)" gradientUnits="userSpaceOnUse">
<stop offset="0.1751" stop-color="#EAA917"/>
<stop offset="0.6085" stop-color="#DE7E2A"/>
<stop offset="1" stop-color="#C13D28"/>
</radialGradient>
<radialGradient id="paint1_radial_8002_25093" cx="0" cy="0" r="1" gradientTransform="matrix(44.5593 -16.01 16.0673 44.4003 100.674 133.111)" gradientUnits="userSpaceOnUse">
<stop offset="0.1751" stop-color="#EAA917"/>
<stop offset="0.6085" stop-color="#DE7E2A"/>
<stop offset="1" stop-color="#C13D28"/>
</radialGradient>
<radialGradient id="paint2_radial_8002_25093" cx="0" cy="0" r="1" gradientTransform="matrix(42.5169 -15.2762 15.3309 42.3655 112.699 130.263)" gradientUnits="userSpaceOnUse">
<stop offset="0.1751" stop-color="#EAA917"/>
<stop offset="0.6085" stop-color="#DE7E2A"/>
<stop offset="1" stop-color="#C13D28"/>
</radialGradient>
<radialGradient id="paint3_radial_8002_25093" cx="0" cy="0" r="1" gradientTransform="matrix(44.54 -16.0031 16.0604 44.3813 126.9 129.167)" gradientUnits="userSpaceOnUse">
<stop offset="0.1751" stop-color="#EAA917"/>
<stop offset="0.6085" stop-color="#DE7E2A"/>
<stop offset="1" stop-color="#C13D28"/>
</radialGradient>
<radialGradient id="paint4_radial_8002_25093" cx="0" cy="0" r="1" gradientTransform="matrix(41.0678 -14.7556 14.8083 40.9216 82.0924 140.631)" gradientUnits="userSpaceOnUse">
<stop offset="0.1751" stop-color="#EAA917"/>
<stop offset="0.6085" stop-color="#DE7E2A"/>
<stop offset="1" stop-color="#C13D28"/>
</radialGradient>
<radialGradient id="paint5_radial_8002_25093" cx="0" cy="0" r="1" gradientTransform="matrix(48.4148 -17.3953 17.4575 48.2423 78.1415 125.816)" gradientUnits="userSpaceOnUse">
<stop offset="0.1751" stop-color="#EAA917"/>
<stop offset="0.6085" stop-color="#DE7E2A"/>
<stop offset="1" stop-color="#C13D28"/>
</radialGradient>
<radialGradient id="paint6_radial_8002_25093" cx="0" cy="0" r="1" gradientTransform="matrix(48.8643 -17.5569 17.6196 48.6904 100.377 91.6036)" gradientUnits="userSpaceOnUse">
<stop offset="0.1751" stop-color="white"/>
<stop offset="1" stop-color="#C13D28"/>
</radialGradient>
<radialGradient id="paint7_radial_8002_25093" cx="0" cy="0" r="1" gradientTransform="matrix(46.7812 -16.8083 16.8685 46.6142 117.883 87.4029)" gradientUnits="userSpaceOnUse">
<stop offset="0.1751" stop-color="white"/>
<stop offset="1" stop-color="#C13D28"/>
</radialGradient>
<radialGradient id="paint8_radial_8002_25093" cx="0" cy="0" r="1" gradientTransform="matrix(39.7676 -14.2883 14.3395 39.6257 83.5565 95.005)" gradientUnits="userSpaceOnUse">
<stop offset="0.1751" stop-color="white"/>
<stop offset="1" stop-color="#C13D28"/>
</radialGradient>
<radialGradient id="paint9_radial_8002_25093" cx="0" cy="0" r="1" gradientTransform="matrix(30.7702 -1.2889 1.29351 30.6605 63.1436 94.1619)" gradientUnits="userSpaceOnUse">
<stop offset="0.1751" stop-color="white"/>
<stop offset="1" stop-color="#C13D28"/>
</radialGradient>
<radialGradient id="paint10_radial_8002_25093" cx="0" cy="0" r="1" gradientTransform="matrix(20.9663 -7.53314 7.56008 20.8916 132.483 86.3214)" gradientUnits="userSpaceOnUse">
<stop offset="0.1751" stop-color="white"/>
<stop offset="1" stop-color="#C13D28"/>
</radialGradient>
<radialGradient id="paint11_radial_8002_25093" cx="0" cy="0" r="1" gradientTransform="matrix(71.8452 -25.8138 25.9061 71.5892 103.863 110.73)" gradientUnits="userSpaceOnUse">
<stop offset="0.1751" stop-color="#E9651A"/>
<stop offset="0.6085" stop-color="#C04E0E"/>
<stop offset="1" stop-color="#C13D28"/>
</radialGradient>
<radialGradient id="paint12_radial_8002_25093" cx="0" cy="0" r="1" gradientTransform="matrix(84.8177 -30.4749 30.5838 84.5156 122.927 120.87)" gradientUnits="userSpaceOnUse">
<stop offset="0.1751" stop-color="#EAA917"/>
<stop offset="0.6085" stop-color="#DE7E2A"/>
<stop offset="1" stop-color="#C13D28"/>
</radialGradient>
<radialGradient id="paint13_radial_8002_25093" cx="0" cy="0" r="1" gradientTransform="matrix(40.3285 -14.49 14.5418 40.1849 49.3113 100.257)" gradientUnits="userSpaceOnUse">
<stop offset="0.015346" stop-color="white"/>
<stop offset="0.0823494" stop-color="#FFFCF6"/>
<stop offset="0.1915" stop-color="#FFF3DE"/>
<stop offset="0.3293" stop-color="#FFE5B6"/>
<stop offset="0.4888" stop-color="#FFD280"/>
<stop offset="0.5073" stop-color="#FFD079"/>
<stop offset="0.9813" stop-color="#FFD079"/>
</radialGradient>
<radialGradient id="paint14_radial_8002_25093" cx="0" cy="0" r="1" gradientTransform="matrix(14.1702 -5.09132 5.10953 14.1197 96.8795 63.1369)" gradientUnits="userSpaceOnUse">
<stop offset="0.1751" stop-color="#EAA917"/>
<stop offset="0.6085" stop-color="#DE7E2A"/>
<stop offset="1" stop-color="#C13D28"/>
</radialGradient>
</defs>
</svg>
