<svg width="200" height="200" viewBox="0 0 200 200" fill="none" xmlns="http://www.w3.org/2000/svg">
<path d="M117.786 101.826C116.578 110.219 109.091 124.846 97.7383 130.601C80.8305 138.994 69.2367 135.397 65.6136 134.198C60.5412 132.28 55.4689 130.361 50.8796 127.484C40.4934 120.77 33.9718 108.78 33.2471 96.3107C32.281 84.0812 33.9718 75.4487 41.4596 65.6172C42.9088 63.9387 48.2226 59.1428 50.1549 57.704C52.5703 56.0255 61.2658 51.4694 63.9227 50.7501C76.7244 47.393 83.4874 53.3878 96.0475 48.8317C99.6706 47.393 103.294 45.4746 107.158 44.5154C111.023 43.5563 115.612 43.7961 118.269 46.4338C119.477 47.393 120.202 48.8317 120.926 50.2705C122.375 53.148 123.825 56.2653 124.791 59.3826C123.342 59.8622 118.752 59.1428 118.752 59.1428C118.752 55.3061 119.235 54.1072 117.303 51.2296C116.337 49.7909 114.163 50.0307 112.955 50.9899C111.748 51.949 111.023 53.3878 110.54 55.0663C108.125 62.7397 110.781 70.8926 113.438 78.3262C115.854 86.2394 118.752 93.9128 117.786 101.826Z" fill="#E2621B"/>
<mask id="mask0_9002_21340" style="mask-type:luminance" maskUnits="userSpaceOnUse" x="33" y="44" width="92" height="92">
<path d="M117.786 101.826C116.578 110.219 109.091 124.846 97.7384 130.601C80.8306 138.994 69.2367 135.397 65.6136 134.198C60.5413 132.28 55.4689 130.361 50.8797 127.484C40.4934 120.77 33.9718 108.78 33.2472 96.3107C32.281 84.0812 33.9719 75.4487 41.4596 65.6172C42.9089 63.9387 48.2227 59.1428 50.155 57.704C52.5704 56.0255 61.2659 51.4694 63.9228 50.7501C76.7244 47.393 83.4875 53.3878 96.0476 48.8317C99.6707 47.393 103.294 45.4746 107.158 44.5154C111.023 43.5563 115.612 43.7961 118.269 46.4338C119.477 47.393 120.202 48.8317 120.926 50.2705C122.375 53.148 123.825 56.2653 124.791 59.3826C123.342 59.8622 118.752 59.1428 118.752 59.1428C118.752 55.3061 119.235 54.1072 117.303 51.2296C116.337 49.7909 114.163 50.0307 112.955 50.9899C111.748 51.949 111.023 53.3878 110.54 55.0663C108.125 62.7397 110.782 70.8926 113.438 78.3262C115.854 86.2394 118.752 93.9128 117.786 101.826Z" fill="white"/>
</mask>
<g mask="url(#mask0_9002_21340)">
<g opacity="0.44">
<path d="M124.066 42.8365C121.651 40.9182 119.235 38.7601 116.82 37.0815C113.439 34.6836 108.849 34.9234 104.743 35.1632C96.7723 35.8825 66.3383 38.2805 59.5752 42.5967C46.7735 50.9895 25.7595 67.5352 24.0688 82.8819C21.6534 103.025 41.4596 130.601 57.6428 142.83C65.1305 148.345 96.2892 140.912 105.709 139.233C115.129 137.555 124.549 133.238 129.863 125.325C131.796 122.208 133.003 119.091 131.796 115.494C130.346 111.657 125.999 108.06 121.651 108.78C118.994 109.259 120.926 111.177 118.269 112.376C108.366 116.693 99.4292 116.453 96.0476 114.055C86.1445 107.341 80.8306 97.2695 81.7968 85.2799C82.5214 75.4483 84.9368 66.8158 91.6999 59.622C95.323 56.0251 98.7046 53.1476 103.052 50.7497C105.468 49.5507 110.057 47.6324 112.472 46.913C115.612 45.9538 118.752 46.4334 121.651 52.1885C122.376 53.867 125.757 44.2753 124.066 42.8365Z" fill="#CE5113"/>
</g>
</g>
<mask id="mask1_9002_21340" style="mask-type:luminance" maskUnits="userSpaceOnUse" x="33" y="44" width="92" height="92">
<path d="M117.786 101.826C116.578 110.219 109.091 124.846 97.7384 130.601C80.8306 138.994 69.2367 135.397 65.6136 134.198C60.5413 132.28 55.4689 130.361 50.8797 127.484C40.4934 120.77 33.9718 108.78 33.2472 96.3107C32.281 84.0812 33.9719 75.4487 41.4596 65.6172C42.9089 63.9387 48.2227 59.1428 50.155 57.704C52.5704 56.0255 61.2659 51.4694 63.9228 50.7501C76.7244 47.393 83.4875 53.3878 96.0476 48.8317C99.6707 47.393 103.294 45.4746 107.158 44.5154C111.023 43.5563 115.612 43.7961 118.269 46.4338C119.477 47.393 120.202 48.8317 120.926 50.2705C122.375 53.148 123.825 56.2653 124.791 59.3826C123.342 59.8622 118.752 59.1428 118.752 59.1428C118.752 55.3061 119.235 54.1072 117.303 51.2296C116.337 49.7909 114.163 50.0307 112.955 50.9899C111.748 51.949 111.023 53.3878 110.54 55.0663C108.125 62.7397 110.782 70.8926 113.438 78.3262C115.854 86.2394 118.752 93.9128 117.786 101.826Z" fill="white"/>
</mask>
<g mask="url(#mask1_9002_21340)">
<g opacity="0.44">
<path d="M98.7049 38.5209C95.3233 36.123 90.734 36.3628 86.6279 36.6026C78.657 37.322 48.223 39.7199 41.4599 44.0362C28.6583 52.4289 7.6443 68.9746 5.95352 84.3214C3.53813 104.464 23.3444 132.04 39.5276 144.27C47.0153 149.785 78.1739 142.351 87.594 140.673C97.0141 138.994 106.434 134.678 111.748 126.765C113.68 123.647 111.99 122.928 108.125 123.887C88.5602 129.402 80.1063 121.489 76.4832 119.091C66.5801 112.377 62.7154 98.2293 63.6816 86.4795C64.4062 76.648 66.8216 68.0155 73.5847 60.8217C77.2078 57.2248 80.5894 54.3473 84.9371 51.9493C87.3525 50.7504 91.9418 48.832 94.3572 48.1127C97.4972 47.3933 101.362 40.1995 98.7049 38.5209Z" fill="#CE5113"/>
</g>
</g>
<mask id="mask2_9002_21340" style="mask-type:luminance" maskUnits="userSpaceOnUse" x="33" y="44" width="92" height="92">
<path d="M117.786 101.826C116.578 110.219 109.091 124.846 97.7384 130.601C80.8306 138.994 69.2367 135.397 65.6136 134.198C60.5413 132.28 55.4689 130.361 50.8797 127.484C40.4934 120.77 33.9718 108.78 33.2472 96.3107C32.281 84.0812 33.9719 75.4487 41.4596 65.6172C42.9089 63.9387 48.2227 59.1428 50.155 57.704C52.5704 56.0255 61.2659 51.4694 63.9228 50.7501C76.7244 47.393 83.4875 53.3878 96.0476 48.8317C99.6707 47.393 103.294 45.4746 107.158 44.5154C111.023 43.5563 115.612 43.7961 118.269 46.4338C119.477 47.393 120.202 48.8317 120.926 50.2705C122.375 53.148 123.825 56.2653 124.791 59.3826C123.342 59.8622 118.752 59.1428 118.752 59.1428C118.752 55.3061 119.235 54.1072 117.303 51.2296C116.337 49.7909 114.163 50.0307 112.955 50.9899C111.748 51.949 111.023 53.3878 110.54 55.0663C108.125 62.7397 110.782 70.8926 113.438 78.3262C115.854 86.2394 118.752 93.9128 117.786 101.826Z" fill="white"/>
</mask>
<g mask="url(#mask2_9002_21340)">
<g opacity="0.88">
<path d="M79.3814 43.0786C75.9998 40.6806 71.4106 40.9204 67.3044 41.1602C59.3336 41.8796 28.8996 44.2775 22.1364 48.5938C9.33482 56.9866 -11.6792 73.5323 -13.37 88.879C-15.7854 109.022 4.0209 136.598 20.2041 148.827C27.6918 154.342 58.8505 146.909 68.2705 145.23C77.6906 143.552 95.5645 139.475 100.878 131.322C102.811 128.205 100.395 128.924 96.5307 129.884C76.966 135.399 60.5413 126.047 56.9182 123.649C47.015 116.935 43.1504 102.787 44.1165 91.0371C44.8411 81.2056 47.2566 72.5731 54.0197 65.3793C57.6428 61.7824 61.0244 58.9049 65.3721 56.507C67.7875 55.308 78.6568 48.8336 81.3137 48.1142C84.6953 47.6346 82.0383 44.9969 79.3814 43.0786Z" fill="#CE5113"/>
</g>
</g>
<mask id="mask3_9002_21340" style="mask-type:luminance" maskUnits="userSpaceOnUse" x="33" y="44" width="92" height="92">
<path d="M117.786 101.826C116.578 110.219 109.091 124.846 97.7384 130.601C80.8306 138.994 69.2367 135.397 65.6136 134.198C60.5413 132.28 55.4689 130.361 50.8797 127.484C40.4934 120.77 33.9718 108.78 33.2472 96.3107C32.281 84.0812 33.9719 75.4487 41.4596 65.6172C42.9089 63.9387 48.2227 59.1428 50.155 57.704C52.5704 56.0255 61.2659 51.4694 63.9228 50.7501C76.7244 47.393 83.4875 53.3878 96.0476 48.8317C99.6707 47.393 103.294 45.4746 107.158 44.5154C111.023 43.5563 115.612 43.7961 118.269 46.4338C119.477 47.393 120.202 48.8317 120.926 50.2705C122.375 53.148 123.825 56.2653 124.791 59.3826C123.342 59.8622 118.752 59.1428 118.752 59.1428C118.752 55.3061 119.235 54.1072 117.303 51.2296C116.337 49.7909 114.163 50.0307 112.955 50.9899C111.748 51.949 111.023 53.3878 110.54 55.0663C108.125 62.7397 110.782 70.8926 113.438 78.3262C115.854 86.2394 118.752 93.9128 117.786 101.826Z" fill="white"/>
</mask>
<g mask="url(#mask3_9002_21340)">
<g opacity="0.88">
<path d="M72.377 44.7563C68.9954 42.3584 64.4062 42.5982 60.3 42.838C52.3292 43.5573 21.8951 45.9553 15.132 50.2715C2.33035 58.6643 -18.6836 75.21 -20.3744 90.5567C-22.7898 110.699 -2.98349 138.275 13.1997 150.505C20.6874 156.02 51.8461 148.587 61.2661 146.908C70.6862 145.229 97.0141 143.791 102.569 135.878C104.502 132.76 98.9464 132.041 95.3233 133C75.7585 138.515 57.4015 129.643 53.7784 127.245C43.8752 120.531 36.6291 104.704 37.3537 92.7149C38.0783 82.8833 42.1845 71.3733 49.1891 64.1795C52.8122 60.5826 60.7831 54.8276 65.3723 52.4297C67.7877 51.2307 83.7293 46.1951 86.3863 45.4757C89.2847 44.7563 75.0339 46.6746 72.377 44.7563Z" fill="#CE5113"/>
</g>
</g>
<g opacity="0.17">
<path d="M53.7779 67.777C56.9179 71.3738 61.0241 72.333 65.6134 73.2922C70.2027 74.2513 74.3088 75.6901 78.415 78.088C79.3811 78.5676 81.7966 81.9247 83.7289 85.042C84.4535 86.4808 85.1781 87.44 85.9027 89.8379C85.6612 88.6389 85.6612 88.6389 85.9027 90.0777C86.1443 92.7154 87.1104 95.3531 88.8012 97.2715C93.632 103.266 103.052 104.945 108.366 98.4704C118.269 86.0012 104.743 67.2974 94.1151 59.8638C87.352 55.3077 80.3473 53.869 72.3765 53.3894C66.0964 52.9098 56.4348 55.0679 53.7779 61.5423C52.3286 63.2209 52.0871 66.0984 53.7779 67.777Z" fill="#FAA73D"/>
</g>
<g opacity="0.33">
<path d="M83.7289 65.8591C85.4197 69.9355 89.5259 73.2926 91.9413 77.1293C96.0475 83.3639 94.8397 91.7567 100.154 97.5117C102.811 100.149 107.158 98.4709 108.608 95.8332C113.197 87.6802 107.4 76.6497 101.844 70.4151C98.9459 67.058 89.5259 58.6653 84.6951 62.7418C83.9705 63.4611 83.2458 64.6601 83.7289 65.8591Z" fill="#FAA73D"/>
</g>
<g opacity="0.29">
<path d="M107.883 118.611C111.748 117.172 113.922 112.856 112.714 109.019C111.506 105.182 106.917 103.024 103.053 104.223C99.1879 105.662 97.0141 109.978 98.2218 113.815C99.4295 117.651 103.777 119.81 107.883 118.611Z" fill="#FAA73D"/>
</g>
<g opacity="0.22">
<path d="M107.883 51.2294C104.743 55.3059 103.294 61.7803 105.226 66.816C105.709 68.2547 107.641 68.0149 108.124 66.5762C108.849 64.4181 107.883 61.7803 107.641 59.6222C107.4 56.9845 107.883 54.3467 109.091 51.9488C109.332 51.4692 108.366 50.7499 107.883 51.2294Z" fill="#FAA73D"/>
</g>
<g opacity="0.22">
<path d="M100.395 57.4632C99.9122 57.9428 99.6707 58.4223 99.1876 58.9019C98.9461 59.1417 98.946 59.6213 98.946 60.1009V60.3407C99.1876 61.0601 100.154 61.2999 100.637 60.5805C100.878 60.3407 101.12 60.1009 101.12 59.8611C101.12 59.6213 101.12 59.3815 101.12 59.1417C101.12 58.6621 101.12 58.1825 101.12 57.703C101.12 57.2234 100.637 57.2234 100.395 57.4632Z" fill="#FAA73D"/>
</g>
<g opacity="0.5">
<path d="M119.719 55.3058C119.719 56.5047 118.994 58.1833 119.96 59.1424C120.443 59.622 121.168 59.622 121.651 59.1424C122.376 57.9435 121.409 56.5047 120.926 55.5455C120.443 54.5864 119.719 54.5864 119.719 55.3058Z" fill="#FAA73D"/>
</g>
<g opacity="0.29">
<path d="M40.7347 77.8467C35.4208 86.2394 36.387 97.2699 38.5609 106.622C41.4594 118.132 50.6379 126.764 61.5072 131.081C65.8549 132.759 69.478 127.484 65.8549 124.366C59.0917 118.372 51.121 113.096 47.2563 104.703C45.5655 101.107 44.5994 97.2699 43.8748 93.1934C43.1502 88.3976 41.9424 83.3619 42.9086 78.8059C43.3916 77.1273 41.4593 76.6477 40.7347 77.8467Z" fill="#C4350D"/>
</g>
<g opacity="0.42">
<path d="M48.2224 105.903C48.2224 107.582 48.2224 109.261 48.2224 110.939C48.2224 111.179 48.464 111.179 48.464 110.939C48.2224 109.261 48.464 107.582 48.464 105.903C48.464 105.664 48.2224 105.664 48.2224 105.903Z" fill="#C73409"/>
</g>
<g opacity="0.42">
<path d="M48.2224 118.37C47.9809 116.212 47.4978 114.054 46.5316 111.896C46.5316 111.656 46.0486 111.656 46.0486 112.136C46.7732 114.054 47.0147 116.452 48.2224 118.37Z" fill="#C73409"/>
</g>
<g opacity="0.42">
<path d="M47.9816 96.7885C51.1216 87.4366 54.9863 78.8041 60.7832 70.6511C66.5802 62.4981 75.0341 58.4217 83.7295 54.585C83.9711 54.3452 83.9711 53.8656 83.488 54.1054C63.4402 59.6206 53.2955 78.3245 47.4985 96.7885C47.7401 97.0283 47.9816 97.0283 47.9816 96.7885Z" fill="#C73409"/>
</g>
<g opacity="0.42">
<path d="M44.1167 91.514C45.8075 88.6364 47.0153 85.2794 48.706 82.1621C50.6384 78.805 53.0537 75.4479 55.4691 72.5703C55.7107 72.3305 55.2276 71.851 54.986 72.0907C49.4306 77.606 47.4983 84.56 43.8752 91.2742C43.8752 91.514 44.1167 91.514 44.1167 91.514Z" fill="#C73409"/>
</g>
<g opacity="0.42">
<path d="M62.9565 56.0254C53.778 61.7804 46.2902 69.214 43.6333 80.0047C43.6333 80.2445 43.8749 80.2445 43.8749 80.0047C46.7733 68.7344 54.9857 63.6988 62.9565 56.0254C63.198 56.0254 63.198 56.0254 62.9565 56.0254Z" fill="#C73409"/>
</g>
<g opacity="0.42">
<path d="M62.4738 115.495C64.4061 112.858 66.3384 110.46 68.2708 107.822C70.4446 105.184 71.8939 102.067 74.3092 99.6691C72.3769 101.827 70.6862 104.465 68.9954 106.863C66.8216 109.74 64.4061 112.378 62.4738 115.495Z" fill="#C73409"/>
</g>
<g opacity="0.42">
<path d="M58.8505 109.979C61.5075 104.944 64.8891 100.148 68.0291 95.3521C68.0291 95.1123 67.7875 95.1123 67.7875 95.1123C64.1644 99.6684 61.2659 104.464 58.8505 109.979Z" fill="#C73409"/>
</g>
<g opacity="0.42">
<path d="M70.9275 123.887C78.1737 120.53 84.9368 113.576 90.0091 107.582C90.0091 107.582 90.0092 107.342 89.7676 107.342C84.6953 113.576 78.1737 120.53 70.9275 123.887Z" fill="#C73409"/>
</g>
<g opacity="0.46">
<path d="M62.4739 76.888C68.9955 69.2146 77.2078 62.0208 86.8694 58.1841C87.111 58.1841 86.8694 57.9443 86.8694 57.9443C76.9663 61.0616 68.5124 69.4544 62.4739 76.888C62.2323 77.1278 62.2323 76.888 62.4739 76.888Z" fill="#F3A538"/>
</g>
<g opacity="0.46">
<path d="M96.2893 53.8667C99.4293 52.4279 102.569 50.7494 105.468 49.0708V48.8311C102.328 50.2698 99.4293 52.1882 96.2893 53.8667Z" fill="#F3A538"/>
</g>
<g opacity="0.46">
<path d="M94.5986 58.665C96.531 57.2262 98.4632 55.5477 100.879 54.3487C101.12 54.3487 100.879 53.8691 100.637 53.8691C98.2217 55.0681 96.2894 56.7467 94.5986 58.665Z" fill="#F3A538"/>
</g>
<g opacity="0.46">
<path d="M110.299 48.5904C112.714 47.6312 115.129 48.3506 117.303 49.5495C117.545 49.7893 118.028 49.3097 117.786 49.07C115.612 47.3914 112.472 46.9118 110.299 48.5904Z" fill="#F3A538"/>
</g>
<g opacity="0.46">
<path d="M58.3673 85.042C54.2611 93.1949 52.5702 102.067 51.3625 110.94C51.3625 111.179 51.6041 111.179 51.6041 110.94C53.2949 102.307 54.7442 93.4347 58.3673 85.042Z" fill="#F3A538"/>
</g>
<g opacity="0.46">
<path d="M67.0627 104.466C73.3428 96.5529 78.4152 87.6805 84.4536 79.5276C84.6952 79.2878 84.2121 79.048 84.2121 79.2878C77.6905 87.4408 72.8597 96.3131 67.0627 104.466Z" fill="#F3A538"/>
</g>
<g opacity="0.46">
<path d="M57.884 95.8295C59.5748 92.4724 61.2656 89.3551 62.9564 86.2378C62.9564 85.998 62.7148 85.998 62.7148 85.998C60.7825 89.3551 59.0917 92.4724 57.884 95.8295C57.6425 96.0693 57.6425 96.0693 57.884 95.8295Z" fill="#F3A538"/>
</g>
<g opacity="0.46">
<path d="M67.7876 78.3255C71.8938 73.2899 76.9661 69.2134 81.7969 64.6574C76.9661 68.9736 71.6522 73.0501 67.7876 78.3255C67.5461 78.3255 67.5461 78.0857 67.7876 78.3255Z" fill="#F3A538"/>
</g>
<g opacity="0.46">
<path d="M42.9088 86.4796C38.8026 95.1122 40.9766 105.903 43.875 114.535C43.875 114.775 44.3581 114.775 44.3581 114.296C42.4257 105.183 39.0442 95.5918 42.9088 86.4796C42.9088 86.2399 42.9088 86.2399 42.9088 86.4796Z" fill="#F3A538"/>
</g>
<g opacity="0.46">
<path d="M60.5412 127.004C65.8551 125.565 70.4443 122.448 74.792 119.091C75.0336 118.851 74.792 118.371 74.5505 118.611C69.9612 121.729 65.372 124.846 60.5412 127.004Z" fill="#F3A538"/>
</g>
<g opacity="0.46">
<path d="M71.1687 132.28C76.9657 131.321 82.521 129.162 87.5934 126.525C87.8349 126.525 87.5934 126.045 87.3519 126.285C82.2796 128.683 76.9657 130.601 71.1687 132.28Z" fill="#F3A538"/>
</g>
<g opacity="0.46">
<path d="M111.748 105.182C110.299 108.779 108.608 112.136 106.676 115.493C106.676 115.733 106.917 115.733 106.917 115.493C108.85 112.375 110.54 109.018 111.748 105.182Z" fill="#F3A538"/>
</g>
<g opacity="0.46">
<path d="M109.333 76.8879C112.473 84.801 113.197 92.4744 111.748 100.867C111.748 101.347 112.473 101.587 112.473 101.107C114.646 92.954 113.68 84.3214 109.574 76.8879C109.574 76.6481 109.333 76.6481 109.333 76.8879Z" fill="#F3A538"/>
</g>
<g opacity="0.26">
<path d="M99.671 77.1262C100.154 80.9629 100.154 85.0394 102.569 88.3965C104.019 90.3148 106.917 90.075 108.125 87.9169C110.54 83.3608 107.883 79.0446 105.709 74.9681C104.019 72.3304 99.1879 74.0089 99.671 77.1262Z" fill="#FFE9D1"/>
</g>
<path d="M41.2183 126.284C44.5998 127.004 48.706 130.361 52.3291 128.442C52.8122 128.203 52.5706 127.483 52.0876 127.483C48.2229 128.203 45.0829 126.044 41.2183 125.805C40.9767 125.805 40.9767 126.284 41.2183 126.284Z" fill="#542C20"/>
<path d="M42.1841 129.162C45.0826 130.121 47.7395 129.641 50.638 128.922C50.8795 128.922 50.8795 128.442 50.638 128.442C47.7395 128.682 45.0826 129.402 42.1841 128.682C41.9425 128.682 41.9425 129.162 42.1841 129.162Z" fill="#542C20"/>
<path d="M45.5662 132.278C48.4646 132.039 51.1216 130.36 53.2955 128.442C53.537 128.202 53.2955 127.962 53.0539 128.202C50.8801 129.88 48.4646 131.559 45.5662 132.039C45.3246 131.799 45.3246 132.278 45.5662 132.278Z" fill="#542C20"/>
<path d="M47.4983 134.439C49.189 135.158 50.6382 134.918 51.6044 133.479C52.0875 132.76 52.5705 131.801 52.8121 131.082C53.2952 130.362 53.7783 129.403 54.2613 128.684C54.2613 128.444 54.0198 127.964 53.7782 128.204C52.5705 128.444 52.329 130.122 51.8459 131.082C51.1213 133 50.1551 135.158 47.7397 134.199C47.4982 133.959 47.2567 134.199 47.4983 134.439Z" fill="#542C20"/>
<path d="M51.6045 128.203C52.3291 128.683 53.0537 129.162 53.7783 129.642C54.986 130.601 54.7446 132.04 54.7446 133.479C54.7446 135.157 55.2276 136.596 56.9184 137.076C57.4015 137.315 57.8845 136.836 57.643 136.356C56.6768 135.397 56.1937 134.678 56.1937 133.239C56.1937 132.28 56.4353 131.321 56.1937 130.601C55.4691 128.923 53.7784 127.724 52.0876 127.724C51.6045 127.724 51.6045 127.963 51.6045 128.203Z" fill="#542C20"/>
<path d="M54.0197 136.836C51.6043 134.198 55.4689 131.321 53.7781 128.683C53.5366 128.443 53.0535 128.443 53.0535 128.923C53.0535 129.642 53.0535 130.361 52.812 131.321C52.5705 132.28 52.3289 132.999 52.0874 133.958C52.3289 135.157 52.812 136.356 54.0197 136.836C54.2612 136.836 54.0197 137.076 54.0197 136.836Z" fill="#542C20"/>
<path d="M60.2996 138.035C59.3335 136.116 59.575 133.718 58.6088 131.56C57.8842 130.121 56.1934 128.443 54.5027 128.203C54.0196 128.203 53.778 128.683 54.0196 129.162C55.7103 130.361 57.4012 131.32 58.3673 133.239C59.0919 134.917 58.8504 136.596 60.0581 138.274L60.2996 138.035Z" fill="#542C20"/>
<path d="M51.8456 127.963C54.5025 129.162 57.1594 130.361 59.0918 132.759C60.2995 134.198 59.8164 136.836 61.9903 137.795C62.4733 138.035 62.7148 137.315 62.4733 137.076C60.7825 135.397 60.7825 132.759 59.0918 130.841C57.1594 128.923 54.7441 128.203 52.3287 127.244C51.604 127.244 51.3625 127.963 51.8456 127.963Z" fill="#542C20"/>
<path d="M57.8843 135.157C58.1258 133.239 58.1259 130.121 55.952 129.162C55.7105 129.162 55.2274 129.402 55.4689 129.642C56.1935 130.361 56.6766 131.32 56.9182 132.279C57.1597 133.239 57.1597 134.198 57.4012 135.157C57.6427 135.397 57.8843 135.397 57.8843 135.157Z" fill="#542C20"/>
<path d="M57.1596 130.362C59.575 132.281 61.5073 134.199 62.9565 136.837C63.6811 138.515 65.1304 139.235 66.8212 139.474C67.5458 139.474 67.5457 138.515 67.0627 138.276C64.8888 137.316 64.1642 136.117 62.9565 134.199C61.7488 132.281 59.5749 130.842 57.6426 129.643C57.1595 129.403 56.6765 130.123 57.1596 130.362Z" fill="#542C20"/>
<path d="M51.8459 127.963C52.5705 128.922 54.0197 129.162 55.2274 129.642C56.9182 130.361 57.8844 131.56 59.3336 132.519C60.0582 132.999 60.2997 132.04 60.0582 131.56C59.3336 130.121 57.6428 129.402 56.4351 128.683C55.2274 127.963 53.5367 127.963 52.329 127.484C52.0874 127.244 51.6043 127.484 51.8459 127.963Z" fill="#542C20"/>
<path d="M44.5996 127.005C45.8073 127.724 47.2565 127.964 48.7058 128.204C49.6719 128.443 51.6042 128.443 52.5703 127.724C52.8119 127.484 52.8119 127.005 52.3289 127.005C51.3627 126.765 50.155 127.005 49.1888 127.005C47.7396 127.005 46.2904 126.765 44.8411 126.285C44.5996 126.285 44.358 126.765 44.5996 127.005Z" fill="#844C25"/>
<path d="M54.7448 129.643C55.9525 130.123 56.4356 131.801 56.9186 132.76C57.1602 133 57.6432 133 57.4017 132.76C57.1601 131.322 56.194 129.883 54.7448 129.403C54.7448 129.403 54.5033 129.643 54.7448 129.643Z" fill="#844C25"/>
<path d="M64.4058 136.116C63.4397 133.958 62.9565 131.8 61.0242 130.122C59.3334 128.683 57.1596 127.963 55.2273 127.724C54.7442 127.724 54.2611 128.443 54.9857 128.683C56.6765 129.402 58.6088 129.882 60.2996 131.081C61.9904 132.28 63.1981 134.438 64.4058 136.116C64.4058 136.356 64.1643 136.356 64.4058 136.116Z" fill="#844C25"/>
<path d="M53.5363 129.642C52.5701 131.56 50.6378 134.198 52.087 136.356C52.3286 136.596 53.0532 136.596 52.8116 136.116C52.8116 134.917 52.5701 133.958 52.8116 132.999C53.0532 131.8 53.5362 130.841 53.7778 129.882C53.7778 129.402 53.5363 129.402 53.5363 129.642Z" fill="#844C25"/>
<path d="M50.8794 131.082C49.4302 132.281 47.7394 132.521 46.0486 132.521C45.5656 132.521 45.5655 133.24 45.8071 133.24C47.4979 133.959 50.1548 132.521 51.3625 131.322C51.3625 131.322 51.121 130.842 50.8794 131.082Z" fill="#844C25"/>
<path d="M60.0581 133.24C61.0243 135.398 60.7827 138.756 63.4397 139.715C63.9227 139.955 64.1643 139.235 63.9228 138.995C61.9904 137.557 61.2658 135.159 60.0581 133.24Z" fill="#844C25"/>
<path d="M142.665 150.986C139.041 154.103 132.037 156.981 127.206 157.46C112.714 159.618 103.777 154.823 99.4289 151.705C93.1489 147.149 88.5596 140.915 86.1442 133.481C85.1781 130.604 84.695 127.246 83.7288 124.369C82.7627 121.491 81.0718 118.374 78.1734 117.175C76.9657 116.696 75.2749 116.216 74.7918 114.777C74.3087 113.578 75.2749 112.379 76.2411 111.42C78.1734 109.981 80.3472 108.782 82.038 107.344C86.6273 103.267 87.5935 96.5529 90.975 91.2775C92.9073 88.4 95.5642 86.0021 98.4627 83.8439C105.95 78.5685 114.887 75.4512 124.066 75.4512C133.244 75.4512 142.423 78.8083 148.945 85.0429C154.983 90.7979 159.089 98.7111 159.814 107.104C160.055 111.18 163.92 120.532 164.645 121.491C165.852 123.41 166.094 126.047 165.128 127.966C164.403 129.405 163.195 130.364 162.229 131.563C155.225 139.236 154.017 141.634 142.665 150.986Z" fill="#FEFBEC"/>
<mask id="mask4_9002_21340" style="mask-type:luminance" maskUnits="userSpaceOnUse" x="74" y="75" width="92" height="83">
<path d="M142.665 150.981C139.041 154.099 132.037 156.976 127.206 157.456C112.714 159.614 103.777 154.818 99.4289 151.701C93.1489 147.145 88.5596 140.91 86.1442 133.477C85.1781 130.599 84.695 127.242 83.7288 124.364C82.7627 121.487 81.0718 118.37 78.1734 117.171C76.9657 116.691 75.2749 116.211 74.7918 114.773C74.3087 113.574 75.2749 112.375 76.2411 111.416C78.1734 109.977 80.5888 109.497 82.5211 108.059C87.1104 103.982 87.835 96.5485 90.975 91.5128C92.9073 88.6353 95.5642 86.2374 98.4627 84.0793C105.95 78.8038 114.887 75.6865 124.066 75.6865C133.244 75.6865 142.423 79.0436 148.945 85.2782C154.983 91.0333 159.089 98.9464 159.814 107.339C160.055 111.416 163.92 120.768 164.645 121.727C165.852 123.645 166.094 126.283 165.128 128.201C164.403 129.64 163.195 130.599 162.229 131.798C155.225 139.232 154.017 141.63 142.665 150.981Z" fill="white"/>
</mask>
<g mask="url(#mask4_9002_21340)">
<g opacity="0.86">
<path d="M74.3087 120.769C74.0671 125.804 78.4149 131.559 80.1057 136.115C82.2795 141.87 84.9364 147.146 88.8011 152.181C95.5642 160.814 107.641 165.37 118.269 166.089C130.829 167.049 143.631 160.334 154.017 154.34C159.814 150.982 165.369 147.386 170.442 143.069C174.548 139.472 179.379 137.314 182.76 132.758C188.074 125.564 176.48 116.452 170.442 123.167C167.785 126.284 163.678 127.723 160.538 130.6C156.674 133.957 149.428 140.671 145.08 143.309C136.626 148.585 128.655 150.982 118.511 150.982C109.332 151.222 100.878 145.707 95.0811 139.233C89.7672 133.238 84.9364 114.534 74.7918 114.774C74.0671 114.774 74.3087 119.809 74.3087 120.769Z" fill="#E59739"/>
</g>
</g>
<path d="M75.7581 115.018C76.9658 115.737 78.415 116.217 79.6227 116.936C81.555 117.895 82.7627 119.094 83.9704 120.533C84.2119 120.773 84.6951 120.533 84.6951 120.293C83.9704 116.936 78.8981 115.018 75.7581 115.018C75.7581 114.778 75.7581 114.778 75.7581 115.018Z" fill="#88441F"/>
<path d="M75.5165 114.058C75.9996 114.298 76.7243 114.298 77.2073 113.818C77.4489 113.579 77.2073 113.339 76.9658 113.339C76.4827 113.339 75.7581 113.579 75.5165 113.818C75.5165 113.818 75.275 114.058 75.5165 114.058Z" fill="#88441F"/>
<path d="M75.9998 113.099C76.2413 113.099 76.2413 113.099 76.4829 113.099C76.7244 113.099 76.7244 112.619 76.4829 112.619C76.2413 112.619 76.2413 112.619 75.9998 112.619C75.7582 112.619 75.7582 113.099 75.9998 113.099Z" fill="#88441F"/>
<path d="M164.886 128.445C165.369 128.205 165.852 128.445 166.335 128.445C166.577 128.445 166.818 127.965 166.577 127.726C166.094 127.006 165.128 127.246 164.644 127.726C163.92 127.965 164.403 128.685 164.886 128.445Z" fill="#88441F"/>
<path d="M164.886 126.528C165.611 126.768 166.094 127.008 166.577 126.288C166.819 126.049 166.577 125.569 166.336 125.569C165.853 125.329 165.611 125.809 165.128 125.809C164.645 125.809 164.645 126.288 164.886 126.528Z" fill="#88441F"/>
<path d="M165.128 125.088C165.611 125.088 166.336 125.088 166.819 124.848C167.06 124.608 167.06 124.129 166.819 123.889C166.336 123.649 165.853 123.889 165.128 123.889C164.162 124.129 164.403 125.328 165.128 125.088Z" fill="#88441F"/>
<path d="M165.128 123.41C165.853 123.41 166.577 123.41 166.819 122.93C167.06 122.69 166.819 122.211 166.577 122.211C165.853 121.971 165.37 122.451 164.886 122.69C164.645 122.69 164.645 123.41 165.128 123.41Z" fill="#88441F"/>
<path d="M164.403 122.45C164.886 122.45 165.37 122.21 165.853 121.97C166.094 121.731 165.853 121.251 165.369 121.251C165.128 121.251 164.645 121.491 164.403 121.491C163.679 121.491 163.679 122.45 164.403 122.45Z" fill="#88441F"/>
<path d="M163.92 121.012C164.403 121.012 165.128 121.012 165.369 120.293C165.611 120.053 165.369 119.573 164.886 119.573C164.403 119.573 164.162 119.573 163.678 119.573C163.437 119.573 162.954 119.813 162.954 120.293C163.195 120.772 163.678 121.012 163.92 121.012Z" fill="#88441F"/>
<path d="M82.0384 113.817C96.0477 114.777 105.468 125.807 118.511 129.884C124.791 131.802 131.796 132.521 138.317 131.083C146.288 129.404 153.534 125.807 161.747 124.848C164.162 124.608 164.887 120.532 161.988 120.292C154.5 119.572 148.462 121.731 141.457 124.129C133.728 127.006 125.999 126.047 118.269 123.889C105.709 120.532 96.2893 109.741 82.5215 111.899C81.0723 112.139 80.8307 113.578 82.0384 113.817Z" fill="#FBE9BB"/>
<path d="M87.3523 115.977C96.5308 122.691 105.709 131.803 116.82 134.92C129.38 138.517 144.356 137.078 154.742 128.686C155.225 128.446 154.742 127.726 154.259 127.966C148.22 129.885 143.148 133.242 136.626 134.201C129.863 135.16 122.617 134.92 116.095 132.522C105.468 128.925 97.98 119.813 87.5937 115.497C87.3522 115.737 87.1107 115.977 87.3523 115.977Z" fill="#FBE9BB"/>
<path d="M105.226 115.976C115.612 119.573 126.24 122.211 137.109 120.532C137.834 120.532 137.834 119.333 137.109 119.333C126.24 119.813 115.854 118.134 105.467 115.257C105.226 115.257 104.984 115.976 105.226 115.976Z" fill="#FBE9BB"/>
<path d="M83.7285 110.221C90.0086 111.18 96.047 112.379 102.327 113.098C109.09 113.818 116.095 113.578 122.858 114.058C128.413 114.537 134.21 115.736 139.524 117.415C143.872 118.614 148.461 120.772 152.809 118.853C153.292 118.614 153.292 117.654 152.809 117.654C147.495 117.175 143.147 115.257 138.075 113.578C133.003 111.66 127.447 110.7 122.133 110.221C109.573 109.262 96.5301 109.022 83.97 109.502C83.2454 109.262 83.2455 109.981 83.7285 110.221Z" fill="#FBE9BB"/>
<path d="M90.0088 107.583C95.8058 107.583 101.361 107.103 106.917 106.384C112.714 105.664 118.752 107.343 124.549 107.343C136.626 107.103 147.737 113.338 158.365 118.134C158.606 118.134 158.848 117.894 158.606 117.654C149.186 111.18 139.525 106.624 128.172 105.185C125.757 104.945 123.1 105.185 120.684 105.185C117.061 105.185 113.68 104.226 110.057 104.226C103.294 103.986 96.2889 106.384 89.7673 107.343C89.7673 107.103 89.7673 107.583 90.0088 107.583Z" fill="#FBE9BB"/>
<path d="M84.9365 107.105C90.975 105.426 96.0473 101.829 102.569 101.829C109.09 102.069 115.371 101.829 121.892 102.069C136.143 102.309 148.945 106.146 159.089 116.457C159.572 116.936 160.297 116.217 159.814 115.498C154.983 110.462 149.669 106.146 143.148 103.508C137.351 101.35 131.071 100.391 125.032 99.9111C117.544 99.4315 110.057 99.6713 102.569 99.6713C95.3227 99.4315 90.975 103.268 84.9365 106.625C84.695 106.865 84.695 107.105 84.9365 107.105Z" fill="#FBE9BB"/>
<path d="M89.0422 120.292C91.9407 123.649 95.5638 126.047 98.9454 128.685C102.568 131.802 106.192 134.44 110.298 136.838C117.544 141.154 127.689 141.394 135.659 139.476C136.384 139.236 136.143 138.277 135.418 138.277C126.722 138.516 118.993 139.476 111.022 135.399C107.158 133.241 103.535 130.364 99.9115 127.486C96.53 124.848 92.6653 122.69 89.2838 120.052C89.2838 119.813 89.0422 120.052 89.0422 120.292Z" fill="#FBE9BB"/>
<path d="M90.2507 124.37C94.1153 127.487 96.7723 131.804 100.637 134.921C103.777 137.559 107.4 139.957 111.506 140.916C111.989 141.156 112.231 140.196 111.748 139.957C107.158 138.038 103.294 135.161 99.4292 132.044C96.2892 129.406 93.8738 126.288 90.4922 123.891C90.2507 123.651 90.0091 124.13 90.2507 124.37Z" fill="#FBE9BB"/>
<path d="M141.216 138.276C148.703 137.557 154.983 133.001 161.263 129.164C161.988 128.685 161.263 127.726 160.539 127.726C153.534 129.644 148.703 135.879 141.216 137.317C140.733 137.557 140.733 138.276 141.216 138.276Z" fill="#FBE9BB"/>
<path d="M113.921 141.395C120.926 147.63 135.418 143.074 142.906 139.956C143.631 139.717 143.148 138.757 142.665 138.997C133.969 141.155 122.858 145.951 113.921 141.395Z" fill="#FBE9BB"/>
<path d="M92.4242 130.603C97.9796 136.118 103.535 142.832 111.264 145.23C118.752 147.628 125.998 149.786 133.486 146.908C133.969 146.669 133.728 145.949 133.245 145.949C125.274 148.107 117.786 146.189 110.298 143.312C103.777 140.674 98.4628 134.439 92.9073 130.123C92.6658 129.883 92.1827 130.363 92.4242 130.603Z" fill="#FBE9BB"/>
<path d="M91.4582 128.686C90.9752 127.487 90.4921 126.048 89.2844 125.569C88.8013 125.329 88.5598 125.808 88.8013 126.288C89.0428 126.768 89.2844 127.007 89.7675 127.487C90.2506 127.967 90.7337 128.446 90.9752 129.166C91.2168 128.926 91.6998 128.926 91.4582 128.686Z" fill="#FBE9BB"/>
<path d="M83.9704 116.696C85.1781 117.655 86.8689 118.614 88.3182 118.614C88.8013 118.614 88.8013 118.134 88.5597 117.895C87.352 117.175 85.6612 117.175 84.212 116.456C83.9704 116.216 83.7289 116.456 83.9704 116.696Z" fill="#FBE9BB"/>
<path d="M157.64 109.74C154.983 101.347 153.775 93.9136 147.012 87.4392C141.698 82.6433 134.694 79.7658 127.447 78.5669C119.235 77.3679 111.264 79.2862 104.26 83.3627C101.12 85.2811 97.2549 87.1994 94.8395 89.8371C92.1826 92.4748 91.2164 95.8319 89.0425 98.7094C88.3179 99.6686 89.2841 100.868 90.2502 100.628C92.6656 100.148 92.9072 98.7095 94.3565 97.0309C96.5303 94.633 98.4626 92.2351 101.361 90.5565C108.607 86.0004 115.37 82.6433 124.066 82.8831C130.829 83.1229 137.351 85.7606 142.664 89.8371C149.669 94.8728 152.326 103.026 157.157 109.74C157.398 110.22 157.64 109.98 157.64 109.74Z" fill="#FBE9BB"/>
<path d="M97.7381 98.4711C106.192 97.0323 115.129 95.8333 123.583 96.3129C127.689 96.5527 131.795 97.2721 135.901 98.2312C140.008 99.1904 143.389 101.588 147.012 103.986C147.495 104.466 148.22 103.507 147.737 103.027C143.389 95.5935 133.969 93.915 126.24 92.9558C116.095 91.7568 106.917 94.1548 97.7381 97.5119C97.0135 97.7517 97.255 98.4711 97.7381 98.4711Z" fill="#FBE9BB"/>
<path d="M152.809 106.384C151.601 102.068 147.978 97.0326 144.838 93.6755C141.457 90.0786 136.385 87.9205 131.795 86.2419C122.375 83.3644 109.332 85.2827 102.086 92.7163C101.603 93.1959 102.086 94.1551 102.81 94.1551C106.675 93.6755 110.057 91.5174 113.68 90.5582C118.269 89.1194 123.1 88.6398 127.931 89.3592C138.558 91.0378 147.012 97.5122 152.568 106.624C152.568 106.864 153.051 106.624 152.809 106.384Z" fill="#FBE9BB"/>
<g opacity="0.72">
<path d="M158.606 117.895C146.288 114.778 136.626 107.345 124.066 104.707C112.955 102.309 101.844 103.268 83.2457 109.982C81.7965 110.462 82.2796 112.86 83.2457 114.059C92.1827 122.931 109.815 132.763 121.892 134.681C128.655 135.64 133.969 135.16 140.732 133.962C147.254 132.763 153.534 127.967 160.055 126.528C162.712 126.048 163.195 120.293 160.78 119.814L158.606 117.895Z" fill="#FAE7C6"/>
</g>
<g opacity="0.37">
<path d="M88.0764 103.507C92.9072 102.308 102.81 97.272 107.641 96.073C113.197 94.6342 118.51 93.9149 124.066 94.1547C129.138 94.3944 133.486 95.5934 137.834 98.2311C142.664 101.348 150.394 107.823 156.432 113.098C158.848 115.256 159.331 110.461 157.64 107.343C152.084 97.272 148.703 92.2363 143.389 88.6394C138.317 85.2823 131.795 83.8436 125.757 83.6038C114.163 83.1242 97.4964 91.0373 88.801 98.7107C87.8348 100.149 87.1102 103.746 88.0764 103.507Z" fill="#FAE7C6"/>
</g>
<g opacity="0.31">
<path d="M82.038 112.86C90.2504 113.819 96.0474 110.702 103.052 106.146C108.366 102.549 121.651 98.4723 128.414 99.4314C140.732 101.35 150.635 111.901 156.674 121.972C159.089 126.048 163.437 125.089 161.746 121.253C154.017 103.988 145.805 83.8449 131.071 80.4878C121.892 78.5695 112.231 80.4878 104.501 85.7632C95.0812 91.9979 91.2165 103.508 81.7965 109.503C80.1057 111.181 81.0719 112.86 82.038 112.86Z" fill="white"/>
</g>
<g opacity="0.31">
<path d="M90.975 103.987C95.8058 102.788 99.4289 99.1913 103.777 96.7934C109.09 93.9159 114.887 92.9567 120.926 92.4772C126.964 91.9976 132.761 92.2374 137.834 95.5945C142.906 98.9516 146.046 105.186 150.635 109.263C153.292 111.661 158.848 109.502 157.398 105.666C152.085 91.2782 141.94 81.6865 126.24 81.9263C119.235 81.9263 111.989 83.6048 105.709 86.2425C102.327 87.6813 99.1873 90.0792 96.2888 92.4772C93.3904 94.8751 92.1827 98.7118 89.2842 101.35C88.0765 102.309 89.2842 104.467 90.975 103.987Z" fill="white"/>
</g>
<g opacity="0.31">
<path d="M158.365 126.767C147.254 127.726 136.385 132.522 125.274 132.282C118.752 132.282 113.197 129.644 108.366 125.808C103.052 121.731 97.98 117.415 91.4584 115.736C89.2845 115.017 87.8353 117.894 89.2845 119.573C93.8738 124.848 99.6707 128.925 104.743 133.721C109.574 138.037 115.854 139.476 122.134 140.435C134.694 142.114 147.737 133.721 158.848 129.644C159.814 128.925 159.814 126.527 158.365 126.767Z" fill="white"/>
</g>
</svg>
