<svg width="200" height="200" viewBox="0 0 200 200" fill="none" xmlns="http://www.w3.org/2000/svg">
<path d="M122.763 57.4994C119.733 51.9135 113.759 41.3342 111.992 38.1182C110.224 39.3877 106.942 40.5725 100.968 40.9111H99.6213C93.2257 40.5725 89.8597 39.2184 88.1767 37.8643C86.5778 40.6572 80.3506 51.7443 77.237 57.4994C72.777 65.7935 70.0841 70.8716 70.0841 76.2882C70.0841 81.7048 70.0841 142.895 70.0841 152.374C70.0841 162.7 71.9354 167.693 77.7419 170.655C83.5483 173.617 92.4684 174.718 94.5722 174.802C94.5722 174.802 103.408 175.056 105.512 174.802C107.616 174.718 116.452 173.617 122.342 170.655C128.149 167.693 130 162.7 130 152.374C130 142.895 130 81.7048 130 76.2882C129.916 70.8716 127.223 65.7935 122.763 57.4994Z" fill="url(#paint0_linear_2003_15050)"/>
<path d="M75.049 152.12C75.049 140.864 75.049 92.1994 75.049 84.8362C75.049 77.4731 75.3015 72.6489 77.0687 68.0787C78.8359 63.593 91.711 40.9957 92.3842 39.8955C90.3646 39.303 89.0182 38.626 88.1767 37.8643C86.5778 40.6572 80.3506 51.7443 77.237 57.4994C72.777 65.7935 70.0841 70.8716 70.0841 76.2882C70.0841 81.7048 70.0841 142.895 70.0841 152.374C70.0841 162.7 71.9354 167.693 77.7419 170.655C83.5483 173.617 92.4684 174.718 94.5722 174.802C94.5722 174.802 103.408 175.056 105.512 174.802C107.616 174.718 116.452 173.617 122.342 170.655C125.961 168.878 127.98 166.254 129.074 162.107C125.287 165.662 117.63 169.978 103.408 169.978C84.8106 170.063 75.049 163.377 75.049 152.12Z" fill="url(#paint1_linear_2003_15050)"/>
<path d="M76.1429 152.12C76.1429 140.864 76.1429 92.1994 76.1429 84.8362C76.1429 77.4731 76.3954 72.6489 78.1625 68.0787C79.9297 63.593 92.8049 40.9957 93.4781 39.8955C91.4585 39.303 90.1121 38.626 89.2705 37.8643C87.6717 40.6572 81.4445 51.7443 78.3309 57.4994C73.8708 65.7935 71.178 70.8716 71.178 76.2882C71.178 81.7048 71.178 142.895 71.178 152.374C71.178 162.7 73.0293 167.693 78.8357 170.655C84.6422 173.617 93.5623 174.718 95.666 174.802C95.666 174.802 104.502 175.056 106.606 174.802C108.71 174.718 116.199 173.617 122.005 170.74C125.624 168.963 127.644 166.339 128.738 162.192C124.951 165.747 118.724 170.063 104.502 170.063C85.9886 170.063 76.1429 163.377 76.1429 152.12Z" fill="url(#paint2_linear_2003_15050)"/>
<path d="M124.867 152.12C124.867 140.864 124.867 92.1994 124.867 84.8362C124.867 77.4731 124.614 72.6489 122.847 68.0787C121.08 63.593 108.205 40.9957 107.532 39.8955C109.551 39.303 110.898 38.626 111.739 37.8643C113.338 40.6572 119.565 51.7443 122.679 57.4994C127.139 65.7935 129.832 70.8716 129.832 76.2882C129.832 81.7048 129.832 142.895 129.832 152.374C129.832 162.7 127.98 167.693 122.174 170.655C116.368 173.617 107.448 174.718 105.344 174.802C105.344 174.802 96.5078 175.056 94.404 174.802C92.3002 174.718 83.4643 173.617 77.5737 170.655C73.9552 168.878 71.9356 166.254 70.8416 162.107C74.6284 165.662 82.2862 169.978 96.5078 169.978C115.021 170.063 124.867 163.377 124.867 152.12Z" fill="url(#paint3_linear_2003_15050)"/>
<path d="M86.662 33.5479C86.662 33.5479 83.8851 40.0647 99.5373 40.9957H100.884C116.536 40.1493 113.759 33.5479 113.759 33.5479H86.662Z" fill="url(#paint4_linear_2003_15050)"/>
<path d="M113.843 33.5479H86.662C86.662 33.5479 86.4096 34.1403 86.4937 34.9866C89.6915 36.0869 96.6761 38.2027 109.046 36.0869C112.917 35.3252 104.67 43.2808 87.756 37.5257C89.2707 39.0491 92.6368 40.5725 99.5372 40.911H100.884C116.536 40.0647 113.843 33.5479 113.843 33.5479Z" fill="url(#paint5_linear_2003_15050)"/>
<path d="M112.244 38.626C112.16 38.4567 112.076 38.2874 111.992 38.1182C110.224 39.3877 106.943 40.5725 100.968 40.9111H99.6214C93.2258 40.5725 89.8598 39.2184 88.1768 37.8643C88.0926 38.0335 87.9243 38.2028 87.8401 38.4567C89.2707 39.3877 93.4783 41.5035 99.6214 41.5035C106.353 41.5035 109.972 40.1494 112.244 38.626Z" fill="url(#paint6_linear_2003_15050)"/>
<path opacity="0.5" d="M89.523 38.7952C89.0181 38.5413 88.5132 38.2028 88.1766 37.8643C86.9985 39.9801 83.2117 46.7508 80.0139 52.4213C80.3505 52.6752 80.9396 52.9291 81.7811 53.183C84.8105 47.5972 88.0083 41.5882 89.523 38.7952Z" fill="url(#paint7_linear_2003_15050)"/>
<path opacity="0.5" d="M111.992 38.1182C111.487 38.4567 110.898 38.7952 110.14 39.1338C111.739 42.1806 114.769 47.8511 117.63 53.1831C118.808 52.8445 119.481 52.506 119.818 52.1674C116.872 46.7509 113.254 40.4879 111.992 38.1182Z" fill="url(#paint8_linear_2003_15050)"/>
<path d="M115.274 44.0424C114.853 43.2807 114.432 42.519 114.011 41.7573C102.735 47.1739 90.2806 43.5346 85.9047 41.842C85.484 42.6037 85.0632 43.3654 84.5583 44.2117C86.9987 45.312 102.146 51.2364 115.274 44.0424Z" fill="url(#paint9_linear_2003_15050)"/>
<path d="M70.8415 149.159C70.8415 149.159 70.8415 147.381 70.7574 144.334C70.7574 142.811 70.6732 140.864 70.6732 138.749C70.6732 136.633 70.5891 134.178 70.5891 131.47C70.5891 128.846 70.5049 125.969 70.5049 122.922C70.5049 119.875 70.4207 116.659 70.4207 113.358C70.4207 110.058 70.4208 106.588 70.3366 103.118C70.3366 99.6476 70.3366 96.0929 70.3366 92.5383C70.3366 88.9837 70.3366 85.429 70.3366 81.959C70.3366 80.1817 70.3366 78.489 70.3366 76.7963C70.3366 75.95 70.3366 75.1037 70.4207 74.1727C70.5049 73.3263 70.6732 72.48 70.8415 71.6337C71.2623 69.941 71.8513 68.4176 72.5245 66.9788C72.8611 66.2171 73.1977 65.54 73.5344 64.8629C73.871 64.1858 74.2917 63.5088 74.6283 62.8317C76.0589 60.1234 77.4895 57.669 78.7518 55.2992C80.014 53.0141 81.2763 50.8983 82.3703 49.0363C83.4642 47.1744 84.3899 45.5663 85.1472 44.2122C85.9046 42.858 86.5778 41.8424 86.9986 41.0807C87.4193 40.4036 87.6718 39.9805 87.6718 39.9805C87.6718 39.9805 86.8303 41.5039 85.3997 44.2968C83.9691 47.0051 81.8654 50.8983 79.3408 55.5532C78.0786 57.9229 76.7321 60.4619 75.3857 63.1702C75.0491 63.8473 74.7125 64.5244 74.3759 65.2014C74.0393 65.8785 73.7026 66.5556 73.366 67.3173C72.777 68.7561 72.188 70.2795 71.7672 71.8876C71.5989 72.6493 71.4306 73.4956 71.4306 74.2573C71.3464 75.1037 71.3464 75.95 71.3464 76.7963C71.3464 77.6427 71.3464 78.489 71.3464 79.3354C71.3464 80.1817 71.3464 81.028 71.3464 81.959C71.3464 85.429 71.3464 88.9837 71.3464 92.5383C71.3464 96.0929 71.3464 99.6476 71.3464 103.118C71.3464 106.588 71.3464 110.058 71.2623 113.358C71.2623 116.659 71.1781 119.875 71.1781 122.922C71.1781 125.969 71.0939 128.846 71.0939 131.47C71.0939 134.094 71.0098 136.548 71.0098 138.749C71.0098 140.864 70.9257 142.811 70.9257 144.334C70.8415 147.381 70.8415 149.159 70.8415 149.159Z" fill="white"/>
<path d="M72.0196 163.8C72.0196 163.8 72.1037 163.885 72.272 164.054C72.4403 164.223 72.6928 164.393 73.0294 164.647C73.366 164.901 73.7868 165.239 74.2917 165.578C74.7966 165.916 75.3857 166.255 75.9747 166.678C76.3113 166.847 76.6479 167.016 76.9845 167.27C77.3211 167.44 77.6578 167.693 78.0785 167.863C78.4151 168.032 78.8358 168.201 79.2566 168.455C79.6774 168.624 80.0981 168.794 80.5189 168.963C81.3604 169.386 82.2861 169.64 83.1276 169.979C83.5484 170.148 84.0532 170.233 84.5581 170.402C85.063 170.571 85.4838 170.656 85.9887 170.825C86.9144 171.079 87.9242 171.333 88.8499 171.502C89.7756 171.671 90.7012 171.841 91.6269 172.01C92.5525 172.094 93.394 172.179 94.2355 172.264C95.0771 172.348 95.8345 172.348 96.5918 172.433C97.3492 172.433 98.0224 172.518 98.6114 172.518C99.2005 172.518 99.7054 172.518 100.126 172.518C100.968 172.518 101.473 172.518 101.473 172.518C101.473 172.518 100.968 172.518 100.126 172.602C99.7054 172.602 99.2005 172.687 98.6114 172.687C98.2748 172.687 98.0224 172.687 97.6858 172.687C97.3492 172.687 97.0126 172.687 96.5918 172.687C95.8345 172.687 95.0771 172.687 94.2355 172.602C93.394 172.518 92.4684 172.433 91.5427 172.348C90.6171 172.264 89.6914 172.094 88.6816 171.925C87.7559 171.756 86.7461 171.502 85.8204 171.248C85.3155 171.079 84.8948 170.994 84.3899 170.825C83.885 170.656 83.4642 170.571 82.9593 170.402C82.0336 170.063 81.1079 169.725 80.2664 169.386C79.8457 169.217 79.4249 169.048 79.0042 168.794C78.5834 168.624 78.2468 168.371 77.826 168.201C77.4053 168.032 77.0687 167.778 76.7321 167.609C76.3954 167.44 76.0588 167.186 75.7222 167.016C75.1332 166.593 74.5441 166.255 74.0392 165.916C73.5343 165.578 73.1135 165.239 72.7769 164.985C72.3562 164.223 72.0196 163.8 72.0196 163.8Z" fill="#6F756C"/>
<path d="M122.763 57.4994C119.733 51.9135 113.759 41.3342 111.992 38.1182C110.224 39.3877 106.942 40.5725 100.968 40.9111H99.6213C93.2258 40.5725 89.8597 39.2184 88.1767 37.8643C87.9242 38.2874 87.5876 38.8799 87.1669 39.6416C89.6073 40.9957 98.359 45.0582 109.467 41.0803C111.066 40.4879 112.076 41.0804 114.684 45.8199C117.293 50.5594 128.99 67.3169 129.916 77.1345C129.916 77.3038 129.916 77.4731 130 77.6423C130 77.0499 130 76.5421 130 76.2882C129.916 70.8716 127.223 65.7935 122.763 57.4994Z" fill="url(#paint10_linear_2003_15050)"/>
<path d="M114.011 34.8174C114.011 34.0557 113.843 33.5479 113.843 33.5479H86.6619C86.6619 33.5479 86.4937 33.971 86.4937 34.7327C89.6073 35.6637 100.294 38.372 114.011 34.8174Z" fill="url(#paint11_linear_2003_15050)"/>
<path d="M90.7852 33.5479V39.3876C92.1316 39.8954 93.8988 40.3186 96.1709 40.6571V33.5479H90.7852Z" fill="#F6F7F9"/>
<path opacity="0.7" d="M88.4292 35.7485C88.4292 35.7485 92.3001 37.6105 99.7055 37.4412C103.072 37.272 100.631 39.4724 94.4881 38.7954C88.3451 37.949 87.6718 35.7485 88.4292 35.7485Z" fill="#F6F7F9"/>
<path d="M102.819 37.4413C102.819 37.4413 104.755 37.0182 104.755 37.6106C104.755 38.1184 101.389 38.1184 102.819 37.4413Z" fill="#F6F7F9"/>
<path d="M116.115 27.2852H84.8106C84.8106 27.2852 82.0336 29.9088 84.6423 33.2942C85.8204 34.6483 92.1318 36.0871 100.042 36.0871C107.7 36.0871 114.516 34.733 116.031 33.4634C118.808 30.0781 116.115 27.2852 116.115 27.2852Z" fill="url(#paint12_linear_2003_15050)"/>
<g opacity="0.6" style="mix-blend-mode:overlay">
<path d="M88.0925 29.6548C88.0925 29.6548 88.345 29.7394 88.8499 29.7394C89.1024 29.7394 89.3548 29.8241 89.6914 29.8241C90.028 29.8241 90.4488 29.9087 90.7854 29.9933C91.2061 29.9933 91.6269 30.078 92.1318 30.1626C92.3842 30.1626 92.6367 30.2472 92.8892 30.2472C93.1416 30.2472 93.3941 30.2472 93.6466 30.3319C94.1515 30.3319 94.7405 30.4165 95.2454 30.4165C95.8345 30.4165 96.3394 30.4165 96.9284 30.5011C97.5175 30.5011 98.0224 30.5858 98.6115 30.5858C99.1164 30.5858 99.7055 30.5858 100.21 30.5858C100.715 30.5858 101.22 30.5858 101.725 30.5858C102.23 30.5858 102.651 30.5858 103.071 30.5858C103.913 30.5858 104.586 30.5858 105.091 30.5858C105.596 30.5858 105.849 30.5858 105.849 30.5858C105.849 30.5858 105.596 30.5858 105.091 30.6704C104.586 30.6704 103.913 30.755 103.071 30.8397C102.651 30.8397 102.23 30.9243 101.725 30.9243C101.22 30.9243 100.715 30.9243 100.21 30.9243C99.7055 30.9243 99.1164 30.9243 98.6115 30.9243C98.0224 30.9243 97.5175 30.9243 96.9284 30.8397C96.3394 30.8397 95.8345 30.8397 95.2454 30.755C94.6563 30.6704 94.1515 30.6704 93.6466 30.5858C93.3941 30.5858 93.1416 30.5011 92.8892 30.5011C92.6367 30.5011 92.3842 30.4165 92.1318 30.4165C91.6269 30.3319 91.2061 30.2472 90.7854 30.2472C89.9439 30.078 89.2706 29.9933 88.7657 29.8241C88.4291 29.7394 88.0925 29.6548 88.0925 29.6548Z" fill="white"/>
</g>
<path d="M85.568 33.3788C83.7167 32.1093 84.0533 28.7239 87.8401 29.6549C92.5526 30.8398 94.6564 28.9778 95.5821 27.2852H84.8948C84.8948 27.2852 82.1178 29.9088 84.7265 33.2942C85.6522 34.3944 89.6915 35.4947 95.1613 35.9178V35.8332C91.2904 35.4947 87.3352 34.733 85.568 33.3788Z" fill="url(#paint13_linear_2003_15050)"/>
<path d="M117.041 31.6015C117.63 29.401 116.367 27.7083 114.6 28.0469C113.422 28.1315 111.571 28.47 110.224 27.2852H105.344C106.69 28.9778 108.457 30.4166 110.645 30.0781C114.6 29.8242 114.684 33.9713 111.402 34.9022C110.729 35.0715 109.972 35.2408 109.299 35.41C111.739 35.0715 113.675 34.5637 114.937 34.0559C116.031 33.3788 116.704 32.6171 117.041 31.6015Z" fill="url(#paint14_linear_2003_15050)"/>
<path d="M100.379 30.7551C109.209 30.7551 116.368 29.4668 116.368 27.8776C116.368 26.2883 109.209 25 100.379 25C91.5486 25 84.3901 26.2883 84.3901 27.8776C84.3901 29.4668 91.5486 30.7551 100.379 30.7551Z" fill="url(#paint15_linear_2003_15050)"/>
<g opacity="0.8" style="mix-blend-mode:soft-light">
<path d="M98.3591 29.8242C105.145 29.8242 110.645 28.8011 110.645 27.539C110.645 26.277 105.145 25.2539 98.3591 25.2539C91.5737 25.2539 86.073 26.277 86.073 27.539C86.073 28.8011 91.5737 29.8242 98.3591 29.8242Z" fill="url(#paint16_linear_2003_15050)"/>
</g>
<g opacity="0.4" style="mix-blend-mode:soft-light">
<path d="M96.4239 28.555C101.35 28.555 105.344 27.835 105.344 26.9469C105.344 26.0588 101.35 25.3389 96.4239 25.3389C91.4975 25.3389 87.5038 26.0588 87.5038 26.9469C87.5038 27.835 91.4975 28.555 96.4239 28.555Z" fill="white"/>
</g>
<path d="M87.5878 26.5234C87.5878 26.5234 87.8402 26.4388 88.261 26.2695C88.5134 26.1849 88.7659 26.1003 89.0184 26.0156C89.355 25.931 89.6915 25.8463 90.0281 25.7617C90.3647 25.6771 90.7855 25.5924 91.2063 25.5078C91.627 25.4232 92.1319 25.3385 92.5527 25.3385C93.0576 25.2539 93.4784 25.1693 93.9833 25.1693C94.4882 25.1693 94.9931 25.0846 95.498 25.0846C95.7504 25.0846 96.0029 25.0846 96.2554 25C96.5078 25 96.7603 25 97.0127 25C97.5177 25 98.0225 25 98.4433 25C98.9482 25 99.369 25 99.7897 25C100.21 25 100.631 25 101.052 25.0846C101.809 25.0846 102.483 25.1693 102.903 25.1693C103.324 25.1693 103.577 25.2539 103.577 25.2539C103.577 25.2539 103.324 25.2539 102.903 25.2539C102.483 25.2539 101.809 25.2539 101.052 25.2539C100.631 25.2539 100.295 25.2539 99.7897 25.2539C99.369 25.2539 98.864 25.2539 98.4433 25.3385C97.9384 25.3385 97.4335 25.3385 97.0127 25.4232C96.7603 25.4232 96.5078 25.4232 96.2554 25.4232C96.0029 25.4232 95.7504 25.4232 95.498 25.5078C94.9931 25.5078 94.4882 25.5924 93.9833 25.5924C93.4784 25.5924 92.9734 25.6771 92.5527 25.7617C92.0478 25.8463 91.627 25.8463 91.2063 25.931C90.7855 26.0156 90.3647 26.0156 90.0281 26.1002C89.6074 26.1849 89.2708 26.1849 89.0184 26.2695C88.6817 26.3541 88.4293 26.3542 88.261 26.4388C87.8402 26.4388 87.5878 26.5234 87.5878 26.5234Z" fill="white"/>
<path d="M116.788 28.3008C116.62 30.5859 116.62 33.4635 111.908 34.4791C106.354 35.664 91.2063 36.5103 84.7266 33.2942C85.9047 34.6483 92.2161 36.0871 100.126 36.0871C107.784 36.0871 114.6 34.733 116.115 33.4635C117.798 31.3476 117.377 29.401 116.788 28.3008Z" fill="url(#paint17_linear_2003_15050)"/>
<path d="M96.0871 40.6572C94.2358 40.4879 92.8052 40.0648 90.7856 39.3877C88.0927 44.2965 80.4349 58.0919 77.4055 63.5084C73.7028 70.1099 73.6186 70.4485 73.6186 77.3885V118.775C73.6186 129.438 73.5345 132.231 73.6186 139.341H82.118V102.017C82.118 84.3284 80.2666 75.3572 87.1671 61.3926C93.0577 49.3745 95.5822 44.1272 96.0871 40.6572Z" fill="url(#paint18_linear_2003_15050)"/>
<path d="M122.763 57.4994C121.921 55.8914 120.743 53.8602 119.565 51.6597C116.872 52.8445 111.487 54.1141 99.7896 54.1141C88.934 54.1141 83.0434 53.0985 80.0981 52.2521C79.0041 54.1987 77.9943 55.976 77.237 57.4994C72.777 65.7936 70.0841 70.8716 70.0841 76.2882C70.0841 81.7048 70.0841 142.895 70.0841 152.374C70.0841 162.7 71.9354 167.693 77.7419 170.655C83.5483 173.618 92.4684 174.718 94.5722 174.802C94.5722 174.802 103.408 175.056 105.512 174.802C107.616 174.718 116.452 173.618 122.342 170.655C128.149 167.693 130 162.7 130 152.374C130 142.895 130 81.7048 130 76.2882C129.916 70.8716 127.223 65.7936 122.763 57.4994Z" fill="url(#paint19_linear_2003_15050)"/>
<path d="M100.126 54.6218C110.909 54.6218 119.649 53.4472 119.649 51.9982C119.649 50.5492 110.909 49.3745 100.126 49.3745C89.344 49.3745 80.6032 50.5492 80.6032 51.9982C80.6032 53.4472 89.344 54.6218 100.126 54.6218Z" fill="#FFCC81"/>
<path opacity="0.5" d="M99.6213 54.1988C107.569 54.1988 114.011 53.3273 114.011 52.2523C114.011 51.1772 107.569 50.3057 99.6213 50.3057C91.6739 50.3057 85.2314 51.1772 85.2314 52.2523C85.2314 53.3273 91.6739 54.1988 99.6213 54.1988Z" fill="#FBE2B2"/>
<path d="M70.6732 114.035C70.6732 105.91 70.3366 75.1881 71.1781 72.226C72.3563 68.0789 79.0884 55.3837 80.6031 52.5062C80.4348 52.4215 80.1823 52.4215 80.014 52.3369C78.9201 54.2835 77.9102 56.0608 77.1529 57.5842C72.6928 65.8784 70 70.9564 70 76.373C70 81.7896 70 142.98 70 152.459C70 159.992 71.0098 164.731 73.7868 167.863C70.5891 163.546 70.5891 158.045 70.5891 152.459C70.6732 145.35 70.6732 122.076 70.6732 114.035Z" fill="#F7A61B"/>
<path d="M122.763 57.4994C121.921 55.8914 120.743 53.8602 119.565 51.6597C119.397 51.7443 119.229 51.8289 118.976 51.9136C119.565 53.0985 127.391 67.6555 128.738 72.1412C129.579 75.1033 129.243 105.91 129.243 113.95C129.243 122.075 129.243 145.265 129.243 152.374C129.243 158.045 129.243 163.715 125.877 168.116C128.906 164.985 130 160.245 130 152.374C130 142.895 130 81.7048 130 76.2882C129.916 70.8716 127.223 65.7936 122.763 57.4994Z" fill="#F7A61B"/>
<path d="M98.6115 172.433C82.8752 172.433 74.7966 166.847 71.2623 163.292C72.4404 166.762 74.4601 169.132 77.6578 170.74C83.4643 173.702 92.3843 174.803 94.4881 174.887C94.4881 174.887 103.324 175.141 105.428 174.887C107.532 174.803 116.367 173.702 122.258 170.74C125.708 168.963 127.812 166.509 128.906 162.531C124.446 167.524 116.452 172.433 98.6115 172.433Z" fill="url(#paint20_linear_2003_15050)"/>
<g opacity="0.5">
<path d="M98.6115 172.433C82.8752 172.433 74.7966 166.847 71.2623 163.292C71.3464 163.631 71.5147 163.969 71.5989 164.308C74.5442 166.931 82.4544 172.602 95.9186 172.856C113.422 173.194 119.902 169.894 122.679 168.116C125.456 166.424 119.06 175.564 95.8345 174.464C88.6816 173.956 83.2959 172.771 79.5091 171.502C85.2314 173.787 92.6368 174.718 94.4881 174.802C94.4881 174.802 103.324 175.056 105.428 174.802C107.532 174.718 116.367 173.618 122.258 170.655C125.708 168.878 127.812 166.424 128.906 162.446C124.446 167.524 116.452 172.433 98.6115 172.433Z" fill="url(#paint21_linear_2003_15050)"/>
</g>
<path d="M75.3858 167.778C75.3858 167.778 82.9594 173.195 96.0029 173.448C109.046 173.787 90.9538 175.141 81.9496 171.84C72.9454 168.54 74.6284 167.27 75.3858 167.778Z" fill="#F0BC5D"/>
<path d="M102.482 173.449C102.482 173.449 105.007 173.364 106.69 173.195C108.373 172.941 107.447 173.787 105.007 173.956C102.567 174.126 101.557 173.618 102.482 173.449Z" fill="#F0BC5D"/>
<path d="M128.822 77.7272C128.822 78.235 128.906 78.9967 128.906 80.0123C128.906 81.9589 129.074 84.7518 129.074 88.1372C129.074 89.8299 129.158 91.6072 129.158 93.5538C129.158 95.5004 129.243 97.5316 129.243 99.5628C129.243 101.679 129.243 103.795 129.327 106.08C129.327 108.28 129.327 110.481 129.327 112.766C129.327 114.966 129.327 117.251 129.327 119.452C129.327 121.652 129.327 123.853 129.243 125.884C129.243 130.116 129.158 134.009 129.074 137.31C128.99 140.695 128.906 143.488 128.906 145.435C128.906 146.45 128.822 147.212 128.822 147.72C128.822 148.227 128.822 148.566 128.822 148.566C128.822 148.566 128.822 148.312 128.822 147.72C128.822 147.212 128.738 146.45 128.738 145.435C128.654 143.488 128.569 140.695 128.569 137.31C128.485 133.924 128.485 130.031 128.401 125.884C128.401 123.768 128.317 121.652 128.317 119.452C128.317 117.251 128.317 115.051 128.317 112.766C128.317 110.565 128.317 108.28 128.317 106.08C128.317 103.879 128.317 101.679 128.401 99.5628C128.401 97.447 128.485 95.4157 128.485 93.5538C128.485 91.6072 128.569 89.8299 128.569 88.1372C128.654 84.7518 128.738 81.9589 128.738 80.0123C128.738 78.9967 128.822 78.235 128.822 77.7272Z" fill="#F0BC5D"/>
<path d="M81.6128 55.2988C81.6128 55.2988 81.5287 55.4681 81.4445 55.6374C81.3604 55.8913 81.1921 56.2298 81.0238 56.5683C80.8555 56.9915 80.603 57.4147 80.4347 57.9225C80.1822 58.4303 79.9298 58.9381 79.6773 59.4459C79.4249 59.9537 79.1724 60.4615 78.92 60.9693C78.6675 61.4771 78.4151 61.9003 78.1626 62.2388C77.9101 62.5774 77.7419 62.9159 77.6577 63.1698C77.4894 63.4237 77.4052 63.5083 77.4052 63.5083C77.4052 63.5083 77.4894 63.3391 77.5735 63.1698C77.6577 62.9159 77.826 62.5774 77.9943 62.2388C78.1626 61.8157 78.4151 61.3925 78.5834 60.8847C78.8358 60.3769 79.0883 59.8691 79.3407 59.3613C79.5932 58.8535 79.8456 58.3457 80.0981 57.8379C80.3505 57.33 80.603 56.9069 80.8555 56.5683C81.1079 56.1452 81.2762 55.8913 81.3603 55.6374C81.5286 55.3835 81.6128 55.2988 81.6128 55.2988Z" fill="#F0BC5D"/>
<path opacity="0.6" d="M94.4881 54.4525C94.4881 54.4525 95.5821 54.4525 97.2651 54.5371C98.1066 54.5371 99.1164 54.5371 100.126 54.5371C101.136 54.5371 102.314 54.5371 103.408 54.5371C103.997 54.5371 104.502 54.5371 105.091 54.5371C105.68 54.5371 106.185 54.4525 106.69 54.4525C107.195 54.4525 107.7 54.3678 108.205 54.3678C108.71 54.3678 109.13 54.2832 109.551 54.2832C109.972 54.2832 110.309 54.1986 110.645 54.1139C110.813 54.1139 110.982 54.0293 111.15 54.0293C111.318 54.0293 111.403 53.9447 111.571 53.9447C111.487 53.9447 111.318 54.0293 111.15 54.0293C110.982 54.0293 110.813 54.1139 110.645 54.1139C110.309 54.1986 109.972 54.2832 109.551 54.2832C109.13 54.3678 108.71 54.4525 108.205 54.4525C107.7 54.5371 107.195 54.5371 106.69 54.6217C106.185 54.6217 105.596 54.7064 105.091 54.7064C104.502 54.7064 103.997 54.791 103.408 54.791C102.314 54.791 101.136 54.791 100.126 54.791C99.1164 54.791 98.1066 54.7064 97.2651 54.6217C96.4236 54.5371 95.7503 54.5371 95.2454 54.4525C94.7405 54.4525 94.4881 54.4525 94.4881 54.4525Z" fill="#F5A61C"/>
<path opacity="0.5" d="M123.184 62.3237C123.184 62.3237 123.52 70.1101 113.422 70.9564C121.332 71.8028 126.466 75.7806 126.971 77.8964C128.149 74.0032 126.802 67.825 123.184 62.3237Z" fill="url(#paint22_linear_2003_15050)"/>
<path opacity="0.5" d="M76.3957 62.3237C76.3957 62.3237 76.059 70.1101 86.1572 70.9564C78.247 71.8028 73.1138 75.7806 72.6088 77.8964C71.4307 74.0032 72.7771 67.825 76.3957 62.3237Z" fill="url(#paint23_linear_2003_15050)"/>
<path opacity="0.8" d="M76.3114 91.0148C76.3114 91.0148 77.2371 101.086 77.2371 119.452C77.2371 137.817 75.6382 143.319 74.965 121.991C74.2076 100.663 75.554 73.4108 76.3114 91.0148Z" fill="#FACC7A"/>
<path opacity="0.4" d="M107.026 49.8828C107.026 49.8828 117.041 64.0167 117.041 80.0126C117.041 96.0931 117.041 109.381 117.041 109.381H125.035C125.035 109.381 125.035 84.075 125.035 76.204C125.035 68.4177 119.144 56.6535 114.011 48.3594L107.026 49.8828Z" fill="url(#paint24_linear_2003_15050)"/>
<path opacity="0.2" d="M75.9749 68.8405C75.9749 68.8405 76.7322 69.0944 77.9945 69.4329C78.6677 69.6022 79.425 69.7715 80.3507 70.0254C81.2764 70.1946 82.2862 70.4485 83.4643 70.7024C84.5583 70.8717 85.8206 71.1256 87.167 71.2949C88.5134 71.4642 89.8598 71.6334 91.2904 71.8027C92.721 71.9719 94.2357 72.0566 95.7504 72.1412C96.5078 72.2259 97.2651 72.2259 98.0225 72.2259C98.7799 72.2259 99.5372 72.2259 100.295 72.2259C101.809 72.2259 103.324 72.1412 104.839 72.0566C105.596 71.972 106.354 71.972 107.111 71.8873C107.868 71.8027 108.541 71.718 109.299 71.6334C110.729 71.4641 112.076 71.2949 113.422 71.041C114.095 70.9563 114.684 70.7871 115.274 70.7024C115.863 70.5332 116.452 70.4485 117.041 70.3639C117.63 70.2793 118.135 70.11 118.64 69.9407C119.145 69.7715 119.649 69.6868 120.07 69.6022C120.996 69.3483 121.753 69.0944 122.426 68.9251C121.753 69.179 120.996 69.3483 120.07 69.6868C119.649 69.8561 119.145 69.9407 118.64 70.11C118.135 70.2793 117.63 70.3639 117.041 70.5332C116.452 70.7024 115.863 70.7871 115.274 70.9563C114.684 71.041 114.011 71.2102 113.422 71.2949C112.16 71.5488 110.729 71.8027 109.299 71.9719C108.626 72.0566 107.868 72.1412 107.111 72.2259C106.354 72.3105 105.596 72.3951 104.839 72.3951C103.324 72.4798 101.809 72.5644 100.21 72.5644C99.4531 72.5644 98.6957 72.5644 97.9384 72.5644C97.181 72.5644 96.4236 72.5644 95.6663 72.4798C94.1515 72.3951 92.6368 72.3105 91.2062 72.1412C89.7757 71.972 88.3451 71.8027 87.0828 71.6334C85.7364 71.4641 84.5583 71.2102 83.3802 70.9563C81.1081 70.5332 79.2567 70.0254 77.9945 69.6022C76.7322 69.179 75.9749 68.8405 75.9749 68.8405Z" fill="#F5A61C"/>
<path opacity="0.6" d="M75.0491 146.62C75.0491 146.62 75.0491 146.874 75.0491 147.297C75.0491 147.72 75.1332 148.397 75.1332 149.159C75.1332 149.92 75.2174 150.851 75.2174 151.782C75.2174 152.713 75.3015 153.729 75.3857 154.745C75.3857 154.998 75.4698 155.252 75.4698 155.506C75.554 155.76 75.554 156.014 75.6381 156.268C75.7223 156.522 75.7223 156.776 75.8064 157.03C75.8906 157.284 75.9747 157.537 75.9747 157.707C76.0589 157.961 76.143 158.13 76.2272 158.384C76.3113 158.638 76.3955 158.807 76.4796 158.976C76.6479 159.399 76.9004 159.738 77.0687 160.076C77.1529 160.246 77.237 160.415 77.4053 160.5C77.4894 160.669 77.5736 160.754 77.6578 160.923C77.8261 161.177 77.9944 161.346 78.1627 161.515C78.4993 161.854 78.6676 162.023 78.6676 162.023C78.6676 162.023 78.4993 161.854 78.1627 161.6C77.9944 161.431 77.826 161.261 77.5736 161.007C77.3211 160.754 77.1528 160.5 76.9004 160.161C76.7321 159.823 76.4796 159.484 76.3113 159.061C76.0589 158.638 75.8906 158.214 75.7223 157.791C75.6381 157.537 75.554 157.368 75.4698 157.114C75.3857 156.86 75.3015 156.606 75.3015 156.353C75.2173 156.099 75.2174 155.845 75.1332 155.591C75.1332 155.337 75.0491 155.083 75.0491 154.829C74.9649 153.814 74.8807 152.798 74.8807 151.782C74.8807 150.851 74.8808 149.92 74.9649 149.159C74.9649 148.397 75.0491 147.72 75.0491 147.297C74.9649 146.874 75.0491 146.62 75.0491 146.62Z" fill="#F5A61C"/>
<path d="M125.456 79.4199C125.456 79.4199 125.456 80.0124 125.456 81.1126C125.456 82.2129 125.456 83.7363 125.54 85.5982C125.54 87.4602 125.54 89.576 125.624 91.9458C125.624 94.2309 125.624 96.6853 125.624 99.2243C125.624 101.679 125.624 104.133 125.624 106.503C125.624 108.788 125.624 110.988 125.54 112.85C125.54 114.712 125.456 116.236 125.456 117.336C125.456 116.236 125.456 114.712 125.372 112.85C125.372 110.988 125.372 108.873 125.287 106.503C125.287 104.218 125.287 101.763 125.287 99.2243C125.287 96.7699 125.287 94.3155 125.287 91.9458C125.287 89.6607 125.287 87.4602 125.372 85.5982C125.372 83.7363 125.456 82.2129 125.456 81.1126C125.456 80.097 125.456 79.4199 125.456 79.4199Z" fill="#F0BC5D"/>
<defs>
<linearGradient id="paint0_linear_2003_15050" x1="76.1975" y1="106.396" x2="122.052" y2="106.396" gradientUnits="userSpaceOnUse">
<stop stop-color="#444F5B"/>
<stop offset="0.0099575" stop-color="#4C5662"/>
<stop offset="0.0249761" stop-color="#606A74"/>
<stop offset="0.0431898" stop-color="#828A92"/>
<stop offset="0.0639083" stop-color="#B1B6BC"/>
<stop offset="0.0864639" stop-color="#EDEFF2"/>
<stop offset="0.0917172" stop-color="#FCFDFF"/>
<stop offset="0.5162" stop-color="#F7F9FC"/>
<stop offset="0.5371" stop-color="#F3F5F9"/>
<stop offset="0.62" stop-color="#E6E8EF"/>
<stop offset="0.7" stop-color="#E2E4EC"/>
<stop offset="0.7414" stop-color="#DBDDE5"/>
<stop offset="0.8039" stop-color="#C8CAD0"/>
<stop offset="0.8793" stop-color="#AAABAE"/>
<stop offset="0.905" stop-color="#9E9FA1"/>
<stop offset="0.9219" stop-color="#96989B"/>
<stop offset="0.9474" stop-color="#82868B"/>
<stop offset="0.9782" stop-color="#606871"/>
<stop offset="1" stop-color="#444F5B"/>
</linearGradient>
<linearGradient id="paint1_linear_2003_15050" x1="76.1977" y1="106.396" x2="122.053" y2="106.396" gradientUnits="userSpaceOnUse">
<stop stop-color="#ECEBE0"/>
<stop offset="0.1925" stop-color="#E5E4D9"/>
<stop offset="0.3402" stop-color="#DDDBCF"/>
<stop offset="0.493" stop-color="#E4E1D5"/>
<stop offset="0.7026" stop-color="#F7F1E5"/>
<stop offset="1" stop-color="#FFFFF9"/>
</linearGradient>
<linearGradient id="paint2_linear_2003_15050" x1="77.2075" y1="106.396" x2="121.963" y2="106.396" gradientUnits="userSpaceOnUse">
<stop stop-color="#ECEBE0"/>
<stop offset="0.1925" stop-color="#E5E4D9"/>
<stop offset="0.3402" stop-color="#DDDBCF"/>
<stop offset="0.493" stop-color="#E4E1D5"/>
<stop offset="0.7026" stop-color="#F7F1E5"/>
<stop offset="1" stop-color="#FFFFF9"/>
</linearGradient>
<linearGradient id="paint3_linear_2003_15050" x1="123.672" y1="106.396" x2="77.8177" y2="106.396" gradientUnits="userSpaceOnUse">
<stop stop-color="#ECEBE0"/>
<stop offset="0.1925" stop-color="#E5E4D9"/>
<stop offset="0.3402" stop-color="#DDDBCF"/>
<stop offset="0.493" stop-color="#E4E1D5"/>
<stop offset="0.7026" stop-color="#F7F1E5"/>
<stop offset="1" stop-color="#FFFFF9"/>
</linearGradient>
<linearGradient id="paint4_linear_2003_15050" x1="85.1017" y1="37.2518" x2="114.309" y2="37.2518" gradientUnits="userSpaceOnUse">
<stop stop-color="#444F5B"/>
<stop offset="0.0099575" stop-color="#4C5662"/>
<stop offset="0.0249761" stop-color="#606A74"/>
<stop offset="0.0431898" stop-color="#828A92"/>
<stop offset="0.0639083" stop-color="#B1B6BC"/>
<stop offset="0.0864639" stop-color="#EDEFF2"/>
<stop offset="0.0917172" stop-color="#FCFDFF"/>
<stop offset="0.3562" stop-color="#F7F9FC"/>
<stop offset="0.3829" stop-color="#F3F5F9"/>
<stop offset="0.489" stop-color="#E6E8EF"/>
<stop offset="0.5912" stop-color="#E2E4EC"/>
<stop offset="0.6547" stop-color="#DBDDE5"/>
<stop offset="0.7503" stop-color="#C8CAD0"/>
<stop offset="0.8657" stop-color="#AAABAE"/>
<stop offset="0.905" stop-color="#9E9FA1"/>
<stop offset="0.9219" stop-color="#96989B"/>
<stop offset="0.9474" stop-color="#82868B"/>
<stop offset="0.9782" stop-color="#606871"/>
<stop offset="1" stop-color="#444F5B"/>
</linearGradient>
<linearGradient id="paint5_linear_2003_15050" x1="85.8465" y1="21.9363" x2="109.048" y2="42.8352" gradientUnits="userSpaceOnUse">
<stop stop-color="#444F5B"/>
<stop offset="0.0099575" stop-color="#4C5662"/>
<stop offset="0.0249761" stop-color="#606A74"/>
<stop offset="0.0431898" stop-color="#828A92"/>
<stop offset="0.0639083" stop-color="#B1B6BC"/>
<stop offset="0.0864639" stop-color="#EDEFF2"/>
<stop offset="0.0917172" stop-color="#FCFDFF"/>
<stop offset="0.3562" stop-color="#F7F9FC"/>
<stop offset="0.3829" stop-color="#F3F5F9"/>
<stop offset="0.489" stop-color="#E6E8EF"/>
<stop offset="0.5912" stop-color="#E2E4EC"/>
<stop offset="0.6547" stop-color="#DBDDE5"/>
<stop offset="0.7503" stop-color="#C8CAD0"/>
<stop offset="0.8657" stop-color="#AAABAE"/>
<stop offset="0.905" stop-color="#9E9FA1"/>
<stop offset="0.9219" stop-color="#96989B"/>
<stop offset="0.9474" stop-color="#82868B"/>
<stop offset="0.9782" stop-color="#606871"/>
<stop offset="1" stop-color="#444F5B"/>
</linearGradient>
<linearGradient id="paint6_linear_2003_15050" x1="99.7091" y1="54.3962" x2="100.069" y2="36.4333" gradientUnits="userSpaceOnUse">
<stop stop-color="#444F5B"/>
<stop offset="0.0099575" stop-color="#4C5662"/>
<stop offset="0.0249761" stop-color="#606A74"/>
<stop offset="0.0431898" stop-color="#828A92"/>
<stop offset="0.0639083" stop-color="#B1B6BC"/>
<stop offset="0.0864639" stop-color="#EDEFF2"/>
<stop offset="0.0917172" stop-color="#FCFDFF"/>
<stop offset="0.3562" stop-color="#F7F9FC"/>
<stop offset="0.3829" stop-color="#F3F5F9"/>
<stop offset="0.489" stop-color="#E6E8EF"/>
<stop offset="0.5912" stop-color="#E2E4EC"/>
<stop offset="0.6547" stop-color="#DBDDE5"/>
<stop offset="0.7503" stop-color="#C8CAD0"/>
<stop offset="0.8657" stop-color="#AAABAE"/>
<stop offset="0.905" stop-color="#9E9FA1"/>
<stop offset="0.9219" stop-color="#96989B"/>
<stop offset="0.9474" stop-color="#82868B"/>
<stop offset="0.9782" stop-color="#606871"/>
<stop offset="1" stop-color="#444F5B"/>
</linearGradient>
<linearGradient id="paint7_linear_2003_15050" x1="84.4108" y1="45.3399" x2="86.986" y2="46.8097" gradientUnits="userSpaceOnUse">
<stop stop-color="#444F5B"/>
<stop offset="0.0134324" stop-color="#4C5662"/>
<stop offset="0.0336921" stop-color="#606A74"/>
<stop offset="0.0582619" stop-color="#828A92"/>
<stop offset="0.0862105" stop-color="#B1B6BC"/>
<stop offset="0.1166" stop-color="#EDEFF2"/>
<stop offset="0.1237" stop-color="#FCFDFF"/>
<stop offset="0.3562" stop-color="#F7F9FC"/>
</linearGradient>
<linearGradient id="paint8_linear_2003_15050" x1="115.775" y1="45.2706" x2="112.096" y2="47.2204" gradientUnits="userSpaceOnUse">
<stop stop-color="#444F5B"/>
<stop offset="0.0134324" stop-color="#4C5662"/>
<stop offset="0.0336921" stop-color="#606A74"/>
<stop offset="0.0582619" stop-color="#828A92"/>
<stop offset="0.0862105" stop-color="#B1B6BC"/>
<stop offset="0.1166" stop-color="#EDEFF2"/>
<stop offset="0.1237" stop-color="#FCFDFF"/>
<stop offset="0.3562" stop-color="#F7F9FC"/>
</linearGradient>
<linearGradient id="paint9_linear_2003_15050" x1="76.1997" y1="44.6343" x2="122.053" y2="44.6343" gradientUnits="userSpaceOnUse">
<stop stop-color="#444F5B"/>
<stop offset="0.0099575" stop-color="#4C5662"/>
<stop offset="0.0249761" stop-color="#606A74"/>
<stop offset="0.0431898" stop-color="#828A92"/>
<stop offset="0.0639083" stop-color="#B1B6BC"/>
<stop offset="0.0864639" stop-color="#EDEFF2"/>
<stop offset="0.0917172" stop-color="#FCFDFF"/>
<stop offset="0.3562" stop-color="#F7F9FC"/>
<stop offset="0.3829" stop-color="#F3F5F9"/>
<stop offset="0.489" stop-color="#E6E8EF"/>
<stop offset="0.5912" stop-color="#E2E4EC"/>
<stop offset="0.6547" stop-color="#DBDDE5"/>
<stop offset="0.7503" stop-color="#C8CAD0"/>
<stop offset="0.8657" stop-color="#AAABAE"/>
<stop offset="0.905" stop-color="#9E9FA1"/>
<stop offset="0.9219" stop-color="#96989B"/>
<stop offset="0.9474" stop-color="#82868B"/>
<stop offset="0.9782" stop-color="#606871"/>
<stop offset="1" stop-color="#444F5B"/>
</linearGradient>
<linearGradient id="paint10_linear_2003_15050" x1="78.365" y1="67.5839" x2="126.478" y2="52.3625" gradientUnits="userSpaceOnUse">
<stop stop-color="#444F5B"/>
<stop offset="0.0099575" stop-color="#4C5662"/>
<stop offset="0.0249761" stop-color="#606A74"/>
<stop offset="0.0431898" stop-color="#828A92"/>
<stop offset="0.0639083" stop-color="#B1B6BC"/>
<stop offset="0.0864639" stop-color="#EDEFF2"/>
<stop offset="0.0917172" stop-color="#FCFDFF"/>
<stop offset="0.3562" stop-color="#F7F9FC"/>
<stop offset="0.3829" stop-color="#F3F5F9"/>
<stop offset="0.489" stop-color="#E6E8EF"/>
<stop offset="0.5912" stop-color="#E2E4EC"/>
<stop offset="0.6547" stop-color="#DBDDE5"/>
<stop offset="0.7503" stop-color="#C8CAD0"/>
<stop offset="0.8657" stop-color="#AAABAE"/>
<stop offset="0.905" stop-color="#9E9FA1"/>
<stop offset="0.9219" stop-color="#96989B"/>
<stop offset="0.9474" stop-color="#82868B"/>
<stop offset="0.9782" stop-color="#606871"/>
<stop offset="1" stop-color="#444F5B"/>
</linearGradient>
<linearGradient id="paint11_linear_2003_15050" x1="100.768" y1="17.9267" x2="100.138" y2="37.254" gradientUnits="userSpaceOnUse">
<stop stop-color="#444F5B"/>
<stop offset="0.0099575" stop-color="#4C5662"/>
<stop offset="0.0249761" stop-color="#606A74"/>
<stop offset="0.0431898" stop-color="#828A92"/>
<stop offset="0.0639083" stop-color="#B1B6BC"/>
<stop offset="0.0864639" stop-color="#EDEFF2"/>
<stop offset="0.0917172" stop-color="#FCFDFF"/>
<stop offset="0.3562" stop-color="#F7F9FC"/>
<stop offset="0.3829" stop-color="#F3F5F9"/>
<stop offset="0.489" stop-color="#E6E8EF"/>
<stop offset="0.5912" stop-color="#E2E4EC"/>
<stop offset="0.6547" stop-color="#DBDDE5"/>
<stop offset="0.7503" stop-color="#C8CAD0"/>
<stop offset="0.8657" stop-color="#AAABAE"/>
<stop offset="0.905" stop-color="#9E9FA1"/>
<stop offset="0.9219" stop-color="#96989B"/>
<stop offset="0.9474" stop-color="#82868B"/>
<stop offset="0.9782" stop-color="#606871"/>
<stop offset="1" stop-color="#444F5B"/>
</linearGradient>
<linearGradient id="paint12_linear_2003_15050" x1="83.766" y1="31.697" x2="117.281" y2="31.697" gradientUnits="userSpaceOnUse">
<stop stop-color="#F59A99"/>
<stop offset="0.1993" stop-color="#C12026"/>
<stop offset="0.2213" stop-color="#B71E24"/>
<stop offset="0.2905" stop-color="#9D191D"/>
<stop offset="0.3613" stop-color="#8A1619"/>
<stop offset="0.4345" stop-color="#7F1416"/>
<stop offset="0.5132" stop-color="#7B1315"/>
<stop offset="0.5378" stop-color="#8E1618"/>
<stop offset="0.5885" stop-color="#B01A1C"/>
<stop offset="0.6406" stop-color="#CA1E20"/>
<stop offset="0.6936" stop-color="#DD2022"/>
<stop offset="0.7483" stop-color="#E82224"/>
<stop offset="0.8072" stop-color="#EC2224"/>
<stop offset="0.8282" stop-color="#EE3C3D"/>
<stop offset="0.8606" stop-color="#F05E5E"/>
<stop offset="0.8937" stop-color="#F27878"/>
<stop offset="0.9276" stop-color="#F48B8A"/>
<stop offset="0.9624" stop-color="#F59695"/>
<stop offset="1" stop-color="#F59A99"/>
</linearGradient>
<linearGradient id="paint13_linear_2003_15050" x1="95.924" y1="31.6012" x2="76.8379" y2="31.6012" gradientUnits="userSpaceOnUse">
<stop stop-color="#F59A99"/>
<stop offset="0.1993" stop-color="#C12026"/>
<stop offset="0.2213" stop-color="#B71E24"/>
<stop offset="0.2905" stop-color="#9D191D"/>
<stop offset="0.3613" stop-color="#8A1619"/>
<stop offset="0.4345" stop-color="#7F1416"/>
<stop offset="0.5132" stop-color="#7B1315"/>
<stop offset="0.5378" stop-color="#8E1618"/>
<stop offset="0.5885" stop-color="#B01A1C"/>
<stop offset="0.6406" stop-color="#CA1E20"/>
<stop offset="0.6936" stop-color="#DD2022"/>
<stop offset="0.7483" stop-color="#E82224"/>
<stop offset="0.8072" stop-color="#EC2224"/>
<stop offset="0.8282" stop-color="#EE3C3D"/>
<stop offset="0.8606" stop-color="#F05E5E"/>
<stop offset="0.8937" stop-color="#F27878"/>
<stop offset="0.9276" stop-color="#F48B8A"/>
<stop offset="0.9624" stop-color="#F59695"/>
<stop offset="1" stop-color="#F59A99"/>
</linearGradient>
<linearGradient id="paint14_linear_2003_15050" x1="82.2516" y1="31.3775" x2="118.121" y2="31.3775" gradientUnits="userSpaceOnUse">
<stop stop-color="#F59A99"/>
<stop offset="0.1993" stop-color="#C12026"/>
<stop offset="0.2213" stop-color="#B71E24"/>
<stop offset="0.2905" stop-color="#9D191D"/>
<stop offset="0.3613" stop-color="#8A1619"/>
<stop offset="0.4345" stop-color="#7F1416"/>
<stop offset="0.5132" stop-color="#7B1315"/>
<stop offset="0.5378" stop-color="#8E1618"/>
<stop offset="0.5885" stop-color="#B01A1C"/>
<stop offset="0.6406" stop-color="#CA1E20"/>
<stop offset="0.6936" stop-color="#DD2022"/>
<stop offset="0.7483" stop-color="#E82224"/>
<stop offset="0.8072" stop-color="#EC2224"/>
<stop offset="0.8282" stop-color="#EE3C3D"/>
<stop offset="0.8606" stop-color="#F05E5E"/>
<stop offset="0.8937" stop-color="#F27878"/>
<stop offset="0.9276" stop-color="#F48B8A"/>
<stop offset="0.9624" stop-color="#F59695"/>
<stop offset="1" stop-color="#F59A99"/>
</linearGradient>
<linearGradient id="paint15_linear_2003_15050" x1="100.406" y1="39.281" x2="100.406" y2="22.2718" gradientUnits="userSpaceOnUse">
<stop stop-color="#F59A99"/>
<stop offset="0.1993" stop-color="#C12026"/>
<stop offset="0.2213" stop-color="#B71E24"/>
<stop offset="0.2905" stop-color="#9D191D"/>
<stop offset="0.3613" stop-color="#8A1619"/>
<stop offset="0.4345" stop-color="#7F1416"/>
<stop offset="0.5132" stop-color="#7B1315"/>
<stop offset="0.5378" stop-color="#8E1618"/>
<stop offset="0.5885" stop-color="#B01A1C"/>
<stop offset="0.6406" stop-color="#CA1E20"/>
<stop offset="0.6936" stop-color="#DD2022"/>
<stop offset="0.7483" stop-color="#E82224"/>
<stop offset="0.8072" stop-color="#EC2224"/>
<stop offset="0.8282" stop-color="#EE3C3D"/>
<stop offset="0.8606" stop-color="#F05E5E"/>
<stop offset="0.8937" stop-color="#F27878"/>
<stop offset="0.9276" stop-color="#F48B8A"/>
<stop offset="0.9624" stop-color="#F59695"/>
<stop offset="1" stop-color="#F59A99"/>
</linearGradient>
<linearGradient id="paint16_linear_2003_15050" x1="98.3504" y1="36.3153" x2="98.3504" y2="23.1981" gradientUnits="userSpaceOnUse">
<stop stop-color="#F59A99"/>
<stop offset="0.1993" stop-color="#C12026"/>
<stop offset="0.2213" stop-color="#B71E24"/>
<stop offset="0.2905" stop-color="#9D191D"/>
<stop offset="0.3613" stop-color="#8A1619"/>
<stop offset="0.4345" stop-color="#7F1416"/>
<stop offset="0.5132" stop-color="#7B1315"/>
<stop offset="0.5378" stop-color="#8E1618"/>
<stop offset="0.5885" stop-color="#B01A1C"/>
<stop offset="0.6406" stop-color="#CA1E20"/>
<stop offset="0.6936" stop-color="#DD2022"/>
<stop offset="0.7483" stop-color="#E82224"/>
<stop offset="0.8072" stop-color="#EC2224"/>
<stop offset="0.8282" stop-color="#EE3C3D"/>
<stop offset="0.8606" stop-color="#F05E5E"/>
<stop offset="0.8937" stop-color="#F27878"/>
<stop offset="0.9276" stop-color="#F48B8A"/>
<stop offset="0.9624" stop-color="#F59695"/>
<stop offset="1" stop-color="#F59A99"/>
</linearGradient>
<linearGradient id="paint17_linear_2003_15050" x1="83.7664" y1="32.216" x2="117.282" y2="32.216" gradientUnits="userSpaceOnUse">
<stop stop-color="#F59A99"/>
<stop offset="0.1993" stop-color="#C12026"/>
<stop offset="0.2213" stop-color="#B71E24"/>
<stop offset="0.2905" stop-color="#9D191D"/>
<stop offset="0.3613" stop-color="#8A1619"/>
<stop offset="0.4345" stop-color="#7F1416"/>
<stop offset="0.5132" stop-color="#7B1315"/>
<stop offset="0.5378" stop-color="#8E1618"/>
<stop offset="0.5885" stop-color="#B01A1C"/>
<stop offset="0.6406" stop-color="#CA1E20"/>
<stop offset="0.6936" stop-color="#DD2022"/>
<stop offset="0.7483" stop-color="#E82224"/>
<stop offset="0.8072" stop-color="#EC2224"/>
<stop offset="0.8282" stop-color="#EE3C3D"/>
<stop offset="0.8606" stop-color="#F05E5E"/>
<stop offset="0.8937" stop-color="#F27878"/>
<stop offset="0.9276" stop-color="#F48B8A"/>
<stop offset="0.9624" stop-color="#F59695"/>
<stop offset="1" stop-color="#F59A99"/>
</linearGradient>
<linearGradient id="paint18_linear_2003_15050" x1="84.8546" y1="108.734" x2="84.8546" y2="149.912" gradientUnits="userSpaceOnUse">
<stop offset="0.2117" stop-color="#F6F7F9"/>
<stop offset="0.6044" stop-color="#F6F7F9"/>
</linearGradient>
<linearGradient id="paint19_linear_2003_15050" x1="70.018" y1="113.303" x2="129.915" y2="113.303" gradientUnits="userSpaceOnUse">
<stop stop-color="#FCAE22"/>
<stop offset="0.1013" stop-color="#FBBE50"/>
<stop offset="0.2206" stop-color="#F9B12A"/>
<stop offset="0.2774" stop-color="#FDAC16"/>
<stop offset="0.4549" stop-color="#FBB22B"/>
<stop offset="0.71" stop-color="#FFC559"/>
<stop offset="0.937" stop-color="#FECC6D"/>
<stop offset="1" stop-color="#FCA913"/>
</linearGradient>
<linearGradient id="paint20_linear_2003_15050" x1="73.0682" y1="168.702" x2="123.318" y2="168.702" gradientUnits="userSpaceOnUse">
<stop stop-color="#ED9B21"/>
<stop offset="0.171" stop-color="#F0BC5D"/>
<stop offset="0.4307" stop-color="#EFB95A"/>
<stop offset="0.6374" stop-color="#EAB150"/>
<stop offset="0.8252" stop-color="#E2A23F"/>
<stop offset="1" stop-color="#D78E28"/>
</linearGradient>
<linearGradient id="paint21_linear_2003_15050" x1="104.681" y1="145.191" x2="95.8423" y2="173.624" gradientUnits="userSpaceOnUse">
<stop stop-color="#ED9B21"/>
<stop offset="0.4307" stop-color="#EFB95A"/>
<stop offset="0.8252" stop-color="#E2A23F"/>
<stop offset="1" stop-color="#D78E28"/>
</linearGradient>
<linearGradient id="paint22_linear_2003_15050" x1="127.395" y1="70.1544" x2="113.442" y2="70.1544" gradientUnits="userSpaceOnUse">
<stop offset="0.0887675" stop-color="#F2B746"/>
<stop offset="0.1247" stop-color="#F2B643"/>
<stop offset="0.3099" stop-color="#F2B138"/>
<stop offset="0.5098" stop-color="#F2B034"/>
<stop offset="0.5524" stop-color="#F2AF30"/>
<stop offset="0.7213" stop-color="#F4AA23"/>
<stop offset="0.8841" stop-color="#F4A91F"/>
<stop offset="0.9448" stop-color="#EEA221"/>
<stop offset="1" stop-color="#E59624"/>
</linearGradient>
<linearGradient id="paint23_linear_2003_15050" x1="72.1823" y1="70.1544" x2="86.1352" y2="70.1544" gradientUnits="userSpaceOnUse">
<stop offset="0.0887675" stop-color="#F2B746"/>
<stop offset="0.1247" stop-color="#F2B643"/>
<stop offset="0.3099" stop-color="#F2B138"/>
<stop offset="0.5098" stop-color="#F2B034"/>
<stop offset="0.5524" stop-color="#F2AF30"/>
<stop offset="0.7213" stop-color="#F4AA23"/>
<stop offset="0.8841" stop-color="#F4A91F"/>
<stop offset="0.9448" stop-color="#EEA221"/>
<stop offset="1" stop-color="#E59624"/>
</linearGradient>
<linearGradient id="paint24_linear_2003_15050" x1="112.273" y1="48.4942" x2="115.991" y2="117.811" gradientUnits="userSpaceOnUse">
<stop offset="0.2117" stop-color="#FFD282"/>
<stop offset="0.6044" stop-color="#FFE1AC"/>
</linearGradient>
</defs>
</svg>
