<svg width="200" height="200" viewBox="0 0 200 200" fill="none" xmlns="http://www.w3.org/2000/svg">
<path d="M32.3727 85.076C32.2 83.1772 32.3727 81.1059 32.7182 79.2072C35.4818 61.2558 53.6182 48.8279 75.0363 48.8279C77.8 48.8279 80.5636 49.0005 83.3272 49.5183C108.2 53.3158 125.991 72.6481 122.882 92.8434C120.118 110.795 101.982 123.223 80.5636 123.223C77.8 123.223 75.0363 123.05 72.2727 122.532C53.7909 119.771 39.2818 108.378 34.2727 94.3969C33.0636 94.2243 31.8545 93.5338 30.8182 92.3256C28.7454 89.3912 29.9545 86.2842 32.3727 85.076ZM74.5181 46.9292C50.509 46.9292 29.9545 61.7736 26.3272 83.1773C22.1818 107.343 41.7 130.99 69.6818 135.651C72.9636 136.168 76.4182 136.514 79.5273 136.514C103.536 136.514 124.091 121.669 127.718 100.266C131.864 76.1002 112.345 52.4527 84.3636 47.7922C81.0818 47.2744 77.8 46.9292 74.5181 46.9292Z" fill="url(#paint0_radial_7002_12325)"/>
<path d="M130.827 98.7129H130.655C130.655 113.039 124.264 125.985 114.073 135.306C103.882 144.627 89.7182 150.496 74.1727 150.496C58.6273 150.496 44.4636 144.627 34.2727 135.306C24.0818 125.985 17.6909 112.867 17.6909 98.7129C17.6909 84.5589 24.0818 71.4405 34.2727 62.1196C44.4636 52.7987 58.6273 46.9299 74.1727 46.9299C89.7182 46.9299 103.882 52.7987 114.073 62.1196C124.264 71.4405 130.655 84.5589 130.655 98.7129H130.827H131C131 84.2136 124.609 71.2679 114.245 61.7744C103.882 52.2808 89.7182 46.4121 74 46.4121C58.2818 46.4121 44.1182 52.2808 33.7546 61.7744C23.3909 71.2679 17 84.2136 17 98.7129C17 113.212 23.3909 126.158 33.7546 135.651C44.1182 145.145 58.2818 151.014 74 151.014C89.7182 151.014 103.882 145.145 114.245 135.651C124.609 126.158 131 113.212 131 98.7129H130.827Z" fill="#FE7424"/>
<path d="M35.3094 72.9937C36.173 70.4046 37.7276 67.8154 39.8003 65.5715C43.0821 62.2919 47.573 60.2206 51.0276 60.2206C53.1003 60.2206 54.8275 60.9111 55.6912 62.6372C58.1093 67.4702 51.5457 66.7798 46.3639 71.9581C42.0457 76.4459 41.873 81.7968 38.9367 81.7968C38.4185 81.7968 37.9003 81.6242 37.2094 81.279C34.9639 80.2433 34.4457 77.6542 34.7912 74.7198C34.273 74.5472 33.9275 73.8568 34.1003 73.339C34.273 72.8211 34.6185 72.6485 35.1366 72.6485L35.3094 72.9937ZM76.4184 54.3519C76.073 54.0067 75.9003 53.6614 75.9003 53.6614L75.3821 53.1436L76.073 53.3162C80.5639 54.5245 84.0185 57.8041 84.5366 58.3219C88.1639 57.4589 92.4821 56.7684 93.8639 56.7684H94.2094H94.3821L94.5548 56.941V57.1136L94.3821 57.2863L94.0366 57.4589C93.8639 57.4589 93.6912 57.6315 93.5184 57.8041C93.6912 57.8041 93.8639 57.8041 94.0366 57.8041C94.5548 57.8041 94.7276 57.9767 94.0366 58.1493C93.0003 58.6671 91.9639 59.8754 91.273 60.9111C93.3457 61.2563 95.4185 62.4645 96.6276 63.3276C97.1457 63.6728 97.3185 63.8454 97.4912 64.1906V64.3632L97.3185 64.5359H97.1457C96.973 64.5359 96.973 64.5359 96.8003 64.3632C96.2821 64.018 95.5912 64.018 94.7275 64.018C96.4548 65.0537 97.6639 66.262 97.3185 66.262C97.3185 66.262 97.1457 66.262 96.973 66.0893C96.2821 65.7441 95.2457 65.5715 94.2094 65.5715C93.5185 65.5715 93.0003 65.5715 92.4821 65.7441C93.5185 67.8154 94.3821 70.232 94.7275 71.095C94.7275 71.2676 94.7275 71.4402 94.7275 71.4402V71.6129L94.5548 71.7855H94.3821H94.2094L94.0366 71.6129C93.8639 71.2676 93.5185 71.095 93.3457 70.7498C94.2094 72.8211 94.7275 74.5472 94.5548 74.5472L94.3821 74.3746C91.6184 70.5772 86.4367 67.2976 86.4367 67.2976C85.4003 69.5415 79.3548 72.6485 79.3548 72.6485C79.873 72.4759 80.7367 71.095 81.2548 69.5415C80.7367 69.8868 80.2185 70.0594 80.0457 70.0594H79.873H79.7002V69.8868V69.7142C79.873 69.7142 80.0457 69.5415 80.2185 69.1963C80.3912 69.0237 80.7366 68.6785 80.9094 68.1607C81.0821 67.8154 81.2548 67.4702 81.4275 67.125C81.4275 66.262 80.9094 65.3989 80.0457 64.7085C78.4912 63.5002 76.4184 63.3276 74.5184 63.3276C71.9275 63.3276 69.6821 64.018 69.6821 64.018C69.6821 64.018 70.8912 63.155 72.4457 62.2919C71.9276 62.2919 71.4093 62.4645 71.2366 62.4645C71.0639 62.4645 70.8912 62.4645 70.8912 62.4645L70.7185 62.1193C70.7185 62.1193 74.3457 59.5302 77.8003 59.3576C77.973 59.3576 78.3185 59.3576 78.3185 59.185C77.973 57.1136 74.6912 53.4888 74.6912 53.4888C75.5548 54.0067 75.9003 54.1793 76.4184 54.3519ZM75.0366 48.6558C53.6185 48.6558 35.4821 61.2563 32.7185 79.0351C32.373 81.1064 32.373 83.0051 32.373 84.9038C32.5457 84.7312 32.8912 84.7312 33.0639 84.5586C33.5821 84.386 33.9276 84.386 34.4457 84.386C36.0003 84.386 37.5548 85.249 38.5912 86.4573C39.8003 88.0108 39.973 90.4273 38.7639 92.1534C37.9003 93.5343 36.3457 94.2247 34.7912 94.2247C34.6184 94.2247 34.4457 94.2247 34.273 94.2247C39.2821 108.206 53.7912 119.598 72.273 122.36C75.0366 122.705 77.973 123.051 80.5639 123.051C101.982 123.051 120.118 110.45 122.882 92.6713C125.991 72.4759 108.2 52.971 83.3275 49.3462C80.5639 48.8284 77.6276 48.6558 75.0366 48.6558Z" fill="url(#paint1_radial_7002_12325)"/>
<path d="M79.5268 136.515C76.245 136.515 72.9632 136.17 69.6813 135.652C41.6995 130.991 22.1813 107.344 26.3268 83.1785C29.9541 61.7749 50.5086 46.9304 74.5177 46.9304C77.7995 46.9304 81.0813 47.2756 84.3632 47.7935C112.345 52.4539 131.863 76.1015 127.718 100.267C124.09 121.67 103.536 136.515 79.5268 136.515ZM74.1723 46.7578C58.6268 46.7578 44.4632 52.6265 34.2723 61.9475C24.0813 71.2684 17.6904 84.3867 17.6904 98.5407C17.6904 112.695 24.0813 125.813 34.2723 135.134C44.4632 144.455 58.6268 150.324 74.1723 150.324C89.7177 150.324 103.881 144.455 114.072 135.134C124.263 125.813 130.654 112.695 130.654 98.5407C130.654 84.2141 124.263 71.2684 114.072 61.9475C103.881 52.6265 89.7177 46.7578 74.1723 46.7578Z" fill="url(#paint2_radial_7002_12325)"/>
<path d="M74.1724 46.5854C42.9088 46.5854 17.5178 69.8878 17.5178 98.7136C17.5178 127.539 42.9088 150.842 74.1724 150.842C105.436 150.842 130.827 127.539 130.827 98.7136H130.654C130.654 113.04 124.263 125.986 114.072 135.307C103.881 144.628 89.7178 150.497 74.1724 150.497C58.6269 150.497 44.4633 144.628 34.2724 135.307C24.0815 125.986 17.6906 112.868 17.6906 98.7136C17.6906 84.5596 24.0815 71.4413 34.2724 62.1203C44.4633 52.7994 58.6269 46.9307 74.1724 46.9307C89.7178 46.9307 103.881 52.7994 114.072 62.1203C124.263 71.4413 130.654 84.5596 130.654 98.7136H130.827C130.827 69.8878 105.436 46.5854 74.1724 46.5854Z" fill="#FF6800"/>
<path d="M35.1365 72.9941C34.6183 72.9941 34.2728 73.3394 34.1001 73.6846C33.9274 74.2024 34.2728 74.8928 34.791 75.0655C34.9637 74.375 35.1365 73.6846 35.3092 72.9941H35.1365Z" fill="url(#paint3_radial_7002_12325)"/>
<path d="M29.782 101.992C29.6092 102.683 28.9183 103.028 28.2274 102.856C27.5365 102.683 27.1911 101.992 27.5365 101.302C27.882 100.612 28.4002 100.266 29.0911 100.439C29.6092 100.612 29.9547 101.475 29.782 101.992Z" fill="url(#paint4_radial_7002_12325)"/>
<path d="M38.2462 101.475C38.0734 101.993 37.5553 102.338 36.8644 102.166C36.3462 101.993 36.0007 101.475 36.1735 100.785C36.3462 100.267 36.8644 99.9216 37.5553 100.094C38.2462 100.439 38.4189 100.957 38.2462 101.475Z" fill="url(#paint5_radial_7002_12325)"/>
<path d="M35.4819 114.42C35.3092 114.938 34.6182 115.283 34.1 115.111C33.5818 114.938 33.2364 114.248 33.4091 113.73C33.5819 113.212 34.2727 112.867 34.7909 113.04C35.4818 113.212 35.6546 113.903 35.4819 114.42Z" fill="url(#paint6_radial_7002_12325)"/>
<path d="M45.673 119.426C45.5002 120.116 44.6366 120.462 43.9457 120.289C43.2548 120.116 42.9093 119.253 43.082 118.563C43.2548 117.872 44.1184 117.527 44.8093 117.7C45.5002 117.872 45.8457 118.735 45.673 119.426Z" fill="url(#paint7_radial_7002_12325)"/>
<path d="M53.9638 118.045C53.7911 118.736 52.9275 119.081 52.2366 118.909C51.5457 118.736 51.2002 117.873 51.3729 117.182C51.5457 116.492 52.4093 116.147 53.1002 116.319C53.7911 116.492 54.1366 117.355 53.9638 118.045Z" fill="url(#paint8_radial_7002_12325)"/>
<path d="M50.1635 130.301C49.8181 131.164 49.1271 131.509 48.2635 131.336C47.5726 131.164 47.0544 130.301 47.3999 129.438C47.7453 128.575 48.4362 128.229 49.2999 128.402C49.9908 128.747 50.509 129.61 50.1635 130.301Z" fill="url(#paint9_radial_7002_12325)"/>
<path d="M38.0727 125.985C37.9 126.675 37.0363 127.193 36.1727 126.848C35.4818 126.675 34.9636 125.812 35.3091 125.122C35.4818 124.431 36.3454 123.914 37.2091 124.259C37.9 124.431 38.2454 125.294 38.0727 125.985Z" fill="url(#paint10_radial_7002_12325)"/>
<path d="M59.3185 124.432C59.1457 125.122 58.4549 125.468 57.7639 125.295C57.073 125.122 56.9003 124.432 57.073 123.742C57.2458 123.051 57.9367 122.706 58.6276 122.878C59.3185 123.051 59.6639 123.742 59.3185 124.432Z" fill="url(#paint11_radial_7002_12325)"/>
<path d="M59.6637 134.27C59.4909 134.961 58.6273 135.479 57.7637 135.133C56.9 134.788 56.5546 134.098 56.9 133.235C57.0727 132.544 57.9364 132.026 58.8 132.372C59.4909 132.717 59.8364 133.58 59.6637 134.27Z" fill="url(#paint12_radial_7002_12325)"/>
<path d="M70.3728 125.64C70.2001 126.331 69.5092 126.676 68.8183 126.503C68.1274 126.331 67.782 125.64 68.1274 124.95C68.3001 124.26 68.991 123.914 69.6819 124.087C70.2001 124.26 70.5456 124.95 70.3728 125.64Z" fill="url(#paint13_radial_7002_12325)"/>
<path d="M79.5273 127.712C79.3546 128.23 78.6636 128.575 77.9727 128.402C77.2818 128.23 76.9364 127.539 77.2818 127.021C77.4546 126.504 78.1455 126.158 78.8364 126.331C79.3545 126.504 79.7 127.194 79.5273 127.712Z" fill="url(#paint14_radial_7002_12325)"/>
<path d="M80.7362 139.622C80.5635 140.312 79.6998 140.657 79.0089 140.485C78.318 140.312 77.9725 139.449 78.1453 138.759C78.318 138.068 79.1816 137.723 79.8725 137.896C80.7362 138.241 81.0816 138.931 80.7362 139.622Z" fill="url(#paint15_radial_7002_12325)"/>
<path d="M67.4357 141.002C67.0903 141.865 66.3994 142.21 65.5357 142.038C64.8448 141.865 64.3266 141.002 64.6721 140.139C65.0175 139.276 65.7085 138.931 66.5721 139.103C67.263 139.276 67.7812 140.139 67.4357 141.002Z" fill="url(#paint16_radial_7002_12325)"/>
<path d="M86.9547 65.7441C86.4365 66.7797 84.8819 67.6428 83.5001 68.5058C82.8092 69.0236 81.9455 69.3689 81.4274 69.7141C80.9092 71.2676 79.8729 72.4758 79.5274 72.8211C79.5274 72.8211 85.5728 69.7141 86.6092 67.4702C86.6092 67.4702 91.791 70.7497 94.5546 74.5472L94.7274 74.7198C94.9001 74.7198 94.3819 72.9937 93.5183 70.9223C91.6183 68.851 88.8546 66.9523 87.4728 66.0893C87.3001 65.9167 87.1274 65.7441 86.9547 65.7441ZM94.2092 64.1906C93.5183 64.1906 92.8274 64.1906 92.3092 64.3632C92.1365 64.3632 91.9637 64.3632 91.791 64.3632C91.9637 64.881 92.3092 65.3988 92.482 65.9167C93.0001 65.9167 93.5183 65.7441 94.2092 65.7441C95.2456 65.7441 96.1092 65.9167 96.9728 66.2619C97.1455 66.4345 97.3183 66.4345 97.3183 66.4345C97.6637 66.4345 96.4547 65.2262 94.7274 64.1906H94.2092ZM75.7274 62.2919C74.691 62.2919 73.6546 62.4645 72.791 62.4645C71.2365 63.3275 70.0274 64.1906 70.0274 64.1906C70.0274 64.1906 72.2728 63.5001 74.8637 63.5001C76.7637 63.5001 78.8365 63.8453 80.391 64.881C81.2547 65.5714 81.6001 66.4345 81.7728 67.2975C81.9456 66.7797 82.1183 66.2619 82.1183 65.5714C82.1183 64.7084 81.7728 63.8454 80.9092 63.3275C79.5274 62.6371 77.6274 62.2919 75.7274 62.2919ZM93.8637 57.804C93.691 57.804 93.5183 57.804 93.3456 57.804C92.3092 58.4944 91.2729 60.0479 90.7547 60.7384L90.5819 60.911C90.7547 60.911 90.9274 60.911 91.1001 60.911C91.791 59.8753 92.8274 58.4944 93.8637 58.1492C94.3819 57.9766 94.3819 57.804 93.8637 57.804ZM75.0365 53.834C75.0365 53.834 78.3183 57.4588 78.6638 59.5301L79.0092 59.3575C79.1819 59.1849 79.1819 59.0123 79.1819 58.8397C79.1819 58.3218 78.6637 57.2862 78.1456 56.4231C77.6274 55.5601 76.7637 54.697 76.4183 54.1792C75.9001 54.1792 75.5547 54.0066 75.0365 53.834Z" fill="url(#paint17_radial_7002_12325)"/>
<path d="M84.3635 58.6676C84.3635 58.6676 80.7362 54.8701 75.8999 53.4893C75.8999 53.4893 81.9453 59.5306 78.1453 59.7032C74.8635 59.8758 71.2362 62.465 71.2362 62.465C71.2362 62.465 77.6271 60.9115 81.0817 63.1554C84.018 65.2267 81.0817 69.542 80.218 69.8872C79.3544 70.2324 85.918 67.298 86.9544 65.2267C86.9544 65.2267 91.7908 68.1611 94.5544 71.4407C95.418 72.4763 93.3453 67.4706 91.6181 64.0185C91.6181 64.0185 95.0726 63.328 96.7999 64.1911C98.5271 65.0541 93.8635 61.0841 90.2362 61.0841C90.2362 61.0841 92.1362 57.9771 93.8635 57.2867C95.9362 56.5962 89.5453 57.4593 84.3635 58.6676Z" fill="#699B20"/>
<path d="M84.3642 58.6676C84.5369 58.4949 80.9097 54.6975 75.9006 53.3167L75.2097 53.144L75.7278 53.6619C75.7278 53.6619 75.9005 53.8345 76.246 54.1797C76.7642 54.6975 77.4551 55.5606 78.146 56.4236C78.8369 57.2867 79.1824 58.1497 79.1824 58.8402C79.1824 59.0128 79.1824 59.1854 79.0096 59.358C78.8369 59.5306 78.6642 59.5306 78.146 59.7032C74.6914 59.8758 71.0642 62.465 71.0642 62.465L71.2369 62.8102C71.2369 62.8102 71.4097 62.8102 71.5824 62.8102C72.2733 62.6376 74.0005 62.2924 75.7278 62.2924C77.4551 62.2924 79.5278 62.6376 80.9096 63.5006C81.7733 64.1911 82.1188 64.8815 82.1188 65.7446C82.1188 66.6076 81.7733 67.6433 81.2551 68.5063C81.0824 68.8515 80.7369 69.1968 80.5642 69.542C80.3914 69.7146 80.2187 69.8872 80.046 70.0598V70.2324V70.405H80.2187H80.3915C80.7369 70.2324 82.2915 69.542 83.6733 68.6789C85.2278 67.8159 86.6096 66.7802 87.1278 65.7446L86.9551 65.5719L86.7824 65.7446C86.7824 65.7446 87.1278 65.9172 87.646 66.2624C89.2005 67.298 92.3096 69.3694 94.3823 71.9585L94.5551 72.1311H94.7278H94.9006L95.0733 71.9585V71.7859C95.0733 71.6133 95.0733 71.6133 95.0733 71.4407C94.7278 70.2324 93.346 66.7802 92.1369 64.3637L91.9642 64.5363V64.7089C91.9642 64.7089 92.3096 64.7089 92.8278 64.5363C93.346 64.5363 94.0369 64.3637 94.7278 64.3637C95.5915 64.3637 96.6278 64.5363 97.146 64.7089C97.3187 64.7089 97.4915 64.8815 97.4915 64.8815H97.6642L97.8369 64.7089V64.5363C97.6642 64.3637 97.3187 64.0185 96.9733 63.6732C95.5914 62.6376 93.0006 61.2567 90.7551 61.2567V61.4293L90.9278 61.6019C90.9278 61.6019 91.1005 61.4293 91.2733 61.0841C91.7915 60.221 93.1733 58.3223 94.5551 57.8045L94.9006 57.6319L95.0733 57.4593V57.2867L94.9006 57.1141H94.7278H94.3823C93.0005 57.1141 88.6824 57.8045 85.0551 58.6676H84.3642V58.8402C87.9915 57.9771 92.3096 57.2867 93.6914 57.2867H94.0369V57.1141H93.8642V56.9415H93.6914L93.8642 56.7688H93.6914V56.9415L93.8642 56.7688L93.6914 56.5962V56.7688H93.8642L93.6914 56.5962C93.6914 56.5962 93.5188 56.5962 93.346 56.7688C92.3097 57.1141 91.446 58.1497 90.7551 59.0128C90.0642 59.8758 89.546 60.7389 89.546 60.7389L89.3733 61.0841H89.7187C91.2733 61.0841 93.0006 61.7745 94.2097 62.6376C94.9006 62.9828 95.4188 63.5006 95.9369 63.6732C96.1097 63.8458 96.2824 64.0185 96.4551 64.0185L96.6278 64.1911H96.8006L96.6278 64.0185V64.1911H96.8006L96.6278 64.0185L96.4551 63.8458C95.7642 63.5006 94.7278 63.328 93.8642 63.328C92.4824 63.328 91.2733 63.5006 91.2733 63.5006H91.1005L91.2733 63.6732C91.9642 65.0541 92.8278 66.7802 93.346 68.3337C93.6915 69.0241 93.8642 69.7146 94.0369 70.2324C94.2096 70.405 94.2097 70.7502 94.2097 70.9229C94.2097 71.0955 94.2097 71.2681 94.2097 71.2681L94.3823 71.4407V71.2681H94.2097L94.3823 71.4407V71.2681C91.6187 67.9885 86.7824 65.0541 86.7824 65.0541L86.6096 64.8815L86.4369 65.0541C85.9188 65.9172 84.3642 67.1254 82.8097 68.1611C81.946 68.6789 81.2551 69.0241 80.7369 69.3694C80.3914 69.542 80.2187 69.542 80.046 69.7146L79.8733 69.8872V70.0598L80.046 69.8872H79.8733V70.0598H80.046V69.8872L79.8733 70.0598L80.046 70.2324V70.0598H79.8733L80.046 70.2324C80.2187 70.0598 80.3914 69.8872 80.7369 69.7146C81.4278 68.8515 82.2914 67.298 82.2914 65.7446C82.2914 64.7089 81.946 63.8458 80.9096 63.1554C79.3551 62.1198 77.4551 61.7745 75.5551 61.7745C73.1369 61.7745 70.8915 62.2924 70.8915 62.2924V62.465L71.0642 62.6376L71.2369 62.465C71.9278 61.9471 75.0369 60.0484 77.9733 59.8758C78.4914 59.8758 78.8369 59.7032 79.0096 59.5306C79.1824 59.358 79.3551 59.0128 79.3551 58.6676C79.3551 58.1497 79.1823 57.6319 78.8369 56.9415C77.8005 55.2154 75.9006 53.144 75.9006 53.144L75.7278 53.3167V53.4893C78.146 54.1797 80.2187 55.388 81.7733 56.4236C82.4642 56.9415 83.1551 57.4593 83.5005 57.8045C83.6733 57.9771 83.846 58.1497 84.0187 58.3223L84.3642 58.6676V58.8402H84.5369L84.3642 58.6676Z" fill="#4E7218"/>
<path d="M80.2186 57.1152C80.2186 57.1152 82.1186 59.7044 79.355 60.2222C79.355 60.2222 82.6368 61.2579 83.1549 64.3648C83.3277 65.0553 83.3277 65.2279 83.5004 65.2279C83.8459 65.2279 84.1913 64.7101 84.5368 64.3648C85.055 63.847 85.5732 63.5018 86.2641 63.5018C86.7823 63.5018 87.1277 63.6744 87.8186 64.1922C88.6822 65.0553 88.855 65.4005 89.0277 65.4005C89.2004 65.4005 88.5095 63.847 91.1004 62.984C94.9004 61.7757 86.0914 62.6387 89.8914 59.1865C90.755 58.4961 90.9277 58.1509 90.755 58.1509C90.5823 58.1509 89.8913 58.4961 88.855 58.6687C87.8186 59.0139 86.6095 59.1865 85.4004 59.1865C83.6732 59.3592 81.7732 58.8413 80.2186 57.1152Z" fill="#48771A"/>
<path d="M32.3727 85.0762C29.9546 86.2844 28.7455 89.564 30.8182 92.3258C31.8546 93.5341 33.0637 94.2245 34.2728 94.3971C33.5818 92.671 33.0637 90.7723 32.891 88.8736H32.5455C31.8546 88.701 31.5091 87.8379 31.6818 87.3201C31.8546 86.9749 32.2 86.6297 32.5455 86.457C32.5455 85.9392 32.3727 85.4214 32.3727 85.0762Z" fill="url(#paint18_radial_7002_12325)"/>
<path d="M34.4457 84.5596C33.9276 84.5596 33.5821 84.5596 33.0639 84.7322C32.8912 84.7322 32.5457 84.9048 32.373 85.0774C32.373 85.5952 32.373 86.1131 32.5457 86.4583H32.8912H33.2366C33.9275 86.6309 34.273 87.4939 34.1003 88.0118C33.9275 88.5296 33.4094 88.8748 32.8912 88.8748C33.2367 90.7735 33.7548 92.4996 34.273 94.3983C34.4457 94.3983 34.6184 94.3983 34.7912 94.3983C36.3457 94.3983 37.9003 93.7079 38.7639 92.327C39.973 90.6009 39.8003 88.1844 38.5912 86.6309C37.7275 85.25 36.173 84.5596 34.4457 84.5596Z" fill="url(#paint19_radial_7002_12325)"/>
<path d="M32.8908 86.4575H32.5453C32.1998 86.6301 31.8544 86.8027 31.6817 87.3206C31.5089 88.011 31.8544 88.7014 32.5453 88.8741H32.8908C33.4089 88.8741 33.9271 88.5288 34.0998 88.011C34.2725 87.3206 33.9271 86.6301 33.2362 86.4575H32.8908Z" fill="url(#paint20_radial_7002_12325)"/>
<path d="M51.0273 60.394C47.5728 60.394 43.0819 62.4654 39.8001 65.7449C37.7273 67.8163 36.1728 70.578 35.3091 73.1672H35.4819C36.0001 73.3398 36.3455 74.0302 36.1728 74.548C36 75.0659 35.6546 75.2385 35.1364 75.2385H34.7909C34.2727 78.1728 34.9637 80.5894 37.2092 81.7977C37.9001 82.1429 38.4182 82.3155 38.9364 82.3155C41.8728 82.3155 42.0455 76.9646 46.3637 72.4767C51.5455 67.2984 58.1091 67.8163 55.6909 63.1558C54.8273 61.0845 53.1001 60.394 51.0273 60.394Z" fill="url(#paint21_radial_7002_12325)"/>
<path d="M35.3087 72.9941C35.136 73.6846 34.9633 74.375 34.7905 75.0655H35.136C35.6542 75.0655 35.9996 74.7202 36.1724 74.375C36.3451 73.8572 35.9996 73.3394 35.3087 72.9941Z" fill="url(#paint22_radial_7002_12325)"/>
<path d="M112.935 128.996C108.161 122.84 105.235 115.146 105.235 106.683C105.235 86.8315 121.404 70.6737 141.269 70.6737C161.133 70.6737 177.302 86.8315 177.302 106.683C177.302 121.917 167.755 134.997 154.358 140.229C152.048 141.153 149.43 141.922 147.12 142.23C145.272 142.538 143.27 142.691 141.269 142.691C134.339 142.691 127.872 140.691 122.482 137.459C121.558 136.998 120.48 136.382 119.556 135.613C116.938 133.612 114.475 131.15 112.935 128.996ZM150.662 145.769C148.66 145.769 150.046 143.769 152.356 143.153C154.974 142.384 186.695 131.15 177.918 95.2952C174.838 82.9844 158.515 71.1353 150.046 69.4426C146.966 68.8271 145.888 66.9805 148.044 66.9805C148.506 66.9805 149.122 67.1344 149.892 67.2882C153.28 68.2115 172.528 73.2897 179.766 94.5257C187.003 115.608 172.374 140.383 152.51 145.615C151.586 145.615 150.97 145.769 150.662 145.769ZM140.807 64.98C129.257 64.98 118.786 69.5965 111.241 77.2907C103.695 84.831 98.9216 95.2952 98.9216 106.836C98.9216 118.378 103.541 128.842 111.241 136.382C118.786 143.923 129.257 148.539 140.807 148.693C152.356 148.693 162.827 144.076 170.372 136.382C177.918 128.842 182.692 118.378 182.692 106.836C182.692 95.2952 178.072 84.831 170.372 77.2907C162.827 69.7504 152.356 64.98 140.807 64.98Z" fill="url(#paint23_radial_7002_12325)"/>
<path d="M182.846 106.836H182.692C182.692 118.377 178.072 128.841 170.373 136.381C162.828 143.922 152.356 148.538 140.807 148.692C129.258 148.692 118.787 144.076 111.241 136.381C103.696 128.841 98.9222 118.377 98.9222 106.836C98.9222 95.2943 103.542 84.8302 111.241 77.2899C118.787 69.7496 129.258 64.9792 140.807 64.9792C152.356 64.9792 162.828 69.5957 170.373 77.2899C177.918 84.8302 182.692 95.2943 182.692 106.836H182.846H183C183 83.5991 164.06 64.6714 140.807 64.6714C117.555 64.6714 98.6143 83.5991 98.6143 106.836C98.6143 130.072 117.555 149 140.807 149C164.06 149 183 130.072 183 106.836H182.846Z" fill="#FD610E"/>
<path d="M138.958 118.223C137.726 123.763 135.571 130.38 133.107 134.535C131.875 136.689 130.489 138.228 129.103 138.69C128.641 138.844 128.025 138.844 127.563 138.844C126.793 138.844 126.023 138.69 125.253 138.536C130.027 140.998 135.571 142.383 141.268 142.383C141.73 142.383 142.192 142.383 142.654 142.383C141.884 142.229 141.114 142.075 140.652 141.768C140.19 141.46 139.728 140.998 139.42 140.229C139.112 139.459 138.804 138.536 138.65 137.613C138.342 135.458 138.034 132.842 138.034 129.919C138.188 125.918 138.496 121.763 138.958 118.223ZM105.697 108.067C106.005 114.838 108.161 121.147 111.702 126.533C111.394 125.918 111.394 125.302 111.394 124.84C111.394 123.763 112.164 122.686 113.55 121.301C114.936 120.07 116.784 118.685 118.94 117.3C122.482 114.992 126.793 112.684 130.489 110.991H130.181C125.253 112.222 119.248 113.299 114.628 113.299C111.394 113.299 108.777 112.837 107.545 111.606C106.467 110.683 105.851 109.452 105.697 108.067ZM141.268 101.604C140.96 102.835 140.652 103.912 140.344 104.528C140.19 104.835 139.882 105.143 139.728 105.297H139.42C139.112 105.297 138.65 105.143 138.034 104.835C137.88 104.835 137.726 104.682 137.572 104.528C138.188 105.143 138.65 105.759 138.804 106.067C138.958 106.374 139.112 106.528 139.112 106.836V106.99C138.958 107.298 138.65 107.605 138.188 108.067L137.88 108.221C138.188 108.221 138.496 108.067 138.65 108.067C138.958 108.067 139.266 108.067 139.42 108.221C139.574 108.375 139.728 108.683 139.882 109.144C140.036 109.606 140.036 110.068 140.036 110.529C140.036 111.145 140.036 111.76 139.882 112.53C140.19 111.299 140.498 110.375 140.806 109.76C140.96 109.452 141.268 109.144 141.576 108.99H141.884C142.192 108.99 142.654 109.144 143.27 109.452C143.424 109.452 143.578 109.606 143.732 109.76C143.116 109.144 142.808 108.529 142.5 108.221C142.346 107.913 142.192 107.759 142.192 107.451V107.298C142.346 106.99 142.654 106.682 143.116 106.374C143.27 106.22 143.424 106.22 143.578 106.067C143.116 106.22 142.808 106.22 142.5 106.22C142.192 106.22 141.884 106.22 141.73 106.067C141.576 105.913 141.422 105.605 141.268 105.143C141.114 104.682 141.114 104.22 141.114 103.604C141.268 102.835 141.268 102.219 141.268 101.604ZM122.02 76.5208C119.864 77.9057 117.862 79.4446 116.168 81.2912C112.472 84.9844 109.547 89.6009 107.699 94.6791C108.777 92.0631 110.162 90.0626 111.548 89.2932C111.856 89.1393 112.318 88.9854 112.78 88.9854C114.012 88.9854 115.552 89.4471 117.246 90.2165C119.094 90.9859 121.096 92.0631 123.098 93.2942C125.561 94.833 128.025 96.5257 130.335 98.0646C127.255 94.833 124.021 91.1398 121.866 87.6004C120.172 84.9844 119.248 82.6762 119.248 80.9834C119.248 80.6757 119.248 80.3679 119.402 80.214C119.556 78.9829 120.48 77.7519 122.02 76.5208ZM141.268 70.981C137.265 70.981 133.415 71.5965 129.719 72.8276C132.183 72.0581 134.647 71.7504 136.649 71.7504C138.188 71.7504 139.42 71.9043 140.19 72.5198C140.652 72.8276 141.114 73.4431 141.422 74.2125C141.73 74.9819 142.038 75.9052 142.192 77.1363C142.654 79.4446 142.808 82.2145 142.808 85.2922C142.808 88.8315 142.5 92.6786 142.192 96.0641C143.424 90.5242 145.58 83.9072 147.89 79.5985C149.122 77.4441 150.508 75.9052 151.739 75.4436C152.201 75.2897 152.817 75.1358 153.433 75.1358C155.897 75.1358 158.669 76.5208 161.441 78.3674C164.059 80.214 166.522 82.6761 168.062 84.9844C169.14 86.5233 169.756 87.9082 169.756 88.9854C169.756 90.0626 168.986 91.1398 167.6 92.5247C166.214 93.7558 164.367 95.2946 162.365 96.6796C158.515 99.2956 153.741 101.912 149.738 103.604C150.2 103.451 150.662 103.297 151.123 103.297C155.897 102.066 161.903 101.142 166.522 101.142C168.216 101.142 169.756 101.296 171.142 101.604C172.374 101.912 173.452 102.373 174.068 102.989C175.3 104.374 175.916 106.528 175.916 109.144C175.916 112.222 175.146 115.915 173.914 118.993C172.682 122.07 171.142 124.379 169.602 125.302C169.294 125.456 168.832 125.61 168.37 125.61C167.138 125.61 165.598 125.148 163.905 124.379C162.057 123.609 160.055 122.532 158.053 121.301C155.589 119.762 153.125 118.069 150.816 116.377C153.895 119.608 157.129 123.455 159.131 126.841C160.671 129.457 161.749 131.765 161.749 133.458C161.749 133.766 161.749 134.073 161.595 134.381C161.287 135.766 160.209 136.997 158.823 138.074C161.595 136.536 164.059 134.535 166.214 132.381C172.682 125.918 176.686 116.992 176.686 107.144C176.686 97.2951 172.682 88.3699 166.214 81.9067C160.055 74.9819 151.124 70.981 141.268 70.981Z" fill="url(#paint24_radial_7002_12325)"/>
<path d="M177.148 106.682H176.994C176.994 116.53 172.99 125.456 166.523 131.919C160.055 138.382 151.124 142.383 141.269 142.383C131.413 142.383 122.482 138.382 116.015 131.919C109.547 125.456 105.543 116.53 105.543 106.682C105.543 96.8331 109.547 87.9079 116.015 81.4447C122.482 74.9816 131.413 70.9806 141.269 70.9806C151.124 70.9806 160.055 74.9816 166.523 81.4447C172.99 87.9079 176.994 96.8331 176.994 106.682H177.148H177.302C177.302 86.8307 161.133 70.6729 141.269 70.6729C121.404 70.6729 105.235 86.8307 105.235 106.682C105.235 126.533 121.404 142.691 141.269 142.691C161.133 142.691 177.302 126.533 177.302 106.682H177.148Z" fill="#FE610D"/>
<path d="M144.503 139.767C143.425 139.767 142.347 139.613 141.731 139.151C138.343 136.997 140.345 115.453 142.347 114.838H142.501C145.273 114.838 158.516 128.841 157.438 133.458C156.514 137.151 148.968 139.767 144.503 139.767ZM141.731 109.144V109.298C141.577 109.298 141.423 109.452 141.269 109.913C141.115 110.221 140.961 110.837 140.653 111.452C140.345 112.683 139.883 114.376 139.575 116.377C138.959 120.378 138.497 125.302 138.497 129.918C138.497 134.227 138.805 138.074 139.729 140.075C140.037 140.69 140.345 141.306 140.807 141.46C141.577 141.921 142.809 142.229 144.349 142.229C147.274 142.229 151.278 141.306 154.666 139.921C158.054 138.382 160.825 136.382 161.441 133.919C161.441 133.612 161.595 133.458 161.595 133.15C161.595 131.765 160.825 129.765 159.594 127.61C158.362 125.456 156.514 122.994 154.666 120.685C152.664 118.377 150.662 116.069 148.66 114.222C147.89 113.607 147.274 113.145 146.658 112.529C146.043 112.068 145.581 111.606 145.119 110.991C144.657 110.683 144.195 110.221 143.733 110.067C142.963 109.606 142.347 109.298 142.039 109.298H141.885L141.731 109.144Z" fill="url(#paint25_radial_7002_12325)"/>
<path d="M141.731 109.144V108.99C141.423 109.144 141.269 109.298 140.961 109.76C140.191 111.145 139.575 114.068 139.113 117.762C138.651 121.455 138.343 125.764 138.343 129.765C138.343 132.688 138.497 135.304 138.959 137.459C139.113 138.536 139.421 139.459 139.729 140.075C140.037 140.844 140.499 141.306 140.961 141.614C141.731 142.075 143.116 142.383 144.656 142.383C147.736 142.383 151.74 141.46 155.128 139.921C158.515 138.382 161.441 136.382 162.057 133.766C162.057 133.458 162.211 133.15 162.211 132.842C162.211 131.15 161.133 128.687 159.593 126.225C157.129 122.378 153.434 118.069 150.046 114.684C148.352 112.991 146.658 111.606 145.272 110.529C144.656 110.067 143.886 109.606 143.424 109.298C142.808 108.99 142.5 108.836 142.038 108.836H141.731V109.144V109.298H141.884C142.192 109.298 142.808 109.606 143.578 110.067C146.35 111.76 150.816 116.069 154.666 120.685C156.513 122.994 158.361 125.456 159.593 127.61C160.825 129.765 161.595 131.765 161.595 133.15C161.595 133.458 161.595 133.766 161.441 133.92C160.825 136.228 158.053 138.382 154.666 139.921C151.278 141.46 147.274 142.229 144.348 142.229C142.808 142.229 141.577 142.075 140.807 141.46C140.345 141.152 140.037 140.69 139.729 140.075C138.805 138.074 138.497 134.227 138.497 129.919C138.497 125.456 138.959 120.378 139.575 116.377C139.883 114.376 140.191 112.684 140.653 111.452C140.807 110.837 140.961 110.375 141.269 109.914C141.423 109.606 141.577 109.298 141.731 109.298V109.144Z" fill="#F7620A"/>
<path d="M126.178 134.535C121.558 134.535 114.321 127.456 114.321 124.225C114.321 120.531 131.106 111.914 134.493 111.914C134.647 111.914 134.955 111.914 134.955 112.068C136.649 113.453 131.722 132.996 127.256 134.381C126.948 134.381 126.64 134.535 126.178 134.535ZM139.421 108.375C139.267 108.375 139.113 108.375 138.805 108.375C138.343 108.375 137.573 108.528 136.649 108.836L136.341 108.99C135.417 109.452 134.185 109.759 132.8 110.221C130.644 111.144 128.334 112.222 125.87 113.453C120.326 116.376 114.783 119.916 112.627 122.686C112.011 123.455 111.703 124.225 111.703 124.686C111.703 125.61 112.319 126.994 113.243 128.533C114.321 130.072 115.707 131.611 117.247 133.15C120.48 136.074 124.484 138.536 127.564 138.536C128.026 138.536 128.642 138.536 128.95 138.382C130.182 138.074 131.568 136.535 132.8 134.381C134.031 132.227 135.263 129.457 136.341 126.533C138.343 120.685 139.883 114.068 139.883 110.683C139.883 110.067 139.883 109.606 139.729 109.298C139.575 108.836 139.421 108.682 139.421 108.375Z" fill="url(#paint26_radial_7002_12325)"/>
<path d="M139.421 108.375C139.267 108.067 139.113 108.067 138.805 108.067C137.573 108.067 135.263 108.836 132.491 109.914C128.334 111.606 123.098 114.376 118.786 117.146C116.63 118.531 114.782 119.916 113.397 121.147C112.011 122.378 111.241 123.609 111.241 124.686C111.241 125.764 111.857 127.149 112.935 128.687C114.474 130.996 116.938 133.458 119.556 135.458C122.174 137.459 125.1 138.69 127.564 138.844C128.18 138.844 128.641 138.844 129.103 138.69C130.489 138.228 131.875 136.689 133.107 134.535C136.957 128.072 140.037 115.761 140.037 110.683C140.037 110.067 140.037 109.606 139.883 109.298C139.883 108.682 139.729 108.375 139.421 108.375C139.421 108.682 139.575 108.836 139.575 109.144C139.729 109.452 139.729 109.914 139.729 110.529C139.729 113.914 138.343 120.378 136.187 126.379C135.109 129.303 134.031 132.073 132.645 134.227C131.413 136.382 130.027 137.92 128.795 138.228C128.333 138.382 127.872 138.382 127.41 138.382C124.33 138.382 120.326 136.074 117.092 132.996C115.552 131.457 114.013 129.918 113.089 128.38C112.011 126.841 111.549 125.456 111.549 124.532C111.549 123.917 111.857 123.301 112.473 122.532C114.629 119.762 120.172 116.223 125.716 113.299C128.487 111.914 131.259 110.529 133.569 109.606C135.879 108.682 137.727 108.067 138.651 108.221C139.113 108.375 139.267 108.529 139.421 108.375Z" fill="#F7620A"/>
<path d="M168.063 122.993C163.135 122.993 147.583 111.144 148.045 109.298C148.507 107.605 159.44 104.835 166.677 104.835C169.295 104.835 171.451 105.143 172.375 106.22C175.763 109.759 172.221 121.455 168.987 122.993C168.679 122.993 168.371 122.993 168.063 122.993ZM166.677 101.45C162.52 101.45 157.592 102.219 153.126 103.142C148.661 104.066 144.965 105.297 143.271 106.374C142.809 106.682 142.501 106.99 142.501 107.143C142.501 107.297 142.655 107.759 142.963 108.067C143.271 108.528 143.733 108.99 144.349 109.606C145.581 110.837 147.121 112.222 148.968 113.76C152.818 116.838 157.592 120.07 161.75 122.224C164.521 123.609 166.831 124.532 168.371 124.532C168.833 124.532 169.141 124.532 169.449 124.378C170.835 123.763 172.375 121.301 173.607 118.377C174.839 115.453 175.609 111.76 175.609 108.682C175.609 106.22 175.147 104.066 173.915 102.835C173.299 102.219 172.375 101.911 171.143 101.604C169.911 101.604 168.371 101.45 166.677 101.45Z" fill="url(#paint27_radial_7002_12325)"/>
<path d="M142.501 107.144H142.347V107.298C142.347 107.451 142.501 107.759 142.655 108.067C143.271 109.144 144.81 110.683 146.812 112.53C149.892 115.3 154.204 118.377 158.362 120.993C160.363 122.224 162.365 123.302 164.213 124.071C166.061 124.84 167.601 125.302 168.679 125.302C169.141 125.302 169.603 125.302 169.911 124.994C171.451 124.225 172.99 121.763 174.222 118.685C175.454 115.607 176.224 112.068 176.224 108.836C176.224 106.374 175.762 104.066 174.376 102.681C173.76 102.066 172.682 101.604 171.451 101.296C170.219 100.988 168.679 100.834 166.831 100.834C162.057 100.834 156.206 101.758 151.432 102.989C148.968 103.604 146.812 104.22 145.272 104.989C144.503 105.297 143.887 105.605 143.425 105.913C142.963 106.22 142.655 106.528 142.501 106.836V107.144H142.655C142.655 106.99 142.963 106.682 143.425 106.374C144.964 105.297 148.814 104.066 153.28 103.143C157.746 102.219 162.673 101.45 166.831 101.45C168.525 101.45 170.065 101.604 171.297 101.912C172.528 102.219 173.452 102.681 174.068 103.143C175.3 104.374 175.762 106.528 175.762 108.99C175.762 112.068 174.992 115.607 173.76 118.685C172.528 121.609 170.989 124.071 169.603 124.687C169.295 124.84 168.987 124.84 168.525 124.84C166.985 124.84 164.521 123.917 161.903 122.532C157.746 120.378 152.972 116.992 149.122 114.069C147.274 112.53 145.58 111.145 144.503 109.914C143.887 109.298 143.425 108.836 143.117 108.375C142.809 107.913 142.655 107.605 142.655 107.451L142.501 107.144Z" fill="#F7620A"/>
<path d="M138.343 99.1422C135.572 99.1422 121.405 84.6771 122.637 79.9067C123.56 76.0596 131.568 73.1358 136.342 73.1358C137.42 73.1358 138.497 73.2897 139.113 73.5974C142.655 75.7518 140.807 98.3728 138.651 98.9883L138.343 99.1422ZM136.804 72.0586C133.878 72.0586 129.874 72.9819 126.332 74.5207C122.945 76.0596 120.019 78.214 119.557 80.5222C119.557 80.6761 119.403 80.9839 119.403 81.2916C119.403 82.6766 120.173 84.6771 121.405 86.8315C122.637 88.9859 124.484 91.2941 126.332 93.6024C128.334 95.9106 130.49 98.2189 132.492 100.066C133.262 100.681 133.878 101.143 134.494 101.758C135.11 102.22 135.572 102.682 136.034 103.143C136.496 103.451 136.958 103.759 137.42 104.066C138.189 104.528 138.805 104.836 139.113 104.836H139.267C139.421 104.836 139.575 104.682 139.729 104.22C139.883 103.913 140.037 103.451 140.191 102.835C140.499 101.604 140.807 100.066 141.115 98.2189C141.731 94.5257 142.039 89.6014 142.039 85.1387C142.039 80.5222 141.577 76.3674 140.653 74.213C140.345 73.4436 140.037 72.9819 139.575 72.6741C139.421 72.2125 138.189 72.0586 136.804 72.0586Z" fill="url(#paint28_radial_7002_12325)"/>
<path d="M139.729 104.989V105.143C140.037 104.989 140.191 104.835 140.345 104.374C140.961 103.142 141.576 100.219 142.038 96.6793C142.5 93.14 142.808 88.9851 142.808 85.138C142.808 82.0603 142.654 79.2904 142.192 76.9821C142.038 75.9049 141.73 74.8278 141.423 74.0583C141.115 73.2889 140.653 72.6734 140.191 72.3656C139.421 71.904 138.189 71.5962 136.649 71.5962C133.569 71.5962 129.565 72.5195 126.024 74.0583C122.482 75.5972 119.71 77.7516 118.94 80.3676C118.94 80.6754 118.786 80.8292 118.786 81.137C118.786 82.8297 119.864 85.138 121.404 87.754C123.868 91.6011 127.564 95.9099 130.951 99.2953C132.645 100.988 134.339 102.373 135.725 103.45C136.495 103.912 137.111 104.374 137.573 104.681C138.189 104.989 138.651 105.143 138.959 105.143H139.267L139.729 104.989V104.835H139.575C139.267 104.835 138.651 104.527 137.727 104.066C134.955 102.373 130.489 98.0643 126.486 93.6016C124.484 91.2934 122.79 88.9851 121.558 86.8307C120.326 84.6763 119.556 82.6758 119.556 81.2909C119.556 80.9831 119.556 80.8292 119.71 80.5215C120.326 78.2132 123.098 76.0588 126.486 74.52C129.873 72.9812 133.877 72.0578 136.957 72.0578C138.343 72.0578 139.575 72.2117 140.345 72.6734C140.807 72.9811 141.115 73.4428 141.423 74.2122C142.346 76.3666 142.808 80.5215 142.808 85.138C142.808 89.6006 142.5 94.371 141.884 98.2181C141.576 100.065 141.269 101.757 140.961 102.835C140.807 103.45 140.653 103.912 140.499 104.22C140.345 104.527 140.191 104.681 140.037 104.835L139.729 104.989Z" fill="#F7620A"/>
<path d="M146.966 101.911C146.812 101.911 146.504 101.911 146.504 101.758C144.656 100.219 149.584 80.2138 154.204 78.6749C154.512 78.521 154.974 78.521 155.436 78.521C160.209 78.521 167.755 85.7536 167.755 88.9852C167.755 92.8323 150.508 101.911 146.966 101.911ZM153.588 75.4434C152.972 75.4434 152.51 75.4434 152.048 75.5972C150.816 75.905 149.584 77.4439 148.352 79.5982C147.12 81.7526 146.042 84.5225 144.964 87.4463C142.963 93.2939 141.577 99.9109 141.577 103.296C141.577 103.912 141.577 104.374 141.731 104.681C141.885 104.989 141.885 105.297 142.039 105.451C142.039 105.451 142.347 105.605 142.501 105.605C143.425 105.605 145.272 104.989 147.582 104.066C149.892 103.143 152.664 101.758 155.282 100.373C160.825 97.4488 166.369 93.7556 168.525 90.9857C169.141 90.2162 169.449 89.4468 169.449 88.9852C169.449 88.0619 168.833 86.6769 167.755 85.1381C166.677 83.5992 165.291 82.0604 163.751 80.6754C160.671 77.7516 156.668 75.4434 153.588 75.4434Z" fill="url(#paint29_radial_7002_12325)"/>
<path d="M141.884 105.605C141.884 105.913 142.192 105.913 142.5 105.913C143.732 105.913 145.888 105.144 148.66 103.913C152.817 102.066 158.053 99.2961 162.365 96.5262C164.521 95.1412 166.368 93.7563 167.6 92.3713C168.986 90.9864 169.756 89.9092 169.756 88.832C169.756 87.7548 169.14 86.3699 168.062 84.831C166.522 82.5227 164.059 80.0606 161.441 78.214C158.823 76.3674 155.897 74.9824 153.433 74.9824C152.817 74.9824 152.355 74.9824 151.74 75.2902C150.354 75.7518 149.122 77.2907 147.89 79.4451C144.194 85.9082 141.114 98.065 141.114 103.297C141.114 103.913 141.114 104.374 141.268 104.836C141.422 105.298 141.576 105.605 141.884 105.605C141.884 105.298 141.73 105.144 141.73 104.682C141.576 104.374 141.576 103.759 141.576 103.297C141.576 99.9117 142.962 93.2946 144.964 87.447C145.888 84.5232 147.12 81.7533 148.352 79.5989C149.584 77.4446 150.816 75.9057 152.047 75.598C152.509 75.4441 152.971 75.4441 153.587 75.4441C156.667 75.4441 160.671 77.7523 163.905 80.6761C165.599 82.0611 166.984 83.7538 167.908 85.1388C168.986 86.6776 169.602 87.9087 169.602 88.9859C169.602 89.6014 169.294 90.217 168.678 90.9864C166.522 93.7563 160.979 97.4495 155.435 100.373C152.663 101.912 149.892 103.143 147.736 104.067C145.426 104.99 143.578 105.605 142.654 105.605C142.346 105.605 142.038 105.605 141.884 105.605Z" fill="#F7620A"/>
<path d="M114.474 108.99C112.01 108.99 110.162 108.682 109.239 107.759C105.851 104.374 109.239 92.8322 112.318 91.2934C112.626 91.1395 112.78 91.1395 113.242 91.1395C118.17 91.1395 133.415 102.527 132.953 104.374C132.491 106.066 121.404 108.99 114.474 108.99ZM112.626 89.4468C112.164 89.4468 111.856 89.4468 111.548 89.6007C110.162 90.2162 108.623 92.6783 107.545 95.6021C106.467 98.5259 105.697 102.065 105.697 105.143C105.697 107.759 106.159 109.913 107.545 111.144C108.623 112.222 111.086 112.683 114.32 112.683C118.324 112.683 123.559 111.914 128.025 110.837C132.491 109.759 136.341 108.528 138.034 107.451C138.496 107.143 138.804 106.836 138.804 106.682C138.804 106.528 138.65 106.066 138.342 105.758C138.034 105.297 137.573 104.835 136.957 104.22C135.725 102.989 134.185 101.604 132.183 100.065C128.333 97.141 123.56 93.7555 119.402 91.755C116.63 90.3701 114.166 89.4468 112.626 89.4468Z" fill="url(#paint30_radial_7002_12325)"/>
<path d="M138.959 106.99H139.113V106.836C139.113 106.682 138.959 106.374 138.805 106.066C138.189 104.989 136.649 103.45 134.647 101.758C131.568 99.1416 127.256 95.9101 123.098 93.4479C121.096 92.2168 119.094 91.1397 117.247 90.3702C115.399 89.6008 113.859 89.1392 112.781 89.1392C112.319 89.1392 111.857 89.1392 111.549 89.4469C110.009 90.2164 108.469 92.6785 107.391 95.6023C106.313 98.5261 105.543 102.219 105.543 105.297C105.543 107.913 106.005 110.221 107.391 111.606C108.623 112.837 111.241 113.299 114.475 113.299C119.248 113.299 125.254 112.376 130.028 110.991C132.492 110.375 134.647 109.606 136.341 108.99C137.111 108.682 137.727 108.375 138.343 107.913C138.805 107.605 139.113 107.297 139.267 106.836L138.959 106.99H138.805C138.805 107.144 138.497 107.451 138.035 107.759C136.495 108.836 132.491 110.221 128.026 111.145C123.56 112.222 118.478 112.991 114.321 112.991C111.087 112.991 108.469 112.53 107.391 111.452C106.159 110.221 105.543 107.913 105.543 105.451C105.543 102.373 106.313 98.8339 107.391 95.9101C108.469 92.9863 110.009 90.5241 111.395 89.9086C111.703 89.7547 112.011 89.7547 112.473 89.7547C114.013 89.7547 116.477 90.678 119.248 92.063C123.406 94.2173 128.18 97.4489 132.03 100.373C133.877 101.912 135.571 103.296 136.803 104.528C137.419 105.143 137.881 105.605 138.189 106.066C138.497 106.528 138.651 106.836 138.651 106.99H138.959Z" fill="#F7620A"/>
<path d="M134.493 111.914C131.105 111.914 114.32 120.532 114.32 124.225C114.32 127.302 121.558 134.535 126.177 134.535C126.639 134.535 126.947 134.535 127.255 134.381C131.721 132.996 136.649 113.607 134.955 112.068C134.955 112.068 134.801 111.914 134.493 111.914Z" fill="url(#paint31_radial_7002_12325)"/>
<path d="M113.089 91.1396C112.781 91.1396 112.473 91.1396 112.165 91.2935C109.085 92.8324 105.697 104.374 109.085 107.759C110.009 108.682 111.857 108.99 114.321 108.99C121.404 108.99 132.337 106.066 132.799 104.374C133.261 102.527 118.016 91.1396 113.089 91.1396Z" fill="url(#paint32_radial_7002_12325)"/>
<path d="M136.187 73.1353C131.413 73.1353 123.56 76.0591 122.482 79.9062C121.25 84.6766 135.417 99.1417 138.189 99.1417H138.343C140.345 98.3723 142.347 75.9052 138.805 73.7508C138.343 73.2891 137.419 73.1353 136.187 73.1353Z" fill="url(#paint33_radial_7002_12325)"/>
<path d="M155.436 78.5215C154.974 78.5215 154.666 78.5215 154.204 78.6754C149.584 80.2142 144.657 100.219 146.505 101.758C146.659 101.912 146.813 101.912 146.967 101.912C150.508 101.912 167.755 92.8327 167.755 88.9856C167.755 85.9079 160.21 78.5215 155.436 78.5215Z" fill="url(#paint34_radial_7002_12325)"/>
<path d="M166.523 104.681C159.285 104.681 148.352 107.451 147.89 109.144C147.428 111.144 162.981 122.839 167.909 122.839C168.216 122.839 168.524 122.839 168.832 122.686C172.066 121.147 175.608 109.452 172.22 105.912C171.296 105.143 169.14 104.681 166.523 104.681Z" fill="url(#paint35_radial_7002_12325)"/>
<path d="M142.654 114.838H142.5C140.498 115.453 138.496 136.997 141.884 139.152C142.5 139.459 143.424 139.767 144.656 139.767C149.122 139.767 156.667 137.151 157.745 133.458C158.669 128.995 145.272 114.838 142.654 114.838Z" fill="url(#paint36_radial_7002_12325)"/>
<path d="M148.044 66.98C145.888 66.98 146.966 68.8266 150.046 69.4421C158.515 71.1349 174.838 82.9839 177.918 95.2947C186.695 131.15 154.974 142.383 152.356 143.153C150.2 143.768 148.66 145.769 150.662 145.769C151.124 145.769 151.74 145.615 152.356 145.461C172.374 140.229 186.849 115.453 179.612 94.3714C172.374 73.2892 153.28 68.0572 149.738 67.1339C149.122 66.98 148.506 66.98 148.044 66.98Z" fill="url(#paint37_radial_7002_12325)"/>
<defs>
<radialGradient id="paint0_radial_7002_12325" cx="0" cy="0" r="1" gradientUnits="userSpaceOnUse" gradientTransform="translate(73.9773 98.84) scale(54.446 54.409)">
<stop stop-color="#FECB71"/>
<stop offset="1" stop-color="#FF9507"/>
</radialGradient>
<radialGradient id="paint1_radial_7002_12325" cx="0" cy="0" r="1" gradientUnits="userSpaceOnUse" gradientTransform="translate(73.6932 99.2584) scale(54.5012 54.4641)">
<stop stop-color="#FED387"/>
<stop offset="0.4419" stop-color="#FEC14D"/>
<stop offset="1" stop-color="#FEA909"/>
</radialGradient>
<radialGradient id="paint2_radial_7002_12325" cx="0" cy="0" r="1" gradientUnits="userSpaceOnUse" gradientTransform="translate(73.68 99.3331) scale(54.3183 54.2814)">
<stop stop-color="#FEBB09"/>
<stop offset="1" stop-color="#FF8600"/>
</radialGradient>
<radialGradient id="paint3_radial_7002_12325" cx="0" cy="0" r="1" gradientTransform="matrix(0.915999 0.188873 -0.0869007 -0.99236 35.1119 74.1245)" gradientUnits="userSpaceOnUse">
<stop stop-color="#FE981F"/>
<stop offset="1" stop-color="#FE6000"/>
</radialGradient>
<radialGradient id="paint4_radial_7002_12325" cx="0" cy="0" r="1" gradientTransform="matrix(1.03345 0.205689 -0.0764946 -1.19997 28.572 101.663)" gradientUnits="userSpaceOnUse">
<stop stop-color="#FE981F"/>
<stop offset="1" stop-color="#FE6000"/>
</radialGradient>
<radialGradient id="paint5_radial_7002_12325" cx="0" cy="0" r="1" gradientTransform="matrix(0.782037 0.164793 -0.0911714 -0.879874 37.2904 101.131)" gradientUnits="userSpaceOnUse">
<stop stop-color="#FE981F"/>
<stop offset="1" stop-color="#FE6000"/>
</radialGradient>
<radialGradient id="paint6_radial_7002_12325" cx="0" cy="0" r="1" gradientTransform="matrix(0.883088 0.170312 -0.0715597 -0.900445 34.4558 114.072)" gradientUnits="userSpaceOnUse">
<stop stop-color="#FE981F"/>
<stop offset="1" stop-color="#FE6000"/>
</radialGradient>
<radialGradient id="paint7_radial_7002_12325" cx="0" cy="0" r="1" gradientTransform="matrix(1.18193 0.199789 -0.181091 -1.37504 44.3326 118.968)" gradientUnits="userSpaceOnUse">
<stop stop-color="#FE981F"/>
<stop offset="1" stop-color="#FE6000"/>
</radialGradient>
<radialGradient id="paint8_radial_7002_12325" cx="0" cy="0" r="1" gradientTransform="matrix(1.09922 0.215309 -0.0964107 -1.08483 52.641 117.602)" gradientUnits="userSpaceOnUse">
<stop stop-color="#FE981F"/>
<stop offset="1" stop-color="#FE6000"/>
</radialGradient>
<radialGradient id="paint9_radial_7002_12325" cx="0" cy="0" r="1" gradientTransform="matrix(1.27974 0.18452 -0.157701 -1.41453 48.7857 129.9)" gradientUnits="userSpaceOnUse">
<stop stop-color="#FE981F"/>
<stop offset="1" stop-color="#FE6000"/>
</radialGradient>
<radialGradient id="paint10_radial_7002_12325" cx="0" cy="0" r="1" gradientTransform="matrix(1.40488 0.222488 -0.215737 -1.46566 36.6396 125.575)" gradientUnits="userSpaceOnUse">
<stop stop-color="#FE981F"/>
<stop offset="1" stop-color="#FE6000"/>
</radialGradient>
<radialGradient id="paint11_radial_7002_12325" cx="0" cy="0" r="1" gradientTransform="matrix(0.995148 0.144977 -0.120896 -1.05005 58.2733 124.002)" gradientUnits="userSpaceOnUse">
<stop stop-color="#FE981F"/>
<stop offset="1" stop-color="#FE6000"/>
</radialGradient>
<radialGradient id="paint12_radial_7002_12325" cx="0" cy="0" r="1" gradientTransform="matrix(1.19285 0.183602 -0.173885 -1.28263 58.2748 133.807)" gradientUnits="userSpaceOnUse">
<stop stop-color="#FE981F"/>
<stop offset="1" stop-color="#FE6000"/>
</radialGradient>
<radialGradient id="paint13_radial_7002_12325" cx="0" cy="0" r="1" gradientTransform="matrix(1.03874 0.150884 -0.11899 -1.0415 69.2475 125.13)" gradientUnits="userSpaceOnUse">
<stop stop-color="#FE981F"/>
<stop offset="1" stop-color="#FE6000"/>
</radialGradient>
<radialGradient id="paint14_radial_7002_12325" cx="0" cy="0" r="1" gradientTransform="matrix(1.06125 0.170884 -0.18413 -1.19239 78.394 127.411)" gradientUnits="userSpaceOnUse">
<stop stop-color="#FE981F"/>
<stop offset="1" stop-color="#FE6000"/>
</radialGradient>
<radialGradient id="paint15_radial_7002_12325" cx="0" cy="0" r="1" gradientTransform="matrix(1.09914 0.166167 -0.149514 -1.1611 79.5936 139.222)" gradientUnits="userSpaceOnUse">
<stop stop-color="#FE981F"/>
<stop offset="1" stop-color="#FE6000"/>
</radialGradient>
<radialGradient id="paint16_radial_7002_12325" cx="0" cy="0" r="1" gradientTransform="matrix(1.3524 0.140808 -0.205485 -1.42516 66.0781 140.523)" gradientUnits="userSpaceOnUse">
<stop stop-color="#FE981F"/>
<stop offset="1" stop-color="#FE6000"/>
</radialGradient>
<radialGradient id="paint17_radial_7002_12325" cx="0" cy="0" r="1" gradientUnits="userSpaceOnUse" gradientTransform="translate(74.4735 98.2108) scale(54.4237 54.3867)">
<stop stop-color="#FA7900"/>
<stop offset="1" stop-color="#F95900"/>
</radialGradient>
<radialGradient id="paint18_radial_7002_12325" cx="0" cy="0" r="1" gradientUnits="userSpaceOnUse" gradientTransform="translate(74.0525 98.8686) scale(54.648 54.6108)">
<stop stop-color="#FFF3DA"/>
<stop offset="1" stop-color="#FDE5AE"/>
</radialGradient>
<radialGradient id="paint19_radial_7002_12325" cx="0" cy="0" r="1" gradientUnits="userSpaceOnUse" gradientTransform="translate(74.6066 98.3665) scale(54.7427 54.7054)">
<stop stop-color="#FFF5E0"/>
<stop offset="0.4892" stop-color="#FEF0C9"/>
<stop offset="1" stop-color="#FDEAAD"/>
</radialGradient>
<radialGradient id="paint20_radial_7002_12325" cx="0" cy="0" r="1" gradientTransform="matrix(1.05827 0.188029 -0.148071 -1.15148 32.9014 87.6693)" gradientUnits="userSpaceOnUse">
<stop stop-color="#FDE4BB"/>
<stop offset="1" stop-color="#FCD4B2"/>
</radialGradient>
<radialGradient id="paint21_radial_7002_12325" cx="0" cy="0" r="1" gradientUnits="userSpaceOnUse" gradientTransform="translate(74.3592 98.368) scale(54.4622 54.4251)">
<stop stop-color="#FFF5E0"/>
<stop offset="0.4892" stop-color="#FEF0C9"/>
<stop offset="1" stop-color="#FDEAAD"/>
</radialGradient>
<radialGradient id="paint22_radial_7002_12325" cx="0" cy="0" r="1" gradientTransform="matrix(0.917812 0.189199 -0.0870652 -0.994332 35.1095 74.1068)" gradientUnits="userSpaceOnUse">
<stop stop-color="#FDE4BB"/>
<stop offset="1" stop-color="#FCD4B2"/>
</radialGradient>
<radialGradient id="paint23_radial_7002_12325" cx="0" cy="0" r="1" gradientUnits="userSpaceOnUse" gradientTransform="translate(140.361 107.111) scale(41.9257 41.8972)">
<stop stop-color="#FECB71"/>
<stop offset="1" stop-color="#FF9507"/>
</radialGradient>
<radialGradient id="paint24_radial_7002_12325" cx="0" cy="0" r="1" gradientUnits="userSpaceOnUse" gradientTransform="translate(141.913 106.266) scale(35.976 35.9515)">
<stop stop-color="#FD9623"/>
<stop offset="1" stop-color="#FF6C04"/>
</radialGradient>
<radialGradient id="paint25_radial_7002_12325" cx="0" cy="0" r="1" gradientUnits="userSpaceOnUse" gradientTransform="translate(150.232 125.584) scale(14.3828 14.373)">
<stop stop-color="#FDD555"/>
<stop offset="1" stop-color="#FF7E07"/>
</radialGradient>
<radialGradient id="paint26_radial_7002_12325" cx="0" cy="0" r="1" gradientUnits="userSpaceOnUse" gradientTransform="translate(125.906 123.228) scale(14.7405 14.7305)">
<stop stop-color="#FDD555"/>
<stop offset="1" stop-color="#FF7E07"/>
</radialGradient>
<radialGradient id="paint27_radial_7002_12325" cx="0" cy="0" r="1" gradientUnits="userSpaceOnUse" gradientTransform="translate(159.527 113.076) scale(14.5105 14.5006)">
<stop stop-color="#FDD555"/>
<stop offset="1" stop-color="#FF7E07"/>
</radialGradient>
<radialGradient id="paint28_radial_7002_12325" cx="0" cy="0" r="1" gradientUnits="userSpaceOnUse" gradientTransform="translate(131.053 88.332) scale(14.3773 14.3675)">
<stop stop-color="#FDD555"/>
<stop offset="1" stop-color="#FF7E07"/>
</radialGradient>
<radialGradient id="paint29_radial_7002_12325" cx="0" cy="0" r="1" gradientUnits="userSpaceOnUse" gradientTransform="translate(155.163 90.3969) scale(14.7316 14.7216)">
<stop stop-color="#FDD555"/>
<stop offset="1" stop-color="#FF7E07"/>
</radialGradient>
<radialGradient id="paint30_radial_7002_12325" cx="0" cy="0" r="1" gradientUnits="userSpaceOnUse" gradientTransform="translate(122.011 101.431) scale(14.4901 14.4803)">
<stop stop-color="#FDD555"/>
<stop offset="1" stop-color="#FF7E07"/>
</radialGradient>
<radialGradient id="paint31_radial_7002_12325" cx="0" cy="0" r="1" gradientUnits="userSpaceOnUse" gradientTransform="translate(125.916 123.222) scale(14.7461 14.7361)">
<stop stop-color="#FDDC69"/>
<stop offset="0.7669" stop-color="#FDA51C"/>
<stop offset="1" stop-color="#FE930A"/>
</radialGradient>
<radialGradient id="paint32_radial_7002_12325" cx="0" cy="0" r="1" gradientUnits="userSpaceOnUse" gradientTransform="translate(122.035 101.416) scale(14.4952 14.4854)">
<stop stop-color="#FDDC69"/>
<stop offset="0.7669" stop-color="#FDA51C"/>
<stop offset="1" stop-color="#FE930A"/>
</radialGradient>
<radialGradient id="paint33_radial_7002_12325" cx="0" cy="0" r="1" gradientUnits="userSpaceOnUse" gradientTransform="translate(131.027 88.385) scale(14.3492 14.3394)">
<stop stop-color="#FDDC69"/>
<stop offset="0.7669" stop-color="#FDA51C"/>
<stop offset="1" stop-color="#FE930A"/>
</radialGradient>
<radialGradient id="paint34_radial_7002_12325" cx="0" cy="0" r="1" gradientUnits="userSpaceOnUse" gradientTransform="translate(155.497 90.6163) scale(14.744 14.7339)">
<stop stop-color="#FDDC69"/>
<stop offset="0.7669" stop-color="#FDA51C"/>
<stop offset="1" stop-color="#FE930A"/>
</radialGradient>
<radialGradient id="paint35_radial_7002_12325" cx="0" cy="0" r="1" gradientUnits="userSpaceOnUse" gradientTransform="translate(159.356 112.886) scale(14.4789 14.469)">
<stop stop-color="#FDDC69"/>
<stop offset="0.7669" stop-color="#FDA51C"/>
<stop offset="1" stop-color="#FE930A"/>
</radialGradient>
<radialGradient id="paint36_radial_7002_12325" cx="0" cy="0" r="1" gradientUnits="userSpaceOnUse" gradientTransform="translate(150.248 125.513) scale(14.3388 14.329)">
<stop stop-color="#FDDC69"/>
<stop offset="0.7669" stop-color="#FDA51C"/>
<stop offset="1" stop-color="#FE930A"/>
</radialGradient>
<radialGradient id="paint37_radial_7002_12325" cx="0" cy="0" r="1" gradientUnits="userSpaceOnUse" gradientTransform="translate(140.599 106.827) scale(41.9971 41.9685)">
<stop stop-color="#FED996"/>
<stop offset="0.2772" stop-color="#FDD071"/>
<stop offset="0.8943" stop-color="#FCB918"/>
<stop offset="1" stop-color="#FCB40D"/>
</radialGradient>
</defs>
</svg>
