<svg width="200" height="200" viewBox="0 0 200 200" fill="none" xmlns="http://www.w3.org/2000/svg">
<path d="M152.522 40.8307C152.841 40.5181 154.116 39.5803 154.595 39.8929C154.914 40.0492 154.914 39.7366 155.073 39.424C155.233 39.1114 155.233 38.7988 155.392 38.7988C155.711 38.9551 156.827 38.3299 156.987 37.7048C157.146 37.0796 161.93 32.7034 163.206 33.016C164.482 33.3285 167.671 34.4226 166.874 36.1418C165.917 37.7048 161.93 39.5803 160.654 40.518C159.379 41.4558 159.538 42.5499 158.9 42.3936C158.581 42.2373 158.262 42.8625 157.784 43.3314C157.306 43.8002 156.668 44.4254 156.03 44.1128C154.595 43.4877 151.086 42.2373 152.522 40.8307Z" fill="#8F4C06"/>
<path d="M166.236 35.9858C165.917 36.611 164.641 36.4547 163.525 35.8295C162.409 35.2043 161.771 34.2666 162.249 33.6414C162.568 33.0162 163.844 33.1725 164.96 33.7977C166.076 34.5792 166.714 35.5169 166.236 35.9858Z" fill="#A07309"/>
<path d="M158.741 42.2369C158.582 42.2369 158.263 42.5495 157.944 42.8621C158.263 42.5495 158.422 42.2369 158.741 42.2369ZM155.073 39.2674C155.073 39.58 154.914 39.7362 154.754 39.7362C154.914 39.8925 154.914 39.58 155.073 39.2674ZM157.784 36.6104C157.306 37.0792 156.828 37.5481 156.828 37.7044C156.828 38.017 156.509 38.3296 156.03 38.4859C156.349 38.3296 156.668 38.017 156.828 37.7044C156.987 37.5481 157.306 37.0792 157.784 36.6104Z" fill="#E1D69A"/>
<path d="M161.771 33.3289C160.495 34.1103 158.9 35.517 157.784 36.4547C157.305 36.9236 156.827 37.3925 156.827 37.5488C156.827 37.8614 156.508 38.174 156.03 38.3303C155.87 38.4866 155.711 38.4866 155.551 38.4866H155.392H155.232C155.073 38.4866 155.073 38.7992 154.913 39.1117C154.913 39.4243 154.754 39.5806 154.594 39.5806H154.435H154.276C153.797 39.5806 153 40.0495 152.521 40.3621C152.202 40.5184 152.202 40.831 152.202 40.9873C152.202 42.0814 154.913 43.0191 156.03 43.488H156.349C156.827 43.488 157.305 43.0191 157.624 42.7065L157.784 42.5502C158.103 42.2376 158.262 41.925 158.581 41.925H158.741C159.06 41.925 159.219 41.4562 159.538 40.831C159.697 40.6747 159.857 40.5184 160.016 40.3621C160.654 39.8932 161.93 39.1118 163.206 38.4866C162.727 38.6429 162.249 38.7992 161.771 38.9554C160.176 39.5806 158.9 39.7369 158.103 40.3621C157.784 40.6747 157.624 40.6747 157.305 40.6747H157.146H156.986C156.668 40.6747 156.508 40.6747 156.508 41.1436C156.508 41.4561 156.349 41.6125 156.189 41.6125C155.711 41.6125 154.913 40.9873 154.913 40.5184C154.913 39.7369 158.103 38.9555 157.943 37.8614C157.784 36.7674 159.379 36.6111 159.538 35.3607C160.495 34.2666 160.814 34.4229 161.771 33.3289Z" fill="#7A3A05"/>
<path d="M156.827 43.3312C158.422 45.9882 159.538 48.8014 159.698 50.8333C159.698 50.8333 166.076 56.9287 160.336 69.1197C154.595 81.3106 143.91 93.1889 138.489 105.067C133.067 116.946 124.296 140.859 106.595 153.831C88.894 166.803 67.5253 168.366 55.7247 166.178C55.7247 166.178 48.0702 167.116 42.3294 165.397C36.5885 163.677 37.7048 154.143 36.1101 151.33C34.5154 148.517 26.7015 117.414 44.243 96.4711C61.7845 75.5277 71.9904 78.0284 92.2428 62.2427C112.495 46.457 134.98 30.0462 148.694 38.486C148.854 38.486 154.914 40.2053 156.827 43.3312Z" fill="#518D1E"/>
<path d="M156.827 43.3314C158.262 45.9884 159.379 48.8017 159.697 50.8335C160.016 51.1461 162.568 53.9594 162.568 59.4297C162.568 62.0867 161.93 65.2126 160.176 68.9636C154.435 81.1545 143.751 93.0329 138.329 104.911C132.907 116.79 124.136 140.702 106.435 153.675C93.0399 163.521 77.412 166.804 65.452 166.804C61.7842 166.804 58.4354 166.491 55.7244 166.022C55.7244 166.022 55.5649 166.022 55.4055 166.022C54.7676 166.022 53.0135 166.178 50.9404 166.178C48.3889 166.178 45.1995 166.022 42.4886 165.241C41.0534 164.772 40.0966 163.99 39.4587 162.74C38.3424 161.021 37.864 158.676 37.5451 156.488C37.2261 154.3 37.0667 152.268 36.4288 151.174C36.2693 150.862 35.9504 150.08 35.6315 148.83C34.6747 145.391 33.3989 138.671 33.3989 130.7C33.3989 119.915 35.7909 106.787 44.5617 96.315C53.3324 85.8433 60.1895 81.3108 67.525 77.2472C74.8606 73.3398 82.515 69.9014 92.5615 62.0867C100.854 55.6786 109.306 49.1143 117.598 44.2692C125.89 39.424 133.704 35.9856 140.402 35.9856C143.432 35.9856 146.302 36.6108 148.854 38.33C148.854 38.33 149.013 38.33 149.173 38.4863C149.81 38.6426 151.246 39.2678 152.84 40.0492C154.276 40.987 155.87 42.0811 156.827 43.3314C156.03 41.6122 153.957 40.3618 152.202 39.5803C150.448 38.7989 149.013 38.33 148.854 38.33V38.4863L149.013 38.33C146.462 36.7671 143.432 35.9856 140.402 35.9856C133.545 35.9856 125.731 39.2677 117.438 44.2692C109.146 49.2706 100.535 55.6786 92.402 62.0867C82.3556 69.9014 74.7011 73.3398 67.3656 77.2472C60.03 81.3108 53.0135 85.8433 44.4022 96.315C35.6315 106.943 33.2394 120.072 33.2394 130.856C33.2394 136.17 33.8773 140.859 34.5152 144.454C34.8341 146.329 35.1531 147.736 35.472 148.986C35.7909 150.08 36.1099 150.862 36.2693 151.33C36.5883 151.956 36.9072 153.206 37.0667 154.456C37.3856 156.488 37.7045 158.833 38.3424 161.021C39.1398 163.053 40.256 164.928 42.4886 165.553C45.1995 166.335 48.3889 166.491 50.9404 166.491C53.8108 166.491 55.8839 166.178 55.8839 166.178C58.7543 166.647 62.1031 166.96 65.7709 166.96C77.731 166.96 93.3588 163.678 106.914 153.831C124.615 140.859 133.385 116.79 138.807 104.911C144.229 93.1892 154.913 81.3108 160.654 68.9636C162.408 65.0563 163.046 61.9304 163.046 59.2734C163.046 53.4905 160.016 50.5209 160.016 50.5209L159.857 50.6772H160.016C159.697 48.8017 158.581 45.9884 156.827 43.3314Z" fill="#3F6E1A"/>
<path d="M116.482 54.4283C116.482 54.4283 134.343 39.4241 148.854 38.4863C148.854 38.4863 135.299 40.5181 116.482 54.4283Z" fill="#32721F"/>
<path d="M139.605 79.4357C139.605 79.4357 160.017 57.8672 159.698 50.834C159.858 50.834 156.987 60.2116 139.605 79.4357Z" fill="#32721F"/>
<path d="M43.4454 137.889C43.4454 137.889 52.6946 113.507 67.0467 99.9094C66.8872 99.9094 51.4188 118.196 43.4454 137.889Z" fill="#32721F"/>
<path d="M107.233 63.4934C107.233 63.4934 94.4754 71.4644 79.007 88.813C79.007 88.813 97.3458 70.3703 107.233 63.4934Z" fill="#32721F"/>
<path d="M122.861 105.693C122.861 105.693 110.9 122.416 103.246 131.638C103.246 131.638 120.947 107.256 122.861 105.693Z" fill="#32721F"/>
<path d="M96.7083 141.641C96.7083 141.641 85.3861 152.737 78.6884 156.645C78.6884 156.645 95.2731 143.047 96.7083 141.641Z" fill="#32721F"/>
<path d="M63.379 163.209C63.379 163.209 71.1929 161.334 75.4985 158.677C75.4985 158.677 65.1331 162.74 63.379 163.209Z" fill="#32721F"/>
<path d="M62.2633 163.521C62.2633 163.521 57.0009 165.866 50.7816 166.491C50.9411 166.491 59.2334 164.772 62.2633 163.521Z" fill="#32721F"/>
<path d="M36.7479 152.737C36.7479 152.737 36.2695 149.767 38.502 146.954C38.502 146.798 37.0668 149.924 36.7479 152.737Z" fill="#32721F"/>
<path d="M136.416 45.3627C125.412 49.4263 99.1001 66.9312 71.0337 100.066C43.1269 133.044 37.8644 148.673 42.489 160.082C47.1136 171.492 79.4855 157.582 102.449 130.699C125.253 103.817 134.024 79.7473 145.505 68.8068C156.987 57.8662 164.96 34.7347 136.416 45.3627Z" fill="#67981B"/>
<path d="M45.5188 98.972C39.2995 107.256 35.4723 121.791 35.9507 131.325C36.4291 140.859 37.5454 142.891 45.3593 127.417C53.1733 111.944 70.3958 92.4077 88.4157 77.4034C106.436 62.3992 115.844 50.9898 128.761 44.2691C141.518 37.5485 132.907 37.8611 124.774 41.4559C116.482 45.0506 93.997 64.5873 81.718 70.9954C69.439 77.4034 54.6085 86.6248 45.5188 98.972Z" fill="#67981B"/>
<path d="M128.761 97.2524C125.413 104.442 107.552 133.825 87.9375 151.643C75.6585 162.74 68.0041 163.521 72.9476 163.99C77.8911 164.459 104.044 158.363 118.396 138.358C132.589 118.352 134.662 102.097 147.1 87.7185C159.539 73.4957 161.133 61.3048 160.495 58.1789C159.858 55.0531 156.03 61.4611 150.13 69.901C144.389 78.4971 134.183 85.3741 128.761 97.2524Z" fill="#67981B"/>
<path d="M97.9833 84.2799C87.7773 93.5012 53.3323 116.164 50.4619 149.454C50.1429 153.049 51.2592 158.051 55.4054 158.051C60.0299 158.207 65.6113 154.612 69.7575 151.955C76.1362 147.892 81.7176 142.89 87.2989 137.732C92.083 133.2 97.1859 128.824 101.332 123.822C111.857 111.006 116.163 94.9079 127.006 82.0918C130.036 78.3407 133.545 75.0586 137.372 71.9327C155.232 57.2411 144.07 40.3613 126.209 58.0226C108.987 75.0586 105.478 77.403 97.9833 84.2799Z" fill="#72A11A"/>
<path d="M78.3691 82.4054C74.3824 85.8439 56.522 101.63 46.316 118.978C36.2695 136.327 41.3725 115.383 45.0403 105.224C48.708 94.9089 64.3359 83.1869 81.8773 74.5907C99.4188 65.9946 88.575 73.653 78.3691 82.4054Z" fill="#72A11A"/>
<path d="M106.914 135.701C101.332 143.516 95.9102 150.705 89.691 153.987C83.4717 157.27 91.1262 157.582 104.681 148.048C118.236 138.358 122.701 127.105 127.166 113.82C131.79 100.535 129.558 101.316 125.412 108.975C121.425 116.633 111.06 129.918 106.914 135.701Z" fill="#72A11A"/>
<path d="M60.5083 144.141C60.9867 147.892 87.7773 130.074 96.7075 114.132C105.797 98.1904 114.09 87.0935 112.335 83.0299C110.581 78.9662 87.9368 100.691 77.7309 110.381C67.5249 120.228 59.711 136.482 60.5083 144.141Z" fill="#7DA418"/>
</svg>
