<svg width="200" height="200" viewBox="0 0 200 200" fill="none" xmlns="http://www.w3.org/2000/svg">
<path d="M121.689 87.4853C120.177 87.4853 118.665 88.0475 117.342 88.6096C117.342 88.6096 117.342 88.6096 117.153 88.6096C118.665 87.2979 120.177 86.1736 121.878 85.2367C124.146 83.7376 128.682 81.3015 129.06 78.3033C129.06 78.1159 129.06 77.9285 128.871 77.7412C127.926 76.9916 126.414 77.7412 125.469 78.3033C124.902 78.4907 124.335 78.8655 123.768 79.2403C124.902 77.9285 126.036 76.6168 126.981 75.3051C127.737 74.1808 129.249 71.9321 128.682 70.433C127.926 68.3718 125.469 69.3087 123.39 70.8078C124.146 69.6835 124.902 68.3718 125.469 67.0601C125.847 66.1231 126.225 64.9988 124.713 64.9988C122.823 65.1862 120.366 67.4348 119.043 68.5592C118.665 68.9339 118.287 69.1213 118.098 69.4961C118.665 67.0601 119.61 63.1249 117.72 62.7501C116.586 62.5627 115.83 63.8745 115.452 64.8114C115.074 65.9357 114.507 67.0601 114.129 68.1844C114.318 67.8096 113.562 66.8727 113.184 66.8727C112.428 66.8727 112.239 67.6222 112.05 68.1844C108.648 73.6186 106.38 79.8024 104.868 85.9862C104.868 86.1736 104.301 86.1736 104.49 85.9862C104.868 81.6763 109.782 61.6258 109.593 56.0042C109.404 55.442 109.215 55.0672 108.837 54.8798C108.648 54.6925 108.081 54.8798 107.892 55.0672C107.514 55.442 107.136 56.0042 106.947 56.3789C106.947 54.5051 106.758 52.6312 106.569 50.5699C106.38 48.3213 106.191 44.9483 104.679 43.2618C104.49 43.0744 104.301 43.0744 104.112 43.2618C103.356 43.6366 102.978 44.1987 102.6 44.9483C102.033 42.5122 101.844 40.451 101.655 38.3897C101.466 36.8906 100.71 31.6437 97.875 33.3302C95.796 34.642 94.851 37.078 94.0949 39.514C93.9059 38.0149 93.5279 36.7032 93.5279 35.2041C93.5279 34.0798 92.3939 33.5176 91.6379 34.642C90.5039 36.3284 90.5039 38.7645 90.3149 40.6384C90.1259 41.9501 90.1259 43.4492 90.3149 44.7609C89.7479 43.4492 88.8029 42.5122 87.2908 42.5122C84.4558 42.6996 86.3458 50.0078 86.5348 51.3195C86.7238 52.069 86.7238 53.1934 87.1018 53.9429C86.9128 53.3807 85.0228 52.6312 84.4558 52.4438C83.5108 51.8816 82.3768 52.069 81.6208 52.8186C80.4867 53.7555 80.4868 54.5051 81.2428 55.8168C81.8098 57.1285 82.9438 58.2528 83.8888 59.5645C83.1328 59.1898 82.3768 59.3772 81.6208 59.5645C81.2428 59.7519 81.0538 59.9393 81.0538 60.3141C81.0538 61.6258 82.5658 62.7501 83.5108 63.6871C84.0778 64.4366 84.6448 65.1862 85.4008 65.9357C85.5898 66.1231 86.1568 66.6853 86.5348 67.0601C85.2118 66.6853 83.3218 65.9357 82.9438 67.4348C82.7548 68.3718 84.0778 68.9339 84.6448 69.4961C86.1568 70.6204 94.2839 82.8006 94.4729 83.3628C94.6619 84.1123 97.119 90.6709 97.308 91.4205C95.229 89.1718 90.3149 81.4889 87.8579 79.4277C86.5348 78.3033 84.6448 75.6799 82.7548 75.6799C82.1878 75.6799 81.4318 76.0547 81.8098 76.6168C82.3768 78.1159 83.6998 79.615 84.6448 80.9268C84.8338 81.1141 85.0228 81.4889 85.0228 81.6763C84.0778 80.552 83.1328 79.615 82.1878 78.6781C80.6758 77.179 79.1637 75.8673 77.6517 74.3682C76.8957 73.6186 75.7617 72.4943 74.4387 72.6817C74.0607 72.6817 73.4937 73.0565 73.4937 73.6186C73.6827 74.5556 74.0607 75.3051 74.6277 76.2421C73.4937 75.3051 72.3596 74.5556 71.0366 73.806C69.3356 72.8691 66.5006 70.0583 64.4215 71.37C64.2325 71.5574 64.0435 71.7448 64.0435 71.9321C64.2325 72.8691 64.9885 74.1808 65.7446 74.9303C66.5006 75.6799 67.0676 76.6168 67.8236 77.3664C67.4456 77.179 66.8786 76.8042 66.5006 76.8042C65.3665 76.4294 64.0435 76.2421 62.9095 76.0547C61.7755 75.8673 59.1295 75.6799 58.5625 77.179C57.2394 79.9898 62.1535 82.0511 64.9885 83.7376C63.0985 83.925 61.0195 84.4871 62.3425 85.9862C62.7205 86.361 63.0985 86.361 63.6655 86.361C65.1775 86.5484 66.5006 87.2979 68.0126 87.6727C69.3356 88.0475 70.4696 88.2349 71.6036 88.797C72.1706 89.1718 73.1156 89.3592 73.8717 89.734C71.7926 89.734 69.1466 89.9214 69.5246 91.6079C69.7136 92.7322 71.4146 92.9196 72.1706 93.107C94.0949 97.979 103.167 116.156 104.49 112.783C107.514 104.912 111.294 97.979 117.909 92.5448C119.232 91.4205 121.689 90.2961 122.256 88.6096C122.445 88.0475 122.256 87.4853 121.689 87.4853Z" fill="#6CB533"/>
<path opacity="0.4" d="M87.1018 93.4812C86.7238 92.5443 86.1568 91.0452 85.2118 90.483C83.8888 89.9209 82.7548 91.9821 82.1878 92.9191C82.1878 93.1065 81.8098 93.1065 81.8098 92.9191C80.6758 91.0452 79.5417 92.5443 78.7857 93.856C78.5967 94.2308 78.4077 94.4182 78.4077 94.793C82.1878 96.2921 85.5898 97.9785 88.4249 99.8524C88.4249 97.7912 87.8578 95.5425 87.1018 93.4812Z" fill="#6CB533"/>
<path opacity="0.4" d="M92.5829 100.79C92.3939 99.4785 91.4489 97.2298 89.7479 98.9163C89.3699 99.2911 88.9919 99.8532 88.8029 100.415C90.1259 101.352 91.4489 102.289 92.5829 103.226C92.7719 102.477 92.7719 101.727 92.5829 100.79Z" fill="#6CB533"/>
<path opacity="0.4" d="M98.4421 106.036C98.253 104.725 97.686 101.727 95.796 101.727C94.662 101.727 93.906 102.476 93.339 103.6V103.788C95.418 105.474 97.119 107.161 98.6311 108.66C98.6311 107.723 98.6311 106.786 98.4421 106.036Z" fill="#6CB533"/>
<path d="M121.689 87.4851C120.744 87.4851 119.61 87.6725 118.665 88.0473C118.854 89.1716 119.043 90.2959 119.043 91.4202C120.366 90.4833 121.689 89.7338 122.256 88.422C122.445 88.0473 122.256 87.4851 121.689 87.4851Z" fill="#6CB533"/>
<path opacity="0.4" d="M118.287 88.2344C117.909 88.4218 117.72 88.4218 117.342 88.6092C117.342 88.6092 117.342 88.6092 117.153 88.6092C117.531 88.4218 117.72 88.0471 118.098 87.8597C117.531 86.548 116.208 84.2993 114.696 86.1732C113.751 87.4849 113.373 89.1714 113.184 90.6705C112.995 91.9822 112.806 93.2939 112.995 94.4182C112.995 94.6056 112.617 94.793 112.617 94.6056C112.239 93.1065 109.782 91.6074 109.026 93.6687C108.648 94.793 108.837 96.1047 109.026 97.4164C109.026 97.6038 108.648 97.7912 108.648 97.6038C108.081 96.8543 107.136 96.1047 106.758 97.2291C106.38 98.166 106.191 99.2903 106.002 100.227C105.813 101.914 105.624 103.788 105.813 105.662C105.813 105.849 105.435 106.036 105.435 105.849C105.246 105.662 105.246 105.474 105.057 105.474C104.112 106.598 104.301 108.66 104.49 110.159C104.679 110.721 104.679 111.096 104.868 111.658C107.892 104.162 111.672 97.7912 117.909 92.5444C118.098 92.357 118.476 92.1696 118.665 91.9822C118.665 90.6705 118.665 89.3588 118.287 88.2344Z" fill="#6CB533"/>
<path d="M162.703 107.161C163.648 105.849 162.136 105.475 161.002 105.1C158.356 104.725 152.497 106.786 152.686 106.786C154.009 105.662 155.521 104.538 156.277 103.038L156.088 102.851C154.009 103.226 151.741 104.35 150.229 105.849C150.04 106.037 148.906 106.599 149.095 106.411C149.284 106.224 149.662 105.849 149.851 105.662C150.418 104.912 150.985 104.35 151.552 103.601C152.119 102.851 153.253 101.539 153.442 100.415C153.442 99.4781 149.473 102.102 149.095 102.289C147.772 103.226 146.638 104.163 145.315 105.1C140.779 109.035 129.438 115.781 127.737 117.655C131.328 113.907 135.298 110.347 139.078 106.786C142.102 103.975 145.315 101.539 148.717 99.4781C150.229 98.5412 151.741 97.4168 153.442 96.4799C154.009 96.1051 154.576 95.7304 154.765 94.9808C154.954 94.606 154.954 94.4186 154.576 94.2313C153.82 93.4817 152.119 93.8565 150.796 94.0439C150.796 94.0439 150.796 94.0439 150.985 93.8565C152.686 92.5448 154.576 91.6078 156.277 90.4835C157.033 90.1087 157.411 89.7339 156.844 88.797C156.088 87.2979 154.576 87.2979 153.064 87.4853C154.387 85.9862 155.71 84.2997 156.844 82.8006C157.411 82.051 158.545 80.5519 158.356 79.4276C158.356 79.2402 158.167 79.2402 157.978 79.2402C157.222 79.0528 156.655 79.4276 155.899 79.615C156.655 78.4907 157.033 77.3663 156.466 77.179C154.198 76.6168 151.741 78.6781 149.851 80.5519C150.418 79.8024 150.796 79.0528 151.174 78.3033C151.741 77.3663 152.497 76.4294 152.497 75.1177C152.497 74.7429 152.119 74.7429 151.93 74.7429C150.607 74.7429 149.095 76.0546 148.15 76.8042C146.071 78.3033 143.992 79.9898 142.291 81.8637C140.59 83.5501 139.456 85.7988 138.322 87.8601C138.511 87.4853 138.7 86.9231 138.7 86.5484C139.267 85.0493 139.645 83.5501 140.023 82.051C140.401 80.9267 140.968 79.8024 141.157 78.6781C141.157 78.3033 140.968 78.1159 140.779 78.1159C139.456 77.9285 138.511 79.2402 137.755 80.1772C137.188 81.1141 136.621 82.051 136.243 82.988C136.054 83.1754 136.054 83.5501 135.865 83.7375C135.865 82.8006 135.676 82.2384 135.109 81.8637C134.92 81.8637 134.542 81.8637 134.353 82.051C133.219 83.1754 132.652 85.0493 132.273 86.5484C131.895 87.6727 131.517 88.9844 131.328 90.1087C131.328 89.3592 131.139 88.4222 130.572 88.2348C130.194 88.0475 129.816 88.4222 129.627 88.6096C128.682 90.4835 128.493 92.5448 128.115 94.606C127.548 97.6042 126.792 100.602 125.847 103.601C125.091 106.037 124.146 108.285 123.012 110.534C122.634 111.471 122.067 112.22 121.5 113.157C121.878 112.033 122.256 110.909 122.634 109.784C123.39 106.974 123.768 103.975 123.957 101.165C124.146 99.4781 124.524 97.0421 123.768 95.543C123.768 95.3556 123.39 95.3556 123.201 95.3556C122.256 95.3556 121.689 96.2925 121.311 97.2295C121.311 96.2925 121.122 95.543 121.122 94.606C121.122 93.8565 120.933 90.2961 119.988 89.9213C118.854 89.3592 118.287 90.6709 117.909 92.17C117.909 91.9826 117.909 91.7952 117.909 91.6078C117.72 90.4835 117.531 88.4222 116.397 87.6727C116.208 87.4853 115.83 87.6727 115.641 87.8601C114.318 88.9844 114.885 92.3574 114.885 93.8565C114.885 95.3556 114.696 96.8547 114.696 98.3538C113.751 96.2925 112.617 94.7934 111.483 95.7304C110.349 96.6673 111.105 99.4781 111.294 100.602C111.294 100.79 111.294 100.977 111.294 100.977C110.538 99.8529 109.593 98.3538 108.648 98.5412C106.569 99.1033 108.081 103.975 109.215 107.348C108.459 106.599 107.514 106.037 106.569 106.411C106.947 111.658 109.782 116.343 112.05 121.215C113.184 123.651 114.696 126.837 115.074 129.835C116.019 129.46 116.586 129.273 117.72 129.273C119.988 129.273 121.878 129.648 123.768 130.772C126.603 132.271 130.383 132.458 133.408 132.833C134.731 133.021 137.944 133.021 138.7 131.521C139.456 130.022 137.377 129.46 136.054 128.898C137.755 128.898 139.267 129.273 140.968 128.898C143.425 128.523 145.693 127.586 147.772 126.462C148.906 125.9 148.717 124.963 147.961 124.213C147.394 123.839 146.449 123.464 145.504 123.276C146.638 123.089 147.583 122.902 148.528 122.527C149.095 122.339 151.552 121.402 150.418 120.278C150.04 119.903 149.284 119.903 148.717 120.091C147.583 120.091 146.449 120.091 145.504 120.091C147.205 119.716 148.906 119.341 150.229 118.592C151.741 117.842 153.253 117.093 154.576 116.156C155.521 115.406 157.033 114.844 157.6 113.72C157.789 113.532 157.789 113.157 157.411 112.97C156.844 112.595 156.088 112.408 155.143 112.408C155.71 112.033 156.277 111.658 156.844 111.284C158.923 109.972 161.38 108.848 162.703 107.161Z" fill="#6CB533"/>
<path d="M68.7686 145.013C69.1466 145.388 69.5246 145.575 70.0916 145.763C71.9816 145.575 73.8717 145.2 75.5727 144.451C78.4077 143.327 81.0538 141.64 83.8888 140.141C87.6689 138.08 91.8269 136.206 95.985 136.768C95.796 136.393 95.796 136.018 95.796 135.456C95.796 134.894 95.796 134.332 95.985 133.77C96.741 131.334 97.686 128.71 98.442 126.274C99.198 123.089 99.576 119.716 99.576 116.343C99.576 115.406 100.332 111.283 98.82 111.096C97.686 110.908 96.93 111.845 96.174 112.782C96.741 109.035 97.308 103.226 95.04 103.038C93.9059 103.038 93.1499 104.912 92.5829 106.224C92.5829 106.036 92.5829 105.849 92.5829 105.662C92.5829 104.35 92.7719 101.164 91.4489 100.415C89.9369 99.6652 88.9919 101.539 88.4249 103.975C88.0469 102.289 87.4798 100.79 87.2908 99.103C86.9128 97.4165 86.9128 93.6688 85.2118 92.7318C85.0228 92.5444 84.6448 92.5444 84.4558 92.7318C83.3218 93.6688 83.5108 95.9174 83.5108 97.2291C83.5108 97.4165 83.5108 97.6039 83.5108 97.9787C82.7548 96.4796 81.9988 95.3553 80.6758 96.1048C79.7307 96.8544 80.2978 100.602 80.2978 101.539C80.4868 102.476 80.4868 103.413 80.6758 104.35C79.9197 103.413 79.1637 102.663 78.2187 102.663C78.0297 102.663 77.8407 102.851 77.6517 103.038C77.2737 104.912 78.2187 107.348 78.5967 109.222C79.5417 112.22 80.4868 115.593 81.9988 118.404C82.5658 119.716 83.1328 120.84 83.8888 121.964C83.1328 121.215 82.3768 120.278 81.8098 119.341C80.1088 117.092 78.5967 114.844 77.2737 112.408C75.5727 109.409 74.2497 106.411 72.9267 103.226C72.1706 101.164 71.4146 98.7282 70.0916 97.0417C69.9026 96.8544 69.3356 96.4796 68.9576 96.8544C68.3906 97.2291 68.3906 98.3535 68.5796 99.103C68.0126 97.7913 67.4456 96.667 66.8786 95.3553C66.1226 93.8562 65.1775 91.7949 63.6655 90.858C63.4765 90.6706 63.0985 90.6706 62.7205 90.858C62.1535 91.2327 62.1535 91.9823 62.3425 92.9192C62.1535 92.5444 61.9645 92.3571 61.7755 92.1697C61.0195 91.2327 60.2635 90.2958 59.5075 89.3589C58.5625 88.6093 57.2394 87.2976 55.9164 87.8597C55.5384 88.0471 55.5384 88.2345 55.5384 88.6093C55.9164 89.921 56.8614 91.0453 57.4284 92.1697C58.1845 93.6688 59.1295 95.1679 59.8855 96.8544C60.0745 97.2291 60.4525 97.7913 60.6415 98.1661C58.9405 96.1048 57.2394 94.0435 54.9714 92.5444C52.7034 90.858 50.0573 89.3589 47.4113 88.2345C46.0883 87.6724 44.3873 86.548 42.8752 86.7354C42.6862 86.7354 42.3082 86.9228 42.3082 87.2976C42.4972 88.6093 43.4423 89.5462 44.3873 90.4832C44.9543 91.2327 45.7103 91.9823 46.4663 92.7318C44.0093 91.2327 40.9852 89.3588 38.5282 90.4832C37.7722 90.858 38.5282 91.9823 39.6622 93.1066C38.9062 92.9192 38.1502 92.7318 37.3942 93.1066C37.2052 93.1066 37.0162 93.294 37.0162 93.4814C36.8272 94.7931 38.3392 96.1048 39.2842 96.8544C40.9852 98.3535 42.6862 99.8526 44.3873 101.164C42.8752 101.352 41.1742 101.726 40.6072 103.413C40.2292 104.35 40.7962 104.725 41.7412 105.099C44.0093 106.036 46.0883 106.411 48.3563 107.535C48.3563 107.535 48.5453 107.535 48.5453 107.723C47.0333 107.723 44.9543 107.535 44.3873 108.66C44.1983 109.035 44.1983 109.222 44.3873 109.409C44.7653 109.972 45.5213 110.534 46.2773 110.721C48.1673 111.283 50.0573 112.408 51.9474 112.97C56.2944 114.469 60.2635 116.53 64.0435 118.966C68.9576 122.152 73.8717 125.15 78.5967 128.523C76.3287 127.024 62.5315 121.777 56.8614 118.404C55.3494 117.654 53.8374 116.905 52.1364 116.155C51.7584 115.968 46.6553 114.094 47.0333 115.031C47.4113 116.155 48.7343 117.28 49.6793 118.029C50.4354 118.779 51.1914 119.341 51.9474 119.903C52.3254 120.09 52.7034 120.278 52.8924 120.653C53.0814 120.84 51.9474 120.465 51.5694 120.278C49.4903 118.966 46.8443 118.029 44.5763 118.217L44.3873 118.404C45.5213 120.09 47.4113 120.84 48.9233 121.777C49.1123 121.964 42.3082 120.84 39.4732 121.777C38.3392 122.339 36.8272 123.089 38.1502 124.4C39.8512 125.899 42.8752 126.836 44.9543 127.773C45.7103 128.148 46.4663 128.336 47.0333 128.523C46.0883 128.71 45.3323 128.898 44.7653 129.46C44.5763 129.647 44.5763 130.022 44.7653 130.209C45.5213 131.334 47.2223 131.709 48.5453 132.271C50.2463 133.02 51.9474 133.582 53.8374 134.145C55.5384 134.707 57.6174 134.707 59.3185 134.894C58.1845 135.081 56.8614 135.456 55.7274 135.644C55.1604 135.644 54.4044 135.831 54.0264 136.206C52.8924 137.518 55.9164 138.08 56.4834 138.267C57.6174 138.454 58.7515 138.642 59.8855 138.642C58.9405 139.017 57.9955 139.579 57.4284 140.141C56.6724 141.078 56.6724 142.202 57.9954 142.577C60.6415 143.327 63.2875 143.889 65.9336 143.889C67.8236 143.889 69.5246 143.139 71.2256 142.764C69.7136 142.577 67.6346 143.514 68.7686 145.013Z" fill="#6CB533"/>
<path d="M118.476 165.251C116.397 158.505 114.129 151.759 111.672 145.013C111.672 143.139 112.05 141.265 112.428 139.391C114.696 129.835 119.421 121.215 125.091 113.345C125.091 113.345 125.091 113.157 124.902 113.345C121.878 117.092 119.043 120.653 116.775 124.963C114.318 129.46 112.428 134.332 111.294 139.391C111.105 140.516 110.916 141.64 110.727 142.764C110.16 140.891 109.593 139.204 109.026 137.33C108.837 136.206 108.459 135.082 108.27 134.145C106.569 127.586 104.868 120.84 103.734 113.907C103.734 113.719 103.734 113.719 103.923 113.532C103.734 112.782 103.734 112.033 103.545 111.283C103.545 111.471 103.356 111.471 103.356 111.658C102.978 109.035 102.6 106.224 102.222 103.6C101.655 98.7283 100.71 93.8562 100.521 88.9841C100.332 83.7373 100.521 78.303 100.332 73.0562C100.143 67.9967 100.521 62.9372 100.899 58.0652C101.277 52.8183 101.088 47.7588 101.277 42.512H101.088C100.521 47.384 100.332 52.4435 99.7651 57.3156C99.198 62.5625 98.631 67.9967 98.82 73.431C98.82 78.4904 98.82 83.5499 99.009 88.422C99.387 103.226 102.033 118.029 105.246 132.458C105.624 134.707 106.191 136.768 106.758 138.829C107.136 140.141 107.325 144.076 108.459 145.013C106.947 143.701 105.435 142.577 104.301 141.453C101.088 138.455 97.686 136.019 93.528 134.145C86.7239 130.959 79.1638 127.586 71.4147 130.209C79.1638 129.085 86.7239 133.02 93.528 136.393C97.119 138.08 100.332 140.516 103.356 142.952C105.057 144.264 106.569 145.763 108.081 147.074C108.459 147.449 109.026 147.824 109.404 148.386C110.727 152.883 112.239 157.381 113.94 161.691V161.878C113.94 161.878 113.94 162.065 114.129 162.065C114.318 163.002 114.696 163.752 115.074 164.501C115.074 164.501 115.074 164.501 115.263 164.689C115.452 165.251 115.641 165.813 116.019 166.375C116.208 167.687 119.043 166.75 118.476 165.251Z" fill="#35A23D"/>
<g opacity="0.6" style="mix-blend-mode:soft-light">
<path d="M99.009 86.3607C98.631 84.4868 98.253 82.6129 98.064 80.739C98.253 73.9931 97.686 67.0597 98.064 60.3138C98.253 54.8795 99.387 49.6326 99.198 44.3858C99.387 42.5119 99.576 40.4506 99.009 38.5768C99.009 38.202 98.442 38.3894 98.253 38.3894C96.741 38.9515 95.985 41.9497 95.418 43.4488C95.04 44.5732 94.851 45.6975 94.662 46.8218C94.473 45.5101 94.662 44.011 94.095 42.8867C93.906 42.5119 93.3389 42.6993 93.1499 42.8867C92.0159 43.6362 92.0159 45.5101 91.8269 46.8218C91.6379 48.1335 91.4489 49.4453 91.2599 50.757C90.8819 49.6326 90.3149 48.8831 89.5589 48.6957C89.1809 48.5083 88.4249 48.8831 88.4249 49.4453C88.4249 52.0687 88.8029 54.6921 88.9919 57.1282C88.9919 57.8777 89.1809 58.4399 89.3699 59.1894C88.8029 58.2525 88.2359 57.3155 87.4799 56.7534C87.1019 56.566 86.5348 56.566 86.3458 56.7534C85.2118 57.6903 85.7788 59.3768 85.9678 60.5011C86.5348 63.4993 86.9129 66.1228 88.4249 68.9336C89.9369 71.7444 91.0709 74.93 92.7719 77.5534C93.9059 79.2399 94.851 80.9264 95.796 82.6129C96.552 83.9246 97.686 85.2363 98.064 86.7354C97.875 87.485 99.009 87.1102 99.009 86.3607Z" fill="url(#paint0_radial_8002_25897)"/>
</g>
<g opacity="0.6" style="mix-blend-mode:soft-light">
<path d="M79.7308 122.714C79.7308 122.526 79.5418 122.152 79.3528 121.964C78.9748 121.027 78.2188 120.278 77.4627 119.528C74.8167 116.155 71.7927 113.344 69.1466 110.159C66.5006 106.973 64.0436 103.788 61.2085 100.977C58.1845 98.1659 54.4044 95.9172 50.4354 94.4181C49.1124 93.856 41.5523 90.483 41.9303 94.0433C41.9303 94.7929 43.6313 95.5424 44.0093 95.9172C44.5763 96.4794 45.3323 96.8542 45.8993 97.4163C46.2773 97.7911 46.0883 97.9785 46.2773 98.3533C47.0333 99.2902 47.9783 99.8524 48.9234 100.415C49.4904 100.789 50.2464 101.164 51.1914 101.539C48.9234 101.164 46.6553 100.789 44.9543 102.288C44.7653 102.476 44.5763 102.851 44.7653 103.038C46.0883 104.162 48.1674 104.537 49.6794 105.099C51.1914 105.661 52.7034 106.411 54.2154 106.973C54.4044 107.16 54.7824 107.16 55.1604 107.348C53.4594 107.16 51.7584 107.16 50.4354 108.285C48.9234 109.784 54.7824 111.096 55.3495 111.283C59.6965 112.595 63.6656 115.031 67.8236 116.717C70.6587 117.842 72.9267 119.715 75.5727 121.589C76.7067 122.152 80.2978 124.588 79.7308 122.714Z" fill="url(#paint1_radial_8002_25897)"/>
</g>
<g opacity="0.6" style="mix-blend-mode:soft-light">
<path d="M153.631 81.3014C153.631 80.7392 153.253 80.5518 152.875 80.5518C151.174 80.9266 149.662 81.8635 148.15 82.8005C148.717 81.8635 149.095 80.7392 149.095 79.8023C149.095 79.2401 148.339 79.2401 147.961 79.4275C146.449 79.9897 145.315 81.3014 144.37 82.4257C142.669 84.1122 140.968 85.9861 139.645 87.86C138.133 89.7338 136.81 91.7951 135.487 93.8564C135.298 94.2311 134.92 94.7933 134.731 95.1681C134.731 94.9807 134.731 94.9807 134.731 94.7933C135.109 93.2942 136.243 91.0455 135.865 89.3591C135.676 88.7969 134.92 88.9843 134.731 89.1717C133.408 90.296 132.841 92.1699 132.085 93.4816C130.95 95.9176 130.005 98.5411 129.06 101.164C128.304 103.226 127.737 105.287 126.792 107.536C125.847 110.159 124.713 112.595 123.39 115.031C123.012 115.968 124.335 115.968 124.713 115.406C128.304 108.473 134.353 102.476 139.267 96.4798C141.913 93.1068 145.504 90.296 148.15 87.1104C149.284 85.7987 150.796 84.487 152.119 83.3626C152.497 82.6131 153.442 82.2383 153.631 81.3014Z" fill="url(#paint2_radial_8002_25897)"/>
</g>
<defs>
<radialGradient id="paint0_radial_8002_25897" cx="0" cy="0" r="1" gradientTransform="matrix(64.7117 30.541 -30.8042 64.1588 33.4124 49.9571)" gradientUnits="userSpaceOnUse">
<stop offset="0.00221549" stop-color="white"/>
<stop offset="0.902" stop-color="white"/>
<stop offset="0.991" stop-color="white"/>
</radialGradient>
<radialGradient id="paint1_radial_8002_25897" cx="0" cy="0" r="1" gradientTransform="matrix(50.7658 23.9591 -24.1656 50.3321 22.3672 137.081)" gradientUnits="userSpaceOnUse">
<stop offset="0.00221549" stop-color="white"/>
<stop offset="0.902" stop-color="white"/>
<stop offset="0.991" stop-color="white"/>
</radialGradient>
<radialGradient id="paint2_radial_8002_25897" cx="0" cy="0" r="1" gradientTransform="matrix(42.1653 19.9001 -20.0716 41.8051 114.436 63.676)" gradientUnits="userSpaceOnUse">
<stop offset="0.00221549" stop-color="white"/>
<stop offset="0.902" stop-color="white"/>
<stop offset="0.991" stop-color="white"/>
</radialGradient>
</defs>
</svg>
