<svg width="200" height="200" viewBox="0 0 200 200" fill="none" xmlns="http://www.w3.org/2000/svg">
<path d="M112.329 32.241C113.707 31.9246 115.601 31.6873 116.548 30.659L116.634 30.58C116.634 30.1845 116.462 29.8681 116.117 29.4726C114.051 27.2579 110.09 28.1279 107.507 28.998C105.527 29.7099 103.805 30.7381 103.03 32.3201C103.891 28.7607 108.368 28.0488 111.124 25.9923C112.329 25.1223 115.256 21.7211 113.018 20.4555C110.779 19.19 107.68 20.9301 106.216 22.5912C105.269 23.6985 104.322 24.9641 103.891 26.3087C103.891 26.3878 103.805 26.4669 103.805 26.546C104.15 24.5686 104.58 22.6703 104.58 20.6928C104.58 19.9019 103.977 16.2634 102.169 17.1335C100.447 18.0035 99.9308 19.981 100.103 21.642C100.189 22.9866 100.62 24.2522 101.136 25.5177C101.739 26.9415 102.686 28.4443 102.686 29.9472C102.514 29.5517 102.342 29.1562 102.169 28.7607C101.567 27.4161 100.447 26.2296 99.1559 25.3596C97.6061 24.2522 94.5066 24.2522 93.0429 25.4387C91.321 26.8624 91.6654 29.1562 93.7317 30.2636C95.0232 30.9754 96.4869 31.2127 97.9505 31.2918C99.8447 31.45 101.308 31.6082 102.083 33.2692C101.481 32.3201 100.447 32.0037 99.3281 31.7664C96.4869 31.2918 92.6985 31.6873 90.5461 33.5856C88.8241 35.0885 89.7712 37.2241 92.0098 37.5405C93.5595 37.7778 95.1954 37.145 96.573 36.5122C98.2949 35.7213 100.447 34.2975 102.083 35.484C100.189 35.7213 98.2088 36.0376 96.4008 36.6704C94.6788 37.3032 92.6125 38.2524 91.4071 39.597C90.7183 40.388 90.6322 41.8908 91.8376 42.3654C93.2151 42.9982 94.5066 42.6027 95.712 41.8908C93.99 43.3146 92.5263 45.3711 93.3873 47.5067C93.7317 48.3768 94.5066 48.4559 95.2815 48.2186C94.5066 49.0095 93.8178 49.9587 93.3012 50.9079C92.9568 51.4615 92.182 52.9644 92.6985 53.6763C93.99 55.4955 96.8313 54.309 98.2949 53.3599C99.4142 52.5689 100.275 51.3824 100.964 50.2751C101.567 49.3259 101.825 48.2977 102.342 47.3485C102.428 47.4276 102.428 47.4276 102.514 47.5067C102.514 47.5858 102.514 47.6649 102.514 47.744C102.342 49.8796 102.428 52.1734 102.686 54.3881C100.792 53.9136 98.8115 54.7045 97.0896 55.7328C95.6259 56.6028 93.3873 57.7893 93.3012 59.6085C93.2151 61.2696 96.3147 60.3995 97.0896 60.0831C99.5003 59.1339 101.394 56.9983 102.772 55.1C102.858 56.2074 103.03 57.2356 103.116 58.343C102.255 58.5012 101.481 58.5012 100.62 58.9758C99.4142 59.6085 98.381 60.3204 97.3478 61.2696C96.4869 62.0605 93.99 64.9871 95.1093 66.1736C97.2618 68.6256 101.567 63.3261 103.289 60.3204C103.375 61.3487 103.375 62.456 103.461 63.4843H103.375C102.772 63.9589 101.567 64.2752 100.792 64.5916C99.8447 65.0662 98.9837 65.699 98.2949 66.4109C97.0896 67.5182 95.8842 69.3375 96.4008 70.9194C96.9174 72.4222 99.3281 70.2866 99.7586 69.8911C101.222 68.4674 102.514 67.0436 103.461 65.3035C103.461 65.3826 103.461 65.4617 103.461 65.4617C103.289 65.6199 103.203 65.8572 103.289 66.0154C103.289 66.0945 103.375 66.2527 103.461 66.3318C103.461 67.2018 103.461 67.9928 103.461 68.8629C103.375 68.942 103.375 68.942 103.375 69.0211C102.083 69.2584 100.878 69.4956 99.8447 70.5239C99.3281 71.0776 97.9505 72.264 98.4671 73.1341C99.0698 74.3206 101.997 71.7104 103.461 70.1284C103.289 70.7612 103.116 71.394 103.116 72.0268C103.116 72.4222 103.116 72.7386 103.116 73.1341C102.944 73.055 102.686 73.055 102.428 73.1341C101.739 73.2132 101.05 73.4505 100.533 73.7669C99.8447 74.2415 98.6393 75.1115 98.8115 76.0607C98.9837 77.4053 101.653 75.507 103.116 74.3206C103.203 76.1398 103.289 78.0381 103.719 79.7783C103.805 79.9364 104.064 79.7783 104.064 79.6992C104.064 78.2754 104.15 76.8517 104.236 75.4279C104.494 75.9816 104.752 76.4562 105.097 76.9308C105.441 77.4053 105.958 78.2754 106.646 78.3545C106.905 78.3545 107.163 78.1172 107.249 77.8799C107.594 77.1681 107.077 76.4562 106.905 75.7443C106.474 74.4788 105.011 73.9251 104.408 72.8177C104.408 72.8177 104.408 72.7386 104.322 72.7386C104.322 72.5804 104.322 72.3431 104.322 72.1849C104.322 72.0268 104.322 71.8686 104.322 71.7104C105.183 73.6087 106.474 75.6652 107.594 74.9533C108.541 74.3206 107.852 73.1341 107.421 72.4222C106.991 71.7104 106.302 71.0776 105.699 70.5239C105.441 70.2866 104.924 69.9702 104.58 69.6538C104.666 69.2584 104.666 68.8629 104.752 68.3883C104.752 68.3092 104.752 68.151 104.752 67.9928C105.269 68.7047 105.699 69.4166 106.388 69.9702C107.421 70.8403 108.541 71.3149 109.488 69.8911C110.176 68.8629 110.176 67.0436 109.229 66.1736C108.541 65.5408 107.766 65.2244 106.819 64.9871C106.388 64.8289 105.958 64.7498 105.527 64.6707C105.097 64.5916 104.58 64.6707 104.236 64.5125C104.236 63.3261 104.236 62.1396 104.15 60.9532C105.011 62.2187 106.474 63.3261 107.68 64.1171C108.799 64.8289 110.349 65.6199 111.554 65.1453C112.157 64.6707 112.243 63.8798 112.157 63.1679C111.985 62.1396 111.468 61.3487 110.607 60.6368C108.627 59.0549 106.13 58.1057 103.719 57.3147C103.547 57.2356 103.547 56.9983 103.805 56.9983C104.752 56.9983 105.699 57.4729 106.474 57.7102C107.68 58.1848 108.971 58.6594 110.263 59.0549C111.21 59.3712 112.587 59.7667 113.62 59.4503C113.707 59.4503 113.707 59.3712 113.793 59.3712C114.309 57.9475 113.362 56.3656 111.812 55.5746C110.435 54.8627 108.971 54.5463 107.421 54.309C106.044 54.0717 105.011 53.9136 103.719 54.2299C103.633 53.5972 103.633 53.0435 103.547 52.4107C103.375 51.1452 103.375 49.8005 103.289 48.4559C103.805 49.405 104.236 50.4333 104.838 51.2243C105.613 52.2525 106.905 53.2017 108.11 53.9136C109.488 54.7045 111.726 55.4164 113.62 55.1791C114.998 54.4672 115.342 52.9644 114.481 51.6988C113.793 50.6706 112.759 49.8796 111.726 49.2468C110.607 48.535 109.316 47.9813 108.11 47.4276C107.766 47.2694 107.335 47.1112 106.991 47.0321C106.819 46.953 106.733 46.953 106.56 46.8739C106.474 46.8739 106.388 46.7948 106.302 46.7948C105.958 46.5575 105.527 46.3202 105.183 46.083C105.269 46.083 105.269 46.083 105.355 46.083C105.699 46.1621 106.13 46.3202 106.474 46.4784C107.249 46.7157 108.024 47.0321 108.885 47.3485C109.229 47.5067 109.574 47.5858 109.918 47.6649C110.349 47.8231 110.779 47.9022 111.124 48.0604C111.21 48.1395 111.382 48.1395 111.468 48.2186C112.673 48.6932 115.342 49.405 116.203 47.9022C116.978 46.4784 116.634 44.9756 114.912 44.2637C114.481 44.1055 114.051 43.8682 113.534 43.71C114.137 43.7891 114.74 43.7891 115.342 43.4728C116.203 42.9982 116.117 42.049 115.945 41.258C115.515 39.0433 112.157 38.4896 110.176 38.4105C108.627 38.3315 105.699 38.4896 103.977 39.3597C103.977 39.2806 103.977 39.2806 103.977 39.2015C105.872 37.5405 108.368 37.4614 110.779 37.936C111.64 38.0942 113.62 38.7269 114.223 37.6987C114.654 36.9077 114.309 35.6422 113.62 35.0094C112.329 33.902 110.176 34.0602 108.541 34.3766C106.991 34.693 105.441 35.0885 104.15 35.9585C103.977 36.0376 103.805 35.8004 103.977 35.7213C106.388 33.8229 109.316 32.9529 112.329 32.241Z" fill="#0F9035"/>
<path d="M105.096 93.0662C105.096 89.586 105.268 86.1848 105.354 82.7045C105.527 76.1395 105.441 69.5745 105.01 63.0094C104.58 56.3653 103.719 49.7211 103.374 43.077C103.202 39.834 103.03 36.5119 103.116 33.269C103.202 31.6079 103.288 30.026 103.46 28.3649C103.633 26.783 103.719 24.8056 104.149 23.3027C104.149 23.3027 104.149 23.3027 104.063 23.3027C103.633 24.331 103.633 25.5965 103.374 26.6248C102.944 28.444 102.685 30.2633 102.513 32.1616C102.083 35.5628 101.997 38.9639 101.824 42.3651C101.652 45.7663 101.652 49.0092 101.911 52.4104C102.083 55.8907 102.427 59.2919 102.599 62.7721C102.944 69.8117 103.202 76.8514 102.513 83.891C102.169 87.2922 101.566 90.6933 101.566 94.1736C101.566 95.9137 101.566 97.6539 101.824 99.394C102.083 100.897 102.599 101.767 103.633 102.874C104.149 103.428 105.182 102.558 105.268 102.004C105.354 100.58 105.527 99.394 105.354 97.9703C105.268 96.2301 105.096 94.6482 105.096 93.0662Z" fill="url(#paint0_linear_8002_25406)"/>
<path d="M118.786 56.4447C118.614 56.3656 118.528 56.2074 118.356 56.1283C119.475 56.7611 120.767 57.3147 121.972 57.1566C123.091 56.7611 123.522 55.5746 123.177 54.4673C122.833 53.2808 121.714 52.4107 120.594 51.8571C118.27 50.6706 115.428 49.8796 112.759 49.8005C112.501 49.8005 112.501 49.4841 112.759 49.4841C114.309 49.4841 115.773 49.5632 117.236 50.0378C118.011 50.2751 118.7 50.5915 119.389 50.9079C119.647 50.987 119.906 51.1452 120.164 51.2243C120.508 51.3825 120.939 51.5407 121.369 51.6198C122.144 51.8571 122.919 51.9362 123.522 51.6989C123.866 51.3825 124.038 50.987 124.124 50.5915C124.469 49.326 123.866 48.535 122.919 47.744C122.747 47.5858 122.575 47.5067 122.402 47.4276C121.111 46.953 119.647 46.953 118.356 47.0321C116.72 47.1112 114.912 47.3485 113.448 48.0604C113.276 48.1395 113.104 47.9022 113.276 47.8231C115.17 46.083 118.356 46.1621 120.853 46.0039C122.661 45.8457 124.727 45.6875 126.191 44.8174C127.052 43.7101 127.396 42.2863 126.363 41.0999C124.124 38.6479 120.25 40.5462 118.011 42.049C117.064 42.6818 116.289 43.4728 115.601 44.2638C115.687 44.1056 115.773 43.8683 115.859 43.7101C116.892 41.4163 119.045 39.597 120.594 37.6987C122.402 35.484 126.105 30.9755 122.23 28.7607C118.7 26.7042 115.515 30.6591 114.395 33.3484C113.534 35.4049 113.793 37.6987 113.965 39.8343C114.051 41.3372 113.879 42.9191 113.534 44.4219C113.534 42.9191 113.362 41.4163 112.845 39.9134C111.984 37.7778 108.799 35.1676 106.302 36.5123C104.15 37.6196 105.097 40.4671 106.474 41.6536C107.68 42.6818 109.402 43.2355 110.693 44.2638C111.382 44.8174 112.071 45.7666 112.501 46.7949C111.296 45.9248 110.435 45.1338 108.885 44.5801C106.646 43.7892 104.838 44.2638 103.547 46.0039C102.342 47.6649 103.805 49.1678 105.527 49.4841C105.785 49.5632 106.13 49.5632 106.388 49.5632C104.58 50.196 102.944 51.0661 102.255 51.778C100.792 53.2017 102.169 54.23 103.719 54.3091C102.514 55.1791 101.567 56.2865 101.394 57.6311C101.481 57.8684 101.567 58.0266 101.825 58.1848C102.514 58.5803 103.461 58.5803 104.322 58.5012C106.044 58.343 107.68 57.7893 109.315 57.3938C110.09 56.6029 110.951 55.4955 111.898 55.0209C111.812 55.4955 111.812 55.891 111.726 56.3656C111.468 57.3938 111.21 58.343 111.037 59.3713C110.435 59.3713 109.832 59.3713 109.229 59.2922C107.077 59.5295 104.752 59.5295 102.772 60.4786C101.481 61.1114 100.706 62.1397 100.533 63.4843C100.447 64.1962 100.533 65.1453 101.481 65.3826C103.202 65.8572 105.527 64.829 107.077 64.1962C107.938 63.8798 108.713 63.4843 109.574 63.0888C110.004 62.9306 110.521 62.6142 111.037 62.5351C111.124 62.5351 111.296 62.6143 111.296 62.6933C111.21 63.6425 110.607 64.1962 109.746 64.5917C108.713 65.0662 107.766 65.4617 106.819 66.1736C106.044 66.7273 105.011 67.5974 104.408 68.6256C104.15 69.5748 104.15 70.4448 104.408 71.1567C104.838 72.185 105.699 72.2641 106.646 71.9477C107.593 71.4731 108.454 70.3657 108.885 69.8121C109.746 68.7047 110.521 67.4392 111.468 66.3318C111.554 66.2527 111.812 66.3318 111.812 66.4109C111.726 67.2019 111.554 70.5239 110.349 70.9985V71.0776C109.315 71.2358 108.454 71.3149 107.507 71.7104C107.163 72.0268 106.733 72.2641 106.302 72.4223C105.441 73.055 104.752 74.0042 105.011 75.0325C105.269 76.0607 106.905 75.1116 107.335 74.8743C108.024 74.4788 108.713 73.9251 109.315 73.3714C109.66 73.055 110.004 72.7387 110.263 72.4223C110.176 73.4505 110.263 74.4788 110.349 75.428C110.349 75.507 110.349 75.507 110.435 75.507C110.435 75.8234 110.349 76.0607 110.349 76.3771C110.263 76.298 110.263 76.298 110.176 76.2189C109.143 75.3489 106.302 76.0607 105.269 76.7726C104.58 77.2472 104.494 78.8291 105.527 79.0664C106.302 79.2246 106.991 78.9873 107.593 78.5918C108.196 78.1963 108.971 77.8009 109.66 77.7218C109.746 77.88 109.746 78.0382 109.746 78.1963C109.746 78.2754 109.66 78.2754 109.66 78.3545C109.574 79.3037 109.574 80.332 109.315 81.2811C108.971 80.9647 108.713 80.8065 108.11 80.5693C107.249 80.2529 106.388 80.1738 105.527 80.4111C104.063 80.8856 103.805 81.9139 104.752 82.8631C105.269 83.3377 106.216 83.1004 106.819 82.9422C107.593 82.7049 108.282 82.4676 109.057 82.3094C109.057 82.3094 109.143 82.3094 109.143 82.3885C109.229 82.4676 109.315 82.4676 109.402 82.4676C110.004 82.9422 110.693 83.2585 111.468 83.5749C112.329 83.9704 112.673 84.8405 113.62 84.7614C114.74 84.7614 115.084 83.4167 114.74 82.7049C114.137 81.4393 112.157 81.202 110.607 81.2811C110.779 80.4111 110.865 79.541 111.037 78.6709C112.243 78.75 113.362 79.541 114.654 79.6992C115.17 79.7783 116.031 79.6992 116.117 79.0664C116.203 78.2754 115.17 77.3263 114.395 77.089C113.276 76.6144 112.243 76.7726 111.21 77.2472C111.21 77.1681 111.21 77.089 111.21 77.0099C111.296 75.8234 111.124 74.637 111.037 73.4505C111.037 73.2923 111.037 73.2132 111.124 73.055C111.21 73.2923 111.382 73.6087 111.468 73.846C111.726 74.5579 112.243 75.2698 112.845 75.8234C113.534 76.3771 115.084 77.3263 115.945 76.6144C116.117 76.4562 116.203 76.3771 116.289 76.2189C116.376 74.637 113.448 72.8969 112.587 71.9477C112.501 71.8686 112.587 71.6313 112.759 71.7104C113.62 71.9477 114.395 72.5014 115.17 72.8968C115.515 73.055 116.203 73.4505 116.289 72.8968C116.462 72.3432 116.376 71.5522 116.203 70.9985C115.428 68.3883 112.759 66.9646 111.382 64.7499C111.296 64.5917 111.468 64.4335 111.64 64.5126C113.362 65.3035 114.395 66.8855 115.859 67.9928C116.634 68.6256 117.839 69.1002 118.872 68.7838C119.992 68.3883 120.508 67.2019 120.336 66.1736C119.992 64.6708 118.958 63.247 117.753 62.1397C119.217 62.8515 120.939 63.0888 121.628 61.7442C122.402 59.6877 120.508 57.6311 118.786 56.4447ZM109.746 52.4898C110.521 52.0944 111.382 51.6198 112.157 51.3034C112.501 51.1452 116.376 54.8627 116.978 55.2582C117.064 55.2582 117.064 55.3373 117.15 55.3373C116.892 55.2582 116.72 55.1 116.462 55.0209C115.945 54.7836 115.428 54.4673 114.826 54.23C114.74 54.23 114.654 54.1509 114.567 54.1509C113.879 53.9927 113.276 53.9136 112.587 53.9927C112.415 53.9136 112.243 53.9136 112.071 53.9136C112.071 53.7554 112.071 53.5972 112.157 53.3599V53.2808C111.554 52.8853 110.693 52.648 109.746 52.4898ZM111.984 59.7668C111.984 58.8967 112.071 58.0266 112.157 57.0775C112.243 56.5238 112.243 56.0492 112.329 55.4955C112.415 55.5746 112.415 55.6537 112.501 55.7328C113.362 57.4729 113.362 59.134 114.998 60.5577C113.534 59.9249 111.984 59.2922 111.984 59.7668Z" fill="#56AF35"/>
<path d="M117.236 36.7495C116.03 39.0433 114.911 41.1789 114.05 43.6309C113.189 46.0038 112.328 48.4558 111.726 50.9078C110.434 56.2864 110.348 61.8232 109.831 67.36C109.229 72.8968 108.798 78.3545 107.851 83.8121C107.421 86.5014 106.56 88.9534 105.871 91.5636C105.268 93.6993 103.718 95.6767 103.804 97.8914C103.804 98.366 104.493 98.2869 104.752 98.1287C108.626 95.123 110.262 89.5071 110.951 85.0777C111.812 79.62 112.242 74.1623 112.328 68.7046C112.414 63.326 112.5 57.8683 112.845 52.5688C113.017 49.9586 113.62 47.4275 114.308 44.8964C114.997 42.0489 116.203 39.5178 117.408 36.9076C117.408 36.6704 117.236 36.6704 117.236 36.7495Z" fill="url(#paint1_linear_8002_25406)"/>
<path d="M80.7304 66.648C81.5914 67.9136 83.2272 67.439 84.6048 66.648C83.5716 67.9136 82.6245 69.3373 82.4524 70.9193C82.3663 71.9475 83.055 73.0549 84.1743 73.3713C85.2936 73.6877 86.3268 73.0549 87.1017 72.343C88.4792 71.0775 89.2541 69.4164 90.89 68.4673C91.0622 68.3882 91.2344 68.5464 91.1483 68.6255C89.9429 70.9984 87.5321 72.6594 87.0156 75.2696C86.9295 75.8233 86.9295 76.6143 87.1017 77.1679C87.2739 77.7216 87.9626 77.247 88.2209 77.0097C88.9958 76.5352 89.5985 75.9024 90.4595 75.586C90.6317 75.5069 90.7178 75.7442 90.6317 75.8233C89.8568 76.8515 87.1878 78.9081 87.446 80.4109C87.5321 80.5691 87.7043 80.6482 87.8765 80.8064C88.8236 81.4392 90.2873 80.4109 90.89 79.699C91.4927 79.1454 91.8371 78.3544 92.0093 77.6425C92.0954 77.3261 92.1815 77.0888 92.2676 76.7724C92.2676 76.9306 92.3537 77.0097 92.3537 77.1679C92.4398 78.3544 92.3536 79.5408 92.6119 80.7273C92.6119 80.8064 92.6119 80.8855 92.6119 80.9646C91.5788 80.6482 90.4595 80.5691 89.4263 81.1228C88.7375 81.4392 87.7904 82.4674 87.9626 83.2584C88.1348 83.8912 88.9958 83.8121 89.4263 83.733C90.7178 83.4957 91.6649 82.5465 92.8702 82.3883C93.0424 83.2584 93.3007 84.1285 93.559 84.9985C92.0093 85.0776 90.029 85.4731 89.5985 86.8178C89.3402 87.6087 89.7707 88.8743 90.9761 88.7952C91.9232 88.7161 92.1815 87.7669 92.9563 87.3714C93.7312 86.9759 94.3339 86.5805 94.8505 86.0268C94.9366 86.0268 95.0227 86.0268 95.1088 85.9477L95.1949 85.8686C95.9698 86.0268 96.7447 86.185 97.5195 86.2641C98.0361 86.3432 99.0693 86.5014 99.4998 86.0268C100.361 84.9985 100.016 83.9703 98.4666 83.6539C97.6056 83.4957 96.7447 83.6539 95.9698 84.0494C95.3671 84.3658 95.1949 84.603 94.8505 84.9194C94.5061 83.9703 94.42 83.0211 94.1617 82.0719C94.1617 81.9928 94.0756 81.9137 94.0756 81.9137C94.0756 81.7556 94.0756 81.5974 94.1617 81.4392C94.9366 81.5183 95.7976 81.8347 96.4003 82.151C97.0891 82.4674 97.8639 82.6256 98.5527 82.3883C99.5859 82.0719 99.3276 80.49 98.5527 80.0945C97.4334 79.5408 94.5922 79.0663 93.6451 80.0154C93.559 80.0945 93.559 80.0945 93.4729 80.1736C93.3868 79.9363 93.3868 79.6199 93.3007 79.3826L93.3868 79.3036C93.3868 78.3544 93.3007 77.3261 93.1285 76.2979C93.4729 76.5352 93.8173 76.8515 94.2478 77.1679C94.9366 77.6425 95.6254 78.1171 96.4003 78.4335C96.8308 78.6708 98.6388 79.4617 98.7249 78.3544C98.811 77.3261 98.0361 76.4561 97.0891 75.9024C96.6586 75.8233 96.2281 75.586 95.7976 75.3487C94.8505 75.0323 93.9034 74.9532 92.8702 74.9532V74.8741C91.5788 74.4786 91.1483 71.2357 90.89 70.4447C90.89 70.2865 91.0622 70.2074 91.1483 70.2865C92.1815 71.2357 93.0424 72.4221 94.0756 73.4504C94.5922 74.0041 95.6254 74.9532 96.5725 75.3487C97.5196 75.5069 98.2944 75.3487 98.6388 74.3204C98.8971 73.6086 98.7249 72.6594 98.3805 71.7893C97.6056 70.8402 96.4864 70.0492 95.7115 69.5746C94.7644 69.0209 93.7312 68.7046 92.6119 68.3091C91.751 67.9927 91.0622 67.5181 90.89 66.5689C90.89 66.4898 90.9761 66.4107 91.0622 66.4107C91.5788 66.4898 92.0954 66.648 92.5258 66.8062C93.3868 67.0435 94.2478 67.3599 95.1088 67.5972C96.7447 68.0718 99.1554 68.8628 100.791 68.23C101.652 67.9136 101.652 66.9644 101.48 66.2526C101.222 64.9079 100.275 63.9587 98.8971 63.4051C96.8308 62.6141 94.5061 62.9305 92.3537 62.8514C91.751 62.9305 91.1483 63.0887 90.5456 63.0887C90.2012 62.1395 89.8568 61.1112 89.5124 60.1621C89.3402 59.7666 89.2541 59.292 89.168 58.8174C90.2012 59.1338 91.2344 60.1621 92.0093 60.874C93.7312 61.1112 95.3671 61.4276 97.0891 61.4276C97.8639 61.4276 98.8971 61.4276 99.4998 60.874C99.672 60.7158 99.8442 60.4785 99.8442 60.3203C99.4998 59.0547 98.4666 57.9474 97.0891 57.2355C98.6388 56.9982 99.8442 55.8908 98.2944 54.6253C97.5196 53.9925 95.7976 53.2806 93.9034 52.8061C94.1617 52.8061 94.5061 52.727 94.7644 52.6479C96.4864 52.1733 97.6917 50.5123 96.4003 49.0094C94.9366 47.3484 93.0424 47.1111 90.9761 48.0603C89.5124 48.7721 88.8236 49.6422 87.6182 50.5914C87.8765 49.5631 88.4792 48.5348 89.168 47.9021C90.2873 46.7947 91.9232 46.0828 93.0424 44.8964C94.2478 43.5517 94.9366 40.7042 92.6119 39.7551C90.2873 38.9641 87.36 41.8907 86.8434 44.0263C86.4129 45.6082 86.4129 47.032 86.6712 48.5348C86.1546 47.032 85.7241 45.4501 85.638 43.9472C85.5519 41.8116 85.5519 39.5178 84.5187 37.5404C83.1411 34.9302 79.525 31.3708 76.1672 33.7437C72.551 36.3539 76.7699 40.4669 78.7501 42.5235C80.5582 44.3427 82.8828 45.9246 84.1743 48.0603C84.2604 48.2184 84.4326 48.4557 84.5187 48.6139C83.7438 47.823 82.8828 47.1111 81.8497 46.6365C79.4389 45.371 75.3923 43.8681 73.4981 46.4783C72.5511 47.7439 73.0676 49.0885 74.1008 50.1959C75.6506 50.9077 77.7169 50.9077 79.525 50.9077C82.0219 50.8286 85.1214 50.4332 87.2739 52.0151C87.4461 52.1733 87.2739 52.3315 87.1017 52.2524C85.5519 51.6987 83.7438 51.6987 82.108 51.7778C80.8165 51.8569 79.3528 51.936 78.0613 52.5688C77.8891 52.6479 77.7169 52.8061 77.6309 52.9643C76.6838 53.8343 76.2533 54.7044 76.6838 55.8909C76.856 56.2863 77.1143 56.6818 77.4587 56.9191C78.0613 57.0773 78.8362 56.9982 79.6111 56.6027C79.9555 56.4445 80.386 56.2863 80.7304 56.049C80.9887 55.8909 81.1609 55.8118 81.4192 55.6536C82.108 55.2581 82.7106 54.8626 83.4855 54.6253C84.8631 54.0716 86.3268 53.7552 87.8765 53.597C88.1348 53.597 88.1348 53.9134 87.8765 53.9134C85.2075 54.2298 82.5384 55.2581 80.386 56.6818C79.3528 57.3937 78.4057 58.3429 78.1474 59.5293C77.8891 60.6367 78.4918 61.8231 79.6111 62.0604C80.9026 62.0604 82.108 61.4276 83.1411 60.6367C82.9689 60.7158 82.8828 60.874 82.7106 60.9531C81.0748 62.4559 79.4389 64.6706 80.7304 66.648ZM88.7375 57.3937V57.4728C88.8236 57.631 88.8236 57.8683 88.8236 58.0265C88.6514 58.0265 88.4792 58.1056 88.307 58.1056C87.7043 58.1847 87.0156 58.2638 86.4129 58.5011C86.3268 58.5011 86.2407 58.5801 86.1546 58.5801C85.638 58.8965 85.1214 59.2129 84.6048 59.5293C84.4326 59.6875 84.1743 59.7666 84.0021 59.9248C84.0882 59.8457 84.0882 59.8457 84.1743 59.7666C84.6909 59.3711 88.2209 55.2581 88.4792 55.3372C89.3402 55.5745 90.2012 55.9699 91.0622 56.2863C90.2873 56.5236 89.4263 56.84 88.7375 57.3937ZM87.0156 64.9079C88.4792 63.326 88.2209 61.744 88.9097 59.8457C88.9097 59.7666 88.9958 59.6875 88.9958 59.6084C89.0819 60.1621 89.2541 60.6367 89.3402 61.1903C89.5124 62.0604 89.6846 62.9305 89.8568 63.8005C89.7707 63.2469 88.307 64.0378 87.0156 64.9079Z" fill="#52AE36"/>
<path d="M81.9358 41.3372C83.3995 43.5519 84.777 45.5293 85.8963 47.9022C87.0156 50.196 88.1349 52.4898 88.9958 54.8627C90.89 60.0831 91.5788 65.6199 92.7842 70.9985C93.9895 76.4562 95.1088 81.8348 96.6586 87.2134C97.4335 89.8236 98.4666 92.1965 99.4998 94.7276C100.361 96.7841 102.083 98.6034 102.255 100.818C102.255 101.293 101.652 101.293 101.308 101.134C97.0891 98.5243 94.8505 93.0666 93.6451 88.7162C92.1815 83.3376 91.1483 78.0381 90.3734 72.5805C89.5985 67.281 88.9958 61.8233 87.9627 56.5238C87.4461 53.9927 86.5851 51.5407 85.638 49.0096C84.6048 46.2412 83.1412 43.8683 81.6775 41.3372C81.7636 41.2581 81.9358 41.3372 81.9358 41.3372Z" fill="url(#paint2_linear_8002_25406)"/>
<path d="M106.474 71.315C104.666 69.4958 99.3279 70.2867 97.4337 72.4223C97.3476 72.4223 97.2615 72.4223 97.2615 72.4223C98.2086 70.9986 100.705 70.3658 102.341 70.0494C103.375 69.8912 104.322 69.8121 105.01 69.1003C106.302 67.9138 104.666 66.1737 103.461 65.7782C101.653 65.1454 99.5001 66.2528 98.2086 67.281C97.5198 67.8347 97.0893 68.4675 96.8311 69.2585C96.745 68.863 96.5728 68.3884 96.4867 67.9929C97.0033 66.0946 98.3808 65.1454 100.275 64.4336C101.48 63.959 102.858 63.959 104.063 63.5635C105.957 63.0098 106.474 61.3488 105.183 59.925C103.805 58.3431 100.017 59.4504 98.553 60.2414C97.6059 60.7951 96.9172 61.2697 96.3145 62.0606C95.9701 62.5352 95.7979 63.0889 95.6257 63.6426C95.5396 62.6934 95.3674 61.6652 95.2813 60.716C95.5396 60.2414 95.884 59.8459 96.4006 59.4504C97.0033 58.9759 97.8642 58.7386 98.553 58.4222C99.7584 57.7894 100.964 57.1566 101.911 56.2866C103.202 55.021 103.116 53.2809 101.308 52.6481C100.447 52.3317 99.5001 52.3317 98.6391 52.4899C99.5862 52.1735 100.447 51.778 101.222 51.2244C102.6 50.1961 102.341 48.3769 100.792 47.5859C98.553 46.3994 96.0562 46.9531 94.2481 48.5351C93.7315 49.0096 92.8705 49.8006 92.354 50.5916C92.2679 50.3543 92.0957 50.117 92.0096 49.8797C92.6983 48.2978 94.8508 47.3486 96.3145 46.6367C97.6059 46.004 98.8113 45.5294 99.7584 44.5802C100.964 43.3938 101.739 40.3881 99.5862 39.518C97.3476 38.6479 94.8508 39.9926 93.1288 41.3372C92.0096 42.2073 91.3208 43.4729 90.8042 44.6593C90.5459 45.2921 90.3737 45.9249 90.2015 46.5576C90.0293 45.6085 89.9432 44.6593 90.1154 43.6311C90.3737 41.8909 91.4069 40.309 91.8374 38.5688C92.354 36.7496 91.4069 33.9812 88.91 34.5349C86.5854 35.0095 86.4993 38.4898 86.6715 40.0717C86.8437 41.2581 87.102 42.4446 87.4463 43.552C87.1881 43.0774 86.9298 42.5237 86.6715 42.0491C85.4661 39.9926 84.519 37.857 84.0024 35.5632C83.7441 34.2976 81.9361 28.4444 79.3531 30.3428C76.8563 32.162 77.4589 35.3259 78.8365 37.6197C79.6975 39.1225 81.2473 40.1508 82.6248 41.179C84.2607 42.4446 85.8966 43.8683 87.4463 45.213C87.6185 45.3712 87.7046 45.4503 87.7907 45.6085C86.6715 44.5011 85.4661 43.552 84.0024 42.761C82.2805 41.7327 80.5585 41.1 78.4921 40.9418C77.459 40.8627 75.9953 40.9418 75.3926 41.8909C73.7567 44.5011 75.9092 46.9531 78.7504 47.5859C80.4724 47.9814 82.3665 47.1113 84.0024 46.7949C85.2939 46.5576 86.8437 46.7158 88.049 47.1113C88.8239 47.3486 89.1683 48.0605 89.771 48.3769C89.8571 48.3769 89.8571 48.3769 89.9432 48.3769C90.0293 48.5351 90.2015 48.5351 90.2876 48.456C90.3737 48.6142 90.4598 48.8515 90.632 49.0096C89.5127 48.1396 87.7046 47.665 86.4993 47.5068C84.1746 47.1904 81.0751 47.4277 80.2141 49.8006C79.6975 51.3035 80.8168 53.5973 82.797 53.36C85.38 53.1227 90.1154 48.9306 91.7513 52.0944C91.7513 52.2526 91.8374 52.4108 91.9235 52.569C91.9235 52.6481 92.0096 52.6481 92.0957 52.6481C92.0957 52.7272 92.0957 52.7272 92.1817 52.8063C91.8374 52.4899 91.493 52.1735 91.1486 52.0153C89.771 51.2244 87.4463 51.9362 86.4993 53.0436C85.8105 53.9137 85.1217 55.6538 86.5854 56.1284C87.3602 56.3657 88.4795 55.7329 89.0822 55.4165C90.632 54.7046 92.354 55.9702 93.2149 56.9193C93.301 56.9984 93.3871 56.9984 93.4732 56.9984C93.4732 57.1566 93.5593 57.3148 93.5593 57.473C93.5593 58.1849 93.6454 58.8968 93.8176 59.6086C93.8176 59.6877 93.9037 59.6086 93.9037 59.6086C93.9037 59.2923 93.8176 59.055 93.8176 58.8177C93.9898 59.4504 94.0759 60.0041 94.162 60.6369C94.162 60.716 94.0759 60.7951 94.0759 60.8742C93.9037 60.1623 93.6454 59.5295 93.4732 58.8177C93.301 57.9476 92.6983 56.9193 91.7513 56.603C90.2015 55.9702 87.5324 56.2075 86.4993 57.5521C85.1217 59.5295 86.9298 60.716 88.91 61.1906C90.2015 61.4279 91.3208 61.7443 92.5261 62.2188C93.4732 62.6143 93.9037 63.2471 94.162 64.0381C93.6454 63.4053 92.8705 63.0098 92.1817 62.6143C90.9764 61.9024 88.5656 61.507 87.7907 63.0889C86.9298 64.9081 87.9629 66.0155 89.8571 66.8065C91.493 67.5183 93.1288 67.5974 94.5925 68.7048C95.023 69.0212 95.4535 69.4167 95.7118 69.8912C95.7118 69.9703 95.7118 70.1285 95.7979 70.2076C95.884 70.9986 95.7979 71.7896 95.9701 72.5805C95.9701 72.5805 95.9701 72.5805 95.884 72.5805C95.4535 70.6031 92.1818 68.4675 90.632 69.8912C89.9432 70.6031 90.5459 71.315 91.1486 71.7896C92.5261 72.8969 95.3674 73.4506 95.884 75.1116C95.9701 75.5071 96.6589 75.1907 96.6589 74.8743C96.6589 74.7952 96.6589 74.7953 96.6589 74.7162C96.6589 74.6371 96.6589 74.558 96.6589 74.4789C96.8311 73.9252 97.1755 73.4506 97.5198 73.0551C98.8974 73.2133 100.533 73.9252 101.222 74.1625C102.169 74.4789 103.288 74.558 104.322 74.1625C106.302 73.8461 107.938 72.8178 106.474 71.315Z" fill="#00A43C"/>
<path d="M106.474 103.428C105.957 103.032 105.699 101.53 105.441 100.976C104.924 99.5522 104.235 98.2076 103.805 96.7838C102.772 93.8572 102.169 90.8515 101.48 87.9249C100.189 82.0718 99.1556 76.1395 98.2085 70.2863C97.6919 67.3597 96.8309 64.5123 96.0561 61.6648C95.1951 58.8964 94.5924 56.2071 93.4731 53.5178C91.3206 48.3765 87.7906 43.7889 83.3135 40.1504C83.3135 40.1504 83.2274 40.1504 83.2274 40.2295C92.1816 49.4047 95.3673 61.6648 95.8839 73.6875C96.1422 79.9362 97.0892 86.2639 98.639 92.4335C99.3278 95.281 100.103 97.8912 101.308 100.58C101.911 101.846 103.719 104.931 105.527 104.852C106.13 104.694 107.077 103.903 106.474 103.428Z" fill="url(#paint3_linear_8002_25406)"/>
<path d="M84.7767 44.501C84.7767 44.4219 84.7767 44.2637 84.6906 44.1846C83.7435 43.3936 82.6242 42.7608 81.505 42.3654C80.9023 42.049 80.2996 41.6535 79.6108 41.6535C78.4915 41.5744 76.3391 41.3371 76.0808 42.8399C75.8225 44.1846 77.2 45.371 78.5776 45.5292C80.2135 45.7665 82.1937 45.7665 83.9157 45.2919C84.2601 45.2919 84.6045 45.2128 84.8628 44.8174C84.8628 44.7383 84.8628 44.5801 84.7767 44.501Z" fill="url(#paint4_radial_8002_25406)"/>
<path d="M87.102 48.8514C87.102 48.8514 87.1881 48.7723 87.102 48.7723C85.4661 48.2977 82.711 48.2186 81.6778 49.8797C80.7307 51.5407 82.4527 52.1735 84.0025 52.0944C84.8634 52.0153 87.102 51.2243 87.6186 50.1961C87.963 49.7215 87.8769 49.2469 87.102 48.8514Z" fill="url(#paint5_radial_8002_25406)"/>
<path d="M82.538 36.1167C82.2797 35.1675 81.8492 32.5573 80.5578 32.3991C80.6439 32.3991 80.6439 32.2409 80.5578 32.2409C78.147 32.1618 79.3524 36.1167 79.869 37.1449C80.2134 37.7777 81.1605 38.8851 82.0214 38.4896C83.0546 38.0941 82.7102 36.8285 82.538 36.1167Z" fill="url(#paint6_radial_8002_25406)"/>
<path d="M97.4338 40.5464C96.7451 40.3883 96.1424 40.6255 95.5397 40.9419C94.937 41.1792 94.5065 41.4956 93.8177 42.0493C93.215 42.5239 92.6984 43.0775 92.354 43.7103C92.1818 44.0267 92.0096 44.5804 92.0096 45.055C92.0096 45.2923 92.0957 45.4505 92.1818 45.6087C92.1818 45.6878 92.2679 45.6878 92.354 45.7668C92.9567 46.2414 93.9038 46.2414 94.5926 45.8459C95.0231 45.6087 95.4536 45.3714 95.8841 44.9759C96.1424 44.7386 96.4868 44.5804 96.745 44.3431C97.4338 43.7894 98.2087 42.9985 98.2948 42.0493C98.2948 41.4956 98.1226 40.7046 97.4338 40.5464Z" fill="url(#paint7_radial_8002_25406)"/>
<path d="M91.7507 57.8683C91.2341 57.3147 90.287 57.2356 89.5983 57.3938C88.9956 57.4728 88.1346 58.1056 87.9624 58.7384C87.8763 58.8966 87.8763 59.0548 87.7902 59.213C87.618 60.874 90.3731 60.6367 91.3202 60.004C92.1812 59.5294 92.3534 58.5802 91.7507 57.8683Z" fill="url(#paint8_radial_8002_25406)"/>
<path d="M85.9826 67.0437C85.466 67.281 85.1216 67.6764 84.7772 68.0719C84.6911 68.151 84.3467 68.6256 84.6911 68.2301C84.5189 68.4674 84.3467 68.7047 84.2606 68.942C84.0023 69.4166 83.6579 70.1284 83.6579 70.7612C83.5718 71.1567 83.5718 71.4731 83.8301 71.7895C84.605 72.8177 85.8104 71.5522 86.327 70.9194C87.0158 70.1284 87.5324 69.1793 87.7046 68.151C87.8768 67.2019 87.0158 66.6482 85.9826 67.0437Z" fill="url(#paint9_radial_8002_25406)"/>
<path d="M85.2935 62.3771C85.2074 61.8234 84.6048 61.5861 84.0021 61.6652C83.1411 61.8234 82.4523 62.4562 82.0218 63.1681C81.5913 63.8799 81.2469 64.6709 81.8496 65.3828C82.2801 65.8574 83.1411 65.541 83.5716 65.3037C83.8299 65.1455 84.0882 64.8291 84.2604 64.5918C84.5187 64.2754 84.777 63.959 84.9491 63.6426C85.2074 63.2472 85.3796 62.8517 85.2935 62.3771Z" fill="url(#paint10_radial_8002_25406)"/>
<path d="M82.8828 57.3148C82.4523 56.7612 81.7635 56.7612 81.1608 57.0775C80.9025 57.2357 80.7304 57.3148 80.4721 57.473C80.1277 57.7894 80.1277 57.7894 80.386 57.5521L80.2999 57.6312C80.1277 57.7103 80.0416 57.8685 79.8694 57.9476C79.525 58.3431 79.1806 58.9759 79.525 59.4505C79.525 59.4505 79.525 59.4505 79.525 59.5295C79.6972 60.0832 80.386 60.0041 80.9025 59.8459C81.6774 59.5295 82.2801 58.8968 82.7106 58.3431C82.8828 58.1058 83.055 57.6312 82.8828 57.3148Z" fill="url(#paint11_radial_8002_25406)"/>
<path d="M104.838 98.6823C104.494 98.6823 104.15 98.6032 103.805 98.5241C103.633 98.3659 103.461 98.2868 103.289 98.1286C102.083 97.2585 100.792 96.3885 99.5864 95.5975C101.481 94.7274 103.375 94.0156 105.527 93.6201C106.733 93.3828 107.938 93.2246 109.143 93.0664C109.402 93.0664 109.66 92.9873 109.918 92.9873C108.799 94.1738 107.852 95.5184 106.819 96.7049C106.13 97.3376 105.527 98.0495 104.838 98.6823Z" fill="url(#paint12_linear_8002_25406)"/>
<path d="M99.3277 99.7106C99.6721 99.7106 100.016 99.7106 100.361 99.6315C100.533 99.5524 100.705 99.3942 100.877 99.3151C102.169 98.5241 103.46 97.7332 104.752 97.0213C102.944 96.0721 101.05 95.2021 98.9833 94.7275C97.7779 94.4111 96.5725 94.1738 95.3672 93.9365C95.1089 93.8574 94.8506 93.8574 94.5923 93.7783C95.6255 95.0439 96.4864 96.4676 97.4335 97.6541C98.0362 98.3659 98.6389 98.9987 99.3277 99.7106Z" fill="url(#paint13_linear_8002_25406)"/>
<path d="M94.5059 177.068C95.7974 174.458 97.7777 172.322 99.5857 170.028C101.652 167.339 103.202 164.333 103.288 161.011C103.288 159.666 103.202 158.243 103.03 156.898C102.944 156.265 102.771 155.553 102.599 154.921C102.255 154.683 101.824 154.604 101.394 154.842C101.049 155 100.619 155.316 100.791 155.712C100.963 156.028 101.049 156.344 101.136 156.582C101.049 156.423 100.877 156.344 100.705 156.186C100.877 156.582 100.963 156.977 101.049 157.452C101.394 158.164 101.738 158.796 101.738 159.746C101.824 160.853 101.652 161.802 101.394 162.83C101.394 163.147 101.308 163.384 101.222 163.7C100.533 166.864 98.3804 169.474 96.4862 172.164C95.453 173.587 94.5059 175.09 93.8171 176.672C93.2145 178.333 92.784 179.994 92.6979 181.734C92.6979 182.13 92.6979 182.605 92.6979 183C92.9562 180.944 93.5589 178.887 94.5059 177.068Z" fill="#A99A88"/>
<path d="M101.48 165.441C101.049 166.073 100.361 166.706 99.6718 167.181C99.4996 167.181 99.3274 167.26 99.1552 167.26C98.8108 167.339 98.4664 167.339 98.0359 167.339C97.5193 167.418 97.0027 167.655 96.5722 167.893V167.972C97.0888 167.814 97.6054 167.655 98.2081 167.655C98.5525 167.655 98.8969 167.655 99.1552 167.576C98.983 167.655 98.8108 167.814 98.6386 167.893C97.6915 168.446 96.8305 169 96.1417 169.791C96.1417 169.87 96.1417 169.87 96.2278 169.87C96.5722 169.554 97.0027 169.237 97.4332 168.921C97.3471 169 97.3471 169.158 97.261 169.316C97.0027 169.87 96.4861 170.424 96.1417 170.819C96.5722 170.503 96.9166 170.186 97.261 169.791C97.4332 169.633 97.5193 169.396 97.6915 169.158C97.7776 168.921 98.0359 168.684 98.122 168.446C98.5525 168.209 98.8969 167.972 99.3274 167.734C98.8108 168.288 98.6386 169.079 98.2081 169.712C98.2081 169.712 98.2081 169.791 98.2942 169.712C98.8969 169.079 99.2413 168.288 99.8439 167.655C100.102 167.339 100.447 167.102 100.791 166.864C100.963 166.706 101.135 166.469 101.222 166.232C101.394 165.994 101.566 165.678 101.738 165.362C101.652 165.362 101.566 165.282 101.48 165.441Z" fill="#E1CAAD"/>
<path d="M103.116 164.095C103.03 163.383 102.858 162.75 102.6 162.118C102.514 162.039 102.341 162.118 102.341 162.197C102.341 162.592 102.427 162.909 102.427 163.225C102.255 163.304 102.169 163.462 102.169 163.621C102.083 163.858 101.911 164.016 101.825 164.253C101.825 164.332 101.911 164.332 101.911 164.253C101.997 164.095 102.169 163.937 102.255 163.779C102.341 163.7 102.427 163.541 102.514 163.462C102.6 164.016 102.686 164.57 102.772 165.123C102.686 165.361 102.686 165.677 102.6 165.914C102.6 165.914 102.6 165.993 102.514 165.993C102.255 166.152 101.911 166.231 101.653 166.389C101.308 166.547 101.136 166.864 100.878 167.101C101.222 166.864 101.566 166.626 101.911 166.468C101.997 166.389 102.169 166.389 102.255 166.31C101.825 167.18 101.308 168.05 101.566 168.999H101.653C101.566 167.813 102.427 167.022 102.772 165.993C102.772 167.259 102.686 168.525 102.255 169.711C102.255 169.79 102.341 169.711 102.341 169.711C102.514 169.236 102.686 168.762 102.772 168.287C102.772 168.366 102.772 168.445 102.772 168.445C102.858 168.92 102.944 169.474 102.944 170.027H103.03C103.116 169.316 103.202 168.445 102.944 167.734C103.03 167.259 103.116 166.705 103.116 166.152C103.116 165.677 103.116 165.203 103.116 164.728C103.202 165.044 103.375 165.361 103.547 165.598C103.547 165.677 103.633 165.598 103.633 165.519C103.461 165.203 103.288 164.649 103.116 164.095Z" fill="#E1CAAD"/>
<path d="M102.169 160.853C101.738 161.169 101.394 161.564 101.05 161.96H100.963C99.9303 162.434 98.9832 163.225 98.3805 164.096C98.811 163.621 99.4137 163.146 99.9303 162.751C100.189 162.593 100.447 162.514 100.705 162.355C100.016 163.384 99.4137 164.649 99.0693 165.677C99.0693 165.757 99.1554 165.757 99.1554 165.677C99.4137 165.203 99.672 164.728 99.9303 164.254C99.8442 164.491 99.8442 164.649 99.8442 164.886C99.7581 165.598 99.3276 166.231 99.0693 166.943C99.0693 167.022 99.1554 166.943 99.1554 166.943C99.4137 166.468 99.8442 165.915 100.016 165.361C100.189 164.807 100.275 164.175 100.447 163.542C100.533 163.463 100.533 163.384 100.619 163.305C101.136 162.434 101.824 161.723 102.427 160.853C102.427 160.853 102.341 160.773 102.169 160.853Z" fill="#E1CAAD"/>
<path d="M104.408 162.039C104.322 161.959 104.236 161.959 104.15 161.88C103.978 161.801 103.891 161.722 103.719 161.643C103.461 161.485 103.289 161.327 103.03 161.168C102.944 161.089 102.944 161.01 102.858 160.931C102.772 160.852 102.686 160.931 102.686 161.01C102.686 161.168 102.686 161.168 102.772 161.248C102.944 161.406 102.944 161.643 103.117 161.88C103.289 162.197 103.633 162.434 103.891 162.75H103.978C103.805 162.434 103.633 162.197 103.461 161.88C103.461 161.801 103.375 161.801 103.375 161.722C103.547 161.801 103.719 161.959 103.891 161.959C104.064 161.959 104.236 162.039 104.408 162.039C104.494 162.039 104.408 162.118 104.408 162.039Z" fill="#E1CAAD"/>
<path d="M101.135 170.819C101.049 170.74 101.049 170.503 101.049 170.345C100.963 170.108 100.877 169.949 100.791 169.712C100.619 169.475 100.533 169.317 100.447 169.079C100.447 169 100.447 169 100.361 168.921C100.361 168.921 100.361 168.842 100.274 168.842C100.274 168.684 100.188 168.526 100.188 168.367C100.188 168.209 99.93 168.288 99.93 168.447C99.8439 168.763 100.016 169.158 100.102 169.475C99.2412 170.74 98.9829 172.085 98.8969 173.588H98.9829C99.069 172.955 99.2412 172.243 99.4134 171.61C99.3273 172.639 99.3273 173.588 99.3273 174.616C99.3273 174.695 99.4134 174.616 99.4134 174.616C99.5856 174.062 99.6717 173.509 99.5856 172.955C99.5856 172.401 99.4995 171.848 99.4134 171.373C99.5856 170.899 99.93 170.424 100.102 169.949C100.188 170.424 100.274 170.819 100.188 171.294C100.102 172.085 100.274 172.876 100.361 173.667H100.447C100.533 172.481 100.705 171.215 100.447 170.029C100.447 170.108 100.533 170.108 100.533 170.187C100.619 170.345 100.791 170.661 100.791 170.819C100.963 170.74 101.049 170.74 101.135 170.819Z" fill="#E1CAAD"/>
<path d="M95.6253 177.858C95.4531 177.542 95.2809 177.304 95.1087 176.988C95.0227 176.513 95.0227 176.039 95.1948 175.564C95.1948 175.485 95.1087 175.485 95.1087 175.564C94.7644 176.355 94.8505 177.146 95.0227 177.858C94.8505 178.095 94.8505 178.412 94.7644 178.649C94.5922 179.124 94.5922 179.677 94.6783 180.152C94.6783 180.231 94.7644 180.152 94.7644 180.152C94.7644 179.677 94.8505 179.282 95.0227 178.807C95.1088 178.649 95.1087 178.412 95.1948 178.174C95.367 178.965 95.6253 179.835 95.4531 180.626C95.4531 180.706 95.5392 180.626 95.5392 180.626C95.7975 179.598 95.5392 178.57 95.367 177.621C95.367 177.7 95.4531 177.7 95.4531 177.779C95.6253 178.095 95.7975 178.491 95.8836 178.886H95.9697C95.8836 178.491 95.7975 178.174 95.6253 177.858Z" fill="#E1CAAD"/>
<path d="M97.778 173.429C97.9502 172.559 98.2085 171.768 98.4668 170.898C98.4668 170.819 98.3807 170.819 98.2946 170.898C97.4336 172.48 97.1753 174.141 97.2614 175.881H97.3475C97.4336 175.249 97.5197 174.616 97.6058 173.983C97.6058 174.062 97.6058 174.141 97.6058 174.22C97.6919 175.011 97.778 175.802 97.778 176.593H97.8641C97.9502 175.881 98.0363 175.249 97.9502 174.537C97.9502 174.299 97.778 173.825 97.778 173.429Z" fill="#E1CAAD"/>
<path d="M93.9039 177.463C93.4734 177.7 93.129 178.096 92.8707 178.491C92.5263 178.728 92.1819 178.887 91.8375 179.045C91.4932 179.282 91.321 179.599 90.9766 179.836V179.915C91.321 179.678 91.5792 179.44 92.0097 179.203C92.1819 179.124 92.4402 178.966 92.6985 178.887C92.3541 179.599 92.0097 180.231 91.8375 180.943H91.9236C92.0958 180.389 92.3541 179.915 92.6985 179.361C92.9568 178.966 93.129 178.649 93.3873 178.254C93.5595 178.017 93.8178 177.779 94.0761 177.463C94.0761 177.463 93.99 177.384 93.9039 177.463Z" fill="#E1CAAD"/>
<path d="M95.0228 174.853C94.7645 174.932 94.4201 175.09 94.1618 175.248C93.9035 175.406 93.6452 175.643 93.473 175.881C93.473 175.881 93.473 175.96 93.5591 175.881C93.8174 175.643 94.0757 175.485 94.4201 175.327C94.6784 175.169 94.9367 175.09 95.195 174.853C95.195 174.932 95.1089 174.853 95.0228 174.853Z" fill="#E1CAAD"/>
<path d="M97.5196 171.294C96.9169 171.61 96.3143 171.847 95.7116 172.243C95.195 172.559 94.8506 173.034 94.5923 173.508C94.5923 173.508 94.5923 173.508 94.6784 173.508C95.5394 172.559 96.6586 172.085 97.6057 171.373C97.6057 171.373 97.6057 171.215 97.5196 171.294Z" fill="#E1CAAD"/>
<path d="M96.3143 174.615C96.4004 174.061 96.5726 173.508 96.7448 172.954C96.7448 172.875 96.6587 172.875 96.5726 172.954C95.7977 174.14 96.2282 175.564 95.7977 176.83C95.9699 176.276 96.056 175.722 96.1421 175.169C96.2282 175.88 96.4865 176.434 96.5726 177.146C96.6587 176.276 96.4004 175.406 96.3143 174.615Z" fill="#E1CAAD"/>
<path d="M103.46 161.564C103.977 159.508 105.096 157.768 105.871 155.79C107.162 152.547 106.99 149.146 107.335 145.745C107.765 141.553 108.97 137.44 109.659 133.327C110.865 126.604 109.573 119.722 110.606 112.999C111.295 108.807 112.931 104.852 111.984 100.581C110.951 95.9931 106.387 94.7276 101.824 94.8067C99.1552 94.8067 96.314 95.8349 94.7642 97.8123C92.4396 100.739 92.6117 105.089 92.6117 108.49C92.5257 113.711 93.6449 118.773 94.2476 123.993C94.8503 128.818 94.4198 133.722 94.6781 138.547C94.9364 143.926 96.7445 148.83 98.3803 153.971C98.8108 155.158 99.0691 156.423 99.4135 157.61C99.7579 158.717 100.188 159.745 100.705 160.694C101.394 162.039 102.341 163.542 102.513 165.045C102.771 163.937 103.202 162.751 103.46 161.564Z" fill="url(#paint14_linear_8002_25406)"/>
<path d="M105.527 105.643C103.03 105.168 100.447 105.326 97.95 105.722C96.4003 105.959 93.9895 106.276 92.8702 107.462V107.541C96.5725 105.801 101.222 105.959 105.268 106.038C105.613 106.038 105.871 105.643 105.527 105.643Z" fill="#B9A286"/>
<path d="M107.421 110.547C108.627 110.626 109.746 110.943 110.951 111.101C110.951 110.943 111.038 110.784 111.038 110.626C108.541 110.073 106.044 110.073 103.461 110.31C103.375 110.31 103.375 110.468 103.461 110.468C104.752 110.389 106.13 110.389 107.421 110.547Z" fill="#B9A286"/>
<path d="M110.263 112.92C109.746 112.841 109.229 112.762 108.627 112.762C108.024 112.762 107.421 112.92 106.819 112.762C106.733 112.762 106.733 112.841 106.733 112.841C107.163 112.999 107.594 112.999 108.024 112.999C108.713 112.999 109.402 113.157 110.09 113.157C110.263 113.236 110.435 112.999 110.263 112.92Z" fill="#B9A286"/>
<path d="M103.718 118.061C100.619 117.824 97.5193 118.219 94.592 119.089C94.5059 119.089 94.4198 119.247 94.592 119.247C97.6054 118.852 100.619 118.694 103.632 118.377C103.718 118.377 103.891 118.061 103.718 118.061Z" fill="#B9A286"/>
<path d="M97.6919 120.751C96.6587 120.751 95.6255 121.226 94.5923 121.384C94.5923 121.384 94.5062 121.463 94.5923 121.463C95.5394 121.542 96.6587 121.384 97.6058 121.146C97.778 121.067 97.9502 120.751 97.6919 120.751Z" fill="#B9A286"/>
<path d="M109.66 132.615C108.885 132.378 108.196 132.299 107.421 132.141C106.646 131.982 105.785 132.062 105.01 131.903C104.924 131.903 104.838 131.982 104.924 132.062C105.613 132.378 106.388 132.457 107.163 132.615C107.938 132.773 108.713 132.932 109.488 133.011C109.66 133.011 109.918 132.694 109.66 132.615Z" fill="#B9A286"/>
<path d="M98.897 139.575C98.2943 139.575 97.6055 139.575 97.0029 139.812C97.0029 139.812 96.9167 139.812 96.9167 139.892C96.8306 139.971 96.8306 140.05 96.9167 140.05C97.175 140.05 97.5194 140.05 97.7777 140.05C98.1221 140.05 98.3804 140.05 98.7248 139.971C98.897 139.892 99.1553 139.575 98.897 139.575Z" fill="#B9A286"/>
<path d="M101.05 144.242C100.447 144.163 96.4863 144.401 96.5724 144.954C96.4002 144.954 96.3141 145.192 96.4863 145.192C97.95 145.192 99.5859 144.875 101.05 144.638C101.05 144.559 101.222 144.242 101.05 144.242Z" fill="#B9A286"/>
<path d="M106.646 150.254C105.871 149.938 104.924 150.254 104.149 150.175C104.063 150.175 104.063 150.254 104.063 150.254C104.321 150.412 104.752 150.491 105.096 150.491C105.527 150.57 106.043 150.729 106.474 150.57C106.646 150.57 106.818 150.333 106.646 150.254Z" fill="#B9A286"/>
<path d="M106.043 152.705C105.527 152.389 104.838 152.468 104.235 152.389C103.718 152.31 102.685 152.23 102.427 152.468V152.389H102.341C102.255 152.389 102.169 152.468 102.255 152.547C102.771 152.784 103.374 152.784 103.977 152.942C104.579 153.101 105.268 153.259 105.871 153.101C105.957 153.021 106.215 152.863 106.043 152.705Z" fill="#B9A286"/>
<g opacity="0.04" style="mix-blend-mode:soft-light">
<path d="M101.911 95.7563C101.911 95.7563 98.9835 95.44 96.4005 98.6038C94.5925 101.451 93.9037 105.09 93.7315 108.254C93.5593 111.259 93.7315 114.344 94.3342 117.35C94.7647 119.644 95.1952 121.858 95.4535 124.152C95.7979 126.683 95.7979 129.214 95.7979 131.745C95.7979 134.277 95.884 136.808 96.2284 139.339C96.5727 141.87 97.1754 144.322 97.7781 146.853C98.4669 149.7 99.3279 152.627 100.447 155.395C101.997 146.062 104.924 112.92 105.441 106.197C105.871 98.2875 104.149 96.3891 101.911 95.7563Z" fill="url(#paint15_radial_8002_25406)"/>
</g>
<path d="M98.1219 149.304C98.1219 149.146 97.8636 149.304 97.8636 149.383C97.6053 150.965 97.0887 152.31 96.486 153.733C96.0555 154.762 96.2277 155.869 96.3138 156.897C96.3138 156.976 96.3999 156.897 96.3999 156.897C96.486 155.236 96.9165 153.971 97.5192 152.468C97.5192 153.18 97.6914 153.892 97.6914 154.604C97.6914 155.869 97.6914 157.372 97.347 158.637C97.347 158.717 97.4331 158.717 97.4331 158.637C97.8636 157.451 97.9497 156.185 98.1219 154.999C98.2941 153.892 97.9497 152.784 97.8636 151.677C98.0358 151.044 98.208 150.174 98.1219 149.304Z" fill="#E1CAAD"/>
<path d="M106.905 146.141C106.56 145.033 106.302 144.005 106.13 142.898C106.13 142.74 105.872 142.898 105.872 142.977C105.699 146.378 107.852 149.542 107.766 152.943C107.766 153.022 107.852 152.943 107.938 152.943C108.282 150.966 107.766 148.988 107.163 147.09C107.68 147.644 108.196 148.197 108.368 148.83C108.368 148.909 108.541 148.83 108.541 148.751C108.368 147.723 107.593 146.932 106.905 146.141Z" fill="#E1CAAD"/>
<path d="M95.8838 138.784C95.7977 138.784 95.8838 138.705 95.8838 138.784C95.5394 140.208 94.5923 141.394 93.7313 142.581C93.0426 143.609 92.6982 144.716 92.6121 145.903C92.6121 146.061 92.7843 145.982 92.7843 145.903C92.9565 145.112 93.3869 144.321 93.8174 143.53C93.8174 143.688 93.7313 143.925 93.7313 144.084C93.7313 144.558 93.7313 144.954 93.7313 145.428C93.7313 145.745 93.7313 146.377 93.6452 146.615C93.6452 146.694 93.7313 146.615 93.7313 146.615C93.9896 146.061 93.9035 145.428 93.9896 144.796C93.9896 144.4 93.9896 144.084 93.9896 143.688C93.9896 143.293 94.1618 142.976 94.2479 142.66C95.1089 141.394 95.8838 140.208 95.8838 138.784Z" fill="#E1CAAD"/>
<path d="M110.607 139.022C110.349 138.547 110.004 138.231 109.574 137.994C109.143 137.677 108.713 137.44 108.368 136.965H108.282C107.852 136.333 107.421 135.621 107.163 134.83C107.077 134.593 106.733 134.83 106.733 134.988C106.991 136.333 107.766 137.282 108.455 138.389C109.229 139.655 109.402 140.999 109.832 142.344C109.832 142.423 109.918 142.344 109.918 142.265C109.746 141.079 109.66 140.05 109.315 138.943C109.229 138.627 109.057 138.389 108.971 138.073C109.229 138.231 109.488 138.31 109.746 138.547C110.004 138.785 110.176 138.943 110.435 139.022C110.607 139.101 110.607 139.022 110.607 139.022Z" fill="#E1CAAD"/>
<path d="M95.281 125.654C95.1949 126.445 94.7644 126.999 94.3339 127.553C94.2478 127.553 94.1617 127.553 94.0756 127.632C93.8173 127.711 93.5591 127.632 93.2147 127.79C92.8703 127.869 92.612 127.948 92.2676 128.106C92.0093 128.185 91.6649 128.423 91.3205 128.344C91.3205 128.344 91.2344 128.423 91.3205 128.423C91.751 128.502 92.2676 128.264 92.6981 128.185C93.2147 128.106 93.6451 128.106 94.0756 127.948C93.6451 128.423 93.2147 128.897 92.8703 129.451C92.2676 130.321 91.8371 131.27 91.751 132.298C91.751 132.457 92.0093 132.378 92.0093 132.219C92.1815 131.27 92.612 130.558 93.1286 129.846C93.1286 130.084 93.1286 130.4 93.1286 130.637C93.1286 131.349 93.1286 132.536 92.6981 133.089C93.0425 132.694 93.0425 132.14 93.2147 131.587C93.3869 130.875 93.3008 129.846 93.6451 129.135C93.6451 129.055 93.6451 129.055 93.6451 128.976C93.9034 128.581 94.2478 128.264 94.5922 127.869C95.1088 127.236 95.3671 126.366 95.3671 125.575C95.4532 125.575 95.3671 125.575 95.281 125.654Z" fill="#E1CAAD"/>
<path d="M107.765 124.706C107.593 124.785 107.335 124.468 107.248 124.389C107.162 124.231 106.904 124.152 106.732 124.073C106.301 123.835 105.871 123.519 105.44 123.282C105.268 122.965 105.096 122.57 105.01 122.254C105.01 122.174 105.01 122.016 104.924 121.937C104.924 121.858 104.838 121.858 104.838 121.858C104.665 121.304 104.579 120.751 104.665 120.197C104.665 120.118 104.579 120.118 104.579 120.197C104.407 120.909 104.407 121.621 104.579 122.333C104.407 122.965 104.235 123.519 104.235 124.152C104.235 124.547 104.321 125.022 104.407 125.417C104.407 125.576 104.579 125.813 104.579 126.05C104.579 126.129 104.665 126.05 104.665 126.05C104.838 125.576 104.579 124.785 104.665 124.389C104.665 123.994 104.838 123.598 104.924 123.203C105.354 124.468 105.871 125.655 106.129 126.92C106.129 127.078 106.387 126.92 106.387 126.841C106.56 125.892 106.301 125.022 105.871 124.152C106.215 124.31 106.56 124.468 106.904 124.706C107.162 124.864 107.507 125.101 107.765 124.864C107.851 124.785 107.851 124.626 107.765 124.706Z" fill="#E1CAAD"/>
<defs>
<linearGradient id="paint0_linear_8002_25406" x1="101.891" y1="88.3785" x2="105.326" y2="88.8458" gradientUnits="userSpaceOnUse">
<stop stop-color="#C8E087"/>
<stop offset="1" stop-color="#B0CE60"/>
</linearGradient>
<linearGradient id="paint1_linear_8002_25406" x1="108.779" y1="78.8869" x2="111.781" y2="79.3538" gradientUnits="userSpaceOnUse">
<stop stop-color="#CDEA9C"/>
<stop offset="1" stop-color="#AFD076"/>
</linearGradient>
<linearGradient id="paint2_linear_8002_25406" x1="98.0168" y1="91.1474" x2="94.1758" y2="92.0765" gradientUnits="userSpaceOnUse">
<stop stop-color="#95CD43"/>
<stop offset="1" stop-color="#80BA2C"/>
</linearGradient>
<linearGradient id="paint3_linear_8002_25406" x1="102.752" y1="92.3335" x2="98.9113" y2="93.2626" gradientUnits="userSpaceOnUse">
<stop stop-color="#C7E19A"/>
<stop offset="1" stop-color="#AFD076"/>
</linearGradient>
<radialGradient id="paint4_radial_8002_25406" cx="0" cy="0" r="1" gradientUnits="userSpaceOnUse" gradientTransform="translate(46.4451 62.7756) scale(46.3382 42.5701)">
<stop offset="0.00221549" stop-color="white"/>
<stop offset="0.902" stop-color="white"/>
<stop offset="0.991" stop-color="white"/>
</radialGradient>
<radialGradient id="paint5_radial_8002_25406" cx="0" cy="0" r="1" gradientUnits="userSpaceOnUse" gradientTransform="translate(46.4475 62.7772) scale(46.3372 42.5692)">
<stop offset="0.00221549" stop-color="white"/>
<stop offset="0.902" stop-color="white"/>
<stop offset="0.991" stop-color="white"/>
</radialGradient>
<radialGradient id="paint6_radial_8002_25406" cx="0" cy="0" r="1" gradientUnits="userSpaceOnUse" gradientTransform="translate(46.447 62.7788) scale(46.3383 42.5701)">
<stop offset="0.00221549" stop-color="white"/>
<stop offset="0.902" stop-color="white"/>
<stop offset="0.991" stop-color="white"/>
</radialGradient>
<radialGradient id="paint7_radial_8002_25406" cx="0" cy="0" r="1" gradientUnits="userSpaceOnUse" gradientTransform="translate(75.15 37.0535) scale(22.9028 21.0404)">
<stop offset="0.00221549" stop-color="white"/>
<stop offset="0.902" stop-color="white"/>
<stop offset="0.991" stop-color="white"/>
</radialGradient>
<radialGradient id="paint8_radial_8002_25406" cx="0" cy="0" r="1" gradientUnits="userSpaceOnUse" gradientTransform="translate(46.4493 62.7769) scale(46.3342 42.5664)">
<stop offset="0.00221549" stop-color="white"/>
<stop offset="0.902" stop-color="white"/>
<stop offset="0.991" stop-color="white"/>
</radialGradient>
<radialGradient id="paint9_radial_8002_25406" cx="0" cy="0" r="1" gradientUnits="userSpaceOnUse" gradientTransform="translate(46.4411 62.7768) scale(46.3443 42.5757)">
<stop offset="0.00221549" stop-color="white"/>
<stop offset="0.902" stop-color="white"/>
<stop offset="0.991" stop-color="white"/>
</radialGradient>
<radialGradient id="paint10_radial_8002_25406" cx="0" cy="0" r="1" gradientUnits="userSpaceOnUse" gradientTransform="translate(46.4413 62.7768) scale(46.344 42.5754)">
<stop offset="0.00221549" stop-color="white"/>
<stop offset="0.902" stop-color="white"/>
<stop offset="0.991" stop-color="white"/>
</radialGradient>
<radialGradient id="paint11_radial_8002_25406" cx="0" cy="0" r="1" gradientUnits="userSpaceOnUse" gradientTransform="translate(46.4417 62.7773) scale(46.344 42.5754)">
<stop offset="0.00221549" stop-color="white"/>
<stop offset="0.902" stop-color="white"/>
<stop offset="0.991" stop-color="white"/>
</radialGradient>
<linearGradient id="paint12_linear_8002_25406" x1="105.766" y1="91.938" x2="107.242" y2="96.759" gradientUnits="userSpaceOnUse">
<stop stop-color="#B8CE92"/>
<stop offset="1" stop-color="#7CA438"/>
</linearGradient>
<linearGradient id="paint13_linear_8002_25406" x1="99.6721" y1="93.7783" x2="98.6314" y2="99.0928" gradientUnits="userSpaceOnUse">
<stop stop-color="#BEDC6F"/>
<stop offset="1" stop-color="#92B633"/>
</linearGradient>
<linearGradient id="paint14_linear_8002_25406" x1="91.9897" y1="107.758" x2="111.362" y2="107.758" gradientUnits="userSpaceOnUse">
<stop stop-color="#E0B585"/>
<stop offset="0.27" stop-color="#F4E1CC"/>
<stop offset="0.73" stop-color="#DCB07E"/>
<stop offset="1" stop-color="#E0BF99"/>
</linearGradient>
<radialGradient id="paint15_radial_8002_25406" cx="0" cy="0" r="1" gradientUnits="userSpaceOnUse" gradientTransform="translate(46.9276 123.618) scale(64.1132 58.8997)">
<stop offset="0.00221549" stop-color="white"/>
<stop offset="0.902" stop-color="white"/>
<stop offset="0.991" stop-color="white"/>
</radialGradient>
</defs>
</svg>
