<svg width="200" height="200" viewBox="0 0 200 200" fill="none" xmlns="http://www.w3.org/2000/svg">
<path d="M120.424 89.3281C106.48 99.0144 97.9578 102.93 81.6888 105.403C78.3963 105.815 75.1038 106.228 71.6176 106.228C57.2854 106.434 41.2102 102.106 28.6211 90.3586C26.4907 88.2977 24.7476 85.4124 22.0361 84.7941C20.6804 84.3819 19.3246 84.588 17.9689 84.1758C17.5815 84.1758 17.1942 83.9698 17.0005 83.3515C17.0005 83.1454 17.1942 82.7332 17.1942 82.5271C17.3878 82.321 17.5815 81.9088 17.7752 81.2906C18.5499 79.6418 20.0993 78.8175 21.6487 79.4357C37.724 84.3819 47.0205 86.855 67.3567 89.122C70.4555 89.5342 80.1394 90.1525 83.4319 90.1525C87.1118 89.9464 90.598 89.5342 94.2779 89.122C102.606 88.0916 110.934 86.6489 119.069 85.2063C120.231 85.0002 121.393 84.7941 122.555 84.588C122.942 84.588 123.33 84.7941 123.33 85.0002C123.911 86.2367 122.942 87.4733 120.424 89.3281Z" fill="#4C8529"/>
<mask id="mask0_9002_24283" style="mask-type:luminance" maskUnits="userSpaceOnUse" x="17" y="79" width="107" height="28">
<path d="M120.424 89.3242C106.48 99.0105 97.9578 102.926 81.6888 105.399C78.3963 105.812 75.1038 106.224 71.6176 106.224C57.2854 106.43 41.2102 102.102 28.6211 90.3547C26.4907 88.2938 24.7476 85.4085 22.0361 84.7902C20.6804 84.378 19.3246 84.5841 17.9689 84.1719C17.5815 84.1719 17.1942 83.9658 17.0005 83.3476C17.0005 83.1415 17.1942 82.7293 17.1942 82.5232C17.3878 82.3171 17.5815 81.9049 17.7752 81.2867C18.5499 79.6379 20.0993 78.8136 21.6487 79.4318C37.724 84.378 47.0205 86.8511 67.3567 89.1181C70.4555 89.5303 80.1394 90.1486 83.4319 90.1486C87.1118 89.9425 90.598 89.5303 94.2779 89.1181C102.606 88.0877 110.934 86.645 119.069 85.2024C120.231 84.9963 121.393 84.7902 122.555 84.5841C122.942 84.5841 123.33 84.7902 123.33 84.9963C123.911 86.2328 122.942 87.4694 120.424 89.3242Z" fill="white"/>
</mask>
<g mask="url(#mask0_9002_24283)">
<g opacity="0.29">
<path d="M123.911 79.4334C122.942 80.0517 122.167 79.4334 121.199 79.6395C120.037 79.8456 118.875 80.2578 117.713 80.4639C115.582 80.8761 113.452 81.2882 111.321 81.7004C106.673 82.5247 102.025 83.5553 97.3767 84.5857C92.5347 85.6162 87.6928 87.0588 82.6572 87.471C77.8152 88.0893 72.7796 87.4709 67.9377 86.8527C57.8664 85.6161 48.9573 81.2882 40.0481 76.7542C36.1745 74.6933 32.4947 72.0141 28.6211 70.1593C24.5539 68.3045 17.7752 68.9227 14.6763 72.4263C10.4154 76.9603 13.5142 85.41 20.0993 83.9674C21.6487 83.5552 23.0044 83.3492 23.9728 83.3492C25.3286 83.3492 24.3602 83.5552 23.9728 83.143C25.1349 83.7613 26.1033 84.5857 27.2654 85.4101C31.9136 88.0893 36.7556 90.3563 41.5975 92.8294C50.894 97.3634 60.9653 100.249 71.2302 100.867C81.8825 101.691 91.76 98.3938 101.831 95.3024C106.286 93.8598 110.547 92.2111 115.001 90.5624C117.132 89.738 119.069 88.9136 121.005 87.8831C121.974 87.2649 122.942 86.4405 123.911 85.8222C124.879 84.9978 125.073 83.7613 126.041 82.9369C127.784 81.2882 125.847 78.1969 123.911 79.4334Z" fill="#448020"/>
</g>
</g>
<mask id="mask1_9002_24283" style="mask-type:luminance" maskUnits="userSpaceOnUse" x="17" y="79" width="107" height="28">
<path d="M120.424 89.3242C106.48 99.0105 97.9578 102.926 81.6888 105.399C78.3963 105.812 75.1038 106.224 71.6176 106.224C57.2854 106.43 41.2102 102.102 28.6211 90.3547C26.4907 88.2938 24.7476 85.4085 22.0361 84.7902C20.6804 84.378 19.3246 84.5841 17.9689 84.1719C17.5815 84.1719 17.1942 83.9658 17.0005 83.3476C17.0005 83.1415 17.1942 82.7293 17.1942 82.5232C17.3878 82.3171 17.5815 81.9049 17.7752 81.2867C18.5499 79.6379 20.0993 78.8136 21.6487 79.4318C37.724 84.378 47.0205 86.8511 67.3567 89.1181C70.4555 89.5303 80.1394 90.1486 83.4319 90.1486C87.1118 89.9425 90.598 89.5303 94.2779 89.1181C102.606 88.0877 110.934 86.645 119.069 85.2024C120.231 84.9963 121.393 84.7902 122.555 84.5841C122.942 84.5841 123.33 84.7902 123.33 84.9963C123.911 86.2328 122.942 87.4694 120.424 89.3242Z" fill="white"/>
</mask>
<g mask="url(#mask1_9002_24283)">
<g opacity="0.17">
<path d="M124.685 75.7274C123.717 76.3456 122.942 75.7274 121.974 75.9335C120.812 76.1395 119.65 76.5517 118.488 76.7578C116.357 77.17 114.227 77.5822 112.096 77.9944C107.448 78.8187 102.8 79.8492 98.1516 80.8796C93.3096 81.9101 88.4677 83.3527 83.4321 83.7649C78.5901 84.3832 73.5545 83.7649 68.7126 83.1467C58.6413 81.9101 49.7322 77.5822 40.823 73.0482C36.9494 70.9873 33.2696 68.308 29.396 66.4532C25.3288 64.5984 18.5501 65.2167 15.4512 68.7202C11.1903 73.2543 14.2891 81.704 20.8742 80.2614C22.4236 79.8492 23.7794 79.6431 24.7477 79.6431C26.1035 79.6431 25.1351 79.8492 24.7477 79.437C25.9098 80.0553 26.8782 80.8796 28.0403 81.704C32.6885 84.3832 37.5305 86.6502 42.3724 89.1233C51.6689 93.6573 61.7402 96.5426 72.0051 97.1609C82.6574 97.9852 92.5349 94.6878 102.606 91.5964C107.061 90.1538 111.322 88.505 115.776 86.8563C117.907 86.0319 119.843 85.2076 121.78 84.1771C122.749 83.5589 123.717 82.7345 124.685 82.1162C125.654 81.2918 125.847 80.0553 126.816 79.2309C128.365 77.5822 126.622 74.4908 124.685 75.7274Z" fill="#448020"/>
</g>
</g>
<mask id="mask2_9002_24283" style="mask-type:luminance" maskUnits="userSpaceOnUse" x="17" y="79" width="107" height="28">
<path d="M120.424 89.3242C106.48 99.0105 97.9578 102.926 81.6888 105.399C78.3963 105.812 75.1038 106.224 71.6176 106.224C57.2854 106.43 41.2102 102.102 28.6211 90.3547C26.4907 88.2938 24.7476 85.4085 22.0361 84.7902C20.6804 84.378 19.3246 84.5841 17.9689 84.1719C17.5815 84.1719 17.1942 83.9658 17.0005 83.3476C17.0005 83.1415 17.1942 82.7293 17.1942 82.5232C17.3878 82.3171 17.5815 81.9049 17.7752 81.2867C18.5499 79.6379 20.0993 78.8136 21.6487 79.4318C37.724 84.378 47.0205 86.8511 67.3567 89.1181C70.4555 89.5303 80.1394 90.1486 83.4319 90.1486C87.1118 89.9425 90.598 89.5303 94.2779 89.1181C102.606 88.0877 110.934 86.645 119.069 85.2024C120.231 84.9963 121.393 84.7902 122.555 84.5841C122.942 84.5841 123.33 84.7902 123.33 84.9963C123.911 86.2328 122.942 87.4694 120.424 89.3242Z" fill="white"/>
</mask>
<g mask="url(#mask2_9002_24283)">
<g opacity="0.17">
<path d="M124.492 72.4275C123.523 73.0458 122.748 72.4276 121.78 72.6336C120.618 72.8397 119.456 73.2519 118.294 73.458C116.163 73.8702 114.033 74.2824 111.903 74.6946C107.254 75.5189 102.606 76.5494 97.9577 77.5798C93.1158 78.6103 88.2738 80.053 83.2382 80.4652C78.3963 81.0834 73.3607 80.4651 68.5187 79.8469C58.4475 78.6103 49.5383 74.2824 40.6291 69.7484C36.7556 67.6875 33.0757 65.0082 29.2022 63.1534C25.1349 61.2986 18.3562 61.9169 15.2574 65.4204C10.9965 69.9545 14.0953 78.4042 20.6803 76.9616C22.2298 76.5494 23.5855 76.3433 24.5539 76.3433C25.9096 76.3433 24.9412 76.5494 24.5539 76.1372C25.716 76.7555 26.6843 77.5799 27.8464 78.4043C32.4947 81.0834 37.3366 83.3504 42.1786 85.8235C51.4751 90.3575 61.5463 93.2429 71.8112 93.8611C82.4635 94.6855 92.3411 91.388 102.412 88.2966C106.867 86.854 111.128 85.2053 115.582 83.5565C117.713 82.7322 119.65 81.9078 121.586 80.8773C122.555 80.259 123.523 79.4347 124.492 78.8164C125.46 77.992 125.654 76.7555 126.622 75.9311C128.171 74.2824 126.428 71.191 124.492 72.4275Z" fill="#448020"/>
</g>
</g>
<g opacity="0.23">
<path d="M108.804 90.9799C106.673 91.3921 104.543 91.186 102.219 91.3921C99.7007 91.5982 97.1829 92.6287 94.8588 93.2469C90.2105 94.4835 85.5622 95.3079 80.914 95.7201C76.2657 96.1323 71.8111 96.5444 67.1629 96.3383C64.6451 96.1322 61.9336 95.7201 59.4158 94.8957C57.2853 94.2774 55.5422 92.8348 53.2181 92.4226C49.5382 91.5982 47.4077 98.1932 50.7003 100.048C55.1548 102.521 59.2221 104.17 64.2577 104.582C69.487 104.994 74.91 104.376 79.9456 103.758C84.9812 102.933 89.8232 101.491 94.6651 99.8419C96.9892 99.0175 99.3134 98.1931 101.444 97.3688C104.155 96.3383 106.092 94.0713 108.804 92.6287C109.966 92.0104 109.578 90.7738 108.804 90.9799Z" fill="#42801C"/>
</g>
<g opacity="0.23">
<path d="M29.9768 86.239C30.5578 87.2695 30.5578 88.2999 31.1389 89.1243C31.9136 90.3608 32.882 91.1852 33.8504 92.0095C35.9808 93.6583 38.6923 94.8948 41.0164 96.3375C46.8268 100.047 50.313 89.3304 43.5342 88.2999C41.4038 87.8877 39.2733 87.2695 37.3366 86.6512C36.3682 86.239 35.2061 85.8268 34.2377 85.4146C33.2693 85.2086 32.1073 85.2085 31.1389 84.7963C30.3642 84.5902 29.5895 85.6207 29.9768 86.239Z" fill="#42801C"/>
</g>
<path d="M114.808 89.1239C108.998 93.6579 101.251 94.8945 94.8593 98.1919C94.472 98.398 94.6657 99.0164 95.053 99.0164C98.9266 99.0164 102.413 96.9554 105.705 95.3067C108.998 93.864 112.678 92.6275 115.195 89.7422C115.583 89.124 115.195 88.7117 114.808 89.1239Z" fill="#FEFEFE"/>
<path d="M90.7919 99.6359H90.5983C90.4046 99.6359 90.4046 99.6359 90.2109 99.842C90.0172 100.048 89.8236 100.46 90.0172 100.666C90.4046 101.285 91.373 101.078 91.5667 100.254C91.7603 99.8419 91.373 99.4298 90.7919 99.6359Z" fill="#FEFEFE"/>
<g style="mix-blend-mode:soft-light">
<path d="M21.8421 82.1144C21.0674 81.9083 19.7116 82.1144 19.1306 82.7326C18.9369 82.9387 18.9369 83.1449 19.1306 83.351C19.518 83.5571 19.9053 83.351 20.4864 83.351C20.8737 83.351 21.4547 83.1448 21.8421 82.9388C22.0358 82.7327 22.0358 82.3205 21.8421 82.1144Z" fill="#FEFEFE"/>
</g>
<path d="M49.3447 87.27C67.3568 77.7898 78.2027 74.2862 98.3452 73.874C102.412 73.874 106.48 73.874 110.547 74.2862C127.978 76.3471 146.765 83.9725 160.322 100.048C162.646 102.727 164.196 106.643 167.488 107.879C169.038 108.497 170.781 108.497 172.33 109.116C172.717 109.322 173.298 109.528 173.298 110.146C173.298 110.558 173.105 110.764 172.911 111.177C172.717 111.383 172.33 112.001 172.136 112.413C171.168 114.268 169.038 114.886 167.101 114.062C148.314 105.612 137.468 101.284 113.258 95.3075C109.578 94.2771 97.9578 92.0101 94.0843 91.5979C89.6297 91.1857 85.3688 91.1857 80.9142 91.1857C70.6493 91.1857 60.578 91.5979 50.3131 92.0101C48.7637 92.0101 47.6016 92.0101 46.0522 92.2162C45.6649 92.2162 45.2775 92.0101 45.0838 91.5979C44.6965 90.3614 46.0522 88.9187 49.3447 87.27Z" fill="#628F2C"/>
<mask id="mask3_9002_24283" style="mask-type:luminance" maskUnits="userSpaceOnUse" x="45" y="73" width="129" height="42">
<path d="M49.345 87.269C67.357 77.7888 78.203 74.2852 98.3454 73.873C102.413 73.873 106.48 73.8731 110.547 74.2853C127.978 76.3462 146.765 83.9716 160.322 100.047C162.646 102.726 164.196 106.642 167.488 107.878C169.038 108.496 170.781 108.496 172.33 109.115C172.718 109.321 173.299 109.527 173.299 110.145C173.299 110.557 173.105 110.763 172.911 111.176C172.718 111.382 172.33 112 172.137 112.412C171.168 114.267 169.038 114.885 167.101 114.061C148.314 105.611 137.468 101.283 113.259 95.3066C109.579 94.2761 97.9581 92.0091 94.0845 91.5969C89.6299 91.1848 85.369 91.1847 80.9144 91.1847C70.6495 91.1847 60.5783 91.5969 50.3134 92.0091C48.7639 92.0091 47.6019 92.0091 46.0525 92.2152C45.6651 92.2152 45.2777 92.0091 45.0841 91.5969C44.6967 90.3604 46.0525 88.9177 49.345 87.269Z" fill="white"/>
</mask>
<g mask="url(#mask3_9002_24283)">
<g opacity="0.29">
<path d="M43.7281 98.6035C44.8901 98.1913 45.8585 98.8096 47.0206 98.6035C48.3763 98.3974 49.9257 98.3974 51.2815 98.1913C53.7993 97.9852 56.5108 97.7791 59.0286 97.7791C64.8389 97.573 70.4556 97.1608 76.2659 96.5425C82.2699 95.9243 88.2739 95.0999 94.2779 95.306C100.282 95.306 106.286 96.7486 112.096 98.1913C123.911 101.283 134.176 107.671 144.44 114.679C148.895 117.77 152.769 121.686 157.223 124.365C161.871 127.25 170.006 127.456 174.267 123.953C180.077 119.007 177.366 108.496 169.231 109.114C167.294 109.32 165.745 109.526 164.583 109.32C162.84 108.908 164.196 109.114 164.583 109.526C163.421 108.496 162.259 107.465 160.903 106.435C155.674 102.313 150.057 99.0156 144.634 95.306C133.982 88.2989 122.361 83.5588 109.966 81.0857C97.1831 78.6126 84.9814 80.8796 72.3924 82.9405C66.7757 83.9709 61.3527 85.2075 55.9297 86.4441C53.2183 87.0623 50.7005 87.6806 48.1826 88.7111C46.8269 89.3294 45.6648 89.9476 44.3091 90.772C43.147 91.5964 42.566 93.2451 41.4039 94.0694C39.4671 95.7182 41.2102 99.84 43.7281 98.6035Z" fill="#5A8A23"/>
</g>
</g>
<mask id="mask4_9002_24283" style="mask-type:luminance" maskUnits="userSpaceOnUse" x="45" y="73" width="129" height="42">
<path d="M49.345 87.269C67.357 77.7888 78.203 74.2852 98.3454 73.873C102.413 73.873 106.48 73.8731 110.547 74.2853C127.978 76.3462 146.765 83.9716 160.322 100.047C162.646 102.726 164.196 106.642 167.488 107.878C169.038 108.496 170.781 108.496 172.33 109.115C172.718 109.321 173.299 109.527 173.299 110.145C173.299 110.557 173.105 110.763 172.911 111.176C172.718 111.382 172.33 112 172.137 112.412C171.168 114.267 169.038 114.885 167.101 114.061C148.314 105.611 137.468 101.283 113.259 95.3066C109.579 94.2761 97.9581 92.0091 94.0845 91.5969C89.6299 91.1848 85.369 91.1847 80.9144 91.1847C70.6495 91.1847 60.5783 91.5969 50.3134 92.0091C48.7639 92.0091 47.6019 92.0091 46.0525 92.2152C45.6651 92.2152 45.2777 92.0091 45.0841 91.5969C44.6967 90.3604 46.0525 88.9177 49.345 87.269Z" fill="white"/>
</mask>
<g mask="url(#mask4_9002_24283)">
<g opacity="0.17">
<path d="M42.5664 102.935C43.7284 102.522 44.6968 103.141 45.8589 102.935C47.2146 102.728 48.7641 102.728 50.1198 102.522C52.6376 102.316 55.3491 102.11 57.8669 102.11C63.6772 101.904 69.2939 101.492 75.1042 100.874C81.1082 100.255 87.1122 99.431 93.1162 99.637C99.1203 99.637 105.124 101.08 110.935 102.522C122.749 105.614 133.014 112.003 143.279 119.01C147.733 122.101 151.607 126.017 156.061 128.696C160.71 131.581 168.844 131.787 173.105 128.284C178.915 123.338 176.204 112.827 168.07 113.445C166.133 113.651 164.583 113.857 163.421 113.651C161.678 113.239 163.034 113.445 163.421 113.857C162.259 112.827 161.097 111.796 159.741 110.766C154.512 106.644 148.895 103.347 143.472 99.637C132.82 92.6299 121.2 87.8898 108.804 85.4167C96.0214 82.9436 83.8197 85.2106 71.2307 87.2715C65.614 88.302 60.191 89.5386 54.7681 90.7751C52.0566 91.3934 49.5388 92.0116 47.021 93.0421C45.6652 93.6604 44.5032 94.2786 43.1474 95.103C41.9853 95.9274 41.4043 97.5761 40.2422 98.4005C38.1118 100.049 40.0486 104.171 42.5664 102.935Z" fill="#5A8A23"/>
</g>
</g>
<mask id="mask5_9002_24283" style="mask-type:luminance" maskUnits="userSpaceOnUse" x="45" y="73" width="129" height="42">
<path d="M49.345 87.269C67.357 77.7888 78.203 74.2852 98.3454 73.873C102.413 73.873 106.48 73.8731 110.547 74.2853C127.978 76.3462 146.765 83.9716 160.322 100.047C162.646 102.726 164.196 106.642 167.488 107.878C169.038 108.496 170.781 108.496 172.33 109.115C172.718 109.321 173.299 109.527 173.299 110.145C173.299 110.557 173.105 110.763 172.911 111.176C172.718 111.382 172.33 112 172.137 112.412C171.168 114.267 169.038 114.885 167.101 114.061C148.314 105.611 137.468 101.283 113.259 95.3066C109.579 94.2761 97.9581 92.0091 94.0845 91.5969C89.6299 91.1848 85.369 91.1847 80.9144 91.1847C70.6495 91.1847 60.5783 91.5969 50.3134 92.0091C48.7639 92.0091 47.6019 92.0091 46.0525 92.2152C45.6651 92.2152 45.2777 92.0091 45.0841 91.5969C44.6967 90.3604 46.0525 88.9177 49.345 87.269Z" fill="white"/>
</mask>
<g mask="url(#mask5_9002_24283)">
<g opacity="0.17">
<path d="M42.3728 107.053C43.5348 106.641 44.5032 107.259 45.6653 107.053C47.021 106.847 48.5705 106.847 49.9262 106.64C52.444 106.434 55.1555 106.228 57.6733 106.228C63.4836 106.022 69.1003 105.61 74.9106 104.992C80.9146 104.373 86.9186 103.549 92.9226 103.755C98.9267 103.755 104.931 105.198 110.741 106.64C122.555 109.732 132.82 116.121 143.085 123.128C147.54 126.219 151.413 130.135 155.868 132.814C160.516 135.699 168.651 135.906 172.912 132.402C178.722 127.456 176.01 116.945 167.876 117.563C165.939 117.769 164.39 117.976 163.228 117.769C161.485 117.357 162.84 117.563 163.228 117.976C162.066 116.945 160.904 115.915 159.548 114.884C154.318 110.762 148.702 107.465 143.279 103.755C132.627 96.7481 121.006 92.008 108.611 89.5349C95.8278 87.0618 83.6261 89.3288 71.0371 91.3897C65.4204 92.4202 59.9974 93.6567 54.5745 94.8933C51.863 95.5116 49.3452 96.1298 46.8274 97.1602C45.4716 97.7785 44.3095 98.3968 42.9538 99.2212C41.7917 100.046 41.2107 101.694 40.0486 102.519C37.9182 104.167 39.855 108.083 42.3728 107.053Z" fill="#5A8A23"/>
</g>
</g>
<path d="M63.6768 87.0662C66.3882 86.8602 68.906 87.6846 71.6175 87.6846C74.7164 87.6846 77.8152 87.0663 80.7204 86.6541C86.337 86.0358 92.1474 85.6236 97.764 85.8297C103.381 86.0358 108.804 86.2419 114.42 87.2724C117.519 87.8906 120.618 88.715 123.523 90.1576C126.041 91.3942 127.978 93.249 130.689 94.0734C135.144 95.7221 138.436 88.0967 134.563 85.4175C129.527 81.7079 124.685 79.0287 118.681 77.7921C112.484 76.3495 105.898 76.3495 99.5071 76.5556C93.3094 76.7617 87.3054 77.7921 81.3014 79.0287C78.3963 79.647 75.4911 80.2652 72.5859 81.0896C69.0997 81.914 66.3882 84.3871 63.0957 85.6236C62.321 85.6236 62.7084 87.0662 63.6768 87.0662Z" fill="#598A1E"/>
<path d="M158.191 104.789C157.804 103.552 157.61 102.315 157.223 101.079C156.448 99.6363 155.48 98.3997 154.318 97.1631C151.994 94.69 148.895 93.0413 146.377 90.9804C139.792 85.622 134.175 97.9875 142.116 100.254C144.634 100.873 146.958 102.109 149.476 103.14C150.638 103.758 151.8 104.376 153.156 104.995C154.318 105.613 155.674 105.613 156.836 106.231C157.417 106.849 158.579 105.819 158.191 104.789Z" fill="#598A1E"/>
<path d="M56.1235 88.5063C63.6769 83.9723 73.1671 83.5601 81.3016 80.6748C81.6889 80.4687 81.6889 79.8504 81.3016 79.6443C76.6533 79.2322 72.1987 81.087 67.9378 82.5297C63.6769 83.7662 59.2223 84.5905 55.7361 87.888C55.3488 88.0941 55.7361 88.7124 56.1235 88.5063Z" fill="#FEFEFE"/>
<path d="M86.531 79.233C86.531 79.233 86.7247 79.233 86.9183 79.233C87.112 79.233 87.3057 79.233 87.4994 79.0269C87.8867 78.8208 87.8867 78.4086 87.6931 77.9965C87.112 77.1721 86.1436 77.3782 85.7563 78.2026C85.3689 78.8208 85.95 79.4391 86.531 79.233Z" fill="#FEFEFE"/>
<path d="M167.488 110.971C168.457 111.383 170.006 111.383 170.781 110.765C170.974 110.559 170.974 110.353 170.781 110.147C170.2 109.94 169.812 109.94 169.231 109.94C168.65 109.94 168.069 110.147 167.682 110.147C167.295 110.353 167.101 110.971 167.488 110.971Z" fill="#FEFEFE"/>
<path d="M57.6728 127.869C67.5503 109.321 74.7164 99.8404 91.179 87.4749C94.4715 85.0018 97.9577 82.5287 101.444 80.4678C116.938 71.8119 136.5 66.8657 156.255 72.2241C159.547 73.0485 162.84 75.3155 166.326 74.4911C167.875 74.0789 169.425 73.0485 170.974 72.6363C171.362 72.4302 171.943 72.4302 172.33 72.8424C172.524 73.0485 172.524 73.4607 172.524 73.8728C172.524 74.285 172.524 74.9033 172.524 75.5215C172.524 77.5825 171.168 79.4373 169.231 79.8495C149.282 84.1774 138.049 86.8566 114.808 96.3368C111.128 97.7795 100.476 102.726 96.9893 104.787C93.1158 107.054 89.6296 109.733 85.9497 112.206C77.4279 118.389 69.2934 124.571 61.159 131.166C59.9969 132.197 58.8349 132.815 57.6728 133.846C57.2854 134.052 56.8981 134.052 56.5107 133.846C55.5423 133.227 55.9297 131.166 57.6728 127.869Z" fill="#85A834"/>
<mask id="mask6_9002_24283" style="mask-type:luminance" maskUnits="userSpaceOnUse" x="55" y="70" width="118" height="64">
<path d="M57.673 127.868C67.5505 109.32 74.7166 99.8394 91.1792 87.4739C94.4717 85.0008 97.9579 82.5277 101.444 80.4668C116.938 71.811 136.5 66.8648 156.255 72.2232C159.547 73.0475 162.84 75.3145 166.326 74.4901C167.876 74.0779 169.425 73.0475 170.974 72.6353C171.362 72.4292 171.943 72.4292 172.33 72.8414C172.524 73.0475 172.524 73.4597 172.524 73.8719C172.524 74.284 172.524 74.9023 172.524 75.5206C172.524 77.5815 171.168 79.4363 169.231 79.8485C149.283 84.1764 138.049 86.8556 114.808 96.3358C111.128 97.7785 100.476 102.725 96.9895 104.786C93.116 107.053 89.6298 109.732 85.9499 112.205C77.4281 118.388 69.2936 124.57 61.1592 131.165C59.9971 132.196 58.835 132.814 57.673 133.845C57.2856 134.051 56.8983 134.051 56.5109 133.845C55.5425 133.226 55.9299 131.165 57.673 127.868Z" fill="white"/>
</mask>
<g mask="url(#mask6_9002_24283)">
<g opacity="0.29">
<path d="M59.0288 140.645C59.6099 139.615 60.9656 139.408 61.7403 138.79C62.9024 137.76 63.8708 136.935 65.0328 135.905C66.9696 134.05 69.1001 132.607 71.2305 130.959C75.8788 127.249 80.3334 123.539 84.788 119.624C89.4362 115.502 94.0845 111.38 99.1201 107.67C104.156 104.167 109.772 101.694 115.389 99.4266C126.816 94.8926 138.824 94.0683 150.832 93.8622C156.061 93.6561 161.484 94.6865 166.52 94.2743C171.943 93.8622 178.915 89.3281 180.465 83.7636C182.595 76.3443 174.848 69.1311 168.65 74.4895C167.101 75.7261 165.939 76.9627 164.777 77.3749C163.227 78.1992 164.196 77.3748 164.971 77.5809C163.421 77.5809 161.872 77.1688 160.322 77.1688C153.931 76.9627 147.346 77.3748 140.954 77.787C128.365 78.4053 116.164 81.2906 104.737 86.649C92.9224 92.0074 83.8196 101.281 74.7167 110.556C70.6495 114.677 66.7759 119.005 62.9024 123.333C60.9656 125.394 59.2225 127.455 57.6731 129.928C56.8984 131.165 56.3174 132.607 55.5427 133.844C54.9616 135.287 55.349 136.729 54.9616 138.172C53.9932 140.851 57.4794 143.118 59.0288 140.645Z" fill="#7DA329"/>
</g>
</g>
<mask id="mask7_9002_24283" style="mask-type:luminance" maskUnits="userSpaceOnUse" x="55" y="70" width="118" height="64">
<path d="M57.673 127.868C67.5505 109.32 74.7166 99.8394 91.1792 87.4739C94.4717 85.0008 97.9579 82.5277 101.444 80.4668C116.938 71.811 136.5 66.8648 156.255 72.2232C159.547 73.0475 162.84 75.3145 166.326 74.4901C167.876 74.0779 169.425 73.0475 170.974 72.6353C171.362 72.4292 171.943 72.4292 172.33 72.8414C172.524 73.0475 172.524 73.4597 172.524 73.8719C172.524 74.284 172.524 74.9023 172.524 75.5206C172.524 77.5815 171.168 79.4363 169.231 79.8485C149.283 84.1764 138.049 86.8556 114.808 96.3358C111.128 97.7785 100.476 102.725 96.9895 104.786C93.116 107.053 89.6298 109.732 85.9499 112.205C77.4281 118.388 69.2936 124.57 61.1592 131.165C59.9971 132.196 58.835 132.814 57.673 133.845C57.2856 134.051 56.8983 134.051 56.5109 133.845C55.5425 133.226 55.9299 131.165 57.673 127.868Z" fill="white"/>
</mask>
<g mask="url(#mask7_9002_24283)">
<g opacity="0.17">
<path d="M60.1906 144.976C60.7716 143.946 62.1274 143.739 62.9021 143.121C64.0641 142.091 65.0325 141.266 66.1946 140.236C68.1314 138.381 70.2618 136.938 72.3923 135.29C77.0406 131.58 81.4951 127.87 85.9497 123.955C90.598 119.833 95.2463 115.711 100.282 112.001C105.317 108.498 110.934 106.025 116.551 103.758C127.978 99.2237 139.986 98.3993 151.994 98.1932C157.223 97.9871 162.646 99.0176 167.682 98.6054C173.105 98.1932 180.077 93.6592 181.626 88.0947C183.757 80.6754 176.01 73.4622 169.812 78.8206C168.263 80.0571 167.101 81.2937 165.939 81.7058C164.389 82.5302 165.358 81.7059 166.132 81.912C164.583 81.912 163.033 81.4998 161.484 81.4998C155.093 81.2937 148.508 81.7059 142.116 82.1181C129.527 82.7363 117.326 85.6216 105.899 90.98C94.0842 96.3384 84.9813 105.612 75.8785 114.887C71.8113 119.008 67.9377 123.336 64.0641 127.664C62.1274 129.725 60.3843 131.786 58.8349 134.259C58.0601 135.496 57.4791 136.938 56.7044 138.175C56.1234 139.618 56.5107 141.06 56.1234 142.503C55.155 145.182 58.8349 147.449 60.1906 144.976Z" fill="#7DA329"/>
</g>
</g>
<mask id="mask8_9002_24283" style="mask-type:luminance" maskUnits="userSpaceOnUse" x="55" y="70" width="118" height="64">
<path d="M57.673 127.868C67.5505 109.32 74.7166 99.8394 91.1792 87.4739C94.4717 85.0008 97.9579 82.5277 101.444 80.4668C116.938 71.811 136.5 66.8648 156.255 72.2232C159.547 73.0475 162.84 75.3145 166.326 74.4901C167.876 74.0779 169.425 73.0475 170.974 72.6353C171.362 72.4292 171.943 72.4292 172.33 72.8414C172.524 73.0475 172.524 73.4597 172.524 73.8719C172.524 74.284 172.524 74.9023 172.524 75.5206C172.524 77.5815 171.168 79.4363 169.231 79.8485C149.283 84.1764 138.049 86.8556 114.808 96.3358C111.128 97.7785 100.476 102.725 96.9895 104.786C93.116 107.053 89.6298 109.732 85.9499 112.205C77.4281 118.388 69.2936 124.57 61.1592 131.165C59.9971 132.196 58.835 132.814 57.673 133.845C57.2856 134.051 56.8983 134.051 56.5109 133.845C55.5425 133.226 55.9299 131.165 57.673 127.868Z" fill="white"/>
</mask>
<g mask="url(#mask8_9002_24283)">
<g opacity="0.17">
<path d="M62.1274 148.479C62.7084 147.449 64.0641 147.242 64.8389 146.624C66.0009 145.594 66.9693 144.769 68.1314 143.739C70.0682 141.884 72.1986 140.441 74.3291 138.793C78.9773 135.083 83.4319 131.373 87.8865 127.458C92.5348 123.336 97.183 119.214 102.219 115.504C107.254 112.001 112.871 109.528 118.488 107.261C129.915 102.727 141.923 101.902 153.931 101.696C159.16 101.49 164.583 102.521 169.618 102.108C175.041 101.696 182.014 97.1621 183.563 91.5976C185.694 84.1783 177.947 76.9651 171.749 82.3235C170.2 83.5601 169.037 84.7966 167.875 85.2088C166.326 86.0331 167.294 85.2088 168.069 85.4149C166.52 85.4149 164.97 85.0027 163.421 85.0027C157.029 84.7966 150.444 85.2088 144.053 85.621C131.464 86.2393 119.262 89.1245 107.835 94.4829C96.021 99.8413 86.9181 109.115 77.8153 118.39C73.748 122.511 69.8745 126.839 66.0009 131.167C64.0641 133.228 62.321 135.289 60.7716 137.762C59.9969 138.999 59.4159 140.441 58.6412 141.678C58.0601 143.121 58.4475 144.563 58.0601 146.006C57.0917 148.685 60.7716 150.746 62.1274 148.479Z" fill="#7DA329"/>
</g>
</g>
<path d="M69.4869 119.005C71.6173 117.15 74.1351 116.326 76.2656 114.883C78.7834 113.234 81.1075 110.761 83.4317 108.494C87.6926 104.579 92.3409 100.869 97.1828 97.5715C101.831 94.274 106.673 91.3887 111.709 88.9156C114.614 87.4729 117.519 86.4425 120.618 85.8242C123.329 85.2059 126.041 85.6181 128.752 84.7937C133.207 83.3511 132.045 75.3136 127.397 75.1075C121.392 74.9014 115.97 75.7257 110.353 78.1988C104.543 80.878 98.9259 84.5877 93.6966 88.5034C88.661 92.2131 84.2064 96.7471 79.9455 101.487C77.815 103.754 75.8783 106.021 73.9415 108.288C71.6173 110.967 70.649 114.677 68.3248 117.562C67.5501 118.593 68.7122 119.623 69.4869 119.005Z" fill="#7CA324"/>
<path d="M157.029 77.3762C156.061 76.5518 155.286 75.5213 154.124 74.9031C152.768 74.0787 151.219 73.6665 149.669 73.4604C146.377 72.8421 143.084 73.2543 139.792 73.0483C131.464 72.6361 133.401 86.2381 141.148 83.3528C143.665 82.5285 146.183 81.9102 148.701 81.498C150.057 81.2919 151.413 81.0858 152.768 80.8797C154.124 80.6736 155.286 79.8492 156.448 79.6431C157.61 79.6431 157.804 77.9945 157.029 77.3762Z" fill="#7CA324"/>
<path d="M63.8709 124.777C67.7445 116.534 75.4916 110.557 80.7209 103.344C80.9145 102.932 80.5272 102.313 80.1398 102.519C76.0726 104.786 73.3611 109.114 70.4559 112.824C67.7445 116.328 64.2583 119.831 63.0962 124.571C63.0962 124.983 63.6772 125.19 63.8709 124.777Z" fill="#FEFEFE"/>
<path d="M84.2065 99.2212L84.4002 99.0152C84.5938 98.8091 84.5939 98.8091 84.7875 98.603C84.9812 98.1908 84.7875 97.7786 84.5939 97.5725C83.8192 97.1603 83.0444 97.9847 83.0444 98.8091C83.0444 99.4274 83.8191 99.6334 84.2065 99.2212Z" fill="#FEFEFE"/>
<path d="M168.069 77.1738C169.037 76.9677 170.393 76.1434 170.587 75.1129C170.587 74.9068 170.587 74.4946 170.2 74.7007C169.618 74.7007 169.231 75.1129 168.844 75.5251C168.456 75.9372 168.069 76.3494 167.682 76.7616C167.488 76.7616 167.682 77.1738 168.069 77.1738Z" fill="#FEFEFE"/>
<path d="M50.8941 106.23C53.7992 106.436 56.7044 105.199 59.4159 104.375C73.748 99.6349 88.8549 97.7801 103.962 96.7496C108.61 96.5435 113.065 96.1313 117.713 96.3374C132.045 96.7496 145.99 101.078 159.935 105.199C167.294 107.466 174.848 109.733 182.208 111.794C182.401 113.443 180.271 114.061 178.721 114.061C170.974 114.061 163.421 113.443 155.867 112.207C149.089 111.176 142.31 109.94 135.531 109.321C130.883 108.909 126.235 108.909 121.586 108.909C99.3135 108.909 74.5227 109.527 52.2498 109.321C50.5067 109.527 47.9889 107.466 50.8941 106.23Z" fill="#6B8E00"/>
<mask id="mask9_9002_24283" style="mask-type:luminance" maskUnits="userSpaceOnUse" x="49" y="96" width="134" height="19">
<path d="M50.8941 106.229C53.7992 106.435 56.7044 105.198 59.4159 104.374C73.748 99.6339 88.8549 97.7791 103.962 96.7486C108.61 96.5426 113.065 96.1303 117.713 96.3364C132.045 96.7486 145.99 101.077 159.935 105.198C167.294 107.465 174.848 109.732 182.208 111.793C182.401 113.442 180.271 114.06 178.721 114.06C170.974 114.06 163.421 113.442 155.867 112.206C149.089 111.175 142.31 109.939 135.531 109.32C130.883 108.908 126.235 108.908 121.586 108.908C99.3135 108.908 74.5227 109.526 52.2498 109.32C50.5067 109.526 47.9889 107.465 50.8941 106.229Z" fill="white"/>
</mask>
<g mask="url(#mask9_9002_24283)">
<path d="M48.1822 105.61C51.0873 108.701 55.5419 106.434 58.6408 105.404C64.8385 103.343 70.4551 102.106 76.4591 101.076C89.0482 98.8086 104.542 97.7781 114.807 97.366C120.424 97.1599 125.266 97.366 130.689 98.3964C138.242 99.8391 143.859 101.076 149.863 102.93C156.061 104.785 161.871 106.434 168.069 108.289C170.974 109.113 175.816 110.762 178.721 111.792C181.239 112.617 183.176 112.411 185.693 111.998C186.468 111.792 184.725 108.495 183.95 108.083C173.492 102.93 161.871 100.87 150.831 97.5721C145.408 96.1294 139.598 94.0685 133.981 93.4502C127.977 92.832 121.973 92.832 115.969 92.6259C103.961 92.2137 91.9533 91.3893 80.139 94.0685C74.3287 95.305 68.3247 96.7477 62.5143 98.6025C59.8028 99.4269 57.0913 100.87 54.3798 101.694C52.2494 102.312 50.1189 102.518 48.5695 104.167C47.7948 104.579 47.7948 105.197 48.1822 105.61Z" fill="#ADD55A"/>
</g>
<mask id="mask10_9002_24283" style="mask-type:luminance" maskUnits="userSpaceOnUse" x="49" y="96" width="134" height="19">
<path d="M50.8941 106.229C53.7992 106.435 56.7044 105.198 59.4159 104.374C73.748 99.6339 88.8549 97.7791 103.962 96.7486C108.61 96.5426 113.065 96.1303 117.713 96.3364C132.045 96.7486 145.99 101.077 159.935 105.198C167.294 107.465 174.848 109.732 182.208 111.793C182.401 113.442 180.271 114.06 178.721 114.06C170.974 114.06 163.421 113.442 155.867 112.206C149.089 111.175 142.31 109.939 135.531 109.32C130.883 108.908 126.235 108.908 121.586 108.908C99.3135 108.908 74.5227 109.526 52.2498 109.32C50.5067 109.526 47.9889 107.465 50.8941 106.229Z" fill="white"/>
</mask>
<g mask="url(#mask10_9002_24283)">
<g opacity="0.46">
<path d="M57.8662 113.443C59.4156 114.061 60.7714 114.885 62.3208 115.297C64.2576 115.916 66.388 115.916 68.3248 115.916C73.5541 115.71 78.7834 115.504 84.2064 115.091C95.246 114.267 106.286 113.236 117.519 114.061C127.978 114.885 138.436 116.946 148.701 119.419C158.772 121.686 168.65 128.899 179.108 127.457C182.982 126.839 183.757 121.068 181.433 118.595C177.946 114.679 172.33 114.061 167.875 112.206C162.646 110.351 157.417 108.29 151.994 106.848C140.76 104.168 129.14 101.901 117.519 101.077C105.898 100.253 94.2776 101.489 82.657 102.932C77.0403 103.756 71.23 104.375 65.807 105.611C62.3208 106.435 59.0283 107.054 56.8978 110.557C56.3168 111.794 56.8978 113.03 57.8662 113.443Z" fill="#487A07"/>
</g>
</g>
<mask id="mask11_9002_24283" style="mask-type:luminance" maskUnits="userSpaceOnUse" x="49" y="96" width="134" height="19">
<path d="M50.8941 106.229C53.7992 106.435 56.7044 105.198 59.4159 104.374C73.748 99.6339 88.8549 97.7791 103.962 96.7486C108.61 96.5426 113.065 96.1303 117.713 96.3364C132.045 96.7486 145.99 101.077 159.935 105.198C167.294 107.465 174.848 109.732 182.208 111.793C182.401 113.442 180.271 114.06 178.721 114.06C170.974 114.06 163.421 113.442 155.867 112.206C149.089 111.175 142.31 109.939 135.531 109.32C130.883 108.908 126.235 108.908 121.586 108.908C99.3135 108.908 74.5227 109.526 52.2498 109.32C50.5067 109.526 47.9889 107.465 50.8941 106.229Z" fill="white"/>
</mask>
<g mask="url(#mask11_9002_24283)">
<g opacity="0.46">
<path d="M57.8664 117.155C59.4158 117.773 60.7716 118.597 62.321 119.009C64.2578 119.628 66.3882 119.628 68.325 119.628C73.5543 119.422 78.7836 119.215 84.2065 118.803C95.2462 117.979 106.286 116.948 117.519 117.773C127.978 118.597 138.436 120.658 148.701 123.131C158.772 125.398 168.65 132.611 179.109 131.169C182.982 130.55 183.757 124.78 181.433 122.307C177.947 118.391 172.33 117.773 167.875 115.918C162.646 114.063 157.417 112.002 151.994 110.56C140.76 107.88 129.14 105.613 117.519 104.789C105.898 103.965 94.2778 105.201 82.6571 106.644C77.0405 107.468 71.2301 108.087 65.8072 109.323C62.321 110.147 59.0285 110.766 56.898 114.269C56.1233 115.506 56.898 116.948 57.8664 117.155Z" fill="#487A07"/>
</g>
</g>
<path d="M62.1271 110.351C61.9334 110.145 61.9334 109.733 61.9334 109.321C61.9334 108.909 61.9334 108.29 61.7397 107.878C61.7397 107.26 61.7397 106.848 61.7397 106.229C61.9334 103.962 63.6765 102.314 65.6133 101.695C67.5501 101.077 69.6805 101.283 71.6173 101.489C72.392 101.695 73.3604 101.901 74.1351 102.314C75.6845 103.344 75.8782 105.611 75.6845 107.672C75.6845 109.115 75.4909 110.557 74.5225 111.794C73.1667 113.649 70.4552 114.061 68.3248 113.855C67.5501 113.855 66.969 113.855 66.1943 113.649C64.8386 113.237 63.8702 112.206 62.9018 111.382C62.7081 111.176 62.3208 110.763 62.1271 110.351Z" fill="#8CBC15"/>
<mask id="mask12_9002_24283" style="mask-type:luminance" maskUnits="userSpaceOnUse" x="61" y="101" width="15" height="13">
<path d="M62.1273 110.348C61.9337 110.142 61.9337 109.73 61.9337 109.318C61.9337 108.906 61.9337 108.287 61.74 107.875C61.74 107.257 61.74 106.845 61.74 106.227C61.9337 103.959 63.6768 102.311 65.6135 101.692C67.5503 101.074 69.6808 101.28 71.6175 101.486C72.3923 101.692 73.3607 101.899 74.1354 102.311C75.6848 103.341 75.8785 105.608 75.6848 107.669C75.6848 109.112 75.4911 110.554 74.5227 111.791C73.167 113.646 70.4555 114.058 68.325 113.852C67.5503 113.852 66.9693 113.852 66.1946 113.646C64.8388 113.234 63.8704 112.203 62.9021 111.379C62.7084 111.173 62.321 110.761 62.1273 110.348Z" fill="white"/>
</mask>
<g mask="url(#mask12_9002_24283)">
<path d="M66.5816 104.579C66.7753 102.725 68.131 101.282 69.8741 100.87C71.4236 100.251 73.1667 100.458 74.9098 100.87C75.6845 101.076 76.4592 101.076 77.0402 101.488C78.2023 102.518 78.396 104.373 78.396 105.816C78.396 107.052 78.2023 108.289 77.4276 109.319C76.2655 110.968 74.1351 111.174 72.1983 110.968C71.6172 110.968 71.0362 110.968 70.4552 110.762C69.2931 110.35 68.5184 109.526 67.7437 108.907C67.3563 108.495 66.1943 107.259 66.5816 104.579Z" fill="#A8CF2E"/>
</g>
<mask id="mask13_9002_24283" style="mask-type:luminance" maskUnits="userSpaceOnUse" x="61" y="101" width="15" height="13">
<path d="M62.1273 110.348C61.9337 110.142 61.9337 109.73 61.9337 109.318C61.9337 108.906 61.9337 108.287 61.74 107.875C61.74 107.257 61.74 106.845 61.74 106.227C61.9337 103.959 63.6768 102.311 65.6135 101.692C67.5503 101.074 69.6808 101.28 71.6175 101.486C72.3923 101.692 73.3607 101.899 74.1354 102.311C75.6848 103.341 75.8785 105.608 75.6848 107.669C75.6848 109.112 75.4911 110.554 74.5227 111.791C73.167 113.646 70.4555 114.058 68.325 113.852C67.5503 113.852 66.9693 113.852 66.1946 113.646C64.8388 113.234 63.8704 112.203 62.9021 111.379C62.7084 111.173 62.321 110.761 62.1273 110.348Z" fill="white"/>
</mask>
<g mask="url(#mask13_9002_24283)">
<g opacity="0.5">
<path d="M66.3881 99.8387C64.064 97.5717 61.5462 97.9839 59.4158 100.663C56.8979 103.961 56.8979 108.288 58.4474 111.998C60.5778 117.356 69.2933 122.921 73.7479 117.15C74.91 115.708 75.8783 113.647 73.7479 113.235C71.4238 112.822 67.7439 113.235 65.8071 111.38C64.645 110.143 63.6767 107.67 63.483 106.021C63.483 104.991 64.2577 102.518 66.7755 101.694C67.7439 101.075 67.1629 100.663 66.3881 99.8387Z" fill="#538D08"/>
</g>
</g>
<path d="M67.1626 106.026C68.131 107.056 69.8741 108.293 71.2298 107.674C72.3919 107.262 72.7792 106.232 72.5855 104.995C72.1982 102.316 68.5183 101.904 67.1626 103.553C66.5815 104.377 66.5815 105.407 67.1626 106.026Z" fill="#C2E06F"/>
<path d="M73.5539 108.909C74.3286 108.909 74.3286 107.673 73.5539 107.467C72.7792 107.467 72.7792 108.909 73.5539 108.909Z" fill="#C2E06F"/>
<path d="M76.6529 108.699C76.4592 108.287 76.4592 108.081 76.4592 107.669C76.4592 107.05 76.4592 106.638 76.2655 106.02C76.2655 105.402 76.0718 104.783 76.2655 104.165C76.4592 101.692 78.396 99.837 80.5264 99.2187C82.6569 98.3944 84.981 98.8066 87.3051 99.0127C88.2735 99.2188 89.2419 99.4249 90.0166 100.043C91.5661 101.28 91.9534 103.753 91.7597 106.02C91.7597 107.669 91.3724 109.317 90.5977 110.554C89.0483 112.615 86.1431 113.027 83.6253 112.821C82.8506 112.821 82.0759 112.821 81.3011 112.409C79.9454 111.996 78.7833 110.966 77.6213 109.729C77.2339 109.523 76.8465 109.111 76.6529 108.699Z" fill="#8CBC15"/>
<mask id="mask14_9002_24283" style="mask-type:luminance" maskUnits="userSpaceOnUse" x="76" y="98" width="16" height="15">
<path d="M76.6529 108.694C76.4592 108.282 76.4592 108.076 76.4592 107.664C76.4592 107.045 76.4592 106.633 76.2655 106.015C76.2655 105.397 76.0718 104.778 76.2655 104.16C76.4592 101.687 78.396 99.8321 80.5264 99.2138C82.6569 98.3895 84.981 98.8017 87.3051 99.0078C88.2735 99.2139 89.2419 99.42 90.0166 100.038C91.5661 101.275 91.9534 103.748 91.7597 106.015C91.7597 107.664 91.3724 109.312 90.5977 110.549C89.0483 112.61 86.1431 113.022 83.6253 112.816C82.8506 112.816 82.0759 112.816 81.3011 112.404C79.9454 111.992 78.7833 110.961 77.6213 109.725C77.2339 109.518 76.8465 109.106 76.6529 108.694Z" fill="white"/>
</mask>
<g mask="url(#mask14_9002_24283)">
<path d="M81.6883 102.31C81.882 100.249 83.4314 98.8063 85.1745 98.1881C86.9176 97.5698 88.8544 97.7759 90.7912 98.1881C91.5659 98.3942 92.3406 98.3942 93.1153 99.0125C94.471 100.043 94.6647 102.104 94.471 103.959C94.471 105.195 94.2774 106.638 93.5026 107.668C92.1469 109.523 89.8228 109.729 87.886 109.523C87.305 109.523 86.5302 109.523 85.9492 109.317C84.7871 108.905 83.8188 108.081 82.8504 107.256C82.463 106.638 81.301 105.195 81.6883 102.31Z" fill="#A8CF2E"/>
</g>
<mask id="mask15_9002_24283" style="mask-type:luminance" maskUnits="userSpaceOnUse" x="76" y="98" width="16" height="15">
<path d="M76.6529 108.694C76.4592 108.282 76.4592 108.076 76.4592 107.664C76.4592 107.045 76.4592 106.633 76.2655 106.015C76.2655 105.397 76.0718 104.778 76.2655 104.16C76.4592 101.687 78.396 99.8321 80.5264 99.2138C82.6569 98.3895 84.981 98.8017 87.3051 99.0078C88.2735 99.2139 89.2419 99.42 90.0166 100.038C91.5661 101.275 91.9534 103.748 91.7597 106.015C91.7597 107.664 91.3724 109.312 90.5977 110.549C89.0483 112.61 86.1431 113.022 83.6253 112.816C82.8506 112.816 82.0759 112.816 81.3011 112.404C79.9454 111.992 78.7833 110.961 77.6213 109.725C77.2339 109.518 76.8465 109.106 76.6529 108.694Z" fill="white"/>
</mask>
<g mask="url(#mask15_9002_24283)">
<g opacity="0.5">
<path d="M81.3007 96.9501C78.5892 94.477 75.8777 94.8891 73.7472 97.7744C71.0357 101.278 70.8421 106.224 72.5852 110.346C75.103 116.323 84.5932 122.299 89.6288 116.117C90.7909 114.468 91.9529 112.201 89.6288 111.789C86.9173 111.376 83.0438 111.789 80.7196 109.728C79.3639 108.491 78.2018 105.606 78.2018 103.751C78.2018 102.721 78.9765 100.041 81.8817 99.011C83.0438 98.5988 82.2691 97.7744 81.3007 96.9501Z" fill="#538D08"/>
</g>
</g>
<path d="M82.2693 103.96C83.2377 105.197 85.1744 106.433 86.7239 105.815C87.8859 105.403 88.467 104.166 88.2733 102.93C87.8859 100.045 83.8187 99.4262 82.2693 101.281C81.6882 102.105 81.6882 103.136 82.2693 103.96Z" fill="#C2E06F"/>
<path d="M89.2417 107.051C90.2101 107.051 90.2101 105.608 89.2417 105.608C88.467 105.608 88.467 107.051 89.2417 107.051Z" fill="#C2E06F"/>
<path d="M95.0524 110.97C94.8587 110.764 94.665 110.352 94.4714 109.939C94.2777 109.321 94.084 108.909 93.8903 108.291C93.6966 107.673 93.3093 107.054 93.3093 106.436C92.7283 103.963 94.084 101.078 96.0208 99.6349C97.9575 97.9862 100.475 97.3679 102.799 96.9557C103.768 96.7497 104.93 96.5436 105.898 96.9557C108.029 97.574 108.997 100.047 109.578 102.314C109.966 103.963 110.353 105.818 109.772 107.466C108.997 110.352 106.092 111.588 103.381 112.619C102.606 112.825 101.831 113.237 100.863 113.237C99.3133 113.237 97.5702 112.619 96.2145 112C96.0208 111.794 95.4397 111.588 95.0524 110.97Z" fill="#8CBC15"/>
<mask id="mask16_9002_24283" style="mask-type:luminance" maskUnits="userSpaceOnUse" x="93" y="96" width="18" height="18">
<path d="M95.0526 110.97C94.859 110.764 94.6653 110.352 94.4716 109.939C94.2779 109.321 94.0842 108.909 93.8906 108.291C93.6969 107.673 93.3095 107.054 93.3095 106.436C92.7285 103.963 94.0842 101.078 96.021 99.6349C97.9578 97.9862 100.476 97.3679 102.8 96.9557C103.768 96.7497 104.93 96.5436 105.899 96.9557C108.029 97.574 108.997 100.047 109.578 102.314C109.966 103.963 110.353 105.818 109.772 107.466C108.997 110.352 106.092 111.588 103.381 112.619C102.606 112.825 101.831 113.237 100.863 113.237C99.3135 113.237 97.5704 112.619 96.2147 112C96.021 111.794 95.44 111.588 95.0526 110.97Z" fill="white"/>
</mask>
<g mask="url(#mask16_9002_24283)">
<path d="M97.9578 102.726C97.5705 100.665 98.5389 98.3977 100.282 97.1612C101.831 95.9246 103.962 95.3064 105.899 94.8942C106.673 94.6881 107.642 94.482 108.416 94.8942C110.16 95.5125 111.128 97.5734 111.515 99.4282C111.903 100.871 112.096 102.313 111.709 103.756C110.934 106.023 108.61 107.26 106.48 107.878C105.899 108.084 105.124 108.29 104.349 108.29C102.993 108.29 101.638 107.878 100.476 107.26C100.282 106.848 98.5389 105.817 97.9578 102.726Z" fill="#A8CF2E"/>
</g>
<mask id="mask17_9002_24283" style="mask-type:luminance" maskUnits="userSpaceOnUse" x="93" y="96" width="18" height="18">
<path d="M95.0526 110.97C94.859 110.764 94.6653 110.352 94.4716 109.939C94.2779 109.321 94.0842 108.909 93.8906 108.291C93.6969 107.673 93.3095 107.054 93.3095 106.436C92.7285 103.963 94.0842 101.078 96.021 99.6349C97.9578 97.9862 100.476 97.3679 102.8 96.9557C103.768 96.7497 104.93 96.5436 105.899 96.9557C108.029 97.574 108.997 100.047 109.578 102.314C109.966 103.963 110.353 105.818 109.772 107.466C108.997 110.352 106.092 111.588 103.381 112.619C102.606 112.825 101.831 113.237 100.863 113.237C99.3135 113.237 97.5704 112.619 96.2147 112C96.021 111.794 95.44 111.588 95.0526 110.97Z" fill="white"/>
</mask>
<g mask="url(#mask17_9002_24283)">
<g opacity="0.5">
<path d="M95.8274 97.3679C92.3412 95.9253 89.6297 97.3679 88.274 101.284C86.7246 106.024 88.274 110.97 91.3728 114.68C95.8274 120.038 107.835 122.305 110.741 114.061C111.515 112 111.903 109.115 109.191 109.527C106.286 109.94 102.219 112 99.3136 110.764C97.3768 109.94 95.4401 107.466 94.6653 105.612C94.278 104.581 94.278 101.284 96.7958 99.2227C98.1515 98.1923 97.1832 97.7801 95.8274 97.3679Z" fill="#538D08"/>
</g>
</g>
<path d="M99.3134 103.963C100.669 104.788 103.187 105.2 104.543 104.169C105.705 103.139 105.898 101.902 105.124 100.46C103.768 97.5744 99.3134 98.6049 98.345 101.284C97.9576 102.315 98.345 103.551 99.3134 103.963Z" fill="#C2E06F"/>
<path d="M107.448 104.584C108.416 104.172 107.835 102.729 107.061 103.142C106.092 103.348 106.673 104.996 107.448 104.584Z" fill="#C2E06F"/>
<path d="M111.903 107.054C111.903 106.642 111.903 106.436 111.903 106.024C111.903 105.405 111.903 104.993 111.903 104.375C111.903 103.757 111.903 103.138 112.097 102.52C112.678 100.253 114.808 98.6042 117.132 98.192C119.456 97.7799 121.587 98.3982 123.911 99.0165C124.879 99.2226 125.848 99.6347 126.622 100.459C128.172 101.902 127.978 104.375 127.591 106.642C127.203 108.291 126.816 109.939 125.848 110.97C124.105 112.825 121.199 112.825 118.682 112.206C117.907 112 117.132 111.794 116.357 111.588C115.002 110.97 114.033 109.733 112.871 108.497C112.29 107.878 111.903 107.466 111.903 107.054Z" fill="#8CBC15"/>
<mask id="mask18_9002_24283" style="mask-type:luminance" maskUnits="userSpaceOnUse" x="111" y="98" width="17" height="15">
<path d="M111.903 107.055C111.903 106.643 111.903 106.437 111.903 106.025C111.903 105.406 111.903 104.994 111.903 104.376C111.903 103.758 111.903 103.139 112.097 102.521C112.678 100.254 114.808 98.6052 117.132 98.193C119.456 97.7808 121.587 98.3992 123.911 99.0174C124.879 99.2235 125.848 99.6357 126.623 100.46C128.172 101.903 127.978 104.376 127.591 106.643C127.204 108.292 126.816 109.94 125.848 110.971C124.105 112.826 121.2 112.826 118.682 112.207C117.907 112.001 117.132 111.795 116.358 111.589C115.002 110.971 114.034 109.734 112.871 108.498C112.29 107.879 111.903 107.467 111.903 107.055Z" fill="white"/>
</mask>
<g mask="url(#mask18_9002_24283)">
<path d="M117.519 101.488C118.1 99.6328 119.844 98.1902 121.587 97.778C123.523 97.3658 125.267 97.9841 127.203 98.6023C127.978 98.8084 128.753 99.2206 129.334 99.6328C130.496 100.869 130.496 102.93 130.109 104.785C129.915 106.022 129.527 107.464 128.559 108.495C127.01 110.143 124.686 109.937 122.555 109.525C121.974 109.319 121.199 109.319 120.618 108.907C119.456 108.289 118.682 107.258 117.907 106.228C117.713 105.816 116.745 104.167 117.519 101.488Z" fill="#A8CF2E"/>
</g>
<mask id="mask19_9002_24283" style="mask-type:luminance" maskUnits="userSpaceOnUse" x="111" y="98" width="17" height="15">
<path d="M111.903 107.055C111.903 106.643 111.903 106.437 111.903 106.025C111.903 105.406 111.903 104.994 111.903 104.376C111.903 103.758 111.903 103.139 112.097 102.521C112.678 100.254 114.808 98.6052 117.132 98.193C119.456 97.7808 121.587 98.3992 123.911 99.0174C124.879 99.2235 125.848 99.6357 126.623 100.46C128.172 101.903 127.978 104.376 127.591 106.643C127.204 108.292 126.816 109.94 125.848 110.971C124.105 112.826 121.2 112.826 118.682 112.207C117.907 112.001 117.132 111.795 116.358 111.589C115.002 110.971 114.034 109.734 112.871 108.498C112.29 107.879 111.903 107.467 111.903 107.055Z" fill="white"/>
</mask>
<g mask="url(#mask19_9002_24283)">
<g opacity="0.5">
<path d="M117.907 96.1308C115.583 93.2456 112.872 93.2456 110.16 95.9248C106.868 99.0162 106.286 103.756 107.449 108.29C108.998 114.679 117.907 122.098 123.717 116.534C125.073 115.091 126.623 113.03 124.299 112.206C121.781 111.382 117.713 111.176 115.777 108.909C114.615 107.466 113.84 104.375 114.034 102.52C114.227 101.489 115.389 98.8101 118.295 98.3979C119.263 97.7796 118.682 97.1613 117.907 96.1308Z" fill="#538D08"/>
</g>
</g>
<path d="M117.906 103.138C118.681 104.581 120.618 106.024 122.167 105.611C123.523 105.405 124.104 104.375 124.104 102.932C124.104 100.047 120.037 98.8104 118.294 100.459C117.713 101.077 117.519 102.314 117.906 103.138Z" fill="#C2E06F"/>
<path d="M124.492 107.259C125.46 107.465 125.654 106.022 124.685 105.816C123.911 105.816 123.717 107.259 124.492 107.259Z" fill="#C2E06F"/>
<path d="M128.365 108.911C128.171 108.705 128.171 108.293 128.171 107.88C128.171 107.468 128.171 106.85 127.978 106.438C127.978 105.819 127.978 105.407 127.978 104.789C128.171 102.728 129.915 100.873 131.851 100.255C133.788 99.6367 135.919 99.8428 137.855 100.049C138.63 100.255 139.598 100.461 140.373 100.873C141.923 101.904 142.116 104.171 141.923 106.232C141.923 107.674 141.729 109.117 140.761 110.353C139.405 112.208 136.887 112.62 134.563 112.414C133.788 112.414 133.207 112.414 132.432 112.208C131.077 111.796 130.108 110.766 129.14 109.941C128.946 109.735 128.559 109.323 128.365 108.911Z" fill="#8CBC15"/>
<mask id="mask20_9002_24283" style="mask-type:luminance" maskUnits="userSpaceOnUse" x="127" y="99" width="15" height="14">
<path d="M128.365 108.911C128.171 108.705 128.171 108.293 128.171 107.88C128.171 107.468 128.171 106.85 127.978 106.438C127.978 105.819 127.978 105.407 127.978 104.789C128.171 102.728 129.915 100.873 131.851 100.255C133.788 99.6367 135.919 99.8428 137.855 100.049C138.63 100.255 139.598 100.461 140.373 100.873C141.923 101.904 142.116 104.171 141.923 106.232C141.923 107.674 141.729 109.117 140.761 110.353C139.405 112.208 136.887 112.62 134.563 112.414C133.788 112.414 133.207 112.414 132.432 112.208C131.077 111.796 130.108 110.766 129.14 109.941C128.946 109.735 128.559 109.323 128.365 108.911Z" fill="white"/>
</mask>
<g mask="url(#mask20_9002_24283)">
<path d="M132.82 103.347C133.013 101.492 134.369 100.256 136.112 99.6373C137.662 99.019 139.405 99.2251 141.148 99.6373C141.922 99.8434 142.504 99.8433 143.278 100.256C144.44 101.08 144.634 102.935 144.634 104.583C144.634 105.82 144.44 107.057 143.666 107.881C142.504 109.53 140.373 109.736 138.63 109.53C138.049 109.53 137.468 109.53 136.887 109.324C135.918 108.911 134.95 108.087 134.175 107.469C133.401 107.263 132.432 105.82 132.82 103.347Z" fill="#A8CF2E"/>
</g>
<mask id="mask21_9002_24283" style="mask-type:luminance" maskUnits="userSpaceOnUse" x="127" y="99" width="15" height="14">
<path d="M128.365 108.911C128.171 108.705 128.171 108.293 128.171 107.88C128.171 107.468 128.171 106.85 127.978 106.438C127.978 105.819 127.978 105.407 127.978 104.789C128.171 102.728 129.915 100.873 131.851 100.255C133.788 99.6367 135.919 99.8428 137.855 100.049C138.63 100.255 139.598 100.461 140.373 100.873C141.923 101.904 142.116 104.171 141.923 106.232C141.923 107.674 141.729 109.117 140.761 110.353C139.405 112.208 136.887 112.62 134.563 112.414C133.788 112.414 133.207 112.414 132.432 112.208C131.077 111.796 130.108 110.766 129.14 109.941C128.946 109.735 128.559 109.323 128.365 108.911Z" fill="white"/>
</mask>
<g mask="url(#mask21_9002_24283)">
<g opacity="0.5">
<path d="M132.432 98.6024C130.108 96.3354 127.59 96.7476 125.653 99.4267C123.135 102.724 123.135 106.846 124.685 110.556C126.815 115.914 135.531 121.272 139.985 115.708C141.148 114.265 142.116 112.204 139.985 111.792C137.661 111.38 133.981 111.792 132.045 109.937C130.883 108.701 129.914 106.228 129.914 104.579C129.914 103.549 130.689 101.282 133.207 100.251C133.981 99.8389 133.4 99.2207 132.432 98.6024Z" fill="#538D08"/>
</g>
</g>
<path d="M133.401 104.789C134.369 105.819 136.112 107.056 137.468 106.438C138.63 106.025 139.017 104.995 138.824 103.758C138.436 101.285 134.756 100.667 133.401 102.316C132.82 103.14 132.82 103.964 133.401 104.789Z" fill="#C2E06F"/>
<path d="M139.598 107.673C140.373 107.673 140.373 106.437 139.598 106.437C138.824 106.437 138.824 107.673 139.598 107.673Z" fill="#C2E06F"/>
<path d="M144.247 110.558C144.053 110.351 144.053 109.939 144.053 109.733C144.053 109.321 144.053 108.909 143.859 108.497C143.859 108.084 143.859 107.672 143.859 107.054C144.053 105.199 145.602 103.757 147.152 103.138C148.701 102.52 150.638 102.726 152.187 103.138C152.962 103.344 153.737 103.344 154.318 103.963C155.48 104.993 155.674 106.848 155.674 108.497C155.674 109.733 155.48 110.97 154.705 112C153.543 113.649 151.413 113.855 149.476 113.855C148.895 113.855 148.314 113.855 147.733 113.649C146.571 113.237 145.796 112.412 144.828 111.588C144.828 111.176 144.44 110.97 144.247 110.558Z" fill="#8CBC15"/>
<mask id="mask22_9002_24283" style="mask-type:luminance" maskUnits="userSpaceOnUse" x="143" y="102" width="13" height="12">
<path d="M144.247 110.558C144.053 110.351 144.053 109.939 144.053 109.733C144.053 109.321 144.053 108.909 143.859 108.497C143.859 108.084 143.859 107.672 143.859 107.054C144.053 105.199 145.602 103.757 147.152 103.138C148.701 102.52 150.638 102.726 152.188 103.138C152.962 103.344 153.737 103.344 154.318 103.963C155.48 104.993 155.674 106.848 155.674 108.497C155.674 109.733 155.48 110.97 154.705 112C153.543 113.649 151.413 113.855 149.476 113.855C148.895 113.855 148.314 113.855 147.733 113.649C146.571 113.237 145.796 112.412 144.828 111.588C144.828 111.176 144.44 110.97 144.247 110.558Z" fill="white"/>
</mask>
<g mask="url(#mask22_9002_24283)">
<path d="M147.926 105.818C148.12 104.375 149.282 103.138 150.638 102.726C151.994 102.314 153.543 102.52 154.899 102.726C155.48 102.726 156.061 102.932 156.642 103.345C157.61 104.169 157.804 105.612 157.804 107.054C157.804 108.085 157.61 109.115 157.029 109.939C156.061 111.382 154.318 111.382 152.768 111.382C152.187 111.382 151.8 111.382 151.413 111.176C150.444 110.97 149.863 110.146 149.089 109.527C148.701 109.115 147.733 108.085 147.926 105.818Z" fill="#A8CF2E"/>
</g>
<mask id="mask23_9002_24283" style="mask-type:luminance" maskUnits="userSpaceOnUse" x="143" y="102" width="13" height="12">
<path d="M144.247 110.558C144.053 110.351 144.053 109.939 144.053 109.733C144.053 109.321 144.053 108.909 143.859 108.497C143.859 108.084 143.859 107.672 143.859 107.054C144.053 105.199 145.602 103.757 147.152 103.138C148.701 102.52 150.638 102.726 152.188 103.138C152.962 103.344 153.737 103.344 154.318 103.963C155.48 104.993 155.674 106.848 155.674 108.497C155.674 109.733 155.48 110.97 154.705 112C153.543 113.649 151.413 113.855 149.476 113.855C148.895 113.855 148.314 113.855 147.733 113.649C146.571 113.237 145.796 112.412 144.828 111.588C144.828 111.176 144.44 110.97 144.247 110.558Z" fill="white"/>
</mask>
<g mask="url(#mask23_9002_24283)">
<g opacity="0.5">
<path d="M147.733 101.694C145.796 99.8396 143.666 100.046 141.923 102.313C139.792 104.992 139.792 108.702 141.148 111.793C143.085 116.327 150.251 120.861 154.124 116.121C155.093 114.884 155.867 113.236 154.124 112.823C152.188 112.411 149.089 112.823 147.346 111.175C146.377 110.144 145.409 108.083 145.409 106.641C145.409 105.816 145.99 103.755 148.12 102.931C149.089 102.931 148.508 102.519 147.733 101.694Z" fill="#538D08"/>
</g>
</g>
<path d="M148.508 107.054C149.282 107.878 150.832 108.909 151.994 108.496C152.962 108.084 153.349 107.26 153.156 106.229C152.768 103.962 149.67 103.55 148.508 104.993C148.12 105.611 148.12 106.436 148.508 107.054Z" fill="#C2E06F"/>
<path d="M153.93 109.527C154.705 109.527 154.705 108.496 153.93 108.29C153.155 108.29 153.155 109.527 153.93 109.527Z" fill="#C2E06F"/>
<path d="M157.804 112.825C157.804 112.619 157.61 112.413 157.61 112.207C157.61 111.795 157.61 111.588 157.61 111.176C157.61 110.764 157.61 110.352 157.61 109.94C157.804 108.291 159.16 107.054 160.516 106.436C162.065 106.024 163.614 106.024 164.97 106.436C165.551 106.642 166.326 106.642 166.907 107.054C168.069 107.879 168.263 109.527 168.069 110.97C168.069 112.001 167.875 113.237 167.294 114.062C166.326 115.504 164.389 115.71 162.646 115.71C162.065 115.71 161.678 115.71 161.097 115.504C160.128 115.298 159.353 114.474 158.579 113.649C158.191 113.443 157.998 113.237 157.804 112.825Z" fill="#8CBC15"/>
<mask id="mask24_9002_24283" style="mask-type:luminance" maskUnits="userSpaceOnUse" x="157" y="106" width="12" height="10">
<path d="M157.804 112.825C157.804 112.619 157.611 112.413 157.611 112.207C157.611 111.795 157.611 111.588 157.611 111.176C157.611 110.764 157.611 110.352 157.611 109.94C157.804 108.291 159.16 107.054 160.516 106.436C162.065 106.024 163.615 106.024 164.97 106.436C165.551 106.642 166.326 106.642 166.907 107.054C168.069 107.879 168.263 109.527 168.069 110.97C168.069 112.001 167.876 113.237 167.294 114.062C166.326 115.504 164.389 115.71 162.646 115.71C162.065 115.71 161.678 115.71 161.097 115.504C160.128 115.298 159.354 114.474 158.579 113.649C158.192 113.443 157.998 113.237 157.804 112.825Z" fill="white"/>
</mask>
<g mask="url(#mask24_9002_24283)">
<path d="M161.097 108.498C161.29 107.262 162.259 106.025 163.615 105.613C164.97 105.201 166.132 105.407 167.294 105.613C167.875 105.613 168.457 105.819 168.844 106.231C169.812 106.85 169.812 108.292 169.812 109.529C169.812 110.353 169.619 111.384 169.038 112.002C168.263 113.238 166.52 113.444 165.164 113.238C164.777 113.238 164.196 113.238 163.808 113.032C163.034 112.826 162.259 112.208 161.678 111.59C161.678 111.59 160.903 110.559 161.097 108.498Z" fill="#A8CF2E"/>
</g>
<mask id="mask25_9002_24283" style="mask-type:luminance" maskUnits="userSpaceOnUse" x="157" y="106" width="12" height="10">
<path d="M157.804 112.825C157.804 112.619 157.611 112.413 157.611 112.207C157.611 111.795 157.611 111.588 157.611 111.176C157.611 110.764 157.611 110.352 157.611 109.94C157.804 108.291 159.16 107.054 160.516 106.436C162.065 106.024 163.615 106.024 164.97 106.436C165.551 106.642 166.326 106.642 166.907 107.054C168.069 107.879 168.263 109.527 168.069 110.97C168.069 112.001 167.876 113.237 167.294 114.062C166.326 115.504 164.389 115.71 162.646 115.71C162.065 115.71 161.678 115.71 161.097 115.504C160.128 115.298 159.354 114.474 158.579 113.649C158.192 113.443 157.998 113.237 157.804 112.825Z" fill="white"/>
</mask>
<g mask="url(#mask25_9002_24283)">
<g opacity="0.5">
<path d="M160.903 104.998C159.16 103.349 157.223 103.555 155.673 105.616C153.737 108.089 153.737 111.386 154.899 114.066C156.642 118.187 163.033 122.309 166.519 117.981C167.294 116.951 168.069 115.302 166.519 115.096C164.776 114.684 162.065 115.096 160.515 113.653C159.547 112.829 158.772 110.974 158.772 109.532C158.772 108.707 159.353 106.852 161.29 106.234C162.065 106.028 161.484 105.616 160.903 104.998Z" fill="#538D08"/>
</g>
</g>
<path d="M161.484 109.734C162.258 110.558 163.42 111.383 164.582 110.97C165.357 110.764 165.744 109.94 165.744 108.91C165.551 107.055 162.646 106.436 161.677 107.879C161.096 108.497 161.096 109.116 161.484 109.734Z" fill="#C2E06F"/>
<path d="M166.325 111.795C166.906 111.795 166.906 110.765 166.325 110.765C165.744 110.765 165.744 111.795 166.325 111.795Z" fill="#C2E06F"/>
<path d="M48.7636 108.912C50.8941 112.828 57.2854 115.095 61.3527 116.125C67.3567 117.568 81.4952 118.392 87.4992 118.598C101.25 118.805 105.511 119.423 119.262 120.041C129.915 120.659 139.598 120.041 150.251 120.453C157.417 120.865 163.227 120.247 168.263 119.217C172.717 118.186 177.559 117.98 181.626 115.507C183.176 114.477 183.563 111.591 182.014 111.797C177.366 112.622 157.998 110.149 153.156 109.943C142.891 109.324 132.432 109.324 122.167 108.912C109.385 108.5 96.602 109.118 83.8193 109.324C77.8153 109.324 71.8113 109.324 65.8073 108.912C63.2894 108.706 60.578 108.088 57.8665 108.088C55.155 108.088 52.6372 106.645 49.9257 106.851C48.9573 107.057 48.1826 108.088 48.7636 108.912Z" fill="#6F9F29"/>
<mask id="mask26_9002_24283" style="mask-type:luminance" maskUnits="userSpaceOnUse" x="48" y="106" width="135" height="15">
<path d="M48.7631 108.916C50.8936 112.832 57.285 115.099 61.3522 116.129C67.3562 117.572 81.4947 118.396 87.4987 118.602C101.25 118.808 105.511 119.427 119.262 120.045C129.914 120.663 139.598 120.045 150.25 120.457C157.416 120.869 163.227 120.251 168.262 119.221C172.717 118.19 177.559 117.984 181.626 115.511C183.175 114.481 183.563 111.595 182.013 111.801C177.365 112.626 157.997 110.153 153.155 109.946C142.89 109.328 132.432 109.328 122.167 108.916C109.384 108.504 96.6015 109.122 83.8188 109.328C77.8148 109.328 71.8108 109.328 65.8068 108.916C63.289 108.71 60.5775 108.092 57.866 108.092C55.1545 108.092 52.6367 106.649 49.9252 106.855C48.9568 107.061 48.1821 108.092 48.7631 108.916Z" fill="white"/>
</mask>
<g mask="url(#mask26_9002_24283)">
<g opacity="0.46">
<path d="M47.0201 109.535C47.6011 109.947 47.9885 110.977 48.1821 111.596C48.7632 112.832 50.1189 113.863 50.8936 115.099C52.6367 117.366 55.5419 118.809 57.866 120.251C63.0953 123.137 68.9057 124.373 74.716 124.992C87.6924 126.64 101.25 126.846 114.226 127.052C126.622 127.259 138.823 127.877 151.219 127.465C157.416 127.259 163.42 126.846 169.618 126.228C176.009 125.404 183.757 124.785 189.179 120.87C193.828 117.572 191.891 110.977 186.662 110.153C181.045 109.329 174.847 111.39 169.424 112.214C163.42 113.244 157.61 113.863 151.606 114.275C139.792 115.099 127.784 115.099 115.969 115.099C103.574 114.893 91.3723 114.275 78.9769 113.657C72.9729 113.244 67.9373 112.214 62.3206 110.153C59.6091 109.123 57.285 107.68 54.3798 107.268C53.4114 107.062 52.2494 106.649 51.281 106.649C50.3126 106.649 49.3442 107.062 48.3758 106.856C46.6327 106.443 45.858 108.504 47.0201 109.535Z" fill="#487A07"/>
</g>
</g>
<mask id="mask27_9002_24283" style="mask-type:luminance" maskUnits="userSpaceOnUse" x="48" y="106" width="135" height="15">
<path d="M48.7631 108.916C50.8936 112.832 57.285 115.099 61.3522 116.129C67.3562 117.572 81.4947 118.396 87.4987 118.602C101.25 118.808 105.511 119.427 119.262 120.045C129.914 120.663 139.598 120.045 150.25 120.457C157.416 120.869 163.227 120.251 168.262 119.221C172.717 118.19 177.559 117.984 181.626 115.511C183.175 114.481 183.563 111.595 182.013 111.801C177.365 112.626 157.997 110.153 153.155 109.946C142.89 109.328 132.432 109.328 122.167 108.916C109.384 108.504 96.6015 109.122 83.8188 109.328C77.8148 109.328 71.8108 109.328 65.8068 108.916C63.289 108.71 60.5775 108.092 57.866 108.092C55.1545 108.092 52.6367 106.649 49.9252 106.855C48.9568 107.061 48.1821 108.092 48.7631 108.916Z" fill="white"/>
</mask>
<g mask="url(#mask27_9002_24283)">
<g opacity="0.46">
<path d="M47.7948 112.004C48.3758 112.417 48.7632 113.447 48.9568 114.065C49.5379 115.302 50.8936 116.332 51.6683 117.569C53.4114 119.836 56.3166 121.279 58.6407 122.721C63.87 125.606 69.6804 126.843 75.4907 127.461C88.4671 129.11 102.025 129.316 115.001 129.522C127.396 129.728 139.598 130.347 151.993 129.934C158.191 129.728 164.195 129.316 170.393 128.698C176.784 127.873 184.531 127.255 189.954 123.339C194.602 120.042 192.666 113.447 187.436 112.623C181.82 111.798 175.622 113.859 170.199 114.684C164.195 115.714 158.385 116.332 152.381 116.744C140.566 117.569 128.558 117.569 116.744 117.569C104.349 117.363 92.147 116.745 79.7516 116.126C73.7476 115.714 68.712 114.684 63.0953 112.623C60.3838 111.592 58.0597 110.15 55.1545 109.737C54.1861 109.531 53.0241 109.119 52.0557 109.119C51.0873 109.119 50.1189 109.531 49.1505 109.325C47.2137 108.913 46.439 111.18 47.7948 112.004Z" fill="#487A07"/>
</g>
</g>
<mask id="mask28_9002_24283" style="mask-type:luminance" maskUnits="userSpaceOnUse" x="48" y="106" width="135" height="15">
<path d="M48.7631 108.913C50.8936 112.829 57.285 115.096 61.3522 116.126C67.3562 117.569 81.4947 118.393 87.4987 118.599C101.25 118.806 105.511 119.424 119.262 120.042C129.914 120.66 139.598 120.042 150.25 120.454C157.416 120.866 163.227 120.248 168.262 119.218C172.717 118.187 177.559 117.981 181.626 115.508C183.175 114.478 183.563 111.592 182.013 111.798C177.365 112.623 157.997 110.15 153.155 109.944C142.89 109.325 132.432 109.325 122.167 108.913C109.384 108.501 96.6015 109.119 83.8188 109.325C77.8148 109.325 71.8108 109.325 65.8068 108.913C63.289 108.707 60.5775 108.089 57.866 108.089C55.1545 108.089 52.6367 106.646 49.9252 106.852C48.9568 107.058 48.1821 108.089 48.7631 108.913Z" fill="white"/>
</mask>
<g mask="url(#mask28_9002_24283)">
<path d="M66.0006 109.941C71.8109 110.148 79.3644 110.354 85.1747 110.148C91.9534 109.941 98.5385 109.735 104.349 109.941C110.159 110.148 115.388 109.941 121.005 110.148C126.234 110.354 132.626 110.148 137.855 110.354C143.472 110.56 147.152 110.766 152.768 110.972C158.191 111.178 163.614 112.002 169.037 112.208C173.685 112.415 180.27 113.239 182.982 112.002C183.95 111.59 183.95 109.735 182.788 109.529C178.334 108.499 173.685 109.117 169.037 108.911C163.614 108.499 158.191 108.293 152.768 107.881C147.539 107.674 142.31 106.85 137.08 106.438C131.27 106.026 125.653 106.232 119.843 106.026C108.803 105.82 97.5701 105.407 86.5304 104.583C80.7201 104.171 74.9098 103.553 69.0995 103.759C63.2891 103.965 56.5104 104.171 50.5064 104.583C49.3443 104.583 49.1506 106.85 50.3127 107.468C55.1547 109.529 60.5776 109.735 66.0006 109.941Z" fill="#ADD55A"/>
</g>
</svg>
