<svg width="200" height="200" viewBox="0 0 200 200" fill="none" xmlns="http://www.w3.org/2000/svg">
<path d="M122.942 155.691C114.433 160.512 103.421 163.671 88.738 163.671C88.2374 163.671 87.9037 163.671 87.4032 163.671C80.7291 163.671 75.223 163.338 70.7181 162.341C75.8904 163.504 82.0639 164.502 88.9048 164.502C99.4164 164.502 110.929 162.341 121.274 156.522C121.941 156.19 122.442 155.857 122.942 155.691ZM34.6782 139.4C41.0186 149.208 49.528 154.86 57.5368 156.522H57.7037V156.689C58.3711 157.52 59.7059 158.351 61.5413 159.182C62.0418 159.348 62.3755 159.681 63.0429 159.847C61.2075 159.016 59.7059 157.852 58.2042 156.689C50.5291 155.026 41.5191 149.208 34.6782 139.4ZM29.339 78.5552C29.0053 79.7189 28.6716 81.0488 28.3379 82.3787C28.5047 81.0488 28.8385 79.8851 29.339 78.5552ZM88.0706 137.405C82.8982 137.405 78.0595 135.908 74.0551 132.75C62.0418 123.274 63.0429 102.161 76.0573 85.7036C84.9004 74.5654 97.0805 68.4145 107.759 68.4145C112.931 68.4145 117.77 69.9107 121.774 73.0692C133.788 82.545 132.787 103.658 119.772 120.116C110.762 131.087 98.749 137.405 88.0706 137.405ZM106.925 65.5884C105.423 65.5884 103.755 65.7546 101.752 66.0871C102.086 66.0871 102.587 66.0871 102.92 66.0871C103.588 66.0871 104.255 66.0871 104.756 66.0871C104.756 66.0871 75.223 72.4043 64.044 99.8341C62.5424 109.642 54.5335 132.417 79.8949 145.052C84.3998 147.379 89.0717 148.377 93.7435 148.377C119.605 148.377 145.634 117.123 150.473 103.658C150.473 103.658 150.807 112.801 147.469 123.939C149.639 117.788 150.64 111.803 150.64 106.151C150.64 91.3558 143.799 78.8877 133.621 71.2406L132.453 70.5756L133.788 74.7317H133.454C133.454 74.7317 131.952 74.5654 130.117 73.7342C128.949 73.568 127.614 72.903 126.279 71.7393C125.278 71.0743 124.277 70.4094 123.276 69.4119L124.11 72.7368H123.777C123.777 72.7368 120.94 72.238 118.104 70.4094C117.27 69.9107 116.602 69.2457 115.768 68.5807C114.433 68.4145 112.931 68.082 111.43 67.5833C109.428 67.0846 107.926 66.4196 106.925 65.5884ZM42.8539 100.167C41.686 100.167 40.3512 99.8341 38.8495 98.8366C26.5025 91.1895 35.5125 65.9209 50.6959 54.6165C58.7048 48.6318 70.0507 44.9745 79.5612 44.9745C84.233 44.9745 88.2374 45.8057 91.2407 47.8006C97.0805 49.9617 100.251 53.619 99.7501 56.7776C99.5833 57.6088 99.0827 58.1075 98.2485 58.1075C97.7479 58.1075 97.0805 57.9413 96.4131 57.775C95.412 65.7546 80.7291 66.2533 67.381 76.2278C54.3667 85.8698 50.1954 100.167 42.8539 100.167ZM80.2286 43.6445C70.2175 43.6445 58.5379 46.1382 48.5269 52.7878C40.6849 57.9413 34.0108 65.5884 30.0064 76.3941C29.339 80.2176 25.5014 106.484 37.8484 112.468C39.1832 113.133 40.518 113.466 41.8528 113.466C48.6937 113.466 54.7004 105.32 58.7048 100C60.5402 96.1768 62.876 92.3532 65.8794 88.3634C71.2186 81.5475 83.8993 68.747 98.5822 66.5858C101.419 65.9209 104.088 65.5884 106.257 65.4221C104.088 63.7597 104.589 62.0973 106.09 60.4349C106.591 59.9362 106.925 59.6037 107.258 59.6037C108.426 59.6037 108.593 62.596 108.593 62.596C108.76 63.5935 109.261 64.2585 110.262 64.7572C110.762 64.0922 111.263 63.4272 111.597 62.7623C111.43 62.7623 111.263 62.596 111.096 62.596C110.595 62.2636 110.262 61.9311 109.928 61.4323C109.261 60.4349 108.927 59.2712 108.26 57.775C106.925 54.9489 104.589 51.1254 97.2474 47.1356C93.7435 44.9745 87.4032 43.6445 80.2286 43.6445Z" fill="url(#paint0_radial_7002_12267)"/>
<path d="M113.431 62.928V62.5955C112.764 62.5955 112.263 62.263 111.763 62.0967C111.095 61.598 110.595 60.9331 110.261 59.9356C109.593 58.4394 108.926 56.4445 107.258 54.1172C105.589 51.7898 102.753 49.1299 97.9139 46.4701C93.9095 44.3089 87.5691 42.979 80.2277 42.979C70.2166 42.979 58.3702 45.6389 48.1923 52.2885C38.0144 58.9382 29.6718 69.7438 26.8354 85.8692C25.6674 92.6851 25 98.8361 25 104.655C25 136.739 42.3525 154.028 57.5359 157.187V156.854L57.2022 157.021C57.8696 157.852 59.3713 158.849 61.2067 159.68C66.8796 162.34 77.2244 165 88.9039 165C99.4155 165 111.095 162.839 121.607 156.854C132.118 150.87 141.462 140.895 147.302 125.102C149.805 118.453 150.972 111.969 150.972 105.984C150.972 82.2119 133.62 64.5904 113.264 62.263L113.431 62.928V63.2604C133.453 65.4216 150.639 82.8769 150.639 106.317C150.639 112.302 149.471 118.619 147.135 125.268C141.295 140.895 132.118 150.703 121.607 156.522C111.262 162.506 99.5824 164.501 89.2376 164.501C81.3956 164.501 74.2211 163.338 68.715 161.842C65.8785 161.01 63.5426 160.179 61.7072 159.348C59.8719 158.517 58.5371 157.519 57.8697 156.854V156.688H57.7028C42.8531 153.529 25.6674 136.573 25.6674 104.821C25.6674 99.0023 26.168 92.8514 27.5028 86.2017C30.5061 70.0763 38.6818 59.6031 48.6929 52.9535C58.7039 46.3038 70.3835 43.8102 80.3945 43.8102C87.5691 43.8102 93.9095 45.1401 97.747 47.3013C105.088 51.2911 107.424 55.1146 108.759 57.9407C109.427 59.4369 109.76 60.6006 110.428 61.598C110.761 62.0968 111.095 62.4292 111.596 62.7617C112.096 63.0942 112.764 63.2604 113.431 63.4267V62.928Z" fill="#F49028"/>
<path d="M112.263 65.5883C111.262 65.4221 109.927 65.2559 108.259 65.2559C98.9149 65.2559 79.2265 69.0794 63.3756 96.1767C57.8695 105.486 56.0342 114.962 56.0342 123.44C56.0342 138.568 61.874 150.039 61.874 150.039L62.2077 149.873C62.2077 149.873 62.0408 149.706 62.0408 149.374C60.8729 147.047 56.5347 136.573 56.5347 123.44C56.5347 115.128 58.3701 105.652 63.7093 96.343C79.5602 69.2456 99.0817 65.5883 108.259 65.5883C109.927 65.5883 111.262 65.7546 112.263 65.9208V65.5883Z" fill="#FC5736"/>
<path d="M95.7455 73.5668C99.4162 71.2394 104.589 69.7432 109.594 69.7432H109.761C116.268 69.7432 120.773 72.2369 121.441 75.5617C121.607 76.3929 121.274 76.8916 120.773 77.0579C126.613 85.2037 124.277 98.8355 114.767 109.142C108.093 116.291 99.7499 120.114 92.2416 120.114C87.9035 120.114 83.8991 118.784 80.7289 115.958C72.5532 108.311 74.3886 93.017 84.9002 81.7126C88.2372 78.0553 91.9079 75.3954 95.7455 73.5668ZM107.759 68.2471C97.0803 68.2471 85.067 74.398 76.0571 85.5362C62.8759 101.994 62.0416 123.107 74.0549 132.582C78.0593 135.741 82.7311 137.237 88.0704 137.237C98.7488 137.237 110.929 131.086 119.772 119.948C132.953 103.49 133.788 82.3776 121.774 72.9018C117.77 69.7432 112.931 68.2471 107.759 68.2471Z" fill="url(#paint1_radial_7002_12267)"/>
<path d="M95.745 73.5674C91.9074 75.396 88.2367 78.2221 84.8997 81.7132C74.3881 93.0176 72.5527 108.478 80.7284 115.959C83.7317 118.785 87.7361 120.115 92.2411 120.115C99.5826 120.115 108.092 116.291 114.766 109.143C124.277 98.8361 126.779 85.2043 120.773 77.0584C118.77 77.8897 113.598 77.0584 107.758 78.3884C102.252 79.5521 96.5792 83.8743 93.5759 83.8743C92.408 83.8743 91.4069 83.2094 91.0732 81.3807C90.5726 78.2221 92.5748 75.5623 95.745 73.5674Z" fill="url(#paint2_radial_7002_12267)"/>
<path d="M79.3935 44.9736C70.0499 44.9736 58.704 48.6309 50.5283 54.6156C35.3449 65.7538 26.3349 91.1887 38.6819 98.8358C40.1836 99.667 41.5184 100.166 42.6863 100.166C50.0278 100.166 54.199 85.869 67.2134 76.227C80.5615 66.2525 95.2444 65.7538 96.2455 57.7742C95.4112 57.608 94.577 57.2755 93.5759 56.943C92.0742 62.7614 81.062 61.9302 70.2167 68.4137C60.0388 74.3983 55.7007 84.5391 50.3615 84.5391C49.3604 84.5391 48.1924 84.2066 47.0245 83.2091C38.3482 76.5595 47.1913 58.1067 59.5383 50.9583C65.2112 47.6335 72.3858 45.8048 78.7261 45.8048C81.0621 45.8048 83.2311 45.9711 85.0665 46.4698C86.735 46.636 88.5703 47.1348 90.2388 47.6335C90.5726 47.7997 90.7394 47.7997 91.0731 47.966C88.0698 45.9711 83.8985 44.9736 79.3935 44.9736Z" fill="url(#paint3_radial_7002_12267)"/>
<path d="M78.7262 45.6392C72.3859 45.6392 65.0444 47.4678 59.5383 50.7926C47.3582 57.941 38.3483 76.3938 47.0245 83.0434C48.1925 84.0409 49.3604 84.3734 50.3615 84.3734C55.7008 84.3734 60.0389 74.2327 70.2168 68.248C81.0621 61.9308 91.9074 62.5958 93.5759 56.7773C91.4069 56.1124 88.7372 55.2812 85.7339 54.9487C85.0665 54.7824 84.2323 54.7824 83.398 54.7824C81.3958 54.7824 79.3936 55.1149 77.3914 55.2812C75.556 55.6136 73.7207 55.7799 72.3859 55.7799C70.0499 55.7799 68.5483 55.1149 68.882 52.4551C69.5494 48.1328 75.0555 45.9716 81.229 45.9716C82.3969 45.9716 83.7317 45.9716 85.0665 46.3041C83.2311 45.9716 81.0621 45.6392 78.7262 45.6392Z" fill="url(#paint4_radial_7002_12267)"/>
<path d="M107.591 61.9309C107.591 61.9309 107.591 63.0946 109.093 64.4245C110.428 65.7544 113.264 67.4169 118.603 68.2481V67.9156C113.264 66.9181 110.595 65.422 109.26 64.092C108.592 63.4271 108.259 62.7621 108.092 62.4296C107.925 62.2634 107.925 62.0971 107.925 61.9309V61.7646L107.591 61.9309Z" fill="#972D03"/>
<path d="M113.932 65.9202H113.598C113.098 66.0864 112.764 66.2527 112.264 66.2527C112.931 66.5852 113.598 66.9176 114.6 67.0839C114.433 66.7514 114.099 66.4189 113.932 65.9202ZM108.259 65.5877C107.759 65.5877 107.425 65.5877 106.924 65.5877C107.926 66.2527 109.427 66.9176 111.596 67.7489C113.265 68.2476 114.766 68.5801 115.934 68.7463C115.601 68.4138 115.267 68.0813 114.933 67.5826C113.432 67.0839 112.264 66.5852 111.263 66.0864C110.929 65.9202 110.595 65.754 110.428 65.5877C109.928 65.5877 109.093 65.5877 108.259 65.5877ZM107.592 59.603C107.258 59.603 106.924 59.7693 106.424 60.4342C104.922 62.0966 104.422 63.7591 106.591 65.4215C107.258 65.4215 107.925 65.4215 108.426 65.4215C109.093 65.4215 109.594 65.4215 110.095 65.4215C109.761 65.089 109.427 64.9227 109.093 64.5903C107.759 63.2603 107.592 62.0966 107.592 62.0966H107.926V62.2629C107.926 62.4291 107.926 62.5954 108.092 62.7616C108.259 63.2603 108.593 63.7591 109.26 64.424C109.594 64.7565 109.928 64.9227 110.261 65.2552L110.428 64.9227C109.594 64.424 108.927 63.7591 108.76 62.7616C108.927 62.5954 108.76 59.603 107.592 59.603Z" fill="url(#paint5_radial_7002_12267)"/>
<path d="M108.259 65.2559C107.758 65.2559 107.091 65.2559 106.423 65.2559C106.59 65.4221 106.757 65.4221 106.924 65.5883C107.424 65.5883 107.925 65.5883 108.259 65.5883C109.093 65.5883 109.76 65.5883 110.428 65.5883L110.261 65.4221L109.927 65.2559C109.427 65.2559 108.926 65.2559 108.259 65.2559Z" fill="#D12F01"/>
<path d="M111.262 66.0862C112.263 66.5849 113.431 67.0837 114.933 67.5824C114.766 67.4161 114.766 67.2499 114.599 67.0837C113.765 66.7512 112.931 66.5849 112.263 66.2524H112.096C111.929 66.2524 111.596 66.2524 111.262 66.0862ZM107.925 61.9302H107.591C107.591 61.9302 107.591 63.0939 109.093 64.4238C109.427 64.7563 109.594 64.9225 110.094 65.255L110.428 65.4212L110.261 65.255V65.0888V64.9225V64.7563C109.927 64.4238 109.594 64.2576 109.26 63.9251C108.592 63.2601 108.259 62.5951 108.092 62.2627C108.092 62.4289 107.925 62.2627 107.925 61.9302Z" fill="#771A02"/>
<path d="M102.92 66.2524C102.587 66.2524 102.086 66.2524 101.752 66.2524C91.5746 68.0811 76.3912 74.7307 63.7105 96.5084C58.2044 105.818 56.5359 115.294 56.5359 123.606C56.5359 136.739 61.0409 147.212 62.042 149.539C62.2088 149.872 62.2088 150.038 62.2088 150.038L61.8751 150.204C61.8751 150.204 56.0353 138.734 56.0353 123.606C56.0353 115.294 57.8707 105.818 63.3768 96.3421C75.0563 76.3932 88.7381 69.0785 98.7492 66.5849C84.0663 68.7461 71.2188 81.5466 66.0464 88.3625C63.0431 92.1861 60.7072 96.1759 58.8718 99.9994C54.8674 105.319 48.8607 113.465 42.0199 113.465C40.6851 113.465 39.3502 113.132 38.0154 112.468C25.6684 106.483 29.506 80.2167 30.1734 76.3932C29.8397 77.0581 29.6729 77.8893 29.3392 78.7205C29.0055 80.0505 28.6718 81.2142 28.3381 82.5441C28.0044 83.7078 27.8375 84.8715 27.5038 86.2014C26.3358 92.851 25.6685 99.1682 25.6685 104.82C25.6685 119.616 29.3392 131.087 34.8453 139.565C41.5193 149.373 50.5292 155.192 58.3712 156.854C59.706 158.184 61.3746 159.181 63.2099 160.013C64.7116 160.677 66.7138 161.342 68.716 161.841C69.5503 162.007 70.2177 162.34 71.0519 162.506C75.5569 163.337 81.063 163.836 87.737 163.836C88.2376 163.836 88.5713 163.836 89.0718 163.836C103.588 163.67 114.767 160.677 123.276 155.856C133.12 149.872 141.797 140.23 147.303 125.434C147.47 125.102 147.637 124.603 147.637 124.271C150.974 113.132 150.64 103.989 150.64 103.989C145.801 117.621 119.939 148.708 93.9105 148.708C89.2387 148.708 84.5668 147.711 80.0619 145.383C54.7005 132.583 62.7094 109.974 64.211 100.166C75.39 72.7359 104.923 66.4187 104.923 66.4187C104.255 66.2524 103.588 66.2524 102.92 66.2524Z" fill="url(#paint6_radial_7002_12267)"/>
<path d="M63.0423 159.847C65.3782 161.011 67.881 161.842 70.8843 162.341C70.05 162.175 69.2158 162.009 68.5484 161.676C66.3793 161.177 64.5439 160.512 63.0423 159.847ZM147.302 123.939C147.135 124.272 146.968 124.77 146.968 125.103C141.462 139.898 132.786 149.54 122.942 155.525C137.124 147.546 144.132 134.911 147.302 123.939ZM28.1704 82.3789C21.4964 107.814 26.1682 126.932 34.6776 139.566C29.1715 131.088 25.5008 119.617 25.5008 104.821C25.5008 99.0031 26.0014 92.8521 27.3362 86.2025C27.6699 84.7063 27.8367 83.5426 28.1704 82.3789ZM30.1726 75.8955C29.8389 76.893 29.5052 77.7242 29.3384 78.7216C29.5052 77.8904 29.8389 77.2254 30.1726 76.3942C30.0058 76.0618 30.1726 75.8955 30.1726 75.8955Z" fill="#EE7A02"/>
<path d="M101.751 66.2524C100.75 66.2524 99.7491 66.4187 98.748 66.5849C88.5701 69.0785 75.0552 76.5594 63.3756 96.3421C57.8695 105.652 56.0342 115.127 56.0342 123.606C56.0342 138.734 61.874 150.204 61.874 150.204L62.2077 150.038C62.2077 150.038 62.0408 149.872 62.0408 149.539C60.8729 147.212 56.5347 136.739 56.5347 123.606C56.5347 115.294 58.3701 105.818 63.7093 96.5084C76.39 74.7307 91.5734 67.9149 101.751 66.2524Z" fill="#FA4800"/>
<path d="M91.0728 47.8003C93.4087 49.2965 95.0772 51.4576 95.9114 54.2837C96.2451 55.6136 96.412 56.7773 96.2451 57.7748C96.9125 57.941 97.5799 58.1073 98.0805 58.1073C98.9147 58.1073 99.4153 57.7748 99.5822 56.7773C100.083 53.6187 96.9125 49.9614 91.0728 47.8003Z" fill="url(#paint7_radial_7002_12267)"/>
<path d="M85.0669 46.4697C89.5719 47.6334 92.9089 50.127 93.5763 54.2831C93.7432 55.2805 93.7432 56.278 93.5763 57.1092C94.5774 57.4417 95.4117 57.7741 96.2459 57.9404C96.4128 56.9429 96.2459 55.7792 95.9122 54.4493C95.078 51.6232 93.4095 49.4621 91.0735 47.9659C90.7398 47.7997 90.573 47.7997 90.2393 47.6334C88.5708 46.9685 86.9023 46.636 85.0669 46.4697Z" fill="url(#paint8_radial_7002_12267)"/>
<path d="M81.3967 46.1382C75.0563 46.1382 69.5503 48.2993 69.0497 52.6216C68.716 55.2815 70.2176 55.9464 72.5536 55.9464C74.0552 55.9464 75.7237 55.6139 77.5591 55.4477C79.3945 55.1152 81.5635 54.949 83.5657 54.949C84.4 54.949 85.0674 54.949 85.9016 55.1152C88.905 55.4477 91.5746 56.2789 93.7437 56.9439C93.9105 56.1127 93.9105 55.2815 93.7437 54.1178C93.0763 49.9617 89.7392 47.4681 85.2342 46.3044C83.8994 46.3044 82.5646 46.1382 81.3967 46.1382Z" fill="url(#paint9_radial_7002_12267)"/>
<path d="M109.928 69.5771H109.761C104.755 69.5771 99.5828 71.0733 95.9121 73.4007C99.7497 71.572 103.754 70.5746 107.592 70.5746C111.93 70.5746 115.934 71.9045 119.104 74.7306C119.772 75.3956 120.439 76.2268 121.107 76.8918C121.774 76.5593 121.941 76.0606 121.774 75.3956C120.94 72.237 116.435 69.5771 109.928 69.5771Z" fill="url(#paint10_radial_7002_12267)"/>
<path d="M107.425 70.5747C103.754 70.5747 99.7494 71.5722 95.745 73.4008C92.408 75.3957 90.4058 78.2218 91.0732 81.2141C91.4069 83.0428 92.2411 83.7078 93.576 83.7078C96.7461 83.7078 102.252 79.3855 107.758 78.2218C113.598 77.0581 118.937 77.8893 120.773 76.8919C120.272 76.0607 119.605 75.3957 118.77 74.7307C115.767 71.9046 111.763 70.5747 107.425 70.5747Z" fill="url(#paint11_radial_7002_12267)"/>
<path d="M142.296 71.0746C144.799 72.2383 148.136 72.5708 149.804 72.737C149.971 72.737 150.138 72.737 150.305 72.737C149.304 72.737 145.3 72.072 142.296 71.0746ZM139.793 69.9109L139.96 70.2434C140.294 70.4096 140.461 70.5759 140.794 70.7421C140.961 70.7421 141.295 70.9083 141.462 70.9083C140.795 70.5759 140.294 70.2434 139.793 69.9109ZM131.284 69.7446L132.786 73.9007C132.786 73.9007 132.285 74.0669 131.618 74.0669C132.285 74.2332 132.952 74.3994 133.286 74.3994L131.785 70.0771L141.962 75.5631L140.628 72.2383L141.629 75.2306L131.284 69.7446ZM122.608 67.916L122.775 68.581L123.108 68.9134C123.442 69.2459 123.776 69.5784 124.276 69.9109C123.609 69.4122 123.108 68.7472 122.608 67.916ZM114.766 66.7523C115.6 68.0822 116.768 69.0797 117.936 69.9109C120.439 71.7395 122.941 72.2383 123.776 72.4045L123.275 70.2434L123.776 72.2383C123.609 72.4045 117.936 70.9083 114.766 66.7523ZM169.326 51.6243C168.659 51.7906 167.824 51.7906 167.157 51.9568C164.654 54.7829 166.323 54.7829 166.323 54.7829C166.323 54.7829 159.982 58.1078 162.986 58.6065C163.987 58.7727 163.486 59.4377 162.485 60.1027C163.486 59.9364 164.487 59.7702 165.655 59.4377L165.822 59.7702C164.654 60.1027 163.319 60.2689 162.151 60.4351C160.149 61.9313 156.979 63.76 158.814 63.9262C159.816 64.0924 157.98 64.4249 154.977 64.4249C149.971 64.4249 141.962 63.5937 140.628 59.7702C140.294 58.939 140.127 58.1078 140.294 57.4428C138.459 56.7778 136.957 56.2791 135.622 55.7804C133.286 57.9415 131.618 60.7676 132.786 63.5937C134.621 68.0822 139.627 68.9134 143.464 68.9134C146.134 68.9134 148.303 68.4147 148.303 68.4147L150.972 72.5707L148.637 68.581L148.97 68.7472C149.971 69.0797 151.139 69.2459 152.14 69.2459C154.476 69.2459 156.312 68.581 156.979 68.4147L154.643 66.2536H155.144C155.477 66.2536 155.811 66.2536 156.145 66.2536C158.814 66.2536 161.484 64.9237 162.485 64.5912L159.982 63.4275H160.65C161.818 63.2612 163.486 62.2638 164.654 60.9339C165.989 59.7702 166.99 58.274 167.491 57.7753H165.322C165.322 57.7753 165.155 57.7753 164.821 57.7753C164.654 57.7753 164.32 57.7753 164.154 57.7753H163.987V57.609V57.4428L164.154 57.2766C164.32 57.2766 164.654 57.1103 164.988 56.9441C166.823 56.4453 168.659 55.4479 169.493 54.9492L169.66 54.7829L167.324 53.7855L169.993 52.6218L169.326 51.6243ZM117.936 49.1307C113.097 54.7829 112.764 59.1052 112.597 59.7702C112.597 60.2689 112.597 60.7676 112.764 61.2663C112.764 59.4377 113.097 57.4428 114.265 55.1154C115.266 52.9543 116.768 51.1256 117.936 49.7957C117.936 49.4632 117.936 49.297 117.936 49.1307ZM127.113 44.8085C126.112 45.3072 125.111 46.1384 124.276 46.8033V46.9696C125.277 46.1384 126.278 45.6397 126.779 45.3072C126.779 45.3072 125.277 49.4632 126.612 49.6295L126.445 49.297C126.278 48.9645 126.278 48.4658 126.278 48.1333C126.278 46.9696 126.779 45.4734 127.113 44.8085ZM131.951 42.4811C130.45 43.6448 129.616 45.1409 128.948 46.3046C128.281 47.4683 127.947 48.632 127.613 49.1307C128.781 47.8008 130.116 44.1435 131.618 43.146C131.618 43.146 131.284 45.8059 131.951 45.8059V42.4811ZM142.463 39.1562C135.455 40.8187 132.452 45.1409 132.118 45.8059H131.951L132.118 46.8033C131.117 47.4683 130.95 48.632 131.618 49.7957C131.785 49.4632 131.951 48.9645 132.285 48.632C134.12 45.4734 137.124 42.1486 141.462 41.1511V41.4836C137.791 42.3148 135.122 44.8085 133.286 47.6346C132.786 48.4658 132.285 49.297 131.785 50.1282C132.452 50.9594 133.954 51.6243 135.956 51.6243C136.957 51.6243 137.958 51.4581 139.293 51.1256C140.127 50.9594 140.628 50.7931 140.961 50.7931H141.128C150.639 47.6346 161.15 45.1409 170.327 45.1409C170.828 45.1409 171.328 45.1409 171.829 45.1409V45.4734C171.328 45.4734 170.828 45.4734 170.327 45.4734C161.15 45.4734 150.305 48.1333 140.794 51.2919C139.793 52.1231 137.457 53.6192 135.455 55.6141C136.623 56.1129 138.125 56.6116 139.793 57.2766C140.294 54.4504 144.132 52.788 151.473 50.7931C148.97 50.2944 147.469 49.7957 147.469 49.7957L147.635 49.4632C147.635 49.4632 148.136 49.6295 148.97 49.7957C149.804 49.9619 150.806 50.2944 152.14 50.4607C155.477 49.6295 159.315 48.632 163.987 47.4683C165.155 47.1358 166.156 46.9696 166.823 46.9696C169.66 46.9696 168.825 49.1307 166.99 51.4581C167.658 51.4581 168.325 51.2919 168.992 51.1256L173.664 46.4709C173.497 46.4709 173.33 46.4709 173.164 46.6371C172.496 46.8033 171.996 46.8033 171.662 46.8033H171.495H171.328V46.6371V46.4709L171.495 46.3046C171.495 46.1384 171.662 46.1384 171.829 45.9721C171.996 45.6397 172.329 45.3072 172.663 44.8085C173.33 43.9772 173.998 42.9798 174.165 42.4811C173.831 42.6473 173.33 42.8136 172.663 42.9798C171.996 43.146 171.161 43.3123 170.327 43.4785C168.825 43.811 167.324 43.9772 167.324 43.9772H167.157V43.811C167.491 42.6473 168.158 41.9824 168.492 41.6499L168.659 41.4836C168.659 41.4836 168.492 41.4836 168.158 41.4836C167.324 41.4836 166.49 41.3174 165.822 41.3174C160.983 41.3174 159.148 42.6473 158.981 42.8136L158.648 42.6473C158.981 41.6499 159.482 41.1511 159.649 40.8187L159.816 40.6524C159.816 40.6524 159.649 40.6524 159.315 40.6524C158.648 40.6524 157.98 40.6524 157.48 40.6524C151.306 40.6524 149.137 42.4811 148.637 43.146C149.471 42.4811 150.472 41.9824 151.473 41.4836L151.64 41.8161C150.639 42.1486 149.804 42.6473 149.137 43.146C157.146 43.146 167.658 44.9747 162.652 45.3072C156.812 45.8059 148.803 48.4658 144.298 49.1307C144.132 49.4632 143.965 49.7957 143.798 50.1282C143.798 50.2944 143.631 50.4607 143.631 50.4607L143.297 50.2944C143.297 50.2944 143.464 49.9619 143.798 49.297C143.464 49.297 143.13 49.297 142.797 49.297C142.463 49.297 142.129 49.297 141.962 49.297C138.792 48.632 139.627 45.4734 141.796 44.3097C142.964 43.6448 145.3 43.3123 148.136 43.3123C148.136 42.6473 148.637 41.8161 148.97 41.1511C149.137 40.6524 149.304 40.3199 149.471 40.1537C143.965 40.8187 141.462 43.146 141.128 43.4785L140.794 43.811V42.8136C140.794 42.1486 141.128 41.3174 141.462 40.4862C142.129 39.9875 142.296 39.4887 142.463 39.1562Z" fill="url(#paint12_radial_7002_12267)"/>
<path d="M112.431 59.7702H112.598C112.598 59.1052 113.098 53.453 120.273 46.8034L120.106 46.6371H119.939L121.107 50.4607L121.274 50.1282L121.441 49.9619C121.942 49.1307 124.277 46.1384 127.614 44.6422V44.476L127.448 44.3097C127.448 44.3097 126.28 46.4709 126.28 48.1333C126.28 48.4658 126.28 48.9645 126.446 49.297L126.613 49.6295L126.947 49.7957L127.114 49.6295C127.281 49.4632 127.281 49.4632 127.448 49.297C127.781 48.632 128.115 47.6346 128.949 46.3046C129.617 44.9747 130.618 43.4785 132.286 42.3148L132.119 42.1486H131.953L131.786 45.8059L132.119 45.9721C132.453 45.4734 135.623 40.8187 142.798 39.3225V39.1562H142.631C142.631 39.1562 142.297 39.8212 141.964 40.6524C141.63 41.4836 141.296 42.4811 141.296 42.9798V43.4785L141.63 43.146C141.964 42.8136 144.466 40.4862 150.306 39.8212V39.655L150.139 39.4887C150.139 39.4887 149.806 39.9875 149.472 40.8187C149.138 41.4836 148.805 42.4811 148.638 43.146L148.971 43.3123C148.971 43.146 150.807 40.6524 157.981 40.6524C158.482 40.6524 159.149 40.6524 159.817 40.6524C159.984 40.6524 160.15 40.6524 160.317 40.6524L160.15 40.8187C159.984 41.1511 159.483 41.8161 159.149 42.6473L159.483 42.8136C159.65 42.6473 161.485 41.3174 166.324 41.3174C166.991 41.3174 167.826 41.3174 168.66 41.4836C168.827 41.4836 168.993 41.4836 169.16 41.4836L168.993 41.8161C168.66 42.1486 167.992 42.9798 167.659 43.9772V44.1435H167.826C167.826 44.1435 169.16 43.9772 170.829 43.6448C171.663 43.4785 172.331 43.3123 173.165 43.146C173.832 42.9798 174.5 42.8136 174.833 42.6473H175V42.3148H174.5L174.333 42.6473C173.999 43.146 173.332 44.1435 172.831 44.9747C172.497 45.4734 172.164 45.8059 171.997 46.1384C171.83 46.3046 171.83 46.4709 171.663 46.4709L171.496 46.6371V46.8034V46.9696H171.663H171.83C172.164 46.9696 172.831 46.8034 173.332 46.8034C173.999 46.6371 174.5 46.6371 174.5 46.6371V46.4709L174.333 46.3046L169.16 51.4581L170.328 53.1205L167.659 54.2842L170.161 55.2817V55.1154L169.995 54.9492C169.995 54.9492 169.828 55.1154 169.661 55.2817C168.827 55.7804 166.991 56.7778 165.156 57.2766C164.655 57.4428 164.488 57.4428 164.322 57.609L164.155 57.7753V57.9415V58.1078H164.322C164.488 58.1078 164.655 58.1078 164.989 58.1078C165.156 58.1078 165.49 58.1078 165.49 58.1078H167.992V57.9415L167.826 57.7753C167.826 57.7753 167.826 57.9415 167.659 57.9415C167.325 58.4402 166.157 59.7702 164.822 61.1001C163.487 62.43 161.986 63.4275 160.818 63.5937H160.15L162.82 64.9237V64.7574V64.5912H162.653C161.986 64.9237 158.982 66.4198 156.313 66.4198C155.979 66.4198 155.645 66.4198 155.312 66.4198H154.811L157.314 68.7472L157.481 68.581V68.4147H157.314C156.813 68.581 154.811 69.2459 152.308 69.2459C151.307 69.2459 150.139 69.0797 149.138 68.7472L148.805 68.581L151.307 72.9032L151.474 72.737V72.5707C151.474 72.5707 150.974 72.5708 150.306 72.4045C147.97 72.2383 143.132 71.4071 140.462 69.7447L139.961 69.4122L142.297 75.0644L132.119 69.5784L133.788 74.2332H133.955V74.0669C133.955 74.0669 133.788 74.0669 133.621 74.0669C132.453 73.9007 127.448 72.737 123.443 68.581L122.943 68.0822L124.111 72.4045H124.277V72.2383H124.111C123.443 72.072 120.774 71.5733 118.271 69.7447C115.601 67.916 113.265 64.7574 112.932 59.4377L112.431 59.7702H112.264C112.431 65.4224 115.267 68.7472 118.271 70.5759C121.107 72.4045 123.944 72.9032 123.944 72.9032H124.277L123.276 69.0797H123.109L122.943 69.2459C127.614 74.0669 133.621 74.8981 133.621 74.8981H133.955L132.62 70.7421L142.798 76.2281L140.295 70.2434H140.128L139.961 70.4096C141.797 71.5733 144.466 72.2383 146.969 72.737C149.305 73.0695 151.14 73.2357 151.14 73.2357H151.474L148.971 69.0797L148.805 69.2459V69.4122C149.972 69.7446 150.974 69.9109 152.142 69.9109C154.978 69.9109 157.314 68.9134 157.314 68.9134L157.481 68.7472L155.145 66.5861L154.978 66.7523V66.9185C155.312 66.9185 155.645 66.9185 155.979 66.9185C159.316 66.9185 162.653 65.0899 162.653 65.0899L162.987 64.9237L160.484 63.76V63.9262V64.0924C161.318 64.0924 162.153 63.5937 162.987 63.095C165.49 61.4326 167.826 58.1078 167.826 58.1078L167.992 57.7753H165.156C165.156 57.7753 164.989 57.7753 164.655 57.7753C164.489 57.7753 164.322 57.7753 164.155 57.7753H163.988L163.821 57.9415H163.988V57.7753L163.821 57.9415H163.988C163.988 57.9415 164.155 57.9415 164.322 57.7753C164.488 57.7753 164.822 57.609 165.156 57.609C167.826 56.9441 170.161 55.2817 170.161 55.2817L170.495 55.1154L168.326 54.2842L170.662 53.2868L169.494 51.6243L174.833 46.3046H174.5C174.5 46.3046 173.999 46.4709 173.332 46.4709C172.831 46.6371 172.164 46.6371 171.83 46.6371L171.663 46.8034H171.83V46.6371L171.663 46.8034H171.83L171.997 46.6371C172.33 46.1384 172.998 45.3072 173.665 44.476C173.999 43.9772 174.333 43.6448 174.5 43.3123C174.666 43.146 174.666 42.9798 174.833 42.8136L175 42.4811V42.3148H174.833L174.5 42.4811C174.166 42.6473 173.665 42.8136 172.998 42.9798C171.997 43.3123 170.662 43.4785 169.661 43.6448C168.66 43.811 167.826 43.9772 167.826 43.9772V44.1435H167.992C168.159 43.3123 168.493 42.8136 168.827 42.4811C168.993 42.3148 169.16 42.1486 169.327 41.9824L169.494 41.8161V41.6499L169.327 41.4836L168.993 41.3174C168.827 41.3174 168.66 41.3174 168.493 41.3174C167.659 41.3174 166.824 41.1511 166.157 41.1511C160.985 41.1511 159.149 42.6473 159.149 42.8136L159.316 42.9798H159.483C159.65 42.4811 159.984 41.9824 160.15 41.6499C160.317 41.4836 160.317 41.3174 160.484 41.1511L160.651 40.8187V40.6524L160.317 40.4862C160.15 40.4862 159.984 40.4862 159.817 40.4862C159.149 40.4862 158.482 40.4862 157.981 40.4862C150.473 40.4862 148.638 43.3123 148.638 43.3123L148.805 43.4785H148.971C148.971 42.9798 149.305 41.9824 149.806 41.3174C149.972 40.9849 150.139 40.6524 150.306 40.3199C150.473 40.1537 150.473 39.9875 150.473 39.9875L150.64 39.655H150.306C144.133 40.3199 141.463 43.146 141.463 43.146L141.63 43.3123H141.797C141.797 42.8136 142.13 41.8161 142.464 41.1511C142.631 40.8187 142.798 40.3199 142.965 40.1537C143.132 39.8212 143.132 39.655 143.132 39.655L143.298 39.3225H142.965C135.123 40.9849 131.953 46.1384 131.953 46.1384L132.119 46.3046H132.286L132.453 42.3148L132.119 42.4811C130.117 44.1435 128.949 45.9721 128.282 47.4683C127.948 48.1333 127.614 48.7982 127.448 49.297C127.281 49.4632 127.281 49.6295 127.114 49.7957L126.947 49.9619L126.78 49.7957C126.613 49.4632 126.613 49.1307 126.613 48.7982C126.613 47.967 126.947 47.1358 127.281 46.3046C127.448 45.9721 127.614 45.6397 127.614 45.4734C127.781 45.3072 127.781 45.1409 127.781 45.1409L128.115 44.6422L127.614 44.8085C123.777 46.4709 121.274 50.4607 121.274 50.4607L121.441 50.6269H121.608L120.44 46.8034L120.273 46.9696C112.765 54.2842 112.598 60.2689 112.598 60.2689L112.431 59.7702Z" fill="#545911"/>
<path d="M113.932 62.5962C113.932 62.5962 114.433 62.2637 115.434 61.9313C122.108 58.6064 150.139 45.6396 170.495 45.6396C170.996 45.6396 171.496 45.6396 171.997 45.6396V45.3071C171.496 45.3071 170.996 45.3071 170.495 45.3071C146.969 45.3071 113.766 62.2637 113.766 62.2637L113.932 62.5962Z" fill="#545911"/>
<path d="M132.286 54.6164C132.286 54.6164 145.3 60.7673 157.814 60.7673C160.483 60.7673 163.153 60.4348 165.489 59.7699L165.322 59.4374C162.819 60.1024 160.317 60.4348 157.647 60.4348C151.473 60.4348 145.133 58.9387 140.294 57.2763C137.959 56.4451 135.956 55.7801 134.455 55.1151C133.787 54.7826 133.12 54.6164 132.786 54.4502C132.452 54.2839 132.286 54.1177 132.286 54.1177V54.6164Z" fill="#545911"/>
<path d="M123.275 57.9407C123.275 57.9407 128.782 68.2476 142.296 71.24V70.9075C135.622 69.4113 130.951 66.2527 127.947 63.2604C126.446 61.7642 125.278 60.4343 124.61 59.4368C124.277 58.9381 123.943 58.6056 123.776 58.2731L123.609 57.9407V57.7744L123.275 57.9407Z" fill="#545911"/>
<path d="M147.802 49.7954C147.802 49.7954 155.978 52.1228 163.987 52.1228C165.822 52.1228 167.658 51.9565 169.493 51.624V51.2915C167.824 51.624 165.989 51.7903 164.154 51.7903C160.149 51.7903 156.145 51.2915 153.141 50.6266C151.64 50.2941 150.305 50.1279 149.471 49.7954C148.637 49.6291 148.136 49.4629 148.136 49.4629L147.802 49.7954Z" fill="#545911"/>
<path d="M144.132 49.9609C144.132 49.9609 144.132 49.7947 144.298 49.6284C144.799 48.2985 147.469 42.9788 152.14 41.3164L151.974 40.9839C149.137 41.9813 147.135 44.1425 145.8 46.1374C144.465 48.1323 143.798 49.7947 143.798 49.7947L144.132 49.9609Z" fill="#545911"/>
<path d="M129.95 54.7827C129.95 54.7827 129.95 54.6164 130.116 54.2839C130.45 53.1203 131.451 50.4604 133.453 47.6343C135.289 44.9744 137.958 42.3146 141.629 41.4834V41.1509C137.291 42.1483 134.455 45.4732 132.452 48.6317C130.617 51.7903 129.783 54.6164 129.783 54.6164L129.95 54.7827Z" fill="#545911"/>
<path d="M131.451 43.145C129.949 44.1425 128.615 47.7998 127.447 49.1297V49.2959C127.28 49.4622 127.28 49.6284 127.113 49.6284L126.946 49.7947L126.779 49.6284C125.444 49.2959 126.946 45.3062 126.946 45.3062C126.446 45.4724 125.444 46.1374 124.443 46.9686C123.609 52.2883 122.274 56.2781 120.939 58.9379C125.945 56.6106 133.453 53.6182 141.462 50.9584H141.295C140.962 50.9584 140.461 51.1246 139.627 51.2908C138.292 51.6233 137.291 51.7896 136.29 51.7896C134.121 51.7896 132.786 51.1246 132.118 50.2934C131.117 52.122 130.617 53.7845 130.283 54.4494C130.116 54.7819 130.116 54.9481 130.116 54.9481L129.783 54.7819C129.783 54.7819 130.45 52.6208 131.785 49.9609C131.117 48.9635 131.284 47.6335 132.285 46.9686L132.118 45.9711H131.952C131.117 45.8049 131.451 43.145 131.451 43.145Z" fill="url(#paint13_radial_7002_12267)"/>
<path d="M127.448 49.1299C127.114 49.4624 126.947 49.6286 126.613 49.6286L126.78 49.7948L126.947 49.6286C127.281 49.6286 127.281 49.4624 127.448 49.1299Z" fill="#40450D"/>
<path d="M117.769 49.7949C116.601 51.1249 115.099 52.9535 114.098 55.1146C113.097 57.442 112.597 59.4369 112.597 61.2656V61.5981C115.767 56.9433 117.269 52.9535 117.769 49.7949Z" fill="url(#paint14_radial_7002_12267)"/>
<path d="M132.452 54.4499C129.282 55.6136 126.279 56.9435 123.609 58.1072L123.776 58.2734C123.943 58.6059 124.277 58.9384 124.61 59.4371C125.278 60.4345 126.446 61.7645 127.948 63.2607C130.617 65.7543 134.455 68.5804 139.794 70.2428L139.627 69.7441L139.961 69.9103V69.7441C140.461 70.0765 140.962 70.409 141.629 70.5753C141.796 70.5753 142.13 70.7415 142.464 70.7415V70.9077C145.467 71.9052 149.471 72.5702 150.472 72.7364H150.806L148.136 68.5804C148.136 68.5804 145.967 69.0791 143.298 69.0791C139.46 69.0791 134.455 68.2479 132.619 63.7594C131.451 60.9333 133.287 58.1072 135.456 55.946C133.62 55.1148 132.452 54.6161 132.452 54.6161V54.4499ZM140.962 51.4575C137.959 52.455 135.289 53.4524 132.619 54.4499C132.786 54.4499 132.953 54.6161 133.12 54.6161C133.454 54.7823 134.121 54.9486 134.788 55.2811C135.122 55.4473 135.456 55.4473 135.623 55.6136C137.625 53.7849 140.128 52.1225 140.962 51.4575Z" fill="url(#paint15_radial_7002_12267)"/>
<path d="M150.305 72.9025C150.472 72.9025 150.639 72.9025 150.639 72.9025H150.305ZM139.627 69.9102L139.794 70.4089H139.961L139.794 70.0764L139.627 69.9102Z" fill="#40450D"/>
<path d="M123.443 58.1069C122.442 58.6057 121.441 58.9381 120.606 59.4369C120.106 60.2681 119.605 61.0993 119.105 61.7642C118.437 62.7617 117.603 63.4267 116.936 64.0916C116.268 64.7566 115.601 65.2553 114.933 65.4215C114.6 65.5878 114.266 65.754 114.099 65.754C114.266 66.0865 114.433 66.419 114.6 66.5852C117.77 70.7413 123.443 72.2374 123.443 72.2374L122.942 70.2425L122.442 68.4139L122.609 68.5801L122.442 67.9152C122.942 68.7464 123.443 69.4113 123.943 69.9101C126.613 72.2374 129.616 73.4011 131.452 73.8999C132.286 73.8999 132.62 73.7336 132.62 73.7336L131.118 69.5776L141.296 75.0635L140.295 72.0712L139.627 70.575C129.116 67.4164 124.11 59.4369 123.443 58.1069Z" fill="url(#paint16_radial_7002_12267)"/>
<path d="M126.279 71.9058C127.78 73.0695 129.115 73.5682 130.116 73.9007C128.948 73.4019 127.614 72.737 126.279 71.9058Z" fill="url(#paint17_radial_7002_12267)"/>
<path d="M124.109 69.9112C124.777 70.7424 125.444 71.4074 126.112 71.9061C127.446 72.7373 128.781 73.4022 129.949 73.901C130.617 74.0672 131.117 74.0672 131.451 74.0672C129.782 73.4022 126.779 72.2386 124.109 69.9112ZM114.265 65.9214C114.432 66.2539 114.599 66.5864 114.766 66.7526C114.599 66.4201 114.432 66.0876 114.265 65.9214Z" fill="#40450D"/>
<path d="M141.296 50.959C133.12 53.6188 125.779 56.7774 120.773 58.9386C120.773 59.1048 120.606 59.271 120.606 59.4373C121.441 59.1048 122.442 58.6061 123.443 58.1074L123.276 57.9411L123.61 57.7749V57.9411V58.1074C126.113 56.9437 129.116 55.78 132.453 54.4501V54.2838H132.62C135.289 53.2864 138.126 52.2889 140.962 51.2915C141.296 51.1252 141.463 50.959 141.296 50.959Z" fill="#40450D"/>
<path d="M132.452 54.2842L132.286 54.6167C132.286 54.6167 133.454 55.1154 135.289 55.9466L135.623 55.6141C135.289 55.4479 134.955 55.2816 134.788 55.2816C134.121 54.9491 133.454 54.7829 133.12 54.6167C132.786 54.4504 132.619 54.4504 132.452 54.2842Z" fill="#40450D"/>
<path d="M141.629 70.7412C141.796 70.9075 142.13 70.9075 142.296 71.0737V70.9075C142.13 70.9075 141.796 70.9075 141.629 70.7412ZM123.609 57.7744L123.275 57.9407L123.442 58.1069C124.277 59.4368 129.282 67.4164 139.96 70.575H140.127L139.96 70.2425H139.794C134.454 68.5801 130.617 65.754 127.947 63.2604C126.446 61.7642 125.278 60.4343 124.61 59.4368C124.277 58.9381 123.943 58.6056 123.776 58.2731L123.609 58.1069V57.7744Z" fill="#40450D"/>
<path d="M131.618 49.7949C130.117 52.4548 129.616 54.6159 129.616 54.6159L129.95 54.7822C129.95 54.7822 129.95 54.6159 130.117 54.2834C130.45 53.4522 130.951 51.9561 131.952 50.1274L131.618 49.7949Z" fill="#40450D"/>
<path d="M139.961 57.6085C139.961 58.2734 139.961 59.1046 140.295 59.9358C141.629 63.7594 149.638 64.5906 154.644 64.5906C157.647 64.5906 159.483 64.2581 158.481 64.0919C156.813 63.7594 159.816 62.097 161.818 60.6008C160.484 60.767 159.149 60.767 157.814 60.767C151.474 60.9333 144.8 59.2709 139.961 57.6085ZM151.641 50.7926C144.299 52.7875 140.461 54.4499 139.961 57.276C140.128 57.276 140.295 57.4422 140.462 57.4422C145.3 58.9384 151.641 60.6008 157.814 60.6008C159.316 60.6008 160.817 60.4346 162.319 60.2683C163.32 59.4371 163.821 58.9384 162.82 58.7721C159.816 58.2734 166.157 54.9486 166.157 54.9486C166.157 54.9486 164.488 54.9486 166.991 52.1225C165.99 52.2887 164.989 52.2887 163.988 52.2887C159.483 52.1225 154.811 51.2913 151.641 50.7926ZM167.158 47.1353C166.49 47.1353 165.489 47.3015 164.321 47.634C159.649 48.7977 155.812 49.6289 152.475 50.6263C152.642 50.6263 152.808 50.6263 152.975 50.7926C155.979 51.2913 159.983 51.9563 163.988 51.9563C165.155 51.9563 166.323 51.9563 167.325 51.79C169.327 49.2964 169.994 47.1353 167.158 47.1353Z" fill="url(#paint18_radial_7002_12267)"/>
<path d="M140.127 57.2749V57.6074C144.966 59.2698 151.64 60.9322 157.98 60.9322C159.315 60.9322 160.65 60.9322 161.984 60.766C162.151 60.5997 162.318 60.4335 162.485 60.4335C160.983 60.5997 159.482 60.766 157.98 60.766C151.807 60.766 145.466 59.2698 140.628 57.6074C140.461 57.4411 140.294 57.2749 140.127 57.2749Z" fill="#646D15"/>
<path d="M152.475 50.4607C152.308 50.4607 151.974 50.6269 151.807 50.6269C154.977 51.2919 159.482 51.9568 163.987 51.9568C164.988 51.9568 165.989 51.9568 166.991 51.7906L167.157 51.6244L167.324 51.2919C166.156 51.4581 165.155 51.4581 163.987 51.4581C159.983 51.4581 155.978 50.9594 152.975 50.2944C152.808 50.6269 152.641 50.6269 152.475 50.4607Z" fill="#646D15"/>
<path d="M148.636 42.8135C145.967 42.8135 143.464 43.146 142.296 43.8109C140.127 44.9746 139.293 48.1332 142.463 48.7982C142.63 48.7982 142.964 48.7982 143.297 48.7982C143.631 48.7982 143.965 48.7982 144.298 48.7982C144.632 48.1332 145.133 47.1358 145.8 46.3045C146.634 45.1409 147.635 43.9772 148.803 42.9797L148.636 42.8135ZM149.471 42.8135C146.968 44.6421 145.466 47.302 144.632 48.7982C148.97 48.2994 156.979 45.4733 162.986 44.9746C168.158 44.6421 157.646 42.8135 149.471 42.8135Z" fill="url(#paint19_radial_7002_12267)"/>
<path d="M148.971 42.8135H148.637L148.804 42.9797L148.971 42.8135Z" fill="#646D15"/>
<path d="M149.471 42.8135C149.304 42.8135 149.138 42.8135 148.971 42.8135L148.804 42.9797C147.636 43.9772 146.635 45.1409 145.8 46.3045C145.133 47.302 144.633 48.1332 144.299 48.7982H144.633C145.467 47.1358 147.135 44.6421 149.471 42.8135Z" fill="#646D15"/>
<path d="M122.608 53.2853C121.607 56.1114 120.773 58.2726 119.939 59.935C120.94 58.2726 121.774 56.1114 122.608 53.2853ZM116.769 39.8198C117.603 41.316 118.437 43.6433 118.437 46.6357C118.437 51.1242 116.602 57.2751 110.595 65.4209L110.929 65.5872C111.263 65.7534 111.596 65.9197 112.264 65.9197C112.597 65.9197 113.098 65.9197 113.599 65.5872C113.432 65.5872 113.432 65.5872 113.432 65.5872C113.098 65.7534 112.597 65.9197 112.264 65.9197C111.429 65.9197 110.762 65.4209 110.762 65.4209C111.763 64.5897 113.765 61.2649 113.765 61.2649C113.932 61.2649 114.099 61.2649 114.266 61.2649C116.435 61.2649 119.438 58.2726 121.441 50.958C122.942 45.1395 124.944 39.986 118.938 39.986C118.771 39.986 118.604 39.986 118.437 39.986H117.937C117.436 39.986 117.102 39.986 116.769 39.8198ZM124.778 37.3262C124.444 37.6587 124.11 37.9911 123.61 38.1574C122.775 38.6561 121.44 38.9886 120.106 38.9886C119.605 38.9886 119.105 38.9886 118.771 38.9886C117.77 38.9886 116.769 38.8223 116.101 38.6561L116.268 38.9886C117.269 39.1548 118.104 39.1548 118.938 39.1548C122.942 39.1548 124.611 37.8249 124.611 37.8249C124.611 40.3185 124.444 42.4797 124.277 44.6408C124.611 42.3134 124.778 39.986 124.778 37.3262Z" fill="url(#paint20_radial_7002_12267)"/>
<path d="M114.765 37.4941C115.099 37.9928 118.102 40.8189 118.102 46.4711C118.102 50.7934 116.267 56.9443 110.26 65.0901V65.2564V65.4226C110.26 65.4226 110.928 66.2538 112.262 66.2538C112.596 66.2538 113.097 66.2538 113.764 65.9213C113.764 65.9213 116.434 65.5888 119.27 61.7653C122.107 57.9417 124.943 50.7934 125.444 36.9953V36.8291L114.598 37.3278L114.765 37.4941V37.6603L125.11 37.1616V36.9953H124.943C124.443 50.6271 121.606 57.7755 118.937 61.5991C117.602 63.4277 116.267 64.4252 115.266 65.0901C114.765 65.4226 114.432 65.5888 114.098 65.5888L113.764 65.7551C113.264 65.9213 112.763 66.0876 112.429 66.0876C111.929 66.0876 111.428 65.9213 111.095 65.7551L110.761 65.5888L110.594 65.7551L110.761 65.9213C116.934 57.7755 118.77 51.6246 118.77 47.1361C118.436 40.3202 114.932 37.4941 114.765 37.4941Z" fill="#972D03"/>
<path d="M121.106 35.1655C120.605 35.1655 120.272 35.1655 119.771 35.1655C118.436 35.3318 117.268 35.6643 116.434 35.9967C116.1 36.163 115.934 36.4955 115.934 36.6617C115.934 37.3267 117.102 37.6591 118.77 37.6591C119.104 37.6591 119.437 37.6591 119.771 37.6591C121.773 37.4929 123.442 36.6617 123.275 35.9967C123.275 35.6643 122.941 35.3318 122.274 35.1655C121.94 35.1655 121.607 35.1655 121.106 35.1655Z" fill="url(#paint21_radial_7002_12267)"/>
<path d="M124.944 36.4962C124.777 36.8287 124.61 36.9949 124.443 37.1611C123.776 37.8261 122.108 38.4911 119.938 38.6573C119.438 38.6573 118.937 38.6573 118.604 38.6573C117.603 38.6573 116.601 38.4911 115.934 38.3248C115.6 38.1586 115.267 37.9923 115.1 37.8261C114.933 37.6599 114.766 37.4936 114.766 37.3274C114.766 37.1611 114.933 36.9949 115.1 36.6624C115.767 35.9974 117.436 35.3325 119.605 35.1662C120.105 35.1662 120.606 35.1662 120.94 35.1662C121.941 35.1662 122.942 35.3325 123.609 35.4987C123.943 35.665 124.277 35.8312 124.443 35.9974C124.61 36.1637 124.777 36.3299 124.777 36.4962H124.944C125.111 36.1637 124.944 35.9974 124.777 35.8312C124.11 35.3325 122.775 35 121.106 35C120.606 35 120.105 35 119.772 35C118.437 35.1662 117.102 35.4987 116.268 35.8312C115.767 35.9974 115.433 36.3299 115.1 36.4962C114.766 36.8287 114.599 36.9949 114.599 37.3274V37.4936C114.599 37.8261 114.766 37.9923 114.933 38.1586C115.6 38.6573 116.935 38.9898 118.604 38.9898C119.104 38.9898 119.605 38.9898 119.938 38.9898C121.273 38.8235 122.608 38.4911 123.442 38.1586C123.943 37.9923 124.277 37.6599 124.61 37.4936C124.944 37.1611 125.111 36.9949 125.111 36.6624L124.944 36.4962Z" fill="#972D03"/>
<path d="M122.442 35.332C122.942 35.4983 123.276 35.8308 123.443 36.1632C123.443 36.8282 121.941 37.6594 119.939 37.8257C119.605 37.8257 119.271 37.8257 118.938 37.8257C117.436 37.8257 116.268 37.4932 116.101 36.8282C116.101 36.662 116.268 36.3295 116.602 36.1632C116.101 36.3295 115.768 36.662 115.434 36.8282C115.267 36.9944 115.1 37.3269 115.1 37.4932C115.1 37.6594 115.267 37.8257 115.434 37.9919C115.601 38.1581 115.934 38.3244 116.268 38.4906C116.935 38.6569 117.937 38.8231 118.938 38.8231C119.438 38.8231 119.772 38.8231 120.272 38.8231C122.275 38.6569 124.11 37.9919 124.777 37.3269C124.944 37.1607 125.111 36.8282 125.111 36.662C125.111 36.4957 124.944 36.3295 124.777 36.1632C124.611 35.997 124.277 35.8308 123.943 35.6645C123.443 35.4983 122.942 35.332 122.442 35.332Z" fill="url(#paint22_radial_7002_12267)"/>
<path d="M121.106 35C121.607 35 122.107 35.1662 122.441 35.1662C122.942 35.1662 123.442 35.3325 123.776 35.4987C124.11 35.665 124.443 35.8312 124.61 35.9974C124.777 36.1637 124.944 36.3299 124.944 36.4962C124.944 36.6624 124.777 36.8287 124.61 37.1611C123.943 37.8261 122.274 38.4911 120.105 38.6573C119.605 38.6573 119.104 38.6573 118.77 38.6573C117.769 38.6573 116.768 38.4911 116.101 38.3248C115.767 38.1586 115.433 37.9923 115.267 37.8261C115.1 37.6599 114.933 37.4936 114.933 37.3274C114.933 37.1611 115.1 36.9949 115.267 36.6624C115.6 36.3299 115.934 36.1637 116.434 35.9974C116.768 35.8312 117.102 35.665 117.436 35.4987C115.767 35.9974 114.599 36.6624 114.766 37.4936C114.933 38.3248 116.601 38.9898 118.77 38.9898C119.271 38.9898 119.605 38.9898 120.105 38.9898C122.942 38.6573 125.111 37.6599 125.111 36.6624C124.944 35.665 123.275 35 121.106 35Z" fill="#912603"/>
<path d="M115.768 38.9893C115.768 38.9893 115.768 39.3217 116.269 39.6542C116.102 39.3217 115.935 39.1555 115.768 38.9893Z" fill="#F4F03D"/>
<path d="M116.935 64.0923C116.268 64.7573 115.601 65.0897 114.933 65.4222C115.601 65.256 116.268 64.9235 116.935 64.0923Z" fill="url(#paint23_radial_7002_12267)"/>
<path d="M124.61 37.8252C124.61 37.8252 122.942 39.1551 118.937 39.1551C118.103 39.1551 117.269 39.1551 116.267 38.9889C116.434 39.1551 116.601 39.4876 116.768 39.8201C117.102 39.9863 117.602 39.9863 118.103 39.9863H118.603C118.77 39.9863 118.937 39.9863 119.104 39.9863C125.111 39.9863 123.275 45.3061 121.607 50.9583C119.604 58.2729 116.601 61.2652 114.432 61.2652C114.265 61.2652 114.098 61.2652 113.932 61.2652C113.932 61.2652 111.929 64.59 110.928 65.4212C110.928 65.4212 111.596 65.92 112.43 65.92C112.764 65.92 113.097 65.92 113.598 65.5875C113.598 65.5875 113.598 65.5875 113.765 65.5875L114.098 65.4212C114.432 65.255 114.766 65.255 115.266 64.9225C116.267 64.4238 117.602 63.4264 118.937 61.4315C119.271 60.9327 119.604 60.434 120.105 59.769C120.939 58.1066 121.94 55.9455 122.775 53.1194C123.442 50.792 124.109 47.7997 124.443 44.4748C124.443 42.4799 124.61 40.1526 124.61 37.8252Z" fill="url(#paint24_radial_7002_12267)"/>
<path d="M119.938 59.9357C119.605 60.6006 119.271 61.0993 118.771 61.5981C117.436 63.4267 116.101 64.4242 115.1 65.0891C114.599 65.4216 114.266 65.5879 113.932 65.5879L113.598 65.7541C113.765 65.7541 113.765 65.7541 113.932 65.7541C114.266 65.7541 114.599 65.7541 114.933 65.5879C115.433 65.2554 116.101 64.9229 116.935 64.2579C117.936 63.2605 118.937 61.9306 119.938 59.9357ZM124.277 44.4752C123.943 47.9663 123.275 50.7924 122.608 53.1198C122.608 52.9535 122.775 52.7873 122.775 52.621C123.609 50.2937 123.943 47.6338 124.277 44.4752ZM115.767 38.9893C115.934 39.1555 116.101 39.488 116.268 39.6542C116.435 39.8205 116.601 39.8205 116.768 39.8205C116.601 39.488 116.435 39.1555 116.268 38.9893C116.101 38.9893 115.934 38.9893 115.767 38.9893Z" fill="#912603"/>
<defs>
<radialGradient id="paint0_radial_7002_12267" cx="0" cy="0" r="1" gradientTransform="matrix(51.5243 33.1969 33.3187 -51.336 83.7991 107.199)" gradientUnits="userSpaceOnUse">
<stop stop-color="#FAE650"/>
<stop offset="1" stop-color="#FBB906"/>
</radialGradient>
<radialGradient id="paint1_radial_7002_12267" cx="0" cy="0" r="1" gradientTransform="matrix(51.4539 33.1516 33.2732 -51.2658 85.6726 107.142)" gradientUnits="userSpaceOnUse">
<stop stop-color="#FAEB61"/>
<stop offset="1" stop-color="#FCC80B"/>
</radialGradient>
<radialGradient id="paint2_radial_7002_12267" cx="0" cy="0" r="1" gradientTransform="matrix(51.4984 33.1801 33.3018 -51.3102 84.5925 105.913)" gradientUnits="userSpaceOnUse">
<stop stop-color="#FAEF78"/>
<stop offset="1" stop-color="#FBD30E"/>
</radialGradient>
<radialGradient id="paint3_radial_7002_12267" cx="0" cy="0" r="1" gradientTransform="matrix(51.5483 33.2124 33.3342 -51.3599 83.9774 107.846)" gradientUnits="userSpaceOnUse">
<stop stop-color="#FAEB61"/>
<stop offset="1" stop-color="#FCC80B"/>
</radialGradient>
<radialGradient id="paint4_radial_7002_12267" cx="0" cy="0" r="1" gradientTransform="matrix(51.6195 33.2582 33.3802 -51.4309 84.8529 106.57)" gradientUnits="userSpaceOnUse">
<stop stop-color="#FAEF78"/>
<stop offset="1" stop-color="#FBD30E"/>
</radialGradient>
<radialGradient id="paint5_radial_7002_12267" cx="0" cy="0" r="1" gradientTransform="matrix(51.9204 33.4521 33.5747 -51.7307 83.7031 107.033)" gradientUnits="userSpaceOnUse">
<stop stop-color="#CE8D06"/>
<stop offset="1" stop-color="#D26D04"/>
</radialGradient>
<radialGradient id="paint6_radial_7002_12267" cx="0" cy="0" r="1" gradientTransform="matrix(51.5326 33.2022 33.324 -51.3443 83.9145 106.884)" gradientUnits="userSpaceOnUse">
<stop stop-color="#F6CC13"/>
<stop offset="1" stop-color="#F8A001"/>
</radialGradient>
<radialGradient id="paint7_radial_7002_12267" cx="0" cy="0" r="1" gradientTransform="matrix(51.2318 33.0085 33.1296 -51.0446 84.629 107.723)" gradientUnits="userSpaceOnUse">
<stop stop-color="#FEFACC"/>
<stop offset="1" stop-color="#FDEEA9"/>
</radialGradient>
<radialGradient id="paint8_radial_7002_12267" cx="0" cy="0" r="1" gradientTransform="matrix(50.8187 32.7423 32.8624 -50.6329 84.7691 106.826)" gradientUnits="userSpaceOnUse">
<stop stop-color="#FDFBD4"/>
<stop offset="1" stop-color="#FDF3A9"/>
</radialGradient>
<radialGradient id="paint9_radial_7002_12267" cx="0" cy="0" r="1" gradientTransform="matrix(51.5366 33.2048 33.3266 -51.3483 83.5636 107.223)" gradientUnits="userSpaceOnUse">
<stop stop-color="#FDFBDA"/>
<stop offset="1" stop-color="#FDF7AB"/>
</radialGradient>
<radialGradient id="paint10_radial_7002_12267" cx="0" cy="0" r="1" gradientTransform="matrix(50.8913 32.789 32.9093 -50.7053 85.5713 106.357)" gradientUnits="userSpaceOnUse">
<stop stop-color="#FDFBD4"/>
<stop offset="1" stop-color="#FDF3A9"/>
</radialGradient>
<radialGradient id="paint11_radial_7002_12267" cx="0" cy="0" r="1" gradientTransform="matrix(51.1506 32.9562 33.077 -50.9637 83.7384 107.151)" gradientUnits="userSpaceOnUse">
<stop stop-color="#FDFBDA"/>
<stop offset="1" stop-color="#FDF7AB"/>
</radialGradient>
<radialGradient id="paint12_radial_7002_12267" cx="0" cy="0" r="1" gradientUnits="userSpaceOnUse" gradientTransform="translate(143.387 57.053) scale(25.5752 25.4818)">
<stop stop-color="#DBEF4B"/>
<stop offset="1" stop-color="#7DC21F"/>
</radialGradient>
<radialGradient id="paint13_radial_7002_12267" cx="0" cy="0" r="1" gradientUnits="userSpaceOnUse" gradientTransform="translate(143.747 57.2748) scale(25.6203 25.5267)">
<stop stop-color="#AABD10"/>
<stop offset="1" stop-color="#5E971D"/>
</radialGradient>
<radialGradient id="paint14_radial_7002_12267" cx="0" cy="0" r="1" gradientUnits="userSpaceOnUse" gradientTransform="translate(143.465 57.5093) scale(25.6485 25.5548)">
<stop stop-color="#AABD10"/>
<stop offset="1" stop-color="#5E971D"/>
</radialGradient>
<radialGradient id="paint15_radial_7002_12267" cx="0" cy="0" r="1" gradientUnits="userSpaceOnUse" gradientTransform="translate(143.754 57.1732) scale(25.5973 25.5038)">
<stop stop-color="#AABD10"/>
<stop offset="1" stop-color="#5E971D"/>
</radialGradient>
<radialGradient id="paint16_radial_7002_12267" cx="0" cy="0" r="1" gradientUnits="userSpaceOnUse" gradientTransform="translate(143.733 57.2286) scale(25.5761 25.4826)">
<stop stop-color="#AABD10"/>
<stop offset="1" stop-color="#5E971D"/>
</radialGradient>
<radialGradient id="paint17_radial_7002_12267" cx="0" cy="0" r="1" gradientTransform="matrix(45.284 29.1764 29.2833 -45.1188 88.2899 100.785)" gradientUnits="userSpaceOnUse">
<stop stop-color="#C4B40A"/>
<stop offset="1" stop-color="#C69008"/>
</radialGradient>
<radialGradient id="paint18_radial_7002_12267" cx="0" cy="0" r="1" gradientUnits="userSpaceOnUse" gradientTransform="translate(143.21 57.7235) scale(25.5569 25.4635)">
<stop stop-color="#DFF15C"/>
<stop offset="1" stop-color="#90CC2A"/>
</radialGradient>
<radialGradient id="paint19_radial_7002_12267" cx="0" cy="0" r="1" gradientUnits="userSpaceOnUse" gradientTransform="translate(143.194 57.7198) scale(25.5922 25.4986)">
<stop stop-color="#DFF15C"/>
<stop offset="1" stop-color="#90CC2A"/>
</radialGradient>
<radialGradient id="paint20_radial_7002_12267" cx="0" cy="0" r="1" gradientTransform="matrix(9.14018 1.87352 4.32318 -13.9652 116.756 51.2285)" gradientUnits="userSpaceOnUse">
<stop stop-color="#E07103"/>
<stop offset="1" stop-color="#943E04"/>
</radialGradient>
<radialGradient id="paint21_radial_7002_12267" cx="0" cy="0" r="1" gradientTransform="matrix(5.0641 -0.163298 -0.070599 -2.01445 119.858 36.8759)" gradientUnits="userSpaceOnUse">
<stop stop-color="#E07103"/>
<stop offset="1" stop-color="#943E04"/>
</radialGradient>
<radialGradient id="paint22_radial_7002_12267" cx="0" cy="0" r="1" gradientTransform="matrix(5.06179 -0.163164 -0.0704464 -2.01352 119.832 36.8966)" gradientUnits="userSpaceOnUse">
<stop stop-color="#DC6003"/>
<stop offset="1" stop-color="#8E3504"/>
</radialGradient>
<radialGradient id="paint23_radial_7002_12267" cx="0" cy="0" r="1" gradientUnits="userSpaceOnUse" gradientTransform="translate(144.179 56.824) scale(25.7373 25.6429)">
<stop stop-color="#A7A50F"/>
<stop offset="1" stop-color="#598219"/>
</radialGradient>
<radialGradient id="paint24_radial_7002_12267" cx="0" cy="0" r="1" gradientTransform="matrix(9.15029 1.87553 4.32795 -13.9806 116.634 51.1287)" gradientUnits="userSpaceOnUse">
<stop stop-color="#DC6003"/>
<stop offset="1" stop-color="#8E3504"/>
</radialGradient>
</defs>
</svg>
