<svg width="200" height="200" viewBox="0 0 200 200" fill="none" xmlns="http://www.w3.org/2000/svg">
<path d="M76.2703 66.4038C76.2703 66.4038 48.6587 50.1023 37.4966 73.0933C23.9845 100.955 35.6036 152.198 88.9338 138.494C138.217 125.765 110.671 39.3212 76.2703 66.4038Z" fill="#E63C29"/>
<path d="M89.717 130.506C70.526 143.495 81.2964 107.32 73.9856 82.5755C66.74 57.8959 41.5436 67.0533 41.5436 67.0533C40.0423 68.677 38.7367 70.6254 37.5618 73.0284C23.9845 100.955 35.6035 152.198 88.9337 138.494C99.9 135.637 107.08 129.142 111.193 121.089C99.3778 136.026 89.717 130.506 89.717 130.506Z" fill="#EF483C"/>
<g opacity="0.4" style="mix-blend-mode:soft-light">
<path d="M37.4965 73.0285C26.2039 96.3442 32.4703 136.026 66.022 140.378C33.6453 127.389 32.9925 105.112 39.5854 80.0427C46.3087 54.6487 75.2258 65.8195 75.2258 65.8195C70.069 63.0917 47.3531 52.7003 37.4965 73.0285Z" fill="#FFAF10"/>
</g>
<g opacity="0.4" style="mix-blend-mode:soft-light">
<path d="M37.6924 72.7036C37.6271 72.8335 37.5619 72.9634 37.4966 73.0933C37.4966 73.0283 37.6271 72.8985 37.6924 72.7036Z" fill="#4F1708"/>
</g>
<g opacity="0.4" style="mix-blend-mode:soft-light">
<path d="M37.4966 73.0283C23.9845 100.955 35.6036 152.198 88.9338 138.494C95.6571 136.741 100.944 133.688 104.992 129.661C45.1338 160.966 37.4966 73.0283 37.4966 73.0283Z" fill="#4F1708"/>
</g>
<path opacity="0.5" d="M48.5934 89.5251C48.8818 89.5251 49.1156 88.7982 49.1156 87.9015C49.1156 87.0048 48.8818 86.2778 48.5934 86.2778C48.305 86.2778 48.0712 87.0048 48.0712 87.9015C48.0712 88.7982 48.305 89.5251 48.5934 89.5251Z" fill="#FF9312"/>
<path opacity="0.5" d="M43.306 102.189C43.5944 102.189 43.8282 101.462 43.8282 100.566C43.8282 99.6688 43.5944 98.9419 43.306 98.9419C43.0176 98.9419 42.7838 99.6688 42.7838 100.566C42.7838 101.462 43.0176 102.189 43.306 102.189Z" fill="#FF9312"/>
<path opacity="0.5" d="M57.7972 103.878C58.0856 103.878 58.3194 103.151 58.3194 102.254C58.3194 101.357 58.0856 100.63 57.7972 100.63C57.5088 100.63 57.275 101.357 57.275 102.254C57.275 103.151 57.5088 103.878 57.7972 103.878Z" fill="#FF9312"/>
<path opacity="0.5" d="M50.6821 111.282C50.9705 111.282 51.2043 110.555 51.2043 109.658C51.2043 108.762 50.9705 108.035 50.6821 108.035C50.3937 108.035 50.1599 108.762 50.1599 109.658C50.1599 110.555 50.3937 111.282 50.6821 111.282Z" fill="#FF9312"/>
<path opacity="0.5" d="M62.6929 84.9133C62.9813 84.9133 63.2151 84.1864 63.2151 83.2897C63.2151 82.393 62.9813 81.666 62.6929 81.666C62.4045 81.666 62.1707 82.393 62.1707 83.2897C62.1707 84.1864 62.4045 84.9133 62.6929 84.9133Z" fill="#FF9312"/>
<path opacity="0.5" d="M70.1996 95.3049C70.488 95.3049 70.7218 94.578 70.7218 93.6813C70.7218 92.7846 70.488 92.0576 70.1996 92.0576C69.9112 92.0576 69.6774 92.7846 69.6774 93.6813C69.6774 94.578 69.9112 95.3049 70.1996 95.3049Z" fill="#FF9312"/>
<path opacity="0.5" d="M79.2728 102.709C79.5612 102.709 79.795 101.982 79.795 101.085C79.795 100.188 79.5612 99.4614 79.2728 99.4614C78.9844 99.4614 78.7506 100.188 78.7506 101.085C78.7506 101.982 78.9844 102.709 79.2728 102.709Z" fill="#FF9312"/>
<path opacity="0.5" d="M73.9856 115.373C74.274 115.373 74.5078 114.646 74.5078 113.749C74.5078 112.852 74.274 112.125 73.9856 112.125C73.6972 112.125 73.4634 112.852 73.4634 113.749C73.4634 114.646 73.6972 115.373 73.9856 115.373Z" fill="#FF9312"/>
<path opacity="0.5" d="M88.4767 116.997C88.7651 116.997 88.9989 116.27 88.9989 115.374C88.9989 114.477 88.7651 113.75 88.4767 113.75C88.1883 113.75 87.9545 114.477 87.9545 115.374C87.9545 116.27 88.1883 116.997 88.4767 116.997Z" fill="#FF9312"/>
<path opacity="0.5" d="M81.3617 124.466C81.6501 124.466 81.8839 123.739 81.8839 122.842C81.8839 121.946 81.6501 121.219 81.3617 121.219C81.0733 121.219 80.8395 121.946 80.8395 122.842C80.8395 123.739 81.0733 124.466 81.3617 124.466Z" fill="#FF9312"/>
<path opacity="0.5" d="M93.3071 98.0974C93.5955 98.0974 93.8293 97.3705 93.8293 96.4738C93.8293 95.577 93.5955 94.8501 93.3071 94.8501C93.0187 94.8501 92.7849 95.577 92.7849 96.4738C92.7849 97.3705 93.0187 98.0974 93.3071 98.0974Z" fill="#FF9312"/>
<path opacity="0.5" d="M100.879 108.489C101.168 108.489 101.401 107.762 101.401 106.865C101.401 105.969 101.168 105.242 100.879 105.242C100.591 105.242 100.357 105.969 100.357 106.865C100.357 107.762 100.591 108.489 100.879 108.489Z" fill="#FF9312"/>
<path opacity="0.5" d="M59.5597 111.737C59.8481 111.737 60.0819 111.01 60.0819 110.113C60.0819 109.216 59.8481 108.489 59.5597 108.489C59.2713 108.489 59.0375 109.216 59.0375 110.113C59.0375 111.01 59.2713 111.737 59.5597 111.737Z" fill="#FF9312"/>
<path opacity="0.5" d="M54.2723 124.401C54.5607 124.401 54.7945 123.674 54.7945 122.777C54.7945 121.881 54.5607 121.154 54.2723 121.154C53.9839 121.154 53.7501 121.881 53.7501 122.777C53.7501 123.674 53.9839 124.401 54.2723 124.401Z" fill="#FF9312"/>
<path opacity="0.5" d="M68.7635 126.089C69.0519 126.089 69.2857 125.362 69.2857 124.465C69.2857 123.569 69.0519 122.842 68.7635 122.842C68.4751 122.842 68.2413 123.569 68.2413 124.465C68.2413 125.362 68.4751 126.089 68.7635 126.089Z" fill="#FF9312"/>
<path opacity="0.5" d="M61.6484 133.493C61.9368 133.493 62.1706 132.766 62.1706 131.869C62.1706 130.973 61.9368 130.246 61.6484 130.246C61.36 130.246 61.1262 130.973 61.1262 131.869C61.1262 132.766 61.36 133.493 61.6484 133.493Z" fill="#FF9312"/>
<path opacity="0.5" d="M73.5939 107.125C73.8823 107.125 74.1161 106.398 74.1161 105.502C74.1161 104.605 73.8823 103.878 73.5939 103.878C73.3055 103.878 73.0717 104.605 73.0717 105.502C73.0717 106.398 73.3055 107.125 73.5939 107.125Z" fill="#FF9312"/>
<path opacity="0.5" d="M81.1659 117.516C81.4543 117.516 81.6881 116.789 81.6881 115.893C81.6881 114.996 81.4543 114.269 81.1659 114.269C80.8775 114.269 80.6437 114.996 80.6437 115.893C80.6437 116.789 80.8775 117.516 81.1659 117.516Z" fill="#FF9312"/>
<path opacity="0.5" d="M80.7742 72.1843C81.0626 72.1843 81.2964 71.4574 81.2964 70.5607C81.2964 69.6639 81.0626 68.937 80.7742 68.937C80.4857 68.937 80.252 69.6639 80.252 70.5607C80.252 71.4574 80.4857 72.1843 80.7742 72.1843Z" fill="#FF9312"/>
<path opacity="0.5" d="M75.5521 84.8479C75.8405 84.8479 76.0743 84.121 76.0743 83.2242C76.0743 82.3275 75.8405 81.6006 75.5521 81.6006C75.2637 81.6006 75.0299 82.3275 75.0299 83.2242C75.0299 84.121 75.2637 84.8479 75.5521 84.8479Z" fill="#FF9312"/>
<path opacity="0.5" d="M90.0433 86.5374C90.3317 86.5374 90.5655 85.8104 90.5655 84.9137C90.5655 84.017 90.3317 83.29 90.0433 83.29C89.7549 83.29 89.5211 84.017 89.5211 84.9137C89.5211 85.8104 89.7549 86.5374 90.0433 86.5374Z" fill="#FF9312"/>
<path opacity="0.5" d="M82.9283 93.9412C83.2167 93.9412 83.4505 93.2142 83.4505 92.3175C83.4505 91.4208 83.2167 90.6938 82.9283 90.6938C82.6399 90.6938 82.4061 91.4208 82.4061 92.3175C82.4061 93.2142 82.6399 93.9412 82.9283 93.9412Z" fill="#FF9312"/>
<path opacity="0.5" d="M94.8738 67.5725C95.1622 67.5725 95.396 66.8456 95.396 65.9489C95.396 65.0521 95.1622 64.3252 94.8738 64.3252C94.5854 64.3252 94.3516 65.0521 94.3516 65.9489C94.3516 66.8456 94.5854 67.5725 94.8738 67.5725Z" fill="#FF9312"/>
<path opacity="0.5" d="M102.446 77.9641C102.734 77.9641 102.968 77.2372 102.968 76.3405C102.968 75.4437 102.734 74.7168 102.446 74.7168C102.157 74.7168 101.923 75.4437 101.923 76.3405C101.923 77.2372 102.157 77.9641 102.446 77.9641Z" fill="#FF9312"/>
<path opacity="0.5" d="M100.879 92.2532C101.168 92.2532 101.401 91.5262 101.401 90.6295C101.401 89.7328 101.168 89.0059 100.879 89.0059C100.591 89.0059 100.357 89.7328 100.357 90.6295C100.357 91.5262 100.591 92.2532 100.879 92.2532Z" fill="#FF9312"/>
<path opacity="0.5" d="M104.926 120.309C105.215 120.309 105.448 119.582 105.448 118.685C105.448 117.788 105.215 117.062 104.926 117.062C104.638 117.062 104.404 117.788 104.404 118.685C104.404 119.582 104.638 120.309 104.926 120.309Z" fill="#FF9312"/>
<path opacity="0.5" d="M100.879 124.466C101.168 124.466 101.401 123.739 101.401 122.842C101.401 121.946 101.168 121.219 100.879 121.219C100.591 121.219 100.357 121.946 100.357 122.842C100.357 123.739 100.591 124.466 100.879 124.466Z" fill="#FF9312"/>
<path opacity="0.5" d="M83.9075 133.169C84.1959 133.169 84.4297 132.442 84.4297 131.545C84.4297 130.648 84.1959 129.921 83.9075 129.921C83.6191 129.921 83.3853 130.648 83.3853 131.545C83.3853 132.442 83.6191 133.169 83.9075 133.169Z" fill="#FF9312"/>
<path opacity="0.5" d="M43.8282 121.998C44.1166 121.998 44.3504 121.271 44.3504 120.374C44.3504 119.477 44.1166 118.75 43.8282 118.75C43.5398 118.75 43.306 119.477 43.306 120.374C43.306 121.271 43.5398 121.998 43.8282 121.998Z" fill="#FF9312"/>
<path opacity="0.5" d="M43.306 83.2903C43.5944 83.2903 43.8282 82.5633 43.8282 81.6666C43.8282 80.7699 43.5944 80.043 43.306 80.043C43.0176 80.043 42.7838 80.7699 42.7838 81.6666C42.7838 82.5633 43.0176 83.2903 43.306 83.2903Z" fill="#FF9312"/>
<path opacity="0.5" d="M59.5597 73.8074C59.8481 73.8074 60.0819 73.0804 60.0819 72.1837C60.0819 71.287 59.8481 70.5601 59.5597 70.5601C59.2713 70.5601 59.0375 71.287 59.0375 72.1837C59.0375 73.0804 59.2713 73.8074 59.5597 73.8074Z" fill="#FF9312"/>
<path opacity="0.5" d="M48.5934 74.5227C48.8818 74.5227 49.1156 73.7958 49.1156 72.899C49.1156 72.0023 48.8818 71.2754 48.5934 71.2754C48.305 71.2754 48.0712 72.0023 48.0712 72.899C48.0712 73.7958 48.305 74.5227 48.5934 74.5227Z" fill="#FF9312"/>
<path d="M81.1659 63.2866L79.2729 64.3258C105.383 93.5516 89.4559 131.545 89.4559 131.545C109.561 86.2127 81.1659 63.2866 81.1659 63.2866Z" fill="#FC7A70"/>
<path d="M79.2729 64.3252C78.2938 64.9097 77.3147 65.6241 76.2703 66.4035C76.2703 66.4035 103.555 84.1338 89.3907 131.61C89.3907 131.545 109.691 92.1872 79.2729 64.3252Z" fill="#DD2F22"/>
<g style="mix-blend-mode:soft-light" opacity="0.4">
<path d="M81.4923 63.092C104.208 60.6241 124.378 106.022 104.861 129.727C129.143 106.022 108.778 50.1677 81.4923 63.092Z" fill="#FFAF10"/>
</g>
<path opacity="0.3" d="M76.2703 66.4038C76.2703 66.4038 48.6587 50.1023 37.4966 73.0933C40.9562 69.1316 70.7871 71.2748 74.1162 70.6253C77.4452 69.9109 78.4244 68.1574 78.4244 68.1574C78.2285 67.443 77.8369 66.5987 77.3147 65.6894C76.9883 65.8842 76.5967 66.144 76.2703 66.4038Z" fill="#031E10"/>
<path d="M80.7743 51.9858C80.7743 51.9858 80.709 47.9592 76.0091 49.2581C76.0091 49.2581 73.2023 53.7394 74.312 65.4297C74.312 65.4297 75.3564 68.8069 78.3591 68.0925C78.3591 68.0925 80.5784 68.4172 80.2521 66.0142C79.991 63.5463 74.8995 55.9475 80.7743 51.9858Z" fill="#006838"/>
<path d="M76.0745 49.2581C76.0745 49.2581 76.1397 52.7652 80.8396 51.9858C80.7743 51.9858 80.7743 47.9592 76.0745 49.2581Z" fill="#3CA06E"/>
<path d="M76.6619 54.3237C76.6619 54.3237 72.6801 64.5203 78.4243 68.0923C78.4243 68.0923 79.9257 68.2872 79.2729 66.5336C78.6201 64.845 75.8786 65.2347 76.6619 54.3237Z" fill="#014C26"/>
<path d="M36.8438 54.3232C17 52.1151 17 64.325 17 64.325C17 64.325 19.3499 53.0243 35.9299 63.2858C52.5099 73.5473 77.0535 66.8579 77.0535 66.8579C66.8053 54.9727 56.6876 56.5314 36.8438 54.3232Z" fill="#4B8227"/>
<path d="M17.1306 63.8062C17 64.1309 17 64.3257 17 64.3257C17.0653 64.1309 17.0653 63.936 17.1306 63.8062Z" fill="#2C5E0B"/>
<path d="M17.261 63.3516C17.1958 63.4815 17.1305 63.6763 17.1305 63.8062C17.1305 63.6113 17.1958 63.4815 17.261 63.3516Z" fill="#2C5E0B"/>
<path d="M73.0717 64.4554C72.2884 64.1956 58.7111 62.0523 54.3376 62.507C49.9642 62.9616 28.6191 58.0257 27.5747 57.2463C26.5955 56.467 19.3499 56.3371 17.2611 63.3513C17.9139 61.3379 20.3291 56.8566 27.6399 57.8308C37.0396 59.1298 46.1129 63.3513 54.3376 63.2214C62.6276 63.0915 72.9412 64.5852 74.1161 65.3646C75.3564 66.079 76.5966 66.2739 76.5966 66.2739L75.6175 65.3646C75.6175 65.3646 73.855 64.6502 73.0717 64.4554Z" fill="#2C5E0B"/>
<path d="M62.3012 57.3115L62.236 57.5064C66.6094 58.8702 69.5468 63.4165 70.069 64.1958C69.0899 64.5206 63.1498 66.4689 60.5388 66.9885C58.8416 67.3133 57.0139 67.573 55.839 67.7679C54.8598 67.8978 54.4029 67.9627 54.2723 68.0277L54.3376 68.2225C54.4682 68.1576 55.0556 68.0926 55.839 67.9627C57.0792 67.7679 58.9069 67.5081 60.6041 67.1834C63.4109 66.5988 70.1996 64.3907 70.2649 64.3907L70.3954 64.3257L70.3301 64.1958C70.3301 64.1309 67.1969 58.8053 62.3012 57.3115Z" fill="#2C5E0B"/>
<path d="M61.518 58.4806C60.0166 57.3116 58.8417 56.5322 58.8417 56.5322L58.7764 56.7271C58.7764 56.7271 59.8861 57.5064 61.4527 58.6755C62.8235 59.7146 64.9123 62.6372 65.3692 63.2217C64.3248 63.6763 57.3403 66.8587 53.1627 66.8587C48.6587 66.8587 43.5019 66.534 43.4366 66.534V66.7937C43.5019 66.7937 48.6587 67.1185 53.1627 67.1185C57.732 67.1185 65.5651 63.4165 65.6303 63.3516L65.7609 63.2866L65.6956 63.1567C65.4998 63.0269 63.0846 59.7146 61.518 58.4806Z" fill="#2C5E0B"/>
<path d="M59.2986 63.5462C57.3403 64.1307 53.7501 65.2348 50.878 65.2348C50.8127 65.2348 50.7474 65.2348 50.6822 65.2348C46.5698 65.1698 38.1493 64.3255 38.084 64.3255V64.5853C38.1493 64.5853 46.5698 65.4296 50.6822 65.4946C50.7474 65.4946 50.8127 65.4946 50.878 65.4946C53.7501 65.4946 57.4056 64.3905 59.3638 63.806C60.0819 63.6111 60.7999 63.3513 60.8652 63.4163L60.9304 63.2864L60.9957 63.2214C60.8652 63.0915 60.6041 63.1565 59.2986 63.5462Z" fill="#2C5E0B"/>
<path d="M46.3087 63.1563C44.8074 63.1563 43.3713 63.1563 42.1311 63.1563C41.0214 63.1563 40.0423 63.1563 39.3895 63.1563C38.0187 63.1563 35.016 62.5718 34.9508 62.5718L34.8855 62.8316C35.016 62.8316 37.9535 63.4161 39.3242 63.4161C39.977 63.4161 40.9561 63.4161 42.0658 63.4161C43.3061 63.4161 44.8074 63.4161 46.2435 63.4161C47.6142 63.4161 49.0503 63.4161 50.16 63.4161C51.2697 63.4161 52.053 63.4161 52.053 63.4161V63.1563C52.1183 63.1563 49.1156 63.1563 46.3087 63.1563Z" fill="#2C5E0B"/>
<path d="M35.8647 61.0783C34.3633 60.9485 33.1884 60.9485 32.5356 60.9485C32.2092 60.9485 31.9481 60.9485 31.8829 60.9485L31.7523 61.1433C31.8176 61.1433 31.9481 61.2082 32.4704 61.2082C33.1884 61.2082 34.3633 61.2082 35.7994 61.3381C36.1258 61.3381 36.4522 61.4031 36.8438 61.4031C39.0632 61.4031 41.7395 60.9485 41.7395 60.9485L41.6742 60.6887C41.6742 60.6237 38.1493 61.2732 35.8647 61.0783Z" fill="#2C5E0B"/>
<path d="M31.7523 59.39C31.2954 59.5848 29.076 59.5199 28.2274 59.5199V59.7796C28.358 59.7796 28.9454 59.7796 29.5982 59.7796C30.5121 59.7796 31.5565 59.7796 31.8828 59.5848C32.3398 59.39 34.6244 59.5199 35.473 59.5848V59.325C35.1466 59.325 32.3398 59.1302 31.7523 59.39Z" fill="#2C5E0B"/>
<path d="M51.4655 55.5576L51.335 55.7525C51.335 55.7525 53.4238 57.2462 54.9251 58.1555C56.4265 59.1297 60.4083 62.9615 60.4735 63.0264L60.6694 62.8316C60.4735 62.7017 56.6223 58.8699 55.0557 57.9606C53.5543 57.0514 51.5308 55.6226 51.4655 55.5576Z" fill="#2C5E0B"/>
<path d="M46.8962 55.168L46.7656 55.3628C46.7656 55.3628 49.1808 57.571 51.0085 59.3895C52.8363 61.2729 55.1862 62.7667 55.2515 62.7667L55.382 62.5718C55.382 62.5718 53.0321 61.0781 51.2044 59.2596C49.3114 57.3761 46.8962 55.168 46.8962 55.168Z" fill="#2C5E0B"/>
<path d="M41.413 54.7139L41.2825 54.8438C41.2825 54.8438 42.8491 56.0128 46.1129 58.6756C49.3766 61.2734 51.3349 62.7672 51.4002 62.7672L51.5307 62.5724C51.5307 62.5724 49.5725 61.0786 46.3087 58.4808C42.9796 55.8829 41.413 54.7139 41.413 54.7139Z" fill="#2C5E0B"/>
<path d="M41.8047 56.7268C38.9326 55.1031 36.909 54.1938 36.909 54.1938L36.8438 54.3887C36.8438 54.3887 38.8673 55.2979 41.7394 56.9216C44.6115 58.5452 46.3087 61.5328 46.3087 61.5328L46.5045 61.4029C46.4393 61.4029 44.7421 58.4154 41.8047 56.7268Z" fill="#2C5E0B"/>
<path d="M36.191 54.6484L36.1257 54.8433C37.6271 55.4927 42.7838 60.9482 42.8491 61.0132L43.0449 60.8833C42.7838 60.6884 37.7576 55.3628 36.191 54.6484Z" fill="#2C5E0B"/>
<path d="M31.1649 53.9341L31.0343 54.1289C31.0343 54.1289 33.3189 55.9474 34.4286 56.7268C35.5383 57.5061 39.4549 60.3638 39.5201 60.4287L39.6507 60.2339C39.5854 60.2339 35.6689 57.3113 34.5592 56.5319C33.4495 55.7526 31.1649 53.999 31.1649 53.9341Z" fill="#2C5E0B"/>
<path opacity="0.3" d="M67.915 66.3384C60.0819 66.858 54.4682 59.9087 36.7785 57.3109C19.0888 54.713 17.0653 63.9354 17.0653 63.9354V64.0004C17.7181 62.1169 21.1777 54.1285 35.93 63.286C52.5099 73.5475 77.0536 66.858 77.0536 66.858C76.8577 66.5982 76.5966 66.3384 76.4008 66.0786C75.4217 65.8189 73.0718 66.0137 67.915 66.3384Z" fill="#031E10"/>
<path d="M128.034 76.1456L129.339 77.0549L139.849 83.1598L155.58 74.457C144.744 77.3796 128.034 76.1456 128.034 76.1456Z" fill="#DD312C"/>
<path d="M140.24 82.2509C103.49 52.0509 78.0326 137.715 127.577 149.535C171.377 159.992 192.461 111.996 178.949 84.0694C167.852 61.0784 140.24 82.2509 140.24 82.2509Z" fill="#FD5C4A"/>
<path d="M163.021 75.2368C152.643 75.2368 141.481 83.6798 141.415 83.7448L140.24 84.654L139.065 83.6798C134.235 79.7181 129.47 77.7048 124.835 77.7048C112.433 77.7048 103.947 92.5775 102.25 106.606C100.357 122.258 106.036 142.456 128.034 147.717C131.95 148.626 135.802 149.146 139.522 149.146C153.556 149.146 165.567 142.326 173.335 129.987C182.082 116.153 183.649 98.033 177.252 84.9138C174.184 78.4192 169.484 75.2368 163.021 75.2368Z" fill="#EDC10A"/>
<path d="M163.021 76.146C153.034 76.146 142.068 84.3942 141.937 84.4591L140.175 85.823L138.478 84.3942C133.843 80.5623 129.274 78.614 124.901 78.614C113.02 78.614 104.861 93.097 103.294 106.736C101.467 122.063 106.95 141.742 128.36 146.808C132.211 147.717 135.997 148.171 139.588 148.171C153.295 148.171 165.045 141.547 172.617 129.402C181.168 115.828 182.735 98.0978 176.534 85.2385C173.531 79.1335 169.092 76.146 163.021 76.146Z" fill="#FFDA41"/>
<path d="M163.021 85.498C158.06 85.498 150.945 89.4598 147.682 91.8628L139.979 97.7729L132.472 91.603C129.6 89.2 126.924 87.966 124.835 87.966C119.548 87.966 113.804 97.2533 112.498 107.84C111.976 111.996 110.54 133.039 130.449 137.78C133.582 138.559 136.65 138.884 139.522 138.884C150.032 138.884 158.713 133.883 164.653 124.531C171.442 113.75 172.878 99.3316 168.048 89.3948C166.155 85.498 164.523 85.498 163.021 85.498Z" fill="#FFF0AE"/>
<path d="M140.11 97.189C140.11 97.189 130.841 104.333 128.556 114.984C126.337 125.635 140.11 134.598 140.11 134.598C140.11 134.598 153.883 125.635 151.663 114.984C149.444 104.333 140.11 97.189 140.11 97.189Z" fill="#D16C28"/>
<path d="M140.11 97.7734C140.11 97.7734 131.689 104.268 129.666 113.945C127.642 123.622 140.11 131.74 140.11 131.74C140.11 131.74 152.643 123.622 150.554 113.945C148.53 104.268 140.11 97.7734 140.11 97.7734Z" fill="#6C1915"/>
<path d="M138.021 105.242C138.489 105.242 138.869 104.689 138.869 104.008C138.869 103.326 138.489 102.774 138.021 102.774C137.552 102.774 137.172 103.326 137.172 104.008C137.172 104.689 137.552 105.242 138.021 105.242Z" fill="#4C0707"/>
<path d="M140.958 108.034C141.427 108.034 141.807 107.482 141.807 106.8C141.807 106.119 141.427 105.566 140.958 105.566C140.49 105.566 140.11 106.119 140.11 106.8C140.11 107.482 140.49 108.034 140.958 108.034Z" fill="#4C0707"/>
<path d="M140.11 111.801C140.578 111.801 140.958 111.249 140.958 110.567C140.958 109.886 140.578 109.333 140.11 109.333C139.641 109.333 139.261 109.886 139.261 110.567C139.261 111.249 139.641 111.801 140.11 111.801Z" fill="#4C0707"/>
<path d="M145.332 113.425C145.8 113.425 146.18 112.873 146.18 112.191C146.18 111.51 145.8 110.958 145.332 110.958C144.863 110.958 144.483 111.51 144.483 112.191C144.483 112.873 144.863 113.425 145.332 113.425Z" fill="#4C0707"/>
<path d="M142.394 116.673C142.863 116.673 143.243 116.12 143.243 115.439C143.243 114.757 142.863 114.205 142.394 114.205C141.926 114.205 141.546 114.757 141.546 115.439C141.546 116.12 141.926 116.673 142.394 116.673Z" fill="#4C0707"/>
<path d="M137.172 116.347C137.641 116.347 138.021 115.795 138.021 115.113C138.021 114.432 137.641 113.879 137.172 113.879C136.704 113.879 136.324 114.432 136.324 115.113C136.324 115.795 136.704 116.347 137.172 116.347Z" fill="#4C0707"/>
<path d="M133.451 115.373C133.92 115.373 134.3 114.821 134.3 114.139C134.3 113.458 133.92 112.905 133.451 112.905C132.983 112.905 132.603 113.458 132.603 114.139C132.603 114.821 132.983 115.373 133.451 115.373Z" fill="#4C0707"/>
<path d="M135.54 121.673C136.009 121.673 136.389 121.121 136.389 120.439C136.389 119.758 136.009 119.205 135.54 119.205C135.072 119.205 134.692 119.758 134.692 120.439C134.692 121.121 135.072 121.673 135.54 121.673Z" fill="#4C0707"/>
<path d="M138.021 123.687C138.489 123.687 138.869 123.134 138.869 122.453C138.869 121.771 138.489 121.219 138.021 121.219C137.552 121.219 137.172 121.771 137.172 122.453C137.172 123.134 137.552 123.687 138.021 123.687Z" fill="#4C0707"/>
<path d="M140.958 123.687C141.427 123.687 141.807 123.134 141.807 122.453C141.807 121.771 141.427 121.219 140.958 121.219C140.49 121.219 140.11 121.771 140.11 122.453C140.11 123.134 140.49 123.687 140.958 123.687Z" fill="#4C0707"/>
<path d="M139.653 119.14C140.121 119.14 140.501 118.588 140.501 117.906C140.501 117.225 140.121 116.672 139.653 116.672C139.184 116.672 138.804 117.225 138.804 117.906C138.804 118.588 139.184 119.14 139.653 119.14Z" fill="#4C0707"/>
<path d="M144.026 120.439C144.495 120.439 144.875 119.887 144.875 119.205C144.875 118.524 144.495 117.971 144.026 117.971C143.558 117.971 143.178 118.524 143.178 119.205C143.178 119.887 143.558 120.439 144.026 120.439Z" fill="#4C0707"/>
<path d="M144.026 109.853C144.495 109.853 144.875 109.3 144.875 108.619C144.875 107.937 144.495 107.385 144.026 107.385C143.558 107.385 143.178 107.937 143.178 108.619C143.178 109.3 143.558 109.853 144.026 109.853Z" fill="#4C0707"/>
<path d="M147.159 119.206C147.628 119.206 148.008 118.653 148.008 117.972C148.008 117.29 147.628 116.738 147.159 116.738C146.691 116.738 146.311 117.29 146.311 117.972C146.311 118.653 146.691 119.206 147.159 119.206Z" fill="#4C0707"/>
<path d="M144.875 124.921C145.343 124.921 145.723 124.368 145.723 123.687C145.723 123.005 145.343 122.453 144.875 122.453C144.406 122.453 144.026 123.005 144.026 123.687C144.026 124.368 144.406 124.921 144.875 124.921Z" fill="#4C0707"/>
<path d="M136.846 126.999C137.315 126.999 137.694 126.446 137.694 125.765C137.694 125.083 137.315 124.531 136.846 124.531C136.377 124.531 135.997 125.083 135.997 125.765C135.997 126.446 136.377 126.999 136.846 126.999Z" fill="#4C0707"/>
<path d="M133.06 119.595C133.529 119.595 133.908 119.042 133.908 118.361C133.908 117.679 133.529 117.127 133.06 117.127C132.591 117.127 132.211 117.679 132.211 118.361C132.211 119.042 132.591 119.595 133.06 119.595Z" fill="#4C0707"/>
<path d="M141.742 128.817C142.21 128.817 142.59 128.265 142.59 127.583C142.59 126.902 142.21 126.349 141.742 126.349C141.273 126.349 140.893 126.902 140.893 127.583C140.893 128.265 141.273 128.817 141.742 128.817Z" fill="#4C0707"/>
<path d="M136.389 110.568C136.858 110.568 137.238 110.015 137.238 109.334C137.238 108.652 136.858 108.1 136.389 108.1C135.92 108.1 135.54 108.652 135.54 109.334C135.54 110.015 135.92 110.568 136.389 110.568Z" fill="#4C0707"/>
</svg>
