<svg width="200" height="200" viewBox="0 0 200 200" fill="none" xmlns="http://www.w3.org/2000/svg">
<path d="M58.1898 89.3963C58.1898 89.3963 78.4242 80.8807 87.1937 62.9119C100.475 35.6268 118.717 26.701 133.444 31.2909C133.444 31.2909 138.17 32.5213 142.116 31.3885C147.662 29.8065 149.674 31.9354 149.87 36.7596C149.987 39.4745 153.034 44.2596 153.815 49.3768C155.495 60.5291 162.018 76.4276 131.901 95.4315C131.901 95.4315 117.584 103.928 115.846 119.943C114.303 134.142 95.9633 167.385 63.6586 165.9C17.1742 163.771 12.1742 106.076 58.1898 89.3963Z" fill="url(#paint0_linear_9002_21014)"/>
<path opacity="0.6" d="M153.795 49.3965C153.092 44.6309 150.397 40.1973 149.928 37.4043C149.303 80.4902 128.053 77.0527 107.428 103.42C97.0179 116.721 99.1469 132.99 80.2601 145.275C60.5336 158.088 44.9672 152.443 27.1937 138.947C33.4828 146.271 36.1976 162.795 63.6586 165.92C95.7875 169.592 114.303 134.182 115.846 119.963C117.584 103.928 131.901 95.4512 131.901 95.4512C161.998 76.4473 155.475 60.5488 153.795 49.3965Z" fill="url(#paint1_linear_9002_21014)"/>
<path fill-rule="evenodd" clip-rule="evenodd" d="M42.573 154.556C43.1052 155.389 44.0279 155.851 44.9505 155.851C45.4828 155.851 46.015 155.709 46.4763 155.389C47.7893 154.538 48.1619 152.781 47.3102 151.468C47.3102 151.466 47.2953 151.44 47.2674 151.393C47.1077 151.121 46.5225 150.124 45.8731 148.523C45.2876 147.068 43.6375 146.376 42.1826 146.962C40.7277 147.547 40.0358 149.197 40.6213 150.652C41.5664 152.955 42.4284 154.326 42.5622 154.539L42.573 154.556ZM125.609 37.9508C125.875 39.2993 127.063 40.2397 128.394 40.2397C128.589 40.2397 128.767 40.2219 128.944 40.1687C130.08 39.938 131.251 39.7606 132.44 39.6541C134.001 39.5122 135.136 38.1283 134.994 36.5669C134.853 35.0056 133.469 33.87 131.907 34.012C130.541 34.1539 129.175 34.3491 127.844 34.6152C126.301 34.9169 125.307 36.4072 125.609 37.9508ZM51.8701 155.975C51.9588 157.465 53.2186 158.619 54.6912 158.619H54.8864C54.9002 158.617 54.9223 158.615 54.9524 158.613C55.3078 158.582 56.7835 158.453 59.0736 157.962C60.6172 157.625 61.5931 156.117 61.256 154.591C60.9189 153.047 59.4107 152.072 57.8849 152.409C55.8267 152.852 54.5492 152.959 54.5138 152.959C52.9524 153.065 51.7637 154.414 51.8701 155.975ZM143.209 49.7852H143.333C144.859 49.7852 146.101 48.5964 146.155 47.0706C146.226 45.6866 146.172 44.2672 146.048 42.8656C145.906 41.3042 144.522 40.1687 142.961 40.3106C141.4 40.4526 140.264 41.8365 140.406 43.3978C140.512 44.5334 140.548 45.6866 140.495 46.8222C140.424 48.4013 141.648 49.7142 143.209 49.7852ZM54.4251 113.748C53.8573 114.351 53.0944 114.653 52.3492 114.653C51.6573 114.653 50.9476 114.404 50.3975 113.872C49.262 112.79 49.2088 110.998 50.2911 109.862C52.1895 107.857 54.3187 105.87 56.6429 103.972C57.8494 102.978 59.6415 103.155 60.635 104.362C61.6286 105.568 61.4512 107.36 60.2447 108.354C58.1156 110.111 56.1461 111.92 54.4251 113.748ZM91.2766 84.224C90.7798 84.224 90.2653 84.0821 89.804 83.7982C88.4733 82.982 88.0475 81.2255 88.8636 79.8948C89.3959 79.0254 89.8572 78.1383 90.2298 77.2689C90.3341 77.023 90.44 76.7739 90.5473 76.5216C90.9509 75.5723 91.3744 74.5764 91.8089 73.5252L92.146 72.7445C92.7493 71.2896 94.4171 70.6154 95.8542 71.2186C97.3091 71.8219 97.9833 73.4897 97.3801 74.9269L97.0607 75.7075C96.8971 76.0962 96.7379 76.4774 96.5814 76.8522C96.1949 77.7777 95.825 78.6634 95.4461 79.5222C94.9671 80.64 94.3816 81.7578 93.7074 82.8578C93.1573 83.745 92.217 84.224 91.2766 84.224ZM66.703 103.617C66.2062 103.936 65.674 104.096 65.1239 104.096C64.2013 104.096 63.3142 103.652 62.7642 102.836C61.8948 101.523 62.2496 99.7666 63.5448 98.8972C65.8159 97.3891 68.2644 95.8987 70.8193 94.4615C72.1855 93.6986 73.9243 94.1776 74.6872 95.5438C75.4502 96.91 74.9711 98.6488 73.6049 99.4117C71.1742 100.778 68.8499 102.197 66.703 103.617ZM106.411 54.718C105.808 54.718 105.205 54.5228 104.69 54.1325C103.448 53.1744 103.2 51.4001 104.158 50.1581C106.021 47.7096 108.026 45.5273 110.102 43.6465C111.273 42.5997 113.065 42.6884 114.111 43.8595C115.158 45.0305 115.07 46.8225 113.898 47.8693C112.071 49.5194 110.314 51.4533 108.664 53.6179C108.114 54.3276 107.263 54.718 106.411 54.718ZM98.0543 69.054C97.6462 69.054 97.2559 68.9653 96.8656 68.7879C95.4461 68.1314 94.8251 66.4459 95.4816 65.0265C96.7946 62.1876 98.072 59.7037 99.385 57.4149C100.166 56.0487 101.904 55.5874 103.253 56.368C104.619 57.1487 105.08 58.8875 104.3 60.2359C103.075 62.3828 101.869 64.7426 100.627 67.4217C100.148 68.4508 99.1366 69.054 98.0543 69.054ZM44.7908 116.711C45.6602 115.416 47.4345 115.061 48.7297 115.93C50.0249 116.8 50.3798 118.574 49.5104 119.869C48.0378 122.087 46.8135 124.376 45.9086 126.664C45.4651 127.764 44.4005 128.456 43.265 128.456C42.9101 128.456 42.5553 128.385 42.2182 128.261C40.7633 127.676 40.0536 126.026 40.6213 124.571C41.6859 121.909 43.0698 119.266 44.7908 116.711ZM81.0923 95.4196C80.631 95.7035 80.081 95.8632 79.5487 95.8632C78.6261 95.8632 77.7212 95.4019 77.1712 94.5857C76.3196 93.2728 76.6744 91.5162 77.9874 90.6646C79.1939 89.8839 81.5714 88.1984 84.0376 85.8031C85.1554 84.7031 86.9651 84.7385 88.0474 85.8563C89.1475 86.9741 89.112 88.7839 87.9942 89.8662C85.1731 92.5985 82.4585 94.5147 81.0923 95.4196ZM97.6817 111.778C98.1253 110.27 99.7044 109.419 101.213 109.862C102.721 110.306 103.572 111.885 103.129 113.393C102.33 116.054 101.425 118.645 100.432 121.093C99.9705 122.211 98.9237 122.885 97.7882 122.885C97.4333 122.885 97.0607 122.814 96.7236 122.672C95.2687 122.087 94.5767 120.419 95.1623 118.964C96.0849 116.675 96.9365 114.262 97.6817 111.778ZM102.845 96.36C103.555 94.9583 105.258 94.4083 106.659 95.118C108.061 95.8277 108.611 97.531 107.901 98.9327C106.596 101.509 105.869 103.979 105.338 105.786L105.329 105.817C104.992 107.059 103.856 107.857 102.614 107.857C102.348 107.857 102.082 107.822 101.816 107.751C100.308 107.307 99.4382 105.728 99.8818 104.238C100.627 101.718 101.408 99.1988 102.845 96.36ZM91.9331 125.813C92.6783 124.429 94.3993 123.932 95.7832 124.677C97.1672 125.422 97.664 127.143 96.9188 128.527C95.5881 130.976 94.1154 133.318 92.5363 135.518C91.9863 136.281 91.1169 136.689 90.2298 136.689C89.662 136.689 89.0765 136.512 88.5797 136.157C87.3023 135.234 87.0184 133.46 87.941 132.2C89.3781 130.213 90.7266 128.066 91.9331 125.813ZM119.949 78.6528C122.007 76.9673 123.959 75.264 125.715 73.5962C126.851 72.5139 128.643 72.5493 129.725 73.6849C130.807 74.8204 130.772 76.6124 129.636 77.6947C127.773 79.4867 125.715 81.2787 123.533 83.053C123 83.4788 122.362 83.6917 121.741 83.6917C120.907 83.6917 120.091 83.3369 119.541 82.6449C118.547 81.4207 118.742 79.6464 119.949 78.6528ZM135.367 62.0457C136.201 60.715 137.958 60.3069 139.27 61.1408C140.601 61.9747 141.009 63.7312 140.175 65.0442C138.791 67.262 137.124 69.5153 135.261 71.7332C134.693 72.4074 133.894 72.7445 133.096 72.7445C132.44 72.7445 131.801 72.5316 131.269 72.0703C130.08 71.059 129.92 69.2669 130.931 68.0782C132.635 66.0733 134.125 64.0506 135.367 62.0457ZM77.6148 142.988C79.5665 141.462 81.4117 139.776 83.1505 137.949C84.2328 136.813 86.0248 136.778 87.1603 137.842C88.2958 138.925 88.3313 140.717 87.2668 141.852C85.3506 143.857 83.2924 145.738 81.1278 147.441C80.6133 147.867 79.9923 148.062 79.3713 148.062C78.5374 148.062 77.7035 147.689 77.1357 146.98C76.1599 145.738 76.3905 143.964 77.6148 142.988ZM107.653 89.2629C109.374 87.2757 111.397 85.3418 113.703 83.4611C114.928 82.4675 116.702 82.6627 117.695 83.8869C118.689 85.1111 118.494 86.8854 117.27 87.879C115.229 89.5291 113.437 91.2501 111.929 92.9711C111.397 93.6454 110.598 93.9647 109.8 93.9647C109.143 93.9647 108.487 93.7341 107.937 93.2728C106.748 92.2437 106.624 90.4517 107.653 89.2629ZM83.5408 103.599C84.4634 102.339 86.2377 102.055 87.5152 102.978C88.7749 103.901 89.0588 105.675 88.1362 106.952C86.6458 108.993 85.0135 111.157 83.2924 113.393C82.7247 114.12 81.8907 114.493 81.0391 114.493C80.4358 114.493 79.8326 114.298 79.3003 113.907C78.0583 112.949 77.8277 111.175 78.7858 109.933C80.4713 107.733 82.0859 105.604 83.5408 103.599ZM106.624 70.8106C108.256 68.8234 109.995 66.7475 111.805 64.6361C112.834 63.4474 114.626 63.3054 115.815 64.3345C117.003 65.3636 117.145 67.1556 116.116 68.3443C114.342 70.4202 112.621 72.4606 111.024 74.4123C110.456 75.0865 109.64 75.4414 108.824 75.4414C108.185 75.4414 107.564 75.2285 107.032 74.8027C105.826 73.8091 105.63 72.0171 106.624 70.8106ZM92.2879 90.5581C93.0864 89.2097 94.8251 88.7661 96.1736 89.5645C97.522 90.363 97.9656 92.1017 97.1672 93.4502L94.7187 91.9953L97.1494 93.4502C95.8897 95.5616 94.4171 97.8681 92.7493 100.317C92.2525 101.151 91.3653 101.576 90.4427 101.576C89.8927 101.576 89.3427 101.417 88.8459 101.08C87.5507 100.192 87.2135 98.4359 88.0829 97.1407C89.6798 94.7809 91.0992 92.5631 92.2879 90.5581ZM106.109 80.569C104.406 82.7868 102.845 84.916 101.443 86.9031C100.893 87.7193 100.006 88.1451 99.1189 88.1451C98.5511 88.1451 97.9833 87.9855 97.4865 87.6306C96.2091 86.7257 95.8897 84.9692 96.7946 83.674C98.2317 81.6158 99.8463 79.4157 101.603 77.1269C102.561 75.885 104.335 75.6543 105.577 76.5947C106.819 77.5528 107.05 79.327 106.109 80.569ZM132.102 50.6726C131.552 51.2404 130.807 51.542 130.062 51.542C129.352 51.542 128.66 51.2759 128.11 50.7614C126.975 49.6791 126.922 47.887 128.004 46.7515C131.393 43.1852 133.611 40.9674 133.628 40.9497C134.728 39.8319 136.538 39.8319 137.638 40.9497C138.756 42.0497 138.756 43.8595 137.638 44.9595C137.62 44.9773 135.438 47.1596 132.102 50.6726ZM126.673 56.4567C124.846 58.4262 123.054 60.4134 121.333 62.3473C120.783 62.986 120.002 63.3054 119.221 63.3054C118.547 63.3054 117.873 63.0748 117.341 62.578C116.17 61.5311 116.063 59.7391 117.11 58.5681C118.849 56.6164 120.676 54.6115 122.504 52.6066C123.568 51.4533 125.36 51.3823 126.514 52.4469C127.667 53.5115 127.738 55.3035 126.673 56.4567ZM53.4493 140.663C54.4606 139.475 56.2526 139.315 57.4591 140.326C58.6479 141.338 58.8075 143.13 57.7962 144.336C56.6429 145.702 55.2413 147.37 54.7445 148.044C54.1767 148.807 53.3073 149.215 52.4202 149.215C51.8524 149.215 51.2669 149.038 50.7701 148.683C49.4927 147.76 49.2088 145.986 50.1314 144.726C50.6104 144.052 51.5863 142.881 53.4493 140.663ZM73.8711 116.179C74.8469 114.954 76.6389 114.759 77.8632 115.735C79.0874 116.711 79.2826 118.503 78.3067 119.727C76.7099 121.714 75.0066 123.826 73.2501 125.972C72.7001 126.629 71.8839 126.984 71.0677 126.984C70.429 126.984 69.7903 126.771 69.258 126.345C68.0515 125.351 67.874 123.559 68.8676 122.353C70.6242 120.224 72.3097 118.148 73.8711 116.179ZM63.7755 128.474C64.7868 127.268 66.5788 127.126 67.7676 128.119C68.9741 129.131 69.116 130.923 68.1224 132.111C66.5611 133.974 64.911 135.926 62.9416 138.233C62.3916 138.907 61.5931 139.244 60.7947 139.244C60.1382 139.244 59.4818 139.013 58.9495 138.57C57.7607 137.558 57.6188 135.766 58.6301 134.56C59.2456 133.833 59.8311 133.142 60.3927 132.48C61.612 131.042 62.7187 129.738 63.7755 128.474Z" fill="#EBB661" fill-opacity="0.6"/>
<path d="M158.838 152.682C169.717 141.803 174.013 129.791 174.736 117.174C174.736 117.174 175.146 108.776 175.01 105.455C174.58 96.1976 177.412 93.3655 153.447 95.8655C142.275 95.2796 128.818 100.885 117.939 111.764C101.318 128.385 97.0018 151.022 108.291 162.33C119.58 173.639 142.197 169.303 158.838 152.682Z" fill="url(#paint2_linear_9002_21014)"/>
<g opacity="0.6" style="mix-blend-mode:soft-light">
<path d="M126.531 158.836C115.906 159.324 109.051 152.996 102 143.973C102.254 149.988 103.68 158.934 107.645 162.898C118.934 174.207 141.57 169.871 158.211 153.25C163.094 148.367 180.75 134.773 172.781 97C170.516 145.613 139.363 158.25 126.531 158.836Z" fill="url(#paint3_linear_9002_21014)"/>
</g>
<path d="M158.151 102.971C153.229 103.049 142.467 107.131 138.971 108.85C137.428 109.612 136.784 111.487 137.545 113.03C138.092 114.123 139.205 114.768 140.358 114.768C140.807 114.768 141.276 114.651 141.725 114.455C143.19 113.733 146.393 112.405 149.987 111.213C153.678 109.983 156.764 109.24 158.229 109.221C159.967 109.201 161.334 107.776 161.315 106.057C161.295 104.319 159.889 102.951 158.151 102.971ZM133.893 113.127C132.389 112.6 130.729 113.362 130.065 114.807L130.045 114.846C129.362 116.369 129.987 118.303 131.491 119.026C131.94 119.24 132.409 119.338 132.858 119.338C134.225 119.26 135.006 118.576 135.436 117.99C135.729 117.6 135.885 117.131 135.944 116.643C136.237 114.475 135.045 113.537 133.893 113.127Z" fill="white"/>
<defs>
<linearGradient id="paint0_linear_9002_21014" x1="119.5" y1="30" x2="90.8529" y2="165.948" gradientUnits="userSpaceOnUse">
<stop stop-color="#FFE0AA"/>
<stop offset="0.27" stop-color="#FFEAC6"/>
<stop offset="0.810488" stop-color="#F2D5A2"/>
<stop offset="0.96" stop-color="#F9E1B7"/>
</linearGradient>
<linearGradient id="paint1_linear_9002_21014" x1="91.3775" y1="37.4043" x2="91.3775" y2="166.185" gradientUnits="userSpaceOnUse">
<stop stop-color="#FFC872"/>
<stop offset="0.76" stop-color="#FFD188"/>
<stop offset="1" stop-color="#F8B64D"/>
</linearGradient>
<linearGradient id="paint2_linear_9002_21014" x1="138.519" y1="95" x2="138.519" y2="168.63" gradientUnits="userSpaceOnUse">
<stop stop-color="#FF6F74"/>
<stop offset="0.26" stop-color="#FF8F94"/>
<stop offset="0.718791" stop-color="#D54D52"/>
<stop offset="0.99" stop-color="#F07378"/>
</linearGradient>
<linearGradient id="paint3_linear_9002_21014" x1="138.409" y1="97" x2="138.409" y2="169.198" gradientUnits="userSpaceOnUse">
<stop stop-color="#F5536E"/>
<stop offset="1" stop-color="#D7314D"/>
</linearGradient>
</defs>
</svg>
