<svg width="200" height="200" viewBox="0 0 200 200" fill="none" xmlns="http://www.w3.org/2000/svg">
<path d="M123.233 64.6455C125.788 66.5275 129.273 65.5865 132.292 64.4102C133.454 63.9397 135.08 63.7045 135.544 64.8808C132.989 67.7038 128.344 66.5275 125.092 68.6448C122.072 70.762 121.375 75.2318 118.587 77.8195C117.891 78.5253 116.729 78.9958 116.032 78.5253C114.639 78.0548 114.639 76.1728 113.709 74.9965C112.316 73.585 109.528 74.526 108.367 76.1728C107.205 77.8195 106.973 80.1721 106.508 82.0541C106.044 83.4656 105.347 84.8771 104.65 86.0533C103.489 87.7001 100.934 89.3468 99.3075 87.9353C96.9846 86.2886 98.8429 82.5246 97.2169 80.1721C96.5201 78.9958 94.894 78.5253 93.7326 78.9958C91.8743 79.7016 91.1774 81.5836 90.2483 83.4656C89.5514 85.1123 88.39 86.5238 86.7639 87.2296C85.1379 87.9353 82.8151 87.2296 82.3505 85.5828C81.8859 84.4066 82.5827 82.7598 81.8859 81.8188C81.189 80.6426 79.563 80.6426 78.4016 81.1131C77.2401 81.5836 76.311 82.5246 75.3818 83.4656C73.0589 85.8181 70.5038 87.4648 67.484 88.6411C66.3226 89.1116 64.9289 89.5821 63.7674 89.1116C62.606 88.8763 61.4445 87.4648 61.6768 86.2886C61.9091 84.8771 63.5351 84.4066 64.4643 83.4656C65.3934 82.5246 66.0903 80.6426 64.6966 80.1721C64.4643 79.9368 63.9997 80.1721 63.5351 80.1721C60.7477 80.6426 57.9602 82.0541 55.1727 82.7598C52.3853 83.4656 48.901 83.4656 46.8104 81.3483C46.3458 80.8778 46.1135 80.4073 45.8812 79.7015C45.6489 78.29 46.8103 76.8785 48.2041 76.408C49.5978 75.9375 50.9915 75.9375 52.3853 75.2318C53.3144 74.7613 54.0113 73.585 53.5467 72.8793C53.3144 72.4088 52.6176 72.1735 52.153 71.9383C50.0624 70.9973 49.5978 67.939 51.2238 66.2923C52.8498 64.6455 55.405 64.175 57.2633 65.3513C59.8185 66.7628 61.6768 70.0563 64.4643 69.821C64.6965 69.821 64.9288 69.821 65.1611 69.5858C65.6257 69.1153 65.3934 68.4095 65.1611 67.7038C64.6965 66.057 65.3934 64.175 66.5549 62.9987C67.7163 61.8225 69.8069 61.352 71.4329 61.8225C73.0589 62.293 74.4527 63.7045 75.6141 65.116C76.7755 66.5275 77.937 67.939 79.563 68.6448C81.189 69.3505 83.5119 69.1153 84.2088 67.4685C84.6733 66.7628 84.6734 65.5865 84.6734 64.6455C85.1379 61.352 88.6223 58.7642 91.642 59.9405C93.9649 60.6462 95.3586 63.234 96.7523 65.116C98.1461 67.2333 100.237 69.3505 102.792 68.6448C105.812 67.939 107.67 63.4692 110.69 63.9397C112.083 64.175 113.013 65.3513 113.942 66.2923C114.871 67.2333 116.497 67.939 117.658 67.2333C119.052 66.2923 118.82 63.7045 120.446 63.234C121.375 62.7635 122.304 63.9397 123.233 64.6455Z" fill="#21692E"/>
<g opacity="0.25">
<path d="M68.181 74.0553C72.8268 74.0553 77.4726 74.2906 82.1183 74.5258C86.5318 74.7611 90.9453 74.0553 95.3588 73.5848C104.186 72.6438 112.78 71.7028 121.143 68.6445C121.143 68.6445 121.375 68.6445 121.143 68.8798C117.891 71.4675 113.013 72.1733 109.296 72.8791C105.115 73.8201 100.934 74.2906 96.5202 74.5258C92.1067 74.7611 87.6932 75.7021 83.2798 75.7021C78.4017 75.2316 73.2914 74.7611 68.181 74.0553Z" fill="#CAE3CE"/>
</g>
<mask id="mask0_9002_17511" style="mask-type:luminance" maskUnits="userSpaceOnUse" x="46" y="59" width="90" height="31">
<path d="M123.466 64.4097C126.021 66.2917 129.505 65.3507 132.525 64.1744C133.686 63.7039 135.312 63.4687 135.777 64.6449C133.222 67.4679 128.576 66.2917 125.324 68.4089C122.304 70.5262 121.607 74.996 118.82 77.5837C118.123 78.2895 116.962 78.76 116.265 78.2895C114.871 77.819 114.871 75.937 113.942 74.7607C112.548 73.3492 109.761 74.2902 108.599 75.937C107.438 77.5837 107.205 79.9362 106.741 81.8182C106.276 83.2297 105.579 84.6412 104.883 85.8175C103.721 87.4642 101.166 89.111 99.5399 87.6995C97.217 86.0527 99.0754 82.2887 97.4493 79.9362C96.7525 78.76 95.1265 78.2895 93.965 78.76C92.1067 79.4657 91.4098 81.3477 90.4807 83.2297C89.7838 84.8765 88.6224 86.288 86.9964 86.9937C85.3703 87.6995 83.0474 86.9937 82.5829 85.347C82.1183 84.1707 82.8152 82.524 82.1183 81.583C81.4214 80.4067 79.7954 80.4067 78.634 80.8772C77.4725 81.3477 76.5434 82.2887 75.6142 83.2297C73.2913 85.5822 70.7362 87.229 67.7164 88.4052C66.555 88.8757 65.1612 89.3462 63.9998 88.8757C62.8384 88.6405 61.6769 87.229 61.9092 86.0527C62.1415 84.6412 63.7675 84.1707 64.6967 83.2297C65.8581 82.2887 66.3227 80.4067 64.929 79.9362C64.6967 79.701 64.2321 79.9362 63.7675 79.9362C60.9801 80.4067 58.1926 81.8182 55.4051 82.524C52.6177 83.2297 49.1333 83.2297 47.0427 81.1125C46.5782 80.642 46.3459 80.1715 46.1136 79.4657C45.8813 78.0542 47.0428 76.6427 48.4365 76.1722C49.8302 75.7017 51.224 75.7017 52.6177 74.9959C53.5468 74.5254 54.2437 73.3492 53.7791 72.6434C53.5468 72.1729 52.85 71.9377 52.3854 71.7024C50.2948 70.7614 49.8302 67.7032 51.4562 66.0564C52.85 64.4097 55.6374 63.9392 57.4957 65.1154C60.0509 66.5269 61.9092 69.8204 64.6967 69.5852C64.929 69.5852 65.1613 69.5852 65.3935 69.3499C65.8581 68.8794 65.6258 68.1737 65.3935 67.4679C64.929 65.8212 65.6258 63.9392 66.7873 62.7629C67.9487 61.5867 70.0393 61.1162 71.6653 61.5867C73.2913 62.0572 74.6851 63.4687 75.8465 64.8802C77.008 66.2917 78.1694 67.7032 79.7954 68.4089C81.4214 69.1147 83.7443 68.8794 84.4412 67.2327C84.9058 66.5269 84.9058 65.3507 84.9058 64.4097C85.3703 61.1161 88.8547 58.5284 91.8744 59.7046C94.1973 60.4104 95.591 62.9982 96.9847 64.8802C98.3785 66.9974 100.469 69.1147 103.024 68.4089C106.044 67.7032 107.902 63.2334 110.922 63.7039C112.316 63.9392 113.245 65.1154 114.174 66.0564C115.103 66.9974 116.729 67.7032 117.891 66.9974C119.284 66.0564 119.052 63.4687 120.678 62.9982C121.607 62.5277 122.536 63.7039 123.466 64.4097Z" fill="white"/>
</mask>
<g mask="url(#mask0_9002_17511)">
<g opacity="0.25">
<path d="M45.1845 73.115C45.6491 73.5855 47.972 73.3502 48.4366 73.3502C50.0626 73.5855 51.9209 73.8207 53.5469 74.056C57.0312 74.5265 60.7479 74.997 64.2322 75.7027C71.6654 76.879 79.0986 77.5848 86.5318 77.3495C93.9651 77.1143 101.398 75.4675 108.832 73.8207C112.548 72.8797 116.265 71.9387 119.981 70.9977C123.466 70.0567 127.182 69.1157 130.899 69.1157C134.151 69.1157 136.474 72.6445 135.545 75.7027C134.616 78.761 131.596 80.643 128.808 81.8193C125.789 83.2308 122.769 84.407 119.749 86.0538C111.619 90.053 102.792 91.6998 93.9651 92.8761C89.5516 93.3466 85.1381 93.3466 80.4924 93.3466C76.0789 93.3466 71.8977 93.3466 67.4842 92.6408C63.0707 91.9351 58.8895 91.2293 54.7083 89.8178C50.5272 88.4063 45.1845 86.7595 43.3262 82.2898C42.6294 80.643 43.0939 78.761 44.7199 78.0553C48.6688 76.1732 52.6178 78.2905 56.5667 79.702C60.051 80.8783 63.7676 81.8193 67.4842 82.2898C75.1497 83.466 83.2798 83.466 90.9453 82.9955C94.662 82.7603 98.3786 81.8193 102.095 81.1135C105.812 80.4078 109.528 79.702 113.013 78.0553C116.032 76.6437 119.052 74.997 122.072 73.5855C123.001 73.115 124.163 72.8797 125.092 72.4092C125.556 72.174 126.253 71.9387 126.718 71.4682C126.253 71.9387 126.253 71.9387 126.718 71.4682C126.485 71.7035 126.253 72.174 126.021 72.6445C127.647 74.7617 129.041 77.1142 130.667 79.2315C127.415 79.2315 123.93 80.4078 120.911 81.3488C116.962 82.2898 112.78 83.466 108.832 84.1718C100.701 86.0538 92.3391 87.4653 83.9767 87.4653C76.0789 87.4653 68.1811 86.5243 60.5156 84.8775C56.7989 84.1718 53.0823 82.9955 49.598 81.3488C46.8106 79.9373 43.3262 78.2905 41.7002 75.2322C40.0742 73.3502 43.3262 71.233 45.1845 73.115Z" fill="#549E62"/>
</g>
</g>
<mask id="mask1_9002_17511" style="mask-type:luminance" maskUnits="userSpaceOnUse" x="46" y="59" width="90" height="31">
<path d="M123.466 64.4097C126.021 66.2917 129.505 65.3507 132.525 64.1744C133.686 63.7039 135.312 63.4687 135.777 64.6449C133.222 67.4679 128.576 66.2917 125.324 68.4089C122.304 70.5262 121.607 74.996 118.82 77.5837C118.123 78.2895 116.962 78.76 116.265 78.2895C114.871 77.819 114.871 75.937 113.942 74.7607C112.548 73.3492 109.761 74.2902 108.599 75.937C107.438 77.5837 107.205 79.9362 106.741 81.8182C106.276 83.2297 105.579 84.6412 104.883 85.8175C103.721 87.4642 101.166 89.111 99.5399 87.6995C97.217 86.0527 99.0754 82.2887 97.4493 79.9362C96.7525 78.76 95.1265 78.2895 93.965 78.76C92.1067 79.4657 91.4098 81.3477 90.4807 83.2297C89.7838 84.8765 88.6224 86.288 86.9964 86.9937C85.3703 87.6995 83.0474 86.9937 82.5829 85.347C82.1183 84.1707 82.8152 82.524 82.1183 81.583C81.4214 80.4067 79.7954 80.4067 78.634 80.8772C77.4725 81.3477 76.5434 82.2887 75.6142 83.2297C73.2913 85.5822 70.7362 87.229 67.7164 88.4052C66.555 88.8757 65.1612 89.3462 63.9998 88.8757C62.8384 88.6405 61.6769 87.229 61.9092 86.0527C62.1415 84.6412 63.7675 84.1707 64.6967 83.2297C65.8581 82.2887 66.3227 80.4067 64.929 79.9362C64.6967 79.701 64.2321 79.9362 63.7675 79.9362C60.9801 80.4067 58.1926 81.8182 55.4051 82.524C52.6177 83.2297 49.1333 83.2297 47.0427 81.1125C46.5782 80.642 46.3459 80.1715 46.1136 79.4657C45.8813 78.0542 47.0428 76.6427 48.4365 76.1722C49.8302 75.7017 51.224 75.7017 52.6177 74.9959C53.5468 74.5254 54.2437 73.3492 53.7791 72.6434C53.5468 72.1729 52.85 71.9377 52.3854 71.7024C50.2948 70.7614 49.8302 67.7032 51.4562 66.0564C52.85 64.4097 55.6374 63.9392 57.4957 65.1154C60.0509 66.5269 61.9092 69.8204 64.6967 69.5852C64.929 69.5852 65.1613 69.5852 65.3935 69.3499C65.8581 68.8794 65.6258 68.1737 65.3935 67.4679C64.929 65.8212 65.6258 63.9392 66.7873 62.7629C67.9487 61.5867 70.0393 61.1162 71.6653 61.5867C73.2913 62.0572 74.6851 63.4687 75.8465 64.8802C77.008 66.2917 78.1694 67.7032 79.7954 68.4089C81.4214 69.1147 83.7443 68.8794 84.4412 67.2327C84.9058 66.5269 84.9058 65.3507 84.9058 64.4097C85.3703 61.1161 88.8547 58.5284 91.8744 59.7046C94.1973 60.4104 95.591 62.9982 96.9847 64.8802C98.3785 66.9974 100.469 69.1147 103.024 68.4089C106.044 67.7032 107.902 63.2334 110.922 63.7039C112.316 63.9392 113.245 65.1154 114.174 66.0564C115.103 66.9974 116.729 67.7032 117.891 66.9974C119.284 66.0564 119.052 63.4687 120.678 62.9982C121.607 62.5277 122.536 63.7039 123.466 64.4097Z" fill="white"/>
</mask>
<g mask="url(#mask1_9002_17511)">
<g opacity="0.25">
<path d="M44.2548 62.2945C44.0225 61.5888 41.4674 62.0593 43.3257 61.3535C44.0225 61.1183 44.7194 60.883 45.4162 60.883C46.5777 60.6477 47.7391 60.4125 48.9006 60.4125C52.6172 60.1773 56.3338 60.4125 60.0504 60.883C67.9482 61.824 75.6137 60.883 83.2792 60.1772C87.4604 59.942 91.4093 60.4125 95.5905 60.4125C99.3071 60.4125 103.256 60.1772 106.973 59.7067C110.922 59.2362 114.87 58.5305 118.819 57.8247C120.678 57.3542 122.536 56.8837 124.394 56.4132C125.323 56.178 126.253 55.9427 127.414 55.7075C127.879 55.7075 128.111 55.4722 128.575 55.4722C129.505 55.237 129.272 55.237 128.343 55.7075C129.04 58.5305 129.737 61.3535 130.201 64.4118C130.666 64.647 129.04 64.4118 129.04 64.4118C128.343 64.4118 127.646 64.4118 126.949 64.647C125.323 64.647 123.697 64.8823 122.071 64.8823C119.052 65.1175 116.032 65.588 113.012 66.2938C106.276 67.47 99.3071 68.1758 92.5708 68.411C86.5313 68.411 80.4918 68.411 74.4523 69.1168C71.2002 69.5873 68.1805 69.5873 64.9285 69.5873C63.3025 69.5873 61.6765 70.0578 60.2827 70.0578C58.1921 70.293 56.5661 69.5873 54.7078 69.1168C51.2235 67.9405 50.2943 62.5298 54.0109 60.883C55.6369 60.1772 57.263 59.7067 59.1213 59.942C60.515 60.1772 61.9087 59.7068 63.3024 59.4715C66.5545 59.2362 69.8065 59.2362 73.0586 59.001C79.7949 58.06 86.299 58.06 93.2677 58.06C99.7717 58.06 106.276 57.119 112.78 55.9427C116.496 55.237 119.981 55.0017 123.697 54.5312C127.182 54.296 129.969 53.5902 133.221 54.5312C136.706 55.4722 138.099 60.883 135.08 63.2355C131.828 65.8233 127.182 66.2938 123.465 67.2348C119.052 68.411 114.638 69.1168 109.992 69.5873C105.347 70.0578 100.701 70.5283 96.0551 70.5283C91.6416 70.5283 86.9959 70.0578 82.5824 70.5283C73.2908 71.234 64.4639 72.4103 55.1723 70.0578C53.0818 69.5873 51.2235 69.1168 49.1329 68.6463C48.6683 68.411 48.2037 68.411 47.5069 68.1758C48.2037 68.1758 48.2037 68.411 47.7391 68.1758C47.0423 68.1758 46.3454 67.9405 45.6485 67.9405C43.7902 67.7053 42.6288 67.2348 41.4674 65.588C41.2351 65.3528 41.2351 65.3528 41.4674 65.588C41.2351 65.3528 41.0028 65.1175 40.7705 65.1175C40.3059 64.647 40.0736 63.9413 40.0736 63.4708C40.0736 60.6478 43.5579 59.942 44.2548 62.2945Z" fill="#1A4520"/>
</g>
</g>
<g style="mix-blend-mode:soft-light" opacity="0.38">
<path d="M73.7559 78.9951C73.059 80.4066 72.8268 81.5829 71.8976 82.7591C70.7362 83.9354 69.3424 84.8764 67.7164 85.8174C65.6258 86.9937 63.9998 83.4649 66.0904 82.7591C67.2518 82.2886 68.4133 81.8181 69.5747 81.1124C70.7362 80.4066 72.3622 79.7009 73.0591 78.7599C73.2913 78.2894 73.9882 78.5246 73.7559 78.9951Z" fill="#1B451B"/>
</g>
<g style="mix-blend-mode:soft-light" opacity="0.38">
<path d="M76.5433 70.293C74.2204 68.1757 70.9683 66.7642 68.6454 64.4117C67.484 63.2355 68.8777 61.3535 70.2714 61.824C73.9881 62.5297 76.3109 66.2937 77.4724 69.5873C77.937 70.293 77.2401 70.7635 76.5433 70.293Z" fill="#1B451B"/>
</g>
<g style="mix-blend-mode:soft-light" opacity="0.38">
<path d="M91.6417 76.6441C92.1063 78.2908 90.9449 79.7023 90.4803 80.8786C90.0157 82.2901 89.0865 84.8778 86.996 84.6426C86.5314 84.6426 85.8345 84.1721 86.2991 83.4663C86.7637 82.2901 87.4605 81.1138 88.1574 79.9376C88.3897 79.2318 88.8542 78.7613 89.0865 78.2908C89.5511 77.8203 90.248 77.1146 90.4803 76.6441C90.7126 75.9383 91.4094 75.9383 91.6417 76.6441Z" fill="#1B451B"/>
</g>
<g style="mix-blend-mode:soft-light" opacity="0.38">
<path d="M95.1257 70.2924C93.9642 68.8809 93.0351 67.4694 91.4091 66.5284C90.0153 65.5874 88.6216 64.6464 87.4602 63.4702C86.0664 62.2939 87.4602 59.9414 89.0862 59.9414C91.1768 60.1767 92.8028 61.5882 94.1965 62.9997C94.8934 63.7054 95.5902 64.6464 95.8225 65.8227C96.2871 66.7637 96.2871 67.9399 96.7517 68.8809C97.4486 70.0572 95.8225 71.2334 95.1257 70.2924Z" fill="#1B451B"/>
</g>
<g style="mix-blend-mode:soft-light" opacity="0.38">
<path d="M63.5353 78.055C62.3739 79.7018 60.9802 80.4075 59.1219 81.1133C57.4959 81.5838 55.1729 82.2895 54.0115 80.878C53.7792 80.6428 53.7792 80.4075 54.0115 80.1723C55.4052 79.4665 56.799 79.2313 58.1927 78.5255C59.5864 77.8198 60.7479 76.4083 62.1416 76.173C63.303 75.9378 63.9999 77.114 63.5353 78.055Z" fill="#1B451B"/>
</g>
<g style="mix-blend-mode:soft-light" opacity="0.38">
<path d="M104.651 74.2918C105.812 74.9976 106.277 76.4091 106.044 77.8206C105.812 78.9968 105.115 80.4084 103.954 80.6436C103.721 80.6436 103.489 80.6436 103.489 80.4083C103.489 78.5263 103.954 76.6443 103.721 74.9976C103.721 74.2918 104.418 74.0566 104.651 74.2918Z" fill="#1B451B"/>
</g>
<g style="mix-blend-mode:soft-light" opacity="0.38">
<path d="M86.5316 68.6437C86.2994 68.1732 86.0671 68.1732 85.6025 67.7027C84.9056 66.997 84.4411 66.056 84.9056 65.115C85.1379 64.4092 85.8348 63.7035 86.5316 63.9387C87.4608 64.174 88.1577 64.6445 88.6223 65.5855C88.8545 66.2912 89.0868 66.997 89.3191 67.4675C89.3191 68.1732 89.3191 68.6437 88.6223 69.1142C87.6931 69.5847 86.9962 69.3495 86.5316 68.6437Z" fill="#1B451B"/>
</g>
<g style="mix-blend-mode:soft-light" opacity="0.38">
<path d="M59.8191 71.9381C58.89 73.5849 56.7994 73.3497 55.1734 72.8792C54.2442 72.6439 53.3151 71.9381 52.6182 71.4676C51.6891 70.5266 51.2245 69.5856 51.2245 68.1741C51.2245 66.7626 52.3859 65.5864 53.7797 65.1159C54.9411 64.8806 56.7994 65.3511 57.264 66.7626C57.4963 67.2331 57.4963 67.4684 57.7286 67.9389C57.4963 66.9979 57.4963 67.4684 57.7286 67.9389C57.264 67.2331 57.7286 67.7036 57.7286 67.9389C57.9609 68.1741 57.9608 68.4094 58.1931 68.6446C59.3546 69.5856 60.516 70.5266 59.8191 71.9381Z" fill="#1B451B"/>
</g>
<g style="mix-blend-mode:soft-light" opacity="0.25">
<path d="M69.11 77.8199C68.8777 78.2904 68.8777 78.5257 68.6454 78.9962C68.4131 79.4667 68.4131 79.702 68.1808 80.1725C67.9485 80.643 67.9485 81.1135 67.4839 81.3487C67.2517 81.584 67.2517 81.584 67.4839 81.3487L67.2517 81.584C67.0194 81.584 67.0194 81.584 66.7871 81.584C66.3225 81.584 66.0902 81.1135 66.0902 80.643C65.858 80.1725 66.0902 79.4667 66.3225 78.9962C66.5548 78.5257 66.7871 78.0552 67.0194 77.8199C67.484 77.5847 67.7162 77.3494 68.1808 77.1142C68.8777 76.6437 69.5745 77.1142 69.11 77.8199Z" fill="#549E62"/>
</g>
<g style="mix-blend-mode:soft-light" opacity="0.25">
<path d="M72.3616 71.7039C69.3419 73.8211 65.6253 68.1751 67.019 65.5874C67.4836 64.8816 68.645 64.6464 69.3419 65.1169C69.8065 65.3521 70.0388 65.8226 70.5033 66.2931C70.7356 66.7636 70.9679 67.4694 71.2002 67.9399C71.4325 68.4104 71.6648 68.8809 71.8971 69.5866C71.8971 69.8219 71.8971 69.8219 72.1293 70.0571C71.6648 70.0571 72.3616 70.2924 72.1293 70.0571C72.8262 69.8219 73.0585 71.2334 72.3616 71.7039Z" fill="#549E62"/>
</g>
<g style="mix-blend-mode:soft-light" opacity="0.25">
<path d="M86.7633 86.0533C85.3696 88.8763 83.0467 86.0533 82.3499 84.1713C81.653 82.2893 82.3498 77.1138 85.1373 77.1138C85.3696 77.1138 85.3696 77.1138 85.3696 77.349C86.0664 78.7605 84.6727 80.8778 84.4404 82.2893C84.4404 83.4655 84.905 85.3475 86.2988 85.5828C86.7633 85.3475 86.9956 85.5828 86.7633 86.0533Z" fill="#549E62"/>
</g>
<g style="mix-blend-mode:soft-light" opacity="0.25">
<path d="M85.6025 63.4698C85.6025 61.1173 87.9254 59.2353 90.2483 59C92.1066 59 94.6618 60.4115 94.8941 62.5288C94.8941 62.764 94.8941 62.764 94.6618 62.764C93.5003 62.764 92.5712 61.5878 91.642 60.882C90.016 59.4705 86.764 62.0583 85.6025 63.4698Z" fill="#549E62"/>
</g>
<g style="mix-blend-mode:soft-light" opacity="0.25">
<path d="M60.5149 75.232C60.5149 75.4672 60.2826 75.4672 60.2826 75.7025C60.2826 75.4672 60.5149 75.232 60.5149 74.9967C60.7472 76.4082 59.5857 77.3492 58.6566 78.055C57.2628 79.4665 55.1723 80.4075 53.5462 81.3485C49.8296 83.2305 46.8099 77.3492 50.5265 75.7025C52.3848 74.7615 54.4754 74.0557 56.566 74.0557C57.4951 74.0557 58.4243 73.8205 59.1212 74.0557C59.3535 74.0557 59.5857 74.0557 59.818 74.291L60.0503 74.5262C60.2826 74.9967 60.2826 74.9967 60.2826 74.5262C60.7472 74.5262 60.7472 74.9967 60.5149 75.232Z" fill="#549E62"/>
</g>
<g style="mix-blend-mode:soft-light" opacity="0.25">
<path d="M99.0754 74.9964C99.0754 76.1727 99.3077 77.5842 99.54 78.7604C99.54 79.7015 99.54 80.8777 99.7723 81.8187C100.005 82.995 100.005 84.1712 101.166 84.6417C101.631 84.877 101.631 85.3475 101.631 85.818C101.398 86.2885 100.934 86.5237 100.469 86.5237C98.3785 86.0532 97.914 83.4655 97.6817 81.5835C97.4494 79.2309 96.9848 76.8784 98.6109 74.9964C98.8431 74.5259 99.0754 74.5259 99.0754 74.9964Z" fill="#549E62"/>
</g>
<g style="mix-blend-mode:soft-light" opacity="0.25">
<path d="M117.658 71.9385C117.891 71.9385 118.355 72.6442 117.658 71.9385C118.123 72.1737 118.123 72.409 118.355 72.6442C118.82 73.1147 119.052 73.8205 119.284 74.291C119.749 75.7025 118.587 77.114 117.426 77.3493C116.032 77.5845 114.639 76.6435 114.406 75.4672C113.709 73.35 115.335 70.7622 117.658 71.9385Z" fill="#549E62"/>
</g>
<path d="M152.502 78.7628C157.612 77.3513 164.116 78.057 168.762 80.4095C173.408 82.762 177.356 86.2908 180.841 90.29C182.235 91.9368 183.628 93.8188 182.699 95.9361C182.235 97.3476 181.073 98.0533 179.679 98.5238C177.124 99.2296 174.801 98.0533 172.478 97.3476C168.762 96.1713 165.51 93.3483 160.167 90.0548C156.451 87.9375 153.895 92.4073 157.147 94.9951C159.47 96.8771 162.258 99.9353 162.49 102.053C162.49 102.758 162.49 103.464 162.025 103.935C161.096 105.346 159.47 105.111 158.077 104.876C154.592 104.17 151.34 102.758 148.553 100.641C145.533 98.5238 142.513 96.4066 140.19 93.8188C136.241 89.349 134.848 88.6433 131.131 88.408C127.879 87.9375 127.414 90.7605 128.576 91.9368C129.737 93.3483 130.899 94.7598 132.06 96.1713C132.989 97.3476 132.293 99.4648 130.667 99.4648C128.344 99.4648 126.021 98.5238 123.93 97.3476C120.91 95.4656 118.588 92.6426 115.8 90.29C113.709 88.6433 110.922 87.2318 108.367 87.467C106.973 87.467 105.812 88.8785 106.276 90.29C106.741 91.9368 107.67 93.5836 106.741 94.9951C106.276 95.4656 105.812 95.9361 105.115 96.1713C102.792 96.8771 100.237 95.4656 98.6108 93.3483C96.9847 91.4663 96.0556 89.349 94.4296 87.467C90.713 83.2325 84.9057 81.821 79.3308 81.3505C63.5352 80.1743 48.4365 83.703 32.8732 84.1735C32.1763 84.1735 30.318 84.1735 30.0857 83.4678C29.8534 82.762 30.5503 82.0563 31.0148 81.5858C33.1054 80.1743 37.9835 79.7038 40.5387 79.2333C54.2437 76.8807 65.6258 76.8807 79.5631 76.8807C81.886 76.8807 86.0672 76.175 87.9255 74.9987C89.0869 74.293 95.3587 67.706 98.6108 66.2945C100.701 65.3535 103.024 64.4125 105.347 64.883C106.741 65.1182 107.902 65.824 108.599 67.0002C110.69 70.0585 106.509 72.6462 108.135 75.7045C108.831 77.116 110.457 77.8218 112.083 77.5865C115.335 77.116 116.962 74.293 118.82 71.9405C121.84 67.9412 126.485 64.1772 131.131 65.3535C132.06 65.5887 132.757 66.0592 132.989 66.765C133.222 67.2355 132.989 67.706 132.757 68.1765C131.828 70.7642 129.273 72.1757 127.414 74.0577C125.556 75.9398 123.93 78.998 125.556 81.1153C129.505 81.3505 132.293 77.3513 135.08 74.5282C139.726 70.0585 145.998 67.4707 152.269 67.706C152.966 67.706 153.895 67.9412 154.36 68.647C154.592 69.3527 154.36 70.0585 153.895 70.529C153.198 71.47 151.805 71.47 150.876 71.7052C146.927 72.411 142.978 74.0577 139.726 76.6455C138.564 77.5865 137.635 78.7628 137.867 80.4095C138.1 81.3505 138.797 82.0563 139.726 82.5268C141.352 83.2325 143.21 82.9973 144.836 82.2915C147.856 81.1153 149.482 79.7038 152.502 78.7628Z" fill="#80C452"/>
<g opacity="0.25">
<path d="M158.308 85.3509C154.359 85.3509 150.875 86.7624 146.926 86.9976C143.442 87.4681 139.958 86.5271 136.473 85.8214C128.111 84.1746 119.981 82.9984 111.618 82.0574C103.953 81.3516 96.2874 79.2344 88.3896 79.2344C80.4918 78.9991 72.594 79.4696 64.6962 78.7639C64.4639 78.7639 64.4639 78.2934 64.6962 78.2934C72.594 78.5286 80.4918 78.2934 88.3896 78.0581C96.2874 78.0581 103.953 80.1754 111.618 80.8811C119.284 81.5869 126.949 82.5279 134.383 84.1746C138.332 85.1156 142.513 85.8214 146.694 85.8214C150.643 86.0566 154.359 84.6451 158.308 85.3509Z" fill="#C6FFA0"/>
</g>
<mask id="mask2_9002_17511" style="mask-type:luminance" maskUnits="userSpaceOnUse" x="30" y="64" width="154" height="42">
<path d="M152.502 78.7647C157.612 77.3532 164.117 78.059 168.762 80.4115C173.408 82.764 177.357 86.2927 180.841 90.292C182.235 91.9388 183.629 93.8208 182.7 95.938C182.235 97.3495 181.074 98.0553 179.68 98.5258C177.125 99.2315 174.802 98.0553 172.479 97.3495C168.762 96.1733 165.51 93.3503 160.168 90.0568C156.451 87.9395 153.896 92.4093 157.148 94.997C159.471 96.879 162.258 99.9373 162.491 102.055C162.491 102.76 162.491 103.466 162.026 103.937C161.097 105.348 159.471 105.113 158.077 104.878C154.593 104.172 151.341 102.76 148.553 100.643C145.533 98.5258 142.514 96.4085 140.191 93.8208C136.242 89.351 134.848 88.6452 131.132 88.41C127.88 87.9395 127.415 90.7625 128.576 91.9388C129.738 93.3503 130.899 94.7618 132.061 96.1733C132.99 97.3495 132.293 99.4668 130.667 99.4668C128.344 99.4668 126.021 98.5258 123.931 97.3495C120.911 95.4675 118.588 92.6445 115.801 90.292C113.71 88.6452 110.923 87.2337 108.367 87.469C106.974 87.469 105.812 88.8805 106.277 90.292C106.741 91.9388 107.67 93.5855 106.741 94.997C106.277 95.4675 105.812 95.938 105.115 96.1733C102.792 96.879 100.237 95.4675 98.6113 93.3503C96.9852 91.4683 96.0561 89.351 94.4301 87.469C90.7134 83.2345 84.9062 81.823 79.3313 81.3525C63.5357 80.1762 48.437 83.705 32.8736 84.1755C32.1768 84.1755 30.3185 84.1755 30.0862 83.4697C29.8539 82.764 30.5508 82.0582 31.0153 81.5877C33.1059 80.1762 37.984 79.7057 40.5392 79.2352C54.2442 76.8827 65.6263 76.8827 79.5636 76.8827C81.8865 76.8827 86.0677 76.177 87.926 75.0007C89.0874 74.2949 95.3592 67.7079 98.6113 66.2964C100.702 65.3554 103.025 64.4144 105.348 64.8849C106.741 65.1202 107.903 65.8259 108.6 67.0022C110.69 70.0604 106.509 72.6482 108.135 75.7064C108.832 77.118 110.458 77.8237 112.084 77.5885C115.336 77.118 116.962 74.2949 118.82 71.9424C121.84 67.9432 126.486 64.1792 131.132 65.3554C132.061 65.5907 132.758 66.0612 132.99 66.7669C133.222 67.2374 132.99 67.7079 132.758 68.1784C131.828 70.7662 129.273 72.1777 127.415 74.0597C125.557 75.9417 123.931 79 125.557 81.1172C129.506 81.3525 132.293 77.3532 135.081 74.5302C139.726 70.0604 145.998 67.4727 152.27 67.7079C152.967 67.7079 153.896 67.9432 154.36 68.6489C154.593 69.3547 154.36 70.0604 153.896 70.5309C153.199 71.4719 151.805 71.4719 150.876 71.7072C146.927 72.4129 142.978 74.0597 139.726 76.6475C138.565 77.5885 137.636 78.7647 137.868 80.4115C138.1 81.3525 138.797 82.0582 139.726 82.5287C141.352 83.2345 143.211 82.9992 144.837 82.2935C147.856 81.1172 149.482 79.7057 152.502 78.7647Z" fill="white"/>
</mask>
<g mask="url(#mask2_9002_17511)">
<g opacity="0.25">
<path d="M187.809 108.403C183.86 109.344 179.679 107.933 176.195 106.286C172.014 104.404 167.833 102.522 163.419 102.287C157.612 102.287 152.037 104.169 146.23 104.404C140.19 104.639 133.918 102.993 128.111 101.581C116.497 98.9934 104.882 98.0524 93.268 96.6409C90.4805 96.4057 87.6931 95.9352 84.9056 95.9352C83.7442 95.9352 82.3504 95.9352 81.189 95.9352C80.7244 95.9352 78.6338 96.1704 80.4921 95.9352C78.6338 96.1704 76.7755 96.4057 74.9172 96.8762C74.4526 96.8762 73.9881 97.1114 73.5235 97.3467C74.2203 97.1114 74.4526 97.1114 73.5235 97.3467C72.8266 97.8172 72.8266 97.8172 73.7558 97.1114C74.2203 96.6409 74.4526 96.1704 74.6849 95.4647C73.0589 92.4064 71.4329 89.3481 69.8069 86.0546C71.6652 86.7604 76.5432 86.7604 79.3307 86.9956C83.9765 87.4661 88.6222 87.9366 93.5003 88.4071C102.56 89.1129 111.386 90.5244 120.446 91.4654C129.273 92.4064 137.867 92.8769 146.694 94.0532C148.785 94.2884 150.876 94.5237 153.198 94.9942C154.36 95.2294 156.218 95.4647 156.915 95.2294C161.561 93.1122 165.51 90.9949 170.388 94.2884C178.286 99.6992 170.388 112.403 162.49 106.992C166.439 106.521 167.368 106.521 165.51 107.462C164.813 107.933 163.884 108.403 163.187 108.874C160.632 110.05 158.076 110.285 155.521 110.285C151.572 110.285 147.623 109.344 143.907 108.874C135.08 107.698 126.485 107.462 117.658 106.521C108.599 105.58 99.7721 104.404 90.7128 103.463C86.5316 102.993 82.1181 102.757 77.9369 102.287C73.988 101.816 69.3423 102.052 65.6257 100.875C61.909 99.6992 59.5862 95.4647 60.7476 91.4654C63.9997 81.8201 77.2401 81.3496 85.6025 81.3496C91.642 81.3496 97.9137 82.5259 103.953 82.9964C110.922 83.7021 117.891 84.6431 124.859 86.0546C130.666 87.2309 136.474 88.8776 142.513 89.5834C148.785 90.2891 154.824 87.9366 161.328 87.7014C167.368 87.4661 172.943 89.8186 178.053 92.6416C180.841 94.2884 182.931 96.4057 185.254 98.7582C186.648 100.405 187.112 103.463 188.738 104.639C189.9 105.345 189.435 107.933 187.809 108.403Z" fill="#3D750E"/>
</g>
</g>
<mask id="mask3_9002_17511" style="mask-type:luminance" maskUnits="userSpaceOnUse" x="30" y="64" width="154" height="42">
<path d="M152.502 78.7647C157.612 77.3532 164.117 78.059 168.762 80.4115C173.408 82.764 177.357 86.2927 180.841 90.292C182.235 91.9388 183.629 93.8208 182.7 95.938C182.235 97.3495 181.074 98.0553 179.68 98.5258C177.125 99.2315 174.802 98.0553 172.479 97.3495C168.762 96.1733 165.51 93.3503 160.168 90.0568C156.451 87.9395 153.896 92.4093 157.148 94.997C159.471 96.879 162.258 99.9373 162.491 102.055C162.491 102.76 162.491 103.466 162.026 103.937C161.097 105.348 159.471 105.113 158.077 104.878C154.593 104.172 151.341 102.76 148.553 100.643C145.533 98.5258 142.514 96.4085 140.191 93.8208C136.242 89.351 134.848 88.6452 131.132 88.41C127.88 87.9395 127.415 90.7625 128.576 91.9388C129.738 93.3503 130.899 94.7618 132.061 96.1733C132.99 97.3495 132.293 99.4668 130.667 99.4668C128.344 99.4668 126.021 98.5258 123.931 97.3495C120.911 95.4675 118.588 92.6445 115.801 90.292C113.71 88.6452 110.923 87.2337 108.367 87.469C106.974 87.469 105.812 88.8805 106.277 90.292C106.741 91.9388 107.67 93.5855 106.741 94.997C106.277 95.4675 105.812 95.938 105.115 96.1733C102.792 96.879 100.237 95.4675 98.6113 93.3503C96.9852 91.4683 96.0561 89.351 94.4301 87.469C90.7134 83.2345 84.9062 81.823 79.3313 81.3525C63.5357 80.1762 48.437 83.705 32.8736 84.1755C32.1768 84.1755 30.3185 84.1755 30.0862 83.4697C29.8539 82.764 30.5508 82.0582 31.0153 81.5877C33.1059 80.1762 37.984 79.7057 40.5392 79.2352C54.2442 76.8827 65.6263 76.8827 79.5636 76.8827C81.8865 76.8827 86.0677 76.177 87.926 75.0007C89.0874 74.2949 95.3592 67.7079 98.6113 66.2964C100.702 65.3554 103.025 64.4144 105.348 64.8849C106.741 65.1202 107.903 65.8259 108.6 67.0022C110.69 70.0604 106.509 72.6482 108.135 75.7064C108.832 77.118 110.458 77.8237 112.084 77.5885C115.336 77.118 116.962 74.2949 118.82 71.9424C121.84 67.9432 126.486 64.1792 131.132 65.3554C132.061 65.5907 132.758 66.0612 132.99 66.7669C133.222 67.2374 132.99 67.7079 132.758 68.1784C131.828 70.7662 129.273 72.1777 127.415 74.0597C125.557 75.9417 123.931 79 125.557 81.1172C129.506 81.3525 132.293 77.3532 135.081 74.5302C139.726 70.0604 145.998 67.4727 152.27 67.7079C152.967 67.7079 153.896 67.9432 154.36 68.6489C154.593 69.3547 154.36 70.0604 153.896 70.5309C153.199 71.4719 151.805 71.4719 150.876 71.7072C146.927 72.4129 142.978 74.0597 139.726 76.6475C138.565 77.5885 137.636 78.7647 137.868 80.4115C138.1 81.3525 138.797 82.0582 139.726 82.5287C141.352 83.2345 143.211 82.9992 144.837 82.2935C147.856 81.1172 149.482 79.7057 152.502 78.7647Z" fill="white"/>
</mask>
<g mask="url(#mask3_9002_17511)">
<g opacity="0.25">
<path d="M186.647 92.1727C184.557 90.7612 181.305 90.2907 178.982 89.3497C175.73 88.1734 172.478 87.2324 169.226 85.8209C165.509 84.1742 162.257 82.9979 158.076 83.2332C153.43 83.4684 148.784 83.9389 144.138 83.4684C135.079 82.7627 126.02 80.1749 117.193 78.2929C108.598 76.6461 100.004 77.3519 91.8736 73.3526C86.0664 70.5296 88.157 60.8843 94.1965 59.7081C97.4485 59.2376 100.468 59.2376 103.72 59.7081C106.972 59.9433 110.457 59.7081 113.709 59.7081C120.677 59.4728 127.646 59.2376 134.382 59.0023C141.351 58.7671 148.087 59.7081 154.824 61.1196C161.328 62.2958 168.064 61.8253 173.639 65.8246C178.517 69.1181 177.123 76.4109 171.548 78.0576C168.064 78.9986 165.974 77.5872 162.722 77.1166C159.469 76.6461 156.45 76.4109 153.198 75.9404C146.926 74.7641 141.119 73.8231 134.615 74.0584C128.111 74.0584 121.374 74.5289 114.87 74.7641C111.618 74.7641 108.134 74.9994 104.882 74.9994C102.327 74.9994 99.0745 74.2936 96.9839 74.7641C97.6808 70.2944 98.6099 65.5894 99.3068 61.1196C102.094 62.5311 106.043 62.5311 109.528 62.7663C114.173 63.0016 118.819 63.9426 123.232 64.8836C132.059 66.7656 140.654 69.1181 149.713 69.1181C154.359 69.1181 159.005 67.9419 163.651 68.8829C168.064 69.5886 171.781 71.4706 175.962 73.3526C182.466 76.1756 191.99 81.3512 190.596 90.0554C190.596 91.9375 188.506 93.3489 186.647 92.1727Z" fill="#70C836"/>
</g>
</g>
<g style="mix-blend-mode:soft-light" opacity="0.25">
<path d="M152.733 82.9969C155.521 79.2329 161.328 80.4091 165.277 81.5854C169.69 82.9969 175.498 85.5847 177.588 90.2897C178.982 93.3479 175.73 97.3472 172.71 94.9947C169.923 92.8774 167.367 90.5249 164.115 88.8782C162.257 87.9372 160.167 87.2314 158.308 86.5257C156.682 86.0552 154.824 85.8199 153.43 84.8789C152.501 84.6437 152.269 83.7027 152.733 82.9969Z" fill="#72B726"/>
</g>
<g style="mix-blend-mode:soft-light" opacity="0.25">
<path d="M159.934 81.1149C164.115 79.7034 169.225 81.5854 172.942 83.7027C177.123 86.0552 182.001 90.2897 182.466 95.23C182.698 97.8178 179.446 98.7588 177.588 97.8177C174.336 96.171 172.013 92.1717 169.458 89.584C166.902 87.2315 163.418 84.1732 159.934 83.4675C158.54 83.2322 159.005 81.3502 159.934 81.1149Z" fill="#72B726"/>
</g>
<g style="mix-blend-mode:soft-light" opacity="0.38">
<path d="M143.907 91.2317C146.694 92.1727 149.249 93.349 152.037 94.7605C154.127 95.9367 159.47 98.054 157.147 101.347C155.056 104.406 151.107 102.524 148.785 100.877C147.623 99.936 146.462 98.995 145.3 97.8187C144.139 96.4072 143.21 94.9957 142.048 93.8194C140.887 92.6432 142.281 90.7612 143.907 91.2317Z" fill="#68A816"/>
</g>
<g style="mix-blend-mode:soft-light" opacity="0.38">
<path d="M134.847 78.7634C136.473 72.1764 143.674 68.1771 150.178 67.9419C150.642 67.9419 151.339 68.4124 151.571 68.8829C152.965 71.9412 148.087 71.7059 146.229 72.1764C142.048 73.3527 139.028 76.8814 135.311 79.2339C135.311 79.7044 134.847 79.2339 134.847 78.7634Z" fill="#68A816"/>
</g>
<g style="mix-blend-mode:soft-light" opacity="0.38">
<path d="M117.426 85.8194C119.052 86.9957 121.143 87.9367 122.769 88.8777C124.627 89.8187 126.718 90.995 127.182 93.1122C127.415 94.2885 126.718 95.7 125.324 95.9352C123.001 96.4057 121.375 94.9942 119.749 93.5827C117.891 91.936 116.729 90.2892 115.336 88.4072C114.174 86.9957 115.8 84.6432 117.426 85.8194Z" fill="#68A816"/>
</g>
<g style="mix-blend-mode:soft-light" opacity="0.38">
<path d="M118.123 76.41C118.123 75.469 118.123 74.528 118.588 73.8222C119.052 72.8812 119.981 71.9402 120.678 70.9992C122.304 69.1172 124.395 67.4705 126.718 66.5295C128.808 65.8237 129.97 69.1172 128.111 70.0582C126.253 70.764 125.092 71.9402 123.698 73.3517C123.001 74.0575 122.304 74.528 121.607 75.2337C121.143 75.9395 120.678 76.6452 120.214 77.351C119.517 78.0567 118.123 77.351 118.123 76.41Z" fill="#68A816"/>
</g>
<g style="mix-blend-mode:soft-light" opacity="0.38">
<path d="M91.642 75.9421C90.016 73.5896 91.4097 71.2371 93.2681 69.5903C95.3586 67.9435 98.3784 65.591 101.166 66.532C103.256 67.2378 103.256 69.3551 102.095 71.0018C101.398 71.9428 100.237 72.4133 99.0753 72.8838C98.1461 73.3543 97.2169 74.0601 96.0555 74.7658C95.1264 75.2363 92.8035 78.0593 91.642 75.9421Z" fill="#68A816"/>
</g>
<g style="mix-blend-mode:soft-light" opacity="0.38">
<path d="M97.4496 84.4087C98.611 85.585 100.005 86.2907 101.398 87.2317C102.56 88.408 104.418 89.1137 105.115 90.7605C105.812 92.8777 104.883 95.4655 102.328 95.2303C99.7724 94.995 98.3787 93.113 96.985 90.9957C95.8235 89.349 96.0558 87.2317 95.359 85.3497C94.6621 84.1735 96.5204 83.4677 97.4496 84.4087Z" fill="#68A816"/>
</g>
<g style="mix-blend-mode:soft-light" opacity="0.37">
<path d="M118.123 89.3495C119.749 90.761 121.375 92.1725 123.233 93.1135C124.627 93.8192 127.182 94.2897 127.647 95.9365C127.647 96.1718 127.647 96.407 127.182 96.6423C125.556 97.1128 123.466 95.466 122.072 94.7602C119.981 93.584 118.587 91.702 116.961 90.0552C116.497 89.5847 117.426 88.6437 118.123 89.3495Z" fill="#439908"/>
</g>
<g style="mix-blend-mode:soft-light" opacity="0.37">
<path d="M141.119 91.2308C142.977 92.8776 145.068 94.2891 146.926 95.7006C148.784 96.8768 150.875 97.8179 152.269 99.6999C152.733 100.17 152.269 100.641 151.804 100.641C149.249 100.876 146.926 99.4646 144.603 98.0531C142.28 96.6416 140.654 94.7596 139.028 92.6423C138.332 91.2308 140.19 90.2898 141.119 91.2308Z" fill="#439908"/>
</g>
<g style="mix-blend-mode:soft-light" opacity="0.37">
<path d="M159.238 86.2907C162.026 83.9382 165.742 84.8792 168.762 86.0554C172.479 87.467 177.124 88.6432 178.518 92.8777C179.215 94.7597 176.892 96.6417 175.266 95.936C172.479 94.995 170.156 93.113 167.601 91.9367C165.045 90.7605 162.49 89.349 159.703 88.408C159.006 88.1727 158.541 86.7612 159.238 86.2907Z" fill="#439908"/>
</g>
<g style="mix-blend-mode:soft-light" opacity="0.37">
<path d="M106.276 72.8823C106.276 73.1176 106.509 73.3528 106.741 73.5881C106.741 73.8233 107.206 74.5291 106.973 74.0586C107.206 74.5291 107.438 74.7643 107.67 75.2348C107.902 75.9406 107.438 74.9996 107.67 75.4701C107.902 75.7053 107.902 75.9406 108.135 76.4111C109.064 78.2931 107.438 80.1751 105.58 79.7046C103.954 79.2341 103.024 77.5874 103.024 75.9406C103.024 74.9996 103.489 73.8233 104.186 72.8823C104.65 72.1766 106.044 72.1766 106.276 72.8823Z" fill="#439908"/>
</g>
<path d="M135.08 103.46C138.565 100.402 143.675 101.343 148.088 102.754C149.714 103.225 152.037 103.46 152.734 101.813C148.785 98.0492 142.049 100.166 137.403 97.3434C132.757 94.5204 131.364 88.1686 126.95 84.8751C125.789 84.1694 124.395 83.4636 123.001 84.1694C121.143 85.1104 121.143 87.9334 119.982 89.5801C118.123 91.9327 114.174 90.7564 112.316 88.4039C110.458 86.0514 109.993 82.7579 108.832 80.1701C108.135 78.2881 106.973 76.4061 105.58 74.7593C103.489 72.4068 100.005 70.5248 97.6818 72.4068C94.6621 74.9946 97.4495 80.4054 95.5912 83.9341C94.6621 85.5809 92.5715 86.5219 90.7132 86.0514C87.9257 85.3456 86.532 82.5226 85.1383 80.1701C83.7445 78.0529 82.1185 75.7003 79.5633 74.9946C77.0081 74.2888 73.9884 75.4651 73.2915 78.0529C72.827 79.9349 73.7561 82.0521 73.0593 83.6989C72.1301 85.3456 70.0395 85.8161 68.1812 85.1104C66.5552 84.4046 65.1615 83.2284 63.7677 82.0521C60.2834 78.9939 56.1022 76.6414 51.6887 75.4651C49.8304 74.9946 47.9721 74.5241 46.1138 75.2298C44.2555 75.9356 42.8618 77.8176 43.3264 79.6996C43.7909 81.5816 46.1138 82.2874 47.7398 83.4636C49.3658 84.6399 50.295 87.4629 48.4367 88.4039C47.9721 88.6391 47.5075 88.6391 46.8107 88.6391C42.6295 88.1686 38.4483 86.5219 34.2671 85.8161C30.0859 85.1104 25.2079 85.5809 22.4204 88.8744C21.9558 89.5801 21.259 90.2859 21.259 91.2269C21.0267 93.3442 23.1173 94.9909 24.9756 95.6967C27.0662 96.4024 29.1568 96.1672 31.2474 97.1082C32.6411 97.5787 33.8025 99.2254 33.1056 100.402C32.6411 101.107 31.9442 101.343 31.2474 101.813C28.4599 103.46 28.2276 107.93 30.3182 110.282C32.4088 112.635 36.3577 112.87 39.1452 110.988C42.6295 108.635 44.9524 103.695 49.1336 103.93C49.5981 103.93 49.8304 103.93 50.0627 104.166C50.7596 104.871 50.5273 105.812 50.295 106.753C49.8304 109.341 50.9919 111.929 52.8502 113.576C54.7085 115.222 57.4959 115.693 59.8188 114.752C62.1417 113.811 63.7677 111.694 65.3937 109.576C66.7875 107.459 68.4135 105.342 70.7364 103.93C73.0593 102.754 76.3113 102.989 77.705 105.107C78.4019 106.283 78.4019 107.694 78.8665 108.871C80.0279 113.34 85.1383 116.869 89.3195 114.987C92.5715 113.576 94.4298 110.047 96.2881 106.753C98.1464 103.695 101.166 100.402 104.65 100.872C109.064 101.578 112.084 107.93 116.497 106.753C118.355 106.283 119.749 104.401 121.143 102.989C122.537 101.578 124.627 100.166 126.486 101.343C128.576 102.519 128.576 106.283 130.899 106.753C132.525 106.283 133.919 104.636 135.08 103.46Z" fill="#357A06"/>
<g opacity="0.25">
<path d="M54.4761 95.4624C61.2124 94.7566 67.9488 94.2861 74.6852 93.3451C81.1892 92.6394 87.461 93.1099 93.9651 93.3451C106.741 93.8156 119.517 94.2861 131.828 97.8149C132.06 97.8149 132.06 97.5796 132.06 97.5796C127.182 94.2861 119.981 93.8156 114.406 93.1099C108.135 92.4041 102.095 91.9336 95.8234 91.9336C89.3193 91.9336 82.8152 91.2279 76.3112 91.6984C69.1102 92.8746 61.9093 94.0509 54.4761 95.4624Z" fill="#BEF59A"/>
</g>
<mask id="mask4_9002_17511" style="mask-type:luminance" maskUnits="userSpaceOnUse" x="21" y="71" width="133" height="45">
<path d="M135.545 103.46C139.029 100.402 144.14 101.343 148.553 102.754C150.179 103.225 152.502 103.46 153.199 101.813C149.25 98.0492 142.514 100.166 137.868 97.3434C133.222 94.5204 131.828 88.1686 127.415 84.8751C126.254 84.1694 124.86 83.4636 123.466 84.1694C121.608 85.1104 121.608 87.9334 120.446 89.5801C118.588 91.9327 114.639 90.7564 112.781 88.4039C110.923 86.0514 110.458 82.7579 109.297 80.1701C108.6 78.2881 107.438 76.4061 106.044 74.7593C103.954 72.4068 100.47 70.5248 98.1467 72.4068C95.1269 74.9946 97.9144 80.4054 96.0561 83.9341C95.1269 85.5809 93.0363 86.5219 91.178 86.0514C88.3905 85.3456 86.9968 82.5226 85.6031 80.1701C84.2094 78.0529 82.5834 75.7003 80.0282 74.9946C77.473 74.2888 74.4532 75.4651 73.7564 78.0529C73.2918 79.9349 74.221 82.0521 73.5241 83.6989C72.595 85.3456 70.5044 85.8161 68.646 85.1104C66.7877 84.4046 65.6263 83.2284 64.2326 82.0521C60.7483 78.9939 56.5671 76.6414 52.1536 75.4651C50.2953 74.9946 48.437 74.5241 46.5787 75.2298C44.7203 75.9356 43.3266 77.8176 43.7912 79.6996C44.2558 81.5816 46.5786 82.2874 48.2047 83.4636C49.8307 84.6399 50.7598 87.4629 48.9015 88.4039C48.437 88.6391 47.9724 88.6391 47.2755 88.6391C43.0943 88.1686 38.9132 86.5219 34.732 85.8161C30.5508 85.1104 25.6727 85.5809 22.8853 88.8744C22.4207 89.5801 21.7238 90.2859 21.7238 91.2269C21.4915 93.3442 23.5821 94.9909 25.4404 95.6967C27.531 96.4024 29.6216 96.1672 31.7122 97.1082C33.1059 97.5787 34.2674 99.2254 33.5705 100.402C33.106 101.107 32.4091 101.343 31.7122 101.813C28.9248 103.46 28.6925 107.93 30.7831 110.282C32.8737 112.635 36.8225 112.87 39.61 110.988C43.0943 108.635 45.4172 103.695 49.5984 103.93C50.063 103.93 50.2953 103.93 50.5275 104.166C51.2244 104.871 50.9921 105.812 50.7599 106.753C50.2953 109.341 51.4567 111.929 53.315 113.576C55.1733 115.222 57.9608 115.693 60.2837 114.752C62.6066 113.811 64.2326 111.694 65.8586 109.576C67.4846 107.459 68.8783 105.342 71.2012 103.93C73.5241 102.754 76.7761 102.989 78.1699 105.107C78.8667 106.283 78.8667 107.694 79.3313 108.871C80.4928 113.34 85.6031 116.869 89.7843 114.987C93.0363 113.576 94.8946 110.047 96.753 106.753C98.6113 103.695 101.631 100.402 105.115 100.872C109.529 101.578 112.549 107.93 116.962 106.753C118.82 106.283 120.214 104.401 121.608 102.989C123.002 101.578 125.092 100.166 126.95 101.343C129.041 102.519 129.041 106.283 131.364 106.753C132.758 106.518 134.151 104.636 135.545 103.46Z" fill="white"/>
</mask>
<g mask="url(#mask4_9002_17511)">
<g opacity="0.25">
<path d="M21.2594 99.4616C21.724 98.9911 25.2083 98.9911 26.1375 98.7559C28.4604 98.2854 31.0155 97.5796 33.3384 97.1091C38.4488 95.9329 43.5591 94.7566 48.6695 93.5804C59.1224 90.9926 69.8077 89.3459 80.7252 88.8754C91.6428 88.4049 102.56 90.0516 113.246 91.6984C118.82 92.6394 124.163 93.5804 129.738 94.5214C135.081 95.4624 140.423 96.6386 145.766 96.1681C150.412 95.6976 153.431 90.5221 151.805 86.0523C149.947 81.5826 145.766 79.2301 141.352 77.8186C136.707 76.1718 132.293 74.5251 127.647 72.8783C115.568 67.938 102.56 66.2913 89.5522 65.5855C83.0481 65.3503 76.544 65.8208 70.04 66.2913C63.5359 66.7618 57.4964 67.2323 51.2246 68.6438C44.9528 70.0553 38.9133 71.4668 33.1061 74.0546C27.0666 76.4071 19.6334 79.4653 17.3105 86.0523C16.6137 88.4049 17.0782 91.2279 19.6334 92.1689C25.6729 94.5214 31.0155 91.2279 36.3582 88.6401C41.4685 86.2876 46.5788 84.8761 51.9215 83.6998C62.839 81.3473 74.4535 80.4063 85.8356 80.4063C91.4105 80.4063 96.7531 81.3473 102.328 81.8178C107.903 82.2883 113.246 83.2293 118.356 85.1113C122.769 86.9933 127.415 89.1106 132.061 90.5221C133.687 90.9926 135.081 91.4631 136.707 91.9336C137.636 92.1689 138.333 92.6394 139.262 93.1099C138.565 92.6394 138.565 92.6394 139.03 93.1099C138.565 92.6394 138.1 92.1689 137.868 91.6984C139.959 88.4049 141.817 84.8761 143.908 81.5826C139.262 82.0531 134.152 80.4063 129.506 79.7006C123.699 78.7596 117.659 77.5833 111.852 76.6423C99.7729 74.7603 87.6939 73.8193 75.3826 74.5251C64.0005 75.2308 52.8506 77.5833 41.7008 80.6416C36.3582 82.0531 31.0155 84.1703 26.1375 86.7581C22.1886 88.8754 17.3105 91.9336 15.4522 96.1681C13.8262 99.4616 18.7043 102.285 21.2594 99.4616Z" fill="#63B030"/>
</g>
</g>
<mask id="mask5_9002_17511" style="mask-type:luminance" maskUnits="userSpaceOnUse" x="21" y="71" width="133" height="45">
<path d="M135.545 103.46C139.029 100.402 144.14 101.343 148.553 102.754C150.179 103.225 152.502 103.46 153.199 101.813C149.25 98.0492 142.514 100.166 137.868 97.3434C133.222 94.5204 131.828 88.1686 127.415 84.8751C126.254 84.1694 124.86 83.4636 123.466 84.1694C121.608 85.1104 121.608 87.9334 120.446 89.5801C118.588 91.9327 114.639 90.7564 112.781 88.4039C110.923 86.0514 110.458 82.7579 109.297 80.1701C108.6 78.2881 107.438 76.4061 106.044 74.7593C103.954 72.4068 100.47 70.5248 98.1467 72.4068C95.1269 74.9946 97.9144 80.4054 96.0561 83.9341C95.1269 85.5809 93.0363 86.5219 91.178 86.0514C88.3905 85.3456 86.9968 82.5226 85.6031 80.1701C84.2094 78.0529 82.5834 75.7003 80.0282 74.9946C77.473 74.2888 74.4532 75.4651 73.7564 78.0529C73.2918 79.9349 74.221 82.0521 73.5241 83.6989C72.595 85.3456 70.5044 85.8161 68.646 85.1104C66.7877 84.4046 65.6263 83.2284 64.2326 82.0521C60.7483 78.9939 56.5671 76.6414 52.1536 75.4651C50.2953 74.9946 48.437 74.5241 46.5787 75.2298C44.7203 75.9356 43.3266 77.8176 43.7912 79.6996C44.2558 81.5816 46.5786 82.2874 48.2047 83.4636C49.8307 84.6399 50.7598 87.4629 48.9015 88.4039C48.437 88.6391 47.9724 88.6391 47.2755 88.6391C43.0943 88.1686 38.9132 86.5219 34.732 85.8161C30.5508 85.1104 25.6727 85.5809 22.8853 88.8744C22.4207 89.5801 21.7238 90.2859 21.7238 91.2269C21.4915 93.3442 23.5821 94.9909 25.4404 95.6967C27.531 96.4024 29.6216 96.1672 31.7122 97.1082C33.1059 97.5787 34.2674 99.2254 33.5705 100.402C33.106 101.107 32.4091 101.343 31.7122 101.813C28.9248 103.46 28.6925 107.93 30.7831 110.282C32.8737 112.635 36.8225 112.87 39.61 110.988C43.0943 108.635 45.4172 103.695 49.5984 103.93C50.063 103.93 50.2953 103.93 50.5275 104.166C51.2244 104.871 50.9921 105.812 50.7599 106.753C50.2953 109.341 51.4567 111.929 53.315 113.576C55.1733 115.222 57.9608 115.693 60.2837 114.752C62.6066 113.811 64.2326 111.694 65.8586 109.576C67.4846 107.459 68.8783 105.342 71.2012 103.93C73.5241 102.754 76.7761 102.989 78.1699 105.107C78.8667 106.283 78.8667 107.694 79.3313 108.871C80.4928 113.34 85.6031 116.869 89.7843 114.987C93.0363 113.576 94.8946 110.047 96.753 106.753C98.6113 103.695 101.631 100.402 105.115 100.872C109.529 101.578 112.549 107.93 116.962 106.753C118.82 106.283 120.214 104.401 121.608 102.989C123.002 101.578 125.092 100.166 126.95 101.343C129.041 102.519 129.041 106.283 131.364 106.753C132.758 106.518 134.151 104.636 135.545 103.46Z" fill="white"/>
</mask>
<g mask="url(#mask5_9002_17511)">
<g opacity="0.25">
<path d="M21.0266 114.988C20.7943 116.164 17.0777 115.458 19.8651 116.399C21.0266 116.87 21.9557 116.87 22.8849 116.87C24.7432 116.87 26.3692 117.105 27.9952 117.105C33.3378 117.105 38.6805 116.399 44.0231 115.223C55.173 112.87 66.5551 113.576 77.9372 113.576C83.9767 113.576 89.7839 112.635 95.8234 112.165C101.398 111.694 106.973 111.694 112.316 111.929C118.123 112.165 123.93 112.635 129.505 113.576C132.293 114.047 134.848 114.517 137.635 114.988C139.029 115.223 140.655 115.458 142.049 115.693C142.513 115.693 143.21 115.929 143.675 115.929C145.069 116.164 144.836 116.164 143.21 115.458C143.907 111.224 144.372 106.989 145.069 102.755C145.998 102.519 143.442 102.755 143.442 102.755C142.513 102.755 141.584 102.755 140.655 102.755C138.332 102.755 136.009 102.755 133.686 102.755C129.273 102.755 124.859 102.284 120.446 101.814C110.458 100.637 100.469 100.402 90.4808 101.108C81.6538 101.578 73.0591 102.284 63.9999 101.814C59.3541 101.578 54.9407 101.814 50.2949 102.049C47.972 102.284 45.6491 101.814 43.3263 101.814C40.3065 101.814 37.9836 102.755 35.4284 103.931C30.5504 106.048 29.8535 113.811 35.1962 115.929C37.7513 116.87 40.0742 117.34 42.8617 116.87C44.9523 116.399 47.0429 116.87 48.9012 117.105C53.5469 117.34 58.1927 116.634 62.8385 116.87C72.5946 117.34 82.1184 116.87 92.1068 116.164C101.631 115.458 110.922 116.164 120.446 117.105C125.789 117.575 131.131 117.811 136.474 117.811C141.352 117.811 145.533 118.516 150.411 116.87C155.289 115.223 156.915 107.224 152.269 104.166C147.391 100.873 140.655 100.637 135.08 99.4612C128.576 98.2849 122.072 97.5792 115.568 97.3439C108.832 97.1087 101.863 97.1087 95.1266 97.3439C88.6225 97.5792 82.1184 98.9907 75.8466 98.9907C62.3739 98.7554 49.3657 98.0497 36.3576 102.755C33.5701 103.696 30.5504 104.401 27.7629 105.578C27.0661 105.813 26.3692 106.048 25.6723 106.283C26.6015 106.048 26.6015 106.048 25.9046 106.283C24.9755 106.519 24.0463 106.754 23.1172 106.989C20.562 107.695 18.7037 108.401 17.5422 110.753C17.3099 111.224 17.3099 111.224 17.5422 110.753C17.3099 110.988 16.8454 111.224 16.6131 111.694C15.9162 112.4 15.6839 113.341 15.6839 114.282C15.2194 117.811 20.0974 118.516 21.0266 114.988Z" fill="#2D560A"/>
</g>
</g>
<g style="mix-blend-mode:soft-light" opacity="0.38">
<path d="M62.1416 87.6982C61.2124 85.8162 60.7479 83.9342 59.1219 82.2875C57.2636 80.6407 55.173 79.4645 52.8501 78.2882C49.8303 76.8767 47.7397 82.0522 50.7595 82.9932C52.6178 83.4637 54.2438 84.1695 55.8698 85.1105C57.4958 85.8162 59.8187 86.7572 60.9802 88.404C61.4447 88.8745 62.3739 88.404 62.1416 87.6982Z" fill="#37560B"/>
</g>
<g style="mix-blend-mode:soft-light" opacity="0.38">
<path d="M67.0192 100.168C63.7672 103.462 59.1214 105.814 56.1017 109.343C54.4757 111.225 56.7985 113.577 58.6568 113.107C63.7672 111.695 67.0192 106.049 68.413 101.109C68.8775 99.9327 67.7161 99.227 67.0192 100.168Z" fill="#37560B"/>
</g>
<g style="mix-blend-mode:soft-light" opacity="0.38">
<path d="M88.3897 89.5792C89.0866 87.2267 87.2283 85.3447 86.2992 83.4626C85.37 81.5806 83.744 77.5814 80.9565 78.2871C80.2597 78.5224 79.5628 79.2281 80.0274 80.1691C80.9565 81.8159 82.1179 83.4626 83.0471 85.3447C83.5117 86.2857 83.9763 86.9914 84.6731 87.4619C85.37 88.1677 86.5314 88.8734 86.7637 89.8144C86.996 90.5202 88.1574 90.2849 88.3897 89.5792Z" fill="#37560B"/>
</g>
<g style="mix-blend-mode:soft-light" opacity="0.38">
<path d="M93.7328 98.2851C92.3391 100.402 90.9453 102.52 88.8547 104.166C86.9964 105.578 85.1381 107.225 83.5121 108.871C81.6538 110.753 83.7444 114.047 86.0673 113.576C89.087 113.106 91.1776 110.753 93.0359 108.401C93.9651 107.225 94.662 105.813 95.1265 104.166C95.5911 102.755 95.5911 100.873 96.288 99.4613C97.2171 98.2851 94.8942 96.8736 93.7328 98.2851Z" fill="#37560B"/>
</g>
<g style="mix-blend-mode:soft-light" opacity="0.38">
<path d="M47.2753 90.2857C45.6493 87.9332 43.0941 87.2274 40.539 86.5217C38.2161 85.8159 34.7317 85.1102 33.1057 87.2274C32.8734 87.4627 32.8734 87.9332 33.338 88.1684C35.4286 89.1094 37.5192 89.3447 39.3775 90.2857C41.4681 91.2267 43.3264 93.1087 45.417 93.3439C47.043 93.3439 48.2045 91.6972 47.2753 90.2857Z" fill="#37560B"/>
</g>
<g style="mix-blend-mode:soft-light" opacity="0.38">
<path d="M107.206 91.2262C108.832 89.8146 109.297 88.1679 108.832 86.0506C108.6 84.4039 107.206 82.2866 105.348 82.2866C105.116 82.2866 104.883 82.5219 104.883 82.7571C104.883 85.3449 105.812 87.9326 105.812 90.7556C106.045 91.2261 106.742 91.4614 107.206 91.2262Z" fill="#37560B"/>
</g>
<g style="mix-blend-mode:soft-light" opacity="0.38">
<path d="M81.654 101.578C81.4217 102.048 80.9571 102.284 80.4925 102.989C79.5634 103.93 78.8665 105.577 79.5634 106.753C80.0279 107.694 80.9571 108.635 82.1186 108.4C83.5123 108.165 84.4414 107.224 84.906 105.812C85.1383 104.871 85.6029 103.93 85.6029 102.989C85.6029 102.048 85.3706 101.107 84.4414 100.872C83.28 99.9312 82.3508 100.402 81.654 101.578Z" fill="#37560B"/>
</g>
<g style="mix-blend-mode:soft-light" opacity="0.38">
<path d="M42.6289 99.46C41.2352 97.3427 37.9832 97.8132 35.8926 98.519C34.4989 98.9895 33.3374 99.9305 32.4083 101.107C31.0145 102.518 30.7822 104.165 30.7822 106.047C30.7822 108.164 32.6405 109.811 34.7311 110.046C36.5894 110.282 38.9123 109.341 39.6092 107.223C39.8415 106.518 40.0737 106.047 40.0737 105.341C39.6092 106.753 39.8415 105.812 40.0737 105.577C39.3769 106.753 40.0738 105.812 40.306 105.577C40.5383 105.341 40.7706 104.871 41.0029 104.636C42.1644 102.989 43.7904 101.342 42.6289 99.46Z" fill="#37560B"/>
</g>
<g style="mix-blend-mode:soft-light" opacity="0.25">
<path d="M55.6374 90.052C55.4051 89.5815 55.1728 88.8757 54.9405 88.4052C54.7082 87.9347 54.4759 87.229 54.2436 86.7585C54.0114 86.0527 53.7791 85.347 53.0822 85.1117C52.6176 84.8765 52.6176 84.8765 53.0822 85.1117C52.8499 85.1117 52.8499 84.8765 52.6176 84.8765C52.3853 84.8765 52.3854 84.8765 52.1531 84.8765C51.4562 85.1117 51.2239 85.8175 51.2239 86.288C50.9916 86.9937 51.4562 87.9347 51.9208 88.6405C52.1531 89.111 52.6176 90.052 53.0822 90.5225C53.7791 90.993 54.2437 91.2282 54.9405 91.4635C55.4051 91.4635 56.102 90.7577 55.6374 90.052Z" fill="#63B030"/>
</g>
<g style="mix-blend-mode:soft-light" opacity="0.25">
<path d="M60.7485 98.5185C56.1028 95.9307 51.2247 104.4 53.5476 107.929C54.2445 109.105 55.8705 109.105 56.7996 108.399C57.4965 107.929 57.9611 107.223 58.1934 106.517C58.6579 105.811 58.6579 104.87 58.8902 104.165C59.1225 103.459 59.5871 102.518 59.8194 101.812C60.0517 101.577 60.0517 101.577 60.284 101.341C59.5871 101.341 60.7485 100.871 60.284 101.341C61.6777 101.106 61.91 99.2242 60.7485 98.5185Z" fill="#63B030"/>
</g>
<g style="mix-blend-mode:soft-light" opacity="0.25">
<path d="M80.2599 76.408C77.9371 72.644 74.685 76.8785 74.2205 79.4663C73.5236 82.2893 74.9173 89.8173 78.8662 89.5821C79.0985 89.5821 79.3308 89.3468 79.3308 89.3468C80.0277 87.2296 77.9371 84.4065 77.7048 82.2893C77.4725 80.6425 77.9371 77.8195 80.0277 77.5843C80.26 77.1138 80.4922 76.6433 80.2599 76.408Z" fill="#63B030"/>
</g>
<g style="mix-blend-mode:soft-light" opacity="0.25">
<path d="M80.9565 108.87C81.4211 112.163 84.9055 114.751 88.1575 114.751C90.945 114.751 94.4293 112.163 94.4293 109.34C94.4293 109.105 94.4293 109.105 94.197 109.105C92.3387 109.105 91.4095 111.222 90.0158 112.163C87.4606 114.28 82.8148 110.987 80.9565 108.87Z" fill="#63B030"/>
</g>
<g style="mix-blend-mode:soft-light" opacity="0.25">
<path d="M43.0936 94.5216C42.8613 94.2863 42.8613 94.2864 42.629 94.0511C42.8613 94.5216 42.8613 94.7569 43.0936 95.2274C43.0936 93.3454 41.4676 92.1691 40.0738 90.9928C37.9832 89.1108 34.7312 87.9346 32.176 86.7583C26.6011 84.4058 22.8845 93.1101 28.4594 95.2274C31.2469 96.4036 34.2666 97.3446 37.5187 97.1094C38.6801 97.1094 40.0738 97.1094 41.2353 96.8741C41.6998 96.8741 41.9321 96.6389 42.3967 96.4036C42.629 96.4036 42.629 96.1684 42.8613 96.1684C43.0936 95.6979 43.0936 95.4626 43.0936 95.9331C43.5582 95.4626 43.5582 94.7568 43.0936 94.5216Z" fill="#63B030"/>
</g>
<g style="mix-blend-mode:soft-light" opacity="0.25">
<path d="M99.0754 90.9918C98.8431 89.3451 99.3076 87.2278 99.3076 85.581C99.3076 84.1695 99.3076 82.5228 99.3076 81.1113C99.3076 79.4645 99.54 77.8178 100.934 76.8768C101.398 76.6415 101.631 75.7005 101.398 75.23C101.166 74.5243 100.469 74.289 99.7722 74.5243C96.9848 75.4653 96.5202 79.2293 96.2879 81.817C96.0556 85.3458 95.8233 88.8746 98.3785 91.2271C98.6108 91.6976 99.3077 91.4623 99.0754 90.9918Z" fill="#63B030"/>
</g>
<g style="mix-blend-mode:soft-light" opacity="0.25">
<path d="M126.253 93.5795C126.485 93.3442 127.414 92.4032 126.253 93.5795C126.717 93.109 126.949 92.8737 127.182 92.6384C127.646 92.1679 128.111 90.7564 128.343 90.0507C128.808 87.9334 127.182 86.0514 125.323 85.8162C123.233 85.5809 121.375 86.9924 121.142 88.8744C120.445 91.9327 123.233 95.2262 126.253 93.5795Z" fill="#63B030"/>
</g>
<path d="M43.0938 111.932C37.9835 111.696 31.7117 113.814 27.7628 117.107C23.8139 120.401 20.7942 124.87 18.239 129.34C17.3098 131.222 16.3807 133.34 17.5421 135.222C18.239 136.398 19.6327 137.104 21.0265 137.104C23.5816 137.104 25.6722 135.692 27.7628 134.281C31.0149 132.163 33.57 128.634 38.2158 124.4C41.2356 121.577 44.7199 125.341 42.397 128.399C40.5387 130.752 38.4481 134.281 38.6804 136.398C38.6804 137.104 39.1449 137.809 39.6095 138.28C40.771 139.456 42.397 138.75 43.5584 138.28C46.8104 136.868 49.5979 134.751 51.9208 131.928C54.2437 129.105 56.7988 126.517 58.6572 123.459C61.6769 118.283 62.8383 117.342 66.3227 116.166C69.5747 114.99 70.5039 117.578 69.807 118.989C69.1101 120.636 68.181 122.283 67.4841 123.929C66.7872 125.341 67.9487 126.988 69.5747 126.752C71.8976 126.282 73.9882 124.87 75.6142 122.988C77.9371 120.401 79.5631 117.107 81.886 114.284C83.7443 112.167 86.0672 110.285 88.6224 109.814C90.0161 109.579 91.4098 110.755 91.1775 112.167C90.9452 113.814 90.4807 115.696 91.6421 116.872C92.1067 117.342 92.8035 117.578 93.5004 117.578C96.0556 117.813 98.1462 115.696 99.3076 113.578C100.469 111.461 100.934 109.109 102.095 106.991C104.65 102.051 110.225 99.2281 115.568 97.5814C130.667 92.8764 146.23 92.8764 161.561 89.8181C162.258 89.5829 164.116 89.3476 164.116 88.6418C164.116 87.9361 163.419 87.4656 162.722 86.9951C160.399 86.0541 155.521 86.7598 152.966 86.9951C139.029 87.9361 127.879 90.2886 114.406 93.3469C112.083 93.8174 107.902 94.0526 105.812 93.3469C104.418 92.8764 96.9847 87.9361 93.5004 87.2303C91.1775 86.7598 88.8546 86.2893 86.764 87.2303C85.6026 87.7008 84.4412 88.6419 84.2089 90.0534C83.0474 93.5821 87.4609 94.9936 86.5317 98.2871C86.0672 99.9339 84.6734 100.875 83.0474 101.11C79.7954 101.345 77.4725 98.9929 75.1496 97.1109C71.433 93.8174 66.0904 91.2296 61.6769 93.3469C60.98 93.8174 60.2832 94.2879 60.0509 95.2289C60.0509 95.6994 60.2832 96.1699 60.5155 96.6404C61.9092 98.9929 64.6967 99.6986 67.0195 101.11C69.3424 102.522 71.433 105.109 70.5039 107.697C66.555 108.638 63.0706 105.58 59.8186 103.463C54.476 100.169 47.7396 98.9929 41.4678 100.64C40.771 100.875 39.8418 101.11 39.6095 102.051C39.3772 102.757 39.8418 103.463 40.3064 103.698C41.2355 104.404 42.397 104.168 43.5584 104.168C47.7396 103.933 51.6885 104.639 55.4051 106.521C56.5666 107.227 57.9603 108.168 57.9603 109.814C57.9603 110.755 57.4957 111.696 56.7989 112.167C55.4051 113.343 53.5468 113.343 51.6885 113.108C48.2042 113.108 46.3459 112.167 43.0938 111.932Z" fill="#70AC48"/>
<g opacity="0.25">
<path d="M38.9121 119.695C42.6287 118.754 46.5776 119.224 50.2943 118.754C53.7786 118.283 57.0306 116.636 60.2827 115.225C67.9482 111.931 75.6137 108.638 83.7438 106.05C91.177 103.462 98.1456 99.9335 105.811 98.0515C113.477 96.1695 121.374 94.758 128.808 92.1702C129.04 92.1702 129.04 91.6997 128.808 91.6997C121.142 93.5817 113.477 95.2285 105.579 96.8752C97.9134 98.522 90.9447 102.521 83.5115 104.874C76.0783 107.462 69.1096 110.049 61.9087 113.343C58.1921 114.99 54.2432 116.872 50.2943 117.813C46.3454 118.518 42.6287 118.048 38.9121 119.695Z" fill="#BEF59A"/>
</g>
<mask id="mask6_9002_17511" style="mask-type:luminance" maskUnits="userSpaceOnUse" x="17" y="86" width="148" height="53">
<path d="M43.0937 111.933C37.9834 111.697 31.7116 113.815 27.7627 117.108C23.8138 120.402 20.794 124.871 18.2389 129.341C17.3097 131.223 16.3806 133.34 17.542 135.222C18.2389 136.399 19.6326 137.104 21.0263 137.104C23.5815 137.104 25.6721 135.693 27.7627 134.281C31.0147 132.164 33.5699 128.635 38.2157 124.401C41.2354 121.578 44.7197 125.342 42.3968 128.4C40.5385 130.753 38.448 134.281 38.6803 136.399C38.6803 137.104 39.1448 137.81 39.6094 138.281C40.7708 139.457 42.3968 138.751 43.5583 138.281C46.8103 136.869 49.5978 134.752 51.9207 131.929C54.2436 129.106 56.7987 126.518 58.657 123.46C61.6768 118.284 62.8382 117.343 66.3225 116.167C69.5746 114.991 70.5037 117.579 69.8069 118.99C69.11 120.637 68.1809 122.284 67.484 123.93C66.7871 125.342 67.9486 126.989 69.5746 126.753C71.8975 126.283 73.9881 124.871 75.6141 122.989C77.937 120.402 79.563 117.108 81.8859 114.285C83.7442 112.168 86.0671 110.286 88.6222 109.815C90.016 109.58 91.4097 110.756 91.1774 112.168C90.9451 113.815 90.4806 115.697 91.642 116.873C92.1066 117.343 92.8034 117.579 93.5003 117.579C96.0555 117.814 98.146 115.697 99.3075 113.579C100.469 111.462 100.934 109.11 102.095 106.992C104.65 102.052 110.225 99.2291 115.568 97.5824C130.666 92.8773 146.23 92.8773 161.561 89.8191C162.258 89.5838 164.116 89.3486 164.116 88.6428C164.116 87.9371 163.419 87.4666 162.722 86.9961C160.399 86.0551 155.521 86.7608 152.966 86.9961C139.029 87.9371 127.879 90.2896 114.406 93.3478C112.083 93.8183 107.902 94.0536 105.812 93.3478C104.418 92.8773 96.9846 87.9371 93.5003 87.2313C91.1774 86.7608 88.8545 86.2903 86.7639 87.2313C85.6025 87.7018 84.441 88.6428 84.2087 90.0543C83.0473 93.5831 87.4608 94.9946 86.5316 98.2881C86.067 99.9349 84.6733 100.876 83.0473 101.111C79.7953 101.346 77.4724 98.9939 75.1495 97.1119C71.4329 93.8183 66.0903 91.2306 61.6768 93.3478C60.9799 93.8183 60.2831 94.2889 60.0508 95.2299C60.0508 95.7004 60.2831 96.1709 60.5153 96.6414C61.9091 98.9939 64.6965 99.6996 67.0194 101.111C69.3423 102.523 71.4329 105.11 70.5037 107.698C66.5548 108.639 63.0705 105.581 59.8185 103.464C54.4758 100.17 47.7395 98.9939 41.4677 100.641C40.7708 100.876 39.8417 101.111 39.6094 102.052C39.3771 102.758 39.8417 103.464 40.3063 103.699C41.2354 104.405 42.3968 104.169 43.5583 104.169C47.7395 103.934 51.6884 104.64 55.405 106.522C56.5664 107.228 57.9602 108.169 57.9602 109.815C57.9602 110.756 57.4956 111.697 56.7987 112.168C55.405 113.344 53.5467 113.344 51.6884 113.109C48.2041 113.109 46.3458 112.168 43.0937 111.933Z" fill="white"/>
</mask>
<g mask="url(#mask6_9002_17511)">
<g opacity="0.25">
<path d="M15.2194 148.631C19.1683 148.866 23.1172 146.278 25.9047 143.926C29.389 141.103 33.3379 138.279 37.5191 137.103C43.094 135.692 49.1335 136.397 54.7084 135.456C60.7479 134.515 66.3228 131.222 71.6655 128.634C82.3507 123.459 93.5006 119.93 104.65 115.931C107.438 114.99 109.993 114.049 112.781 113.343C113.942 113.108 115.103 112.872 116.265 112.637C116.729 112.637 118.82 112.167 116.962 112.402C118.82 112.167 120.678 111.931 122.537 111.931C123.001 111.931 123.466 111.931 123.93 111.931C123.001 111.696 123.001 111.696 123.93 111.931C124.86 112.167 124.627 112.167 123.698 111.696C123.233 111.461 122.769 110.99 122.304 110.285C123.233 106.991 124.163 103.462 124.859 100.169C123.001 101.345 118.355 102.286 115.568 103.227C111.154 104.874 106.509 106.285 102.095 107.697C93.5006 110.52 85.1382 113.813 76.5435 116.636C68.1812 119.459 59.8188 121.812 51.4564 125.105C49.3658 125.811 47.5075 126.517 45.4169 127.458C44.2555 127.928 42.3972 128.634 41.7003 128.399C36.59 127.223 32.4088 126.282 28.4599 130.516C21.9558 137.574 32.4087 148.16 38.9128 141.103C34.9639 141.338 34.0348 141.808 36.1254 142.279C37.0545 142.514 37.7514 142.749 38.6805 142.985C41.2357 143.455 43.7909 143.22 46.5783 142.749C50.2949 142.044 54.0116 140.162 57.7282 138.75C66.0906 135.456 74.4529 133.339 82.8153 130.516C91.41 127.458 99.7724 124.4 108.599 121.577C112.78 120.165 116.729 118.989 120.911 117.577C124.627 116.166 129.041 115.46 132.525 113.343C136.009 111.226 137.171 106.756 135.08 103.227C129.97 94.5228 116.962 97.1106 108.599 98.9926C102.56 100.404 96.7526 102.757 90.9454 104.874C84.2091 107.226 77.705 109.814 71.2009 112.637C65.626 114.99 60.5156 118.048 54.7084 120.165C48.6689 122.282 42.1649 121.341 36.1254 122.518C30.0859 123.459 25.2078 127.223 20.7943 131.222C18.4715 133.339 16.8454 136.162 15.2194 138.75C14.058 140.632 14.5226 143.69 13.1288 145.102C12.432 146.278 13.3611 148.631 15.2194 148.631Z" fill="#2D560A"/>
</g>
</g>
<mask id="mask7_9002_17511" style="mask-type:luminance" maskUnits="userSpaceOnUse" x="17" y="86" width="148" height="53">
<path d="M43.0937 111.933C37.9834 111.697 31.7116 113.815 27.7627 117.108C23.8138 120.402 20.794 124.871 18.2389 129.341C17.3097 131.223 16.3806 133.34 17.542 135.222C18.2389 136.399 19.6326 137.104 21.0263 137.104C23.5815 137.104 25.6721 135.693 27.7627 134.281C31.0147 132.164 33.5699 128.635 38.2157 124.401C41.2354 121.578 44.7197 125.342 42.3968 128.4C40.5385 130.753 38.448 134.281 38.6803 136.399C38.6803 137.104 39.1448 137.81 39.6094 138.281C40.7708 139.457 42.3968 138.751 43.5583 138.281C46.8103 136.869 49.5978 134.752 51.9207 131.929C54.2436 129.106 56.7987 126.518 58.657 123.46C61.6768 118.284 62.8382 117.343 66.3225 116.167C69.5746 114.991 70.5037 117.579 69.8069 118.99C69.11 120.637 68.1809 122.284 67.484 123.93C66.7871 125.342 67.9486 126.989 69.5746 126.753C71.8975 126.283 73.9881 124.871 75.6141 122.989C77.937 120.402 79.563 117.108 81.8859 114.285C83.7442 112.168 86.0671 110.286 88.6222 109.815C90.016 109.58 91.4097 110.756 91.1774 112.168C90.9451 113.815 90.4806 115.697 91.642 116.873C92.1066 117.343 92.8034 117.579 93.5003 117.579C96.0555 117.814 98.146 115.697 99.3075 113.579C100.469 111.462 100.934 109.11 102.095 106.992C104.65 102.052 110.225 99.2291 115.568 97.5824C130.666 92.8773 146.23 92.8773 161.561 89.8191C162.258 89.5838 164.116 89.3486 164.116 88.6428C164.116 87.9371 163.419 87.4666 162.722 86.9961C160.399 86.0551 155.521 86.7608 152.966 86.9961C139.029 87.9371 127.879 90.2896 114.406 93.3478C112.083 93.8183 107.902 94.0536 105.812 93.3478C104.418 92.8773 96.9846 87.9371 93.5003 87.2313C91.1774 86.7608 88.8545 86.2903 86.7639 87.2313C85.6025 87.7018 84.441 88.6428 84.2087 90.0543C83.0473 93.5831 87.4608 94.9946 86.5316 98.2881C86.067 99.9349 84.6733 100.876 83.0473 101.111C79.7953 101.346 77.4724 98.9939 75.1495 97.1119C71.4329 93.8183 66.0903 91.2306 61.6768 93.3478C60.9799 93.8183 60.2831 94.2889 60.0508 95.2299C60.0508 95.7004 60.2831 96.1709 60.5153 96.6414C61.9091 98.9939 64.6965 99.6996 67.0194 101.111C69.3423 102.523 71.4329 105.11 70.5037 107.698C66.5548 108.639 63.0705 105.581 59.8185 103.464C54.4758 100.17 47.7395 98.9939 41.4677 100.641C40.7708 100.876 39.8417 101.111 39.6094 102.052C39.3771 102.758 39.8417 103.464 40.3063 103.699C41.2354 104.405 42.3968 104.169 43.5583 104.169C47.7395 103.934 51.6884 104.64 55.405 106.522C56.5664 107.228 57.9602 108.169 57.9602 109.815C57.9602 110.756 57.4956 111.697 56.7987 112.168C55.405 113.344 53.5467 113.344 51.6884 113.109C48.2041 113.109 46.3458 112.168 43.0937 111.933Z" fill="white"/>
</mask>
<g mask="url(#mask7_9002_17511)">
<g opacity="0.25">
<path d="M12.6639 132.635C14.5222 130.753 17.542 129.576 19.6326 128.165C22.6523 126.283 25.4398 124.636 28.2272 122.754C31.4793 120.402 34.2667 118.52 38.4479 117.814C43.0937 116.873 47.7395 116.402 52.153 114.991C60.9799 112.168 69.11 107.698 77.4724 103.934C85.3702 100.405 93.9649 98.9939 100.933 93.5831C106.044 89.5838 101.63 80.6443 95.8231 80.8796C92.5711 81.1148 89.5513 82.0558 86.5316 82.9968C83.2796 83.9378 80.0275 84.6436 76.7755 85.3493C70.0391 86.7608 63.0705 87.9371 56.3341 89.3486C49.3655 90.7601 43.326 93.1126 36.8219 95.9356C30.7824 98.5234 24.0461 99.6996 19.4003 104.64C15.2191 109.11 18.2388 115.932 24.0461 116.167C27.5304 116.402 29.3887 114.52 32.4084 113.344C35.4282 112.168 38.4479 111.227 41.4677 110.051C47.2749 107.698 52.8498 105.346 59.1216 103.934C65.6257 102.523 72.1297 101.582 78.4015 100.17C81.6535 99.4644 84.9056 98.7586 88.1576 98.0529C90.4805 97.3471 93.7325 95.9356 95.8231 95.9356C94.1971 91.7011 92.3388 87.4666 90.7128 83.2321C88.1576 85.1141 84.441 86.0551 81.189 86.9961C76.7755 88.4076 72.362 90.2896 68.1808 92.1716C60.0507 95.9356 52.1529 100.17 43.326 102.287C38.6802 103.464 34.0345 103.464 29.621 105.11C25.4398 106.757 22.1877 109.58 18.7034 112.168C12.8962 116.402 4.76612 123.695 8.25044 131.694C8.9473 133.34 11.2702 134.281 12.6639 132.635Z" fill="#63B030"/>
</g>
</g>
<g opacity="0.25">
<path d="M44.0224 116.166C40.5381 113.108 34.9631 115.461 31.7111 117.578C27.7622 120.166 22.6518 123.93 21.4904 128.87C20.7935 132.163 24.9747 135.222 27.2976 132.399C29.6205 129.576 31.4788 126.753 34.4985 124.635C36.1246 123.459 37.9829 122.048 39.6089 121.107C41.2349 120.166 42.6287 119.695 44.0224 118.284C44.487 117.578 44.487 116.637 44.0224 116.166Z" fill="#619B20"/>
</g>
<g opacity="0.25">
<path d="M36.358 115.696C31.9445 115.225 27.531 118.283 24.279 121.106C20.7947 124.165 16.8457 129.575 17.5426 134.516C18.0072 137.104 21.2592 137.339 22.8853 135.927C25.6727 133.575 27.0664 129.105 28.9247 126.047C30.7831 123.224 33.5705 119.46 36.8225 117.813C38.2163 117.578 37.2871 115.931 36.358 115.696Z" fill="#619B20"/>
</g>
<g opacity="0.38">
<path d="M54.244 122.047C51.6888 123.694 49.3659 125.34 47.2753 127.458C45.417 129.104 40.7713 132.398 43.5587 135.221C46.1139 137.809 49.5982 134.986 51.4565 132.868C52.3857 131.692 53.3148 130.516 54.0117 129.104C54.7086 127.693 55.4054 126.046 56.3346 124.399C57.496 122.988 55.6377 121.341 54.244 122.047Z" fill="#558912"/>
</g>
<g style="mix-blend-mode:soft-light" opacity="0.38">
<path d="M60.2831 107.933C57.2633 102.051 49.3655 99.6989 42.8614 100.875C42.3969 100.875 41.7 101.581 41.7 102.051C41.0031 105.345 45.6489 103.933 47.5072 104.169C51.9207 104.404 55.6373 106.992 59.5862 108.638C60.2831 108.874 60.5154 108.403 60.2831 107.933Z" fill="#558912"/>
</g>
<g opacity="0.38">
<path d="M78.8654 110.991C77.4716 112.402 75.8456 113.814 74.2196 114.99C72.5936 116.402 70.7352 117.813 70.9675 120.166C70.9675 121.577 71.8967 122.518 73.2904 122.518C75.6133 122.518 77.007 120.636 78.1685 118.989C79.5622 117.107 80.4913 115.225 81.4205 113.108C82.3497 111.226 80.2591 109.344 78.8654 110.991Z" fill="#558912"/>
</g>
<g style="mix-blend-mode:soft-light" opacity="0.38">
<path d="M76.0786 101.816C75.8463 100.875 75.614 100.17 75.1494 99.2287C74.4526 98.2876 73.5234 97.5819 72.5942 96.8761C70.5036 95.4646 68.1808 94.0531 65.6256 93.8179C63.535 93.5826 63.0704 97.1114 65.161 97.5819C67.0193 97.8172 68.6453 98.7582 70.2713 99.6992C70.9682 100.17 71.8974 100.64 72.5942 101.111C73.2911 101.581 73.7557 102.287 74.4525 102.993C75.1494 103.698 76.3108 102.757 76.0786 101.816Z" fill="#558912"/>
</g>
<g style="mix-blend-mode:soft-light" opacity="0.38">
<path d="M101.862 95.4632C102.791 92.8754 101.165 90.7582 98.8424 89.5819C96.5195 88.4057 93.0352 86.9942 90.4801 88.4057C88.6218 89.5819 89.0863 91.6992 90.4801 92.8754C91.4092 93.5812 92.5707 93.8164 93.9644 94.0517C95.1258 94.287 96.055 94.7575 97.2164 95.228C98.3779 95.6985 101.165 97.5805 101.862 95.4632Z" fill="#558912"/>
</g>
<g opacity="0.38">
<path d="M98.1462 104.874C97.4493 106.285 96.0556 107.226 95.1265 108.638C94.1973 110.049 92.5713 111.225 92.339 112.872C92.1067 115.225 93.7327 117.342 96.0556 116.636C98.6108 115.93 99.5399 113.578 100.237 111.461C100.934 109.579 100.469 107.697 100.469 105.579C100.701 104.168 98.843 103.697 98.1462 104.874Z" fill="#558912"/>
</g>
<g opacity="0.37">
<path d="M78.8667 114.519C77.7053 116.401 76.3115 118.048 74.6855 119.46C73.5241 120.401 71.2012 121.577 71.2012 123.224C71.2012 123.459 71.4335 123.694 71.6657 123.694C73.2918 123.694 74.9178 121.812 76.0792 120.871C77.9375 119.46 78.8667 117.107 80.0281 115.225C80.4927 114.284 79.3313 113.814 78.8667 114.519Z" fill="#357A06"/>
</g>
<g opacity="0.37">
<path d="M57.0307 121.342C55.637 123.459 54.011 125.341 52.1526 126.988C50.5266 128.635 48.9006 130.046 47.9715 132.163C47.7392 132.634 48.2037 133.104 48.6683 133.104C51.2235 132.634 53.3141 130.752 54.9401 128.87C56.7984 126.988 58.1921 124.871 59.1213 122.283C59.8182 120.871 57.7275 120.166 57.0307 121.342Z" fill="#357A06"/>
</g>
<g style="mix-blend-mode:soft-light" opacity="0.37">
<path d="M38.2157 120.635C34.9637 118.989 31.7116 120.635 28.9242 122.517C25.4399 124.635 21.2587 126.987 20.7941 131.457C20.5618 133.339 23.117 134.75 24.743 133.809C27.0659 132.163 28.9242 130.045 31.4794 128.163C33.8022 126.517 35.8928 124.399 38.448 122.988C38.9126 122.517 38.9126 121.106 38.2157 120.635Z" fill="#357A06"/>
</g>
<g style="mix-blend-mode:soft-light" opacity="0.37">
<path d="M86.7639 95.9359C86.7639 96.1711 86.7639 96.4064 86.5316 96.8769C86.5316 97.1121 86.067 97.8179 86.2993 97.5826C86.067 98.0531 86.067 98.5236 85.8347 98.9941C85.6025 99.6999 86.067 98.5236 85.8347 99.2294C85.6025 99.6999 85.6024 99.6999 85.6024 100.17C85.1379 102.288 87.2285 103.699 88.8545 102.758C90.4805 102.052 90.7128 99.9351 90.4805 98.5236C90.2482 97.5826 89.5514 96.4064 88.6222 95.7006C88.1576 94.7596 86.9962 94.9949 86.7639 95.9359Z" fill="#357A06"/>
</g>
<path d="M71.6659 130.986C68.8784 128.398 64.465 129.339 60.9806 130.515C59.5869 130.986 57.7286 131.221 57.0317 129.809C60.2838 126.751 65.8587 128.398 69.8076 126.045C73.7565 123.693 74.9179 118.282 78.4023 115.694C79.3314 114.989 80.4929 114.518 81.6543 114.989C83.2803 115.694 83.048 118.047 84.2095 119.458C85.8355 121.34 89.0875 120.399 90.7135 118.517C92.3396 116.635 92.5718 113.812 93.501 111.695C94.1979 110.048 95.127 108.637 96.0562 107.225C97.6822 105.343 100.702 103.697 102.793 105.343C105.348 107.461 103.025 111.93 104.651 114.989C105.348 116.4 107.206 117.106 108.832 116.871C111.155 116.4 112.316 113.812 113.478 111.93C114.639 110.048 116.033 108.402 118.124 107.696C120.214 106.99 122.769 108.166 123.234 110.048C123.698 111.695 122.769 113.342 123.466 114.753C124.163 116.165 126.021 116.4 127.415 115.93C128.809 115.459 129.97 114.283 131.132 113.342C134.151 110.754 137.403 108.872 141.12 107.931C142.514 107.461 144.14 107.225 145.766 107.696C147.16 108.166 148.553 109.813 148.089 111.225C147.624 112.871 145.766 113.342 144.372 114.518C142.978 115.459 142.282 117.812 143.675 118.517C144.14 118.753 144.604 118.753 145.069 118.517C148.553 118.282 151.805 116.635 155.29 116.165C158.774 115.459 162.723 115.93 165.046 118.517C165.51 118.988 165.975 119.694 165.975 120.399C166.207 122.281 164.581 123.693 162.723 124.163C161.097 124.634 159.239 124.634 157.613 125.34C156.451 125.81 155.522 126.986 155.987 128.163C156.219 128.633 156.916 128.868 157.613 129.339C159.935 130.75 160.168 134.279 158.309 136.396C156.451 138.278 153.199 138.514 150.876 137.102C147.856 135.22 145.998 130.986 142.746 131.221C142.514 131.221 142.049 131.221 141.817 131.456C141.12 131.927 141.352 132.868 141.585 133.573C141.817 135.691 141.12 137.808 139.494 139.219C137.868 140.631 135.545 140.866 133.687 140.16C131.596 139.455 130.435 137.573 129.041 135.926C127.88 134.279 126.486 132.397 124.628 131.221C122.769 130.28 119.982 130.515 118.82 132.162C118.124 133.103 118.124 134.279 117.891 135.455C116.962 139.219 112.781 142.042 109.064 140.631C106.277 139.455 104.883 136.396 103.257 133.809C101.631 131.221 99.3082 128.398 96.2885 128.868C92.5719 129.339 90.0167 134.75 86.3001 133.809C84.6741 133.338 83.7449 131.927 82.5835 130.515C81.422 129.339 79.5637 128.163 78.17 129.104C76.544 130.045 76.544 133.338 74.4534 133.573C73.7565 133.338 72.8274 131.927 71.6659 130.986Z" fill="#248531"/>
<g opacity="0.25">
<path d="M138.564 124.399C132.989 123.928 127.414 123.458 121.84 122.752C116.497 122.046 111.154 122.517 105.812 122.752C95.1264 123.222 84.6734 123.458 74.2204 126.516C74.2204 126.516 73.9881 126.516 74.2204 126.281C78.1693 123.458 84.2088 123.222 88.8546 122.517C93.9649 121.811 99.0753 121.576 104.418 121.576C109.761 121.576 115.103 120.87 120.446 121.34C126.485 122.046 132.525 122.987 138.564 124.399Z" fill="#D9FFDE"/>
</g>
<mask id="mask8_9002_17511" style="mask-type:luminance" maskUnits="userSpaceOnUse" x="56" y="104" width="110" height="38">
<path d="M71.4331 130.987C68.6457 128.399 64.2322 129.34 60.7479 130.516C59.3542 130.987 57.4959 131.222 56.799 129.81C60.051 126.752 65.626 128.399 69.5749 126.046C73.5238 123.694 74.6852 118.283 78.1695 115.695C79.0987 114.99 80.2601 114.519 81.4216 114.99C83.0476 115.695 82.8153 118.048 83.9767 119.459C85.6028 121.341 88.8548 120.4 90.4808 118.518C92.1068 116.636 92.3391 113.813 93.2683 111.696C93.9651 110.049 94.8943 108.638 95.8234 107.226C97.4494 105.344 100.469 103.698 102.56 105.344C105.115 107.462 102.792 111.931 104.418 114.99C105.115 116.401 106.973 117.107 108.599 116.872C110.922 116.401 112.084 113.813 113.245 111.931C114.406 110.049 115.8 108.403 117.891 107.697C119.981 106.991 122.537 108.167 123.001 110.049C123.466 111.696 122.537 113.343 123.233 114.754C123.93 116.166 125.789 116.401 127.182 115.931C128.576 115.46 129.738 114.284 130.899 113.343C133.919 110.755 137.171 108.873 140.887 107.932C142.281 107.462 143.907 107.226 145.533 107.697C146.927 108.167 148.321 109.814 147.856 111.226C147.391 112.872 145.533 113.578 144.139 114.519C142.746 115.46 142.049 117.813 143.443 118.518C143.907 118.754 144.372 118.754 144.836 118.518C148.321 118.283 151.573 116.636 155.057 116.166C158.541 115.46 162.49 115.931 164.813 118.518C165.278 118.989 165.742 119.695 165.742 120.4C165.975 122.282 164.349 123.694 162.49 124.164C160.864 124.635 159.006 124.635 157.38 125.341C156.218 125.811 155.289 126.987 155.754 128.164C155.986 128.634 156.683 128.869 157.38 129.34C159.703 130.751 159.935 134.28 158.077 136.397C156.218 138.279 152.966 138.515 150.643 137.103C147.624 135.221 145.765 130.987 142.513 131.222C142.281 131.222 141.817 131.222 141.584 131.457C140.887 131.928 141.12 132.869 141.352 133.574C141.584 135.692 140.887 137.809 139.261 139.22C137.635 140.632 135.312 140.867 133.454 140.161C131.364 139.456 130.202 137.574 128.808 135.927C127.647 134.28 126.253 132.398 124.395 131.222C122.537 130.281 119.749 130.516 118.588 132.163C117.891 133.104 117.891 134.28 117.659 135.456C116.729 139.22 112.548 142.043 108.832 140.632C106.044 139.456 104.65 136.397 103.024 133.81C101.398 131.222 99.0755 128.399 96.0557 128.869C92.3391 129.34 89.7839 134.751 86.0673 133.81C84.4413 133.339 83.5122 131.928 82.3507 130.516C81.1893 129.34 79.331 128.164 77.9372 129.105C76.3112 130.046 76.3112 133.339 74.2206 133.574C73.5238 133.339 72.5946 131.928 71.4331 130.987Z" fill="white"/>
</mask>
<g mask="url(#mask8_9002_17511)">
<g opacity="0.25">
<path d="M166.208 127.694C165.743 127.223 162.956 127.223 162.259 126.988C160.168 126.518 158.31 126.047 156.219 125.577C152.038 124.636 147.857 123.695 143.676 122.518C134.849 120.401 126.022 118.99 116.962 118.519C107.903 118.049 98.844 119.46 90.017 120.872C85.3712 121.577 80.9578 122.518 76.312 123.224C71.8985 123.93 67.4851 124.871 63.0716 124.4C59.1227 123.93 56.5675 119.695 58.1935 115.931C59.5872 112.167 63.3039 110.285 66.7882 109.109C70.5048 107.698 74.4537 106.521 78.1703 104.875C88.1587 100.64 98.844 99.4638 109.762 98.9933C115.104 98.7581 120.447 99.2286 125.789 99.4638C131.132 99.9343 136.242 100.17 141.353 101.346C146.463 102.522 151.573 103.698 156.451 105.816C161.33 107.933 167.601 110.285 169.692 115.696C170.389 117.578 169.692 119.931 167.834 120.872C162.956 122.989 158.31 119.931 153.896 118.049C149.715 116.167 145.534 114.755 141.12 113.814C132.061 111.697 122.305 110.991 113.014 110.991C108.368 110.991 103.954 111.697 99.3085 112.167C94.6628 112.638 90.2493 113.344 86.0681 114.99C82.3515 116.402 78.6349 118.284 74.686 119.46C73.5246 119.931 72.1308 120.166 70.9694 120.636C70.2725 120.872 69.5757 121.107 68.8788 121.577C69.5757 121.107 69.5757 121.107 68.8788 121.577C69.3434 121.342 69.5756 120.872 69.8079 120.401C68.1819 117.578 66.5559 114.755 64.9299 111.932C68.6465 112.403 73.06 110.991 76.7766 110.285C81.6546 109.344 86.5327 108.639 91.4108 107.698C101.399 106.051 111.62 105.345 121.608 106.051C131.132 106.757 140.424 108.639 149.483 110.991C153.896 112.167 158.31 113.814 162.491 116.167C165.743 118.049 169.924 120.401 171.318 124.165C172.247 127.694 168.298 130.046 166.208 127.694Z" fill="#5CBA69"/>
</g>
</g>
<mask id="mask9_9002_17511" style="mask-type:luminance" maskUnits="userSpaceOnUse" x="56" y="104" width="110" height="38">
<path d="M71.4331 130.987C68.6457 128.399 64.2322 129.34 60.7479 130.516C59.3542 130.987 57.4959 131.222 56.799 129.81C60.051 126.752 65.626 128.399 69.5749 126.046C73.5238 123.694 74.6852 118.283 78.1695 115.695C79.0987 114.99 80.2601 114.519 81.4216 114.99C83.0476 115.695 82.8153 118.048 83.9767 119.459C85.6028 121.341 88.8548 120.4 90.4808 118.518C92.1068 116.636 92.3391 113.813 93.2683 111.696C93.9651 110.049 94.8943 108.638 95.8234 107.226C97.4494 105.344 100.469 103.698 102.56 105.344C105.115 107.462 102.792 111.931 104.418 114.99C105.115 116.401 106.973 117.107 108.599 116.872C110.922 116.401 112.084 113.813 113.245 111.931C114.406 110.049 115.8 108.403 117.891 107.697C119.981 106.991 122.537 108.167 123.001 110.049C123.466 111.696 122.537 113.343 123.233 114.754C123.93 116.166 125.789 116.401 127.182 115.931C128.576 115.46 129.738 114.284 130.899 113.343C133.919 110.755 137.171 108.873 140.887 107.932C142.281 107.462 143.907 107.226 145.533 107.697C146.927 108.167 148.321 109.814 147.856 111.226C147.391 112.872 145.533 113.578 144.139 114.519C142.746 115.46 142.049 117.813 143.443 118.518C143.907 118.754 144.372 118.754 144.836 118.518C148.321 118.283 151.573 116.636 155.057 116.166C158.541 115.46 162.49 115.931 164.813 118.518C165.278 118.989 165.742 119.695 165.742 120.4C165.975 122.282 164.349 123.694 162.49 124.164C160.864 124.635 159.006 124.635 157.38 125.341C156.218 125.811 155.289 126.987 155.754 128.164C155.986 128.634 156.683 128.869 157.38 129.34C159.703 130.751 159.935 134.28 158.077 136.397C156.218 138.279 152.966 138.515 150.643 137.103C147.624 135.221 145.765 130.987 142.513 131.222C142.281 131.222 141.817 131.222 141.584 131.457C140.887 131.928 141.12 132.869 141.352 133.574C141.584 135.692 140.887 137.809 139.261 139.22C137.635 140.632 135.312 140.867 133.454 140.161C131.364 139.456 130.202 137.574 128.808 135.927C127.647 134.28 126.253 132.398 124.395 131.222C122.537 130.281 119.749 130.516 118.588 132.163C117.891 133.104 117.891 134.28 117.659 135.456C116.729 139.22 112.548 142.043 108.832 140.632C106.044 139.456 104.65 136.397 103.024 133.81C101.398 131.222 99.0755 128.399 96.0557 128.869C92.3391 129.34 89.7839 134.751 86.0673 133.81C84.4413 133.339 83.5122 131.928 82.3507 130.516C81.1893 129.34 79.331 128.164 77.9372 129.105C76.3112 130.046 76.3112 133.339 74.2206 133.574C73.5238 133.339 72.5946 131.928 71.4331 130.987Z" fill="white"/>
</mask>
<g mask="url(#mask9_9002_17511)">
<g opacity="0.25">
<path d="M166.208 140.396C166.44 141.337 169.46 140.867 167.137 141.573C166.208 141.808 165.511 142.043 164.582 142.043C163.188 142.043 161.795 142.278 160.169 142.278C155.755 142.278 151.109 141.808 146.928 140.867C137.637 138.985 128.345 139.691 118.821 139.455C113.943 139.455 109.065 138.514 103.955 138.279C99.309 138.044 94.8955 138.044 90.2498 138.044C85.3717 138.279 80.726 138.75 75.8479 139.455C73.525 139.691 71.4344 140.161 69.1115 140.632C67.9501 140.867 66.7887 141.102 65.3949 141.337C64.9304 141.337 64.4658 141.573 64.0012 141.573C62.8397 141.808 63.072 141.808 64.4658 141.102C64.0012 137.573 63.3043 134.044 62.8397 130.516C62.1429 130.28 64.2335 130.516 64.0012 130.516C64.6981 130.516 65.6272 130.516 66.3241 130.516C68.1824 130.516 70.273 130.516 72.1313 130.516C75.8479 130.516 79.5645 130.045 83.0488 129.81C91.4112 128.869 99.5413 128.634 107.904 129.104C115.337 129.575 122.306 130.045 129.739 129.81C133.688 129.575 137.404 129.81 141.121 130.045C142.979 130.045 144.838 129.81 146.928 129.81C149.251 129.81 151.342 130.516 153.432 131.457C157.381 133.103 158.078 139.691 153.664 141.337C151.574 142.278 149.716 142.514 147.393 142.043C145.767 141.808 143.908 142.043 142.282 142.278C138.333 142.514 134.617 141.808 130.668 142.043C122.538 142.514 114.64 142.043 106.51 141.337C98.6122 140.867 90.9466 141.337 83.0488 142.278C78.6353 142.749 74.2219 142.984 69.8084 142.984C65.6272 142.984 62.1429 143.455 58.194 142.043C54.0128 140.632 52.8514 134.044 56.568 131.457C60.5169 128.634 66.3241 128.634 70.9698 127.693C76.3125 126.752 81.8874 126.046 87.23 125.811C92.8049 125.575 98.6122 125.575 104.187 125.811C109.53 126.046 114.872 127.222 120.215 127.222C131.365 126.987 142.282 126.516 152.968 130.28C155.291 131.221 157.846 131.692 160.169 132.633C160.865 132.868 161.33 133.103 162.027 133.103C161.33 132.868 161.33 132.868 161.795 133.103C162.491 133.339 163.421 133.574 164.117 133.574C166.208 134.044 167.834 134.75 168.763 136.632C168.996 136.867 168.996 137.103 168.763 136.632C168.996 136.867 169.228 137.103 169.46 137.338C169.925 137.809 170.157 138.75 170.389 139.455C171.086 142.749 167.137 143.455 166.208 140.396Z" fill="#216126"/>
</g>
</g>
<g style="mix-blend-mode:soft-light" opacity="0.38">
<path d="M132.292 117.811C133.221 116.164 133.454 114.753 134.847 113.341C136.241 111.93 138.1 110.989 139.958 110.048C142.513 108.871 144.139 113.106 141.584 114.047C140.19 114.517 138.796 114.988 137.403 115.694C136.009 116.399 134.151 117.105 133.221 118.281C132.989 118.987 132.06 118.517 132.292 117.811Z" fill="#256122"/>
</g>
<g style="mix-blend-mode:soft-light" opacity="0.38">
<path d="M128.112 128.162C130.899 130.985 134.616 132.867 137.171 135.925C138.565 137.572 136.707 139.454 134.848 138.983C130.435 137.807 128.112 133.102 126.718 129.103C126.718 128.162 127.415 127.456 128.112 128.162Z" fill="#256122"/>
</g>
<g style="mix-blend-mode:soft-light" opacity="0.38">
<path d="M110.458 119.225C109.993 117.343 111.387 115.696 112.316 114.049C113.013 112.403 114.406 109.344 116.729 109.815C117.426 110.05 117.891 110.52 117.658 111.226C116.962 112.638 116.032 114.049 115.103 115.461C114.639 116.167 114.174 116.637 113.71 117.343C113.245 117.813 112.316 118.519 111.851 119.225C111.619 120.166 110.69 120.166 110.458 119.225Z" fill="#256122"/>
</g>
<g style="mix-blend-mode:soft-light" opacity="0.38">
<path d="M106.045 126.517C107.206 128.399 108.367 130.046 109.993 131.457C111.619 132.634 113.013 134.045 114.407 135.457C115.801 137.103 114.175 139.691 112.316 139.456C109.761 138.985 108.135 137.103 106.509 135.221C105.812 134.28 105.115 133.104 104.651 131.693C104.186 130.516 104.419 129.105 103.722 127.929C103.025 126.752 105.115 125.341 106.045 126.517Z" fill="#256122"/>
</g>
<g style="mix-blend-mode:soft-light" opacity="0.38">
<path d="M144.605 120.166C145.999 118.284 148.089 117.578 150.18 116.873C152.038 116.402 154.826 115.696 156.452 117.578C156.684 117.814 156.452 118.284 156.219 118.284C154.593 118.99 152.735 119.225 151.109 119.931C149.483 120.637 147.857 122.283 145.999 122.283C144.605 122.519 143.676 121.107 144.605 120.166Z" fill="#256122"/>
</g>
<g style="mix-blend-mode:soft-light" opacity="0.38">
<path d="M94.8946 120.869C93.5009 119.693 93.0363 118.282 93.5009 116.635C93.7332 115.223 94.8946 113.577 96.2884 113.577C96.5207 113.577 96.7529 113.812 96.7529 114.047C96.7529 116.164 95.8238 118.517 95.8238 120.634C95.8238 120.869 95.1269 121.105 94.8946 120.869Z" fill="#256122"/>
</g>
<g style="mix-blend-mode:soft-light" opacity="0.38">
<path d="M116.033 129.339C116.265 129.81 116.73 130.045 116.962 130.515C117.659 131.221 118.123 132.633 117.659 133.574C117.194 134.279 116.497 134.985 115.568 134.985C114.407 134.75 113.71 134.044 113.245 132.868C113.013 132.162 112.781 131.221 112.781 130.515C112.781 129.81 113.013 129.104 113.71 128.633C114.639 127.928 115.568 128.398 116.033 129.339Z" fill="#256122"/>
</g>
<g style="mix-blend-mode:soft-light" opacity="0.38">
<path d="M148.321 127.693C149.483 125.811 152.27 126.282 153.896 126.752C155.057 126.988 155.987 127.929 156.916 128.87C158.077 130.046 158.309 131.457 158.309 132.869C158.309 134.516 156.683 135.927 155.057 136.162C153.431 136.398 151.573 135.457 150.876 133.81C150.644 133.339 150.644 132.869 150.412 132.398C150.644 132.869 150.644 133.575 150.412 132.398C150.876 133.339 150.412 132.634 150.179 132.398C149.947 132.163 149.947 131.928 149.715 131.693C148.786 130.516 147.392 129.105 148.321 127.693Z" fill="#256122"/>
</g>
<g opacity="0.25">
<path d="M137.635 119.931C137.868 119.46 138.1 118.99 138.332 118.519C138.565 118.049 138.797 117.578 139.029 117.108C139.261 116.637 139.494 115.931 139.958 115.696C140.423 115.461 140.423 115.461 139.958 115.696C139.958 115.696 140.191 115.461 140.423 115.461C140.655 115.461 140.655 115.461 140.887 115.461C141.352 115.696 141.584 116.167 141.817 116.637C142.049 117.343 141.584 118.049 141.352 118.519C141.12 118.99 140.887 119.695 140.423 119.931C139.958 120.166 139.494 120.401 138.797 120.636C137.868 121.107 137.403 120.401 137.635 119.931Z" fill="#5CBA69"/>
</g>
<g style="mix-blend-mode:soft-light" opacity="0.25">
<path d="M133.454 126.988C137.171 124.871 141.352 131.928 139.493 134.986C139.029 135.927 137.635 135.927 136.706 135.457C136.009 134.986 135.777 134.516 135.545 133.81C135.312 133.34 135.08 132.399 134.848 131.693C134.615 130.987 134.383 130.517 133.919 129.811C133.919 129.576 133.919 129.576 133.686 129.34C133.454 128.87 134.383 129.34 133.686 129.34C132.525 129.105 132.525 127.458 133.454 126.988Z" fill="#5CBA69"/>
</g>
<g opacity="0.25">
<path d="M117.193 108.403C119.052 105.344 121.839 108.638 122.304 110.99C122.768 113.343 121.607 119.459 118.355 119.224C118.123 119.224 118.123 118.989 117.89 118.989C117.193 117.107 119.052 114.99 119.284 113.108C119.516 111.696 119.052 109.344 117.426 109.108C117.193 109.108 116.961 108.873 117.193 108.403Z" fill="#5CBA69"/>
</g>
<g opacity="0.25">
<path d="M116.729 135.456C116.497 138.279 113.477 140.396 110.69 140.396C108.367 140.396 105.579 138.279 105.347 135.927C105.347 135.691 105.347 135.691 105.579 135.691C106.973 135.691 107.902 137.338 109.064 138.279C111.154 139.926 115.103 137.338 116.729 135.456Z" fill="#5CBA69"/>
</g>
<g style="mix-blend-mode:soft-light" opacity="0.25">
<path d="M147.856 123.456C148.089 123.221 148.088 123.221 148.321 122.986C148.321 123.221 148.088 123.692 148.088 123.927C148.088 122.28 149.482 121.339 150.644 120.398C152.27 118.987 155.057 117.81 157.148 116.869C161.794 114.987 164.813 122.045 160.168 123.927C157.845 124.868 155.289 125.574 152.734 125.574C151.805 125.574 150.644 125.574 149.715 125.338C149.482 125.338 149.018 125.103 148.785 125.103L148.553 124.868C148.321 124.397 148.321 124.397 148.321 124.633C147.624 124.397 147.624 123.692 147.856 123.456Z" fill="#5CBA69"/>
</g>
<g style="mix-blend-mode:soft-light" opacity="0.25">
<path d="M101.631 120.634C101.863 119.223 101.398 117.576 101.398 116.164C101.398 114.988 101.398 113.577 101.398 112.4C101.398 110.989 101.166 109.577 100.005 108.872C99.54 108.636 99.54 107.931 99.54 107.46C99.7723 106.754 100.469 106.754 100.934 106.754C103.257 107.46 103.721 110.754 103.721 112.871C103.954 115.694 104.186 118.752 101.863 120.634C101.863 121.34 101.398 120.869 101.631 120.634Z" fill="#5CBA69"/>
</g>
<g style="mix-blend-mode:soft-light" opacity="0.25">
<path d="M79.0988 122.752C78.1697 121.811 78.8666 122.517 79.0988 122.752C78.6343 122.282 78.402 122.282 78.1697 122.047C77.7051 121.576 77.2405 120.635 77.2405 119.929C77.0082 118.283 78.1697 116.636 79.7957 116.401C81.4217 116.165 83.0478 117.342 83.28 118.988C83.7446 121.341 81.654 124.164 79.0988 122.752Z" fill="#5CBA69"/>
</g>
</svg>
