<svg width="200" height="200" viewBox="0 0 200 200" fill="none" xmlns="http://www.w3.org/2000/svg">
<path d="M148.471 105.548C146.871 98.6139 143.492 91.8572 139.58 85.9895C135.846 80.2997 131.223 74.9654 125.888 70.8759C121.976 67.8531 117.886 65.8972 113.263 64.4748C111.485 63.7636 109.707 63.2301 107.75 63.0523H107.573C105.972 62.8745 104.372 62.6967 102.949 62.5189C99.3929 62.1633 95.8364 62.3411 92.4578 63.2301V63.0523C85.7006 64.4748 79.8326 66.7863 74.3201 71.0536C68.8077 75.1432 64.3621 80.4774 60.6279 86.1673C56.7158 92.2127 53.3372 98.7916 51.7368 105.726C49.4251 115.506 49.603 125.641 51.2033 135.42C52.9816 146.444 56.0044 156.579 63.1173 165.114C68.8076 172.048 76.8095 177.738 85.3449 180.761C94.5916 184.139 106.506 183.428 115.752 180.405C125.888 177.027 134.957 169.559 140.647 160.491C142.248 158.002 143.67 155.157 144.737 152.49C146.16 148.756 147.227 144.844 147.938 140.932C148.649 137.376 149.005 133.82 149.361 130.086C150.25 121.729 150.428 113.728 148.471 105.548Z" fill="#A96407"/>
<path d="M147.404 131.508C146.337 138.976 145.271 146.622 142.425 153.556C139.936 159.602 136.024 164.58 131.045 168.67C120.731 177.56 108.639 183.25 94.7693 181.294C90.5016 180.583 86.2339 179.516 82.144 177.738C77.3428 175.427 73.0751 172.226 69.163 168.848C56.5377 158.002 52.8035 140.754 51.9143 124.752C51.5587 119.417 51.5587 113.55 52.6257 108.393C53.8704 101.103 57.0712 94.5242 60.8054 88.1231C64.0062 82.6111 68.0961 77.4547 72.8972 73.1873C78.0541 68.0309 85.1669 65.8972 92.2798 64.2969C96.1919 63.4079 99.9261 62.8744 103.838 63.23C115.574 64.4747 125.71 70.3423 133.356 79.2327C135.668 82.0777 137.802 85.1004 139.58 88.1231C143.314 94.3464 146.337 101.103 147.76 108.393C149.005 116.039 148.471 123.685 147.404 131.508Z" fill="url(#paint0_radial_7002_17373)"/>
<path d="M147.582 108.216C146.337 100.925 143.137 94.3465 139.402 87.9454C137.624 84.7448 135.49 81.7221 133.179 79.055C125.532 70.1646 115.574 64.297 103.66 63.0523C99.7484 62.6967 95.8363 63.2301 92.1021 64.1192C85.167 65.7194 78.0541 68.0309 72.7195 73.0095C69.8743 75.4989 67.3849 78.3438 65.0732 81.3665C71.1191 77.8104 77.5207 75.8545 85.167 77.4547C85.5226 77.4547 86.0561 77.9882 85.7004 78.3438C83.3887 80.1219 78.5875 84.3892 79.121 87.9454C83.0331 84.3892 87.4786 81.5443 92.8133 80.8331C95.8362 80.2997 101.171 79.055 102.771 82.789C103.838 85.4561 103.127 88.8344 103.127 91.5015C103.127 92.5684 102.416 96.1246 104.372 95.5911C105.616 95.2355 106.683 94.7021 107.75 93.9909C111.485 91.3238 115.041 87.412 117.175 83.1446C116.997 82.9668 116.819 82.789 117.175 82.4334C117.353 82.2556 117.53 82.0777 117.708 81.7221C117.708 81.7221 117.708 81.5444 117.886 81.5444C117.886 81.3665 118.064 81.3665 118.242 81.3665C123.576 77.277 131.223 84.7449 134.246 89.0122C135.668 91.1459 139.403 96.3024 137.446 98.9695C137.091 99.5029 136.38 99.3251 135.846 99.1473C134.779 98.6139 133.712 98.0804 132.823 97.7248C137.091 103.059 138.336 110.883 135.668 117.284C133.179 123.507 127.488 126.174 121.976 123.685C123.399 125.996 124.643 128.308 124.821 131.153C125.177 134.353 124.11 137.732 122.865 140.576C120.909 145.377 117.886 149.289 112.729 148.044C114.863 152.134 113.796 157.29 110.24 160.491C107.75 162.625 105.083 163.691 101.882 164.047C98.8593 164.403 96.5475 162.625 94.058 161.736C92.6355 167.07 84.4557 167.603 79.8323 166.892C71.8304 165.47 69.163 157.468 68.8074 150.356C65.4288 153.734 60.0942 151.956 56.7156 148.933C59.3829 156.579 63.4728 163.514 69.6965 168.848C73.6086 172.226 77.8763 175.605 82.6774 177.738C86.5895 179.694 90.8573 180.761 95.3028 181.294C109.173 183.25 121.265 177.561 131.578 168.67C136.557 164.403 140.469 159.424 142.959 153.556C145.804 146.622 147.049 138.976 147.938 131.508C148.471 123.685 149.005 116.039 147.582 108.216Z" fill="url(#paint1_radial_7002_17373)"/>
<path d="M147.583 108.215C147.049 105.192 146.16 102.17 145.093 99.3247C145.627 101.458 146.16 103.414 146.338 105.548C148.294 119.239 145.627 133.997 140.292 146.622C138.692 150.533 136.558 155.512 132.824 157.823C132.112 158.179 131.401 158.712 130.69 158.712C129.445 158.89 129.801 158.357 129.445 159.246C128.734 160.668 128.022 161.913 126.955 163.158C123.577 167.247 114.152 177.204 107.929 172.937C102.238 177.738 94.2364 179.872 86.4122 179.338C89.0796 180.227 91.9247 180.938 94.7699 181.294C108.64 183.25 120.732 177.56 131.045 168.67C136.024 164.402 139.936 159.424 142.426 153.556C145.271 146.622 146.516 138.976 147.405 131.508C148.472 123.684 149.005 116.039 147.583 108.215Z" fill="url(#paint2_radial_7002_17373)"/>
<path d="M142.425 140.754C141.003 144.666 139.225 148.578 137.446 152.134C136.202 154.445 134.779 156.757 133.356 159.068C131.756 158.535 130.156 157.824 128.555 157.113C128.555 157.113 128.555 156.935 128.378 156.935C126.421 155.868 124.643 154.801 122.865 153.734C125.355 149.467 127.666 145.199 129.8 140.932C131.045 138.265 132.29 135.42 133.356 132.753L133.534 132.931C133.712 133.108 134.246 132.575 133.89 132.397C133.712 132.219 133.712 132.219 133.534 132.042C136.38 124.574 138.691 116.928 139.225 109.104C139.58 109.46 139.758 109.816 140.114 110.171C140.292 110.527 141.003 109.993 140.825 109.638C140.469 108.927 139.936 108.215 139.402 107.504C139.58 104.481 139.402 101.459 139.047 98.436C139.047 98.2582 138.869 98.436 138.869 98.436C139.047 101.281 139.047 103.948 138.869 106.615C136.735 103.415 134.068 100.57 131.578 97.547C129.978 95.5911 128.2 93.813 126.422 91.8571C126.955 89.7234 127.311 87.5897 127.488 85.2782C127.311 87.4119 126.777 89.5456 126.244 91.6793C124.11 89.3678 121.976 87.2341 119.664 85.1004C116.997 82.7889 114.33 80.6552 111.307 78.5215C112.374 76.3878 113.441 73.8985 113.618 71.587C113.618 71.4092 113.441 71.4092 113.263 71.587C112.907 73.7207 111.84 76.0322 110.773 78.1659C109.706 77.4547 108.639 76.7435 107.572 76.0322C105.261 74.6098 102.949 73.1873 100.46 71.9426C98.5035 70.8758 96.7253 69.6312 94.5915 68.9199C94.5915 68.9199 94.4136 69.0977 94.5915 69.0977C96.5475 69.809 98.5036 71.2314 100.282 72.1204C102.416 73.1873 104.549 74.4319 106.506 75.8544C107.928 76.7434 109.173 77.8103 110.595 78.6993C110.062 79.7662 109.351 80.833 108.817 81.8999C106.861 85.456 104.727 88.8344 102.593 92.3905C100.993 95.2354 99.2148 98.2582 97.6145 101.103C92.9911 96.6579 88.5455 91.8571 84.4556 86.8785C85.7004 85.2782 87.123 83.6779 88.5456 82.0777C89.2569 81.0108 90.146 79.944 90.8573 78.8772C88.5456 81.3665 86.4117 84.0336 84.2779 86.5229C82.6775 84.567 81.0771 82.6111 79.6546 80.4774L79.4767 80.2996C79.4767 80.4774 79.2989 80.4774 79.2989 80.4774C80.7215 82.6111 82.3218 84.7448 83.9222 86.8785C79.6545 91.8571 75.9203 97.1913 72.5417 102.703C70.0522 98.6138 67.9183 94.1686 66.318 89.5456C67.0292 88.8344 67.5627 88.1231 68.2739 87.4119C72.5417 82.7889 77.3428 79.0549 82.6774 75.6766C83.3887 74.9654 84.2779 74.2541 84.9892 73.7207C78.5876 77.2769 72.7194 81.5443 67.5626 86.7007C64.3618 89.9012 61.1611 93.813 58.8494 97.547C56.3599 101.459 54.9374 106.26 53.5148 110.705C53.337 111.06 53.8705 111.06 53.8705 110.705C55.6487 106.793 57.0713 102.703 59.2051 98.7916C60.9833 95.5911 63.6506 92.3905 66.1401 89.5456C67.5626 94.1686 69.6965 98.7916 72.186 103.059C68.8074 108.749 66.3179 114.972 63.8284 121.195C63.6506 121.729 63.4728 122.084 63.295 122.618C61.1611 118.528 59.2051 114.083 57.6047 109.816C57.4269 109.46 57.0712 108.927 56.8933 108.571C58.6716 113.727 60.6276 118.706 63.1171 123.329C62.228 125.818 61.5168 128.308 60.9833 130.797C60.272 134.353 59.205 138.087 59.0272 141.643C59.3829 139.51 60.0941 137.554 60.8054 135.598C61.5167 131.686 62.4059 127.952 63.6506 124.218C66.4958 129.73 69.8743 135.064 73.6086 140.221C70.5856 144.666 67.3848 149.111 65.251 153.912C65.251 154.09 65.251 154.268 65.251 154.268C65.6066 154.09 65.9623 153.734 66.318 153.379C66.4958 153.201 66.6735 153.201 66.6735 153.023C69.163 149.111 71.6526 145.199 74.3199 141.288C75.5647 143.066 76.9872 144.666 78.4098 146.444C82.8553 151.778 87.8343 156.757 92.9911 161.38C92.6355 161.913 92.2798 162.447 91.9242 162.98C89.7903 166.359 87.6564 169.559 84.8113 172.404C84.4557 172.76 84.8113 173.115 85.167 172.937C87.8343 170.982 89.6125 168.314 91.3907 165.647C92.102 164.403 92.9911 163.336 93.7024 162.091C94.2358 162.447 94.5914 162.98 95.1249 163.336C99.037 166.714 103.127 170.27 107.75 172.582C106.328 174.004 104.905 175.605 103.483 177.027C103.305 177.383 103.305 177.56 103.483 177.738C104.372 177.027 105.083 176.316 105.972 175.782C106.861 174.893 107.75 174.004 108.639 173.115C110.24 173.826 112.018 174.538 113.796 174.893C114.152 174.893 114.685 174.182 114.152 174.004C112.551 173.471 111.129 172.76 109.706 172.048C112.551 168.67 115.041 165.114 117.53 161.38C118.953 159.068 120.376 156.935 121.62 154.623C123.399 155.512 124.999 156.401 126.777 157.29C126.955 157.29 127.133 157.468 127.133 157.468C128.555 158.357 130.156 158.713 131.756 159.246C131.934 159.246 132.112 159.424 132.29 159.424C129.8 163.336 127.311 167.07 124.643 170.626C124.643 170.804 124.465 170.804 124.465 170.982C125.177 170.626 125.888 170.093 126.599 169.559C128.2 167.248 129.622 164.936 131.223 162.625C131.934 161.736 132.467 160.669 133.179 159.78C134.068 160.135 134.779 160.313 135.846 160.491C136.202 160.491 136.379 159.957 136.024 159.957C135.135 159.78 134.423 159.602 133.534 159.246C134.957 156.935 136.202 154.623 137.446 152.49C138.513 150.356 139.58 148.222 140.469 145.911C141.892 141.11 143.137 136.309 144.204 131.508C143.848 134.531 143.492 137.731 142.425 140.754ZM138.691 108.215C137.98 116.039 135.668 123.685 132.645 131.153C128.2 127.774 123.754 124.396 119.664 120.662C118.953 119.951 118.242 119.417 117.53 118.706C118.775 115.506 120.02 112.305 121.087 109.282C122.865 103.77 124.821 98.6138 126.244 93.1018C130.511 98.0804 134.601 103.237 138.691 108.215ZM104.55 90.9681C106.328 87.7675 108.284 84.567 110.062 81.3665C110.418 80.6552 110.773 79.944 111.129 79.2327C113.796 81.3664 116.464 83.5002 118.953 85.8117C121.443 88.1232 123.576 90.4347 125.888 92.924C124.466 98.0804 122.509 103.059 120.731 108.215C119.486 111.594 118.242 114.972 116.641 118.35C112.729 114.794 108.995 111.238 105.083 107.86C102.949 105.904 100.637 103.948 98.5036 101.992C100.637 98.2582 102.593 94.5242 104.55 90.9681ZM98.1479 102.703C100.104 104.659 102.238 106.615 104.372 108.393C108.462 111.949 112.196 115.683 116.286 119.417C114.507 123.507 112.551 127.419 110.595 131.508C108.995 134.709 107.395 137.909 105.616 141.11C100.815 137.02 96.3697 132.397 92.102 127.596C90.3238 125.641 88.5456 123.507 86.9452 121.551C88.9012 118.35 90.8573 114.972 92.9911 111.772C94.7694 108.749 96.5475 105.726 98.1479 102.703ZM73.2529 103.059C76.2759 97.7247 80.0101 92.7462 83.9222 87.7675C84.1 87.5897 84.2779 87.4119 84.2779 87.2341C88.1899 92.3905 92.6354 97.1913 97.2588 101.814C95.1249 105.548 92.9911 109.282 90.6794 112.838C89.079 115.328 87.4786 117.817 86.0561 120.306C81.4327 114.794 76.9872 109.282 73.0751 103.237C73.253 103.415 73.2529 103.237 73.2529 103.059ZM74.3199 139.687C70.4078 134.709 67.0292 129.375 64.0062 123.862C64.184 123.151 64.5397 122.44 64.7175 121.729C67.0292 115.683 69.5187 109.816 72.7195 104.126C73.7864 105.904 75.0312 107.682 76.0981 109.46C78.9433 113.727 82.144 117.817 85.3447 121.729C82.6774 126.174 80.188 130.619 77.5207 134.887C76.6316 136.487 75.5647 138.087 74.3199 139.687ZM94.058 160.313C88.9012 155.868 84.1 150.889 79.4767 145.733C78.0541 144.133 76.6316 142.354 75.209 140.576C76.6316 138.443 77.8763 136.309 79.121 134.175C81.4327 130.264 83.7444 126.352 86.2338 122.44C87.6564 124.218 89.079 125.818 90.5016 127.419C95.125 132.575 99.3927 137.731 104.727 142.177C102.593 145.911 100.46 149.645 98.3258 153.379C97.081 155.868 95.4806 158.179 94.058 160.313ZM117.353 159.957C115.574 162.802 113.618 165.825 111.662 168.492C110.951 169.559 110.062 170.448 109.173 171.515C104.194 168.848 99.9262 165.292 95.6585 161.736C95.4806 161.558 95.125 161.202 94.9471 161.024C96.0141 159.246 97.2589 157.646 98.3258 155.868C100.637 152.134 102.593 148.044 104.905 144.31C105.083 143.955 105.439 143.421 105.616 143.066C106.15 143.599 106.861 144.133 107.395 144.488C111.662 147.867 116.286 151.245 121.087 154.09C119.842 156.046 118.597 158.002 117.353 159.957ZM121.62 153.023C121.62 153.023 121.443 153.023 121.443 152.845C120.909 152.49 120.198 151.956 119.664 151.6H119.486C114.863 148.578 110.418 145.199 106.15 141.643C107.572 138.976 109.173 136.309 110.418 133.642C112.729 129.197 114.863 124.574 116.819 119.951C121.62 124.396 126.599 128.663 132.112 131.864C130.867 134.709 129.622 137.554 128.2 140.399C126.422 144.844 124.11 148.933 121.62 153.023Z" fill="#D0831C"/>
<path opacity="0.3" d="M111.663 119.773C110.774 115.684 107.217 111.772 103.661 109.994C94.2364 105.549 84.8118 122.974 96.1924 129.197C101.171 132.042 110.062 129.731 111.663 124.041C111.841 122.618 111.841 121.196 111.663 119.773Z" fill="white"/>
<path opacity="0.3" d="M89.0792 93.6353C87.8345 91.8572 86.4119 90.6125 84.9894 90.7903C84.4559 90.7903 83.9224 91.1459 83.5667 91.5016C82.322 92.035 81.2551 93.1018 80.5438 94.3465C78.0543 97.547 75.387 102.17 77.6986 106.082C81.2551 112.127 89.9683 108.215 92.28 103.415C93.8804 99.8585 91.3909 96.3024 89.0792 93.6353Z" fill="white"/>
<path opacity="0.3" d="M68.6291 99.6807C67.9179 97.3692 66.3176 95.0577 63.8283 96.658C60.0943 98.9695 58.8497 104.126 59.2053 108.215C59.5609 111.594 61.5167 115.328 64.8951 112.127C67.2066 109.993 68.8069 106.437 69.1625 103.237C69.1625 102.348 68.9847 100.925 68.6291 99.6807Z" fill="white"/>
<path opacity="0.3" d="M80.1882 117.461C78.9435 115.149 77.343 112.66 75.5648 110.882C72.8975 108.392 71.1193 111.059 70.0524 114.082C69.5189 115.149 69.1633 116.216 68.9855 116.749C68.0964 118.705 67.7407 121.195 67.5629 123.328C67.5629 125.284 68.452 126.707 69.1633 128.485C70.0524 130.974 71.8306 133.641 74.6757 131.863C78.0543 129.729 80.0104 125.817 81.0773 122.084C81.6108 120.483 81.0773 118.883 80.1882 117.461Z" fill="white"/>
<path opacity="0.3" d="M53.8704 121.55C53.1592 124.573 52.6257 128.307 53.5148 131.508C54.226 133.641 55.4706 135.242 57.7821 133.819C58.4933 133.286 59.2046 132.752 59.738 132.219C60.8049 129.907 60.9827 126.529 60.9827 124.573C60.9827 124.395 60.9827 124.218 60.9827 124.04C60.8049 122.617 60.4492 118.705 59.0268 116.394C56.1818 113.193 54.4038 119.417 53.8704 121.55Z" fill="white"/>
<path opacity="0.3" d="M67.5624 134.175C66.6733 132.219 65.2509 130.086 63.8285 132.219C61.517 135.598 60.9835 141.11 61.3391 145.022C61.5169 146.444 62.9394 147.333 64.3619 147.155C66.3177 146.8 67.3846 145.733 68.4514 144.31C70.2295 141.11 69.6961 137.198 67.5624 134.175Z" fill="white"/>
<path opacity="0.3" d="M79.1206 81.8994C77.5204 80.6547 76.098 81.7216 74.8533 82.7884C74.6755 82.7884 74.6754 82.9662 74.6754 82.9662C72.5417 84.2109 70.7637 86.3446 69.8747 88.6561C68.9857 91.501 71.8306 92.2123 73.9643 92.0344C77.3426 91.6788 80.1875 89.0117 80.7209 85.8112C81.0766 84.3887 80.3653 82.7884 79.1206 81.8994Z" fill="white"/>
<path opacity="0.4" d="M75.386 77.0991C75.386 77.0991 75.2082 76.9213 75.2082 76.7435C75.2082 76.3879 75.0303 75.8544 74.6747 75.4988C74.4969 75.1432 74.3191 74.9654 73.7857 74.7876C72.7188 74.432 71.4742 75.8544 70.9408 76.5657C70.4074 77.2769 69.6962 77.6325 68.985 78.3437C68.4515 78.8772 68.2737 79.5884 67.7403 80.1218C67.2069 80.833 66.3178 82.0777 66.8512 82.9667C67.7403 84.7448 70.9408 81.7221 71.8298 81.0109C72.7189 80.2996 74.6748 78.6994 75.2082 77.0991C75.386 77.4547 75.5638 77.2769 75.386 77.0991Z" fill="white"/>
<path opacity="0.3" d="M95.125 141.999C97.7924 138.087 94.9472 133.82 91.9243 131.153C90.6795 130.086 89.0791 128.13 87.1231 128.308C83.211 128.663 80.7216 134.709 79.299 137.732C75.3869 146.088 90.146 146.266 94.2359 142.888C94.5916 142.71 94.9472 142.355 95.125 141.999Z" fill="white"/>
<path d="M147.76 74.6097C145.982 68.5642 139.403 64.4747 133.713 62.5188C130.867 61.4519 127.667 61.2741 124.644 61.4519C122.51 61.4519 120.554 61.9854 118.598 62.6966C118.953 61.4519 118.775 60.2073 119.131 58.9626C119.842 56.4733 120.732 54.1618 122.154 52.206C123.577 50.0723 125.711 48.2942 127.844 46.6939C128.378 46.1605 129.089 45.8048 129.8 45.4492C130.69 44.5602 131.401 43.6712 132.29 42.7821C130.156 41.8931 127.311 42.7821 125.355 43.1378C124.466 43.3156 123.577 43.4933 122.688 43.6712C123.754 40.8262 124.821 38.6925 127.133 36.5588C129.623 34.2473 132.29 33.1805 135.313 32.1137C135.669 31.9358 136.024 31.5802 136.38 31.4024C136.38 31.2246 136.38 31.2246 136.202 31.0468C133.89 29.6243 131.045 29.98 128.556 29.98C125.177 30.1578 121.798 30.6912 118.598 31.9358C118.242 32.1136 117.709 32.2915 117.353 32.4693C117.709 30.869 117.709 28.9131 117.886 27.3129C118.598 23.7567 120.554 20.9118 121.976 17.5335C122.154 17.1778 121.799 17 121.443 17C117.175 18.0668 112.73 22.1565 110.062 25.5348C109.707 26.0682 108.106 28.0241 107.573 29.4465C107.573 29.0909 107.395 28.7353 107.395 28.3797C107.039 25.357 107.573 22.1564 108.106 19.1337C108.106 18.9559 107.928 18.6003 107.573 18.6003C104.194 19.3115 100.816 22.512 98.5039 25.0013C97.6148 25.8904 96.9035 26.7794 96.0144 27.8463C95.3031 27.135 94.5919 26.4238 93.8806 25.8904C92.8137 24.8235 91.3911 24.1123 89.9685 23.4011C88.5459 22.6899 87.3012 21.8008 86.0564 21.0896C85.523 20.734 84.9895 20.3783 84.2782 20.5562C83.2113 20.9118 83.2113 22.5121 83.2113 23.5789C83.2113 26.0682 83.7448 29.6243 84.9895 31.9358C84.1004 31.758 83.2113 31.5802 82.3222 31.4024C76.8098 30.6912 68.4521 32.8249 64.7179 37.2701C64.5401 37.4479 64.5401 37.4479 64.5401 37.6257C65.7848 37.0923 67.2073 37.2701 68.4521 37.6257C70.9416 37.9813 73.2533 39.226 75.0315 40.4706C77.1653 42.0709 79.1214 44.2046 80.544 46.5161C78.0545 45.4492 75.3872 44.9158 72.7198 45.6271C72.3642 45.8049 72.1864 46.3383 72.5421 46.5161C78.0545 49.5388 82.1444 58.7848 81.6109 65.0081C76.6319 64.6525 71.4751 66.2528 67.2074 68.9199C62.5841 71.7648 60.0945 76.9212 58.8498 81.8998C58.672 82.4332 59.5611 82.4333 59.7389 82.2554C61.1615 80.833 62.0506 79.2327 63.651 77.9881C65.7848 76.3878 68.2743 75.6766 70.586 74.9653C74.6758 73.8985 78.7658 73.3651 82.5 74.9653C81.4331 76.21 80.7218 77.6324 79.8327 78.6993C77.6988 82.2554 76.8098 86.345 76.0985 90.2568C75.9207 90.968 76.9875 90.968 77.1654 90.4346C78.7658 87.2341 82.5 84.5669 85.1673 82.2554C87.8346 79.7661 91.3911 78.5215 94.414 76.5656C94.414 79.4105 95.1253 82.4333 95.8366 84.9226C96.7257 87.9453 97.7926 90.7902 99.0374 93.813C99.393 94.702 99.9265 97.5469 101.171 97.7247C102.238 97.9025 102.949 96.48 103.305 95.9466C104.905 93.2795 106.506 90.7902 108.106 88.1231C110.418 84.0335 111.84 79.7662 112.374 75.321C116.464 74.7875 121.798 77.099 125.177 78.8771C127.489 80.1218 129.623 82.0776 131.579 83.8557C133.001 85.1004 134.068 86.8784 135.491 88.1231C136.024 88.4787 136.558 87.9453 136.558 87.4119C136.558 86.345 136.38 85.456 136.024 84.3891V84.2113C135.313 80.4774 133.001 76.9212 130.512 74.0763C129.623 73.0094 128.556 72.1204 127.489 71.2313C128.734 71.2313 129.978 71.2313 131.223 71.2313C133.89 71.2313 136.558 71.587 139.225 72.1204C142.07 72.8316 144.026 73.8985 146.338 75.321C147.405 75.6766 147.76 74.9653 147.76 74.6097Z" fill="#27843B"/>
<path d="M118.776 32.8248C121.621 31.7579 124.466 31.2245 127.489 31.0467C129.801 30.8689 132.646 30.5133 134.957 31.5802C132.112 32.647 129.801 33.3582 127.311 35.4919C124.466 37.8034 123.043 40.6484 121.799 44.2045C121.799 44.2045 121.799 44.2045 121.799 44.3823C119.665 44.9157 117.709 45.8048 115.931 46.8716C113.441 48.2941 110.952 50.0721 108.996 52.3836C107.929 49.7165 106.684 47.2272 105.973 44.3823C105.973 44.2045 105.795 43.8489 105.795 43.6711C108.106 39.4037 112.018 36.5588 116.464 34.6029C116.642 34.7807 116.997 34.7807 117.175 34.4251V34.2473C117.531 33.1804 118.064 33.0026 118.776 32.8248Z" fill="url(#paint3_radial_7002_17373)"/>
<path d="M110.774 25.8904C112.907 23.2233 115.753 20.9118 118.776 19.1338C119.487 18.7781 120.198 18.4225 120.909 18.0669C120.554 18.2447 119.842 19.845 119.665 20.2006C118.953 21.4453 118.42 23.0455 117.886 24.468C117.353 25.7126 117.175 26.9573 116.819 28.3797C116.464 29.8022 116.642 31.4025 116.286 32.8249C113.974 33.8918 111.663 35.1364 109.707 36.7367C108.995 34.603 108.284 32.4693 107.751 30.3356C108.106 28.9132 110.24 26.6017 110.774 25.8904Z" fill="url(#paint4_radial_7002_17373)"/>
<path d="M96.5481 29.0912C96.7259 29.0912 96.9037 28.7356 96.9037 28.5578C97.4371 27.8466 98.1484 27.1354 98.6819 26.4241C100.638 24.1126 103.839 20.7343 107.04 19.8452C106.328 22.8679 105.973 25.7129 106.328 28.7356C106.506 30.5137 107.039 32.1139 107.573 33.7142C107.929 34.9588 108.107 36.2035 108.996 37.2703C107.573 38.6928 106.328 40.2931 105.439 42.0712C104.906 39.7597 104.906 37.2704 104.55 34.9589C104.55 34.6033 104.194 34.6032 104.017 34.7811C101.171 36.3813 99.0376 38.8706 97.2593 41.7155C96.0146 39.7597 94.7699 37.8038 92.9917 36.2035C93.3473 33.892 94.7699 31.4027 96.5481 29.0912Z" fill="url(#paint5_radial_7002_17373)"/>
<path d="M84.4562 26.4242C84.2784 25.1796 83.5672 20.5565 86.2343 22.3346C88.0124 23.5793 89.9683 24.6461 91.9242 25.8908C93.1688 26.7798 94.2357 28.2023 95.6582 28.9135C94.0579 31.0472 92.8132 33.5365 92.4576 36.0258C90.5017 34.2477 88.3681 32.8253 85.8788 32.114C85.3453 30.1581 84.8118 28.3801 84.4562 26.4242Z" fill="url(#paint6_radial_7002_17373)"/>
<path d="M114.863 26.2461C113.263 29.4466 112.018 33.0027 109.707 35.6698C109.707 35.8477 109.529 35.8477 109.351 35.8477C109.529 36.2033 109.529 36.5589 109.707 36.7367C111.663 35.1364 113.974 33.714 116.286 32.8249C116.641 31.4025 116.463 29.6244 116.819 28.3797C116.997 27.1351 117.353 25.7126 117.886 24.468C118.419 23.0455 118.953 21.4453 119.664 20.2006C119.842 19.845 120.553 18.2447 120.909 18.0669C120.731 18.2447 120.375 18.2447 120.197 18.4225C117.708 20.2006 116.108 23.9346 114.863 26.2461Z" fill="#318328"/>
<path d="M108.996 37.4481C108.107 36.559 107.929 35.1366 107.573 33.8919C107.04 32.2917 106.506 30.5136 106.328 28.9133C106.151 25.8906 106.328 22.8679 107.04 20.0229C105.439 23.7569 105.617 28.0243 103.483 31.7583C101.705 35.1366 99.0377 38.1593 95.8369 40.293C96.1926 40.8264 96.5482 41.3599 96.9038 42.0711C98.682 39.2262 100.816 36.7369 103.661 35.1366C103.839 34.9588 104.195 34.9588 104.195 35.3144C104.55 37.8037 104.728 40.1152 105.084 42.4267C106.151 40.4708 107.395 38.8705 108.996 37.4481Z" fill="#318328"/>
<path d="M91.9243 25.8905C90.1463 24.6459 88.1904 23.7569 86.4124 22.5122C89.0795 26.2462 91.2131 30.6914 90.6797 34.7809C91.2131 35.1365 91.7466 35.67 92.28 36.2034C92.6356 33.7141 93.8802 31.2248 95.4805 29.0911C94.2358 28.2021 93.169 26.7796 91.9243 25.8905Z" fill="#318328"/>
<path d="M66.8521 36.7366C70.7641 33.3582 77.3435 32.1136 82.3225 32.4692C88.5463 32.8248 93.3474 38.159 96.3703 43.1377C96.0147 43.6711 95.6591 44.3823 95.3034 44.9157C94.0587 47.2272 93.1696 49.7166 92.2805 52.2059C91.9248 53.0949 91.5691 54.1617 91.5691 55.2286C90.1466 53.2727 88.5462 51.4946 86.5902 50.0722C85.1676 48.8275 83.5672 47.7607 81.789 46.8716C79.8329 41.5374 73.0758 35.4919 66.8521 36.7366Z" fill="url(#paint7_radial_7002_17373)"/>
<path d="M143.315 71.9431C142.07 71.4097 140.648 71.2319 139.225 70.8763C136.202 70.1651 133.001 70.165 129.978 70.165C128.912 70.165 128.022 70.165 126.955 70.3428C126.6 70.165 126.244 69.8094 125.711 69.6316C124.822 69.0982 123.755 68.9204 122.866 68.7426C123.221 68.9204 123.577 69.0982 123.755 69.276C124.288 69.6316 124.822 69.9872 125.355 70.5206C125.711 70.8763 126.066 71.0541 126.244 71.4097C126.422 71.4097 126.422 71.4097 126.6 71.4097C127.667 72.2987 128.734 73.3656 129.623 74.2546C132.646 77.4552 134.068 81.1891 135.491 85.1009C135.491 84.9231 135.313 84.9231 135.313 84.7453C134.424 83.8562 133.357 82.9672 132.468 82.0781C130.334 80.1223 128.2 78.522 125.711 77.0995C123.399 75.8549 120.732 75.3215 118.064 74.4324C116.642 74.0768 114.508 73.7212 113.085 74.4324C113.263 73.3656 113.263 72.2987 113.263 71.2319C113.263 71.0541 113.263 71.054 113.263 71.054C112.908 74.0768 112.374 77.0995 111.307 79.9444C110.952 80.6557 110.774 81.1891 110.418 81.9003C110.062 82.7894 109.885 83.6784 109.529 84.3896C107.751 88.1236 105.083 91.5019 103.305 95.2359C102.061 97.7252 101.171 94.5247 100.816 93.4578C99.9266 91.1463 99.0376 88.8348 98.3263 86.5233C96.9037 82.6116 95.3033 76.7439 96.3702 72.4765C96.3702 72.1209 96.3702 71.9431 96.3702 71.5875C96.3702 71.5875 96.3702 71.5875 96.1924 71.7653C95.4811 73.01 95.1254 74.4324 95.1254 75.8549C91.9247 77.2773 88.5461 78.8776 85.8788 81.1891C83.9228 82.7894 82.1445 84.5674 80.3663 86.3455C79.655 87.0567 79.1216 87.5902 78.4103 88.3014C79.4772 82.7894 81.611 77.2774 85.7009 73.5434C86.0566 73.01 86.4123 72.6543 86.7679 72.1209C85.5232 72.6543 84.4562 73.3656 83.5671 74.4324C79.655 72.6544 75.2095 73.0099 70.9418 73.899C68.6301 74.4324 66.3185 75.3214 64.1846 76.3883C62.5842 77.2773 61.5173 78.522 60.6282 79.7667C63.2955 70.5207 72.3643 64.8308 81.7888 65.3642C81.7888 65.7198 82.3223 65.7198 82.5002 65.3642C83.0336 65.3642 83.5671 65.542 84.2784 65.542C84.634 65.3642 84.8118 65.3642 85.1675 65.3642C84.2784 65.1864 83.5671 65.0086 82.6779 65.0086C83.5671 58.6075 80.1885 49.8949 74.4982 46.3388C78.9437 45.8054 83.0336 48.6503 86.59 51.3174C90.3243 54.1624 93.3473 58.4297 93.8808 63.2305C93.8808 62.3415 93.8807 61.2746 94.0585 60.3856C93.7029 58.9631 93.1694 57.7185 92.4581 56.4738V56.296C91.569 53.8067 94.4142 49.1837 95.3033 46.8722C95.659 45.9832 96.1924 45.0942 96.7259 44.2051C97.2593 42.7827 98.1485 41.3602 99.2154 40.4712C100.105 39.4043 100.994 38.3374 101.883 37.2706C104.194 34.7813 103.483 37.9818 103.483 39.4043C103.483 41.0046 104.017 42.6049 104.372 44.2051C105.083 47.2279 106.862 49.7171 107.929 52.5621C106.328 54.5179 104.906 56.6516 103.839 58.7853C104.194 58.4297 104.55 57.8963 104.906 57.5407C107.217 53.6289 110.418 50.4284 114.33 47.939C116.998 46.161 119.843 45.0941 123.043 44.5607C124.999 44.2051 128.378 43.3161 130.512 43.6717C129.267 44.7385 127.667 45.4498 126.422 46.5166C124.644 47.9391 123.221 49.3615 121.799 51.1396C120.376 52.9177 119.665 54.8735 118.954 56.8294C118.242 58.7853 118.42 61.0968 117.709 63.0527C116.642 63.5861 115.575 63.9418 114.33 64.4752C115.575 64.2974 118.42 63.2305 118.598 63.2305C118.954 63.2305 119.131 63.0527 119.487 63.0527C120.376 62.8749 121.443 62.5193 122.332 62.5193C125.533 62.1637 128.911 62.5193 131.934 63.2305C137.091 64.4752 143.493 68.5648 145.982 73.5434C145.271 73.01 144.382 72.4765 143.315 71.9431Z" fill="url(#paint8_radial_7002_17373)"/>
<path d="M120.376 36.3806C118.598 37.6253 116.998 39.2255 115.397 40.8258C114.33 41.8927 113.619 43.4929 112.552 44.382C111.663 45.271 110.24 46.16 108.996 45.271C106.862 43.8485 108.284 40.4702 109.173 38.5143C107.751 39.759 106.506 41.1814 105.617 42.9595C105.617 43.1373 105.795 43.4929 105.795 43.6707C106.506 46.5157 107.929 49.005 108.818 51.6721C110.774 49.5384 113.263 47.5825 115.753 46.16C117.709 45.0932 119.665 44.382 121.621 43.6707C121.621 43.6707 121.621 43.6707 121.621 43.4929C122.688 40.1146 124.288 37.2697 127.133 34.7804C129.623 32.8245 131.935 31.9354 134.78 31.0464C129.801 31.402 124.11 33.7135 120.376 36.3806Z" fill="url(#paint9_radial_7002_17373)"/>
<path d="M82.3226 32.2915C81.7891 32.2915 81.0777 32.2915 80.3665 32.2915C83.2116 33.3584 85.7011 35.1364 87.4793 37.4479C89.2575 39.7594 91.5693 44.5602 89.4354 47.2273C88.3685 48.6498 86.9458 48.6498 85.3454 47.9386C84.1007 47.4051 82.856 46.6939 81.6112 46.1605C81.789 46.3383 81.7891 46.694 81.9669 46.8718C83.5673 47.7608 85.1677 48.8276 86.7681 50.0723C88.7241 51.4947 90.5023 53.2728 91.7471 55.2287C91.7471 54.1618 92.1026 53.095 92.4583 52.206C93.3474 49.7167 94.2365 47.2274 95.4813 44.9159C95.8369 44.3824 96.1926 43.6712 96.5483 43.1378C93.3475 37.9814 88.5463 32.8249 82.3226 32.2915Z" fill="url(#paint10_radial_7002_17373)"/>
<path d="M126.422 66.4301C122.332 63.4074 114.686 66.2523 110.418 68.0304C110.418 68.2082 110.418 68.386 110.24 68.5638C115.219 66.0745 120.909 65.8967 126.422 66.4301Z" fill="url(#paint11_radial_7002_17373)"/>
<path d="M93.3472 65.008C91.569 60.0294 88.1904 55.762 83.5671 52.9171C81.9667 51.8503 80.0106 50.9612 78.2324 49.7166C81.611 53.9839 83.3892 60.2072 82.6779 65.008C83.5671 65.008 84.2784 65.1859 85.1675 65.3637C84.8118 65.3637 84.634 65.5415 84.2784 65.5415C83.7449 65.5415 83.2115 65.3637 82.5002 65.3637C82.3223 65.7193 81.7888 65.7193 81.7888 65.3637C72.3643 64.8302 63.2955 70.5201 60.6282 79.5883C61.8729 77.988 63.1176 76.3877 64.718 74.9653C66.6741 73.1872 69.3414 71.9425 71.8309 71.0535C77.5212 69.0976 83.7449 68.2086 89.7908 68.2086C90.8577 66.9639 91.9247 65.7193 93.3472 65.008Z" fill="url(#paint12_radial_7002_17373)"/>
<path d="M105.617 56.1172C106.328 54.8725 107.217 53.6279 108.284 52.561C107.217 49.7161 105.439 47.2268 104.728 44.2041C104.372 42.6038 103.839 41.0035 103.839 39.4033C103.839 38.692 104.017 37.6252 103.839 37.0918C101.527 43.4929 101.527 50.4273 105.617 56.1172Z" fill="url(#paint13_radial_7002_17373)"/>
<path d="M132.112 63.4075C128.911 62.5184 125.711 62.3406 122.51 62.6963C121.443 62.8741 120.554 63.0519 119.665 63.2297C119.309 63.2297 119.131 63.2297 118.776 63.4075C118.598 63.4075 115.575 64.4743 114.508 64.6522C115.753 64.1187 116.82 63.5853 117.887 63.2297C118.598 61.2738 118.42 58.9623 119.131 57.0064C119.843 54.8727 120.554 52.9168 121.976 51.3166C123.399 49.5385 124.999 48.116 126.6 46.6936C127.844 45.6267 129.445 44.9155 130.69 43.8486C130.512 43.8486 130.156 43.8486 129.978 43.8486C126.422 45.0933 123.221 47.0491 120.554 49.7163C115.575 54.6949 114.508 61.2738 111.129 66.9636C116.286 65.0077 124.466 62.5185 128.378 67.1415C128.734 67.4971 128.2 68.0305 127.845 67.8527C121.976 67.1414 115.397 67.1415 110.062 69.9864C109.885 70.6976 109.707 71.5866 109.529 72.2979C108.64 75.6762 107.395 80.2992 104.194 82.2551C101.171 84.211 98.6818 80.477 98.1483 77.9877C97.6149 75.4984 97.6148 72.8313 97.7927 70.342C95.3032 72.6535 92.4581 74.7872 89.2573 75.1428C88.9016 75.1428 88.7238 74.7872 88.7238 74.6093C88.546 73.1869 88.9016 71.5866 89.6129 70.1642C83.567 70.1642 77.3433 70.8754 71.8308 73.1869C70.0526 73.8981 68.2743 74.7872 66.674 76.0318C68.0965 75.3206 69.697 74.7872 71.2974 74.6093C75.5651 73.7203 79.8327 73.3647 83.9226 75.1428C84.8117 74.076 85.8786 73.3647 87.1234 72.8313C86.7677 73.3647 86.4122 73.7203 86.0565 74.2538C81.7888 77.9877 79.8328 83.4997 78.7659 89.0118C79.2993 88.3005 80.0106 87.7671 80.7219 87.0559C82.5001 85.2778 84.2783 83.4997 86.2343 81.8995C88.9016 79.588 92.2802 77.9877 95.481 76.5652C95.6588 75.1428 95.8367 73.7203 96.548 72.4757C96.548 72.4757 96.548 72.4757 96.7258 72.2979C96.7258 72.6535 96.7258 72.8313 96.7258 73.1869C95.6589 77.4543 97.2592 83.3219 98.6818 87.2337C99.3931 89.5452 100.282 91.8567 101.171 94.1682C101.705 95.235 102.416 98.4356 103.661 95.9463C105.617 92.2123 108.284 89.0118 109.885 85.1C110.24 84.211 110.596 83.3219 110.774 82.6107C111.129 81.8995 111.485 81.3661 111.663 80.6549C112.908 77.9877 113.263 74.7872 113.619 71.7645V71.9422C113.619 73.0091 113.441 74.076 113.441 75.1428C114.864 74.6094 116.997 74.7872 118.42 75.1428C120.909 75.854 123.577 76.5653 126.066 77.8099C128.556 79.0546 130.69 80.8326 132.823 82.7885C133.713 83.6775 134.78 84.3888 135.669 85.4556C135.669 85.6334 135.846 85.6335 135.846 85.8113C134.246 81.8995 133.001 78.1655 129.978 74.965C129.089 73.8981 128.022 73.0091 126.955 72.12C126.778 72.12 126.778 72.12 126.6 72.12C126.244 71.7644 126.066 71.5866 125.711 71.231C125.177 70.8754 124.644 70.342 124.11 69.9864C123.755 69.8086 123.577 69.6307 123.221 69.4529C124.11 69.6307 125.177 69.8085 126.066 70.342C126.422 70.5198 126.778 70.8754 127.311 71.0532C128.378 70.8754 129.445 70.8754 130.334 70.8754C133.357 70.8754 136.558 70.8754 139.581 71.5866C140.825 71.9423 142.426 72.1201 143.671 72.6535C144.738 73.1869 145.627 73.7203 146.516 74.4316C143.671 68.5639 137.269 64.6521 132.112 63.4075Z" fill="#318328"/>
<g opacity="0.8" style="mix-blend-mode:soft-light">
<path d="M123.043 95.9461C119.309 89.9006 112.552 95.9461 108.995 98.791C106.328 100.925 103.838 103.236 100.282 103.77C96.9035 104.303 94.2362 100.925 92.6358 98.4354C90.6797 95.4127 87.8346 91.8566 83.9225 92.9234C80.8995 93.8124 77.6987 96.6573 74.6758 94.168C73.2532 92.9234 72.0085 90.6119 69.6968 90.7897C65.2513 89.9006 61.517 94.8793 59.3832 98.0798C51.7369 108.926 51.2034 125.64 58.6718 136.664C61.3392 140.754 65.6069 144.132 70.2302 145.554C77.3431 147.688 85.5229 147.333 92.8135 145.732C107.751 142.354 118.598 129.552 123.577 115.683C125.71 109.637 126.6 101.814 123.043 95.9461Z" fill="url(#paint14_radial_7002_17373)"/>
</g>
<path opacity="0.3" d="M79.4762 169.382C78.4093 167.959 77.1647 166.537 75.92 165.292C75.5644 164.937 71.1192 161.203 70.9414 161.203C72.1861 159.425 73.6085 156.935 73.2529 154.624L73.4308 154.446C73.4308 154.268 73.2529 151.068 73.2529 150.89C75.031 154.09 78.5872 159.958 82.3211 160.136C80.5431 162.981 79.4762 166.181 79.4762 169.382Z" fill="#A47705"/>
<path opacity="0.3" d="M97.2588 179.872C96.7254 178.983 96.0142 178.272 95.303 177.561C95.1252 177.383 92.6358 175.249 92.458 175.249C93.1692 174.183 93.8805 172.76 93.7027 171.515V171.338V169.382C94.7695 171.16 96.7255 174.538 98.8591 174.716C97.7923 176.139 97.2588 178.094 97.2588 179.872Z" fill="#A47705"/>
<path opacity="0.3" d="M133.179 96.1245C134.068 94.8798 133.179 91.8571 132.468 90.2568L133.712 91.3237C133.712 91.3237 133.712 91.3237 133.89 91.3237C134.601 92.0349 135.846 92.3905 136.913 92.3905C136.913 92.3905 136.913 95.0576 136.913 95.2354C136.913 96.1245 137.091 96.8357 137.268 97.547C136.024 96.8357 134.601 96.3023 133.179 96.1245Z" fill="#A47705"/>
<path opacity="0.3" d="M139.224 123.507C140.647 122.796 141.003 119.595 141.18 117.995L141.714 119.418C141.714 119.418 141.714 119.418 141.892 119.418C142.247 120.484 143.136 121.196 144.025 121.729C144.025 121.729 142.781 124.041 142.781 124.218C142.425 124.93 142.247 125.819 142.069 126.53C141.358 125.285 140.469 124.218 139.224 123.507Z" fill="#A47705"/>
<path opacity="0.3" d="M103.127 158.18C105.972 157.113 107.395 151.245 108.106 148.223C108.106 148.4 108.817 151.068 108.817 151.245C108.817 151.245 108.817 151.423 108.995 151.423C109.351 153.379 111.129 154.979 112.551 156.224C112.373 156.224 109.706 160.314 109.528 160.847C108.817 162.269 108.106 163.692 107.572 165.114C107.039 162.269 105.261 159.78 103.127 158.18Z" fill="#A47705"/>
<path opacity="0.3" d="M129.8 145.022C132.29 145.022 134.957 141.288 136.379 139.332C136.379 139.51 136.024 141.644 136.024 141.644V141.821C135.668 143.422 136.379 145.022 137.268 146.444C137.268 146.444 134.068 148.578 133.712 148.756C132.823 149.467 131.934 150.356 131.045 151.245C131.401 149.111 130.867 146.8 129.8 145.022Z" fill="#A47705"/>
<path opacity="0.3" d="M126.066 117.107C127.844 115.506 127.488 110.883 127.132 108.394C127.132 108.394 128.377 110.35 128.555 110.35C128.555 110.35 128.733 110.35 128.733 110.528C129.444 111.95 131.222 112.661 132.645 113.195C132.467 113.195 131.755 116.929 131.578 117.284C131.4 118.529 131.222 119.774 131.4 120.841C129.977 119.24 128.022 117.818 126.066 117.107Z" fill="#A47705"/>
<path opacity="0.3" d="M115.93 138.087C117.708 136.487 117.353 131.864 116.997 129.375C116.997 129.375 118.242 131.33 118.42 131.33C118.42 131.33 118.597 131.33 118.597 131.508C119.309 132.931 121.087 133.642 122.509 134.175C122.331 134.175 121.62 137.909 121.442 138.265C121.264 139.51 121.087 140.754 121.264 141.821C120.02 140.221 118.064 138.798 115.93 138.087Z" fill="#A47705"/>
<path opacity="0.3" d="M119.664 166.004C121.264 165.826 122.865 163.159 123.754 161.736V163.337C123.754 163.337 123.754 163.337 123.754 163.514C123.576 164.581 124.287 165.648 124.82 166.537C124.82 166.537 122.687 168.137 122.687 168.315C122.153 168.849 121.62 169.56 121.087 170.093C120.909 168.671 120.375 167.248 119.664 166.004Z" fill="#A47705"/>
<path d="M85.5215 44.9155C84.0991 39.5813 78.2314 35.6695 73.075 35.4917C72.8972 35.4917 72.8972 35.6695 73.075 35.8473C75.7421 36.203 78.0536 37.8032 80.0094 39.5813C81.9653 41.3594 83.0322 43.6709 84.6325 45.4489C84.8103 45.9824 85.6994 45.2712 85.5215 44.9155Z" fill="url(#paint15_radial_7002_17373)"/>
<path d="M100.993 40.4711C96.5477 45.6275 94.2362 53.9845 96.5477 60.5634C96.7255 61.0968 97.4367 60.5634 97.6145 60.2078C97.6145 57.0072 97.2589 53.9845 97.7923 50.7839C98.3257 47.2278 99.7482 43.8495 101.348 40.6489C101.348 40.4711 101.171 40.2933 100.993 40.4711Z" fill="url(#paint16_radial_7002_17373)"/>
<path d="M102.06 80.2992C101.527 79.0546 100.815 77.9877 100.282 76.5652C99.7486 75.1428 99.5708 73.7203 99.393 72.12C99.393 71.9422 99.0374 72.12 99.0374 72.12C98.8595 74.965 99.0374 78.699 101.171 80.6548C101.704 81.3661 102.238 80.8326 102.06 80.2992Z" fill="url(#paint17_radial_7002_17373)"/>
<path d="M122.154 45.8052C120.909 46.3387 119.487 46.5164 118.242 47.2277C116.108 48.4723 114.152 49.5392 112.196 50.9616C109.351 53.0953 107.75 56.1181 105.794 59.1408C105.083 60.2077 106.683 60.741 107.217 59.4964C108.639 56.118 111.307 52.9175 114.152 50.7838C116.819 48.8279 119.487 47.5833 122.154 45.8052C122.332 45.983 122.332 45.6274 122.154 45.8052Z" fill="url(#paint18_radial_7002_17373)"/>
<path d="M91.9235 58.9624C90.3232 56.6509 89.4342 54.5172 87.1227 52.7391C85.878 51.8501 84.6334 50.9611 83.3888 50.072C82.1441 49.183 80.5439 49.183 79.2992 48.2939C79.1214 48.2939 79.1213 48.4718 79.1213 48.4718C79.8326 49.0052 80.366 49.3608 81.2551 49.5386C82.4997 50.072 83.5666 51.1389 84.8112 52.0279C86.2337 53.0948 87.6561 53.9838 88.9008 55.2284C89.9676 56.2953 90.501 57.8956 91.5679 59.1402C91.5679 59.4958 91.9235 59.1402 91.9235 58.9624Z" fill="url(#paint19_radial_7002_17373)"/>
<path d="M85.1673 66.6079C78.7658 65.0076 70.2304 67.6747 66.3183 73.1868C66.1405 73.3646 66.3182 73.7202 66.6739 73.5424C69.3412 71.5865 72.0085 69.8084 75.0315 68.5638C78.4101 67.1413 81.7887 67.4969 85.3451 66.9635C85.1673 66.7857 85.3451 66.6079 85.1673 66.6079Z" fill="url(#paint20_radial_7002_17373)"/>
<path d="M140.824 68.3864C139.046 66.7862 136.735 65.8971 134.423 65.1859C133.534 64.8303 132.467 64.6525 131.578 64.4747C130.334 64.1191 129.267 64.6525 128.022 64.2969C128.022 64.2969 127.844 64.4747 128.022 64.4747C128.733 64.8303 129.267 64.8303 130.156 64.8303C131.4 64.8303 132.823 65.5415 134.068 66.075C136.379 66.7862 138.335 67.8531 140.469 69.0977C140.646 69.0977 141.002 68.5642 140.824 68.3864Z" fill="url(#paint21_radial_7002_17373)"/>
<path d="M121.621 33.0024C116.286 34.6027 111.129 36.9142 108.106 41.8928C107.751 42.4262 108.462 42.7819 108.817 42.2485C110.596 40.1148 112.196 37.981 114.508 36.3808C116.642 34.9583 119.131 33.8915 121.621 33.1803C121.798 33.1803 121.798 33.0024 121.621 33.0024Z" fill="url(#paint22_radial_7002_17373)"/>
<path d="M115.93 21.8007C115.396 22.5119 114.685 22.8675 113.974 23.401C113.085 24.1122 112.551 25.0012 111.662 25.8903C110.24 27.3127 109.706 28.913 108.995 30.6911C108.817 31.0467 109.351 31.2245 109.529 31.0467C109.884 30.5132 110.062 30.1576 110.418 29.6242C110.951 28.3796 111.484 27.1349 112.551 26.0681C113.085 25.5346 113.44 24.8234 113.974 24.29C114.685 23.401 115.574 22.8676 116.107 21.9785C116.107 21.8007 115.93 21.6229 115.93 21.8007Z" fill="url(#paint23_radial_7002_17373)"/>
<path d="M104.193 22.8671C100.459 26.2455 96.0143 30.6906 95.6587 36.0249C95.6587 36.5583 96.3699 36.3805 96.5477 36.0249C97.4368 33.5356 98.148 31.2241 99.3926 28.9126C100.637 26.7789 102.593 24.823 104.193 22.8671C104.549 22.8671 104.371 22.6893 104.193 22.8671Z" fill="url(#paint24_radial_7002_17373)"/>
<path d="M87.8342 31.7577C87.3008 29.8019 86.5895 27.8459 86.4117 25.8901C86.4117 25.7123 86.0561 25.8901 86.0561 25.8901C85.8783 28.0238 85.8782 30.1574 87.1229 32.1133C87.4785 32.4689 88.012 32.1134 87.8342 31.7577Z" fill="url(#paint25_radial_7002_17373)"/>
<defs>
<radialGradient id="paint0_radial_7002_17373" cx="0" cy="0" r="1" gradientUnits="userSpaceOnUse" gradientTransform="translate(80.0535 104.761) scale(97.9993 97.9918)">
<stop stop-color="#F7EDC1"/>
<stop offset="0.0589225" stop-color="#F7ECAE"/>
<stop offset="0.1794" stop-color="#F7E97C"/>
<stop offset="0.3492" stop-color="#F8E42F"/>
<stop offset="0.4424" stop-color="#F8E103"/>
<stop offset="0.7134" stop-color="#F8C304"/>
<stop offset="1" stop-color="#F89E05"/>
</radialGradient>
<radialGradient id="paint1_radial_7002_17373" cx="0" cy="0" r="1" gradientUnits="userSpaceOnUse" gradientTransform="translate(80.0518 104.761) scale(98.0003 97.9929)">
<stop stop-color="#F7EDC1"/>
<stop offset="0.0589225" stop-color="#F7ECAE"/>
<stop offset="0.1794" stop-color="#F7E97C"/>
<stop offset="0.3492" stop-color="#F8E42F"/>
<stop offset="0.4424" stop-color="#F8E103"/>
<stop offset="0.7134" stop-color="#F8C304"/>
<stop offset="1" stop-color="#F89E05"/>
</radialGradient>
<radialGradient id="paint2_radial_7002_17373" cx="0" cy="0" r="1" gradientUnits="userSpaceOnUse" gradientTransform="translate(80.0528 104.759) scale(98.001 97.9935)">
<stop stop-color="#F7EDC1"/>
<stop offset="0.0589225" stop-color="#F7ECAE"/>
<stop offset="0.1794" stop-color="#F7E97C"/>
<stop offset="0.3492" stop-color="#F8E42F"/>
<stop offset="0.4424" stop-color="#F8E103"/>
<stop offset="0.7134" stop-color="#F8C304"/>
<stop offset="1" stop-color="#F89E05"/>
</radialGradient>
<radialGradient id="paint3_radial_7002_17373" cx="0" cy="0" r="1" gradientUnits="userSpaceOnUse" gradientTransform="translate(85.3534 1.43732) scale(65.5471 65.542)">
<stop offset="0.0588054" stop-color="#F8EECC"/>
<stop offset="0.1192" stop-color="#F3EDB9"/>
<stop offset="0.2418" stop-color="#E9EC89"/>
<stop offset="0.3508" stop-color="#DEEB5C"/>
<stop offset="0.4969" stop-color="#A8D545"/>
<stop offset="0.7495" stop-color="#43A729"/>
<stop offset="1" stop-color="#2E9332"/>
</radialGradient>
<radialGradient id="paint4_radial_7002_17373" cx="0" cy="0" r="1" gradientUnits="userSpaceOnUse" gradientTransform="translate(85.3449 1.43831) scale(65.5565 65.5518)">
<stop offset="0.0588054" stop-color="#F8EECC"/>
<stop offset="0.1192" stop-color="#F3EDB9"/>
<stop offset="0.2418" stop-color="#E9EC89"/>
<stop offset="0.3508" stop-color="#DEEB5C"/>
<stop offset="0.4969" stop-color="#A8D545"/>
<stop offset="0.7495" stop-color="#43A729"/>
<stop offset="1" stop-color="#2E9332"/>
</radialGradient>
<radialGradient id="paint5_radial_7002_17373" cx="0" cy="0" r="1" gradientUnits="userSpaceOnUse" gradientTransform="translate(85.3527 1.43785) scale(65.5504 65.5454)">
<stop offset="0.0588054" stop-color="#F8EECC"/>
<stop offset="0.1192" stop-color="#F3EDB9"/>
<stop offset="0.2418" stop-color="#E9EC89"/>
<stop offset="0.3508" stop-color="#DEEB5C"/>
<stop offset="0.4969" stop-color="#A8D545"/>
<stop offset="0.7495" stop-color="#43A729"/>
<stop offset="1" stop-color="#2E9332"/>
</radialGradient>
<radialGradient id="paint6_radial_7002_17373" cx="0" cy="0" r="1" gradientUnits="userSpaceOnUse" gradientTransform="translate(85.354 1.43595) scale(65.5488 65.5484)">
<stop offset="0.0588054" stop-color="#F8EECC"/>
<stop offset="0.1192" stop-color="#F3EDB9"/>
<stop offset="0.2418" stop-color="#E9EC89"/>
<stop offset="0.3508" stop-color="#DEEB5C"/>
<stop offset="0.4969" stop-color="#A8D545"/>
<stop offset="0.7495" stop-color="#43A729"/>
<stop offset="1" stop-color="#2E9332"/>
</radialGradient>
<radialGradient id="paint7_radial_7002_17373" cx="0" cy="0" r="1" gradientUnits="userSpaceOnUse" gradientTransform="translate(85.3543 1.4393) scale(65.5461 65.5411)">
<stop offset="0.0588054" stop-color="#F8EECC"/>
<stop offset="0.1192" stop-color="#F3EDB9"/>
<stop offset="0.2418" stop-color="#E9EC89"/>
<stop offset="0.3508" stop-color="#DEEB5C"/>
<stop offset="0.4969" stop-color="#A8D545"/>
<stop offset="0.7495" stop-color="#43A729"/>
<stop offset="1" stop-color="#2E9332"/>
</radialGradient>
<radialGradient id="paint8_radial_7002_17373" cx="0" cy="0" r="1" gradientUnits="userSpaceOnUse" gradientTransform="translate(85.3521 1.43859) scale(65.5465 65.5415)">
<stop offset="0.0588054" stop-color="#F8EECC"/>
<stop offset="0.1192" stop-color="#F3EDB9"/>
<stop offset="0.2418" stop-color="#E9EC89"/>
<stop offset="0.3508" stop-color="#DEEB5C"/>
<stop offset="0.4969" stop-color="#A8D545"/>
<stop offset="0.7495" stop-color="#43A729"/>
<stop offset="1" stop-color="#2E9332"/>
</radialGradient>
<radialGradient id="paint9_radial_7002_17373" cx="0" cy="0" r="1" gradientUnits="userSpaceOnUse" gradientTransform="translate(85.3526 1.44032) scale(65.5463 65.5412)">
<stop offset="0.0588054" stop-color="#F8EECC"/>
<stop offset="0.1192" stop-color="#F3EDB9"/>
<stop offset="0.2418" stop-color="#E9EC89"/>
<stop offset="0.3508" stop-color="#DEEB5C"/>
<stop offset="0.4969" stop-color="#A8D545"/>
<stop offset="0.7495" stop-color="#43A729"/>
<stop offset="1" stop-color="#2E9332"/>
</radialGradient>
<radialGradient id="paint10_radial_7002_17373" cx="0" cy="0" r="1" gradientUnits="userSpaceOnUse" gradientTransform="translate(85.3549 1.4369) scale(65.5493 65.544)">
<stop offset="0.0588054" stop-color="#F8EECC"/>
<stop offset="0.1192" stop-color="#F3EDB9"/>
<stop offset="0.2418" stop-color="#E9EC89"/>
<stop offset="0.3508" stop-color="#DEEB5C"/>
<stop offset="0.4969" stop-color="#A8D545"/>
<stop offset="0.7495" stop-color="#43A729"/>
<stop offset="1" stop-color="#2E9332"/>
</radialGradient>
<radialGradient id="paint11_radial_7002_17373" cx="0" cy="0" r="1" gradientUnits="userSpaceOnUse" gradientTransform="translate(85.3532 1.45264) scale(65.537 65.5312)">
<stop offset="0.0588054" stop-color="#F8EECC"/>
<stop offset="0.1192" stop-color="#F3EDB9"/>
<stop offset="0.2418" stop-color="#E9EC89"/>
<stop offset="0.3508" stop-color="#DEEB5C"/>
<stop offset="0.4969" stop-color="#A8D545"/>
<stop offset="0.7495" stop-color="#43A729"/>
<stop offset="1" stop-color="#2E9332"/>
</radialGradient>
<radialGradient id="paint12_radial_7002_17373" cx="0" cy="0" r="1" gradientUnits="userSpaceOnUse" gradientTransform="translate(85.3538 1.43994) scale(65.5448 65.54)">
<stop offset="0.0588054" stop-color="#F8EECC"/>
<stop offset="0.1192" stop-color="#F3EDB9"/>
<stop offset="0.2418" stop-color="#E9EC89"/>
<stop offset="0.3508" stop-color="#DEEB5C"/>
<stop offset="0.4969" stop-color="#A8D545"/>
<stop offset="0.7495" stop-color="#43A729"/>
<stop offset="1" stop-color="#2E9332"/>
</radialGradient>
<radialGradient id="paint13_radial_7002_17373" cx="0" cy="0" r="1" gradientUnits="userSpaceOnUse" gradientTransform="translate(85.3564 1.4391) scale(65.5399 65.5398)">
<stop offset="0.0588054" stop-color="#F8EECC"/>
<stop offset="0.1192" stop-color="#F3EDB9"/>
<stop offset="0.2418" stop-color="#E9EC89"/>
<stop offset="0.3508" stop-color="#DEEB5C"/>
<stop offset="0.4969" stop-color="#A8D545"/>
<stop offset="0.7495" stop-color="#43A729"/>
<stop offset="1" stop-color="#2E9332"/>
</radialGradient>
<radialGradient id="paint14_radial_7002_17373" cx="0" cy="0" r="1" gradientUnits="userSpaceOnUse" gradientTransform="translate(70.3414 53.2404) scale(85.6513 85.6448)">
<stop stop-color="#F7EDC1"/>
<stop offset="0.0589225" stop-color="#F7ECAE"/>
<stop offset="0.1794" stop-color="#F7E97C"/>
<stop offset="0.3492" stop-color="#F8E42F"/>
<stop offset="0.4424" stop-color="#F8E103"/>
<stop offset="0.7134" stop-color="#F8C304"/>
<stop offset="1" stop-color="#F89E05"/>
</radialGradient>
<radialGradient id="paint15_radial_7002_17373" cx="0" cy="0" r="1" gradientUnits="userSpaceOnUse" gradientTransform="translate(79.1944 40.6081) scale(5.74212 5.74213)">
<stop offset="0.0588054" stop-color="#F8EECC"/>
<stop offset="0.1096" stop-color="#F0EBB8"/>
<stop offset="0.2136" stop-color="#DBE488"/>
<stop offset="0.3602" stop-color="#BBD741"/>
<stop offset="0.4323" stop-color="#A9D020"/>
<stop offset="0.8585" stop-color="#5DB227"/>
<stop offset="1" stop-color="#42A72A"/>
</radialGradient>
<radialGradient id="paint16_radial_7002_17373" cx="0" cy="0" r="1" gradientUnits="userSpaceOnUse" gradientTransform="translate(93.3035 49.8579) scale(22.2966 22.2969)">
<stop offset="0.0588054" stop-color="#F8EECC"/>
<stop offset="0.1096" stop-color="#F0EBB8"/>
<stop offset="0.2136" stop-color="#DBE488"/>
<stop offset="0.3602" stop-color="#BBD741"/>
<stop offset="0.4323" stop-color="#A9D020"/>
<stop offset="0.8585" stop-color="#5DB227"/>
<stop offset="1" stop-color="#42A72A"/>
</radialGradient>
<radialGradient id="paint17_radial_7002_17373" cx="0" cy="0" r="1" gradientUnits="userSpaceOnUse" gradientTransform="translate(99.7793 69.8763) scale(17.1856 17.1855)">
<stop offset="0.0588054" stop-color="#F8EECC"/>
<stop offset="0.1096" stop-color="#F0EBB8"/>
<stop offset="0.2136" stop-color="#DBE488"/>
<stop offset="0.3602" stop-color="#BBD741"/>
<stop offset="0.4323" stop-color="#A9D020"/>
<stop offset="0.8585" stop-color="#5DB227"/>
<stop offset="1" stop-color="#42A72A"/>
</radialGradient>
<radialGradient id="paint18_radial_7002_17373" cx="0" cy="0" r="1" gradientUnits="userSpaceOnUse" gradientTransform="translate(107.728 51.4766) scale(20.5787 20.5771)">
<stop offset="0.0588054" stop-color="#F8EECC"/>
<stop offset="0.1096" stop-color="#F0EBB8"/>
<stop offset="0.2136" stop-color="#DBE488"/>
<stop offset="0.3602" stop-color="#BBD741"/>
<stop offset="0.4323" stop-color="#A9D020"/>
<stop offset="0.8585" stop-color="#5DB227"/>
<stop offset="1" stop-color="#42A72A"/>
</radialGradient>
<radialGradient id="paint19_radial_7002_17373" cx="0" cy="0" r="1" gradientUnits="userSpaceOnUse" gradientTransform="translate(80.9387 47.9428) scale(22.6924 22.6924)">
<stop offset="0.0588054" stop-color="#F8EECC"/>
<stop offset="0.1096" stop-color="#F0EBB8"/>
<stop offset="0.2136" stop-color="#DBE488"/>
<stop offset="0.3602" stop-color="#BBD741"/>
<stop offset="0.4323" stop-color="#A9D020"/>
<stop offset="0.8585" stop-color="#5DB227"/>
<stop offset="1" stop-color="#42A72A"/>
</radialGradient>
<radialGradient id="paint20_radial_7002_17373" cx="0" cy="0" r="1" gradientUnits="userSpaceOnUse" gradientTransform="translate(72.4001 69.4336) scale(18.5367 18.5355)">
<stop offset="0.0588054" stop-color="#F8EECC"/>
<stop offset="0.1096" stop-color="#F0EBB8"/>
<stop offset="0.2136" stop-color="#DBE488"/>
<stop offset="0.3602" stop-color="#BBD741"/>
<stop offset="0.4323" stop-color="#A9D020"/>
<stop offset="0.8585" stop-color="#5DB227"/>
<stop offset="1" stop-color="#42A72A"/>
</radialGradient>
<radialGradient id="paint21_radial_7002_17373" cx="0" cy="0" r="1" gradientUnits="userSpaceOnUse" gradientTransform="translate(134.362 66.6258) scale(4.89399 4.894)">
<stop offset="0.0588054" stop-color="#F8EECC"/>
<stop offset="0.1096" stop-color="#F0EBB8"/>
<stop offset="0.2136" stop-color="#DBE488"/>
<stop offset="0.3602" stop-color="#BBD741"/>
<stop offset="0.4323" stop-color="#A9D020"/>
<stop offset="0.8585" stop-color="#5DB227"/>
<stop offset="1" stop-color="#42A72A"/>
</radialGradient>
<radialGradient id="paint22_radial_7002_17373" cx="0" cy="0" r="1" gradientUnits="userSpaceOnUse" gradientTransform="translate(114.972 37.7312) scale(5.89227 5.89185)">
<stop offset="0.0588054" stop-color="#F8EECC"/>
<stop offset="0.1096" stop-color="#F0EBB8"/>
<stop offset="0.2136" stop-color="#DBE488"/>
<stop offset="0.3602" stop-color="#BBD741"/>
<stop offset="0.4323" stop-color="#A9D020"/>
<stop offset="0.8585" stop-color="#5DB227"/>
<stop offset="1" stop-color="#42A72A"/>
</radialGradient>
<radialGradient id="paint23_radial_7002_17373" cx="0" cy="0" r="1" gradientUnits="userSpaceOnUse" gradientTransform="translate(112.531 26.4258) scale(4.15305 4.15304)">
<stop offset="0.0588054" stop-color="#F8EECC"/>
<stop offset="0.1096" stop-color="#F0EBB8"/>
<stop offset="0.2136" stop-color="#DBE488"/>
<stop offset="0.3602" stop-color="#BBD741"/>
<stop offset="0.4323" stop-color="#A9D020"/>
<stop offset="0.8585" stop-color="#5DB227"/>
<stop offset="1" stop-color="#42A72A"/>
</radialGradient>
<radialGradient id="paint24_radial_7002_17373" cx="0" cy="0" r="1" gradientUnits="userSpaceOnUse" gradientTransform="translate(96.5424 15.707) scale(25.6476 25.6477)">
<stop offset="0.0588054" stop-color="#F8EECC"/>
<stop offset="0.1096" stop-color="#F0EBB8"/>
<stop offset="0.2136" stop-color="#DBE488"/>
<stop offset="0.3602" stop-color="#BBD741"/>
<stop offset="0.4323" stop-color="#A9D020"/>
<stop offset="0.8585" stop-color="#5DB227"/>
<stop offset="1" stop-color="#42A72A"/>
</radialGradient>
<radialGradient id="paint25_radial_7002_17373" cx="0" cy="0" r="1" gradientUnits="userSpaceOnUse" gradientTransform="translate(87.0486 28.991) scale(2.38654 2.38654)">
<stop offset="0.0588054" stop-color="#F8EECC"/>
<stop offset="0.1096" stop-color="#F0EBB8"/>
<stop offset="0.2136" stop-color="#DBE488"/>
<stop offset="0.3602" stop-color="#BBD741"/>
<stop offset="0.4323" stop-color="#A9D020"/>
<stop offset="0.8585" stop-color="#5DB227"/>
<stop offset="1" stop-color="#42A72A"/>
</radialGradient>
</defs>
</svg>
