<svg width="200" height="200" viewBox="0 0 200 200" fill="none" xmlns="http://www.w3.org/2000/svg">
<path d="M125.453 108.084C125.27 109.177 125.818 109.724 126.547 110.27C141.582 122.585 156.604 134.914 171.614 147.258C171.979 147.804 171.614 148.351 171.249 148.715L169.425 150.902C168.695 151.63 167.782 151.995 166.688 151.995L165.228 153.088C164.133 154.363 163.221 155.639 163.039 157.279L162.674 157.825C162.126 158.372 161.761 159.101 161.761 160.012C161.761 160.741 161.032 161.469 160.302 161.287C158.66 161.287 157.747 162.38 156.835 163.656C155.923 165.296 154.828 166.753 153.368 167.846L151.726 168.757C150.996 168.757 150.814 169.304 150.814 169.851V170.762C150.449 171.855 149.537 172.219 148.625 171.855L148.26 171.673C147.347 170.944 146.253 170.944 145.158 170.944L142.056 170.762C140.961 170.579 140.049 170.762 138.954 170.944C136.947 171.673 134.94 172.037 132.933 172.401C132.386 172.584 131.839 172.766 131.839 173.312C131.839 174.224 131.291 174.588 130.744 174.952C130.014 175.135 129.284 174.77 128.919 174.224C127.825 172.948 126.365 172.219 124.54 172.219L121.621 172.037C120.344 171.855 119.067 171.49 117.972 170.762C117.425 170.397 117.06 170.397 116.512 170.579L115.782 170.944C114.505 171.308 113.593 170.944 113.228 169.668C112.863 168.393 112.681 168.211 111.404 168.211C109.396 168.393 107.207 168.393 105.382 167.3C104.653 166.753 103.558 167.3 102.828 167.118L101.733 166.935C100.456 166.571 99.3614 166.753 98.4491 167.118L97.5368 167.664C96.6246 168.029 96.0772 167.846 95.5298 167.118L94.2526 165.66C93.1579 164.567 91.6982 164.202 90.4211 163.838C88.5177 164.481 86.565 164.969 84.5825 165.296C83.3053 165.478 82.393 166.207 81.4807 166.753C78.7439 168.211 76.1895 169.668 73.2702 170.397C71.2632 170.944 69.2561 170.944 67.4316 169.851H66.5193C60.3158 170.397 54.6596 169.122 49.5509 165.478C48.0912 164.385 46.9965 163.291 46.2667 161.834C46.0842 161.105 45.5368 160.741 44.6246 160.558L43.1649 160.376C40.793 159.647 39.3333 158.19 38.9684 155.821C38.786 154.363 38.0561 153.452 36.9614 152.541L32.7649 148.715C31.6702 147.622 30.9404 146.529 30.5754 145.071L29.4807 141.609C29.4807 141.063 29.1158 140.516 28.7509 140.152C27.8386 139.423 26.7439 138.694 26.1965 137.601C23.6421 133.592 22.9123 129.22 23.2772 124.664C23.4596 123.753 23.6421 122.842 24.1895 122.114V120.838C22.9123 118.47 22 115.919 22 113.186C22.1825 108.813 24.007 104.987 27.1088 101.889C27.4737 101.525 28.0211 101.525 28.386 101.707C28.7509 102.071 29.1158 101.889 29.2982 101.525C30.2105 100.614 31.1228 99.7028 32.4 99.3383L32.9474 98.6095C33.6772 96.6053 35.1368 95.3299 36.9614 94.6011C37.3263 94.6011 37.5088 94.4189 37.6912 94.0545C39.1509 91.3214 41.3404 89.135 43.5298 86.9486C44.4421 86.2198 45.3544 85.3088 45.9018 84.3978C46.2667 83.8511 46.6316 83.4867 46.6316 82.9401C46.6316 82.2113 46.9965 81.6647 47.7263 81.6647C48.4561 81.4825 48.8211 81.8469 49.186 82.5757L49.3684 82.9401C50.2807 81.8469 51.0105 80.9359 52.1053 80.2071C53.7474 79.2961 55.3895 78.7495 57.0316 77.6563C57.5789 77.1097 58.6737 77.2919 59.4035 77.6563C59.9509 77.8385 60.3158 77.6563 60.6807 77.4741C64.6947 75.4698 68.5263 73.2834 73.0877 72.1902H73.2702C74.5474 72.008 75.6421 71.4614 76.5544 70.5504C78.5614 68.9106 81.1158 68.7284 83.6702 69.0928C87.3193 69.8216 90.6035 71.097 93.5228 73.6478L94.2526 74.0122C94.0702 74.741 93.3403 74.9232 92.793 75.1054C92.0632 74.9232 91.8807 74.0122 91.1509 73.6478C88.5965 72.008 86.0421 70.9148 82.9403 70.5504C81.4807 70.186 80.021 70.3682 78.7439 70.9148C77.2842 71.6436 76.3719 72.5546 76.3719 74.1944C76.7368 76.1987 77.6491 76.7453 79.4737 76.1987C80.7509 75.8342 81.8456 75.8342 82.9403 76.1987H84.9474C86.407 75.8342 88.0491 75.8342 89.6912 75.8342L91.5158 76.1987C91.8807 76.9275 91.3333 77.2919 90.9684 77.6563L86.9544 77.8385L85.6772 78.2029C86.2246 79.4783 87.5018 80.3893 88.7789 80.3893C89.1439 80.3893 89.3263 80.2071 89.6912 80.5715C89.8737 81.1181 89.6912 81.6647 89.3263 82.0291C88.2316 82.3935 87.1368 81.8469 86.2246 81.3003C85.6772 81.1181 85.3123 80.5715 84.9474 80.0249C84.0351 79.2961 83.3053 78.3851 82.2105 77.8385L81.1158 77.4741C83.3053 78.7495 83.4877 80.9359 83.6702 82.9401C83.8526 84.3978 83.4877 85.8554 83.3053 87.1308C82.9403 88.7706 82.393 90.046 81.6632 91.6859C82.9403 90.7748 84.2175 90.2282 85.4947 89.6816L88.9614 88.5884L90.0561 88.4062L92.6105 88.224C93.1579 88.224 93.1579 88.0418 92.9754 87.6774C92.793 87.1308 92.2456 86.7664 92.4281 86.0376C92.6105 85.491 92.9754 85.1266 93.5228 85.1266C94.2526 85.8554 94.4351 86.9486 94.9825 87.6774C95.5298 88.4062 96.0772 89.135 96.9895 89.4994C97.9017 90.046 98.814 90.7748 99.5439 91.6859C99.9088 92.0503 100.274 92.2325 100.821 91.6859C102.098 90.7748 103.193 90.7748 104.47 91.8681C105.2 92.5969 105.93 92.7791 106.66 92.4147C106.842 92.4147 107.025 92.5969 106.842 92.7791C106.477 93.5079 107.025 94.0545 107.572 94.4189L108.667 95.3299L114.323 99.885C114.87 100.432 115.6 100.796 116.33 100.432L120.526 100.614C121.256 100.796 121.256 101.525 121.256 102.071C121.074 102.436 120.709 102.254 120.344 102.254L116.877 102.071C118.337 102.982 119.796 104.44 121.256 105.533L122.533 106.626L123.811 107.72C124.358 108.266 124.905 108.448 125.453 108.084Z" fill="url(#paint0_linear_7002_11347)"/>
<path d="M90.9687 77.6565L91.6986 76.3811C91.6986 75.8345 92.2459 75.47 92.7933 75.1056L94.2529 74.1946C95.5301 73.8302 96.8073 73.648 98.0845 74.1946C98.267 74.1946 98.4494 74.1946 98.4494 73.8302L99.1793 69.4574C99.1793 68.9108 98.8143 68.9108 98.4494 68.7286C96.4424 68.3642 94.4354 68.5464 92.2459 68.7286L88.2319 69.2752C87.5021 69.2752 86.9547 69.2752 86.5898 68.5464C86.4073 67.9998 86.5898 67.2709 87.1372 66.9065C89.5091 65.2667 91.6986 63.6269 94.4354 62.7159C98.267 61.6227 101.369 62.7159 103.558 66.1777L105.383 69.093C106.66 66.3599 108.12 63.8091 109.032 60.8939V59.6184C109.032 58.8896 109.397 58.343 110.309 58.343C111.039 58.343 111.586 58.7074 111.586 59.6184C111.769 61.0761 111.951 62.5337 111.769 64.1735L111.951 65.6311L112.681 63.6269L116.513 50.3261C116.695 49.7795 116.695 49.0507 117.607 49.0507C118.52 49.0507 118.885 49.4151 119.067 50.3261C119.797 48.6863 119.797 48.3219 118.52 47.5931C114.506 45.5889 110.674 43.5846 106.295 42.3092H104.653C103.923 42.3092 103.193 41.9448 103.193 41.216C103.011 40.4872 103.376 39.9406 104.106 39.7584L107.39 39.5762C111.039 39.5762 114.688 39.7584 118.337 40.8516C120.344 41.3982 121.986 42.3092 123.263 44.1312C125.088 46.6821 126.73 49.0507 127.278 52.1481V54.5168C127.642 54.699 127.642 54.3346 127.825 54.3346L133.481 45.7711C133.846 45.4067 133.846 45.0423 133.481 44.6779C132.021 43.038 130.379 41.5804 128.737 40.305C128.007 39.7584 128.007 39.2118 128.555 38.483C128.92 37.9364 129.467 37.9364 130.014 38.1186C132.021 38.8474 134.028 39.7584 135.853 40.8516C136.4 41.216 136.583 41.216 136.948 40.6694C139.32 36.6609 141.874 32.8347 143.881 28.644C144.246 27.733 144.611 27.0042 144.611 26.0932C144.611 25.3644 145.158 25 145.888 25C146.618 25 147.165 25.3644 147.165 26.2754L146.983 29.7373C146.435 35.0211 145.523 40.305 143.881 45.4067C143.334 46.6821 143.516 47.7753 144.428 48.8685L148.26 45.4067C153.384 40.8193 159.326 37.2345 165.776 34.8389C166.506 34.6567 167.053 34.6567 167.6 35.3855C168.148 35.9321 167.783 36.4787 167.418 37.0254C165.046 40.8516 162.127 44.1312 159.39 47.5931C157.748 49.9617 156.106 52.3304 154.099 54.699L158.66 53.6058C162.856 52.5126 167.053 51.9659 171.432 52.5126C173.439 52.877 175.263 53.4236 176.906 54.3346C177.635 54.699 178 55.2456 178 55.9744C177.818 56.7032 177.27 56.8854 176.723 57.0676C173.256 57.7964 169.607 58.343 166.323 59.6184C162.054 61.0984 158.05 63.2513 154.463 65.9955C159.576 65.7243 164.671 66.7921 169.242 69.093C169.972 69.4574 170.52 69.8218 170.337 70.5506C170.155 71.4616 169.607 71.6438 168.878 71.6438C160.12 72.1904 151.909 74.9234 143.881 78.2031L143.334 78.5675C145.341 79.2963 147.165 80.0251 148.99 81.1183C153.734 83.4869 157.93 86.5844 161.214 90.5928L161.944 91.5039C162.127 92.0505 162.127 92.5971 161.762 93.1437C161.397 93.5081 160.849 93.5081 160.302 93.1437C155.011 90.775 149.355 89.1352 143.516 88.4064L142.604 88.2242C142.421 88.2242 142.239 88.042 142.239 88.4064C144.428 89.6818 146.253 90.9572 148.077 92.7793C148.625 93.1437 148.807 93.6903 148.442 94.4191C148.077 95.1479 147.53 95.1479 146.8 94.9657C142.056 93.6903 137.13 92.9615 132.021 92.5971C134.67 94.7393 136.844 97.4071 138.407 100.432C138.772 100.978 138.955 101.707 138.225 102.254C137.495 102.8 136.948 102.436 136.4 102.072C133.299 99.5208 128.92 97.3343 125.818 96.6055C126.365 97.6987 126.913 98.6097 127.095 99.703C127.46 102.436 126.913 104.805 125.818 107.173L125.453 108.084C124.906 109.177 124.358 108.266 123.811 108.084L124.541 106.262C125.453 104.44 126 102.436 125.635 100.25C125.453 98.7919 124.723 97.6987 123.993 96.7877C123.811 96.6055 123.628 96.2411 123.263 96.2411C121.804 95.6945 120.344 95.5123 118.885 95.6945C118.885 96.0589 119.067 96.2411 119.249 96.2411C121.804 98.2453 122.899 100.978 123.081 104.076V106.08C123.081 106.444 123.081 106.809 122.534 106.991L121.439 105.898C121.256 104.622 120.892 103.529 121.256 102.436L120.892 100.978L119.614 98.9742C118.885 98.2453 118.702 98.2453 118.337 98.9742C117.79 99.8852 117.242 100.614 116.148 100.978C115.235 101.343 114.87 100.614 114.141 100.25L115.783 99.1563C117.242 98.0631 117.425 96.7877 116.33 95.1479L115.783 94.4191C114.323 93.5081 113.411 92.0505 112.681 90.5928L110.492 87.3132L109.032 85.4912C109.762 88.4064 109.032 91.3217 108.12 94.2369L107.572 94.7835C106.478 94.2369 106.66 93.5081 106.842 92.5971L107.207 90.2284C107.572 88.7708 107.39 88.5886 106.295 87.8598C105.383 87.3132 104.47 86.7666 103.923 85.8556L103.741 85.4912C103.376 83.8514 102.281 83.6692 100.821 83.4869C98.6319 83.3047 96.4424 83.6692 94.4354 85.1268L93.7056 85.4912C93.3407 85.6734 92.7933 85.8556 92.6108 86.22C91.881 87.131 91.1512 88.042 90.0564 88.7708L89.3266 88.953C87.867 88.5886 87.6845 88.2242 88.0494 86.5844L88.5968 84.0336C88.9617 83.3047 88.7793 82.5759 89.3266 82.2115L89.6915 80.7539C89.874 79.4785 90.0564 78.5675 90.9687 77.6565Z" fill="url(#paint1_linear_7002_11347)"/>
<path d="M142.239 88.5882L141.874 88.2241H142.603L142.239 88.5882Z" fill="#C0D5BB"/>
<path d="M165.228 150.72C164.498 151.449 163.951 151.084 163.403 150.72L159.024 147.622C156.835 145.983 155.01 144.16 153.003 142.338C146.8 136.872 140.779 131.224 134.575 126.122C133.845 125.576 133.298 125.211 132.386 125.211H127.459C126.547 125.394 126 125.576 125.452 126.122C123.993 127.216 122.351 127.944 121.074 129.038C120.891 129.22 120.709 129.402 120.344 129.22L119.979 128.673C119.979 128.309 120.344 128.127 120.709 127.944L126.547 123.754L124.175 124.847L119.796 127.216L119.066 127.58L114.505 121.567C113.593 120.474 112.681 120.292 111.586 121.021L110.491 121.75L105.2 123.754C102.463 124.665 99.7261 125.94 96.9893 127.216C96.6244 127.216 96.4419 127.58 95.8946 127.398C95.3472 126.487 95.3472 125.576 95.1647 124.665L94.2525 118.652C94.07 117.377 94.2525 116.101 94.4349 115.008C95.1647 110.635 95.8946 106.262 97.1718 101.89C97.9016 99.5209 98.8139 97.3345 100.091 95.1481L101.551 93.1438C102.098 92.5972 102.828 92.5972 103.375 93.1438L128.919 113.915L162.126 141.063L169.059 146.711C169.242 147.076 169.059 147.258 168.877 147.622C167.782 148.716 166.688 149.991 165.228 150.72Z" fill="#FFD531"/>
<path d="M133.481 127.034L140.779 133.411C144.428 137.419 147.165 142.157 150.267 146.529C151.726 148.898 152.821 151.084 153.369 153.817C153.916 157.279 152.821 160.195 150.267 162.381C146.8 165.296 142.786 166.572 138.407 166.936C131.291 167.3 124.54 166.025 117.607 164.567C116.695 164.385 115.6 164.385 114.87 163.656V162.928C115.783 161.47 116.512 159.648 117.79 158.373L119.067 155.822C121.074 151.813 123.081 147.987 124.54 143.796C125.453 141.428 126.547 139.423 128.007 137.419C129.649 134.868 130.744 131.953 131.839 129.22L132.751 127.398C132.751 127.216 132.933 126.669 133.481 127.034ZM77.1019 152.36C76.5545 152.36 76.5545 151.813 76.1896 151.631C76.1896 150.902 76.7369 150.72 77.2843 150.538L87.5019 144.343C95.7567 139.606 103.793 134.499 111.586 129.038C111.951 128.674 112.316 128.309 112.863 128.491C113.593 128.856 113.776 129.585 114.323 130.131L116.695 133.411L117.06 134.504C116.877 135.597 116.33 136.69 115.783 137.784C112.642 145.067 108.792 152.024 104.288 158.555C103.376 159.466 102.463 160.195 101.186 160.377C98.0843 160.923 95.165 160.377 92.4282 159.101C87.6843 156.915 83.1229 154.728 78.379 152.906L77.1019 152.36Z" fill="#FFD531"/>
<path d="M133.48 127.033C132.568 127.398 132.386 128.309 132.203 129.038C130.744 133.228 128.554 137.055 126 140.881C125.27 141.974 125.087 143.249 124.54 144.525L119.796 154.728C118.884 156.732 117.789 158.554 116.512 160.376C115.782 161.287 115.417 162.563 114.87 163.656C114.687 164.203 114.505 164.749 113.775 165.114L108.849 164.02C107.937 163.109 107.754 162.198 108.119 160.923L109.214 158.919C112.498 153.453 115.417 147.987 118.154 142.338C120.526 137.601 122.898 132.864 125.635 128.309C126.365 127.033 127.277 126.305 128.737 126.669H131.656C132.203 126.669 132.933 126.487 133.48 127.033Z" fill="#EBC22F"/>
<path d="M113.958 165.113L114.87 163.656L120.891 165.113C125.944 166.095 131.071 166.644 136.218 166.753C139.684 166.753 143.151 166.389 146.253 164.749C149.172 163.291 151.726 161.469 152.821 158.007C153.733 155.274 153.186 152.541 151.909 150.173C150.267 146.529 147.895 143.431 145.523 139.969C144.246 137.965 142.786 135.961 141.144 134.139L140.779 133.41L147.712 139.605L157.018 147.804L162.856 151.813C163.221 151.995 163.586 152.177 163.951 152.724L162.674 153.817C162.126 154.363 161.944 154.91 161.944 155.639C162.126 156.55 161.579 157.096 161.032 157.643C160.302 158.007 160.119 158.736 160.302 159.465C160.302 159.829 160.119 160.194 159.754 160.012C157.93 159.829 156.653 160.741 155.923 162.38L155.558 162.927L154.098 164.385C151.179 167.118 147.347 167.846 143.698 168.575C140.414 169.122 136.947 169.486 133.481 169.304C126.912 168.94 120.709 167.846 114.688 165.66C114.323 165.478 113.958 165.478 113.958 165.113Z" fill="#F5CA2F"/>
<path d="M112.863 128.673C111.403 129.038 110.491 130.131 109.396 131.042L98.2665 138.33L84.7648 146.165L77.284 150.538C76.9191 150.902 76.3718 151.084 76.1893 151.631C74.9121 150.72 74.1823 149.627 73.8174 148.169C73.8174 147.44 73.8174 146.894 74.7297 146.711C75.6419 146.711 76.3718 146.165 77.1016 145.618C88.9612 137.966 100.456 130.131 112.133 122.296C112.498 122.114 112.681 121.568 113.228 122.114C113.593 124.118 113.045 125.94 113.045 127.945L112.863 128.673Z" fill="#EBC22F"/>
<path d="M77.1019 152.359C78.3791 152.542 79.6563 153.27 80.9335 153.817C84.7651 155.092 88.4142 157.097 92.0633 158.736C94.9826 160.012 98.0844 160.741 101.186 160.194C103.011 159.83 104.105 158.554 105.018 157.279C109.418 150.367 113.262 143.117 116.512 135.597L116.877 134.503L117.06 134.321L119.067 137.419L114.141 147.804L111.039 153.088C109.594 155.614 108.195 158.165 106.842 160.741C106.295 162.198 106.66 163.656 107.755 164.931H106.842C105.93 164.567 105.018 164.567 104.288 165.113H103.376L96.4423 162.745C94.6177 161.834 92.6107 161.469 90.6037 160.923C89.144 160.741 87.6844 160.376 86.2247 159.647H85.8598C84.4002 158.919 82.9405 158.008 81.6633 156.914C81.116 156.55 80.7511 156.186 81.116 155.275C81.2984 154.91 81.116 154.546 80.5686 154.364C79.2914 153.817 78.0142 153.27 77.1019 152.359Z" fill="#F5CA2F"/>
<path d="M53.9299 156.368C52.6527 155.821 51.558 155.092 50.6457 154.181C49.551 153.27 49.3685 151.995 49.9159 150.537L50.8282 147.804L50.2808 148.169L49.0036 149.262C46.4492 151.084 44.6246 150.902 42.9825 148.169C41.7053 145.982 40.9755 143.614 40.0632 141.427L38.9685 138.876L40.6106 139.787C42.9825 141.245 45.5369 141.245 48.2738 140.881C50.6457 140.516 52.8352 140.152 55.2071 140.881C56.4843 141.063 57.3966 141.792 57.9439 142.703C59.2211 145.254 59.951 148.169 60.3159 151.084C59.951 153.999 57.3966 156.368 54.4773 156.368H53.9299Z" fill="#EE783B"/>
<path d="M62.8702 78.0208C65.6071 76.5632 68.3439 76.381 71.4457 76.5632C72.358 76.7454 73.4527 76.7454 74.365 77.1098C76.1895 78.0208 77.2843 79.4784 78.0141 81.4826C79.1088 83.8513 78.5615 86.0377 77.1018 88.0419C75.6422 90.0462 73.6352 91.5038 71.0808 91.686C68.8913 92.0504 67.2492 90.5928 67.7966 88.2241C68.3439 86.7665 69.4387 85.6733 70.7159 84.5801C71.0808 84.2157 71.8106 83.8513 71.993 83.3047C72.358 82.7581 72.5404 82.2115 71.993 81.8471C71.6281 81.3004 71.0808 81.3004 70.5334 81.4826C69.2562 82.0293 67.979 82.5759 66.7018 82.7581C65.972 82.9403 65.4246 82.3937 65.0597 81.8471C63.965 80.936 63.4176 79.8428 62.8702 78.5674V78.0208Z" fill="#FCD47B"/>
<path d="M45.3543 120.291C48.6385 119.38 51.7403 119.927 54.4771 121.931C54.6596 122.113 55.0245 122.113 55.0245 122.478C55.9368 124.846 57.0315 127.215 57.214 129.948C57.5789 133.045 54.842 136.507 51.9227 137.054L49.3684 136.143C47.9087 135.232 47.5438 133.774 47.9087 131.952L48.6385 129.584C48.821 128.855 48.821 128.308 48.2736 127.944C47.7263 127.397 47.1789 127.579 46.6315 127.944L46.4491 128.126C43.1649 130.495 40.428 128.126 39.8806 125.211L39.6982 123.935C39.5157 123.389 39.8806 123.207 40.2456 123.024C41.8877 121.749 43.5298 120.838 45.3543 120.291Z" fill="#FBB55A"/>
<path d="M26.1966 134.868C25.2843 133.41 25.1019 131.77 24.7369 130.313C24.372 128.308 24.372 126.304 24.7369 124.3C25.2843 121.567 27.4738 120.109 30.2106 120.838C33.6773 121.931 35.8668 124.482 36.5966 127.944C36.9615 130.13 37.144 132.317 37.144 134.685C36.2317 136.507 34.5896 137.054 32.765 137.418C30.0282 137.783 27.8387 136.872 26.1966 134.868Z" fill="#EE783B"/>
<path d="M58.856 100.796C60.7584 99.5007 62.8978 98.5925 65.152 98.1235C67.4061 97.6546 69.7307 97.634 71.9929 98.0631C75.0946 98.7919 77.2841 100.796 78.0139 104.987C77.649 109.177 75.8244 112.093 71.9929 113.732C71.263 113.915 70.5332 114.461 69.8034 114.097C68.8911 112.639 68.1613 111.182 68.1613 109.542C68.5262 109.36 68.8911 109.724 69.0736 109.906C69.8034 110.453 70.5332 110.817 71.4455 110.635C70.8981 110.271 70.5332 109.906 70.3507 109.36C70.1683 108.995 69.9858 108.631 70.3507 108.449C70.5332 108.084 70.8981 108.449 71.0806 108.631L72.3578 109.542C73.27 110.271 73.8174 110.088 74.3648 109.177C74.9122 108.449 74.9122 108.084 74.1823 107.538C73.8174 107.173 73.8174 106.991 74.1823 106.809C75.0946 106.627 74.9122 106.08 74.7297 105.533L74.5472 104.805C74.5472 104.258 74.1823 103.894 73.635 104.076L72.9051 103.894L72.5402 103.711L72.7227 103.165C73.635 102.254 73.635 102.254 72.7227 101.343C71.9929 100.614 71.0806 100.067 70.1683 99.8851C69.4385 99.8851 69.0736 99.8851 68.8911 100.614C68.7086 100.796 68.7086 101.343 68.3437 101.161C67.9788 101.161 67.9788 100.796 67.9788 100.432C67.7964 100.067 67.9788 99.5207 67.249 99.7029C66.7016 99.7029 65.9718 99.5207 65.9718 100.432C65.7893 100.978 65.6069 100.978 65.242 100.614C64.6946 100.25 63.235 100.614 63.0525 101.161C62.87 101.343 63.0525 101.525 63.235 101.707L64.1472 102.8V103.347L63.5999 103.529L62.3227 102.983C61.9578 102.618 61.7753 102.8 61.7753 103.165C61.5929 103.711 61.7753 104.258 62.1402 104.622L63.5999 105.898C62.3227 106.262 61.4104 105.533 60.6806 104.805L58.1262 102.436C57.7613 101.525 58.4911 101.161 58.856 100.796Z" fill="#FBB55A"/>
<path d="M63.6 106.08C62.6877 105.715 62.1404 104.986 61.593 104.44C61.2281 103.893 61.4106 103.164 61.593 102.618C61.7755 102.253 62.1404 102.435 62.3228 102.618C62.8702 102.982 63.4176 103.164 64.1474 103.164L62.8702 101.707C62.6877 101.342 62.5053 101.16 62.8702 100.978L63.4176 100.613C64.6948 99.8847 64.6948 99.8847 65.607 100.796C65.972 100.431 65.2421 99.8847 65.7895 99.7025L66.7018 99.5203C68.3439 98.9737 68.1614 100.249 68.3439 101.16L68.5263 100.978C69.0737 99.3381 69.0737 99.3381 70.7158 99.8847C71.993 100.249 72.7228 100.978 73.4527 101.889C73.8176 102.253 74 102.8 73.2702 103.164L72.5404 103.711H72.7228C73.2702 103.893 74.1825 103.529 74.5474 104.075L75.2772 106.262C75.2772 106.626 75.0948 106.808 74.7298 106.808L74.1825 107.173C74.3649 107.719 75.2772 107.355 75.0948 108.084C74.9123 109.177 74.3649 109.906 73.4527 110.27C73.0877 110.452 72.9053 110.27 72.7228 110.088L70.3509 108.266C70.3509 109.541 71.0807 110.27 71.993 110.635C70.7158 111.363 69.8035 110.817 68.8913 110.088L68.1614 109.359C67.979 108.084 68.3439 106.808 68.8913 105.533C69.2562 104.986 69.4386 104.258 68.7088 103.711C67.979 103.347 67.4316 103.529 66.8842 104.075C65.972 104.986 65.0597 105.897 63.6 106.08Z" fill="#FCD47B"/>
<path d="M69.2564 162.381L64.6949 157.643C68.8763 155.736 73.4173 154.742 78.0142 154.728L79.4739 155.092C79.6564 155.275 79.8388 155.275 79.8388 155.639C79.6564 156.368 80.0213 156.914 80.3862 157.279L83.4879 159.647L83.6704 160.012C83.6704 161.287 82.0283 162.927 80.9335 163.292V161.287C80.5686 160.012 80.0213 160.012 79.109 160.741L78.7441 160.923C78.5616 161.105 78.1967 161.47 77.8318 161.287C77.4669 161.105 77.6493 160.741 77.8318 160.559C77.8318 160.012 77.6493 160.012 77.2844 160.012C76.1897 159.83 75.0949 160.194 74.0002 160.559C73.6353 160.741 73.4528 161.105 73.4528 161.652C73.4528 162.198 73.0879 162.381 72.5406 162.016C71.6283 161.287 70.716 161.652 69.6213 162.198L69.2564 162.381Z" fill="#EE783B"/>
<path d="M47.5437 99.1564C45.7192 96.059 45.1718 92.7793 46.449 89.3175C46.8139 89.6819 46.8139 90.0463 46.9964 90.5929C47.3613 91.6861 47.9086 92.5971 49.1858 93.3259L48.6385 91.6861L48.8209 91.1395C49.0034 90.9573 49.1858 91.1395 49.3683 91.3217L50.6455 92.7793C50.8279 92.9615 51.1929 93.3259 51.5578 93.1437C52.47 92.9615 53.1999 92.4149 53.9297 91.8683C54.2946 91.6861 54.1122 91.3217 53.9297 91.1395L52.47 89.1353C52.2876 88.9531 52.1051 88.7709 52.2876 88.5887C52.47 88.2243 52.6525 88.4065 53.0174 88.5887L55.2069 89.4997C55.5718 89.8641 55.9367 89.6819 56.1192 89.1353C56.3016 88.7709 56.849 88.2243 56.1192 88.0421L55.5718 87.4955C55.5718 87.1311 55.9367 87.1311 56.1192 86.9489C57.0315 86.7667 57.0315 86.4023 56.849 85.1268C56.849 84.398 56.3016 84.398 55.7543 84.398L53.9297 84.2158L53.3823 84.0336C53.3823 83.6692 53.5648 83.487 53.7472 83.487L55.2069 82.7582C56.1192 82.576 56.1192 82.576 55.5718 81.665C55.5718 81.3006 55.2069 81.1184 55.3893 80.5718C57.2139 81.1184 58.1262 82.7582 58.6736 84.398C59.2209 86.4023 58.856 88.4065 58.3086 90.2285L57.7613 92.4149C57.2139 93.8725 56.3016 94.7836 55.2069 95.6946C53.333 97.5691 50.8995 98.7841 48.2736 99.1564H47.5437Z" fill="#FBB55A"/>
<path d="M69.2561 130.859C69.4386 129.766 69.9859 128.855 70.7158 128.126C71.0807 127.58 71.2631 126.851 70.7158 126.304C70.3509 125.575 69.621 125.758 68.8912 126.122C67.7965 126.669 66.7017 127.033 65.4245 126.851L64.5123 126.486C63.6 125.94 63.0526 125.211 62.6877 124.3C62.5052 123.936 62.1403 123.571 62.3228 123.389C62.6877 123.025 63.0526 123.389 63.2351 123.389C62.8701 123.025 62.3228 122.66 62.1403 122.114C61.7754 121.203 62.3228 120.656 62.6877 120.292C63.7824 119.198 64.8772 119.016 65.7894 120.109C65.4245 119.198 65.9719 119.198 66.5193 119.016H67.7965C69.0737 119.198 69.0737 119.198 69.0737 120.474L69.9859 119.563L71.0807 119.927C72.5403 120.474 73.6351 121.567 74.3649 122.842C74.5473 123.389 74.5473 123.753 73.6351 124.118C74.9123 123.936 74.7298 124.847 74.9123 125.393C75.0947 126.304 74.5473 126.486 73.8175 126.486C74.7298 127.215 74.7298 127.397 74.3649 128.308L73.2702 129.766C72.3579 130.859 72.1754 130.859 71.0807 129.948C71.0807 130.313 71.4456 130.859 70.8982 131.042C70.3509 131.224 69.8035 131.224 69.2561 130.859ZM55.3894 80.7537L55.5719 80.9359L56.3017 82.5757C56.1193 83.1223 55.207 82.9401 54.6596 83.1223C54.2947 83.3045 53.5649 83.4867 53.7473 83.8511C53.7473 84.3977 54.2947 84.0333 54.6596 84.0333H55.3894C55.9368 84.2155 56.6666 83.8511 57.0316 84.3977C57.3965 85.1265 57.214 86.0376 57.214 86.9486C57.214 87.313 56.8491 87.1308 56.6666 87.1308C56.3017 87.1308 55.9368 87.1308 55.7544 87.4952V87.6774C56.1193 87.8596 56.8491 87.8596 56.8491 88.224C56.8491 88.7706 56.4842 89.3172 56.1193 89.8638C55.9368 90.2282 55.7544 90.046 55.3894 89.8638L53.7473 89.135C53.3824 88.7706 52.8351 88.7706 52.2877 88.5884L54.1123 90.957C54.6596 91.5036 54.6596 91.868 53.9298 92.2324L53.0175 92.779C51.5579 93.6901 51.193 93.6901 50.0982 92.4146C49.7333 91.868 49.1859 91.6858 48.821 90.957C48.821 92.0502 49.1859 92.779 49.3684 93.5078C48.6386 93.6901 48.0912 93.1434 47.7263 92.5968C46.9965 91.6858 46.6316 90.5926 46.4491 89.3172C46.814 88.0418 47.7263 86.9486 48.6386 85.8554C49.7333 84.3977 51.0105 82.9401 52.4701 81.6647C53.2 80.9359 54.1123 80.3893 55.3894 80.7537Z" fill="#FCD47B"/>
<path d="M38.4213 133.046L37.6915 127.397C37.1441 124.664 35.6845 122.66 33.495 121.02L32.4003 120.291V120.109C33.1301 119.927 33.8599 119.563 34.4073 119.016C34.7722 118.652 34.9547 118.834 35.1371 119.016C36.7792 120.838 38.0564 122.478 38.6038 124.847C38.9687 127.033 39.881 128.673 41.5231 129.766C41.1582 129.948 40.9757 130.313 41.1582 130.859L41.5231 133.41C41.7055 134.321 42.0704 134.685 42.9827 134.503L45.902 134.321C45.3547 133.592 44.9897 132.863 43.895 133.228C43.7125 133.41 43.3476 133.228 43.5301 132.863L43.3476 130.495C44.8073 130.495 46.0845 129.948 47.5441 128.855L46.6318 132.135C46.2669 134.868 47.3617 137.054 49.9161 137.965L52.4704 138.512L53.5652 139.241L45.902 139.787C45.1722 139.969 44.6248 139.787 44.0775 139.423C42.0704 137.783 40.2459 135.961 38.7862 133.774L38.4213 133.046Z" fill="#EE783B"/>
<path d="M69.256 130.86C70.8981 131.224 70.8981 131.224 70.7157 129.402L71.0806 129.585C72.1753 130.678 72.3578 130.496 73.27 129.22L73.9999 128.309C74.3648 127.58 74.7297 127.034 73.635 126.851L73.4525 126.487L73.635 126.123C74.1823 126.123 74.9122 126.305 74.7297 125.576C74.5472 124.847 74.5472 123.936 73.4525 124.118L73.27 123.936C74.5472 123.39 74.5472 123.39 73.635 122.296C72.9051 121.021 71.6279 120.292 70.3507 119.746C69.9858 119.563 69.8034 119.746 69.6209 120.11C69.4385 120.292 69.4385 120.839 69.0736 121.021L68.8911 120.839C68.8911 120.292 69.0736 119.563 68.7086 119.381H66.1543C65.6069 119.381 66.1543 120.11 65.9718 120.292C65.4244 120.11 65.242 119.381 64.5122 119.563C63.5999 119.746 62.87 120.292 62.3227 121.203C62.1402 121.568 62.1402 121.932 62.5051 122.296L63.7823 123.936C63.4174 123.936 63.0525 123.39 62.5051 123.39C62.87 124.483 63.7823 125.394 64.5122 126.305C62.5051 125.576 61.4104 123.936 60.1332 122.296L58.856 120.474C58.3086 119.928 58.4911 119.746 59.0385 119.381C62.3227 117.559 65.7893 116.466 69.6209 116.648C73.0876 117.013 76.5543 120.657 76.5543 123.936V124.665C76.7367 125.394 76.7367 125.94 76.3718 126.487C75.2771 129.038 73.635 131.224 71.4455 132.864C71.0806 133.229 70.5332 133.593 69.9858 133.411C68.8911 132.5 68.8911 131.953 69.256 130.86Z" fill="#FBB55A"/>
<path d="M62.8702 138.876C65.6071 137.601 68.5264 137.783 71.4457 138.148C72.7228 138.33 74 137.965 75.2772 137.783H75.6421C77.2843 137.419 77.6492 137.601 78.5614 139.059L79.1088 140.152C80.0211 142.338 80.0211 142.52 77.8316 143.614L77.1018 141.427C76.7369 140.698 76.0071 140.152 75.0948 139.97V140.698C75.2772 140.881 75.4597 141.245 75.0948 141.427C74.9123 141.609 74.5474 141.427 74.5474 141.063C72.9053 139.059 70.8983 139.787 68.8913 139.787L67.6141 139.97C67.0667 140.152 66.8843 140.334 67.2492 140.881L67.979 141.792V142.338H67.6141L65.972 141.245C65.6071 140.881 65.4246 141.063 65.2421 141.427C65.0597 141.974 65.2421 142.52 65.6071 143.067C66.8843 144.525 68.7088 145.071 70.5334 144.342L72.7228 143.431C73.8176 142.885 74.365 143.249 74.5474 144.342L74.9123 145.436C74.365 145.618 73.8176 145.618 73.2702 145.253C72.7228 144.889 72.1755 144.889 71.4457 145.436C70.1685 146.347 68.8913 147.258 67.2492 147.44C65.4246 147.622 64.1474 146.893 63.2351 145.436L60.6807 141.974C60.3158 140.881 61.0457 140.334 61.593 139.605L62.8702 138.876Z" fill="#EE783B"/>
<path d="M79.1089 111.546C79.6563 108.448 79.6563 105.351 78.744 102.435C78.0142 100.249 76.737 98.6092 74.5475 97.516L74.0001 97.3338V97.1516C75.2773 96.7872 76.1896 97.1516 77.1019 97.6982C78.744 98.9737 80.2036 100.249 82.0282 101.16L83.3054 104.075C84.5826 106.444 86.4072 107.902 88.9615 108.266C89.6914 108.448 90.2387 108.084 90.7861 108.448C91.6984 109.541 91.6984 109.541 90.4212 109.906C88.9615 110.452 87.6843 110.817 86.2247 110.999C84.4001 111.181 83.1229 112.092 81.6633 113.003C80.5686 113.003 79.8387 112.274 79.1089 111.546ZM67.7966 88.2237L67.9791 89.6813C68.1615 90.9568 69.6212 91.6856 71.0808 91.5034C73.6352 91.139 75.6422 89.6813 77.1019 87.6771C78.9265 85.1263 78.744 82.3932 76.9194 79.6602C76.1896 78.567 75.2773 77.8382 74.365 77.1094C76.5545 77.4738 78.744 78.2026 80.751 79.1136C81.2984 79.2958 81.4808 79.8424 81.6633 80.2068C82.3931 82.5754 82.3931 84.9441 81.6633 87.3127C81.1159 88.7703 80.0212 89.6813 78.744 90.5923C76.3974 92.6006 73.4393 93.7565 70.351 93.872C69.4387 93.872 68.344 93.6898 67.6142 92.961C67.0668 91.5034 67.0668 89.8635 67.7966 88.2237Z" fill="#FBB55A"/>
<path d="M96.9894 95.8767C96.6244 96.4233 96.0771 95.8767 95.7122 95.6945C95.1648 95.5123 94.7999 94.9657 94.0701 95.5123C93.1578 95.8767 92.9753 96.6055 93.7051 97.5166L95.7122 99.703C96.2595 100.25 96.2595 100.432 95.8946 100.978L94.6174 102.983C94.435 103.347 94.2525 103.894 94.435 104.44C94.435 104.987 94.2525 105.169 93.8876 105.533C93.1578 105.898 92.4279 105.533 91.6981 105.169C91.5157 105.169 91.3332 104.805 91.5157 104.44C91.6981 102.8 92.4279 101.343 92.9753 99.8852C93.1578 99.5208 93.3402 98.9742 93.1578 98.6098C92.9753 97.6988 92.063 97.5166 91.1508 98.0632L89.1437 99.1564C87.8665 99.8852 86.5894 100.614 84.9472 100.614C83.8525 100.067 83.1227 99.3386 82.7578 98.2454C82.7578 97.881 82.5753 97.5166 82.9402 97.3344C83.3051 96.97 83.4876 97.1522 83.8525 97.3344L84.9472 97.6988L83.8525 96.4233C83.4876 95.8767 83.8525 95.5123 84.3999 95.1479C85.1297 94.4191 85.4946 94.4191 86.4069 95.3301C86.5894 94.7835 86.042 94.0547 86.5894 93.6903C87.3192 93.1437 88.4139 92.9615 89.3262 92.7793C90.4209 92.7793 90.7858 93.1437 90.9683 95.3301L91.3332 93.3259C91.5157 92.9615 91.8806 92.9615 92.2455 92.9615C93.8876 93.1437 95.5297 93.8725 96.8069 94.9657C96.9894 95.3301 97.1718 95.5123 96.9894 95.8767Z" fill="#FCD47A"/>
<path d="M96.9897 95.8764C96.6247 94.9654 95.7125 94.601 94.9826 94.0544L92.4282 93.3256C91.8809 93.1434 91.516 93.3256 91.3335 93.8722C91.3335 94.601 91.1511 95.1476 90.7861 95.6942L90.4212 93.69C90.4212 93.1434 90.0563 92.9612 89.509 93.1434C88.5967 93.1434 87.8668 93.3256 86.9546 93.69C86.5897 93.8722 86.4072 94.2366 86.5897 94.601V95.8764L86.0423 95.3298C85.8598 94.9654 85.6774 94.601 85.13 94.7832C84.5826 94.9654 84.2177 95.3298 83.8528 95.8764C83.8528 96.2409 84.0353 96.2409 84.2177 96.4231L85.4949 97.8807C84.7651 98.0629 84.2177 97.6985 83.6704 97.5163C83.4879 97.3341 83.3054 97.1519 82.9405 97.3341V98.2451C83.123 98.9739 83.8528 99.5205 84.4002 100.067L84.9475 100.432C83.123 100.614 81.6633 99.7027 80.3861 98.6095C79.6563 97.5163 80.2037 95.1476 81.2984 94.0544L81.8458 93.5078C84.9475 91.3214 88.4142 89.8638 92.4282 89.8638C94.9826 90.046 96.9897 91.3214 98.8142 93.1434V94.0544L96.9897 95.8764Z" fill="#FBB55A"/>
<path d="M47.5438 111.911C47.9088 110.817 48.6386 109.906 49.3684 108.995C49.9158 108.449 49.9158 107.902 49.3684 107.356C49.0035 106.627 48.4561 106.809 47.7263 106.991C47.1789 107.356 46.4491 107.902 45.7193 108.084C44.6245 108.267 43.7123 107.72 42.9824 106.991C42.6175 106.445 42.4351 105.716 42.8 105.169L42.9824 104.805C43.8947 103.165 44.6245 102.983 46.0842 104.258V104.076C45.5368 102.618 45.7193 102.436 47.3614 102.254L48.821 102.436C49.9158 102.618 49.9158 102.618 49.7333 103.712C50.2807 103.529 50.6456 102.983 51.3754 103.165C52.1052 103.529 52.6526 104.076 53.0175 104.805L53.2 105.169C53.9298 106.809 53.9298 106.991 52.6526 108.084C53.9298 108.631 53.9298 108.631 53.7474 110.089L53.5649 110.635C53.3824 111.728 53.2 111.911 52.1052 111.728L52.2877 111.911C53.0175 113.004 53.2 113.186 52.4702 113.915C51.9228 114.826 50.2807 115.19 49.5509 114.826L49.3684 114.097C48.6386 114.644 48.2737 114.644 47.9088 113.915C47.3614 113.368 47.1789 112.639 47.5438 111.911ZM91.5158 113.55L91.6982 114.097C92.4281 115.919 91.8807 117.923 92.4281 119.928C92.6105 120.474 92.6105 121.021 91.6982 121.385L86.9544 123.389L86.5895 123.572C86.0421 123.754 85.4947 123.572 85.1298 123.207C84.2175 122.478 83.4877 121.932 82.9403 121.021C82.393 119.928 82.393 119.017 82.9403 117.923C83.1228 117.377 83.4877 117.194 84.0351 117.559L86.2245 118.652L84.5824 117.377C83.6702 116.466 83.8526 116.101 84.7649 115.372L86.2245 114.461C86.9544 114.097 87.5017 113.733 88.2316 114.461C88.7789 113.186 90.421 112.639 91.5158 113.55Z" fill="#FCD47B"/>
<path d="M47.544 111.911C47.544 112.457 47.544 113.004 47.9089 113.733C48.2738 114.462 48.6387 114.644 49.1861 113.915L49.551 113.551V113.733C49.3685 114.826 49.551 114.826 50.6457 114.644C51.1931 114.644 51.558 114.462 51.9229 114.097C52.8352 113.551 52.8352 113.186 52.2878 112.275L51.3756 111.364C52.1054 111.182 52.8352 112.275 53.2001 111.182L53.565 109.724C53.3826 109.36 54.1124 108.813 53.3826 108.631C52.8352 108.449 52.2878 108.631 51.9229 108.267L52.1054 108.085C52.6528 107.538 53.565 107.538 53.3826 106.627C53.0177 105.169 52.6528 103.712 51.0106 103.347C50.4633 103.165 50.0984 103.894 49.3685 104.258V103.712C49.9159 102.618 49.1861 102.618 48.4563 102.436L46.4492 102.618C45.9019 102.801 45.9019 102.983 46.0843 103.347L46.6317 104.805C45.9019 104.623 45.537 104.076 45.1721 103.712C44.8071 103.347 44.4422 103.347 44.0773 103.712L43.3475 104.441C42.4352 105.534 42.6177 106.627 43.8949 107.356C44.4422 107.72 44.9896 107.902 45.7194 107.902C43.8949 108.631 42.9826 108.085 42.2528 106.445C41.7054 105.352 41.5229 104.258 41.3405 103.165L41.158 102.618C40.7931 101.161 40.9756 100.796 42.4352 100.614C43.7124 100.432 44.9896 100.614 46.0843 100.979C47.3615 101.525 48.8212 101.343 50.0984 101.707C51.1931 102.072 52.1054 102.254 53.0177 102.801C55.5721 104.441 56.1194 106.809 55.7545 109.542C55.7545 110.271 55.7545 111.364 55.3896 112.093C54.4773 114.097 52.8352 115.19 51.0106 116.284C50.0984 116.648 49.3685 117.195 48.4563 117.195C46.8142 115.737 46.6317 113.733 47.544 111.911ZM63.4177 97.1524L61.0457 98.0634C59.7685 98.0634 58.3089 97.1524 57.944 96.0592C58.8563 93.6906 59.5861 91.3219 59.951 88.7711C60.4984 85.1271 59.951 81.8474 56.6668 79.661L56.4843 79.4788C58.3089 77.839 59.5861 78.9322 60.1335 80.2076L60.4984 81.3008C60.6808 83.305 60.8633 85.3093 61.958 87.1313C62.6878 88.2245 63.965 88.4067 65.2422 88.5889L66.1545 88.7711L65.972 91.6863C65.4247 92.9618 64.5124 93.8728 64.3299 95.1482L63.965 96.2414C63.965 96.6058 63.7826 96.9702 63.4177 97.1524ZM28.3861 115.737C27.6563 114.462 27.1089 113.368 26.9264 111.911C26.744 110.271 26.744 108.449 27.4738 106.809C28.0212 106.809 28.0212 107.356 28.0212 107.538C28.5685 108.631 29.1159 109.724 30.0282 110.635L30.5756 111C30.9405 111.182 31.3054 111.546 31.6703 111.182C31.8528 110.818 31.4878 110.635 31.3054 110.271L31.1229 110.089C30.9405 109.724 30.5756 109.36 30.9405 109.178C31.3054 108.813 31.4878 109.178 31.8528 109.36L32.4001 109.724H32.9475C33.4949 109.542 33.8598 107.902 33.4949 107.538L33.1299 106.991C33.3124 106.627 33.4949 106.809 33.8598 106.627C34.7721 106.627 34.4071 105.716 34.4071 105.352C34.5896 104.623 34.0422 104.987 33.6773 104.987L32.2177 104.805L31.6703 104.258L32.0352 103.894L32.9475 103.529C33.8598 102.983 34.7721 102.436 34.2247 101.161V100.796C34.9545 101.343 35.137 102.072 35.5019 102.801C36.2317 105.716 36.4142 108.813 36.0492 112.093C35.5019 114.279 34.2247 115.919 31.8528 116.466C30.5756 116.83 29.2984 116.648 28.3861 115.737ZM93.7054 85.3093C95.8949 83.305 98.6317 82.9406 101.551 83.305C103.193 83.4872 103.558 84.5804 104.105 85.6737V86.9491C103.74 88.9533 102.463 90.5931 100.821 92.0507C100.456 92.5974 100.091 92.7796 99.3615 92.0507C98.6317 90.9575 97.537 90.2287 96.4422 89.6821C95.5299 89.3177 95.3475 88.5889 94.8001 87.8601C94.2527 87.1313 93.8878 86.2203 93.7054 85.3093ZM113.958 165.114C121.251 168.058 129.087 169.424 136.947 169.122C141.691 168.758 146.253 168.029 150.814 166.389C152.091 165.843 153.004 164.749 154.098 164.021L155.558 163.11C154.646 164.203 153.733 165.478 152.639 166.389C152.091 166.936 151.544 167.3 150.632 167.482L148.99 168.394C147.712 169.122 146.435 169.122 144.976 169.305H142.786C140.414 168.758 138.225 169.851 135.853 170.398L132.021 170.762C130.014 171.127 128.007 170.762 126 170.398C122.898 169.851 119.979 168.94 117.06 167.665C115.418 166.936 113.593 166.389 111.769 166.389C110.674 165.843 109.762 164.932 108.849 164.021L112.681 164.567L113.958 165.114ZM46.0843 116.284L47.3615 118.106C47.544 118.652 47.3615 118.652 46.9966 118.652L45.9019 118.834C43.3475 118.834 40.6106 118.834 38.4212 117.012C37.6913 116.284 36.9615 115.555 36.9615 114.462C37.8738 109.724 37.5089 105.352 36.0492 100.796C37.3264 99.8854 39.6984 101.343 39.8808 102.983L40.2457 104.258C40.4282 106.627 39.8808 108.996 39.6984 111.182L39.5159 112.64C39.6984 114.826 40.7931 115.737 42.9826 115.919H44.9896C45.3545 115.919 45.7194 115.919 46.0843 116.284Z" fill="#FBB55A"/>
<path d="M53.9298 159.465C50.8281 159.647 47.7263 159.647 44.807 159.282C41.8877 158.918 40.793 158.007 40.2456 155.274C39.3334 151.812 38.6035 148.35 37.5088 145.071L36.4141 142.155C36.9614 141.973 36.9614 142.52 37.3263 142.702C39.8807 146.164 42.2527 149.99 44.0772 153.816C45.7193 157.46 48.6386 158.918 52.2877 159.1C52.8351 159.282 53.5649 158.918 53.9298 159.465Z" fill="#C55532"/>
<path d="M74.9123 145.436C74.365 145.436 74.365 145.071 74.365 144.525C74.365 143.432 74.0001 143.067 72.9053 143.614L69.986 144.889C68.3439 145.254 66.1544 144.343 65.2422 142.885C65.0597 142.338 64.8773 141.974 65.0597 141.427C65.2422 141.063 65.2422 140.699 65.6071 140.699C65.972 140.516 65.972 140.881 66.1544 141.063L68.1615 142.338L66.8843 140.516C66.7018 140.152 66.5194 139.97 67.0667 139.97C69.0737 139.423 71.0808 139.605 73.0878 139.605L73.8176 140.152L74.9123 141.427L75.0948 141.245L74.7299 139.788C76.5544 139.605 78.379 141.792 77.8316 143.614C76.9194 144.16 76.0071 145.071 74.9123 145.436Z" fill="#FBB55A"/>
<path d="M110.674 87.3135C111.768 88.5889 112.863 90.2287 113.593 91.8685C113.958 92.5973 114.323 93.144 115.053 93.6906L116.877 95.5126C117.607 96.6058 117.425 97.8812 116.512 98.7922C115.782 99.521 115.053 100.068 114.14 100.25L108.667 95.6948L109.761 93.144C110.309 91.6863 110.491 90.2287 110.491 88.5889C110.491 88.2245 110.309 87.6779 110.674 87.3135Z" fill="#6AC026"/>
<path d="M67.2493 111.91L67.7967 113.186C67.7967 113.55 67.6142 113.732 67.2493 113.732C65.7897 113.732 64.5125 114.643 63.2353 115.19C62.1405 115.554 61.0458 115.919 59.7686 115.919C58.4914 115.737 57.5791 115.19 56.8493 114.279C56.6669 113.915 56.4844 113.55 56.6669 113.186L57.0318 107.537C56.8493 105.351 56.1195 103.529 54.2949 102.071L54.4774 101.889C56.1195 102.436 57.5791 103.529 58.6739 104.804L59.0388 106.991C59.2212 108.266 59.5862 109.542 60.316 110.635C60.8633 111.728 61.9581 112.092 63.2353 112.092L65.9721 111.546C66.5195 111.546 66.8844 111.546 67.2493 111.91Z" fill="#FBB55A"/>
<path d="M65.242 167.3L65.4245 167.482C65.242 168.211 64.5122 168.029 64.1473 168.211C61.9578 168.211 59.7683 167.664 57.9438 166.571C55.7543 165.478 53.9297 163.838 52.6526 161.834C52.4701 161.47 52.1052 161.287 52.2876 160.741C54.4771 160.923 56.849 160.741 59.0385 161.287L59.7683 161.47C61.9578 162.198 63.4175 163.838 64.5122 165.842L65.242 167.3Z" fill="#EE783B"/>
<path d="M92.7931 75.1055L91.6984 76.3809C89.144 76.0165 86.5896 76.1987 84.2177 76.7453H83.1229C82.0282 76.0165 80.5686 76.0165 79.4738 76.5631C77.4668 77.2919 75.8247 76.0165 76.0072 74.1945C76.1896 73.8301 76.5545 73.8301 76.9194 73.6479C81.2984 72.5547 85.6773 72.3725 90.0563 73.2835L91.3335 73.6479L92.7931 75.1055Z" fill="#FBB55A"/>
<path d="M34.2245 100.796C34.7719 102.618 34.7719 102.618 32.9473 103.711L31.8526 104.258C32.3999 104.804 32.7649 104.804 34.0421 104.622C34.5894 104.44 34.7719 104.622 34.5894 105.169V105.533C34.5894 106.444 34.5894 107.173 33.1298 106.809C34.407 108.084 34.407 108.266 33.1298 109.724C32.3999 110.817 31.8526 108.995 30.9403 109.177C30.9403 109.724 31.3052 110.088 31.6701 110.453C31.8526 110.635 32.2175 110.999 32.035 111.364C31.8526 111.728 31.3052 111.546 30.9403 111.364C29.6631 110.817 29.1157 109.906 28.3859 108.813L27.4736 106.809C28.2035 104.076 30.028 102.254 32.3999 100.614C32.9473 100.432 33.6771 100.249 34.2245 100.796Z" fill="#FCD47A"/>
<path d="M65.4246 148.533C68.1614 149.08 70.3509 147.987 72.5404 146.165C72.1755 149.626 73.8176 151.631 76.1895 153.453L72.5404 153.088C71.0807 152.906 69.6211 152.906 68.1614 153.27C66.8842 153.817 65.607 153.817 64.1474 153.817C63.4176 153.635 62.5053 153.635 61.9579 152.906C61.593 150.72 61.4105 148.715 60.8632 146.711C60.4983 145.254 59.9509 143.978 59.2211 142.521C61.2281 144.16 62.1404 146.893 64.3298 148.169L63.4176 148.351L65.9719 151.813C66.7018 152.724 66.8842 152.724 67.979 152.359C69.2562 151.813 70.5333 151.266 71.993 151.266L71.6281 150.902C70.3509 149.626 70.3509 149.626 69.0737 150.72C68.8912 151.084 68.5263 151.266 68.3439 150.72C68.1614 149.809 67.2491 149.626 66.3369 149.262C65.9719 149.08 65.4246 149.262 65.4246 148.533Z" fill="#EE783B"/>
<path d="M91.5158 113.55C90.6035 113.004 89.8737 113.368 88.9614 113.55C88.5965 113.733 88.5965 114.097 88.5965 114.461V114.826H88.0491C87.5017 113.915 86.9544 114.279 86.407 114.644L84.9474 115.555C83.8526 116.284 83.8526 116.284 84.7649 117.195L86.7719 119.017L84.0351 117.741C83.4877 117.377 83.3053 117.559 82.9403 118.106C82.5754 119.381 82.7579 120.292 83.4877 121.203C84.2175 122.114 84.9474 123.389 86.5895 123.572C84.9474 124.118 83.4877 123.754 82.5754 122.478L79.1088 118.106C79.1088 116.83 80.021 116.101 80.7509 115.372C82.2105 113.915 84.0351 112.822 85.8596 112.275L89.5088 111.546C90.2386 111.182 91.1509 110.817 91.5158 111C92.2456 111.364 91.3333 112.275 91.5158 113.004V113.55Z" fill="#FBB55A"/>
<path d="M67.7964 132.317C68.1613 133.41 68.7086 134.321 69.9858 134.686C69.8034 135.05 69.4385 135.05 69.0736 135.05C66.1543 135.597 63.235 135.597 60.3157 134.503C59.7683 134.321 59.0385 134.139 58.856 133.592C58.856 129.22 57.7613 125.393 55.9367 121.567C55.7543 121.02 55.2069 120.656 54.6595 120.474L53.3823 119.745C54.4771 119.016 55.9367 119.563 56.849 120.292C58.1262 121.203 58.856 122.478 59.5858 123.753C60.3157 125.576 60.1332 127.762 60.6806 129.766C61.0455 131.953 62.3227 133.228 64.1472 133.046C65.0595 133.046 65.9718 132.864 66.7016 132.499C67.0665 132.317 67.4314 132.135 67.7964 132.317Z" fill="#EE783B"/>
<path d="M53.9297 159.466C52.835 159.101 51.7402 159.466 50.8279 159.284C47.7262 158.555 45.1718 156.915 43.8946 154C41.8876 149.809 39.3332 145.801 36.5964 142.157H36.4139C36.2314 141.792 36.049 141.61 36.5964 141.428L38.056 139.97L40.4279 145.801C41.1578 147.258 41.7051 148.898 42.9823 150.174C43.5297 150.72 44.0771 151.267 44.8069 151.449C44.442 153.089 44.9893 154.546 46.2665 155.275C47.1788 155.822 47.9086 155.822 48.6385 155.093L49.3683 154.729C50.463 156.004 52.1051 156.915 53.7472 157.826L57.5788 159.648L53.9297 159.466Z" fill="#EE773B"/>
<path d="M58.8563 133.593C61.5931 135.05 64.5124 135.415 67.7966 135.05L69.9861 134.686L74.5475 135.233C73.4528 136.69 71.9931 137.237 70.1685 136.872C66.337 136.326 62.5054 136.872 59.0387 139.241C58.3089 139.788 57.3966 139.97 56.3019 139.788C57.7615 137.783 58.4914 135.779 58.8563 133.593Z" fill="#C55532"/>
<path d="M122.534 106.992C123.263 103.53 122.351 98.6102 119.067 96.606L118.52 96.2416C118.337 96.0594 118.155 95.8772 118.337 95.5128L118.884 95.3306C120.344 95.3306 121.621 95.5128 123.081 95.8772C123.628 95.8772 123.993 96.4238 124.358 96.7882C126.548 99.8856 126.183 102.983 124.723 106.263C124.541 106.809 124.358 107.538 123.811 107.903L122.534 106.992Z" fill="#4BA718"/>
<path d="M78.9263 127.398L77.8316 123.025C77.2842 120.109 75.4597 117.923 73.0877 116.465L72.3579 116.101V115.919C74.3649 115.554 77.4667 117.376 79.1088 120.292L79.8386 121.567L81.1158 125.211C82.0281 128.126 84.5825 129.584 87.6842 128.855C88.0491 128.673 88.4141 128.491 88.9614 128.673L90.2386 129.948L86.2246 130.859C84.5825 131.042 83.3053 130.313 82.0281 129.766C80.7509 129.037 79.8386 128.309 78.9263 127.398Z" fill="#E27E37"/>
<path d="M67.6138 92.9617C71.0804 94.2372 73.9997 93.3262 76.919 91.6863C78.7436 90.5931 80.3857 89.1355 81.6629 87.3135C81.1155 89.8643 80.2032 92.0507 78.7436 94.055C78.3787 94.7838 77.6489 95.1482 76.919 95.877H76.1892C74.912 95.6948 73.6348 95.6948 72.5401 96.2414C71.6278 96.788 69.4383 96.2414 68.891 95.3304L67.6138 92.9617Z" fill="#EE783B"/>
<path d="M46.084 116.284L42.2524 116.101C40.4279 115.737 39.3331 114.462 39.3331 112.64C39.3331 110.635 39.698 108.631 40.063 106.809C40.063 105.898 39.8805 104.987 40.2454 104.258C40.6103 105.716 40.9752 107.356 42.07 108.631L43.5296 110.635C43.7121 111 43.5296 111.729 43.8945 111.729L44.8068 112.457C45.1717 112.64 45.5366 113.004 45.7191 113.551L46.084 116.284Z" fill="#FCD47A"/>
<path d="M69.2562 162.38C70.1685 161.287 71.2632 161.105 72.5404 161.834C72.9053 162.198 73.2703 162.198 73.2703 161.469C73.0878 160.741 73.4527 160.376 74.0001 160.376C75.0948 160.012 76.1896 159.647 77.2843 159.647C78.0141 159.647 78.379 159.83 78.0141 160.741L77.8317 161.287C78.5615 161.105 78.9264 160.376 79.6562 160.012H80.3861C81.2983 160.923 81.4808 162.016 80.9334 163.109L80.751 163.474C77.8317 164.203 74.9124 164.749 71.8106 164.02C70.8983 163.656 69.9861 163.109 69.2562 162.38Z" fill="#FBB55A"/>
<path d="M117.06 134.504H116.877C115.965 132.682 114.688 131.224 113.593 129.585L112.863 128.674L113.046 122.479L113.228 122.114L119.067 129.949C119.249 130.496 118.884 131.042 118.702 131.589C118.519 132.5 117.972 133.229 117.607 133.957C117.425 134.322 117.425 134.504 117.06 134.504Z" fill="#F7D657"/>
<path d="M39.3334 100.067L39.1509 99.8851C37.5088 99.1563 37.5088 99.1563 37.8737 97.1521C38.6036 94.419 40.4281 92.2326 42.4351 90.0462L46.2667 86.4021C46.9965 85.4911 47.7264 84.3979 47.9088 83.3047C48.4562 83.8513 48.4562 84.2157 47.9088 84.7623L45.5369 88.4064C44.8071 89.6818 44.4422 91.3216 44.4422 92.9614L42.2527 95.5122C41.3404 96.7877 40.4281 97.8809 39.8807 99.3385C39.8807 99.7029 39.6983 100.067 39.3334 100.067Z" fill="#FCD47A"/>
<path d="M52.2875 160.923C55.0244 164.931 58.6735 167.847 63.9647 168.029C64.5121 168.029 65.0595 167.847 65.4244 167.482C65.6068 167.847 65.9717 168.029 65.7893 168.393L65.0595 168.575C59.7682 168.94 55.0244 167.482 50.6454 164.567C49.3682 163.474 48.091 162.38 47.3612 160.923H52.2875Z" fill="#C55532"/>
<path d="M90.786 108.267C87.5018 108.995 84.7649 107.173 83.3053 104.622C82.5754 103.529 82.0281 102.436 82.0281 101.161C83.4877 101.707 84.9474 101.889 86.407 101.525C86.5895 101.889 86.9544 101.889 87.3193 102.072C88.2316 102.8 88.2316 103.165 87.1368 104.258C87.8667 103.711 88.0491 103.165 88.779 103.347C89.3263 103.347 89.6912 103.711 90.0561 104.076C89.8737 105.716 90.0561 106.991 90.786 108.267Z" fill="#FCD47A"/>
<path d="M88.2318 86.5846L88.0493 86.949C87.8668 88.0422 87.8668 88.2244 89.144 88.771L85.6774 90.0464C84.4002 89.682 83.123 88.4066 83.123 87.3134C83.3054 85.6735 83.6704 83.8515 83.3054 82.0295C83.123 80.2075 82.7581 78.2032 80.5686 77.6566C81.2984 77.2922 82.0282 77.4744 82.7581 77.8388L85.3125 80.2075C86.4072 81.4829 87.6844 82.2117 89.3265 82.0295L88.7791 84.0337C88.0493 83.6693 87.3195 83.4871 86.5897 83.6693C85.8598 83.6693 85.3125 83.8515 85.13 84.5803C84.9475 85.3091 84.5826 86.2201 85.13 86.949C85.6774 87.4956 86.2247 87.3134 86.7721 87.1312C87.3195 86.949 87.6844 86.4024 88.2318 86.5846ZM67.7967 132.317L65.2423 133.228C62.5054 133.593 60.6809 132.5 60.316 129.767C59.9511 127.762 59.9511 125.758 59.4037 123.754H59.5861C60.4984 125.029 61.5932 126.122 62.8704 127.033L63.4177 127.398C64.6949 128.491 64.6949 128.673 63.7826 129.949L63.4177 130.495L64.8774 129.767C65.4247 129.402 65.9721 129.584 66.5195 129.949L67.7967 131.042V132.317Z" fill="#FBB55A"/>
<path d="M69.986 133.41C71.2632 133.046 72.1754 132.135 73.0877 131.224C74.3649 129.766 75.4596 128.126 76.1895 126.304L76.5544 124.665C77.4667 127.215 78.5614 129.766 78.5614 132.499C78.5614 133.41 78.3789 133.775 77.4667 133.957H74.7298C73.4526 133.592 72.1754 133.775 70.8982 133.592L69.986 133.41Z" fill="#EE783B"/>
<path d="M96.077 127.397C100.821 125.211 105.382 123.024 110.491 121.749L100.821 128.126L96.8068 130.859C96.077 130.313 96.2595 129.219 96.077 128.491C95.8946 128.126 95.7121 127.762 96.077 127.397Z" fill="#EECB4D"/>
<path d="M26.1964 134.868L28.7508 136.69C32.035 137.965 34.7719 137.054 37.1438 134.686L36.9613 137.965C36.5964 139.969 34.5894 141.427 32.5824 140.698C29.6631 139.787 27.4736 137.601 26.1964 134.868Z" fill="#C55532"/>
<path d="M67.2493 111.91C65.9721 111.728 64.6949 112.093 63.4177 112.275C61.958 112.457 60.8633 112.093 60.1335 110.817C59.0387 108.995 58.6738 106.991 58.6738 104.987C59.951 106.08 61.4107 107.173 63.2352 107.538C64.5124 108.084 64.6949 108.449 63.7826 109.906C64.33 109.724 64.6949 108.813 65.4247 108.995C65.9721 109.177 66.5194 109.542 66.8844 110.088C67.2493 110.635 67.0668 111.182 67.2493 111.91ZM91.3335 73.6479C90.2387 73.8301 89.3265 73.4657 88.4142 73.2835C84.2177 72.7369 80.0212 72.9191 76.0072 74.1945C76.1896 72.0081 78.1966 70.3682 80.9335 70.186C84.0352 70.186 86.9545 71.2792 89.6914 72.7369L91.3335 73.6479Z" fill="#FCD47A"/>
<path d="M88.9613 128.673C87.5017 129.037 86.2245 129.584 84.7648 129.22C82.9403 128.673 81.6631 127.58 81.1157 125.758C80.7383 124.226 80.3124 122.707 79.8385 121.203L82.028 123.753C83.4876 125.211 85.1297 125.029 86.9543 124.664C87.5017 124.664 87.6841 125.029 87.8666 125.575C88.049 125.94 87.6841 126.304 87.3192 126.487L86.5894 127.033L87.8666 126.304C88.2315 126.122 88.5964 125.94 88.7789 126.304C88.5964 127.215 88.4139 127.944 88.9613 128.673Z" fill="#FBB55A"/>
<path d="M76.7371 165.66L81.6634 164.931L75.095 168.211L71.2634 169.304C68.5266 169.486 67.2494 168.211 66.1546 166.024C65.4248 164.385 65.0599 162.745 63.7827 161.469C64.1476 161.105 64.5125 161.469 64.695 161.652L67.9792 165.113L68.3441 165.66C70.5336 167.847 72.1757 168.029 74.9125 166.571L76.7371 165.66ZM31.123 141.609C32.2178 141.974 33.1301 142.338 34.2248 142.156C34.9546 141.974 35.1371 142.338 35.1371 142.885C36.4143 145.618 37.3266 148.533 38.0564 151.631L36.7792 150.537L34.0423 147.986C32.3708 146.254 31.341 144.005 31.123 141.609Z" fill="#C55532"/>
<path d="M111.768 166.389C113.045 165.842 114.14 166.207 115.235 166.753C118.154 167.847 121.256 169.122 124.358 169.851C127.827 170.669 131.423 170.792 134.94 170.215H135.852L134.393 170.762L133.116 170.944L132.933 171.126L131.656 171.308L130.014 171.491C129.831 172.037 130.196 172.219 130.379 172.766L130.196 173.313C130.014 173.495 129.831 173.313 129.649 173.13L128.372 171.855L127.277 171.308C125.452 170.58 123.628 170.762 121.803 170.58C120.526 170.397 119.249 170.215 118.337 169.304C118.154 168.758 117.607 168.575 117.242 168.94C116.512 169.122 115.782 169.122 115.235 169.486H114.688C114.688 167.664 113.228 166.936 111.768 166.389ZM69.8033 114.097C72.7226 113.915 76.5542 110.999 77.1016 107.902L78.0139 104.987C78.5612 107.173 78.3788 109.36 78.0139 111.546L76.7367 115.008C76.7367 115.372 76.5542 115.737 76.0069 115.555C74.5472 114.644 72.9051 114.644 71.263 114.826C70.5332 114.826 70.1683 114.644 69.8033 114.097Z" fill="#EE783B"/>
<path d="M89.3263 131.588C90.2386 131.406 91.3333 131.224 92.2456 131.406L92.9754 132.135C92.9754 131.224 93.3403 131.406 93.8877 131.406C94.4351 132.135 94.4351 132.499 93.8877 133.046L86.407 137.965C85.6772 137.601 84.9473 136.143 85.1298 135.597C85.3123 135.232 85.6772 135.232 85.8596 135.232L87.3193 135.414L86.2245 134.503C85.6772 134.139 85.6772 133.775 86.0421 133.41L86.407 133.046C87.5017 131.953 87.5017 131.953 88.7789 132.681H89.3263C89.5087 132.317 88.9614 131.953 89.3263 131.588Z" fill="#FBB55A"/>
<path d="M66.1547 88.7705C64.5126 89.3171 62.5056 88.4061 61.7757 87.1307C60.681 85.3087 60.3161 83.4866 60.4985 81.4824C61.0459 83.6688 62.5056 84.7621 64.8775 84.3977L66.8845 84.0333C67.067 84.0333 67.4319 84.0333 67.4319 84.3977C67.6143 84.7621 67.4319 84.9443 67.067 84.9443L66.5196 85.3087L67.2494 84.9443C67.6143 84.9443 67.9792 84.9443 67.7968 85.6731C67.067 86.5841 66.5196 87.4951 66.1547 88.7705Z" fill="#FCD47A"/>
<path d="M56.6668 113.186C57.3966 115.372 59.7686 116.283 62.1405 115.372C63.6001 114.826 64.8773 113.915 66.5194 113.55C66.8843 113.368 67.4317 113.55 67.7966 113.186L68.7089 114.461C69.0738 115.19 69.0738 115.372 68.1615 115.372C66.1545 115.372 64.1475 115.737 62.1405 116.466C60.6808 117.012 59.2212 117.741 57.944 118.652C57.3966 119.199 56.8493 118.652 56.4844 118.47C55.937 118.288 56.3019 117.923 56.3019 117.559L56.4844 114.644C56.4844 114.279 56.3019 113.733 56.6668 113.186Z" fill="#EE783B"/>
<path d="M96.0775 127.398L96.8073 130.859L96.4424 131.042C96.0775 131.224 95.895 131.953 95.5301 131.588C95.1652 131.224 95.3476 130.677 95.7125 130.131L96.0775 129.766L95.3476 128.855C94.8003 127.398 94.6178 125.94 94.6178 124.665L94.4354 123.754C93.7055 121.203 93.7055 118.47 93.888 115.919L94.9827 108.266C95.5301 106.262 95.895 104.076 96.6248 102.071L97.3547 100.796V99.7028C97.5371 98.2452 97.902 96.7876 98.9968 95.6944C99.7266 94.7834 100.456 93.8724 101.551 93.1436C98.5665 97.8368 96.6368 103.121 95.895 108.631L94.8003 114.097C94.4354 116.283 94.4354 118.652 94.8003 121.021C95.1652 123.207 95.3476 125.211 96.0775 127.398Z" fill="#FBB55A"/>
<path d="M89.326 131.588L89.6909 132.681V133.046H89.326L88.0488 132.317C87.6839 131.952 87.5014 132.134 87.1365 132.317V132.499C86.7716 133.046 86.0418 133.41 86.0418 133.957C86.0418 134.321 86.9541 134.503 87.1365 135.05C87.5014 135.232 87.8664 135.414 87.6839 135.779L85.8593 135.414C85.4944 135.414 85.1295 135.414 85.312 135.779C85.4944 136.507 85.6769 137.418 86.4067 137.965C85.6769 138.329 84.9471 139.058 84.3997 139.058C83.6699 139.058 83.4874 137.965 82.94 137.418L81.6628 135.596C81.1155 135.05 81.2979 134.868 81.6628 134.503C83.6699 133.046 85.8593 132.134 88.2313 131.588H89.326Z" fill="#E27F37"/>
<path d="M47.5441 99.1558C52.1055 98.6092 55.2072 96.0584 57.7616 92.5965C57.2142 95.3296 55.7546 97.6982 54.4774 100.249C54.2949 100.431 54.1125 100.613 53.93 100.431C52.2879 100.431 50.8283 100.796 49.1862 100.431C48.4563 100.249 47.7265 99.8846 47.5441 99.1558ZM100.821 92.0499L102.098 90.4101C103.376 89.1347 103.923 87.4949 104.105 85.6729C104.835 86.7661 105.748 87.4949 107.025 88.0415C107.755 88.2237 107.572 88.9525 107.572 89.4991L106.842 92.4143C106.112 93.3253 105.383 93.1431 104.653 92.4143C103.193 91.1389 102.646 91.1389 100.821 92.0499Z" fill="#EE783B"/>
<path d="M61.9579 152.906C63.7824 153.817 65.7895 153.817 67.7965 153.088C70.1684 152.359 72.3579 152.542 74.7298 153.088L76.1895 153.453C75.4596 153.817 74.7298 153.635 74 153.635C70.7158 154.181 67.4316 154.91 64.3298 156.368C64.1474 156.55 63.7824 156.732 63.6 156.368C62.6877 155.457 61.593 154.728 61.9579 153.27V152.906Z" fill="#C55532"/>
<path d="M36.9614 114.279C37.8737 116.648 39.5158 117.923 41.8877 118.288L45.9017 118.834C43.3473 119.199 40.9754 119.928 38.7859 121.021C38.421 121.203 38.2386 121.021 38.0561 120.839C37.5087 119.745 36.7789 118.834 35.8666 117.923C35.5017 117.741 35.5017 117.377 35.6842 117.195L36.9614 114.279ZM76.7368 165.66C75.8245 166.389 74.7298 166.936 73.4526 167.482C71.628 168.211 70.1684 167.665 68.8912 166.389L64.6947 162.016C64.3298 161.652 64.1473 161.288 63.7824 161.47C63.0526 161.105 62.5052 160.559 61.7754 160.377C61.4105 160.377 61.4105 160.194 61.593 160.012L61.9579 158.919C62.6877 158.919 63.0526 159.466 63.4175 159.83L66.5193 162.563C67.4315 163.474 68.7087 163.838 69.621 164.567L70.7158 165.114L75.6421 165.66H76.7368ZM96.6245 102.072C96.6245 103.529 96.0772 104.987 95.7122 106.262C94.8 110.453 93.8877 114.826 94.0701 119.199L94.6175 123.572V123.936C93.7052 123.572 92.7929 123.389 92.0631 122.661C93.3403 122.296 93.7052 121.75 93.7052 120.656L93.3403 117.741C93.3403 117.012 93.1579 116.466 93.7052 115.919C93.8877 115.737 93.5228 115.555 93.5228 115.373C92.6105 114.097 92.6105 112.822 92.9754 111.364L94.0701 107.538C94.2526 106.809 94.6175 106.08 95.3473 105.898C95.7122 105.716 95.7122 105.534 95.5298 105.351C95.3473 104.076 95.8947 102.983 96.6245 102.072Z" fill="#EE783B"/>
<path d="M53.9298 156.368C55.207 156.186 56.4842 156.003 57.5789 155.275C58.6737 154.546 59.4035 153.453 59.7684 151.995C59.9509 151.631 59.9509 151.266 60.3158 151.084L60.6807 153.27V158.19C60.4982 159.101 60.4982 159.283 59.586 158.919C57.7614 158.008 55.7544 157.461 53.9298 156.368Z" fill="#C55532"/>
<path d="M48.4562 117.376L51.3755 115.918C53.0176 114.825 54.2948 113.55 55.3895 112.274C55.0246 113.914 55.3895 115.554 55.0246 117.194C55.0246 117.923 54.6597 118.287 53.9299 118.105L52.2878 118.651C50.6457 119.38 49.3685 118.834 48.4562 117.376Z" fill="#EE783B"/>
<path d="M65.4244 148.534L67.4314 149.445C68.1612 149.627 68.7086 149.991 68.5261 150.72C68.891 150.902 68.891 150.538 68.891 150.538C69.8033 149.445 70.5331 149.445 71.4454 150.356L72.5401 151.449C70.5331 151.267 68.891 152.36 67.2489 152.906C66.7016 152.906 66.5191 152.724 66.1542 152.36L62.87 147.987C63.4173 147.987 63.7823 148.351 64.3296 148.169L65.4244 148.534ZM85.8594 159.648C86.0419 159.284 86.2244 159.284 86.4068 159.466C88.4138 160.377 90.6033 160.559 92.6103 161.106C94.4349 161.47 96.077 162.199 97.7191 162.928L103.375 164.75C103.193 165.114 102.828 165.114 102.463 165.114C100.638 165.114 98.9963 165.114 97.1717 164.385C95.3472 163.656 93.3401 162.928 91.3331 162.563C91.1507 161.652 90.7858 161.47 89.8735 161.652C89.1437 162.017 88.4138 161.834 87.8665 161.288C87.3191 160.559 86.5893 160.195 85.8594 159.648ZM39.3331 100.068L41.1577 96.4238C42.07 95.1483 43.1647 93.8729 44.4419 92.9619C44.4419 94.4195 44.8068 95.8772 45.1717 97.3348C45.3542 97.517 44.9893 97.6992 44.8068 97.6992L41.8875 99.5212L40.2454 100.25C39.8805 100.432 39.5156 100.25 39.3331 100.068Z" fill="#FBB55A"/>
<path d="M78.9264 127.397C79.6562 127.58 80.2036 128.308 80.751 128.673C82.3931 129.948 84.2176 130.495 86.2246 130.859C84.2176 131.77 82.0281 132.499 80.386 133.957C80.0211 134.321 79.6562 134.139 79.8387 133.775C80.0211 131.588 79.4738 129.402 78.9264 127.397Z" fill="#C55532"/>
<path d="M91.3334 162.563C92.793 162.381 94.0702 162.745 95.165 163.292C97.9018 164.567 100.456 165.114 103.375 164.932H104.288C105.747 164.749 107.025 164.749 108.302 165.478L109.944 166.754C108.484 166.754 107.025 166.936 105.93 165.66C105.565 165.296 105.2 165.66 104.835 165.66H102.463C101.004 165.114 99.7264 164.932 98.4492 165.66C97.172 166.389 96.4421 166.025 95.5299 164.932C94.9825 164.021 93.8878 163.474 92.793 163.11L91.8807 162.927L91.3334 162.563Z" fill="#EE783B"/>
<path d="M110.674 87.3131C110.856 89.8639 110.491 92.597 109.214 94.9656L108.667 95.6944L107.572 94.7834C108.849 91.5038 109.579 88.2241 108.484 84.5801L110.674 87.3131Z" fill="#67CA32"/>
<path d="M43.3476 130.495C44.4423 131.406 44.4423 131.406 43.7125 133.046C44.2599 133.228 44.8072 132.317 45.3546 133.046C45.5371 133.592 46.0844 133.775 46.2669 134.503L42.4353 134.868C41.8879 134.868 41.523 134.503 41.3406 133.957L40.7932 130.131C40.6107 129.402 41.3406 130.131 41.523 129.766L43.3476 130.495Z" fill="#FBB55A"/>
<path d="M117.06 134.504C117.972 133.046 118.702 131.589 119.067 129.949L121.256 132.682V133.411L119.067 137.419L117.06 134.504Z" fill="#F9D237"/>
<path d="M82.9403 140.334C82.3929 140.699 81.6631 141.427 81.1157 141.245C80.5684 141.063 80.5684 140.152 80.2035 139.605L79.4736 137.966C78.7438 136.872 77.8315 136.144 76.3719 136.326H75.4596C77.2842 134.504 80.021 134.686 81.1157 137.055L81.4806 137.419L82.9403 140.334Z" fill="#E27E37"/>
<path d="M28.3857 115.737C31.305 117.012 33.8594 116.101 35.3191 113.186L36.0489 112.093C35.684 114.279 35.1366 116.466 33.4945 118.105C32.5822 119.016 31.8524 119.016 30.9401 118.47C29.8454 117.741 28.7507 117.012 28.3857 115.737ZM51.9226 137.054C53.3822 136.326 54.6594 135.597 55.7542 134.321C56.6664 132.864 57.3963 131.588 57.2138 129.766C57.7612 132.864 57.2138 135.779 55.5717 138.512H55.0243C54.1121 137.601 53.0173 137.419 51.9226 137.054Z" fill="#EE783B"/>
<path d="M62.8702 78.021C63.4176 79.6608 64.3299 81.1184 65.7895 82.2116L66.7018 82.5761C65.7895 83.1227 64.6948 83.1227 63.7825 83.1227C62.6878 83.1227 62.1404 82.5761 61.7755 81.665L61.0457 79.2964C60.8632 78.932 61.0457 78.7498 61.2281 78.5676L62.8702 78.021Z" fill="#FBB55A"/>
<path d="M38.421 133.046C39.6982 134.686 40.9754 136.508 42.6175 137.965L44.4421 139.423C44.807 139.787 45.3544 139.605 45.9017 139.787C44.807 140.152 43.8947 139.787 42.9824 139.423L38.9684 137.419C38.6035 137.054 38.421 136.872 38.421 136.326V133.046Z" fill="#C55532"/>
<path d="M23.4597 114.826C23.0948 112.821 23.2772 110.999 24.007 109.177C24.372 109.542 24.1895 109.906 24.1895 110.27C24.372 111.728 24.7369 113.186 25.6492 114.279C26.0141 114.461 26.0141 114.826 26.379 114.826C26.9263 116.283 27.8386 117.559 28.7509 118.652C28.5684 118.834 28.2035 118.652 28.0211 118.47L25.2842 117.012C24.372 116.465 23.6421 115.737 23.4597 114.826Z" fill="#EE783B"/>
<path d="M26.379 114.825C26.0141 115.372 25.8316 114.825 25.6492 114.461C24.5544 113.186 24.0071 111.728 24.0071 110.088V109.177C24.7369 107.173 25.8316 105.169 27.2913 103.529C27.4737 103.529 27.6562 103.711 27.4737 103.893C26.4058 105.485 25.7473 107.316 25.5563 109.222C25.3654 111.129 25.6479 113.054 26.379 114.825Z" fill="#FBB559"/>
<path d="M90.9685 77.6564L89.6913 80.7539C87.5018 81.1183 86.2246 79.6607 85.1299 78.0208C87.1369 77.6564 88.9614 77.4742 90.9685 77.6564ZM49.3685 154.728C48.8211 155.457 48.0913 156.186 47.179 155.821C45.9018 155.639 44.9895 154.91 44.6246 153.635L44.4421 152.177C44.4421 151.813 44.4421 151.631 44.8071 151.448L45.3544 151.631L46.4492 152.177C46.9965 152.542 47.179 153.088 46.9965 153.27C47.179 152.906 47.7263 152.542 48.4562 152.906L49.3685 154.728Z" fill="#FBB55A"/>
<path d="M23.4596 114.826C24.5543 117.012 26.7438 117.559 28.7508 118.652C29.2982 118.652 29.4806 119.199 30.028 119.563C28.3859 119.381 26.9263 119.563 25.6491 120.474C25.4666 120.656 25.2842 120.474 25.2842 120.292C24.3719 118.47 23.6421 116.648 23.4596 114.826Z" fill="#C55532"/>
<path d="M67.7966 131.224C66.5194 129.767 65.2422 129.585 63.6001 130.678H63.0527L63.965 129.22C64.3299 128.674 64.3299 128.309 63.7825 127.945C63.4176 127.763 63.0527 127.58 62.8702 127.034C63.7825 127.398 64.6948 127.945 65.6071 127.945C66.8843 128.127 68.1615 127.945 69.4387 127.398C68.5264 128.491 67.979 129.767 67.7966 131.224Z" fill="#EE783B"/>
<path d="M90.0562 104.258L89.8737 104.076C88.9614 103.529 88.0491 103.165 87.5018 104.44L87.3193 104.258C87.6842 102.8 87.6842 102.8 86.5895 101.889L86.407 101.707C88.2316 101.16 90.0562 100.249 91.6983 99.3384L90.0562 104.258ZM45.7193 113.55L44.807 112.639C44.4421 112.275 44.0772 111.728 43.1649 112.093C43.7123 111.546 43.5298 110.999 43.1649 110.453C42.8 109.906 42.2526 109.36 42.0702 108.631C44.0772 110.271 46.0842 109.36 48.0912 108.448C46.9965 110.088 45.9018 111.546 45.7193 113.55Z" fill="#FBB55A"/>
<path d="M63.4175 97.1526L64.1473 94.784C64.5122 93.6907 65.242 92.5975 65.9719 91.6865C66.1543 93.1441 66.7017 94.4196 67.4315 95.695C67.7964 96.0594 67.7964 96.4238 67.0666 96.4238C65.7894 96.4238 64.6947 96.7882 63.4175 97.1526Z" fill="#EE783B"/>
<path d="M69.621 164.749C67.2491 163.656 65.4246 162.016 63.6 160.376L61.9579 158.919V156.915L62.1403 156.732C64.6947 159.465 66.8842 162.381 69.8035 164.567L69.621 164.749Z" fill="#FBB559"/>
<path d="M66.8843 110.088C65.7896 108.995 64.8773 109.177 63.7826 110.088L63.0527 110.453C63.7826 109.36 64.8773 108.266 63.2352 107.538C65.0598 107.355 66.3369 106.262 67.6141 105.351C67.0668 106.809 66.8843 108.449 66.8843 110.088Z" fill="#FBB55A"/>
<path d="M57.9438 96.0591C58.8561 96.9701 59.7684 97.6989 61.0456 98.0633C59.4035 98.7921 57.5789 99.7031 56.3017 100.796C55.9368 100.979 55.7544 101.161 55.5719 100.979V100.432L57.9438 96.0591Z" fill="#EE773B"/>
<path d="M92.7927 125.94C92.7927 127.033 93.1576 127.944 93.705 129.037C93.705 129.584 93.1576 129.584 92.7927 129.766L90.7857 128.673C89.6909 128.126 89.5085 127.58 90.2383 126.486L90.6032 125.94C91.333 126.122 92.0629 125.575 92.7927 125.94Z" fill="#FBB55A"/>
<path d="M121.256 102.436L121.439 105.898C120.526 105.534 119.797 104.805 119.067 104.258L116.512 102.072C118.154 101.89 119.797 102.072 121.256 102.436Z" fill="#ED773B"/>
<path d="M120.344 129.402L124.358 126.669L125.453 126.122L121.986 131.77L120.344 129.402Z" fill="#EECB4D"/>
<path d="M119.067 127.58C121.621 125.94 124.176 124.665 126.913 123.571L119.979 128.855L119.067 127.58Z" fill="#FDE996"/>
<path d="M80.7511 163.474L80.9336 163.109C82.2107 162.38 83.4879 161.287 83.4879 159.647L84.0353 160.012C85.13 160.741 85.3125 160.923 84.5827 162.198L83.8529 163.292C83.6704 163.474 83.4879 163.656 83.3055 163.474C82.3932 162.927 81.6634 163.656 80.7511 163.474Z" fill="#C55532"/>
<path d="M116.147 100.796C117.059 100.068 117.789 99.521 118.154 98.2455C118.519 97.8811 118.702 98.0633 119.067 98.2455C119.796 98.9744 120.526 99.8854 120.709 100.979L116.147 100.796Z" fill="#EC773B"/>
<path d="M83.1228 87.3135C83.4878 88.7711 84.5825 89.3177 85.6772 89.8643L81.2983 92.2329C82.0281 90.5931 82.7579 88.9533 83.1228 87.3135ZM81.8456 93.5084C81.8456 93.8728 81.6632 93.8728 81.4807 94.055C80.386 95.5126 80.0211 96.9702 80.5685 98.7922L78.1965 96.788C78.0141 96.6058 77.8316 96.6058 78.1965 96.2414C79.2913 95.3304 80.386 94.2372 81.8456 93.5084Z" fill="#EE783B"/>
<path d="M165.228 150.72L168.512 147.622C168.877 147.258 169.06 147.076 169.06 146.711L170.154 147.44C169.06 149.444 167.418 150.72 165.228 150.72Z" fill="#FAB559"/>
<path d="M74.73 74.5593C74.9124 75.8347 74.9124 75.8347 73.6353 75.6525C72.1756 75.2881 70.5335 75.2881 69.0739 75.2881L71.8107 74.1949L73.2703 74.0127C73.8177 74.0127 74.3651 74.0127 74.73 74.5593Z" fill="#F9B459"/>
<path d="M79.1086 111.547L81.663 113.004L77.8314 115.555C78.3788 114.098 78.9262 112.822 79.1086 111.547Z" fill="#EE783B"/>
<path d="M41.8877 99.5204C42.8 98.4272 44.0772 98.0628 45.1719 97.334L46.2666 99.8848C44.807 99.3382 43.3473 99.3382 41.8877 99.5204Z" fill="#EC773B"/>
<path d="M45.3545 120.292C43.7124 121.203 41.8879 121.932 40.4282 123.025L39.6984 123.936C38.9686 122.114 38.7861 122.478 40.6107 121.75C42.0703 121.021 43.7124 120.474 45.3545 120.292Z" fill="#ED783B"/>
<path d="M86.407 127.033L86.7719 126.669C88.0491 125.758 88.0491 125.576 86.9544 124.665L90.2386 123.389L88.7789 126.304C88.2315 125.94 87.8666 126.487 87.5017 126.669L86.5894 127.033H86.407Z" fill="#E27F37"/>
<path d="M36.7789 96.2412L36.414 98.9742C36.2316 99.7031 35.6842 99.3387 35.3193 99.5209C34.9544 99.7031 34.5894 99.5209 34.407 99.3387C34.0421 98.9742 34.407 98.792 34.5894 98.4276C34.9544 97.5166 35.6842 96.7878 36.7789 96.2412Z" fill="#FAB459"/>
<path d="M98.9965 95.6948C98.2667 96.9702 97.9018 98.4279 97.3544 99.7033L95.1649 97.3346L95.3474 96.9702C96.6246 97.6991 96.807 97.5168 98.0842 96.6058L98.9965 95.6948Z" fill="#ED783B"/>
<path d="M142.786 169.305C144.975 169.305 146.983 168.758 148.99 168.394L149.354 169.851C149.354 170.033 149.537 170.398 149.172 170.58L148.442 170.216L147.895 169.669C147.347 169.305 146.8 169.122 146.07 169.487C144.975 169.851 143.881 169.487 142.786 169.305Z" fill="#EC783B"/>
<path d="M91.5159 104.44C92.0633 105.534 92.9755 105.351 93.8878 105.351C93.158 106.262 92.7931 107.173 92.6106 108.267C91.5159 107.173 90.9685 105.898 91.5159 104.44Z" fill="#FAB55A"/>
<path d="M89.8737 88.7706C90.7859 87.8595 91.5158 86.9485 92.6105 86.2197C92.793 87.1307 93.3403 87.6773 93.7052 88.5884L89.8737 88.7706Z" fill="#F9B459"/>
<path d="M48.4562 153.088C47.7264 152.906 47.1791 153.088 46.8141 153.817C47.1791 152.542 45.9019 152.359 45.3545 151.631C46.2668 151.813 46.9966 151.448 47.7264 151.266C48.2738 151.266 48.4562 151.266 48.4562 151.813V153.088Z" fill="#EC773B"/>
<path d="M64.5124 166.024C63.2352 164.202 61.7756 162.563 59.7686 161.652L59.951 161.287C61.5931 161.652 63.0528 162.198 63.7826 164.02L64.5124 165.66V166.024Z" fill="#FAB459"/>
<path d="M92.7931 125.94L91.3335 126.122C91.151 126.304 90.7861 126.122 90.6036 125.758L90.7861 125.211C91.3335 123.936 91.3335 124.118 92.6107 124.664C93.3405 125.029 92.9756 125.393 92.7931 125.94Z" fill="#FBD279"/>
<path d="M67.7965 85.6735C67.7965 85.1269 67.614 84.9447 67.0667 85.1269L65.9719 85.6735L66.8842 84.9447C67.614 84.5803 67.2491 84.398 66.7017 84.0336L70.1684 82.9404L67.7965 85.6735Z" fill="#FAB55A"/>
<path d="M94.6174 124.118V123.754L95.1648 127.034L95.3472 128.856C94.2525 127.58 93.5227 126.305 94.435 124.665L94.6174 124.118Z" fill="#ED7A3C"/>
<path d="M62.8701 138.876C61.5929 139.423 60.6806 140.334 60.6806 141.974C59.0385 140.516 59.0385 140.516 60.8631 139.605C61.5929 139.241 62.1403 138.876 62.8701 138.876Z" fill="#C55532"/>
<path d="M88.049 162.745C87.1367 163.292 86.2244 163.292 85.3121 163.656L85.677 163.109C86.042 162.745 85.8595 161.652 86.4069 161.652C86.9542 161.652 87.5016 162.381 88.049 162.745Z" fill="#C35431"/>
<path d="M80.751 115.372C80.2036 116.283 79.4738 117.012 79.1089 118.105C78.0142 117.194 78.0142 117.012 79.1089 116.283C79.6563 115.919 80.0212 115.372 80.751 115.372Z" fill="#C45632"/>
<path d="M108.302 165.478L104.288 164.932C105.017 164.203 105.93 164.385 106.842 164.567L107.754 164.932L108.302 165.478Z" fill="#FAB558"/>
<path d="M74.73 74.5591C73.8177 74.1947 72.7229 74.5591 71.8107 74.1947C72.7229 73.6481 73.8177 73.4659 74.9124 73.2837L74.73 74.5591Z" fill="#F8CF77"/>
<path d="M82.9405 140.334C82.2107 139.423 81.8457 138.512 81.4808 137.419C82.2107 138.148 82.5756 139.059 82.9405 139.788V140.334Z" fill="#F2AB54"/>
<path d="M58.8561 100.796C58.6737 101.343 58.1263 101.707 58.1263 102.436C57.0316 101.889 57.0316 101.889 57.9438 101.16L58.8561 100.796Z" fill="#EC793B"/>
<path d="M92.793 129.766L93.7052 129.037C93.8877 129.402 94.6175 129.584 94.2526 129.948C93.8877 130.313 93.3403 129.948 92.9754 129.766H92.793Z" fill="#C35732"/>
<path d="M93.8876 131.407C92.7929 131.407 93.3402 132.136 93.1578 132.864C92.9753 132.136 92.4279 131.953 92.2455 131.407H93.8876Z" fill="#E5853B"/>
<path d="M130.014 171.49C130.379 170.944 131.109 171.308 131.656 171.126V171.308L130.014 171.49Z" fill="#EBAE46"/>
<path d="M64.5121 166.025V165.66L65.2419 167.3C64.6945 166.936 64.6945 166.389 64.5121 166.025Z" fill="#E2974B"/>
<path d="M79.8386 121.203L79.6561 121.385C79.2912 121.203 79.1088 120.839 79.1088 120.292L79.8386 121.203Z" fill="#E69D4C"/>
<path d="M69.6213 164.748L69.8038 164.384L70.7161 164.93L69.6213 164.748Z" fill="#EC9E4E"/>
<path d="M131.656 171.308V171.126H132.933L131.656 171.308Z" fill="#DCA643"/>
<path d="M117.242 168.758C117.79 168.575 118.154 168.393 118.337 169.304L117.242 168.758Z" fill="#E3A647"/>
<path d="M133.116 170.944C133.481 170.58 134.028 170.58 134.393 170.58C134.028 170.944 133.663 170.944 133.116 170.944Z" fill="#E1A643"/>
<path d="M27.4737 103.893L27.2913 103.711C27.4737 103.347 27.4737 103.165 27.8386 103.165L27.4737 103.893Z" fill="#E09F4F"/>
<path d="M59.9507 161.287L59.7683 161.47C59.5858 161.287 59.2209 161.47 59.0385 161.105L59.9507 161.287Z" fill="#EA9C4D"/>
<path d="M54.4773 101.889L54.2948 102.071L53.7474 101.889H54.4773Z" fill="#CA8C46"/>
<path d="M95.3474 96.9698L95.165 97.3338L94.8 96.7878C94.9825 96.6058 95.165 96.9698 95.3474 96.9698Z" fill="#C46632"/>
<path d="M163.038 71.0971L156.288 72.5548C151.544 74.0124 147.165 75.47 142.603 77.4742C141.874 77.8386 141.144 78.0208 140.231 77.8386C137.13 77.292 133.845 77.292 130.561 77.4742H129.102L131.474 74.3768L132.751 72.5548C133.298 71.4615 134.393 70.9149 135.67 70.7327L136.765 70.3683L142.056 69.2751C145.158 68.5463 148.259 68.3641 151.544 68.7285C155.01 68.9107 158.295 69.4573 161.761 70.3683C162.126 70.5505 162.674 70.5505 163.038 71.0971ZM125.635 66.3599L128.737 62.898C132.381 59.0975 135.793 55.0819 138.954 50.8727C139.319 50.6905 139.502 51.0549 139.502 51.4193C140.596 53.4235 140.779 55.4277 139.684 57.432L134.393 67.6353L132.751 70.3683L125.452 80.0251C124.54 80.3895 123.445 80.2073 122.898 79.4784C122.168 78.7496 122.168 78.0208 122.716 77.1098L124.905 71.4615L125.452 67.0887L125.635 66.3599Z" fill="#3D9A28"/>
<path d="M136.4 69.0929L134.758 69.6395L136.947 66.3598L138.224 64.1734C138.772 62.898 139.867 62.1692 141.326 61.4404C146.982 58.7073 153.003 56.3387 159.207 54.6989C162.674 53.9701 166.323 53.4235 169.789 53.7879C172.161 53.9701 174.533 54.5167 176.723 55.7921L174.168 56.3387C168.695 56.7031 163.403 58.3429 157.93 59.6183C150.199 61.332 142.883 64.5516 136.4 69.0929Z" fill="#7ED34E"/>
<path d="M158.477 91.1393L153.916 89.4995C149.719 88.2241 145.523 87.1309 141.144 86.9487C138.772 86.7665 136.765 86.0377 134.758 85.1266C131.656 83.8512 128.372 83.1224 124.905 83.1224H124.358L127.46 79.4784C127.825 79.114 128.007 79.114 128.372 79.114C128.919 79.2962 129.467 78.9318 130.014 78.9318C133.846 78.9318 137.312 79.6606 140.961 80.7538C147.165 82.5758 152.821 85.491 157.565 89.8639C158.112 90.2283 158.66 90.4105 158.477 91.1393ZM125.088 59.4361L124.175 65.8132C123.81 67.453 123.081 68.9106 122.533 70.5505C121.074 74.3767 119.432 78.0208 117.425 81.6648C116.33 83.669 115.053 85.8555 113.41 87.4953C113.228 87.6775 113.046 88.0419 112.681 87.6775C112.316 87.4953 112.498 87.1309 112.681 86.9487C115.6 83.3046 116.695 79.114 117.607 74.5589C117.972 72.3725 117.972 70.0039 118.519 67.8174C119.432 63.6268 119.614 59.4361 119.614 55.2455C119.614 53.059 120.344 51.0548 120.709 49.0506L120.891 48.3218C121.256 48.3218 121.256 48.504 121.439 48.6862L122.351 49.9616C123.263 52.148 124.175 54.3345 124.723 56.5209L125.088 59.4361Z" fill="#3D9A28"/>
<path d="M139.348 60.5177C140.261 58.3313 141.538 56.327 142.085 54.1406C142.632 51.2254 144.639 49.4033 146.829 47.5813C147.559 47.3991 147.924 46.8525 148.471 46.4881C152.85 43.5729 157.229 41.022 161.973 39.0178C162.52 38.8356 162.885 38.4712 163.432 38.8356L159.236 44.3017L154.857 50.3144C153.215 51.9542 151.39 53.0474 149.383 54.1406L141.72 59.2423L140.261 60.3355C139.896 60.5177 139.713 60.6999 139.348 60.5177Z" fill="#4B9A1F"/>
<path d="M112.498 67.6352L115.235 59.6183L117.059 53.2412L117.242 53.97C117.242 57.7963 117.607 61.6225 116.877 65.2666C116.147 68.7284 115.965 72.1903 115.417 75.4699C114.87 79.1139 114.14 82.3936 111.951 85.3088C111.951 85.6732 111.768 86.0376 111.403 86.0376L108.849 83.1224C108.302 82.5758 107.207 82.5758 107.024 81.6648C106.842 81.1182 107.207 80.7538 107.207 80.3894C108.302 78.2029 109.761 76.0165 110.673 73.6479C111.403 72.1903 111.768 70.5504 112.316 68.9106L112.498 67.6352ZM137.13 100.796C135.488 100.067 134.21 98.974 132.568 98.063C129.284 96.241 125.635 94.9655 121.803 94.2367L118.337 94.0545C117.789 94.2367 117.242 93.8723 116.877 93.5079C115.782 92.5969 114.688 91.5037 114.14 90.0461C113.958 89.6817 113.41 89.3173 113.775 88.9529C114.14 88.5885 114.505 88.0419 115.235 88.0419L118.884 88.5885C121.803 88.9529 124.723 89.8639 127.459 91.1393C131.109 92.9613 134.028 95.5122 136.035 98.974L136.765 100.249L137.13 100.796ZM144.61 93.1435L138.224 91.8681C136.4 91.5037 134.393 91.3215 132.568 91.3215C130.196 91.3215 128.372 90.4105 126.365 89.4995C123.263 88.0419 119.979 87.313 116.695 87.1308L115.965 86.7664C115.782 86.2198 116.33 86.2198 116.512 86.0376L122.898 84.58H124.175C131.46 85.4225 138.388 88.1899 144.245 92.5969C144.428 92.7791 144.61 92.7791 144.61 93.1435ZM136.4 69.0928C137.495 67.8174 139.137 67.0886 140.596 66.3598C144.428 64.1734 148.442 62.1691 152.638 60.8937L161.031 58.5251C165.349 57.4273 169.739 56.6358 174.168 56.1564C172.709 56.7031 171.066 56.8853 169.607 57.2497C163.586 58.8895 157.93 61.4403 153.003 65.4488C152.091 66.3598 150.996 66.1776 150.084 66.1776C146.617 66.542 143.333 67.2708 140.049 67.9996C138.772 68.364 137.677 68.9106 136.4 69.0928Z" fill="#2B8616"/>
<path d="M126.569 53.6061L127.117 49.2332C127.299 46.8646 129.124 45.407 130.218 43.5849L135.145 36.2969C135.51 35.7502 135.874 35.568 136.239 36.2969L138.064 39.3943C138.429 39.9409 138.429 40.3053 138.064 40.8519L134.415 45.0426L127.117 53.4239L126.569 53.6061ZM126.022 48.6866L125.474 45.9536C124.927 43.7672 123.832 41.5807 122.92 39.3943C122.738 38.6655 122.373 38.1189 121.825 37.5723C121.46 36.6613 120.731 36.1147 119.818 35.568C115.804 33.5638 111.973 31.5596 107.594 30.2842H109.601L111.79 30.4664C114.345 30.4664 116.717 30.8308 119.271 31.5596C120.913 31.924 122.373 32.835 123.285 34.2926L125.657 37.9367C127.117 40.3053 127.664 42.8561 126.752 45.407L126.022 48.6866Z" fill="#4B9A1F"/>
<path d="M132.751 70.3684C132.386 69.8218 133.116 69.4574 133.298 69.0929L135.853 64.1735C137.13 61.8049 138.589 59.4362 139.684 56.8854C140.779 54.699 140.232 52.6947 138.954 50.6905C136.765 46.3177 133.846 42.6736 130.014 39.5762C131.291 39.7584 132.204 40.305 133.298 40.8516C136.4 42.6736 139.137 44.6778 141.691 47.2287C143.151 48.8685 143.333 50.5083 142.604 52.5125C139.823 58.8216 136.464 64.86 132.568 70.5506L132.751 70.3684Z" fill="#8CED57"/>
<path d="M155.659 27.3687C155.477 33.1991 154.382 39.0296 152.74 44.6779C152.375 46.1355 152.192 46.1355 151.28 45.0423L148.361 42.6736C147.631 42.3092 147.631 41.9448 147.996 41.216C150.368 37.572 152.557 33.9279 154.564 30.1017L155.659 27.3687Z" fill="#4B9A1F"/>
<path d="M163.039 71.0973C159.39 70.0041 155.558 69.2753 151.727 68.9109C148.26 68.7287 144.793 68.9109 141.327 69.6397L136.765 70.5507C142.168 68.6623 147.83 67.6175 153.551 67.4533C158.66 67.0888 163.769 67.8177 168.513 70.0041L168.877 70.3685C166.87 70.5507 165.046 71.0973 163.039 71.0973Z" fill="#4B9A1F"/>
<path d="M158.477 91.1398C150.584 83.6661 140.161 79.4374 129.284 79.2967L128.372 79.1145L135.488 78.5679C138.954 78.5679 142.421 79.2967 145.705 80.7543C151.386 83.3359 156.431 87.1297 160.484 91.8686L158.477 91.1398ZM103.376 79.4789C104.653 80.5721 105.565 81.8475 106.477 82.9407C106.66 83.1229 106.842 83.3051 106.66 83.4873H106.112C104.835 82.7585 103.376 82.3941 101.733 82.0297C98.2668 81.4831 95.165 82.3941 92.4282 84.5805C91.3334 85.3094 90.4212 86.4026 89.3264 87.4958C89.5089 86.9492 89.3264 86.5848 89.6913 86.2204C90.2387 84.5805 90.9685 83.1229 92.2457 81.6653C94.9826 78.5679 98.9966 78.0213 103.011 79.4789H103.376Z" fill="#6AC026"/>
<path d="M125.635 66.3599C126 69.2751 124.905 72.0081 123.993 74.559L122.898 77.1098C122.169 78.7496 122.898 79.8428 124.723 79.8428H125.453L122.533 83.1225L122.351 83.3047L117.242 84.5801L119.432 80.5716C121.074 77.292 122.533 74.0124 123.811 70.5505C124.358 69.4573 124.905 68.1819 125.088 66.9065L125.635 66.3599Z" fill="#69BC3B"/>
<path d="M103.375 79.4788C102.646 79.8432 101.916 79.2966 101.186 79.1144C96.2597 78.2033 92.793 80.3898 90.786 84.216L89.8737 86.4025H89.6913V86.2202C90.2386 83.305 90.9684 80.572 92.2456 77.8389C93.7053 75.1059 96.0772 74.3771 98.6316 75.8347L99.5439 76.1991C101.004 77.2923 102.281 78.2033 103.375 79.4788ZM100.639 68.3644C98.8141 67.2712 96.807 67.2712 94.8 67.2712L91.5158 67.4534L88.4141 67.8178C88.4141 67.4534 88.779 67.2712 89.1439 67.089C90.9684 65.8136 92.793 64.7204 94.9825 63.9916C97.9018 63.2628 100.274 63.9916 102.098 66.178C103.011 67.2712 103.74 68.5466 104.288 69.822C103.923 70.1864 103.923 70.1864 103.74 70.0042L100.639 68.3644Z" fill="#67CA32"/>
<path d="M111.404 86.038C113.046 83.6694 113.958 81.1186 114.688 78.3855L115.6 72.0084C115.783 69.822 115.965 67.6356 116.512 65.6314C116.877 63.6271 117.06 61.6229 117.06 59.4365V53.2416L117.607 51.0552H117.972L118.337 58.3433C118.155 60.8941 118.337 63.4449 117.607 65.8136C116.877 68.7288 116.877 71.644 116.33 74.5593C115.6 78.3855 114.505 82.2118 112.134 85.6736C111.769 86.2202 111.769 86.2202 111.404 86.038Z" fill="#7ED34E"/>
<path d="M112.498 67.6353C113.046 68.7285 112.133 69.8217 111.951 70.9149C111.221 74.0123 109.579 76.7454 108.119 79.4784L107.024 81.6648C106.66 81.4826 106.66 81.1182 106.842 80.7538C107.572 78.7496 107.572 76.381 107.024 74.1945C106.66 72.9191 107.207 72.1903 107.937 71.2793C109.214 69.8217 110.674 68.5463 112.498 67.6353Z" fill="#56A22D"/>
<path d="M140.962 59.8005C144.907 56.9921 148.986 54.3774 153.186 51.9658L156.47 49.5972L152.274 55.0632C151.727 55.792 150.997 55.9742 150.267 56.1565C147.021 57.3562 143.852 58.7558 140.779 60.3471C140.597 60.1649 140.779 59.9827 140.962 59.8005Z" fill="#69BC3B"/>
<path d="M100.639 68.3638C101.733 68.546 102.463 69.0926 103.375 69.6392C103.74 69.6392 103.923 70.0036 104.288 69.8214C105.2 71.6434 105.565 73.4654 105.93 75.4697V79.1137L105.565 79.8425C105.382 80.0247 105.2 79.4781 105.017 79.4781C103.923 78.5671 104.105 77.1095 103.74 75.8341C103.01 73.101 102.463 70.5502 100.639 68.3638ZM144.61 93.1433C138.651 88.5791 131.612 85.6293 124.175 84.5798C128.554 84.0332 132.568 85.673 136.582 87.3128C139.684 88.5882 142.603 89.8636 145.158 91.8679L147.165 93.8721L144.61 93.1433Z" fill="#6AC026"/>
<path d="M165.046 38.1188C163.039 38.6654 161.032 39.7586 159.025 40.6697L150.084 45.9535C149.537 46.3179 149.172 47.0467 148.442 47.0467C153.733 42.1273 159.39 38.301 166.323 36.479L165.046 38.1188Z" fill="#8CED57"/>
<path d="M88.2317 86.5842C87.5019 86.9486 86.9545 87.4952 86.0422 87.4952C85.3124 87.4952 84.9475 87.313 84.765 86.5842C84.5826 85.8553 84.765 85.1265 84.9475 84.3977C85.3124 83.1223 87.8668 82.9401 88.7791 83.8511L88.2317 86.5842Z" fill="#FCD47A"/>
<path d="M110.309 61.0762C110.673 63.2626 110.309 65.2668 110.126 67.2711C110.126 67.6355 109.761 67.8177 109.396 68.1821C108.302 68.9109 107.572 70.0041 106.659 70.9151C106.477 71.0973 106.477 71.4617 106.295 71.2795L106.112 70.7329L107.389 67.9999C108.302 65.8134 109.579 63.627 110.309 61.0762Z" fill="#5EB62D"/>
<path d="M102.463 76.7457L99.9089 74.9237L99.7264 74.3771L100.456 70.3687C101.551 72.5551 102.098 74.5593 102.463 76.7457Z" fill="#4AA718"/>
<path d="M105.017 84.3979C107.754 85.4912 107.754 85.4912 107.572 86.7666C106.112 86.4022 105.382 85.6734 105.017 84.3979Z" fill="#68BB3B"/>
<path d="M136.765 70.3687C136.4 70.7327 136.035 70.9147 135.67 70.7327L136.765 70.3687Z" fill="#8CED57"/>
<path d="M117.971 51.0544H117.607C117.607 50.8723 117.425 50.5083 117.789 50.5083L117.971 51.0544Z" fill="#62AC43"/>
<path d="M122.898 116.648L113.411 111.546C110.126 109.907 107.025 108.085 104.105 106.08L103.376 105.534C103.011 105.352 102.646 104.987 102.828 104.623C103.011 104.258 103.376 104.076 103.74 104.076C109.252 106.711 114.454 109.95 119.249 113.733C120.709 114.462 121.986 115.373 122.898 116.648ZM123.993 120.292L118.702 119.563L111.404 118.652L102.098 117.013C101.551 116.83 101.004 116.648 101.186 115.919C101.369 115.373 101.733 115.191 102.281 115.008C104.288 115.008 106.112 115.373 108.119 115.737C112.498 116.466 116.877 117.741 121.256 119.017L123.993 119.928V120.292ZM141.326 130.131C147.199 133.938 153.099 137.704 159.025 141.428L160.119 142.339C160.484 142.703 160.849 143.067 160.484 143.432C160.119 143.978 159.754 144.161 159.207 143.796L156.105 142.156C150.816 138.752 145.867 134.847 141.326 130.496L141.144 130.313L141.326 130.131ZM144.063 143.796L145.34 148.169C146.435 151.813 147.53 155.275 148.077 158.737L148.26 160.194C148.26 160.559 148.26 160.741 147.895 160.923C147.53 161.105 147.165 160.741 146.983 160.377L146.253 158.737C145.34 154.911 144.611 151.084 144.246 147.258L143.881 143.796H144.063ZM135.123 146.529L135.488 153.089L135.67 159.283L135.305 163.11C135.305 163.474 135.123 163.839 134.758 163.656C134.211 163.656 134.028 163.474 134.028 162.928L133.846 161.652L134.393 151.813L134.94 147.258L135.123 146.529ZM132.933 140.152L132.569 145.072L132.021 149.809L131.109 156.55C130.926 156.733 131.109 157.461 130.379 157.279C129.832 157.097 129.649 156.733 129.649 156.186C130.029 150.87 131.009 145.614 132.569 140.517L132.751 139.97L132.933 140.152ZM137.495 134.322L138.59 138.877C139.137 141.974 140.049 144.889 140.414 147.987L140.779 150.538C140.961 151.084 140.961 151.449 140.414 151.449C139.867 151.631 139.502 151.449 139.502 150.902L138.772 148.351C138.042 144.525 137.495 140.699 137.495 136.69C137.495 135.962 137.13 135.233 137.495 134.322ZM128.554 145.072L127.46 149.445L124.358 159.283L123.628 160.741C123.628 161.105 123.446 161.652 122.898 161.47C122.533 161.288 122.169 160.741 122.351 160.194L123.628 156.004C124.905 152.36 126.365 148.898 128.19 145.618L128.554 145.072Z" fill="#FDE996"/>
<path d="M138.772 152.359L139.684 156.368L140.779 161.287C140.779 161.652 140.962 162.016 140.597 162.016C140.232 162.198 140.049 161.834 139.867 161.469L138.955 156.55L138.59 152.542L138.772 152.359Z" fill="#FDE995"/>
<path d="M105.018 139.788L103.558 141.61L96.4424 148.898L93.5231 151.449C93.1581 151.631 92.7932 151.995 92.4283 151.449C92.0634 151.084 92.2459 150.72 92.6108 150.173C94.9827 147.258 98.0845 144.889 101.186 142.521L105.018 139.788ZM113.958 135.05V135.415C112.134 140.334 110.491 145.254 108.302 149.991C108.12 150.355 107.937 151.266 107.207 150.902C106.477 150.72 106.842 149.991 107.025 149.444L109.032 143.978C110.309 141.063 111.769 138.33 113.411 135.779C113.411 135.415 113.593 135.232 113.958 135.05ZM105.383 143.067L105.2 143.614L100.091 153.817L97.7195 158.008C97.5371 158.19 97.3546 158.737 96.8073 158.372C96.2599 158.19 96.4424 157.643 96.6248 157.279C98.8143 152.177 101.734 147.622 105.2 143.067H105.383ZM97.5371 143.067L92.6108 147.44L86.5897 152.724L85.1301 153.817C84.7652 153.999 84.2178 154.546 84.0353 153.999C83.6704 153.635 83.8529 153.088 84.2178 152.724L86.5897 150.537C89.509 148.169 92.4283 146.165 95.5301 144.16L97.5371 142.885V143.067Z" fill="#FDE996"/>
<path d="M51.0105 143.431C51.3754 142.156 52.1052 142.338 52.835 142.52L54.1122 143.249C55.207 144.16 55.207 144.342 54.2947 145.253C55.5719 145.8 56.1192 146.529 55.9368 147.986L55.207 150.901C54.6596 151.812 54.6596 151.812 53.9298 151.084L53.5649 150.901L53.7473 151.266C53.5649 151.63 54.2947 152.359 53.3824 152.359C52.1052 152.541 51.5578 152.177 51.5578 151.266L52.1052 147.986C52.2877 147.075 51.9228 146.346 51.3754 145.618C51.0105 145.253 50.4631 145.253 50.0982 145.435L47.5438 146.529C46.9964 146.711 46.4491 146.893 45.9017 146.711C45.5368 146.529 45.1719 146.346 45.1719 145.8C45.1719 145.435 45.3543 144.889 45.7192 144.889C46.2666 144.707 46.0842 144.524 46.0842 144.16C45.9017 143.249 46.814 143.067 47.3613 142.702C47.7263 142.156 47.9087 142.52 48.0912 143.067C48.4561 142.156 49.0035 141.974 49.7333 142.156C50.2806 142.156 50.828 142.338 51.0105 143.431Z" fill="#FBB55A"/>
<path d="M42.9823 125.211C43.5297 125.576 43.8946 125.758 44.4419 125.576L43.5297 124.665C43.1648 124.118 43.1648 123.754 43.5297 123.389C44.2595 122.478 45.3542 122.296 46.2665 122.114C46.9963 121.75 47.9086 121.385 48.6384 121.75C49.5507 122.114 48.6384 123.207 49.1858 123.936C49.5507 123.389 49.7332 122.843 49.7332 122.114C49.7332 121.75 50.0981 121.567 50.463 121.75C52.1051 122.114 53.5648 123.025 54.477 124.665C55.0244 125.758 54.8419 125.94 53.9297 126.487L53.1998 126.669L53.9297 126.851C55.0244 126.851 55.2069 127.398 55.0244 128.309V128.673C55.0244 130.313 55.0244 130.313 53.5648 130.131H53.3823C54.6595 131.224 54.6595 131.589 53.3823 132.864L53.1998 133.046C52.1051 133.957 51.5577 133.957 51.1928 132.5L51.0104 131.771L50.463 132.5L50.2805 133.228C49.1858 132.864 49.0034 131.406 49.5507 129.766C49.7332 129.038 50.0981 128.309 49.9156 127.58C49.9156 126.487 49.3683 126.122 48.2735 126.305L45.3542 127.216C43.7121 127.762 42.9823 127.033 42.9823 125.211Z" fill="#FCD47B"/>
<path d="M31.4876 127.944L33.1298 127.762C33.6771 127.58 34.042 127.762 34.042 128.309C34.042 129.22 34.2245 130.131 33.8596 131.042C33.8596 131.588 33.4947 131.771 32.9473 131.588C32.5824 131.406 32.2175 131.224 31.8526 131.588L32.2175 131.953C32.3999 132.317 32.9473 132.317 32.9473 132.682C32.9473 133.046 32.3999 133.41 32.035 133.775C31.6701 134.139 31.1227 134.139 30.7578 134.321C30.3929 134.504 30.2105 134.321 30.2105 133.957L29.6631 133.228C29.1157 133.957 28.7508 133.957 28.2034 133.046C27.8385 132.317 27.6561 131.588 27.8385 130.86L28.3859 127.398C28.3859 126.305 28.021 125.94 26.9262 125.94L26.1964 126.122C25.4666 126.122 25.1017 125.758 25.1017 125.029C25.1017 123.754 25.4666 122.66 26.3789 121.932C27.1087 121.203 27.8385 121.567 28.021 122.478L28.2034 123.025L28.3859 123.389L28.7508 123.025L28.9333 122.478C29.1157 122.114 29.2982 122.114 29.6631 122.296C31.3052 123.207 32.7648 124.482 33.4947 126.305C33.6771 126.851 33.4947 127.033 33.1298 127.033C32.5824 127.216 32.035 127.216 31.4876 127.944Z" fill="#FBB55A"/>
<path d="M86.4069 127.034L86.5894 127.216L85.4946 127.58L86.4069 127.034Z" fill="#EB9142"/>
<defs>
<linearGradient id="paint0_linear_7002_11347" x1="96.8826" y1="68.9351" x2="96.8826" y2="175" gradientUnits="userSpaceOnUse">
<stop stop-color="#ECB527"/>
<stop offset="1" stop-color="#C84A22"/>
</linearGradient>
<linearGradient id="paint1_linear_7002_11347" x1="146.355" y1="24.6866" x2="132.299" y2="108.62" gradientUnits="userSpaceOnUse">
<stop stop-color="#59C81B"/>
<stop offset="1" stop-color="#358C21"/>
</linearGradient>
</defs>
</svg>
