<svg width="200" height="200" viewBox="0 0 200 200" fill="none" xmlns="http://www.w3.org/2000/svg">
<path d="M154.671 154.211C154.19 154.531 153.71 154.851 153.39 155.171C153.07 155.331 152.269 155.81 151.309 156.29C152.59 155.81 153.55 155.331 153.87 155.011C153.87 155.011 154.19 154.691 154.671 154.211ZM111.126 116.791C111.927 120.629 112.247 124.307 112.247 127.825C112.247 129.264 112.247 130.544 112.087 131.983C114.808 137.74 116.729 141.738 112.887 144.137C111.927 144.776 110.806 144.936 109.685 144.936C109.525 144.936 109.365 144.936 109.205 144.936C108.725 146.055 108.245 147.335 107.764 148.454C110.806 150.053 114.008 151.333 116.889 151.333C118.49 151.333 119.931 151.013 121.052 150.053C126.015 146.375 121.532 137.42 118.811 131.983C116.889 129.264 115.128 126.226 113.528 122.868C112.727 121.109 111.927 119.19 111.126 116.791ZM109.845 84.0087C109.525 84.1686 109.045 84.3285 108.725 84.3285C108.405 84.3285 108.085 84.3285 107.604 84.1686C108.085 84.3285 108.405 84.4884 108.405 84.4884C108.725 84.6484 108.885 84.6484 109.205 84.6484C109.525 84.6484 110.006 84.4885 110.326 84.3285L110.006 84.1686C110.006 84.3285 110.006 84.1686 109.845 84.0087ZM104.242 83.8488C102.321 83.8488 99.7598 84.3285 96.3979 86.7273C95.4374 87.3669 94.3167 88.4863 93.3562 89.7656C93.9966 90.0855 94.797 90.5652 95.4374 90.885C96.2378 90.4053 97.1984 90.2454 98.1589 90.2454C98.7993 90.2454 99.5997 90.4053 100.4 90.5652C104.723 92.0044 105.203 95.6825 105.203 101.12C106.484 103.358 107.764 105.757 108.725 108.476C107.924 104.318 107.604 99.8402 108.245 95.6825C108.565 91.6846 109.525 88.8062 110.486 86.7273C109.685 87.3669 109.045 87.5268 108.405 87.5268C107.444 87.5268 106.804 86.7273 106.163 85.4479C105.843 84.4885 106.003 84.1686 106.484 84.1686C106.003 83.8488 105.043 83.8488 104.242 83.8488ZM145.866 76.013C148.107 77.4522 181.886 99.5204 165.397 138.54C165.077 139.499 164.596 140.299 164.276 141.258C167.638 135.021 170.36 127.026 170.36 118.07C170.36 108.476 167.158 97.7614 158.193 86.7273C154.19 81.9298 150.028 78.4117 145.866 76.013ZM138.822 136.141C130.337 136.141 120.251 127.825 114.488 115.192C107.764 100.32 109.685 85.288 118.811 81.61C120.251 80.9704 121.692 80.8104 123.293 80.8104C131.778 80.8104 141.864 89.126 147.627 101.759C154.351 116.631 152.429 131.663 143.304 135.341C141.864 135.981 140.423 136.141 138.822 136.141ZM130.817 71.6953C122.813 71.6953 115.769 75.3733 111.606 81.7699C111.767 81.9298 111.927 82.2497 112.247 82.4096C112.727 81.61 113.367 80.8104 113.848 79.8509C114.168 79.2113 114.648 79.0514 114.808 79.0514C115.609 79.0514 115.289 82.0897 112.407 84.9682C112.087 85.288 111.927 85.448 111.767 85.6079C111.126 86.7273 110.486 88.1665 110.006 90.4053C110.166 90.0855 110.326 89.9256 110.326 89.6057C110.326 89.6057 106.324 110.714 120.411 128.625C124.574 132.303 132.098 140.778 141.703 140.778C145.225 140.778 148.908 139.659 152.75 136.78C170.039 124.147 154.351 86.0876 145.866 76.013C140.743 72.9746 135.62 71.6953 130.817 71.6953Z" fill="url(#paint0_radial_7002_12937)"/>
<path d="M110.486 82.8891L110.166 82.7292C110.006 83.2089 109.685 83.3688 109.525 83.5287C109.205 83.6887 109.045 83.6886 108.725 83.6886C108.245 83.6886 107.604 83.5287 106.964 83.3688C106.163 83.2089 105.363 83.049 104.402 83.049C102.321 83.049 99.7599 83.6887 96.2379 85.9275C93.6765 87.6865 91.115 91.2046 89.1939 95.8421C87.2728 100.48 85.832 106.396 85.832 112.633C85.832 123.507 89.8343 135.821 101.521 146.215C113.528 156.929 125.374 159.968 134.82 159.968C140.103 159.968 144.585 159.008 147.787 158.049C151.149 156.929 153.39 155.81 154.191 155.33C154.511 155.17 154.991 154.691 155.631 154.051C157.873 151.972 161.715 147.335 164.917 141.098C168.278 134.861 171 126.706 171 117.75C171 107.996 167.798 97.1215 158.673 86.0874C150.028 75.533 139.782 70.8955 130.817 70.8955C122.173 70.8955 114.488 75.2132 110.326 82.5693L110.486 82.8891L110.806 83.049C114.968 75.8529 122.333 71.6951 130.817 71.6951C139.622 71.6951 149.548 76.1727 158.193 86.5671C167.318 97.6012 170.36 108.315 170.36 117.91C170.36 128.145 166.838 136.94 162.995 143.497C161.074 146.855 158.993 149.413 157.392 151.492C156.592 152.452 155.791 153.251 155.151 153.891C154.511 154.531 154.03 154.851 153.87 155.01C153.23 155.49 150.989 156.61 147.627 157.569C144.265 158.529 139.943 159.488 134.82 159.488C125.534 159.488 113.848 156.45 101.841 145.895C90.3146 135.501 86.3123 123.347 86.3123 112.633C86.3123 106.396 87.593 100.64 89.6742 96.0021C91.5953 91.3646 94.1567 88.0064 96.5581 86.4072C99.92 84.1684 102.481 83.5287 104.402 83.5287C105.363 83.5287 106.163 83.6887 106.964 83.8486C107.764 84.0085 108.405 84.1684 108.885 84.1684C109.205 84.1684 109.685 84.1684 110.006 83.8486C110.326 83.6887 110.646 83.3688 110.966 82.8891H110.486Z" fill="#23100F"/>
<path d="M111.606 84.4883C110.486 86.2473 108.084 91.0448 108.084 98.7207C108.084 105.917 110.166 115.672 117.53 127.665C123.613 137.74 131.938 143.337 138.662 146.375C145.385 149.414 150.668 149.893 150.668 149.893C150.829 149.893 150.989 149.733 150.989 149.573C150.989 149.414 150.829 149.254 150.668 149.254C150.668 149.254 150.668 149.254 150.508 149.254C149.388 149.094 144.105 148.294 137.701 145.096C131.298 141.898 123.773 136.46 118.01 127.185C110.806 115.192 108.725 105.597 108.725 98.5608C108.725 91.0448 110.966 86.4073 112.087 84.6482C112.247 84.4883 112.087 84.3284 111.927 84.1685C111.927 84.3284 111.767 84.4883 111.606 84.4883Z" fill="#23100F"/>
<path d="M132.098 124.786C125.694 124.786 118.17 118.07 114.488 108.155C110.326 97.1208 112.407 86.2466 119.291 84.1678C120.091 83.8479 120.892 83.8479 121.852 83.8479C128.256 83.8479 135.78 90.5643 139.462 100.479C143.625 111.513 141.543 122.387 134.66 124.466C133.859 124.626 132.899 124.786 132.098 124.786ZM123.293 80.8096C121.692 80.8096 120.251 81.1294 118.811 81.6091C109.685 85.4471 107.764 100.479 114.488 115.191C120.251 127.664 130.337 136.14 138.822 136.14C140.423 136.14 141.864 135.82 143.304 135.34C152.43 131.502 154.351 116.47 147.627 101.758C141.864 89.1251 131.778 80.8096 123.293 80.8096Z" fill="url(#paint1_radial_7002_12937)"/>
<path d="M121.853 83.8472C121.052 83.8472 120.092 84.0071 119.291 84.167C112.407 86.4058 110.166 97.1201 114.488 108.154C118.17 117.909 125.695 124.785 132.098 124.785C132.899 124.785 133.859 124.625 134.66 124.465C141.544 122.227 143.785 111.512 139.462 100.478C135.78 90.5636 128.256 83.8472 121.853 83.8472Z" fill="url(#paint2_radial_7002_12937)"/>
<path d="M112.087 131.983C111.767 136.78 110.646 141.098 109.205 144.936C109.365 144.936 109.525 144.936 109.685 144.936C110.806 144.936 111.927 144.616 112.887 144.136C116.729 141.737 114.808 137.739 112.087 131.983ZM98.159 90.085C97.1984 90.085 96.2379 90.2449 95.4374 90.7246C95.7576 90.8845 96.0778 91.2044 96.398 91.3643C96.7182 91.3643 97.0383 91.2044 97.3585 91.2044C98.159 91.2044 98.7993 91.3643 99.5998 91.6841C102.161 92.8035 102.641 94.7225 102.641 97.2811C103.442 98.4005 104.402 99.5199 105.043 100.799C105.043 95.3622 104.563 91.6841 100.24 90.2449C99.5998 90.2449 98.9594 90.085 98.159 90.085Z" fill="url(#paint3_radial_7002_12937)"/>
<path d="M97.5188 91.3643C97.1986 91.3643 96.8784 91.3643 96.5582 91.5242C98.7995 93.1233 101.041 95.0423 102.962 97.6009C102.962 95.0423 102.321 93.1233 99.9201 92.0039C98.9596 91.5242 98.1591 91.3643 97.5188 91.3643Z" fill="url(#paint4_radial_7002_12937)"/>
<path d="M145.706 76.0122C154.191 85.9269 169.879 123.987 152.59 136.78C148.748 139.658 144.905 140.778 141.543 140.778C131.938 140.778 124.414 132.302 120.251 128.624C106.164 110.714 110.166 89.6049 110.166 89.6049C110.006 89.9248 109.846 90.0847 109.846 90.4045C109.205 92.6433 108.725 95.3618 108.725 98.72C108.725 105.756 110.806 115.351 118.01 127.345C123.773 136.78 131.298 142.217 137.701 145.255C144.105 148.453 149.388 149.253 150.509 149.413C150.669 149.413 150.669 149.413 150.669 149.413C150.829 149.413 150.989 149.573 150.989 149.733C150.989 149.893 150.829 150.053 150.669 150.053C150.669 150.053 145.386 149.573 138.662 146.534C131.938 143.496 123.613 137.899 117.53 127.824C110.166 115.831 108.085 106.076 108.085 98.8799C108.085 97.7605 108.085 96.6411 108.245 95.6817C107.604 99.8394 107.925 104.157 108.725 108.475C109.686 111.033 110.486 113.912 110.966 116.95C111.767 119.189 112.567 121.268 113.368 122.707C114.968 126.065 116.729 129.104 118.651 131.822C121.212 137.419 125.695 146.215 120.892 149.893C119.771 150.852 118.33 151.172 116.729 151.172C113.848 151.172 110.646 149.893 107.604 148.294C107.284 148.773 107.124 149.413 106.804 149.893C117.05 157.249 126.815 159.488 134.66 159.488C139.782 159.488 144.265 158.528 147.467 157.569C148.908 157.089 150.188 156.609 151.149 156.289C152.27 155.809 152.91 155.49 153.23 155.17C153.71 154.85 154.031 154.53 154.511 154.21C154.671 154.05 154.831 153.89 154.991 153.731C155.631 153.091 156.432 152.291 157.232 151.332C158.833 149.413 160.914 146.694 162.835 143.336C163.316 142.537 163.796 141.737 164.116 140.937C164.596 140.138 164.917 139.178 165.237 138.219C181.886 99.5196 148.107 77.4514 145.706 76.0122Z" fill="url(#paint5_radial_7002_12937)"/>
<path d="M106.804 150.053C116.89 157.569 126.655 159.808 134.5 159.808C142.024 159.808 147.947 157.889 151.149 156.449C150.188 156.929 148.908 157.409 147.467 157.729C144.105 158.688 139.782 159.648 134.66 159.648C126.655 159.648 116.89 157.409 106.804 150.053ZM164.276 141.098C163.796 141.897 163.316 142.697 162.996 143.496C161.074 146.855 158.993 149.413 157.392 151.492C156.592 152.452 155.791 153.251 155.151 153.891C154.991 154.051 154.831 154.211 154.671 154.371C157.392 152.132 160.914 147.974 164.276 141.098Z" fill="#1B0C0E"/>
<path d="M109.846 90.4043C109.045 92.0034 108.565 93.7625 108.405 95.5216C108.245 96.481 108.245 97.6004 108.245 98.7198C108.245 105.916 110.326 115.671 117.69 127.664C123.773 137.739 132.098 143.336 138.822 146.374C145.546 149.413 150.829 149.892 150.829 149.892C150.989 149.892 151.149 149.733 151.149 149.573C151.149 149.413 150.989 149.253 150.829 149.253C150.829 149.253 150.829 149.253 150.669 149.253C149.548 149.093 144.265 148.293 137.861 145.095C131.458 141.897 123.933 136.46 118.17 127.185C110.966 115.191 108.885 105.596 108.885 98.5599C108.725 95.3616 109.205 92.6431 109.846 90.4043Z" fill="#1B0C0E"/>
<path d="M128.096 69.7759C126.975 69.9358 125.695 69.9358 124.574 69.9358C124.094 69.9358 123.613 69.9358 123.293 69.9358C123.774 69.9358 124.254 69.9358 124.894 69.9358C125.855 69.9358 126.975 69.9358 128.096 69.7759ZM148.107 62.4198C147.947 62.4198 147.787 62.4198 147.627 62.4198H147.467C144.745 64.3388 140.903 66.5776 136.101 68.0168C140.903 66.5776 144.905 64.6586 148.107 62.4198ZM116.249 57.4625C116.249 57.6224 116.409 57.7823 116.409 57.9422C116.57 58.2621 116.73 58.7418 117.05 59.2215C117.53 60.3409 118.331 61.6203 119.611 63.0595C120.572 64.1789 121.852 65.4582 123.453 66.4177C125.054 66.5776 126.655 66.7375 128.256 66.7375C134.82 66.7375 141.864 64.9785 146.987 62.4198C146.186 62.4198 145.546 62.4198 144.745 62.2599C141.704 63.3793 138.502 64.019 135.3 64.019C130.017 64.019 125.054 62.2599 122.333 57.6224C121.692 57.6224 120.892 57.6224 120.252 57.6224C118.811 57.6224 117.53 57.6224 116.249 57.4625ZM109.526 56.9827C111.447 62.4198 116.57 65.2983 122.653 66.4177C121.372 65.4582 120.252 64.3388 119.291 63.3793C116.89 60.5009 115.929 57.6224 115.929 57.6224H116.089C113.688 57.4625 111.607 57.3026 109.526 56.9827ZM117.85 39.8719C112.727 42.9103 108.565 47.068 108.565 52.825C109.365 51.2258 110.486 48.987 111.927 46.7482C113.688 44.5094 115.609 42.1107 117.85 39.8719ZM154.671 39.3922C154.511 39.3922 154.351 39.5521 154.031 39.5521C158.353 41.7909 160.754 43.7099 160.754 43.7099C160.754 43.7099 160.594 44.1896 160.274 44.9892H160.434L160.594 45.1491C160.434 45.309 160.274 45.309 160.114 45.4689C158.833 48.6672 155.792 55.2237 151.629 58.5819C149.868 59.8612 147.787 60.9806 145.386 61.9401C146.026 61.9401 146.827 62.1 147.467 62.1C148.427 61.6203 149.228 61.1405 150.028 60.5009C151.629 59.2215 152.43 58.422 152.43 58.422C151.789 59.2215 150.989 59.8612 150.028 60.5009C149.388 60.9806 148.748 61.4603 147.947 62.1C148.107 62.1 148.427 62.1 148.748 62.1C151.469 60.181 153.71 57.9422 155.471 55.8633C160.114 50.2663 161.395 44.8293 161.555 43.5499V43.39C159.153 41.9508 156.912 40.5116 154.671 39.3922ZM143.785 35.2344C143.305 35.3943 142.984 35.5542 142.504 35.7141C144.265 35.874 146.026 36.3538 147.947 36.9934C150.028 37.793 151.949 38.5926 153.55 39.3922C153.71 39.3922 153.871 39.2322 154.191 39.2322C150.669 37.4732 147.147 36.1939 143.785 35.2344ZM133.219 33.9551C130.497 34.5947 124.574 36.1939 119.291 39.2322C114.008 43.7098 110.486 49.9465 108.885 53.4646C108.885 54.1043 109.045 54.7439 109.205 55.3836C109.365 55.8633 109.365 56.3431 109.526 56.6629C112.727 56.9827 116.409 57.3026 120.252 57.3026C120.892 57.3026 121.532 57.3026 122.173 57.3026C121.532 56.1832 121.212 55.0638 120.892 53.7844C119.771 48.6672 127.776 35.7141 140.743 35.7141C141.223 35.7141 141.704 35.7141 142.024 35.7141C142.504 35.5542 142.984 35.3943 143.305 35.2344C139.783 34.2749 136.421 33.9551 133.219 33.9551Z" fill="url(#paint6_radial_7002_12937)"/>
<path d="M91.9156 53.9429C92.0757 54.1028 92.0757 53.9429 92.2358 53.783C94.1569 51.5442 110.326 33.9536 132.899 33.9536C141.544 33.9536 151.149 36.5123 161.395 43.5485L161.555 43.3886H161.395V43.5485C161.235 44.6679 159.794 50.105 155.311 55.8619C150.669 61.4589 142.824 67.3757 129.377 69.6145C127.936 69.9344 126.335 69.9344 124.894 69.9344C116.089 69.9344 107.925 65.9365 101.841 61.9386C98.7995 59.8598 96.3982 57.9408 94.7973 56.3416C93.9968 55.5421 93.3565 54.9024 92.8762 54.5826C92.2358 54.1028 92.0757 53.783 91.9156 53.9429C91.7556 54.1028 106.804 70.2542 124.734 70.2542C126.175 70.2542 127.776 70.0943 129.217 69.9344C143.625 67.5356 151.789 60.9792 156.272 54.9024C160.754 48.8257 161.555 43.3886 161.555 43.3886V43.2287C151.309 36.1924 141.544 33.6338 132.899 33.6338C108.565 33.6338 91.9156 53.783 91.9156 53.9429Z" fill="#456C1A"/>
<path d="M93.0366 53.465C93.0366 53.465 104.723 57.6227 120.092 57.6227C132.579 57.6227 147.467 54.9042 160.435 45.3093L160.274 45.1494C147.307 54.7443 132.419 57.4628 120.092 57.4628C112.407 57.4628 105.684 56.5033 100.881 55.3839C98.4796 54.9042 96.5585 54.4244 95.2778 53.9447C94.6375 53.7848 94.1572 53.6249 93.6769 53.465C93.3567 53.305 93.1966 53.305 93.1966 53.305L93.0366 53.465Z" fill="#456C1A"/>
<path d="M107.444 56.3433C107.444 56.3433 107.604 56.0235 107.764 55.5438C109.205 52.0257 115.609 37.7933 128.096 34.1152L127.935 33.7954C120.731 36.0342 115.448 41.6312 112.087 46.5886C108.725 51.7058 107.124 56.1834 107.124 56.1834L107.444 56.3433Z" fill="#456C1A"/>
<path d="M122.812 57.1427C122.812 57.1427 122.973 56.8228 123.133 56.3431C124.573 52.9849 130.817 39.2322 144.104 35.2344L143.944 34.9146C128.576 39.5521 122.492 56.9827 122.492 56.9827L122.812 57.1427Z" fill="#456C1A"/>
<path d="M138.182 55.383C138.182 55.383 138.182 55.2231 138.342 54.9033C139.302 52.5046 144.105 42.2701 154.511 39.3916V39.0718C142.344 42.43 137.861 55.383 137.861 55.383H138.182Z" fill="#456C1A"/>
<path d="M131.938 56.6633C131.938 56.6633 137.381 62.4202 147.627 62.4202C147.947 62.4202 148.267 62.4202 148.587 62.4202V62.1004C148.267 62.1004 147.947 62.1004 147.627 62.1004C142.664 62.1004 138.822 60.6612 136.1 59.222C134.82 58.5823 133.859 57.7827 133.219 57.303C132.899 56.9832 132.578 56.8232 132.418 56.6633L132.258 56.5034L131.938 56.6633Z" fill="#456C1A"/>
<path d="M115.929 57.6218C115.929 57.6218 116.89 60.5003 119.291 63.3787C121.692 66.2572 125.695 69.2956 131.938 69.4555V69.1357C125.855 68.8158 122.012 65.9374 119.611 63.0589C118.49 61.6197 117.53 60.1805 117.05 59.221C116.729 58.7412 116.569 58.2615 116.409 57.9417C116.409 57.7817 116.249 57.6218 116.249 57.6218V57.4619L115.929 57.6218Z" fill="#456C1A"/>
<path d="M98.7992 55.2227C98.7992 55.2227 101.361 62.4188 106.964 65.2973L107.124 64.9774C104.402 63.6981 102.481 61.1395 101.201 59.0606C100.56 57.9412 100.08 56.9817 99.7597 56.3421C99.5996 56.0222 99.4396 55.7024 99.4396 55.5425C99.2795 55.3826 99.2795 55.2227 99.2795 55.2227H98.7992Z" fill="#456C1A"/>
<path d="M98.4788 59.8597C103.121 63.5378 107.764 66.0964 112.086 67.6956C106.643 65.6167 102.001 62.5783 98.4788 59.8597ZM134.659 33.6338C134.179 33.6338 133.539 33.6338 133.058 33.6338C133.539 33.6338 133.859 33.6338 134.339 33.6338C134.499 33.6338 134.659 33.6338 134.659 33.6338Z" fill="#75C57C"/>
<path d="M99.1201 55.2237V55.3836C99.2802 55.5435 99.2802 55.8633 99.4403 56.1832C99.7605 56.8228 100.241 57.9422 100.881 58.9017C102.162 60.9806 104.243 63.5392 106.804 64.8185V64.9785C111.607 67.5371 117.05 69.4561 122.974 69.7759C123.454 69.7759 123.934 69.7759 124.254 69.7759C125.535 69.7759 126.656 69.7759 127.776 69.616C128.096 69.616 128.577 69.4561 128.897 69.4561C129.377 69.4561 129.857 69.2962 130.338 69.1362C126.976 68.8164 124.414 67.5371 122.333 66.0979C116.25 65.1384 111.127 62.1 109.206 56.6629C105.364 56.503 101.842 55.8633 99.1201 55.2237ZM126.656 34.4348C107.765 37.1534 94.4775 51.2258 92.3963 53.7844C92.5564 54.1043 92.7165 54.4241 92.8766 54.7439C93.3568 55.2237 93.9972 55.7034 94.6376 56.503C96.3986 57.9422 98.7999 60.0211 101.682 62.1C102.642 62.7397 103.603 63.3793 104.723 64.019C100.721 60.8207 98.7999 55.3836 98.7999 55.3836H98.96C95.2779 54.584 93.0367 53.7844 93.0367 53.7844L93.1968 53.4646C93.1968 53.4646 93.3568 53.4646 93.677 53.6245C93.9972 53.7845 94.4775 53.9444 95.2779 54.1043C96.5586 54.4241 98.4797 55.0638 100.881 55.5435C103.282 56.0233 106.164 56.503 109.366 56.9827C109.206 56.503 109.046 56.0233 109.046 55.7034C108.886 55.0638 108.886 54.4241 108.726 53.7844C108.245 54.7439 107.925 55.5435 107.765 56.0233C107.605 56.503 107.445 56.8228 107.445 56.8228L107.125 56.6629C107.125 56.6629 107.605 55.2237 108.726 53.1448C108.726 47.5478 112.888 43.2301 118.011 40.1917C120.412 37.6331 123.294 35.7141 126.656 34.4348ZM132.899 33.9551C131.298 33.9551 129.537 34.115 127.936 34.2749C124.574 35.2344 121.533 37.1534 119.131 39.2322C124.414 36.3538 130.498 34.5947 133.059 33.9551H132.899Z" fill="url(#paint7_radial_7002_12937)"/>
<path d="M130.657 69.2947C130.177 69.4546 129.696 69.4546 129.216 69.6145C128.896 69.6145 128.416 69.7744 128.096 69.7744C129.056 69.6145 130.017 69.6145 130.817 69.4546L130.657 69.2947ZM92.8757 54.5826C92.8757 54.7425 93.0358 54.9024 93.0358 55.0623C94.7968 56.8214 96.5578 58.4205 98.3188 59.8597C101.841 62.5783 106.483 65.6167 111.926 67.6956C115.769 69.1348 119.611 69.7744 123.133 69.9344C117.209 69.6145 111.606 67.5356 106.964 65.1369V65.2968C106.163 64.977 105.523 64.4973 104.882 63.8576C103.762 63.218 102.801 62.5783 101.841 61.9386C98.799 59.8598 96.3977 57.9408 94.7968 56.3416C93.9963 55.702 93.356 55.0623 92.8757 54.5826ZM127.135 34.2734C106.804 37.3118 94.4766 50.9045 92.2354 53.4632V53.6231C94.3165 51.2244 107.604 36.992 126.495 34.2734C126.815 34.2734 126.975 34.2734 127.135 34.2734ZM133.058 33.6338C131.297 33.6338 129.696 33.7937 127.935 34.1135V34.2734C129.536 34.1135 131.137 33.9536 132.898 33.9536H133.058C133.539 33.7937 134.019 33.7937 134.179 33.6338C133.859 33.6338 133.539 33.6338 133.058 33.6338Z" fill="#204915"/>
<path d="M93.1966 53.3042L93.0366 53.624C93.0366 53.624 95.2778 54.4236 98.9599 55.2232H99.12V55.3831C101.842 56.0227 105.364 56.6624 109.366 57.1421L109.206 56.8223C106.004 56.5025 103.122 55.8628 100.721 55.3831C98.3195 54.9033 96.3985 54.4236 95.1177 53.9439C94.4774 53.7839 93.9971 53.624 93.5168 53.4641C93.3567 53.3042 93.1966 53.3042 93.1966 53.3042Z" fill="#204915"/>
<path d="M108.725 52.8247C107.764 54.9036 107.284 56.3428 107.124 56.3428L107.444 56.5028C107.444 56.5028 107.604 56.1829 107.764 55.7032C107.924 55.2234 108.244 54.4239 108.725 53.4644C108.725 53.1446 108.725 52.9846 108.725 52.8247ZM127.935 34.1147C127.615 34.1147 127.455 34.1147 127.135 34.2747C126.975 34.2747 126.815 34.4346 126.495 34.4346C123.133 35.7139 120.251 37.6329 117.85 39.8717C118.33 39.5518 118.65 39.3919 119.131 39.232C121.692 36.9932 124.574 35.2341 127.935 34.1147Z" fill="#204915"/>
<path d="M146.826 62.4202C141.703 65.1388 134.659 66.7379 128.095 66.7379C126.495 66.7379 124.734 66.578 123.293 66.4181C125.534 67.8573 128.256 68.8168 131.778 69.1366C133.378 68.8168 134.819 68.497 136.1 68.0172C140.743 66.4181 144.585 64.3392 147.466 62.4202C147.146 62.4202 146.986 62.4202 146.826 62.4202ZM149.868 60.5013C149.067 60.981 148.267 61.6207 147.306 62.1004H147.466H147.626C148.587 61.6207 149.227 60.981 149.868 60.5013ZM152.269 58.4224C152.269 58.4224 151.469 59.2219 149.868 60.5013C150.828 59.8616 151.629 59.2219 152.269 58.4224Z" fill="url(#paint8_radial_7002_12937)"/>
<path d="M136.101 68.0171C134.66 68.4968 133.219 68.8167 131.778 69.1365H131.938C133.379 68.8167 134.82 68.4968 136.101 68.0171Z" fill="#204915"/>
<path d="M147.787 62.0996H147.627H147.466C147.306 62.2595 147.146 62.2595 146.986 62.4194C147.146 62.4194 147.306 62.4194 147.466 62.4194C147.466 62.2595 147.627 62.2595 147.787 62.0996Z" fill="#204915"/>
<path d="M122.653 66.4175C124.734 67.8567 127.295 68.9761 130.657 69.4559H130.817C131.137 69.4559 131.457 69.2959 131.778 69.2959H131.618C128.096 69.136 125.374 68.0166 123.133 66.5774C123.133 66.4175 122.813 66.4175 122.653 66.4175Z" fill="#204915"/>
<path d="M99.1194 55.063H98.9593H98.7992C98.7992 55.063 100.72 60.5001 104.723 63.6984C105.363 64.1781 106.003 64.6579 106.804 65.1376V64.9777V64.8178C104.082 63.5384 102.161 60.9798 100.88 58.9009C100.24 57.7815 99.7597 56.822 99.4396 56.1824C99.2795 55.8626 99.1194 55.5427 99.1194 55.3828V55.063Z" fill="#204915"/>
<path d="M132.098 56.6627C128.736 57.1424 125.374 57.4622 122.173 57.4622C124.894 62.0997 129.857 63.8588 135.14 63.8588C138.342 63.8588 141.704 63.2192 144.585 62.0998C137.221 61.4601 132.899 57.4622 132.098 56.6627ZM160.114 45.6286C151.309 52.0251 141.704 55.3833 132.578 56.8226C132.738 56.9825 133.059 57.1424 133.379 57.4622C134.019 57.942 134.98 58.7415 136.26 59.3812C138.502 60.6605 141.543 61.7799 145.386 62.0998C147.787 61.1403 149.868 60.0209 151.629 58.7416C155.791 55.3834 158.833 48.8269 160.114 45.6286ZM154.03 39.5518C143.945 42.7501 139.462 52.5049 138.342 54.9036L138.182 55.2234C145.546 53.4644 153.07 50.2661 160.114 44.9889C160.434 44.1893 160.594 43.7096 160.594 43.7096C160.594 43.7096 158.353 41.7906 154.03 39.5518ZM140.583 35.554C127.616 35.554 119.451 48.507 120.732 53.6243C121.052 54.9036 121.532 56.1829 122.012 57.1424C125.214 57.1424 128.736 56.8226 132.098 56.3428C134.019 56.023 135.94 55.7032 137.861 55.2234C138.182 54.2639 142.504 42.91 153.55 39.232C151.949 38.4324 150.028 37.6328 147.947 36.8333C146.026 36.1936 144.265 35.7139 142.504 35.554C130.337 40.0316 124.254 52.9846 122.973 56.1829C122.813 56.6627 122.653 56.9825 122.653 56.9825L122.333 56.8226C122.333 56.8226 127.936 40.991 141.704 35.394C141.543 35.7139 141.063 35.554 140.583 35.554Z" fill="url(#paint9_radial_7002_12937)"/>
<path d="M132.098 56.5021C128.576 56.9819 125.214 57.3017 122.013 57.3017L122.173 57.6215C125.375 57.6215 128.736 57.3017 132.098 56.8219L131.938 56.662L132.098 56.5021ZM160.274 44.9883C153.23 50.2655 145.706 53.3038 138.342 55.2228C138.342 55.3827 138.182 55.3827 138.182 55.3827L137.862 55.2228C135.941 55.7025 134.019 56.0224 132.098 56.3422L132.419 56.662C141.544 55.2228 151.149 52.0245 159.954 45.468C160.114 45.3081 160.274 45.1482 160.274 44.9883Z" fill="#6DAD32"/>
<path d="M142.023 35.7144C128.256 41.1514 122.653 57.1429 122.653 57.1429L122.973 57.3028C122.973 57.3028 123.133 56.983 123.293 56.5032C124.574 53.3049 130.497 40.3519 142.824 35.8743C142.344 35.7144 142.184 35.7144 142.023 35.7144Z" fill="#6DAD32"/>
<path d="M153.71 39.3921C142.664 43.0701 138.342 54.424 138.021 55.3835L138.342 55.5435C138.342 55.5435 138.342 55.3835 138.502 55.3835L138.662 55.0637C139.622 52.665 144.105 42.9102 154.351 39.7119L153.71 39.3921Z" fill="#6DAD32"/>
<path d="M132.258 56.3433L132.098 56.5032L132.258 56.6631C133.059 57.4627 137.381 61.3006 144.905 62.1002C145.065 62.1002 145.385 61.9403 145.546 61.9403C141.703 61.6204 138.502 60.3411 136.42 59.2217C135.14 58.5821 134.179 57.7825 133.539 57.3027C133.219 56.9829 133.058 56.823 132.738 56.6631L132.258 56.3433Z" fill="#6DAD32"/>
<path d="M74.6255 174.36C73.9851 174.52 73.5049 174.52 73.0246 174.52C72.8645 174.52 72.7044 174.52 72.5443 174.52C72.064 174.52 71.4237 174.52 70.6232 174.36C71.5838 174.52 72.3842 174.52 72.8645 174.52C73.0246 174.52 73.3448 174.52 73.5049 174.52C73.6649 174.52 74.1452 174.52 74.6255 174.36ZM105.043 101.599C105.683 102.718 125.694 139.178 91.7551 165.724C90.9547 166.364 90.1542 167.004 89.3538 167.483C90.7946 166.524 92.3955 165.404 93.8363 164.285C102.961 156.929 111.446 145.415 111.446 127.984C111.446 124.626 111.126 120.948 110.326 116.95C109.365 110.874 107.444 105.756 105.043 101.599ZM75.2658 152.291C74.7856 152.291 74.4654 152.291 73.9851 152.291C64.2196 151.172 57.3357 137.1 58.6165 120.788C59.8972 105.277 68.2219 93.443 77.5071 93.443C77.9874 93.443 78.3076 93.443 78.7878 93.443C88.5533 94.5624 95.4372 108.635 94.1565 124.946C92.8758 140.458 84.5511 152.291 75.2658 152.291ZM82.4699 87.5261C79.2681 87.5261 76.0663 88.1658 73.1847 89.605C72.5443 91.0443 72.064 92.0037 71.904 92.3236C72.8645 91.8438 73.9851 91.2042 75.1058 90.7244C75.586 90.5645 75.9062 90.4046 76.0663 90.4046C77.347 90.4046 75.586 93.1231 71.4237 94.4025C70.143 94.7223 69.1824 95.0421 68.382 95.0421C67.7416 95.5218 67.1012 96.1615 66.4609 96.8012C66.7811 96.6413 66.9412 96.4813 67.2613 96.3214C67.2613 96.3214 53.4936 112.793 57.0156 135.181C59.4169 141.897 62.7788 158.208 78.3076 158.208C79.2681 158.208 80.3887 158.208 81.3493 158.048C102.641 155.33 107.444 114.392 104.883 101.599C99.2794 92.1637 90.7946 87.5261 82.4699 87.5261ZM37.9648 102.558C42.2873 95.5218 48.3707 90.0847 53.4936 90.0847C55.2546 90.0847 56.8555 90.7244 58.2963 92.3236C64.0595 98.4003 54.7743 104.957 50.4519 118.55C46.2895 132.142 50.772 144.935 42.9276 145.255H42.7675C38.6052 145.255 35.5635 141.097 33.8025 135.341C32.3617 134.381 31.8814 131.982 32.5218 129.903L32.6819 129.584C32.3617 126.705 32.2016 123.507 32.3617 120.468C31.7213 116.95 32.5218 111.993 34.2828 107.995C35.2433 105.277 36.6841 103.518 37.9648 102.558ZM58.6165 86.7266C57.9761 86.7266 57.3357 86.7265 56.6954 86.8865C54.4541 87.0464 51.7326 88.1658 48.851 90.0847C45.9693 92.0037 42.7675 94.5624 40.046 97.9206C34.4428 104.637 29.8002 114.072 29.8002 125.586C29.8002 128.464 30.1204 131.503 30.7608 134.541C32.2016 138.219 38.6052 154.37 46.6097 154.37C46.9299 154.37 47.2501 154.37 47.4102 154.37C53.4936 153.411 53.9739 143.656 54.294 137.419C53.9739 134.221 53.8138 130.703 54.1339 126.865C54.6142 120.788 56.6954 108.475 62.7788 100.639C64.3797 98.2404 66.1407 96.3214 67.5815 95.0421C66.1407 94.7223 65.8205 93.6029 65.9806 91.8438C66.1407 91.0442 66.3008 90.7244 66.621 90.7244C67.2613 90.7244 68.2219 92.1636 68.2219 92.1636C68.5421 92.6434 69.1824 92.9632 69.6627 92.9632L69.3425 92.6434C69.1824 92.3236 69.0223 92.1636 69.0223 92.1636C69.1824 91.8438 69.1824 91.6839 69.3425 91.3641C68.7022 91.3641 68.2219 91.0442 67.7416 90.5645C67.2613 90.0848 66.621 89.605 65.8205 89.1253C64.3797 87.846 62.2985 86.8865 58.6165 86.7266Z" fill="url(#paint10_radial_7002_12937)"/>
<path d="M70.6235 90.5655L70.4634 90.2457C69.9831 90.5655 69.6629 90.5655 69.5028 90.5655C69.0226 90.5655 68.7024 90.4056 68.062 89.9259C67.2616 89.2862 66.301 88.3267 64.8602 87.5271C63.4194 86.7276 61.3382 86.0879 58.4566 86.0879C57.8162 86.0879 57.1759 86.0879 56.3754 86.2478C54.1342 86.4077 51.2525 87.5271 48.2108 89.4461C43.7283 92.3246 38.9256 96.9621 35.2435 103.039C31.5614 109.116 29 116.791 29 125.427C29 130.384 29.8005 135.821 31.8816 141.418C37.1646 156.77 46.1297 165.246 54.4543 169.723C62.779 174.201 70.3033 175 72.8647 175C73.1849 175 73.345 175 73.5051 175C73.9853 175 74.9459 174.68 76.3867 174.361C81.0293 172.921 89.9944 169.083 97.8388 161.567C105.683 154.211 112.407 143.177 112.247 127.666C112.247 124.148 111.927 120.469 111.126 116.632C107.444 96.8022 94.7971 86.7276 82.4701 86.7276C78.3078 86.7276 74.1454 87.8469 70.4634 90.0858L70.6235 90.5655L70.7835 90.8853C74.4656 88.6465 78.4679 87.687 82.4701 87.687C94.4769 87.687 106.804 97.4418 110.486 117.111C111.286 120.949 111.607 124.627 111.607 128.145C111.607 145.576 102.962 157.25 93.9966 164.446C89.5141 168.124 84.8715 170.683 81.0293 172.282C79.1082 173.081 77.5073 173.721 76.2266 174.041C74.9459 174.521 73.9853 174.68 73.5051 174.68C73.345 174.68 73.1849 174.68 72.8647 174.68C70.3033 174.68 62.9391 174.041 54.7745 169.563C46.6099 165.086 37.805 156.77 32.522 141.578C30.6009 135.981 29.8005 130.704 29.8005 125.747C29.8005 114.233 34.283 104.798 40.0462 98.0815C42.9278 94.7233 45.9696 92.0047 48.8512 90.2457C51.7328 88.3267 54.6144 87.3672 56.6956 87.0474C57.336 87.0474 58.1364 86.8875 58.6167 86.8875C62.2988 86.8875 64.3799 88.0069 65.9808 88.9664C66.7813 89.4461 67.2616 90.0858 67.9019 90.4056C68.3822 90.8853 69.0225 91.2052 69.6629 91.2052C70.1432 91.2052 70.4634 91.0453 70.9436 90.7254L70.6235 90.5655Z" fill="#23100F"/>
<path d="M70.9439 92.4834C69.1829 93.4429 65.1807 96.1614 61.6587 101.918C58.1367 107.675 55.095 116.471 55.095 129.743C55.095 130.863 55.095 131.982 55.095 133.102C55.5752 144.935 60.0578 153.891 64.5403 159.807C69.0228 165.724 73.3452 168.763 73.3452 168.763C73.5053 168.922 73.6654 168.763 73.8255 168.763C73.9856 168.603 73.8255 168.443 73.8255 168.283C73.3453 167.963 69.0228 164.765 64.8605 159.008C60.6981 153.091 56.3757 144.456 56.0555 133.262C56.0555 132.142 56.0555 131.023 56.0555 129.903C56.0555 116.79 59.0972 108.155 62.6192 102.398C66.1412 96.6412 69.9834 94.0826 71.5843 93.1231C71.7444 93.1231 71.7443 92.8032 71.7443 92.8032C71.2641 92.4834 71.104 92.4834 70.9439 92.4834Z" fill="#23100F"/>
<path d="M73.3446 138.698C72.8643 138.698 72.2239 138.698 71.7437 138.538C64.6997 137.099 60.2172 126.385 61.9782 114.551C63.5791 103.677 69.6625 95.6812 76.2262 95.6812C76.7065 95.6812 77.3468 95.6812 77.8271 95.8411C84.8711 97.2803 89.3536 107.995 87.5926 119.828C85.9917 130.702 79.9083 138.698 73.3446 138.698ZM77.3468 93.4424C68.0616 93.4424 59.7369 105.276 58.4562 120.788C57.1755 136.939 64.0593 151.171 73.8248 152.291C74.3051 152.291 74.6253 152.291 75.1056 152.291C84.3908 152.291 92.7155 140.457 93.9962 124.946C95.2769 108.794 88.3931 94.5618 78.6276 93.4424C78.3074 93.4424 77.8271 93.4424 77.3468 93.4424Z" fill="url(#paint11_radial_7002_12937)"/>
<path d="M76.2266 95.6821C69.6629 95.6821 63.4193 103.678 61.9785 114.552C60.2175 126.386 64.7001 137.1 71.744 138.539C72.2243 138.699 72.8647 138.699 73.3449 138.699C79.9086 138.699 86.1521 130.703 87.593 119.829C89.3539 107.996 84.8714 97.2813 77.8275 95.8421C77.3472 95.8421 76.7068 95.6821 76.2266 95.6821Z" fill="url(#paint12_radial_7002_12937)"/>
<path d="M53.494 90.085C48.3711 90.085 42.2876 95.5221 37.9652 102.558C38.2854 102.238 38.6056 102.079 38.9257 101.919C42.4477 95.8419 48.211 90.8845 52.6935 90.8845C54.2944 90.8845 55.7352 91.5242 56.8558 92.9634C60.698 98.0807 53.3339 102.079 49.1715 111.993C45.1693 121.588 47.4105 131.343 42.2876 131.343C42.1275 131.343 41.9675 131.343 41.8074 131.343C39.0858 131.023 37.1647 128.464 36.0441 124.786C35.7239 124.786 35.4038 124.786 35.0836 124.626C33.6428 123.987 32.6822 122.388 32.362 120.149C32.202 123.187 32.202 126.386 32.6822 129.264C33.1625 127.825 34.2831 127.025 35.2437 127.025H35.4038C36.5244 127.185 37.645 128.305 37.9652 130.223C38.2854 132.782 37.1647 135.501 35.0836 135.501H34.7634C34.4432 135.501 34.123 135.341 33.8029 135.181C35.5638 140.938 38.6056 145.096 42.7679 145.096H42.928C50.7724 144.936 46.1298 131.983 50.4522 118.39C54.6146 104.797 64.0599 98.2406 58.2967 92.1639C56.8558 90.7246 55.2549 90.085 53.494 90.085Z" fill="url(#paint13_radial_7002_12937)"/>
<path d="M52.6928 90.8853C48.2103 90.8853 42.447 95.8426 38.925 101.919C39.4053 101.759 39.7255 101.6 40.2057 101.6C40.5259 101.6 40.8461 101.6 41.0062 101.759C43.0874 102.559 44.3681 106.237 43.8878 111.354C43.2475 117.911 39.7255 124.787 36.0434 124.787C37.164 128.465 39.0851 131.024 41.8066 131.344C41.9667 131.344 42.1268 131.344 42.2869 131.344C47.5699 131.344 45.3286 121.589 49.1708 111.994C53.3331 102.239 60.6973 98.2413 56.8551 92.9641C55.8946 91.5249 54.4538 90.8853 52.6928 90.8853Z" fill="url(#paint14_radial_7002_12937)"/>
<path d="M67.2617 92.3238C67.2617 92.3238 68.0622 93.6031 70.1433 93.6031C71.4241 93.6031 73.1851 93.2832 75.4263 92.0039L75.2662 91.6841C72.8649 92.8035 71.264 93.2832 69.9833 93.2832C69.0227 93.2832 68.2223 92.9634 67.9021 92.8035C67.742 92.6436 67.5819 92.4837 67.4218 92.4837L67.2617 92.3238Z" fill="#972D03"/>
<path d="M66.6213 90.7241C66.3011 90.7241 66.141 91.0439 65.9809 91.8435C65.8208 93.4427 65.9809 94.722 67.5818 95.0418C68.2222 94.4021 68.8625 93.9224 69.5029 93.6026C67.902 93.4427 67.2616 92.4832 67.2616 92.4832L67.5818 92.3233L67.7419 92.4832C67.902 92.6431 67.902 92.6431 68.2222 92.803C68.5423 92.9629 69.1827 93.2827 69.9832 93.2827L70.1432 93.1228L69.8231 92.9629C69.1827 92.9629 68.7024 92.803 68.3823 92.1633C68.2222 92.1633 67.2616 90.7241 66.6213 90.7241ZM76.0666 90.4043C75.9065 90.4043 75.5863 90.5642 75.106 90.7241C73.9854 91.2039 72.8648 91.8435 71.9042 92.3233C71.9042 92.4832 71.7441 92.4832 71.7441 92.4832L71.424 92.803L71.2639 92.9629L71.1038 93.1228C72.2244 92.9629 73.6652 92.4832 75.4262 91.6836L75.5863 92.0034C73.5051 93.1228 71.7441 93.4427 70.6235 93.6026C69.9832 93.9224 69.3428 94.4021 68.5423 95.0418C69.3428 95.0418 70.3033 94.8819 71.5841 94.4022C75.5863 93.1228 77.1872 90.4043 76.0666 90.4043Z" fill="url(#paint15_radial_7002_12937)"/>
<path d="M69.5032 93.4424C69.0229 93.7622 68.3825 94.4019 67.5821 94.8816C67.7422 94.8816 68.0624 94.8816 68.2225 94.8816H68.3825C69.183 94.2419 69.8234 93.7622 70.4637 93.4424H70.1435C69.8234 93.4424 69.6633 93.4424 69.5032 93.4424ZM71.4243 92.8027C71.1041 93.1226 70.7839 93.1226 70.4637 93.1226C70.3036 93.1226 70.1435 93.1225 69.9834 92.9626L69.8234 93.1226H70.1435C70.4637 93.1226 70.7839 93.1226 71.1041 93.1226L71.2642 92.9626L71.4243 92.8027Z" fill="#1B0C0E"/>
<path d="M75.266 91.6841C73.505 92.6436 72.0642 92.9634 70.9436 93.1233C70.6234 93.1233 70.3032 93.1233 69.9831 93.1233H69.6629C68.8624 93.1233 68.2221 92.8035 67.9019 92.6436C67.7418 92.4837 67.5817 92.3238 67.4216 92.3238L67.2615 92.1638L66.9413 92.3238C66.9413 92.3238 67.5817 93.2832 69.1826 93.4431C69.3427 93.4431 69.6629 93.4431 69.823 93.4431H70.1431C71.4239 93.4431 73.0248 92.9634 75.1059 91.844L75.266 91.6841Z" fill="#7F1301"/>
<path d="M67.2613 96.3213C66.9411 96.4812 66.781 96.6411 66.4608 96.801C65.02 98.2403 63.5792 99.9993 62.1384 102.398C58.6164 108.155 55.5747 116.79 55.5747 129.903C55.5747 131.023 55.5747 132.142 55.5747 133.261C56.055 144.615 60.2173 153.251 64.3797 159.008C68.542 164.925 72.8644 167.963 73.3447 168.283C73.5048 168.443 73.5048 168.603 73.3447 168.763L73.0245 168.922H72.8644C72.8644 168.922 68.542 165.884 64.0595 159.967C59.577 154.05 55.0944 145.095 54.6142 133.261C54.6142 132.142 54.6142 131.023 54.6142 129.903C54.6142 116.79 57.6559 107.995 61.1779 102.078C61.498 101.598 61.8182 101.119 62.1384 100.639C56.055 108.315 53.9738 120.628 53.4935 126.865C53.1733 130.703 53.3334 134.221 53.6536 137.419C53.3334 143.496 52.8532 153.411 46.7697 154.37C46.4496 154.37 46.1294 154.37 45.9693 154.37C37.9648 154.37 31.5612 138.379 30.1204 134.541C30.6006 136.78 31.241 139.178 32.0414 141.417C37.3244 156.609 46.1294 164.925 54.294 169.402C60.6976 172.92 66.6209 174.04 70.1429 174.519C70.9434 174.519 71.5837 174.679 72.064 174.679C72.2241 174.679 72.3842 174.679 72.5443 174.679C73.0245 174.679 73.5048 174.519 74.1452 174.519C74.6254 174.359 75.1057 174.2 75.586 174.04C76.8667 173.56 78.4676 173.08 80.3887 172.281C82.9501 171.161 85.8317 169.722 88.8735 167.643C89.6739 167.163 90.4744 166.524 91.2748 165.884C125.214 139.338 105.203 102.878 104.562 101.758C107.124 114.552 102.321 155.49 81.029 158.208C79.9084 158.368 78.9479 158.368 77.9873 158.368C62.4586 158.368 59.0967 142.057 56.6953 135.34C53.4935 112.792 67.2613 96.3213 67.2613 96.3213Z" fill="url(#paint16_radial_7002_12937)"/>
<path d="M89.3543 167.483C86.3126 169.402 83.431 171.001 80.8695 172.121C78.9484 172.92 77.3475 173.56 76.0668 173.88C75.4264 174.04 74.9462 174.2 74.626 174.359C78.148 173.72 83.2709 171.961 89.3543 167.483ZM30.281 133.741C37.9653 168.123 62.4591 173.72 70.6237 174.519C67.1018 174.2 61.1784 172.92 54.7748 169.402C46.6102 164.925 37.8052 156.609 32.5223 141.417C31.7218 139.018 31.0815 136.78 30.6012 134.541C30.281 134.061 30.281 133.741 30.281 133.741Z" fill="#1B0C0E"/>
<path d="M66.4614 96.8008C65.0206 97.9202 63.7398 99.1995 62.6192 100.479C62.299 100.959 61.9788 101.438 61.6587 101.918C58.1367 107.675 55.095 116.47 55.095 129.743C55.095 130.863 55.095 131.982 55.095 133.101C55.5752 144.935 60.0578 153.89 64.5403 159.807C69.0228 165.724 73.3452 168.762 73.3452 168.762H73.5053L73.8255 168.602C73.9856 168.442 73.8255 168.282 73.8255 168.123C73.3453 167.803 69.0228 164.604 64.8605 158.848C60.6981 152.931 56.3757 144.295 56.0555 133.101C56.0555 131.982 56.0555 130.863 56.0555 129.743C56.0555 116.63 59.0972 107.995 62.6192 102.238C63.5797 99.9991 65.1807 98.24 66.4614 96.8008Z" fill="#1B0C0E"/>
<path d="M37.9653 102.558C36.6845 103.517 35.2437 105.276 34.1231 107.835C32.3621 111.833 31.5617 116.79 32.202 120.308C32.3621 117.27 33.0025 114.231 33.8029 111.513C34.7635 108.474 36.2043 105.436 37.9653 102.558Z" fill="url(#paint17_radial_7002_12937)"/>
<path d="M38.9259 101.918C38.6058 102.078 38.2856 102.238 37.9654 102.558C36.2044 105.277 34.9237 108.475 33.9631 111.513C33.1627 114.232 32.5223 117.27 32.3622 120.309C32.6824 122.547 33.643 124.147 35.0838 124.786C35.404 124.946 35.7241 124.946 36.0443 124.946C34.4434 119.349 34.7636 111.193 37.325 105.277C37.8053 104.157 38.2856 103.038 38.9259 101.918Z" fill="url(#paint18_radial_7002_12937)"/>
<path d="M40.2062 101.758C39.726 101.758 39.4058 101.918 38.9255 102.078C38.2851 103.198 37.8049 104.157 37.3246 105.276C34.9232 111.193 34.443 119.349 36.0439 124.946C39.5659 124.946 43.0878 118.229 43.8883 111.513C44.3686 106.396 43.0878 102.718 41.0067 101.918C40.8466 101.758 40.5264 101.758 40.2062 101.758Z" fill="url(#paint19_radial_7002_12937)"/>
<path d="M32.5221 129.423L32.362 129.743C31.7217 131.822 32.2019 134.221 33.6428 135.18C33.1625 133.421 32.8423 131.342 32.5221 129.423Z" fill="url(#paint20_radial_7002_12937)"/>
<path d="M35.2438 127.026C34.2833 127.026 33.1626 127.825 32.6824 129.264C33.0026 131.343 33.3227 133.262 33.9631 135.021C34.2833 135.181 34.6035 135.341 34.9236 135.341H35.2438C37.325 135.341 38.4456 132.623 38.1254 130.064C37.8053 128.305 36.6846 127.026 35.564 126.866L35.2438 127.026Z" fill="url(#paint21_radial_7002_12937)"/>
<path d="M78.6281 36.6732C78.7882 38.912 78.9483 41.6305 78.9483 44.9887C78.9483 55.8629 77.1873 72.3341 69.3429 92.0036V92.1635L69.503 92.4833C69.6631 92.6432 69.9833 92.963 70.3034 92.963C70.6236 92.963 70.9438 92.8031 71.4241 92.3234L71.5842 92.1635C71.7442 92.0036 71.7442 91.6837 71.9043 91.3639C72.2245 90.7242 72.7048 89.7648 73.1851 88.4854C74.3057 85.9268 75.7465 81.929 77.3474 76.6518C79.5887 69.2957 81.8299 59.381 83.5909 46.5879L83.4308 46.428C82.7905 51.2254 81.99 55.703 81.5097 58.5815C76.707 82.5686 71.4241 92.0036 71.4241 92.0036C71.1039 92.4833 70.7837 92.6432 70.4635 92.6432C69.8232 92.6432 69.503 92.0036 69.503 92.0036C70.3034 90.5643 73.1851 81.2893 73.1851 81.2893H73.3451C75.1061 81.2893 78.6281 68.3362 80.5492 59.0612C81.3497 55.0633 82.3102 49.7862 82.9506 45.1487C81.5097 42.4301 80.0689 39.5517 78.6281 36.6732ZM85.3519 29.4771C85.1918 29.9568 84.8716 30.2766 84.5515 30.5964C84.3914 30.7564 84.2313 30.9163 84.2313 30.9163V31.2361C84.8716 30.5964 85.1918 30.1167 85.1918 30.1167C85.1918 31.396 85.0317 32.8353 84.8716 34.1146V34.4344C85.0317 32.9952 85.1918 31.2361 85.3519 29.4771Z" fill="url(#paint22_radial_7002_12937)"/>
<path d="M77.6674 31.0769C77.5073 31.0769 77.5073 31.2368 77.5073 31.3968C77.6674 32.5162 78.6279 37.3136 78.6279 44.9895C78.6279 55.7037 76.8669 72.1749 69.0225 92.0043C69.0225 92.0043 69.1826 92.3241 69.3427 92.4841C69.5028 92.8039 69.823 93.1237 70.3032 93.1237C70.6234 93.1237 71.1037 92.9638 71.584 92.4841C71.584 92.4841 82.7903 71.6952 85.5118 29.158V28.998L77.3472 31.0769H77.6674L85.5118 29.3179V29.158H85.3517C84.071 50.4266 80.549 66.2581 77.3472 76.8125C75.7463 82.0896 74.3055 85.9276 73.1849 88.6461C72.7046 89.9254 72.2243 90.8849 71.9041 91.5246C71.7441 91.8444 71.584 92.1642 71.584 92.3242C71.4239 92.4841 71.4239 92.4841 71.4239 92.4841H71.584L71.4239 92.3242C70.9436 92.8039 70.6234 92.9638 70.3032 92.9638C69.9831 92.9638 69.6629 92.8039 69.5028 92.4841L69.3427 92.1642V92.0043C77.1871 72.1749 78.9481 55.7038 78.9481 44.8296C78.9481 36.1942 77.8275 31.0769 77.6674 31.0769Z" fill="#972D03"/>
<path d="M83.2702 26.4385C83.1101 26.4385 82.79 26.4385 82.4698 26.4385C82.79 26.7583 82.9501 27.0781 83.1102 27.398C83.1102 27.5579 83.2702 27.8777 83.2702 28.0376V28.1975H83.4303H83.5904V28.3575C83.5904 28.3575 83.5904 28.5174 83.5904 28.6773V28.9971C83.9106 28.5174 84.0707 28.0376 84.0707 27.5579C84.2308 27.0781 83.9106 26.5984 83.2702 26.4385Z" fill="url(#paint23_radial_7002_12937)"/>
<path d="M85.5121 28.1978C85.352 28.9973 84.8718 29.7969 84.2314 30.5965C83.5911 31.3961 82.6305 32.0357 81.5099 32.3556C80.8695 32.5155 80.3892 32.6754 79.7489 32.6754C79.1085 32.6754 78.6283 32.5155 78.3081 32.1956C77.9879 31.8758 77.6677 31.556 77.6677 30.9163C77.6677 30.1168 78.148 29.3172 78.7883 28.5176C79.4287 27.718 80.3893 27.0784 81.5099 26.7586C82.1502 26.5986 82.6305 26.4387 83.2709 26.4387C83.9112 26.4387 84.3915 26.5986 84.7117 26.9185C85.192 27.2383 85.352 27.5581 85.5121 28.1978C85.6722 27.5581 85.3521 27.0784 85.0319 26.7586C84.5516 26.4387 84.0713 26.2788 83.2709 26.2788C82.7906 26.2788 82.1502 26.4387 81.5099 26.5986C80.3893 27.0784 79.4287 27.718 78.6283 28.5176C77.8278 29.3172 77.5076 30.2767 77.5076 31.0762C77.5076 31.7159 77.8278 32.1956 78.148 32.5155C78.6283 32.8353 79.1085 32.9952 79.909 32.9952C80.3893 32.9952 81.0296 32.8353 81.67 32.6754C82.7906 32.3556 83.7511 31.556 84.5516 30.7564C85.192 29.9568 85.6722 28.9973 85.5121 28.1978Z" fill="#972D03"/>
<path d="M83.2704 26.4385C83.9108 26.5984 84.231 27.0781 84.231 27.7178C84.231 28.1975 84.0709 28.6773 83.7507 29.157C83.7507 29.3169 83.7507 29.4768 83.9108 29.7967C83.9108 30.1165 84.0709 30.4363 84.0709 30.9161L84.231 30.7562C84.8714 29.9566 85.3516 29.157 85.3516 28.3575C85.3516 27.8777 85.1915 27.398 84.7113 27.0781C84.5512 26.5984 83.9108 26.4385 83.2704 26.4385Z" fill="url(#paint24_radial_7002_12937)"/>
<path d="M83.2702 26.4385C82.9501 26.4385 82.79 26.4385 82.4698 26.4385H82.6299C82.9501 26.4385 83.1101 26.4385 83.2702 26.4385C83.9106 26.5984 84.3909 26.7583 84.7111 27.0781C85.0312 27.398 85.1913 27.7178 85.3514 28.3575C85.3514 29.157 84.8711 29.9566 84.2308 30.7562L84.0707 30.9161V31.076C85.0312 30.2764 85.5115 29.157 85.5115 28.3575C85.5115 27.0781 84.7111 26.4385 83.2702 26.4385Z" fill="#831A02"/>
<path d="M82.7905 45.1489C82.3102 49.7864 81.1896 55.0636 80.3891 59.0614C78.6281 68.1766 74.9461 81.2895 73.1851 81.2895H73.025C73.025 81.2895 70.1433 90.5646 69.3429 92.0038C69.3429 92.0038 69.6631 92.6435 70.3034 92.6435C70.6236 92.6435 70.9438 92.4836 71.264 92.0038C71.264 92.0038 76.707 82.5688 81.3497 58.5817C81.99 55.7032 82.6304 51.2256 83.2707 46.4282C83.2707 46.1084 83.1107 45.6286 82.7905 45.1489ZM85.1918 30.2769C85.1918 30.2769 84.8716 30.7566 84.2313 31.3963C84.3914 31.876 84.3914 32.3557 84.5515 32.9954C84.7116 33.4751 84.7116 33.795 84.8716 34.2747C85.0317 32.9954 85.0317 31.5562 85.1918 30.2769Z" fill="url(#paint25_radial_7002_12937)"/>
<path d="M83.4309 28.6768C83.1107 29.1565 82.7905 29.4763 82.3103 29.7962C81.6699 30.116 80.8695 30.4358 79.7488 30.4358C78.6282 30.4358 77.3475 30.116 76.3869 29.6362C76.2268 29.6362 76.0668 29.4763 75.9067 29.3164H75.4264C91.4354 65.7769 107.765 81.7683 109.846 83.6873L110.006 83.8472C110.166 83.8472 110.326 84.0071 110.486 84.0071L110.646 83.8472C110.486 83.8472 110.326 83.6873 110.006 83.5274C110.006 83.5274 101.681 76.4912 89.0341 55.5424C85.8323 50.1053 79.7488 38.9113 75.9067 30.116C75.9067 30.116 77.5076 31.3953 79.7488 31.3953C80.7094 31.3953 81.9901 31.0755 83.2708 30.4358C83.2708 30.4358 84.0713 32.1949 81.83 32.3548C76.547 32.8345 85.1919 47.5467 90.1547 55.7023C94.9574 63.5381 102.482 74.0924 104.243 74.0924H104.403C104.403 74.0924 109.846 81.1287 111.447 82.7278L111.607 82.5679C87.5932 55.2225 83.7511 30.7556 83.4309 28.6768Z" fill="url(#paint26_radial_7002_12937)"/>
<path d="M83.5907 28.5183C83.4306 28.5183 86.4723 54.1046 112.247 83.0491L112.407 82.8892H112.247C112.247 83.0491 112.247 83.3689 112.087 83.6887C111.927 84.0086 111.767 84.1685 111.286 84.1685C111.126 84.1685 110.806 84.1685 110.326 84.0086V84.1685L110.486 84.0086C110.486 84.0086 110.486 84.0086 110.326 83.8487C108.405 81.9297 91.9154 65.9383 75.9064 29.3179H75.7463V29.4778L83.5907 28.5183L75.266 29.158V29.3179C92.3956 68.6568 110.006 84.3284 110.006 84.3284C110.326 84.4883 110.806 84.6482 110.966 84.6482C111.286 84.6482 111.606 84.4883 111.767 84.3284C112.087 84.1685 112.247 83.6888 112.247 83.5289C112.247 83.209 112.247 83.0491 112.247 83.0491C99.4396 68.6568 92.2356 55.0641 88.2333 44.9895C86.3122 40.0321 85.0315 35.8744 84.3911 33.1558C84.071 31.7166 83.7508 30.5972 83.7508 29.9575C83.7508 29.6377 83.5907 29.3179 83.5907 29.158C83.7508 28.6782 83.7508 28.5183 83.5907 28.5183Z" fill="#972D03"/>
<path d="M77.9876 25.1597C77.3473 25.1597 76.7069 25.3196 76.2266 25.4795C75.7464 25.7993 75.4262 26.439 75.7464 26.9187C76.0666 28.0381 77.8276 28.8377 79.4285 28.8377C81.0294 28.8377 82.15 28.0381 81.6697 26.9187C81.5096 26.439 81.1894 26.1191 80.7092 25.7993C79.9087 25.3196 78.9482 25.1597 77.9876 25.1597Z" fill="url(#paint27_radial_7002_12937)"/>
<path d="M74.6255 27.7186C74.7856 28.5181 75.586 29.3177 76.3865 29.7974C77.347 30.2772 78.4676 30.597 79.7484 30.597C80.7089 30.597 81.6694 30.4371 82.3098 29.9574C82.9502 29.6375 83.2703 28.9979 83.2703 28.3582C83.2703 28.1983 83.2703 27.8785 83.1103 27.7186C82.7901 26.919 82.1497 26.2793 81.1892 25.7996C80.2286 25.3198 79.108 25 77.8273 25C76.8667 25 75.9062 25.1599 75.2658 25.6397C74.6255 25.9595 74.3053 26.5991 74.3053 27.2388C74.4654 27.2388 74.4654 27.5586 74.6255 27.7186C74.6255 27.3987 74.6255 27.2388 74.6255 27.0789C74.6255 26.5991 74.9457 26.1194 75.4259 25.6397C75.9062 25.3198 76.8667 25 77.8273 25C78.9479 25 80.0685 25.3198 81.0291 25.7996C81.9896 26.2793 82.63 26.919 82.7901 27.5586C82.7901 27.7186 82.9502 27.8785 82.9502 28.1983C82.9502 28.678 82.63 29.1578 82.1497 29.6375C81.6694 29.9573 80.7089 30.2772 79.7484 30.2772C78.6277 30.2772 77.5071 29.9574 76.5466 29.4776C75.7461 28.9979 75.1058 28.3582 74.6255 27.7186Z" fill="#972D03"/>
<path d="M76.2269 25.3198C75.9068 25.4797 75.7467 25.4797 75.5866 25.6396C75.1063 25.9595 74.7861 26.4392 74.7861 27.0789C74.7861 27.2388 74.7861 27.3987 74.9462 27.7185C75.2664 28.3582 75.9068 28.9979 76.7072 29.4776C77.6678 29.9573 78.7884 30.2772 79.909 30.2772C80.8696 30.2772 81.67 30.1173 82.3104 29.6375C82.7906 29.3177 83.1108 28.8379 83.1108 28.1983C83.1108 28.0384 83.1108 27.8785 82.9507 27.5586C82.6306 26.919 81.9902 26.2793 81.1897 25.7996L80.8696 25.6396C81.3498 25.9595 81.67 26.2793 81.8301 26.7591C82.1503 27.8785 81.1897 28.678 79.5888 28.678C77.9879 28.678 76.2269 27.8785 75.9068 26.7591C75.5866 26.2793 75.7467 25.7996 76.2269 25.3198Z" fill="url(#paint28_radial_7002_12937)"/>
<path d="M79.9089 25.3198C80.2291 25.4798 80.5493 25.6397 80.8695 25.7996L81.1897 25.9595C82.1502 26.4392 82.7906 27.0789 82.9506 27.7186C82.9506 27.8785 83.1107 28.0384 83.1107 28.3582C83.1107 28.838 82.7906 29.3177 82.3103 29.7974C81.83 30.1173 80.8695 30.4371 79.9089 30.4371C78.7883 30.4371 77.6677 30.1173 76.7071 29.6375C75.7466 29.1578 75.1062 28.5181 74.9461 27.8785H74.786C75.2663 29.3177 77.6677 30.597 79.9089 30.597C82.1502 30.597 83.591 29.3177 83.1107 27.8785C82.6305 26.5991 81.3497 25.6397 79.9089 25.3198ZM76.8672 25C75.1062 25.3198 74.1457 26.4392 74.626 27.5586H74.786C74.786 27.3987 74.626 27.2388 74.626 26.919C74.626 26.4392 74.9461 25.9595 75.4264 25.4797C75.5865 25.3198 75.9067 25.3198 76.0668 25.1599C76.3869 25.3198 76.7071 25.1599 76.8672 25Z" fill="#831A02"/>
<path d="M76.2264 30.2769C80.0685 39.0721 86.152 50.4261 89.3538 55.7032C102.001 76.8119 110.165 83.8482 110.165 83.8482C110.486 84.0081 110.646 84.0081 110.806 84.168C111.126 83.8482 111.446 83.5283 111.766 83.0486C110.165 81.4495 104.722 74.4132 104.722 74.4132H104.562C102.641 74.4132 95.117 63.699 90.4744 56.0231C85.5116 47.8674 76.8667 33.3152 82.1497 32.6756C84.391 32.5157 83.5905 30.7566 83.5905 30.7566C82.3098 31.3963 81.1892 31.7161 80.0685 31.7161C77.6672 31.5562 76.2264 30.2769 76.2264 30.2769Z" fill="url(#paint29_radial_7002_12937)"/>
<path d="M107.764 85.2874C107.764 85.2874 108.245 85.4473 108.885 85.4473C110.166 85.4473 112.247 84.6478 114.808 80.8098L114.488 80.6499C111.927 84.4878 109.845 85.1275 108.725 85.1275C108.405 85.1275 108.245 85.1275 108.084 84.9676H107.924L107.764 85.2874Z" fill="#972D03"/>
<path d="M114.648 79.21C114.488 79.21 114.008 79.5298 113.688 80.0095C113.047 80.8091 112.567 81.7686 112.087 82.5681L112.407 82.888C112.407 82.888 112.407 83.0479 112.407 83.2078C113.047 82.5682 113.688 81.7686 114.488 80.6492L114.808 80.8091C113.848 82.0884 113.047 83.0479 112.247 83.8475C112.087 84.0074 112.087 84.1673 111.927 84.3272C111.767 84.4871 111.607 84.4871 111.447 84.4871C110.326 85.2867 109.525 85.4466 108.885 85.4466C108.245 85.4466 107.764 85.2867 107.764 85.2867L107.925 84.9669H108.085C108.245 84.9669 108.405 85.1268 108.725 85.1268C109.205 85.1268 109.846 84.9669 110.806 84.4871C110.646 84.4871 110.486 84.4871 110.326 84.3272C110.006 84.647 109.525 84.647 109.205 84.647C108.885 84.647 108.725 84.647 108.405 84.4871C108.405 84.4871 107.925 84.3272 107.604 84.1673C107.284 84.1673 106.964 84.0074 106.644 84.0074C106.164 84.0074 106.004 84.3272 106.324 85.2867C106.804 86.566 107.444 87.3656 108.565 87.3656C109.045 87.3656 109.846 87.0457 110.646 86.566C111.126 85.6065 111.447 84.9669 111.767 84.4871L112.087 84.3272H112.247C112.407 84.4871 112.407 84.647 112.407 84.807C112.247 84.9669 112.087 85.2867 111.927 85.6065C112.087 85.4466 112.407 85.1268 112.567 84.9669C115.129 82.0884 115.449 79.21 114.648 79.21Z" fill="url(#paint30_radial_7002_12937)"/>
<path d="M106.804 84.0073C107.124 84.0073 107.444 84.1679 107.604 84.1679C107.284 84.1679 106.964 84.0073 106.804 84.0073Z" fill="#1B0C0E"/>
<path d="M111.927 84.4878L111.606 84.6477C111.286 85.1275 110.966 85.7671 110.486 86.7266C110.806 86.4068 111.126 86.2469 111.606 85.7671C111.767 85.4473 111.927 85.1275 112.087 84.9675C112.247 84.8076 112.247 84.4878 111.927 84.4878Z" fill="#1B0C0E"/>
<path d="M111.927 82.7285L112.087 83.0483C112.087 83.0483 111.927 84.0078 111.126 84.0078H110.966L110.806 84.1677C110.966 84.1677 111.126 84.1677 111.286 84.1677H111.447C111.607 84.0078 111.927 83.8479 112.247 83.5281C112.407 83.2083 112.407 83.0483 112.407 82.8884L111.927 82.7285Z" fill="url(#paint31_radial_7002_12937)"/>
<path d="M110.646 84.168L110.326 84.3279C110.486 84.3279 110.646 84.4878 110.806 84.4878C110.966 84.3279 111.126 84.3279 111.286 84.168H111.126C110.966 84.3279 110.806 84.168 110.646 84.168ZM112.247 83.8482C111.927 84.168 111.607 84.3279 111.446 84.4878C111.607 84.4878 111.767 84.3279 111.927 84.3279C112.087 84.168 112.087 84.0081 112.247 83.8482ZM112.087 82.5688L111.927 82.8887L112.087 83.2085C112.087 83.3684 112.087 83.5283 111.927 83.8482C112.087 83.6883 112.247 83.5283 112.407 83.5283C112.407 83.3684 112.407 83.2085 112.407 83.2085L112.087 82.5688Z" fill="#7F1301"/>
<path d="M111.767 82.8887C111.447 83.3684 111.126 83.6883 110.806 84.0081H110.966C111.767 84.0081 111.927 83.0486 111.927 83.0486L111.767 82.8887Z" fill="url(#paint32_radial_7002_12937)"/>
<path d="M114.488 80.6499C113.688 81.7693 113.047 82.5689 112.407 83.2085C112.247 83.3685 112.087 83.5284 111.927 83.5284C111.607 83.6883 111.447 84.0081 111.126 84.168C110.966 84.3279 110.806 84.3279 110.646 84.4878C109.846 84.9676 109.045 85.1275 108.565 85.1275C108.245 85.1275 108.085 85.1275 107.925 84.9676H107.764L107.604 85.2874C107.604 85.2874 108.085 85.4473 108.725 85.4473C109.365 85.4473 110.166 85.2874 111.286 84.4878C111.607 84.3279 111.767 84.0081 112.087 83.8482C112.887 83.2085 113.688 82.2491 114.648 80.8098L114.488 80.6499Z" fill="#7F1301"/>
<defs>
<radialGradient id="paint0_radial_7002_12937" cx="0" cy="0" r="1" gradientTransform="matrix(34.2196 -18.9824 22.7812 40.9747 130.478 118.829)" gradientUnits="userSpaceOnUse">
<stop stop-color="#BC3255"/>
<stop offset="0.1901" stop-color="#AA2E51"/>
<stop offset="0.5273" stop-color="#7F2446"/>
<stop offset="0.6258" stop-color="#722142"/>
<stop offset="1" stop-color="#421A3B"/>
</radialGradient>
<radialGradient id="paint1_radial_7002_12937" cx="0" cy="0" r="1" gradientTransform="matrix(34.2793 -19.0155 22.8208 41.0461 129.908 118.325)" gradientUnits="userSpaceOnUse">
<stop stop-color="#C63F67"/>
<stop offset="0.2143" stop-color="#B53961"/>
<stop offset="0.6067" stop-color="#8C2A53"/>
<stop offset="0.6258" stop-color="#8A2A52"/>
<stop offset="1" stop-color="#502048"/>
</radialGradient>
<radialGradient id="paint2_radial_7002_12937" cx="0" cy="0" r="1" gradientTransform="matrix(34.073 -18.901 22.6835 40.7991 130.141 118.739)" gradientUnits="userSpaceOnUse">
<stop stop-color="#D05180"/>
<stop offset="0.2132" stop-color="#C24978"/>
<stop offset="0.6029" stop-color="#9F3666"/>
<stop offset="0.6258" stop-color="#9D3565"/>
<stop offset="0.7884" stop-color="#842F60"/>
<stop offset="1" stop-color="#612758"/>
</radialGradient>
<radialGradient id="paint3_radial_7002_12937" cx="0" cy="0" r="1" gradientTransform="matrix(34.1249 -18.93 22.7181 40.8614 129.021 118.107)" gradientUnits="userSpaceOnUse">
<stop stop-color="#C63F67"/>
<stop offset="0.2143" stop-color="#B53961"/>
<stop offset="0.6067" stop-color="#8C2A53"/>
<stop offset="0.6258" stop-color="#8A2A52"/>
<stop offset="1" stop-color="#502048"/>
</radialGradient>
<radialGradient id="paint4_radial_7002_12937" cx="0" cy="0" r="1" gradientTransform="matrix(34.2899 -19.0215 22.828 41.059 130.427 117.978)" gradientUnits="userSpaceOnUse">
<stop stop-color="#D05180"/>
<stop offset="0.2132" stop-color="#C24978"/>
<stop offset="0.6029" stop-color="#9F3666"/>
<stop offset="0.6258" stop-color="#9D3565"/>
<stop offset="0.7884" stop-color="#842F60"/>
<stop offset="1" stop-color="#612758"/>
</radialGradient>
<radialGradient id="paint5_radial_7002_12937" cx="0" cy="0" r="1" gradientTransform="matrix(34.2422 -18.995 22.7963 41.0018 129.589 117.888)" gradientUnits="userSpaceOnUse">
<stop stop-color="#9E143A"/>
<stop offset="0.1811" stop-color="#901338"/>
<stop offset="0.4983" stop-color="#6F1032"/>
<stop offset="0.6258" stop-color="#600F2F"/>
<stop offset="1" stop-color="#370D2A"/>
</radialGradient>
<radialGradient id="paint6_radial_7002_12937" cx="0" cy="0" r="1" gradientTransform="matrix(28.3825 14.2839 -8.12871 16.1193 125.758 51.2633)" gradientUnits="userSpaceOnUse">
<stop stop-color="#8AC91C"/>
<stop offset="1" stop-color="#2E8927"/>
</radialGradient>
<radialGradient id="paint7_radial_7002_12937" cx="0" cy="0" r="1" gradientTransform="matrix(28.4524 14.319 -8.1487 16.1588 125.854 50.2234)" gradientUnits="userSpaceOnUse">
<stop stop-color="#3E8923"/>
<stop offset="1" stop-color="#1D5E1E"/>
</radialGradient>
<radialGradient id="paint8_radial_7002_12937" cx="0" cy="0" r="1" gradientTransform="matrix(28.3771 14.2812 -8.12724 16.1162 126.366 50.8466)" gradientUnits="userSpaceOnUse">
<stop stop-color="#3E8923"/>
<stop offset="1" stop-color="#1D5E1E"/>
</radialGradient>
<radialGradient id="paint9_radial_7002_12937" cx="0" cy="0" r="1" gradientTransform="matrix(28.4469 14.3164 -8.14718 16.1558 126.338 50.4575)" gradientUnits="userSpaceOnUse">
<stop stop-color="#B7DF37"/>
<stop offset="0.2134" stop-color="#A6D73A"/>
<stop offset="0.6377" stop-color="#78C241"/>
<stop offset="1" stop-color="#4CAF48"/>
</radialGradient>
<radialGradient id="paint10_radial_7002_12937" cx="0" cy="0" r="1" gradientUnits="userSpaceOnUse" gradientTransform="translate(70.0082 131.562) scale(39.1341 46.8649)">
<stop stop-color="#BC3255"/>
<stop offset="0.1901" stop-color="#AA2E51"/>
<stop offset="0.5273" stop-color="#7F2446"/>
<stop offset="0.6258" stop-color="#722142"/>
<stop offset="1" stop-color="#421A3B"/>
</radialGradient>
<radialGradient id="paint11_radial_7002_12937" cx="0" cy="0" r="1" gradientUnits="userSpaceOnUse" gradientTransform="translate(70.1587 130.692) scale(39.1114 46.8376)">
<stop stop-color="#C63F67"/>
<stop offset="0.2143" stop-color="#B53961"/>
<stop offset="0.6067" stop-color="#8C2A53"/>
<stop offset="0.6258" stop-color="#8A2A52"/>
<stop offset="1" stop-color="#502048"/>
</radialGradient>
<radialGradient id="paint12_radial_7002_12937" cx="0" cy="0" r="1" gradientUnits="userSpaceOnUse" gradientTransform="translate(69.8192 130.494) scale(39.196 46.939)">
<stop stop-color="#D05180"/>
<stop offset="0.2132" stop-color="#C24978"/>
<stop offset="0.6029" stop-color="#9F3666"/>
<stop offset="0.6258" stop-color="#9D3565"/>
<stop offset="0.7884" stop-color="#842F60"/>
<stop offset="1" stop-color="#612758"/>
</radialGradient>
<radialGradient id="paint13_radial_7002_12937" cx="0" cy="0" r="1" gradientUnits="userSpaceOnUse" gradientTransform="translate(70.021 131.268) scale(39.0637 46.7806)">
<stop stop-color="#C63F67"/>
<stop offset="0.2143" stop-color="#B53961"/>
<stop offset="0.6067" stop-color="#8C2A53"/>
<stop offset="0.6258" stop-color="#8A2A52"/>
<stop offset="1" stop-color="#502048"/>
</radialGradient>
<radialGradient id="paint14_radial_7002_12937" cx="0" cy="0" r="1" gradientUnits="userSpaceOnUse" gradientTransform="translate(70.5891 130.777) scale(39.1191 46.8468)">
<stop stop-color="#D05180"/>
<stop offset="0.2132" stop-color="#C24978"/>
<stop offset="0.6029" stop-color="#9F3666"/>
<stop offset="0.6258" stop-color="#9D3565"/>
<stop offset="0.7884" stop-color="#842F60"/>
<stop offset="1" stop-color="#612758"/>
</radialGradient>
<radialGradient id="paint15_radial_7002_12937" cx="0" cy="0" r="1" gradientUnits="userSpaceOnUse" gradientTransform="translate(70.4414 131.612) scale(39.1378 46.8692)">
<stop stop-color="#9E143A"/>
<stop offset="0.1811" stop-color="#901338"/>
<stop offset="0.4983" stop-color="#6F1032"/>
<stop offset="0.6258" stop-color="#600F2F"/>
<stop offset="1" stop-color="#370D2A"/>
</radialGradient>
<radialGradient id="paint16_radial_7002_12937" cx="0" cy="0" r="1" gradientUnits="userSpaceOnUse" gradientTransform="translate(69.7625 131.042) scale(39.157 46.8923)">
<stop stop-color="#9E143A"/>
<stop offset="0.1811" stop-color="#901338"/>
<stop offset="0.4983" stop-color="#6F1032"/>
<stop offset="0.6258" stop-color="#600F2F"/>
<stop offset="1" stop-color="#370D2A"/>
</radialGradient>
<radialGradient id="paint17_radial_7002_12937" cx="0" cy="0" r="1" gradientUnits="userSpaceOnUse" gradientTransform="translate(70.581 130.819) scale(39.3465 47.1191)">
<stop stop-color="#EFC8D0"/>
<stop offset="0.3913" stop-color="#E4C4CB"/>
<stop offset="0.6258" stop-color="#DBC1C7"/>
<stop offset="1" stop-color="#CFBDC3"/>
</radialGradient>
<radialGradient id="paint18_radial_7002_12937" cx="0" cy="0" r="1" gradientUnits="userSpaceOnUse" gradientTransform="translate(70.6429 131.676) scale(39.2219 46.9699)">
<stop stop-color="#F2CBD7"/>
<stop offset="0.4599" stop-color="#E7C5D0"/>
<stop offset="0.6258" stop-color="#E2C3CD"/>
<stop offset="1" stop-color="#D2BFC8"/>
</radialGradient>
<radialGradient id="paint19_radial_7002_12937" cx="0" cy="0" r="1" gradientUnits="userSpaceOnUse" gradientTransform="translate(69.9939 131.54) scale(39.1734 46.9119)">
<stop stop-color="#F5CFDD"/>
<stop offset="0.6258" stop-color="#E7C7D3"/>
<stop offset="0.9873" stop-color="#D7C4CE"/>
<stop offset="1" stop-color="#D7C4CE"/>
</radialGradient>
<radialGradient id="paint20_radial_7002_12937" cx="0" cy="0" r="1" gradientUnits="userSpaceOnUse" gradientTransform="translate(70.6605 130.578) scale(39.8586 47.7326)">
<stop stop-color="#EFC8D0"/>
<stop offset="0.3913" stop-color="#E4C4CB"/>
<stop offset="0.6258" stop-color="#DBC1C7"/>
<stop offset="1" stop-color="#CFBDC3"/>
</radialGradient>
<radialGradient id="paint21_radial_7002_12937" cx="0" cy="0" r="1" gradientUnits="userSpaceOnUse" gradientTransform="translate(69.9161 130.655) scale(39.1644 46.9011)">
<stop stop-color="#F2CBD7"/>
<stop offset="0.4599" stop-color="#E7C5D0"/>
<stop offset="0.6258" stop-color="#E2C3CD"/>
<stop offset="1" stop-color="#D2BFC8"/>
</radialGradient>
<radialGradient id="paint22_radial_7002_12937" cx="0" cy="0" r="1" gradientTransform="matrix(9.06375 2.43536 -5.69926 29.5328 76.9539 60.2758)" gradientUnits="userSpaceOnUse">
<stop stop-color="#DF7003"/>
<stop offset="1" stop-color="#933F04"/>
</radialGradient>
<radialGradient id="paint23_radial_7002_12937" cx="0" cy="0" r="1" gradientTransform="matrix(4.01773 -0.87823 -0.382171 3.06866 81.6588 29.5429)" gradientUnits="userSpaceOnUse">
<stop stop-color="#DF7003"/>
<stop offset="1" stop-color="#933F04"/>
</radialGradient>
<radialGradient id="paint24_radial_7002_12937" cx="0" cy="0" r="1" gradientTransform="matrix(4.01527 -0.877652 -0.381881 3.06678 81.5768 29.5598)" gradientUnits="userSpaceOnUse">
<stop stop-color="#C73E02"/>
<stop offset="1" stop-color="#802303"/>
</radialGradient>
<radialGradient id="paint25_radial_7002_12937" cx="0" cy="0" r="1" gradientTransform="matrix(9.06477 2.43565 -5.69985 29.5364 76.9066 61.4006)" gradientUnits="userSpaceOnUse">
<stop stop-color="#C73E02"/>
<stop offset="1" stop-color="#802303"/>
</radialGradient>
<radialGradient id="paint26_radial_7002_12937" cx="0" cy="0" r="1" gradientTransform="matrix(-7.70155 5.38931 15.4773 25.8654 94.4441 56.9074)" gradientUnits="userSpaceOnUse">
<stop stop-color="#DF7003"/>
<stop offset="1" stop-color="#933F04"/>
</radialGradient>
<radialGradient id="paint27_radial_7002_12937" cx="0" cy="0" r="1" gradientTransform="matrix(-4.071 0.543643 1.40597 2.75041 78.9213 27.6075)" gradientUnits="userSpaceOnUse">
<stop stop-color="#DF7003"/>
<stop offset="1" stop-color="#933F04"/>
</radialGradient>
<radialGradient id="paint28_radial_7002_12937" cx="0" cy="0" r="1" gradientTransform="matrix(-4.0741 0.544028 1.40703 2.75249 78.8753 27.6524)" gradientUnits="userSpaceOnUse">
<stop stop-color="#C73E02"/>
<stop offset="1" stop-color="#802303"/>
</radialGradient>
<radialGradient id="paint29_radial_7002_12937" cx="0" cy="0" r="1" gradientTransform="matrix(-7.70557 5.39195 15.485 25.8783 94.0933 56.169)" gradientUnits="userSpaceOnUse">
<stop stop-color="#C73E02"/>
<stop offset="1" stop-color="#802303"/>
</radialGradient>
<radialGradient id="paint30_radial_7002_12937" cx="0" cy="0" r="1" gradientTransform="matrix(35.304 -19.5839 23.5032 42.2732 131.366 120.43)" gradientUnits="userSpaceOnUse">
<stop stop-color="#9E143A"/>
<stop offset="0.1811" stop-color="#901338"/>
<stop offset="0.4983" stop-color="#6F1032"/>
<stop offset="0.6258" stop-color="#600F2F"/>
<stop offset="1" stop-color="#370D2A"/>
</radialGradient>
<radialGradient id="paint31_radial_7002_12937" cx="0" cy="0" r="1" gradientTransform="matrix(-7.17697 5.02204 14.4229 24.103 95.7259 58.3031)" gradientUnits="userSpaceOnUse">
<stop stop-color="#C13002"/>
<stop offset="1" stop-color="#7D1B05"/>
</radialGradient>
<radialGradient id="paint32_radial_7002_12937" cx="0" cy="0" r="1" gradientTransform="matrix(-8.09554 5.66496 16.269 27.1887 93.7249 55.0494)" gradientUnits="userSpaceOnUse">
<stop stop-color="#A81A01"/>
<stop offset="1" stop-color="#6B1101"/>
</radialGradient>
</defs>
</svg>
