<svg width="200" height="200" viewBox="0 0 200 200" fill="none" xmlns="http://www.w3.org/2000/svg">
<path d="M96.9141 159.836C82.7316 161.091 68.549 155.028 58.5378 145.829C48.5266 136.421 42.4782 124.086 38.9326 111.333C38.3069 108.824 37.6812 105.897 39.5583 104.016C40.6011 102.761 42.4782 102.134 44.3553 101.507C55.2008 98.3709 66.672 97.1165 77.9346 95.444C93.7856 92.9352 109.428 89.3811 124.653 84.5726C132.788 82.0638 141.13 79.1369 149.473 77.6735C150.307 77.4644 151.141 77.4644 151.976 77.8825C152.601 78.3007 153.018 78.9279 153.227 79.7641C156.773 89.7993 159.484 100.253 159.484 110.706C159.275 121.159 155.938 132.03 148.43 139.975C144.884 143.738 140.505 146.665 135.916 149.383C132.37 151.683 128.616 153.773 124.653 155.237C120.274 156.7 115.477 157.118 110.888 157.955C106.091 158.373 101.711 159.418 96.9141 159.836Z" fill="#D69505"/>
<mask id="mask0_9002_21024" style="mask-type:luminance" maskUnits="userSpaceOnUse" x="38" y="77" width="122" height="83">
<path d="M96.9141 159.834C82.7316 161.089 68.549 155.026 58.5378 145.827C48.5266 136.419 42.4782 124.084 38.9326 111.331C38.3069 108.822 37.6812 105.895 39.5583 104.014C40.6011 102.759 42.4782 102.132 44.3553 101.505C55.2008 98.369 66.672 97.1146 77.9346 95.4421C93.7856 92.9333 109.428 89.3792 124.653 84.5707C132.788 82.0619 141.13 79.135 149.473 77.6715C150.307 77.4624 151.141 77.4624 151.976 77.8806C152.601 78.2987 153.018 78.9259 153.227 79.7622C156.773 89.7973 159.484 100.251 159.484 110.704C159.275 121.157 155.938 132.029 148.43 139.973C144.884 143.736 140.505 146.663 135.916 149.381C132.37 151.681 128.616 153.771 124.653 155.235C120.274 156.698 115.477 157.116 110.888 157.953C106.091 158.371 101.711 159.416 96.9141 159.834Z" fill="white"/>
</mask>
<g mask="url(#mask0_9002_21024)">
<g opacity="0.36">
<path d="M42.2695 97.7431C41.6438 97.3249 40.8095 97.1159 40.1838 96.9068C38.9324 96.4887 36.6382 96.9068 35.8039 98.1612C20.1614 117.813 41.0181 149.173 54.7835 163.39C73.763 183.251 112.348 197.676 136.124 179.697C142.59 174.888 142.59 164.226 133.83 161.717C123.402 158.79 115.268 162.344 104.631 160.254C94.2026 158.372 87.737 151.055 78.9772 145.201C69.8003 138.929 56.452 130.148 51.4464 120.322C47.9008 113.423 46.6494 105.06 42.4781 98.5793C41.8524 100.043 41.4352 101.297 40.8095 102.761C41.0181 102.761 41.4352 102.761 41.6438 102.552C43.938 102.133 44.1466 98.5793 42.2695 97.7431Z" fill="#D69505"/>
</g>
</g>
<mask id="mask1_9002_21024" style="mask-type:luminance" maskUnits="userSpaceOnUse" x="38" y="77" width="122" height="83">
<path d="M96.9141 159.834C82.7316 161.089 68.549 155.026 58.5378 145.827C48.5266 136.419 42.4782 124.084 38.9326 111.331C38.3069 108.822 37.6812 105.895 39.5583 104.014C40.6011 102.759 42.4782 102.132 44.3553 101.505C55.2008 98.369 66.672 97.1146 77.9346 95.4421C93.7856 92.9333 109.428 89.3792 124.653 84.5707C132.788 82.0619 141.13 79.135 149.473 77.6715C150.307 77.4624 151.141 77.4624 151.976 77.8806C152.601 78.2987 153.018 78.9259 153.227 79.7622C156.773 89.7973 159.484 100.251 159.484 110.704C159.275 121.157 155.938 132.029 148.43 139.973C144.884 143.736 140.505 146.663 135.916 149.381C132.37 151.681 128.616 153.771 124.653 155.235C120.274 156.698 115.477 157.116 110.888 157.953C106.091 158.371 101.711 159.416 96.9141 159.834Z" fill="white"/>
</mask>
<g mask="url(#mask1_9002_21024)">
<g opacity="0.15">
<path d="M115.059 180.741C125.071 177.605 132.371 175.933 140.505 168.825C148.43 161.926 154.896 153.563 159.693 144.155C168.87 126.803 172.624 98.1606 158.024 82.6898C149.473 73.7 136.75 79.3447 132.788 89.3799C129.868 96.9062 133.83 102.551 134.665 109.659C135.499 117.395 134.039 131.402 132.162 138.928C128.408 153.981 117.562 161.089 110.262 174.679C108.802 177.815 111.514 181.996 115.059 180.741Z" fill="#FFCA0A"/>
</g>
</g>
<path d="M59.1633 135.585C58.7462 134.539 58.1205 133.285 57.0777 132.658C55.4091 131.403 53.1149 130.567 51.6549 130.567C43.7294 130.358 35.8039 124.086 36.221 116.142C36.4296 113.842 37.0553 111.542 37.0553 109.242C36.8467 102.97 37.681 101.507 34.9696 95.6531C32.6754 91.0536 32.6753 85.1998 33.5096 82.9001C35.5953 77.6735 37.8895 74.9556 43.1037 72.4468C45.815 71.1924 49.3606 69.938 49.9863 67.0111C50.1949 65.9658 50.1949 64.9205 50.1949 63.8751C50.6121 57.6032 58.1205 54.0491 64.3775 54.8853C67.2974 55.3035 70.4259 56.3488 73.3458 55.7216C80.6457 54.2581 83.9827 43.5958 91.2826 44.0139C96.9139 44.223 100.668 50.9131 106.091 51.3312C109.636 51.5403 112.973 49.0315 116.311 47.568C125.696 43.5958 135.499 50.9131 140.296 59.9029C143.007 64.7114 150.724 61.7845 153.853 63.2479C158.441 65.5477 161.152 69.729 161.778 73.2831C162.821 79.7641 159.901 81.0185 158.858 83.7364C157.815 86.4542 159.275 89.3811 161.152 91.6808C163.029 93.9806 165.324 95.8622 166.158 98.58C167.409 102.134 165.949 106.106 163.447 108.824C160.944 111.542 157.398 113.215 154.061 114.678C152.393 115.305 150.515 116.141 149.264 117.605C148.43 118.859 148.013 120.323 147.804 121.786C146.761 126.595 145.718 131.612 143.007 135.585C140.296 139.557 135.29 142.693 130.493 141.647C126.322 140.602 121.733 137.048 118.396 139.557C117.353 140.393 116.728 141.647 116.102 142.902C112.348 149.801 103.379 153.982 96.7053 150.01C94.2025 148.547 92.1168 145.829 89.1969 144.993C85.2341 143.738 80.4371 147.292 76.4743 148.129C64.3775 151.264 60.6233 138.93 59.1633 135.585Z" fill="#FFCA0A"/>
<path d="M97.1225 58.4388C98.3739 59.066 99.8338 59.066 101.085 59.4841C103.797 60.5294 105.465 63.6654 104.631 66.3833C104.005 68.4739 102.337 69.9374 100.46 70.9827C98.5825 71.819 96.4968 72.2371 94.4111 72.4462C92.7426 72.6552 90.8655 72.8643 89.197 72.8643C86.0685 72.8643 83.1485 71.819 80.4372 70.3555C78.5601 68.683 78.9772 65.547 80.4372 63.4563C81.6886 61.3657 83.7742 59.9022 85.4427 58.0206C87.1113 56.3481 88.7798 53.8393 91.0741 54.0484C93.5769 54.4665 94.8282 57.3934 97.1225 58.4388Z" fill="#D1B28A"/>
<mask id="mask2_9002_21024" style="mask-type:luminance" maskUnits="userSpaceOnUse" x="33" y="44" width="134" height="108">
<path d="M59.1634 135.583C58.7463 134.537 58.1206 133.283 57.0777 132.656C55.4092 131.401 53.1149 130.565 51.655 130.565C43.7294 130.356 35.8039 124.084 36.2211 116.14C36.4296 113.84 37.0553 111.54 37.0553 109.24C36.8468 102.968 37.681 101.505 34.9697 95.6511C32.6754 91.0517 32.6754 85.1979 33.5097 82.8981C35.5953 77.6715 37.8896 74.9537 43.1037 72.4449C45.8151 71.1905 49.3607 69.9361 49.9864 67.0092C50.195 65.9638 50.195 64.9185 50.195 63.8732C50.6121 57.6012 58.1206 54.0471 64.3776 54.8834C67.2975 55.3015 70.426 56.3468 73.3459 55.7196C80.6457 54.2562 83.9828 43.5938 91.2826 44.012C96.9139 44.221 100.668 50.9111 106.091 51.3293C109.636 51.5383 112.974 49.0295 116.311 47.5661C125.696 43.5938 135.499 50.9111 140.296 59.9009C143.007 64.7094 150.724 61.7825 153.853 63.246C158.441 65.5457 161.152 69.727 161.778 73.2811C162.821 79.7622 159.901 81.0166 158.858 83.7344C157.815 86.4523 159.275 89.3792 161.152 91.6789C163.03 93.9786 165.324 95.8602 166.158 98.578C167.409 102.132 165.949 106.104 163.447 108.822C160.944 111.54 157.398 113.213 154.061 114.676C152.393 115.303 150.515 116.14 149.264 117.603C148.43 118.857 148.013 120.321 147.804 121.784C146.761 126.593 145.718 131.61 143.007 135.583C140.296 139.555 135.29 142.691 130.493 141.646C126.322 140.6 121.733 137.046 118.396 139.555C117.353 140.391 116.728 141.646 116.102 142.9C112.348 149.799 103.379 153.98 96.7054 150.008C94.2026 148.545 92.1169 145.827 89.197 144.991C85.2342 143.736 80.4371 147.29 76.4744 148.127C64.3775 151.263 60.6234 138.928 59.1634 135.583Z" fill="white"/>
</mask>
<g mask="url(#mask2_9002_21024)">
<path d="M81.8974 77.4626C76.6832 83.5255 74.5975 91.47 71.0519 98.5782C66.8805 106.941 61.0407 114.467 57.7036 123.039C53.7409 133.283 60.2064 155.444 74.5975 149.59C76.2661 148.963 86.903 145.618 85.2344 145.2C78.3517 144.154 71.2604 140.182 68.7576 135.792C64.3777 128.056 67.5063 121.994 71.2605 115.513C74.389 110.286 77.5175 104.432 79.6031 98.7873C82.1059 92.0972 82.523 85.4071 83.7744 78.2989C83.983 77.4626 82.7316 76.6263 81.8974 77.4626Z" fill="#F3B31C"/>
<path d="M90.8651 77.0461C87.9452 85.8268 87.9452 95.6529 86.9024 104.852C85.8596 114.26 85.2339 124.086 86.2767 133.494C86.9024 141.02 97.9564 165.481 107.759 152.937C108.593 151.891 108.385 150.637 107.342 149.801C102.336 146.038 98.5821 143.529 96.2879 137.466C93.7851 131.194 94.6194 123.668 94.6194 117.187C94.6194 104.225 97.3307 89.799 93.368 77.2551C92.9508 75.7917 91.2823 75.7917 90.8651 77.0461Z" fill="#F3B31C"/>
<path d="M71.6775 69.938C58.3292 74.1193 47.0666 83.7363 38.7239 94.8168C33.9269 101.089 22.8728 117.814 33.5097 123.877C34.5526 124.504 38.5153 131.403 39.5582 130.776C41.2267 129.731 40.8096 124.713 40.3925 121.786C39.5582 116.141 43.3124 108.197 46.2323 103.388C53.9493 90.6355 64.3776 84.3635 73.346 73.074C74.1802 71.6106 73.346 69.5199 71.6775 69.938Z" fill="#F3B31C"/>
<path d="M72.9286 65.5471C75.0143 58.857 57.7033 62.4111 54.9919 62.8292C49.9863 63.4564 20.9955 75.1641 28.0868 82.8995C28.7125 83.5267 25.1669 91.2621 35.1781 82.2723C37.2638 80.3907 43.5207 76.4185 45.8149 74.746C48.5263 72.8644 51.2377 70.5647 56.6604 68.474C61.666 66.5924 67.0888 66.8015 72.3029 65.9652C72.5115 66.1743 72.9286 65.9652 72.9286 65.5471Z" fill="#F3B31C"/>
<path d="M76.6833 57.8114C74.5976 55.3026 71.8862 53.6301 68.7577 52.3757C65.8378 51.1213 62.0836 51.9576 58.9551 51.1213C56.4523 50.4941 54.7838 54.0482 57.078 55.5117C59.3722 56.7661 62.0836 56.7661 64.5864 56.7661C68.5491 56.7661 70.8434 59.4839 74.389 60.7383C75.849 60.9474 77.5175 59.0658 76.6833 57.8114Z" fill="#F3B31C"/>
<path d="M102.754 59.0655C109.845 60.3199 115.685 55.0933 121.108 51.3301C124.445 49.0304 129.033 47.5669 133.205 47.1488C136.124 46.7307 138.836 48.1941 141.756 47.5669C142.381 47.3579 143.007 46.7307 143.007 46.1035C142.59 39.2043 133.205 40.4587 128.616 41.504C118.813 43.5947 111.096 51.9573 102.754 56.7658C101.502 56.9749 101.502 58.8565 102.754 59.0655Z" fill="#F3B31C"/>
<path d="M101.503 57.3929C106.091 58.8563 106.091 50.0756 105.674 47.5668C104.005 48.6121 102.337 49.4484 100.877 50.4937C101.711 51.33 101.711 52.7934 101.92 53.8387C102.337 55.5113 104.214 56.5566 105.674 55.9294C106.3 55.7203 107.342 56.3475 108.177 56.1385C109.22 55.9294 109.845 55.5113 110.679 54.675C112.348 53.0025 111.514 50.0756 109.22 49.4484C108.177 49.2393 107.134 49.0302 106.091 49.2393C105.674 49.4484 105.048 49.6574 104.631 49.8665C105.674 49.4484 106.091 51.7481 105.257 49.4484C104.631 47.3577 103.797 45.8943 102.337 44.2217C99.834 41.2948 94.4113 35.8591 90.6571 38.9951C90.0314 39.6223 89.6142 40.8767 90.0314 41.713C91.4913 45.2671 97.1227 45.8943 98.5826 49.6574C99.4169 51.539 99.834 53.8387 101.294 55.3022C102.337 56.3475 103.797 56.5566 105.048 56.3475C105.674 56.3475 107.551 55.5113 107.551 55.5113C107.134 53.8387 106.717 51.9572 106.091 50.2846C106.508 49.6574 108.594 49.8665 106.091 49.8665C105.257 49.8665 104.631 49.8665 104.005 50.2846C105.257 50.9118 106.508 51.7481 107.76 52.3753C107.134 50.0756 106.717 48.194 105.048 46.5215C102.963 44.6399 99.4169 46.5215 100.251 49.4484C100.668 51.33 100.668 53.0025 100.668 54.8841C100.46 55.7203 100.46 56.9747 101.503 57.3929Z" fill="#F3B31C"/>
<path d="M108.385 67.8457C110.888 70.3545 114.225 70.3545 117.562 70.1454C123.611 69.7273 129.659 68.891 135.707 68.4729C144.05 68.0547 154.896 66.3822 161.987 72.027C166.367 75.372 166.993 80.8077 172.624 82.6893C174.501 83.3165 176.169 81.644 176.169 79.9715C176.587 68.0547 163.03 60.9465 153.019 59.6921C145.093 58.6468 136.333 60.7375 128.616 61.7828C122.776 62.619 115.685 66.5913 109.845 65.546C108.385 65.1278 107.342 66.5913 108.385 67.8457Z" fill="#F3B31C"/>
<path d="M106.716 73.4915C108.593 77.4638 113.599 77.8819 117.562 78.3C127.364 79.5544 136.333 82.8995 145.51 86.2445C152.809 88.9624 161.152 94.6071 163.655 102.343C166.783 112.587 154.686 118.022 148.429 123.04C147.595 123.667 148.221 124.922 149.264 124.922C168.869 125.34 178.046 104.642 165.323 90.0077C151.767 74.5369 126.113 74.7459 107.342 72.6553C106.716 72.8643 106.716 73.2825 106.716 73.4915Z" fill="#F3B31C"/>
<path d="M101.085 78.0911C104.839 91.2623 118.396 102.552 127.99 111.542C132.161 115.305 143.007 121.368 143.424 127.431C144.05 134.539 135.498 137.884 133.83 144.156C133.413 145.41 134.247 146.874 135.498 147.083C150.307 150.219 158.023 126.385 149.055 116.768C142.172 109.451 133.83 103.179 126.321 96.4889C118.813 89.7988 111.305 82.0634 103.17 76.4186C101.919 76.0005 100.668 77.0458 101.085 78.0911Z" fill="#F3B31C"/>
<path d="M104.005 101.298C104.214 109.661 107.968 117.396 110.888 125.341C113.808 133.494 117.145 141.857 121.108 149.592C121.734 151.056 123.611 151.474 125.071 151.265C130.91 150.01 125.279 140.393 123.611 137.675C120.274 132.031 117.562 126.595 114.851 120.741C111.931 114.26 107.76 107.988 105.465 101.298C105.257 100.462 104.005 100.462 104.005 101.298Z" fill="#F3B31C"/>
</g>
<path d="M118.396 82.4815C122.985 86.8719 130.076 87.9172 135.707 90.426C137.793 91.4713 151.975 96.907 152.184 99.834C153.227 97.9524 154.27 96.0708 155.312 94.1892C155.312 94.1892 155.104 94.1892 155.104 94.3983C152.81 95.6527 150.932 98.5796 151.141 101.297C151.141 101.716 151.141 102.343 151.141 102.761C151.767 112.796 166.366 113.005 166.992 102.761C166.992 102.343 166.992 101.716 166.992 101.297C167.201 97.3252 163.238 92.9348 159.067 93.3529C161.152 93.7711 161.361 93.562 159.275 92.7257C157.607 91.8895 156.147 90.6351 154.478 89.7988C151.767 88.3354 148.847 87.081 145.927 86.0356C136.959 82.4815 129.242 79.7637 119.648 79.5546C118.188 79.3456 117.353 81.4362 118.396 82.4815Z" fill="#FFD13E"/>
<path d="M111.931 99.6245C113.808 105.687 117.145 109.66 121.525 114.05C123.61 116.141 125.905 118.44 127.99 120.74C130.702 123.876 130.702 126.594 131.745 130.357C134.039 138.302 145.51 134.957 144.05 127.012C142.799 120.74 136.124 114.886 131.536 110.914C126.113 106.315 119.648 102.97 114.016 98.5792C112.974 97.952 111.514 98.3701 111.931 99.6245Z" fill="#FFD13E"/>
<path d="M100.877 116.141C102.128 120.741 102.545 125.549 103.38 130.149C104.214 134.33 106.508 138.093 106.3 142.274C106.091 148.755 116.728 148.755 116.311 142.274C116.102 137.466 113.808 133.494 112.139 129.103C109.845 123.668 108.594 119.068 105.048 114.26C103.797 112.169 100.251 113.423 100.877 116.141Z" fill="#FFD13E"/>
<path d="M84.817 108.196C78.56 117.813 77.9343 129.103 73.5544 139.347C75.0144 138.511 76.4743 137.674 77.9343 136.838C77.7257 136.838 77.5171 136.838 77.5171 136.838C72.5116 137.047 69.8002 143.11 73.3458 146.664C77.3086 150.636 85.0256 146.664 82.9399 141.019C83.7742 143.11 83.9827 139.138 84.1913 138.092C85.4427 134.12 86.4855 130.357 87.1112 126.176C87.9455 119.904 88.5712 114.468 87.1112 108.196C86.9027 107.36 85.4427 107.151 84.817 108.196Z" fill="#FFD13E"/>
<path d="M69.383 94.606C66.4631 98.9963 62.0831 103.387 58.3289 107.359C55.2004 110.704 52.0719 113.84 47.9006 115.722C49.7777 115.722 51.8634 115.722 53.7405 115.722C52.6977 115.094 51.4463 114.467 50.1949 114.049C44.1464 111.749 38.7237 118.648 40.1837 124.084C41.6437 129.729 49.7778 132.447 53.7405 127.638C56.4519 124.502 55.8262 124.293 58.5375 121.366C60.8318 119.067 63.126 116.767 65.2117 114.258C70.2173 108.613 75.0143 102.76 72.9286 94.815C72.72 93.1425 70.2173 93.1425 69.383 94.606Z" fill="#FFD13E"/>
<path d="M34.9693 92.3069C35.595 92.9341 36.0121 93.3523 36.8464 93.5613C38.9321 93.9795 40.392 92.3069 39.9749 90.4253C39.7663 89.5891 39.3492 89.171 38.7235 88.5438C37.6807 87.4984 35.8036 87.4984 34.7607 88.5438C33.9265 89.38 33.9265 91.0525 34.9693 92.3069Z" fill="#FFD13E"/>
<path d="M140.921 75.7909C145.927 78.2997 151.767 78.9269 157.189 78.0906C160.318 77.6725 161.569 73.4912 160.109 70.9824C155.729 63.8742 146.969 65.9648 140.921 69.3099C138.418 70.5643 138.418 74.5365 140.921 75.7909Z" fill="#FFD13E"/>
<path d="M124.444 60.3194C123.402 60.5285 124.862 60.3194 125.07 60.3194C125.904 60.3194 126.739 60.3194 127.364 60.1104C127.573 60.1104 127.782 60.1104 127.99 59.9013C126.947 60.1104 127.364 60.1104 128.824 59.9013C129.867 59.4832 130.701 59.2741 131.327 58.4378C132.787 56.5563 133.204 54.0475 131.327 52.1659C128.199 49.0299 122.984 50.4934 120.482 53.6293C117.979 56.7653 120.273 60.9466 124.444 60.3194Z" fill="#FFD13E"/>
<path d="M82.9398 73.4916C80.0198 78.3001 77.517 83.1086 75.0142 87.9171C72.72 92.5165 69.1743 96.4888 67.7144 101.506C67.7144 101.924 68.1315 102.134 68.3401 101.924C75.0142 93.7709 78.977 83.3176 83.774 74.1187C83.774 73.4916 83.1483 73.0734 82.9398 73.4916Z" fill="#FFEB31"/>
<path d="M50.612 113.213C56.2433 110.495 59.3718 107.15 62.2917 101.715C65.2117 95.8609 69.3829 90.6343 71.8857 84.5714C71.8857 84.3623 71.6772 84.3623 71.4686 84.3623C67.923 88.9617 64.7945 94.1884 62.0832 99.415C61.0403 101.506 59.9975 103.596 58.7461 105.478C56.6604 108.823 53.1148 110.705 50.612 113.213C50.4034 113.213 50.4034 113.213 50.612 113.213Z" fill="#FFEB31"/>
<path d="M115.268 84.1525C123.819 92.097 133.83 97.9508 141.755 106.523C141.964 106.732 142.381 106.523 142.173 106.313C140.296 101.505 136.124 98.578 132.161 95.4421C126.739 91.2608 121.107 87.4976 115.685 83.5253C115.476 83.3163 115.059 83.7344 115.268 84.1525Z" fill="#FFEB31"/>
<path d="M88.5714 112.796C88.1542 119.277 85.6514 125.131 83.7743 131.194C81.6887 137.257 79.3944 143.738 74.1803 147.71C72.7203 148.755 73.5546 151.264 75.4317 150.846C79.8116 149.591 87.5285 144.574 92.117 147.919C92.5341 147.71 92.9513 146.874 93.3684 146.246C90.4485 143.319 90.8656 137.257 90.657 133.493C90.4485 128.894 89.8228 124.504 89.4057 119.904C89.4057 119.068 88.1542 118.65 87.7371 119.486C83.7743 126.385 84.8172 135.584 81.063 143.11C82.3144 143.529 83.5658 143.738 84.8172 144.156C85.4429 142.483 85.86 140.811 86.4857 139.138C85.4429 138.511 84.6086 138.093 83.5658 137.466C83.1486 138.511 82.7315 139.765 82.3144 140.811C81.4801 142.901 85.0257 144.365 85.86 142.274C86.0686 142.065 86.0686 141.647 86.2772 141.438C85.0258 141.02 83.7743 140.393 82.5229 139.974C82.3144 140.602 82.1058 141.229 81.8973 141.856C81.2716 144.365 84.6086 145.619 85.86 143.529C86.2771 142.901 86.6943 141.229 87.32 141.02C86.4857 140.602 85.6514 139.974 84.8172 139.556C85.2343 140.602 84.8172 141.856 84.8172 142.901C84.6086 145.201 87.9457 145.828 88.9885 143.947C89.1971 143.738 89.4056 143.319 89.6142 143.11C88.3628 142.483 86.9028 142.065 85.6514 141.438C85.6514 142.065 85.4429 142.692 85.4429 143.11C87.1114 143.11 88.7799 143.11 90.657 143.11C90.2399 140.602 90.0314 139.347 88.3628 137.466C87.32 136.211 85.4429 137.257 85.2343 138.72C85.0258 140.811 85.2343 142.483 85.4429 144.574C86.0686 147.919 91.9084 146.455 90.657 143.11C90.4485 142.483 90.2399 141.856 90.0313 141.438C89.4056 139.556 87.1114 139.347 86.0686 141.02C85.86 141.229 85.6514 141.647 85.4429 141.856C86.9028 142.274 88.1542 142.692 89.6142 142.901C89.6142 141.438 89.8228 139.765 89.1971 138.511C88.78 137.466 87.7371 136.629 86.6943 137.048C84.6086 137.884 83.7743 139.556 82.5229 141.438C83.7743 141.856 85.2343 142.274 86.4857 142.483C86.4857 141.856 86.6943 141.229 86.6943 140.602C86.9028 138.093 83.3572 138.093 82.7315 139.974C82.5229 140.184 82.5229 140.602 82.3144 140.811C83.5658 141.229 84.8172 141.438 86.0686 141.856C86.9029 139.974 86.9028 139.974 86.6943 137.884C86.6943 136.629 84.8172 135.375 83.7743 136.629C81.8972 138.929 80.8544 141.02 80.6458 143.947C80.4373 145.619 82.9401 146.665 83.9829 145.41C90.0314 138.093 86.4857 128.476 89.1971 120.113C88.5714 120.113 87.9457 119.904 87.32 119.904C87.7371 129.939 85.2343 139.138 91.4913 147.71C92.117 148.546 95.454 150.219 94.8283 148.964C93.1598 145.619 88.9885 142.274 84.8172 142.692C80.8544 143.11 76.6831 147.083 74.1803 147.71C74.5974 148.755 75.0146 149.801 75.4317 150.846C86.2771 144.156 88.9885 124.922 88.5714 113.214C88.7799 112.587 88.5714 112.587 88.5714 112.796Z" fill="#E9B00B"/>
<path d="M63.5432 143.736C64.586 149.172 67.9231 150.427 71.0516 150.636C73.9716 151.054 76.8915 148.754 78.56 145.827C78.7686 145.618 78.3514 145.2 78.1429 145.2C75.6401 146.036 73.5544 146.872 71.0516 146.872C68.3403 147.082 65.4203 145.827 63.5432 143.736Z" fill="#E9B00B"/>
<path d="M65.2116 146.664C67.2973 148.964 69.5915 150.218 72.72 150.427C75.0143 150.636 78.7684 149.382 79.1856 146.873C79.1856 146.455 78.977 145.828 78.5599 146.037C76.6828 146.246 75.0142 147.709 73.1371 148.127C70.6343 148.754 67.7144 148.127 65.4202 146.664C65.2116 146.246 65.0031 146.664 65.2116 146.664Z" fill="#E9B00B"/>
<path d="M72.7201 151.472C78.1428 150.845 79.6027 148.545 80.2284 145.409C80.2284 144.991 79.8113 144.573 79.3941 144.782C77.3085 145.827 75.8486 147.5 73.7629 148.127C71.4687 148.963 68.7572 148.127 66.6716 147.082C66.2544 146.873 66.0459 147.709 66.0459 147.918C66.0459 147.918 67.923 151.89 72.7201 151.472Z" fill="#E9B00B"/>
<path d="M71.2604 105.688C67.0891 109.87 64.1691 115.096 59.9978 119.696C57.9121 121.996 55.8265 124.086 53.3237 125.759C51.4466 127.013 49.1524 127.431 47.4838 129.104C47.2753 129.313 47.2753 129.731 47.4838 129.94C52.0723 133.494 58.1207 127.849 61.0406 124.713C66.2548 119.278 69.1748 113.006 71.6776 106.107C72.0947 105.688 71.469 105.479 71.2604 105.688Z" fill="#E9B00B"/>
<path d="M48.5264 130.774C50.8206 132.029 52.0719 132.447 53.1148 133.283C54.9919 134.747 57.4947 137.464 58.1204 137.674C58.7461 137.883 55.4091 133.91 56.0348 134.119C56.4519 134.328 57.0776 133.91 57.0776 133.283C57.0776 130.983 54.3662 129.311 52.6977 128.684C51.4463 128.266 50.1949 128.266 49.152 128.684C48.5263 128.893 43.9379 128.266 44.5636 128.684L48.5264 130.774Z" fill="#E9B00B"/>
<path d="M74.1801 100.46C68.7574 105.896 65.8375 113.422 61.6662 119.694C57.912 125.13 53.3235 129.939 57.2862 136.629C57.9119 137.465 58.9548 137.256 59.3719 136.42C60.6233 133.702 59.5805 129.729 60.6233 127.221C62.2919 123.876 64.7946 120.74 66.6717 117.395C69.8002 112.168 71.886 106.314 74.8059 100.878C75.223 100.46 74.5973 100.042 74.1801 100.46Z" fill="#E9B00B"/>
<path d="M52.2804 129.521C52.6975 130.567 53.5318 131.403 54.3661 132.239C55.2003 133.075 56.6603 133.912 57.9117 133.493C58.3289 133.284 58.5374 133.075 58.746 132.448C58.746 131.403 57.9117 130.148 57.0775 129.521C56.0346 128.685 54.9918 127.64 53.5318 127.64C52.6976 127.849 52.0718 128.685 52.2804 129.521Z" fill="#E9B00B"/>
<path d="M53.7407 131.403C54.5749 132.239 55.4092 132.867 56.0349 133.703C56.6606 134.539 57.0777 135.584 57.912 136.003C58.1206 136.003 58.3291 136.003 58.3291 135.794C58.7462 134.748 58.1205 133.703 57.4948 132.867C56.6606 131.821 55.6178 130.985 54.7835 130.149C53.9492 129.731 53.115 130.776 53.7407 131.403Z" fill="#E9B00B"/>
<path d="M53.1149 131.612C53.9492 132.658 54.5749 133.494 55.4092 134.539C56.2435 135.585 57.0777 136.839 58.3291 137.466C58.5377 137.675 58.9548 137.257 58.9548 137.048C58.3291 134.539 55.4092 132.867 53.5321 131.194C53.3235 131.194 52.9064 131.403 53.1149 131.612Z" fill="#E9B00B"/>
<path d="M59.9977 138.301C58.7463 136.001 59.372 133.283 58.7463 130.775C58.7463 130.356 58.1206 130.356 58.1206 130.775C57.2863 133.492 57.2863 136.628 59.3719 138.928C59.5805 139.346 60.2062 138.719 59.9977 138.301Z" fill="#E9B00B"/>
<path d="M63.5431 143.947C61.0403 138.303 60.4147 133.912 60.2061 130.567C60.2061 130.149 59.7889 130.149 59.3718 130.358C55.6176 132.867 55.6176 135.376 60.4146 140.393C60.8318 140.811 63.5431 143.947 63.5431 143.947Z" fill="#E9B00B"/>
<path d="M43.104 128.267C45.6068 130.776 49.5696 130.985 51.8638 128.476C52.0724 128.267 51.8638 127.64 51.4466 127.64C49.9867 127.64 48.7353 127.849 47.2753 127.849C45.8153 127.849 44.5639 127.64 43.3125 127.849C43.104 127.849 42.8954 128.058 43.104 128.267Z" fill="#E9B00B"/>
<path d="M145.927 115.094C145.301 115.931 145.093 117.185 145.093 118.23C144.884 119.485 144.884 120.53 145.51 121.575C145.927 122.412 147.387 122.412 148.013 121.575C148.638 120.53 148.43 119.485 148.43 118.23C148.221 117.185 148.221 115.931 147.596 115.094C146.97 114.467 146.344 114.467 145.927 115.094Z" fill="#E9B00B"/>
<path d="M147.804 116.767C147.387 117.812 146.97 118.648 146.761 119.694C146.553 120.53 145.927 121.784 146.344 122.62C146.553 122.83 146.761 123.039 146.97 122.83C148.013 122.411 148.221 121.366 148.638 120.53C149.056 119.484 149.264 118.23 149.473 117.185C149.681 116.139 148.221 115.721 147.804 116.767Z" fill="#E9B00B"/>
<path d="M146.97 129.101C148.013 127.22 148.43 125.338 148.638 123.039C148.847 120.739 149.264 117.812 148.221 115.721C148.013 115.512 147.595 115.512 147.387 115.721C146.553 117.394 146.97 119.275 146.97 121.157C146.97 123.875 146.97 126.593 146.97 129.101Z" fill="#E9B00B"/>
<path d="M142.173 109.449C139.461 107.15 135.081 103.177 132.161 101.296C131.953 101.087 131.327 101.714 131.744 102.341C134.039 105.059 138.418 109.449 140.921 112.167C141.547 112.794 142.173 113.631 142.798 114.467C143.215 115.721 143.841 116.976 144.258 118.021C145.093 120.53 146.553 123.248 146.553 126.802C146.553 130.774 146.97 129.729 147.178 129.311C147.387 128.893 147.804 128.056 148.012 127.638C148.638 126.802 149.89 122.621 150.307 119.694C151.141 118.648 151.141 118.23 152.184 117.394C153.435 116.349 156.564 114.676 156.981 114.467C157.398 113.631 148.43 114.885 142.173 109.449Z" fill="#E9B00B"/>
<path d="M88.1541 93.9796C86.9027 100.461 86.4855 106.942 86.0684 113.423C85.4427 120.949 83.7742 129.103 86.277 136.42C86.4855 137.256 87.7369 137.256 87.9455 136.42C90.0311 130.148 89.614 123.249 90.0311 116.768C90.4483 109.032 90.8654 101.506 89.1969 93.9796C88.9883 93.5615 88.1541 93.5615 88.1541 93.9796Z" fill="#E9B00B"/>
<path d="M113.599 68.8921C117.979 70.5646 122.15 70.5646 126.947 70.1464C131.119 69.5193 136.333 69.7283 140.296 68.0558C140.713 67.8467 140.921 67.2195 140.504 66.8014C137.584 65.3379 134.664 65.9651 131.744 66.5923C125.905 67.6377 120.065 69.5192 114.016 68.4739C113.391 68.2649 113.182 68.683 113.599 68.8921Z" fill="#E9B00B"/>
<path d="M103.796 58.2294C105.256 57.8113 106.091 56.975 107.134 55.9297C107.759 55.0934 109.428 53.4209 108.802 52.3756C107.968 51.1212 106.299 52.7937 105.674 53.4209C104.839 54.6753 104.005 55.9297 102.962 56.975C102.336 57.3931 102.962 58.6475 103.796 58.2294Z" fill="#E9B00B"/>
<path d="M55.2008 81.2269C52.9066 83.5266 49.9867 84.9901 47.6925 87.2898C45.3983 89.7986 43.7297 93.1436 42.0612 96.0705C38.9327 101.506 37.0556 106.315 36.6384 112.587C36.6384 113.005 37.2641 113.214 37.4727 112.796C40.184 107.778 42.2698 102.761 45.3982 97.9521C48.9439 92.7255 52.6981 87.0807 55.8266 81.645C56.2437 81.2269 55.618 80.8088 55.2008 81.2269Z" fill="#E9B00B"/>
<g opacity="0.6" style="mix-blend-mode:soft-light">
<path d="M139.67 125.131C139.044 127.012 136.959 128.685 135.499 129.73C134.247 130.566 131.119 133.075 133.621 134.539C135.916 135.793 138.627 133.911 139.878 132.239C140.713 131.403 141.13 130.357 141.547 129.103C141.964 127.849 141.756 126.594 141.964 125.34C142.173 124.085 140.087 124.085 139.67 125.131Z" fill="white"/>
</g>
<g opacity="0.6" style="mix-blend-mode:soft-light">
<path d="M103.588 113.004C104.839 115.93 105.048 119.276 105.674 122.411C106.091 125.129 106.091 128.056 108.177 129.938C108.594 130.356 109.636 130.147 109.845 129.52C110.262 126.802 109.219 124.084 108.802 121.575C107.968 118.23 107.134 115.303 105.465 112.376C104.631 111.54 103.379 112.167 103.588 113.004Z" fill="white"/>
</g>
<g opacity="0.6" style="mix-blend-mode:soft-light">
<path d="M76.057 130.358C73.9714 133.285 71.8858 136.211 70.6344 139.766C69.383 143.529 75.0142 144.992 76.4742 141.438C77.7256 138.302 78.3513 134.957 79.6027 131.821C80.2284 129.73 77.0999 128.685 76.057 130.358Z" fill="white"/>
</g>
<mask id="mask3_9002_21024" style="mask-type:luminance" maskUnits="userSpaceOnUse" x="79" y="54" width="26" height="19">
<path d="M97.1225 58.4388C98.3739 59.066 99.8338 59.066 101.085 59.4841C103.797 60.5294 105.465 63.6654 104.631 66.3833C104.005 68.4739 102.337 69.9374 100.46 70.9827C98.5825 71.819 96.4968 72.2371 94.4111 72.4462C92.7426 72.6552 90.8655 72.8643 89.197 72.8643C86.0685 72.8643 83.1485 71.819 80.4372 70.3555C78.5601 68.683 78.9772 65.547 80.4372 63.4563C81.6886 61.3657 83.7742 59.9022 85.4427 58.0206C87.1113 56.3481 88.7798 53.8393 91.0741 54.0484C93.5769 54.4665 94.8282 57.3934 97.1225 58.4388Z" fill="white"/>
</mask>
<g mask="url(#mask3_9002_21024)">
<g opacity="0.18">
<path d="M87.1116 49.0292C80.646 55.3012 73.1377 67.6361 78.7689 76.4168C82.3146 82.0616 92.7429 80.3891 92.1172 72.8627C91.9086 70.772 90.6572 56.1375 91.2829 54.2559C92.9515 49.4474 95.2457 51.538 90.8658 48.6111C89.6144 47.7748 87.9459 48.193 87.1116 49.0292Z" fill="#97733F"/>
</g>
</g>
<mask id="mask4_9002_21024" style="mask-type:luminance" maskUnits="userSpaceOnUse" x="79" y="54" width="26" height="19">
<path d="M97.1225 58.4388C98.3739 59.066 99.8338 59.066 101.085 59.4841C103.797 60.5294 105.465 63.6654 104.631 66.3833C104.005 68.4739 102.337 69.9374 100.46 70.9827C98.5825 71.819 96.4968 72.2371 94.4111 72.4462C92.7426 72.6552 90.8655 72.8643 89.197 72.8643C86.0685 72.8643 83.1485 71.819 80.4372 70.3555C78.5601 68.683 78.9772 65.547 80.4372 63.4563C81.6886 61.3657 83.7742 59.9022 85.4427 58.0206C87.1113 56.3481 88.7798 53.8393 91.0741 54.0484C93.5769 54.4665 94.8282 57.3934 97.1225 58.4388Z" fill="white"/>
</mask>
<g mask="url(#mask4_9002_21024)">
<g opacity="0.14">
<path d="M87.1114 48.4042C79.1859 52.5855 68.3404 62.2025 71.2603 72.2376C72.9289 78.5096 83.5658 79.973 85.0257 72.6557C85.4429 70.7742 88.3628 56.1396 89.6142 54.4671C92.5341 50.4948 94.2026 53.0036 90.8656 49.0314C90.0313 47.777 88.3628 47.777 87.1114 48.4042Z" fill="#97733F"/>
</g>
</g>
<mask id="mask5_9002_21024" style="mask-type:luminance" maskUnits="userSpaceOnUse" x="79" y="54" width="26" height="19">
<path d="M97.1225 58.4388C98.3739 59.066 99.8338 59.066 101.085 59.4841C103.797 60.5294 105.465 63.6654 104.631 66.3833C104.005 68.4739 102.337 69.9374 100.46 70.9827C98.5825 71.819 96.4968 72.2371 94.4111 72.4462C92.7426 72.6552 90.8655 72.8643 89.197 72.8643C86.0685 72.8643 83.1485 71.819 80.4372 70.3555C78.5601 68.683 78.9772 65.547 80.4372 63.4563C81.6886 61.3657 83.7742 59.9022 85.4427 58.0206C87.1113 56.3481 88.7798 53.8393 91.0741 54.0484C93.5769 54.4665 94.8282 57.3934 97.1225 58.4388Z" fill="white"/>
</mask>
<g mask="url(#mask5_9002_21024)">
<g opacity="0.25">
<path d="M86.9028 48.1957C78.3515 51.1226 66.4632 59.2762 67.9232 69.7294C68.7574 76.2105 79.1858 78.9283 81.48 71.8201C82.1057 69.9385 86.9028 55.9311 88.3627 54.4677C91.6998 50.9136 93.1598 53.6314 90.2398 49.241C89.8227 47.9866 88.1542 47.7776 86.9028 48.1957Z" fill="#97733F"/>
</g>
</g>
<g opacity="0.6" style="mix-blend-mode:soft-light">
<path d="M91.4915 58.2295C91.4915 60.3201 92.7428 61.7836 94.2028 62.8289C94.8285 63.247 95.6628 63.8742 96.2885 64.5014C96.7056 65.1286 96.497 66.1739 96.497 66.8011C96.497 68.6827 97.957 70.1462 99.8341 70.1462C102.128 70.1462 103.38 68.0555 102.963 65.9649C102.545 63.6652 101.294 61.5745 99.2084 60.3201C97.3313 59.0657 94.8285 58.6476 92.9514 57.3932C92.3257 56.9751 91.4915 57.6023 91.4915 58.2295Z" fill="white"/>
</g>
</svg>
