<svg width="200" height="200" viewBox="0 0 200 200" fill="none" xmlns="http://www.w3.org/2000/svg">
<path d="M44.1558 89.4629C34.7917 89.4629 27.2153 90.4812 27.2153 104.653C27.2153 113.987 34.7917 120.522 44.1558 120.522C53.5198 120.522 61.0962 113.987 61.0962 104.653C61.0962 92.2633 53.5198 89.4629 44.1558 89.4629Z" fill="#CC2929"/>
<g opacity="0.3" style="mix-blend-mode:soft-light">
<path d="M51.7321 114.072C32.9189 121.794 29.2584 104.568 27.641 99.3064C27.3856 100.834 27.2153 102.616 27.2153 104.653C27.2153 113.987 34.7917 120.521 44.1558 120.521C53.5198 120.521 61.0962 113.987 61.0962 104.653C61.0962 99.561 59.8193 96.0818 57.6911 93.7905C58.7978 97.4395 64.6716 108.811 51.7321 114.072Z" fill="#5E1313"/>
</g>
<g opacity="0.3" style="mix-blend-mode:soft-light">
<path d="M42.4534 92.6027C42.4534 92.6027 33.6001 91.3298 33.6001 97.6943C33.6001 104.059 47.3057 107.962 48.3272 102.786C49.2636 97.6094 44.1559 92.6876 42.4534 92.6027Z" fill="white"/>
</g>
<path opacity="0.3" d="M44.8368 90.9054C46.965 90.6508 47.646 89.5476 47.646 89.5476C47.646 89.5476 41.6019 89.5476 40.9209 89.6325C41.006 89.5476 42.7086 91.0751 44.8368 90.9054Z" fill="#5E1313"/>
<path d="M94.7218 44.487C76.9301 51.5304 52.243 58.5737 43.6451 89.4628C43.56 89.8023 43.9856 90.1417 44.3261 90.1417C44.7518 90.1417 45.0072 89.8023 45.0072 89.4628C45.0072 89.2083 49.5189 60.1861 95.4028 45.675C95.7433 45.5901 95.8285 45.081 95.6582 44.7415C95.488 44.4021 95.0623 44.3172 94.7218 44.487Z" fill="#27701B"/>
<path d="M94.807 44.487C94.7218 44.7416 94.6367 45.5053 95.488 45.6751C95.8285 45.5053 95.9136 45.081 95.7434 44.7416C95.488 44.487 95.0623 44.3173 94.807 44.487Z" fill="#62BA54"/>
<g opacity="0.3" style="mix-blend-mode:hard-light">
<path d="M44.1559 120.522C53.52 120.522 61.0963 113.987 61.0963 104.653C61.0963 99.0519 59.4789 95.4029 56.9251 93.0269C51.4769 95.4878 38.7077 103.125 44.1559 120.522Z" fill="#5E1313"/>
</g>
<path d="M145.373 91.3301C134.051 91.3301 124.857 92.603 124.857 109.745C124.857 121.031 134.051 128.923 145.373 128.923C156.695 128.923 165.889 121.031 165.889 109.745C165.889 94.7245 156.695 91.3301 145.373 91.3301Z" fill="#CC2929"/>
<g opacity="0.3" style="mix-blend-mode:soft-light">
<path d="M154.567 121.116C131.753 130.451 127.411 109.66 125.453 103.211C125.113 105.077 124.857 107.199 124.857 109.66C124.857 120.946 134.051 128.838 145.373 128.838C156.695 128.838 165.889 120.946 165.889 109.66C165.889 103.465 164.356 99.307 161.718 96.5066C163.08 101.004 170.23 114.667 154.567 121.116Z" fill="#5E1313"/>
</g>
<g opacity="0.3" style="mix-blend-mode:soft-light">
<path d="M143.245 95.0634C143.245 95.0634 132.519 93.5359 132.519 101.258C132.519 108.98 149.119 113.733 150.311 107.453C151.587 101.173 145.373 95.2331 143.245 95.0634Z" fill="white"/>
</g>
<path opacity="0.3" d="M146.139 93.0273C148.693 92.7727 149.544 91.3301 149.544 91.3301C149.544 91.3301 142.223 91.3301 141.372 91.4149C141.457 91.4149 143.585 93.2819 146.139 93.0273Z" fill="#5E1313"/>
<path d="M97.4457 44.4019C96.935 44.4019 96.5093 44.3171 96.254 44.7414C95.9986 45.1657 96.0837 45.9294 96.5945 45.9294C137.03 45.0808 144.266 91.075 144.266 91.4145C144.266 91.9236 144.607 92.2631 145.117 92.2631C145.628 92.2631 145.969 91.9236 145.969 91.4145C145.969 90.0567 139.073 44.4019 97.4457 44.4019Z" fill="#27701B"/>
<path d="M96.2541 44.6568C95.9987 45.0811 96.169 45.5054 96.5095 45.7599C97.6162 45.5054 97.4459 44.5719 97.3608 44.3173C96.9352 44.1476 96.5095 44.3173 96.2541 44.6568Z" fill="#62BA54"/>
<g opacity="0.3" style="mix-blend-mode:hard-light">
<path d="M124.942 106.944C124.857 107.792 124.857 108.726 124.857 109.744C124.857 118.655 130.561 125.443 138.563 127.904C138.563 127.735 138.648 127.565 138.648 127.395C141.712 113.818 124.942 106.944 124.942 106.944Z" fill="#5E1313"/>
</g>
<path d="M72.0779 94.9788C58.202 94.9788 47.0503 96.5062 47.0503 117.467C47.0503 131.299 58.2872 140.888 72.0779 140.888C85.9537 140.888 97.1055 131.299 97.1055 117.467C97.1906 99.1369 85.9537 94.9788 72.0779 94.9788Z" fill="#CC2929"/>
<g opacity="0.3" style="mix-blend-mode:soft-light">
<path d="M77.7815 131.978C58.7129 140.633 49.6894 117.382 47.3058 109.574C46.8801 111.866 46.6248 114.496 46.6248 117.466C46.6248 131.299 57.8616 140.888 71.6523 140.888C85.5282 140.888 96.6799 131.299 96.6799 117.466C96.6799 109.914 94.8071 104.822 91.5722 101.343C93.3599 106.774 96.5948 123.322 77.7815 131.978Z" fill="#5E1313"/>
</g>
<g opacity="0.3" style="mix-blend-mode:hard-light">
<path d="M96.1688 110.338C96.1688 110.338 74.972 110.848 83.4848 138.512C91.5719 134.863 97.1904 127.226 97.1904 117.467C97.1904 114.836 96.935 112.545 96.5094 110.423L96.1688 110.338Z" fill="#5E1313"/>
</g>
<g opacity="0.3" style="mix-blend-mode:soft-light">
<path d="M69.1834 99.5611C69.1834 99.5611 56.0737 97.6942 56.0737 107.114C56.0737 116.533 76.3342 122.388 77.8665 114.666C79.3136 106.944 71.7372 99.7308 69.1834 99.5611Z" fill="white"/>
</g>
<path opacity="0.3" d="M72.7587 97.0154C75.9084 96.676 76.9299 94.9788 76.9299 94.9788C76.9299 94.9788 67.9915 94.9788 66.97 95.0636C66.97 95.0636 69.6089 97.3548 72.7587 97.0154Z" fill="#5E1313"/>
<path d="M94.4664 44.2324C70.886 57.1312 70.886 94.4696 70.886 95.9971C70.886 96.5911 71.3968 97.0154 71.9075 97.0154C72.5034 97.0154 72.9291 96.5063 72.9291 95.9971C72.9291 95.6577 72.9291 58.3192 95.4028 46.0145C95.9136 45.7599 96.0838 45.081 95.8284 44.5718C95.6582 44.1475 94.9772 43.9778 94.4664 44.2324Z" fill="#27701B"/>
<path d="M94.5517 44.2327C94.4666 44.5721 94.2112 45.7602 95.5732 46.0147C95.9989 45.7602 96.1691 45.1661 95.9137 44.657C95.6583 44.2327 95.0624 43.9781 94.5517 44.2327Z" fill="#62BA54"/>
<path d="M112.003 110.084C98.1271 110.084 86.9753 111.611 86.9753 132.572C86.9753 146.404 98.2122 155.993 112.003 155.993C125.879 155.993 137.031 146.404 137.031 132.572C137.031 114.242 125.794 110.084 112.003 110.084Z" fill="#CC2929"/>
<g opacity="0.3" style="mix-blend-mode:soft-light">
<path d="M118.983 148.016C99.9147 156.757 86.6348 136.475 87.5712 124.68C87.1455 126.971 86.8901 129.602 86.8901 132.572C86.8901 146.404 98.127 155.993 111.918 155.993C125.794 155.993 136.945 146.404 136.945 132.572C136.945 125.019 135.072 119.928 131.838 116.448C133.625 121.88 137.882 139.446 118.983 148.016Z" fill="#5E1313"/>
</g>
<g opacity="0.3" style="mix-blend-mode:soft-light">
<path d="M109.449 114.666C109.449 114.666 96.3394 112.799 96.3394 122.219C96.3394 131.638 116.6 137.493 118.132 129.771C119.579 122.049 112.003 114.836 109.449 114.666Z" fill="white"/>
</g>
<path opacity="0.3" d="M113.024 112.121C116.174 111.781 117.196 110.084 117.196 110.084C117.196 110.084 108.257 110.084 107.236 110.169C107.321 110.169 109.875 112.46 113.024 112.121Z" fill="#5E1313"/>
<path d="M96.7648 44.2324C96.254 43.9779 95.6581 44.1476 95.3176 44.6567C95.0622 45.1659 95.3176 45.7599 95.8284 46.0994C118.302 58.4041 110.641 109.744 110.641 110.084C110.641 110.678 111.066 111.102 111.662 111.102C112.258 111.102 112.684 110.678 112.684 110.084C112.769 108.556 120.345 57.1312 96.7648 44.2324Z" fill="#27701B"/>
<path d="M95.4028 44.6567C95.1474 45.1659 95.3176 45.7599 95.7433 46.0145C97.0202 45.7599 96.8499 44.5719 96.7648 44.2324C96.254 43.9779 95.6582 44.1476 95.4028 44.6567Z" fill="#62BA54"/>
<g opacity="0.3" style="mix-blend-mode:soft-light">
<path d="M103.575 125.868C106.067 125.868 108.087 123.778 108.087 121.201C108.087 118.623 106.067 116.533 103.575 116.533C101.083 116.533 99.0635 118.623 99.0635 121.201C99.0635 123.778 101.083 125.868 103.575 125.868Z" fill="white"/>
</g>
<g opacity="0.3" style="mix-blend-mode:soft-light">
<path d="M126.985 127.565C129.477 127.565 131.497 125.475 131.497 122.898C131.497 120.32 129.477 118.23 126.985 118.23C124.493 118.23 122.473 120.32 122.473 122.898C122.473 125.475 124.493 127.565 126.985 127.565Z" fill="white"/>
</g>
<path d="M85.5278 46.863L85.8683 47.8814C85.8683 47.8814 92.4232 46.863 93.615 46.6933C94.7216 46.4387 94.8068 44.7415 94.4663 44.1475C94.3811 44.0627 88.0817 46.6933 85.5278 46.863Z" fill="#27701B"/>
<path d="M68.3321 39.0559C34.962 40.0742 17.0001 76.3943 17.0001 76.3943C29.2585 71.2179 35.8984 72.9999 35.8984 72.9999C72.929 76.7338 84.251 57.3857 84.251 57.3857C86.2941 54.5853 101.617 37.9527 68.3321 39.0559Z" fill="#27701B"/>
<path d="M68.3321 39.0559C34.962 40.0743 17 76.3944 17 76.3944C29.2584 71.2179 35.8984 73 35.8984 73C37.4307 73.1697 38.8779 73.2546 40.325 73.3395C39.0481 73.2546 37.7712 73.0849 36.4091 72.9152C36.4091 72.9152 29.8543 70.9634 17.4256 75.8004C17.4256 75.8004 36.4091 39.9894 69.6941 39.8197C80.0797 39.8197 85.6982 41.3472 88.5074 43.5535C86.3792 40.6683 80.6756 38.6316 68.3321 39.0559Z" fill="#14A51A"/>
<path d="M88.252 45.7595C88.252 45.7595 34.3661 52.8878 17 76.394C29.2584 71.2176 35.8984 72.9996 35.8984 72.9996C72.929 76.7335 84.251 57.3854 84.251 57.3854C85.3576 55.8579 90.2951 50.342 89.4438 45.7595H88.252Z" fill="#2B540A"/>
<path d="M69.8644 63.5801C57.6911 69.8598 40.325 69.2657 40.1548 69.2657V69.69C40.325 69.69 57.7762 70.3689 70.0347 64.0044C82.3782 57.6399 85.4428 46.0989 85.4428 46.0141L85.0171 45.9292C84.932 46.0141 81.9525 57.3005 69.8644 63.5801Z" fill="#7AB46A"/>
<path d="M57.521 61.0344L57.6061 61.4587C74.7168 58.5735 77.2707 47.6265 77.3558 47.5416L76.845 47.4568C76.845 47.5416 74.2912 58.1492 57.521 61.0344Z" fill="#7AB46A"/>
<path d="M48.0718 47.5415L48.242 47.9658C61.1815 43.6379 66.9702 49.9176 67.0553 50.0024L67.3958 49.663C67.3107 49.5781 61.2666 43.1288 48.0718 47.5415Z" fill="#7AB46A"/>
<path d="M35.3879 58.9977L35.6433 59.3371C51.8176 47.287 59.9899 52.8029 60.075 52.8878L60.4155 52.5483C60.075 52.2937 51.8176 46.7778 35.3879 58.9977Z" fill="#7AB46A"/>
<path d="M31.0461 69.3511L31.2164 69.7754C42.5384 64.005 49.2635 55.7735 49.2635 55.6887L48.923 55.4341C48.8379 55.4341 42.283 63.5807 31.0461 69.3511Z" fill="#7AB46A"/>
<path d="M63.5649 43.6384L63.6501 44.0627C72.7587 41.6866 80.1649 46.948 80.25 46.948L80.5054 46.6085C80.4202 46.6085 72.929 41.1775 63.5649 43.6384Z" fill="#7AB46A"/>
<path d="M88.9332 45.5054C33.0894 53.7368 17.2556 76.055 17.2556 76.055C45.6032 50.4273 89.6143 46.4388 89.6143 46.4388C89.6143 46.354 89.444 45.5902 89.444 45.5902L88.9332 45.5054Z" fill="#7AB46A"/>
<g opacity="0.3" style="mix-blend-mode:soft-light">
<path d="M69.6944 115.769C72.1862 115.769 74.2062 113.68 74.2062 111.102C74.2062 108.524 72.1862 106.435 69.6944 106.435C67.2026 106.435 65.1826 108.524 65.1826 111.102C65.1826 113.68 67.2026 115.769 69.6944 115.769Z" fill="white"/>
</g>
<g opacity="0.3" style="mix-blend-mode:soft-light">
<path d="M69.6944 130.535C72.1862 130.535 74.2062 128.445 74.2062 125.868C74.2062 123.29 72.1862 121.2 69.6944 121.2C67.2026 121.2 65.1826 123.29 65.1826 125.868C65.1826 128.445 67.2026 130.535 69.6944 130.535Z" fill="white"/>
</g>
<g opacity="0.3" style="mix-blend-mode:soft-light">
<path d="M42.0277 103.465C43.5792 103.465 44.8369 102.135 44.8369 100.495C44.8369 98.8542 43.5792 97.5244 42.0277 97.5244C40.4762 97.5244 39.2185 98.8542 39.2185 100.495C39.2185 102.135 40.4762 103.465 42.0277 103.465Z" fill="white"/>
</g>
<g opacity="0.3" style="mix-blend-mode:soft-light">
<path d="M40.1547 113.308C41.7062 113.308 42.9639 111.978 42.9639 110.338C42.9639 108.698 41.7062 107.368 40.1547 107.368C38.6032 107.368 37.3455 108.698 37.3455 110.338C37.3455 111.978 38.6032 113.308 40.1547 113.308Z" fill="white"/>
</g>
<g opacity="0.3" style="mix-blend-mode:soft-light">
<path d="M138.648 104.314C140.246 104.314 141.542 102.984 141.542 101.343C141.542 99.7031 140.246 98.3733 138.648 98.3733C137.049 98.3733 135.753 99.7031 135.753 101.343C135.753 102.984 137.049 104.314 138.648 104.314Z" fill="white"/>
</g>
<g opacity="0.3" style="mix-blend-mode:soft-light">
<path d="M157.206 106.519C158.804 106.519 160.1 105.19 160.1 103.549C160.1 101.909 158.804 100.579 157.206 100.579C155.607 100.579 154.311 101.909 154.311 103.549C154.311 105.19 155.607 106.519 157.206 106.519Z" fill="white"/>
</g>
<path d="M163.76 120.352C147.501 116.024 140.01 128.074 140.01 139.87C140.01 151.665 146.565 161 158.227 161C169.89 161 182.999 151.665 182.999 139.87C183.084 128.074 175.082 123.322 163.76 120.352Z" fill="#AB0E0E"/>
<path d="M163.25 122.304C161.207 121.795 159.249 121.455 157.376 121.455C146.82 121.455 142.138 130.705 142.138 139.785C142.138 151.326 148.523 158.794 158.312 158.794C168.783 158.794 181.042 150.478 181.042 139.785C180.956 130.62 176.019 125.698 163.25 122.304Z" fill="#AF0E0E"/>
<g opacity="0.3" style="mix-blend-mode:soft-light">
<path d="M164.101 126.123C156.354 124.68 149.033 129.602 147.756 137.07C146.48 144.537 151.757 151.666 159.504 153.108C167.251 154.551 174.572 149.629 175.849 142.161C177.126 134.694 171.848 127.565 164.101 126.123Z" fill="#5E1313"/>
</g>
<path opacity="0.3" d="M166.655 128.838C166.655 128.838 161.122 124.764 157.035 128.328C152.949 131.893 146.99 141.652 153.715 147.167C160.441 152.683 168.017 150.647 169.719 146.828C171.422 143.009 173.635 131.638 166.655 128.838Z" fill="#5E1313"/>
<path d="M166.229 129.771C166.229 129.771 161.206 126.122 157.546 129.262C153.886 132.487 148.522 141.312 154.567 146.234C160.611 151.241 167.506 149.374 169.038 145.98C170.485 142.585 172.528 132.317 166.229 129.771Z" fill="#E04C4C"/>
<g opacity="0.2" style="mix-blend-mode:soft-light">
<path d="M140.095 139.87C140.095 144.367 141.031 148.441 142.819 151.835C143.585 150.053 142.223 138.767 146.309 130.026C150.31 121.37 164.271 120.607 164.612 120.607C164.356 120.522 164.101 120.437 163.846 120.352C147.501 116.024 140.095 128.074 140.095 139.87Z" fill="white"/>
</g>
<path opacity="0.3" d="M160.015 140.633C158.908 141.567 156.184 147.762 156.184 147.762L157.376 148.356C157.376 148.356 160.526 142.161 160.951 141.397C161.377 140.718 161.207 139.785 160.015 140.633Z" fill="#5E1313"/>
</svg>
