<svg width="200" height="200" viewBox="0 0 200 200" fill="none" xmlns="http://www.w3.org/2000/svg">
<path d="M63.0205 58.0139C62.6841 44.3649 75.8026 41.0358 85.5574 49.0255C91.2757 53.6862 94.9758 56.3494 104.731 55.3507C114.485 54.6849 119.867 65.3378 111.122 75.3249C105.067 81.983 92.6212 84.3133 81.5209 81.3172C70.757 78.654 63.0205 68.6669 63.0205 58.0139Z" fill="#7C1414"/>
<path opacity="0.4" d="M104.731 55.3507C94.9758 56.0165 91.2757 53.6862 85.5574 49.0255C75.8026 41.0358 62.6841 44.3649 63.0205 58.0139C63.0205 68.6669 71.0934 78.654 81.5209 81.6501C92.6212 84.6463 105.067 82.3159 111.122 75.6579C119.867 65.6707 114.822 54.6849 104.731 55.3507ZM101.367 66.3365C90.9393 64.672 88.9211 66.3365 85.8938 69.6656C82.8664 72.9946 74.1208 71.663 73.1116 65.3378C71.4298 54.6849 66.7206 55.3507 67.3933 50.6901C68.4024 44.032 81.1846 43.6991 85.221 53.0204C88.9211 61.6759 93.9667 58.6798 99.3486 57.3481C104.731 56.0165 110.112 55.3507 112.803 59.0127C115.494 63.0075 111.794 68.0011 101.367 66.3365Z" fill="#7C1414"/>
<path d="M88.2483 53.0205C89.9302 54.3521 91.9484 55.6838 94.9757 56.0167C98.0031 56.6825 93.6302 58.0141 90.6029 57.0154C86.5664 56.0167 86.9028 52.0218 88.2483 53.0205Z" fill="#F9DDC8"/>
<g opacity="0.3" style="mix-blend-mode:soft-light">
<path d="M83.5391 52.6874C80.1754 46.0293 71.7661 45.6964 69.0752 48.6925C66.7206 51.0229 68.4024 53.6861 70.757 52.0216C73.1116 50.3571 78.4936 51.3558 81.1845 53.3532C83.8755 55.6835 84.2119 54.019 83.5391 52.6874Z" fill="white"/>
</g>
<path d="M25.6833 119.269C21.9832 107.95 33.7562 96.2985 50.2384 103.622C66.7206 110.946 76.8117 134.915 65.0387 143.238C53.2657 151.561 45.1928 146.9 39.4745 136.913C33.7562 127.592 27.7015 124.928 25.6833 119.269Z" fill="#7C1414"/>
<path opacity="0.4" d="M50.2384 103.622C33.7562 96.2985 21.9832 107.95 25.6833 119.269C27.7015 124.928 33.7562 127.592 39.4745 137.246C45.1928 146.9 52.9293 151.561 65.0387 143.571C76.8117 134.915 66.7206 111.279 50.2384 103.622ZM58.984 143.238C54.6112 145.901 47.5474 145.901 44.5201 141.573C40.4836 135.914 45.1928 133.917 41.4927 127.924C36.7835 120.933 28.3742 124.928 26.6924 117.604C24.6741 108.283 30.7288 103.955 35.1017 103.955C40.1472 103.955 46.8747 106.286 47.5474 117.271C47.8838 123.264 52.593 128.257 61.0023 129.589C66.0478 130.921 64.366 139.909 58.984 143.238Z" fill="#7C1414"/>
<path d="M33.4198 127.258C35.7744 128.923 36.7835 130.254 38.8017 134.249C40.82 138.244 41.8291 132.252 39.1381 128.59C36.1108 124.595 31.0652 125.594 33.4198 127.258Z" fill="#F9DDC8"/>
<g opacity="0.3" style="mix-blend-mode:soft-light">
<path d="M31.4016 120.933C26.356 118.935 26.0196 111.944 29.3833 107.617C32.0743 104.288 37.7926 103.955 35.438 106.285C33.7562 107.949 29.3833 112.277 32.7471 117.937C33.7562 120.267 33.0834 121.931 31.4016 120.933Z" fill="white"/>
</g>
<path d="M84.5482 128.923C70.4206 128.923 67.0569 115.607 75.4662 105.953C80.5118 100.293 82.8664 96.6313 82.53 86.6442C81.8573 76.6571 93.2939 71.3307 103.385 80.652C110.112 86.6442 112.467 99.6275 109.103 110.613C105.74 121.266 95.3121 128.923 84.5482 128.923Z" fill="#6D1212"/>
<path d="M79.5027 103.622C80.8482 101.957 82.1937 99.9597 82.8664 96.9635C83.5391 93.9674 84.8846 98.2951 83.8755 101.291C82.1936 104.953 78.1572 104.953 79.5027 103.622Z" fill="#F9DDC8"/>
<path opacity="0.3" d="M103.385 80.6514C93.2939 71.663 81.8573 76.6565 82.53 86.6436C83.2028 96.6308 80.5118 100.293 75.4662 105.952C67.0569 115.606 70.4206 128.922 84.5482 128.922C95.3121 128.922 105.74 121.266 109.103 110.28C112.467 99.6269 110.112 86.6437 103.385 80.6514ZM99.3486 107.284C94.303 108.615 90.2666 111.944 88.2483 115.273C85.8937 118.602 83.5391 126.592 80.5118 124.595C78.1572 122.93 82.8664 117.937 83.8755 111.944C84.8846 105.952 83.8755 106.951 85.8937 104.288C87.912 101.624 89.9302 98.6282 86.9028 93.3017C83.5391 87.3094 85.8937 83.9804 87.5756 86.9765C89.2574 90.3056 93.6303 95.2991 99.3486 97.9624C105.067 100.626 104.394 105.952 99.3486 107.284Z" fill="#6D1212"/>
<path d="M81.8573 103.621C83.2027 101.956 84.5482 99.9589 85.221 96.9628C85.8937 93.9666 87.2392 98.2944 86.2301 101.291C84.8846 104.952 80.5118 104.952 81.8573 103.621Z" fill="#F9DDC8"/>
<path d="M147.45 127.924C133.322 133.251 124.913 121.266 129.958 108.283C132.649 100.959 133.995 95.9654 129.622 86.3112C125.249 76.657 134.668 67.3357 148.122 72.6621C157.204 76.3241 164.268 88.3086 165.277 100.293C165.95 112.278 158.55 123.929 147.45 127.924Z" fill="#6D1212"/>
<path opacity="0.4" d="M164.941 100.293C163.932 87.9757 156.868 75.9912 147.786 72.6621C134.331 67.3357 124.913 76.657 129.286 86.3112C133.658 95.9654 132.649 100.626 129.622 108.283C124.913 121.266 133.322 133.251 147.113 127.924C158.55 123.929 165.95 112.278 164.941 100.293ZM158.886 107.617C153.841 108.949 151.823 100.959 140.386 98.6287C136.686 97.9628 136.349 94.9667 139.377 90.9719C142.068 87.3099 142.068 84.6467 144.422 83.3151C147.45 81.6505 156.532 81.6505 160.905 89.9731C163.259 95.6325 163.932 106.285 158.886 107.617Z" fill="#6D1212"/>
<path d="M133.322 103.956C134.331 101.626 134.668 99.2952 133.995 95.9662C133.322 92.6372 136.686 96.632 136.686 99.961C136.686 104.622 132.649 105.953 133.322 103.956Z" fill="#F9DDC8"/>
<g opacity="0.3" style="mix-blend-mode:soft-light">
<path d="M153.504 87.3101C158.214 91.9708 159.559 101.292 158.214 104.288C156.868 107.617 163.259 103.955 160.905 93.3024C158.886 85.3127 150.477 84.314 153.504 87.3101Z" fill="white"/>
</g>
<path d="M123.231 131.251C111.121 137.243 102.376 127.256 105.403 115.272C107.085 108.281 107.758 103.953 103.049 95.6305C98.003 87.3079 105.739 77.9866 118.185 81.6485C126.595 83.9788 134.331 93.9659 136.349 104.952C138.031 115.605 132.649 126.591 123.231 131.251Z" fill="#7C1414"/>
<path opacity="0.3" d="M136.349 104.952C134.331 93.9659 126.931 83.9788 118.185 81.6485C105.403 77.9866 98.0031 87.3079 103.049 95.6305C108.094 103.953 107.421 108.281 105.403 115.272C102.376 127.256 111.122 137.243 123.231 131.251C132.649 126.591 138.031 115.605 136.349 104.952ZM124.913 103.953C119.867 109.612 122.558 117.602 124.576 122.929C126.595 128.255 123.231 130.252 120.54 128.921C117.849 127.589 118.522 123.594 116.84 118.934C114.149 111.277 109.44 111.277 110.112 109.612C110.785 107.948 111.794 104.619 109.44 102.289C108.094 100.624 107.085 99.6253 109.44 99.9582C111.794 100.291 117.176 100.291 121.213 99.2924C125.249 98.2937 129.286 96.6292 129.958 98.6266C130.631 99.9582 128.277 100.291 124.913 103.953Z" fill="#7C1414"/>
<path d="M107.085 103.621C107.758 105.618 107.758 106.95 107.085 109.946C106.412 112.942 109.776 110.612 109.776 106.95C110.112 102.622 106.412 101.291 107.085 103.621Z" fill="#F9DDC8"/>
<path d="M55.6203 47.6935C68.7388 49.358 74.4571 68.3335 70.4207 83.98C66.0478 100.625 47.211 112.61 35.438 100.625C30.0561 94.9658 31.0652 85.3116 35.438 79.3194C39.8109 72.9942 39.1381 68.0006 40.1472 60.6767C40.82 53.3529 46.2019 46.6948 55.6203 47.6935Z" fill="#891B1B"/>
<path opacity="0.4" d="M55.6203 47.6935C46.5383 46.6948 40.82 53.3529 40.1472 60.6767C39.1381 68.0006 39.8109 72.9942 35.438 79.3194C31.0652 85.6445 30.0561 95.2987 35.438 100.625C46.8747 112.61 66.0478 100.625 70.4207 83.98C74.1208 68.3335 68.7388 49.358 55.6203 47.6935ZM60.6659 68.3335C54.6112 72.6613 49.2293 76.3232 49.2293 86.3103C49.2293 96.2974 47.5474 104.953 39.4745 102.29C31.0652 99.6265 29.7197 85.3116 36.7835 81.3168C44.5201 76.989 44.8564 73.3271 42.8382 68.0006C41.8291 65.6703 40.82 64.3387 41.1564 61.3425C41.8291 46.029 55.6203 47.0277 60.3295 50.6896C64.7024 54.3516 67.057 64.0058 60.6659 68.3335Z" fill="#891B1B"/>
<path d="M40.1473 69.3322C39.8109 71.9954 39.8109 74.6587 38.129 76.6561C36.4472 78.6535 41.8291 79.6522 42.8382 74.9916C43.8473 69.6651 40.4836 66.3361 40.1473 69.3322Z" fill="#F9DDC8"/>
<g opacity="0.3" style="mix-blend-mode:soft-light">
<path d="M42.1655 60.3436C42.1655 55.6829 45.8656 48.359 54.2748 49.0248C57.9749 49.3577 59.9932 53.3526 56.2931 53.3526C52.593 53.3526 46.2019 56.3487 45.1928 61.6752C44.8564 65.0042 42.1655 65.3371 42.1655 60.3436Z" fill="white"/>
</g>
<path d="M133.658 40.3695C142.404 39.7037 146.104 48.0263 153.504 51.3553C161.241 54.3515 170.659 53.3528 174.359 62.0083C178.059 70.6638 165.614 86.9761 140.05 79.3193C115.494 71.9954 115.494 41.7011 133.658 40.3695Z" fill="#7C1414"/>
<path opacity="0.4" d="M174.359 61.6751C170.659 53.0196 161.241 54.0183 153.504 51.0222C145.768 48.0261 142.404 39.3706 133.658 40.0364C115.494 41.7009 115.831 71.9952 140.05 78.9861C165.614 86.6429 178.059 70.3306 174.359 61.6751ZM153.841 75.99C139.04 75.3242 144.422 64.0055 131.304 62.6738C125.586 62.008 121.885 59.3448 121.549 54.0183C121.213 45.0299 129.958 40.3693 136.349 42.0338C143.077 43.6983 143.75 49.0248 146.104 52.6867C148.795 56.0158 150.813 56.0158 155.523 55.6829C160.232 55.0171 165.614 53.6854 170.659 58.0132C176.041 62.3409 172.341 76.6558 153.841 75.99Z" fill="#7C1414"/>
<path d="M147.786 49.3573C149.804 51.0218 153.168 52.6863 155.523 52.6863C157.877 52.6863 153.504 55.6824 149.468 53.685C145.768 51.6876 146.441 48.3586 147.786 49.3573Z" fill="#F9DDC8"/>
<g opacity="0.3" style="mix-blend-mode:soft-light">
<path d="M123.904 47.6945C126.258 43.0339 132.649 41.3693 137.022 42.701C141.731 44.0326 143.077 50.6906 146.104 53.6868C148.122 55.6842 144.086 54.6855 141.731 51.0236C139.04 47.3616 134.668 45.3642 129.958 46.3629C127.604 47.0287 124.913 49.359 124.24 53.021C123.904 55.0184 121.549 52.3552 123.904 47.6945Z" fill="white"/>
</g>
<path d="M51.9202 90.306C53.2657 97.9627 52.593 101.625 50.2384 109.281C47.8838 116.938 48.5565 123.596 55.6203 127.258C62.3477 130.92 82.1936 126.26 84.5483 102.623C86.5665 78.9872 77.4845 69.6659 67.3933 69.9988C56.6294 69.9988 49.902 76.9898 51.9202 90.306Z" fill="#A01F1F"/>
<path opacity="0.4" d="M67.3933 69.6648C56.6294 69.9977 49.902 76.9887 51.9202 90.3049C53.2657 97.9617 52.593 101.624 50.2384 109.28C47.8838 116.937 48.5565 123.595 55.6203 127.257C62.3477 130.919 82.1936 126.259 84.5483 102.622C86.5665 78.6532 77.4845 69.3319 67.3933 69.6648ZM61.675 121.931C51.5839 120.932 51.2475 113.275 53.2657 107.616C54.6112 103.954 59.6568 104.62 59.6568 97.6288C59.9931 90.6378 53.2657 89.6391 53.9385 81.9823C54.6112 75.3242 57.3022 71.9952 64.7023 70.6636C72.7753 68.999 82.1936 75.3242 83.2028 92.6352C84.5482 112.277 71.4298 122.929 61.675 121.931Z" fill="#7C1414"/>
<path d="M53.9385 93.6342C54.6112 96.2975 54.2749 99.2936 53.6021 101.957C52.593 104.287 57.6386 103.621 57.6386 97.6291C57.6386 91.6368 53.2658 90.3052 53.9385 93.6342Z" fill="#F9DDC8"/>
<g opacity="0.3" style="mix-blend-mode:soft-light">
<path d="M60.3295 75.6571C67.3933 74.9913 77.4845 78.3203 78.83 93.6339C79.1663 96.2971 83.5392 90.9707 78.83 79.6519C74.1208 68.3332 61.0023 69.6648 57.6386 74.3255C56.2931 76.6558 59.6568 75.99 60.3295 75.6571Z" fill="white"/>
</g>
<path d="M109.44 67.6685C120.876 66.3369 130.631 60.6775 138.031 69.0001C145.095 77.3227 143.077 94.9666 119.531 98.2956C95.9849 101.625 83.8755 85.3124 87.2392 73.6607C89.5938 64.0065 101.703 68.6672 109.44 67.6685Z" fill="#991A1A"/>
<path opacity="0.4" d="M137.695 69.3329C130.631 61.0103 120.876 66.6696 109.103 68.0012C101.703 69 89.5938 64.3393 86.9028 73.9935C83.5391 85.6452 95.6485 102.29 119.195 98.6284C143.077 94.9665 145.095 77.6555 137.695 69.3329ZM112.467 93.6349C88.5847 94.3007 85.221 77.3226 90.2666 70.9974C93.9666 66.6696 101.703 68.3341 105.403 71.3303C108.767 74.3264 114.149 73.6606 116.84 70.3316C119.531 67.0025 129.286 63.6735 134.331 68.3342C143.077 76.3239 137.695 92.9691 112.467 93.6349Z" fill="#7C1414"/>
<path d="M106.412 69.3332C108.431 69.6661 112.467 69.6661 114.485 68.6674C116.504 67.6687 115.831 70.9977 111.122 71.6635C106.749 71.9964 104.394 69.0003 106.412 69.3332Z" fill="#F9DDC8"/>
<g opacity="0.3" style="mix-blend-mode:soft-light">
<path d="M105.403 75.9909C109.103 79.6528 115.494 79.3199 118.522 74.9922C121.213 71.3302 122.895 68.9999 126.931 67.3354C127.604 67.0025 125.922 67.0025 124.913 67.3354C118.858 68.9999 117.176 72.6618 114.822 73.9934C108.431 77.3225 106.412 72.3289 101.703 69.9986C96.994 67.6683 92.2848 69.3328 91.2757 70.6644C90.2666 71.996 92.2848 69.9986 95.9849 69.9986C99.685 69.9986 103.385 73.6605 105.403 75.9909Z" fill="white"/>
</g>
<path d="M85.221 131.253C88.2483 122.931 84.5482 117.604 93.9666 111.279C103.385 104.954 117.513 112.278 118.522 129.589C119.194 146.9 107.758 158.884 94.9757 159.883C82.1936 160.882 78.1572 150.895 78.4935 144.237C78.4935 137.579 83.2027 136.247 85.221 131.253Z" fill="#A01F1F"/>
<path opacity="0.4" d="M118.185 129.589C117.513 112.278 103.049 104.954 93.6303 111.279C84.2119 117.604 87.9119 122.931 84.8846 131.253C82.8664 136.247 78.1572 137.579 77.8208 144.237C77.4844 150.895 81.5209 161.215 94.303 159.883C107.421 158.884 119.194 147.233 118.185 129.589ZM114.822 139.243C111.122 153.225 95.3121 157.22 87.2392 152.559C79.1663 148.232 79.5027 139.243 87.2392 135.248C92.2848 132.918 91.2757 128.59 89.2574 123.264C86.2301 115.607 96.3212 107.95 104.394 109.948C113.14 112.611 118.522 125.261 114.822 139.243Z" fill="#A01F1F"/>
<path d="M87.5756 127.592C87.5756 129.589 86.2301 132.252 85.221 133.917C83.8755 135.582 88.2483 135.249 89.2574 131.587C89.9302 128.258 87.5756 124.929 87.5756 127.592Z" fill="#F9DDC8"/>
<g opacity="0.3" style="mix-blend-mode:soft-light">
<path d="M91.2757 115.607C94.6394 111.28 101.703 109.282 107.085 112.611C113.14 116.273 116.504 124.263 114.149 136.58C113.476 141.241 110.449 144.237 110.449 140.908C110.785 136.247 111.122 128.924 107.758 122.931C104.731 116.939 97.3304 114.609 91.9484 118.936C88.9211 120.934 89.9302 116.939 91.2757 115.607Z" fill="white"/>
</g>
<path d="M155.522 110.28C163.595 115.274 172.677 117.271 172.341 125.594C171.668 135.248 163.259 141.906 150.477 140.242C138.031 138.577 128.276 128.257 124.24 118.27C120.204 108.283 127.267 97.9629 139.04 99.9603C146.777 101.292 147.45 104.954 155.522 110.28Z" fill="#991A1A"/>
<path opacity="0.4" d="M155.523 110.28C147.113 104.954 146.777 101.625 139.04 100.293C126.931 98.2957 120.204 108.616 124.24 118.603C128.277 128.59 137.695 138.91 150.477 140.574C162.923 142.239 171.668 135.581 172.341 125.927C173.014 117.271 163.932 115.274 155.523 110.28ZM151.15 135.914C133.995 133.916 123.904 120.933 124.913 110.946C125.922 100.959 138.704 98.2957 144.759 103.289C148.795 106.618 146.104 111.612 152.495 114.941C158.886 118.27 158.886 114.275 165.277 117.937C172.005 121.599 168.305 137.911 151.15 135.914Z" fill="#7C1414"/>
<path d="M150.477 107.951C152.832 110.281 155.523 111.946 158.214 112.944C161.241 113.61 156.195 115.608 152.832 113.943C147.786 111.28 148.795 106.286 150.477 107.951Z" fill="#F9DDC8"/>
<g opacity="0.3" style="mix-blend-mode:soft-light">
<path d="M138.368 103.622C129.958 104.954 129.622 114.941 132.986 121.932C136.349 129.256 127.267 124.262 125.922 113.942C124.576 103.622 133.322 100.959 138.031 101.292C141.395 101.625 140.05 103.289 138.368 103.622Z" fill="white"/>
</g>
</svg>
