<svg width="200" height="200" viewBox="0 0 200 200" fill="none" xmlns="http://www.w3.org/2000/svg">
<path d="M110.85 181.24C114.781 180.245 118.162 177.719 120.128 174.275C124.295 166.928 131.449 152.387 131.449 138.152C131.449 118.1 126.653 98.8901 120.128 85.803C113.602 72.7159 110.85 42.4854 110.85 42.4854H102.752H97.1694H89.0711C89.0711 42.4854 86.3193 72.7159 79.7935 85.803C73.3463 98.8901 68.5502 118.1 68.5502 138.152C68.5502 152.234 75.5478 166.698 79.7148 174.045C81.6805 177.489 85.0613 180.092 88.9925 181.01C94.2603 182.388 102.28 183.382 110.85 181.24Z" fill="url(#paint0_linear_2006_74627)"/>
<path d="M100.629 183C96.0688 183 91.9803 182.311 88.914 181.546C84.8256 180.551 81.3661 177.949 79.3219 174.275C75.0762 166.928 68 152.387 68 138.152C68 119.554 72.2457 99.8851 79.3219 85.5735C85.6904 72.7159 88.5209 42.715 88.5209 42.4089L88.5995 41.9497H111.4L111.479 42.4089C111.479 42.715 114.31 72.7159 120.678 85.5735C127.754 99.8851 132 119.554 132 138.152C132 152.387 124.845 167.081 120.6 174.505C118.555 178.102 115.017 180.704 110.929 181.775C107.391 182.694 103.853 183 100.629 183ZM89.6216 43.0212C89.2285 47.0009 86.398 73.9405 80.344 86.1092C73.2678 100.268 69.1007 119.784 69.1007 138.228C69.1007 152.157 76.0983 166.545 80.2654 173.892C82.1523 177.26 85.4545 179.709 89.1499 180.627C94.3391 181.852 102.201 182.923 110.693 180.857C114.467 179.939 117.769 177.49 119.656 174.122C123.823 166.622 130.899 152.234 130.899 138.152C130.899 119.707 126.732 100.191 119.656 86.0327C113.602 73.9405 110.771 46.9243 110.378 43.0212H89.6216Z" fill="url(#paint1_linear_2006_74627)"/>
<path d="M100 20.6736C106.253 20.6736 111.322 19.8512 111.322 18.8368C111.322 17.8224 106.253 17 100 17C93.7473 17 88.6783 17.8224 88.6783 18.8368C88.6783 19.8512 93.7473 20.6736 100 20.6736Z" fill="#F4D4A2"/>
<path d="M100 47.3074C105.732 47.3074 110.378 45.6969 110.378 43.7103C110.378 41.7237 105.732 40.1133 100 40.1133C94.2681 40.1133 89.6216 41.7237 89.6216 43.7103C89.6216 45.6969 94.2681 47.3074 100 47.3074Z" fill="url(#paint2_linear_2006_74627)"/>
<path d="M100 44.7813C107.643 44.7813 113.838 43.2051 113.838 41.2607C113.838 39.3164 107.643 37.7402 100 37.7402C92.3577 37.7402 86.1623 39.3164 86.1623 41.2607C86.1623 43.2051 92.3577 44.7813 100 44.7813Z" fill="#F4D4A2"/>
<path d="M88.6781 18.8369L87.5774 19.6022C86.7125 20.291 86.0835 21.3625 86.0835 22.5105V41.2611H113.838V22.5105C113.838 21.3625 113.287 20.291 112.344 19.6022L111.243 18.8369H88.6781Z" fill="#F4D4A2"/>
<g opacity="0.2" style="mix-blend-mode:overlay">
<path d="M90.5651 22.6635C94.2604 23.6584 101.101 24.7299 109.435 22.587C110.929 22.2043 112.344 23.2757 112.344 24.7299V32.3832C112.344 38.0466 107.784 42.7916 101.966 43.0212C100.708 43.0978 99.371 43.0978 97.9558 43.0212C92.2162 42.7916 87.656 38.0466 87.656 32.3832V24.8829C87.656 23.3523 89.0712 22.2808 90.5651 22.6635Z" fill="url(#paint3_linear_2006_74627)"/>
</g>
<g opacity="0.1" style="mix-blend-mode:overlay">
<path d="M115.017 92.9209C115.017 92.9209 118.162 86.2626 115.017 78.8389C115.017 78.8389 124.531 97.2068 126.024 107.845C126.103 107.845 120.128 93.5332 115.017 92.9209Z" fill="url(#paint4_linear_2006_74627)"/>
</g>
<g opacity="0.2" style="mix-blend-mode:overlay">
<path d="M100.943 177.03C114.795 177.03 126.024 157.911 126.024 134.325C126.024 110.739 114.795 91.6196 100.943 91.6196C87.0915 91.6196 75.8623 110.739 75.8623 134.325C75.8623 157.911 87.0915 177.03 100.943 177.03Z" fill="url(#paint5_linear_2006_74627)"/>
</g>
<g opacity="0.2" style="mix-blend-mode:overlay">
<path d="M72.4029 147.489C71.6166 143.968 75.7051 141.366 78.6928 143.432C83.4889 146.8 90.565 149.938 99.9999 149.938C109.513 149.938 116.511 146.8 121.386 143.432C124.373 141.366 128.383 143.968 127.676 147.489C124.767 160.652 117.533 179.939 100.079 179.939C82.4668 180.015 75.312 160.652 72.4029 147.489Z" fill="url(#paint6_linear_2006_74627)"/>
</g>
<g opacity="0.1" style="mix-blend-mode:overlay">
<path d="M75.8624 135.473C75.8624 135.473 84.511 93.3796 110.378 93.6091C110.378 93.6091 97.5626 89.859 96.9336 74.1698C96.3046 58.4805 97.5626 49.3731 102.123 49.2966C102.123 49.2966 93.4741 50.368 90.4078 46.771C90.4078 46.771 91.4299 49.7558 90.9582 52.2814C90.5651 54.807 88.5995 80.7516 81.6019 88.2518C76.6486 93.4561 70.5159 114.426 75.8624 135.473Z" fill="url(#paint7_linear_2006_74627)"/>
</g>
<g opacity="0.2" style="mix-blend-mode:overlay">
<path d="M87.656 34.9088V24.3473C87.656 23.1993 88.6781 22.2809 89.7789 22.434C89.8575 22.434 89.9361 22.434 90.0148 22.5105C90.5651 22.6636 97.0909 24.73 103.774 23.582C103.774 23.582 93.4742 21.8217 96.6192 20.9798C99.7641 20.138 102.909 20.0614 102.909 20.0614C102.909 20.0614 88.5995 20.138 90.4079 18.8369C90.4079 18.8369 86.9484 19.2961 86.8698 22.5105C86.7125 25.7249 87.656 34.9088 87.656 34.9088Z" fill="url(#paint8_linear_2006_74627)"/>
</g>
<g opacity="0.1" style="mix-blend-mode:overlay">
<path d="M103.774 49.2967C103.774 49.2967 105.897 48.6079 106.919 50.9804C108.02 53.4295 112.03 71.2617 108.649 72.4862C108.649 72.4862 113.681 73.3281 115.017 78.8384C115.017 78.8384 109.042 50.4447 109.356 49.2202C109.671 47.9956 110.3 46.8477 110.3 46.8477C110.3 46.8477 108.806 48.3783 103.774 49.2967Z" fill="url(#paint9_linear_2006_74627)"/>
</g>
<g opacity="0.1" style="mix-blend-mode:overlay">
<path d="M74.6043 155.754C74.6043 155.754 81.1301 182.158 99.9999 180.015C118.791 177.795 74.6043 155.754 74.6043 155.754Z" fill="url(#paint10_linear_2006_74627)"/>
</g>
<g opacity="0.2" style="mix-blend-mode:overlay">
<path d="M112.344 28.9395C112.344 28.9395 110.536 42.1031 100.944 42.4858L109.907 41.4909C111.322 41.3378 112.423 40.1898 112.423 38.7357V28.9395H112.344Z" fill="url(#paint11_linear_2006_74627)"/>
</g>
<path opacity="0.47" d="M100 152.693C113.523 152.693 124.531 141.979 124.531 128.815C124.531 125.677 123.902 122.692 122.801 120.014L95.3612 152.311C96.8551 152.54 98.3489 152.693 100 152.693Z" fill="white"/>
<path opacity="0.47" d="M100 104.86C86.4766 104.86 75.4692 115.574 75.4692 128.738C75.4692 134.937 77.9066 140.524 81.8378 144.734L111.479 107.615C108.02 105.931 104.167 104.86 100 104.86Z" fill="white"/>
<path opacity="0.47" d="M87.4204 149.249C88.9143 150.091 90.4867 150.856 92.2165 151.392L121.465 117.181C120.678 115.804 119.735 114.503 118.713 113.278L87.4204 149.249Z" fill="white"/>
<path opacity="0.47" d="M122.172 116.34L124.216 113.891C123.351 112.59 122.408 111.365 121.386 110.217L119.42 112.513C120.442 113.738 121.386 114.962 122.172 116.34Z" fill="white"/>
<path opacity="0.47" d="M74.3686 128.738C74.3686 114.962 85.8477 103.788 100 103.788C104.403 103.788 108.57 104.86 112.187 106.773L114.074 104.401C109.907 102.105 105.111 100.804 100 100.804C84.118 100.804 71.3022 113.279 71.3022 128.738C71.3022 136.238 74.29 142.973 79.2433 148.025L81.1303 145.652C76.8846 141.213 74.3686 135.244 74.3686 128.738Z" fill="white"/>
<path opacity="0.47" d="M123.587 119.018C124.924 122.003 125.631 125.294 125.631 128.814C125.631 142.59 114.152 153.764 100 153.764C98.113 153.764 96.3047 153.534 94.4963 153.152L92.3735 155.677C94.8108 156.366 97.3268 156.672 100 156.672C115.882 156.672 128.698 144.197 128.698 128.738C128.698 124.299 127.676 120.166 125.789 116.416L123.587 119.018Z" fill="white"/>
<path opacity="0.47" d="M86.7125 150.091L84.7469 152.387C86.2407 153.305 87.8132 154.071 89.4643 154.683L91.5086 152.234C89.7788 151.698 88.2063 151.009 86.7125 150.091Z" fill="white"/>
<path opacity="0.47" d="M111.479 107.691L81.8376 144.81C83.4888 146.57 85.3757 148.024 87.42 149.249L118.712 113.355C116.668 111.059 114.231 109.069 111.479 107.691Z" fill="white"/>
<path opacity="0.47" d="M81.1302 145.652L79.2432 148.024C80.8943 149.708 82.7027 151.162 84.6683 152.387L86.6339 150.091C84.5897 148.866 82.7813 147.412 81.1302 145.652Z" fill="white"/>
<path opacity="0.47" d="M119.42 112.513L121.386 110.217C119.263 107.921 116.826 105.931 113.995 104.4L112.108 106.773C114.939 108.304 117.376 110.217 119.42 112.513Z" fill="white"/>
<path opacity="0.47" d="M95.2826 152.234L122.722 119.937C122.329 119.018 121.858 118.1 121.386 117.182L92.1376 151.392C93.1597 151.775 94.2605 152.004 95.2826 152.234Z" fill="white"/>
<path opacity="0.47" d="M123.587 119.018L125.71 116.493C125.238 115.651 124.767 114.809 124.216 113.967L122.172 116.416C122.722 117.182 123.194 118.1 123.587 119.018Z" fill="white"/>
<path opacity="0.47" d="M91.4302 152.311L89.3859 154.76C90.3294 155.142 91.3515 155.448 92.3736 155.755L94.4965 153.229C93.4744 152.923 92.4523 152.617 91.4302 152.311Z" fill="white"/>
<path d="M102.909 94.2217C103.145 94.9105 103.302 96.9769 100.157 100.65C96.2261 105.319 100.157 108.151 100.157 108.151C108.098 107.691 103.774 96.135 102.909 94.2217Z" fill="url(#paint12_linear_2006_74627)"/>
<path d="M102.908 94.2217C102.83 94.0686 102.752 93.9155 102.752 93.9155C102.752 93.9155 102.908 93.9921 102.908 94.2217Z" fill="url(#paint13_linear_2006_74627)"/>
<path d="M97.4054 105.625C96.1474 101.722 92.0589 100.421 92.0589 100.421C92.0589 100.421 91.5872 109.681 100.236 108.151C100.236 108.151 98.113 107.692 97.4054 105.625Z" fill="url(#paint14_linear_2006_74627)"/>
<path opacity="0.33" d="M102.359 103.406C102.749 103.406 103.066 102.721 103.066 101.875C103.066 101.03 102.749 100.345 102.359 100.345C101.968 100.345 101.651 101.03 101.651 101.875C101.651 102.721 101.968 103.406 102.359 103.406Z" fill="white"/>
<path opacity="0.33" d="M101.572 104.023C101.876 103.784 101.813 103.217 101.431 102.757C101.049 102.296 100.493 102.117 100.189 102.356C99.8847 102.595 99.948 103.162 100.33 103.622C100.712 104.083 101.268 104.262 101.572 104.023Z" fill="white"/>
<path opacity="0.33" d="M95.0909 103.94C95.3949 103.701 95.4422 103.268 95.1966 102.972C94.9509 102.676 94.5054 102.63 94.2014 102.869C93.8975 103.108 93.8502 103.542 94.0958 103.838C94.3414 104.133 94.787 104.179 95.0909 103.94Z" fill="white"/>
<path d="M107.469 117.488C107.312 117.258 106.84 117.182 106.604 117.258C106.211 117.335 105.897 117.564 105.818 117.947C105.268 120.166 104.167 122.233 102.595 123.917C102.595 123.84 102.595 123.687 102.516 123.534C102.595 123.381 102.595 123.228 102.673 122.998C102.673 122.845 102.673 122.769 102.595 122.692C102.595 122.462 102.673 122.233 102.673 122.08C102.83 120.779 103.224 119.554 103.774 118.406C103.931 118.024 103.617 117.717 103.224 117.641C102.83 117.564 102.28 117.794 102.123 118.177C101.572 119.325 101.179 120.473 101.022 121.697C100.943 122.309 100.865 122.922 100.865 123.61V123.687C100.55 124.758 99.9214 125.753 99.0565 126.442C99.0565 126.442 98.9779 126.519 98.8993 126.519C98.8206 126.289 98.8206 126.059 98.8206 125.753C98.8993 124.911 98.9779 124.146 99.0565 123.304C99.1351 122.539 97.6413 122.922 97.4054 123.381C96.6978 124.605 95.8329 125.677 94.8894 126.748C94.6536 126.978 94.4963 127.207 94.2604 127.437C94.2604 127.361 94.1818 127.361 94.1818 127.284C93.9459 126.748 94.3391 125.906 94.4963 125.371C94.8894 124.146 95.5184 122.998 96.3047 122.003C96.4619 121.774 96.6978 121.544 96.9337 121.314C97.0123 121.238 97.0909 121.085 97.2482 121.008C97.2482 121.008 97.3268 120.932 97.4054 120.932C97.4054 120.932 97.484 120.932 97.484 121.008C97.5626 121.085 97.7199 121.238 97.7199 121.314C97.8771 121.621 97.9558 122.003 98.0344 122.309C98.1916 122.922 99.8427 122.539 99.6855 121.85C99.5283 121.161 99.371 120.549 98.742 120.09C98.0344 119.631 97.0909 119.784 96.4619 120.166C95.8329 120.549 95.4398 121.085 94.9681 121.621C94.4963 122.156 94.1032 122.769 93.7887 123.381C93.4742 123.993 93.1597 124.605 92.9238 125.294C92.7666 125.753 92.6093 126.213 92.5307 126.748C92.3735 126.825 92.2162 126.901 92.1376 127.054C91.8231 127.437 91.5872 127.82 91.1941 128.202C91.0369 128.355 90.9582 128.509 90.801 128.662C90.7224 128.355 90.6437 127.82 90.6437 127.743C90.5651 127.284 90.5651 126.748 90.5651 126.213C90.5651 126.136 90.5651 126.136 90.5651 126.059C91.0369 125.141 91.3513 124.07 90.8796 122.998C90.6437 122.462 89.3071 122.845 89.2285 123.304C88.9926 124.223 88.914 125.218 88.914 126.213C88.8354 126.442 88.6781 126.595 88.5995 126.748C88.285 127.284 87.8133 127.743 87.4201 128.202C87.1843 128.432 86.9484 128.662 86.7125 128.891C86.7125 128.891 86.6339 128.968 86.5553 129.044C86.3194 128.432 86.3194 127.361 86.3194 126.978C86.3194 126.136 86.398 125.294 86.2408 124.376C86.1622 123.84 84.5897 124.223 84.5897 124.682C84.3538 126.289 83.8821 127.82 83.0172 129.197C82.4668 130.116 80.8943 132.718 79.5577 131.57C79.086 131.187 77.5135 131.799 77.9853 132.182C79.8722 133.713 82.231 132.106 83.4889 130.651C83.9607 130.116 84.3538 129.503 84.7469 128.891C84.8255 129.35 85.0614 129.963 85.5332 130.192C86.0835 130.498 86.8698 130.192 87.2629 129.81C87.8919 129.35 88.4423 128.738 88.9926 128.202C88.9926 128.279 88.9926 128.355 88.9926 128.355C89.0712 128.738 89.0712 129.274 89.3071 129.58C89.8575 130.269 91.0369 129.733 91.5872 129.274C91.9803 128.968 92.3735 128.585 92.7666 128.126C93.0025 128.355 93.3169 128.585 93.7101 128.585C94.5749 128.662 95.2039 128.126 95.8329 127.59C96.3047 127.131 96.6978 126.672 97.0909 126.136C97.0909 126.289 97.0909 126.442 97.0909 126.595C97.2482 127.743 98.5848 127.743 99.4496 127.361C100.393 126.978 101.179 126.213 101.73 125.294C102.123 125.447 102.595 125.447 102.909 125.294C103.459 125.065 103.853 124.529 104.246 124.146C105.032 123.304 105.661 122.309 106.211 121.314C106.29 121.238 106.29 121.085 106.369 121.008C106.369 126.213 104.875 131.493 101.494 135.55C97.9558 139.759 92.2948 142.667 86.6339 141.825C83.6462 141.366 80.8943 139.835 79.4005 137.233C79.0074 136.544 77.4349 137.157 77.828 137.999C80.8157 143.432 88.3636 144.198 93.7887 142.361C100.079 140.218 104.717 135.167 106.683 129.121C107.862 125.524 108.177 121.697 107.862 117.947C107.862 117.641 107.705 117.488 107.469 117.488Z" fill="url(#paint15_linear_2006_74627)"/>
<path d="M123.98 114.809C123.666 114.58 123.115 114.733 122.801 114.886C121.071 115.957 119.184 116.876 117.219 117.565C117.219 117.565 117.219 117.565 117.14 117.565C117.297 117.029 117.297 116.417 117.14 115.881C116.747 114.58 115.253 114.35 114.074 114.733C112.894 115.115 111.951 116.187 111.636 117.335C111.322 118.789 112.737 119.248 113.916 119.325C114.231 119.325 114.545 119.325 114.86 119.248C114.231 120.855 113.366 122.769 111.636 123.534C111.165 123.764 111.007 123.764 110.929 123.228C110.85 122.616 110.85 122.003 110.85 121.391C110.85 120.167 111.007 118.942 111.322 117.718C111.479 116.952 109.749 117.182 109.592 117.871C109.199 119.401 109.042 121.009 109.12 122.616C109.12 123.151 109.12 123.917 109.513 124.376C109.907 124.835 110.614 124.835 111.086 124.759C113.838 124.452 115.568 121.621 116.432 119.325C116.511 119.172 116.59 118.942 116.668 118.789C117.533 118.559 118.319 118.177 119.106 117.871C120.757 117.182 122.329 116.34 123.823 115.498C124.216 115.422 124.295 115.039 123.98 114.809ZM114.074 118.177C112.894 118.024 113.602 116.646 114.152 116.11C114.86 115.422 115.568 115.881 115.646 116.799C115.646 117.258 115.568 117.641 115.489 118.1C114.939 118.177 114.545 118.253 114.074 118.177Z" fill="url(#paint16_linear_2006_74627)"/>
<g opacity="0.2" style="mix-blend-mode:overlay">
<path d="M111.479 107.691L81.838 144.81C83.4891 146.57 85.3761 148.024 87.4203 149.249L118.713 113.355C116.668 111.059 114.231 109.069 111.479 107.691Z" fill="white"/>
</g>
<g opacity="0.2" style="mix-blend-mode:overlay">
<path d="M81.1301 145.652L79.2432 148.024C80.8943 149.708 82.7026 151.162 84.6682 152.387L86.6338 150.091C84.5896 148.866 82.7812 147.412 81.1301 145.652Z" fill="white"/>
</g>
<g opacity="0.2" style="mix-blend-mode:overlay">
<path d="M119.42 112.513L121.386 110.217C119.263 107.921 116.826 105.931 113.995 104.4L112.108 106.773C114.939 108.304 117.376 110.217 119.42 112.513Z" fill="white"/>
</g>
<g opacity="0.2" style="mix-blend-mode:overlay">
<path d="M95.2825 152.234L122.722 119.937C122.329 119.018 121.857 118.1 121.386 117.182L92.1376 151.392C93.1597 151.775 94.2604 152.004 95.2825 152.234Z" fill="white"/>
</g>
<g opacity="0.2" style="mix-blend-mode:overlay">
<path d="M123.587 119.018L125.71 116.493C125.238 115.651 124.767 114.809 124.216 113.967L122.172 116.416C122.722 117.182 123.194 118.1 123.587 119.018Z" fill="white"/>
</g>
<g opacity="0.2" style="mix-blend-mode:overlay">
<path d="M91.4301 152.311L89.3859 154.76C90.3294 155.142 91.3515 155.448 92.3736 155.755L94.4964 153.229C93.4743 152.923 92.4522 152.617 91.4301 152.311Z" fill="white"/>
</g>
<defs>
<linearGradient id="paint0_linear_2006_74627" x1="99.9869" y1="42.4607" x2="99.9869" y2="182.494" gradientUnits="userSpaceOnUse">
<stop stop-color="#F4D4A2"/>
<stop offset="0.3651" stop-color="#F2D1A1"/>
<stop offset="0.6097" stop-color="#EDC89D"/>
<stop offset="0.8183" stop-color="#E5B997"/>
<stop offset="1" stop-color="#D9A58E"/>
</linearGradient>
<linearGradient id="paint1_linear_2006_74627" x1="99.9871" y1="41.9267" x2="99.9871" y2="183.028" gradientUnits="userSpaceOnUse">
<stop stop-color="#D87641"/>
<stop offset="1" stop-color="#B78F72"/>
</linearGradient>
<linearGradient id="paint2_linear_2006_74627" x1="99.987" y1="40.0959" x2="99.987" y2="47.2919" gradientUnits="userSpaceOnUse">
<stop offset="0.4307" stop-color="#F4A767"/>
<stop offset="0.613" stop-color="#F4A96A"/>
<stop offset="0.7282" stop-color="#F4B072"/>
<stop offset="0.8247" stop-color="#F4BB81"/>
<stop offset="0.9104" stop-color="#F4CA95"/>
<stop offset="0.9505" stop-color="#F4D4A2"/>
</linearGradient>
<linearGradient id="paint3_linear_2006_74627" x1="100.019" y1="22.5107" x2="100.019" y2="43.0815" gradientUnits="userSpaceOnUse">
<stop offset="0.2772" stop-color="#F4A767"/>
<stop offset="0.6399" stop-color="#F4C088"/>
<stop offset="0.896" stop-color="#F4D4A2"/>
</linearGradient>
<linearGradient id="paint4_linear_2006_74627" x1="120.544" y1="78.8531" x2="120.544" y2="107.854" gradientUnits="userSpaceOnUse">
<stop offset="0.0222772" stop-color="#FDF7F2"/>
<stop offset="0.1194" stop-color="#FCF2E5"/>
<stop offset="0.4407" stop-color="#F7E1C1"/>
<stop offset="0.7011" stop-color="#F5D8AA"/>
<stop offset="0.8663" stop-color="#F4D4A2"/>
</linearGradient>
<linearGradient id="paint5_linear_2006_74627" x1="100.978" y1="91.6192" x2="100.978" y2="177.041" gradientUnits="userSpaceOnUse">
<stop offset="0.0222772" stop-color="#F4AE70"/>
<stop offset="0.2711" stop-color="#F4BD83"/>
<stop offset="0.6348" stop-color="#F4CE9A"/>
<stop offset="0.8663" stop-color="#F4D4A2"/>
</linearGradient>
<linearGradient id="paint6_linear_2006_74627" x1="99.9887" y1="142.689" x2="99.9887" y2="179.964" gradientUnits="userSpaceOnUse">
<stop offset="0.0222772" stop-color="#F4AE70"/>
<stop offset="0.2711" stop-color="#F4BD83"/>
<stop offset="0.6348" stop-color="#F4CE9A"/>
<stop offset="0.8663" stop-color="#F4D4A2"/>
</linearGradient>
<linearGradient id="paint7_linear_2006_74627" x1="92.0736" y1="46.8141" x2="92.0736" y2="135.465" gradientUnits="userSpaceOnUse">
<stop stop-color="#FDF7F2"/>
<stop offset="0.099675" stop-color="#FCF2E5"/>
<stop offset="0.4295" stop-color="#F7E1C1"/>
<stop offset="0.6967" stop-color="#F5D8AA"/>
<stop offset="0.8663" stop-color="#F4D4A2"/>
</linearGradient>
<linearGradient id="paint8_linear_2006_74627" x1="95.2788" y1="18.8407" x2="95.2788" y2="34.8821" gradientUnits="userSpaceOnUse">
<stop stop-color="#FDF7F2"/>
<stop offset="0.099675" stop-color="#FCF2E5"/>
<stop offset="0.4295" stop-color="#F7E1C1"/>
<stop offset="0.6967" stop-color="#F5D8AA"/>
<stop offset="0.8663" stop-color="#F4D4A2"/>
</linearGradient>
<linearGradient id="paint9_linear_2006_74627" x1="109.393" y1="46.8142" x2="109.393" y2="78.8527" gradientUnits="userSpaceOnUse">
<stop stop-color="#FDF7F2"/>
<stop offset="0.2573" stop-color="#FBEEDE"/>
<stop offset="0.7843" stop-color="#F5D7A9"/>
<stop offset="0.849" stop-color="#F4D4A2"/>
</linearGradient>
<linearGradient id="paint10_linear_2006_74627" x1="89.6399" y1="180.092" x2="89.6399" y2="155.717" gradientUnits="userSpaceOnUse">
<stop stop-color="#FDF7F2"/>
<stop offset="0.2573" stop-color="#FBEEDE"/>
<stop offset="0.7843" stop-color="#F5D7A9"/>
<stop offset="0.849" stop-color="#F4D4A2"/>
</linearGradient>
<linearGradient id="paint11_linear_2006_74627" x1="110.18" y1="41.5994" x2="105.299" y2="32.9151" gradientUnits="userSpaceOnUse">
<stop stop-color="#FDF7F2"/>
<stop offset="0.099675" stop-color="#FCF2E5"/>
<stop offset="0.4295" stop-color="#F7E1C1"/>
<stop offset="0.6967" stop-color="#F5D8AA"/>
<stop offset="0.8663" stop-color="#F4D4A2"/>
</linearGradient>
<linearGradient id="paint12_linear_2006_74627" x1="101.658" y1="108.119" x2="101.658" y2="94.1844" gradientUnits="userSpaceOnUse">
<stop stop-color="#628F17"/>
<stop offset="0.0494572" stop-color="#649117"/>
<stop offset="0.6304" stop-color="#7BA217"/>
<stop offset="1" stop-color="#83A917"/>
</linearGradient>
<linearGradient id="paint13_linear_2006_74627" x1="102.884" y1="94.1844" x2="102.884" y2="93.9001" gradientUnits="userSpaceOnUse">
<stop stop-color="#628F17"/>
<stop offset="0.0494572" stop-color="#649117"/>
<stop offset="0.6304" stop-color="#7BA217"/>
<stop offset="1" stop-color="#83A917"/>
</linearGradient>
<linearGradient id="paint14_linear_2006_74627" x1="96.1402" y1="108.294" x2="96.1402" y2="100.405" gradientUnits="userSpaceOnUse">
<stop stop-color="#628F17"/>
<stop offset="0.0494572" stop-color="#649117"/>
<stop offset="0.6304" stop-color="#7BA217"/>
<stop offset="1" stop-color="#83A917"/>
</linearGradient>
<linearGradient id="paint15_linear_2006_74627" x1="92.9042" y1="142.518" x2="92.9042" y2="117.906" gradientUnits="userSpaceOnUse">
<stop stop-color="#628F17"/>
<stop offset="0.0494572" stop-color="#649117"/>
<stop offset="0.6304" stop-color="#7BA217"/>
<stop offset="1" stop-color="#83A917"/>
</linearGradient>
<linearGradient id="paint16_linear_2006_74627" x1="116.715" y1="124.625" x2="116.715" y2="114.878" gradientUnits="userSpaceOnUse">
<stop stop-color="#628F17"/>
<stop offset="0.0494572" stop-color="#649117"/>
<stop offset="0.6304" stop-color="#7BA217"/>
<stop offset="1" stop-color="#83A917"/>
</linearGradient>
</defs>
</svg>
