<svg width="200" height="200" viewBox="0 0 200 200" fill="none" xmlns="http://www.w3.org/2000/svg">
<path d="M88.4247 63.0304C87.4482 58.1866 90.8371 58.5246 92.4455 54.1313C94.1112 49.7381 93.7091 48.3863 88.0226 41.5148C82.2786 34.6434 85.208 34.4181 83.5997 27.1523C81.9914 19.8866 77.2814 19.0981 77.2814 19.0981C77.2814 19.0981 74.9263 18.2532 71.882 19.1544C68.8377 20.0556 68.3208 14.7048 63.2086 18.1969C58.0965 21.689 54.4203 24.3362 57.8667 31.9398C59.8771 36.4457 63.0937 39.8251 64.7595 41.5712C66.4252 43.3172 64.9893 43.9931 63.2086 48.1047C61.428 52.2726 63.4384 55.8773 67.7464 58.4119C72.1118 60.9465 73.318 60.7212 74.1222 64.6638C74.9263 68.6065 81.6468 76.4918 88.3672 74.0699C90.55 72.5491 89.4586 68.2122 88.4247 63.0304Z" fill="#FFEDD4"/>
<path d="M95.7192 39.5446C94.513 35.7146 91.5836 34.6445 94.1684 27.3224C96.7532 20.0004 90.0327 18.2543 90.0327 18.2543C90.0327 18.2543 83.4272 16.6773 77.1663 19.1555C77.1663 19.1555 81.8763 19.8877 83.4846 27.2098C85.0929 34.4755 82.2209 34.7008 87.9075 41.5723C92.7898 47.4299 93.7663 49.2886 92.9047 52.4427C96.9829 48.3311 96.7532 42.6987 95.7192 39.5446Z" fill="#FFE7D2"/>
<path d="M103.071 40.5566C104.393 34.7553 98.5337 28.7287 101.061 24.1665C102.44 21.7446 105.197 20.956 108.241 21.0687C107.839 20.8997 107.437 20.7871 106.977 20.6744C92.7323 16.2812 90.0326 18.2525 90.0326 18.2525C90.0326 18.2525 96.6956 19.9986 94.1683 27.3206C91.5835 34.6427 94.5129 35.7128 95.7191 39.5428C96.351 41.5705 96.6956 44.6682 95.7766 47.7097C98.189 45.6257 102.095 44.8936 103.071 40.5566Z" fill="#F3751E"/>
<path d="M114.732 52.4412C126.335 36.3327 124.439 32.6153 124.439 32.6153C124.439 32.6153 120.878 25.3496 108.299 21.069C105.254 20.9563 102.497 21.7449 101.119 24.1668C98.5338 28.729 104.45 34.7556 103.129 40.5569C102.152 44.8938 98.2466 45.626 95.8341 47.71C95.3172 49.3434 94.4556 50.9768 93.077 52.4412C92.9621 53.0044 92.7324 53.5676 92.5026 54.1872C90.8369 58.5804 87.5054 58.1862 88.4818 63.0863C89.5157 68.2681 90.6071 72.5487 88.3095 74.0694C88.3095 74.0694 89.2285 74.7453 90.2624 74.52C92.158 74.4074 103.129 68.5497 114.732 52.4412Z" fill="#FFE7D2"/>
<path d="M108.241 63.3688C111.113 62.4113 116.053 65.0586 120.82 62.0171C125.588 58.9756 124.956 52.3858 127.081 47.8799C129.494 42.7544 134.606 42.9234 139.144 45.6833C131.562 35.6577 126.047 32.3346 124.439 32.6725C124.439 32.6725 126.392 36.4462 114.732 52.4984C109.734 59.4262 104.852 64.439 100.774 67.9874C105.886 68.1563 105.484 64.27 108.241 63.3688Z" fill="#F3751E"/>
<path d="M126.277 79.6467C142.36 75.6478 147.013 69.4522 147.013 69.4522C147.013 69.4522 149.368 59.9335 140.924 47.9929C140.35 47.1481 139.718 46.3595 139.144 45.571C134.606 42.8111 129.436 42.6985 127.081 47.7676C124.956 52.3298 125.588 58.8634 120.82 61.9048C116.053 64.9463 111.171 62.3554 108.241 63.2566C105.541 64.1578 105.886 68.1004 100.774 67.8188C95.3747 72.4373 91.3539 74.4086 90.2051 74.465C90.2051 74.465 93.2494 81.8434 101.348 81.956C101.291 82.0123 110.252 83.6457 126.277 79.6467Z" fill="#FFE7D2"/>
<path d="M147.013 69.4504C147.013 69.4504 142.36 75.6459 126.277 79.6449C123.865 80.2645 121.682 80.7151 119.614 81.053C120.878 81.5036 121.969 82.1232 122.773 82.8554C125.588 85.3336 129.149 88.7693 134.261 86.9107C139.373 85.052 142.992 80.3208 147.243 83.5312C150.115 85.6715 149.77 92.6556 149.77 92.7683C150.287 90.5154 150.689 87.7555 150.861 84.4324C151.665 68.3802 147.013 69.4504 147.013 69.4504Z" fill="#F3751E"/>
<path d="M121.337 100.655C136.904 105.273 144.313 102.964 144.313 102.964C144.313 102.964 147.932 101.049 149.828 92.7134C149.828 92.657 150.172 85.6729 147.3 83.4763C143.05 80.2658 139.431 84.997 134.319 86.8557C129.207 88.7144 125.645 85.2786 122.831 82.8004C121.969 82.0682 120.878 81.4486 119.672 80.998C107.839 83.1383 101.406 81.9556 101.406 81.9556C101.406 81.9556 101.176 89.2213 105.829 93.5019C105.771 93.5582 108.586 96.8813 121.337 100.655Z" fill="#FFE7D2"/>
<path d="M144.313 103.019C144.313 103.019 137.708 105.047 123.865 101.386C124.324 102.174 124.554 103.188 124.209 104.427C123.463 107.412 125.933 108.989 128.69 109.046C133.744 109.102 136.502 109.609 137.535 113.946C138.282 116.987 135.87 120.592 133.917 122.901C135.87 121.606 138.225 119.522 140.293 116.311C145.06 108.82 144.313 103.019 144.313 103.019Z" fill="#F3751E"/>
<path d="M137.478 113.89C136.444 109.609 133.687 109.103 128.632 108.99C125.875 108.934 123.405 107.357 124.152 104.371C124.439 103.132 124.267 102.118 123.807 101.33C123.003 101.105 122.199 100.879 121.28 100.654C108.528 96.8804 105.714 93.501 105.714 93.501C105.714 93.501 99.9698 100.203 101.176 111.806C101.176 111.806 102.612 114.059 113.526 119.466C124.324 124.817 129.264 124.93 129.264 124.93C129.264 124.93 131.217 124.535 133.802 122.789C135.812 120.536 138.225 116.932 137.478 113.89Z" fill="#FFE7D2"/>
<path d="M72.6859 26.7607C72.6859 26.7607 72.4562 26.986 72.0541 27.4366C71.8818 27.6619 71.652 27.9435 71.4223 28.2252C71.1925 28.5631 70.9627 28.901 70.6755 29.3516C70.4458 29.7459 70.216 30.2528 69.9863 30.7597C69.7565 31.2666 69.5842 31.8299 69.4693 32.3931C69.3544 32.9563 69.2395 33.5759 69.2395 34.1954V34.646L69.297 35.0966C69.3544 35.3782 69.3544 35.7162 69.4119 35.9978C69.4693 36.2794 69.5267 36.6174 69.6416 36.899C69.7565 37.1806 69.8714 37.4622 69.9863 37.8002L70.0437 38.0254L70.1586 38.1944L70.3883 38.645C70.5606 38.9266 70.6756 39.1519 70.8479 39.3772C71.1925 39.8278 71.5372 40.2784 71.9967 40.6726C72.3987 41.0669 72.8008 41.3485 73.2029 41.6302C74.007 42.1934 74.7537 42.5313 75.2707 42.7566C75.7877 42.9819 76.1323 43.0946 76.1323 43.0946C76.1323 43.0946 75.7877 43.0382 75.2133 42.9256C74.6389 42.7566 73.8347 42.5313 72.9157 42.0807C72.4562 41.8554 71.9966 41.5738 71.5371 41.1796C71.0776 40.8416 70.6181 40.391 70.216 39.8841C70.0437 39.6025 69.8139 39.3209 69.6416 39.0393L69.4119 38.645L69.297 38.4197L69.1821 38.1944C69.0672 37.8565 68.9524 37.5749 68.8375 37.2369C68.7226 36.899 68.6652 36.561 68.6077 36.2231C68.4928 35.8851 68.4928 35.5472 68.4928 35.2093L68.4354 34.7024V34.1954C68.4354 33.8575 68.4928 33.5196 68.5503 33.1816C68.6077 32.8437 68.6651 32.5057 68.78 32.2241C68.9523 31.6046 69.1821 31.0413 69.4693 30.5344C69.7565 30.0275 70.0437 29.5769 70.3309 29.1263C71.5371 27.4366 72.6859 26.7607 72.6859 26.7607Z" fill="#E5B48F"/>
<path d="M77.1664 41.1221C77.1664 41.1221 76.9366 41.4037 76.6494 41.9106C76.3622 42.4175 76.0176 43.206 75.8453 44.2199C75.7878 44.7268 75.7304 45.2337 75.7878 45.7969C75.8453 46.3602 76.0176 46.9234 76.2473 47.4866C76.3622 47.7682 76.4771 48.1062 76.6494 48.3878C76.7643 48.6694 76.9366 48.951 77.1089 49.2327L77.3387 49.6832L77.5685 50.1902C77.6833 50.5844 77.7408 51.035 77.6833 51.3729C77.5684 52.1615 77.2813 52.781 76.9941 53.4569L76.7643 53.9075C76.7069 54.0201 76.6495 54.1891 76.592 54.3581C76.4197 54.696 76.4197 54.9777 76.3622 55.2593C76.3048 55.8225 76.3048 56.4421 76.4197 56.949C76.5346 57.5122 76.7643 58.0191 76.9366 58.4697C77.1664 58.9203 77.3961 59.3146 77.6259 59.6525C77.8557 59.9904 78.0855 60.2721 78.3152 60.4974C78.7173 60.9479 78.947 61.1733 78.947 61.1733C78.947 61.1733 78.6598 61.0043 78.2003 60.61C77.7408 60.2157 77.1089 59.5962 76.5345 58.695C75.9601 57.7938 75.4432 56.5547 75.6155 55.1466C75.6729 54.8087 75.7304 54.4144 75.8453 54.1328C75.9027 53.9638 75.9602 53.8512 76.0176 53.6259L76.1899 53.1753C76.4197 52.5557 76.7069 51.9362 76.7643 51.3166C76.8792 50.7534 76.6495 50.2465 76.3048 49.6269C76.1325 49.3453 76.0176 49.0074 75.8453 48.6694C75.7304 48.3315 75.6155 48.0499 75.5006 47.7119C75.0411 46.4165 75.0985 45.0647 75.3283 44.0509C75.6155 42.9807 76.1325 42.2485 76.4771 41.7416C76.8792 41.3474 77.1664 41.1221 77.1664 41.1221Z" fill="#E5B48F"/>
<path opacity="0.5" d="M124.382 32.5602C124.382 32.5602 120.82 25.2945 108.241 21.0139C107.839 20.8449 107.437 20.7323 106.977 20.6196C92.7324 16.2264 90.0327 18.1977 90.0327 18.1977C90.0327 18.1977 83.4272 16.6206 77.1663 19.0989C77.1663 19.0989 81.8763 19.8311 83.4846 27.1531C85.0929 34.4189 82.2209 34.6442 87.9075 41.5156C92.7898 47.3733 93.7663 49.232 92.9047 52.3861C92.7898 52.9493 92.56 53.5126 92.3303 54.1321C90.6645 58.5253 87.333 58.1311 88.3095 63.0312C89.3434 68.213 90.4348 72.4936 88.1372 74.0143C88.1372 74.0143 89.0563 74.6902 90.0902 74.4649C92.1006 74.3522 103.014 68.4383 114.617 52.3861C126.335 36.3339 124.382 32.5602 124.382 32.5602ZM111.975 41.065C108.528 47.317 96.5809 55.2023 94.513 47.5986C93.7089 44.6134 94.0535 42.8111 90.7794 40.7271C86.414 38.0236 84.8631 35.1511 85.7247 32.2222C86.4714 29.6314 85.5524 27.7727 84.5185 25.5197C80.5552 16.677 89.1137 18.6483 90.9518 19.4931C90.9518 19.4931 94.513 17.8034 104.335 20.9575C114.157 24.2243 118.063 30.082 111.975 41.065Z" fill="#FBBA7C"/>
<path opacity="0.5" d="M140.867 47.9919C140.292 47.147 139.661 46.3585 139.086 45.57C131.504 35.5444 125.99 32.2213 124.382 32.5592C124.382 32.5592 126.335 36.3329 114.674 52.3851C109.677 59.3129 104.795 64.3257 100.717 67.8741C95.3172 72.4926 91.2964 74.4639 90.1476 74.5203C90.1476 74.5203 93.1919 81.8987 101.291 82.0113C101.291 82.0113 110.194 83.6447 126.277 79.6457C142.36 75.6467 147.013 69.4512 147.013 69.4512C147.013 69.4512 149.368 59.9325 140.867 47.9919ZM135.123 66.2407C122.716 73.7318 96.6383 71.7604 109.045 61.6785C123.233 50.1885 121.797 38.5295 126.852 36.5019C132.079 34.4742 151.206 56.5531 135.123 66.2407Z" fill="#FBBA7C"/>
<path opacity="0.5" d="M147.013 69.4504C147.013 69.4504 142.36 75.646 126.277 79.6449C123.865 80.2645 121.682 80.7151 119.614 81.053C107.782 83.1933 101.348 82.0105 101.348 82.0105C101.348 82.0105 101.119 89.2763 105.771 93.5568C105.771 93.5568 108.586 96.9362 121.337 100.71C136.904 105.328 144.313 103.019 144.313 103.019C144.313 103.019 147.932 101.104 149.828 92.7683C150.345 90.5154 150.747 87.7555 150.919 84.4324C151.666 68.3802 147.013 69.4504 147.013 69.4504ZM149.828 85.2773C148.564 92.8246 134.836 96.8799 126.047 93.4442C112.951 88.2624 112.721 83.137 118.293 82.4048C126.852 81.2783 137.593 77.9552 143.452 74.0126C149.253 70.1262 151.206 77.054 149.828 85.2773Z" fill="#FBBA7C"/>
<path opacity="0.5" d="M144.313 103.021C144.313 103.021 137.708 105.049 123.865 101.388C123.061 101.162 122.256 100.937 121.337 100.712C108.586 96.938 105.771 93.5586 105.771 93.5586C105.771 93.5586 100.027 100.261 101.233 111.864C101.233 111.864 102.669 114.117 113.583 119.524C124.382 124.874 129.321 124.987 129.321 124.987C129.321 124.987 131.274 124.593 133.859 122.847C135.812 121.551 138.167 119.467 140.235 116.257C145.06 108.822 144.313 103.021 144.313 103.021ZM128.977 119.186C116.398 118.003 108.873 98.4587 119.442 101.951C123.98 103.472 135.18 105.33 140.465 104.88C145.807 104.429 141.614 120.369 128.977 119.186Z" fill="#FBBA7C"/>
<path opacity="0.5" d="M124.382 32.5597C124.382 32.5597 123.175 30.0815 119.672 27.209C126.679 33.8552 115.708 52.9488 106.345 58.8628C94.0534 66.6355 86.2416 62.6928 90.1475 58.6938C93.2493 55.5397 92.7323 53.2305 92.7323 53.2305C92.6174 53.5121 92.5026 53.85 92.3877 54.188C90.7219 58.5812 87.3904 58.1869 88.3669 63.0871C89.4008 68.2688 90.4921 72.5494 88.1946 74.0702C88.1946 74.0702 89.1136 74.746 90.1475 74.5208C92.1579 74.4081 103.071 68.4941 114.674 52.4419C126.335 36.3334 124.382 32.5597 124.382 32.5597Z" fill="#DD8E58"/>
<path opacity="0.5" d="M124.726 78.2953C106.116 82.8011 99.8549 78.5769 99.223 74.1273C98.7061 70.6353 100.717 67.8754 100.717 67.8754C95.3172 72.4939 91.2964 74.4652 90.1476 74.5216C90.1476 74.5216 93.1919 81.9 101.291 82.0126C101.291 82.0126 110.194 83.646 126.277 79.647C142.36 75.648 147.013 69.4525 147.013 69.4525C147.013 69.4525 147.817 66.073 146.726 60.835C146.611 65.3972 143.394 73.7894 124.726 78.2953Z" fill="#DD8E58"/>
<path opacity="0.5" d="M121.222 98.9641C109.505 95.1904 103.933 85.8407 108.356 82.3487C105.656 82.5176 101.291 82.0107 101.291 82.0107C101.291 82.0107 101.061 89.2765 105.714 93.5571C105.714 93.5571 108.528 96.9365 121.28 100.71C136.846 105.329 144.256 103.019 144.256 103.019C144.256 103.019 146.381 101.893 148.219 97.6124C145.979 100.766 135.123 103.414 121.222 98.9641Z" fill="#DD8E58"/>
<path opacity="0.5" d="M107.265 102.007C108.126 99.022 109.562 97.6139 111.515 97.107C106.977 95.023 105.771 93.5586 105.771 93.5586C105.771 93.5586 100.027 100.261 101.233 111.864C101.233 111.864 102.669 114.117 113.583 119.524C124.382 124.874 129.321 124.987 129.321 124.987C129.321 124.987 131.274 124.593 133.859 122.847C134.778 122.227 135.812 121.439 136.846 120.425C124.726 127.747 104.852 110.456 107.265 102.007Z" fill="#DD8E58"/>
<path opacity="0.4" d="M87.9648 41.5734C82.2208 34.702 85.1503 34.4767 83.542 27.2109C81.9337 19.9452 77.2236 19.1567 77.2236 19.1567C77.2236 19.1567 74.8686 18.3118 71.8243 19.213C68.78 20.1142 68.263 14.7634 63.1509 18.2555C58.0387 21.7476 54.3626 24.3948 57.809 31.9984C59.8194 36.5043 63.036 39.8837 64.7017 41.6298C66.3675 43.3758 64.9315 44.0517 63.1509 48.1633C61.3703 52.3312 63.3807 55.9359 67.6886 58.4705C72.0541 61.0051 73.2603 60.7798 74.0644 64.7224C74.8686 68.6651 81.589 76.5504 88.3094 74.1285C90.607 72.6077 89.5157 68.3271 88.4818 63.1454C87.5053 58.3015 90.8943 58.6395 92.5026 54.2462C94.0534 49.7967 93.7088 48.3886 87.9648 41.5734ZM59.5322 33.8571C56.4304 28.3374 56.4304 24.789 60.7959 21.0153C65.1613 17.2417 68.4927 22.3671 66.4823 25.8592C64.472 29.3512 64.2422 33.6318 67.0567 37.9124C69.8138 42.0803 63.1509 40.278 59.5322 33.8571ZM74.8111 64.1592C74.5239 60.9487 74.2942 59.7659 71.0201 58.7521C61.4851 55.767 63.4955 48.4449 65.6782 44.8402C66.7696 42.9815 69.4693 41.2355 68.5502 44.108C67.5738 46.9242 66.9994 51.7117 70.2734 53.9083C73.6049 56.1049 76.0748 57.9073 76.7641 61.343C77.4533 64.7224 75.0983 67.3696 74.8111 64.1592ZM86.7586 58.8084C83.2548 61.9626 86.2417 61.2867 87.5628 68.8904C88.8839 76.494 81.0146 73.2836 79.6361 69.7352C78.2001 66.2431 81.1295 62.1315 80.3254 61.5683C79.5212 61.0051 77.1662 59.0901 77.1662 56.3865C77.1662 53.852 79.4637 51.8243 80.2105 50.8668C80.9572 49.9093 77.8555 48.9518 77.1662 45.1781C76.4769 41.4045 80.3253 38.1377 78.5447 39.4895C76.7641 40.8976 72.2264 40.6723 70.618 36.8423C68.8374 32.6743 70.7329 28.8443 73.7772 26.1408C68.4353 27.1546 67.1717 22.9303 69.9862 21.0153C78.6022 14.9324 83.0824 26.5914 81.9336 33.7445C80.7849 40.8976 82.5081 42.2493 84.461 43.6574C92.2154 49.4024 90.2624 55.7106 86.7586 58.8084Z" fill="#E5B48F"/>
<path opacity="0.5" d="M73.4901 27.8858C71.8818 29.4065 69.4119 33.0676 71.1925 36.8412C72.9731 40.6149 79.9233 39.0379 76.9939 37.1792C74.1219 35.2642 72.7433 32.1101 73.9496 28.8433C74.5814 27.2099 74.3517 27.0973 73.4901 27.8858Z" fill="#FFE1C0"/>
<path opacity="0.5" d="M61.2554 21.0714C58.8429 22.9864 54.0755 29.0694 63.0935 36.7294C64.8167 38.1938 64.8167 36.8983 63.0935 34.3075C61.3703 31.7729 61.3128 27.436 62.7488 24.3382C64.1848 21.2404 63.7253 19.1564 61.2554 21.0714Z" fill="#FFE1C0"/>
<path opacity="0.5" d="M64.989 47.2607C64.2422 49.4573 63.3232 55.0897 68.6077 57.23C71.135 58.2438 72.054 56.2161 69.8713 54.977C68.5502 54.1885 65.8505 49.8516 66.4824 46.1342C66.827 43.9939 65.9654 44.3319 64.989 47.2607Z" fill="#FFE1C0"/>
<path opacity="0.5" d="M82.2782 72.0433C79.9231 70.5226 78.8318 67.2558 81.0145 64.158C81.7038 63.2005 82.7951 62.2994 81.991 64.158C81.2443 66.0167 81.6464 69.5651 83.2547 71.0295C84.863 72.4939 83.4844 72.8319 82.2782 72.0433Z" fill="#FFE1C0"/>
<path opacity="0.5" d="M80.7275 51.6553C78.2576 52.8944 76.5345 56.1612 79.8085 60.0475C81.5317 62.1315 84.2888 60.667 82.1635 59.1463C78.9469 56.9497 79.5788 53.345 80.7275 51.6553Z" fill="#FFE1C0"/>
<path opacity="0.5" d="M80.4976 49.2332C76.0748 46.8676 77.5682 41.0099 79.2914 39.9961C80.0956 39.5455 80.9572 39.9398 80.3254 41.7985C79.6361 43.6008 78.3724 47.5435 80.4976 49.2332Z" fill="#FFE1C0"/>
<path d="M129.321 124.987C129.321 124.987 124.439 124.875 113.583 119.524C102.669 114.117 100.716 111.188 100.716 111.188C100.716 111.188 98.9932 111.075 97.6721 112.878C96.6956 114.173 83.8866 137.716 82.9101 140.138C81.9337 142.56 82.3357 143.405 82.3357 143.405C82.3357 143.405 84.2887 144.531 86.0693 146.39C88.0223 148.418 89.1136 149.882 89.1136 149.882C89.1136 149.882 101.291 150.164 115.536 141.321C126.105 134.787 132.136 128.029 129.321 124.987Z" fill="#E55110"/>
<path opacity="0.8" d="M129.321 124.987C129.321 124.987 124.439 124.875 113.583 119.524C102.669 114.117 100.716 111.188 100.716 111.188C100.716 111.188 98.9932 111.075 97.6721 112.878C97.4423 113.216 96.2936 115.074 94.8001 117.721C94.8001 117.665 97.6721 112.878 102.497 114.455C106.92 115.919 110.251 118.397 112.204 121.045C119.327 130.845 92.6174 146.615 88.6541 144.475C86.5288 143.349 89.171 138.955 89.171 138.955C86.5862 141.828 83.8866 141.997 85.38 137.378C87.1032 132.084 89.8603 126.733 89.8603 126.733C86.5863 132.872 83.3696 138.899 82.9101 140.082C81.9337 142.504 82.3357 143.349 82.3357 143.349C82.3357 143.349 84.2887 144.475 86.0693 146.334C88.0223 148.361 89.1136 149.826 89.1136 149.826C89.1136 149.826 101.291 150.107 115.536 141.265C126.105 134.787 132.136 128.029 129.321 124.987Z" fill="#E0A075"/>
<path opacity="0.7" d="M108.011 117.609L102.784 124.48L106.748 116.764C106.346 116.539 105.829 116.313 105.254 116.032L97.6149 126.508L103.244 115.3C102.382 115.018 101.636 114.905 101.061 114.905L96.8107 122.058L99.2807 115.074C98.8786 115.243 98.6488 115.356 98.6488 115.356L85.7823 140.307C85.7823 140.307 89.1712 137.885 91.1816 135.351C91.1816 135.351 89.7456 139.068 89.1138 141.715C88.6543 143.63 101.923 129.831 108.931 119.017C108.931 119.073 109.103 118.566 108.011 117.609Z" fill="#E55110"/>
<path d="M82.3358 143.406C82.3358 143.406 70.8479 148.25 61.7149 154.164C52.582 160.078 45 172.469 45 172.469L47.0104 174.103L53.5585 169.259C53.5585 169.259 50.629 173.596 49.5377 176.018L51.663 177.538L50.5142 178.777L54.5924 180.298L53.2713 181.932L55.1094 182.833C55.1094 182.833 63.4381 178.158 68.8949 172.188C68.8949 172.188 66.425 177.313 65.0464 180.354C65.0464 180.354 66.5973 181.537 68.0907 182.101C68.0907 182.101 76.5344 172.357 82.4507 162.725C88.367 153.094 89.0562 149.827 89.0562 149.827C89.0562 149.827 87.9074 148.363 86.0119 146.335C84.2313 144.533 82.3358 143.406 82.3358 143.406Z" fill="#E55110"/>
<path d="M46.0914 173.314L47.0105 174.046L53.5586 169.202C53.5586 169.202 62.5767 157.374 69.7566 152.361C69.8141 152.418 54.0756 161.598 46.0914 173.314Z" fill="#E0A075"/>
<path d="M50.5717 176.749L51.7204 177.537C51.7204 177.537 63.7253 163.175 71.652 157.599C71.652 157.655 59.4748 165.315 50.5717 176.749Z" fill="#E0A075"/>
<path d="M53.2712 179.847L54.5924 180.354C54.5924 180.354 64.0125 167.738 71.1925 160.866C71.2499 160.866 59.3599 171.004 53.2712 179.847Z" fill="#E0A075"/>
<path d="M54.5925 182.719C54.5925 182.719 69.5842 172.355 76.4196 159.119C76.4196 159.119 74.9836 171.51 55.1094 183L54.5925 182.719Z" fill="#E0A075"/>
<path opacity="0.9" d="M86.0695 146.391C84.2889 144.533 82.3359 143.406 82.3359 143.406C82.3359 143.406 77.9704 145.265 72.5137 148.025C74.6389 146.955 80.268 144.42 82.8528 145.49C86.012 146.842 85.093 158.501 67.1718 181.706C67.4016 181.819 67.9759 182.101 68.2057 182.157C68.2057 182.157 76.6493 172.413 82.5656 162.782C88.4819 153.15 89.1712 149.883 89.1712 149.883C89.1712 149.883 88.0224 148.419 86.0695 146.391Z" fill="#E0A075"/>
<path opacity="0.7" d="M54.937 181.312C54.937 181.312 71.135 167.288 76.4195 156.981C81.7039 146.673 79.8659 145.096 73.7198 147.856C62.5191 152.869 53.2138 162.162 53.2138 162.162C53.2138 162.162 65.4485 153.263 73.4326 149.94C73.4326 149.94 62.7488 157.375 54.5349 169.71C54.5349 169.71 70.1011 154.108 77.3385 151.236C77.3385 151.236 73.088 157.6 67.7461 161.374C67.7461 161.374 72.8008 158.22 75.0409 156.136C75.0983 156.136 66.7121 171.23 54.937 181.312Z" fill="#E55110"/>
<path opacity="0.8" d="M129.321 124.987C129.321 124.987 125.817 124.931 118.178 121.664C120.476 124.762 123.348 131.69 115.076 138.561C105.656 146.39 93.0194 147.967 86.8159 147.235C88.3094 148.812 89.1135 149.882 89.1135 149.882C89.1135 149.882 101.291 150.164 115.536 141.321C126.105 134.787 132.136 128.029 129.321 124.987Z" fill="#E0A075"/>
</svg>
