<svg width="200" height="200" viewBox="0 0 200 200" fill="none" xmlns="http://www.w3.org/2000/svg">
<path d="M86.9198 78.4857C86.9198 77.4352 86.0164 76.985 85.2635 77.1351C84.8118 76.3847 84.2096 75.7845 83.1556 76.2347C81.3488 76.8349 79.542 78.7858 78.6386 80.4365C77.7352 82.0873 77.5846 84.6384 79.542 85.5388C80.2948 85.839 81.6499 85.3887 82.5533 85.3887C83.6073 85.3887 84.5107 85.2387 85.4141 84.6384C87.2209 83.1377 86.9198 80.5866 86.9198 78.4857Z" fill="#D2CCDB"/>
<path d="M96.1045 66.1798C96.1045 65.1293 95.2011 64.6791 94.4483 64.8292C93.9966 64.0788 93.3943 63.4786 92.3404 63.9288C90.5336 64.529 88.7268 66.4799 87.8234 68.1306C86.92 69.6313 86.6188 72.3325 88.7268 73.2329C89.4796 73.533 90.8347 73.0828 91.7381 73.0828C92.7921 73.0828 93.6955 72.9328 94.5989 72.3325C96.4057 70.8318 96.1045 68.1306 96.1045 66.1798Z" fill="#D2CCDB"/>
<path d="M110.107 49.2222C110.107 48.1718 109.204 47.7216 108.451 47.8716C108 47.1213 107.397 46.521 106.343 46.9712C104.536 47.5715 102.73 49.5224 101.826 51.1731C100.923 52.6738 100.622 55.375 102.73 56.2754C103.483 56.5755 104.838 56.1253 105.741 56.1253C106.795 56.1253 107.698 55.9753 108.602 55.375C110.409 53.8743 110.258 51.1731 110.107 49.2222Z" fill="#D2CCDB"/>
<path d="M120.496 42.3204C120.496 41.2699 119.593 40.8197 118.84 40.9698C118.389 40.2194 117.786 39.6192 116.732 40.0694C114.925 40.6696 113.119 42.6205 112.215 44.2713C111.312 45.7719 111.161 48.4731 113.119 49.3735C113.872 49.6737 115.227 49.2235 116.13 49.2235C117.184 49.2235 118.087 49.0734 118.991 48.4731C120.948 46.8224 120.647 44.2713 120.496 42.3204Z" fill="#D2CCDB"/>
<path d="M95.6537 74.4339C95.6537 73.3834 94.7503 72.9332 93.9974 73.0833C93.5457 72.333 92.9435 71.7327 91.8895 72.1829C90.0827 72.7832 88.2759 74.734 87.3725 76.3848C86.4691 77.8855 86.3185 80.5867 88.2759 81.4871C89.0287 81.7872 90.3838 81.337 91.2872 81.337C92.3412 81.337 93.2446 81.1869 94.148 80.5867C95.9548 79.086 95.6537 76.5348 95.6537 74.4339Z" fill="#D2CCDB"/>
<path d="M129.229 80.5872C129.229 79.5368 128.326 79.0866 127.573 79.2366C127.121 78.4863 126.519 77.886 125.465 78.3362C123.658 78.9365 121.852 80.8874 120.948 82.5381C120.045 84.0388 119.894 86.74 121.852 87.6404C122.604 87.9405 123.96 87.4903 124.863 87.4903C125.917 87.4903 126.82 87.3402 127.724 86.74C129.53 85.2393 129.229 82.5381 129.229 80.5872Z" fill="#D2CCDB"/>
<path d="M134.8 67.5311C134.8 66.4806 133.897 66.0304 133.144 66.1805C132.692 65.4301 132.09 64.8299 131.036 65.2801C129.229 65.8803 127.423 67.8312 126.519 69.482C125.616 70.9826 125.315 73.6838 127.423 74.5842C128.175 74.8844 129.53 74.4342 130.434 74.4342C131.488 74.4342 132.391 74.2841 133.295 73.6838C135.101 72.1832 134.8 69.4819 134.8 67.5311Z" fill="#D2CCDB"/>
<path d="M143.684 55.9757C143.684 54.9252 142.78 54.475 142.028 54.6251C141.576 53.8747 140.974 53.2745 139.92 53.7247C138.113 54.3249 136.306 56.2758 135.403 57.9265C134.499 59.4272 134.198 62.1284 136.306 63.0288C137.059 63.3289 138.414 62.8787 139.317 62.8787C140.371 62.8787 141.275 62.7287 142.178 62.1284C143.985 60.6277 143.684 57.9265 143.684 55.9757Z" fill="#D2CCDB"/>
<path d="M137.661 56.8763C137.661 55.8258 136.758 55.3756 136.005 55.5257C135.553 54.7754 134.951 54.1751 133.897 54.6253C132.09 55.2256 130.283 57.1764 129.38 58.8272C128.477 60.3278 128.175 63.029 130.283 63.9294C131.036 64.2296 132.391 63.7794 133.295 63.7794C134.349 63.7794 135.252 63.6293 136.156 63.029C137.962 61.5284 137.661 58.8272 137.661 56.8763Z" fill="#D2CCDB"/>
<path d="M129.079 75.1842C129.079 74.1337 128.176 73.6835 127.423 73.8336C126.971 73.0832 126.369 72.483 125.315 72.9332C123.508 73.5334 121.701 75.4843 120.798 77.135C119.895 78.6357 119.593 81.3369 121.701 82.2373C122.454 82.5374 123.809 82.0872 124.713 82.0872C125.767 82.0872 126.67 81.9372 127.573 81.3369C129.38 79.8362 129.079 77.135 129.079 75.1842Z" fill="#D2CCDB"/>
<path d="M81.0479 90.1905C81.0479 89.14 80.1445 88.6898 79.3917 88.8399C78.94 88.0896 78.3377 87.4893 77.2837 87.9395C75.4769 88.5398 73.6701 90.4906 72.7667 92.1414C71.8633 93.642 71.5622 96.3432 73.6701 97.2437C74.423 97.5438 75.7781 97.0936 76.6815 97.0936C77.7354 97.0936 78.6388 96.9435 79.5422 96.3432C81.349 94.8426 81.1985 92.1414 81.0479 90.1905Z" fill="#D2CCDB"/>
<path d="M140.372 75.3337C139.769 74.5834 138.715 74.5834 138.113 75.0336C137.962 75.0336 137.812 75.0336 137.661 75.0336C135.102 76.084 133.445 80.8862 134.499 83.4373C134.801 84.1876 135.403 84.6378 136.306 84.4878C139.619 83.5874 142.781 78.335 140.372 75.3337Z" fill="#DFD8E7"/>
<path d="M143.383 69.4813C143.383 68.4308 142.479 67.9806 141.726 68.1307C141.275 67.3803 140.672 66.7801 139.618 67.2303C137.812 67.8305 136.005 69.7814 135.101 71.4321C134.198 72.9328 133.897 75.634 136.005 76.5344C136.758 76.8346 138.113 76.3844 139.016 76.3844C140.07 76.3844 140.974 76.2343 141.877 75.634C143.684 74.1333 143.383 71.5822 143.383 69.4813Z" fill="#D2CCDB"/>
<path d="M124.712 86.7391C124.712 85.6887 123.658 84.7883 122.604 85.5386C120.948 86.7391 119.593 88.3899 118.991 90.4908C118.69 91.5413 118.238 93.6422 119.593 94.2425C121.4 95.1429 123.056 93.3421 124.11 91.9915C125.013 90.6409 125.766 88.2398 124.712 86.7391Z" fill="#D2CCDB"/>
<path d="M58.0111 165.825C57.8605 164.625 56.5054 164.024 55.4515 163.874C55.3009 163.874 55.3009 163.874 55.1503 163.874C54.548 163.424 53.9458 163.124 53.1929 162.824C51.8378 162.524 50.6333 162.974 49.7299 164.024C48.9771 164.925 49.2782 166.575 50.1816 167.326C51.085 167.926 52.139 168.226 53.1929 168.526C55.3009 168.976 58.3122 168.676 58.0111 165.825Z" fill="#D2CCDB"/>
<path d="M89.4798 155.771C88.8775 154.72 87.3719 154.57 86.3179 154.87C86.1673 154.87 86.1673 154.87 86.0167 154.87C85.2639 154.72 84.5111 154.57 83.7582 154.57C82.4031 154.72 81.4997 155.621 81.048 156.821C80.5963 157.872 81.4997 159.372 82.7043 159.673C83.7582 159.973 84.9628 159.823 86.0167 159.673C87.9741 159.673 90.6843 158.172 89.4798 155.771Z" fill="#D2CCDB"/>
<path d="M98.2125 144.066C97.6102 143.015 96.1045 142.865 95.0506 143.165C94.9 143.165 94.9 143.165 94.7494 143.165C93.9966 143.015 93.2438 142.865 92.4909 143.015C91.1358 143.165 90.2324 144.066 89.7807 145.266C89.329 146.317 90.383 147.817 91.437 148.118C92.4909 148.418 93.6955 148.268 94.5989 148.268C96.7068 147.967 99.417 146.467 98.2125 144.066Z" fill="#D2CCDB"/>
<path d="M108.15 135.511C108 134.611 107.247 133.861 106.343 134.011C105.59 133.56 104.537 133.861 104.235 134.911C104.085 135.511 103.934 136.262 103.784 137.012C103.633 137.312 103.633 137.462 103.483 137.762C103.483 137.762 103.483 137.762 103.483 137.912V138.063C103.483 138.063 103.483 138.063 103.483 138.213C103.332 138.513 103.332 138.813 103.332 139.113C103.031 140.914 102.88 144.365 105.44 144.365C107.849 144.365 109.204 142.264 109.656 140.163C109.806 138.213 109.204 136.712 108.15 135.511Z" fill="#D2CCDB"/>
<path d="M99.1166 135.211C98.966 134.311 98.2132 133.561 97.3098 133.711C96.557 133.26 95.503 133.561 95.2019 134.611C95.0513 135.211 94.9007 135.962 94.7502 136.712C94.5996 137.012 94.5996 137.162 94.449 137.312C94.449 137.312 94.449 137.312 94.449 137.462V137.612C94.449 137.612 94.449 137.612 94.449 137.762C94.2985 138.063 94.2985 138.363 94.1479 138.663C93.8468 140.464 93.6962 143.915 96.2558 143.915C98.6649 143.915 100.02 141.814 100.472 139.713C100.773 138.063 100.171 136.412 99.1166 135.211Z" fill="#D2CCDB"/>
<path d="M115.377 124.856C115.076 124.106 114.473 123.806 113.871 123.806C113.42 123.656 112.968 123.806 112.667 123.956C111.914 124.256 111.312 124.856 110.86 125.457C110.408 125.457 109.956 125.607 109.655 126.057C109.354 126.507 109.053 126.957 108.903 127.407C108.752 127.557 108.601 127.708 108.451 128.008C107.547 129.208 107.246 131.159 108.601 132.21C110.107 133.26 112.667 131.159 113.871 130.259C115.678 128.908 116.13 127.107 115.377 124.856Z" fill="#D2CCDB"/>
<path d="M151.212 49.0726C150.61 47.5719 150.008 46.0712 148.351 45.471C147.749 45.3209 147.298 45.471 146.996 45.7711C146.545 45.9212 146.394 46.2213 146.244 46.6715C145.792 48.1722 146.244 49.8229 146.846 51.0235C147.448 52.3741 148.803 53.5746 150.309 52.9743C151.815 52.224 151.664 50.2731 151.212 49.0726Z" fill="#D2CCDB"/>
<path d="M120.797 108.648C120.797 108.648 120.797 108.498 120.647 108.498C120.647 108.198 120.647 107.898 120.647 107.598C120.647 107.148 120.346 106.848 119.894 106.698C118.238 106.247 116.581 109.399 115.829 111.05C114.925 113 114.473 115.852 116.28 116.452C117.334 116.752 119.442 116.152 120.195 114.801C121.4 113 121.55 110.299 120.797 108.648Z" fill="#D2CCDB"/>
<path d="M153.17 57.3271C152.868 55.9765 151.363 56.1265 150.61 56.8769C150.309 56.8769 150.008 57.0269 149.857 57.3271C148.803 58.5276 147.9 60.1783 147.749 61.8291C147.599 63.4798 147.749 65.2806 149.706 65.5808C154.224 65.7308 153.922 60.0283 153.17 57.3271Z" fill="url(#paint0_linear_9002_27149)"/>
<path d="M150.761 51.3239C150.309 49.523 148.653 48.3225 146.997 49.523C146.093 50.1233 146.093 51.624 146.093 52.5244C146.093 54.3252 146.545 58.0769 149.105 57.6267C150.761 57.3265 151.062 55.9759 151.062 54.6253C151.213 53.5749 151.062 52.2243 150.761 51.3239Z" fill="#DFD8E7"/>
<path d="M139.619 86.1386C139.468 85.5384 138.866 85.0882 138.263 85.0882H138.113C137.661 84.9381 137.36 85.0882 136.908 85.3883C136.005 85.6884 135.102 86.2887 134.198 87.039C132.693 88.0895 132.241 90.0404 131.94 91.8412C131.639 93.3419 133.596 94.0922 134.349 93.3419C135.553 93.1918 136.758 91.5411 137.511 90.7907C138.715 89.4401 139.92 87.9394 139.619 86.1386Z" fill="url(#paint1_linear_9002_27149)"/>
<path d="M121.4 100.696C120.949 100.396 120.497 100.245 119.895 100.396C119.292 100.245 118.69 100.245 118.238 100.996C117.486 102.496 117.787 103.847 117.937 105.348C117.937 106.548 118.088 108.199 119.443 108.649C121.25 109.099 122.304 106.848 122.605 105.498C122.906 103.697 122.755 101.746 121.4 100.696Z" fill="url(#paint2_linear_9002_27149)"/>
<path d="M126.519 99.6447C126.369 99.0444 125.917 98.7443 125.465 98.5942C123.809 97.8439 122.755 99.1945 122.303 100.845C122.002 102.346 121.55 104.297 122.002 105.797C122.604 107.748 125.164 106.848 125.917 105.647C127.121 103.847 127.121 101.596 126.519 99.6447Z" fill="#DFD8E7"/>
<path d="M122.454 94.693C122.304 94.0928 121.852 93.7926 121.4 93.6426C119.744 92.8922 118.539 94.2428 118.238 95.8936C117.937 97.3942 117.485 99.3451 117.937 100.846C118.539 102.797 121.099 101.896 121.852 100.696C123.056 98.8949 123.056 96.6439 122.454 94.693Z" fill="#DFD8E7"/>
<path d="M118.689 102.196C118.689 100.996 118.539 99.7951 117.786 99.0448C115.226 96.6437 113.57 102.947 113.42 104.297C113.269 105.348 113.42 106.698 114.172 107.599C114.925 108.499 116.582 108.349 117.485 108.049C120.346 107.148 119.743 104.147 118.689 102.196Z" fill="#DFD8E7"/>
<path d="M145.039 45.4707C145.039 45.3206 144.888 45.0205 144.587 44.8704C143.684 43.8199 141.877 44.7203 142.027 45.9209C141.576 47.2715 141.726 48.9222 141.877 50.2728C142.027 51.6234 142.178 53.8744 144.135 53.2742C145.641 52.824 146.093 51.3233 146.243 49.8226C146.544 48.472 145.792 46.8213 145.039 45.4707Z" fill="#DFD8E7"/>
<path d="M141.124 40.3684C140.823 39.7681 140.221 39.468 139.468 39.7681C137.511 40.3684 137.661 42.1692 137.812 43.97C137.962 45.6207 138.565 47.8717 140.823 47.5716C144.738 46.8213 143.985 41.719 141.124 40.3684Z" fill="url(#paint3_linear_9002_27149)"/>
<path d="M136.005 38.2674C135.554 37.5171 134.951 36.9168 134.198 36.4666C133.295 35.8664 132.241 35.8664 131.187 35.7163C130.735 35.4162 130.284 35.4162 129.832 35.7163C127.724 36.7668 129.079 39.0178 130.133 40.2183C131.488 41.719 133.446 43.0696 135.403 42.3193C137.36 41.719 136.758 39.6181 136.005 38.2674Z" fill="url(#paint4_linear_9002_27149)"/>
<path d="M146.545 53.1245C146.545 52.3742 146.394 51.7739 146.244 51.1736C145.942 49.823 144.286 49.823 143.533 50.8735C142.178 52.5242 142.479 55.0754 142.479 57.0262C142.479 58.5269 142.028 61.3782 143.985 61.9784C145.491 62.4286 147.749 60.6278 148.201 59.2772C148.954 56.8762 148.05 54.7752 146.545 53.1245Z" fill="url(#paint5_linear_9002_27149)"/>
<path d="M133.144 86.4395C132.843 85.5391 132.09 85.2389 131.488 85.389C130.886 84.9388 130.133 85.0889 129.531 85.5391C127.423 87.3399 125.315 91.5418 126.068 94.393C126.218 94.8432 126.67 95.2934 127.122 95.4435C131.338 96.0438 134.048 89.891 133.144 86.4395Z" fill="#DFD8E7"/>
<path d="M88.275 76.6846C87.9738 75.7842 87.221 75.4841 86.6187 75.6341C86.0165 75.1839 85.2636 75.334 84.6614 75.7842C82.5534 77.585 80.4455 81.7869 81.1983 84.6381C81.3489 85.0884 81.65 85.5386 82.2523 85.6886C86.4682 86.2889 89.0278 80.1361 88.275 76.6846Z" fill="#DFD8E7"/>
<path d="M101.977 63.6294C101.675 62.729 100.923 62.4289 100.32 62.579C99.7181 62.1288 98.9653 62.2788 98.363 62.729C96.2551 64.5298 94.1472 68.7317 94.9 71.583C95.0506 72.0332 95.3517 72.4834 95.954 72.6334C100.17 73.2337 102.729 66.9309 101.977 63.6294Z" fill="#DFD8E7"/>
<path d="M104.837 55.6746C104.686 54.7742 103.783 54.4741 103.181 54.6241C102.578 54.1739 101.826 54.1739 101.223 54.7742C99.1154 56.575 97.0075 60.7769 97.7603 63.6281C97.9109 64.0783 98.212 64.5286 98.8143 64.6786C103.181 65.2789 105.74 58.9761 104.837 55.6746Z" fill="#DFD8E7"/>
<path d="M112.818 45.4712C112.517 44.5708 111.764 44.2707 111.162 44.4208C110.559 43.9706 109.807 44.1206 109.204 44.5708C107.096 46.3716 104.988 50.5735 105.741 53.4248C105.892 53.875 106.344 54.3252 106.795 54.4752C111.162 55.0755 113.721 48.9228 112.818 45.4712Z" fill="#DFD8E7"/>
<path d="M123.809 39.0188C123.658 38.1184 122.755 37.8183 122.152 37.9684C121.55 37.5182 120.797 37.6682 120.195 38.1184C118.087 39.9192 115.979 44.1211 116.732 46.9724C116.883 47.4226 117.184 47.8728 117.786 48.0228C122.152 48.6231 124.712 42.4704 123.809 39.0188Z" fill="#DFD8E7"/>
<path d="M133.295 72.9339C132.994 72.0335 132.241 71.7333 131.639 71.8834C131.036 71.4332 130.284 71.5833 129.681 72.0335C127.573 73.8343 125.466 78.0361 126.218 80.8874C126.369 81.3376 126.67 81.7878 127.272 81.9379C131.639 82.5382 134.198 76.3854 133.295 72.9339Z" fill="#DFD8E7"/>
<path d="M135.703 49.673C135.553 48.7726 134.649 48.6225 134.047 48.7726C133.445 48.3224 132.692 48.3224 132.09 48.9226C129.982 50.7234 127.874 54.9253 128.627 57.7766C128.777 58.2268 129.078 58.677 129.681 58.8271C133.897 59.2773 136.456 52.9744 135.703 49.673Z" fill="#DFD8E7"/>
<path d="M132.09 60.9273C131.939 60.0269 131.036 59.7267 130.434 59.8768C129.831 59.4266 129.079 59.4266 128.476 60.0269C126.368 61.8277 124.26 66.0296 125.013 68.8808C125.164 69.331 125.465 69.7812 126.067 69.9313C130.434 70.5316 132.993 64.3788 132.09 60.9273Z" fill="#DFD8E7"/>
<path d="M83.3067 84.4876C83.3067 83.5872 82.5539 83.137 81.801 83.2871C81.3493 82.8369 80.5965 82.6868 79.8437 82.987C77.4346 84.3376 74.5738 88.2393 74.8749 91.0906C74.8749 91.5408 75.1761 92.141 75.6278 92.2911C79.8437 93.6417 83.4573 87.9392 83.3067 84.4876Z" fill="#DFD8E7"/>
<path d="M139.92 61.5288C139.619 60.6284 138.866 60.3283 138.264 60.4784C137.661 60.0282 136.908 60.1782 136.306 60.6284C134.198 62.4292 132.09 66.6311 132.843 69.4824C132.994 69.9326 133.295 70.3828 133.897 70.5329C138.113 71.1331 140.823 64.8303 139.92 61.5288Z" fill="#DFD8E7"/>
<path d="M127.272 91.2417C127.121 90.6414 126.82 90.3413 126.369 90.3413C126.068 89.741 125.315 89.4409 124.712 89.741C123.96 89.8911 123.508 90.4914 123.207 91.0916C123.056 91.3918 123.056 91.842 122.906 92.1421C122.906 91.5418 122.454 92.7424 122.303 92.8924C121.701 94.243 121.099 96.9442 122.303 98.1448C123.658 99.3453 125.465 98.4449 126.519 97.2444C128.175 95.5936 127.874 93.3426 127.272 91.2417Z" fill="url(#paint6_linear_9002_27149)"/>
<path d="M131.488 94.8427C131.337 94.2424 130.886 93.9423 130.283 93.7923C130.133 93.6422 130.133 93.6422 129.982 93.4921C128.025 92.2916 125.766 95.7431 125.164 97.2438C124.712 98.2943 124.562 99.3447 124.712 100.545C124.863 101.896 126.67 102.196 127.724 101.596C129.832 100.245 131.789 97.3939 131.488 94.8427Z" fill="url(#paint7_linear_9002_27149)"/>
<path d="M121.4 115.703C121.249 115.102 120.798 114.802 120.195 114.652C120.045 114.502 120.045 114.502 119.894 114.352C117.937 113.151 115.678 116.603 115.076 118.104C114.624 119.154 114.474 120.205 114.624 121.405C114.775 122.756 116.582 123.056 117.636 122.456C119.744 121.105 121.701 118.254 121.4 115.703Z" fill="url(#paint8_linear_9002_27149)"/>
<path d="M124.713 106.249C124.562 105.648 124.111 105.348 123.508 105.198C123.358 105.048 123.358 105.048 123.207 104.898C121.25 103.698 118.991 107.149 118.389 108.65C117.937 109.7 117.787 110.751 117.937 111.951C118.088 113.302 119.895 113.602 120.949 113.002C123.057 111.651 125.165 108.8 124.713 106.249Z" fill="url(#paint9_linear_9002_27149)"/>
<path d="M152.116 65.8803C151.965 65.28 151.513 64.9799 150.911 64.8298C150.761 64.6798 150.761 64.6798 150.61 64.5297C148.653 63.3292 146.394 66.7807 145.792 68.2814C145.34 69.3319 145.19 70.3823 145.34 71.5829C145.491 72.9335 147.298 73.2336 148.351 72.6333C150.459 71.2827 152.567 68.4315 152.116 65.8803Z" fill="url(#paint10_linear_9002_27149)"/>
<path d="M123.056 97.2453C122.906 96.645 122.454 96.3449 121.852 96.1948C121.701 96.0448 121.701 96.0448 121.55 95.8947C119.593 94.6942 117.335 98.1457 116.732 99.6464C116.281 100.697 116.13 101.747 116.281 102.948C116.431 104.298 118.238 104.599 119.292 103.998C121.55 102.648 123.508 99.7964 123.056 97.2453Z" fill="url(#paint11_linear_9002_27149)"/>
<path d="M140.974 79.8364C140.823 79.2361 140.372 78.936 139.769 78.7859C139.619 78.6358 139.619 78.6358 139.468 78.4858C137.511 77.2852 135.252 80.7368 134.65 82.2374C134.198 83.2879 134.048 84.3384 134.198 85.5389C134.349 86.8895 136.156 87.1896 137.21 86.5894C139.318 85.2388 141.275 82.3875 140.974 79.8364Z" fill="url(#paint12_linear_9002_27149)"/>
<path d="M137.059 69.032C136.909 68.7319 136.758 68.4317 136.607 68.2817C134.048 65.7305 132.392 72.4835 132.241 73.8341C132.09 75.0347 131.789 76.6854 132.994 77.4358C132.843 77.4358 132.542 77.5858 132.392 77.7359C131.488 78.3362 131.036 79.0865 130.735 79.9869C130.284 79.6868 129.832 79.6868 129.38 79.9869C128.025 80.8873 126.971 82.538 126.218 84.0387C125.616 85.0892 124.562 86.89 125.315 88.0905C126.369 89.7412 128.176 88.9909 129.23 87.6403C129.832 86.89 130.284 86.1396 130.735 85.3893C131.187 85.9896 131.94 86.4398 132.693 85.9896C134.801 84.3388 134.499 81.4876 135.102 79.2366C135.252 78.7864 135.102 78.3362 134.801 78.036C135.855 78.036 136.758 77.5858 137.511 76.8355C139.619 74.8846 139.318 70.6827 137.059 69.032Z" fill="url(#paint13_linear_9002_27149)"/>
<path d="M98.3633 58.6773C98.2128 58.3771 98.0622 58.077 97.9116 57.9269C95.352 55.3758 93.6957 62.1288 93.5452 63.4794C93.3946 64.6799 93.0935 66.3307 94.298 67.081C94.1475 67.081 93.8463 67.2311 93.6957 67.3812C92.7923 67.9814 92.3406 68.7318 92.0395 69.6322C91.5878 69.332 91.1361 69.332 90.6844 69.6322C89.3293 70.5326 88.2753 72.1833 87.5225 73.684C86.9202 74.7344 85.8663 76.5352 86.6191 77.7358C87.6731 79.3865 89.6304 78.6362 90.5338 77.2856C91.1361 76.5352 91.5878 75.7849 92.0395 75.0346C92.4912 75.6348 93.244 76.085 93.9969 75.6348C96.1048 74.1342 95.8037 71.1328 96.406 68.8818C96.5565 68.4316 96.406 67.9814 96.1048 67.6813C97.1588 67.6813 98.0622 67.2311 98.815 66.6308C100.772 64.6799 100.471 60.328 98.3633 58.6773Z" fill="url(#paint14_linear_9002_27149)"/>
<path d="M149.857 60.7778C149.255 60.0275 148.201 60.0275 147.599 60.4777C147.448 60.4777 147.297 60.4777 146.996 60.4777C144.437 61.5281 142.78 66.3303 143.834 68.8814C144.136 69.6317 144.738 70.0819 145.641 69.9319C149.104 69.0315 152.116 63.9292 149.857 60.7778Z" fill="#DFD8E7"/>
<path d="M144.136 73.0826C145.491 71.582 146.394 69.7812 146.545 67.6802C146.545 67.23 146.394 66.6298 146.093 66.0295C146.846 64.6789 144.588 63.3283 143.534 64.829C143.383 64.829 143.383 64.979 143.232 65.1291C142.931 65.4292 142.781 65.8794 142.63 66.1796C142.028 67.3801 141.576 68.5806 141.125 69.7812C140.974 70.2314 140.823 70.5315 140.673 70.9817C140.372 71.2818 140.071 71.582 140.071 72.1823C140.221 74.1331 141.727 75.1836 143.383 73.9831C143.534 73.6829 143.835 73.3828 144.136 73.0826Z" fill="url(#paint15_linear_9002_27149)"/>
<path d="M144.437 59.8776C144.437 58.9772 143.684 58.527 143.082 58.527C142.63 58.2269 142.028 58.0768 141.425 58.377C139.92 59.2774 138.866 61.2282 138.264 62.879C137.661 64.2296 137.21 67.5311 138.866 68.4315C140.371 69.3319 142.178 67.5311 143.082 66.4806C144.437 64.3797 144.738 62.2787 144.437 59.8776Z" fill="#DFD8E7"/>
<path d="M141.877 47.8728C141.877 46.9724 141.124 46.5222 140.522 46.5222C140.07 46.222 139.468 46.072 138.866 46.3721C137.36 47.2725 136.306 49.2234 135.704 50.8741C135.102 52.2247 134.65 55.5262 136.306 56.4266C137.812 57.327 139.619 55.5262 140.522 54.4757C141.877 52.3748 142.028 50.1238 141.877 47.8728Z" fill="#DFD8E7"/>
<path d="M80.1442 165.675C79.3914 165.225 78.3374 165.525 77.434 165.525C76.0789 165.525 74.7238 165.375 73.5193 165.375C73.3687 165.375 73.2182 165.375 73.2182 165.375C72.917 165.375 72.7665 165.375 72.4653 165.525C72.3148 165.675 72.1642 165.675 72.0136 165.825C71.863 165.675 71.7125 165.525 71.4113 165.375C69.9057 164.775 68.5506 165.675 67.346 166.426C66.2921 167.176 65.3887 168.376 65.3887 169.727C65.3887 171.078 66.4426 171.978 67.4966 172.128C68.7011 172.428 69.7551 172.278 70.8091 171.528C71.4113 171.078 72.0136 170.477 72.4653 169.727C73.2182 169.877 74.1216 169.877 74.7238 169.877C75.9284 169.877 76.9823 169.877 78.1869 169.577C79.542 169.277 82.5533 167.026 80.1442 165.675Z" fill="#D2CCDB"/>
<path d="M60.5712 160.873C60.1195 159.972 59.2161 159.672 58.4632 159.072C57.4093 158.321 56.3553 157.421 55.3013 156.671C55.1508 156.671 55.1508 156.521 55.0002 156.521C54.8496 156.371 54.5485 156.22 54.2474 156.22C54.0968 156.22 53.9462 156.22 53.7957 156.22C53.7957 155.92 53.6451 155.77 53.4945 155.47C52.5911 154.27 50.9349 153.969 49.5798 153.969C48.2247 153.969 46.8696 154.42 46.1167 155.62C45.3639 156.671 45.665 158.021 46.4179 158.922C47.1707 159.822 48.2247 160.272 49.4292 160.422C50.182 160.422 51.0854 160.272 51.8383 159.822C52.29 160.422 53.0428 160.873 53.6451 161.323C54.5485 161.923 55.6025 162.673 56.6564 163.124C58.0115 163.574 61.7757 163.424 60.5712 160.873Z" fill="#D2CCDB"/>
<path d="M76.8325 161.323C76.5314 161.173 76.2303 161.173 75.7786 161.323C73.8212 161.923 72.165 163.574 69.9065 162.973C68.2502 162.523 67.4974 164.624 68.5514 165.525C68.5514 165.525 68.5514 165.525 68.5514 165.675C69.6053 167.175 71.7133 167.025 73.3695 166.725C75.0257 166.425 76.9831 164.924 77.8865 163.574C78.7899 162.373 77.7359 161.323 76.8325 161.323Z" fill="url(#paint16_linear_9002_27149)"/>
<path d="M88.8776 157.571C88.4259 157.121 87.8237 156.971 87.2214 157.271C84.3606 158.471 81.4999 161.623 81.0481 164.624C80.8976 166.125 81.3493 167.325 83.0055 167.625C84.6618 167.925 86.1674 166.425 87.0708 165.374C88.1248 164.024 91.2867 158.771 88.8776 157.571Z" fill="url(#paint17_linear_9002_27149)"/>
<path d="M93.5454 155.92C91.588 155.47 89.3295 156.971 88.5767 158.621C88.2756 159.522 87.9744 160.572 88.4261 161.473C89.0284 162.673 90.3835 162.823 91.588 162.373C92.9432 161.773 95.0511 159.822 94.2983 158.021C94.75 157.421 94.75 156.07 93.5454 155.92Z" fill="#DFD8E7"/>
<path d="M59.5171 169.727C59.2159 167.776 56.9574 166.126 55.0001 166.126C54.0967 166.126 52.8921 166.276 52.2899 167.026C51.537 168.077 51.6876 169.277 52.7416 170.178C53.7955 171.228 56.3552 172.429 57.7103 171.078C58.6137 171.378 59.6676 170.778 59.5171 169.727Z" fill="#DFD8E7"/>
<path d="M75.7777 169.277C74.4226 167.777 71.7124 167.476 70.0561 168.527C69.1527 168.977 68.2493 169.727 68.2493 170.778C68.0988 172.129 69.0022 173.029 70.2067 173.329C71.7124 173.629 74.4226 173.329 75.0248 171.528C75.9282 171.228 76.5305 170.178 75.7777 169.277Z" fill="#DFD8E7"/>
<path d="M93.2436 149.167C93.2436 149.017 93.2436 148.867 93.0931 148.867C92.7919 147.816 91.1357 147.066 90.3829 148.416C89.9312 149.317 89.4795 150.217 89.0278 151.118C88.4255 152.168 87.8232 153.219 87.5221 154.419C87.221 155.62 87.221 158.021 88.7266 158.471C90.2323 158.921 91.5874 156.82 92.3402 155.77C93.6953 153.969 93.5448 151.118 93.2436 149.167Z" fill="url(#paint18_linear_9002_27149)"/>
<path d="M83.3068 158.772C83.1563 157.721 82.2529 157.571 81.5 157.871C81.1989 157.721 80.8978 157.721 80.4461 157.721C79.6932 158.021 79.091 158.472 78.4887 159.072C77.7359 159.672 77.1336 160.422 76.5313 161.173C75.9291 161.923 75.6279 162.823 75.6279 163.724C75.7785 164.774 76.2302 165.675 77.2842 165.675C81.0483 165.825 84.0597 162.223 83.3068 158.772Z" fill="url(#paint19_linear_9002_27149)"/>
<path d="M82.1017 168.976C82.4028 168.075 81.65 167.325 80.8971 167.325C80.7466 167.025 80.4454 166.875 79.9937 166.725C79.2409 166.575 78.3375 166.725 77.5847 167.025C76.6813 167.175 75.7779 167.475 74.8745 167.925C73.9711 168.376 73.2182 168.976 72.9171 169.726C72.4654 170.627 72.4654 171.677 73.5194 172.277C76.5307 174.078 81.0477 172.427 82.1017 168.976Z" fill="url(#paint20_linear_9002_27149)"/>
<path d="M72.7666 170.176C72.9171 169.126 72.1643 168.676 71.4114 168.676C71.2609 168.375 70.9597 168.225 70.508 168.225C69.7552 168.225 68.8518 168.525 68.2495 168.676C67.3461 168.976 66.4427 169.426 65.6899 170.026C64.9371 170.476 64.1842 171.227 63.8831 172.127C63.582 173.027 63.7325 174.078 64.7865 174.528C67.9484 176.029 72.1643 173.778 72.7666 170.176Z" fill="url(#paint21_linear_9002_27149)"/>
<path d="M69.7556 163.723C69.0027 162.522 67.3465 162.823 66.2925 162.973C64.6363 163.123 63.1306 163.423 61.9261 164.473C60.8721 165.374 60.8721 166.874 61.1733 168.075C61.625 169.576 62.9801 170.176 64.4857 170.026C66.4431 169.726 68.551 168.375 69.3039 166.574C69.9061 165.674 70.3578 164.623 69.7556 163.723Z" fill="url(#paint22_linear_9002_27149)"/>
<path d="M103.784 138.363C102.429 139.413 101.073 140.614 100.321 142.114C99.5678 143.615 98.9656 145.566 100.321 146.767C101.676 147.967 103.784 146.767 104.386 145.416C105.289 143.765 105.892 141.964 106.042 140.164C106.946 138.963 105.139 137.312 103.784 138.363Z" fill="#DFD8E7"/>
<path d="M109.957 127.707C107.849 126.056 105.892 129.358 105.139 130.858C104.988 131.309 104.838 131.909 104.838 132.509C104.386 132.359 103.934 132.509 103.633 132.659C102.128 132.809 100.772 134.61 100.02 135.661C98.3633 137.762 97.6105 141.063 98.5139 143.614C98.815 144.515 99.7185 144.965 100.622 144.515C102.278 143.614 103.633 141.363 104.386 139.712C104.988 138.512 105.591 137.161 105.892 135.811C106.343 136.111 106.795 136.111 107.548 135.661C108.301 135.36 108.752 134.76 109.054 134.31C109.204 134.16 109.355 134.16 109.355 133.86C109.957 132.809 110.108 131.759 110.258 130.558C110.409 129.808 110.86 128.307 109.957 127.707Z" fill="#DFD8E7"/>
<path d="M115.528 118.104C115.528 117.204 114.926 116.753 114.173 116.753C113.57 116.453 112.818 116.603 112.366 117.204C111.764 118.104 110.409 120.355 109.806 122.456C109.656 121.706 109.053 121.255 108.451 121.255C108.15 121.105 107.849 121.105 107.548 121.105C105.59 121.555 103.482 122.756 102.278 124.257C101.375 125.307 100.019 127.858 101.375 129.209C101.977 129.809 102.88 129.809 103.633 129.509H103.784C103.934 129.509 104.085 129.509 104.235 129.359C104.838 129.209 105.289 128.759 105.741 128.459C107.247 127.258 108.903 125.607 109.656 123.656C109.505 124.857 109.806 125.907 110.86 126.358C112.215 126.958 114.173 125.457 114.775 124.407C115.829 122.456 115.528 120.205 115.528 118.104Z" fill="#DFD8E7"/>
<path d="M100.17 139.862C99.7183 138.962 98.2126 138.662 97.7609 139.862C97.7609 139.862 97.7609 139.862 97.7609 140.012C96.4058 140.913 95.653 142.263 95.3519 143.764C94.599 144.965 94.1473 146.315 94.2979 147.966C94.4485 149.317 95.8036 150.217 97.0081 149.617C98.2126 149.016 98.9655 147.666 99.5677 146.465C100.17 144.815 100.772 143.164 100.923 141.513C100.923 140.763 100.622 140.163 100.17 139.862Z" fill="url(#paint23_linear_9002_27149)"/>
<path d="M104.687 128.009C104.386 127.558 103.784 127.258 103.181 127.408C101.525 127.709 100.471 129.659 99.7183 131.01C98.6643 132.661 98.062 134.462 98.3632 136.412C98.5137 137.013 99.116 137.463 99.7183 137.463C101.224 137.463 102.579 136.112 103.332 134.912C104.536 133.111 105.139 131.16 105.139 129.059C104.988 128.459 104.838 128.159 104.687 128.009Z" fill="url(#paint24_linear_9002_27149)"/>
<path d="M118.088 108.05C117.937 107.15 117.185 106.849 116.432 106.999C116.131 106.999 115.98 106.999 115.679 107.15C115.378 107.3 115.077 107.45 114.775 107.75C114.775 107.15 114.775 106.399 114.775 105.799C114.775 105.049 114.324 104.598 113.722 104.448C113.27 103.698 112.216 103.098 111.463 103.998C110.108 105.349 109.054 106.999 108.753 108.95C108.602 110.151 108.301 112.552 109.656 113.152C109.205 113.152 108.903 113.452 108.602 113.752C107.699 115.103 107.247 116.904 106.193 118.255C105.29 119.305 104.688 120.806 103.784 121.856C103.332 122.456 103.483 122.907 103.784 123.357C102.278 124.557 104.386 126.508 105.892 125.458C106.795 124.857 107.097 123.807 107.849 123.057C108.753 122.306 109.355 121.556 109.957 120.656C110.56 119.605 110.861 118.405 111.011 117.204C111.162 116.454 111.312 115.703 111.463 114.953C111.463 115.103 111.614 115.103 111.614 115.253C113.27 116.904 115.227 114.503 116.131 113.302C116.733 112.552 117.185 111.652 117.636 110.751C117.787 109.701 118.239 109.1 118.088 108.05Z" fill="url(#paint25_linear_9002_27149)"/>
<path d="M46.5683 156.671C45.966 156.371 45.5143 156.221 44.9121 156.071C44.1592 155.921 43.557 155.621 42.6536 155.621C41.449 155.621 40.9973 156.671 41.2985 157.421C41.1479 157.722 41.1479 158.172 41.2985 158.622C42.503 160.723 45.8155 161.473 47.6223 159.973C48.8268 159.072 47.6223 157.121 46.5683 156.671Z" fill="#D2CCDB"/>
<path d="M43.8582 147.667C43.4065 146.767 41.5997 146.616 41.148 147.967C40.9974 148.267 40.6963 148.567 40.3952 148.717C39.9435 149.168 39.6423 149.768 39.4917 150.368C39.1906 151.269 38.8895 152.319 39.04 153.219C39.7929 155.771 43.4065 155.32 44.1593 153.219C44.611 152.169 44.611 151.118 44.611 149.918C44.9122 148.867 44.611 147.967 43.8582 147.667Z" fill="url(#paint26_linear_9002_27149)"/>
<path d="M51.2359 164.624C52.591 164.924 54.0967 163.724 53.3439 162.373C53.1933 161.773 52.591 161.473 52.1393 161.322C52.2899 161.322 51.6876 160.872 51.6876 160.872C51.3865 160.722 51.0854 160.422 50.7842 160.272C50.7842 159.522 50.0314 159.071 49.4291 159.071C49.4291 158.771 49.4291 158.471 49.2786 158.321C49.128 158.021 48.9774 157.871 48.6763 157.571L48.3752 157.271C47.9234 156.82 47.7729 156.22 47.6223 155.62C47.4717 154.87 46.8695 154.419 46.1166 154.419C45.8155 154.269 45.5144 154.269 45.2132 154.269C43.4064 154.569 43.2559 156.22 43.4064 157.721C43.557 159.372 44.9121 160.122 46.5683 160.572C47.02 160.722 47.6223 160.722 48.074 160.572C48.074 160.722 48.074 160.872 48.074 161.022C47.1706 160.572 45.8155 161.172 45.9661 162.523C46.1166 163.423 46.4178 164.474 46.8695 165.224C47.1706 165.674 47.4717 166.125 47.9234 166.575C48.074 166.725 48.3752 166.875 48.5257 167.025C48.6763 167.025 48.8269 167.175 48.8269 167.175C48.8269 167.175 48.8269 167.175 48.9774 167.175C48.9774 167.325 49.128 167.325 49.128 167.325C50.4831 168.226 52.2899 166.425 51.0854 165.224C51.0854 165.224 51.0854 165.224 50.9348 165.074C50.9348 165.074 50.9348 165.074 50.9348 164.924C50.7842 164.774 50.7842 164.624 50.7842 164.474C50.7842 164.324 50.6337 164.174 50.6337 164.174C50.7842 164.474 50.9348 164.624 51.2359 164.624Z" fill="url(#paint27_linear_9002_27149)"/>
<path d="M98.8147 147.516C98.5136 146.315 97.1584 146.316 96.4056 146.916C96.255 146.916 96.1045 146.916 95.9539 147.066C94.1471 147.816 93.0931 149.467 92.1897 151.118C91.5875 152.318 90.6841 155.019 92.3403 155.92C93.9965 156.82 95.8033 154.869 96.7067 153.669C97.7607 152.018 99.417 149.467 98.8147 147.516Z" fill="#DFD8E7"/>
<path d="M61.3239 165.225C60.7216 164.775 59.6676 164.475 58.9148 164.325C57.8608 164.024 56.9574 163.724 56.054 163.124C55.4518 162.674 54.8495 162.824 54.3978 163.124C53.4944 163.274 52.8921 164.024 53.4944 165.075C54.3978 166.726 56.054 167.026 57.7103 167.626C59.0654 168.076 61.3239 168.526 61.9261 166.876C61.9261 166.275 61.7756 165.675 61.3239 165.225Z" fill="#DFD8E7"/>
<path d="M63.2812 164.924C62.5284 164.474 61.9261 164.774 61.4744 165.224C60.7216 164.924 59.8182 165.224 59.6676 166.124C59.3664 167.775 57.1079 168.075 56.6562 169.576C56.2045 171.377 58.1619 171.977 59.3664 172.127C61.0227 172.277 62.5284 170.927 63.2812 169.726C63.8835 168.976 64.3352 168.225 64.4857 167.175C64.6363 166.274 64.034 165.374 63.2812 164.924Z" fill="url(#paint28_linear_9002_27149)"/>
<path d="M60.8715 163.274C61.0221 162.523 60.5704 161.923 59.9681 161.773C59.9681 161.023 59.3659 160.272 58.4625 160.422C56.8062 160.723 55.7523 158.772 54.096 159.072C52.2892 159.372 52.4398 161.323 52.8915 162.673C53.3432 164.324 55.15 165.074 56.6557 165.375C57.5591 165.525 58.4625 165.675 59.5164 165.525C60.1187 165.074 60.721 164.174 60.8715 163.274Z" fill="url(#paint29_linear_9002_27149)"/>
<path d="M144.587 68.1304C143.834 68.1304 143.533 68.4305 143.232 69.0308C142.931 69.1808 142.63 69.3309 142.479 69.481C141.425 70.5314 141.124 72.4823 140.823 73.983C140.522 75.3336 140.371 77.1344 141.275 78.3349C141.726 79.0853 142.479 79.2353 143.232 78.7851C145.189 77.8847 146.695 74.7333 146.846 72.7824C147.147 71.1317 146.996 68.2804 144.587 68.1304Z" fill="url(#paint30_linear_9002_27149)"/>
<path d="M139.016 53.8743C138.264 53.8743 137.812 54.3245 137.661 54.7747C137.36 54.7747 137.059 54.9247 136.908 55.2249C135.854 56.2753 135.553 58.2262 135.252 59.7269C134.951 61.0775 134.8 62.8783 135.704 64.0788C136.156 64.8292 136.908 64.9792 137.661 64.529C139.619 63.6286 140.974 60.4772 141.275 58.5263C141.425 56.7255 141.425 53.8743 139.016 53.8743Z" fill="url(#paint31_linear_9002_27149)"/>
<path d="M145.942 44.7214C145.491 45.0216 145.491 45.3217 145.641 45.7719C145.491 45.922 145.34 46.072 145.34 46.3722C145.189 47.4226 145.792 48.6232 146.243 49.5236C146.545 50.424 147.297 51.4744 148.201 51.7746C148.803 51.9246 149.255 51.7746 149.556 51.3244C150.309 50.1238 149.706 47.7228 149.104 46.5222C148.502 45.3217 147.297 43.821 145.942 44.7214Z" fill="url(#paint32_linear_9002_27149)"/>
<path d="M150.459 51.3236C150.008 51.4737 149.857 51.7738 149.706 52.074C149.556 52.224 149.405 52.3741 149.255 52.5242C148.803 53.4246 148.954 54.7752 148.954 55.6756C148.954 56.576 149.255 57.7765 150.007 58.3768C150.459 58.6769 150.911 58.6769 151.363 58.3768C152.417 57.4764 152.868 55.0753 152.718 53.8748C152.567 52.6742 151.965 50.8734 150.459 51.3236Z" fill="url(#paint33_linear_9002_27149)"/>
<path d="M129.982 72.0333C129.53 71.5831 129.079 71.5831 128.777 71.8832C128.476 71.7332 128.326 71.7332 128.025 71.7332C126.82 71.7332 125.465 72.7836 124.411 73.3839C123.508 73.9842 122.303 75.0347 122.152 76.2352C122.002 76.9855 122.454 77.4357 123.056 77.5858C124.712 78.1861 127.422 77.1356 128.627 76.0851C129.831 75.1847 131.337 73.3839 129.982 72.0333Z" fill="url(#paint34_linear_9002_27149)"/>
<path d="M78.037 87.3387C77.5853 87.1887 77.2841 87.4888 77.1336 87.7889C76.983 87.7889 76.6819 87.939 76.5313 87.939C75.7784 88.5393 75.3267 89.7398 74.875 90.6402C74.5739 91.5406 74.2728 92.7412 74.7245 93.4915C75.0256 93.9417 75.4773 94.2418 75.929 94.0918C77.2841 93.7916 78.6392 91.8408 78.9404 90.4902C79.3921 89.4397 79.5426 87.6389 78.037 87.3387Z" fill="url(#paint35_linear_9002_27149)"/>
<path d="M84.9632 73.2343C84.5115 73.0842 84.2104 73.3843 84.0598 73.6845C83.9093 73.6845 83.6081 73.8345 83.4576 73.8345C82.5542 74.4348 82.253 75.6353 81.8013 76.5357C81.5002 77.4361 81.199 78.6367 81.6508 79.387C81.9519 79.8372 82.4036 80.1373 82.8553 79.9873C84.2104 79.6871 85.5655 77.7363 85.8666 76.3857C86.1678 75.4853 86.4689 73.5344 84.9632 73.2343Z" fill="url(#paint36_linear_9002_27149)"/>
<path d="M91.5874 65.7293C91.2863 65.4291 90.8346 65.4291 90.5335 65.7293C90.3829 65.7293 90.0818 65.5792 89.9312 65.7293C88.8772 65.8793 87.9738 66.7797 87.221 67.38C86.4682 67.9803 85.7153 68.8807 85.7153 69.9311C85.7153 70.5314 86.0165 70.8315 86.6187 70.9816C87.9738 71.2817 90.0818 70.0812 90.9852 69.1808C91.738 68.2804 92.9425 66.6297 91.5874 65.7293Z" fill="url(#paint37_linear_9002_27149)"/>
<path d="M85.7153 79.836C85.2636 79.3858 84.8119 79.3858 84.3602 79.686C84.2096 79.5359 83.9085 79.5359 83.6073 79.5359C82.2522 79.5359 81.0477 80.5864 79.9937 81.1867C79.0903 81.7869 77.8858 82.8374 77.7352 84.0379C77.5847 84.7883 78.0364 85.2385 78.6386 85.5386C80.2949 86.1389 83.0051 85.0884 84.2096 84.0379C85.5647 82.9875 87.0704 81.1866 85.7153 79.836Z" fill="url(#paint38_linear_9002_27149)"/>
<path d="M103.784 49.8228C103.332 49.6727 102.73 49.8228 102.579 50.1229C102.278 50.1229 102.128 50.1229 101.826 50.273C100.622 50.7232 99.869 52.2239 99.1162 53.1243C98.5139 54.0247 97.7611 55.3753 98.0622 56.5758C98.2128 57.3261 98.6645 57.6263 99.4173 57.6263C101.224 57.6263 103.181 55.5253 104.085 54.1747C104.687 52.8241 105.591 50.5731 103.784 49.8228Z" fill="url(#paint39_linear_9002_27149)"/>
<path d="M122.303 84.0382C121.701 83.8881 121.098 84.0382 120.797 84.4884C120.496 84.4884 120.195 84.4884 119.894 84.7885C118.539 85.5389 117.786 87.3397 117.033 88.6903C116.431 89.8908 115.829 91.6916 116.28 93.0422C116.581 93.7926 117.184 94.2428 118.087 94.0927C120.195 93.7926 122.454 91.0914 123.206 89.2906C123.809 87.4897 124.411 84.6385 122.303 84.0382Z" fill="url(#paint40_linear_9002_27149)"/>
<path d="M132.542 58.0776C131.789 58.0776 131.488 58.5278 131.187 58.978C130.886 59.1281 130.585 59.1281 130.434 59.4282C129.38 60.4787 129.079 62.4296 128.778 63.9302C128.477 65.2808 128.326 67.0817 129.23 68.2822C129.681 69.0325 130.434 69.1826 131.187 68.7324C133.144 67.832 134.499 64.6806 134.8 62.7297C134.951 60.9289 134.951 58.0776 132.542 58.0776Z" fill="url(#paint41_linear_9002_27149)"/>
<path d="M115.226 41.1188C114.775 40.6686 114.172 40.6686 113.721 40.9687C113.42 40.8186 113.118 40.8186 112.817 40.8186C111.312 40.9687 109.806 42.3193 108.601 43.2197C107.547 44.1201 106.192 45.4707 106.192 46.8213C106.192 47.7217 106.644 48.322 107.397 48.472C109.505 49.0723 112.516 47.5716 114.022 46.221C115.226 44.8704 117.033 42.6194 115.226 41.1188Z" fill="url(#paint42_linear_9002_27149)"/>
<path d="M101.977 58.0763C101.525 57.6261 100.923 57.6261 100.471 57.9262C100.17 57.7761 99.8691 57.7761 99.568 57.7761C98.0623 57.9262 96.5567 59.2768 95.3521 60.1772C94.2982 61.0776 92.943 62.4282 92.7925 63.7788C92.7925 64.6792 93.2442 65.2795 93.997 65.4296C96.105 66.0298 99.1163 64.5292 100.622 63.1786C101.977 61.828 103.633 59.577 101.977 58.0763Z" fill="url(#paint43_linear_9002_27149)"/>
<path d="M137.059 47.5717C136.607 47.2716 136.156 47.4217 135.855 47.5717C135.553 47.5717 135.403 47.4217 135.102 47.5717C133.897 47.8719 132.843 49.0724 132.09 49.8227C131.338 50.5731 130.434 51.7736 130.585 52.9741C130.585 53.7245 131.036 54.0246 131.639 54.1747C133.295 54.4748 135.553 52.8241 136.607 51.6235C137.511 50.5731 138.715 48.4721 137.059 47.5717Z" fill="url(#paint44_linear_9002_27149)"/>
<path d="M112.968 112.251C112.215 112.251 111.914 112.701 111.613 113.151C111.312 113.151 111.011 113.301 110.86 113.601C109.806 114.652 109.505 116.603 109.204 118.103C108.903 119.454 108.752 121.255 109.656 122.455C110.107 123.206 110.86 123.356 111.613 122.905C113.57 122.005 114.925 118.854 115.227 116.903C115.377 115.252 115.227 112.251 112.968 112.251Z" fill="url(#paint45_linear_9002_27149)"/>
<path d="M110.86 123.356C110.258 123.055 109.806 123.206 109.505 123.656C109.204 123.656 108.903 123.656 108.752 123.806C107.548 124.256 106.645 125.757 105.892 126.807C105.139 127.708 104.386 129.208 104.687 130.409C104.838 131.159 105.289 131.459 106.042 131.459C107.849 131.459 110.108 129.358 111.011 128.008C111.914 126.507 112.818 124.106 110.86 123.356Z" fill="url(#paint46_linear_9002_27149)"/>
<path d="M109.204 132.21C108.602 131.91 108.15 132.06 107.849 132.51C107.548 132.51 107.247 132.51 107.096 132.661C105.892 133.111 104.988 134.611 104.236 135.662C103.483 136.562 102.88 138.063 103.031 139.263C103.182 140.014 103.633 140.314 104.386 140.314C106.193 140.314 108.451 138.213 109.355 136.862C110.108 135.362 111.011 133.111 109.204 132.21Z" fill="url(#paint47_linear_9002_27149)"/>
<path d="M101.976 144.514C101.374 144.214 100.922 144.364 100.621 144.814C100.32 144.814 100.019 144.814 99.8683 144.965C98.6638 145.415 97.7604 146.915 97.0075 147.966C96.2547 148.866 95.6524 150.367 95.803 151.567C95.9536 152.318 96.4053 152.618 97.1581 152.618C98.9649 152.618 101.223 150.517 102.127 149.166C102.88 147.666 103.783 145.415 101.976 144.514Z" fill="url(#paint48_linear_9002_27149)"/>
<path d="M95.3514 152.018C94.8997 152.018 94.5986 152.318 94.448 152.619C94.2974 152.619 93.9963 152.769 93.8457 152.919C93.0929 153.669 92.7918 155.02 92.4906 156.07C92.3401 156.971 92.1895 158.321 92.7918 159.222C93.0929 159.672 93.6952 159.822 94.1469 159.672C95.502 159.071 96.5559 156.82 96.8571 155.32C97.1582 154.119 97.0076 152.168 95.3514 152.018Z" fill="url(#paint49_linear_9002_27149)"/>
<path d="M117.636 105.198C117.636 104.748 117.184 104.448 116.732 104.448C116.732 104.448 116.582 104.298 116.431 104.298C114.926 103.398 113.269 105.949 112.818 106.999C112.517 107.749 112.366 108.65 112.517 109.4C112.667 110.451 114.022 110.601 114.775 110.151C116.431 109.25 117.937 107.149 117.636 105.198Z" fill="url(#paint50_linear_9002_27149)"/>
<path d="M64.4858 172.578C65.2386 171.827 64.9375 170.927 64.3352 170.477C64.3352 170.177 64.1847 169.876 63.8835 169.576C63.2813 169.126 62.5284 168.826 61.7756 168.526C60.8722 168.226 59.9688 168.076 58.9148 167.926C58.0114 167.926 56.9575 167.926 56.2046 168.526C55.3012 169.126 54.8495 170.026 55.3012 170.927C57.108 174.078 61.7756 174.979 64.4858 172.578Z" fill="url(#paint51_linear_9002_27149)"/>
<path d="M111.161 40.6679C111.613 41.2681 112.064 41.4182 112.667 41.2681C112.968 41.4182 113.118 41.5683 113.57 41.7183C115.076 42.0185 116.882 41.1181 118.238 40.5178C119.442 39.9175 121.098 39.0171 121.55 37.6665C121.851 36.9162 121.55 36.1659 120.797 35.7156C118.99 34.6652 115.527 35.2654 113.721 36.3159C112.064 36.9162 109.806 38.717 111.161 40.6679Z" fill="url(#paint52_linear_9002_27149)"/>
<path d="M127.121 36.4674C126.67 34.6666 125.164 34.3664 123.658 34.6666C122.755 34.8166 121.851 35.2668 121.249 35.717C120.647 36.1673 120.195 36.6175 120.045 37.3678C119.894 37.818 119.894 38.4183 120.195 39.0185C121.249 40.2191 123.357 39.7689 124.712 39.6188C126.218 39.3187 127.573 37.9681 127.121 36.4674Z" fill="url(#paint53_linear_9002_27149)"/>
<path d="M145.792 70.0825C145.49 69.1821 143.985 69.4822 144.286 70.5327C144.437 70.9829 144.587 71.5831 144.587 72.0333C144.587 72.9337 146.093 72.9337 146.093 72.0333C146.243 71.283 146.093 70.6827 145.792 70.0825Z" fill="white"/>
<path d="M145.189 73.8347C144.135 73.8347 144.135 75.3346 145.189 75.3346C146.243 75.3346 146.243 73.8347 145.189 73.8347Z" fill="white"/>
<path d="M137.51 55.6754C137.209 56.2757 136.908 56.8759 136.758 57.6263C136.456 58.5267 137.962 58.9769 138.263 58.0765C138.414 57.4762 138.715 57.026 138.866 56.5758C139.317 55.5253 137.962 54.775 137.51 55.6754Z" fill="white"/>
<path d="M136.005 60.1774V60.4774C136.005 61.5274 137.511 61.5274 137.511 60.4774V60.1774C137.511 59.2775 136.005 59.2775 136.005 60.1774Z" fill="white"/>
<path d="M138.414 79.3865C138.113 79.0863 137.661 79.0863 137.36 79.3865C136.456 80.1368 135.854 81.0372 135.402 81.9376C134.951 82.838 136.306 83.5884 136.758 82.688C137.209 81.7875 137.812 81.0372 138.564 80.4369C138.715 80.1368 138.715 79.6866 138.414 79.3865Z" fill="white"/>
<path d="M128.928 94.093C128.627 93.7929 128.175 93.7929 127.874 94.093C127.272 94.8434 126.67 95.5937 126.369 96.4941C126.218 96.9443 126.519 97.2444 126.971 97.3945C127.422 97.5446 127.724 97.2444 127.874 96.7942C128.175 96.194 128.627 95.5937 128.928 94.9934C129.229 94.8434 129.229 94.3932 128.928 94.093Z" fill="white"/>
<path d="M119.442 97.2445C118.539 97.8447 117.786 98.5951 117.184 99.3454C116.883 99.6455 117.184 100.246 117.485 100.396C117.937 100.696 118.238 100.396 118.539 100.096C118.991 99.4955 119.593 98.8952 120.195 98.445C121.099 97.9948 120.346 96.6442 119.442 97.2445Z" fill="white"/>
<path d="M126.368 97.6941C125.314 97.6941 125.314 99.194 126.368 99.194C127.422 99.194 127.422 97.6941 126.368 97.6941Z" fill="white"/>
<path d="M122.153 106.549C122.003 106.099 121.551 106.099 121.099 106.249C120.045 106.699 119.443 107.75 119.292 108.95C119.292 109.4 119.744 109.7 120.045 109.7C120.497 109.7 120.798 109.4 120.798 108.95C120.798 108.35 121.25 107.9 121.852 107.6C122.304 107.449 122.454 106.849 122.153 106.549Z" fill="white"/>
<path d="M119.894 114.953C119.443 114.953 119.141 115.253 119.141 115.703C118.991 116.453 118.84 117.204 118.389 117.954C117.937 118.854 119.141 119.605 119.744 118.704C120.346 117.804 120.647 116.753 120.647 115.703C120.647 115.403 120.195 114.953 119.894 114.953Z" fill="white"/>
<path d="M108.601 124.407C107.246 125.157 106.343 126.358 106.041 127.708C105.891 128.609 107.246 129.059 107.547 128.159C107.848 127.108 108.45 126.208 109.504 125.758C110.257 125.307 109.504 123.957 108.601 124.407Z" fill="white"/>
<path d="M108.15 133.861C107.999 133.41 107.698 133.26 107.246 133.26C106.192 133.41 105.44 134.011 104.687 134.911C104.386 135.211 104.687 135.811 104.988 135.961C105.44 136.262 105.741 135.961 106.042 135.661C106.494 135.061 106.945 134.911 107.548 134.761C107.999 134.761 108.3 134.311 108.15 133.861Z" fill="white"/>
<path d="M99.8685 145.417C99.1157 145.867 98.5134 146.467 98.0617 147.067C97.7606 147.367 98.0617 147.968 98.3629 148.118C98.8146 148.268 99.1157 148.118 99.4168 147.818C99.718 147.367 100.17 146.917 100.621 146.767C101.374 146.317 100.621 144.966 99.8685 145.417Z" fill="white"/>
<path d="M97.4594 149.768C96.4055 149.768 96.4055 151.268 97.4594 151.268C98.3628 151.268 98.3628 149.768 97.4594 149.768Z" fill="white"/>
<path d="M94.9 153.22C94.4483 153.07 94.1472 153.37 93.9966 153.82C93.6955 154.421 93.5449 155.021 93.2438 155.621C93.0932 155.921 93.3943 156.522 93.846 156.522C94.2977 156.672 94.5989 156.372 94.7494 155.921C95.0506 155.321 95.2011 154.721 95.5023 154.121C95.5023 153.82 95.2011 153.37 94.9 153.22Z" fill="white"/>
<path d="M93.6953 157.122C92.6413 157.122 92.6413 158.622 93.6953 158.622C94.7492 158.622 94.5987 157.122 93.6953 157.122Z" fill="white"/>
<path d="M79.6931 167.176C78.338 167.176 77.1335 167.476 75.929 167.776C75.0256 168.076 75.3267 169.577 76.3807 169.276C77.4346 168.976 78.6392 168.676 79.6931 168.676C80.5965 168.676 80.5965 167.176 79.6931 167.176Z" fill="white"/>
<path d="M70.6589 168.827C69.9061 168.977 69.1533 169.127 68.551 169.277C68.0993 169.277 67.9487 169.877 67.9487 170.177C68.0993 170.627 68.551 170.777 68.8521 170.777C69.605 170.627 70.3578 170.477 70.9601 170.477C72.014 170.027 71.7129 168.527 70.6589 168.827Z" fill="white"/>
<path d="M56.2045 162.523C55.3011 162.373 54.8494 161.923 54.3977 161.172C53.946 160.272 52.5909 161.172 53.0426 161.923C53.6448 162.973 54.5482 163.723 55.7528 163.873C56.2045 163.873 56.5056 163.723 56.6562 163.273C56.8067 162.973 56.5056 162.523 56.2045 162.523Z" fill="white"/>
<path d="M62.9802 169.577C61.9263 168.977 60.7217 168.527 59.6678 168.077C58.7644 167.776 58.3127 169.277 59.2161 169.577C60.27 169.877 61.324 170.328 62.2274 170.928C62.9802 171.378 63.7331 170.178 62.9802 169.577Z" fill="white"/>
<path d="M91.2865 71.7335C90.9853 71.4334 90.5336 71.2833 90.2325 71.4334C89.1785 71.8836 88.4257 72.784 88.1246 73.8345C87.8234 74.7349 89.3291 75.1851 89.6302 74.2847C89.9314 73.5343 90.3831 73.0841 90.9853 72.784C91.2865 72.6339 91.437 72.0337 91.2865 71.7335Z" fill="white"/>
<path d="M100.169 58.2267C98.5131 58.0766 97.0074 58.827 96.104 60.1776C95.5017 60.9279 96.8568 61.6782 97.4591 60.9279C98.0614 60.0275 99.1153 59.7274 100.169 59.7274C101.223 59.8774 101.223 58.2267 100.169 58.2267Z" fill="white"/>
<path d="M95.0507 61.5288C93.9968 61.5288 93.9968 63.0287 95.0507 63.0287C95.9541 63.0287 95.9541 61.5288 95.0507 61.5288Z" fill="white"/>
<path d="M103.482 50.873C103.332 50.5729 102.88 50.1227 102.579 50.2727C101.374 50.7229 100.471 51.6233 99.8688 52.9739C99.7182 53.4241 100.019 53.8743 100.471 53.8743C100.923 54.0244 101.224 53.7243 101.374 53.2741C101.676 52.5237 102.278 51.9235 103.031 51.6233C103.332 51.7734 103.633 51.3232 103.482 50.873Z" fill="white"/>
<path d="M100.17 54.0251C99.1159 54.0251 99.1159 55.5251 100.17 55.5251C101.073 55.5251 101.073 54.0251 100.17 54.0251Z" fill="white"/>
<path d="M113.419 41.8699C113.118 41.4197 112.817 41.4197 112.365 41.5697C111.462 42.0199 110.558 42.4701 109.956 43.2205C109.354 43.9708 110.408 45.0213 111.01 44.2709C111.612 43.5206 112.365 43.2205 113.118 42.9203C113.57 42.7703 113.57 42.17 113.419 41.8699Z" fill="white"/>
<path d="M108.902 44.8701C107.848 44.8701 107.848 46.37 108.902 46.37C109.806 46.37 109.806 44.8701 108.902 44.8701Z" fill="white"/>
<path d="M117.786 35.7173C116.28 35.7173 114.775 36.1675 113.269 36.7678C112.366 37.218 113.119 38.5686 114.022 38.1184C115.227 37.5181 116.431 37.218 117.636 37.218C118.69 37.218 118.69 35.7173 117.786 35.7173Z" fill="white"/>
<path d="M111.914 38.2683C111.011 38.2683 111.011 39.7682 111.914 39.7682C112.818 39.7682 112.818 38.2683 111.914 38.2683Z" fill="white"/>
<path d="M135.553 68.8821C135.102 68.582 134.8 68.8821 134.499 69.1823C134.048 69.7825 133.746 70.5329 133.445 71.2832C133.144 72.1836 134.65 72.6338 134.951 71.7334C135.102 71.1331 135.403 70.5329 135.704 70.0827C136.156 69.6325 136.005 69.1823 135.553 68.8821Z" fill="white"/>
<path d="M134.048 73.5347C132.994 73.5347 132.994 75.0346 134.048 75.0346C134.951 75.0346 134.951 73.5347 134.048 73.5347Z" fill="white"/>
<path d="M151.965 52.6745C151.814 51.7741 150.309 52.0742 150.459 53.1247C150.61 53.725 150.61 54.3252 150.309 54.9255C150.008 55.8259 151.513 56.2761 151.814 55.3757C152.266 54.4753 152.266 53.5749 151.965 52.6745Z" fill="white"/>
<path d="M131.187 59.878C130.584 60.4782 130.133 61.3786 129.832 62.129C129.53 63.0294 131.036 63.4796 131.337 62.5792C131.488 61.9789 131.94 61.3786 132.391 60.9284C132.993 60.3282 131.789 59.2777 131.187 59.878Z" fill="white"/>
<path d="M148.502 46.0707C148.05 45.1703 146.695 46.0707 147.147 46.821C147.448 47.1211 147.599 47.5713 147.599 48.0215C147.599 48.9219 149.104 48.9219 149.104 48.0215C149.104 47.2712 148.954 46.5209 148.502 46.0707Z" fill="white"/>
<path d="M128.928 82.2376C128.627 81.9374 128.175 81.9374 127.874 82.2376C127.272 82.8378 126.669 83.4381 126.519 84.3385C126.218 85.2389 127.723 85.6891 128.025 84.7887C128.175 84.1884 128.627 83.7382 129.078 83.288C129.229 83.138 129.229 82.5377 128.928 82.2376Z" fill="white"/>
<path d="M114.172 114.052C114.022 113.152 112.516 113.452 112.667 114.503C112.817 115.403 112.817 116.303 112.516 117.054C112.215 117.954 113.721 118.404 114.022 117.504C114.474 116.303 114.474 115.253 114.172 114.052Z" fill="white"/>
<path d="M82.5536 81.0368C82.403 80.7367 81.9513 80.4365 81.6502 80.4365C80.7468 80.7367 79.8434 81.3369 79.3917 82.2373C78.94 83.1377 80.2951 83.8881 80.7468 82.9877C81.0479 82.3874 81.4996 82.0873 82.1019 81.7871C82.403 81.7871 82.7042 81.487 82.5536 81.0368Z" fill="white"/>
<path d="M68.2497 136.862C64.7867 136.712 64.4855 133.411 62.5282 129.659C60.1191 123.806 58.9146 116.903 58.4629 112.551C54.5481 117.954 51.0851 123.506 48.3749 129.059C50.1817 132.21 53.0425 137.763 54.3976 142.415C56.3549 149.168 54.9998 149.168 61.0225 149.168C67.0452 149.168 78.7894 150.518 87.6728 148.417C89.1785 148.117 90.383 147.667 91.5876 147.367C96.2552 140.764 100.17 134.911 103.633 129.059C91.5876 136.562 71.261 137.012 68.2497 136.862Z" fill="url(#paint54_linear_9002_27149)"/>
<path d="M64.9377 152.319C57.5599 152.469 55.7531 153.67 54.0969 149.468C52.29 145.416 52.5912 142.265 50.3327 136.262C49.4293 133.711 48.5259 131.76 47.773 130.259C46.8696 132.36 45.9662 134.611 45.364 136.712C41.9009 147.967 42.8043 155.921 48.2247 155.921C53.6452 155.921 56.8071 158.772 61.1735 162.524C65.3894 166.125 75.6279 168.977 89.6306 150.518C87.8238 151.269 86.017 151.869 84.5114 152.019C79.9944 152.769 72.3155 152.169 64.9377 152.319Z" fill="url(#paint55_linear_9002_27149)"/>
<path d="M110.108 73.6836C113.571 71.7327 120.948 69.3317 124.261 67.2307C125.465 66.4804 126.971 65.8801 128.326 65.4299C129.079 62.7287 129.982 60.1776 130.585 57.4764C130.735 56.7261 131.036 55.8257 131.187 54.9253C123.809 57.1763 112.667 63.329 111.613 61.5282C110.559 59.7274 109.957 54.7752 109.656 51.6238C107.247 54.0249 104.838 57.3263 102.278 61.5282C102.127 61.6783 102.127 61.8283 101.977 61.9784C102.579 64.8297 103.633 69.3317 103.784 72.333C103.934 77.1352 106.645 75.4844 110.108 73.6836Z" fill="url(#paint56_linear_9002_27149)"/>
<path d="M131.337 53.2749C131.638 50.4236 131.036 47.5723 128.476 45.6214C126.67 44.2708 125.013 43.9707 122.905 43.9707C122.905 43.9707 118.69 43.9707 113.119 48.4727C113.269 50.1234 113.57 52.8247 114.323 56.4263C115.226 59.8778 123.809 56.1261 131.337 53.2749Z" fill="url(#paint57_linear_9002_27149)"/>
<path d="M131.036 54.9258C131.187 54.3255 131.187 53.7252 131.337 53.275C123.809 56.1263 115.377 59.878 114.323 56.4264C113.57 52.8248 113.269 50.2737 113.119 48.4729C112.065 49.3733 110.86 50.4238 109.656 51.6243C109.957 54.9258 110.71 59.7279 111.613 61.5287C112.516 63.3295 123.809 57.1768 131.036 54.9258Z" fill="url(#paint58_linear_9002_27149)"/>
<path d="M124.111 67.2315C120.949 69.3324 114.324 69.3324 111.011 71.1333C107.548 73.0841 104.989 74.5848 104.688 69.7826C104.537 66.7813 102.58 64.6804 101.977 61.8291C101.526 62.4294 101.225 63.0296 100.773 63.6299C101.225 66.7813 101.977 71.8836 102.58 75.6353C103.332 78.7867 110.259 74.7349 115.528 72.784C119.594 71.2833 123.96 70.3829 126.971 69.0323C127.423 67.6817 127.724 66.4812 128.176 65.2806C126.821 65.8809 125.315 66.4812 124.111 67.2315Z" fill="url(#paint59_linear_9002_27149)"/>
<path d="M92.3406 88.6911C90.9855 85.3897 90.3832 81.0377 90.0821 78.0364C86.7696 82.0882 83.156 85.8399 79.0907 89.7416C79.8435 93.4933 81.3492 99.9461 84.0594 100.997C87.5224 102.497 106.795 95.8943 117.786 97.395C118.088 96.4946 118.389 95.5942 118.69 94.6938C120.045 90.4919 121.4 86.4401 122.755 82.3883C117.937 84.3392 110.258 84.9395 106.946 85.6898C102.579 86.5902 93.9968 92.5929 92.3406 88.6911Z" fill="url(#paint60_linear_9002_27149)"/>
<path d="M86.7701 118.404C75.7787 119.154 73.8214 119.604 72.918 114.652C71.1112 108.499 68.7021 103.847 67.347 101.446C65.0885 103.997 62.83 106.699 60.722 109.4C61.4749 113.001 62.6794 118.854 63.1311 124.707C64.0345 132.06 65.3896 135.361 72.7674 135.361C79.5429 135.361 94.5996 132.96 104.688 126.958C106.043 124.407 107.398 122.005 108.602 119.454C103.634 117.353 97.0087 117.654 86.7701 118.404Z" fill="url(#paint61_linear_9002_27149)"/>
<path d="M102.579 75.7856C101.977 72.034 101.224 66.9317 100.772 63.7803C97.6104 68.4323 94.7497 72.4842 91.5878 76.0858C92.0395 78.1867 92.9429 81.7883 93.6957 84.7896C94.9002 89.5918 95.8036 88.2412 100.923 86.1402C106.042 84.0393 109.355 84.0393 114.474 82.3886C118.389 81.038 121.249 80.7378 123.659 79.5373C124.863 76.0858 125.917 72.6342 126.971 69.1827C124.11 70.5333 119.593 71.4337 115.528 72.9344C110.258 74.7352 103.332 78.937 102.579 75.7856Z" fill="url(#paint62_linear_9002_27149)"/>
<path d="M101.525 84.1898C96.4062 86.2907 95.5028 87.6413 94.2983 82.8392C93.5454 79.6878 92.0398 78.1871 91.5881 76.0862C91.1364 76.6864 90.5341 77.2867 90.0824 77.887C90.3835 80.8883 90.9858 85.2403 92.3409 88.5417C93.9971 92.5935 102.579 86.4408 106.795 85.5404C110.258 84.7901 117.787 84.1898 122.605 82.2389C122.906 81.3385 123.207 80.4381 123.508 79.5377C121.099 80.7383 118.238 81.0384 114.324 82.389C109.355 84.0397 106.795 82.0889 101.525 84.1898Z" fill="url(#paint63_linear_9002_27149)"/>
<path d="M85.4145 99.1961C82.8548 98.1456 79.8435 93.3435 79.0906 89.5918C78.7895 89.8919 78.3378 90.3421 77.8861 90.6423C78.6389 94.544 80.4457 102.047 83.3065 102.798C87.0707 103.698 108.451 97.5453 117.034 98.7459C117.184 98.2957 117.335 97.6954 117.485 97.2452C106.644 95.8946 88.8775 100.547 85.4145 99.1961Z" fill="url(#paint64_linear_9002_27149)"/>
<path d="M83.4572 102.797C80.5965 102.046 78.7897 94.6929 78.0368 90.6411C77.4346 91.0913 76.9829 91.6916 76.3806 92.1418C74.1221 94.2427 71.5624 96.7939 69.0028 99.6451C70.2073 102.646 72.1647 108.049 73.6704 112.551C75.6278 117.053 75.7783 117.353 83.0055 116.753C89.4799 116.303 101.676 114.802 109.505 118.103C112.366 112.101 114.775 105.948 117.335 98.7447C108.602 97.5442 87.0708 103.697 83.4572 102.797Z" fill="url(#paint65_linear_9002_27149)"/>
<path d="M65.0882 121.105C64.4859 115.252 61.4746 113.001 60.7218 109.399C59.9689 110.45 59.2161 111.5 58.4633 112.551C58.915 117.053 59.9689 123.956 62.5286 129.658C64.4859 133.41 64.7871 136.712 68.2501 136.862C71.412 137.012 91.588 136.562 103.784 129.058C104.236 128.308 104.687 127.558 104.988 126.807C94.9005 132.81 81.8011 131.609 74.8751 131.609C67.3467 131.759 66.1422 128.458 65.0882 121.105Z" fill="url(#paint66_linear_9002_27149)"/>
<path d="M63.2815 146.167C57.2589 146.167 58.614 146.167 56.6566 139.414C55.3015 134.762 50.3328 132.061 48.526 129.059C48.3754 129.51 48.0743 129.96 47.9237 130.41C48.6765 131.911 49.5799 133.861 50.4833 136.413C52.5913 142.415 52.4407 145.567 54.2475 149.618C56.0543 153.67 57.7106 152.62 65.0883 152.47C72.4661 152.32 80.2956 152.92 84.662 152.02C86.1677 151.719 87.9745 151.119 89.7813 150.519C90.0824 150.219 90.233 149.919 90.5341 149.468C90.9858 148.718 91.4375 148.118 92.0398 147.518C90.8353 147.818 89.4802 148.268 88.1251 148.568C78.9405 150.369 69.3042 146.167 63.2815 146.167Z" fill="url(#paint67_linear_9002_27149)"/>
<path d="M84.511 114.201C77.2838 114.801 77.1332 114.501 75.1759 109.999C73.6702 105.347 70.0566 102.796 68.8521 99.6445C68.4003 100.095 67.9486 100.695 67.4969 101.295C68.8521 103.696 71.2611 108.498 73.0679 114.501C73.9713 119.453 75.9287 119.003 86.9201 118.253C97.1586 117.502 103.784 117.202 108.903 119.153C109.053 118.703 109.204 118.403 109.505 117.953C101.525 114.951 90.9854 113.751 84.511 114.201Z" fill="url(#paint68_linear_9002_27149)"/>
<path d="M149.104 27.4636C148.502 24.3122 143.232 23.5618 135.403 28.9642C127.423 34.2166 120.647 44.4211 120.647 44.4211C124.562 43.9709 127.122 44.5712 128.627 45.7717C131.337 41.87 139.016 32.1156 149.104 27.4636Z" fill="url(#paint69_linear_9002_27149)"/>
<path d="M149.104 27.4631C139.167 32.2653 131.488 41.8695 128.627 45.7713C129.832 46.6717 130.585 47.8722 130.886 48.9227C146.695 48.1724 161.15 38.5681 160.999 31.8151C160.849 25.0621 154.976 24.6119 149.104 27.4631Z" fill="url(#paint70_linear_9002_27149)"/>
<path d="M130.434 47.724C130.434 47.724 130.735 47.724 131.337 47.574C131.94 47.4239 132.843 47.2738 133.897 47.1238C134.951 46.9737 136.156 46.6736 137.36 46.3734C138.565 46.0733 139.92 45.7732 141.275 45.323C141.877 45.1729 142.63 44.8728 143.232 44.7227C143.835 44.4226 144.587 44.2725 145.19 44.1224C145.792 43.8223 146.394 43.6722 146.996 43.3721C147.599 43.072 148.05 42.9219 148.502 42.7718C148.954 42.6218 149.406 42.3216 149.707 42.1716C150.158 42.0215 150.459 41.7214 150.61 41.5713C151.212 41.2712 151.513 41.1211 151.513 41.1211C151.513 41.1211 151.212 41.2712 150.761 41.7214C150.459 41.8714 150.158 42.1716 149.857 42.3216C149.556 42.4717 149.104 42.7718 148.653 43.072C148.201 43.3721 147.599 43.5222 147.147 43.8223C146.545 44.1224 146.093 44.2725 145.34 44.5726C144.738 44.8728 144.136 45.0228 143.383 45.323C142.781 45.473 142.028 45.7732 141.425 45.9232C140.07 46.2234 138.715 46.6736 137.511 46.9737C136.156 47.2738 134.951 47.4239 134.048 47.574C131.789 47.574 130.434 47.724 130.434 47.724Z" fill="#C11D02"/>
<path d="M129.531 46.222C129.531 46.222 129.982 45.4717 130.886 44.5713C131.338 44.1211 131.789 43.5208 132.392 42.9206C132.693 42.6204 132.994 42.3203 133.295 42.0202C133.596 41.72 133.897 41.4199 134.198 41.1198C134.499 40.8196 134.801 40.5195 135.252 40.2194C135.553 39.9192 135.855 39.6191 136.306 39.469C136.909 39.0188 137.661 38.5686 138.113 38.2685C139.167 37.6682 139.92 37.218 139.92 37.218C139.92 37.218 139.167 37.6682 138.113 38.4186C137.511 38.7187 137.059 39.319 136.306 39.7692C136.005 40.0693 135.704 40.2194 135.403 40.5195C135.102 40.8196 134.801 41.1198 134.349 41.4199C134.048 41.72 133.747 42.0202 133.446 42.3203C133.144 42.6204 132.843 42.9206 132.542 43.2207C131.94 43.821 131.338 44.2712 131.036 44.7214C130.585 45.1716 130.133 45.6218 129.982 45.9219C129.681 45.9219 129.531 46.222 129.531 46.222Z" fill="#C11D02"/>
<path d="M122.153 44.1216C122.153 44.1216 122.153 43.8214 122.454 43.5213C122.605 43.3712 122.605 43.0711 122.755 42.921C122.906 42.6209 123.056 42.3208 123.207 42.0206C123.358 41.7205 123.659 41.4203 123.809 41.1202C124.11 40.8201 124.261 40.5199 124.562 40.0697C124.863 39.7696 125.014 39.3194 125.466 39.0193C125.767 38.7191 126.068 38.2689 126.369 37.9688C126.67 37.6687 126.971 37.2185 127.272 36.9183C127.573 36.6182 127.875 36.3181 128.176 36.0179C128.778 35.4177 129.38 34.9675 129.832 34.5173C130.886 33.6169 131.639 33.0166 131.639 33.0166C131.639 33.0166 131.037 33.6169 129.983 34.6673C129.681 34.9675 129.531 35.1175 129.23 35.4177C128.929 35.7178 128.627 36.0179 128.326 36.3181C128.025 36.6182 127.724 36.9183 127.423 37.2185C127.122 37.5186 126.821 37.8187 126.52 38.2689C126.218 38.5691 125.917 39.0193 125.616 39.3194C125.315 39.6195 125.014 40.0697 124.713 40.3699C124.412 40.67 124.261 40.9701 123.96 41.4203C123.659 41.7205 123.508 42.0206 123.358 42.3208C123.207 42.6209 123.056 42.921 122.906 43.0711C122.755 43.3712 122.605 43.5213 122.454 43.6714C122.153 43.9715 122.153 44.1216 122.153 44.1216Z" fill="#C11D02"/>
<path d="M130.585 45.1722C130.585 45.1722 135.102 40.5201 141.124 37.5187C147.147 34.5174 145.34 38.7193 138.113 42.9212C130.886 47.2731 128.627 47.7233 130.585 45.1722Z" fill="url(#paint71_linear_9002_27149)"/>
<g opacity="0.8">
<path d="M160.247 28.5134C160.548 30.7644 159.946 33.9158 156.332 37.2173C149.858 42.6197 139.77 45.0208 137.21 45.3209C134.65 45.6211 138.866 43.5201 141.426 41.1191C143.985 38.868 134.5 46.0713 131.187 46.3714C129.531 46.6715 130.736 44.5706 133.145 41.8694C132.241 42.3196 131.488 42.3196 131.187 42.0195C129.983 43.3701 129.079 44.7207 128.477 45.6211C129.682 46.5215 130.434 47.722 130.736 48.7725C146.545 48.0221 161 38.4178 160.849 31.6648C161 30.4643 160.698 29.4138 160.247 28.5134Z" fill="url(#paint72_linear_9002_27149)"/>
</g>
<path d="M132.994 41.8698C132.994 41.8698 146.846 30.3146 155.429 27.4633C161.602 25.9627 152.116 24.6121 142.179 31.9653C134.65 37.2177 129.832 43.6706 132.994 41.8698Z" fill="url(#paint73_linear_9002_27149)"/>
<path d="M126.219 38.5693C126.52 38.2693 126.971 37.8194 127.273 37.3694C126.821 37.6694 126.52 38.1194 126.219 38.5693Z" fill="url(#paint74_linear_9002_27149)"/>
<path d="M146.695 25.0635C147.448 26.1139 147.448 27.3145 145.19 28.515C139.468 31.3663 133.295 37.9692 129.982 41.871C128.025 43.9719 127.272 43.3716 124.412 43.3716C122.755 43.3716 124.412 40.6704 126.218 38.5695C125.164 39.62 124.11 40.3703 123.358 40.8205C121.551 42.9214 120.647 44.4221 120.647 44.4221C124.562 43.9719 127.122 44.5722 128.627 45.7727C131.338 41.871 139.167 32.2667 149.104 27.4645C148.803 26.264 148.051 25.5137 146.695 25.0635Z" fill="url(#paint75_linear_9002_27149)"/>
<path d="M129.982 37.068C129.982 37.068 137.059 30.1649 143.383 27.7638C147.9 25.6629 145.943 24.0122 140.522 26.7134C131.338 31.3654 125.917 40.0693 129.982 37.068Z" fill="url(#paint76_linear_9002_27149)"/>
<path d="M126.369 42.3207C126.369 42.3207 130.735 37.3685 134.349 34.9675C137.812 32.7165 130.735 33.6169 126.369 42.3207Z" fill="url(#paint77_linear_9002_27149)"/>
<path opacity="0.8" d="M128.929 63.6294C127.724 68.5816 119.443 93.4927 117.486 98.2949C115.529 103.097 109.054 121.705 104.537 127.708C100.02 133.711 96.7077 141.814 88.1254 152.169C79.3925 162.524 73.5204 164.624 69.9068 165.075C66.2932 165.525 62.3784 163.874 60.5716 162.073C58.7648 160.273 55.6029 158.022 55.6029 158.022C55.6029 158.022 57.8614 158.472 59.5176 159.822C65.2392 163.874 75.026 162.073 80.4465 156.971C84.9635 152.619 86.3186 145.566 90.8356 141.214C95.3526 136.862 104.236 127.258 106.645 115.102C108.904 102.947 115.077 96.344 118.54 87.4901C122.153 78.6361 123.81 67.5312 126.972 60.9282C126.972 60.9282 131.639 52.2243 131.037 48.9229C131.79 55.6759 131.188 54.9255 128.929 63.6294Z" fill="url(#paint78_linear_9002_27149)"/>
<path opacity="0.8" d="M71.5624 105.498C71.5624 105.498 74.122 110 75.4771 113.001C76.8322 116.003 79.0907 114.952 86.7696 114.952C94.5991 114.802 97.3093 115.853 98.0622 115.853C98.815 115.853 91.7383 116.903 85.7157 117.053C79.5424 117.203 75.9288 117.653 74.7243 115.402C73.6703 113.151 70.0567 103.097 71.5624 105.498Z" fill="url(#paint79_linear_9002_27149)"/>
<path opacity="0.8" d="M53.3441 136.563C53.3441 136.563 55.6026 141.965 56.3555 144.966C57.1083 148.118 61.9265 147.217 70.3582 148.868C78.79 150.519 70.6593 150.369 63.2816 150.669C55.9038 150.969 54.8498 149.318 53.043 142.565C51.5373 135.812 51.8385 131.911 53.3441 136.563Z" fill="url(#paint80_linear_9002_27149)"/>
<path opacity="0.8" d="M62.2275 116.903C62.2275 116.903 63.432 120.054 64.7871 126.057C66.1422 132.059 67.3467 132.059 71.4121 132.51C75.4774 132.81 85.8665 132.66 88.4261 132.81C90.9858 132.96 80.8978 135.511 74.574 135.661C68.2501 135.811 66.5939 136.862 64.0343 129.808C61.4746 122.755 61.0229 113.001 62.2275 116.903Z" fill="url(#paint81_linear_9002_27149)"/>
<path opacity="0.8" d="M80.5969 95.1435C80.5969 95.1435 82.8554 98.2949 84.361 99.7956C85.8667 101.296 92.3411 99.1953 96.2558 99.0453C100.171 98.8952 96.2558 100.546 90.2332 101.296C84.2105 102.047 83.6082 102.947 82.1025 100.546C80.5969 98.1449 78.7901 92.1422 80.5969 95.1435Z" fill="url(#paint82_linear_9002_27149)"/>
<path opacity="0.8" d="M92.7928 80.4369C92.7928 80.4369 93.094 81.7875 94.2985 85.089C95.5031 88.3905 96.557 86.4396 100.923 84.939C105.139 83.4383 105.44 84.3387 101.526 86.2896C97.611 88.2404 94.4491 90.3414 93.2445 87.19C92.04 83.8885 91.1366 77.1355 92.7928 80.4369Z" fill="url(#paint83_linear_9002_27149)"/>
<path opacity="0.6" d="M54.699 157.422C54.699 157.422 54.699 157.272 54.699 156.972C54.699 156.672 54.8495 156.371 54.8495 155.921C55.0001 154.871 55.4518 153.52 55.9035 151.719C56.2046 150.819 56.5058 149.919 56.8069 148.868C57.108 147.818 57.5597 146.617 58.0114 145.417C58.4631 144.216 59.0654 143.015 59.5171 141.665C59.8182 140.915 60.1194 140.314 60.4205 139.714C60.7216 138.964 61.1733 138.363 61.4745 137.613C61.7756 136.863 62.2273 136.112 62.5284 135.362C62.8296 134.612 63.2813 133.861 63.733 133.111C64.6364 131.61 65.5398 130.11 66.4432 128.459C66.8949 127.709 67.3466 126.808 67.7983 126.058C68.25 125.308 68.8523 124.407 69.304 123.657C70.3579 122.006 71.4119 120.505 72.6164 118.855C73.6704 117.204 74.8749 115.553 76.0795 113.902C77.284 112.252 78.338 110.451 79.5425 108.8C81.801 105.349 84.0595 101.747 86.318 98.1454C90.835 90.9422 95.352 83.739 99.5679 77.136C103.934 70.383 108.15 64.3804 112.216 59.4281C114.173 56.877 116.13 54.7761 118.088 52.9753C119.894 51.1745 121.701 49.6738 123.207 48.4733C124.713 47.4228 125.917 46.6725 126.821 46.2223C125.917 46.6725 124.713 47.5729 123.357 48.7734C122.002 49.9739 120.346 51.4746 118.539 53.4255C116.733 55.3763 114.926 57.4773 112.968 60.0284C111.011 62.5796 109.054 65.2808 106.946 68.2821C104.838 71.2834 102.88 74.5849 100.772 77.8864C96.5566 84.6394 92.1901 91.8426 87.6731 99.0458C85.4146 102.647 83.1561 106.249 80.747 109.701C79.5425 111.351 78.338 113.152 77.1334 114.803C75.9289 116.454 74.7244 118.104 73.6704 119.755C72.6164 121.406 71.4119 122.906 70.3579 124.557C69.7557 125.308 69.304 126.058 68.7017 126.808C68.25 127.559 67.7983 128.459 67.196 129.209C66.2926 130.71 65.2386 132.211 64.4858 133.711C64.0341 134.462 63.5824 135.212 63.2813 135.962C62.8296 136.713 62.5284 137.463 62.0767 138.063C61.7756 138.814 61.3239 139.414 61.0228 140.164C60.7216 140.764 60.2699 141.515 59.9688 142.115C59.3665 143.466 58.7643 144.666 58.3126 145.867C57.7103 147.067 57.4092 148.118 56.9575 149.168C56.5058 150.219 56.2046 151.119 55.9035 152.019C55.3012 153.82 54.8495 155.171 54.699 156.071C54.5484 156.521 54.3978 156.972 54.3978 157.122C54.699 157.422 54.699 157.422 54.699 157.422Z" fill="url(#paint84_linear_9002_27149)"/>
<path d="M131.488 52.0747C130.434 61.679 120.798 80.8876 114.926 90.1917C109.054 99.4959 104.838 110.151 103.784 116.003C102.73 121.856 97.7614 130.71 93.395 133.411C89.0286 136.262 84.5115 142.265 78.9406 151.419C73.3696 160.573 59.668 157.272 58.1623 151.869C56.6567 146.617 55.6027 152.62 50.0317 151.419C44.4607 150.218 44.9124 145.566 44.7619 139.864C44.7619 139.864 43.1056 144.216 43.7079 151.419C44.1596 155.021 46.7192 156.071 49.2789 155.921C51.8385 155.771 55.9038 158.022 58.3129 160.123C60.5714 162.224 64.3356 164.625 68.702 163.725C73.0685 162.974 81.5002 157.872 84.6621 151.119C87.824 144.366 90.5342 141.064 95.2018 136.863C99.8694 132.661 104.989 123.507 107.097 113.902C109.205 104.298 112.065 100.696 115.378 93.7933C118.54 86.8902 130.434 64.6803 131.488 52.0747Z" fill="url(#paint85_linear_9002_27149)"/>
<defs>
<linearGradient id="paint0_linear_9002_27149" x1="147.762" y1="60.7984" x2="153.589" y2="60.7984" gradientUnits="userSpaceOnUse">
<stop stop-color="white"/>
<stop offset="1" stop-color="#DFD8E7"/>
</linearGradient>
<linearGradient id="paint1_linear_9002_27149" x1="131.84" y1="89.3339" x2="139.691" y2="89.3339" gradientUnits="userSpaceOnUse">
<stop stop-color="white"/>
<stop offset="1" stop-color="#DFD8E7"/>
</linearGradient>
<linearGradient id="paint2_linear_9002_27149" x1="117.818" y1="104.4" x2="122.718" y2="104.4" gradientUnits="userSpaceOnUse">
<stop stop-color="white"/>
<stop offset="1" stop-color="#DFD8E7"/>
</linearGradient>
<linearGradient id="paint3_linear_9002_27149" x1="137.864" y1="43.5921" x2="143.521" y2="43.5921" gradientUnits="userSpaceOnUse">
<stop stop-color="white"/>
<stop offset="1" stop-color="#DFD8E7"/>
</linearGradient>
<linearGradient id="paint4_linear_9002_27149" x1="128.575" y1="39.0196" x2="136.713" y2="39.0196" gradientUnits="userSpaceOnUse">
<stop stop-color="white"/>
<stop offset="1" stop-color="#DFD8E7"/>
</linearGradient>
<linearGradient id="paint5_linear_9002_27149" x1="142.473" y1="56.0121" x2="148.472" y2="56.0121" gradientUnits="userSpaceOnUse">
<stop stop-color="white"/>
<stop offset="1" stop-color="#DFD8E7"/>
</linearGradient>
<linearGradient id="paint6_linear_9002_27149" x1="121.815" y1="94.1677" x2="127.753" y2="94.1677" gradientUnits="userSpaceOnUse">
<stop stop-color="white"/>
<stop offset="1" stop-color="#DFD8E7"/>
</linearGradient>
<linearGradient id="paint7_linear_9002_27149" x1="124.642" y1="97.6027" x2="131.511" y2="97.6027" gradientUnits="userSpaceOnUse">
<stop stop-color="white"/>
<stop offset="1" stop-color="#DFD8E7"/>
</linearGradient>
<linearGradient id="paint8_linear_9002_27149" x1="114.526" y1="118.469" x2="121.395" y2="118.469" gradientUnits="userSpaceOnUse">
<stop stop-color="white"/>
<stop offset="1" stop-color="#DFD8E7"/>
</linearGradient>
<linearGradient id="paint9_linear_9002_27149" x1="117.897" y1="108.944" x2="124.767" y2="108.944" gradientUnits="userSpaceOnUse">
<stop stop-color="white"/>
<stop offset="1" stop-color="#DFD8E7"/>
</linearGradient>
<linearGradient id="paint10_linear_9002_27149" x1="145.293" y1="68.6144" x2="152.163" y2="68.6144" gradientUnits="userSpaceOnUse">
<stop stop-color="white"/>
<stop offset="1" stop-color="#DFD8E7"/>
</linearGradient>
<linearGradient id="paint11_linear_9002_27149" x1="116.304" y1="100.011" x2="123.173" y2="100.011" gradientUnits="userSpaceOnUse">
<stop stop-color="white"/>
<stop offset="1" stop-color="#DFD8E7"/>
</linearGradient>
<linearGradient id="paint12_linear_9002_27149" x1="134.072" y1="82.5409" x2="140.944" y2="82.5409" gradientUnits="userSpaceOnUse">
<stop stop-color="white"/>
<stop offset="1" stop-color="#DFD8E7"/>
</linearGradient>
<linearGradient id="paint13_linear_9002_27149" x1="124.935" y1="78.2484" x2="138.931" y2="78.2484" gradientUnits="userSpaceOnUse">
<stop stop-color="white"/>
<stop offset="1" stop-color="#DFD8E7"/>
</linearGradient>
<linearGradient id="paint14_linear_9002_27149" x1="86.106" y1="68.0005" x2="100.099" y2="68.0005" gradientUnits="userSpaceOnUse">
<stop stop-color="white"/>
<stop offset="1" stop-color="#DFD8E7"/>
</linearGradient>
<linearGradient id="paint15_linear_9002_27149" x1="139.92" y1="69.222" x2="146.416" y2="69.222" gradientUnits="userSpaceOnUse">
<stop stop-color="white"/>
<stop offset="1" stop-color="#DFD8E7"/>
</linearGradient>
<linearGradient id="paint16_linear_9002_27149" x1="68.0867" y1="163.98" x2="78.2841" y2="163.98" gradientUnits="userSpaceOnUse">
<stop stop-color="white"/>
<stop offset="1" stop-color="#DFD8E7"/>
</linearGradient>
<linearGradient id="paint17_linear_9002_27149" x1="81.0542" y1="162.358" x2="89.7979" y2="162.358" gradientUnits="userSpaceOnUse">
<stop stop-color="white"/>
<stop offset="1" stop-color="#DFD8E7"/>
</linearGradient>
<linearGradient id="paint18_linear_9002_27149" x1="87.4637" y1="153.015" x2="93.4859" y2="153.015" gradientUnits="userSpaceOnUse">
<stop stop-color="white"/>
<stop offset="1" stop-color="#DFD8E7"/>
</linearGradient>
<linearGradient id="paint19_linear_9002_27149" x1="75.6585" y1="161.702" x2="83.4631" y2="161.702" gradientUnits="userSpaceOnUse">
<stop stop-color="white"/>
<stop offset="1" stop-color="#DFD8E7"/>
</linearGradient>
<linearGradient id="paint20_linear_9002_27149" x1="73.8545" y1="167.923" x2="80.6898" y2="171.68" gradientUnits="userSpaceOnUse">
<stop stop-color="white"/>
<stop offset="1" stop-color="#DFD8E7"/>
</linearGradient>
<linearGradient id="paint21_linear_9002_27149" x1="64.5116" y1="170.136" x2="71.7668" y2="173.01" gradientUnits="userSpaceOnUse">
<stop stop-color="white"/>
<stop offset="1" stop-color="#DFD8E7"/>
</linearGradient>
<linearGradient id="paint22_linear_9002_27149" x1="60.8846" y1="166.354" x2="70.0373" y2="166.354" gradientUnits="userSpaceOnUse">
<stop stop-color="white"/>
<stop offset="1" stop-color="#DFD8E7"/>
</linearGradient>
<linearGradient id="paint23_linear_9002_27149" x1="94.1434" y1="144.38" x2="100.865" y2="144.38" gradientUnits="userSpaceOnUse">
<stop stop-color="white"/>
<stop offset="1" stop-color="#DFD8E7"/>
</linearGradient>
<linearGradient id="paint24_linear_9002_27149" x1="98.1396" y1="132.352" x2="105.039" y2="132.352" gradientUnits="userSpaceOnUse">
<stop stop-color="white"/>
<stop offset="1" stop-color="#DFD8E7"/>
</linearGradient>
<linearGradient id="paint25_linear_9002_27149" x1="103.043" y1="114.669" x2="118.106" y2="114.669" gradientUnits="userSpaceOnUse">
<stop stop-color="white"/>
<stop offset="1" stop-color="#DFD8E7"/>
</linearGradient>
<linearGradient id="paint26_linear_9002_27149" x1="39.04" y1="150.933" x2="44.8441" y2="150.933" gradientUnits="userSpaceOnUse">
<stop stop-color="white"/>
<stop offset="1" stop-color="#DFD8E7"/>
</linearGradient>
<linearGradient id="paint27_linear_9002_27149" x1="42.1823" y1="158.926" x2="53.5929" y2="163.288" gradientUnits="userSpaceOnUse">
<stop stop-color="white"/>
<stop offset="1" stop-color="#DFD8E7"/>
</linearGradient>
<linearGradient id="paint28_linear_9002_27149" x1="56.5728" y1="168.489" x2="64.5664" y2="168.489" gradientUnits="userSpaceOnUse">
<stop stop-color="white"/>
<stop offset="1" stop-color="#DFD8E7"/>
</linearGradient>
<linearGradient id="paint29_linear_9002_27149" x1="54.9443" y1="158.497" x2="58.0522" y2="165.835" gradientUnits="userSpaceOnUse">
<stop stop-color="white"/>
<stop offset="1" stop-color="#DFD8E7"/>
</linearGradient>
<linearGradient id="paint30_linear_9002_27149" x1="140.581" y1="73.5963" x2="146.937" y2="73.5963" gradientUnits="userSpaceOnUse">
<stop stop-color="white"/>
<stop offset="1" stop-color="#DFD8E7"/>
</linearGradient>
<linearGradient id="paint31_linear_9002_27149" x1="134.971" y1="59.2645" x2="141.338" y2="59.2645" gradientUnits="userSpaceOnUse">
<stop stop-color="white"/>
<stop offset="1" stop-color="#DFD8E7"/>
</linearGradient>
<linearGradient id="paint32_linear_9002_27149" x1="145.94" y1="49.2942" x2="149.4" y2="46.753" gradientUnits="userSpaceOnUse">
<stop stop-color="white"/>
<stop offset="1" stop-color="#DFD8E7"/>
</linearGradient>
<linearGradient id="paint33_linear_9002_27149" x1="148.739" y1="55.5283" x2="152.882" y2="54.3674" gradientUnits="userSpaceOnUse">
<stop stop-color="white"/>
<stop offset="1" stop-color="#DFD8E7"/>
</linearGradient>
<linearGradient id="paint34_linear_9002_27149" x1="124.498" y1="72.9949" x2="128.285" y2="76.595" gradientUnits="userSpaceOnUse">
<stop stop-color="white"/>
<stop offset="1" stop-color="#DFD8E7"/>
</linearGradient>
<linearGradient id="paint35_linear_9002_27149" x1="74.7528" y1="90.4357" x2="78.9464" y2="91.1326" gradientUnits="userSpaceOnUse">
<stop stop-color="white"/>
<stop offset="1" stop-color="#DFD8E7"/>
</linearGradient>
<linearGradient id="paint36_linear_9002_27149" x1="81.6627" y1="76.4266" x2="85.8512" y2="77.1226" gradientUnits="userSpaceOnUse">
<stop stop-color="white"/>
<stop offset="1" stop-color="#DFD8E7"/>
</linearGradient>
<linearGradient id="paint37_linear_9002_27149" x1="87.3204" y1="66.9989" x2="90.7296" y2="69.5301" gradientUnits="userSpaceOnUse">
<stop stop-color="white"/>
<stop offset="1" stop-color="#DFD8E7"/>
</linearGradient>
<linearGradient id="paint38_linear_9002_27149" x1="80.2105" y1="80.8274" x2="84.0032" y2="84.4319" gradientUnits="userSpaceOnUse">
<stop stop-color="white"/>
<stop offset="1" stop-color="#DFD8E7"/>
</linearGradient>
<linearGradient id="paint39_linear_9002_27149" x1="98.9733" y1="52.6943" x2="103.821" y2="54.657" gradientUnits="userSpaceOnUse">
<stop stop-color="white"/>
<stop offset="1" stop-color="#DFD8E7"/>
</linearGradient>
<linearGradient id="paint40_linear_9002_27149" x1="116.884" y1="88.1391" x2="123.01" y2="89.842" gradientUnits="userSpaceOnUse">
<stop stop-color="white"/>
<stop offset="1" stop-color="#DFD8E7"/>
</linearGradient>
<linearGradient id="paint41_linear_9002_27149" x1="128.486" y1="63.4572" x2="134.853" y2="63.4572" gradientUnits="userSpaceOnUse">
<stop stop-color="white"/>
<stop offset="1" stop-color="#DFD8E7"/>
</linearGradient>
<linearGradient id="paint42_linear_9002_27149" x1="108.663" y1="42.7192" x2="113.546" y2="46.7788" gradientUnits="userSpaceOnUse">
<stop stop-color="white"/>
<stop offset="1" stop-color="#DFD8E7"/>
</linearGradient>
<linearGradient id="paint43_linear_9002_27149" x1="95.3363" y1="59.6629" x2="100.224" y2="63.727" gradientUnits="userSpaceOnUse">
<stop stop-color="white"/>
<stop offset="1" stop-color="#DFD8E7"/>
</linearGradient>
<linearGradient id="paint44_linear_9002_27149" x1="132.103" y1="49.4975" x2="136.385" y2="52.1658" gradientUnits="userSpaceOnUse">
<stop stop-color="white"/>
<stop offset="1" stop-color="#DFD8E7"/>
</linearGradient>
<linearGradient id="paint45_linear_9002_27149" x1="108.843" y1="117.691" x2="115.206" y2="117.691" gradientUnits="userSpaceOnUse">
<stop stop-color="white"/>
<stop offset="1" stop-color="#DFD8E7"/>
</linearGradient>
<linearGradient id="paint46_linear_9002_27149" x1="105.865" y1="126.262" x2="110.887" y2="128.427" gradientUnits="userSpaceOnUse">
<stop stop-color="white"/>
<stop offset="1" stop-color="#DFD8E7"/>
</linearGradient>
<linearGradient id="paint47_linear_9002_27149" x1="104.171" y1="135.173" x2="109.193" y2="137.337" gradientUnits="userSpaceOnUse">
<stop stop-color="white"/>
<stop offset="1" stop-color="#DFD8E7"/>
</linearGradient>
<linearGradient id="paint48_linear_9002_27149" x1="96.9471" y1="147.454" x2="101.975" y2="149.622" gradientUnits="userSpaceOnUse">
<stop stop-color="white"/>
<stop offset="1" stop-color="#DFD8E7"/>
</linearGradient>
<linearGradient id="paint49_linear_9002_27149" x1="92.4024" y1="155.92" x2="96.9843" y2="155.985" gradientUnits="userSpaceOnUse">
<stop stop-color="white"/>
<stop offset="1" stop-color="#DFD8E7"/>
</linearGradient>
<linearGradient id="paint50_linear_9002_27149" x1="112.579" y1="107.262" x2="117.654" y2="107.262" gradientUnits="userSpaceOnUse">
<stop stop-color="white"/>
<stop offset="1" stop-color="#DFD8E7"/>
</linearGradient>
<linearGradient id="paint51_linear_9002_27149" x1="58.0342" y1="167.448" x2="61.9888" y2="174.171" gradientUnits="userSpaceOnUse">
<stop stop-color="white"/>
<stop offset="1" stop-color="#DFD8E7"/>
</linearGradient>
<linearGradient id="paint52_linear_9002_27149" x1="117.871" y1="40.746" x2="114.169" y2="35.586" gradientUnits="userSpaceOnUse">
<stop stop-color="white"/>
<stop offset="1" stop-color="#DFD8E7"/>
</linearGradient>
<linearGradient id="paint53_linear_9002_27149" x1="119.864" y1="37.2263" x2="127.221" y2="37.2263" gradientUnits="userSpaceOnUse">
<stop stop-color="white"/>
<stop offset="1" stop-color="#DFD8E7"/>
</linearGradient>
<linearGradient id="paint54_linear_9002_27149" x1="55.4747" y1="120.987" x2="86.2743" y2="143.423" gradientUnits="userSpaceOnUse">
<stop stop-color="#F18854"/>
<stop offset="0.0929693" stop-color="#F6AD81"/>
<stop offset="0.1947" stop-color="#FBD0AC"/>
<stop offset="0.2742" stop-color="#FEE6C7"/>
<stop offset="0.3211" stop-color="#FFEED1"/>
<stop offset="0.8269" stop-color="#EB631A"/>
<stop offset="1" stop-color="#E63325"/>
</linearGradient>
<linearGradient id="paint55_linear_9002_27149" x1="44.5008" y1="136.054" x2="75.2983" y2="158.489" gradientUnits="userSpaceOnUse">
<stop stop-color="#F18854"/>
<stop offset="0.0929693" stop-color="#F6AD81"/>
<stop offset="0.1947" stop-color="#FBD0AC"/>
<stop offset="0.2742" stop-color="#FEE6C7"/>
<stop offset="0.3211" stop-color="#FFEED1"/>
<stop offset="0.8269" stop-color="#EB631A"/>
<stop offset="1" stop-color="#E63325"/>
</linearGradient>
<linearGradient id="paint56_linear_9002_27149" x1="103.712" y1="54.7731" x2="134.514" y2="77.2108" gradientUnits="userSpaceOnUse">
<stop stop-color="#F18854"/>
<stop offset="0.0929693" stop-color="#F6AD81"/>
<stop offset="0.1947" stop-color="#FBD0AC"/>
<stop offset="0.2742" stop-color="#FEE6C7"/>
<stop offset="0.3211" stop-color="#FFEED1"/>
<stop offset="0.8269" stop-color="#EB631A"/>
<stop offset="1" stop-color="#E63325"/>
</linearGradient>
<linearGradient id="paint57_linear_9002_27149" x1="111.496" y1="44.09" x2="142.299" y2="66.5285" gradientUnits="userSpaceOnUse">
<stop stop-color="#F18854"/>
<stop offset="0.0929693" stop-color="#F6AD81"/>
<stop offset="0.1947" stop-color="#FBD0AC"/>
<stop offset="0.2742" stop-color="#FEE6C7"/>
<stop offset="0.3211" stop-color="#FFEED1"/>
<stop offset="0.8269" stop-color="#EB631A"/>
<stop offset="1" stop-color="#E63325"/>
</linearGradient>
<linearGradient id="paint58_linear_9002_27149" x1="105.545" y1="46.9044" x2="137.628" y2="68.2074" gradientUnits="userSpaceOnUse">
<stop stop-color="#FDB786"/>
<stop offset="0.0551966" stop-color="#FDC8A3"/>
<stop offset="0.1198" stop-color="#FED8BE"/>
<stop offset="0.1857" stop-color="#FEE4D1"/>
<stop offset="0.2532" stop-color="#FEEBDC"/>
<stop offset="0.3246" stop-color="#FEEDE0"/>
<stop offset="0.6931" stop-color="#FDD1B1"/>
<stop offset="1" stop-color="#FDB786"/>
</linearGradient>
<linearGradient id="paint59_linear_9002_27149" x1="97.5118" y1="58.9967" x2="129.592" y2="80.2981" gradientUnits="userSpaceOnUse">
<stop stop-color="#FDB786"/>
<stop offset="0.0551966" stop-color="#FDC8A3"/>
<stop offset="0.1198" stop-color="#FED8BE"/>
<stop offset="0.1857" stop-color="#FEE4D1"/>
<stop offset="0.2532" stop-color="#FEEBDC"/>
<stop offset="0.3246" stop-color="#FEEDE0"/>
<stop offset="0.6931" stop-color="#FDD1B1"/>
<stop offset="1" stop-color="#FDB786"/>
</linearGradient>
<linearGradient id="paint60_linear_9002_27149" x1="85.9934" y1="79.0945" x2="116.791" y2="101.529" gradientUnits="userSpaceOnUse">
<stop stop-color="#F18854"/>
<stop offset="0.0929693" stop-color="#F6AD81"/>
<stop offset="0.1947" stop-color="#FBD0AC"/>
<stop offset="0.2742" stop-color="#FEE6C7"/>
<stop offset="0.3211" stop-color="#FFEED1"/>
<stop offset="0.8269" stop-color="#EB631A"/>
<stop offset="1" stop-color="#E63325"/>
</linearGradient>
<linearGradient id="paint61_linear_9002_27149" x1="63.9476" y1="109.36" x2="94.7468" y2="131.796" gradientUnits="userSpaceOnUse">
<stop stop-color="#F18854"/>
<stop offset="0.0929693" stop-color="#F6AD81"/>
<stop offset="0.1947" stop-color="#FBD0AC"/>
<stop offset="0.2742" stop-color="#FEE6C7"/>
<stop offset="0.3211" stop-color="#FFEED1"/>
<stop offset="0.8269" stop-color="#EB631A"/>
<stop offset="1" stop-color="#E63325"/>
</linearGradient>
<linearGradient id="paint62_linear_9002_27149" x1="94.915" y1="66.8556" x2="125.715" y2="89.292" gradientUnits="userSpaceOnUse">
<stop stop-color="#F18854"/>
<stop offset="0.0929693" stop-color="#F6AD81"/>
<stop offset="0.1947" stop-color="#FBD0AC"/>
<stop offset="0.2742" stop-color="#FEE6C7"/>
<stop offset="0.3211" stop-color="#FFEED1"/>
<stop offset="0.8269" stop-color="#EB631A"/>
<stop offset="1" stop-color="#E63325"/>
</linearGradient>
<linearGradient id="paint63_linear_9002_27149" x1="89.0162" y1="71.8022" x2="121.089" y2="93.0983" gradientUnits="userSpaceOnUse">
<stop stop-color="#FDB786"/>
<stop offset="0.0551966" stop-color="#FDC8A3"/>
<stop offset="0.1198" stop-color="#FED8BE"/>
<stop offset="0.1857" stop-color="#FEE4D1"/>
<stop offset="0.2532" stop-color="#FEEBDC"/>
<stop offset="0.3246" stop-color="#FEEDE0"/>
<stop offset="0.6931" stop-color="#FDD1B1"/>
<stop offset="1" stop-color="#FDB786"/>
</linearGradient>
<linearGradient id="paint64_linear_9002_27149" x1="79.418" y1="86.2756" x2="111.488" y2="107.57" gradientUnits="userSpaceOnUse">
<stop stop-color="#FDB786"/>
<stop offset="0.0551966" stop-color="#FDC8A3"/>
<stop offset="0.1198" stop-color="#FED8BE"/>
<stop offset="0.1857" stop-color="#FEE4D1"/>
<stop offset="0.2532" stop-color="#FEEBDC"/>
<stop offset="0.3246" stop-color="#FEEDE0"/>
<stop offset="0.6931" stop-color="#FDD1B1"/>
<stop offset="1" stop-color="#FDB786"/>
</linearGradient>
<linearGradient id="paint65_linear_9002_27149" x1="75.9724" y1="92.8584" x2="106.77" y2="115.293" gradientUnits="userSpaceOnUse">
<stop stop-color="#F18854"/>
<stop offset="0.0929693" stop-color="#F6AD81"/>
<stop offset="0.1947" stop-color="#FBD0AC"/>
<stop offset="0.2742" stop-color="#FEE6C7"/>
<stop offset="0.3211" stop-color="#FFEED1"/>
<stop offset="0.8269" stop-color="#EB631A"/>
<stop offset="1" stop-color="#E63325"/>
</linearGradient>
<linearGradient id="paint66_linear_9002_27149" x1="60.3762" y1="114.935" x2="92.4491" y2="136.231" gradientUnits="userSpaceOnUse">
<stop stop-color="#FDB786"/>
<stop offset="0.0551966" stop-color="#FDC8A3"/>
<stop offset="0.1198" stop-color="#FED8BE"/>
<stop offset="0.1857" stop-color="#FEE4D1"/>
<stop offset="0.2532" stop-color="#FEEBDC"/>
<stop offset="0.3246" stop-color="#FEEDE0"/>
<stop offset="0.6931" stop-color="#FDD1B1"/>
<stop offset="1" stop-color="#FDB786"/>
</linearGradient>
<linearGradient id="paint67_linear_9002_27149" x1="48.3948" y1="132.994" x2="80.4627" y2="154.287" gradientUnits="userSpaceOnUse">
<stop stop-color="#FDB786"/>
<stop offset="0.0551966" stop-color="#FDC8A3"/>
<stop offset="0.1198" stop-color="#FED8BE"/>
<stop offset="0.1857" stop-color="#FEE4D1"/>
<stop offset="0.2532" stop-color="#FEEBDC"/>
<stop offset="0.3246" stop-color="#FEEDE0"/>
<stop offset="0.6931" stop-color="#FDD1B1"/>
<stop offset="1" stop-color="#FDB786"/>
</linearGradient>
<linearGradient id="paint68_linear_9002_27149" x1="68.5253" y1="102.661" x2="100.597" y2="123.956" gradientUnits="userSpaceOnUse">
<stop stop-color="#FDB786"/>
<stop offset="0.0551966" stop-color="#FDC8A3"/>
<stop offset="0.1198" stop-color="#FED8BE"/>
<stop offset="0.1857" stop-color="#FEE4D1"/>
<stop offset="0.2532" stop-color="#FEEBDC"/>
<stop offset="0.3246" stop-color="#FEEDE0"/>
<stop offset="0.6931" stop-color="#FDD1B1"/>
<stop offset="1" stop-color="#FDB786"/>
</linearGradient>
<linearGradient id="paint69_linear_9002_27149" x1="130.536" y1="31.5376" x2="138.671" y2="39.2051" gradientUnits="userSpaceOnUse">
<stop offset="0.1731" stop-color="#F59E68"/>
<stop offset="0.5673" stop-color="#FF521F"/>
<stop offset="1" stop-color="#C11D02"/>
</linearGradient>
<linearGradient id="paint70_linear_9002_27149" x1="141.941" y1="32.9686" x2="149.067" y2="44.7323" gradientUnits="userSpaceOnUse">
<stop offset="0.1731" stop-color="#F59E68"/>
<stop offset="0.5673" stop-color="#FF521F"/>
<stop offset="1" stop-color="#C11D02"/>
</linearGradient>
<linearGradient id="paint71_linear_9002_27149" x1="135.928" y1="39.4525" x2="138.186" y2="43.0973" gradientUnits="userSpaceOnUse">
<stop offset="0.1731" stop-color="#F59E68"/>
<stop offset="1" stop-color="#C11D02"/>
</linearGradient>
<linearGradient id="paint72_linear_9002_27149" x1="143.082" y1="33.9235" x2="146.205" y2="41.2343" gradientUnits="userSpaceOnUse">
<stop offset="0.1731" stop-color="#F59E68"/>
<stop offset="0.5673" stop-color="#FF521F"/>
<stop offset="1" stop-color="#C11D02"/>
</linearGradient>
<linearGradient id="paint73_linear_9002_27149" x1="142.648" y1="31.2029" x2="144.535" y2="33.9983" gradientUnits="userSpaceOnUse">
<stop offset="0.1731" stop-color="#F59E68"/>
<stop offset="1" stop-color="#C11D02"/>
</linearGradient>
<linearGradient id="paint74_linear_9002_27149" x1="125.441" y1="36.8053" x2="134.073" y2="44.9454" gradientUnits="userSpaceOnUse">
<stop offset="0.1731" stop-color="#F59E68"/>
<stop offset="0.5673" stop-color="#FF521F"/>
<stop offset="1" stop-color="#C11D02"/>
</linearGradient>
<linearGradient id="paint75_linear_9002_27149" x1="130.527" y1="31.5386" x2="138.668" y2="39.2112" gradientUnits="userSpaceOnUse">
<stop offset="0.1731" stop-color="#F59E68"/>
<stop offset="0.5673" stop-color="#FF521F"/>
<stop offset="1" stop-color="#C11D02"/>
</linearGradient>
<linearGradient id="paint76_linear_9002_27149" x1="135.785" y1="29.1508" x2="137.492" y2="32.0361" gradientUnits="userSpaceOnUse">
<stop offset="0.1731" stop-color="#F59E68"/>
<stop offset="1" stop-color="#C11D02"/>
</linearGradient>
<linearGradient id="paint77_linear_9002_27149" x1="128.92" y1="35.7321" x2="131.278" y2="38.886" gradientUnits="userSpaceOnUse">
<stop offset="0.1731" stop-color="#F59E68"/>
<stop offset="1" stop-color="#C11D02"/>
</linearGradient>
<linearGradient id="paint78_linear_9002_27149" x1="120.199" y1="118.959" x2="99.0941" y2="107.417" gradientUnits="userSpaceOnUse">
<stop offset="0.3205" stop-color="white"/>
<stop offset="0.4009" stop-color="#FFF8F4"/>
<stop offset="0.5441" stop-color="#FEE6D5"/>
<stop offset="0.7322" stop-color="#FDC9A4"/>
<stop offset="0.8352" stop-color="#FDB786"/>
</linearGradient>
<linearGradient id="paint79_linear_9002_27149" x1="80.2582" y1="110.366" x2="122.402" y2="146.936" gradientUnits="userSpaceOnUse">
<stop stop-color="white"/>
<stop offset="0.1304" stop-color="#FFF8F4"/>
<stop offset="0.3628" stop-color="#FEE6D5"/>
<stop offset="0.668" stop-color="#FDC9A4"/>
<stop offset="0.8352" stop-color="#FDB786"/>
</linearGradient>
<linearGradient id="paint80_linear_9002_27149" x1="56.8234" y1="142.693" x2="106.931" y2="185.35" gradientUnits="userSpaceOnUse">
<stop stop-color="white"/>
<stop offset="0.1304" stop-color="#FFF8F4"/>
<stop offset="0.3628" stop-color="#FEE6D5"/>
<stop offset="0.668" stop-color="#FDC9A4"/>
<stop offset="0.8352" stop-color="#FDB786"/>
</linearGradient>
<linearGradient id="paint81_linear_9002_27149" x1="60.7412" y1="122.788" x2="116.964" y2="159.188" gradientUnits="userSpaceOnUse">
<stop stop-color="white"/>
<stop offset="0.1304" stop-color="#FFF8F4"/>
<stop offset="0.3628" stop-color="#FEE6D5"/>
<stop offset="0.668" stop-color="#FDC9A4"/>
<stop offset="0.8352" stop-color="#FDB786"/>
</linearGradient>
<linearGradient id="paint82_linear_9002_27149" x1="86.489" y1="96.4234" x2="116.066" y2="128.001" gradientUnits="userSpaceOnUse">
<stop stop-color="white"/>
<stop offset="0.1304" stop-color="#FFF8F4"/>
<stop offset="0.3628" stop-color="#FEE6D5"/>
<stop offset="0.668" stop-color="#FDC9A4"/>
<stop offset="0.8352" stop-color="#FDB786"/>
</linearGradient>
<linearGradient id="paint83_linear_9002_27149" x1="96.7327" y1="83.9478" x2="119.869" y2="108.302" gradientUnits="userSpaceOnUse">
<stop stop-color="white"/>
<stop offset="0.1304" stop-color="#FFF8F4"/>
<stop offset="0.3628" stop-color="#FEE6D5"/>
<stop offset="0.668" stop-color="#FDC9A4"/>
<stop offset="0.8352" stop-color="#FDB786"/>
</linearGradient>
<linearGradient id="paint84_linear_9002_27149" x1="53.9053" y1="101.525" x2="128.739" y2="101.525" gradientUnits="userSpaceOnUse">
<stop offset="0.1031" stop-color="#E94F33"/>
<stop offset="1" stop-color="#FEA692"/>
</linearGradient>
<linearGradient id="paint85_linear_9002_27149" x1="61.1967" y1="87.8008" x2="145.472" y2="136.623" gradientUnits="userSpaceOnUse">
<stop stop-color="#F18854"/>
<stop offset="0.0929693" stop-color="#F6AD81"/>
<stop offset="0.1947" stop-color="#FBD0AC"/>
<stop offset="0.2742" stop-color="#FEE6C7"/>
<stop offset="0.3211" stop-color="#FFEED1"/>
<stop offset="0.8269" stop-color="#EB631A"/>
<stop offset="1" stop-color="#E63325"/>
</linearGradient>
</defs>
</svg>
