<svg width="200" height="200" viewBox="0 0 200 200" fill="none" xmlns="http://www.w3.org/2000/svg">
<path d="M61.6047 161.185C61.6047 161.185 63.8409 165.088 65.6298 167.941C67.4187 170.794 82.6244 174.698 93.805 174.698H107.222C118.403 174.698 133.757 170.794 135.397 167.941C137.335 165.088 139.422 161.185 139.422 161.185H61.6047Z" fill="url(#paint0_linear_2003_31910)"/>
<path d="M60.8593 161.335C62.3501 164.038 63.8409 167.792 66.5242 169.443C69.9529 171.545 74.2761 172.446 78.003 173.197C85.6059 174.849 93.2087 174.999 100.961 174.999C108.713 174.999 116.315 174.548 123.918 172.897C127.496 172.146 131.372 171.095 134.503 169.293C137.335 167.641 138.677 163.738 140.317 161.035C140.466 160.885 140.018 160.885 139.869 160.885C115.57 160.885 91.2707 160.885 66.9714 160.885C65.3316 160.885 63.5427 160.885 61.9029 160.885C61.4556 160.885 60.263 161.485 61.3066 161.485C85.6059 161.485 109.905 161.485 134.204 161.485C135.695 161.485 137.186 161.485 138.677 161.485C138.826 161.485 139.124 161.485 139.273 161.485C138.677 161.485 138.975 161.185 138.528 161.786C138.23 162.236 138.08 162.686 137.782 162.987C137.037 164.188 136.292 165.539 135.546 166.741C133.161 170.644 127.347 171.545 123.024 172.446C117.806 173.647 112.439 174.248 107.073 174.248C99.9171 174.248 92.6124 174.548 85.4568 173.647C80.0901 172.897 74.5743 171.846 69.5057 169.744C65.6298 168.092 64.139 164.338 62.0519 160.885C62.0519 160.584 60.7103 161.185 60.8593 161.335Z" fill="#585559"/>
<path d="M61.6047 161.186C61.6047 161.186 63.8409 165.089 65.6298 167.942C66.5242 169.294 70.6983 170.945 76.0651 172.297C76.0651 171.095 76.3632 170.195 77.5558 170.795C79.941 171.996 106.029 174.999 121.682 171.696C126.453 170.645 127.198 170.795 127.347 171.846C131.67 170.645 134.95 169.144 135.695 167.942C137.633 165.089 139.72 161.186 139.72 161.186H61.6047Z" fill="url(#paint1_linear_2003_31910)"/>
<path d="M133.459 33.4082C133.459 33.4082 137.633 41.3662 139.72 44.8196C141.807 48.2731 142.105 50.0749 142.105 55.0298C142.105 59.9848 142.105 134.459 142.105 143.919C142.105 153.378 142.105 153.228 142.105 157.132C142.105 160.886 139.869 164.039 131.968 167.642C123.918 171.396 111.545 172.447 102.451 172.147H98.2773C92.0161 172.147 76.8104 170.195 68.6112 167.342C60.4121 164.339 57.8778 160.886 57.8778 157.132C57.8778 153.378 57.8778 153.528 57.8778 143.919C57.8778 134.609 57.8778 59.9848 57.8778 55.0298C57.8778 50.0749 58.176 48.2731 60.263 44.8196C62.3501 41.3662 66.5242 33.4082 66.5242 33.4082H133.459Z" fill="url(#paint2_linear_2003_31910)"/>
<path d="M60.1141 52.4763C60.1141 46.17 66.2262 38.212 70.6984 33.4072H66.5243C66.5243 33.4072 62.2011 41.3652 60.2631 44.8186C58.1761 48.2721 57.8779 50.0739 57.8779 55.0288C57.8779 59.9838 57.8779 134.458 57.8779 143.918C57.8779 153.377 57.8779 153.227 57.8779 157.131C57.8779 159.083 58.6233 160.885 60.2631 162.687C60.7104 145.87 60.1141 61.3352 60.1141 52.4763Z" fill="url(#paint3_linear_2003_31910)"/>
<g style="mix-blend-mode:soft-light" opacity="0.6">
<path d="M96.7866 33.4072H84.7115L82.3263 44.3682C85.606 44.9688 89.9291 45.5694 95.1468 45.8697L96.7866 33.4072Z" fill="url(#paint4_linear_2003_31910)"/>
<path d="M80.2393 54.4287V170.044C84.8606 170.945 89.7801 171.546 93.6561 171.846V55.9302C89.1838 55.7801 84.7115 55.4798 80.2393 54.4287Z" fill="url(#paint5_linear_2003_31910)"/>
<path opacity="0.5" d="M117.508 33.4072H107.222L108.713 45.8697C112.44 45.5694 116.316 44.9688 120.191 44.0679L117.508 33.4072Z" fill="url(#paint6_linear_2003_31910)"/>
<path opacity="0.5" d="M109.905 55.3301V171.997C114.08 171.847 118.552 171.246 122.726 170.345V53.8286V53.5283C118.552 54.7295 114.378 55.4803 109.905 55.3301Z" fill="url(#paint7_linear_2003_31910)"/>
</g>
<path d="M139.72 44.8186C137.633 41.3652 133.459 33.4072 133.459 33.4072H124.664L133.608 51.1249L133.906 166.59C140.317 163.888 142.106 160.284 142.106 156.831C142.106 153.077 142.106 153.227 142.106 143.617C142.106 134.308 142.106 59.6835 142.106 54.7285C142.106 50.0739 141.807 48.1219 139.72 44.8186Z" fill="url(#paint8_linear_2003_31910)"/>
<g opacity="0.5">
<path d="M124.515 85.0603C118.701 100.075 113.334 100.225 99.6189 96.1714C84.4132 91.3666 74.8724 98.2735 67.5677 109.234C63.0954 115.841 59.8158 125.901 57.8778 132.658C57.8778 138.063 57.8778 142.117 57.8778 143.769C57.8778 145.12 57.8778 146.171 57.8778 147.072C59.8158 142.117 63.6918 134.91 68.4622 134.61C76.065 134.009 79.941 150.526 95.8921 148.874C111.843 147.222 116.017 134.46 123.769 123.048C130.925 112.538 137.931 113.589 141.956 120.496C141.956 103.078 141.956 80.2555 141.956 66.5918C135.695 67.4927 129.285 72.748 124.515 85.0603Z" fill="url(#paint9_linear_2003_31910)"/>
</g>
<path d="M139.72 44.8186C137.633 41.3652 133.459 33.4072 133.459 33.4072H66.5243C66.5243 33.4072 62.2011 41.3652 60.2631 44.8186C59.9649 45.4192 59.6668 46.0198 59.3686 46.4703L65.6298 39.2631C65.6298 39.2631 98.8736 50.6745 132.267 39.8637C138.677 48.5724 128.242 55.4793 92.6125 55.179C110.8 57.7316 128.54 53.9778 135.695 50.8246C139.124 49.6234 139.422 56.6805 139.422 69.5934C139.422 82.6565 139.422 127.852 139.422 145.119C139.422 162.536 117.955 171.245 94.5505 169.744C77.4068 168.693 65.3317 164.789 58.7723 160.134C59.9649 162.837 62.9465 165.089 68.6113 167.191C76.8105 170.194 92.0162 171.996 98.2773 171.996H102.451C111.545 172.296 123.918 171.095 131.968 167.491C139.869 163.888 142.106 160.735 142.106 156.981C142.106 153.227 142.106 153.377 142.106 143.768C142.106 134.458 142.106 59.8337 142.106 54.8787C142.106 50.0739 141.807 48.1219 139.72 44.8186Z" fill="url(#paint10_linear_2003_31910)"/>
<g opacity="0.4" style="mix-blend-mode:soft-light">
<path d="M65.4807 50.3758C65.4807 50.3758 106.476 61.7872 137.037 49.625C136.888 49.625 111.396 64.4899 65.4807 50.3758Z" fill="#95FCFB"/>
</g>
<path d="M80.5374 39.7141C80.5374 39.7141 87.0967 41.3658 101.408 41.2156C115.719 40.9153 101.408 44.3688 88.2893 42.8673C75.3197 41.3658 74.1271 38.9633 80.5374 39.7141Z" fill="url(#paint11_linear_2003_31910)"/>
<path d="M123.769 85.2107C122.279 89.1146 120.49 93.1687 117.359 96.0215C114.228 98.8744 109.905 98.2738 106.178 97.523C101.408 96.472 96.7866 94.6702 91.8671 94.3699C87.9911 94.2197 84.1152 94.9705 80.5374 96.6221C72.0401 100.376 66.3752 109.085 62.6483 117.343C60.4122 122.298 58.6233 127.553 57.1325 132.808C56.8344 133.859 57.1325 135.361 57.1325 136.412C57.1325 137.913 57.1325 139.265 57.1325 140.766C57.1325 143.019 57.1325 145.121 57.1325 147.373C57.1325 147.673 58.4742 147.373 58.6233 147.073C60.2631 143.169 63.8409 134.31 69.3567 135.061C72.3382 135.511 74.7234 138.514 76.6614 140.466C79.1957 143.169 81.879 145.721 85.3078 147.373C89.1837 149.325 93.3579 149.475 97.532 149.025C106.924 147.673 113.036 141.517 117.955 133.859C121.086 129.055 123.62 123.799 127.347 119.595C129.583 117.043 132.714 114.94 136.292 115.992C138.677 116.742 140.317 118.844 141.509 120.796C141.658 121.097 143 120.796 143 120.496C143 102.478 143 84.6101 143 66.5921C143 66.442 142.553 66.442 142.404 66.5921C132.565 67.9435 127.198 76.8023 123.769 85.2107C123.62 85.511 124.962 85.3609 125.111 84.9104C128.092 77.2528 133.012 68.2438 141.807 66.5921C141.658 66.5921 141.36 66.5921 141.211 66.5921C141.211 84.6101 141.211 102.478 141.211 120.496C141.658 120.346 142.106 120.196 142.702 120.196C140.615 116.892 137.633 114.49 133.608 114.94C128.987 115.541 125.558 119.445 123.024 123.049C116.912 131.907 112.738 143.319 101.855 147.223C96.1903 149.325 89.78 148.874 84.7115 145.721C81.4318 143.619 78.8975 140.616 76.0651 137.913C74.2762 136.112 71.891 134.01 69.2076 134.16C65.0335 134.31 62.2011 137.763 60.114 141.067C58.9214 143.019 58.027 144.97 57.1325 147.073C57.5797 146.922 58.027 146.922 58.6233 146.772C58.6233 144.82 58.6233 142.718 58.6233 140.766C58.6233 137.913 58.027 134.46 58.7723 131.757C60.2631 126.502 62.2011 121.247 64.4372 116.292C68.6113 107.133 75.6179 97.2227 86.0532 95.2708C95.1468 93.469 103.346 99.6251 112.44 98.7242C119.595 97.9735 122.875 91.0666 125.26 85.0606C125.26 84.7603 123.918 84.9104 123.769 85.2107Z" fill="url(#paint12_linear_2003_31910)"/>
<path d="M132.863 33.5595C134.652 37.0129 136.441 40.3162 138.379 43.7697C139.571 45.7216 140.615 47.5234 141.062 49.7757C141.509 51.7276 141.36 53.6796 141.36 55.6315C141.36 60.1361 141.36 64.6406 141.36 69.2952C141.36 86.2622 141.36 103.229 141.36 120.196C141.36 132.659 141.658 145.121 141.36 157.734C141.211 163.59 134.205 166.593 129.732 168.394C123.173 170.947 116.017 171.698 109.011 171.998C99.619 172.448 90.0782 171.848 80.8355 170.196C75.0216 169.145 69.0585 167.794 63.8409 164.941C61.7538 163.74 59.8159 162.088 58.9214 159.986C58.3251 158.484 58.3251 156.833 58.3251 155.181C58.3251 149.475 58.3251 143.77 58.3251 138.064C58.3251 122.148 58.3251 106.232 58.3251 90.3162C58.3251 78.0039 58.176 65.8418 58.3251 53.5294C58.4742 48.124 61.1575 44.2201 63.6918 39.7156C64.7354 37.9138 65.6298 36.112 66.5243 34.4604C67.1206 33.4093 65.7789 34.0099 66.5243 34.0099C70.9965 34.0099 75.3197 34.0099 79.792 34.0099C97.532 34.0099 115.272 34.0099 133.012 34.0099C133.459 34.0099 134.205 33.4093 133.459 33.4093C111.098 33.4093 88.8856 33.4093 66.5243 33.4093C66.5243 33.109 66.077 33.109 65.928 33.4093C64.1391 36.8628 62.3501 40.1661 60.4122 43.6195C59.3686 45.4213 58.3251 47.073 57.7288 49.1751C57.1325 51.127 57.2816 53.3793 57.2816 55.4814C57.2816 59.8358 57.2816 64.1901 57.2816 68.3943C57.2816 85.3613 57.2816 102.178 57.2816 119.145C57.2816 131.608 57.2816 144.07 57.2816 156.532C57.2816 166.593 71.2947 168.845 78.8975 170.346C87.8421 171.998 96.6375 172.599 105.731 172.599C116.912 172.599 129.881 171.097 138.975 163.89C141.956 161.638 142.553 158.785 142.553 155.331C142.553 151.427 142.553 147.523 142.553 143.77C142.553 130.556 142.553 117.493 142.553 104.28C142.553 90.6165 142.553 77.103 142.553 63.4394C142.553 60.1361 142.553 56.6826 142.553 53.3793C142.553 48.8748 140.764 45.8718 138.677 42.118C137.037 39.2652 135.546 36.4123 133.906 33.4093C133.757 32.8087 132.714 33.2592 132.863 33.5595Z" fill="#042272"/>
<path d="M134.652 34.1596C134.652 38.6641 118.999 42.4179 99.619 42.4179C80.2392 42.4179 64.5863 38.6641 64.5863 34.1596C64.5863 29.6551 80.2392 25.9014 99.619 25.9014C118.999 25.9014 134.652 29.6551 134.652 34.1596Z" fill="url(#paint13_linear_2003_31910)"/>
<path d="M99.7681 42.7177C79.9411 42.7177 64.5863 38.9639 64.5863 34.1591C64.5863 29.3543 80.0902 25.6006 99.7681 25.6006C119.446 25.6006 134.95 29.3543 134.95 34.1591C134.95 38.9639 119.446 42.7177 99.7681 42.7177ZM99.7681 26.2012C80.9846 26.2012 65.0335 29.8048 65.0335 34.1591C65.0335 38.5135 80.9846 42.1171 99.7681 42.1171C118.552 42.1171 134.503 38.5135 134.503 34.1591C134.503 29.8048 118.552 26.2012 99.7681 26.2012Z" fill="#585559"/>
<path d="M134.652 34.1586C134.652 29.6541 118.999 25.9004 99.619 25.9004C80.2392 25.9004 64.5863 29.6541 64.5863 34.1586C64.5863 35.51 65.928 36.8614 68.4623 37.9124L69.2076 37.1617C69.2076 37.1617 92.9107 45.1196 126.304 38.513L126.751 39.4139C131.819 37.9124 134.652 36.1106 134.652 34.1586Z" fill="url(#paint14_linear_2003_31910)"/>
<path d="M134.652 32.508C134.652 36.7122 118.999 40.1656 99.619 40.1656C80.2392 40.1656 64.5863 36.7122 64.5863 32.508C64.5863 28.3038 80.2392 25.3008 99.619 25.3008C118.999 25.3008 134.652 28.3038 134.652 32.508Z" fill="url(#paint15_linear_2003_31910)"/>
<path d="M99.7681 40.4655C79.9411 40.4655 64.5863 37.012 64.5863 32.5075C64.5863 29.8048 70.2512 28.003 75.0216 27.1021C81.4318 25.7508 90.2273 25 99.7681 25C109.16 25 118.104 25.7508 124.515 27.1021C129.285 28.003 134.95 29.8048 134.95 32.5075C134.95 37.012 119.446 40.4655 99.7681 40.4655ZM99.7681 25.4505C80.2392 25.4505 65.0335 28.6036 65.0335 32.5075C65.0335 36.5616 80.9846 39.8649 99.7681 39.8649C118.552 39.8649 134.503 36.5616 134.503 32.5075C134.503 28.6036 119.148 25.4505 99.7681 25.4505Z" fill="#585559"/>
<path d="M99.6189 28.1534C115.868 28.1534 129.434 30.2555 131.67 33.1083C131.968 32.808 131.968 32.5077 131.968 32.2074C131.968 29.0543 117.359 26.3516 99.4699 26.3516C81.7299 26.5017 67.1205 29.0543 67.1205 32.2074C67.1205 32.5077 67.2696 32.808 67.4186 33.1083C69.8038 30.2555 83.3697 28.1534 99.6189 28.1534Z" fill="url(#paint16_linear_2003_31910)"/>
<path d="M99.619 38.0623C115.868 38.0623 129.434 35.9602 131.67 33.1073C129.434 30.2544 115.868 28.1523 99.619 28.1523C83.2207 28.1523 69.8039 30.2544 67.4187 33.1073C69.8039 35.9602 83.3698 38.0623 99.619 38.0623Z" fill="url(#paint17_linear_2003_31910)"/>
<path opacity="0.6" d="M99.619 37.0119C112.439 37.0119 123.173 35.3603 124.962 33.108C123.173 30.8558 112.439 29.2041 99.619 29.2041C86.7985 29.2041 76.065 30.8558 74.2761 33.108C76.065 35.3603 86.7985 37.0119 99.619 37.0119Z" fill="url(#paint18_linear_2003_31910)"/>
<path d="M114.676 80.7056C113.93 81.9068 112.738 82.3573 111.843 81.9068C110.949 81.4563 110.8 79.9548 111.396 78.9038C112.141 77.7026 113.334 77.2521 114.228 77.7026C115.272 78.153 115.421 79.6545 114.676 80.7056Z" fill="url(#paint19_linear_2003_31910)"/>
<path d="M114.825 78.0029C114.974 78.3032 114.974 78.4534 114.825 78.7537C114.377 79.6546 114.974 79.9549 114.228 81.1561C113.483 82.2071 112.29 81.9068 111.843 81.6065C111.396 81.3062 111.396 79.9549 111.843 79.3543C112.141 78.9038 112.141 78.6035 112.29 78.1531C111.992 78.3032 111.843 78.6035 111.694 78.9038C110.949 80.105 111.247 81.4564 112.141 81.9068C113.036 82.3573 114.228 81.9068 114.974 80.7056C115.272 79.8047 115.272 78.7537 114.825 78.0029Z" fill="url(#paint20_linear_2003_31910)"/>
<path d="M119.893 74.8506C119.595 75.4512 118.999 75.6013 118.552 75.4512C118.104 75.1509 118.104 74.5503 118.402 73.9497C118.701 73.3491 119.297 73.1989 119.744 73.3491C120.191 73.6494 120.34 74.25 119.893 74.8506Z" fill="url(#paint21_linear_2003_31910)"/>
<path d="M119.893 73.4998C119.893 73.6499 120.042 73.8001 119.893 73.8001C119.595 74.2505 119.893 74.4007 119.595 74.8511C119.297 75.4517 118.701 75.1514 118.403 75.0013C118.253 74.8511 118.253 74.2505 118.403 73.9502C118.552 73.8001 118.552 73.6499 118.552 73.3496C118.403 73.4998 118.403 73.4998 118.253 73.6499C117.955 74.2505 117.955 74.8511 118.403 75.1514C118.85 75.4517 119.446 75.1514 119.744 74.5508C120.191 74.4007 120.191 73.8001 119.893 73.4998Z" fill="url(#paint22_linear_2003_31910)"/>
<path d="M114.527 90.0145C114.079 90.7653 113.185 91.2157 112.44 90.9154C111.843 90.6151 111.694 89.5641 112.141 88.8133C112.589 87.9124 113.483 87.6121 114.079 87.9124C114.974 88.2127 114.974 89.1136 114.527 90.0145Z" fill="url(#paint23_linear_2003_31910)"/>
<path d="M114.527 88.0625C114.676 88.2127 114.676 88.3628 114.527 88.5129C114.079 89.1135 114.676 89.4139 114.079 90.1646C113.632 90.9154 112.738 90.6151 112.44 90.4649C112.141 90.3147 112.141 89.4138 112.44 88.9634C112.589 88.6631 112.589 88.3628 112.738 88.0625C112.589 88.2127 112.44 88.3628 112.29 88.6631C111.843 89.564 111.992 90.4649 112.589 90.7652C113.185 91.0655 114.079 90.7652 114.676 89.8643C114.974 89.2637 114.974 88.513 114.527 88.0625Z" fill="url(#paint24_linear_2003_31910)"/>
<path d="M62.052 67.4911C61.7538 68.0917 61.0084 68.392 60.5612 68.0917C60.114 67.7914 59.9649 67.0407 60.4121 66.4401C60.7103 65.8395 61.4557 65.5392 61.9029 65.8395C62.3501 66.1398 62.4992 66.8905 62.052 67.4911Z" fill="url(#paint25_linear_2003_31910)"/>
<path d="M62.052 66.1396C62.052 66.2898 62.052 66.44 62.052 66.5901C61.7538 67.0406 62.052 67.1907 61.7538 67.7913C61.3066 68.3919 60.7103 68.0916 60.4121 67.9415C60.2631 67.7913 60.2631 67.0405 60.4121 66.7402C60.5612 66.5901 60.5612 66.2898 60.7103 66.1396C60.5612 66.2898 60.4121 66.44 60.4121 66.5901C60.114 67.1907 60.114 67.9414 60.5612 68.2417C61.0084 68.5421 61.7538 68.2418 62.052 67.6411C62.3501 67.0405 62.3501 66.4399 62.052 66.1396Z" fill="url(#paint26_linear_2003_31910)"/>
<path d="M63.6918 71.3962C63.3936 71.8466 62.9464 71.9968 62.6483 71.8466C62.3501 71.6965 62.201 71.0959 62.4992 70.6454C62.7973 70.195 63.2446 70.0448 63.5427 70.195C63.8409 70.4953 63.9899 70.9457 63.6918 71.3962Z" fill="url(#paint27_linear_2003_31910)"/>
<path d="M63.6918 70.4951C63.6918 70.6453 63.6918 70.6453 63.6918 70.7954C63.5427 71.0957 63.6918 71.2459 63.3937 71.6963C63.0955 72.1468 62.6483 71.9966 62.4992 71.8465C62.3501 71.6963 62.3501 71.2459 62.4992 70.9456C62.6483 70.7954 62.6483 70.6453 62.6483 70.4951C62.4992 70.6453 62.4992 70.6453 62.3501 70.7954C62.052 71.2459 62.2011 71.6963 62.4992 71.9966C62.7974 72.1468 63.3937 71.9966 63.5427 71.5462C63.99 71.0957 63.8409 70.6453 63.6918 70.4951Z" fill="url(#paint28_linear_2003_31910)"/>
<path d="M68.164 96.02C67.7168 96.6206 67.1205 96.9209 66.6733 96.7707C66.226 96.4704 66.226 95.7197 66.5242 95.1191C66.9714 94.5185 67.5677 94.2182 68.015 94.3683C68.4622 94.6686 68.4622 95.4194 68.164 96.02Z" fill="url(#paint29_linear_2003_31910)"/>
<path d="M68.164 94.6689C68.164 94.8191 68.164 94.9692 68.164 95.1194C67.8658 95.5698 68.164 95.8701 67.8658 96.4707C67.4186 97.0713 66.8223 96.9212 66.6732 96.771C66.5242 96.6209 66.5242 95.8701 66.6732 95.5698C66.8223 95.4197 66.8223 95.1194 66.9714 94.8191C66.8223 94.9692 66.6732 95.1194 66.6732 95.2695C66.226 95.8701 66.3751 96.6209 66.8223 96.9212C67.2695 97.2215 67.8658 96.9212 68.3131 96.1704C68.4621 95.5698 68.4621 94.9692 68.164 94.6689Z" fill="url(#paint30_linear_2003_31910)"/>
<path d="M135.695 62.0864C135.248 62.687 134.652 62.9873 134.205 62.8372C133.757 62.5369 133.757 61.7861 134.055 61.1855C134.503 60.5849 135.099 60.2846 135.546 60.4347C136.143 60.735 136.143 61.3356 135.695 62.0864Z" fill="url(#paint31_linear_2003_31910)"/>
<path d="M135.844 60.585C135.844 60.7351 135.844 60.8853 135.844 61.0354C135.546 61.4859 135.844 61.636 135.546 62.3868C135.099 62.9874 134.503 62.8372 134.354 62.6871C134.204 62.5369 134.204 61.7862 134.354 61.4859C134.503 61.1856 134.503 61.0354 134.652 60.7351C134.503 60.8853 134.354 61.0354 134.354 61.1856C133.906 61.7862 134.055 62.5369 134.503 62.8372C134.95 63.1375 135.546 62.8372 135.993 62.0865C136.142 61.4859 136.142 60.8853 135.844 60.585Z" fill="url(#paint32_linear_2003_31910)"/>
<path d="M68.4621 146.171C68.0149 146.772 67.4186 147.072 66.9714 146.922C66.5241 146.622 66.5241 145.871 66.8223 145.27C67.2695 144.67 67.8658 144.37 68.3131 144.52C68.7603 144.82 68.9094 145.571 68.4621 146.171Z" fill="url(#paint33_linear_2003_31910)"/>
<path d="M68.6113 144.669C68.6113 144.819 68.6113 144.969 68.6113 145.119C68.3131 145.57 68.6113 145.87 68.3131 146.471C67.8659 147.071 67.2696 146.921 67.1205 146.771C66.8223 146.621 66.9714 145.87 67.1205 145.57C67.2696 145.42 67.2696 145.119 67.4186 144.969C67.2696 145.119 67.1205 145.27 67.1205 145.42C66.6733 146.02 66.8223 146.771 67.2696 147.071C67.7168 147.372 68.3131 147.071 68.7603 146.321C68.7603 145.72 68.7603 145.119 68.6113 144.669Z" fill="url(#paint34_linear_2003_31910)"/>
<path d="M124.067 136.862C123.62 138.064 122.428 138.814 121.682 138.514C120.788 138.214 120.49 136.862 120.937 135.661C121.384 134.46 122.577 133.559 123.322 134.01C124.216 134.16 124.515 135.511 124.067 136.862Z" fill="url(#paint35_linear_2003_31910)"/>
<path d="M123.769 134.16C123.918 134.46 123.918 134.611 123.769 134.911C123.471 135.812 124.067 136.112 123.471 137.313C123.024 138.515 121.682 138.364 121.384 138.214C120.937 137.914 120.788 136.713 121.086 136.112C121.235 135.662 121.235 135.361 121.384 134.761C121.235 135.061 121.086 135.361 120.937 135.662C120.49 136.863 120.788 138.214 121.682 138.515C122.577 138.815 123.62 138.064 124.067 136.863C124.515 135.812 124.366 134.611 123.769 134.16Z" fill="url(#paint36_linear_2003_31910)"/>
<path d="M128.54 131.006C128.241 131.756 127.645 132.057 127.198 131.906C126.751 131.756 126.602 131.006 126.751 130.255C127.049 129.504 127.645 129.204 128.092 129.354C128.689 129.504 128.838 130.255 128.54 131.006Z" fill="url(#paint37_linear_2003_31910)"/>
<path d="M128.391 129.504C128.54 129.654 128.54 129.804 128.391 129.954C128.242 130.555 128.54 130.555 128.242 131.306C127.943 131.906 127.347 131.906 127.049 131.756C126.751 131.606 126.751 131.005 126.9 130.555C127.049 130.255 126.9 130.105 127.049 129.804C126.9 129.954 126.9 130.105 126.751 130.255C126.453 131.005 126.602 131.606 127.198 131.906C127.645 132.056 128.242 131.606 128.54 131.005C128.838 130.405 128.689 129.804 128.391 129.504Z" fill="url(#paint38_linear_2003_31910)"/>
<path d="M106.924 137.763C104.986 140.165 102.004 140.916 100.514 139.715C99.0228 138.363 99.3209 135.511 101.408 133.108C103.346 130.706 106.327 129.955 107.818 131.156C109.309 132.508 108.862 135.36 106.924 137.763Z" fill="white"/>
<path d="M70.9966 123.95C70.6985 125.151 69.655 126.052 68.9096 125.901C68.0151 125.751 67.717 124.4 68.0151 123.199C68.3133 121.998 69.3568 121.097 70.1022 121.247C70.8476 121.547 71.2948 122.748 70.9966 123.95Z" fill="white"/>
<path d="M73.5309 112.538C73.3818 113.138 72.9346 113.589 72.4874 113.589C71.891 113.439 71.742 112.838 71.891 112.087C72.0401 111.487 72.4874 111.036 72.9346 111.036C73.3818 111.336 73.68 111.937 73.5309 112.538Z" fill="white"/>
<path d="M63.841 130.406C63.6919 131.007 63.2447 131.457 62.7974 131.457C62.3502 131.307 62.2011 130.706 62.3502 130.106C62.4993 129.505 63.0956 129.055 63.3937 129.055C63.841 129.055 64.1391 129.805 63.841 130.406Z" fill="white"/>
<path d="M113.334 128.453C113.185 129.054 112.738 129.504 112.29 129.504C111.843 129.354 111.694 128.753 111.843 128.153C111.992 127.552 112.589 127.102 112.887 127.252C113.334 127.102 113.632 127.702 113.334 128.453Z" fill="white"/>
<path d="M131.819 86.7117C131.67 87.3123 131.074 87.7628 130.776 87.7628C130.329 87.6126 130.18 87.0121 130.329 86.4115C130.478 85.8109 131.074 85.3604 131.372 85.5105C131.819 85.3604 132.118 85.961 131.819 86.7117Z" fill="white"/>
<path d="M134.801 81.1561C134.652 81.7567 134.055 82.2071 133.757 82.2071C133.31 82.057 133.161 81.4564 133.31 80.8558C133.459 80.2552 133.906 79.8047 134.354 79.9549C134.801 79.9549 134.95 80.5555 134.801 81.1561Z" fill="white"/>
<path d="M136.59 86.7112C136.441 87.1617 136.143 87.462 135.844 87.462C135.546 87.3118 135.397 86.8614 135.546 86.4109C135.695 85.9605 135.994 85.6602 136.292 85.6602C136.59 85.8103 136.739 86.2608 136.59 86.7112Z" fill="white"/>
<path d="M76.3632 116.291C76.2142 116.742 75.916 117.042 75.6179 117.042C75.3197 116.892 75.1706 116.441 75.3197 115.991C75.4688 115.541 75.7669 115.24 76.0651 115.24C76.3632 115.39 76.5123 115.841 76.3632 116.291Z" fill="white"/>
<path d="M66.8224 129.053C66.6734 129.504 66.3752 129.654 66.2261 129.654C65.928 129.654 65.7789 129.203 65.928 128.753C66.0771 128.302 66.3752 128.152 66.5243 128.152C66.8224 128.302 66.9715 128.603 66.8224 129.053Z" fill="white"/>
<path d="M100.514 99.3238C100.364 99.7742 100.066 99.9244 99.7681 99.9244C99.47 99.7742 99.3209 99.4739 99.47 99.0234C99.6191 98.573 99.9172 98.4229 100.215 98.4229C100.514 98.573 100.663 98.8733 100.514 99.3238Z" fill="white"/>
<path d="M131.819 33.1076C131.67 32.9574 131.521 32.8073 131.223 32.6571C130.776 32.3568 130.179 32.0565 129.434 31.7562C127.794 31.1556 125.26 30.555 122.278 29.9544C119.297 29.504 115.719 29.0535 111.843 28.7532C107.967 28.4529 103.942 28.3027 99.7681 28.3027C95.5939 28.3027 91.5689 28.4529 87.6929 28.7532C83.817 29.0535 80.2392 29.3538 77.2577 29.9544C74.2761 30.4049 71.7419 31.0055 70.102 31.7562C69.2076 32.0565 68.6113 32.3568 68.3131 32.6571C67.8659 32.8073 67.7168 32.8073 67.5677 32.9574C67.5677 33.1076 67.5677 33.1076 67.5677 33.1076C67.5677 33.1076 67.5677 33.1076 67.7168 32.9574C67.8659 32.8073 68.015 32.6571 68.1641 32.507C68.6113 32.2067 69.2076 31.9064 69.953 31.4559C71.5928 30.7052 74.1271 30.1046 77.1086 29.504C80.0901 28.9033 83.6679 28.4529 87.5439 28.1526C91.4198 27.8523 95.5939 27.7021 99.619 27.7021C103.793 27.7021 107.818 27.8523 111.694 28.1526C115.57 28.4529 119.148 28.9033 122.129 29.504C125.111 30.1046 127.645 30.7052 129.285 31.4559C130.179 31.7562 130.776 32.2067 131.074 32.507C131.372 32.6571 131.521 32.8073 131.819 33.1076Z" fill="white"/>
<path opacity="0.6" d="M73.0836 32.207C73.0836 32.207 71.7419 32.6575 73.0836 33.7085C74.5744 34.7596 78.5994 37.162 92.7616 37.3121C107.222 37.7626 109.458 34.4593 104.688 34.3091C100.215 34.3091 84.2643 37.9127 73.0836 32.207Z" fill="#A5A5A5"/>
<path d="M86.5003 34.6095C78.1521 34.3092 74.5743 32.5074 73.0836 31.0059C72.6363 32.0569 73.5308 33.4083 76.3632 34.6095C80.8355 36.5614 87.2457 36.7116 95.8921 36.7116C102.75 36.7116 105.582 34.7596 106.178 32.5074C104.091 34.6095 98.1282 35.0599 86.5003 34.6095Z" fill="url(#paint39_linear_2003_31910)"/>
<path d="M86.5004 34.4594C82.3263 34.3092 76.5124 34.0089 73.2327 30.8558C73.0836 30.8558 72.7855 30.7056 72.7855 30.8558C71.742 33.4083 76.6615 34.9099 78.3013 35.3603C81.73 36.4114 85.606 36.5615 89.1838 36.7117C93.3579 36.8618 97.8302 37.3123 101.855 36.1111C103.793 35.6606 105.88 34.6095 106.327 32.5074C106.327 32.3573 105.88 32.3573 105.88 32.5074C104.24 34.0089 101.706 34.1591 99.6191 34.3092C95.2959 34.7597 90.8236 34.6095 86.5004 34.4594C86.2023 34.4594 86.2023 34.6095 86.5004 34.6095C91.1218 34.9099 95.7431 35.06 100.215 34.6095C102.153 34.4594 104.688 34.1591 106.327 32.6576C106.178 32.6576 106.029 32.6576 105.88 32.6576C105.433 34.7597 103.197 35.6606 101.408 36.1111C97.6811 37.1621 93.507 36.7117 89.631 36.5615C86.3514 36.4114 82.9226 36.2612 79.792 35.5105C78.4504 35.2102 77.1087 34.7597 75.767 34.1591C74.7235 33.5585 72.7855 32.3573 73.3818 31.0059C73.2327 31.0059 73.0836 31.0059 72.9346 31.0059C76.2142 34.3092 82.1772 34.6095 86.6495 34.7597C86.7986 34.7597 86.7986 34.4594 86.5004 34.4594Z" fill="#78797A"/>
<path d="M106.029 31.0049C105.433 28.1521 101.11 28.0019 90.8236 28.4524C80.6865 28.9028 75.1707 29.6536 75.1707 29.6536C73.9781 29.8037 73.2327 30.2542 72.9346 30.8548C74.4253 32.3563 78.1522 34.3082 86.3514 34.4584C97.9793 34.9088 103.793 34.4584 105.88 32.5064C106.178 32.056 106.178 31.4554 106.029 31.0049ZM84.2643 32.6566C81.5809 32.6566 79.3448 32.3563 78.3013 31.7557C79.1957 31.3052 81.5809 30.8548 84.2643 30.8548C86.9477 30.8548 89.1838 31.1551 90.2273 31.7557C89.1838 32.2061 86.9477 32.6566 84.2643 32.6566ZM99.1719 32.8067C97.0848 32.8067 95.2959 32.3563 94.5505 31.7557C95.2959 31.1551 97.2339 30.7046 99.3209 30.7046C101.408 30.7046 103.197 31.1551 103.942 31.7557C103.197 32.3563 101.408 32.8067 99.1719 32.8067Z" fill="url(#paint40_linear_2003_31910)"/>
<path d="M106.327 31.0048C105.88 29.203 103.942 28.7525 102.452 28.4522C98.4265 27.8516 94.2524 28.1519 90.3764 28.4522C86.2023 28.6024 82.1773 28.9027 78.0031 29.3531C76.5124 29.5033 73.829 29.5033 72.9346 30.8546C72.9346 30.8546 72.9346 30.8546 72.9346 31.0048C74.4253 32.5063 76.5124 33.257 78.5994 33.8576C82.9226 34.9087 87.544 34.9087 92.0162 34.9087C95.445 34.9087 98.8737 34.9087 102.302 34.3081C103.346 34.1579 104.24 33.8576 105.135 33.5573C105.433 33.4072 105.731 33.257 106.029 32.9567C106.626 32.5063 106.477 31.6054 106.327 31.0048C106.327 30.8546 105.88 30.8546 105.88 31.0048C106.178 32.3561 105.88 32.8066 104.688 33.4072C103.942 33.7075 103.197 34.0078 102.302 34.1579C99.9172 34.6084 97.532 34.7585 95.1468 34.7585C91.569 34.7585 87.8421 34.7585 84.1152 34.4582C81.2828 34.3081 78.3013 33.8576 75.767 32.6564C75.0216 32.3561 74.2762 31.9057 73.6799 31.4552C72.4873 30.5543 74.5744 29.9537 75.3198 29.9537C76.3633 29.8036 77.5559 29.6534 78.5994 29.5033C84.8606 28.9027 91.1218 28.4522 97.383 28.4522C99.7682 28.4522 104.986 28.0018 105.731 31.0048C105.88 31.0048 106.327 31.1549 106.327 31.0048Z" fill="#78797A"/>
<path d="M84.2643 32.5059C82.4754 32.5059 80.3883 32.5059 78.7485 31.7552C78.8976 31.9053 80.3883 31.3047 80.6865 31.1546C81.73 31.0044 82.9226 31.0044 83.9661 31.0044C85.1587 31.0044 86.5004 31.0044 87.693 31.1546C88.1403 31.1546 89.7801 31.7552 89.7801 31.7552C88.1403 32.5059 86.0532 32.5059 84.2643 32.5059C83.8171 32.5059 84.2643 32.6561 84.4134 32.6561C86.3513 32.6561 88.5875 32.6561 90.3764 31.7552C90.5255 31.7552 90.3764 31.605 90.3764 31.605C88.5875 30.7041 86.2023 30.7041 84.2643 30.7041C82.3263 30.7041 79.9411 30.7041 78.1522 31.605C78.0031 31.605 78.1522 31.7552 78.1522 31.7552C79.9411 32.6561 82.3263 32.6561 84.2643 32.6561C84.7115 32.6561 84.4134 32.5059 84.2643 32.5059Z" fill="#78797A"/>
<path d="M99.1719 32.6565C98.4265 32.6565 97.6811 32.6565 97.0848 32.5064C96.7867 32.5064 94.5506 32.0559 95.1469 31.6055C96.1904 31.0049 97.6812 30.8547 99.0228 30.8547C99.9173 30.8547 100.663 30.8547 101.557 31.0049C101.855 31.0049 104.091 31.4553 103.495 31.9058C102.153 32.6565 100.514 32.6565 99.1719 32.6565C98.7247 32.6565 99.1719 32.8067 99.321 32.8067C100.961 32.8067 102.899 32.6565 104.24 31.6055V31.4553C102.899 30.5544 100.961 30.4043 99.321 30.4043C97.6811 30.4043 95.7432 30.5544 94.4015 31.4553V31.6055C95.8922 32.5064 97.6811 32.6565 99.321 32.6565C99.6191 32.9568 99.321 32.6565 99.1719 32.6565Z" fill="#78797A"/>
<path d="M90.2273 31.7574C90.5254 31.6072 90.6745 31.4571 90.6745 31.1568C90.6745 30.406 87.8421 29.6553 84.2642 29.6553C80.6864 29.6553 77.854 30.406 77.854 31.1568C77.854 31.3069 78.0031 31.6072 78.3012 31.7574C79.1957 31.3069 81.5809 30.8565 84.2642 30.8565C86.9476 30.8565 89.1837 31.1568 90.2273 31.7574Z" fill="url(#paint41_linear_2003_31910)"/>
<path d="M103.495 33.4081C97.6811 34.4592 95.8922 34.4592 92.9107 33.258C91.4199 32.5072 88.8856 34.1589 85.606 34.0087C78.7485 33.7084 75.3198 32.0568 76.6615 31.7565C78.0031 31.4562 78.1522 30.5553 76.2142 30.1048C75.3198 29.9547 74.2763 30.1048 73.3818 30.4051C73.2327 30.5553 73.0836 30.7054 72.9346 30.8556C74.4253 32.3571 78.1522 34.309 86.3514 34.4592C97.9793 34.9096 103.793 34.4592 105.88 32.5072C105.88 32.3571 105.88 32.2069 105.88 32.2069C105.731 32.8075 104.837 33.258 103.495 33.4081Z" fill="url(#paint42_linear_2003_31910)"/>
<path d="M103.942 31.7567C104.24 31.6065 104.389 31.3062 104.389 31.0059C104.389 29.9549 102.004 29.2041 99.1717 29.2041C96.3393 29.2041 93.9541 29.9549 93.9541 31.0059C93.9541 31.3062 94.1032 31.6065 94.4013 31.7567C95.1467 31.1561 97.0847 30.7056 99.1717 30.7056C101.408 30.7056 103.197 31.1561 103.942 31.7567Z" fill="url(#paint43_linear_2003_31910)"/>
<path d="M75.4689 31.6065C76.2099 31.6065 76.8106 31.3376 76.8106 31.0059C76.8106 30.6742 76.2099 30.4053 75.4689 30.4053C74.7279 30.4053 74.1272 30.6742 74.1272 31.0059C74.1272 31.3376 74.7279 31.6065 75.4689 31.6065Z" fill="url(#paint44_linear_2003_31910)"/>
<path d="M76.6614 31.0058C76.5123 31.7565 74.2762 31.7565 74.1271 31.0058C73.9781 30.255 76.5123 30.1049 76.6614 31.0058H76.9596C76.8105 30.1049 74.1271 30.1049 73.9781 31.0058C73.829 31.7565 76.8105 31.9067 76.9596 31.0058C76.9596 30.8556 76.6614 30.8556 76.6614 31.0058Z" fill="#585559"/>
<path d="M75.916 30.856C75.916 31.0061 75.6179 31.1563 75.1707 31.1563C74.7234 31.1563 74.4253 31.0061 74.4253 30.856C74.4253 30.7058 74.7234 30.5557 75.1707 30.5557C75.6179 30.5557 75.916 30.7058 75.916 30.856Z" fill="url(#paint45_linear_2003_31910)"/>
<path d="M72.6363 38.5135C72.6363 38.5135 87.3948 42.5675 111.247 41.066C115.57 40.7657 104.688 43.1681 87.9911 41.5165C74.5743 40.4654 71.4437 38.3633 72.6363 38.5135Z" fill="white"/>
<path d="M106.178 32.6575C104.091 34.6095 98.2774 35.0599 86.6495 34.6095C78.3013 34.3092 74.7235 32.5074 73.2327 31.0059C72.9345 31.7566 73.3818 32.8077 74.8725 33.8587C74.8725 33.5584 75.0216 33.108 75.6179 33.4083C76.5124 33.8587 81.73 36.4113 99.1718 35.5104C101.855 35.2101 100.961 36.2611 97.0848 36.8617C103.048 36.5614 105.582 34.7596 106.178 32.6575Z" fill="url(#paint46_linear_2003_31910)"/>
<path d="M73.3818 28.4531C73.3818 28.4531 68.4623 29.5042 66.9715 31.306C65.3317 33.2579 68.9095 35.5102 78.5994 37.1618C73.829 37.6123 64.8845 34.7594 65.4808 31.7564C66.2262 29.5042 73.3818 28.4531 73.3818 28.4531Z" fill="white"/>
<path d="M77.854 30.8562C78.0031 30.7061 78.1522 30.5559 78.3012 30.5559C78.4503 30.4058 78.7485 30.4058 78.8975 30.2556C79.1957 30.1055 79.3448 30.1055 79.792 29.9553C80.0901 29.9553 80.3883 29.8052 80.8355 29.8052C81.1337 29.8052 81.5809 29.655 82.0281 29.655C82.4753 29.655 82.7735 29.655 83.2207 29.5049C83.6679 29.5049 84.1152 29.5049 84.4133 29.5049C85.3078 29.5049 86.0532 29.655 86.9476 29.655C87.693 29.655 88.4384 29.8052 89.0347 29.9553C89.631 30.1055 90.0782 30.2556 90.5254 30.5559C90.2273 30.4058 89.78 30.2556 89.0347 30.1055C88.4384 29.9553 87.693 29.9553 86.9476 29.8052C86.2022 29.655 85.3078 29.655 84.5624 29.655C84.1152 29.655 83.6679 29.655 83.3698 29.655C82.9226 29.655 82.6244 29.655 82.1772 29.655C81.73 29.655 81.4318 29.655 80.9846 29.8052C80.6864 29.8052 80.2392 29.9553 79.9411 29.9553C79.6429 29.9553 79.3448 30.1055 79.0466 30.1055C78.7485 30.1055 78.5994 30.2556 78.4503 30.4058C78.1522 30.7061 78.1522 30.7061 77.854 30.8562Z" fill="white"/>
<path d="M94.2523 30.5555C94.4014 30.4053 94.5505 30.4053 94.6995 30.2552C94.8486 30.2552 94.9977 30.105 95.1468 29.9549C95.2958 29.8047 95.594 29.8047 95.7431 29.6546C96.0412 29.5044 96.3394 29.5044 96.6375 29.5044C96.9357 29.5044 97.2338 29.3543 97.532 29.3543C97.8301 29.3543 98.1283 29.3543 98.5755 29.2041C98.8737 29.2041 99.3209 29.2041 99.619 29.2041C99.9172 29.2041 100.364 29.2041 100.663 29.3543C100.961 29.3543 101.259 29.5044 101.706 29.5044C102.153 29.5044 102.75 29.6546 103.197 29.9549C103.644 30.105 104.091 30.4053 104.24 30.7056C104.389 30.8558 104.389 31.0059 104.389 31.0059C104.389 31.0059 104.389 31.0059 104.389 30.8558C104.389 30.8558 104.24 30.7056 104.24 30.5555C104.091 30.4053 103.942 30.4053 103.793 30.2552C103.644 30.105 103.346 30.105 103.197 29.9549C102.75 29.8047 102.153 29.6546 101.557 29.5044C101.259 29.5044 100.812 29.5044 100.513 29.5044C100.215 29.5044 99.9172 29.3543 99.47 29.5044C99.1718 29.5044 98.7246 29.5044 98.4264 29.5044C98.1283 29.5044 97.8301 29.5044 97.3829 29.6546C97.2338 29.5044 96.9357 29.5044 96.6375 29.6546C96.3394 29.6546 96.0412 29.8047 95.8922 29.8047C95.594 29.8047 95.4449 29.9549 95.2958 29.9549C95.1468 29.9549 94.9977 30.105 94.8486 30.105C94.5505 30.2552 94.4014 30.4053 94.2523 30.5555Z" fill="white"/>
<defs>
<linearGradient id="paint0_linear_2003_31910" x1="61.6019" y1="168.008" x2="139.658" y2="168.008" gradientUnits="userSpaceOnUse">
<stop stop-color="#606160"/>
<stop offset="0.0122193" stop-color="#666766"/>
<stop offset="0.0287821" stop-color="#777877"/>
<stop offset="0.0477536" stop-color="#949494"/>
<stop offset="0.0547274" stop-color="#A0A0A0"/>
<stop offset="0.0728053" stop-color="#A6A6A6"/>
<stop offset="0.0973136" stop-color="#B7B7B7"/>
<stop offset="0.1255" stop-color="#D4D4D4"/>
<stop offset="0.1562" stop-color="#FBFBFB"/>
<stop offset="0.1589" stop-color="white"/>
<stop offset="0.4451" stop-color="#6D6E6D"/>
<stop offset="0.6785" stop-color="#CFCDCF"/>
<stop offset="0.7664" stop-color="white"/>
<stop offset="0.9287" stop-color="#8B868C"/>
<stop offset="1" stop-color="#606160"/>
</linearGradient>
<linearGradient id="paint1_linear_2003_31910" x1="61.6019" y1="167.241" x2="139.658" y2="167.241" gradientUnits="userSpaceOnUse">
<stop stop-color="#606160"/>
<stop offset="0.0122193" stop-color="#666766"/>
<stop offset="0.0287821" stop-color="#777877"/>
<stop offset="0.0477536" stop-color="#949494"/>
<stop offset="0.0547274" stop-color="#A0A0A0"/>
<stop offset="0.0728053" stop-color="#A6A6A6"/>
<stop offset="0.0973136" stop-color="#B7B7B7"/>
<stop offset="0.1255" stop-color="#D4D4D4"/>
<stop offset="0.1562" stop-color="#FBFBFB"/>
<stop offset="0.1589" stop-color="white"/>
<stop offset="0.4451" stop-color="#6D6E6D"/>
<stop offset="0.6785" stop-color="#CFCDCF"/>
<stop offset="0.7664" stop-color="white"/>
<stop offset="0.9287" stop-color="#8B868C"/>
<stop offset="1" stop-color="#606160"/>
</linearGradient>
<linearGradient id="paint2_linear_2003_31910" x1="56.0425" y1="102.741" x2="159.364" y2="102.741" gradientUnits="userSpaceOnUse">
<stop offset="0.0811743" stop-color="#0158A7"/>
<stop offset="0.1792" stop-color="#1BB1FE"/>
<stop offset="0.3153" stop-color="#D7FFFF"/>
<stop offset="0.5686" stop-color="#1BB1FE"/>
<stop offset="0.7223" stop-color="#D7FFFF"/>
<stop offset="0.8577" stop-color="#0158A7"/>
</linearGradient>
<linearGradient id="paint3_linear_2003_31910" x1="2.45226" y1="19.6114" x2="82.2502" y2="117.538" gradientUnits="userSpaceOnUse">
<stop offset="0.3153" stop-color="#D7FFFF"/>
<stop offset="0.8577" stop-color="#0158A7"/>
</linearGradient>
<linearGradient id="paint4_linear_2003_31910" x1="89.5566" y1="57.5261" x2="89.5566" y2="80.5288" gradientUnits="userSpaceOnUse">
<stop offset="0.3153" stop-color="#D7FFFF"/>
<stop offset="0.8577" stop-color="#0158A7"/>
</linearGradient>
<linearGradient id="paint5_linear_2003_31910" x1="86.963" y1="56.2149" x2="86.963" y2="101.966" gradientUnits="userSpaceOnUse">
<stop offset="0.3153" stop-color="#D7FFFF"/>
<stop offset="0.8577" stop-color="#0158A7"/>
</linearGradient>
<linearGradient id="paint6_linear_2003_31910" x1="113.788" y1="57.5234" x2="113.788" y2="80.5236" gradientUnits="userSpaceOnUse">
<stop offset="0.3153" stop-color="#D7FFFF"/>
<stop offset="0.8577" stop-color="#0158A7"/>
</linearGradient>
<linearGradient id="paint7_linear_2003_31910" x1="116.409" y1="56.2192" x2="116.409" y2="101.969" gradientUnits="userSpaceOnUse">
<stop offset="0.3153" stop-color="#D7FFFF"/>
<stop offset="0.8577" stop-color="#0158A7"/>
</linearGradient>
<linearGradient id="paint8_linear_2003_31910" x1="56.0785" y1="100.02" x2="159.357" y2="100.02" gradientUnits="userSpaceOnUse">
<stop stop-color="#0158A7"/>
<stop offset="0.126" stop-color="#1BB1FE"/>
<stop offset="0.3153" stop-color="#5AF7FC"/>
<stop offset="0.5686" stop-color="#1BB1FE"/>
<stop offset="0.8577" stop-color="#0158A7"/>
</linearGradient>
<linearGradient id="paint9_linear_2003_31910" x1="82.3475" y1="130.204" x2="179.488" y2="57.8693" gradientUnits="userSpaceOnUse">
<stop offset="0.1867" stop-color="#5AF7FC"/>
<stop offset="0.8577" stop-color="#0158A7"/>
</linearGradient>
<linearGradient id="paint10_linear_2003_31910" x1="56.0483" y1="102.74" x2="159.363" y2="102.74" gradientUnits="userSpaceOnUse">
<stop stop-color="#0158A7"/>
<stop offset="0.126" stop-color="#1BB1FE"/>
<stop offset="0.3153" stop-color="#D7FFFF"/>
<stop offset="0.5686" stop-color="#1BB1FE"/>
<stop offset="0.8577" stop-color="#0158A7"/>
</linearGradient>
<linearGradient id="paint11_linear_2003_31910" x1="75.7815" y1="41.391" x2="113.679" y2="41.391" gradientUnits="userSpaceOnUse">
<stop offset="0.3153" stop-color="#D7FFFF"/>
<stop offset="0.8577" stop-color="#0158A7"/>
</linearGradient>
<linearGradient id="paint12_linear_2003_31910" x1="57.8156" y1="148.713" x2="151.777" y2="78.746" gradientUnits="userSpaceOnUse">
<stop offset="0.1867" stop-color="#5AF7FC"/>
<stop offset="0.8577" stop-color="#0158A7"/>
</linearGradient>
<linearGradient id="paint13_linear_2003_31910" x1="59.4202" y1="22.8497" x2="126.667" y2="41.446" gradientUnits="userSpaceOnUse">
<stop stop-color="#606160"/>
<stop offset="0.0122193" stop-color="#666766"/>
<stop offset="0.0287821" stop-color="#777877"/>
<stop offset="0.0477536" stop-color="#949494"/>
<stop offset="0.0547274" stop-color="#A0A0A0"/>
<stop offset="0.0728053" stop-color="#A6A6A6"/>
<stop offset="0.0973136" stop-color="#B7B7B7"/>
<stop offset="0.1255" stop-color="#D4D4D4"/>
<stop offset="0.1562" stop-color="#FBFBFB"/>
<stop offset="0.1589" stop-color="white"/>
<stop offset="0.4451" stop-color="#808180"/>
<stop offset="0.6785" stop-color="#CFCDCF"/>
<stop offset="0.7664" stop-color="white"/>
<stop offset="0.945" stop-color="#8B868C"/>
<stop offset="1" stop-color="#606160"/>
</linearGradient>
<linearGradient id="paint14_linear_2003_31910" x1="84.6568" y1="61.03" x2="101.4" y2="31.6293" gradientUnits="userSpaceOnUse">
<stop stop-color="#606160"/>
<stop offset="0.0122193" stop-color="#666766"/>
<stop offset="0.0287821" stop-color="#777877"/>
<stop offset="0.0477536" stop-color="#949494"/>
<stop offset="0.0547274" stop-color="#A0A0A0"/>
<stop offset="0.0728053" stop-color="#A6A6A6"/>
<stop offset="0.0973136" stop-color="#B7B7B7"/>
<stop offset="0.1255" stop-color="#D4D4D4"/>
<stop offset="0.1562" stop-color="#FBFBFB"/>
<stop offset="0.1589" stop-color="white"/>
<stop offset="0.4451" stop-color="#808180"/>
<stop offset="0.6785" stop-color="#CFCDCF"/>
<stop offset="0.7664" stop-color="white"/>
<stop offset="0.945" stop-color="#8B868C"/>
<stop offset="1" stop-color="#606160"/>
</linearGradient>
<linearGradient id="paint15_linear_2003_31910" x1="70.6622" y1="18.4341" x2="134.541" y2="48.9748" gradientUnits="userSpaceOnUse">
<stop stop-color="#606160"/>
<stop offset="0.0122193" stop-color="#666766"/>
<stop offset="0.0287821" stop-color="#777877"/>
<stop offset="0.0477536" stop-color="#949494"/>
<stop offset="0.0547274" stop-color="#A0A0A0"/>
<stop offset="0.0728053" stop-color="#A6A6A6"/>
<stop offset="0.0973136" stop-color="#B7B7B7"/>
<stop offset="0.1255" stop-color="#D4D4D4"/>
<stop offset="0.1562" stop-color="#FBFBFB"/>
<stop offset="0.1589" stop-color="white"/>
<stop offset="0.4451" stop-color="#808180"/>
<stop offset="0.6785" stop-color="#CFCDCF"/>
<stop offset="0.7664" stop-color="white"/>
<stop offset="0.945" stop-color="#8B868C"/>
<stop offset="1" stop-color="#606160"/>
</linearGradient>
<linearGradient id="paint16_linear_2003_31910" x1="58.3088" y1="28.9762" x2="141.693" y2="31.4327" gradientUnits="userSpaceOnUse">
<stop stop-color="#949594"/>
<stop offset="0.0157538" stop-color="#9A9B9A"/>
<stop offset="0.0370578" stop-color="#ABACAB"/>
<stop offset="0.0547274" stop-color="#BFBFBF"/>
<stop offset="0.0779869" stop-color="#C5C5C5"/>
<stop offset="0.1095" stop-color="#D6D6D6"/>
<stop offset="0.1456" stop-color="#F3F3F3"/>
<stop offset="0.1589" stop-color="white"/>
<stop offset="0.4451" stop-color="#9D9E9D"/>
<stop offset="0.6785" stop-color="#DFDEDF"/>
<stop offset="0.7664" stop-color="white"/>
<stop offset="0.9287" stop-color="#B1AEB2"/>
<stop offset="1" stop-color="#949594"/>
</linearGradient>
<linearGradient id="paint17_linear_2003_31910" x1="68.8974" y1="13.2719" x2="119.584" y2="45.5056" gradientUnits="userSpaceOnUse">
<stop offset="0.2172" stop-color="white"/>
<stop offset="0.5982" stop-color="#C9C9C9"/>
<stop offset="0.712" stop-color="#A5A5A5"/>
<stop offset="0.9382" stop-color="#BFBFBF"/>
</linearGradient>
<linearGradient id="paint18_linear_2003_31910" x1="75.3688" y1="17.4454" x2="115.382" y2="42.8912" gradientUnits="userSpaceOnUse">
<stop offset="0.2172" stop-color="white"/>
<stop offset="0.5982" stop-color="#C9C9C9"/>
<stop offset="0.712" stop-color="#A5A5A5"/>
<stop offset="0.9382" stop-color="#BFBFBF"/>
</linearGradient>
<linearGradient id="paint19_linear_2003_31910" x1="112.537" y1="82.0503" x2="114.167" y2="76.0409" gradientUnits="userSpaceOnUse">
<stop offset="0.3153" stop-color="#D7FFFF"/>
<stop offset="0.8577" stop-color="#0158A7"/>
</linearGradient>
<linearGradient id="paint20_linear_2003_31910" x1="112.834" y1="82.1574" x2="113.519" y2="76.8488" gradientUnits="userSpaceOnUse">
<stop offset="0.1867" stop-color="#5AF7FC"/>
<stop offset="0.8577" stop-color="#0158A7"/>
</linearGradient>
<linearGradient id="paint21_linear_2003_31910" x1="118.934" y1="75.3887" x2="119.7" y2="72.5625" gradientUnits="userSpaceOnUse">
<stop offset="0.3153" stop-color="#D7FFFF"/>
<stop offset="0.8577" stop-color="#0158A7"/>
</linearGradient>
<linearGradient id="paint22_linear_2003_31910" x1="119.073" y1="75.4412" x2="119.395" y2="72.9454" gradientUnits="userSpaceOnUse">
<stop offset="0.1867" stop-color="#5AF7FC"/>
<stop offset="0.8577" stop-color="#0158A7"/>
</linearGradient>
<linearGradient id="paint23_linear_2003_31910" x1="112.992" y1="90.8519" x2="114.143" y2="86.6073" gradientUnits="userSpaceOnUse">
<stop offset="0.3153" stop-color="#D7FFFF"/>
<stop offset="0.8577" stop-color="#0158A7"/>
</linearGradient>
<linearGradient id="paint24_linear_2003_31910" x1="113.201" y1="90.9253" x2="113.684" y2="87.1824" gradientUnits="userSpaceOnUse">
<stop offset="0.1867" stop-color="#5AF7FC"/>
<stop offset="0.8577" stop-color="#0158A7"/>
</linearGradient>
<linearGradient id="paint25_linear_2003_31910" x1="60.9267" y1="68.1787" x2="61.7778" y2="65.0396" gradientUnits="userSpaceOnUse">
<stop offset="0.3153" stop-color="#D7FFFF"/>
<stop offset="0.8577" stop-color="#0158A7"/>
</linearGradient>
<linearGradient id="paint26_linear_2003_31910" x1="61.0803" y1="68.2339" x2="61.4373" y2="65.4687" gradientUnits="userSpaceOnUse">
<stop offset="0.1867" stop-color="#5AF7FC"/>
<stop offset="0.8577" stop-color="#0158A7"/>
</linearGradient>
<linearGradient id="paint27_linear_2003_31910" x1="62.8661" y1="71.9451" x2="63.4804" y2="69.6796" gradientUnits="userSpaceOnUse">
<stop offset="0.3153" stop-color="#D7FFFF"/>
<stop offset="0.8577" stop-color="#0158A7"/>
</linearGradient>
<linearGradient id="paint28_linear_2003_31910" x1="62.9807" y1="71.9842" x2="63.2391" y2="69.9833" gradientUnits="userSpaceOnUse">
<stop offset="0.1867" stop-color="#5AF7FC"/>
<stop offset="0.8577" stop-color="#0158A7"/>
</linearGradient>
<linearGradient id="paint29_linear_2003_31910" x1="66.9497" y1="96.8085" x2="67.7464" y2="93.5216" gradientUnits="userSpaceOnUse">
<stop offset="0.3153" stop-color="#D7FFFF"/>
<stop offset="0.8577" stop-color="#0158A7"/>
</linearGradient>
<linearGradient id="paint30_linear_2003_31910" x1="67.095" y1="96.8568" x2="67.3535" y2="93.9993" gradientUnits="userSpaceOnUse">
<stop offset="0.1867" stop-color="#5AF7FC"/>
<stop offset="0.8577" stop-color="#0158A7"/>
</linearGradient>
<linearGradient id="paint31_linear_2003_31910" x1="134.617" y1="62.7717" x2="135.413" y2="59.487" gradientUnits="userSpaceOnUse">
<stop offset="0.3153" stop-color="#D7FFFF"/>
<stop offset="0.8577" stop-color="#0158A7"/>
</linearGradient>
<linearGradient id="paint32_linear_2003_31910" x1="134.764" y1="62.823" x2="135.024" y2="59.9579" gradientUnits="userSpaceOnUse">
<stop offset="0.1867" stop-color="#5AF7FC"/>
<stop offset="0.8577" stop-color="#0158A7"/>
</linearGradient>
<linearGradient id="paint33_linear_2003_31910" x1="67.3311" y1="146.941" x2="68.1287" y2="143.65" gradientUnits="userSpaceOnUse">
<stop offset="0.3153" stop-color="#D7FFFF"/>
<stop offset="0.8577" stop-color="#0158A7"/>
</linearGradient>
<linearGradient id="paint34_linear_2003_31910" x1="67.4764" y1="146.989" x2="67.7368" y2="144.111" gradientUnits="userSpaceOnUse">
<stop offset="0.1867" stop-color="#5AF7FC"/>
<stop offset="0.8577" stop-color="#0158A7"/>
</linearGradient>
<linearGradient id="paint35_linear_2003_31910" x1="122.208" y1="138.438" x2="122.669" y2="132.311" gradientUnits="userSpaceOnUse">
<stop offset="0.3153" stop-color="#D7FFFF"/>
<stop offset="0.8577" stop-color="#0158A7"/>
</linearGradient>
<linearGradient id="paint36_linear_2003_31910" x1="122.491" y1="138.482" x2="122.11" y2="133.25" gradientUnits="userSpaceOnUse">
<stop offset="0.1867" stop-color="#5AF7FC"/>
<stop offset="0.8577" stop-color="#0158A7"/>
</linearGradient>
<linearGradient id="paint37_linear_2003_31910" x1="127.545" y1="131.854" x2="127.8" y2="128.467" gradientUnits="userSpaceOnUse">
<stop offset="0.3153" stop-color="#D7FFFF"/>
<stop offset="0.8577" stop-color="#0158A7"/>
</linearGradient>
<linearGradient id="paint38_linear_2003_31910" x1="127.7" y1="131.879" x2="127.491" y2="129" gradientUnits="userSpaceOnUse">
<stop offset="0.1867" stop-color="#5AF7FC"/>
<stop offset="0.8577" stop-color="#0158A7"/>
</linearGradient>
<linearGradient id="paint39_linear_2003_31910" x1="72.9649" y1="33.6892" x2="123.943" y2="34.4263" gradientUnits="userSpaceOnUse">
<stop stop-color="#C9C9C9"/>
<stop offset="0.1673" stop-color="white"/>
<stop offset="0.3264" stop-color="#787878"/>
<stop offset="0.6662" stop-color="white"/>
<stop offset="1" stop-color="#787878"/>
</linearGradient>
<linearGradient id="paint40_linear_2003_31910" x1="82.6236" y1="24.8673" x2="97.7168" y2="37.2174" gradientUnits="userSpaceOnUse">
<stop stop-color="#C9C9C9"/>
<stop offset="0.1673" stop-color="white"/>
<stop offset="0.3264" stop-color="#787878"/>
<stop offset="0.6662" stop-color="white"/>
<stop offset="1" stop-color="#787878"/>
</linearGradient>
<linearGradient id="paint41_linear_2003_31910" x1="77.8765" y1="30.6782" x2="90.7429" y2="30.6782" gradientUnits="userSpaceOnUse">
<stop stop-color="#606160"/>
<stop offset="0.0122193" stop-color="#666766"/>
<stop offset="0.0287821" stop-color="#777877"/>
<stop offset="0.0477536" stop-color="#949494"/>
<stop offset="0.0547274" stop-color="#A0A0A0"/>
<stop offset="0.0728053" stop-color="#A6A6A6"/>
<stop offset="0.0973136" stop-color="#B7B7B7"/>
<stop offset="0.1255" stop-color="#D4D4D4"/>
<stop offset="0.1562" stop-color="#FBFBFB"/>
<stop offset="0.1589" stop-color="white"/>
<stop offset="0.4451" stop-color="#808180"/>
<stop offset="0.6785" stop-color="#CFCDCF"/>
<stop offset="0.7664" stop-color="white"/>
<stop offset="0.945" stop-color="#8B868C"/>
<stop offset="1" stop-color="#606160"/>
</linearGradient>
<linearGradient id="paint42_linear_2003_31910" x1="90.35" y1="21.1691" x2="89.2707" y2="36.1761" gradientUnits="userSpaceOnUse">
<stop stop-color="#C9C9C9"/>
<stop offset="0.1673" stop-color="white"/>
<stop offset="0.3264" stop-color="#787878"/>
<stop offset="0.6662" stop-color="white"/>
<stop offset="1" stop-color="#787878"/>
</linearGradient>
<linearGradient id="paint43_linear_2003_31910" x1="94.0635" y1="30.5403" x2="104.397" y2="30.5403" gradientUnits="userSpaceOnUse">
<stop stop-color="#606160"/>
<stop offset="0.0122193" stop-color="#666766"/>
<stop offset="0.0287821" stop-color="#777877"/>
<stop offset="0.0477536" stop-color="#949494"/>
<stop offset="0.0547274" stop-color="#A0A0A0"/>
<stop offset="0.0728053" stop-color="#A6A6A6"/>
<stop offset="0.0973136" stop-color="#B7B7B7"/>
<stop offset="0.1255" stop-color="#D4D4D4"/>
<stop offset="0.1562" stop-color="#FBFBFB"/>
<stop offset="0.1589" stop-color="white"/>
<stop offset="0.4451" stop-color="#808180"/>
<stop offset="0.6785" stop-color="#CFCDCF"/>
<stop offset="0.7664" stop-color="white"/>
<stop offset="0.945" stop-color="#8B868C"/>
<stop offset="1" stop-color="#606160"/>
</linearGradient>
<linearGradient id="paint44_linear_2003_31910" x1="69.8025" y1="28.8044" x2="85.6325" y2="34.8769" gradientUnits="userSpaceOnUse">
<stop stop-color="#606160"/>
<stop offset="0.0122193" stop-color="#666766"/>
<stop offset="0.0287821" stop-color="#777877"/>
<stop offset="0.0477536" stop-color="#949494"/>
<stop offset="0.0547274" stop-color="#A0A0A0"/>
<stop offset="0.0728053" stop-color="#A6A6A6"/>
<stop offset="0.0973136" stop-color="#B7B7B7"/>
<stop offset="0.1255" stop-color="#D4D4D4"/>
<stop offset="0.1562" stop-color="#FBFBFB"/>
<stop offset="0.1589" stop-color="white"/>
<stop offset="0.4451" stop-color="#808180"/>
<stop offset="0.6785" stop-color="#CFCDCF"/>
<stop offset="0.7664" stop-color="white"/>
<stop offset="0.945" stop-color="#8B868C"/>
<stop offset="1" stop-color="#606160"/>
</linearGradient>
<linearGradient id="paint45_linear_2003_31910" x1="72.2644" y1="29.6434" x2="80.6386" y2="32.8558" gradientUnits="userSpaceOnUse">
<stop stop-color="#606160"/>
<stop offset="0.0122193" stop-color="#666766"/>
<stop offset="0.0287821" stop-color="#777877"/>
<stop offset="0.0477536" stop-color="#949494"/>
<stop offset="0.0547274" stop-color="#A0A0A0"/>
<stop offset="0.0728053" stop-color="#A6A6A6"/>
<stop offset="0.0973136" stop-color="#B7B7B7"/>
<stop offset="0.1255" stop-color="#D4D4D4"/>
<stop offset="0.1562" stop-color="#FBFBFB"/>
<stop offset="0.1589" stop-color="white"/>
<stop offset="0.4451" stop-color="#808180"/>
<stop offset="0.6785" stop-color="#CFCDCF"/>
<stop offset="0.7664" stop-color="white"/>
<stop offset="0.945" stop-color="#8B868C"/>
<stop offset="1" stop-color="#606160"/>
</linearGradient>
<linearGradient id="paint46_linear_2003_31910" x1="72.9681" y1="33.6688" x2="123.942" y2="34.4059" gradientUnits="userSpaceOnUse">
<stop stop-color="#C9C9C9"/>
<stop offset="0.1673" stop-color="white"/>
<stop offset="0.3264" stop-color="#787878"/>
<stop offset="0.6662" stop-color="white"/>
<stop offset="1" stop-color="#787878"/>
</linearGradient>
</defs>
</svg>
