<svg width="200" height="200" viewBox="0 0 200 200" fill="none" xmlns="http://www.w3.org/2000/svg">
<path d="M88.4566 182.604C88.4566 182.604 69.5648 182.296 60.5029 171.841C51.4409 161.386 69.5648 154.621 78.0123 116.569C86.4599 78.5156 81.6986 51.8401 81.6986 47.4583C81.6986 43.0764 87.4583 40.6933 88.4566 40.6933C88.4566 40.6933 97.2881 39.0021 111.572 40.6933C112.571 40.8471 118.33 43.0764 118.33 47.4583C118.33 51.8401 113.646 78.4388 122.016 116.569C130.464 154.621 148.588 161.386 139.526 171.841C130.464 182.296 111.572 182.604 111.572 182.604H88.4566Z" fill="#F9E8D4"/>
<path d="M99.2081 40.7702C103.125 40.7702 107.272 41.0008 111.419 41.539C112.34 41.6158 117.486 43.6914 117.486 47.5352C117.486 48.1502 117.409 49.3802 117.178 51.0714C116.334 60.2195 114.03 84.5119 121.172 116.799C125.319 135.403 131.846 146.857 136.224 154.391C140.832 162.463 143.212 166.46 138.912 171.457C130.157 181.528 111.726 181.989 111.572 181.989H88.4567C88.3031 181.989 69.7952 181.528 61.0405 171.457C56.7399 166.537 59.0438 162.463 63.7284 154.391C68.1057 146.857 74.6334 135.48 78.7804 116.799C85.9224 84.5119 83.6185 60.2195 82.7738 51.0714C82.6202 49.3802 82.4666 48.1502 82.4666 47.5352C82.4666 43.6914 87.7655 41.6158 88.4567 41.539H88.5335H88.6102C88.687 41.539 92.5268 40.7702 99.2081 40.7702ZM99.2081 40.0015C92.3732 40.0015 88.4567 40.7702 88.4567 40.7702C87.4583 40.7702 81.6986 43.1533 81.6986 47.5352C81.6986 51.917 86.3832 78.5156 78.0124 116.645C69.5648 154.622 51.3642 161.386 60.5029 171.841C69.5648 182.296 88.4567 182.604 88.4567 182.604H111.572C111.572 182.604 130.464 182.296 139.526 171.841C148.588 161.386 130.387 154.622 121.94 116.569C113.492 78.5156 118.253 51.8402 118.253 47.4583C118.253 43.0764 112.494 40.8471 111.495 40.6933C106.811 40.1552 102.664 40.0015 99.2081 40.0015Z" fill="url(#paint0_linear_2006_74393)"/>
<g style="mix-blend-mode:overlay">
<path d="M99.9763 48.6112C108.162 48.6112 114.798 47.1312 114.798 45.3056C114.798 43.48 108.162 42 99.9763 42C91.7905 42 85.1547 43.48 85.1547 45.3056C85.1547 47.1312 91.7905 48.6112 99.9763 48.6112Z" fill="#F9E8D4"/>
<path d="M99.9761 42.0004C108.193 42.0004 114.798 43.461 114.798 45.306C114.798 47.151 108.193 48.6116 99.9761 48.6116C91.7589 48.6116 85.1544 47.151 85.1544 45.306C85.1544 43.5379 91.7589 42.0004 99.9761 42.0004ZM99.9761 40.4629C95.9059 40.4629 92.0661 40.8473 89.1478 41.4623C86.7672 42.0004 83.6185 42.9998 83.6185 45.306C83.6185 47.6122 86.7672 48.6116 89.1478 49.1497C92.0661 49.7647 95.9059 50.1491 99.9761 50.1491C104.046 50.1491 107.886 49.7647 110.804 49.1497C113.185 48.6116 116.334 47.6122 116.334 45.306C116.334 42.9998 113.185 42.0004 110.804 41.4623C107.886 40.8473 104.046 40.4629 99.9761 40.4629Z" fill="url(#paint1_linear_2006_74393)"/>
</g>
<path d="M100.36 49.0725C110.2 49.0725 118.177 46.2503 118.177 42.7688C118.177 39.2874 110.2 36.4651 100.36 36.4651C90.5202 36.4651 82.5435 39.2874 82.5435 42.7688C82.5435 46.2503 90.5202 49.0725 100.36 49.0725Z" fill="#EF5343"/>
<path d="M129.85 21.0132C129.85 21.0132 131.309 20.2444 132.845 19.9369C132.998 19.6294 133.075 19.3219 133.152 18.9376C133.382 17.8613 132.461 16.9388 131.386 17.0157L122.477 18.092C105.429 20.0907 95.2916 20.0907 78.1661 18.092L69.181 17.0157C68.1058 16.862 67.1843 17.8613 67.4147 18.9376C67.4915 19.3219 67.645 19.6294 67.7986 19.9369C68.5666 20.0138 69.4114 20.3213 70.4097 21.0132C70.4097 21.0132 88.38 33.4669 129.85 21.0132Z" fill="#EF5343"/>
<path d="M71.9455 22.8582C83.0042 25.3951 81.6986 33.3132 81.6986 39.3863C81.6986 45.4594 84.7705 44.46 84.7705 44.46H115.95C115.95 44.46 119.021 45.4594 119.021 39.3863C119.021 33.3132 118.1 24.1651 128.775 22.8582C128.775 22.8582 131.846 22.397 132.998 19.8601C131.462 20.1676 130.003 20.9364 130.003 20.9364C88.4567 33.39 70.5632 20.9364 70.5632 20.9364C69.5649 20.2445 68.7201 19.937 67.9521 19.8601C69.1041 22.4738 71.9455 22.8582 71.9455 22.8582Z" fill="#EF5343"/>
<path d="M73.7888 22.8582C84.2331 25.3951 82.7739 33.3132 82.7739 39.3863C82.7739 45.4594 85.6154 44.46 85.6154 44.46H115.028C115.028 44.46 117.87 45.4594 117.87 39.3863C117.87 33.3132 116.795 24.1651 126.855 22.8582C126.855 22.8582 133.229 21.3976 130.848 19.8601C130.311 20.0139 129.773 20.1676 129.312 20.3982C128.084 20.8595 126.394 21.0901 125.242 21.6282C99.5155 32.6982 72.3297 21.0132 72.3297 21.0132C71.4081 20.3214 70.5634 20.0139 69.8722 19.937C68.0291 21.2439 73.7888 22.8582 73.7888 22.8582Z" fill="url(#paint2_linear_2006_74393)"/>
<g opacity="0.2" style="mix-blend-mode:overlay">
<path d="M70.3327 17.5538C80.777 19.1681 99.5152 22.1662 129.158 17.7075C129.926 17.5538 130.234 18.5531 129.466 18.7838C117.639 22.6275 99.7456 32.1599 69.9488 18.63C69.2576 18.3225 69.5648 17.4 70.3327 17.5538Z" fill="url(#paint3_linear_2006_74393)"/>
</g>
<g opacity="0.2" style="mix-blend-mode:overlay">
<path d="M100.283 91.1999C100.437 91.1999 100.514 91.1999 100.667 91.1999C108.5 90.9692 115.335 66.6769 115.95 58.8357C116.18 55.3763 116.18 50.8407 116.871 49.9951C118.561 47.9963 117.332 45.6901 117.332 45.6901C117.332 45.6901 116.334 50.9176 99.7458 50.9176C83.3882 50.9176 82.7738 45.4595 82.7738 45.4595C82.7738 45.4595 81.9291 48.3038 83.3114 50.2257C84.1562 51.3788 83.849 55.6838 84.0794 58.6819C84.617 66.9844 92.143 91.3536 100.283 91.1999Z" fill="url(#paint4_linear_2006_74393)"/>
</g>
<path d="M64.2659 157.312C64.2659 157.312 73.635 140.322 77.3212 128.407C81.0074 116.491 84.3096 91.1226 84.3096 91.1226H115.489C115.489 91.1226 118.407 116.184 122.708 127.869C127.008 139.554 131.155 151.008 136.07 157.312H64.2659Z" fill="url(#paint5_linear_2006_74393)"/>
<g opacity="0.4" style="mix-blend-mode:overlay">
<path d="M113.876 121.181C113.876 121.181 113.722 122.642 115.028 122.949C116.257 123.257 117.025 122.334 117.025 122.334L117.255 123.18L115.873 124.64L113.339 123.641L113.646 121.104H113.876V121.181Z" fill="url(#paint6_linear_2006_74393)"/>
</g>
<g opacity="0.4" style="mix-blend-mode:overlay">
<path d="M111.034 121.873C111.034 121.873 111.342 122.795 112.11 122.718C112.877 122.642 113.185 121.873 113.185 121.873L113.492 122.488L112.954 124.256L110.65 123.333L111.034 121.873Z" fill="url(#paint7_linear_2006_74393)"/>
</g>
<g opacity="0.4" style="mix-blend-mode:overlay">
<path d="M87.8422 121.565C87.8422 121.565 87.6118 122.334 88.3797 122.642C89.1477 122.872 89.6085 122.411 89.6085 122.411L89.3013 123.026C89.3013 123.026 88.4565 123.41 88.4565 123.487L87.151 123.334V122.334L87.8422 121.565Z" fill="url(#paint8_linear_2006_74393)"/>
</g>
<path d="M123.706 125.563C123.476 124.179 121.709 123.948 120.711 123.948C119.636 123.948 120.48 122.718 117.793 121.104C115.105 119.49 113.492 121.027 108.347 121.104C103.201 121.181 99.3616 120.182 96.7505 119.951C94.1395 119.72 90.4533 120.182 87.151 121.488C83.8488 122.795 83.0808 121.489 79.5482 123.18C77.1676 124.256 75.4012 129.022 75.4012 129.022L124.627 129.714C124.474 129.637 123.86 126.87 123.706 125.563ZM88.4566 123.103C87.9958 123.103 87.6118 122.718 87.6118 122.334C87.6118 121.95 87.9958 121.565 88.4566 121.565C88.9173 121.565 89.3013 121.95 89.3013 122.334C89.3013 122.718 88.9173 123.103 88.4566 123.103ZM112.11 123.257C111.495 123.257 111.035 122.872 111.035 122.411C111.035 121.95 111.495 121.565 112.11 121.565C112.724 121.565 113.185 121.95 113.185 122.411C113.185 122.872 112.724 123.257 112.11 123.257ZM115.182 123.872C114.26 123.872 113.415 123.103 113.415 122.257C113.415 121.335 114.183 120.643 115.182 120.643C116.18 120.643 116.948 121.412 116.948 122.257C116.948 123.103 116.18 123.872 115.182 123.872Z" fill="url(#paint9_linear_2006_74393)"/>
<g opacity="0.4" style="mix-blend-mode:overlay">
<path d="M88.4563 121.796C88.4563 121.796 88.9932 122.334 88.4563 122.718C87.9194 123.18 89.5301 122.642 89.0699 122.103C88.6864 121.565 88.4563 121.796 88.4563 121.796Z" fill="url(#paint10_linear_2006_74393)"/>
</g>
<g opacity="0.4" style="mix-blend-mode:overlay">
<path d="M112.34 121.719C112.34 121.719 112.877 122.257 112.34 122.642C111.803 123.103 113.414 122.565 112.954 122.027C112.493 121.488 112.34 121.719 112.34 121.719Z" fill="url(#paint11_linear_2006_74393)"/>
</g>
<g opacity="0.4" style="mix-blend-mode:overlay">
<path d="M115.258 120.874C115.258 120.874 116.333 121.796 115.258 122.642C114.183 123.487 117.408 122.411 116.487 121.412C115.565 120.489 115.258 120.874 115.258 120.874Z" fill="url(#paint12_linear_2006_74393)"/>
</g>
<path d="M61.5012 171.841C70.1024 182.296 89.071 182.604 89.071 182.604H110.881C110.881 182.604 129.85 182.296 138.451 171.841C145.132 163.692 134.995 157.85 127.008 137.632L123.936 129.637H78.1659C78.1659 129.637 76.8604 129.637 75.7085 129.637C67.3377 154.929 54.2056 162.924 61.5012 171.841Z" fill="#4C311B"/>
<path d="M61.8852 171.534C63.5747 173.532 65.6482 175.224 67.952 176.607C70.2559 177.991 72.7134 178.991 75.2477 179.759C77.7819 180.528 80.393 181.143 83.004 181.604C85.6151 181.989 88.303 182.296 90.9908 182.219H107.118H111.111C112.417 182.142 113.799 182.066 115.105 181.912C117.793 181.604 120.404 181.066 122.938 180.374C128.083 178.991 133.075 176.761 136.838 172.994C137.76 172.072 138.681 171.072 139.295 169.919C139.91 168.766 140.294 167.536 140.217 166.229C140.217 164.923 139.833 163.693 139.372 162.463C138.911 161.233 138.297 160.079 137.606 158.849C136.3 156.543 134.918 154.237 133.536 151.854C132.23 149.548 130.925 147.164 129.696 144.704C128.544 142.245 127.392 139.785 126.471 137.248L123.629 129.714L124.013 129.945H99.8992H87.7654H81.7753C79.7786 129.945 77.7819 129.945 75.7852 130.021L76.246 129.714C75.0173 133.404 73.5581 137.017 71.9454 140.553C70.3327 144.089 68.4896 147.549 66.6465 150.854C64.8034 154.237 62.7299 157.543 61.194 161.002C60.426 162.77 59.8885 164.615 59.8885 166.383C59.8117 168.382 60.6564 170.15 61.8852 171.534ZM61.194 172.149C60.5796 171.38 60.0421 170.534 59.5813 169.612C59.1973 168.689 58.9669 167.69 58.9669 166.614C58.8901 164.538 59.5813 162.616 60.3492 160.848C61.962 157.235 63.9586 153.929 65.8785 150.624C67.7984 147.241 69.5648 143.859 71.1775 140.323C72.7902 136.786 74.1725 133.25 75.4012 129.56L75.5548 129.253H75.862C77.8587 129.33 79.8554 129.33 81.8521 129.33H87.8422H99.8992H124.013H124.243L124.32 129.56L127.162 137.094C128.16 139.554 129.235 142.014 130.387 144.474C131.539 146.857 132.845 149.24 134.15 151.546C135.456 153.853 136.915 156.159 138.22 158.542C138.835 159.695 139.526 160.925 139.987 162.232C140.524 163.539 140.908 164.846 140.908 166.306C140.985 167.69 140.601 169.151 139.91 170.381C139.219 171.611 138.297 172.687 137.376 173.609C135.456 175.531 133.152 177.069 130.694 178.299C128.237 179.529 125.703 180.451 123.092 181.143C120.48 181.835 117.793 182.373 115.105 182.681C113.722 182.834 112.417 182.988 111.035 182.988H106.964H90.8372C88.1494 183.065 85.3847 182.757 82.7737 182.373C80.0858 181.989 77.4747 181.374 74.8637 180.528C72.2526 179.682 69.7183 178.683 67.4145 177.299C65.1106 175.992 62.9603 174.224 61.194 172.149Z" fill="#2B1B10"/>
<g opacity="0.4" style="mix-blend-mode:overlay">
<path d="M75.1712 129.637H123.783L124.858 132.02C133.075 149.932 120.788 170.688 101.359 171.687C101.051 171.687 100.667 171.687 100.36 171.764C80.7005 172.379 66.954 152.238 74.096 133.558C74.7872 131.713 75.248 130.329 75.1712 129.637Z" fill="url(#paint13_linear_2006_74393)"/>
</g>
<path d="M99.8226 122.565C89.2248 122.565 80.1629 124.487 76.7071 127.177C75.7087 127.946 75.1711 128.792 75.1711 129.637C75.1711 133.558 86.2298 136.71 99.8226 136.71C112.417 136.71 122.785 134.019 124.244 130.483C124.397 130.175 124.474 129.945 124.474 129.637C124.474 125.717 113.492 122.565 99.8226 122.565Z" fill="#352214"/>
<g opacity="0.8" style="mix-blend-mode:overlay">
<path d="M115.259 124.179C108.808 122.795 104.661 121.95 91.759 123.026C78.934 124.025 76.7069 127.254 76.7069 127.254C75.7086 128.023 75.171 128.868 75.171 129.714C75.171 133.635 86.2296 136.786 99.8225 136.786C112.417 136.786 122.785 134.096 124.244 130.56C125.472 127.946 121.786 125.486 115.259 124.179ZM102.51 130.098C99.8225 130.252 91.0678 128.868 85.7689 129.176C80.4699 129.483 76.0158 128.791 79.0876 127.023C84.5401 123.948 94.9844 122.718 105.045 123.41C115.028 124.102 120.788 127.331 121.018 128.1C123.476 135.095 105.198 129.945 102.51 130.098Z" fill="url(#paint14_linear_2006_74393)"/>
</g>
<path d="M89.3781 131.482C90.6929 131.482 91.7588 131.069 91.7588 130.559C91.7588 130.05 90.6929 129.637 89.3781 129.637C88.0633 129.637 86.9974 130.05 86.9974 130.559C86.9974 131.069 88.0633 131.482 89.3781 131.482Z" fill="#352214"/>
<path d="M93.5252 130.867C94.1614 130.867 94.6772 130.626 94.6772 130.329C94.6772 130.032 94.1614 129.791 93.5252 129.791C92.889 129.791 92.3733 130.032 92.3733 130.329C92.3733 130.626 92.889 130.867 93.5252 130.867Z" fill="#352214"/>
<g opacity="0.2" style="mix-blend-mode:overlay">
<path d="M77.9357 178.76C77.9357 178.76 60.8102 169.766 69.5649 148.933C69.5649 148.933 63.0373 159.003 61.5013 165.23C59.1975 174.224 77.9357 178.76 77.9357 178.76Z" fill="url(#paint15_linear_2006_74393)"/>
</g>
<g opacity="0.2" style="mix-blend-mode:overlay">
<path d="M87.4584 51.6865C87.4584 51.6865 91.5286 53.5315 91.5286 56.6065C91.5286 59.6815 93.0645 131.406 91.5286 146.089C89.9927 160.772 82.5435 175.916 82.5435 175.916C82.5435 175.916 92.0662 168.997 102.664 175.916C102.664 175.916 100.437 133.25 100.437 123.487C100.437 113.724 100.437 113.724 100.437 113.724C100.437 113.724 98.901 58.4515 99.8226 57.0677C100.744 55.684 102.05 53.9928 103.816 52.9934C103.816 52.9934 94.754 53.9928 87.4584 51.6865Z" fill="url(#paint16_linear_2006_74393)"/>
</g>
<path d="M116.718 172.841C102.741 172.918 102.664 165.999 80.086 173.994C79.8556 174.686 79.7788 175.147 79.7788 175.147C100.514 167.767 101.589 173.994 116.564 173.917C130.618 173.84 132.461 157.235 132.461 157.235H132.384C131.693 161.079 128.467 172.764 116.718 172.841Z" fill="#C97835"/>
<path d="M94.9841 157.081C107.579 153.468 114.721 165.384 132.461 157.312C132.614 156.62 132.691 156.159 132.691 156.159C114.951 164.307 107.732 152.315 95.1377 155.928C82.5432 159.541 79.9321 174.07 79.9321 174.07C80.0089 174.07 80.0089 174.07 80.0857 173.993C80.9305 170.534 84.5399 160.079 94.9841 157.081Z" fill="#ED903B"/>
<path d="M111.495 162.617C111.572 162.309 111.649 161.925 111.726 161.54C111.572 161.694 111.419 161.771 111.342 161.925C110.958 162.309 110.651 162.847 110.42 163.385C110.267 163.693 110.113 164.077 109.959 164.462C110.343 164.385 110.651 164.308 111.035 164.308C111.188 163.77 111.342 163.232 111.495 162.617Z" fill="#ED903B"/>
<path d="M116.717 172.841C128.544 172.764 131.693 161.079 132.461 157.312C114.721 165.384 107.579 153.468 94.9841 157.081C84.5399 160.079 81.0073 170.534 80.0089 173.994C102.587 165.999 102.664 172.918 116.717 172.841ZM121.94 165.076C122.016 164.923 122.093 164.846 122.247 164.769C122.631 163.693 123.091 162.616 123.475 161.54C123.629 161.233 123.859 161.079 124.09 161.002C124.551 160.464 125.088 160.156 125.703 160.079C126.47 159.926 127.162 160.233 127.776 160.848C128.083 161.156 127.776 161.694 127.546 161.924C127.238 162.232 126.854 162.232 126.547 161.924C126.547 161.924 126.394 161.771 126.47 161.848C126.394 161.771 126.394 161.771 126.317 161.694C126.24 161.694 126.163 161.617 126.163 161.617C126.317 161.617 126.163 161.617 126.086 161.617C126.01 161.617 126.01 161.617 125.933 161.54C125.856 161.54 125.779 161.54 125.703 161.54C125.626 161.54 125.472 161.617 125.395 161.617C125.319 161.617 125.319 161.694 125.242 161.694C125.165 161.771 125.088 161.771 125.088 161.848L125.011 161.924C124.935 162.001 124.935 162.001 125.011 161.924C125.011 161.924 124.935 162.078 124.858 162.078C124.781 162.232 124.627 162.309 124.474 162.386C124.243 162.924 124.013 163.539 123.783 164.077C124.243 164 124.704 163.846 125.165 163.769C125.395 163.693 125.779 163.923 125.703 164.384C125.703 164.615 125.472 164.769 125.395 164.846C125.242 164.999 125.011 164.999 124.858 165.076C124.858 165.076 124.858 165.076 124.781 165.076C124.704 165.076 124.627 165.076 124.551 165.153C124.474 165.153 124.32 165.23 124.243 165.23C124.013 165.307 123.783 165.307 123.552 165.384C123.475 165.384 123.322 165.461 123.245 165.461C123.245 165.461 123.245 165.461 123.168 165.461C122.938 166.076 122.707 166.691 122.631 167.306C122.554 167.69 122.554 168.074 122.631 168.382C122.631 168.536 122.707 168.613 122.784 168.689C123.322 168.305 123.706 167.921 124.09 167.306C124.32 166.921 124.704 166.768 125.088 166.844C125.319 166.844 125.626 167.152 125.395 167.536C124.781 168.459 124.09 169.228 123.245 169.689C122.4 170.15 121.402 170.073 121.172 168.689C121.018 167.767 121.325 166.691 121.709 165.845C121.632 165.768 121.632 165.691 121.632 165.614C121.786 165.384 121.863 165.23 121.94 165.076ZM118.253 163.923C118.484 163.308 118.791 162.77 119.098 162.232C119.405 161.694 119.712 161.079 120.096 160.694C120.557 160.233 121.325 159.926 121.709 160.541C121.94 161.002 121.94 161.848 122.016 162.386C122.016 163.231 120.634 163.616 120.557 162.77C120.557 162.539 120.557 162.309 120.48 162.001C120.327 162.232 120.173 162.539 120.02 162.847C119.712 163.462 119.405 164.077 119.175 164.769C118.944 165.384 118.637 166.076 118.484 166.768C118.407 167.075 118.33 167.459 118.253 167.844C118.253 167.998 118.253 168.151 118.253 168.382C118.33 168.382 118.33 168.305 118.407 168.305C118.56 168.151 118.791 167.998 118.944 167.844C119.328 167.459 119.712 167.075 120.02 166.537C120.25 166.153 120.634 165.999 121.018 166.076C121.248 166.076 121.556 166.383 121.325 166.768C120.557 167.844 119.636 168.766 118.714 169.458C118.177 169.766 117.485 170.15 117.101 169.458C116.871 168.997 116.871 168.305 116.948 167.69C117.025 166.998 117.255 166.383 117.485 165.845C117.716 165.153 117.946 164.461 118.253 163.923ZM113.876 161.54C114.03 161.156 114.49 161.079 114.721 161.079C114.797 161.079 115.335 161.002 115.258 161.386C114.797 162.693 114.414 164 114.106 165.384C113.953 166.076 113.799 166.768 113.722 167.536C113.722 167.69 113.646 167.844 113.722 167.998C115.181 166.614 116.026 164 116.564 161.617C116.564 161.463 116.794 161.386 116.871 161.309C117.025 161.233 117.255 161.156 117.409 161.079C117.562 161.079 118.023 161.002 117.946 161.386C117.639 162.77 117.255 164.154 116.717 165.384C116.257 166.306 115.719 167.229 115.105 167.921C114.721 168.305 114.337 168.689 113.876 168.843C113.415 168.997 112.801 169.228 112.494 168.766C112.186 168.382 112.417 167.69 112.494 167.152C112.57 166.537 112.724 165.845 112.878 165.23C113.031 164 113.415 162.77 113.876 161.54ZM110.651 161.002C111.034 160.618 111.418 160.233 111.879 160.079C112.34 159.849 113.031 159.772 113.108 160.618C113.185 161.156 113.031 161.924 112.878 162.539C112.724 163.231 112.494 163.923 112.34 164.615C111.956 165.999 111.418 167.306 110.958 168.613C110.804 168.997 110.497 169.151 110.19 169.228C110.036 169.228 109.499 169.304 109.575 168.92C109.575 168.843 109.575 168.766 109.575 168.689C109.575 168.536 109.652 168.305 109.806 168.228C110.113 167.536 110.343 166.768 110.574 166.076C110.267 166.153 109.883 166.229 109.575 166.229C109.422 166.921 109.268 167.536 109.038 168.228C108.884 168.92 107.425 169.074 107.655 168.305C107.886 167.459 108.116 166.537 108.347 165.614C108.347 165.461 108.423 165.384 108.423 165.23C108.577 164.692 108.731 164.231 108.961 163.693C109.345 162.616 109.959 161.694 110.651 161.002ZM106.657 164.615C106.58 164.615 106.273 164.769 106.196 164.846C105.966 164.999 105.659 165.076 105.428 165.153C104.968 165.307 104.353 165.307 103.969 164.846C103.662 164.461 103.585 163.769 103.739 163.154C103.969 162.539 104.353 162.078 104.737 161.771C105.198 161.386 105.582 161.002 106.043 160.694C106.504 160.387 107.041 160.156 107.579 159.926C107.886 159.849 108.27 159.695 108.5 160.003C108.654 160.233 108.577 160.541 108.347 160.771C108.116 161.079 107.655 161.156 107.425 161.079C107.118 161.233 106.811 161.386 106.58 161.54C106.196 161.848 105.659 162.155 105.352 162.616C105.121 162.924 104.891 163.616 105.275 163.923L105.428 164C105.352 164 105.505 163.923 105.505 164C105.736 163.923 105.889 163.769 106.12 163.693C106.657 163.462 107.271 163.231 107.809 163.539C108.27 163.846 108.193 164.461 108.039 165.076C107.655 166.383 106.888 167.306 106.043 167.844C105.582 168.151 105.044 168.305 104.507 168.382C104.123 168.459 103.355 168.536 103.201 167.921C103.201 167.844 103.201 167.69 103.278 167.613C103.508 167.229 103.969 166.998 104.276 167.075C104.353 167.075 104.507 167.152 104.584 167.229C104.584 167.229 104.584 167.229 104.66 167.229H104.737C104.814 167.229 104.968 167.229 104.968 167.229C105.198 167.152 105.352 167.152 105.505 166.998C105.889 166.768 106.196 166.306 106.427 165.768C106.504 165.691 106.887 164.769 106.657 164.615ZM90.9139 166.537C90.6835 167.229 90.2228 167.613 89.762 167.998C89.3012 168.382 88.7636 168.766 88.2261 168.92C87.6885 169.074 87.0741 169.074 86.6134 168.843C86.383 168.689 86.1526 168.459 86.0758 168.074C86.0758 167.69 86.3062 167.306 86.4598 167.152C86.767 166.921 87.2277 166.768 87.4581 167.152C87.5349 167.306 87.5349 167.459 87.5349 167.613H87.6117C87.6885 167.613 87.7653 167.613 87.8421 167.613C87.9957 167.613 88.2261 167.536 88.3797 167.459C88.7637 167.229 89.2244 166.921 89.4548 166.46C89.9924 165.538 88.7637 165.307 88.4565 165.23C87.7653 164.999 86.6134 164.846 86.4598 163.616C86.3062 162.924 86.767 162.386 87.0741 161.924C87.4581 161.463 87.8421 161.079 88.2261 160.771C88.994 160.079 89.762 159.541 90.6068 159.234C90.8371 159.157 91.1443 159.08 91.3747 159.234C91.5283 159.388 91.6051 159.695 91.4515 160.003C91.2211 160.464 90.9907 160.771 90.6835 161.079C90.4532 161.309 90.0692 161.386 89.762 161.156C89.1476 161.54 88.6101 162.001 88.0725 162.616C87.9189 162.77 87.6885 162.924 87.7653 163.154C87.7653 163.385 87.9957 163.462 88.1493 163.539C88.6101 163.769 89.0708 163.846 89.5316 164.077C90.4532 164.231 91.5283 164.999 90.9139 166.537ZM92.8338 168.92C92.2963 169.228 91.4515 169.458 91.2211 168.536C91.0675 167.844 91.2211 166.921 91.2979 166.229C91.4515 165.384 91.6051 164.461 91.8355 163.693C92.0659 162.924 92.2963 162.078 92.6034 161.386C92.8338 160.694 93.2178 160.156 93.6786 159.849C93.909 159.695 94.4466 159.541 94.6769 159.772C94.9073 160.003 94.6769 160.387 94.4466 160.464C94.1394 160.694 93.909 161.463 93.8322 161.848C93.6018 162.539 93.3714 163.308 93.141 164.077C92.9106 164.846 92.757 165.614 92.6802 166.383C92.6802 166.691 92.5267 167.459 92.6034 167.921C92.6034 167.921 92.6035 167.921 92.6802 167.844C92.9106 167.613 93.0642 167.306 93.2946 166.998C93.6786 166.383 93.909 165.768 94.2162 165.076C94.5233 164.384 94.7537 163.616 94.9841 162.924C95.0609 162.539 95.1377 162.155 95.1377 161.771C95.1377 161.54 95.1377 161.002 94.9073 160.925C94.6001 160.848 94.6001 160.464 94.8305 160.233C95.1377 159.926 95.5217 159.849 95.8289 159.926C96.3665 160.079 96.52 161.002 96.4432 161.771C96.3665 162.616 96.0593 163.308 95.8289 164.077C95.3681 165.384 94.8305 166.691 94.0626 167.69C93.7554 168.151 93.3714 168.613 92.8338 168.92ZM100.437 164.231C100.206 165.23 99.8991 166.229 99.5151 167.075C98.5167 168.997 96.8272 169.689 95.3681 169.535C95.0609 169.535 94.8305 169.151 95.0609 168.689C95.2913 168.228 95.6753 168.151 96.0593 168.151C97.0576 168.305 97.9792 167.536 98.5167 166.153C98.7471 165.614 98.9007 164.999 99.0543 164.461C98.8239 164.692 98.5167 164.923 98.2864 164.999C97.5952 165.23 96.904 164.692 96.9808 163.616C96.9808 162.616 97.288 161.54 97.4416 160.541C97.5952 159.695 98.9775 159.464 98.8239 160.464C98.6703 161.233 98.5167 162.001 98.4399 162.77C98.4399 162.924 98.3631 163.154 98.4399 163.308C99.0543 162.616 99.6687 161.924 99.8991 160.848C100.129 160.003 101.512 159.849 101.281 160.771C100.974 162.001 100.744 163.154 100.437 164.231Z" fill="#ED903B"/>
<path d="M85.385 159.618C85.385 159.618 95.2149 146.549 113.262 156.389C113.262 156.389 94.063 143.244 85.385 159.618Z" fill="#ED903B"/>
<path d="M108.654 174.686C108.654 174.686 125.856 180.605 130.157 167.69C130.157 167.69 128.391 182.988 108.654 174.686Z" fill="#ED903B"/>
<g opacity="0.2" style="mix-blend-mode:overlay">
<path d="M82.6202 48.9958C82.6202 48.9958 87.1511 49.8415 86.9975 55.9146C86.7671 61.9877 85.4616 120.566 85.4616 120.566C85.4616 120.566 86.3832 109.573 82.3898 106.037C82.3898 106.037 84.6169 80.7451 84.6169 71.9045C84.4633 57.0677 82.6202 48.9958 82.6202 48.9958Z" fill="url(#paint17_linear_2006_74393)"/>
</g>
<g opacity="0.2" style="mix-blend-mode:overlay">
<path d="M117.639 48.2271C117.639 48.2271 112.264 49.0727 112.494 55.1458C112.724 61.2189 114.03 119.797 114.03 119.797C114.03 119.797 113.108 108.804 117.102 105.268C117.102 105.268 115.566 80.13 115.643 71.2126C115.719 56.4526 117.639 48.2271 117.639 48.2271Z" fill="url(#paint18_linear_2006_74393)"/>
</g>
<defs>
<linearGradient id="paint0_linear_2006_74393" x1="99.9824" y1="39.9797" x2="99.9824" y2="182.624" gradientUnits="userSpaceOnUse">
<stop offset="0.0953911" stop-color="#A67B5A"/>
<stop offset="0.1513" stop-color="#B09988"/>
<stop offset="0.2132" stop-color="#C9B3A4"/>
<stop offset="0.2831" stop-color="#DDC8BA"/>
<stop offset="0.3647" stop-color="#ECD8CB"/>
<stop offset="0.4656" stop-color="#F7E3D6"/>
<stop offset="0.6071" stop-color="#FDE9DD"/>
<stop offset="1" stop-color="#FFEBDF"/>
</linearGradient>
<linearGradient id="paint1_linear_2006_74393" x1="99.9824" y1="40.4916" x2="99.9824" y2="50.1868" gradientUnits="userSpaceOnUse">
<stop stop-color="#4C311B"/>
<stop offset="0.3929" stop-color="#4E331D"/>
<stop offset="0.5344" stop-color="#543924"/>
<stop offset="0.6353" stop-color="#5F442F"/>
<stop offset="0.7169" stop-color="#6E5440"/>
<stop offset="0.7868" stop-color="#826956"/>
<stop offset="0.8487" stop-color="#9B8372"/>
<stop offset="0.9046" stop-color="#B9A292"/>
<stop offset="0.9544" stop-color="#DAC4B6"/>
<stop offset="1" stop-color="#FFEBDF"/>
</linearGradient>
<linearGradient id="paint2_linear_2006_74393" x1="100.442" y1="56.5695" x2="100.442" y2="19.728" gradientUnits="userSpaceOnUse">
<stop offset="0.3499" stop-color="#EF5343"/>
<stop offset="1" stop-color="#953343"/>
</linearGradient>
<linearGradient id="paint3_linear_2006_74393" x1="99.7116" y1="25.6746" x2="99.7116" y2="17.5254" gradientUnits="userSpaceOnUse">
<stop offset="0.1066"/>
<stop offset="0.1829" stop-color="#0A0A0A"/>
<stop offset="0.314" stop-color="#262626"/>
<stop offset="0.4841" stop-color="#535353"/>
<stop offset="0.6867" stop-color="#919191"/>
<stop offset="0.9141" stop-color="#DFDFDF"/>
<stop offset="1" stop-color="white"/>
</linearGradient>
<linearGradient id="paint4_linear_2006_74393" x1="100.111" y1="113.56" x2="100.111" y2="45.2441" gradientUnits="userSpaceOnUse">
<stop offset="0.302" stop-color="#F9E8D4"/>
<stop offset="0.5356" stop-color="#FAEEDE"/>
<stop offset="0.9366" stop-color="#FEFCFA"/>
<stop offset="1" stop-color="white"/>
</linearGradient>
<linearGradient id="paint5_linear_2006_74393" x1="100.142" y1="58.7248" x2="100.142" y2="157.762" gradientUnits="userSpaceOnUse">
<stop offset="0.3655" stop-color="#F9E8D4"/>
<stop offset="0.5594" stop-color="#E4BDA3"/>
<stop offset="0.7552" stop-color="#D29879"/>
<stop offset="0.9088" stop-color="#C7815F"/>
<stop offset="1" stop-color="#C37955"/>
</linearGradient>
<linearGradient id="paint6_linear_2006_74393" x1="113.19" y1="122.954" x2="117.133" y2="122.954" gradientUnits="userSpaceOnUse">
<stop offset="0.1751" stop-color="#352214"/>
<stop offset="0.6406" stop-color="#462D19"/>
<stop offset="1" stop-color="#4C311B"/>
</linearGradient>
<linearGradient id="paint7_linear_2006_74393" x1="110.651" y1="123.079" x2="113.471" y2="123.079" gradientUnits="userSpaceOnUse">
<stop offset="0.1751" stop-color="#352214"/>
<stop offset="0.6406" stop-color="#462D19"/>
<stop offset="1" stop-color="#4C311B"/>
</linearGradient>
<linearGradient id="paint8_linear_2006_74393" x1="87.1383" y1="122.465" x2="89.6354" y2="122.465" gradientUnits="userSpaceOnUse">
<stop offset="0.1751" stop-color="#352214"/>
<stop offset="0.6406" stop-color="#462D19"/>
<stop offset="1" stop-color="#4C311B"/>
</linearGradient>
<linearGradient id="paint9_linear_2006_74393" x1="99.8977" y1="143.053" x2="99.8977" y2="119.679" gradientUnits="userSpaceOnUse">
<stop offset="0.7741" stop-color="#4C311B"/>
<stop offset="0.8674" stop-color="#75421B"/>
<stop offset="0.9524" stop-color="#934F1B"/>
<stop offset="1" stop-color="#9F541B"/>
</linearGradient>
<linearGradient id="paint10_linear_2006_74393" x1="88.7744" y1="124.494" x2="88.7744" y2="121.726" gradientUnits="userSpaceOnUse">
<stop offset="0.302"/>
<stop offset="0.3617" stop-color="#0A0A0A"/>
<stop offset="0.4646" stop-color="#262626"/>
<stop offset="0.5984" stop-color="#545454"/>
<stop offset="0.7578" stop-color="#929292"/>
<stop offset="0.937" stop-color="#E1E1E1"/>
<stop offset="1" stop-color="white"/>
</linearGradient>
<linearGradient id="paint11_linear_2006_74393" x1="112.638" y1="124.395" x2="112.638" y2="121.626" gradientUnits="userSpaceOnUse">
<stop offset="0.302"/>
<stop offset="0.3617" stop-color="#0A0A0A"/>
<stop offset="0.4646" stop-color="#262626"/>
<stop offset="0.5984" stop-color="#545454"/>
<stop offset="0.7578" stop-color="#929292"/>
<stop offset="0.937" stop-color="#E1E1E1"/>
<stop offset="1" stop-color="white"/>
</linearGradient>
<linearGradient id="paint12_linear_2006_74393" x1="115.814" y1="125.941" x2="115.814" y2="120.79" gradientUnits="userSpaceOnUse">
<stop offset="0.302"/>
<stop offset="0.3617" stop-color="#0A0A0A"/>
<stop offset="0.4646" stop-color="#262626"/>
<stop offset="0.5984" stop-color="#545454"/>
<stop offset="0.7578" stop-color="#929292"/>
<stop offset="0.937" stop-color="#E1E1E1"/>
<stop offset="1" stop-color="white"/>
</linearGradient>
<linearGradient id="paint13_linear_2006_74393" x1="99.827" y1="171.709" x2="99.827" y2="129.651" gradientUnits="userSpaceOnUse">
<stop offset="0.1447" stop-color="#4C311B"/>
<stop offset="0.2476" stop-color="#432B18"/>
<stop offset="0.4972" stop-color="#311F12"/>
<stop offset="0.6802" stop-color="#2B1B10"/>
</linearGradient>
<linearGradient id="paint14_linear_2006_74393" x1="99.8615" y1="122.527" x2="99.8615" y2="136.707" gradientUnits="userSpaceOnUse">
<stop stop-color="#F4DEC8"/>
<stop offset="0.4134" stop-color="#F6E1CD"/>
<stop offset="0.8778" stop-color="#FDE8DA"/>
<stop offset="1" stop-color="#FFEBDF"/>
</linearGradient>
<linearGradient id="paint15_linear_2006_74393" x1="69.5904" y1="178.795" x2="69.5904" y2="148.931" gradientUnits="userSpaceOnUse">
<stop offset="0.302"/>
<stop offset="0.3617" stop-color="#0A0A0A"/>
<stop offset="0.4646" stop-color="#262626"/>
<stop offset="0.5984" stop-color="#545454"/>
<stop offset="0.7578" stop-color="#929292"/>
<stop offset="0.937" stop-color="#E1E1E1"/>
<stop offset="1" stop-color="white"/>
</linearGradient>
<linearGradient id="paint16_linear_2006_74393" x1="93.1501" y1="236.798" x2="93.1501" y2="50.8727" gradientUnits="userSpaceOnUse">
<stop offset="0.302"/>
<stop offset="0.3617" stop-color="#0A0A0A"/>
<stop offset="0.4646" stop-color="#262626"/>
<stop offset="0.5984" stop-color="#545454"/>
<stop offset="0.7578" stop-color="#929292"/>
<stop offset="0.937" stop-color="#E1E1E1"/>
<stop offset="1" stop-color="white"/>
</linearGradient>
<linearGradient id="paint17_linear_2006_74393" x1="84.6811" y1="120.58" x2="84.6811" y2="49.0144" gradientUnits="userSpaceOnUse">
<stop/>
<stop offset="0.1294" stop-color="#323232"/>
<stop offset="0.3075" stop-color="#6F6F6F"/>
<stop offset="0.4785" stop-color="#A3A3A3"/>
<stop offset="0.6377" stop-color="#CBCBCB"/>
<stop offset="0.7824" stop-color="#E7E7E7"/>
<stop offset="0.9079" stop-color="#F9F9F9"/>
<stop offset="1" stop-color="white"/>
</linearGradient>
<linearGradient id="paint18_linear_2006_74393" x1="115.082" y1="119.777" x2="115.082" y2="48.2118" gradientUnits="userSpaceOnUse">
<stop/>
<stop offset="0.1294" stop-color="#323232"/>
<stop offset="0.3075" stop-color="#6F6F6F"/>
<stop offset="0.4785" stop-color="#A3A3A3"/>
<stop offset="0.6377" stop-color="#CBCBCB"/>
<stop offset="0.7824" stop-color="#E7E7E7"/>
<stop offset="0.9079" stop-color="#F9F9F9"/>
<stop offset="1" stop-color="white"/>
</linearGradient>
</defs>
</svg>
