<svg width="200" height="200" viewBox="0 0 200 200" fill="none" xmlns="http://www.w3.org/2000/svg">
<path d="M171.683 95.0984C168.995 70.8056 157.415 63.0007 148.376 59.5373C139.386 56.0739 131.275 58.8056 129.907 55.9275C129.712 55.5373 129.614 54.9519 129.565 54.2202L129.516 54.269C129.516 54.269 130.005 68.2202 134.011 79.5373C134.158 75.2934 135.282 70.4642 139.532 69.6349C147.35 68.0739 161.422 76.4154 160.885 102.562C160.396 127.001 143.539 138.611 138.946 131.537C138.164 134.513 137.236 137.586 136.063 140.855C132.936 148.757 129.321 157.44 128.783 158.708C133.327 151.977 137.822 149.928 145.103 146.025C159.516 138.464 174.37 119.391 171.683 95.0984Z" fill="url(#paint0_linear_2003_22550)"/>
<g opacity="0.4" style="mix-blend-mode:soft-light">
<path d="M171.682 95.0979C170.705 86.415 168.604 79.8784 165.917 74.854C168.995 82.5126 170.559 91.1955 170.07 99.7809C168.067 139.781 140.9 140.171 139.044 140.025C137.187 139.879 133.816 147.635 133.816 147.635C133.816 147.635 137.383 138.854 139.386 133.976C153.067 140.074 168.116 116.659 163.23 89.5858C159.028 66.2686 138.555 66.3174 138.555 64.4637C138.555 62.6101 141.243 61.4393 148.718 63.9759C141.975 58.7564 132.497 62.2686 132.155 59.4393C132.057 58.6101 132.155 57.9271 132.399 57.3418C131.226 57.1466 130.347 56.8052 130.005 56.0247C129.809 55.6345 129.712 55.0491 129.663 54.3174L129.614 54.3662C129.614 54.3662 130.102 68.3174 134.109 79.6345C134.256 75.3906 135.379 70.5613 139.63 69.732C147.448 68.1711 161.52 76.5125 160.982 102.659C160.494 127.098 143.637 138.708 139.044 131.635C138.262 134.61 137.334 137.683 136.161 140.952C133.034 148.854 129.418 157.537 128.881 158.805C133.425 152.074 137.92 150.025 145.2 146.122C159.516 138.464 174.37 119.391 171.682 95.0979Z" fill="url(#paint1_linear_2003_22550)"/>
</g>
<path d="M144.126 134.318C154.582 132.123 161.373 115.879 161.862 101.489C162.35 87.0984 157.66 77.4886 151.259 72.1227C144.858 66.7081 137.236 67.1959 135.233 69.2935C133.279 71.391 132.643 70.7569 131.52 65.83C130.64 61.1471 130.591 58.4154 130.787 56.8544C130.396 56.6593 130.054 56.3666 129.907 55.9764C129.712 55.5861 129.614 55.0008 129.565 54.269L129.516 54.3178C129.516 54.3178 130.005 68.2691 134.011 79.5862C134.158 75.3423 135.282 70.513 139.533 69.6837C147.35 68.1227 161.422 76.4642 160.885 102.611C160.396 127.05 143.539 138.659 138.946 131.586C138.897 131.83 138.8 132.074 138.751 132.318C139.972 133.83 141.927 134.562 144.126 134.318Z" fill="url(#paint2_linear_2003_22550)"/>
<g opacity="0.2" style="mix-blend-mode:soft-light">
<path d="M142.122 59.683C142.122 59.683 165.575 63.2928 168.262 95.2441C168.946 106.951 173.246 88.6099 162.643 71.5367C157.708 63.8781 146.177 58.122 142.122 59.683Z" fill="white"/>
</g>
<g opacity="0.5" style="mix-blend-mode:soft-light">
<path d="M138.262 57.6831C138.262 57.6831 138.946 57.6831 140.07 57.7807C141.243 57.8782 142.904 58.0733 144.809 58.5124C146.764 58.9514 149.011 59.6831 151.259 60.7075C152.383 61.2441 153.555 61.8295 154.679 62.5124C155.265 62.8538 155.803 63.2441 156.34 63.5856C156.878 63.9758 157.415 64.366 157.953 64.7563C158.49 65.1953 158.979 65.5856 159.467 66.0734L160.2 66.7563C160.445 67.0002 160.64 67.2441 160.884 67.488C161.373 67.9758 161.764 68.4636 162.204 68.9514C162.643 69.4392 162.985 69.927 163.376 70.4636C163.767 70.9514 164.109 71.488 164.402 71.9758C164.744 72.4636 165.038 73.0002 165.331 73.488C165.624 73.9758 165.917 74.4636 166.113 74.9514C166.357 75.4392 166.601 75.8783 166.797 76.3661C167.187 77.2929 167.578 78.1222 167.823 78.9027C168.067 79.6832 168.36 80.3173 168.458 80.9027C168.751 82.0246 168.946 82.6588 168.946 82.6588C168.946 82.6588 168.751 82.0246 168.36 80.9514C168.213 80.4149 167.92 79.7319 167.627 79.0002C167.481 78.61 167.334 78.2197 167.139 77.8295C166.943 77.4392 166.748 77.0002 166.552 76.5124C166.357 76.0734 166.064 75.6344 165.868 75.1466C165.624 74.6587 165.331 74.1709 165.038 73.7319C164.744 73.2441 164.451 72.7563 164.109 72.2685C163.767 71.7807 163.425 71.2441 163.034 70.8051C162.643 70.3173 162.301 69.8295 161.862 69.3417C161.471 68.8539 161.031 68.3661 160.542 67.927C160.298 67.6831 160.103 67.4392 159.858 67.2441L159.125 66.5612C158.637 66.1221 158.148 65.6831 157.611 65.2929C157.122 64.8539 156.585 64.5124 156.047 64.1221C155.51 63.7807 154.972 63.3904 154.386 63.049C153.311 62.366 152.138 61.7807 151.015 61.2441C149.891 60.7563 148.767 60.2685 147.692 59.8782C146.617 59.488 145.591 59.1953 144.614 58.9514C142.708 58.4636 141.047 58.1709 139.923 58.0246C138.946 57.6831 138.262 57.6831 138.262 57.6831Z" fill="#4C4C4C"/>
</g>
<path d="M160.249 72.6099C160.249 72.6099 170.461 87.5855 166.552 108.025C165.38 114.025 174.37 92.4148 160.249 72.6099Z" fill="url(#paint3_linear_2003_22550)"/>
<g opacity="0.2" style="mix-blend-mode:soft-light">
<path d="M168.018 104.61C168.018 104.61 167.627 107.781 166.552 110.171C165.477 112.562 168.018 112.61 168.8 108.61C169.582 104.61 168.409 101.927 168.018 104.61Z" fill="white"/>
</g>
<path d="M134.402 80.6094C130.054 69.146 129.516 54.3167 129.516 54.3167L129.565 54.2679C129.272 49.8289 131.422 40.3167 132.546 39.1947C133.865 38.5118 135.135 36.2679 131.666 34.4142C131.178 34.1703 130.689 33.9752 130.152 33.7801C121.65 31.0971 103.914 37.3898 89.4022 38.024C73.9623 38.7069 57.7406 34.5118 49.6298 30.9508C45.6721 29.1947 41.8122 27.7313 38.8806 26.6581C33.4082 25.2922 29.4506 25.0483 29.4506 25.0483C26.4213 25.5361 28.6688 26.902 31.6981 28.463C34.7275 30.024 47.8221 34.8532 49.9719 51.4874C52.0729 68.1216 45.9165 80.2192 38.2455 100.902C29.4506 133.049 39.9067 145.536 52.415 161.927C58.2782 169.585 62.7244 174.951 89.2067 174.951C114.028 174.951 121.406 170.317 128.197 159.585C128.393 159.293 128.539 159.049 128.735 158.756C129.272 157.488 132.937 148.805 136.015 140.902C147.106 110.073 138.751 92.1217 134.402 80.6094Z" fill="url(#paint4_linear_2003_22550)"/>
<path d="M53.9291 59.9267C53.9291 59.9267 54.8574 69.0487 43.7661 94.5122C35.5576 113.976 36.7303 129.732 45.8183 147.342C54.0757 161.781 63.8965 167.537 75.7696 169.39C87.0563 171.049 108.897 170.073 116.324 165.439C123.799 160.805 128.783 149.829 133.523 137.829C138.262 125.829 139.728 110.073 135.281 95.3414C130.835 80.6585 125.461 64.1706 125.705 59.8779H53.9291V59.9267Z" fill="url(#paint5_radial_2003_22550)"/>
<path d="M53.9291 59.9267C53.9291 59.9267 54.8574 69.0487 43.7661 94.5122C35.5576 113.976 36.7303 129.732 45.8183 147.342C54.0757 161.781 63.8965 167.537 75.7696 169.39C87.0563 171.049 108.897 170.073 116.324 165.439C123.799 160.805 128.783 149.829 133.523 137.829C138.262 125.829 139.728 110.073 135.281 95.3414C130.835 80.6585 125.461 64.1706 125.705 59.8779H53.9291V59.9267Z" fill="url(#paint6_radial_2003_22550)"/>
<path d="M125.705 59.9268C125.705 61.8292 109.63 63.3902 89.7926 63.3902C69.9553 63.3902 53.8803 61.8292 53.8803 59.9268C53.8803 58.0244 69.9553 56.4634 89.7926 56.4634C109.63 56.5122 125.705 58.0244 125.705 59.9268Z" fill="url(#paint7_radial_2003_22550)"/>
<path d="M168.165 119.146C161.569 137.732 143.49 145 136.894 146.659C135.331 147.049 133.865 148.122 132.594 149.537C130.689 154.171 129.125 157.927 128.783 158.756C133.327 152.025 137.822 149.976 145.103 146.073C157.073 139.732 169.288 125.586 171.634 107.098C170.852 110.659 169.728 114.659 168.165 119.146Z" fill="url(#paint8_linear_2003_22550)"/>
<g opacity="0.2" style="mix-blend-mode:soft-light">
<path d="M46.7955 132.659H60.9161C58.0333 117.146 62.2842 100.854 69.5643 81.9268C78.1638 59.5853 72.154 44.4633 65.851 35.8779C59.7435 34.6096 54.4177 32.9023 50.5577 31.3413C57.5448 39.0486 66.7793 55.1462 56.9584 80.6585C49.4827 100.073 44.2548 116.756 46.7955 132.659Z" fill="url(#paint9_linear_2003_22550)"/>
</g>
<g opacity="0.2" style="mix-blend-mode:soft-light">
<path d="M61.649 135.927H47.4306C50.4111 148.902 58.8152 161.146 75.8674 174.268C78.799 174.463 85.3951 174.659 89.1085 174.659C89.5971 174.659 90.0368 174.659 90.4766 174.659C73.6686 161.439 64.9715 149.049 61.649 135.927Z" fill="url(#paint10_linear_2003_22550)"/>
</g>
<path d="M89.4019 37.9758C103.913 37.3416 121.65 31.0489 130.151 33.7318C122.089 30.7074 110.07 31.1952 97.6592 33.6343C84.4181 36.2196 55.6882 33.0001 47.4308 29.4391C44.4503 28.1709 41.5188 27.244 38.9292 26.6099C41.8608 27.683 45.7208 29.1465 49.6784 30.9026C57.7404 34.5123 73.962 38.6587 89.4019 37.9758Z" fill="url(#paint11_linear_2003_22550)"/>
<path d="M110.803 37.5849C125.998 34.463 129.028 34.9508 132.594 39.1459C133.914 38.463 135.086 36.2191 131.666 34.4142C131.177 34.1703 130.689 33.9752 130.151 33.7801C121.65 31.0971 103.913 37.3898 89.4019 38.024C73.962 38.7069 57.7404 34.5118 49.6296 30.9508C45.6719 29.1947 41.8119 27.7313 38.8803 26.6581C33.4079 25.2922 29.4504 25.0483 29.4504 25.0483C27.9845 25.2922 27.7402 25.7313 28.2288 26.2679C31.9911 26.5118 38.1475 27.5849 45.0856 31.341C59.0108 38.8045 80.7536 46.024 110.803 37.5849Z" fill="url(#paint12_linear_2003_22550)"/>
<path d="M134.402 80.171C130.053 68.7076 129.516 53.8783 129.516 53.8783L129.565 53.8295C129.272 49.5368 131.275 40.5612 132.448 38.9026C131.764 38.3173 131.128 37.7319 130.444 37.1953C128.49 42.5124 125.998 50.5612 125.851 57.4393C125.656 68.8051 135.33 90.4149 137.431 104.269C140.363 123.83 131.959 144.805 124.386 157.196C116.812 169.586 102.057 169.683 85.1997 169.683C73.3267 169.683 64.6784 168.415 58.18 162.122C50.9975 155.147 46.6001 148.22 43.5219 142.708C32.9192 119.781 40.5903 101.537 48.9454 81.293C60.4276 53.6344 49.7761 42.7075 45.0366 37.8782C44.9878 37.8295 44.9389 37.7807 44.89 37.7319C47.333 41.0002 49.3363 45.2929 50.0692 51.0002C52.1702 67.6344 46.0138 79.732 38.3428 100.415C29.5479 132.561 40.004 145.049 52.5123 161.439C58.3755 169.098 62.8218 174.464 89.3041 174.464C114.125 174.464 121.503 169.83 128.294 159.098C128.49 158.805 128.637 158.561 128.832 158.269C129.369 156.952 133.034 148.318 136.112 140.415C147.106 109.634 138.751 91.6345 134.402 80.171Z" fill="url(#paint13_linear_2003_22550)"/>
<g opacity="0.5">
<g opacity="0.4" style="mix-blend-mode:soft-light">
<path d="M134.402 80.6094C130.053 69.146 129.516 54.3167 129.516 54.3167L129.565 54.2679C129.272 49.8289 131.422 40.3167 132.545 39.1947C133.865 38.5118 135.135 36.2679 131.666 34.4142C131.177 34.1703 130.689 33.9752 130.151 33.7801C121.65 31.0971 103.913 37.3898 89.4018 38.024C73.962 38.7069 57.7403 34.5118 49.6295 30.9508C45.6718 29.1947 41.8118 27.7313 38.8802 26.6581C33.4079 25.2922 29.4503 25.0483 29.4503 25.0483C26.4698 25.5361 28.5707 26.8532 31.4535 28.3654C34.9714 28.8044 40.3461 30.1703 47.2843 34.1703C60.33 41.6825 81.1445 46.2679 98.5876 43.3411C109.239 41.6337 98.099 54.8045 106.405 73.5363C113.295 89.146 127.757 125.146 106.405 161.732C101.763 171.829 88.1803 174.707 72.887 174.024C77.1379 174.658 82.4637 175 89.1575 175C113.979 175 121.356 170.366 128.148 159.634C128.343 159.341 128.49 159.097 128.685 158.805C129.223 157.536 132.887 148.854 135.966 140.951C147.106 110.073 138.751 92.1217 134.402 80.6094Z" fill="url(#paint14_linear_2003_22550)"/>
</g>
</g>
<g opacity="0.6" style="mix-blend-mode:soft-light">
<path d="M134.402 80.6101C130.053 69.1466 129.516 54.3173 129.516 54.3173L129.565 54.2686C129.272 49.8295 131.421 40.3173 132.545 39.1954C133.864 38.5124 135.135 36.2685 131.666 34.4148C131.177 34.1709 130.688 33.9758 130.151 33.7807C121.649 31.0978 103.913 37.3905 89.4015 38.0246C73.9617 38.7075 57.74 34.5124 49.6292 30.9514C49.4338 30.8539 49.2384 30.8051 49.0429 30.7075C55.1993 35.8783 70.6392 45.2929 98.1475 41.5368C115.786 38.171 123.017 38.4636 119.402 48.5124C115.786 58.5612 120.672 75.5857 127.513 94.0247C136.796 119 131.226 161.049 103.62 174.22C117.35 172.562 122.92 167.879 128.197 159.586C128.392 159.293 128.539 159.049 128.734 158.757C129.272 157.488 132.936 148.805 136.014 140.903C147.105 110.074 138.75 92.1223 134.402 80.6101Z" fill="url(#paint15_linear_2003_22550)"/>
</g>
<g opacity="0.5" style="mix-blend-mode:soft-light">
<path d="M73.9619 40.7565C73.9619 40.7565 74.8902 40.9029 76.5026 41.0492C78.115 41.1956 80.4115 41.3419 83.1965 41.3419C84.5646 41.3419 86.0792 41.3419 87.6427 41.2443C89.2063 41.1956 90.9164 41.0492 92.6265 40.9029C94.3366 40.7565 96.1444 40.5126 97.9034 40.2687C98.7829 40.1224 99.7112 39.976 100.591 39.8297C101.47 39.6346 102.399 39.4395 103.278 39.2931C106.894 38.4638 110.461 37.537 113.832 36.7565C117.203 36.0248 120.428 35.4882 123.213 35.4395C124.63 35.4395 125.9 35.537 126.975 35.8297C128.099 36.0736 128.979 36.4638 129.711 36.8541C130.054 37.0492 130.347 37.2443 130.64 37.4395C130.884 37.6346 131.08 37.8297 131.275 37.9761C131.568 38.2687 131.764 38.4639 131.764 38.4639C131.764 38.4639 131.617 38.3175 131.275 38.0248C131.128 37.8785 130.884 37.7321 130.64 37.537C130.395 37.3907 130.102 37.1468 129.711 37.0004C128.979 36.6102 128.099 36.2687 126.975 36.0248C125.9 35.7809 124.63 35.6834 123.213 35.7321C121.845 35.7809 120.33 35.9273 118.767 36.1712C117.203 36.4151 115.591 36.7565 113.881 37.1468C110.509 37.9273 106.943 38.9029 103.327 39.7321C102.399 39.9273 101.519 40.0736 100.591 40.2687C99.6624 40.4151 98.783 40.5614 97.8546 40.7078C96.0468 40.9517 94.2877 41.1956 92.5288 41.3419C90.8187 41.4883 89.1086 41.5858 87.5451 41.6346C85.9815 41.6834 84.4669 41.6834 83.0499 41.6346C80.2649 41.5858 77.9685 41.3419 76.3561 41.1468C74.8414 40.9029 73.9619 40.7565 73.9619 40.7565Z" fill="#4C4C4C"/>
</g>
<path opacity="0.5" d="M33.0659 26.9512C33.0659 26.9512 34.8737 27.3414 37.561 28.1219C38.8803 28.5609 40.4438 29.0487 42.0562 29.7317C42.8379 30.0731 43.6686 30.4634 44.4992 30.8536C45.3298 31.2439 46.1605 31.6829 46.9911 32.1219C47.8217 32.5122 48.6524 32.9024 49.483 33.2926C50.3136 33.6829 51.1443 34.0243 51.926 34.3658C53.5384 35.0487 55.0042 35.6829 56.3235 36.2195C57.5938 36.7561 58.6687 37.1951 59.4505 37.5366C60.1834 37.878 60.6231 38.0244 60.6231 38.0244C60.6231 38.0244 60.1833 37.878 59.4016 37.5853C58.6198 37.2927 57.5449 36.9512 56.2256 36.4634C55.5905 36.2195 54.8577 35.9268 54.1247 35.6829C53.3918 35.3902 52.6101 35.0975 51.7794 34.7561C50.9977 34.4146 50.167 34.0731 49.2875 33.6829C48.4569 33.2926 47.5774 32.9024 46.7468 32.5122C45.9162 32.0731 45.0855 31.6341 44.3038 31.2439C43.522 30.8048 42.6914 30.4634 41.9097 30.1219C40.2973 29.439 38.7826 28.8536 37.4633 28.4146C36.1441 27.9756 35.0203 27.5853 34.2385 27.3902C33.5056 27.0487 33.0659 26.9512 33.0659 26.9512Z" fill="#4C4C4C"/>
<g style="mix-blend-mode:soft-light">
<path d="M93.5063 36.1223C81.1935 37.5858 78.0664 36.4638 67.2683 35.1467C64.6299 34.8053 62.2846 34.6589 60.2325 34.5614C68.5876 36.8053 79.1902 38.5126 89.4508 38.0248C99.7115 37.5858 111.633 34.2687 120.721 33.3906C114.174 31.8297 102.79 35.0004 93.5063 36.1223Z" fill="url(#paint16_linear_2003_22550)"/>
</g>
<g opacity="0.5" style="mix-blend-mode:soft-light">
<path d="M134.989 133.098C134.989 133.098 135.086 132.757 135.233 132.122C135.331 131.781 135.428 131.391 135.526 130.952C135.575 130.708 135.673 130.464 135.721 130.22C135.77 129.976 135.819 129.683 135.917 129.342C136.063 128.757 136.161 128.074 136.308 127.342C136.405 126.61 136.552 125.83 136.699 124.952C136.943 123.244 137.138 121.342 137.285 119.244C137.383 118.171 137.334 117.098 137.383 115.976C137.383 115.391 137.383 114.854 137.383 114.269C137.383 113.683 137.383 113.098 137.334 112.513C137.285 111.927 137.285 111.293 137.236 110.708C137.187 110.074 137.138 109.488 137.089 108.854C137.041 108.22 136.943 107.586 136.894 106.952C136.796 106.317 136.747 105.683 136.65 105C136.552 104.366 136.454 103.683 136.357 103.049C136.259 102.415 136.112 101.732 136.015 101.049C135.868 100.366 135.721 99.7321 135.575 99.0491C135.428 98.3662 135.282 97.7321 135.086 97.0491C134.94 96.3662 134.744 95.7321 134.549 95.0491C134.353 94.3662 134.158 93.7321 133.962 93.0491C133.523 91.6833 133.083 90.3662 132.692 89.0003C131.861 86.3174 130.982 83.5857 130.151 80.9515C129.712 79.6345 129.37 78.2686 128.979 76.9515C128.588 75.6345 128.197 74.3174 127.855 73.0491C127.22 70.4637 126.633 67.9759 126.096 65.5369C125.998 64.9515 125.9 64.3661 125.803 63.7808C125.754 63.1954 125.656 62.5613 125.607 61.9759C125.51 60.8052 125.461 59.6832 125.51 58.61C125.558 54.3173 126.34 50.8051 126.975 48.4149C127.317 47.1954 127.611 46.2685 127.855 45.6832C128.099 45.049 128.246 44.7563 128.246 44.7563C128.246 44.7563 128.148 45.0978 127.953 45.732C127.806 46.3661 127.562 47.3417 127.317 48.5124C127.073 49.732 126.878 51.1954 126.682 52.9027C126.536 54.61 126.438 56.5125 126.536 58.61C126.585 59.6344 126.682 60.7564 126.78 61.8296C126.878 62.3661 126.927 62.9515 127.024 63.4881C127.171 64.0735 127.269 64.6588 127.415 65.2442C128.05 67.5857 128.686 70.0247 129.37 72.5613C130.151 75.0979 130.982 77.6833 131.813 80.3174C132.692 82.9516 133.571 85.6345 134.402 88.3662C134.842 89.7321 135.233 91.0491 135.673 92.415C135.868 93.0979 136.063 93.7808 136.259 94.4638C136.454 95.1467 136.601 95.8296 136.796 96.5126C137.432 99.2443 137.92 101.976 138.213 104.659C138.506 107.342 138.702 109.927 138.702 112.366C138.702 113 138.702 113.586 138.702 114.171C138.702 114.757 138.653 115.342 138.653 115.927C138.555 117.098 138.506 118.171 138.36 119.244C138.116 121.391 137.822 123.293 137.432 125C137.236 125.83 137.089 126.659 136.894 127.342C136.699 128.074 136.503 128.708 136.308 129.342C136.21 129.635 136.161 129.927 136.063 130.171C135.966 130.415 135.868 130.659 135.819 130.903C135.673 131.342 135.526 131.732 135.428 132.074C135.135 132.757 134.989 133.098 134.989 133.098Z" fill="#4C4C4C"/>
</g>
<g opacity="0.5" style="mix-blend-mode:soft-light">
<path d="M64.874 33.1951C64.874 33.1951 65.6069 33.2438 66.8285 33.3902C68.0988 33.4877 69.9066 33.6341 72.0565 33.8292C74.2063 34.0243 76.747 34.1707 79.4343 34.317C80.8024 34.3658 82.1705 34.4634 83.5874 34.4634C85.0044 34.5121 86.4214 34.4633 87.8872 34.3658C89.3041 34.2682 90.7699 34.1707 92.1869 34.0243C93.6038 33.878 94.9719 33.7317 96.34 33.5853C97.6592 33.439 98.9784 33.2926 100.2 33.1463C101.421 32.9999 102.594 32.8536 103.669 32.7073C105.819 32.4633 107.627 32.2195 108.848 32.1219C110.119 31.9756 110.803 31.9268 110.803 31.9268C110.803 31.9268 110.07 32.0243 108.848 32.1707C107.578 32.3658 105.819 32.6097 103.669 32.9512C102.594 33.0975 101.421 33.2926 100.2 33.439C98.9784 33.5853 97.6592 33.7804 96.34 33.9755C95.0208 34.1219 93.6038 34.317 92.1869 34.4634C90.7699 34.6097 89.353 34.756 87.8872 34.8048C86.4702 34.9024 85.0044 34.9024 83.5874 34.8536C82.1705 34.8048 80.7535 34.756 79.4343 34.6585C78.0662 34.5609 76.7959 34.4633 75.5255 34.3658C74.304 34.2682 73.1314 34.1219 72.0565 34.0243C69.9066 33.8292 68.0987 33.5853 66.8772 33.439C65.558 33.2926 64.874 33.1951 64.874 33.1951Z" fill="#4C4C4C"/>
</g>
<path d="M46.942 30.4635C46.942 30.4635 66.2908 39.7806 85.6395 39.1464C93.5548 38.9025 80.7046 42.2684 67.3169 39.0001C53.978 35.7318 44.499 29.9269 46.942 30.4635Z" fill="url(#paint17_linear_2003_22550)"/>
<g opacity="0.5">
<path d="M91.6496 174.219C68.4409 173.976 59.8904 168.61 56.2748 164.317C52.6591 160.024 45.6721 151.293 40.4929 141.39C31.698 122.024 37.5613 104.268 45.4278 84.268C48.506 76.4143 49.6297 69.8289 49.874 64.6582C48.3594 75.3899 43.6689 85.7802 38.2454 100.463C29.4505 132.61 39.9066 145.097 52.4149 161.488C58.2781 169.146 62.7243 174.512 89.2065 174.512C93.946 174.512 98.0991 174.366 101.666 173.976C98.5877 174.171 95.2652 174.268 91.6496 174.219Z" fill="#4C4C4C"/>
</g>
<path d="M132.594 149.585C130.689 154.22 129.125 157.976 128.783 158.805C130.102 156.805 131.471 155.195 132.888 153.878C133.816 150.805 134.891 148.61 135.868 147.098C134.695 147.585 133.572 148.464 132.594 149.585Z" fill="url(#paint18_linear_2003_22550)"/>
<g opacity="0.4" style="mix-blend-mode:soft-light">
<path d="M51.0956 51.5854C51.0956 51.5854 53.3433 63.7318 47.0403 81.7319C45.2325 86.4636 56.7634 64.6586 51.0956 51.5854Z" fill="url(#paint19_linear_2003_22550)"/>
</g>
<g opacity="0.2" style="mix-blend-mode:soft-light">
<path d="M114.858 75C107.724 58.5122 110.851 42.2682 113.148 34.4146C111.438 34.7072 109.679 35.0487 107.92 35.3902C105.672 43.5365 103.034 59.1951 109.874 75C119.011 96.1708 132.008 140.366 103.131 174.269C105.232 174.025 107.138 173.732 108.848 173.342C136.796 139.537 123.946 95.9757 114.858 75Z" fill="url(#paint20_linear_2003_22550)"/>
</g>
<g opacity="0.5" style="mix-blend-mode:soft-light">
<path d="M76.7469 37.5851C76.7469 37.5851 77.2844 37.6339 78.2127 37.6827C78.7013 37.7315 79.2388 37.7315 79.9228 37.7802C80.558 37.829 81.2909 37.829 82.1215 37.829C82.9033 37.829 83.7828 37.829 84.7112 37.829C85.6395 37.829 86.6168 37.7803 87.594 37.7315C88.62 37.7315 89.646 37.6339 90.6721 37.5851C91.747 37.5363 92.7731 37.4388 93.848 37.3412C94.9229 37.2437 95.9979 37.1461 97.0239 37.0485C98.05 36.9022 99.1249 36.8046 100.102 36.6583C101.079 36.512 102.057 36.3656 102.985 36.2193C103.913 36.0729 104.744 35.9266 105.526 35.7803C106.307 35.6339 107.04 35.5363 107.675 35.39C108.311 35.2437 108.897 35.1461 109.337 35.0485C110.265 34.8534 110.803 34.7559 110.803 34.7559C110.803 34.7559 110.265 34.9022 109.386 35.0973C108.946 35.1949 108.36 35.3412 107.724 35.4876C107.089 35.6339 106.356 35.7803 105.574 35.9754C104.793 36.1217 103.913 36.3168 103.034 36.4632C102.105 36.6095 101.177 36.8046 100.151 36.951C99.1738 37.0973 98.0989 37.2437 97.0728 37.39C95.9979 37.4876 94.9718 37.6339 93.8969 37.7315C92.822 37.829 91.747 37.8778 90.6721 37.9754C89.5972 38.0242 88.5711 38.0729 87.5451 38.1217C87.0565 38.1217 86.5679 38.1705 86.0793 38.1705C85.5907 38.1705 85.1021 38.1705 84.6624 38.1705C83.734 38.1705 82.8545 38.1217 82.0727 38.0729C80.4604 37.9754 79.1411 37.8778 78.2127 37.7802C77.2355 37.6827 76.7469 37.5851 76.7469 37.5851Z" fill="#4C4C4C"/>
</g>
<path d="M49.6298 30.9025C45.6721 29.1464 41.8122 27.6829 38.8806 26.6098C33.4082 25.2439 29.4506 25 29.4506 25C26.4213 25.4878 28.6688 26.8537 31.6981 28.4146C33.6525 29.439 39.7112 31.7805 44.4018 37.683C47.2846 39.8781 49.581 43.2927 51.3399 46.4147C49.923 40.1708 46.112 35 44.353 33.7805C41.226 31.6342 45.5257 32.2195 51.1935 34.9512C58.3759 38.4147 63.7017 36.9512 66.0958 35.8781C59.3531 34.5122 53.5875 32.6586 49.6298 30.9025Z" fill="url(#paint21_linear_2003_22550)"/>
<path d="M89.4993 39.0976C89.4993 39.0976 93.4081 38.6586 98.1965 37.9269C102.985 37.1464 99.369 39.244 94.825 39.7806C90.281 40.2684 87.5449 39.5855 89.4993 39.0976Z" fill="url(#paint22_linear_2003_22550)"/>
<g opacity="0.4" style="mix-blend-mode:soft-light">
<path d="M58.4249 61.5366C58.4249 61.5366 86.4219 65.1952 118.816 62.0732C110.559 65.7318 74.3534 65.9269 58.4249 61.5366Z" fill="url(#paint23_radial_2003_22550)"/>
</g>
<g opacity="0.2" style="mix-blend-mode:soft-light">
<path d="M67.8547 168.854C67.8547 168.854 81.6333 173.196 99.5651 170.903C106.454 170.22 97.9527 174.366 82.5617 172.952C67.1707 171.635 65.1185 167.976 67.8547 168.854Z" fill="white"/>
</g>
<g opacity="0.5" style="mix-blend-mode:soft-light">
<path d="M41.3231 137.195C41.3231 137.195 41.5675 137.781 41.9583 138.805C42.3981 139.829 43.0333 141.244 43.864 142.951C44.3037 143.781 44.7434 144.708 45.2809 145.634C45.8183 146.561 46.3558 147.586 46.991 148.561C47.5773 149.586 48.2613 150.61 48.9454 151.586C49.6294 152.61 50.3623 153.634 51.1441 154.61C51.9259 155.586 52.7076 156.561 53.5382 157.488C53.9291 157.927 54.3689 158.415 54.8086 158.805C55.1995 159.244 55.6393 159.634 56.079 160.073C56.5188 160.464 56.9584 160.854 57.3493 161.244C57.7891 161.634 58.2289 161.976 58.6197 162.317C59.0106 162.659 59.4503 162.951 59.89 163.244C60.0855 163.391 60.281 163.537 60.4765 163.683C60.6719 163.83 60.8673 163.927 61.0628 164.073C61.8445 164.61 62.5774 165.049 63.2615 165.439C63.9455 165.781 64.5318 166.122 65.0204 166.366C66.0464 166.805 66.584 167.098 66.584 167.098C66.584 167.098 65.9976 166.903 64.9227 166.561C64.3852 166.366 63.7989 166.122 63.066 165.781C62.3819 165.439 61.5513 165.098 60.7695 164.561C60.5741 164.464 60.3298 164.317 60.1343 164.22C59.9389 164.073 59.6947 163.927 59.4993 163.83C59.0595 163.537 58.6197 163.244 58.1799 162.951C57.7402 162.61 57.3005 162.317 56.8119 161.927C56.3722 161.586 55.8836 161.195 55.4438 160.805C55.0041 160.415 54.5644 160.025 54.1246 159.586C53.8803 159.39 53.6848 159.147 53.4405 158.951C53.2451 158.708 53.0007 158.512 52.8053 158.269C51.9258 157.342 51.1441 156.366 50.3135 155.39C49.5317 154.366 48.7988 153.342 48.1148 152.317C47.4307 151.293 46.7955 150.22 46.2092 149.195C45.6228 148.171 45.0855 147.147 44.5969 146.171C44.1083 145.195 43.6685 144.269 43.3265 143.39C42.5935 141.634 42.0561 140.122 41.714 139.098C41.4697 137.781 41.3231 137.195 41.3231 137.195Z" fill="#4C4C4C"/>
</g>
<g opacity="0.2" style="mix-blend-mode:soft-light">
<path d="M78.0175 169.489C78.0175 169.489 78.5551 169.489 79.5323 169.537C80.0209 169.537 80.6072 169.586 81.2424 169.586C81.9264 169.586 82.6592 169.586 83.4899 169.635C84.3205 169.635 85.2001 169.635 86.1284 169.635C87.0567 169.635 88.0339 169.635 89.06 169.635C89.5486 169.635 90.0861 169.635 90.6235 169.635C91.161 169.635 91.6985 169.586 92.2359 169.586C93.3109 169.586 94.3858 169.489 95.5095 169.44C96.5845 169.391 97.7082 169.293 98.7832 169.245C99.8581 169.147 100.884 169.05 101.91 168.952C102.936 168.806 103.913 168.708 104.842 168.562C105.77 168.415 106.65 168.269 107.431 168.123C108.213 167.928 108.946 167.781 109.63 167.635C110.265 167.537 110.852 167.342 111.291 167.196C112.22 166.952 112.757 166.806 112.757 166.806C112.757 166.806 112.269 167.001 111.34 167.391C110.9 167.537 110.363 167.781 109.728 167.976C109.093 168.172 108.36 168.415 107.578 168.611C106.747 168.806 105.917 169.001 104.988 169.196C104.06 169.342 103.083 169.537 102.057 169.684C101.031 169.781 99.9558 169.928 98.8809 170.025C97.8059 170.123 96.6822 170.22 95.6072 170.269C94.5323 170.318 93.4086 170.367 92.3336 170.367C91.2587 170.367 90.1838 170.367 89.1577 170.367C88.1316 170.367 87.1544 170.318 86.1772 170.269C85.2488 170.22 84.3205 170.172 83.5388 170.074C81.8775 169.928 80.5583 169.781 79.581 169.635C78.555 169.586 78.0175 169.489 78.0175 169.489Z" fill="#4C4C4C"/>
</g>
<defs>
<linearGradient id="paint0_linear_2003_22550" x1="128.759" y1="106.518" x2="171.982" y2="106.518" gradientUnits="userSpaceOnUse">
<stop stop-color="#C9C5C4"/>
<stop offset="0.1165" stop-color="#DFDDDC"/>
<stop offset="0.2475" stop-color="#F1F0EF"/>
<stop offset="0.3805" stop-color="#FBFBFB"/>
<stop offset="0.5177" stop-color="white"/>
<stop offset="0.6371" stop-color="#FBFBFA"/>
<stop offset="0.7697" stop-color="#EFEDED"/>
<stop offset="0.9081" stop-color="#DAD8D7"/>
<stop offset="1" stop-color="#C9C5C4"/>
</linearGradient>
<linearGradient id="paint1_linear_2003_22550" x1="185.556" y1="70.1133" x2="145.503" y2="96.0521" gradientUnits="userSpaceOnUse">
<stop stop-color="white"/>
<stop offset="0.2634" stop-color="#FBFBFB"/>
<stop offset="0.5216" stop-color="#F1F0EF"/>
<stop offset="0.7771" stop-color="#DFDCDC"/>
<stop offset="1" stop-color="#C9C5C4"/>
</linearGradient>
<linearGradient id="paint2_linear_2003_22550" x1="188.934" y1="76.6169" x2="154.993" y2="88.1994" gradientUnits="userSpaceOnUse">
<stop stop-color="white"/>
<stop offset="0.2634" stop-color="#FBFBFB"/>
<stop offset="0.5216" stop-color="#F1F0EF"/>
<stop offset="0.7771" stop-color="#DFDCDC"/>
<stop offset="1" stop-color="#C9C5C4"/>
</linearGradient>
<linearGradient id="paint3_linear_2003_22550" x1="197.387" y1="50.6375" x2="171.297" y2="81.5764" gradientUnits="userSpaceOnUse">
<stop stop-color="white"/>
<stop offset="0.2634" stop-color="#FBFBFB"/>
<stop offset="0.5216" stop-color="#F1F0EF"/>
<stop offset="0.7771" stop-color="#DFDCDC"/>
<stop offset="1" stop-color="#C9C5C4"/>
</linearGradient>
<linearGradient id="paint4_linear_2003_22550" x1="48.1811" y1="99.979" x2="129.32" y2="99.979" gradientUnits="userSpaceOnUse">
<stop stop-color="#C9C5C4"/>
<stop offset="0.1165" stop-color="#DFDDDC"/>
<stop offset="0.2475" stop-color="#F1F0EF"/>
<stop offset="0.3805" stop-color="#FBFBFB"/>
<stop offset="0.5177" stop-color="white"/>
<stop offset="0.6371" stop-color="#FBFBFA"/>
<stop offset="0.7697" stop-color="#EFEDED"/>
<stop offset="0.9081" stop-color="#DAD8D7"/>
<stop offset="1" stop-color="#C9C5C4"/>
</linearGradient>
<radialGradient id="paint5_radial_2003_22550" cx="0" cy="0" r="1" gradientUnits="userSpaceOnUse" gradientTransform="translate(72.0812 88.2439) scale(85.9562 85.8161)">
<stop offset="0.1107" stop-color="#FEFFF3"/>
<stop offset="0.7062" stop-color="#E4DBC8"/>
<stop offset="1" stop-color="#D8CFBC"/>
</radialGradient>
<radialGradient id="paint6_radial_2003_22550" cx="0" cy="0" r="1" gradientUnits="userSpaceOnUse" gradientTransform="translate(90.5838 168.625) scale(45.1211 45.0475)">
<stop stop-color="#FEFFF3"/>
<stop offset="1"/>
</radialGradient>
<radialGradient id="paint7_radial_2003_22550" cx="0" cy="0" r="1" gradientUnits="userSpaceOnUse" gradientTransform="translate(98.5943 50.322) scale(45.6963 45.6218)">
<stop offset="0.1107" stop-color="#FEFFF3"/>
<stop offset="0.7062" stop-color="#E4DBC8"/>
<stop offset="1" stop-color="#D8CFBC"/>
</radialGradient>
<linearGradient id="paint8_linear_2003_22550" x1="159.782" y1="129.067" x2="149" y2="133.428" gradientUnits="userSpaceOnUse">
<stop stop-color="white"/>
<stop offset="0.2634" stop-color="#FBFBFB"/>
<stop offset="0.5216" stop-color="#F1F0EF"/>
<stop offset="0.7771" stop-color="#DFDCDC"/>
<stop offset="1" stop-color="#C9C5C4"/>
</linearGradient>
<linearGradient id="paint9_linear_2003_22550" x1="59.9878" y1="45.3108" x2="59.9878" y2="174.213" gradientUnits="userSpaceOnUse">
<stop/>
<stop offset="0.0472484" stop-color="#2B2C2B"/>
<stop offset="0.1532" stop-color="#989997"/>
<stop offset="0.2476" stop-color="#FDFFFC"/>
<stop offset="0.3587" stop-color="#FDFFFC"/>
<stop offset="0.4059" stop-color="#EBEDEA"/>
<stop offset="0.5006" stop-color="#BCBEBC"/>
<stop offset="0.6344" stop-color="#717270"/>
<stop offset="0.8007" stop-color="#0A0A0A"/>
<stop offset="0.8167"/>
</linearGradient>
<linearGradient id="paint10_linear_2003_22550" x1="68.9543" y1="45.9395" x2="68.9543" y2="173.949" gradientUnits="userSpaceOnUse">
<stop/>
<stop offset="0.0472484" stop-color="#2B2C2B"/>
<stop offset="0.1532" stop-color="#989997"/>
<stop offset="0.2476" stop-color="#FDFFFC"/>
<stop offset="0.3045" stop-color="#F8FAF7"/>
<stop offset="0.375" stop-color="#E9EAE8"/>
<stop offset="0.4525" stop-color="#D0D1CF"/>
<stop offset="0.5353" stop-color="#ADAEAC"/>
<stop offset="0.6221" stop-color="#80817F"/>
<stop offset="0.7124" stop-color="#494A49"/>
<stop offset="0.8039" stop-color="#0A0A0A"/>
<stop offset="0.8167"/>
</linearGradient>
<linearGradient id="paint11_linear_2003_22550" x1="68.725" y1="32.3422" x2="117.715" y2="32.3422" gradientUnits="userSpaceOnUse">
<stop stop-color="#D2CDD3"/>
<stop offset="0.5116" stop-color="white"/>
<stop offset="0.9735" stop-color="#D2CDD3"/>
</linearGradient>
<linearGradient id="paint12_linear_2003_22550" x1="21.4742" y1="33.2001" x2="141.875" y2="33.2001" gradientUnits="userSpaceOnUse">
<stop stop-color="#D2CDD3"/>
<stop offset="0.4758" stop-color="white"/>
<stop offset="0.9735" stop-color="#D2CDD3"/>
</linearGradient>
<linearGradient id="paint13_linear_2003_22550" x1="39.1968" y1="87.6892" x2="113.086" y2="108.899" gradientUnits="userSpaceOnUse">
<stop stop-color="#C9C5C4"/>
<stop offset="0.046821" stop-color="#DDDADA"/>
<stop offset="0.1014" stop-color="#ECEBEB"/>
<stop offset="0.1693" stop-color="#F7F6F6"/>
<stop offset="0.2647" stop-color="#FDFDFD"/>
<stop offset="0.5293" stop-color="white"/>
<stop offset="0.7647" stop-color="#FDFDFD"/>
<stop offset="0.8494" stop-color="#F7F6F6"/>
<stop offset="0.9098" stop-color="#ECEBEB"/>
<stop offset="0.9584" stop-color="#DDDADA"/>
<stop offset="1" stop-color="#C9C5C4"/>
</linearGradient>
<linearGradient id="paint14_linear_2003_22550" x1="126.095" y1="96.9174" x2="-121.315" y2="108.654" gradientUnits="userSpaceOnUse">
<stop stop-color="#C9C5C4"/>
<stop offset="0.046821" stop-color="#DDDADA"/>
<stop offset="0.1014" stop-color="#ECEBEB"/>
<stop offset="0.1693" stop-color="#F7F6F6"/>
<stop offset="0.2647" stop-color="#FDFDFD"/>
<stop offset="0.5293" stop-color="white"/>
<stop offset="0.7647" stop-color="#FDFDFD"/>
<stop offset="0.8494" stop-color="#F7F6F6"/>
<stop offset="0.9098" stop-color="#ECEBEB"/>
<stop offset="0.9584" stop-color="#DDDADA"/>
<stop offset="1" stop-color="#C9C5C4"/>
</linearGradient>
<linearGradient id="paint15_linear_2003_22550" x1="135.175" y1="87.0366" x2="-40.5162" y2="134.072" gradientUnits="userSpaceOnUse">
<stop stop-color="#C9C5C4"/>
<stop offset="0.046821" stop-color="#DDDADA"/>
<stop offset="0.1014" stop-color="#ECEBEB"/>
<stop offset="0.1693" stop-color="#F7F6F6"/>
<stop offset="0.2647" stop-color="#FDFDFD"/>
<stop offset="0.5293" stop-color="white"/>
<stop offset="0.7647" stop-color="#FDFDFD"/>
<stop offset="0.8494" stop-color="#F7F6F6"/>
<stop offset="0.9098" stop-color="#ECEBEB"/>
<stop offset="0.9584" stop-color="#DDDADA"/>
<stop offset="1" stop-color="#C9C5C4"/>
</linearGradient>
<linearGradient id="paint16_linear_2003_22550" x1="90.5899" y1="13.9829" x2="90.466" y2="32.6128" gradientUnits="userSpaceOnUse">
<stop stop-color="#C9C5C4"/>
<stop offset="0.046821" stop-color="#DDDADA"/>
<stop offset="0.1014" stop-color="#ECEBEB"/>
<stop offset="0.1693" stop-color="#F7F6F6"/>
<stop offset="0.2647" stop-color="#FDFDFD"/>
<stop offset="0.5293" stop-color="white"/>
<stop offset="0.7647" stop-color="#FDFDFD"/>
<stop offset="0.8494" stop-color="#F7F6F6"/>
<stop offset="0.9098" stop-color="#ECEBEB"/>
<stop offset="0.9584" stop-color="#DDDADA"/>
<stop offset="1" stop-color="#C9C5C4"/>
</linearGradient>
<linearGradient id="paint17_linear_2003_22550" x1="48.4407" y1="22.8777" x2="92.0799" y2="50.9955" gradientUnits="userSpaceOnUse">
<stop/>
<stop offset="0.0121927" stop-color="#0E0E0D"/>
<stop offset="0.0808362" stop-color="#555655"/>
<stop offset="0.1454" stop-color="#919290"/>
<stop offset="0.2041" stop-color="#C0C1BF"/>
<stop offset="0.2557" stop-color="#E1E3E0"/>
<stop offset="0.2983" stop-color="#F6F8F5"/>
<stop offset="0.3266" stop-color="#FDFFFC"/>
<stop offset="0.4054" stop-color="#FAFCF9"/>
<stop offset="0.4693" stop-color="#F0F2EF"/>
<stop offset="0.5279" stop-color="#DFE1DE"/>
<stop offset="0.5834" stop-color="#C7C9C6"/>
<stop offset="0.6367" stop-color="#A8AAA8"/>
<stop offset="0.6884" stop-color="#838482"/>
<stop offset="0.7387" stop-color="#565756"/>
<stop offset="0.7868" stop-color="#232423"/>
<stop offset="0.8167"/>
</linearGradient>
<linearGradient id="paint18_linear_2003_22550" x1="164.217" y1="140.04" x2="153.436" y2="144.401" gradientUnits="userSpaceOnUse">
<stop stop-color="white"/>
<stop offset="0.2634" stop-color="#FBFBFB"/>
<stop offset="0.5216" stop-color="#F1F0EF"/>
<stop offset="0.7771" stop-color="#DFDCDC"/>
<stop offset="1" stop-color="#C9C5C4"/>
</linearGradient>
<linearGradient id="paint19_linear_2003_22550" x1="42.7691" y1="63.0127" x2="57.2106" y2="72.3175" gradientUnits="userSpaceOnUse">
<stop stop-color="#C9C5C4"/>
<stop offset="0.046821" stop-color="#DDDADA"/>
<stop offset="0.1014" stop-color="#ECEBEB"/>
<stop offset="0.1693" stop-color="#F7F6F6"/>
<stop offset="0.2647" stop-color="#FDFDFD"/>
<stop offset="0.5293" stop-color="white"/>
<stop offset="0.7647" stop-color="#FDFDFD"/>
<stop offset="0.8494" stop-color="#F7F6F6"/>
<stop offset="0.9098" stop-color="#ECEBEB"/>
<stop offset="0.9584" stop-color="#DDDADA"/>
<stop offset="1" stop-color="#C9C5C4"/>
</linearGradient>
<linearGradient id="paint20_linear_2003_22550" x1="114.521" y1="38.3668" x2="114.521" y2="140.353" gradientUnits="userSpaceOnUse">
<stop offset="0.082224"/>
<stop offset="0.1138" stop-color="#2B2C2B"/>
<stop offset="0.1845" stop-color="#989997"/>
<stop offset="0.2476" stop-color="#FDFFFC"/>
<stop offset="0.3017" stop-color="#EEF0ED"/>
<stop offset="0.4062" stop-color="#C6C8C5"/>
<stop offset="0.5507" stop-color="#868785"/>
<stop offset="0.7276" stop-color="#2F2F2E"/>
<stop offset="0.8167"/>
</linearGradient>
<linearGradient id="paint21_linear_2003_22550" x1="55.4602" y1="13.8303" x2="45.0694" y2="34.8773" gradientUnits="userSpaceOnUse">
<stop stop-color="#C9C5C4"/>
<stop offset="0.046821" stop-color="#DDDADA"/>
<stop offset="0.1014" stop-color="#ECEBEB"/>
<stop offset="0.1693" stop-color="#F7F6F6"/>
<stop offset="0.2647" stop-color="#FDFDFD"/>
<stop offset="0.5293" stop-color="white"/>
<stop offset="0.7647" stop-color="#FDFDFD"/>
<stop offset="0.8494" stop-color="#F7F6F6"/>
<stop offset="0.9098" stop-color="#ECEBEB"/>
<stop offset="0.9584" stop-color="#DDDADA"/>
<stop offset="1" stop-color="#C9C5C4"/>
</linearGradient>
<linearGradient id="paint22_linear_2003_22550" x1="88.8593" y1="38.8479" x2="100.441" y2="38.8479" gradientUnits="userSpaceOnUse">
<stop/>
<stop offset="0.0121927" stop-color="#0E0E0D"/>
<stop offset="0.0808362" stop-color="#555655"/>
<stop offset="0.1454" stop-color="#919290"/>
<stop offset="0.2041" stop-color="#C0C1BF"/>
<stop offset="0.2557" stop-color="#E1E3E0"/>
<stop offset="0.2983" stop-color="#F6F8F5"/>
<stop offset="0.3266" stop-color="#FDFFFC"/>
<stop offset="0.4054" stop-color="#FAFCF9"/>
<stop offset="0.4693" stop-color="#F0F2EF"/>
<stop offset="0.5279" stop-color="#DFE1DE"/>
<stop offset="0.5834" stop-color="#C7C9C6"/>
<stop offset="0.6367" stop-color="#A8AAA8"/>
<stop offset="0.6884" stop-color="#838482"/>
<stop offset="0.7387" stop-color="#565756"/>
<stop offset="0.7868" stop-color="#232423"/>
<stop offset="0.8167"/>
</linearGradient>
<radialGradient id="paint23_radial_2003_22550" cx="0" cy="0" r="1" gradientUnits="userSpaceOnUse" gradientTransform="translate(90.1019 64.7798) scale(27.3037 27.2592)">
<stop stop-color="#FEFFF3"/>
<stop offset="1"/>
</radialGradient>
</defs>
</svg>
