<svg width="200" height="200" viewBox="0 0 200 200" fill="none" xmlns="http://www.w3.org/2000/svg">
<path d="M128.223 84.1082C119.35 82.7059 110.477 82.7059 101.605 83.4708C97.819 83.7258 94.1516 84.873 90.6025 86.1478C86.9352 87.4226 82.4396 88.1875 79.2455 90.6096C78.5356 91.247 79.0089 92.3943 79.837 92.5218C83.0312 93.1592 86.107 91.6294 89.0646 90.6096C93.0869 89.2073 96.9909 87.9326 101.132 87.2952C109.886 85.7654 119.232 85.8929 128.105 86.2753C129.406 86.2753 129.524 84.2357 128.223 84.1082Z" fill="#356C11"/>
<path d="M180.631 83.345C161.348 89.0816 141 89.3365 121.125 88.6991C111.306 88.4442 101.368 87.5518 91.5489 88.3167C86.5802 88.6991 81.6115 89.5915 76.6427 90.3564C73.8035 90.8663 70.8459 91.5037 68.0066 91.5037C65.6406 91.5037 63.5111 91.6311 61.145 92.0136C59.8437 92.2685 59.8437 94.5632 61.2634 94.5632C63.3928 94.5632 65.5223 95.0731 67.6517 95.0731C70.1361 95.0731 72.5021 94.5632 74.8682 94.1807C80.1918 93.1609 85.5155 92.1411 90.9574 91.5037C101.25 90.4838 111.66 91.3762 122.071 91.5037C141.946 91.8861 161.821 90.3563 180.986 84.2373C181.459 84.2373 181.223 83.2175 180.631 83.345Z" fill="#5E8F3D"/>
<path d="M149.518 95.8329C142.656 94.0482 135.913 94.0482 128.933 94.4306C120.415 94.813 111.897 95.068 103.261 95.068C95.5713 95.068 88.1182 96.0879 80.4285 95.4505C76.5245 95.1955 72.5022 94.8131 68.7165 93.4108C65.9956 92.391 63.3929 90.9887 60.4353 91.881C59.3706 92.2635 59.4889 94.0482 60.5536 94.4306C67.0603 96.7252 73.2121 98.51 80.0736 99.1474C87.645 99.7847 95.2164 98.8924 102.906 98.7649C110.596 98.6375 118.286 98.3825 125.975 98C133.547 97.6176 141.473 96.7252 149.044 98.255C150.227 98.5099 150.819 96.2153 149.518 95.8329Z" fill="#5E8F3D"/>
<path d="M167.263 72.3776C157.68 73.3974 148.335 75.4371 138.634 74.9272C129.051 74.2898 119.824 74.7997 110.359 76.457C100.777 78.2417 91.0759 80.0264 81.73 83.2133C77.7077 84.6156 73.922 86.7827 70.2546 88.8224C68.2434 89.9697 66.2323 90.9896 64.1028 91.7545C62.3283 92.5193 60.3171 92.5193 58.7792 93.9216C58.306 94.304 58.5426 94.8139 59.0158 95.0689C61.8551 96.5986 66.2323 94.304 68.9532 93.1567C72.8572 91.4995 76.5246 89.2048 80.4286 87.4201C89.538 83.2133 100.067 81.9385 109.768 80.1538C114.855 79.2615 119.824 78.3691 124.911 78.1142C129.761 77.9867 134.611 78.2417 139.462 78.3691C143.957 78.4966 148.335 78.2416 152.83 77.4768C157.799 76.5844 162.531 74.9272 167.618 74.2898C168.683 74.0348 168.328 72.2501 167.263 72.3776Z" fill="#5E8F3D"/>
<path d="M182.287 113.171C172.468 114.191 162.649 115.083 152.83 114.446C142.774 113.808 133.073 110.749 122.899 110.111C112.37 109.347 101.96 108.199 91.4308 107.307C86.3437 106.797 81.2567 106.16 76.1697 106.287C74.0402 106.287 71.7925 106.669 69.663 106.669C67.4153 106.542 65.2858 106.287 63.0381 106.797C61.0269 107.307 61.5001 110.366 63.5113 110.239C65.759 110.111 68.0068 110.239 70.2545 110.366C72.7389 110.366 75.3416 109.984 77.8259 109.984C83.0313 109.984 88.2366 110.749 93.4419 111.131C103.853 112.024 114.263 113.043 124.792 113.808C134.848 114.573 144.549 117.633 154.605 117.888C163.951 118.143 173.178 116.995 182.287 114.701C183.352 114.318 183.116 113.043 182.287 113.171Z" fill="#5E8F3D"/>
<path d="M157.444 105.778C149.163 106.033 140.645 106.288 132.364 105.268C124.674 104.248 117.102 101.953 109.294 101.699C101.368 101.444 93.3235 103.228 85.3972 103.993C81.02 104.376 76.5245 104.503 72.1473 104.886C68.7165 105.268 65.2857 104.248 61.7366 104.758C59.8438 105.013 60.4353 107.818 62.2098 107.69C65.2857 107.563 68.3616 108.71 71.5558 108.582C75.933 108.455 80.4285 108.073 84.8057 107.69C93.2052 107.053 101.605 104.886 110.123 105.14C117.931 105.395 125.502 107.69 133.192 108.582C141.236 109.602 149.399 108.965 157.444 108.072C158.745 107.945 158.627 105.778 157.444 105.778Z" fill="#5E8F3D"/>
<path d="M135.558 125.279C130.234 125.151 125.147 123.494 120.06 122.347C113.908 120.944 107.757 119.925 101.605 118.65C95.3347 117.375 88.9464 116.1 82.558 115.08C76.6429 114.061 69.4264 112.658 63.5112 114.061C61.3818 114.571 61.5001 117.757 63.6295 118.14C66.5871 118.65 69.7813 118.267 72.8572 118.522C75.933 118.777 79.0089 119.16 82.0848 119.542C88.4732 120.435 94.7432 121.837 101.132 122.984C107.283 124.131 113.435 125.024 119.587 126.299C124.792 127.318 130.116 128.211 135.558 127.956C136.977 127.828 136.859 125.406 135.558 125.279Z" fill="#5E8F3D"/>
<path d="M165.725 81.4288C162.176 81.4288 158.745 81.9387 155.314 82.3212C150.582 82.9586 145.732 82.9586 141 82.7036C131.535 82.3212 122.071 81.6838 112.607 81.1739C104.089 80.7914 95.453 81.1738 87.1718 83.596C83.2678 84.7433 79.4821 86.6555 75.6964 88.0577C71.4375 89.715 67.0603 90.6073 62.5648 91.1173C60.7903 91.3722 60.6719 93.6668 61.7367 94.6867C61.9733 94.9416 62.2099 95.1966 62.4465 95.3241C63.3929 96.2164 65.1675 95.0691 64.8126 93.6668C64.6943 93.2844 64.6942 93.0294 64.5759 92.647C64.1027 93.4119 63.5112 94.1768 63.038 94.9416C71.3192 94.0493 78.4174 90.7348 86.1071 87.8028C94.3883 84.7433 103.498 84.4883 112.134 84.6158C121.243 84.7433 130.352 85.1257 139.462 85.1257C143.839 85.1257 148.098 85.1257 152.475 84.4883C156.852 83.8509 161.111 82.0662 165.607 81.9387C166.198 82.3212 166.317 81.4288 165.725 81.4288Z" fill="#99BE19"/>
<path d="M129.997 90.9903C115.801 93.1575 101.25 93.4124 86.9352 94.4323C81.1384 94.8147 75.4598 95.5796 69.7813 94.3048C67.8884 93.9224 61.855 91.5003 60.4353 94.0498C59.7255 95.3246 61.0269 96.4719 62.0916 95.7071C62.3282 95.5796 65.1675 96.0895 65.9956 96.217C68.0067 96.5994 70.0179 97.1094 72.029 97.4918C77.2344 98.5116 83.2678 97.3643 88.4732 96.8544C102.433 95.7071 116.274 94.5598 130.116 91.7552C130.589 91.6278 130.471 90.8629 129.997 90.9903Z" fill="#99BE19"/>
<path d="M135.558 109.345C123.727 105.266 111.66 107.56 99.4753 106.668C92.1405 106.158 84.8057 103.863 77.4709 103.099C72.3839 102.589 66.4687 101.951 61.7366 104.628C60.5536 105.266 60.317 107.433 61.8549 107.943C62.0915 108.07 62.4464 108.198 62.683 108.198C63.6294 108.58 64.9308 107.433 64.3393 106.286C64.221 106.031 64.1027 105.776 63.866 105.521C63.6294 106.286 63.2745 107.05 63.0379 107.815C67.8884 105.011 74.395 106.158 79.6004 106.668C86.107 107.433 92.6137 109.09 99.1204 109.6C110.951 110.365 123.491 106.795 135.203 109.982C135.794 110.237 136.031 109.6 135.558 109.345Z" fill="#99BE19"/>
<path d="M131.417 73.5245C125.384 72.6322 119.587 71.3574 113.553 72.3772C107.165 73.397 101.132 76.329 94.625 77.2214C88.8281 78.1137 83.3862 78.8786 78.0626 81.8107C75.105 83.4679 72.384 85.7625 69.1898 86.6549C66.7055 87.2923 64.1028 87.1648 61.7367 88.1846C59.3707 89.077 61.0269 92.6464 63.2747 91.8815C65.759 91.1166 68.2434 91.1167 70.7278 90.4793C73.2121 89.8419 75.5782 88.1846 77.7076 86.7823C83.2679 83.2129 88.8281 82.0656 95.0982 80.9183C100.895 79.8985 106.1 77.4764 111.779 75.6917C118.049 73.652 124.911 74.1619 131.299 74.2894C131.654 74.0344 131.654 73.5245 131.417 73.5245Z" fill="#48810C"/>
<path d="M161.703 125.409C153.185 122.859 144.312 122.222 135.676 119.927C131.181 118.78 126.567 118.525 122.19 116.995C118.049 115.593 114.382 114.063 110.123 113.68C106.219 113.298 102.196 113.425 98.2924 112.916C94.0335 112.406 90.0112 111.258 85.7523 111.131C78.2992 110.876 70.4912 111.513 63.1564 112.406C60.7903 112.661 61.3818 116.612 63.7479 116.358C70.8461 115.465 78.2992 114.955 85.3973 114.828C89.3013 114.828 93.087 115.72 96.8727 116.23C101.132 116.867 105.509 116.612 109.768 116.867C114.263 117.122 118.049 118.78 122.308 120.182C126.448 121.584 130.944 121.457 135.203 122.349C143.957 124.134 152.83 124.389 161.584 125.918C161.939 126.173 162.058 125.536 161.703 125.409Z" fill="#48810C"/>
<path d="M182.642 100.041C173.178 102.208 163.241 103.1 153.54 103.61C142.538 104.12 131.89 101.953 121.006 100.296C110.832 98.7658 100.895 98.8933 90.8392 100.551C81.6116 102.08 70.3728 99.0208 61.855 104.12C59.3706 105.65 60.9085 109.474 63.6295 108.454C72.8572 104.63 83.0312 106.797 92.6138 105.267C103.024 103.61 113.553 103.483 124.082 104.502C134.138 105.522 143.839 107.434 154.013 106.797C164.069 106.287 173.415 104.502 182.642 100.296C182.879 100.296 182.879 99.9131 182.642 100.041Z" fill="#457124"/>
<path d="M62.9197 94.5598C63.3929 93.9224 63.7478 93.285 63.8661 92.5201C64.221 91.2453 63.9844 89.7156 63.038 89.0782C62.5648 88.6958 61.8549 88.5683 61.2634 88.5683C53.692 87.8034 46.1206 88.4408 38.5492 89.0782C34.2903 89.4606 29.6765 89.8431 26.1274 92.5201C25.8908 92.7751 25.5359 93.03 25.4176 93.285C25.2993 93.9224 25.6542 94.4323 26.0091 94.9423C27.0739 96.3445 26.4823 96.8544 28.1386 97.2369C29.3216 97.4918 48.3684 95.1972 55.9398 95.9621C58.4242 96.217 61.2634 96.5995 62.9197 94.5598Z" fill="#E2E9B3"/>
<path d="M19.0293 107.691C18.3195 107.181 18.3195 106.033 18.4378 105.141C18.5561 104.376 18.7927 103.484 19.3842 102.974C19.7391 102.719 20.2123 102.719 20.6856 102.592C33.9355 101.827 47.1854 103.994 60.5537 104.504C61.9733 104.504 63.3929 104.631 64.4577 105.524C65.5224 106.416 65.9956 108.456 64.9309 109.348C62.9197 109.093 60.9086 108.965 58.8974 108.965C51.2077 108.838 43.518 108.71 35.8283 108.456C33.6989 108.456 31.6877 108.328 29.5583 108.328C26.3641 108.328 23.2882 108.201 20.2123 107.946C19.6208 107.946 19.2659 107.946 19.0293 107.691Z" fill="#E2E9B3"/>
<path d="M55.4666 118.653C52.9822 118.525 48.8416 118.525 46.3573 118.78C37.3662 119.8 28.2569 121.202 19.3842 119.8C18.2011 119.672 17.2547 118.653 17.0181 117.378C16.8998 116.613 17.373 115.976 18.0828 115.848C19.1476 115.721 20.2123 115.338 21.277 115.083C24.7078 114.191 28.1386 114.063 31.5694 113.936L58.8974 112.789C60.1987 112.789 61.5 112.789 62.9197 112.789C63.9844 112.916 65.0491 113.044 65.8773 113.808C66.7054 114.573 68.125 119.545 55.4666 118.653Z" fill="#E2E9B3"/>
<mask id="mask0_9002_24198" style="mask-type:luminance" maskUnits="userSpaceOnUse" x="25" y="88" width="40" height="10">
<path d="M62.9197 94.5588C63.3929 93.9214 63.7478 93.284 63.8661 92.5191C64.221 91.2444 63.9844 89.7146 63.038 89.0772C62.5648 88.6948 61.8549 88.5673 61.2634 88.5673C53.692 87.8024 46.1206 88.4398 38.5492 89.0772C34.2903 89.4597 29.6765 89.8421 26.1274 92.5191C25.8908 92.7741 25.5359 93.0291 25.4176 93.284C25.2993 93.9214 25.6542 94.4314 26.0091 94.9413C27.0739 96.3436 26.4823 96.8535 28.1386 97.2359C29.3216 97.4909 48.3684 95.1962 55.9398 95.9611C58.4242 96.2161 61.2634 96.5985 62.9197 94.5588Z" fill="white"/>
</mask>
<g mask="url(#mask0_9002_24198)">
<path d="M69.5446 87.4191C60.6719 85.8894 52.0358 85.252 43.0448 85.8894C38.5493 86.1444 34.0537 86.6543 29.5582 87.2917C26.2457 87.8016 21.1587 88.0566 18.9109 90.9886C18.556 91.4985 18.6743 92.3908 19.1476 92.7733C21.8685 94.6855 26.1274 93.5381 29.2033 93.1557C33.6988 92.5183 38.1943 92.0084 42.6899 91.626C51.4443 90.8611 60.4353 90.4787 69.1897 91.1161C71.5558 91.371 71.7924 87.8016 69.5446 87.4191Z" fill="#CDD385"/>
</g>
<mask id="mask1_9002_24198" style="mask-type:luminance" maskUnits="userSpaceOnUse" x="18" y="102" width="48" height="8">
<path d="M19.0293 107.686C18.3195 107.176 18.3195 106.029 18.4378 105.136C18.5561 104.371 18.7927 103.479 19.3842 102.969C19.7391 102.714 20.2123 102.714 20.6856 102.587C33.9355 101.822 47.1854 103.989 60.5537 104.499C61.9733 104.499 63.3929 104.626 64.4577 105.519C65.5224 106.411 65.9956 108.451 64.9309 109.343C62.9197 109.088 60.9086 108.961 58.8974 108.961C51.2077 108.833 43.518 108.706 35.8283 108.451C33.6989 108.451 31.6877 108.323 29.5583 108.323C26.3641 108.323 23.2882 108.196 20.2123 107.941C19.6208 107.941 19.2659 107.941 19.0293 107.686Z" fill="white"/>
</mask>
<g mask="url(#mask1_9002_24198)">
<path d="M67.8885 104.502C62.9197 104.374 58.0693 103.1 53.1006 102.462C48.1319 101.825 43.1631 101.187 38.1944 100.805C33.4623 100.422 28.8485 100.932 24.2346 101.315C21.0405 101.57 15.007 100.295 13.4691 104.247C13.3508 104.629 13.3508 105.394 13.7057 105.649C16.0717 108.199 20.9222 106.541 23.8797 106.414C28.9668 106.032 33.8172 105.777 38.7859 106.414C43.7546 106.924 48.7234 107.561 53.6921 107.944C58.4242 108.326 63.1563 107.561 67.8885 107.179C69.3081 106.924 69.1898 104.629 67.8885 104.502Z" fill="#CDD385"/>
</g>
<mask id="mask2_9002_24198" style="mask-type:luminance" maskUnits="userSpaceOnUse" x="17" y="112" width="50" height="9">
<path d="M55.4666 118.654C52.9822 118.526 48.8416 118.526 46.3573 118.781C37.3662 119.801 28.2569 121.203 19.3842 119.801C18.2011 119.673 17.2547 118.654 17.0181 117.379C16.8998 116.614 17.373 115.977 18.0828 115.849C19.1476 115.722 20.2123 115.339 21.277 115.084C24.7078 114.192 28.1386 114.064 31.5694 113.937L58.8974 112.79C60.1987 112.79 61.5 112.79 62.9197 112.79C63.9844 112.917 65.0491 113.044 65.8773 113.809C66.7054 114.574 68.125 119.546 55.4666 118.654Z" fill="white"/>
</mask>
<g mask="url(#mask2_9002_24198)">
<path d="M67.0603 113.172C63.038 112.534 59.0157 112.662 54.9934 112.534C50.3796 112.407 45.884 111.642 41.2702 111.642C36.5381 111.77 31.806 112.28 27.0739 112.534C24.5895 112.662 21.9868 112.789 19.5025 113.044C17.373 113.172 15.5985 113.044 14.0605 114.702C13.469 115.339 13.3507 116.359 14.0605 116.996C17.0181 119.163 21.8685 117.634 25.181 117.379C30.1497 116.996 35.1185 116.614 40.2055 116.231C44.8193 115.976 49.3148 116.104 53.9286 115.849C58.3059 115.594 62.5648 114.702 66.942 114.447C67.8884 114.447 67.7701 113.299 67.0603 113.172Z" fill="#CDD385"/>
</g>
<path d="M123.018 76.585C120.06 76.7124 117.221 77.0949 114.382 77.6048C111.661 78.1147 108.703 77.9872 106.337 79.3895C106.219 79.517 106.219 79.6445 106.455 79.6445C112.016 78.7521 117.457 77.3499 123.136 77.0949C123.254 77.0949 123.254 76.585 123.018 76.585Z" fill="#78A555"/>
<path d="M133.901 95.5811C129.406 96.9833 124.674 96.2184 119.942 96.091C115.446 95.9635 110.359 96.2184 105.982 97.3658C105.864 97.3658 105.745 97.7482 105.982 97.7482C110.832 98.2581 115.919 96.9833 120.77 96.9833C125.147 96.9833 129.524 97.3657 133.901 95.9635C134.256 95.9635 134.138 95.5811 133.901 95.5811Z" fill="#78A555"/>
<path d="M113.672 123.113C106.81 122.094 100.303 121.456 93.6784 119.544C90.7208 118.652 87.7632 117.759 84.6874 117.377C81.4932 116.994 78.299 118.269 75.1048 117.632C75.1048 117.632 74.9865 117.759 75.1048 117.759C77.9441 118.524 80.5468 118.652 83.386 118.652C87.0534 118.652 90.7208 119.926 94.2699 120.946C100.658 122.731 106.928 122.858 113.553 123.751C114.027 123.751 114.027 123.241 113.672 123.113Z" fill="#78A555"/>
<path d="M140.763 114.321C135.44 112.536 129.406 110.751 123.846 111.644C123.728 111.644 123.728 111.899 123.846 111.899C129.524 112.663 135.085 113.428 140.645 114.576C140.763 114.703 140.881 114.448 140.763 114.321Z" fill="#78A555"/>
<path d="M151.174 115.721C149.872 115.594 148.689 115.211 147.506 114.956C146.323 114.702 145.022 114.192 143.839 114.574C143.602 114.574 143.602 114.956 143.839 115.084C145.022 115.466 146.323 115.594 147.506 115.849C148.808 116.104 149.991 116.231 151.292 116.104C151.41 116.104 151.292 115.721 151.174 115.721Z" fill="#78A555"/>
<path d="M145.968 75.6945C143.484 75.822 140.881 75.9495 138.397 75.6945C136.268 75.5671 134.256 74.9296 132.127 75.3121C132.009 75.3121 132.009 75.5671 132.127 75.6945C136.741 76.3319 141.355 76.8418 145.968 75.9495C146.205 75.9495 146.087 75.6945 145.968 75.6945Z" fill="#457124"/>
<path d="M123.727 124.517C122.544 123.625 121.125 123.37 119.823 123.115C118.404 122.86 116.629 122.478 115.21 122.86C115.091 122.86 114.973 123.242 115.21 123.242C117.931 124.007 121.006 123.242 123.373 124.9C123.727 125.282 123.964 124.772 123.727 124.517Z" fill="#457124"/>
<path d="M162.886 115.592C161.229 115.337 159.573 115.337 157.799 115.465C155.788 115.592 153.776 115.337 151.765 115.465C151.529 115.465 151.529 115.72 151.647 115.847C154.959 117.632 159.337 116.102 162.767 115.975C163.004 115.847 163.122 115.592 162.886 115.592Z" fill="#457124"/>
<path d="M105.982 90.7327C102.315 89.3304 98.6472 89.5854 94.8615 89.3304C91.3124 89.0755 88.3548 89.4579 85.0423 90.7327C84.924 90.7327 84.924 90.9877 85.0423 90.9877C87.9999 91.1152 90.6026 89.8403 93.6785 89.9678C97.7008 90.2228 101.96 89.8404 105.982 90.8602C106.1 90.9877 106.1 90.7327 105.982 90.7327Z" fill="#457124"/>
<path d="M142.656 84.4881C139.817 83.5957 136.859 84.1057 133.902 84.1057C130.234 84.1057 126.567 83.8507 122.899 83.5957C122.781 83.5957 122.663 83.8507 122.781 83.8507C125.975 84.743 129.524 84.3606 132.837 84.6156C136.031 84.8705 139.225 83.9782 142.419 84.743C142.656 84.8705 142.774 84.4881 142.656 84.4881Z" fill="#78A555"/>
<path d="M88.3549 85.8896C85.0424 86.0171 82.2032 87.1644 79.2456 88.6942C75.105 90.8613 71.4376 92.5186 66.8238 93.0285C66.2322 93.0285 66.2322 94.1758 66.8238 94.1758C74.7501 94.0483 80.6652 87.1644 88.3549 86.1446C88.4732 86.1446 88.4732 85.8896 88.3549 85.8896Z" fill="#78A555"/>
<path d="M98.6472 108.455C97.2275 108.2 95.8079 107.945 94.2699 107.69C92.6137 107.435 90.9575 106.925 89.4195 106.925C89.1829 106.925 89.0646 107.18 89.3012 107.307C91.9039 109.092 95.6896 108.455 98.6472 108.837C98.8838 108.964 99.0021 108.582 98.6472 108.455Z" fill="#78A555"/>
<path d="M48.0135 93.794C43.9912 93.4116 39.8506 94.4315 35.9466 95.3238C35.8283 95.3238 35.8283 95.4513 35.9466 95.4513C39.9689 94.9414 43.8729 93.6666 47.8952 94.049C48.1318 94.049 48.2501 93.794 48.0135 93.794Z" fill="white"/>
<path d="M35.71 118.78C34.4087 118.908 32.989 119.035 31.6877 119.163C30.3864 119.29 28.9667 119.163 27.6654 119.545C27.5471 119.545 27.4288 119.8 27.6654 119.928C28.8484 120.31 30.1498 120.055 31.3328 119.928C32.8707 119.8 34.2904 119.545 35.8283 119.29C35.9466 119.035 35.9466 118.78 35.71 118.78Z" fill="white"/>
<path d="M28.9666 107.816C27.4287 107.943 25.7724 107.433 24.2345 107.816C24.1162 107.816 24.1162 108.071 24.2345 108.071C25.7724 108.326 27.547 108.326 29.0849 108.071C29.3215 108.071 29.2032 107.816 28.9666 107.816Z" fill="white"/>
<path d="M25.2993 94.3037C25.2993 94.6862 25.5359 95.0686 25.7725 95.3235C25.7725 95.451 26.0091 95.8335 26.0091 95.8335C26.1274 96.0884 26.2457 96.3434 26.4823 96.5983C26.8373 96.9808 27.3105 97.2357 27.7837 96.9808C28.2569 96.7258 28.4935 96.2159 28.3752 95.706C28.2569 94.5587 26.8373 93.1564 25.7725 93.5388C25.5359 93.5388 25.2993 93.7938 25.2993 94.3037Z" fill="#E6D639"/>
<path d="M19.0293 102.972C18.4378 103.227 18.2012 103.991 18.0829 104.629C17.9646 105.266 17.8463 105.904 18.2012 106.541C18.3195 106.669 18.5561 106.796 18.7927 106.796C19.3842 106.669 19.7391 106.031 19.9758 105.394C20.2124 104.756 20.3307 103.991 20.0941 103.354C19.7391 102.972 19.3842 102.844 19.0293 102.972Z" fill="#E6D639"/>
<path d="M17.6098 116.23C17.1366 116.613 17.0183 117.378 17.0183 118.015C17.1366 118.78 17.2549 119.417 17.7281 119.8C18.083 120.055 18.4379 119.927 18.6746 119.672C19.0295 119.162 19.0295 118.525 18.9112 117.888C18.7929 117.25 18.6746 116.74 18.2013 116.358C18.2013 115.975 17.8464 115.975 17.6098 116.23Z" fill="#E6D639"/>
</svg>
