<svg width="200" height="200" viewBox="0 0 200 200" fill="none" xmlns="http://www.w3.org/2000/svg">
<path d="M171.446 90.387C167.454 89.6589 171.12 91.7895 157.544 86.4764C143.29 80.8935 127.433 78.0347 124.42 78.0616C123.578 78.0616 122.872 77.765 122.302 77.3604C120.727 63.5517 113.559 51.8735 110.681 47.5853C107.776 43.2431 108.563 37.0938 107.124 34.3698C105.658 31.6189 102.101 31.2952 100.472 35.0171C98.843 38.7121 101.775 35.6644 93.4942 47.5853C85.2131 59.5331 79.0226 73.3958 77.8822 77.2256C77.2849 77.738 76.5247 78.1156 75.5744 78.0886C72.5606 78.0616 56.7042 80.9205 42.4498 86.5033C28.8742 91.8165 32.5396 89.6858 28.5484 90.414C24.5571 91.1422 24.0684 94.6753 26.4034 96.6981C28.7656 98.7209 34.956 99.3412 38.5672 103.144C42.1783 106.947 52.2243 116.737 65.637 121.322C65.637 121.322 66.343 121.726 66.6416 123.048C64.3338 129.224 61.0213 140.039 59.3379 150.854C57.1115 165.176 57.1115 160.968 55.7268 164.744C54.3421 168.547 57.1658 170.758 60.1253 169.76C63.0848 168.763 66.7231 163.746 71.8547 162.586C76.9863 161.427 90.5347 157.732 101.287 148.535C101.287 148.535 101.395 148.454 101.612 148.427C101.83 148.481 101.938 148.535 101.938 148.535C112.69 157.732 126.239 161.427 131.37 162.586C136.502 163.773 140.14 168.763 143.1 169.76C146.059 170.758 148.883 168.547 147.498 164.744C146.113 160.941 146.113 165.149 143.887 150.854C141.986 138.583 137.968 126.311 135.714 120.809C148.476 116.063 157.979 106.812 161.454 103.144C165.065 99.3412 171.256 98.7209 173.618 96.6981C175.926 94.6483 175.437 91.1152 171.446 90.387Z" fill="#5D7D1E"/>
<path d="M171.446 88.1224C167.454 87.3942 171.12 89.5249 157.544 84.2117C143.29 78.6289 127.433 75.77 124.42 75.797C123.578 75.797 122.872 75.5003 122.302 75.0958C120.727 61.287 113.559 49.6089 110.681 45.3206C107.776 40.9784 108.563 34.8562 107.124 32.1052C105.658 29.3542 102.101 29.0306 100.472 32.7525C98.843 36.4474 101.775 33.3998 93.4942 45.3206C85.2131 57.2684 79.0226 71.1311 77.8822 74.9609C77.2849 75.4734 76.5247 75.8509 75.5744 75.824C72.5606 75.797 56.7042 78.6558 42.4498 84.2387C28.8742 89.5518 32.5396 87.4212 28.5484 88.1494C24.5571 88.8776 24.0684 92.4107 26.4034 94.4334C28.7656 96.4562 34.956 97.0765 38.5672 100.879C42.1783 104.682 52.2243 114.472 65.637 119.057C65.637 119.057 66.343 119.462 66.6416 120.783C64.3338 126.96 61.0213 137.775 59.3379 148.59C57.1115 162.911 57.1115 158.704 55.7268 162.506C54.3421 166.309 57.1658 168.521 60.1253 167.523C63.0848 166.525 66.7231 161.508 71.8547 160.349C76.9863 159.189 90.5347 155.494 101.287 146.297C101.287 146.297 101.395 146.243 101.612 146.189C101.83 146.243 101.938 146.297 101.938 146.297C112.69 155.494 126.239 159.189 131.37 160.349C136.502 161.508 140.14 166.525 143.1 167.523C146.059 168.521 148.883 166.309 147.498 162.506C146.113 158.704 146.113 162.911 143.887 148.59C141.986 136.318 137.968 124.047 135.714 118.545C148.476 113.798 157.979 104.547 161.454 100.879C165.065 97.0765 171.256 96.4562 173.618 94.4334C175.926 92.3837 175.437 88.8506 171.446 88.1224Z" fill="#9AAD21"/>
<path d="M165.092 90.0373C161.454 89.363 164.766 91.3048 152.412 86.4772C139.434 81.4068 124.99 78.7907 122.247 78.8176C121.487 78.8176 120.836 78.5479 120.32 78.1703C118.881 65.6022 112.364 54.949 109.731 51.0383C107.07 47.0736 107.803 41.4908 106.473 38.9826C105.142 36.4743 101.884 36.2046 100.418 39.5759C98.9245 42.9472 101.612 40.1693 94.0644 51.0383C86.5164 61.9073 80.8689 74.5563 79.8643 78.0355C79.3213 78.494 78.6153 78.8446 77.7465 78.8176C75.0042 78.7907 60.5598 81.4068 47.5814 86.4772C35.2276 91.3048 38.54 89.363 34.9017 90.0373C31.2635 90.7115 30.8019 93.921 32.9469 95.7819C35.0918 97.6429 40.7393 98.1823 44.0246 101.661C47.3099 105.141 56.4599 114.041 68.678 118.221C68.678 118.221 69.3296 118.599 69.574 119.812C67.4833 125.449 64.4424 135.293 62.9219 145.164C60.8856 158.218 60.8855 154.361 59.6366 157.84C58.3876 161.293 60.9398 163.315 63.6278 162.398C66.3158 161.481 69.6283 156.923 74.3255 155.872C78.9955 154.793 91.3493 151.449 101.151 143.061C101.151 143.061 101.259 143.007 101.45 142.953C101.667 143.007 101.748 143.061 101.748 143.061C111.55 151.449 123.904 154.793 128.574 155.872C133.244 156.95 136.583 161.508 139.271 162.398C141.959 163.315 144.539 161.293 143.263 157.84C142.014 154.388 141.986 158.218 139.977 145.164C138.24 133.972 134.574 122.806 132.511 117.79C144.131 113.447 152.793 105.033 155.969 101.688C159.255 98.2092 164.902 97.6698 167.047 95.8089C169.192 93.921 168.73 90.7115 165.092 90.0373Z" fill="#F6D900"/>
<path d="M110.681 111.614C110.192 110.724 109.866 109.834 109.948 108.944C110.219 105.95 115.432 104.871 117.686 104.197C121.786 102.929 126.076 102.336 130.203 101.149C136.203 99.423 142.231 97.7779 148.258 96.0787C149.507 95.7281 150.838 95.1348 152.114 94.946C142.475 96.4024 132.565 96.5642 122.818 96.9418C117.985 97.1306 106.88 100.502 105.685 93.2199C105.631 91.1971 105.468 88.7428 105.251 85.5873C104.518 75.6083 102.481 54.5176 102.481 54.5176C102.128 63.4987 99.1145 82.5127 98.1642 88.9046C97.6212 92.7074 99.0602 98.8297 93.5757 99.3691C90.1818 98.2633 86.4892 97.2654 83.6655 97.1575C77.1763 96.8878 57.7903 96.2675 48.8575 94.919C48.8575 94.919 69.3296 100.852 79.0498 103.415C82.2536 104.251 85.4303 105.06 88.6613 105.653C90.4804 106.004 93.9015 106.193 93.9287 108.647C93.9558 111.533 89.4759 115.012 88.2269 117.574C85.4032 123.373 77.1491 140.822 72.3705 148.455C72.3705 148.455 85.9733 132.138 92.2181 124.29C94.3088 121.647 96.3451 119.03 98.0556 116.145C98.843 114.823 100.092 112.423 101.938 112.585C104.056 112.773 104.871 116.01 105.875 117.439C107.504 119.813 109.323 122.051 111.088 124.29C117.333 132.138 130.936 148.455 130.936 148.455C126.157 140.822 117.903 123.4 115.079 117.574C114.183 115.767 111.876 113.717 110.681 111.614Z" fill="#FFFABE"/>
<path d="M100.146 56.8644C100.146 56.8644 100.146 49.124 93.0055 56.2172C85.8647 63.3103 77.6379 82.3244 89.313 83.0795C99.2775 83.7268 99.4947 66.1152 100.146 56.8644Z" fill="#DAE260"/>
<path d="M55.2381 93.0578C55.2381 93.0578 50.4866 92.5454 55.3196 88.6886C60.1525 84.8319 72.4248 81.083 72.099 88.2301C71.8275 94.3254 60.967 93.3006 55.2381 93.0578Z" fill="#DAE260"/>
</svg>
