<svg width="200" height="200" viewBox="0 0 200 200" fill="none" xmlns="http://www.w3.org/2000/svg">
<path d="M18.474 105.505C16.4977 109.513 16.2606 122.253 19.3041 122.451C21.9128 122.61 27.7626 122.888 30.3318 123.007C34.7192 123.245 41.9129 123.205 46.3003 123.245C46.3003 123.245 46.4189 123.92 46.6561 124.872C47.4861 124.713 48.3557 124.515 49.1857 124.317C49.1857 124.277 49.1857 124.237 49.2252 124.158C48.9881 123.721 48.7509 123.245 48.5533 122.689C47.5256 119.991 46.1817 112.529 45.2726 109.513C37.7232 107.568 28.5531 104.87 18.474 105.505Z" fill="#FFD3B8"/>
<path opacity="0.7" d="M48.5138 122.729C48.2766 122.134 48.0395 121.3 47.8023 120.348C43.494 120.308 37.8022 120.308 34.1263 120.109C31.5571 119.99 25.7073 119.713 23.0986 119.554C20.5689 119.395 20.3317 110.703 21.3989 105.385C20.4503 105.385 19.4622 105.425 18.474 105.465C16.4977 109.473 16.2606 122.213 19.3041 122.411C21.9128 122.57 27.7626 122.848 30.3318 122.967C34.7192 123.205 41.9129 123.165 46.3003 123.205C46.3003 123.205 46.4189 123.88 46.6561 124.832C47.4861 124.674 48.3557 124.475 49.1857 124.277C49.1857 124.237 49.1857 124.197 49.2252 124.118C48.9486 123.721 48.7509 123.245 48.5138 122.729Z" fill="#FEBB92"/>
<path opacity="0.88" d="M23.0985 112.371C22.1894 112.45 22.387 114.951 23.2566 115.03C27.9206 115.467 34.0472 115.546 38.4741 117.094C39.7785 117.53 40.9642 115.546 39.6203 114.832C34.7982 112.212 28.5531 111.895 23.0985 112.371Z" fill="#FFF1E9"/>
<path d="M138.831 139.636C125.945 145.47 119.502 148.407 110.451 148.923C99.0279 149.598 99.5813 145.867 62.1897 134.357C55.9051 132.413 50.9643 130.984 47.2884 126.221C42.5848 120.11 42.0709 110.584 44.9563 103.083C52.8616 82.5252 62.2292 94.0346 82.1898 83.0411C100.925 72.6826 97.5259 67.4835 114.838 60.2206C119.977 58.0775 134.562 52.164 151.874 56.2518C157.329 57.5218 166.42 59.8237 173.851 68.0391C175.59 69.9441 181.874 77.1276 182.863 88.0021C183.969 99.829 178.119 108.64 174.878 113.561C165.669 127.452 152.546 133.445 138.831 139.636Z" fill="#FFBCBC"/>
<path opacity="0.35" d="M118.554 121.102C102.585 124.475 87.0514 130.627 72.071 137.493C99.5811 146.542 100.135 149.518 110.451 148.923C119.502 148.407 125.945 145.47 138.83 139.636C148.356 135.31 157.605 131.063 165.471 124.237C150.056 120.229 134.206 117.808 118.554 121.102Z" fill="white"/>
<path opacity="0.35" d="M151.874 56.2917C134.562 52.2039 119.937 58.0777 114.838 60.2605C97.5261 67.5234 100.925 72.7225 82.19 83.081C62.2293 94.1142 52.8617 82.565 44.9565 103.123C44.3636 104.711 43.9288 106.338 43.6521 108.045C43.9288 107.965 44.2055 107.846 44.4821 107.767C60.6088 103.679 74.9567 94.2729 91.4786 92.1695C99.3443 89.4707 107.329 88.796 115.866 89.9073C116.34 89.7485 116.815 89.5898 117.289 89.431C139.7 82.6444 164.957 81.0172 182.428 96.813C182.942 94.1142 183.139 91.1773 182.863 88.042C181.875 77.1675 175.59 69.984 173.851 68.079C166.42 59.8636 157.329 57.5617 151.874 56.2917Z" fill="white"/>
<path d="M142.032 64.4272C133.258 63.1175 124.404 65.7766 116.578 69.9041C111.716 72.4441 91.4391 84.4695 101.321 90.6608C103.336 91.9308 103.574 92.6452 106.222 92.3674C127.092 90.2639 148.357 81.1357 167.764 97.2093C157.013 86.1761 166.776 84.8664 175.709 82.2867C171.282 76.4129 159.898 67.0863 142.032 64.4272Z" fill="#EE3636"/>
<path d="M141.558 100.146C142.349 101.932 143.06 103.163 144.127 104.869C144.522 105.504 144.839 106.139 145.076 106.814C150.056 106.854 154.997 106.735 159.819 106.139C160.096 105.901 160.333 105.663 160.61 105.385C161.914 104.115 163.1 102.805 164.246 101.496C162.23 99.3923 159.938 97.527 157.803 95.8998C153.337 92.4866 148.198 90.9785 142.665 91.8119C137.961 92.6057 140.609 97.9635 141.558 100.146Z" fill="#EE3636"/>
<path d="M147.882 51.2909C130.688 49.3859 105.431 56.8472 93.6129 73.397C89.2255 79.5486 70.7274 82.5649 55.0355 89.2324C49.0276 91.8121 45.4702 94.9078 43.0591 99.075C42.822 101.774 42.0315 104.83 41.5967 107.449C42.5453 112.648 43.1777 118.681 45.1935 123.801C45.3912 124.277 46.6165 123.761 46.7351 124.277C48.7904 125.944 49.66 125.745 51.913 126.777C69.6602 130.666 64.6008 122.411 73.6128 121.102C73.3756 120.427 73.178 119.713 73.0989 118.879C72.9803 117.53 74.8776 112.767 72.427 112.529C67.3676 112.053 63.7708 115.863 59.9367 118.641C58 120.03 48.2371 125.864 47.7627 124.832C45.5493 120.149 40.1737 107.052 51.992 96.535C58.9881 90.9787 69.7787 92.3678 78.1582 89.5102C86.6563 86.613 90.8856 83.6761 96.7355 77.2467C118.989 52.6403 151.202 59.5459 162.151 63.9513C169.266 66.8088 173.693 71.6904 176.143 77.5642C176.143 77.6039 176.341 78.2786 176.618 79.1517C177.566 75.6592 176.262 72.7223 176.459 69.071C173.851 57.6806 160.372 52.7196 147.882 51.2909Z" fill="#EE3636"/>
<path d="M82.2292 113.958C81.9525 115.109 81.913 116.18 82.0315 117.252C90.8854 113.204 99.7787 109.314 109.423 107.568C118.751 105.901 128.83 106.377 138.949 106.655C138.791 105.742 138.475 104.829 137.961 103.956C135.629 100.226 131.083 100.543 128.554 97.6063C123.89 92.2087 109.621 95.5028 100.213 98.2413C92.3478 100.583 84.245 105.544 82.2292 113.958Z" fill="#EE3636"/>
<path d="M153.772 132.334C152.191 132.969 150.61 133.485 148.949 133.921C149.305 133.127 149.503 132.254 149.542 131.5C149.621 129.635 151.993 127.651 154.76 125.865C150.056 125.349 145.392 125.031 140.689 124.833C140.649 125.15 140.57 125.468 140.57 125.785C140.491 129.198 143.297 131.857 143.337 135.112C143.376 137.136 138.91 140.668 141.835 135.31C142.507 130.071 140.056 128.682 137.843 127.571C136.262 126.777 134.285 125.904 132.902 124.634C119.661 124.555 106.419 125.626 93.2178 127.651C92.5854 128.008 91.9529 128.365 91.3205 128.722C96.7356 131.699 103.139 133.445 106.34 139.239C106.933 140.311 104.68 145.947 103.653 146.859C103.178 147.256 101.4 147.058 100.53 146.978C102.269 145.986 106.894 138.922 91.9925 130.587C91.3205 130.191 90.53 129.873 89.7395 129.595C85.4311 131.818 80.7671 133.445 75.5892 134.001C65.0357 135.112 55.589 131.024 46.8538 125.587C47.0119 125.785 47.1304 126.023 47.2885 126.222C50.9645 131.024 55.9447 132.453 62.1899 134.358C99.5815 145.907 99.0281 149.598 110.451 148.923C119.503 148.407 125.945 145.47 138.831 139.636C143.969 137.334 148.989 135.032 153.772 132.334ZM115.471 138.842C109.186 145.034 119.147 145.748 120.293 146.423C118.791 146.78 114.68 148.129 111.953 145.629C107.842 141.938 113.139 136.699 115.471 135.747C118.04 134.675 122.388 134.318 125.431 135.152C127.289 135.667 132.902 138.287 134.72 138.763C131.677 139.755 121.479 132.929 115.471 138.842Z" fill="#EE3636"/>
<path d="M161.558 127.412C161.795 127.253 162.032 127.055 162.27 126.896C162.23 126.896 162.23 126.896 162.191 126.896C161.993 127.055 161.756 127.214 161.558 127.412Z" fill="#EE3636"/>
</svg>
