<svg width="200" height="200" viewBox="0 0 200 200" fill="none" xmlns="http://www.w3.org/2000/svg">
<path d="M68.0506 166.392C68.0506 166.392 65.9518 141.77 65.0033 105.93C64.8419 99.5588 64.7006 92.8474 64.6199 85.8356C64.4988 75.1375 64.4988 63.8184 64.7006 52.0986C66.4985 52.6395 68.3352 53.025 70.1688 53.4207C72.1062 53.7613 74.2252 53.9817 75.8194 53.7413C75.8194 75.5967 76.2018 97.4559 76.7887 119.303L76.7889 119.312C77.0799 129.547 77.4135 139.785 78.0603 150.004C78.3701 154.979 78.566 160.087 79.5536 164.989C75.9655 166.291 71.8225 166.628 68.0506 166.392Z" fill="url(#paint0_linear_2003_14266)"/>
<path d="M88.8974 118.913C89.4661 126.915 90.2293 134.92 90.6328 142.932L90.6329 142.933C90.9356 147.08 91.2384 151.187 91.5209 154.733L91.522 154.748C91.7795 158.156 91.922 161.608 92.4088 164.99C90.5091 165.075 88.4 165.364 86.516 164.99C86.3142 161.785 86.0868 158.581 85.9106 155.374C85.6281 150.826 85.285 145.197 84.9621 139.688C84.5747 132.765 84.3636 125.834 83.9594 118.913C84.5372 118.913 87.4617 119.505 88.8974 118.913Z" fill="url(#paint1_linear_2003_14266)"/>
<path d="M86.0103 107.072C85.7078 107.072 85.4658 107.313 85.4658 107.613C85.4658 107.913 85.7078 108.154 86.0103 108.154C86.3128 108.154 86.5347 107.913 86.5347 107.613C86.5347 107.333 86.2926 107.072 86.0103 107.072Z" fill="#FFDFDF"/>
<path d="M100.461 108.935C100.744 108.935 100.945 108.714 100.945 108.434C100.945 108.153 100.723 107.953 100.461 107.953C100.179 107.953 99.957 108.173 99.957 108.434C99.957 108.694 100.179 108.935 100.461 108.935Z" fill="#FFDFDF"/>
<path d="M84.3556 128.749L84.0732 129.65C84.1942 129.69 84.3152 129.71 84.4362 129.73C84.4161 129.409 84.3959 129.069 84.3959 128.749C84.3758 128.749 84.3556 128.749 84.3556 128.749Z" fill="#FFDFDF"/>
<path d="M86.3142 129.229C88.0094 127.746 88.2112 123.259 87.969 119.132C87.6462 119.192 87.3233 119.212 87.0206 119.232C87.2426 123.259 87.0609 127.346 85.7088 128.528C85.3657 128.848 84.9419 128.908 84.4172 128.748C84.4172 129.069 84.4374 129.389 84.4576 129.73C84.6191 129.75 84.7603 129.77 84.9016 129.77C85.4263 129.77 85.9106 129.589 86.3142 129.229Z" fill="#FFF1F4"/>
<path d="M87.9686 119.133C87.9283 118.371 87.8677 117.63 87.8072 116.929C87.5448 114.144 87.1816 111.86 87.0807 111.279L86.1322 111.44C86.334 112.581 86.5761 114.304 86.7578 116.208C86.8587 117.189 86.9394 118.231 86.9999 119.253C87.3228 119.213 87.6457 119.193 87.9686 119.133Z" fill="#FFDFDF"/>
<path d="M94.0832 111.359C94.0832 111.359 94.1236 113.042 93.9016 114.685C93.6392 116.588 93.1145 117.69 92.4485 117.71C92.2467 117.71 92.1055 117.65 91.944 117.49C90.8946 116.448 90.7332 112.702 90.7736 111.339L89.825 111.319C89.8048 111.86 89.7443 116.648 91.2781 118.151C91.601 118.471 92.0046 118.652 92.4284 118.652C92.4486 118.652 92.4485 118.652 92.4687 118.652C93.6998 118.612 94.507 117.309 94.8501 114.785C95.0721 113.062 95.0317 111.379 95.0317 111.319L94.0832 111.359Z" fill="#FFDFDF"/>
<path d="M100.986 110.898H100.038V118.471H100.986V110.898Z" fill="#FFDFDF"/>
<path d="M105.385 114.063C105.425 115.766 105.849 116.908 106.636 117.569C107.121 117.97 107.746 118.19 108.493 118.19C108.735 118.19 108.977 118.17 109.24 118.13L109.078 117.188C108.271 117.309 107.666 117.188 107.242 116.848C106.677 116.367 106.374 115.425 106.334 114.023C106.273 111.559 108.614 111.359 108.876 111.339L108.836 110.397C107.625 110.477 105.325 111.319 105.385 114.063Z" fill="#FFDFDF"/>
<path d="M113.659 118.872C113.82 118.892 113.961 118.912 114.123 118.912C115.879 118.912 117.614 117.43 117.715 117.35L117.089 116.648C117.069 116.669 115.293 118.191 113.82 117.951C113.275 117.871 112.852 117.55 112.508 116.989C112.044 116.228 111.923 115.487 111.964 114.845C113.074 115.006 115.758 115.266 116.807 114.385C117.13 114.124 117.291 113.764 117.291 113.363C117.291 111.62 116.222 110.438 114.648 110.438C113.659 110.438 112.408 111.38 111.661 112.662C110.773 114.224 110.773 115.967 111.681 117.47C112.186 118.271 112.831 118.732 113.659 118.872ZM112.488 113.123C113.114 112.041 114.083 111.38 114.648 111.38C115.899 111.38 116.343 112.401 116.343 113.363C116.343 113.503 116.302 113.583 116.181 113.663C115.556 114.184 113.538 114.124 112.125 113.924C112.246 113.603 112.367 113.323 112.488 113.123Z" fill="#FFDFDF"/>
<path d="M100.036 44.9863C100.884 44.9863 101.57 44.3053 101.57 43.4641C101.57 42.6229 100.884 41.9419 100.036 41.9419C99.1887 41.9419 98.5025 42.6229 98.5025 43.4641C98.5025 44.3053 99.1887 44.9863 100.036 44.9863Z" fill="#FFE7E7"/>
<path d="M111.297 89.7011C112.427 89.7011 113.356 88.7798 113.356 87.6582C113.356 86.5366 112.427 85.6152 111.297 85.6152C110.167 85.6152 109.239 86.5366 109.239 87.6582C109.239 88.7798 110.167 89.7011 111.297 89.7011Z" fill="#FFE7E7"/>
<path d="M132.003 96.073C132.003 95.1917 131.297 94.4707 130.409 94.4707C129.521 94.4707 128.794 95.1917 128.794 96.073C128.794 96.9543 129.521 97.6553 130.409 97.6553C131.277 97.6753 132.003 96.9543 132.003 96.073Z" fill="#FFE7E7"/>
<path d="M111.762 142.932C111.762 141.57 111.076 140.388 110.007 139.687C109.381 139.266 108.634 139.026 107.807 139.026C105.627 139.026 103.872 140.769 103.872 142.932C103.872 145.056 105.587 146.799 107.726 146.839C107.746 146.839 107.767 146.839 107.787 146.839C110.007 146.839 111.762 145.096 111.762 142.932Z" fill="#FFE7E7"/>
<path d="M97.8566 165.129C96.5852 165.129 95.5358 166.151 95.5358 167.433C95.5358 168.134 95.8587 168.756 96.3632 169.176C96.7668 169.517 97.2915 169.737 97.8566 169.737C98.4418 169.737 98.9665 169.517 99.3701 169.156C99.8545 168.736 100.177 168.114 100.177 167.413C100.177 166.151 99.1279 165.129 97.8566 165.129Z" fill="#FFE7E7"/>
<path d="M121.266 156.776C121.266 157.838 121.589 158.819 122.134 159.661C123.083 161.123 124.738 162.085 126.635 162.085C129.601 162.085 132.003 159.701 132.003 156.756C132.003 154.913 131.054 153.29 129.621 152.328C128.774 151.767 127.745 151.427 126.635 151.427C123.668 151.447 121.266 153.851 121.266 156.776Z" fill="#FFE7E7"/>
<path d="M125.505 109.616C126.03 110.117 126.736 110.417 127.523 110.417C129.137 110.417 130.449 109.115 130.449 107.492C130.449 105.89 129.137 104.587 127.523 104.587C126.11 104.587 124.94 105.569 124.657 106.891C124.617 107.092 124.597 107.292 124.597 107.492C124.597 108.334 124.94 109.075 125.505 109.616Z" fill="#FFE7E7"/>
<path d="M143.869 44.5462C143.163 42.2623 141.629 41.481 141.629 41.481C139.47 41.2005 137.331 40.9401 135.252 40.6997C134.203 40.5795 133.173 40.4593 132.124 40.3591C130.711 40.1988 129.319 40.0586 127.947 39.9384C127.079 39.8582 126.211 39.7781 125.363 39.698C123.789 39.5577 122.256 39.4375 120.762 39.3173C119.773 39.2372 118.785 39.1571 117.816 39.097C116.141 38.9768 114.506 38.8766 112.912 38.7964C111.661 38.7163 110.43 38.6562 109.239 38.6162C107.584 38.536 105.95 38.4759 104.375 38.4559C103.427 38.4358 102.499 38.4158 101.57 38.3958C100.299 38.3757 99.0679 38.3757 97.857 38.3557C97.1305 38.3557 96.404 38.3557 95.6977 38.3557C94.951 38.3557 94.2043 38.3557 93.4778 38.3557C91.5001 38.3757 89.5829 38.4158 87.7666 38.4759C86.8181 38.516 85.91 38.536 85.022 38.5761C82.7618 38.6762 80.6226 38.7965 78.6449 38.9167C77.878 38.9768 77.1515 39.0369 76.425 39.0769C74.3262 39.2372 72.409 39.4175 70.6735 39.5978C69.725 39.698 68.837 39.7981 67.9894 39.9183C64.478 40.3391 61.8949 40.7798 60.3006 41.0803C59.009 41.3207 58.343 41.481 58.343 41.481C58.343 41.481 56.9304 42.2222 56.2039 44.3258C56.1433 44.4059 56.1232 44.4861 56.1232 44.5462C55.4168 46.83 49.4635 164.409 56.1232 175.127C56.2039 175.287 56.325 175.427 56.446 175.567C58.5448 178.252 64.7403 179.955 64.7403 179.955C64.7403 181.598 79.4118 182.92 97.8974 183C98.5835 183 99.2697 183 99.976 183C119.45 183 135.232 181.638 135.232 179.935H135.313C135.313 179.935 142.214 178.032 143.93 175.107C150.509 164.409 144.576 46.83 143.869 44.5462ZM100.037 41.9418C100.884 41.9418 101.57 42.6229 101.57 43.4643C101.57 44.3058 100.884 44.9869 100.037 44.9869C99.1889 44.9869 98.5028 44.3058 98.5028 43.4643C98.5028 42.6229 99.1889 41.9418 100.037 41.9418ZM134.243 172.142C134.243 172.322 134.041 172.522 133.658 172.683C130.711 174.065 116.726 175.127 99.9356 175.127C99.2293 175.127 98.5432 175.127 97.857 175.127C97.3727 175.127 96.8681 175.127 96.3838 175.127C95.8995 175.127 95.4151 175.127 94.9308 175.107C94.4465 175.107 93.9823 175.107 93.498 175.087C93.0944 175.087 92.7109 175.087 92.3275 175.067C90.9552 175.047 89.6232 175.006 88.3115 174.966C86.8585 174.926 85.4458 174.866 84.0937 174.806C83.7506 174.786 83.4076 174.786 83.0645 174.766C80.5419 174.646 78.2413 174.486 76.1627 174.305C75.8196 174.285 75.4967 174.245 75.1738 174.225C75.0326 174.225 74.8913 174.205 74.75 174.185C74.4271 174.145 74.1042 174.125 73.7813 174.085C73.1557 174.025 72.5503 173.945 71.9852 173.885C71.7027 173.865 71.4404 173.824 71.178 173.784C71.0771 173.764 70.9762 173.764 70.8753 173.744C70.4515 173.684 70.0479 173.624 69.6645 173.564C69.6039 173.564 69.5434 173.544 69.4828 173.544C69.0994 173.484 68.7361 173.404 68.3931 173.344C68.1912 173.304 68.0096 173.263 67.8482 173.223C67.6867 173.183 67.5253 173.143 67.3638 173.103C67.2024 173.063 67.0611 173.023 66.9401 172.983C66.6575 172.903 66.4355 172.823 66.2539 172.723C65.8705 172.562 65.6687 172.362 65.6687 172.182C65.6687 172.182 59.4732 171.44 58.8677 142.932C58.4641 123.94 57.7982 110.397 57.9193 102.264C57.9798 98.1967 58.2421 95.4721 58.8677 94.1299C59.4933 92.7275 61.0271 89.5822 64.6394 85.916C64.5184 75.238 64.5184 63.8988 64.7202 52.1791C64.7202 52.1791 66.0319 52.5797 67.8684 53.0004C68.3123 52.4996 68.837 51.9587 69.4626 51.3977C71.0368 49.9553 73.4585 48.7533 76.082 47.7716C81.9142 45.5879 88.6142 44.5862 88.6142 44.5862L89.0986 46.249C86.7576 46.4494 84.0937 47.1305 81.4702 48.032C76.9295 49.5947 72.5503 51.7984 70.2295 53.4813C72.1669 53.8218 74.2859 54.0222 75.8801 53.8018C75.8801 53.8018 75.8801 55.6449 75.9003 58.8703C81.7528 56.1858 88.5133 54.8836 88.5133 54.8836C88.9976 55.6449 88.4124 57.1274 88.4124 57.1274C83.6497 57.5882 79.2302 59.6116 75.9003 61.5949C75.9205 65.0007 75.9609 69.348 76.0214 74.3765C77.2121 70.53 85.0826 69.0475 86.2934 70.53C86.697 71.0309 86.9796 71.9324 87.0603 72.9942C88.4528 72.5134 89.9058 72.0526 91.4395 71.6319C92.1055 71.4316 92.8118 71.2512 93.5181 71.0509C93.6998 70.9908 93.9016 70.9507 94.1034 70.8906C94.3859 70.8105 94.6886 70.7504 94.9711 70.6703C96.9489 70.1694 99.0477 69.7086 101.247 69.2679C101.57 69.2078 101.893 69.1277 102.216 69.0876C102.902 68.9474 103.609 68.8272 104.315 68.707C104.981 68.5868 105.647 68.4665 106.333 68.3664C105.344 65.6418 105.384 63.0374 105.97 60.3528C107.08 55.2242 114.244 56.4062 115.798 58.9104C117.352 61.3946 114.688 64.8204 114.688 64.8204L112.69 64.3796C112.69 64.3796 114.244 61.8153 113.901 60.6133C113.558 59.4113 111.842 58.2293 109.501 59.3311C107.544 60.2727 107.544 64.3797 108.835 68.0058C110.732 67.7253 112.65 67.4849 114.708 67.2645C114.708 67.2645 117.432 64.6 121.267 61.635C120.762 56.6466 119.894 51.4779 118.401 48.0721C118.24 47.7115 118.078 47.3509 117.897 47.0103C117.897 47.0103 120.016 46.0687 120.399 47.0103C120.459 47.1706 120.621 47.5112 120.843 47.9519C121.751 49.795 123.628 53.902 124.153 59.5114C128.169 56.7067 132.83 54.1424 136.766 53.8018C136.766 53.8018 138.582 58.0289 138.784 99.1784C138.905 140.268 140.862 166.212 134.243 172.142Z" fill="url(#paint2_linear_2003_14266)"/>
<path d="M142.861 34.6695L142.881 34.6294C142.316 34.389 141.489 34.1686 140.419 33.9482C139.248 34.409 132.67 37.0535 132.145 40.339C133.174 40.4592 134.203 40.5594 135.273 40.6796C135.454 37.8548 142.861 34.6695 142.861 34.6695Z" fill="white"/>
<path d="M136.685 53.7417C132.75 54.0823 128.088 56.6666 124.072 59.4513C124.132 60.0724 124.193 60.7135 124.213 61.3746C124.213 61.3746 129.985 59.5916 130.853 62.8571C131.72 66.1026 126.615 73.9759 128.169 76.2597C129.722 78.5235 126.352 77.5018 126.009 76.0393C125.666 74.5969 126.514 69.889 127.644 67.9056C128.754 65.9423 129.561 61.6551 124.597 64.2194C124.597 64.2194 124.899 73.6353 124.375 76.0393C124.052 77.5619 123.103 77.2414 122.478 76.8006C122.135 76.5402 121.852 76.2597 121.852 76.2597C121.852 76.2597 121.933 69.1277 121.186 61.5749C117.352 64.5399 114.627 67.2044 114.627 67.2044C113.618 69.0876 112.528 70.8906 111.378 72.6336C112.589 74.3164 114.062 76.0994 115.414 77.8224C115.979 77.3816 116.423 77.1612 116.423 77.1612C117.856 76.0794 119.572 75.9191 120.661 77.041C120.984 77.3616 121.247 77.7623 121.428 78.2831C122.316 80.6471 125.686 92.2267 124.193 92.5873C123.426 92.7676 121.953 91.9462 120.197 90.5038C119.935 92.6073 119.087 94.8311 117.11 96.9747C116.121 98.0565 114.89 98.7978 113.618 99.2986C116.343 99.6392 118.704 100.941 118.704 100.941C120.883 102.204 123.366 104.387 124.657 106.932C124.94 105.609 126.11 104.628 127.523 104.628C129.137 104.628 130.449 105.93 130.449 107.533C130.449 109.135 129.137 110.457 127.523 110.457C126.736 110.457 126.029 110.137 125.505 109.656C125.727 111.619 125.061 113.663 122.962 115.626C116.948 121.196 107.181 130.591 105.162 129.089C103.165 127.586 103.669 115.646 105.788 105.329C106.313 102.785 107.362 101.222 108.654 100.32C105.506 100.481 102.902 99.8996 102.902 99.8996L103.144 98.9781L103.407 97.9163C103.407 97.9163 107.988 99.7995 114.647 95.5323C117.251 93.8494 118.159 91.2851 117.977 88.4603C116.867 87.3384 115.737 86.0563 114.647 84.6739C112.771 82.2699 113.275 80.3867 114.203 79.1045C113.316 77.8224 112.306 76.6404 111.257 75.5986C110.874 75.218 110.531 74.8573 110.188 74.4967C108.856 76.4 107.463 78.223 106.01 79.9459C103.77 82.6305 101.409 85.1147 98.967 87.3985C101.126 87.5588 103.245 86.7775 103.911 85.9561C105.162 84.4135 107.544 85.5955 105.465 88.4803C104.053 90.4437 100.218 90.5038 96.8883 89.2617C95.395 90.5839 93.8814 91.846 92.3679 93.0481C95.2941 95.4321 98.5634 96.6942 100.46 97.3153C100.46 97.3153 100.602 97.776 100.46 98.317C100.38 98.6375 100.198 98.958 99.8549 99.2586C99.8549 99.2586 95.0116 98.4772 90.2691 94.6708C85.4661 98.2368 80.6832 101.062 76.425 103.165C76.4654 104.808 76.4856 106.451 76.5259 108.093C76.9901 108.274 77.313 108.715 77.313 109.235C77.313 109.716 77.0103 110.157 76.5865 110.337C76.647 113.362 76.7278 116.367 76.8085 119.373C77.2121 118.992 77.4744 118.751 77.4744 118.751C82.0353 115.606 84.5781 114.985 86.7576 116.227C86.576 114.324 86.3338 112.601 86.132 111.459L87.0805 111.299C87.1814 111.88 87.5446 114.164 87.807 116.948C88.594 117.63 89.4013 118.571 90.2489 119.753C93.7603 124.481 97.1507 141.149 94.2648 143.253C93.7603 143.633 92.9733 143.654 91.9844 143.413C93.4173 145.136 94.5877 146.779 94.5877 146.779C95.6977 143.293 97.6149 152.869 97.6149 152.869C98.967 153.811 102.801 154.051 102.801 154.051C102.801 154.051 104.234 155.313 102.317 155.433C100.4 155.554 96.2628 153.57 96.2628 153.57C94.4263 154.071 92.8724 154.472 91.5404 154.752C91.601 155.574 91.6615 156.355 91.7221 157.116C92.9531 156.796 94.2245 156.916 94.2245 156.916C94.3657 158.258 92.6907 158.438 91.8431 158.619C92.1055 161.944 92.3275 164.308 92.4284 165.01C92.4284 165.01 89.2802 165.15 87.5245 165.09C86.3943 166.833 85.123 165.711 85.123 165.711C82.1766 170.419 82.782 166.632 82.8425 166.292C79.5733 171.14 79.1898 167.955 79.1898 167.955C72.8732 171.781 77.0708 166.532 77.0708 166.532C76.7479 166.332 76.6874 166.051 76.7479 165.771C74.6491 166.212 71.5413 166.652 68.0298 166.432C68.0298 166.432 65.931 141.83 64.9825 106.03C60.1795 105.569 58.0807 102.584 57.8789 102.284C57.7376 110.397 58.4238 123.96 58.8274 142.952C59.4328 171.46 65.6283 172.202 65.6283 172.202C65.6283 172.382 65.8301 172.582 66.2136 172.743C69.16 174.125 83.1452 175.187 99.9357 175.187C116.746 175.187 130.711 174.125 133.658 172.743C134.041 172.582 134.243 172.382 134.243 172.202C140.862 166.272 138.905 140.348 138.703 99.1784C138.501 57.9688 136.685 53.7417 136.685 53.7417ZM111.297 85.5955C112.428 85.5955 113.356 86.517 113.356 87.6389C113.356 88.7809 112.428 89.6824 111.297 89.6824C110.167 89.6824 109.239 88.7608 109.239 87.6389C109.239 86.517 110.167 85.5955 111.297 85.5955ZM86.0109 108.154C85.7082 108.154 85.466 107.913 85.466 107.613C85.466 107.312 85.7082 107.072 86.0109 107.072C86.3136 107.072 86.5356 107.312 86.5356 107.613C86.5356 107.913 86.2934 108.154 86.0109 108.154ZM94.8501 114.785C94.507 117.309 93.6998 118.591 92.4688 118.651C92.4486 118.651 92.4486 118.651 92.4284 118.651C92.0046 118.651 91.601 118.491 91.2781 118.15C89.7444 116.648 89.8049 111.86 89.8251 111.319L90.7736 111.339C90.7332 112.701 90.8946 116.448 91.944 117.489C92.1055 117.65 92.2468 117.71 92.4486 117.71C93.1145 117.69 93.6595 116.588 93.9016 114.685C94.1236 113.042 94.0832 111.379 94.0832 111.359L95.0317 111.319C95.0317 111.399 95.0721 113.062 94.8501 114.785ZM100.46 107.933C100.743 107.933 100.945 108.154 100.945 108.414C100.945 108.694 100.723 108.915 100.46 108.915C100.178 108.915 99.9559 108.694 99.9559 108.414C99.9559 108.154 100.178 107.933 100.46 107.933ZM100.985 118.471H100.037V110.898H100.985V118.471ZM99.3706 169.157C98.967 169.517 98.4423 169.738 97.857 169.738C97.2718 169.738 96.7673 169.537 96.3637 169.177C95.8591 168.756 95.5362 168.135 95.5362 167.434C95.5362 166.172 96.5856 165.13 97.857 165.13C99.1284 165.13 100.178 166.151 100.178 167.434C100.178 168.115 99.8549 168.736 99.3706 169.157ZM130.388 97.6759C129.5 97.6759 128.774 96.9547 128.774 96.0932C128.774 95.2117 129.5 94.4905 130.388 94.4905C131.276 94.4905 131.983 95.2117 131.983 96.0932C132.003 96.9547 131.276 97.6759 130.388 97.6759ZM127.886 136.281C137.734 144.174 130.994 150.806 130.994 150.806C130.53 151.346 130.086 151.847 129.642 152.348C131.075 153.31 132.023 154.933 132.023 156.776C132.023 159.721 129.622 162.105 126.655 162.105C124.758 162.105 123.123 161.143 122.155 159.681C113.982 166.392 109.501 165.39 108.069 163.888C106.716 162.465 105.869 155.233 107.786 146.859C105.647 146.819 103.931 145.096 103.931 142.952C103.931 140.789 105.687 139.046 107.867 139.046C108.674 139.046 109.441 139.286 110.066 139.707C110.45 138.765 110.874 137.824 111.338 136.882C116.988 125.663 125.646 134.258 126.655 135.319C125.868 134.378 120.016 127.506 121.67 127.106C123.426 126.665 125.626 131.012 126.736 135.339C126.554 134.438 124.98 126.865 127.099 127.526C129.339 128.207 126.756 135.42 126.756 135.42C126.998 135.6 127.24 135.76 127.462 135.94C131.942 131.132 132.931 131.894 134.425 132.855C135.918 133.817 127.462 135.94 127.462 135.94C127.603 136.061 127.745 136.161 127.866 136.261C131.175 135.82 134.061 136.101 134.667 137.984C135.212 139.767 128.532 136.602 127.886 136.281Z" fill="url(#paint3_linear_2003_14266)"/>
<path d="M127.825 136.261L127.846 136.281C127.846 136.281 127.846 136.281 127.866 136.281C128.512 136.601 135.191 139.766 134.626 137.963C134.021 136.08 131.135 135.82 127.825 136.261Z" fill="#127E16"/>
<path d="M134.384 132.855C132.891 131.893 131.902 131.132 127.422 135.939C127.422 135.939 135.878 133.816 134.384 132.855Z" fill="#127E16"/>
<path d="M135.252 33.1472C134.465 33.047 133.597 32.9669 132.709 32.8667C132.709 32.8667 126.736 35.0504 125.384 39.6582C126.231 39.7383 127.099 39.8184 127.967 39.8986C128.27 36.3726 135.05 33.2473 135.252 33.1472Z" fill="white"/>
<path d="M127.826 136.262C127.705 136.161 127.564 136.061 127.423 135.941C127.201 135.781 126.958 135.601 126.716 135.42C126.716 135.42 126.696 135.38 126.615 135.32C125.606 134.258 116.949 125.664 111.298 136.883C110.834 137.824 110.41 138.766 110.027 139.707C111.076 140.409 111.782 141.591 111.782 142.953C111.782 145.117 110.027 146.86 107.847 146.86C107.827 146.86 107.807 146.86 107.787 146.86C105.89 155.254 106.717 162.466 108.069 163.888C109.502 165.411 113.982 166.413 122.155 159.681C121.611 158.84 121.288 157.858 121.288 156.796C121.288 153.851 123.689 151.467 126.656 151.467C127.766 151.467 128.795 151.808 129.642 152.369C130.086 151.868 130.551 151.367 130.995 150.826C130.995 150.826 137.755 144.195 127.887 136.302H127.867C127.826 136.262 127.826 136.262 127.826 136.262Z" fill="#EE2831"/>
<path d="M127.079 127.526C124.96 126.865 126.514 134.438 126.716 135.339C125.606 130.992 123.406 126.665 121.65 127.105C120.016 127.506 125.848 134.398 126.635 135.319C126.696 135.379 126.736 135.419 126.736 135.419C126.736 135.419 129.319 128.207 127.079 127.526Z" fill="#127E16"/>
<path d="M105.788 105.288C103.669 115.606 103.164 127.546 105.162 129.049C107.18 130.531 116.948 121.155 122.962 115.586C125.061 113.643 125.727 111.579 125.505 109.616C124.939 109.075 124.596 108.334 124.596 107.512C124.596 107.312 124.617 107.112 124.657 106.911C123.365 104.387 120.883 102.203 118.704 100.921C118.704 100.921 116.342 99.6189 113.618 99.2783C112.004 99.9194 110.248 100.2 108.654 100.28C107.362 101.182 106.313 102.724 105.788 105.288ZM111.661 112.661C112.407 111.359 113.658 110.437 114.647 110.437C116.221 110.437 117.291 111.599 117.291 113.362C117.291 113.763 117.13 114.123 116.807 114.384C115.757 115.265 113.053 115.005 111.963 114.845C111.923 115.486 112.044 116.227 112.508 116.988C112.851 117.569 113.275 117.87 113.82 117.95C115.293 118.19 117.069 116.668 117.089 116.648L117.715 117.349C117.634 117.429 115.898 118.911 114.123 118.911C113.961 118.911 113.82 118.911 113.658 118.871C112.831 118.731 112.165 118.27 111.681 117.449C110.773 115.966 110.773 114.204 111.661 112.661ZM108.896 111.359C108.633 111.359 106.292 111.559 106.353 114.043C106.393 115.446 106.696 116.387 107.261 116.868C107.685 117.209 108.29 117.329 109.098 117.209L109.259 118.15C108.997 118.19 108.754 118.21 108.512 118.21C107.766 118.21 107.14 118.01 106.656 117.589C105.869 116.928 105.445 115.786 105.404 114.083C105.344 111.339 107.624 110.497 108.855 110.437L108.896 111.359Z" fill="#EE2831"/>
<path d="M126.917 32.4059C125.989 32.3458 125.04 32.2657 124.052 32.2256C123.749 32.4059 118.805 35.3308 117.816 39.0772C118.784 39.1373 119.773 39.2174 120.762 39.2975C121.428 36.1923 126.594 32.6263 126.917 32.4059Z" fill="white"/>
<path d="M120.218 90.4842C121.973 91.9466 123.467 92.768 124.213 92.5677C125.707 92.2071 122.337 80.6275 121.449 78.2635C121.267 77.7427 120.985 77.322 120.682 77.0215C119.572 75.9196 117.857 76.0598 116.444 77.1417C116.444 77.1417 115.98 77.3821 115.435 77.8028C117.029 79.8061 118.422 81.6693 118.987 83.0516C119.753 84.9749 120.561 87.6193 120.218 90.4842Z" fill="#EE2831"/>
<path d="M114.647 84.6339C115.737 86.0162 116.867 87.2984 117.977 88.4203C117.775 85.3551 116.262 81.9894 114.203 79.0645C113.275 80.3266 112.771 82.2298 114.647 84.6339Z" fill="#EE2831"/>
<path d="M119.269 31.9845C118.401 31.9444 117.513 31.9043 116.605 31.8643C116.322 32.0045 110.995 34.5688 109.239 38.5956C110.45 38.6357 111.661 38.6958 112.912 38.7759V38.5556C114.647 35.1899 119.006 32.1848 119.269 31.9845Z" fill="white"/>
<path d="M116.181 113.642C116.282 113.562 116.343 113.482 116.343 113.342C116.343 112.4 115.879 111.359 114.647 111.359C114.082 111.359 113.114 112.02 112.488 113.101C112.367 113.302 112.246 113.582 112.145 113.883C113.538 114.103 115.556 114.163 116.181 113.642Z" fill="#EE2831"/>
<path d="M111.258 31.8844V31.7242C110.37 31.7041 109.462 31.6841 108.554 31.6641V31.8043C108.554 31.8043 103.105 34.8094 101.571 38.3754C102.5 38.3954 103.428 38.4155 104.376 38.4355V38.2552C105.285 35.7109 111.258 31.8844 111.258 31.8844Z" fill="white"/>
<path d="M90.6525 142.912C90.9552 147.059 91.2781 151.166 91.5404 154.712C92.8723 154.432 94.4263 154.051 96.2627 153.53C96.2627 153.53 100.4 155.494 102.317 155.394C104.214 155.273 102.801 154.011 102.801 154.011C102.801 154.011 98.9871 153.771 97.6148 152.829C97.6148 152.829 95.6977 143.253 94.5877 146.739C94.5877 146.739 93.3971 145.096 91.9844 143.373C91.5203 142.812 91.0359 142.251 90.5516 141.73C90.5919 142.131 90.6121 142.532 90.6525 142.912Z" fill="#127E16"/>
<path d="M102.64 77.7215C103.75 76.2594 101.166 75.1378 98.5026 75.2179C95.8387 75.298 95.8186 77.7215 95.8186 77.7215C97.2313 78.9032 101.53 79.2037 102.64 77.7215Z" fill="#FFA2A7"/>
<path d="M102.559 31.604C101.772 31.604 100.965 31.604 100.158 31.604C100.158 31.604 94.9913 34.4087 93.4778 38.2552V38.3354C94.2043 38.3354 94.951 38.3354 95.6977 38.3354V38.1951C96.3838 35.8912 102.196 31.8644 102.559 31.604Z" fill="white"/>
<path d="M88.8969 118.912C88.8969 118.912 89.7041 130.271 90.5517 141.73C91.0361 142.251 91.5204 142.812 91.9846 143.373C92.9533 143.613 93.7403 143.593 94.265 143.213C97.1508 141.109 93.7605 124.441 90.249 119.713C89.3812 118.551 88.5942 117.609 87.8071 116.908C87.8677 117.629 87.9282 118.371 87.9686 119.112C88.2713 119.072 88.5942 119.012 88.8969 118.912Z" fill="#EE2831"/>
<path d="M94.2246 156.896C94.2246 156.896 92.9533 156.776 91.7222 157.096C91.7626 157.617 91.8029 158.118 91.8433 158.599C92.6909 158.398 94.3659 158.238 94.2246 156.896Z" fill="#127E16"/>
<path d="M94.4673 31.6245C93.4987 31.6245 92.53 31.6445 91.5613 31.6646C90.7944 32.1254 86.4152 34.89 85.0026 38.5562C85.8905 38.5162 86.8189 38.4961 87.7472 38.4561C89.6643 34.85 94.4673 31.6245 94.4673 31.6245Z" fill="white"/>
<path d="M82.9039 138.245C83.2672 137.724 84.0946 138.064 84.922 138.585C84.7404 135.5 84.5789 132.475 84.4376 129.73C84.3166 129.71 84.1955 129.69 84.0744 129.65L84.3569 128.749C84.3569 128.749 84.3771 128.749 84.3973 128.749C84.1753 124.221 84.0542 120.575 84.0744 118.912C84.0744 118.912 85.3861 119.293 87.0006 119.233C86.9401 118.191 86.8593 117.169 86.7584 116.187C84.5789 114.945 82.016 115.566 77.4753 118.712C77.4753 118.712 77.2129 118.932 76.8093 119.333C76.9506 124.301 77.112 129.189 77.2937 133.837C79.009 135.28 80.9464 136.822 82.9039 138.245Z" fill="#EE2831"/>
<path d="M86.1121 158.458C83.307 159.08 80.401 160.121 82.1365 161.644C82.1365 161.644 80.6835 162.385 79.2708 163.287C79.3516 163.888 79.4525 164.469 79.5534 164.969C79.5534 164.969 78.504 165.35 76.7684 165.711C76.6877 166.011 76.7684 166.272 77.0913 166.472C77.0913 166.472 72.9139 171.721 79.2103 167.894C79.2103 167.894 79.5937 171.08 82.863 166.232C82.8025 166.572 82.1971 170.359 85.1434 165.651C85.1434 165.651 86.4149 166.773 87.545 165.03C87.101 165.03 86.7579 165.01 86.5561 164.949C86.5359 164.99 86.3745 162.405 86.1121 158.458Z" fill="#127E16"/>
<path d="M86.1118 158.458C86.0512 157.497 85.9907 156.455 85.9302 155.353C83.569 155.193 84.2349 153.991 84.2349 153.991C78.3422 152.889 79.4521 150.585 79.4521 150.585C78.9274 150.385 78.4834 150.184 78.0596 149.984C78.4027 155.493 78.8063 160.081 79.2705 163.286C80.6831 162.365 82.1362 161.644 82.1362 161.644C80.4006 160.121 83.3066 159.079 86.1118 158.458Z" fill="#FF7C83"/>
<path d="M84.2353 154.011C84.2353 154.011 83.5693 155.213 85.9305 155.373C85.6278 150.825 85.3049 145.196 84.982 139.686C84.9618 139.326 84.9416 138.945 84.9214 138.584C84.094 138.044 83.2666 137.723 82.9033 138.244C82.7217 138.524 82.6612 139.025 82.8024 139.887C82.8024 139.887 77.616 134.217 77.9389 137.983C77.9389 137.983 77.7371 137.743 77.4142 137.362C77.5958 141.91 77.8178 146.177 78.06 150.004C78.4838 150.204 78.9277 150.404 79.4524 150.605C79.4524 150.605 78.3425 152.909 84.2353 154.011Z" fill="#127E16"/>
<path d="M78.8871 78.4437C78.8871 78.4437 85.3248 76.8009 85.0221 74.6373C84.9615 74.2767 84.7194 74.0162 84.3763 73.876C82.2977 74.6573 80.4007 75.4586 78.645 76.3001C78.766 77.0814 78.8871 77.9028 78.8871 78.4437Z" fill="#FFA2A7"/>
<path d="M121.873 76.2797C121.873 76.2797 122.135 76.5802 122.498 76.8206C123.124 77.2614 124.052 77.5819 124.395 76.0593C124.92 73.6553 124.617 64.2394 124.617 64.2394C129.582 61.6751 128.795 65.9623 127.665 67.9256C126.534 69.8889 125.667 74.5969 126.03 76.0593C126.373 77.5018 129.743 78.5435 128.189 76.2797C126.635 73.9959 131.721 66.1426 130.873 62.8771C130.006 59.6116 124.234 61.3946 124.234 61.3946C124.214 60.7335 124.173 60.0924 124.093 59.4713C123.568 53.8619 121.691 49.7549 120.783 47.9118C120.561 47.451 120.399 47.1305 120.339 46.9702C119.976 46.0287 117.836 46.9702 117.836 46.9702C118.018 47.2908 118.18 47.6514 118.341 48.032C119.855 51.4578 120.722 56.6265 121.207 61.5949C121.953 69.1277 121.873 76.2797 121.873 76.2797Z" fill="#C91818"/>
<path d="M111.257 75.5383C112.307 76.5801 113.316 77.7621 114.204 79.0442C116.262 81.9692 117.756 85.3549 117.978 88.4C118.159 91.2449 117.251 93.7891 114.648 95.472C107.988 99.7392 103.407 97.856 103.407 97.856L103.145 98.9178L102.903 99.8394C102.903 99.8394 105.506 100.42 108.654 100.26C110.248 100.18 112.004 99.9195 113.619 99.2584C114.91 98.7575 116.121 97.9962 117.11 96.9345C119.067 94.7908 119.935 92.5671 120.198 90.4635C120.541 87.5787 119.733 84.9342 118.967 83.051C118.401 81.6687 117.009 79.7855 115.415 77.8022C114.063 76.0792 112.589 74.2962 111.379 72.6134C110.672 71.6518 110.047 70.7102 109.623 69.8688C109.3 69.2477 109.017 68.6066 108.775 67.9255C107.484 64.2994 107.484 60.1924 109.441 59.2508C111.762 58.149 113.497 59.331 113.841 60.533C114.184 61.735 112.63 64.2994 112.63 64.2994L114.628 64.7401C114.628 64.7401 117.292 61.3143 115.738 58.8301C114.184 56.3459 106.999 55.1439 105.91 60.2726C105.324 62.9571 105.284 65.5615 106.273 68.2861C106.979 70.2294 108.21 72.2528 110.188 74.4164C110.531 74.7971 110.874 75.1777 111.257 75.5383Z" fill="#C91818"/>
<path d="M94.0432 84.0533C94.0432 84.0533 93.236 81.8496 94.5679 80.0866C94.7092 79.9063 103.044 81.9497 105.344 79.3253C105.647 78.9847 105.849 78.544 105.91 78.0231C106.434 73.5355 97.2318 71.3919 94.5679 74.7175C91.8839 78.0231 89.6237 83.1718 92.792 86.6377C93.8213 87.7596 95.3146 88.6611 96.9089 89.2421C100.239 90.4842 104.073 90.404 105.486 88.4607C107.564 85.5558 105.183 84.3738 103.932 85.9365C103.266 86.7579 101.147 87.5191 98.9875 87.3789C97.03 87.2186 95.0321 86.3572 94.0432 84.0533ZM98.5032 75.2184C101.167 75.1382 103.75 76.2601 102.64 77.7226C101.53 79.1851 97.2318 78.9046 95.8192 77.7226C95.8192 77.7226 95.8393 75.2985 98.5032 75.2184Z" fill="#C91818"/>
<path d="M76.2232 77.5019C77.4543 83.512 78.2615 96.1534 78.2615 96.1534C80.4208 96.2335 81.107 95.0515 81.107 95.0515C81.3693 92.407 79.654 82.2499 79.654 82.2499C81.551 82.0896 80.7639 82.931 86.2733 90.4437C87.5245 92.1466 88.8968 93.5089 90.2691 94.6308C95.0116 98.4372 99.855 99.2185 99.855 99.2185C100.198 98.918 100.38 98.5975 100.46 98.277C100.622 97.736 100.46 97.2753 100.46 97.2753C98.5634 96.6542 95.2941 95.4121 92.3679 93.0081C90.7736 91.7059 89.26 90.043 88.1501 87.9595C85.0221 82.0696 81.9546 80.1063 81.9546 80.1063C86.0311 78.9643 87.1814 75.4785 86.9998 72.9342C86.9392 71.8724 86.6567 70.9708 86.2329 70.47C85.0221 68.9875 77.1515 70.47 75.9609 74.3165C75.9609 75.0377 75.9609 75.7589 75.9811 76.5002C76.082 76.8007 76.1425 77.1413 76.2232 77.5019ZM84.3561 73.8758C84.6992 74.016 84.9615 74.2564 85.0019 74.637C85.3248 76.8007 78.8669 78.4435 78.8669 78.4435C78.8669 77.9226 78.7458 77.0812 78.6046 76.3199C78.4431 75.4184 78.2817 74.637 78.2817 74.637C78.2817 74.637 82.6609 73.1545 84.3561 73.8758Z" fill="#C91818"/>
<path d="M66.2144 62.6975C66.8602 65.7026 69.1608 75.1185 69.8671 81.4292C70.0891 83.3724 70.1497 85.0352 69.968 86.1171C69.2213 90.7048 73.4593 87.7999 72.8942 83.7731C72.7732 82.8515 72.5512 81.4292 72.2888 79.7864C71.421 74.1168 70.0488 65.7026 70.0488 65.7026C70.0488 65.7026 72.309 63.6591 75.8406 61.5556C79.1705 59.5722 83.5901 57.5488 88.3527 57.0881C88.3527 57.0881 88.9178 55.5855 88.4536 54.8443C88.4536 54.8443 81.6729 56.1465 75.8406 58.831C73.2777 60.013 70.8762 61.4554 69.3222 63.1783C69.3222 63.1783 66.4969 56.9077 69.0397 54.3635C69.3222 54.083 69.7057 53.7825 70.1698 53.4419C72.4906 51.7591 76.8698 49.5553 81.4105 47.9927C84.034 47.0912 86.6979 46.41 89.0389 46.2097L88.5545 44.5469C88.5545 44.5469 81.8545 45.5686 76.0223 47.7323C73.4189 48.6939 70.9771 49.9159 69.403 51.3584C68.7773 51.9193 68.2728 52.4602 67.8087 52.9611C64.5596 56.7274 65.4677 59.2317 66.2144 62.6975Z" fill="#C91818"/>
<path d="M85.5673 31.8042C84.7802 31.8242 83.9932 31.8443 83.2465 31.8843C83.2465 31.8843 83.2465 31.8843 83.2263 31.8843C82.9034 32.0847 77.7371 35.2701 76.4052 39.0564C77.1317 38.9963 77.8582 38.9362 78.6251 38.8962C79.2507 36.5121 85.5673 31.8042 85.5673 31.8042Z" fill="white"/>
<path d="M84.3567 73.8755C82.6615 73.1545 78.3024 74.6366 78.3024 74.6366C78.3024 74.6366 78.4639 75.4178 78.6253 76.3191C80.381 75.4779 82.278 74.6567 84.3567 73.8755Z" fill="#92CFFE"/>
<path d="M82.8015 139.867C82.6401 139.026 82.7006 138.505 82.9024 138.224C80.9651 136.802 79.0075 135.259 77.272 133.817C77.3123 135.019 77.3729 136.181 77.4133 137.363C77.7361 137.723 77.9379 137.984 77.9379 137.984C77.6151 134.198 82.8015 139.867 82.8015 139.867Z" fill="#FF7C83"/>
<path d="M77.4954 32.145C76.5268 32.1851 75.5782 32.2452 74.6298 32.3053C74.6298 32.3053 69.3827 35.8312 67.9701 39.9181C68.8177 39.7979 69.7057 39.6978 70.6541 39.5976C72.309 35.9915 77.1927 32.3654 77.4954 32.145Z" fill="white"/>
<path d="M67.6868 32.8262C66.7383 32.9063 65.8302 33.0065 64.9826 33.1067C60.1796 35.3104 58.3027 41.4808 58.3027 41.4808C58.3027 41.4808 58.9687 41.3205 60.2603 41.0801C61.9555 36.7328 67.6868 32.8262 67.6868 32.8262Z" fill="white"/>
<path fill-rule="evenodd" clip-rule="evenodd" d="M114.648 67.2046C113.639 69.0878 112.549 70.8908 111.399 72.6338C110.672 71.6721 110.067 70.7305 109.623 69.8891C109.3 69.2881 109.018 68.627 108.775 67.9458C110.672 67.6854 112.61 67.425 114.648 67.2046ZM88.1705 87.9594C85.0425 82.0694 81.975 80.1061 81.975 80.1061C86.0313 78.9642 87.1816 75.4783 87.0202 72.8939C92.3681 71.0909 98.725 69.4882 106.273 68.2861C106.999 70.2494 108.23 72.2528 110.188 74.4165C108.856 76.3197 107.463 78.1227 106.01 79.8657C103.77 82.5302 101.409 85.0144 98.9672 87.3183C97.0299 87.178 95.0522 86.3166 94.0431 84.0327C94.0431 84.0327 93.2359 81.829 94.5678 80.066C94.597 80.0288 94.976 80.0865 95.5794 80.1783L95.5794 80.1783L95.5794 80.1783C97.896 80.5309 103.519 81.3868 105.344 79.3047C105.647 78.9642 105.849 78.5234 105.909 78.0025C106.434 73.515 97.2316 71.3914 94.5678 74.697C91.9039 78.0226 89.6235 83.1512 92.7919 86.6171C93.8211 87.739 95.3145 88.6405 96.9088 89.2215C95.4154 90.5637 93.9019 91.8259 92.3883 93.0079C90.7738 91.7057 89.2804 90.0429 88.1705 87.9594ZM86.2537 90.4428C84.1005 87.4959 82.91 85.5755 82.1436 84.3393C80.9563 82.4242 80.7873 82.1516 79.6344 82.249C79.6344 82.249 81.3498 92.4062 81.0875 95.0506C81.0875 95.0506 80.4013 96.2526 78.242 96.1525C78.242 96.1525 77.4347 83.5312 76.2037 77.501C76.1734 77.521 76.1381 77.541 76.1028 77.5611C76.0675 77.5811 76.0322 77.6012 76.0019 77.6212C76.0826 85.214 76.2037 94.0289 76.3853 103.104C80.6637 101.001 85.4263 98.1759 90.2293 94.6099C88.8772 93.488 87.5049 92.1257 86.2537 90.4428ZM64.6194 85.8756C64.7001 92.8875 64.8414 99.5988 65.0028 105.97C60.1998 105.529 58.0808 102.544 57.8992 102.223C57.9799 98.1564 58.2423 95.4318 58.8477 94.0895C59.4733 92.6871 60.9868 89.5619 64.6194 85.8756Z" fill="#FCA7AB"/>
<path d="M143.87 20.7664V35.4111C143.87 35.4111 143.405 39.9988 141.63 41.4813C139.47 41.2009 137.331 40.9404 135.252 40.7C135.454 37.8752 142.84 34.6698 142.84 34.6698L142.86 34.6298C142.295 34.3894 141.468 34.169 140.398 33.9486C139.228 34.4094 132.649 37.0539 132.124 40.3394C130.712 40.1791 129.319 40.0389 127.947 39.9187C128.27 36.3727 135.03 33.2675 135.252 33.1473C134.465 33.0471 133.598 32.967 132.71 32.8668C132.71 32.8668 126.736 35.0505 125.384 39.6583C123.81 39.518 122.276 39.3978 120.783 39.2776C121.449 36.1724 126.635 32.6264 126.958 32.406C126.03 32.3459 125.081 32.2658 124.092 32.2257C123.79 32.406 118.845 35.331 117.857 39.0773C116.182 38.9571 114.547 38.8569 112.953 38.7768V38.5564C114.668 35.1907 119.027 32.1656 119.31 31.9853C118.442 31.9452 117.554 31.9052 116.646 31.8651C116.363 32.0053 111.035 34.5697 109.28 38.5965C107.625 38.5163 105.99 38.4562 104.416 38.4362V38.2559C105.324 35.7116 111.298 31.8851 111.298 31.8851V31.7249C110.41 31.7048 109.502 31.6848 108.594 31.6648V31.805C108.594 31.805 103.145 34.8101 101.611 38.3761C100.34 38.3561 99.1085 38.3561 97.8977 38.336C97.1712 38.336 96.4447 38.336 95.7384 38.336V38.1958C95.7585 38.0956 95.8191 37.9955 95.8595 37.8752C95.92 37.755 95.9806 37.6348 96.0613 37.4946C96.1218 37.3944 96.1824 37.3143 96.2631 37.1941C96.3236 37.0939 96.4245 36.9737 96.5052 36.8736C96.808 36.5129 97.1309 36.1323 97.5345 35.7517C97.6354 35.6515 97.7363 35.5513 97.8573 35.4311C97.8775 35.4111 97.8977 35.3911 97.9179 35.371C97.9986 35.3109 98.0592 35.2308 98.1399 35.1707C98.2408 35.0705 98.3215 34.9904 98.4224 34.9102C98.5233 34.8301 98.6242 34.7299 98.7251 34.6498C98.9269 34.4895 99.1287 34.3092 99.3306 34.149C99.6333 33.8885 99.936 33.6681 100.218 33.4277C100.36 33.3276 100.461 33.2274 100.582 33.1272C100.743 33.007 100.884 32.9069 101.026 32.7867C101.429 32.4661 101.793 32.2057 102.075 32.0053C102.075 32.0053 102.095 31.9853 102.116 31.9853C102.257 31.8851 102.378 31.805 102.459 31.7449C102.499 31.7249 102.539 31.6848 102.58 31.6648C102.62 31.6447 102.64 31.6247 102.66 31.6047C101.873 31.6047 101.066 31.6047 100.259 31.6047C100.259 31.6047 100.057 31.7048 99.7342 31.9052C99.6938 31.9252 99.6333 31.9653 99.5929 32.0053C99.5324 32.0254 99.4718 32.0654 99.4315 32.1055C99.0278 32.3659 98.5233 32.7065 97.9582 33.1272C96.364 34.3293 94.4266 36.1323 93.579 38.2759V38.3561C91.6013 38.3761 89.6841 38.4162 87.8679 38.4763C89.7649 34.8702 94.5881 31.6648 94.5881 31.6648C93.6194 31.6648 92.6507 31.6848 91.6821 31.7048C90.9152 32.1656 86.5359 34.9303 85.1233 38.5965C82.863 38.6966 80.7239 38.8168 78.7462 38.937C79.3718 36.553 85.6883 31.8451 85.6883 31.8451C84.9013 31.8651 84.1142 31.8851 83.3676 31.9252C83.3676 31.9252 83.3676 31.9252 83.3474 31.9252C83.0245 32.1255 77.8582 35.3109 76.5263 39.0973C74.4275 39.2576 72.5103 39.4379 70.7747 39.6182C72.4296 36.0121 77.3133 32.386 77.616 32.1656C76.6474 32.2057 75.6988 32.2658 74.7503 32.3259C74.7503 32.3259 69.5033 35.8518 68.0907 39.9387C64.5792 40.3594 61.9961 40.8002 60.4018 41.1007C62.0768 36.7533 67.8082 32.8468 67.8082 32.8468C66.8597 32.9269 65.9515 33.0271 65.1039 33.1272C60.3009 35.3309 58.4241 41.5014 58.4241 41.5014C56.6482 40.0189 56.2042 35.4311 56.2042 35.4311V20.7864C56.2042 18.7429 74.7302 17.0801 97.9785 17C98.6646 17 99.3709 17 100.057 17C124.274 17 143.91 18.7029 143.91 20.8064H143.87V20.7664Z" fill="url(#paint4_linear_2003_14266)"/>
<path opacity="0.1" d="M143.87 175.127C142.154 178.052 135.253 179.955 135.253 179.955H135.172C135.172 181.658 119.391 183.02 99.9161 183.02C99.2098 183.02 98.5237 183.02 97.8375 183.02V16.98C98.5237 16.98 99.23 16.98 99.9161 16.98C124.133 16.98 143.769 18.6829 143.769 20.7864H143.87V35.4311C143.87 35.4311 143.406 40.0189 141.63 41.5014C141.63 41.5014 143.164 42.2827 143.87 44.5666C144.576 46.8304 150.509 164.409 143.87 175.127Z" fill="#1FFFD7"/>
<path opacity="0.35" d="M143.869 175.126C142.154 178.051 135.252 179.955 135.252 179.955H135.171C135.171 181.658 119.39 183.02 99.9155 183.02C99.2092 183.02 98.5231 183.02 97.8369 183.02C79.3513 182.94 64.6799 181.597 64.6799 179.975C64.6799 179.975 58.4844 178.272 56.3856 175.587C56.2645 175.447 56.1636 175.287 56.0627 175.146C49.403 164.428 55.3563 46.8699 56.0627 44.5661C56.0627 44.4859 56.0829 44.4058 56.1434 44.3457C56.8699 42.2421 58.2826 41.5009 58.2826 41.5009C56.5066 40.0184 56.0627 35.4306 56.0627 35.4306V20.7859C56.0627 18.7425 74.5887 17.0796 97.8369 16.9995C98.5231 16.9995 99.2294 16.9995 99.9155 16.9995C124.132 16.9995 143.768 18.7024 143.768 20.8059H143.869V35.4507C143.869 35.4507 143.405 40.0384 141.629 41.5209C141.629 41.5209 143.163 42.3022 143.869 44.5861C144.576 46.8299 150.509 164.408 143.869 175.126Z" fill="url(#paint5_linear_2003_14266)"/>
<defs>
<linearGradient id="paint0_linear_2003_14266" x1="72.0454" y1="52.0986" x2="72.0454" y2="166.462" gradientUnits="userSpaceOnUse">
<stop stop-color="#FFEDED"/>
<stop offset="1" stop-color="#FFD9D9"/>
</linearGradient>
<linearGradient id="paint1_linear_2003_14266" x1="88.1841" y1="118.913" x2="88.1841" y2="165.177" gradientUnits="userSpaceOnUse">
<stop stop-color="#FFEDED"/>
<stop offset="1" stop-color="#FFD9D9"/>
</linearGradient>
<linearGradient id="paint2_linear_2003_14266" x1="55.6141" y1="85.1579" x2="145.048" y2="85.1579" gradientUnits="userSpaceOnUse">
<stop stop-color="#6CBFFF"/>
<stop offset="0.2" stop-color="#92CFFE"/>
<stop offset="0.54" stop-color="#3DAAFF"/>
<stop offset="0.875" stop-color="#1882D3"/>
<stop offset="1" stop-color="#0568B4"/>
</linearGradient>
<linearGradient id="paint3_linear_2003_14266" x1="57.9426" y1="121.005" x2="138.995" y2="121.005" gradientUnits="userSpaceOnUse">
<stop stop-color="#FF787F"/>
<stop offset="0.165" stop-color="#FFBEC2"/>
<stop offset="0.505" stop-color="#FF6A72"/>
<stop offset="0.835" stop-color="#FF6F76"/>
<stop offset="1" stop-color="#F9434D"/>
</linearGradient>
<linearGradient id="paint4_linear_2003_14266" x1="99.9698" y1="16.98" x2="99.9698" y2="38.4852" gradientUnits="userSpaceOnUse">
<stop stop-color="#9ACFFF"/>
<stop offset="0.17" stop-color="#CBE6FF"/>
<stop offset="0.84" stop-color="#3C8ED9"/>
<stop offset="1" stop-color="#4F99DC"/>
</linearGradient>
<linearGradient id="paint5_linear_2003_14266" x1="99.9764" y1="16.9616" x2="99.9764" y2="183.013" gradientUnits="userSpaceOnUse">
<stop stop-color="white" stop-opacity="0"/>
<stop offset="1" stop-color="#FF0000"/>
</linearGradient>
</defs>
</svg>
