<svg width="200" height="200" viewBox="0 0 200 200" fill="none" xmlns="http://www.w3.org/2000/svg">
<path d="M172.42 54.0185C172.364 54.0185 172.29 54 172.234 54H172.197C172.03 54.0554 171.733 54.1108 171.362 54.1661C168.153 55.3661 165.667 63.1195 165.667 72.5343C165.667 81.9492 168.153 89.7026 171.362 90.9025C171.752 90.9579 172.03 91.0133 172.197 91.0687H172.234C172.29 91.0687 172.364 91.0687 172.42 91.0502C175.963 90.7733 178.801 82.5953 178.801 72.5343C178.801 62.4734 175.963 54.3138 172.42 54.0185Z" fill="url(#paint0_linear_7002_11791)"/>
<path d="M172.104 54.0185C172.067 54.0185 172.011 54 171.974 54H171.956C171.826 54.0554 171.622 54.1108 171.362 54.1661C167.967 54.8307 153.405 55.3292 135.948 55.3292C117.435 55.3292 102.186 54.7569 100.034 54.0369C100.924 56.3629 106.248 71.5559 99.9782 91.0318C101.908 90.2933 117.268 89.7211 135.93 89.7211C153.386 89.7211 167.93 90.2195 171.344 90.8841C171.622 90.9395 171.807 90.9948 171.937 91.0502H171.956C171.993 91.0502 172.049 91.0502 172.086 91.0318C174.609 90.7548 176.631 82.5769 176.631 72.5159C176.631 62.4549 174.627 54.3138 172.104 54.0185ZM97.2327 54.4246C91.9271 54.9599 78.8673 55.3476 63.5999 55.3476C47.7945 55.3476 34.3451 54.9415 29.4291 54.3692C35.217 55.2184 39.762 63.0456 39.762 72.5528C39.762 82.06 35.2355 89.8687 29.4477 90.7364C34.3637 90.1641 47.7945 89.758 63.6184 89.758C78.9044 89.758 91.9642 90.1457 97.2698 90.681C98.0118 87.2843 101.091 71.6298 97.2327 54.4246Z" fill="url(#paint1_linear_7002_11791)"/>
<path d="M100.034 54.055C99.8669 53.9996 98.8837 54.2581 97.2512 54.4242C101.091 71.6479 98.0118 87.2839 97.2512 90.6622C98.8837 90.8283 99.8484 91.1052 99.9782 91.0498C106.23 71.574 100.924 56.381 100.034 54.055Z" fill="url(#paint2_linear_7002_11791)"/>
<path fill-rule="evenodd" clip-rule="evenodd" d="M29.4313 54.3505C35.2367 55.2198 39.762 63.0278 39.762 72.5338C39.762 82.041 35.2355 89.8497 29.4291 90.7358C29.3735 90.7451 29.3178 90.7497 29.2622 90.7543C29.2065 90.7589 29.1509 90.7635 29.0952 90.7728L29.095 90.7728C28.8539 90.7912 28.6128 90.8097 28.3717 90.8097C28.0564 90.8097 27.7411 90.7728 27.4258 90.7359L27.4256 90.7358V90.7338C21.5909 89.9444 17 82.1051 17 72.5343C17 62.9634 21.5909 55.1242 27.4256 54.3531V54.3502C27.741 54.2948 28.0563 54.2764 28.3717 54.2764C28.6128 54.2764 28.854 54.2948 29.0951 54.3133L29.0952 54.3133C29.1222 54.3178 29.1493 54.3212 29.1764 54.324C29.1555 54.3207 29.1346 54.3172 29.1138 54.3138L29.1137 54.3137C29.1694 54.323 29.2251 54.3276 29.2807 54.3322C29.3364 54.3368 29.392 54.3414 29.4477 54.3507C29.4422 54.3507 29.4367 54.3506 29.4313 54.3505Z" fill="url(#paint3_radial_7002_11791)"/>
<g opacity="0.6" style="mix-blend-mode:soft-light">
<path d="M44.3069 62.5472C44.3069 63.1151 44.5337 63.6598 44.9372 64.0614C45.3408 64.463 45.8881 64.6886 46.4589 64.6886C47.0296 64.6886 47.5769 64.463 47.9805 64.0614C48.384 63.6598 48.6108 63.1151 48.6108 62.5472C48.6108 61.9792 48.384 61.4346 47.9805 61.033C47.5769 60.6314 47.0296 60.4058 46.4589 60.4058C45.8881 60.4058 45.3408 60.6314 44.9372 61.033C44.5337 61.4346 44.3069 61.9792 44.3069 62.5472Z" fill="#FFF3F7"/>
</g>
<g opacity="0.6" style="mix-blend-mode:soft-light">
<path d="M80.2215 64.6705H55.0293C53.8421 64.6705 52.8774 63.7106 52.8774 62.5291C52.8774 61.3476 53.8421 60.3877 55.0293 60.3877H80.2029C81.3902 60.3877 82.3548 61.3476 82.3548 62.5291C82.3548 63.7106 81.3902 64.6705 80.2215 64.6705Z" fill="#FFF3F7"/>
</g>
<path d="M170.212 72.4054C170.156 72.4239 170.082 72.4239 170.027 72.4423H170.008C169.86 72.5346 169.6 72.6639 169.247 72.8115C166.465 74.8053 166.131 82.9464 168.635 92.0105C171.14 101.075 175.592 107.905 179.005 108.219C179.395 108.163 179.673 108.145 179.858 108.163H179.896C179.951 108.145 180.007 108.126 180.081 108.108C183.42 106.908 183.977 98.2686 181.324 88.5768C178.616 78.885 173.7 71.7593 170.212 72.4054Z" fill="url(#paint4_linear_7002_11791)"/>
<path d="M169.897 72.4976C169.86 72.4976 169.804 72.5161 169.767 72.5161H169.748C169.637 72.6084 169.47 72.7007 169.21 72.8299C166.112 74.3621 152.199 78.6819 135.373 83.2601C117.527 88.1336 102.668 91.5858 100.405 91.4565C101.889 93.4503 111.035 106.723 110.163 127.141C111.814 125.922 126.487 121.326 144.5 116.415C161.326 111.837 175.499 108.477 178.968 108.237C179.246 108.219 179.45 108.219 179.58 108.237H179.599C179.636 108.219 179.692 108.2 179.729 108.182C182.085 107.24 181.881 98.8223 179.209 89.1305C176.538 79.4388 172.42 72.1099 169.897 72.4976ZM97.8078 92.5457C92.8361 94.4656 80.3514 98.2685 65.6034 102.274C50.3546 106.428 37.2762 109.566 32.3973 110.305C38.2037 109.603 44.6594 115.954 47.1824 125.128C49.7053 134.303 47.405 143.017 42.0623 145.38C46.6444 143.534 59.5002 139.602 74.749 135.448C89.4784 131.424 102.186 128.359 107.436 127.491C107.269 124.058 106.081 108.145 97.8078 92.5457Z" fill="url(#paint5_linear_7002_11791)"/>
<path d="M100.405 91.4746C100.219 91.4561 99.3475 91.973 97.8078 92.5638C106.082 108.163 107.269 124.057 107.436 127.509C109.05 127.251 110.051 127.251 110.163 127.159C111.035 106.723 101.889 93.4683 100.405 91.4746Z" fill="url(#paint6_linear_7002_11791)"/>
<path fill-rule="evenodd" clip-rule="evenodd" d="M32.3972 110.323C38.2036 109.64 44.6594 115.972 47.1823 125.147C49.7052 134.322 47.4049 143.035 42.0437 145.398C41.9723 145.422 41.9009 145.453 41.8345 145.482C41.7973 145.499 41.7616 145.514 41.7283 145.527L41.7279 145.528C41.5054 145.601 41.2829 145.675 41.0419 145.749C40.7326 145.84 40.441 145.895 40.1323 145.931L40.133 145.934C34.2709 146.728 27.7595 140.359 25.218 131.128C22.6792 121.908 25.0277 113.129 30.4513 110.847L30.4494 110.84C30.7462 110.711 31.043 110.6 31.3398 110.526C31.581 110.471 31.8221 110.416 32.0633 110.379L32.3972 110.323Z" fill="url(#paint7_radial_7002_11791)"/>
<g opacity="0.6" style="mix-blend-mode:soft-light">
<path d="M48.8334 113.738C48.8334 114.306 49.0602 114.851 49.4637 115.252C49.8673 115.654 50.4146 115.88 50.9853 115.88C51.5561 115.88 52.1034 115.654 52.507 115.252C52.9105 114.851 53.1372 114.306 53.1372 113.738C53.1372 113.17 52.9105 112.625 52.507 112.224C52.1034 111.822 51.5561 111.597 50.9853 111.597C50.4146 111.597 49.8673 111.822 49.4637 112.224C49.0602 112.625 48.8334 113.17 48.8334 113.738Z" fill="#FFF3F7"/>
</g>
<g opacity="0.6" style="mix-blend-mode:soft-light">
<path d="M84.1172 106.926L59.8341 113.554C58.6839 113.867 57.5152 113.203 57.1998 112.058C56.8845 110.914 57.5523 109.751 58.7025 109.437L82.9856 102.81C84.1358 102.496 85.3045 103.16 85.6198 104.305C85.9166 105.431 85.2488 106.612 84.1172 106.926Z" fill="#FFF3F7"/>
</g>
<defs>
<linearGradient id="paint0_linear_7002_11791" x1="172.234" y1="54" x2="172.234" y2="91.0687" gradientUnits="userSpaceOnUse">
<stop stop-color="#BA9588"/>
<stop offset="0.2" stop-color="#BEA197"/>
<stop offset="0.8" stop-color="#9A786C"/>
<stop offset="0.98" stop-color="#AC8376"/>
</linearGradient>
<linearGradient id="paint1_linear_7002_11791" x1="115.65" y1="55.1076" x2="115.18" y2="90.0793" gradientUnits="userSpaceOnUse">
<stop stop-color="#622D3F"/>
<stop offset="0.288535" stop-color="#6B2E43"/>
<stop offset="0.694986" stop-color="#410D1F"/>
<stop offset="1" stop-color="#562838"/>
</linearGradient>
<linearGradient id="paint2_linear_7002_11791" x1="100.116" y1="54.0474" x2="100.116" y2="91.057" gradientUnits="userSpaceOnUse">
<stop stop-color="#AA7B6B"/>
<stop offset="0.316591" stop-color="#B49489"/>
<stop offset="0.696405" stop-color="#7E5F55"/>
<stop offset="1" stop-color="#95756A"/>
</linearGradient>
<radialGradient id="paint3_radial_7002_11791" cx="0" cy="0" r="1" gradientUnits="userSpaceOnUse" gradientTransform="translate(28.381 72.543) rotate(90) scale(18.2667 11.381)">
<stop stop-color="#EFDBA9"/>
<stop offset="0.805" stop-color="#DBB965"/>
<stop offset="1" stop-color="#D8B96D"/>
</radialGradient>
<linearGradient id="paint4_linear_7002_11791" x1="174.971" y1="72.3647" x2="174.971" y2="108.219" gradientUnits="userSpaceOnUse">
<stop stop-color="#BA9588"/>
<stop offset="0.2" stop-color="#BEA197"/>
<stop offset="0.8" stop-color="#9A786C"/>
<stop offset="0.98" stop-color="#AC8376"/>
</linearGradient>
<linearGradient id="paint5_linear_7002_11791" x1="103.303" y1="91.4972" x2="114.402" y2="126.243" gradientUnits="userSpaceOnUse">
<stop stop-color="#5F3040"/>
<stop offset="0.288535" stop-color="#713348"/>
<stop offset="0.694986" stop-color="#481225"/>
<stop offset="1" stop-color="#5F3141"/>
</linearGradient>
<linearGradient id="paint6_linear_7002_11791" x1="98.0786" y1="91.4967" x2="110.319" y2="127.45" gradientUnits="userSpaceOnUse">
<stop stop-color="#AA7B6B"/>
<stop offset="0.292101" stop-color="#B99285"/>
<stop offset="0.75" stop-color="#6A4A3F"/>
<stop offset="1" stop-color="#836359"/>
</linearGradient>
<radialGradient id="paint7_radial_7002_11791" cx="0" cy="0" r="1" gradientUnits="userSpaceOnUse" gradientTransform="translate(36.2003 128.137) rotate(90) scale(17.8638 12.0057)">
<stop stop-color="#EFDBA9"/>
<stop offset="0.805" stop-color="#DBB965"/>
<stop offset="1" stop-color="#D8B96D"/>
</radialGradient>
</defs>
</svg>
