<svg width="200" height="200" viewBox="0 0 200 200" fill="none" xmlns="http://www.w3.org/2000/svg">
<g clip-path="url(#clip0_2003_15878)">
<path d="M164.755 57.3718C164.755 62.4482 135.727 66.4832 100 66.4832C64.2733 66.4832 35.2452 62.4482 35.2452 57.3718C35.2452 57.3718 -10.7267 144.451 95.2715 149.657H100.131H104.991C210.727 144.451 164.755 57.502 164.755 57.3718Z" fill="white"/>
<path d="M104.729 149.917H95.0088C62.5657 148.225 41.0246 138.723 31.0421 121.672C15.543 94.5982 34.7198 57.632 34.9825 57.2415C34.9825 57.1113 35.1139 57.1113 35.2452 57.1113C35.3766 57.1113 35.3766 57.2415 35.3766 57.3717C35.3766 61.667 61.2522 66.2227 99.8687 66.2227C138.485 66.2227 164.361 61.667 164.361 57.3717C164.361 57.2415 164.492 57.1113 164.492 57.1113C164.624 57.1113 164.755 57.1113 164.755 57.2415C165.018 57.632 169.746 66.8735 172.636 79.3692C175.263 90.9536 176.708 107.614 168.564 121.672C158.844 138.854 137.303 148.225 104.729 149.917C104.86 149.917 104.86 149.917 104.729 149.917ZM35.1139 58.0225C32.6183 62.9686 17.2505 96.5506 31.5675 121.412C41.4186 138.463 62.8284 147.835 95.1402 149.397H104.729C137.04 147.835 158.45 138.333 168.301 121.412C176.314 107.484 174.869 90.9536 172.373 79.4993C169.877 68.6958 165.937 60.3654 164.886 58.1526C162.259 63.6195 130.604 66.7434 100 66.7434C69.3958 66.7434 37.7409 63.4893 35.1139 58.0225Z" fill="#CFE5FA"/>
<path d="M104.729 148.616H95.1402C63.0912 147.054 41.8127 137.552 32.0929 120.761C24.0806 106.833 25.5255 90.3028 28.1525 78.8485C31.0421 66.483 35.7707 57.3717 35.902 57.2415C35.902 57.1113 36.0334 57.1113 36.1647 57.1113C36.2961 57.1113 36.2961 57.2415 36.2961 57.3717C36.2961 61.5369 61.909 66.0926 99.8688 66.0926C137.96 66.0926 163.441 61.5369 163.441 57.3717C163.441 57.2415 163.573 57.1113 163.573 57.1113C163.704 57.1113 163.835 57.1113 163.835 57.2415C163.967 57.632 183.144 93.5569 167.645 120.501C158.187 137.552 136.909 146.924 104.729 148.616ZM36.0334 58.0225C34.9826 60.2352 31.0421 68.4355 28.6778 78.9787C26.0509 90.3028 24.606 106.703 32.6183 120.501C42.3381 137.292 63.3539 146.533 95.2716 148.095H104.729C136.646 146.533 157.793 137.161 167.382 120.501C181.568 95.8998 166.331 63.0988 163.835 58.1526C161.209 63.4893 130.079 66.6132 99.8688 66.6132C69.7899 66.6132 38.6603 63.3591 36.0334 58.0225Z" fill="#CFE5FA"/>
<path d="M171.848 80.28C171.848 85.096 139.667 89.0009 100 89.0009C60.4642 89.0009 28.4151 85.096 28.1524 80.28C22.6358 106.052 26.0509 144.841 95.2715 148.225H100H104.729C173.949 144.841 177.364 106.052 171.848 80.28Z" fill="url(#paint0_linear_2003_15878)"/>
<path opacity="0.6" d="M156.48 122.192C147.023 127.659 137.566 129.481 126.795 127.659C119.965 126.487 113.266 124.535 106.305 124.145C99.7374 123.754 93.1699 124.405 86.7339 125.837C80.4291 127.268 74.2557 129.351 68.0824 131.043C62.9598 132.345 57.5745 133.256 52.4519 131.303C45.7531 128.83 40.2365 124.014 36.0333 118.157C31.9615 112.56 28.6778 106.052 26.3135 99.2834C27.4957 121.802 41.6813 145.621 95.1402 148.355H104.729C150.307 146.142 167.382 128.57 172.11 109.436C167.645 114.512 161.997 118.938 156.48 122.192Z" fill="#ED182A"/>
<g opacity="0.6">
<path d="M171.848 80.2797C171.848 80.1495 171.848 80.0194 171.716 79.759C171.716 80.0194 171.848 80.1495 171.848 80.2797Z" fill="white"/>
<path d="M171.848 80.5401C171.716 80.5401 171.585 80.4099 171.585 80.2798L171.454 79.7591C171.454 79.6289 171.454 79.4988 171.585 79.4988C171.716 79.4988 171.848 79.4988 171.848 79.6289C171.979 79.7591 171.979 80.0194 171.979 80.1496C172.11 80.4099 171.979 80.5401 171.848 80.5401Z" fill="#C78C5E"/>
</g>
<g opacity="0.6">
<path d="M28.0211 80.5401C27.8897 80.5401 27.7584 80.41 27.7584 80.2798V80.1496C27.7584 80.0195 27.7584 79.7591 27.8897 79.4988C27.8897 79.3687 28.0211 79.3687 28.1524 79.3687C28.2838 79.3687 28.4151 79.4988 28.2838 79.629L28.1524 80.1496C28.2838 80.5401 28.1524 80.5401 28.0211 80.5401Z" fill="#C78C5E"/>
</g>
<path opacity="0.6" d="M100 89.0012C139.667 89.0012 171.848 85.0963 171.848 80.2803C171.848 80.1501 171.716 80.0199 171.716 79.7596C169.746 75.2039 138.354 71.4292 100 71.4292C61.7776 71.4292 30.5167 75.0738 28.2838 79.6294C28.2838 79.7596 28.1524 80.0199 28.1524 80.1501C28.2838 85.0963 60.4641 89.0012 100 89.0012Z" fill="#EF4E32"/>
<path opacity="0.6" d="M162.522 78.5877C153.984 75.9845 144.265 75.7241 134.939 76.5051C134.939 76.5051 134.939 76.5051 134.939 76.375C135.07 76.1146 135.201 75.8543 134.939 75.594C132.312 73.1209 124.956 74.1622 121.673 74.1622C115.893 74.2924 110.114 74.6828 104.335 74.6828C99.0806 74.6828 93.958 74.2924 88.7041 74.5527C86.0771 74.6828 83.3188 74.813 80.6918 75.0733C80.2978 75.0733 79.7724 75.3337 79.247 75.4638C79.247 75.3337 79.247 75.3337 79.247 75.2035C79.247 75.0733 79.1157 74.9432 78.9843 74.9432C76.3573 74.1622 72.9423 74.6828 70.3153 75.0733C65.9808 75.594 61.5149 75.594 57.0491 75.3337C52.4519 75.0733 47.8547 75.2035 43.2575 75.2035C41.944 75.2035 40.6305 75.4638 39.4484 75.8543H39.3171C39.1857 75.8543 38.923 75.9845 38.7917 75.9845C37.0841 75.7241 32.2242 78.4576 31.5675 79.629C30.5167 81.4513 34.1945 82.6228 35.2452 83.0133C39.7111 84.8355 45.2277 84.445 49.8249 84.1847C51.7952 84.0546 53.7654 83.7942 55.6043 83.1434C56.3924 82.8831 57.3118 82.6228 58.0999 82.2323C58.7566 81.972 60.8582 80.8005 60.5955 81.8418C60.5955 81.972 60.4642 82.2323 60.7269 82.3624C61.515 82.8831 62.5657 83.1434 63.7479 83.1434C62.6971 83.5339 61.7776 84.0546 61.1209 84.8355C60.9896 84.9657 60.8582 85.3562 60.9896 85.6165C62.0403 87.3086 65.8495 87.3086 67.6883 87.4388C71.7601 87.8293 75.9633 87.6991 80.0351 87.4388C83.8442 87.1785 87.3906 86.3975 91.1997 85.7467C91.9878 85.6165 90.2803 87.4388 91.4624 87.9594C93.6953 88.8706 96.8477 88.3499 99.0806 88.0896C103.678 87.6991 108.144 87.5689 112.741 87.4388C115.368 87.4388 117.469 88.0896 119.834 88.3499C121.541 88.4801 123.511 88.2198 125.219 88.0896C129.159 87.9594 133.1 88.2198 136.909 88.0896C137.04 88.0896 137.172 88.0896 137.303 87.9594C140.981 88.2198 145.315 87.3086 148.599 86.9181C150.832 86.6578 156.743 86.9181 157.268 83.9244C157.268 83.7942 157.268 83.6641 157.137 83.5339C159.632 83.4037 162.128 83.0133 163.704 81.7116C165.806 80.2798 164.624 79.2385 162.522 78.5877Z" fill="#EF4E32"/>
<path d="M57.7058 79.3678C55.9983 78.0662 51.4011 77.0249 46.0158 77.0249C40.6305 77.0249 36.0333 77.936 34.3258 79.3678C33.8004 79.3678 33.5377 79.3678 33.5377 79.3678V80.5393C33.5377 82.4917 39.1857 84.0537 46.0158 84.0537C52.9773 84.0537 58.4939 82.4917 58.4939 80.5393V79.3678C58.4939 79.3678 58.2312 79.3678 57.7058 79.3678Z" fill="#DC3C19"/>
<path d="M46.0158 82.8825C52.9073 82.8825 58.4939 81.3091 58.4939 79.3682C58.4939 77.4272 52.9073 75.8538 46.0158 75.8538C39.1244 75.8538 33.5377 77.4272 33.5377 79.3682C33.5377 81.3091 39.1244 82.8825 46.0158 82.8825Z" fill="#F47D20"/>
<path d="M46.0158 82.7521C52.5446 82.7521 57.8372 81.2369 57.8372 79.3679C57.8372 77.4988 52.5446 75.9836 46.0158 75.9836C39.4871 75.9836 34.1945 77.4988 34.1945 79.3679C34.1945 81.2369 39.4871 82.7521 46.0158 82.7521Z" fill="#F4E1A0"/>
<path d="M39.7112 81.7111C41.2874 82.2318 43.6516 82.3619 46.0159 82.2318V79.238L39.7112 81.7111Z" fill="#EF4E32"/>
<path d="M49.825 76.3747C47.9861 76.1144 46.0159 76.3747 46.0159 76.3747V79.3685L52.3206 76.8954C52.3206 76.8954 51.7952 76.5049 49.825 76.3747Z" fill="#EF4E32"/>
<path d="M56.1297 78.3268C56.1297 78.3268 56.1297 77.9364 54.9476 77.4157C53.7654 76.8951 52.1893 76.7649 52.1893 76.7649L46.0159 79.3681L56.1297 78.3268Z" fill="#EF4E32"/>
<path d="M56.1297 78.3271L46.0159 79.3685L56.1297 80.2796C56.1297 80.2796 57.1805 80.0193 57.1805 79.3685C57.1805 78.7176 56.1297 78.3271 56.1297 78.3271Z" fill="#EF4E32"/>
<path d="M56.1297 80.2795L46.0159 79.3684L52.3206 81.8415C52.3206 81.8415 53.6341 81.8415 54.9476 81.3208C56.2611 80.8002 56.1297 80.2795 56.1297 80.2795Z" fill="#EF4E32"/>
<path d="M42.8635 76.2441C40.4993 76.3743 39.7112 76.8949 39.7112 76.8949L46.0159 79.368V76.3743C45.8846 76.2441 44.8338 76.1139 42.8635 76.2441Z" fill="#EF4E32"/>
<path d="M39.7112 76.895C39.7112 76.895 37.7409 77.0252 36.6901 77.5458C35.6393 78.0665 35.7707 78.3268 35.7707 78.3268L45.8845 79.2379L39.7112 76.895Z" fill="#EF4E32"/>
<path d="M35.902 78.3271C35.902 78.3271 34.9826 78.7176 34.8513 79.2383C34.7199 79.7589 35.902 80.2796 35.902 80.2796L46.0159 79.3685L35.902 78.3271Z" fill="#EF4E32"/>
<path d="M35.902 80.2795C35.902 80.2795 35.902 80.8002 36.9528 81.1907C38.0036 81.5812 39.8425 81.8415 39.8425 81.8415L46.1472 79.3684L35.902 80.2795Z" fill="#EF4E32"/>
<path d="M52.3206 81.7113L46.0159 79.3684V82.3621C46.0159 82.3621 46.9353 82.4923 49.2996 82.3621C51.6639 82.232 52.3206 81.7113 52.3206 81.7113Z" fill="#EF4E32"/>
<path d="M44.7024 82.3615C42.6008 82.3615 40.8933 82.1012 39.5798 81.7107H39.4484L46.0159 79.1074V82.3615H45.8845C45.6218 82.3615 45.0964 82.3615 44.7024 82.3615ZM39.9738 81.7107C41.156 82.1012 42.7321 82.2313 44.7024 82.2313C45.0964 82.2313 45.4905 82.2313 45.8845 82.2313V79.3677L39.9738 81.7107Z" fill="#FCE1E0"/>
<path d="M45.8845 79.4987V76.2447H46.0158C46.0158 76.2447 46.8039 76.2447 47.7233 76.2447C48.5114 76.2447 49.2995 76.2447 49.9563 76.3748C51.9265 76.6352 52.4519 76.8955 52.4519 76.8955L45.8845 79.4987ZM46.1472 76.2447V79.1082L52.0578 76.7653C51.9265 76.6352 51.2697 76.3748 49.6936 76.2447C49.0368 76.1145 48.3801 76.1145 47.592 76.1145C47.0666 76.2447 46.4099 76.2447 46.1472 76.2447Z" fill="#FCE1E0"/>
<path d="M45.6218 79.3681L52.1892 76.7649H52.3205C52.4519 76.7649 53.8967 76.8951 55.2102 77.4157C56.3923 77.9364 56.3923 78.3268 56.3923 78.3268L45.6218 79.3681ZM52.3205 76.8951L46.4099 79.238L55.8669 78.3268C55.8669 78.1967 55.6043 77.9364 54.8162 77.5459C53.8967 77.0252 52.7146 76.8951 52.3205 76.8951Z" fill="#FCE1E0"/>
<path d="M56.261 80.2796L45.6218 79.2383L56.261 78.197H56.3923C56.3923 78.197 57.4431 78.4573 57.4431 79.2383C57.3118 79.8891 56.261 80.2796 56.261 80.2796ZM46.5412 79.3685L56.1296 80.2796C56.3923 80.1495 57.0491 79.8891 57.0491 79.3685C57.0491 78.8478 56.3923 78.5875 56.1296 78.4573L46.5412 79.3685Z" fill="#FCE1E0"/>
<path d="M52.1892 81.8415L45.6218 79.2383L56.3923 80.2796C56.3923 80.2796 56.3923 80.8002 55.0789 81.3209C53.7654 81.7114 52.3205 81.8415 52.1892 81.8415ZM46.4099 79.3684L52.3205 81.7114C52.5832 81.7114 53.7654 81.5812 54.8162 81.1907C55.867 80.8002 55.9983 80.4097 55.9983 80.2796L46.4099 79.3684Z" fill="#FCE1E0"/>
<path d="M46.1471 79.4987L39.5797 76.8954C39.5797 76.8954 40.4992 76.3748 42.8634 76.2446C43.5202 76.2446 44.1769 76.2446 44.7023 76.2446C45.359 76.2446 45.8844 76.2446 46.1471 76.3748V79.4987ZM39.9738 76.8954L45.8844 79.2384V76.3748C45.7531 76.3748 45.4904 76.3748 44.8337 76.3748C44.3083 76.3748 43.6515 76.3748 42.9948 76.3748C41.0245 76.3748 40.1051 76.7653 39.9738 76.8954Z" fill="#FCE1E0"/>
<path d="M46.4099 79.3681L35.7706 78.3268C35.7706 78.3268 35.6393 77.9364 36.6901 77.4157C37.7409 76.8951 39.7111 76.7649 39.8424 76.7649H39.9738L46.4099 79.3681ZM36.0333 78.3268L45.6218 79.238L39.7111 76.8951C39.317 76.8951 37.7409 77.1554 36.9528 77.5459C36.0333 77.9364 36.0333 78.1967 36.0333 78.3268Z" fill="#FCE1E0"/>
<path d="M35.7706 80.2798C35.6393 80.2798 34.5885 79.7592 34.7198 79.2385C34.8512 78.7179 35.7706 78.3274 35.7706 78.3274H35.902L46.6725 79.3687L35.7706 80.2798ZM35.902 78.4576C35.6393 78.5877 35.1139 78.848 34.9825 79.2385C34.9825 79.629 35.6393 80.0195 35.902 80.1497L45.4904 79.2385L35.902 78.4576Z" fill="#FCE1E0"/>
<path d="M39.8424 81.8415C39.7111 81.8415 37.8722 81.7114 36.8214 81.1907C35.7706 80.8002 35.7706 80.2796 35.7706 80.2796L46.5412 79.2383L39.8424 81.8415ZM36.0333 80.2796C36.0333 80.4097 36.1647 80.8002 36.9528 81.1907C37.7409 81.5812 39.1857 81.7114 39.5797 81.7114L45.4904 79.3684L36.0333 80.2796Z" fill="#FCE1E0"/>
<path d="M47.592 82.4917C46.4099 82.4917 46.0158 82.3615 45.8845 82.3615H45.7531V79.1074L52.3205 81.7107C52.3205 81.7107 51.5324 82.2313 49.1682 82.3615C48.7741 82.4917 48.1174 82.4917 47.592 82.4917ZM46.1472 82.3615C46.2785 82.3615 46.8039 82.4917 47.592 82.4917C48.1174 82.4917 48.6428 82.4917 49.2995 82.4917C51.2698 82.3615 51.9265 81.971 52.0578 81.971L46.1472 79.6281V82.3615Z" fill="#FCE1E0"/>
<path d="M49.9563 78.8472C49.4309 78.8472 48.7741 78.8472 48.3801 78.717C47.9861 78.5869 48.5115 78.4567 48.7742 78.3266C49.0368 78.1964 49.1682 78.0662 49.5622 77.9361C49.6936 77.9361 49.5622 77.8059 49.4309 77.9361C49.0368 78.0662 47.592 78.5869 46.8039 78.4567C46.2785 78.3266 46.2785 78.0662 46.1472 77.8059H46.0158C45.8845 77.9361 46.0158 78.5869 45.0964 78.4567C44.4396 78.4567 44.0456 78.1964 43.6516 78.0662C43.6516 78.0662 43.3889 78.0662 43.5202 78.0662C43.7829 78.1964 44.0456 78.4567 44.0456 78.5869C44.0456 78.717 43.5202 78.717 42.9948 78.717C42.9948 78.717 42.8635 78.717 42.8635 78.8472C43.1262 78.9774 43.6516 78.9774 43.9143 79.1075C44.177 79.2377 43.3889 79.3679 42.8635 79.3679H42.7321C42.6008 79.3679 42.6008 79.3679 42.6008 79.3679C42.7321 79.3679 42.7321 79.3679 42.8635 79.3679C42.9948 79.3679 42.9948 79.3679 43.1262 79.3679C43.5202 79.3679 43.9143 79.3679 44.0456 79.498C44.3083 79.6282 43.6516 79.8885 43.5202 80.0187H43.6516C43.7829 80.0187 43.9143 79.8885 44.177 79.8885H44.3083C44.571 79.8885 44.8337 79.7583 45.0964 79.8885C45.3591 79.8885 45.4904 80.0187 45.7531 80.1488C46.0158 80.279 46.1472 80.5393 46.2785 80.7997H46.5412C46.6726 80.7997 46.6726 80.6695 46.6726 80.6695C46.8039 80.5393 46.8039 80.4092 47.198 80.279C47.7234 80.1488 48.5115 80.4092 48.9055 80.4092C49.0368 80.4092 49.1682 80.4092 49.1682 80.279C48.9055 80.1488 48.6428 80.0187 48.3801 79.8885C48.1174 79.7583 48.3801 79.6282 48.9055 79.6282H49.0368C49.4309 79.6282 49.6936 79.6282 49.9563 79.6282C50.0876 79.6282 50.219 79.6282 50.0876 79.498C49.6936 79.3679 49.1682 79.3679 48.7742 79.2377C47.8547 79.2377 49.4309 78.9774 49.9563 78.8472C50.0876 78.8472 49.9563 78.9774 49.9563 78.8472Z" fill="#FCE1E0"/>
<path d="M81.7426 76.6351C80.035 75.3335 75.8319 74.4224 70.8407 74.4224C65.8494 74.4224 61.5149 75.3335 59.9387 76.6351C59.5447 76.6351 59.1506 76.6351 59.1506 76.6351V77.8066C59.1506 79.6289 64.4046 81.1908 70.8407 81.1908C77.2767 81.1908 82.5307 79.759 82.5307 77.8066V76.6351C82.5307 76.6351 82.268 76.6351 81.7426 76.6351Z" fill="#DC3C19"/>
<path d="M70.8407 80.0194C77.2969 80.0194 82.5307 78.5043 82.5307 76.6352C82.5307 74.7661 77.2969 73.251 70.8407 73.251C64.3844 73.251 59.1506 74.7661 59.1506 76.6352C59.1506 78.5043 64.3844 80.0194 70.8407 80.0194Z" fill="#F47D20"/>
<path d="M70.8407 79.7593C76.9342 79.7593 81.8739 78.3607 81.8739 76.6354C81.8739 74.9101 76.9342 73.5115 70.8407 73.5115C64.7471 73.5115 59.8074 74.9101 59.8074 76.6354C59.8074 78.3607 64.7471 79.7593 70.8407 79.7593Z" fill="#F4E1A0"/>
<path d="M64.93 78.848C66.3748 79.3687 68.6078 79.4988 70.8407 79.3687V76.6353L64.93 78.848Z" fill="#EF4E32"/>
<path d="M74.387 73.772C72.5482 73.6418 70.8406 73.772 70.8406 73.772V76.6355L76.7513 74.2926C76.62 74.2926 76.2259 74.0323 74.387 73.772Z" fill="#EF4E32"/>
<path d="M80.2977 75.7245C80.2977 75.7245 80.2977 75.334 79.2469 74.9435C78.1962 74.4229 76.7513 74.4229 76.7513 74.4229L70.8406 76.6356L80.2977 75.7245Z" fill="#EF4E32"/>
<path d="M80.2977 75.7244L70.8406 76.6355L80.2977 77.5466C80.2977 77.5466 81.2172 77.2863 81.2172 76.6355C81.2172 75.9847 80.2977 75.7244 80.2977 75.7244Z" fill="#EF4E32"/>
<path d="M80.2977 77.4162L70.8406 76.6353L76.7513 78.9782C76.7513 78.9782 78.0648 78.9782 79.2469 78.4575C80.2977 77.9369 80.2977 77.4162 80.2977 77.4162Z" fill="#EF4E32"/>
<path d="M67.9509 73.7719C65.718 73.9021 65.0613 74.2926 65.0613 74.2926L70.972 76.6355V73.7719C70.7093 73.6418 69.7898 73.6418 67.9509 73.7719Z" fill="#EF4E32"/>
<path d="M64.93 74.2927C64.93 74.2927 63.0911 74.4229 62.1717 74.9435C61.2522 75.4642 61.3836 75.7245 61.3836 75.7245L70.8407 76.6357L64.93 74.2927Z" fill="#EF4E32"/>
<path d="M61.3836 75.7244C61.3836 75.7244 60.4641 76.1149 60.4641 76.5053C60.3328 77.026 61.3836 77.4165 61.3836 77.4165L70.8407 76.5053L61.3836 75.7244Z" fill="#EF4E32"/>
<path d="M61.3835 77.416C61.3835 77.416 61.3835 77.8065 62.303 78.3272C63.2224 78.7176 65.0613 78.8478 65.0613 78.8478L70.972 76.5049L61.3835 77.416Z" fill="#EF4E32"/>
<path d="M76.62 78.848L70.8406 76.6353V79.4988C70.8406 79.4988 71.7601 79.629 73.8617 79.4988C76.0946 79.3687 76.62 78.848 76.62 78.848Z" fill="#EF4E32"/>
<path d="M69.6585 79.4989C67.6883 79.4989 66.1121 79.2385 64.9299 78.9782H64.7986L70.972 76.5051V79.4989H70.8406C70.4466 79.4989 70.0525 79.4989 69.6585 79.4989ZM65.1926 78.8481C66.2434 79.2385 67.6883 79.3687 69.6585 79.3687C70.0525 79.3687 70.3152 79.3687 70.7093 79.3687V76.7655L65.1926 78.8481Z" fill="#FCE1E0"/>
<path d="M70.7093 76.7658V73.772H70.8406C70.8406 73.772 71.4974 73.772 72.4168 73.772C73.2049 73.772 73.8617 73.772 74.387 73.9022C76.2259 74.0324 76.7513 74.4229 76.7513 74.4229L70.7093 76.7658ZM70.972 73.772V76.3753L76.4886 74.1625C76.3573 74.0324 75.7005 73.9022 74.387 73.6419C73.8617 73.6419 73.2049 73.5117 72.4168 73.5117C71.7601 73.772 71.2347 73.772 70.972 73.772Z" fill="#FCE1E0"/>
<path d="M70.4466 76.6357L76.62 74.1626H76.7513C76.7513 74.1626 78.1962 74.2928 79.3783 74.6832C80.5604 75.2039 80.4291 75.5944 80.4291 75.5944L70.4466 76.6357ZM76.7513 74.2928L71.2347 76.5055L80.1664 75.7245H80.2977C80.2977 75.5944 80.035 75.3341 79.2469 74.9436C78.1962 74.5531 77.014 74.4229 76.7513 74.2928Z" fill="#FCE1E0"/>
<path d="M80.2978 77.5469L70.3153 76.6357L80.2978 75.7246C80.2978 75.7246 81.3486 75.9849 81.3486 76.6357C81.4799 77.1564 80.4291 77.5469 80.2978 77.5469ZM71.3661 76.6357L80.2978 77.4167C80.5605 77.2866 81.2172 77.0262 81.2172 76.6357C81.2172 76.1151 80.5605 75.8548 80.2978 75.8548L71.3661 76.6357Z" fill="#FCE1E0"/>
<path d="M76.62 78.9782L70.4466 76.5051L80.4291 77.4163C80.4291 77.4163 80.4291 77.9369 79.2469 78.3274C78.0648 78.8481 76.7513 78.9782 76.62 78.9782ZM71.2347 76.6353L76.7513 78.8481C77.014 78.8481 78.0648 78.7179 78.9842 78.3274C80.035 77.9369 80.035 77.5464 80.035 77.4163L71.2347 76.6353Z" fill="#FCE1E0"/>
<path d="M70.972 76.7657L64.7986 74.2926C64.7986 74.2926 65.5867 73.9021 67.8196 73.772C68.4763 73.772 69.1331 73.772 69.6585 73.772C70.3152 73.772 70.8406 73.772 70.972 73.9021V76.7657ZM65.1926 74.2926L70.7093 76.5054V73.772C70.5779 73.772 70.3152 73.772 69.6585 73.772C69.1331 73.772 68.6077 73.772 67.951 73.772C66.1121 73.9021 65.324 74.1625 65.1926 74.2926Z" fill="#FCE1E0"/>
<path d="M71.2347 76.6357L61.2522 75.7245C61.2522 75.7245 61.1209 75.4642 62.0403 74.9435C63.0911 74.4229 64.93 74.2927 64.93 74.2927H65.0613L71.2347 76.6357ZM61.5149 75.7245L70.4466 76.5055L64.93 74.2927C64.5359 74.2927 63.0911 74.4229 62.303 74.9435C61.5149 75.334 61.5149 75.5943 61.5149 75.7245Z" fill="#FCE1E0"/>
<path d="M61.2522 77.5467C61.1209 77.5467 60.2014 77.026 60.2014 76.5054C60.3328 75.9847 61.1209 75.7244 61.1209 75.5942H61.2522L71.2347 76.5054L61.2522 77.5467ZM61.3836 75.7244C61.2522 75.8546 60.5955 76.1149 60.5955 76.5054C60.5955 76.8959 61.2522 77.2864 61.5149 77.4165L70.4466 76.6355L61.3836 75.7244Z" fill="#FCE1E0"/>
<path d="M65.0613 78.9782C64.93 78.9782 63.2224 78.848 62.1716 78.4575C61.2522 78.067 61.2522 77.5464 61.2522 77.5464L71.2347 76.6353L65.0613 78.9782ZM61.5149 77.5464C61.5149 77.6766 61.6462 78.067 62.4343 78.3274C63.2224 78.7179 64.5359 78.848 64.93 78.848L70.4466 76.6353L61.5149 77.5464Z" fill="#FCE1E0"/>
<path d="M72.2855 79.4994C71.2347 79.4994 70.7093 79.3692 70.7093 79.3692H70.5779V76.3755L76.7513 78.8486C76.7513 78.8486 76.0946 79.3692 73.8617 79.4994C73.3363 79.4994 72.8109 79.4994 72.2855 79.4994ZM70.972 79.3692C71.1033 79.3692 71.4974 79.3692 72.2855 79.3692C72.8109 79.3692 73.3363 79.3692 73.8617 79.3692C75.7005 79.2391 76.3573 78.9787 76.4886 78.8486L70.972 76.766V79.3692Z" fill="#FCE1E0"/>
<path d="M74.5184 76.2449C73.993 76.2449 73.4676 76.2449 72.9422 76.1147C72.5481 75.9846 73.0735 75.8544 73.3362 75.7242C73.5989 75.5941 73.7303 75.4639 73.993 75.3337C74.1243 75.3337 73.993 75.3337 73.8616 75.3337C73.4676 75.4639 72.1541 75.9846 71.4973 75.8544C70.972 75.7242 70.972 75.4639 70.8406 75.3337H70.7092C70.5779 75.4639 70.7093 75.9846 69.9212 75.9846C69.3958 75.9846 68.8704 75.7242 68.6077 75.5941H68.4763C68.739 75.7242 69.0017 75.9846 69.0017 76.1147C69.0017 76.2449 68.4763 76.2449 67.9509 76.2449C67.9509 76.2449 67.8196 76.2449 67.8196 76.375C68.0823 76.5052 68.6077 76.5052 68.739 76.6354C69.0017 76.7655 68.2136 76.7655 67.6882 76.8957H67.5569H67.4255C67.5569 76.8957 67.5569 76.8957 67.6882 76.8957C67.8196 76.8957 67.8196 76.8957 67.9509 76.8957C68.345 76.8957 68.739 76.8957 68.8704 77.0259C69.1331 77.156 68.6077 77.4163 68.345 77.5465H68.4763C68.6077 77.5465 68.739 77.4163 68.8704 77.4163H69.0017C69.2644 77.4163 69.5271 77.2862 69.6585 77.4163C69.9212 77.4163 70.0525 77.5465 70.1839 77.5465C70.4466 77.6767 70.5779 77.937 70.7092 78.0672C70.7092 78.0672 70.8406 78.0672 70.9719 78.0672C71.1033 78.0672 71.1033 77.937 71.1033 77.937C71.2346 77.8068 71.2346 77.6767 71.6287 77.5465C72.1541 77.4163 72.8108 77.6767 73.2049 77.6767C73.3362 77.6767 73.4676 77.6767 73.4676 77.5465C73.3362 77.4163 72.9422 77.2862 72.6795 77.156C72.4168 77.0259 72.6795 76.8957 73.2049 76.8957H73.3362C73.5989 76.8957 73.993 76.8957 74.1243 76.8957C74.2557 76.8957 74.387 76.8957 74.2557 76.8957C73.8616 76.7655 73.4676 76.7655 73.0735 76.6354C72.5481 76.5052 73.993 76.375 74.5184 76.2449C74.6497 76.2449 74.387 76.2449 74.5184 76.2449Z" fill="#FCE1E0"/>
<path d="M105.517 82.7536C103.678 81.3218 98.8179 80.2805 93.17 80.2805C87.522 80.2805 82.6621 81.3218 80.6918 82.7536C80.1664 82.7536 79.9037 82.7536 79.9037 82.7536V84.0552C79.9037 86.1378 85.8144 87.83 93.17 87.83C100.525 87.83 106.436 86.1378 106.436 84.0552V82.7536C106.305 82.7536 105.911 82.7536 105.517 82.7536Z" fill="#DC3C19"/>
<path d="M93.0385 86.5277C100.365 86.5277 106.305 84.8377 106.305 82.753C106.305 80.6683 100.365 78.9783 93.0385 78.9783C85.7118 78.9783 79.7723 80.6683 79.7723 82.753C79.7723 84.8377 85.7118 86.5277 93.0385 86.5277Z" fill="#F47D20"/>
<path d="M93.0385 86.2683C99.93 86.2683 105.517 84.6948 105.517 82.7539C105.517 80.813 99.93 79.2395 93.0385 79.2395C86.1471 79.2395 80.5604 80.813 80.5604 82.7539C80.5604 84.6948 86.1471 86.2683 93.0385 86.2683Z" fill="#F4E1A0"/>
<path d="M86.4711 85.3562C88.1787 85.8768 90.6743 86.007 93.0386 86.007V82.7529L86.4711 85.3562Z" fill="#EF4E32"/>
<path d="M97.1104 79.6291C95.1402 79.3688 93.0386 79.6291 93.0386 79.6291V82.8832L99.606 80.2799C99.606 80.1498 99.0806 79.7593 97.1104 79.6291Z" fill="#EF4E32"/>
<path d="M103.809 81.7121C103.809 81.7121 103.809 81.3216 102.627 80.801C101.314 80.2803 99.7373 80.1501 99.7373 80.1501L93.1699 82.7534L103.809 81.7121Z" fill="#EF4E32"/>
<path d="M103.809 81.7119L93.0386 82.7532L103.809 83.7945C103.809 83.7945 104.86 83.404 104.86 82.8834C104.86 82.1024 103.809 81.7119 103.809 81.7119Z" fill="#EF4E32"/>
<path d="M103.809 83.7942L93.0386 82.7529L99.606 85.3562C99.606 85.3562 101.051 85.3562 102.364 84.8355C103.809 84.3149 103.809 83.7942 103.809 83.7942Z" fill="#EF4E32"/>
<path d="M89.7548 79.4993C87.2592 79.6294 86.4711 80.1501 86.4711 80.1501L93.0386 82.7533V79.4993C92.9072 79.4993 91.8564 79.3691 89.7548 79.4993Z" fill="#EF4E32"/>
<path d="M86.4711 80.1501C86.4711 80.1501 84.3695 80.2803 83.3187 80.9311C82.2679 81.4518 82.3993 81.8423 82.3993 81.8423L93.1699 82.8836L86.4711 80.1501Z" fill="#EF4E32"/>
<path d="M82.268 81.7119C82.268 81.7119 81.2172 82.1024 81.2172 82.6231C81.0859 83.1437 82.268 83.6644 82.268 83.6644L93.0386 82.6231L82.268 81.7119Z" fill="#EF4E32"/>
<path d="M82.268 83.7942C82.268 83.7942 82.268 84.3149 83.3188 84.7054C84.3696 85.226 86.3398 85.3562 86.3398 85.3562L92.9072 82.7529L82.268 83.7942Z" fill="#EF4E32"/>
<path d="M99.606 85.3562L93.0386 82.7529V86.007C93.0386 86.007 94.0894 86.1372 96.585 86.007C99.0806 85.8768 99.606 85.3562 99.606 85.3562Z" fill="#EF4E32"/>
<path d="M91.5937 86.007C89.3608 86.007 87.5219 85.7467 86.2084 85.3562H86.0771L93.0386 82.6228V86.007H92.9072C92.5132 86.007 92.1191 86.007 91.5937 86.007ZM86.6025 85.3562C87.7846 85.7467 89.4922 86.007 91.5937 86.007C91.9878 86.007 92.3818 86.007 92.7759 86.007V83.0133L86.6025 85.3562Z" fill="#FCE1E0"/>
<path d="M92.9072 82.8833V79.4991H93.0386C93.0386 79.4991 93.8267 79.3689 94.8775 79.3689C95.6655 79.3689 96.4536 79.3689 97.2417 79.4991C99.3433 79.7594 99.8687 80.0197 99.8687 80.1499L92.9072 82.8833ZM93.1699 79.6292V82.623L99.4747 80.1499C99.3433 80.0197 98.6866 79.7594 96.979 79.6292C96.3223 79.4991 95.5342 79.4991 94.7461 79.4991C94.0894 79.4991 93.4326 79.4991 93.1699 79.6292Z" fill="#FCE1E0"/>
<path d="M92.6445 82.8836L99.606 80.1501H99.7374C99.8687 80.1501 101.445 80.2803 102.758 80.801C104.072 81.3216 103.941 81.7121 103.941 81.8423L92.6445 82.8836ZM99.7374 80.1501L93.4326 82.6232L103.546 81.7121C103.546 81.5819 103.284 81.1914 102.364 80.801C101.445 80.4105 100.131 80.2803 99.7374 80.1501Z" fill="#FCE1E0"/>
<path d="M103.809 83.794L92.5131 82.7527L103.809 81.7114H103.94C103.94 81.7114 105.123 82.1019 105.123 82.7527C104.991 83.4035 103.94 83.794 103.809 83.794ZM93.5639 82.7527L103.678 83.6639C103.94 83.5337 104.729 83.2734 104.729 82.7527C104.729 82.2321 103.94 81.8416 103.678 81.8416L93.5639 82.7527Z" fill="#FCE1E0"/>
<path d="M99.606 85.3562L92.6445 82.6228L103.941 83.6641C103.941 83.6641 103.941 84.3149 102.627 84.7054C101.182 85.3562 99.7374 85.3562 99.606 85.3562ZM93.4326 82.8831L99.7374 85.3562C100.131 85.3562 101.182 85.2261 102.364 84.8356C103.546 84.4451 103.546 83.9244 103.546 83.7943L93.4326 82.8831Z" fill="#FCE1E0"/>
<path d="M93.1699 82.8835L86.2084 80.1501C86.2084 80.1501 87.1279 79.6294 89.6235 79.4993C90.4116 79.4993 91.0683 79.4993 91.5937 79.4993C92.3818 79.4993 92.9072 79.4993 93.0386 79.6294V82.8835H93.1699ZM86.6025 80.1501L92.9072 82.6232V79.6294C92.7759 79.6294 92.5132 79.6294 91.7251 79.6294C91.1997 79.6294 90.5429 79.6294 89.7548 79.6294C87.6533 79.6294 86.8652 80.0199 86.6025 80.1501Z" fill="#FCE1E0"/>
<path d="M93.4326 82.8836L82.1367 81.8423C82.1367 81.8423 82.0053 81.4518 83.0561 80.9311C84.2382 80.4105 86.2085 80.1501 86.3398 80.1501H86.4712L93.4326 82.8836ZM82.5307 81.7121L92.6445 82.6232L86.3398 80.1501C85.9458 80.1501 84.2382 80.4105 83.3188 80.801C82.5307 81.3216 82.3994 81.5819 82.5307 81.7121Z" fill="#FCE1E0"/>
<path d="M82.268 83.794C82.1366 83.794 80.9545 83.2734 81.0859 82.6226C81.2172 82.1019 82.1366 81.7114 82.1366 81.7114H82.268L93.564 82.7527L82.268 83.794ZM82.3993 81.8416C82.1366 81.9718 81.4799 82.2321 81.4799 82.7527C81.3485 83.2734 82.268 83.6639 82.3993 83.794L92.5132 82.8829L82.3993 81.8416Z" fill="#FCE1E0"/>
<path d="M86.4711 85.3562C86.2084 85.3562 84.3695 85.2261 83.1874 84.7054C82.1366 84.1848 82.1366 83.6641 82.1366 83.6641L93.4326 82.6228L86.4711 85.3562ZM82.5306 83.7943C82.5306 83.9244 82.662 84.3149 83.5814 84.7054C84.5009 85.0959 85.9457 85.2261 86.4711 85.3562L92.7758 82.8831L82.5306 83.7943Z" fill="#FCE1E0"/>
<path d="M94.7461 86.1372C93.564 86.1372 93.0386 86.007 93.0386 86.007H92.9072V82.6228L99.8687 85.3562C99.8687 85.3562 99.0806 85.8769 96.585 86.007C95.9282 86.007 95.2715 86.1372 94.7461 86.1372ZM93.1699 85.8769C93.3013 85.8769 93.8267 86.007 94.6148 86.007C95.1402 86.007 95.7969 86.007 96.4536 86.007C98.5552 85.8769 99.212 85.4864 99.4747 85.3562L93.1699 82.8831V85.8769Z" fill="#FCE1E0"/>
<path d="M97.2417 82.3628C96.7163 82.3628 95.9282 82.3628 95.5342 82.2327C95.1401 82.1025 95.6655 81.9723 95.9282 81.8422C96.1909 81.712 96.3222 81.5819 96.7163 81.4517C96.8476 81.4517 96.7163 81.3215 96.5849 81.4517C96.1909 81.5819 94.6147 82.2327 93.8266 81.9723C93.3012 81.8422 93.1699 81.4517 93.1699 81.3215C93.1699 81.3215 93.0385 81.3215 92.9072 81.3215C92.7758 81.4517 92.9072 82.1025 91.9878 82.1025C91.331 82.1025 90.8056 81.8422 90.4116 81.712C90.4116 81.712 90.1489 81.712 90.2802 81.712C90.5429 81.9723 90.8056 82.1025 90.8056 82.3628C90.8056 82.493 90.1489 82.493 89.6235 82.493C89.4921 82.493 89.4921 82.493 89.3608 82.6232C89.6235 82.7533 90.2802 82.7533 90.4116 83.0136C90.6743 83.1438 89.7548 83.274 89.2294 83.274H89.0981C88.9667 83.274 88.9667 83.4041 88.9667 83.274C89.0981 83.274 89.2294 83.274 89.2294 83.274C89.3608 83.274 89.3608 83.274 89.4921 83.274C89.8862 83.274 90.2802 83.274 90.5429 83.4041C90.8056 83.5343 90.1489 83.7946 90.0175 83.9248H90.1489C90.2802 83.9248 90.4116 83.7946 90.6743 83.7946H90.8056C91.0683 83.7946 91.331 83.6645 91.5937 83.6645C91.8564 83.6645 91.9878 83.7946 92.2504 83.9248C92.5131 84.1851 92.7758 84.3153 92.7758 84.5756H93.0385C93.1699 84.5756 93.1699 84.4454 93.1699 84.4454C93.3012 84.3153 93.3012 84.1851 93.6953 84.055C94.2207 83.9248 95.1401 84.1851 95.5342 84.3153C95.6655 84.3153 95.7969 84.3153 95.7969 84.1851C95.5342 84.0549 95.1401 83.9248 95.0088 83.7946C94.7461 83.6645 95.0088 83.5343 95.5342 83.5343H95.6655C96.0596 83.5343 96.3223 83.5343 96.5849 83.5343C96.7163 83.5343 96.8476 83.5343 96.7163 83.4041C96.3222 83.274 95.7969 83.274 95.4028 83.1438C94.7461 83.0136 96.4536 82.7533 96.8476 82.7533C97.1103 82.3628 97.373 82.3628 97.2417 82.3628Z" fill="#FCE1E0"/>
<path d="M161.734 78.978C159.895 77.5462 155.035 76.5049 149.256 76.5049C143.476 76.5049 138.748 77.5462 136.909 78.978C136.384 78.978 136.121 78.978 136.121 78.978V80.2796C136.121 82.3622 142.032 84.0543 149.387 84.0543C156.743 84.0543 162.653 82.3622 162.653 80.2796V78.978C162.522 78.978 162.259 78.978 161.734 78.978Z" fill="#DC3C19"/>
<path d="M149.387 82.7528C156.714 82.7528 162.653 81.0628 162.653 78.9781C162.653 76.8934 156.714 75.2034 149.387 75.2034C142.06 75.2034 136.121 76.8934 136.121 78.9781C136.121 81.0628 142.06 82.7528 149.387 82.7528Z" fill="#F47D20"/>
<path d="M149.387 82.4927C156.279 82.4927 161.865 80.9192 161.865 78.9783C161.865 77.0373 156.279 75.4639 149.387 75.4639C142.496 75.4639 136.909 77.0373 136.909 78.9783C136.909 80.9192 142.496 82.4927 149.387 82.4927Z" fill="#F4E1A0"/>
<path d="M142.688 81.581C144.396 82.1017 146.892 82.2319 149.256 82.2319V78.9778L142.688 81.581Z" fill="#EF4E32"/>
<path d="M153.328 75.854C151.357 75.5937 149.256 75.854 149.256 75.854V79.108L155.823 76.5048C155.955 76.3746 155.429 75.9841 153.328 75.854Z" fill="#EF4E32"/>
<path d="M160.026 77.9367C160.026 77.9367 160.026 77.5462 158.844 77.0256C157.531 76.5049 155.955 76.3748 155.955 76.3748L149.387 78.978L160.026 77.9367Z" fill="#EF4E32"/>
<path d="M160.026 77.9368L149.256 78.9781L160.026 80.0194C160.026 80.0194 161.077 79.6289 161.077 79.1082C161.209 78.3273 160.026 77.9368 160.026 77.9368Z" fill="#EF4E32"/>
<path d="M160.026 80.0191L149.256 78.9778L155.823 81.581C155.823 81.581 157.268 81.581 158.582 81.0604C160.158 80.5397 160.026 80.0191 160.026 80.0191Z" fill="#EF4E32"/>
<path d="M145.972 75.7241C143.476 75.8543 142.688 76.3749 142.688 76.3749L149.256 78.9782V75.7241C149.124 75.7241 148.074 75.5939 145.972 75.7241Z" fill="#EF4E32"/>
<path d="M142.688 76.3748C142.688 76.3748 140.587 76.5049 139.536 77.1557C138.485 77.6764 138.617 78.0669 138.617 78.0669L149.387 79.1082L142.688 76.3748Z" fill="#EF4E32"/>
<path d="M138.617 77.9368C138.617 77.9368 137.566 78.3273 137.566 78.8479C137.434 79.3686 138.617 79.8892 138.617 79.8892L149.387 78.8479L138.617 77.9368Z" fill="#EF4E32"/>
<path d="M138.617 80.0191C138.617 80.0191 138.617 80.5397 139.667 81.0604C140.718 81.581 142.688 81.7112 142.688 81.7112L149.256 79.1079L138.617 80.0191Z" fill="#EF4E32"/>
<path d="M155.955 81.581L149.387 78.9778V82.2319C149.387 82.2319 150.438 82.362 152.934 82.2319C155.298 82.1017 155.955 81.581 155.955 81.581Z" fill="#EF4E32"/>
<path d="M147.942 82.2319C145.709 82.2319 143.87 81.9716 142.557 81.5811H142.426L149.387 78.8477V82.2319H149.256C148.862 82.2319 148.336 82.2319 147.942 82.2319ZM142.951 81.5811C144.133 81.9716 145.841 82.2319 147.942 82.2319C148.336 82.2319 148.73 82.2319 149.124 82.2319V79.2381L142.951 81.5811Z" fill="#FCE1E0"/>
<path d="M149.124 79.1081V75.7239H149.256C149.256 75.7239 150.044 75.5938 151.095 75.5938C151.883 75.5938 152.671 75.5937 153.459 75.7239C155.56 75.9842 156.086 76.2446 156.086 76.3747L149.124 79.1081ZM149.518 75.8541V78.8478L155.823 76.3747C155.692 76.2446 155.035 75.9842 153.327 75.8541C152.671 75.7239 151.883 75.7239 151.095 75.7239C150.438 75.7239 149.781 75.8541 149.518 75.8541Z" fill="#FCE1E0"/>
<path d="M148.862 79.1084L155.823 76.375H155.954C156.086 76.375 157.662 76.5052 158.975 77.0258C160.289 77.5465 160.158 77.937 160.158 78.0671L148.862 79.1084ZM156.086 76.5052L149.781 78.8481L159.895 77.937C159.895 77.8068 159.632 77.4163 158.713 77.0258C157.662 76.6353 156.348 76.5052 156.086 76.5052Z" fill="#FCE1E0"/>
<path d="M160.158 80.0189L148.862 78.9776L160.158 77.9363H160.289C160.289 77.9363 161.471 78.3268 161.471 78.9776C161.34 79.6284 160.289 80.0189 160.158 80.0189ZM149.912 78.9776L160.026 79.8887C160.289 79.7586 161.077 79.4982 161.077 78.9776C161.077 78.4569 160.289 78.0664 160.026 78.0664L149.912 78.9776Z" fill="#FCE1E0"/>
<path d="M155.823 81.5811L148.862 78.8477L160.158 79.889C160.158 79.889 160.158 80.5398 158.844 80.9303C157.531 81.5811 156.086 81.5811 155.823 81.5811ZM149.781 79.108L156.086 81.5811C156.48 81.5811 157.531 81.4509 158.713 81.0604C159.895 80.6699 159.895 80.1493 159.895 80.0191L149.781 79.108Z" fill="#FCE1E0"/>
<path d="M149.518 79.1081L142.557 76.3747C142.557 76.3747 143.476 75.854 145.972 75.7239C146.76 75.7239 147.417 75.7239 147.942 75.7239C148.73 75.7239 149.256 75.7239 149.387 75.854V79.1081H149.518ZM142.951 76.3747L149.256 78.8478V75.854C149.124 75.854 148.862 75.854 148.074 75.854C147.548 75.854 146.891 75.854 146.103 75.854C144.002 75.9842 143.082 76.2445 142.951 76.3747Z" fill="#FCE1E0"/>
<path d="M149.781 79.1084L138.485 78.0671C138.485 78.0671 138.354 77.6766 139.405 77.156C140.587 76.6353 142.557 76.375 142.688 76.375H142.82L149.781 79.1084ZM138.748 77.937L148.862 78.8481L142.557 76.375C142.163 76.375 140.455 76.6353 139.536 77.0258C138.748 77.5465 138.748 77.937 138.748 77.937Z" fill="#FCE1E0"/>
<path d="M138.485 80.0189C138.354 80.0189 137.172 79.4982 137.303 78.8474C137.434 78.3268 138.354 77.9363 138.354 77.9363H138.485L149.781 78.9776L138.485 80.0189ZM138.616 78.0664C138.354 78.1966 137.697 78.4569 137.697 78.9776C137.566 79.4982 138.485 79.8887 138.616 80.0189L148.73 79.1077L138.616 78.0664Z" fill="#FCE1E0"/>
<path d="M142.82 81.5811C142.557 81.5811 140.718 81.4509 139.536 80.9303C138.485 80.4096 138.485 79.889 138.485 79.889L149.781 78.8477L142.82 81.5811ZM138.748 80.0191C138.748 80.1493 138.879 80.5398 139.799 80.9303C140.718 81.3207 142.163 81.4509 142.688 81.5811L148.993 79.108L138.748 80.0191Z" fill="#FCE1E0"/>
<path d="M150.963 82.362C149.781 82.362 149.256 82.2319 149.256 82.2319H149.124V78.8477L156.086 81.5811C156.086 81.5811 155.298 82.1017 152.802 82.2319C152.145 82.362 151.62 82.362 150.963 82.362ZM149.518 82.2319C149.65 82.2319 150.175 82.362 150.963 82.362C151.489 82.362 152.145 82.362 152.802 82.362C154.904 82.2319 155.56 81.8414 155.823 81.7112L149.518 79.2381V82.2319Z" fill="#FCE1E0"/>
<path d="M153.459 78.5872C152.933 78.5872 152.145 78.5872 151.751 78.457C151.357 78.3269 151.883 78.1967 152.145 78.0665C152.408 77.9364 152.539 77.8062 152.933 77.6761C153.065 77.6761 152.933 77.5459 152.802 77.6761C152.408 77.8062 150.832 78.457 150.044 78.1967C149.518 78.0665 149.387 77.6761 149.387 77.5459C149.387 77.5459 149.256 77.5459 149.124 77.5459C148.993 77.6761 149.124 78.3269 148.205 78.3269C147.548 78.3269 147.023 78.0665 146.629 77.9364C146.629 77.9364 146.366 77.9364 146.497 77.9364C146.76 78.1967 147.023 78.3269 147.023 78.5872C147.023 78.7174 146.366 78.7174 145.841 78.7174C145.709 78.7174 145.709 78.7174 145.578 78.8475C145.841 78.9777 146.497 78.9777 146.629 79.238C146.891 79.3682 145.972 79.4983 145.447 79.4983H145.315C145.184 79.4983 145.184 79.6285 145.184 79.4983C145.315 79.4983 145.447 79.4983 145.447 79.4983C145.578 79.4983 145.578 79.4983 145.709 79.4983C146.103 79.4983 146.497 79.4983 146.76 79.6285C147.023 79.7587 146.366 80.019 146.235 80.1492H146.366C146.497 80.1492 146.629 80.019 146.891 80.019H147.023C147.285 80.019 147.548 79.8888 147.811 79.8888C148.074 79.8888 148.205 80.019 148.468 80.1492C148.73 80.4095 148.993 80.5396 148.993 80.8H149.256C149.387 80.8 149.387 80.6698 149.387 80.6698C149.518 80.5396 149.518 80.4095 149.912 80.2793C150.438 80.1492 151.357 80.4095 151.751 80.5396C151.883 80.5396 152.014 80.5396 152.014 80.4095C151.751 80.2793 151.357 80.1492 151.226 80.019C150.963 79.8888 151.226 79.7587 151.751 79.7587H151.883C152.277 79.7587 152.539 79.7587 152.802 79.7587C152.933 79.7587 153.065 79.7587 152.933 79.6285C152.539 79.4983 152.014 79.4983 151.62 79.3682C150.963 79.238 152.671 78.9777 153.065 78.9777C153.459 78.5872 153.59 78.5872 153.459 78.5872Z" fill="#FCE1E0"/>
<path d="M120.753 75.3341C119.046 73.9023 114.317 72.9912 108.932 72.9912C103.546 72.9912 98.9493 74.0325 97.1104 75.3341C96.585 75.3341 96.3223 75.3341 96.3223 75.3341V76.5056C96.3223 78.458 101.97 80.1502 108.932 80.1502C115.893 80.1502 121.541 78.5882 121.541 76.5056V75.3341C121.541 75.3341 121.279 75.3341 120.753 75.3341Z" fill="#DC3C19"/>
<path d="M108.932 78.9781C115.896 78.9781 121.541 77.3464 121.541 75.3335C121.541 73.3207 115.896 71.689 108.932 71.689C101.968 71.689 96.3223 73.3207 96.3223 75.3335C96.3223 77.3464 101.968 78.9781 108.932 78.9781Z" fill="#F47D20"/>
<path d="M108.932 78.7184C115.533 78.7184 120.884 77.2032 120.884 75.3342C120.884 73.4651 115.533 71.95 108.932 71.95C102.33 71.95 96.9791 73.4651 96.9791 75.3342C96.9791 77.2032 102.33 78.7184 108.932 78.7184Z" fill="#F4E1A0"/>
<path d="M102.627 77.8068C104.203 78.3275 106.567 78.4576 108.932 78.3275V75.3337L102.627 77.8068Z" fill="#EF4E32"/>
<path d="M112.872 72.3401C110.902 72.0797 109.063 72.3401 109.063 72.3401V75.3338L115.368 72.8607C115.236 72.8607 114.711 72.4702 112.872 72.3401Z" fill="#EF4E32"/>
<path d="M119.177 74.2922C119.177 74.2922 119.177 73.9017 117.995 73.381C116.813 72.8604 115.236 72.7302 115.236 72.7302L108.932 75.3335L119.177 74.2922Z" fill="#EF4E32"/>
<path d="M119.177 74.4224L108.932 75.3335L119.177 76.2446C119.177 76.2446 120.228 75.9843 120.228 75.3335C120.228 74.6827 119.177 74.4224 119.177 74.4224Z" fill="#EF4E32"/>
<path d="M119.177 76.2449L108.932 75.3337L115.236 77.8068C115.236 77.8068 116.55 77.8068 117.863 77.2862C119.177 76.7655 119.177 76.2449 119.177 76.2449Z" fill="#EF4E32"/>
<path d="M105.779 72.2097C103.415 72.3398 102.627 72.8605 102.627 72.8605L108.932 75.3336V72.3398C108.8 72.2097 107.75 72.0795 105.779 72.2097Z" fill="#EF4E32"/>
<path d="M102.627 72.8604C102.627 72.8604 100.657 72.9905 99.606 73.5112C98.5552 74.0318 98.6866 74.2921 98.6866 74.2921L108.932 75.2033L102.627 72.8604Z" fill="#EF4E32"/>
<path d="M98.8179 74.4224C98.8179 74.4224 97.8985 74.8129 97.7671 75.3335C97.6358 75.8542 98.8179 76.3748 98.8179 76.3748L109.063 75.4637L98.8179 74.4224Z" fill="#EF4E32"/>
<path d="M98.8179 76.2449C98.8179 76.2449 98.8179 76.7655 99.8687 77.156C100.92 77.5465 102.758 77.8068 102.758 77.8068L109.063 75.3337L98.8179 76.2449Z" fill="#EF4E32"/>
<path d="M115.236 77.8068L108.932 75.3337V78.3275C108.932 78.3275 109.851 78.4576 112.215 78.3275C114.711 78.1973 115.236 77.8068 115.236 77.8068Z" fill="#EF4E32"/>
<path d="M107.618 78.4574C105.517 78.4574 103.678 78.1971 102.496 77.8066H102.364L109.063 75.2034V78.4574H108.932C108.538 78.4574 108.012 78.4574 107.618 78.4574ZM102.89 77.8066C104.072 78.1971 105.648 78.3273 107.618 78.3273C108.012 78.3273 108.406 78.3273 108.8 78.3273V75.4637L102.89 77.8066Z" fill="#FCE1E0"/>
<path d="M108.8 75.4638V72.2097H108.932C108.932 72.2097 109.72 72.2097 110.639 72.2097C111.427 72.2097 112.215 72.2097 112.872 72.3399C114.842 72.6002 115.368 72.8605 115.368 72.8605L108.8 75.4638ZM109.063 72.3399V75.2035L114.974 72.8605C114.842 72.7304 114.186 72.47 112.61 72.3399C111.953 72.2097 111.296 72.2097 110.508 72.2097C109.983 72.2097 109.326 72.3399 109.063 72.3399Z" fill="#FCE1E0"/>
<path d="M108.538 75.3332L115.236 72.73H115.368C115.368 72.73 116.944 72.8601 118.258 73.3808C119.44 73.9014 119.44 74.2919 119.44 74.2919L108.538 75.3332ZM115.368 72.8601L109.457 75.2031L119.046 74.2919C119.046 74.1618 118.783 73.9014 117.995 73.511C116.944 72.9903 115.631 72.8601 115.368 72.8601Z" fill="#FCE1E0"/>
<path d="M119.177 76.2449L108.406 75.3338L119.177 74.2925H119.308C119.308 74.2925 120.359 74.5528 120.359 75.3338C120.359 75.9846 119.308 76.2449 119.177 76.2449ZM109.457 75.3338L119.046 76.2449C119.308 76.1148 119.965 75.8544 119.965 75.3338C119.965 74.8131 119.177 74.5528 119.046 74.4226L109.457 75.3338Z" fill="#FCE1E0"/>
<path d="M115.236 77.8066L108.538 75.2034L119.308 76.2447C119.308 76.2447 119.308 76.7653 117.995 77.286C116.813 77.8066 115.368 77.8066 115.236 77.8066ZM109.457 75.3335L115.368 77.6765C115.631 77.6765 116.813 77.5463 117.863 77.1558C118.914 76.7653 119.046 76.3748 119.046 76.2447L109.457 75.3335Z" fill="#FCE1E0"/>
<path d="M109.063 75.4638L102.364 72.8605C102.364 72.8605 103.284 72.3399 105.648 72.2097C106.305 72.2097 106.962 72.2097 107.618 72.2097C108.406 72.2097 108.8 72.2097 109.063 72.3399V75.4638ZM102.89 72.8605L108.8 75.2035V72.3399C108.669 72.3399 108.406 72.3399 107.75 72.3399C107.224 72.3399 106.568 72.3399 105.911 72.3399C103.941 72.3399 103.021 72.7304 102.89 72.8605Z" fill="#FCE1E0"/>
<path d="M109.457 75.3332L98.5552 74.4221C98.5552 74.4221 98.4239 74.0316 99.4747 73.5109C100.525 72.9903 102.496 72.8601 102.627 72.8601H102.758L109.457 75.3332ZM98.9493 74.2919L108.538 75.203L102.627 72.8601C102.233 72.8601 100.657 73.1204 99.8687 73.5109C98.9493 74.0316 98.9493 74.2919 98.9493 74.2919Z" fill="#FCE1E0"/>
<path d="M98.6866 76.2449C98.5552 76.2449 97.5045 75.7243 97.5045 75.2036C97.6358 74.683 98.5552 74.2925 98.5552 74.2925H98.6866L109.457 75.3338L98.6866 76.2449ZM98.8179 74.4226C98.5552 74.5528 98.0298 74.8131 97.8985 75.2036C97.7672 75.5941 98.5552 75.9846 98.8179 76.1148L108.406 75.2036L98.8179 74.4226Z" fill="#FCE1E0"/>
<path d="M102.758 77.8066C102.627 77.8066 100.657 77.6765 99.606 77.1558C98.5552 76.7653 98.5552 76.2447 98.5552 76.2447L109.326 75.2034L102.758 77.8066ZM98.9493 76.2447C98.9493 76.3748 99.0806 76.7653 99.8687 77.1558C100.657 77.5463 102.233 77.6765 102.627 77.6765L108.538 75.3335L98.9493 76.2447Z" fill="#FCE1E0"/>
<path d="M110.508 78.458C109.326 78.458 108.932 78.3278 108.8 78.3278H108.669V75.0737L115.368 77.677C115.368 77.677 114.58 78.1976 112.215 78.3278C111.69 78.458 111.033 78.458 110.508 78.458ZM109.063 78.3278C109.194 78.3278 109.72 78.458 110.508 78.458C111.033 78.458 111.559 78.458 112.215 78.458C114.186 78.3278 114.842 77.9373 115.105 77.9373L109.063 75.4642V78.3278Z" fill="#FCE1E0"/>
<path d="M112.872 74.9432C112.347 74.9432 111.69 74.9432 111.165 74.813C110.771 74.6828 111.296 74.5527 111.559 74.4225C111.821 74.2923 111.953 74.1622 112.347 74.032C112.478 74.032 112.347 73.9019 112.215 74.032C111.821 74.1622 110.377 74.6828 109.589 74.5527C109.194 74.4225 109.063 74.032 109.063 73.9019C109.063 73.9019 108.932 73.9019 108.8 73.9019C108.669 74.032 108.8 74.6828 107.881 74.5527C107.224 74.5527 106.83 74.2923 106.436 74.1622C106.436 74.1622 106.173 74.1622 106.305 74.1622C106.568 74.2923 106.83 74.5527 106.83 74.6828C106.83 74.813 106.305 74.813 105.779 74.813C105.779 74.813 105.648 74.813 105.648 74.9432C105.911 75.0733 106.436 75.0733 106.699 75.2035C106.962 75.3336 106.173 75.4638 105.648 75.4638H105.517C105.385 75.4638 105.385 75.4638 105.385 75.4638C105.517 75.4638 105.517 75.4638 105.648 75.4638C105.779 75.4638 105.779 75.4638 105.911 75.4638C106.305 75.4638 106.699 75.4638 106.83 75.594C107.093 75.7241 106.436 75.9845 106.305 76.1146H106.436C106.568 76.1146 106.699 75.9845 106.962 75.9845H107.093C107.356 75.9845 107.618 75.8543 107.881 75.9845C108.144 75.9845 108.275 76.1146 108.538 76.2448C108.8 76.3749 108.932 76.6353 109.063 76.8956H109.326C109.457 76.8956 109.457 76.7654 109.457 76.7654C109.589 76.6353 109.589 76.5051 109.983 76.3749C110.508 76.2448 111.296 76.5051 111.69 76.5051C111.821 76.5051 111.953 76.5051 111.953 76.3749C111.69 76.2448 111.427 76.1146 111.165 75.9845C110.902 75.8543 111.165 75.7241 111.69 75.7241H111.821C112.215 75.7241 112.478 75.7241 112.741 75.7241C112.872 75.7241 113.004 75.7241 112.872 75.594C112.478 75.4638 111.953 75.4638 111.559 75.3336C110.771 75.2035 112.347 75.0733 112.872 74.9432Z" fill="#FCE1E0"/>
<path d="M137.172 83.143C135.333 81.7112 130.473 80.6699 124.694 80.6699C119.046 80.6699 114.186 81.7112 112.215 83.143C111.69 83.143 111.427 83.143 111.427 83.143V84.4446C111.427 86.5272 117.338 88.2194 124.694 88.2194C132.049 88.2194 137.96 86.5272 137.96 84.4446V83.143C137.96 83.143 137.697 83.143 137.172 83.143Z" fill="#DC3C19"/>
<path d="M124.694 86.9181C132.02 86.9181 137.96 85.2281 137.96 83.1434C137.96 81.0587 132.02 79.3687 124.694 79.3687C117.367 79.3687 111.427 81.0587 111.427 83.1434C111.427 85.2281 117.367 86.9181 124.694 86.9181Z" fill="#F47D20"/>
<path d="M124.694 86.6577C131.585 86.6577 137.172 85.0842 137.172 83.1433C137.172 81.2024 131.585 79.6289 124.694 79.6289C117.802 79.6289 112.215 81.2024 112.215 83.1433C112.215 85.0842 117.802 86.6577 124.694 86.6577Z" fill="#F4E1A0"/>
<path d="M118.126 85.7458C119.834 86.2665 122.329 86.3966 124.694 86.3966V83.1426L118.126 85.7458Z" fill="#EF4E32"/>
<path d="M128.765 80.0193C126.795 79.7589 124.694 80.0193 124.694 80.0193V83.1432L131.261 80.5399C131.392 80.5399 130.736 80.1494 128.765 80.0193Z" fill="#EF4E32"/>
<path d="M135.464 82.1015C135.464 82.1015 135.464 81.711 134.282 81.1904C132.968 80.6697 131.392 80.5396 131.392 80.5396L124.825 83.1428L135.464 82.1015Z" fill="#EF4E32"/>
<path d="M135.464 82.1021L124.694 83.1434L135.464 84.1847C135.464 84.1847 136.515 83.7942 136.515 83.2735C136.515 82.4925 135.464 82.1021 135.464 82.1021Z" fill="#EF4E32"/>
<path d="M135.464 84.1839L124.694 83.1426L131.261 85.7458C131.261 85.7458 132.706 85.7458 134.019 85.2252C135.464 84.7045 135.464 84.1839 135.464 84.1839Z" fill="#EF4E32"/>
<path d="M121.41 79.8887C118.914 80.0188 118.126 80.5395 118.126 80.5395L124.694 83.1427V79.8887C124.562 79.8887 123.511 79.7585 121.41 79.8887Z" fill="#EF4E32"/>
<path d="M118.126 80.5396C118.126 80.5396 116.025 80.6697 114.974 81.3205C113.923 81.8412 114.054 82.2317 114.054 82.2317L124.825 83.273L118.126 80.5396Z" fill="#EF4E32"/>
<path d="M114.054 82.1021C114.054 82.1021 113.135 82.4925 113.004 83.0132C112.872 83.5338 114.054 84.0545 114.054 84.0545L124.825 83.0132L114.054 82.1021Z" fill="#EF4E32"/>
<path d="M114.054 84.1843C114.054 84.1843 114.054 84.705 115.105 85.2256C116.156 85.7463 118.126 85.8764 118.126 85.8764L124.694 83.2732L114.054 84.1843Z" fill="#EF4E32"/>
<path d="M131.392 85.7458L124.825 83.1426V86.3966C124.825 86.3966 125.876 86.5268 128.371 86.3966C130.736 86.2665 131.392 85.7458 131.392 85.7458Z" fill="#EF4E32"/>
<path d="M123.38 86.3967C121.147 86.3967 119.308 86.1364 117.995 85.7459H117.863L124.825 83.0125V86.3967H124.694C124.299 86.3967 123.774 86.3967 123.38 86.3967ZM118.257 85.7459C119.44 86.1364 121.147 86.3967 123.249 86.3967C123.643 86.3967 124.037 86.3967 124.431 86.3967V83.4029L118.257 85.7459Z" fill="#FCE1E0"/>
<path d="M124.562 83.2727V79.8885H124.694C124.694 79.8885 125.482 79.7583 126.532 79.7583C127.321 79.7583 128.109 79.7583 128.897 79.8885C130.998 80.1488 131.524 80.4091 131.524 80.5393L124.562 83.2727ZM124.956 80.0186V83.0124L131.261 80.5393C131.13 80.4091 130.473 80.1488 128.765 80.0186C128.109 79.8885 127.321 79.8885 126.532 79.8885C125.744 79.8885 125.088 79.8885 124.956 80.0186Z" fill="#FCE1E0"/>
<path d="M124.299 83.273L131.261 80.5396H131.392C131.524 80.5396 133.1 80.6697 134.413 81.1904C135.727 81.711 135.595 82.1015 135.595 82.2317L124.299 83.273ZM131.392 80.5396L125.088 83.0126L135.201 82.1015C135.201 81.9713 134.939 81.5809 134.019 81.1904C133.1 80.7999 131.786 80.6697 131.392 80.5396Z" fill="#FCE1E0"/>
<path d="M135.464 84.1837L124.168 83.1424L135.464 82.1011H135.595C135.595 82.1011 136.778 82.4916 136.778 83.1424C136.778 83.7932 135.595 84.1837 135.464 84.1837ZM125.219 83.1424L135.333 84.0535C135.595 83.9234 136.384 83.663 136.384 83.1424C136.384 82.6217 135.595 82.2312 135.333 82.2312L125.219 83.1424Z" fill="#FCE1E0"/>
<path d="M131.261 85.7459L124.299 83.0125L135.595 84.0538C135.595 84.0538 135.595 84.7046 134.282 85.0951C132.969 85.7459 131.392 85.7459 131.261 85.7459ZM125.219 83.2728L131.524 85.7459C131.918 85.7459 132.969 85.6157 134.151 85.2252C135.333 84.8347 135.333 84.3141 135.464 84.1839L125.219 83.2728Z" fill="#FCE1E0"/>
<path d="M124.956 83.2729L117.863 80.5395C117.863 80.5395 118.783 80.0188 121.278 79.8887C122.067 79.8887 122.723 79.8887 123.249 79.8887C124.037 79.8887 124.562 79.8887 124.694 80.0188V83.2729H124.956ZM118.257 80.5395L124.562 83.0126V80.0188C124.431 80.0188 124.168 80.0188 123.38 80.0188C122.855 80.0188 122.198 80.0188 121.41 80.0188C119.44 80.0188 118.52 80.4093 118.257 80.5395Z" fill="#FCE1E0"/>
<path d="M125.219 83.273L113.923 82.2317C113.923 82.2317 113.792 81.8412 114.842 81.3205C116.024 80.7999 117.995 80.5396 118.126 80.5396H118.257L125.219 83.273ZM114.186 82.1015L124.299 83.0126L117.995 80.5396C117.601 80.5396 115.893 80.7999 114.974 81.1904C114.186 81.711 114.186 81.9713 114.186 82.1015Z" fill="#FCE1E0"/>
<path d="M113.923 84.1837C113.792 84.1837 112.609 83.663 112.741 83.0122C112.872 82.4916 113.792 82.1011 113.792 82.1011H113.923L125.219 83.1424L113.923 84.1837ZM114.054 82.2312C113.792 82.3614 113.135 82.6217 113.135 83.1424C113.004 83.663 113.923 84.0535 114.054 84.1837L124.168 83.2725L114.054 82.2312Z" fill="#FCE1E0"/>
<path d="M118.126 85.7459C117.863 85.7459 116.025 85.6157 114.842 85.0951C113.792 84.5744 113.792 84.0538 113.792 84.0538L125.088 83.0125L118.126 85.7459ZM114.186 84.1839C114.186 84.3141 114.317 84.7046 115.236 85.0951C116.156 85.4855 117.601 85.6157 118.126 85.7459L124.431 83.2728L114.186 84.1839Z" fill="#FCE1E0"/>
<path d="M126.401 86.5268C125.219 86.5268 124.694 86.3967 124.694 86.3967H124.562V83.0125L131.524 85.7459C131.524 85.7459 130.736 86.2665 128.24 86.3967C127.583 86.5268 126.926 86.5268 126.401 86.5268ZM124.956 86.2665C125.088 86.2665 125.613 86.3967 126.401 86.3967C126.926 86.3967 127.583 86.3967 128.24 86.3967C130.342 86.2665 130.998 85.876 131.261 85.7459L124.956 83.2728V86.2665Z" fill="#FCE1E0"/>
<path d="M128.897 82.7522C128.371 82.7522 127.583 82.7522 127.189 82.6221C126.795 82.4919 127.32 82.3618 127.583 82.2316C127.846 82.1014 127.977 81.9713 128.371 81.8411C128.503 81.8411 128.371 81.7109 128.24 81.8411C127.846 81.9713 126.27 82.6221 125.482 82.3618C124.956 82.2316 124.825 81.8411 124.825 81.7109C124.825 81.7109 124.694 81.7109 124.562 81.7109C124.431 81.8411 124.562 82.4919 123.643 82.4919C122.986 82.4919 122.461 82.2316 122.067 82.1014C122.067 82.1014 121.804 82.1014 121.935 82.1014C122.198 82.3618 122.461 82.4919 122.461 82.7522C122.461 82.8824 121.804 82.8824 121.278 82.8824C121.147 82.8824 121.147 82.8824 121.016 83.0126C121.278 83.1427 121.935 83.1427 122.067 83.4031C122.329 83.5332 121.41 83.6634 120.884 83.6634H120.753C120.622 83.6634 120.622 83.7935 120.622 83.6634C120.753 83.6634 120.884 83.6634 120.884 83.6634C121.016 83.6634 121.016 83.6634 121.147 83.6634C121.541 83.6634 121.935 83.6634 122.198 83.7935C122.461 83.9237 121.804 84.184 121.672 84.3142H121.804C121.935 84.3142 122.067 84.184 122.329 84.184H122.461C122.723 84.184 122.986 84.0539 123.249 84.0539C123.511 84.0539 123.643 84.184 123.905 84.3142C124.168 84.5745 124.431 84.7047 124.431 84.965H124.694C124.825 84.965 124.825 84.8348 124.825 84.8348C124.956 84.7047 124.956 84.5745 125.35 84.4444C125.876 84.3142 126.795 84.5745 127.189 84.7047C127.32 84.7047 127.452 84.7047 127.452 84.5745C127.189 84.4444 126.795 84.3142 126.664 84.184C126.401 84.0539 126.664 83.9237 127.189 83.9237H127.32C127.715 83.9237 127.977 83.9237 128.24 83.9237C128.371 83.9237 128.503 83.9237 128.371 83.7935C127.977 83.6634 127.452 83.6634 127.058 83.5332C126.401 83.4031 128.109 83.1427 128.503 83.1427C128.765 82.7522 129.028 82.7522 128.897 82.7522Z" fill="#FCE1E0"/>
<path d="M79.3783 83.1438C79.247 81.5818 77.5395 80.6707 76.3573 80.15C74.3871 79.2389 72.2855 79.7596 70.578 80.931C69.5272 81.5818 68.3451 82.3628 67.4256 83.274C66.7689 83.9248 65.1927 85.3566 65.4554 86.528C65.7181 87.5693 67.6883 87.1788 68.3451 87.1788C69.5272 87.309 70.8407 87.309 72.0228 87.4392C73.8617 87.4392 75.5692 87.309 77.2768 86.6582C78.9843 85.8772 79.641 85.0962 79.3783 83.1438Z" fill="#EDE7EF"/>
<path d="M79.3779 83.1437C79.2466 81.5818 77.539 80.6706 76.3569 80.15C75.1747 79.6293 73.9926 79.4992 72.8105 79.8896C73.7299 81.8421 75.3061 85.2263 73.0732 85.8771C70.8402 86.6581 67.9506 86.7883 65.455 86.2676C65.7177 87.3089 67.6879 86.9184 68.3446 86.9184C69.5268 87.0486 70.8402 87.0486 72.0224 87.1788C73.8613 87.1788 75.5688 87.0486 77.2763 86.3978C78.9839 85.8771 79.6406 85.0962 79.3779 83.1437Z" fill="#D8E0E7"/>
<path d="M71.3661 82.2318C70.7093 81.8414 70.0526 82.1017 69.5272 82.362C69.0018 82.6223 68.4764 83.143 68.3451 83.7938V83.924C68.0824 84.1843 67.557 84.7049 67.951 84.9653C68.0824 85.0954 68.3451 85.0954 68.4764 85.0954C68.8705 85.2256 69.5272 84.5748 69.7899 84.4446C70.1839 84.0541 70.7093 83.7938 71.1034 83.4033C71.2347 83.2731 71.3661 83.143 71.4974 83.0128C71.6288 82.7525 71.7601 82.362 71.3661 82.2318Z" fill="white"/>
<path d="M94.352 75.2036C94.2207 73.902 92.9072 73.3813 91.9878 72.8607C90.4116 72.0797 88.8354 72.6004 87.5219 73.3813C86.7338 73.902 85.8144 74.4226 85.0263 75.2036C84.5009 75.7243 83.3188 76.8957 83.4501 77.6767C83.5815 78.4577 85.1576 78.1974 85.683 78.1974C86.6025 78.1974 87.6533 78.3275 88.5727 78.3275C89.8862 78.3275 91.331 78.1974 92.6445 77.8069C94.0893 77.2862 94.6147 76.7656 94.352 75.2036Z" fill="#EDE7EF"/>
<path d="M94.352 75.2035C94.2207 73.9019 92.9072 73.3813 91.9877 72.8606C91.0683 72.4701 90.1488 72.34 89.2294 72.6003C90.0175 74.0321 91.1996 76.6353 89.4921 77.2861C87.7846 77.8068 85.5516 78.0671 83.5814 77.6766C83.7128 78.4576 85.289 78.1973 85.8143 78.1973C86.7338 78.1973 87.7846 78.3274 88.704 78.3274C90.0175 78.3274 91.4623 78.1973 92.7758 77.8068C94.0893 77.2861 94.6147 76.7655 94.352 75.2035Z" fill="#D8E0E7"/>
<path d="M88.31 74.5524C87.7846 74.1619 87.2592 74.4223 86.8651 74.5524C86.4711 74.8128 86.0771 75.2032 85.9457 75.7239C85.9457 75.7239 85.9457 75.7239 85.9457 75.8541C85.8144 75.9842 85.289 76.5049 85.683 76.635C85.8144 76.7652 85.9457 76.7652 86.0771 76.7652C86.3398 76.8954 86.9965 76.3747 87.1278 76.2445C87.3905 75.9842 87.7846 75.7239 88.0473 75.4636C88.1786 75.3334 88.31 75.3334 88.31 75.2032C88.31 74.9429 88.4413 74.6826 88.31 74.5524Z" fill="white"/>
<path d="M134.413 73.5117C134.282 72.2101 132.968 71.6894 132.049 71.1688C130.473 70.3878 128.897 70.9085 127.583 71.6895C126.795 72.2101 125.876 72.7308 125.088 73.5117C124.562 74.0324 123.38 75.2038 123.511 75.9848C123.643 76.7658 125.219 76.5055 125.744 76.5055C126.664 76.5055 127.714 76.6356 128.634 76.6356C129.947 76.6356 131.392 76.5055 132.706 76.115C134.019 75.5943 134.545 74.9435 134.413 73.5117Z" fill="#EDE7EF"/>
<path d="M134.413 73.5116C134.282 72.21 132.969 71.6894 132.049 71.1687C131.13 70.7782 130.21 70.6481 129.291 70.9084C130.079 72.3402 131.261 74.9434 129.553 75.5942C127.846 76.1149 125.613 76.3752 123.643 75.9847C123.774 76.7657 125.35 76.5054 125.876 76.5054C126.795 76.5054 127.846 76.6355 128.765 76.6355C130.079 76.6355 131.524 76.5054 132.837 76.1149C134.019 75.5942 134.545 74.9434 134.413 73.5116Z" fill="#D8E0E7"/>
<path d="M128.24 72.8613C127.715 72.4708 127.189 72.7311 126.795 72.8613C126.401 73.1216 126.007 73.5121 125.876 74.0327C125.876 74.0327 125.876 74.0327 125.876 74.1629C125.744 74.2931 125.219 74.8137 125.613 74.9439C125.744 75.074 125.876 75.074 126.007 75.074C126.27 75.2042 126.926 74.6835 127.058 74.5534C127.32 74.2931 127.715 74.0327 127.977 73.7724C128.109 73.6422 128.24 73.6422 128.24 73.5121C128.371 73.2518 128.503 72.9914 128.24 72.8613Z" fill="white"/>
<path d="M112.61 84.9658C112.478 83.9245 111.427 83.4039 110.639 83.0134C109.326 82.3626 108.012 82.7531 106.83 83.534C106.042 84.0547 105.385 84.4452 104.729 85.096C104.203 85.4865 103.284 86.5278 103.415 87.1786C103.547 87.8294 104.86 87.5691 105.254 87.5691C106.042 87.5691 106.83 87.6993 107.75 87.6993C108.932 87.6993 110.114 87.5691 111.165 87.1786C112.347 86.7881 112.741 86.2675 112.61 84.9658Z" fill="#EDE7EF"/>
<path d="M112.61 84.9659C112.478 83.9246 111.427 83.404 110.639 83.0135C109.851 82.623 109.063 82.623 108.275 82.8833C108.932 84.185 109.983 86.3977 108.406 86.9184C106.962 87.439 104.991 87.5692 103.415 87.1787C103.547 87.8295 104.86 87.5692 105.254 87.5692C106.042 87.5692 106.83 87.6994 107.75 87.6994C108.932 87.6994 110.114 87.5692 111.165 87.1787C112.347 86.7882 112.741 86.2676 112.61 84.9659Z" fill="#D8E0E7"/>
<path d="M107.356 84.445C106.962 84.1847 106.436 84.3148 106.173 84.445C105.779 84.5751 105.517 84.9656 105.385 85.3561C105.385 85.3561 105.385 85.3561 105.385 85.4863C105.254 85.6164 104.86 86.0069 105.123 86.1371C105.254 86.2673 105.385 86.2673 105.517 86.2673C105.779 86.2673 106.305 86.0069 106.436 85.8768C106.699 85.6164 106.962 85.4863 107.224 85.226C107.356 85.0958 107.356 85.0958 107.487 84.9656C107.487 84.8355 107.618 84.5751 107.356 84.445Z" fill="white"/>
<path d="M148.73 84.1851C148.599 83.1438 147.548 82.6231 146.76 82.2326C145.447 81.5818 144.133 81.9723 142.951 82.7533C142.163 83.2739 141.506 83.6644 140.849 84.3152C140.324 84.7057 139.405 85.747 139.536 86.3978C139.667 87.0487 140.981 86.7883 141.375 86.7883C142.163 86.7883 142.951 86.9185 143.87 86.9185C145.053 86.9185 146.235 86.7883 147.286 86.3978C148.468 86.0074 148.862 85.4867 148.73 84.1851Z" fill="#EDE7EF"/>
<path d="M148.73 84.1854C148.599 83.1441 147.548 82.6235 146.76 82.233C145.972 81.8425 145.184 81.8425 144.396 82.1028C145.052 83.4044 146.103 85.6172 144.527 86.1379C143.082 86.6585 141.112 86.7887 139.536 86.3982C139.667 87.049 140.981 86.7887 141.375 86.7887C142.163 86.7887 142.951 86.9188 143.87 86.9188C145.052 86.9188 146.235 86.7887 147.285 86.3982C148.468 86.0077 148.862 85.487 148.73 84.1854Z" fill="#D8E0E7"/>
<path d="M143.476 83.664C143.345 83.664 143.345 83.664 143.476 83.664C143.082 83.4036 142.557 83.5338 142.294 83.664C141.9 83.7941 141.637 84.1846 141.506 84.5751C141.506 84.5751 141.506 84.5751 141.506 84.7053C141.375 84.8354 140.981 85.2259 141.243 85.3561C141.375 85.4863 141.506 85.4862 141.638 85.4862C141.9 85.4862 142.426 85.2259 142.557 85.0958C142.82 84.8354 143.082 84.7053 143.345 84.4449C143.476 84.3148 143.476 84.3148 143.608 84.1846C143.608 84.0545 143.739 83.7941 143.476 83.664Z" fill="white"/>
<path d="M96.979 77.416C97.3731 77.0256 97.6358 76.6351 97.5044 76.1144V75.9843C97.3731 75.9843 97.1104 75.9843 96.979 76.1144C96.979 75.8541 97.1104 75.7239 97.1104 75.4636C97.1104 75.2033 97.2417 74.6826 96.979 74.5525C96.585 74.162 95.7969 74.8128 95.4029 75.3334C95.4029 75.2033 95.4029 74.943 95.2715 74.943C95.1402 74.8128 94.7461 75.0731 94.6148 75.2033C94.0894 75.4636 93.8267 76.1144 93.6953 76.6351C93.6953 76.5049 93.564 76.3747 93.4326 76.3747C93.4326 76.3747 93.3013 76.3747 93.3013 76.5049C92.9072 77.1557 93.0386 77.8065 93.4326 78.3272C93.8267 78.8478 94.4834 78.978 95.1402 78.8478C95.6656 78.7177 96.979 78.3272 96.979 77.6764V77.5462C97.2417 77.416 97.1104 77.416 96.979 77.416Z" fill="#8FD07E"/>
<path d="M97.6358 76.1142C97.3731 75.984 97.2418 76.1142 97.1104 76.1142C97.1104 75.8539 97.2418 75.7237 97.2418 75.4634C97.2418 75.2031 97.3731 74.6824 97.1104 74.5522C95.5343 75.4634 94.6148 76.8952 94.2208 78.5873C94.6148 78.7175 95.0089 78.7175 95.5342 78.7175C96.0596 78.5873 97.3731 78.1968 97.3731 77.546V77.4158C97.2418 77.4158 97.2418 77.2857 97.1104 77.2857C97.3731 77.0253 97.6358 76.6349 97.6358 76.1142Z" fill="#8FD07E"/>
<path d="M81.0858 80.4098C81.8739 80.6702 82.662 80.6702 83.3188 80.1495C83.3188 80.1495 83.4501 80.0193 83.3188 80.0193C83.1874 79.759 83.0561 79.6289 82.7934 79.3685C83.1874 79.2384 83.4501 79.2384 83.8441 78.978C84.1068 78.8479 85.0263 78.5876 85.0263 78.1971C85.1576 77.2859 83.7128 76.8954 82.7934 76.7653C83.0561 76.6351 83.3188 76.505 83.3188 76.2446C83.3188 75.8541 82.662 75.5938 82.5307 75.4636C81.7426 75.0732 80.6918 75.0732 79.7723 75.3335C79.9037 75.2033 79.9037 75.0732 80.035 74.8128C80.035 74.6827 79.9037 74.5525 79.7723 74.5525C78.5902 74.4223 77.6708 75.3335 77.2767 76.2446C76.8827 77.2859 77.2767 78.3272 77.9335 79.1082C78.4589 79.759 80.035 81.1908 81.0858 80.8003L81.2172 80.6702C81.2172 80.6702 81.2172 80.54 81.0858 80.4098Z" fill="#8FD07E"/>
<path d="M83.3188 80.1497C83.3188 80.1497 83.4501 80.0195 83.3188 80.0195C83.1874 79.7592 83.0561 79.629 82.7934 79.3687C83.1874 79.2385 83.4501 79.2385 83.8442 78.9782C84.1069 78.8481 85.0263 78.5877 85.0263 78.1972C82.662 76.7655 79.7724 76.5051 77.014 77.4163C77.014 78.0671 77.4081 78.7179 77.8021 79.2385C78.3275 79.8894 79.9037 81.3211 80.9545 80.9307L81.0858 80.8005C81.0858 80.6703 81.0858 80.5402 81.0858 80.41C81.8739 80.6703 82.662 80.8005 83.3188 80.1497Z" fill="#8FD07E"/>
<path d="M131.655 79.4985C132.443 79.7588 133.231 79.7588 133.888 79.2381C133.888 79.2381 134.019 79.108 133.888 79.108C133.757 78.8476 133.625 78.7175 133.363 78.4572C133.757 78.327 134.019 78.1968 134.413 78.0667C134.676 77.9365 135.595 77.6762 135.595 77.2857C135.727 76.3745 134.282 75.9841 133.363 75.8539C133.625 75.7237 133.888 75.5936 133.888 75.3332C133.888 74.9428 133.231 74.6824 133.1 74.5523C132.312 74.1618 131.261 74.1618 130.342 74.4221C130.473 74.2919 130.473 74.1618 130.604 73.9015C130.604 73.7713 130.473 73.7713 130.342 73.6411C129.159 73.511 128.24 74.4221 127.846 75.3332C127.452 76.3745 127.846 77.4159 128.503 78.1968C129.028 78.8476 130.604 80.2794 131.655 79.8889L131.786 79.7588C131.655 79.7588 131.655 79.6286 131.655 79.4985Z" fill="#8FD07E"/>
<path d="M133.888 79.2383C133.888 79.2383 134.019 79.1081 133.888 79.1081C133.757 78.8478 133.625 78.7177 133.363 78.4573C133.757 78.3272 134.019 78.197 134.413 78.0668C134.676 77.9367 135.596 77.6764 135.596 77.2859C133.231 75.8541 130.342 75.5937 127.583 76.5049C127.583 77.1557 127.977 77.8065 128.371 78.3272C128.897 78.978 130.473 80.4098 131.524 80.0193L131.655 79.8891C131.655 79.759 131.655 79.6288 131.655 79.4986C132.312 79.759 133.231 79.8891 133.888 79.2383Z" fill="#8FD07E"/>
<path d="M60.3328 85.6161C61.1209 85.8765 61.909 85.8765 62.5657 85.3558C62.5657 85.3558 62.6971 85.2256 62.5657 85.2256C62.4344 84.9653 62.303 84.8352 62.0403 84.5748C62.4344 84.4447 62.6971 84.4447 63.0911 84.1843C63.3538 84.0542 64.2732 83.7939 64.2732 83.4034C64.4046 82.4922 62.9597 82.1017 62.0403 81.9716C62.303 81.8414 62.5657 81.7112 62.5657 81.4509C62.5657 81.0604 61.909 80.8001 61.7776 80.6699C60.9895 80.2795 59.9387 80.2795 59.0193 80.5398C59.1506 80.4096 59.1506 80.2795 59.282 80.0191C59.282 79.889 59.1506 79.889 59.0193 79.7588C57.8372 79.6286 56.9177 80.5398 56.5237 81.4509C56.1296 82.4922 56.5237 83.5335 57.1804 84.3145C57.7058 84.9653 59.282 86.3971 60.3328 86.0066L60.4641 85.8765C60.4641 85.8765 60.3328 85.7463 60.3328 85.6161Z" fill="#8FD07E"/>
<path d="M62.5657 85.356C62.5657 85.356 62.6971 85.2258 62.5657 85.2258C62.4344 84.9655 62.303 84.8353 62.0403 84.575C62.4344 84.4448 62.6971 84.4448 63.0911 84.1845C63.3538 84.0544 64.2732 83.794 64.2732 83.4035C61.909 81.9717 59.0193 81.7114 56.261 82.6226C56.261 83.2734 56.655 83.9242 57.0491 84.4448C57.5745 85.0957 59.1507 86.5274 60.2014 86.137L60.3328 86.0068C60.3328 85.8766 60.3328 85.7465 60.3328 85.6163C61.1209 85.8766 61.909 85.8766 62.5657 85.356Z" fill="#8FD07E"/>
<path d="M53.7654 79.6289C54.2908 79.4988 54.6848 79.1083 54.8162 78.5876V78.4575C54.6848 78.3273 54.4221 78.3273 54.2908 78.3273C54.4221 78.1971 54.5535 77.9368 54.6848 77.8067C54.8162 77.6765 55.0788 77.1559 54.9475 76.8955C54.6848 76.3749 53.7654 76.7654 53.24 77.0257C53.3713 76.8955 53.3713 76.6352 53.24 76.505C53.1086 76.2447 52.5832 76.3749 52.4519 76.505C51.9265 76.6352 51.4011 77.0257 51.007 77.5463C51.007 77.4162 51.007 77.286 50.8757 77.1558C50.8757 77.1558 50.7443 77.1558 50.613 77.1558C49.9563 77.5463 49.8249 78.3273 50.0876 78.9781C50.3503 79.6289 50.8757 80.0194 51.6638 80.1496C52.1892 80.2798 53.634 80.4099 53.8967 79.7591V79.6289C53.8967 79.7591 53.8967 79.7591 53.7654 79.6289Z" fill="#8FD07E"/>
<path d="M54.8162 78.5881C54.6848 78.4579 54.4221 78.4579 54.2908 78.4579C54.4221 78.3278 54.5535 78.0674 54.6848 77.9373C54.8162 77.8071 55.0789 77.2864 54.9475 77.0261C53.1087 77.2864 51.5325 78.3278 50.613 79.8897C50.8757 80.15 51.4011 80.4104 51.7952 80.4104C52.3206 80.5405 53.7654 80.6707 54.0281 80.0199V79.8897C54.0281 79.7595 53.8967 79.7595 53.7654 79.7595C54.2908 79.4992 54.6848 79.1087 54.8162 78.5881Z" fill="#8FD07E"/>
<path opacity="0.1" d="M163.835 57.3711C163.835 60.6252 151.751 63.3586 133.757 64.9205C136.778 81.8417 137.96 99.1533 129.816 114.513C121.41 130.392 103.941 138.853 86.0771 139.113C67.951 139.504 50.613 131.954 41.1559 115.944C30.648 98.2422 31.8302 78.067 37.4782 59.0632C36.5587 58.6727 36.0333 58.0219 36.0333 57.3711C36.0333 57.3711 -9.2819 143.148 95.1402 148.355H104.729C209.151 143.148 163.835 57.5013 163.835 57.3711Z" fill="#FF8921"/>
<path opacity="0.1" d="M163.835 57.3711C163.835 58.5426 162.128 59.714 158.976 60.7553C160.42 69.4762 160.683 78.3273 159.501 87.0482C157.005 105.792 146.76 123.754 129.685 133.126C111.427 143.148 85.5517 146.663 65.5867 139.894C40.2365 131.304 28.0211 108.395 27.3643 84.4449C23.1612 110.087 29.5973 145.101 95.2715 148.355H104.86C209.151 143.148 163.835 57.5013 163.835 57.3711Z" fill="#FF7800"/>
<path opacity="0.5" d="M45.2277 109.827C51.0071 125.317 63.7479 131.434 63.7479 131.434C63.7479 131.434 60.4642 124.145 57.9685 113.342C53.634 112.43 49.4309 111.259 45.2277 109.827Z" fill="white"/>
<path opacity="0.5" d="M43.3888 104.23C47.7233 105.271 52.0578 105.922 56.5237 106.443C54.8161 95.2487 54.4221 81.842 58.4939 68.8257L45.6217 67.0034C45.6217 67.0034 39.7111 79.2387 42.8634 101.366C42.9948 102.278 43.2575 103.189 43.3888 104.23Z" fill="white"/>
<path d="M100 48.2595C64.2733 48.2595 35.2452 52.2946 35.2452 57.3709C35.2452 62.4473 64.2733 66.4823 100 66.4823C135.727 66.4823 164.755 62.4473 164.755 57.3709C164.755 52.2946 135.727 48.2595 100 48.2595Z" fill="#EFF7FF"/>
<path d="M100 66.7427C82.6621 66.7427 66.3748 65.8316 54.1594 64.1395C45.3591 62.8378 34.8512 60.6251 34.8512 57.371C34.8512 54.1169 45.3591 51.9042 54.0281 50.7327C66.2435 49.0406 82.5307 48.1295 99.8687 48.1295C117.338 47.9993 133.625 48.9104 145.841 50.6025C154.641 51.774 165.018 53.9868 165.018 57.2408C165.018 60.4949 154.51 62.7077 145.841 63.8791C133.625 65.7014 117.338 66.7427 100 66.7427ZM100 48.5199C82.6621 48.5199 66.3748 49.4311 54.1594 51.1232C37.2155 53.5963 35.3766 56.3297 35.3766 57.371C35.3766 58.4123 37.2155 61.1457 54.1594 63.4887C66.3748 65.1808 82.6621 66.0919 100 66.0919C117.338 66.0919 133.494 65.1808 145.841 63.4887C162.785 61.1457 164.624 58.4123 164.624 57.371C164.624 56.3297 162.785 53.5963 145.841 51.2534C133.494 49.4311 117.207 48.5199 100 48.5199Z" fill="#CEE7FE"/>
<path opacity="0.4" d="M44.3083 62.057C61.5149 53.3361 82.3993 52.5551 101.314 52.2948C121.279 52.1646 141.9 53.8568 160.814 60.4951C163.31 59.5839 164.755 58.5426 164.755 57.3712C164.755 52.2948 135.727 48.2598 100 48.2598C64.2733 48.2598 35.2452 52.2948 35.2452 57.3712C35.1139 59.0633 38.5289 60.6252 44.3083 62.057Z" fill="#A1BFC6"/>
</g>
<defs>
<linearGradient id="paint0_linear_2003_15878" x1="100" y1="80.28" x2="100" y2="148.225" gradientUnits="userSpaceOnUse">
<stop stop-color="#FF4454"/>
<stop offset="1" stop-color="#B10F1D"/>
</linearGradient>
<clipPath id="clip0_2003_15878">
<rect width="150" height="104" fill="white" transform="translate(25 48)"/>
</clipPath>
</defs>
</svg>
