<svg width="200" height="200" viewBox="0 0 200 200" fill="none" xmlns="http://www.w3.org/2000/svg">
<path d="M152.767 123.671C152.767 112.071 153.099 109.806 149.167 102.956C146.62 96.8239 145.07 95.3324 140.141 66.6622C137.871 48.9297 133.995 46.3334 122.255 42.356C113.063 39.4282 110.183 37.6053 108.91 36.1138C105.587 37.6605 78.0101 36.1138 78.0101 36.1138C78.0101 36.1138 69.0947 43.737 56.6906 53.0728C48.2735 59.4808 47.3322 64.0106 47.3322 71.0262C47.3322 78.0419 47.3322 129.969 47.3322 144.331C47.3322 166.704 46.8891 171.897 51.596 177.145C51.596 177.145 57.0782 182.835 64.1663 182.835H137.649C137.649 182.835 144.239 182.724 147.562 178.802C151.216 174.327 152.767 168.306 152.767 165.544C152.767 161.014 152.767 131.571 152.767 123.671ZM134.327 99.9727C130.063 98.3154 125.91 96.3267 125.522 90.9131C125.135 85.4994 125.633 70.4738 126.63 63.5687C127.626 56.6635 131.669 54.3986 132.167 60.1989C132.167 60.1989 133.552 80.3068 137.428 95.2219C138.757 99.586 138.591 101.575 134.327 99.9727Z" fill="url(#paint0_linear_2003_15678)"/>
<path d="M137.65 183H64.1664C57.0229 183 51.5962 177.476 51.3747 177.2C47 172.339 47 167.477 47 149.469C47 147.811 47 146.044 47 144.166V70.9156C47 64.2867 47.6645 59.4254 56.4692 52.7412C68.6518 43.5159 77.678 35.8927 77.7333 35.8374C77.7887 35.7822 77.8995 35.7269 77.9549 35.7822C78.0656 35.7822 90.4697 36.5003 99.4959 36.5003C105.919 36.5003 108.079 36.1689 108.688 35.8374C108.799 35.7822 108.965 35.7822 109.076 35.8926C110.128 37.108 112.62 38.9309 122.311 42.0244C134.105 46.057 138.148 48.8191 140.418 66.6068C144.793 92.1282 146.51 96.0504 148.614 100.967C148.891 101.575 149.112 102.182 149.389 102.845C153.044 109.198 153.044 111.739 152.989 121.24V123.616V165.433C152.989 168.306 151.327 174.438 147.728 178.912C144.405 182.89 137.926 183 137.65 183ZM78.0656 36.3898C77.0689 37.2737 68.3749 44.5655 56.8568 53.2384C48.2736 59.7569 47.6645 64.2867 47.6645 70.9156V144.221C47.6645 146.099 47.6645 147.867 47.6645 149.524C47.6091 167.367 47.6091 172.118 51.873 176.813C51.9284 176.868 57.2998 182.392 64.1664 182.392H137.65C137.816 182.392 144.128 182.227 147.285 178.47C150.829 174.106 152.435 168.251 152.435 165.433V121.24C152.435 111.628 152.435 109.364 148.891 103.121C148.614 102.403 148.337 101.795 148.06 101.243C145.9 96.2713 144.184 92.3492 139.809 66.7173C137.483 48.7639 133.496 46.499 122.144 42.6321C112.731 39.6491 110.017 37.7708 108.799 36.5003C107.581 36.9422 104.535 37.108 99.5513 37.108C90.9681 37.108 79.45 36.5003 78.0656 36.3898ZM136.708 100.856C136.099 100.856 135.268 100.691 134.216 100.249C129.842 98.5915 125.578 96.4923 125.19 90.9129C124.802 85.444 125.356 70.308 126.353 63.458C126.962 59.4254 128.623 56.4976 130.395 56.4976C130.949 56.4976 132.278 56.8291 132.555 60.0883C132.555 60.3093 133.995 80.3066 137.816 95.056C138.48 97.4866 138.812 99.2544 138.148 100.193C137.816 100.635 137.317 100.856 136.708 100.856ZM130.395 57.2158C129.232 57.2158 127.571 59.6464 127.017 63.6238C126.021 70.4184 125.522 85.444 125.91 90.9129C126.298 96.1056 130.174 98.0391 134.493 99.6963C136.21 100.359 137.262 100.414 137.65 99.862C138.203 99.0886 137.705 97.0447 137.207 95.277C133.33 80.4723 131.946 60.3645 131.89 60.1988C131.724 58.3206 131.171 57.2158 130.395 57.2158Z" fill="#D6F2FF"/>
<path opacity="0.7" d="M149.168 102.956C146.62 96.8239 145.07 95.3324 140.141 66.6622C137.871 48.9297 133.995 46.3334 122.255 42.356C113.063 39.4282 110.183 37.6053 108.91 36.1138C105.587 37.6605 78.0101 36.1138 78.0101 36.1138C78.0101 36.1138 69.0947 43.737 56.6906 53.0728C48.2735 59.4808 47.3322 64.0106 47.3322 71.0262C47.3322 78.0419 47.3322 129.969 47.3322 144.331C47.3322 166.704 46.8891 171.897 51.596 177.145C51.596 177.145 57.0782 182.835 64.1663 182.835H137.649C137.649 182.835 144.239 182.724 147.562 178.802C151.216 174.327 152.767 168.306 152.767 165.544C152.767 161.125 152.767 131.681 152.767 123.782C152.767 112.07 153.044 109.806 149.168 102.956ZM57.4105 54.8405L77.0134 38.9311C83.9353 43.4608 100.825 42.0798 100.825 42.0798C100.825 42.0798 107.304 52.5204 107.636 55.0063C107.968 57.4921 100.825 57.4921 100.825 57.4921C100.825 57.4921 62.3943 58.4865 58.4626 57.4921C54.531 56.4425 57.4105 54.8405 57.4105 54.8405ZM132.721 122.235V173.278C131.392 179.962 117.659 178.636 117.659 178.636H61.5083C50.7101 175.156 51.9283 156.871 51.9283 156.871C51.9283 156.871 51.1531 74.4512 51.9283 69.0928C52.7036 63.7344 62.505 63.8449 62.505 63.8449C62.505 63.8449 96.9485 63.7344 101.988 64.563C106.971 65.3916 110.017 65.3916 112.288 92.1284C113.174 102.403 122.421 106.988 128.125 111.739C133.884 116.545 132.721 122.235 132.721 122.235ZM134.327 99.9727C130.063 98.3154 125.91 96.3267 125.522 90.9131C125.135 85.4994 125.633 70.4738 126.63 63.5687C127.626 56.6635 131.669 54.3986 132.167 60.1989C132.167 60.1989 133.552 80.3068 137.428 95.2219C138.757 99.586 138.591 101.575 134.327 99.9727Z" fill="#D0EBFF"/>
<path opacity="0.7" d="M143.962 86.8251C141.747 87.1565 139.532 87.267 137.317 87.267C136.819 87.267 136.265 87.267 135.711 87.267C136.21 89.9738 136.819 92.6807 137.483 95.2218C138.757 99.6411 138.591 101.63 134.327 99.9725C130.063 98.3153 125.91 96.3266 125.522 90.9129C125.467 89.6976 125.412 88.0404 125.412 86.0517C124.581 85.9412 123.806 85.9965 123.363 86.3279C123.584 89.2005 123.141 92.073 123.03 95.0008C122.92 98.4258 123.529 101.685 125.467 104.613C127.903 108.314 131.337 110.745 134.936 113.23C137.65 115.109 139.698 117.705 140.64 120.909C141.692 124.334 141.747 127.98 141.803 131.571C141.913 136.874 141.913 142.177 141.969 147.425C141.969 152.783 141.913 158.142 141.858 163.5C141.803 167.864 142.19 172.67 140.529 176.758C139.311 179.741 137.373 181.619 134.438 182.669H137.594C137.594 182.669 144.184 182.558 147.506 178.636C151.161 174.162 152.712 168.14 152.712 165.378V123.616C152.712 112.015 153.044 109.75 149.112 102.9C147.396 98.7572 146.122 96.7685 143.962 86.8251Z" fill="url(#paint1_linear_2003_15678)"/>
<path opacity="0.7" d="M80.6128 37.8263C84.1015 39.6493 88.1993 39.9255 92.0756 39.9807C96.2287 39.9807 100.659 39.1521 104.756 39.815C108.245 40.3674 111.18 42.0799 114.226 43.7371C116.662 45.1182 119.985 46.1125 121.369 48.7641C122.089 50.1451 121.867 51.9681 121.646 53.4044C121.424 55.1721 121.203 56.8846 121.092 58.7075C120.76 66.7175 121.591 74.7827 123.64 82.5165C124.581 77.4343 124.581 72.2416 125.079 67.1042C125.467 63.0163 125.688 58.0999 128.734 54.9511C130.617 53.0177 133.109 51.5814 135.822 50.8632C133.053 46.3887 128.956 44.5657 122.255 42.3009C113.063 39.3731 110.183 37.5501 108.91 36.0586C105.753 37.5501 80.2252 36.1691 78.1209 36.0586C78.8408 36.7767 79.6715 37.3844 80.6128 37.8263Z" fill="#F1FAFF"/>
<path d="M151.659 108.204C151.106 106.602 150.33 105 149.168 102.956C146.62 96.8242 145.07 95.3327 140.141 66.6625C138.591 54.6751 136.321 49.5929 131.392 46.3337C130.395 46.0022 129.399 46.0575 128.457 46.4994C123.141 48.9853 121.978 68.0435 121.812 88.2066C122.144 102.625 129.288 107.099 142.91 111.076C148.669 112.457 152.435 112.126 151.659 108.204ZM134.327 99.9729C130.063 98.3157 125.91 96.327 125.522 90.9134C125.135 85.4997 125.633 70.4741 126.63 63.5689C127.627 56.6638 131.669 54.3989 132.167 60.1992C132.167 60.1992 133.552 80.3071 137.428 95.2222C138.757 99.5863 138.591 101.575 134.327 99.9729Z" fill="url(#paint2_linear_2003_15678)"/>
<path opacity="0.7" d="M140.529 88.4275C138.369 80.086 137.373 71.4132 136.32 62.8508C136.044 60.5306 135.877 55.2275 132.721 54.7303C129.897 54.2884 128.623 56.6085 128.014 58.9839C129.565 56.0008 131.835 55.9456 132.167 60.144C132.167 60.144 133.552 80.2518 137.428 95.1669C138.702 99.5862 138.536 101.575 134.272 99.9177C131.392 98.8128 128.623 97.5423 126.962 95.2774C127.516 98.8681 132.721 100.967 136.154 101.906C137.982 102.404 143.076 103.84 143.464 100.857C143.741 98.7576 142.633 96.2717 142.024 94.2831C141.581 92.3496 141.027 90.4161 140.529 88.4275Z" fill="url(#paint3_linear_2003_15678)"/>
<path d="M124.359 56.6084C124.359 56.6084 122.366 78.7602 122.366 86.9359C122.366 95.1116 124.027 104.447 138.757 109.585C130.783 109.198 120.317 103.895 120.705 91.3552C121.092 78.7049 124.359 56.6084 124.359 56.6084Z" fill="#D9F1FD"/>
<path d="M108.079 30.8667V34.2364C108.079 34.2364 109.629 33.9602 109.629 35.1755C109.629 36.3356 108.688 37.8823 101.766 38.8214C92.5185 39.8158 84.8213 38.8214 84.8213 38.8214C77.8993 37.8823 76.958 36.3908 76.958 35.1755C76.958 34.0154 78.5085 34.2364 78.5085 34.2364V30.8667H108.079Z" fill="#F4FBFE"/>
<path d="M93.2385 39.5938C88.2547 39.5938 84.766 39.1518 84.766 39.1518C77.5119 38.1575 76.6259 36.5555 76.6259 35.1745C76.6259 34.4011 77.1796 33.9039 78.1764 33.9039V30.8656C78.1764 30.6999 78.3425 30.5342 78.5086 30.5342H108.134C108.301 30.5342 108.467 30.6999 108.467 30.8656V33.9039C109.408 33.9039 109.962 34.4011 109.962 35.1745C109.962 36.5003 109.02 38.1575 101.822 39.1518C98.9975 39.428 96.118 39.5938 93.2385 39.5938ZM78.0656 34.5668C77.1796 34.5668 77.1796 35.0087 77.1796 35.1745C77.1796 35.7269 77.1796 37.4946 84.766 38.4889C84.8214 38.4889 88.2547 38.9309 93.1831 38.9309C96.0626 38.9309 98.9421 38.7651 101.656 38.4889C109.242 37.4946 109.242 35.7269 109.242 35.1745C109.242 35.0087 109.242 34.5668 108.356 34.5668C108.19 34.5668 108.079 34.5668 108.079 34.5668C107.968 34.5668 107.913 34.5668 107.802 34.5116C107.747 34.4563 107.691 34.3458 107.691 34.2354V31.1971H78.7301V34.2354C78.7301 34.3458 78.6748 34.4011 78.6194 34.5116C78.564 34.5668 78.4533 34.622 78.3425 34.5668C78.3425 34.5668 78.2318 34.5668 78.0656 34.5668Z" fill="#9CCAE0"/>
<path d="M108.079 30.8667V34.2364C108.079 34.2364 109.629 33.9602 109.629 35.1755C109.629 36.3356 108.688 37.8823 101.766 38.8214C92.5185 39.8158 84.8213 38.8214 84.8213 38.8214C77.8993 37.8823 76.958 36.3908 76.958 35.1755C76.958 34.0154 78.5085 34.2364 78.5085 34.2364V30.8667H108.079Z" fill="#9DDBFF"/>
<path d="M93.2385 39.5938C88.2547 39.5938 84.766 39.1518 84.766 39.1518C77.5119 38.1575 76.6259 36.5555 76.6259 35.1745C76.6259 34.4011 77.1796 33.9039 78.1764 33.9039V30.8656C78.1764 30.6999 78.3425 30.5342 78.5086 30.5342H108.134C108.301 30.5342 108.467 30.6999 108.467 30.8656V33.9039C109.408 33.9039 109.962 34.4011 109.962 35.1745C109.962 36.5003 109.02 38.1575 101.822 39.1518C98.9975 39.428 96.118 39.5938 93.2385 39.5938ZM78.0656 34.5668C77.1796 34.5668 77.1796 35.0087 77.1796 35.1745C77.1796 35.7269 77.1796 37.4946 84.766 38.4889C84.8214 38.4889 88.2547 38.9309 93.1831 38.9309C96.0626 38.9309 98.9421 38.7651 101.656 38.4889C109.242 37.4946 109.242 35.7269 109.242 35.1745C109.242 35.0087 109.242 34.5668 108.356 34.5668C108.19 34.5668 108.079 34.5668 108.079 34.5668C107.968 34.5668 107.913 34.5668 107.802 34.5116C107.747 34.4563 107.691 34.3458 107.691 34.2354V31.1971H78.7301V34.2354C78.7301 34.3458 78.6748 34.4011 78.6194 34.5116C78.564 34.5668 78.4533 34.622 78.3425 34.5668C78.3425 34.5668 78.2318 34.5668 78.0656 34.5668Z" fill="#C6ECFF"/>
<path d="M78.398 34.2906C78.398 34.2906 76.8475 34.0144 76.8475 35.2298C76.8475 36.3898 77.7888 37.9366 84.7108 38.8757C84.7108 38.8757 92.4079 39.87 101.656 38.8757C108.578 37.9366 109.519 36.4451 109.519 35.2298C109.519 34.0697 107.968 34.2906 107.968 34.2906C105.366 35.4507 101.323 36.7765 92.7402 36.8318C83.0495 36.887 78.398 34.2906 78.398 34.2906Z" fill="#D5E3FF"/>
<path d="M93.2385 39.5937C88.2547 39.5937 84.766 39.1517 84.766 39.1517C77.5119 38.1574 76.6259 36.5554 76.6259 35.1744C76.6259 34.401 77.1796 33.9038 78.1764 33.9038C78.3979 33.9038 78.564 33.959 78.564 33.959C78.6194 33.959 78.6194 33.959 78.6747 34.0143C78.7301 34.0143 83.2155 36.5001 92.5186 36.5001H92.9616C101.6 36.4449 105.532 35.1191 108.024 34.0143C108.024 34.0143 108.079 34.0143 108.134 34.0143C108.134 34.0143 108.301 33.959 108.522 33.959C109.463 33.959 110.017 34.4562 110.017 35.2296C110.017 36.5554 109.076 38.2126 101.877 39.207C98.9975 39.4279 96.118 39.5937 93.2385 39.5937ZM78.0656 34.5667C77.1796 34.5667 77.1796 35.0086 77.1796 35.1744C77.1796 35.7268 77.1796 37.4945 84.766 38.4888C84.8214 38.4888 88.2547 38.9308 93.1831 38.9308C96.0626 38.9308 98.9421 38.765 101.656 38.4888C109.242 37.4945 109.242 35.7268 109.242 35.1744C109.242 35.0086 109.242 34.5667 108.356 34.5667C108.245 34.5667 108.19 34.5667 108.134 34.5667C105.587 35.7267 101.545 37.0526 92.8508 37.1078H92.4078C83.3817 37.1078 78.8963 34.8429 78.3425 34.5667C78.2871 34.5667 78.1764 34.5667 78.0656 34.5667Z" fill="#CFE5FF"/>
<path d="M101.766 36.6666C86.0397 39.1525 77.8441 34.7332 77.8441 34.7332C77.0135 34.6779 76.8473 37.6609 85.7628 38.5448C101.545 40.1468 105.532 36.059 101.766 36.6666Z" fill="#F3F8FF"/>
<path d="M109.297 18.9892C107.525 18.1606 95.3981 19.8178 93.183 20.1493C90.9126 19.8178 78.7854 18.1606 77.0134 18.9892C75.9059 19.5416 75.5737 19.8178 75.5737 20.536C75.5737 21.917 75.5737 29.0983 75.5737 30.0927C75.5737 30.7003 76.0167 31.087 76.6812 31.4185C78.3978 32.5233 85.0982 33.3519 93.183 33.3519C101.157 33.3519 107.802 32.5785 109.63 31.4737C110.294 31.1423 110.792 30.7556 110.792 30.0927C110.792 29.0983 110.792 21.917 110.792 20.536C110.737 19.8178 110.405 19.5416 109.297 18.9892Z" fill="#C7F9FF"/>
<path d="M93.1277 33.6837C85.0983 33.6837 78.2318 32.8551 76.4597 31.695C75.6291 31.3083 75.1861 30.7559 75.1861 30.093V20.5363C75.1861 19.5972 75.7399 19.2105 76.8474 18.658C77.235 18.4923 77.9549 18.3818 79.0624 18.3818C83.1048 18.3818 91.4111 19.5419 93.1277 19.7629C95.5089 19.4314 103.206 18.3818 107.193 18.3818C108.301 18.3818 109.02 18.4923 109.408 18.658C110.516 19.2105 111.069 19.5419 111.069 20.5363V30.093C111.069 31.0873 110.017 31.5845 109.685 31.7502C107.802 32.9103 100.991 33.6837 93.1277 33.6837ZM79.0624 19.1C77.7334 19.1 77.2904 19.2105 77.1243 19.3209C76.0168 19.8734 75.8506 20.0391 75.8506 20.5915V30.1482C75.8506 30.3692 75.9614 30.7559 76.7366 31.1978C78.4533 32.3026 85.3198 33.076 93.0724 33.076C100.714 33.076 107.581 32.3026 109.353 31.253C110.294 30.8111 110.349 30.4244 110.349 30.2035V20.6467C110.349 20.0943 110.183 19.9286 109.076 19.3762C108.91 19.3209 108.467 19.1552 107.138 19.1552C103.095 19.1552 94.7336 20.3153 93.1277 20.5363C93.0724 20.5363 93.0724 20.5363 93.017 20.5363C91.4665 20.2601 83.1048 19.1 79.0624 19.1Z" fill="#5CA7FF"/>
<path d="M76.2935 19.5416C75.2968 19.9283 75.5737 21.1989 75.5737 21.917C75.5737 23.1323 75.5737 24.4029 75.5737 25.6182C75.5737 26.7782 75.5737 27.9383 75.5737 29.0984C75.5737 29.5403 75.5183 29.9822 75.6844 30.4241C75.8505 30.8661 76.2382 31.1975 76.6258 31.4737C75.9059 30.6451 75.9613 29.927 75.9613 28.9327C75.9613 27.7173 75.9613 26.502 75.9613 25.2867C75.9613 24.0714 75.9613 22.8561 75.9613 21.6408C75.9613 21.1989 75.9059 20.7569 75.9613 20.315C75.9613 20.1493 76.0167 19.9836 76.1828 19.8178C76.2935 19.7074 76.6812 19.5969 76.7365 19.4312C76.5704 19.4864 76.4043 19.4864 76.2935 19.5416C76.4597 19.4864 76.072 19.6521 76.2935 19.5416Z" fill="#69C0FF"/>
<path d="M77.0135 19.9282C76.4044 20.2597 76.4598 20.7569 76.4044 21.1988C76.4044 21.696 76.4044 22.2484 76.4044 22.7455C76.4044 23.9609 76.4044 25.1761 76.4044 26.3915C76.4044 27.5515 76.4044 28.6564 76.4044 29.8164C76.4044 30.7003 76.6259 31.308 77.6781 31.9708C76.8474 31.1422 76.9028 30.3688 76.9028 29.3745C76.9028 28.2697 76.9028 27.1648 76.9028 26.0048C76.9028 24.8447 76.9028 23.6846 76.9028 22.5246C76.9028 22.0826 76.9028 21.5855 76.9028 21.1435C76.9028 20.9226 76.9028 20.7016 76.9028 20.4806C76.9028 20.3702 76.9582 20.3149 76.9582 20.2044C77.0689 20.0387 77.235 20.0939 77.0135 19.9282Z" fill="#69C0FF"/>
<path d="M77.6226 20.5898C77.4011 21.0317 77.4564 21.4737 77.4564 21.8604C77.4564 22.3575 77.4564 22.8547 77.4564 23.2966C77.4564 24.4567 77.4564 25.6168 77.4564 26.7768C77.4564 27.8264 77.4564 28.8208 77.4564 29.8703C77.4564 30.8094 77.5672 31.4724 78.6193 32.1352C77.8441 31.3619 77.9548 30.5885 77.9548 29.7046C77.9548 28.5446 77.9548 27.3845 77.9548 26.2244C77.9548 25.0091 77.9548 23.8491 77.9548 22.6337C77.9548 22.1366 77.9548 21.6394 77.9548 21.1422C77.9548 20.9213 77.8994 20.7555 78.0102 20.5346C78.1209 20.4241 78.0656 20.4241 77.8994 20.3689C77.7333 20.3136 77.7333 20.4241 77.6226 20.5898C77.6779 20.4793 77.5672 20.7003 77.6226 20.5898Z" fill="#69C0FF"/>
<path d="M78.7301 20.8124C78.564 21.2543 78.6194 21.7515 78.6194 22.2486C78.6194 22.801 78.6194 23.3535 78.6194 23.9059C78.6194 25.1212 78.6194 26.3365 78.6194 27.5518C78.6194 28.6014 78.6194 29.651 78.6194 30.7005C78.6748 31.3634 79.0624 31.8606 79.7269 32.3578C79.0071 31.5292 79.1178 30.7006 79.1178 29.7615C79.1178 28.6566 79.1178 27.5518 79.1178 26.447C79.1178 25.2869 79.1178 24.1821 79.1178 23.022C79.1178 22.5801 79.1178 22.0829 79.1178 21.641C79.1178 21.42 79.1178 21.1991 79.1178 20.9781C79.1178 20.8676 79.1178 20.8124 79.1732 20.7571C78.8963 20.7019 78.8409 20.5914 78.7301 20.8124C78.7855 20.7571 78.7301 20.9229 78.7301 20.8124Z" fill="#69C0FF"/>
<path d="M79.893 21.0324C79.6161 21.861 79.7823 22.8553 79.7823 23.7392C79.7823 24.8993 79.7823 26.0593 79.7823 27.1642C79.7823 28.2137 79.7823 29.3186 79.7823 30.3681C79.7823 31.252 79.9484 31.8597 80.8344 32.5226C80.1699 31.7492 80.2806 30.9758 80.2806 30.0919C80.2806 28.9871 80.2806 27.9375 80.2806 26.8327C80.2806 25.6726 80.2806 24.5678 80.2806 23.4078C80.2806 22.9106 80.2806 22.3581 80.2806 21.861C80.2806 21.64 80.2806 21.4191 80.2806 21.1981C80.2806 21.1429 80.2806 21.0876 80.2806 21.0324C80.0591 20.9771 79.9484 20.8666 79.893 21.0324C79.893 20.9771 79.8376 21.1428 79.893 21.0324Z" fill="#69C0FF"/>
<path d="M81.0004 21.1985C80.7236 22.0271 80.8897 23.0215 80.8897 23.9053C80.8897 25.0654 80.8897 26.1702 80.8897 27.3303C80.8897 28.3246 80.8897 29.3742 80.8897 30.3686C80.8897 31.2524 80.9451 31.9706 81.8311 32.6887C81.2219 31.9153 81.3327 31.0867 81.3327 30.2581C81.3327 29.1532 81.3327 28.1037 81.3327 26.9989C81.3327 25.8388 81.3327 24.734 81.3327 23.5739C81.3327 23.0767 81.3327 22.5795 81.3327 22.0271C81.3327 21.8062 81.3327 21.5852 81.3327 21.3642C81.3327 21.309 81.3327 21.2538 81.3327 21.1985C81.2219 21.1985 81.0558 21.088 81.0004 21.1985Z" fill="#69C0FF"/>
<path d="M82.1081 21.419C81.8312 22.2476 81.9973 23.242 81.9973 24.1258C81.9973 25.2859 81.9973 26.3907 81.9973 27.5508C81.9973 28.5451 81.9973 29.5395 81.9973 30.589C81.9973 31.4729 82.0527 32.191 82.8833 32.9092C82.3849 32.1358 82.4957 31.4177 82.4957 30.589C82.4957 29.4842 82.4957 28.3241 82.4957 27.2193C82.4957 26.1145 82.4957 24.9544 82.4957 23.8496C82.4957 23.3524 82.4957 22.8553 82.4957 22.3029C82.4957 22.0819 82.4957 21.8609 82.4957 21.64C82.4957 21.5847 82.4957 21.5295 82.4957 21.4742C82.3296 21.3638 82.1635 21.2533 82.1081 21.419C82.1081 21.3637 82.0527 21.5295 82.1081 21.419Z" fill="#69C0FF"/>
<path d="M83.2155 21.5851C82.9386 22.4137 83.1047 23.408 83.1047 24.2919C83.1047 25.3967 83.1047 26.5568 83.1047 27.7169C83.1047 28.7664 83.1047 29.816 83.1047 30.8656C83.1047 31.6942 83.2155 32.3571 83.9354 33.02C83.4924 32.3019 83.6031 31.5838 83.6031 30.8656C83.6031 29.7608 83.6031 28.656 83.6031 27.5511C83.6031 26.3911 83.6031 25.1758 83.6031 24.0157C83.6031 23.5185 83.6031 23.0214 83.6031 22.4689C83.6031 22.248 83.6031 22.027 83.6031 21.806C83.6031 21.7508 83.6031 21.6955 83.6031 21.5851C83.437 21.4746 83.2709 21.4193 83.2155 21.5851C83.2709 21.5298 83.2155 21.6955 83.2155 21.5851Z" fill="#69C0FF"/>
<path d="M84.3783 21.6949C84.1568 22.5788 84.2676 23.5179 84.2676 24.457C84.2676 25.6171 84.2676 26.8324 84.2676 27.9925C84.2676 29.0421 84.2676 30.1469 84.2676 31.1965C84.323 31.9146 84.4337 32.5222 85.0429 33.1299C84.7106 32.5222 84.766 31.8593 84.766 31.1965C84.766 30.0916 84.766 28.9316 84.766 27.8267C84.766 26.6114 84.766 25.3409 84.766 24.1256C84.766 23.5732 84.766 23.076 84.766 22.5236C84.766 22.3026 84.766 22.0816 84.766 21.8607C84.766 21.8054 84.766 21.695 84.766 21.6397C84.5445 21.5845 84.4337 21.5292 84.3783 21.6949Z" fill="#69C0FF"/>
<path d="M85.5412 21.8615C85.3197 22.8006 85.4305 23.795 85.4305 24.7894C85.4305 25.9494 85.4305 27.1647 85.4305 28.3248C85.4305 29.3744 85.4859 30.4239 85.4305 31.4735C85.4305 32.0812 85.652 32.6888 86.095 33.2413C85.8181 32.6336 85.9288 32.0812 85.8735 31.4735C85.8181 30.3687 85.8735 29.2639 85.8735 28.1591C85.8735 26.9437 85.8735 25.6732 85.8735 24.4579C85.8735 23.9055 85.8735 23.4083 85.8735 22.8559C85.8735 22.6349 85.8735 22.4139 85.8735 22.1377C85.8735 22.0273 85.8735 21.8616 85.8735 21.7511C85.652 21.6958 85.5966 21.6406 85.5412 21.8615C85.5412 21.8063 85.4859 21.972 85.5412 21.8615Z" fill="#69C0FF"/>
<path d="M86.6489 21.9722C86.4828 22.9113 86.5935 23.9056 86.5935 24.9C86.5935 26.06 86.5935 27.2754 86.5935 28.4354C86.5935 29.485 86.6489 30.5346 86.5935 31.5842C86.5935 32.1918 86.815 32.7995 87.2026 33.3519C86.9258 32.689 87.0919 31.9709 87.0919 31.308C87.0919 30.1479 87.0919 29.0431 87.0919 27.883C87.0919 26.6677 87.0919 25.4524 87.0919 24.2371C87.0919 23.7399 87.0919 23.1875 87.0919 22.6903C87.0919 22.4694 87.0919 22.2484 87.0365 22.0275C87.0365 21.696 86.7596 21.696 86.6489 21.9722C86.6489 22.0827 86.6489 21.8617 86.6489 21.9722Z" fill="#69C0FF"/>
<path d="M87.8117 22.0268C87.6456 22.8554 87.7564 23.7393 87.7564 24.5679C87.7564 25.6727 87.7564 26.7776 87.7564 27.8824C87.7564 28.932 87.7564 29.9815 87.7564 30.9759C87.7564 31.8045 87.8117 32.5779 88.3101 33.3513C88.0886 32.5227 88.2547 31.6388 88.2547 30.8102C88.2547 29.7053 88.2547 28.6005 88.2547 27.4957C88.2547 26.3356 88.2547 25.1756 88.2547 24.0707C88.2547 23.5736 88.2547 23.0764 88.2547 22.524C88.2547 22.303 88.1993 22.1373 88.1993 21.9163C88.2547 21.8059 88.1994 21.7506 88.0332 21.8058C87.7564 21.8058 87.8117 21.9163 87.8117 22.0268C87.8117 21.9716 87.7563 22.1373 87.8117 22.0268Z" fill="#69C0FF"/>
<path d="M88.9192 22.1379C88.7531 23.0218 88.8638 23.9609 88.8638 24.8448C88.8638 25.9496 88.8638 27.0544 88.8638 28.1592C88.8638 29.8717 88.5316 31.8051 89.3068 33.4624C89.2515 32.7442 89.3068 31.9709 89.3068 31.2527C89.3068 30.0927 89.3068 28.9326 89.3068 27.8278C89.3068 26.6125 89.3068 25.3972 89.3068 24.1819C89.3068 23.6847 89.3068 23.1875 89.3068 22.6903C89.3068 22.4694 89.2514 22.2484 89.2514 22.0827C89.3068 21.9722 89.2515 21.917 89.0853 21.9722C88.9192 21.8617 88.9746 21.9722 88.9192 22.1379C88.9746 22.0274 88.9192 22.2484 88.9192 22.1379Z" fill="#69C0FF"/>
<path d="M90.082 22.1371C89.9159 23.021 90.0267 23.9601 90.0267 24.844C90.0267 25.9488 90.0267 27.0536 90.0267 28.1585C90.0267 29.9262 89.7498 31.7491 90.4143 33.4616C90.4143 32.6882 90.5251 31.8596 90.5251 31.0862C90.5251 29.9814 90.5251 28.8766 90.5251 27.7718C90.5251 26.6117 90.5251 25.4516 90.5251 24.3468C90.5251 23.8496 90.5251 23.2972 90.5251 22.8C90.5251 22.5238 90.5251 22.3029 90.4697 22.0267C90.5251 21.9162 90.4697 21.861 90.3036 21.9162C90.0821 21.9162 90.1374 22.0267 90.082 22.1371C90.1374 22.0819 90.082 22.3029 90.082 22.1371Z" fill="#69C0FF"/>
<path d="M91.2449 22.1932C91.0788 23.0771 91.1895 24.0161 91.1895 24.9C91.1895 26.0048 91.1895 27.1097 91.1895 28.2145C91.1895 29.9822 91.1342 31.7499 91.5218 33.5177C91.7433 31.6395 91.6879 29.7613 91.6879 27.8278C91.6879 26.6125 91.6879 25.3972 91.6879 24.2371C91.6879 23.74 91.6879 23.2428 91.6879 22.7456C91.6879 22.5246 91.6326 22.3037 91.6326 22.0827C91.6879 21.9722 91.6325 21.917 91.4664 21.917C91.1895 21.917 91.2449 22.0827 91.2449 22.1932C91.2449 22.0827 91.1896 22.3037 91.2449 22.1932Z" fill="#69C0FF"/>
<path d="M92.4632 21.917C92.0756 23.9057 92.3525 26.0048 92.3525 28.0488C92.3525 29.8717 92.2971 31.6947 92.5739 33.5177C92.9062 31.6395 92.8508 29.7613 92.8508 27.8278C92.8508 26.6677 92.8508 25.5077 92.8508 24.4028C92.8508 23.9609 92.8508 23.4637 92.8508 23.0218C92.8508 22.8009 92.8508 22.5799 92.7955 22.3589C92.7401 22.0827 92.8508 21.917 92.4632 21.917Z" fill="#69C0FF"/>
<path d="M93.5153 22.2485C93.2938 24.2372 93.4599 26.2811 93.4599 28.2698C93.4599 30.0375 93.4046 31.8052 93.6261 33.5729C94.0691 31.6947 93.9583 29.8165 93.9583 27.8831C93.9583 26.6678 93.9583 25.4525 93.9583 24.2924C93.9583 23.7952 93.9583 23.2981 93.9583 22.8009C93.9583 22.5799 93.903 22.3589 93.8476 22.138C93.903 22.0275 93.8475 21.9723 93.6814 21.9723C93.4599 21.917 93.5153 22.0827 93.5153 22.2485C93.5153 22.359 93.5153 22.138 93.5153 22.2485Z" fill="#69C0FF"/>
<path d="M94.6782 22.1932C94.4567 24.1819 94.6228 26.2258 94.6228 28.2145C94.6228 29.2641 94.6228 30.2584 94.6228 31.308C94.6228 32.0814 94.7336 32.7995 94.7336 33.5177C95.4535 31.6947 95.1212 29.706 95.1212 27.8278C95.1212 26.6125 95.1212 25.3972 95.1212 24.2371C95.1212 23.74 95.1212 23.2428 95.1212 22.7456C95.1212 22.5246 95.0658 22.3037 95.0104 22.0827C95.0658 21.9722 95.0105 21.917 94.8443 21.917C94.5675 21.917 94.6782 22.0827 94.6782 22.1932C94.6782 22.0827 94.6228 22.3589 94.6782 22.1932Z" fill="#69C0FF"/>
<path d="M95.7858 22.1923C95.675 23.1314 95.7304 24.1258 95.7304 25.0649C95.7304 26.1697 95.7304 27.2745 95.7304 28.3793C95.7304 29.3737 95.7304 30.4233 95.7304 31.4176C95.7304 32.1358 95.8411 32.7986 95.7304 33.5168C96.118 32.7986 96.1734 32.0805 96.1734 31.3071C96.1734 30.1471 96.1734 28.987 96.1734 27.8822C96.1734 26.6669 96.1734 25.4516 96.1734 24.2362C96.1734 23.7391 96.1734 23.2419 96.1734 22.7447C96.1734 22.5238 96.118 22.3028 96.0626 22.0818C96.118 21.9713 96.0626 21.9161 95.8965 21.9161C95.7304 21.8609 95.7858 22.0266 95.7858 22.1923C95.7858 22.4133 95.7858 22.0818 95.7858 22.1923Z" fill="#69C0FF"/>
<path d="M96.9485 22.1382C96.727 24.0717 96.8932 26.0604 96.8932 27.9938C96.8932 29.0434 96.8932 30.093 96.8932 31.0873C96.8932 31.8607 97.0593 32.6893 96.8378 33.4627C97.3915 32.634 97.3915 31.8054 97.3915 30.9216C97.3915 29.8168 97.3915 28.7119 97.3915 27.6071C97.3915 26.447 97.3915 25.287 97.3915 24.1821C97.3915 23.685 97.3915 23.1878 97.3915 22.6354C97.3915 22.4144 97.3361 22.1935 97.2808 21.9725C97.3361 21.862 97.2254 21.8068 97.1146 21.862C96.8931 21.862 96.9485 21.9725 96.9485 22.1382C96.9485 22.2487 96.9485 22.0277 96.9485 22.1382Z" fill="#69C0FF"/>
<path d="M98.1114 22.0828C97.8899 24.182 98.056 26.3917 98.056 28.4908C98.056 29.5404 98.1114 30.59 98.056 31.6396C98.056 32.2472 98.1668 32.7997 97.9453 33.4073C98.4436 32.7997 98.5544 32.192 98.5544 31.4739C98.5544 30.3138 98.5544 29.0985 98.5544 27.9384C98.5544 26.7231 98.5544 25.5078 98.5544 24.2925C98.5544 23.7953 98.5544 23.2429 98.5544 22.7457C98.5544 22.5248 98.499 22.3038 98.499 22.0828C98.4436 21.9171 98.499 21.8066 98.2775 21.8066C98.0007 21.8066 98.1114 21.9171 98.1114 22.0828C98.1114 22.1933 98.1114 21.9724 98.1114 22.0828Z" fill="#69C0FF"/>
<path d="M99.2743 21.9718C99.0528 24.0157 99.2189 26.1701 99.2189 28.214C99.2189 29.2084 99.2189 30.2579 99.2189 31.2523C99.2189 31.9704 99.3296 32.6333 98.9974 33.2962C99.6065 32.5781 99.6619 31.9152 99.6619 31.0866C99.6619 29.9265 99.6619 28.7664 99.6619 27.6064C99.6619 26.3911 99.6619 25.1758 99.6619 23.9605C99.6619 23.4633 99.6619 22.9661 99.6619 22.4137C99.6619 22.1927 99.6065 21.9718 99.5511 21.7508C99.5511 21.6403 99.4958 21.5851 99.385 21.6403C99.1635 21.7508 99.2743 21.806 99.2743 21.9718C99.2743 21.8613 99.2189 22.0822 99.2743 21.9718Z" fill="#69C0FF"/>
<path d="M100.382 21.8617C100.216 23.8504 100.326 25.8943 100.326 27.9382C100.326 28.9878 100.326 29.9822 100.326 31.0318C100.326 31.8052 100.437 32.5233 100.05 33.2414C100.769 32.5233 100.825 31.7499 100.825 30.8661C100.825 29.706 100.825 28.5459 100.825 27.3306C100.825 26.1705 100.825 25.0105 100.825 23.8504C100.825 23.3532 100.825 22.8561 100.825 22.3037C100.825 22.0827 100.769 21.8617 100.714 21.6408C100.714 21.5303 100.659 21.5303 100.548 21.5303C100.271 21.6408 100.382 21.696 100.382 21.8617C100.382 21.9722 100.382 21.8065 100.382 21.8617Z" fill="#69C0FF"/>
<path d="M101.545 21.7511C101.323 23.795 101.545 25.9494 101.545 27.9934C101.545 28.9877 101.545 29.982 101.545 30.9764C101.545 31.7497 101.656 32.4127 101.213 33.1308C101.988 32.4127 102.043 31.6945 102.043 30.8106C102.043 29.7058 102.043 28.5458 102.043 27.4409C102.043 26.2809 102.043 25.0656 102.043 23.9055C102.043 23.4083 102.043 22.9111 102.043 22.414C102.043 22.193 101.988 21.9721 101.933 21.7511C101.822 21.4749 101.49 21.4749 101.545 21.7511C101.545 21.6959 101.49 21.9721 101.545 21.7511Z" fill="#69C0FF"/>
<path d="M102.652 21.5856C102.652 23.6296 102.652 25.6183 102.652 27.6622C102.652 28.6565 102.652 29.7061 102.652 30.7004C102.652 31.5291 102.763 32.2472 102.209 33.0206C103.04 32.3025 103.095 31.5843 103.095 30.7004C103.095 29.5956 103.095 28.4356 103.095 27.3307C103.095 26.2259 103.095 25.0659 103.095 23.961C103.095 23.4639 103.095 22.9667 103.095 22.4143C103.095 22.1933 103.095 21.9723 103.04 21.6961C103.04 21.5856 102.984 21.5304 102.929 21.4199C102.708 21.4752 102.652 21.3647 102.652 21.5856C102.652 21.6961 102.652 21.5304 102.652 21.5856Z" fill="#69C0FF"/>
<path d="M103.815 21.4188C103.871 23.4075 103.815 25.3409 103.815 27.3296C103.815 28.3792 103.815 29.3735 103.815 30.4231C103.815 31.307 103.926 32.0804 103.317 32.8537C104.203 32.1356 104.314 31.4727 104.314 30.5336C104.314 29.3735 104.314 28.2687 104.314 27.1086C104.314 25.9486 104.314 24.8438 104.314 23.6837C104.314 23.1865 104.314 22.6341 104.314 22.1369C104.314 21.9159 104.314 21.695 104.258 21.4188C104.258 21.3083 104.203 21.2531 104.147 21.1426C103.871 21.3083 103.76 21.2531 103.815 21.4188Z" fill="#69C0FF"/>
<path d="M104.923 21.2546C104.978 23.2433 104.923 25.2319 104.923 27.2206C104.923 28.2702 104.923 29.2646 104.923 30.3142C104.923 31.198 105.033 31.9714 104.369 32.7448C105.255 32.0819 105.421 31.4742 105.421 30.5904C105.421 29.4855 105.421 28.3255 105.421 27.2206C105.421 26.0053 105.421 24.8453 105.421 23.6299C105.421 23.1328 105.421 22.5804 105.421 22.0832C105.421 21.8622 105.421 21.6413 105.366 21.3651C105.366 21.3098 105.31 21.1993 105.255 21.1441C105.033 21.1441 104.923 21.0889 104.923 21.2546Z" fill="#69C0FF"/>
<path d="M106.03 21.0882C106.085 23.0769 106.03 25.0655 106.03 27.0542C106.03 28.1038 106.03 29.0981 106.03 30.1477C106.03 31.0316 106.085 31.805 105.421 32.5783C106.085 32.1364 106.528 31.584 106.528 30.9211C106.528 29.8163 106.528 28.7115 106.528 27.5514C106.528 26.2809 106.528 25.0103 106.528 23.7397C106.528 23.1321 106.528 22.5797 106.528 21.972C106.528 21.751 106.528 21.4748 106.473 21.2539C106.418 21.1434 106.418 20.9777 106.362 20.8672C106.141 20.9777 106.03 20.9224 106.03 21.0882C106.03 21.1986 106.03 21.0329 106.03 21.0882Z" fill="#69C0FF"/>
<path d="M107.138 20.8679C107.193 21.7517 107.138 22.6908 107.138 23.5747C107.138 24.7348 107.138 25.8948 107.138 27.0549C107.138 28.1597 107.138 29.2093 107.138 30.3141C107.138 31.0875 107.138 31.7504 106.418 32.4685C107.415 31.8609 107.636 31.198 107.636 30.3141C107.636 29.1541 107.636 28.0492 107.636 26.8892C107.636 25.6739 107.636 24.4585 107.636 23.2432C107.636 22.7461 107.636 22.1937 107.636 21.6965C107.636 21.4755 107.636 21.1993 107.581 20.9784C107.581 20.8679 107.525 20.8126 107.47 20.7021C107.248 20.7574 107.138 20.7021 107.138 20.8679C107.193 20.9783 107.138 20.8126 107.138 20.8679Z" fill="#69C0FF"/>
<path d="M108.245 20.6463C108.356 21.5301 108.245 22.4692 108.245 23.3531C108.245 24.4579 108.245 25.5627 108.245 26.6675C108.245 27.7171 108.245 28.7667 108.245 29.8163C108.245 30.7554 108.3 31.4736 107.47 32.2469C108.3 31.7498 108.743 31.1421 108.743 30.4239C108.743 29.2639 108.743 28.0486 108.743 26.8885C108.743 25.618 108.743 24.3474 108.743 23.0216C108.743 22.5245 108.743 21.9721 108.743 21.4749C108.743 21.1987 108.743 20.9777 108.633 20.7567C108.577 20.6462 108.522 20.5358 108.467 20.4253C108.245 20.4805 108.245 20.4253 108.245 20.6463C108.3 20.7568 108.245 20.591 108.245 20.6463Z" fill="#69C0FF"/>
<path d="M109.353 20.4248C109.519 21.3087 109.353 22.2478 109.353 23.1317C109.353 24.2917 109.353 25.507 109.353 26.6671C109.353 27.7167 109.353 28.7663 109.353 29.7606C109.353 30.6445 109.297 31.3074 108.522 32.0255C109.519 31.4178 109.851 30.8102 109.851 29.9263C109.851 28.7663 109.851 27.6062 109.851 26.4461C109.851 25.2861 109.851 24.126 109.851 22.9659C109.851 22.4135 109.851 21.9164 109.851 21.3639C109.851 20.8668 109.906 20.3696 109.353 19.9829C109.131 20.1486 109.297 20.1486 109.353 20.4248C109.408 20.5353 109.353 20.2591 109.353 20.4248Z" fill="#69C0FF"/>
<path d="M110.737 20.9227C110.737 20.1493 110.46 19.6521 109.519 19.4312C109.74 19.7074 110.183 19.7074 110.294 20.1493C110.405 20.536 110.294 20.9779 110.294 21.3646C110.294 22.5799 110.294 23.7952 110.294 25.0105C110.294 26.2811 110.294 27.5516 110.294 28.8222C110.294 29.3193 110.294 29.8165 110.239 30.3689C110.183 30.8661 109.851 31.2528 109.519 31.6395C110.239 31.1423 110.682 30.6451 110.682 29.8717C110.682 28.9326 110.682 27.9936 110.682 26.9992C110.737 24.9553 110.737 22.9114 110.737 20.9227C110.737 22.138 110.737 20.8674 110.737 20.9227Z" fill="#69C0FF"/>
<path d="M93.6815 32.6332C88.587 32.6332 83.4371 32.357 78.7302 31.6388C77.235 31.4179 76.2936 31.0864 75.6845 30.6997C75.8506 31.0312 76.1829 31.2522 76.6259 31.4731C78.3425 32.578 85.0429 33.4066 93.1278 33.4066C101.102 33.4066 107.747 32.6332 109.574 31.5284C110.239 31.2521 110.682 30.8102 110.737 30.2578C110.183 31.9703 98.7207 32.6332 93.6815 32.6332Z" fill="#5AB0FF"/>
<path d="M80.2252 21.8615C80.2252 21.8615 80.336 21.8615 80.5575 21.9168C80.779 21.972 81.1112 22.0273 81.4988 22.0273C81.8864 22.0825 82.3848 22.1378 82.9386 22.193C83.4923 22.2482 84.1568 22.3035 84.8213 22.3587C85.5412 22.4139 86.2611 22.4692 87.0917 22.4692C87.4794 22.4692 87.9224 22.5244 88.31 22.5244C88.753 22.5244 89.1406 22.5797 89.5836 22.5797C90.4696 22.5797 91.3556 22.6349 92.297 22.5797C93.2384 22.5797 94.1244 22.5244 95.0658 22.5244C96.0072 22.5244 96.9486 22.4692 97.8346 22.4139C98.7759 22.3587 99.662 22.3035 100.548 22.2482C100.991 22.2482 101.434 22.193 101.822 22.193C102.265 22.1378 102.652 22.1377 103.04 22.0825C103.427 22.0273 103.815 22.0273 104.203 21.972C104.59 21.9168 104.923 21.8615 105.255 21.8615C105.421 21.8615 105.587 21.8063 105.753 21.8063C105.919 21.8063 106.085 21.7511 106.252 21.7511C106.584 21.6958 106.861 21.6406 107.138 21.5853C107.691 21.4748 108.134 21.3644 108.522 21.2539C108.688 21.1986 108.854 21.1434 109.02 21.0882C109.187 21.0329 109.297 20.9777 109.408 20.9777C109.63 20.9224 109.685 20.8672 109.685 20.8672C109.685 20.8672 109.574 20.9224 109.408 20.9777C109.297 21.0329 109.187 21.0882 109.076 21.1434C108.91 21.1986 108.744 21.2539 108.577 21.3091C108.19 21.4748 107.747 21.5301 107.193 21.6958C106.639 21.8063 106.03 21.972 105.31 22.0273C104.978 22.0825 104.59 22.1378 104.258 22.193C103.87 22.2482 103.483 22.3035 103.095 22.3035C102.708 22.3587 102.265 22.4139 101.877 22.4139C101.434 22.4692 101.046 22.4692 100.603 22.5244C99.7173 22.5797 98.8313 22.6349 97.89 22.6901C96.9486 22.7454 96.0626 22.8006 95.1212 22.8006C94.1798 22.8006 93.2384 22.8559 92.297 22.8559C91.3556 22.8559 90.4696 22.8006 89.5836 22.8006C88.6976 22.8006 87.867 22.6901 87.0364 22.6901C86.2057 22.6349 85.4859 22.5797 84.766 22.5244C84.0461 22.4692 83.437 22.3587 82.8832 22.3035C82.3294 22.2482 81.8311 22.1377 81.4435 22.0825C81.0558 22.0273 80.7236 21.9168 80.5021 21.9168C80.3359 21.8615 80.2252 21.8615 80.2252 21.8615Z" fill="url(#paint4_radial_2003_15678)"/>
<path d="M93.1277 22.1923C102.455 22.1923 110.017 21.104 110.017 19.7617C110.017 18.4193 102.455 17.3311 93.1277 17.3311C83.7999 17.3311 76.2382 18.4193 76.2382 19.7617C76.2382 21.104 83.7999 22.1923 93.1277 22.1923Z" fill="#D1F5FA"/>
<path d="M93.1277 22.5241C87.1471 22.5241 75.9059 21.9165 75.9059 19.7621C75.9059 17.5524 87.2025 17 93.1277 17C99.1082 17 110.349 17.6077 110.349 19.7621C110.349 21.9165 99.1082 22.5241 93.1277 22.5241ZM93.1277 17.6077C82.2187 17.6077 76.5704 18.9887 76.5704 19.7068C76.5704 20.425 82.2741 21.8612 93.1277 21.8612C104.037 21.8612 109.685 20.4802 109.685 19.7068C109.685 18.9335 104.037 17.6077 93.1277 17.6077Z" fill="#69C0FF"/>
<path d="M59.5702 66.4412C59.5702 66.4412 53.7004 65.9992 53.7004 72.9596C53.7004 79.92 53.7004 117.981 53.7004 117.981C53.7004 117.981 57.632 77.5999 58.518 74.6169C59.404 71.6338 62.6712 71.1919 67.4335 70.529C72.2512 69.8661 89.0853 67.2698 89.0853 67.2698L59.5702 66.4412Z" fill="white"/>
<path fill-rule="evenodd" clip-rule="evenodd" d="M115.389 128.2C115.721 128.421 116.164 128.532 116.662 128.532C117.216 128.532 117.659 128.366 118.102 127.869C118.434 127.537 118.6 127.151 118.6 126.709C118.6 126.377 118.49 125.991 118.323 125.604C118.157 125.273 117.88 124.831 117.548 124.389L113.173 118.091L116.939 114.556C117.493 114.003 117.77 113.451 117.77 112.899C117.77 112.457 117.548 112.015 117.216 111.683C116.828 111.352 116.385 111.186 115.832 111.186C115.388 111.186 115.056 111.241 114.779 111.462C114.558 111.628 114.281 111.904 113.949 112.235L113.949 112.236L108.134 118.312V113.506C108.134 112.733 107.968 112.18 107.581 111.794C107.193 111.407 106.75 111.186 106.141 111.186C105.532 111.186 105.033 111.407 104.701 111.794C104.369 112.18 104.203 112.788 104.203 113.506V125.438C104.203 125.762 104.222 126.029 104.237 126.25C104.249 126.406 104.258 126.539 104.258 126.654C104.258 126.93 104.369 127.206 104.48 127.482C104.646 127.758 104.867 128.035 105.199 128.2C105.476 128.366 105.809 128.477 106.141 128.477C106.75 128.477 107.193 128.256 107.581 127.869C107.968 127.482 108.134 126.93 108.134 126.156V123.008L110.405 120.853L114.004 126.433C114.17 126.709 114.336 126.985 114.558 127.316C114.779 127.703 115.056 127.979 115.389 128.2ZM110.737 120.19C110.682 120.08 110.571 120.025 110.46 120.025C110.349 120.025 110.294 120.08 110.294 120.08L107.636 122.621C107.581 122.676 107.525 122.731 107.525 122.842V126.156C107.525 126.764 107.359 127.151 107.138 127.427C106.916 127.703 106.584 127.814 106.196 127.814C106.03 127.814 105.809 127.758 105.587 127.648C105.421 127.537 105.255 127.372 105.144 127.206C105.033 127.04 104.978 126.819 104.978 126.598C104.923 126.322 104.923 125.936 104.923 125.439V125.438V113.506C104.923 112.899 105.033 112.512 105.255 112.236C105.476 111.959 105.809 111.849 106.196 111.849C106.584 111.849 106.916 111.959 107.138 112.236C107.414 112.512 107.525 112.954 107.525 113.506V119.141C107.525 119.251 107.636 119.362 107.747 119.417C107.857 119.472 107.968 119.472 108.079 119.362L114.447 112.733C114.724 112.457 114.946 112.236 115.167 112.07C115.333 111.959 115.555 111.904 115.832 111.904C116.219 111.904 116.496 112.015 116.718 112.236C116.939 112.457 117.05 112.733 117.05 113.009C117.05 113.396 116.884 113.782 116.441 114.169L112.509 117.925C112.398 118.036 112.343 118.257 112.454 118.367L116.994 124.886C117.327 125.328 117.548 125.715 117.714 126.046C117.88 126.322 117.936 126.598 117.936 126.875C117.936 127.096 117.825 127.317 117.604 127.537C117.382 127.758 117.05 127.869 116.662 127.869C116.275 127.869 115.942 127.814 115.721 127.648C115.499 127.482 115.278 127.261 115.112 126.985C114.89 126.654 114.724 126.378 114.558 126.102L114.558 126.101L110.737 120.19ZM84.2676 127.925C84.5998 128.312 85.0982 128.533 85.652 128.533C86.2611 128.533 86.7595 128.312 87.0918 127.925C87.4794 127.538 87.6455 126.986 87.6455 126.213V113.562C87.6455 112.789 87.4794 112.237 87.0918 111.85C86.7041 111.463 86.2611 111.242 85.652 111.242C85.0982 111.242 84.6552 111.463 84.2676 111.85C83.88 112.237 83.7138 112.844 83.7138 113.562V126.213C83.7138 126.986 83.9353 127.538 84.2676 127.925ZM84.7106 112.347C84.9875 112.071 85.2643 111.96 85.652 111.96C86.095 111.96 86.3719 112.071 86.5934 112.292C86.8702 112.568 86.981 113.01 86.981 113.562V126.213C86.981 126.82 86.8149 127.207 86.5934 127.483C86.3719 127.759 86.0396 127.87 85.652 127.87C85.2643 127.87 84.9321 127.759 84.7106 127.483C84.4337 127.207 84.323 126.765 84.323 126.213V113.618C84.323 113.01 84.4891 112.623 84.7106 112.347ZM77.7334 127.979C78.121 128.366 78.5086 128.532 79.0624 128.532C79.6161 128.532 80.1145 128.311 80.2252 127.979C80.5575 127.593 80.7236 127.096 80.7236 126.377V113.727C80.7236 112.899 80.4468 112.346 80.0038 112.015C79.5608 111.738 79.007 111.573 78.3425 111.573H77.3457C76.6812 111.573 76.2382 111.628 75.906 111.738C75.5737 111.904 75.2968 112.125 75.1307 112.512C75.1101 112.574 75.0876 112.639 75.0635 112.709L75.0635 112.709L75.0635 112.709L75.0634 112.709C74.9581 113.016 74.8229 113.409 74.6877 113.948L72.6942 121.516L70.7007 113.948C70.6817 113.872 70.6635 113.799 70.6458 113.728L70.6457 113.727L70.6456 113.727C70.5085 113.174 70.4048 112.756 70.2577 112.512C70.0916 112.125 69.8147 111.904 69.4824 111.738C69.1502 111.628 68.7072 111.573 68.0427 111.573H67.0459C66.3814 111.573 65.8277 111.738 65.3846 112.015C64.8863 112.346 64.6648 112.899 64.6648 113.727V126.377C64.6648 127.096 64.8309 127.593 65.1631 127.979C65.4954 128.366 65.9384 128.532 66.4922 128.532C67.0459 128.532 67.4889 128.366 67.8212 127.979C68.1534 127.593 68.3195 127.096 68.3195 126.377V117.925L70.2577 125.604C70.3014 125.757 70.3364 125.892 70.3697 126.02L70.3697 126.02C70.4207 126.217 70.4675 126.398 70.5346 126.598C70.6453 126.93 70.7561 127.261 70.9222 127.537C71.0883 127.814 71.3098 128.09 71.6421 128.256C71.9743 128.421 72.362 128.532 72.805 128.532C73.3587 128.532 73.8571 128.421 74.1894 128.09C74.5216 127.814 74.7431 127.482 74.8538 127.096L74.854 127.095L74.8541 127.095C74.9648 126.763 75.1308 126.266 75.2969 125.604L77.235 117.925V126.377C77.235 127.096 77.4011 127.593 77.7334 127.979ZM77.9549 115.329C77.9549 115.163 77.8441 114.998 77.6226 114.998C77.4565 114.998 77.3457 115.053 77.235 115.163L74.6877 125.383C74.6526 125.523 74.6199 125.656 74.5892 125.781L74.5891 125.781L74.589 125.782C74.4746 126.247 74.3874 126.602 74.3001 126.819C74.1893 127.096 74.0232 127.317 73.8017 127.537C73.5802 127.703 73.3033 127.814 72.8603 127.814C72.5835 127.814 72.3066 127.703 72.0851 127.593C71.8636 127.482 71.6975 127.316 71.5867 127.096C71.4206 126.875 71.3098 126.598 71.2544 126.322C71.1927 126.168 71.1482 125.997 71.1017 125.818C71.0647 125.676 71.0266 125.53 70.9776 125.383L68.3749 115.163C68.3749 114.998 68.2088 114.942 68.0427 114.942C67.8765 114.998 67.7658 115.108 67.7658 115.274V126.322C67.7658 126.875 67.655 127.261 67.4335 127.482C67.212 127.703 66.9352 127.814 66.6029 127.814C66.2707 127.814 65.9938 127.703 65.7723 127.482C65.5508 127.261 65.44 126.875 65.44 126.322V113.672C65.44 113.064 65.5508 112.678 65.8276 112.512C66.1045 112.291 66.5475 112.18 67.1013 112.18H68.0981C68.8178 112.18 69.1501 112.291 69.3162 112.346L69.3163 112.346C69.5378 112.457 69.6486 112.567 69.7593 112.788C69.8701 113.064 70.0362 113.506 70.2023 114.114L72.5281 122.897C72.5835 123.173 73.0818 123.173 73.1372 122.897L75.463 114.169C75.6291 113.561 75.7952 113.119 75.906 112.843C76.0167 112.622 76.1275 112.457 76.349 112.401C76.5151 112.291 76.8474 112.236 77.5672 112.236H78.6194C79.1731 112.236 79.5608 112.346 79.893 112.567C80.1699 112.733 80.2806 113.12 80.2806 113.727V126.377C80.2806 126.93 80.1699 127.317 79.9484 127.537C79.7822 127.758 79.5054 127.869 79.1177 127.869C78.7855 127.869 78.5086 127.758 78.2871 127.537C78.0656 127.317 77.9549 126.93 77.9549 126.377V115.329ZM100.714 128.256H92.8509C92.0756 128.256 91.4665 128.091 91.0789 127.704C90.6913 127.317 90.5251 126.765 90.5251 125.936V113.618C90.5251 112.899 90.6913 112.292 91.0789 111.905C91.4111 111.518 91.9095 111.297 92.4633 111.297C93.0724 111.297 93.5154 111.518 93.903 111.905C94.2906 112.292 94.4568 112.844 94.4568 113.618V124.942H100.714C101.323 124.942 101.822 125.108 102.154 125.384C102.486 125.715 102.708 126.102 102.708 126.599C102.708 127.096 102.542 127.483 102.154 127.815C101.822 128.091 101.379 128.256 100.714 128.256ZM92.5186 111.96C92.131 111.96 91.8541 112.071 91.5772 112.347C91.3557 112.623 91.245 113.01 91.245 113.618V125.936C91.245 126.544 91.3558 126.986 91.6326 127.207C91.8541 127.428 92.2971 127.594 92.9063 127.594H100.77C101.213 127.594 101.545 127.483 101.766 127.317C101.988 127.152 102.099 126.931 102.099 126.599C102.099 126.323 101.988 126.047 101.766 125.881C101.545 125.66 101.213 125.605 100.77 125.605H94.1799C94.0138 125.605 93.8477 125.439 93.8477 125.273V113.618C93.8477 113.065 93.7369 112.623 93.46 112.347C93.1831 112.071 92.9063 111.96 92.5186 111.96Z" fill="#69A5FF"/>
<path fill-rule="evenodd" clip-rule="evenodd" d="M107.802 119.251V113.617C107.802 112.954 107.636 112.457 107.359 112.07C107.082 111.738 106.695 111.573 106.196 111.573C105.698 111.573 105.31 111.738 105.033 112.07C104.757 112.401 104.59 112.899 104.59 113.561V125.494C104.59 125.778 104.609 126.027 104.624 126.239C104.636 126.398 104.646 126.536 104.646 126.654C104.646 126.93 104.701 127.151 104.812 127.372C104.978 127.648 105.144 127.814 105.421 127.979C105.643 128.145 105.919 128.2 106.196 128.2C106.639 128.2 107.027 128.035 107.359 127.703C107.636 127.372 107.802 126.875 107.802 126.212V122.897L110.46 120.356L114.281 126.267C114.392 126.543 114.558 126.819 114.78 127.151C114.946 127.482 115.223 127.758 115.499 127.924C115.776 128.09 116.164 128.2 116.607 128.2C117.105 128.2 117.493 128.09 117.77 127.814C118.047 127.537 118.213 127.206 118.213 126.875C118.213 126.543 118.157 126.212 117.991 125.88C117.825 125.549 117.604 125.162 117.271 124.72L112.731 118.202L116.662 114.445C117.161 114.003 117.382 113.561 117.382 113.064C117.382 112.678 117.216 112.346 116.939 112.07C116.662 111.794 116.275 111.683 115.832 111.683C115.444 111.683 115.167 111.738 114.946 111.904C114.724 112.07 114.503 112.291 114.171 112.622L114.17 112.622L107.802 119.251ZM84.0462 113.562V126.213C84.0462 126.876 84.2123 127.373 84.4892 127.704C84.8214 128.036 85.209 128.201 85.652 128.201C86.095 128.201 86.5381 128.036 86.8149 127.704C87.0918 127.373 87.2579 126.876 87.2579 126.213V113.562C87.2579 112.9 87.0918 112.402 86.8149 112.071C86.5381 111.739 86.1504 111.574 85.652 111.574C85.1537 111.574 84.766 111.739 84.4892 112.071C84.2123 112.402 84.0462 112.9 84.0462 113.562ZM68.098 115.275L70.6453 125.494C70.756 125.826 70.8668 126.157 71.0329 126.489C71.0883 126.765 71.199 127.041 71.3652 127.317C71.5313 127.538 71.6974 127.759 71.9743 127.925C72.1958 128.035 72.528 128.146 72.9157 128.146C73.414 128.146 73.8017 128.035 74.0786 127.759C74.4108 127.538 74.5769 127.262 74.6877 126.931C74.7154 126.792 74.7707 126.599 74.8399 126.358L74.8399 126.358L74.84 126.357C74.9092 126.116 74.9922 125.826 75.0753 125.494L77.6226 115.275V126.323C77.6226 126.931 77.7887 127.373 78.0656 127.704C78.3425 127.98 78.6747 128.146 79.1177 128.146C79.5607 128.146 79.9483 128.035 80.2252 127.704C80.5021 127.373 80.6129 126.931 80.6129 126.323V113.673C80.6129 112.955 80.4467 112.457 80.0591 112.236C79.6715 111.96 79.1731 111.85 78.564 111.85H77.5672C76.9581 111.85 76.5151 111.905 76.2382 112.015C75.9613 112.126 75.7398 112.347 75.6291 112.623C75.5183 112.899 75.3522 113.341 75.1861 114.004L72.8603 122.787L70.5345 114.004C70.3684 113.396 70.2023 112.899 70.0915 112.623C69.9808 112.347 69.7593 112.126 69.4824 112.015C69.2055 111.905 68.7625 111.85 68.1534 111.85H67.1566C66.5475 111.85 66.0491 112.015 65.6615 112.236C65.2739 112.513 65.1077 112.955 65.1077 113.673V126.323C65.1077 126.931 65.2739 127.428 65.5507 127.704C65.8276 127.98 66.1599 128.146 66.6029 128.146C67.0459 128.146 67.4335 128.035 67.7104 127.704C67.9873 127.373 68.098 126.931 68.098 126.323V115.275ZM94.1244 113.617V125.273H100.714C101.212 125.273 101.655 125.383 101.932 125.659C102.209 125.935 102.375 126.212 102.375 126.598C102.375 126.985 102.209 127.316 101.932 127.537C101.655 127.758 101.268 127.924 100.714 127.924H92.8508C92.1309 127.924 91.6325 127.758 91.3003 127.482C90.968 127.151 90.8573 126.654 90.8573 125.935V113.617C90.8573 112.954 91.0234 112.457 91.3003 112.125C91.5772 111.794 91.9648 111.628 92.4632 111.628C92.9616 111.628 93.3492 111.794 93.626 112.125C94.0137 112.457 94.1244 112.954 94.1244 113.617Z" fill="#EEF6FF"/>
<path d="M148.005 112.126C146.62 112.126 144.959 111.905 142.799 111.353C128.9 107.32 121.812 102.624 121.48 88.2065C121.701 61.2487 123.806 48.267 128.291 46.1679C129.232 45.7259 130.34 45.6707 131.447 46.0021C131.503 46.0021 131.503 46.0022 131.558 46.0574C136.653 49.4271 138.923 54.6198 140.418 66.6071C144.793 92.1286 146.509 96.0507 148.614 100.967C148.891 101.575 149.112 102.183 149.389 102.845C150.607 104.945 151.383 106.602 151.881 108.149C152.158 109.364 151.992 110.303 151.438 110.966C150.829 111.739 149.721 112.126 148.005 112.126ZM130.063 46.4441C129.565 46.4441 129.066 46.5546 128.623 46.7755C123.141 49.3719 122.31 71.6341 122.2 88.2065C122.532 102.293 129.177 106.712 143.021 110.745C147.34 111.794 150.054 111.739 151.05 110.524C151.493 110.027 151.604 109.253 151.383 108.259C150.884 106.768 150.164 105.166 148.946 103.122C148.669 102.403 148.392 101.796 148.115 101.243C145.956 96.2717 144.239 92.3496 139.864 66.7176C138.369 54.9512 136.21 49.869 131.337 46.6098C130.838 46.4993 130.451 46.4441 130.063 46.4441ZM136.708 100.857C136.099 100.857 135.268 100.691 134.216 100.249C129.841 98.5918 125.578 96.4926 125.19 90.9133C124.802 85.4444 125.356 70.3083 126.353 63.4584C126.962 59.4258 128.623 56.498 130.395 56.498C130.949 56.498 132.278 56.8294 132.555 60.0887C132.555 60.3096 133.995 80.307 137.816 95.0564C138.48 97.487 138.812 99.2547 138.148 100.194C137.816 100.636 137.317 100.857 136.708 100.857ZM130.395 57.2161C129.232 57.2161 127.571 59.6467 127.017 63.6241C126.021 70.4188 125.522 85.4444 125.91 90.9133C126.297 96.106 130.174 98.0394 134.493 99.6967C136.21 100.36 137.262 100.415 137.649 99.8624C138.203 99.089 137.705 97.0451 137.206 95.2774C133.33 80.4727 131.946 60.3649 131.89 60.1992C131.724 58.3209 131.171 57.2161 130.395 57.2161Z" fill="white"/>
<defs>
<linearGradient id="paint0_linear_2003_15678" x1="100.047" y1="36.1138" x2="100" y2="183" gradientUnits="userSpaceOnUse">
<stop stop-color="#F3FEFF"/>
<stop offset="0.23" stop-color="#E7F8FF"/>
<stop offset="0.900424" stop-color="#BEDFFD"/>
<stop offset="1" stop-color="#EDF6FF"/>
</linearGradient>
<linearGradient id="paint1_linear_2003_15678" x1="133.5" y1="108.5" x2="149" y2="174.5" gradientUnits="userSpaceOnUse">
<stop stop-color="#E3F7FF"/>
<stop offset="1" stop-color="#A9E0FF"/>
</linearGradient>
<linearGradient id="paint2_linear_2003_15678" x1="136.786" y1="46.1206" x2="136.786" y2="111.817" gradientUnits="userSpaceOnUse">
<stop stop-color="#E3EDFF"/>
<stop offset="1" stop-color="#CEDFFF"/>
</linearGradient>
<linearGradient id="paint3_linear_2003_15678" x1="135.235" y1="54.6758" x2="135.235" y2="102.691" gradientUnits="userSpaceOnUse">
<stop stop-color="#84D3FF"/>
<stop offset="1" stop-color="#B3E3FF"/>
</linearGradient>
<radialGradient id="paint4_radial_2003_15678" cx="0" cy="0" r="1" gradientUnits="userSpaceOnUse" gradientTransform="translate(94.9678 21.8496) scale(10.5828 7.3753)">
<stop offset="0.2327"/>
<stop offset="1" stop-color="#C1C1C1"/>
</radialGradient>
</defs>
</svg>
