<svg width="200" height="200" viewBox="0 0 200 200" fill="none" xmlns="http://www.w3.org/2000/svg">
<path fill-rule="evenodd" clip-rule="evenodd" d="M157.04 128.543C143.047 155.557 103.833 163.043 69.8259 145.467C35.819 127.892 19.3849 91.4378 33.3782 64.423C47.3715 37.4082 86.4225 29.9222 120.592 47.4981C154.599 65.074 171.033 101.528 157.04 128.543Z" fill="#5AB024"/>
<path fill-rule="evenodd" clip-rule="evenodd" d="M157.04 128.543C145.488 151.001 108.226 154.907 74.2194 137.168C40.2124 119.592 21.8259 86.8816 33.5412 64.4235C45.0938 41.9654 82.355 38.0597 116.362 55.7983C150.369 73.3742 168.593 106.085 157.04 128.543Z" fill="#97CE16"/>
<path fill-rule="evenodd" clip-rule="evenodd" d="M157.04 128.543C149.23 143.515 115.223 141.237 81.2157 123.661C47.2087 106.085 25.7306 79.3954 33.3781 64.5861C41.1883 49.614 75.1952 51.8924 109.202 69.4683C143.209 87.0442 164.687 113.571 157.04 128.543Z" fill="#71BD1F"/>
<path fill-rule="evenodd" clip-rule="evenodd" d="M157.04 128.542C154.274 133.913 124.172 123.985 90.1649 106.247C56.158 88.6709 30.612 69.7931 33.3782 64.4227C36.1443 59.0523 66.2461 68.9794 100.253 86.7181C134.26 104.294 159.806 123.009 157.04 128.542Z" fill="#97CE16"/>
<g opacity="0.2" style="mix-blend-mode:soft-light">
<path fill-rule="evenodd" clip-rule="evenodd" d="M53.7175 52.0546C45.4192 62.6326 55.0192 77.7674 75.0329 85.9044C95.0465 94.0414 117.989 92.2513 126.287 81.6732C134.586 71.0951 124.986 55.9603 104.972 47.8233C84.9584 39.6863 62.0159 41.4765 53.7175 52.0546Z" fill="#78C143"/>
</g>
<g opacity="0.2" style="mix-blend-mode:soft-light">
<path fill-rule="evenodd" clip-rule="evenodd" d="M122.87 59.5415C120.755 58.2395 118.477 56.9376 116.199 55.7984C97.9754 46.3595 78.938 43.1047 63.3176 45.3831C59.2498 47.0105 55.9955 49.1261 53.7175 52.0554C45.4192 62.6335 55.0192 77.7683 75.0329 85.9053C95.0465 94.0423 117.989 92.2522 126.287 81.6741C131.494 75.1645 129.704 66.8647 122.87 59.5415Z" fill="#A9D93C"/>
</g>
<g opacity="0.2" style="mix-blend-mode:soft-light">
<path fill-rule="evenodd" clip-rule="evenodd" d="M127.263 80.3711C121.731 76.4653 115.711 72.7223 109.202 69.4675C88.0495 58.564 66.8969 53.519 52.0901 54.8209C47.2087 65.0736 56.6461 78.581 75.1953 86.067C95.209 94.204 118.151 92.4138 126.45 81.8357C126.613 81.1848 126.938 80.6966 127.263 80.3711Z" fill="#89CA41"/>
</g>
<path fill-rule="evenodd" clip-rule="evenodd" d="M107.575 90.4606C105.135 89.1587 102.694 87.8567 100.253 86.5548C81.7041 76.9532 64.2939 69.6299 51.9277 65.7241C54.6939 73.2102 62.9922 80.8589 75.1956 85.7411C86.0974 90.2978 97.8126 91.7625 107.575 90.4606Z" fill="#A9D93C"/>
<path d="M35.6267 65.9934C36.9507 63.4403 37.5066 61.1022 36.8684 60.7711C36.2302 60.4401 34.6396 62.2415 33.3157 64.7946C31.9917 67.3477 31.4358 69.6858 32.074 70.0169C32.7122 70.3479 34.3028 68.5465 35.6267 65.9934Z" fill="#993623"/>
<path fill-rule="evenodd" clip-rule="evenodd" d="M35.4934 62.9588C28.6594 61.8196 22.9645 62.6333 18.0831 64.2607C17.7577 65.2371 17.595 66.0508 17.2695 67.0273C22.1509 66.0508 27.195 65.5626 32.5646 68.9801C33.3781 66.8645 34.3544 64.9116 35.4934 62.9588Z" fill="url(#paint0_linear_7002_12902)"/>
<path fill-rule="evenodd" clip-rule="evenodd" d="M17.9204 64.4233L17.2695 66.8644C22.1509 65.888 27.195 65.3997 32.5646 68.8173V68.6545V68.4918C28.0086 63.1214 22.6391 63.4469 17.9204 64.4233Z" fill="#602E0B"/>
<path fill-rule="evenodd" clip-rule="evenodd" d="M17.2696 65.3994C16.9441 66.2131 16.9442 66.864 17.1069 66.864C17.2696 67.0268 17.595 66.3758 17.9205 65.7248C18.2459 64.9111 18.2458 64.2602 18.0831 64.2602C17.9204 64.0974 17.595 64.5857 17.2696 65.3994Z" fill="#993623"/>
<g opacity="0.4" style="mix-blend-mode:soft-light">
<path fill-rule="evenodd" clip-rule="evenodd" d="M74.0563 48.9631C71.4529 52.2179 74.5444 56.9374 80.7275 59.5412C86.9106 62.145 94.07 61.4941 96.6734 58.2393C99.2768 54.9845 96.1852 50.265 90.0021 47.6612C83.819 45.2201 76.6597 45.7083 74.0563 48.9631Z" fill="#DFF2B6"/>
</g>
<g opacity="0.4" style="mix-blend-mode:soft-light">
<path fill-rule="evenodd" clip-rule="evenodd" d="M98.4635 58.5645C97.3245 60.0292 98.6262 61.982 101.392 63.1212C104.158 64.2604 107.25 63.9349 108.389 62.4703C109.528 61.0056 108.226 59.0527 105.46 57.9135C102.694 56.7744 99.6025 57.0998 98.4635 58.5645Z" fill="#DFF2B6"/>
</g>
<path d="M182.971 105.107C182.971 105.107 183.296 101.689 181.669 97.7837C181.669 97.7837 181.181 98.2719 180.367 98.9229C180.367 98.9229 183.133 126.263 167.187 142.863C151.242 159.462 126.347 160.764 110.075 146.606C102.428 139.933 100.15 134.563 99.8243 130.657C98.1972 130.494 97.5463 130.169 96.5701 130.494C96.5701 130.494 105.519 164.507 142.943 159.788C150.265 157.997 157.099 155.231 162.469 151.488C177.926 140.91 183.459 121.218 182.971 105.107Z" fill="#D7E78D"/>
<path d="M111.214 147.258C112.679 148.397 113.98 149.373 115.608 150.35C113.98 149.536 112.516 148.397 111.214 147.258Z" fill="#499422"/>
<path d="M110.401 146.607C110.726 146.77 110.889 147.095 111.214 147.258C110.889 147.095 110.563 146.932 110.401 146.607Z" fill="#7FAF19"/>
<path d="M180.693 99.0864L180.53 99.2492C180.53 99.9001 180.693 101.365 180.693 103.48C180.693 112.106 179.228 130.332 167.35 142.701L167.188 142.863C158.564 151.651 147.337 156.208 136.435 156.208C129.113 156.208 121.953 154.255 115.608 150.349C114.143 149.373 112.679 148.397 111.214 147.257C110.889 147.095 110.726 146.769 110.401 146.606C106.333 143.026 103.73 139.934 102.265 137.168C100.963 134.726 100.313 132.611 100.15 130.821C99.6618 130.821 99.3363 130.658 99.0109 130.658C98.8482 130.658 98.6855 130.658 98.3601 130.658C99.1737 133.587 107.635 159.137 136.598 159.137C138.713 159.137 140.828 158.975 143.106 158.649C150.103 157.022 156.774 154.255 161.981 150.675C176.788 140.26 182.32 121.219 181.832 105.759C181.669 105.433 181.832 102.504 180.693 99.0864Z" fill="#B4C846"/>
<path d="M96.5702 130.496C96.4075 130.496 96.2448 130.658 96.0821 130.821C94.2922 131.96 93.8041 149.536 106.496 157.51C114.794 162.718 129.438 163.206 143.106 159.952C105.519 164.345 96.5702 130.496 96.5702 130.496Z" fill="#5AB024"/>
<path d="M110.075 146.444C126.346 160.602 151.241 159.3 167.187 142.7C183.133 126.101 180.367 98.7607 180.367 98.7607C179.391 99.5744 178.089 100.714 176.299 102.016C165.397 110.153 153.357 116.174 140.502 120.568C129.926 124.148 119.187 127.24 108.448 129.681C106.658 130.17 104.706 130.658 102.753 130.658C101.451 130.658 100.475 130.495 99.8242 130.495C100.15 134.401 102.59 139.771 110.075 146.444Z" fill="url(#paint1_linear_7002_12902)"/>
<path d="M108.123 139.283C111.865 142.375 131.716 156.859 151.079 147.745C170.442 138.632 173.371 122.195 175.649 113.407C177.764 104.619 173.859 106.247 164.096 112.268C154.333 118.29 134.157 125.938 121.791 128.217C109.262 130.332 98.0346 130.983 108.123 139.283Z" fill="#F93F33"/>
<path d="M168.001 111.292C165.723 111.292 163.933 113.407 162.144 114.709C160.191 116.174 158.076 117.313 155.96 118.452C153.357 119.917 150.754 121.219 147.987 122.521C145.059 123.822 142.13 124.962 139.038 126.101C138.55 126.264 138.062 126.426 137.574 126.589C133.669 127.891 129.764 128.867 125.696 129.518C124.72 129.681 123.743 129.681 122.767 129.844C119.675 130.169 116.421 130.658 113.33 131.471C111.703 131.959 107.309 133.099 109.75 135.54C111.052 136.842 114.794 138.306 116.421 138.957C120.652 140.259 124.882 140.91 129.276 140.91C132.042 140.91 134.645 140.585 137.411 140.096C145.547 138.632 153.52 134.726 159.052 128.542C161.818 125.45 164.421 122.032 166.537 118.289C167.35 117.313 170.605 111.454 168.001 111.292Z" fill="#F75346"/>
<path d="M96.2451 131.472C96.4078 134.727 98.8485 155.232 113.167 160.277C113.167 160.277 116.747 161.253 119.513 161.579C122.767 161.904 126.672 161.904 126.672 161.904C104.706 156.208 97.5468 135.378 96.2451 131.146V131.472Z" fill="#97CE16"/>
<path d="M119.562 136.536C119.562 136.536 116.589 140.86 119.021 141.13C121.183 141.671 119.562 136.536 119.562 136.536Z" fill="url(#paint2_radial_7002_12902)"/>
<path d="M133.333 144.286C133.333 144.286 131.171 149.151 133.333 149.151C135.495 149.421 133.333 145.096 133.333 144.286Z" fill="url(#paint3_radial_7002_12902)"/>
<path d="M164.29 116.607C164.29 116.607 169.154 118.499 167.262 120.121C165.371 121.742 164.29 116.607 164.29 116.607Z" fill="url(#paint4_radial_7002_12902)"/>
<path d="M163.189 131C163.189 131 167.783 133.973 165.892 135.324C164 136.676 163.459 131.811 163.189 131Z" fill="url(#paint5_radial_7002_12902)"/>
<path d="M148.881 127.679C148.881 127.679 154.016 129.03 152.664 130.922C151.313 132.814 149.692 128.49 148.881 127.679Z" fill="url(#paint6_radial_7002_12902)"/>
<path d="M133.453 128.786C133.453 128.786 135.615 133.651 133.453 133.651C131.021 133.651 133.453 129.596 133.453 128.786Z" fill="url(#paint7_radial_7002_12902)"/>
<path d="M148.881 140.964C148.881 140.964 152.935 144.208 151.043 145.559C149.152 146.64 149.152 141.775 148.881 140.964Z" fill="url(#paint8_radial_7002_12902)"/>
<defs>
<linearGradient id="paint0_linear_7002_12902" x1="26.3815" y1="62.4277" x2="26.3815" y2="68.9801" gradientUnits="userSpaceOnUse">
<stop stop-color="#993623"/>
<stop offset="1" stop-color="#6F1605"/>
</linearGradient>
<linearGradient id="paint1_linear_7002_12902" x1="135.124" y1="122.696" x2="153.99" y2="151.379" gradientUnits="userSpaceOnUse">
<stop stop-color="#FD5453"/>
<stop offset="1" stop-color="#FD0807"/>
</linearGradient>
<radialGradient id="paint2_radial_7002_12902" cx="0" cy="0" r="1" gradientUnits="userSpaceOnUse" gradientTransform="translate(119.105 138.853) rotate(90) scale(2.31728 1.0404)">
<stop stop-color="#6A4127"/>
<stop offset="1" stop-color="#331A0A"/>
</radialGradient>
<radialGradient id="paint3_radial_7002_12902" cx="0" cy="0" r="1" gradientUnits="userSpaceOnUse" gradientTransform="translate(133.333 146.724) rotate(90) scale(2.43855 0.960824)">
<stop stop-color="#6A4127"/>
<stop offset="1" stop-color="#331A0A"/>
</radialGradient>
<radialGradient id="paint4_radial_7002_12902" cx="0" cy="0" r="1" gradientUnits="userSpaceOnUse" gradientTransform="translate(165.994 118.522) rotate(90) scale(1.91512 1.70467)">
<stop stop-color="#6A4127"/>
<stop offset="1" stop-color="#331A0A"/>
</radialGradient>
<radialGradient id="paint5_radial_7002_12902" cx="0" cy="0" r="1" gradientUnits="userSpaceOnUse" gradientTransform="translate(164.769 133.28) rotate(90) scale(2.28007 1.57959)">
<stop stop-color="#6A4127"/>
<stop offset="1" stop-color="#331A0A"/>
</radialGradient>
<radialGradient id="paint6_radial_7002_12902" cx="0" cy="0" r="1" gradientUnits="userSpaceOnUse" gradientTransform="translate(150.886 129.538) rotate(90) scale(1.85882 2.00484)">
<stop stop-color="#6A4127"/>
<stop offset="1" stop-color="#331A0A"/>
</radialGradient>
<radialGradient id="paint7_radial_7002_12902" cx="0" cy="0" r="1" gradientUnits="userSpaceOnUse" gradientTransform="translate(133.393 131.218) rotate(90) scale(2.4325 1.02088)">
<stop stop-color="#6A4127"/>
<stop offset="1" stop-color="#331A0A"/>
</radialGradient>
<radialGradient id="paint8_radial_7002_12902" cx="0" cy="0" r="1" gradientUnits="userSpaceOnUse" gradientTransform="translate(150.214 143.34) rotate(90) scale(2.37533 1.33239)">
<stop stop-color="#6A4127"/>
<stop offset="1" stop-color="#331A0A"/>
</radialGradient>
</defs>
</svg>
