<svg width="200" height="200" viewBox="0 0 200 200" fill="none" xmlns="http://www.w3.org/2000/svg">
<path d="M93.1669 39.7708C93.0651 43.861 92.5562 59.3746 87.5095 72.3224C82.4544 85.2702 77.0175 92.6121 74.6766 103.799C73.4467 109.658 74.2694 119.744 74.2694 124.783C74.2694 129.83 74.2694 167.843 74.2694 171.798C74.2694 175.744 73.8623 180.384 78.909 181.477C83.9557 182.569 108.375 184.187 120.402 181.612C124.227 180.799 126 179.292 125.864 175.21C125.729 171.12 126 115.247 126 109.929C126 104.62 124.906 98.616 123.405 95.7538C121.903 92.8915 114.668 77.7674 111.394 69.1807C108.12 60.594 106.237 44.0134 106.755 38.7885C106.823 38.128 107.187 37.459 107.73 36.9764C108.273 36.4937 109.248 35.4013 108.4 34.3089C107.552 33.2165 107.73 29.5837 107.917 27.7037C108.095 25.8238 107.857 24.4943 108.282 23.2834C108.706 22.0724 110.046 20.0147 107.917 18.4989C105.788 17 100.139 17 98.8073 17C97.4757 17 91.954 17.542 91.1058 19.3626C90.2577 21.1833 91.7165 22.5128 91.8353 23.4866C91.954 24.452 92.4375 31.0571 92.2594 32.2681C92.0812 33.479 91.2331 34.148 91.1058 35.2319C90.9871 36.3243 92.0304 36.9086 92.5562 37.2897C92.9803 37.5945 93.1754 39.3305 93.1669 39.7708Z" fill="url(#paint0_linear_2003_16207)"/>
<g opacity="0.4" style="mix-blend-mode:soft-light">
<path d="M99.7318 130.38C99.7318 111.234 99.7318 92.0786 99.7318 72.9321C99.7318 60.1622 99.7318 47.3837 99.7318 34.6138C96.9074 34.6138 94.083 34.6138 91.2585 34.6138C91.1822 34.8085 91.1313 35.0118 91.1058 35.2319C90.9871 36.3243 92.0304 36.9086 92.5562 37.2897C92.9803 37.5946 93.1754 39.3305 93.1669 39.7709C93.0651 43.861 92.5562 59.3746 87.5095 72.3224C82.4544 85.2702 77.0175 92.6121 74.6766 103.799C73.4467 109.658 74.2694 119.744 74.2694 124.783V135.639C78.222 135.639 82.1745 135.639 86.1355 135.639C90.6648 135.639 95.2025 135.639 99.7403 135.639C99.7318 133.886 99.7318 132.133 99.7318 130.38Z" fill="url(#paint1_radial_2003_16207)"/>
</g>
<g opacity="0.4" style="mix-blend-mode:soft-light">
<path d="M123.405 95.7619C121.903 92.8997 114.668 77.7756 111.394 69.1889C108.12 60.6022 106.237 44.0216 106.755 38.7967C106.823 38.1362 107.187 37.4672 107.73 36.9845C108.231 36.5442 109.079 35.5958 108.578 34.605H106.78C104.465 34.605 102.141 34.605 99.8252 34.605C99.8252 37.8991 99.8252 41.1932 99.8252 44.4873C99.8252 63.6423 99.8252 82.7972 99.8252 101.944C99.8252 113.181 99.8252 124.41 99.8252 135.638C103.574 135.638 107.323 135.638 111.072 135.638C116.017 135.638 120.962 135.638 125.907 135.638C125.949 123.216 126 112.156 126 109.929C126 104.62 124.906 98.6242 123.405 95.7619Z" fill="url(#paint2_radial_2003_16207)"/>
</g>
<path d="M125.847 154.269C123.557 154.269 121.267 154.269 118.986 154.269C110.58 154.269 102.175 154.269 93.7607 154.269C87.2636 154.269 80.7665 154.269 74.2695 154.269V171.807C74.2695 175.753 73.8623 180.393 78.909 181.486C83.9557 182.578 108.375 184.195 120.402 181.621C124.227 180.808 126 179.301 125.864 175.219C125.805 173.678 125.813 164.922 125.847 154.269Z" fill="url(#paint3_radial_2003_16207)"/>
<path d="M125.941 124.918H74.2609V168.47C83.9132 169.825 104.066 171.704 125.813 167.978C125.822 157.571 125.89 138.45 125.941 124.918Z" fill="url(#paint4_linear_2003_16207)"/>
<path d="M111.428 69.2993C111.411 69.2654 111.403 69.2231 111.386 69.1892C108.112 60.6025 106.229 44.0219 106.746 38.797C106.814 38.1365 107.179 37.4675 107.722 36.9848C108.265 36.5021 109.24 35.4098 108.392 34.3174C107.544 33.225 107.722 29.5921 107.908 27.7122C108.086 25.8323 107.849 24.5028 108.273 23.2918C108.697 22.0809 110.037 20.0231 107.908 18.5073C105.788 17 100.139 17 98.8074 17C97.4757 17 91.9541 17.542 91.1059 19.3626C90.2577 21.1833 91.7166 22.5128 91.8353 23.4866C91.9541 24.452 92.4375 31.0571 92.2594 32.2681C92.0813 33.479 91.2331 34.148 91.1059 35.2319C90.9872 36.3243 92.0304 36.9086 92.5563 37.2897C92.9804 37.5945 93.1755 39.3305 93.167 39.7708C93.0737 43.5392 92.6326 57.0205 88.6122 69.24C92.0898 71.103 96.2798 73.6942 100.054 76.9884C100.046 76.9884 104.923 73.0168 111.428 69.2993Z" fill="url(#paint5_linear_2003_16207)"/>
<g opacity="0.2" style="mix-blend-mode:soft-light">
<path d="M105.067 37.6704C105.483 37.3486 105.898 37.0353 106.331 36.7389C106.738 36.451 107.204 36.1207 107.357 35.6211C106.679 35.7735 105.864 36.1207 105.203 35.7651C105.118 35.7143 105.033 35.6719 104.957 35.6042C104.88 35.5449 104.889 35.511 104.813 35.5703C104.736 35.6296 104.651 35.6889 104.567 35.7481C104.372 35.8752 104.168 35.9852 103.956 36.0699C103.608 36.2139 103.125 36.3833 102.76 36.2139C102.387 36.0445 102.378 35.6211 102.438 35.2739C101.725 35.5449 100.512 35.257 99.7659 35.4264C99.4097 35.511 99.4097 36.2308 99.0365 36.2393C97.9169 36.2901 96.9499 34.5711 96.3986 35.7397C96.0339 36.5018 95.05 35.9768 94.804 35.8328C94.4393 35.6127 93.7184 35.799 93.3876 35.5364C93.2858 35.6127 93.201 35.7058 93.184 35.8328C93.1586 36.0107 93.2264 36.18 93.3112 36.324C93.5063 36.6373 93.7693 36.9083 94.0237 37.1708C96.8736 40.0669 97.1111 44.5635 97.1196 48.3741C97.128 52.6336 94.4308 72.737 94.6089 72.864C96.4325 74.0834 98.2731 75.4638 100.029 76.9965C100.029 76.9965 102.404 75.0658 106.042 72.6269C105.729 72.1612 99.7744 41.8283 105.067 37.6704Z" fill="url(#paint6_radial_2003_16207)"/>
</g>
<g opacity="0.2" style="mix-blend-mode:soft-light">
<path d="M88.6038 69.2402C90.1305 70.0616 91.8014 71.0185 93.5062 72.1193C93.9812 70.0108 94.3714 67.8768 94.7107 65.7343C95.6606 59.6796 96.178 53.5656 96.899 47.4855C97.1534 45.3261 97.2298 43.0058 97.9507 40.9396C98.6886 38.8395 98.6462 37.5439 96.407 36.5108C95.245 35.9773 95.5164 35.7825 95.4486 34.8341C95.3553 33.6147 95.2281 33.1489 94.7616 31.9126C94.4986 31.2012 94.4477 30.3883 94.4562 29.6431C94.4647 27.4583 95.016 25.3328 95.491 23.2073C95.5504 22.9617 95.0669 22.5214 94.9142 22.352C94.4562 21.8609 93.9303 21.4036 93.5911 20.8193C93.2857 20.3027 93.1924 19.7692 93.3536 19.1849C93.4893 18.6853 93.8964 18.2534 94.2866 17.9232C94.4647 17.7623 94.6683 17.6099 94.8633 17.4744C93.1755 17.8385 91.53 18.4313 91.0974 19.3543C90.2492 21.1749 91.7081 22.5044 91.8268 23.4783C91.9456 24.4437 92.4291 31.0488 92.2509 32.2597C92.0728 33.4707 91.2246 34.1397 91.0974 35.2236C90.9787 36.316 92.0219 36.9003 92.5478 37.2814C92.9719 37.5862 93.167 39.3222 93.1585 39.7625C93.0737 43.5393 92.6326 57.0206 88.6038 69.2402Z" fill="url(#paint7_radial_2003_16207)"/>
</g>
<g opacity="0.2" style="mix-blend-mode:soft-light">
<path d="M104.117 17.889C104.473 18.4564 104.677 19.0915 104.728 19.752C104.762 20.1669 104.762 20.5734 104.651 20.9799C104.151 22.8005 105.262 24.9345 105.067 26.9245C104.863 29.0416 104.796 33.0978 103.396 34.91C103.226 35.1302 103.014 35.3165 102.828 35.5197C100.996 37.5182 103.125 41.1341 103.235 43.539C103.413 47.3497 102.879 51.1519 102.853 54.9626C102.819 60.1281 103.396 65.2937 104.193 70.3915C104.355 71.4331 104.558 72.4662 104.813 73.4824C106.653 72.2122 108.918 70.7387 111.428 69.3076C111.411 69.2737 111.403 69.2314 111.386 69.1975C108.112 60.6108 106.229 44.0302 106.746 38.8053C106.814 38.1448 107.179 37.4758 107.722 36.9932C108.265 36.5105 109.24 35.4181 108.392 34.3257C107.544 33.2333 107.722 29.6005 107.908 27.7205C108.087 25.8406 107.849 24.5111 108.273 23.3002C108.697 22.0892 110.037 20.0315 107.908 18.5157C106.958 17.8297 105.288 17.4571 103.625 17.2539C103.812 17.4487 103.973 17.6604 104.117 17.889Z" fill="url(#paint8_radial_2003_16207)"/>
</g>
<g opacity="0.2" style="mix-blend-mode:soft-light">
<path d="M92.2085 18.719C92.234 18.7106 92.2679 18.7275 92.2679 18.7529C92.2764 18.9815 92.2764 19.3372 92.5733 19.3795C92.7344 19.3965 92.9041 19.3711 93.0652 19.388C93.2603 19.405 93.4045 19.4812 93.5826 19.5489C93.837 19.6505 94.0915 19.7352 94.346 19.8199C94.6004 19.9046 94.8633 20.0401 95.1263 20.0909C95.508 20.1671 95.8896 20.201 96.2713 20.201C97.0008 20.1925 97.7217 20.0993 98.4427 20.057C99.1212 20.0147 99.7658 20.057 100.444 20.1925C101.131 20.328 101.818 20.4973 102.514 20.6074C103.209 20.709 103.922 20.7599 104.617 20.6159C104.991 20.5312 105.372 20.4127 105.686 20.1925C105.881 20.057 106.051 19.8961 106.237 19.7606C107.23 19.0408 108.332 19.6675 109.07 20.599C109.07 19.8792 108.782 19.1594 107.9 18.5327C105.788 17 100.139 17 98.8074 17C97.4757 17 91.9541 17.542 91.1059 19.3626C91.0041 19.5658 90.9448 19.7691 90.9023 19.9639C91.1314 19.405 91.53 18.9477 92.2085 18.719Z" fill="url(#paint9_radial_2003_16207)"/>
</g>
<g opacity="0.2" style="mix-blend-mode:soft-light">
<path d="M95.2959 19.2271C95.0754 19.2356 94.6259 19.134 94.4986 18.9561C94.4053 18.8291 94.3375 18.7275 94.2018 18.6428C94.0661 18.5581 93.8964 18.5835 93.7437 18.6089C93.6589 18.6259 93.5656 18.6936 93.4978 18.736C93.4554 18.7698 93.413 18.7952 93.3705 18.8291C93.1585 19.0662 92.9719 18.9646 92.8277 18.5327C92.8362 18.5243 92.8192 18.5243 92.8192 18.5327C92.7174 18.7868 92.5817 18.9646 92.8107 19.1424C93.0398 19.3118 93.413 19.1001 93.6165 19.0239C94.0491 18.8545 94.1339 19.2017 94.4986 19.2694C94.804 19.3203 95.0075 19.2949 95.3044 19.2525C95.3044 19.2356 95.3044 19.2271 95.2959 19.2271Z" fill="url(#paint10_radial_2003_16207)"/>
</g>
<g opacity="0.2" style="mix-blend-mode:soft-light">
<path d="M100.419 19.3201C99.6301 19.3032 98.8498 19.1254 98.061 19.0915C97.6708 19.0746 97.2722 19.0576 96.8735 19.0576C96.4918 19.0576 96.0847 19.1169 95.703 19.0915C95.6945 19.0915 95.6945 19.1084 95.703 19.1084C96.0423 19.1592 96.3646 19.2778 96.7124 19.3117C97.111 19.354 97.5012 19.3625 97.8913 19.3794C98.2815 19.3963 98.6717 19.4048 99.0703 19.4133C99.5198 19.4217 99.9609 19.3371 100.419 19.3201Z" fill="url(#paint11_radial_2003_16207)"/>
</g>
<g opacity="0.2" style="mix-blend-mode:soft-light">
<path d="M107.306 18.7109C107.103 18.7702 106.924 18.694 106.721 18.7363C106.704 18.7448 106.687 18.7533 106.678 18.7702C106.611 18.8803 106.382 18.7025 106.314 18.6686C105.898 18.4654 105.678 19.0158 105.364 19.1428C104.745 19.3969 103.947 19.2444 103.294 19.2868C102.463 19.346 101.615 19.2614 100.784 19.346C100.775 19.346 100.775 19.363 100.784 19.363C101.606 19.4561 102.463 19.4985 103.294 19.5323C103.947 19.5578 104.66 19.6001 105.304 19.4731C105.55 19.4223 105.712 19.3206 105.881 19.1428C106.136 18.8803 106.212 19.0243 106.492 19.0497C106.645 19.0666 106.704 19.0497 106.789 18.9311C106.865 18.821 106.712 18.7448 106.967 18.7533C107.103 18.7617 107.187 18.7533 107.306 18.7109C107.315 18.7109 107.306 18.7025 107.306 18.7109Z" fill="url(#paint12_radial_2003_16207)"/>
</g>
<g opacity="0.2" style="mix-blend-mode:soft-light">
<path d="M92.8531 20.565C92.8107 20.4803 92.7428 20.4126 92.6665 20.3533C92.5053 20.2263 92.3018 20.1162 92.446 19.896C92.4544 19.8791 92.429 19.8621 92.4205 19.8791C92.2848 20.04 92.1661 20.2093 92.3272 20.3956C92.4036 20.4888 92.4799 20.565 92.5817 20.6412C92.641 20.6836 92.6919 20.709 92.7428 20.7428C92.7768 20.7682 92.8192 20.7598 92.8531 20.7852C92.8616 20.7936 92.8701 20.7852 92.8701 20.7767C92.8785 20.6836 92.8955 20.6666 92.8531 20.565Z" fill="url(#paint13_radial_2003_16207)"/>
</g>
<g opacity="0.2" style="mix-blend-mode:soft-light">
<path d="M93.8201 29.0672C93.7607 28.1103 93.7353 27.1534 93.659 26.1965C93.5996 25.3073 93.5402 24.4097 93.4469 23.5205C93.3451 22.606 93.1501 21.7168 93.0483 20.8023C93.0398 20.7599 92.9889 20.7599 92.9889 20.8023C92.8871 21.6406 92.9635 22.5128 93.0483 23.3512C93.1331 24.2319 93.184 25.1295 93.2434 26.0186C93.3027 26.9247 93.3706 27.8308 93.4469 28.7284C93.5148 29.6007 93.7862 30.4898 93.7947 31.362C93.7947 31.3705 93.8032 31.3705 93.8032 31.362C93.9134 30.583 93.8625 29.8547 93.8201 29.0672Z" fill="url(#paint14_radial_2003_16207)"/>
</g>
<g opacity="0.2" style="mix-blend-mode:soft-light">
<path d="M93.7013 31.7007C93.7013 31.6668 93.6589 31.6668 93.6589 31.7007C93.6589 32.2935 93.6928 32.9116 93.2348 33.352C92.9125 33.6653 92.8701 33.877 92.8531 34.3174C92.8531 34.3258 92.8616 34.3258 92.8701 34.3174C93.1754 34.0125 93.5486 33.7585 93.7861 33.3859C94.1254 32.8778 93.7437 32.2342 93.7013 31.7007Z" fill="url(#paint15_radial_2003_16207)"/>
</g>
<g opacity="0.2" style="mix-blend-mode:soft-light">
<path d="M93.1076 35.4096C92.8616 35.1894 92.7429 34.893 92.8277 34.5797C92.8446 34.5204 92.7513 34.4781 92.7259 34.5373C92.5563 34.8507 92.429 35.0708 92.5987 35.4096C92.8362 35.8668 93.3875 35.8753 93.6759 36.2479C93.6843 36.2564 93.6928 36.2479 93.6843 36.2394C93.4977 35.9515 93.362 35.6551 93.1076 35.4096Z" fill="url(#paint16_radial_2003_16207)"/>
</g>
<g opacity="0.2" style="mix-blend-mode:soft-light">
<path d="M95.8386 34.1141C95.8047 33.75 95.7538 33.3774 95.7793 33.0217C95.7877 32.9879 95.7284 32.9794 95.7199 33.0133C95.6351 33.3266 95.5757 33.6399 95.4909 33.9532C95.3891 34.3258 95.4824 34.5968 95.0922 34.8339C94.6936 35.0795 94.1508 35.3505 94.1508 35.884C94.1508 36.011 94.2525 36.1126 94.3798 36.1126C94.7954 36.1126 95.3382 37.0356 95.44 37.3828C95.44 37.3998 95.4654 37.3913 95.4654 37.3828C95.457 36.8493 95.2195 36.0787 94.7106 35.7739C94.9989 35.4013 95.5078 35.2489 95.7708 34.8339C95.915 34.6222 95.8556 34.3428 95.8386 34.1141Z" fill="url(#paint17_radial_2003_16207)"/>
</g>
<g opacity="0.2" style="mix-blend-mode:soft-light">
<path d="M98.2476 36.9766C98.0525 36.2822 97.374 36.0366 96.9075 35.5963C96.882 35.5794 96.8566 35.6048 96.8735 35.6302C97.3061 36.1637 97.8235 36.7734 97.9083 37.4762C97.9847 38.0859 98.0779 38.5178 98.3663 39.0682C98.3663 39.0767 98.3748 39.0682 98.3748 39.0682C98.1882 38.3823 98.4342 37.6541 98.2476 36.9766Z" fill="url(#paint18_radial_2003_16207)"/>
</g>
<g opacity="0.2" style="mix-blend-mode:soft-light">
<path d="M102.862 35.6639C102.293 36.0704 101.708 36.4091 101.564 37.1374C101.496 37.4761 101.53 37.8741 101.581 38.2213C101.615 38.4245 101.623 38.6278 101.64 38.831C101.657 39.0766 101.776 39.2883 101.793 39.5339C101.793 39.5423 101.801 39.5423 101.81 39.5339C101.92 38.9326 101.929 38.3483 101.937 37.7386C101.946 36.8833 102.353 36.3075 102.887 35.6809C102.896 35.6724 102.879 35.6555 102.862 35.6639Z" fill="url(#paint19_radial_2003_16207)"/>
</g>
<g opacity="0.2" style="mix-blend-mode:soft-light">
<path d="M107.001 36.1804C106.356 36.5361 105.627 36.6292 105.058 37.1204C104.829 37.3152 104.719 37.5861 104.694 37.8741C104.643 38.3483 104.66 38.8394 104.651 39.3136C104.651 39.3644 104.736 39.3814 104.745 39.3306C104.863 38.6108 104.957 37.6962 105.61 37.2559C106.085 36.9426 106.695 36.68 107.035 36.2143C107.043 36.1889 107.018 36.172 107.001 36.1804Z" fill="url(#paint20_radial_2003_16207)"/>
</g>
<g opacity="0.2" style="mix-blend-mode:soft-light">
<path d="M92.0389 23.207C91.7166 22.2924 90.9786 21.6234 90.8769 20.6411C90.8769 20.6157 90.8344 20.6157 90.8344 20.6411C90.8175 21.4033 91.2161 22.1485 91.4791 22.8428C91.6402 23.2578 91.759 23.6812 91.9286 24.0961C92.0898 24.4772 92.4545 25.1377 92.446 25.5526C92.446 25.5611 92.4545 25.5611 92.4545 25.5526C92.5138 24.7651 92.2933 23.9437 92.0389 23.207Z" fill="url(#paint21_radial_2003_16207)"/>
</g>
<g opacity="0.2" style="mix-blend-mode:soft-light">
<path d="M105.092 35.2824C105.1 34.8421 105.244 34.4102 105.253 33.9614C105.253 32.9113 105.142 31.8443 105.032 30.8028C105.024 30.7519 104.956 30.7519 104.956 30.8028C104.846 31.9036 104.863 33.0299 104.838 34.1307C104.829 34.5372 104.592 35.0368 104.677 35.4433C104.77 35.8498 105.126 36.1123 105.261 36.5018C105.261 36.5103 105.27 36.5103 105.27 36.5018C105.159 36.1546 105.083 35.6381 105.092 35.2824Z" fill="url(#paint22_radial_2003_16207)"/>
</g>
<g opacity="0.2" style="mix-blend-mode:soft-light">
<path d="M106.492 33.4957C106.144 33.2247 106.136 32.5219 106.11 32.1069C106.102 32.0731 106.051 32.0731 106.051 32.1069C106.017 32.5134 105.881 32.9114 106.076 33.3179C106.297 33.7836 106.704 33.9953 107.077 34.3171C107.086 34.3256 107.094 34.3171 107.086 34.3087C106.891 34.0207 106.772 33.7159 106.492 33.4957Z" fill="url(#paint23_radial_2003_16207)"/>
</g>
<g opacity="0.2" style="mix-blend-mode:soft-light">
<path d="M107.34 34.8594C107.272 34.7578 107.238 34.6223 107.204 34.5037C107.187 34.436 107.077 34.4614 107.094 34.5291C107.128 34.69 107.196 34.834 107.145 34.9949C107.094 35.1727 106.984 35.2659 106.84 35.3759C106.602 35.5538 106.382 35.7655 106.161 35.9687C106.144 35.9856 106.161 36.0195 106.187 36.0111C106.365 35.9433 106.551 35.884 106.721 35.7993C106.899 35.7147 107.12 35.6469 107.23 35.4691C107.315 35.3336 107.383 35.1896 107.399 35.0287C107.416 34.9695 107.374 34.9102 107.34 34.8594Z" fill="url(#paint24_radial_2003_16207)"/>
</g>
<g opacity="0.2" style="mix-blend-mode:soft-light">
<path d="M107.289 19.8454C107.281 19.7268 107.17 20.9716 107.17 21.0986C107.213 22.4112 106.797 23.7238 106.695 25.0279C106.645 25.7053 106.56 26.3658 106.458 27.0348C106.356 27.6869 106.348 28.305 106.348 28.9571C106.348 28.9909 106.399 28.9909 106.399 28.9655C106.534 28.3474 106.594 27.7207 106.789 27.128C106.992 26.5098 107.035 25.8408 107.094 25.1972C107.153 24.469 107.179 23.7407 107.281 23.0124C107.374 22.3858 107.332 20.4805 107.289 19.8454Z" fill="url(#paint25_radial_2003_16207)"/>
</g>
<g opacity="0.2" style="mix-blend-mode:soft-light">
<path d="M104.338 22.157C104.015 23.4019 103.744 24.6297 103.566 25.9084C103.388 27.1871 103.209 28.4658 103.048 29.753C102.887 31.0147 102.76 32.2934 102.751 33.5636C102.743 34.1903 102.692 34.656 102.276 35.1472C101.92 35.5621 101.64 36.0279 101.42 36.536C101.403 36.5698 101.445 36.6037 101.462 36.5698C101.801 36.1549 102.081 35.723 102.488 35.3673C102.853 35.054 103.065 34.7492 103.125 34.2665C103.201 33.6737 103.175 33.0725 103.209 32.4797C103.252 31.7938 103.311 31.1079 103.388 30.4304C103.532 29.1179 103.735 27.7968 103.896 26.4843C104.075 25.0531 104.193 23.6051 104.405 22.1824C104.422 22.1232 104.354 22.1062 104.338 22.157Z" fill="url(#paint26_radial_2003_16207)"/>
</g>
<g opacity="0.2" style="mix-blend-mode:soft-light">
<path d="M101.36 24.0283C101.36 23.986 101.301 23.986 101.301 24.0283C101.284 24.9937 101.148 25.9421 101.106 26.9075C101.063 27.8475 101.038 28.7959 101.021 29.7443C101.004 30.6843 100.996 31.6158 101.004 32.5558C101.021 33.5211 100.962 34.5204 101.063 35.4857C101.072 35.5366 101.14 35.5366 101.14 35.4857C101.563 31.6835 101.377 27.8305 101.36 24.0283Z" fill="url(#paint27_radial_2003_16207)"/>
</g>
<g opacity="0.2" style="mix-blend-mode:soft-light">
<path d="M99.5622 31.3201C99.4774 30.1515 99.4265 28.9744 99.3756 27.7973C99.3332 26.688 99.2738 25.5787 99.1975 24.4693C99.1551 23.885 99.0703 23.3092 99.0279 22.7249C98.9854 22.1491 99.0448 21.5648 98.9685 20.9974C98.96 20.9381 98.8752 20.9296 98.8667 20.9974C98.8243 21.4631 98.9006 21.912 98.9091 22.3777C98.9176 22.8434 98.8921 23.3092 98.8921 23.7665C98.9006 24.7573 98.943 25.748 98.96 26.7388C99.0024 28.678 99.1212 30.6172 99.2314 32.5564C99.2908 33.598 99.4435 34.8343 99.2484 35.8759C99.0957 36.6465 98.7395 35.7404 98.6716 35.4271C98.5444 34.8598 98.4765 34.2924 98.3493 33.725C98.3408 33.6573 98.2984 34.2162 98.2815 34.2924C98.1797 34.8682 98.1288 34.9698 98.2475 35.5457C98.3239 35.9013 98.5953 36.6719 99.0957 36.5788C99.4095 36.5195 99.5028 35.9691 99.5537 35.7235C99.647 35.2408 99.6979 34.7581 99.7234 34.267C99.7488 33.2931 99.6301 32.3024 99.5622 31.3201Z" fill="url(#paint28_radial_2003_16207)"/>
</g>
<g opacity="0.2" style="mix-blend-mode:soft-light">
<path d="M96.7463 27.0343C96.6445 25.2137 96.5597 23.4184 95.4825 21.8687C95.474 21.8603 95.4655 21.8687 95.4655 21.8772C96.3391 23.537 96.2289 25.5609 96.3815 27.39C96.4664 28.3977 96.5766 29.3969 96.6699 30.3962C96.7632 31.3954 96.9329 32.4031 96.9753 33.4024C96.9838 33.4108 96.9922 33.4108 96.9922 33.4024C97.094 31.2769 96.8565 29.1598 96.7463 27.0343Z" fill="url(#paint29_radial_2003_16207)"/>
</g>
<g opacity="0.2" style="mix-blend-mode:soft-light">
<path d="M91.9456 21.7504C91.2417 21.6996 90.9618 21.0137 90.8515 20.3108C90.7497 21.6572 91.7336 22.6819 91.8354 23.4779C91.9541 24.4433 92.4376 31.0484 92.2595 32.2594C92.1662 32.8775 91.9032 33.3518 91.6488 33.809C91.6912 33.7752 91.7251 33.7413 91.7675 33.7074C92.0898 33.411 92.3697 33.0808 92.7005 32.8013C92.7175 32.7844 92.7599 32.7929 92.7769 32.8183C93.0059 33.4703 92.463 34.0716 92.4546 34.7236C92.4546 34.9861 92.48 35.291 92.6327 35.5111C92.8108 35.7567 93.0652 35.816 93.3451 35.7567C93.167 35.3926 92.8871 34.9353 93.2094 34.5796C93.5487 34.1901 94.0915 34.1139 94.5411 34.3341C94.7786 34.4442 95.0245 34.605 95.296 34.5712C95.5334 34.5373 95.4571 34.2579 95.4232 34.08C95.3893 33.9022 95.3468 33.7328 95.279 33.5719C95.0585 32.9538 94.6853 32.3864 94.5072 31.7513C94.329 31.1246 94.3121 30.4387 94.2951 29.7867C94.2697 29.0923 94.2697 28.3979 94.2612 27.7035C94.2442 26.9498 94.1933 26.2131 94.117 25.4679C94.0491 24.7566 93.9982 24.0453 94.0491 23.3339C94.0746 22.9867 94.117 22.648 94.1764 22.3093C94.2272 21.996 94.2527 21.6403 94.0152 21.3863C93.7862 21.1322 93.4893 20.9798 93.2434 20.7512C93.0313 20.5479 92.8871 20.3108 92.726 20.0652C92.6157 19.8959 92.5054 19.7265 92.3613 19.591C92.2849 19.5148 92.1831 19.735 92.1577 19.8027C92.0814 20.0314 92.0814 20.2769 92.0814 20.5056C92.0898 20.9036 92.1577 21.3609 91.9965 21.7419C91.9881 21.7504 91.9626 21.7504 91.9456 21.7504Z" fill="url(#paint30_radial_2003_16207)"/>
</g>
<g opacity="0.2" style="mix-blend-mode:soft-light">
<path d="M99.4945 30.8287C99.4012 29.3468 99.3079 27.8733 99.1892 26.3999C99.1298 25.7224 99.0619 25.045 99.0619 24.3591C99.0619 23.6393 99.0959 22.9195 99.1043 22.1997C99.1043 21.7001 99.1807 20.9125 98.6039 20.6669C98.0356 20.4298 97.5522 20.7262 97.1196 21.0649C96.7634 21.3359 96.4071 21.5138 95.9576 21.3698C95.4656 21.2004 95.0246 20.8702 94.6514 20.5145C94.6344 20.4976 94.6344 20.4806 94.6429 20.4722C94.592 20.4552 94.5326 20.4552 94.4733 20.4722C94.6768 20.9803 94.9567 21.4545 95.1433 21.971C95.3469 22.513 95.4317 23.0973 95.525 23.6647C95.7286 24.9688 95.8219 26.2813 96.0339 27.577C96.229 28.7286 96.475 29.8718 96.5174 31.0489C96.5513 32.0227 96.7803 33.3353 96.7803 34.9527C97.6031 35.7233 97.8236 31.4215 97.6879 29.9988C97.6115 29.2198 97.4758 28.2121 97.4843 27.433C97.4843 27.0265 97.3825 25.8494 97.5013 25.4599C97.6794 24.8671 98.0441 28.0004 98.0696 28.2544C98.1968 29.3553 98.4767 30.4985 98.4767 31.6078C98.4852 32.5816 98.5191 33.5555 98.5869 34.5293C98.6124 34.8003 98.6124 36.8242 99.1807 36.3923C99.486 36.1637 99.6726 35.3084 99.7065 34.9527C99.7574 34.4954 99.749 34.0297 99.715 33.5639C99.6641 32.6409 99.5539 31.7348 99.4945 30.8287Z" fill="url(#paint31_radial_2003_16207)"/>
</g>
<g opacity="0.2" style="mix-blend-mode:soft-light">
<path d="M96.5767 22.9109C96.3732 22.3435 96.0254 21.5983 95.3384 21.5645C95.3469 21.6322 95.3723 21.6999 95.4147 21.7592C95.4486 21.81 95.3723 21.8608 95.3384 21.81C95.3808 22.1911 95.525 22.5552 95.6352 22.9194C95.7964 23.419 95.9321 23.9355 96.0593 24.4436C96.3223 25.4852 96.5173 26.5437 96.5937 27.6192C96.67 28.6946 96.7039 29.7701 96.8057 30.8455C96.8481 31.3113 96.8821 31.7686 96.8905 32.2343C96.899 32.5984 96.899 33.0049 97.128 33.3098C97.4419 32.844 97.4758 32.2089 97.4843 31.6585C97.5012 30.4899 97.3995 29.2959 97.3062 28.1357C97.2383 27.1788 97.162 26.2219 97.0517 25.2735C96.9669 24.4775 96.8481 23.6646 96.5767 22.9109Z" fill="url(#paint32_radial_2003_16207)"/>
</g>
<g opacity="0.2" style="mix-blend-mode:soft-light">
<path d="M97.5606 30.7353C97.586 31.2265 97.603 31.7346 97.5521 32.2257C97.5097 32.6322 97.4249 33.0641 97.1789 33.4113C97.162 33.4367 97.128 33.4282 97.1026 33.4113C96.8566 33.1233 96.8312 32.7253 96.8142 32.3697C96.7972 31.9209 96.7803 31.4805 96.7379 31.0317C96.6361 29.897 96.5937 28.7707 96.5089 27.636C96.424 26.4843 96.212 25.3496 95.9151 24.2318C95.7709 23.7068 95.6267 23.1817 95.4656 22.6736C95.3384 22.2672 95.2111 21.8522 95.2451 21.4119C95.2535 21.3526 95.3384 21.3695 95.3299 21.4288C95.3299 21.4373 95.3299 21.4542 95.3299 21.4627C95.8642 21.4796 96.229 21.9284 96.4495 22.3688C96.7972 23.0632 96.9499 23.8592 97.0687 24.6213C97.1789 25.375 97.2383 26.1286 97.3061 26.8908C97.4249 28.1695 97.4927 29.4566 97.5606 30.7353Z" fill="url(#paint33_radial_2003_16207)"/>
</g>
<g opacity="0.2" style="mix-blend-mode:soft-light">
<path d="M98.9261 20.9463C98.7989 21.4205 98.8583 21.9963 98.3409 22.2504C98.1543 22.3435 97.849 22.4282 97.7132 22.606C97.5436 22.8432 97.6369 23.2581 97.6624 23.5291C97.7896 24.9771 98.2222 26.349 98.4257 27.7801C98.6293 29.1858 98.7311 30.6084 98.8328 32.0226C98.8837 32.717 98.9516 33.4199 99.1043 34.0973C99.1636 34.3598 99.223 34.6478 99.3587 34.8933C99.4096 34.9865 99.4775 35.0796 99.5538 34.9611C99.6556 34.8002 99.698 34.6054 99.7404 34.4191C99.7489 34.1312 99.7319 33.8433 99.715 33.5638C99.6556 32.6493 99.5453 31.7516 99.4859 30.8456C99.3926 29.3636 99.2993 27.8902 99.1806 26.4167C99.1212 25.7393 99.0534 25.0618 99.0534 24.3759C99.0534 23.6561 99.0873 22.9363 99.0958 22.2165C99.1043 21.827 99.1467 21.2935 98.9261 20.9463Z" fill="url(#paint34_radial_2003_16207)"/>
</g>
<g opacity="0.2" style="mix-blend-mode:soft-light">
<path d="M104.982 21.039C104.821 21.056 104.66 21.0898 104.507 21.1322C104.227 21.2084 103.956 21.31 103.676 21.4031C103.125 21.5894 102.582 21.6995 102.005 21.5471C101.488 21.4031 101.013 21.1322 100.606 20.785C100.487 20.7342 100.275 20.6495 100.266 20.8612C100.266 20.9882 100.292 21.1237 100.334 21.2507C100.394 21.4455 100.461 21.6403 100.529 21.835C100.614 22.0806 100.614 22.3855 100.631 22.6395C100.682 23.3254 100.665 24.0113 100.673 24.6973C100.682 26.1622 100.699 27.6188 100.724 29.0753C100.741 29.6765 100.792 30.2778 100.792 30.879C100.792 31.3447 100.758 31.8105 100.733 32.2762C100.716 32.7928 100.69 33.3094 100.741 33.8174C100.775 34.1985 100.835 34.6135 101.055 34.9352C101.36 34.4441 101.454 33.8513 101.522 33.2924C101.572 32.7843 101.606 32.2678 101.623 31.7597C101.64 31.2685 101.623 30.7689 101.683 30.2693C101.734 29.8628 101.818 29.4309 102.107 29.1176C102.132 29.0922 102.166 29.0922 102.183 29.1261C102.709 30.0915 102.548 31.3278 102.489 32.3694C102.455 32.886 102.378 33.3686 102.243 33.8683C102.124 34.3425 101.946 34.8844 102.039 35.3841C103.829 34.4187 103.532 32.0222 103.506 30.3116C103.489 28.9737 103.617 27.6188 103.837 26.2977C103.947 25.6203 104.075 24.9513 104.244 24.2908C104.371 23.7912 104.584 23.3169 104.762 22.8427C104.957 22.3431 105.169 21.8096 105.169 21.2677C105.169 21.183 105.169 21.0983 105.152 21.0136C105.152 21.0136 104.999 21.0305 104.982 21.039Z" fill="url(#paint35_radial_2003_16207)"/>
</g>
<g opacity="0.2" style="mix-blend-mode:soft-light">
<path d="M102.565 32.3102C102.531 32.8098 102.472 33.411 102.726 33.8768C102.887 33.6989 102.921 33.4195 102.946 33.1909C102.972 32.9199 102.98 32.6404 102.98 32.361C102.989 31.6666 103.108 30.9807 103.209 30.2948C103.447 28.6011 103.608 26.8906 103.837 25.1969C103.922 24.5703 103.998 23.9182 104.193 23.317C104.287 23.0376 104.38 22.7496 104.431 22.4532C104.448 22.3516 104.507 21.7081 104.321 21.8097C103.956 22.0044 103.879 22.5549 103.769 22.9105C103.659 23.2577 103.515 23.588 103.159 23.7319C102.802 23.8759 102.293 23.9013 101.997 23.6219C101.776 23.4186 101.742 23.0545 101.691 22.775C101.657 22.5718 101.623 22.3686 101.564 22.1738C101.539 22.0976 101.394 21.7081 101.276 21.9113C101.225 22.0044 101.199 22.0976 101.182 22.1992C101.182 22.4956 101.182 22.8004 101.174 23.1053C101.157 25.8828 101.182 28.6604 100.962 31.4295C100.928 31.7936 100.902 32.1577 100.894 32.5219C100.885 32.8775 100.851 33.3009 100.979 33.6481C100.996 33.7074 101.021 33.7836 101.08 33.8175C101.14 33.8598 101.225 33.4957 101.233 33.4534C101.276 33.1655 101.267 32.8775 101.259 32.5812C101.25 31.8952 101.284 31.2093 101.386 30.5234C101.488 29.8459 101.598 29.1854 101.632 28.508C101.649 28.0846 101.64 27.6358 101.784 27.2378C101.844 27.0684 101.937 26.916 102.09 26.8059C102.149 26.7635 102.268 26.8821 102.31 26.9244C102.539 27.17 102.607 27.5426 102.65 27.8559C102.768 28.7281 102.726 29.6596 102.684 30.5403C102.641 31.1331 102.607 31.7259 102.565 32.3102Z" fill="url(#paint36_radial_2003_16207)"/>
</g>
<g opacity="0.2" style="mix-blend-mode:soft-light">
<path d="M106.992 32.2086C107.264 32.4373 107.671 33.301 108.129 33.8345C107.578 32.3949 107.739 29.3718 107.9 27.7121C107.934 27.3225 107.959 26.9584 107.968 26.6112C107.858 26.9923 107.764 27.3733 107.722 27.7713C107.688 28.127 107.679 28.525 107.45 28.8214C107.433 28.8468 107.391 28.8383 107.374 28.8129C107.001 28.0677 107.12 27.0854 107.213 26.2894C107.34 25.2309 107.51 24.1724 107.603 23.1054C107.671 22.284 107.824 21.4118 107.747 20.5819C107.722 20.3109 107.578 19.6165 107.196 20.0315C107.069 20.1754 106.975 20.3278 106.882 20.4887C106.712 21.0392 106.704 21.6404 106.645 22.1993C106.577 22.9445 106.424 23.6643 106.373 24.4095C106.271 25.9253 106.297 27.5258 105.686 28.9484C105.669 28.9823 105.618 28.9908 105.601 28.9484C105.254 28.0847 105.313 27.1193 105.288 26.1963C104.846 27.9746 104.948 29.8376 104.88 31.6582C104.846 32.6321 104.914 33.6567 104.753 34.6221C104.702 34.91 104.609 35.2402 104.668 35.5282C104.728 35.8415 104.957 36.0362 105.203 36.2056C105.228 35.8245 105.237 35.4435 105.271 35.0624C105.304 34.7237 105.364 34.385 105.389 34.0462C105.432 33.4111 105.381 32.7252 105.652 32.1409C105.669 32.107 105.712 32.0986 105.729 32.124C105.958 32.4712 105.992 32.8946 106.136 33.2841C106.288 33.6906 106.704 33.9361 106.848 34.3426C106.95 34.6221 106.967 34.893 106.823 35.164C106.67 35.4435 106.441 35.6806 106.28 35.9516C106.687 35.8584 107.162 35.706 107.383 35.3334C107.552 35.0455 107.527 34.7152 107.459 34.4019C107.289 33.6736 106.941 33.0047 106.916 32.251C106.925 32.2171 106.958 32.1832 106.992 32.2086Z" fill="url(#paint37_radial_2003_16207)"/>
</g>
<g opacity="0.1" style="mix-blend-mode:soft-light">
<path d="M108.18 34.6394C107.476 34.4023 106.806 34.3515 106.076 34.4954C105.321 34.6394 104.592 34.8511 103.837 34.9527C103.125 35.0459 102.395 35.0797 101.674 35.0713C100.224 35.0543 98.7905 34.8934 97.3486 34.7156C96.5343 34.6225 95.7455 34.4362 94.9397 34.2922C93.8286 34.089 92.2764 33.8603 91.301 34.5124C91.2077 34.741 91.1399 34.9696 91.106 35.2322C90.9872 36.3246 92.0305 36.9089 92.5563 37.2899C92.9804 37.5948 93.1755 39.3307 93.167 39.7711C93.1586 40.1691 93.1416 40.6772 93.1246 41.2699C93.5318 41.2784 93.9474 41.3038 94.3545 41.3208C97.3231 41.4732 100.275 41.8543 103.243 42.0406C104.388 42.1168 105.542 42.1591 106.687 42.1845C106.645 40.8127 106.662 39.6525 106.746 38.7972C106.814 38.1367 107.179 37.4678 107.722 36.9851C108.188 36.5701 108.96 35.7233 108.655 34.8003C108.502 34.7495 108.341 34.6902 108.18 34.6394Z" fill="url(#paint38_radial_2003_16207)"/>
</g>
<g opacity="0.2" style="mix-blend-mode:soft-light">
<path d="M96.2883 32.6067C96.2289 32.0563 96.1865 31.5058 96.1356 30.9469C96.0338 29.7191 95.8812 28.4912 95.703 27.2633C95.5334 26.1116 95.3807 24.9769 94.8718 23.9184C94.77 23.7151 94.4817 23.8337 94.4732 24.0285C94.4223 25.1463 94.6767 26.2556 94.6683 27.3734C94.6598 28.1863 94.6004 29.0247 94.6259 29.8461C94.6259 29.8884 94.6174 29.9392 94.6174 29.9816C94.5834 30.9639 94.6852 31.9546 94.7785 32.9285C94.8209 33.3773 94.9312 33.8769 94.8549 34.3257C94.7955 34.7407 94.4562 35.0201 94.3714 35.4181C94.3375 35.579 94.4986 35.706 94.6428 35.6214C95.3723 35.2403 96.0593 34.8762 96.2883 34.0293C96.407 33.5805 96.3307 33.064 96.2883 32.6067Z" fill="url(#paint39_radial_2003_16207)"/>
</g>
<g opacity="0.2" style="mix-blend-mode:soft-light">
<path d="M94.4817 35.5452C94.7786 35.5198 95.0924 35.2488 95.3044 35.071C95.5504 34.8593 95.8897 34.5714 95.9915 34.2496C96.1441 33.75 95.9151 33.2165 95.8897 32.7084C95.8642 32.1326 95.9575 31.5567 95.9321 30.9809C95.8727 29.8038 95.7285 28.6183 95.508 27.4581C95.3977 26.8738 95.2705 26.3149 95.0076 25.773C94.9058 25.5613 94.7955 25.3496 94.7107 25.1294C94.7361 25.4342 94.804 25.7476 94.8719 26.044C94.9652 26.4843 95.05 26.9162 95.0669 27.3735C95.1093 28.3896 95.1687 29.3973 95.1433 30.422C95.1263 30.9639 95.1602 31.5059 95.1942 32.0479C95.2281 32.5221 95.3044 33.0132 95.279 33.4959C95.2196 34.2496 94.7701 34.8593 94.4817 35.5452Z" fill="url(#paint40_radial_2003_16207)"/>
</g>
<path d="M111.7 69.9934C111.606 69.7563 111.521 69.5192 111.428 69.2906C104.914 73.0081 100.046 76.9881 100.046 76.9881C96.2712 73.694 92.0812 71.1027 88.6036 69.2397C88.5188 69.5023 88.434 69.7563 88.3407 70.0103C91.8606 71.9072 96.1779 74.5831 100.046 77.9535C100.046 77.9619 105.058 73.8041 111.7 69.9934Z" fill="url(#paint41_linear_2003_16207)"/>
<path d="M111.7 69.9934C111.606 69.7563 111.521 69.5192 111.428 69.2906C104.914 73.0081 100.046 76.9881 100.046 76.9881C96.2712 73.694 92.0812 71.1027 88.6036 69.2397C88.5188 69.5023 88.434 69.7563 88.3407 70.0103C91.8606 71.9072 96.1779 74.5831 100.046 77.9535C100.046 77.9619 105.058 73.8041 111.7 69.9934Z" fill="url(#paint42_radial_2003_16207)"/>
<path d="M100.046 94.3482C100.046 94.3482 107.51 86.2357 116.305 80.7737C116.178 80.4858 116.051 80.2064 115.924 79.9185C107.298 85.3465 100.054 93.078 100.054 93.078C94.4392 86.6845 87.8997 82.2895 84.1847 80.0878C84.0405 80.3842 83.9132 80.6806 83.769 80.977C87.3908 83.1448 94.2271 87.7092 100.046 94.3482Z" fill="url(#paint43_linear_2003_16207)"/>
<path d="M100.046 94.3482C100.046 94.3482 107.51 86.2357 116.305 80.7737C116.178 80.4858 116.051 80.2064 115.924 79.9185C107.298 85.3465 100.054 93.078 100.054 93.078C94.4392 86.6845 87.8997 82.2895 84.1847 80.0878C84.0405 80.3842 83.9132 80.6806 83.769 80.977C87.3908 83.1448 94.2271 87.7092 100.046 94.3482Z" fill="url(#paint44_radial_2003_16207)"/>
<path d="M100.046 93.0778C100.046 93.0778 107.289 85.3464 115.915 79.9183C114.346 76.4125 112.828 72.8898 111.691 69.9937C105.041 73.7959 100.037 77.9537 100.037 77.9537C96.1695 74.5834 91.8607 71.9075 88.3323 70.0106C88.0694 70.7897 87.7895 71.5518 87.4926 72.3139C86.39 75.1338 85.2704 77.6912 84.1677 80.0792C87.8997 82.2894 94.4392 86.6844 100.046 93.0778Z" fill="url(#paint45_linear_2003_16207)"/>
<path d="M106.365 84.7875C106.611 85.3549 106.848 85.9222 107.086 86.4811C109.63 84.3218 112.675 81.9591 115.915 79.9183C114.346 76.4125 112.828 72.8898 111.691 69.9937C107.713 72.2716 104.329 74.6765 102.242 76.2347C103.778 79.0122 105.118 81.8829 106.365 84.7875Z" fill="url(#paint46_linear_2003_16207)"/>
<path d="M98.0609 76.3193C94.7445 73.7112 91.2754 71.5941 88.3407 70.019C88.0778 70.7981 87.7979 71.5602 87.501 72.3224C86.3984 75.1423 85.2788 77.6997 84.1761 80.0877C86.5511 81.4934 90.0795 83.8052 93.786 86.9553C95.3212 83.4495 96.814 79.9268 98.0609 76.3193Z" fill="url(#paint47_linear_2003_16207)"/>
<path d="M107.357 80.5369C107.357 83.4838 104.075 85.8634 100.02 85.8634C95.9659 85.8634 92.675 83.4754 92.675 80.5369C92.675 77.59 95.9659 75.2104 100.02 75.2104C104.075 75.2104 107.357 77.59 107.357 80.5369Z" fill="url(#paint48_linear_2003_16207)"/>
<g opacity="0.2" style="mix-blend-mode:soft-light">
<path d="M105.389 50.3729C105.389 55.2759 107.179 71.7295 116.305 87.8021C119.401 93.2471 121.581 103.612 121.581 112.334C121.581 121.057 121.581 173.39 121.581 176.658C121.581 179.927 118.485 181.206 116.483 181.384C114.482 181.561 100.326 181.926 100.326 181.926C100.326 181.926 104.329 181.019 104.329 178.293C104.329 175.566 104.287 119.058 104.287 113.063C104.287 107.067 104.651 90.8083 103.744 84.9991C102.836 79.1815 104.295 62.5501 104.108 54.9203C103.93 47.282 105.389 45.6477 105.389 50.3729Z" fill="url(#paint49_radial_2003_16207)"/>
</g>
<g opacity="0.2" style="mix-blend-mode:soft-light">
<path d="M94.8633 50.3728C94.8633 55.2759 93.0651 71.7295 83.9387 87.8021C80.8513 93.2555 78.663 103.612 78.663 112.334C78.663 121.056 78.663 173.39 78.663 176.658C78.663 179.927 81.7589 181.206 83.7606 181.384C85.7623 181.561 93.9557 181.926 93.9557 181.926C93.9557 181.926 89.9523 181.019 89.9523 178.293C89.9523 175.566 89.9523 119.058 89.9523 113.063C89.9523 107.067 91.0465 91.2571 91.954 85.4394C92.8616 79.6218 95.9574 62.5416 96.1356 54.9118C96.3222 47.282 94.8633 45.6476 94.8633 50.3728Z" fill="url(#paint50_radial_2003_16207)"/>
</g>
<g opacity="0.2" style="mix-blend-mode:soft-light">
<path d="M100.504 58.1889C100.504 58.1889 104.21 79.8843 105.796 89.4956C107.433 99.4457 106.458 110.158 106.331 123.241C106.153 141.778 105.152 164.219 106.331 165.396C107.518 166.573 115.974 168.487 115.974 162.491C115.974 156.496 115.245 110.158 115.245 103.256C115.245 96.3548 110.02 81.8743 107.84 75.3284C105.652 68.791 102.683 60.5515 102.87 58.1974C103.057 55.8263 100.504 52.9132 100.504 58.1889Z" fill="url(#paint51_radial_2003_16207)"/>
</g>
<path d="M111.7 69.9934C111.606 69.7563 111.521 69.5192 111.428 69.2906C104.914 73.0081 100.046 76.9881 100.046 76.9881C96.2712 73.694 92.0812 71.1027 88.6036 69.2397C88.5188 69.5023 88.434 69.7563 88.3407 70.0103C91.8606 71.9072 96.1779 74.5831 100.046 77.9535C100.046 77.9619 105.058 73.8041 111.7 69.9934Z" fill="url(#paint52_linear_2003_16207)"/>
<g opacity="0.8" style="mix-blend-mode:soft-light">
<path d="M111.7 69.9934C111.606 69.7563 111.521 69.5192 111.428 69.2906C104.914 73.0081 100.046 76.9881 100.046 76.9881C96.2712 73.694 92.0812 71.1027 88.6036 69.2397C88.5188 69.5023 88.434 69.7563 88.3407 70.0103C91.8606 71.9072 96.1779 74.5831 100.046 77.9535C100.046 77.9619 105.058 73.8041 111.7 69.9934Z" fill="url(#paint53_radial_2003_16207)"/>
</g>
<path d="M100.046 94.3482C100.046 94.3482 107.51 86.2357 116.305 80.7737C116.178 80.4858 116.051 80.2064 115.924 79.9185C107.298 85.3465 100.054 93.078 100.054 93.078C94.4392 86.6845 87.8997 82.2895 84.1847 80.0878C84.0405 80.3842 83.9132 80.6806 83.769 80.977C87.3908 83.1448 94.2271 87.7092 100.046 94.3482Z" fill="url(#paint54_linear_2003_16207)"/>
<g opacity="0.8" style="mix-blend-mode:soft-light">
<path d="M100.046 94.3482C100.046 94.3482 107.51 86.2357 116.305 80.7737C116.178 80.4858 116.051 80.2064 115.924 79.9185C107.298 85.3465 100.054 93.078 100.054 93.078C94.4392 86.6845 87.8997 82.2895 84.1847 80.0878C84.0405 80.3842 83.9132 80.6806 83.769 80.977C87.3908 83.1448 94.2271 87.7092 100.046 94.3482Z" fill="url(#paint55_radial_2003_16207)"/>
</g>
<path d="M100.046 93.0778C100.046 93.0778 107.289 85.3464 115.915 79.9183C114.346 76.4125 112.828 72.8898 111.691 69.9937C105.041 73.7959 100.037 77.9537 100.037 77.9537C96.1695 74.5834 91.8607 71.9075 88.3323 70.0106C88.0694 70.7897 87.7895 71.5518 87.4926 72.3139C86.39 75.1338 85.2704 77.6912 84.1677 80.0792C87.8997 82.2894 94.4392 86.6844 100.046 93.0778Z" fill="url(#paint56_linear_2003_16207)"/>
<g opacity="0.4" style="mix-blend-mode:soft-light">
<path d="M106.365 84.7875C106.611 85.3549 106.848 85.9222 107.086 86.4811C109.63 84.3218 112.675 81.9591 115.915 79.9183C114.346 76.4125 112.828 72.8898 111.691 69.9937C107.713 72.2716 104.329 74.6765 102.242 76.2347C103.778 79.0122 105.118 81.8829 106.365 84.7875Z" fill="url(#paint57_linear_2003_16207)"/>
</g>
<g opacity="0.4" style="mix-blend-mode:soft-light">
<path d="M98.0609 76.3193C94.7445 73.7112 91.2754 71.5941 88.3407 70.019C88.0778 70.7981 87.7979 71.5602 87.501 72.3224C86.3984 75.1423 85.2788 77.6997 84.1761 80.0877C86.5511 81.4934 90.0795 83.8052 93.786 86.9553C95.3212 83.4495 96.814 79.9268 98.0609 76.3193Z" fill="url(#paint58_linear_2003_16207)"/>
</g>
<path d="M107.357 80.5369C107.357 83.4838 104.075 85.8634 100.02 85.8634C95.9659 85.8634 92.675 83.4754 92.675 80.5369C92.675 77.59 95.9659 75.2104 100.02 75.2104C104.075 75.2104 107.357 77.59 107.357 80.5369Z" fill="url(#paint59_linear_2003_16207)"/>
<defs>
<linearGradient id="paint0_linear_2003_16207" x1="73.9346" y1="99.9962" x2="126.033" y2="99.9962" gradientUnits="userSpaceOnUse">
<stop offset="0.0752688" stop-color="#1C261E"/>
<stop offset="0.2312" stop-color="#375E00"/>
<stop offset="0.4409" stop-color="#578F00"/>
<stop offset="0.6828" stop-color="#477D00"/>
<stop offset="0.7849" stop-color="#335800"/>
<stop offset="0.9409" stop-color="#0E1B08"/>
</linearGradient>
<radialGradient id="paint1_radial_2003_16207" cx="0" cy="0" r="1" gradientUnits="userSpaceOnUse" gradientTransform="translate(-17.6392 41.9016) scale(114.986 114.801)">
<stop offset="0.8966" stop-color="#1C261E"/>
<stop offset="0.9303" stop-color="#375E00"/>
<stop offset="1" stop-color="white"/>
</radialGradient>
<radialGradient id="paint2_radial_2003_16207" cx="0" cy="0" r="1" gradientUnits="userSpaceOnUse" gradientTransform="translate(197.774 48.7165) scale(93.8137 93.6626)">
<stop offset="0.8966" stop-color="#1C261E"/>
<stop offset="0.9303" stop-color="#375E00"/>
<stop offset="1" stop-color="white"/>
</radialGradient>
<radialGradient id="paint3_radial_2003_16207" cx="0" cy="0" r="1" gradientUnits="userSpaceOnUse" gradientTransform="translate(100.199 74.0912) scale(109.199 109.023)">
<stop offset="0.8966" stop-color="#1C261E"/>
<stop offset="0.9303" stop-color="#375E00"/>
<stop offset="0.9762" stop-color="#B2C19C"/>
<stop offset="1" stop-color="#294110"/>
</radialGradient>
<linearGradient id="paint4_linear_2003_16207" x1="73.1725" y1="147.543" x2="126.53" y2="147.543" gradientUnits="userSpaceOnUse">
<stop stop-color="#C7C5BE"/>
<stop offset="0.0818773" stop-color="#989C8E"/>
<stop offset="0.1414" stop-color="#9FA295"/>
<stop offset="0.2295" stop-color="#B3B1A8"/>
<stop offset="0.243" stop-color="#B7B4AB"/>
<stop offset="0.258" stop-color="#BDBAB2"/>
<stop offset="0.3834" stop-color="#EDECE9"/>
<stop offset="0.444" stop-color="white"/>
<stop offset="0.5221" stop-color="#FAF9F9"/>
<stop offset="0.6302" stop-color="#EBEAE7"/>
<stop offset="0.653" stop-color="#E7E6E2"/>
<stop offset="0.8946" stop-color="#989C8E"/>
<stop offset="0.9185" stop-color="#9DA093"/>
<stop offset="0.9473" stop-color="#ABADA2"/>
<stop offset="0.9784" stop-color="#C3C1BA"/>
<stop offset="0.9829" stop-color="#C7C5BE"/>
</linearGradient>
<linearGradient id="paint5_linear_2003_16207" x1="88.6066" y1="46.9955" x2="111.431" y2="46.9955" gradientUnits="userSpaceOnUse">
<stop offset="0.0787324" stop-color="#AA8443"/>
<stop offset="0.2258" stop-color="#C2A559"/>
<stop offset="0.3937" stop-color="#FAF3D6"/>
<stop offset="0.5771" stop-color="#FAF3D6"/>
<stop offset="0.6162" stop-color="#EFE3BD"/>
<stop offset="0.699" stop-color="#D2BB7C"/>
<stop offset="0.7406" stop-color="#C2A559"/>
<stop offset="0.8801" stop-color="#AA8443"/>
</linearGradient>
<radialGradient id="paint6_radial_2003_16207" cx="0" cy="0" r="1" gradientUnits="userSpaceOnUse" gradientTransform="translate(23.1449 54.553) scale(79.4365 79.3086)">
<stop offset="0.9334" stop-color="white"/>
<stop offset="0.954" stop-color="#E4D4A5"/>
<stop offset="0.9691" stop-color="#C2A559"/>
<stop offset="0.9891" stop-color="#AA8443"/>
</radialGradient>
<radialGradient id="paint7_radial_2003_16207" cx="0" cy="0" r="1" gradientUnits="userSpaceOnUse" gradientTransform="translate(1.3175 46.264) scale(95.5738 95.4199)">
<stop offset="0.9532" stop-color="#AA8443"/>
<stop offset="0.9691" stop-color="#C2A559"/>
<stop offset="0.9789" stop-color="#E4D4A5"/>
<stop offset="0.9857" stop-color="white"/>
</radialGradient>
<radialGradient id="paint8_radial_2003_16207" cx="0" cy="0" r="1" gradientUnits="userSpaceOnUse" gradientTransform="translate(222.619 44.1943) scale(120.484 120.29)">
<stop offset="0.9532" stop-color="#AA8443"/>
<stop offset="0.9691" stop-color="#C2A559"/>
<stop offset="0.9789" stop-color="#E4D4A5"/>
<stop offset="0.9857" stop-color="white"/>
</radialGradient>
<radialGradient id="paint9_radial_2003_16207" cx="0" cy="0" r="1" gradientUnits="userSpaceOnUse" gradientTransform="translate(99.8693 57.4038) scale(39.8481 39.7839)">
<stop offset="0.9064" stop-color="white"/>
<stop offset="0.9612" stop-color="#E4D4A5"/>
<stop offset="0.984" stop-color="#C2A559"/>
<stop offset="1" stop-color="#AA8443"/>
</radialGradient>
<radialGradient id="paint10_radial_2003_16207" cx="0" cy="0" r="1" gradientUnits="userSpaceOnUse" gradientTransform="translate(93.9884 18.9029) scale(0.966901 0.965343)">
<stop offset="0.0787324" stop-color="#AA8443"/>
<stop offset="0.672" stop-color="#C2A559"/>
<stop offset="1" stop-color="#E4D4A5"/>
</radialGradient>
<radialGradient id="paint11_radial_2003_16207" cx="0" cy="0" r="1" gradientUnits="userSpaceOnUse" gradientTransform="translate(98.0572 19.234) scale(1.67383 1.67114)">
<stop offset="0.0787324" stop-color="#AA8443"/>
<stop offset="0.672" stop-color="#C2A559"/>
<stop offset="1" stop-color="#E4D4A5"/>
</radialGradient>
<radialGradient id="paint12_radial_2003_16207" cx="0" cy="0" r="1" gradientUnits="userSpaceOnUse" gradientTransform="translate(104.041 19.0879) scale(2.33494 2.33118)">
<stop offset="0.0787324" stop-color="#AA8443"/>
<stop offset="0.672" stop-color="#C2A559"/>
<stop offset="1" stop-color="#E4D4A5"/>
</radialGradient>
<radialGradient id="paint13_radial_2003_16207" cx="0" cy="0" r="1" gradientUnits="userSpaceOnUse" gradientTransform="translate(92.566 20.3315) scale(0.393581 0.392947)">
<stop offset="0.0787324" stop-color="#AA8443"/>
<stop offset="0.672" stop-color="#C2A559"/>
<stop offset="1" stop-color="#E4D4A5"/>
</radialGradient>
<radialGradient id="paint14_radial_2003_16207" cx="0" cy="0" r="1" gradientUnits="userSpaceOnUse" gradientTransform="translate(93.4049 26.0696) scale(3.76725 3.76118)">
<stop offset="0.0787324" stop-color="#AA8443"/>
<stop offset="0.672" stop-color="#C2A559"/>
<stop offset="1" stop-color="#E4D4A5"/>
</radialGradient>
<radialGradient id="paint15_radial_2003_16207" cx="0" cy="0" r="1" gradientUnits="userSpaceOnUse" gradientTransform="translate(93.3895 33.0001) scale(1.00904 1.00741)">
<stop offset="0.0787324" stop-color="#AA8443"/>
<stop offset="0.672" stop-color="#C2A559"/>
<stop offset="1" stop-color="#E4D4A5"/>
</radialGradient>
<radialGradient id="paint16_radial_2003_16207" cx="0" cy="0" r="1" gradientUnits="userSpaceOnUse" gradientTransform="translate(93.1 35.3791) scale(0.743499 0.742301)">
<stop offset="0.0787324" stop-color="#AA8443"/>
<stop offset="0.672" stop-color="#C2A559"/>
<stop offset="1" stop-color="#E4D4A5"/>
</radialGradient>
<radialGradient id="paint17_radial_2003_16207" cx="0" cy="0" r="1" gradientUnits="userSpaceOnUse" gradientTransform="translate(95.011 35.1904) scale(1.67297 1.67027)">
<stop offset="0.0787324" stop-color="#AA8443"/>
<stop offset="0.672" stop-color="#C2A559"/>
<stop offset="1" stop-color="#E4D4A5"/>
</radialGradient>
<radialGradient id="paint18_radial_2003_16207" cx="0" cy="0" r="1" gradientUnits="userSpaceOnUse" gradientTransform="translate(97.6205 37.327) scale(1.34264 1.34047)">
<stop offset="0.0787324" stop-color="#AA8443"/>
<stop offset="0.672" stop-color="#C2A559"/>
<stop offset="1" stop-color="#E4D4A5"/>
</radialGradient>
<radialGradient id="paint19_radial_2003_16207" cx="0" cy="0" r="1" gradientUnits="userSpaceOnUse" gradientTransform="translate(102.208 37.6039) scale(1.45652 1.45418)">
<stop offset="0.0787324" stop-color="#AA8443"/>
<stop offset="0.672" stop-color="#C2A559"/>
<stop offset="1" stop-color="#E4D4A5"/>
</radialGradient>
<radialGradient id="paint20_radial_2003_16207" cx="0" cy="0" r="1" gradientUnits="userSpaceOnUse" gradientTransform="translate(105.839 37.7684) scale(1.40833 1.40606)">
<stop offset="0.0787324" stop-color="#AA8443"/>
<stop offset="0.672" stop-color="#C2A559"/>
<stop offset="1" stop-color="#E4D4A5"/>
</radialGradient>
<radialGradient id="paint21_radial_2003_16207" cx="0" cy="0" r="1" gradientUnits="userSpaceOnUse" gradientTransform="translate(91.6513 23.0857) scale(1.83866 1.8357)">
<stop offset="0.0787324" stop-color="#AA8443"/>
<stop offset="0.672" stop-color="#C2A559"/>
<stop offset="1" stop-color="#E4D4A5"/>
</radialGradient>
<radialGradient id="paint22_radial_2003_16207" cx="0" cy="0" r="1" gradientUnits="userSpaceOnUse" gradientTransform="translate(104.958 33.6275) scale(2.04203)">
<stop offset="0.0787324" stop-color="#AA8443"/>
<stop offset="0.672" stop-color="#C2A559"/>
<stop offset="1" stop-color="#E4D4A5"/>
</radialGradient>
<radialGradient id="paint23_radial_2003_16207" cx="0" cy="0" r="1" gradientUnits="userSpaceOnUse" gradientTransform="translate(106.53 33.2017) scale(0.885128 0.883702)">
<stop offset="0.0787324" stop-color="#AA8443"/>
<stop offset="0.672" stop-color="#C2A559"/>
<stop offset="1" stop-color="#E4D4A5"/>
</radialGradient>
<radialGradient id="paint24_radial_2003_16207" cx="0" cy="0" r="1" gradientUnits="userSpaceOnUse" gradientTransform="translate(106.79 35.2439) scale(0.704863 0.703729)">
<stop offset="0.0787324" stop-color="#AA8443"/>
<stop offset="0.672" stop-color="#C2A559"/>
<stop offset="1" stop-color="#E4D4A5"/>
</radialGradient>
<radialGradient id="paint25_radial_2003_16207" cx="0" cy="0" r="1" gradientUnits="userSpaceOnUse" gradientTransform="translate(106.84 24.409) scale(3.25652 3.25127)">
<stop offset="0.0787324" stop-color="#AA8443"/>
<stop offset="0.672" stop-color="#C2A559"/>
<stop offset="1" stop-color="#E4D4A5"/>
</radialGradient>
<radialGradient id="paint26_radial_2003_16207" cx="0" cy="0" r="1" gradientUnits="userSpaceOnUse" gradientTransform="translate(102.91 29.349) scale(5.22524 5.21682)">
<stop offset="0.0787324" stop-color="#AA8443"/>
<stop offset="0.672" stop-color="#C2A559"/>
<stop offset="1" stop-color="#E4D4A5"/>
</radialGradient>
<radialGradient id="paint27_radial_2003_16207" cx="0" cy="0" r="1" gradientUnits="userSpaceOnUse" gradientTransform="translate(101.205 29.7518) scale(4.07377 4.07376)">
<stop offset="0.0787324" stop-color="#AA8443"/>
<stop offset="0.672" stop-color="#C2A559"/>
<stop offset="1" stop-color="#E4D4A5"/>
</radialGradient>
<radialGradient id="paint28_radial_2003_16207" cx="0" cy="0" r="1" gradientUnits="userSpaceOnUse" gradientTransform="translate(98.9457 28.7727) scale(5.56286 5.5539)">
<stop offset="0.0787324" stop-color="#AA8443"/>
<stop offset="0.672" stop-color="#C2A559"/>
<stop offset="1" stop-color="#E4D4A5"/>
</radialGradient>
<radialGradient id="paint29_radial_2003_16207" cx="0" cy="0" r="1" gradientUnits="userSpaceOnUse" gradientTransform="translate(96.2507 27.6367) scale(4.12815 4.1215)">
<stop offset="0.0787324" stop-color="#AA8443"/>
<stop offset="0.672" stop-color="#C2A559"/>
<stop offset="1" stop-color="#E4D4A5"/>
</radialGradient>
<radialGradient id="paint30_radial_2003_16207" cx="0" cy="0" r="1" gradientUnits="userSpaceOnUse" gradientTransform="translate(54.8238 28.4771) scale(40.7283 40.6627)">
<stop offset="0.9405" stop-color="#AA8443"/>
<stop offset="0.9719" stop-color="#E4D4A5"/>
<stop offset="0.999" stop-color="white"/>
</radialGradient>
<radialGradient id="paint31_radial_2003_16207" cx="0" cy="0" r="1" gradientUnits="userSpaceOnUse" gradientTransform="translate(92.8615 28.8404) scale(9.14892 9.13418)">
<stop stop-color="#AA8443"/>
<stop offset="0.3925" stop-color="#F1E9D1"/>
<stop offset="0.4892" stop-color="#C2A559"/>
<stop offset="0.7849" stop-color="#E4D4A5"/>
<stop offset="0.9731" stop-color="white"/>
</radialGradient>
<radialGradient id="paint32_radial_2003_16207" cx="0" cy="0" r="1" gradientUnits="userSpaceOnUse" gradientTransform="translate(92.8615 28.8415) scale(9.15055 9.13581)">
<stop stop-color="#AA8443"/>
<stop offset="0.3925" stop-color="#F1E9D1"/>
<stop offset="0.4892" stop-color="#C2A559"/>
<stop offset="0.7849" stop-color="#E4D4A5"/>
<stop offset="0.9731" stop-color="white"/>
</radialGradient>
<radialGradient id="paint33_radial_2003_16207" cx="0" cy="0" r="1" gradientUnits="userSpaceOnUse" gradientTransform="translate(94.522 27.6973) scale(5.80555 5.7962)">
<stop stop-color="#AA8443"/>
<stop offset="0.3925" stop-color="#F1E9D1"/>
<stop offset="0.4892" stop-color="#C2A559"/>
<stop offset="0.7849" stop-color="#E4D4A5"/>
<stop offset="0.9731" stop-color="white"/>
</radialGradient>
<radialGradient id="paint34_radial_2003_16207" cx="0" cy="0" r="1" gradientUnits="userSpaceOnUse" gradientTransform="translate(92.8603 28.8405) scale(9.14947 9.13473)">
<stop stop-color="#AA8443"/>
<stop offset="0.3925" stop-color="#F1E9D1"/>
<stop offset="0.4892" stop-color="#C2A559"/>
<stop offset="0.7849" stop-color="#E4D4A5"/>
<stop offset="0.9731" stop-color="white"/>
</radialGradient>
<radialGradient id="paint35_radial_2003_16207" cx="0" cy="0" r="1" gradientUnits="userSpaceOnUse" gradientTransform="translate(109.426 27.0531) scale(10.307 10.2904)">
<stop stop-color="#AA8443"/>
<stop offset="0.3925" stop-color="#F1E9D1"/>
<stop offset="0.6527" stop-color="#C2A559"/>
<stop offset="0.7849" stop-color="#E4D4A5"/>
<stop offset="0.9731" stop-color="white"/>
</radialGradient>
<radialGradient id="paint36_radial_2003_16207" cx="0" cy="0" r="1" gradientUnits="userSpaceOnUse" gradientTransform="translate(109.424 27.0541) scale(10.3065 10.2899)">
<stop stop-color="#AA8443"/>
<stop offset="0.3925" stop-color="#F1E9D1"/>
<stop offset="0.6527" stop-color="#C2A559"/>
<stop offset="0.7849" stop-color="#E4D4A5"/>
<stop offset="0.9731" stop-color="white"/>
</radialGradient>
<radialGradient id="paint37_radial_2003_16207" cx="0" cy="0" r="1" gradientUnits="userSpaceOnUse" gradientTransform="translate(135.46 31.5206) scale(30.7669 30.7174)">
<stop offset="0.9242" stop-color="#AA8443"/>
<stop offset="0.9719" stop-color="#E4D4A5"/>
<stop offset="0.999" stop-color="white"/>
</radialGradient>
<radialGradient id="paint38_radial_2003_16207" cx="0" cy="0" r="1" gradientUnits="userSpaceOnUse" gradientTransform="translate(99.562 7.81587) scale(33.7216 33.6673)">
<stop offset="0.8323" stop-color="white"/>
<stop offset="0.8539" stop-color="#AA8443"/>
<stop offset="0.9146" stop-color="#C2A559"/>
<stop offset="0.9416" stop-color="#E4D4A5"/>
<stop offset="0.9969" stop-color="white"/>
</radialGradient>
<radialGradient id="paint39_radial_2003_16207" cx="0" cy="0" r="1" gradientUnits="userSpaceOnUse" gradientTransform="translate(91.2691 30.2939) scale(6.17556 6.16562)">
<stop offset="0.5777" stop-color="#AA8443"/>
<stop offset="1" stop-color="#E4D4A5"/>
</radialGradient>
<radialGradient id="paint40_radial_2003_16207" cx="0" cy="0" r="1" gradientUnits="userSpaceOnUse" gradientTransform="translate(90.3324 30.3846) scale(6.17392 6.16397)">
<stop offset="0.7783" stop-color="#AA8443"/>
<stop offset="1" stop-color="#E4D4A5"/>
</radialGradient>
<linearGradient id="paint41_linear_2003_16207" x1="83.8832" y1="73.6022" x2="114.7" y2="73.6022" gradientUnits="userSpaceOnUse">
<stop offset="0.0537634" stop-color="#09130A"/>
<stop offset="0.0927892" stop-color="#111209"/>
<stop offset="0.1546" stop-color="#280E07"/>
<stop offset="0.2311" stop-color="#4D0803"/>
<stop offset="0.2957" stop-color="#720200"/>
<stop offset="0.4785" stop-color="#A70200"/>
<stop offset="0.7151" stop-color="#A70200"/>
<stop offset="0.8925" stop-color="#1C1008"/>
</linearGradient>
<radialGradient id="paint42_radial_2003_16207" cx="0" cy="0" r="1" gradientUnits="userSpaceOnUse" gradientTransform="translate(100.202 75.6891) scale(13.8003 13.7781)">
<stop stop-color="#09130A"/>
<stop offset="0.0277517" stop-color="#111209"/>
<stop offset="0.0717338" stop-color="#280E07"/>
<stop offset="0.1261" stop-color="#4D0803"/>
<stop offset="0.172" stop-color="#720200"/>
<stop offset="0.3333" stop-color="white"/>
<stop offset="0.7151" stop-color="white"/>
<stop offset="0.8548" stop-color="#B32624"/>
<stop offset="1" stop-color="#1C1008"/>
</radialGradient>
<linearGradient id="paint43_linear_2003_16207" x1="80.6687" y1="87.1326" x2="117.979" y2="87.1326" gradientUnits="userSpaceOnUse">
<stop offset="0.0537634" stop-color="#09130A"/>
<stop offset="0.0927892" stop-color="#111209"/>
<stop offset="0.1546" stop-color="#280E07"/>
<stop offset="0.2311" stop-color="#4D0803"/>
<stop offset="0.2957" stop-color="#720200"/>
<stop offset="0.4785" stop-color="#A70200"/>
<stop offset="0.7151" stop-color="#A70200"/>
<stop offset="0.8925" stop-color="#1C1008"/>
</linearGradient>
<radialGradient id="paint44_radial_2003_16207" cx="0" cy="0" r="1" gradientUnits="userSpaceOnUse" gradientTransform="translate(103.327 61.7265) scale(33.4841 33.4302)">
<stop stop-color="#09130A"/>
<stop offset="0.0277517" stop-color="#111209"/>
<stop offset="0.0717338" stop-color="#280E07"/>
<stop offset="0.1261" stop-color="#4D0803"/>
<stop offset="0.172" stop-color="#720200"/>
<stop offset="0.3333" stop-color="white"/>
<stop offset="0.8135" stop-color="white"/>
<stop offset="0.8493" stop-color="#B32624"/>
<stop offset="1" stop-color="#1C1008"/>
</radialGradient>
<linearGradient id="paint45_linear_2003_16207" x1="84.1853" y1="81.5357" x2="115.923" y2="81.5357" gradientUnits="userSpaceOnUse">
<stop stop-color="#09130A"/>
<stop offset="0.0478279" stop-color="#111A12"/>
<stop offset="0.1236" stop-color="#262E29"/>
<stop offset="0.2173" stop-color="#484E4E"/>
<stop offset="0.282" stop-color="#64686C"/>
<stop offset="0.378" stop-color="#4F5556"/>
<stop offset="0.4839" stop-color="#343B39"/>
<stop offset="0.5297" stop-color="#3A4140"/>
<stop offset="0.5948" stop-color="#4C5152"/>
<stop offset="0.671" stop-color="#696C71"/>
<stop offset="0.672" stop-color="#696C71"/>
<stop offset="0.7977" stop-color="#4A5050"/>
<stop offset="0.9251" stop-color="#313935"/>
<stop offset="1" stop-color="#28302B"/>
</linearGradient>
<linearGradient id="paint46_linear_2003_16207" x1="114.865" y1="76.4326" x2="96.3682" y2="82.5624" gradientUnits="userSpaceOnUse">
<stop stop-color="#09130A"/>
<stop offset="0.0238562" stop-color="#111A12"/>
<stop offset="0.0616432" stop-color="#262E29"/>
<stop offset="0.1084" stop-color="#484E4E"/>
<stop offset="0.1407" stop-color="#64686C"/>
<stop offset="0.214" stop-color="#919497"/>
<stop offset="0.3743" stop-color="white"/>
</linearGradient>
<linearGradient id="paint47_linear_2003_16207" x1="85.6629" y1="74.6644" x2="100.118" y2="84.362" gradientUnits="userSpaceOnUse">
<stop stop-color="#09130A"/>
<stop offset="0.0280791" stop-color="#111A12"/>
<stop offset="0.0725549" stop-color="#262E29"/>
<stop offset="0.1276" stop-color="#484E4E"/>
<stop offset="0.1656" stop-color="#64686C"/>
<stop offset="0.2311" stop-color="#919497"/>
<stop offset="0.3743" stop-color="white"/>
</linearGradient>
<linearGradient id="paint48_linear_2003_16207" x1="88.3121" y1="80.5363" x2="112.541" y2="80.5363" gradientUnits="userSpaceOnUse">
<stop stop-color="#C7C5BE"/>
<stop offset="0.0818773" stop-color="#989C8E"/>
<stop offset="0.1414" stop-color="#9FA295"/>
<stop offset="0.2295" stop-color="#B3B1A8"/>
<stop offset="0.243" stop-color="#B7B4AB"/>
<stop offset="0.4959" stop-color="white"/>
<stop offset="0.5201" stop-color="#FBFBFA"/>
<stop offset="0.653" stop-color="#E7E6E2"/>
<stop offset="0.8946" stop-color="#989C8E"/>
<stop offset="0.9185" stop-color="#9DA093"/>
<stop offset="0.9473" stop-color="#ABADA2"/>
<stop offset="0.9784" stop-color="#C3C1BA"/>
<stop offset="0.9829" stop-color="#C7C5BE"/>
</linearGradient>
<radialGradient id="paint49_radial_2003_16207" cx="0" cy="0" r="1" gradientUnits="userSpaceOnUse" gradientTransform="translate(-108.899 139.773) rotate(180) scale(231.161 230.789)">
<stop offset="0.9291" stop-color="white"/>
<stop offset="0.9931" stop-color="white"/>
</radialGradient>
<radialGradient id="paint50_radial_2003_16207" cx="0" cy="0" r="1" gradientUnits="userSpaceOnUse" gradientTransform="translate(268.29 139.773) scale(191.946 191.637)">
<stop offset="0.9291" stop-color="white"/>
<stop offset="0.9931" stop-color="white"/>
</radialGradient>
<radialGradient id="paint51_radial_2003_16207" cx="0" cy="0" r="1" gradientUnits="userSpaceOnUse" gradientTransform="translate(111.745 106.52) scale(47.532 47.4554)">
<stop offset="0.042552" stop-color="white"/>
<stop offset="0.9291" stop-color="white"/>
</radialGradient>
<linearGradient id="paint52_linear_2003_16207" x1="83.8832" y1="73.6022" x2="114.7" y2="73.6022" gradientUnits="userSpaceOnUse">
<stop offset="0.0537634" stop-color="#09130A"/>
<stop offset="0.0927892" stop-color="#111209"/>
<stop offset="0.1546" stop-color="#280E07"/>
<stop offset="0.2311" stop-color="#4D0803"/>
<stop offset="0.2957" stop-color="#720200"/>
<stop offset="0.4785" stop-color="#A70200"/>
<stop offset="0.7151" stop-color="#A70200"/>
<stop offset="0.8925" stop-color="#1C1008"/>
</linearGradient>
<radialGradient id="paint53_radial_2003_16207" cx="0" cy="0" r="1" gradientUnits="userSpaceOnUse" gradientTransform="translate(100.202 75.6891) scale(13.8003 13.7781)">
<stop stop-color="#09130A"/>
<stop offset="0.0277517" stop-color="#111209"/>
<stop offset="0.0717338" stop-color="#280E07"/>
<stop offset="0.1261" stop-color="#4D0803"/>
<stop offset="0.172" stop-color="#720200"/>
<stop offset="0.3333" stop-color="white"/>
<stop offset="0.7151" stop-color="white"/>
<stop offset="0.8548" stop-color="#B32624"/>
<stop offset="1" stop-color="#1C1008"/>
</radialGradient>
<linearGradient id="paint54_linear_2003_16207" x1="80.6687" y1="87.1326" x2="117.979" y2="87.1326" gradientUnits="userSpaceOnUse">
<stop offset="0.0537634" stop-color="#09130A"/>
<stop offset="0.0927892" stop-color="#111209"/>
<stop offset="0.1546" stop-color="#280E07"/>
<stop offset="0.2311" stop-color="#4D0803"/>
<stop offset="0.2957" stop-color="#720200"/>
<stop offset="0.4785" stop-color="#A70200"/>
<stop offset="0.7151" stop-color="#A70200"/>
<stop offset="0.8925" stop-color="#1C1008"/>
</linearGradient>
<radialGradient id="paint55_radial_2003_16207" cx="0" cy="0" r="1" gradientUnits="userSpaceOnUse" gradientTransform="translate(103.327 61.7265) scale(33.4841 33.4302)">
<stop stop-color="#09130A"/>
<stop offset="0.0277517" stop-color="#111209"/>
<stop offset="0.0717338" stop-color="#280E07"/>
<stop offset="0.1261" stop-color="#4D0803"/>
<stop offset="0.172" stop-color="#720200"/>
<stop offset="0.3333" stop-color="white"/>
<stop offset="0.8135" stop-color="white"/>
<stop offset="0.8493" stop-color="#B32624"/>
<stop offset="1" stop-color="#1C1008"/>
</radialGradient>
<linearGradient id="paint56_linear_2003_16207" x1="84.1853" y1="81.5357" x2="115.923" y2="81.5357" gradientUnits="userSpaceOnUse">
<stop stop-color="#09130A"/>
<stop offset="0.0478279" stop-color="#111A12"/>
<stop offset="0.1236" stop-color="#262E29"/>
<stop offset="0.2173" stop-color="#484E4E"/>
<stop offset="0.282" stop-color="#64686C"/>
<stop offset="0.378" stop-color="#4F5556"/>
<stop offset="0.4839" stop-color="#343B39"/>
<stop offset="0.5297" stop-color="#3A4140"/>
<stop offset="0.5948" stop-color="#4C5152"/>
<stop offset="0.671" stop-color="#696C71"/>
<stop offset="0.672" stop-color="#696C71"/>
<stop offset="0.7977" stop-color="#4A5050"/>
<stop offset="0.9251" stop-color="#313935"/>
<stop offset="1" stop-color="#28302B"/>
</linearGradient>
<linearGradient id="paint57_linear_2003_16207" x1="114.865" y1="76.4326" x2="96.3682" y2="82.5624" gradientUnits="userSpaceOnUse">
<stop stop-color="#09130A"/>
<stop offset="0.0238562" stop-color="#111A12"/>
<stop offset="0.0616432" stop-color="#262E29"/>
<stop offset="0.1084" stop-color="#484E4E"/>
<stop offset="0.1407" stop-color="#64686C"/>
<stop offset="0.214" stop-color="#919497"/>
<stop offset="0.3743" stop-color="white"/>
</linearGradient>
<linearGradient id="paint58_linear_2003_16207" x1="85.6629" y1="74.6644" x2="100.118" y2="84.362" gradientUnits="userSpaceOnUse">
<stop stop-color="#09130A"/>
<stop offset="0.0280791" stop-color="#111A12"/>
<stop offset="0.0725549" stop-color="#262E29"/>
<stop offset="0.1276" stop-color="#484E4E"/>
<stop offset="0.1656" stop-color="#64686C"/>
<stop offset="0.2311" stop-color="#919497"/>
<stop offset="0.3743" stop-color="white"/>
</linearGradient>
<linearGradient id="paint59_linear_2003_16207" x1="88.3121" y1="80.5363" x2="112.541" y2="80.5363" gradientUnits="userSpaceOnUse">
<stop stop-color="#C7C5BE"/>
<stop offset="0.0818773" stop-color="#989C8E"/>
<stop offset="0.1414" stop-color="#9FA295"/>
<stop offset="0.2295" stop-color="#B3B1A8"/>
<stop offset="0.243" stop-color="#B7B4AB"/>
<stop offset="0.4959" stop-color="white"/>
<stop offset="0.5201" stop-color="#FBFBFA"/>
<stop offset="0.653" stop-color="#E7E6E2"/>
<stop offset="0.8946" stop-color="#989C8E"/>
<stop offset="0.9185" stop-color="#9DA093"/>
<stop offset="0.9473" stop-color="#ABADA2"/>
<stop offset="0.9784" stop-color="#C3C1BA"/>
<stop offset="0.9829" stop-color="#C7C5BE"/>
</linearGradient>
</defs>
</svg>
