<svg width="200" height="200" viewBox="0 0 200 200" fill="none" xmlns="http://www.w3.org/2000/svg">
<path d="M49.3053 59.9861C49.3053 57.1944 49.7701 54.4028 50.2349 52.0764C50.6997 49.2847 51.6292 46.9583 52.5587 44.1666C53.4883 41.8402 55.3474 39.9792 56.7417 38.118C58.6008 36.2569 60.4599 34.3958 62.7837 33.9305C63.2485 33.9305 64.178 33.4653 64.6428 33.4653C65.5724 33.4653 66.5019 33.4653 67.4315 33C68.361 33 68.8258 33 69.7553 33C70.6849 33 71.1497 33.4653 72.0792 33.4653C72.544 33.4653 73.0088 33.9305 73.4735 33.9305C74.4031 33.9305 74.8679 33.9305 75.7974 34.3958C75.7974 34.3958 75.7974 34.3958 76.2621 34.3958C76.7269 34.3958 77.1917 34.8611 77.6565 34.8611C78.586 34.8611 79.5156 35.3264 80.4451 35.7917C82.769 36.7222 85.0928 37.6527 86.9519 39.5139C87.8815 40.4444 89.2758 41.375 90.2053 42.3056C91.1349 43.2361 92.0644 44.1667 92.5292 45.0972C92.994 45.5625 93.4588 46.0278 93.9235 46.9583C94.3883 47.4236 94.3883 47.8889 94.8531 48.3541C95.7826 49.75 96.2474 51.1458 97.1769 52.5417C98.5712 55.3333 99.5008 58.125 100.895 60.9167C101.825 63.7083 103.219 66.5 104.149 69.2916C105.078 72.0833 106.937 74.875 107.867 77.6667C108.331 79.0625 109.261 80.4583 110.191 81.8542C111.12 83.25 111.585 84.6458 112.514 86.5069C112.979 86.9722 112.979 87.4375 113.444 88.368C114.374 89.2986 114.838 90.6944 115.768 91.625C117.627 93.9514 119.486 96.2778 120.88 99.0694C122.739 101.396 124.599 103.722 126.458 105.583C128.317 107.444 130.176 109.771 132.035 111.632C133.894 113.958 135.753 116.285 137.612 118.611C139.471 120.937 141.33 123.264 142.725 125.59C143.654 126.521 144.119 127.917 145.049 128.847C145.978 130.243 146.443 131.639 147.372 132.569C148.767 135.361 149.696 138.153 150.626 140.944C151.555 144.201 150.626 147.924 149.231 151.181C148.767 153.042 147.372 154.437 146.443 156.299C145.513 157.229 144.584 158.16 143.654 159.09C141.795 160.951 139.936 162.347 138.077 163.278C137.147 163.743 135.753 164.208 134.359 165.139C133.429 165.604 132.035 165.604 130.641 166.069C127.852 167 125.528 167 122.739 167C122.275 167 121.345 167 120.88 167C119.486 167 118.092 166.535 116.233 166.535C114.838 166.535 113.909 166.069 112.514 166.069C111.12 165.604 109.726 165.139 108.332 164.674C107.402 164.208 106.008 163.743 105.078 163.278C103.684 162.812 102.754 162.347 101.36 161.417C100.895 161.417 100.895 160.951 100.43 160.951C99.5008 160.486 98.5713 160.021 97.6417 159.09C96.7122 158.625 95.7826 158.16 94.8531 157.229C94.3883 156.764 93.4588 156.299 92.994 155.833C92.0644 154.903 91.1349 154.437 90.2053 153.507L89.7406 153.042C87.8815 151.181 86.4872 149.319 85.0929 147.458C84.6281 146.528 83.6985 146.062 83.2337 145.132C83.2337 145.132 83.2338 144.667 82.769 144.667C82.769 144.201 82.3042 144.201 82.3042 143.736C81.8394 142.806 81.8394 142.34 81.3747 141.41C80.9099 140.479 80.4451 140.014 79.9803 139.083C79.5156 138.153 79.0508 137.222 78.1213 135.826C77.6565 134.896 76.7269 133.965 76.2621 133.035C73.9383 128.847 71.6144 124.66 69.2905 120.472C67.8962 118.146 66.9667 115.354 65.5723 113.028C65.1076 111.632 64.178 110.236 63.7133 109.306C63.7133 109.306 63.7132 108.84 63.2485 108.84C62.3189 106.514 60.9246 104.187 59.9951 101.861C59.0655 99.0694 57.6712 96.2778 56.7417 93.4861C55.3474 90.6944 53.953 87.9027 53.0235 85.5764C52.0939 83.7153 51.6292 81.8541 50.6996 80.4583C50.6996 79.993 50.6997 79.5278 50.2349 79.5278C50.2349 79.0625 49.7701 78.5972 49.7701 78.1319C48.8405 71.1528 48.8405 65.5694 49.3053 59.9861Z" fill="url(#paint0_radial_8002_23397)"/>
<path d="M52.0927 78.132C53.0222 80.9237 54.4165 83.7153 55.3461 86.507C57.6699 91.6251 59.529 97.2084 62.3177 102.326C63.712 105.118 64.6416 107.444 66.0359 110.236C67.4302 113.028 68.3597 115.819 70.2188 118.611C72.0779 122.333 73.937 126.056 75.7961 129.313C76.7257 131.174 77.6552 133.035 79.0495 134.896C80.4439 137.222 81.8381 139.549 83.2325 142.34C83.6972 143.271 84.162 144.201 85.0916 144.667C85.0916 145.132 85.5563 145.132 85.5563 145.597C85.5563 145.597 85.5564 145.597 86.0211 146.063C86.4859 146.528 86.4859 146.993 86.9507 147.458C87.4154 147.924 87.8802 148.854 88.345 149.319C91.1336 152.576 94.387 155.368 98.1052 157.695C99.0347 158.16 99.4995 158.625 100.429 159.09C100.894 159.09 100.894 159.556 101.359 159.556C106.006 161.882 110.654 163.743 115.302 164.674C115.302 164.674 115.302 164.674 115.767 164.674C116.231 164.674 116.696 164.674 117.161 165.139C118.555 165.139 119.95 165.604 120.879 165.604C121.344 165.604 122.273 165.604 122.738 165.139C123.203 165.139 124.133 165.139 124.597 165.139C125.527 165.139 125.992 165.139 126.921 164.674C127.386 164.674 128.315 164.674 129.245 164.674C131.104 164.208 132.498 163.743 134.357 163.278C135.752 162.813 136.681 161.882 138.076 161.417C139.47 160.951 140.4 159.556 141.794 159.09C143.188 158.16 144.118 157.229 145.047 156.299L145.512 155.833C145.977 154.903 146.442 153.972 146.906 153.042C148.301 150.25 148.765 147.458 148.765 144.667C148.765 141.41 147.836 138.618 146.442 135.826C145.047 133.035 143.653 130.243 141.794 127.917C139.935 125.59 138.54 123.264 136.681 120.938C134.822 118.611 132.963 116.285 131.104 113.958C129.245 111.632 127.386 109.771 125.527 107.444C124.133 105.583 122.273 103.722 120.879 101.861C120.414 100.931 119.485 100 119.02 99.0695C118.09 97.6737 117.161 96.7431 116.231 95.3472C115.302 94.4167 114.372 93.0209 113.908 91.625C112.978 90.6945 112.513 89.2986 112.048 87.9028C111.119 86.0417 110.189 84.6459 108.795 82.7848C108.33 81.3889 107.865 80.4584 107.401 79.5278C106.006 76.7362 104.612 73.9445 103.683 71.1528C103.218 69.757 102.753 68.3611 102.288 66.9653C101.823 65.5695 100.894 64.1736 100.429 62.7778C99.0347 59.9861 98.1052 57.1945 97.1757 54.4028C95.7813 51.6112 94.387 48.8195 92.9927 46.0278C92.528 45.0973 91.5984 43.7014 90.6689 42.7709C89.7393 41.3751 88.345 40.4445 87.4155 39.5139C86.4859 38.5834 85.5563 37.6528 84.162 37.1875C82.7677 36.257 81.8382 36.257 80.4439 35.3264C79.0495 34.8612 78.12 34.3959 76.7257 34.3959C76.2609 34.3959 75.7961 33.9306 74.8665 33.9306C74.4018 33.9306 73.937 33.9306 73.4723 33.9306H73.0075C72.0779 33.9306 70.6836 33.4653 69.7541 33.4653C69.2893 33.4653 68.8245 33.4653 68.3597 33.9306C67.4302 33.9306 66.9654 33.9306 66.0359 34.3959C65.1063 34.3959 63.712 34.8612 62.7825 35.3264C61.3882 35.7917 59.9938 37.1876 59.0643 38.1181C57.2052 39.9792 55.3461 42.3056 54.4165 44.632C53.0222 46.9584 52.5575 49.7501 52.0927 52.0764C51.1631 54.8681 51.1631 57.6598 51.1631 60.4514C49.7688 66.0348 49.7688 72.5487 52.0927 78.132Z" fill="url(#paint1_radial_8002_23397)"/>
<path opacity="0.6" d="M141.796 144.201C140.401 141.41 138.542 139.549 136.683 137.222C134.824 134.896 132.5 132.569 130.641 130.243C126.458 125.59 122.275 120.472 118.557 115.354C114.839 110.236 111.121 104.653 107.867 99.0695C104.149 93.0209 100.431 86.507 97.6422 80.4584C94.8535 74.4098 92.9944 67.8959 88.8114 62.3125C87.8819 60.9167 86.9524 59.9861 86.4876 58.125C86.0228 56.7292 85.5581 55.3334 84.6285 53.9376C83.699 52.5417 82.7694 51.6112 81.8398 50.2153C80.9103 49.2848 80.4456 47.889 80.4456 46.9584C79.516 44.1667 78.5865 41.375 76.7274 39.5139C74.4035 37.6528 72.5444 35.7917 70.2205 33.9306C70.2205 33.9306 70.2206 33.4653 69.7558 33.4653H70.2205C73.4739 34.8612 76.2626 36.257 79.0512 38.5834C79.516 39.5139 79.9808 40.4445 80.4456 40.9098C81.3751 41.8403 82.7694 43.2361 84.1637 44.1667C85.0933 44.632 86.0228 45.0973 86.4876 45.5625C86.9524 46.0278 87.4171 46.4931 87.8819 47.4237C88.8115 48.8195 89.741 50.2153 90.6706 51.6112C91.6001 53.007 92.0649 54.8681 92.5296 56.264C93.4592 57.6598 94.3887 59.5209 94.8535 61.382C95.3183 62.7778 95.3183 64.1737 95.783 65.5695C96.2478 67.4306 96.7126 68.8265 97.6422 70.2223C98.5717 71.6181 99.5013 73.0139 99.966 74.4098C101.825 77.2014 102.755 80.9237 104.149 84.1806C105.543 87.4376 107.402 90.6945 108.797 93.9514C110.191 97.2084 111.585 100 113.909 102.792C115.768 105.583 118.092 107.91 120.416 110.701C122.74 113.028 125.064 115.354 126.923 118.146C128.782 120.938 130.641 123.264 132.5 126.056C134.359 128.382 136.683 131.174 139.007 133.035C141.331 134.896 143.655 136.757 144.584 140.014C146.443 145.132 144.584 150.25 143.19 154.903C143.19 153.972 142.725 153.042 142.725 152.111C143.19 148.854 142.725 146.063 141.796 144.201Z" fill="#C6D556"/>
<path opacity="0.6" d="M85.5575 88.3686C83.2336 81.3895 80.445 74.8756 77.1916 68.3617C74.4029 61.8478 71.6143 55.3339 68.8257 49.2853C67.8962 47.8895 67.4314 46.0284 66.5018 44.6326C66.0371 43.2367 65.1075 41.3756 65.1075 39.9798C65.1075 38.1187 65.5722 36.2575 65.5722 34.3964C66.037 34.3964 66.9666 34.3964 67.4314 33.9312C67.8962 34.3964 67.8961 34.3964 68.3609 34.8617C69.7552 37.1881 71.6143 39.5145 73.0086 42.3062C74.8677 45.0978 75.7973 47.8895 76.7268 50.6811C77.6564 53.4728 79.0507 56.2645 80.445 59.0562C80.9098 59.9867 81.3746 60.9173 82.3041 61.8478C82.3041 61.8478 82.3041 61.8478 82.3041 62.3131C82.3041 62.3131 81.8393 62.3131 81.8393 62.7784C82.3041 64.1742 82.7689 66.0353 83.2336 67.4311C83.6984 68.3617 83.6984 69.2923 84.1632 70.2228C84.1632 70.2228 84.1632 70.2228 84.1632 70.6881C84.1632 71.1534 84.1632 71.1534 84.1632 71.6186C86.487 79.0631 89.2757 86.5076 92.5291 93.4867C94.3882 96.2784 96.7121 99.07 97.6416 101.862C99.0359 104.653 100.43 107.91 102.289 110.237C104.148 112.563 106.472 114.889 108.796 117.216C111.12 119.542 112.979 122.334 115.303 124.66C117.627 126.987 119.951 129.313 122.275 131.639C124.598 133.966 126.922 136.758 128.781 139.549C130.641 142.341 132.5 145.133 135.288 147.459C137.612 149.785 140.401 152.112 141.33 155.834C141.795 156.764 141.795 158.16 142.26 159.091C142.26 159.091 141.795 159.091 141.795 159.556C140.866 160.487 139.471 161.417 138.077 161.883C137.612 162.348 137.147 162.348 136.683 162.813C135.288 160.952 134.359 159.091 132.964 157.23C131.105 154.903 128.781 153.042 126.922 150.716C122.739 146.994 119.486 142.341 116.233 137.688C114.373 135.362 112.979 132.57 111.585 129.778C110.191 126.987 107.867 124.66 106.008 122.799C101.36 118.146 97.6416 113.494 94.3882 107.91C90.67 101.396 88.3461 94.8825 85.5575 88.3686Z" fill="#C6D556"/>
<path opacity="0.6" d="M63.7132 75.3409C63.2484 73.945 62.7837 72.0839 61.8542 70.6881C60.9246 69.2923 59.995 67.8964 59.0655 66.5006C58.6007 64.6395 58.1359 62.3131 57.6712 60.452C57.6712 59.5214 57.6712 58.5909 57.6712 57.195C57.6712 55.7992 57.6712 53.9381 57.2064 52.5423C57.2064 52.077 57.2064 51.1464 57.2064 50.6811C57.6712 45.5631 59.0655 40.4451 59.995 35.327C60.4598 34.8617 61.3894 34.3964 61.8542 33.9312C61.8542 33.9312 61.8541 33.9312 62.3189 33.9312C62.7837 36.7228 62.7837 39.5145 62.3189 42.3062C61.8541 44.6326 61.3893 46.9589 60.9245 49.2853C60.9245 51.6117 60.9246 53.9381 61.8542 56.2645C62.7837 59.5214 63.7132 62.7784 65.1076 65.5701C66.5019 68.827 67.8962 71.6186 69.7553 74.4103C71.6144 77.202 73.4735 79.9937 75.3325 82.7853C76.2621 84.1812 77.1917 86.0423 78.1212 87.4381C78.586 88.8339 79.5155 90.2298 79.9803 91.6256C81.8394 94.4173 84.1632 96.7436 85.5575 100.001C86.4871 101.396 86.4871 103.258 87.4167 104.653C87.8814 106.049 88.811 107.445 89.2757 108.841C92.5291 114.424 97.6417 118.612 100.895 124.195C104.613 130.244 107.402 136.292 111.585 141.876C113.909 144.667 116.233 147.459 118.092 150.251C119.951 152.577 121.345 154.903 124.134 157.23C126.922 159.556 130.176 160.952 133.894 162.813C132.5 163.278 131.57 163.744 130.176 163.744C129.246 163.278 128.317 162.813 127.387 162.348C125.063 161.417 122.739 161.883 120.88 161.417C119.021 160.952 117.162 160.021 115.768 159.091C113.444 157.695 111.12 155.834 109.726 153.973C107.402 151.646 106.472 148.389 105.078 145.598C104.613 144.202 103.684 142.806 102.754 141.41C101.825 140.015 100.895 138.619 99.9655 137.688C98.1064 134.896 96.7121 131.639 94.853 128.848C92.0644 122.799 87.4166 117.681 83.2337 112.563C80.9098 109.771 79.0507 106.514 77.1916 103.723C75.7973 101.396 74.8678 99.07 73.4735 96.7437C73.4735 95.8131 73.0087 94.8825 73.0087 93.952C72.0791 93.0214 71.6144 91.6256 71.1496 90.695C71.1496 90.2297 70.6848 90.2298 70.6848 89.7645C69.2905 87.9034 67.8962 85.577 66.9666 83.7159C64.6427 81.3895 64.6428 78.1325 63.7132 75.3409Z" fill="#C6D556"/>
<path opacity="0.6" d="M55.3469 86.5062C54.4174 83.7146 53.0231 80.9229 52.0935 78.1312C49.7697 72.5479 49.7697 66.4992 50.2345 60.4506C50.2345 57.659 50.6992 54.8673 51.164 52.0757C51.6288 49.284 52.5583 46.9576 53.4879 44.6312C54.8822 42.3048 56.2765 39.9784 58.1356 38.1173C59.0651 37.1868 60.4595 35.7909 61.8538 35.3257C62.3186 35.3257 62.7833 35.3256 62.7833 34.8604C59.0651 37.1867 56.2765 39.9784 54.8822 44.1659C50.6992 54.8673 54.8822 66.9646 59.0651 77.2007C59.9947 79.5271 60.9242 82.3187 62.3185 84.6451C63.2481 86.5062 63.7129 88.8326 65.1072 90.6937C65.572 91.6242 66.0368 92.5548 66.5015 93.0201C67.8958 95.3465 68.8254 97.6729 69.7549 99.9992C71.1492 103.256 73.0083 106.978 75.3322 109.77C76.2617 111.166 77.656 113.027 78.5856 114.888C81.839 120.006 84.6277 124.659 88.3459 129.312C92.5288 134.895 96.7118 140.944 102.289 145.131C107.866 151.18 115.303 157.694 124.133 157.694C128.781 157.694 133.894 155.367 137.612 152.576C140.865 150.249 143.189 146.992 144.583 143.27C145.978 139.548 145.978 135.36 145.048 131.638C145.978 133.034 146.442 134.43 146.907 135.36C148.302 138.152 149.231 140.944 149.231 144.201C149.231 146.992 148.302 149.784 147.372 152.576C146.907 153.506 146.442 154.437 145.978 155.367L145.513 155.833C144.583 156.763 143.189 157.694 142.259 158.624C141.33 159.555 139.936 160.485 138.541 160.951C137.147 161.416 136.217 162.346 134.823 162.812C132.964 163.742 131.57 164.208 129.711 164.208C128.781 164.208 128.316 164.208 127.387 164.208C126.457 164.208 125.992 164.673 125.063 164.673C124.598 164.673 123.669 164.673 123.204 164.673C122.739 164.673 121.809 164.673 121.345 165.138C119.95 165.138 118.556 164.673 117.627 164.673C117.162 164.673 116.697 164.673 116.232 164.208C116.232 164.208 116.232 164.208 115.767 164.208C110.655 163.277 106.007 161.416 101.824 159.09C101.359 159.09 101.359 158.624 100.895 158.624C99.9652 158.159 99.5004 157.694 98.5708 157.228C94.8527 154.902 91.5992 152.11 88.8106 148.853C88.3458 148.388 87.8811 147.923 87.4163 146.992C86.9515 146.527 86.9515 146.062 86.4867 145.596C86.4867 145.596 86.4868 145.596 86.022 145.131C86.022 144.666 85.5572 144.666 85.5572 144.201C85.0924 143.27 84.6277 142.34 83.6981 141.874C82.3038 139.548 80.9094 137.222 79.5151 134.43C78.5856 132.569 77.1913 130.708 76.2617 128.846C74.4026 125.124 72.5436 121.867 70.6845 118.145C69.2901 115.353 67.8958 112.562 66.5015 109.77C65.1072 106.978 63.7129 104.652 62.7833 101.86C59.9947 97.2076 57.6708 91.6243 55.3469 86.5062Z" fill="#538020"/>
<g opacity="0.3">
<path d="M53.4888 65.5706C53.4888 63.2442 53.4888 61.3831 53.4888 59.0567C53.4888 57.1956 53.024 54.8692 53.4888 53.0081C53.024 55.3344 53.9535 57.6608 53.9535 59.522C54.4183 61.8483 53.9535 63.7095 54.4183 66.0358C54.8831 70.6886 56.7422 74.8761 58.1365 79.5289C59.0661 81.39 59.0661 83.7164 60.4604 85.5775C61.3899 87.4386 62.3194 89.2997 63.249 91.6261C64.1785 93.4872 65.1081 95.3483 66.0376 96.7442C66.5024 98.14 67.432 99.5358 67.432 100.932C67.432 101.397 67.8967 101.862 67.8967 101.862C68.8262 104.654 70.2206 107.446 72.0797 110.237C75.3331 115.355 78.5865 120.473 82.3047 125.126C84.1638 127.452 85.5581 129.779 87.4172 132.105C88.3468 133.036 88.8115 134.432 89.7411 135.362C90.6706 136.758 91.1354 137.689 92.065 139.084C93.4593 141.411 95.7831 143.272 98.1069 145.133C100.431 146.994 102.29 148.855 104.614 150.716C106.473 152.112 107.867 154.439 109.726 156.3C110.656 157.23 111.585 157.696 112.98 158.626C113.909 159.091 114.839 160.022 115.768 160.953C116.698 161.418 118.092 161.883 119.022 161.883C119.487 161.883 119.951 161.883 120.881 162.348C121.81 162.348 122.275 162.814 123.205 162.814C123.67 162.814 124.599 163.279 125.064 163.279C125.529 163.279 126.458 163.279 126.923 163.279C127.388 163.279 128.317 163.744 128.782 163.744C129.247 163.744 130.176 163.744 130.641 163.744C129.712 163.744 128.782 164.209 127.852 163.744C126.458 163.279 125.064 163.279 123.669 163.279C122.275 163.279 120.881 162.814 119.487 162.814C118.557 162.814 117.163 162.814 116.233 162.348C115.304 161.883 114.374 160.953 113.444 160.022C112.515 159.091 111.121 158.626 110.191 157.696C107.867 155.834 106.473 153.508 104.614 151.647C103.684 150.716 102.29 149.786 101.36 148.855C99.9661 147.925 99.0365 146.994 98.1069 146.064C96.2479 144.203 93.924 142.807 92.065 140.48C90.2059 138.154 89.2763 135.362 87.4172 133.036C85.5581 130.709 84.1638 128.383 82.3047 126.057C78.5865 120.939 74.8683 115.355 71.6149 109.772C70.2206 106.98 68.8263 104.654 67.432 101.397C67.432 101.397 66.9672 101.397 66.9672 100.932C66.9672 100.466 66.5024 99.5358 66.5024 99.0706C66.0377 98.14 66.0376 97.6747 65.5728 96.7442C65.1081 96.2789 65.1081 95.3483 64.6433 94.8831C63.7138 93.0219 62.7842 91.1608 61.8547 89.2997C60.9252 87.4386 59.9956 85.5775 59.066 83.7164C58.6013 82.7858 58.1365 81.8553 58.1365 80.9247C57.6717 79.5289 57.207 78.5984 57.207 77.2025C55.3479 74.4109 53.4888 69.7581 53.4888 65.5706Z" fill="#2A4C10"/>
<path d="M68.3625 33.9312C69.2921 34.3964 70.6864 33.9312 71.6159 33.9312C73.0102 34.3964 73.9398 34.8617 74.8693 35.327C76.7284 36.7228 78.5875 38.5839 80.4466 40.445C81.3762 41.3756 81.8409 42.7714 83.2352 43.2367C83.7 43.702 84.1648 43.702 84.6296 44.1672C85.0943 44.6325 85.5591 45.0978 86.0239 45.5631C87.883 47.4242 89.742 49.7506 91.1364 52.077C91.6011 53.0075 92.5307 54.4034 92.9955 55.3339C93.4603 55.7992 93.4603 56.7298 93.925 57.195C94.3898 57.6603 94.3898 58.5909 94.8546 59.0562C95.3193 61.8478 96.7136 64.6395 98.108 66.9659C98.5727 68.3617 99.5023 69.7575 99.9671 71.1534C100.432 72.5492 100.897 73.945 101.826 75.3409C102.291 76.7367 103.22 77.6673 104.15 78.5978C104.615 79.9936 105.544 81.3895 106.009 82.7853C106.939 85.577 108.798 87.9034 110.192 90.695C110.657 92.0909 111.586 93.0214 112.051 94.4173C112.981 95.8131 113.91 97.2089 114.375 98.6048C115.769 101.396 117.164 104.188 119.023 106.514C120.882 108.841 122.741 110.702 125.065 113.028C125.994 113.959 126.924 115.355 127.853 116.285C128.783 117.681 129.713 118.612 131.107 119.542C132.036 120.473 132.966 121.869 133.431 122.799C134.36 123.73 134.825 125.126 135.755 126.056C137.614 128.383 139.938 129.778 142.261 132.105C144.12 133.966 145.515 136.292 146.444 138.619C146.909 139.549 146.909 140.945 147.374 141.876C147.839 142.806 147.839 143.737 147.839 144.667C147.839 145.598 147.839 146.994 147.374 147.924C146.909 148.855 146.444 149.785 145.98 150.716C146.909 149.32 147.374 148.389 147.839 146.994C147.839 145.133 147.839 143.737 147.374 141.876C146.909 140.48 146.444 139.549 145.98 138.153C145.515 136.758 144.585 135.362 143.656 134.431C142.726 133.035 141.797 132.105 140.402 131.174C139.473 130.244 138.078 129.313 137.149 128.383C136.219 127.452 135.29 126.987 134.825 125.591C133.896 124.195 133.431 123.264 132.501 122.334C130.642 120.008 128.783 117.681 126.924 115.82C125.994 114.424 125.065 113.494 123.67 112.563C122.741 111.633 121.811 110.702 120.882 109.771C119.023 107.445 117.628 105.119 116.234 102.792C115.769 101.396 114.84 100.001 114.375 99.07C113.445 97.6742 112.516 96.2784 112.051 94.8825C110.657 92.0909 109.263 89.7645 107.868 86.9728C107.403 85.577 106.474 84.1811 106.009 83.2506C105.544 81.8548 105.08 79.9936 104.15 79.0631C102.291 76.7367 101.361 73.945 100.432 71.1534C99.5023 68.3617 98.108 66.0353 97.1784 63.2437C96.7137 62.3131 96.7137 60.9173 96.2489 59.5214C95.7841 58.1256 94.8546 56.2645 94.3898 54.8687C92.9955 52.077 91.1364 49.7506 89.2773 47.4242C88.3478 46.4937 87.4182 45.5631 86.0239 44.6326C85.5591 44.1673 85.0943 44.1673 84.6296 43.702C84.1648 43.2367 83.7 42.7714 83.2352 42.3062C82.3057 41.3756 81.3761 40.445 80.9114 39.5145C79.9818 38.5839 78.5875 37.6534 77.658 36.7228C76.2637 35.7923 75.3341 34.8617 73.9398 33.9312C71.1511 33.9312 69.7568 34.8617 68.3625 33.9312Z" fill="#2A4C10"/>
<path d="M69.756 35.3257C69.756 35.3257 70.6856 36.2562 70.6856 36.7215C71.1503 37.1868 71.6151 37.6521 72.0799 38.5826C73.0094 39.5132 73.939 40.909 74.4038 41.8395C75.7981 44.1659 76.7276 46.4923 77.6571 48.8187C78.5867 51.6104 79.0515 53.9368 79.981 56.7285C80.9106 59.0548 83.2344 60.916 83.6992 63.2423C82.7697 60.916 80.9105 59.0548 79.5162 56.7285C78.1219 54.4021 77.6571 52.0757 77.1923 49.284C76.2628 46.4923 75.3333 43.7007 73.9389 41.3743C73.0094 39.9784 72.0799 39.0479 71.6151 38.1173C70.6855 37.1868 69.756 36.2562 69.756 35.3257Z" fill="#2A4C10"/>
<path d="M79.0511 44.6318C79.0511 46.0277 80.4454 47.4235 81.375 48.354C82.3045 49.7499 83.2341 51.1457 83.6988 52.5415C84.1636 53.4721 84.6284 53.9374 85.0932 54.8679C85.5579 55.3332 85.5579 56.2638 86.0227 56.7291C86.4875 57.6596 87.417 58.5901 87.417 59.986C87.417 60.4513 86.9522 59.986 86.9522 59.986C86.4875 58.5901 85.5579 57.6596 85.0932 56.2638C84.6284 54.8679 83.6988 53.4721 83.234 52.0763C82.3045 50.6804 81.8397 49.2846 80.9102 47.8888C79.9806 46.4929 79.0511 45.5624 79.0511 44.6318Z" fill="#2A4C10"/>
<path d="M92.0648 70.2217C93.4591 73.0133 95.3182 75.805 96.7125 78.1314C98.1069 80.9231 99.5011 83.7147 100.895 86.5064C103.684 92.0897 106.473 97.2078 110.191 102.326C112.05 104.652 113.444 106.979 115.303 109.77C116.698 112.097 118.092 114.888 119.486 117.215C120.416 118.145 121.345 119.076 121.81 120.006C122.74 121.402 123.669 122.333 124.599 123.263C125.528 124.194 126.458 125.124 127.388 126.055C128.317 126.986 129.711 127.916 130.641 129.312C132.035 131.173 133.894 132.569 135.289 134.43C136.218 135.361 136.683 136.291 137.613 137.222C138.542 138.152 139.472 139.083 140.401 139.548C141.796 140.944 142.725 143.27 143.655 145.131C144.119 146.062 144.119 146.993 144.584 148.388C144.584 149.319 144.584 150.249 144.584 151.645C144.584 152.111 144.119 151.645 144.119 151.645C144.119 150.249 144.119 149.319 143.655 147.923C143.19 146.527 142.725 145.131 142.26 143.736C140.866 140.944 139.007 139.083 137.148 136.756C135.289 134.43 133.43 132.104 131.106 130.242C130.176 129.312 129.247 128.381 128.317 127.451C127.852 126.986 127.388 126.52 126.923 126.055C126.458 125.59 125.528 124.659 125.064 124.194C124.134 123.263 123.205 122.333 122.74 121.402C121.81 120.472 121.345 119.076 120.416 118.145C118.557 116.284 117.627 113.492 116.233 111.166C113.444 106.048 109.261 101.395 106.473 95.812C104.149 91.6245 101.825 87.4369 99.9659 83.2494C96.7125 79.0619 93.9239 74.8745 92.0648 70.2217Z" fill="#2A4C10"/>
<path d="M112.98 120.472C114.375 121.868 115.769 123.729 117.628 125.125C119.022 126.521 120.417 128.382 121.811 129.778C123.205 131.174 124.6 132.57 125.529 134.431C126.923 136.292 128.318 137.688 129.247 139.549C130.642 141.41 131.571 142.806 132.965 144.667C134.36 146.063 135.754 147.459 137.148 148.854C138.543 150.25 139.472 152.111 140.402 153.507C140.867 154.438 141.331 155.368 141.796 156.299C141.796 156.764 142.261 156.764 142.261 157.229V157.695V158.16C140.402 154.903 138.543 150.716 135.754 147.924C134.36 146.528 132.965 145.597 132.036 144.202C130.642 142.806 129.247 140.945 128.318 139.084C125.994 135.827 123.67 132.57 120.881 129.313C119.487 127.917 118.093 126.056 116.234 124.66C114.839 123.729 113.445 122.334 112.98 120.472C112.515 120.007 112.051 120.007 112.98 120.472Z" fill="#2A4C10"/>
<path d="M96.249 98.6043C96.7138 99.0695 97.6433 100 98.108 100.465C98.5728 101.396 98.5729 102.326 99.0377 103.257C100.432 105.118 101.826 106.514 103.221 108.375C104.15 109.306 104.615 110.701 105.544 112.097C106.009 112.563 106.939 115.354 107.868 114.889C106.939 115.82 105.08 111.632 104.15 110.701C102.756 108.84 100.897 106.514 99.5024 104.653C99.0376 103.722 98.108 102.792 98.108 101.861C98.108 101.396 98.1081 100.931 97.6433 100.465C96.7138 99.5348 96.249 99.0695 96.249 98.6043C96.249 98.139 95.7842 98.6043 96.249 98.6043Z" fill="#2A4C10"/>
<path d="M87.8816 82.7852C89.2759 84.6463 89.7407 86.9727 91.5998 88.8338C92.9941 90.6949 93.9237 92.556 94.8532 94.8824C94.3884 94.8824 94.3885 94.4171 94.3885 94.4171C93.9237 93.9518 93.9236 93.4865 93.4589 92.556C92.9941 91.6254 92.0646 90.2296 91.5998 89.7643C90.6703 88.8338 90.2055 87.9032 89.2759 86.5074C88.3464 85.1116 87.8816 84.181 87.8816 82.7852Z" fill="#2A4C10"/>
<path d="M65.574 40.4456C65.574 39.0498 65.574 38.1192 65.574 36.7234C65.574 35.7928 65.5741 35.3275 66.0388 34.397V35.7928C66.0388 36.2581 66.5036 36.7234 66.5036 37.1886C66.5036 37.6539 66.5036 38.5845 66.5036 39.0497C66.5036 40.4456 67.4331 41.8414 67.8979 43.2373C68.3627 44.6331 69.2923 45.5637 69.757 46.9595C70.6866 49.2859 71.1514 51.6123 72.0809 53.9387C72.5457 55.3345 73.4752 56.265 73.94 57.6609C74.4047 59.0567 75.3343 59.9873 75.7991 61.3831C77.1934 63.7095 77.6582 66.5011 78.123 68.8275C79.0525 71.6192 79.982 73.9456 81.3764 76.7372C82.3059 79.0636 82.7706 81.8553 84.165 84.1817C84.6297 85.5775 85.5593 86.5081 86.0241 87.9039C86.4889 89.2997 86.9536 90.6956 87.8832 92.0914C87.8832 92.5567 87.4184 92.5567 87.4184 92.0914C86.4889 91.1609 86.0241 89.765 85.5593 88.8345C85.0945 87.4387 84.165 86.5081 83.7002 85.1123C82.3059 82.7859 81.8412 79.9942 80.4468 77.2025C79.9821 75.8067 79.5172 74.8761 78.5877 73.4803C78.1229 72.0845 77.6581 70.6886 77.1934 69.2928C76.2638 66.5011 75.799 64.1748 74.8695 61.3831C74.4047 60.4525 73.94 59.0567 73.0104 58.1261C72.5457 56.7303 71.6161 55.7998 70.6866 54.4039C69.2922 52.0775 69.2922 49.7512 68.3627 47.4248C67.8979 46.0289 66.9684 45.0984 66.5036 43.7025C66.5036 42.772 66.0388 41.3762 65.574 40.4456Z" fill="#2A4C10"/>
<path d="M81.8406 69.2923C82.3053 69.2923 82.3054 69.2923 82.3054 69.2923C81.8406 68.8271 82.3054 69.2923 82.3054 69.7576C82.3054 69.7576 82.3054 70.2229 82.7702 70.2229C83.2349 70.6882 83.2349 71.1534 83.6997 72.084C83.6997 72.084 83.6997 72.084 83.2349 72.084C82.7701 71.6187 82.7701 71.1535 82.3054 70.2229C81.8406 70.2229 81.8406 69.7576 81.8406 69.2923Z" fill="#2A4C10"/>
<path d="M91.136 100.931C91.136 101.861 91.6008 102.327 92.5304 102.792C92.9951 103.257 92.9952 103.722 92.9952 104.188C93.4599 105.583 94.3895 106.979 94.8542 107.91C95.7838 109.306 96.7133 110.236 97.6429 111.632C98.5724 112.563 99.5019 113.493 100.431 114.889C101.361 115.82 101.826 117.215 102.755 118.146C103.685 119.542 104.615 120.472 106.009 121.868C106.938 122.799 107.403 123.729 108.333 124.66C109.262 126.056 110.192 126.986 111.121 128.382C112.051 129.313 112.051 130.708 112.516 131.639C112.98 132.57 112.98 133.5 113.445 133.965C113.91 134.431 114.375 135.361 114.839 135.826C115.769 136.757 116.234 137.688 117.163 138.618C118.093 140.014 119.022 140.945 119.952 142.34C120.882 143.271 121.811 144.201 122.741 145.597C123.67 146.528 124.6 147.458 125.529 148.389C126.459 149.32 127.388 150.25 128.318 151.181C129.247 152.111 130.177 152.576 131.571 153.507C132.501 154.438 133.43 155.368 133.895 156.764C134.36 157.229 134.36 158.16 134.825 159.09C135.29 160.021 135.754 160.486 135.754 161.417C135.29 160.486 134.36 159.09 133.895 158.16C133.43 156.764 132.501 155.833 131.571 154.903C130.642 153.972 129.712 153.507 128.783 152.576C127.853 151.646 126.924 150.715 125.994 149.785C125.064 148.854 124.135 147.924 123.205 146.993C122.276 146.063 121.346 145.132 120.417 143.736C119.487 142.806 118.558 141.875 117.628 140.945C116.699 139.549 116.234 138.618 115.304 137.222C114.84 136.292 113.445 135.361 112.98 134.431C112.051 133.035 112.051 131.639 111.121 130.708C110.192 129.313 109.262 128.382 108.333 126.986C107.403 126.056 106.474 124.66 105.544 123.264C105.079 122.799 104.614 122.333 104.15 121.868C103.685 121.403 103.22 120.938 102.755 120.007C101.826 118.611 100.896 117.681 99.9668 116.285C99.0372 114.889 97.6429 114.424 96.7134 113.493C95.7838 112.563 94.8542 111.632 93.9247 110.236C92.9951 108.84 92.0656 106.979 91.6008 105.583C91.1361 104.653 91.1361 104.188 90.6713 103.257C91.1361 101.861 91.136 101.396 91.136 100.931Z" fill="#2A4C10"/>
<path d="M100.896 125.125C102.29 126.987 103.684 127.917 105.079 129.778C105.544 130.709 106.008 131.639 106.473 132.57C106.938 133.5 107.403 134.431 107.867 135.362C108.332 136.292 108.797 137.223 109.262 138.153C109.727 139.084 110.656 140.014 111.121 140.48C112.515 142.341 114.374 144.202 115.769 146.063C116.698 146.994 117.628 147.924 118.092 148.389C119.022 148.855 119.487 149.785 119.952 150.716C120.416 151.646 120.881 152.577 121.346 153.507C121.811 154.438 122.74 155.369 123.205 156.299C124.135 157.23 124.599 158.16 125.994 158.16C126.923 158.16 127.388 158.625 128.317 159.091C129.247 159.556 130.177 160.021 131.106 160.487C132.036 160.952 132.965 161.882 133.895 161.417C132.5 161.882 131.106 160.952 129.712 160.487C128.782 160.021 127.853 159.556 126.923 159.091C125.994 158.625 125.064 158.625 124.135 158.16C123.205 157.695 122.74 156.764 121.811 155.834C120.881 154.903 120.416 153.973 119.487 153.042C119.022 152.112 118.557 151.181 118.092 150.25C117.163 149.32 116.698 148.389 115.304 147.459C113.445 146.063 112.05 143.737 110.656 141.875C109.262 140.014 107.403 138.619 106.473 136.757C106.008 135.827 105.544 134.431 105.079 133.501C104.614 132.57 103.685 131.639 103.22 130.709C103.685 128.848 101.825 127.452 100.896 125.125C100.431 125.125 100.431 125.125 100.896 125.125Z" fill="#2A4C10"/>
<path d="M93.9246 126.523C94.8541 128.384 95.7837 129.78 96.2484 131.641C96.7132 132.571 96.7132 133.502 97.6428 134.433C98.1075 135.363 98.5723 136.294 99.0371 137.224C99.9667 138.62 101.826 140.016 102.755 141.412C104.15 142.808 105.079 144.203 106.009 146.53C106.473 147.46 106.938 148.391 107.403 149.321C107.868 150.252 108.333 151.648 109.262 152.578C110.192 154.44 112.051 155.835 113.445 157.231C114.375 157.696 114.839 158.627 115.769 159.092C116.698 159.558 117.628 160.023 118.558 160.488C119.487 160.953 120.417 160.953 121.811 161.419C122.276 161.419 123.67 162.349 124.135 161.884C123.67 162.349 123.205 161.884 123.205 161.884C122.276 161.884 121.346 161.419 120.417 161.419C118.093 160.953 116.234 160.488 114.375 159.092C113.445 158.627 112.98 157.696 112.051 157.231C111.121 156.766 110.656 155.835 109.727 154.905C108.333 153.044 106.938 150.717 106.009 148.391C105.544 147.46 105.079 146.53 104.614 145.134C104.15 144.203 103.22 143.273 102.755 142.342C101.361 140.481 99.5018 139.085 98.1075 137.224C97.6427 136.294 97.178 135.363 96.7132 134.433C96.2485 133.502 95.7837 132.571 95.3189 131.641C94.8541 130.71 94.8542 129.315 94.3894 128.384C93.9246 127.453 93.4598 126.523 93.4598 125.592C93.4598 126.523 93.9246 126.523 93.9246 126.523Z" fill="#2A4C10"/>
<path d="M61.8548 58.1261C61.8548 57.1956 61.39 56.7303 61.39 55.7997C60.9252 54.4039 60.4604 53.0081 60.4604 51.6123C60.4604 48.8206 60.4604 46.0289 61.39 43.2373C61.8548 41.8414 62.3195 40.4456 62.7843 38.5845C63.2491 37.1886 63.249 35.7928 63.249 34.397C63.249 35.7928 63.2491 36.7234 62.7843 38.1192C62.7843 39.515 62.3196 40.4456 61.8548 41.8414C61.39 43.2372 61.39 44.6331 60.9252 46.4942C60.9252 47.89 60.9252 49.2859 60.9252 51.147C60.9252 53.9386 62.7843 56.265 62.7843 59.0567C62.7843 61.8484 64.6434 64.1748 65.1082 66.9664C65.1082 66.9664 65.1081 66.9664 64.6434 66.9664C64.1786 65.5706 63.2491 64.1748 62.7843 63.2442C62.3195 62.3137 61.8548 60.9178 61.39 59.9873C61.8548 59.0567 61.8548 58.5914 61.8548 58.1261Z" fill="#2A4C10"/>
<path d="M75.7968 84.6455C75.7968 85.1108 76.2616 85.576 76.7264 86.0413C77.1911 86.5066 77.1911 86.9719 77.6559 87.4372C78.1207 88.3677 79.0502 89.2983 79.0502 90.6941H78.5854C78.1206 89.7635 77.6559 88.833 77.1911 87.4372C76.7263 86.9719 75.7968 85.5761 75.7968 84.6455Z" fill="#2A4C10"/>
<path d="M58.1366 59.9868C58.1366 57.6604 58.1366 55.7993 58.1366 53.4729C58.1366 51.6118 57.6718 49.7507 58.1366 47.8896C58.1366 46.0285 58.6013 44.1674 59.5309 42.7716C59.9957 41.841 59.9956 40.9104 60.4604 39.9799C60.4604 39.5146 60.4604 39.0493 60.9252 39.0493C60.4604 39.5146 60.4604 40.4452 60.4604 40.9104C60.4604 41.841 59.9956 42.7715 59.9956 43.7021C59.5308 45.5632 59.5309 47.4243 59.5309 48.8201C59.5309 50.6813 59.5308 52.5424 59.9956 54.4035C59.9956 56.2646 59.9956 58.591 59.9956 60.4521C59.9956 62.3132 60.4604 64.6396 61.39 66.5007C61.8547 67.8965 62.7843 69.7577 63.7138 71.1535C64.1786 73.0146 65.1081 74.4104 65.5729 76.2715C66.0377 78.1326 66.5025 79.9938 66.5025 81.8549C65.5729 78.1327 64.1786 73.9452 62.7843 70.2229C61.8547 68.3618 60.9252 66.966 60.4604 65.1049C58.1366 63.709 58.1366 61.8479 58.1366 59.9868Z" fill="#2A4C10"/>
<path d="M62.3193 100.465C62.3193 101.395 62.7841 101.861 63.7136 102.791C64.1784 103.257 64.1784 103.722 64.6431 104.187C65.1079 105.583 66.0375 106.513 66.967 107.909C68.3613 110.236 69.7557 112.562 71.15 114.888C71.6148 115.819 72.5443 117.215 73.0091 118.145C73.4738 119.076 74.4034 120.007 74.8681 121.402C75.3329 122.333 76.2625 123.729 76.7273 124.659C77.192 125.59 77.6568 126.986 78.1216 127.916C78.5864 128.847 79.5159 130.243 79.9807 131.173C80.4454 132.569 80.9102 133.5 81.8397 134.43C83.234 136.291 84.6284 138.152 86.4875 140.013C88.3465 142.34 90.2057 144.201 92.0648 146.062C93.9239 147.923 95.783 150.25 97.6421 152.111C93.9239 148.388 89.7409 144.666 86.4875 140.479C85.0931 138.618 83.234 136.291 81.8397 134.43C80.9102 133.5 80.4454 132.569 79.9807 131.638C79.5159 130.243 78.5864 129.312 78.1216 127.916C77.6568 126.986 77.192 125.59 76.7273 124.659C76.2625 123.729 75.3329 122.333 74.8681 121.402C74.4034 120.007 73.4738 119.076 73.0091 118.145C72.0795 116.75 71.6148 115.819 71.15 114.423C69.7557 112.097 68.3613 109.77 66.967 106.979C66.5022 106.048 65.5727 104.652 65.1079 103.722C63.7136 102.791 62.784 101.861 62.3193 100.465Z" fill="#2A4C10"/>
<path d="M77.6576 101.396C78.1223 102.327 78.5871 103.258 79.0519 104.188C79.5167 105.119 80.4462 106.049 80.911 106.98C80.911 106.98 80.911 107.445 80.4462 107.445C79.9815 107.445 79.9814 107.445 79.9814 106.98C79.9814 106.98 79.9814 106.98 79.9814 106.515C79.5167 105.584 78.5871 104.653 78.1224 103.723C77.6576 103.258 77.6575 102.792 77.1928 101.862C77.6575 102.327 77.6576 102.327 77.6576 101.396C77.6576 101.862 77.6576 101.862 77.6576 101.396Z" fill="#2A4C10"/>
</g>
<path d="M63.7143 36.7215C64.6439 34.8604 67.8973 34.8604 69.7564 34.8604C72.0803 34.8604 73.9393 35.3257 76.2632 35.7909C80.4462 37.1868 84.6291 39.5132 87.8825 42.7701C91.1359 45.5618 93.4598 49.284 95.3189 53.4715C96.2485 55.3326 97.178 57.659 98.1075 59.5201C99.0371 61.8465 99.9666 63.7076 100.431 66.034C100.431 66.034 100.431 66.4993 99.9667 66.034C99.0371 64.1729 98.1075 62.777 97.178 60.9159C96.2485 59.0548 95.3189 57.1937 93.9246 55.3326C91.6007 52.0756 89.2768 48.8187 86.4882 46.027C83.6996 43.2354 79.9814 40.909 76.2632 39.5131C74.4041 39.0479 72.545 38.5826 70.6859 38.1173C69.7564 38.1173 68.8268 38.1173 67.8973 38.1173C66.9677 38.1173 66.0382 38.5826 64.6439 38.5826C64.1791 38.1173 63.2496 37.652 63.7143 36.7215Z" fill="#F0FE84"/>
<path d="M58.6019 39.5129C58.6019 39.0476 58.6019 38.5824 59.0667 38.1171C59.5315 37.6518 59.9962 37.1865 60.461 37.1865C60.9258 37.1865 61.3905 37.1866 61.3905 37.6518C61.3905 37.6518 61.8553 37.6518 61.8553 38.1171C62.3201 38.5824 62.3201 39.0477 62.3201 39.9782C62.3201 40.4435 61.8553 40.9088 61.8553 41.374C61.3906 41.8393 60.9258 41.8393 59.9962 41.8393C59.5314 41.374 58.6019 40.4435 58.6019 39.5129Z" fill="#F0FE84"/>
<path d="M57.6708 42.3044C58.1361 41.8392 58.6014 43.235 58.1361 43.235C57.6708 43.7002 57.2055 42.3044 57.6708 42.3044Z" fill="#F0FE84"/>
<path d="M132.5 150.714C134.359 148.853 136.683 147.457 138.077 145.13C139.007 143.734 139.472 142.339 139.936 140.943C140.866 137.686 139.936 134.429 139.007 131.172C137.613 127.915 135.754 124.658 133.894 121.401C132.035 118.61 130.176 115.818 127.852 113.491C133.43 118.61 138.542 124.193 141.331 131.172C142.725 134.429 143.19 138.151 142.26 141.873C140.866 146.526 136.683 150.248 132.035 151.179C132.5 151.644 132.035 151.179 132.5 150.714Z" fill="#F0FE84"/>
<path d="M105.543 81.3883C104.613 79.5272 104.148 77.6661 103.219 75.805C102.289 73.9439 101.824 71.6175 101.36 69.7563C102.289 71.6175 103.219 73.0133 103.684 74.8744C104.613 76.7355 105.543 78.5966 106.472 80.4578C108.331 84.18 110.19 87.4369 112.514 91.1592C114.373 94.4161 116.697 97.673 118.556 100.93C119.486 102.791 120.415 104.187 121.345 106.048C122.274 107.909 123.669 109.77 124.598 111.166C123.204 110.236 121.81 108.84 120.415 107.444C119.021 106.048 118.091 104.652 116.697 102.791C114.373 99.5342 112.049 95.8119 110.19 92.0897C109.261 88.3675 107.402 85.1105 105.543 81.3883Z" fill="#F0FE84"/>
<defs>
<radialGradient id="paint0_radial_8002_23397" cx="0" cy="0" r="1" gradientTransform="matrix(-120.109 54.5089 54.4497 120.239 142.042 38.8817)" gradientUnits="userSpaceOnUse">
<stop offset="0.2701" stop-color="#93B023"/>
<stop offset="1" stop-color="#2A4C10"/>
</radialGradient>
<radialGradient id="paint1_radial_8002_23397" cx="0" cy="0" r="1" gradientTransform="matrix(-113.296 51.417 51.3612 113.419 148.558 56.5774)" gradientUnits="userSpaceOnUse">
<stop offset="0.1751" stop-color="#E7FF32"/>
<stop offset="0.7394" stop-color="#8FA931"/>
<stop offset="0.9695" stop-color="#364900"/>
</radialGradient>
</defs>
</svg>
