<svg width="200" height="200" viewBox="0 0 200 200" fill="none" xmlns="http://www.w3.org/2000/svg">
<path d="M146.532 45.957C140.612 42.7223 133.229 39.8837 124.183 37.5733C124.183 37.5733 93.3201 33.0183 70.9712 49.5878C51.8815 63.7148 28.0693 59.2919 25.3422 89.0642C19.5554 152.636 88.5976 133.096 123.85 125.042C154.979 117.978 191.296 70.4483 146.532 45.957Z" fill="#F9E178"/>
<path opacity="0.6" d="M146.532 45.9569C143.938 44.5706 141.144 43.2504 138.018 41.9961C138.084 42.2602 141.942 65.9592 113.208 72.2966C84.3407 78.6339 68.7097 96.9858 52.6797 96.5897C41.4388 96.3257 30.5304 98.5702 26.2734 108.538C35.5855 148.147 92.788 132.171 123.85 125.108C154.979 117.978 191.296 70.4482 146.532 45.9569Z" fill="#EACE5C"/>
<path opacity="0.2" d="M153.915 50.7759C153.915 50.7759 136.421 108.142 87.5331 109.726C47.6909 111.047 36.0508 117.054 35.7183 125.042C55.6061 142.601 98.4415 130.851 123.85 125.042C153.05 118.44 186.839 76.1913 153.915 50.7759Z" fill="#C48802"/>
<g opacity="0.3" style="mix-blend-mode:soft-light">
<path d="M47.0926 69.1282C47.0926 69.1282 25.4754 77.0499 32.2598 83.8493C39.0443 90.5828 58.7326 67.5438 47.0926 69.1282Z" fill="white"/>
</g>
<g opacity="0.3" style="mix-blend-mode:soft-light">
<path d="M83.4758 50.7758C84.3405 58.5655 116.267 48.0032 116.267 48.0032C107.288 42.9862 82.6111 42.9862 83.4758 50.7758Z" fill="white"/>
</g>
<path opacity="0.3" d="M77.3564 67.5434C77.9074 67.5434 78.3541 67.1001 78.3541 66.5532C78.3541 66.0063 77.9074 65.563 77.3564 65.563C76.8053 65.563 76.3586 66.0063 76.3586 66.5532C76.3586 67.1001 76.8053 67.5434 77.3564 67.5434Z" fill="#966504"/>
<path opacity="0.3" d="M87.5998 73.8149C88.1508 73.8149 88.5975 73.3716 88.5975 72.8247C88.5975 72.2778 88.1508 71.8345 87.5998 71.8345C87.0487 71.8345 86.6021 72.2778 86.6021 72.8247C86.6021 73.3716 87.0487 73.8149 87.5998 73.8149Z" fill="#966504"/>
<path opacity="0.3" d="M62.258 72.8242C62.809 72.8242 63.2557 72.3808 63.2557 71.834C63.2557 71.2871 62.809 70.8438 62.258 70.8438C61.7069 70.8438 61.2603 71.2871 61.2603 71.834C61.2603 72.3808 61.7069 72.8242 62.258 72.8242Z" fill="#966504"/>
<path opacity="0.3" d="M57.0695 87.0839C57.6205 87.0839 58.0672 86.6406 58.0672 86.0937C58.0672 85.5468 57.6205 85.1035 57.0695 85.1035C56.5185 85.1035 56.0718 85.5468 56.0718 86.0937C56.0718 86.6406 56.5185 87.0839 57.0695 87.0839Z" fill="#966504"/>
<path opacity="0.3" d="M87.5998 94.5434C88.1508 94.5434 88.5975 94.1001 88.5975 93.5532C88.5975 93.0063 88.1508 92.563 87.5998 92.563C87.0487 92.563 86.6021 93.0063 86.6021 93.5532C86.6021 94.1001 87.0487 94.5434 87.5998 94.5434Z" fill="#966504"/>
<path opacity="0.3" d="M66.7809 102.333C67.3319 102.333 67.7786 101.89 67.7786 101.343C67.7786 100.796 67.3319 100.353 66.7809 100.353C66.2299 100.353 65.7832 100.796 65.7832 101.343C65.7832 101.89 66.2299 102.333 66.7809 102.333Z" fill="#966504"/>
<path opacity="0.3" d="M110.215 93.4873C110.766 93.4873 111.212 93.0439 111.212 92.497C111.212 91.9502 110.766 91.5068 110.215 91.5068C109.663 91.5068 109.217 91.9502 109.217 92.497C109.217 93.0439 109.663 93.4873 110.215 93.4873Z" fill="#966504"/>
<path opacity="0.3" d="M102.632 117.846C103.183 117.846 103.63 117.403 103.63 116.856C103.63 116.309 103.183 115.866 102.632 115.866C102.081 115.866 101.634 116.309 101.634 116.856C101.634 117.403 102.081 117.846 102.632 117.846Z" fill="#966504"/>
<path opacity="0.3" d="M78.3539 120.553C78.9049 120.553 79.3516 120.11 79.3516 119.563C79.3516 119.016 78.9049 118.573 78.3539 118.573C77.8029 118.573 77.3562 119.016 77.3562 119.563C77.3562 120.11 77.8029 120.553 78.3539 120.553Z" fill="#966504"/>
<path opacity="0.3" d="M48.4892 106.163C49.0402 106.163 49.4869 105.719 49.4869 105.172C49.4869 104.625 49.0402 104.182 48.4892 104.182C47.9381 104.182 47.4915 104.625 47.4915 105.172C47.4915 105.719 47.9381 106.163 48.4892 106.163Z" fill="#966504"/>
<path opacity="0.3" d="M37.7802 92.497C38.3312 92.497 38.7779 92.0537 38.7779 91.5068C38.7779 90.9599 38.3312 90.5166 37.7802 90.5166C37.2292 90.5166 36.7825 90.9599 36.7825 91.5068C36.7825 92.0537 37.2292 92.497 37.7802 92.497Z" fill="#966504"/>
<path opacity="0.3" d="M105.293 67.5434C105.844 67.5434 106.29 67.1001 106.29 66.5532C106.29 66.0063 105.844 65.563 105.293 65.563C104.742 65.563 104.295 66.0063 104.295 66.5532C104.295 67.1001 104.742 67.5434 105.293 67.5434Z" fill="#966504"/>
<path opacity="0.3" d="M93.4528 57.2456C94.0038 57.2456 94.4505 56.8022 94.4505 56.2553C94.4505 55.7085 94.0038 55.2651 93.4528 55.2651C92.9018 55.2651 92.4551 55.7085 92.4551 56.2553C92.4551 56.8022 92.9018 57.2456 93.4528 57.2456Z" fill="#966504"/>
<path opacity="0.3" d="M122.986 42.9868C123.537 42.9868 123.983 42.5434 123.983 41.9966C123.983 41.4497 123.537 41.0063 122.986 41.0063C122.435 41.0063 121.988 41.4497 121.988 41.9966C121.988 42.5434 122.435 42.9868 122.986 42.9868Z" fill="#966504"/>
<path opacity="0.3" d="M120.126 63.187C120.677 63.187 121.123 62.7436 121.123 62.1968C121.123 61.6499 120.677 61.2065 120.126 61.2065C119.575 61.2065 119.128 61.6499 119.128 62.1968C119.128 62.7436 119.575 63.187 120.126 63.187Z" fill="#966504"/>
<path opacity="0.3" d="M127.642 79.0961C128.193 79.0961 128.639 78.6528 128.639 78.1059C128.639 77.5591 128.193 77.1157 127.642 77.1157C127.09 77.1157 126.644 77.5591 126.644 78.1059C126.644 78.6528 127.09 79.0961 127.642 79.0961Z" fill="#966504"/>
<path opacity="0.3" d="M142.275 101.277C142.826 101.277 143.273 100.834 143.273 100.287C143.273 99.7402 142.826 99.2969 142.275 99.2969C141.724 99.2969 141.277 99.7402 141.277 100.287C141.277 100.834 141.724 101.277 142.275 101.277Z" fill="#966504"/>
<path opacity="0.3" d="M123.119 114.81C123.67 114.81 124.116 114.366 124.116 113.819C124.116 113.272 123.67 112.829 123.119 112.829C122.568 112.829 122.121 113.272 122.121 113.819C122.121 114.366 122.568 114.81 123.119 114.81Z" fill="#966504"/>
<path opacity="0.3" d="M99.1068 102.333C99.6579 102.333 100.105 101.89 100.105 101.343C100.105 100.796 99.6579 100.353 99.1068 100.353C98.5558 100.353 98.1091 100.796 98.1091 101.343C98.1091 101.89 98.5558 102.333 99.1068 102.333Z" fill="#966504"/>
<path opacity="0.3" d="M100.104 86.622C100.655 86.622 101.102 86.1787 101.102 85.6318C101.102 85.0849 100.655 84.6416 100.104 84.6416C99.5534 84.6416 99.1067 85.0849 99.1067 85.6318C99.1067 86.1787 99.5534 86.622 100.104 86.622Z" fill="#966504"/>
<path opacity="0.3" d="M148.793 84.5751C149.344 84.5751 149.791 84.1318 149.791 83.5849C149.791 83.0381 149.344 82.5947 148.793 82.5947C148.242 82.5947 147.795 83.0381 147.795 83.5849C147.795 84.1318 148.242 84.5751 148.793 84.5751Z" fill="#966504"/>
<path opacity="0.3" d="M142.275 70.0522C142.826 70.0522 143.273 69.6089 143.273 69.062C143.273 68.5151 142.826 68.0718 142.275 68.0718C141.724 68.0718 141.277 68.5151 141.277 69.062C141.277 69.6089 141.724 70.0522 142.275 70.0522Z" fill="#966504"/>
<path opacity="0.3" d="M158.77 68.9965C159.321 68.9965 159.768 68.5532 159.768 68.0063C159.768 67.4594 159.321 67.0161 158.77 67.0161C158.219 67.0161 157.773 67.4594 157.773 68.0063C157.773 68.5532 158.219 68.9965 158.77 68.9965Z" fill="#966504"/>
<path opacity="0.3" d="M138.683 62.1308C139.234 62.1308 139.68 61.6875 139.68 61.1406C139.68 60.5937 139.234 60.1504 138.683 60.1504C138.132 60.1504 137.685 60.5937 137.685 61.1406C137.685 61.6875 138.132 62.1308 138.683 62.1308Z" fill="#966504"/>
<path opacity="0.3" d="M72.7006 54.6044C73.2516 54.6044 73.6983 54.1611 73.6983 53.6142C73.6983 53.0674 73.2516 52.624 72.7006 52.624C72.1496 52.624 71.7029 53.0674 71.7029 53.6142C71.7029 54.1611 72.1496 54.6044 72.7006 54.6044Z" fill="#966504"/>
<path opacity="0.3" d="M57.0695 117.846C57.6205 117.846 58.0672 117.403 58.0672 116.856C58.0672 116.309 57.6205 115.866 57.0695 115.866C56.5185 115.866 56.0718 116.309 56.0718 116.856C56.0718 117.403 56.5185 117.846 57.0695 117.846Z" fill="#966504"/>
<path opacity="0.3" d="M74.696 78.04C75.247 78.04 75.6937 77.5967 75.6937 77.0498C75.6937 76.5029 75.247 76.0596 74.696 76.0596C74.1449 76.0596 73.6982 76.5029 73.6982 77.0498C73.6982 77.5967 74.1449 78.04 74.696 78.04Z" fill="#966504"/>
<g opacity="0.4">
<path opacity="0.3" d="M115.47 69.9864C115.947 69.9864 116.334 69.6022 116.334 69.1282C116.334 68.6542 115.947 68.27 115.47 68.27C114.992 68.27 114.605 68.6542 114.605 69.1282C114.605 69.6022 114.992 69.9864 115.47 69.9864Z" fill="white"/>
<path opacity="0.3" d="M107.022 75.1353C107.5 75.1353 107.887 74.7511 107.887 74.2771C107.887 73.8032 107.5 73.4189 107.022 73.4189C106.545 73.4189 106.157 73.8032 106.157 74.2771C106.157 74.7511 106.545 75.1353 107.022 75.1353Z" fill="white"/>
<path opacity="0.3" d="M127.841 74.2774C128.319 74.2774 128.706 73.8932 128.706 73.4192C128.706 72.9453 128.319 72.561 127.841 72.561C127.363 72.561 126.976 72.9453 126.976 73.4192C126.976 73.8932 127.363 74.2774 127.841 74.2774Z" fill="white"/>
<path opacity="0.3" d="M132.164 86.0279C132.642 86.0279 133.029 85.6437 133.029 85.1697C133.029 84.6957 132.642 84.3115 132.164 84.3115C131.687 84.3115 131.3 84.6957 131.3 85.1697C131.3 85.6437 131.687 86.0279 132.164 86.0279Z" fill="white"/>
<path opacity="0.3" d="M107.022 92.1011C107.5 92.1011 107.887 91.7169 107.887 91.2429C107.887 90.769 107.5 90.3848 107.022 90.3848C106.545 90.3848 106.157 90.769 106.157 91.2429C106.157 91.7169 106.545 92.1011 107.022 92.1011Z" fill="white"/>
<path opacity="0.3" d="M124.183 98.5049C124.661 98.5049 125.048 98.1207 125.048 97.6468C125.048 97.1728 124.661 96.7886 124.183 96.7886C123.705 96.7886 123.318 97.1728 123.318 97.6468C123.318 98.1207 123.705 98.5049 124.183 98.5049Z" fill="white"/>
<path opacity="0.3" d="M88.4645 91.3087C88.9421 91.3087 89.3292 90.9244 89.3292 90.4505C89.3292 89.9765 88.9421 89.5923 88.4645 89.5923C87.987 89.5923 87.5999 89.9765 87.5999 90.4505C87.5999 90.9244 87.987 91.3087 88.4645 91.3087Z" fill="white"/>
<path opacity="0.3" d="M94.7167 111.246C95.1943 111.246 95.5814 110.861 95.5814 110.387C95.5814 109.914 95.1943 109.529 94.7167 109.529C94.2392 109.529 93.8521 109.914 93.8521 110.387C93.8521 110.861 94.2392 111.246 94.7167 111.246Z" fill="white"/>
<path opacity="0.3" d="M114.671 113.49C115.149 113.49 115.536 113.106 115.536 112.632C115.536 112.158 115.149 111.773 114.671 111.773C114.194 111.773 113.806 112.158 113.806 112.632C113.806 113.106 114.194 113.49 114.671 113.49Z" fill="white"/>
<path opacity="0.3" d="M139.149 101.672C139.626 101.672 140.013 101.288 140.013 100.814C140.013 100.34 139.626 99.9561 139.149 99.9561C138.671 99.9561 138.284 100.34 138.284 100.814C138.284 101.288 138.671 101.672 139.149 101.672Z" fill="white"/>
<path opacity="0.3" d="M147.995 90.4512C148.473 90.4512 148.86 90.067 148.86 89.593C148.86 89.1191 148.473 88.7349 147.995 88.7349C147.517 88.7349 147.13 89.1191 147.13 89.593C147.13 90.067 147.517 90.4512 147.995 90.4512Z" fill="white"/>
<path opacity="0.3" d="M92.5219 69.9864C92.9995 69.9864 93.3866 69.6022 93.3866 69.1282C93.3866 68.6542 92.9995 68.27 92.5219 68.27C92.0444 68.27 91.6572 68.6542 91.6572 69.1282C91.6572 69.6022 92.0444 69.9864 92.5219 69.9864Z" fill="white"/>
<path opacity="0.3" d="M102.3 61.5362C102.777 61.5362 103.164 61.152 103.164 60.678C103.164 60.204 102.777 59.8198 102.3 59.8198C101.822 59.8198 101.435 60.204 101.435 60.678C101.435 61.152 101.822 61.5362 102.3 61.5362Z" fill="white"/>
<path opacity="0.3" d="M77.9553 49.7862C78.4329 49.7862 78.82 49.402 78.82 48.928C78.82 48.454 78.4329 48.0698 77.9553 48.0698C77.4778 48.0698 77.0906 48.454 77.0906 48.928C77.0906 49.402 77.4778 49.7862 77.9553 49.7862Z" fill="white"/>
<path opacity="0.3" d="M80.35 66.3555C80.8276 66.3555 81.2147 65.9713 81.2147 65.4973C81.2147 65.0234 80.8276 64.6392 80.35 64.6392C79.8725 64.6392 79.4854 65.0234 79.4854 65.4973C79.4854 65.9713 79.8725 66.3555 80.35 66.3555Z" fill="white"/>
<path opacity="0.3" d="M74.1638 79.4263C74.6413 79.4263 75.0285 79.0421 75.0285 78.5681C75.0285 78.0942 74.6413 77.71 74.1638 77.71C73.6862 77.71 73.2991 78.0942 73.2991 78.5681C73.2991 79.0421 73.6862 79.4263 74.1638 79.4263Z" fill="white"/>
<path opacity="0.3" d="M62.1249 97.6465C62.6025 97.6465 62.9896 97.2623 62.9896 96.7884C62.9896 96.3144 62.6025 95.9302 62.1249 95.9302C61.6474 95.9302 61.2603 96.3144 61.2603 96.7884C61.2603 97.2623 61.6474 97.6465 62.1249 97.6465Z" fill="white"/>
<path opacity="0.3" d="M77.8886 108.803C78.3662 108.803 78.7533 108.419 78.7533 107.945C78.7533 107.471 78.3662 107.086 77.8886 107.086C77.4111 107.086 77.0239 107.471 77.0239 107.945C77.0239 108.419 77.4111 108.803 77.8886 108.803Z" fill="white"/>
<path opacity="0.3" d="M97.6435 98.5049C98.121 98.5049 98.5082 98.1207 98.5082 97.6468C98.5082 97.1728 98.121 96.7886 97.6435 96.7886C97.1659 96.7886 96.7788 97.1728 96.7788 97.6468C96.7788 98.1207 97.1659 98.5049 97.6435 98.5049Z" fill="white"/>
<path opacity="0.3" d="M96.779 85.6319C97.2566 85.6319 97.6437 85.2477 97.6437 84.7737C97.6437 84.2998 97.2566 83.9155 96.779 83.9155C96.3014 83.9155 95.9143 84.2998 95.9143 84.7737C95.9143 85.2477 96.3014 85.6319 96.779 85.6319Z" fill="white"/>
<path opacity="0.3" d="M56.8034 83.9815C57.281 83.9815 57.6681 83.5973 57.6681 83.1233C57.6681 82.6494 57.281 82.2651 56.8034 82.2651C56.3259 82.2651 55.9387 82.6494 55.9387 83.1233C55.9387 83.5973 56.3259 83.9815 56.8034 83.9815Z" fill="white"/>
<path opacity="0.3" d="M62.1249 72.0333C62.6025 72.0333 62.9896 71.649 62.9896 71.1751C62.9896 70.7011 62.6025 70.3169 62.1249 70.3169C61.6474 70.3169 61.2603 70.7011 61.2603 71.1751C61.2603 71.649 61.6474 72.0333 62.1249 72.0333Z" fill="white"/>
<path opacity="0.3" d="M48.5556 71.1744C49.0332 71.1744 49.4203 70.7902 49.4203 70.3162C49.4203 69.8422 49.0332 69.458 48.5556 69.458C48.0781 69.458 47.6909 69.8422 47.6909 70.3162C47.6909 70.7902 48.0781 71.1744 48.5556 71.1744Z" fill="white"/>
<path opacity="0.3" d="M65.1181 65.5635C65.5957 65.5635 65.9828 65.1793 65.9828 64.7054C65.9828 64.2314 65.5957 63.8472 65.1181 63.8472C64.6406 63.8472 64.2534 64.2314 64.2534 64.7054C64.2534 65.1793 64.6406 65.5635 65.1181 65.5635Z" fill="white"/>
<path opacity="0.3" d="M119.327 59.358C119.805 59.358 120.192 58.9737 120.192 58.4998C120.192 58.0258 119.805 57.6416 119.327 57.6416C118.85 57.6416 118.463 58.0258 118.463 58.4998C118.463 58.9737 118.85 59.358 119.327 59.358Z" fill="white"/>
<path opacity="0.3" d="M132.164 111.246C132.642 111.246 133.029 110.861 133.029 110.387C133.029 109.914 132.642 109.529 132.164 109.529C131.687 109.529 131.3 109.914 131.3 110.387C131.3 110.861 131.687 111.246 132.164 111.246Z" fill="white"/>
<path opacity="0.3" d="M117.598 78.5679C118.075 78.5679 118.463 78.1837 118.463 77.7097C118.463 77.2358 118.075 76.8516 117.598 76.8516C117.12 76.8516 116.733 77.2358 116.733 77.7097C116.733 78.1837 117.12 78.5679 117.598 78.5679Z" fill="white"/>
</g>
<path d="M133.961 92.2329C111.279 92.2329 88.1986 104.181 92.9211 127.616C96.779 146.761 111.279 163 133.961 163C156.642 163 175 147.157 175 127.616C175 96.7879 156.576 92.2329 133.961 92.2329Z" fill="#C19E48"/>
<path d="M133.96 93.4214C112.077 93.4214 89.6618 104.974 94.2513 127.617C97.9761 146.101 112.011 161.812 133.96 161.812C155.844 161.812 173.67 146.497 173.67 127.617C173.603 97.8443 155.844 93.4214 133.96 93.4214Z" fill="#EACE5C"/>
<path d="M133.894 95.0054C113.008 95.0054 91.6572 105.964 96.0472 127.616C99.639 145.242 113.008 160.227 133.894 160.227C154.78 160.227 171.741 145.638 171.741 127.616C171.741 99.2303 154.78 95.0054 133.894 95.0054Z" fill="#F9E178"/>
<path d="M133.894 95.8638C113.541 95.8638 92.7881 106.558 97.0451 127.617C100.504 144.78 113.541 159.369 133.894 159.369C154.248 159.369 170.743 145.176 170.743 127.617C170.743 99.9566 154.248 95.8638 133.894 95.8638Z" fill="#FFFDAE"/>
<path d="M124.116 113.621C124.116 113.621 123.917 116.724 125.114 116.658C126.311 116.592 128.573 112.235 128.573 112.235C128.573 112.235 123.983 108.208 124.116 113.621Z" fill="#E8E05E"/>
<path d="M134.958 118.176C134.958 118.176 132.231 123.788 133.295 124.514C134.36 125.24 138.084 122.533 138.35 122.203C138.55 121.807 136.089 117.714 134.958 118.176Z" fill="#E8E05E"/>
<path d="M124.116 119.233C123.384 119.233 123.717 122.864 126.178 123.326C128.573 123.788 127.508 119.695 127.508 119.695C127.375 118.969 124.848 119.233 124.116 119.233Z" fill="#E8E05E"/>
<path d="M123.651 138.311C122.919 138.311 123.251 141.942 125.712 142.404C128.107 142.866 127.043 138.773 127.043 138.773C126.91 138.047 124.382 138.311 123.651 138.311Z" fill="#E8E05E"/>
<path d="M134.093 129.465C134.093 129.465 138.084 133.624 138.35 133.162C138.55 132.699 136.222 127.814 136.222 127.814L134.093 129.465Z" fill="#E8E05E"/>
<path d="M137.619 142.536C137.619 142.536 141.61 146.695 141.876 146.233C142.075 145.771 139.747 140.886 139.747 140.886L137.619 142.536Z" fill="#E8E05E"/>
<path d="M127.043 147.883C127.043 147.883 131.034 152.042 131.3 151.58C131.499 151.117 129.171 146.232 129.171 146.232L127.043 147.883Z" fill="#E8E05E"/>
<path d="M128.573 129.465C126.178 132.106 126.112 134.152 126.112 134.152L128.573 133.228C128.573 133.162 129.97 127.947 128.573 129.465Z" fill="#E8E05E"/>
<path d="M113.74 129.201C114.605 129.729 117.465 125.174 117.465 125.174C117.465 125.174 113.74 125.504 112.21 126.627C110.681 127.749 113.74 129.201 113.74 129.201Z" fill="#E8E05E"/>
<path d="M117.465 135.208C117.465 135.208 117.199 136.792 117.465 136.991C117.731 137.255 119.194 135.538 119.194 135.208C119.194 134.812 117.664 132.171 117.465 135.208Z" fill="#E8E05E"/>
<path d="M145.268 124.58C143.339 124.184 140.146 123.986 141.144 125.174C141.144 125.174 144.071 129.069 144.27 127.815C144.403 126.627 147.263 124.976 145.268 124.58Z" fill="#E8E05E"/>
<path d="M142.807 133.822C140.878 133.426 137.685 133.228 138.683 134.416C138.683 134.416 141.61 138.311 141.809 137.056C141.942 135.868 144.736 134.218 142.807 133.822Z" fill="#E8E05E"/>
<path d="M144.27 115.668C144.27 115.8 143.938 119.497 145.268 119.233C146.598 118.903 150.589 116.064 149.857 115.668C149.192 115.272 144.204 113.886 144.27 115.668Z" fill="#E8E05E"/>
<path d="M147.862 120.553C147.862 120.685 147.529 124.382 148.86 124.118C150.19 123.788 154.181 120.949 153.449 120.553C152.717 120.157 147.795 118.837 147.862 120.553Z" fill="#E8E05E"/>
<path d="M118.329 128.078C118.329 128.21 117.997 131.907 119.327 131.643C120.657 131.313 124.648 128.475 123.917 128.078C123.185 127.748 118.263 126.362 118.329 128.078Z" fill="#E8E05E"/>
<path d="M105.692 120.025C105.692 120.157 105.359 123.854 106.689 123.59C108.02 123.26 112.011 120.422 111.279 120.025C110.547 119.629 105.625 118.243 105.692 120.025Z" fill="#E8E05E"/>
<path d="M151.321 129.201C151.321 129.333 150.988 133.03 152.319 132.766C153.649 132.435 157.64 129.597 156.908 129.201C156.243 128.805 151.321 127.418 151.321 129.201Z" fill="#E8E05E"/>
<path d="M144.935 141.084C144.935 141.216 144.603 144.913 145.933 144.649C147.263 144.319 151.254 141.48 150.523 141.084C149.857 140.688 144.935 139.302 144.935 141.084Z" fill="#E8E05E"/>
<path d="M136.222 113.093C136.222 115.602 138.351 112.235 138.351 112.235C139.814 110.585 138.351 109 138.351 109C138.351 109 136.289 110.585 136.222 113.093Z" fill="#E8E05E"/>
<path d="M113.873 117.253C113.873 119.761 116.001 116.394 116.001 116.394C117.465 114.744 116.001 113.16 116.001 113.16C116.001 113.16 113.873 114.744 113.873 117.253Z" fill="#E8E05E"/>
<path d="M131.167 109.859C131.167 112.367 133.295 109 133.295 109C134.758 107.35 133.295 105.766 133.295 105.766C133.295 105.766 131.167 107.35 131.167 109.859Z" fill="#E8E05E"/>
<path d="M148.594 110.585C148.594 113.094 150.722 109.727 150.722 109.727C152.186 108.077 150.722 106.492 150.722 106.492C150.722 106.492 148.66 108.077 148.594 110.585Z" fill="#E8E05E"/>
<path d="M154.314 138.641C154.314 141.149 156.442 137.783 156.442 137.783C157.906 136.132 156.442 134.548 156.442 134.548C156.442 134.548 154.314 136.132 154.314 138.641Z" fill="#E8E05E"/>
<path d="M155.644 121.741C155.644 121.741 156.376 124.249 158.77 125.107C161.098 126.032 158.704 122.863 158.704 122.863C157.64 121.015 155.644 121.741 155.644 121.741Z" fill="#E8E05E"/>
<path d="M157.041 116.329C157.041 118.837 159.169 115.471 159.169 115.471C160.633 113.82 159.169 112.236 159.169 112.236C159.169 112.236 157.041 113.82 157.041 116.329Z" fill="#E8E05E"/>
<path d="M115.27 141.941C115.27 141.941 116.001 144.45 118.329 145.374C120.657 146.298 118.329 143.13 118.329 143.13C117.265 141.215 115.27 141.941 115.27 141.941Z" fill="#E8E05E"/>
<path d="M131.765 138.575C131.765 138.575 132.83 140.753 134.16 140.291C135.424 139.829 134.16 135.406 134.16 135.406C134.16 135.406 129.57 135.34 131.765 138.575Z" fill="#E8E05E"/>
</svg>
